<?xml version="1.0" encoding="utf-8"?>
<!-- Generator: Adobe Illustrator 25.2.3, SVG Export Plug-In . SVG Version: 6.00 Build 0)  -->
<svg version="1.1" id="Layer_1" xmlns="http://www.w3.org/2000/svg" xmlns:xlink="http://www.w3.org/1999/xlink" x="0px" y="0px"
	 viewBox="0 0 380.2 616.7" style="enable-background:new 0 0 380.2 616.7;" xml:space="preserve">
<style type="text/css">
	.st0{fill:#F5D9D4;}
	.st1{fill:#FDF7F6;}
	.st2{fill:#DF8474;}
	.st3{clip-path:url(#SVGID_2_);}
	.st4{fill:#E7E1B7;}
	.st5{fill:#EAF5F4;}
	.st6{fill:#E08778;}
	.st7{fill:#E39486;}
	.st8{fill:#E59B8F;}
	.st9{fill:#F2CEC8;}
	.st10{fill:#EFC3BB;}
	.st11{fill:#ECB6AD;}
	.st12{fill:#CCC6E7;}
	.st13{fill:#F8E6E3;}
	.st14{fill:#E9ACA1;}
	.st15{fill:#BBB3DF;}
	.st16{fill:#E39588;}
	.st17{fill:#E18C7E;}
	.st18{fill:#DE8171;}
</style>
<g id="Layer_2_1_">
	<g id="Layer_1-2">
		<path class="st0" d="M380.2,23.4v569.9c0,12.9-10.9,23.4-24.3,23.4H24.3C10.9,616.7,0,606.2,0,593.3V23.4C0,10.5,10.9,0,24.3,0
			H356C369.4,0,380.2,10.5,380.2,23.4z M359.9,579.7V36.9c0-9.7-7.8-17.5-17.5-17.5H37.9c-9.7,0-17.5,7.8-17.5,17.5v542.8
			c0,9.7,7.8,17.5,17.5,17.5h304.5C352,597.2,359.8,589.4,359.9,579.7z"/>
		<path class="st1" d="M37.9,19.4h304.5c9.7,0,17.5,7.8,17.5,17.5v542.8c0,9.7-7.8,17.5-17.5,17.5H37.9c-9.7,0-17.5-7.8-17.5-17.5
			V36.9C20.4,27.3,28.2,19.4,37.9,19.4z"/>
		<path class="st2" d="M86.1,536.2c-0.3-0.4-0.5-0.8-0.4-1.3V509h-8.3c-0.5,0.1-1-0.1-1.3-0.4c-0.3-0.4-0.4-0.8-0.4-1.3V506
			c0-0.5,0.1-0.9,0.4-1.3c0.4-0.3,0.8-0.5,1.3-0.4H100c0.5,0,1,0.1,1.3,0.4c0.3,0.4,0.4,0.8,0.4,1.3v1.3c0,0.5-0.1,0.9-0.4,1.3
			c-0.4,0.3-0.9,0.4-1.3,0.4h-8.3v26c0,0.5-0.1,0.9-0.4,1.3c-0.4,0.3-0.9,0.5-1.4,0.4h-2.5C87,536.7,86.5,536.6,86.1,536.2z"/>
		<path class="st2" d="M105.9,536.2c-0.3-0.4-0.4-0.8-0.4-1.3V506c0-0.5,0.1-1,0.4-1.3c0.4-0.3,0.9-0.5,1.3-0.4h2.5
			c0.5,0,1,0.1,1.4,0.4c0.3,0.4,0.5,0.8,0.4,1.3v12h15.6v-12c0-0.5,0.1-1,0.4-1.3c0.4-0.3,0.9-0.5,1.4-0.4h2.5c0.5,0,1,0.1,1.4,0.4
			c0.3,0.4,0.5,0.8,0.4,1.3v29c0,0.5-0.1,0.9-0.4,1.3c-0.4,0.3-0.9,0.5-1.4,0.4H129c-0.5,0-1-0.1-1.4-0.4c-0.3-0.4-0.5-0.8-0.4-1.3
			v-12.3h-15.6V535c0,0.5-0.1,0.9-0.4,1.3c-0.4,0.3-0.9,0.5-1.4,0.4h-2.5C106.8,536.8,106.3,536.6,105.9,536.2z"/>
		<path class="st2" d="M139.3,536.2c-0.3-0.4-0.4-0.8-0.4-1.3V506c0-0.5,0.1-1,0.4-1.3c0.4-0.3,0.9-0.5,1.4-0.4h19.8
			c0.5-0.1,0.9,0.1,1.3,0.4c0.3,0.4,0.4,0.8,0.4,1.3v1.3c0,0.5-0.1,0.9-0.4,1.3c-0.4,0.3-0.8,0.5-1.3,0.4H145v9.2h11.2
			c0.5-0.1,1,0.1,1.3,0.4c0.3,0.4,0.4,0.8,0.4,1.3v1.2c0,0.5-0.1,0.9-0.4,1.3c-0.4,0.3-0.9,0.5-1.3,0.4H145v9.2h15.4
			c0.5,0,1,0.1,1.3,0.4c0.3,0.4,0.4,0.8,0.4,1.3v1.3c0,0.4-0.1,0.9-0.4,1.2c-0.4,0.3-0.9,0.4-1.3,0.4h-19.8
			C140.2,536.7,139.7,536.5,139.3,536.2z"/>
		<path class="st2" d="M185.2,536.2c-0.3-0.4-0.4-0.8-0.4-1.3V506c0-0.5,0.1-1,0.4-1.3c0.4-0.3,0.9-0.5,1.4-0.4h19.8
			c0.5-0.1,0.9,0.1,1.3,0.4c0.3,0.4,0.4,0.8,0.3,1.3v1.3c0,0.5-0.1,0.9-0.4,1.3c-0.4,0.3-0.8,0.5-1.3,0.4h-15.4v9.2h11.2
			c0.5-0.1,1,0.1,1.3,0.4c0.3,0.4,0.4,0.8,0.4,1.3v1.3c0,0.5-0.1,0.9-0.4,1.3c-0.4,0.3-0.9,0.4-1.3,0.4h-11.2V535
			c0,0.5-0.1,0.9-0.4,1.3c-0.4,0.3-0.9,0.5-1.4,0.4h-2.5C186.1,536.7,185.6,536.6,185.2,536.2z"/>
		<path class="st2" d="M212.9,533c-2.8-3-4.2-7.1-4.2-12.5s1.4-9.5,4.2-12.5c2.8-2.9,6.8-4.4,12-4.4s9.2,1.5,12,4.4
			c2.8,3,4.2,7.1,4.2,12.5s-1.4,9.5-4.1,12.5c-2.8,2.9-6.8,4.4-12,4.4S215.7,535.9,212.9,533z M232.5,529.8c1.7-2.1,2.6-5.2,2.6-9.2
			s-0.9-7.1-2.6-9.2s-4.3-3.1-7.6-3.1s-5.9,1-7.6,3.1c-1.8,2.1-2.6,5.2-2.6,9.2s0.9,7.1,2.6,9.2s4.3,3.2,7.6,3.2
			S230.8,531.8,232.5,529.8L232.5,529.8z"/>
		<path class="st2" d="M247.9,533c-2.8-3-4.2-7.1-4.2-12.5s1.4-9.5,4.2-12.5c2.8-2.9,6.8-4.4,12.1-4.4c5.2,0,9.2,1.5,12,4.4
			c2.8,3,4.2,7.1,4.2,12.5s-1.4,9.5-4.2,12.5c-2.8,2.9-6.8,4.4-12,4.4S250.8,535.9,247.9,533z M267.6,529.8c1.7-2.1,2.6-5.2,2.6-9.2
			c0-4.1-0.9-7.1-2.6-9.2s-4.3-3.1-7.6-3.1s-5.9,1-7.6,3.1c-1.8,2.1-2.6,5.2-2.6,9.2s0.9,7.1,2.6,9.2s4.3,3.2,7.6,3.2
			S265.8,531.8,267.6,529.8L267.6,529.8z"/>
		<path class="st2" d="M281.3,536.2c-0.3-0.4-0.4-0.8-0.4-1.3V506c0-0.5,0.1-1,0.4-1.3c0.4-0.3,0.9-0.5,1.4-0.4h2.5
			c0.5,0,1,0.1,1.4,0.4c0.3,0.4,0.5,0.8,0.4,1.3v26h14.5c0.5-0.1,1,0.1,1.3,0.4c0.3,0.4,0.4,0.8,0.4,1.3v1.2c0,0.4-0.1,0.9-0.4,1.2
			c-0.4,0.3-0.9,0.4-1.3,0.4h-18.9C282.2,536.7,281.7,536.5,281.3,536.2z"/>
		<g>
			<g>
				<defs>
					<path id="SVGID_1_" d="M109.3,71.2h166c33.9,0,61.5,27.5,61.5,61.4V401c0,33.9-27.5,61.5-61.5,61.5h-166
						c-33.9,0-61.5-27.5-61.5-61.5V132.7C47.8,98.8,75.3,71.2,109.3,71.2z"/>
				</defs>
				<clipPath id="SVGID_2_">
					<use xlink:href="#SVGID_1_"  style="overflow:visible;"/>
				</clipPath>
				<g class="st3">
					<rect x="13.8" y="31.4" class="st4" width="344.7" height="225.1"/>
					<path class="st5" d="M32.2,189.9h122.5c17.5,0,31.6,14.2,31.6,31.6l0,0c0,17.5-14.2,31.6-31.6,31.6H32.2
						c-17.5,0-31.6-14.2-31.6-31.6l0,0C0.6,204,14.7,189.9,32.2,189.9z"/>
					<path class="st5" d="M-13.7,160.6h115.5c9.2,0,16.7,7.5,16.7,16.7l0,0c0,9.2-7.5,16.7-16.7,16.7H-13.7
						c-9.2,0-16.7-7.5-16.7-16.7l0,0C-30.3,168-22.9,160.6-13.7,160.6z"/>
					<rect x="3.2" y="247.4" class="st6" width="341" height="258"/>
					<path class="st7" d="M109.5,247.2l64.4-62.5c6.9-6.7,17.9-6.8,24.9-0.1l66.8,63.9"/>
					<path class="st8" d="M203.8,262l68.7-66.7c7.4-7.2,19.1-7.2,26.6-0.1l71.3,68.2L203,261.9"/>
					<path class="st9" d="M267.3,261.6h75c4.6,0,8.3,3.7,8.3,8.3l0,0c0,4.6-3.7,8.3-8.3,8.3h-75c-4.6,0-8.3-3.7-8.3-8.3l0,0
						C259,265.3,262.7,261.6,267.3,261.6z"/>
					<path class="st9" d="M119.9,255.3h154.5c4.9,0,8.9,4,8.9,8.9l0,0c0,4.9-4,8.9-8.9,8.9H119.9c-4.9,0-8.9-4-8.9-8.9l0,0
						C111,259.3,115,255.3,119.9,255.3z"/>
					<path class="st10" d="M40.6,333.2c2.3,22.9,10.4,36,19.8,43.5v-36.2c-1.7-2.5-3.2-5.2-4.4-8c0,0.1,0,0.2,0,0.3
						c-7-5.3-8.3-16.9-7.9-24.6c0.6-10,4.4-23.6,7.3-34.5c0-0.1,0-0.1,0-0.2c0.4-1.9,1-3.8,1.5-5.8v-0.1c0.9-3.6,2.1-7.1,3.4-10.6
						v-21.2C48,247,35.6,264.4,34.9,265.4c-2.6,4.8-5,9.8-7.2,14.8c-5.1,13.4-9.3,27.1-12.7,41.1C29.1,307.7,40.6,332.8,40.6,333.2z
						"/>
					<path class="st10" d="M35.3,264.8l0.7-1.2C35.7,264,35.5,264.4,35.3,264.8z"/>
					<path class="st10" d="M56,332.5c1.2,2.8,2.7,5.5,4.4,8v-45.6C57.7,307.2,56.2,319.9,56,332.5z"/>
					<path class="st10" d="M55.5,273.5c0,0.1,0,0.1,0,0.2c0.6-2.1,1.1-4.1,1.6-6C56.4,269.7,55.9,271.6,55.5,273.5z"/>
					<path class="st9" d="M35.9,263.6c6.8-12.3,15-23.7,24.4-34.1v-2.6c-2.1,2.1-4,4.3-5.8,6.5C47.4,243.2,38.9,258.3,35.9,263.6z"
						/>
					<path class="st9" d="M34.9,265.5L34.9,265.5l0.3-0.7L34.9,265.5z"/>
					<path class="st9" d="M55.4,273.7c-3,11-6.8,24.5-7.3,34.5c-0.5,7.7,0.9,19.4,7.9,24.6c0-0.1,0-0.2,0-0.3
						C48.5,315.2,50.8,293,55.4,273.7z"/>
					<path class="st9" d="M60.4,235.8v-6.4c-9.5,10.4-17.7,21.8-24.4,34.1l-0.7,1.2l-0.3,0.6C35.7,264.4,48.1,247,60.4,235.8z"/>
					<path class="st9" d="M60.4,257c-1.3,3.5-2.4,7-3.4,10.6v0.1c1-3.4,2.1-6.8,3.4-10.3V257z"/>
					<path class="st9" d="M60.4,257.4c-1.3,3.5-2.4,7-3.4,10.3c-0.5,1.9-1,3.9-1.6,6c-4.7,19.3-6.9,41.5,0.5,58.8
						c0.2-12.7,1.7-25.3,4.4-37.6L60.4,257.4L60.4,257.4z"/>
					<path class="st11" d="M3.7,334.5c-0.4,1.8-0.8,3.6-1,5.4c0.7,2.9,1,5.9,1,8.9V334.5z"/>
					<path class="st11" d="M3.8,352.7c1.1-20.9,10-42.2,18.4-60.5c1.1-2.4,2.2-4.7,3.4-7c0.7-1.6,1.4-3.3,2.1-4.9l0.1-0.1
						c-6.2,8.3-18.7,30.5-24,54.4v14.2C3.8,350,3.8,351.4,3.8,352.7z"/>
					<path class="st11" d="M18.1,381.8c3.5,4,6.7,8.3,9.6,12.8h32.6v-17.8c-9.4-7.5-17.4-20.6-19.8-43.5c0-0.4-11.5-25.5-25.6-11.9
						c3.4-14,7.6-27.7,12.7-41.1c-0.7,1.6-1.4,3.3-2.1,4.9c-1.1,2.3-2.3,4.7-3.4,7C13.8,310.5,5,331.8,3.8,352.7
						c0.2,5.2,0.5,10.4,2.8,14.6C9.6,372.7,14.2,377.1,18.1,381.8z"/>
					<path class="st11" d="M2.7,339.9L2.7,339.9c-2.7,8.5-3.2,28.3,1.1,38v-4.6C0.6,362.8,0.7,351.2,2.7,339.9z"/>
					<path class="st11" d="M12.6,394.5H15c-4.6-5.6-8.2-12-10.4-18.8c-0.3-0.8-0.5-1.6-0.8-2.5v4.6l0,0
						C5.4,384,8.4,389.7,12.6,394.5z"/>
					<path class="st11" d="M3.7,373.2v-24.5c0-3-0.4-6-1-8.9C0.7,351.2,0.6,362.8,3.7,373.2z"/>
					<path class="st11" d="M4.2,365.8c-0.5-4.3-0.6-8.7-0.4-13.1c0-1.3-0.1-2.6-0.1-3.9v24.5c0.2,0.8,0.5,1.6,0.8,2.5
						c2.3,6.9,5.8,13.3,10.4,18.8h2.7C10.6,387.5,5.7,378.1,4.2,365.8z"/>
					<path class="st11" d="M4.2,365.8c1.5,12.3,6.3,21.7,13.4,28.8h10.2c-2.9-4.5-6.1-8.8-9.6-12.8c-3.9-4.7-8.5-9.1-11.5-14.5
						c-2.3-4.2-2.7-9.4-2.8-14.6C3.6,357,3.7,361.4,4.2,365.8z"/>
					<polygon class="st10" points="60.4,503.2 3.7,503.2 3.7,504.6 248.6,504.6 248.6,503.2 83.6,503.2 					"/>
					<rect x="3.7" y="492.4" class="st10" width="56.7" height="10.8"/>
					<path class="st9" d="M60.4,414.8c-1.9-0.1-3.9-0.3-6-0.5c-12.4-1.1-29.7-8.3-35.2-13.2c-2.4-2-4.6-4.3-6.6-6.6H3.7v97.9h56.6
						v-77.6H60.4z"/>
					<path class="st9" d="M45.3,408.3c4.9,1.6,9.9,2.6,15,3v-16.8H27.8l0,0C29.3,397,40.5,406.6,45.3,408.3z"/>
					<path class="st9" d="M42.6,410.6c-13-3-21.7-9.1-27.6-16h-2.4c2,2.4,4.2,4.6,6.6,6.6c5.5,4.9,22.8,12.1,35.2,13.2
						c2,0.2,4,0.3,6,0.5v-1.4C54.4,412.8,48.4,411.9,42.6,410.6z"/>
					<path class="st9" d="M42.6,410.6c5.9,1.3,11.8,2.2,17.8,2.8v-0.9c-16.8-2.2-32.3-7.5-42.8-18h-2.7
						C20.9,401.5,29.6,407.6,42.6,410.6z"/>
					<path class="st9" d="M45.3,408.3c-4.9-1.7-16.1-11.2-17.5-13.7l0,0H17.6c10.5,10.5,25.9,15.8,42.8,18v-1.3
						C55.3,410.8,50.2,409.8,45.3,408.3z"/>
					<path class="st8" d="M181.9,285.9v-3.3c-2.6-0.2-5.3-0.1-7.9,0.1c0,1.1,0.1,2.2,0.1,3.2L181.9,285.9L181.9,285.9z"/>
					<path class="st10" d="M60.4,235.8V257c4-10.3,8.5-20.3,13.6-30.1C70,228,65.2,231.4,60.4,235.8z"/>
					<path class="st10" d="M83.6,360.8c-2.6-1.8-4.9-3.8-6.9-6.2l0,0c-6.5-3.2-12.1-8-16.3-14v36.2c6.7,5.2,14.8,8.4,23.2,9.2V360.8
						z"/>
					<path class="st10" d="M132.6,354.1c-1.8,1-3.5,1.8-5.3,2.6C129.2,356.1,131,355.2,132.6,354.1z"/>
					<path class="st10" d="M147.1,373.2c22.4-15,23.2-35.5,25.8-43c0,0.3,0.1,0.6,0.1,0.9c0.8-9.2,1.2-18.5,1.2-27.8
						c-4.6,11.4-11,22-18.7,31.5c-2.2,6.1-4.3,11-5.7,12.6c-3.3,5.8-7.7,11-13.1,15c-14.2,10.3-38.2,8.6-53-1.6v25.1h0.2
						C94.7,387.1,130.3,384.5,147.1,373.2z"/>
					<path class="st10" d="M76.7,354.5c2.3-0.1,4.6-0.1,6.9,0V244.8c-11,14.3-18.8,30.7-23.2,50.1v45.6
						C64.5,346.5,70.2,351.3,76.7,354.5z"/>
					<path class="st10" d="M112.6,219.7c-3.1,1.2-6.1,2.7-8.8,4.6L112.6,219.7z"/>
					<path class="st10" d="M171.9,282.9c-3.4,0.4-6.7,1.4-9.8,3h10.3C172.2,284.9,172.1,283.9,171.9,282.9z"/>
					<path class="st10" d="M97.7,229.2c-5.1,4.8-9.8,10-14.1,15.6v41.1h60.3c1.4-2.7,3.3-5.2,5.5-7.4c4.8-4.6,11.5-7.7,19.5-8.9
						c-3.7-14.3-9.7-30.8-19.4-40.7c-10.9-11.2-24.4-13.9-36.9-9.2l-8.8,4.6C101.6,225.8,99.6,227.4,97.7,229.2z"/>
					<path class="st10" d="M127.3,356.7c1.8-0.8,3.6-1.7,5.3-2.6c0.9-0.6,1.8-1.3,2.6-2c6.1-5.5,12.4-20.8,18.6-33.6
						c-1,1.5-2.6,2.6-4.3,2.9c-3.6,0.8-7.2-1.6-8-5.2v-0.1c-2.5-12.3-1.6-22.4,2.4-30.1H83.6v68.7C98.2,355.5,114.7,361,127.3,356.7
						z"/>
					<path class="st10" d="M154.9,313.4c0.2,1.2,0.2,2.4-0.3,3.6c3.5-6.9,6.9-13,10.4-16.2c0.2,3.2-4.9,21.3-9.6,34.1
						c7.8-9.5,14.1-20.1,18.7-31.5c0-2.1-0.1-4.2-0.1-6.4c0,0.3-0.4-4.2-1.6-11.1h-10.3c-1.2,0.7-2.3,1.5-3.3,2.4
						C153.8,293.2,152.5,301.6,154.9,313.4z"/>
					<path class="st9" d="M78.1,213c3.3-2.6,6.9-4.9,10.7-6.9c-1-0.3-2-0.7-2.8-1.2c-1,0.6-2,1.1-2.9,1.8c-1.3,0.9-2.6,1.8-3.8,2.8
						c0.1,2.2-0.3,4.1-2.2,2.2c-0.1-0.1-0.1-0.2-0.2-0.2c-5.4,4.5-11.7,10.7-16.3,15.5v2.6C65.8,223.5,71.7,218,78.1,213z"/>
					<path class="st9" d="M113.5,198.5c0,0.1-0.1,0.2-0.1,0.3l0,0C113.4,198.7,113.4,198.6,113.5,198.5z"/>
					<path class="st9" d="M117.1,197.3c-0.1,0.4-0.2,0.9-0.3,1.4l1.2,0.1C117.5,198.4,117.2,197.9,117.1,197.3z"/>
					<path class="st9" d="M118.9,198.8c7.3,0.4,14.3,2.8,20.3,6.9l3.3-1.7c-2.1-1.9-4.5-3.6-6.9-5c-4.4-2.3-9.2-3.7-14.2-3.9
						C120.9,196.5,120,197.8,118.9,198.8z"/>
					<path class="st9" d="M140.6,206.7l6.3,1.6c-1.4-1.5-2.8-2.9-4.4-4.3l-3.3,1.7C139.7,206.1,140.1,206.4,140.6,206.7z"/>
					<path class="st9" d="M174.1,285.9c0-1.1,0-2.2-0.1-3.2l-0.9,0.1c0.1,1,0.2,2.1,0.3,3.2h0.7V285.9z"/>
					<path class="st9" d="M171.2,269.3c0.6-0.1,1.3-0.1,1.9-0.2c-0.8-8.1-2.1-15.5-3.9-21c-5.9-17.4-14-30.9-22.3-39.8l-6.3-1.6
						c0.4,0.3,0.9,0.6,1.3,1C159.3,221.8,167.4,247.2,171.2,269.3z"/>
					<path class="st9" d="M174,297c0.1-3.6,0.1-7.3,0-11.1h-0.7C173.6,289.6,173.8,293.3,174,297L174,297z"/>
					<path class="st9" d="M74,226.9c-5.1,9.8-9.7,19.8-13.6,30.1v0.4c7-19,18.9-39.4,35.4-50.8c-2.4,0.1-4.7-0.1-7-0.6
						c-3.8,2-7.3,4.4-10.7,7c-6.3,5-12.3,10.5-17.7,16.5v6.4C65.2,231.4,70,228,74,226.9z"/>
					<path class="st9" d="M138.4,206.2l0.8-0.4c-6-4.1-13-6.5-20.3-6.9c-0.2,0.2-0.4,0.2-0.7,0.1l-0.3-0.2l-1.2-0.1
						c-0.2,0.7-0.4,1.4-0.7,2L138.4,206.2z"/>
					<path class="st9" d="M113.1,200c0.1-0.4,0.2-0.8,0.3-1.2l0,0C113.3,199.2,113.1,199.5,113.1,200L113.1,200z"/>
					<path class="st9" d="M83.6,244.8v-27.3l16.9-11.3c-1.6,0.2-3.2,0.4-4.8,0.4c-16.5,11.3-28.3,31.7-35.4,50.8v37.5
						C64.8,275.5,72.6,259.1,83.6,244.8z"/>
					<path class="st9" d="M110,204.4c-0.3,0-0.3-0.7-0.1-2c-1.3,1.5-3,2.6-4.9,3c-0.7,0.1-2.4,0.4-4.5,0.7l-16.9,11.3v17.3
						l20.2-10.6c2.7-1.9,5.7-3.4,8.8-4.6l25.8-13.5l-22.2-5.4c-0.4,1.2-1.2,2.1-2.3,2.6c-1.3,0.4-1.2-1.4-0.7-3.4H113
						C112,202.1,110.9,204.3,110,204.4z"/>
					<path class="st9" d="M140.6,206.7c-0.5-0.3-0.9-0.7-1.4-1l-0.8,0.4L140.6,206.7z"/>
					<path class="st9" d="M112.6,219.7c12.5-4.7,26-2,36.9,9.2c9.7,10,15.8,26.5,19.4,40.7c0.7-0.1,1.5-0.2,2.2-0.3
						c-3.8-22.1-11.9-47.5-29.3-61.6c-0.4-0.3-0.9-0.7-1.3-1l-2.2-0.5L112.6,219.7z"/>
					<path class="st9" d="M172.4,285.9h0.9c-0.1-1-0.2-2.1-0.3-3.2l-1.2,0.1C172.1,283.9,172.2,284.9,172.4,285.9z"/>
					<path class="st9" d="M97.7,229.2c1.9-1.8,3.9-3.4,6.1-4.9l-20.2,10.6v10C87.9,239.3,92.6,234,97.7,229.2z"/>
					<path class="st9" d="M174,297c-0.1-3.7-0.4-7.4-0.7-11.1h-0.9C173.6,292.8,174,297.3,174,297z"/>
					<path class="st11" d="M168.8,367.4c1.5-0.5,3.1-0.9,4.6-1.1c1.2-12.4,1.1-25.5-0.4-35.1c-0.8,9.8-2.1,19.6-3.4,29.3
						C169.3,362.5,169,364.9,168.8,367.4z"/>
					<path class="st11" d="M83.6,385.9c-8.5-0.8-16.5-4-23.2-9.2v17.8h23.2V385.9z"/>
					<path class="st11" d="M126.3,387c2.2,2.2,3.9,4.8,5.2,7.6h15.6c0.1-2.2,0.7-4.3,1.9-6.2l0,0c1-3.9,2.9-7.5,5.6-10.5l0,0
						c3.5-5,8.5-8.7,14.3-10.4c0.2-2.5,0.5-4.9,0.8-7c1.4-9.7,2.6-19.5,3.4-29.3c0-0.3-0.1-0.6-0.1-0.9c-2.6,7.5-3.4,28-25.8,43
						c-16.8,11.3-52.4,13.9-63.3,12.7h-0.2v8.6h43.1C126.7,392,126.6,389.5,126.3,387z"/>
					<path class="st10" d="M81.5,356.8c-1.7-0.7-3.3-1.4-4.9-2.2l0,0c2,2.4,4.4,4.5,6.9,6.2v-3.2C82.9,357.3,82.2,357,81.5,356.8z"
						/>
					<path class="st10" d="M136.6,362.4c5.3-4,9.8-9.2,13.1-15c1.4-1.6,3.5-6.5,5.7-12.6c-6.3,7.8-14.1,14.3-22.8,19.3
						c-1.7,1.1-3.5,2-5.3,2.6c-13,5.6-27.8,6.6-43.7,0.8v3.2C98.5,371,122.4,372.7,136.6,362.4z"/>
					<path class="st10" d="M83.6,357.5v-3c-2.3-0.1-4.6-0.1-6.9,0c1.6,0.8,3.2,1.6,4.9,2.2C82.2,357,82.9,357.3,83.6,357.5z"/>
					<path class="st10" d="M154.6,317c-0.2,0.5-0.4,1-0.7,1.5c-6.3,12.8-12.5,28.1-18.6,33.6c-0.8,0.7-1.7,1.4-2.6,2
						c8.7-4.9,16.5-11.5,22.8-19.3c4.7-12.8,9.8-30.8,9.6-34.1C161.5,303.9,158.1,310,154.6,317z"/>
					<path class="st10" d="M127.3,356.7c-12.6,4.3-29-1.2-43.7-2.1v3C99.5,363.3,114.3,362.3,127.3,356.7z"/>
					<path class="st11" d="M126.7,394.5h4.8c-1.2-2.8-3-5.4-5.2-7.6C126.6,389.5,126.7,392,126.7,394.5z"/>
					<path class="st10" d="M209.1,401.5l0.5,0.2c0.2-1.7,0.2-3.5-0.1-5.2c-0.1-0.6-0.2-1.3-0.4-1.9V401.5z"/>
					<path class="st10" d="M193.5,386.3v-9.6c-6.3-3.6-13.6-5-20.7-4.2c-0.2,1.8-0.5,3.6-0.8,5.3C179.9,378,187.6,381,193.5,386.3z"
						/>
					<path class="st10" d="M167.7,378.4c1.4-0.3,2.8-0.5,4.3-0.5c0.3-1.7,0.5-3.5,0.8-5.3c-1.5,0.1-3,0.4-4.5,0.7
						C168.1,374.9,167.9,376.7,167.7,378.4z"/>
					<path class="st10" d="M156.6,394.5c-0.6-1.8-0.7-3.7-0.3-5.6c0.6-3.2,3.1-5.4,5.5-7.6c1.7-1.5,3.7-2.5,5.9-3
						c0.2-1.7,0.4-3.5,0.6-5.2c-4.8,1-9.4,2.6-13.8,4.7c-2.7,3-4.6,6.6-5.6,10.5c0.9,2.2,2.1,4.2,3.4,6.2H156.6z"/>
					<path class="st10" d="M167.9,394.5L167.9,394.5h10.7c5,0,10,0.5,14.9,1.6v-9.8c-5.9-5.3-13.5-8.3-21.5-8.4
						C171.2,383.5,169.8,389.1,167.9,394.5L167.9,394.5z"/>
					<path class="st10" d="M167.9,394.5L167.9,394.5c1.9-5.4,3.3-11,4.1-16.7c-1.4,0-2.9,0.2-4.3,0.5c-0.7,5.8-1.8,11.5-3.9,16.1
						h4.1V394.5z"/>
					<path class="st10" d="M156.3,389c-0.4,1.9-0.2,3.8,0.3,5.6h7.2c2.1-4.6,3.2-10.4,3.9-16.1c-2.2,0.5-4.2,1.5-5.9,3
						C159.4,383.6,156.9,385.7,156.3,389z"/>
					<path class="st10" d="M167.9,394.5L167.9,394.5L167.9,394.5L167.9,394.5z"/>
					<path class="st10" d="M167.9,394.5L167.9,394.5L167.9,394.5z"/>
					<path class="st10" d="M210.1,380.1c2.9,2.1,5.7,4.5,8.2,7.2c2.9,2,5.5,4.3,8,6.9c0-0.1,0-0.2,0-0.4l0,0
						c-5-5.9-10.8-11.1-17.1-15.6v0.7C209.4,379.3,209.8,379.7,210.1,380.1z"/>
					<path class="st10" d="M233.3,408.6c0,0.7-0.1,1.4-0.2,2.1C233.2,410.1,233.3,409.3,233.3,408.6z"/>
					<path class="st10" d="M148.9,388.4L148.9,388.4c-1.1,1.9-1.7,4-1.9,6.2h1.1C148.2,392.4,148.4,390.4,148.9,388.4z"/>
					<path class="st10" d="M212.7,403.4c2.5,1.4,4.9,3,7.2,4.7c3.7-3.7,5.9-8.7,6.3-13.9c-2.5-2.5-5.1-4.8-8-6.9
						c-2.5-2.6-5.3-5-8.2-7.2C215.2,387.4,217.5,396.6,212.7,403.4z"/>
					<path class="st10" d="M148.2,394.5h4.1c-1.3-2-2.4-4-3.4-6.2C148.4,390.4,148.2,392.4,148.2,394.5z"/>
					<path class="st9" d="M173.4,366.3c-0.1,0.7-0.1,1.4-0.2,2c4-0.4,8-0.2,11.9,0.6V366C181.3,365.5,177.3,365.6,173.4,366.3z"/>
					<path class="st9" d="M193.5,369.3h-6.2c2.1,0.5,4.2,1.1,6.2,1.9V369.3z"/>
					<path class="st9" d="M168.6,369.2c1-0.3,2.1-0.5,3.1-0.7l1.5-0.2c0.1-0.7,0.1-1.4,0.2-2c-1.6,0.3-3.1,0.7-4.6,1.1
						C168.8,368,168.7,368.6,168.6,369.2z"/>
					<path class="st9" d="M168.6,369.2c0-0.6,0.1-1.2,0.2-1.7c-5.8,1.8-10.9,5.4-14.3,10.4l0,0C158.2,373.6,163.2,370.6,168.6,369.2
						z"/>
					<path class="st9" d="M173.2,368.3c-0.1,1.4-0.3,2.8-0.5,4.2c7.2-0.8,14.4,0.6,20.7,4.2v-5.5c-2-0.7-4.1-1.4-6.2-1.9h-2.1v-0.4
						C181.2,368.1,177.2,367.9,173.2,368.3z"/>
					<path class="st9" d="M209.5,396.6c0.3,1.7,0.3,3.5,0.1,5.2c0.6,0.3,1.2,0.6,1.8,0.9c0.8-3-0.3-6-0.7-7.4s-0.9-2.7-1.6-3.9v3.3
						C209.3,395.3,209.4,395.9,209.5,396.6z"/>
					<path class="st9" d="M168.6,369.2c-0.1,1.3-0.2,2.7-0.4,4c1.5-0.3,3-0.5,4.5-0.7c0.2-1.4,0.3-2.8,0.5-4.2l-1.5,0.2
						C170.7,368.6,169.7,368.9,168.6,369.2z"/>
					<path class="st9" d="M168.6,369.2c-5.5,1.4-10.4,4.5-14.2,8.7c4.4-2.1,9-3.7,13.8-4.7C168.4,371.8,168.5,370.5,168.6,369.2z"/>
					<path class="st9" d="M210.1,380.1c-0.3-0.4-0.6-0.9-0.9-1.3v0.6L210.1,380.1z"/>
					<path class="st9" d="M209.1,391.4c0.7,1.2,1.3,2.5,1.6,3.9c0.3,1.5,1.5,4.4,0.7,7.4l1.3,0.7c4.8-6.8,2.5-16-2.6-23.2l-0.9-0.7
						L209.1,391.4z"/>
					<path class="st11" d="M231.7,402.1c1,2,1.6,4.2,1.6,6.5c0.2-5.8-3.8-12.1-7.1-14.8c1.1,1.3,2.1,2.6,3,4
						C230.2,399.2,231.1,400.6,231.7,402.1z"/>
					<path class="st11" d="M229.1,416.1l0.3,0.3c1.9-1.4,3.2-3.4,3.7-5.7C232.5,413,231.1,414.9,229.1,416.1z"/>
					<path class="st11" d="M229.3,397.9c0.9,1.4,1.8,2.8,2.4,4.3C231.1,400.6,230.3,399.2,229.3,397.9z"/>
					<path class="st11" d="M231.7,402.1c0.5,1.1,0.8,2.4,0.9,3.6c0.4,4.5-1.8,7.2-4.9,9c0.5,0.5,0.9,0.9,1.4,1.4
						c1.9-1.2,3.3-3.2,3.9-5.4c0.1-0.7,0.2-1.4,0.2-2.1C233.3,406.4,232.7,404.2,231.7,402.1z"/>
					<path class="st11" d="M226.2,394.2c1.1,1.2,2.1,2.4,3.1,3.7c-0.9-1.4-1.9-2.7-3-4l0,0C226.2,393.9,226.2,394,226.2,394.2z"/>
					<path class="st11" d="M227.8,414.7c3.1-1.8,5.2-4.5,4.9-9c-0.1-1.2-0.4-2.5-0.9-3.6c-0.7-1.5-1.5-2.9-2.4-4.3
						c-0.9-1.3-2-2.5-3.1-3.7c-0.4,5.2-2.6,10.2-6.3,13.9C222.7,410.1,225.3,412.3,227.8,414.7z"/>
					<path class="st9" d="M111.2,195.6c-9,1.4-17.6,4.6-25.3,9.2c0.9,0.6,1.8,1,2.8,1.2c6.8-3.7,14.1-6,21.8-7
						C110.7,198,111,196.8,111.2,195.6z"/>
					<path class="st9" d="M95.8,206.7c4.5-3.1,9.4-5.5,14.7-7.1c0-0.2,0.1-0.3,0.1-0.5c-7.6,1-15,3.3-21.8,7
						C91,206.6,93.4,206.8,95.8,206.7z"/>
					<path class="st9" d="M110.4,199.7v-0.1c-5.2,1.6-10.2,4-14.7,7.1c1.6-0.1,3.2-0.2,4.8-0.4L110.4,199.7z"/>
					<path class="st9" d="M105,205.5c1.9-0.4,3.6-1.5,4.9-3c0.1-0.8,0.2-1.7,0.5-2.8l-9.8,6.5C102.6,206,104.3,205.6,105,205.5z"/>
					<path class="st9" d="M79.1,209.4c-0.8,0.6-1.6,1.3-2.5,2c0.1,0.1,0.1,0.2,0.2,0.2C78.8,213.5,79.2,211.6,79.1,209.4z"/>
					<path class="st9" d="M113.5,198.5c0.6-1.6,1.1-3,1.1-3S114,196.9,113.5,198.5z"/>
					<path class="st9" d="M114.7,195.2c-0.6,1.3-1.3,2.5-2,3.6h0.7c0-0.1,0.1-0.2,0.1-0.3c0.5-1.6,1.1-3,1.1-3s-0.4,1.3-1.1,3
						c0,0.1-0.1,0.2-0.1,0.3c1.2-0.1,2.3-0.1,3.4-0.1c0.1-0.5,0.2-1,0.3-1.4c0-0.5,0-1,0.2-1.4c0,0-0.1,0.6-0.2,1.4
						c0.1,0.6,0.4,1.1,0.9,1.5h0.9c1.1-1,1.9-2.3,2.5-3.7C119.2,195,116.9,195,114.7,195.2z"/>
					<path class="st9" d="M117.1,197.3c0.2-0.8,0.2-1.4,0.2-1.4C117.2,196.3,117.1,196.8,117.1,197.3z"/>
					<path class="st9" d="M112.9,199.9c0.2-0.4,0.3-0.8,0.4-1.1h-0.7c-0.2,0.3-0.4,0.6-0.6,0.9L112.9,199.9z"/>
					<path class="st9" d="M116.1,200.7c0.3-0.6,0.5-1.3,0.7-2c-1.1,0-2.3,0-3.4,0.1c-0.1,0.4-0.2,0.8-0.3,1.2L116.1,200.7z"/>
					<path class="st9" d="M118.9,198.8H118l0.3,0.2C118.5,199.1,118.8,199,118.9,198.8z"/>
					<path class="st9" d="M110,204.4c0.8-0.1,1.9-2.3,2.9-4.5l-0.8-0.2c-0.6,1-1.4,1.9-2.2,2.7C109.8,203.7,109.8,204.5,110,204.4z"
						/>
					<path class="st9" d="M113.8,203.4c1.1-0.5,2-1.5,2.3-2.6L113,200C112.6,201.9,112.4,203.7,113.8,203.4z"/>
					<path class="st9" d="M110.5,199.1l0.5-0.1c0.5-0.1,1.1-0.1,1.6-0.1c0.7-1.1,1.4-2.4,2-3.6c-1.1,0.1-2.3,0.2-3.4,0.4
						C111,196.8,110.7,198,110.5,199.1z"/>
					<path class="st9" d="M111,199l-0.5,0.1c0,0.2-0.1,0.3-0.1,0.5l0,0C110.6,199.3,110.8,199.2,111,199z"/>
					<path class="st9" d="M110.4,199.5L110.4,199.5v0.1l0.4-0.3l1.3,0.3c0.2-0.3,0.4-0.6,0.6-0.9c-0.6,0-1.1,0.1-1.6,0.1
						C110.8,199.2,110.6,199.3,110.4,199.5z"/>
					<path class="st9" d="M112.1,199.7l-1.3-0.3l-0.4,0.3c-0.2,1.1-0.4,2-0.5,2.8C110.7,201.6,111.4,200.7,112.1,199.7z"/>
					<rect x="60.4" y="492.4" class="st10" width="23.2" height="10.8"/>
					<rect x="83.6" y="492.4" class="st10" width="165" height="10.8"/>
					<path class="st9" d="M83.6,416.5v-1.1c-6.9,0.1-14.6,0-23.2-0.6v77.6h23.2V416.5z"/>
					<path class="st9" d="M215.7,421.5h18.1c-1.4-1.8-2.8-3.4-4.4-5.1c-0.9,0.7-1.9,1.3-3,1.8C223,419.6,219.4,420.7,215.7,421.5z"
						/>
					<path class="st9" d="M132.9,428.9v-0.5c0-3.9,3.1-7,7-7H162c-6.5-2.5-11.4-6.2-13.9-10.8c-1.8,0.4-3.5,0.7-5.3,0.9
						c-12,1.7-24.3,1.8-36.4,2.7c-6.7,0.5-14.1,1-22.8,1.1v77h165v-27.9c0-9.9-2.1-19.6-6.1-28.6H139.9
						C136.1,435.9,132.9,432.8,132.9,428.9z"/>
					<path class="st9" d="M142.3,406.9c1.4-0.1,2.8-0.2,4.1-0.4c0-0.1,0-0.2,0-0.2C145.1,406.5,143.7,406.7,142.3,406.9z"/>
					<path class="st9" d="M83.6,412v-17.5H60.4v16.7C68.1,411.9,75.8,412.2,83.6,412z"/>
					<path class="st9" d="M146.9,397.2L146.9,397.2c0-0.9,0.1-1.8,0.2-2.6h-15.6c2.5,5.5,2.6,10.4,3.3,11.5c2.4,0.9,5,1.2,7.6,0.9
						c1.4-0.2,2.7-0.4,4.1-0.7C145.8,403.2,146,400.1,146.9,397.2z"/>
					<path class="st9" d="M102.7,411.6c4-0.3,8-0.6,12-0.9c2.1-0.5,4.1-1.3,5.9-2.6c4.5-3.2,5.9-8.4,6.1-13.6H83.6V412
						c4.8-0.1,9.3-0.2,13.2-0.3C98.6,411.6,100.6,411.6,102.7,411.6z"/>
					<path class="st9" d="M83.6,415.4v-0.7c-7.8,0-15.5-0.4-23.2-1.3v1.4C69,415.3,76.7,415.5,83.6,415.4z"/>
					<path class="st9" d="M119,411.9c-11.7,1.9-23.6,2.8-35.4,2.8v0.7c8.7-0.1,16.2-0.6,22.8-1.1c12.1-0.8,24.4-1,36.4-2.7
						c1.7-0.2,3.5-0.5,5.3-0.9c-0.1-0.2-0.2-0.5-0.4-0.7C138.6,411.4,128.3,410.4,119,411.9z"/>
					<path class="st9" d="M60.4,412.5v0.9c7.7,0.8,15.5,1.2,23.2,1.3v-0.8C75.8,413.9,68.1,413.5,60.4,412.5z"/>
					<path class="st9" d="M119,411.9c9.3-1.5,19.6-0.5,28.7-1.9c-0.5-1.1-1-2.3-1.2-3.5c-1.3,0.2-2.7,0.4-4.1,0.4
						c-3,0.5-5.9,0.8-8.4,1.3c-16.6,3.4-33.4,5.3-50.4,5.6v0.8C95.4,414.7,107.3,413.8,119,411.9z"/>
					<path class="st9" d="M83.6,413.8V412c-7.7,0.2-15.5,0-23.2-0.7v1.3C68.1,413.5,75.8,414,83.6,413.8z"/>
					<path class="st9" d="M134.8,406c-0.7-1-0.8-6-3.3-11.5h-4.8c-0.2,5.2-1.6,10.4-6.1,13.6c-1.8,1.2-3.8,2.1-5.9,2.6
						c-4,0.3-8,0.6-12,0.9c-2.1,0-4.1-0.1-5.9,0c-3.9,0.1-8.4,0.3-13.2,0.3v1.9c17-0.4,33.8-2.2,50.5-5.6c2.5-0.5,5.4-0.9,8.4-1.3
						C139.8,407.2,137.2,406.9,134.8,406z"/>
					<path class="st9" d="M209.1,404.2c0.2-0.8,0.4-1.6,0.5-2.4l-0.5-0.2V404.2z"/>
					<path class="st9" d="M190.4,408.4c-7.5,3.4-16.4,0-23.4-3.2c-1.3-0.6-2.6-1.3-3.8-2.2c-0.4,0.5-0.9,0.9-1.4,1.4
						c7.4,5.1,16.6,7.3,26.4,7.2c1.9,0,3.6-0.1,5.2-0.2v-4.8C192.5,407.2,191.5,407.9,190.4,408.4z"/>
					<path class="st9" d="M160.1,400.2c-0.5,0.5-1.1,1-1.6,1.4l0.7,0.6c0.5-0.4,1.1-0.8,1.6-1.3
						C160.5,400.7,160.3,400.5,160.1,400.2z"/>
					<path class="st9" d="M158.4,401.6c0.6-0.4,1.1-0.9,1.6-1.4c-1.6-1.6-2.8-3.6-3.4-5.7h-4.3C154,397.2,156.1,399.5,158.4,401.6z"
						/>
					<path class="st9" d="M161.6,404.1l0.4,0.2c0.5-0.4,0.9-0.9,1.4-1.4l-0.3-0.2C162.5,403.2,162.1,403.7,161.6,404.1z"/>
					<path class="st9" d="M163,402.7c-0.8-0.6-1.5-1.2-2.2-1.8c-0.6,0.5-1.1,0.9-1.6,1.3c0.8,0.7,1.6,1.3,2.5,1.9
						C162.1,403.7,162.5,403.2,163,402.7z"/>
					<path class="st9" d="M193.5,398v-1.8c-4.9-1.1-9.9-1.6-14.9-1.6h-10.7c-0.8,3.1-2.4,6-4.6,8.4c1.2,0.8,2.5,1.5,3.8,2.2
						c7,3.2,15.9,6.6,23.4,3.2c1.1-0.5,2.1-1.1,3-1.9V398L193.5,398z"/>
					<path class="st9" d="M160.1,400.2c0.2,0.2,0.4,0.5,0.7,0.7c2-1.6,4.2-3.8,7.1-6.4h-4.1c-0.7,1.5-1.5,2.9-2.4,4.2
						C161,399.3,160.5,399.8,160.1,400.2z"/>
					<path class="st9" d="M161.4,398.8c1-1.3,1.8-2.7,2.4-4.2h-7.2c0.7,2.1,1.9,4.1,3.4,5.7C160.5,399.8,161,399.3,161.4,398.8z"/>
					<path class="st9" d="M167.9,394.5c-0.8,2.2-1.8,4.2-3.1,6.1c-0.6,0.7-1.1,1.4-1.8,2.1l0.3,0.2
						C165.5,400.6,167,397.7,167.9,394.5z"/>
					<path class="st9" d="M163,402.7c0.6-0.7,1.2-1.4,1.8-2.1c1.3-1.9,2.4-4,3.1-6.1l0,0c-2.9,2.6-5.1,4.7-7.1,6.4
						C161.5,401.6,162.2,402.2,163,402.7z"/>
					<path class="st9" d="M148.2,394.5h-1.1c-0.1,0.9-0.1,1.8-0.2,2.6c0.8,1.6,1.6,3.1,2.6,4.6C148.7,399.4,148.3,397,148.2,394.5z"
						/>
					<path class="st9" d="M161.9,404.3c-2,1.7-4.2,3.2-6.7,4.1c8.8,8,20,10.1,28.6,10.6h0.9l0.6-0.7c0.7-0.7,1.5-1.2,2.5-1.4
						l5.7-1.2c0-0.1,0-0.2,0-0.2v-4.3c-1.6,0.1-3.3,0.2-5.2,0.2C178.6,411.6,169.4,409.4,161.9,404.3z"/>
					<path class="st9" d="M209.1,407v7.1c0.2,0.2,0.4,0.4,0.6,0.6c3.8-1.5,7.3-3.8,10.2-6.6c-2.3-1.7-4.7-3.3-7.2-4.7
						C211.7,404.8,210.5,406,209.1,407z"/>
					<path class="st9" d="M159.1,402.2l-0.7-0.6c-2,1.4-4.3,2.5-6.6,3.3l0.4,0.5l0.6-0.2C155.1,404.6,157.3,403.6,159.1,402.2z"/>
					<path class="st9" d="M152.3,394.5h-4.1c0.1,2.5,0.5,4.9,1.3,7.2c0.7,1.1,1.5,2.1,2.3,3.1c2.4-0.7,4.6-1.8,6.6-3.3
						C156.1,399.5,154,397.2,152.3,394.5z"/>
					<path class="st9" d="M161.6,404.1c-2,1.7-4.3,3.1-6.8,4l0.4,0.4c2.4-1,4.7-2.4,6.7-4.1L161.6,404.1z"/>
					<path class="st9" d="M152.9,405.2l-0.6,0.2c0.8,1,1.7,1.9,2.6,2.8c2.5-0.9,4.8-2.3,6.8-4c-0.9-0.6-1.7-1.2-2.5-1.9
						C157.3,403.6,155.1,404.6,152.9,405.2z"/>
					<path class="st9" d="M209.1,404.2v2.2c1.1-1,1.9-2.3,2.3-3.7c-0.6-0.3-1.2-0.6-1.8-0.9C209.5,402.6,209.4,403.4,209.1,404.2z"
						/>
					<path class="st9" d="M209.1,406.4v0.6c1.4-1,2.6-2.2,3.6-3.6l-1.3-0.7C211,404.1,210.2,405.4,209.1,406.4z"/>
					<path class="st9" d="M224.5,418.4c-4.2,1.4-8.5,2.4-12.8,3.1h4c3.7-0.8,7.2-1.9,10.7-3.3c1.1-0.5,2.1-1.1,3-1.8l-0.3-0.3
						C227.7,417.1,226.1,417.9,224.5,418.4z"/>
					<path class="st9" d="M170.4,420.8c-7.9-1.5-14.9-4.5-19.6-10.8c-0.9,0.2-1.8,0.5-2.8,0.7c2.6,4.6,7.4,8.3,13.9,10.8h10.8
						C172.1,421.3,171.2,421.1,170.4,420.8z"/>
					<path class="st9" d="M148.3,405.8c-0.6,0.1-1.3,0.3-1.9,0.4c0,0.1,0,0.2,0,0.2c0.7-0.1,1.4-0.2,2-0.3L148.3,405.8z"/>
					<path class="st9" d="M146.9,397.2L146.9,397.2c-0.9,2.9-1.1,6-0.5,9.1c0.6-0.1,1.3-0.3,1.9-0.4c-0.2-0.4-0.4-0.8-0.6-1.3
						C147.1,402.2,146.8,399.7,146.9,397.2z"/>
					<path class="st9" d="M150.4,409.4c-0.9,0.2-1.8,0.4-2.7,0.5c0.1,0.2,0.2,0.5,0.4,0.7c0.9-0.2,1.8-0.4,2.8-0.7
						C150.7,409.8,150.6,409.6,150.4,409.4z"/>
					<path class="st9" d="M146.5,406.5c0.3,1.2,0.7,2.4,1.2,3.5c0.9-0.1,1.8-0.3,2.7-0.5c-0.7-1-1.4-2.1-1.9-3.3
						C147.8,406.3,147.2,406.4,146.5,406.5z"/>
					<path class="st9" d="M170.4,420.8c0.8,0.2,1.6,0.5,2.4,0.7h1.9C173.3,421.3,171.9,421.1,170.4,420.8z"/>
					<path class="st9" d="M153.6,409.1c-0.9,0.3-1.8,0.6-2.7,0.9c4.7,6.3,11.7,9.3,19.6,10.8C163.7,418.8,157.8,414.7,153.6,409.1z"
						/>
					<path class="st9" d="M211,419.6v1.9h0.7c4.4-0.6,8.7-1.7,12.8-3.1c1.6-0.5,3.2-1.3,4.6-2.3c-0.4-0.5-0.9-1-1.4-1.4
						c-2.8,1.4-5.8,2.5-8.9,3.1C216.3,418.4,213.7,419,211,419.6z"/>
					<path class="st9" d="M148.3,405.8l0.1,0.3c1-0.2,2-0.4,2.8-0.6l-0.2-0.4C150.1,405.4,149.2,405.6,148.3,405.8z"/>
					<path class="st9" d="M149.5,401.8c-1-1.5-1.8-3-2.6-4.6c-0.1,2.5,0.1,5,0.8,7.4c0.2,0.4,0.4,0.8,0.6,1.3
						c0.9-0.2,1.8-0.4,2.6-0.7C150.4,404.1,149.9,402.9,149.5,401.8z"/>
					<path class="st9" d="M153.2,408.7c-0.9,0.3-1.8,0.5-2.8,0.8c0.1,0.2,0.3,0.4,0.4,0.6c0.9-0.3,1.8-0.5,2.7-0.9L153.2,408.7z"/>
					<path class="st9" d="M152.9,408.3c-0.6-0.9-1.2-1.8-1.7-2.7c-0.8,0.2-1.7,0.4-2.8,0.6c0.6,1.1,1.2,2.2,1.9,3.3
						c0.9-0.2,1.9-0.5,2.8-0.8C153.1,408.5,153,408.4,152.9,408.3z"/>
					<path class="st9" d="M209.8,414.7c0.8,0.9,1.2,2,1.2,3.1v1.8c2.7-0.6,5.4-1.2,7.9-1.8c3.1-0.6,6.1-1.6,8.9-3.1
						c-2.4-2.4-5.1-4.6-7.8-6.7C217,410.9,213.6,413.2,209.8,414.7z"/>
					<path class="st9" d="M183.1,421.5c0.2-0.6,0.5-1.2,1-1.7l0.6-0.6h-0.9c-8.6-0.5-19.8-2.6-28.6-10.6c-0.6,0.2-1.1,0.5-1.7,0.6
						c4.2,5.6,10.1,9.7,16.9,11.7c1.4,0.3,2.8,0.5,4.3,0.7L183.1,421.5z"/>
					<path class="st9" d="M151.8,404.9l-0.8,0.3l0.2,0.4l1-0.2L151.8,404.9z"/>
					<path class="st9" d="M151,405.1l0.8-0.3c-0.8-1-1.6-2-2.3-3.1C149.9,402.9,150.4,404.1,151,405.1z"/>
					<path class="st9" d="M153.2,408.7l0.4,0.5c0.6-0.2,1.1-0.4,1.7-0.6l-0.4-0.4C154.3,408.3,153.8,408.5,153.2,408.7z"/>
					<path class="st9" d="M152.2,405.4l-1,0.2c0.5,0.9,1.1,1.8,1.7,2.7c0.1,0.1,0.2,0.3,0.3,0.4c0.5-0.2,1.1-0.4,1.6-0.6
						C153.9,407.2,153,406.3,152.2,405.4z"/>
					<path class="st10" d="M211,422.5v0.4c0,2.6-2.1,4.7-4.7,4.7l0,0h-18.7c-1.6,0-3.2-0.8-4-2.3c-7.4,0-14.7-1.3-21.6-3.8h-22.1
						c-3.9,0-7,3.1-7,7v0.5c0,3.9,3.1,7,7,7h102.5c-2.3-5.1-5.2-10-8.7-14.4h-18.1C214.2,421.8,212.6,422.2,211,422.5z"/>
					<path class="st10" d="M211,422.5c1.6-0.3,3.2-0.6,4.8-1h-4l-0.7,0.1L211,422.5z"/>
					<path class="st10" d="M182.9,422.8c-3.4-0.1-6.7-0.6-10-1.4H162c6.9,2.5,14.2,3.8,21.6,3.8
						C183.1,424.6,182.9,423.7,182.9,422.8z"/>
					<path class="st10" d="M176.3,421.7l-1.6-0.2h-1.9c3.3,0.8,6.6,1.2,10,1.4c0-0.2,0-0.4,0-0.6
						C180.7,422.1,178.5,421.9,176.3,421.7z"/>
					<path class="st10" d="M211,421.6l0.7-0.1H211V421.6z"/>
					<path class="st10" d="M176.3,421.7c2.2,0.2,4.4,0.4,6.6,0.6c0-0.3,0.1-0.5,0.2-0.8h-8.4L176.3,421.7z"/>
					<path class="st12" d="M186.1,217.1c-0.7-1.1-1.1-2.3-1.3-3.6l-1.4-0.5l0.1,0.9c0.1,0.4-0.1,0.4-0.6,0.6l-2.3,0.6l1.6,1.7
						c0.1,0.2,0.1,0.4,0,0.5l-0.2,0.2c0.5-0.3,1-0.5,1.6-0.5h2.5V217.1z"/>
					<path class="st12" d="M183.5,222.9c-1.3,0-2.5-0.9-2.8-2.2L180,221l1,0.6c0.3,0.2,0.2,0.7,0.2,0.7l-1.6,2.7l3.1-0.2
						c0.4-0.1,0.4,0.2,0.5,0.6l0.1,1.2l3.3-2.9c0.6-0.5,0.9,0,0.7,0.3l-0.8,2.7l1-0.3h0.1V223h-4.1V222.9z"/>
					<path class="st13" d="M248.1,341.6c0,2.2-1.6,4.1-3.7,4.5v15.2c4.9-4.7,14.2-11.8,21.7-10.5c6.8,1.2,11.4,9.7,14,16.6
						c0.3,0.6,0.6,1.2,1,1.7c-0.8-2.5,0.1-5.2,2.2-6.8l8.3-6.3c-5.7-11.6-13.4-18.4-22.9-20.1c-7.5-1.3-14.6,0.8-20.7,4.1
						c0.1,0.4,0.2,0.8,0.2,1.1L248.1,341.6z"/>
					<path class="st0" d="M243.3,285.9h26c0.8-0.4,1.5-0.8,2.3-1.3c10-6.4,15.1-18.2,15.1-35.2c0-3.8-3-6.8-6.8-6.8s-6.8,3-6.8,6.8
						l0,0c0,12-3,20-8.8,23.8c-8.2,5.2-21.6,2.1-28.9-0.5C239.1,276.3,241.8,280.9,243.3,285.9z"/>
					<path class="st0" d="M244,288.8c2.9,0.5,5.8,0.7,8.7,0.7c5.8,0.1,11.4-1.1,16.6-3.7h-26C243.6,286.9,243.8,287.8,244,288.8z"/>
					<path class="st13" d="M203.4,373.2c1.5,1.2,3,2.5,4.3,4c0.5,0.3,0.9,0.6,1.4,1v-8.9h-12C199.4,370.4,201.5,371.6,203.4,373.2z"
						/>
					<path class="st13" d="M196.8,390.6c1,2.1,1.5,4.4,1.4,6.7c3.7,1.1,7.4,2.5,10.9,4.2v-6.9c-2.3-9.1-10.5-14.5-13.2-16.4
						c-0.8-0.5-1.6-1-2.4-1.5v9.6C194.8,387.5,196,389,196.8,390.6z"/>
					<path class="st13" d="M198.3,397.3c0.1-2.3-0.4-4.6-1.4-6.7c-0.9-1.6-2-3.1-3.3-4.4v9.8C195.1,396.5,196.7,396.9,198.3,397.3z"
						/>
					<path class="st13" d="M209.1,378.9v-0.7c-0.5-0.4-0.9-0.7-1.4-1C208.2,377.7,208.7,378.3,209.1,378.9z"/>
					<path class="st13" d="M193.5,371.2c1.9,0.7,3.8,1.5,5.6,2.4c0.7-0.4,1.6-0.4,2.4-0.1c2.2,1.1,4.3,2.3,6.2,3.7
						c-1.3-1.5-2.7-2.8-4.3-4c-2-1.5-4.1-2.8-6.3-3.8h-3.6L193.5,371.2L193.5,371.2z"/>
					<path class="st13" d="M195.9,378.2c2.7,1.9,11,7.3,13.2,16.4v-3.3c-2.9-5-8.4-10.8-11.2-14.4c-1.1-1.5-0.2-2.9,1.1-3.5
						c-1.8-0.9-3.7-1.7-5.6-2.4v5.5C194.3,377.2,195.1,377.7,195.9,378.2z"/>
					<path class="st13" d="M199.1,373.5c3.5,1.7,6.8,3.6,10,5.9v-0.6c-0.4-0.6-0.9-1.1-1.4-1.7c-2-1.4-4.1-2.6-6.2-3.7
						C200.7,373.2,199.9,373.2,199.1,373.5z"/>
					<path class="st13" d="M198,377c2.7,3.6,8.3,9.4,11.2,14.4v-11.9c-3.2-2.3-6.5-4.2-10-5.9C197.8,374.1,196.9,375.5,198,377z"/>
					<path class="st13" d="M198.3,397.3c-0.2,3.6-1.9,7-4.8,9.2v4.8c7.1-0.5,11.5-1.9,14.2-3.7c0.6-1,1.1-2.2,1.4-3.3v-2.7
						C205.6,399.8,202,398.4,198.3,397.3z"/>
					<path class="st13" d="M193.5,398v8.6c2.9-2.2,4.6-5.6,4.8-9.2c-1.6-0.5-3.2-0.9-4.8-1.2V398z"/>
					<path class="st13" d="M209.1,414.1V407c-0.6,0.4-1.2,0.9-1.9,1.2c-0.1,0,0.1-0.2,0.4-0.7c-2.7,1.8-7.1,3.2-14.2,3.7v4.3
						c0,0.1,0,0.2,0,0.2l-5.7,1.2c-1,0.2-1.8,0.7-2.5,1.4l-0.6,0.7c4.5,0.1,15.4-0.4,25-4.4C209.5,414.5,209.3,414.3,209.1,414.1z"
						/>
					<path class="st13" d="M209.1,406.4v-2.2c-0.3,1.2-0.8,2.3-1.4,3.3C208.2,407.2,208.7,406.8,209.1,406.4z"/>
					<path class="st13" d="M207.3,408.2c0.6-0.4,1.3-0.8,1.9-1.2v-0.6c-0.4,0.4-0.9,0.8-1.4,1.1C207.4,408,207.2,408.3,207.3,408.2z
						"/>
					<path class="st13" d="M211,421.5v-1.9c-3.1,0.7-6.3,1.3-9.6,1.9H211z"/>
					<path class="st13" d="M184.7,419.1l-0.6,0.6c-0.5,0.5-0.8,1.1-1,1.7h18.2c3.3-0.5,6.5-1.2,9.6-1.9v-1.8c0-1.2-0.4-2.3-1.2-3.1
						C200.2,418.7,189.2,419.2,184.7,419.1z"/>
					<path class="st13" d="M183.6,425.3c0.8,1.4,2.4,2.3,4,2.3h18.7c2.6,0,4.7-2,4.7-4.6c0,0,0,0,0-0.1v-0.4
						c-6.7,1.3-13.6,2.3-20.4,2.7C188.2,425.3,185.9,425.4,183.6,425.3z"/>
					<path class="st13" d="M191.8,422.6c-2.9,0.2-5.9,0.3-8.9,0.2c0,0.9,0.2,1.7,0.7,2.5c2.2,0,4.6,0,6.9-0.1
						c6.9-0.5,13.7-1.4,20.5-2.7v-0.9C204.6,422.4,198.2,422.8,191.8,422.6z"/>
					<path class="st13" d="M182.9,422.8c3,0.1,5.9,0,8.9-0.2c-3-0.1-5.9-0.2-8.8-0.4C182.9,422.4,182.9,422.6,182.9,422.8z"/>
					<path class="st13" d="M191.8,422.6c6.4,0.2,12.9-0.2,19.2-1.1v-0.1h-9.6C198.2,422,195,422.4,191.8,422.6z"/>
					<path class="st13" d="M183.1,421.5c-0.1,0.3-0.1,0.5-0.2,0.8c2.9,0.2,5.8,0.3,8.8,0.4c3.2-0.2,6.4-0.6,9.6-1.2L183.1,421.5z"/>
					<path class="st0" d="M242.5,226.4l-2.1,2.3l-0.1-0.4v4c1,0,2,0.2,2.9,0.7v-6.6C242.9,226.2,242.7,226.1,242.5,226.4z"/>
					<path class="st0" d="M189.3,228.1l-0.6,0.7l-0.8-2.2c-0.1-0.1-0.2-0.2-0.4-0.2v6.3c0.6-0.2,1.1-0.2,1.7-0.2L189.3,228.1z"/>
					<path class="st0" d="M187.7,222.9l1.6,0.8c0-0.3,0-0.5,0-0.8H187.7z"/>
					<path class="st0" d="M187.9,226.5l0.8,2.2l0.6-0.7v-4.2c0-0.1,0-0.1,0-0.2l-1.6-0.8h-0.2v3.4
						C187.7,226.3,187.8,226.4,187.9,226.5z"/>
					<path class="st13" d="M214,261.6c-1,0-2-0.1-3-0.2c0,0.1,0,0.2,0,0.2v2.9c1.3-0.2,2.6-0.3,3.9-0.3l0,0c1.3,0,2.6,0.1,3.8,0.3
						v-2.9c0-0.1,0-0.2,0-0.2c-1,0.1-2,0.2-3,0.2H214z"/>
					<path class="st0" d="M218.2,260c0.2,0.4,0.4,0.9,0.4,1.4c9.4-1.2,17.2-7.6,20.3-16.5l-0.5-0.1C235,253.2,227.2,259,218.2,260z"
						/>
					<path class="st0" d="M191.1,244.8l-0.5,0.1c3.1,8.9,11,15.3,20.4,16.5c0-0.5,0.2-1,0.4-1.4C202.4,259,194.6,253.2,191.1,244.8z
						"/>
					<path class="st0" d="M215.6,260.1H214c-0.9,0-1.7,0-2.6-0.1c-0.2,0.4-0.4,0.9-0.4,1.4c1,0.1,2,0.2,3,0.2h1.6c1,0,2-0.1,3-0.2
						c0-0.5-0.2-1-0.4-1.4C217.4,260.1,216.5,260.1,215.6,260.1z"/>
					<path class="st9" d="M232,271.3c0.9,0.4,2,0.9,3.3,1.3c-2.9-2.9-6.5-5.1-10.3-6.5l-1.5,7.6C225.4,271,229,269.9,232,271.3z"/>
					<path class="st9" d="M226.3,283.6c-2-0.9-3.4-2.7-3.8-4.8l-1.4,7.1h11C230.2,285.2,228.2,284.5,226.3,283.6z"/>
					<path class="st9" d="M205.6,285.9h2.8l-3.8-19.8c-0.6,0.2-1.1,0.4-1.6,0.7c1.7,2,2.6,4.6,2.6,7.3V285.9z"/>
					<path class="st9" d="M185.1,346.2V366c2.8,0.3,5.6,1,8.3,1.9v-21.6H186C185.8,346.3,185.5,346.2,185.1,346.2z"/>
					<path class="st9" d="M186.1,336.6h7.4v-7.2c0-1.6,0.5-3.2,1.4-4.5c-0.2,0-0.5,0-0.8,0h-0.8c-3.1,0-6.1-1.3-8.2-3.5v15.3
						C185.5,336.7,185.8,336.6,186.1,336.6z"/>
					<path class="st9" d="M232.2,285.9h-11l-6.4,33.4l-6.4-33.4h-2.8v27.7c0,3-1.2,5.9-3.4,8.1c4,0.5,6.9,3.8,6.9,7.8v7.2h34.3
						c0.3,0,0.6,0,0.9,0.1V294c0-1.7-0.2-3.4-0.4-5.1c-0.8-0.1-1.6-0.2-2.4-0.4C238.4,287.8,235.3,286.9,232.2,285.9z"/>
					<path class="st9" d="M241.9,364c-2.7,3.1-7.5,3.5-10.6,0.8s-3.5-7.5-0.8-10.6c2.5-2.9,5.3-5.5,8.3-7.9h-29.7v23.1h35.3v-8
						C243.3,362.4,242.5,363.3,241.9,364z"/>
					<path class="st9" d="M185.1,368.9c0.7,0.1,1.4,0.3,2.1,0.4h6.2v-1.5c-2.7-0.9-5.5-1.6-8.3-1.9V368.9z"/>
					<path class="st9" d="M187.2,369.3c-0.7-0.2-1.4-0.3-2.1-0.4v0.4H187.2z"/>
					<path class="st9" d="M243.5,346.2h-4.7c-3,2.4-5.8,5-8.3,7.9c-2.7,3.1-2.4,7.9,0.8,10.6c3.1,2.7,7.9,2.4,10.6-0.8
						c0.6-0.7,1.5-1.6,2.5-2.6v-15.2C244.1,346.2,243.8,346.3,243.5,346.2z"/>
					<path class="st9" d="M223.5,273.8l-1,5.1c0.4,2.1,1.8,3.9,3.8,4.8c1.9,0.9,3.9,1.6,5.9,2.3h11.1c-1.4-5-4.2-9.6-7.9-13.3
						c-1.3-0.5-2.4-0.9-3.3-1.3C229,269.9,225.4,271,223.5,273.8z"/>
					<path class="st9" d="M232.2,285.9c3.1,1,6.2,1.9,9.4,2.5c0.8,0.2,1.6,0.3,2.4,0.4c-0.2-1-0.4-2-0.7-2.9H232.2z"/>
					<path class="st9" d="M193.5,346.2v21.6c1.2,0.4,2.5,0.9,3.6,1.5h12v-23.1H193.5z"/>
					<path class="st9" d="M193.5,329.4v7.2h15.6v-7.2c0-4-3-7.3-6.9-7.8c-2,2-4.6,3.1-7.3,3.3C194,326.3,193.5,327.8,193.5,329.4z"
						/>
					<path class="st9" d="M197.1,369.3c-1.2-0.6-2.4-1-3.6-1.5v1.5H197.1z"/>
					<path class="st13" d="M214.9,272.1h-0.2c-2.1,0-3.7-1.7-3.7-3.7v-3.8c-2.2,0.3-4.3,0.8-6.4,1.6l3.8,19.8h12.8l1.4-7.1
						c-0.3-1.4-0.1-2.9,0.5-4.2c0.1-0.3,0.3-0.6,0.5-0.9l1.5-7.6c-2.1-0.8-4.2-1.3-6.4-1.6v3.8C218.6,270.4,217,272.1,214.9,272.1z"
						/>
					<polygon class="st13" points="221.2,285.9 208.4,285.9 214.8,319.3 					"/>
					<path class="st13" d="M223,274.6c-0.6,1.3-0.8,2.8-0.5,4.2l1-5.1C223.3,274,223.1,274.3,223,274.6z"/>
					<path class="st13" d="M214.8,264.3c-1.3,0-2.6,0.1-3.9,0.3v3.8c0,2.1,1.7,3.7,3.7,3.7h0.2c2.1,0,3.7-1.7,3.7-3.7v-3.8
						C217.3,264.4,216.1,264.3,214.8,264.3z"/>
					<path class="st13" d="M189.3,242.8c-2.3,0-4.1-1.8-4.1-4.1c0-1.6,0.9-3.1,2.4-3.7v-2.4c-3.4,1-5.4,4.5-4.4,7.9
						c0.8,2.7,3.3,4.6,6.1,4.6c0.5,0,0.9-0.1,1.4-0.1c-0.2-0.7-0.5-1.4-0.6-2.2C189.7,242.8,189.5,242.8,189.3,242.8z"/>
					<path class="st13" d="M189.3,234.6v-2.3c-0.6,0-1.2,0.1-1.7,0.2v2.4C188.1,234.7,188.7,234.6,189.3,234.6z"/>
					<path class="st13" d="M190.4,242.7l-0.4,0.1c0.2,0.7,0.4,1.5,0.6,2.2l0.5-0.1C190.8,244.1,190.6,243.4,190.4,242.7z"/>
					<path class="st0" d="M187.5,237.9V235c-2.1,1-3,3.4-2,5.5c0.7,1.5,2.1,2.4,3.7,2.4c0.2,0,0.5,0,0.7-0.1
						c-0.4-1.6-0.6-3.2-0.7-4.8L187.5,237.9z"/>
					<path class="st0" d="M189.3,237.9c0-0.3,0-0.7,0-1v-2.3c-0.6,0-1.2,0.1-1.7,0.4v2.9L189.3,237.9z"/>
					<path class="st0" d="M189.3,237.9c0.1,1.6,0.3,3.2,0.7,4.8l0.4-0.1C189.9,241.1,189.5,239.5,189.3,237.9L189.3,237.9z"/>
					<path class="st0" d="M189.3,236.9c0,0.3,0,0.7,0,1h0.1c-0.1-0.8-0.1-1.6-0.1-2.5V236.9z"/>
					<path class="st13" d="M244.4,238.7c0,2.3-1.8,4.1-4.1,4.1l0,0c-0.2,0-0.5,0-0.7-0.1c-0.2,0.7-0.4,1.5-0.6,2.2
						c0.4,0.1,0.9,0.1,1.4,0.1c3.5,0,6.4-2.8,6.4-6.3c0-2.4-1.4-4.7-3.5-5.8v2.7C244,236.5,244.4,237.6,244.4,238.7z"/>
					<path class="st13" d="M240.3,234.6c1.1,0,2.1,0.4,2.9,1.2V233c-0.9-0.5-1.9-0.7-2.9-0.7V234.6z"/>
					<path class="st13" d="M239.2,242.7c-0.2,0.7-0.5,1.4-0.8,2.1l0.5,0.1c0.2-0.7,0.5-1.4,0.6-2.2L239.2,242.7z"/>
					<path class="st0" d="M240.3,237.9c-0.1,1.6-0.3,3.2-0.7,4.8c0.2,0,0.5,0.1,0.7,0.1c2.3,0,4.1-1.9,4.1-4.2
						c0-1.1-0.4-2.1-1.2-2.8v2.1L240.3,237.9z"/>
					<path class="st0" d="M240.3,236.9c0,0.3,0,0.7,0,1h2.9v-2.1c-0.8-0.8-1.8-1.2-2.9-1.2V236.9L240.3,236.9z"/>
					<path class="st0" d="M240.2,237.9c-0.2,1.6-0.5,3.2-1,4.7l0.4,0.1C239.9,241.2,240.2,239.5,240.2,237.9L240.2,237.9z"/>
					<path class="st0" d="M240.3,236.9v-1.5c0,0.8,0,1.7-0.1,2.5h0.1C240.3,237.6,240.3,237.2,240.3,236.9z"/>
					<path class="st13" d="M189.4,222.9h-0.1c0,0.3,0,0.5,0,0.8h0.1C189.3,223.4,189.4,223.2,189.4,222.9z"/>
					<path class="st13" d="M189.3,223.7c0,0.1,0,0.1,0,0.2v1.5C189.3,224.8,189.3,224.3,189.3,223.7L189.3,223.7z"/>
					<path class="st13" d="M233.9,238.7c0-0.3,0-0.5,0.1-0.8h-5.2c-0.3,0.1-0.6,0.2-0.9,0.2h-0.1c-0.3,0-0.6-0.1-0.9-0.2h-8
						c-0.6,1.3-1.9,2-3.3,2.1h-0.2c-1.4,0-2.7-0.8-3.3-2.1h-9c-0.3,0.1-0.6,0.2-0.9,0.2h-0.1c-0.3,0-0.6-0.1-0.9-0.2h-5.3
						c0,0.3,0,0.5,0,0.8c0,2.8-1.8,5.3-4.5,6.1c3.5,8.4,11.3,14.2,20.3,15.2c0.6-1.3,1.9-2.1,3.3-2.1h0.2c1.4,0,2.7,0.8,3.3,2.1
						c9-1,16.8-6.8,20.2-15.2C235.8,244,233.9,241.5,233.9,238.7z M215.6,251c-5.2,0-9.4-4.2-9.4-9.4H225
						C225,246.8,220.8,251,215.6,251z"/>
					<path class="st13" d="M192.2,225.2l3.8,1.9c1.7-1.7,3.9-2.8,6.2-3.2l1.4-1h-11.1L192.2,225.2z"/>
					<path class="st13" d="M239,225.4l-1.1,0.3l1.3-2.8h-35.4l-1.4,1c0.8-0.1,1.5-0.2,2.3-0.2c0.9,0,1.6,0.7,1.6,1.6
						s-0.7,1.6-1.6,1.6c-3.5,0.1-6.7,2-8.3,5c-0.3,0.5-0.8,0.9-1.4,0.9c-0.2,0-0.5-0.1-0.7-0.2c-0.8-0.4-1.1-1.3-0.7-2.1l0,0
						c0.7-1.2,1.5-2.4,2.6-3.3l-3.8-1.9l-0.3,2l-0.8-0.5c-0.3-0.2-0.4-0.1-0.8,0.3l-1,1v4.3c3.2,0,5.9,2.4,6.3,5.6h5.3
						c-0.7-0.4-1.2-1.1-1.2-1.9v-4.5c0-1.2,1-2.2,2.2-2.2l0,0h0.1c1.2,0,2.2,1,2.2,2.2l0,0v4.7c0,0.8-0.5,1.6-1.2,1.9h9
						c-0.3-0.5-0.4-1.1-0.4-1.7v-5c0-2.1,1.7-3.7,3.7-3.7h0.2c2.1,0,3.7,1.7,3.7,3.7v5c0,0.6-0.1,1.2-0.4,1.7h8
						c-0.7-0.4-1.2-1.1-1.2-1.9v-4.5c0-1.2,1-2.2,2.2-2.2l0,0h0.1c1.2,0,2.2,1,2.2,2.2l0,0v4.5c0,0.8-0.5,1.6-1.2,1.9h5.2
						c0.4-3.2,3.1-5.6,6.3-5.6v-4l-0.6-2.7C239.7,225.7,239.3,225.3,239,225.4z M234.7,232.5c-0.2,0.1-0.4,0.2-0.7,0.2
						c-0.6,0-1.1-0.3-1.4-0.9c-1.7-3.1-4.9-5-8.3-5c-0.9,0-1.6-0.7-1.6-1.6s0.7-1.6,1.6-1.6c4.7,0.1,8.9,2.6,11.1,6.8
						C235.8,231.2,235.5,232.1,234.7,232.5L234.7,232.5z"/>
					<path class="st13" d="M189.4,222.9c0,0.3,0,0.6-0.1,0.8l2.9,1.4l0.4-2.3h-3.2V222.9z"/>
					<path class="st13" d="M191.1,226.7l0.8,0.5l0.3-2l-2.9-1.4c0,0.5-0.1,1.1-0.1,1.6v2.7l1-1C190.6,226.6,190.8,226.5,191.1,226.7
						z"/>
					<path class="st13" d="M214.9,257.9h-0.2c-1.4,0-2.7,0.8-3.3,2.1c0.9,0.1,1.7,0.1,2.6,0.1h1.6c0.9,0,1.7,0,2.6-0.1
						C217.6,258.7,216.3,257.9,214.9,257.9z"/>
					<path class="st13" d="M195.6,238.7c0-0.3,0-0.5,0-0.8h-2.3c0.4,2.1-0.9,4.2-3,4.7c0.2,0.7,0.5,1.4,0.8,2.1
						C193.8,244,195.6,241.5,195.6,238.7z"/>
					<path class="st13" d="M193.3,237.9h2.3c-0.4-3.2-3.1-5.6-6.3-5.6v2.3C191.2,234.6,192.9,236,193.3,237.9z"/>
					<path class="st13" d="M193.4,238.7c0-0.3,0-0.5-0.1-0.8h-3.9c0.2,1.6,0.5,3.2,1,4.7C192.2,242.2,193.4,240.5,193.4,238.7z"/>
					<path class="st13" d="M189.4,237.9h3.9c-0.4-1.9-2-3.3-4-3.3v0.9C189.3,236.3,189.3,237.1,189.4,237.9z"/>
					<path class="st13" d="M236.2,238.7c0-0.3,0-0.5,0.1-0.8H234c0,0.3,0,0.5-0.1,0.8c0,2.8,1.8,5.3,4.5,6.1
						c0.3-0.7,0.5-1.4,0.8-2.1C237.4,242.2,236.2,240.6,236.2,238.7z"/>
					<path class="st13" d="M234,237.9h2.3c0.4-1.9,2-3.3,4-3.3v-2.3C237.1,232.4,234.4,234.7,234,237.9z"/>
					<path class="st13" d="M236.3,237.9c-0.4,2.1,0.9,4.2,3,4.7c0.5-1.5,0.8-3.1,1-4.7H236.3z"/>
					<path class="st13" d="M236.3,237.9h3.9c0.1-0.8,0.1-1.6,0.1-2.5v-0.9C238.3,234.6,236.6,236,236.3,237.9z"/>
					<path class="st0" d="M215.2,240h0.2c1.4,0,2.7-0.8,3.3-2.1h-6.9C212.6,239.2,213.8,240,215.2,240z"/>
					<path class="st0" d="M219.2,236.2v-5c0-2.1-1.7-3.7-3.7-3.7h-0.2c-2.1,0-3.7,1.7-3.7,3.7v5c0,0.6,0.1,1.2,0.4,1.7h6.9
						C219.1,237.4,219.2,236.8,219.2,236.2z"/>
					<path class="st12" d="M248,340.1c-0.4-1.7-1.8-3-3.6-3.4v5.5C245.5,341.5,246.7,340.8,248,340.1z"/>
					<path class="st12" d="M181.4,341.3v0.3c0,2.2,1.6,4.1,3.7,4.5v-9.4C183,337.2,181.4,339.1,181.4,341.3z"/>
					<path class="st12" d="M244.4,346.2c2.2-0.5,3.7-2.3,3.7-4.5v-0.3c0-0.4-0.1-0.8-0.2-1.1c-1.2,0.6-2.4,1.3-3.6,2.1v3.8H244.4z"
						/>
					<path class="st12" d="M209.1,336.6v9.6h29.7c1.8-1.4,3.7-2.8,5.6-4v-5.5c-0.3-0.1-0.6-0.1-0.9-0.1H209.1z"/>
					<path class="st12" d="M186.1,336.6c-0.3,0-0.6,0-0.9,0.1v9.4c0.3,0.1,0.6,0.1,0.9,0.1h7.4v-9.6H186.1z"/>
					<path class="st12" d="M244.4,346.2v-4c-1.9,1.2-3.8,2.6-5.6,4h4.7C243.8,346.2,244.1,346.2,244.4,346.2z"/>
					<rect x="193.5" y="336.6" class="st12" width="15.6" height="9.6"/>
					<path class="st14" d="M235.4,200.8c-0.7-0.1-1.4-0.2-2.1-0.2h-2.8l3.3,1.3L235.4,200.8z"/>
					<path class="st14" d="M189,214.5l0.8-0.8c0.1,0.3,0.2,0.5,0.4,0.8h1c2.4-5.7,6.8-10.4,12.5-13c-0.1-0.3-0.2-0.6-0.3-0.9h-8.3
						c-5.8,0-10.5,4.7-10.5,10.5v0.7c0,0.6,0.1,1.2,0.2,1.7l2.9,1H189z"/>
					<path class="st14" d="M225,201.1c2,0.8,3.8,1.9,5.5,3.2l3.4-2.3l-3.3-1.3h-5.5C225.1,200.8,225,200.9,225,201.1z"/>
					<path class="st14" d="M241.5,204.9l0.2-0.1c-1.5-2.1-3.8-3.5-6.3-4l-1.6,1.1L241.5,204.9z"/>
					<path class="st14" d="M233.9,201.9l-3.4,2.3c3.5,2.7,6.2,6.2,7.9,10.3h1.2v-0.9l2.3,0.9h1.2v0.5l0.1,0.1
						c0.3-1.1,0.5-2.2,0.5-3.3v-0.7c0-2.3-0.7-4.4-2.1-6.2l-0.2,0.1L233.9,201.9z"/>
					<path class="st14" d="M189.7,213.7l-0.8,0.8h1.1C190,214.2,189.8,214,189.7,213.7z"/>
					<path class="st14" d="M187.5,217.1v-2.6h0.2l-2.9-1c0.2,1.3,0.7,2.5,1.3,3.6H187.5z"/>
					<path class="st14" d="M191.1,214.5h-1c0.2,0.4,0.4,0.9,0.6,1.3C190.8,215.3,191,214.9,191.1,214.5z"/>
					<path class="st14" d="M188.9,214.6l0.1-0.1h-1.2l0.6,0.2C188.5,214.8,188.7,214.8,188.9,214.6z"/>
					<path class="st14" d="M243.2,214.5H242l1.2,0.4V214.5z"/>
					<path class="st14" d="M239.4,215.4c0.2-0.1,0.4-0.3,0.3-0.5v-0.4h-1.2c0.2,0.4,0.3,0.7,0.4,1.1L239.4,215.4z"/>
					<path class="st14" d="M190.6,215.8c-0.2-0.4-0.4-0.8-0.6-1.3h-1l-0.1,0.1c-0.1,0.2-0.4,0.2-0.6,0.1l-0.6-0.2h-0.2v2.6h2.7
						C190.4,216.6,190.5,216.2,190.6,215.8z"/>
					<path class="st14" d="M198.4,206.2v-0.5l0.4,0.2c1.7-1.3,3.5-2.4,5.4-3.2c-0.2-0.4-0.4-0.8-0.5-1.2c-5.6,2.6-10.1,7.3-12.5,13
						h0.7C193.4,211.3,195.7,208.5,198.4,206.2z"/>
					<path class="st14" d="M229.5,205l1-0.7c-1.7-1.3-3.5-2.3-5.5-3.2c-0.1,0.4-0.3,0.9-0.5,1.3C226.2,203.1,227.9,203.9,229.5,205z
						"/>
					<path class="st14" d="M237.8,214.5h0.7c-1.7-4.1-4.4-7.6-7.9-10.3l-1,0.7C233,207.4,235.9,210.7,237.8,214.5z"/>
					<path class="st14" d="M191,216.4c0.3-0.6,0.5-1.3,0.8-1.9h-0.7c-0.2,0.4-0.3,0.8-0.5,1.3L191,216.4z"/>
					<path class="st14" d="M238.4,215.9l0.5-0.2c-0.1-0.4-0.3-0.7-0.4-1.1h-0.7C238,215,238.2,215.4,238.4,215.9z"/>
					<path class="st14" d="M191,216.4l-0.3-0.6c-0.1,0.4-0.3,0.9-0.4,1.3h0.5L191,216.4z"/>
					<path class="st14" d="M201.1,207.3c0,0,0.5,0,0.7-0.2l0.6-1l1.6,4.1c0.3,0.7,0.7,0.5,0.8,0l0.4-2.7l0.8,0.7
						c0.1,0.1,0.3,0.2,0.5,0l1.3-1.2c-1.5-1.1-2.8-2.5-3.6-4.1c-1.9,0.8-3.7,1.9-5.4,3.2L201.1,207.3z"/>
					<path class="st14" d="M220.8,206.7l0.8,0.7c0.3,0.2,0.6,0.3,0.8,0l2.1-2.4l0.7,2.9l4.3-3c-1.6-1.1-3.2-1.9-5-2.6
						C223.6,204.1,222.4,205.6,220.8,206.7z"/>
					<path class="st14" d="M209.4,209.4l0.9-0.1l-1.6,4.9c0,0.1,0,0.2,0,0.3h7h0.1l-1.6-2.1l0.9-0.2c0.4-0.1,0.4-0.3,0.3-0.8
						l-0.1-2.4l2.1,1c0.2,0,0.4-0.1,0.5-0.2l0.5-0.9l1.4,2.5c0,0.1,0.1,0.2,0.2,0.2l0.5-0.3c0-0.1,0-0.1,0-0.2l0.2-4.2
						c-3.7,2.5-8.5,2.7-12.3,0.4l0.5,1.5C209,209.2,209,209.5,209.4,209.4z"/>
					<path class="st14" d="M196.9,214c0.2-0.1,0.3-0.3,0.2-0.4l-0.3-1l2.7,0.8c0.4,0.2,0.8-0.1,0.3-0.7l-3-3.2l1.2-0.1
						c0.4-0.1,0.6-0.1,0.6-0.5l-0.2-2.6c-2.8,2.3-5,5.1-6.6,8.3h3.8L196.9,214z"/>
					<path class="st14" d="M225.2,208.1c0,0,0.3,0.4,0.6,0.3l1.1-0.3l-1.7,4c-0.3,0.7,0.2,0.8,0.5,0.6l2.2-1.6l0.1,1.1
						c0,0.1,0.1,0.3,0.4,0.4l2.3,0.1l-1.1,1.9h8c-1.9-3.8-4.8-7.1-8.3-9.6l-4.3,3L225.2,208.1z"/>
					<path class="st14" d="M220.5,211.2l-0.5,0.3C220.2,211.7,220.4,211.6,220.5,211.2z"/>
					<path class="st14" d="M215.8,214.5h-0.1H215.8z"/>
					<path class="st14" d="M192.3,217.1l1-0.7l0.3,0.5l-0.3,0.1h3.5c0.1-0.2-0.1-0.3-0.4-0.6l-1.7-1.6l0.9-0.3h-3.8
						c-0.3,0.6-0.6,1.3-0.8,1.9l0.3,0.6h1V217.1z"/>
					<path class="st14" d="M208.8,214.8l0.9,0.8c-1,0.5-2,1-3,1.4h5.3l3.7-2.6h-7C208.7,214.6,208.8,214.7,208.8,214.8z"/>
					<path class="st14" d="M229.6,214.7c-0.2,0.4-0.4,0.6-0.1,0.8l0.7,0.6l-1.9,1h7.4l2.5-1.2c-0.2-0.4-0.4-0.9-0.6-1.3L229.6,214.7
						L229.6,214.7z"/>
					<path class="st14" d="M217.4,217.1c0.1-0.2,0.1-0.4-0.1-0.6l-1.5-2h-0.1l-3.7,2.6H217.4z"/>
					<path class="st14" d="M191.2,217.1l-0.3-0.6l-0.2,0.6H191.2z"/>
					<polygon class="st14" points="193.6,216.9 193.3,216.4 192.3,217.1 193.4,217.1 					"/>
					<path class="st14" d="M197,227.6l5.3-3.7c-2.4,0.4-4.5,1.6-6.2,3.2L197,227.6z"/>
					<path class="st14" d="M196,227.1c-1,1-1.9,2.1-2.6,3.3c-0.4,0.8-0.1,1.7,0.7,2.1l0,0c0.2,0.1,0.4,0.2,0.7,0.2
						c0.6,0,1.1-0.3,1.4-0.9c1.7-3,4.9-4.9,8.3-5c0.9,0,1.6-0.7,1.6-1.6s-0.7-1.6-1.6-1.6c-0.8,0-1.5,0.1-2.3,0.2l-5.3,3.7
						L196,227.1z"/>
					<path class="st15" d="M184.1,219.4c0.7-0.3,0.5-0.7,0-0.8l-2.7-0.5l0.6-0.6c-0.6,0.4-1.1,1.1-1.2,1.8l1.5,0.8L184.1,219.4z"/>
					<path class="st15" d="M180.7,219.4c0,0.2,0,0.4-0.1,0.5v0.2c0,0.2,0,0.4,0.1,0.6l1.5-0.6L180.7,219.4z"/>
					<path class="st15" d="M184.1,218.7c0.4,0.1,0.7,0.5,0,0.8l-1.8,0.7l5.3,2.7V219c-0.6-0.6-1.1-1.2-1.5-1.9h-2.6
						c-0.6,0-1.1,0.2-1.6,0.5l-0.6,0.6L184.1,218.7z"/>
					<path class="st15" d="M183.5,222.9h4v-0.1l-5.3-2.7l-1.5,0.6C181,222,182.1,222.9,183.5,222.9z"/>
					<path class="st15" d="M189.5,220.6c-0.7-0.5-1.4-1-2-1.6v3.8l0.2,0.1h1.6C189.3,222.1,189.4,221.4,189.5,220.6z"/>
					<polygon class="st15" points="187.5,222.9 187.7,222.9 187.5,222.8 					"/>
					<path class="st15" d="M189.5,220.6c-0.1,0.8-0.2,1.5-0.2,2.3h0.1c0.1-0.7,0.2-1.5,0.3-2.2L189.5,220.6z"/>
					<path class="st15" d="M195.1,222.2c-0.8,0-1.6-0.1-2.3-0.3c0,0.1,0,0.1-0.1,0.2l-0.1,0.8h11.1l1-0.7H195.1z"/>
					<path class="st15" d="M239.2,221.1l-2.3,1.6l-0.1-1.1c-1.1,0.4-2.3,0.6-3.5,0.6h-28.7l-1,0.7H239l0.5-1.2
						C240,221,239.5,220.9,239.2,221.1z"/>
					<path class="st15" d="M192.7,222.1c0-0.1,0-0.1,0.1-0.2c-1.1-0.2-2.1-0.7-3-1.2c-0.1,0.7-0.2,1.4-0.3,2.2h3.2V222.1z"/>
					<path class="st15" d="M186.1,217.1c0.4,0.7,0.9,1.4,1.5,1.9v-1.9H186.1z"/>
					<path class="st15" d="M189.5,220.6c0.2-1.2,0.4-2.4,0.8-3.5h-2.7v1.9C188.1,219.6,188.8,220.1,189.5,220.6z"/>
					<path class="st15" d="M190.7,217.1h-0.5c-0.3,1.2-0.6,2.3-0.8,3.5l0.2,0.1C190,219.5,190.3,218.3,190.7,217.1z"/>
					<path class="st15" d="M206.8,217.1l-0.6,0.3c-0.1,0.1-0.2,0.2-0.1,0.3l1.1,1.6l-0.5,0.3l-0.9-1.7c-0.1-0.1-0.3-0.1-0.4,0
						l-3.1,2.4l-0.3-1.2c0-0.2-0.3-0.3-0.5-0.4l-5.1-0.7l0.5-0.8c0,0,0.1-0.1,0.1-0.2h-3.5l-1.5,0.8c-0.1,0.1-0.1,0.3,0,0.4
						c0.8,1.1,1.6,2.1,2.4,3.2l-1.2,0.3c-0.2,0-0.3,0.2-0.3,0.3c0.8,0.2,1.5,0.3,2.3,0.3h9.6l7.4-5.2L206.8,217.1z"/>
					<path class="st15" d="M191.7,217.4l0.6-0.4h-1l0.1,0.3C191.5,217.4,191.6,217.5,191.7,217.4z"/>
					<path class="st15" d="M225.4,218.9l0.1,1.2l-3.8-1.3c-0.1,0-0.3,0-0.3,0.1l-0.4,1.9l-0.6-0.1l0.6-1.9c0-0.1-0.1-0.2-0.2-0.3
						l-3.9-0.5l0.6-1.1h-5.3l-7.4,5.2h28.7c1.2,0,2.3-0.2,3.5-0.6l0,0c0-0.1-0.1-0.3-0.3-0.4l-2.3-0.1l1.2-2.1
						c0.3-0.4,0.4-0.6,0.1-0.8l-0.7-0.6l1.2-0.6h-7.4l-2.7,1.4C225.5,218.5,225.4,218.7,225.4,218.9z"/>
					<path class="st15" d="M193.1,221.6l1.2-0.3c-0.8-1.1-1.6-2.1-2.4-3.2c0-0.1-0.1-0.3,0-0.4l1.5-0.8h-1.1l-0.6,0.4
						c-0.1,0.1-0.3,0-0.3-0.1l0,0l-0.1-0.3h-0.5c-0.4,1.2-0.8,2.4-1,3.7c0.9,0.6,1.9,1,3,1.2C192.7,221.8,192.9,221.7,193.1,221.6z"
						/>
					<path class="st14" d="M224.3,223.7c-0.9,0-1.6,0.7-1.6,1.6s0.7,1.6,1.6,1.6l0,0c3.5,0,6.7,1.9,8.3,5c0.3,0.5,0.8,0.9,1.4,0.9
						c0.2,0,0.5-0.1,0.7-0.2c0.8-0.4,1.1-1.3,0.7-2.1l0,0C233.2,226.3,229,223.7,224.3,223.7z"/>
					<path class="st16" d="M220,242.9c0,2-1.6,3.6-3.6,3.6h-8.1c-0.3,0-0.5,0-0.8-0.1c2.7,4.5,8.4,5.9,12.9,3.3
						c2.8-1.7,4.6-4.7,4.6-8h-5.3C219.9,242,220,242.4,220,242.9z"/>
					<path class="st11" d="M216.4,246.4c2,0,3.6-1.6,3.6-3.6c0-0.4-0.1-0.9-0.2-1.3h-13.5c0,1.7,0.4,3.3,1.3,4.8
						c0.3,0.1,0.5,0.1,0.8,0.1H216.4z"/>
					<path class="st16" d="M202,238.1c0.3,0,0.6-0.1,0.9-0.2h-2c0.3,0.1,0.6,0.2,0.9,0.2H202z"/>
					<path class="st16" d="M204.2,236v-4.5c0-1.2-1-2.2-2.2-2.2l0,0h-0.1c-1.2,0-2.2,1-2.2,2.2l0,0v4.5c0,0.8,0.5,1.6,1.2,1.9h2
						C203.7,237.6,204.2,236.8,204.2,236z"/>
					<path class="st16" d="M227.8,238.1c0.3,0,0.6-0.1,0.9-0.2h-2c0.3,0.1,0.6,0.2,0.9,0.2H227.8z"/>
					<path class="st16" d="M230,236v-4.5c0-1.2-1-2.2-2.2-2.2l0,0h-0.1c-1.2,0-2.2,1-2.2,2.2l0,0v4.5c0,0.8,0.5,1.6,1.2,1.9h2
						C229.5,237.6,230,236.8,230,236z"/>
					<path class="st12" d="M198.4,205.7v0.5l0.4-0.3L198.4,205.7z"/>
					<path class="st12" d="M198,209.4l-1.2,0.1l3,3.2c0.5,0.6,0.1,0.9-0.3,0.7l-2.7-0.8l0.3,1c0.1,0.1,0,0.3-0.2,0.4l-1.3,0.5h13.1
						c0-0.1,0-0.2,0-0.3l1.6-4.9l-0.9,0.1c-0.4,0.1-0.4-0.1-0.6-0.6l-0.5-1.5l-0.6-0.4l-1.3,1.2c-0.2,0.1-0.4,0.1-0.5,0l-0.8-0.7
						l-0.4,2.7c-0.1,0.4-0.5,0.7-0.8,0l-1.6-4.1l-0.6,1c-0.2,0.3-0.7,0.2-0.7,0.2l-2.3-1.4l-0.4,0.3l0.2,2.6
						C198.7,209.2,198.4,209.3,198,209.4z"/>
					<path class="st12" d="M209.8,215.6l-0.9-0.8c-0.1-0.1-0.1-0.2-0.1-0.3h-13.1l-0.9,0.3l1.7,1.6c0.3,0.3,0.5,0.4,0.4,0.6h9.9
						C207.8,216.6,208.7,216.1,209.8,215.6z"/>
					<path class="st12" d="M196.3,218l5.1,0.7c0.2,0.1,0.4,0.1,0.5,0.4l0.3,1.2l3.1-2.4c0.1,0,0.3-0.1,0.4,0l0.9,1.7l0.5-0.3
						l-1.1-1.6c-0.1-0.1,0-0.2,0.1-0.3l0.6-0.3h-9.9c0,0.1,0,0.1-0.1,0.2L196.3,218z"/>
					<path class="st12" d="M219.8,211.3l-1.4-2.5l-0.5,0.9c0,0.1-0.3,0.2-0.5,0.2l-2.1-1l0.1,2.4c0,0.5,0,0.7-0.3,0.8l-0.9,0.2
						l1.6,2.1l4.2-2.9C219.9,211.5,219.8,211.4,219.8,211.3z"/>
					<path class="st12" d="M220.5,211.2l4.6-3.2l-0.7-2.9l-2.1,2.4c-0.2,0.3-0.5,0.2-0.8,0l-0.8-0.7l-0.1,0.1l-0.2,4.2
						C220.5,211.1,220.5,211.2,220.5,211.2z"/>
					<path class="st12" d="M220,211.5l-4.2,2.9l0,0h13.9l1.1-1.9l-2.3-0.1c-0.3-0.1-0.4-0.2-0.4-0.4l-0.1-1l-2.2,1.6
						c-0.4,0.3-0.8,0.2-0.5-0.6l1.7-4l-1.1,0.3c-0.3,0.1-0.6-0.3-0.6-0.3l-0.1-0.2l-4.6,3.2C220.4,211.6,220.2,211.7,220,211.5z"/>
					<path class="st12" d="M217.3,216.5c0.1,0.2,0.2,0.4,0.1,0.6h11l1.9-1l-0.7-0.6c-0.3-0.2-0.2-0.4,0.1-0.8l0.1-0.2h-13.9
						L217.3,216.5z"/>
					<path class="st12" d="M217.4,217.1l-0.6,1.1l3.9,0.5c0.1,0,0.2,0.1,0.2,0.3l-0.6,1.9l0.6,0.1l0.4-1.9c0-0.1,0.2-0.2,0.3-0.1
						l3.8,1.3l-0.1-1.2c0-0.2,0.1-0.4,0.3-0.5l2.7-1.4L217.4,217.1L217.4,217.1z"/>
					<path class="st12" d="M243.2,217.6c0.8,0.5,1.2,1.4,1.2,2.3v0.2c0,0.9-0.5,1.8-1.2,2.3v4l0.1,0.1l0.9,0.8l0.3-4.4
						c0.1-0.8,0.6-0.6,0.7-0.3l1.3,2.5l0.5-0.9c0-0.1,0.3-0.2,0.5-0.2l2.1,1v-2.4c0-0.5,0-0.7,0.3-0.8l0.9-0.2l-3-4.2
						c-0.1-0.2-0.2-0.4-0.1-0.6l0.6-1l-3.9-0.6c-0.1,0-0.2-0.1-0.2-0.3l0.6-1.9l-0.6-0.2l-0.4,1.9c0,0.1-0.2,0.2-0.3,0.1h-0.1
						c0,0.1-0.1,0.2-0.1,0.4L243.2,217.6z"/>
					<path class="st12" d="M241.6,222.9h-1.3c0,0.3,0,0.7,0,1v4.5l0.1,0.4l2.1-2.3c0.2-0.3,0.4-0.2,0.7,0v-4
						C242.7,222.7,242.1,222.9,241.6,222.9z"/>
					<path class="st12" d="M243.2,217.6v-2.2c-0.2,0.6-0.5,1.2-0.9,1.8C242.6,217.3,242.9,217.4,243.2,217.6z"/>
					<path class="st12" d="M240.3,225.4v-1.5c0-0.3,0-0.7,0-1h-0.1C240.3,223.7,240.3,224.5,240.3,225.4z"/>
					<path class="st12" d="M239.1,222.9l-1.3,2.8l1.1-0.3c0.3-0.1,0.6,0.3,0.6,0.3l0.6,2.7v-3c0-0.8,0-1.7-0.1-2.5H239.1z"/>
					<path class="st12" d="M239.6,213.7v0.9h2.4L239.6,213.7z"/>
					<path class="st12" d="M243.2,215.4c0-0.1,0.1-0.2,0.1-0.4l-0.1-0.1V215.4z"/>
					<path class="st12" d="M239.4,215.4l-0.5,0.2c0.2,0.5,0.3,1,0.5,1.4h2.2c0.3,0,0.5,0,0.7,0.1c0.3-0.6,0.6-1.2,0.9-1.8V215
						l-1.2-0.4h-2.3v0.4C239.7,215.1,239.5,215.3,239.4,215.4z"/>
					<path class="st12" d="M239.3,217.1c-0.1-0.5-0.3-1-0.5-1.4l-0.5,0.2c0.2,0.4,0.3,0.8,0.5,1.2H239.3z"/>
					<path class="st12" d="M238.9,217.1c-0.1-0.4-0.3-0.8-0.5-1.2l-2.5,1.2H238.9z"/>
					<path class="st12" d="M244.4,220.1v-0.2c0-0.9-0.5-1.8-1.2-2.3v4.8C243.9,221.9,244.4,221,244.4,220.1z"/>
					<path class="st12" d="M240,219.9c0.2,1,0.3,2,0.3,3h1.3c0.6,0,1.1-0.2,1.6-0.5v-4.8c-0.3-0.2-0.6-0.3-0.9-0.4
						C241.7,218.2,240.9,219.1,240,219.9z"/>
					<path class="st12" d="M239.7,220.1c0.2,0.9,0.4,1.9,0.5,2.8h0.1c0-1-0.1-2-0.3-3L239.7,220.1z"/>
					<path class="st12" d="M236.9,222.7l2.3-1.6c0.4-0.3,0.8-0.1,0.5,0.6l-0.5,1.2h1c-0.1-1-0.3-1.9-0.5-2.8
						c-0.9,0.7-1.8,1.2-2.9,1.6L236.9,222.7z"/>
					<path class="st12" d="M242.3,217.2c-0.2-0.1-0.5-0.1-0.7-0.1h-2.2c0.3,0.9,0.5,1.9,0.6,2.8
						C240.9,219.1,241.7,218.2,242.3,217.2z"/>
					<path class="st12" d="M239.7,220.1l0.2-0.2c-0.2-1-0.4-1.9-0.6-2.8h-0.5C239.2,218,239.5,219,239.7,220.1z"/>
					<path class="st12" d="M235.9,217.1l-1.2,0.6l0.7,0.6c0.3,0.2,0.2,0.4-0.1,0.8l-1.2,2.1l2.3,0.1c0.3,0.1,0.4,0.2,0.3,0.4l0,0
						c1-0.4,2-0.9,2.9-1.6c-0.2-1-0.5-2-0.9-3L235.9,217.1z"/>
					<path class="st13" d="M181.9,282.6V274c0-1.7,0.4-3.4,1.1-5c-1.5-0.1-3.2-0.2-4.9-0.2H178c-1.7,0-3.3,0.1-4.9,0.2
						c0.4,4.4,0.7,9,0.9,13.5C176.6,282.4,179.3,282.4,181.9,282.6z"/>
					<path class="st13" d="M143.9,285.9h18.2c3-1.6,6.3-2.6,9.8-3c-0.7-4-1.7-8.5-2.9-13.3c-8.1,1.3-14.7,4.3-19.5,8.9
						C147.2,280.7,145.4,283.2,143.9,285.9z"/>
					<path class="st13" d="M141.6,316c0.7,3.7,4.3,6.1,8,5.3c1.8-0.4,3.3-1.4,4.3-2.9c0.2-0.5,0.5-1,0.7-1.5
						c0.4-1.2,0.5-2.4,0.3-3.6c-2.4-11.8-1-20.2,4-25c1-0.9,2.1-1.8,3.3-2.4H144C139.9,293.7,139.1,303.8,141.6,316z"/>
					<path class="st13" d="M172.4,277c0.3,1.9,0.5,3.9,0.7,5.8l0.9-0.1c-0.2-4.6-0.4-9.2-0.9-13.5c-0.7,0-1.3,0.1-1.9,0.2
						C171.6,271.9,172,274.5,172.4,277z"/>
					<path class="st13" d="M173.1,282.7c-0.2-1.9-0.4-3.9-0.7-5.8c-0.3-2.5-0.7-5.1-1.2-7.7c-0.8,0.1-1.5,0.2-2.2,0.3
						c1.2,4.8,2.2,9.3,2.9,13.3L173.1,282.7z"/>
					<path class="st13" d="M153.9,318.4c0.3-0.5,0.6-1,0.7-1.5C154.4,317.5,154.1,317.9,153.9,318.4z"/>
					<path class="st15" d="M195.7,271.3c2.2-1.8,4.6-3.4,7.2-4.5c-2.2-2.6-5.4-4.2-8.8-4.2h-0.8c-4.4,0-8.4,2.5-10.3,6.5
						c3.7,0.2,7.3,0.7,10.9,1.5C194.6,270.8,195.2,271,195.7,271.3z"/>
					<path class="st15" d="M186.3,285.9c0.3-0.9,0.6-1.9,0.9-2.8c-1.6-0.2-3.4-0.4-5.3-0.5v3.3H186.3z"/>
					<path class="st15" d="M181.9,313.6c0,3,1.2,5.8,3.2,7.9v-27.6c0-2.7,0.4-5.4,1.1-8h-4.4L181.9,313.6L181.9,313.6z"/>
					<path class="st15" d="M199,278.8c-0.9,3.6-4.5,5.9-8.2,5c-0.9-0.2-2.2-0.5-3.6-0.7c-0.4,0.9-0.7,1.8-0.9,2.8h19.3V274
						c0-2.7-0.9-5.2-2.6-7.3c-2.6,1.2-5.1,2.7-7.2,4.5C198.4,272.8,199.7,275.8,199,278.8z"/>
					<path class="st15" d="M185.1,293.9v27.6c2.1,2.2,5.1,3.5,8.2,3.5h0.8c0.3,0,0.5,0,0.8,0c1.5-2.1,3.9-3.4,6.4-3.4
						c0.3,0,0.6,0,0.9,0c2.2-2.1,3.4-5,3.4-8.1v-27.7h-19.3C185.5,288.5,185.2,291.2,185.1,293.9z"/>
					<path class="st15" d="M194.9,325c2.8-0.2,5.4-1.4,7.3-3.3c-0.3,0-0.6,0-0.9,0C198.7,321.6,196.3,322.9,194.9,325z"/>
					<path class="st15" d="M181.9,282.6c1.9,0.1,3.7,0.3,5.3,0.5c1.8-4.6,4.7-8.7,8.5-11.8c-0.6-0.3-1.1-0.6-1.8-0.7
						c-3.6-0.8-7.2-1.3-10.9-1.5c-0.8,1.6-1.2,3.3-1.1,5V282.6z"/>
					<path class="st15" d="M199,278.8c0.7-2.9-0.6-6-3.2-7.5c-3.8,3.2-6.7,7.2-8.5,11.8c1.4,0.2,2.6,0.5,3.6,0.7
						C194.5,284.7,198.1,282.4,199,278.8L199,278.8z"/>
					<path class="st13" d="M289.8,371.9c-3.2,1.2-6.8,0.1-8.8-2.6c0.2,0.7,0.6,1.4,1,2l0.3,0.3c2.1,2.7,6,3.3,8.8,1.2l10.5-8
						c2.7-2.1,3.3-6,1.2-8.8l-0.2-0.3c-2.1-2.7-6-3.3-8.8-1.2l-2.2,1.7c0.9,1.9,1.8,3.9,2.6,6C295.6,366,293.7,370.4,289.8,371.9z"
						/>
					<path class="st13" d="M281,369.2c2.4,3.4,7.1,4.1,10.5,1.7c2.8-2,3.9-5.6,2.6-8.8c-0.8-2.1-1.7-4.1-2.6-6l-8.3,6.3
						C281.1,364,280.2,366.7,281,369.2z"/>
					<path class="st14" d="M225.6,197.5c0-6.3-5-11.3-11.3-11.4c-3.5,0-6.8,1.6-9,4.4l20.2,8C225.5,198.2,225.6,197.9,225.6,197.5z"
						/>
					<path class="st14" d="M203.3,200.6h2.5c2.6-0.9,5.4-1.4,8.2-1.4h1.6c2.8,0,5.5,0.5,8.1,1.4h1.4c0.2-0.7,0.3-1.3,0.4-2l-20.2-8
						C203.1,193.4,202.3,197.2,203.3,200.6L203.3,200.6z"/>
					<path class="st14" d="M215.6,199.2H214c-2.8,0-5.5,0.5-8.1,1.4h17.9C221.1,199.7,218.4,199.2,215.6,199.2z"/>
					<path class="st14" d="M225.1,200.6h-1.4l1.3,0.5C225,200.9,225.1,200.8,225.1,200.6z"/>
					<path class="st14" d="M205.8,200.6h-2.5c0.1,0.3,0.2,0.6,0.3,0.9C204.3,201.2,205.1,200.9,205.8,200.6z"/>
					<path class="st14" d="M204.1,202.7c3.1-1.4,6.4-2,9.8-2.1h1.6c3,0,6,0.6,8.9,1.7c0.2-0.4,0.4-0.8,0.5-1.3l-1.3-0.5h-17.9
						c-0.8,0.3-1.5,0.6-2.2,0.9C203.8,201.9,203.9,202.3,204.1,202.7z"/>
					<path class="st14" d="M207.8,206.9l0.4-0.4l0.2,0.8c3.8,2.3,8.6,2.1,12.3-0.4v-0.2l0.1,0.1c1.6-1.1,2.9-2.6,3.7-4.4
						c-2.8-1.1-5.8-1.7-8.9-1.7H214c-3.4,0-6.7,0.7-9.8,2.1C205,204.4,206.3,205.8,207.8,206.9z"/>
					<path class="st14" d="M208.2,206.5l-0.4,0.4l0.6,0.4L208.2,206.5z"/>
					<path class="st14" d="M220.7,206.6v0.2l0.1-0.1L220.7,206.6z"/>
					<path class="st5" d="M271.1,142.8h48.3c3.4,0,6.2-2.8,6.2-6.2l0,0c0-3.4-2.8-6.2-6.2-6.2h-48.3c-3.4,0-6.2,2.8-6.2,6.2l0,0
						C264.9,140,267.7,142.8,271.1,142.8z"/>
					<circle class="st5" cx="301.4" cy="127.3" r="15.5"/>
					<ellipse class="st5" cx="283.1" cy="132.5" rx="11" ry="11"/>
					<path class="st5" d="M181.1,167.7H151c-2.1,0-3.9-1.7-3.9-3.9l0,0c0-2.1,1.7-3.9,3.9-3.9h30.1c2.1,0,3.9,1.7,3.9,3.9l0,0
						C184.9,166,183.2,167.7,181.1,167.7z"/>
					<circle class="st5" cx="162.3" cy="158.1" r="9.6"/>
					<circle class="st5" cx="172.9" cy="160.8" r="6.9"/>
					<path class="st5" d="M305.4,230.7H337c2.3,0,4.1-1.8,4.1-4.1l0,0c0-2.3-1.8-4.1-4.1-4.1h-31.6c-2.2,0-4.1,1.8-4.1,4.1l0,0
						C301.4,228.8,303.2,230.6,305.4,230.7z"/>
					<circle class="st5" cx="325.2" cy="220.5" r="10.1"/>
					<path class="st5" d="M306.9,223.4c0,4,3.2,7.2,7.2,7.2s7.2-3.2,7.2-7.2s-3.2-7.2-7.2-7.2S306.9,219.5,306.9,223.4L306.9,223.4z
						"/>
					<path class="st9" d="M130,96.2c0,0-2.1-3-2.7-1.5s1.7,4.5,1.7,4.5s-3.9-2.4-4.6-1s4.3,1.7,4.3,1.7s-4,0.1-3.8,2.3s2-0.4,2-0.4
						c-1.2,1.4-1.9,3.1-2,4.9c-1-0.3-2.1,0.2-2.5,1.2c-0.1,0.3-0.1,0.5-0.1,0.8c0,2.7,7.9,0.6,7.9,0.6l3.5-8.4l-1.7-4.1L130,96.2z"
						/>
					<path class="st11" d="M140.6,106.8c6.7-0.2,6.3-0.6,7.5-0.1c11.9,4.5,12.1,31.7,3.2,38.6c-4.5,3.4-14.8,1.8-16.9,1.6
						c-7.7-0.7-14.7-20.5-15.5-24.6c-1-4.8-2-10.2,1.9-13.2C123.2,107.2,129,107,140.6,106.8z"/>
					<path class="st9" d="M143,109.9c2.2-1.8,4.2-5.2,3.4-8.1c-0.9-3.3-5.1-4.8-4.5-6.2c0.4-1,2.4-0.4,3.4-1.9s0.1-4-0.8-5.3
						c-2-3-5.7-4.3-9.2-3.5c-3.6,1.1-6.1,4.3-6.3,8c-0.1,3.8,3.1,4.6,3.2,8.7s-3.4,5.6-2.5,7.7C130.8,112.1,138.5,113.6,143,109.9z"
						/>
					<path class="st10" d="M139.3,88.6c2.3-0.4,4.6,0.3,6.2,2c0.4,1,0.3,2.2-0.2,3.1c-0.2,0.3-0.4,0.5-0.7,0.6
						c-0.9,0.2-1.8,0.3-2.8,0.2c-2.3-0.2-5.8-1.1-5.9-2.8C135.8,90.4,137.6,89,139.3,88.6z"/>
					<path class="st13" d="M144.7,88.7c0,0,2.1-0.1,2.9,0.9c0,0,5.8,1.1,2.8,5.8c0,0,0.2-0.9-0.4-1.1c-1.1-0.2-2.3-0.2-3.4-0.2
						c-0.9,0-4.4-2.3-4.4-2.3s2.6,0.4,2.5-0.7C144.7,90.4,144.7,88.7,144.7,88.7z"/>
					<path class="st10" d="M163.8,130.2c0,0-1.3,17.2-4.4,20.6s-1.8-5.8-1.8-5.8s-0.7,2.5-1.8,2.5s0-5.7,0-5.7s-1,3.1-1.8,3.1
						s-1.1-24.2-1.1-24.2L163.8,130.2z"/>
					<path class="st10" d="M123,121.1c0,0,8.4,25.2,6.9,25s-4.4-7.7-4.4-7.7s3.5,7.4,1,6.9s-3.5-6.4-3.5-6.4
						c0.6,0.9,0.3,2.1-0.6,2.7c-1.6,1-7.8-11.5-7.7-18L123,121.1z"/>
					<path class="st9" d="M123,109c0,0,0.3,17.8-1.5,15.1s-0.7-4.1-0.7-4.1s2.4,11.1,0.2,12.9s-4-8.7-4-8.7s1.9,6.8,0.3,6.7
						s-5.4-14.5-2-18.5s6.1-4.7,6.1-4.7s-4-0.3-2.6-0.8c1.1-0.2,2.2-0.2,3.3,0c0,0-3-0.2-2-1.1S123,105.4,123,109z"/>
					<path class="st10" d="M145.4,106.2c0,0,5.8,8.8-1.1,10s-7.2,3.7-7.2,3.7s-2.2-3.1-5.7-3.2s-10.4-6.5-4-9.4
						C133.8,104.4,145.4,106.2,145.4,106.2z"/>
					<path class="st9" d="M158.6,108.7c0,0,5.1,3.9,3.8,1.5s-3.1-2.4-3.1-2.4s4.6,1.3,3.4,0s-9.1-6.2-14.2-4s-8.7,9.3-0.8,17.9
						c0,0,3,3.1,2.2-1.4c0,0,3.6,6.6,4.7,3.8c0,0,2.7,3.5,2.7,1.3c0,0,3.6,6.3,3.6,3.7c0,0-0.1,7.8,1.4,7S166.7,116,158.6,108.7z"/>
					<path class="st17" d="M141.9,87.9c0.4,0.1,0.6,0.6,0.5,1c-0.1,0.2-0.2,0.3-0.3,0.4c-0.6,0.4-1.2,0.4-1.9,0.2
						c-0.6-0.2-1.1-0.7-1.3-1.3c-0.1-0.4,0.1-0.9,0.5-1c0.2-0.1,0.3-0.1,0.5,0L141.9,87.9z"/>
					<path class="st18" d="M253.4,168.6c0.1-0.3,0.1-0.6,0.2-0.8l-1.2-0.8c-1.2-0.8-2.4-1.4-3.7-2c-2.9-1.4-5.6-2.9-8.4-4.5
						c-2-1.2-4-2.1-5.9-3.3c-3.5-2.2-7.2-3.9-11.1-5.2c-3.7-1-7.6-1.6-11.4-1.8c-1.2-0.1-2.5-0.3-3.8-0.4
						c-5.8-0.7-11.7-1.7-17.5-2.7c-5-0.9-10-2.2-15-3.6c-18,0.3-36.4-0.3-54,1.2c-17.9,1.6-34.8,8.5-51.1,17.1
						c0.2-0.3,0.4-0.7,0.7-1l0,0l0.6-0.9c0.1-0.2,0.3-0.4,0.4-0.6v-0.2l0,0c0.2-0.4,0.4-0.7,0.7-1.1l0.1-0.2l0.1-0.1
						c0.2-0.3,0.4-0.6,0.6-0.9l0.2-0.3c0.2-0.3,0.4-0.5,0.6-0.8l0.2-0.2l0.1-0.1c0.3-0.3,0.6-0.7,0.9-1c2.5-2.4,6.2-3.5,9.2-4.8
						c1.3-0.6,2.7-1.1,4.1-1.6c0.1-0.2,0.1-0.4,0.1-0.6v-0.1v-0.1v-0.1l0,0V147c0-0.1,0-0.1,0-0.2c0-0.1,0-0.1,0-0.2v-0.1v-0.1l0,0
						c0-0.1,0-0.2,0-0.2V146v-0.1c0,0,0,0,0-0.1s-0.1-0.2-0.1-0.4l0,0l0,0v-0.1l-0.1-0.1c-0.1-0.1-0.1-0.3-0.2-0.4l-0.1-0.1
						c0-0.1-0.1-0.2-0.2-0.2l0,0v-0.1l-0.1-0.1l0,0l-0.2-0.2L88,144l0,0c-0.2-0.3-0.4-0.5-0.7-0.8l0,0c-4,1.8-8.1,3.4-12.2,5
						c-1,0.4-2.3,0.7-3.6,1.1c0.8-1.8,1.6-3.5,2.4-5.3c1.4-3.1,2.7-6.1,4.1-9.2c1-2.4,1.8-4.9,3-7.3c0.1-0.1,0.1-0.3,0.2-0.4
						c-0.1-0.2-0.2-0.4-0.3-0.6c0,0,0,0,0-0.1l0,0v-0.1l-0.1-0.1c-0.1-0.2-0.3-0.4-0.5-0.6l-0.1-0.1c0-0.1-0.1-0.1-0.2-0.2l0,0
						c-0.4-0.4-0.8-0.6-1.2-0.8c-0.2-0.1-0.3-0.1-0.5-0.2c-1.4,1.9-2.6,3.9-3.8,6c-3.3,6-6.5,12.1-9.7,18.2
						c-4.5,8.5-9.9,16.4-15.1,24.3c-3.1,4.7-7.3,8.2-11.1,12.1c-4,4-7.6,8.8-11.9,12.6c-5.2,4.5-10.1,9.3-14.8,14.4
						c0,0.2,0,0.5,0,0.8l0,0v0.4l0,0c0,0.4,0.1,0.8,0.1,1.2l0,0c0,0.1,0,0.2,0.1,0.3s0.1,0.3,0.1,0.4c0.1,0.3,0.1,0.6,0.2,0.9
						c0,0.2,0.1,0.4,0.2,0.5s0.1,0.2,0.1,0.3l0,0c0.1,0.3,0.2,0.6,0.4,0.9l0,0l0.1,0.3l0,0c0.7,1.4,1.5,2.7,2.5,3.9l0,0L16,222
						c0.3,0.3,0.6,0.6,1,0.9l0.2,0.2c0.4,0.3,0.7,0.6,1.1,0.9c0,0,0,0,0,0.1l0,0c0.3,0.2,0.6,0.4,0.9,0.6l0,0l0.1,0.1l0,0l0.5,0.3
						l0,0c0.2,0.1,0.5,0.2,0.7,0.3l0.2,0.1H21l0,0h0.1h0.1h0.1l0,0h0.1h0.2c0.3,0.1,0.5,0.1,0.8,0.1c11.6-13.9,22.9-28.7,36-40
						c20.4-17.7,45.4-25.9,71.2-29.3c9-1.2,18.1-2.1,27.2-2.9c0.5,0.1,1,0.2,1.6,0.3c4.1,1.2,7.9,4.1,11.5,6.6
						c3.4,2.4,6.2,1.9,10.1,3.3c4.6,1.6,9.4,3.7,14,4.4c4.3,0.7,9,0.8,13.5,1.5c4.4,0.7,8.8,1.7,13.1,3.1c1.9,0.6,3.9,1.6,5.9,2.4
						c1,0.4,2,1,2.8,1.8c0.4,0.6,1,1.1,1.6,1.4c0.2,0.1,0.3,0.1,0.5,0.1h0.1c0.1,0,0.3,0,0.4-0.1l0,0c0.1-0.1,0.2-0.1,0.3-0.2l0,0
						c0.2-0.2,0.3-0.4,0.4-0.6c0.4-1-0.9-2.2-1.6-2.8c-1.7-1.3-3.5-2.4-5.4-3.2c-2.9-1.5-5.9-3.6-8.7-4.7c-6-2.4-12.2-3.4-18.6-4.1
						c-3.3-0.3-6.5-1.1-9.6-2.3c-4.3-1.7-8.6-3.3-12.9-5.1c-1.5-0.5-3-1.4-4.1-2.5l-0.1-0.1h-0.1c16.6-0.4,33.3-0.2,49.7,3.7
						c7.1,1.8,13.9,4.6,20.1,8.4l0.7,0.3c2.5,1.3,5,2.3,7.6,3.3c1,0.4,2.1,0.8,3.1,1.2h0.3c0.2,0,0.3,0,0.5,0
						C253.3,169.2,253.3,168.9,253.4,168.6z"/>
					<path class="st13" d="M147.8,146.5h-14.2c-1.1,0-2.1-0.9-2.1-2.1l0,0l0,0c0-1.1,0.9-2,2.1-2h14.2c1.1,0,2,0.9,2,2l0,0
						C149.8,145.5,148.9,146.4,147.8,146.5z"/>
				</g>
			</g>
		</g>
	</g>
</g>
</svg>
