<svg xmlns="http://www.w3.org/2000/svg" xmlns:xlink="http://www.w3.org/1999/xlink" viewBox="0 0 381.58 618.85"><defs><style>.cls-1{fill:none;}.cls-2{fill:#f4b155;}.cls-3{fill:#fff0cc;}.cls-4{fill:#231f20;}.cls-5{clip-path:url(#clip-path);}.cls-6{fill:#a4f6ff;}.cls-7{fill:#fff;}.cls-8{fill:#3f272d;}.cls-9{fill:#54323a;}.cls-10{fill:#ee915b;}.cls-11{fill:#ffd351;}.cls-12{fill:#f5b155;}.cls-13{fill:#ffd150;}.cls-14{fill:#e4705e;}.cls-15{fill:#414042;}.cls-16{fill:#4a355b;}.cls-17{fill:#f4b055;}.cls-18{fill:#dd4f65;}.cls-19{fill:#262b3f;}.cls-20{fill:#48c2ca;}.cls-21{fill:#f1f2f2;}.cls-22{fill:#252b3f;}.cls-23{fill:#754f4b;}.cls-24{fill:#e6705f;}</style><clipPath id="clip-path"><rect class="cls-1" x="45.85" y="71.5" width="289.88" height="392.69" rx="61.87"/></clipPath></defs><g id="Layer_2" data-name="Layer 2"><g id="Layer_1-2" data-name="Layer 1"><path class="cls-2" d="M381.58,23.46V595.39c0,12.94-10.92,23.46-24.34,23.46H24.34C10.92,618.85,0,608.33,0,595.39V23.46C0,10.52,10.92,0,24.34,0h332.9C370.66,0,381.58,10.52,381.58,23.46ZM361.13,581.78V37.07a17.58,17.58,0,0,0-17.56-17.56H38A17.58,17.58,0,0,0,20.46,37.07V581.78A17.57,17.57,0,0,0,38,599.34H343.57A17.58,17.58,0,0,0,361.13,581.78Z"/><rect class="cls-3" x="20.46" y="19.51" width="340.67" height="579.83" rx="17.56"/><path class="cls-4" d="M58.44,539.18a1.45,1.45,0,0,1-.37-1.09V516H51a1.47,1.47,0,0,1-1.11-.33,1.58,1.58,0,0,1-.3-1.09v-1.09a1.69,1.69,0,0,1,.3-1.12A1.43,1.43,0,0,1,51,512H70.35a1.51,1.51,0,0,1,1.13.34,1.58,1.58,0,0,1,.32,1.12v1.09a1.48,1.48,0,0,1-.32,1.09,1.56,1.56,0,0,1-1.13.33H63.26v22.12a1.53,1.53,0,0,1-.35,1.09,1.6,1.6,0,0,1-1.19.36H59.61A1.61,1.61,0,0,1,58.44,539.18Z"/><path class="cls-4" d="M75.31,539.18a1.53,1.53,0,0,1-.35-1.09V513.5a1.62,1.62,0,0,1,.35-1.14,1.54,1.54,0,0,1,1.15-.36h2.15a1.61,1.61,0,0,1,1.17.36,1.53,1.53,0,0,1,.37,1.14v10.2H93.43V513.5a1.58,1.58,0,0,1,.37-1.14A1.61,1.61,0,0,1,95,512h2.11a1.61,1.61,0,0,1,1.17.36,1.53,1.53,0,0,1,.37,1.14v24.59a1.58,1.58,0,0,1-.34,1.09,1.64,1.64,0,0,1-1.2.36H95a1.61,1.61,0,0,1-1.17-.36,1.5,1.5,0,0,1-.37-1.09V527.63H80.15v10.46a1.53,1.53,0,0,1-.35,1.09,1.6,1.6,0,0,1-1.19.36H76.46A1.54,1.54,0,0,1,75.31,539.18Z"/><path class="cls-4" d="M103.74,539.18a1.53,1.53,0,0,1-.34-1.09V513.5a1.62,1.62,0,0,1,.34-1.14,1.56,1.56,0,0,1,1.16-.36h16.85a1.52,1.52,0,0,1,1.11.32,1.56,1.56,0,0,1,.31,1.1v1.09a1.62,1.62,0,0,1-.31,1.11,1.43,1.43,0,0,1-1.11.35H108.58v7.86h9.56a1.63,1.63,0,0,1,1.14.32,1.54,1.54,0,0,1,.32,1.09v1a1.62,1.62,0,0,1-.32,1.11,1.54,1.54,0,0,1-1.14.35h-9.56v7.89h13.13a1.5,1.5,0,0,1,1.13.35,1.57,1.57,0,0,1,.33,1.11v1.1a1.44,1.44,0,0,1-.33,1.05,1.54,1.54,0,0,1-1.13.32H104.9A1.56,1.56,0,0,1,103.74,539.18Z"/><path class="cls-4" d="M142.87,539.18a1.53,1.53,0,0,1-.34-1.09V513.5a1.29,1.29,0,0,1,1.54-1.5h2.18a2.39,2.39,0,0,1,1,.16,1.13,1.13,0,0,1,.54.65L156,531.64l8.18-18.83a1.14,1.14,0,0,1,.55-.65,2.34,2.34,0,0,1,1-.16h2.18a1.29,1.29,0,0,1,1.54,1.5v24.59a1.26,1.26,0,0,1-1.49,1.45h-1.79a1.61,1.61,0,0,1-1.17-.36,1.5,1.5,0,0,1-.37-1.09V520.63l-6.92,15.43a3.1,3.1,0,0,1-.65.93,1.59,1.59,0,0,1-1.05.29,1.68,1.68,0,0,1-1.08-.29,2.39,2.39,0,0,1-.62-.93l-6.93-15.43v17.46a1.53,1.53,0,0,1-.35,1.09,1.6,1.6,0,0,1-1.19.36H144A1.56,1.56,0,0,1,142.87,539.18Z"/><path class="cls-4" d="M172.38,538.94a1.35,1.35,0,0,1,.12-.53l10.7-25.36a2,2,0,0,1,.52-.83,1.28,1.28,0,0,1,.81-.22h2.23a1.25,1.25,0,0,1,.83.22,2.12,2.12,0,0,1,.51.83l10.69,25.36a1.35,1.35,0,0,1,.12.53q0,.6-.69.6H194.7a1.42,1.42,0,0,1-.75-.14,1.26,1.26,0,0,1-.42-.59l-2.31-5.67H180l-2.27,5.67a1.34,1.34,0,0,1-.43.59,1.42,1.42,0,0,1-.75.14h-3.52Q172.38,539.54,172.38,538.94Zm17.54-9.56-4.29-10.62-4.3,10.62Z"/><path class="cls-4" d="M205.84,536.42q-3.76-3.72-3.77-10.65t3.79-10.63q3.78-3.75,10.63-3.75a22.2,22.2,0,0,1,5.15.57,12.38,12.38,0,0,1,4,1.62.67.67,0,0,1,.36.53,1,1,0,0,1-.16.48l-1.18,2q-.24.36-.48.36a1.8,1.8,0,0,1-.53-.2,13.18,13.18,0,0,0-6.56-1.54,9.84,9.84,0,0,0-7.25,2.61c-1.76,1.74-2.63,4.38-2.63,7.92s.85,6.21,2.55,7.94a9.37,9.37,0,0,0,7,2.59,18.3,18.3,0,0,0,3.16-.26,9.5,9.5,0,0,0,2.51-.75V527.8h-5.35a1.5,1.5,0,0,1-1.13-.35,1.57,1.57,0,0,1-.33-1.11v-1.05a1.42,1.42,0,0,1,.33-1.08,1.65,1.65,0,0,1,1.13-.3h8.55a1.65,1.65,0,0,1,1.27.42,1.93,1.93,0,0,1,.39,1.32v10.69a2.58,2.58,0,0,1-.12.91,1.21,1.21,0,0,1-.53.55q-3.74,2.36-10.13,2.35Q209.61,540.15,205.84,536.42Z"/><path class="cls-4" d="M231.58,539.18a1.53,1.53,0,0,1-.34-1.09V513.5a1.62,1.62,0,0,1,.34-1.14,1.56,1.56,0,0,1,1.16-.36h2.14a1.65,1.65,0,0,1,1.18.36,1.57,1.57,0,0,1,.36,1.14v24.59a1.53,1.53,0,0,1-.34,1.09,1.62,1.62,0,0,1-1.2.36h-2.14A1.56,1.56,0,0,1,231.58,539.18Z"/><path class="cls-4" d="M244.16,536.42q-3.76-3.72-3.77-10.65t3.71-10.65q3.71-3.74,10.59-3.73a21.53,21.53,0,0,1,5.1.57,12.78,12.78,0,0,1,4,1.62.66.66,0,0,1,.37.53,1.06,1.06,0,0,1-.21.56l-1.13,2c-.16.24-.31.36-.44.36a1.66,1.66,0,0,1-.57-.2,12.44,12.44,0,0,0-6.52-1.54,9.6,9.6,0,0,0-7.17,2.63q-2.59,2.64-2.6,7.9c0,3.57.9,6.22,2.68,8a9.86,9.86,0,0,0,7.21,2.61,13.5,13.5,0,0,0,6.92-1.58,1.8,1.8,0,0,1,.53-.2c.16,0,.32.12.49.37l1.25,2.1a1,1,0,0,1,.12.41c0,.16-.14.34-.44.52q-3.12,2.19-9.44,2.19Q247.93,540.15,244.16,536.42Z"/><path class="cls-4" d="M269,539.18a1.53,1.53,0,0,1-.35-1.09V513.5a1.62,1.62,0,0,1,.35-1.14,1.54,1.54,0,0,1,1.15-.36h2.15a1.61,1.61,0,0,1,1.17.36,1.53,1.53,0,0,1,.37,1.14v24.59a1.53,1.53,0,0,1-.35,1.09,1.6,1.6,0,0,1-1.19.36h-2.15A1.54,1.54,0,0,1,269,539.18Z"/><path class="cls-4" d="M277.78,538.94a1.35,1.35,0,0,1,.12-.53l10.69-25.36a2,2,0,0,1,.53-.83,1.28,1.28,0,0,1,.81-.22h2.23a1.29,1.29,0,0,1,.83.22,2.24,2.24,0,0,1,.5.83l10.7,25.36a1.35,1.35,0,0,1,.12.53q0,.6-.69.6H300.1a1.4,1.4,0,0,1-.75-.14,1.34,1.34,0,0,1-.43-.59l-2.31-5.67H285.43l-2.27,5.67a1.26,1.26,0,0,1-.42.59,1.42,1.42,0,0,1-.75.14h-3.52Q277.78,539.54,277.78,538.94Zm17.54-9.56L291,518.76l-4.29,10.62Z"/><path class="cls-4" d="M308.62,539.18a1.53,1.53,0,0,1-.34-1.09V513.5a1.29,1.29,0,0,1,1.54-1.5h1.86a2,2,0,0,1,.89.16,1.81,1.81,0,0,1,.65.65l13.37,18.55V513.5a1.62,1.62,0,0,1,.34-1.14,1.56,1.56,0,0,1,1.16-.36h2.14a1.65,1.65,0,0,1,1.18.36,1.57,1.57,0,0,1,.36,1.14v24.59a1.53,1.53,0,0,1-.34,1.09,1.62,1.62,0,0,1-1.2.36h-1.9a1.89,1.89,0,0,1-.85-.14,2,2,0,0,1-.65-.63l-13.37-18.51v17.83a1.53,1.53,0,0,1-.34,1.09,1.62,1.62,0,0,1-1.2.36h-2.14A1.56,1.56,0,0,1,308.62,539.18Z"/><g class="cls-5"><rect class="cls-6" x="32.44" y="30.96" width="322.58" height="206.24"/><rect class="cls-7" x="252.53" y="150.12" width="41.53" height="8.53" rx="4.26" transform="translate(546.6 308.76) rotate(180)"/><circle class="cls-7" cx="277.5" cy="148.05" r="10.59" transform="translate(-31.07 87.16) rotate(-16.92)"/><circle class="cls-7" cx="265.85" cy="151.1" r="7.55"/><path class="cls-7" d="M138,179.93H105a4.28,4.28,0,0,1-4.26-4.27h0A4.28,4.28,0,0,1,105,171.4h33a4.28,4.28,0,0,1,4.26,4.26h0A4.28,4.28,0,0,1,138,179.93Z"/><circle class="cls-7" cx="117.31" cy="169.33" r="10.59" transform="translate(-74.32 244.92) rotate(-76.81)"/><path class="cls-7" d="M136.51,172.38a7.55,7.55,0,1,1-7.55-7.55A7.55,7.55,0,0,1,136.51,172.38Z"/><rect class="cls-7" x="59.18" y="122.8" width="59.32" height="12.18" rx="6.09"/><circle class="cls-7" cx="82.84" cy="119.84" r="15.13"/><circle class="cls-7" cx="99.47" cy="124.19" r="10.78"/><rect class="cls-7" x="282.7" y="190.88" width="68.61" height="14.09" rx="7.04" transform="translate(634 395.85) rotate(180)"/><circle class="cls-7" cx="323.94" cy="187.47" r="17.5"/><circle class="cls-7" cx="304.7" cy="192.5" r="12.47"/><path class="cls-8" d="M24.7,212.71l24.7-12.8A32.55,32.55,0,0,1,73,197.43l37.63,10.35,35.83-15.32a37.79,37.79,0,0,1,26-1.36l62.82,19.33,49.2-14.34a45.89,45.89,0,0,1,28.79,1l50,18.46v67.76H24.7Z"/><path class="cls-9" d="M24.7,230.61,90.19,203.9a47.52,47.52,0,0,1,35.44-.19l49.15,19.43L218.1,199.6a53.82,53.82,0,0,1,45.37-2.81l40.39,15.83a19.92,19.92,0,0,0,14.89-.14l44.45-18.42v89.26H24.7Z"/><polygon class="cls-10" points="363.2 283.32 24.7 283.32 24.7 418.1 24.7 433.71 24.7 507.59 363.01 507.59 363.01 433.71 363.2 433.71 363.2 283.32"/><circle class="cls-11" cx="171.48" cy="141.56" r="10.99"/><path class="cls-12" d="M178.57,141.56a7.09,7.09,0,1,1-7.09-7.09A7.09,7.09,0,0,1,178.57,141.56Z"/><circle class="cls-11" cx="218.84" cy="141.56" r="10.99"/><circle class="cls-12" cx="218.84" cy="141.56" r="7.09" transform="translate(-36 196.21) rotate(-45)"/><path class="cls-13" d="M215.58,191.47a7.63,7.63,0,0,1-.47-15.24c1.53-.12,33.87-3.2,33.87-55a7.63,7.63,0,1,1,15.26,0c0,34.22-12.73,51.46-23.41,59.9C229,190.5,217.3,191.39,216,191.46Z"/><path class="cls-13" d="M225,356.64,224,355.46a4.26,4.26,0,0,0-2.24-1.3l-5.14-1.1c0-.08,0-.16,0-.23V315.64a7.08,7.08,0,1,0-14.15,0v35.9a4.21,4.21,0,0,0-1.66,3.35v4.59a4.23,4.23,0,0,0,4.23,4.23H221.9A4.23,4.23,0,0,0,225,356.64Z"/><rect class="cls-14" x="201.52" y="320.02" width="15.33" height="2.68" rx="1.34" transform="translate(418.37 642.72) rotate(-180)"/><rect class="cls-14" x="207.64" y="319.45" width="3.08" height="21.85" rx="1.33" transform="translate(-157.05 193.33) rotate(-37.14)"/><rect class="cls-14" x="198.13" y="328.9" width="21.85" height="2.76" rx="1.19" transform="translate(-180.45 297.51) rotate(-52.86)"/><rect class="cls-14" x="207.64" y="334.75" width="3.08" height="21.85" rx="1.33" transform="translate(-166.27 196.38) rotate(-37.14)"/><rect class="cls-14" x="198.26" y="344.14" width="21.85" height="3.08" rx="1.33" transform="matrix(0.6, -0.8, 0.8, 0.6, -192.68, 303.72)"/><rect class="cls-14" x="220.55" y="353.99" width="2.52" height="8.98" rx="1.26" transform="translate(443.62 716.96) rotate(-180)"/><rect class="cls-14" x="215.59" y="352.83" width="2.52" height="10.14" rx="1.26" transform="translate(433.7 715.8) rotate(-180)"/><rect class="cls-14" x="202.05" y="352.62" width="14.8" height="2.75" rx="1.38" transform="translate(418.9 707.99) rotate(-180)"/><rect class="cls-14" x="199.52" y="361.59" width="26.62" height="2.57" rx="1.28"/><path class="cls-13" d="M187.69,351.54v-35.9a7.08,7.08,0,1,0-14.15,0v37.19c0,.07,0,.15,0,.23l-5.14,1.1a4.23,4.23,0,0,0-2.24,1.3l-1.08,1.18a4.23,4.23,0,0,0,3.13,7.07h16.9a4.22,4.22,0,0,0,4.22-4.23v-4.59A4.23,4.23,0,0,0,187.69,351.54Z"/><rect class="cls-14" x="173.14" y="320.02" width="15.33" height="2.68" rx="1.34"/><rect class="cls-14" x="169.88" y="328.84" width="21.85" height="3.08" rx="1.33" transform="translate(-191.72 275.03) rotate(-52.86)"/><rect class="cls-14" x="179.26" y="319.45" width="3.08" height="21.85" rx="1.33" transform="translate(-162.8 176.19) rotate(-37.14)"/><rect class="cls-14" x="169.88" y="344.14" width="21.85" height="3.08" rx="1.33" transform="translate(-203.93 281.13) rotate(-52.86)"/><rect class="cls-14" x="179.26" y="334.75" width="3.08" height="21.85" rx="1.33" transform="translate(-172.02 179.25) rotate(-37.14)"/><rect class="cls-14" x="166.92" y="353.36" width="2.52" height="8.98" rx="1.26"/><rect class="cls-14" x="171.88" y="352.62" width="2.52" height="9.72" rx="1.26"/><rect class="cls-14" x="173.14" y="352.62" width="14.8" height="2.75" rx="1.38"/><rect class="cls-14" x="163.36" y="361.59" width="26.62" height="2.57" rx="1.28"/><rect class="cls-14" x="187.01" y="351.54" width="2.92" height="12.6" rx="1.46" transform="translate(376.94 715.69) rotate(180)"/><rect class="cls-14" x="199.32" y="351.4" width="2.92" height="12.76" rx="1.46"/><rect class="cls-13" x="190.33" y="160.85" width="10.96" height="19.67" rx="5.48"/><path class="cls-13" d="M194.67,170.89h0A23.16,23.16,0,0,0,218.88,149L220,126a23.15,23.15,0,0,0-21.91-24.2h0a23.15,23.15,0,0,0-24.21,21.91l-1.14,22.93A23.16,23.16,0,0,0,194.67,170.89Z"/><path class="cls-15" d="M215.46,134.29h0a2.68,2.68,0,0,0-2.67-2.67H202.67a2.68,2.68,0,0,0-2.67,2.67h0a2.68,2.68,0,0,0,2.67,2.67h10.12A2.68,2.68,0,0,0,215.46,134.29Z"/><path class="cls-15" d="M193.11,134.29h0a2.68,2.68,0,0,0-2.67-2.67H180.32a2.68,2.68,0,0,0-2.67,2.67h0a2.68,2.68,0,0,0,2.67,2.67h10.12A2.68,2.68,0,0,0,193.11,134.29Z"/><path class="cls-14" d="M200.78,157.37a1.4,1.4,0,0,1-1.11-.56,4.11,4.11,0,0,0-3.38-1.5,7.94,7.94,0,0,0-4.77,1.66,1.38,1.38,0,0,1-1.65-2.21,10.82,10.82,0,0,1,6.45-2.21,6.85,6.85,0,0,1,5.57,2.61,1.39,1.39,0,0,1-.29,1.93A1.31,1.31,0,0,1,200.78,157.37Z"/><path class="cls-16" d="M207.86,146.21h0a2.06,2.06,0,0,0,2.06-2.05v-3.55a2.07,2.07,0,0,0-2.06-2.06h0a2.07,2.07,0,0,0-2.06,2.06v3.55A2.06,2.06,0,0,0,207.86,146.21Z"/><rect class="cls-16" x="182.86" y="138.55" width="4.11" height="7.66" rx="2.06" transform="translate(369.84 284.77) rotate(180)"/><path class="cls-17" d="M195.74,144a4,4,0,0,0-4,4h8A4,4,0,0,0,195.74,144Z"/><path class="cls-17" d="M196.07,156.62c-1.17,0-2.12.47-2.12,1.06h4.25C198.2,157.09,197.24,156.62,196.07,156.62Z"/><path class="cls-7" d="M215.42,178.14c-.77-.54-1.57-1-2.38-1.48-3.37,7-10,11.76-17.57,11.76s-14.2-4.77-17.57-11.78a29.92,29.92,0,0,0-5,3.56l-.11.1a11.9,11.9,0,0,1,5.6,10.35c0,6.45-4.67,11.68-10.43,11.68a9.48,9.48,0,0,1-4.83-1.34c0,.28,0,.57,0,.85V317.91h64.72V201.84A28.89,28.89,0,0,0,215.42,178.14Z"/><path class="cls-18" d="M230,332.41h0a49.23,49.23,0,0,1-49.23-49.22V185.73a12.93,12.93,0,0,1,12.92-12.92h5.22A31.09,31.09,0,0,1,230,203.9Z"/><path class="cls-7" d="M178.4,190.65a11.9,11.9,0,0,0-5.6-10.35A28.82,28.82,0,0,0,163.14,201a9.48,9.48,0,0,0,4.83,1.34C173.73,202.33,178.4,197.1,178.4,190.65Z"/><path class="cls-15" d="M229.23,255.38h-65.5a4,4,0,0,1-4-4h0a4,4,0,0,1,4-4h65.5a4,4,0,0,1,4,4h0A4,4,0,0,1,229.23,255.38Z"/><path class="cls-13" d="M195.71,188.42c7.7,0,14.39-4.83,17.81-11.92a29.79,29.79,0,0,0-14.76-3.9h-6.1a29.91,29.91,0,0,0-14.76,3.88C181.31,183.59,188,188.42,195.71,188.42Z"/><path class="cls-18" d="M184.35,190h0a3.5,3.5,0,0,1-4.91-.51l-6.74-8.29a3.5,3.5,0,0,1,.51-4.91h0a3.5,3.5,0,0,1,4.91.51l6.74,8.28A3.51,3.51,0,0,1,184.35,190Z"/><path class="cls-11" d="M185.38,191.32a2.92,2.92,0,1,1-2.91-2.92A2.91,2.91,0,0,1,185.38,191.32Z"/><path class="cls-11" d="M144.69,268.74a7.63,7.63,0,0,1-7.59-7c-4-47.57,21.71-75.78,22.81-76.95a7.63,7.63,0,0,1,11.18,10.38c-.3.33-22.22,24.8-18.79,65.28a7.63,7.63,0,0,1-7,8.25Z"/><path class="cls-7" d="M163.33,199.11l-14.27-4.93c3.45-10.35,12.6-16.74,20.39-14.25s11.62,13.24,8.26,23.77Z"/><path class="cls-13" d="M251.66,103.73h0a2.73,2.73,0,0,1,2.73,2.73v13.27a2.73,2.73,0,0,1-2.73,2.73h0a2.74,2.74,0,0,1-2.73-2.73V106.46A2.74,2.74,0,0,1,251.66,103.73Z"/><path class="cls-15" d="M219.34,124.58H175.46a7.26,7.26,0,0,1-7.24-7.24h0a7.26,7.26,0,0,1,7.24-7.24h43.88a7.26,7.26,0,0,1,7.24,7.24h0A7.26,7.26,0,0,1,219.34,124.58Z"/><circle class="cls-15" cx="182.47" cy="106.96" r="9.26"/><circle class="cls-15" cx="196.39" cy="106.96" r="9.26"/><circle class="cls-15" cx="209.01" cy="106.96" r="9.26"/><circle class="cls-15" cx="169.77" cy="127.73" r="8.63"/><circle class="cls-15" cx="223.23" cy="127.73" r="8.63"/><rect class="cls-19" x="30.39" y="387.79" width="316.97" height="51.97"/><path class="cls-8" d="M297.71,489.42H79.64A49.81,49.81,0,0,1,30,439.76h0A49.81,49.81,0,0,1,79.64,390.1H297.71a49.81,49.81,0,0,1,49.66,49.66h0A49.81,49.81,0,0,1,297.71,489.42Z"/><rect class="cls-9" x="29.98" y="344.46" width="317.39" height="99.32" rx="49.66"/><polygon class="cls-18" points="313.37 380.86 315.41 389.92 280.18 397.61 278.13 388.55 313.37 380.86"/><polygon class="cls-20" points="290.07 380.45 294.55 400.26 290.73 401.1 286.25 381.28 290.07 380.45"/><polygon class="cls-21" points="125.45 426.64 144.07 427.33 289.59 395.56 287.54 386.49 142.02 418.26 125.45 426.64"/><path class="cls-22" d="M264.79,363.45c-11.29,0-20.94-3.48-24.93-8.4l.12-.17a7.86,7.86,0,0,1-1.82-4.85v7.78a7,7,0,0,0-.27,1.92c0,3.9,3.33,7.41,8.64,9.86a48.48,48.48,0,0,0,36.52,0c5.32-2.45,8.65-6,8.65-9.86a7.91,7.91,0,0,0-1.82-4.86C286,359.89,276.22,363.45,264.79,363.45Z"/><path class="cls-12" d="M289.92,350.5a7.91,7.91,0,0,1,1.82,4.86v-9.71A7.86,7.86,0,0,1,289.92,350.5Z"/><path class="cls-12" d="M264.79,359.07c-11.29,0-20.94-3.48-24.93-8.4l.12-.17a7.86,7.86,0,0,1-1.82-4.85v7.78a7,7,0,0,0-.27,1.92c0,3.9,3.33,7.41,8.64,9.86a48.48,48.48,0,0,0,36.52,0c5.32-2.45,8.65-6,8.65-9.86a7.91,7.91,0,0,0-1.82-4.86C286,355.51,276.22,359.07,264.79,359.07Z"/><path class="cls-11" d="M264.79,343.21a44.22,44.22,0,0,1,18.57,3.71h8.34c0-7.42-12.05-13.43-26.91-13.43s-26.9,6-26.9,13.43h8.33A44.22,44.22,0,0,1,264.79,343.21Z"/><path class="cls-11" d="M264.79,343.21a44.22,44.22,0,0,0-18.57,3.71h37.14A44.22,44.22,0,0,0,264.79,343.21Z"/><path class="cls-11" d="M246.22,346.92h-8.33a7.89,7.89,0,0,0,1.82,4.86A18,18,0,0,1,246.22,346.92Z"/><path class="cls-11" d="M289.88,351.78a7.89,7.89,0,0,0,1.82-4.86h-8.34A18.12,18.12,0,0,1,289.88,351.78Z"/><path class="cls-11" d="M283.36,346.92H246.22a18,18,0,0,0-6.51,4.86c3.9,5,13.65,8.57,25.08,8.57s21.19-3.55,25.09-8.57A18.12,18.12,0,0,0,283.36,346.92Z"/><ellipse class="cls-14" cx="264.79" cy="347.03" rx="22.83" ry="11.39"/><path class="cls-13" d="M276.91,354.81l-12.12-4.39-12.11,4.39,4.63-7.11-12.12-4.39h15l4.62-7.11,4.63,7.11h15l-12.11,4.39Zm-29-11.05,10.4,3.77-4,6.11,10.4-3.78,10.4,3.78-4-6.11,10.4-3.77H268.77l-4-6.1-4,6.1Z"/><path class="cls-13" d="M264.79,350.42l-7.48-2.72,2.86-4.39h9.25l2.86,4.39Zm-6.43-2.89,6.43,2.33,6.43-2.33-2.45-3.77h-7.95Z"/><rect class="cls-1" x="49.76" y="23.73" width="276.84" height="459.97"/><path class="cls-23" d="M314.28,430.24c-.52,1.86-3,2.82-5.63,2.13L119.57,382.5c-2.6-.68-4.28-2.75-3.76-4.61s3-2.82,5.63-2.13l189.08,49.87C313.12,426.31,314.8,428.37,314.28,430.24Z"/><path class="cls-1" d="M193.4,412.87c.82,3.46,3.83,6.5,7.86,7.94a11.73,11.73,0,0,0,10-.72c4.43-2.63,7.78-6.56,10.56-12.37.09-.19.17-.4.26-.61s.07-.43.09-.64c.61-6.38-.25-11.42-2.7-15.87a11.47,11.47,0,0,0-8.25-5.53c-4.22-.74-8.4.41-10.9,3-2.07,2.15-3.32,4.81-4.66,7.63-.61,1.3-1.24,2.63-2,3.94-.06,1.48-.2,2.94-.34,4.36C193,407.08,192.73,410,193.4,412.87Z"/><path class="cls-1" d="M230,412.67c-.72,2.5-1.41,4.85-.71,6.94,1.14,3.45,7,6.27,12.26,7.54,9.35,2.25,13.63-2.59,17.82-10.2.34-8.64-.86-14.92-10.09-17.57-5.22-1.5-11.73-1.94-14.5.48-1.68,1.46-2.31,3.83-3,6.34-.28,1.07-.58,2.16-1,3.22C230.58,410.52,230.27,411.61,230,412.67Z"/><path class="cls-24" d="M184.8,397.29c-.26.43-.53.85-.83,1.26-2.26,3.14-6.88,5.25-13,5.94-7.41.84-15.56-.55-21.28-3.61a54.56,54.56,0,0,1-5.58-3.59,59.37,59.37,0,0,0-7.82-4.85c-4.36-2.14-7.29-1.47-8.65-.88-4.45,1.93-4.17,7.52-2.38,15.32.08.33.14.61.19.82.38,1.84,2.66,3.33,5.08,3.33s4.08-1.5,3.7-3.34l-.2-.93c-1.13-4.92-1.22-7.35-1.05-8.54a56.14,56.14,0,0,1,5.63,3.62,66.56,66.56,0,0,0,6.7,4.27c7.77,4.17,18.61,6.07,28.28,5a35.9,35.9,0,0,0,10.53-2.7,49.5,49.5,0,0,1,.36-5.91A46.82,46.82,0,0,0,184.8,397.29Z"/><path class="cls-24" d="M259.17,419.92c.07-1,.13-2,.16-3-4.19,7.61-8.47,12.45-17.82,10.2-5.28-1.27-11.12-4.09-12.26-7.54-.7-2.09,0-4.44.71-6.94.31-1.06.62-2.15.84-3.25a14.69,14.69,0,0,1-.57,1.37,35,35,0,0,1-8.56,11.69c3.32,5.61,11.37,9.32,18.37,11,9.38,2.26,15.64.21,20.08-3.42a13.94,13.94,0,0,1-1.09-7.79C259.07,421.51,259.12,420.72,259.17,419.92Z"/><path class="cls-24" d="M269.1,417.51l1.14-2.18.1-.19.07-.21a8.86,8.86,0,0,1,7.19-5.35c6.54-.86,17,3.75,29.49,13,1.88,1.39,4.69,1.54,6.27.33a2.57,2.57,0,0,0,1-1.36,3.2,3.2,0,0,0-1.5-3.35c-15.37-11.37-28.17-16.48-38-15.18a17.44,17.44,0,0,0-8,3c1.63,4.43,1.59,9.18,1.37,13.27C268.5,418.67,268.81,418.08,269.1,417.51Z"/><path class="cls-24" d="M193.68,399.63c.72-1.31,1.35-2.64,2-3.94,1.34-2.82,2.59-5.48,4.66-7.63,2.5-2.58,6.68-3.73,10.9-3a11.47,11.47,0,0,1,8.25,5.53c2.45,4.45,3.31,9.49,2.7,15.87,0,.21-.06.42-.09.64a29,29,0,0,0,1-3.16c.79-3,1.68-6.33,4.6-8.87a11.78,11.78,0,0,1,2.06-1.42,28.72,28.72,0,0,0-2.1-4.76c-2.9-5.25-8.76-9.11-15.68-10.32-7.5-1.31-14.81.62-19.09,5.05a22.39,22.39,0,0,0-2.86,3.74,18.26,18.26,0,0,1,3.66,9A27.11,27.11,0,0,1,193.68,399.63Z"/><path class="cls-10" d="M265.44,436.57c7.85,6,21.54,7.86,40.71,5.59a3.33,3.33,0,0,0,3-2.15,2.51,2.51,0,0,0-.13-1.65c-.73-1.82-3.23-3.07-5.57-2.79-15.51,1.83-26.92.67-32.14-3.25a8.61,8.61,0,0,1-3.49-8.19l0-.21v-.22c0-.79.09-1.6.15-2.44q.06-1,.12-2c-1.93,3.64-4.36,7.76-8.06,10.78A16.71,16.71,0,0,0,265.44,436.57Z"/><path class="cls-10" d="M139,359.13l-.58.61c-5.59,5.86-8.73,10.54-5.89,14.39.87,1.18,3.05,3.2,7.93,3.49a59.17,59.17,0,0,0,9.26-.34,59.28,59.28,0,0,1,6.67-.36c6.53.17,14.29,3,20.25,7.35,4.93,3.61,7.83,7.7,8.15,11.52,0,.49.06,1,.06,1.5a47.13,47.13,0,0,0,2.4-4.65,52.11,52.11,0,0,1,2.76-5.27,34.67,34.67,0,0,0-7.69-7.52c-7.78-5.69-18.12-9.37-27-9.59a65.9,65.9,0,0,0-8,.39,56.05,56.05,0,0,1-6.74.36c.47-1.11,1.8-3.16,5.33-6.86.27-.28.5-.52.66-.7,1.29-1.4.63-3.51-1.46-4.7S140.24,357.72,139,359.13Z"/><path class="cls-10" d="M221.26,410.32a29.45,29.45,0,0,0,.8-3.21c-.09.21-.17.42-.26.61-2.78,5.81-6.13,9.74-10.56,12.37a11.73,11.73,0,0,1-10,.72c-4-1.44-7-4.48-7.86-7.94-.67-2.87-.38-5.79-.06-8.88.14-1.42.28-2.88.34-4.36a28.07,28.07,0,0,1-1.73,2.76,19,19,0,0,1-7.84,6,20.92,20.92,0,0,0,.54,4.63c1.39,5.92,6.7,11.19,13.86,13.74,6.6,2.36,13.66,1.91,18.89-1.2a30.5,30.5,0,0,0,4.27-3.08,11.36,11.36,0,0,1-1-2.24C219.43,416.62,220.4,413.27,221.26,410.32Z"/><path class="cls-10" d="M230.8,409.42c.38-1.06.68-2.15,1-3.22.67-2.51,1.3-4.88,3-6.34,2.77-2.42,9.28-2,14.5-.48,9.23,2.65,10.43,8.93,10.09,17.57.47-.85.94-1.74,1.41-2.65.37-.72.73-1.42,1.09-2.1a14.36,14.36,0,0,1,5-6.19c-1.95-5.31-6.29-10.16-15.56-12.82-6.92-2-15.79-2.74-21.56.47A34,34,0,0,1,231,408C231,408.45,230.89,408.93,230.8,409.42Z"/><path class="cls-24" d="M223,404a29,29,0,0,1-1,3.16,29.45,29.45,0,0,1-.8,3.21c-.86,2.95-1.83,6.3-.63,9.92a11.36,11.36,0,0,0,1,2.24,35,35,0,0,0,8.56-11.69,14.69,14.69,0,0,0,.57-1.37c.09-.49.17-1,.22-1.46a34,34,0,0,0-1.33-14.3,11.78,11.78,0,0,0-2.06,1.42C224.71,397.62,223.82,401,223,404Z"/><path class="cls-10" d="M260.74,414.3c-.47.91-.94,1.8-1.41,2.65,0,1-.09,1.95-.16,3-.05.8-.1,1.59-.14,2.35a13.94,13.94,0,0,0,1.09,7.79c3.7-3,6.13-7.14,8.06-10.78.22-4.09.26-8.84-1.37-13.27a14.36,14.36,0,0,0-5,6.19C261.47,412.88,261.11,413.58,260.74,414.3Z"/><path class="cls-24" d="M184.8,397.29a46.82,46.82,0,0,1-.33,5.19,49.5,49.5,0,0,0-.36,5.91,19,19,0,0,0,7.84-6,28.07,28.07,0,0,0,1.73-2.76,27.11,27.11,0,0,0-.06-3.24,18.26,18.26,0,0,0-3.66-9,52.11,52.11,0,0,0-2.76,5.27A47.13,47.13,0,0,1,184.8,397.29Z"/><path class="cls-18" d="M64.46,360.63c-.07.12-.12.24-.18.36A23.53,23.53,0,0,1,78,362.11c9.06,3.52,13.71,11.41,10.38,17.62-1.65,3.09-5,5.18-9,6.07a53.41,53.41,0,0,0,6,2.79c16.44,6.39,33.7,4.23,38.55-4.83s-4.54-21.57-21-28S69.31,351.58,64.46,360.63Z"/><path class="cls-13" d="M97.14,366.26l.23.07c7.3,2.84,11,9.2,8.36,14.2a8.32,8.32,0,0,1-1.65,2.1c6.53,1.82,12.85.69,14.77-2.9,2.15-4-2-9.55-9.29-12.37A20.56,20.56,0,0,0,97.14,366.26Z"/><path class="cls-11" d="M108.42,301.34l.41,18.87A18.11,18.11,0,0,0,124,337.89l.38,13.67-7.2,5.5s1.94,1.5,10.27,1.27h0c8.34-.23,10.29-1.86,10.29-1.86l-7.51-5-.38-13.76a18.12,18.12,0,0,0,14-18.24l-.42-18.88Z"/><path class="cls-12" d="M143.44,300.71c0,1.65-7.77,3.15-17.43,3.34s-17.52-1-17.55-2.64,7.77-3.15,17.43-3.34S143.41,299.05,143.44,300.71Z"/></g></g></g></svg>