<?xml version="1.0" encoding="utf-8"?>
<!-- Generator: Adobe Illustrator 25.2.3, SVG Export Plug-In . SVG Version: 6.00 Build 0)  -->
<svg version="1.1" id="Layer_1" xmlns="http://www.w3.org/2000/svg" xmlns:xlink="http://www.w3.org/1999/xlink" x="0px" y="0px"
	 viewBox="0 0 381.6 618.8" style="enable-background:new 0 0 381.6 618.8;" xml:space="preserve">
<style type="text/css">
	.st0{fill:#F5D8D3;}
	.st1{fill:#FDF7F6;}
	.st2{fill:#DE8171;}
	.st3{clip-path:url(#SVGID_2_);}
	.st4{fill:#DFDBF0;}
	.st5{fill:#FFFFFF;}
	.st6{fill:#E08A7B;}
	.st7{fill:#E29183;}
	.st8{fill:#F2CDC6;}
	.st9{fill:#F8E6E3;}
	.st10{fill:#EEEACB;}
	.st11{fill:#F8E5E1;}
	.st12{fill:#EFC1B9;}
	.st13{fill:#E39385;}
	.st14{fill:#DED69B;}
	.st15{fill:#E08778;}
	.st16{fill:#E7E1B5;}
	.st17{fill:none;}
	.st18{fill:#E7A296;}
</style>
<g id="Layer_2_1_">
	<g id="Layer_1-2">
		<path class="st0" d="M381.6,23.5v571.9c0,12.9-10.9,23.5-24.3,23.5H24.3C10.9,618.8,0,608.3,0,595.4V23.5C0,10.5,10.9,0,24.3,0
			h332.9C370.7,0,381.6,10.5,381.6,23.5z M361.1,581.8V37.1c0-9.7-7.9-17.5-17.6-17.6H38c-9.7,0-17.5,7.9-17.5,17.6v544.7
			c0,9.7,7.9,17.5,17.5,17.6h305.6C353.3,599.3,361.1,591.5,361.1,581.8z"/>
		<path class="st1" d="M38,19.5h305.6c9.7,0,17.6,7.9,17.6,17.6v544.7c0,9.7-7.9,17.6-17.6,17.6H38c-9.7,0-17.6-7.9-17.6-17.6V37.1
			C20.5,27.4,28.3,19.5,38,19.5z"/>
		<path class="st2" d="M58.4,539.2c-0.3-0.3-0.4-0.7-0.4-1.1V516H51c-0.4,0-0.8-0.1-1.1-0.3c-0.2-0.3-0.3-0.7-0.3-1.1v-1.1
			c0-0.4,0.1-0.8,0.3-1.1c0.3-0.3,0.7-0.4,1.1-0.4h19.3c0.4,0,0.8,0.1,1.1,0.3c0.2,0.3,0.4,0.7,0.3,1.1v1.1c0,0.4-0.1,0.8-0.3,1.1
			c-0.3,0.3-0.7,0.4-1.1,0.3h-7.1v22.1c0,0.4-0.1,0.8-0.3,1.1c-0.3,0.3-0.8,0.4-1.2,0.4h-2.1C59.2,539.6,58.8,539.4,58.4,539.2z"/>
		<path class="st2" d="M75.3,539.2c-0.3-0.3-0.4-0.7-0.3-1.1v-24.6c0-0.4,0.1-0.8,0.3-1.1c0.3-0.3,0.7-0.4,1.2-0.4h2.2
			c0.4,0,0.8,0.1,1.2,0.4c0.3,0.3,0.4,0.7,0.4,1.1v10.2h13.3v-10.2c0-0.4,0.1-0.8,0.4-1.1c0.3-0.3,0.8-0.4,1.2-0.4h2.1
			c0.4,0,0.8,0.1,1.2,0.4c0.3,0.3,0.4,0.7,0.4,1.1v24.6c0,0.4-0.1,0.8-0.3,1.1c-0.3,0.3-0.8,0.4-1.2,0.4H95c-0.4,0-0.8-0.1-1.2-0.4
			c-0.3-0.3-0.4-0.7-0.4-1.1v-10.5H80.2v10.5c0,0.4-0.1,0.8-0.3,1.1c-0.3,0.3-0.8,0.4-1.2,0.4h-2.2C76,539.6,75.6,539.5,75.3,539.2z
			"/>
		<path class="st2" d="M103.7,539.2c-0.2-0.3-0.4-0.7-0.3-1.1v-24.6c0-0.4,0.1-0.8,0.3-1.1c0.3-0.3,0.7-0.4,1.2-0.4h16.8
			c0.4,0,0.8,0.1,1.1,0.3c0.2,0.3,0.3,0.7,0.3,1.1v1.1c0,0.4-0.1,0.8-0.3,1.1c-0.3,0.3-0.7,0.4-1.1,0.3h-13.2v7.9h9.6
			c0.4,0,0.8,0.1,1.1,0.3c0.2,0.3,0.4,0.7,0.3,1.1v1c0,0.4-0.1,0.8-0.3,1.1c-0.3,0.3-0.7,0.4-1.1,0.3h-9.6v7.9h13.1
			c0.4,0,0.8,0.1,1.1,0.3c0.2,0.3,0.4,0.7,0.3,1.1v1.1c0,0.4-0.1,0.8-0.3,1c-0.3,0.3-0.7,0.4-1.1,0.3h-16.8
			C104.5,539.6,104.1,539.4,103.7,539.2z"/>
		<path class="st2" d="M142.9,539.2c-0.2-0.3-0.4-0.7-0.3-1.1v-24.6c-0.1-0.7,0.3-1.4,1-1.5c0.2,0,0.3,0,0.5,0h2.2
			c0.3,0,0.7,0,1,0.2c0.3,0.1,0.5,0.4,0.5,0.7l8.2,18.8l8.2-18.8c0.1-0.3,0.3-0.5,0.6-0.7c0.3-0.1,0.7-0.2,1-0.2h2.2
			c0.7-0.2,1.4,0.3,1.5,1c0,0.2,0,0.3,0,0.5v24.6c0.1,0.7-0.3,1.3-1,1.5c-0.2,0-0.3,0-0.5,0h-1.8c-0.4,0-0.8-0.1-1.2-0.4
			c-0.3-0.3-0.4-0.7-0.4-1.1v-17.5l-6.9,15.4c-0.2,0.3-0.4,0.7-0.6,0.9c-0.3,0.2-0.7,0.3-1.1,0.3c-0.4,0-0.8-0.1-1.1-0.3
			c-0.3-0.3-0.5-0.6-0.6-0.9l-6.9-15.4v17.5c0,0.4-0.1,0.8-0.4,1.1c-0.3,0.3-0.8,0.4-1.2,0.4H144
			C143.6,539.6,143.2,539.4,142.9,539.2z"/>
		<path class="st2" d="M172.4,538.9c0-0.2,0-0.4,0.1-0.5l10.7-25.4c0.1-0.3,0.3-0.6,0.5-0.8c0.2-0.2,0.5-0.2,0.8-0.2h2.2
			c0.3,0,0.6,0.1,0.8,0.2c0.2,0.2,0.4,0.5,0.5,0.8l10.7,25.4c0.1,0.2,0.1,0.3,0.1,0.5c0,0.4-0.2,0.6-0.7,0.6h-3.5
			c-0.3,0-0.5,0-0.8-0.1c-0.2-0.2-0.3-0.4-0.4-0.6l-2.3-5.7H180l-2.3,5.7c-0.1,0.2-0.2,0.4-0.4,0.6c-0.2,0.1-0.5,0.2-0.8,0.1H173
			C172.6,539.5,172.4,539.3,172.4,538.9z M189.9,529.4l-4.3-10.6l-4.3,10.6H189.9z"/>
		<path class="st2" d="M205.8,536.4c-2.5-2.5-3.8-6-3.8-10.7c0-4.6,1.3-8.2,3.8-10.6c2.5-2.5,6.1-3.7,10.6-3.8
			c1.7,0,3.5,0.2,5.1,0.6c1.4,0.3,2.8,0.8,4,1.6c0.2,0.1,0.3,0.3,0.4,0.5c0,0.2-0.1,0.3-0.2,0.5l-1.2,2c-0.2,0.2-0.3,0.4-0.5,0.4
			c-0.2,0-0.4-0.1-0.5-0.2c-2-1.1-4.3-1.6-6.6-1.5c-2.7-0.2-5.3,0.8-7.2,2.6c-1.8,1.7-2.6,4.4-2.6,7.9s0.9,6.2,2.6,7.9
			c1.9,1.8,4.4,2.7,7,2.6c1.1,0,2.1-0.1,3.2-0.3c0.9-0.1,1.7-0.4,2.5-0.8v-7.5h-5.4c-0.4,0-0.8-0.1-1.1-0.3
			c-0.2-0.3-0.4-0.7-0.3-1.1v-1c0-0.4,0.1-0.8,0.3-1.1c0.3-0.2,0.7-0.3,1.1-0.3h8.6c0.5,0,0.9,0.1,1.3,0.4c0.3,0.4,0.4,0.8,0.4,1.3
			v10.7c0,0.3,0,0.6-0.1,0.9c-0.1,0.2-0.3,0.4-0.5,0.5c-2.5,1.6-5.9,2.4-10.1,2.3C211.9,540.1,208.4,538.9,205.8,536.4z"/>
		<path class="st2" d="M231.6,539.2c-0.2-0.3-0.4-0.7-0.3-1.1v-24.6c0-0.4,0.1-0.8,0.3-1.1c0.3-0.3,0.7-0.4,1.2-0.4h2.1
			c0.4,0,0.8,0.1,1.2,0.4c0.3,0.3,0.4,0.7,0.4,1.1v24.6c0,0.4-0.1,0.8-0.3,1.1c-0.3,0.3-0.8,0.4-1.2,0.4h-2.1
			C232.3,539.6,231.9,539.5,231.6,539.2z"/>
		<path class="st2" d="M244.2,536.4c-2.5-2.5-3.8-6-3.8-10.7c0-4.6,1.2-8.2,3.7-10.7c2.5-2.5,6-3.7,10.6-3.7c1.7,0,3.4,0.2,5.1,0.6
			c1.4,0.3,2.8,0.9,4,1.6c0.2,0.1,0.3,0.3,0.4,0.5c0,0.2-0.1,0.4-0.2,0.6l-1.1,2c-0.2,0.2-0.3,0.4-0.4,0.4c-0.2,0-0.4-0.1-0.6-0.2
			c-2-1.1-4.2-1.6-6.5-1.5c-2.7-0.2-5.2,0.8-7.2,2.6c-1.7,1.8-2.6,4.4-2.6,7.9c0,3.6,0.9,6.2,2.7,8c2,1.8,4.6,2.7,7.2,2.6
			c2.4,0.1,4.8-0.4,6.9-1.6c0.2-0.1,0.3-0.2,0.5-0.2c0.2,0,0.3,0.1,0.5,0.4l1.2,2.1c0.1,0.1,0.1,0.3,0.1,0.4c0,0.2-0.1,0.3-0.4,0.5
			c-2.1,1.5-5.2,2.2-9.4,2.2C250.2,540.2,246.7,538.9,244.2,536.4z"/>
		<path class="st2" d="M269,539.2c-0.3-0.3-0.4-0.7-0.4-1.1v-24.6c0-0.4,0.1-0.8,0.4-1.1c0.3-0.3,0.7-0.4,1.1-0.4h2.1
			c0.4,0,0.8,0.1,1.2,0.4c0.3,0.3,0.4,0.7,0.4,1.1v24.6c0,0.4-0.1,0.8-0.4,1.1c-0.3,0.3-0.8,0.4-1.2,0.4h-2.1
			C269.7,539.6,269.3,539.5,269,539.2z"/>
		<path class="st2" d="M277.8,538.9c0-0.2,0-0.4,0.1-0.5l10.7-25.4c0.1-0.3,0.3-0.6,0.5-0.8c0.2-0.2,0.5-0.2,0.8-0.2h2.2
			c0.3,0,0.6,0.1,0.8,0.2c0.2,0.2,0.4,0.5,0.5,0.8l10.7,25.4c0.1,0.2,0.1,0.3,0.1,0.5c0,0.4-0.2,0.6-0.7,0.6h-3.5
			c-0.3,0-0.5,0-0.8-0.1c-0.2-0.2-0.3-0.4-0.4-0.6l-2.3-5.7h-11.2l-2.3,5.7c-0.1,0.2-0.2,0.4-0.4,0.6c-0.2,0.1-0.5,0.2-0.8,0.1h-3.5
			C278,539.5,277.8,539.3,277.8,538.9z M295.3,529.4l-4.3-10.6l-4.3,10.6H295.3z"/>
		<path class="st2" d="M308.6,539.2c-0.2-0.3-0.4-0.7-0.3-1.1v-24.6c-0.1-0.7,0.3-1.4,1-1.5c0.2,0,0.3,0,0.5,0h1.9
			c0.3,0,0.6,0,0.9,0.2c0.3,0.2,0.5,0.4,0.6,0.7l13.4,18.5v-17.9c0-0.4,0.1-0.8,0.3-1.1c0.3-0.3,0.7-0.4,1.2-0.4h2.1
			c0.4,0,0.8,0.1,1.2,0.4c0.3,0.3,0.4,0.7,0.4,1.1v24.6c0,0.4-0.1,0.8-0.3,1.1c-0.3,0.3-0.8,0.4-1.2,0.4h-1.9c-0.3,0-0.6,0-0.9-0.1
			c-0.3-0.2-0.5-0.4-0.6-0.6l-13.4-18.5v17.8c0,0.4-0.1,0.8-0.3,1.1c-0.3,0.3-0.8,0.4-1.2,0.4h-2.1
			C309.4,539.6,308.9,539.5,308.6,539.2z"/>
		<g>
			<defs>
				<path id="SVGID_1_" d="M107.7,71.5h166.1c34.2,0,61.9,27.7,61.9,61.9v269c0,34.2-27.7,61.9-61.9,61.9H107.7
					c-34.2,0-61.9-27.7-61.9-61.9v-269C45.8,99.2,73.6,71.5,107.7,71.5z"/>
			</defs>
			<clipPath id="SVGID_2_">
				<use xlink:href="#SVGID_1_"  style="overflow:visible;"/>
			</clipPath>
			<g class="st3">
				<rect x="32.4" y="31" class="st4" width="322.6" height="206.2"/>
				<path class="st5" d="M289.8,158.6h-33c-2.4,0-4.3-1.9-4.3-4.3v0c0-2.4,1.9-4.3,4.3-4.3h33c2.4,0,4.3,1.9,4.3,4.3v0
					C294.1,156.7,292.2,158.6,289.8,158.6z"/>
				<circle class="st5" cx="277.5" cy="148" r="10.6"/>
				<circle class="st5" cx="265.9" cy="151.1" r="7.5"/>
				<path class="st5" d="M138,179.9h-33c-2.4,0-4.3-1.9-4.3-4.3l0,0c0-2.3,1.9-4.2,4.3-4.3h33c2.3,0,4.2,1.9,4.3,4.3l0,0
					C142.3,178,140.4,179.9,138,179.9z"/>
				<circle class="st5" cx="117.3" cy="169.3" r="10.6"/>
				<path class="st5" d="M136.5,172.4c0,4.2-3.4,7.6-7.6,7.6c-4.2,0-7.5-3.4-7.5-7.6c0-4.2,3.4-7.6,7.5-7.6
					C133.1,164.8,136.5,168.2,136.5,172.4L136.5,172.4z"/>
				<path class="st5" d="M65.3,122.8h47.1c3.4,0,6.1,2.7,6.1,6.1v0c0,3.4-2.7,6.1-6.1,6.1H65.3c-3.4,0-6.1-2.7-6.1-6.1v0
					C59.2,125.5,61.9,122.8,65.3,122.8z"/>
				<circle class="st5" cx="82.8" cy="119.8" r="15.1"/>
				<circle class="st5" cx="99.5" cy="124.2" r="10.8"/>
				<path class="st5" d="M344.3,205h-54.5c-3.9,0-7-3.2-7-7v0c0-3.9,3.2-7,7-7h54.5c3.9,0,7,3.2,7,7v0
					C351.3,201.8,348.1,205,344.3,205z"/>
				<circle class="st5" cx="323.9" cy="187.5" r="17.5"/>
				<circle class="st5" cx="304.7" cy="192.5" r="12.5"/>
				<path class="st6" d="M24.7,212.7l24.7-12.8c7.3-3.8,15.7-4.7,23.6-2.5l37.6,10.4l35.8-15.3c8.2-3.5,17.4-4,26-1.4l62.8,19.3
					l49.2-14.3c9.5-2.8,19.5-2.4,28.8,1l50,18.5v67.8H24.7V212.7z"/>
				<path class="st7" d="M24.7,230.6l65.5-26.7c11.3-4.6,24-4.7,35.4-0.2l49.1,19.4l43.3-23.5c14-7.6,30.6-8.6,45.4-2.8l40.4,15.8
					c4.8,1.9,10.1,1.8,14.9-0.1l44.5-18.4v89.3H24.7V230.6z"/>
				<polygon class="st8" points="363.2,283.3 24.7,283.3 24.7,418.1 24.7,433.7 24.7,507.6 363,507.6 363,433.7 363.2,433.7 				"/>
				<circle class="st9" cx="171.5" cy="141.6" r="11"/>
				<path class="st10" d="M178.6,141.6c0,3.9-3.2,7.1-7.1,7.1c-3.9,0-7.1-3.2-7.1-7.1c0-3.9,3.2-7.1,7.1-7.1l0,0
					C175.4,134.5,178.6,137.6,178.6,141.6z"/>
				<circle class="st9" cx="218.8" cy="141.6" r="11"/>
				<circle class="st10" cx="218.8" cy="141.6" r="7.1"/>
				<path class="st11" d="M215.6,191.5c-4.2,0-7.6-3.5-7.6-7.7c0-4,3.1-7.2,7.1-7.5c1.5-0.1,33.9-3.2,33.9-55c0-4.2,3.4-7.6,7.6-7.6
					c4.2,0,7.6,3.4,7.6,7.6c0,0,0,0,0,0c0,34.2-12.7,51.5-23.4,59.9c-11.8,9.4-23.5,10.3-24.8,10.3L215.6,191.5z"/>
				<path class="st11" d="M225,356.6l-1-1.2c-0.6-0.7-1.4-1.1-2.2-1.3l-5.1-1.1c0-0.1,0-0.2,0-0.2v-37.2c0.1-3.9-2.9-7.2-6.8-7.3
					s-7.2,2.9-7.3,6.8c0,0.2,0,0.4,0,0.5v35.9c-1,0.8-1.7,2-1.7,3.4v4.6c0,2.3,1.9,4.2,4.2,4.2l0,0h16.9c2.3,0,4.2-1.9,4.2-4.3
					C226.1,358.4,225.7,357.4,225,356.6z"/>
				<path class="st12" d="M215.5,322.7h-12.7c-0.7,0-1.3-0.6-1.3-1.3l0,0c0-0.7,0.6-1.3,1.3-1.3h12.7c0.7,0,1.3,0.6,1.3,1.3l0,0
					C216.8,322.1,216.3,322.7,215.5,322.7z"/>
				<path class="st12" d="M202.4,321.8l0.3-0.3c0.6-0.4,1.4-0.3,1.9,0.3l11.6,15.3c0.4,0.6,0.3,1.4-0.3,1.9l-0.3,0.3
					c-0.6,0.4-1.4,0.3-1.9-0.3l-11.6-15.3C201.7,323.1,201.8,322.3,202.4,321.8z"/>
				<path class="st12" d="M202.1,337.2l11.8-15.5c0.4-0.5,1.1-0.6,1.7-0.2l0.3,0.2c0.5,0.4,0.6,1.1,0.2,1.7l-11.8,15.5
					c-0.4,0.5-1.1,0.6-1.7,0.2l-0.3-0.2C201.8,338.5,201.7,337.7,202.1,337.2z"/>
				<path class="st12" d="M202.4,337.1l0.3-0.3c0.6-0.4,1.4-0.3,1.9,0.3l11.6,15.3c0.4,0.6,0.3,1.4-0.3,1.9l-0.3,0.3
					c-0.6,0.4-1.4,0.3-1.9-0.3l-11.6-15.3C201.7,338.3,201.8,337.5,202.4,337.1z"/>
				<path class="st12" d="M202.4,350.5l11.5-15.4c0.4-0.6,1.3-0.7,1.9-0.3l0.3,0.3c0.6,0.4,0.7,1.3,0.3,1.9l-11.5,15.4
					c-0.4,0.6-1.3,0.7-1.9,0.3l-0.3-0.3C202.1,352,201.9,351.1,202.4,350.5z"/>
				<path class="st12" d="M221.8,363L221.8,363c-0.7,0-1.3-0.6-1.3-1.3v-6.5c0-0.7,0.6-1.3,1.3-1.3h0c0.7,0,1.3,0.6,1.3,1.3v6.5
					C223.1,362.4,222.5,363,221.8,363z"/>
				<path class="st12" d="M216.9,363L216.9,363c-0.7,0-1.3-0.6-1.3-1.3v-7.6c0-0.7,0.6-1.3,1.3-1.3h0c0.7,0,1.3,0.6,1.3,1.3v7.6
					C218.1,362.4,217.5,363,216.9,363z"/>
				<path class="st12" d="M215.5,355.4h-12c-0.8,0-1.4-0.6-1.4-1.4l0,0c0-0.8,0.6-1.4,1.4-1.4h12c0.8,0,1.4,0.6,1.4,1.4l0,0
					C216.8,354.8,216.2,355.4,215.5,355.4z"/>
				<path class="st12" d="M200.8,361.6h24.1c0.7,0,1.3,0.6,1.3,1.3v0c0,0.7-0.6,1.3-1.3,1.3h-24.1c-0.7,0-1.3-0.6-1.3-1.3v0
					C199.5,362.2,200.1,361.6,200.8,361.6z"/>
				<path class="st11" d="M187.7,351.5v-35.9c0.1-3.9-2.9-7.2-6.8-7.3s-7.2,2.9-7.3,6.8c0,0.2,0,0.4,0,0.5v37.2c0,0.1,0,0.1,0,0.2
					l-5.1,1.1c-0.9,0.2-1.6,0.6-2.2,1.3l-1.1,1.2c-1.6,1.7-1.4,4.4,0.3,6c0.8,0.7,1.8,1.1,2.8,1.1h16.9c2.3,0,4.2-1.9,4.2-4.2
					c0,0,0,0,0,0v-4.6C189.3,353.6,188.7,352.3,187.7,351.5z"/>
				<path class="st12" d="M174.5,320h12.7c0.7,0,1.3,0.6,1.3,1.3l0,0c0,0.7-0.6,1.3-1.3,1.3h-12.7c-0.7,0-1.3-0.6-1.3-1.3l0,0
					C173.1,320.6,173.7,320,174.5,320z"/>
				<path class="st12" d="M173.8,337.1l11.6-15.3c0.4-0.6,1.3-0.7,1.9-0.3l0.3,0.3c0.6,0.4,0.7,1.3,0.3,1.9l-11.6,15.3
					c-0.4,0.6-1.3,0.7-1.9,0.3L174,339C173.5,338.5,173.3,337.7,173.8,337.1z"/>
				<path class="st12" d="M174,321.8l0.3-0.3c0.6-0.4,1.4-0.3,1.9,0.3l11.6,15.3c0.4,0.6,0.3,1.4-0.3,1.9l-0.3,0.3
					c-0.6,0.4-1.4,0.3-1.9-0.3l-11.6-15.3C173.3,323.1,173.4,322.3,174,321.8z"/>
				<path class="st12" d="M173.8,352.4l11.6-15.3c0.4-0.6,1.3-0.7,1.9-0.3l0.3,0.3c0.6,0.4,0.7,1.3,0.3,1.9l-11.6,15.3
					c-0.4,0.6-1.3,0.7-1.9,0.3l-0.3-0.3C173.4,353.8,173.3,353,173.8,352.4z"/>
				<path class="st12" d="M174,337.1l0.3-0.3c0.6-0.4,1.4-0.3,1.9,0.3l11.6,15.3c0.4,0.6,0.3,1.4-0.3,1.9l-0.3,0.3
					c-0.6,0.4-1.4,0.3-1.9-0.3l-11.6-15.3C173.3,338.3,173.5,337.5,174,337.1z"/>
				<path class="st12" d="M168.2,353.4L168.2,353.4c0.7,0,1.3,0.6,1.3,1.3v6.5c0,0.7-0.6,1.3-1.3,1.3h0c-0.7,0-1.3-0.6-1.3-1.3v-6.5
					C166.9,353.9,167.5,353.4,168.2,353.4z"/>
				<path class="st12" d="M173.1,352.6L173.1,352.6c0.7,0,1.3,0.6,1.3,1.3v7.2c0,0.7-0.6,1.3-1.3,1.3h0c-0.7,0-1.3-0.6-1.3-1.3v-7.2
					C171.9,353.2,172.4,352.6,173.1,352.6z"/>
				<path class="st12" d="M174.5,352.6h12c0.8,0,1.4,0.6,1.4,1.4l0,0c0,0.8-0.6,1.4-1.4,1.4h-12c-0.8,0-1.4-0.6-1.4-1.4l0,0
					C173.1,353.2,173.8,352.6,174.5,352.6z"/>
				<path class="st12" d="M164.6,361.6h24.1c0.7,0,1.3,0.6,1.3,1.3v0c0,0.7-0.6,1.3-1.3,1.3h-24.1c-0.7,0-1.3-0.6-1.3-1.3v0
					C163.4,362.2,163.9,361.6,164.6,361.6z"/>
				<path class="st12" d="M188.5,364.1L188.5,364.1c-0.8,0-1.5-0.7-1.5-1.5V353c0-0.8,0.7-1.5,1.5-1.5h0c0.8,0,1.5,0.7,1.5,1.5v9.7
					C189.9,363.5,189.3,364.1,188.5,364.1z"/>
				<path class="st12" d="M200.8,351.4L200.8,351.4c0.8,0,1.5,0.7,1.5,1.5v9.8c0,0.8-0.7,1.5-1.5,1.5h0c-0.8,0-1.5-0.7-1.5-1.5v-9.8
					C199.3,352.1,200,351.4,200.8,351.4z"/>
				<path class="st11" d="M195.8,160.9L195.8,160.9c3,0,5.5,2.5,5.5,5.5v8.7c0,3-2.5,5.5-5.5,5.5h0c-3,0-5.5-2.5-5.5-5.5v-8.7
					C190.3,163.3,192.8,160.9,195.8,160.9z"/>
				<path class="st11" d="M194.7,170.9L194.7,170.9c12.7,0.6,23.5-9.2,24.2-21.9l1.1-23c0.6-12.7-9.2-23.5-21.9-24.2l0,0
					c-12.7-0.6-23.5,9.2-24.2,21.9l-1.1,22.9C172.1,159.4,181.9,170.2,194.7,170.9z"/>
				<path class="st13" d="M215.5,134.3L215.5,134.3c0-1.5-1.2-2.7-2.7-2.7h-10.1c-1.5,0-2.7,1.2-2.7,2.7l0,0c0,1.5,1.2,2.7,2.7,2.7
					h10.1C214.3,137,215.5,135.8,215.5,134.3z"/>
				<path class="st13" d="M193.1,134.3L193.1,134.3c0-1.5-1.2-2.7-2.7-2.7h-10.1c-1.5,0-2.7,1.2-2.7,2.7l0,0c0,1.5,1.2,2.7,2.7,2.7
					h10.1C191.9,137,193.1,135.8,193.1,134.3z"/>
				<path class="st12" d="M200.8,157.4c-0.4,0-0.8-0.2-1.1-0.6c-0.8-1-2.1-1.6-3.4-1.5c-1.7,0-3.4,0.6-4.8,1.7
					c-0.6,0.4-1.5,0.3-1.9-0.4c-0.4-0.6-0.3-1.4,0.3-1.9c1.9-1.4,4.1-2.2,6.4-2.2c2.2-0.1,4.2,0.9,5.6,2.6c0.4,0.6,0.3,1.5-0.3,1.9
					C201.4,157.3,201.1,157.4,200.8,157.4z"/>
				<path class="st13" d="M207.9,146.2L207.9,146.2c1.1,0,2.1-0.9,2.1-2.1v-3.6c0-1.1-0.9-2.1-2.1-2.1l0,0c-1.1,0-2.1,0.9-2.1,2.1
					v3.6C205.8,145.3,206.7,146.2,207.9,146.2z"/>
				<path class="st13" d="M184.9,146.2L184.9,146.2c-1.1,0-2.1-0.9-2.1-2.1v-3.5c0-1.1,0.9-2.1,2.1-2.1h0c1.1,0,2.1,0.9,2.1,2.1v3.5
					C187,145.3,186.1,146.2,184.9,146.2z"/>
				<path class="st0" d="M195.7,144c-2.2,0-4,1.8-4,4h8C199.7,145.8,197.9,144,195.7,144z"/>
				<path class="st0" d="M196.1,156.6c-1.2,0-2.1,0.5-2.1,1.1h4.2C198.2,157.1,197.2,156.6,196.1,156.6z"/>
				<path class="st5" d="M215.4,178.1c-0.8-0.5-1.6-1-2.4-1.5c-3.4,7-10,11.8-17.6,11.8s-14.2-4.8-17.6-11.8c-1.8,1-3.5,2.2-5,3.6
					l-0.1,0.1c3.6,2.2,5.7,6.2,5.6,10.4c0,6.4-4.7,11.7-10.4,11.7c-1.7,0-3.4-0.5-4.8-1.3c0,0.3,0,0.6,0,0.9v116.1h64.7V201.8
					C227.8,192.4,223.2,183.5,215.4,178.1z"/>
				<path class="st14" d="M230,332.4L230,332.4c-27.2,0-49.2-22-49.2-49.2v-97.5c0-7.1,5.8-12.9,12.9-12.9h5.2
					c17.2,0,31.1,13.9,31.1,31.1V332.4z"/>
				<path class="st5" d="M178.4,190.6c0.1-4.2-2-8.1-5.6-10.4c-5.9,5.3-9.4,12.8-9.7,20.7c1.5,0.9,3.1,1.3,4.8,1.3
					C173.7,202.3,178.4,197.1,178.4,190.6z"/>
				<path class="st13" d="M229.2,255.4h-65.5c-2.2,0-4-1.8-4-4l0,0c0-2.2,1.8-4,4-4h65.5c2.2,0,4,1.8,4,4l0,0
					C233.2,253.6,231.4,255.4,229.2,255.4z"/>
				<path class="st11" d="M195.7,188.4c7.7,0,14.4-4.8,17.8-11.9c-4.5-2.6-9.6-3.9-14.8-3.9h-6.1c-5.2,0-10.3,1.3-14.8,3.9
					C181.3,183.6,188,188.4,195.7,188.4z"/>
				<path class="st14" d="M184.4,190L184.4,190c-1.5,1.2-3.7,1-4.9-0.5l-6.7-8.3c-1.2-1.5-1-3.7,0.5-4.9l0,0c1.5-1.2,3.7-1,4.9,0.5
					l6.7,8.3C186.1,186.6,185.8,188.8,184.4,190z"/>
				<path class="st9" d="M185.4,191.3c0,1.6-1.3,2.9-2.9,2.9c-1.6,0-2.9-1.3-2.9-2.9c0-1.6,1.3-2.9,2.9-2.9c0,0,0,0,0,0
					C184.1,188.4,185.4,189.7,185.4,191.3C185.4,191.3,185.4,191.3,185.4,191.3z"/>
				<path class="st9" d="M144.7,268.7c-4,0-7.3-3-7.6-7c-4-47.6,21.7-75.8,22.8-76.9c2.9-3,7.8-3.1,10.8-0.1
					c2.9,2.8,3.1,7.5,0.4,10.5c-0.3,0.3-22.2,24.8-18.8,65.3c0.4,4.2-2.8,7.9-7,8.2c0,0,0,0,0,0L144.7,268.7z"/>
				<path class="st5" d="M163.3,199.1l-14.3-4.9c3.4-10.4,12.6-16.7,20.4-14.2s11.6,13.2,8.3,23.8L163.3,199.1z"/>
				<path class="st11" d="M251.7,103.7L251.7,103.7c1.5,0,2.7,1.2,2.7,2.7v13.3c0,1.5-1.2,2.7-2.7,2.7l0,0c-1.5,0-2.7-1.2-2.7-2.7
					v-13.3C248.9,105,250.2,103.7,251.7,103.7z"/>
				<path class="st13" d="M219.3,124.6h-43.9c-4,0-7.2-3.2-7.2-7.2l0,0c0-4,3.2-7.2,7.2-7.2h43.9c4,0,7.2,3.2,7.2,7.2l0,0
					C226.6,121.3,223.3,124.6,219.3,124.6z"/>
				<circle class="st13" cx="182.5" cy="107" r="9.3"/>
				<circle class="st13" cx="196.4" cy="107" r="9.3"/>
				<circle class="st13" cx="209" cy="107" r="9.3"/>
				<circle class="st13" cx="169.8" cy="127.7" r="8.6"/>
				<circle class="st13" cx="223.2" cy="127.7" r="8.6"/>
				<rect x="30.4" y="387.8" class="st15" width="317" height="52"/>
				<path class="st6" d="M297.7,489.4H79.6c-27.4-0.1-49.6-22.3-49.6-49.7l0,0c0.1-27.4,22.3-49.6,49.6-49.7h218.1
					c27.4,0.1,49.6,22.3,49.7,49.7l0,0C347.3,467.2,325.1,489.3,297.7,489.4z"/>
				<path class="st7" d="M79.6,344.5h218.1c27.4,0,49.7,22.2,49.7,49.7l0,0c0,27.4-22.2,49.7-49.7,49.7H79.6
					c-27.4,0-49.7-22.2-49.7-49.7l0,0C30,366.7,52.2,344.5,79.6,344.5z"/>
				<polygon class="st14" points="313.4,380.9 315.4,389.9 280.2,397.6 278.1,388.5 				"/>
				<polygon class="st16" points="290.1,380.5 294.5,400.3 290.7,401.1 286.2,381.3 				"/>
				<polygon class="st1" points="125.4,426.6 144.1,427.3 289.6,395.6 287.5,386.5 142,418.3 				"/>
				<path class="st15" d="M264.8,363.5c-11.3,0-20.9-3.5-24.9-8.4l0.1-0.2c-1.1-1.4-1.8-3.1-1.8-4.9v7.8c-0.2,0.6-0.3,1.3-0.3,1.9
					c0,3.9,3.3,7.4,8.6,9.9c11.7,4.8,24.8,4.8,36.5,0c5.3-2.5,8.6-6,8.6-9.9c0-1.8-0.7-3.5-1.8-4.9
					C286,359.9,276.2,363.5,264.8,363.5z"/>
				<path class="st10" d="M289.9,350.5c1.1,1.4,1.8,3.1,1.8,4.9v-9.7C291.7,347.4,291.1,349.1,289.9,350.5z"/>
				<path class="st10" d="M264.8,359.1c-11.3,0-20.9-3.5-24.9-8.4l0.1-0.2c-1.1-1.4-1.8-3.1-1.8-4.9v7.8c-0.2,0.6-0.3,1.3-0.3,1.9
					c0,3.9,3.3,7.4,8.6,9.9c11.7,4.8,24.8,4.8,36.5,0c5.3-2.5,8.6-6,8.6-9.9c0-1.8-0.7-3.5-1.8-4.9
					C286,355.5,276.2,359.1,264.8,359.1z"/>
				<path class="st9" d="M264.8,343.2c6.4-0.1,12.7,1.1,18.6,3.7h8.3c0-7.4-12-13.4-26.9-13.4s-26.9,6-26.9,13.4h8.3
					C252.1,344.4,258.4,343.1,264.8,343.2z"/>
				<path class="st9" d="M264.8,343.2c-6.4-0.1-12.7,1.1-18.6,3.7h37.1C277.5,344.4,271.2,343.1,264.8,343.2z"/>
				<path class="st9" d="M246.2,346.9h-8.3c0,1.8,0.7,3.5,1.8,4.9C241.5,349.7,243.7,348,246.2,346.9z"/>
				<path class="st9" d="M289.9,351.8c1.1-1.4,1.8-3.1,1.8-4.9h-8.3C285.9,348,288.1,349.7,289.9,351.8z"/>
				<path class="st9" d="M283.4,346.9h-37.1c-2.5,1.1-4.7,2.8-6.5,4.9c3.9,5,13.6,8.6,25.1,8.6c11.4,0,21.2-3.5,25.1-8.6
					C288.1,349.7,285.9,348,283.4,346.9z"/>
				<ellipse class="st12" cx="264.8" cy="347" rx="22.8" ry="11.4"/>
				<path class="st11" d="M276.9,354.8l-12.1-4.4l-12.1,4.4l4.6-7.1l-12.1-4.4h15l4.6-7.1l4.6,7.1h15l-12.1,4.4L276.9,354.8z
					 M247.9,343.8l10.4,3.8l-4,6.1l10.4-3.8l10.4,3.8l-4-6.1l10.4-3.8h-12.7l-4-6.1l-4,6.1H247.9z"/>
				<path class="st11" d="M264.8,350.4l-7.5-2.7l2.9-4.4h9.2l2.9,4.4L264.8,350.4z M258.4,347.5l6.4,2.3l6.4-2.3l-2.5-3.8h-8
					L258.4,347.5z"/>
				<rect x="49.8" y="23.7" class="st17" width="276.8" height="460"/>
				<path class="st18" d="M314.3,430.2c-0.5,1.9-3,2.8-5.6,2.1l-189.1-49.9c-2.6-0.7-4.3-2.8-3.8-4.6s3-2.8,5.6-2.1l189.1,49.9
					C313.1,426.3,314.8,428.4,314.3,430.2z"/>
				<path class="st17" d="M193.4,412.9c0.8,3.5,3.8,6.5,7.9,7.9c3.3,1.3,6.9,1,10-0.7c4.4-2.6,7.8-6.6,10.6-12.4
					c0.1-0.2,0.2-0.4,0.3-0.6s0.1-0.4,0.1-0.6c0.6-6.4-0.2-11.4-2.7-15.9c-1.8-3-4.8-5-8.2-5.5c-4.2-0.7-8.4,0.4-10.9,3
					c-2.1,2.1-3.3,4.8-4.7,7.6c-0.6,1.3-1.2,2.6-2,3.9c-0.1,1.5-0.2,2.9-0.3,4.4C193,407.1,192.7,410,193.4,412.9z"/>
				<path class="st17" d="M230,412.7c-0.7,2.5-1.4,4.9-0.7,6.9c1.1,3.5,7,6.3,12.3,7.5c9.4,2.2,13.6-2.6,17.8-10.2
					c0.3-8.6-0.9-14.9-10.1-17.6c-5.2-1.5-11.7-1.9-14.5,0.5c-1.7,1.5-2.3,3.8-3,6.3c-0.3,1.1-0.6,2.2-1,3.2
					C230.6,410.5,230.3,411.6,230,412.7z"/>
				<path class="st12" d="M184.8,397.3c-0.3,0.4-0.5,0.9-0.8,1.3c-2.3,3.1-6.9,5.2-13,5.9c-7.4,0.8-15.6-0.5-21.3-3.6
					c-1.9-1.1-3.8-2.3-5.6-3.6c-2.5-1.8-5.1-3.4-7.8-4.9c-4.4-2.1-7.3-1.5-8.7-0.9c-4.4,1.9-4.2,7.5-2.4,15.3
					c0.1,0.3,0.1,0.6,0.2,0.8c0.4,1.8,2.7,3.3,5.1,3.3s4.1-1.5,3.7-3.3l-0.2-0.9c-1.1-4.9-1.2-7.4-1.1-8.5c1.9,1.1,3.8,2.3,5.6,3.6
					c2.1,1.6,4.4,3,6.7,4.3c7.8,4.2,18.6,6.1,28.3,5c3.6-0.4,7.2-1.3,10.5-2.7c0-2,0.1-3.9,0.4-5.9
					C184.7,400.8,184.8,399,184.8,397.3z"/>
				<path class="st12" d="M259.2,419.9c0.1-1,0.1-2,0.2-3c-4.2,7.6-8.5,12.5-17.8,10.2c-5.3-1.3-11.1-4.1-12.3-7.5
					c-0.7-2.1,0-4.4,0.7-6.9c0.3-1.1,0.6-2.1,0.8-3.2c-0.2,0.5-0.4,0.9-0.6,1.4c-2,4.5-4.9,8.4-8.6,11.7c3.3,5.6,11.4,9.3,18.4,11
					c9.4,2.3,15.6,0.2,20.1-3.4c-1.1-2.4-1.5-5.1-1.1-7.8C259.1,421.5,259.1,420.7,259.2,419.9z"/>
				<path class="st12" d="M269.1,417.5l1.1-2.2l0.1-0.2l0.1-0.2c1.3-3,4-5,7.2-5.4c6.5-0.9,17,3.8,29.5,13c1.9,1.4,4.7,1.5,6.3,0.3
					c0.5-0.3,0.8-0.8,1-1.4c0.3-1.3-0.3-2.7-1.5-3.4c-15.4-11.4-28.2-16.5-38-15.2c-2.9,0.3-5.6,1.4-8,3c1.6,4.4,1.6,9.2,1.4,13.3
					C268.5,418.7,268.8,418.1,269.1,417.5z"/>
				<path class="st12" d="M193.7,399.6c0.7-1.3,1.4-2.6,2-3.9c1.3-2.8,2.6-5.5,4.7-7.6c2.5-2.6,6.7-3.7,10.9-3
					c3.4,0.5,6.5,2.5,8.2,5.5c2.4,4.5,3.3,9.5,2.7,15.9c0,0.2-0.1,0.4-0.1,0.6c0.4-1,0.7-2.1,1-3.2c0.8-3,1.7-6.3,4.6-8.9
					c0.6-0.5,1.3-1,2.1-1.4c-0.6-1.6-1.3-3.2-2.1-4.8c-2.9-5.2-8.8-9.1-15.7-10.3c-7.5-1.3-14.8,0.6-19.1,5c-1.1,1.1-2,2.4-2.9,3.7
					c2,2.6,3.3,5.7,3.7,9C193.8,397.4,193.7,398.5,193.7,399.6z"/>
				<path class="st8" d="M265.4,436.6c7.9,6,21.5,7.9,40.7,5.6c1.3,0,2.5-0.9,3-2.1c0.1-0.5,0.1-1.1-0.1-1.6
					c-0.7-1.8-3.2-3.1-5.6-2.8c-15.5,1.8-26.9,0.7-32.1-3.2c-2.6-1.9-3.9-5-3.5-8.2v-0.2v-0.2c0-0.8,0.1-1.6,0.1-2.4
					c0-0.7,0.1-1.3,0.1-2c-1.9,3.6-4.4,7.8-8.1,10.8C261.2,432.6,263.1,434.9,265.4,436.6z"/>
				<path class="st8" d="M139,359.1l-0.6,0.6c-5.6,5.9-8.7,10.5-5.9,14.4c0.9,1.2,3.1,3.2,7.9,3.5c3.1,0.1,6.2,0,9.3-0.3
					c2.2-0.2,4.4-0.4,6.7-0.4c6.5,0.2,14.3,3,20.2,7.4c4.9,3.6,7.8,7.7,8.1,11.5c0,0.5,0.1,1,0.1,1.5c0.9-1.5,1.7-3.1,2.4-4.6
					c0.8-1.8,1.7-3.6,2.8-5.3c-2.2-2.9-4.8-5.4-7.7-7.5c-7.8-5.7-18.1-9.4-27-9.6c-2.7,0-5.3,0.1-8,0.4c-2.2,0.3-4.5,0.4-6.7,0.4
					c0.5-1.1,1.8-3.2,5.3-6.9c0.3-0.3,0.5-0.5,0.7-0.7c1.3-1.4,0.6-3.5-1.5-4.7S140.2,357.7,139,359.1z"/>
				<path class="st8" d="M221.3,410.3c0.3-1.1,0.6-2.1,0.8-3.2c-0.1,0.2-0.2,0.4-0.3,0.6c-2.8,5.8-6.1,9.7-10.6,12.4
					c-3.1,1.7-6.7,2-10,0.7c-4-1.4-7-4.5-7.9-7.9c-0.7-2.9-0.4-5.8-0.1-8.9c0.1-1.4,0.3-2.9,0.3-4.4c-0.5,1-1.1,1.9-1.7,2.8
					c-2,2.7-4.7,4.7-7.8,6c0,1.6,0.2,3.1,0.5,4.6c1.4,5.9,6.7,11.2,13.9,13.7c6.6,2.4,13.7,1.9,18.9-1.2c1.5-0.9,2.9-1.9,4.3-3.1
					c-0.4-0.7-0.7-1.5-1-2.2C219.4,416.6,220.4,413.3,221.3,410.3z"/>
				<path class="st8" d="M230.8,409.4c0.4-1.1,0.7-2.1,1-3.2c0.7-2.5,1.3-4.9,3-6.3c2.8-2.4,9.3-2,14.5-0.5
					c9.2,2.6,10.4,8.9,10.1,17.6c0.5-0.9,0.9-1.7,1.4-2.6c0.4-0.7,0.7-1.4,1.1-2.1c1.1-2.5,2.8-4.6,5-6.2c-2-5.3-6.3-10.2-15.6-12.8
					c-6.9-2-15.8-2.7-21.6,0.5c1.4,4.6,1.8,9.5,1.2,14.3C231,408.5,230.9,408.9,230.8,409.4z"/>
				<path class="st12" d="M223,404c-0.3,1.1-0.6,2.1-1,3.2c-0.2,1.1-0.5,2.2-0.8,3.2c-0.9,3-1.8,6.3-0.6,9.9c0.3,0.8,0.6,1.5,1,2.2
					c3.6-3.3,6.6-7.2,8.6-11.7c0.2-0.4,0.4-0.9,0.6-1.4c0.1-0.5,0.2-1,0.2-1.5c0.6-4.8,0.1-9.7-1.3-14.3c-0.7,0.4-1.4,0.9-2.1,1.4
					C224.7,397.6,223.8,401,223,404z"/>
				<path class="st8" d="M260.7,414.3c-0.5,0.9-0.9,1.8-1.4,2.6c0,1-0.1,2-0.2,3c0,0.8-0.1,1.6-0.1,2.4c-0.4,2.6,0,5.4,1.1,7.8
					c3.7-3,6.1-7.1,8.1-10.8c0.2-4.1,0.3-8.8-1.4-13.3c-2.2,1.6-3.9,3.7-5,6.2C261.5,412.9,261.1,413.6,260.7,414.3z"/>
				<path class="st12" d="M184.8,397.3c0,1.7-0.1,3.5-0.3,5.2c-0.2,2-0.4,3.9-0.4,5.9c3.1-1.3,5.8-3.3,7.8-6
					c0.6-0.9,1.2-1.8,1.7-2.8c0-1.1,0-2.2-0.1-3.2c-0.4-3.3-1.6-6.4-3.7-9c-1,1.7-1.9,3.5-2.8,5.3
					C186.5,394.2,185.7,395.8,184.8,397.3z"/>
				<path class="st14" d="M64.5,360.6c-0.1,0.1-0.1,0.2-0.2,0.4c4.6-1,9.4-0.6,13.7,1.1c9.1,3.5,13.7,11.4,10.4,17.6
					c-1.7,3.1-5,5.2-9,6.1c1.9,1.1,3.9,2,6,2.8c16.4,6.4,33.7,4.2,38.5-4.8s-4.5-21.6-21-28S69.3,351.6,64.5,360.6z"/>
				<path class="st11" d="M97.1,366.3l0.2,0.1c7.3,2.8,11,9.2,8.4,14.2c-0.4,0.8-1,1.5-1.7,2.1c6.5,1.8,12.8,0.7,14.8-2.9
					c2.2-4-2-9.5-9.3-12.4C105.6,365.7,101.3,365.3,97.1,366.3z"/>
				<path class="st9" d="M108.4,301.3l0.4,18.9c0.1,8.8,6.5,16.3,15.2,17.7l0.4,13.7l-7.2,5.5c0,0,1.9,1.5,10.3,1.3l0,0
					c8.3-0.2,10.3-1.9,10.3-1.9l-7.5-5l-0.4-13.8c8.4-2,14.3-9.6,14-18.2l-0.4-18.9L108.4,301.3z"/>
				<path class="st10" d="M143.4,300.7c0,1.6-7.8,3.1-17.4,3.3s-17.5-1-17.5-2.6s7.8-3.1,17.4-3.3S143.4,299,143.4,300.7z"/>
			</g>
		</g>
	</g>
</g>
</svg>
