<?xml version="1.0" encoding="utf-8"?>
<!-- Generator: Adobe Illustrator 25.2.3, SVG Export Plug-In . SVG Version: 6.00 Build 0)  -->
<svg version="1.1" id="Layer_1" xmlns="http://www.w3.org/2000/svg" xmlns:xlink="http://www.w3.org/1999/xlink" x="0px" y="0px"
	 viewBox="0 0 381.8 619.1" style="enable-background:new 0 0 381.8 619.1;" xml:space="preserve">
<style type="text/css">
	.st0{fill:#DE8171;}
	.st1{fill:#F5D8D3;}
	.st2{fill:#FDF7F6;}
	.st3{clip-path:url(#SVGID_2_);}
	.st4{fill:#EBE6C2;}
	.st5{fill:#DED69B;}
	.st6{fill:#E59B8F;}
	.st7{fill:#EAADA3;}
	.st8{fill:#E6A195;}
	.st9{clip-path:url(#SVGID_4_);}
	.st10{fill:#F1EED5;}
	.st11{fill:#F5D9D4;}
	.st12{fill:#F9F7EC;}
	.st13{fill:#F6F4E3;}
	.st14{fill:#FFFFFF;}
	.st15{fill:#E9E4BC;}
	.st16{fill:#F2CDC6;}
	.st17{fill:#DCD7EE;}
	.st18{fill:#FBF1EF;}
	.st19{fill:#F5F3E1;}
	.st20{clip-path:url(#SVGID_6_);}
	.st21{fill:#E9A99E;}
	.st22{fill:#F5DAD6;}
	.st23{fill:#E39385;}
	.st24{fill:#E18B7C;}
	.st25{fill:#F8E6E3;}
	.st26{fill:#F8E5E1;}
	.st27{fill:#E29082;}
	.st28{fill:#BBB3DF;}
	.st29{fill:#EAF5F4;}
	.st30{fill:#D1CBE9;}
	.st31{fill:#E7E1B6;}
</style>
<g id="Layer_2_1_">
	<g id="Layer_1-2">
		<path class="st0" d="M294.6,465.6H87.2c-22.5,0-40.7-18.3-40.8-40.8V111.1c0-22.5,18.3-40.7,40.8-40.8h207.4
			c22.5,0,40.7,18.3,40.8,40.8v313.8C335.3,447.4,317.1,465.6,294.6,465.6z M87.2,72.8c-21.1,0-38.3,17.2-38.3,38.3v313.8
			c0,21.1,17.2,38.3,38.3,38.3h207.4c21.1,0,38.3-17.2,38.3-38.3V111.1c0-21.1-17.2-38.3-38.3-38.3H87.2z"/>
		<path class="st1" d="M381.8,23.5v572.2c0,12.9-10.9,23.5-24.4,23.5h-333C10.9,619.1,0,608.6,0,595.7V23.5C0,10.5,10.9,0,24.4,0
			h333C370.8,0,381.8,10.5,381.8,23.5z M361.3,582.1v-545c0-9.7-7.9-17.6-17.6-17.6H38c-9.7,0-17.5,7.9-17.5,17.6v545
			c0,9.7,7.9,17.5,17.5,17.5h305.7C353.4,599.6,361.3,591.8,361.3,582.1z"/>
		<path class="st2" d="M38,19.5h305.7c9.7,0,17.6,7.9,17.6,17.6v545c0,9.7-7.9,17.6-17.6,17.6H38c-9.7,0-17.6-7.9-17.6-17.6v-545
			C20.5,27.4,28.3,19.5,38,19.5z"/>
		<path class="st0" d="M40,542.1c-0.2-0.2-0.3-0.5-0.3-0.9v-17.4h-5.5c-0.3,0-0.6-0.1-0.9-0.2c-0.2-0.2-0.3-0.6-0.2-0.9v-0.9
			c0-0.3,0.1-0.6,0.2-0.9c0.2-0.2,0.6-0.3,0.9-0.3h15.2c0.3,0,0.6,0.1,0.9,0.3c0.2,0.2,0.3,0.6,0.3,0.9v0.9c0,0.3-0.1,0.6-0.3,0.9
			c-0.3,0.2-0.6,0.3-0.9,0.2h-5.6v17.4c0,0.3-0.1,0.6-0.3,0.9c-0.3,0.2-0.6,0.3-0.9,0.3H41C40.6,542.4,40.3,542.3,40,542.1z"/>
		<path class="st0" d="M53.3,542.1c-0.2-0.2-0.3-0.5-0.3-0.9v-19.4c0-0.3,0.1-0.6,0.3-0.9c0.2-0.2,0.6-0.3,0.9-0.3h1.7
			c0.3,0,0.7,0.1,0.9,0.3s0.3,0.6,0.3,0.9v8h10.5v-8c0-0.3,0.1-0.7,0.3-0.9c0.3-0.2,0.6-0.3,0.9-0.3h1.7c0.3,0,0.7,0.1,0.9,0.3
			c0.2,0.2,0.3,0.6,0.3,0.9v19.4c0,0.3-0.1,0.6-0.3,0.9c-0.3,0.2-0.6,0.3-0.9,0.3h-1.7c-0.3,0-0.7-0.1-0.9-0.3
			c-0.2-0.2-0.3-0.5-0.3-0.9V533H57.1v8.2c0,0.3-0.1,0.6-0.3,0.9c-0.3,0.2-0.6,0.3-1,0.3h-1.6C53.9,542.4,53.6,542.3,53.3,542.1z"/>
		<path class="st0" d="M75.7,542.1c-0.2-0.2-0.3-0.5-0.3-0.9v-19.4c0-0.3,0.1-0.6,0.3-0.9c0.3-0.2,0.6-0.3,0.9-0.3h13.3
			c0.3,0,0.6,0.1,0.9,0.2c0.2,0.2,0.3,0.6,0.2,0.9v0.9c0,0.3-0.1,0.6-0.2,0.9c-0.2,0.2-0.6,0.3-0.9,0.3H79.5v6.2H87
			c0.3,0,0.6,0.1,0.9,0.3c0.2,0.2,0.3,0.6,0.2,0.9v0.8c0,0.3-0.1,0.6-0.2,0.9c-0.3,0.2-0.6,0.3-0.9,0.3h-7.5v6.2h10.3
			c0.3,0,0.6,0.1,0.9,0.3c0.2,0.2,0.3,0.6,0.3,0.9v0.9c0,0.3-0.1,0.6-0.3,0.8c-0.3,0.2-0.6,0.3-0.9,0.3H76.6
			C76.3,542.4,76,542.3,75.7,542.1z"/>
		<path class="st0" d="M106.5,542.1c-0.2-0.2-0.3-0.5-0.3-0.9v-19.4c0-0.3,0.1-0.6,0.3-0.9c0.3-0.2,0.6-0.3,0.9-0.3h1.7
			c0.3,0,0.7,0.1,0.9,0.3c0.2,0.2,0.3,0.6,0.3,0.9v8h10.5v-8c0-0.3,0.1-0.6,0.3-0.9c0.3-0.2,0.6-0.3,0.9-0.3h1.7
			c0.3,0,0.7,0.1,0.9,0.3c0.2,0.2,0.3,0.6,0.3,0.9v19.4c0,0.3-0.1,0.6-0.3,0.9c-0.3,0.2-0.6,0.3-0.9,0.3H122c-0.3,0-0.7-0.1-0.9-0.3
			c-0.2-0.2-0.3-0.5-0.3-0.9V533h-10.5v8.2c0,0.3-0.1,0.6-0.3,0.9c-0.3,0.2-0.6,0.3-0.9,0.3h-1.7
			C107.1,542.4,106.8,542.3,106.5,542.1z"/>
		<path class="st0" d="M128.9,542.1c-0.2-0.2-0.3-0.5-0.3-0.9v-19.4c0-0.3,0.1-0.6,0.3-0.9c0.3-0.2,0.6-0.3,0.9-0.3h1.7
			c0.3,0,0.7,0.1,0.9,0.3s0.3,0.6,0.3,0.9v19.4c0,0.3-0.1,0.6-0.3,0.9c-0.3,0.2-0.6,0.3-0.9,0.3h-1.7
			C129.5,542.4,129.2,542.3,128.9,542.1z"/>
		<path class="st0" d="M138.8,539.9c-2-1.9-3-4.7-3-8.4c0-3.6,1-6.4,3-8.4s4.8-3,8.4-3c1.4,0,2.7,0.1,4.1,0.4
			c1.1,0.2,2.2,0.7,3.1,1.3c0.2,0.1,0.3,0.2,0.3,0.4c0,0.1-0.1,0.3-0.1,0.4l-0.9,1.6c-0.1,0.2-0.2,0.3-0.4,0.3
			c-0.1,0-0.3-0.1-0.4-0.2c-1.6-0.8-3.4-1.3-5.2-1.2c-2.1-0.1-4.2,0.6-5.7,2.1c-1.4,1.4-2.1,3.5-2.1,6.2c0,2.8,0.7,4.9,2,6.3
			c1.5,1.4,3.5,2.1,5.5,2c0.8,0,1.7-0.1,2.5-0.2c0.7-0.1,1.4-0.3,2-0.6V533h-4.2c-0.3,0-0.6-0.1-0.9-0.3c-0.2-0.3-0.3-0.6-0.2-0.9
			V531c0-0.3,0.1-0.6,0.2-0.8c0.3-0.2,0.6-0.3,0.9-0.2h6.7c0.4,0,0.7,0.1,1,0.3c0.2,0.3,0.3,0.6,0.3,1v8.4c0,0.2,0,0.5-0.1,0.7
			s-0.2,0.3-0.4,0.4c-2.4,1.4-5.2,2-8,1.8C143.6,542.8,140.8,541.9,138.8,539.9z"/>
		<path class="st0" d="M159.1,542.1c-0.2-0.2-0.3-0.5-0.3-0.9v-19.4c0-0.3,0.1-0.6,0.3-0.9c0.3-0.2,0.6-0.3,0.9-0.3h1.7
			c0.3,0,0.7,0.1,0.9,0.3s0.3,0.6,0.3,0.9v8h10.5v-8c0-0.3,0.1-0.7,0.3-0.9c0.3-0.2,0.6-0.3,0.9-0.3h1.7c0.3,0,0.7,0.1,0.9,0.3
			c0.2,0.3,0.3,0.6,0.3,0.9v19.4c0,0.3-0.1,0.6-0.3,0.9c-0.3,0.2-0.6,0.3-0.9,0.3h-1.7c-0.3,0-0.7-0.1-0.9-0.3s-0.3-0.5-0.3-0.9V533
			h-10.5v8.2c0,0.3-0.1,0.6-0.3,0.9c-0.3,0.2-0.6,0.3-1,0.3H160C159.7,542.4,159.3,542.3,159.1,542.1z"/>
		<path class="st0" d="M193.9,542.1c-0.2-0.2-0.3-0.5-0.3-0.9v-19.4c0-0.3,0.1-0.6,0.3-0.9c0.3-0.2,0.6-0.3,0.9-0.3h8.1
			c2.6,0,4.6,0.6,5.8,1.9c1.3,1.4,2,3.4,1.9,5.3c0.1,2-0.6,3.9-1.9,5.3c-1.3,1.2-3.2,1.8-5.8,1.8h-5.3v6.2c0,0.3-0.1,0.6-0.3,0.9
			c-0.3,0.2-0.6,0.3-0.9,0.3h-1.7C194.5,542.4,194.2,542.3,193.9,542.1z M202.8,531.9c1.1,0.1,2.1-0.3,2.9-1c0.7-0.8,1.1-1.9,1-3
			c0.1-1.1-0.3-2.2-1-3.1c-0.8-0.7-1.8-1.1-2.9-1h-5.1v8.1H202.8z"/>
		<path class="st0" d="M213.5,542.1c-0.2-0.2-0.3-0.5-0.3-0.9v-19.4c0-0.3,0.1-0.6,0.3-0.9c0.3-0.2,0.6-0.3,0.9-0.3h8.3
			c2-0.1,4,0.5,5.6,1.7c1.4,1.3,2.1,3.2,1.9,5.1c0,1.4-0.3,2.7-1.1,3.8c-0.7,1.1-1.8,1.9-3.1,2.4l3.5,7.8c0.1,0.1,0.1,0.2,0.1,0.3
			c0,0.3-0.2,0.5-0.6,0.5h-2.6c-0.2,0-0.4,0-0.6-0.1c-0.2-0.1-0.3-0.3-0.4-0.5l-3.2-7.6h-5.1v7c0,0.3-0.1,0.6-0.3,0.9
			c-0.3,0.2-0.6,0.3-0.9,0.3h-1.7C214.1,542.4,213.7,542.3,213.5,542.1z M221.9,531.2c1.2,0.1,2.3-0.2,3.3-0.9
			c0.8-0.7,1.1-1.8,1.1-2.8c0.1-1-0.3-2-1-2.8c-0.8-0.7-1.9-1-2.9-0.9h-5.1v7.4H221.9z"/>
		<path class="st0" d="M233.7,542.1c-0.2-0.2-0.3-0.5-0.3-0.9v-19.4c0-0.3,0.1-0.6,0.3-0.9c0.3-0.2,0.6-0.3,0.9-0.3h1.7
			c0.3,0,0.7,0.1,0.9,0.3s0.3,0.6,0.3,0.9v19.4c0,0.3-0.1,0.6-0.3,0.9c-0.3,0.2-0.6,0.3-0.9,0.3h-1.7
			C234.3,542.4,233.9,542.3,233.7,542.1z"/>
		<path class="st0" d="M241.5,542.1c-0.2-0.2-0.3-0.5-0.3-0.9v-19.4c0-0.3,0.1-0.6,0.3-0.9c0.3-0.2,0.6-0.3,0.9-0.3h13.3
			c0.3,0,0.6,0.1,0.9,0.2c0.2,0.2,0.3,0.6,0.2,0.9v0.9c0,0.3-0.1,0.6-0.2,0.9c-0.2,0.2-0.6,0.3-0.9,0.3h-10.4v6.2h7.5
			c0.3,0,0.6,0.1,0.9,0.3c0.2,0.2,0.3,0.6,0.2,0.9v0.8c0,0.3-0.1,0.6-0.2,0.9c-0.3,0.2-0.6,0.3-0.9,0.3h-7.5v6.2h10.3
			c0.3,0,0.6,0.1,0.9,0.3c0.2,0.2,0.3,0.6,0.3,0.9v0.9c0,0.3-0.1,0.6-0.3,0.8c-0.3,0.2-0.6,0.3-0.9,0.3h-13.2
			C242.1,542.4,241.8,542.3,241.5,542.1z"/>
		<path class="st0" d="M263,542.3c-1.2-0.2-2.4-0.7-3.5-1.4c-0.3-0.2-0.4-0.4-0.4-0.5s0-0.3,0.1-0.4l1-1.7c0.1-0.2,0.2-0.3,0.4-0.3
			c0.2,0,0.3,0.1,0.4,0.2c0.9,0.5,1.8,0.9,2.7,1.1c1,0.3,2.1,0.4,3.2,0.4c1.1,0.1,2.3-0.2,3.3-0.7c0.8-0.5,1.2-1.4,1.1-2.3
			c0-0.5-0.1-1.1-0.4-1.5s-0.7-0.8-1.2-1c-0.5-0.3-1.4-0.7-2.6-1.1l-0.7-0.3c-1.2-0.5-2.3-1-3.4-1.6c-0.9-0.5-1.7-1.2-2.2-2
			c-0.6-0.9-0.9-1.9-0.9-3c-0.1-1.8,0.8-3.5,2.2-4.5c1.7-1.1,3.8-1.7,5.8-1.6c1.3,0,2.6,0.1,3.8,0.4c1,0.2,2,0.7,2.8,1.3
			c0.3,0.2,0.4,0.4,0.4,0.5s0,0.3-0.1,0.3l-1,1.7c-0.1,0.2-0.2,0.3-0.3,0.3c-0.2,0-0.3-0.1-0.4-0.2c-1.5-0.9-3.3-1.4-5.1-1.3
			c-1.1-0.1-2.1,0.2-3,0.7c-0.7,0.6-1.1,1.4-1,2.3c0,0.6,0.1,1.1,0.4,1.6c0.3,0.4,0.8,0.8,1.3,1c0.5,0.3,1.5,0.7,2.7,1.1l0.8,0.3
			c1.3,0.5,2.5,1.1,3.6,1.7c0.8,0.5,1.5,1.1,2,1.9c0.5,0.9,0.8,2,0.7,3c0.1,1.7-0.7,3.3-2.1,4.3c-1.7,1.2-3.8,1.7-5.9,1.6
			C266,542.9,264.5,542.7,263,542.3z"/>
		<path class="st0" d="M283.4,542.1c-0.2-0.2-0.3-0.5-0.3-0.9v-17.4h-5.6c-0.3,0-0.6-0.1-0.9-0.2c-0.2-0.2-0.3-0.6-0.2-0.9v-0.9
			c0-0.3,0.1-0.6,0.2-0.9c0.2-0.2,0.6-0.3,0.9-0.3h15.2c0.3,0,0.6,0.1,0.9,0.3c0.2,0.2,0.3,0.6,0.3,0.9v0.9c0,0.3-0.1,0.6-0.3,0.9
			c-0.3,0.2-0.6,0.3-0.9,0.2h-5.6v17.4c0,0.3-0.1,0.6-0.3,0.9c-0.3,0.2-0.6,0.3-0.9,0.3h-1.7C283.9,542.4,283.6,542.3,283.4,542.1z"
			/>
		<path class="st0" d="M296.6,542.1c-0.2-0.2-0.3-0.5-0.3-0.9v-19.4c0-0.3,0.1-0.6,0.3-0.9c0.3-0.2,0.6-0.3,0.9-0.3h13.3
			c0.3,0,0.6,0.1,0.9,0.2c0.2,0.2,0.3,0.6,0.2,0.9v0.9c0,0.3-0.1,0.6-0.2,0.9c-0.2,0.2-0.6,0.3-0.9,0.3h-10.4v6.2h7.5
			c0.3,0,0.6,0.1,0.9,0.3c0.2,0.2,0.3,0.6,0.3,0.9v0.8c0,0.3-0.1,0.6-0.3,0.9c-0.2,0.2-0.6,0.3-0.9,0.3h-7.5v6.2h10.3
			c0.3,0,0.6,0.1,0.9,0.3c0.2,0.2,0.3,0.6,0.2,0.9v0.9c0,0.3-0.1,0.6-0.2,0.8c-0.3,0.2-0.6,0.3-0.9,0.3h-13.3
			C297.2,542.4,296.9,542.3,296.6,542.1z"/>
		<path class="st0" d="M318,542.3c-1.2-0.2-2.4-0.7-3.5-1.4c-0.3-0.2-0.4-0.4-0.4-0.5s0-0.3,0.1-0.4l1.1-1.7
			c0.1-0.2,0.2-0.3,0.4-0.3c0.1,0,0.3,0.1,0.4,0.2c0.9,0.5,1.8,0.9,2.7,1.1c1,0.3,2.1,0.4,3.2,0.4c1.1,0.1,2.3-0.2,3.3-0.7
			c1.1-0.9,1.4-2.6,0.7-3.8c-0.3-0.4-0.7-0.8-1.2-1c-0.5-0.3-1.4-0.7-2.6-1.1l-0.7-0.3c-1.2-0.5-2.3-1-3.4-1.6
			c-0.9-0.5-1.7-1.2-2.2-2c-0.6-0.9-0.9-1.9-0.9-3c-0.1-1.8,0.8-3.5,2.2-4.5c1.7-1.1,3.8-1.7,5.8-1.6c1.3,0,2.6,0.1,3.8,0.4
			c1,0.2,1.9,0.7,2.8,1.3c0.3,0.2,0.4,0.4,0.4,0.5s0,0.2-0.1,0.3l-1,1.7c-0.1,0.2-0.2,0.3-0.3,0.3c-0.2,0-0.3-0.1-0.4-0.2
			c-1.5-0.9-3.3-1.4-5.1-1.3c-1.1-0.1-2.1,0.2-3,0.7c-0.7,0.6-1.1,1.4-1,2.3c0,0.6,0.1,1.1,0.4,1.6c0.3,0.4,0.8,0.8,1.3,1
			c0.5,0.3,1.4,0.7,2.7,1.1l0.8,0.3c1.3,0.5,2.5,1,3.6,1.7c0.8,0.5,1.5,1.1,2,1.9c0.5,0.9,0.8,2,0.7,3c0.1,1.7-0.7,3.3-2.1,4.3
			c-1.7,1.2-3.8,1.7-5.9,1.6C321,542.9,319.5,542.7,318,542.3z"/>
		<path class="st0" d="M335.7,542.3c-1.2-0.2-2.4-0.7-3.5-1.4c-0.3-0.2-0.4-0.4-0.4-0.5s0-0.3,0.1-0.4l1-1.7
			c0.1-0.2,0.2-0.3,0.4-0.3c0.2,0,0.3,0.1,0.4,0.2c0.9,0.5,1.8,0.9,2.7,1.1c1,0.3,2.1,0.4,3.2,0.4c1.1,0.1,2.3-0.2,3.3-0.7
			c0.8-0.5,1.2-1.4,1.1-2.3c0-0.5-0.1-1.1-0.4-1.5s-0.7-0.8-1.2-1c-0.5-0.3-1.4-0.7-2.6-1.1l-0.7-0.3c-1.2-0.5-2.3-1-3.4-1.6
			c-0.9-0.5-1.7-1.2-2.2-2c-0.6-0.9-0.9-1.9-0.9-3c-0.1-1.8,0.8-3.5,2.2-4.5c1.7-1.1,3.8-1.7,5.8-1.6c1.3,0,2.6,0.1,3.8,0.4
			c1,0.2,2,0.7,2.8,1.3c0.3,0.2,0.4,0.4,0.4,0.5s0,0.3-0.1,0.3l-1,1.7c-0.1,0.2-0.2,0.3-0.3,0.3c-0.1,0-0.3-0.1-0.4-0.2
			c-1.5-0.9-3.3-1.4-5.1-1.3c-1.1-0.1-2.1,0.2-3,0.7c-0.7,0.6-1.1,1.4-1,2.3c0,0.6,0.1,1.1,0.4,1.6c0.3,0.4,0.8,0.8,1.3,1
			c0.5,0.3,1.5,0.7,2.7,1.1l0.8,0.3c1.3,0.5,2.5,1.1,3.6,1.7c0.8,0.5,1.5,1.1,2,1.9c0.5,0.9,0.8,2,0.7,3c0.1,1.7-0.7,3.3-2.1,4.3
			c-1.7,1.2-3.8,1.7-5.9,1.6C338.7,542.9,337.2,542.7,335.7,542.3z"/>
		<g>
			<g>
				<defs>
					<path id="SVGID_1_" d="M90.6,76.5h209.5c22.2,0,40.3,18,40.3,40.3v312.3c0,22.2-18,40.3-40.3,40.3H90.6
						c-22.2,0-40.3-18-40.3-40.3V116.8C50.3,94.5,68.3,76.5,90.6,76.5z"/>
				</defs>
				<clipPath id="SVGID_2_">
					<use xlink:href="#SVGID_1_"  style="overflow:visible;"/>
				</clipPath>
				<g class="st3">
					<rect x="70" y="13.2" class="st4" width="254.9" height="97.6"/>
					<polygon class="st5" points="168.3,110.6 -10.5,-68.1 -10.5,547 166.7,547 					"/>
					<polygon class="st5" points="229,110.6 407.8,-68.1 407.8,547 230.7,547 					"/>
					<polygon class="st6" points="198.9,280.6 198.9,280.6 139.7,280.6 139.7,302.4 198.9,302.4 198.9,302.4 258.1,302.4 
						258.1,280.6 					"/>
					<polygon class="st7" points="252.3,271.3 198.9,271.3 198.9,271.3 145.6,271.3 139.7,280.6 198.9,280.6 198.9,280.6 
						258.1,280.6 					"/>
					<polygon class="st8" points="198.9,251.6 198.9,251.6 145.6,251.6 145.6,271.3 198.9,271.3 198.9,271.3 252.3,271.3 
						252.3,251.6 					"/>
					<polygon class="st7" points="247.1,243.2 198.9,243.2 198.9,243.2 150.8,243.2 145.6,251.6 198.9,251.6 198.9,251.6 
						252.3,251.6 					"/>
					<polygon class="st8" points="198.9,225.6 198.9,225.6 150.8,225.6 150.8,243.3 198.9,243.3 198.9,243.3 247,243.3 247,225.6 
											"/>
					<polygon class="st7" points="242.3,218 198.9,218 198.9,218 155.6,218 150.8,225.6 198.9,225.6 198.9,225.6 247,225.6 					"/>
					<polygon class="st6" points="199.1,387.1 199,387.1 118.6,387.1 118.6,416.7 199,416.7 199.1,416.7 279.4,416.7 279.4,387.1 
											"/>
					<polygon class="st7" points="271.5,374.4 199.1,374.4 199,374.4 126.6,374.4 118.6,387.1 199,387.1 199.1,387.1 279.4,387.1 
											"/>
					<polygon class="st6" points="199.1,347.7 199,347.7 126.6,347.7 126.6,374.4 199,374.4 199.1,374.4 271.5,374.4 271.5,347.7 
											"/>
					<polygon class="st7" points="264.4,336.3 199.1,336.3 199,336.3 133.7,336.3 126.6,347.7 199,347.7 199.1,347.7 271.5,347.7 
											"/>
					<polygon class="st6" points="199.1,312.4 199,312.4 133.7,312.4 133.7,336.5 199,336.5 199.1,336.5 264.4,336.5 264.4,312.4 
											"/>
					<polygon class="st7" points="258,302.1 199.1,302.1 199,302.1 140.1,302.1 133.7,312.4 199,312.4 199.1,312.4 264.4,312.4 
											"/>
					<polygon class="st8" points="198.9,202 155.6,202 155.6,218 198.9,218 242.3,218 242.3,202 					"/>
					<polygon class="st7" points="227.8,192.8 198.9,192.8 168.3,192.8 155.6,202 198.9,202 242.3,202 					"/>
					<g>
						<g>
							<defs>
								<rect id="SVGID_3_" x="168.8" y="110.6" width="59.5" height="82.1"/>
							</defs>
							<clipPath id="SVGID_4_">
								<use xlink:href="#SVGID_3_"  style="overflow:visible;"/>
							</clipPath>
							<g class="st9">
								<rect x="165.6" y="149.1" class="st10" width="64.9" height="11.5"/>
								<rect x="164.7" y="159.9" class="st11" width="69.2" height="33.8"/>
								<rect x="166.2" y="107.4" class="st12" width="71.5" height="29.8"/>
								<path class="st13" d="M172.3,158.1H184c0.2,0,0.3,0.1,0.3,0.3v0.1c0,0.2-0.1,0.3-0.3,0.3h-11.7c-0.2,0-0.3-0.1-0.3-0.3v-0.1
									C172,158.3,172.1,158.1,172.3,158.1z"/>
								<path class="st13" d="M191.2,157.7h11.7c0.2,0,0.3,0.1,0.3,0.3v0.1c0,0.2-0.1,0.3-0.3,0.3h-11.7c-0.2,0-0.3-0.1-0.3-0.3V158
									C190.8,157.9,191,157.7,191.2,157.7z"/>
								<path class="st13" d="M195.7,155.2h11.7c0.2,0,0.3,0.1,0.3,0.3v0.1c0,0.2-0.1,0.3-0.3,0.3h-11.7c-0.2,0-0.3-0.1-0.3-0.3
									v-0.1C195.3,155.4,195.5,155.2,195.7,155.2z"/>
								<path class="st13" d="M211.8,153.3h11.7c0.2,0,0.3,0.1,0.3,0.3v0.1c0,0.2-0.1,0.3-0.3,0.3h-11.7c-0.2,0-0.3-0.1-0.3-0.3
									v-0.1C211.4,153.4,211.6,153.3,211.8,153.3z"/>
								<path class="st13" d="M215.6,156.5h11.7c0.2,0,0.3,0.1,0.3,0.3v0.1c0,0.2-0.1,0.3-0.3,0.3h-11.7c-0.2,0-0.3-0.1-0.3-0.3
									v-0.1C215.2,156.6,215.4,156.5,215.6,156.5z"/>
								<path class="st14" d="M203.6,135.6h-13.1c-0.7,0-1.4-0.6-1.4-1.4v-0.5c0-0.7,0.6-1.4,1.4-1.4h13.1c0.7,0,1.4,0.6,1.4,1.4
									v0.5C204.9,135,204.3,135.6,203.6,135.6z"/>
								<path class="st14" d="M194.6,131.6c0,2.2,1.8,4,4,4s4-1.8,4-4s-1.8-4-4-4S194.6,129.4,194.6,131.6z"/>
								<path class="st14" d="M191.3,132.7c0,1.6,1.3,2.9,2.9,2.9c1.6,0,2.9-1.3,2.9-2.9c0-1.6-1.3-2.9-2.9-2.9
									S191.3,131.1,191.3,132.7L191.3,132.7z"/>
								<path class="st15" d="M157.6,136.1l7.5-3.9l12.8,2.4l7.6-2.9c1.1-0.4,2.4-0.5,3.6-0.1l11.7,3.6l7.9-4.2
									c1.2-0.6,2.7-0.7,3.9-0.2l15.7,5.8v14.2h-70.7V136.1z"/>
								<path class="st14" d="M163,132h15.4c0.9,0,1.6,0.7,1.6,1.6v0.6c0,0.9-0.7,1.6-1.6,1.6H163c-0.9,0-1.6-0.7-1.6-1.6v-0.6
									C161.4,132.7,162.1,132,163,132z"/>
								<path class="st14" d="M173.5,131.1c0,2.6-2.1,4.7-4.7,4.7c-2.6,0-4.7-2.1-4.7-4.7c0-2.6,2.1-4.7,4.7-4.7l0,0
									C171.4,126.4,173.5,128.5,173.5,131.1z"/>
								<circle class="st14" cx="174" cy="132.5" r="3.4"/>
								<path class="st4" d="M154.5,139.8l18.9-7.7l15.2,6l11.4-6.2c1.3-0.7,2.9-0.9,4.3-0.4l15.2,4.9l11.8-4.9v20.3h-76.8
									L154.5,139.8L154.5,139.8z"/>
								<rect x="169.2" y="162.2" class="st16" width="16" height="30.2"/>
								<rect x="188.8" y="162.2" class="st16" width="16" height="30.2"/>
								<rect x="210.7" y="162.2" class="st16" width="16" height="30.2"/>
								<path class="st14" d="M188.5,123.3h-5.7c-0.3,0-0.6-0.3-0.6-0.6v-0.2c0-0.3,0.3-0.6,0.6-0.6h5.7c0.3,0,0.6,0.3,0.6,0.6v0.2
									C189,123,188.8,123.3,188.5,123.3z"/>
								<path class="st14" d="M184.5,121.5c0,1,0.8,1.8,1.8,1.8s1.8-0.8,1.8-1.8s-0.8-1.8-1.8-1.8l0,0
									C185.3,119.7,184.5,120.5,184.5,121.5z"/>
								<path class="st14" d="M183.1,122c0,0.7,0.6,1.3,1.2,1.3c0.7,0,1.3-0.6,1.3-1.2c0-0.7-0.6-1.3-1.2-1.3l0,0
									C183.7,120.7,183.1,121.3,183.1,122z"/>
								<path class="st17" d="M191.5,164.4h0.1c0.1,0,0.2,0.1,0.2,0.2v1.3c0,0.1-0.1,0.2-0.2,0.2h-0.1c-0.1,0-0.2-0.1-0.2-0.2v-1.3
									C191.3,164.5,191.4,164.4,191.5,164.4z"/>
								<path class="st17" d="M190.5,163.7L190.5,163.7c0.2-0.2,0.3-0.2,0.4-0.1l0.9,0.9c0.1,0.1,0.1,0.3,0,0.4l-0.1,0.1
									c-0.1,0.1-0.3,0.1-0.4,0l-0.9-0.9C190.4,164,190.4,163.8,190.5,163.7z"/>
								<path class="st17" d="M191.4,165L191.4,165c-0.2-0.2-0.2-0.3-0.1-0.4l0.9-0.9c0.1-0.1,0.3-0.1,0.4,0l0.1,0.1
									c0.1,0.1,0.1,0.3,0,0.4l-0.9,0.9C191.6,165.1,191.5,165.1,191.4,165z"/>
								<path class="st17" d="M195.3,164.4h0.1c0.1,0,0.2,0.1,0.2,0.2v1.3c0,0.1-0.1,0.2-0.2,0.2h-0.1c-0.1,0-0.2-0.1-0.2-0.2v-1.3
									C195,164.5,195.1,164.4,195.3,164.4z"/>
								<path class="st17" d="M194.3,163.7L194.3,163.7c0.2-0.2,0.3-0.2,0.4-0.1l0.9,0.9c0.1,0.1,0.1,0.3,0,0.4l-0.1,0.1
									c-0.1,0.1-0.3,0.1-0.4,0l-0.9-0.9C194.2,164,194.2,163.8,194.3,163.7z"/>
								<path class="st17" d="M195.1,165L195.1,165c-0.2-0.2-0.2-0.3-0.1-0.4l0.9-0.9c0.1-0.1,0.3-0.1,0.4,0l0.1,0.1
									c0.1,0.1,0.1,0.3,0,0.4l-0.9,0.9C195.4,165.1,195.2,165.1,195.1,165z"/>
								<path class="st17" d="M199,164.4h0.1c0.1,0,0.2,0.1,0.2,0.2v1.3c0,0.1-0.1,0.2-0.2,0.2H199c-0.1,0-0.2-0.1-0.2-0.2v-1.3
									C198.8,164.5,198.9,164.4,199,164.4z"/>
								<path class="st17" d="M198,163.7L198,163.7c0.2-0.2,0.3-0.2,0.4-0.1l0.9,0.9c0.1,0.1,0.1,0.3,0,0.4l-0.1,0.1
									c-0.1,0.1-0.3,0.1-0.4,0l-0.9-0.9C197.9,164,197.9,163.8,198,163.7z"/>
								<path class="st17" d="M198.9,165L198.9,165c-0.2-0.2-0.2-0.3-0.1-0.4l0.9-0.9c0.1-0.1,0.3-0.1,0.4,0l0.1,0.1
									c0.1,0.1,0.1,0.3,0,0.4l-0.9,0.9C199.1,165.1,199,165.1,198.9,165z"/>
								<path class="st17" d="M202.8,164.4h0.1c0.1,0,0.2,0.1,0.2,0.2v1.3c0,0.1-0.1,0.2-0.2,0.2h-0.1c-0.1,0-0.2-0.1-0.2-0.2v-1.3
									C202.5,164.5,202.6,164.4,202.8,164.4z"/>
								<path class="st17" d="M201.8,163.7L201.8,163.7c0.2-0.2,0.3-0.2,0.4-0.1l0.9,0.9c0.1,0.1,0.1,0.3,0,0.4L203,165
									c-0.1,0.1-0.3,0.1-0.4,0l-0.9-0.9C201.7,164,201.7,163.8,201.8,163.7z"/>
								<path class="st17" d="M202.6,165L202.6,165c-0.2-0.2-0.2-0.3-0.1-0.4l0.9-0.9c0.1-0.1,0.3-0.1,0.4,0l0.1,0.1
									c0.1,0.1,0.1,0.3,0,0.4L203,165C202.9,165.1,202.7,165.1,202.6,165z"/>
								<path class="st17" d="M191.5,168.6h0.1c0.1,0,0.2,0.1,0.2,0.2v1.3c0,0.1-0.1,0.2-0.2,0.2h-0.1c-0.1,0-0.2-0.1-0.2-0.2v-1.3
									C191.3,168.7,191.4,168.6,191.5,168.6z"/>
								<path class="st17" d="M191.8,169.1L191.8,169.1c-0.2,0.2-0.3,0.2-0.4,0.1l0,0l-0.9-0.9c-0.1-0.1-0.1-0.3,0-0.4l0,0l0.1-0.1
									c0.1-0.1,0.3-0.1,0.4,0l0.9,0.9C191.9,168.9,191.9,169,191.8,169.1z"/>
								<path class="st17" d="M191.4,169.2L191.4,169.2c-0.2-0.2-0.2-0.3-0.1-0.4l0.9-0.9c0.1-0.1,0.3-0.1,0.4,0l0.1,0.1
									c0.1,0.1,0.1,0.3,0,0.4l-0.9,0.9C191.7,169.3,191.5,169.3,191.4,169.2z"/>
								<path class="st17" d="M195.3,168.6h0.1c0.1,0,0.2,0.1,0.2,0.2v1.3c0,0.1-0.1,0.2-0.2,0.2h-0.1c-0.1,0-0.2-0.1-0.2-0.2v-1.3
									C195,168.7,195.1,168.6,195.3,168.6z"/>
								<path class="st17" d="M194.3,167.9L194.3,167.9c0.2-0.2,0.3-0.2,0.4-0.1l0.9,0.9c0.1,0.1,0.1,0.3,0,0.4l-0.1,0.1
									c-0.1,0.1-0.3,0.1-0.4,0l-0.9-0.9C194.2,168.2,194.2,168,194.3,167.9z"/>
								<path class="st17" d="M195.2,169.2L195.2,169.2c-0.2-0.2-0.2-0.3-0.1-0.4l0.9-0.9c0.1-0.1,0.3-0.1,0.4,0l0.1,0.1
									c0.1,0.1,0.1,0.3,0,0.4l-0.9,0.9C195.4,169.3,195.3,169.3,195.2,169.2z"/>
								<path class="st17" d="M199,168.6h0.1c0.1,0,0.2,0.1,0.2,0.2v1.3c0,0.1-0.1,0.2-0.2,0.2H199c-0.1,0-0.2-0.1-0.2-0.2v-1.3
									C198.8,168.7,198.9,168.6,199,168.6z"/>
								<path class="st17" d="M198,167.9L198,167.9c0.2-0.2,0.3-0.2,0.4-0.1l0.9,0.9c0.1,0.1,0.1,0.3,0,0.4l-0.1,0.1
									c-0.1,0.1-0.3,0.1-0.4,0l-0.9-0.9C197.9,168.2,197.9,168,198,167.9z"/>
								<path class="st17" d="M198.9,169.2L198.9,169.2c-0.2-0.2-0.2-0.3-0.1-0.4l0.9-0.9c0.1-0.1,0.3-0.1,0.4,0l0.1,0.1
									c0.1,0.1,0.1,0.3,0,0.4l-0.9,0.9C199.2,169.3,199,169.3,198.9,169.2z"/>
								<path class="st17" d="M202.8,168.6h0.1c0.1,0,0.2,0.1,0.2,0.2v1.3c0,0.1-0.1,0.2-0.2,0.2h-0.1c-0.1,0-0.2-0.1-0.2-0.2v-1.3
									C202.5,168.7,202.6,168.6,202.8,168.6z"/>
								<path class="st17" d="M201.8,167.9L201.8,167.9c0.2-0.2,0.3-0.2,0.4-0.1l0.9,0.9c0.1,0.1,0.1,0.3,0,0.4l-0.1,0.1
									c-0.1,0.1-0.3,0.1-0.4,0l-0.9-0.9C201.7,168.2,201.7,168,201.8,167.9z"/>
								<path class="st17" d="M202.7,169.2L202.7,169.2c-0.2-0.2-0.2-0.3-0.1-0.4l0.9-0.9c0.1-0.1,0.3-0.1,0.4,0l0.1,0.1
									c0.1,0.1,0.1,0.3,0,0.4l-0.9,0.9C202.9,169.3,202.8,169.3,202.7,169.2z"/>
								<path class="st17" d="M191.5,172.8h0.1c0.1,0,0.2,0.1,0.2,0.2v1.3c0,0.1-0.1,0.2-0.2,0.2h-0.1c-0.1,0-0.2-0.1-0.2-0.2V173
									C191.3,173,191.4,172.8,191.5,172.8z"/>
								<path class="st17" d="M191.8,173.3L191.8,173.3c-0.2,0.2-0.3,0.2-0.4,0.1l0,0l-0.9-0.9c-0.1-0.1-0.1-0.2,0-0.3l0,0l0.1-0.1
									c0.1-0.1,0.3-0.1,0.4,0l0.9,0.9C191.9,173.1,191.9,173.2,191.8,173.3z"/>
								<path class="st17" d="M191.4,173.4L191.4,173.4c-0.2-0.2-0.2-0.3-0.1-0.4l0.9-0.9c0.1-0.1,0.3-0.1,0.4,0l0.1,0.1
									c0.1,0.1,0.1,0.3,0,0.4l-0.9,0.9C191.7,173.5,191.5,173.5,191.4,173.4z"/>
								<path class="st17" d="M195.3,172.8h0.1c0.1,0,0.2,0.1,0.2,0.2v1.3c0,0.1-0.1,0.2-0.2,0.2h-0.1c-0.1,0-0.2-0.1-0.2-0.2V173
									C195,173,195.1,172.8,195.3,172.8z"/>
								<path class="st17" d="M194.3,172.2L194.3,172.2c0.2-0.2,0.3-0.2,0.4-0.1l0.9,0.9c0.1,0.1,0.1,0.3,0,0.4l-0.1,0.1
									c-0.1,0.1-0.3,0.1-0.4,0l-0.9-0.9C194.2,172.4,194.2,172.3,194.3,172.2z"/>
								<path class="st17" d="M195.2,173.4L195.2,173.4c-0.2-0.2-0.2-0.3-0.1-0.4l0.9-0.9c0.1-0.1,0.3-0.1,0.4,0l0.1,0.1
									c0.1,0.1,0.1,0.3,0,0.4l-0.9,0.9C195.4,173.5,195.3,173.5,195.2,173.4z"/>
								<path class="st17" d="M199,172.8h0.1c0.1,0,0.2,0.1,0.2,0.2v1.3c0,0.1-0.1,0.2-0.2,0.2H199c-0.1,0-0.2-0.1-0.2-0.2V173
									C198.8,173,198.9,172.8,199,172.8z"/>
								<path class="st17" d="M198,172.2L198,172.2c0.2-0.2,0.3-0.2,0.4-0.1l0.9,0.9c0.1,0.1,0.1,0.3,0,0.4l-0.1,0.1
									c-0.1,0.1-0.3,0.1-0.4,0l-0.9-0.9C197.9,172.4,197.9,172.3,198,172.2z"/>
								<path class="st17" d="M198.9,173.4L198.9,173.4c-0.2-0.2-0.2-0.3-0.1-0.4l0.9-0.9c0.1-0.1,0.3-0.1,0.4,0l0.1,0.1
									c0.1,0.1,0.1,0.3,0,0.4l-0.9,0.9C199.2,173.5,199,173.5,198.9,173.4z"/>
								<path class="st17" d="M202.8,172.8h0.1c0.1,0,0.2,0.1,0.2,0.2v1.3c0,0.1-0.1,0.2-0.2,0.2h-0.1c-0.1,0-0.2-0.1-0.2-0.2V173
									C202.5,173,202.6,172.8,202.8,172.8z"/>
								<path class="st17" d="M201.8,172.2L201.8,172.2c0.2-0.2,0.3-0.2,0.4-0.1l0.9,0.9c0.1,0.1,0.1,0.3,0,0.4l-0.1,0.1
									c-0.1,0.1-0.3,0.1-0.4,0l-0.9-0.9C201.7,172.4,201.7,172.3,201.8,172.2z"/>
								<path class="st17" d="M202.7,173.4L202.7,173.4c-0.2-0.2-0.2-0.3-0.1-0.4l0.9-0.9c0.1-0.1,0.3-0.1,0.4,0l0.1,0.1
									c0.1,0.1,0.1,0.3,0,0.4l-0.9,0.9C202.9,173.5,202.8,173.5,202.7,173.4z"/>
								<path class="st17" d="M191.5,177.1h0.1c0.1,0,0.2,0.1,0.2,0.2v1.3c0,0.1-0.1,0.2-0.2,0.2h-0.1c-0.1,0-0.2-0.1-0.2-0.2v-1.3
									C191.3,177.2,191.4,177.1,191.5,177.1z"/>
								<path class="st17" d="M190.5,176.4L190.5,176.4c0.2-0.2,0.3-0.2,0.4-0.1l0.9,0.9c0.1,0.1,0.1,0.3,0,0.4l-0.1,0.1
									c-0.1,0.1-0.3,0.1-0.4,0l-0.9-0.9C190.4,176.6,190.4,176.5,190.5,176.4z"/>
								<path class="st17" d="M191.4,177.6L191.4,177.6c-0.2-0.2-0.2-0.3-0.1-0.4l0.9-0.9c0.1-0.1,0.3-0.1,0.4,0l0.1,0.1
									c0.1,0.1,0.1,0.3,0,0.4l-0.9,0.9C191.7,177.7,191.5,177.7,191.4,177.6z"/>
								<path class="st17" d="M195.3,177.1h0.1c0.1,0,0.2,0.1,0.2,0.2v1.3c0,0.1-0.1,0.2-0.2,0.2h-0.1c-0.1,0-0.2-0.1-0.2-0.2v-1.3
									C195,177.2,195.1,177.1,195.3,177.1z"/>
								<path class="st17" d="M194.3,176.4L194.3,176.4c0.2-0.2,0.3-0.2,0.4-0.1l0.9,0.9c0.1,0.1,0.1,0.3,0,0.4l-0.1,0.1
									c-0.1,0.1-0.3,0.1-0.4,0l-0.9-0.9C194.2,176.6,194.2,176.5,194.3,176.4z"/>
								<path class="st17" d="M195.2,177.6L195.2,177.6c-0.2-0.2-0.2-0.3-0.1-0.4l0.9-0.9c0.1-0.1,0.3-0.1,0.4,0l0.1,0.1
									c0.1,0.1,0.1,0.3,0,0.4l-0.9,0.9C195.4,177.7,195.3,177.7,195.2,177.6z"/>
								<path class="st17" d="M199,177.1h0.1c0.1,0,0.2,0.1,0.2,0.2v1.3c0,0.1-0.1,0.2-0.2,0.2H199c-0.1,0-0.2-0.1-0.2-0.2v-1.3
									C198.8,177.2,198.9,177.1,199,177.1z"/>
								<path class="st17" d="M198,176.4L198,176.4c0.2-0.2,0.3-0.2,0.4-0.1l0.9,0.9c0.1,0.1,0.1,0.3,0,0.4l-0.1,0.1
									c-0.1,0.1-0.3,0.1-0.4,0l-0.9-0.9C197.9,176.6,197.9,176.5,198,176.4z"/>
								<path class="st17" d="M198.9,177.6L198.9,177.6c-0.2-0.2-0.2-0.3-0.1-0.4l0.9-0.9c0.1-0.1,0.3-0.1,0.4,0l0.1,0.1
									c0.1,0.1,0.1,0.3,0,0.4l-0.9,0.9C199.2,177.7,199,177.7,198.9,177.6z"/>
								<path class="st17" d="M202.8,177.1h0.1c0.1,0,0.2,0.1,0.2,0.2v1.3c0,0.1-0.1,0.2-0.2,0.2h-0.1c-0.1,0-0.2-0.1-0.2-0.2v-1.3
									C202.5,177.2,202.6,177.1,202.8,177.1z"/>
								<path class="st17" d="M201.8,176.4L201.8,176.4c0.2-0.2,0.3-0.2,0.4-0.1l0.9,0.9c0.1,0.1,0.1,0.3,0,0.4l-0.1,0.1
									c-0.1,0.1-0.3,0.1-0.4,0l-0.9-0.9C201.7,176.6,201.7,176.5,201.8,176.4z"/>
								<path class="st17" d="M202.7,177.6L202.7,177.6c-0.2-0.2-0.2-0.3-0.1-0.4l0.9-0.9c0.1-0.1,0.3-0.1,0.4,0l0.1,0.1
									c0.1,0.1,0.1,0.3,0,0.4l-0.9,0.9C202.9,177.7,202.8,177.7,202.7,177.6z"/>
								<path class="st17" d="M191.5,181.3h0.1c0.1,0,0.2,0.1,0.2,0.2v1.3c0,0.1-0.1,0.2-0.2,0.2h-0.1c-0.1,0-0.2-0.1-0.2-0.2v-1.3
									C191.3,181.4,191.4,181.3,191.5,181.3z"/>
								<path class="st17" d="M191.8,181.8L191.8,181.8c-0.2,0.2-0.3,0.2-0.4,0.1l-0.9-0.9c-0.1-0.1-0.1-0.3,0-0.4l0,0l0.1-0.1
									c0.1-0.1,0.2-0.1,0.3,0l0,0l0.9,0.9C191.9,181.5,191.9,181.7,191.8,181.8z"/>
								<path class="st17" d="M191.4,181.9L191.4,181.9c-0.2-0.2-0.2-0.3-0.1-0.4l0.9-0.9c0.1-0.1,0.3-0.1,0.4,0l0.1,0.1
									c0.1,0.1,0.1,0.3,0,0.4l-0.9,0.9C191.7,182,191.5,182,191.4,181.9z"/>
								<path class="st17" d="M195.3,181.3h0.1c0.1,0,0.2,0.1,0.2,0.2v1.3c0,0.1-0.1,0.2-0.2,0.2h-0.1c-0.1,0-0.2-0.1-0.2-0.2v-1.3
									C195,181.4,195.1,181.3,195.3,181.3z"/>
								<path class="st17" d="M194.3,180.6L194.3,180.6c0.2-0.2,0.3-0.2,0.4-0.1l0.9,0.9c0.1,0.1,0.1,0.3,0,0.4l-0.1,0.1
									c-0.1,0.1-0.3,0.1-0.4,0l-0.9-0.9C194.2,180.9,194.2,180.7,194.3,180.6z"/>
								<path class="st17" d="M195.2,181.9L195.2,181.9c-0.2-0.2-0.2-0.3-0.1-0.4l0.9-0.9c0.1-0.1,0.3-0.1,0.4,0l0.1,0.1
									c0.1,0.1,0.1,0.3,0,0.4l-0.9,0.9C195.4,182,195.3,182,195.2,181.9z"/>
								<path class="st17" d="M199,181.3h0.1c0.1,0,0.2,0.1,0.2,0.2v1.3c0,0.1-0.1,0.2-0.2,0.2H199c-0.1,0-0.2-0.1-0.2-0.2v-1.3
									C198.8,181.4,198.9,181.3,199,181.3z"/>
								<path class="st17" d="M198,180.6L198,180.6c0.2-0.2,0.3-0.2,0.4-0.1l0.9,0.9c0.1,0.1,0.1,0.3,0,0.4l-0.1,0.1
									c-0.1,0.1-0.3,0.1-0.4,0L198,181C197.9,180.9,197.9,180.7,198,180.6z"/>
								<path class="st17" d="M198.9,181.9L198.9,181.9c-0.2-0.2-0.2-0.3-0.1-0.4l0.9-0.9c0.1-0.1,0.3-0.1,0.4,0l0.1,0.1
									c0.1,0.1,0.1,0.3,0,0.4l-0.9,0.9C199.2,182,199,182,198.9,181.9z"/>
								<path class="st17" d="M202.8,181.3h0.1c0.1,0,0.2,0.1,0.2,0.2v1.3c0,0.1-0.1,0.2-0.2,0.2h-0.1c-0.1,0-0.2-0.1-0.2-0.2v-1.3
									C202.5,181.4,202.6,181.3,202.8,181.3z"/>
								<path class="st17" d="M201.8,180.6L201.8,180.6c0.2-0.2,0.3-0.2,0.4-0.1l0.9,0.9c0.1,0.1,0.1,0.3,0,0.4l-0.1,0.1
									c-0.1,0.1-0.3,0.1-0.4,0l-0.9-0.9C201.7,180.9,201.7,180.7,201.8,180.6z"/>
								<path class="st17" d="M202.7,181.9L202.7,181.9c-0.2-0.2-0.2-0.3-0.1-0.4l0.9-0.9c0.1-0.1,0.3-0.1,0.4,0l0.1,0.1
									c0.1,0.1,0.1,0.3,0,0.4l-0.9,0.9C202.9,182,202.8,182,202.7,181.9z"/>
								<path class="st17" d="M191.5,185.5h0.1c0.1,0,0.2,0.1,0.2,0.2v1.3c0,0.1-0.1,0.2-0.2,0.2h-0.1c-0.1,0-0.2-0.1-0.2-0.2v-1.3
									C191.3,185.6,191.4,185.5,191.5,185.5z"/>
								<path class="st17" d="M190.5,184.9L190.5,184.9c0.2-0.2,0.3-0.2,0.4-0.1l0.9,0.9c0.1,0.1,0.1,0.3,0,0.4l-0.1,0.1
									c-0.1,0.1-0.3,0.1-0.4,0l-0.9-0.9C190.4,185.1,190.4,185,190.5,184.9z"/>
								<path class="st17" d="M191.4,186.1L191.4,186.1c-0.2-0.2-0.2-0.3-0.1-0.4l0.9-0.9c0.1-0.1,0.3-0.1,0.4,0l0.1,0.1
									c0.1,0.1,0.1,0.3,0,0.4l-0.9,0.9C191.6,186.2,191.5,186.2,191.4,186.1z"/>
								<path class="st17" d="M195.3,185.5h0.1c0.1,0,0.2,0.1,0.2,0.2v1.3c0,0.1-0.1,0.2-0.2,0.2h-0.1c-0.1,0-0.2-0.1-0.2-0.2v-1.3
									C195,185.6,195.1,185.5,195.3,185.5z"/>
								<path class="st17" d="M194.3,184.9L194.3,184.9c0.2-0.2,0.3-0.2,0.4-0.1l0.9,0.9c0.1,0.1,0.1,0.3,0,0.4l-0.1,0.1
									c-0.1,0.1-0.3,0.1-0.4,0l-0.9-0.9C194.2,185.1,194.2,185,194.3,184.9z"/>
								<path class="st17" d="M195.1,186.1L195.1,186.1c-0.2-0.2-0.2-0.3-0.1-0.4l0.9-0.9c0.1-0.1,0.3-0.1,0.4,0l0.1,0.1
									c0.1,0.1,0.1,0.3,0,0.4l-0.9,0.9C195.4,186.2,195.2,186.2,195.1,186.1z"/>
								<path class="st17" d="M199,185.5h0.1c0.1,0,0.2,0.1,0.2,0.2v1.3c0,0.1-0.1,0.2-0.2,0.2H199c-0.1,0-0.2-0.1-0.2-0.2v-1.3
									C198.8,185.6,198.9,185.5,199,185.5z"/>
								<path class="st17" d="M198,184.9L198,184.9c0.2-0.2,0.3-0.2,0.4-0.1l0.9,0.9c0.1,0.1,0.1,0.3,0,0.4l-0.1,0.1
									c-0.1,0.1-0.3,0.1-0.4,0l-0.9-0.9C197.9,185.1,197.9,185,198,184.9z"/>
								<path class="st17" d="M198.9,186.1L198.9,186.1c-0.2-0.2-0.2-0.3-0.1-0.4l0.9-0.9c0.1-0.1,0.3-0.1,0.4,0l0.1,0.1
									c0.1,0.1,0.1,0.3,0,0.4l-0.9,0.9C199.2,186.2,199,186.2,198.9,186.1z"/>
								<path class="st17" d="M202.8,185.5h0.1c0.1,0,0.2,0.1,0.2,0.2v1.3c0,0.1-0.1,0.2-0.2,0.2h-0.1c-0.1,0-0.2-0.1-0.2-0.2v-1.3
									C202.5,185.6,202.6,185.5,202.8,185.5z"/>
								<path class="st17" d="M201.8,184.9L201.8,184.9c0.2-0.2,0.3-0.2,0.4-0.1l0.9,0.9c0.1,0.1,0.1,0.3,0,0.4l-0.1,0.1
									c-0.1,0.1-0.3,0.1-0.4,0l-0.9-0.9C201.7,185.1,201.7,185,201.8,184.9z"/>
								<path class="st17" d="M202.6,186.1L202.6,186.1c-0.2-0.2-0.2-0.3-0.1-0.4l0.9-0.9c0.1-0.1,0.3-0.1,0.4,0l0.1,0.1
									c0.1,0.1,0.1,0.3,0,0.4l-0.9,0.9C202.9,186.2,202.7,186.2,202.6,186.1z"/>
								<path class="st17" d="M191.5,189.8h0.1c0.1,0,0.2,0.1,0.2,0.2v1.3c0,0.1-0.1,0.2-0.2,0.2h-0.1c-0.1,0-0.2-0.1-0.2-0.2V190
									C191.3,189.9,191.4,189.8,191.5,189.8z"/>
								<path class="st17" d="M190.5,189.1L190.5,189.1c0.2-0.2,0.3-0.2,0.4-0.1l0.9,0.9c0.1,0.1,0.1,0.3,0,0.4l-0.1,0.1
									c-0.1,0.1-0.3,0.1-0.4,0l-0.9-0.9C190.4,189.3,190.4,189.2,190.5,189.1z"/>
								<path class="st17" d="M191.4,190.3L191.4,190.3c-0.2-0.2-0.2-0.3-0.1-0.4l0.9-0.9c0.1-0.1,0.3-0.1,0.4,0l0.1,0.1
									c0.1,0.1,0.1,0.3,0,0.4l-0.9,0.9C191.7,190.4,191.5,190.4,191.4,190.3z"/>
								<path class="st17" d="M195.3,189.8h0.1c0.1,0,0.2,0.1,0.2,0.2v1.3c0,0.1-0.1,0.2-0.2,0.2h-0.1c-0.1,0-0.2-0.1-0.2-0.2V190
									C195,189.9,195.1,189.8,195.3,189.8z"/>
								<path class="st17" d="M194.3,189.1L194.3,189.1c0.2-0.2,0.3-0.2,0.4-0.1l0.9,0.9c0.1,0.1,0.1,0.3,0,0.4l-0.1,0.1
									c-0.1,0.1-0.3,0.1-0.4,0l-0.9-0.9C194.2,189.3,194.2,189.2,194.3,189.1z"/>
								<path class="st17" d="M195.2,190.3L195.2,190.3c-0.2-0.2-0.2-0.3-0.1-0.4l0.9-0.9c0.1-0.1,0.3-0.1,0.4,0l0.1,0.1
									c0.1,0.1,0.1,0.3,0,0.4l-0.9,0.9C195.4,190.4,195.3,190.4,195.2,190.3z"/>
								<path class="st17" d="M199,189.8h0.1c0.1,0,0.2,0.1,0.2,0.2v1.3c0,0.1-0.1,0.2-0.2,0.2H199c-0.1,0-0.2-0.1-0.2-0.2V190
									C198.8,189.9,198.9,189.8,199,189.8z"/>
								<path class="st17" d="M198,189.1L198,189.1c0.2-0.2,0.3-0.2,0.4-0.1l0.9,0.9c0.1,0.1,0.1,0.3,0,0.4l-0.1,0.1
									c-0.1,0.1-0.3,0.1-0.4,0l-0.9-0.9C197.9,189.3,197.9,189.2,198,189.1z"/>
								<path class="st17" d="M198.9,190.3L198.9,190.3c-0.2-0.2-0.2-0.3-0.1-0.4l0.9-0.9c0.1-0.1,0.3-0.1,0.4,0l0.1,0.1
									c0.1,0.1,0.1,0.3,0,0.4l-0.9,0.9C199.2,190.4,199,190.4,198.9,190.3z"/>
								<path class="st17" d="M202.8,189.8h0.1c0.1,0,0.2,0.1,0.2,0.2v1.3c0,0.1-0.1,0.2-0.2,0.2h-0.1c-0.1,0-0.2-0.1-0.2-0.2V190
									C202.5,189.9,202.6,189.8,202.8,189.8z"/>
								<path class="st17" d="M201.8,189.1L201.8,189.1c0.2-0.2,0.3-0.2,0.4-0.1l0.9,0.9c0.1,0.1,0.1,0.3,0,0.4l-0.1,0.1
									c-0.1,0.1-0.3,0.1-0.4,0l-0.9-0.9C201.7,189.3,201.7,189.2,201.8,189.1z"/>
								<path class="st17" d="M202.7,190.3L202.7,190.3c-0.2-0.2-0.2-0.3-0.1-0.4l0.9-0.9c0.1-0.1,0.3-0.1,0.4,0l0.1,0.1
									c0.1,0.1,0.1,0.3,0,0.4l-0.9,0.9C202.9,190.4,202.8,190.4,202.7,190.3z"/>
								<path class="st17" d="M212.7,164.4h0.1c0.1,0,0.2,0.1,0.2,0.2v1.3c0,0.1-0.1,0.2-0.2,0.2h-0.1c-0.1,0-0.2-0.1-0.2-0.2v-1.3
									C212.5,164.5,212.6,164.4,212.7,164.4z"/>
								<path class="st17" d="M211.7,163.7L211.7,163.7c0.2-0.2,0.3-0.2,0.4-0.1l0.9,0.9c0.1,0.1,0.1,0.3,0,0.4l0,0.1
									c-0.1,0.1-0.3,0.1-0.4,0l-0.9-0.9C211.6,164,211.6,163.8,211.7,163.7z"/>
								<path class="st17" d="M212.6,165L212.6,165c-0.2-0.2-0.2-0.3-0.1-0.4l0.9-0.9c0.1-0.1,0.3-0.1,0.4,0l0.1,0.1
									c0.1,0.1,0.1,0.3,0,0.4L213,165C212.9,165.1,212.7,165.1,212.6,165z"/>
								<path class="st17" d="M216.5,164.4h0.1c0.1,0,0.2,0.1,0.2,0.2v1.3c0,0.1-0.1,0.2-0.2,0.2h-0.1c-0.1,0-0.2-0.1-0.2-0.2v-1.3
									C216.2,164.5,216.4,164.4,216.5,164.4z"/>
								<path class="st17" d="M215.5,163.7L215.5,163.7c0.2-0.2,0.3-0.2,0.4-0.1l0.9,0.9c0.1,0.1,0.1,0.3,0,0.4l-0.1,0.1
									c-0.1,0.1-0.3,0.1-0.4,0l-0.9-0.9C215.4,164,215.4,163.8,215.5,163.7z"/>
								<path class="st17" d="M216.4,165L216.4,165c-0.2-0.2-0.2-0.3-0.1-0.4l0.9-0.9c0.1-0.1,0.3-0.1,0.4,0l0.1,0.1
									c0.1,0.1,0.1,0.3,0,0.4l-0.9,0.9C216.6,165.1,216.5,165.1,216.4,165z"/>
								<path class="st17" d="M220.2,164.4h0.1c0.1,0,0.2,0.1,0.2,0.2v1.3c0,0.1-0.1,0.2-0.2,0.2h-0.1c-0.1,0-0.2-0.1-0.2-0.2v-1.3
									C220,164.5,220.1,164.4,220.2,164.4z"/>
								<path class="st17" d="M219.2,163.7L219.2,163.7c0.2-0.2,0.3-0.2,0.4-0.1l0.9,0.9c0.1,0.1,0.1,0.3,0,0.4l-0.1,0.1
									c-0.1,0.1-0.3,0.1-0.4,0l-0.9-0.9C219.1,164,219.1,163.8,219.2,163.7z"/>
								<path class="st17" d="M220.1,165L220.1,165c-0.2-0.2-0.2-0.3-0.1-0.4l0.9-0.9c0.1-0.1,0.3-0.1,0.4,0l0.1,0.1
									c0.1,0.1,0.1,0.3,0,0.4l-0.9,0.9C220.4,165.1,220.2,165.1,220.1,165z"/>
								<path class="st17" d="M224,164.4h0.1c0.1,0,0.2,0.1,0.2,0.2v1.3c0,0.1-0.1,0.2-0.2,0.2H224c-0.1,0-0.2-0.1-0.2-0.2v-1.3
									C223.8,164.5,223.9,164.4,224,164.4z"/>
								<path class="st17" d="M223,163.7L223,163.7c0.2-0.2,0.3-0.2,0.4-0.1l0.9,0.9c0.1,0.1,0.1,0.3,0,0.4l-0.1,0.1
									c-0.1,0.1-0.3,0.1-0.4,0l-0.9-0.9C222.9,164,222.9,163.8,223,163.7z"/>
								<path class="st17" d="M223.9,165L223.9,165c-0.2-0.2-0.2-0.3-0.1-0.4l0.9-0.9c0.1-0.1,0.3-0.1,0.4,0l0.1,0.1
									c0.1,0.1,0.1,0.3,0,0.4l-0.9,0.9C224.1,165.1,223.9,165.1,223.9,165z"/>
								<path class="st17" d="M212.7,168.6h0.1c0.1,0,0.2,0.1,0.2,0.2v1.3c0,0.1-0.1,0.2-0.2,0.2h-0.1c-0.1,0-0.2-0.1-0.2-0.2v-1.3
									C212.5,168.7,212.6,168.6,212.7,168.6z"/>
								<path class="st17" d="M211.7,167.9L211.7,167.9c0.2-0.2,0.3-0.2,0.4-0.1l0.9,0.9c0.1,0.1,0.1,0.3,0,0.4l-0.1,0.1
									c-0.1,0.1-0.3,0.1-0.4,0l-0.9-0.9C211.6,168.2,211.6,168,211.7,167.9z"/>
								<path class="st17" d="M212.6,169.2L212.6,169.2c-0.2-0.2-0.2-0.3-0.1-0.4l0.9-0.9c0.1-0.1,0.3-0.1,0.4,0l0.1,0.1
									c0.1,0.1,0.1,0.3,0,0.4l-0.9,0.9C212.9,169.3,212.7,169.3,212.6,169.2z"/>
								<path class="st17" d="M216.5,168.6h0.1c0.1,0,0.2,0.1,0.2,0.2v1.3c0,0.1-0.1,0.2-0.2,0.2h-0.1c-0.1,0-0.2-0.1-0.2-0.2v-1.3
									C216.2,168.7,216.4,168.6,216.5,168.6z"/>
								<path class="st17" d="M215.5,167.9L215.5,167.9c0.2-0.2,0.3-0.2,0.4-0.1l0.9,0.9c0.1,0.1,0.1,0.3,0,0.4l-0.1,0.1
									c-0.1,0.1-0.3,0.1-0.4,0l-0.9-0.9C215.4,168.2,215.4,168,215.5,167.9z"/>
								<path class="st17" d="M216.4,169.2L216.4,169.2c-0.2-0.2-0.2-0.3-0.1-0.4l0.9-0.9c0.1-0.1,0.3-0.1,0.4,0l0.1,0.1
									c0.1,0.1,0.1,0.3,0,0.4l-0.9,0.9C216.6,169.3,216.5,169.3,216.4,169.2z"/>
								<path class="st17" d="M220.2,168.6h0.1c0.1,0,0.2,0.1,0.2,0.2v1.3c0,0.1-0.1,0.2-0.2,0.2h-0.1c-0.1,0-0.2-0.1-0.2-0.2v-1.3
									C220,168.7,220.1,168.6,220.2,168.6z"/>
								<path class="st17" d="M220.6,169.1L220.6,169.1c-0.2,0.2-0.3,0.2-0.4,0.1l0,0l-0.9-0.9c-0.1-0.1-0.1-0.3,0-0.4l0,0l0.1-0.1
									c0.1-0.1,0.3-0.1,0.4,0l0.9,0.9C220.6,168.8,220.7,169,220.6,169.1L220.6,169.1z"/>
								<path class="st17" d="M220.1,169.2L220.1,169.2c-0.2-0.2-0.2-0.3-0.1-0.4l0.9-0.9c0.1-0.1,0.3-0.1,0.4,0l0.1,0.1
									c0.1,0.1,0.1,0.3,0,0.4l-0.9,0.9C220.4,169.3,220.2,169.3,220.1,169.2z"/>
								<path class="st17" d="M224,168.6h0.1c0.1,0,0.2,0.1,0.2,0.2v1.3c0,0.1-0.1,0.2-0.2,0.2H224c-0.1,0-0.2-0.1-0.2-0.2v-1.3
									C223.8,168.7,223.9,168.6,224,168.6z"/>
								<path class="st17" d="M223,167.9L223,167.9c0.2-0.2,0.3-0.2,0.4-0.1l0.9,0.9c0.1,0.1,0.1,0.3,0,0.4l-0.1,0.1
									c-0.1,0.1-0.3,0.1-0.4,0l-0.9-0.9C222.9,168.2,222.9,168,223,167.9z"/>
								<path class="st17" d="M223.9,169.2L223.9,169.2c-0.2-0.2-0.2-0.3-0.1-0.4l0.9-0.9c0.1-0.1,0.3-0.1,0.4,0l0.1,0.1
									c0.1,0.1,0.1,0.3,0,0.4l-0.9,0.9C224.1,169.3,224,169.3,223.9,169.2z"/>
								<path class="st17" d="M212.7,172.8h0.1c0.1,0,0.2,0.1,0.2,0.2v1.3c0,0.1-0.1,0.2-0.2,0.2h-0.1c-0.1,0-0.2-0.1-0.2-0.2V173
									C212.5,173,212.6,172.8,212.7,172.8z"/>
								<path class="st17" d="M211.7,172.2L211.7,172.2c0.2-0.2,0.3-0.2,0.4-0.1l0.9,0.9c0.1,0.1,0.1,0.3,0,0.4l-0.1,0.1
									c-0.1,0.1-0.3,0.1-0.4,0l-0.9-0.9C211.6,172.4,211.6,172.3,211.7,172.2z"/>
								<path class="st17" d="M212.6,173.4L212.6,173.4c-0.2-0.2-0.2-0.3-0.1-0.4l0.9-0.9c0.1-0.1,0.3-0.1,0.4,0l0.1,0.1
									c0.1,0.1,0.1,0.3,0,0.4l-0.9,0.9C212.9,173.5,212.7,173.5,212.6,173.4z"/>
								<path class="st17" d="M216.5,172.8h0.1c0.1,0,0.2,0.1,0.2,0.2v1.3c0,0.1-0.1,0.2-0.2,0.2h-0.1c-0.1,0-0.2-0.1-0.2-0.2V173
									C216.2,173,216.4,172.8,216.5,172.8z"/>
								<path class="st17" d="M215.5,172.2L215.5,172.2c0.2-0.2,0.3-0.2,0.4-0.1l0.9,0.9c0.1,0.1,0.1,0.3,0,0.4l-0.1,0.1
									c-0.1,0.1-0.3,0.1-0.4,0l-0.9-0.9C215.4,172.4,215.4,172.3,215.5,172.2z"/>
								<path class="st17" d="M216.4,173.4L216.4,173.4c-0.2-0.2-0.2-0.3-0.1-0.4l0.9-0.9c0.1-0.1,0.3-0.1,0.4,0l0.1,0.1
									c0.1,0.1,0.1,0.3,0,0.4l-0.9,0.9C216.6,173.5,216.5,173.5,216.4,173.4z"/>
								<path class="st17" d="M220.2,172.8h0.1c0.1,0,0.2,0.1,0.2,0.2v1.3c0,0.1-0.1,0.2-0.2,0.2h-0.1c-0.1,0-0.2-0.1-0.2-0.2V173
									C220,173,220.1,172.8,220.2,172.8z"/>
								<path class="st17" d="M220.6,173.3L220.6,173.3c-0.2,0.2-0.3,0.2-0.4,0.1l0,0l-0.9-0.9c-0.1-0.1-0.1-0.2,0-0.3l0,0l0.1-0.1
									c0.1-0.1,0.3-0.1,0.4,0l0.9,0.9C220.6,173.1,220.7,173.2,220.6,173.3L220.6,173.3z"/>
								<path class="st17" d="M220.1,173.4L220.1,173.4c-0.2-0.2-0.2-0.3-0.1-0.4l0.9-0.9c0.1-0.1,0.3-0.1,0.4,0l0.1,0.1
									c0.1,0.1,0.1,0.3,0,0.4l-0.9,0.9C220.4,173.5,220.2,173.5,220.1,173.4z"/>
								<path class="st17" d="M224,172.8h0.1c0.1,0,0.2,0.1,0.2,0.2v1.3c0,0.1-0.1,0.2-0.2,0.2H224c-0.1,0-0.2-0.1-0.2-0.2V173
									C223.8,173,223.9,172.8,224,172.8z"/>
								<path class="st17" d="M223,172.2L223,172.2c0.2-0.2,0.3-0.2,0.4-0.1l0.9,0.9c0.1,0.1,0.1,0.3,0,0.4l-0.1,0.1
									c-0.1,0.1-0.3,0.1-0.4,0l-0.9-0.9C222.9,172.4,222.9,172.2,223,172.2z"/>
								<path class="st17" d="M223.9,173.4L223.9,173.4c-0.2-0.2-0.2-0.3-0.1-0.4l0.9-0.9c0.1-0.1,0.3-0.1,0.4,0l0.1,0.1
									c0.1,0.1,0.1,0.3,0,0.4l-0.9,0.9C224.1,173.5,224,173.5,223.9,173.4z"/>
								<path class="st17" d="M212.7,177.1h0.1c0.1,0,0.2,0.1,0.2,0.2v1.3c0,0.1-0.1,0.2-0.2,0.2h-0.1c-0.1,0-0.2-0.1-0.2-0.2v-1.3
									C212.5,177.2,212.6,177.1,212.7,177.1z"/>
								<path class="st17" d="M211.7,176.4L211.7,176.4c0.2-0.2,0.3-0.2,0.4-0.1l0.9,0.9c0.1,0.1,0.1,0.3,0,0.4l-0.1,0.1
									c-0.1,0.1-0.3,0.1-0.4,0l-0.9-0.9C211.6,176.6,211.6,176.5,211.7,176.4z"/>
								<path class="st17" d="M212.6,177.6L212.6,177.6c-0.2-0.2-0.2-0.3-0.1-0.4l0.9-0.9c0.1-0.1,0.3-0.1,0.4,0l0.1,0.1
									c0.1,0.1,0.1,0.3,0,0.4l-0.9,0.9C212.9,177.7,212.7,177.7,212.6,177.6z"/>
								<path class="st17" d="M216.5,177.1h0.1c0.1,0,0.2,0.1,0.2,0.2v1.3c0,0.1-0.1,0.2-0.2,0.2h-0.1c-0.1,0-0.2-0.1-0.2-0.2v-1.3
									C216.2,177.2,216.4,177.1,216.5,177.1z"/>
								<path class="st17" d="M215.5,176.4L215.5,176.4c0.2-0.2,0.3-0.2,0.4-0.1l0.9,0.9c0.1,0.1,0.1,0.3,0,0.4l-0.1,0.1
									c-0.1,0.1-0.3,0.1-0.4,0l-0.9-0.9C215.4,176.6,215.4,176.5,215.5,176.4z"/>
								<path class="st17" d="M216.4,177.6L216.4,177.6c-0.2-0.2-0.2-0.3-0.1-0.4l0.9-0.9c0.1-0.1,0.3-0.1,0.4,0l0.1,0.1
									c0.1,0.1,0.1,0.3,0,0.4l-0.9,0.9C216.6,177.7,216.5,177.7,216.4,177.6z"/>
								<path class="st17" d="M220.2,177.1h0.1c0.1,0,0.2,0.1,0.2,0.2v1.3c0,0.1-0.1,0.2-0.2,0.2h-0.1c-0.1,0-0.2-0.1-0.2-0.2v-1.3
									C220,177.2,220.1,177.1,220.2,177.1z"/>
								<path class="st17" d="M219.2,176.4L219.2,176.4c0.2-0.2,0.3-0.2,0.4-0.1l0.9,0.9c0.1,0.1,0.1,0.3,0,0.4l-0.1,0.1
									c-0.1,0.1-0.3,0.1-0.4,0l-0.9-0.9C219.1,176.6,219.1,176.5,219.2,176.4z"/>
								<path class="st17" d="M220.1,177.6L220.1,177.6c-0.2-0.2-0.2-0.3-0.1-0.4l0.9-0.9c0.1-0.1,0.3-0.1,0.4,0l0.1,0.1
									c0.1,0.1,0.1,0.3,0,0.4l-0.9,0.9C220.4,177.7,220.2,177.7,220.1,177.6z"/>
								<path class="st17" d="M224,177.1h0.1c0.1,0,0.2,0.1,0.2,0.2v1.3c0,0.1-0.1,0.2-0.2,0.2H224c-0.1,0-0.2-0.1-0.2-0.2v-1.3
									C223.8,177.2,223.9,177.1,224,177.1z"/>
								<path class="st17" d="M223,176.4L223,176.4c0.2-0.2,0.3-0.2,0.4-0.1l0.9,0.9c0.1,0.1,0.1,0.3,0,0.4l-0.1,0.1
									c-0.1,0.1-0.3,0.1-0.4,0l-0.9-0.9C222.9,176.6,222.9,176.5,223,176.4z"/>
								<path class="st17" d="M223.9,177.6L223.9,177.6c-0.2-0.2-0.2-0.3-0.1-0.4l0.9-0.9c0.1-0.1,0.3-0.1,0.4,0l0.1,0.1
									c0.1,0.1,0.1,0.3,0,0.4l-0.9,0.9C224.1,177.7,224,177.7,223.9,177.6z"/>
								<path class="st17" d="M212.7,181.3h0.1c0.1,0,0.2,0.1,0.2,0.2v1.3c0,0.1-0.1,0.2-0.2,0.2h-0.1c-0.1,0-0.2-0.1-0.2-0.2v-1.3
									C212.5,181.4,212.6,181.3,212.7,181.3z"/>
								<path class="st17" d="M211.7,180.6L211.7,180.6c0.2-0.2,0.3-0.2,0.4-0.1l0.9,0.9c0.1,0.1,0.1,0.3,0,0.4l-0.1,0.1
									c-0.1,0.1-0.3,0.1-0.4,0l-0.9-0.9C211.6,180.9,211.6,180.7,211.7,180.6z"/>
								<path class="st17" d="M212.6,181.9L212.6,181.9c-0.2-0.2-0.2-0.3-0.1-0.4l0.9-0.9c0.1-0.1,0.3-0.1,0.4,0l0.1,0.1
									c0.1,0.1,0.1,0.3,0,0.4L213,182C212.9,182,212.7,182,212.6,181.9z"/>
								<path class="st17" d="M216.5,181.3h0.1c0.1,0,0.2,0.1,0.2,0.2v1.3c0,0.1-0.1,0.2-0.2,0.2h-0.1c-0.1,0-0.2-0.1-0.2-0.2v-1.3
									C216.2,181.4,216.4,181.3,216.5,181.3z"/>
								<path class="st17" d="M215.5,180.6L215.5,180.6c0.2-0.2,0.3-0.2,0.4-0.1l0.9,0.9c0.1,0.1,0.1,0.3,0,0.4l-0.1,0.1
									c-0.1,0.1-0.3,0.1-0.4,0l-0.9-0.9C215.4,180.9,215.4,180.7,215.5,180.6z"/>
								<path class="st17" d="M216.4,181.9L216.4,181.9c-0.2-0.2-0.2-0.3-0.1-0.4l0.9-0.9c0.1-0.1,0.3-0.1,0.4,0l0.1,0.1
									c0.1,0.1,0.1,0.3,0,0.4l-0.9,0.9C216.6,182,216.5,182,216.4,181.9z"/>
								<path class="st17" d="M220.2,181.3h0.1c0.1,0,0.2,0.1,0.2,0.2v1.3c0,0.1-0.1,0.2-0.2,0.2h-0.1c-0.1,0-0.2-0.1-0.2-0.2v-1.3
									C220,181.4,220.1,181.3,220.2,181.3z"/>
								<path class="st17" d="M220.6,181.8L220.6,181.8c-0.2,0.2-0.3,0.2-0.4,0.1l-0.9-0.9c-0.1-0.1-0.1-0.3,0-0.4l0,0l0.1-0.1
									c0.1-0.1,0.3-0.1,0.4,0l0,0l0.9,0.9C220.6,181.5,220.7,181.7,220.6,181.8L220.6,181.8z"/>
								<path class="st17" d="M220.1,181.9L220.1,181.9c-0.2-0.2-0.2-0.3-0.1-0.4l0.9-0.9c0.1-0.1,0.3-0.1,0.4,0l0.1,0.1
									c0.1,0.1,0.1,0.3,0,0.4l-0.9,0.9C220.4,182,220.2,182,220.1,181.9z"/>
								<path class="st17" d="M224,181.3h0.1c0.1,0,0.2,0.1,0.2,0.2v1.3c0,0.1-0.1,0.2-0.2,0.2H224c-0.1,0-0.2-0.1-0.2-0.2v-1.3
									C223.8,181.4,223.9,181.3,224,181.3z"/>
								<path class="st17" d="M223,180.6L223,180.6c0.2-0.2,0.3-0.2,0.4-0.1l0.9,0.9c0.1,0.1,0.1,0.3,0,0.4l-0.1,0.1
									c-0.1,0.1-0.3,0.1-0.4,0L223,181C222.9,180.9,222.9,180.7,223,180.6z"/>
								<path class="st17" d="M223.9,181.9L223.9,181.9c-0.2-0.2-0.2-0.3-0.1-0.4l0.9-0.9c0.1-0.1,0.3-0.1,0.4,0l0.1,0.1
									c0.1,0.1,0.1,0.3,0,0.4l-0.9,0.9C224.1,182,224,182,223.9,181.9z"/>
								<path class="st17" d="M212.7,185.5h0.1c0.1,0,0.2,0.1,0.2,0.2v1.3c0,0.1-0.1,0.2-0.2,0.2h-0.1c-0.1,0-0.2-0.1-0.2-0.2v-1.3
									C212.5,185.6,212.6,185.5,212.7,185.5z"/>
								<path class="st17" d="M211.7,184.9L211.7,184.9c0.2-0.2,0.3-0.2,0.4-0.1l0.9,0.9c0.1,0.1,0.1,0.3,0,0.4l-0.1,0.1
									c-0.1,0.1-0.3,0.1-0.4,0l-0.9-0.9C211.6,185.1,211.6,185,211.7,184.9z"/>
								<path class="st17" d="M212.6,186.1L212.6,186.1c-0.2-0.2-0.2-0.3-0.1-0.4l0.9-0.9c0.1-0.1,0.3-0.1,0.4,0l0.1,0.1
									c0.1,0.1,0.1,0.3,0,0.4l-0.9,0.9C212.9,186.2,212.7,186.2,212.6,186.1z"/>
								<path class="st17" d="M216.5,185.5h0.1c0.1,0,0.2,0.1,0.2,0.2v1.3c0,0.1-0.1,0.2-0.2,0.2h-0.1c-0.1,0-0.2-0.1-0.2-0.2v-1.3
									C216.2,185.6,216.4,185.5,216.5,185.5z"/>
								<path class="st17" d="M215.5,184.9L215.5,184.9c0.2-0.2,0.3-0.2,0.4-0.1l0.9,0.9c0.1,0.1,0.1,0.3,0,0.4l-0.1,0.1
									c-0.1,0.1-0.3,0.1-0.4,0l-0.9-0.9C215.4,185.1,215.4,185,215.5,184.9z"/>
								<path class="st17" d="M216.4,186.1L216.4,186.1c-0.2-0.2-0.2-0.3-0.1-0.4l0.9-0.9c0.1-0.1,0.3-0.1,0.4,0l0.1,0.1
									c0.1,0.1,0.1,0.3,0,0.4l-0.9,0.9C216.6,186.2,216.5,186.2,216.4,186.1z"/>
								<path class="st17" d="M220.2,185.5h0.1c0.1,0,0.2,0.1,0.2,0.2v1.3c0,0.1-0.1,0.2-0.2,0.2h-0.1c-0.1,0-0.2-0.1-0.2-0.2v-1.3
									C220,185.6,220.1,185.5,220.2,185.5z"/>
								<path class="st17" d="M219.2,184.9L219.2,184.9c0.2-0.2,0.3-0.2,0.4-0.1l0.9,0.9c0.1,0.1,0.1,0.3,0,0.4l-0.1,0.1
									c-0.1,0.1-0.3,0.1-0.4,0l-0.9-0.9C219.1,185.1,219.1,185,219.2,184.9z"/>
								<path class="st17" d="M220.1,186.1L220.1,186.1c-0.2-0.2-0.2-0.3-0.1-0.4l0.9-0.9c0.1-0.1,0.3-0.1,0.4,0l0.1,0.1
									c0.1,0.1,0.1,0.3,0,0.4l-0.9,0.9C220.4,186.2,220.2,186.2,220.1,186.1z"/>
								<path class="st17" d="M224,185.5h0.1c0.1,0,0.2,0.1,0.2,0.2v1.3c0,0.1-0.1,0.2-0.2,0.2H224c-0.1,0-0.2-0.1-0.2-0.2v-1.3
									C223.8,185.6,223.9,185.5,224,185.5z"/>
								<path class="st17" d="M223,184.9L223,184.9c0.2-0.2,0.3-0.2,0.4-0.1l0.9,0.9c0.1,0.1,0.1,0.3,0,0.4l-0.1,0.1
									c-0.1,0.1-0.3,0.1-0.4,0l-0.9-0.9C222.9,185.1,222.9,185,223,184.9z"/>
								<path class="st17" d="M223.9,186.1L223.9,186.1c-0.2-0.2-0.2-0.3-0.1-0.4l0.9-0.9c0.1-0.1,0.3-0.1,0.4,0l0.1,0.1
									c0.1,0.1,0.1,0.3,0,0.4l-0.9,0.9C224.1,186.2,224,186.2,223.9,186.1z"/>
								<path class="st17" d="M212.7,189.8h0.1c0.1,0,0.2,0.1,0.2,0.2v1.3c0,0.1-0.1,0.2-0.2,0.2h-0.1c-0.1,0-0.2-0.1-0.2-0.2V190
									C212.5,189.9,212.6,189.8,212.7,189.8z"/>
								<path class="st17" d="M211.7,189.1L211.7,189.1c0.2-0.2,0.3-0.2,0.4-0.1l0.9,0.9c0.1,0.1,0.1,0.3,0,0.4l-0.1,0.1
									c-0.1,0.1-0.3,0.1-0.4,0l-0.9-0.9C211.6,189.3,211.6,189.2,211.7,189.1z"/>
								<path class="st17" d="M212.6,190.3L212.6,190.3c-0.2-0.2-0.2-0.3-0.1-0.4l0.9-0.9c0.1-0.1,0.3-0.1,0.4,0l0.1,0.1
									c0.1,0.1,0.1,0.3,0,0.4l-0.9,0.9C212.9,190.4,212.7,190.4,212.6,190.3z"/>
								<path class="st17" d="M216.5,189.8h0.1c0.1,0,0.2,0.1,0.2,0.2v1.3c0,0.1-0.1,0.2-0.2,0.2h-0.1c-0.1,0-0.2-0.1-0.2-0.2V190
									C216.2,189.9,216.4,189.8,216.5,189.8z"/>
								<path class="st17" d="M215.5,189.1L215.5,189.1c0.2-0.2,0.3-0.2,0.4-0.1l0.9,0.9c0.1,0.1,0.1,0.3,0,0.4l-0.1,0.1
									c-0.1,0.1-0.3,0.1-0.4,0l-0.9-0.9C215.4,189.3,215.4,189.2,215.5,189.1z"/>
								<path class="st17" d="M216.4,190.3L216.4,190.3c-0.2-0.2-0.2-0.3-0.1-0.4l0.9-0.9c0.1-0.1,0.3-0.1,0.4,0l0.1,0.1
									c0.1,0.1,0.1,0.3,0,0.4l-0.9,0.9C216.6,190.4,216.5,190.4,216.4,190.3z"/>
								<path class="st17" d="M220.2,189.8h0.1c0.1,0,0.2,0.1,0.2,0.2v1.3c0,0.1-0.1,0.2-0.2,0.2h-0.1c-0.1,0-0.2-0.1-0.2-0.2V190
									C220,189.9,220.1,189.8,220.2,189.8z"/>
								<path class="st17" d="M219.2,189.1L219.2,189.1c0.2-0.2,0.3-0.2,0.4-0.1l0.9,0.9c0.1,0.1,0.1,0.3,0,0.4l-0.1,0.1
									c-0.1,0.1-0.3,0.1-0.4,0l-0.9-0.9C219.1,189.3,219.1,189.2,219.2,189.1z"/>
								<path class="st17" d="M220.1,190.3L220.1,190.3c-0.2-0.2-0.2-0.3-0.1-0.4l0.9-0.9c0.1-0.1,0.3-0.1,0.4,0l0.1,0.1
									c0.1,0.1,0.1,0.3,0,0.4l-0.9,0.9C220.4,190.4,220.2,190.4,220.1,190.3z"/>
								<path class="st17" d="M224,189.8h0.1c0.1,0,0.2,0.1,0.2,0.2v1.3c0,0.1-0.1,0.2-0.2,0.2H224c-0.1,0-0.2-0.1-0.2-0.2V190
									C223.8,189.9,223.9,189.8,224,189.8z"/>
								<path class="st17" d="M223,189.1L223,189.1c0.2-0.2,0.3-0.2,0.4-0.1l0.9,0.9c0.1,0.1,0.1,0.3,0,0.4l-0.1,0.1
									c-0.1,0.1-0.3,0.1-0.4,0l-0.9-0.9C222.9,189.3,222.9,189.2,223,189.1z"/>
								<path class="st17" d="M223.9,190.3L223.9,190.3c-0.2-0.2-0.2-0.3-0.1-0.4l0.9-0.9c0.1-0.1,0.3-0.1,0.4,0l0.1,0.1
									c0.1,0.1,0.1,0.3,0,0.4l-0.9,0.9C224.1,190.4,224,190.4,223.9,190.3z"/>
								<path class="st14" d="M226.3,128.3h-9.6c-0.5,0-1-0.4-1-1v-0.4c0-0.5,0.4-1,1-1h9.6c0.5,0,1,0.4,1,1v0.4
									C227.3,127.9,226.8,128.3,226.3,128.3z"/>
								<path class="st14" d="M219.7,125.3c0,1.7,1.3,3,3,3s3-1.3,3-3s-1.3-3-3-3S219.7,123.7,219.7,125.3z"/>
								<path class="st14" d="M217.3,126.2c0,1.2,0.9,2.1,2.1,2.1c1.2,0,2.1-0.9,2.1-2.1s-0.9-2.1-2.1-2.1l0,0
									C218.2,124.1,217.3,125,217.3,126.2L217.3,126.2z"/>
								<path class="st18" d="M185.9,153.2h4.3c0.2,0,0.4,0.2,0.4,0.4v0.1c0,0.2-0.2,0.4-0.4,0.4h-4.3c-0.2,0-0.4-0.2-0.4-0.4v-0.1
									C185.5,153.3,185.7,153.2,185.9,153.2z"/>
								<path class="st18" d="M186.3,154h3.8c0.2,0,0.3,0.1,0.3,0.3v0.1c0,0.2-0.1,0.3-0.3,0.3h-3.8c-0.2,0-0.3-0.1-0.3-0.3v-0.1
									C186,154.2,186.1,154,186.3,154z"/>
								<path class="st18" d="M191.6,153.5c0,0.5-0.4,0.9-0.9,0.9s-0.9-0.4-0.9-0.9s0.4-0.9,0.9-0.9l0,0
									C191.2,152.6,191.6,153,191.6,153.5z"/>
								<path class="st18" d="M186.6,153.2c0.1,0.5-0.3,1-0.8,1c-0.5,0.1-1-0.3-1-0.8c0-0.1,0-0.1,0-0.2c0.1-0.5,0.5-0.9,1-0.8
									C186.2,152.4,186.5,152.7,186.6,153.2z"/>
								<path class="st18" d="M187.2,153.2c0,0.2-0.1,0.3-0.3,0.3s-0.3-0.1-0.3-0.3s0.1-0.3,0.3-0.3l0,0
									C187,152.9,187.2,153,187.2,153.2z"/>
								<path class="st18" d="M189.8,153.2c0,0.2-0.2,0.4-0.4,0.4s-0.4-0.2-0.4-0.4s0.2-0.4,0.4-0.4l0,0
									C189.7,152.8,189.8,153,189.8,153.2z"/>
								<path class="st18" d="M186.4,154.2c0,0.3-0.2,0.5-0.5,0.5s-0.5-0.2-0.5-0.5l0,0c0-0.3,0.2-0.5,0.5-0.5
									S186.4,153.9,186.4,154.2z"/>
								<path class="st19" d="M189.1,138.1c-1,5.5-0.4,11.2,1.7,16.3c-1.5,1.4-3.9,1.4-5.4,0c0,0,1.2-17.2,4.5-17.1
									C189.9,137.3,189.4,138.1,189.1,138.1z"/>
								<path class="st2" d="M185,153.9h5.6c0.2,0,0.4,0.2,0.4,0.4v0.2c0,0.2-0.2,0.4-0.4,0.4H185c-0.2,0-0.4-0.2-0.4-0.4v-0.2
									C184.6,154.1,184.8,153.9,185,153.9z"/>
								<path class="st2" d="M185.6,155h4.9c0.2,0,0.4,0.2,0.4,0.4v0.2c0,0.2-0.2,0.4-0.4,0.4h-4.9c-0.2,0-0.4-0.2-0.4-0.4v-0.2
									C185.1,155.2,185.3,155,185.6,155z"/>
								<path class="st2" d="M192.5,154.3c0,0.7-0.5,1.2-1.2,1.2s-1.2-0.5-1.2-1.2s0.5-1.2,1.2-1.2l0,0
									C191.9,153.1,192.5,153.6,192.5,154.3z"/>
								<path class="st2" d="M185.9,153.9c0,0.7-0.5,1.2-1.2,1.2s-1.2-0.5-1.2-1.2s0.5-1.2,1.2-1.2S185.9,153.2,185.9,153.9
									L185.9,153.9z"/>
								<path class="st2" d="M186.7,153.9c0,0.2-0.3,0.4-0.5,0.4s-0.3-0.2-0.4-0.4c0-0.2,0.1-0.4,0.4-0.5c0.2,0,0.4,0.1,0.5,0.4
									C186.7,153.8,186.7,153.9,186.7,153.9z"/>
								<path class="st2" d="M190.1,153.9c0,0.3-0.2,0.5-0.5,0.5s-0.5-0.2-0.5-0.5s0.2-0.5,0.5-0.5
									C189.9,153.4,190.1,153.6,190.1,153.9L190.1,153.9z"/>
								<path class="st2" d="M185.7,155.2c0,0.3-0.2,0.6-0.6,0.6l0,0c-0.3,0-0.6-0.3-0.6-0.6l0,0c0-0.3,0.3-0.6,0.6-0.6l0,0
									C185.5,154.6,185.7,154.9,185.7,155.2L185.7,155.2z"/>
								<path class="st13" d="M175.9,156h3.5c0.2,0,0.3,0.1,0.3,0.3v0.1c0,0.2-0.1,0.3-0.3,0.3h-3.5c-0.2,0-0.3-0.1-0.3-0.3v-0.1
									C175.6,156.1,175.7,156,175.9,156z"/>
								<path class="st13" d="M170.8,153.2h7.9c0.2,0,0.4,0.2,0.4,0.4v0.1c0,0.2-0.2,0.4-0.4,0.4h-7.9c-0.2,0-0.4-0.2-0.4-0.4v-0.1
									C170.4,153.4,170.6,153.2,170.8,153.2z"/>
								<path class="st17" d="M171.6,164.4h0.1c0.1,0,0.2,0.1,0.2,0.2v1.3c0,0.1-0.1,0.2-0.2,0.2h-0.1c-0.1,0-0.2-0.1-0.2-0.2v-1.3
									C171.4,164.5,171.5,164.4,171.6,164.4z"/>
								<path class="st17" d="M170.6,163.7L170.6,163.7c0.2-0.2,0.3-0.2,0.4-0.1l0.9,0.9c0.1,0.1,0.1,0.3,0,0.4l-0.1,0.1
									c-0.1,0.1-0.3,0.1-0.4,0l-0.9-0.9C170.5,164,170.5,163.8,170.6,163.7z"/>
								<path class="st17" d="M171.5,165L171.5,165c-0.2-0.2-0.2-0.3-0.1-0.4l0.9-0.9c0.1-0.1,0.3-0.1,0.4,0l0.1,0.1
									c0.1,0.1,0.1,0.3,0,0.4l-0.9,0.9C171.7,165,171.5,165,171.5,165z"/>
								<path class="st17" d="M175.4,164.4h0.1c0.1,0,0.2,0.1,0.2,0.2v1.3c0,0.1-0.1,0.2-0.2,0.2h-0.1c-0.1,0-0.2-0.1-0.2-0.2v-1.3
									C175.1,164.5,175.2,164.4,175.4,164.4z"/>
								<path class="st17" d="M174.3,163.7L174.3,163.7c0.2-0.2,0.3-0.2,0.4-0.1l0.9,0.9c0.1,0.1,0.1,0.3,0,0.4l-0.1,0.1
									c-0.1,0.1-0.3,0.1-0.4,0l-0.9-0.9C174.2,164,174.2,163.8,174.3,163.7z"/>
								<path class="st17" d="M175.2,165L175.2,165c-0.2-0.2-0.2-0.3-0.1-0.4l0.9-0.9c0.1-0.1,0.3-0.1,0.4,0l0.1,0.1
									c0.1,0.1,0.1,0.3,0,0.4l-0.9,0.9C175.5,165.1,175.3,165.1,175.2,165z"/>
								<path class="st17" d="M179.1,164.4h0.1c0.1,0,0.2,0.1,0.2,0.2v1.3c0,0.1-0.1,0.2-0.2,0.2h-0.1c-0.1,0-0.2-0.1-0.2-0.2v-1.3
									C178.9,164.5,179,164.4,179.1,164.4z"/>
								<path class="st17" d="M178.1,163.7L178.1,163.7c0.2-0.2,0.3-0.2,0.4-0.1l0.9,0.9c0.1,0.1,0.1,0.3,0,0.4l-0.1,0.1
									c-0.1,0.1-0.3,0.1-0.4,0l-0.9-0.9C178,164,178,163.8,178.1,163.7z"/>
								<path class="st17" d="M179,165L179,165c-0.2-0.2-0.2-0.3-0.1-0.4l0.9-0.9c0.1-0.1,0.3-0.1,0.4,0l0.1,0.1
									c0.1,0.1,0.1,0.3,0,0.4l-0.9,0.9C179.2,165.1,179.1,165.1,179,165z"/>
								<path class="st17" d="M182.9,164.4h0.1c0.1,0,0.2,0.1,0.2,0.2v1.3c0,0.1-0.1,0.2-0.2,0.2h-0.1c-0.1,0-0.2-0.1-0.2-0.2v-1.3
									C182.6,164.5,182.7,164.4,182.9,164.4z"/>
								<path class="st17" d="M181.8,163.7L181.8,163.7c0.2-0.2,0.3-0.2,0.4-0.1l0.9,0.9c0.1,0.1,0.1,0.3,0,0.4L183,165
									c-0.1,0.1-0.3,0.1-0.4,0l-0.9-0.9C181.7,164,181.7,163.8,181.8,163.7z"/>
								<path class="st17" d="M182.7,164.9L182.7,164.9c-0.2-0.2-0.2-0.3-0.1-0.4l0.9-0.9c0.1-0.1,0.3-0.1,0.4,0l0.1,0.1
									c0.1,0.1,0.1,0.3,0,0.4l-0.9,0.9C183,165,182.8,165,182.7,164.9z"/>
								<path class="st17" d="M171.6,168.6h0.1c0.1,0,0.2,0.1,0.2,0.2v1.3c0,0.1-0.1,0.2-0.2,0.2h-0.1c-0.1,0-0.2-0.1-0.2-0.2v-1.3
									C171.4,168.7,171.5,168.6,171.6,168.6z"/>
								<path class="st17" d="M170.6,167.9L170.6,167.9c0.2-0.2,0.3-0.2,0.4-0.1l0.9,0.9c0.1,0.1,0.1,0.3,0,0.4l-0.1,0.1
									c-0.1,0.1-0.3,0.1-0.4,0l-0.9-0.9C170.5,168.2,170.5,168,170.6,167.9z"/>
								<path class="st17" d="M171.5,169.2L171.5,169.2c-0.2-0.2-0.2-0.3-0.1-0.4l0.9-0.9c0.1-0.1,0.3-0.1,0.4,0l0.1,0.1
									c0.1,0.1,0.1,0.3,0,0.4l-0.9,0.9C171.7,169.3,171.6,169.3,171.5,169.2z"/>
								<path class="st17" d="M175.4,168.6h0.1c0.1,0,0.2,0.1,0.2,0.2v1.3c0,0.1-0.1,0.2-0.2,0.2h-0.1c-0.1,0-0.2-0.1-0.2-0.2v-1.3
									C175.1,168.7,175.2,168.6,175.4,168.6z"/>
								<path class="st17" d="M174.3,167.9L174.3,167.9c0.2-0.2,0.3-0.2,0.4-0.1l0.9,0.9c0.1,0.1,0.1,0.3,0,0.4l-0.1,0.1
									c-0.1,0.1-0.3,0.1-0.4,0l-0.9-0.9C174.2,168.2,174.2,168,174.3,167.9z"/>
								<path class="st17" d="M175.2,169.2L175.2,169.2c-0.2-0.2-0.2-0.3-0.1-0.4l0.9-0.9c0.1-0.1,0.3-0.1,0.4,0l0.1,0.1
									c0.1,0.1,0.1,0.3,0,0.4l-0.9,0.9C175.5,169.3,175.3,169.3,175.2,169.2z"/>
								<path class="st17" d="M179.1,168.6h0.1c0.1,0,0.2,0.1,0.2,0.2v1.3c0,0.1-0.1,0.2-0.2,0.2h-0.1c-0.1,0-0.2-0.1-0.2-0.2v-1.3
									C178.9,168.7,179,168.6,179.1,168.6z"/>
								<path class="st17" d="M178.1,167.9L178.1,167.9c0.2-0.2,0.3-0.2,0.4-0.1l0.9,0.9c0.1,0.1,0.1,0.3,0,0.4l-0.1,0.1
									c-0.1,0.1-0.3,0.1-0.4,0l-0.9-0.9C178,168.2,178,168,178.1,167.9z"/>
								<path class="st17" d="M179,169.2L179,169.2c-0.2-0.2-0.2-0.3-0.1-0.4l0.9-0.9c0.1-0.1,0.3-0.1,0.4,0l0.1,0.1
									c0.1,0.1,0.1,0.3,0,0.4l-0.9,0.9C179.2,169.3,179.1,169.3,179,169.2z"/>
								<path class="st17" d="M182.9,168.6h0.1c0.1,0,0.2,0.1,0.2,0.2v1.3c0,0.1-0.1,0.2-0.2,0.2h-0.1c-0.1,0-0.2-0.1-0.2-0.2v-1.3
									C182.6,168.7,182.7,168.6,182.9,168.6z"/>
								<path class="st17" d="M181.8,167.9L181.8,167.9c0.2-0.2,0.3-0.2,0.4-0.1l0.9,0.9c0.1,0.1,0.1,0.3,0,0.4l-0.1,0.1
									c-0.1,0.1-0.3,0.1-0.4,0l-0.9-0.9C181.7,168.2,181.7,168,181.8,167.9z"/>
								<path class="st17" d="M182.6,169.1L182.6,169.1c0.2,0.2,0.3,0.2,0.4,0.1l0,0l0.9-0.9c0.1-0.1,0.1-0.3,0-0.4l0,0l-0.1-0.1
									c-0.1-0.1-0.3-0.1-0.4,0l-0.9,0.9C182.6,168.8,182.5,169,182.6,169.1L182.6,169.1z"/>
								<path class="st17" d="M171.6,172.8h0.1c0.1,0,0.2,0.1,0.2,0.2v1.3c0,0.1-0.1,0.2-0.2,0.2h-0.1c-0.1,0-0.2-0.1-0.2-0.2V173
									C171.4,173,171.5,172.8,171.6,172.8z"/>
								<path class="st17" d="M170.6,172.2L170.6,172.2c0.2-0.2,0.3-0.2,0.4-0.1l0.9,0.9c0.1,0.1,0.1,0.3,0,0.4l-0.1,0.1
									c-0.1,0.1-0.3,0.1-0.4,0l-0.9-0.9C170.5,172.4,170.5,172.3,170.6,172.2z"/>
								<path class="st17" d="M171.5,173.4L171.5,173.4c-0.2-0.2-0.2-0.3-0.1-0.4l0.9-0.9c0.1-0.1,0.3-0.1,0.4,0l0.1,0.1
									c0.1,0.1,0.1,0.3,0,0.4l-0.9,0.9C171.7,173.5,171.6,173.5,171.5,173.4z"/>
								<path class="st17" d="M175.4,172.8h0.1c0.1,0,0.2,0.1,0.2,0.2v1.3c0,0.1-0.1,0.2-0.2,0.2h-0.1c-0.1,0-0.2-0.1-0.2-0.2V173
									C175.1,173,175.2,172.8,175.4,172.8z"/>
								<path class="st17" d="M174.3,172.2L174.3,172.2c0.2-0.2,0.3-0.2,0.4-0.1l0.9,0.9c0.1,0.1,0.1,0.3,0,0.4l-0.1,0.1
									c-0.1,0.1-0.3,0.1-0.4,0l-0.9-0.9C174.2,172.4,174.2,172.2,174.3,172.2z"/>
								<path class="st17" d="M175.2,173.4L175.2,173.4c-0.2-0.2-0.2-0.3-0.1-0.4l0.9-0.9c0.1-0.1,0.3-0.1,0.4,0l0.1,0.1
									c0.1,0.1,0.1,0.3,0,0.4l-0.9,0.9C175.5,173.5,175.3,173.5,175.2,173.4z"/>
								<path class="st17" d="M179.1,172.8h0.1c0.1,0,0.2,0.1,0.2,0.2v1.3c0,0.1-0.1,0.2-0.2,0.2h-0.1c-0.1,0-0.2-0.1-0.2-0.2V173
									C178.9,173,179,172.8,179.1,172.8z"/>
								<path class="st17" d="M178.1,172.2L178.1,172.2c0.2-0.2,0.3-0.2,0.4-0.1l0.9,0.9c0.1,0.1,0.1,0.3,0,0.4l-0.1,0.1
									c-0.1,0.1-0.3,0.1-0.4,0l-0.9-0.9C178,172.4,178,172.3,178.1,172.2z"/>
								<path class="st17" d="M179,173.4L179,173.4c-0.2-0.2-0.2-0.3-0.1-0.4l0.9-0.9c0.1-0.1,0.3-0.1,0.4,0l0.1,0.1
									c0.1,0.1,0.1,0.3,0,0.4l-0.9,0.9C179.2,173.5,179.1,173.5,179,173.4z"/>
								<path class="st17" d="M182.9,172.8h0.1c0.1,0,0.2,0.1,0.2,0.2v1.3c0,0.1-0.1,0.2-0.2,0.2h-0.1c-0.1,0-0.2-0.1-0.2-0.2V173
									C182.6,173,182.7,172.8,182.9,172.8z"/>
								<path class="st17" d="M181.8,172.2L181.8,172.2c0.2-0.2,0.3-0.2,0.4-0.1l0.9,0.9c0.1,0.1,0.1,0.3,0,0.4l-0.1,0.1
									c-0.1,0.1-0.3,0.1-0.4,0l-0.9-0.9C181.7,172.4,181.7,172.3,181.8,172.2z"/>
								<path class="st17" d="M182.6,173.3L182.6,173.3c0.2,0.2,0.3,0.2,0.4,0.1l0,0l0.9-0.9c0.1-0.1,0.1-0.2,0-0.3l0,0l-0.1-0.1
									c-0.1-0.1-0.3-0.1-0.4,0l-0.9,0.9C182.6,173.1,182.5,173.2,182.6,173.3L182.6,173.3z"/>
								<path class="st17" d="M171.6,177.1h0.1c0.1,0,0.2,0.1,0.2,0.2v1.3c0,0.1-0.1,0.2-0.2,0.2h-0.1c-0.1,0-0.2-0.1-0.2-0.2v-1.3
									C171.4,177.2,171.5,177.1,171.6,177.1z"/>
								<path class="st17" d="M170.6,176.4L170.6,176.4c0.2-0.2,0.3-0.2,0.4-0.1l0.9,0.9c0.1,0.1,0.1,0.3,0,0.4l-0.1,0.1
									c-0.1,0.1-0.3,0.1-0.4,0l-0.9-0.9C170.5,176.7,170.5,176.5,170.6,176.4z"/>
								<path class="st17" d="M171.5,177.6L171.5,177.6c-0.2-0.2-0.2-0.3-0.1-0.4l0.9-0.9c0.1-0.1,0.3-0.1,0.4,0l0.1,0.1
									c0.1,0.1,0.1,0.3,0,0.4l-0.9,0.9C171.7,177.7,171.6,177.7,171.5,177.6z"/>
								<path class="st17" d="M175.4,177.1h0.1c0.1,0,0.2,0.1,0.2,0.2v1.3c0,0.1-0.1,0.2-0.2,0.2h-0.1c-0.1,0-0.2-0.1-0.2-0.2v-1.3
									C175.1,177.2,175.2,177.1,175.4,177.1z"/>
								<path class="st17" d="M174.3,176.4L174.3,176.4c0.2-0.2,0.3-0.2,0.4-0.1l0.9,0.9c0.1,0.1,0.1,0.3,0,0.4l-0.1,0.1
									c-0.1,0.1-0.3,0.1-0.4,0l-0.9-0.9C174.2,176.6,174.2,176.5,174.3,176.4z"/>
								<path class="st17" d="M175.2,177.6L175.2,177.6c-0.2-0.2-0.2-0.3-0.1-0.4l0.9-0.9c0.1-0.1,0.3-0.1,0.4,0l0.1,0.1
									c0.1,0.1,0.1,0.3,0,0.4l-0.9,0.9C175.5,177.7,175.3,177.7,175.2,177.6z"/>
								<path class="st17" d="M179.1,177.1h0.1c0.1,0,0.2,0.1,0.2,0.2v1.3c0,0.1-0.1,0.2-0.2,0.2h-0.1c-0.1,0-0.2-0.1-0.2-0.2v-1.3
									C178.9,177.2,179,177.1,179.1,177.1z"/>
								<path class="st17" d="M178.1,176.4L178.1,176.4c0.2-0.2,0.3-0.2,0.4-0.1l0.9,0.9c0.1,0.1,0.1,0.3,0,0.4l-0.1,0.1
									c-0.1,0.1-0.3,0.1-0.4,0l-0.9-0.9C178,176.6,178,176.5,178.1,176.4z"/>
								<path class="st17" d="M179,177.6L179,177.6c-0.2-0.2-0.2-0.3-0.1-0.4l0.9-0.9c0.1-0.1,0.3-0.1,0.4,0l0.1,0.1
									c0.1,0.1,0.1,0.3,0,0.4l-0.9,0.9C179.2,177.7,179.1,177.7,179,177.6z"/>
								<path class="st17" d="M182.9,177.1h0.1c0.1,0,0.2,0.1,0.2,0.2v1.3c0,0.1-0.1,0.2-0.2,0.2h-0.1c-0.1,0-0.2-0.1-0.2-0.2v-1.3
									C182.6,177.2,182.7,177.1,182.9,177.1z"/>
								<path class="st17" d="M181.8,176.4L181.8,176.4c0.2-0.2,0.3-0.2,0.4-0.1l0.9,0.9c0.1,0.1,0.1,0.3,0,0.4l-0.1,0.1
									c-0.1,0.1-0.3,0.1-0.4,0l-0.9-0.9C181.7,176.6,181.7,176.5,181.8,176.4z"/>
								<path class="st17" d="M182.7,177.6L182.7,177.6c-0.2-0.2-0.2-0.3-0.1-0.4l0.9-0.9c0.1-0.1,0.3-0.1,0.4,0l0.1,0.1
									c0.1,0.1,0.1,0.3,0,0.4l-0.9,0.9C183,177.7,182.8,177.7,182.7,177.6z"/>
								<path class="st17" d="M171.6,181.3h0.1c0.1,0,0.2,0.1,0.2,0.2v1.3c0,0.1-0.1,0.2-0.2,0.2h-0.1c-0.1,0-0.2-0.1-0.2-0.2v-1.3
									C171.4,181.4,171.5,181.3,171.6,181.3z"/>
								<path class="st17" d="M170.6,180.6L170.6,180.6c0.2-0.2,0.3-0.2,0.4-0.1l0.9,0.9c0.1,0.1,0.1,0.3,0,0.4l-0.1,0.1
									c-0.1,0.1-0.3,0.1-0.4,0l-0.9-0.9C170.5,180.9,170.5,180.7,170.6,180.6z"/>
								<path class="st17" d="M171.5,181.9L171.5,181.9c-0.2-0.2-0.2-0.3-0.1-0.4l0.9-0.9c0.1-0.1,0.3-0.1,0.4,0l0.1,0.1
									c0.1,0.1,0.1,0.3,0,0.4l-0.9,0.9C171.7,182,171.6,182,171.5,181.9z"/>
								<path class="st17" d="M175.4,181.3h0.1c0.1,0,0.2,0.1,0.2,0.2v1.3c0,0.1-0.1,0.2-0.2,0.2h-0.1c-0.1,0-0.2-0.1-0.2-0.2v-1.3
									C175.1,181.4,175.2,181.3,175.4,181.3z"/>
								<path class="st17" d="M174.3,180.6L174.3,180.6c0.2-0.2,0.3-0.2,0.4-0.1l0.9,0.9c0.1,0.1,0.1,0.3,0,0.4l-0.1,0.1
									c-0.1,0.1-0.3,0.1-0.4,0l-0.9-0.9C174.2,180.9,174.2,180.7,174.3,180.6z"/>
								<path class="st17" d="M175.2,181.9L175.2,181.9c-0.2-0.2-0.2-0.3-0.1-0.4l0.9-0.9c0.1-0.1,0.3-0.1,0.4,0l0.1,0.1
									c0.1,0.1,0.1,0.3,0,0.4l-0.9,0.9C175.5,182,175.3,182,175.2,181.9z"/>
								<path class="st17" d="M179.1,181.3h0.1c0.1,0,0.2,0.1,0.2,0.2v1.3c0,0.1-0.1,0.2-0.2,0.2h-0.1c-0.1,0-0.2-0.1-0.2-0.2v-1.3
									C178.9,181.4,179,181.3,179.1,181.3z"/>
								<path class="st17" d="M178.1,180.6L178.1,180.6c0.2-0.2,0.3-0.2,0.4-0.1l0.9,0.9c0.1,0.1,0.1,0.3,0,0.4l-0.1,0.1
									c-0.1,0.1-0.3,0.1-0.4,0L178,181C178,180.9,178,180.7,178.1,180.6z"/>
								<path class="st17" d="M179,181.9L179,181.9c-0.2-0.2-0.2-0.3-0.1-0.4l0.9-0.9c0.1-0.1,0.3-0.1,0.4,0l0.1,0.1
									c0.1,0.1,0.1,0.3,0,0.4l-0.9,0.9C179.2,182,179.1,182,179,181.9z"/>
								<path class="st17" d="M182.9,181.3h0.1c0.1,0,0.2,0.1,0.2,0.2v1.3c0,0.1-0.1,0.2-0.2,0.2h-0.1c-0.1,0-0.2-0.1-0.2-0.2v-1.3
									C182.6,181.4,182.7,181.3,182.9,181.3z"/>
								<path class="st17" d="M181.8,180.6L181.8,180.6c0.2-0.2,0.3-0.2,0.4-0.1l0.9,0.9c0.1,0.1,0.1,0.3,0,0.4l-0.1,0.1
									c-0.1,0.1-0.3,0.1-0.4,0l-0.9-0.9C181.7,180.9,181.7,180.7,181.8,180.6z"/>
								<path class="st17" d="M182.6,181.8L182.6,181.8c0.2,0.2,0.3,0.2,0.4,0.1l0.9-0.9c0.1-0.1,0.1-0.3,0-0.4l0,0l-0.1-0.1
									c-0.1-0.1-0.3-0.1-0.4,0l0,0l-0.9,0.9C182.6,181.5,182.5,181.7,182.6,181.8L182.6,181.8z"/>
								<path class="st17" d="M171.6,185.5h0.1c0.1,0,0.2,0.1,0.2,0.2v1.3c0,0.1-0.1,0.2-0.2,0.2h-0.1c-0.1,0-0.2-0.1-0.2-0.2v-1.3
									C171.4,185.6,171.5,185.5,171.6,185.5z"/>
								<path class="st17" d="M170.6,184.9L170.6,184.9c0.2-0.2,0.3-0.2,0.4-0.1l0.9,0.9c0.1,0.1,0.1,0.3,0,0.4l-0.1,0.1
									c-0.1,0.1-0.3,0.1-0.4,0l-0.9-0.9C170.5,185.1,170.5,185,170.6,184.9z"/>
								<path class="st17" d="M171.5,186.1L171.5,186.1c-0.2-0.2-0.2-0.3-0.1-0.4l0.9-0.9c0.1-0.1,0.3-0.1,0.4,0l0.1,0.1
									c0.1,0.1,0.1,0.3,0,0.4l-0.9,0.9C171.7,186.2,171.6,186.2,171.5,186.1z"/>
								<path class="st17" d="M175.4,185.5h0.1c0.1,0,0.2,0.1,0.2,0.2v1.3c0,0.1-0.1,0.2-0.2,0.2h-0.1c-0.1,0-0.2-0.1-0.2-0.2v-1.3
									C175.1,185.6,175.2,185.5,175.4,185.5z"/>
								<path class="st17" d="M174.3,184.9L174.3,184.9c0.2-0.2,0.3-0.2,0.4-0.1l0.9,0.9c0.1,0.1,0.1,0.3,0,0.4l-0.1,0.1
									c-0.1,0.1-0.3,0.1-0.4,0l-0.9-0.9C174.2,185.1,174.2,185,174.3,184.9z"/>
								<path class="st17" d="M175.2,186.1L175.2,186.1c-0.2-0.2-0.2-0.3-0.1-0.4l0.9-0.9c0.1-0.1,0.3-0.1,0.4,0l0.1,0.1
									c0.1,0.1,0.1,0.3,0,0.4l-0.9,0.9C175.5,186.2,175.3,186.2,175.2,186.1z"/>
								<path class="st17" d="M179.1,185.5h0.1c0.1,0,0.2,0.1,0.2,0.2v1.3c0,0.1-0.1,0.2-0.2,0.2h-0.1c-0.1,0-0.2-0.1-0.2-0.2v-1.3
									C178.9,185.6,179,185.5,179.1,185.5z"/>
								<path class="st17" d="M178.1,184.9L178.1,184.9c0.2-0.2,0.3-0.2,0.4-0.1l0.9,0.9c0.1,0.1,0.1,0.3,0,0.4l-0.1,0.1
									c-0.1,0.1-0.3,0.1-0.4,0l-0.9-0.9C178,185.1,178,185,178.1,184.9z"/>
								<path class="st17" d="M178.9,186.1L178.9,186.1c-0.2-0.2-0.2-0.3-0.1-0.4l0.9-0.9c0.1-0.1,0.3-0.1,0.4,0l0.1,0.1
									c0.1,0.1,0.1,0.3,0,0.4l-0.9,0.9C179.2,186.2,179,186.2,178.9,186.1z"/>
								<path class="st17" d="M182.9,185.5h0.1c0.1,0,0.2,0.1,0.2,0.2v1.3c0,0.1-0.1,0.2-0.2,0.2h-0.1c-0.1,0-0.2-0.1-0.2-0.2v-1.3
									C182.6,185.6,182.7,185.5,182.9,185.5z"/>
								<path class="st17" d="M181.8,184.9L181.8,184.9c0.2-0.2,0.3-0.2,0.4-0.1l0.9,0.9c0.1,0.1,0.1,0.3,0,0.4l-0.1,0.1
									c-0.1,0.1-0.3,0.1-0.4,0l-0.9-0.9C181.7,185.1,181.7,185,181.8,184.9z"/>
								<path class="st17" d="M182.7,186.1L182.7,186.1c-0.2-0.2-0.2-0.3-0.1-0.4l0.9-0.9c0.1-0.1,0.3-0.1,0.4,0l0.1,0.1
									c0.1,0.1,0.1,0.3,0,0.4l-0.9,0.9C183,186.2,182.8,186.2,182.7,186.1z"/>
								<path class="st17" d="M171.6,189.8h0.1c0.1,0,0.2,0.1,0.2,0.2v1.3c0,0.1-0.1,0.2-0.2,0.2h-0.1c-0.1,0-0.2-0.1-0.2-0.2V190
									C171.4,189.9,171.5,189.8,171.6,189.8z"/>
								<path class="st17" d="M170.6,189.1L170.6,189.1c0.2-0.2,0.3-0.2,0.4-0.1l0.9,0.9c0.1,0.1,0.1,0.3,0,0.4l-0.1,0.1
									c-0.1,0.1-0.3,0.1-0.4,0l-0.9-0.9C170.5,189.3,170.5,189.2,170.6,189.1z"/>
								<path class="st17" d="M171.5,190.3L171.5,190.3c-0.2-0.2-0.2-0.3-0.1-0.4l0.9-0.9c0.1-0.1,0.3-0.1,0.4,0l0.1,0.1
									c0.1,0.1,0.1,0.3,0,0.4l-0.9,0.9C171.7,190.4,171.6,190.4,171.5,190.3z"/>
								<path class="st17" d="M175.4,189.8h0.1c0.1,0,0.2,0.1,0.2,0.2v1.3c0,0.1-0.1,0.2-0.2,0.2h-0.1c-0.1,0-0.2-0.1-0.2-0.2V190
									C175.1,189.9,175.2,189.8,175.4,189.8z"/>
								<path class="st17" d="M174.3,189.1L174.3,189.1c0.2-0.2,0.3-0.2,0.4-0.1l0.9,0.9c0.1,0.1,0.1,0.3,0,0.4l-0.1,0.1
									c-0.1,0.1-0.3,0.1-0.4,0l-0.9-0.9C174.2,189.3,174.2,189.2,174.3,189.1z"/>
								<path class="st17" d="M175.2,190.3L175.2,190.3c-0.2-0.2-0.2-0.3-0.1-0.4l0.9-0.9c0.1-0.1,0.3-0.1,0.4,0l0.1,0.1
									c0.1,0.1,0.1,0.3,0,0.4l-0.9,0.9C175.5,190.4,175.3,190.4,175.2,190.3z"/>
								<path class="st17" d="M179.1,189.8h0.1c0.1,0,0.2,0.1,0.2,0.2v1.3c0,0.1-0.1,0.2-0.2,0.2h-0.1c-0.1,0-0.2-0.1-0.2-0.2V190
									C178.9,189.9,179,189.8,179.1,189.8z"/>
								<path class="st17" d="M178.1,189.1L178.1,189.1c0.2-0.2,0.3-0.2,0.4-0.1l0.9,0.9c0.1,0.1,0.1,0.3,0,0.4l-0.1,0.1
									c-0.1,0.1-0.3,0.1-0.4,0l-0.9-0.9C178,189.3,178,189.2,178.1,189.1z"/>
								<path class="st17" d="M179,190.3L179,190.3c-0.2-0.2-0.2-0.3-0.1-0.4l0.9-0.9c0.1-0.1,0.3-0.1,0.4,0l0.1,0.1
									c0.1,0.1,0.1,0.3,0,0.4l-0.9,0.9C179.2,190.4,179.1,190.4,179,190.3z"/>
								<path class="st17" d="M182.9,189.8h0.1c0.1,0,0.2,0.1,0.2,0.2v1.3c0,0.1-0.1,0.2-0.2,0.2h-0.1c-0.1,0-0.2-0.1-0.2-0.2V190
									C182.6,189.9,182.7,189.8,182.9,189.8z"/>
								<path class="st17" d="M181.8,189.1L181.8,189.1c0.2-0.2,0.3-0.2,0.4-0.1l0.9,0.9c0.1,0.1,0.1,0.3,0,0.4l-0.1,0.1
									c-0.1,0.1-0.3,0.1-0.4,0l-0.9-0.9C181.7,189.3,181.7,189.2,181.8,189.1z"/>
								<path class="st17" d="M182.7,190.3L182.7,190.3c-0.2-0.2-0.2-0.3-0.1-0.4l0.9-0.9c0.1-0.1,0.3-0.1,0.4,0l0.1,0.1
									c0.1,0.1,0.1,0.3,0,0.4l-0.9,0.9C183,190.4,182.8,190.4,182.7,190.3z"/>
							</g>
						</g>
					</g>
					<g>
						<g>
							<defs>
								<rect id="SVGID_5_" x="46.6" y="24" width="293.7" height="488"/>
							</defs>
							<clipPath id="SVGID_6_">
								<use xlink:href="#SVGID_5_"  style="overflow:visible;"/>
							</clipPath>
							<g class="st20">
								<rect x="45.7" y="-92.2" class="st21" width="72.2" height="515.7"/>
								<path class="st22" d="M64.7-92.2h2.2c2.2,0,3.9,1.8,3.9,3.9v479c0,2.2-1.8,3.9-3.9,3.9h-2.2c-2.2,0-3.9-1.8-3.9-3.9v-479
									C60.8-90.5,62.5-92.2,64.7-92.2z"/>
								<path class="st22" d="M83.6-92.2h2.2c2.2,0,3.9,1.8,3.9,3.9v479c0,2.2-1.8,3.9-3.9,3.9h-2.2c-2.2,0-3.9-1.8-3.9-3.9v-479
									C79.7-90.5,81.5-92.2,83.6-92.2z"/>
								<path class="st22" d="M102.5-92.2h2.2c2.2,0,3.9,1.8,3.9,3.9v479c0,2.2-1.8,3.9-3.9,3.9h-2.2c-2.2,0-3.9-1.8-3.9-3.9v-479
									C98.5-90.5,100.3-92.2,102.5-92.2z"/>
								<rect x="277" y="-92.2" class="st21" width="66.2" height="515.7"/>
								<rect x="46.6" y="407" class="st23" width="293.7" height="105"/>
								<path class="st24" d="M133.2,451.9h131.6c4.4,0,8,3.6,8,8v1.5c0,4.4-3.6,8-8,8H133.2c-4.4,0-8-3.6-8-8v-1.5
									C125.2,455.5,128.7,451.9,133.2,451.9z"/>
								<path class="st25" d="M240.1,351.1c-3.8,0-6.8-3-7-6.7c-3-67.4-17.4-81.5-17.6-81.7c0.1,0.1,0.2,0.2,0.3,0.2l8.6-11.2
									c3.2,2.5,19.6,18.5,22.9,92c0.2,3.9-2.8,7.1-6.6,7.3h-0.1L240.1,351.1z"/>
								<path class="st11" d="M145.3,306.6c-15.3,0-23.2-21-25.8-28c-1.4-3.6,0.5-7.7,4.1-9.1s7.7,0.5,9.1,4.1l0,0
									c5.6,15,10.6,18.9,12.7,18.8c0.6,0,5.9-0.6,14.2-17.2c3.2-6.5,5.9-13.1,8.1-20c1.2-3.7,5.1-5.8,8.8-4.6s5.8,5.1,4.6,8.8l0,0
									c-2.4,7.5-5.4,14.9-8.9,22c-8.3,16.7-17,24.9-26.5,25.2L145.3,306.6z"/>
								<rect x="160.8" y="186.6" class="st23" width="71.3" height="108.5"/>
								<path class="st23" d="M176,168.9h40.9c8.4,0,15.2,6.8,15.2,15.2v2.8c0,8.4-6.8,15.2-15.2,15.2H176
									c-8.4,0-15.2-6.8-15.2-15.2v-2.8C160.8,175.7,167.6,168.9,176,168.9z"/>
								<path class="st26" d="M204,445.8v-93.2c0-4.8,3.9-8.6,8.6-8.6s8.6,3.9,8.6,8.6v94.8c0,0.1,0,0.2,0,0.3l6.2,1.4
									c1,0.2,2,0.8,2.7,1.6l1.3,1.5c1.9,2.1,1.8,5.4-0.3,7.3c-0.9,0.9-2.2,1.3-3.5,1.3H207c-2.8,0-5.1-2.3-5.1-5.1l0,0v-5.6
									C202,448.3,202.7,446.8,204,445.8z"/>
								<path class="st26" d="M191.6,445.8v-93.2c0-4.8-3.9-8.6-8.6-8.6s-8.6,3.9-8.6,8.6v94.8c0,0.1,0,0.2,0,0.3l-6.2,1.3
									c-1.1,0.2-2,0.8-2.7,1.6l-1.3,1.5c-1.9,2.1-1.8,5.4,0.3,7.3c0.9,0.9,2.2,1.3,3.5,1.3h20.6c2.8,0,5.1-2.3,5.1-5.1l0,0V450
									C193.6,448.3,192.9,446.8,191.6,445.8z"/>
								<path class="st25" d="M195.9,236.2h0.9c2.8,0,5.1,2.3,5.1,5.1v10.9c0,2.8-2.3,5.1-5.1,5.1h-0.9c-2.8,0-5.1-2.3-5.1-5.1
									v-10.9C190.9,238.5,193.2,236.2,195.9,236.2z"/>
								<path class="st11" d="M193.9,176.6h4.7c13.9,0,25.2,11.3,25.2,25.2V218c0,13.9-11.3,25.2-25.2,25.2h-4.7
									c-13.9,0-25.2-11.3-25.2-25.2v-16.2C168.7,187.9,180,176.6,193.9,176.6z"/>
								<path class="st25" d="M193.9,175.1h4.7c13.9,0,25.2,11.3,25.2,25.2v16.2c0,13.9-11.3,25.2-25.2,25.2h-4.7
									c-13.9,0-25.2-11.3-25.2-25.2v-16.2C168.7,186.4,180,175.1,193.9,175.1z"/>
								<path class="st27" d="M208.6,208.5h0.6c1.8,0,3.2,1.4,3.2,3.2v7c0,1.8-1.4,3.2-3.2,3.2h-0.6c-1.8,0-3.2-1.4-3.2-3.2v-7
									C205.4,209.9,206.8,208.5,208.6,208.5z"/>
								<path class="st27" d="M183.3,208.5h0.6c1.8,0,3.2,1.4,3.2,3.2v7c0,1.8-1.4,3.2-3.2,3.2h-0.6c-1.8,0-3.2-1.4-3.2-3.2v-7
									C180,209.9,181.5,208.5,183.3,208.5z"/>
								<path class="st11" d="M196.2,221.1h-2.1c0.1-1.2,1.1-2,2.2-1.9c1,0.1,1.9,0.9,1.9,1.9H196.2z"/>
								<path class="st23" d="M203,203h10.7c0.9,0,1.7,0.8,1.7,1.7v0.3c0,0.9-0.8,1.7-1.7,1.7H203c-0.9,0-1.7-0.8-1.7-1.7v-0.3
									C201.3,203.8,202.1,203,203,203z"/>
								<path class="st23" d="M178.8,203h10.7c0.9,0,1.7,0.8,1.7,1.7v0.3c0,0.9-0.8,1.7-1.7,1.7h-10.7c-0.9,0-1.7-0.8-1.7-1.7v-0.3
									C177.1,203.8,177.8,203,178.8,203z"/>
								<path class="st23" d="M192.7,224.3c0.1,2,1.8,3.5,3.7,3.4c1.8-0.1,3.3-1.5,3.4-3.4H192.7z"/>
								<path class="st2" d="M214,253.1l-10.6,18.3c-2.5,4.3-8,5.8-12.3,3.3c-1.3-0.8-2.5-1.9-3.3-3.3l-9.7-16.9
									c-9.8,6.4-15.7,17.4-15.7,29.1v155.7h69.7V283.6C232.1,270.9,225.2,259.2,214,253.1z"/>
								<path class="st21" d="M263,352.6c-3.4-8.4-24.9-6.6-33-5.3l-0.5-3.2c3.2-0.5,31.6-5,36.5,7.2L263,352.6z"/>
								<path class="st17" d="M257.5,345.9c4.5-12.7,13.8-8.9,7.3,3c12.9,4.1,8.8,13.3-3.2,7.2c-4.5,12.7-13.8,8.9-7.3-3
									C241.4,348.9,245.4,339.8,257.5,345.9z"/>
								<path class="st17" d="M264.7,353.1c6,11.9-3.5,15.7-7.4,3c-12.3,6.1-16-3.1-2.9-7.2c-6-11.9,3.5-15.7,7.4-3
									C274.1,339.8,277.8,349,264.7,353.1z"/>
								<path class="st25" d="M258.2,346.5c2.3-0.8,4.9,0.3,5.7,2.6c0.8,2.3-0.3,4.9-2.6,5.7c-2.3,0.8-4.8-0.3-5.7-2.5
									C254.7,350,255.8,347.4,258.2,346.5z"/>
								<path class="st25" d="M196.4,287.6L214,253c-5.1-2.8-10.9-4.3-16.7-4.3l0,0c-6.8,0-13.5,2-19.2,5.8L196.4,287.6z"/>
								<path class="st23" d="M167.8,193.4h1.3c3.9,0,7,3.2,7,7V304c0,3.9-3.2,7-7,7h-1.3c-3.9,0-7-3.2-7-7V200.4
									C160.8,196.5,163.9,193.4,167.8,193.4z"/>
								<path class="st23" d="M224.1,193.4h1.3c3.9,0,7,3.2,7,7V304c0,3.9-3.2,7-7,7h-1.3c-3.9,0-7-3.2-7-7V200.4
									C217.1,196.5,220.3,193.4,224.1,193.4z"/>
								<path class="st17" d="M158.2,339.5H233c2.3,0,4.1,1.8,4.1,4.1v0.8c0,2.3-1.8,4.1-4.1,4.1h-74.9c-2.3,0-4.1-1.8-4.1-4.1v-0.8
									C154.1,341.4,155.9,339.5,158.2,339.5z"/>
								<path class="st17" d="M213.4,178.4c-6.5,0-12.2-4.4-15.3-11.2c-0.6-1.4-2.3-2.1-3.7-1.4c-0.6,0.3-1.1,0.8-1.4,1.4
									c-3.1,6.7-8.9,11.2-15.3,11.2c-3.9-0.1-7.6-1.6-10.3-4.2c-0.5-0.5-1.4-0.4-1.9,0.1c-0.2,0.2-0.3,0.6-0.3,1v9.1
									c0,4.9,3.1,8.9,6.9,8.9h47.8c3.8,0,6.9-4,6.9-8.9v-9.7c0-0.8-0.6-1.3-1.3-1.3c-0.3,0-0.6,0.1-1,0.4
									C221.5,176.7,217.6,178.4,213.4,178.4z"/>
								<path class="st17" d="M168.5,191.4h54.1c1.8,0,3.2,1.4,3.2,3.2v0.6c0,1.8-1.4,3.2-3.2,3.2l0,0h-54.1c-1.8,0-3.2-1.4-3.2-3.2
									l0,0v-0.6C165.3,192.8,166.8,191.4,168.5,191.4L168.5,191.4z"/>
								<path class="st28" d="M116.3,266.6c-0.2,7.7,5.9,14.1,13.6,14.3s14.1-5.9,14.3-13.6c0-0.2,0-0.5,0-0.7
									c0-5.8-2.2-9.1-7.4-11.2c-1.6-0.7-4.7,0.4-6.6,0.4c-2.4,0-7-0.5-9,0.6C116.9,258.8,116.3,261.4,116.3,266.6z"/>
								<path class="st29" d="M129.5,278.9L129.5,278.9c0.4,0,0.7-0.3,0.6-0.7l0,0c0-0.3-0.3-0.6-0.6-0.7c0,0,0,0-0.1,0
									c-0.3,0-7.4,0.1-9.7-6.8c-0.1-0.3-0.5-0.5-0.8-0.4s-0.5,0.5-0.4,0.8l0,0C121,278.7,128.9,278.9,129.5,278.9z"/>
								<path class="st29" d="M125.2,259.9c0,0.4,1.2,0.7,2.6,0.7s2.6-0.3,2.6-0.7s-1.2-0.7-2.6-0.7S125.2,259.5,125.2,259.9z"/>
								<path class="st30" d="M130.4,258.9c0,0,3.8-3.8,1.3-10.1c0,0-4.6,0.9-5.9,8.5C125.8,257.3,126,262,130.4,258.9z"/>
								<path class="st31" d="M127.5,258.5c0,0.2,0.1,0.3,0.2,0.3s0.2,0,0.3-0.1c1.4-2.7,2.6-5.6,3.3-8.5c0-0.2-0.1-0.3-0.2-0.4
									c-0.2,0-0.3,0.1-0.4,0.2C130,253,128.9,255.8,127.5,258.5L127.5,258.5z"/>
								<path class="st22" d="M290.1-92.2h2.2c2.2,0,3.9,1.8,3.9,3.9v479c0,2.2-1.8,3.9-3.9,3.9h-2.2c-2.2,0-3.9-1.8-3.9-3.9v-479
									C286.2-90.5,288-92.2,290.1-92.2z"/>
								<path class="st22" d="M309-92.2h2.2c2.2,0,3.9,1.8,3.9,3.9v479c0,2.2-1.8,3.9-3.9,3.9H309c-2.2,0-3.9-1.8-3.9-3.9v-479
									C305.1-90.5,306.9-92.2,309-92.2z"/>
								<path class="st22" d="M327.9-92.2h2.2c2.2,0,3.9,1.8,3.9,3.9v479c0,2.2-1.8,3.9-3.9,3.9h-2.2c-2.2,0-3.9-1.8-3.9-3.9v-479
									C323.9-90.5,325.7-92.2,327.9-92.2z"/>
								<path class="st21" d="M298.2,444c-2.4-6-17.9-4.8-23.6-3.8l-0.4-2.3c2.3-0.4,22.6-3.6,26.2,5.2L298.2,444z"/>
								<path class="st17" d="M294.2,439.2c3.2-9.1,9.9-6.4,5.2,2.1c9.3,3,6.3,9.6-2.3,5.2c-3.2,9.1-9.9,6.4-5.2-2.1
									C282.7,441.4,285.6,434.8,294.2,439.2z"/>
								<path class="st17" d="M299.4,444.4c4.3,8.6-2.5,11.3-5.3,2.1c-8.8,4.4-11.5-2.2-2.1-5.2c-4.3-8.6,2.5-11.3,5.3-2.1
									C306.1,434.9,308.8,441.5,299.4,444.4z"/>
								<path class="st25" d="M294.7,439.7c1.7-0.6,3.5,0.2,4.1,1.9s-0.2,3.5-1.9,4.1c-1.6,0.6-3.4-0.2-4.1-1.8
									C292.2,442.2,293,440.3,294.7,439.7L294.7,439.7z"/>
							</g>
						</g>
					</g>
					<path class="st21" d="M85,450.5c3.4,3,12.7-2.7,15.9-5.2l1,1.3c-1.3,1-13,9.4-18,5.1L85,450.5z"/>
					<path class="st17" d="M89,452.2c0.9,6.7-4.1,7.1-3.9,0.3c-6.7,1.1-7-3.9-0.2-4c-0.9-6.7,4.1-7.1,4-0.3
						C95.5,447.1,95.8,452.2,89,452.2z"/>
					<path class="st17" d="M84.1,450.6c-5.4-4-2-7.8,2.6-3c4.1-5.5,7.8-2.3,2.9,2.6c5.4,4,2,7.8-2.6,3
						C83,458.7,79.2,455.4,84.1,450.6z"/>
					<path class="st17" d="M88.5,452.1c-0.8,0.9-2.2,1-3.2,0.1c-0.9-0.8-1-2.2-0.1-3.2c0.8-0.9,2.2-1,3.1-0.2
						C89.3,449.7,89.4,451.1,88.5,452.1z"/>
					<path class="st21" d="M117.3,422.8c1.2,6,15.8,7.5,21.3,7.6v2.2c-2.2,0-21.6-0.5-23.4-9.3L117.3,422.8z"/>
					<path class="st17" d="M120.1,427.9c-4.5,7.9-10.2,4.2-4.5-2.9c-8.1-4.3-4.2-9.9,3-4.4c4.5-7.9,10.3-4.2,4.5,2.9
						C131.2,427.9,127.4,433.5,120.1,427.9z"/>
					<path class="st17" d="M116.2,422.2c-2.5-8.7,4.3-10,5.3-1.1c8.9-2.5,10.2,4,1,5.2c2.5,8.7-4.2,10-5.3,1.1
						C108.3,430,107,423.4,116.2,422.2z"/>
					<path class="st17" d="M119.8,427.4c-1.6,0.3-3.2-0.8-3.4-2.5c-0.3-1.6,0.8-3.2,2.5-3.4c1.6-0.3,3.1,0.8,3.4,2.4
						C122.5,425.5,121.4,427.1,119.8,427.4L119.8,427.4z"/>
					<path class="st21" d="M240.6,376.6c2.2-5.7-9.2-14.9-13.8-17.9l1.2-1.8c1.8,1.2,17.9,12.2,14.6,20.5L240.6,376.6z"/>
					<path class="st17" d="M241,370.7c8.1-4.2,10.9,2,2.2,4.9c4.4,8-1.8,10.6-4.9,2.1c-8.1,4.2-10.9-2-2.2-4.9
						C231.6,364.8,237.9,362.1,241,370.7z"/>
					<path class="st17" d="M241.2,377.6c-2.6,8.6-9,6.1-5-2c-8.9-2.7-6.4-9,1.9-4.9c2.6-8.6,9-6.1,5,2
						C252,375.4,249.5,381.7,241.2,377.6z"/>
					<path class="st25" d="M241,371.4c1.5,0.7,2.2,2.4,1.5,4c-0.7,1.5-2.4,2.2-3.9,1.5c-1.5-0.6-2.2-2.3-1.6-3.8
						C237.6,371.5,239.4,370.7,241,371.4L241,371.4z"/>
					<path class="st21" d="M244.8,406.8c4.1,2.4,12.4-5.2,15.3-8.4l1.2,1.1c-1.2,1.3-11.4,12.2-17.4,8.7L244.8,406.8z"/>
					<path class="st17" d="M249.2,407.8c2.2,6.7-2.8,8.1-4,1.1c-6.7,2.4-7.9-2.7-1-4c-2.2-6.7,2.8-8.1,4-1.1
						C254.9,401.4,256.1,406.5,249.2,407.8z"/>
					<path class="st17" d="M243.9,407.2c-6.3-3-3.6-7.6,2.1-3.6c3.1-6.5,7.6-3.8,3.5,2c6.3,3,3.6,7.6-2.1,3.6
						C244.3,415.7,239.8,413,243.9,407.2z"/>
					<path class="st25" d="M248.7,407.8c-0.7,1.1-2.1,1.4-3.2,0.7c-1.1-0.7-1.4-2.1-0.7-3.2s2.1-1.4,3.1-0.8
						C249,405.2,249.4,406.7,248.7,407.8L248.7,407.8z"/>
					<path class="st21" d="M238.3,447.6c4.7,2.7,14.3-6,17.6-9.7l1.4,1.3c-1.3,1.5-13.2,14-20,10L238.3,447.6z"/>
					<path class="st17" d="M243.4,448.8c2.6,7.7-3.3,9.3-4.6,1.3c-7.7,2.8-9.1-3.1-1.1-4.6c-2.6-7.7,3.3-9.3,4.6-1.3
						C249.9,441.4,251.4,447.2,243.4,448.8z"/>
					<path class="st17" d="M237.3,448c-7.2-3.5-4.1-8.8,2.4-4.2c3.6-7.4,8.8-4.4,4,2.4c7.2,3.5,4.1,8.8-2.4,4.2
						C237.7,457.8,232.6,454.8,237.3,448z"/>
					<path class="st17" d="M242.8,448.7c-0.8,1.3-2.4,1.6-3.7,0.8c-1.3-0.8-1.6-2.4-0.8-3.7c0.8-1.2,2.4-1.6,3.6-0.9
						C243.2,445.7,243.6,447.4,242.8,448.7L242.8,448.7z"/>
				</g>
			</g>
		</g>
	</g>
</g>
</svg>
