<?xml version="1.0" encoding="utf-8"?>
<!-- Generator: Adobe Illustrator 25.2.3, SVG Export Plug-In . SVG Version: 6.00 Build 0)  -->
<svg version="1.1" id="Layer_1" xmlns="http://www.w3.org/2000/svg" xmlns:xlink="http://www.w3.org/1999/xlink" x="0px" y="0px"
	 viewBox="0 0 381.8 619.1" style="enable-background:new 0 0 381.8 619.1;" xml:space="preserve">
<style type="text/css">
	.st0{fill:#F5D8D3;}
	.st1{fill:#FDF7F6;}
	.st2{fill:#DE8171;}
	.st3{clip-path:url(#SVGID_2_);}
	.st4{fill:#D4CFEB;}
	.st5{fill:#F0EDD2;}
	.st6{fill:#ECEAF6;}
	.st7{fill:#E2DFF2;}
	.st8{fill:#FFFFFF;}
	.st9{fill:#BBB3DF;}
	.st10{fill:#C1BAE2;}
	.st11{fill:#F2CDC6;}
	.st12{fill:#DED69B;}
	.st13{fill:#F8E6E3;}
	.st14{fill:#E29082;}
	.st15{fill:#ECB5AB;}
	.st16{fill:#EFC1B9;}
	.st17{fill:#F3FAF9;}
	.st18{fill:#EAF5F4;}
	.st19{fill:#E0DDF1;}
</style>
<g id="Layer_2_1_">
	<g id="Layer_1-2">
		<path class="st0" d="M381.8,23.5v572.2c0,12.9-10.9,23.5-24.4,23.5h-333C10.9,619.1,0,608.6,0,595.7V23.5C0,10.5,10.9,0,24.4,0
			h333C370.8,0,381.8,10.5,381.8,23.5z M361.3,582.1v-545c0-9.7-7.9-17.6-17.6-17.6H38c-9.7,0-17.5,7.9-17.5,17.6v545
			c0,9.7,7.9,17.5,17.5,17.5h305.7C353.4,599.6,361.3,591.8,361.3,582.1z"/>
		<path class="st1" d="M38,19.5h305.7c9.7,0,17.6,7.9,17.6,17.6v545c0,9.7-7.9,17.6-17.6,17.6H38c-9.7,0-17.6-7.9-17.6-17.6v-545
			C20.5,27.4,28.3,19.5,38,19.5z"/>
		<path class="st2" d="M100.9,538.7c-0.2-0.2-0.3-0.5-0.3-0.8v-16.1h-5.2c-0.3,0-0.6,0-0.8-0.2c-0.2-0.2-0.2-0.5-0.2-0.8V520
			c0-0.3,0.1-0.6,0.2-0.8c0.2-0.2,0.5-0.3,0.8-0.2h14.1c0.3,0,0.6,0.1,0.8,0.2c0.2,0.2,0.3,0.5,0.2,0.8v0.8c0,0.3-0.1,0.6-0.2,0.8
			c-0.2,0.2-0.5,0.3-0.8,0.2h-5.2v16.1c0,0.3-0.1,0.6-0.2,0.8c-0.2,0.2-0.6,0.3-0.9,0.3h-1.5C101.5,539,101.1,538.9,100.9,538.7z"/>
		<path class="st2" d="M113.2,538.7c-0.2-0.2-0.3-0.5-0.3-0.8V520c0-0.3,0.1-0.6,0.3-0.8c0.2-0.2,0.5-0.3,0.8-0.3h1.6
			c0.3,0,0.6,0.1,0.8,0.3c0.2,0.2,0.3,0.5,0.3,0.8v7.4h9.7V520c0-0.3,0.1-0.6,0.3-0.8c0.2-0.2,0.5-0.3,0.8-0.3h1.5
			c0.3,0,0.6,0.1,0.9,0.3c0.2,0.2,0.3,0.5,0.3,0.8v17.9c0,0.3-0.1,0.6-0.3,0.8s-0.6,0.3-0.9,0.3h-1.5c-0.3,0-0.6-0.1-0.8-0.3
			c-0.2-0.2-0.3-0.5-0.3-0.8v-7.6h-9.7v7.6c0,0.3-0.1,0.6-0.2,0.8c-0.2,0.2-0.6,0.3-0.9,0.3H114C113.7,539,113.4,538.9,113.2,538.7z
			"/>
		<path class="st2" d="M133.9,538.7c-0.2-0.2-0.3-0.5-0.2-0.8V520c0-0.3,0.1-0.6,0.2-0.8c0.2-0.2,0.5-0.3,0.9-0.3H147
			c0.3,0,0.6,0.1,0.8,0.2c0.2,0.2,0.2,0.5,0.2,0.8v0.8c0,0.3-0.1,0.6-0.2,0.8c-0.2,0.2-0.5,0.3-0.8,0.2h-9.6v5.7h7
			c0.3,0,0.6,0.1,0.8,0.2c0.2,0.2,0.3,0.5,0.2,0.8v0.7c0,0.3-0.1,0.6-0.2,0.8c-0.2,0.2-0.5,0.3-0.8,0.2h-7v5.8h9.6
			c0.3,0,0.6,0.1,0.8,0.2c0.2,0.2,0.3,0.5,0.2,0.8v0.8c0,0.3-0.1,0.6-0.2,0.8c-0.2,0.2-0.5,0.3-0.8,0.2h-12.3
			C134.4,539,134.1,538.9,133.9,538.7z"/>
		<path class="st2" d="M162.4,538.7c-0.2-0.2-0.3-0.5-0.2-0.8V520c0-0.3,0.1-0.6,0.2-0.8c0.2-0.2,0.5-0.3,0.8-0.3h12.3
			c0.3,0,0.6,0.1,0.8,0.2c0.2,0.2,0.2,0.5,0.2,0.8v0.8c0,0.3-0.1,0.6-0.2,0.8c-0.2,0.2-0.5,0.3-0.8,0.2h-9.6v5.7h7
			c0.3,0,0.6,0.1,0.8,0.2c0.2,0.2,0.3,0.5,0.2,0.8v0.7c0,0.3-0.1,0.6-0.2,0.8c-0.2,0.2-0.5,0.3-0.8,0.2h-7v5.8h9.6
			c0.3,0,0.6,0.1,0.8,0.2c0.2,0.2,0.3,0.5,0.2,0.8v0.8c0,0.3-0.1,0.6-0.2,0.8c-0.2,0.2-0.5,0.3-0.8,0.2h-12.2
			C162.9,539,162.6,538.9,162.4,538.7z"/>
		<path class="st2" d="M179.4,538.7c-0.2-0.2-0.3-0.5-0.2-0.8V520c0-0.3,0.1-0.6,0.2-0.8c0.2-0.2,0.6-0.3,0.9-0.3h1.6
			c0.2,0,0.5,0,0.7,0.1s0.3,0.3,0.4,0.5l6,13.7l6-13.7c0.1-0.2,0.2-0.4,0.4-0.5s0.5-0.1,0.7-0.1h1.6c0.5-0.1,1,0.2,1.1,0.7
			c0,0.1,0,0.2,0,0.4v17.9c0,0.3-0.1,0.6-0.2,0.8c-0.2,0.2-0.5,0.3-0.8,0.3h-1.3c-0.3,0-0.6-0.1-0.9-0.3c-0.2-0.2-0.3-0.5-0.3-0.8
			v-12.7l-5,11.2c-0.1,0.3-0.3,0.5-0.5,0.7s-0.5,0.2-0.8,0.2s-0.5-0.1-0.8-0.2c-0.2-0.2-0.4-0.4-0.5-0.7l-5-11.2v12.7
			c0,0.3-0.1,0.6-0.2,0.8c-0.2,0.2-0.6,0.3-0.9,0.3h-1.3C180,539,179.6,538.9,179.4,538.7z"/>
		<path class="st2" d="M202.4,538.7c-0.2-0.2-0.3-0.5-0.2-0.8V520c0-0.3,0.1-0.6,0.2-0.8c0.2-0.2,0.5-0.3,0.8-0.3h7.6
			c2.4,0,4.2,0.6,5.4,1.7c1.2,1.3,1.9,3.1,1.8,4.9c0.1,1.8-0.5,3.6-1.8,4.9c-1.2,1.1-3,1.7-5.4,1.7H206v5.7c0.1,0.5-0.3,1-0.8,1.1
			c-0.1,0-0.2,0-0.4,0h-1.6C203,539,202.7,538.9,202.4,538.7z M210.6,529.3c1,0.1,2-0.3,2.7-0.9c0.6-0.8,1-1.8,0.9-2.8
			c0.1-1-0.2-2-0.9-2.8c-0.7-0.7-1.7-1-2.7-0.9H206v7.5L210.6,529.3z"/>
		<path class="st2" d="M220.5,538.7c-0.2-0.2-0.3-0.5-0.2-0.8V520c0-0.3,0.1-0.6,0.2-0.8c0.2-0.2,0.5-0.3,0.8-0.3h7.7
			c1.9-0.1,3.7,0.4,5.2,1.6c1.3,1.2,1.9,3,1.8,4.7c0,1.3-0.3,2.5-1,3.5s-1.7,1.8-2.8,2.2l3.3,7.3c0.1,0.1,0.1,0.2,0.1,0.3
			c0,0.3-0.2,0.4-0.5,0.4h-2.4c-0.2,0-0.4,0-0.6-0.1c-0.1-0.1-0.3-0.3-0.3-0.4l-3-7H224v6.5c0,0.3-0.1,0.6-0.2,0.8
			c-0.2,0.2-0.6,0.3-0.9,0.3h-1.6C221,539,220.7,538.9,220.5,538.7z M228.3,528.6c1.1,0.1,2.1-0.2,3-0.8c0.7-0.7,1.1-1.6,1-2.6
			c0.1-1-0.2-1.9-0.9-2.6c-0.8-0.6-1.7-0.9-2.7-0.8H224v6.8L228.3,528.6L228.3,528.6z"/>
		<path class="st2" d="M239.2,538.7c-0.2-0.2-0.3-0.5-0.2-0.8V520c0-0.3,0.1-0.6,0.2-0.8c0.2-0.2,0.5-0.3,0.8-0.3h12.3
			c0.3,0,0.6,0.1,0.8,0.2c0.2,0.2,0.2,0.5,0.2,0.8v0.8c0,0.3-0.1,0.6-0.2,0.8c-0.2,0.2-0.5,0.3-0.8,0.2h-9.6v5.7h7
			c0.3,0,0.6,0.1,0.8,0.2c0.2,0.2,0.3,0.5,0.2,0.8v0.7c0,0.3-0.1,0.6-0.2,0.8c-0.2,0.2-0.5,0.3-0.8,0.2h-7v5.8h9.6
			c0.3,0,0.6,0.1,0.8,0.2c0.2,0.2,0.3,0.5,0.2,0.8v0.8c0,0.3-0.1,0.6-0.2,0.8c-0.2,0.2-0.5,0.3-0.8,0.2H240
			C239.7,539,239.4,538.9,239.2,538.7z"/>
		<path class="st2" d="M259,538.9c-1.1-0.2-2.2-0.7-3.2-1.3c-0.2-0.2-0.4-0.3-0.4-0.5c0-0.1,0-0.3,0.1-0.3l1-1.5
			c0.1-0.2,0.2-0.3,0.3-0.3c0.1,0,0.3,0.1,0.4,0.2c0.8,0.5,1.6,0.8,2.5,1c1,0.3,1.9,0.4,2.9,0.4c1,0.1,2.1-0.2,3-0.7
			c0.7-0.5,1.1-1.3,1-2.1c0-0.5-0.1-1-0.4-1.4s-0.7-0.7-1.1-0.9c-0.5-0.2-1.3-0.6-2.4-1l-0.7-0.3c-1.1-0.4-2.1-0.9-3.2-1.5
			c-0.8-0.5-1.5-1.1-2.1-1.9c-0.6-0.8-0.9-1.8-0.8-2.8c-0.1-1.6,0.7-3.2,2-4.1c1.6-1,3.5-1.5,5.4-1.5c1.2,0,2.4,0.1,3.5,0.4
			c0.9,0.2,1.8,0.6,2.6,1.2c0.2,0.2,0.4,0.3,0.4,0.5c0,0.1,0,0.2-0.1,0.3l-1,1.5c-0.1,0.2-0.2,0.3-0.3,0.3c-0.1,0-0.3-0.1-0.4-0.2
			c-1.4-0.8-3-1.3-4.7-1.2c-1-0.1-2,0.2-2.8,0.7c-0.7,0.5-1,1.3-1,2.2c0,0.5,0.1,1,0.4,1.5c0.3,0.4,0.7,0.7,1.2,0.9
			c0.5,0.3,1.3,0.6,2.5,1l0.7,0.3c1.2,0.4,2.3,1,3.4,1.6c0.8,0.4,1.4,1.1,1.9,1.8c0.5,0.8,0.7,1.8,0.7,2.8c0.1,1.6-0.7,3.1-1.9,4
			c-1.6,1.1-3.5,1.6-5.4,1.5C261.7,539.4,260.3,539.2,259,538.9z"/>
		<path class="st2" d="M275.3,538.9c-1.1-0.2-2.2-0.7-3.2-1.3c-0.3-0.2-0.4-0.3-0.4-0.5c0-0.1,0-0.3,0.1-0.3l1-1.5
			c0.1-0.2,0.2-0.3,0.3-0.3c0.1,0,0.3,0.1,0.4,0.2c0.8,0.5,1.7,0.8,2.5,1c1,0.3,1.9,0.4,2.9,0.4c1,0.1,2.1-0.2,3-0.7
			c0.7-0.5,1.1-1.3,1-2.1c0-0.5-0.1-1-0.4-1.4s-0.7-0.7-1.1-0.9c-0.5-0.2-1.3-0.6-2.4-1l-0.7-0.3c-1.1-0.4-2.1-0.9-3.2-1.5
			c-0.8-0.5-1.5-1.1-2.1-1.9c-0.6-0.8-0.9-1.8-0.8-2.8c-0.1-1.6,0.7-3.2,2-4.1c1.6-1,3.5-1.5,5.4-1.5c1.2,0,2.4,0.1,3.5,0.4
			c0.9,0.2,1.8,0.6,2.6,1.2c0.2,0.2,0.4,0.3,0.4,0.5c0,0.1,0,0.2-0.1,0.3l-0.9,1.5c-0.1,0.2-0.2,0.3-0.3,0.3c-0.1,0-0.3-0.1-0.4-0.2
			c-1.4-0.8-3-1.3-4.7-1.2c-1-0.1-2,0.2-2.8,0.7c-0.7,0.5-1,1.3-0.9,2.2c0,0.5,0.1,1,0.4,1.5c0.3,0.4,0.7,0.7,1.2,0.9
			c0.5,0.3,1.3,0.6,2.5,1l0.7,0.3c1.2,0.4,2.3,1,3.4,1.6c0.8,0.4,1.4,1.1,1.9,1.8c0.5,0.8,0.7,1.8,0.7,2.8c0.1,1.6-0.6,3.1-1.9,4
			c-1.6,1.1-3.5,1.6-5.4,1.5C278,539.4,276.6,539.2,275.3,538.9z"/>
		<g>
			<g>
				<defs>
					<path id="SVGID_1_" d="M82.3,71.5h209.5c22.2,0,40.3,18,40.3,40.3v312.3c0,22.2-18,40.3-40.3,40.3H82.3
						c-22.2,0-40.3-18-40.3-40.3V111.8C42,89.6,60.1,71.5,82.3,71.5z"/>
				</defs>
				<clipPath id="SVGID_2_">
					<use xlink:href="#SVGID_1_"  style="overflow:visible;"/>
				</clipPath>
				<g class="st3">
					<rect x="42" y="261.1" class="st4" width="293.8" height="55.1"/>
					<rect x="20.5" y="313" class="st5" width="331.4" height="162"/>
					<rect x="28.1" y="61.3" class="st6" width="342.3" height="142.7"/>
					<path class="st7" d="M57.5,304.3H113c1.1,0,1.9,0.9,1.9,1.9l0,0c0,1.1-0.9,1.9-1.9,1.9H57.5c-1.1,0-1.9-0.9-1.9-1.9l0,0
						C55.6,305.2,56.4,304.3,57.5,304.3z"/>
					<path class="st7" d="M203.2,306.2h-55.5c-1.1,0-1.9-0.9-1.9-1.9l0,0l0,0c0-1.1,0.9-1.9,1.9-1.9h55.5c1.1,0,1.9,0.9,1.9,1.9l0,0
						C205.1,305.4,204.3,306.2,203.2,306.2L203.2,306.2z"/>
					<path class="st7" d="M224.8,294.3h-55.5c-1.1,0-1.9-0.9-1.9-1.9l0,0c0-1.1,0.9-1.9,1.9-1.9l0,0h55.5c1.1,0,1.9,0.9,1.9,1.9l0,0
						C226.7,293.4,225.8,294.3,224.8,294.3z"/>
					<path class="st7" d="M301.8,284.8h-55.5c-1.1,0-1.9-0.9-1.9-1.9l0,0c0-1.1,0.9-1.9,1.9-1.9h55.5c1.1,0,1.9,0.9,1.9,1.9l0,0
						C303.7,284,302.9,284.8,301.8,284.8L301.8,284.8z"/>
					<path class="st7" d="M320,300.3h-55.5c-1.1,0-1.9-0.9-1.9-1.9l0,0c0-1.1,0.9-1.9,1.9-1.9l0,0H320c1.1,0,1.9,0.9,1.9,1.9l0,0
						C321.9,299.4,321.1,300.3,320,300.3z"/>
					<path class="st8" d="M207,196.5h-63.4c-3.5,0-6.3-2.8-6.3-6.3v-3.1c0-3.5,2.8-6.3,6.3-6.3H207c3.5,0,6.3,2.8,6.3,6.3v3.1
						C213.3,193.7,210.5,196.5,207,196.5z"/>
					<circle class="st8" cx="183" cy="177.2" r="19.4"/>
					<circle class="st8" cx="161.7" cy="182.7" r="13.8"/>
					<path class="st9" d="M-13.3,198.8l36-18.7l61.2,11.7l36.5-13.7c5.5-2,11.4-2.2,17-0.5l55.9,17.4l38.1-19.9
						c5.8-3,12.7-3.5,18.9-1.2l75.1,27.7v67.8H-13.3V198.8z"/>
					<path class="st8" d="M11.1,179.3h76.4c3.5,0,6.3,2.8,6.3,6.3v5.7c0,3.5-2.8,6.3-6.3,6.3H11.1c-3.5,0-6.3-2.8-6.3-6.3v-5.7
						C4.9,182.1,7.7,179.3,11.1,179.3z"/>
					<circle class="st8" cx="40.3" cy="174.9" r="22.7"/>
					<circle class="st8" cx="65.3" cy="181.4" r="16.1"/>
					<path class="st10" d="M-28,216.3l90.4-36.9l72.7,28.8l54.7-29.7c6.4-3.5,13.9-4.2,20.8-1.9l73,23.4l56.4-23.4v97H-28V216.3z"/>
					<rect x="42" y="323.8" class="st11" width="76.8" height="144.6"/>
					<rect x="135.9" y="323.8" class="st11" width="76.8" height="144.6"/>
					<rect x="240.8" y="323.8" class="st11" width="76.8" height="144.6"/>
					<path class="st8" d="M107.7,137.3H134c1.9,0,3.4-1.5,3.4-3.4l0,0c0-1.9-1.5-3.4-3.4-3.4h-26.3c-1.9,0-3.4,1.5-3.4,3.4l0,0
						C104.3,135.8,105.8,137.3,107.7,137.3z"/>
					<circle class="st8" cx="124.1" cy="128.9" r="8.4"/>
					<path class="st8" d="M108.9,131.3c0,3.3,2.7,6,6,6s6-2.7,6-6s-2.7-6-6-6S108.9,128,108.9,131.3z"/>
					<path class="st0" d="M149.4,334.2L149.4,334.2c0.8,0,1.5,0.7,1.5,1.5v5.6c0,0.8-0.7,1.5-1.5,1.5l0,0c-0.8,0-1.5-0.7-1.5-1.5
						v-5.6C147.9,334.9,148.6,334.2,149.4,334.2z"/>
					<path class="st0" d="M150.4,336.8L150.4,336.8c-0.6,0.6-1.5,0.6-2.1,0l-3.9-3.9c-0.6-0.6-0.6-1.5,0-2.1l0,0l0,0
						c0.6-0.6,1.5-0.6,2.1,0l0,0l3.9,3.9C151,335.3,151,336.2,150.4,336.8z"/>
					<path class="st0" d="M148.4,336.8L148.4,336.8c0.6,0.6,1.5,0.6,2.1,0l3.9-3.9c0.6-0.6,0.6-1.5,0-2.1l0,0l0,0
						c-0.6-0.6-1.5-0.6-2.1,0l0,0l-3.9,3.9C147.9,335.3,148,336.2,148.4,336.8z"/>
					<path class="st0" d="M167.4,342.7L167.4,342.7c-0.8,0-1.5-0.7-1.5-1.5v-5.5c0-0.8,0.7-1.5,1.5-1.5l0,0c0.8,0,1.5,0.7,1.5,1.5
						v5.5C168.8,342.1,168.2,342.7,167.4,342.7z"/>
					<path class="st0" d="M168.4,336.8L168.4,336.8c-0.6,0.6-1.5,0.6-2.1,0l-3.9-3.9c-0.6-0.6-0.6-1.5,0-2.1l0,0l0,0
						c0.6-0.6,1.5-0.6,2.1,0l0,0l3.9,3.9C169,335.3,169,336.2,168.4,336.8z"/>
					<path class="st0" d="M166.4,336.8L166.4,336.8c0.6,0.6,1.5,0.6,2.1,0l3.9-3.9c0.6-0.6,0.6-1.5,0-2.1l0,0l0,0
						c-0.6-0.6-1.5-0.6-2.1,0l0,0l-3.9,3.9C165.8,335.3,165.8,336.2,166.4,336.8z"/>
					<path class="st0" d="M185.4,342.7L185.4,342.7c-0.8,0-1.5-0.7-1.5-1.5v-5.5c0-0.8,0.7-1.5,1.5-1.5l0,0c0.8,0,1.5,0.7,1.5,1.5
						v5.5C186.8,342.1,186.2,342.7,185.4,342.7z"/>
					<path class="st0" d="M186.4,336.8L186.4,336.8c-0.6,0.6-1.5,0.6-2.1,0l-3.9-3.9c-0.6-0.6-0.6-1.5,0-2.1l0,0l0,0
						c0.6-0.6,1.5-0.6,2.1,0l0,0l3.9,3.9C186.9,335.3,186.9,336.2,186.4,336.8z"/>
					<path class="st0" d="M184.3,336.8L184.3,336.8c0.6,0.6,1.5,0.6,2.1,0l3.9-3.9c0.6-0.6,0.6-1.5,0-2.1l0,0l0,0
						c-0.6-0.6-1.5-0.6-2.1,0l0,0l-3.9,3.9C183.8,335.3,183.9,336.2,184.3,336.8z"/>
					<path class="st0" d="M203.3,342.7L203.3,342.7c-0.8,0-1.5-0.7-1.5-1.5v-5.5c0-0.8,0.7-1.5,1.5-1.5l0,0c0.8,0,1.5,0.7,1.5,1.5
						v5.5C204.8,342.1,204.1,342.7,203.3,342.7z"/>
					<path class="st0" d="M204.3,336.8L204.3,336.8c-0.6,0.6-1.5,0.6-2.1,0l-3.9-3.9c-0.6-0.6-0.6-1.5,0-2.1l0,0l0,0
						c0.6-0.6,1.5-0.6,2.1,0l0,0l3.9,3.9C204.9,335.3,204.9,336.2,204.3,336.8z"/>
					<path class="st0" d="M202.3,336.8L202.3,336.8c0.6,0.6,1.5,0.6,2.1,0l3.9-3.9c0.6-0.6,0.6-1.5,0-2.1l0,0l0,0
						c-0.6-0.6-1.5-0.6-2.1,0l0,0l-3.9,3.9C201.7,335.3,201.7,336.2,202.3,336.8z"/>
					<path class="st0" d="M149.4,354.5L149.4,354.5c0.8,0,1.5,0.7,1.5,1.5v5.6c0,0.8-0.7,1.5-1.5,1.5l0,0c-0.8,0-1.5-0.7-1.5-1.5
						V356C147.9,355.2,148.6,354.5,149.4,354.5z"/>
					<path class="st0" d="M150.4,357.1L150.4,357.1c-0.6,0.6-1.5,0.6-2.1,0l0,0l-3.9-3.9c-0.6-0.6-0.6-1.5,0-2.1l0,0l0,0
						c0.6-0.6,1.5-0.6,2.1,0l0,0l3.9,3.9C151,355.6,151,356.5,150.4,357.1C150.5,357.1,150.5,357.1,150.4,357.1z"/>
					<path class="st0" d="M148.4,357.1L148.4,357.1c0.6,0.6,1.5,0.6,2.1,0l3.9-3.9c0.6-0.6,0.6-1.5,0-2.1l0,0l0,0
						c-0.6-0.6-1.5-0.6-2.1,0l0,0l-3.9,3.9C147.8,355.6,147.8,356.5,148.4,357.1z"/>
					<path class="st0" d="M167.4,363L167.4,363c-0.8,0-1.5-0.6-1.5-1.5V356c0-0.8,0.7-1.5,1.5-1.5l0,0c0.8,0,1.5,0.7,1.5,1.5v5.6
						C168.8,362.4,168.2,363,167.4,363z"/>
					<path class="st0" d="M168.4,357.1L168.4,357.1c-0.6,0.6-1.5,0.6-2.1,0l0,0l-3.9-3.9c-0.6-0.6-0.6-1.5,0-2.1l0,0l0,0
						c0.6-0.6,1.5-0.6,2.1,0l0,0l3.9,3.9C169,355.6,169,356.5,168.4,357.1L168.4,357.1z"/>
					<path class="st0" d="M166.4,357.1L166.4,357.1c0.6,0.6,1.5,0.6,2.1,0l0,0l3.9-3.9c0.6-0.6,0.6-1.5,0-2.1l0,0l0,0
						c-0.6-0.6-1.5-0.6-2.1,0l0,0l-3.9,3.9C165.8,355.6,165.8,356.5,166.4,357.1C166.3,357.1,166.3,357.1,166.4,357.1z"/>
					<path class="st0" d="M185.4,363L185.4,363c-0.8,0-1.5-0.6-1.5-1.5V356c0-0.8,0.7-1.5,1.5-1.5l0,0c0.8,0,1.5,0.7,1.5,1.5v5.6
						C186.8,362.4,186.1,363,185.4,363z"/>
					<path class="st0" d="M186.4,357.1L186.4,357.1c-0.6,0.6-1.5,0.6-2.1,0l0,0l-3.9-3.9c-0.6-0.6-0.6-1.5,0-2.1l0,0l0,0
						c0.6-0.6,1.5-0.6,2.1,0l0,0l3.9,3.9C186.9,355.6,187,356.5,186.4,357.1L186.4,357.1z"/>
					<path class="st0" d="M184.3,357.1L184.3,357.1c0.6,0.6,1.5,0.6,2.1,0l3.9-3.9c0.6-0.6,0.6-1.5,0-2.1l0,0l0,0
						c-0.6-0.6-1.5-0.6-2.1,0l0,0l-3.9,3.9C183.7,355.6,183.7,356.5,184.3,357.1z"/>
					<path class="st0" d="M203.3,363L203.3,363c-0.8,0-1.5-0.6-1.5-1.5V356c0-0.8,0.7-1.5,1.5-1.5l0,0c0.8,0,1.5,0.7,1.5,1.5v5.6
						C204.8,362.4,204.1,363,203.3,363z"/>
					<path class="st0" d="M204.3,357.1L204.3,357.1c-0.6,0.6-1.5,0.6-2.1,0l0,0l-3.9-3.9c-0.6-0.6-0.6-1.5,0-2.1l0,0l0,0
						c0.6-0.6,1.5-0.6,2.1,0l0,0l3.9,3.9C204.9,355.6,204.9,356.5,204.3,357.1L204.3,357.1z"/>
					<path class="st0" d="M202.3,357.1L202.3,357.1c0.6,0.6,1.5,0.6,2.1,0l0,0l3.9-3.9c0.6-0.6,0.6-1.5,0-2.1l0,0l0,0
						c-0.6-0.6-1.5-0.6-2.1,0l0,0l-3.9,3.9C201.7,355.6,201.7,356.5,202.3,357.1L202.3,357.1z"/>
					<path class="st0" d="M149.4,374.8L149.4,374.8c0.8,0,1.5,0.7,1.5,1.5v5.6c0,0.8-0.7,1.5-1.5,1.5l0,0c-0.8,0-1.5-0.7-1.5-1.5
						v-5.6C147.9,375.4,148.6,374.8,149.4,374.8z"/>
					<path class="st0" d="M150.4,377.3L150.4,377.3c-0.6,0.6-1.5,0.6-2.1,0l0,0l-3.9-3.9c-0.6-0.6-0.6-1.5,0-2.1l0,0l0,0
						c0.6-0.6,1.5-0.6,2.1,0l3.9,3.9C151,375.8,151,376.7,150.4,377.3C150.5,377.3,150.5,377.3,150.4,377.3z"/>
					<path class="st0" d="M148.4,377.3L148.4,377.3c0.6,0.6,1.5,0.6,2.1,0l3.9-3.9c0.6-0.6,0.6-1.5,0-2.1l0,0l0,0
						c-0.6-0.6-1.5-0.6-2.1,0l-3.9,3.9C147.9,375.8,148,376.7,148.4,377.3z"/>
					<path class="st0" d="M167.4,383.2L167.4,383.2c-0.8,0-1.5-0.7-1.5-1.5v-5.6c0-0.8,0.7-1.5,1.5-1.5l0,0c0.8,0,1.5,0.6,1.5,1.5
						v5.6C168.8,382.6,168.2,383.2,167.4,383.2z"/>
					<path class="st0" d="M168.4,377.3L168.4,377.3c-0.6,0.6-1.5,0.6-2.1,0l0,0l-3.9-3.9c-0.6-0.6-0.6-1.5,0-2.1l0,0l0,0
						c0.6-0.6,1.5-0.6,2.1,0l3.9,3.9C169,375.8,169,376.7,168.4,377.3L168.4,377.3z"/>
					<path class="st0" d="M166.4,377.3L166.4,377.3c0.6,0.6,1.5,0.6,2.1,0l0,0l3.9-3.9c0.6-0.6,0.6-1.5,0-2.1l0,0l0,0
						c-0.6-0.6-1.5-0.6-2.1,0l-3.9,3.9C165.8,375.8,165.8,376.7,166.4,377.3C166.3,377.3,166.3,377.3,166.4,377.3z"/>
					<path class="st0" d="M185.4,383.2L185.4,383.2c-0.8,0-1.5-0.7-1.5-1.5v-5.6c0-0.8,0.7-1.5,1.5-1.5l0,0c0.8,0,1.5,0.6,1.5,1.5
						v5.6C186.8,382.6,186.2,383.2,185.4,383.2z"/>
					<path class="st0" d="M186.4,377.3L186.4,377.3c-0.6,0.6-1.5,0.6-2.1,0l0,0l-3.9-3.9c-0.6-0.6-0.6-1.5,0-2.1l0,0l0,0
						c0.6-0.6,1.5-0.6,2.1,0l3.9,3.9C186.9,375.8,187,376.7,186.4,377.3L186.4,377.3z"/>
					<path class="st0" d="M184.3,377.3L184.3,377.3c0.6,0.6,1.5,0.6,2.1,0l3.9-3.9c0.6-0.6,0.6-1.5,0-2.1l0,0l0,0
						c-0.6-0.6-1.5-0.6-2.1,0l-3.9,3.9C183.8,375.8,183.9,376.7,184.3,377.3z"/>
					<path class="st0" d="M203.3,383.2L203.3,383.2c-0.8,0-1.5-0.7-1.5-1.5v-5.6c0-0.8,0.7-1.5,1.5-1.5l0,0c0.8,0,1.5,0.6,1.5,1.5
						v5.6C204.8,382.6,204.1,383.2,203.3,383.2z"/>
					<path class="st0" d="M204.3,377.3L204.3,377.3c-0.6,0.6-1.5,0.6-2.1,0l0,0l-3.9-3.9c-0.6-0.6-0.6-1.5,0-2.1l0,0l0,0
						c0.6-0.6,1.5-0.6,2.1,0l3.9,3.9C204.9,375.8,204.9,376.7,204.3,377.3L204.3,377.3z"/>
					<path class="st0" d="M202.3,377.3L202.3,377.3c0.6,0.6,1.5,0.6,2.1,0l0,0l3.9-3.9c0.6-0.6,0.6-1.5,0-2.1l0,0l0,0
						c-0.6-0.6-1.5-0.6-2.1,0l-3.9,3.9C201.7,375.8,201.7,376.7,202.3,377.3L202.3,377.3z"/>
					<path class="st0" d="M149.4,395L149.4,395c0.8,0,1.5,0.7,1.5,1.5v5.6c0,0.8-0.7,1.5-1.5,1.5l0,0c-0.8,0-1.5-0.7-1.5-1.5v-5.6
						C147.9,395.7,148.6,395,149.4,395z"/>
					<path class="st0" d="M150.4,397.6L150.4,397.6c-0.6,0.6-1.5,0.6-2.1,0l-3.9-3.9c-0.6-0.6-0.6-1.5,0-2.1l0,0l0,0
						c0.6-0.6,1.5-0.6,2.1,0l0,0l3.9,3.9C151,396.1,151,397,150.4,397.6z"/>
					<path class="st0" d="M148.4,397.6L148.4,397.6c0.6,0.6,1.5,0.6,2.1,0l3.9-3.9c0.6-0.6,0.6-1.5,0-2.1l0,0l0,0
						c-0.6-0.6-1.5-0.6-2.1,0l0,0l-3.9,3.9c-0.7,0.5-0.9,1.3-0.4,1.9C148.1,397.5,148.2,397.6,148.4,397.6z"/>
					<path class="st0" d="M167.4,403.5L167.4,403.5c-0.8,0-1.5-0.7-1.5-1.5v-5.5c0-0.8,0.7-1.5,1.5-1.5l0,0c0.8,0,1.5,0.7,1.5,1.5
						v5.5C168.8,402.8,168.2,403.5,167.4,403.5L167.4,403.5z"/>
					<path class="st0" d="M168.4,397.6L168.4,397.6c-0.6,0.6-1.5,0.6-2.1,0l-3.9-3.9c-0.6-0.6-0.6-1.5,0-2.1l0,0l0,0
						c0.6-0.6,1.5-0.6,2.1,0l0,0l3.9,3.9C169,396.1,169,397,168.4,397.6z"/>
					<path class="st0" d="M166.4,397.6L166.4,397.6c0.6,0.6,1.5,0.6,2.1,0l3.9-3.9c0.6-0.6,0.6-1.5,0-2.1l0,0l0,0
						c-0.6-0.6-1.5-0.6-2.1,0l0,0l-3.9,3.9C165.8,396.1,165.8,397,166.4,397.6z"/>
					<path class="st0" d="M185.4,403.5L185.4,403.5c-0.8,0-1.5-0.7-1.5-1.5v-5.5c0-0.8,0.7-1.5,1.5-1.5l0,0c0.8,0,1.5,0.7,1.5,1.5
						v5.5C186.8,402.8,186.2,403.5,185.4,403.5L185.4,403.5z"/>
					<path class="st0" d="M186.4,397.6L186.4,397.6c-0.6,0.6-1.5,0.6-2.1,0l-3.9-3.9c-0.6-0.6-0.6-1.5,0-2.1l0,0l0,0
						c0.6-0.6,1.5-0.6,2.1,0l0,0l3.9,3.9C186.9,396.1,186.9,397,186.4,397.6z"/>
					<path class="st0" d="M184.3,397.6L184.3,397.6c0.6,0.6,1.5,0.6,2.1,0l3.9-3.9c0.6-0.6,0.6-1.5,0-2.1l0,0l0,0
						c-0.6-0.6-1.5-0.6-2.1,0l0,0l-3.9,3.9c-0.7,0.5-0.9,1.3-0.4,1.9C184,397.5,184.1,397.6,184.3,397.6z"/>
					<path class="st0" d="M203.3,403.5L203.3,403.5c-0.8,0-1.5-0.7-1.5-1.5v-5.5c0-0.8,0.7-1.5,1.5-1.5l0,0c0.8,0,1.5,0.7,1.5,1.5
						v5.5C204.8,402.8,204.1,403.5,203.3,403.5L203.3,403.5z"/>
					<path class="st0" d="M204.3,397.6L204.3,397.6c-0.6,0.6-1.5,0.6-2.1,0l-3.9-3.9c-0.6-0.6-0.6-1.5,0-2.1l0,0l0,0
						c0.6-0.6,1.5-0.6,2.1,0l0,0l3.9,3.9C204.9,396.1,204.9,397,204.3,397.6z"/>
					<path class="st0" d="M202.3,397.6L202.3,397.6c0.6,0.6,1.5,0.6,2.1,0l3.9-3.9c0.6-0.6,0.6-1.5,0-2.1l0,0l0,0
						c-0.6-0.6-1.5-0.6-2.1,0l0,0l-3.9,3.9C201.7,396.1,201.7,397,202.3,397.6z"/>
					<path class="st0" d="M149.4,415.3L149.4,415.3c0.8,0,1.5,0.7,1.5,1.5v5.6c0,0.8-0.7,1.5-1.5,1.5l0,0c-0.8,0-1.5-0.7-1.5-1.5
						v-5.6C147.9,415.9,148.6,415.3,149.4,415.3z"/>
					<path class="st0" d="M150.4,417.8L150.4,417.8c-0.6,0.6-1.5,0.6-2.1,0l0,0l-3.9-3.9c-0.6-0.6-0.6-1.5,0-2.1l0,0l0,0
						c0.6-0.6,1.5-0.6,2.1,0l0,0l3.9,3.9C151,416.3,151,417.2,150.4,417.8C150.5,417.8,150.5,417.8,150.4,417.8z"/>
					<path class="st0" d="M148.4,417.8L148.4,417.8c0.6,0.6,1.5,0.6,2.1,0l3.9-3.9c0.6-0.6,0.6-1.5,0-2.1l0,0l0,0
						c-0.6-0.6-1.5-0.6-2.1,0l0,0l-3.9,3.9C148.1,416.2,148.7,417.1,148.4,417.8z"/>
					<path class="st0" d="M167.4,423.7L167.4,423.7c-0.8,0-1.5-0.7-1.5-1.5v-5.5c0-0.8,0.7-1.5,1.5-1.5l0,0c0.8,0,1.5,0.7,1.5,1.5
						v5.5C168.8,423.1,168.2,423.7,167.4,423.7z"/>
					<path class="st0" d="M168.4,417.8L168.4,417.8c-0.6,0.6-1.5,0.6-2.1,0l0,0l-3.9-3.9c-0.6-0.6-0.6-1.5,0-2.1l0,0l0,0
						c0.6-0.6,1.5-0.6,2.1,0l0,0l3.9,3.9C169,416.3,169,417.2,168.4,417.8L168.4,417.8z"/>
					<path class="st0" d="M166.4,417.8L166.4,417.8c0.6,0.6,1.5,0.6,2.1,0l0,0l3.9-3.9c0.6-0.6,0.6-1.5,0-2.1l0,0l0,0
						c-0.6-0.6-1.5-0.6-2.1,0l0,0l-3.9,3.9C165.8,416.3,165.8,417.2,166.4,417.8C166.3,417.8,166.3,417.8,166.4,417.8z"/>
					<path class="st0" d="M185.4,423.7L185.4,423.7c-0.8,0-1.5-0.7-1.5-1.5v-5.5c0-0.8,0.7-1.5,1.5-1.5l0,0c0.8,0,1.5,0.7,1.5,1.5
						v5.5C186.8,423.1,186.2,423.7,185.4,423.7z"/>
					<path class="st0" d="M186.4,417.8L186.4,417.8c-0.6,0.6-1.5,0.6-2.1,0l0,0l-3.9-3.9c-0.6-0.6-0.6-1.5,0-2.1l0,0l0,0
						c0.6-0.6,1.5-0.6,2.1,0l0,0l3.9,3.9C186.9,416.3,187,417.2,186.4,417.8L186.4,417.8z"/>
					<path class="st0" d="M184.3,417.8L184.3,417.8c0.6,0.6,1.5,0.6,2.1,0l3.9-3.9c0.6-0.6,0.6-1.5,0-2.1l0,0l0,0
						c-0.6-0.6-1.5-0.6-2.1,0l0,0l-3.9,3.9C183.9,416.3,184.2,417.1,184.3,417.8z"/>
					<path class="st0" d="M203.3,423.7L203.3,423.7c-0.8,0-1.5-0.7-1.5-1.5v-5.5c0-0.8,0.7-1.5,1.5-1.5l0,0c0.8,0,1.5,0.7,1.5,1.5
						v5.5C204.8,423.1,204.1,423.7,203.3,423.7z"/>
					<path class="st0" d="M204.3,417.8L204.3,417.8c-0.6,0.6-1.5,0.6-2.1,0l0,0l-3.9-3.9c-0.6-0.6-0.6-1.5,0-2.1l0,0l0,0
						c0.6-0.6,1.5-0.6,2.1,0l0,0l3.9,3.9C204.9,416.3,204.9,417.2,204.3,417.8L204.3,417.8z"/>
					<path class="st0" d="M202.3,417.8L202.3,417.8c0.6,0.6,1.5,0.6,2.1,0l0,0l3.9-3.9c0.6-0.6,0.6-1.5,0-2.1l0,0l0,0
						c-0.6-0.6-1.5-0.6-2.1,0l0,0l-3.9,3.9C201.7,416.3,201.7,417.2,202.3,417.8L202.3,417.8z"/>
					<path class="st0" d="M149.4,435.5L149.4,435.5c0.8,0,1.5,0.7,1.5,1.5v5.6c0,0.8-0.7,1.5-1.5,1.5l0,0c-0.8,0-1.5-0.7-1.5-1.5
						V437C147.9,436.2,148.6,435.5,149.4,435.5z"/>
					<path class="st0" d="M150.4,438.1L150.4,438.1c-0.6,0.6-1.5,0.6-2.1,0l0,0l-3.9-3.9c-0.6-0.6-0.6-1.5,0-2.1l0,0l0,0
						c0.6-0.6,1.5-0.6,2.1,0l3.9,3.9C151,436.6,151,437.5,150.4,438.1C150.5,438.1,150.5,438.1,150.4,438.1z"/>
					<path class="st0" d="M148.4,438.1L148.4,438.1c0.6,0.6,1.5,0.6,2.1,0l3.9-3.9c0.6-0.6,0.6-1.5,0-2.1l0,0l0,0
						c-0.6-0.6-1.5-0.6-2.1,0l-3.9,3.9C147.8,436.6,147.8,437.5,148.4,438.1z"/>
					<path class="st0" d="M167.4,444L167.4,444c-0.8,0-1.5-0.7-1.5-1.5V437c0-0.8,0.7-1.5,1.5-1.5l0,0c0.8,0,1.5,0.6,1.5,1.5v5.6
						C168.8,443.4,168.2,444,167.4,444z"/>
					<path class="st0" d="M168.4,438.1L168.4,438.1c-0.6,0.6-1.5,0.6-2.1,0l0,0l-3.9-3.9c-0.6-0.6-0.6-1.5,0-2.1l0,0l0,0
						c0.6-0.6,1.5-0.6,2.1,0l3.9,3.9C169,436.6,169,437.5,168.4,438.1L168.4,438.1z"/>
					<path class="st0" d="M166.4,438.1L166.4,438.1c0.6,0.6,1.5,0.6,2.1,0l0,0l3.9-3.9c0.6-0.6,0.6-1.5,0-2.1l0,0l0,0
						c-0.6-0.6-1.5-0.6-2.1,0l-3.9,3.9C165.8,436.6,165.8,437.5,166.4,438.1C166.3,438.1,166.3,438.1,166.4,438.1z"/>
					<path class="st0" d="M185.4,444L185.4,444c-0.8,0-1.5-0.7-1.5-1.5V437c0-0.8,0.7-1.5,1.5-1.5l0,0c0.8,0,1.5,0.6,1.5,1.5v5.6
						C186.8,443.4,186.1,444,185.4,444z"/>
					<path class="st0" d="M186.4,438.1L186.4,438.1c-0.6,0.6-1.5,0.6-2.1,0l0,0l-3.9-3.9c-0.6-0.6-0.6-1.5,0-2.1l0,0l0,0
						c0.6-0.6,1.5-0.6,2.1,0l3.9,3.9C186.9,436.6,187,437.5,186.4,438.1L186.4,438.1z"/>
					<path class="st0" d="M184.3,438.1L184.3,438.1c0.6,0.6,1.5,0.6,2.1,0l3.9-3.9c0.6-0.6,0.6-1.5,0-2.1l0,0l0,0
						c-0.6-0.6-1.5-0.6-2.1,0l-3.9,3.9C183.7,436.6,183.7,437.5,184.3,438.1z"/>
					<path class="st0" d="M203.3,444L203.3,444c-0.8,0-1.5-0.7-1.5-1.5V437c0-0.8,0.7-1.5,1.5-1.5l0,0c0.8,0,1.5,0.6,1.5,1.5v5.6
						C204.8,443.4,204.1,444,203.3,444z"/>
					<path class="st0" d="M204.3,438.1L204.3,438.1c-0.6,0.6-1.5,0.6-2.1,0l0,0l-3.9-3.9c-0.6-0.6-0.6-1.5,0-2.1l0,0l0,0
						c0.6-0.6,1.5-0.6,2.1,0l3.9,3.9C204.9,436.6,204.9,437.5,204.3,438.1L204.3,438.1z"/>
					<path class="st0" d="M202.3,438.1L202.3,438.1c0.6,0.6,1.5,0.6,2.1,0l0,0l3.9-3.9c0.6-0.6,0.6-1.5,0-2.1l0,0l0,0
						c-0.6-0.6-1.5-0.6-2.1,0l-3.9,3.9C201.7,436.6,201.7,437.5,202.3,438.1L202.3,438.1z"/>
					<path class="st0" d="M149.4,455.8L149.4,455.8c0.8,0,1.5,0.7,1.5,1.5v5.6c0,0.8-0.7,1.5-1.5,1.5l0,0c-0.8,0-1.5-0.7-1.5-1.5
						v-5.6C147.9,456.4,148.6,455.8,149.4,455.8z"/>
					<path class="st0" d="M150.4,458.3L150.4,458.3c-0.6,0.6-1.5,0.6-2.1,0l-3.9-3.9c-0.6-0.6-0.6-1.5,0-2.1l0,0l0,0
						c0.6-0.6,1.5-0.6,2.1,0l0,0l3.9,3.9C151,456.8,151,457.8,150.4,458.3z"/>
					<path class="st0" d="M148.4,458.3L148.4,458.3c0.6,0.6,1.5,0.6,2.1,0l3.9-3.9c0.6-0.6,0.6-1.5,0-2.1l0,0l0,0
						c-0.6-0.6-1.5-0.6-2.1,0l0,0l-3.9,3.9C147.8,456.8,147.9,457.7,148.4,458.3z"/>
					<path class="st0" d="M167.4,464.2L167.4,464.2c-0.8,0-1.5-0.7-1.5-1.5v-5.5c0-0.8,0.7-1.5,1.5-1.5l0,0c0.8,0,1.5,0.7,1.5,1.5
						v5.5C168.8,463.6,168.2,464.2,167.4,464.2z"/>
					<path class="st0" d="M168.4,458.3L168.4,458.3c-0.6,0.6-1.5,0.6-2.1,0l-3.9-3.9c-0.6-0.6-0.6-1.5,0-2.1l0,0l0,0
						c0.6-0.6,1.5-0.6,2.1,0l0,0l3.9,3.9C169,456.8,169,457.8,168.4,458.3z"/>
					<path class="st0" d="M166.4,458.3L166.4,458.3c0.6,0.6,1.5,0.6,2.1,0l3.9-3.9c0.6-0.6,0.6-1.5,0-2.1l0,0l0,0
						c-0.6-0.6-1.5-0.6-2.1,0l0,0l-3.9,3.9C165.8,456.8,165.8,457.8,166.4,458.3z"/>
					<path class="st0" d="M185.4,464.2L185.4,464.2c-0.8,0-1.5-0.7-1.5-1.5v-5.5c0-0.8,0.7-1.5,1.5-1.5l0,0c0.8,0,1.5,0.7,1.5,1.5
						v5.5C186.8,463.6,186.2,464.2,185.4,464.2z"/>
					<path class="st0" d="M186.4,458.3L186.4,458.3c-0.6,0.6-1.5,0.6-2.1,0l-3.9-3.9c-0.6-0.6-0.6-1.5,0-2.1l0,0l0,0
						c0.6-0.6,1.5-0.6,2.1,0l0,0l3.9,3.9C186.9,456.8,186.9,457.8,186.4,458.3z"/>
					<path class="st0" d="M184.3,458.3L184.3,458.3c0.6,0.6,1.5,0.6,2.1,0l3.9-3.9c0.6-0.6,0.6-1.5,0-2.1l0,0l0,0
						c-0.6-0.6-1.5-0.6-2.1,0l0,0l-3.9,3.9C183.8,456.8,183.8,457.7,184.3,458.3z"/>
					<path class="st0" d="M203.3,464.2L203.3,464.2c-0.8,0-1.5-0.7-1.5-1.5v-5.5c0-0.8,0.7-1.5,1.5-1.5l0,0c0.8,0,1.5,0.7,1.5,1.5
						v5.5C204.8,463.6,204.1,464.2,203.3,464.2z"/>
					<path class="st0" d="M204.3,458.3L204.3,458.3c-0.6,0.6-1.5,0.6-2.1,0l-3.9-3.9c-0.6-0.6-0.6-1.5,0-2.1l0,0l0,0
						c0.6-0.6,1.5-0.6,2.1,0l0,0l3.9,3.9C204.9,456.8,204.9,457.8,204.3,458.3z"/>
					<path class="st0" d="M202.3,458.3L202.3,458.3c0.6,0.6,1.5,0.6,2.1,0l3.9-3.9c0.6-0.6,0.6-1.5,0-2.1l0,0l0,0
						c-0.6-0.6-1.5-0.6-2.1,0l0,0l-3.9,3.9C201.7,456.8,201.7,457.8,202.3,458.3z"/>
					<path class="st0" d="M251,342.7L251,342.7c-0.8,0-1.5-0.7-1.5-1.5v-5.5c0-0.8,0.7-1.5,1.5-1.5l0,0c0.8,0,1.5,0.7,1.5,1.5v5.5
						C252.5,342.1,251.8,342.7,251,342.7z"/>
					<path class="st0" d="M252,336.8L252,336.8c-0.6,0.6-1.5,0.6-2.1,0l-3.9-3.9c-0.6-0.6-0.6-1.5,0-2.1l0,0l0,0
						c0.6-0.6,1.5-0.6,2.1,0l0,0l3.9,3.9C252.6,335.3,252.6,336.2,252,336.8z"/>
					<path class="st0" d="M250,336.8L250,336.8c0.6,0.6,1.5,0.6,2.1,0l3.9-3.9c0.6-0.6,0.6-1.5,0-2.1l0,0c-0.6-0.6-1.5-0.6-2.1,0
						l-3.9,3.9C249.4,335.3,249.4,336.2,250,336.8z"/>
					<path class="st0" d="M269,342.7L269,342.7c-0.8,0-1.5-0.7-1.5-1.5v-5.5c0-0.8,0.6-1.5,1.5-1.5l0,0c0.8,0,1.5,0.7,1.5,1.5v5.5
						C270.5,342.1,269.8,342.7,269,342.7z"/>
					<path class="st0" d="M270,336.8L270,336.8c-0.6,0.6-1.5,0.6-2.1,0l-3.9-3.9c-0.6-0.6-0.6-1.5,0-2.1l0,0l0,0
						c0.6-0.6,1.5-0.6,2.1,0l0,0l3.9,3.9C270.6,335.3,270.6,336.2,270,336.8z"/>
					<path class="st0" d="M267.9,336.8L267.9,336.8c0.6,0.6,1.5,0.6,2.1,0l3.9-3.9c0.6-0.6,0.6-1.5,0-2.1l0,0l0,0
						c-0.6-0.6-1.5-0.6-2.1,0l0,0l-3.9,3.9C267.4,335.3,267.4,336.2,267.9,336.8z"/>
					<path class="st0" d="M286.9,342.7L286.9,342.7c-0.8,0-1.5-0.7-1.5-1.5v-5.5c0-0.8,0.7-1.5,1.5-1.5l0,0c0.8,0,1.5,0.7,1.5,1.5
						v5.5C288.4,342.1,287.7,342.7,286.9,342.7z"/>
					<path class="st0" d="M288,336.8L288,336.8c-0.6,0.6-1.5,0.6-2.1,0l-3.9-3.9c-0.6-0.6-0.6-1.5,0-2.1l0,0l0,0
						c0.6-0.6,1.5-0.6,2.1,0l0,0l3.9,3.9C288.6,335.3,288.6,336.2,288,336.8z"/>
					<path class="st0" d="M285.9,336.8L285.9,336.8c0.6,0.6,1.5,0.6,2.1,0l3.9-3.9c0.6-0.6,0.6-1.5,0-2.1l0,0
						c-0.6-0.6-1.5-0.6-2.1,0l-3.9,3.9C285.4,335.3,285.4,336.2,285.9,336.8z"/>
					<path class="st0" d="M304.9,342.7L304.9,342.7c-0.8,0-1.5-0.7-1.5-1.5v-5.5c0-0.8,0.6-1.5,1.5-1.5l0,0c0.8,0,1.5,0.7,1.5,1.5
						v5.5C306.4,342.1,305.7,342.7,304.9,342.7z"/>
					<path class="st0" d="M305.9,336.8L305.9,336.8c-0.6,0.6-1.5,0.6-2.1,0l-3.9-3.9c-0.6-0.6-0.6-1.5,0-2.1l0,0l0,0
						c0.6-0.6,1.5-0.6,2.1,0l0,0l3.9,3.9C306.5,335.3,306.5,336.2,305.9,336.8z"/>
					<path class="st0" d="M303.9,336.8L303.9,336.8c0.6,0.6,1.5,0.6,2.1,0l3.9-3.9c0.6-0.6,0.6-1.5,0-2.1l0,0l0,0
						c-0.6-0.6-1.5-0.6-2.1,0l0,0l-3.9,3.9C303.3,335.3,303.3,336.2,303.9,336.8z"/>
					<path class="st0" d="M251,363L251,363c-0.8,0-1.5-0.6-1.5-1.5V356c0-0.8,0.6-1.5,1.4-1.5l0,0l0,0c0.8,0,1.5,0.7,1.5,1.5v5.6
						C252.5,362.3,251.8,363,251,363L251,363z"/>
					<path class="st0" d="M252,357.1L252,357.1c-0.6,0.6-1.5,0.6-2.1,0l0,0l-3.9-3.9c-0.6-0.6-0.6-1.5,0-2.1l0,0l0,0
						c0.6-0.6,1.5-0.6,2.1,0l0,0l3.9,3.9C252.6,355.6,252.6,356.5,252,357.1L252,357.1z"/>
					<path class="st0" d="M250,357.1L250,357.1c0.6,0.6,1.5,0.6,2.1,0l0,0l3.9-3.9c0.6-0.6,0.6-1.5,0-2.1l0,0
						c-0.6-0.6-1.5-0.6-2.1,0L250,355C249.4,355.6,249.4,356.5,250,357.1L250,357.1z"/>
					<path class="st0" d="M269,363L269,363c-0.8,0-1.5-0.6-1.5-1.4l0,0V356c0-0.8,0.6-1.5,1.4-1.5l0,0l0,0c0.8,0,1.5,0.7,1.5,1.5
						v5.6C270.5,362.3,269.8,363,269,363L269,363z"/>
					<path class="st0" d="M270,357.1L270,357.1c-0.6,0.6-1.5,0.6-2.1,0l-3.9-3.9c-0.6-0.6-0.6-1.5,0-2.1l0,0l0,0
						c0.6-0.6,1.5-0.6,2.1,0l0,0l3.9,3.9C270.6,355.6,270.6,356.5,270,357.1z"/>
					<path class="st0" d="M267.9,357.1L267.9,357.1c0.6,0.6,1.5,0.6,2.1,0l0,0l3.9-3.9c0.6-0.6,0.6-1.5,0-2.1l0,0l0,0
						c-0.6-0.6-1.5-0.6-2.1,0l0,0l-3.9,3.9C267.4,355.6,267.4,356.5,267.9,357.1L267.9,357.1z"/>
					<path class="st0" d="M286.9,363L286.9,363c-0.8,0-1.5-0.6-1.5-1.5V356c0-0.8,0.7-1.5,1.5-1.5l0,0c0.8,0,1.5,0.7,1.5,1.5v5.6
						C288.4,362.4,287.7,363,286.9,363z"/>
					<path class="st0" d="M288,357.1L288,357.1c-0.6,0.6-1.5,0.6-2.1,0l0,0l-3.9-3.9c-0.6-0.6-0.6-1.5,0-2.1l0,0l0,0
						c0.6-0.6,1.5-0.6,2.1,0l0,0l3.9,3.9C288.6,355.6,288.6,356.5,288,357.1L288,357.1z"/>
					<path class="st0" d="M285.9,357.1L285.9,357.1c0.6,0.6,1.5,0.6,2.1,0l0,0l3.9-3.9c0.6-0.6,0.6-1.5,0-2.1l0,0
						c-0.6-0.6-1.5-0.6-2.1,0l-3.9,3.9C285.3,355.6,285.3,356.5,285.9,357.1L285.9,357.1z"/>
					<path class="st0" d="M304.9,363L304.9,363c-0.8,0-1.5-0.6-1.5-1.4l0,0V356c0-0.8,0.6-1.5,1.5-1.5l0,0c0.8,0,1.5,0.7,1.5,1.5
						v5.6C306.3,362.4,305.7,363,304.9,363L304.9,363z"/>
					<path class="st0" d="M305.9,357.1L305.9,357.1c-0.6,0.6-1.5,0.6-2.1,0l-3.9-3.9c-0.6-0.6-0.6-1.5,0-2.1l0,0l0,0
						c0.6-0.6,1.5-0.6,2.1,0l0,0l3.9,3.9C306.4,355.6,306.4,356.5,305.9,357.1z"/>
					<path class="st0" d="M303.9,357.1L303.9,357.1c0.6,0.6,1.5,0.6,2.1,0l0,0l3.9-3.9c0.6-0.6,0.6-1.5,0-2.1l0,0l0,0
						c-0.6-0.6-1.5-0.6-2.1,0l0,0l-3.9,3.9C303.3,355.6,303.3,356.5,303.9,357.1L303.9,357.1z"/>
					<path class="st0" d="M251,383.2L251,383.2c-0.8,0-1.5-0.7-1.5-1.5v-5.6c0-0.8,0.7-1.5,1.5-1.5l0,0c0.8,0,1.5,0.6,1.5,1.5v5.6
						C252.5,382.6,251.8,383.2,251,383.2z"/>
					<path class="st0" d="M252,377.3L252,377.3c-0.6,0.6-1.5,0.6-2.1,0l0,0l-3.9-3.9c-0.6-0.6-0.6-1.5,0-2.1l0,0l0,0
						c0.6-0.6,1.5-0.6,2.1,0l3.9,3.9C252.6,375.8,252.6,376.7,252,377.3L252,377.3z"/>
					<path class="st0" d="M250,377.3L250,377.3c0.6,0.6,1.5,0.6,2.1,0l0,0l3.9-3.9c0.6-0.6,0.6-1.5,0-2.1l0,0
						c-0.6-0.6-1.5-0.6-2.1,0l-3.9,3.9C249.4,375.8,249.4,376.7,250,377.3L250,377.3z"/>
					<path class="st0" d="M269,383.2L269,383.2c-0.8,0-1.5-0.7-1.5-1.5v-5.6c0-0.8,0.6-1.5,1.4-1.5l0,0l0,0c0.8,0,1.5,0.6,1.5,1.4
						l0,0v5.6C270.5,382.6,269.8,383.2,269,383.2z"/>
					<path class="st0" d="M270,377.3L270,377.3c-0.6,0.6-1.5,0.6-2.1,0l-3.9-3.9c-0.6-0.6-0.6-1.5,0-2.1l0,0l0,0
						c0.6-0.6,1.5-0.6,2.1,0l3.9,3.9C270.6,375.8,270.6,376.7,270,377.3z"/>
					<path class="st0" d="M267.9,377.3L267.9,377.3c0.6,0.6,1.5,0.6,2.1,0l0,0l3.9-3.9c0.6-0.6,0.6-1.5,0-2.1l0,0l0,0
						c-0.6-0.6-1.5-0.6-2.1,0l-3.9,3.9C267.4,375.8,267.4,376.7,267.9,377.3L267.9,377.3z"/>
					<path class="st0" d="M286.9,383.2L286.9,383.2c-0.8,0-1.5-0.7-1.5-1.5v-5.6c0-0.8,0.7-1.5,1.5-1.5l0,0c0.8,0,1.5,0.6,1.5,1.5
						v5.6C288.4,382.6,287.7,383.2,286.9,383.2z"/>
					<path class="st0" d="M288,377.3L288,377.3c-0.6,0.6-1.5,0.6-2.1,0l0,0l-3.9-3.9c-0.6-0.6-0.6-1.5,0-2.1l0,0l0,0
						c0.6-0.6,1.5-0.6,2.1,0l3.9,3.9C288.6,375.8,288.6,376.7,288,377.3L288,377.3z"/>
					<path class="st0" d="M285.9,377.3L285.9,377.3c0.6,0.6,1.5,0.6,2.1,0l0,0l3.9-3.9c0.6-0.6,0.6-1.5,0-2.1l0,0
						c-0.6-0.6-1.5-0.6-2.1,0l-3.9,3.9c-0.6,0.5-0.7,1.4-0.1,2C285.8,377.3,285.8,377.3,285.9,377.3z"/>
					<path class="st0" d="M304.9,383.2L304.9,383.2c-0.8,0-1.5-0.7-1.5-1.5v-5.6c0-0.8,0.6-1.5,1.4-1.5l0,0l0,0
						c0.8,0,1.5,0.6,1.5,1.4l0,0v5.6C306.4,382.6,305.7,383.2,304.9,383.2z"/>
					<path class="st0" d="M305.9,377.3L305.9,377.3c-0.6,0.6-1.5,0.6-2.1,0l-3.9-3.9c-0.6-0.6-0.6-1.5,0-2.1l0,0l0,0
						c0.6-0.6,1.5-0.6,2.1,0l3.9,3.9C306.5,375.8,306.5,376.7,305.9,377.3z"/>
					<path class="st0" d="M303.9,377.3L303.9,377.3c0.6,0.6,1.5,0.6,2.1,0l0,0l3.9-3.9c0.6-0.6,0.6-1.5,0-2.1l0,0l0,0
						c-0.6-0.6-1.5-0.6-2.1,0l-3.9,3.9C303.3,375.8,303.3,376.7,303.9,377.3L303.9,377.3z"/>
					<path class="st0" d="M251,403.5L251,403.5c-0.8,0-1.5-0.7-1.5-1.5v-5.5c0-0.8,0.6-1.5,1.4-1.5l0,0l0,0c0.8,0,1.5,0.7,1.5,1.5
						v5.5C252.5,402.8,251.8,403.5,251,403.5L251,403.5z"/>
					<path class="st0" d="M252,397.6L252,397.6c-0.6,0.6-1.5,0.6-2.1,0l-3.9-3.9c-0.6-0.6-0.6-1.5,0-2.1l0,0l0,0
						c0.6-0.6,1.5-0.6,2.1,0l0,0l3.9,3.9C252.6,396.1,252.6,397,252,397.6z"/>
					<path class="st0" d="M250,397.6L250,397.6c0.6,0.6,1.5,0.6,2.1,0l3.9-3.9c0.6-0.6,0.6-1.5,0-2.1l0,0c-0.6-0.6-1.5-0.6-2.1,0
						l-3.9,3.9C249.4,396.1,249.4,397,250,397.6z"/>
					<path class="st0" d="M269,403.5L269,403.5c-0.8,0-1.5-0.7-1.5-1.5v-5.5c0-0.8,0.6-1.5,1.4-1.5l0,0l0,0c0.8,0,1.5,0.7,1.5,1.5
						v5.5C270.5,402.8,269.8,403.5,269,403.5L269,403.5z"/>
					<path class="st0" d="M270,397.6L270,397.6c-0.6,0.6-1.5,0.6-2.1,0l-3.9-3.9c-0.6-0.6-0.6-1.5,0-2.1l0,0l0,0
						c0.6-0.6,1.5-0.6,2.1,0l0,0l3.9,3.9C270.6,396.1,270.6,397,270,397.6z"/>
					<path class="st0" d="M267.9,397.6L267.9,397.6c0.6,0.6,1.5,0.6,2.1,0l3.9-3.9c0.6-0.6,0.6-1.5,0-2.1l0,0l0,0
						c-0.6-0.6-1.5-0.6-2.1,0l0,0l-3.9,3.9C267.4,396.1,267.4,397,267.9,397.6z"/>
					<path class="st0" d="M286.9,403.5L286.9,403.5c-0.8,0-1.5-0.7-1.5-1.5v-5.5c0-0.8,0.7-1.5,1.5-1.5l0,0c0.8,0,1.5,0.7,1.5,1.5
						v5.5C288.4,402.8,287.7,403.5,286.9,403.5L286.9,403.5z"/>
					<path class="st0" d="M288,397.6L288,397.6c-0.6,0.6-1.5,0.6-2.1,0l-3.9-3.9c-0.6-0.6-0.6-1.5,0-2.1l0,0l0,0
						c0.6-0.6,1.5-0.6,2.1,0l0,0l3.9,3.9C288.6,396.1,288.6,397,288,397.6z"/>
					<path class="st0" d="M285.9,397.6L285.9,397.6c0.6,0.6,1.5,0.6,2.1,0l3.9-3.9c0.6-0.6,0.6-1.5,0-2.1l0,0
						c-0.6-0.6-1.5-0.6-2.1,0l-3.9,3.9C285.3,396.1,285.3,397,285.9,397.6L285.9,397.6z"/>
					<path class="st0" d="M304.9,403.5L304.9,403.5c-0.8,0-1.5-0.7-1.5-1.5v-5.5c0-0.8,0.6-1.5,1.4-1.5l0,0l0,0
						c0.8,0,1.5,0.7,1.5,1.5v5.5C306.4,402.8,305.7,403.5,304.9,403.5L304.9,403.5z"/>
					<path class="st0" d="M305.9,397.6L305.9,397.6c-0.6,0.6-1.5,0.6-2.1,0l-3.9-3.9c-0.6-0.6-0.6-1.5,0-2.1l0,0l0,0
						c0.6-0.6,1.5-0.6,2.1,0l0,0l3.9,3.9C306.5,396.1,306.5,397,305.9,397.6z"/>
					<path class="st0" d="M303.9,397.6L303.9,397.6c0.6,0.6,1.5,0.6,2.1,0l3.9-3.9c0.6-0.6,0.6-1.5,0-2.1l0,0l0,0
						c-0.6-0.6-1.5-0.6-2.1,0l0,0l-3.9,3.9C303.3,396.1,303.3,397,303.9,397.6z"/>
					<path class="st0" d="M251,423.7L251,423.7c-0.8,0-1.5-0.7-1.5-1.5v-5.5c0-0.8,0.7-1.5,1.5-1.5l0,0c0.8,0,1.5,0.7,1.5,1.5v5.5
						C252.5,423.1,251.8,423.7,251,423.7z"/>
					<path class="st0" d="M252,417.8L252,417.8c-0.6,0.6-1.5,0.6-2.1,0l0,0l-3.9-3.9c-0.6-0.6-0.6-1.5,0-2.1l0,0l0,0
						c0.6-0.6,1.5-0.6,2.1,0l0,0l3.9,3.9C252.6,416.3,252.6,417.2,252,417.8L252,417.8z"/>
					<path class="st0" d="M250,417.8L250,417.8c0.6,0.6,1.5,0.6,2.1,0l0,0l3.9-3.9c0.6-0.6,0.6-1.5,0-2.1l0,0
						c-0.6-0.6-1.5-0.6-2.1,0l-3.9,3.9C249.4,416.3,249.4,417.2,250,417.8L250,417.8z"/>
					<path class="st0" d="M269,423.7L269,423.7c-0.8,0-1.5-0.6-1.5-1.4l0,0v-5.5c0-0.8,0.6-1.5,1.5-1.5l0,0c0.8,0,1.5,0.7,1.5,1.5
						v5.5C270.5,423.1,269.8,423.7,269,423.7z"/>
					<path class="st0" d="M270,417.8L270,417.8c-0.6,0.6-1.5,0.6-2.1,0l-3.9-3.9c-0.6-0.6-0.6-1.5,0-2.1l0,0l0,0
						c0.6-0.6,1.5-0.6,2.1,0l0,0l3.9,3.9C270.6,416.3,270.6,417.2,270,417.8z"/>
					<path class="st0" d="M267.9,417.8L267.9,417.8c0.6,0.6,1.5,0.6,2.1,0l0,0l3.9-3.9c0.6-0.6,0.6-1.5,0-2.1l0,0l0,0
						c-0.6-0.6-1.5-0.6-2.1,0l0,0l-3.9,3.9C267.4,416.3,267.4,417.2,267.9,417.8L267.9,417.8z"/>
					<path class="st0" d="M286.9,423.7L286.9,423.7c-0.8,0-1.5-0.7-1.5-1.5v-5.5c0-0.8,0.7-1.5,1.5-1.5l0,0c0.8,0,1.5,0.7,1.5,1.5
						v5.5C288.4,423.1,287.7,423.7,286.9,423.7z"/>
					<path class="st0" d="M288,417.8L288,417.8c-0.6,0.6-1.5,0.6-2.1,0l0,0l-3.9-3.9c-0.6-0.6-0.6-1.5,0-2.1l0,0l0,0
						c0.6-0.6,1.5-0.6,2.1,0l0,0l3.9,3.9C288.6,416.3,288.6,417.2,288,417.8L288,417.8z"/>
					<path class="st0" d="M285.9,417.8L285.9,417.8c0.6,0.6,1.5,0.6,2.1,0l0,0l3.9-3.9c0.6-0.6,0.6-1.5,0-2.1l0,0
						c-0.6-0.6-1.5-0.6-2.1,0l-3.9,3.9C285.3,416.3,285.3,417.2,285.9,417.8z"/>
					<path class="st0" d="M304.9,423.7L304.9,423.7c-0.8,0-1.5-0.6-1.5-1.4l0,0v-5.5c0-0.8,0.6-1.5,1.5-1.5l0,0
						c0.8,0,1.5,0.7,1.5,1.5v5.5C306.4,423.1,305.7,423.7,304.9,423.7z"/>
					<path class="st0" d="M305.9,417.8L305.9,417.8c-0.6,0.6-1.5,0.6-2.1,0l-3.9-3.9c-0.6-0.6-0.6-1.5,0-2.1l0,0l0,0
						c0.6-0.6,1.5-0.6,2.1,0l0,0l3.9,3.9C306.5,416.3,306.5,417.2,305.9,417.8C306,417.8,305.9,417.8,305.9,417.8z"/>
					<path class="st0" d="M303.9,417.8L303.9,417.8c0.6,0.6,1.5,0.6,2.1,0l0,0l3.9-3.9c0.6-0.6,0.6-1.5,0-2.1l0,0l0,0
						c-0.6-0.6-1.5-0.6-2.1,0l0,0l-3.9,3.9C303.3,416.3,303.3,417.2,303.9,417.8L303.9,417.8z"/>
					<path class="st0" d="M251,444L251,444c-0.8,0-1.5-0.7-1.5-1.5V437c0-0.8,0.7-1.5,1.5-1.5l0,0c0.8,0,1.5,0.6,1.5,1.5v5.6
						C252.4,443.4,251.8,444,251,444z"/>
					<path class="st0" d="M252,438.1L252,438.1c-0.6,0.6-1.5,0.6-2.1,0l0,0l-3.9-3.9c-0.6-0.6-0.6-1.5,0-2.1l0,0l0,0
						c0.6-0.6,1.5-0.6,2.1,0l3.9,3.9C252.6,436.6,252.6,437.5,252,438.1L252,438.1z"/>
					<path class="st0" d="M250,438.1L250,438.1c0.6,0.6,1.5,0.6,2.1,0l0,0l3.9-3.9c0.6-0.6,0.6-1.5,0-2.1l0,0
						c-0.6-0.6-1.5-0.6-2.1,0L250,436C249.4,436.6,249.4,437.5,250,438.1L250,438.1z"/>
					<path class="st0" d="M269,444L269,444c-0.8,0-1.5-0.7-1.5-1.5V437c0-0.8,0.6-1.5,1.4-1.5l0,0l0,0c0.8,0,1.5,0.6,1.5,1.4l0,0
						v5.6C270.4,443.4,269.8,444,269,444z"/>
					<path class="st0" d="M270,438.1L270,438.1c-0.6,0.6-1.5,0.6-2.1,0l-3.9-3.9c-0.6-0.6-0.6-1.5,0-2.1l0,0l0,0
						c0.6-0.6,1.5-0.6,2.1,0l3.9,3.9C270.6,436.6,270.6,437.5,270,438.1z"/>
					<path class="st0" d="M267.9,438.1L267.9,438.1c0.6,0.6,1.5,0.6,2.1,0l0,0l3.9-3.9c0.6-0.6,0.6-1.5,0-2.1l0,0l0,0
						c-0.6-0.6-1.5-0.6-2.1,0l-3.9,3.9C267.4,436.6,267.3,437.5,267.9,438.1L267.9,438.1z"/>
					<path class="st0" d="M286.9,444L286.9,444c-0.8,0-1.5-0.7-1.5-1.5V437c0-0.8,0.7-1.5,1.5-1.5l0,0c0.8,0,1.5,0.6,1.5,1.5v5.6
						C288.4,443.4,287.7,444,286.9,444z"/>
					<path class="st0" d="M288,438.1L288,438.1c-0.6,0.6-1.5,0.6-2.1,0l0,0l-3.9-3.9c-0.6-0.6-0.6-1.5,0-2.1l0,0l0,0
						c0.6-0.6,1.5-0.6,2.1,0l3.9,3.9C288.6,436.6,288.6,437.5,288,438.1L288,438.1z"/>
					<path class="st0" d="M285.9,438.1L285.9,438.1c0.6,0.6,1.5,0.6,2.1,0l0,0l3.9-3.9c0.6-0.6,0.6-1.5,0-2.1l0,0
						c-0.6-0.6-1.5-0.6-2.1,0l-3.9,3.9C285.3,436.6,285.3,437.5,285.9,438.1L285.9,438.1z"/>
					<path class="st0" d="M304.9,444L304.9,444c-0.8,0-1.5-0.7-1.5-1.5V437c0-0.8,0.6-1.5,1.4-1.5l0,0l0,0c0.8,0,1.5,0.6,1.5,1.4
						l0,0v5.6C306.3,443.4,305.7,444,304.9,444z"/>
					<path class="st0" d="M305.9,438.1L305.9,438.1c-0.6,0.6-1.5,0.6-2.1,0l-3.9-3.9c-0.6-0.6-0.6-1.5,0-2.1l0,0l0,0
						c0.6-0.6,1.5-0.6,2.1,0l3.9,3.9C306.5,436.6,306.4,437.5,305.9,438.1z"/>
					<path class="st0" d="M303.9,438.1L303.9,438.1c0.6,0.6,1.5,0.6,2.1,0l0,0l3.9-3.9c0.6-0.6,0.6-1.5,0-2.1l0,0l0,0
						c-0.6-0.6-1.5-0.6-2.1,0l-3.9,3.9C303.3,436.6,303.3,437.5,303.9,438.1C303.8,438.1,303.9,438.1,303.9,438.1z"/>
					<path class="st0" d="M251,464.2L251,464.2c-0.8,0-1.5-0.7-1.5-1.5v-5.5c0-0.8,0.7-1.5,1.5-1.5l0,0c0.8,0,1.5,0.7,1.5,1.5v5.5
						C252.5,463.6,251.8,464.2,251,464.2z"/>
					<path class="st0" d="M252,458.3L252,458.3c-0.6,0.6-1.5,0.6-2.1,0l-3.9-3.9c-0.6-0.6-0.6-1.5,0-2.1l0,0l0,0
						c0.6-0.6,1.5-0.6,2.1,0l0,0l3.9,3.9C252.6,456.8,252.6,457.8,252,458.3z"/>
					<path class="st0" d="M250,458.3L250,458.3c0.6,0.6,1.5,0.6,2.1,0l3.9-3.9c0.6-0.6,0.6-1.5,0-2.1l0,0c-0.6-0.6-1.5-0.6-2.1,0
						l-3.9,3.9C249.4,456.8,249.4,457.8,250,458.3z"/>
					<path class="st0" d="M269,464.2L269,464.2c-0.8,0-1.5-0.7-1.5-1.5v-5.5c0-0.8,0.6-1.5,1.4-1.5l0,0l0,0c0.8,0,1.5,0.7,1.5,1.5
						v5.5C270.5,463.6,269.8,464.2,269,464.2z"/>
					<path class="st0" d="M270,458.3L270,458.3c-0.6,0.6-1.5,0.6-2.1,0l-3.9-3.9c-0.6-0.6-0.6-1.5,0-2.1l0,0l0,0
						c0.6-0.6,1.5-0.6,2.1,0l0,0l3.9,3.9C270.6,456.8,270.6,457.7,270,458.3z"/>
					<path class="st0" d="M267.9,458.3L267.9,458.3c0.6,0.6,1.5,0.6,2.1,0l3.9-3.9c0.6-0.6,0.6-1.5,0-2.1l0,0l0,0
						c-0.6-0.6-1.5-0.6-2.1,0l0,0l-3.9,3.9C267.4,456.8,267.4,457.8,267.9,458.3z"/>
					<path class="st0" d="M286.9,464.2L286.9,464.2c-0.8,0-1.5-0.7-1.5-1.5v-5.5c0-0.8,0.7-1.5,1.5-1.5l0,0c0.8,0,1.5,0.7,1.5,1.5
						v5.5C288.4,463.6,287.7,464.2,286.9,464.2z"/>
					<path class="st0" d="M288,458.3L288,458.3c-0.6,0.6-1.5,0.6-2.1,0l-3.9-3.9c-0.6-0.6-0.6-1.5,0-2.1l0,0l0,0
						c0.6-0.6,1.5-0.6,2.1,0l0,0l3.9,3.9C288.6,456.8,288.6,457.8,288,458.3z"/>
					<path class="st0" d="M285.9,458.3L285.9,458.3c0.6,0.6,1.5,0.6,2.1,0l3.9-3.9c0.6-0.6,0.6-1.5,0-2.1l0,0
						c-0.6-0.6-1.5-0.6-2.1,0l-3.9,3.9C285.4,456.8,285.5,457.7,285.9,458.3z"/>
					<path class="st0" d="M304.9,464.2L304.9,464.2c-0.8,0-1.5-0.7-1.5-1.5v-5.5c0-0.8,0.6-1.5,1.4-1.5l0,0l0,0
						c0.8,0,1.5,0.7,1.5,1.5v5.5C306.4,463.6,305.7,464.2,304.9,464.2z"/>
					<path class="st0" d="M305.9,458.3L305.9,458.3c-0.6,0.6-1.5,0.6-2.1,0l-3.9-3.9c-0.6-0.6-0.6-1.5,0-2.1l0,0l0,0
						c0.6-0.6,1.5-0.6,2.1,0l0,0l3.9,3.9C306.5,456.8,306.5,457.8,305.9,458.3z"/>
					<path class="st0" d="M303.9,458.3L303.9,458.3c0.6,0.6,1.5,0.6,2.1,0l3.9-3.9c0.6-0.6,0.6-1.5,0-2.1l0,0l0,0
						c-0.6-0.6-1.5-0.6-2.1,0l0,0l-3.9,3.9C303.3,456.8,303.3,457.8,303.9,458.3z"/>
					<path class="st8" d="M270.5,161.5h44.1c3.1,0,5.7-2.6,5.7-5.7l0,0c0-3.1-2.6-5.7-5.7-5.7h-44.1c-3.1,0-5.7,2.6-5.7,5.7l0,0
						C264.8,159,267.3,161.5,270.5,161.5z"/>
					<circle class="st8" cx="298.2" cy="147.3" r="14.2"/>
					<path class="st8" d="M272.5,151.4c0,5.6,4.5,10.1,10.1,10.1s10.1-4.5,10.1-10.1s-4.5-10.1-10.1-10.1l0,0
						C277,141.3,272.5,145.9,272.5,151.4z"/>
					<path class="st12" d="M220.1,161.3H258c5.4,0,9.7,4.3,9.7,9.7v0.9c0,5.4-4.3,9.7-9.7,9.7h-37.9c-5.4,0-9.7-4.3-9.7-9.7V171
						C210.4,165.7,214.7,161.3,220.1,161.3z"/>
					<path class="st12" d="M235.9,179.1h4.7c27.5,0,49.8,22.3,49.8,49.8v90.9c0,27.5-22.3,49.8-49.8,49.8h-4.7
						c-27.5,0-49.8-22.3-49.8-49.8v-90.9C186.1,201.4,208.4,179.1,235.9,179.1z"/>
					<rect x="201.3" y="200.4" class="st12" width="5.2" height="14.7"/>
					<path class="st12" d="M201.9,176.1h74.3c6.7,0,12.2,5.4,12.2,12.2v1.1c0,6.7-5.4,12.2-12.2,12.2h-74.3
						c-6.7,0-12.2-5.4-12.2-12.2v-1.1C189.7,181.5,195.2,176.1,201.9,176.1z"/>
					<path class="st13" d="M136.7,369.5c-4,0-8-0.3-12-1c-6-1-10.1-6.6-9.1-12.6s6.6-10.1,12.6-9.1l0,0c20.1,3.2,38.1-5.1,53.5-24.7
						c7.8-10.2,13.9-21.5,18.3-33.6c1.9-5.8,8.2-9,14-7c5.8,1.9,9,8.2,7,14c-5.1,14.3-12.4,27.7-21.6,39.7
						C181.9,357.7,160.4,369.5,136.7,369.5z"/>
					<path class="st13" d="M236.9,318.6l27.1-47c-7.6-4.2-16.1-6.3-24.7-6.3l0,0c-10.1,0-19.9,2.9-28.3,8.5L236.9,318.6z"/>
					<circle class="st13" cx="203.6" cy="222.4" r="7.4"/>
					<path class="st0" d="M208.4,222.4c0,2.6-2.1,4.8-4.8,4.8c-2.6,0-4.8-2.1-4.8-4.8c0-2.6,2.1-4.8,4.8-4.8l0,0
						C206.3,217.6,208.4,219.8,208.4,222.4L208.4,222.4z"/>
					<circle class="st13" cx="270.7" cy="222.4" r="7.4"/>
					<path class="st0" d="M275.4,222.4c0,2.6-2.1,4.8-4.8,4.8c-2.6,0-4.8-2.1-4.8-4.8c0-2.6,2.1-4.8,4.8-4.8l0,0
						C273.3,217.6,275.4,219.8,275.4,222.4z"/>
					<path class="st13" d="M237.7,247.7h0.6c3.5,0,6.3,2.8,6.3,6.3v12.6c0,3.5-2.8,6.3-6.3,6.3h-0.6c-3.5,0-6.3-2.8-6.3-6.3V254
						C231.4,250.6,234.2,247.7,237.7,247.7z"/>
					<path class="st0" d="M236.3,176.1h3c17.5,0,31.6,14.2,31.6,31.6v16.8c0,17.5-14.2,31.6-31.6,31.6h-3
						c-17.5,0-31.6-14.2-31.6-31.6v-16.8C204.7,190.2,218.9,176.1,236.3,176.1z"/>
					<path class="st13" d="M237.8,254.2L237.8,254.2c-18.3,0-33-14.8-33.1-33.1v-13.8c0.1-18.3,14.8-33,33.1-33.1l0,0
						c18.3,0,33,14.8,33.1,33.1v13.9C270.9,239.4,256.1,254.2,237.8,254.2z"/>
					<path class="st14" d="M252.9,214.3h0.4c2.2,0,4,1.8,4,4v8.1c0,2.2-1.8,4-4,4h-0.4c-2.2,0-4-1.8-4-4v-8.1
						C248.8,216.1,250.6,214.3,252.9,214.3z"/>
					<path class="st14" d="M222.4,214.3h0.4c2.2,0,4,1.8,4,4v8.1c0,2.2-1.8,4-4,4h-0.4c-2.2,0-4-1.8-4-4v-8.1
						C218.4,216.1,220.2,214.3,222.4,214.3z"/>
					<path class="st0" d="M237.8,229.5h-2.5c0.1-1.4,1.3-2.4,2.7-2.3c1.2,0.1,2.2,1.1,2.3,2.3H237.8z"/>
					<path class="st15" d="M246.1,207.8h12.6c1.2,0,2.1,1,2.1,2.1v0.2c0,1.2-1,2.1-2.1,2.1h-12.6c-1.2,0-2.1-1-2.1-2.1V210
						C243.9,208.8,244.9,207.8,246.1,207.8z"/>
					<path class="st15" d="M216.9,207.8h12.6c1.2,0,2.1,1,2.1,2.1v0.2c0,1.2-1,2.1-2.1,2.1h-12.6c-1.2,0-2.1-1-2.1-2.1V210
						C214.8,208.8,215.8,207.8,216.9,207.8z"/>
					<path class="st15" d="M233.6,233.3c0.1,2.3,2.1,4.2,4.5,4c2.2-0.1,3.9-1.9,4-4H233.6z"/>
					<path class="st16" d="M262.7,267.9l-25.8,50.6l-25-48.9c-13.4,7.5-22.2,20.3-22.2,34.9v166.8h98.6V304.6
						C288.3,288.8,278,275,262.7,267.9z"/>
					<path class="st5" d="M188.9,366.7h100.3c3.5,0,6.3,2.8,6.3,6.3v0.6c0,3.5-2.8,6.3-6.3,6.3H188.9c-3.5,0-6.3-2.8-6.3-6.3V373
						C182.6,369.5,185.4,366.7,188.9,366.7z"/>
					<path class="st5" d="M217.7,178c7.2,0,13.6-5,17.1-12.4c0.7-1.6,2.6-2.2,4.1-1.5c0.7,0.3,1.2,0.8,1.5,1.5
						c3.5,7.4,9.8,12.4,17.1,12.4c4.3-0.1,8.4-1.7,11.5-4.7c0.6-0.5,1.6-0.5,2.1,0.1c0.2,0.3,0.4,0.6,0.4,1v10.1
						c0,5.4-3.4,9.9-7.6,9.9h-53c-4.2,0-7.6-4.5-7.6-9.9v-10.8c0-0.8,0.7-1.5,1.5-1.5c0.4,0,0.8,0.2,1,0.4
						C208.8,176,213.2,177.9,217.7,178z"/>
					<path class="st5" d="M270.4,201.7h-65.6c-1.9,0-3.5-1.5-3.5-3.4v-1.5c0-1.9,1.5-3.4,3.5-3.4h65.6c1.9,0,3.5,1.5,3.5,3.4v1.5
						C273.8,200.2,272.3,201.7,270.4,201.7z"/>
					<path class="st13" d="M284.2,275.3c-1.9-2.4-4.6-4-7.7-4.3c-0.2,3-0.2,6.1,0.2,9.1c0.4,3.1-1,6.1-3.6,7.8
						c-0.2,0.2-0.6,0.3-0.9,0.3c-1.3-1.2-2.3-2.7-2.7-4.4c-0.4-1.6-0.2-3.3,0.7-4.7c1.1-1.7,2.3-3.2,3.7-4.7
						c0.8-1.1,1.4-2.3,1.7-3.6c-2.4,0-4.8,0.7-6.8,2.2c-0.7,0.5-1.3,1.1-1.8,1.8c0,0.2,0,0.4,0,0.6c-0.1,2.1-0.3,4.2-0.4,6.3
						c-0.2,1.2,0.2,2.4,1.1,3.1c1.9,1.7,2.9,4.2,2.6,6.7c0,0.7-0.1,1.3-0.2,2c0.3,0.5,0.6,1,0.9,1.5c0.3-1.3,0.9-2.5,1.7-3.5
						c1-1.4,2.1-2.6,3.4-3.7c1.5-1.2,2.4-2.9,2.6-4.8c0.2-2.1,0.7-4.3,1.3-6.3c0.7,0.4,0.4,1,0.4,1.4c-0.8,4.2-1.6,8.5-2.5,12.7
						c-0.2,1.5-0.6,3-1.1,4.4c-0.7,1.6-2,2.9-3.5,3.6c0.2,0.4,0.5,0.9,0.7,1.3l0.3-0.2c1.8-1.1,2.7-2.9,3.6-4.6
						c0.8-1.6,1.5-3.2,2.4-5c0.1,0.6,0,1.2-0.2,1.7c-1.5,3.8-2.9,7.6-4.5,11.4c0.6,1.2,1.2,2.5,1.8,3.9c0.2-0.2,0.4-0.4,0.5-0.5
						s0.2-0.2,0.4-0.3c0.1,0,0.2,0,0.3,0c0.4,0.5,0,0.8-0.2,1.1s-0.4,0.4-0.6,0.6c0.5,1.1,0.9,2.1,1.3,3.2c1-1.2,2-2.4,2.9-3.5
						c-0.1,0.8-0.5,1.5-1,2c-0.7,0.8-1.2,1.7-1.5,2.7c0.2,0.6,0.4,1.2,0.6,1.8c0-0.2,0-0.3,0.1-0.5c0.3-1.6,1-3.1,2.1-4.3
						c1.6-1.8,2.6-4,4.3-5.8c0.1-0.1,0.2-0.4,0.5-0.3c-0.6,1.2-1.3,2.4-2.2,3.5c-1.1,1.1-1.4,2.7-0.9,4.2c0.3,1.2,0.1,2.5-0.6,3.5
						c-0.5,0.8-1.1,1.6-1.8,2.4c-0.4-0.2-0.7-0.5-0.9-0.8c0.2,0.7,0.4,1.5,0.6,2.2c1.2-1.7,3.1-2.8,5.1-3.1c3-0.4,4.8-2.4,6.5-4.5
						c0.3-0.5,0.7-0.8,1.2-0.9c-0.2,1-1,1.4-1.5,2c-2.1,2.6-4.3,5.1-6.7,7.4c-1.1,1-2.7,1.5-4.2,1.1c0.1,0.4,0.1,0.8,0.2,1.1
						c0.2,0,0.5,0,0.7,0c1.6-0.2,3-0.8,4.2-1.8l2.4-1.6l0.2,0.2c-2.4,1.9-4.7,3.8-7,5.6c0.1,1,0.2,2,0.2,2.9c0.1,0,0.2,0.1,0.3,0.2
						c-0.1,0.1-0.2,0.1-0.3,0.2c0.2,3.4-0.5,6.7-1.9,9.7c-2,3.9-5.7,7.1-11,9.6c0.1,1.2,0.2,2.3,0.4,3.5c0.5,3.9,0.7,7.8,1.4,11.6
						c0.1,0.3,0,0.6-0.2,0.7c-0.6,0-0.6-0.5-0.7-0.9c-0.8-4.3-2.5-8.2-3.5-12.5l-0.3-1.3c-1.5,0.5-3.1,1-4.8,1.5
						c0.8,3.3,1.6,6.5,2.4,9.7c0.1,0.4,0.4,0.9,0,1.5c-0.7-0.3-0.6-0.9-0.7-1.4c-0.6-3.2-1.4-6.5-2.2-9.7l-2.1,0.5
						c0.6,1.7,1.2,3.3,1.8,5c0.8,2.4,1.6,4.9,2.4,7.3c0.1,0.4,0.4,0.9-0.1,1.4c-0.5-0.2-0.5-0.6-0.6-0.9c-1.3-4.3-2.8-8.5-4.5-12.7
						c-1.3,0.3-2.7,0.5-4.1,0.8c1.5,3.5,2.9,7,4.2,10.5c0.3,0.8,0.2,0.8-0.2,1.9c-1.8-4.2-3.5-8.3-5.2-12.2
						c-6.4,0.9-12.9,1.3-19.4,1.2c-6.1,0-11,4.9-11,11s4.9,11,11,11l0,0c35.2,0,57.6-9.2,66.7-27.5
						C314.9,317.4,287.4,279.5,284.2,275.3z M294.5,304.4c-1.9,1.9-2.7,4.5-4.1,6.8c-1,1.8-3,2.8-5,2.7c-1.1-3.3-0.1-5.5,3.1-6.8
						c0.7-0.3,1.5-0.5,2.2-0.7c1.8-0.5,2.8-1.8,4-3.3C294.9,303.5,294.8,304,294.5,304.4z"/>
					<path class="st0" d="M276.5,271c0-0.4,0.1-0.8,0.2-1.2c0.1-0.7,0-1.3-0.4-1.9c-0.4,0.4-0.5,1-0.5,1.6c-0.1,0.5-0.1,1-0.2,1.4
						C275.9,270.9,276.2,271,276.5,271z"/>
					<path class="st0" d="M266.5,273.9c-0.2,0.7-0.3,1.4-0.4,2.1c0.3-0.4,0.5-0.8,0.8-1.1C266.9,274.5,266.8,274.1,266.5,273.9z"/>
					<path class="st13" d="M269.4,354.5c-0.4-2.5-0.6-5-0.8-7.6c-0.4,0.2-0.8,0.3-1.2,0.5c0.1,0.6,0.3,1.3,0.5,1.9
						C268.2,351.1,268.8,352.8,269.4,354.5z"/>
					<path class="st13" d="M265.9,278c0-0.7,0.1-1.3,0.2-2c-1.9,3-2.3,6.6-1,9.9c0-0.1,0-0.2,0-0.2
						C265.5,283.1,265.8,280.6,265.9,278z"/>
					<path class="st0" d="M219.9,301.7c1.6,0.2,1.6,0.3,2.1-1.3c0.8-3-0.6-6.2-3.3-7.7c-1.2-0.6-2.4-1.1-3.6-1.5
						c-2.5-0.6-4.6-2.2-6-4.3c-0.2-0.4-0.6-0.7-1-0.9c-0.1,0.7,0.1,1.4,0.5,1.9c2.3,2.6,3.5,5.7,5.1,8.8
						C214.9,299.3,216.7,301.3,219.9,301.7z"/>
					<path class="st0" d="M270.1,279.2c-0.9,1.4-1.1,3.1-0.7,4.7c0.5,1.7,1.4,3.2,2.7,4.4c0.3,0,0.6-0.1,0.9-0.3
						c2.6-1.7,4-4.7,3.6-7.8c-0.3-3-0.4-6.1-0.2-9.1c-0.3,0-0.7-0.1-1-0.1c-0.3,1.3-0.9,2.6-1.7,3.6
						C272.4,276,271.2,277.6,270.1,279.2z"/>
					<path class="st0" d="M264.5,325.9c0-1.3,0.2-2.3,1.5-2.9c0.5-0.3,0.9-0.7,1.3-1.2c0.3-0.3,0.8-0.5,0.5-1s-0.8-0.2-1.2-0.1
						c-1.5,0.5-2.9,0.8-4.3-0.3c-0.3-0.2-0.7-0.2-0.9,0c-0.3,0.3-0.3,0.7,0,1c0.5,0.7,1.1,1.3,1.7,1.9c0.4,0.4,0.7,0.9,0.6,1.5
						c-0.2,7.8,1.1,15.4,2.9,22.9l0.8-0.3C265.5,340.4,264.6,333.1,264.5,325.9z"/>
					<path class="st0" d="M268.8,333.5c0-0.8,0.1-1.3,1.1-1.4c0.6,0,1.2-0.3,1.6-0.8c-1.5-0.2-2.9-1.1-3.8-2.4
						c0.2,6,0.4,12,0.8,17.9l1-0.4C269.1,342.2,268.9,337.8,268.8,333.5z"/>
					<path class="st13" d="M270.4,361.5c0.1,0.4,0.1,0.9,0.7,0.9c0.2-0.2,0.3-0.5,0.2-0.7c-0.7-3.9-0.9-7.8-1.4-11.6
						c-0.1-1.2-0.3-2.3-0.4-3.5l-1,0.4c0.2,2.5,0.5,5,0.8,7.6c-0.6-1.7-1.1-3.4-1.5-5.1c-0.2-0.6-0.3-1.3-0.5-1.9l-0.8,0.3l0.3,1.3
						C267.8,353.2,269.6,357.2,270.4,361.5z"/>
					<path class="st0" d="M266.6,306.6c0.4-0.9,0.7-1.5,1.1-2.1c2.3-4.2,0.7-7.3-1.7-10c-1.7-1.8-2.5-4.2-2.3-6.7
						c0.1-1.2,0.2-2.4,0.3-3.5c0-0.4,0.1-1-0.5-1.3c-0.1,1.1-0.3,2.2-0.4,3.2c-0.7,4.6-1.4,9.3-0.6,14
						C262.8,302.8,264.3,305.2,266.6,306.6z"/>
					<path class="st0" d="M230.4,302.5c-0.1,1.4-0.4,2.8-0.5,4.2c-0.2,3.7,2.4,6.6,5.8,8c1.2-2.4,1.3-5.1,0.4-7.5
						c-1.7-4.5-4.6-8.1-7.5-11.8c-0.6-0.8-1.2-1.7-1.9-2.5l-0.3,0.2c0.3,1.1,0.9,2.2,1.7,3C229.6,297.8,230.5,300.1,230.4,302.5z"/>
					<path class="st0" d="M219.7,308.8c0.7,0.8,1.5,1.4,2.4,1.9c2.2,1.2,4.9,1.2,7.1,0c-2.1-2.5-3.9-5-7.1-6.1
						c-1.6-0.5-3.2-1.1-4.8-1.5c-1.4-0.3-2.6-1.1-3.4-2.2c-1-1.3-2.1-2.5-3.2-3.7c-0.5-0.5-1-1-1.6-1.6c-0.1,0.6,0.1,1.2,0.6,1.6
						C213,301.1,216.3,304.9,219.7,308.8z"/>
					<path class="st0" d="M270,299.8c1.1-0.1,2.2-0.3,3.2-0.8c-0.8-1.4-1.5-2.6-2.2-3.8C270.5,296.6,270.3,298.2,270,299.8z"/>
					<path class="st0" d="M276.7,295.3c0.6-1.4,0.9-2.9,1.1-4.4c0.9-4.2,1.7-8.5,2.5-12.7c0.1-0.4,0.4-1-0.4-1.4
						c-0.7,2-1.1,4.2-1.3,6.3c-0.2,1.9-1.2,3.6-2.6,4.8c-1.2,1.1-2.4,2.4-3.4,3.7c-0.8,1.1-1.4,2.2-1.7,3.5c0.7,1.2,1.5,2.5,2.2,3.8
						C274.7,298.2,276,296.9,276.7,295.3z"/>
					<path class="st0" d="M235.1,320c1.2,0,1.4-0.3,0.8-1.4c-1.8-3.4-5.4-5.6-9.3-5.6c-2.5-0.1-4.9-1.1-6.9-2.7
						c-1.2-0.9-2.5-1.7-3.8-2.6l-0.2,0.2c0.4,0.4,0.8,0.9,1.2,1.2c3.2,2.6,6.4,5.2,9.7,7.8C229,319,232.1,320,235.1,320z"/>
					<path class="st0" d="M268.1,310.1c0,1.1,0.3,1.3,1.3,0.8c2.7-1.4,4.7-3.8,5.8-6.6l0.3-0.8c-0.5-1.1-1.1-2.2-1.6-3.2
						C270.3,302.2,268.1,306,268.1,310.1z"/>
					<path class="st0" d="M280.2,290.4c-0.9,1.9-1.6,3.5-2.4,5c-0.9,1.8-1.8,3.6-3.6,4.6l-0.3,0.2c0.5,1,1.1,2.1,1.6,3.2
						c1.5-3.8,3-7.6,4.5-11.4C280.2,291.6,280.3,291,280.2,290.4z"/>
					<path class="st0" d="M246.6,287.8c2-2.7,1.7-5.3,0.3-7.8s-3-4.9-3.7-7.7c-0.1-0.6-0.6-1.1-1.2-1.2c0.1,0.3,0.2,0.7,0.3,1
						c0.7,1.7,0.9,3.5,0.4,5.3c-0.3,1.3-0.7,2.5-0.9,3.8c-0.4,1.9,0.3,3.8,1.7,5C244.3,287,245.4,287.5,246.6,287.8z"/>
					<path class="st0" d="M223.3,293.3c0.8,0.9,1,2.2,0.6,3.3c-0.6,1.7-0.6,3.5,0.1,5.1c0.7,1.6,1.6,3.1,2.7,4.5
						c0.5,0.6,1,0.3,1.3-0.1c1-1.1,1.5-2.7,1.2-4.2c-0.3-2-1.2-3.8-2.5-5.4c-1.8-2.2-3.4-4.5-4.9-6.9c-0.7-1.2-1.5-2.2-2.5-3.1
						c-0.1,0.5,0.1,1.1,0.5,1.5C221,289.8,222.1,291.5,223.3,293.3z"/>
					<path class="st0" d="M265.1,285.9c-0.2,1.2-0.2,2.4-0.1,3.5c0.2,2.2,0.8,4.1,2.8,5.4c1.4,0.9,2,0.7,2.2-1c0-0.1,0-0.1,0-0.2
						c-1.3-2.1-2.5-3.9-3.5-5.1C266,287.7,265.5,286.8,265.1,285.9z"/>
					<path class="st0" d="M267.6,285c-0.9-0.8-1.3-2-1.1-3.1c0.1-2.1,0.3-4.2,0.4-6.3c0-0.2,0-0.4,0-0.6c-0.3,0.4-0.6,0.7-0.8,1.1
						c-0.1,0.7-0.1,1.3-0.2,2c-0.1,2.6-0.4,5.1-0.8,7.6c0,0.1,0,0.2,0,0.2c0.4,0.9,0.9,1.8,1.5,2.6c1,1.3,2.2,3,3.5,5.1
						c0.1-0.7,0.1-1.3,0.2-2C270.5,289.2,269.5,286.7,267.6,285z"/>
					<path class="st0" d="M248.9,303.6c0.8-5.5-1.4-7.3-4.7-8.8c-2.1-0.8-3.7-2.5-4.5-4.7c-0.3-1.1-0.8-2.1-1.4-3l-0.3,0.1
						c0.3,0.9,0.6,1.8,0.9,2.7c1.2,3.7,2.3,7.3,4.6,10.5C244.8,302.3,246.8,303.4,248.9,303.6z"/>
					<path class="st0" d="M237.7,312.9c-0.8,2.8-0.1,5.8,1.8,7.9c0.3,0.4,0.6,0.9,1.2,0.7s0.6-0.7,0.8-1.2c0.8-3.2,0.5-6.6-0.9-9.6
						s-3-5.8-4.5-8.7c-0.1-0.5-0.5-0.9-1.1-1c0.4,1.7,1.1,3.3,1.9,4.8C238.1,308,238.4,310.6,237.7,312.9z"/>
					<path class="st0" d="M260.3,306.2c0.3,3.1,1.8,6,4,8.2c1,1,1.5,0.8,1.8-0.5c0.7-2.8-0.2-5.8-2.3-7.9c-0.9-0.8-1.6-1.8-2.1-2.9
						c-0.5-1.6-0.8-3.3-0.9-5c0-1.2-0.2-2.4-0.6-3.5c-0.3,0.1-0.4,0.4-0.4,0.8C259.9,298.9,259.9,302.6,260.3,306.2z"/>
					<path class="st0" d="M271,311.3c-3.2,1-4.5,3.2-4.5,6.6c0,1.8,0.5,2.1,2.1,1.2c2.4-1.2,4.3-3.3,5.4-5.8c0.8-1.8,2-3.5,3.4-4.9
						l0.3-0.3c-0.1-0.3-0.2-0.5-0.4-0.8C275.6,309.2,273.5,310.6,271,311.3z"/>
					<path class="st0" d="M278.5,306.5c-0.1,0-0.2,0-0.3,0c-0.1,0.1-0.3,0.2-0.4,0.3c-0.2,0.2-0.4,0.4-0.5,0.5
						c0.1,0.3,0.2,0.5,0.4,0.8c0.2-0.2,0.4-0.4,0.6-0.6S278.9,307,278.5,306.5z"/>
					<path class="st0" d="M241.4,325.1c-1.8-3.4-4.5-4.7-8.3-3.8c-1.9,0.5-3.8,0.4-5.6-0.2c-0.7-0.3-1.5-0.5-2.4-0.5
						c-0.1,0.6,0.2,0.8,0.6,0.9c1.2,0.4,2.5,0.7,3.8,1c0.5,0,1,0.3,1.4,0.6c1.5,1.5,3.3,2.5,5.3,3.1c1.4,0.5,2.9,0.7,4.3,0.5
						C241.8,326.6,242,326.1,241.4,325.1z"/>
					<path class="st0" d="M248.1,290.1c-0.5,2.4,0.3,4.7,1,7c2.7-1.4,4-4.5,3.2-7.4c-1-4-2.1-8-3.2-12.1c-0.1-0.6-0.4-1.1-0.9-1.4
						c0.2,1.8,0.7,3.6,1.3,5.3c0.5,1.5,0.4,3.1-0.2,4.5C248.7,287.4,248.3,288.8,248.1,290.1z"/>
					<path class="st0" d="M249,331.2c-1.5-1.8-2.6-3.5-1.6-6c0.2-0.4,0.1-0.8-0.3-1c0,0-0.1,0-0.1-0.1c-0.5-0.1-0.7,0.3-0.9,0.7
						c-0.3,0.9-1.1,1.6-2,1.8c-0.5,0.1-1,0.3-1.5,0.4c-0.4,0.1-0.9,0.1-0.9,0.7s0.5,0.5,0.8,0.6c1,0.3,2,0.5,3,0.5
						c0.4-0.1,0.9,0.1,1.1,0.5c3,4.2,6.2,8.4,8.3,13.1c1.1,2.5,2.2,5,3.2,7.6l0.9-0.2C256.5,343.2,253.5,336.9,249,331.2z"/>
					<path class="st13" d="M263.1,363.6c0.5-0.5,0.2-1,0.1-1.4c-0.8-2.5-1.6-4.9-2.4-7.3c-0.6-1.7-1.2-3.4-1.8-5l-0.9,0.2
						c1.6,4.2,3.1,8.4,4.5,12.7C262.7,363,262.6,363.4,263.1,363.6z"/>
					<path class="st0" d="M257.2,330.2c-0.8-4.1-1.9-8.1-3.4-12c-0.2-0.4-0.1-0.9,0.2-1.2c0.7-1,1.1-2.1,1.2-3.2
						c-0.7,0-1.3,0.3-1.6,0.9c-0.6,0.7-1.6,1-2.6,0.9c-0.4,0-0.8-0.1-0.9,0.3s0.3,0.8,0.8,0.9c1.8,0.4,2.5,1.7,2.8,3.4
						c0.1,0.7,0.4,1.3,0.5,2c1.5,6,2.8,11.9,4.4,17.9c0.8,3.1,1.7,6.2,2.5,9.4l0.6-0.2C260.2,342.9,258.6,336.6,257.2,330.2z"/>
					<path class="st13" d="M264,360.4c0.5-0.5,0.1-1,0-1.5c-0.8-3.2-1.6-6.5-2.4-9.7l-0.6,0.2c0.8,3.2,1.6,6.4,2.2,9.7
						C263.4,359.5,263.4,360.1,264,360.4z"/>
					<path class="st0" d="M252,296.5c-1.9,2.7-2.1,6.3-0.5,9.2c0.4,0.8,0.8,0.9,1.3,0.1c1-1.4,1.6-3,1.8-4.7
						c0.3-2.6-0.2-5.2-0.3-7.8c-0.1-2.1-0.4-4.3-0.6-6.4h-0.3c0,1.4,0.1,2.7,0,4.1C253.4,292.8,253,294.8,252,296.5z"/>
					<path class="st0" d="M222.8,330.4c-1-3.5-2.7-4.8-6-4.2c-2.5,0.5-4.9,1-7.3-0.4c0.2,0.9,0.8,1.1,1.4,1.2c0.5,0.1,1,0.3,1.5,0.6
						c1.7,1.1,3.4,2.2,5,3.2C219.1,331.8,221.3,331.6,222.8,330.4z"/>
					<path class="st0" d="M290.7,306.4c-0.7,0.2-1.5,0.5-2.2,0.7c-3.2,1.2-4.2,3.5-3.1,6.8c2,0.2,4-0.9,5-2.7
						c1.4-2.2,2.1-4.9,4.1-6.8c0.3-0.4,0.4-0.9,0.2-1.4C293.5,304.5,292.5,305.9,290.7,306.4z"/>
					<path class="st0" d="M240.6,289.4c0.5,1.5,1.3,2.8,2.4,3.8c0.9,0.9,2.1,1.3,3.4,1.1c0.5,0,1-0.2,0.8-0.9
						c-0.9-2.5-1.7-5.2-4.6-6.1c-1.6-0.5-2.8-1.8-3.1-3.4c-0.6-1.6-1.3-3.2-2-4.8l-0.4,0.2c0.2,0.6,0.3,1.1,0.5,1.7
						C238.6,283.8,239.8,286.5,240.6,289.4z"/>
					<path class="st0" d="M244.1,305.6c1.3,2.1,3.3,3.8,5.7,4.6c0.4,0.2,1,0.5,1.4,0.1s0.1-0.9,0-1.3c-0.5-2.2-2.2-4-4.4-4.7
						c-2-0.6-3.7-2.1-4.7-4c-0.5-1.3-1.4-2.4-2.5-3.2c0,0.2,0.1,0.4,0.1,0.5C241.2,300.3,242.5,303,244.1,305.6z"/>
					<path class="st0" d="M235.5,333.2c0-1.8-0.8-3.5-2.2-4.6c-3.1-2.5-6.8-3.6-10.4-5c0.6,0.9,1.6,1.1,2.4,1.5
						c1.7,0.6,2.9,2,3.3,3.8C229.4,331.9,232.4,333.8,235.5,333.2z"/>
					<path class="st0" d="M275.3,317.6c-0.7,1.6-0.6,3.5,0.3,5c3.2-1.5,4.7-4.2,3.9-7.1c-0.3-0.9-0.3-1.9-0.1-2.8
						c-0.1-0.4-0.3-0.8-0.4-1.2C277.4,313.3,276.2,315.4,275.3,317.6z"/>
					<path class="st0" d="M281.9,307.9c-1,1.2-2,2.3-2.9,3.5c0.1,0.4,0.3,0.8,0.4,1.2c0.3-1,0.8-1.9,1.5-2.7
						C281.4,309.4,281.8,308.7,281.9,307.9z"/>
					<path class="st0" d="M242.2,321.6c-0.2,1.1,1,3.4,1.8,3.5s1.8-1.1,2.2-2.5c0-0.1,0.1-0.2,0.1-0.4c0.5-2.9,0-5.9-1.3-8.4
						c-0.7-1.6-1.6-3.1-2.9-4.3c-0.3,1,0.3,1.4,0.6,1.9c1.6,2.5,2.4,5,0.6,7.7C242.7,319.9,242.4,320.7,242.2,321.6z"/>
					<path class="st0" d="M258,306.3c-0.2,1.4-0.2,2.9,0,4.3c0.1,3,1.3,5.8,3.2,8c0.6,0.7,1.4,1.1,2.3,1.3c0.4,0.1,0.8,0.1,1-0.4
						c0.6-1.4,0.3-3.1-0.9-4.2c-0.8-0.6-1.6-1.2-2.4-1.7c-1.4-0.8-2.3-2.3-2.5-3.9c-0.2-1-0.2-2-0.1-3c0-0.4,0.2-0.9-0.3-1.3
						C258,305.6,258,306,258,306.3z"/>
					<path class="st0" d="M253.2,312.2c0.6,1.2,1.1,1.2,1.9,0.2c1.4-1.8,2.1-4.1,1.9-6.4c-0.1-1.9,0.3-3.9,1-5.6
						c0.1-0.4,0.4-0.8-0.1-1.2c-0.4,0.2-0.4,0.5-0.5,0.8c-0.6,2.2-1.8,4.1-3.4,5.7C252.1,307.5,251.9,309.7,253.2,312.2z"/>
					<path class="st0" d="M247.7,338.6c-0.3-0.5-0.6-1.1-0.8-1.8c0-0.9-0.6-1.7-1.4-2c0.4,1.9-1,2.8-1.9,4.2
						c1.2,0.1,1.9-0.4,2.9-0.6c2.5,4.1,4.6,8.3,6.5,12.7l1-0.1C252.2,346.6,250.1,342.5,247.7,338.6z"/>
					<path class="st13" d="M258.2,361.3c-1.3-3.5-2.7-7-4.2-10.5l-1,0.1c1.8,4,3.4,8.1,5.1,12.2
						C258.5,362.1,258.5,362.1,258.2,361.3z"/>
					<path class="st0" d="M230.4,333.1c-2.7-1.5-6-1.7-8.9-0.6c-1.4,0.5-2.9,0.5-4.3-0.1c-1.3-0.6-2.6-1-4-1.2
						c0.3,0.3,0.4,0.5,0.5,0.5c3.6,1.3,7.2,2.6,11,3.6C227,336,228.9,335.1,230.4,333.1z"/>
					<path class="st0" d="M280.1,319.9c0.5,0.2,1,0.4,1.5,0.5c-0.1-0.6-0.3-1.3-0.4-1.9C280.8,318.9,280.4,319.4,280.1,319.9z"/>
					<path class="st0" d="M285.8,319.3c2.4-2.3,4.6-4.8,6.7-7.4c0.5-0.6,1.3-1,1.5-2c-0.5,0.1-1,0.5-1.2,0.9
						c-1.7,2.1-3.5,4.1-6.5,4.5c-2,0.4-3.9,1.5-5.1,3.1c0.2,0.6,0.3,1.3,0.4,1.9C283.1,320.8,284.7,320.3,285.8,319.3z"/>
					<path class="st0" d="M232.4,337.7c1.9,0.2,3.9-0.4,5.4-1.6c0-0.5-0.3-0.6-0.6-0.7c-2.2-1.4-5.1-1.4-7.4-0.1
						c-1.7,0.9-3.7,1.1-5.6,0.8c-0.9-0.1-1.8-0.1-2.6-0.2c0,0.1,0,0.2,0,0.3l3.4,0.5C227.4,337.1,229.9,337.6,232.4,337.7z"/>
					<path class="st0" d="M279.7,321.9c-2.1,0.6-3.8,2.1-4.6,4.1c0.2,0.1,0.2,0.2,0.3,0.2c0.2,0,0.4,0.1,0.6,0.1
						c2.1,0,4.2-0.7,5.8-2l0.5-0.4c-0.1-0.8-0.2-1.6-0.4-2.4C281.1,321.6,280.4,321.7,279.7,321.9z"/>
					<path class="st0" d="M289.1,318l-2.4,1.6c-1.2,1-2.6,1.7-4.2,1.8c-0.2,0-0.5,0-0.7,0c0.1,0.8,0.3,1.6,0.4,2.4
						c2.4-1.8,4.7-3.7,7-5.6L289.1,318z"/>
					<path class="st0" d="M222.6,326.8c0.6,2.9,2.9,3.7,5.4,4.5c0.5-1.2,0.2-2.6-0.7-3.6c-1.3-1.3-2.9-2.3-4.7-2.9
						c-2.1-0.8-4-2.1-6.2-2.6c1.2,0.9,2.5,1.6,3.9,2.2C221.4,324.8,222.3,325.7,222.6,326.8z"/>
					<path class="st0" d="M280.6,316.3c-0.2-0.6-0.4-1.2-0.6-1.8C280,315.1,280.2,315.7,280.6,316.3z"/>
					<path class="st0" d="M281.5,317.1c0.6-0.8,1.2-1.6,1.8-2.4c0.7-1,0.9-2.3,0.6-3.5c-0.5-1.5-0.1-3.1,0.9-4.2
						c0.9-1,1.6-2.2,2.2-3.5c-0.4-0.1-0.4,0.2-0.5,0.3c-1.6,1.8-2.6,4-4.3,5.8c-1.1,1.2-1.8,2.7-2.1,4.3c0,0.2-0.1,0.3-0.1,0.5
						c0.2,0.6,0.4,1.2,0.6,1.8C280.8,316.6,281.2,316.9,281.5,317.1z"/>
					<path class="st0" d="M251.3,314.8c0.6-0.1,1-0.4,0.8-1.2c-0.5-1.9-1.2-2.5-4-2.7c-1.8,0-3.4-1.1-4.2-2.7
						c-0.4-0.8-0.8-1.6-1.4-2.7c-0.2,0.4-0.3,0.5-0.2,0.6c1.3,3.6,3.1,6.7,6.8,8.4C249.8,314.8,250.6,314.9,251.3,314.8z"/>
					<path class="st0" d="M239.8,335.4c0.4,0.2,0.9,0.4,1.2,0s0.2-0.8,0-1.2c-0.6-1.8-1.6-3.3-3-4.5c-2.3-1.6-4.7-3-7-4.5l-0.2,0.3
						c0.9,0.7,1.8,1.4,2.7,2c1.5,1,2.5,2.5,2.9,4.2C236.8,333.5,238.2,334.6,239.8,335.4z"/>
					<path class="st0" d="M276,313.5l-0.3-0.2c-1.3,2.5-2.7,4.9-3.9,7.4c-0.7,1.8-0.8,3.7-0.4,5.5c0.1,0.4,0.2,0.8,0.6,0.9
						s0.8-0.3,1-0.6c1.2-1.4,1.6-3.3,1.2-5c-0.5-1.6-0.3-3.3,0.4-4.7C275.1,315.7,275.6,314.6,276,313.5z"/>
					<path class="st0" d="M232.7,339.9c-0.4,0.1-0.8,0.1-1,0.5c0.4,0.4,0.8,0.1,1.2,0c1.1-0.1,2-1,3.1-0.6c1.3,0.3,2.7,0.3,4,0
						c1.4-0.1,2.6-0.8,3.5-2c-1.7-1.9-4.6-2-6.5-0.2l-0.1,0.1C235.7,338.8,234.3,339.6,232.7,339.9z"/>
					<path class="st0" d="M282.1,326.8c-2,0.6-4,0.6-6,0.2c-2.2-0.4-4.1,1.1-4.9,3.5c0.2,0.1,0.3,0.2,0.5,0.3
						c0.2,0.1,0.3,0.1,0.5,0.1c2.2,0.2,4.4-0.6,6.1-2c0.5-0.4,1.1-0.7,1.7-0.8c0.9-0.1,1.7-0.4,2.5-0.8c0-0.1,0-0.3,0-0.4
						C282.4,326.8,282.2,326.8,282.1,326.8z"/>
					<path class="st0" d="M282.5,326.8c0,0.1,0,0.3,0,0.4c0.1-0.1,0.2-0.1,0.3-0.2C282.7,326.9,282.6,326.8,282.5,326.8z"/>
					<path class="st0" d="M270.8,319.3c-1.3,2-2.7,4-2.7,6.6c0,1.1-0.1,2.4,0.8,3.4c0.5,0.6,0.9,0.7,1.4,0c0.8-0.9,0.9-2.3,0.1-3.3
						c-1.4-2.1-1-4,0.4-5.8c0.2-0.2,0.5-0.5,0.3-0.8C271.1,319.1,270.9,319.1,270.8,319.3z"/>
					<path class="st0" d="M244.3,336.5c0.6-0.6,0.8-1.6,0.4-2.4c-1-3.2-3.7-4.8-6.4-6.1c-0.2-0.1-0.3,0-0.4,0.2l0,0
						c0,0.1,0,0.2,0,0.2c0.3,0.2,0.6,0.3,0.9,0.5c1.9,0.9,3.2,2.1,3,4.4c-0.1,0.7,0.1,1.3,0.3,1.9
						C242.4,335.7,243.9,336.8,244.3,336.5z"/>
					<path class="st17" d="M251.4,221.4L251.4,221.4c-0.7,0-1.3-0.6-1.3-1.3v-2.7c0-0.7,0.6-1.3,1.3-1.3l0,0c0.7,0,1.3,0.6,1.3,1.3
						v2.7C252.7,220.8,252.1,221.4,251.4,221.4z"/>
					<path class="st17" d="M221.3,221.4L221.3,221.4c-0.7,0-1.3-0.6-1.3-1.3v-2.7c0-0.7,0.6-1.3,1.3-1.3l0,0c0.7,0,1.3,0.6,1.3,1.3
						v2.7C222.6,220.8,222,221.4,221.3,221.4L221.3,221.4z"/>
					<path class="st18" d="M142.4,284.7h-20c-1.1,0-2-0.9-2-2l0,0c0-1.1,0.9-2,2-2h20c1.1,0,2,0.9,2,2l0,0
						C144.4,283.8,143.5,284.7,142.4,284.7z"/>
					<path class="st18" d="M124.6,284.7h17.5c1.1,0,1.9,0.9,1.9,1.9l0,0c0,1.1-0.9,1.9-1.9,1.9h-17.5c-1.1,0-1.9-0.9-1.9-1.9l0,0
						C122.6,285.5,123.5,284.7,124.6,284.7z"/>
					<path class="st18" d="M149.6,282.1c0,2.5-2,4.4-4.4,4.4s-4.4-2-4.4-4.4s2-4.4,4.4-4.4S149.6,279.7,149.6,282.1L149.6,282.1z"/>
					<path class="st18" d="M125.5,280.6c0,2.5-2,4.4-4.4,4.4s-4.4-2-4.4-4.4c0-2.5,2-4.4,4.4-4.4l0,0
						C123.5,276.2,125.5,278.2,125.5,280.6z"/>
					<path class="st18" d="M128.3,280.6c0,0.8-0.7,1.5-1.5,1.5s-1.5-0.7-1.5-1.5s0.7-1.5,1.5-1.5l0,0
						C127.6,279.1,128.3,279.8,128.3,280.6z"/>
					<path class="st18" d="M141.1,280.6c0,1.1-0.9,1.9-1.9,1.9c-1.1,0-1.9-0.9-1.9-1.9c0-1.1,0.9-1.9,1.9-1.9l0,0
						C140.2,278.7,141.1,279.6,141.1,280.6L141.1,280.6z"/>
					<path class="st18" d="M124.8,285.5c0,1.2-1,2.2-2.2,2.2s-2.2-1-2.2-2.2s1-2.2,2.2-2.2S124.8,284.3,124.8,285.5L124.8,285.5z"/>
					<path class="st19" d="M137.4,208.3c0,0-9.1,39.7,8.2,78.1c0,0-11.2,11.6-25.7,0c0,0,5.6-82.6,21.5-82
						C141.5,204.5,139.1,208.4,137.4,208.3z"/>
					<path class="st17" d="M144.3,289.3h-25.9c-1.4,0-2.6-1.2-2.6-2.6l0,0c0-1.4,1.2-2.6,2.6-2.6h25.9c1.4,0,2.6,1.2,2.6,2.6l0,0
						C146.9,288.1,145.7,289.3,144.3,289.3z"/>
					<path class="st17" d="M121,289.3h22.8c1.4,0,2.5,1.1,2.5,2.5l0,0c0,1.4-1.1,2.5-2.5,2.5H121c-1.4,0-2.5-1.1-2.5-2.5l0,0
						C118.5,290.4,119.6,289.3,121,289.3z"/>
					<path class="st17" d="M153.6,286c0,3.2-2.6,5.8-5.8,5.8s-5.8-2.6-5.8-5.8c0-3.2,2.6-5.8,5.8-5.8S153.6,282.8,153.6,286
						L153.6,286z"/>
					<path class="st17" d="M122.3,284.1c0,3.2-2.6,5.8-5.8,5.8c-3.2,0-5.8-2.6-5.8-5.8c0-3.2,2.6-5.8,5.8-5.8
						C119.7,278.3,122.3,280.9,122.3,284.1L122.3,284.1z"/>
					<path class="st17" d="M125.9,284.1c0,1.1-0.9,2-2,2s-2-0.9-2-2s0.9-2,2-2S125.9,283,125.9,284.1z"/>
					<path class="st17" d="M142.5,284.1c0,1.4-1.1,2.5-2.5,2.5s-2.5-1.1-2.5-2.5s1.1-2.5,2.5-2.5S142.5,282.7,142.5,284.1
						L142.5,284.1z"/>
					<path class="st17" d="M121.4,290.4c0,1.6-1.3,2.8-2.8,2.8s-2.8-1.3-2.8-2.8s1.3-2.8,2.8-2.8l0,0
						C120.1,287.6,121.4,288.9,121.4,290.4z"/>
					<path class="st7" d="M90.4,297.4h-16c-0.9,0-1.6-0.7-1.6-1.6l0,0c0-0.9,0.7-1.6,1.6-1.6l0,0h16c0.9,0,1.6,0.7,1.6,1.6l0,0l0,0
						C92.1,296.6,91.3,297.4,90.4,297.4z"/>
					<path class="st7" d="M87.2,285.1h-37c-1.2,0-2.2-1-2.2-2.2l0,0c0-1.2,1-2.2,2.2-2.2l0,0h37c1.2,0,2.2,1,2.2,2.2l0,0
						C89.4,284.1,88.4,285.1,87.2,285.1L87.2,285.1z"/>
					<path class="st0" d="M54,342.7L54,342.7c-0.8,0-1.5-0.7-1.5-1.5v-5.5c0-0.8,0.7-1.5,1.5-1.5l0,0c0.8,0,1.5,0.7,1.5,1.5v5.5
						C55.5,342.1,54.8,342.7,54,342.7z"/>
					<path class="st0" d="M55,336.8L55,336.8c-0.6,0.6-1.5,0.6-2.1,0l-3.9-3.9c-0.6-0.6-0.6-1.5,0-2.1l0,0l0,0
						c0.6-0.6,1.5-0.6,2.1,0l0,0l3.9,3.9C55.6,335.3,55.6,336.2,55,336.8z"/>
					<path class="st0" d="M52.9,336.8L52.9,336.8c0.6,0.6,1.5,0.6,2.1,0l3.9-3.9c0.6-0.6,0.6-1.5,0-2.1l0,0c-0.6-0.6-1.5-0.6-2.1,0
						l-3.9,3.9C52.4,335.3,52.4,336.2,52.9,336.8z"/>
					<path class="st0" d="M71.9,342.7L71.9,342.7c-0.8,0-1.5-0.7-1.4-1.5v-5.5c0-0.8,0.6-1.5,1.4-1.5l0,0c0.8,0,1.5,0.7,1.5,1.5v5.5
						C73.4,342.1,72.7,342.7,71.9,342.7z"/>
					<path class="st0" d="M73,336.8L73,336.8c-0.6,0.6-1.5,0.6-2.1,0l-3.9-3.9c-0.6-0.6-0.6-1.5,0-2.1l0,0l0,0
						c0.6-0.6,1.5-0.6,2.1,0l0,0l3.9,3.9C73.6,335.3,73.6,336.2,73,336.8z"/>
					<path class="st0" d="M70.9,336.8L70.9,336.8c0.6,0.6,1.5,0.6,2.1,0l3.9-3.9c0.6-0.6,0.6-1.5,0-2.1l0,0l0,0
						c-0.6-0.6-1.5-0.6-2.1,0l0,0l-3.9,3.9C70.3,335.3,70.3,336.2,70.9,336.8z"/>
					<path class="st0" d="M89.9,342.7L89.9,342.7c-0.8,0-1.5-0.7-1.5-1.5v-5.5c0-0.8,0.7-1.5,1.5-1.5l0,0c0.8,0,1.5,0.7,1.5,1.5v5.5
						C91.3,342.1,90.7,342.7,89.9,342.7z"/>
					<path class="st0" d="M90.9,336.8L90.9,336.8c-0.6,0.6-1.5,0.6-2.1,0l-3.9-3.9c-0.6-0.6-0.6-1.5,0-2.1l0,0l0,0
						c0.6-0.6,1.5-0.6,2.1,0l0,0l3.9,3.9C91.5,335.3,91.5,336.2,90.9,336.8z"/>
					<path class="st0" d="M88.8,336.8L88.8,336.8c0.6,0.6,1.5,0.6,2.1,0l3.9-3.9c0.6-0.6,0.6-1.5,0-2.1l0,0c-0.6-0.6-1.5-0.6-2.1,0
						l-3.9,3.9C88.3,335.3,88.3,336.2,88.8,336.8z"/>
					<path class="st0" d="M107.8,342.7L107.8,342.7c-0.8,0-1.5-0.7-1.4-1.5v-5.5c0-0.8,0.6-1.5,1.4-1.5l0,0c0.8,0,1.5,0.7,1.5,1.5
						v5.5C109.3,342.1,108.6,342.7,107.8,342.7z"/>
					<path class="st0" d="M108.9,336.8L108.9,336.8c-0.6,0.6-1.5,0.6-2.1,0l-3.9-3.9c-0.6-0.6-0.6-1.5,0-2.1l0,0l0,0
						c0.6-0.6,1.5-0.6,2.1,0l0,0l3.9,3.9C109.4,335.3,109.4,336.2,108.9,336.8z"/>
					<path class="st0" d="M106.8,336.8L106.8,336.8c0.6,0.6,1.5,0.6,2.1,0l3.9-3.9c0.6-0.6,0.6-1.5,0-2.1l0,0l0,0
						c-0.6-0.6-1.5-0.6-2.1,0l0,0l-3.9,3.9C106.2,335.3,106.2,336.2,106.8,336.8z"/>
					<path class="st0" d="M54,363L54,363c-0.8,0-1.5-0.6-1.5-1.5V356c0-0.8,0.6-1.5,1.4-1.5l0,0l0,0c0.8,0,1.4,0.7,1.4,1.5v5.6
						C55.4,362.3,54.8,363,54,363z"/>
					<path class="st0" d="M55,357.1L55,357.1c-0.6,0.6-1.5,0.6-2.1,0l0,0l-3.9-3.9c-0.6-0.6-0.6-1.5,0-2.1l0,0l0,0
						c0.6-0.6,1.5-0.6,2.1,0l0,0L55,355C55.6,355.6,55.6,356.5,55,357.1L55,357.1z"/>
					<path class="st0" d="M52.9,357.1L52.9,357.1c0.6,0.6,1.5,0.6,2.1,0l0,0l3.9-3.9c0.6-0.6,0.6-1.5,0-2.1l0,0
						c-0.6-0.6-1.5-0.6-2.1,0l-3.9,3.9C52.4,355.6,52.3,356.5,52.9,357.1L52.9,357.1z"/>
					<path class="st0" d="M71.9,363L71.9,363c-0.8,0-1.4-0.6-1.4-1.5l0,0V356c0-0.8,0.6-1.5,1.4-1.5l0,0c0.8,0,1.5,0.7,1.5,1.5v5.6
						C73.4,362.4,72.7,363,71.9,363L71.9,363z"/>
					<path class="st0" d="M73,357.1L73,357.1c-0.6,0.6-1.5,0.6-2.1,0l-3.9-3.9c-0.6-0.6-0.6-1.5,0-2.1l0,0l0,0
						c0.6-0.6,1.5-0.6,2.1,0l0,0L73,355C73.6,355.6,73.6,356.5,73,357.1z"/>
					<path class="st0" d="M70.9,357.1L70.9,357.1c0.6,0.6,1.5,0.6,2.1,0l0,0l3.9-3.9c0.6-0.6,0.6-1.5,0-2.1l0,0l0,0
						c-0.6-0.6-1.5-0.6-2.1,0l0,0l-3.9,3.9C70.3,355.6,70.3,356.5,70.9,357.1L70.9,357.1z"/>
					<path class="st0" d="M89.9,363L89.9,363c-0.8,0-1.5-0.6-1.5-1.5V356c0-0.8,0.7-1.5,1.5-1.5l0,0c0.8,0,1.5,0.7,1.5,1.5v5.6
						C91.3,362.4,90.7,363,89.9,363z"/>
					<path class="st0" d="M90.9,357.1L90.9,357.1c-0.6,0.6-1.5,0.6-2.1,0l0,0l-3.9-3.9c-0.6-0.6-0.6-1.5,0-2.1l0,0l0,0
						c0.6-0.6,1.5-0.6,2.1,0l0,0l3.9,3.9C91.5,355.6,91.5,356.5,90.9,357.1L90.9,357.1z"/>
					<path class="st0" d="M88.8,357.1L88.8,357.1c0.6,0.6,1.5,0.6,2.1,0l0,0l3.9-3.9c0.6-0.6,0.6-1.5,0-2.1l0,0
						c-0.6-0.6-1.5-0.6-2.1,0l-3.9,3.9C88.3,355.6,88.3,356.5,88.8,357.1L88.8,357.1z"/>
					<path class="st0" d="M107.8,363L107.8,363c-0.8,0-1.4-0.6-1.4-1.5l0,0V356c0-0.8,0.6-1.5,1.4-1.5l0,0c0.8,0,1.5,0.7,1.5,1.5
						v5.6C109.3,362.4,108.6,363,107.8,363L107.8,363z"/>
					<path class="st0" d="M108.9,357.1L108.9,357.1c-0.6,0.6-1.5,0.6-2.1,0l-3.9-3.9c-0.6-0.6-0.6-1.5,0-2.1l0,0l0,0
						c0.6-0.6,1.5-0.6,2.1,0l0,0l3.9,3.9C109.4,355.6,109.4,356.5,108.9,357.1z"/>
					<path class="st0" d="M106.8,357.1L106.8,357.1c0.6,0.6,1.5,0.6,2.1,0l0,0l3.9-3.9c0.6-0.6,0.6-1.5,0-2.1l0,0l0,0
						c-0.6-0.6-1.5-0.6-2.1,0l0,0l-3.9,3.9C106.2,355.6,106.2,356.5,106.8,357.1L106.8,357.1z"/>
					<path class="st0" d="M54,383.2L54,383.2c-0.8,0-1.5-0.7-1.5-1.5v-5.6c0-0.8,0.7-1.5,1.5-1.5l0,0c0.8,0,1.5,0.6,1.5,1.5v5.6
						C55.5,382.6,54.8,383.2,54,383.2z"/>
					<path class="st0" d="M55,377.3L55,377.3c-0.6,0.6-1.5,0.6-2.1,0l0,0l-3.9-3.9c-0.6-0.6-0.6-1.5,0-2.1l0,0l0,0
						c0.6-0.6,1.5-0.6,2.1,0l3.9,3.9C55.6,375.8,55.6,376.7,55,377.3L55,377.3z"/>
					<path class="st0" d="M52.9,377.3L52.9,377.3c0.6,0.6,1.5,0.6,2.1,0l0,0l3.9-3.9c0.6-0.6,0.6-1.5,0-2.1l0,0
						c-0.6-0.6-1.5-0.6-2.1,0l-3.9,3.9C52.4,375.8,52.3,376.7,52.9,377.3L52.9,377.3z"/>
					<path class="st0" d="M71.9,383.2L71.9,383.2c-0.8,0-1.5-0.7-1.4-1.5v-5.6c0-0.8,0.6-1.5,1.4-1.5l0,0l0,0c0.8,0,1.5,0.6,1.5,1.4
						l0,0v5.6C73.4,382.6,72.7,383.2,71.9,383.2z"/>
					<path class="st0" d="M73,377.3L73,377.3c-0.6,0.6-1.5,0.6-2.1,0l-3.9-3.9c-0.6-0.6-0.6-1.5,0-2.1l0,0l0,0
						c0.6-0.6,1.5-0.6,2.1,0l3.9,3.9C73.6,375.8,73.6,376.7,73,377.3z"/>
					<path class="st0" d="M70.9,377.3L70.9,377.3c0.6,0.6,1.5,0.6,2.1,0l0,0l3.9-3.9c0.6-0.6,0.6-1.5,0-2.1l0,0l0,0
						c-0.6-0.6-1.5-0.6-2.1,0l-3.9,3.9C70.3,375.8,70.3,376.7,70.9,377.3L70.9,377.3z"/>
					<path class="st0" d="M89.9,383.2L89.9,383.2c-0.8,0-1.5-0.7-1.5-1.5v-5.6c0-0.8,0.7-1.5,1.5-1.5l0,0c0.8,0,1.5,0.6,1.5,1.5v5.6
						C91.3,382.6,90.7,383.2,89.9,383.2z"/>
					<path class="st0" d="M90.9,377.3L90.9,377.3c-0.6,0.6-1.5,0.6-2.1,0l0,0l-3.9-3.9c-0.6-0.6-0.6-1.5,0-2.1l0,0l0,0
						c0.6-0.6,1.5-0.6,2.1,0l3.9,3.9C91.5,375.8,91.5,376.7,90.9,377.3L90.9,377.3z"/>
					<path class="st0" d="M88.8,377.3L88.8,377.3c0.6,0.6,1.5,0.6,2.1,0l0,0l3.9-3.9c0.6-0.6,0.6-1.5,0-2.1l0,0
						c-0.6-0.6-1.5-0.6-2.1,0l-3.9,3.9C88.3,375.8,88.3,376.7,88.8,377.3L88.8,377.3z"/>
					<path class="st0" d="M107.8,383.2L107.8,383.2c-0.8,0-1.5-0.7-1.4-1.5v-5.6c0-0.8,0.6-1.5,1.4-1.5l0,0l0,0
						c0.8,0,1.5,0.6,1.5,1.4l0,0v5.6C109.3,382.6,108.6,383.2,107.8,383.2z"/>
					<path class="st0" d="M108.9,377.3L108.9,377.3c-0.6,0.6-1.5,0.6-2.1,0l-3.9-3.9c-0.6-0.6-0.6-1.5,0-2.1l0,0l0,0
						c0.6-0.6,1.5-0.6,2.1,0l3.9,3.9C109.4,375.8,109.4,376.7,108.9,377.3z"/>
					<path class="st0" d="M106.8,377.3L106.8,377.3c0.6,0.6,1.5,0.6,2.1,0l0,0l3.9-3.9c0.6-0.6,0.6-1.5,0-2.1l0,0l0,0
						c-0.6-0.6-1.5-0.6-2.1,0l-3.9,3.9C106.2,375.8,106.2,376.7,106.8,377.3L106.8,377.3z"/>
					<path class="st0" d="M54,403.5L54,403.5c-0.8,0-1.5-0.6-1.5-1.4c0,0,0,0,0-0.1v-5.5c0-0.8,0.7-1.5,1.5-1.5l0,0l0,0
						c0.8,0,1.5,0.7,1.5,1.5v5.5C55.5,402.8,54.8,403.5,54,403.5L54,403.5z"/>
					<path class="st0" d="M55,397.6L55,397.6c-0.6,0.6-1.5,0.6-2.1,0l-3.9-3.9c-0.6-0.6-0.6-1.5,0-2.1l0,0l0,0
						c0.6-0.6,1.5-0.6,2.1,0l0,0l3.9,3.9C55.6,396.1,55.6,397,55,397.6z"/>
					<path class="st0" d="M52.9,397.6L52.9,397.6c0.6,0.6,1.5,0.6,2.1,0l3.9-3.9c0.6-0.6,0.6-1.5,0-2.1l0,0c-0.6-0.6-1.5-0.6-2.1,0
						l-3.9,3.9C52.4,396.1,52.4,397,52.9,397.6z"/>
					<path class="st0" d="M71.9,403.5L71.9,403.5c-0.8,0-1.5-0.7-1.5-1.5l0,0v-5.5c0-0.8,0.6-1.5,1.4-1.5l0,0l0,0
						c0.8,0,1.5,0.7,1.5,1.5v5.5C73.4,402.8,72.7,403.5,71.9,403.5L71.9,403.5z"/>
					<path class="st0" d="M73,397.6L73,397.6c-0.6,0.6-1.5,0.6-2.1,0l-3.9-3.9c-0.6-0.6-0.6-1.5,0-2.1l0,0l0,0
						c0.6-0.6,1.5-0.6,2.1,0l0,0l3.9,3.9C73.6,396.1,73.6,397,73,397.6z"/>
					<path class="st0" d="M70.9,397.6L70.9,397.6c0.6,0.6,1.5,0.6,2.1,0l3.9-3.9c0.6-0.6,0.6-1.5,0-2.1l0,0l0,0
						c-0.6-0.6-1.5-0.6-2.1,0l0,0l-3.9,3.9C70.3,396.1,70.3,397,70.9,397.6z"/>
					<path class="st0" d="M89.9,403.5L89.9,403.5c-0.8,0-1.5-0.7-1.5-1.5l0,0v-5.5c0-0.8,0.7-1.5,1.5-1.5l0,0c0.8,0,1.5,0.7,1.5,1.5
						v5.5C91.3,402.8,90.7,403.5,89.9,403.5L89.9,403.5z"/>
					<path class="st0" d="M90.9,397.6L90.9,397.6c-0.6,0.6-1.5,0.6-2.1,0l-3.9-3.9c-0.6-0.6-0.6-1.5,0-2.1l0,0l0,0
						c0.6-0.6,1.5-0.6,2.1,0l0,0l3.9,3.9C91.5,396.1,91.5,397,90.9,397.6z"/>
					<path class="st0" d="M88.8,397.6L88.8,397.6c0.6,0.6,1.5,0.6,2.1,0l3.9-3.9c0.6-0.6,0.6-1.5,0-2.1l0,0c-0.6-0.6-1.5-0.6-2.1,0
						l-3.9,3.9C88.3,396.1,88.3,397,88.8,397.6z"/>
					<path class="st0" d="M107.8,403.5L107.8,403.5c-0.8,0-1.5-0.7-1.4-1.5v-5.5c0-0.8,0.6-1.5,1.4-1.5l0,0l0,0
						c0.8,0,1.5,0.7,1.5,1.5v5.5C109.3,402.8,108.7,403.5,107.8,403.5C107.9,403.5,107.8,403.5,107.8,403.5z"/>
					<path class="st0" d="M108.9,397.6L108.9,397.6c-0.6,0.6-1.5,0.6-2.1,0l-3.9-3.9c-0.6-0.6-0.6-1.5,0-2.1l0,0l0,0
						c0.6-0.6,1.5-0.6,2.1,0l0,0l3.9,3.9C109.4,396.1,109.4,397,108.9,397.6z"/>
					<path class="st0" d="M106.8,397.6L106.8,397.6c0.6,0.6,1.5,0.6,2.1,0l3.9-3.9c0.6-0.6,0.6-1.5,0-2.1l0,0l0,0
						c-0.6-0.6-1.5-0.6-2.1,0l0,0l-3.9,3.9C106.2,396.1,106.2,397,106.8,397.6z"/>
					<path class="st0" d="M54,423.7L54,423.7c-0.8,0-1.5-0.7-1.5-1.5v-5.5c0-0.8,0.7-1.5,1.5-1.5l0,0c0.8,0,1.5,0.7,1.5,1.5v5.5
						C55.5,423.1,54.8,423.7,54,423.7L54,423.7z"/>
					<path class="st0" d="M55,417.8L55,417.8c-0.6,0.6-1.5,0.6-2.1,0l0,0l-3.9-3.9c-0.6-0.6-0.6-1.5,0-2.1l0,0l0,0
						c0.6-0.6,1.5-0.6,2.1,0l0,0l3.9,3.9C55.6,416.3,55.6,417.2,55,417.8L55,417.8z"/>
					<path class="st0" d="M52.9,417.8L52.9,417.8c0.6,0.6,1.5,0.6,2.1,0l0,0l3.9-3.9c0.6-0.6,0.6-1.5,0-2.1l0,0
						c-0.6-0.6-1.5-0.6-2.1,0l-3.9,3.9C52.4,416.3,52.3,417.2,52.9,417.8L52.9,417.8z"/>
					<path class="st0" d="M71.9,423.7L71.9,423.7c-0.8,0-1.5-0.6-1.5-1.4l0,0v-5.5c0-0.8,0.6-1.5,1.4-1.5l0,0c0.8,0,1.5,0.7,1.5,1.5
						v5.5C73.4,423.1,72.7,423.7,71.9,423.7z"/>
					<path class="st0" d="M73,417.8L73,417.8c-0.6,0.6-1.5,0.6-2.1,0l-3.9-3.9c-0.6-0.6-0.6-1.5,0-2.1l0,0l0,0
						c0.6-0.6,1.5-0.6,2.1,0l0,0l3.9,3.9C73.6,416.3,73.6,417.2,73,417.8z"/>
					<path class="st0" d="M70.9,417.8L70.9,417.8c0.6,0.6,1.5,0.6,2.1,0l0,0l3.9-3.9c0.6-0.6,0.6-1.5,0-2.1l0,0l0,0
						c-0.6-0.6-1.5-0.6-2.1,0l0,0l-3.9,3.9C70.3,416.3,70.3,417.2,70.9,417.8L70.9,417.8z"/>
					<path class="st0" d="M89.9,423.7L89.9,423.7c-0.8,0-1.5-0.7-1.5-1.5v-5.5c0-0.8,0.7-1.5,1.5-1.5l0,0c0.8,0,1.5,0.7,1.5,1.5v5.5
						C91.3,423.1,90.7,423.7,89.9,423.7z"/>
					<path class="st0" d="M90.9,417.8L90.9,417.8c-0.6,0.6-1.5,0.6-2.1,0l0,0l-3.9-3.9c-0.6-0.6-0.6-1.5,0-2.1l0,0l0,0
						c0.6-0.6,1.5-0.6,2.1,0l0,0l3.9,3.9C91.5,416.3,91.5,417.2,90.9,417.8L90.9,417.8z"/>
					<path class="st0" d="M88.8,417.8L88.8,417.8c0.6,0.6,1.5,0.6,2.1,0l0,0l3.9-3.9c0.6-0.6,0.6-1.5,0-2.1l0,0
						c-0.6-0.6-1.5-0.6-2.1,0l-3.9,3.9C88.3,416.3,88.3,417.2,88.8,417.8L88.8,417.8z"/>
					<path class="st0" d="M107.8,423.7L107.8,423.7c-0.8,0-1.5-0.6-1.5-1.4l0,0v-5.5c0-0.8,0.6-1.5,1.4-1.5l0,0
						c0.8,0,1.5,0.7,1.5,1.5v5.5C109.3,423.1,108.6,423.7,107.8,423.7z"/>
					<path class="st0" d="M108.9,417.8L108.9,417.8c-0.6,0.6-1.5,0.6-2.1,0l-3.9-3.9c-0.6-0.6-0.6-1.5,0-2.1l0,0l0,0
						c0.6-0.6,1.5-0.6,2.1,0l0,0l3.9,3.9C109.4,416.3,109.4,417.2,108.9,417.8z"/>
					<path class="st0" d="M106.8,417.8L106.8,417.8c0.6,0.6,1.5,0.6,2.1,0l0,0l3.9-3.9c0.6-0.6,0.6-1.5,0-2.1l0,0l0,0
						c-0.6-0.6-1.5-0.6-2.1,0l0,0l-3.9,3.9C106.2,416.3,106.2,417.2,106.8,417.8L106.8,417.8z"/>
					<path class="st0" d="M54,444L54,444c-0.8,0-1.5-0.7-1.5-1.5V437c0-0.8,0.6-1.5,1.4-1.5l0,0l0,0c0.8,0,1.4,0.7,1.4,1.5v5.6
						C55.4,443.3,54.8,444,54,444z"/>
					<path class="st0" d="M55,438.1L55,438.1c-0.6,0.6-1.5,0.6-2.1,0l0,0l-3.9-3.9c-0.6-0.6-0.6-1.5,0-2.1l0,0l0,0
						c0.6-0.6,1.5-0.6,2.1,0L55,436C55.6,436.6,55.6,437.5,55,438.1L55,438.1z"/>
					<path class="st0" d="M52.9,438.1L52.9,438.1c0.6,0.6,1.5,0.6,2.1,0l0,0l3.9-3.9c0.6-0.6,0.6-1.5,0-2.1l0,0
						c-0.6-0.6-1.5-0.6-2.1,0l-3.9,3.9C52.3,436.6,52.3,437.5,52.9,438.1L52.9,438.1z"/>
					<path class="st0" d="M71.9,444L71.9,444c-0.8,0-1.5-0.7-1.4-1.5V437c0-0.8,0.6-1.5,1.4-1.5l0,0l0,0c0.8,0,1.5,0.6,1.5,1.4l0,0
						v5.6C73.4,443.4,72.7,444,71.9,444z"/>
					<path class="st0" d="M73,438.1L73,438.1c-0.6,0.6-1.5,0.6-2.1,0l-3.9-3.9c-0.6-0.6-0.6-1.5,0-2.1l0,0l0,0
						c0.6-0.6,1.5-0.6,2.1,0L73,436C73.6,436.6,73.6,437.5,73,438.1z"/>
					<path class="st0" d="M70.9,438.1L70.9,438.1c0.6,0.6,1.5,0.6,2.1,0l0,0l3.9-3.9c0.6-0.6,0.6-1.5,0-2.1l0,0l0,0
						c-0.6-0.6-1.5-0.6-2.1,0l-3.9,3.9C70.3,436.6,70.3,437.5,70.9,438.1L70.9,438.1z"/>
					<path class="st0" d="M89.9,444L89.9,444c-0.8,0-1.5-0.7-1.5-1.5V437c0-0.8,0.7-1.5,1.5-1.5l0,0c0.8,0,1.5,0.6,1.5,1.5v5.6
						C91.3,443.4,90.7,444,89.9,444z"/>
					<path class="st0" d="M90.9,438.1L90.9,438.1c-0.6,0.6-1.5,0.6-2.1,0l0,0l-3.9-3.9c-0.6-0.6-0.6-1.5,0-2.1l0,0l0,0
						c0.6-0.6,1.5-0.6,2.1,0l3.9,3.9C91.5,436.6,91.5,437.5,90.9,438.1L90.9,438.1z"/>
					<path class="st0" d="M88.8,438.1L88.8,438.1c0.6,0.6,1.5,0.6,2.1,0l0,0l3.9-3.9c0.6-0.6,0.6-1.5,0-2.1l0,0
						c-0.6-0.6-1.5-0.6-2.1,0l-3.9,3.9C88.3,436.6,88.3,437.5,88.8,438.1L88.8,438.1z"/>
					<path class="st0" d="M107.8,444L107.8,444c-0.8,0-1.5-0.7-1.4-1.5V437c0-0.8,0.6-1.5,1.4-1.5l0,0l0,0c0.8,0,1.5,0.6,1.5,1.4
						l0,0v5.6C109.3,443.4,108.6,444,107.8,444z"/>
					<path class="st0" d="M108.9,438.1L108.9,438.1c-0.6,0.6-1.5,0.6-2.1,0l-3.9-3.9c-0.6-0.6-0.6-1.5,0-2.1l0,0l0,0
						c0.6-0.6,1.5-0.6,2.1,0l3.9,3.9C109.4,436.6,109.4,437.5,108.9,438.1z"/>
					<path class="st0" d="M106.8,438.1L106.8,438.1c0.6,0.6,1.5,0.6,2.1,0l0,0l3.9-3.9c0.6-0.6,0.6-1.5,0-2.1l0,0l0,0
						c-0.6-0.6-1.5-0.6-2.1,0l-3.9,3.9C106.2,436.6,106.2,437.5,106.8,438.1L106.8,438.1z"/>
					<path class="st0" d="M54,464.2L54,464.2c-0.8,0-1.5-0.7-1.5-1.5v-5.5c0-0.8,0.7-1.5,1.5-1.5l0,0l0,0c0.8,0,1.5,0.7,1.5,1.5v5.5
						C55.5,463.6,54.8,464.2,54,464.2z"/>
					<path class="st0" d="M55,458.3L55,458.3c-0.6,0.6-1.5,0.6-2.1,0l-3.9-3.9c-0.6-0.6-0.6-1.5,0-2.1l0,0l0,0
						c0.6-0.6,1.5-0.6,2.1,0l0,0l3.9,3.9C55.6,456.8,55.6,457.8,55,458.3z"/>
					<path class="st0" d="M52.9,458.3L52.9,458.3c0.6,0.6,1.5,0.6,2.1,0l3.9-3.9c0.6-0.6,0.6-1.5,0-2.1l0,0c-0.6-0.6-1.5-0.6-2.1,0
						l-3.9,3.9C52.4,456.8,52.4,457.8,52.9,458.3z"/>
					<path class="st0" d="M71.9,464.2L71.9,464.2c-0.8,0-1.5-0.7-1.4-1.5v-5.5c0-0.8,0.6-1.5,1.4-1.5l0,0l0,0c0.8,0,1.5,0.7,1.5,1.5
						v5.5C73.4,463.6,72.7,464.2,71.9,464.2z"/>
					<path class="st0" d="M73,458.3L73,458.3c-0.6,0.6-1.5,0.6-2.1,0l-3.9-3.9c-0.6-0.6-0.6-1.5,0-2.1l0,0l0,0
						c0.6-0.6,1.5-0.6,2.1,0l0,0l3.9,3.9C73.6,456.8,73.6,457.8,73,458.3z"/>
					<path class="st0" d="M70.9,458.3L70.9,458.3c0.6,0.6,1.5,0.6,2.1,0l3.9-3.9c0.6-0.6,0.6-1.5,0-2.1l0,0l0,0
						c-0.6-0.6-1.5-0.6-2.1,0l0,0l-3.9,3.9C70.3,456.8,70.3,457.8,70.9,458.3z"/>
					<path class="st0" d="M89.9,464.2L89.9,464.2c-0.8,0-1.5-0.7-1.5-1.5v-5.5c0-0.8,0.7-1.5,1.5-1.5l0,0c0.8,0,1.5,0.7,1.5,1.5v5.5
						C91.3,463.6,90.7,464.2,89.9,464.2z"/>
					<path class="st0" d="M90.9,458.3L90.9,458.3c-0.6,0.6-1.5,0.6-2.1,0l-3.9-3.9c-0.6-0.6-0.6-1.5,0-2.1l0,0l0,0
						c0.6-0.6,1.5-0.6,2.1,0l0,0l3.9,3.9C91.5,456.8,91.5,457.8,90.9,458.3z"/>
					<path class="st0" d="M88.8,458.3L88.8,458.3c0.6,0.6,1.5,0.6,2.1,0l3.9-3.9c0.6-0.6,0.6-1.5,0-2.1l0,0c-0.6-0.6-1.5-0.6-2.1,0
						l-3.9,3.9C88.3,456.8,88.3,457.8,88.8,458.3z"/>
					<path class="st0" d="M107.8,464.2L107.8,464.2c-0.8,0-1.5-0.7-1.4-1.5v-5.5c0-0.8,0.6-1.5,1.4-1.5l0,0l0,0
						c0.8,0,1.5,0.7,1.5,1.5v5.5C109.3,463.6,108.6,464.2,107.8,464.2z"/>
					<path class="st0" d="M108.9,458.3L108.9,458.3c-0.6,0.6-1.5,0.6-2.1,0l-3.9-3.9c-0.6-0.6-0.6-1.5,0-2.1l0,0l0,0
						c0.6-0.6,1.5-0.6,2.1,0l0,0l3.9,3.9C109.4,456.8,109.4,457.8,108.9,458.3z"/>
					<path class="st0" d="M106.8,458.3L106.8,458.3c0.6,0.6,1.5,0.6,2.1,0l3.9-3.9c0.6-0.6,0.6-1.5,0-2.1l0,0l0,0
						c-0.6-0.6-1.5-0.6-2.1,0l0,0l-3.9,3.9C106.2,456.8,106.2,457.8,106.8,458.3z"/>
				</g>
			</g>
		</g>
	</g>
</g>
</svg>
