<?xml version="1.0" encoding="utf-8"?>
<!-- Generator: Adobe Illustrator 25.2.3, SVG Export Plug-In . SVG Version: 6.00 Build 0)  -->
<svg version="1.1" id="Layer_1" xmlns="http://www.w3.org/2000/svg" xmlns:xlink="http://www.w3.org/1999/xlink" x="0px" y="0px"
	 viewBox="0 0 381.8 619.1" style="enable-background:new 0 0 381.8 619.1;" xml:space="preserve">
<style type="text/css">
	.st0{fill:#F4B155;}
	.st1{fill:#FFF0CC;}
	.st2{fill:#231F20;}
	.st3{clip-path:url(#SVGID_2_);}
	.st4{fill:#F1F2F2;}
	.st5{fill:#6B3D46;}
	.st6{fill:none;}
	.st7{fill:#A4F6FF;}
	.st8{fill:#332227;}
	.st9{fill:#543139;}
	.st10{fill:#3F272D;}
	.st11{fill:#54323A;}
	.st12{fill:#FFFFFF;}
	.st13{fill:#EE915B;}
	.st14{fill:#F5B155;}
	.st15{fill:#D1D3D4;}
	.st16{fill:#F4B055;}
	.st17{fill:#4A355B;}
	.st18{fill:#D6306A;}
	.st19{fill:#FFD150;}
	.st20{fill:#E4705E;}
	.st21{fill:#DD4F65;}
	.st22{fill:#503B63;}
	.st23{fill:#FFD351;}
	.st24{fill:#C4475F;}
	.st25{fill:#48C2CA;}
	.st26{fill:#AECE83;}
	.st27{fill:#392B47;}
	.st28{fill:#E6705F;}
	.st29{fill:#414042;}
</style>
<g id="Layer_2_1_">
	<g id="Layer_1-2">
		<path class="st0" d="M381.8,23.5v572.2c0,12.9-10.9,23.5-24.4,23.5h-333C10.9,619.1,0,608.6,0,595.7V23.5C0,10.5,10.9,0,24.4,0
			h333C370.8,0,381.8,10.5,381.8,23.5z M357.7,582.1v-545c0-9.7-7.9-17.6-17.6-17.6H34.4c-9.7,0-17.6,7.9-17.6,17.6v545
			c0,9.7,7.9,17.5,17.6,17.6h305.7C349.8,599.6,357.7,591.8,357.7,582.1z"/>
		<path class="st1" d="M34.4,19.5h305.7c9.7,0,17.6,7.9,17.6,17.6v545c0,9.7-7.9,17.6-17.6,17.6H34.4c-9.7,0-17.6-7.9-17.6-17.6
			v-545C16.9,27.4,24.7,19.5,34.4,19.5z"/>
		<path class="st2" d="M93.6,540.9c-0.2-0.2-0.3-0.5-0.3-0.8V524h-5.2c-0.3,0-0.6-0.1-0.8-0.2c-0.2-0.2-0.2-0.5-0.2-0.8v-0.8
			c0-0.3,0.1-0.6,0.2-0.8c0.2-0.2,0.5-0.3,0.8-0.2h14.1c0.3,0,0.6,0.1,0.8,0.2c0.2,0.2,0.3,0.5,0.2,0.8v0.8c0,0.3-0.1,0.6-0.2,0.8
			c-0.2,0.2-0.5,0.3-0.8,0.2h-5.2v16.1c0.1,0.5-0.3,1-0.8,1.1c-0.1,0-0.2,0-0.4,0h-1.5C94.2,541.2,93.8,541.1,93.6,540.9z"/>
		<path class="st2" d="M105.9,540.9c-0.2-0.2-0.3-0.5-0.2-0.8v-17.9c0-0.3,0.1-0.6,0.2-0.8c0.2-0.2,0.5-0.3,0.8-0.3h1.6
			c0.3,0,0.6,0.1,0.9,0.3c0.2,0.2,0.3,0.5,0.3,0.8v7.4h9.7v-7.4c0-0.3,0.1-0.6,0.3-0.8c0.2-0.2,0.5-0.3,0.9-0.3h1.5
			c0.3,0,0.6,0.1,0.9,0.3c0.2,0.2,0.3,0.5,0.3,0.8v17.9c0,0.3-0.1,0.6-0.2,0.8c-0.2,0.2-0.6,0.3-0.9,0.3h-1.5
			c-0.3,0-0.6-0.1-0.9-0.3c-0.2-0.2-0.3-0.5-0.3-0.8v-7.6h-9.7v7.6c0,0.3-0.1,0.6-0.2,0.8c-0.2,0.2-0.6,0.3-0.9,0.3h-1.6
			C106.4,541.2,106.1,541.1,105.9,540.9z"/>
		<path class="st2" d="M126.6,540.9c-0.2-0.2-0.3-0.5-0.2-0.8v-17.9c0-0.3,0.1-0.6,0.2-0.8c0.2-0.2,0.5-0.3,0.8-0.3h12.3
			c0.3,0,0.6,0.1,0.8,0.2c0.2,0.2,0.2,0.5,0.2,0.8v0.8c0,0.3,0,0.6-0.2,0.8c-0.2,0.2-0.5,0.3-0.8,0.2h-9.6v5.7h7
			c0.3,0,0.6,0.1,0.8,0.2c0.2,0.2,0.3,0.5,0.2,0.8v0.7c0,0.3-0.1,0.6-0.2,0.8c-0.2,0.2-0.5,0.3-0.8,0.2h-7v5.8h9.6
			c0.3,0,0.6,0.1,0.8,0.3c0.2,0.2,0.3,0.5,0.2,0.8v0.8c0,0.3-0.1,0.6-0.2,0.8c-0.2,0.2-0.5,0.3-0.8,0.2h-12.2
			C127.1,541.2,126.8,541.1,126.6,540.9z"/>
		<path class="st2" d="M155.1,540.9c-0.2-0.2-0.3-0.5-0.2-0.8v-17.9c0-0.3,0.1-0.6,0.2-0.8c0.2-0.2,0.5-0.3,0.9-0.3h12.3
			c0.3,0,0.6,0.1,0.8,0.2c0.2,0.2,0.2,0.5,0.2,0.8v0.8c0,0.3,0,0.6-0.2,0.8c-0.2,0.2-0.5,0.3-0.8,0.2h-9.6v5.7h7
			c0.3,0,0.6,0.1,0.8,0.2c0.2,0.2,0.3,0.5,0.2,0.8v0.7c0,0.3-0.1,0.6-0.2,0.8c-0.2,0.2-0.5,0.3-0.8,0.2h-7v5.8h9.6
			c0.3,0,0.6,0.1,0.8,0.3c0.2,0.2,0.3,0.5,0.2,0.8v0.8c0,0.3,0,0.6-0.2,0.8c-0.2,0.2-0.5,0.3-0.8,0.2h-12.2
			C155.6,541.2,155.3,541.1,155.1,540.9z"/>
		<path class="st2" d="M172.1,540.9c-0.2-0.2-0.3-0.5-0.2-0.8v-17.9c-0.1-0.5,0.2-1,0.8-1.1c0.1,0,0.2,0,0.4,0h1.6
			c0.2,0,0.5,0,0.7,0.1c0.2,0.1,0.3,0.3,0.4,0.5l6,13.7l6-13.7c0.1-0.2,0.2-0.4,0.4-0.5c0.2-0.1,0.5-0.1,0.7-0.1h1.6
			c0.3,0,0.6,0.1,0.9,0.3c0.2,0.2,0.3,0.5,0.2,0.8v17.9c0,0.3-0.1,0.6-0.2,0.8c-0.2,0.2-0.5,0.3-0.8,0.3H189c-0.3,0-0.6-0.1-0.9-0.3
			c-0.2-0.2-0.3-0.5-0.3-0.8v-12.7l-5,11.2c-0.1,0.3-0.3,0.5-0.5,0.7c-0.2,0.2-0.5,0.2-0.8,0.2c-0.3,0-0.5,0-0.8-0.2
			c-0.2-0.2-0.4-0.4-0.5-0.7l-5-11.2v12.7c0.1,0.5-0.3,1-0.8,1.1c-0.1,0-0.2,0-0.4,0H173C172.6,541.2,172.3,541.1,172.1,540.9z"/>
		<path class="st2" d="M195.1,540.9c-0.2-0.2-0.3-0.5-0.2-0.8v-17.9c0-0.3,0.1-0.6,0.2-0.8c0.2-0.2,0.5-0.3,0.8-0.3h7.6
			c2.4,0,4.2,0.6,5.4,1.7c1.2,1.3,1.9,3.1,1.8,4.9c0.1,1.8-0.5,3.6-1.8,4.9c-1.2,1.1-3,1.7-5.4,1.7h-4.9v5.7c0,0.3-0.1,0.6-0.2,0.8
			c-0.2,0.2-0.6,0.3-0.9,0.3H196C195.7,541.2,195.4,541.1,195.1,540.9z M203.3,531.5c1,0.1,2-0.3,2.7-0.9c0.6-0.8,1-1.8,0.9-2.8
			c0.1-1-0.2-2.1-0.9-2.8c-0.7-0.7-1.7-1-2.7-0.9h-4.7v7.5L203.3,531.5z"/>
		<path class="st2" d="M213.2,540.9c-0.2-0.2-0.3-0.5-0.2-0.8v-17.9c0-0.3,0.1-0.6,0.2-0.8c0.2-0.2,0.5-0.3,0.8-0.3h12.3
			c0.3,0,0.6,0.1,0.8,0.2c0.2,0.2,0.2,0.5,0.2,0.8v0.8c0,0.3,0,0.6-0.2,0.8c-0.2,0.2-0.5,0.3-0.8,0.2h-9.6v5.7h7
			c0.3,0,0.6,0.1,0.8,0.2c0.2,0.2,0.3,0.5,0.2,0.8v0.7c0,0.3-0.1,0.6-0.2,0.8c-0.2,0.2-0.5,0.3-0.8,0.2h-7v5.8h9.6
			c0.3,0,0.6,0.1,0.8,0.3c0.2,0.2,0.3,0.5,0.2,0.8v0.8c0,0.3-0.1,0.6-0.2,0.8c-0.2,0.2-0.5,0.3-0.8,0.2H214
			C213.7,541.2,213.4,541.1,213.2,540.9z"/>
		<path class="st2" d="M230.2,540.9c-0.2-0.2-0.3-0.5-0.2-0.8v-17.9c0-0.3,0.1-0.6,0.2-0.8c0.2-0.2,0.5-0.3,0.8-0.3h7.7
			c1.9-0.1,3.7,0.4,5.2,1.6c1.3,1.2,1.9,3,1.8,4.7c0,1.3-0.3,2.5-1,3.5c-0.7,1-1.7,1.8-2.8,2.2l3.3,7.3c0.1,0.1,0.1,0.2,0.1,0.3
			c0,0.3-0.2,0.4-0.5,0.4h-2.4c-0.2,0-0.4,0-0.6-0.1c-0.1-0.1-0.3-0.3-0.3-0.4l-3-7h-4.7v6.5c0,0.3-0.1,0.6-0.2,0.8
			c-0.2,0.2-0.6,0.3-0.9,0.3H231C230.7,541.2,230.4,541.1,230.2,540.9z M238,530.8c1.1,0.1,2.1-0.2,3-0.8c0.7-0.7,1.1-1.6,1-2.6
			c0.1-1-0.2-1.9-0.9-2.6c-0.8-0.6-1.7-0.9-2.7-0.8h-4.7v6.8H238z"/>
		<path class="st2" d="M250.6,538.9c-1.7-1.8-2.6-4.4-2.6-7.7s0.9-5.9,2.6-7.7s4.2-2.7,7.5-2.7s5.7,0.9,7.5,2.7s2.6,4.4,2.6,7.7
			s-0.9,5.9-2.6,7.7s-4.2,2.8-7.5,2.8S252.4,540.7,250.6,538.9z M262.8,536.9c2.2-3.5,2.2-7.9,0-11.5c-2.6-2.6-6.8-2.6-9.4,0
			c-2.2,3.5-2.2,7.9,0,11.5C255.9,539.5,260.2,539.5,262.8,536.9C262.8,536.9,262.8,536.9,262.8,536.9z"/>
		<path class="st2" d="M271.3,540.9c-0.2-0.2-0.3-0.5-0.2-0.8v-17.9c0-0.3,0.1-0.6,0.2-0.8c0.2-0.2,0.5-0.3,0.8-0.3h7.7
			c1.9-0.1,3.7,0.4,5.2,1.6c1.3,1.2,1.9,3,1.8,4.7c0,1.2-0.3,2.5-1,3.5c-0.7,1-1.7,1.8-2.8,2.2l3.3,7.3c0.1,0.1,0.1,0.2,0.1,0.3
			c0,0.3-0.2,0.4-0.5,0.4h-2.4c-0.2,0-0.4,0-0.6-0.1c-0.2-0.1-0.3-0.3-0.3-0.4l-3-7h-4.7v6.5c0.1,0.5-0.3,1-0.8,1.1
			c-0.1,0-0.2,0-0.4,0h-1.6C271.8,541.2,271.5,541.1,271.3,540.9z M279.1,530.8c1.1,0.1,2.1-0.2,3-0.8c0.7-0.7,1.1-1.6,1-2.6
			c0.1-0.9-0.2-1.9-0.9-2.6c-0.8-0.6-1.7-0.9-2.7-0.8h-4.7v6.8H279.1z"/>
		<g>
			<defs>
				<path id="SVGID_1_" d="M83.9,78.5h209.5c22.2,0,40.3,18,40.3,40.3v312.3c0,22.2-18,40.3-40.3,40.3H83.9
					c-22.2,0-40.3-18-40.3-40.3V118.8C43.7,96.5,61.7,78.5,83.9,78.5z"/>
			</defs>
			<clipPath id="SVGID_2_">
				<use xlink:href="#SVGID_1_"  style="overflow:visible;"/>
			</clipPath>
			<g class="st3">
				<path class="st4" d="M-324.5,290.7h-37.5c-2.1,0-3.8-1.7-3.8-3.8l0,0c0-2.1,1.7-3.8,3.8-3.8h37.5c2.1,0,3.8,1.7,3.8,3.8l0,0
					C-320.7,289-322.4,290.7-324.5,290.7z"/>
				<path class="st4" d="M-358,290.7h32.9c2,0,3.6,1.6,3.6,3.6l0,0c0,2-1.6,3.6-3.6,3.6H-358c-2,0-3.6-1.6-3.6-3.6l0,0
					C-361.6,292.3-360,290.7-358,290.7z"/>
				<circle class="st4" cx="-319.3" cy="286" r="8.3"/>
				<circle class="st4" cx="-364.6" cy="283.2" r="8.3"/>
				<path class="st4" d="M-351,283.2c0,1.6-1.3,2.9-2.9,2.9c-1.6,0-2.9-1.3-2.9-2.9c0,0,0,0,0,0c0-1.6,1.3-2.9,2.9-2.9
					C-352.2,280.3-351,281.6-351,283.2z"/>
				<path class="st4" d="M-327,283.2c0,2-1.6,3.6-3.6,3.6s-3.6-1.6-3.6-3.6s1.6-3.6,3.6-3.6S-327,281.2-327,283.2z"/>
				<path class="st4" d="M-357.5,292.3c0,2.3-1.8,4.1-4.1,4.1s-4.1-1.8-4.1-4.1s1.8-4.1,4.1-4.1S-357.5,290-357.5,292.3z"/>
				<rect x="-21.9" y="174" class="st5" width="385.9" height="46.5"/>
				<polygon class="st6" points="323.6,20.9 60.3,20.9 60.3,299.5 60.3,331.8 60.3,484.5 323.5,484.5 323.5,331.8 323.6,331.8 				
					"/>
				<rect x="43.8" y="71.5" class="st7" width="293.4" height="481.2"/>
				<rect x="42.4" y="213.3" class="st8" width="294.1" height="254.1"/>
				<ellipse class="st5" cx="192.4" cy="475.8" rx="176.2" ry="104.2"/>
				<rect x="47.5" y="71.5" class="st6" width="289.6" height="481.2"/>
				<path class="st9" d="M123.3,437.4H266c6.6,0,11.9,5.3,11.9,11.9v5.8c0,6.6-5.3,11.9-11.9,11.9H123.3c-6.6,0-11.9-5.3-11.9-11.9
					v-5.8C111.4,442.8,116.7,437.4,123.3,437.4z"/>
				<path class="st9" d="M86.9,401.6h207.6c9.3,0,16.9,7.6,16.9,16.9v8.2c0,9.3-7.6,16.9-16.9,16.9H86.9c-9.3,0-16.9-7.6-16.9-16.9
					v-8.2C70,409.2,77.5,401.6,86.9,401.6z"/>
				<path class="st10" d="M149.4,159.8l47.5-27.1c8-4.6,17.6-5.3,26.2-1.9l76,29.8L149.4,159.8z"/>
				<path class="st11" d="M170.5,195.7c4.4,0,55.3-46.3,79.3-62.4c17.5-11.7,39.9-13.5,59-4.6l141.6,66H185.8L170.5,195.7z"/>
				<path class="st5" d="M4.7,155.1c4.3,0,34.8-19.9,58.3-35.6c17.1-11.5,39-13.2,57.6-4.5l184.8,85.8L0.4,194.7L4.7,155.1z"/>
				<path class="st12" d="M62.3,194.7h241.1c12.8,0,23.1,10.4,23.1,23.1v1.9c0,12.8-10.4,23.1-23.1,23.1H62.3
					c-12.8,0-23.1-10.4-23.1-23.1v-1.9C39.2,205.1,49.6,194.7,62.3,194.7z"/>
				<path class="st12" d="M88.2,242.8h210c12.7,0,23,10.3,23,23l0,0l0,0c0,12.7-10.3,23-23,23h-210c-12.7,0-23-10.3-23-23l0,0
					C65.2,253.1,75.5,242.8,88.2,242.8C88.2,242.8,88.2,242.8,88.2,242.8z"/>
				<circle class="st12" cx="335.4" cy="212.6" r="53.2"/>
				<circle class="st12" cx="46.3" cy="194.7" r="53.2"/>
				<circle class="st12" cx="115" cy="194.7" r="18.3"/>
				<circle class="st12" cx="263.2" cy="194.7" r="23.1"/>
				
					<ellipse transform="matrix(0.1602 -0.9871 0.9871 0.1602 -195.0785 276.937)" class="st12" cx="65.2" cy="253.1" rx="26.2" ry="26.2"/>
				<rect x="129" y="210.5" class="st13" width="117.3" height="117.3"/>
				<rect x="125" y="198.5" class="st14" width="17.4" height="136"/>
				<rect x="239.1" y="198.5" class="st14" width="17.5" height="136"/>
				<rect x="133.2" y="397.6" class="st15" width="116" height="21.3"/>
				<rect x="165.7" y="183.8" class="st16" width="58.5" height="5.4"/>
				<rect x="113.7" y="343.7" class="st13" width="19.5" height="75.6"/>
				<ellipse class="st13" cx="123.4" cy="334.8" rx="18.3" ry="17.5"/>
				<rect x="249.2" y="343.7" class="st13" width="19.5" height="75.6"/>
				<ellipse class="st13" cx="258.9" cy="334.8" rx="18.3" ry="17.5"/>
				<rect x="119.5" y="343.7" class="st14" width="19.5" height="75.6"/>
				<path class="st17" d="M180.1,255h22.3c21.6,0,39.2,17.6,39.2,39.2v0v25.5c0,7.9-6.4,14.3-14.3,14.3h-72.1
					c-7.9,0-14.3-6.4-14.3-14.3v-25.5C140.9,272.6,158.4,255,180.1,255z"/>
				<rect x="137.1" y="323" class="st18" width="108.5" height="23"/>
				<rect x="243.9" y="343.7" class="st14" width="19.5" height="75.6"/>
				<path class="st14" d="M117.7,308.1c-4,0-8-0.7-11.7-2.1c-16.4-6.5-24.4-25.6-24.4-58.3c0.2-5.4,4.7-9.6,10-9.4
					c5.1,0.2,9.2,4.3,9.4,9.4c0,23,4.5,38,12.4,41.1c11.5,4.6,33.9-11.7,42.9-20.2c3.9-3.6,9.9-3.6,13.8,0c3.6,3.4,3.8,9.1,0.4,12.7
					c-0.1,0.1-0.3,0.3-0.4,0.4C166.8,284.8,141.5,308.1,117.7,308.1z"/>
				<rect x="139" y="373" class="st19" width="104.9" height="20.2"/>
				<path class="st19" d="M151.5,425.1l1.5-1.6c0.9-0.9,2-1.5,3.2-1.8l7.3-1.5c0-0.1,0-0.2,0-0.3v-50.4c0-5.5,4.5-10,10-10
					s10,4.5,10,10v48.6c1.5,1,2.3,2.7,2.4,4.5v6.2c-0.1,3.2-2.8,5.8-6,5.7c0,0,0,0,0,0H156c-3.1,0.2-5.8-2.2-6-5.4
					C149.9,427.7,150.5,426.2,151.5,425.1z"/>
				<path class="st20" d="M164.1,375.5h19.7c0.6,0,1,0.4,1,1v1.6c0,0.6-0.4,1-1,1h-19.7c-0.6,0-1-0.4-1-1v-1.6
					C163.1,375.9,163.6,375.5,164.1,375.5z"/>
				<path class="st20" d="M165.2,401.8l-1.2-0.9c-0.6-0.4-0.7-1.2-0.3-1.8c0,0,0,0,0-0.1l17-21.4c0.5-0.6,1.4-0.7,2-0.3l1.2,0.9
					c0.6,0.4,0.7,1.2,0.3,1.8c0,0,0,0,0,0.1l-17,21.4C166.7,402.1,165.9,402.2,165.2,401.8z"/>
				<path class="st20" d="M182.9,401.6l1.1-0.8c0.5-0.4,0.7-1.1,0.3-1.6c0,0,0,0,0-0.1l-17.2-21.7c-0.4-0.5-1.2-0.6-1.8-0.2
					l-1.1,0.8c-0.5,0.4-0.7,1.1-0.3,1.6c0,0,0,0,0,0l17.2,21.7C181.6,401.9,182.4,402,182.9,401.6z"/>
				<path class="st20" d="M165.2,422.5l-1.2-0.9c-0.6-0.4-0.7-1.2-0.3-1.8c0,0,0,0,0.1-0.1l17-21.4c0.5-0.6,1.4-0.7,2-0.3l1.2,0.9
					c0.6,0.4,0.7,1.2,0.3,1.8c0,0,0,0,0,0.1l-17,21.4C166.8,422.8,165.9,422.9,165.2,422.5z"/>
				<path class="st20" d="M182.7,422.5l1.2-0.9c0.6-0.4,0.7-1.2,0.3-1.8c0,0,0,0-0.1-0.1l-17-21.4c-0.5-0.6-1.4-0.7-2-0.3l-1.2,0.9
					c-0.6,0.4-0.7,1.2-0.3,1.8c0,0,0,0,0,0.1l17,21.4C181.2,422.8,182.1,422.9,182.7,422.5z"/>
				<path class="st20" d="M155.3,421.5h1.6c0.5,0,1,0.4,1,1v10.2c0,0.5-0.4,1-1,1h-1.6c-0.5,0-1-0.4-1-1v-10.2
					C154.3,421.9,154.7,421.5,155.3,421.5z"/>
				<path class="st20" d="M162.3,419.9h1.6c0.5,0,1,0.4,1,1v11.8c0,0.5-0.4,1-1,1h-1.6c-0.5,0-1-0.4-1-1v-11.8
					C161.3,420.3,161.8,419.9,162.3,419.9z"/>
				<path class="st20" d="M164.1,419.6H183c0.6,0,1,0.5,1,1v1.7c0,0.6-0.5,1-1,1h-18.9c-0.6,0-1-0.5-1-1v-1.7
					C163.1,420.1,163.6,419.6,164.1,419.6z"/>
				<path class="st20" d="M186.7,435.3h-35.8c-0.5,0-0.9-0.4-0.9-1v-1.6c0-0.5,0.4-1,0.9-1h35.8c0.5,0,0.9,0.4,0.9,1v1.6
					C187.6,434.8,187.2,435.3,186.7,435.3z"/>
				<path class="st19" d="M204.4,418.2v-48.6c0-5.5,4.5-10,10-10s10,4.5,10,10v50.4c0,0.1,0,0.2,0,0.3l7.3,1.5
					c1.2,0.3,2.3,0.9,3.2,1.8l1.5,1.6c2.1,2.3,2,5.9-0.3,8.1c-1.1,1-2.6,1.6-4.1,1.5H208c-3.2,0.1-5.9-2.5-6-5.7c0,0,0,0,0,0v-6.2
					C202,420.9,202.9,419.2,204.4,418.2z"/>
				<path class="st20" d="M224,379.1h-19.7c-0.6,0-1-0.4-1-1v-1.6c0-0.6,0.4-1,1-1H224c0.6,0,1,0.4,1,1v1.6
					C225,378.7,224.6,379.1,224,379.1z"/>
				<path class="st20" d="M222.9,401.8l1.2-0.9c0.6-0.4,0.7-1.2,0.3-1.8c0,0,0,0,0-0.1l-17-21.4c-0.5-0.6-1.4-0.7-2-0.3l-1.2,0.9
					c-0.6,0.4-0.7,1.2-0.3,1.8c0,0,0,0,0,0l17,21.4C221.4,402.1,222.2,402.2,222.9,401.8z"/>
				<path class="st20" d="M205.4,401.8l-1.2-0.9c-0.6-0.4-0.7-1.2-0.3-1.8c0,0,0,0,0,0l17-21.4c0.5-0.6,1.4-0.7,2-0.3l1.2,0.9
					c0.6,0.4,0.7,1.2,0.3,1.8c0,0,0,0,0,0.1l-17,21.4C206.9,402.1,206,402.2,205.4,401.8z"/>
				<path class="st20" d="M222.9,422.5l1.2-0.9c0.6-0.4,0.7-1.2,0.3-1.8c0,0,0,0-0.1-0.1l-17-21.4c-0.5-0.6-1.4-0.7-2-0.3l-1.2,0.9
					c-0.6,0.4-0.7,1.2-0.3,1.8c0,0,0,0,0,0l17,21.4C221.4,422.8,222.2,422.9,222.9,422.5z"/>
				<path class="st20" d="M205.4,422.5l-1.2-0.9c-0.6-0.4-0.7-1.2-0.3-1.8c0,0,0,0,0-0.1l17-21.4c0.5-0.6,1.4-0.7,2-0.3l1.2,0.9
					c0.6,0.4,0.7,1.2,0.3,1.8c0,0,0,0,0,0.1l-17,21.4C206.9,422.8,206,422.9,205.4,422.5z"/>
				<path class="st20" d="M232.8,432.8h-1.6c-0.5,0-1-0.4-1-1v-10.2c0-0.5,0.4-1,1-1h1.6c0.5,0,1,0.4,1,1v10.2
					C233.8,432.3,233.4,432.8,232.8,432.8z"/>
				<path class="st20" d="M225.8,432.8h-1.6c-0.5,0-1-0.4-1-1v-11.2c0-0.5,0.4-1,1-1h1.6c0.5,0,1,0.4,1,1v11.2
					C226.8,432.3,226.3,432.8,225.8,432.8z"/>
				<path class="st20" d="M224,423.4h-18.9c-0.6,0-1-0.5-1-1v-1.7c0-0.6,0.5-1,1-1H224c0.6,0,1,0.5,1,1v1.7
					C225,422.9,224.5,423.4,224,423.4z"/>
				<path class="st20" d="M237.9,435.3h-35.8c-0.5,0-0.9-0.4-0.9-1v-1.6c0-0.5,0.4-1,0.9-1h35.8c0.5,0,0.9,0.4,0.9,1v1.6
					C238.8,434.8,238.4,435.3,237.9,435.3z"/>
				<path class="st20" d="M202.4,418.2h1.9c0.6,0,1.1,0.5,1.1,1.1v14.8c0,0.6-0.5,1.1-1.1,1.1h-1.9c-0.6,0-1.1-0.5-1.1-1.1v-14.8
					C201.2,418.7,201.7,418.2,202.4,418.2z"/>
				<path class="st20" d="M186.8,435.3h-1.9c-0.6,0-1.1-0.5-1.1-1.1v-15c0-0.6,0.5-1.1,1.1-1.1h1.9c0.6,0,1.1,0.5,1.1,1.1v15
					C187.9,434.8,187.4,435.3,186.8,435.3z"/>
				<rect x="139" y="343.7" class="st21" width="104.9" height="29.3"/>
				<ellipse class="st14" cx="129.2" cy="334.8" rx="18.3" ry="17.5"/>
				<ellipse class="st14" cx="253.6" cy="334.8" rx="18.3" ry="17.5"/>
				<path class="st22" d="M157.6,314.6h68.3c17.4,0,31.5,14.1,31.5,31.5v0v105.5l0,0H126.1l0,0V346.1
					C126.1,328.7,140.2,314.6,157.6,314.6C157.6,314.6,157.6,314.6,157.6,314.6z"/>
				<path class="st17" d="M157.6,321h68.3c17.4,0,31.5,14.1,31.5,31.5v0v105.5l0,0H126.1l0,0V352.5C126.1,335.1,140.2,321,157.6,321
					C157.6,321,157.6,321,157.6,321z"/>
				<path class="st17" d="M113,286.3l42.3-20.7c7.3-3.6,16.1-0.9,20.1,6.2l0,0c3.6,6.9,0.9,15.4-5.9,19c-0.2,0.1-0.4,0.2-0.6,0.3
					l-42.3,20.7"/>
				<line class="st6" x1="106.5" y1="305.6" x2="106.5" y2="305.6"/>
				<line class="st6" x1="177.1" y1="305.6" x2="177.1" y2="305.6"/>
				<path class="st23" d="M275.6,308.1c-23.9,0-49.1-23.3-52.3-26.4c-3.6-3.4-3.8-9.1-0.4-12.7c0.1-0.1,0.3-0.3,0.4-0.4
					c3.9-3.6,9.9-3.6,13.7,0c9,8.6,31.4,24.8,42.9,20.2c7.9-3.1,12.4-18.1,12.4-41.1c0.2-5.4,4.7-9.6,10-9.4
					c5.1,0.2,9.2,4.3,9.4,9.4c0,32.7-8,51.8-24.4,58.3C283.6,307.5,279.6,308.2,275.6,308.1z"/>
				<path class="st17" d="M275.9,286.3l-42.3-20.7c-7.3-3.6-16.1-0.9-20.1,6.2l0,0c-3.6,6.9-0.9,15.4,6,19c0.2,0.1,0.4,0.2,0.6,0.3
					l42.3,20.7"/>
				<rect x="163.9" y="214.8" class="st19" width="58.6" height="24.7"/>
				<path class="st19" d="M158.6,198.8V246c0,18.2,15.6,33.1,34.6,33.1l0,0c19,0,34.6-14.9,34.6-33.1v-47.2"/>
				<path class="st17" d="M207.9,224.4h-0.8c-1.7,0-3-1.3-3-3v-6.1c0-1.7,1.3-3,3-3h0.8c1.7,0,3,1.3,3,3v6.1
					C210.9,223.1,209.5,224.4,207.9,224.4z"/>
				<path class="st17" d="M179.4,224.4h-0.8c-1.7,0-3-1.3-3-3v-6.1c0-1.7,1.3-3,3-3h0.8c1.7,0,3,1.3,3,3v6.1
					C182.4,223.1,181.1,224.4,179.4,224.4z"/>
				<path class="st24" d="M231.9,202.6h-7.8V236h-61v-33.4h-8.7v55v0c0.9,19.6,17.9,35.4,38.6,35.4l0,0c21,0,38.1-16.2,38.6-36.1
					l0.1-0.1L231.9,202.6z"/>
				<path class="st21" d="M231.9,195.6h-7.8V229h-61v-33.4h-8.7v55v0.1c0.9,19.6,17.9,35.4,38.6,35.4l0,0c21,0,38.1-16.2,38.6-36.1
					l0.1-0.1L231.9,195.6z"/>
				<path class="st16" d="M194.2,220.9c-3.1-0.1-5.7,2.4-5.8,5.5c0,0,0,0,0,0H200C199.9,223.3,197.3,220.9,194.2,220.9
					C194.2,220.9,194.2,220.9,194.2,220.9z"/>
				<path class="st21" d="M203.2,205.5h15.5c1.2,0,2.2,1,2.2,2.2v0.6c0,1.2-1,2.2-2.2,2.2h-15.5c-1.2,0-2.2-1-2.2-2.2v-0.6
					C201,206.4,202,205.5,203.2,205.5z"/>
				<path class="st21" d="M167.8,205.5h15.5c1.2,0,2.2,1,2.2,2.2v0.6c0,1.2-1,2.2-2.2,2.2h-15.5c-1.2,0-2.2-1-2.2-2.2v-0.6
					C165.7,206.4,166.6,205.5,167.8,205.5z"/>
				<path class="st19" d="M182.6,246.6c0.3-6.5,5.8-11.6,12.3-11.3c6.1,0.3,11.1,5.2,11.3,11.3H182.6z"/>
				<path class="st21" d="M194.9,243.9c-1.6,0-2.9,1.3-3,2.9h6.1C197.9,245.2,196.5,243.9,194.9,243.9z"/>
				<polygon class="st19" points="36.2,258.5 91.5,225.1 91.3,249.9 130.7,234.4 130.7,234.4 84.1,262.4 84.2,237.6 36.2,258.5 				
					"/>
				<path class="st19" d="M83.6,263.5L83.6,263.5c-2.3,0.1-4.3-1.7-4.4-4l-0.2-14.3c0-2.3,1.9-4.2,4.2-4.2l0,0
					c2.3-0.1,4.3,1.7,4.4,4.1l0.2,14.3C87.8,261.6,85.9,263.5,83.6,263.5z"/>
				<path class="st19" d="M96.4,247.7h3.7c1.7,0,3.1,1.4,3.1,3.1v1c0,1.7-1.4,3.1-3.1,3.1h-3.7c-1.7,0-3.1-1.4-3.1-3.1v-1
					C93.3,249.1,94.7,247.7,96.4,247.7z"/>
				<path class="st25" d="M311.5,225.7c-2.2,0.1-4.1-1.6-4.3-3.9c-0.1-2.2,1.6-4.1,3.9-4.3c0.1,0,0.3,0,0.4,0h20.9
					c-2.3-4.7-5.7-8.9-9.9-12c-0.8,2-2.7,3.3-4.9,3.2h-29.3c-2.6,0-4.8-1.8-5.2-4.4c-6.6,4.2-11.4,10.8-13.5,18.3
					c0.6-0.1,1.2-0.2,1.8-0.2h13.4c3.9-0.1,7.1,3,7.2,6.9l0,0c0,0.5-0.1,1-0.2,1.5h2.2c4.2-0.2,7.7,3.1,7.9,7.3s-3.1,7.7-7.3,7.9
					c-0.2,0-0.4,0-0.6,0h-21.5c4.4,7.7,11.7,13.3,20.3,15.6c-0.6-0.7-0.9-1.6-0.9-2.5c0.1-2.4,2-4.3,4.5-4.2h19.3
					c1.9,0,3.6,1.2,4.2,3c11.3-6.5,17.3-19.4,15.1-32.2c-0.3,0.1-0.6,0.1-0.8,0.1H311.5z M328,247.7h-6.5c-1.3,0.1-2.4-0.9-2.5-2.2
					c-0.1-1.3,0.9-2.4,2.2-2.5c0.1,0,0.2,0,0.3,0h6.4c1.3-0.1,2.4,0.9,2.5,2.2c0.1,1.3-0.9,2.4-2.2,2.5
					C328.2,247.7,328.1,247.7,328,247.7L328,247.7z"/>
				<path class="st26" d="M302,238.4c-0.1-4.3-3.7-7.7-8-7.6h-2.2c-0.8,3.2-3.7,5.5-7,5.4h-13.4c-0.8,0-1.7-0.1-2.4-0.4
					c0.6,3.6,1.8,7.1,3.6,10.2H294C298.3,246.2,301.9,242.8,302,238.4z"/>
				<path class="st26" d="M268.5,231.7c1.1-0.5,2.4-0.8,3.6-0.8h19.7c0.1-0.5,0.2-1,0.2-1.5l0,0c-0.1-3.9-3.3-7-7.2-6.9h-13.4
					c-0.6,0-1.2,0.1-1.8,0.2c-0.7,2.6-1.1,5.4-1.1,8.1C268.5,231.1,268.5,231.4,268.5,231.7z"/>
				<path class="st26" d="M268.5,231.7c0,1.4,0.2,2.8,0.4,4.2c0.8,0.3,1.6,0.4,2.4,0.4h13.4c3.3,0,6.2-2.2,7-5.4h-19.6
					C270.9,230.8,269.6,231.1,268.5,231.7z"/>
				<path class="st26" d="M311.5,217.6c-2.2-0.1-4.1,1.6-4.3,3.9c-0.1,2.2,1.6,4.1,3.9,4.3c0.1,0,0.3,0,0.4,0h22.6
					c0.3,0,0.6,0,0.8-0.1c-0.5-2.8-1.3-5.5-2.6-8L311.5,217.6z"/>
				<path class="st26" d="M288.3,208.8h29.4c2.1,0,4.1-1.3,4.9-3.2c-11.6-8.5-27.3-9-39.4-1.2C283.5,207,285.7,208.9,288.3,208.8z"
					/>
				<path class="st26" d="M328,243h-6.5c-1.3-0.1-2.4,0.9-2.5,2.2c-0.1,1.3,0.9,2.4,2.2,2.5c0.1,0,0.2,0,0.3,0h6.5
					c1.3,0.1,2.4-0.9,2.5-2.2c0.1-1.3-0.9-2.4-2.2-2.5C328.2,243,328.1,243,328,243z"/>
				<path class="st26" d="M315.7,254.9h-19.3c-2.4,0-4.4,1.9-4.4,4.2c0,0.9,0.3,1.8,0.9,2.5c3,0.8,6,1.2,9.1,1.2
					c6.3,0,12.6-1.7,18-5C319.4,256,317.6,254.8,315.7,254.9z"/>
				<path class="st19" d="M158.7,168.9h6.5c2.6,0,4.8,2.1,4.8,4.8v20.3c0,2.6-2.1,4.8-4.8,4.8h-6.5c-2.6,0-4.8-2.1-4.8-4.8v-20.3
					C153.9,171,156.1,168.9,158.7,168.9z"/>
				<path class="st16" d="M174.8,175.6h7.8c1.5,0,2.6,1.2,2.6,2.6v19c0,1.5-1.2,2.6-2.6,2.6h-7.8c-1.5,0-2.6-1.2-2.6-2.6v-19
					C172.1,176.8,173.3,175.6,174.8,175.6z"/>
				<path class="st16" d="M206.5,175.6h7.8c1.4,0,2.6,1.2,2.6,2.6v19.1c0,1.4-1.2,2.6-2.6,2.6h-7.8c-1.4,0-2.6-1.2-2.6-2.6v-19.1
					C203.9,176.8,205.1,175.6,206.5,175.6z"/>
				<path class="st19" d="M191.1,168.9h6.6c2.6,0,4.7,2.1,4.7,4.7V194c0,2.6-2.1,4.7-4.7,4.7h-6.6c-2.6,0-4.7-2.1-4.7-4.7v-20.4
					C186.4,171,188.5,168.9,191.1,168.9z"/>
				<path class="st19" d="M221.9,168.9h7.9c2.3,0,4.1,1.8,4.1,4.1v21.7c0,2.3-1.8,4.1-4.1,4.1h-7.9c-2.3,0-4.1-1.8-4.1-4.1v-21.7
					C217.9,170.7,219.7,168.9,221.9,168.9z"/>
				<rect x="161.9" y="185.2" class="st19" width="62.2" height="13.5"/>
				<path class="st16" d="M156.6,194.1h74.8c2.1,0,3.8,1.7,3.8,3.8v1.2c0,2.1-1.7,3.8-3.8,3.8h-74.8c-2.1,0-3.8-1.7-3.8-3.8v-1.2
					C152.9,195.8,154.6,194.1,156.6,194.1z"/>
				<rect x="126.1" y="432.6" class="st23" width="131.3" height="10"/>
				<rect x="126.1" y="453" class="st27" width="131.6" height="8.1"/>
				<path class="st23" d="M241.4,221.2c0,0-2-4.1-3-2.4s1.2,5.8,1.2,5.8s-4.3-3.8-5.4-2.2s4.9,3,4.9,3s-5-0.6-5.2,2s2.6-0.1,2.6-0.1
					c-1.7,1.4-3,3.4-3.4,5.6c0,0-3-1.3-3.5,2s9.6,2.3,9.6,2.3l6-9.6l-1.2-5.3L241.4,221.2z"/>
				<path class="st23" d="M252.3,236.2c8.2,1.2,7.8,0.5,9.3,1.4c13.8,7.9,8.4,41.4-3.9,48c-6.2,3.3-18.6-0.8-21.1-1.5
					c-9.3-2.5-13.9-28.1-14.1-33.3c-0.2-6.1-0.4-12.9,5-15.8C230.9,233.3,238.1,234.2,252.3,236.2z"/>
				<path class="st23" d="M254.6,240.6c3.1-1.7,6.2-5.5,5.8-9.3c-0.4-4.3-5.2-6.9-4.3-8.6c0.6-1.2,3.1-0.1,4.5-1.6s0.9-4.9,0.1-6.7
					c-1.9-4-6.1-6.5-10.5-6.1c-4.6,0.6-8.4,4-9.4,8.6c-0.9,4.6,2.9,6.3,2.1,11.3s-5.2,6.2-4.6,8.9
					C239.2,240.9,248.3,244.2,254.6,240.6z"/>
				<path class="st23" d="M254.4,213.7c2.6-0.2,5.2,1.2,7.2,3.7c0.3,1.3,0,2.7-0.9,3.8c-0.3,0.3-0.6,0.5-1,0.6
					c-1.2,0.1-2.3,0-3.4-0.3c-2.8-0.7-6.9-2.6-6.7-4.7C249.6,215.2,252.2,213.9,254.4,213.7z"/>
				<path class="st28" d="M261,215c0,0,2.5,0.3,3.3,1.7c0,0,6.9,2.6,2.3,7.7c0,0,0.4-1-0.3-1.5s-3.1-0.6-4.1-0.9s-4.9-3.8-4.9-3.8
					s3.1,1,3.3-0.4C260.7,217,261,215,261,215z"/>
				<path class="st23" d="M262.3,217.8c0.3-0.4,0.7-0.7,1.1-0.8l-0.1-0.3c-0.5,0.1-1,0.5-1.3,0.9L262.3,217.8z"/>
				<path class="st13" d="M276.1,269.7c0,0-5,20.8-9.5,24.4s-1.1-7.5-1.1-7.5s-1.4,3-2.8,2.7s1.1-7,1.1-7s-1.8,3.6-2.8,3.5
					s3.5-29.9,3.5-29.9L276.1,269.7z"/>
				<path class="st13" d="M227.8,250.3c0,0,5.2,32.6,3.4,32.1s-3.9-10.3-3.9-10.3s2.9,9.8-0.1,8.7s-3-8.6-3-8.6
					c0.5,1.3-0.1,2.7-1.3,3.2c-2.1,0.9-7.3-15.7-5.8-23.6L227.8,250.3z"/>
				<path class="st14" d="M230.2,235.5c0,0-3.2,21.9-4.8,18.3s0-5.1,0-5.1s0.7,14.1-2.3,15.9s-3.1-11.4-3.1-11.4s0.9,8.7-1,8.3
					s-3.8-18.9,1.2-23.1s8.4-4.6,8.4-4.6s-4.8-1.2-3-1.5c1.4-0.1,2.8,0.2,4.1,0.7c0,0-3.6-0.9-2.3-1.7S231,231,230.2,235.5z"/>
				<path class="st23" d="M258.3,236.5c0,0,5.4,11.9-3.4,12s-9.6,3.1-9.6,3.1s-2.1-4.2-6.4-5s-11.5-10.1-3.1-12.4
					S258.3,236.5,258.3,236.5z"/>
				<path class="st14" d="M274,242.2c0,0,5.5,5.9,4.3,2.6s-3.4-3.6-3.4-3.6s5.4,2.5,4.1,0.7s-9.9-9.4-16.6-7.7s-12.6,9.7-4.5,21.8
					c0,0,3,4.4,3-1.3c0,0,3.1,8.8,5,5.6c0,0,2.6,4.9,3.1,2.1c0,0,3.2,8.4,3.7,5.2c0,0-1.7,9.6,0.3,8.9S282.4,252.8,274,242.2z"/>
				<path class="st29" d="M257.6,213.4c0.5,0.3,0.6,0.9,0.3,1.4c-0.1,0.2-0.3,0.3-0.4,0.4c-0.7,0.3-1.6,0.3-2.3-0.1
					c-0.7-0.4-1.2-1.1-1.3-1.9c-0.1-0.5,0.3-1,0.9-1.1c0.2,0,0.4,0,0.6,0.1L257.6,213.4z"/>
				<path class="st14" d="M235.4,280.9h0.5c0.9,0,1.7,0.8,1.7,1.7v4.4c0,0.9-0.8,1.7-1.7,1.7h-0.5c-0.9,0-1.7-0.8-1.7-1.7v-4.4
					C233.7,281.7,234.4,280.9,235.4,280.9z"/>
				<path class="st14" d="M239.1,282.2h0.5c0.9,0,1.7,0.8,1.7,1.7v4.4c0,0.9-0.8,1.7-1.7,1.7h-0.5c-0.9,0-1.7-0.8-1.7-1.7V284
					C237.4,283,238.1,282.2,239.1,282.2z"/>
				<path class="st14" d="M255,282.9h0.5c0.9,0,1.7,0.8,1.7,1.7v4.4c0,0.9-0.8,1.7-1.7,1.7H255c-0.9,0-1.7-0.8-1.7-1.7v-4.4
					C253.3,283.7,254.1,282.9,255,282.9z"/>
				<path class="st14" d="M258.7,282.5h0.5c0.9,0,1.7,0.8,1.7,1.7v4.4c0,0.9-0.8,1.7-1.7,1.7h-0.5c-0.9,0-1.7-0.8-1.7-1.7v-4.4
					C257,283.2,257.8,282.5,258.7,282.5z"/>
				<path class="st16" d="M190.8,239h7.1c0.7,0,1.3,0.6,1.3,1.3v0.3c0,0.7-0.6,1.3-1.3,1.3h-7.1c-0.7,0-1.3-0.6-1.3-1.3v-0.3
					C189.5,239.6,190.1,239,190.8,239z"/>
			</g>
		</g>
	</g>
</g>
</svg>
