<svg xmlns="http://www.w3.org/2000/svg" xmlns:xlink="http://www.w3.org/1999/xlink" viewBox="0 0 381.76 619.14"><defs><style>.cls-1{fill:none;}.cls-2{fill:#f4b155;}.cls-3{fill:#fff0cc;}.cls-4{fill:#231f20;}.cls-5{clip-path:url(#clip-path);}.cls-6{fill:#54323a;}.cls-7{fill:#262b3f;}.cls-8{clip-path:url(#clip-path-2);}.cls-9{fill:#68423d;}.cls-10{fill:#7c5241;}.cls-11{fill:#906144;}.cls-12{fill:#a47148;}.cls-13{fill:#b8814b;}.cls-14{fill:#cc914e;}.cls-15{fill:#e0a052;}.cls-16{fill:#f4b055;}.cls-17{fill:#ffd351;}.cls-18{fill:#dd4f65;}.cls-19{fill:#55a599;}.cls-20{fill:#e6705f;}.cls-21{fill:#48c2ca;}.cls-22{fill:#ffd150;}.cls-23{fill:#4a355b;}.cls-24{fill:#47372e;}.cls-25{fill:#f1f2f2;}.cls-26{fill:#ee915b;}</style><clipPath id="clip-path"><rect class="cls-1" x="45.87" y="71.53" width="290.02" height="392.88" rx="40.27"/></clipPath><clipPath id="clip-path-2"><path class="cls-1" d="M73.85,238.62,96.31,83.45,145,71.53,251.75,173.78S174.82,253.22,73.85,238.62Z"/></clipPath></defs><g id="Layer_2" data-name="Layer 2"><g id="Layer_1-2" data-name="Layer 1"><path class="cls-2" d="M381.76,23.47v572.2c0,12.94-10.92,23.47-24.36,23.47h-333C10.93,619.14,0,608.61,0,595.67V23.47C0,10.53,10.93,0,24.35,0h333C370.84,0,381.76,10.53,381.76,23.47ZM361.3,582.06v-545a17.59,17.59,0,0,0-17.57-17.57H38A17.59,17.59,0,0,0,20.47,37.09v545A17.58,17.58,0,0,0,38,599.62h305.7A17.59,17.59,0,0,0,361.3,582.06Z"/><rect class="cls-3" x="20.47" y="19.52" width="340.83" height="580.1" rx="17.57"/><path class="cls-4" d="M62.77,542.5a1.17,1.17,0,0,1-.28-.86V524.22H56.9A1.17,1.17,0,0,1,56,524a1.25,1.25,0,0,1-.24-.86v-.86a1.3,1.3,0,0,1,.24-.88,1.13,1.13,0,0,1,.87-.27H72.15a1.21,1.21,0,0,1,.9.27,1.25,1.25,0,0,1,.25.88v.86a1.2,1.2,0,0,1-.25.86,1.26,1.26,0,0,1-.9.26H66.57v17.42a1.22,1.22,0,0,1-.27.86,1.26,1.26,0,0,1-.94.28H63.7A1.29,1.29,0,0,1,62.77,542.5Z"/><path class="cls-4" d="M76.06,542.5a1.22,1.22,0,0,1-.27-.86V522.27a1.26,1.26,0,0,1,.27-.89,1.23,1.23,0,0,1,.91-.29h1.69a1.28,1.28,0,0,1,.93.29,1.22,1.22,0,0,1,.28.89v8H90.34v-8a1.18,1.18,0,0,1,.29-.89,1.25,1.25,0,0,1,.92-.29h1.66a1.31,1.31,0,0,1,.93.29,1.22,1.22,0,0,1,.28.89v19.37a1.22,1.22,0,0,1-.27.86,1.26,1.26,0,0,1-.94.28H91.55a1.25,1.25,0,0,1-.92-.28,1.13,1.13,0,0,1-.29-.86V533.4H79.87v8.24a1.22,1.22,0,0,1-.27.86,1.26,1.26,0,0,1-.94.28H77A1.22,1.22,0,0,1,76.06,542.5Z"/><path class="cls-4" d="M98.46,542.5a1.22,1.22,0,0,1-.27-.86V522.27a1.26,1.26,0,0,1,.27-.89,1.21,1.21,0,0,1,.91-.29h13.27a1.2,1.2,0,0,1,.88.26,1.28,1.28,0,0,1,.23.86v.86a1.33,1.33,0,0,1-.23.87,1.12,1.12,0,0,1-.88.28H102.27v6.19h7.53a1.25,1.25,0,0,1,.89.25,1.19,1.19,0,0,1,.26.86v.8a1.27,1.27,0,0,1-.26.88,1.2,1.2,0,0,1-.89.27h-7.53v6.22h10.34a1.2,1.2,0,0,1,.89.27,1.25,1.25,0,0,1,.25.88v.86a1.15,1.15,0,0,1-.25.83,1.25,1.25,0,0,1-.89.25H99.37A1.21,1.21,0,0,1,98.46,542.5Z"/><path class="cls-4" d="M129.28,542.5a1.17,1.17,0,0,1-.28-.86V522.27a1.22,1.22,0,0,1,.28-.89,1.2,1.2,0,0,1,.9-.29h1.7a1.27,1.27,0,0,1,.92.29,1.22,1.22,0,0,1,.29.89v8h10.46v-8a1.22,1.22,0,0,1,.29-.89,1.27,1.27,0,0,1,.92-.29h1.66a1.28,1.28,0,0,1,.93.29,1.22,1.22,0,0,1,.29.89v19.37a1.17,1.17,0,0,1-.28.86,1.26,1.26,0,0,1-.94.28h-1.66a1.27,1.27,0,0,1-.92-.28,1.18,1.18,0,0,1-.29-.86V533.4H133.09v8.24a1.22,1.22,0,0,1-.27.86,1.27,1.27,0,0,1-.94.28h-1.7A1.2,1.2,0,0,1,129.28,542.5Z"/><path class="cls-4" d="M151.67,542.5a1.22,1.22,0,0,1-.27-.86V522.27a1.26,1.26,0,0,1,.27-.89,1.21,1.21,0,0,1,.91-.29h1.69a1.29,1.29,0,0,1,.93.29,1.22,1.22,0,0,1,.28.89v19.37a1.22,1.22,0,0,1-.27.86,1.26,1.26,0,0,1-.94.28h-1.69A1.21,1.21,0,0,1,151.67,542.5Z"/><path class="cls-4" d="M159.52,542.5a1.22,1.22,0,0,1-.27-.86V522.27a1.26,1.26,0,0,1,.27-.89,1.21,1.21,0,0,1,.91-.29H173.7a1.18,1.18,0,0,1,.88.26,1.23,1.23,0,0,1,.24.86v.86a1.27,1.27,0,0,1-.24.87,1.1,1.1,0,0,1-.88.28H163.33v6.19h7.53a1.23,1.23,0,0,1,.89.25,1.19,1.19,0,0,1,.26.86v.8a1.27,1.27,0,0,1-.26.88,1.18,1.18,0,0,1-.89.27h-7.53v6.22h10.34a1.2,1.2,0,0,1,.89.27,1.25,1.25,0,0,1,.26.88v.86a1.15,1.15,0,0,1-.26.83,1.25,1.25,0,0,1-.89.25H160.43A1.21,1.21,0,0,1,159.52,542.5Z"/><path class="cls-4" d="M177.89,542.5a1.22,1.22,0,0,1-.27-.86V522.27a1.26,1.26,0,0,1,.27-.89,1.23,1.23,0,0,1,.91-.29h8.33a8.19,8.19,0,0,1,5.63,1.72,6.48,6.48,0,0,1,1.93,5.11,6.71,6.71,0,0,1-1.05,3.81,6.44,6.44,0,0,1-3.06,2.38l3.54,7.84a.87.87,0,0,1,.09.36c0,.31-.19.47-.57.47H191a1.16,1.16,0,0,1-.6-.11.93.93,0,0,1-.35-.46l-3.23-7.56h-5.13v7a1.22,1.22,0,0,1-.27.86,1.3,1.3,0,0,1-.95.28H178.8A1.22,1.22,0,0,1,177.89,542.5Zm8.41-10.91a5.12,5.12,0,0,0,3.29-.87,3.42,3.42,0,0,0,1-2.8,3.68,3.68,0,0,0-1-2.81,4.09,4.09,0,0,0-2.9-.89h-5.07v7.37Z"/><path class="cls-4" d="M200,540.3q-2.82-3-2.82-8.36c0-3.6.94-6.38,2.82-8.36s4.58-3,8.09-3,6.18,1,8.07,3,2.84,4.76,2.84,8.36-.94,6.38-2.84,8.36-4.58,3-8.07,3S201.89,542.27,200,540.3Zm13.2-2.16c1.16-1.41,1.75-3.48,1.75-6.2s-.59-4.79-1.75-6.19a7.25,7.25,0,0,0-10.23,0q-1.77,2.1-1.77,6.19t1.77,6.2a7.23,7.23,0,0,0,10.23,0Z"/><path class="cls-4" d="M222.4,542.5a1.22,1.22,0,0,1-.27-.86V522.27a1.26,1.26,0,0,1,.27-.89,1.21,1.21,0,0,1,.91-.29h8.17q3.92,0,5.82,1.87a8.4,8.4,0,0,1,0,10.64q-1.91,1.85-5.82,1.85h-5.27v6.19a1.22,1.22,0,0,1-.27.86,1.26,1.26,0,0,1-.94.28h-1.69A1.21,1.21,0,0,1,222.4,542.5Zm8.88-10.15a3.85,3.85,0,0,0,2.91-1,4.27,4.27,0,0,0,.95-3.05,4.32,4.32,0,0,0-.95-3.08,3.85,3.85,0,0,0-2.91-1h-5.07v8.13Z"/><path class="cls-4" d="M242,542.5a1.17,1.17,0,0,1-.28-.86V522.27a1.22,1.22,0,0,1,.28-.89,1.2,1.2,0,0,1,.9-.29h1.7a1.27,1.27,0,0,1,.92.29,1.22,1.22,0,0,1,.29.89v8h10.46v-8a1.22,1.22,0,0,1,.29-.89,1.27,1.27,0,0,1,.92-.29h1.66a1.28,1.28,0,0,1,.93.29,1.22,1.22,0,0,1,.29.89v19.37a1.17,1.17,0,0,1-.28.86,1.26,1.26,0,0,1-.94.28h-1.66a1.27,1.27,0,0,1-.92-.28,1.18,1.18,0,0,1-.29-.86V533.4H245.77v8.24a1.22,1.22,0,0,1-.27.86,1.27,1.27,0,0,1-.94.28h-1.7A1.2,1.2,0,0,1,242,542.5Z"/><path class="cls-4" d="M263.44,542.31a1,1,0,0,1,.1-.42l8.42-20a1.51,1.51,0,0,1,.42-.65,1,1,0,0,1,.63-.18h1.76a1,1,0,0,1,.65.18,1.61,1.61,0,0,1,.4.65l8.42,20a1,1,0,0,1,.1.42c0,.31-.18.47-.54.47H281a1.1,1.1,0,0,1-.59-.11,1,1,0,0,1-.33-.46l-1.82-4.47h-8.81l-1.78,4.47a1.05,1.05,0,0,1-.34.46,1.1,1.1,0,0,1-.59.11H264C263.62,542.78,263.44,542.62,263.44,542.31Zm13.82-7.53-3.39-8.36-3.38,8.36Z"/><path class="cls-4" d="M287.74,542.5a1.22,1.22,0,0,1-.28-.86V522.27a1,1,0,0,1,1.22-1.18h1.46a1.55,1.55,0,0,1,.71.13,1.36,1.36,0,0,1,.51.51l10.52,14.61V522.27a1,1,0,0,1,1.19-1.18h1.69a1.27,1.27,0,0,1,.92.29,1.22,1.22,0,0,1,.29.89v19.37a1.22,1.22,0,0,1-.27.86,1.27,1.27,0,0,1-.94.28h-1.5a1.48,1.48,0,0,1-.67-.11,1.61,1.61,0,0,1-.51-.49L291.55,527.6v14a1.22,1.22,0,0,1-.27.86,1.27,1.27,0,0,1-.94.28h-1.69A1.21,1.21,0,0,1,287.74,542.5Z"/><path class="cls-4" d="M315.44,542.5a1.17,1.17,0,0,1-.28-.86V524.22h-5.59a1.17,1.17,0,0,1-.87-.26,1.25,1.25,0,0,1-.24-.86v-.86a1.3,1.3,0,0,1,.24-.88,1.13,1.13,0,0,1,.87-.27h15.25a1.21,1.21,0,0,1,.9.27,1.25,1.25,0,0,1,.25.88v.86a1.2,1.2,0,0,1-.25.86,1.26,1.26,0,0,1-.9.26h-5.58v17.42a1.22,1.22,0,0,1-.27.86,1.27,1.27,0,0,1-.94.28h-1.66A1.29,1.29,0,0,1,315.44,542.5Z"/><g class="cls-5"><rect class="cls-6" x="42.09" y="62.15" width="301.72" height="501.3"/><rect class="cls-7" x="14.74" y="469.71" width="346.56" height="100.09" rx="46.14"/><g class="cls-8"><polygon class="cls-6" points="122.62 253.22 251.75 187.79 251.75 253.22 122.62 253.22"/><polygon class="cls-6" points="88.56 253.22 251.75 170.53 251.75 187.79 122.62 253.22 88.56 253.22"/><polygon class="cls-9" points="76.97 253.22 73.85 245.62 73.85 243.41 247.16 155.6 251.75 166.78 251.75 170.53 88.56 253.22 76.97 253.22"/><polygon class="cls-10" points="73.85 226.16 241.29 141.31 247.16 155.6 73.85 243.41 73.85 226.16"/><polygon class="cls-11" points="73.85 208.9 235.42 127.02 241.29 141.31 73.85 226.16 73.85 208.9"/><polygon class="cls-12" points="73.85 191.64 229.56 112.74 235.42 127.02 73.85 208.9 73.85 191.64"/><polygon class="cls-13" points="73.85 174.38 223.69 98.45 229.56 112.74 73.85 191.64 73.85 174.38"/><polygon class="cls-14" points="73.85 157.12 217.82 84.16 223.69 98.45 73.85 174.38 73.85 157.12"/><polygon class="cls-15" points="73.85 139.86 208.7 71.53 212.64 71.53 217.82 84.16 73.85 157.12 73.85 139.86"/><polygon class="cls-16" points="73.85 122.6 174.64 71.53 208.7 71.53 73.85 139.86 73.85 122.6"/><polygon class="cls-16" points="174.64 71.53 73.85 122.6 73.85 71.53 174.64 71.53"/></g><circle class="cls-17" cx="292.77" cy="220.7" r="27.67" transform="translate(-48.89 353.72) rotate(-58.28)"/><rect class="cls-18" x="275.18" y="374.86" width="28.11" height="79.32"/><rect class="cls-19" x="275.18" y="454.19" width="28.11" height="23.98"/><rect class="cls-18" x="111.39" y="371.42" width="28.11" height="79.32"/><rect class="cls-19" x="111.39" y="450.74" width="28.11" height="23.98"/><circle class="cls-17" cx="222.92" cy="217.97" r="22.89"/><rect class="cls-20" x="231.93" y="398.51" width="34.92" height="98.55"/><rect class="cls-21" x="231.93" y="497.06" width="34.92" height="29.79"/><polygon class="cls-20" points="64.46 358.57 99.38 398.51 99.38 497.06 64.46 497.06 64.46 358.57"/><rect class="cls-21" x="64.46" y="497.06" width="34.92" height="29.79"/><path class="cls-17" d="M182.07,255A33.34,33.34,0,0,1,168,252c-15.51-7.13-23.37-25.82-23.37-55.55a10.8,10.8,0,0,1,21.6,0c0,19.68,3.94,32.77,10.8,35.93,10.6,4.87,32.2-8.94,40.43-16a10.8,10.8,0,1,1,14.06,16.4C228.37,235.47,204.82,255,182.07,255Z"/><path class="cls-17" d="M143,205.27h0a4.23,4.23,0,0,1-4.22-4.22V159a4.23,4.23,0,0,1,4.22-4.22h0a4.24,4.24,0,0,1,4.23,4.22v42.07A4.24,4.24,0,0,1,143,205.27Z"/><path class="cls-17" d="M168.23,205.27h0a4.24,4.24,0,0,1-4.23-4.22V159a4.24,4.24,0,0,1,4.23-4.22h0a4.23,4.23,0,0,1,4.22,4.22v42.07A4.23,4.23,0,0,1,168.23,205.27Z"/><path class="cls-17" d="M269.08,294a10.81,10.81,0,0,1,10.8-10.8c13.43,0,22.39-3.28,26.65-9.74a23.27,23.27,0,0,0,3.37-10.6v-8A72.63,72.63,0,0,0,305,234.35a10.79,10.79,0,0,1-.21-8,48.62,48.62,0,0,0-43.34-26.83h0A48.65,48.65,0,0,0,212.9,248V350.37a5.59,5.59,0,0,0,5.58,5.57h85.85a5.59,5.59,0,0,0,5.57-5.57V298.45c-8,4.19-18,6.3-30,6.3A10.8,10.8,0,0,1,269.08,294Z"/><rect class="cls-22" x="228.53" y="162.34" width="61.96" height="27.27" transform="translate(519.02 351.94) rotate(180)"/><path class="cls-22" d="M223,144.7v52.1a36.64,36.64,0,0,0,36.54,36.54h0a36.64,36.64,0,0,0,36.54-36.54V144.7"/><rect class="cls-23" x="270.92" y="159.54" width="7.21" height="13.43" rx="3.32" transform="translate(549.06 332.52) rotate(180)"/><rect class="cls-23" x="240.89" y="159.54" width="7.21" height="13.43" rx="3.32" transform="translate(488.98 332.52) rotate(180)"/><path class="cls-24" d="M300.41,141.18h-8.2V178h-64.4V141.18h-9.2V202l0,.05a41,41,0,0,0,40.82,39.13h0a41,41,0,0,0,40.84-39.88l.1-.15Z"/><path class="cls-16" d="M260.53,169.12a6.12,6.12,0,0,0-6.12,6.12h12.23A6.12,6.12,0,0,0,260.53,169.12Z"/><rect class="cls-24" x="267.72" y="152.04" width="17.05" height="5.44" rx="2.51" transform="translate(42.03 -58.33) rotate(13.04)"/><rect class="cls-24" x="234.27" y="152.04" width="17.05" height="5.44" rx="2.51" transform="translate(514.25 250.76) rotate(166.96)"/><path class="cls-22" d="M283.44,121.57c-8.39,0-15.74-5.78-19.81-14.45a3.62,3.62,0,0,0-6.55,0c-4.07,8.67-11.42,14.45-19.81,14.45a19.71,19.71,0,0,1-13.3-5.44,1.74,1.74,0,0,0-2.89,1.32V129.2c0,6.33,4,11.5,8.86,11.5h61.61c4.87,0,8.86-5.17,8.86-11.5V116.66a1.73,1.73,0,0,0-2.94-1.23A19.94,19.94,0,0,1,283.44,121.57Z"/><rect class="cls-16" x="218.27" y="139.47" width="84.22" height="9.69" rx="4.13"/><path class="cls-20" d="M309.9,273.41a6.2,6.2,0,0,0-6.19-6.19h0a6.21,6.21,0,0,0-6.19,6.19,6.19,6.19,0,0,0-12.38,0,6.19,6.19,0,0,0-12.38,0,6.2,6.2,0,0,0-6.19-6.19h0a6.21,6.21,0,0,0-6.19,6.19,6.19,6.19,0,0,0-12.38,0,6.19,6.19,0,0,0-12.38,0,6.2,6.2,0,0,0-6.19-6.19h0a6.21,6.21,0,0,0-6.19,6.19,6.19,6.19,0,0,0-12.38,0v23.35H126.27a62,62,0,0,0-61.81,61.81h0a62,62,0,0,0,61.81,61.81H248.09a62,62,0,0,0,61.81-61.81h0a61.25,61.25,0,0,0-.45-7.33,6.1,6.1,0,0,0,.45-2.31Z"/><rect class="cls-25" x="273.47" y="253.36" width="20.44" height="73.71" rx="2.96" transform="translate(-70.41 91.92) rotate(-16.4)"/><path class="cls-1" d="M309.9,254.77v8A44.06,44.06,0,0,0,309.9,254.77Z"/><path class="cls-17" d="M324.79,212.75c-2.36-6.46-8.71-9.45-14.19-6.66a12.05,12.05,0,0,0-5.86,7.29A65,65,0,0,1,309.9,239v8a61.35,61.35,0,0,1,0,9.49v42a41.85,41.85,0,0,0,14.67-15.53C339.75,255.72,326.37,217.07,324.79,212.75Z"/><path class="cls-17" d="M306.53,273.41c-4.26,6.46-13.22,9.74-26.65,9.74a10.8,10.8,0,0,0,0,21.6c12,0,22-2.11,30-6.3V262.81A23.27,23.27,0,0,1,306.53,273.41Z"/><path class="cls-17" d="M305,234.35a72.63,72.63,0,0,1,4.95,20.42V248a47.91,47.91,0,0,0-5.16-21.67A10.79,10.79,0,0,0,305,234.35Z"/><path class="cls-17" d="M155.65,216h0a16.86,16.86,0,0,1-16.81-16.81v-3.65a16.86,16.86,0,0,1,16.81-16.81h0a16.86,16.86,0,0,1,16.8,16.81v3.65A16.86,16.86,0,0,1,155.65,216Z"/><rect class="cls-16" x="147.23" y="173.53" width="8.45" height="16.23" rx="2.8"/><rect class="cls-16" x="155.67" y="173.53" width="8.45" height="16.23" rx="2.8"/><path class="cls-17" d="M151.45,188.8h0a4.23,4.23,0,0,1-4.22-4.22V176.8a4.24,4.24,0,0,1,4.22-4.23h0a4.24,4.24,0,0,1,4.22,4.23v7.78A4.23,4.23,0,0,1,151.45,188.8Z"/><path class="cls-17" d="M159.9,188.8h0a4.24,4.24,0,0,1-4.23-4.22V176.8a4.24,4.24,0,0,1,4.23-4.23h0a4.24,4.24,0,0,1,4.22,4.23v7.78A4.23,4.23,0,0,1,159.9,188.8Z"/><rect class="cls-16" x="154.34" y="190.95" width="22.43" height="7.6" rx="3.64"/><rect class="cls-17" x="154.34" y="189.02" width="22.43" height="7.6" rx="3.64"/><rect class="cls-1" x="42.09" y="62.15" width="301.72" height="501.3"/><polygon class="cls-26" points="34.46 351.82 59.73 337.66 89.66 351.04 89.89 387.65 39.41 396.26 34.46 351.82"/><polygon class="cls-26" points="112.79 421.29 135.01 432.65 156.17 469.38 77.31 469.38 39.1 449 38.18 404.38 42.59 393.07 65.63 384.36 89.89 387.65 112.79 421.29"/><path class="cls-22" d="M273.15,191.6H248a4.5,4.5,0,0,1-4.49-4.49h0a4.5,4.5,0,0,1,4.49-4.48h25.13a4.5,4.5,0,0,1,4.49,4.48h0A4.5,4.5,0,0,1,273.15,191.6Z"/><path class="cls-26" d="M69.43,345.59s17.16-40.52,17.16-43-7.36-49.11-7.36-49.11,19.88-44.81,19.88-47.27-53.24-1.84-53.24-1.84L41.58,351.67Z"/><polygon class="cls-26" points="99.11 206.24 85.11 161.87 113.75 113.83 159.25 71.53 55.79 71.53 37.49 109.78 38.07 182.7 40.51 206.43 99.11 206.24"/><polygon class="cls-26" points="124.16 100.46 186.17 87.91 230.66 95.55 260.32 86.82 292.76 100.46 317.21 106.46 335.89 139.2 347.32 86.82 302.21 62.15 138.32 72.73 124.16 100.46"/></g></g></g></svg>