<?xml version="1.0" encoding="utf-8"?>
<!-- Generator: Adobe Illustrator 25.2.3, SVG Export Plug-In . SVG Version: 6.00 Build 0)  -->
<svg version="1.1" id="Layer_1" xmlns="http://www.w3.org/2000/svg" xmlns:xlink="http://www.w3.org/1999/xlink" x="0px" y="0px"
	 viewBox="0 0 381.8 619.1" style="enable-background:new 0 0 381.8 619.1;" xml:space="preserve">
<style type="text/css">
	.st0{fill:#F5D8D3;}
	.st1{fill:#FDF7F6;}
	.st2{fill:#DE8171;}
	.st3{clip-path:url(#SVGID_2_);}
	.st4{fill:#E29183;}
	.st5{fill:#E08778;}
	.st6{clip-path:url(#SVGID_4_);}
	.st7{fill:#E59A8D;}
	.st8{fill:#E7A397;}
	.st9{fill:#E9ACA1;}
	.st10{fill:#ECB5AB;}
	.st11{fill:#EEBDB5;}
	.st12{fill:#F0C6BF;}
	.st13{fill:#F2CFC9;}
	.st14{fill:#F8E6E3;}
	.st15{fill:#DED69B;}
	.st16{fill:#E2DBA7;}
	.st17{fill:#E3DDAB;}
	.st18{fill:#E7E1B5;}
	.st19{fill:#F8E5E1;}
	.st20{fill:#BBB3DF;}
	.st21{fill:#E29082;}
	.st22{fill:#D1CCEA;}
	.st23{fill:#EAF5F4;}
	.st24{fill:none;}
	.st25{fill:#F2CDC6;}
</style>
<g id="Layer_2_1_">
	<g id="Layer_1-2">
		<path class="st0" d="M381.8,23.5v572.2c0,12.9-10.9,23.5-24.4,23.5h-333C10.9,619.1,0,608.6,0,595.7V23.5C0,10.5,10.9,0,24.4,0
			h333C370.8,0,381.8,10.5,381.8,23.5z M361.3,582.1v-545c0-9.7-7.9-17.6-17.6-17.6H38c-9.7,0-17.5,7.9-17.5,17.6v545
			c0,9.7,7.9,17.5,17.5,17.5h305.7C353.4,599.6,361.3,591.8,361.3,582.1z"/>
		<path class="st1" d="M38,19.5h305.7c9.7,0,17.6,7.9,17.6,17.6v545c0,9.7-7.9,17.6-17.6,17.6H38c-9.7,0-17.6-7.9-17.6-17.6v-545
			C20.5,27.4,28.3,19.5,38,19.5z"/>
		<path class="st2" d="M62.8,542.5c-0.2-0.2-0.3-0.5-0.3-0.9v-17.4h-5.6c-0.3,0.1-0.6,0-0.9-0.2c-0.2-0.2-0.3-0.6-0.2-0.9v-0.9
			c0-0.3,0.1-0.6,0.2-0.9c0.2-0.2,0.6-0.3,0.9-0.3h15.3c0.3,0,0.6,0.1,0.9,0.3c0.2,0.3,0.3,0.6,0.2,0.9v0.9c0,0.3-0.1,0.6-0.2,0.9
			c-0.3,0.2-0.6,0.3-0.9,0.3h-5.6v17.4c0,0.3-0.1,0.6-0.3,0.9c-0.3,0.2-0.6,0.3-0.9,0.3h-1.7C63.4,542.8,63,542.7,62.8,542.5z"/>
		<path class="st2" d="M76.1,542.5c-0.2-0.2-0.3-0.5-0.3-0.9v-19.4c0-0.3,0.1-0.6,0.3-0.9c0.3-0.2,0.6-0.3,0.9-0.3h1.7
			c0.3,0,0.7,0.1,0.9,0.3c0.2,0.2,0.3,0.6,0.3,0.9v8h10.5v-8c0-0.3,0.1-0.6,0.3-0.9c0.3-0.2,0.6-0.3,0.9-0.3h1.7
			c0.3,0,0.7,0.1,0.9,0.3c0.2,0.2,0.3,0.6,0.3,0.9v19.4c0,0.3-0.1,0.6-0.3,0.9c-0.3,0.2-0.6,0.3-0.9,0.3h-1.7
			c-0.3,0-0.7-0.1-0.9-0.3c-0.2-0.2-0.3-0.5-0.3-0.9v-8.2H79.9v8.2c0,0.3-0.1,0.6-0.3,0.9c-0.3,0.2-0.6,0.3-0.9,0.3H77
			C76.7,542.8,76.3,542.7,76.1,542.5z"/>
		<path class="st2" d="M98.5,542.5c-0.2-0.2-0.3-0.5-0.3-0.9v-19.4c0-0.3,0.1-0.6,0.3-0.9c0.3-0.2,0.6-0.3,0.9-0.3h13.3
			c0.3,0,0.6,0.1,0.9,0.3c0.2,0.2,0.3,0.6,0.2,0.9v0.9c0,0.3-0.1,0.6-0.2,0.9c-0.2,0.2-0.6,0.3-0.9,0.3h-10.4v6.2h7.5
			c0.3,0,0.6,0.1,0.9,0.2c0.2,0.2,0.3,0.6,0.3,0.9v0.8c0,0.3-0.1,0.6-0.3,0.9c-0.2,0.2-0.6,0.3-0.9,0.3h-7.5v6.2h10.3
			c0.3,0,0.6,0.1,0.9,0.3c0.2,0.3,0.3,0.6,0.2,0.9v0.9c0,0.3-0.1,0.6-0.2,0.8c-0.3,0.2-0.6,0.3-0.9,0.2H99.4
			C99,542.8,98.7,542.7,98.5,542.5z"/>
		<path class="st2" d="M129.3,542.5c-0.2-0.2-0.3-0.5-0.3-0.9v-19.4c0-0.3,0.1-0.6,0.3-0.9c0.2-0.2,0.6-0.3,0.9-0.3h1.7
			c0.3,0,0.7,0.1,0.9,0.3c0.2,0.2,0.3,0.6,0.3,0.9v8h10.5v-8c0-0.3,0.1-0.6,0.3-0.9c0.3-0.2,0.6-0.3,0.9-0.3h1.7
			c0.3,0,0.7,0.1,0.9,0.3c0.2,0.2,0.3,0.6,0.3,0.9v19.4c0,0.3-0.1,0.6-0.3,0.9c-0.3,0.2-0.6,0.3-0.9,0.3h-1.7
			c-0.3,0-0.7-0.1-0.9-0.3c-0.2-0.2-0.3-0.5-0.3-0.9v-8.2h-10.5v8.2c0,0.3-0.1,0.6-0.3,0.9c-0.3,0.2-0.6,0.3-0.9,0.3h-1.7
			C129.9,542.8,129.5,542.7,129.3,542.5z"/>
		<path class="st2" d="M151.7,542.5c-0.2-0.2-0.3-0.5-0.3-0.9v-19.4c0-0.3,0.1-0.6,0.3-0.9c0.3-0.2,0.6-0.3,0.9-0.3h1.7
			c0.3,0,0.7,0.1,0.9,0.3c0.2,0.2,0.3,0.6,0.3,0.9v19.4c0,0.3-0.1,0.6-0.3,0.9c-0.3,0.2-0.6,0.3-0.9,0.3h-1.7
			C152.3,542.8,151.9,542.7,151.7,542.5z"/>
		<path class="st2" d="M159.5,542.5c-0.2-0.2-0.3-0.5-0.3-0.9v-19.4c0-0.3,0.1-0.6,0.3-0.9c0.3-0.2,0.6-0.3,0.9-0.3h13.3
			c0.3,0,0.6,0.1,0.9,0.3c0.2,0.2,0.3,0.6,0.2,0.9v0.9c0,0.3-0.1,0.6-0.2,0.9c-0.2,0.2-0.6,0.3-0.9,0.3h-10.4v6.2h7.5
			c0.3,0,0.6,0.1,0.9,0.2c0.2,0.2,0.3,0.6,0.3,0.9v0.8c0,0.3-0.1,0.6-0.3,0.9c-0.2,0.2-0.6,0.3-0.9,0.3h-7.5v6.2h10.3
			c0.3,0,0.6,0.1,0.9,0.3c0.2,0.2,0.3,0.6,0.3,0.9v0.9c0,0.3-0.1,0.6-0.3,0.8c-0.3,0.2-0.6,0.3-0.9,0.2h-13.2
			C160.1,542.8,159.8,542.7,159.5,542.5z"/>
		<path class="st2" d="M177.9,542.5c-0.2-0.2-0.3-0.5-0.3-0.9v-19.4c0-0.3,0.1-0.6,0.3-0.9c0.3-0.2,0.6-0.3,0.9-0.3h8.3
			c2-0.1,4,0.5,5.6,1.7c1.4,1.3,2.1,3.2,1.9,5.1c0,1.3-0.3,2.7-1.1,3.8c-0.8,1.1-1.8,1.9-3.1,2.4l3.5,7.8c0.1,0.1,0.1,0.2,0.1,0.4
			c0,0.3-0.2,0.5-0.6,0.5H191c-0.2,0-0.4,0-0.6-0.1c-0.2-0.1-0.3-0.3-0.4-0.5l-3.2-7.6h-5.1v7c0,0.3-0.1,0.6-0.3,0.9
			c-0.3,0.2-0.6,0.3-0.9,0.3h-1.7C178.5,542.8,178.1,542.7,177.9,542.5z M186.3,531.6c1.2,0.1,2.3-0.2,3.3-0.9
			c0.7-0.7,1.1-1.8,1-2.8c0.1-1-0.3-2.1-1-2.8c-0.8-0.7-1.9-1-2.9-0.9h-5.1v7.4H186.3z"/>
		<path class="st2" d="M200,540.3c-1.9-2-2.8-4.8-2.8-8.4c0-3.6,0.9-6.4,2.8-8.4s4.6-3,8.1-3s6.2,1,8.1,3s2.8,4.8,2.8,8.4
			s-0.9,6.4-2.8,8.4s-4.6,3-8.1,3S201.9,542.3,200,540.3z M213.2,538.1c1.2-1.4,1.8-3.5,1.8-6.2s-0.6-4.8-1.8-6.2
			c-2.8-2.8-7.4-2.8-10.2,0c-1.2,1.4-1.8,3.5-1.8,6.2s0.6,4.8,1.8,6.2C205.8,541,210.4,541,213.2,538.1
			C213.2,538.1,213.2,538.1,213.2,538.1z"/>
		<path class="st2" d="M222.4,542.5c-0.2-0.2-0.3-0.5-0.3-0.9v-19.4c0-0.3,0.1-0.6,0.3-0.9c0.3-0.2,0.6-0.3,0.9-0.3h8.2
			c2.6,0,4.6,0.6,5.8,1.9c2.5,3.1,2.5,7.5,0,10.6c-1.3,1.2-3.2,1.8-5.8,1.8h-5.3v6.2c0,0.3-0.1,0.6-0.3,0.9
			c-0.3,0.2-0.6,0.3-0.9,0.3h-1.7C223,542.8,222.7,542.7,222.4,542.5z M231.3,532.3c1.1,0.1,2.1-0.3,2.9-1c0.7-0.9,1-1.9,0.9-3
			c0.1-1.1-0.2-2.2-0.9-3.1c-0.8-0.7-1.8-1.1-2.9-1h-5.1v8.1H231.3z"/>
		<path class="st2" d="M242,542.5c-0.2-0.2-0.3-0.5-0.3-0.9v-19.4c0-0.3,0.1-0.6,0.3-0.9c0.2-0.2,0.6-0.3,0.9-0.3h1.7
			c0.3,0,0.7,0.1,0.9,0.3c0.2,0.2,0.3,0.6,0.3,0.9v8h10.5v-8c0-0.3,0.1-0.6,0.3-0.9c0.3-0.2,0.6-0.3,0.9-0.3h1.7
			c0.3,0,0.7,0.1,0.9,0.3c0.2,0.2,0.3,0.6,0.3,0.9v19.4c0,0.3-0.1,0.6-0.3,0.9c-0.3,0.2-0.6,0.3-0.9,0.3h-1.7
			c-0.3,0-0.7-0.1-0.9-0.3c-0.2-0.2-0.3-0.5-0.3-0.9v-8.2h-10.5v8.2c0,0.3-0.1,0.6-0.3,0.9c-0.3,0.2-0.6,0.3-0.9,0.3h-1.7
			C242.5,542.8,242.2,542.7,242,542.5z"/>
		<path class="st2" d="M263.4,542.3c0-0.1,0-0.3,0.1-0.4l8.4-20c0.1-0.2,0.2-0.5,0.4-0.7c0.2-0.1,0.4-0.2,0.6-0.2h1.8
			c0.2,0,0.5,0,0.6,0.2c0.2,0.2,0.3,0.4,0.4,0.7l8.4,20c0.1,0.1,0.1,0.3,0.1,0.4c0,0.3-0.2,0.5-0.5,0.5H281c-0.2,0-0.4,0-0.6-0.1
			c-0.2-0.1-0.3-0.3-0.3-0.5l-1.8-4.5h-8.8l-1.8,4.5c-0.1,0.2-0.2,0.3-0.3,0.5c-0.2,0.1-0.4,0.1-0.6,0.1H264
			C263.6,542.8,263.4,542.6,263.4,542.3z M277.3,534.8l-3.4-8.4l-3.4,8.4H277.3z"/>
		<path class="st2" d="M287.7,542.5c-0.2-0.2-0.3-0.5-0.3-0.9v-19.4c-0.1-0.5,0.2-1.1,0.8-1.2c0.1,0,0.3,0,0.5,0h1.5
			c0.2,0,0.5,0,0.7,0.1c0.2,0.1,0.4,0.3,0.5,0.5l10.5,14.6v-14.1c-0.1-0.5,0.2-1.1,0.8-1.2c0.1,0,0.3,0,0.4,0h1.7
			c0.3,0,0.7,0.1,0.9,0.3c0.2,0.2,0.3,0.6,0.3,0.9v19.4c0,0.3-0.1,0.6-0.3,0.9c-0.3,0.2-0.6,0.3-0.9,0.3h-1.5c-0.2,0-0.5,0-0.7-0.1
			c-0.2-0.1-0.4-0.3-0.5-0.5l-10.5-14.6v14c0,0.3-0.1,0.6-0.3,0.9c-0.3,0.2-0.6,0.3-0.9,0.3h-1.7C288.3,542.8,288,542.7,287.7,542.5
			z"/>
		<path class="st2" d="M315.4,542.5c-0.2-0.2-0.3-0.5-0.3-0.9v-17.4h-5.6c-0.3,0-0.6-0.1-0.9-0.3c-0.2-0.2-0.3-0.6-0.2-0.9v-0.9
			c0-0.3,0.1-0.6,0.2-0.9c0.2-0.2,0.6-0.3,0.9-0.3h15.2c0.3,0,0.6,0.1,0.9,0.3c0.2,0.3,0.3,0.6,0.2,0.9v0.9c0,0.3-0.1,0.6-0.2,0.9
			c-0.3,0.2-0.6,0.3-0.9,0.3h-5.6v17.4c0,0.3-0.1,0.6-0.3,0.9c-0.3,0.2-0.6,0.3-0.9,0.3h-1.7C316,542.8,315.7,542.7,315.4,542.5z"/>
		<g>
			<defs>
				<path id="SVGID_1_" d="M86.1,71.5h209.5c22.2,0,40.3,18,40.3,40.3v312.3c0,22.2-18,40.3-40.3,40.3H86.1
					c-22.2,0-40.3-18-40.3-40.3V111.8C45.9,89.6,63.9,71.5,86.1,71.5z"/>
			</defs>
			<clipPath id="SVGID_2_">
				<use xlink:href="#SVGID_1_"  style="overflow:visible;"/>
			</clipPath>
			<g class="st3">
				<rect x="42.1" y="62.2" class="st4" width="301.7" height="501.3"/>
				<path class="st5" d="M60.9,469.7h254.3c25.5,0,46.1,20.7,46.1,46.1v7.8c0,25.5-20.7,46.1-46.1,46.1H60.9
					c-25.5,0-46.1-20.7-46.1-46.1v-7.8C14.7,490.4,35.4,469.7,60.9,469.7z"/>
				<g>
					<defs>
						<path id="SVGID_3_" d="M73.8,238.6L96.3,83.4L145,71.5l106.8,102.2C251.8,173.8,174.8,253.2,73.8,238.6z"/>
					</defs>
					<clipPath id="SVGID_4_">
						<use xlink:href="#SVGID_3_"  style="overflow:visible;"/>
					</clipPath>
					<g class="st6">
						<polygon class="st4" points="122.6,253.2 251.8,187.8 251.8,253.2 						"/>
						<polygon class="st4" points="88.6,253.2 251.8,170.5 251.8,187.8 122.6,253.2 						"/>
						<polygon class="st7" points="77,253.2 73.8,245.6 73.8,243.4 247.2,155.6 251.8,166.8 251.8,170.5 88.6,253.2 						"/>
						<polygon class="st8" points="73.8,226.2 241.3,141.3 247.2,155.6 73.8,243.4 						"/>
						<polygon class="st9" points="73.8,208.9 235.4,127 241.3,141.3 73.8,226.2 						"/>
						<polygon class="st10" points="73.8,191.6 229.6,112.7 235.4,127 73.8,208.9 						"/>
						<polygon class="st11" points="73.8,174.4 223.7,98.4 229.6,112.7 73.8,191.6 						"/>
						<polygon class="st12" points="73.8,157.1 217.8,84.2 223.7,98.4 73.8,174.4 						"/>
						<polygon class="st13" points="73.8,139.9 208.7,71.5 212.6,71.5 217.8,84.2 73.8,157.1 						"/>
						<polygon class="st0" points="73.8,122.6 174.6,71.5 208.7,71.5 73.8,139.9 						"/>
						<polygon class="st0" points="174.6,71.5 73.8,122.6 73.8,71.5 						"/>
					</g>
				</g>
				
					<ellipse transform="matrix(0.5258 -0.8506 0.8506 0.5258 -48.9076 353.7124)" class="st14" cx="292.8" cy="220.7" rx="27.7" ry="27.7"/>
				<rect x="275.2" y="374.9" class="st15" width="28.1" height="79.3"/>
				<rect x="275.2" y="454.2" class="st16" width="28.1" height="24"/>
				<rect x="111.4" y="371.4" class="st15" width="28.1" height="79.3"/>
				<rect x="111.4" y="450.7" class="st16" width="28.1" height="24"/>
				<circle class="st14" cx="222.9" cy="218" r="22.9"/>
				<rect x="231.9" y="398.5" class="st17" width="34.9" height="98.5"/>
				<rect x="231.9" y="497.1" class="st18" width="34.9" height="29.8"/>
				<polygon class="st17" points="64.5,358.6 99.4,398.5 99.4,497.1 64.5,497.1 				"/>
				<rect x="64.5" y="497.1" class="st18" width="34.9" height="29.8"/>
				<path class="st14" d="M182.1,255c-4.9,0-9.7-1-14.1-3c-15.5-7.1-23.4-25.8-23.4-55.6c0-6,4.8-10.8,10.8-10.8s10.8,4.8,10.8,10.8
					c0,19.7,3.9,32.8,10.8,35.9c10.6,4.9,32.2-8.9,40.4-16c4.5-3.9,11.3-3.4,15.2,1.2s3.4,11.3-1.2,15.2
					C228.4,235.5,204.8,255,182.1,255z"/>
				<path class="st14" d="M143,205.3L143,205.3c-2.3,0-4.2-1.9-4.2-4.2V159c0-2.3,1.9-4.2,4.2-4.2l0,0c2.3,0,4.2,1.9,4.2,4.2v42.1
					C147.2,203.4,145.3,205.3,143,205.3z"/>
				<path class="st14" d="M168.2,205.3L168.2,205.3c-2.3,0-4.2-1.9-4.2-4.2V159c0-2.3,1.9-4.2,4.2-4.2l0,0c2.3,0,4.2,1.9,4.2,4.2
					v42.1C172.4,203.4,170.6,205.3,168.2,205.3z"/>
				<path class="st14" d="M269.1,294c0-6,4.8-10.8,10.8-10.8c13.4,0,22.4-3.3,26.6-9.7c2-3.2,3.1-6.8,3.4-10.6v-8
					c-0.6-7-2.3-13.9-4.9-20.5c-1.1-2.5-1.2-5.4-0.2-8c-8.2-16.4-25-26.8-43.3-26.8l0,0c-26.8,0.1-48.5,21.7-48.6,48.5v102.4
					c0,3.1,2.5,5.6,5.6,5.6h85.8c3.1,0,5.6-2.5,5.6-5.6v-51.9c-8,4.2-18,6.3-30,6.3C273.9,304.8,269.1,300,269.1,294z"/>
				<rect x="228.5" y="162.3" class="st19" width="62" height="27.3"/>
				<path class="st19" d="M223,144.7v52.1c0.1,20.2,16.4,36.5,36.5,36.5l0,0c20.2-0.1,36.5-16.4,36.5-36.5v-52.1"/>
				<path class="st20" d="M274.8,173h-0.6c-1.8,0-3.3-1.5-3.3-3.3v-6.8c0-1.8,1.5-3.3,3.3-3.3h0.6c1.8,0,3.3,1.5,3.3,3.3v6.8
					C278.1,171.5,276.7,173,274.8,173z"/>
				<path class="st20" d="M244.8,173h-0.6c-1.8,0-3.3-1.5-3.3-3.3v-6.8c0-1.8,1.5-3.3,3.3-3.3h0.6c1.8,0,3.3,1.5,3.3,3.3v6.8
					C248.1,171.5,246.6,173,244.8,173z"/>
				<path class="st21" d="M300.4,141.2h-8.2V178h-64.4v-36.8h-9.2V202v0.1c1,21.8,19,39.1,40.8,39.1l0,0
					c22.2-0.1,40.2-17.7,40.8-39.9l0.1-0.1L300.4,141.2z"/>
				<path class="st0" d="M260.5,169.1c-3.4,0-6.1,2.7-6.1,6.1h12.2C266.6,171.9,263.9,169.1,260.5,169.1z"/>
				<path class="st21" d="M271,150.8l11.7,2.7c1.4,0.3,2.2,1.7,1.9,3l-0.1,0.4c-0.3,1.4-1.7,2.2-3,1.9l-11.7-2.7
					c-1.4-0.3-2.2-1.7-1.9-3l0.1-0.4C268.3,151.3,269.6,150.4,271,150.8z"/>
				<path class="st21" d="M249.3,156.1l-11.7,2.7c-1.4,0.3-2.7-0.5-3-1.9l-0.1-0.4c-0.3-1.4,0.5-2.7,1.9-3l11.7-2.7
					c1.4-0.3,2.7,0.5,3,1.9l0.1,0.4C251.5,154.4,250.6,155.8,249.3,156.1z"/>
				<path class="st22" d="M283.4,121.6c-8.4,0-15.7-5.8-19.8-14.4c-0.9-1.8-3-2.6-4.8-1.7c-0.8,0.4-1.4,1-1.7,1.7
					c-4.1,8.7-11.4,14.4-19.8,14.4c-5-0.1-9.7-2-13.3-5.4c-0.7-0.6-1.8-0.6-2.5,0.2c-0.3,0.3-0.4,0.7-0.4,1.2v11.8
					c0,6.3,4,11.5,8.9,11.5h61.6c4.9,0,8.9-5.2,8.9-11.5v-12.5c0-1-0.8-1.7-1.7-1.7c-0.5,0-0.9,0.2-1.2,0.5
					C293.8,119.3,288.7,121.5,283.4,121.6z"/>
				<path class="st20" d="M222.4,139.5h76c2.3,0,4.1,1.8,4.1,4.1v1.4c0,2.3-1.8,4.1-4.1,4.1h-76c-2.3,0-4.1-1.8-4.1-4.1v-1.4
					C218.3,141.3,220.1,139.5,222.4,139.5z"/>
				<path class="st17" d="M309.9,273.4c0-3.4-2.8-6.2-6.2-6.2l0,0c-3.4,0-6.2,2.8-6.2,6.2c0-3.4-2.8-6.2-6.2-6.2s-6.2,2.8-6.2,6.2
					c0-3.4-2.8-6.2-6.2-6.2s-6.2,2.8-6.2,6.2c0-3.4-2.8-6.2-6.2-6.2l0,0c-3.4,0-6.2,2.8-6.2,6.2c0-3.4-2.8-6.2-6.2-6.2
					s-6.2,2.8-6.2,6.2c0-3.4-2.8-6.2-6.2-6.2s-6.2,2.8-6.2,6.2c0-3.4-2.8-6.2-6.2-6.2l0,0c-3.4,0-6.2,2.8-6.2,6.2
					c0-3.4-2.8-6.2-6.2-6.2s-6.2,2.8-6.2,6.2v23.4h-84.6c-34.1,0.1-61.7,27.7-61.8,61.8l0,0c0.1,34.1,27.7,61.7,61.8,61.8h121.8
					c34.1-0.1,61.7-27.7,61.8-61.8l0,0c0-2.5-0.2-4.9-0.5-7.3c0.3-0.7,0.5-1.5,0.5-2.3V273.4z"/>
				<path class="st23" d="M266.3,256.9l13.9-4.1c1.6-0.5,3.2,0.4,3.7,2l19.1,65c0.5,1.6-0.4,3.2-2,3.7l-13.9,4.1
					c-1.6,0.5-3.2-0.4-3.7-2l-19.1-65C263.8,259,264.7,257.4,266.3,256.9z"/>
				<path class="st24" d="M309.9,254.8v8C310.1,260.1,310.1,257.4,309.9,254.8z"/>
				<path class="st14" d="M324.8,212.8c-2.4-6.5-8.7-9.4-14.2-6.7c-2.9,1.5-5,4.2-5.9,7.3c3.4,8.1,5.2,16.8,5.2,25.6v8
					c0.2,3.2,0.2,6.3,0,9.5v42c6.2-3.8,11.2-9.2,14.7-15.5C339.8,255.7,326.4,217.1,324.8,212.8z"/>
				<path class="st14" d="M306.5,273.4c-4.3,6.5-13.2,9.7-26.6,9.7c-6,0-10.8,4.8-10.8,10.8c0,6,4.8,10.8,10.8,10.8
					c12,0,22-2.1,30-6.3v-35.6C309.6,266.6,308.5,270.2,306.5,273.4z"/>
				<path class="st14" d="M305,234.4c2.6,6.5,4.3,13.4,5,20.4V248c0-7.5-1.8-15-5.2-21.7C303.8,228.9,303.9,231.8,305,234.4z"/>
				<path class="st14" d="M155.6,216L155.6,216c-9.3,0-16.8-7.5-16.8-16.8v-3.6c0-9.3,7.5-16.8,16.8-16.8l0,0
					c9.3,0,16.8,7.5,16.8,16.8v3.6C172.4,208.5,164.9,216,155.6,216z"/>
				<path class="st0" d="M150,173.5h2.8c1.5,0,2.8,1.3,2.8,2.8V187c0,1.5-1.3,2.8-2.8,2.8H150c-1.5,0-2.8-1.3-2.8-2.8v-10.6
					C147.2,174.8,148.5,173.5,150,173.5z"/>
				<path class="st0" d="M158.5,173.5h2.8c1.5,0,2.8,1.3,2.8,2.8V187c0,1.5-1.3,2.8-2.8,2.8h-2.8c-1.5,0-2.8-1.3-2.8-2.8v-10.6
					C155.7,174.8,156.9,173.5,158.5,173.5z"/>
				<path class="st14" d="M151.4,188.8L151.4,188.8c-2.3,0-4.2-1.9-4.2-4.2v-7.8c0-2.3,1.9-4.2,4.2-4.2l0,0c2.3,0,4.2,1.9,4.2,4.2
					v7.8C155.7,186.9,153.8,188.8,151.4,188.8z"/>
				<path class="st14" d="M159.9,188.8L159.9,188.8c-2.3,0-4.2-1.9-4.2-4.2v-7.8c0-2.3,1.9-4.2,4.2-4.2l0,0c2.3,0,4.2,1.9,4.2,4.2
					v7.8C164.1,186.9,162.2,188.8,159.9,188.8z"/>
				<path class="st0" d="M158,190.9h15.1c2,0,3.6,1.6,3.6,3.6v0.3c0,2-1.6,3.6-3.6,3.6H158c-2,0-3.6-1.6-3.6-3.6v-0.3
					C154.3,192.6,156,190.9,158,190.9z"/>
				<path class="st14" d="M158,189h15.1c2,0,3.6,1.6,3.6,3.6v0.3c0,2-1.6,3.6-3.6,3.6H158c-2,0-3.6-1.6-3.6-3.6v-0.3
					C154.3,190.6,156,189,158,189z"/>
				<rect x="42.1" y="62.2" class="st24" width="301.7" height="501.3"/>
				<polygon class="st25" points="34.5,351.8 59.7,337.7 89.7,351 89.9,387.6 39.4,396.3 				"/>
				<polygon class="st25" points="112.8,421.3 135,432.6 156.2,469.4 77.3,469.4 39.1,449 38.2,404.4 42.6,393.1 65.6,384.4 
					89.9,387.6 				"/>
				<path class="st19" d="M273.1,191.6H248c-2.5,0-4.5-2-4.5-4.5l0,0c0-2.5,2-4.5,4.5-4.5h25.1c2.5,0,4.5,2,4.5,4.5l0,0
					C277.6,189.6,275.6,191.6,273.1,191.6z"/>
				<path class="st25" d="M69.4,345.6c0,0,17.2-40.5,17.2-43s-7.4-49.1-7.4-49.1s19.9-44.8,19.9-47.3s-53.2-1.8-53.2-1.8l-4.3,147.3
					L69.4,345.6z"/>
				<polygon class="st25" points="99.1,206.2 85.1,161.9 113.8,113.8 159.2,71.5 55.8,71.5 37.5,109.8 38.1,182.7 40.5,206.4 				
					"/>
				<polygon class="st25" points="124.2,100.5 186.2,87.9 230.7,95.6 260.3,86.8 292.8,100.5 317.2,106.5 335.9,139.2 347.3,86.8 
					302.2,62.2 138.3,72.7 				"/>
			</g>
		</g>
	</g>
</g>
</svg>
