<?xml version="1.0" encoding="utf-8"?>
<!-- Generator: Adobe Illustrator 25.2.3, SVG Export Plug-In . SVG Version: 6.00 Build 0)  -->
<svg version="1.1" id="Layer_1" xmlns="http://www.w3.org/2000/svg" xmlns:xlink="http://www.w3.org/1999/xlink" x="0px" y="0px"
	 viewBox="0 0 381.8 619.1" style="enable-background:new 0 0 381.8 619.1;" xml:space="preserve">
<style type="text/css">
	.st0{fill:#F4B155;}
	.st1{fill:#FFF0CC;}
	.st2{fill:#231F20;}
	.st3{clip-path:url(#SVGID_2_);}
	.st4{fill:#A4F6FF;}
	.st5{fill:#FFFFFF;}
	.st6{fill:#F1F2F2;}
	.st7{fill:#8ECC95;}
	.st8{fill:none;}
	.st9{fill:#5BA587;}
	.st10{fill:#FFD150;}
	.st11{fill:#E4705E;}
	.st12{fill:#FFD351;}
	.st13{fill:#4A355B;}
	.st14{fill:#5BC4B8;}
	.st15{fill:#E6705F;}
	.st16{fill:#F4B055;}
	.st17{fill:#DC4F64;}
	.st18{fill:#BCBEC0;}
	.st19{fill:#F9FAFB;}
	.st20{fill:#F5B155;}
	.st21{fill:#414042;}
	.st22{fill:#3A335F;}
	.st23{fill:#DD4F65;}
	.st24{fill:#31233D;}
	.st25{fill:#48C2CA;}
	.st26{fill:#AECE83;}
	.st27{fill:#8DC63F;}
	.st28{fill:#76991F;}
	.st29{fill:#47372E;}
</style>
<g id="Layer_2_1_">
	<g id="Layer_1-2">
		<path class="st0" d="M381.8,23.5v572.2c0,12.9-10.9,23.5-24.4,23.5h-333C10.9,619.1,0,608.6,0,595.7V23.5C0,10.5,10.9,0,24.4,0
			h333C370.8,0,381.8,10.5,381.8,23.5z M361.3,582.1v-545c0-9.7-7.9-17.6-17.6-17.6H38c-9.7,0-17.5,7.9-17.5,17.6v545
			c0,9.7,7.9,17.5,17.5,17.5h305.7C353.4,599.6,361.3,591.8,361.3,582.1z"/>
		<path class="st1" d="M38,19.5h305.7c9.7,0,17.6,7.9,17.6,17.6v545c0,9.7-7.9,17.6-17.6,17.6H38c-9.7,0-17.6-7.9-17.6-17.6v-545
			C20.5,27.4,28.3,19.5,38,19.5z"/>
		<path class="st2" d="M112.9,550.2c-0.2-0.2-0.3-0.5-0.2-0.8v-15.5h-5c-0.3,0-0.6,0-0.8-0.2c-0.2-0.2-0.2-0.5-0.2-0.8v-0.8
			c0-0.3,0-0.6,0.2-0.8c0.2-0.2,0.5-0.3,0.8-0.2h13.6c0.3,0,0.6,0.1,0.8,0.2c0.2,0.2,0.3,0.5,0.2,0.8v0.8c0,0.3-0.1,0.6-0.2,0.8
			c-0.2,0.2-0.5,0.3-0.8,0.2h-5v15.5c0,0.3-0.1,0.5-0.2,0.8c-0.2,0.2-0.5,0.3-0.8,0.3h-1.5C113.4,550.5,113.1,550.4,112.9,550.2z"/>
		<path class="st2" d="M124.7,550.2c-0.2-0.2-0.3-0.5-0.2-0.8v-17.3c0-0.3,0.1-0.6,0.2-0.8c0.2-0.2,0.5-0.3,0.8-0.3h1.5
			c0.3,0,0.6,0.1,0.8,0.3c0.2,0.2,0.3,0.5,0.3,0.8v7.2h9.3v-7.2c0-0.3,0.1-0.6,0.3-0.8c0.2-0.2,0.5-0.3,0.8-0.3h1.5
			c0.3,0,0.6,0.1,0.8,0.3c0.2,0.2,0.3,0.5,0.2,0.8v17.3c0,0.3-0.1,0.5-0.2,0.8c-0.2,0.2-0.5,0.3-0.8,0.3h-1.5
			c-0.3,0-0.6-0.1-0.8-0.3c-0.2-0.2-0.3-0.5-0.3-0.8v-7.3h-9.3v7.3c0,0.3-0.1,0.5-0.2,0.8c-0.2,0.2-0.5,0.3-0.8,0.3h-1.5
			C125.2,550.5,125,550.4,124.7,550.2z"/>
		<path class="st2" d="M144.7,550.2c-0.2-0.2-0.3-0.5-0.2-0.8v-17.3c0-0.3,0.1-0.6,0.2-0.8c0.2-0.2,0.5-0.3,0.8-0.3h11.8
			c0.3,0,0.6,0.1,0.8,0.2c0.2,0.2,0.2,0.5,0.2,0.8v0.8c0,0.3,0,0.6-0.2,0.8c-0.2,0.2-0.5,0.3-0.8,0.2h-9.2v5.5h6.7
			c0.5-0.1,0.9,0.2,1,0.6c0,0.1,0,0.2,0,0.4v0.7c0,0.3-0.1,0.6-0.2,0.8c-0.2,0.2-0.5,0.3-0.8,0.2h-6.7v5.5h9.2
			c0.3,0,0.6,0.1,0.8,0.2c0.2,0.2,0.2,0.5,0.2,0.8v0.8c0,0.3-0.1,0.5-0.2,0.7c-0.2,0.2-0.5,0.3-0.8,0.2h-11.8
			C145.2,550.5,144.9,550.4,144.7,550.2z"/>
		<path class="st2" d="M172.2,550.2c-0.2-0.2-0.3-0.5-0.2-0.8v-17.3c0-0.3,0.1-0.6,0.2-0.8c0.2-0.2,0.5-0.3,0.8-0.3h1.5
			c0.3,0,0.6,0.1,0.8,0.3c0.2,0.2,0.3,0.5,0.2,0.8v15.5h8.7c0.3,0,0.6,0.1,0.8,0.2c0.2,0.2,0.3,0.5,0.2,0.8v0.8
			c0,0.3-0.1,0.5-0.2,0.7c-0.2,0.2-0.5,0.3-0.8,0.2H173C172.7,550.5,172.4,550.4,172.2,550.2z"/>
		<path class="st2" d="M188.2,548.2c-1.7-1.8-2.5-4.2-2.5-7.5c0-3.2,0.8-5.7,2.5-7.5s4.1-2.6,7.2-2.6s5.5,0.9,7.2,2.6
			s2.5,4.2,2.5,7.5s-0.9,5.7-2.5,7.5c-1.9,1.9-4.5,2.8-7.2,2.7C192.2,550.9,189.8,550,188.2,548.2z M199.9,546.3
			c2.1-3.4,2.1-7.6,0-11c-2.5-2.5-6.6-2.5-9.1,0c-2.1,3.4-2.1,7.6,0,11C193.3,548.8,197.4,548.8,199.9,546.3
			C199.9,546.3,199.9,546.3,199.9,546.3z"/>
		<path class="st2" d="M213.3,550.3c-0.2-0.2-0.3-0.4-0.4-0.6l-7.4-17.8c-0.1-0.1-0.1-0.2-0.1-0.3c0-0.1,0-0.2,0.1-0.3
			c0.1-0.1,0.2-0.1,0.4-0.1h2.4c0.2,0,0.4,0,0.6,0.2c0.2,0.1,0.3,0.3,0.3,0.5l5.4,13.7l5.3-13.6c0.1-0.2,0.2-0.3,0.3-0.5
			c0.2-0.1,0.4-0.2,0.6-0.2h2.4c0.1,0,0.3,0,0.4,0.1c0.1,0.1,0.1,0.2,0.1,0.3c0,0.1,0,0.2-0.1,0.3l-7.4,17.8
			c-0.1,0.2-0.2,0.4-0.4,0.6c-0.2,0.1-0.4,0.2-0.6,0.1h-1.5C213.7,550.5,213.5,550.4,213.3,550.3z"/>
		<path class="st2" d="M226.4,550.2c-0.2-0.2-0.3-0.5-0.2-0.8v-17.3c0-0.3,0.1-0.6,0.2-0.8c0.2-0.2,0.5-0.3,0.8-0.3h11.8
			c0.3,0,0.6,0.1,0.8,0.2c0.2,0.2,0.2,0.5,0.2,0.8v0.8c0,0.3,0,0.6-0.2,0.8c-0.2,0.2-0.5,0.3-0.8,0.2h-9.2v5.5h6.7
			c0.3,0,0.6,0,0.8,0.2c0.2,0.2,0.3,0.5,0.2,0.8v0.7c0,0.3-0.1,0.6-0.2,0.8c-0.2,0.2-0.5,0.3-0.8,0.2h-6.7v5.5h9.2
			c0.3,0,0.6,0.1,0.8,0.2c0.2,0.2,0.3,0.5,0.2,0.8v0.8c0,0.3-0.1,0.5-0.2,0.7c-0.2,0.2-0.5,0.3-0.8,0.2h-11.8
			C227,550.5,226.7,550.4,226.4,550.2z"/>
		<path class="st2" d="M242.8,550.2c-0.2-0.2-0.3-0.5-0.2-0.8v-17.3c0-0.3,0.1-0.6,0.2-0.8c0.2-0.2,0.5-0.3,0.8-0.3h7.4
			c1.8-0.1,3.6,0.4,5,1.5c1.2,1.2,1.8,2.9,1.7,4.5c0,1.2-0.3,2.4-0.9,3.4c-0.7,1-1.6,1.7-2.7,2.1l3.2,7c0.1,0.1,0.1,0.2,0.1,0.3
			c0,0.3-0.2,0.4-0.5,0.4h-2.3c-0.2,0-0.4,0-0.5-0.1c-0.1-0.1-0.2-0.2-0.3-0.4l-2.9-6.7h-4.6v6.2c0,0.3-0.1,0.5-0.2,0.8
			c-0.2,0.2-0.5,0.3-0.8,0.3h-1.5C243.3,550.5,243,550.4,242.8,550.2z M250.3,540.5c1,0.1,2.1-0.2,2.9-0.8c0.7-0.6,1-1.6,0.9-2.5
			c0.1-0.9-0.2-1.8-0.9-2.5c-0.7-0.6-1.7-0.9-2.6-0.8h-4.5v6.6H250.3z"/>
		<path class="st2" d="M263.5,550.4c-1.1-0.2-2.2-0.6-3.1-1.2c-0.2-0.2-0.4-0.3-0.4-0.5c0-0.1,0-0.2,0.1-0.3l0.9-1.5
			c0.1-0.2,0.2-0.2,0.3-0.2c0.1,0,0.3,0.1,0.4,0.1c0.8,0.4,1.6,0.8,2.4,1c0.9,0.3,1.9,0.4,2.8,0.4c1,0.1,2-0.2,2.9-0.6
			c0.7-0.5,1.1-1.2,1-2.1c0-0.5-0.1-1-0.4-1.4c-0.3-0.4-0.7-0.7-1.1-0.9c-0.5-0.2-1.2-0.6-2.3-1l-0.7-0.3c-1-0.4-2.1-0.9-3-1.4
			c-0.8-0.4-1.5-1.1-2-1.8c-0.5-0.8-0.8-1.7-0.8-2.7c-0.1-1.6,0.7-3.1,2-4c1.5-1,3.4-1.5,5.2-1.4c1.1,0,2.3,0.1,3.4,0.4
			c0.9,0.2,1.7,0.6,2.5,1.1c0.2,0.2,0.3,0.3,0.3,0.5c0,0.1,0,0.2-0.1,0.3l-0.9,1.5c-0.1,0.2-0.2,0.2-0.3,0.2c-0.1,0-0.3-0.1-0.4-0.2
			c-1.4-0.8-2.9-1.2-4.5-1.2c-0.9-0.1-1.9,0.2-2.7,0.7c-1,0.9-1.2,2.3-0.5,3.5c0.3,0.4,0.7,0.7,1.1,0.9c0.5,0.2,1.3,0.6,2.4,1
			l0.7,0.3c1.1,0.4,2.2,0.9,3.2,1.5c0.7,0.4,1.4,1,1.8,1.7c0.5,0.8,0.7,1.7,0.6,2.7c0.1,1.5-0.6,2.9-1.8,3.8c-1.5,1-3.4,1.5-5.2,1.4
			C266.2,550.9,264.8,550.7,263.5,550.4z"/>
		<g>
			<defs>
				<path id="SVGID_1_" d="M86.1,71.5h209.5c22.2,0,40.3,18,40.3,40.3v312.3c0,22.2-18,40.3-40.3,40.3H86.1
					c-22.2,0-40.3-18-40.3-40.3V111.8C45.9,89.6,63.9,71.5,86.1,71.5z"/>
			</defs>
			<clipPath id="SVGID_2_">
				<use xlink:href="#SVGID_1_"  style="overflow:visible;"/>
			</clipPath>
			<g class="st3">
				<rect x="45.1" y="28" class="st4" width="290.4" height="482.6"/>
				<path class="st5" d="M-6.6,236.6h162c10.1,0,18.3,8.2,18.3,18.3v4.2c0,10.1-8.2,18.3-18.3,18.3h-162c-10.1,0-18.3-8.2-18.3-18.3
					v-4.2C-24.9,244.7-16.7,236.6-6.6,236.6z"/>
				<circle class="st5" cx="54.2" cy="226.7" r="50.6"/>
				<circle class="st5" cx="109.9" cy="241.2" r="36.1"/>
				<path class="st6" d="M352.2,277.3H240.9c-7.9,0-14.4-6.4-14.4-14.4v0c0-7.9,6.4-14.4,14.4-14.4h111.4c7.9,0,14.4,6.4,14.4,14.4
					v0C366.6,270.9,360.2,277.3,352.2,277.3z"/>
				<circle class="st6" cx="310.7" cy="241.6" r="35.7"/>
				<circle class="st6" cx="272.2" cy="252.6" r="25.5"/>
				<rect x="45.1" y="274.5" class="st7" width="290.4" height="198.9"/>
				<rect x="45.1" y="28" class="st8" width="290.4" height="482.6"/>
				<path class="st9" d="M138.1,360.1H71.6c-4.5,0-8.2-3.7-8.2-8.2l0,0c0-4.5,3.7-8.2,8.2-8.2h66.5c4.5,0,8.2,3.7,8.2,8.2l0,0
					C146.3,356.4,142.7,360.1,138.1,360.1z"/>
				<path class="st9" d="M323.1,375.6h-83.2c-4.5,0-8.2-3.7-8.2-8.2l0,0c0-4.5,3.7-8.2,8.2-8.2h83.2c4.5,0,8.2,3.7,8.2,8.2l0,0
					C331.4,371.9,327.7,375.6,323.1,375.6z"/>
				<path class="st9" d="M227,346.3h-62.9c-4.5,0-8.2-3.7-8.2-8.2l0,0c0-4.5,3.7-8.2,8.2-8.2H227c4.5,0,8.2,3.7,8.2,8.2l0,0
					C235.2,342.6,231.5,346.3,227,346.3z"/>
				<path class="st10" d="M242.6,299.6c-3.7,0-6.7-3-6.7-6.7c0,0,0,0,0,0v-60.1c0-3.7,3-6.7,6.7-6.7c3.7,0,6.7,3,6.7,6.7l0,0v60.1
					C249.3,296.6,246.3,299.6,242.6,299.6C242.6,299.6,242.6,299.6,242.6,299.6z"/>
				<path class="st10" d="M247.9,361.2l0.8-0.9c0.4-0.5,1-0.9,1.7-1l3.8-0.8c0-0.1,0-0.1,0-0.2v-27.5c0-2.9,2.4-5.2,5.2-5.2
					c2.9,0,5.2,2.3,5.2,5.2v26.6c0.8,0.6,1.2,1.5,1.2,2.5v3.4c0,1.7-1.4,3.1-3.1,3.1l0,0h-12.5c-1.7,0-3.1-1.4-3.1-3.1
					C247.1,362.5,247.3,361.8,247.9,361.2z"/>
				<path class="st11" d="M264.3,336h-9.4c-0.6,0-1-0.4-1-1l0,0c0-0.6,0.4-1,1-1h9.4c0.6,0,1,0.4,1,1l0,0
					C265.3,335.6,264.8,336,264.3,336z"/>
				<path class="st11" d="M254.7,348.2L254.7,348.2c-0.5-0.4-0.6-1.1-0.2-1.6l8.4-11.1c0.4-0.5,1.1-0.6,1.6-0.2l0,0
					c0.5,0.4,0.6,1.1,0.2,1.6l-8.4,11.1C255.9,348.5,255.2,348.6,254.7,348.2z"/>
				<path class="st11" d="M264.6,348.1L264.6,348.1c0.4-0.3,0.5-0.9,0.2-1.4c0,0,0,0,0,0l-8.5-11.3c-0.3-0.4-1-0.5-1.4-0.2
					c0,0,0,0,0,0l0,0c-0.4,0.3-0.5,0.9-0.2,1.4c0,0,0,0,0,0l8.5,11.3C263.5,348.4,264.1,348.5,264.6,348.1
					C264.6,348.1,264.6,348.1,264.6,348.1z"/>
				<path class="st11" d="M254.7,359.5L254.7,359.5c-0.5-0.4-0.6-1.1-0.2-1.6l8.4-11.1c0.4-0.5,1.1-0.6,1.6-0.2l0,0
					c0.5,0.4,0.6,1.1,0.2,1.6l-8.4,11.1C255.9,359.8,255.2,359.9,254.7,359.5z"/>
				<path class="st11" d="M264.5,359.5L264.5,359.5c0.5-0.4,0.6-1.1,0.2-1.6l-8.4-11.1c-0.4-0.5-1.1-0.6-1.6-0.2l0,0
					c-0.5,0.4-0.6,1.1-0.2,1.6l8.4,11.1C263.3,359.8,264,359.9,264.5,359.5z"/>
				<path class="st11" d="M250.3,365.9L250.3,365.9c-0.5,0-0.9-0.4-0.9-0.9v-4.8c0-0.5,0.4-0.9,0.9-0.9l0,0c0.5,0,0.9,0.4,0.9,0.9
					v4.8C251.2,365.5,250.8,365.9,250.3,365.9z"/>
				<path class="st11" d="M253.9,365.9L253.9,365.9c-0.5,0-0.9-0.4-0.9-0.9v-5.6c0-0.5,0.4-0.9,0.9-0.9l0,0c0.5,0,0.9,0.4,0.9,0.9
					v5.6C254.9,365.5,254.5,365.9,253.9,365.9z"/>
				<path class="st11" d="M263.9,360.2H255c-0.6,0-1-0.4-1-1l0,0c0-0.6,0.4-1,1-1h8.9c0.6,0,1,0.4,1,1l0,0
					C264.9,359.8,264.5,360.2,263.9,360.2C263.9,360.2,263.9,360.2,263.9,360.2z"/>
				<path class="st11" d="M248,366.8h17.8c0.5,0,1-0.5,1-1l0,0c0-0.5-0.4-0.9-1-1H248c-0.5,0-0.9,0.4-0.9,1l0,0
					C247,366.3,247.5,366.7,248,366.8z"/>
				<path class="st10" d="M275.5,357.4v-26.6c0-2.9,2.3-5.2,5.2-5.2c2.9,0,5.2,2.3,5.2,5.2l0,0v27.5c0,0.1,0,0.1,0,0.2l3.8,0.8
					c0.6,0.1,1.2,0.5,1.7,1l0.8,0.9c1.2,1.3,1.1,3.3-0.2,4.4c-0.6,0.5-1.3,0.8-2.1,0.8h-12.5c-1.7,0-3.1-1.4-3.1-3.1v-3.4
					C274.3,358.9,274.7,358,275.5,357.4z"/>
				<path class="st11" d="M276,336h9.4c0.6,0,1-0.4,1-1l0,0c0-0.6-0.4-1-1-1H276c-0.6,0-1,0.4-1,1l0,0C275,335.6,275.4,336,276,336z
					"/>
				<path class="st11" d="M285.5,348.2L285.5,348.2c0.5-0.4,0.6-1.1,0.2-1.6l-8.4-11.1c-0.4-0.5-1.1-0.6-1.6-0.2l0,0
					c-0.5,0.4-0.6,1.1-0.2,1.6l8.4,11.1C284.3,348.5,285,348.6,285.5,348.2z"/>
				<path class="st11" d="M275.7,348.2L275.7,348.2c-0.5-0.4-0.6-1.1-0.2-1.6l8.4-11.1c0.4-0.5,1.1-0.6,1.6-0.2l0,0
					c0.5,0.4,0.6,1.1,0.2,1.6l-8.4,11.1C276.9,348.5,276.2,348.6,275.7,348.2z"/>
				<path class="st11" d="M285.5,359.5L285.5,359.5c0.5-0.4,0.6-1.1,0.2-1.6l-8.4-11.1c-0.4-0.5-1.1-0.6-1.6-0.2l0,0
					c-0.5,0.4-0.6,1.1-0.2,1.6l8.4,11.1C284.3,359.8,285,359.9,285.5,359.5z"/>
				<path class="st11" d="M275.7,359.5L275.7,359.5c-0.5-0.4-0.6-1.1-0.2-1.6l8.4-11.1c0.4-0.5,1.1-0.6,1.6-0.2l0,0
					c0.5,0.4,0.6,1.1,0.2,1.6l-8.4,11.1C277,359.8,276.2,359.9,275.7,359.5z"/>
				<path class="st11" d="M290,365.4L290,365.4c0.5,0,0.9-0.4,0.9-0.9v-4.8c0-0.5-0.4-0.9-0.9-0.9l0,0c-0.5,0-0.9,0.4-0.9,0.9v4.8
					C289.1,365,289.5,365.4,290,365.4z"/>
				<path class="st11" d="M286.3,365.4L286.3,365.4c0.5,0,0.9-0.4,0.9-0.9v-5.3c0-0.5-0.4-0.9-0.9-0.9l0,0c-0.5,0-0.9,0.4-0.9,0.9
					v5.3C285.4,365,285.8,365.4,286.3,365.4z"/>
				<path class="st11" d="M276.4,360.2h8.9c0.6,0,1-0.4,1-1l0,0c0-0.6-0.4-1-1-1h-8.9c-0.6,0-1,0.4-1,1l0,0
					C275.4,359.8,275.8,360.2,276.4,360.2z"/>
				<path class="st11" d="M274.8,366.8h17.8c0.5,0,1-0.5,1-1l0,0c0-0.5-0.4-0.9-1-1h-17.8c-0.5,0-1,0.4-1,1l0,0
					C273.8,366.3,274.2,366.8,274.8,366.8z"/>
				<path class="st11" d="M275,366.7L275,366.7c-0.6,0-1.1-0.5-1.1-1.1v-7.2c0-0.6,0.5-1.1,1.1-1.1l0,0c0.6,0,1.1,0.5,1.1,1.1v7.2
					C276.1,366.3,275.6,366.7,275,366.7z"/>
				<path class="st11" d="M265.8,366.8L265.8,366.8c0.6,0,1.1-0.5,1.1-1.1v-7.3c0-0.6-0.5-1.1-1.1-1.1c0,0,0,0,0,0l0,0
					c-0.6,0-1.1,0.5-1.1,1.1v7.3C264.8,366.3,265.2,366.8,265.8,366.8z"/>
				<path class="st12" d="M315.5,242.5L315.5,242.5c2-2.7,1.5-6.5-1.2-8.5l-11.3-8.6c-2.7-2-6.5-1.5-8.5,1.2l0,0
					c-2,2.7-1.5,6.5,1.2,8.5l11.3,8.6C309.7,245.7,313.5,245.2,315.5,242.5z"/>
				<path class="st12" d="M328.4,217.9L328.4,217.9c-2-1.5-4.7-1.1-6.2,0.9l-15,19.8c-1.5,2-1.1,4.8,0.9,6.2l0,0
					c2,1.5,4.7,1.1,6.2-0.9l15-19.8C330.8,222.2,330.4,219.4,328.4,217.9z"/>
				<rect x="319.9" y="204.8" class="st13" width="6.8" height="25.9"/>
				<rect x="315.8" y="211.7" class="st14" width="14.9" height="2.8"/>
				<rect x="319.9" y="121.3" class="st6" width="6.8" height="90.5"/>
				<polygon class="st6" points="319.9,121.3 323.3,112.8 326.7,121.3 				"/>
				<rect x="247.4" y="167.5" class="st15" width="46.6" height="57.6"/>
				<path class="st5" d="M285.3,235.3c-5-3.6-6.2-10.5-2.7-15.5l0,0c3.6-5,10.5-6.2,15.5-2.7l6,4.2l-12.8,18.1L285.3,235.3z"/>
				<path class="st10" d="M318.4,222.9h2.9c1,0,1.9-0.8,1.9-1.9c0,0,0,0,0,0l0,0c0-1-0.8-1.9-1.9-1.9h-2.9c-1,0-1.9,0.8-1.9,1.9
					c0,0,0,0,0,0l0,0C316.6,222.1,317.4,222.9,318.4,222.9L318.4,222.9z"/>
				<path class="st10" d="M329.3,227.4L329.3,227.4c2.2,0,4-1.8,4-4v-5c0-2.2-1.8-4-4-4l0,0c-2.2,0-4,1.8-4,4v5
					C325.3,225.6,327.1,227.4,329.3,227.4z"/>
				<path class="st5" d="M278.1,215.3c-0.2,3.7-3.9,6.6-8.3,6.6s-8.3-3.1-8.3-6.9c-9.3,0.8-16.4,8.6-16.4,17.9v100.2h47.4V232.9
					C292.4,224.4,286.4,217,278.1,215.3z"/>
				<path class="st12" d="M269.8,221.9c4.5,0,8.1-2.9,8.3-6.6c-1.2-0.3-2.5-0.4-3.7-0.4H263c-0.5,0-1,0-1.5,0.1
					C261.5,218.8,265.2,221.9,269.8,221.9z"/>
				<path class="st5" d="M255.3,227.5c0.3-6.1-4.5-11.3-10.6-11.6l0,0c-6.1-0.3-11.3,4.5-11.6,10.6l-0.4,7.3l22.2,1L255.3,227.5z"/>
				<path class="st10" d="M245.4,186.4c0,2.8,2.3,5.1,5.1,5.1s5.1-2.3,5.1-5.1s-2.3-5.1-5.1-5.1
					C247.7,181.3,245.4,183.6,245.4,186.4z"/>
				<path class="st16" d="M247.4,186.4c0,1.7,1.4,3.1,3.1,3.1s3.1-1.4,3.1-3.1s-1.4-3.1-3.1-3.1S247.4,184.7,247.4,186.4
					L247.4,186.4z"/>
				<path class="st10" d="M283.8,185.6c0,2.8,2.3,5.1,5.1,5.1s5.1-2.3,5.1-5.1s-2.3-5.1-5.1-5.1c0,0,0,0,0,0
					C286.1,180.5,283.8,182.8,283.8,185.6z"/>
				<path class="st16" d="M285.8,185.6c0,1.7,1.4,3.1,3.1,3.1c1.7,0,3.1-1.4,3.1-3.1c0-1.7-1.4-3.1-3.1-3.1c0,0,0,0,0,0
					C287.2,182.5,285.8,183.9,285.8,185.6z"/>
				<path class="st10" d="M268.2,209.8L268.2,209.8c10.5,0.5,19.4-7.6,19.9-18.1l0.9-18.9c0.5-10.5-7.6-19.4-18-19.9l0,0
					c-10.5-0.5-19.5,7.6-20,18.1l-0.9,18.9C249.6,200.4,257.7,209.3,268.2,209.8z"/>
				<path class="st13" d="M275.8,188.2L275.8,188.2c0.9,0,1.7-0.8,1.7-1.7v-2.9c0-0.9-0.8-1.7-1.7-1.7l0,0c-0.9,0-1.7,0.8-1.7,1.7
					c0,0,0,0,0,0v2.9C274.1,187.4,274.9,188.2,275.8,188.2L275.8,188.2z"/>
				<path class="st13" d="M261.7,188.2L261.7,188.2c0.9,0,1.7-0.8,1.7-1.7c0,0,0,0,0,0v-2.9c0-0.9-0.8-1.7-1.7-1.7l0,0
					c-0.9,0-1.7,0.8-1.7,1.7v2.9C260,187.4,260.7,188.2,261.7,188.2z"/>
				<path class="st15" d="M280.5,181.7c-0.2,0-0.4-0.1-0.6-0.2c-5.1-3.2-7.6-1.6-7.6-1.6c-0.5,0.3-1.2,0.2-1.6-0.4
					c-0.3-0.5-0.2-1.1,0.2-1.5c0.1-0.1,3.6-2.6,10.1,1.5c0.5,0.3,0.7,1,0.4,1.5C281.3,181.5,280.9,181.7,280.5,181.7L280.5,181.7z"
					/>
				<path class="st15" d="M254.1,181.5c-0.6,0-1.2-0.5-1.2-1.1c0-0.2,0.1-0.4,0.2-0.6c0.1-0.2,2.4-3.7,10-2.3c0.6,0.1,1,0.7,0.9,1.4
					c-0.1,0.6-0.7,1-1.3,0.9c-6-1.1-7.6,1.2-7.6,1.3C254.8,181.3,254.5,181.5,254.1,181.5z"/>
				<path class="st16" d="M267.4,189.3c-1.1,0-2,0.9-2,2h3.9C269.3,190.2,268.4,189.3,267.4,189.3z"/>
				<rect x="265.8" y="207.2" class="st10" width="8.3" height="11.4"/>
				<path class="st13" d="M268.4,196.7c-1.2,0-2.2-1-2.2-2.2c0-0.3,0.1-0.5,0.2-0.8h-3.2c0,3.2,2.6,5.8,5.7,5.8c2.1,0,4-1.1,5-2.9
					c-0.2,0-0.3,0.1-0.5,0.1L268.4,196.7z"/>
				<path class="st17" d="M266.3,193.8c-0.1,0.3-0.2,0.5-0.2,0.8c0,1.2,1,2.2,2.2,2.2h5c0.2,0,0.3,0,0.5-0.1
					c0.5-0.9,0.8-1.9,0.8-2.9L266.3,193.8z"/>
				<path class="st18" d="M271.6,115.6L271.6,115.6c8.3,0,15,6.7,15,15l0,0v39.7l0,0h-30l0,0v-39.6
					C256.5,122.3,263.2,115.6,271.6,115.6C271.5,115.5,271.5,115.5,271.6,115.6z"/>
				<path class="st19" d="M268.3,154.8V150c0,0,0,0,0-0.1c-0.1-0.4-1.2-5.7-5.8-7.8c-6.6-2.9-10,2.4-17.1-1.9
					c-0.1-0.1-0.3,0-0.4,0.1c0,0.1,0,0.2,0,0.2c0.7,2,2,3.7,3.7,4.9c0.1,0.1,0.2,0.2,0.1,0.4s-0.2,0.2-0.4,0.1
					c-0.9-0.3-1.8-0.7-2.6-1.2c-0.1-0.1-0.3-0.1-0.4,0.1c-0.1,0.1-0.1,0.2,0,0.3c0.6,1.6,2.3,4.5,7.1,5.5c0.2,0,0.3,0.2,0.2,0.4
					c0,0.1-0.1,0.2-0.2,0.2c-1.3,0.3-2.6,0.3-3.8,0.2c-0.2,0-0.3,0.1-0.3,0.2c0,0.1,0,0.2,0.1,0.2c1,1.1,3.6,3.2,8.6,2.9
					c0.2,0,0.3,0.1,0.3,0.3c0,0.1-0.1,0.2-0.2,0.3c-1.7,0.7-3.6,1-5.4,0.8c-0.2,0-0.3,0.1-0.3,0.2c0,0.1,0,0.3,0.2,0.3
					c3.1,1.6,10.8,4.5,16.9-1.7C268.2,155,268.3,154.9,268.3,154.8z"/>
				<path class="st19" d="M273.2,154.8v-4.9c0.1-0.4,1.2-5.7,5.8-7.8c6.6-2.9,10,2.4,17.1-1.9c0.1-0.1,0.3,0,0.4,0.1
					c0,0.1,0,0.2,0,0.2c-0.7,2-2,3.7-3.7,4.9c-0.1,0.1-0.2,0.3-0.1,0.4c0.1,0.1,0.2,0.2,0.3,0.1c0.9-0.3,1.8-0.7,2.6-1.2
					c0.1-0.1,0.3-0.1,0.4,0c0.1,0.1,0.1,0.2,0,0.3c-0.6,1.6-2.3,4.5-7,5.5c-0.2,0-0.3,0.2-0.2,0.4c0,0.1,0.1,0.2,0.2,0.2
					c1.3,0.3,2.6,0.3,3.9,0.2c0.2,0,0.3,0.1,0.3,0.2c0,0.1,0,0.2-0.1,0.2c-1,1.1-3.6,3.2-8.6,2.9c-0.2,0-0.3,0.1-0.3,0.3
					c0,0.1,0.1,0.2,0.2,0.3c1.7,0.7,3.6,1,5.5,0.8c0.2,0,0.3,0.1,0.3,0.3c0,0.1-0.1,0.2-0.2,0.3c-3.1,1.6-10.8,4.5-16.9-1.7
					C273.2,154.9,273.2,154.9,273.2,154.8z"/>
				<polygon class="st6" points="269.1,149.5 254.6,123.2 261,115.6 271.6,149.5 				"/>
				<polygon class="st6" points="272.4,149.5 286.9,123.2 280.5,115.6 269.9,149.5 				"/>
				<path class="st6" d="M270.5,147.7c-0.6-0.9-5.1-32.1-5.1-32.1h10.4L270.5,147.7z"/>
				<path class="st5" d="M267.7,148.1L249,165.2c-2.2,2-2.3,5.3-0.3,7.5c1,1.1,2.4,1.7,3.9,1.7h37.6c2.9,0,5.3-2.4,5.3-5.3
					c0-1.5-0.6-2.9-1.7-3.9l-18.8-17.1C272.9,146.2,269.8,146.2,267.7,148.1z"/>
				<circle class="st12" cx="183.4" cy="209.6" r="4.4"/>
				<path class="st20" d="M186.3,209.6c0,1.6-1.3,2.9-2.9,2.9s-2.9-1.3-2.9-2.9c0-1.6,1.3-2.9,2.9-2.9c0,0,0,0,0,0
					C185,206.8,186.3,208,186.3,209.6C186.3,209.6,186.3,209.6,186.3,209.6z"/>
				<path class="st15" d="M188.7,303.6L188.7,303.6c-6.9,0-12.5-5.6-12.5-12.5v-25.2h12.5c6.9,0,12.5,5.6,12.5,12.5v12.7
					C201.2,298,195.6,303.6,188.7,303.6z"/>
				<path class="st21" d="M179.9,129.8h38.6c5.5,0,10,4.5,10,10.1l0,0c0,5.5-4.5,10-10,10h-38.6c-5.5,0-10-4.5-10.1-10l0,0
					C169.9,134.3,174.4,129.8,179.9,129.8z"/>
				<path class="st21" d="M189.4,145.9h24.1c7.8,0,14,6.3,14,14v50.6c0,7.8-6.3,14-14,14h-24.1c-7.8,0-14-6.3-14-14V160
					C175.4,152.2,181.7,145.9,189.4,145.9z"/>
				<path class="st20" d="M218.5,196.9c-1.7-1.9-4.6-2.1-6.6-0.4c-1.9,1.7-2.1,4.6-0.4,6.6l0,0c1.1,1.2,2.2,2.7,3.4,4.2h6.1
					c1.5,3.1,2.3,6.6,2.3,10.1v4.8c1.2,3.6,1.6,7,0.5,9.4c-0.1,0.3-0.3,0.6-0.5,0.9v11.4c4-1.6,7.2-4.7,9-8.5
					C239,220.6,220.6,199.2,218.5,196.9z"/>
				<path class="st12" d="M199.2,200.1L199.2,200.1c-2.2,0-4-1.8-4-4v-7.2c0-2.2,1.8-4,4-4l0,0c2.2,0,4,1.8,4,4v7.2
					C203.2,198.3,201.4,200.1,199.2,200.1z"/>
				<path class="st20" d="M199.1,141.7L199.1,141.7c11,0,20,8.9,20,20v8.3c0,11-8.9,20-20,20l0,0c-11,0-20-8.9-20-20v-8.3
					C179.1,150.6,188,141.7,199.1,141.7z"/>
				<circle class="st12" cx="219" cy="169.1" r="4.4"/>
				<path class="st20" d="M221.9,169.1c0,1.6-1.3,2.9-2.9,2.9c-1.6,0-2.9-1.3-2.9-2.9c0-1.6,1.3-2.9,2.9-2.9c0,0,0,0,0,0
					C220.6,166.3,221.9,167.6,221.9,169.1z"/>
				<path class="st12" d="M199.1,140.6L199.1,140.6c11,0,20,8.9,20,20v8.3c0,11-8.9,20-20,20l0,0c-11,0-20-8.9-20-20v-8.3
					C179.1,149.5,188,140.6,199.1,140.6z"/>
				<path class="st22" d="M205.5,175.9L205.5,175.9c-1.4,0-2.5-1.1-2.6-2.6v-4.7c0-1.4,1.1-2.5,2.6-2.6l0,0c1.4,0,2.5,1.1,2.6,2.6
					v4.7C208.1,174.8,206.9,175.9,205.5,175.9z"/>
				<path class="st22" d="M191.2,175.9L191.2,175.9c-1.4,0-2.5-1.1-2.5-2.6v-4.7c0-1.4,1.1-2.5,2.5-2.6l0,0c1.4,0,2.5,1.1,2.6,2.6
					v4.7C193.8,174.8,192.6,175.9,191.2,175.9z"/>
				<path class="st20" d="M197.8,175.1h-1.5c-0.1-0.8,0.5-1.6,1.3-1.7c0.8-0.1,1.6,0.5,1.7,1.3c0,0.1,0,0.2,0,0.3H197.8z"/>
				<path class="st21" d="M209.3,164.9h-7.5c-0.7,0-1.3-0.6-1.4-1.4l0,0c0-0.7,0.6-1.4,1.3-1.4h0h7.5c0.7,0,1.4,0.6,1.4,1.3v0l0,0
					C210.6,164.3,210,164.9,209.3,164.9z"/>
				<path class="st21" d="M194.1,164.9h-7.5c-0.7,0-1.3-0.6-1.4-1.4l0,0c0-0.7,0.6-1.4,1.3-1.4h0h7.5c0.7,0,1.4,0.6,1.4,1.3v0l0,0
					C195.4,164.3,194.8,164.9,194.1,164.9z"/>
				<path class="st23" d="M195.3,177.4c0,1.4,1.1,2.6,2.6,2.6c1.4,0,2.6-1.1,2.6-2.6c0,0,0,0,0,0H195.3z"/>
				<path class="st21" d="M220.7,142.5l10.4,8.5c1.8,1.5,2.1,4.2,0.6,6.1c-0.2,0.3-0.5,0.5-0.7,0.7c-7.2,5.5-16.9,6-23.4,0.7
					c-7.7-6.4-8.2-18.8-0.9-27.6c0.1-0.1,0.1-0.2,0.2-0.3L220.7,142.5z"/>
				<path class="st21" d="M187.4,143.8l12.3-8.8c4.8,6.9,3,16.3-3.8,21c-6.6,4.5-15.5,3.2-20.5-3L187.4,143.8z"/>
				<path class="st21" d="M183.4,154.2c0,3.6-2.9,6.5-6.5,6.5c-3.6,0-6.5-2.9-6.5-6.5c0-3.6,2.9-6.5,6.5-6.5c0,0,0,0,0,0
					C180.5,147.7,183.4,150.6,183.4,154.2L183.4,154.2z"/>
				<path class="st10" d="M204.1,326.7v-67.5c0.1-3.4,3-6.1,6.5-6c3.3,0.1,5.9,2.7,6,6v68.6c0,0.1,0,0.1,0,0.2l4.5,1
					c0.8,0.2,1.5,0.6,2,1.1l0.9,1c1.4,1.5,1.3,3.9-0.2,5.3c-0.7,0.6-1.6,1-2.5,1h-14.9c-2.1,0-3.7-1.7-3.7-3.7v-4
					C202.6,328.5,203.2,327.4,204.1,326.7z"/>
				<path class="st10" d="M195.1,326.7v-67.5c0-3.4-2.8-6.2-6.2-6.2c-3.4,0-6.2,2.8-6.2,6.2v68.6c0,0.1,0,0.1,0,0.2l-4.5,1
					c-0.8,0.2-1.5,0.6-2,1.1l-1,1c-1.4,1.5-1.3,3.9,0.3,5.3c0.7,0.6,1.6,1,2.5,1h14.9c2.1,0,3.7-1.7,3.7-3.7l0,0v-4
					C196.5,328.5,196,327.4,195.1,326.7z"/>
				<path class="st10" d="M199.6,193.6L199.6,193.6c-9.2,0-17.6,5.4-21.5,13.7h43C217.2,198.9,208.8,193.6,199.6,193.6z"/>
				<path class="st23" d="M200.4,242.4c0-2.6,2.1-4.6,4.6-4.6c6.9,0,15.4-0.9,18.3-5.3v-10.4c-2-5.3-4.9-10.4-8.4-14.9h-36.9
					c-1.5,3.1-2.3,6.6-2.3,10.1v46.5c0,9.3,7.5,16.9,16.9,16.9h0h13.8c9.3,0,16.9-7.5,16.9-16.9v-19.9c-4.6,2.1-10.7,3.2-18.3,3.2
					C202.5,247.1,200.4,245,200.4,242.4z"/>
				<path class="st12" d="M193.7,220.3l0.2,9.4c0.1,4.4,3.3,8.1,7.6,8.8l0.2,6.8l-3.6,2.8c0,0,1,0.7,5.1,0.6l0,0
					c4.2-0.1,5.1-0.9,5.1-0.9l-3.8-2.5l-0.2-6.9c4.2-1,7.2-4.8,7-9.1l-0.2-9.4L193.7,220.3z"/>
				<path class="st20" d="M211.3,219.9c0,0.8-3.9,1.6-8.7,1.7s-8.8-0.5-8.8-1.3s3.9-1.6,8.7-1.7S211.2,219.1,211.3,219.9z"/>
				<path class="st20" d="M205,237.8c-2.6,0.1-4.5,2.3-4.4,4.9c0.1,2.4,2,4.3,4.4,4.4c7.6,0,13.7-1.1,18.3-3.2v-11.4
					C220.4,236.8,211.9,237.8,205,237.8z"/>
				<path class="st23" d="M223.4,217.3c0-3.5-0.8-6.9-2.3-10.1H215c3.5,4.5,6.3,9.5,8.4,14.9V217.3z"/>
				<path class="st12" d="M198.6,247.5c-15.1,0-24.7-4.1-28.6-12.3c-7.1-15,9.5-36.2,11.4-38.6c1.8-2.2,5-2.5,7.2-0.8s2.5,5,0.8,7.2
					l0,0l0,0c-3.8,4.7-13.9,19.9-10.1,27.7c2.5,5.3,11.9,6.4,19.3,6.4c2.8,0,5.1,2.3,5.1,5.1S201.4,247.5,198.6,247.5L198.6,247.5
					L198.6,247.5z"/>
				<path class="st23" d="M112.1,225.3H88c-7.8,0-14-6.3-14-14v-50.6c0-7.8,6.3-14,14-14h24.1c7.8,0,14,6.3,14,14v50.6
					C126.1,219,119.8,225.3,112.1,225.3z"/>
				<path class="st13" d="M114.6,196.6c-1.8,6.9-8.9,11-15.8,9.2c-4.5-1.2-8-4.7-9.2-9.2c-7.9,4.5-12.9,12.9-12.9,22.1V351h50.7
					V218.7C127.5,209.5,122.5,201.1,114.6,196.6z"/>
				<rect x="99.1" y="188.1" class="st12" width="7.7" height="8.5"/>
				<path class="st13" d="M117,201.7c2.4-1.2,5.3-0.2,6.5,2.3c0,0,0,0,0,0c1.5,3.1,6.6,11.4,12.4,13.3v10c-0.6-0.1-1.2-0.2-1.9-0.4
					c-11.5-3-18.6-17.1-19.4-18.7C113.5,205.8,114.5,202.9,117,201.7C117,201.7,117,201.7,117,201.7z"/>
				<path class="st24" d="M77,242.8h50.3c1.7,0,3.1,1.4,3.1,3.1v0c0,1.7-1.4,3.1-3.1,3.1H77c-1.7,0-3.1-1.4-3.1-3.1v0
					C73.9,244.2,75.3,242.8,77,242.8z"/>
				<path class="st10" d="M136.5,217.5c2.3,0.6,4.4,0.1,6.8-1.6c2.2-1.6,5.3-1,6.8,1.2c1.6,2.2,1,5.3-1.2,6.8
					c-3.1,2.3-6.8,3.6-10.7,3.6c-0.8,0-1.6-0.1-2.3-0.2v-10L136.5,217.5z"/>
				<path class="st25" d="M133.4,203.6c-0.2,0-0.3,0-0.5-0.1c-0.2,1-0.2,2-0.2,3c0,6.3,3.2,12.1,8.5,15.5c0.3-1,1.3-1.7,2.3-1.7
					h10.6c1.3,0,2.4,1.1,2.4,2.4c0,0.5-0.2,1-0.5,1.4c4.8-1.4,8.8-4.6,11.2-8.9h-11.8c-2.4,0.1-4.5-1.7-4.6-4.2s1.7-4.5,4.2-4.6
					c0.1,0,0.3,0,0.4,0h1.2c-0.1-0.3-0.1-0.6-0.1-0.8l0,0c0-2.2,1.8-4,3.9-4h7.4c0.3,0,0.7,0,1,0.1c-1.1-4.3-3.8-8-7.4-10.5
					c-0.2,1.4-1.4,2.5-2.9,2.5h-16.2c-1.2,0-2.2-0.7-2.7-1.8c-2.3,1.8-4.2,4.2-5.4,6.9h11.5c1.3,0,2.3,1,2.3,2.3s-1,2.3-2.3,2.3
					L133.4,203.6z M135.4,214.8c0-0.7,0.6-1.3,1.3-1.3h3.6c0.7,0.1,1.3,0.7,1.2,1.5c-0.1,0.7-0.6,1.2-1.2,1.2h-3.6
					C136,216.1,135.4,215.5,135.4,214.8L135.4,214.8z"/>
				<path class="st26" d="M151.1,210.9c0-2.4,2-4.4,4.4-4.4h1.2c0.4,1.8,2,3.1,3.9,3.1h7.4c0.5,0,0.9-0.1,1.3-0.2
					c-0.3,2.1-1,4-2,5.9h-11.8C153,215.3,151.1,213.3,151.1,210.9z"/>
				<path class="st26" d="M169.4,207c-0.6-0.3-1.3-0.5-2-0.5h-10.8c-0.1-0.3-0.1-0.6-0.1-0.8l0,0c0-2.2,1.8-4,3.9-4h7.4
					c0.3,0,0.7,0,1,0.1c0.4,1.5,0.6,3.1,0.6,4.7C169.5,206.7,169.5,206.8,169.4,207z"/>
				<path class="st26" d="M169.4,207c0,0.8-0.1,1.6-0.2,2.4c-0.4,0.2-0.9,0.2-1.3,0.2h-7.4c-1.9,0-3.4-1.3-3.9-3.1h10.8
					C168.2,206.5,168.8,206.7,169.4,207z"/>
				<path class="st26" d="M145.8,198.9c1.3,0,2.3,1,2.3,2.3s-1,2.3-2.3,2.3h-12.4c-0.2,0-0.3,0-0.5-0.1c0.3-1.6,0.7-3.1,1.4-4.6
					H145.8z"/>
				<path class="st26" d="M158.6,193.9h-16.1c-1.2,0-2.3-0.8-2.7-1.9c6.3-4.9,15.1-5.2,21.6-0.7
					C161.3,192.8,160.1,193.9,158.6,193.9z"/>
				<path class="st26" d="M136.8,213.5h3.6c0.7,0.1,1.3,0.7,1.2,1.5c-0.1,0.7-0.6,1.2-1.2,1.2h-3.6c-0.7-0.1-1.3-0.7-1.2-1.5
					C135.6,214,136.1,213.5,136.8,213.5z"/>
				<path class="st26" d="M143.5,220.3h10.6c1.3,0,2.4,1.1,2.4,2.4c0,0.5-0.2,1-0.5,1.4c-5,1.4-10.5,0.6-14.9-2.2
					C141.5,221,142.5,220.3,143.5,220.3z"/>
				<path class="st25" d="M133.4,203.6c-0.2,0-0.3,0-0.5-0.1c-0.2,1-0.2,2-0.2,3c0,6.3,3.2,12.1,8.5,15.5c0.3-1,1.3-1.7,2.3-1.7
					h10.6c1.3,0,2.4,1.1,2.4,2.4c0,0.5-0.2,1-0.5,1.4c4.8-1.4,8.8-4.6,11.2-8.9h-11.8c-2.4,0.1-4.5-1.7-4.6-4.2s1.7-4.5,4.2-4.6
					c0.1,0,0.3,0,0.4,0h1.2c-0.1-0.3-0.1-0.6-0.1-0.8l0,0c0-2.2,1.8-4,3.9-4h7.4c0.3,0,0.7,0,1,0.1c-1.1-4.3-3.8-8-7.4-10.5
					c-0.2,1.4-1.4,2.5-2.9,2.5h-16.2c-1.2,0-2.2-0.7-2.7-1.8c-2.3,1.8-4.2,4.2-5.4,6.9h11.5c1.3,0,2.3,1,2.3,2.3s-1,2.3-2.3,2.3
					L133.4,203.6z M135.4,214.8c0-0.7,0.6-1.3,1.3-1.3h3.6c0.7,0.1,1.3,0.7,1.2,1.5c-0.1,0.7-0.6,1.2-1.2,1.2h-3.6
					C136,216.1,135.4,215.5,135.4,214.8L135.4,214.8z"/>
				<path class="st26" d="M151.1,210.9c0-2.4,2-4.4,4.4-4.4h1.2c0.4,1.8,2,3.1,3.9,3.1h7.4c0.5,0,0.9-0.1,1.3-0.2
					c-0.3,2.1-1,4-2,5.9h-11.8C153,215.3,151.1,213.3,151.1,210.9z"/>
				<path class="st26" d="M169.4,207c-0.6-0.3-1.3-0.5-2-0.5h-10.8c-0.1-0.3-0.1-0.6-0.1-0.8l0,0c0-2.2,1.8-4,3.9-4h7.4
					c0.3,0,0.7,0,1,0.1c0.4,1.5,0.6,3.1,0.6,4.7C169.5,206.7,169.5,206.8,169.4,207z"/>
				<path class="st26" d="M169.4,207c0,0.8-0.1,1.6-0.2,2.4c-0.4,0.2-0.9,0.2-1.3,0.2h-7.4c-1.9,0-3.4-1.3-3.9-3.1h10.8
					C168.2,206.5,168.8,206.7,169.4,207z"/>
				<path class="st26" d="M145.8,198.9c1.3,0,2.3,1,2.3,2.3s-1,2.3-2.3,2.3h-12.4c-0.2,0-0.3,0-0.5-0.1c0.3-1.6,0.7-3.1,1.4-4.6
					H145.8z"/>
				<path class="st26" d="M158.6,193.9h-16.1c-1.2,0-2.3-0.8-2.7-1.9c6.3-4.9,15.1-5.2,21.6-0.7
					C161.3,192.8,160.1,193.9,158.6,193.9z"/>
				<path class="st26" d="M136.8,213.5h3.6c0.7,0.1,1.3,0.7,1.2,1.5c-0.1,0.7-0.6,1.2-1.2,1.2h-3.6c-0.7-0.1-1.3-0.7-1.2-1.5
					C135.6,214,136.1,213.5,136.8,213.5z"/>
				<path class="st26" d="M143.5,220.3h10.6c1.3,0,2.4,1.1,2.4,2.4c0,0.5-0.2,1-0.5,1.4c-5,1.4-10.5,0.6-14.9-2.2
					C141.5,221,142.5,220.3,143.5,220.3z"/>
				<path class="st13" d="M90,205.3c1.6,3.5,1.1,7.9-1.1,9.9c-2.8,2.6-10.1,11.2-11,20.1l-9.9,1.2c0-0.9,0-1.9,0-2.8
					c0.9-17.4,13.6-29.7,15.1-31C85.3,200.7,88.4,201.9,90,205.3z"/>
				<path class="st10" d="M77.8,236.2c-0.1,3.5,0.8,7,2.8,9.9c1.9,3.1,2,7.7,0.1,10.2s-5,2.2-7-0.9c-2.9-4.7-4.8-9.9-5.5-15.4
					c-0.1-1.2-0.2-2.3-0.2-3.5l9.9-1.2C77.9,235.6,77.8,235.9,77.8,236.2z"/>
				<path class="st10" d="M102.1,206.2c5.9,0,11-3.9,12.5-9.6c-3.8-2.2-8.1-3.3-12.5-3.3l0,0c-4.4,0-8.7,1.1-12.5,3.3
					C91.2,202.3,96.3,206.2,102.1,206.2z"/>
				<circle class="st12" cx="123.1" cy="170.4" r="4.4"/>
				<path class="st20" d="M120.2,170.4c0,1.6,1.3,2.9,2.9,2.9c1.6,0,2.9-1.3,2.9-2.9c0-1.6-1.3-2.9-2.9-2.9c0,0,0,0,0,0
					C121.5,167.5,120.2,168.8,120.2,170.4z"/>
				<path class="st20" d="M104.2,190.6L104.2,190.6c11,0,20-9,20-20v-8.3c0-11-8.9-20-19.9-20l0,0c-11,0-20,9-20,20v8.3
					C84.2,181.7,93.1,190.6,104.2,190.6z"/>
				<path class="st12" d="M104.2,189.6L104.2,189.6c11,0,20-9,20-20v-8.4c0-11-8.9-20-19.9-20l0,0c-11,0-20,9-20,20v8.4
					C84.2,180.6,93.1,189.6,104.2,189.6z"/>
				<path class="st23" d="M80.3,157.9h39.5c6.6,0,12-5.4,12.1-12.1l0,0c0-6.6-5.4-12-12.1-12H80.3c-6.6,0-12,5.4-12,12l0,0
					C68.4,152.5,73.7,157.9,80.3,157.9z"/>
				<path class="st22" d="M101.6,174.3L101.6,174.3c1.4,0,2.5-1.1,2.6-2.5v-4.7c0-1.4-1.1-2.6-2.5-2.6h0l0,0c-1.4,0-2.6,1.1-2.6,2.6
					l0,0v4.7C99.1,173.2,100.2,174.3,101.6,174.3z"/>
				<path class="st22" d="M115.9,174.3L115.9,174.3c1.4,0,2.5-1.1,2.5-2.5v-4.7c0-1.4-1.1-2.5-2.5-2.6l0,0c-1.4,0-2.6,1.1-2.6,2.6
					l0,0v4.7C113.4,173.2,114.5,174.3,115.9,174.3z"/>
				<path class="st20" d="M109.3,173.5h1.5c-0.1-0.8-0.8-1.4-1.7-1.3c-0.7,0.1-1.2,0.6-1.3,1.3H109.3z"/>
				<path class="st23" d="M97.8,163.3h7.5c0.7,0,1.3-0.6,1.3-1.3l0,0c0-0.7-0.6-1.3-1.3-1.4h-7.5c-0.7,0-1.3,0.6-1.3,1.4l0,0
					C96.5,162.7,97.1,163.3,97.8,163.3z"/>
				<path class="st23" d="M113.1,163.3h7.5c0.7,0,1.3-0.6,1.3-1.4l0,0c0-0.7-0.6-1.3-1.3-1.4h-7.5c-0.8,0-1.4,0.6-1.4,1.4
					c0,0,0,0,0,0l0,0C111.7,162.7,112.3,163.3,113.1,163.3z"/>
				<path class="st23" d="M111.8,175.8c0,1.4-1.2,2.6-2.6,2.6c-1.4,0-2.6-1.2-2.6-2.6H111.8z"/>
				<path class="st16" d="M108.6,179.5c0-0.3,0.3-0.6,0.6-0.6c0.3,0,0.6,0.2,0.6,0.6c0,0,0,0,0,0H108.6z"/>
				<rect x="82.7" y="154" class="st23" width="6.1" height="15.4"/>
				<circle class="st12" cx="84.3" cy="170.4" r="4.4"/>
				<path class="st20" d="M81.5,170.4c0,1.6,1.3,2.9,2.9,2.9c1.6,0,2.9-1.3,2.9-2.9c0-1.6-1.3-2.9-2.9-2.9c0,0,0,0,0,0
					C82.8,167.5,81.5,168.8,81.5,170.4z"/>
				<path class="st10" d="M118.1,143.7c-4.4,0-8.2-3-10.3-7.5c-0.5-0.9-1.6-1.3-2.5-0.9c-0.4,0.2-0.7,0.5-0.9,0.9
					c-2.1,4.5-5.9,7.5-10.3,7.5c-2.6,0-5-1.1-6.9-2.8c-0.4-0.3-1-0.3-1.3,0.1c-0.1,0.2-0.2,0.4-0.2,0.6v6.1c0,3.3,2.1,6,4.6,6h32
					c2.5,0,4.6-2.7,4.6-6v-6.5c0-0.5-0.4-0.9-0.9-0.9c-0.2,0-0.5,0.1-0.6,0.3C123.4,142.5,120.8,143.7,118.1,143.7z"/>
				<path class="st16" d="M125.4,158.1H86.7c-1.4,0-2.5-1.1-2.5-2.5l0,0l0,0c0-1.4,1.1-2.5,2.5-2.5c0,0,0,0,0,0h38.7
					c1.4,0,2.5,1.1,2.5,2.5l0,0C128,156.9,126.9,158,125.4,158.1C125.5,158.1,125.5,158.1,125.4,158.1z"/>
				<path class="st10" d="M75.7,351.8c0,9.7,7.9,17.6,17.6,17.6s17.6-7.9,17.6-17.6c0,0,0,0,0,0c0-7.4-2.8-11.5-9.3-14.1
					c-2-0.8-6,0.5-8.3,0.5c-3.1,0-8.9-0.6-11.4,0.8C76.5,342,75.7,345.1,75.7,351.8z"/>
				<path class="st20" d="M92.3,367.3L92.3,367.3c0.5,0,0.8-0.4,0.8-0.9c0-0.4-0.4-0.8-0.8-0.8c0,0,0,0-0.1,0
					c-0.4,0-9.4,0.1-12.3-8.6c-0.1-0.4-0.6-0.7-1-0.5c-0.4,0.1-0.7,0.6-0.5,1.1C81.6,367.1,91.6,367.3,92.3,367.3z"/>
				<path class="st20" d="M86.9,343.3c0,0.5,1.5,0.9,3.3,0.9s3.3-0.4,3.3-0.9s-1.5-0.9-3.3-0.9S86.9,342.8,86.9,343.3z"/>
				<path class="st27" d="M93.5,342c0,0,4.8-4.8,1.7-12.7c0,0-5.8,1.2-7.5,10.7C87.7,340,88,346,93.5,342z"/>
				<path class="st28" d="M89.8,341.6c-0.1,0.2,0,0.4,0.2,0.4c0.2,0.1,0.4,0,0.5-0.1c1.8-3.4,3.2-7.1,4.2-10.9
					c0-0.2-0.1-0.4-0.3-0.4c0,0,0,0,0,0c-0.2,0-0.4,0.1-0.4,0.3c-1,3.7-2.4,7.2-4.1,10.6L89.8,341.6z"/>
				<rect x="233.9" y="357.3" class="st29" width="7.5" height="174"/>
				<path class="st12" d="M223.9,397.6c-0.8,0-1.7-0.1-2.5-0.2c-12.6-1.9-17.9-16.9-18.5-18.6c-1.2-4,1-8.2,5-9.4
					c3.9-1.2,8,0.9,9.4,4.7c1.1,3.3,4.1,8.1,6.4,8.4c1.5,0.2,5.7-1.7,11.7-10.4c2.3-3.5,7-4.4,10.4-2.1s4.4,7,2.1,10.4
					c-0.1,0.1-0.1,0.2-0.2,0.3C239.9,391.9,231.9,397.6,223.9,397.6z"/>
				<path class="st20" d="M105.5,398.9c-0.6,0-1.3,0-1.9-0.1C91,397.5,81.8,384.5,75.6,359c-0.9-4.1,1.7-8.1,5.7-9
					c3.9-0.9,7.9,1.5,8.9,5.4c4.9,20.3,10.9,27.9,14.8,28.3c2.9,0.3,8.7-3,16-13.1c3.7-5.3,7.1-10.8,9.9-16.6
					c1.9-3.7,6.4-5.2,10.1-3.3c3.6,1.8,5.1,6.1,3.5,9.8c-3.2,6.6-7,12.9-11.2,18.8C124,392.3,114.7,398.9,105.5,398.9z"/>
				<circle class="st10" cx="203" cy="295.2" r="8.5"/>
				<path class="st16" d="M208.2,295.2c0,2.9-2.3,5.2-5.2,5.2s-5.2-2.3-5.2-5.2c0-2.9,2.3-5.2,5.2-5.2
					C205.9,290,208.2,292.4,208.2,295.2L208.2,295.2z"/>
				<circle class="st10" cx="131.6" cy="295.2" r="8.5"/>
				<path class="st16" d="M136.8,295.2c0,2.9-2.3,5.2-5.2,5.2c-2.9,0-5.2-2.3-5.2-5.2c0-2.9,2.3-5.2,5.2-5.2c0,0,0,0,0,0
					C134.5,290,136.8,292.4,136.8,295.2z"/>
				<path class="st10" d="M203.1,547.7l-1.3-1.4c-0.7-0.8-1.7-1.3-2.7-1.6l-6.2-1.3c0-0.1,0-0.2,0-0.3v-44.7
					c-0.2-4.7-4.2-8.3-8.9-8.1c-4.4,0.2-7.9,3.7-8.1,8.1v43.2c-1.3,1-2,2.4-2,4v5.5c0,2.8,2.3,5.1,5.1,5.1h0h20.3
					c2.8,0,5.1-2.3,5.1-5.1C204.3,549.8,203.9,548.6,203.1,547.7z"/>
				<path class="st11" d="M192,506.8h-16.1c-0.6,0-1.2-0.5-1.2-1.2v-0.9c0-0.6,0.5-1.2,1.2-1.2H192c0.6,0,1.2,0.5,1.2,1.2v0.9
					C193.2,506.3,192.7,506.8,192,506.8z"/>
				<path class="st11" d="M192.3,526.2l-0.8,0.6c-0.6,0.4-1.4,0.3-1.9-0.3l-14.3-18.8c-0.4-0.6-0.3-1.4,0.3-1.9l0.8-0.6
					c0.6-0.4,1.4-0.3,1.9,0.3l14.3,18.8C193,525,192.9,525.8,192.3,526.2z"/>
				<path class="st11" d="M191.4,505.2l0.7,0.6c0.5,0.4,0.6,1.1,0.2,1.7L178,526.5c-0.4,0.5-1.1,0.6-1.7,0.2l-0.7-0.6
					c-0.5-0.4-0.6-1.1-0.2-1.7l14.4-19.1C190.1,504.9,190.9,504.8,191.4,505.2z"/>
				<path class="st11" d="M192.3,544.6l-0.8,0.6c-0.6,0.4-1.4,0.3-1.9-0.3l-14.3-18.8c-0.4-0.6-0.3-1.4,0.3-1.9l0.8-0.6
					c0.6-0.4,1.4-0.3,1.9,0.3l14.3,18.8C193,543.4,192.9,544.2,192.3,544.6z"/>
				<path class="st11" d="M191.5,523.7l0.8,0.6c0.6,0.4,0.7,1.3,0.3,1.9L178.3,545c-0.4,0.6-1.3,0.7-1.9,0.3l-0.8-0.6
					c-0.6-0.4-0.7-1.3-0.3-1.9l14.3-18.8C190.1,523.3,190.9,523.2,191.5,523.7z"/>
				<path class="st11" d="M199.6,555.2h-0.9c-0.6,0-1.1-0.5-1.1-1.1v-8.6c0-0.6,0.5-1.1,1.1-1.1h0.9c0.6,0,1.1,0.5,1.1,1.1v8.6
					C200.7,554.8,200.2,555.2,199.6,555.2z"/>
				<path class="st11" d="M193.6,555.3h-0.9c-0.6,0-1.1-0.5-1.1-1.1v-10c0-0.6,0.5-1.1,1.1-1.1h0.9c0.6,0,1.1,0.5,1.1,1.1v10
					C194.7,554.8,194.2,555.3,193.6,555.3z"/>
				<path class="st11" d="M192,546.1h-15.4c-0.7,0-1.2-0.5-1.2-1.2V544c0-0.7,0.5-1.2,1.2-1.2H192c0.7,0,1.2,0.5,1.2,1.2v0.9
					C193.2,545.6,192.7,546.1,192,546.1z"/>
				<path class="st11" d="M173.5,553.6h29.8c0.6,0,1.1,0.5,1.1,1.1v0.9c0,0.6-0.5,1.1-1.1,1.1h-29.8c-0.6,0-1.1-0.5-1.1-1.1v-0.9
					C172.4,554.1,172.9,553.6,173.5,553.6z"/>
				<path class="st10" d="M158.1,541.5v-43.2c0.2-4.7-3.4-8.7-8.1-8.9c-4.7-0.2-8.7,3.4-8.9,8.1c0,0.3,0,0.6,0,0.8v44.7
					c0,0.1,0,0.2,0,0.3l-6.1,1.3c-1,0.2-2,0.8-2.7,1.6l-1.3,1.4c-1.9,2.1-1.7,5.3,0.4,7.2c0.9,0.8,2.1,1.3,3.4,1.3H155
					c2.8,0,5.1-2.3,5.1-5.1l0,0v-5.5C160.1,544,159.4,542.5,158.1,541.5z"/>
				<path class="st11" d="M141.8,503.6h16.1c0.6,0,1.2,0.5,1.2,1.2v0.9c0,0.6-0.5,1.2-1.2,1.2h-16.1c-0.6,0-1.2-0.5-1.2-1.2v-0.9
					C140.6,504.1,141.2,503.6,141.8,503.6z"/>
				<path class="st11" d="M157.4,505.3l0.8,0.6c0.6,0.4,0.7,1.3,0.3,1.9l-14.3,18.8c-0.4,0.6-1.3,0.7-1.9,0.3l-0.8-0.6
					c-0.6-0.4-0.7-1.3-0.3-1.9l14.3-18.8C156,504.9,156.8,504.8,157.4,505.3z"/>
				<path class="st11" d="M158.2,526.2l-0.8,0.6c-0.6,0.4-1.4,0.3-1.9-0.3l-14.3-18.8c-0.4-0.6-0.3-1.4,0.3-1.9l0.8-0.6
					c0.6-0.4,1.4-0.3,1.9,0.3l14.3,18.8C158.9,525,158.8,525.8,158.2,526.2z"/>
				<path class="st11" d="M157.4,523.7l0.8,0.6c0.6,0.4,0.7,1.3,0.3,1.9L144.2,545c-0.4,0.6-1.3,0.7-1.9,0.3l-0.8-0.6
					c-0.6-0.4-0.7-1.3-0.3-1.9l14.3-18.8C156,523.3,156.8,523.2,157.4,523.7z"/>
				<path class="st11" d="M158.2,544.6l-0.8,0.6c-0.6,0.4-1.4,0.3-1.9-0.3l-14.3-18.8c-0.4-0.6-0.3-1.4,0.3-1.9l0.8-0.6
					c0.6-0.4,1.4-0.3,1.9,0.3l14.3,18.8C158.9,543.4,158.8,544.2,158.2,544.6z"/>
				<path class="st11" d="M134.2,543.7h0.9c0.6,0,1.1,0.5,1.1,1.1v8.6c0,0.6-0.5,1.1-1.1,1.1h-0.9c-0.6,0-1.1-0.5-1.1-1.1v-8.6
					C133.2,544.2,133.6,543.7,134.2,543.7z"/>
				<path class="st11" d="M140.2,542.8h0.9c0.6,0,1.1,0.5,1.1,1.1v9.5c0,0.6-0.5,1.1-1.1,1.1h-0.9c-0.6,0-1.1-0.5-1.1-1.1v-9.5
					C139.1,543.3,139.6,542.8,140.2,542.8z"/>
				<path class="st11" d="M141.8,542.8h15.4c0.7,0,1.2,0.5,1.2,1.2v0.9c0,0.7-0.5,1.2-1.2,1.2h-15.4c-0.7,0-1.2-0.5-1.2-1.2V544
					C140.6,543.3,141.2,542.8,141.8,542.8z"/>
				<path class="st11" d="M130,553.6h29.8c0.6,0,1.1,0.5,1.1,1.1v0.9c0,0.6-0.5,1.1-1.1,1.1H130c-0.6,0-1.1-0.5-1.1-1.1v-0.9
					C128.9,554.1,129.4,553.6,130,553.6z"/>
				<path class="st11" d="M159.6,556.7h-1c-0.7,0-1.3-0.6-1.3-1.3v-12.6c0-0.7,0.6-1.3,1.3-1.3h1c0.7,0,1.3,0.6,1.3,1.3v12.6
					C160.8,556.1,160.3,556.7,159.6,556.7z"/>
				<path class="st11" d="M173.4,541.3h1c0.7,0,1.3,0.6,1.3,1.3v12.8c0,0.7-0.6,1.3-1.3,1.3h-1c-0.7,0-1.3-0.6-1.3-1.3v-12.8
					C172.1,541.9,172.7,541.3,173.4,541.3z"/>
				<rect x="156.8" y="323.8" class="st10" width="21.8" height="21"/>
				<path class="st10" d="M167.5,356.1c8.8,0,16.9-4.9,21.1-12.6c-5.4-2.7-11.4-4.2-17.5-4.1h-7.2c-6.1,0-12.1,1.4-17.5,4.1
					C150.5,351.2,158.7,356.1,167.5,356.1z"/>
				<path class="st15" d="M191.5,345.1c-0.9-0.6-1.9-1.1-2.9-1.6c-6.3,11.7-20.8,16-32.5,9.7c-4.1-2.2-7.5-5.6-9.7-9.7
					c-2.1,1.1-4.1,2.4-6,3.8l-0.1,0.1c6.1,3.2,8.5,10.8,5.3,16.9c-3.2,6.1-10.8,8.5-16.9,5.3c0,0.3,0,0.6,0,0.9v124.6h77.8V370.5
					C206.4,360,200.5,350.7,191.5,345.1z"/>
				<path class="st10" d="M147,358.5c0-4.7-2.6-8.9-6.7-11.1c-7,5.3-11.2,13.5-11.6,22.2c6.1,3.2,13.7,0.8,16.9-5.3
					C146.5,362.5,147,360.5,147,358.5z"/>
				<path class="st23" d="M207.1,437.3h-76.8c-3.2,0-5.8-2.6-5.8-5.8l0,0c0-3.2,2.6-5.8,5.8-5.8h76.8c3.2,0,5.8,2.6,5.8,5.8l0,0
					C212.9,434.7,210.3,437.3,207.1,437.3z"/>
				<path class="st29" d="M127.1,278.9c0.1-22.2,18.1-40.2,40.3-40.3l0,0c22.2,0.1,40.2,18.1,40.3,40.3H127.1z"/>
				<path class="st29" d="M127.3,274.5h80.3l0,0v35.2c0,13.5-11,24.5-24.5,24.5c0,0,0,0,0,0h-31.2c-13.5,0-24.5-11-24.5-24.5
					L127.3,274.5L127.3,274.5z"/>
				<path class="st15" d="M145,385.5l-32-13.3l6.6-16c3.7-8.8,13.8-13,22.6-9.4l0,0c8.8,3.7,13,13.8,9.4,22.6L145,385.5z"/>
				<path class="st15" d="M222.6,372.9l-33.3,9.6l-4.8-16.6c-2.6-9.2,2.7-18.8,11.9-21.4l0,0c9.2-2.6,18.8,2.7,21.4,11.9
					L222.6,372.9z"/>
				<path class="st29" d="M246.7,357.3H227c-3.4,0-6.2-2.8-6.2-6.2l0,0c0-3.4,2.8-6.2,6.2-6.2h19.8c3.4,0,6.2,2.8,6.2,6.2l0,0
					C253,354.5,250.2,357.3,246.7,357.3C246.7,357.3,246.7,357.3,246.7,357.3z"/>
				<rect x="45.1" y="28" class="st8" width="290.4" height="482.6"/>
			</g>
		</g>
	</g>
</g>
</svg>
