<?xml version="1.0" encoding="utf-8"?>
<!-- Generator: Adobe Illustrator 25.2.3, SVG Export Plug-In . SVG Version: 6.00 Build 0)  -->
<svg version="1.1" id="Layer_1" xmlns="http://www.w3.org/2000/svg" xmlns:xlink="http://www.w3.org/1999/xlink" x="0px" y="0px"
	 viewBox="0 0 381.8 619.1" style="enable-background:new 0 0 381.8 619.1;" xml:space="preserve">
<style type="text/css">
	.st0{fill:#F4B155;}
	.st1{fill:#FFF0CC;}
	.st2{fill:#231F20;}
	.st3{clip-path:url(#SVGID_2_);}
	.st4{fill:#F4B055;}
	.st5{fill:#FFD150;}
	.st6{fill:none;}
	.st7{fill:#A4F6FF;}
	.st8{fill:#EE915B;}
	.st9{fill:#3F272D;}
	.st10{fill:#FFFFFF;}
	.st11{fill:#54323A;}
	.st12{fill:#EFC354;}
	.st13{fill:#F5B155;}
	.st14{fill:#E5A353;}
	.st15{fill:#E6E7E8;}
	.st16{fill:#E6705F;}
	.st17{fill:#D6306A;}
	.st18{fill:#DD4F65;}
	.st19{fill:#414042;}
	.st20{fill:#FFD351;}
	.st21{fill:#4A355B;}
	.st22{fill:#DC4F64;}
	.st23{fill:#E4705E;}
	.st24{fill:#D1D3D4;}
	.st25{fill:#F1F2F2;}
	.st26{fill:#939598;}
</style>
<g id="Layer_2_1_">
	<g id="Layer_1-2">
		<path class="st0" d="M381.8,23.5v572.2c0,12.9-10.9,23.5-24.4,23.5h-333C10.9,619.1,0,608.6,0,595.7V23.5C0,10.5,10.9,0,24.4,0
			h333C370.8,0,381.8,10.5,381.8,23.5z M361.3,582.1v-545c0-9.7-7.9-17.6-17.6-17.6H38c-9.7,0-17.5,7.9-17.5,17.6v545
			c0,9.7,7.9,17.5,17.5,17.5h305.7C353.4,599.6,361.3,591.8,361.3,582.1z"/>
		<path class="st1" d="M38,19.5h305.7c9.7,0,17.6,7.9,17.6,17.6v545c0,9.7-7.9,17.6-17.6,17.6H38c-9.7,0-17.6-7.9-17.6-17.6v-545
			C20.5,27.4,28.3,19.5,38,19.5z"/>
		<path class="st2" d="M131.4,549.4c-1.8-1.8-2.7-4.4-2.8-7.8c0-3.4,0.9-5.9,2.7-7.8c1.8-1.8,4.4-2.7,7.7-2.7c1.3,0,2.5,0.1,3.7,0.4
			c1,0.2,2,0.6,2.9,1.2c0.1,0.1,0.2,0.2,0.3,0.4c0,0.2-0.1,0.3-0.1,0.4l-0.8,1.4c-0.1,0.2-0.2,0.3-0.3,0.3c-0.1,0-0.3-0.1-0.4-0.2
			c-1.4-0.8-3.1-1.2-4.7-1.1c-1.9-0.1-3.8,0.6-5.2,1.9c-1.3,1.3-1.9,3.2-1.9,5.8s0.7,4.5,2,5.8c1.4,1.3,3.3,2,5.2,1.9
			c1.7,0.1,3.5-0.3,5-1.2c0.1-0.1,0.2-0.1,0.3-0.1c0.1,0,0.2,0.1,0.4,0.3l0.9,1.5c0.1,0.1,0.1,0.2,0.1,0.3c0,0.1-0.1,0.2-0.3,0.4
			c-1.5,1.1-3.8,1.6-6.9,1.6C135.8,552.1,133.3,551.2,131.4,549.4z"/>
		<path class="st2" d="M149.5,551.4c-0.2-0.2-0.3-0.5-0.2-0.8v-17.9c0-0.3,0.1-0.6,0.2-0.8c0.2-0.2,0.5-0.3,0.8-0.3h1.6
			c0.3,0,0.6,0.1,0.9,0.3c0.2,0.2,0.3,0.5,0.3,0.8v7.4h9.7v-7.4c0-0.3,0.1-0.6,0.3-0.8c0.2-0.2,0.5-0.3,0.9-0.3h1.5
			c0.3,0,0.6,0.1,0.9,0.3c0.2,0.2,0.3,0.5,0.3,0.8v17.9c0,0.3-0.1,0.6-0.2,0.8c-0.2,0.2-0.6,0.3-0.9,0.3h-1.5
			c-0.3,0-0.6-0.1-0.9-0.3c-0.2-0.2-0.3-0.5-0.3-0.8V543H153v7.6c0,0.3-0.1,0.6-0.2,0.8c-0.2,0.2-0.6,0.3-0.9,0.3h-1.6
			C150,551.7,149.7,551.6,149.5,551.4z"/>
		<path class="st2" d="M169.4,551.2c0-0.1,0-0.3,0.1-0.4l7.8-18.5c0.1-0.2,0.2-0.4,0.4-0.6c0.2-0.1,0.4-0.2,0.6-0.2h1.6
			c0.2,0,0.4,0,0.6,0.2c0.2,0.2,0.3,0.4,0.4,0.6l7.8,18.5c0.1,0.1,0.1,0.2,0.1,0.4c0,0.3-0.2,0.4-0.5,0.4h-2.6c-0.2,0-0.4,0-0.6-0.1
			c-0.1-0.1-0.2-0.3-0.3-0.4l-1.7-4.1h-8.1l-1.6,4.1c-0.1,0.2-0.2,0.3-0.3,0.4c-0.2,0.1-0.4,0.1-0.6,0.1h-2.6
			C169.5,551.6,169.4,551.5,169.4,551.2z M182.1,544.2l-3.1-7.7l-3.1,7.7L182.1,544.2z"/>
		<path class="st2" d="M191.8,551.4c-0.2-0.2-0.3-0.5-0.2-0.8v-17.9c0-0.3,0.1-0.6,0.2-0.8c0.2-0.2,0.5-0.3,0.8-0.3h7.7
			c1.9-0.1,3.7,0.4,5.2,1.6c1.3,1.2,1.9,3,1.8,4.7c0,1.3-0.3,2.5-1,3.5c-0.7,1-1.7,1.8-2.8,2.2l3.3,7.3c0.1,0.1,0.1,0.2,0.1,0.3
			c0,0.3-0.2,0.4-0.5,0.4H204c-0.2,0-0.4,0-0.6-0.1c-0.2-0.1-0.3-0.3-0.3-0.4l-3-7h-4.7v6.5c0,0.3-0.1,0.6-0.3,0.8
			c-0.2,0.2-0.6,0.3-0.9,0.3h-1.6C192.4,551.7,192.1,551.6,191.8,551.4z M199.6,541.3c1.1,0.1,2.1-0.2,3-0.8c0.7-0.7,1.1-1.6,1-2.6
			c0.1-0.9-0.2-1.9-0.9-2.6c-0.8-0.6-1.7-0.9-2.7-0.8h-4.7v6.8H199.6z"/>
		<path class="st2" d="M210.5,551.4c-0.2-0.2-0.3-0.5-0.2-0.8v-17.9c0-0.3,0.1-0.6,0.2-0.8c0.2-0.2,0.5-0.3,0.8-0.3h1.6
			c0.3,0,0.6,0.1,0.9,0.3c0.2,0.2,0.3,0.5,0.3,0.8v17.9c0,0.3-0.1,0.6-0.2,0.8c-0.2,0.2-0.6,0.3-0.9,0.3h-1.6
			C211,551.7,210.7,551.6,210.5,551.4z"/>
		<path class="st2" d="M219.5,549.3c-1.7-1.8-2.6-4.4-2.6-7.7c0-3.3,0.9-5.9,2.6-7.7c1.7-1.8,4.2-2.7,7.5-2.7c3.2,0,5.7,0.9,7.5,2.7
			c1.7,1.8,2.6,4.4,2.6,7.7s-0.9,5.9-2.6,7.7s-4.2,2.7-7.5,2.7S221.2,551.2,219.5,549.3z M231.7,547.3c2.2-3.5,2.2-7.9,0-11.5
			c-1.2-1.3-2.9-2.1-4.7-2c-1.8-0.1-3.5,0.6-4.7,2c-2.2,3.5-2.2,7.9,0,11.5c1.2,1.4,2.9,2.1,4.7,2
			C228.8,549.4,230.5,548.7,231.7,547.3L231.7,547.3z"/>
		<path class="st2" d="M243.9,551.4c-0.2-0.2-0.3-0.5-0.3-0.8v-16.1h-5.2c-0.3,0-0.6-0.1-0.8-0.2c-0.2-0.2-0.2-0.5-0.2-0.8v-0.8
			c0-0.3,0.1-0.6,0.2-0.8c0.2-0.2,0.5-0.3,0.8-0.2h14.1c0.3,0,0.6,0.1,0.8,0.2c0.2,0.2,0.3,0.5,0.2,0.8v0.8c0,0.3-0.1,0.6-0.2,0.8
			c-0.2,0.2-0.5,0.3-0.8,0.2h-5.2v16.1c0,0.3-0.1,0.6-0.2,0.8c-0.2,0.2-0.6,0.3-0.9,0.3h-1.5C244.5,551.7,244.2,551.6,243.9,551.4z"
			/>
		<g>
			<defs>
				<path id="SVGID_1_" d="M86.1,71.5h209.5c22.2,0,40.3,18,40.3,40.3v312.3c0,22.2-18,40.3-40.3,40.3H86.1
					c-22.2,0-40.3-18-40.3-40.3V111.8C45.9,89.6,63.9,71.5,86.1,71.5z"/>
			</defs>
			<clipPath id="SVGID_2_">
				<use xlink:href="#SVGID_1_"  style="overflow:visible;"/>
			</clipPath>
			<g class="st3">
				<path class="st4" d="M224.4,204.5c-1.2,0-2.2,1-2.2,2.2h4.5C226.7,205.5,225.7,204.5,224.4,204.5L224.4,204.5z"/>
				<path class="st5" d="M220.8,169.9c0,0,0,0.1,0,0.1V169.9z"/>
				<polygon class="st6" points="318.4,23.5 63.4,23.5 63.4,293.3 63.4,324.6 63.4,472.5 318.3,472.5 318.3,324.6 318.4,324.6 				
					"/>
				<rect x="43.9" y="49.4" class="st7" width="307.1" height="422.1"/>
				<rect x="43.9" y="339.7" class="st8" width="307.1" height="131.8"/>
				<path class="st9" d="M-14.5,265l87.4-35.6c15.1-6.2,32.1-6.3,47.3-0.2l65.6,25.9l67.9-29.2c10.5-5.7,23.1-6.5,34.2-2.1
					l70.1,17.3c6.4,2.5,13.5,2.4,19.9-0.2l59.3-24.6v119H-14.5V265z"/>
				<path class="st10" d="M126.5,200l-45.1-0.5c-3.2,0-5.8-2.7-5.8-5.9l0,0c0-3.2,2.7-5.8,5.9-5.8l45.1,0.5c3.2,0.1,5.8,2.7,5.8,5.9
					l0,0C132.3,197.5,129.7,200,126.5,200z"/>
				<path class="st10" d="M112.8,185.4c-0.1,8-6.7,14.4-14.6,14.3c-8-0.1-14.4-6.7-14.3-14.6c0.1-8,6.7-14.4,14.6-14.3
					C106.5,170.8,112.9,177.4,112.8,185.4z"/>
				<path class="st10" d="M124.5,189.7c-0.1,5.7-4.7,10.3-10.4,10.2c-5.7-0.1-10.3-4.7-10.2-10.4c0.1-5.7,4.7-10.3,10.4-10.2
					C120,179.3,124.6,184,124.5,189.7C124.5,189.7,124.5,189.7,124.5,189.7z"/>
				<path class="st10" d="M160.3,141.4l-27.9-0.4c-2,0-3.6-1.7-3.6-3.6l0,0c0-2,1.7-3.6,3.6-3.6l27.9,0.3c2,0,3.6,1.6,3.6,3.6
					c0,0,0,0,0,0.1l0,0C164,139.8,162.3,141.4,160.3,141.4C160.3,141.4,160.3,141.4,160.3,141.4z"/>
				<path class="st10" d="M151.9,132.3c0,4.9-4.1,8.9-9,8.9s-8.9-4.1-8.9-9c0-4.9,4.1-8.9,9-8.9c0,0,0,0,0.1,0
					C148,123.4,151.9,127.4,151.9,132.3z"/>
				<circle class="st10" cx="152.7" cy="134.9" r="6.4"/>
				<path class="st10" d="M237.8,171.8l61.1-0.7c4.4-0.1,7.8-3.6,7.8-8l0,0c-0.1-4.4-3.6-7.9-8-7.8l-61.1,0.7
					c-4.4,0.1-7.9,3.6-7.8,8l0,0C229.8,168.4,233.4,171.9,237.8,171.8z"/>
				
					<ellipse transform="matrix(0.9967 -8.141664e-02 8.141664e-02 0.9967 -11.4412 22.9653)" class="st10" cx="275.9" cy="151.8" rx="19.6" ry="19.6"/>
				<path class="st10" d="M240.4,157.8c0.1,7.7,6.4,13.9,14.1,13.9s13.9-6.4,13.9-14.1c-0.1-7.7-6.4-13.9-14.1-13.9c0,0,0,0,0,0
					C246.5,143.8,240.3,150.1,240.4,157.8z"/>
				<path class="st11" d="M-14.5,252.2l33-17.1c9.7-5,20.9-6.2,31.5-3.3l50.2,13.8l47.8-20.4c11-4.7,23.2-5.3,34.6-1.8l83.8,25.8
					l65.6-19.1c12.6-3.7,26.1-3.2,38.4,1.4l66.7,24.6v90.4H-14.5V252.2z"/>
				<polygon class="st12" points="264.1,177.1 253.5,153.3 281,160.4 				"/>
				
					<rect x="152.4" y="253.7" transform="matrix(0.2019 -0.9794 0.9794 0.2019 -54.4694 447.2871)" class="st13" width="189.6" height="6.8"/>
				<polygon class="st14" points="265.3,169.4 258.8,161.5 272.3,136.8 273.8,165.3 				"/>
				<polygon class="st13" points="265.6,167.9 258.8,161.5 272.4,136.1 273.8,165.3 				"/>
				<polygon class="st5" points="272.4,136.1 265.6,167.9 258.8,161.5 				"/>
				<path class="st15" d="M330.2,380H192c-9.9,0-17.9-8-17.9-17.9v0c0-9.9,8-17.9,17.9-17.9h138.2c9.9,0,17.9,8,17.9,17.9v0
					C348.1,372,340.1,380,330.2,380z"/>
				
					<ellipse transform="matrix(7.088900e-02 -0.9975 0.9975 7.088900e-02 -75.7952 589.867)" class="st15" cx="278.7" cy="335.6" rx="44.4" ry="44.4"/>
				
					<ellipse transform="matrix(0.9937 -0.1117 0.1117 0.9937 -37.4851 27.8732)" class="st15" cx="229.9" cy="348.4" rx="31.6" ry="31.6"/>
				<path class="st16" d="M294.3,417.5H100.8c-15.8,0-28.5-12.8-28.6-28.6l0,0c0-15.8,12.8-28.5,28.6-28.6h193.5
					c15.8,0,28.5,12.8,28.6,28.6l0,0C322.8,404.7,310.1,417.5,294.3,417.5z"/>
				<path class="st17" d="M194.5,190.3c0,0,34.4-20.5,34.9,32.9c0,0-8.4-20.6-14.8-23.7"/>
				<path class="st5" d="M215.8,197.6c0,0,11,3.5,12.6,13.3c0,0-8.9-10.9-11-10.9L215.8,197.6z"/>
				<path class="st18" d="M140.4,289.5c-0.7,0-1.3-0.6-1.3-1.3c0-0.4,0.2-0.8,0.5-1c0.2-0.1,17-13.5,16.4-28.1
					c0-0.7,0.6-1.3,1.3-1.2c0.6,0,1.2,0.5,1.2,1.1c0.7,15.9-16.6,29.6-17.4,30.2C141,289.4,140.7,289.5,140.4,289.5z"/>
				<path class="st2" d="M184.9,290.1c7.1-0.2,14.8,4.1,18,10.5c1.9,3.8,1.2,8,0.4,11.9c-0.7,3.3-1.9,8.8,2.5,10.1
					c-1.1-0.3-3.7,0.9-5.1,0.6c-4.2-0.9-7.7-3.7-9.6-7.5c-2.2-4.4-0.6-9.2-1.3-13.9c-0.3-2.2-0.9-4.4-1.7-6.5
					C187.8,294.6,185.9,290.1,184.9,290.1z"/>
				<path class="st2" d="M136.6,293.9L136.6,293.9c-2.1,0-3.8-1.7-3.8-3.8v-31.9c0-2.1,1.7-3.8,3.8-3.8l0,0c2.1,0,3.8,1.7,3.8,3.8
					v31.9C140.4,292.2,138.7,293.9,136.6,293.9z"/>
				<rect x="119.4" y="263.6" class="st19" width="16" height="41.3"/>
				<path class="st19" d="M130.1,253.3L130.1,253.3c-4-4-9.7-5.8-15.3-4.8 M114.8,248.6L114.8,248.6L114.8,248.6
					c-3.5,0.6-6.8,2.3-9.3,4.8l-7.8,7.6c0,0,0,0,0,0l3.4,4.1l0,0c0,0,0,0,0,0l18.9,22.8l0,0c0.3-0.3,0.6-0.5,0.9-0.8l9.1-9.1
					c6.8-6.8,6.8-17.8,0.1-24.7L114.8,248.6z"/>
				<path class="st2" d="M99.1,267.2c-0.8,0.8-2.2,0.8-3,0c0,0,0,0,0,0l-2-2 M94.1,265.2c-4.5,6.9-3.5,16,2.3,21.9l0,0
					c6.5,6.4,16.8,6.8,23.7,0.9 M120.1,287.9l-18.9-22.8l0,0L120.1,287.9z"/>
				<path class="st19" d="M114.5,253.2L114.5,253.2c-2.5,0-4.5-2-4.5-4.5v-9.2c0-2.5,2-4.5,4.5-4.5l0,0c2.5,0,4.5,2,4.5,4.5v9.2
					C119,251.1,117,253.2,114.5,253.2z"/>
				<path class="st2" d="M114.5,253.2L114.5,253.2c-2.5,0-4.5-2-4.5-4.5V243c0-2.5,2-4.5,4.5-4.5l0,0c2.5,0,4.5,2,4.5,4.5
					c0,0,0,0,0,0v5.6C119,251.1,117,253.1,114.5,253.2C114.5,253.2,114.5,253.2,114.5,253.2z"/>
				<path class="st2" d="M116.7,250.3c0,2.8-2.3,5.1-5.1,5.1c-2.8,0-5.1-2.3-5.1-5.1s2.3-5.1,5.1-5.1c0,0,0,0,0,0
					C114.4,245.2,116.7,247.5,116.7,250.3z"/>
				<path class="st2" d="M122.9,252.5c0,2.2-1.8,3.9-3.9,3.9c-2.2,0-3.9-1.8-3.9-3.9s1.8-3.9,3.9-3.9c0,0,0,0,0,0
					C121.1,248.6,122.9,250.3,122.9,252.5C122.9,252.5,122.9,252.5,122.9,252.5z"/>
				<path class="st2" d="M130.7,254.9c0,2.8-2.2,5-5,5c-2.8,0-5-2.2-5-5c0-2.8,2.2-5,5-5C128.5,249.9,130.7,252.2,130.7,254.9z"/>
				<path class="st2" d="M126.2,248.6c0,2.8-2.2,5-5,5s-5-2.2-5-5s2.2-5,5-5S126.2,245.8,126.2,248.6z"/>
				<path class="st19" d="M131.9,261.8L131.9,261.8c-3.1,0-5.7-2.5-5.7-5.7v-11.6c0-3.1,2.5-5.7,5.7-5.7l0,0c3.1,0,5.7,2.5,5.7,5.7
					v11.6C137.5,259.2,135,261.8,131.9,261.8z"/>
				<path class="st2" d="M131.9,261.8L131.9,261.8c-3.1,0-5.7-2.5-5.7-5.7V249c0-3.1,2.5-5.7,5.7-5.7l0,0c3.1,0,5.6,2.5,5.7,5.7v7.1
					C137.5,259.2,135,261.8,131.9,261.8z"/>
				<path class="st2" d="M94.1,265.2l2,2c0.8,0.8,2.2,0.8,3,0c0,0,0,0,0,0l2-2c0,0,0,0,0,0l-3.4-4.1 M97.7,261.1l-1.4,1.4
					c-0.8,0.8-1.6,1.8-2.2,2.8L97.7,261.1z"/>
				<path class="st2" d="M122,264.5c0,2.1-1.7,3.8-3.8,3.8s-3.8-1.7-3.8-3.8c0-2.1,1.7-3.8,3.8-3.8C120.3,260.7,122,262.4,122,264.5
					C122,264.5,122,264.5,122,264.5z"/>
				<path class="st19" d="M181.8,327.9h-49.1c-7.4,0-13.4-8.5-13.4-19v-2.9c0-10.4,6-19,12.7-18h49.1c8.1-1,14.1,7.5,14.1,18v2.9
					C195.3,319.4,189.2,327.9,181.8,327.9z"/>
				<rect x="119.1" y="302.1" class="st19" width="13.7" height="52.3"/>
				<rect x="119.1" y="353.3" class="st2" width="13.7" height="10.5"/>
				<polygon class="st19" points="195.3,304.3 182.5,318.5 182.5,353.3 195.3,353.3 				"/>
				<rect x="182.5" y="353.3" class="st2" width="12.8" height="10.5"/>
				<path class="st20" d="M135.4,288.2c0,0-8,14-16.2,14v17.2c0,0,21.3-11.2,21.3-31.1L135.4,288.2z"/>
				<path class="st20" d="M154.1,263.9c-3.1,0-5.6-2.6-5.6-5.7c0-2.9,2.3-5.3,5.2-5.6c25.1-1.9,41.2-10.6,41.4-10.7
					c2.8-1.4,6.2-0.3,7.6,2.5c1.4,2.6,0.4,5.9-2.1,7.4c-0.7,0.4-18.3,10-46,12.1L154.1,263.9z"/>
				<path class="st17" d="M197.4,260.8c5.7-1.5,9.2-7.4,7.7-13.1l0,0c-1.5-5.7-7.4-9.2-13.1-7.7l-6.9,1.8l5.4,20.9L197.4,260.8z"/>
				<path class="st13" d="M230.4,312.9h-42c-1.4,0-2.6-1.2-2.6-2.6c0,0,0,0,0,0v-47.1c0-13,10.6-23.6,23.6-23.6l0,0
					c13,0,23.6,10.6,23.6,23.6v47.1C233,311.7,231.8,312.9,230.4,312.9C230.4,312.9,230.4,312.9,230.4,312.9z"/>
				<path class="st5" d="M208.8,221.1L208.8,221.1c3.2,0,5.8,2.6,5.8,5.8v11.9c0,3.2-2.6,5.8-5.8,5.8l0,0c-3.2,0-5.8-2.6-5.8-5.8
					v-11.9C203,223.6,205.6,221.1,208.8,221.1z"/>
				<path class="st4" d="M203,238.8c0,0,6,3.4,11.6,0.1V237H203V238.8z"/>
				<path class="st5" d="M208.8,239.1L208.8,239.1c-10.6,0-19.1-8.6-19.1-19.1v-1.6c0-10.6,8.6-19.1,19.1-19.1l0,0
					c10.6,0,19.2,8.6,19.2,19.1v1.6C228,230.6,219.4,239.1,208.8,239.1z"/>
				<path class="st21" d="M199.2,223.9c0,1-0.8,1.8-1.8,1.8s-1.8-0.8-1.8-1.8s0.8-1.8,1.8-1.8h0
					C198.4,222.1,199.2,222.9,199.2,223.9z"/>
				<path class="st21" d="M207.1,230.7c1.2,0,2.2,1,2.2,2.2c0,0.3-0.1,0.6-0.2,0.8h3.3c0-3.3-2.7-5.9-6-5.9c-2.1,0-4,1.1-5,2.9
					c0.2,0,0.3-0.1,0.5-0.1H207.1z"/>
				<path class="st22" d="M209.2,233.8c0.5-1.1-0.1-2.4-1.2-2.9c-0.3-0.1-0.6-0.2-0.8-0.2H202c-0.2,0-0.3,0-0.5,0.1
					c-0.5,0.9-0.8,1.9-0.8,3H209.2z"/>
				<path class="st2" d="M199.5,224.1l-4.1-1.4c-0.6-0.2-0.9-0.8-0.7-1.4l0,0c0.2-0.6,0.8-0.9,1.4-0.7l4.1,1.4
					c0.6,0.2,0.9,0.8,0.7,1.4l0,0C200.8,224,200.1,224.3,199.5,224.1C199.5,224.2,199.5,224.2,199.5,224.1z"/>
				<path class="st21" d="M210,223.1c0,1.1,0.9,2,2,2s2-0.9,2-2s-0.9-2-2-2S210,222,210,223.1z"/>
				<path class="st2" d="M209.6,223.4l4.6-1.5c0.7-0.2,1-1,0.8-1.6l0,0c-0.2-0.7-1-1-1.6-0.8l-4.6,1.6c-0.7,0.2-1,1-0.8,1.6l0,0
					C208.2,223.3,209,223.6,209.6,223.4z"/>
				<path class="st5" d="M182,313.2L182,313.2c-0.3-3.8,2.6-7.2,6.4-7.5l19.4-1.6c3.8-0.3,7.2,2.6,7.5,6.4l0,0
					c0.3,3.8-2.6,7.2-6.4,7.5l-19.4,1.6C185.7,319.9,182.3,317,182,313.2z"/>
				<path class="st5" d="M161.4,350.2l1.4-0.9c0.8-0.5,1.7-0.7,2.6-0.7l5.5,0.3l0.1-0.2l2.6-9.2l1.9-6.8l5.9-21.5
					c1.1-3.9,5.2-6.3,9.1-5.2c3.9,1.1,6.3,5.2,5.2,9.1l0,0l-5.9,21.5l-1.9,6.8l-2.2,7.9c0.8,1.1,1.1,2.5,0.7,3.8l-1.3,4.6
					c-0.7,2.4-3.1,3.7-5.4,3.1c0,0,0,0,0,0l-17-4.7c-2.4-0.6-3.7-3.1-3.1-5.4C159.7,351.7,160.4,350.8,161.4,350.2z"/>
				<path class="st23" d="M193.2,322.2l-12.8-3.5c-0.7-0.2-1.2-1-1-1.7l0,0c0.2-0.8,1-1.2,1.7-1c0,0,0,0,0,0l12.8,3.5
					c0.7,0.2,1.2,1,1,1.7l0,0C194.7,322,193.9,322.4,193.2,322.2C193.2,322.2,193.2,322.2,193.2,322.2z"/>
				<path class="st23" d="M175.6,335.1L175.6,335.1c-0.5-0.7-0.4-1.7,0.3-2.3l15.6-11.9c0.7-0.5,1.7-0.4,2.3,0.3c0,0,0,0,0,0l0,0
					c0.5,0.7,0.4,1.7-0.3,2.3c0,0,0,0,0,0l-15.6,11.9C177.1,336,176.1,335.8,175.6,335.1z"/>
				<path class="st23" d="M189.1,338.7L189.1,338.7c0.7-0.3,1.1-1.1,0.8-1.9l-7.4-18.6c-0.3-0.7-1.1-1.1-1.9-0.8l0,0
					c-0.7,0.3-1.1,1.1-0.8,1.9c0,0,0,0,0,0l7.4,18.6C187.5,338.7,188.3,339,189.1,338.7z"/>
				<path class="st23" d="M171.3,350.5L171.3,350.5c-0.5-0.7-0.4-1.7,0.3-2.3c0,0,0,0,0,0l15.6-11.9c0.7-0.5,1.7-0.4,2.3,0.3l0,0
					c0.5,0.7,0.4,1.7-0.3,2.3l-15.6,11.9C172.9,351.4,171.9,351.3,171.3,350.5z"/>
				<path class="st23" d="M184.6,354.2L184.6,354.2c0.8-0.3,1.2-1.3,0.9-2.1l-7.2-18.2c-0.3-0.8-1.3-1.2-2.1-0.9l0,0
					c-0.8,0.3-1.2,1.3-0.9,2.1l7.2,18.2C182.9,354.2,183.8,354.6,184.6,354.2z"/>
				<path class="st23" d="M162.8,357.5L162.8,357.5c-0.7-0.2-1.1-0.9-0.9-1.6l1.8-6.5c0.2-0.7,0.9-1.1,1.6-0.9c0,0,0,0,0,0l0,0
					c0.7,0.2,1.1,0.9,0.9,1.6l-1.8,6.5C164.3,357.3,163.5,357.7,162.8,357.5z"/>
				<path class="st23" d="M167.9,358.9L167.9,358.9c-0.7-0.2-1.1-0.9-0.9-1.6l2.1-7.7c0.2-0.7,0.9-1.1,1.6-0.9l0,0
					c0.7,0.2,1.1,0.9,0.9,1.6l-2.1,7.7C169.3,358.7,168.5,359.1,167.9,358.9C167.9,358.9,167.9,358.9,167.9,358.9z"/>
				<path class="st23" d="M183.5,355l-12.1-3.4c-0.8-0.2-1.2-1-1-1.8l0,0c0.2-0.8,1-1.2,1.8-1l12.1,3.4c0.8,0.2,1.2,1,1,1.8l0,0
					C185.1,354.8,184.3,355.2,183.5,355C183.5,355,183.5,355,183.5,355z"/>
				<path class="st23" d="M159.4,357.9l24.2,6.7c0.7,0.2,1.5-0.2,1.6-0.9l0,0c0.2-0.7-0.2-1.5-0.9-1.6l-24.2-6.7
					c-0.7-0.2-1.5,0.2-1.6,0.9c0,0,0,0,0,0l0,0C158.3,356.9,158.7,357.7,159.4,357.9z"/>
				<path class="st23" d="M183.7,364.6L183.7,364.6c0.8,0.2,1.6-0.2,1.9-1c0,0,0,0,0,0l2.8-9.9c0.2-0.8-0.3-1.6-1.1-1.9l0,0
					c-0.8-0.2-1.6,0.2-1.9,1c0,0,0,0,0,0l-2.8,9.9C182.4,363.5,182.9,364.4,183.7,364.6z"/>
				<polygon class="st17" points="233.4,319.9 203.6,319.9 196.4,303 233.4,303 				"/>
				<path class="st17" d="M185.9,296.3c-1.6,0-3-1.4-3-3l0,0c0-1.6,1.4-3,3-3h46.6c1.7,0,3,1.3,3.1,3l0,0c0,1.7-1.4,3-3.1,3"/>
				<path class="st17" d="M180.5,319L180.5,319c-2.2-1.7-2.7-4.8-1.1-7.1l4.4-6c1.7-2.2,4.8-2.7,7.1-1.1c0,0,0,0,0,0l0,0
					c2.2,1.6,2.7,4.7,1.1,7c0,0,0,0.1-0.1,0.1l-4.4,6C186,320.1,182.8,320.6,180.5,319C180.5,319,180.5,319,180.5,319z"/>
				<path class="st18" d="M123.8,326.1c-0.7,0-1.3-0.6-1.3-1.3c0-0.5,0.3-1,0.8-1.2c21.2-9.1,31.7-23.2,36.7-33.5
					c5.5-11.1,6-20.1,6-20.2c0.1-0.7,0.7-1.2,1.4-1.1c0.6,0.1,1.1,0.6,1.1,1.2c0,0.4-0.5,9.6-6.2,21.2c-5.2,10.6-16.1,25.3-38,34.7
					C124.2,326,124,326.1,123.8,326.1z"/>
				<path class="st20" d="M180.9,315h112.3c7,0,12.6,5.7,12.6,12.6v38.7c0,7-5.7,12.6-12.6,12.6H180.9c-7,0-12.6-5.7-12.6-12.6
					v-38.7C168.3,320.7,174,315,180.9,315z"/>
				<path class="st20" d="M305.9,265.6h-7.8c-35.9,0-65,29.1-65,65l0,0h72.8V265.6z"/>
				<path class="st18" d="M237.9,329.1c-21.4,0-38.7,17.3-38.7,38.7c0,21.4,17.3,38.7,38.7,38.7s38.7-17.3,38.7-38.7
					S259.3,329.1,237.9,329.1C237.9,329.1,237.9,329.1,237.9,329.1z M237.9,393.5c-14.2,0-25.7-11.5-25.7-25.7
					c0-14.2,11.5-25.7,25.7-25.7c14.2,0,25.7,11.5,25.7,25.7c0,0,0,0,0,0C263.6,382,252.1,393.5,237.9,393.5
					C237.9,393.5,237.9,393.5,237.9,393.5L237.9,393.5z"/>
				
					<ellipse transform="matrix(0.2917 -0.9565 0.9565 0.2917 -183.3192 488.1148)" class="st6" cx="237.9" cy="367.8" rx="25.7" ry="25.7"/>
				
					<ellipse transform="matrix(0.9971 -7.567485e-02 7.567485e-02 0.9971 -27.1556 19.0582)" class="st18" cx="237.9" cy="367.9" rx="11.7" ry="11.7"/>
				<path class="st20" d="M174,379h-23.4v-78.8c0-12.9,10.5-23.4,23.4-23.4l0,0V379z"/>
				<path class="st24" d="M169.6,326.8c7.3-0.2,15.2,4.3,18.6,10.8c2,3.9,1.2,8.2,0.4,12.3c-0.7,3.4-1.9,9,2.6,10.4
					c-1.1-0.3-3.8,0.9-5.3,0.6c-4.3-0.9-7.9-3.8-9.9-7.8c-2.2-4.6-0.6-9.5-1.3-14.3c-0.3-2.3-0.9-4.5-1.7-6.6
					C172.6,331.4,170.8,326.8,169.6,326.8z"/>
				<path class="st24" d="M119.9,330.7L119.9,330.7c-2.2,0-4-1.8-4-3.9v-32.9c0-2.2,1.8-4,4-4l0,0c2.2,0,3.9,1.8,3.9,4v32.9
					C123.8,328.9,122.1,330.7,119.9,330.7z"/>
				<rect x="102.2" y="299.4" class="st25" width="16.5" height="42.6"/>
				<path class="st25" d="M113.2,288.9L113.2,288.9c-4.1-4.1-10-6-15.8-5 M97.5,283.9L97.5,283.9L97.5,283.9c-3.6,0.6-7,2.4-9.6,5
					l-7.9,7.9l0,0l3.4,4.1c0,0,0,0,0.1,0l0,0l0,0l19.5,23.5l0,0c0.3-0.3,0.6-0.6,0.9-0.9l9.4-9.4c7-7,7-18.3,0-25.4L97.5,283.9z"/>
				<path class="st24" d="M81.3,303.2c-0.8,0.8-2.2,0.8-3.1,0l-2.1-2.1 M76.1,301.1c-4.6,7.1-3.6,16.5,2.4,22.5l0,0
					c6.7,6.6,17.3,7,24.5,0.9l0,0l-19.5-23.5L76.1,301.1z"/>
				<path class="st25" d="M97.1,288.7L97.1,288.7c-2.6,0-4.6-2.1-4.6-4.6v-9.5c0-2.5,2.1-4.6,4.6-4.6l0,0c2.6,0,4.6,2.1,4.6,4.6v9.5
					C101.7,286.6,99.6,288.7,97.1,288.7z"/>
				<path class="st26" d="M97.1,288.7L97.1,288.7c-2.6,0-4.6-2.1-4.6-4.6v-5.8c0-2.6,2.1-4.6,4.6-4.6l0,0c2.6,0,4.6,2.1,4.6,4.6v5.8
					C101.7,286.6,99.7,288.7,97.1,288.7z"/>
				<path class="st24" d="M99.3,285.8c0,2.9-2.4,5.2-5.2,5.2s-5.2-2.4-5.2-5.2s2.4-5.2,5.2-5.2l0,0C97,280.5,99.3,282.9,99.3,285.8z
					"/>
				<path class="st24" d="M105.8,288c0,2.2-1.8,4.1-4.1,4.1s-4.1-1.8-4.1-4.1c0-2.2,1.8-4.1,4.1-4.1c0,0,0,0,0,0
					C104,283.9,105.8,285.8,105.8,288z"/>
				<path class="st24" d="M113.9,290.5c0,2.9-2.3,5.2-5.2,5.2c-2.9,0-5.2-2.3-5.2-5.2c0-2.9,2.3-5.2,5.2-5.2c0,0,0,0,0,0
					C111.5,285.3,113.9,287.6,113.9,290.5L113.9,290.5z"/>
				<path class="st24" d="M109.2,284c0,2.9-2.3,5.2-5.2,5.2c-2.9,0-5.2-2.3-5.2-5.2c0-2.9,2.3-5.2,5.2-5.2c0,0,0,0,0,0
					C106.9,278.8,109.2,281.1,109.2,284C109.2,284,109.2,284,109.2,284z"/>
				<path class="st25" d="M115.1,297.5L115.1,297.5c-3.2,0-5.8-2.6-5.8-5.8v-11.9c0-3.2,2.6-5.8,5.8-5.8l0,0c3.2,0,5.8,2.6,5.8,5.8
					v11.9C120.9,294.9,118.3,297.5,115.1,297.5z"/>
				<path class="st26" d="M115.1,297.5L115.1,297.5c-3.2,0-5.8-2.6-5.8-5.8v-7.3c0-3.2,2.6-5.8,5.8-5.8l0,0c3.2,0,5.8,2.6,5.8,5.8
					v7.3C120.9,294.9,118.3,297.5,115.1,297.5z"/>
				<path class="st24" d="M76.1,301.1l2.1,2.1c0.8,0.8,2.2,0.8,3.1,0l2.1-2.1 M83.4,301l-3.5-4.2h-0.1l-1.4,1.4
					c-0.9,0.9-1.6,1.8-2.3,2.8L83.4,301z"/>
				<path class="st19" d="M104.8,300.3c0,2.1-1.7,3.9-3.9,3.9s-3.9-1.7-3.9-3.9c0-2.1,1.7-3.9,3.9-3.9
					C103.1,296.4,104.8,298.2,104.8,300.3L104.8,300.3z"/>
				<path class="st25" d="M166.5,365.8h-50.6c-7.6,0-12.5-8.4-12.5-19.1v-3.2c0-10.8,4.8-19.7,11.7-18.6h50.6
					c8.4-1,14.6,7.8,14.6,18.5v2.9C180.4,357,174.2,365.8,166.5,365.8z"/>
				<polygon class="st25" points="116,339.2 102.3,339 101.9,393 116,393 				"/>
				<rect x="101.9" y="391.9" class="st24" width="14.1" height="10.9"/>
				<polygon class="st25" points="180.4,341.4 167.2,356 167.2,391.9 180.4,391.9 				"/>
				<rect x="167.2" y="391.9" class="st24" width="13.1" height="10.9"/>
				<path class="st20" d="M118.6,324.8c0,0-8.2,14.4-16.7,14.4V357c0,0,22-11.6,22-32.3L118.6,324.8z"/>
				<path class="st20" d="M167.2,274.3c-3.6,0-6.4-2.9-6.4-6.5c0-3.3,2.6-6.1,5.9-6.4c25.1-1.9,40.9-10.5,41-10.6
					c3.1-1.7,7-0.6,8.7,2.5c1.7,3.1,0.6,7-2.5,8.7c-0.7,0.4-18.4,10.1-46.4,12.2L167.2,274.3z"/>
				<path class="st17" d="M216.7,268.2c6.7-0.9,11.5-7.1,10.6-13.8l0,0c-0.9-6.7-7.1-11.5-13.8-10.6l-8,1l3.2,24.4L216.7,268.2z"/>
				<path class="st13" d="M191.9,218.4c3.3,1.8,7.1-1.3,7.1-1.3c2.1,2.3,4.1,9.7,4.1,9.7l5.1-10.7c3.1,2.2,7.3,1.6,9.8-1.3
					c0,0,1.5,9.6-3.9,12.2c0,0,0.8,10.5-4.1,13.9c0,0,19.2-0.2,19.2-15.2l0.6-10.8c0,0-0.7-15.9-23.8-17.4c0,0-17.5,1.4-18.5,16.7
					c0,0,5.2,17.2,0,22.8c0,0,9.4,3.5,12.6,1c0,0-5.1-5.9-4.2-11.2C196,226.9,191.2,223.1,191.9,218.4"/>
				<path class="st17" d="M203.5,216.4c0,0,4.7-14.9,13-16.8c0,0-2.5-8.7-7.3-11.9c-3.8-2.6-9.2-0.4-14.7,2.6
					C194.5,190.3,202.2,199.7,203.5,216.4z"/>
				<path class="st5" d="M203,212.5c0,0,2.8-11.1,12.7-14.9l1.7,2.4c0,0-10.4,7.8-13.9,17.1l-2-5l1.1-2.3L203,212.5z"/>
				<path class="st17" d="M213.1,240.4c0,0,59.6-7,101.4,31.2c0,0-16.5,7.6-12.5,25.9c0,0,4.5,11.4-24.1,15c0,0-14.5,1.5-13.1,12.9
					c0,0-7.9-66.3-35.2-76.6c-0.5-0.2-1-0.4-1.4-0.6L213.1,240.4z"/>
				<path class="st10" d="M241.2,405.8h138.2c9.8,0,17.8-8,17.9-17.9l0,0c0-9.9-8-17.8-17.9-17.9H241.2c-9.9,0-17.8,8-17.9,17.9l0,0
					C223.4,397.8,231.3,405.7,241.2,405.8z"/>
				
					<ellipse transform="matrix(0.9867 -0.1625 0.1625 0.9867 -54.3573 58.0704)" class="st10" cx="327.9" cy="361.4" rx="44.4" ry="44.4"/>
				<circle class="st10" cx="279.1" cy="374.2" r="31.6"/>
				<rect x="43.9" y="49.4" class="st6" width="254.1" height="422.1"/>
				<path class="st18" d="M237.9,329.1c-21.4,0-38.7,17.3-38.7,38.7c0,21.4,17.3,38.7,38.7,38.7s38.7-17.3,38.7-38.7
					S259.3,329.1,237.9,329.1C237.9,329.1,237.9,329.1,237.9,329.1z M237.9,393.5c-14.2,0-25.7-11.5-25.7-25.7
					c0-14.2,11.5-25.7,25.7-25.7c14.2,0,25.7,11.5,25.7,25.7c0,0,0,0,0,0C263.6,382,252.1,393.5,237.9,393.5
					C237.9,393.5,237.9,393.5,237.9,393.5L237.9,393.5z"/>
				
					<ellipse transform="matrix(0.9971 -7.567485e-02 7.567485e-02 0.9971 -27.1556 19.0582)" class="st18" cx="237.9" cy="367.9" rx="11.7" ry="11.7"/>
			</g>
		</g>
	</g>
</g>
</svg>
