<?xml version="1.0" encoding="utf-8"?>
<!-- Generator: Adobe Illustrator 25.2.3, SVG Export Plug-In . SVG Version: 6.00 Build 0)  -->
<svg version="1.1" id="Layer_1" xmlns="http://www.w3.org/2000/svg" xmlns:xlink="http://www.w3.org/1999/xlink" x="0px" y="0px"
	 viewBox="0 0 381.8 619.1" style="enable-background:new 0 0 381.8 619.1;" xml:space="preserve">
<style type="text/css">
	.st0{fill:#F4B155;}
	.st1{fill:#FFF0CC;}
	.st2{fill:#231F20;}
	.st3{fill:#54323A;}
	.st4{clip-path:url(#SVGID_2_);}
	.st5{fill:#6B3D46;}
	.st6{fill:#FFD150;}
	.st7{fill:#A4F6FF;}
	.st8{fill:#2B3251;}
	.st9{fill:#FFFFFF;}
	.st10{fill:#D86256;}
	.st11{fill:#F5B155;}
	.st12{fill:#FFD351;}
	.st13{fill:none;}
	.st14{fill:#E6705F;}
	.st15{fill:#DD4F65;}
	.st16{fill:#4A355B;}
	.st17{fill:#3F352F;}
	.st18{fill:#47372E;}
	.st19{fill:#F4B055;}
	.st20{fill:#2A140C;}
	.st21{fill:#EB8F03;}
	.st22{fill:#EFC865;}
	.st23{fill:#FAD979;}
	.st24{fill:#FCE6A5;}
	.st25{fill:#B99017;}
	.st26{fill:#FBE591;}
	.st27{fill:#562602;}
	.st28{fill:#9B4307;}
	.st29{fill:#C78B5F;}
	.st30{fill:#EE915B;}
	.st31{fill:#F1F2F2;}
</style>
<g id="Layer_2_1_">
	<g id="Layer_1-2">
		<path class="st0" d="M381.8,23.5v572.2c0,12.9-10.9,23.5-24.4,23.5h-333C10.9,619.1,0,608.6,0,595.7V23.5C0,10.5,10.9,0,24.4,0
			h333C370.8,0,381.8,10.5,381.8,23.5z M361.3,582.1v-545c0-9.7-7.9-17.6-17.6-17.6H38c-9.7,0-17.5,7.9-17.5,17.6v545
			c0,9.7,7.9,17.5,17.5,17.5h305.7C353.4,599.6,361.3,591.8,361.3,582.1z"/>
		<path class="st1" d="M38,19.5h305.7c9.7,0,17.6,7.9,17.6,17.6v545c0,9.7-7.9,17.6-17.6,17.6H38c-9.7,0-17.6-7.9-17.6-17.6v-545
			C20.5,27.4,28.3,19.5,38,19.5z"/>
		<path class="st2" d="M121.8,554.7c-1.1-0.2-2.2-0.7-3.2-1.3c-0.3-0.2-0.4-0.3-0.4-0.5c0-0.1,0-0.3,0.1-0.4l1-1.5
			c0.1-0.2,0.2-0.3,0.3-0.3c0.1,0,0.3,0.1,0.4,0.2c0.8,0.4,1.7,0.8,2.5,1c1,0.3,1.9,0.4,2.9,0.4c1,0.1,2.1-0.2,3-0.7
			c1.1-0.9,1.3-2.4,0.6-3.5c-0.3-0.4-0.7-0.7-1.1-0.9c-0.5-0.3-1.3-0.6-2.4-1l-0.7-0.3c-1.1-0.4-2.1-0.9-3.2-1.5
			c-0.8-0.5-1.5-1.1-2.1-1.8c-0.6-0.8-0.9-1.8-0.8-2.8c-0.1-1.6,0.7-3.2,2-4.1c1.6-1,3.5-1.5,5.4-1.5c1.2,0,2.4,0.1,3.5,0.4
			c0.9,0.2,1.8,0.6,2.6,1.2c0.2,0.2,0.4,0.3,0.4,0.5c0,0.1,0,0.2-0.1,0.3l-0.9,1.5c-0.1,0.2-0.2,0.3-0.3,0.3c-0.1,0-0.3-0.1-0.4-0.2
			c-1.4-0.8-3-1.3-4.7-1.2c-1-0.1-2,0.2-2.8,0.7c-0.7,0.5-1,1.3-0.9,2.2c0,0.5,0.1,1,0.4,1.5c0.3,0.4,0.7,0.7,1.2,0.9
			c0.5,0.3,1.3,0.6,2.5,1l0.7,0.3c1.2,0.4,2.3,1,3.4,1.6c0.8,0.4,1.4,1.1,1.9,1.8c0.5,0.8,0.7,1.8,0.7,2.8c0.1,1.6-0.6,3.1-1.9,4
			c-1.6,1.1-3.5,1.6-5.4,1.5C124.5,555.1,123.1,555,121.8,554.7z"/>
		<path class="st2" d="M140.6,554.5c-0.2-0.2-0.3-0.5-0.3-0.8v-16.1h-5.2c-0.3,0-0.6,0-0.8-0.2c-0.2-0.2-0.2-0.5-0.2-0.8v-0.8
			c0-0.3,0.1-0.6,0.2-0.8c0.2-0.2,0.5-0.3,0.8-0.2h14.1c0.3,0,0.6,0.1,0.8,0.2c0.2,0.2,0.3,0.5,0.2,0.8v0.8c0.1,0.5-0.2,0.9-0.7,1
			c-0.1,0-0.2,0-0.4,0h-5.2v16.1c0,0.3-0.1,0.6-0.2,0.8c-0.2,0.2-0.6,0.3-0.9,0.3h-1.5C141.2,554.7,140.9,554.6,140.6,554.5z"/>
		<path class="st2" d="M152.9,554.5c-0.2-0.2-0.3-0.5-0.2-0.8v-17.9c0-0.3,0.1-0.6,0.2-0.8c0.2-0.2,0.5-0.3,0.8-0.3h7.7
			c1.9-0.1,3.7,0.4,5.2,1.6c1.3,1.2,1.9,3,1.8,4.7c0,1.3-0.3,2.5-1,3.5c-0.7,1-1.7,1.8-2.8,2.2l3.3,7.3c0.1,0.1,0.1,0.2,0.1,0.3
			c0,0.3-0.2,0.5-0.5,0.5H165c-0.2,0-0.4,0-0.6-0.1c-0.2-0.1-0.3-0.3-0.3-0.4l-3-7h-4.8v6.5c0.1,0.5-0.3,1-0.8,1.1
			c-0.1,0-0.2,0-0.3,0h-1.6C153.4,554.7,153.1,554.6,152.9,554.5z M160.7,544.4c1.1,0.1,2.1-0.2,3-0.8c0.7-0.7,1.1-1.6,1-2.6
			c0.1-0.9-0.2-1.9-0.9-2.6c-0.8-0.6-1.7-0.9-2.7-0.8h-4.7v6.8H160.7z"/>
		<path class="st2" d="M171.6,554.5c-0.2-0.2-0.3-0.5-0.2-0.8v-17.9c0-0.3,0.1-0.6,0.2-0.8c0.2-0.2,0.5-0.3,0.8-0.3h12.3
			c0.3,0,0.6,0.1,0.8,0.2c0.2,0.2,0.2,0.5,0.2,0.8v0.8c0,0.3,0,0.6-0.2,0.8c-0.2,0.2-0.5,0.3-0.8,0.2h-9.6v5.7h7
			c0.5-0.1,0.9,0.2,1,0.6c0,0.1,0,0.2,0,0.4v0.7c0,0.3-0.1,0.6-0.2,0.8c-0.2,0.2-0.5,0.3-0.8,0.3h-7v5.8h9.6c0.3,0,0.6,0.1,0.8,0.2
			c0.2,0.2,0.3,0.5,0.2,0.8v0.8c0,0.3-0.1,0.6-0.2,0.8c-0.2,0.2-0.5,0.3-0.8,0.2h-12.2C172.1,554.7,171.8,554.6,171.6,554.5z"/>
		<path class="st2" d="M188.6,554.5c-0.2-0.2-0.3-0.5-0.2-0.8v-17.9c0-0.3,0.1-0.6,0.2-0.8c0.2-0.2,0.6-0.3,0.9-0.3h1.4
			c0.2,0,0.4,0,0.6,0.1c0.2,0.1,0.4,0.3,0.5,0.5l9.7,13.5v-13c0-0.3,0.1-0.6,0.2-0.8c0.2-0.2,0.5-0.3,0.8-0.3h1.6
			c0.3,0,0.6,0.1,0.9,0.3c0.2,0.2,0.3,0.5,0.3,0.8v17.9c0.1,0.5-0.3,1-0.8,1.1c-0.1,0-0.2,0-0.3,0h-1.4c-0.2,0-0.4,0-0.6-0.1
			c-0.2-0.1-0.3-0.3-0.5-0.5l-9.7-13.5v13c0.1,0.5-0.3,1-0.8,1.1c-0.1,0-0.2,0-0.3,0h-1.6C189.1,554.8,188.8,554.7,188.6,554.5z"/>
		<path class="st2" d="M211.1,552.5c-1.8-1.8-2.7-4.4-2.7-7.8c0-3.3,0.9-5.9,2.8-7.7s4.4-2.7,7.7-2.7c1.3,0,2.5,0.1,3.8,0.4
			c1,0.2,2,0.6,2.9,1.2c0.1,0.1,0.2,0.2,0.3,0.4c0,0.1,0,0.2-0.1,0.3l-0.9,1.5c-0.1,0.2-0.2,0.3-0.4,0.3c-0.1,0-0.3-0.1-0.4-0.2
			c-1.5-0.8-3.1-1.2-4.8-1.1c-1.9-0.1-3.8,0.6-5.3,1.9c-1.3,1.3-1.9,3.2-1.9,5.8s0.6,4.5,1.9,5.8c1.4,1.3,3.2,2,5.1,1.9
			c0.8,0,1.5-0.1,2.3-0.2c0.6-0.1,1.3-0.3,1.8-0.5v-5.5h-3.9c-0.3,0-0.6-0.1-0.8-0.2c-0.2-0.2-0.3-0.5-0.2-0.8v-0.8
			c0-0.3,0.1-0.6,0.2-0.8c0.2-0.2,0.5-0.2,0.8-0.2h6.2c0.3,0,0.7,0.1,0.9,0.3c0.2,0.3,0.3,0.6,0.3,1v7.8c0,0.2,0,0.4-0.1,0.7
			c-0.1,0.2-0.2,0.3-0.4,0.4c-2.3,1.2-4.8,1.8-7.4,1.7C215.5,555.2,212.9,554.2,211.1,552.5z"/>
		<path class="st2" d="M233.8,554.5c-0.2-0.2-0.3-0.5-0.3-0.8v-16.1h-5.2c-0.3,0-0.6,0-0.8-0.2c-0.2-0.2-0.2-0.5-0.2-0.8v-0.8
			c0-0.3,0.1-0.6,0.2-0.8c0.2-0.2,0.5-0.3,0.8-0.2h14.1c0.3,0,0.6,0.1,0.8,0.2c0.2,0.2,0.3,0.5,0.2,0.8v0.8c0,0.3-0.1,0.6-0.2,0.8
			c-0.2,0.2-0.5,0.3-0.8,0.2h-5.2v16.1c0,0.3-0.1,0.6-0.2,0.8c-0.2,0.2-0.6,0.3-0.9,0.3h-1.5C234.3,554.7,234,554.7,233.8,554.5z"/>
		<path class="st2" d="M246.1,554.5c-0.2-0.2-0.3-0.5-0.2-0.8v-17.9c0-0.3,0.1-0.6,0.2-0.8c0.2-0.2,0.5-0.3,0.9-0.3h1.6
			c0.3,0,0.6,0.1,0.9,0.3c0.2,0.2,0.3,0.5,0.3,0.8v7.4h9.7v-7.4c0-0.3,0.1-0.6,0.3-0.8c0.2-0.2,0.5-0.3,0.9-0.3h1.5
			c0.3,0,0.6,0.1,0.9,0.3c0.2,0.2,0.3,0.5,0.3,0.8v17.9c0,0.3-0.1,0.6-0.2,0.8c-0.2,0.2-0.6,0.3-0.9,0.3h-1.5
			c-0.3,0-0.6-0.1-0.9-0.3c-0.2-0.2-0.3-0.5-0.3-0.8v-7.6h-9.7v7.6c0.1,0.5-0.3,1-0.8,1.1c-0.1,0-0.2,0-0.3,0h-1.6
			C246.6,554.8,246.3,554.7,246.1,554.5z"/>
		<path class="st3" d="M86.1,71.3h209.5c22.2,0,40.3,18,40.3,40.3v312.3c0,22.2-18,40.3-40.3,40.3H86.1c-22.2,0-40.3-18-40.3-40.3
			V111.5C45.9,89.3,63.9,71.3,86.1,71.3z"/>
		<g>
			<defs>
				<path id="SVGID_1_" d="M86.1,71.3h209.5c22.2,0,40.3,18,40.3,40.3v312.3c0,22.2-18,40.3-40.3,40.3H86.1
					c-22.2,0-40.3-18-40.3-40.3V111.5C45.9,89.3,63.9,71.3,86.1,71.3z"/>
			</defs>
			<clipPath id="SVGID_2_">
				<use xlink:href="#SVGID_1_"  style="overflow:visible;"/>
			</clipPath>
			<g class="st4">
				<rect x="42.7" y="55.9" class="st3" width="299.7" height="497.9"/>
				<polygon class="st5" points="42.7,422.4 222,225.7 308.8,225.7 343.5,422.4 343.5,555.5 42.7,555.5 				"/>
				<path class="st6" d="M265.8,107.4L265.8,107.4c23.8,0,43.1,19.3,43.1,43.1l0,0v77.3l0,0h-86.2l0,0v-77.3
					C222.7,126.7,242,107.4,265.8,107.4C265.8,107.4,265.8,107.4,265.8,107.4z"/>
				<path class="st7" d="M265.8,107.4L265.8,107.4c23.8,0,43.1,19.3,43.1,43.1l0,0V172l0,0h-86.2l0,0v-21.6
					C222.7,126.7,242,107.4,265.8,107.4L265.8,107.4L265.8,107.4z"/>
				<rect x="42.7" y="422.4" class="st5" width="300.9" height="133.1"/>
				
					<rect x="127" y="362.9" transform="matrix(0.4932 -0.8699 0.8699 0.4932 -246.2424 312.7283)" class="st8" width="36.6" height="9.6"/>
				
					<rect x="140.1" y="363.1" transform="matrix(0.4932 -0.8699 0.8699 0.4932 -252.9501 312.9638)" class="st8" width="4" height="21"/>
				
					<rect x="47.3" y="425" transform="matrix(0.4932 -0.8699 0.8699 0.4932 -318.0529 313.5832)" class="st9" width="125.6" height="9.6"/>
				<polygon class="st9" points="83.3,486.8 71.6,497.6 74.9,482 				"/>
				<path class="st8" d="M282.8,495.5H161.3c-4.8,0-8.7-3.9-8.7-8.7l0,0c0-4.8,3.9-8.7,8.7-8.7h121.5c4.8,0,8.7,3.9,8.7,8.7l0,0
					C291.5,491.6,287.6,495.5,282.8,495.5z"/>
				<ellipse class="st10" cx="223.1" cy="353.2" rx="40" ry="3.7"/>
				<path class="st11" d="M246.7,314c-1.9,0-3.1-0.1-3.3-0.1c-4.4-0.4-7.7-4.2-7.3-8.7c0.4-4.4,4.2-7.7,8.7-7.3l0,0
					c0.2,0,19.6,1.4,32.5-10.6c8.1-7.5,12.2-19,12.2-34.1c0-4.4,3.6-8,8-8c4.4,0,8,3.6,8,8c0,19.9-5.9,35.3-17.5,46
					C273.4,312.5,254.3,314,246.7,314z"/>
				<path class="st6" d="M231.3,465.1v-123c0.2-6.3,5.4-11.2,11.7-11c6,0.2,10.8,5,11,11v125.1c0,0.1,0,0.2,0,0.4l8.2,1.8
					c1.4,0.3,2.6,1,3.6,2.1l1.7,1.9c2.5,2.8,2.3,7.1-0.5,9.6c-1.2,1.1-2.9,1.8-4.5,1.8h-27.2c-3.8,0-6.8-3-6.8-6.8l0,0v-7.4
					C228.6,468.4,229.6,466.4,231.3,465.1z"/>
				<path class="st6" d="M214.9,465.1v-123c-0.2-6.3-5.4-11.2-11.7-11c-6,0.2-10.8,5-11,11v125.1c0,0.1,0,0.2,0,0.4l-8.3,1.8
					c-1.4,0.3-2.6,1-3.6,2.1l-1.7,1.9c-2.5,2.8-2.3,7.1,0.5,9.6c1.2,1.1,2.9,1.8,4.5,1.8h27.1c3.8,0,6.8-3,6.8-6.8l0,0v-7.4
					C217.5,468.4,216.5,466.4,214.9,465.1z"/>
				<circle class="st11" cx="247.7" cy="295" r="22.1"/>
				<path class="st12" d="M253.9,294c-5.9-11.7-17.9-19.1-31-19.2l0,0c-19.1,0.1-34.6,15.6-34.6,34.7v73.1c0,2.2,1.8,4,4,4h61.3
					c2.2,0,4-1.8,4-4v-73.1C257.6,304.1,256.3,298.8,253.9,294z"/>
				
					<ellipse transform="matrix(0.7071 -0.7071 0.7071 0.7071 -155.465 217.463)" class="st12" cx="184.8" cy="296.4" rx="20.8" ry="20.8"/>
				<path class="st13" d="M257.6,314.3v5.8C257.7,318.2,257.7,316.2,257.6,314.3z"/>
				<path class="st12" d="M187.6,315.9c-12.8-0.1-25-5.3-33.9-14.5c-15.6-16.1-21-43.4-16.2-80.9c0.6-4.8,5-8.1,9.7-7.5
					s8.1,5,7.5,9.7l0,0c-4.1,31.4-0.2,54.4,11.2,66.4c5.8,6.2,13.9,9.6,22.4,9.4h-0.1l1.6,17.3C189.1,315.9,188.3,315.9,187.6,315.9
					z"/>
				<path class="st14" d="M172.9,258.9c-3.4,9.3-9,17.7-16.5,24.3c-6.8,6-14.7,10.6-21,17c-0.2,0.2-0.5,0.4-0.7,0.6
					c-1.1,0.4-3.7-1.3-4.8-1.7c-2.3-0.9-4.6-1.8-6.8-2.9c-4.3-1.9-8.3-4.4-12-7.3c-2.7-2.2-5.8-3.7-8.3-6.2
					c-1.5-1.5-5.1-5.4-4.5-7.8c-0.8,2.9-1.5,5.8-2.3,8.7c-0.6-0.2,0.2,0.1-0.4-0.1c-32.2-13.5-22.3-42.9-22.3-42.9
					c-1.5-0.2-6,4.7-6,4.7c-0.5-11.5,7.2-21.1,7.2-21.1l-5.1,0.8c1.3-7.8,3.3-15.8,7.2-22.7c2.2-3.9,5.1-9.6,9.4-11.6
					c3.8-1.7,7.9-2.4,12.1-2.3c5.4,0.2,13.9,1,18.2,4.6c-0.1-2-1.7-3.6-3.3-4.9c-1.3-1-2.7-2-4.2-2.8c1.7-0.5,3.6-0.5,5.3-0.2
					c2.6,0.4,5.6,1.2,6.7,3.6c2.1-2.8,5-4.8,8.2-5.8c1-0.3,1.4,0,2.4,0.2c-2.1,1.7-3.3,4.2-4.5,6.7c2.7-1.9,6.2-2.2,9.2-0.8
					c-1.6,1-2.9,2.5-3.5,4.3c0,0,30-6.7,39.4,22.9l-5.9-0.9c0,0,11.3,12.8,10.8,47.2L172.9,258.9z"/>
				<path class="st12" d="M145.5,226.6c2.4-2.7,3.4-6.6,1.3-9.7c-2-3-6.1-5.7-9.7-4.2c-3.2,1.3-4.2,5.9-4.2,9
					c-6.7-0.6-16.4-0.9-21.9,3.2c0.1-5.5-4.8-8.7-10-8.4c0,0-7.9,2.3-3.3,13.2l2.2,3.2c-0.8,2.9-1.9,7-4.3,9c-1.2,1-2.3,1-3.6,1.6
					c-0.8,0.4-0.7,1.6-0.4,2.4c5.1,13.5,22.5,19,35.5,20c8.3,0.6,17.5-0.9,23.3-7.4c4.1-4.9,6.3-11.2,5.9-17.6c0-0.4-0.1-0.7-0.4-1
					c-0.3-0.2-0.5-0.2-0.8-0.2c-4.7-0.6-10.8-7.5-9.5-12.4L145.5,226.6z"/>
				<path class="st15" d="M136.1,221.4v0.2c0.9-0.2,7.4,2.2,7.4,2.2c0.6-1.3,1.6-3.1,1.1-4.5c-0.7-1.9-2.5-3.3-4.5-3.3
					C136.6,215.9,136.5,218.8,136.1,221.4z"/>
				<path class="st15" d="M102.1,229.7l0.2,0.2c0.4-0.8,6.6-4.1,6.6-4.2c-0.5-1.3-1.3-3.2-2.7-3.8c-1.9-0.8-4.1-0.3-5.4,1.2
					C98.3,225.7,100.3,227.7,102.1,229.7z"/>
				<path class="st15" d="M131.3,254.4c-0.2-0.4-0.7-0.6-1-1s-0.5-0.6-0.7-0.9c-0.6-0.8-1-1.8-1.1-2.9c-0.1,2.3-1.1,4.4-2.7,6
					c0.3-0.3,1.9-0.1,2.4-0.1C129.4,255.4,130.4,255,131.3,254.4z"/>
				<path class="st16" d="M136.1,240.8c0.4,4.3-3,8.1-7.6,8.5s-8.7-2.7-9.1-7"/>
				<path class="st17" d="M108.7,244.2L108.7,244.2c-1.1-0.4-1.8-1.6-1.4-2.7L111,230c0.4-1.1,1.6-1.8,2.7-1.4l0,0
					c1.1,0.4,1.7,1.6,1.4,2.7l-3.7,11.5C111,243.9,109.8,244.6,108.7,244.2z"/>
				<path class="st17" d="M117.5,241.6L117.5,241.6c0.7-0.9,0.6-2.2-0.3-3l-9.3-7.7c-0.9-0.7-2.2-0.6-3,0.3l0,0
					c-0.7,0.9-0.6,2.2,0.3,3l9.3,7.7C115.4,242.7,116.8,242.5,117.5,241.6z"/>
				<path class="st17" d="M134.7,238.4L134.7,238.4c-0.8-0.4-1.2-1.4-0.8-2.3l4.2-8.6c0.4-0.8,1.4-1.2,2.3-0.8c0,0,0,0,0,0l0,0
					c0.8,0.4,1.2,1.4,0.8,2.3l-4.1,8.6C136.6,238.5,135.6,238.8,134.7,238.4C134.7,238.4,134.7,238.4,134.7,238.4z"/>
				<path class="st17" d="M141.9,237.4L141.9,237.4c0.7-0.6,0.7-1.7,0.1-2.4l-6.4-7.1c-0.6-0.7-1.7-0.7-2.4-0.1l0,0
					c-0.7,0.6-0.7,1.7-0.1,2.4l6.4,7C140.1,237.9,141.2,238,141.9,237.4z"/>
				<path class="st12" d="M128.1,198.3h-17.5c-4.8,0-8.8-3.9-8.8-8.8l0,0c0-4.8,3.9-8.8,8.8-8.8h17.5c4.8,0,8.8,3.9,8.8,8.8l0,0
					C136.9,194.4,133,198.3,128.1,198.3z"/>
				<path class="st14" d="M183.2,353.5V417h79.7v-63.4c-2.3,1.9-19.2,3.3-39.8,3.3C202.1,356.9,184.8,355.4,183.2,353.5z"/>
				<path class="st10" d="M183.3,352.9c-0.1,0.1-0.1,0.2-0.1,0.3c0,0.1,0.1,0.2,0.1,0.3L183.3,352.9
					C183.3,353,183.3,352.9,183.3,352.9z"/>
				<path class="st10" d="M263.2,353.2c0-0.2-0.1-0.3-0.4-0.5c0.1,0.1,0.1,0.2,0.1,0.3v0.6C263.1,353.6,263.2,353.4,263.2,353.2z"/>
				<path class="st18" d="M246,233.2h-49.3c-8,0-14.5-6.5-14.5-14.5l0,0c0-8,6.5-14.5,14.5-14.5H246c8,0,14.5,6.5,14.5,14.5l0,0
					C260.5,226.7,254,233.2,246,233.2z"/>
				<rect x="199.5" y="248.3" class="st6" width="44.2" height="19.5"/>
				<path class="st6" d="M195.5,229.4v43.5c0,14.4,11.7,26.1,26.1,26.1l0,0c14.4,0,26.1-11.7,26.1-26.1v-43.5H195.5z"/>
				<path class="st16" d="M234.2,255.9h-0.4c-1.7,0-3.1-1.4-3.1-3.1v-6c0-1.7,1.4-3.1,3.1-3.1h0.4c1.7,0,3.1,1.4,3.1,3.1v6
					C237.3,254.5,235.9,255.9,234.2,255.9z"/>
				<path class="st18" d="M250.8,233.2H245v26.3h-46v-26.3h-6.6v43.4l0,0c0.7,15.6,13.5,27.9,29.1,27.9l0,0
					c15.8,0,28.7-12.7,29.2-28.5l0.1-0.1L250.8,233.2z"/>
				<path class="st19" d="M222.3,253.1c-2.4,0-4.4,2-4.4,4.4h8.7C226.7,255.1,224.7,253.2,222.3,253.1z"/>
				<path class="st18" d="M240.5,243l-11,4.4c-1.3,0.5-2.7-0.1-3.2-1.4l0,0c-0.5-1.3,0.1-2.7,1.4-3.2l11-4.4
					c1.3-0.5,2.7,0.1,3.2,1.4l0,0C242.4,241,241.8,242.5,240.5,243z"/>
				<path class="st16" d="M211.1,243.7h0.4c1.7,0,3.1,1.4,3.1,3.1v6c0,1.7-1.4,3.1-3.1,3.1h-0.4c-1.7,0-3.1-1.4-3.1-3.1v-6
					C208,245.1,209.4,243.7,211.1,243.7z"/>
				<path class="st18" d="M204.9,243l11,4.4c1.3,0.5,2.7-0.1,3.2-1.4l0,0c0.5-1.3-0.1-2.7-1.4-3.2l-11-4.4c-1.3-0.5-2.7,0.1-3.2,1.4
					l0,0C203,241,203.6,242.5,204.9,243z"/>
				<circle class="st18" cx="188.8" cy="237.6" r="12.5"/>
				<circle class="st18" cx="254.9" cy="237.6" r="12.5"/>
				<path class="st18" d="M253.7,223.9c0,6.9-5.6,12.5-12.4,12.5s-12.5-5.6-12.5-12.4s5.6-12.5,12.4-12.5c0,0,0,0,0,0
					C248.1,211.5,253.7,217.1,253.7,223.9L253.7,223.9z"/>
				<circle class="st18" cx="221.7" cy="223.9" r="12.4"/>
				<path class="st18" d="M214.3,223.9c0,6.9-5.6,12.4-12.4,12.4s-12.4-5.6-12.4-12.4s5.6-12.4,12.4-12.4S214.3,217.1,214.3,223.9
					L214.3,223.9z"/>
				<path class="st12" d="M228.1,271.5h-10c-2.1,0-3.8-1.7-3.8-3.8l0,0c0-2.1,1.7-3.8,3.8-3.8h10c2.1,0,3.8,1.7,3.8,3.8l0,0
					C231.8,269.8,230.1,271.5,228.1,271.5z"/>
				<path class="st15" d="M223.1,270.6L223.1,270.6c-3.2,0-5.9-2.6-5.9-5.8c0,0,0,0,0,0h11.7C228.9,268,226.3,270.6,223.1,270.6
					L223.1,270.6z"/>
				<path class="st20" d="M278.6,525.1l0.2,0.4c0.3-0.4,0.6-0.7,0.9-1C279.3,524.7,278.9,524.9,278.6,525.1z"/>
				<path class="st21" d="M146.1,459.8c0.5,0,1.1,0,1.6-0.1C147.1,459.8,146.6,459.8,146.1,459.8z"/>
				<path class="st21" d="M151.6,458.7l2.8-0.9L151.6,458.7z"/>
				<path class="st11" d="M161.5,455.8l-0.4,0.1L161.5,455.8L161.5,455.8z"/>
				<path class="st11" d="M129,461.2c0.3,0.2,0.7,0.4,1,0.6c0.1,0.1,0.3,0.2,0.4,0.3c0.4,0.3,0.8,0.6,1.1,0.9l0.1,0.1
					c0.4,0.4,0.8,0.7,1.1,1.1l0.3,0.3c0.3,0.3,0.5,0.6,0.8,1l0.2,0.3c0.8,1,1.5,2.2,2.1,3.3c5.6-1.4,12.1-0.7,18.2,0.6
					c3.7,0.4,8.4-2,14.9-3c-3.3-3.1-6-6.8-7.9-10.9l-0.4,0.1c-0.4,0.1-0.9,0.2-1.3,0.3c-0.4,0.1-0.8,0.2-1.3,0.3l-1.3,0.4l-1,0.3
					l-1.5,0.5l-0.3,0.1l-2.8,0.9l-0.4,0.1c-0.5,0.1-0.9,0.3-1.3,0.4c-0.2,0.1-0.4,0.1-0.6,0.2c-0.4,0.1-0.8,0.2-1.2,0.2l-0.5,0.1
					c-0.5,0.1-1.1,0.1-1.6,0.1c-6.6-1.1-13.4-1.3-19.2,0.7c0.5,0.2,1.1,0.4,1.6,0.6L129,461.2z"/>
				<path class="st22" d="M115.6,472.1c-0.9,2.9-0.8,5.8,0.6,8c0.3-2.4,1.4-4.6,3-6.4c-1.4,0.6-2.9-0.1-3.5-1.5
					C115.6,472.1,115.6,472.1,115.6,472.1z"/>
				<path class="st22" d="M122.9,482.5L122.9,482.5c-6.7-2.8-4.8-6.7-1.8-9.9c-1.7,1.4-3.5,3.8-4.2,8.2l-0.4-0.1
					c0.2,2.9,3.5,4.7,6.2,4.7C122.6,484.5,122.7,483.5,122.9,482.5z"/>
				<path class="st22" d="M116.4,470c1-1.5,2.4-3.3,2.5-4C117.9,467.2,117,468.6,116.4,470z"/>
				<polygon class="st23" points="118.9,466 118.9,466 118.9,466 				"/>
				<path class="st23" d="M115.6,472.1L115.6,472.1c0.2-0.7,0.5-1.4,0.8-2.1C115.8,470.9,115.4,471.6,115.6,472.1z"/>
				<path class="st23" d="M123.3,480.8l0.1-0.2c0,0,0-0.1,0-0.1c0-0.3,0-0.6,0.1-0.8c-0.9,0.3-2-0.1-2.4-0.9
					c-3.6-2.5-0.3-4.8,2.6-7.6c-0.9,0.3-1.8,0.8-2.6,1.4c-3,3.2-4.8,7.1,1.8,9.9l0,0c0.1-0.4,0.2-0.7,0.3-1.1
					C123.1,481.2,123.2,481,123.3,480.8z"/>
				<path class="st23" d="M119.1,473.7c1.3-1.3,2.9-2.2,4.7-2.6c0.3-0.3,0.7-0.7,1-1c-1.6,1.2-4.5-0.1-5.5-0.8
					c-0.4-1.1-0.6-2.2-0.4-3.3l0,0c-0.1,0.7-1.5,2.5-2.5,4c-0.3,0.7-0.6,1.4-0.8,2.1c0.5,1.4,2,2.1,3.4,1.6
					C119.1,473.7,119.1,473.7,119.1,473.7z"/>
				<path class="st23" d="M123.5,479.7c0-0.1,0.1-0.2,0.2-0.4c-0.9,0.1-1.8-0.1-2.6-0.6C121.5,479.7,122.6,480.1,123.5,479.7z"/>
				<path class="st23" d="M121.1,478.8c-2.2-2.8,0-4.9,2.7-7.6h-0.1C120.8,474,117.5,476.3,121.1,478.8z"/>
				<path class="st23" d="M124.8,470.1c-0.3,0.4-0.7,0.7-1,1l0,0C124.2,470.8,124.5,470.4,124.8,470.1z"/>
				<polygon class="st24" points="118.9,465.9 118.9,466 118.9,466 				"/>
				<path class="st24" d="M134.1,465.8c0.8,1,1.4,2.2,2.1,3.3l0,0C135.6,468,134.9,466.9,134.1,465.8z"/>
				<path class="st24" d="M119.3,469.3c1,0.7,3.9,2,5.5,0.8c-0.3,0.4-0.7,0.7-1,1c0.3-0.1,0.5-0.1,0.8-0.1c-0.3,0.1-0.7,0.1-1,0.2
					c-2.6,2.7-4.9,4.8-2.7,7.6c0.8,0.4,1.7,0.6,2.6,0.6c0.3-0.5,0.6-1,0.9-1.4c0.4-0.8,0.9-1.6,1.5-2.3c0-0.1,0.1-0.2,0.1-0.3
					c0.3-0.3,0.6-0.7,1-1s0.5-0.5,0.8-0.8l0.1-0.1c0.3-0.3,0.6-0.5,0.9-0.8s0.4-0.3,0.5-0.4s0.3-0.3,0.5-0.4s0.4-0.2,0.5-0.3
					s0.4-0.3,0.6-0.4c0.6-0.3,1.2-0.6,1.8-0.9l0.4-0.2c0.6-0.2,1.2-0.5,1.9-0.7l0,0l1-0.3c-0.7-1.1-1.4-2.3-2.1-3.3l-0.2-0.3
					c-0.2-0.3-0.5-0.7-0.8-1l-0.3-0.3c-0.4-0.4-0.7-0.8-1.1-1.1l-0.1-0.1c-0.4-0.3-0.7-0.6-1.1-0.9c-0.1-0.1-0.3-0.2-0.4-0.3
					c-0.3-0.2-0.7-0.4-1-0.6l-0.5-0.2c-0.5-0.2-1.1-0.4-1.6-0.6c-0.7,0.2-1.3,0.5-2,0.8l-0.3,0.1c-0.6,0.3-1.2,0.6-1.8,1
					c-0.4,0.2-0.8,0.5-1.1,0.8l-0.6,0.5l-0.4,0.4c-0.3,0.3-0.6,0.5-0.8,0.8l-0.1,0.1c-0.3,0.3-0.6,0.6-0.9,1l0,0
					C118.7,467.1,118.9,468.2,119.3,469.3z"/>
				<path class="st24" d="M126.9,460.4c-0.7,0.2-1.3,0.5-2,0.8C125.5,460.9,126.2,460.7,126.9,460.4L126.9,460.4z"/>
				<path class="st25" d="M116.2,480c0,0.3-0.1,0.5-0.1,0.8l0.4,0.1c0-0.1,0-0.2,0-0.4S116.2,480.2,116.2,480z"/>
				<path class="st25" d="M121,472.7L121,472.7c-0.6,0.4-1.2,0.8-1.9,1c-1.6,1.8-2.7,4-3,6.4c0.1,0.1,0.2,0.3,0.3,0.5s0,0.2,0,0.4
					l0.4,0.1C117.5,476.5,119.3,474,121,472.7z"/>
				<path class="st25" d="M123.8,471.1c-1.8,0.4-3.4,1.2-4.7,2.6c0.7-0.2,1.3-0.6,1.9-1l0,0c0.8-0.6,1.7-1.1,2.6-1.4L123.8,471.1z"
					/>
				<path class="st25" d="M123.7,471.2l0.1-0.1l0,0L123.7,471.2L123.7,471.2z"/>
				<path class="st25" d="M124.7,471c-0.3,0-0.5,0-0.8,0.1l-0.1,0.1C124,471.1,124.3,471.1,124.7,471z"/>
				<path class="st11" d="M176.4,425.3c-0.4,0.1-0.7,0.3-1.1,0.4h0.9C176.3,425.6,176.3,425.5,176.4,425.3z"/>
				<path class="st11" d="M206.1,464c10.4,1.2,20.9,1.1,31.2-0.5l0.2-0.2c0.3-0.4,0.6-0.8,1-1.2c0.3-0.4,0.7-0.7,1.1-1
					c0.1,0,0.1-0.1,0.2-0.1l0.1-0.1c0.4-0.3,0.8-0.6,1.2-0.8l0.2-0.1l0.3-0.2c0.4-0.2,0.7-0.4,1.1-0.5l0.4-0.2l0.5-0.2l1.1-0.4
					l0.4-0.1l0.4-0.1c0.4-0.1,0.9-0.3,1.4-0.4l0,0l0.3-0.1l1.3-0.3c0.3-0.1,0.6-0.1,0.9-0.2c0.5-0.1,1-0.2,1.4-0.3
					c0.3,0,0.6-0.1,0.9-0.2c0.5-0.1,1-0.1,1.5-0.2l0.8-0.1l0,0c2.2-0.3,4.5-0.4,6.7-0.4l1.6-0.2l0.4,0.2c3.3,0,6.6,0.3,9.9,1
					c-3.6-2.5-6.7-5.7-9-9.4c-18.7,8.2-39.1,11.8-57.8,8.8c0.1,0.7,0.1,1.4,0.2,2.1C206.1,460.3,206.1,462.2,206.1,464z"/>
				<path class="st11" d="M397.9,472.8c0,0.1,0,0.2,0,0.3c0,0.3,0.1,0.6,0.1,0.9s0,0.4,0,0.5c0,0.3,0,0.6,0,1v0.5c0,0.4,0,0.7-0.1,1
					v0.3c-0.2,1.4-0.6,2.8-1.2,4.1c0,0.1-0.1,0.1-0.1,0.2c-0.2,0.4-0.4,0.7-0.6,1.1l-0.1,0.2c-0.2,0.3-0.4,0.7-0.6,1
					c0,0.1-0.1,0.1-0.2,0.2c-0.2,0.3-0.5,0.7-0.8,1l-0.1,0.2c-0.3,0.4-0.6,0.7-1,1l-0.1,0.1c-1.2,1.1-2.4,2.1-3.8,3l0,0
					c-5.8,3.6-14.1,5.4-23.4,4.1c-17-2.4-33.5-2.3-47.4,3.6c0,0.1,0.1,0.2,0.1,0.3c0.3,0.9,0.5,1.9,0.5,2.8
					c14-5.9,30.6-4.9,47.9-2.4C386.4,500.5,400.6,486.5,397.9,472.8z"/>
				<path class="st11" d="M383.5,464.5c-9.2-11.2-35.5-25-49.2-25c0,0.1,0,0.2,0,0.2c0,0.1,0,0.2,0,0.3c0,0.8,0,1.6,0,2.6
					c0,0.7,0,1.4-0.1,2.2c0,0,0,0.1,0,0.1l0,0c-0.1,1.6-0.4,3.2-0.8,4.8c13.3-1.1,37.5,5.9,46.6,17.1c4.7,5.8,4.4,12-0.8,16
					C386.6,478.2,388.6,470.8,383.5,464.5z"/>
				<path class="st11" d="M397.9,472.7c0-0.2-0.1-0.3-0.1-0.5c0,0.1,0,0.2,0.1,0.3S397.9,472.6,397.9,472.7z"/>
				<path class="st11" d="M167.9,409.6L167.9,409.6L167.9,409.6c0.7-2,1.6-4,2.6-5.9l-3.3,1.7C167.5,406.9,167.7,408.3,167.9,409.6z
					"/>
				<polygon class="st11" points="176.2,425.8 176.2,425.8 175.3,425.8 175.3,425.8 				"/>
				<path class="st11" d="M167,434.9c-0.1-0.3-0.2-0.6-0.3-0.9c-0.2,5.1,0.5,10,3.6,14.9c1.5,2.2,3.4,4.1,5.7,5.6
					c-1.5-3.8-2.5-7.9-2.9-12l-0.2-0.1c-0.1-2-0.1-4.1,0.1-6.1c0-0.1,0-0.1,0-0.2l0,0c0.4-3.6,1.4-7.1,3-10.3h-0.9
					C170.9,427.6,168.6,431,167,434.9z"/>
				<path class="st12" d="M397.8,472.2c0-0.2-0.1-0.4-0.2-0.6l0,0C397.7,471.8,397.7,472,397.8,472.2z"/>
				<path class="st12" d="M379.2,482.9c-5.6,3.5-14.2,5.5-25.2,4.2C366.2,488.5,374.6,486.5,379.2,482.9z"/>
				<path class="st12" d="M397.3,470.6l-0.2-0.6c0,0,0,0.1,0,0.1L397.3,470.6z"/>
				<path class="st12" d="M396.9,469.5c-0.2-0.5-0.4-1-0.7-1.5C396.5,468.5,396.7,469,396.9,469.5L396.9,469.5z"/>
				<path class="st12" d="M393.3,486.4c-1.2,1.1-2.4,2.1-3.8,3C390.9,488.5,392.1,487.5,393.3,486.4z"/>
				<path class="st12" d="M397.8,472.5c0-0.1,0-0.2-0.1-0.3s-0.1-0.4-0.2-0.6C397.7,471.9,397.8,472.2,397.8,472.5z"/>
				<path class="st12" d="M362.1,442.2c1.3,0.6,2.7,1.1,4,1.7C364.8,443.3,363.5,442.8,362.1,442.2z"/>
				<path class="st12" d="M316.2,493L316.2,493c0.2,0.4,0.5,0.8,0.7,1.2c0.8,0.9,1.4,1.9,1.8,3c13.9-5.9,30.4-6,47.4-3.6
					c9.2,1.3,17.5-0.5,23.4-4.1c5.6-6.3,8.2-14.3,2.6-22.7c-7.8-12.8-21.3-18.3-34.4-26.3l4,1.6c-5.5-2.3-11-4.5-15.8-6.6
					c-17-7.6-12.8-21-26.8-33.8c-15.7-14.4-34.6-11.9-54.3-6.5s-37.2,5.5-47.5,2.9c-2.5-4.6-9-9.4-14.5-10.6l-32.2,16.4
					c-1,1.9-1.9,3.9-2.6,5.9c0.1,1.1,0.2,2.2,0.3,3.3v0c0,1.1,0,2.1,0,3.1c0,0.1,0,0.1,0,0.2c0,1-0.1,2-0.1,3c0,0.1,0,0.1,0,0.2
					c-0.1,1-0.1,1.9-0.2,2.9c0,0.1,0,0.2,0,0.3c-0.1,0.9-0.2,1.8-0.3,2.7c0,0.2,0,0.4-0.1,0.6l7.9-0.2c0.4-0.1,0.7-0.3,1.1-0.4
					c-0.1,0.1-0.1,0.3-0.2,0.4l15.1-0.5c1.6,3.9,2.9,7.9,3.9,12l6.3,0.4c2.1,6,3.5,12.3,4.3,18.6c18.7,3,39.1-0.5,57.8-8.8
					c-4.9-7.5-7.5-17.5-3.9-26.8c0.8-2.1,2.1-4.1,3.7-5.8c0-0.1,0.1-0.1,0.1-0.2c0.1-0.1,0.3-0.2,0.4-0.4c0.3-0.3,0.5-0.5,0.8-0.8
					s0.7-0.6,1-0.9s0.6-0.5,0.9-0.7s0.8-0.5,1.2-0.7s0.6-0.4,0.9-0.5c0.7-0.3,1.3-0.6,2-0.9c0.4-0.1,0.8-0.3,1.1-0.4
					s0.9-0.3,1.4-0.5s0.8-0.2,1.2-0.3s0.9-0.2,1.3-0.3s0.8-0.2,1.2-0.2s0.9-0.1,1.4-0.2s0.8-0.1,1.2-0.1s1-0.1,1.5-0.1l1.2,0
					c0.8,0,1.5,0,2.3,0c0.4,0,0.7,0,1.1,0.1c0.6,0,1.3,0.1,1.9,0.2l1.1,0.2c0.5,0.1,1.1,0.2,1.6,0.2l1.1,0.2
					c0.5,0.1,1.1,0.2,1.6,0.4l1,0.3c0.6,0.1,1.1,0.3,1.7,0.5l0.9,0.3c0.8,0.3,1.6,0.6,2.4,1c13.5,6,16.2,17,16.2,17l18.7,8.3v0.1
					v0.1c0,0.1,0,0.2,0.1,0.4c0,0.1,0,0.1,0,0.2c0,0.2,0,0.3,0.1,0.5v0.2c0,0.2,0,0.5,0.1,0.7v0.3c0,0.2,0,0.5,0,0.7
					c13.7,0,40,13.7,49.2,25c5.1,6.3,3.1,13.7-4.2,18.4c-4.6,3.6-13.1,5.6-25.2,4.2c-16.5-2-28.7,0.8-38.3,5.2l0.1,0.2
					C316,492.7,316.1,492.8,316.2,493z"/>
				<polygon class="st12" points="175.3,425.8 175.3,425.8 167.4,426 167.4,426 				"/>
				<polygon class="st12" points="191.3,425.3 176.2,425.8 176.2,425.8 				"/>
				<path class="st12" d="M167.1,428.5c-0.1,0.9-0.2,1.8-0.3,2.8v0.1c-0.1,0.9-0.1,1.8-0.1,2.7l0,0c0.1,0.3,0.2,0.6,0.3,0.9
					c1.5-3.9,3.9-7.3,8.3-9.1l-7.9,0.2c-0.1,0.8-0.2,1.6-0.2,2.4L167.1,428.5z"/>
				<path class="st12" d="M173.2,436.1l22.1,1.3c-1-4.1-2.3-8.1-3.9-12l-15.1,0.5C174.6,429,173.5,432.5,173.2,436.1z"/>
				<path class="st12" d="M173,442.4l0.2,0.1c-0.2-2.1-0.2-4.2,0-6.2C172.9,438.3,172.9,440.3,173,442.4z"/>
				<polygon class="st26" points="389.5,489.4 389.5,489.4 389.5,489.4 				"/>
				<path class="st26" d="M397.9,473.1c0-0.1,0-0.2,0-0.3c0,0,0-0.1,0-0.1c0-0.1,0-0.1,0-0.2C397.9,472.7,397.9,472.9,397.9,473.1z"
					/>
				<path class="st26" d="M397.1,470.2c0,0,0-0.1,0-0.1c-0.1-0.2-0.1-0.3-0.2-0.5l0,0C397,469.7,397.1,470,397.1,470.2z"/>
				<path class="st26" d="M397.6,471.6L397.6,471.6c0-0.2-0.1-0.4-0.1-0.5l0,0C397.5,471.2,397.6,471.4,397.6,471.6z"/>
				<polygon class="st26" points="397.5,471 397.5,471 397.5,471 				"/>
				<path class="st26" d="M392,466.6c5.7,8.4,3.1,16.4-2.6,22.7l0,0c1.4-0.9,2.7-1.9,3.8-3l0.1-0.1c0.3-0.3,0.7-0.7,1-1l0.1-0.2
					c0.3-0.3,0.5-0.6,0.8-1c0.1-0.1,0.1-0.1,0.2-0.2c0.2-0.3,0.5-0.7,0.6-1l0.1-0.2c0.2-0.4,0.4-0.7,0.6-1.1c0-0.1,0.1-0.1,0.1-0.2
					c0.6-1.3,1-2.7,1.2-4.1V477c0-0.4,0.1-0.7,0.1-1v-0.5c0-0.3,0-0.6,0-1c0-0.2,0-0.4,0-0.5s-0.1-0.6-0.1-0.9s-0.1-0.4-0.1-0.6
					s-0.1-0.6-0.2-0.9s-0.1-0.4-0.2-0.6s-0.1-0.3-0.1-0.5l-0.1-0.4c-0.1-0.2-0.1-0.4-0.2-0.6c-0.2-0.5-0.4-1-0.7-1.5
					c-0.4-0.8-0.8-1.6-1.3-2.3l-0.3-0.5c-0.5-0.7-0.9-1.4-1.4-2.1l-0.2-0.3c-0.5-0.6-0.9-1.2-1.4-1.8l-0.4-0.5
					c-0.5-0.6-1.1-1.2-1.7-1.9l-0.4-0.4c-0.5-0.5-1.1-1-1.6-1.5l-0.4-0.3c-0.6-0.6-1.3-1.1-2-1.6l-0.5-0.4c-0.6-0.5-1.3-1-2-1.5
					l-0.2-0.1c-0.7-0.5-1.5-1-2.2-1.5l-0.5-0.3c-0.8-0.5-1.5-1-2.3-1.4l-0.2-0.1c-0.8-0.4-1.5-0.9-2.3-1.3l-0.5-0.2
					c-0.8-0.4-1.6-0.9-2.5-1.3l-0.3-0.1c-0.8-0.4-1.7-0.8-2.5-1.2l-0.1-0.1c-0.9-0.4-1.8-0.9-2.8-1.3l0,0c-1.3-0.6-2.7-1.2-4-1.7
					l-0.5-0.2l-4-1.6C370.7,448.4,384.2,453.8,392,466.6z"/>
				<path class="st26" d="M397.5,471c0-0.2-0.1-0.3-0.1-0.5C397.4,470.7,397.4,470.9,397.5,471z"/>
				<path class="st26" d="M361.6,442l0.5,0.2L361.6,442z"/>
				<path class="st27" d="M309.3,509.5c-8.5,3.3-18.4,0-20.6,4c-2,3.6-4.1,12.1-9.1,12.5c8-5.5,5.2-18.8,13-25.2
					c-4.3,1.4-7.5,3.6-8.7,8.2c0.4-5.9,3-11.5,7.4-15.5l0.1-0.1c0.5-0.5,1-1,1.6-1.4l0.3-0.2c0.5-0.4,1.1-0.9,1.7-1.2
					c-7.2,2.9-12.6,9.1-14.6,16.5c-1.9,6.5,3.5,11.6-0.6,17.4c6.5-4.6,5.9-15.8,5.9-15.9s1.6,13-6.6,17.4l-0.2-0.4
					c-0.1,0.2-0.3,0.3-0.5,0.5c6,1.1,8.9-4.1,11.1-8s12.6-1.4,21.1-4.7c5.4-2,8.9-7.2,8.8-13l-0.4,0.2
					C318.3,504,314.7,507.4,309.3,509.5z"/>
				<path class="st27" d="M318.9,500.4l0.4-0.2c-0.1-1-0.2-1.9-0.5-2.8C319.1,498.4,319.1,499.4,318.9,500.4z"/>
				<polygon class="st28" points="294.9,490.5 294.9,490.5 294.9,490.5 				"/>
				<path class="st28" d="M318.8,497.4c0-0.1-0.1-0.2-0.1-0.3l0,0C318.7,497.2,318.8,497.3,318.8,497.4z"/>
				<path class="st28" d="M318.7,497.1L318.7,497.1c-0.4-1.1-1-2.1-1.8-3C317.7,495.1,318.3,496.1,318.7,497.1z"/>
				<path class="st28" d="M307.6,496.9c2.5-1.6,5.1-3.1,7.8-4.4c-3.6-2-7.7-3-11.8-2.9c-6.3,0.3-11,3.5-15.2,7.2
					c0.9-1.2,1.8-2.3,2.9-3.4c-4.3,4-7,9.6-7.3,15.5c1.2-4.6,4.4-6.8,8.7-8.2c-7.8,6.5-5,19.8-13,25.3c5-0.5,7-8.9,9.1-12.5
					c2.2-4,12-0.7,20.6-4c5.4-2.1,9-5.5,9.6-9.1c-2.2,1-4.3,2.1-6.4,3.4C312,503.2,308.1,497.5,307.6,496.9z"/>
				<path class="st28" d="M294.9,490.5L294.9,490.5c-0.6,0.4-1.1,0.8-1.7,1.2C293.8,491.3,294.3,490.9,294.9,490.5z"/>
				<path class="st28" d="M311.1,501.1c-0.5-0.6-3.1-3.6-3.5-4.2c0.5,0.6,4.4,6.3,4.9,6.9c2-1.3,4.2-2.4,6.4-3.4c0.2-1,0.1-2-0.1-3
					c0-0.1-0.1-0.2-0.1-0.3C316.1,498.2,313.5,499.5,311.1,501.1z"/>
				<path class="st28" d="M311.1,501.1c2.4-1.5,4.9-2.8,7.5-3.9c-0.4-1.1-1-2.1-1.8-3c-0.2-0.5-0.5-0.9-0.7-1.2l-0.8-0.4
					c-2.7,1.3-5.3,2.7-7.8,4.4C308.1,497.5,310.6,500.5,311.1,501.1z"/>
				<path class="st29" d="M315.8,492.3l-0.3-0.4L315.8,492.3z"/>
				<path class="st29" d="M315.9,492.5l-0.1-0.2l0,0L315.9,492.5z"/>
				<path class="st29" d="M294.9,490.5L294.9,490.5z"/>
				<path class="st29" d="M293.2,491.8l-0.3,0.2c-0.5,0.4-1.1,0.9-1.6,1.4l-0.1,0.1c-1.1,1-2,2.2-2.9,3.4c4.3-3.7,8.9-6.9,15.2-7.2
					c4.1-0.1,8.2,0.9,11.8,2.9l0.4-0.2l-0.3-0.4c-0.1-0.1-0.2-0.3-0.4-0.4s-0.3-0.4-0.5-0.5l-0.4-0.4c-0.2-0.1-0.3-0.3-0.5-0.4
					l-0.4-0.3c-0.2-0.1-0.4-0.2-0.5-0.4s-0.3-0.2-0.5-0.2c-0.2-0.1-0.4-0.2-0.6-0.3l-0.5-0.2l-0.6-0.2l-0.5-0.1
					c-0.2-0.1-0.5-0.1-0.7-0.2c-0.2,0-0.3-0.1-0.5-0.1c-0.2,0-0.5-0.1-0.7-0.1h-0.5c-0.3,0-0.5,0-0.8,0h-0.5h-0.9h-0.5l-1,0.1
					l-0.5,0.1l-1.1,0.2l-0.5,0.1c-0.4,0.1-0.8,0.2-1.2,0.2l-0.4,0.1c-0.5,0.1-0.9,0.2-1.4,0.4l-0.3,0.1c-0.6,0.1-1.1,0.3-1.7,0.5
					c-0.7,0.2-1.4,0.5-2.1,0.8l0,0C294.3,490.9,293.8,491.3,293.2,491.8z"/>
				<path class="st29" d="M315.9,492.5l-0.1-0.2l-0.4,0.2l0.8,0.4L315.9,492.5z"/>
				<path class="st29" d="M316.2,493c-0.1-0.1-0.2-0.3-0.3-0.4L316.2,493L316.2,493z"/>
				<path class="st20" d="M285.5,508.6c0,0.1,0.6,11.3-5.9,15.9c-0.2,0.3-0.5,0.7-0.9,1l0.2,0.4
					C287.1,521.6,285.5,508.6,285.5,508.6z"/>
				<path class="st23" d="M233.9,475.1c-0.1-0.8-0.2-1.6-0.1-2.3c0.1-0.9,0.2-1.9,0.4-2.8l0,0l0,0c0.1-0.4,0.2-0.7,0.3-1.1
					c0.2-0.7,0.5-1.3,0.8-1.9l0,0l0,0c0.1-0.3,0.2-0.5,0.4-0.8l0.2-0.4l0.1-0.2c0.2-0.3,0.4-0.7,0.6-1c0.1-0.2,0.2-0.3,0.4-0.5
					l0.3-0.5c-10.4,1.5-20.9,1.7-31.2,0.5c0,0.6,0,1.1,0,1.7c-0.8,2.6-1.8,5.2-3,7.6c-0.8,1.9-2,3.7-3.4,5.3
					c13.1,2,26.8,1.6,35.8-0.4c-0.4-0.3-0.7-0.8-1-1.2C234.2,476.5,234,475.8,233.9,475.1z"/>
				<path class="st23" d="M162.2,455.7c0.4-0.1,0.8-0.1,1.2-0.2c-7.4-17.9-3.7-29.3-3.7-29.3l3.1-0.1l0,0l2.2-0.1c0-0.1,0-0.2,0-0.3
					s0-0.2,0-0.4c0-0.6,0-1.1,0-1.7V423c0-0.4,0-0.8,0.1-1.2l0.1-0.7c0-0.5,0.1-0.9,0.2-1.4l0.1-0.5c0.1-0.6,0.2-1.2,0.3-1.8
					c0.1-0.2,0.1-0.5,0.1-0.7c0.1-0.4,0.2-0.8,0.3-1.2l0.2-0.8c0.1-0.4,0.2-0.8,0.3-1.2l0.2-0.6c0.2-0.6,0.4-1.2,0.6-1.8l0.2-0.7
					c0.1-0.2,0.2-0.5,0.3-0.8c-0.2-1.4-0.4-2.8-0.7-4.2l-11.2,5.7c1.6,5.2,2.2,10.6,1.8,16c-0.7,6.5-1.1,18.3,3.7,28.8h0.2
					L162.2,455.7z"/>
				<path class="st23" d="M167.9,409.7L167.9,409.7L167.9,409.7z"/>
				<path class="st23" d="M176.7,456l-0.1-0.1c-8.9-6.3-14.1-18.4-13.7-29.7l-3.1,0.1c0,0-3.7,11.4,3.7,29.3c-0.4,0-0.8,0.1-1.2,0.2
					C166.9,455.2,171.4,454.8,176.7,456z"/>
				<polygon class="st23" points="165.1,426.1 162.9,426.1 162.9,426.1 165.1,426.1 				"/>
				<path class="st23" d="M162.2,455.7l-0.6,0.1h-0.2l0,0L162.2,455.7z"/>
				<path class="st23" d="M185.4,467.6c-3.8-3.1-6.8-7.1-8.8-11.6c-5.2-1.2-9.8-0.9-14.4-0.3l-0.8,0.1c1.9,4.1,4.6,7.8,7.9,10.9
					l0.9-0.1C175.2,466.2,180,466,185.4,467.6z"/>
				<path class="st23" d="M176.6,455.9c-0.2-0.5-0.4-0.9-0.6-1.4c-2.2-1.5-4.2-3.4-5.7-5.6c-3.1-4.8-3.8-9.7-3.6-14.9l0,0
					c0,0,0,0,0,0c-0.1-0.2-0.1-0.4-0.2-0.6s-0.1-0.3-0.2-0.5c-0.2-0.5-0.4-1.1-0.5-1.6c0-0.1,0-0.1,0-0.2c-0.1-0.5-0.2-1-0.3-1.5
					c0-0.2-0.1-0.4-0.1-0.6c-0.1-0.4-0.1-0.8-0.2-1.2c0-0.2,0-0.4-0.1-0.6c0-0.4,0-0.8-0.1-1.1l-2.2,0.1
					C162.5,437.5,167.7,449.6,176.6,455.9z"/>
				<path class="st23" d="M168.1,413c-0.1-1.1-0.1-2.2-0.3-3.3l0,0C168,410.8,168.1,411.9,168.1,413z"/>
				<path class="st23" d="M166.7,434.1"/>
				<path class="st24" d="M167.4,426c0-0.2,0.1-0.4,0.1-0.6C167.5,425.6,167.5,425.8,167.4,426z"/>
				<polygon class="st24" points="167.4,426 167.4,426 167.4,426 167.4,426 				"/>
				<path class="st24" d="M167.4,426L167.4,426c-0.1,0.8-0.2,1.6-0.2,2.4C167.2,427.6,167.3,426.8,167.4,426z"/>
				<path class="st24" d="M167.9,409.6L167.9,409.6c-0.1,0.3-0.2,0.5-0.3,0.8L167.9,409.6L167.9,409.6z"/>
				<polygon class="st24" points="167.9,409.6 167.9,409.6 167.9,409.6 				"/>
				<path class="st24" d="M165,425.8c0,0.1,0,0.2,0,0.3l0,0C165.1,426,165,425.9,165,425.8z"/>
				<polygon class="st24" points="165.1,426.1 165.1,426.1 165.1,426.1 165.1,426.1 				"/>
				<path class="st24" d="M166.7,434.1C166.7,434.1,166.7,434.1,166.7,434.1l-0.2-0.6C166.6,433.7,166.6,433.9,166.7,434.1z"/>
				<path class="st24" d="M165.1,426.1c0,0.4,0,0.8,0.1,1.1C165.1,426.8,165.1,426.5,165.1,426.1z"/>
				<path class="st24" d="M167.6,410.4l-0.2,0.7c-0.2,0.6-0.4,1.2-0.6,1.8l-0.2,0.6c-0.1,0.4-0.2,0.8-0.3,1.2l-0.2,0.8
					c-0.1,0.4-0.2,0.8-0.3,1.2c0,0.2-0.1,0.5-0.1,0.7c-0.1,0.6-0.2,1.2-0.3,1.8l-0.1,0.5c-0.1,0.5-0.1,0.9-0.2,1.4l-0.1,0.7
					c0,0.4-0.1,0.8-0.1,1.2v0.7c0,0.6,0,1.2,0,1.7c0,0.1,0,0.2,0,0.4s0,0.2,0,0.3l2.3-0.1c0-0.2,0.1-0.4,0.1-0.6
					c0.1-0.9,0.2-1.8,0.3-2.7c0-0.1,0-0.2,0-0.3c0.1-0.9,0.2-1.9,0.2-2.9c0-0.1,0-0.1,0-0.2c0.1-1,0.1-2,0.1-3c0-0.1,0-0.1,0-0.2
					c0-1,0-2.1,0-3.1v0c-0.1-1.1-0.1-2.2-0.3-3.3L167.6,410.4z"/>
				<polygon class="st24" points="167.4,426 167.4,426 165.1,426.1 165.1,426.1 				"/>
				<path class="st24" d="M165.1,427.2c0,0.2,0.1,0.4,0.1,0.6c0,0.4,0.1,0.8,0.2,1.2c0,0.2,0.1,0.4,0.1,0.6c0.1,0.5,0.2,1,0.3,1.5
					c0,0.1,0,0.1,0,0.2c0.1,0.5,0.3,1.1,0.5,1.6c0,0.2,0.1,0.3,0.2,0.5l0.2,0.6l0,0c0-0.9,0.1-1.8,0.1-2.7v-0.1
					c0.1-0.9,0.2-1.8,0.3-2.8v-0.1c0.1-0.8,0.2-1.6,0.2-2.4l-2.3,0.1C165.1,426.5,165.1,426.9,165.1,427.2z"/>
				<path class="st12" d="M174.3,479c-12.4,2.3-20.1,0.8-26,1.9c-0.6,0.5-1.3,1-2,1.4l0.3,0.5l0.3,0.5c0.2,0.3,0.4,0.7,0.6,1
					l0.4,0.5c0.3,0.4,0.5,0.7,0.8,1.1c0.1,0.1,0.2,0.2,0.3,0.3l0.1,0.1c2.3-2.8,6.4-4.1,10.9-3c12.7,2.2,30.4,5.9,39.7-4.7
					c-4.5-0.7-8.9-1.7-13.3-3C182.5,477.2,178.5,478.4,174.3,479z"/>
				<path class="st12" d="M152.2,473.1c-3.4-0.8-7.1,0.1-9.7,2.4c0.7,1.2,1.4,2.4,2.1,3.7c1.2,0.7,2.4,1.3,3.7,1.8
					c6-1.1,13.6,0.4,26-1.9c4.1-0.7,8.1-1.8,12-3.4c-2.1-0.7-4.2-1.4-6.3-2.3C171.3,475.7,160.7,474.1,152.2,473.1z"/>
				<path class="st12" d="M136.9,470.1l0.4,0.2c0.3,0.2,0.7,0.4,1,0.6c0.1,0.1,0.3,0.2,0.4,0.3c0.4,0.3,0.8,0.6,1.2,1l0,0
					c0.4,0.4,0.7,0.8,1.1,1.2l0.2,0.3c0.3,0.3,0.5,0.7,0.8,1l0.2,0.3c0.1,0.1,0.2,0.2,0.2,0.4c2.7-2.3,6.3-3.2,9.7-2.4
					c8.5,1,19.1,2.6,27.9,0.3c-0.8-0.3-1.5-0.7-2.3-1c-3.1-1.5-5.9-3.4-8.4-5.6c-6.5,1-11.2,3.4-14.9,3c-6.2-1.3-12.6-2-18.2-0.6
					l0.5,0.9L136.9,470.1z"/>
				<path class="st12" d="M145.1,480.1l0.3,0.6l0.5,0.9c0.2,0.3,0.3,0.6,0.5,0.9c0.7-0.4,1.4-0.9,2-1.4c-1.3-0.4-2.5-1-3.7-1.8
					C144.7,479.5,144.9,479.8,145.1,480.1z"/>
				<path class="st12" d="M136.8,470l-0.5-0.9l0,0L136.8,470L136.8,470z"/>
				<path class="st12" d="M136.3,469.1l-1,0.3c0.5,0.2,1,0.4,1.5,0.6L136.3,469.1z"/>
				<path class="st12" d="M196.6,462.5c3,0.6,6.2,1.2,9.5,1.5c0.1-1.9,0-3.7-0.1-5.6c-0.1-0.7-0.1-1.4-0.2-2.1
					c-2.9-0.5-5.7-1.1-8.5-1.9C197.2,457.2,197,459.8,196.6,462.5z"/>
				<path class="st12" d="M196.9,454.4c-0.5,2.2-1.3,4.4-2.2,6.5c-0.1,0.4-0.3,0.8-0.5,1.1c0.8,0.2,1.6,0.4,2.4,0.5
					c0.4-2.6,0.7-5.3,0.7-8L196.9,454.4z"/>
				<path class="st12" d="M194.2,462c0.2-0.4,0.3-0.7,0.5-1.1c1-2.1,1.7-4.2,2.2-6.5c-8.6-2.4-16.6-6.4-23.6-11.8l-0.1-0.1
					c0.4,4.1,1.3,8.2,2.9,12C180.6,457.7,187,460.2,194.2,462z"/>
				<path class="st12" d="M173.1,436.2c0-0.1,0-0.1,0-0.2l0,0C173.2,436.1,173.2,436.2,173.1,436.2z"/>
				<path class="st12" d="M197.2,449.1c0,0.2,0,0.4,0,0.6c0,1.1,0.1,2.1,0.1,3.2c0,0.1,0,0.1,0,0.2l0,0c0,0.5,0,0.9,0,1.4
					c2.8,0.8,5.6,1.4,8.5,1.9c-0.8-6.3-2.2-12.6-4.3-18.6l-6.3-0.4c0.7,2.8,1.3,5.6,1.6,8.5C197,446.9,197.1,448,197.2,449.1z"/>
				<path class="st12" d="M197.2,449.7c0,1.1,0.1,2.1,0.1,3.2C197.3,451.8,197.3,450.8,197.2,449.7z"/>
				<path class="st12" d="M197.2,449.1c-0.1-1.1-0.2-2.2-0.3-3.3C197,446.9,197.1,448,197.2,449.1z"/>
				<path class="st12" d="M197.3,453.1c-0.1,0.4-0.2,0.9-0.4,1.3l0.3,0.1C197.3,454,197.3,453.5,197.3,453.1z"/>
				<path class="st12" d="M173.1,436.2c-0.2,2.1-0.2,4.2,0,6.2l0.1,0.1c7,5.4,15.1,9.4,23.6,11.8c0.1-0.4,0.2-0.9,0.4-1.3v-0.2
					c0-1,0-2.1-0.1-3.2c0-0.2,0-0.4,0-0.6c-0.1-1.1-0.2-2.2-0.3-3.3c-0.4-2.8-0.9-5.7-1.6-8.5l-22.1-1.3
					C173.2,436.1,173.2,436.2,173.1,436.2z"/>
				<path class="st12" d="M197.3,452.9v0.2C197.3,453,197.3,452.9,197.3,452.9z"/>
				<path class="st12" d="M197.2,449.7c0-0.2,0-0.4,0-0.6C197.2,449.3,197.2,449.5,197.2,449.7z"/>
				<path class="st12" d="M206,465.7c0-0.5,0-1.1,0-1.7c-3.3-0.4-6.4-0.9-9.5-1.5c-0.2,2-0.7,3.9-1.5,5.7c-1.9,3.5-5,6.1-8.7,7.5
					c4.3,1.3,8.8,2.3,13.3,3c1.4-1.6,2.5-3.4,3.4-5.3C204.2,470.9,205.2,468.4,206,465.7z"/>
				<path class="st12" d="M176.8,456.1l-0.2-0.2l0.1,0.1L176.8,456.1z"/>
				<path class="st12" d="M180.1,473.4c2,0.9,4.1,1.6,6.3,2.3c3.7-1.4,6.8-4.1,8.7-7.5c0.8-1.8,1.3-3.7,1.5-5.7
					c-0.8-0.2-1.6-0.3-2.4-0.5C191.3,468.5,186.1,471.9,180.1,473.4z"/>
				<path class="st12" d="M180.1,473.4c6.1-1.5,11.2-4.9,14.1-11.5c-7.3-1.8-13.6-4.3-18.2-7.4c0.2,0.5,0.4,0.9,0.6,1.4l0.2,0.2
					h-0.2c1.9,4.5,4.9,8.5,8.8,11.6c-5.4-1.6-10.2-1.4-15.1-1l-0.9,0.1c2.5,2.3,5.4,4.2,8.4,5.6
					C178.6,472.8,179.3,473.1,180.1,473.4z"/>
				<path class="st22" d="M136.5,493.8c-1.5-1.2-2.6-2.8-3.2-4.6c-0.6,1.4-0.8,3-0.6,4.5h-0.4c3.8,4,17.8,1.8,23.4-2.7
					c-1.5-0.6-2.9-1.4-4.2-2.4C148.1,491.7,140.2,495.9,136.5,493.8z"/>
				<path class="st22" d="M122.7,485.6c0.1,1,0.4,1.9,0.9,2.8c0.3-1.1,0.6-2.2,1.2-3.3C124.1,485.4,123.4,485.6,122.7,485.6z"/>
				<path class="st22" d="M132.2,489.6c-2.4,1.6-5.9,2.5-6.9,0.3c-0.5-0.9-0.6-1.9-0.4-2.9c-0.2,0.7-0.4,1.5-0.6,2.2l-0.4-0.1
					c0.1,3.9,5.8,6.1,8.4,4.5h-0.4C131.6,492.4,131.8,491,132.2,489.6z"/>
				<path class="st22" d="M149.1,486.5l-0.1-0.1l0,0L149.1,486.5z"/>
				<path class="st22" d="M124.8,485h-0.2c-0.1-0.5-0.1-1-0.1-1.6c-0.6-0.1-1.2-0.6-1.3-1.2l-0.3,0.3c-0.2,1-0.2,2-0.2,3
					c0.7,0,1.4-0.1,2-0.5L124.8,485z"/>
				<path class="st22" d="M125.4,483.4c0,0.2,0,0.4,0,0.5c0.2-0.3,0.4-0.5,0.6-0.8v-0.1C125.8,483.2,125.6,483.3,125.4,483.4z"/>
				<path class="st22" d="M123.1,481.4c-0.1,0.4-0.2,0.7-0.3,1.1l0.3-0.3C123.1,482,123.1,481.7,123.1,481.4z"/>
				<path class="st22" d="M128,473.5c-0.3,0.3-0.5,0.5-0.8,0.8l0.1-0.1C127.5,474,127.7,473.8,128,473.5z"/>
				<path class="st22" d="M124.6,477.9c0.6-0.7,1.1-1.5,1.5-2.3C125.5,476.4,125,477.1,124.6,477.9z"/>
				<path class="st22" d="M125.4,483.4c-0.3,0.1-0.6,0.1-0.9,0c0,0.5,0,1.1,0.1,1.6h0.2c0.2-0.4,0.4-0.7,0.6-1
					C125.4,483.7,125.4,483.6,125.4,483.4z"/>
				<path class="st22" d="M146.6,482.9l-0.3-0.5l0,0C146.4,482.6,146.5,482.7,146.6,482.9z"/>
				<path class="st22" d="M149,486.3L149,486.3L149,486.3L149,486.3z"/>
				<path class="st22" d="M146.3,482.4L146.3,482.4c-0.2-0.3-0.4-0.6-0.5-0.9L146.3,482.4z"/>
				<path class="st23" d="M151.4,488.6l0.3-0.3c0-0.1-2.1-1.5-2.6-1.9C149.8,487.3,150.6,488,151.4,488.6z"/>
				<path class="st23" d="M123.4,480.5C123.4,480.6,123.4,480.6,123.4,480.5c0.1-0.2,0.2-0.6,0.4-0.9l-0.2,0.1
					C123.4,480,123.3,480.3,123.4,480.5z"/>
				<path class="st23" d="M123.7,479.7c0-0.1,0.1-0.2,0.1-0.3h-0.2c-0.1,0.1-0.1,0.2-0.2,0.4L123.7,479.7z"/>
				<path class="st23" d="M127,474.5L127,474.5l0.1-0.1c-0.4,0.4-0.7,0.7-1,1c0,0.1-0.1,0.2-0.1,0.3
					C126.3,475.2,126.6,474.9,127,474.5L127,474.5z"/>
				<path class="st23" d="M124.6,477.9c-0.3,0.5-0.6,0.9-0.9,1.4h0.2C124.1,478.9,124.3,478.4,124.6,477.9z"/>
				<path class="st23" d="M148.8,486.6c-3.2,3.1-8.1,6.4-11.9,4.2c-0.9-0.7-1.9-1.9-0.6-4.3c0-0.1,0-0.2,0-0.3
					c-0.6,0.5-1.3,0.9-1.9,1.3c-0.5,0.5-0.8,1.1-1.1,1.7c0.6,1.8,1.8,3.4,3.2,4.6c3.7,2.1,11.6-2.1,14.9-5.2
					c-0.8-0.7-1.6-1.4-2.3-2.2l-0.1-0.1C149,486.4,148.9,486.5,148.8,486.6z"/>
				<path class="st23" d="M127.4,488c-0.1-0.6-0.1-1.2,0-1.8v-0.1c-0.6-0.2-1.2-0.5-1.8-0.8c-0.3,0.6-0.5,1.2-0.7,1.8
					c-0.2,1-0.1,2,0.4,2.9c1,2.2,4.5,1.4,6.9-0.3c0.2-0.6,0.5-1.1,0.9-1.5C130.7,489.1,128.2,489.6,127.4,488z"/>
				<path class="st23" d="M129.6,481.6c-0.2-0.2-0.3-0.3-0.4-0.6c-1.6,1-2.8,2.5-3.6,4.2c0.5,0.4,1.1,0.7,1.8,0.8
					C126.5,484.6,127.8,483.1,129.6,481.6z"/>
				<path class="st23" d="M123.2,482.2c0.2,0.6,0.7,1.1,1.3,1.2c0-1.1,0.2-2.2,0.6-3.2C124.4,481,123.7,481.7,123.2,482.2z"/>
				<path class="st23" d="M127.4,478c-1.4,1.4-2.1,3.4-2,5.4c0.2-0.1,0.4-0.2,0.6-0.3v0.1c0.8-1,1.9-1.9,3.1-2.5
					c0-0.2-0.1-0.4-0.1-0.6C128.2,479.5,127.7,478.8,127.4,478z"/>
				<path class="st23" d="M126.4,478.3l-0.2,0.1h-0.1l-0.2,0.1c-0.7,0.4-1.5,0.8-2.3,1c-0.1,0.3-0.3,0.6-0.4,1l-0.1,0.2
					c-0.1,0.2-0.1,0.4-0.2,0.6c0,0.3,0,0.5,0.1,0.8c0.6-0.5,1.2-1.3,1.9-2.1C125.5,479.5,125.9,478.8,126.4,478.3z"/>
				<path class="st23" d="M123.7,479.7c0.8-0.2,1.6-0.6,2.3-1c-0.7,0.4-1.4,0.6-2.1,0.7C123.8,479.5,123.8,479.6,123.7,479.7z"/>
				<path class="st23" d="M126.2,478.5l0.2-0.1l0,0L126.2,478.5z"/>
				<path class="st23" d="M129,480c0,0.2,0.1,0.4,0.1,0.6c0.2-0.1,0.5-0.2,0.7-0.3C129.5,480.3,129.3,480.2,129,480z"/>
				<path class="st23" d="M127.2,474.3L127.2,474.3l-0.2,0.2L127.2,474.3z"/>
				<path class="st23" d="M126,478.6l0.2-0.1h0.1l0.2-0.2c0.3-0.2,0.5-0.4,0.8-0.6c-0.3-1-0.4-2.1-0.2-3.2c-0.3,0.4-0.7,0.8-1,1.2
					c-0.4,0.8-0.9,1.6-1.5,2.3c-0.2,0.5-0.5,0.9-0.7,1.4C124.6,479.3,125.3,479,126,478.6z"/>
				<path class="st23" d="M131.5,480L131.5,480L131.5,480c-0.3,0.2-0.6,0.3-1,0.4c-0.5,0.2-0.9,0.4-1.3,0.7c0.1,0.2,0.2,0.4,0.4,0.6
					C130.2,481.1,130.8,480.6,131.5,480z"/>
				<path class="st23" d="M125.4,483.4c-0.1-2,0.6-3.9,2-5.4c0,0,0-0.1-0.1-0.1c-0.8,0.8-1.5,1.6-2.2,2.3c-0.4,1-0.6,2.1-0.6,3.2
					C124.8,483.5,125.1,483.5,125.4,483.4z"/>
				<path class="st23" d="M127.3,477.7c-0.3,0.2-0.5,0.4-0.8,0.6c-0.6,0.5-1,1.1-1.3,1.8c0.7-0.7,1.4-1.5,2.2-2.3L127.3,477.7
					L127.3,477.7z"/>
				<path class="st23" d="M127.3,477.7c-0.3,0.2-0.5,0.4-0.8,0.6l0,0C126.7,478.1,127,477.9,127.3,477.7L127.3,477.7z"/>
				<path class="st23" d="M127.3,477.7c-0.3,0.2-0.5,0.4-0.8,0.6C126.7,478.1,127,477.9,127.3,477.7L127.3,477.7z"/>
				<path class="st23" d="M127.4,486.1L127.4,486.1L127.4,486.1L127.4,486.1z"/>
				<path class="st23" d="M136.5,486.1l-0.1,0.1c0,0.1,0,0.2,0,0.3c0.1-0.1,0.1-0.3,0.2-0.5L136.5,486.1z"/>
				<path class="st23" d="M149,486.4L149,486.4l-0.2,0.2C148.9,486.5,149,486.4,149,486.4z"/>
				<path class="st23" d="M136.5,486.1h0.1l0.1-0.1L136.5,486.1z"/>
				<path class="st23" d="M129.8,481.8l-0.1-0.1l-0.1-0.1c-1.8,1.5-3,2.9-2.2,4.5l0,0C127.6,484.4,128.5,482.9,129.8,481.8z"/>
				<path class="st23" d="M129.6,481.7l0.1,0.1c0.5-0.5,1.1-1.1,1.7-1.7C130.8,480.6,130.2,481.1,129.6,481.7L129.6,481.7z"/>
				<path class="st24" d="M130.5,471.5c-0.2,0.1-0.4,0.2-0.5,0.3C130.2,471.7,130.3,471.6,130.5,471.5L130.5,471.5z"/>
				<path class="st24" d="M130.5,471.5c-0.2,0.1-0.3,0.2-0.5,0.3s-0.4,0.3-0.5,0.4s-0.4,0.3-0.5,0.4s-0.6,0.5-0.9,0.8l-0.1,0.1
					c-0.2,0.2-0.5,0.5-0.7,0.7C128.2,473.3,129.3,472.4,130.5,471.5z"/>
				<path class="st24" d="M144.6,479.2L144.6,479.2c-0.7-1.3-1.3-2.5-2.1-3.7l0,0C143.2,476.7,143.9,477.9,144.6,479.2z"/>
				<path class="st24" d="M142.5,475.5L142.5,475.5c-0.1-0.1-0.2-0.2-0.2-0.4L142.5,475.5z"/>
				<path class="st24" d="M136.9,470.1l-0.1-0.1l0,0L136.9,470.1z"/>
				<path class="st24" d="M145.1,480.1c-0.2-0.3-0.3-0.6-0.5-0.9l0,0L145.1,480.1z"/>
				<path class="st24" d="M136.8,470L136.8,470L136.8,470L136.8,470z"/>
				<path class="st24" d="M136.8,470c-0.5-0.2-1-0.4-1.5-0.6C135.8,469.6,136.3,469.8,136.8,470L136.8,470z"/>
				<path class="st24" d="M131.1,471.1c-0.2,0.1-0.4,0.2-0.6,0.4l0,0C130.7,471.4,130.9,471.2,131.1,471.1z"/>
				<path class="st24" d="M127,474.5L127,474.5L127,474.5z"/>
				<path class="st24" d="M135.1,486.5c0.2-0.1,0.4-0.2,0.6-0.3h-0.3L135.1,486.5z"/>
				<path class="st24" d="M136.1,486.1c-0.6,0.3-1.2,0.8-1.7,1.3c0.7-0.4,1.3-0.8,1.9-1.3c0,0,0-0.1,0-0.1L136.1,486.1z"/>
				<path class="st24" d="M136.3,486.5c-1.3,2.4-0.3,3.6,0.6,4.3C136.1,490.1,136.4,488.2,136.3,486.5z"/>
				<path class="st24" d="M128.5,487.4c-0.5-0.3-0.9-0.8-1.2-1.2c-0.1,0.6-0.1,1.2,0,1.8c0.8,1.6,3.3,1.2,5.7,0.1
					c0.2-0.3,0.5-0.6,0.8-0.9C131.8,488.5,129.4,489.2,128.5,487.4z"/>
				<path class="st24" d="M136.3,485.5c-0.3,0.2-0.6,0.5-0.9,0.7h0.3c0.2-0.1,0.4-0.2,0.7-0.2C136.3,485.9,136.3,485.7,136.3,485.5z
					"/>
				<path class="st24" d="M136.1,486.1h0.2v-0.1L136.1,486.1z"/>
				<path class="st24" d="M129,480c0-0.4-0.1-0.9-0.1-1.3c-0.5-0.2-1-0.5-1.4-0.8l-0.1,0.1C127.7,478.8,128.3,479.5,129,480z"/>
				<path class="st24" d="M135.3,469.4L135.3,469.4z"/>
				<path class="st24" d="M131.5,480L131.5,480L131.5,480z"/>
				<path class="st24" d="M129.8,480.4c0.6-0.2,1.2-0.4,1.9-0.5c0.4-0.3,0.7-0.6,1.1-1c-1.1,0.7-2.6,0.4-3.9-0.2
					c0,0.5,0,0.9,0.1,1.3C129.2,480.2,129.5,480.3,129.8,480.4z"/>
				<path class="st24" d="M131.5,480c-0.3,0.1-0.6,0.2-1,0.4C130.9,480.3,131.2,480.2,131.5,480z"/>
				<path class="st24" d="M127.3,477.9L127.3,477.9c0,0.1,0,0.1,0.1,0.1l0.1-0.1L127.3,477.9z"/>
				<path class="st24" d="M127.3,477.8L127.3,477.8L127.3,477.8L127.3,477.8z"/>
				<path class="st24" d="M127.4,486.1L127.4,486.1c0.3,0.5,0.7,1,1.2,1.3c0.9,1.8,3.2,1.1,5.4-0.2c0.4-0.3,0.7-0.5,1.1-0.8l0.3-0.2
					C132.7,486.8,130,486.7,127.4,486.1z"/>
				<path class="st24" d="M136.3,486.1C136.3,486.1,136.3,486.2,136.3,486.1l0.1,0L136.3,486.1z"/>
				<path class="st24" d="M136.6,486.1c-0.1,0.2-0.2,0.3-0.2,0.5c0,1.6-0.2,3.6,0.6,4.3c3.8,2.2,8.7-1.1,11.9-4.2l0.2-0.2l-0.1-0.1
					c-0.1-0.1-0.2-0.2-0.3-0.3c-0.3-0.4-0.6-0.7-0.8-1.1l-0.4-0.5c-0.2-0.3-0.4-0.6-0.6-1l-0.3-0.5c-0.1-0.2-0.2-0.3-0.3-0.5
					C143.3,484.2,140,485.4,136.6,486.1z"/>
				<path class="st24" d="M144.6,479.2c-0.7-1.3-1.4-2.5-2.1-3.7c-0.4,0.3-0.7,0.7-1,1.1C142.4,477.6,143.5,478.5,144.6,479.2z"/>
				<path class="st24" d="M142.5,475.5l-0.2-0.4l-0.2-0.3c-0.2-0.4-0.5-0.7-0.8-1l-0.2-0.3c-0.3-0.4-0.7-0.8-1.1-1.2l0,0
					c-0.4-0.4-0.8-0.7-1.2-1c-0.1-0.1-0.2-0.2-0.4-0.3c-0.3-0.2-0.7-0.5-1-0.6l-0.4-0.2h-0.1c0.6,0.9,1.1,1.9,1.7,2.8
					c0.1,0.1,0.2,0.3,0.3,0.4s0.3,0.5,0.5,0.7l0.5,0.7l0.5,0.6c0.2,0.3,0.4,0.5,0.7,0.8s0.3,0.3,0.4,0.5v0
					C141.8,476.3,142.1,475.9,142.5,475.5z"/>
				<path class="st24" d="M128.8,477c0-0.2,0-0.3-0.1-0.5l-0.9,0.9C128.1,477.2,128.4,477.1,128.8,477z"/>
				<path class="st24" d="M141.5,476.6c-0.1,0.1-0.1,0.2-0.2,0.2c-2.9,3.2-7.6,6.7-11.5,4.9c-1.3,1.1-2.1,2.7-2.4,4.4
					c2.6,0.6,5.4,0.7,8,0.1c0.3-0.2,0.6-0.5,0.9-0.7c0,0.2,0,0.3,0,0.5l0.4-0.1l-0.1,0.1c3.4-0.6,6.7-1.9,9.7-3.6l-0.5-0.9l-0.5-0.9
					l-0.3-0.6l-0.5-0.9C143.4,478.5,142.4,477.6,141.5,476.6z"/>
				<path class="st24" d="M136.3,486.1L136.3,486.1l0.1,0.1l0.2-0.2L136.3,486.1z"/>
				<path class="st24" d="M128.9,478.7c0-0.6-0.1-1.1-0.1-1.7c-0.5,0.2-0.9,0.6-1.3,0.9C127.9,478.2,128.4,478.5,128.9,478.7z"/>
				<path class="st24" d="M141.4,476.6L141.4,476.6c-0.1,0.1-0.1,0.2-0.2,0.3C141.3,476.8,141.4,476.7,141.4,476.6L141.4,476.6z"/>
				<path class="st24" d="M127.8,477.4l0.9-0.9c-0.2,0.2-0.4,0.3-0.6,0.5s-0.4,0.3-0.6,0.5L127.8,477.4z"/>
				<path class="st24" d="M136.8,470c0.6,0.9,1.1,1.9,1.7,2.8C137.9,471.9,137.4,470.9,136.8,470L136.8,470z"/>
				<path class="st24" d="M128.1,477c-0.2,0.2-0.4,0.3-0.6,0.5l0,0C127.8,477.4,128,477.2,128.1,477z"/>
				<path class="st24" d="M127.2,474.3l-0.2,0.2l0,0c-0.2,1.1-0.1,2.2,0.2,3.2l0.3-0.2c0.2-0.2,0.4-0.3,0.6-0.5
					c0.2-0.2,0.4-0.3,0.6-0.5c0,0.1,0,0.3,0.1,0.5l0.3-0.1l-0.3,0.2c0.1,0.5,0.1,1.1,0.1,1.7c1.2,0.5,2.8,0.9,3.9,0.2
					c-0.3,0.3-0.7,0.7-1.1,1c0.3,0,0.6-0.1,0.9-0.1c-0.3,0-0.7,0.1-1,0.2l0,0c-0.6,0.6-1.2,1.2-1.7,1.7c3.9,1.8,8.6-1.7,11.5-4.9
					c0.1-0.1,0.1-0.2,0.2-0.2v0c-0.1-0.2-0.3-0.3-0.4-0.5s-0.5-0.5-0.7-0.8l-0.5-0.6l-0.5-0.7c-0.2-0.2-0.3-0.5-0.5-0.7
					s-0.2-0.3-0.3-0.4c-0.6-0.9-1.2-1.9-1.7-2.8c-0.5-0.2-1-0.5-1.5-0.6l0,0c-0.6,0.2-1.3,0.4-1.9,0.7l-0.4,0.2
					c-0.6,0.3-1.2,0.6-1.8,0.9c-0.2,0.1-0.4,0.3-0.7,0.4C129.4,472.3,128.3,473.2,127.2,474.3z"/>
				<path class="st24" d="M127.3,477.9l0.1,0.1c0.4-0.4,0.8-0.7,1.3-0.9v0c-0.3,0.1-0.6,0.2-0.9,0.4L127.3,477.9z"/>
				<path class="st24" d="M127.6,477.5l-0.3,0.2v0.1l0,0l0.5-0.5L127.6,477.5z"/>
				<path class="st24" d="M127.3,477.7l0.3-0.2l0,0L127.3,477.7L127.3,477.7z"/>
				<path class="st24" d="M127.5,477.5l-0.3,0.2l0,0L127.5,477.5z"/>
				<path class="st24" d="M129.1,476.9l-0.3,0.1v0L129.1,476.9z"/>
				<polygon class="st25" points="132.2,493.8 132.2,493.8 132.2,493.8 				"/>
				<path class="st25" d="M133.3,489.2c0-0.1-0.1-0.2-0.1-0.3c-0.3,0.3-0.6,0.5-1,0.7c-0.5,1.3-0.6,2.7-0.4,4.1h0.4l0,0h0.4
					C132.4,492.2,132.6,490.6,133.3,489.2z"/>
				<path class="st25" d="M132.2,489.6c0.4-0.2,0.7-0.5,1-0.7c0,0.1,0,0.2,0.1,0.3c0.3-0.6,0.7-1.2,1.1-1.7
					c-0.4,0.2-0.8,0.4-1.3,0.6C132.8,488.6,132.5,489.1,132.2,489.6z"/>
				<path class="st25" d="M135.6,486.2c-0.2,0.1-0.4,0.2-0.6,0.3c-0.4,0.3-0.8,0.5-1.1,0.8c-0.3,0.3-0.6,0.5-0.8,0.9
					c0.4-0.2,0.9-0.4,1.3-0.6c0.5-0.5,1.1-1,1.7-1.3L135.6,486.2z"/>
				<path class="st25" d="M136.3,486c-0.2,0.1-0.5,0.1-0.7,0.2l0.5-0.1L136.3,486C136.3,486,136.3,486,136.3,486z"/>
				<path class="st25" d="M135.1,486.5c-0.4,0.2-0.8,0.5-1.1,0.8C134.3,487,134.7,486.8,135.1,486.5z"/>
				<path class="st25" d="M136.6,485.9l-0.4,0.1c0,0,0,0,0,0.1L136.6,485.9z"/>
				<path class="st25" d="M123.6,488.4c-0.1,0.3-0.1,0.5-0.2,0.8l0.5,0.1c0-0.1,0-0.3,0-0.4C123.7,488.7,123.7,488.5,123.6,488.4z"
					/>
				<path class="st25" d="M124.9,487.1c0.1-0.7,0.2-1.3,0.4-2c-0.1,0-0.1-0.1-0.2-0.1c-0.1,0.1-0.2,0.1-0.3,0.2
					c-0.5,1-0.9,2.1-1.2,3.3c0.1,0.2,0.2,0.3,0.3,0.5c0,0.1,0,0.3,0,0.4l0.4,0.1C124.4,488.6,124.6,487.8,124.9,487.1z"/>
				<path class="st25" d="M125.5,484.4c0.1-0.4,0.3-0.9,0.5-1.3c-0.2,0.2-0.4,0.5-0.6,0.8L125.5,484.4z"/>
				<path class="st25" d="M124.8,485l-0.1,0.1c0.1-0.1,0.2-0.1,0.3-0.2c0,0,0.1,0.1,0.2,0.1s0-0.1,0-0.2L124.8,485z"/>
				<path class="st25" d="M125.5,484.4l-0.1-0.5c-0.2,0.3-0.4,0.7-0.6,1l0.5-0.1C125.4,484.7,125.4,484.6,125.5,484.4z"/>
				<path class="st25" d="M125.3,485.1c-0.2,0.7-0.3,1.3-0.4,2c0.2-0.6,0.4-1.2,0.7-1.8L125.3,485.1z"/>
				<path class="st25" d="M129.2,481.1c-0.1-0.1-0.1-0.3-0.1-0.4c-1.2,0.6-2.2,1.4-3.1,2.5c-0.2,0.4-0.4,0.8-0.5,1.3
					c0,0.1,0,0.3,0,0.4h-0.2c0,0.1,0,0.1,0,0.2l0.3,0.2C126.4,483.5,127.6,482.1,129.2,481.1z"/>
				<path class="st25" d="M129.8,480.4c-0.2,0.1-0.5,0.2-0.7,0.3c0,0.1,0.1,0.3,0.1,0.4c0.4-0.3,0.8-0.5,1.3-0.7
					C130.3,480.4,130,480.4,129.8,480.4z"/>
				<polygon class="st25" points="131.5,480 131.5,480 131.5,480 				"/>
				<path class="st25" d="M125.5,484.9c0-0.1,0-0.3,0-0.4c-0.1,0.1-0.1,0.3-0.2,0.5L125.5,484.9z"/>
				<path class="st25" d="M130.5,480.4c0.4-0.1,0.7-0.3,1-0.4l0,0c0.1,0,0.1-0.1,0.2-0.1c-0.6,0.1-1.3,0.3-1.9,0.5
					C130,480.4,130.3,480.4,130.5,480.4z"/>
				<path class="st25" d="M132.6,479.8c-0.3,0-0.6,0-0.9,0.1c0,0.1-0.1,0.1-0.2,0.1C131.8,479.9,132.2,479.8,132.6,479.8z"/>
				<path class="st30" d="M261.6,484.8c-1.1,0.2-2.2,0.2-3.2,0.3C259.5,485.1,260.5,485,261.6,484.8z"/>
				<path class="st30" d="M258.4,485.1c-1,0-2.1,0-3.1-0.1C256.3,485.1,257.3,485.1,258.4,485.1z"/>
				<path class="st30" d="M311.4,461.3c-4.5,1.6-9.3,2.2-14.1,1.8c-3.5,1-7.1,1.9-10.8,2.8C295.7,468.3,304,467.8,311.4,461.3z"/>
				<path class="st30" d="M326.6,455.8c3.9,3.2,5.8,5.8,5.5,10.3c-0.6,1.9-2.3,5.2-4.9,6.5c-9.1,4.7-24.2,6.7-34.1,5.3
					c-8.7-0.8-17.5,0.1-25.9,2.8c0.9,0.6,1.8,1,2.9,1.2c10.9-2.6,33.5,1.7,56.6-6c9.3-3.1,5.9-14.3,3.8-18c1.3-2.6,2.4-5.3,3-8.2
					c-0.4,0-0.9,0.1-1.3,0.1C331.1,452.5,329.9,454.6,326.6,455.8z"/>
				<path class="st30" d="M334.3,439.8c0-0.1,0-0.2,0-0.2l0,0C334.3,439.6,334.3,439.7,334.3,439.8z"/>
				<path class="st30" d="M245.4,458.2l-0.4,0.1l0.2-0.1L245.4,458.2z"/>
				<path class="st30" d="M239.9,461l-0.1,0.1L239.9,461L239.9,461z"/>
				<path class="st30" d="M260.7,456c-2.2,0-4.5,0.2-6.7,0.4l1.3,0.4C257.2,456.5,259.1,456.2,260.7,456z"/>
				<path class="st30" d="M272.5,457c-3.3-0.7-6.6-1-9.9-1c8.5,4.2,16.5,8,23.9,9.9c3.6-0.9,7.2-1.8,10.8-2.8
					c-11.6-0.9-24-6.9-31.3-16.7c-0.8,0.4-1.6,0.8-2.4,1.1C265.9,451.2,269,454.5,272.5,457z"/>
				<path class="st30" d="M332.2,449.9c0.4-0.1,0.8-0.1,1.3-0.1c0.4-1.6,0.6-3.2,0.8-4.8C333.3,446.6,332.8,448.3,332.2,449.9z"/>
				<path class="st30" d="M241.6,459.9l-0.3,0.2C241.3,460,241.4,460,241.6,459.9L241.6,459.9z"/>
				<path class="st30" d="M243.5,459l-0.5,0.2h0.1L243.5,459z"/>
				<path class="st30" d="M334.3,442.6c0-1,0-1.8,0-2.6C334.3,440.8,334.4,441.7,334.3,442.6z"/>
				<path class="st30" d="M260.1,420.9c0-1.5,2.5-4.7,3.3-5.9c-1.6,1.7-2.8,3.6-3.7,5.8c-3.6,9.3-1,19.2,3.9,26.8
					c0.8-0.4,1.6-0.7,2.4-1.1C260.5,439.1,258.4,429.9,260.1,420.9z"/>
				<path class="st30" d="M334.3,439.5c0-0.2,0-0.5,0-0.7C334.3,439,334.3,439.3,334.3,439.5z"/>
				<polygon class="st11" points="334.2,444.9 334.2,444.9 334.2,444.9 				"/>
				<path class="st11" d="M262.3,455.8l-1.6,0.2c0.6,0,1.3,0,1.9,0L262.3,455.8z"/>
				<path class="st11" d="M263.5,414.9c0,0.1-0.1,0.1-0.1,0.2l0.1-0.1L263.5,414.9z"/>
				<path class="st11" d="M317.2,456.8c-5.7,2.2-12.6,4.3-19.9,6.3c4.8,0.4,9.6-0.2,14.1-1.8c-7.4,6.4-15.7,7-24.9,4.6l-3.2,0.8
					C296.2,470.1,308.6,469.9,317.2,456.8z"/>
				<path class="st11" d="M322.2,455.3c5.3,0.2,6.9,5.3,6.6,9.8c-0.6,1.9-3.2,3.1-4,3.2c-9.1,4.7-22.2,7.7-32.1,6.4
					c-13.8-0.5-21.3,2.1-28,3.7l0.4,0.6l0.1,0.1l0,0c0.6,0.6,1.3,1.2,2,1.6c8.4-2.7,17.2-3.6,25.9-2.8c9.9,1.4,25-0.6,34.1-5.3
					c2.6-1.3,4.2-4.6,4.9-6.5c0.3-4.5-1.6-7-5.5-10.3c3.2-1.2,4.5-3.3,5.5-5.9c-0.7,0.1-1.3,0.2-1.9,0.3
					C328,452.4,325.3,454.2,322.2,455.3z"/>
				<path class="st11" d="M283.4,466.7l3.2-0.8c-7.4-1.9-15.4-5.8-23.9-9.9c-0.6,0-1.3,0-1.9,0c-1.6,0.2-3.5,0.5-5.4,0.8
					C264,459.7,273.8,464.2,283.4,466.7z"/>
				<path class="st11" d="M317.9,455.8c-17.7,9.4-37.5,2.9-48-11.3c-1.3,0.7-2.6,1.3-3.9,1.9c7.3,9.9,19.7,15.9,31.3,16.7
					c7.3-2,14.2-4.1,19.9-6.3C317.4,456.5,317.6,456.2,317.9,455.8z"/>
				<path class="st11" d="M330.3,450.2c0.6-0.1,1.2-0.2,1.9-0.3c0.6-1.5,1.2-3.2,2-5l0,0C333.2,446.8,331.9,448.6,330.3,450.2z"/>
				<path class="st11" d="M266,446.4c1.3-0.6,2.6-1.2,3.9-1.9c-5.5-7.4-8.2-16.6-7.4-25.9c0-1.3,0.3-2.5,0.9-3.7l-0.1,0.1
					c-0.8,1.2-3.3,4.5-3.3,5.9C258.4,429.9,260.5,439.1,266,446.4z"/>
				<path class="st12" d="M239.7,461c-0.1,0-0.1,0.1-0.2,0.1l0,0L239.7,461z"/>
				<path class="st12" d="M245,458.4l-0.4,0.1l0.1,0L245,458.4z"/>
				<path class="st12" d="M241.3,460l-0.2,0.1h0.1L241.3,460z"/>
				<path class="st12" d="M243,459.1l-0.4,0.2l0.2-0.1L243,459.1z"/>
				<path class="st12" d="M254,456.5l-0.8,0.1L254,456.5L254,456.5z"/>
				<path class="st12" d="M247.1,457.7l-0.3,0.1l0,0L247.1,457.7z"/>
				<path class="st12" d="M247.9,458.4c2.4-0.6,4.9-1.1,7.4-1.5l-1.3-0.4l-0.8,0.1c-0.5,0.1-1,0.1-1.5,0.2c-0.3,0-0.6,0.1-0.9,0.2
					c-0.5,0.1-1,0.2-1.4,0.3c-0.3,0.1-0.6,0.1-0.9,0.2l-1.3,0.3l-0.3,0.1C247.2,458,247.6,458.2,247.9,458.4z"/>
				<path class="st12" d="M245.2,458.3l-0.2,0.1l-0.3,0.1L245.2,458.3z"/>
				<path class="st12" d="M241.5,459.9c-0.1,0-0.2,0.1-0.2,0.1l-0.1,0.1L241.5,459.9z"/>
				<path class="st12" d="M243.1,459.1L243.1,459.1l-0.2,0.1L243.1,459.1z"/>
				<path class="st12" d="M239.9,461l-0.1,0.1l-0.1,0.1L239.9,461z"/>
				<path class="st12" d="M334.2,444.9C334.2,444.8,334.2,444.8,334.2,444.9C334.2,444.8,334.2,444.8,334.2,444.9L334.2,444.9z"/>
				<path class="st12" d="M263.8,414.5c-0.1,0.1-0.3,0.2-0.4,0.4l-0.1,0.1L263.8,414.5z"/>
				<path class="st12" d="M283.4,466.7c-8.2,2-16.3,3.7-23.1,5.1c1.6,2.3,3,4.6,4.5,6.5c6.7-1.5,14.2-4.2,28-3.7
					c9.9,1.4,23-1.6,32.1-6.4c0.9-0.1,3.4-1.3,4-3.2c0.3-4.5-1.2-9.6-6.6-9.8c3-1.1,5.7-2.8,8-5.1l-0.5,0.1c-2.5,2.2-7,4.4-12.6,6.5
					C308.6,469.9,296.2,470.1,283.4,466.7z"/>
				<path class="st12" d="M330.7,439.9c-3.7,3.3-12.5,10.5-22.5,14.6c-12.8-6.6-24.9-17-35.5-11.5c-1,0.5-1.9,1-2.9,1.5
					c10.5,14.2,30.3,20.7,48,11.3c-0.2,0.4-0.4,0.7-0.7,1c5.6-2.2,10.1-4.4,12.6-6.5l0.5-0.1c1.6-1.5,2.9-3.3,3.9-5.3
					c0,0,0-0.1,0-0.1c0.1-0.8,0.1-1.5,0.1-2.2c0-1,0-1.8,0-2.6c0-0.1,0-0.2,0-0.3c0-0.1,0-0.2,0-0.2
					C333.1,439.5,331.9,439.6,330.7,439.9z"/>
				<path class="st12" d="M334.3,442.6c0,0.7,0,1.4-0.1,2.2C334.3,444,334.3,443.3,334.3,442.6z"/>
				<path class="st12" d="M248.5,458.7c0.5,0.3,0.9,0.6,1.4,0.9l0.1,0.1c0.4,0.3,0.8,0.6,1.2,1l0.2,0.1c0.4,0.4,0.8,0.7,1.2,1.1
					l0.2,0.2c0.4,0.4,0.8,0.8,1.1,1.2l0,0l0.1,0.1c1.2,1,2.2,2.2,2.9,3.6c1.2,1.6,2.3,3.2,3.3,4.8c6.8-1.4,14.9-3.1,23.1-5.1
					c-9.5-2.5-19.3-7-28.1-9.8c-2.4,0.4-4.9,0.9-7.4,1.5l0.4,0.2L248.5,458.7z"/>
				<path class="st12" d="M262.5,418.6c-0.8,9.2,1.9,18.5,7.4,25.9c1-0.5,1.9-1,2.9-1.5c10.6-5.6,22.7,4.9,35.5,11.5
					c10-4.1,18.8-11.3,22.5-14.6c1.2-0.3,2.4-0.4,3.6-0.4c0-0.2,0-0.5,0-0.7v-0.3c0-0.3,0-0.5-0.1-0.7v-0.2c0-0.2,0-0.4-0.1-0.5
					c0-0.1,0-0.1,0-0.2c0-0.1,0-0.3-0.1-0.4v-0.1c0-0.1,0-0.1,0-0.1l-18.7-8.3c0,0-2.8-11-16.2-17c-0.8-0.3-1.6-0.6-2.4-1l-0.9-0.3
					c-0.5-0.2-1.1-0.4-1.7-0.5l-1-0.3c-0.5-0.1-1-0.2-1.6-0.4l-1.1-0.2c-0.5-0.1-1.1-0.2-1.6-0.2l-1.1-0.2c-0.6-0.1-1.3-0.1-1.9-0.2
					c-0.4,0-0.7-0.1-1.1-0.1c-0.8,0-1.5,0-2.3,0l-1.2,0c-0.5,0-1,0-1.5,0.1s-0.8,0.1-1.2,0.1s-0.9,0.1-1.4,0.2s-0.8,0.1-1.2,0.2
					s-0.9,0.2-1.3,0.3s-0.8,0.2-1.2,0.3s-0.9,0.3-1.4,0.5s-0.8,0.3-1.1,0.4c-0.7,0.3-1.4,0.6-2,0.9c-0.3,0.2-0.6,0.4-0.9,0.5
					s-0.8,0.5-1.2,0.7s-0.6,0.4-0.9,0.7s-0.7,0.5-1,0.9s-0.5,0.5-0.8,0.8l-0.4,0.5C263,416.1,262.6,417.3,262.5,418.6z"/>
				<path class="st12" d="M333.9,436.4c0,0,0,0,0,0.1V436.4z"/>
				<path class="st12" d="M256.9,467c-0.7-1.4-1.7-2.6-2.9-3.6l0.2,0.2C255.1,464.7,256,465.9,256.9,467z"/>
				<path class="st22" d="M235.5,478.3c0.4,0.4,0.9,0.6,1.4,0.8l0,0C236.4,478.9,235.9,478.6,235.5,478.3z"/>
				<path class="st22" d="M237.4,479.6h-0.2c-0.4,4.2,4.6,5.7,11.2,2.7l0,0C243.6,484.3,238.6,482.7,237.4,479.6z"/>
				<path class="st22" d="M235.5,478.3c-0.4-0.3-0.7-0.8-1-1.2C234.7,477.5,235.1,477.9,235.5,478.3z"/>
				<path class="st22" d="M233.9,475.1c0.1,0.7,0.3,1.3,0.6,1.9C234.2,476.4,234,475.8,233.9,475.1z"/>
				<path class="st22" d="M234.5,468.8c-0.1,0.4-0.2,0.7-0.3,1.1l0,0C234.3,469.6,234.4,469.2,234.5,468.8z"/>
				<path class="st22" d="M235.7,466.1c-0.1,0.3-0.2,0.5-0.4,0.8l0,0C235.4,466.6,235.6,466.4,235.7,466.1z"/>
				<path class="st22" d="M240.7,479.2c-0.7-0.5-1.4-1.1-1.9-1.8c-0.4,0.1-0.8,0.2-1.2,0.3c0,0.6,0.1,1.2,0.2,1.8l-0.4,0.1
					c1.2,3.1,6.2,4.7,11,2.8c-0.6-1.1-1-2.3-1-3.6C245.4,480,242.9,480.1,240.7,479.2z"/>
				<path class="st22" d="M266.8,480.8l0.2,0.2c-0.9,0.2-1.9,0.4-2.8,0.5c-3.6,1-6.6,1.5-10.2,0.4c-0.4-0.2-0.7-0.5-1-0.9
					c-2.7-0.5-4.5-0.4-4.8-2.7c0,1.4,0.4,2.7,1.1,3.9l-0.4,0.2c0.9,1.1,2.2,1.8,3.6,2.1c0.9,0.2,1.8,0.4,2.8,0.5
					c1,0.1,2.1,0.1,3.1,0.1c1.1,0,2.2-0.1,3.2-0.3c3-0.3,5.9-1.3,8.5-3c-1-0.2-2-0.6-2.9-1.2L266.8,480.8z"/>
				<path class="st22" d="M236.8,478l-1.3,0.3c0.4,0.4,0.9,0.6,1.4,0.8C236.8,478.7,236.8,478.4,236.8,478z"/>
				<path class="st22" d="M237.5,463.4l-0.2,0.2l0,0L237.5,463.4z"/>
				<path class="st22" d="M235.9,465.7l-0.2,0.4c-0.1,0.3-0.2,0.5-0.4,0.8C235.5,466.5,235.7,466.1,235.9,465.7z"/>
				<path class="st22" d="M237.6,477.7c0.4-0.1,0.8-0.2,1.2-0.3c-0.5-0.8-0.8-1.8-0.8-2.8C237.7,475.6,237.6,476.7,237.6,477.7z"/>
				<path class="st22" d="M238.8,471.5c-1.5,0.5-2.8,0.4-4.6-1.5c-0.2,0.9-0.4,1.8-0.4,2.8c0,0.8,0,1.6,0.1,2.3
					c0.1,0.7,0.3,1.3,0.6,1.9c0.3,0.5,0.6,0.9,1,1.2l1.3-0.3C236.7,475.7,237.4,473.4,238.8,471.5z"/>
				<path class="st22" d="M235.5,467.1l-0.2-0.2c-0.3,0.6-0.6,1.3-0.8,1.9c-0.1,0.4-0.2,0.7-0.3,1.1
					C234.5,469.3,235,468.3,235.5,467.1z"/>
				<path class="st22" d="M237.3,463.6l-0.3,0.5L237.3,463.6L237.3,463.6z"/>
				<path class="st22" d="M265.2,479c0.5,0.6,1,1.2,1.5,1.8l0.5-0.1C266.5,480.1,265.8,479.6,265.2,479L265.2,479z"/>
				<path class="st22" d="M254.2,481.2c-0.4-0.1-0.8-0.2-1.2-0.2c0.3,0.4,0.6,0.7,1,0.9c3.6,1.1,6.6,0.6,10.2-0.4
					C260.9,482,257.5,481.9,254.2,481.2z"/>
				<polygon class="st22" points="246.8,457.8 246.8,457.8 246.8,457.8 				"/>
				<path class="st22" d="M247.9,458.4c-0.4-0.2-0.7-0.4-1.1-0.5l0,0C247.2,458,247.5,458.2,247.9,458.4L247.9,458.4z"/>
				<path class="st22" d="M253.9,463.4L253.9,463.4L253.9,463.4L253.9,463.4z"/>
				<path class="st22" d="M248.3,458.6l-0.4-0.2l0,0L248.3,458.6z"/>
				<path class="st22" d="M254,463.5L254,463.5l0.1,0.1l0.1,0.1L254,463.5z"/>
				<path class="st23" d="M234.2,470L234.2,470L234.2,470z"/>
				<path class="st23" d="M265.1,478.9l-0.4-0.6h-0.1C264.8,478.5,265,478.7,265.1,478.9z"/>
				<path class="st23" d="M260,471.9c1.4,2.3,2.9,4.4,4.7,6.5h0.1c-1.4-1.9-2.9-4.1-4.5-6.5L260,471.9z"/>
				<path class="st23" d="M257.2,467.7l0.2,0.2c0.2,0.4,0.5,0.8,0.8,1.1c0.6,0.9,1.2,1.8,1.8,2.7l0.3,0c-1.1-1.6-2.2-3.2-3.3-4.8
					C257,467.3,257.1,467.5,257.2,467.7z"/>
				<path class="st23" d="M256.9,467c-0.9-1.2-1.8-2.3-2.7-3.4c0.3,0.3,0.5,0.6,0.8,1c0.1,0.1,0.2,0.2,0.2,0.3
					c0.3,0.4,0.7,0.9,1,1.3c0,0.1,0.1,0.1,0.2,0.2l0.8,1.1c0,0.1,0.1,0.1,0.1,0.2C257.1,467.5,257,467.3,256.9,467z"/>
				<path class="st23" d="M234.2,470L234.2,470z"/>
				<path class="st23" d="M250.5,473.7l-0.7,0.1c-0.4,0.7-0.8,1.4-1.3,2c-0.2,0.8-0.3,1.6-0.3,2.4c0.3,2.3,2.1,2.2,4.8,2.7
					c-1.2-1.7-1.2-5-1.3-7.5L250.5,473.7z"/>
				<path class="st23" d="M244.4,477.8c-0.8,0.1-1.9-1.4-2.7-1.4c-0.9,0.4-1.9,0.7-2.8,1c0.5,0.7,1.1,1.4,1.9,1.8
					c2.2,0.9,4.7,0.8,6.8-0.4c0-0.7,0.1-1.4,0.3-2.1C246.8,477.5,245.6,477.9,244.4,477.8z"/>
				<path class="st23" d="M267,481l-0.2-0.2c-0.9,0.3-1.8,0.5-2.6,0.8C265.1,481.4,266.1,481.2,267,481z"/>
				<path class="st23" d="M250.5,473.7l1.2-0.2l0,0L250.5,473.7z"/>
				<path class="st23" d="M249.8,473.9l0.7-0.1L249.8,473.9z"/>
				<path class="st23" d="M243.2,468.2c-0.6,0.4-1.2,0.7-1.9,0.9c-1.5,1.6-2.6,3.5-3.2,5.6c0,1,0.3,1.9,0.8,2.8c1-0.3,1.9-0.6,2.8-1
					c0,0-0.1,0-0.1,0C240.2,473.6,240.9,470.3,243.2,468.2z"/>
				<path class="st23" d="M251.6,471.5c-0.7,0.7-1.3,1.5-1.8,2.4l0.7-0.1l1.2-0.2C251.7,472.7,251.6,472,251.6,471.5z"/>
				<path class="st23" d="M241,469.1c-2.1,0.5-3.9-0.5-5.5-2c-0.6,1.1-1.1,2.2-1.4,2.8l0,0c1.8,1.9,3.1,2,4.6,1.5
					C239.4,470.6,240.2,469.8,241,469.1z"/>
				<path class="st23" d="M254.3,479.1c-2.2-1.1-2.4-3.4-2.6-5.6h-0.1c0.1,2.5,0.1,5.7,1.3,7.5c0.4,0.1,0.8,0.1,1.2,0.2
					c3.3,0.7,6.7,0.8,10,0.3c0.8-0.2,1.7-0.5,2.6-0.8c-0.5-0.5-1-1.1-1.5-1.8C261.7,479.9,257.9,480,254.3,479.1z"/>
				<path class="st23" d="M251.7,473.5"/>
				<path class="st23" d="M251.7,473.5L251.7,473.5c0-0.7,0-1.4-0.1-2C251.6,472,251.7,472.7,251.7,473.5z"/>
				<path class="st23" d="M254.1,463.6c0.3,0.3,0.6,0.7,0.9,1C254.7,464.3,254.5,463.9,254.1,463.6L254.1,463.6z"/>
				<path class="st24" d="M265.3,479L265.3,479l-0.1-0.1L265.3,479L265.3,479z"/>
				<path class="st24" d="M235.3,466.9L235.3,466.9L235.3,466.9z"/>
				<path class="st24" d="M265.2,479L265.2,479L265.2,479L265.2,479z"/>
				<path class="st24" d="M246.8,457.8c0.4,0.2,0.7,0.3,1.1,0.5l0,0C247.5,458.2,247.2,458,246.8,457.8z"/>
				<path class="st24" d="M235.3,466.9L235.3,466.9L235.3,466.9z"/>
				<path class="st24" d="M237.5,463.5c0.3-0.5,0.6-0.9,1-1.4c-0.4,0.4-0.7,0.8-1,1.2l-0.1,0.2L237.5,463.5z"/>
				<path class="st24" d="M253.9,463.4L253.9,463.4c-0.4-0.4-0.7-0.8-1.1-1.2l-0.2-0.2c-0.4-0.4-0.8-0.8-1.2-1.1l-0.2-0.1
					c-0.4-0.3-0.8-0.7-1.2-1l-0.1-0.1c-0.4-0.3-0.9-0.6-1.4-0.9l-0.3-0.2l-0.4-0.2l0,0C250.2,459.7,252.3,461.4,253.9,463.4l0.1,0.1
					L253.9,463.4z"/>
				<path class="st24" d="M254,463.5L254,463.5l0.1,0.2L254,463.5z"/>
				<path class="st24" d="M237.5,463.5h-0.2L237,464c-0.1,0.2-0.2,0.3-0.4,0.5c-0.2,0.3-0.4,0.7-0.6,1l-0.1,0.2
					c-0.2,0.4-0.4,0.8-0.6,1.1l0,0l0.2,0.2C236.1,465.9,236.8,464.6,237.5,463.5z"/>
				<path class="st24" d="M264.6,478.3l0.6,0.6l0-0.1C265,478.7,264.8,478.5,264.6,478.3L264.6,478.3z"/>
				<path class="st24" d="M264.6,478.3L264.6,478.3c-1.7-2-3.3-4.2-4.7-6.5l0,0C261.3,474.1,262.9,476.3,264.6,478.3z"/>
				<path class="st24" d="M260,471.9L260,471.9c-0.6-0.9-1.2-1.8-1.8-2.7L260,471.9z"/>
				<path class="st24" d="M257.2,467.7l0.2,0.2L257.2,467.7L257.2,467.7z"/>
				<path class="st24" d="M257.1,467.6c0,0.1,0.1,0.1,0.1,0.2l0,0C257.2,467.7,257.2,467.6,257.1,467.6z"/>
				<path class="st24" d="M244.6,458.5l-1.1,0.4l0.5-0.2L244.6,458.5z"/>
				<path class="st24" d="M246.8,457.8L246.8,457.8c-0.5,0.1-0.9,0.3-1.4,0.4l0.8-0.2L246.8,457.8z"/>
				<path class="st24" d="M241.1,460.1c-0.4,0.2-0.8,0.5-1.2,0.8l0.4-0.3C240.5,460.5,240.8,460.3,241.1,460.1z"/>
				<path class="st24" d="M242.7,459.3c-0.4,0.2-0.7,0.4-1.1,0.5l0.5-0.2C242.3,459.5,242.5,459.4,242.7,459.3z"/>
				<path class="st24" d="M240.3,460.7l-0.4,0.3l0,0C240,460.9,240.1,460.8,240.3,460.7z"/>
				<path class="st24" d="M242.1,459.6l-0.5,0.2l-0.1,0C241.7,459.8,241.9,459.7,242.1,459.6z"/>
				<path class="st24" d="M246.2,458l-0.8,0.2l-0.2,0.1C245.5,458.2,245.9,458.1,246.2,458z"/>
				<path class="st24" d="M244,458.8l-0.5,0.2l-0.4,0.2L244,458.8z"/>
				<path class="st24" d="M264.6,478.3c-3.4,0.9-6.8,1.1-10.3,0.8c3.6,0.9,7.3,0.8,10.9-0.1l-0.1-0.1L264.6,478.3z"/>
				<path class="st24" d="M246.8,457.8L246.8,457.8l-0.6,0.2L246.8,457.8z"/>
				<path class="st24" d="M239.6,461.2c-0.4,0.3-0.8,0.6-1.1,1C238.8,461.8,239.2,461.5,239.6,461.2L239.6,461.2z"/>
				<path class="st24" d="M242.9,459.2l-0.2,0.1c-0.2,0.1-0.4,0.2-0.6,0.3C242.3,459.5,242.6,459.4,242.9,459.2z"/>
				<path class="st24" d="M244.7,458.5l-0.1,0l-0.5,0.2L244.7,458.5z"/>
				<path class="st24" d="M241.2,460.1L241.2,460.1c-0.4,0.2-0.6,0.4-0.9,0.5C240.6,460.5,240.8,460.3,241.2,460.1z"/>
				<path class="st24" d="M246.8,457.8l-0.6,0.2c-0.3,0.1-0.6,0.2-1,0.3l-0.5,0.2l-0.7,0.3l-1,0.4l-0.2,0.1
					c-0.3,0.1-0.6,0.3-0.8,0.4s-0.4,0.2-0.6,0.3l-0.3,0.2c-0.3,0.2-0.6,0.4-0.9,0.6c-0.1,0.1-0.3,0.2-0.4,0.3l-0.2,0.2
					c-0.4,0.3-0.8,0.6-1.1,1c1.3-1.5,5.1-2.8,9.4-3.8C247.5,458.2,247.1,458,246.8,457.8z"/>
				<path class="st24" d="M248.9,474l-4.7,0.9c-0.8,0.6-1.7,1.1-2.6,1.5c0.9,0,1.9,1.5,2.7,1.4c1.2,0.1,2.4-0.2,3.3-1
					c0.3-1,0.8-1.9,1.5-2.7H248.9z"/>
				<path class="st24" d="M249.4,474c-0.4,0.6-0.7,1.2-0.9,1.9c0.5-0.6,0.9-1.3,1.3-2l-0.2,0L249.4,474z"/>
				<path class="st24" d="M264.6,478.3c-1.7-2-3.3-4.2-4.7-6.5c-3,0.6-5.8,1.2-8.2,1.6c0.1,2.2,0.4,4.6,2.6,5.6
					C257.8,479.5,261.3,479.2,264.6,478.3z"/>
				<path class="st24" d="M249.4,474h0.2H249.4z"/>
				<path class="st24" d="M258.2,469.1c-0.2-0.4-0.5-0.8-0.8-1.1l-0.2-0.2c0.6,1.4,1,2.9,1.2,4.4l-6.7,1.3l0,0
					c2.4-0.5,5.2-1,8.2-1.6L258.2,469.1z"/>
				<path class="st24" d="M248.9,474l0.3-0.1l0,0L248.9,474z"/>
				<path class="st24" d="M247.6,461.4c2.3,0,4.5,0.7,6.3,2c-1.7-2-3.8-3.7-6.1-5c-4.3,1-8.1,2.4-9.4,3.8c-0.4,0.4-0.7,0.9-1,1.4
					C240.9,463,244.3,462.3,247.6,461.4z"/>
				<path class="st24" d="M249.6,473.9l0.2,0l0,0L249.6,473.9z"/>
				<path class="st24" d="M248.9,474l-4.7,0.9L248.9,474z"/>
				<path class="st24" d="M248.9,474l0.3-0.1c0.2-0.2,0.4-0.5,0.6-0.7c-0.2,0.2-0.3,0.4-0.5,0.7h0.2l0.2,0c0.5-0.9,1.1-1.7,1.8-2.4
					c0.1,0.6,0.1,1.3,0.2,2l6.7-1.3c-0.2-1.5-0.6-3-1.2-4.4c0-0.1-0.1-0.1-0.1-0.2l-0.8-1.1c-0.1-0.1-0.1-0.1-0.2-0.2
					c-0.3-0.4-0.6-0.9-1-1.3c-0.1-0.1-0.1-0.2-0.2-0.3c-0.3-0.4-0.6-0.7-0.9-1l-0.2-0.2c-1.8-1.3-4.1-2-6.3-2
					c-3.3,0.9-6.7,1.7-10.1,2.2c-0.6,1-1.3,2.4-2,3.6c1.5,1.5,3.4,2.5,5.5,2c0.5-0.4,0.9-0.7,0.9-0.7s-0.3,0.2-0.6,0.6
					c0.7-0.2,1.3-0.5,1.9-0.9c-2.3,2.1-2.9,5.4-1.6,8.2c0,0,0.1,0,0.1,0c0.9-0.4,1.8-0.9,2.6-1.5L248.9,474z"/>
				<path class="st25" d="M248.8,482.2l-0.4,0.2c0,0.1,0.1,0.1,0.1,0.2l0.4-0.2L248.8,482.2L248.8,482.2z"/>
				<path class="st25" d="M248.8,482.2L248.8,482.2l0.1,0.1L248.8,482.2z"/>
				<path class="st25" d="M248.4,482.4L248.4,482.4l0.4-0.2L248.4,482.4z"/>
				<path class="st25" d="M248.2,478.2L248.2,478.2c-0.2,0.2-0.5,0.4-0.8,0.5c0,1.3,0.4,2.5,1,3.6l0.4-0.1l0,0l0.1,0.1l0.4-0.2
					C248.6,480.9,248.2,479.6,248.2,478.2z"/>
				<path class="st25" d="M247.7,476.7c-0.2,0.7-0.3,1.4-0.3,2.1c0.3-0.2,0.5-0.4,0.8-0.5l0,0c0-0.8,0.1-1.6,0.3-2.4
					C248.3,476.2,248,476.5,247.7,476.7z"/>
				<path class="st25" d="M249.2,474c-0.7,0.8-1.2,1.7-1.5,2.7c0.3-0.3,0.6-0.5,0.8-0.9c0.2-0.7,0.5-1.3,0.9-1.9L249.2,474z"/>
				<path class="st25" d="M249.2,474L249.2,474h0.2l0,0H249.2z"/>
				<path class="st25" d="M249.9,473.3c-0.2,0.2-0.4,0.5-0.6,0.7h0.2C249.5,473.7,249.7,473.5,249.9,473.3z"/>
				<path class="st25" d="M236.9,479.1c0,0.2,0.1,0.4,0.1,0.6l0.2,0c0-0.1,0-0.3,0.1-0.4C237.1,479.2,237,479.1,236.9,479.1z"/>
				<path class="st25" d="M237.3,479.2c0,0.1,0,0.3-0.1,0.4h0.2C237.4,479.5,237.3,479.3,237.3,479.2z"/>
				<path class="st25" d="M236.9,479.1L236.9,479.1c0.1,0,0.2,0.1,0.4,0.1C237.1,479.2,237,479.1,236.9,479.1z"/>
				<path class="st25" d="M237.6,477.7l-0.9,0.2c0,0.4,0,0.7,0.1,1.1c0.1,0,0.2,0.1,0.4,0.1s0.1,0.3,0.1,0.4l0.4-0.1
					C237.7,478.9,237.6,478.3,237.6,477.7z"/>
				<path class="st25" d="M238,474.6c0-1.3,0.5-2.5,1.5-3.3c-0.2,0.1-0.4,0.2-0.7,0.2c-1.4,1.9-2.1,4.1-2,6.4l0.9-0.2
					C237.6,476.7,237.7,475.6,238,474.6z"/>
				<path class="st25" d="M238,474.6c0.6-2.1,1.7-4,3.2-5.6c-0.1,0-0.2,0.1-0.2,0.1c-0.8,0.7-1.6,1.5-2.2,2.4
					c0.2-0.1,0.4-0.1,0.7-0.2C238.5,472.2,238,473.4,238,474.6z"/>
				<path class="st25" d="M241.9,468.5c0,0-0.4,0.2-0.9,0.7c0.1,0,0.1,0,0.2-0.1C241.6,468.7,241.8,468.5,241.9,468.5z"/>
				<path class="st15" d="M182,404.7c-13,6.8-24.6,10.1-25.9,7.5s8.1-10.2,21-16.9s24.6-10.1,25.9-7.5S194.9,397.9,182,404.7z"/>
				<path class="st31" d="M180.4,401.7c-4.9,2.5-9.3,3.8-9.8,2.8s3-3.8,7.9-6.4s9.3-3.8,9.8-2.8S185.3,399.2,180.4,401.7z"/>
			</g>
		</g>
	</g>
</g>
</svg>
