<?xml version="1.0" encoding="utf-8"?>
<!-- Generator: Adobe Illustrator 25.2.3, SVG Export Plug-In . SVG Version: 6.00 Build 0)  -->
<svg version="1.1" id="Layer_1" xmlns="http://www.w3.org/2000/svg" xmlns:xlink="http://www.w3.org/1999/xlink" x="0px" y="0px"
	 viewBox="0 0 381.8 619.1" style="enable-background:new 0 0 381.8 619.1;" xml:space="preserve">
<style type="text/css">
	.st0{fill:#F5D8D3;}
	.st1{fill:#FDF7F6;}
	.st2{fill:#EFECDF;}
	.st3{fill:#DE8171;}
	.st4{fill:#FFFFFF;}
	.st5{fill:#E3DCAA;}
	.st6{fill:#F5D9D4;}
	.st7{fill:#F9F8FC;}
	.st8{fill:#F1EFF8;}
	.st9{fill:#F8F7FB;}
	.st10{fill:#F8E5E1;}
	.st11{fill:#ECB5AB;}
	.st12{fill:#F8E6E3;}
	.st13{fill:#FAECEA;}
	.st14{fill:#CAC4E6;}
	.st15{fill:#C5BEE3;}
	.st16{fill:#BCB4DF;}
	.st17{fill:#F6F4E3;}
	.st18{fill:#DED69B;}
	.st19{fill:#CFCAE9;}
	.st20{clip-path:url(#SVGID_2_);}
	.st21{fill:#BBB3DF;}
	.st22{fill:#FBFAFD;}
	.st23{fill:#E3DDAB;}
	.st24{fill:#EAE7F5;}
</style>
<g id="Layer_2_1_">
	<g id="Layer_1-2">
		<path class="st0" d="M381.8,23.5v572.2c0,12.9-10.9,23.5-24.4,23.5h-333C10.9,619.1,0,608.6,0,595.7V23.5C0,10.5,10.9,0,24.4,0
			h333C370.8,0,381.8,10.5,381.8,23.5z M361.3,582.1v-545c0-9.7-7.9-17.6-17.6-17.6H38c-9.7,0-17.5,7.9-17.5,17.6v545
			c0,9.7,7.9,17.5,17.5,17.5h305.7C353.4,599.6,361.3,591.8,361.3,582.1z"/>
		<path class="st1" d="M38,19.5h305.7c9.7,0,17.6,7.9,17.6,17.6v545c0,9.7-7.9,17.6-17.6,17.6H38c-9.7,0-17.6-7.9-17.6-17.6v-545
			C20.5,27.4,28.3,19.5,38,19.5z"/>
		<path class="st2" d="M86.9,76h209.5c22.2,0,40.3,18,40.3,40.3v312.3c0,22.2-18,40.3-40.3,40.3H86.9c-22.2,0-40.3-18-40.3-40.3
			V116.2C46.6,94,64.6,76,86.9,76z"/>
		<path class="st3" d="M118.2,547c-0.2-0.2-0.3-0.5-0.2-0.7v-14.9h-4.8c-0.4,0.1-0.9-0.1-1-0.5c0-0.2,0-0.3,0-0.5v-0.7
			c0-0.3,0-0.5,0.2-0.8c0.2-0.2,0.5-0.3,0.8-0.2h13.1c0.3,0,0.6,0.1,0.8,0.2c0.2,0.2,0.2,0.5,0.2,0.8v0.7c0,0.3-0.1,0.5-0.2,0.7
			c-0.2,0.2-0.5,0.2-0.8,0.2h-4.8v15c0,0.3-0.1,0.5-0.2,0.7c-0.2,0.2-0.5,0.3-0.8,0.2H119C118.7,547.2,118.5,547.2,118.2,547z"/>
		<path class="st3" d="M129.6,547c-0.2-0.2-0.2-0.5-0.2-0.7v-16.6c0-0.3,0.1-0.6,0.2-0.8c0.2-0.2,0.5-0.3,0.8-0.2h1.4
			c0.3,0,0.6,0.1,0.8,0.2c0.2,0.2,0.3,0.5,0.2,0.8v6.9h9v-6.9c0-0.3,0.1-0.6,0.2-0.8c0.2-0.2,0.5-0.3,0.8-0.2h1.4
			c0.3,0,0.6,0.1,0.8,0.2c0.2,0.2,0.3,0.5,0.2,0.8v16.6c0,0.3-0.1,0.5-0.2,0.7c-0.2,0.2-0.5,0.3-0.8,0.2H143c-0.3,0-0.6-0.1-0.8-0.2
			c-0.2-0.2-0.3-0.5-0.2-0.7v-7.1h-9v7.1c0,0.3-0.1,0.5-0.2,0.7c-0.2,0.2-0.5,0.3-0.8,0.2h-1.4C130.2,547.3,129.9,547.2,129.6,547z"
			/>
		<path class="st3" d="M148.9,547c-0.2-0.2-0.3-0.5-0.2-0.7v-16.6c0-0.3,0.1-0.6,0.2-0.8c0.2-0.2,0.5-0.3,0.8-0.2h11.4
			c0.3,0,0.5,0,0.8,0.2c0.2,0.2,0.2,0.5,0.2,0.7v0.7c0,0.3,0,0.5-0.2,0.8c-0.2,0.2-0.5,0.3-0.8,0.2h-8.9v5.3h6.5
			c0.3,0,0.6,0,0.8,0.2c0.2,0.2,0.2,0.5,0.2,0.7v0.7c0,0.3-0.1,0.5-0.2,0.8c-0.2,0.2-0.5,0.3-0.8,0.2h-6.5v5.3h8.8
			c0.3,0,0.6,0,0.8,0.2c0.2,0.2,0.2,0.5,0.2,0.8v0.7c0,0.3-0.1,0.5-0.2,0.7c-0.2,0.2-0.5,0.2-0.8,0.2h-11.3
			C149.4,547.3,149.1,547.2,148.9,547z"/>
		<path class="st3" d="M175.3,547c-0.2-0.2-0.3-0.5-0.2-0.7v-16.6c0-0.3,0.1-0.6,0.2-0.8c0.2-0.2,0.5-0.3,0.8-0.2h1.4
			c0.3,0,0.6,0.1,0.8,0.2c0.2,0.2,0.3,0.5,0.2,0.8v6.9h9v-6.9c0-0.3,0.1-0.6,0.2-0.8c0.2-0.2,0.5-0.3,0.8-0.2h1.4
			c0.3,0,0.6,0.1,0.8,0.2c0.2,0.2,0.3,0.5,0.2,0.8v16.6c0,0.3-0.1,0.5-0.2,0.7c-0.2,0.2-0.5,0.3-0.8,0.2h-1.4
			c-0.3,0-0.6-0.1-0.8-0.2c-0.2-0.2-0.3-0.5-0.2-0.7v-7.1h-9v7.1c0,0.3-0.1,0.5-0.2,0.7c-0.2,0.2-0.5,0.3-0.8,0.2h-1.4
			C175.8,547.3,175.5,547.2,175.3,547z"/>
		<path class="st3" d="M194.6,547c-0.2-0.2-0.3-0.5-0.2-0.7v-16.6c0-0.3,0.1-0.6,0.2-0.8c0.2-0.2,0.5-0.3,0.8-0.2h11.4
			c0.3,0,0.5,0,0.8,0.2c0.2,0.2,0.2,0.5,0.2,0.7v0.7c0,0.3,0,0.5-0.2,0.8c-0.2,0.2-0.5,0.3-0.8,0.2h-8.9v5.3h6.5
			c0.3,0,0.6,0,0.8,0.2c0.2,0.2,0.2,0.5,0.2,0.7v0.7c0,0.3-0.1,0.5-0.2,0.8c-0.2,0.2-0.5,0.3-0.8,0.2h-6.5v5.3h8.9
			c0.3,0,0.6,0,0.8,0.2c0.2,0.2,0.2,0.5,0.2,0.8v0.7c0,0.3-0.1,0.5-0.2,0.7c-0.2,0.2-0.5,0.3-0.8,0.2h-11.4
			C195,547.3,194.8,547.2,194.6,547z"/>
		<path class="st3" d="M210.3,547c-0.2-0.2-0.3-0.5-0.2-0.7v-16.6c0-0.3,0.1-0.6,0.2-0.8c0.2-0.2,0.5-0.3,0.8-0.2h7.1
			c1.7-0.1,3.5,0.4,4.8,1.5c1.2,1.1,1.8,2.7,1.7,4.4c0,1.2-0.3,2.3-0.9,3.3c-0.7,0.9-1.6,1.6-2.6,2l3,6.7c0.1,0.1,0.1,0.2,0.1,0.3
			c0,0.3-0.2,0.4-0.5,0.4h-2.2c-0.2,0-0.4,0-0.5-0.1c-0.1-0.1-0.2-0.2-0.3-0.4l-2.7-6.4h-4.4v6c0,0.3-0.1,0.5-0.2,0.7
			c-0.2,0.2-0.5,0.3-0.8,0.2h-1.4C210.8,547.3,210.5,547.2,210.3,547z M217.5,537.6c1,0.1,2-0.2,2.8-0.7c0.7-0.6,1-1.5,0.9-2.4
			c0.1-0.9-0.2-1.8-0.8-2.4c-0.7-0.6-1.6-0.8-2.5-0.8h-4.4v6.3L217.5,537.6z"/>
		<path class="st3" d="M227.6,547c-0.2-0.2-0.2-0.5-0.2-0.7v-16.6c0-0.3,0.1-0.6,0.2-0.8c0.2-0.2,0.5-0.3,0.8-0.2h1.5
			c0.2,0,0.5,0,0.7,0.1c0.2,0.1,0.3,0.3,0.4,0.4l5.5,12.7l5.5-12.7c0.1-0.2,0.2-0.3,0.4-0.4c0.2-0.1,0.4-0.1,0.7-0.1h1.5
			c0.3,0,0.6,0.1,0.8,0.2c0.2,0.2,0.3,0.5,0.2,0.8v16.6c0.1,0.5-0.2,0.9-0.7,1c-0.1,0-0.2,0-0.3,0h-1.2c-0.3,0-0.6-0.1-0.8-0.2
			c-0.2-0.2-0.3-0.5-0.2-0.7v-11.8l-4.7,10.4c-0.1,0.2-0.3,0.4-0.4,0.6c-0.2,0.1-0.5,0.2-0.7,0.2c-0.3,0-0.5,0-0.7-0.2
			c-0.2-0.2-0.3-0.4-0.4-0.6l-4.7-10.4v11.8c0,0.3-0.1,0.5-0.2,0.7c-0.2,0.2-0.5,0.3-0.8,0.2h-1.2
			C228.1,547.3,227.9,547.2,227.6,547z"/>
		<path class="st3" d="M249.1,547c-0.2-0.2-0.2-0.5-0.2-0.7v-16.6c0-0.3,0.1-0.6,0.2-0.8c0.2-0.2,0.5-0.3,0.8-0.2h1.5
			c0.3,0,0.6,0.1,0.8,0.2c0.2,0.2,0.3,0.5,0.2,0.8v16.6c0,0.3-0.1,0.5-0.2,0.7c-0.2,0.2-0.5,0.3-0.8,0.2h-1.5
			C249.6,547.3,249.3,547.2,249.1,547z"/>
		<path class="st3" d="M260.5,547c-0.2-0.2-0.3-0.5-0.2-0.7v-14.9h-4.8c-0.3,0-0.5,0-0.8-0.2c-0.2-0.2-0.2-0.5-0.2-0.7v-0.7
			c0-0.3,0-0.5,0.2-0.8c0.2-0.2,0.5-0.3,0.8-0.2h13.1c0.3,0,0.6,0.1,0.8,0.2c0.2,0.2,0.3,0.5,0.2,0.8v0.7c0,0.3-0.1,0.5-0.2,0.7
			c-0.2,0.2-0.5,0.2-0.8,0.2h-4.8v15c0,0.3-0.1,0.5-0.2,0.7c-0.2,0.2-0.5,0.3-0.8,0.2h-1.4C261,547.3,260.7,547.2,260.5,547z"/>
		<path class="st4" d="M155.6,213.6l-90.9-1.1c-6.5-0.1-11.7-5.4-11.6-11.9l0,0c0.1-6.5,5.4-11.7,11.9-11.6l90.9,1
			c6.5,0.1,11.7,5.4,11.7,11.9c0,0,0,0,0,0l0,0C167.4,208.5,162,213.7,155.6,213.6z"/>
		
			<ellipse transform="matrix(0.9885 -0.1513 0.1513 0.9885 -26.676 17.0787)" class="st4" cx="98.9" cy="183.8" rx="29.2" ry="29.2"/>
		
			<ellipse transform="matrix(0.1675 -0.9859 0.9859 0.1675 -80.894 289.302)" class="st4" cx="130.9" cy="192.6" rx="20.8" ry="20.8"/>
		<path class="st4" d="M241,137.2l64.1-0.7c4.6-0.1,8.2-3.8,8.2-8.4l0,0c-0.1-4.6-3.8-8.2-8.4-8.2l-64.1,0.7
			c-4.6,0.1-8.2,3.8-8.2,8.4l0,0C232.7,133.6,236.4,137.2,241,137.2z"/>
		
			<ellipse transform="matrix(0.4449 -0.8956 0.8956 0.4449 51.9635 316.0868)" class="st4" cx="281" cy="116.1" rx="20.6" ry="20.6"/>
		<path class="st4" d="M243.8,122.5c0.1,8.1,6.7,14.6,14.8,14.5c8.1-0.1,14.6-6.7,14.5-14.8c-0.1-8.1-6.7-14.6-14.8-14.5
			C250.1,107.7,243.7,114.4,243.8,122.5C243.7,122.5,243.7,122.5,243.8,122.5z"/>
		<polygon class="st5" points="46.6,281.8 91.3,259.8 131,297.3 151,278.6 203.8,288.9 241.8,297.3 269.4,274.3 296.2,288.9 
			336.6,259.8 336.6,342.6 46.6,342.6 		"/>
		<path class="st6" d="M119.6,251c-15.7,0-29.9-9.9-42.3-29.3c-2.5-4-1.4-9.2,2.6-11.8c4-2.5,9.2-1.4,11.8,2.6
			c9.2,14.4,18.7,21.6,28.2,21.5c18.2-0.2,34-25.8,34.1-26c2.3-4.1,7.6-5.5,11.6-3.1c4.1,2.3,5.5,7.6,3.1,11.6
			c-0.1,0.1-0.1,0.2-0.2,0.3c-0.8,1.3-20.6,33.8-48.5,34.3H119.6z"/>
		<path class="st5" d="M307.2,448.6H77.7c-11.1,0-20.1-9-20.1-20.1l0,0c0-11.1,9-20.1,20.1-20.1h229.5c11.1,0,20.1,9,20.1,20.1l0,0
			C327.3,439.6,318.3,448.6,307.2,448.6z"/>
		<path class="st7" d="M196.5,185.8L196.5,185.8c30.7,0,55.5,24.9,55.5,55.5l0,0v188.5l0,0H141l0,0V241.3
			C141,210.7,165.9,185.8,196.5,185.8C196.5,185.8,196.5,185.8,196.5,185.8z"/>
		<path class="st7" d="M142.5,393.6c0,0-6.2,33.4-27.2,45.7c0,0,17,12.8,36.2,3.4c4-2,8.3-3.3,12.7-3.8c4.7-0.4,6.7,1.4,10.8,3.1
			c6.2,2.5,12.9,1.1,19.4,1.8s13.8,1.9,20.1-0.4c8.4-3,13.3-4.2,22.6-4.3c6.5-0.2,13.1,0.6,19.3,2.6c5.3,1.5,15.6-3.4,20.4-6.2
			c-5.1,2.9-13.7-11.9-15.3-15c-4.3-8.3-10.2-13.2-10.2-22.5L142.5,393.6z"/>
		<path class="st7" d="M155.8,203.7c-23.3,29.7-45,23.6-45,23.6l-7.9,23.7c0,0,24.4,51.6,52.9,56.9l-4.4-56.6
			c2.7-1.5,4.4-2.6,4.4-2.6L155.8,203.7z"/>
		<path class="st8" d="M141.1,326.1c0,0,48.4-2.3,112.2-60.3c0,0-26.4,58.9-112.3,92L141.1,326.1z"/>
		<path class="st9" d="M140.9,387.5c0,0,59.9-4.2,112.4-121.7c0,0-26.4,115.7-112.3,148.8L140.9,387.5z"/>
		<rect x="75.6" y="281.8" class="st10" width="15.8" height="6.1"/>
		<rect x="70.8" y="236.9" class="st11" width="27.2" height="3.9"/>
		<rect x="70.7" y="221.7" class="st11" width="27.2" height="3.9"/>
		<path class="st10" d="M91.4,221.7v-2.8c0-1.9-2.1-3.5-4.7-3.5h-4.5c-2.6,0-4.7,1.6-4.7,3.5v2.8H91.4z"/>
		<polygon class="st10" points="70.7,291.8 62.3,305.5 108.3,305.5 97.9,291.8 		"/>
		<polygon class="st12" points="73.2,225.6 95.7,225.6 93.6,232 98,236.9 70.8,236.9 75.6,232.1 		"/>
		<path class="st11" d="M110,308.5c0,1.7-1.3,3-3,3H62.5c-1.7,0-3-1.3-3-3l0,0c0-1.7,1.3-3,3-3H107C108.7,305.5,110,306.8,110,308.5
			z"/>
		<rect x="70.7" y="287.9" class="st11" width="27.2" height="3.9"/>
		<path class="st11" d="M98,287.9c0,0,15.4-0.2,0-62.3v-3.9c0,0,26.9,67.9,0,70.1V287.9z"/>
		<path class="st11" d="M70.7,287.9c0,0-15.3-0.2,0.1-62.3v-3.9c0,0-27,67.9-0.1,70.1V287.9z"/>
		<path class="st12" d="M179.3,197.9h6c1.4,0,2.4,1.1,2.4,2.4v0.6c0,1.4-1.1,2.4-2.4,2.4h-6c-1.4,0-2.4-1.1-2.4-2.4v-0.6
			C176.9,199,178,197.9,179.3,197.9z"/>
		<path class="st13" d="M70.8,240.8c0,0-9,31,4.8,41h15.8c0,0,14.2-6.9,6.7-41H70.8z"/>
		<path class="st13" d="M94.5,260.3c0,5.5-4.5,10-10,10s-10-4.5-10-10c0-5.5,4.5-10,10-10S94.5,254.7,94.5,260.3z"/>
		<path class="st14" d="M106.7,190.9c-1.9-1.3-4.2-0.1-5.4,1.6c-2.6,3.7-2.1,10-0.9,13.9c1.6,4.8,3.9,9.4,6.8,13.6
			c1.9,2.7,4.2,6.9,6.8,9c0.2-8.5-1.2-16.6-2.6-25c-0.4-3.1-1.1-6.2-2.2-9.2C108.7,193.2,108.1,191.3,106.7,190.9z"/>
		<path class="st15" d="M110.9,172.6c4.1-5.4,20.5-6.4,26-5.1s6.9,6.7,8.9,11.1c2.9,6.4,4.1,13.2,5.5,20c1.1,5.5,2.8,10.9,1.4,16.5
			c-3.2,12.9-21.6,15.1-33.1,13.5c-3.2-0.4-5.2-0.7-7.6-2.4c-3.1-2.1-3.6-6-4.6-9.1c-1.7-5.7-2.5-14.7-2.4-20.7
			c0.1-6.1,1-12.2,2.9-18c0.2-1.2,0.7-2.3,1.3-3.2C109.8,174.3,111.8,170.9,110.9,172.6z"/>
		<path class="st14" d="M147.4,185.1c1.6-1.7,4.1-1.1,5.7,0.3c3.4,2.9,4.4,9.2,4.1,13.3c-0.4,5.1-1.6,10.1-3.4,14.8
			c-1.2,3.1-2.5,7.7-4.6,10.4c-2.2-8.2-2.7-16.4-3.3-24.9c-0.4-3.2-0.4-6.3,0-9.5C146.1,187.8,146.2,185.8,147.4,185.1z"/>
		<path class="st16" d="M126,179.8c0.6,4.1,4.4,6.9,8.4,6.3c4.1-0.6,6.9-4.4,6.3-8.4c-0.6-4.1-4.4-6.9-8.4-6.3
			C128.2,171.9,125.4,175.7,126,179.8C126,179.8,126,179.8,126,179.8z"/>
		<path class="st17" d="M127.6,178.4c0.4,2.9,3.1,4.9,6,4.5c2.9-0.4,4.9-3.1,4.5-6c-0.4-2.9-3.1-4.9-6-4.5c0,0,0,0,0,0
			C129.2,172.9,127.2,175.6,127.6,178.4z"/>
		<path class="st18" d="M129.6,177.7c0.3,1.8,1.9,3,3.7,2.8c1.8-0.3,3-1.9,2.8-3.7c-0.3-1.8-1.9-3-3.7-2.8
			C130.5,174.2,129.3,175.9,129.6,177.7z"/>
		<path class="st16" d="M122.7,180.2c0.6,4.1-2.2,7.9-6.3,8.5c-4.1,0.6-7.9-2.2-8.5-6.3c-0.6-4.1,2.2-7.9,6.3-8.5c0,0,0,0,0,0
			C118.3,173.3,122.1,176.2,122.7,180.2C122.7,180.2,122.7,180.2,122.7,180.2z"/>
		<path class="st17" d="M120.8,179.4c0.4,2.9-1.6,5.6-4.5,6c-2.9,0.4-5.6-1.6-6-4.5c-0.4-2.9,1.6-5.6,4.5-6c0,0,0,0,0,0
			C117.7,174.5,120.4,176.5,120.8,179.4z"/>
		<path class="st18" d="M118.7,179.3c0.3,1.8-1,3.5-2.8,3.7s-3.5-1-3.7-2.8s1-3.5,2.8-3.7c0,0,0,0,0,0
			C116.8,176.2,118.5,177.5,118.7,179.3C118.7,179.2,118.7,179.3,118.7,179.3z"/>
		<path class="st19" d="M126.9,164.7c5-3.4,8.5-6.4,10.3-12.1c1,0.5,1.8,1.5,2.2,2.6c0.2-0.6,0.5-1.2,0.8-1.7c1,1,3,12.3,0.3,16.1
			c-1.1,2.4-2.9,4.4-5.1,5.8c-2.5,1.6-4.4,3.1-7.5,2.9c-2.3-0.2-2.3,0.1-4.1-0.9C118.2,172.6,123.6,167,126.9,164.7z"/>
		<path class="st19" d="M116.3,166.1c-5.4-1.7-9.4-3.3-12.6-8.2c-0.8,0.9-1.2,2-1.2,3.1c-0.3-0.5-0.7-0.9-1.2-1.4
			c-0.7,1.2,0.8,12.6,4.2,15.3c1.6,1.9,3.8,3.3,6.2,3.8c2.7,0.7,4.9,1.5,7.6,0.3c2.1-0.9,2.1-0.7,3.4-2.1
			C126.3,170.7,120,167.2,116.3,166.1z"/>
		<path class="st17" d="M124.4,183.9c-0.6,0.5-1.1,1.1-1.4,1.9c-0.5,0.9-0.4,1.9,0.1,2.8c0.6,0.7,1.3,1.4,2,2c0.6-1.1,2-2.3,1.9-3.7
			c0-0.7-0.7-1.2-1.2-1.6S124.4,183.9,124.4,183.9z"/>
		<g>
			<defs>
				<path id="SVGID_1_" d="M110.9,172.6c4.1-5.4,20.5-6.4,26-5.1s6.9,6.7,8.9,11.1c2.9,6.4,4.1,13.2,5.5,20
					c1.1,5.5,2.8,10.9,1.4,16.5c-3.2,12.9-21.6,15.1-33.1,13.5c-3.2-0.4-5.2-0.7-7.6-2.4c-3.1-2.1-3.6-6-4.6-9.1
					c-1.7-5.7-2.5-14.7-2.4-20.7c0.1-6.1,1-12.2,2.9-18c0.2-1.2,0.7-2.3,1.3-3.2C109.8,174.3,111.8,170.9,110.9,172.6z"/>
			</defs>
			<clipPath id="SVGID_2_">
				<use xlink:href="#SVGID_1_"  style="overflow:visible;"/>
			</clipPath>
			<g class="st20">
				<path class="st21" d="M143.5,226.9c1.2-1.3,1.6-4,1.9-5.6c0.7-3.4-0.5-5.9-1.2-9.2c-1.2-5.1-3.5-10.5-7.4-14.2
					c-2.6-2.7-6.2-4.4-10-4.5c-3.6-0.1-6.7,0.2-9.5,2.7c-1.3,1.4-2.3,2.9-3.2,4.6c-0.9,1.8-1.4,3.7-1.5,5.7
					c-0.5,4.6-0.1,9.3,1.2,13.8c0.9,3,2.4,7.1,4.7,9.2c3.4,3.2,9.3,1.9,13.6,1.6c3.4-0.3,6.8-0.5,9.4-2.7c0.4-0.4,0.9-0.7,1.5-0.9
					C143.9,227.3,144.9,227.4,143.5,226.9z"/>
			</g>
		</g>
		<path class="st15" d="M132.4,204.6c-0.4,0-0.7-0.1-0.9-0.4c-0.3-0.4-0.6-0.8-1-1.2c-0.5-0.6-1-1.2-1.5-1.9
			c-0.3-0.4-0.2-1.1,0.2-1.4c0,0,0.1,0,0.1-0.1c0.5-0.3,1.1-0.2,1.5,0.3c0.4,0.6,0.8,1.2,1.3,1.7l0.1,0.1c0.3-0.4,0.6-0.9,0.8-1.5
			c0-0.6,0.5-1,1.1-1s1,0.5,1,1.1c0,0.1,0,0.3-0.1,0.4c-0.2,0.8-0.6,1.5-1.1,2.2c-0.2,0.3-0.4,0.7-0.6,1.1
			C133.1,204.3,132.8,204.5,132.4,204.6L132.4,204.6z"/>
		<path class="st15" d="M125.8,205c-0.4,0-0.7-0.1-0.9-0.4c-0.3-0.4-0.6-0.8-1-1.2c-0.5-0.6-1-1.2-1.5-1.9c-0.3-0.5-0.2-1.1,0.3-1.4
			c0.5-0.3,1.1-0.2,1.5,0.3c0.4,0.6,0.9,1.1,1.3,1.7l0.1,0.1c0.3-0.4,0.6-0.9,0.8-1.5c0.2-0.5,0.9-0.8,1.4-0.5
			c0.4,0.2,0.6,0.6,0.6,1c-0.2,0.8-0.6,1.5-1.1,2.2c-0.2,0.3-0.5,0.7-0.6,1.1C126.5,204.7,126.2,205,125.8,205z"/>
		<path class="st15" d="M119.8,205.9c-0.4,0-0.7-0.1-0.9-0.4c-0.3-0.4-0.6-0.8-1-1.2c-0.5-0.6-1-1.2-1.5-1.9
			c-0.3-0.5-0.2-1.1,0.3-1.5c0,0,0,0,0,0c0.4-0.3,1.1-0.2,1.4,0.2c0,0,0,0.1,0.1,0.1c0.4,0.6,0.8,1.2,1.3,1.7l0.1,0.1
			c0.3-0.4,0.6-0.9,0.8-1.5c0-0.6,0.5-1,1.1-1c0.6,0,1,0.5,1,1.1c0,0.1,0,0.3-0.1,0.4c-0.2,0.8-0.6,1.5-1.1,2.2
			c-0.2,0.3-0.4,0.7-0.6,1.1C120.6,205.6,120.2,205.9,119.8,205.9L119.8,205.9z"/>
		<path class="st15" d="M135.3,224.6c-0.4,0-0.7-0.1-0.9-0.4c-0.3-0.4-0.6-0.8-1-1.2c-0.5-0.6-1-1.2-1.5-1.9
			c-0.3-0.5-0.2-1.1,0.3-1.5c0.5-0.3,1.1-0.2,1.5,0.3c0.4,0.6,0.8,1.2,1.3,1.7l0.1,0.1c0.3-0.4,0.6-0.9,0.8-1.5
			c0.1-0.5,0.6-0.9,1.2-0.8c0,0,0.1,0,0.1,0c0.6,0.1,0.9,0.7,0.8,1.3c0,0,0,0,0,0c-0.2,0.8-0.6,1.5-1.1,2.2
			c-0.2,0.3-0.5,0.7-0.6,1.1C136,224.3,135.7,224.5,135.3,224.6L135.3,224.6z"/>
		<path class="st15" d="M128.7,225.1c-0.4,0-0.7-0.1-0.9-0.4c-0.3-0.4-0.6-0.8-1-1.2c-0.5-0.6-1-1.2-1.5-1.9
			c-0.3-0.5-0.1-1.2,0.4-1.4c0.5-0.2,1-0.1,1.3,0.3c0.4,0.6,0.8,1.2,1.3,1.7l0.1,0.1c0.3-0.4,0.6-0.9,0.8-1.5
			c0.3-0.5,0.9-0.7,1.4-0.5c0.4,0.2,0.6,0.6,0.6,1c-0.2,0.8-0.6,1.5-1.1,2.2c-0.2,0.3-0.5,0.7-0.6,1.1
			C129.3,224.8,129,225,128.7,225.1L128.7,225.1z"/>
		<path class="st15" d="M122.7,225.9c-0.4,0-0.7-0.1-0.9-0.4c-0.3-0.4-0.6-0.8-1-1.2c-0.5-0.6-1-1.2-1.5-1.9
			c-0.3-0.5-0.2-1.1,0.3-1.5c0.5-0.3,1.1-0.2,1.5,0.3l0,0c0.4,0.6,0.8,1.2,1.3,1.7l0.1,0.1c0.3-0.4,0.6-0.9,0.8-1.5
			c0-0.6,0.5-1.1,1.1-1s1.1,0.5,1,1.1c0,0.2,0,0.3-0.1,0.5c-0.2,0.8-0.6,1.5-1.1,2.2c-0.2,0.3-0.5,0.7-0.6,1.1
			C123.4,225.6,123.1,225.9,122.7,225.9L122.7,225.9z"/>
		<path class="st15" d="M136.7,210.8c-0.4,0-0.7-0.1-0.9-0.4c-0.3-0.4-0.6-0.8-1-1.2c-0.5-0.6-1-1.2-1.5-1.9
			c-0.3-0.5-0.2-1.1,0.3-1.5c0,0,0,0,0,0c0.4-0.3,1.1-0.2,1.4,0.2c0,0,0,0.1,0.1,0.1c0.4,0.6,0.8,1.2,1.3,1.7l0.1,0.1
			c0.3-0.4,0.6-0.9,0.8-1.5c0.1-0.5,0.6-0.9,1.2-0.8c0,0,0.1,0,0.1,0c0.6,0.1,0.9,0.7,0.8,1.3c0,0,0,0,0,0c-0.2,0.8-0.6,1.5-1.1,2.2
			c-0.2,0.3-0.5,0.7-0.6,1.1C137.4,210.5,137.1,210.7,136.7,210.8L136.7,210.8z"/>
		<path class="st15" d="M130.1,211.2c-0.4,0-0.7-0.1-0.9-0.4c-0.3-0.4-0.6-0.8-1-1.2c-0.5-0.6-1-1.2-1.5-1.9
			c-0.3-0.5-0.2-1.1,0.3-1.5c0.5-0.3,1.1-0.2,1.5,0.3l0,0c0.4,0.6,0.8,1.2,1.3,1.7l0.1,0.1c0.3-0.4,0.6-0.9,0.8-1.5
			c0.3-0.5,0.9-0.7,1.4-0.5c0.4,0.2,0.6,0.6,0.6,1c-0.2,0.8-0.6,1.5-1.1,2.2c-0.2,0.3-0.5,0.7-0.6,1.1
			C130.8,210.9,130.4,211.2,130.1,211.2L130.1,211.2z"/>
		<path class="st15" d="M124.2,212.1c-0.4,0-0.7-0.1-0.9-0.4c-0.3-0.4-0.6-0.8-1-1.2c-0.5-0.6-1-1.2-1.5-1.9
			c-0.3-0.5-0.2-1.1,0.3-1.4c0.5-0.3,1.1-0.2,1.5,0.3c0.4,0.6,0.8,1.2,1.3,1.7l0.1,0.1c0.3-0.4,0.6-0.9,0.8-1.5c0-0.6,0.5-1,1.1-1
			c0.6,0,1,0.5,1,1.1c0,0.1,0,0.3-0.1,0.4c-0.2,0.8-0.6,1.5-1.1,2.2c-0.2,0.3-0.5,0.7-0.6,1.1C124.9,211.8,124.5,212,124.2,212.1z"
			/>
		<path class="st15" d="M117.7,213c-0.4,0-0.7-0.1-0.9-0.4c-0.3-0.4-0.6-0.8-1-1.2c-0.5-0.6-1-1.2-1.5-1.9c-0.3-0.5-0.2-1.1,0.3-1.5
			c0,0,0,0,0,0c0.4-0.3,1.1-0.2,1.4,0.2c0,0,0,0.1,0.1,0.1c0.4,0.6,0.8,1.2,1.3,1.7l0.1,0.1c0.3-0.4,0.6-0.9,0.8-1.5
			c0.2-0.5,0.9-0.8,1.4-0.5c0.4,0.2,0.6,0.6,0.6,1c-0.2,0.8-0.6,1.5-1.1,2.2c-0.2,0.3-0.4,0.7-0.6,1.1
			C118.4,212.7,118.1,213,117.7,213L117.7,213z"/>
		<path class="st15" d="M137.2,217.7c-0.4,0-0.7-0.1-0.9-0.4c-0.3-0.4-0.6-0.8-1-1.2c-0.5-0.6-1-1.2-1.5-1.9
			c-0.3-0.5-0.2-1.1,0.3-1.5c0,0,0,0,0,0c0.4-0.3,1.1-0.2,1.4,0.2c0,0,0,0.1,0.1,0.1c0.4,0.6,0.8,1.2,1.3,1.7l0.1,0.1
			c0.3-0.4,0.6-0.9,0.8-1.5c0.2-0.5,0.9-0.8,1.4-0.5c0.4,0.2,0.6,0.6,0.6,1c-0.2,0.8-0.6,1.5-1.1,2.2c-0.2,0.3-0.4,0.7-0.6,1.1
			C138,217.4,137.6,217.6,137.2,217.7L137.2,217.7z"/>
		<path class="st15" d="M130.6,218.1c-0.4,0-0.7-0.1-0.9-0.4c-0.3-0.4-0.6-0.8-1-1.2c-0.5-0.6-1-1.2-1.5-1.9
			c-0.3-0.5-0.2-1.1,0.3-1.5c0.5-0.3,1.1-0.2,1.5,0.3l0,0c0.4,0.6,0.8,1.2,1.3,1.7l0.1,0.1c0.3-0.4,0.6-0.9,0.8-1.5
			c0.3-0.5,0.9-0.7,1.4-0.5c0.4,0.2,0.6,0.6,0.6,1c-0.2,0.8-0.6,1.5-1.1,2.2c-0.2,0.3-0.5,0.7-0.6,1.1
			C131.3,217.8,131,218.1,130.6,218.1L130.6,218.1z"/>
		<path class="st15" d="M124.7,219c-0.4,0-0.7-0.1-0.9-0.4c-0.3-0.4-0.6-0.8-1-1.2c-0.5-0.6-1-1.2-1.5-1.9c-0.3-0.5-0.2-1.1,0.3-1.4
			c0.5-0.3,1.1-0.2,1.5,0.3c0.4,0.6,0.9,1.1,1.3,1.7l0.1,0.1c0.3-0.4,0.6-0.9,0.8-1.5c0-0.6,0.5-1,1.1-1c0.6,0,1,0.5,1,1.1
			c0,0.1,0,0.3-0.1,0.4c-0.2,0.8-0.6,1.5-1.1,2.2c-0.2,0.3-0.5,0.7-0.6,1.1C125.4,218.7,125.1,219,124.7,219z"/>
		<path class="st15" d="M118.3,219.9c-0.4,0-0.7-0.1-0.9-0.4c-0.3-0.4-0.6-0.8-1-1.2c-0.5-0.6-1-1.2-1.5-1.9
			c-0.3-0.5-0.2-1.1,0.3-1.5c0,0,0,0,0,0c0.4-0.3,1.1-0.2,1.4,0.2c0,0,0,0.1,0.1,0.1c0.4,0.6,0.8,1.2,1.3,1.7l0.1,0.1
			c0.3-0.4,0.6-0.9,0.8-1.5c0-0.6,0.5-1,1.1-1c0.6,0,1,0.5,1,1.1c0,0.1,0,0.3-0.1,0.4c-0.2,0.8-0.6,1.5-1.1,2.2
			c-0.2,0.3-0.5,0.7-0.6,1.1C119,219.6,118.6,219.8,118.3,219.9L118.3,219.9z"/>
		<path class="st17" d="M138.6,227.4c-0.2-0.9,0.1-1.8,1-1.9c1.5-0.1,1.4,2.2,1.6,3.3c0.1,1.2-0.1,2.5-0.4,3.6
			c-0.1,0.8-0.4,1.6-0.9,2.3c-0.6-1.2-3-8.5-0.6-9.1"/>
		<path class="st17" d="M135.7,227.9c-0.2-0.9,0.1-1.8,1-1.9c1.5-0.1,1.4,2.2,1.6,3.3c0.1,1.2-0.1,2.5-0.4,3.6
			c-0.1,0.8-0.4,1.6-0.9,2.3c-0.6-1.2-3-8.5-0.6-9.1"/>
		<path class="st17" d="M140.8,227.3c-0.4-0.7-0.1-1.5,0.5-1.9c0.1,0,0.2-0.1,0.3-0.1c1.5-0.3,1.7,2,2,3.1c0.2,1.2,0.2,2.4,0,3.6
			c0,0.8-0.2,1.7-0.6,2.4c-0.7-1.1-4-8.1-1.7-9"/>
		<path class="st17" d="M121.8,229.8c-0.2-0.9,0.1-1.8,1-1.9c1.5-0.1,1.4,2.2,1.6,3.3c0.1,1.2,0,2.5-0.4,3.6
			c-0.1,0.8-0.4,1.6-0.9,2.3c-0.6-1.2-3-8.5-0.6-9.1"/>
		<path class="st17" d="M118.9,230.3c-0.2-0.9,0.1-1.8,1-1.9c1.5-0.1,1.4,2.2,1.6,3.3c0.1,1.2,0,2.5-0.4,3.6
			c-0.1,0.8-0.4,1.6-0.9,2.3c-0.6-1.2-3-8.5-0.6-9.1"/>
		<path class="st17" d="M124,229.7c-0.4-0.7-0.1-1.5,0.5-1.9c0.1,0,0.2-0.1,0.3-0.1c1.5-0.3,1.7,2,2,3.1c0.3,1.2,0.3,2.4,0,3.6
			c0,0.8-0.2,1.7-0.6,2.4c-0.7-1.1-4-8.1-1.7-9"/>
		<path class="st22" d="M240,306.1c11.9-11.9,18.6-30.4,19.7-55c0.5-10.8,0-21.6-1.6-32.2c-1.1-5.9-6.7-9.8-12.6-8.7
			c-5.7,1-9.6,6.4-8.8,12.2c1.3,9.2,1.7,18.5,1.3,27.7c-0.6,13.1-3.4,30.9-13.4,40.7c-0.8,0.8-1.7,1.6-2.6,2.3l10.3,19.2
			C235.2,310.5,237.7,308.5,240,306.1z"/>
		<path class="st7" d="M189.5,128.2h9c20.3,0,36.7,16.4,36.7,36.7v55.2c0,10.5-8.5,19.1-19.1,19.1h-44.3c-10.5,0-19.1-8.5-19.1-19.1
			v-55.2C152.8,144.6,169.2,128.2,189.5,128.2z"/>
		<path class="st12" d="M194,210.8L194,210.8c-13.9,0-25.2-11.3-25.2-25.1c0,0,0,0,0,0v-11.3c0-4.9,4-8.9,8.8-8.9c0,0,0,0,0,0H199
			c11.1,0,20.1,9,20.1,20.1l0,0C219.1,199.5,207.9,210.8,194,210.8z"/>
		<path class="st8" d="M219.1,184.1v11.5c0,13.9-11.3,25.1-25.1,25.2l0,0c-13.9,0-25.1-11.3-25.2-25.2v-11.5"/>
		<path class="st6" d="M186.7,173.5v11c0,2.7,2.2,5,4.9,5l0,0c2.8,0,5-2.2,5-5v-11H186.7z"/>
		<path class="st23" d="M179.8,175.6c0,1.9-1.5,3.4-3.4,3.4s-3.4-1.5-3.4-3.4c0-1.9,1.5-3.4,3.4-3.4l0,0
			C178.3,172.2,179.8,173.7,179.8,175.6z"/>
		<path class="st23" d="M209,175.1c0,1.9-1.5,3.4-3.4,3.4c-1.9,0-3.4-1.5-3.4-3.4c0-1.9,1.5-3.4,3.4-3.4c0,0,0,0,0,0
			C207.5,171.8,209,173.3,209,175.1z"/>
		<path class="st8" d="M172.5,170.7h9.1c1,0,1.8,0.8,1.8,1.8v0.8c0,1-0.8,1.8-1.8,1.8h-9.1c-1,0-1.8-0.8-1.8-1.8v-0.8
			C170.7,171.5,171.5,170.7,172.5,170.7z"/>
		<path class="st8" d="M201.1,170.7h9.1c1,0,1.8,0.8,1.8,1.8v0.8c0,1-0.8,1.8-1.8,1.8h-9.1c-1,0-1.8-0.8-1.8-1.8v-0.8
			C199.3,171.5,200.1,170.7,201.1,170.7z"/>
		<path class="st13" d="M305.2,184.1c-2.2-0.9-4.2-2.4-6.4-3l-45.2-14.3L242.1,203l-1.6,5.1c-0.3,1.5-0.6,3-0.7,4.6
			c11-13.5,32.1-18.7,52.9-12.2c1.7,0.5,3.4,1.1,5.1,1.8c22.3,9.1,36,29.1,34.4,47.9c2.1-2.6,3.8-5.5,5.1-8.6
			C345.7,220.5,331.4,194.7,305.2,184.1z"/>
		
			<rect x="125.1" y="253.6" transform="matrix(0.2823 -0.9593 0.9593 0.2823 -85.6388 400.7148)" class="st11" width="199.8" height="8.1"/>
		<path class="st12" d="M193.1,297.9c-5.9-1-11.5,3-12.4,8.8c-1,5.9,3,11.5,8.8,12.5c2.6,0.4,5,0.8,7.5,1
			c13.9,1.2,25.8-1.5,35.6-7.9l-10.3-19.2C215.1,298.5,205.6,300,193.1,297.9z"/>
		<path class="st24" d="M168.8,174.4c0,0,0.4-13.1,15.7-13.1c0,0,25.9-5.6,33.4,17.5C218,178.7,196.8,152.5,168.8,174.4z"/>
	</g>
</g>
</svg>
