<?xml version="1.0" encoding="utf-8"?>
<!-- Generator: Adobe Illustrator 25.2.3, SVG Export Plug-In . SVG Version: 6.00 Build 0)  -->
<svg version="1.1" id="Layer_1" xmlns="http://www.w3.org/2000/svg" xmlns:xlink="http://www.w3.org/1999/xlink" x="0px" y="0px"
	 viewBox="0 0 381.8 619.1" style="enable-background:new 0 0 381.8 619.1;" xml:space="preserve">
<style type="text/css">
	.st0{fill:#F5D9D4;}
	.st1{fill:#FAF9F0;}
	.st2{fill:#DF8474;}
	.st3{clip-path:url(#SVGID_2_);}
	.st4{fill:#E18E7F;}
	.st5{fill:#F4F1DE;}
	.st6{fill:#EFECD0;}
	.st7{fill:#EAA5A0;}
	.st8{fill:#EFB5AF;}
	.st9{fill:#BBB3DF;}
	.st10{fill:#EAA196;}
	.st11{fill:#E18B7C;}
	.st12{fill:#F8F7EB;}
	.st13{fill:#DE8171;}
	.st14{clip-path:url(#SVGID_4_);}
	.st15{fill:#EFEBCF;}
	.st16{fill:#F0EDD2;}
	.st17{fill:#E5DFB1;}
	.st18{fill:#DED69B;}
	.st19{fill:#E4DEAE;}
	.st20{fill:#F4F1DD;}
	.st21{fill:#C0B8E1;}
	.st22{fill:#EFC3BB;}
	.st23{fill:#F5DAD6;}
	.st24{fill:#FFFFFF;}
	.st25{fill:#F2CEC8;}
	.st26{fill:#E9E4BD;}
	.st27{fill:#C9C2E5;}
	.st28{fill:#CCC6E7;}
	.st29{fill:#ECB6AD;}
	.st30{fill:#EAAEA4;}
	.st31{fill:#D8D4ED;}
	.st32{fill:#D1CCEA;}
	.st33{fill:#E39385;}
	.st34{fill:#EFEBCE;}
	.st35{fill:#F3D0CA;}
	.st36{fill:#BCB5E0;}
	.st37{fill:#F5F3E1;}
	.st38{fill:#F5F2E0;}
	.st39{clip-path:url(#SVGID_6_);}
	.st40{fill:#EAE4BE;}
	.st41{clip-path:url(#SVGID_8_);}
	.st42{fill:#EAB0AC;}
</style>
<g id="Layer_2_1_">
	<g id="Layer_1-2">
		<path class="st0" d="M381.8,23.5v572.2c0,12.9-10.9,23.5-24.4,23.5h-333C10.9,619.1,0,608.6,0,595.7V23.5C0,10.5,10.9,0,24.4,0
			h333C370.8,0,381.8,10.5,381.8,23.5z M361.3,582.1v-545c0-9.7-7.9-17.6-17.6-17.6H38c-9.7,0-17.5,7.9-17.5,17.6v545
			c0,9.7,7.9,17.5,17.5,17.5h305.7C353.4,599.6,361.3,591.8,361.3,582.1z"/>
		<path class="st1" d="M38,19.5h305.7c9.7,0,17.6,7.9,17.6,17.6v545c0,9.7-7.9,17.6-17.6,17.6H38c-9.7,0-17.6-7.9-17.6-17.6v-545
			C20.5,27.4,28.3,19.5,38,19.5z"/>
		<path class="st2" d="M47.1,546.1c-0.2-0.2-0.2-0.4-0.2-0.7V532h-4.3c-0.4,0.1-0.8-0.2-0.9-0.6c0-0.1,0-0.2,0-0.3v-0.7
			c0-0.2,0-0.5,0.2-0.7c0.2-0.2,0.4-0.2,0.7-0.2h11.8c0.2,0,0.5,0,0.7,0.2c0.1,0.2,0.2,0.4,0.2,0.7v0.7c0,0.2,0,0.5-0.2,0.7
			c-0.2,0.1-0.4,0.2-0.7,0.2H50v13.5c0,0.2-0.1,0.5-0.2,0.7c-0.2,0.2-0.5,0.2-0.7,0.2h-1.2C47.5,546.4,47.3,546.3,47.1,546.1z"/>
		<path class="st2" d="M57.4,546.1c-0.2-0.2-0.2-0.4-0.2-0.7v-15c0-0.2,0.1-0.5,0.2-0.7c0.2-0.2,0.4-0.3,0.7-0.2h1.3
			c0.3,0,0.5,0.1,0.7,0.2c0.2,0.2,0.2,0.4,0.2,0.7v6.2h8.1v-6.2c0-0.3,0.1-0.5,0.2-0.7c0.2-0.2,0.5-0.3,0.7-0.2h1.3
			c0.3,0,0.5,0.1,0.7,0.2c0.2,0.2,0.2,0.4,0.2,0.7v15c0,0.2-0.1,0.5-0.2,0.7c-0.2,0.2-0.5,0.2-0.7,0.2h-1.3c-0.3,0-0.5-0.1-0.7-0.2
			c-0.2-0.2-0.2-0.4-0.2-0.7v-6.4h-8.1v6.4c0,0.2-0.1,0.5-0.2,0.7c-0.2,0.2-0.5,0.2-0.7,0.2h-1.3C57.8,546.4,57.6,546.3,57.4,546.1z
			"/>
		<path class="st2" d="M74.8,546.1c-0.2-0.2-0.2-0.4-0.2-0.7v-15c0-0.2,0.1-0.5,0.2-0.7c0.2-0.2,0.5-0.3,0.7-0.2h10.3
			c0.2,0,0.5,0,0.7,0.2c0.1,0.2,0.2,0.4,0.2,0.7v0.7c0,0.2,0,0.5-0.2,0.7c-0.2,0.2-0.4,0.2-0.7,0.2h-8v4.8h5.8c0.2,0,0.5,0,0.7,0.2
			c0.1,0.2,0.2,0.4,0.2,0.7v0.6c0,0.2,0,0.5-0.2,0.7c-0.2,0.2-0.4,0.2-0.7,0.2h-5.9v4.8h8c0.2,0,0.5,0,0.7,0.2
			c0.1,0.2,0.2,0.4,0.2,0.7v0.7c0,0.2-0.1,0.5-0.2,0.6c-0.2,0.2-0.4,0.2-0.7,0.2H75.5C75.2,546.4,74.9,546.3,74.8,546.1z"/>
		<path class="st2" d="M102.2,546.2c-0.1-0.1-0.2-0.3-0.3-0.5L98,530.1c0-0.1,0-0.1,0-0.2c0-0.2,0.2-0.4,0.5-0.4h2
			c0.2,0,0.4,0,0.5,0.1c0.1,0.1,0.2,0.2,0.2,0.4l2.4,10.9l3-9.6c0-0.2,0.1-0.3,0.2-0.4c0.1-0.1,0.3-0.1,0.5-0.1h1.1
			c0.2,0,0.3,0,0.5,0.1c0.1,0.1,0.2,0.3,0.2,0.4l3,9.6l2.4-10.9c0-0.2,0.1-0.3,0.2-0.4c0.1-0.1,0.3-0.1,0.5-0.1h2
			c0.3,0,0.5,0.1,0.5,0.4c0,0.1,0,0.1,0,0.2l-3.9,15.6c0,0.4-0.4,0.7-0.8,0.6c0,0,0,0,0,0h-1.3c-0.2,0-0.4,0-0.5-0.1
			c-0.1-0.1-0.2-0.3-0.3-0.5l-3-9.9l-3,9.9c-0.1,0.4-0.4,0.7-0.8,0.6c0,0,0,0,0,0h-1.4C102.5,546.4,102.3,546.3,102.2,546.2z"/>
		<path class="st2" d="M120.4,546.1c-0.2-0.2-0.2-0.4-0.2-0.7v-15c0-0.2,0.1-0.5,0.2-0.7c0.2-0.2,0.5-0.3,0.7-0.2h1.3
			c0.4-0.1,0.9,0.2,0.9,0.7c0,0.1,0,0.2,0,0.2v6.2h8.1v-6.2c0-0.3,0.1-0.5,0.2-0.7c0.2-0.2,0.5-0.3,0.7-0.2h1.3
			c0.3,0,0.5,0.1,0.7,0.2c0.2,0.2,0.2,0.4,0.2,0.7v15c0,0.2-0.1,0.5-0.2,0.7c-0.2,0.2-0.5,0.2-0.7,0.2h-1.3c-0.3,0-0.5-0.1-0.7-0.2
			c-0.2-0.2-0.2-0.4-0.2-0.7v-6.4h-8.1v6.4c0,0.2-0.1,0.5-0.2,0.7c-0.2,0.2-0.5,0.2-0.7,0.2h-1.3
			C120.9,546.4,120.6,546.3,120.4,546.1z"/>
		<path class="st2" d="M137.8,546.1c-0.2-0.2-0.2-0.4-0.2-0.7v-15c0-0.2,0.1-0.5,0.2-0.7c0.2-0.2,0.5-0.3,0.7-0.2h10.3
			c0.2,0,0.5,0,0.7,0.2c0.1,0.2,0.2,0.4,0.2,0.7v0.7c0,0.2,0,0.5-0.2,0.7c-0.2,0.2-0.4,0.2-0.7,0.2h-8v4.8h5.8c0.2,0,0.5,0,0.7,0.2
			c0.1,0.2,0.2,0.4,0.2,0.7v0.6c0,0.2-0.1,0.5-0.2,0.7c-0.2,0.2-0.4,0.2-0.7,0.2h-5.8v4.8h8c0.2,0,0.5,0,0.7,0.2
			c0.2,0.2,0.2,0.4,0.2,0.7v0.7c0,0.2,0,0.5-0.2,0.6c-0.2,0.2-0.4,0.2-0.7,0.2h-10.3C138.2,546.4,138,546.3,137.8,546.1z"/>
		<path class="st2" d="M152,546.1c-0.2-0.2-0.2-0.4-0.2-0.7v-15c0-0.2,0.1-0.5,0.2-0.7c0.2-0.2,0.4-0.3,0.7-0.2H163
			c0.2,0,0.5,0,0.7,0.2c0.1,0.2,0.2,0.4,0.2,0.7v0.7c0,0.2,0,0.5-0.2,0.7c-0.2,0.2-0.4,0.2-0.7,0.2h-8v4.8h5.8
			c0.4-0.1,0.8,0.1,0.9,0.5c0,0.1,0,0.2,0,0.3v0.6c0,0.2-0.1,0.5-0.2,0.7c-0.2,0.2-0.4,0.2-0.7,0.2H155v4.8h8c0.2,0,0.5,0,0.7,0.2
			c0.1,0.2,0.2,0.4,0.2,0.7v0.7c0,0.2-0.1,0.5-0.2,0.6c-0.2,0.2-0.4,0.2-0.7,0.2h-10.3C152.5,546.4,152.2,546.3,152,546.1z"/>
		<path class="st2" d="M166.3,546.1c-0.2-0.2-0.2-0.4-0.2-0.7v-15c0-0.2,0.1-0.5,0.2-0.7c0.2-0.2,0.5-0.3,0.7-0.2h1.3
			c0.4-0.1,0.9,0.2,0.9,0.7c0,0.1,0,0.2,0,0.3V544h7.6c0.2,0,0.5,0,0.7,0.2c0.1,0.2,0.2,0.4,0.2,0.7v0.7c0,0.2-0.1,0.5-0.2,0.6
			c-0.2,0.2-0.4,0.2-0.7,0.2H167C166.7,546.4,166.5,546.3,166.3,546.1z"/>
		<path class="st2" d="M191,544.4c-2.9-3.8-2.9-9.2,0-13c3.6-3.1,8.9-3.1,12.5,0c3,3.8,3,9.2,0,13
			C199.9,547.5,194.6,547.5,191,544.4z M201.2,542.8c1.8-2.9,1.8-6.7,0-9.6c-2.2-2.2-5.7-2.2-7.9,0c-1.8,2.9-1.8,6.7,0,9.6
			C195.5,544.9,199,545,201.2,542.8C201.2,542.8,201.2,542.8,201.2,542.8z"/>
		<path class="st2" d="M208.3,546.1c-0.2-0.2-0.2-0.4-0.2-0.7v-15c0-0.2,0.1-0.5,0.2-0.7c0.2-0.2,0.4-0.3,0.7-0.2h10.3
			c0.2,0,0.5,0,0.7,0.2c0.1,0.2,0.2,0.4,0.2,0.7v0.7c0,0.2,0,0.5-0.2,0.7c-0.2,0.2-0.4,0.2-0.7,0.2h-8v4.8h5.8
			c0.2,0,0.5,0.1,0.7,0.2c0.2,0.2,0.2,0.4,0.2,0.7v0.7c0,0.2-0.1,0.5-0.2,0.7c-0.2,0.2-0.4,0.2-0.7,0.2h-5.8v6.3
			c0,0.2-0.1,0.5-0.2,0.7c-0.2,0.2-0.5,0.2-0.7,0.2H209C208.8,546.4,208.5,546.3,208.3,546.1z"/>
		<path class="st2" d="M232,546.1c-0.2-0.2-0.2-0.4-0.2-0.7v-15c0-0.2,0.1-0.5,0.2-0.7c0.2-0.2,0.5-0.3,0.7-0.2H243
			c0.2,0,0.5,0,0.7,0.2c0.1,0.2,0.2,0.4,0.2,0.7v0.7c0,0.2,0,0.5-0.2,0.7c-0.2,0.2-0.4,0.2-0.7,0.2h-8v4.8h5.8c0.3,0,0.5,0,0.7,0.2
			c0.1,0.2,0.2,0.4,0.2,0.7v0.7c0,0.2,0,0.5-0.2,0.7c-0.2,0.2-0.4,0.2-0.7,0.2H235v6.3c0,0.2-0.1,0.5-0.2,0.7
			c-0.2,0.2-0.5,0.2-0.7,0.2h-1.3C232.5,546.4,232.2,546.3,232,546.1z"/>
		<path class="st2" d="M246.3,544.4c-2.9-3.8-2.9-9.2,0-13c3.6-3.1,8.9-3.1,12.5,0c3,3.8,3,9.2,0,13
			C255.3,547.5,250,547.5,246.3,544.4z M256.6,542.8c1.8-2.9,1.8-6.7,0-9.6c-2.2-2.2-5.7-2.2-7.9,0c-1.8,2.9-1.8,6.7,0,9.6
			C250.8,544.9,254.4,545,256.6,542.8C256.6,542.8,256.6,542.8,256.6,542.8z"/>
		<path class="st2" d="M263.7,546.1c-0.2-0.2-0.2-0.4-0.2-0.7v-15c0-0.2,0.1-0.5,0.2-0.7c0.2-0.2,0.5-0.3,0.7-0.2h6.5
			c1.6-0.1,3.1,0.4,4.4,1.3c1.1,1,1.6,2.5,1.5,4c0,1-0.3,2.1-0.8,3c-0.6,0.8-1.4,1.5-2.4,1.8l2.8,6.1c0,0.1,0.1,0.2,0.1,0.3
			c0,0.2-0.1,0.4-0.4,0.4h-2c-0.2,0-0.3,0-0.5-0.1c-0.1-0.1-0.2-0.2-0.3-0.4l-2.5-5.9h-4v5.4c0,0.2-0.1,0.5-0.2,0.7
			c-0.2,0.2-0.5,0.2-0.7,0.2h-1.3C264.2,546.4,263.9,546.3,263.7,546.1z M270.2,537.7c0.9,0.1,1.8-0.2,2.5-0.7
			c0.6-0.6,0.9-1.4,0.8-2.2c0.1-0.8-0.2-1.6-0.7-2.2c-0.6-0.5-1.4-0.8-2.2-0.7h-3.9v5.7L270.2,537.7z"/>
		<path class="st2" d="M282.7,546.1c-0.2-0.2-0.2-0.4-0.2-0.7V532h-4.3c-0.4,0.1-0.8-0.2-0.9-0.6c0-0.1,0-0.2,0-0.3v-0.7
			c0-0.2,0-0.5,0.2-0.7c0.2-0.2,0.4-0.2,0.7-0.2H290c0.2,0,0.5,0,0.7,0.2c0.1,0.2,0.2,0.4,0.2,0.7v0.7c0,0.2,0,0.5-0.2,0.7
			c-0.2,0.1-0.4,0.2-0.7,0.2h-4.3v13.5c0,0.2-0.1,0.5-0.2,0.7c-0.2,0.2-0.5,0.2-0.7,0.2h-1.3C283.2,546.4,282.9,546.3,282.7,546.1z"
			/>
		<path class="st2" d="M296.3,546c-1.1-0.4-2-1.2-2.6-2.2c-0.6-1-1-2.2-0.9-3.4v-10c0-0.2,0.1-0.5,0.2-0.7c0.2-0.2,0.4-0.3,0.7-0.2
			h1.3c0.3,0,0.5,0.1,0.7,0.2c0.2,0.2,0.2,0.4,0.2,0.7v10c-0.1,1.1,0.3,2.2,1.1,2.9c1.9,1.3,4.5,1.3,6.4,0c0.8-0.8,1.2-1.8,1.1-2.9
			v-10c-0.1-0.4,0.2-0.9,0.7-0.9c0.1,0,0.2,0,0.3,0h1.3c0.6,0,1,0.3,1,0.9v10c0,1.2-0.3,2.4-1,3.3c-0.7,1-1.6,1.7-2.7,2.2
			c-1.2,0.5-2.6,0.8-3.9,0.8C298.8,546.8,297.5,546.5,296.3,546z"/>
		<path class="st2" d="M310.7,546.1c-0.2-0.2-0.2-0.4-0.2-0.7v-15c0-0.2,0.1-0.5,0.2-0.7c0.2-0.2,0.5-0.3,0.7-0.2h1.1
			c0.2,0,0.4,0,0.5,0.1c0.2,0.1,0.3,0.2,0.4,0.4l8.2,11.3v-10.9c0-0.2,0.1-0.5,0.2-0.7c0.2-0.2,0.4-0.3,0.7-0.2h1.3
			c0.3,0,0.5,0.1,0.7,0.2c0.2,0.2,0.2,0.4,0.2,0.7v15c0,0.2-0.1,0.5-0.2,0.7c-0.2,0.2-0.5,0.2-0.7,0.2h-1.2c-0.2,0-0.4,0-0.5-0.1
			c-0.2-0.1-0.3-0.2-0.4-0.4l-8.2-11.3v10.9c0,0.2-0.1,0.5-0.2,0.7c-0.2,0.2-0.5,0.2-0.7,0.2h-1.3
			C311.2,546.4,310.9,546.3,310.7,546.1z"/>
		<path class="st2" d="M328,546.1c-0.2-0.2-0.2-0.4-0.2-0.7v-15c0-0.2,0.1-0.5,0.2-0.7c0.2-0.2,0.4-0.3,0.7-0.2H339
			c0.2,0,0.5,0,0.7,0.2c0.1,0.2,0.2,0.4,0.2,0.7v0.7c0,0.2,0,0.5-0.2,0.7c-0.2,0.2-0.4,0.2-0.7,0.2h-8v4.8h5.8c0.2,0,0.5,0,0.7,0.2
			c0.2,0.2,0.2,0.4,0.2,0.7v0.6c0,0.2,0,0.5-0.2,0.7c-0.2,0.2-0.4,0.2-0.7,0.2H331v4.8h8c0.2,0,0.5,0,0.7,0.2
			c0.1,0.2,0.2,0.4,0.2,0.7v0.7c0,0.2-0.1,0.5-0.2,0.6c-0.2,0.2-0.4,0.2-0.7,0.2h-10.3C328.4,546.4,328.2,546.3,328,546.1z"/>
		<g>
			<defs>
				<path id="SVGID_1_" d="M90.6,72.8h209.5c22.2,0,40.3,18,40.3,40.3v312.3c0,22.2-18,40.3-40.3,40.3H90.6
					c-22.2,0-40.3-18-40.3-40.3V113.1C50.3,90.9,68.3,72.8,90.6,72.8z"/>
			</defs>
			<clipPath id="SVGID_2_">
				<use xlink:href="#SVGID_1_"  style="overflow:visible;"/>
			</clipPath>
			<g class="st3">
				<path class="st4" d="M251.8,168.1l-1.4-1c0.1-0.1,2-3.3,7.4-1.2l-0.6,1.8C253.2,166.1,251.8,168,251.8,168.1z"/>
				<path class="st4" d="M266.5,168.8l-1.4-1.1c0.1-0.2,3.6-5.4,11.6-1l-0.8,1.7C269.4,164.7,266.6,168.6,266.5,168.8z"/>
				<path class="st4" d="M254.6,177.4L254.6,177.4c-0.8,0-1.5-0.7-1.5-1.5v-4c0-0.8,0.7-1.5,1.5-1.5l0,0c0.8,0,1.5,0.7,1.5,1.5v4
					C256.1,176.7,255.4,177.4,254.6,177.4z"/>
				<path class="st4" d="M271.8,177.4L271.8,177.4c-1.1,0-2.1-0.8-2.1-2c0,0,0,0,0,0l-0.3-4.9c-0.1-1.1,0.7-2.2,1.8-2.3l0,0
					c1.1,0,2.1,0.9,2.1,2c0,0,0,0,0,0l0.3,4.9C273.7,176.3,272.9,177.3,271.8,177.4z"/>
				<path class="st5" d="M262.2,178l2.6,0.3c-0.1,1.5-1.3,2.6-2.8,2.5c0,0,0,0,0,0c-1.5-0.2-2.5-1.6-2.3-3.1
					c0.1-1.5,1.3-2.6,2.8-2.5c0,0,0,0,0,0l0,0L262.2,178z"/>
				<path class="st6" d="M269,187.1L269,187.1l-12.6-0.6c-0.5,0-0.9-0.5-0.8-1c0,0,0,0,0,0c0-0.5,0.4-0.9,0.8-0.9c0,0,0,0,0,0
					l12.6,0.6c0.5,0.1,0.9,0.6,0.8,1.1C269.8,186.7,269.5,187,269,187.1L269,187.1z"/>
				<rect x="37" y="55.2" class="st7" width="328.5" height="433.1"/>
				<polyline class="st8" points="162.6,199.6 35.3,364.6 35.3,489.5 363.8,489.1 363.8,363.3 228.6,199.6 				"/>
				<path class="st9" d="M248.1,203.8c0,0,1.2-26.9-2.6-36.1l40.6-4.1c0,0,8.2,20.9,16.2,28.9L248.1,203.8z"/>
				<polygon class="st10" points="151.2,371.7 136.2,470.9 56.8,474 40.1,375.8 146.5,366.9 				"/>
				<path class="st11" d="M50.9,406.1l91-17.3c5.9-1.1,9.9-6.8,8.8-12.8l0,0c-1.2-5.9-6.9-9.8-12.8-8.7l-91,17.3
					c-5.9,1.1-9.8,6.9-8.7,12.8l0,0C39.3,403.4,45,407.2,50.9,406.1z"/>
				<polygon class="st12" points="270.2,177.3 270.2,192.4 286.6,190.6 278.4,176.4 				"/>
				<path class="st13" d="M322.3,268.3c-3.2,0-6-2-6.9-5l-17.9-55.1c-1.4-3.8,0.6-8,4.4-9.4c3.8-1.4,8,0.6,9.4,4.4
					c0.1,0.2,0.1,0.3,0.2,0.5l6.3,19.4l0.8-10.7c0.2-4,3.6-7.2,7.6-7c4,0.2,7.2,3.6,7,7.6c0,0.1,0,0.3,0,0.4l-3.4,48.2
					c-0.2,3.5-2.9,6.3-6.4,6.7C322.9,268.2,322.6,268.3,322.3,268.3z"/>
				<path class="st9" d="M135.8,168.7c0,0-0.9,24.2,2.8,34l-12.9-7.4l6-30.1L135.8,168.7z"/>
				<g>
					<defs>
						<path id="SVGID_3_" d="M228.6,199.6h-65.9v-59.2c0-5.8,1.5-11.5,4.4-16.5c2.1-3.6,4.9-6.8,8.1-9.4c5.8-4.6,13-7.1,20.4-7.1
							l0,0c18.2,0,33,14.8,33,33L228.6,199.6z"/>
					</defs>
					<clipPath id="SVGID_4_">
						<use xlink:href="#SVGID_3_"  style="overflow:visible;"/>
					</clipPath>
					<g class="st14">
						<rect x="158" y="102.6" class="st15" width="73.8" height="99.2"/>
						<path class="st16" d="M226.6,163.7c0.7,9.8-12.5,18.8-29.5,20.1s-31.5-5.6-32.2-15.3s12.5-18.8,29.5-20.1
							c1.3-0.1,2.5-0.1,3.8-0.1C213.5,148.1,225.9,154.7,226.6,163.7z"/>
						<ellipse class="st17" cx="242.3" cy="162.1" rx="26.9" ry="15.4"/>
						<ellipse class="st17" cx="154.9" cy="161.1" rx="30.9" ry="17.8"/>
						<ellipse class="st18" cx="168.6" cy="174.3" rx="33.1" ry="19"/>
						<ellipse class="st18" cx="226.8" cy="174.3" rx="33.1" ry="19"/>
						<ellipse class="st19" cx="197.6" cy="193.2" rx="54.1" ry="24.7"/>
					</g>
				</g>
				<polygon class="st10" points="232.6,380.3 257,476.3 350.8,465.7 357,401.1 314.7,373.5 				"/>
				<path class="st2" d="M115.7,374.1c-2.8-4.5-8.6-5.8-13.1-3.1s-5.8,8.6-3.1,13.1l0,0l28.6,46.2c1,1.6,2.4,2.8,4.1,3.6
					c2.6-6.3,5.7-12.3,9.3-18L115.7,374.1z"/>
				<path class="st20" d="M178.4,437.6c0.2,0,0.4,0,0.6,0c5.2-0.1,9.4-4.4,9.3-9.6c-0.1-4.9-3.9-8.9-8.7-9.3l-38-2.5l-0.2-0.3
					c-3.6,5.8-6.7,11.8-9.2,18.1c1.1,0.5,2.2,0.8,3.4,0.9L178.4,437.6z"/>
				<path class="st13" d="M151.2,371.7l-4.6-146.8c0-18.7-15.2-33.8-33.8-33.8C94.1,191,79,206.2,79,224.9L68.4,390.4l7.5,3.8
					c1.8,0.9,7.4,0.9,9.4,0.3c1.6-0.4,3-1.6,3.7-3.1c1.1-1.8,1-4.1,3-5.1c2.5-1.1,5.4-1.1,7.9,0.2c1.7,0.8,3,2.5,4.7,3.5
					s3.8,1.5,5.8,2.1l4.5-1.1l3.7-6.1c1-1.6,2.1-3.2,3.4-4.5c1.5-1.6,3.6-2.5,5.8-2.4c1.6,0.2,3.1,0.6,4.5,1.3
					c1.3-0.1,2.5-0.5,3.5-1.3c1.5-1.5,2.1-3.2,4.3-3.6s4.3,0.5,6.4,0C148.3,374,149.7,372.7,151.2,371.7z"/>
				<path class="st13" d="M312.1,402.4l-5.5-2.4c-1.3-0.6-2.7-0.8-4.1-0.6l-19.6,2.3c-1.8,0.2-3.5-0.2-5.1-1.1l-17.1-10.1
					c-1.6-0.9-3.4-1.3-5.2-1l-4.2,0.6c-4.4,0.6-8.5-2.5-9.1-6.9c0-0.4-0.1-0.7-0.1-1.1V222.6c0.1-21.1,17.1-38.2,38.2-38.2l0,0
					c21.1,0.1,38.2,17.1,38.2,38.2l4.7,172.1c0.1,4.5-3.4,8.2-7.9,8.3C314.3,403,313.2,402.8,312.1,402.4z"/>
				<path class="st21" d="M85.9,301.7c-0.5-5.6,3.7-10.6,9.3-11.1c5.6-0.5,10.6,3.7,11.1,9.3c0.5,5.6-3.7,10.6-9.3,11.1c0,0,0,0,0,0
					C91.3,311.5,86.4,307.3,85.9,301.7z"/>
				<path class="st21" d="M91,316.3c-0.5-5.6,3.7-10.6,9.4-11.1c5.6-0.5,10.6,3.7,11.1,9.4c0.5,5.6-3.7,10.6-9.4,11.1c0,0,0,0-0.1,0
					C96.4,326.1,91.5,321.9,91,316.3z"/>
				<path class="st21" d="M99.8,332.8c-0.5-5.6,3.7-10.6,9.4-11.1c5.6-0.5,10.6,3.7,11.1,9.4c0.5,5.6-3.7,10.6-9.4,11.1
					c0,0,0,0-0.1,0C105.2,342.6,100.3,338.4,99.8,332.8z"/>
				<path class="st21" d="M101.5,344.7c-0.5-5.6,3.7-10.6,9.3-11.1c5.6-0.5,10.6,3.7,11.1,9.3c0.5,5.6-3.7,10.6-9.3,11.1
					c0,0,0,0,0,0C106.9,354.5,102,350.3,101.5,344.7z"/>
				<circle class="st21" cx="97.5" cy="332.6" r="10.2"/>
				<circle class="st21" cx="97.8" cy="351.2" r="10.2"/>
				<path class="st21" d="M100.5,356.8c-0.5-5.6,3.7-10.6,9.4-11.1c5.6-0.5,10.6,3.7,11.1,9.4c0.5,5.6-3.7,10.6-9.4,11.1
					c0,0,0,0-0.1,0C105.9,366.6,101,362.4,100.5,356.8z"/>
				<path class="st21" d="M78.2,298.4c-0.5-5.6,3.7-10.6,9.4-11.1c5.6-0.5,10.6,3.7,11.1,9.4c0.5,5.6-3.7,10.6-9.4,11.1
					c0,0,0,0-0.1,0C83.5,308.2,78.6,304,78.2,298.4z"/>
				<path class="st13" d="M242.2,313.6c-1.1,7.2-2.2,14.5-3.5,21.7c-2.2,12.5-4,26.6-10,37.9c-1.4,2.7-1.9,4.9,0.3,7.3
					c4.5,4.7,9.6-1.9,13.1,1.6"/>
				<path class="st22" d="M328.5,201.5L328.5,201.5c-2,0-3.7-1.6-3.7-3.7V184c0-2,1.6-3.7,3.7-3.7l0,0c2,0,3.7,1.6,3.7,3.7v13.8
					C332.1,199.9,330.5,201.5,328.5,201.5L328.5,201.5z"/>
				<polygon class="st12" points="88.8,346.3 91.2,363.9 72.4,365.1 72.4,347.6 				"/>
				<polygon class="st23" points="216.1,372.8 220.8,372.4 221.5,373.1 219.3,375.1 				"/>
				<path class="st23" d="M161.9,385.7c-1.5,0.1-2.8-1.1-2.9-2.7c-0.1-1.5,1.1-2.8,2.7-2.9l22.1-1.7c1.5-0.2,2.9,0.9,3.1,2.4
					c0.2,1.5-0.9,2.9-2.4,3.1c-0.1,0-0.1,0-0.2,0l-22.1,1.8L161.9,385.7z"/>
				<path class="st24" d="M179.1,371.4l2.7,16c0,0,28.6-0.9,39.1-11.4l-5.7-5.7L179.1,371.4z"/>
				<path class="st23" d="M109.5,290c-0.3,0-0.7-0.1-1-0.3c-3.5-1.9-5.3-4.2-5.3-6.9c-0.1-4.7,5.6-8.1,6.2-8.4
					c1-0.7,2.4-0.4,3.1,0.7c0.7,1,0.4,2.4-0.7,3.1c-0.1,0-0.1,0.1-0.2,0.1c-1.6,0.9-4,3-4,4.5c0,1.3,1.9,2.4,3,3
					c1.1,0.6,1.5,1.9,0.9,3C111.1,289.5,110.4,290,109.5,290L109.5,290z"/>
				<circle class="st25" cx="194.9" cy="290.1" r="9.4"/>
				<rect x="120.9" y="287.9" class="st26" width="148" height="4.1"/>
				<rect x="192.8" y="216" class="st26" width="4.1" height="148"/>
				
					<rect x="192.9" y="216" transform="matrix(0.7071 -0.7071 0.7071 0.7071 -147.964 222.7529)" class="st26" width="4.1" height="148"/>
				
					<rect x="120.9" y="287.9" transform="matrix(0.7071 -0.7071 0.7071 0.7071 -147.9665 222.7462)" class="st26" width="148" height="4.1"/>
				<path class="st23" d="M206.6,290.1c0,6.5-5.3,11.8-11.8,11.8s-11.8-5.3-11.8-11.8c0-6.5,5.3-11.8,11.8-11.8c0,0,0,0,0,0
					C201.3,278.3,206.6,283.5,206.6,290.1C206.6,290,206.6,290.1,206.6,290.1z"/>
				
					<ellipse transform="matrix(0.7071 -0.7071 0.7071 0.7071 -148.0377 222.7209)" class="st15" cx="194.8" cy="290.1" rx="9.3" ry="9.3"/>
				<path class="st15" d="M194.9,203.8c-47.7,0-86.3,38.6-86.3,86.3s38.6,86.3,86.3,86.3s86.3-38.6,86.3-86.3l0,0
					C281.2,242.4,242.6,203.8,194.9,203.8z M194.9,363.6c-40.6,0-73.5-32.9-73.5-73.5s32.9-73.5,73.5-73.5s73.5,32.9,73.5,73.5
					C268.4,330.7,235.5,363.6,194.9,363.6L194.9,363.6z"/>
				<path class="st4" d="M189.4,191.8h11.1c1.2,0,2.2-1,2.2-2.2l0,0c0-1.2-1-2.2-2.2-2.2h-11.1c-1.2,0-2.2,1-2.2,2.2l0,0
					C187.2,190.9,188.2,191.8,189.4,191.8z"/>
				<path class="st27" d="M210,222.1h-29.4c-2.8,0-5.1-2.3-5.1-5.1l0,0c0-2.8,2.3-5.1,5.1-5.1H210c2.8,0,5.1,2.3,5.1,5.1l0,0
					C215.1,219.8,212.8,222.1,210,222.1z"/>
				<path class="st28" d="M210,221.1h-29.4c-2.8,0-5.1-2.3-5.1-5.1l0,0c0-2.8,2.3-5.1,5.1-5.1H210c2.8,0,5.1,2.3,5.1,5.1l0,0
					C215.1,218.8,212.8,221.1,210,221.1z"/>
				<path class="st28" d="M189,215h12.5c2.5,0,4.6-2,4.6-4.6v-5.2h-21.6v5.2C184.5,212.9,186.5,215,189,215z"/>
				<path class="st28" d="M193.1,196.6c-4.8,0-8.6,3.9-8.6,8.6h10.8v-8.6H193.1z"/>
				<path class="st23" d="M206.1,205.2c0-4.8-3.9-8.6-8.6-8.6h-2.2v8.6H206.1z"/>
				<path class="st23" d="M203.1,193.3c0,1.3-1,2.3-2.3,2.3c-1.3,0-2.3-1-2.3-2.3c0-1.3,1-2.3,2.3-2.3c0,0,0,0,0,0
					C202.1,191.1,203.1,192.1,203.1,193.3C203.1,193.3,203.1,193.3,203.1,193.3z"/>
				<path class="st25" d="M202,193.3c0,0.6-0.5,1.2-1.1,1.2s-1.2-0.5-1.2-1.1s0.5-1.2,1.1-1.2c0,0,0,0,0,0
					C201.5,192.2,202,192.7,202,193.3C202,193.3,202,193.3,202,193.3z"/>
				<path class="st23" d="M192,193.3c0,1.3-1,2.3-2.3,2.3c-1.3,0-2.3-1-2.3-2.3c0-1.3,1-2.3,2.3-2.3c0,0,0,0,0,0
					C191,191.1,192,192.1,192,193.3z"/>
				<path class="st25" d="M190.9,193.3c0,0.6-0.5,1.2-1.1,1.2c-0.6,0-1.2-0.5-1.2-1.1c0-0.6,0.5-1.2,1.1-1.2c0,0,0,0,0,0
					C190.3,192.2,190.9,192.7,190.9,193.3z"/>
				<path class="st23" d="M195.3,201L195.3,201c-3.1,0-5.6-2.5-5.6-5.6v-3.8c0-3.1,2.5-5.6,5.6-5.6l0,0c3.1,0,5.5,2.5,5.6,5.6v3.8
					C200.8,198.5,198.3,201,195.3,201z"/>
				<path class="st4" d="M200.8,193.5v2.2c0,3.1-2.5,5.5-5.6,5.6l0,0c-3.1,0-5.6-2.5-5.6-5.6v-2.2"/>
				<path class="st4" d="M199.4,191.1H197c-0.2,0-0.3-0.1-0.3-0.3v-0.3c0-0.2,0.1-0.3,0.3-0.3h2.4c0.2,0,0.3,0.1,0.3,0.3v0.3
					C199.7,191,199.6,191.1,199.4,191.1z"/>
				<path class="st4" d="M194,191.1h-2.4c-0.2,0-0.3-0.1-0.3-0.3v-0.3c0-0.2,0.1-0.3,0.3-0.3h2.4c0.2,0,0.3,0.1,0.3,0.3v0.3
					C194.3,191,194.2,191.1,194,191.1z"/>
				<path class="st4" d="M198.2,192.8c0.6,0,1-0.4,1-1h-0.4c0,0.3-0.2,0.6-0.5,0.6s-0.6-0.2-0.6-0.5c0,0,0-0.1,0-0.2h-0.4
					C197.2,192.4,197.7,192.8,198.2,192.8z"/>
				<path class="st4" d="M192.8,192.8c0.6,0,1-0.4,1-1h-0.4c0,0.3-0.2,0.6-0.5,0.6s-0.6-0.2-0.6-0.5c0,0,0-0.1,0-0.2h-0.4
					C191.8,192.4,192.2,192.8,192.8,192.8z"/>
				<path class="st23" d="M199.4,216.1h-2.1h-2.5c-1.4,0-2.5-1.1-2.5-2.5c0-1.4,1.1-2.5,2.5-2.5h2.6c3.4,0,6.6,0.1,7.8-0.6
					c0.5-0.3,0.8-0.9,0.9-1.5c0.1-0.7-0.1-1.3-0.5-1.8l-5-5.6c-0.9-1-0.9-2.6,0.2-3.6c1-0.9,2.6-0.9,3.6,0.2l5,5.6
					c1.4,1.6,2.1,3.8,1.7,6c-0.3,2.1-1.6,3.9-3.4,4.9C205.6,215.9,203,216.1,199.4,216.1z"/>
				<path class="st23" d="M186.6,215.5c-1.6,0.1-3.3-0.2-4.8-0.9c-1.8-1-3.1-2.9-3.4-4.9c-0.4-2.2,0.2-4.4,1.7-6l5.1-5.6
					c0.9-1,2.5-1.1,3.6-0.2c1,0.9,1.1,2.5,0.2,3.6l-5.1,5.5c-0.4,0.5-0.6,1.2-0.5,1.8c0.1,0.6,0.4,1.1,0.9,1.4
					c0.8,0.4,4.2,0.2,6.4,0c1.9-0.1,3.8-0.2,5.8-0.2c1.4,0,2.5,1.1,2.5,2.5c0,1.4-1.1,2.5-2.5,2.5c-1.8,0-3.6,0.1-5.4,0.2
					C189.5,215.4,188,215.5,186.6,215.5z"/>
				<path class="st27" d="M188.2,202.5c0.7,1.9,3,2.7,4.7,3.4c2.5,1,5.1,1.7,7.8,2c1,0.1,1.1-0.6,0.1-0.7c-2.1-0.3-4.1-0.8-6.1-1.5
					c-1.6-0.6-4.1-1.4-4.8-3.2C189.6,202,188,202,188.2,202.5L188.2,202.5z"/>
				<path class="st27" d="M186.9,206.3c2.5,1.7,5.2,3.1,8.3,3.2c0.6,0-0.5-1.1-0.9-1.2c-2.7-0.2-5.2-1.2-7.4-2.8
					C185.9,204.9,186.3,205.9,186.9,206.3L186.9,206.3z"/>
				<path class="st27" d="M185.4,209.3c0.4,0.4,1,0.6,1.6,0.7c0.3,0,0.9,0,0.9-0.4s-0.4-0.7-0.7-0.7c-0.2,0-0.3,0-0.5-0.2
					c-0.3-0.3-0.8-0.4-1.2-0.2c-0.2,0.1-0.4,0.4-0.3,0.6C185.2,209.2,185.3,209.2,185.4,209.3z"/>
				<path class="st27" d="M180,216.7c1.5,0.2,2.7,1.1,4.2,1.4c0.8,0.1,1.7-1.2,0.6-1.4c-1.5-0.2-2.7-1.1-4.2-1.4
					C179.8,215.2,178.9,216.6,180,216.7z"/>
				<path class="st27" d="M190.2,218.9h7.1c1.9,0,3.5,0.9,5.3,0.8c1-0.1,0.8-1.7-0.2-1.6c-1.7,0.1-3.5-0.8-5.3-0.8H190
					C189,217.3,189.3,218.9,190.2,218.9z"/>
				<path class="st27" d="M206.4,218.1c0.9,0,1.8-0.1,2.6-0.4c0.5-0.2,0.9-0.6,1.4-0.8c0.7-0.3,1.4-0.5,2.1-0.6
					c0.4-0.1-0.1-0.3-0.2-0.4c-0.4-0.2-0.7-0.2-1.1-0.2c-0.9,0.2-1.8,0.5-2.7,0.9c-1,0.6-2.1,0.9-3.2,0.9c-0.4,0-0.2,0.1-0.1,0.3
					C205.6,218,206,218.1,206.4,218.1L206.4,218.1z"/>
				<path class="st23" d="M126.5,296.9h-0.1c-1.2-0.1-2.2-1.1-2.1-2.3c0,0,0,0,0,0c0.5-8.7-3.7-11.1-3.9-11.2
					c-1.1-0.6-1.5-1.9-0.9-3c0.5-1.1,1.8-1.5,2.9-1c0,0,0,0,0,0c0.3,0.1,7,3.6,6.3,15.4C128.6,295.9,127.7,296.9,126.5,296.9z"/>
				<path class="st23" d="M254.4,331.5c-1.2,0-2.2-0.9-2.2-2.1c-0.4-11.1,1.2-17.8,5.1-20.5c1.6-1.2,3.8-1.4,5.6-0.7
					c1.1,0.5,1.7,1.8,1.2,2.9c-0.5,1.1-1.8,1.7-2.9,1.2l0,0c-0.5-0.1-1.1,0-1.5,0.3c-1.1,0.8-3.6,4-3.1,16.6
					C256.7,330.4,255.7,331.4,254.4,331.5C254.5,331.4,254.5,331.4,254.4,331.5L254.4,331.5z"/>
				<path class="st23" d="M268.4,298.5c-0.2,0-0.4,0-0.5-0.1c-0.5-0.1-13-3.5-13-13.1c0-1.2,1-2.2,2.2-2.2s2.2,1,2.2,2.2
					c0,6.2,9.6,8.8,9.7,8.9c1.2,0.3,1.9,1.5,1.6,2.7C270.2,297.8,269.4,298.5,268.4,298.5L268.4,298.5z"/>
				<path class="st23" d="M278.1,299c-1.2,0-2.2-1-2.2-2.2c0-0.4,0.1-0.7,0.2-1c0.1-0.1,4.2-8.9,1.4-21.5c-0.3-1.2,0.5-2.4,1.7-2.7
					c1.2-0.3,2.4,0.5,2.7,1.7c3.2,14.2-1.6,24-1.8,24.4C279.7,298.6,278.9,299,278.1,299z"/>
				<path class="st29" d="M269.6,323.2c-4.2,0.3-7.8-2.8-8.1-7c-0.1-1.5,0.2-3,1-4.3c0.9-1.7,3.3-7,2.9-11.7
					c-0.4-4.2,2.6-7.9,6.7-8.3c4.2-0.4,7.9,2.6,8.3,6.7c0,0.2,0,0.3,0,0.5c0.8,10.3-4.3,19.4-4.9,20.4
					C274.3,321.6,272.1,323,269.6,323.2z"/>
				<path class="st23" d="M254.4,349.4c-1.2,0-2.2-1-2.2-2.2c0-0.8,0.4-1.5,1.1-1.9c8.2-5,13-18,13.1-18.1c0.5-1.1,1.8-1.6,2.9-1.2
					c1,0.4,1.6,1.6,1.3,2.7c-0.2,0.6-5.4,14.6-14.9,20.4C255.2,349.3,254.8,349.4,254.4,349.4z"/>
				<path class="st29" d="M275.2,312.3l-11-5.5c-1.8-0.9-3.9-0.2-4.7,1.6c-0.1,0.2-0.2,0.5-0.3,0.7c-2.1,8.9,2.2,18,10.3,22.1
					c0.4,0.2,0.8,0.4,1.2,0.5l6.5-14.3C277.8,315.5,277,313.4,275.2,312.3z"/>
				<path class="st30" d="M276.4,315.2l-12.6-6.8c-0.9-0.5-1.3-1.7-0.8-2.6l0,0c0.5-0.9,1.7-1.3,2.6-0.8l12.6,6.8
					c0.9,0.5,1.3,1.7,0.8,2.6l0,0C278.5,315.3,277.4,315.7,276.4,315.2z"/>
				<path class="st4" d="M273.6,303.3L273.6,303.3c-3.9,0.5-7.5-2.3-8-6.1l-1.2-9.2c-0.5-3.9,2.2-7.5,6.1-8l0,0
					c3.9-0.5,7.5,2.2,8,6.1l1.2,9.2C280.3,299.2,277.6,302.8,273.6,303.3C273.6,303.3,273.6,303.3,273.6,303.3z"/>
				<path class="st23" d="M134.7,246.9c1.2,0,2.2,0.9,2.3,2.1c0.8,11.1-0.7,17.9-4.4,20.6c-1.6,1.2-3.7,1.5-5.6,0.9
					c-1.1-0.5-1.7-1.8-1.2-2.9c0.5-1.1,1.7-1.6,2.8-1.2c0.5,0.1,1.1,0,1.5-0.4c1.1-0.8,3.4-4.1,2.6-16.7
					C132.5,248.1,133.4,247,134.7,246.9L134.7,246.9z"/>
				<path class="st31" d="M119.8,255.6c4.2-0.4,7.9,2.6,8.3,6.8c0.2,1.5-0.1,3-0.8,4.4c-0.9,1.7-3,7.1-2.5,11.8
					c0.5,4.2-2.6,7.9-6.7,8.4c-4.2,0.5-7.9-2.6-8.4-6.7c-1.1-10.2,3.7-19.5,4.3-20.5C115.1,257.4,117.3,255.9,119.8,255.6z"/>
				<path class="st23" d="M134.1,229c1.2,0,2.3,0.9,2.3,2.1c0,0.8-0.4,1.5-1,1.9c-8.1,5.2-12.4,18.4-12.5,18.5
					c-0.5,1.1-1.8,1.7-2.9,1.2c-1-0.4-1.6-1.5-1.3-2.6c0.2-0.6,4.9-14.8,14.3-20.9C133.4,229.1,133.7,229,134.1,229z"/>
				<path class="st31" d="M114.5,266.7l11.2,5.1c1.8,0.8,3.9,0.1,4.7-1.7c0.1-0.2,0.2-0.5,0.2-0.7c1.8-8.9-2.7-17.9-11-21.8
					c-0.4-0.2-0.8-0.4-1.2-0.5l-6,14.5C111.9,263.6,112.7,265.7,114.5,266.7z"/>
				<path class="st32" d="M113.2,263.9l12.8,6.4c0.9,0.5,1.3,1.6,0.9,2.6l0,0c-0.5,0.9-1.6,1.3-2.6,0.9l-12.8-6.4
					c-0.9-0.5-1.3-1.6-0.8-2.6l0,0C111.1,263.8,112.3,263.4,113.2,263.9z"/>
				<path class="st4" d="M115.1,280.7L115.1,280.7c4,0,7.2,3.2,7.2,7.2v6.7c0,4-3.2,7.2-7.2,7.2h0c-4,0-7.2-3.2-7.2-7.2v-6.7
					C107.9,283.9,111.1,280.7,115.1,280.7z"/>
				<path class="st23" d="M207.6,384.9c-1.8,0-3.6-0.4-5.1-1.2c-6.4-3.4-6.8-12.3-6.8-12.7c-0.1-1.5,1.1-2.8,2.7-2.9
					c1.5-0.1,2.8,1.1,2.9,2.7l0,0c0.1,1.7,0.9,6.5,3.9,8c2.7,1.4,7,0.3,12.6-3.3c1.3-0.8,3-0.5,3.8,0.8c0.8,1.3,0.5,3-0.8,3.8
					C215.7,383.4,211.4,384.9,207.6,384.9z"/>
				<path class="st23" d="M163.8,383.9l-3,3c-0.5,0.5-1.4,0.5-1.9,0c-0.2-0.2-0.3-0.5-0.4-0.8L157,376c-0.1-0.4,0.2-0.8,0.7-0.9
					c0.3,0,0.6,0.1,0.8,0.3l5.4,7.5C164.1,383.2,164.1,383.6,163.8,383.9z"/>
				<path class="st23" d="M223.8,361.5l-2.1-0.8c-0.3-0.1-0.5,0.1-0.6,0.3l-0.2,0.8L223.8,361.5z"/>
				<path class="st33" d="M232.5,363.6c0.3,2.3-1.3,4.5-3.7,4.8s-4.5-1.3-4.8-3.7c-0.3-2.3,1.3-4.5,3.7-4.8c0,0,0,0,0,0
					C230,359.6,232.2,361.2,232.5,363.6z"/>
				
					<ellipse transform="matrix(1 -6.632214e-03 6.632214e-03 1 -2.4389 1.523)" class="st33" cx="228.4" cy="368.5" rx="4.3" ry="4.3"/>
				<path class="st34" d="M222.7,369.2c0.3,0.6,0,1.4-0.7,1.7s-1.4,0-1.7-0.7c-0.3-0.6,0-1.4,0.7-1.7c0,0,0,0,0,0
					C221.7,368.3,222.4,368.6,222.7,369.2C222.7,369.2,222.7,369.2,222.7,369.2z"/>
				<path class="st0" d="M222.3,369.4c0.2,0.4,0,0.9-0.5,1.1c-0.4,0.2-0.9,0-1.1-0.5c-0.2-0.4,0-0.9,0.5-1.1
					C221.6,368.8,222.1,369,222.3,369.4z"/>
				<path class="st35" d="M229.1,366.2l-1.2-2c-1.6-2.7-5.1-3.6-7.8-1.9c-2.7,1.6-3.6,5.1-1.9,7.8l0,0l1.2,2c0.7,1.1,1.7,2,2.9,2.4
					l0.3,0.1c1.5,0.5,3.2,0.3,4.6-0.6C229.8,372.4,230.7,368.9,229.1,366.2z"/>
				<path class="st23" d="M229.5,365.9l-1.2-2c-1.7-2.6-5.2-3.4-7.9-1.6c-2.5,1.6-3.3,4.9-1.9,7.5l1.2,2c0.7,1.1,1.7,2,2.9,2.4
					l0.3,0.1c3,0.9,6.2-0.8,7.1-3.8C230.5,368.9,230.3,367.2,229.5,365.9L229.5,365.9z"/>
				<path class="st33" d="M228.7,365.4L228.7,365.4c0.4-0.2,0.5-0.7,0.2-1.1l-1.1-1.6c-0.2-0.4-0.7-0.5-1.1-0.2l0,0
					c-0.4,0.2-0.5,0.7-0.2,1.1l1.1,1.6C227.8,365.6,228.3,365.6,228.7,365.4C228.7,365.4,228.7,365.4,228.7,365.4z"/>
				<path class="st33" d="M228.8,369.6L228.8,369.6c-1-0.3-1.5-1.4-1.2-2.4l0,0c0.3-1,1.3-1.6,2.3-1.3c0,0,0.1,0,0.1,0l0,0
					c1,0.3,1.5,1.4,1.2,2.4l0,0C230.9,369.4,229.9,369.9,228.8,369.6C228.8,369.6,228.8,369.6,228.8,369.6z"/>
				<path class="st33" d="M226,368L226,368c-1-0.3-1.5-1.4-1.2-2.4l0,0c0.3-1,1.4-1.5,2.4-1.2l0,0c1,0.3,1.5,1.4,1.2,2.3
					c0,0,0,0,0,0l0,0C228.1,367.8,227,368.3,226,368z"/>
				<path class="st33" d="M229,368.3L229,368.3c-1-0.3-1.5-1.4-1.2-2.4c0,0,0,0,0,0l0,0c0.3-1,1.4-1.5,2.4-1.2l0,0
					c1,0.3,1.5,1.4,1.2,2.4l0,0C231.1,368.1,230,368.6,229,368.3C229,368.3,229,368.3,229,368.3z"/>
				<path class="st33" d="M227.6,369.4c0.2-0.7,1-1.2,1.8-0.9s1.2,1,0.9,1.8c-0.2,0.7-1,1.2-1.8,0.9
					C227.8,370.9,227.4,370.1,227.6,369.4C227.6,369.4,227.6,369.4,227.6,369.4z"/>
				<path class="st33" d="M224.4,371.9c0.4-1.3,1.9-2.1,3.2-1.6c1.3,0.4,2.1,1.9,1.6,3.2c-0.4,1.3-1.9,2.1-3.2,1.6
					C224.7,374.6,224,373.2,224.4,371.9C224.4,371.9,224.4,371.9,224.4,371.9z"/>
				<path class="st33" d="M228.1,371.1c0.2-0.7,0.9-1,1.6-0.8c0,0,0,0,0,0c0.7,0.2,1,0.9,0.8,1.6c-0.2,0.7-0.8,1.1-1.5,0.9
					c-0.7-0.2-1.1-0.8-0.9-1.5C228.1,371.2,228.1,371.1,228.1,371.1z"/>
				<path class="st33" d="M225.7,368.4c0.3-1.1,1.5-1.7,2.6-1.3c1.1,0.3,1.7,1.5,1.3,2.6c-0.3,1.1-1.5,1.7-2.6,1.3c0,0,0,0,0,0
					C226,370.7,225.4,369.5,225.7,368.4z"/>
				<path class="st33" d="M224.1,367c0.2-0.7,1-1.2,1.8-0.9s1.2,1,0.9,1.8c-0.2,0.7-1,1.2-1.8,0.9
					C224.3,368.6,223.9,367.8,224.1,367C224.1,367,224.1,367,224.1,367z"/>
				<path class="st33" d="M222.3,366.5c0.3-0.9,1.2-1.4,2.1-1.1c0.9,0.3,1.4,1.2,1.1,2.1c-0.3,0.9-1.2,1.4-2.1,1.1
					C222.5,368.3,222,367.3,222.3,366.5C222.3,366.5,222.3,366.5,222.3,366.5z"/>
				<path class="st23" d="M226.1,368.9c0.4,0.6,0.2,1.4-0.4,1.7s-1.4,0.2-1.7-0.4c-0.4-0.6-0.2-1.4,0.4-1.7c0,0,0,0,0,0
					C225,368.1,225.8,368.3,226.1,368.9C226.1,368.9,226.1,368.9,226.1,368.9z"/>
				<path class="st35" d="M225.8,369.1c0.2,0.4,0.1,0.9-0.3,1.1c-0.4,0.2-0.9,0.1-1.1-0.3s-0.1-0.9,0.3-1.1l0,0
					C225,368.6,225.5,368.7,225.8,369.1z"/>
				<path class="st36" d="M256.8,179l8.6,24.2c0,0-17.1,3.1-20-2.9c0,0,6.3-34-0.6-52.2L256.8,179z"/>
				<path class="st15" d="M328.4,185.4L328.4,185.4c-5.4,0-9.8-4.4-9.8-9.8v-30.1c0-5.4,4.4-9.8,9.8-9.8l0,0c5.4,0,9.8,4.4,9.8,9.8
					v30.1C338.2,181,333.8,185.4,328.4,185.4z"/>
				<path class="st37" d="M245.2,145.9l2.8,20.3c1.5,11.3,11.9,19.2,23.2,17.7l0,0c11.3-1.5,19.2-11.9,17.7-23.2l-2.7-20.3
					c-1.5-11.3-11.9-19.2-23.2-17.7l0,0"/>
				<path class="st12" d="M245.2,144.4l2.8,20.3c1.5,11.3,11.9,19.2,23.2,17.7l0,0c11.3-1.5,19.2-11.9,17.7-23.2l-2.8-20.3
					c-1.5-11.3-11.8-19.2-23.1-17.8l0,0"/>
				<path class="st36" d="M245,152c0,0,10.4-4.7,14.4-12.6c0.9-1.8,3.1-2.5,4.8-1.6c0.4,0.2,0.7,0.4,1,0.7
					c6.9,7.3,16.2,12.1,26.2,13.5l-6.1-25.9l-21.5-7.4l-14.7,14.1L245,152z"/>
				<path class="st12" d="M106.7,202.7L106.7,202.7c10.5,2.2,20.7-4.5,22.9-14.9l4-18.8c2.2-10.5-4.5-20.7-14.9-23l0,0
					c-10.5-2.2-20.7,4.5-22.9,15l-4,18.8C89.6,190.3,96.3,200.5,106.7,202.7z"/>
				<path class="st24" d="M93.2,243.9l31-14.1c0,2.5-24.6,16.3-24.6,16.3s-5.2-1.1-8.8,1L93.2,243.9z"/>
				<path class="st24" d="M99.6,250.3l14.2-31c-2.5,0-16.3,24.6-16.3,24.6s1.1,5.2-1,8.8L99.6,250.3z"/>
				<path class="st24" d="M101.9,250.2c-0.6-0.3-1.3-0.5-1.9-0.5h-0.1c-0.9,0-1.8,0.3-2.6,0.9c-0.7,0.5-1.2,1.1-1.6,1.8l-1.9,3.7
					c-1.2,2.2-0.4,5,1.8,6.3c0.6,0.3,1.3,0.5,1.9,0.5c1.8,0,3.4-1.1,4.2-2.6l1.9-3.7C104.9,254.3,104.1,251.5,101.9,250.2z
					 M101.9,255.6l-1.9,3.7c-0.4,1.3-1.9,2-3.2,1.6c-1.3-0.4-2-1.9-1.6-3.2c0.1-0.2,0.2-0.5,0.4-0.7l1.9-3.7c0.5-1.3,1.9-2,3.2-1.5
					s2,1.9,1.5,3.2C102.1,255.2,102.1,255.4,101.9,255.6L101.9,255.6z"/>
				<path class="st24" d="M93.3,241.6c-1.2-2.2-4.1-3-6.3-1.8l-3.7,1.9c-1.6,0.8-2.6,2.4-2.7,4.2c0,0.7,0.2,1.3,0.5,1.9
					c1.2,2.2,4.1,3,6.3,1.8l3.7-1.9c0.7-0.4,1.3-0.9,1.8-1.6c0.5-0.7,0.8-1.6,0.9-2.6c0,0,0-0.1,0-0.1
					C93.7,242.9,93.6,242.2,93.3,241.6z M86.5,247.9c-1.2,0.8-2.7,0.5-3.5-0.7c-0.8-1.2-0.5-2.7,0.7-3.5c0.2-0.1,0.3-0.2,0.5-0.3
					l3.7-1.9c1.1-0.8,2.7-0.5,3.5,0.6s0.5,2.7-0.6,3.5c-0.2,0.1-0.4,0.2-0.6,0.3L86.5,247.9z"/>
				<path class="st24" d="M101.5,242.7c0,0.4-0.4,0.8-0.8,0.8c0,0,0,0,0,0c-0.4,0-0.8-0.4-0.8-0.8c0-0.4,0.3-0.8,0.8-0.8
					c0,0,0,0,0,0C101.1,241.9,101.5,242.3,101.5,242.7L101.5,242.7z"/>
				<path class="st2" d="M97.7,359.9l-13.1,22.9l-18.1-20.5c-11.5,6.5-18.7,18.7-18.8,32v104.8c0,2,1.6,3.7,3.7,3.7c0,0,0,0,0,0
					h66.3c2,0,3.7-1.6,3.7-3.7l0,0V394.4C121.4,379.1,111.9,365.4,97.7,359.9z"/>
				<path class="st12" d="M97.7,359.9c-4.2-1.6-8.6-2.4-13.1-2.4l0,0c-6.3,0-12.6,1.6-18.1,4.8l18.1,20.5L97.7,359.9z"/>
				<path class="st38" d="M81,354.8L81,354.8c12.3-1.7,20.9-13,19.3-25.3l-3-22.2c-1.7-12.3-13-20.9-25.3-19.3l0,0
					c-12.3,1.7-20.9,13-19.3,25.3l3,22.2C57.4,347.8,68.7,356.4,81,354.8z"/>
				<path class="st12" d="M81,351.9L81,351.9c12.3-1.7,20.9-13,19.3-25.3l-3-22.2c-1.7-12.3-13-20.9-25.3-19.3l0,0
					c-12.3,1.7-20.9,13-19.3,25.3l3,22.2C57.4,344.9,68.7,353.5,81,351.9z"/>
				<path class="st15" d="M121.4,459.4L121.4,459.4c-6.6,0-12-5.4-12-12v-19.8c0-6.6,5.4-12,12-12l0,0c6.6,0,12,5.4,12,12v19.9
					C133.4,454.1,128,459.4,121.4,459.4z"/>
				<g>
					<defs>
						<path id="SVGID_5_" d="M121.4,459.4L121.4,459.4c-6.6,0-12-5.4-12-12v-19.8c0-6.6,5.4-12,12-12l0,0c6.6,0,12,5.4,12,12v19.9
							C133.4,454.1,128,459.4,121.4,459.4z"/>
					</defs>
					<clipPath id="SVGID_6_">
						<use xlink:href="#SVGID_5_"  style="overflow:visible;"/>
					</clipPath>
					<g class="st39">
						<path class="st40" d="M106.6,425.5c7.5,0.9,15.1,0.7,22.6-0.6c2.1-0.4,4.1-0.8,6.1-1.4c0.6-0.2,0.7-0.6,0.2-1.1
							c-0.6-0.5-1.4-0.6-2.1-0.5c-6.9,1.8-14,2.6-21.2,2.4c-2.1-0.1-4.1-0.2-6.2-0.5c-0.4,0-1.4,0-1.3,0.7S106.1,425.4,106.6,425.5
							L106.6,425.5z"/>
						<path class="st40" d="M106.2,427.8c5.8,4.8,13.4,6.4,20.8,7c2.3,0.2,4.6,0.3,6.9,0.4c0.8,0,1.5-0.3,2-0.9
							c0.4-0.5,0.2-0.9-0.4-0.9c-7.4-0.3-15-0.6-21.8-3.9c-1.7-0.9-3.4-1.9-4.9-3.2C108,425.7,105.4,427.1,106.2,427.8z"/>
						<path class="st40" d="M134.9,437.3c-8,1.4-15.9,3.7-24.1,4.4c-2,0.2-3.9,0.2-5.9-0.1c-0.3,0,0.5,0.9,0.6,0.9
							c0.3,0.3,0.5,0.6,0.8,0.9c0.1,0.1,0.4,0.4,0.6,0.4c3.7,0.6,7.6,0,11.3-0.6c4.3-0.7,8.6-1.6,12.9-2.5c2-0.4,4-0.9,5.9-1.2
							c-0.3-0.4-0.6-0.9-0.9-1.2c-0.2-0.3-0.5-0.5-0.8-0.8C135.2,437.5,135.1,437.3,134.9,437.3L134.9,437.3z"/>
						<path class="st40" d="M137.7,448.8c-8.9-0.1-17.9,0.1-26.8,0.9c-2.5,0.2-5,0.4-7.6,0.7c-0.7,0.2-1.3,0.5-1.8,1
							c-0.2,0.2-0.8,0.8-0.2,0.7c8.8-1,17.6-1.5,26.5-1.6c2.5,0,5,0,7.5,0c0.7-0.1,1.3-0.4,1.7-0.8
							C137.1,449.7,138.1,448.8,137.7,448.8L137.7,448.8z"/>
						<path class="st40" d="M111.2,457.2l13.3,1.4c0.7,0,1.4-0.3,2-0.7c0.2-0.1,1-0.6,0.3-0.7l-13.3-1.4c-0.7,0-1.4,0.3-2,0.7
							C111.2,456.7,110.5,457.2,111.2,457.2z"/>
					</g>
				</g>
				<path class="st12" d="M118.6,448.8h-15.3c-4.2,0-7.7-3.4-7.7-7.7l0,0c0-4.2,3.4-7.7,7.7-7.7h15.3c4.2,0,7.7,3.4,7.7,7.7l0,0
					C126.2,445.4,122.8,448.8,118.6,448.8z"/>
				<path class="st12" d="M332,188.3c-0.2-0.3-0.7-0.4-1-0.2c-0.2,0.1-0.3,0.4-0.3,0.6v7.5c0,0.8-0.6,1.4-1.4,1.4
					c-0.8,0-1.4-0.6-1.4-1.4v-9c0-0.9-0.8-1.7-1.7-1.7c-0.1,0-0.1,0-0.2,0c-0.5,0-0.9,0.1-1.3,0.3c-2.8,1-4.7,3.7-4.6,6.7v12.2
					c-0.1,3.3,2.4,6.2,5.7,6.7c3.6,0.5,6.9-2,7.4-5.6c0-0.3,0.1-0.6,0.1-0.8v-13C333.1,190.7,332.7,189.4,332,188.3z"/>
				<path class="st13" d="M80.2,247.3l1.5-4.1l13-34.1c1.6-4.6-0.8-9.7-5.4-11.3c-4.5-1.6-9.4,0.6-11.2,5l-22.5,59.1
					c-1.8,4.6,0.5,9.7,5.1,11.4c2.3,0.9,4.8,0.8,7.1-0.3l19.9-9.7c-2.1-5.7-3.6-11.6-4.4-17.6L80.2,247.3z"/>
				<path class="st12" d="M100.7,247.2c-2.1-4.4-7.4-6.2-11.8-4.1c0,0,0,0,0,0l-5.4,2.6c0.8,6,2.3,11.9,4.4,17.6l8.8-4.3
					C101,256.9,102.8,251.6,100.7,247.2z"/>
				<path class="st15" d="M129.6,441l-0.1-1.2c0.4,0,36.4-3.6,48.7-15.9l0.2-0.2h0.3c11.8,0.2,23.6-1,35.1-3.7
					c18.1-4.1,43.8-13.5,63.4-35.3c26.7-29.8,35.4-74.5,25.9-132.9v-0.1v-0.1c0.2-0.8,18.4-75.2,21.2-87.4l1.2,0.3
					c-2.8,12-20.4,83.9-21.2,87.3c9.6,58.7,0.8,103.8-26.2,133.8c-19.7,22-45.7,31.6-64,35.7c-11.5,2.6-23.3,3.9-35.1,3.8
					C166.1,437.4,131.1,440.9,129.6,441z"/>
				<path class="st12" d="M296.5,246.5l10.2,0.4c4.2,0.2,7.4,3.7,7.2,7.9l0,1.2c-0.2,4.2-3.7,7.4-7.9,7.2l-10.2-0.4
					c-4.2-0.2-7.4-3.7-7.2-7.9l0-1.2C288.8,249.6,292.3,246.3,296.5,246.5z"/>
				<path class="st13" d="M245.3,207.5c0,0,5.8-1.6,6.3-8.7c1.3-17.3-1.9-51.4-1.9-59.7c0,0,1.9-9.4,13.5-13.2
					c0,0,12.7-2.2,19.2,8.4c0,0,1.5,42.3,11.8,52.6l18,15.7c0,0-14.4-31.9-12.2-42.6c0,0,0-42.4-29.2-42.4c0,0-28.1-0.3-25.9,32.9
					C244.8,150.5,245.3,194.3,245.3,207.5z"/>
				<path class="st4" d="M253.9,163.6L253.9,163.6c-0.8,0-1.5-0.7-1.5-1.5v-4c0-0.8,0.7-1.5,1.5-1.5l0,0c0.8,0,1.5,0.7,1.5,1.5v4
					C255.4,162.9,254.7,163.5,253.9,163.6z"/>
				<path class="st4" d="M270.1,164.7L270.1,164.7c-1.1,0-2.1-0.9-2.1-2c0,0,0-0.1,0-0.1l-0.2-4.9c-0.1-1.1,0.8-2.2,1.9-2.3l0,0
					c1.1,0,2.1,0.9,2.1,2c0,0,0,0,0,0l0.2,4.9C272.1,163.5,271.2,164.5,270.1,164.7z"/>
				<path class="st4" d="M261,164.9l2.5-0.4c0.3,1.4-0.6,2.8-2,3.1c0,0,0,0,0,0c-1.5,0.1-2.8-0.9-3-2.4c-0.3-1.4,0.6-2.8,2-3.1
					c0,0,0,0,0.1,0l0,0L261,164.9z"/>
				<path class="st4" d="M264.6,155.2l-1-1.9c0.4-0.2,0.7-0.4,1.1-0.7c0.9-0.6,1.8-1.1,2.9-1.4c1.4-0.2,2.8-0.1,4.1,0.3l0.8,0.2
					l5.1,1.1l-0.4,2.1l-5.1-1.1l-0.8-0.2c-1-0.3-2.1-0.4-3.1-0.3c-0.8,0.3-1.5,0.6-2.2,1.1C265.4,154.7,265,155,264.6,155.2z"/>
				<path class="st4" d="M257.1,155.8l-0.9-1c-0.8-0.9-2.1-1.2-3.2-0.7l-3.1,1.3l-0.6-1.4l3.1-1.3c1.7-0.7,3.8-0.3,5,1.1l0.9,1
					L257.1,155.8z"/>
				<path class="st4" d="M258.1,172.7c-0.2,0-0.5-0.2-0.5-0.4c-0.1-0.3,0.1-0.6,0.4-0.6c0,0,0,0,0,0c0.3-0.1,6.6-1.6,9.4-0.6
					c0.3,0.1,0.4,0.4,0.3,0.7c0,0,0,0,0,0c-0.1,0.3-0.4,0.4-0.7,0.3c-2.6-0.9-8.8,0.6-8.8,0.6L258.1,172.7z"/>
				<path class="st6" d="M263.5,173.7c-0.1,0-0.2,0-0.2-0.1c-0.1-0.1-0.1-0.3,0-0.4c0,0,0,0,0,0c0.3-0.2,0.7-0.2,1-0.1
					c0.1,0,0.2,0.2,0.2,0.3c-0.1,0.1-0.2,0.2-0.3,0.2c-0.2-0.1-0.4-0.1-0.6,0C263.6,173.7,263.5,173.7,263.5,173.7z"/>
				<path class="st36" d="M278.9,146.8c0,0,1.3,42.1-7.7,65.3s32.3-5.7,32.3-5.7s-16.9-68.6-21-72.1L278.9,146.8z"/>
				<g>
					<defs>
						<path id="SVGID_7_" d="M328.4,185.4L328.4,185.4c-5.4,0-9.8-4.4-9.8-9.8v-30.1c0-5.4,4.4-9.8,9.8-9.8l0,0
							c5.4,0,9.8,4.4,9.8,9.8v30.1C338.2,181,333.8,185.4,328.4,185.4z"/>
					</defs>
					<clipPath id="SVGID_8_">
						<use xlink:href="#SVGID_7_"  style="overflow:visible;"/>
					</clipPath>
					<g class="st41">
						<path class="st40" d="M314.7,178.3c6.3,0.2,12.7,0.1,19-0.3c2.5-0.2,4.8-0.5,6.4-2.5c0.4-0.5-0.9-0.6-1.2-0.2
							c-2.5,3.1-9.6,2.2-13.1,2.3s-7.2,0-10.9-0.1C314.3,177.5,313.9,178.2,314.7,178.3L314.7,178.3z"/>
						<path class="st40" d="M339.4,172.4c-8.9-1.1-16.7-5-24.5-9.2c-0.4-0.2-1.6,0.1-1,0.5c8.1,4.3,16.3,8.3,25.5,9.4
							C340.1,173.2,340.1,172.5,339.4,172.4L339.4,172.4z"/>
						<path class="st40" d="M318.2,162.1c7.7-1.3,15.4-3.1,23-5.2c0.5-0.1-0.8-0.1-1-0.1c-7.4,2-14.8,3.7-22.4,5
							C316.9,162,317.8,162.1,318.2,162.1L318.2,162.1z"/>
						<path class="st40" d="M339.2,152c-7.6-1.5-15-3.6-22.3-6.2c-0.8-0.3-0.7,0.6,0,0.9c7.3,2.6,14.7,4.7,22.3,6.2
							C340.1,153.1,339.9,152.1,339.2,152z"/>
						<path class="st40" d="M319.4,142.4c3.5-0.8,7.1-0.3,10.7-0.8c3.5-0.5,6.9-1.5,10.1-2.9c0.8-0.3,0.2-1.4-0.5-1
							c-4,1.7-8.2,2.7-12.5,3c-2.7,0.1-5.3-0.1-7.9,0.6c-0.3,0-0.6,0.3-0.6,0.6c0,0.3,0.3,0.6,0.6,0.6
							C319.3,142.4,319.4,142.4,319.4,142.4L319.4,142.4z"/>
					</g>
				</g>
				<path class="st4" d="M129.3,176.2l1.6-0.7c-0.1-0.1-1.3-3.6-7-2.8l0.2,1.9C128.3,173.9,129.2,176.1,129.3,176.2z"/>
				<path class="st4" d="M115.9,173.6l1.5-0.9c-0.1-0.2-2.9-5.8-11.4-2.6l0.5,1.8C113.6,169.2,115.8,173.4,115.9,173.6z"/>
				<path class="st4" d="M125.5,186.5L125.5,186.5c0.8,0.2,1.6-0.3,1.8-1.1l0.8-3.9c0.2-0.8-0.3-1.6-1.2-1.8l0,0
					c-0.8-0.2-1.6,0.3-1.8,1.1l-0.8,3.9C124.2,185.5,124.7,186.3,125.5,186.5z"/>
				<path class="st4" d="M108.7,182.9L108.7,182.9c1.1,0.3,2.2-0.3,2.5-1.4c0,0,0-0.1,0-0.1l1.4-4.7c0.4-1.1-0.2-2.3-1.3-2.7l0,0
					c-1.1-0.3-2.2,0.3-2.5,1.4c0,0,0,0.1,0,0.1l-1.4,4.7C107.1,181.3,107.6,182.5,108.7,182.9z"/>
				<path class="st4" d="M117.8,185.3l-3.2-0.8c-0.5,1.7,0.3,3.4,1.9,4.1c1.8,0.6,3.7-0.4,4.3-2.2c0-0.1,0.1-0.3,0.1-0.4
					L117.8,185.3z"/>
				<path class="st24" d="M111.1,177.7L111.1,177.7c-0.2-0.1-0.4-0.3-0.3-0.5l0.2-1.1c0-0.2,0.3-0.4,0.5-0.3c0,0,0,0,0,0l0,0
					c0.2,0.1,0.4,0.3,0.3,0.5l-0.2,1.1C111.5,177.6,111.3,177.7,111.1,177.7z"/>
				<path class="st24" d="M127.2,182.6L127.2,182.6c-0.2,0-0.3-0.3-0.3-0.5c0,0,0,0,0,0l0.2-0.9c0-0.2,0.3-0.3,0.5-0.3l0,0
					c0.2,0,0.3,0.3,0.3,0.5l-0.2,0.9C127.6,182.5,127.4,182.6,127.2,182.6z"/>
				<path class="st42" d="M116.6,197c-0.1,0-0.2,0-0.2-0.1c-0.9-1.1-2.8-0.8-2.8-0.7c-0.1,0-0.3-0.1-0.3-0.2c0-0.1,0.1-0.3,0.2-0.3
					c0,0,0,0,0,0c0.1,0,2.2-0.4,3.3,0.9c0.1,0.1,0.1,0.3,0,0.4C116.7,197,116.6,197,116.6,197z"/>
				<path class="st4" d="M119,194.5c-0.1,0-0.2,0-0.3-0.1c-2.5-1.6-6.4-1.2-6.4-1.2c-0.3,0-0.5-0.2-0.6-0.5c0,0,0,0,0,0
					c0-0.3,0.2-0.5,0.5-0.6c0.2,0,4.3-0.4,7.1,1.4c0.2,0.2,0.3,0.5,0.2,0.7C119.3,194.4,119.2,194.5,119,194.5z"/>
				<path class="st42" d="M105.3,191.7c-0.3-0.1-0.4-0.4-0.4-0.7c0-0.2,0.2-0.3,0.3-0.3c4.5-0.5,5.1-2.2,5.1-2.2
					c0-0.3,0.3-0.5,0.6-0.5c0,0,0.1,0,0.1,0c0.3,0.1,0.5,0.3,0.4,0.6C111.3,188.9,110.7,191.1,105.3,191.7L105.3,191.7z"/>
				<path class="st42" d="M121.9,196.4c-0.2,0-0.4-0.1-0.5-0.3c-0.9-1.5-1-5.3-1.1-5.5c0-0.3,0.2-0.5,0.5-0.6c0.3,0,0.5,0.2,0.5,0.5
					c0,0,0,0,0,0c0,1,0.3,3.9,0.9,5c0.1,0.3,0.1,0.6-0.2,0.7C122.1,196.4,122,196.4,121.9,196.4z"/>
				<path class="st42" d="M128,170.4h-0.1l-12.9-3c-0.3,0-0.5-0.2-0.5-0.5c0-0.3,0.2-0.5,0.5-0.5c0.1,0,0.2,0,0.3,0.1l12.9,3
					c0.3,0.1,0.5,0.4,0.4,0.6C128.4,170.3,128.2,170.4,128,170.4z"/>
				<path class="st42" d="M128.7,168.3h-0.1l-12.9-3c-0.3,0-0.5-0.2-0.5-0.5c0-0.3,0.2-0.5,0.5-0.5c0.1,0,0.2,0,0.3,0.1l12.9,3
					c0.3,0.1,0.5,0.3,0.4,0.6c0,0,0,0,0,0C129.2,168.1,129,168.3,128.7,168.3z"/>
				<path class="st4" d="M87.3,332.8L87.3,332.8c-1.9,0.4-3.7-0.7-4.1-2.6l-2.4-10.5c-0.4-1.9,0.7-3.7,2.6-4.1l0,0
					c1.9-0.4,3.7,0.7,4.1,2.6l2.4,10.5C90.3,330.5,89.2,332.4,87.3,332.8z"/>
				<path class="st12" d="M86.7,330.1L86.7,330.1c-1.9,0.4-3.9-0.8-4.3-2.7l-2.5-10.9c-0.4-1.9,0.8-3.9,2.7-4.3l0,0
					c1.9-0.4,3.9,0.8,4.3,2.7l2.5,10.9C89.9,327.7,88.6,329.7,86.7,330.1z"/>
				<path class="st4" d="M76,324.8c0,1.2-0.9,2.1-2.1,2.1s-2.1-0.9-2.1-2.1c0-1.2,0.9-2.1,2.1-2.1c0,0,0,0,0,0
					C75.1,322.7,76,323.6,76,324.8z"/>
				<path class="st4" d="M95.4,320.6c0,1.2-0.9,2.1-2.1,2.1c-1.2,0-2.1-0.9-2.1-2.1c0-1.2,0.9-2.1,2.1-2.1c0,0,0,0,0,0
					C94.4,318.5,95.4,319.4,95.4,320.6L95.4,320.6z"/>
				<path class="st4" d="M81.4,340.8L81.4,340.8v-1c3.4,0,9.4-1,11.2-3.6l0.9,0.6C91.1,340.1,84,340.8,81.4,340.8z"/>
				<path class="st2" d="M66.2,322.6l-1.4-2.8c3.3-1.6,9-5,10.2-7l2.7,1.7C75.6,317.9,67.2,322.1,66.2,322.6z"/>
				<path class="st2" d="M97.2,315.5c-3.6-0.6-7.1-1.9-10.2-3.9l1.1-1.8c0,0,4.8,3,9.3,3.5L97.2,315.5z"/>
				<path class="st13" d="M71.9,219.3c16.5-6.4,28.5-21.1,31.5-38.6c0.9-5.6,1-11.9,4.7-16.2c3.4-4,9.3,0.6,14.4,1.7
					s9.5-1.4,13.2,2.4c1-13.2-10.3-26-23.5-26.7c-4.1-0.3-8.1,0.8-11.4,3.1c-3.2,2.5-5,6.3-6.3,10.1c-2.5,7.2-3.6,14.8-3.2,22.4
					c0.2,2.9-1.9,5.9-3.2,8.5c-1.1,2.1-0.7,3.6-2.5,5.1c-8.1,6.9-11.6,16.3-13.2,26.6"/>
				<path class="st4" d="M38.1,339.1c0-6.7,5.5-12.2,12.2-12.2s12.2,5.5,12.2,12.2c0,6.7-5.5,12.2-12.2,12.2S38.1,345.8,38.1,339.1
					L38.1,339.1z"/>
				<circle class="st21" cx="63.6" cy="296.3" r="17.1"/>
				<circle class="st21" cx="85.9" cy="290.9" r="15.3"/>
				
					<ellipse transform="matrix(0.262 -0.9651 0.9651 0.262 -220.9084 278.8759)" class="st21" cx="71.9" cy="283.9" rx="12.2" ry="12.2"/>
				<path class="st21" d="M37.4,314.4c0-6.7,5.5-12.2,12.2-12.2c6.7,0,12.2,5.5,12.2,12.2c0,6.7-5.5,12.2-12.2,12.2c0,0,0,0,0,0
					C42.8,326.6,37.4,321.1,37.4,314.4z"/>
				
					<ellipse transform="matrix(3.327795e-02 -0.9994 0.9994 3.327795e-02 -279.68 375.3927)" class="st21" cx="54.2" cy="332.3" rx="12.2" ry="12.2"/>
				<path class="st21" d="M50.8,352.7c0-6.7,5.5-12.2,12.2-12.2s12.2,5.5,12.2,12.2c0,6.7-5.5,12.2-12.2,12.2
					C56.3,364.9,50.8,359.4,50.8,352.7C50.8,352.7,50.8,352.7,50.8,352.7z"/>
				
					<ellipse transform="matrix(0.996 -8.911966e-02 8.911966e-02 0.996 -32.4509 7.1551)" class="st21" cx="63.9" cy="367" rx="12.2" ry="12.2"/>
				
					<ellipse transform="matrix(0.2297 -0.9733 0.9733 0.2297 -305.7625 318.1537)" class="st21" cx="48.1" cy="352.2" rx="12.2" ry="12.2"/>
				<circle class="st21" cx="46.6" cy="374.3" r="12.2"/>
				<path class="st21" d="M49.4,381.3c0-6.7,5.5-12.2,12.2-12.2c6.7,0,12.2,5.5,12.2,12.2c0,6.7-5.5,12.2-12.2,12.2c0,0,0,0,0,0
					C54.8,393.5,49.4,388,49.4,381.3z"/>
				
					<ellipse transform="matrix(0.2297 -0.9733 0.9733 0.2297 -255.8268 273.9154)" class="st21" cx="45.1" cy="298.6" rx="12.2" ry="12.2"/>
			</g>
		</g>
	</g>
</g>
</svg>
