<svg xmlns="http://www.w3.org/2000/svg" xmlns:xlink="http://www.w3.org/1999/xlink" viewBox="0 0 381.76 619.14"><defs><style>.cls-1{fill:none;}.cls-2{fill:#ffd351;}.cls-3{fill:#f4b155;}.cls-4{fill:#fff0cc;}.cls-5{fill:#231f20;}.cls-6{clip-path:url(#clip-path);}.cls-7{fill:#3d2c36;}.cls-8{fill:#f2deb6;}.cls-9{fill:#e8d0a7;}.cls-10{fill:#2d1d22;}.cls-11{fill:#422f36;}.cls-12{fill:#262626;}.cls-13{fill:#35282d;}.cls-14{fill:#ffebbd;}.cls-15{fill:#1c1b1b;}.cls-16{clip-path:url(#clip-path-2);}.cls-17{fill:#e1db90;}.cls-18{fill:#adc57f;}.cls-19{fill:#82b686;}.cls-20{fill:#8ecc94;}.cls-21{fill:#f2deb1;}.cls-22{fill:#353535;}.cls-23{fill:#e6705f;}.cls-24{fill:#ffae50;}.cls-25{fill:#fff;}.cls-26{fill:#ee915b;}.cls-27{fill:#efc04d;}.cls-28{fill:#594096;}.cls-29{fill:#6b45b4;}.cls-30{fill:#e89746;}.cls-31{fill:#dd4f65;}.cls-32{fill:#aa5263;}.cls-33{fill:#5c8cbc;}.cls-34{fill:#517693;}.cls-35{fill:#47372e;}.cls-36{fill:#ffd250;}.cls-37{fill:#e89d54;}.cls-38{fill:#30272a;}.cls-39{fill:#f4e1ba;}.cls-40{fill:#f4e0b8;}.cls-41{clip-path:url(#clip-path-3);}.cls-42{fill:#efc150;}.cls-43{clip-path:url(#clip-path-4);}.cls-44{fill:#414042;}.cls-45{fill:#2d394c;}</style><clipPath id="clip-path"><rect class="cls-1" x="50.32" y="72.84" width="290.02" height="392.88" rx="40.27"/></clipPath><clipPath id="clip-path-2"><path class="cls-1" d="M228.56,199.62H162.62v-59.2a32.85,32.85,0,0,1,4.42-16.5,33.37,33.37,0,0,1,8.12-9.38,32.85,32.85,0,0,1,20.43-7.09h0a33,33,0,0,1,33,33Z"/></clipPath><clipPath id="clip-path-3"><path class="cls-2" d="M121.42,459.42h0a12,12,0,0,1-12-12V427.6a12,12,0,0,1,12-12h0a12,12,0,0,1,12,12v19.86A12,12,0,0,1,121.42,459.42Z"/></clipPath><clipPath id="clip-path-4"><path class="cls-1" d="M328.42,185.41h0a9.82,9.82,0,0,1-9.79-9.78V145.5a9.82,9.82,0,0,1,9.79-9.79h0a9.82,9.82,0,0,1,9.79,9.79v30.13A9.82,9.82,0,0,1,328.42,185.41Z"/></clipPath></defs><g id="Layer_2" data-name="Layer 2"><g id="Layer_1-2" data-name="Layer 1"><path class="cls-3" d="M381.76,23.47v572.2c0,12.94-10.92,23.47-24.36,23.47h-333C10.93,619.14,0,608.61,0,595.67V23.47C0,10.53,10.93,0,24.35,0h333C370.84,0,381.76,10.53,381.76,23.47ZM361.3,582.06v-545a17.59,17.59,0,0,0-17.57-17.57H38A17.59,17.59,0,0,0,20.47,37.09v545A17.58,17.58,0,0,0,38,599.62h305.7A17.59,17.59,0,0,0,361.3,582.06Z"/><rect class="cls-4" x="20.47" y="19.52" width="340.83" height="580.1" rx="17.57"/><path class="cls-5" d="M47.09,546.14a.9.9,0,0,1-.22-.67V532H42.54a.73.73,0,0,1-.87-.87v-.67a1,1,0,0,1,.19-.68.88.88,0,0,1,.68-.21H54.36a.92.92,0,0,1,.69.21,1,1,0,0,1,.2.68v.67a.92.92,0,0,1-.2.67,1,1,0,0,1-.69.2H50v13.5a.94.94,0,0,1-.21.67,1,1,0,0,1-.73.22H47.81A1,1,0,0,1,47.09,546.14Z"/><path class="cls-5" d="M57.39,546.14a.94.94,0,0,1-.21-.67v-15a1,1,0,0,1,.21-.69.92.92,0,0,1,.7-.23H59.4a1,1,0,0,1,.72.23.94.94,0,0,1,.22.69v6.23h8.12v-6.23a.94.94,0,0,1,.22-.69,1,1,0,0,1,.72-.23h1.28a1,1,0,0,1,.72.23.94.94,0,0,1,.22.69v15a.94.94,0,0,1-.21.67,1,1,0,0,1-.73.22H69.4a1,1,0,0,1-.72-.22.9.9,0,0,1-.22-.67v-6.38H60.34v6.38a.94.94,0,0,1-.21.67,1,1,0,0,1-.73.22H58.09A.92.92,0,0,1,57.39,546.14Z"/><path class="cls-5" d="M74.75,546.14a.94.94,0,0,1-.21-.67v-15a1,1,0,0,1,.21-.69.94.94,0,0,1,.71-.23H85.74a.92.92,0,0,1,.68.2.94.94,0,0,1,.19.67v.67a1,1,0,0,1-.19.68.88.88,0,0,1-.68.21h-8v4.8h5.83a1,1,0,0,1,.7.19,1,1,0,0,1,.19.67v.62a1,1,0,0,1-.19.68,1,1,0,0,1-.7.21H77.71V544h8a.92.92,0,0,1,.69.21,1,1,0,0,1,.2.68v.67a.88.88,0,0,1-.2.64.92.92,0,0,1-.69.2H75.46A.94.94,0,0,1,74.75,546.14Z"/><path class="cls-5" d="M102.15,546.23a.82.82,0,0,1-.26-.49L98,530.14a.65.65,0,0,1,0-.22c0-.25.16-.38.47-.38h2a.82.82,0,0,1,.52.13.61.61,0,0,1,.2.39L103.63,541l3-9.6a1,1,0,0,1,.24-.41.75.75,0,0,1,.46-.11h1.13a.75.75,0,0,1,.46.11,1,1,0,0,1,.24.41l3,9.6,2.45-10.89a.57.57,0,0,1,.21-.39.81.81,0,0,1,.5-.13h2c.32,0,.47.13.47.38a1.18,1.18,0,0,1,0,.22l-3.94,15.6a.7.7,0,0,1-.81.62h-1.34a.9.9,0,0,1-.53-.13.88.88,0,0,1-.28-.49l-3-9.89-3,9.89a.72.72,0,0,1-.82.62h-1.36A1,1,0,0,1,102.15,546.23Z"/><path class="cls-5" d="M120.43,546.14a.94.94,0,0,1-.21-.67v-15a1,1,0,0,1,.21-.69.94.94,0,0,1,.71-.23h1.31a.82.82,0,0,1,.94.92v6.23h8.11v-6.23a.94.94,0,0,1,.22-.69,1,1,0,0,1,.72-.23h1.28a1,1,0,0,1,.72.23.94.94,0,0,1,.22.69v15a.94.94,0,0,1-.21.67,1,1,0,0,1-.73.22h-1.28a1,1,0,0,1-.72-.22.9.9,0,0,1-.22-.67v-6.38h-8.11v6.38a.94.94,0,0,1-.21.67,1,1,0,0,1-.73.22h-1.31A.94.94,0,0,1,120.43,546.14Z"/><path class="cls-5" d="M137.79,546.14a.94.94,0,0,1-.21-.67v-15a1,1,0,0,1,.21-.69.94.94,0,0,1,.71-.23h10.29a.94.94,0,0,1,.68.2,1,1,0,0,1,.18.67v.67a1,1,0,0,1-.18.68.89.89,0,0,1-.68.21h-8v4.8h5.84a1,1,0,0,1,.69.19,1,1,0,0,1,.2.67v.62a1,1,0,0,1-.2.68.93.93,0,0,1-.69.21h-5.84V544h8a.92.92,0,0,1,.69.21.94.94,0,0,1,.2.68v.67a.83.83,0,0,1-.2.64.92.92,0,0,1-.69.2H138.5A.94.94,0,0,1,137.79,546.14Z"/><path class="cls-5" d="M152,546.14a.94.94,0,0,1-.21-.67v-15a1,1,0,0,1,.21-.69.92.92,0,0,1,.7-.23H163a.92.92,0,0,1,.68.2,1,1,0,0,1,.19.67v.67a1,1,0,0,1-.19.68.88.88,0,0,1-.68.21h-8v4.8h5.84a.73.73,0,0,1,.89.86v.62a1,1,0,0,1-.2.68.92.92,0,0,1-.69.21H155V544h8a.92.92,0,0,1,.69.21,1,1,0,0,1,.2.68v.67a.88.88,0,0,1-.2.64.92.92,0,0,1-.69.2H152.74A.92.92,0,0,1,152,546.14Z"/><path class="cls-5" d="M166.28,546.14a.94.94,0,0,1-.21-.67v-15a1,1,0,0,1,.21-.69.94.94,0,0,1,.71-.23h1.31a.81.81,0,0,1,.94.92V544h7.57a.92.92,0,0,1,.69.21,1,1,0,0,1,.2.68v.67a.88.88,0,0,1-.2.64.92.92,0,0,1-.69.2H167A.94.94,0,0,1,166.28,546.14Z"/><path class="cls-5" d="M191,544.43a10.68,10.68,0,0,1,0-13,9.67,9.67,0,0,1,12.52,0,10.64,10.64,0,0,1,0,13,9.67,9.67,0,0,1-12.52,0Zm10.22-1.67a9.17,9.17,0,0,0,0-9.61,5.63,5.63,0,0,0-7.92,0,9.06,9.06,0,0,0,0,9.61,5.58,5.58,0,0,0,7.92,0Z"/><path class="cls-5" d="M208.33,546.14a.94.94,0,0,1-.21-.67v-15a1,1,0,0,1,.21-.69.92.92,0,0,1,.7-.23h10.29a.92.92,0,0,1,.68.2,1,1,0,0,1,.19.67v.67a1,1,0,0,1-.19.68.88.88,0,0,1-.68.21h-8v4.77h5.84a1,1,0,0,1,.69.2.92.92,0,0,1,.2.67v.66a1,1,0,0,1-.2.69.92.92,0,0,1-.69.21h-5.84v6.3a.94.94,0,0,1-.21.67,1,1,0,0,1-.73.22H209A.92.92,0,0,1,208.33,546.14Z"/><path class="cls-5" d="M232,546.14a.94.94,0,0,1-.21-.67v-15a1,1,0,0,1,.21-.69.94.94,0,0,1,.71-.23H243a.92.92,0,0,1,.68.2.94.94,0,0,1,.19.67v.67a1,1,0,0,1-.19.68.88.88,0,0,1-.68.21h-8v4.77h5.83a1,1,0,0,1,.7.2.93.93,0,0,1,.19.67v.66a1,1,0,0,1-.19.69,1,1,0,0,1-.7.21h-5.83v6.3a.94.94,0,0,1-.21.67,1,1,0,0,1-.73.22h-1.31A.94.94,0,0,1,232,546.14Z"/><path class="cls-5" d="M246.34,544.43a10.68,10.68,0,0,1,0-13,9.68,9.68,0,0,1,12.53,0,10.64,10.64,0,0,1,0,13,9.68,9.68,0,0,1-12.53,0Zm10.23-1.67a9.17,9.17,0,0,0,0-9.61,5.64,5.64,0,0,0-7.93,0,9.11,9.11,0,0,0,0,9.61,5.59,5.59,0,0,0,7.93,0Z"/><path class="cls-5" d="M263.7,546.14a.94.94,0,0,1-.21-.67v-15a1,1,0,0,1,.21-.69.94.94,0,0,1,.71-.23h6.45a6.38,6.38,0,0,1,4.37,1.34,5.06,5.06,0,0,1,1.49,4,5.21,5.21,0,0,1-.81,2.95,5,5,0,0,1-2.38,1.85l2.75,6.08a.6.6,0,0,1,.07.27c0,.25-.15.37-.44.37h-2a1.07,1.07,0,0,1-.47-.08.77.77,0,0,1-.27-.36l-2.5-5.86h-4v5.41a.94.94,0,0,1-.21.67,1,1,0,0,1-.73.22h-1.31A.94.94,0,0,1,263.7,546.14Zm6.52-8.46a4,4,0,0,0,2.55-.67,2.65,2.65,0,0,0,.81-2.17,2.87,2.87,0,0,0-.74-2.18,3.19,3.19,0,0,0-2.25-.69h-3.93v5.71Z"/><path class="cls-5" d="M282.71,546.14a.9.9,0,0,1-.22-.67V532h-4.33a.73.73,0,0,1-.87-.87v-.67a1,1,0,0,1,.19-.68.88.88,0,0,1,.68-.21H290a.92.92,0,0,1,.69.21,1,1,0,0,1,.2.68v.67a.92.92,0,0,1-.2.67,1,1,0,0,1-.69.2h-4.33v13.5a.94.94,0,0,1-.21.67,1,1,0,0,1-.73.22h-1.28A1,1,0,0,1,282.71,546.14Z"/><path class="cls-5" d="M296.26,546a5.84,5.84,0,0,1-2.64-2.19,6,6,0,0,1-.94-3.36v-10a1,1,0,0,1,.21-.69.92.92,0,0,1,.7-.23h1.31a1,1,0,0,1,.72.23.94.94,0,0,1,.22.69v10a3.68,3.68,0,0,0,1.13,2.92,5.72,5.72,0,0,0,6.43,0,3.68,3.68,0,0,0,1.12-2.92v-10a.81.81,0,0,1,.94-.92h1.29c.64,0,1,.31,1,.92v10a5.93,5.93,0,0,1-.95,3.35A6.15,6.15,0,0,1,304.1,546a9.47,9.47,0,0,1-3.91.76A9.7,9.7,0,0,1,296.26,546Z"/><path class="cls-5" d="M310.72,546.14a.94.94,0,0,1-.21-.67v-15a1,1,0,0,1,.21-.69,1,1,0,0,1,.73-.23h1.13a1.35,1.35,0,0,1,.55.1,1.15,1.15,0,0,1,.39.4l8.17,11.33V530.46a1,1,0,0,1,.21-.69.92.92,0,0,1,.7-.23h1.31a1,1,0,0,1,.72.23.94.94,0,0,1,.22.69v15a.94.94,0,0,1-.21.67,1,1,0,0,1-.73.22h-1.16a1.34,1.34,0,0,1-.52-.08,1.29,1.29,0,0,1-.4-.39l-8.16-11.3v10.88a.94.94,0,0,1-.21.67,1,1,0,0,1-.73.22h-1.31A.92.92,0,0,1,310.72,546.14Z"/><path class="cls-5" d="M328,546.14a.94.94,0,0,1-.21-.67v-15a1,1,0,0,1,.21-.69.92.92,0,0,1,.7-.23H339a.92.92,0,0,1,.68.2.94.94,0,0,1,.19.67v.67a1,1,0,0,1-.19.68.88.88,0,0,1-.68.21h-8v4.8h5.83a1,1,0,0,1,.69.19.91.91,0,0,1,.2.67v.62a.94.94,0,0,1-.2.68.92.92,0,0,1-.69.21h-5.83V544h8a.92.92,0,0,1,.69.21,1,1,0,0,1,.2.68v.67a.88.88,0,0,1-.2.64.92.92,0,0,1-.69.2H328.68A.92.92,0,0,1,328,546.14Z"/><g class="cls-6"><path class="cls-7" d="M251.78,168.07l-1.42-1c.08-.14,2-3.26,7.45-1.22l-.56,1.77C253.16,166.05,251.84,168,251.78,168.07Z"/><path class="cls-7" d="M266.54,168.75l-1.4-1.08c.15-.23,3.6-5.42,11.64-1l-.77,1.67C269.35,164.68,266.65,168.58,266.54,168.75Z"/><path class="cls-7" d="M254.57,177.39h0a1.51,1.51,0,0,1-1.5-1.5v-4a1.5,1.5,0,0,1,1.5-1.5h0a1.51,1.51,0,0,1,1.51,1.5v4A1.51,1.51,0,0,1,254.57,177.39Z"/><path class="cls-7" d="M271.76,177.45h0a2.05,2.05,0,0,1-2.13-2l-.34-4.89a2.12,2.12,0,0,1,1.83-2.33h0a2.07,2.07,0,0,1,2.14,2l.33,4.89A2.11,2.11,0,0,1,271.76,177.45Z"/><path class="cls-8" d="M262.22,178l2.56.29a2.65,2.65,0,0,1-2.83,2.5,2.77,2.77,0,0,1-2.29-3.09,2.65,2.65,0,0,1,2.83-2.5h0Z"/><path class="cls-9" d="M269,187.11h0l-12.62-.56a.91.91,0,0,1-.82-1,.87.87,0,0,1,.89-.89l12.62.56a.95.95,0,0,1,0,1.88Z"/><rect class="cls-10" x="37.03" y="55.21" width="328.48" height="433.1"/><polyline class="cls-11" points="162.62 199.62 35.3 364.58 35.3 489.45 363.79 489.06 363.79 363.26 228.56 199.62"/><path class="cls-12" d="M248.07,203.81s1.22-26.95-2.56-36.13l40.63-4.1s8.23,20.93,16.2,28.89Z"/><polygon class="cls-13" points="151.24 371.67 136.24 470.94 56.84 474.05 40.06 375.8 146.52 366.94 151.24 371.67"/><path class="cls-13" d="M50.92,406.14l91-17.34A11,11,0,0,0,150.69,376h0a11,11,0,0,0-12.83-8.72l-91,17.34a11,11,0,0,0-8.73,12.83h0A11,11,0,0,0,50.92,406.14Z"/><polygon class="cls-14" points="270.18 177.28 270.18 192.36 286.57 190.62 278.38 176.41 270.18 177.28"/><path class="cls-15" d="M322.33,268.29a7.29,7.29,0,0,1-6.93-5.05l-17.86-55.1a7.3,7.3,0,1,1,13.88-4.5L317.7,223l.75-10.74a7.3,7.3,0,1,1,14.56,1l-3.39,48.2a7.3,7.3,0,0,1-6.4,6.73A6.65,6.65,0,0,1,322.33,268.29Z"/><path class="cls-12" d="M135.76,168.67s-.85,24.25,2.84,34l-12.91-7.38,6-30.08Z"/><g class="cls-16"><rect class="cls-2" x="157.96" y="102.63" width="73.8" height="99.22"/><path class="cls-17" d="M226.59,163.74c.74,9.78-12.46,18.76-29.51,20.06s-31.46-5.56-32.21-15.34,12.46-18.76,29.5-20.07c1.27-.09,2.52-.14,3.76-.15C213.48,148.13,225.89,154.69,226.59,163.74Z"/><ellipse class="cls-18" cx="242.29" cy="162.1" rx="26.88" ry="15.42"/><ellipse class="cls-18" cx="154.94" cy="161.14" rx="30.95" ry="17.76"/><ellipse class="cls-19" cx="168.59" cy="174.26" rx="33.06" ry="18.97"/><ellipse class="cls-19" cx="226.81" cy="174.26" rx="33.06" ry="18.97"/><ellipse class="cls-20" cx="197.58" cy="193.23" rx="54.1" ry="24.72"/></g><polygon class="cls-13" points="232.58 380.31 256.99 476.27 350.8 465.72 356.99 401.14 314.66 373.55 232.58 380.31"/><path class="cls-5" d="M115.65,374.15a9.48,9.48,0,0,0-16.12,10l28.61,46.23a9.56,9.56,0,0,0,4.1,3.62,126.2,126.2,0,0,1,9.27-18.05Z"/><path class="cls-21" d="M178.43,437.58c.21,0,.42,0,.62,0a9.48,9.48,0,0,0,.61-18.93l-38-2.45-.18-.3A126.2,126.2,0,0,0,132.24,434a9.57,9.57,0,0,0,3.35.85Z"/><path class="cls-15" d="M151.24,371.66l-4.58-146.79a33.84,33.84,0,0,0-67.68,0L68.41,390.38l7.47,3.84c1.8.91,7.39.88,9.41.3a5.75,5.75,0,0,0,3.7-3.11c1.05-1.78,1-4.09,3-5.12a9.23,9.23,0,0,1,7.87.16c1.71.78,3,2.5,4.67,3.55s3.83,1.51,5.82,2.1l4.51-1.06,3.71-6.11a23.07,23.07,0,0,1,3.45-4.51,7.38,7.38,0,0,1,5.84-2.39,13,13,0,0,1,4.51,1.33,6.15,6.15,0,0,0,3.46-1.33c1.48-1.49,2.07-3.2,4.28-3.62s4.3.53,6.39,0C148.3,374,149.74,372.67,151.24,371.66Z"/><path class="cls-15" d="M312.12,402.36,306.6,400a8.1,8.1,0,0,0-4.13-.59l-19.57,2.33a8.13,8.13,0,0,1-5.06-1.07l-17.09-10.06a8.11,8.11,0,0,0-5.19-1.05l-4.23.57a8.08,8.08,0,0,1-9.17-8V222.62a38.34,38.34,0,0,1,38.23-38.23h0a38.35,38.35,0,0,1,38.24,38.23l4.74,172.08A8.09,8.09,0,0,1,312.12,402.36Z"/><path class="cls-22" d="M85.88,301.68A10.24,10.24,0,1,1,96.93,311,10.25,10.25,0,0,1,85.88,301.68Z"/><path class="cls-22" d="M91,316.31A10.24,10.24,0,1,1,102,325.67,10.25,10.25,0,0,1,91,316.31Z"/><path class="cls-22" d="M99.79,332.77a10.24,10.24,0,1,1,11,9.36A10.24,10.24,0,0,1,99.79,332.77Z"/><path class="cls-22" d="M101.49,344.67A10.24,10.24,0,1,1,112.54,354,10.24,10.24,0,0,1,101.49,344.67Z"/><circle class="cls-22" cx="97.48" cy="332.61" r="10.24" transform="translate(-246.46 375.44) rotate(-80.76)"/><circle class="cls-22" cx="97.78" cy="351.18" r="10.24" transform="translate(-104.29 47.77) rotate(-18.1)"/><path class="cls-22" d="M100.54,356.8a10.24,10.24,0,1,1,11,9.36A10.25,10.25,0,0,1,100.54,356.8Z"/><path class="cls-22" d="M78.16,298.42a10.24,10.24,0,1,1,11,9.36A10.24,10.24,0,0,1,78.16,298.42Z"/><path class="cls-15" d="M242.16,313.59c-1.1,7.25-2.2,14.5-3.48,21.72-2.23,12.52-4,26.6-10,37.93-1.42,2.68-1.94,4.9.34,7.3,4.49,4.73,9.62-1.9,13.11,1.58"/><path class="cls-23" d="M328.45,201.53h0a3.68,3.68,0,0,1-3.67-3.67V184a3.68,3.68,0,0,1,3.67-3.67h0a3.68,3.68,0,0,1,3.67,3.67v13.84A3.68,3.68,0,0,1,328.45,201.53Z"/><polygon class="cls-14" points="88.8 346.27 91.17 363.93 72.38 365.07 72.38 347.56 88.8 346.27"/><polygon class="cls-24" points="216.07 372.8 220.81 372.39 221.53 373.11 219.28 375.11 216.07 372.8"/><path class="cls-24" d="M161.94,385.68a2.77,2.77,0,0,1-.21-5.54l22.1-1.74a2.77,2.77,0,1,1,.43,5.52l-22.1,1.75Z"/><path class="cls-25" d="M179.06,371.42l2.69,16s28.63-.93,39.1-11.4l-5.67-5.67Z"/><path class="cls-24" d="M109.52,290a2.29,2.29,0,0,1-1-.26c-3.51-1.87-5.31-4.19-5.35-6.89-.06-4.72,5.58-8.07,6.22-8.43a2.22,2.22,0,1,1,2.2,3.85c-1.62.93-4,3-4,4.52,0,1.26,1.88,2.44,3,3a2.22,2.22,0,0,1-1,4.18Z"/><circle class="cls-26" cx="194.9" cy="290.06" r="9.35"/><rect class="cls-27" x="192.85" y="215.97" width="4.1" height="148.03" transform="translate(484.89 95.09) rotate(90)"/><rect class="cls-27" x="192.85" y="215.97" width="4.1" height="148.03" transform="translate(389.8 579.98) rotate(180)"/><rect class="cls-27" x="192.85" y="215.97" width="4.1" height="148.03" transform="translate(537.77 357.22) rotate(135)"/><rect class="cls-27" x="192.85" y="215.97" width="4.1" height="148.03" transform="translate(127.66 632.85) rotate(-135)"/><path class="cls-24" d="M206.6,290.06a11.77,11.77,0,1,1-11.77-11.77A11.76,11.76,0,0,1,206.6,290.06Z"/><circle class="cls-2" cx="194.83" cy="290.06" r="9.27" transform="translate(-148.04 222.72) rotate(-45)"/><path class="cls-2" d="M194.9,203.77a86.29,86.29,0,1,0,86.29,86.29A86.29,86.29,0,0,0,194.9,203.77Zm0,159.82a73.53,73.53,0,1,1,73.53-73.53A73.53,73.53,0,0,1,194.9,363.59Z"/><path class="cls-7" d="M189.42,191.83h11.14a2.2,2.2,0,0,0,2.19-2.19h0a2.2,2.2,0,0,0-2.19-2.2H189.42a2.21,2.21,0,0,0-2.2,2.2h0A2.2,2.2,0,0,0,189.42,191.83Z"/><path class="cls-28" d="M210,222.07H180.59a5.14,5.14,0,0,1-5.12-5.12h0a5.14,5.14,0,0,1,5.12-5.13H210a5.15,5.15,0,0,1,5.13,5.13h0A5.14,5.14,0,0,1,210,222.07Z"/><path class="cls-29" d="M210,221.14H180.59a5.13,5.13,0,0,1-5.12-5.12h0a5.13,5.13,0,0,1,5.12-5.12H210a5.14,5.14,0,0,1,5.13,5.12h0A5.14,5.14,0,0,1,210,221.14Z"/><path class="cls-29" d="M189,215h12.53a4.57,4.57,0,0,0,4.56-4.56v-5.23H184.46v5.23A4.57,4.57,0,0,0,189,215Z"/><path class="cls-29" d="M193.09,196.58a8.65,8.65,0,0,0-8.63,8.63h10.82v-8.63Z"/><path class="cls-24" d="M206.1,205.21a8.66,8.66,0,0,0-8.63-8.63h-2.19v8.63Z"/><path class="cls-24" d="M203.1,193.34a2.27,2.27,0,1,1-2.27-2.26A2.26,2.26,0,0,1,203.1,193.34Z"/><path class="cls-30" d="M202,193.34a1.15,1.15,0,1,1-1.15-1.14A1.14,1.14,0,0,1,202,193.34Z"/><path class="cls-24" d="M192,193.34a2.27,2.27,0,1,1-2.27-2.26A2.27,2.27,0,0,1,192,193.34Z"/><path class="cls-30" d="M190.86,193.34a1.15,1.15,0,1,1-1.14-1.14A1.14,1.14,0,0,1,190.86,193.34Z"/><path class="cls-24" d="M195.28,201h0a5.57,5.57,0,0,1-5.56-5.56v-3.78a5.57,5.57,0,0,1,5.56-5.56h0a5.57,5.57,0,0,1,5.55,5.56v3.78A5.57,5.57,0,0,1,195.28,201Z"/><path class="cls-7" d="M200.83,193.53v2.22a5.57,5.57,0,0,1-5.55,5.56h0a5.57,5.57,0,0,1-5.56-5.56v-2.22"/><rect class="cls-7" x="196.74" y="190.19" width="2.95" height="0.88" rx="0.29" transform="translate(396.43 381.27) rotate(180)"/><rect class="cls-7" x="191.37" y="190.19" width="2.95" height="0.88" rx="0.29" transform="translate(385.7 381.27) rotate(180)"/><path class="cls-7" d="M198.21,192.83a1,1,0,0,0,1-1h-.42a.57.57,0,1,1-1.13,0h-.43A1,1,0,0,0,198.21,192.83Z"/><path class="cls-7" d="M192.77,192.83a1,1,0,0,0,1-1h-.43a.57.57,0,1,1-1.13,0h-.42A1,1,0,0,0,192.77,192.83Z"/><path class="cls-24" d="M199.4,216.1h-2.14l-2.54,0a2.53,2.53,0,0,1,0-5.06h2.58c3.42,0,6.65.06,7.78-.59A2,2,0,0,0,206,209a2.24,2.24,0,0,0-.52-1.84l-5-5.55a2.53,2.53,0,0,1,3.76-3.4l5,5.59a7.31,7.31,0,0,1,1.72,6,7,7,0,0,1-3.4,4.92C205.65,215.94,203,216.1,199.4,216.1Z"/><path class="cls-24" d="M186.62,215.51a9.7,9.7,0,0,1-4.78-.9,7,7,0,0,1-3.4-4.92,7.26,7.26,0,0,1,1.68-6l5.09-5.63a2.53,2.53,0,0,1,3.76,3.4L183.91,207a2.16,2.16,0,0,0-.48,1.8,2,2,0,0,0,.93,1.39c.8.39,4.18.17,6.41,0,1.87-.12,3.8-.25,5.76-.25a2.53,2.53,0,0,1,0,5.06c-1.79,0-3.64.12-5.43.24C189.46,215.41,188,215.51,186.62,215.51Z"/><path class="cls-28" d="M188.16,202.49c.69,1.9,3,2.67,4.68,3.38a31.42,31.42,0,0,0,7.75,2c1,.13,1.08-.6.08-.73a28.61,28.61,0,0,1-6.12-1.48c-1.65-.61-4.09-1.35-4.75-3.16-.17-.48-1.83-.51-1.64,0Z"/><path class="cls-28" d="M186.86,206.27c2.52,1.67,5.24,3.09,8.32,3.16.6,0-.49-1.15-.93-1.16a13.93,13.93,0,0,1-7.35-2.76c-1-.63-.63.37,0,.76Z"/><path class="cls-28" d="M185.35,209.27a2.73,2.73,0,0,0,1.6.69c.33,0,.86,0,.92-.45s-.42-.68-.74-.71a.55.55,0,0,1-.47-.16,1.11,1.11,0,0,0-1.18-.18.48.48,0,0,0-.13.81Z"/><path class="cls-28" d="M180,216.72c1.47.24,2.73,1.15,4.23,1.37.82.12,1.66-1.22.61-1.37-1.48-.22-2.74-1.13-4.23-1.38-.82-.13-1.66,1.21-.61,1.38Z"/><path class="cls-28" d="M190.2,218.93l7.09,0c1.85,0,3.54.93,5.34.77,1-.08.76-1.69-.16-1.62-1.72.15-3.54-.76-5.34-.77l-7.09,0c-1,0-.76,1.61.16,1.62Z"/><path class="cls-28" d="M206.43,218.08a6.54,6.54,0,0,0,2.6-.4c.5-.22.93-.56,1.43-.78a11.38,11.38,0,0,1,2.13-.65c.36-.08-.13-.29-.23-.35a2,2,0,0,0-1.14-.19,11.11,11.11,0,0,0-2.7.89,6.13,6.13,0,0,1-3.18.92c-.37,0-.23.12-.07.28a2.1,2.1,0,0,0,1.16.28Z"/><path class="cls-24" d="M126.47,296.88h-.14a2.21,2.21,0,0,1-2.08-2.34c.52-8.69-3.73-11.12-3.91-11.22a2.22,2.22,0,0,1-.91-3,2.18,2.18,0,0,1,2.93-1c.29.14,7,3.65,6.32,15.42A2.22,2.22,0,0,1,126.47,296.88Z"/><path class="cls-24" d="M254.39,331.45a2.21,2.21,0,0,1-2.21-2.13c-.42-11.15,1.25-17.84,5.1-20.47a6,6,0,0,1,5.65-.7,2.21,2.21,0,0,1-1.7,4.09,1.67,1.67,0,0,0-1.52.32c-1.09.8-3.57,4-3.1,16.59a2.22,2.22,0,0,1-2.14,2.3Z"/><path class="cls-24" d="M268.41,298.52a2.08,2.08,0,0,1-.55-.07c-.53-.14-13-3.47-13-13.14a2.22,2.22,0,0,1,4.44,0c0,6.24,9.56,8.82,9.66,8.85a2.22,2.22,0,0,1-.56,4.36Z"/><path class="cls-24" d="M278.09,299.05a2.21,2.21,0,0,1-2-3.2c.06-.12,4.25-8.9,1.41-21.47a2.22,2.22,0,0,1,4.33-1c3.21,14.22-1.56,24-1.77,24.43A2.19,2.19,0,0,1,278.09,299.05Z"/><path class="cls-31" d="M269.58,323.23a7.59,7.59,0,0,1-7.15-11.34c.93-1.66,3.27-7,2.92-11.69a7.59,7.59,0,1,1,15.13-1.14c.78,10.26-4.32,19.39-4.9,20.4A7.56,7.56,0,0,1,269.58,323.23Z"/><path class="cls-24" d="M254.41,349.41a2.22,2.22,0,0,1-1.16-4.11c8.23-5,13-18,13.08-18.13a2.22,2.22,0,0,1,4.17,1.5c-.22.6-5.37,14.61-14.95,20.42A2.17,2.17,0,0,1,254.41,349.41Z"/><path class="cls-31" d="M275.25,312.33l-11-5.45a3.54,3.54,0,0,0-5,2.29,19.64,19.64,0,0,0,10.32,22.1c.4.19.8.38,1.21.54l6.45-14.33A4.5,4.5,0,0,0,275.25,312.33Z"/><path class="cls-32" d="M276.42,315.2l-12.63-6.83a1.91,1.91,0,0,1-.77-2.58h0a1.91,1.91,0,0,1,2.58-.77l12.64,6.82a1.91,1.91,0,0,1,.77,2.58h0A1.92,1.92,0,0,1,276.42,315.2Z"/><path class="cls-7" d="M273.64,303.27h0a7.17,7.17,0,0,1-8-6.15l-1.23-9.19a7.18,7.18,0,0,1,6.14-8.05h0a7.19,7.19,0,0,1,8.05,6.15l1.23,9.19A7.18,7.18,0,0,1,273.64,303.27Z"/><path class="cls-24" d="M134.73,246.92A2.22,2.22,0,0,1,137,249c.77,11.12-.68,17.87-4.44,20.62a6.05,6.05,0,0,1-5.63.88,2.22,2.22,0,0,1,1.57-4.15A1.65,1.65,0,0,0,130,266c1.06-.84,3.44-4.14,2.57-16.69a2.22,2.22,0,0,1,2.06-2.36Z"/><path class="cls-33" d="M119.82,255.62a7.59,7.59,0,0,1,7.5,11.11c-.88,1.69-3,7.08-2.54,11.77a7.59,7.59,0,0,1-15.1,1.63c-1.1-10.23,3.7-19.52,4.26-20.55A7.59,7.59,0,0,1,119.82,255.62Z"/><path class="cls-24" d="M134.15,229a2.22,2.22,0,0,1,1.28,4.08c-8.06,5.25-12.45,18.4-12.49,18.54a2.22,2.22,0,0,1-4.21-1.38c.19-.6,4.9-14.77,14.28-20.88A2.28,2.28,0,0,1,134.15,229Z"/><path class="cls-33" d="M114.49,266.7l11.19,5.09a3.54,3.54,0,0,0,4.95-2.45,19.64,19.64,0,0,0-11-21.75q-.6-.27-1.23-.51l-6,14.53A4.5,4.5,0,0,0,114.49,266.7Z"/><path class="cls-34" d="M113.23,263.87l12.84,6.42a1.91,1.91,0,0,1,.86,2.56h0a1.91,1.91,0,0,1-2.56.85l-12.85-6.42a1.92,1.92,0,0,1-.85-2.56h0A1.92,1.92,0,0,1,113.23,263.87Z"/><rect class="cls-7" x="107.9" y="280.71" width="14.41" height="21.11" rx="7.2"/><path class="cls-24" d="M207.64,384.94a10.9,10.9,0,0,1-5.15-1.22c-6.43-3.38-6.82-12.32-6.83-12.7a2.77,2.77,0,1,1,5.54-.2c.07,1.7.91,6.45,3.88,8,2.67,1.39,7,.26,12.59-3.28a2.77,2.77,0,1,1,3,4.67C215.7,383.36,211.35,384.94,207.64,384.94Z"/><path class="cls-24" d="M163.8,383.93l-3,3.05a1.34,1.34,0,0,1-2.28-.75L157,376a.8.8,0,0,1,1.44-.58l5.43,7.48A.8.8,0,0,1,163.8,383.93Z"/><path class="cls-24" d="M223.84,361.52l-2.15-.75a.5.5,0,0,0-.63.31l-.25.76Z"/><path class="cls-35" d="M232.48,363.56a4.28,4.28,0,1,1-4.82-3.66A4.29,4.29,0,0,1,232.48,363.56Z"/><circle class="cls-35" cx="228.4" cy="368.51" r="4.29" transform="translate(-2.42 1.51) rotate(-0.38)"/><path class="cls-36" d="M222.7,369.25a1.27,1.27,0,1,1-1.65-.7A1.26,1.26,0,0,1,222.7,369.25Z"/><path class="cls-3" d="M222.29,369.42a.82.82,0,1,1-1.07-.46A.83.83,0,0,1,222.29,369.42Z"/><path class="cls-37" d="M229.09,366.19l-1.23-2a5.68,5.68,0,0,0-9.74,5.86l1.23,2a5.63,5.63,0,0,0,2.94,2.41l.3.09a5.62,5.62,0,0,0,4.56-.56A5.71,5.71,0,0,0,229.09,366.19Z"/><path class="cls-24" d="M229.49,365.87l-1.23-2a5.69,5.69,0,0,0-9.74,5.87l1.22,2a5.69,5.69,0,0,0,2.95,2.41l.29.09a5.68,5.68,0,0,0,6.51-8.37Z"/><path class="cls-35" d="M228.69,365.4h0a.8.8,0,0,0,.21-1.1l-1.1-1.62a.79.79,0,0,0-1.09-.21h0a.8.8,0,0,0-.22,1.1l1.1,1.62A.79.79,0,0,0,228.69,365.4Z"/><path class="cls-35" d="M228.81,369.61h0a1.88,1.88,0,0,1-1.21-2.36h0A1.87,1.87,0,0,1,230,366h0a1.89,1.89,0,0,1,1.22,2.37h0A1.89,1.89,0,0,1,228.81,369.61Z"/><path class="cls-35" d="M226,368h0a1.89,1.89,0,0,1-1.22-2.37h0a1.89,1.89,0,0,1,2.37-1.21h0a1.87,1.87,0,0,1,1.22,2.36h0A1.89,1.89,0,0,1,226,368Z"/><path class="cls-35" d="M229,368.31h0a1.88,1.88,0,0,1-1.21-2.37h0a1.89,1.89,0,0,1,2.37-1.21h0a1.89,1.89,0,0,1,1.21,2.37h0A1.88,1.88,0,0,1,229,368.31Z"/><path class="cls-35" d="M227.61,369.36a1.42,1.42,0,1,1,.92,1.79A1.42,1.42,0,0,1,227.61,369.36Z"/><path class="cls-35" d="M224.42,371.85a2.53,2.53,0,1,1,1.63,3.19A2.53,2.53,0,0,1,224.42,371.85Z"/><path class="cls-35" d="M228.15,371.08a1.25,1.25,0,0,1,1.58-.82,1.27,1.27,0,0,1,.81,1.59,1.26,1.26,0,1,1-2.39-.77Z"/><path class="cls-35" d="M225.72,368.42a2.07,2.07,0,1,1,1.34,2.6A2.08,2.08,0,0,1,225.72,368.42Z"/><path class="cls-35" d="M224.12,367a1.42,1.42,0,1,1,.92,1.79A1.42,1.42,0,0,1,224.12,367Z"/><path class="cls-35" d="M222.28,366.45a1.7,1.7,0,1,1,1.1,2.14A1.7,1.7,0,0,1,222.28,366.45Z"/><path class="cls-24" d="M226.13,368.87a1.27,1.27,0,1,1-1.74-.43A1.26,1.26,0,0,1,226.13,368.87Z"/><path class="cls-37" d="M225.75,369.1a.83.83,0,0,1-.28,1.13.82.82,0,0,1-.85-1.41A.83.83,0,0,1,225.75,369.1Z"/><path class="cls-38" d="M256.78,179l8.64,24.21s-17.12,3.14-20-2.85c0,0,6.28-34-.57-52.23Z"/><path class="cls-2" d="M328.42,185.41h0a9.82,9.82,0,0,1-9.79-9.78V145.5a9.82,9.82,0,0,1,9.79-9.79h0a9.82,9.82,0,0,1,9.79,9.79v30.13A9.82,9.82,0,0,1,328.42,185.41Z"/><path class="cls-39" d="M245.24,145.9,248,166.23a20.69,20.69,0,0,0,23.18,17.71h0a20.69,20.69,0,0,0,17.71-23.19l-2.72-20.33A20.69,20.69,0,0,0,263,122.71h0"/><path class="cls-14" d="M245.24,144.43,248,164.76a20.69,20.69,0,0,0,23.18,17.71h0a20.69,20.69,0,0,0,17.71-23.19L286.13,139A20.69,20.69,0,0,0,263,121.24h0"/><path class="cls-5" d="M245,152s10.39-4.73,14.41-12.56a3.62,3.62,0,0,1,5.85-.91A44.38,44.38,0,0,0,291.47,152l-6.12-25.95-21.47-7.45L249.2,132.68Z"/><path class="cls-14" d="M106.74,202.73h0a19.42,19.42,0,0,0,22.94-14.93l4-18.83A19.42,19.42,0,0,0,118.73,146h0A19.41,19.41,0,0,0,95.79,161l-4,18.83A19.4,19.4,0,0,0,106.74,202.73Z"/><path class="cls-25" d="M93.18,243.89l31-14.15c0,2.52-24.6,16.33-24.6,16.33s-5.18-1.13-8.76,1Z"/><path class="cls-25" d="M99.6,250.31l14.15-31c-2.52,0-16.32,24.6-16.32,24.6s1.12,5.18-1,8.76Z"/><path class="cls-25" d="M101.9,250.21a4.21,4.21,0,0,0-1.94-.47h-.1a4.57,4.57,0,0,0-2.56.86,5,5,0,0,0-1.55,1.79l-1.91,3.71a4.64,4.64,0,0,0,1.78,6.28,4.17,4.17,0,0,0,1.94.46,4.83,4.83,0,0,0,4.21-2.65l1.91-3.71A4.63,4.63,0,0,0,101.9,250.21Zm0,5.38-1.92,3.7A2.51,2.51,0,1,1,95.58,257l1.91-3.71a2.52,2.52,0,1,1,4.45,2.29Z"/><path class="cls-25" d="M93.28,241.6A4.63,4.63,0,0,0,87,239.81l-3.7,1.91a4.84,4.84,0,0,0-2.66,4.22,4.29,4.29,0,0,0,.46,1.93,4.62,4.62,0,0,0,6.28,1.78l3.71-1.9a5.1,5.1,0,0,0,1.79-1.56,4.62,4.62,0,0,0,.86-2.55.45.45,0,0,0,0-.11A4.17,4.17,0,0,0,93.28,241.6Zm-6.79,6.31a2.52,2.52,0,1,1-2.3-4.45l3.71-1.9A2.52,2.52,0,1,1,90.19,246Z"/><path class="cls-25" d="M101.47,242.7a.79.79,0,0,1-.8.79.79.79,0,0,1-.79-.79.79.79,0,0,1,.79-.8A.8.8,0,0,1,101.47,242.7Z"/><path class="cls-5" d="M97.66,359.94,84.6,382.8,66.52,362.31a36.89,36.89,0,0,0-18.75,32V499.11a3.67,3.67,0,0,0,3.67,3.67h66.31a3.67,3.67,0,0,0,3.67-3.67V394.35A37,37,0,0,0,97.66,359.94Z"/><path class="cls-14" d="M97.66,359.94a36.37,36.37,0,0,0-13.06-2.42h0a36.47,36.47,0,0,0-18.08,4.79L84.6,382.8Z"/><path class="cls-40" d="M81,354.8h0a22.57,22.57,0,0,0,19.33-25.3l-3-22.19A22.58,22.58,0,0,0,72.05,288h0a22.59,22.59,0,0,0-19.33,25.31l3,22.18A22.58,22.58,0,0,0,81,354.8Z"/><path class="cls-14" d="M81,351.93h0a22.57,22.57,0,0,0,19.33-25.3l-3-22.19a22.58,22.58,0,0,0-25.3-19.33h0a22.59,22.59,0,0,0-19.33,25.31l3,22.18A22.58,22.58,0,0,0,81,351.93Z"/><path class="cls-2" d="M121.42,459.42h0a12,12,0,0,1-12-12V427.6a12,12,0,0,1,12-12h0a12,12,0,0,1,12,12v19.86A12,12,0,0,1,121.42,459.42Z"/><g class="cls-41"><path class="cls-42" d="M106.6,425.52a77.82,77.82,0,0,0,22.6-.64q3.09-.56,6.13-1.35c.59-.16.72-.65.25-1.06a2.65,2.65,0,0,0-2.12-.5,72.64,72.64,0,0,1-21.15,2.4c-2.06-.07-4.12-.24-6.17-.48-.4-.05-1.42,0-1.26.67s1.19.89,1.72,1Z"/><path class="cls-42" d="M106.23,427.84c5.79,4.83,13.42,6.42,20.75,7,2.29.19,4.58.28,6.87.37a2.72,2.72,0,0,0,2-.87c.4-.47.21-.91-.41-.94-7.36-.29-15-.62-21.77-3.94a25.15,25.15,0,0,1-4.88-3.16c-.75-.62-3.4.85-2.56,1.54Z"/><path class="cls-42" d="M134.92,437.34c-8,1.37-15.93,3.7-24.09,4.35a25,25,0,0,1-5.87-.07c-.26,0,.51.88.57.94a11.1,11.1,0,0,0,.83.85c.14.13.37.41.57.43,3.71.57,7.61,0,11.29-.56,4.32-.68,8.6-1.61,12.88-2.52,2-.42,4-.85,5.94-1.19a11.1,11.1,0,0,0-.93-1.25,8,8,0,0,0-.79-.75c-.1-.08-.27-.26-.4-.23Z"/><path class="cls-42" d="M137.67,448.84c-8.93-.15-17.87.13-26.77.86q-3.78.3-7.56.72a3.81,3.81,0,0,0-1.84,1c-.19.17-.82.81-.18.74,8.79-1,17.63-1.5,26.47-1.59,2.5,0,5,0,7.49,0a3.07,3.07,0,0,0,1.74-.8c.09-.06,1.06-1,.65-1Z"/><path class="cls-42" d="M111.17,457.25l13.3,1.41a3.73,3.73,0,0,0,2-.66c.23-.13,1-.63.32-.7l-13.31-1.41a3.88,3.88,0,0,0-2,.66c-.23.14-1,.64-.31.7Z"/></g><path class="cls-14" d="M118.55,448.8H103.21a7.69,7.69,0,0,1-7.67-7.66h0a7.69,7.69,0,0,1,7.67-7.67h15.34a7.69,7.69,0,0,1,7.67,7.67h0A7.69,7.69,0,0,1,118.55,448.8Z"/><path class="cls-14" d="M332,188.29a.73.73,0,0,0-1.32.45v7.46a1.4,1.4,0,0,1-2.8,0v-9A1.71,1.71,0,0,0,326,185.5a5.93,5.93,0,0,0-1.34.28,7,7,0,0,0-4.64,6.71v12.22a6.71,6.71,0,0,0,5.66,6.73,6.56,6.56,0,0,0,7.43-6.48V192A6.49,6.49,0,0,0,332,188.29Z"/><path class="cls-15" d="M80.23,247.28l1.54-4.07,13-34.14a8.85,8.85,0,0,0-16.54-6.29L55.75,261.87A8.85,8.85,0,0,0,67.89,273l19.94-9.71a82.81,82.81,0,0,1-4.36-17.56Z"/><path class="cls-14" d="M100.66,247.18a8.85,8.85,0,0,0-11.83-4.09l-5.36,2.61a82.81,82.81,0,0,0,4.36,17.56L96.58,259A8.85,8.85,0,0,0,100.66,247.18Z"/><path class="cls-2" d="M129.62,441l-.12-1.22c.37,0,36.45-3.62,48.74-15.92l.2-.19h.27A143.74,143.74,0,0,0,213.8,420c18.13-4.09,43.85-13.55,63.36-35.34,26.68-29.79,35.38-74.51,25.85-132.91l0-.13,0-.12c.18-.75,18.37-75.22,21.23-87.41l1.2.28c-2.81,12-20.37,83.87-21.21,87.3,9.57,58.73.76,103.76-26.17,133.82-19.74,22-45.72,31.59-64,35.72a147.78,147.78,0,0,1-35.11,3.75C166.15,437.38,131.11,440.86,129.62,441Z"/><rect class="cls-14" x="288.54" y="246.71" width="25.34" height="16.28" rx="7.56" transform="translate(11.17 -12.65) rotate(2.45)"/><path class="cls-15" d="M245.28,207.53s5.79-1.6,6.32-8.74c1.29-17.31-1.91-51.43-1.91-59.65,0,0,1.89-9.45,13.5-13.23,0,0,12.69-2.16,19.17,8.37,0,0,1.5,42.3,11.76,52.56l18,15.73s-14.39-31.85-12.23-42.65c0,0,0-42.38-29.16-42.38,0,0-28.08-.27-25.92,32.94C244.83,150.48,245.28,194.3,245.28,207.53Z"/><path class="cls-7" d="M253.86,163.55h0a1.51,1.51,0,0,1-1.5-1.51v-4a1.5,1.5,0,0,1,1.5-1.5h0a1.5,1.5,0,0,1,1.5,1.5v4A1.51,1.51,0,0,1,253.86,163.55Z"/><path class="cls-7" d="M270.11,164.67h0A2.05,2.05,0,0,1,268,162.6l-.19-4.9a2.11,2.11,0,0,1,1.9-2.27h0a2.05,2.05,0,0,1,2.07,2.06l.19,4.91A2.12,2.12,0,0,1,270.11,164.67Z"/><path class="cls-8" d="M261,164.92l2.54-.38a2.65,2.65,0,0,1-2.08,3.15,2.78,2.78,0,0,1-3-2.39,2.64,2.64,0,0,1,2.08-3.15h0Z"/><path class="cls-7" d="M264.62,155.19l-1-1.85c.37-.2.72-.43,1.08-.67a9.12,9.12,0,0,1,2.86-1.42,8.61,8.61,0,0,1,4.1.27l.75.18,5.1,1.06-.42,2.07L272,153.76l-.8-.19a6.92,6.92,0,0,0-3.11-.28,7.6,7.6,0,0,0-2.2,1.14C265.43,154.7,265,155,264.62,155.19Z"/><path class="cls-7" d="M257.14,155.82l-.85-1a2.8,2.8,0,0,0-3.18-.72l-3.1,1.3-.62-1.45,3.11-1.31a4.38,4.38,0,0,1,5,1.14l.86,1Z"/><path class="cls-9" d="M258.12,172.69a.53.53,0,0,1-.51-.4.52.52,0,0,1,.38-.64c.27-.07,6.57-1.62,9.43-.62a.52.52,0,0,1,.32.67.53.53,0,0,1-.67.32c-2.56-.89-8.76.64-8.82.65Z"/><path class="cls-9" d="M263.48,173.7a.25.25,0,0,1-.21-.1.25.25,0,0,1,.05-.36,1.08,1.08,0,0,1,1-.1.27.27,0,0,1,.17.33.28.28,0,0,1-.34.17.62.62,0,0,0-.56,0A.26.26,0,0,1,263.48,173.7Z"/><path class="cls-38" d="M278.85,146.76s1.29,42.06-7.72,65.33,32.28-5.66,32.28-5.66-16.93-68.57-21.05-72.15Z"/><g class="cls-43"><path class="cls-42" d="M314.74,178.26a188,188,0,0,0,19-.26c2.53-.21,4.78-.46,6.42-2.52.4-.51-.88-.58-1.18-.21-2.49,3.12-9.57,2.23-13.14,2.28s-7.24,0-10.86-.09c-.67,0-1.11.78-.23.8Z"/><path class="cls-42" d="M339.39,172.37c-8.89-1.06-16.73-5-24.55-9.17-.41-.22-1.62.13-1,.48,8.12,4.29,16.26,8.34,25.48,9.43.79.1.82-.65,0-.74Z"/><path class="cls-42" d="M318.17,162.08q11.61-2,23-5.16c.51-.14-.75-.11-.95-.06q-11.07,3.07-22.38,5c-.9.16-.07.26.37.18Z"/><path class="cls-42" d="M339.2,152a159.7,159.7,0,0,1-22.31-6.21c-.82-.29-.66.65,0,.88a159.7,159.7,0,0,0,22.31,6.21c.85.17.71-.74,0-.88Z"/><path class="cls-42" d="M319.4,142.42c3.51-.81,7.15-.32,10.7-.81a39.89,39.89,0,0,0,10.1-2.91c.77-.32.22-1.37-.55-1a37.19,37.19,0,0,1-12.54,3c-2.68.14-5.3-.06-7.93.55a.6.6,0,1,0,.22,1.17Z"/></g><path class="cls-44" d="M129.26,176.18l1.61-.71c-.05-.15-1.28-3.61-7-2.78l.16,1.85C128.34,173.91,129.22,176.09,129.26,176.18Z"/><path class="cls-44" d="M115.87,173.59l1.53-.89c-.11-.24-2.86-5.83-11.4-2.55l.54,1.76C113.62,169.19,115.78,173.41,115.87,173.59Z"/><path class="cls-45" d="M125.53,186.5h0a1.51,1.51,0,0,0,1.79-1.15l.85-3.89a1.51,1.51,0,0,0-1.15-1.79h0a1.51,1.51,0,0,0-1.79,1.14l-.85,3.9A1.51,1.51,0,0,0,125.53,186.5Z"/><path class="cls-45" d="M108.72,182.89h0a2,2,0,0,0,2.51-1.5l1.38-4.71a2.13,2.13,0,0,0-1.29-2.66h0a2,2,0,0,0-2.51,1.5l-1.38,4.71A2.12,2.12,0,0,0,108.72,182.89Z"/><path class="cls-8" d="M117.83,185.26l-3.18-.78a3.39,3.39,0,0,0,1.93,4.12,3.44,3.44,0,0,0,4.31-2.19c0-.15.1-.3.14-.45Z"/><path class="cls-25" d="M111.05,177.7h0a.45.45,0,0,1-.34-.53l.23-1.06a.44.44,0,0,1,.53-.34h0a.45.45,0,0,1,.34.53l-.23,1.06A.45.45,0,0,1,111.05,177.7Z"/><path class="cls-25" d="M127.18,182.55h0a.39.39,0,0,1-.3-.47l.2-.94a.4.4,0,0,1,.47-.3h0a.4.4,0,0,1,.3.47l-.2.94A.4.4,0,0,1,127.18,182.55Z"/><path class="cls-8" d="M116.57,197a.23.23,0,0,1-.2-.1c-.91-1.11-2.82-.75-2.84-.74a.28.28,0,0,1-.31-.21.26.26,0,0,1,.21-.31c.09,0,2.24-.43,3.35.93a.27.27,0,0,1,0,.37A.27.27,0,0,1,116.57,197Z"/><path class="cls-44" d="M119,194.49a.6.6,0,0,1-.29-.08c-2.46-1.58-6.4-1.25-6.44-1.25a.52.52,0,0,1-.57-.48.53.53,0,0,1,.48-.57c.17,0,4.33-.36,7.1,1.41a.53.53,0,0,1,.16.73A.51.51,0,0,1,119,194.49Z"/><path class="cls-9" d="M105.29,191.7a.53.53,0,0,1-.05-1c4.53-.48,5.07-2.22,5.07-2.24A.54.54,0,0,1,111,188a.52.52,0,0,1,.39.62c-.06.25-.7,2.48-6,3Z"/><path class="cls-9" d="M121.91,196.44a.53.53,0,0,1-.46-.27c-.88-1.53-1-5.33-1.06-5.49a.53.53,0,0,1,.5-.55.51.51,0,0,1,.55.5c0,1,.3,3.94.92,5a.53.53,0,0,1-.19.72A.54.54,0,0,1,121.91,196.44Z"/><path class="cls-9" d="M128,170.44h-.11l-12.93-3a.53.53,0,1,1,.23-1l12.93,3a.54.54,0,0,1,.4.64A.53.53,0,0,1,128,170.44Z"/><path class="cls-9" d="M128.74,168.28l-.12,0-12.93-3a.53.53,0,1,1,.23-1l12.93,3a.52.52,0,0,1,.4.63A.53.53,0,0,1,128.74,168.28Z"/><path class="cls-8" d="M87.32,332.82h0a3.47,3.47,0,0,1-4.14-2.61L80.8,319.74a3.47,3.47,0,0,1,2.61-4.14h0a3.46,3.46,0,0,1,4.14,2.6l2.38,10.48A3.47,3.47,0,0,1,87.32,332.82Z"/><path class="cls-14" d="M86.71,330.12h0a3.61,3.61,0,0,1-4.31-2.72l-2.49-10.92a3.63,3.63,0,0,1,2.72-4.31h0a3.61,3.61,0,0,1,4.31,2.71l2.48,10.92A3.62,3.62,0,0,1,86.71,330.12Z"/><path class="cls-7" d="M76,324.81a2.11,2.11,0,1,1-2.11-2.1A2.11,2.11,0,0,1,76,324.81Z"/><path class="cls-7" d="M95.37,320.6a2.11,2.11,0,1,1-2.1-2.1A2.1,2.1,0,0,1,95.37,320.6Z"/><path class="cls-9" d="M81.39,340.81h0v-1.05c3.38,0,9.39-1,11.18-3.65l.88.59C91.13,340.08,84,340.81,81.39,340.81Z"/><path class="cls-5" d="M66.22,322.56l-1.4-2.83c3.3-1.63,9-5,10.25-7l2.68,1.66C75.62,317.86,67.17,322.09,66.22,322.56Z"/><path class="cls-5" d="M97.23,315.51A27.43,27.43,0,0,1,87,311.64l1.14-1.77s4.76,3,9.34,3.54Z"/><path class="cls-15" d="M71.9,219.33a50.44,50.44,0,0,0,31.46-38.56c.89-5.63,1-11.86,4.72-16.16,3.43-4,9.29.56,14.39,1.73s9.52-1.37,13.19,2.35c1-13.17-10.27-26-23.47-26.7a17.11,17.11,0,0,0-11.4,3.14c-3.17,2.47-5,6.27-6.32,10.05a58.58,58.58,0,0,0-3.19,22.36c.15,2.87-1.93,5.92-3.23,8.48-1.09,2.14-.71,3.59-2.54,5.14-8.13,6.92-11.6,16.29-13.22,26.55"/><path class="cls-7" d="M38.12,339.08a12.2,12.2,0,1,1,12.2,12.2A12.2,12.2,0,0,1,38.12,339.08Z"/><circle class="cls-22" cx="63.56" cy="296.36" r="17.13" transform="translate(-237.62 330.4) rotate(-84.35)"/><circle class="cls-22" cx="85.88" cy="290.86" r="15.26" transform="translate(-206.69 211) rotate(-58.28)"/><circle class="cls-22" cx="71.88" cy="283.88" r="12.2" transform="translate(-220.92 288.62) rotate(-76.72)"/><path class="cls-22" d="M37.38,314.39a12.21,12.21,0,1,1,12.2,12.2A12.21,12.21,0,0,1,37.38,314.39Z"/><circle class="cls-22" cx="54.21" cy="332.27" r="12.2"/><path class="cls-22" d="M50.85,352.67a12.2,12.2,0,1,1,12.2,12.21A12.2,12.2,0,0,1,50.85,352.67Z"/><circle class="cls-22" cx="63.89" cy="366.98" r="12.2" transform="translate(-44.36 10.56) rotate(-7.02)"/><circle class="cls-22" cx="48.11" cy="352.25" r="12.2" transform="translate(-305.77 318.15) rotate(-76.72)"/><circle class="cls-22" cx="46.64" cy="374.34" r="12.2"/><path class="cls-22" d="M49.37,381.29a12.21,12.21,0,1,1,12.21,12.2A12.21,12.21,0,0,1,49.37,381.29Z"/><circle class="cls-22" cx="45.13" cy="298.59" r="12.2" transform="translate(-255.84 273.91) rotate(-76.72)"/></g></g></g></svg>