<svg xmlns="http://www.w3.org/2000/svg" xmlns:xlink="http://www.w3.org/1999/xlink" viewBox="0 0 383.4 619.14"><defs><style>.cls-1{fill:none;}.cls-2{fill:#f4b155;}.cls-3{fill:#fff0cc;}.cls-4{fill:#231f20;}.cls-5{clip-path:url(#clip-path);}.cls-6{fill:#f4b055;}.cls-7{fill:#ffd150;}.cls-8{fill:#a4f6ff;}.cls-9{fill:#fff;}.cls-10{fill:#414042;}.cls-11{fill:#f1f2f2;}.cls-12{fill:#d1d3d4;}.cls-13{fill:#f5b155;}.cls-14{fill:#ffd351;}.cls-15{fill:#d6306a;}.cls-16{fill:#e4705e;}.cls-17{fill:#dd4f65;}.cls-18{fill:#ee915b;}.cls-19{fill:#e6705f;}.cls-20{fill:#4a355b;}.cls-21{fill:#bcbec0;}.cls-22{fill:#f9fafb;}.cls-23{fill:#e6e7e8;}.cls-24{fill:#939598;}</style><clipPath id="clip-path" transform="translate(1.64)"><rect class="cls-1" x="44.08" y="71.27" width="290.02" height="392.88" rx="40.27"/></clipPath></defs><g id="Layer_2" data-name="Layer 2"><g id="Layer_1-2" data-name="Layer 1"><path class="cls-2" d="M381.76,23.47v572.2c0,12.94-10.92,23.47-24.36,23.47h-333C10.93,619.14,0,608.61,0,595.67V23.47C0,10.53,10.93,0,24.35,0h333C370.84,0,381.76,10.53,381.76,23.47ZM361.3,582.06v-545a17.59,17.59,0,0,0-17.57-17.57H38A17.59,17.59,0,0,0,20.47,37.09v545A17.58,17.58,0,0,0,38,599.62h305.7A17.59,17.59,0,0,0,361.3,582.06Z" transform="translate(1.64)"/><rect class="cls-3" x="22.11" y="19.52" width="340.83" height="580.1" rx="17.57"/><path class="cls-4" d="M132.9,551a.47.47,0,0,1-.28-.4.82.82,0,0,1,.16-.43l.88-1.49c.12-.21.25-.31.37-.31a.67.67,0,0,1,.4.18,5.41,5.41,0,0,0,1.71.78,7.41,7.41,0,0,0,2.13.29,3,3,0,0,0,2.34-.84,3.73,3.73,0,0,0,.75-2.55V532.37a1.2,1.2,0,0,1,.27-.86,1.25,1.25,0,0,1,.89-.27h1.59a1.22,1.22,0,0,1,.88.27,1.16,1.16,0,0,1,.28.86V546.2a6.27,6.27,0,0,1-1.65,4.57,6.61,6.61,0,0,1-5,1.69A10.79,10.79,0,0,1,132.9,551Z" transform="translate(1.64)"/><path class="cls-4" d="M153,551.53a7.15,7.15,0,0,1-4.42-6.85V532.37a1.2,1.2,0,0,1,.26-.86,1.16,1.16,0,0,1,.87-.27h1.61a1.23,1.23,0,0,1,.89.27,1.2,1.2,0,0,1,.28.86v12.4a4.56,4.56,0,0,0,1.38,3.6,7.09,7.09,0,0,0,7.95,0,4.56,4.56,0,0,0,1.39-3.6v-12.4a1.2,1.2,0,0,1,.27-.86,1.23,1.23,0,0,1,.89-.27h1.58c.8,0,1.19.38,1.19,1.13v12.31a7.28,7.28,0,0,1-1.17,4.13,7.58,7.58,0,0,1-3.28,2.71,11.73,11.73,0,0,1-4.83.94A12,12,0,0,1,153,551.53Z" transform="translate(1.64)"/><path class="cls-4" d="M173.75,552a9.67,9.67,0,0,1-3.35-1.33c-.26-.18-.39-.34-.39-.49a.56.56,0,0,1,.12-.36l1-1.59c.12-.18.23-.28.33-.28a.8.8,0,0,1,.4.16,10.79,10.79,0,0,0,2.62,1.08,11.18,11.18,0,0,0,3,.41,5.86,5.86,0,0,0,3.13-.68,2.89,2.89,0,0,0,.66-3.68,3.23,3.23,0,0,0-1.17-1,26.17,26.17,0,0,0-2.47-1.07l-.7-.27a26.69,26.69,0,0,1-3.28-1.53,6.57,6.57,0,0,1-2.16-1.93,4.83,4.83,0,0,1-.85-2.9,5,5,0,0,1,2.12-4.29,9.37,9.37,0,0,1,5.57-1.51,14.49,14.49,0,0,1,3.65.4,7.75,7.75,0,0,1,2.68,1.22c.24.18.36.35.36.52a.52.52,0,0,1-.12.33l-1,1.59c-.12.18-.22.28-.3.28a.84.84,0,0,1-.4-.19,8.86,8.86,0,0,0-4.86-1.25,4.94,4.94,0,0,0-2.9.7,2.57,2.57,0,0,0-1,2.23,2.46,2.46,0,0,0,.41,1.51,3.22,3.22,0,0,0,1.2,1c.53.26,1.39.62,2.57,1.07l.76.3A24.33,24.33,0,0,1,183,542.1a5.43,5.43,0,0,1,1.94,1.86,5.32,5.32,0,0,1,.69,2.85,5,5,0,0,1-2,4.14,9,9,0,0,1-5.6,1.51A18.92,18.92,0,0,1,173.75,552Z" transform="translate(1.64)"/><path class="cls-4" d="M193.28,551.73a1.09,1.09,0,0,1-.28-.82V534.23h-5.34a1.14,1.14,0,0,1-.84-.24,1.18,1.18,0,0,1-.23-.83v-.82a1.21,1.21,0,0,1,.23-.84,1.06,1.06,0,0,1,.84-.26h14.6a1.11,1.11,0,0,1,.85.26,1.2,1.2,0,0,1,.25.84v.82a1.17,1.17,0,0,1-.25.83,1.2,1.2,0,0,1-.85.24h-5.35v16.68a1.17,1.17,0,0,1-.26.82,1.21,1.21,0,0,1-.9.28h-1.59A1.2,1.2,0,0,1,193.28,551.73Z" transform="translate(1.64)"/><path class="cls-4" d="M206,551.73a1.12,1.12,0,0,1-.26-.82V532.37a1.2,1.2,0,0,1,.26-.86,1.16,1.16,0,0,1,.87-.27h1.62a1.22,1.22,0,0,1,.88.27,1.2,1.2,0,0,1,.28.86v18.54a1.17,1.17,0,0,1-.26.82,1.24,1.24,0,0,1-.9.28h-1.62A1.16,1.16,0,0,1,206,551.73Z" transform="translate(1.64)"/><path class="cls-4" d="M215.48,549.65q-2.83-2.8-2.84-8t2.79-8q2.81-2.8,8-2.81a16.16,16.16,0,0,1,3.85.43,9.4,9.4,0,0,1,3,1.22.51.51,0,0,1,.28.4.85.85,0,0,1-.16.42l-.85,1.47c-.12.18-.24.27-.34.27a1.26,1.26,0,0,1-.43-.15,9.42,9.42,0,0,0-4.91-1.16,7.22,7.22,0,0,0-5.41,2q-2,2-1.95,6t2,6a7.43,7.43,0,0,0,5.44,2,10.19,10.19,0,0,0,5.22-1.19,1.26,1.26,0,0,1,.4-.15q.18,0,.36.27l1,1.59a.74.74,0,0,1,.09.31q0,.18-.33.39-2.35,1.65-7.12,1.65C220.05,552.46,217.37,551.53,215.48,549.65Z" transform="translate(1.64)"/><path class="cls-4" d="M234.19,551.73a1.12,1.12,0,0,1-.26-.82V532.37a1.2,1.2,0,0,1,.26-.86,1.16,1.16,0,0,1,.87-.27h12.7a1.14,1.14,0,0,1,.84.24,1.23,1.23,0,0,1,.23.83v.82a1.26,1.26,0,0,1-.23.84,1.09,1.09,0,0,1-.84.26h-9.93v5.93H245a1.23,1.23,0,0,1,.86.24,1.16,1.16,0,0,1,.24.83V542a1.22,1.22,0,0,1-.24.84,1.18,1.18,0,0,1-.86.26h-7.21V549h9.9a1.14,1.14,0,0,1,.85.26,1.19,1.19,0,0,1,.25.84V551a1.06,1.06,0,0,1-.25.79,1.18,1.18,0,0,1-.85.25H235.06A1.16,1.16,0,0,1,234.19,551.73Z" transform="translate(1.64)"/><g class="cls-5"><path class="cls-6" d="M222.64,204.22a2.23,2.23,0,0,0-2.23,2.23h4.46A2.23,2.23,0,0,0,222.64,204.22Z" transform="translate(1.64)"/><path class="cls-7" d="M219,169.59v.12a.49.49,0,0,0,0-.12Z" transform="translate(1.64)"/><rect class="cls-1" x="48.76" y="64.22" width="243.3" height="404.24"/><rect class="cls-8" x="31.07" y="34.84" width="331.87" height="429.73"/><path class="cls-9" d="M225.84,329H351.07a16.22,16.22,0,0,0,16.17-16.18h0a16.22,16.22,0,0,0-16.17-16.17H225.84a16.22,16.22,0,0,0-16.17,16.17h0A16.22,16.22,0,0,0,225.84,329Z" transform="translate(1.64)"/><circle class="cls-9" cx="304.4" cy="288.83" r="40.19" transform="translate(-77.29 459.53) rotate(-67.5)"/><circle class="cls-9" cx="260.21" cy="300.38" r="28.64" transform="translate(-93.5 122.44) rotate(-22.5)"/><rect class="cls-9" x="41.82" y="314.16" width="178.33" height="36.61" rx="16.18"/><circle class="cls-9" cx="45.49" cy="288.87" r="45.49"/><circle class="cls-9" cx="93.86" cy="301.95" r="32.41" transform="translate(-106.76 58.9) rotate(-22.5)"/><rect class="cls-10" x="31" y="317.84" width="36.68" height="146.74"/><rect class="cls-11" x="326.18" y="317.84" width="36.68" height="146.74"/><rect class="cls-11" x="67.68" y="427.73" width="36.84" height="36.84"/><rect class="cls-10" x="104.82" y="427.73" width="36.84" height="36.84"/><rect class="cls-11" x="141.79" y="427.73" width="36.84" height="36.84"/><rect class="cls-10" x="178.93" y="427.73" width="36.84" height="36.84"/><rect class="cls-11" x="67.68" y="427.73" width="36.84" height="36.84"/><rect class="cls-10" x="104.27" y="427.73" width="36.84" height="36.84"/><rect class="cls-11" x="141.24" y="427.73" width="36.84" height="36.84"/><rect class="cls-10" x="178.38" y="427.73" width="36.84" height="36.84"/><rect class="cls-11" x="215.29" y="427.73" width="36.84" height="36.84"/><rect class="cls-10" x="252.42" y="427.73" width="36.84" height="36.84"/><rect class="cls-11" x="289.26" y="427.73" width="36.84" height="36.84"/><rect class="cls-10" x="326.1" y="427.73" width="36.84" height="36.84"/><rect class="cls-11" x="31" y="390.9" width="36.84" height="36.84"/><rect class="cls-10" x="68.14" y="390.9" width="36.84" height="36.84"/><rect class="cls-11" x="105.12" y="390.9" width="36.84" height="36.84"/><rect class="cls-10" x="142.25" y="390.9" width="36.84" height="36.84"/><rect class="cls-11" x="31" y="390.9" width="36.84" height="36.84"/><rect class="cls-10" x="67.59" y="390.9" width="36.84" height="36.84"/><rect class="cls-11" x="104.57" y="390.9" width="36.84" height="36.84"/><rect class="cls-10" x="141.7" y="390.9" width="36.84" height="36.84"/><rect class="cls-11" x="178.61" y="390.9" width="36.84" height="36.84"/><rect class="cls-10" x="215.75" y="390.9" width="36.84" height="36.84"/><rect class="cls-11" x="252.58" y="390.9" width="36.84" height="36.84"/><rect class="cls-10" x="289.42" y="390.9" width="36.84" height="36.84"/><rect class="cls-11" x="67.68" y="354.67" width="36.84" height="36.84"/><rect class="cls-10" x="104.82" y="354.67" width="36.84" height="36.84"/><rect class="cls-11" x="141.79" y="354.67" width="36.84" height="36.84"/><rect class="cls-10" x="178.93" y="354.67" width="36.84" height="36.84"/><rect class="cls-11" x="67.68" y="354.67" width="36.84" height="36.84"/><rect class="cls-10" x="104.27" y="354.67" width="36.84" height="36.84"/><rect class="cls-11" x="141.24" y="354.67" width="36.84" height="36.84"/><rect class="cls-10" x="178.38" y="354.67" width="36.84" height="36.84"/><rect class="cls-11" x="215.29" y="354.67" width="36.84" height="36.84"/><rect class="cls-10" x="252.42" y="354.67" width="36.84" height="36.84"/><rect class="cls-11" x="289.26" y="354.67" width="36.84" height="36.84"/><rect class="cls-10" x="326.1" y="354.67" width="36.84" height="36.84"/><rect class="cls-11" x="31" y="317.84" width="36.84" height="36.84"/><rect class="cls-10" x="68.14" y="317.84" width="36.84" height="36.84"/><rect class="cls-11" x="105.12" y="317.84" width="36.84" height="36.84"/><rect class="cls-10" x="142.25" y="317.84" width="36.84" height="36.84"/><rect class="cls-11" x="31" y="317.84" width="36.84" height="36.84"/><rect class="cls-10" x="67.59" y="317.84" width="36.84" height="36.84"/><rect class="cls-11" x="104.57" y="317.84" width="36.84" height="36.84"/><rect class="cls-10" x="141.7" y="317.84" width="36.84" height="36.84"/><rect class="cls-11" x="178.61" y="317.84" width="36.84" height="36.84"/><rect class="cls-10" x="215.75" y="317.84" width="36.84" height="36.84"/><rect class="cls-11" x="252.58" y="317.84" width="36.84" height="36.84"/><rect class="cls-10" x="289.42" y="317.84" width="36.84" height="36.84"/><rect class="cls-12" x="151.9" y="403.03" width="83.19" height="15.99"/><rect class="cls-13" x="137.9" y="362.59" width="13.99" height="56.71"/><circle class="cls-13" cx="143.26" cy="355.93" r="13.16" transform="translate(-123.66 81.92) rotate(-22.5)"/><rect class="cls-13" x="235.09" y="362.59" width="13.99" height="56.71"/><circle class="cls-13" cx="240.45" cy="355.93" r="13.16" transform="translate(-147.77 536.26) rotate(-80.78)"/><path class="cls-14" d="M192,258.25h0a44.67,44.67,0,0,0-44.66,44.66v51.9h89.31v-51.9A44.66,44.66,0,0,0,192,258.25Z" transform="translate(1.64)"/><path class="cls-13" d="M194,264h0a37.6,37.6,0,0,1,37.6,37.6v53.23a0,0,0,0,1,0,0h-75.2a0,0,0,0,1,0,0V301.58A37.6,37.6,0,0,1,194,264Z"/><rect class="cls-14" x="142.07" y="362.59" width="13.99" height="56.71"/><rect class="cls-15" x="154.72" y="347.02" width="77.8" height="17.26"/><rect class="cls-14" x="231.28" y="362.59" width="13.99" height="56.71"/><rect class="cls-7" x="156.06" y="384.57" width="75.22" height="15.12"/><path class="cls-7" d="M163.4,423.64l1.1-1.21a4.33,4.33,0,0,1,2.27-1.31L172,420c0-.07,0-.15,0-.23V382a7.19,7.19,0,0,1,14.37,0v36.47a4.27,4.27,0,0,1,1.69,3.41v4.66a4.31,4.31,0,0,1-4.3,4.3H166.58A4.3,4.3,0,0,1,163.4,423.64Z" transform="translate(1.64)"/><path class="cls-16" d="M185.92,389.16H173.08a1.36,1.36,0,0,1-1.36-1.36h0a1.36,1.36,0,0,1,1.36-1.36h12.84a1.36,1.36,0,0,1,1.36,1.36h0A1.36,1.36,0,0,1,185.92,389.16Z" transform="translate(1.64)"/><path class="cls-16" d="M172.8,405.81h0a1.57,1.57,0,0,1-.3-2.2L184,388.42a1.56,1.56,0,0,1,2.19-.31h0a1.58,1.58,0,0,1,.31,2.2L175,405.5A1.56,1.56,0,0,1,172.8,405.81Z" transform="translate(1.64)"/><path class="cls-16" d="M186.34,405.71h0a1.41,1.41,0,0,0,.27-2l-11.72-15.47a1.41,1.41,0,0,0-2-.27h0a1.41,1.41,0,0,0-.27,2l11.71,15.47A1.42,1.42,0,0,0,186.34,405.71Z" transform="translate(1.64)"/><path class="cls-16" d="M172.8,421.35h0a1.57,1.57,0,0,1-.3-2.2L184,404a1.56,1.56,0,0,1,2.19-.31h0a1.58,1.58,0,0,1,.31,2.2L175,421A1.56,1.56,0,0,1,172.8,421.35Z" transform="translate(1.64)"/><path class="cls-16" d="M186.2,421.35h0a1.58,1.58,0,0,0,.31-2.2L175,404a1.56,1.56,0,0,0-2.19-.31h0a1.57,1.57,0,0,0-.3,2.2L184,421A1.56,1.56,0,0,0,186.2,421.35Z" transform="translate(1.64)"/><rect class="cls-16" x="167.04" y="420.94" width="2.56" height="9.12" rx="1.28"/><path class="cls-16" d="M171.72,430.06h0a1.28,1.28,0,0,1-1.28-1.28V421a1.28,1.28,0,0,1,1.28-1.28h0A1.28,1.28,0,0,1,173,421v7.74A1.28,1.28,0,0,1,171.72,430.06Z" transform="translate(1.64)"/><path class="cls-16" d="M185.35,422.34H173.12a1.4,1.4,0,0,1-1.4-1.4h0a1.4,1.4,0,0,1,1.4-1.39h12.23a1.4,1.4,0,0,1,1.4,1.39h0A1.4,1.4,0,0,1,185.35,422.34Z" transform="translate(1.64)"/><path class="cls-16" d="M163.58,431.27H188a1.31,1.31,0,0,0,1.31-1.3h0a1.31,1.31,0,0,0-1.31-1.31H163.58a1.31,1.31,0,0,0-1.3,1.31h0A1.31,1.31,0,0,0,163.58,431.27Z" transform="translate(1.64)"/><path class="cls-7" d="M201.34,418.45V382a7.19,7.19,0,0,1,14.37,0v37.78c0,.08,0,.16,0,.23l5.22,1.13a4.33,4.33,0,0,1,2.27,1.31l1.1,1.21a4.3,4.3,0,0,1-3.18,7.18H204a4.31,4.31,0,0,1-4.3-4.3v-4.66A4.27,4.27,0,0,1,201.34,418.45Z" transform="translate(1.64)"/><path class="cls-16" d="M201.91,389.16h12.84a1.36,1.36,0,0,0,1.36-1.36h0a1.36,1.36,0,0,0-1.36-1.36H201.91a1.37,1.37,0,0,0-1.37,1.36h0A1.37,1.37,0,0,0,201.91,389.16Z" transform="translate(1.64)"/><path class="cls-16" d="M215,405.81h0a1.57,1.57,0,0,0,.3-2.2l-11.51-15.19a1.56,1.56,0,0,0-2.19-.31h0a1.58,1.58,0,0,0-.31,2.2l11.51,15.19A1.58,1.58,0,0,0,215,405.81Z" transform="translate(1.64)"/><path class="cls-16" d="M201.63,405.81h0a1.58,1.58,0,0,1-.31-2.2l11.51-15.19a1.58,1.58,0,0,1,2.2-.31h0a1.57,1.57,0,0,1,.3,2.2L203.82,405.5A1.56,1.56,0,0,1,201.63,405.81Z" transform="translate(1.64)"/><path class="cls-16" d="M215,421.35h0a1.57,1.57,0,0,0,.3-2.2L203.82,404a1.56,1.56,0,0,0-2.19-.31h0a1.58,1.58,0,0,0-.31,2.2L212.83,421A1.58,1.58,0,0,0,215,421.35Z" transform="translate(1.64)"/><path class="cls-16" d="M201.63,421.35h0a1.58,1.58,0,0,1-.31-2.2L212.83,404a1.58,1.58,0,0,1,2.2-.31h0a1.57,1.57,0,0,1,.3,2.2L203.82,421A1.56,1.56,0,0,1,201.63,421.35Z" transform="translate(1.64)"/><path class="cls-16" d="M221.15,429.41h0a1.28,1.28,0,0,0,1.28-1.28v-6.55a1.28,1.28,0,0,0-1.28-1.28h0a1.28,1.28,0,0,0-1.28,1.28v6.55A1.28,1.28,0,0,0,221.15,429.41Z" transform="translate(1.64)"/><path class="cls-16" d="M216.11,429.41h0a1.28,1.28,0,0,0,1.28-1.28v-7.3a1.28,1.28,0,0,0-1.28-1.28h0a1.28,1.28,0,0,0-1.28,1.28v7.3A1.28,1.28,0,0,0,216.11,429.41Z" transform="translate(1.64)"/><path class="cls-16" d="M202.48,422.34h12.23a1.4,1.4,0,0,0,1.4-1.4h0a1.4,1.4,0,0,0-1.4-1.39H202.48a1.4,1.4,0,0,0-1.4,1.39h0A1.4,1.4,0,0,0,202.48,422.34Z" transform="translate(1.64)"/><path class="cls-16" d="M200.32,431.27h24.42a1.31,1.31,0,0,0,1.31-1.3h0a1.31,1.31,0,0,0-1.31-1.31H200.32A1.31,1.31,0,0,0,199,430h0A1.31,1.31,0,0,0,200.32,431.27Z" transform="translate(1.64)"/><path class="cls-16" d="M200.54,431.26h0a1.49,1.49,0,0,1-1.48-1.49v-9.83a1.49,1.49,0,0,1,1.48-1.49h0a1.49,1.49,0,0,1,1.48,1.49v9.83A1.49,1.49,0,0,1,200.54,431.26Z" transform="translate(1.64)"/><path class="cls-16" d="M188,431.27h0a1.49,1.49,0,0,0,1.48-1.48v-10a1.49,1.49,0,0,0-1.48-1.48h0a1.49,1.49,0,0,0-1.49,1.48v10A1.49,1.49,0,0,0,188,431.27Z" transform="translate(1.64)"/><rect class="cls-17" x="156.06" y="362.59" width="75.22" height="21.98"/><circle class="cls-14" cx="147.42" cy="355.93" r="13.16" transform="translate(-206.86 208.49) rotate(-45)"/><circle class="cls-14" cx="236.63" cy="355.93" r="13.16" transform="translate(-180.73 271.58) rotate(-45)"/><path class="cls-9" d="M193.91,333.46h0a41.18,41.18,0,0,1,41.18,41.18v70.53a0,0,0,0,1,0,0H152.73a0,0,0,0,1,0,0V374.65a41.18,41.18,0,0,1,41.18-41.18Z"/><path class="cls-14" d="M256.21,336.9h0a8.38,8.38,0,0,0-1.61-11.71l-15.48-11.72a8.39,8.39,0,0,0-11.71,1.62h0a8.38,8.38,0,0,0,1.62,11.7l15.47,11.72A8.38,8.38,0,0,0,256.21,336.9Z" transform="translate(1.64)"/><path class="cls-14" d="M273.85,303.12h0a6.11,6.11,0,0,0-8.55,1.18l-20.55,27.12a6.13,6.13,0,0,0,1.18,8.56h0a6.13,6.13,0,0,0,8.56-1.18L275,311.68A6.13,6.13,0,0,0,273.85,303.12Z" transform="translate(1.64)"/><path class="cls-7" d="M132,338.35h0a8.39,8.39,0,0,1,1.62-11.71l15.47-11.72a8.39,8.39,0,0,1,11.71,1.62h0a8.37,8.37,0,0,1-1.62,11.7L143.71,340A8.39,8.39,0,0,1,132,338.35Z" transform="translate(1.64)"/><path class="cls-7" d="M114.36,304.57h0a6.13,6.13,0,0,1,8.56,1.18l20.54,27.12a6.13,6.13,0,0,1-1.18,8.56h0a6.13,6.13,0,0,1-8.56-1.18l-20.54-27.12A6.13,6.13,0,0,1,114.36,304.57Z" transform="translate(1.64)"/><rect class="cls-18" x="117.5" y="285.21" width="9.32" height="35.59"/><rect class="cls-17" x="111.84" y="294.6" width="20.36" height="3.85"/><rect class="cls-9" x="117.5" y="172.68" width="9.32" height="122.03"/><polygon class="cls-9" points="117.5 172.68 122.16 157.93 126.82 172.68 117.5 172.68"/><rect class="cls-19" x="164.44" y="234.02" width="63.89" height="79.08"/><path class="cls-18" d="M248.86,355h0a2.14,2.14,0,0,1-2.12-2.13V334.79a2.14,2.14,0,0,1,2.12-2.13h0a2.13,2.13,0,0,1,2.12,2.13v18.07A2.13,2.13,0,0,1,248.86,355Z" transform="translate(1.64)"/><path class="cls-18" d="M286.49,355h0a2.13,2.13,0,0,1-2.12-2.13V334.79a2.13,2.13,0,0,1,2.12-2.13h0a2.14,2.14,0,0,1,2.12,2.13v18.07A2.14,2.14,0,0,1,286.49,355Z" transform="translate(1.64)"/><path class="cls-18" d="M286.23,334.79H249.12a2.51,2.51,0,0,1-2.49-2.5h0a2.5,2.5,0,0,1,2.49-2.49h37.11a2.5,2.5,0,0,1,2.49,2.49h0A2.51,2.51,0,0,1,286.23,334.79Z" transform="translate(1.64)"/><path class="cls-17" d="M286.25,355H296.5c0,3-4.63,5.4-10.25,5.4S276,358,276,355v0Z" transform="translate(1.64)"/><path class="cls-20" d="M296.5,355c0-.55-4.59-1-10.25-1s-10.25.45-10.25,1,4.59,1,10.25,1S296.5,355.53,296.5,355Z" transform="translate(1.64)"/><path class="cls-17" d="M249.1,355h10.25c0,3-4.63,5.4-10.25,5.4S238.85,358,238.85,355v0Z" transform="translate(1.64)"/><path class="cls-20" d="M259.35,355c0-.55-4.59-1-10.25-1s-10.25.45-10.25,1,4.59,1,10.25,1S259.35,355.53,259.35,355Z" transform="translate(1.64)"/><path class="cls-18" d="M267.68,332.66h0A2.71,2.71,0,0,1,265,330V296.56a2.71,2.71,0,0,1,2.71-2.71h0a2.72,2.72,0,0,1,2.71,2.71V330A2.71,2.71,0,0,1,267.68,332.66Z" transform="translate(1.64)"/><path class="cls-9" d="M214.77,326.94a15.28,15.28,0,0,1-3.65-21.24h0a15.28,15.28,0,0,1,21.24-3.65l8.18,5.77L223,332.72Z" transform="translate(1.64)"/><path class="cls-7" d="M264.73,310h3.92a2.59,2.59,0,0,0,2.58-2.58h0a2.59,2.59,0,0,0-2.58-2.58h-3.92a2.59,2.59,0,0,0-2.58,2.58h0A2.59,2.59,0,0,0,264.73,310Z" transform="translate(1.64)"/><path class="cls-7" d="M273.11,316.37h0a5.45,5.45,0,0,0,5.44-5.44V304a5.44,5.44,0,0,0-5.44-5.43h0a5.43,5.43,0,0,0-5.43,5.43v6.9A5.44,5.44,0,0,0,273.11,316.37Z" transform="translate(1.64)"/><path class="cls-7" d="M126.14,313.1h-3.92a2.59,2.59,0,0,1-2.58-2.58h0a2.59,2.59,0,0,1,2.58-2.58h3.92a2.59,2.59,0,0,1,2.58,2.58h0A2.59,2.59,0,0,1,126.14,313.1Z" transform="translate(1.64)"/><path class="cls-7" d="M115.86,319.45h0a5.45,5.45,0,0,1-5.43-5.44v-6.9a5.44,5.44,0,0,1,5.43-5.43h0a5.45,5.45,0,0,1,5.44,5.43V314A5.46,5.46,0,0,1,115.86,319.45Z" transform="translate(1.64)"/><path class="cls-9" d="M204.83,299.53c-.32,5.07-5.29,9.1-11.4,9.1-6.27,0-11.37-4.26-11.43-9.54a24.7,24.7,0,0,0-22.6,24.6v28.63h65V323.69A24.69,24.69,0,0,0,204.83,299.53Z" transform="translate(1.64)"/><path class="cls-14" d="M193.43,308.63c6.11,0,11.08-4,11.4-9.1a24.32,24.32,0,0,0-5.08-.53H184.09c-.7,0-1.4,0-2.09.09C182.06,304.37,187.16,308.63,193.43,308.63Z" transform="translate(1.64)"/><path class="cls-9" d="M171.18,326.94a15.29,15.29,0,0,0,3.66-21.24h0a15.29,15.29,0,0,0-21.25-3.65l-8.18,5.77L163,332.72Z" transform="translate(1.64)"/><path class="cls-7" d="M160.07,259.9a7,7,0,1,0,7-7A7,7,0,0,0,160.07,259.9Z" transform="translate(1.64)"/><path class="cls-6" d="M162.79,259.9a4.27,4.27,0,1,0,4.27-4.27A4.27,4.27,0,0,0,162.79,259.9Z" transform="translate(1.64)"/><path class="cls-7" d="M212.7,258.86a7,7,0,1,0,7-7A7,7,0,0,0,212.7,258.86Z" transform="translate(1.64)"/><path class="cls-6" d="M215.42,258.86a4.27,4.27,0,1,0,4.27-4.27A4.27,4.27,0,0,0,215.42,258.86Z" transform="translate(1.64)"/><path class="cls-7" d="M191.3,292h0a26.18,26.18,0,0,0,27.36-24.77L220,241.32A26.16,26.16,0,0,0,195.18,214h0a26.17,26.17,0,0,0-27.36,24.77l-1.29,25.92A26.19,26.19,0,0,0,191.3,292Z" transform="translate(1.64)"/><path class="cls-20" d="M201.7,262.34h0A2.34,2.34,0,0,0,204,260v-4a2.33,2.33,0,0,0-2.33-2.32h0a2.32,2.32,0,0,0-2.32,2.32v4A2.33,2.33,0,0,0,201.7,262.34Z" transform="translate(1.64)"/><path class="cls-20" d="M182.33,262.34h0a2.33,2.33,0,0,0,2.32-2.33v-4a2.32,2.32,0,0,0-2.32-2.32h0A2.33,2.33,0,0,0,180,256v4A2.34,2.34,0,0,0,182.33,262.34Z" transform="translate(1.64)"/><path class="cls-19" d="M172,253.23a1.54,1.54,0,0,1-.83-.24,1.56,1.56,0,0,1-.49-2.15c.13-.21,3.34-5.1,13.71-3.13a1.56,1.56,0,0,1-.58,3.06c-8.18-1.54-10.47,1.7-10.49,1.73A1.57,1.57,0,0,1,172,253.23Z" transform="translate(1.64)"/><path class="cls-19" d="M209.2,253.23a1.56,1.56,0,0,0,1.32-2.39c-.13-.21-3.34-5.1-13.71-3.13a1.56,1.56,0,1,0,.58,3.06c8.17-1.54,10.47,1.7,10.49,1.73A1.56,1.56,0,0,0,209.2,253.23Z" transform="translate(1.64)"/><path class="cls-6" d="M191.92,263.86a2.7,2.7,0,0,0-2.69,2.69h5.38A2.69,2.69,0,0,0,191.92,263.86Z" transform="translate(1.64)"/><rect class="cls-7" x="189.68" y="288.43" width="11.34" height="15.62"/><path class="cls-21" d="M193.54,162.73h8a16.64,16.64,0,0,1,16.64,16.64v58.39a0,0,0,0,1,0,0H176.9a0,0,0,0,1,0,0V179.37A16.64,16.64,0,0,1,193.54,162.73Z"/><path class="cls-22" d="M191.36,216.55v-6.62a.22.22,0,0,0,0-.08c-.11-.59-1.63-7.87-8-10.63-9-3.95-13.71,3.31-23.48-2.59a.41.41,0,0,0-.59.49,14.85,14.85,0,0,0,5.1,6.72.41.41,0,0,1-.35.72,11.18,11.18,0,0,1-3.59-1.72.41.41,0,0,0-.63.47c.79,2.13,3.12,6.19,9.67,7.57a.41.41,0,0,1,0,.8,18.47,18.47,0,0,1-5.28.27.4.4,0,0,0-.34.67c1.37,1.48,5,4.42,11.74,3.91a.41.41,0,0,1,.2.78,15.16,15.16,0,0,1-7.48,1.09.41.41,0,0,0-.23.77c4.23,2.16,14.76,6.15,23.11-2.34A.38.38,0,0,0,191.36,216.55Z" transform="translate(1.64)"/><path class="cls-22" d="M198.11,216.55v-6.62a.22.22,0,0,1,0-.08c.11-.59,1.63-7.87,7.95-10.63,9-3.95,13.72,3.31,23.49-2.59a.41.41,0,0,1,.59.49,14.85,14.85,0,0,1-5.1,6.72.41.41,0,0,0,.35.72,11.28,11.28,0,0,0,3.59-1.72.41.41,0,0,1,.63.47c-.79,2.13-3.12,6.19-9.67,7.57a.41.41,0,0,0,0,.8,18.47,18.47,0,0,0,5.28.27.4.4,0,0,1,.34.67c-1.37,1.48-5,4.42-11.74,3.91a.41.41,0,0,0-.2.78,15.14,15.14,0,0,0,7.48,1.09.41.41,0,0,1,.22.77c-4.22,2.16-14.76,6.15-23.1-2.34A.38.38,0,0,1,198.11,216.55Z" transform="translate(1.64)"/><polygon class="cls-11" points="194.18 209.29 174.23 173.27 183.06 162.73 197.53 209.29 194.18 209.29"/><polygon class="cls-11" points="198.62 209.29 218.56 173.27 209.74 162.73 195.27 209.29 198.62 209.29"/><path class="cls-11" d="M194.41,206.78c-.78-1.3-7-44.05-7-44.05H201.7Z" transform="translate(1.64)"/><path class="cls-9" d="M192,206.19l-30.83,28.13a5.29,5.29,0,0,0,3.56,9.21h61.68a5.29,5.29,0,0,0,3.56-9.21l-30.83-28.13A5.29,5.29,0,0,0,192,206.19Z" transform="translate(1.64)"/><path class="cls-21" d="M244,302.53c0,4-5.18,11.39-5.18,11.39s-5.17-7.39-5.17-11.39,2.32-7.24,5.17-7.24S244,298.53,244,302.53Z" transform="translate(1.64)"/><path class="cls-21" d="M219.05,302.53c0,4-5.17,11.39-5.17,11.39s-5.17-7.39-5.17-11.39,2.31-7.24,5.17-7.24S219.05,298.53,219.05,302.53Z" transform="translate(1.64)"/><ellipse class="cls-11" cx="227.99" cy="293.63" rx="14.08" ry="12.01"/><ellipse class="cls-11" cx="227.99" cy="303.52" rx="14.08" ry="12.01"/><path class="cls-14" d="M231.52,296.61c0,2.81-5.17,8-5.17,8s-5.18-5.18-5.18-8a5.18,5.18,0,0,1,10.35,0Z" transform="translate(1.64)"/><path class="cls-14" d="M220.83,314.55a4.72,4.72,0,0,1-.53,1.68c-.21.45-.62.45-.83,0a4.53,4.53,0,0,1-.53-1.68c0-.87.42-1.58.94-1.58S220.83,313.68,220.83,314.55Z" transform="translate(1.64)"/><path class="cls-14" d="M222.88,314.55a4.69,4.69,0,0,1-.52,1.68c-.21.45-.62.45-.84,0a4.69,4.69,0,0,1-.52-1.68c0-.87.42-1.58.94-1.58S222.88,313.68,222.88,314.55Z" transform="translate(1.64)"/><path class="cls-14" d="M224.94,314.55a4.69,4.69,0,0,1-.52,1.68c-.22.45-.62.45-.84,0a4.69,4.69,0,0,1-.52-1.68c0-.87.42-1.58.94-1.58S224.94,313.68,224.94,314.55Z" transform="translate(1.64)"/><path class="cls-14" d="M229.63,314.55a4.69,4.69,0,0,1-.52,1.68c-.22.45-.62.45-.84,0a4.69,4.69,0,0,1-.52-1.68c0-.87.42-1.58.94-1.58S229.63,313.68,229.63,314.55Z" transform="translate(1.64)"/><path class="cls-14" d="M231.69,314.55a4.69,4.69,0,0,1-.52,1.68c-.22.45-.62.45-.84,0a4.69,4.69,0,0,1-.52-1.68c0-.87.42-1.58.94-1.58S231.69,313.68,231.69,314.55Z" transform="translate(1.64)"/><path class="cls-14" d="M233.75,314.55a4.69,4.69,0,0,1-.52,1.68c-.22.45-.62.45-.84,0a4.69,4.69,0,0,1-.52-1.68c0-.87.42-1.58.94-1.58S233.75,313.68,233.75,314.55Z" transform="translate(1.64)"/><path class="cls-23" d="M217.59,282.7a20.83,20.83,0,0,1-6.46-1,1.08,1.08,0,0,0-1.48,1.11,11.42,11.42,0,0,1-.66,5.54v0a.36.36,0,0,1,0,.09v0a9.36,9.36,0,1,0,8.66-5.81Z" transform="translate(1.64)"/><path class="cls-20" d="M219.54,291.49a1.66,1.66,0,0,1-1.36-2.61,3.8,3.8,0,0,0-.59-.06,3.24,3.24,0,1,0,3.23,3.24,3.39,3.39,0,0,0-.16-1A1.61,1.61,0,0,1,219.54,291.49Z" transform="translate(1.64)"/><path class="cls-23" d="M235.1,282.7a20.79,20.79,0,0,0,6.46-1,1.09,1.09,0,0,1,1.49,1.11,11.3,11.3,0,0,0,.65,5.54v0a.36.36,0,0,1,0,.09l0,0a9.37,9.37,0,1,1-8.67-5.81Z" transform="translate(1.64)"/><path class="cls-20" d="M233.15,291.49a1.66,1.66,0,0,0,1.36-2.61,3.93,3.93,0,0,1,.59-.06,3.24,3.24,0,1,1-3.23,3.24,3.39,3.39,0,0,1,.16-1A1.62,1.62,0,0,0,233.15,291.49Z" transform="translate(1.64)"/><path class="cls-6" d="M197.31,273.56h-10a1.43,1.43,0,0,1-1.44-1.44h0a1.44,1.44,0,0,1,1.44-1.45h10a1.45,1.45,0,0,1,1.45,1.45h0A1.44,1.44,0,0,1,197.31,273.56Z" transform="translate(1.64)"/><rect class="cls-21" x="300.09" y="155.99" width="35.83" height="272.8"/><rect class="cls-9" x="289.57" y="418.4" width="59.41" height="17.28" rx="5.65"/><polygon class="cls-9" points="196.61 39.47 30.29 153.71 362.94 153.71 196.61 39.47"/><polygon class="cls-23" points="196.61 52.77 69.02 140.41 324.21 140.41 196.61 52.77"/><rect class="cls-21" x="26.58" y="147.2" width="339.01" height="8.79"/><rect class="cls-9" x="307.36" y="177.38" width="3.76" height="236.72" rx="1.59"/><rect class="cls-9" x="316.16" y="177.38" width="3.76" height="236.72" rx="1.59"/><rect class="cls-9" x="325.41" y="177.38" width="3.76" height="236.72" rx="1.59"/><rect class="cls-24" x="300.09" y="155.99" width="35.83" height="13.57"/><rect class="cls-21" x="44.67" y="155.99" width="35.83" height="272.8"/><rect class="cls-9" x="34.14" y="418.4" width="59.41" height="17.28" rx="5.65"/><rect class="cls-9" x="51.93" y="177.38" width="3.76" height="236.72" rx="1.59"/><rect class="cls-9" x="60.74" y="177.38" width="3.76" height="236.72" rx="1.59"/><rect class="cls-9" x="69.98" y="177.38" width="3.76" height="236.72" rx="1.59"/><rect class="cls-24" x="44.67" y="155.99" width="35.83" height="13.57"/><rect class="cls-1" x="67.68" y="34.84" width="258.64" height="429.73"/><path d="M286.34,17.45a5.29,5.29,0,0,1-2.25.41,4,4,0,0,1-4.2-4.31,4.23,4.23,0,0,1,4.44-4.47,4.43,4.43,0,0,1,2,.38l-.26.89a4.05,4.05,0,0,0-1.72-.35,3.16,3.16,0,0,0-3.32,3.51,3.1,3.1,0,0,0,3.27,3.43,4.37,4.37,0,0,0,1.8-.36Z" transform="translate(1.64)"/><path d="M291,17.73l-.09-.77h0a2.26,2.26,0,0,1-1.87.91,1.74,1.74,0,0,1-1.87-1.75c0-1.48,1.32-2.29,3.68-2.28v-.13a1.26,1.26,0,0,0-1.39-1.41,3.11,3.11,0,0,0-1.59.45l-.25-.73a3.74,3.74,0,0,1,2-.54c1.87,0,2.33,1.27,2.33,2.5v2.29a9.13,9.13,0,0,0,.1,1.46Zm-.16-3.12c-1.22,0-2.59.19-2.59,1.38a1,1,0,0,0,1,1.06,1.53,1.53,0,0,0,1.48-1,1.15,1.15,0,0,0,.07-.36Z" transform="translate(1.64)"/><path d="M293.68,13.27c0-.63,0-1.15-.05-1.65h1l.06,1h0a2.25,2.25,0,0,1,2-1.15c.85,0,2.16.5,2.16,2.6v3.65h-1.11V14.21c0-1-.37-1.81-1.42-1.81a1.58,1.58,0,0,0-1.49,1.14,1.61,1.61,0,0,0-.07.51v3.68h-1.12Z" transform="translate(1.64)"/><path d="M306,8.76v7.39c0,.55,0,1.17,0,1.58h-1l0-1.06h0a2.27,2.27,0,0,1-2.09,1.2c-1.48,0-2.61-1.25-2.61-3.11,0-2,1.25-3.28,2.74-3.28a2,2,0,0,1,1.84.93h0V8.76Zm-1.11,5.35a1.88,1.88,0,0,0-.05-.47,1.64,1.64,0,0,0-1.61-1.29c-1.15,0-1.83,1-1.83,2.36S302,17,303.19,17a1.67,1.67,0,0,0,1.63-1.32,1.86,1.86,0,0,0,.05-.48Z" transform="translate(1.64)"/><path d="M308.23,11.62l1.34,3.61c.14.4.29.89.39,1.25h0c.11-.36.24-.83.39-1.27l1.21-3.59h1.18L311.1,16c-.8,2.09-1.34,3.17-2.1,3.82a3,3,0,0,1-1.36.72l-.28-.93a3.09,3.09,0,0,0,1-.54,3.38,3.38,0,0,0,.94-1.24.84.84,0,0,0,.09-.27,1.07,1.07,0,0,0-.08-.29L307,11.62Z" transform="translate(1.64)"/><path d="M316.5,9.32a12.42,12.42,0,0,1,2.11-.17,3.45,3.45,0,0,1,2.38.71,2.27,2.27,0,0,1,.75,1.78,2.51,2.51,0,0,1-.66,1.82,3.52,3.52,0,0,1-2.6.94,4,4,0,0,1-.89-.08v3.41H316.5Zm1.09,4.1a3.41,3.41,0,0,0,.91.09c1.33,0,2.14-.64,2.14-1.82s-.8-1.67-2-1.67a4.67,4.67,0,0,0-1,.09Z" transform="translate(1.64)"/><path d="M328.4,14.62a3,3,0,0,1-3,3.25,2.91,2.91,0,0,1-2.93-3.14,3,3,0,0,1,3-3.25A2.89,2.89,0,0,1,328.4,14.62Zm-4.85.07c0,1.34.77,2.35,1.85,2.35s1.86-1,1.86-2.38c0-1-.52-2.35-1.83-2.35S323.55,13.53,323.55,14.69Z" transform="translate(1.64)"/><path d="M329.8,13.61c0-.78,0-1.41-.05-2h1l.05,1.05h0A2.38,2.38,0,0,1,333,11.48c1.48,0,2.59,1.25,2.59,3.11,0,2.19-1.34,3.28-2.78,3.28a2.12,2.12,0,0,1-1.88-1h0v3.32h-1.1Zm1.1,1.63a3.08,3.08,0,0,0,.05.46,1.71,1.71,0,0,0,1.67,1.3c1.17,0,1.86-1,1.86-2.36,0-1.23-.65-2.28-1.82-2.28A1.77,1.77,0,0,0,331,13.74a1.7,1.7,0,0,0-.08.45Z" transform="translate(1.64)"/></g></g></g></svg>