<?xml version="1.0" encoding="utf-8"?>
<!-- Generator: Adobe Illustrator 25.2.3, SVG Export Plug-In . SVG Version: 6.00 Build 0)  -->
<svg version="1.1" id="Layer_1" xmlns="http://www.w3.org/2000/svg" xmlns:xlink="http://www.w3.org/1999/xlink" x="0px" y="0px"
	 viewBox="0 0 381.2 619.1" style="enable-background:new 0 0 381.2 619.1;" xml:space="preserve">
<style type="text/css">
	.st0{fill:#F4B155;}
	.st1{fill:#FFF0CC;}
	.st2{fill:#231F20;}
	.st3{clip-path:url(#SVGID_2_);}
	.st4{fill:#EE915B;}
	.st5{clip-path:url(#SVGID_4_);}
	.st6{fill:#DD4F65;}
	.st7{fill:#E87B5E;}
	.st8{fill:#F4A758;}
	.st9{fill:#FFD351;}
	.st10{fill:#FFDE7C;}
	.st11{fill:#FFE9A8;}
	.st12{fill:#FFF4D3;}
	.st13{fill:#FFFFFF;}
	.st14{fill:#2D1D22;}
	.st15{fill:#54323A;}
	.st16{fill:#5E3B44;}
	.st17{fill:#3F272D;}
	.st18{fill:#A5A0A4;}
	.st19{fill:#F5B155;}
	.st20{fill:#FFD150;}
	.st21{fill:#F1F2F2;}
	.st22{fill:#47372E;}
	.st23{fill:#F4B055;}
	.st24{fill:#C64B63;}
	.st25{fill:none;}
</style>
<g id="Layer_2_1_">
	<g id="Layer_1-2">
		<path class="st0" d="M381.8,23.5v572.2c0,12.9-10.9,23.5-24.4,23.5h-333C10.9,619.1,0,608.6,0,595.7V23.5C0,10.5,10.9,0,24.4,0
			h333C370.8,0,381.8,10.5,381.8,23.5z M361.3,582.1v-545c0-9.7-7.9-17.6-17.6-17.6H38c-9.7,0-17.5,7.9-17.5,17.6v545
			c0,9.7,7.9,17.5,17.5,17.5h305.7C353.4,599.6,361.3,591.8,361.3,582.1z"/>
		<path class="st1" d="M38,19.5h305.7c9.7,0,17.6,7.9,17.6,17.6v545c0,9.7-7.9,17.6-17.6,17.6H38c-9.7,0-17.6-7.9-17.6-17.6v-545
			C20.5,27.4,28.3,19.5,38,19.5z"/>
		<path class="st2" d="M56.1,548.7c-0.2-0.2-0.3-0.5-0.3-0.9v-17.4h-5.6c-0.3,0-0.6-0.1-0.9-0.3c-0.2-0.2-0.3-0.6-0.2-0.9v-0.9
			c0-0.3,0.1-0.6,0.2-0.9c0.2-0.2,0.6-0.3,0.9-0.3h15.2c0.3,0,0.6,0.1,0.9,0.3c0.2,0.3,0.3,0.6,0.2,0.9v0.9c0,0.3-0.1,0.6-0.2,0.9
			c-0.3,0.2-0.6,0.3-0.9,0.3h-5.6v17.4c0,0.3-0.1,0.6-0.3,0.9c-0.3,0.2-0.6,0.3-0.9,0.3H57C56.7,549,56.4,548.9,56.1,548.7z"/>
		<path class="st2" d="M69.4,548.7c-0.2-0.2-0.3-0.5-0.3-0.9v-19.4c0-0.3,0.1-0.6,0.3-0.9c0.3-0.2,0.6-0.3,0.9-0.3H72
			c0.3,0,0.7,0.1,0.9,0.3c0.2,0.2,0.3,0.6,0.3,0.9v8h10.4v-8c0-0.3,0.1-0.6,0.3-0.9c0.3-0.2,0.6-0.3,0.9-0.3h1.7
			c0.3,0,0.7,0.1,0.9,0.3c0.2,0.2,0.3,0.6,0.3,0.9v19.4c0,0.3-0.1,0.6-0.3,0.9c-0.3,0.2-0.6,0.3-0.9,0.3h-1.7
			c-0.3,0-0.7-0.1-0.9-0.3c-0.2-0.2-0.3-0.5-0.3-0.9v-8.2H73.2v8.2c0,0.3-0.1,0.6-0.3,0.9c-0.3,0.2-0.6,0.3-0.9,0.3h-1.7
			C70,549,69.6,548.9,69.4,548.7z"/>
		<path class="st2" d="M91.8,548.7c-0.2-0.2-0.3-0.5-0.3-0.9v-19.4c0-0.3,0.1-0.6,0.3-0.9c0.3-0.2,0.6-0.3,0.9-0.3H106
			c0.3,0,0.6,0.1,0.9,0.3c0.2,0.2,0.3,0.6,0.2,0.9v0.9c0,0.3-0.1,0.6-0.2,0.9c-0.2,0.2-0.6,0.3-0.9,0.3H95.6v6.2h7.5
			c0.3,0,0.6,0.1,0.9,0.2c0.2,0.2,0.3,0.6,0.3,0.9v0.8c0,0.3-0.1,0.6-0.3,0.9c-0.2,0.2-0.6,0.3-0.9,0.3h-7.5v6.2h10.3
			c0.3,0,0.6,0.1,0.9,0.3c0.2,0.3,0.3,0.6,0.3,0.9v0.9c0,0.3-0.1,0.6-0.3,0.8c-0.3,0.2-0.6,0.3-0.9,0.3H92.7
			C92.4,549,92,548.9,91.8,548.7z"/>
		<path class="st2" d="M122.6,548.7c-0.2-0.2-0.3-0.5-0.3-0.9v-19.4c0-0.3,0.1-0.6,0.3-0.9c0.3-0.2,0.6-0.3,0.9-0.3h1.7
			c0.3,0,0.7,0.1,0.9,0.3c0.2,0.2,0.3,0.6,0.3,0.9v8h10.5v-8c0-0.3,0.1-0.6,0.3-0.9c0.3-0.2,0.6-0.3,0.9-0.3h1.7
			c0.3,0,0.7,0.1,0.9,0.3c0.2,0.2,0.3,0.6,0.3,0.9v19.4c0,0.3-0.1,0.6-0.3,0.9c-0.3,0.2-0.6,0.3-0.9,0.3h-1.7
			c-0.3,0-0.7-0.1-0.9-0.3c-0.2-0.2-0.3-0.5-0.3-0.9v-8.2h-10.5v8.2c0,0.3-0.1,0.6-0.3,0.9c-0.3,0.2-0.6,0.3-0.9,0.3h-1.7
			C123.2,549,122.9,548.9,122.6,548.7z"/>
		<path class="st2" d="M144.1,548.5c0-0.1,0-0.3,0.1-0.4l8.4-20c0.1-0.2,0.2-0.5,0.4-0.7c0.2-0.1,0.4-0.2,0.6-0.2h1.8
			c0.2,0,0.5,0,0.6,0.2c0.2,0.2,0.3,0.4,0.4,0.7l8.4,20c0.1,0.1,0.1,0.3,0.1,0.4c0,0.3-0.2,0.5-0.5,0.5h-2.8c-0.2,0-0.4,0-0.6-0.1
			c-0.2-0.1-0.3-0.3-0.3-0.5l-1.8-4.5h-8.8l-1.8,4.5c-0.1,0.2-0.2,0.3-0.3,0.5c-0.2,0.1-0.4,0.1-0.6,0.1h-2.8
			C144.3,549,144.1,548.8,144.1,548.5z M157.9,541l-3.4-8.4l-3.4,8.4H157.9z"/>
		<path class="st2" d="M168.4,548.7c-0.2-0.2-0.3-0.5-0.3-0.9v-19.4c-0.1-0.5,0.2-1.1,0.8-1.2c0.1,0,0.3,0,0.4,0h1.5
			c0.2,0,0.5,0,0.7,0.1c0.2,0.1,0.4,0.3,0.5,0.5l10.5,14.6v-14.1c0-0.3,0.1-0.6,0.3-0.9c0.3-0.2,0.6-0.3,0.9-0.3h1.7
			c0.3,0,0.7,0.1,0.9,0.3c0.2,0.2,0.3,0.6,0.3,0.9v19.4c0,0.3-0.1,0.6-0.3,0.9c-0.3,0.2-0.6,0.3-0.9,0.3h-1.5c-0.2,0-0.5,0-0.7-0.1
			c-0.2-0.1-0.4-0.3-0.5-0.5l-10.5-14.6v14c0,0.3-0.1,0.6-0.3,0.9c-0.3,0.2-0.6,0.3-0.9,0.3h-1.7C169,549,168.6,548.9,168.4,548.7z"
			/>
		<path class="st2" d="M192.7,546.5c-2-2-3-4.8-3-8.4s1-6.4,3-8.4s4.8-3,8.4-3c1.4,0,2.7,0.1,4.1,0.5c1.1,0.2,2.2,0.7,3.1,1.3
			c0.2,0.1,0.3,0.2,0.3,0.4c0,0.1-0.1,0.3-0.1,0.4l-0.9,1.6c-0.1,0.2-0.3,0.3-0.4,0.3c-0.1,0-0.3-0.1-0.4-0.2
			c-1.6-0.8-3.4-1.3-5.2-1.2c-2.1-0.1-4.2,0.6-5.7,2.1c-1.4,1.4-2.1,3.4-2.1,6.2c0,2.8,0.7,4.9,2,6.2c1.5,1.4,3.5,2.1,5.5,2
			c0.8,0,1.7-0.1,2.5-0.2c0.7-0.1,1.4-0.3,2-0.6v-5.9h-4.2c-0.3,0-0.6-0.1-0.9-0.3c-0.2-0.2-0.3-0.6-0.3-0.9v-0.8
			c0-0.3,0.1-0.6,0.3-0.8c0.3-0.2,0.6-0.3,0.9-0.2h6.7c0.4,0,0.7,0.1,1,0.3c0.2,0.3,0.3,0.6,0.3,1v8.4c0,0.2,0,0.5-0.1,0.7
			c-0.1,0.2-0.2,0.3-0.4,0.4c-2.4,1.4-5.2,2-8,1.8C197.5,549.5,194.7,548.5,192.7,546.5z"/>
		<path class="st2" d="M213,548.7c-0.2-0.2-0.3-0.5-0.3-0.9v-19.4c0-0.3,0.1-0.6,0.3-0.9c0.3-0.2,0.6-0.3,0.9-0.3h13.3
			c0.3,0,0.6,0.1,0.9,0.3c0.2,0.2,0.3,0.6,0.2,0.9v0.9c0,0.3-0.1,0.6-0.2,0.9c-0.2,0.2-0.6,0.3-0.9,0.3h-10.4v6.2h7.5
			c0.3,0,0.6,0.1,0.9,0.2c0.2,0.2,0.3,0.6,0.3,0.9v0.8c0,0.3-0.1,0.6-0.3,0.9c-0.2,0.2-0.6,0.3-0.9,0.3h-7.5v6.2h10.3
			c0.3,0,0.6,0.1,0.9,0.3c0.2,0.3,0.3,0.6,0.3,0.9v0.9c0,0.3-0.1,0.6-0.3,0.8c-0.3,0.2-0.6,0.3-0.9,0.3h-13.2
			C213.6,549,213.2,548.9,213,548.7z"/>
		<path class="st2" d="M231.4,548.7c-0.2-0.2-0.3-0.5-0.3-0.9v-19.4c0-0.3,0.1-0.6,0.3-0.9c0.3-0.2,0.6-0.3,0.9-0.3h6.4
			c3.6,0,6.3,0.9,8.2,2.6c1.9,1.7,2.9,4.5,2.9,8.3c0,7.2-3.7,10.8-11.1,10.8h-6.4C231.9,549,231.6,548.9,231.4,548.7z M238.9,545.9
			c1.9,0.1,3.7-0.5,5.1-1.8c1.1-1.2,1.7-3.2,1.7-6c0-2.8-0.6-4.8-1.7-6c-1.4-1.3-3.2-1.9-5.1-1.7h-3.7v15.5L238.9,545.9z"/>
		<path class="st2" d="M265.6,548.7c-0.2-0.2-0.3-0.5-0.3-0.9v-19.4c0-0.3,0.1-0.6,0.3-0.9c0.3-0.2,0.6-0.3,0.9-0.3h1.7
			c0.3,0,0.5,0,0.8,0.1c0.2,0.1,0.4,0.3,0.4,0.5l6.5,14.8l6.4-14.8c0.1-0.2,0.2-0.4,0.4-0.5c0.2-0.1,0.5-0.1,0.8-0.1h1.7
			c0.5-0.1,1.1,0.2,1.2,0.7c0,0.1,0,0.3,0,0.4v19.4c0.1,0.5-0.3,1.1-0.8,1.2c-0.1,0-0.2,0-0.4,0h-1.4c-0.3,0-0.7-0.1-0.9-0.3
			c-0.2-0.2-0.3-0.5-0.3-0.9v-13.8l-5.5,12.2c-0.1,0.3-0.3,0.5-0.5,0.7c-0.2,0.2-0.5,0.2-0.8,0.2c-0.3,0-0.6-0.1-0.9-0.2
			c-0.2-0.2-0.4-0.5-0.5-0.7l-5.5-12.2v13.8c0,0.3-0.1,0.6-0.3,0.9c-0.3,0.2-0.6,0.3-0.9,0.3h-1.4
			C266.2,549,265.8,548.9,265.6,548.7z"/>
		<path class="st2" d="M288.8,548.5c0-0.1,0-0.3,0.1-0.4l8.4-20c0.1-0.2,0.2-0.5,0.4-0.7c0.2-0.1,0.4-0.2,0.6-0.2h1.8
			c0.2,0,0.5,0,0.7,0.2c0.2,0.2,0.3,0.4,0.4,0.7l8.4,20c0.1,0.1,0.1,0.3,0.1,0.4c0,0.3-0.2,0.5-0.5,0.5h-2.8c-0.2,0-0.4,0-0.6-0.1
			c-0.2-0.1-0.3-0.3-0.3-0.5l-1.8-4.5h-8.8l-1.8,4.5c-0.1,0.2-0.2,0.3-0.3,0.5c-0.2,0.1-0.4,0.1-0.6,0.1h-2.8
			C289,549,288.8,548.8,288.8,548.5z M302.6,541l-3.4-8.4l-3.4,8.4H302.6z"/>
		<path class="st2" d="M313.1,548.7c-0.2-0.2-0.3-0.5-0.3-0.9v-19.4c-0.1-0.5,0.2-1.1,0.8-1.2c0.1,0,0.3,0,0.4,0h1.5
			c0.2,0,0.5,0,0.7,0.1c0.2,0.1,0.4,0.3,0.5,0.5l10.5,14.6v-14.1c0-0.3,0.1-0.6,0.3-0.9c0.3-0.2,0.6-0.3,0.9-0.3h1.7
			c0.3,0,0.7,0.1,0.9,0.3c0.2,0.2,0.3,0.6,0.3,0.9v19.4c0,0.3-0.1,0.6-0.3,0.9c-0.3,0.2-0.6,0.3-0.9,0.3h-1.5c-0.2,0-0.5,0-0.7-0.1
			c-0.2-0.1-0.4-0.3-0.5-0.5l-10.5-14.6v14c0,0.3-0.1,0.6-0.3,0.9c-0.3,0.2-0.6,0.3-0.9,0.3H314C313.7,549,313.4,548.9,313.1,548.7z
			"/>
		<g>
			<defs>
				<path id="SVGID_1_" d="M86.1,72.8h209.5c22.2,0,40.3,18,40.3,40.3v312.3c0,22.2-18,40.3-40.3,40.3H86.1
					c-22.2,0-40.3-18-40.3-40.3V113.1C45.9,90.9,63.9,72.8,86.1,72.8z"/>
			</defs>
			<clipPath id="SVGID_2_">
				<use xlink:href="#SVGID_1_"  style="overflow:visible;"/>
			</clipPath>
			<g class="st3">
				<rect x="25.3" y="15.6" class="st4" width="336" height="468.7"/>
				<g>
					<defs>
						<rect id="SVGID_3_" x="-73.7" y="43.5" width="503.7" height="346.5"/>
					</defs>
					<clipPath id="SVGID_4_">
						<use xlink:href="#SVGID_3_"  style="overflow:visible;"/>
					</clipPath>
					<g class="st5">
						<rect x="-73.7" y="43.5" class="st6" width="503.7" height="346.5"/>
						<path class="st6" d="M431.7,230.2v81.2h1.9c-16.5,37.1-43.4,68.6-77.5,90.7v-10.3h-234v6c-11-7.7-21.2-16.5-30.5-26.1
							c-80.2-83.3-77.7-215.9,5.6-296.1c19.4-18.6,42.2-33.4,67.1-43.4v9.7h162.9v-6.7c49.8,22.2,89,62.8,109.3,113.4h-4.8V230.2z"
							/>
						<path class="st7" d="M426.2,229.7c-1.4,73.9-46.8,139.9-115.4,167.5v-5.4H167.6v2.9C100,364.5,57,297,58.3,223.1
							C60.1,121.5,144,40.6,245.6,42.4S428,128.1,426.2,229.7z"/>
						<circle class="st8" cx="242.3" cy="226.4" r="158.7"/>
						<circle class="st9" cx="242.3" cy="226.4" r="133.4"/>
						<circle class="st9" cx="242.3" cy="226.4" r="108.1"/>
						<circle class="st10" cx="242.3" cy="226.4" r="86.5"/>
						<circle class="st11" cx="242.3" cy="226.4" r="64.9"/>
						<circle class="st12" cx="242.3" cy="226.4" r="43.3"/>
						
							<ellipse transform="matrix(0.1688 -0.9857 0.9857 0.1688 -21.7632 426.9628)" class="st13" cx="242.3" cy="226.4" rx="21.6" ry="21.6"/>
					</g>
				</g>
				<polygon class="st14" points="33,259.3 65.1,248.8 205.1,265.7 311.7,248.8 381.8,273.1 377.5,421.7 31.5,421.7 				"/>
				<path class="st15" d="M92,472.8l2.1-6.2c1.6-4.8,3.2-9.5,4.7-14.3c-0.2,0.1-0.3,0.3-0.5,0.4c1.7-5.5,3.3-11,5.1-16.4
					c4.8-19.3,9.1-38.7,13.1-57.6c2.3-10.8,7-25.8,7.9-36.8c-9.1,14.1-20.3,26.8-33.2,37.6c-6.4,5.4-15.5,5.2-16.6,0.3
					c-1.9-8.7-7.8-6.2-13.7-1.1c-2.5,2.8-7.1,1.1-10.5,4c-1.9,2.2-4.2,7.6-5.8,11.3c-5,11.5-8,11.4-14.2,17.5c0-6.5,7.1-18.2,9-29.7
					c2.1-12.8,9.4-15.6,14.4-17.8c11.9-5.1,38-17.5,43.5-23.8c4.4-5,16.1-17.8,21-31.2c3.8-10.4,1.6-22.4,1.5-23.5
					c0.2-5.5,9.1-16.6,9.7-22.1c1.8-16.5-12.1-20.4-9.3-29.5c4.2-13.6,2.3-22.4-2.4-21c-9,2.6-21.5,10.2-30.8,19.1
					c-3.7,7.3-6.2,14.3-7,20.8c-0.6,5.3-1,10,2.1,13.5c1.7,1.9,3.7,7.7-4,4.3c-6.8-3-11.7,3.4-15.2,11
					c-13.9,30.5-25.5,61.9-34.7,94.1c-6.2,21.9-19.8,52.6-7.1,74.5c5.8,10.1,22.6,16.5,31.8,26.1c9.9,10.3,16.8,22.8,28.8,27.7
					c2.5-7.8,5-15.7,7.7-23.5C90.3,477.9,91.2,475.4,92,472.8z"/>
				<path class="st15" d="M94.1,466.6l4.8-14.3l0,0C97.2,457.1,95.7,461.9,94.1,466.6z"/>
				<path class="st15" d="M92,472.8c-0.8,2.5-1.7,5.1-2.5,7.6L92,472.8z"/>
				<path class="st15" d="M194.5,194.4c-17-6-31.4,7.8-35.3,19.1c-3.4,10-0.9,21.7-7.6,30.5c-13.2,17.6-10.2,38.9-13.2,61.7
					c-3.5,26-4.4,52.6-5.1,58.3c-1.3,11-3.8,21.9-7.3,32.4c1.7-1.1,3.5-2.1,5.3-2.9c40.1-18.1,12.2-61.3,39.7-90.3
					c6.6-7,15.5-12.9,19.2-21.6c3.9-9.1,3.1-20.4,3.9-30.1c0.5-5.6-13.9-27.4-1.4-38.3c15-13.1,26.1,9.1,44.2,6.1
					c0.6-0.1,1.3-0.2,1.9-0.3c-6.4-5.2-13.3-9.9-20.5-14C210.6,200.8,202.7,197.2,194.5,194.4z"/>
				<path class="st15" d="M125.2,361c0.3-1.2,0.5-2.4,0.7-3.6C125.7,358.5,125.4,359.7,125.2,361z"/>
				<path class="st15" d="M127.6,349.1c0.3-1.6,0.6-3.3,0.9-5C128.1,345.8,127.9,347.5,127.6,349.1z"/>
				<path class="st15" d="M119.5,384.5c0.2-0.5,0.3-1.1,0.4-1.6C119.8,383.4,119.7,383.9,119.5,384.5z"/>
				<path class="st15" d="M129.6,337.2c0.4-2.2,0.6-4.5,0.9-6.7C130.2,332.8,130,335,129.6,337.2z"/>
				<path class="st15" d="M116.4,396.1c0.1-0.2,0.1-0.5,0.2-0.7C116.5,395.7,116.4,395.9,116.4,396.1z"/>
				<path class="st15" d="M122.5,372.7c0.2-0.8,0.4-1.7,0.6-2.5C122.9,371.1,122.7,371.9,122.5,372.7z"/>
				<path class="st15" d="M131.3,325.3c0.5-4,0.9-8,1.2-12C132.2,317.3,131.8,321.3,131.3,325.3z"/>
				<path class="st15" d="M113,407.8L113,407.8L113,407.8z"/>
				<path class="st16" d="M117.9,212.8c4.7-1.4,6.6,7.5,2.4,21c-2.8,9.1,11,13,9.3,29.5c-0.6,5.5-9.4,16.6-9.7,22.1
					c0.1,1.1,2.3,13.1-1.5,23.5c-4.9,13.4-16.5,26.2-21,31.2c-5.5,6.3-31.7,18.6-43.5,23.8c-5,2.2-12.3,4.9-14.4,17.8
					c-1.9,11.4-9,23.2-9,29.7c6.2-6.1,9.2-6,14.2-17.5c1.6-3.7,3.9-9.1,5.8-11.3c3.4-2.9,8-1.1,10.5-4c5.9-5.1,11.8-7.6,13.7,1.1
					c1.1,4.9,10.2,5.1,16.6-0.3c12.9-10.8,24.1-23.5,33.2-37.6c-0.9,11.1-5.6,26.1-7.9,36.8c-4,18.9-8.3,38.4-13.1,57.6
					c-1.8,5.4-3.4,10.9-5.1,16.4c0.2-0.1,0.4-0.3,0.5-0.4c4.9-14.8,9.7-29.6,14.2-44.5l0,0c1.2-3.9,2.3-7.7,3.4-11.6
					c0.1-0.2,0.1-0.5,0.2-0.7c1-3.7,2-7.3,3-11c0.2-0.5,0.3-1.1,0.4-1.6c0.9-3.4,1.7-6.8,2.5-10.1c0.2-0.8,0.4-1.7,0.6-2.5
					c0.7-3.1,1.4-6.2,2.1-9.3c0.3-1.2,0.5-2.4,0.7-3.6c0.6-2.7,1.1-5.5,1.7-8.2c0.3-1.6,0.6-3.3,0.9-5c0.4-2.3,0.8-4.6,1.2-6.9
					s0.6-4.5,0.9-6.7c0.2-1.7,0.5-3.5,0.7-5.2c0.5-4,0.9-8,1.2-12c2.9-33.3,3.5-66.8,5.3-100.1c0.2-3.9,0.5-20,0.6-40.6l-1-0.1
					c-19.8,16.7-39.9,39-50.3,59.4C96.4,223,108.9,215.4,117.9,212.8z"/>
				<path class="st15" d="M113,407.8L113,407.8c-4.4,14.9-9.2,29.7-14.1,44.5c9-7,15.7-26.4,23-44.5c1.6-4,3-7.8,4.2-11.5
					C121.3,399.6,116.9,403.4,113,407.8z"/>
				<path class="st15" d="M245.7,218.1c-2.5,0.3-4.8,0.5-6.9,0.8c9.9,7.7,18.7,15,30.3,19.2C261.7,231.1,253.9,224.4,245.7,218.1z"
					/>
				<path class="st15" d="M98.8,452.3L98.8,452.3c4.9-14.8,9.7-29.6,14.1-44.5C108.6,422.7,103.7,437.5,98.8,452.3z"/>
				<path class="st16" d="M138.4,172.6c-0.1,20.7-0.4,36.7-0.6,40.6c-1.8,33.3-2.4,66.8-5.3,100.1c-0.3,4-0.8,8-1.2,12
					c-0.2,1.7-0.5,3.5-0.7,5.2c-0.3,2.2-0.6,4.5-0.9,6.7s-0.8,4.6-1.2,6.9c-0.3,1.6-0.6,3.3-0.9,5c-0.5,2.7-1.1,5.5-1.7,8.2
					c-0.2,1.2-0.5,2.4-0.7,3.6c-0.7,3.1-1.4,6.2-2.1,9.3c-0.2,0.8-0.4,1.6-0.6,2.5c-0.8,3.4-1.7,6.7-2.5,10.1
					c-0.1,0.5-0.3,1.1-0.4,1.6c-1,3.7-2,7.3-3,11c-0.1,0.2-0.1,0.5-0.2,0.7c-1.1,3.9-2.2,7.8-3.3,11.6l0,0c3.8-4.3,8.2-8.2,13-11.4
					c3.5-10.5,6-21.3,7.3-32.3c0.7-5.8,1.6-32.3,5.1-58.3c3-22.8,0-44.1,13.2-61.7c6.6-8.8,4.1-20.5,7.6-30.5
					c3.9-11.3,18.3-25.1,35.3-19.1c8.2,2.9,16.1,6.4,23.8,10.6c7.2,4.1,14.1,8.8,20.5,14c2.1-0.3,4.4-0.6,6.9-0.8
					C215.4,194.8,179.7,177.5,138.4,172.6z"/>
				<path class="st15" d="M113,407.8c1.2-3.9,2.3-7.7,3.4-11.6C115.3,400,114.2,403.9,113,407.8z"/>
				<path class="st15" d="M116.6,395.5c1-3.7,2-7.3,3-11C118.6,388.2,117.6,391.8,116.6,395.5z"/>
				<path class="st15" d="M130.6,330.6c0.2-1.7,0.5-3.5,0.7-5.2C131.1,327.1,130.8,328.8,130.6,330.6z"/>
				<path class="st15" d="M125.9,357.3c0.6-2.7,1.1-5.5,1.7-8.2C127.1,351.9,126.5,354.6,125.9,357.3z"/>
				<path class="st15" d="M123.1,370.2c0.7-3.1,1.4-6.2,2.1-9.3C124.5,364,123.8,367.1,123.1,370.2z"/>
				<path class="st15" d="M128.4,344.2c0.4-2.3,0.8-4.6,1.2-6.9C129.2,339.6,128.8,341.9,128.4,344.2z"/>
				<path class="st15" d="M120,382.8c0.9-3.4,1.7-6.8,2.5-10.1C121.7,376.1,120.8,379.5,120,382.8z"/>
				<path class="st17" d="M315.8,447.4c3-5.3,22.3-21.9,22.9-25.8c2.5-17.5,17.3-23.9,6.3-38.7c-22-29.7-16.2-43.3-29.2-54.9
					c-27.3-24.6-17.8-41.3-13.2-52.7c-7.2-9.1-14.9-18-23-26.6c-3.4-3.5-6.8-7-10.4-10.4c-0.3,2-0.5,4.4-0.8,7.2
					c-1.6,16.7,5,34.7,10.2,50.9c1,3.1,2.1,6.4,2.9,9.7c4.8,11.2,7.9,22.2,17.8,31.5c8.9,8.4,11.6,14,11.5,25.4
					c-0.1,6.1-0.3,12,1.3,17.9c1.2,4.6,3.4,9,3.7,13.8c0.4,6.6-3.7,11-9.7,14.6c-17.8,10.8-40.9,12.8-59.3,23
					c-17.2,9.5-30.9,22.8-46.4,34c-10.2,14.1-15.9,28.7-20.1,47.4c1.4-0.2,2.9-0.4,4.3-0.7c41.3-8,75.2-3.1,114.5-11
					c5.9-7.9,10.9-16.4,15-25.3C319.8,464.6,308.8,459.5,315.8,447.4z"/>
				<path class="st17" d="M334.1,480.5c21-1.8,35.5-9,40.1-16.7c15.3-25.4-3.6-64-14.5-90.6c-14.4-35.1-33.6-68.1-57.2-97.9
					c-4.6,11.4-14.1,28.1,13.2,52.7c12.9,11.6,7.2,25.3,29.2,54.9c11,14.9-3.8,21.3-6.3,38.7c-0.6,3.9-19.9,20.5-22.9,25.8
					c-7,12.1,4,17.1-1.8,29.2c-4.1,8.9-9.1,17.4-15,25.3c0.8-0.1,1.5-0.3,2.3-0.4C315.3,498.5,319.1,481.8,334.1,480.5z"/>
				<path class="st15" d="M192.7,452.7c6.4-20,29.3-47,46.1-56.4c21.2-11.9,25.4-27.3,26.7-43.1c1.3-15.2,10-27.2,18.8-40.5
					c-0.9-2.2-1.8-4.5-2.8-6.7c-0.8-3.3-1.9-6.6-2.9-9.7c-5.2-16.1-11.8-34.1-10.2-50.9c0.3-2.8,0.5-5.2,0.8-7.2
					c0,0-0.1-0.1-0.1-0.1c-11.6-4.2-20.4-11.6-30.3-19.2c-0.6,0.1-1.4,0.2-1.9,0.3c-18.1,3-29.2-19.2-44.1-6.1
					c-12.5,10.9,1.9,32.7,1.4,38.3c-0.8,9.7,0,21-3.9,30.1c-3.7,8.7-12.6,14.6-19.2,21.6c-27.4,29,0.4,72.2-39.7,90.3
					c-1.8,0.8-3.6,1.8-5.3,2.9c-1.2,3.7-2.6,7.5-4.2,11.5c-7.2,18.1-14,37.5-23,44.5L94,466.6l-2,6.2l-2.5,7.6
					c-2.6,7.9-5.2,15.7-7.7,23.5c4.3,1.7,9,2.4,13.6,2.1c31.6-2,55.9,11.5,84.8,7.6c2.2-10,5.3-19.7,9.5-29
					C187.6,479.8,186.8,471.1,192.7,452.7z"/>
				<path class="st18" d="M193.9,492.2c0-0.2,0-0.4,0-0.6C193.8,492.6,193.8,492.9,193.9,492.2z"/>
				<path class="st15" d="M246.8,432.2c18.4-10.2,41.5-12.2,59.3-23c6-3.7,10.1-8.1,9.7-14.6c-0.3-4.8-2.4-9.2-3.7-13.8
					c-1.6-6-1.4-11.8-1.3-17.9c0.1-11.4-2.6-17-11.5-25.4c-7.9-7.5-11.4-16-15-24.8c-8.7,13.2-17.5,25.2-18.8,40.5
					c-1.3,15.8-5.5,31.2-26.7,43.1c-16.8,9.4-39.7,36.4-46.1,56.4c-5.9,18.3-5.1,27.1-3,31.9c2.9-6.5,6.5-12.6,10.7-18.4
					C215.9,455,229.6,441.7,246.8,432.2z"/>
				<path class="st9" d="M81.2,383.5h221c3.8,0,7,3.1,7,7v4.9c0,3.8-3.1,7-7,7h-221c-3.8,0-7-3.1-7-7v-4.9
					C74.2,386.6,77.3,383.5,81.2,383.5z"/>
				<path class="st19" d="M205,306.6c-4.5,0-8.1-3.6-8.1-8.1c0-1.1,0.2-2.1,0.6-3.1c7.6-18.1,8.3-31.4,2-39.4
					c-10.1-13-37.8-11.9-47.5-10.4c-4.4,0.5-8.5-2.6-9-7c-0.5-4.2,2.3-8.1,6.5-8.9c7.8-1.1,15.8-1.3,23.6-0.7
					c18.1,1.4,31.2,7.1,39.1,17.1c10.2,13,10.2,31.7,0.2,55.6C211.2,304.7,208.3,306.6,205,306.6z"/>
				<path class="st20" d="M185.1,207v90.8c0,4.6-3.8,8.4-8.4,8.4c-4.6,0-8.4-3.8-8.4-8.4v-92.4c0-0.1,0-0.2,0-0.3l-6.1-1.3
					c-1-0.2-2-0.8-2.7-1.5l-1.3-1.4c-1.9-2-1.7-5.2,0.3-7.1c0.9-0.9,2.1-1.3,3.4-1.3h20c2.8,0,5,2.2,5,5v5.5
					C187,204.6,186.3,206,185.1,207z"/>
				<path class="st9" d="M162.3,388.2c0,15.9,12.9,28.8,28.8,28.8c0,0,0,0,0,0l0,0c15.9,0,28.8-12.9,28.8-28.8c0,0,0,0,0,0v-84.5
					h-57.6V388.2z"/>
				<path class="st21" d="M191.1,273.4L191.1,273.4c-15.9,0-28.8,12.9-28.8,28.8l0,0v22.4l57.6-20.8v-1.6
					C219.9,286.2,207,273.4,191.1,273.4L191.1,273.4z"/>
				<path class="st19" d="M146.5,247.1l5.9-0.6c3.5-0.3,6-3.4,5.7-6.8c-0.1-0.8-0.3-1.6-0.7-2.3l-4.7-9.1c-1.6-3.1-5.4-4.3-8.4-2.7
					c-1.8,0.9-3.1,2.7-3.4,4.8l-1.2,9.7c-0.4,3.4,2,6.6,5.4,7C145.6,247.2,146.1,247.2,146.5,247.1z"/>
				<path class="st22" d="M160.9,423.4l61.6-0.3c6.4,0,11.7,5.2,11.7,11.6l0,8.1c0,6.4-5.2,11.7-11.6,11.7l-61.6,0.3
					c-6.4,0-11.7-5.2-11.7-11.6l0-8.1C149.3,428.7,154.5,423.4,160.9,423.4z"/>
				
					<rect x="167.4" y="385.8" transform="matrix(1 -4.188778e-03 4.188778e-03 1 -1.6587 0.805)" class="st20" width="47.9" height="21.1"/>
				<path class="st20" d="M219.7,427.3l-0.2-47.1c-0.1-15.6-12.8-28.2-28.4-28.2l0,0c-15.6,0.1-28.2,12.8-28.1,28.4l0.2,47.1
					L219.7,427.3z"/>
				<path class="st22" d="M159.8,423.4h6.3l-0.1-28.5l49.8-0.2l0.1,28.5h7.1l-0.1-28.5l-0.1-17.2v-1.3l0,0
					c-0.8-16.9-14.8-30.2-31.7-30.2l0,0c-17.1,0.1-31.1,13.9-31.4,31l-0.1,0.1L159.8,423.4z"/>
				<path class="st23" d="M190.5,401.7c2.6,0,4.7-2.1,4.7-4.7c0,0,0,0,0,0h-9.4C185.8,399.6,187.9,401.7,190.5,401.7
					C190.5,401.7,190.5,401.7,190.5,401.7z"/>
				<path class="st22" d="M183.4,415l-13.1,0.1c-0.9,0-1.6-0.7-1.6-1.6l0-1.1c0-0.9,0.7-1.6,1.6-1.6l13.1-0.1c0.9,0,1.6,0.7,1.6,1.6
					l0,1.1C185,414.3,184.3,415,183.4,415z"/>
				<path class="st22" d="M212.3,414.8l-13.1,0.1c-0.9,0-1.6-0.7-1.6-1.6l0-1.1c0-0.9,0.7-1.6,1.6-1.6l13.1-0.1
					c0.9,0,1.6,0.7,1.6,1.6l0,1.1C213.9,414.1,213.2,414.8,212.3,414.8z"/>
				<path class="st23" d="M182.6,406.9H173c-0.6,0-1.1-0.5-1.1-1.1l0,0c0-0.6,0.5-1.1,1.1-1.1h9.6c0.6,0,1.1,0.5,1.1,1.1l0,0
					C183.8,406.4,183.3,406.9,182.6,406.9C182.6,406.9,182.6,406.9,182.6,406.9z"/>
				<path class="st23" d="M209.1,406.9h-9.6c-0.6,0-1.1-0.5-1.1-1.1l0,0c0-0.6,0.5-1.1,1.1-1.1h9.6c0.6,0,1.1,0.5,1.1,1.1l0,0
					C210.2,406.4,209.7,406.9,209.1,406.9z"/>
				<path class="st22" d="M213.4,418.4c0-7.5,6-13.6,13.5-13.6c7.5,0,13.6,6,13.6,13.5c0,7.5-6,13.6-13.5,13.6
					C219.5,431.9,213.4,425.9,213.4,418.4C213.4,418.4,213.4,418.4,213.4,418.4z"/>
				<circle class="st22" cx="155.3" cy="418.7" r="13.5"/>
				<path class="st22" d="M156.7,433.5c0-7.4,6-13.5,13.4-13.5c7.4,0,13.5,6,13.5,13.4s-6,13.5-13.4,13.5c0,0,0,0,0,0
					C162.8,446.9,156.8,440.9,156.7,433.5z"/>
				<path class="st22" d="M177.9,433.4c0-7.4,6-13.5,13.4-13.5c7.4,0,13.5,6,13.5,13.4s-6,13.5-13.4,13.5c0,0,0,0,0,0
					C184,446.8,177.9,440.8,177.9,433.4z"/>
				<path class="st22" d="M199.4,433.3c0-7.4,6-13.5,13.4-13.5s13.5,6,13.5,13.4c0,7.4-6,13.5-13.4,13.5
					C205.4,446.7,199.4,440.7,199.4,433.3z"/>
				<path class="st24" d="M167.4,220.1h19.1c1.6,0,3,1.3,3,2.9v0.7c0,1.6-1.3,2.9-3,2.9h-19.1c-1.6,0-2.9-1.3-2.9-2.9V223
					C164.4,221.4,165.8,220.1,167.4,220.1z"/>
				<path class="st6" d="M167.4,218.8h19.1c1.6,0,3,1.3,3,2.9v0.7c0,1.6-1.3,2.9-3,2.9h-19.1c-1.6,0-2.9-1.3-2.9-2.9v-0.7
					C164.4,220.2,165.8,218.8,167.4,218.8z"/>
				<rect x="52.3" y="15.6" class="st25" width="282.1" height="468.7"/>
				<path class="st14" d="M322.9,217.8c-0.7-1.2-12.6-10-16.6-11.9c2.5,1.1,16.2,6.9,15.9,4.8c-0.3-2.3-16.6-7.7-16.6-7.7
					s17.9,4.5,16,1.7c-1-1.6-7.8-3.4-13.5-4.8c4.6,0.9,9.4,1.7,9.3,1c-0.2-1.1-5.1-3.4-13-5c4.8,0.6,9.9,1,9.4,0.1
					c-0.6-1.1-6.4-2.2-11.6-2.9c4.7,0.4,9.4,0.6,8.7-0.6s-5.6-1.9-9.5-2.1c3.2,0,6.8-0.2,6.7-1.4c-0.2-2.2-9.5-1.2-9.5-1.2
					s6.2-1,6-2.8c-0.1-1.2-3.8-0.7-6.3-0.2c2-0.5,4.4-1.3,4.4-2.3c-0.1-1.6-9.6,0.1-9.6,0.1s8.8-2.7,8-3.6s-9.9,0.1-9.9,0.1
					s7.4-2.5,7.5-2.9s-10,0.2-10,0.2s7.7-2.4,6.7-3.1s-10.8,0.5-10.8,0.5s8.3-2.1,7.3-3.5s-9,1.6-9,1.6s6-2.8,5.9-3.7
					s-8.3,1.5-8.3,1.5s6.9-2.8,6.3-3.7s-7.3,2.6-7.3,2.6s5.6-4.6,4.6-5.3s-6.6,3.3-6.6,3.3s5-4.1,4-5.2s-5.2,2.6-5.2,2.6
					s3-3.3,2.3-3.9s-3.4,2.2-3.4,2.2s2.2-2.9,1.1-3.7s-2.6,1.4-2.6,1.4s1.1-4.4-0.1-3.9c-0.7,0.4-1.4,0.9-2.1,1.4
					c0.5-1.5,0.9-2.9,1.1-4.4c5.3-1,14.4-2.9,13.8-4.1c-0.2-0.5-1.6-0.4-3.5,0c3-1.3,5.2-2.8,4.6-4.3c-0.3-0.7-1-1-2-0.9
					c1.1-1,1.7-2.1,1.4-3.1c-0.4-1.4-2.2-0.9-4.5,0.5c2.2-2.2,3.6-4.2,2.8-5.2s-2.3,0-4.2,1.6c2-2.8,3-5.1,1.7-5.8
					c-1.6-0.9-4.3,2-6.9,5.7c2.3-4.3,3.9-8.4,2.5-9.1c-1.1-0.6-2.7,1.5-4.3,4.6c1.1-3.2,1.6-5.7,0.6-5.8c-1.1-0.1-2.9,2.9-4.5,6.6
					c0.1-0.5,0.1-1,0.1-1.5c1.1-3.6,1.7-6.6,0.8-6.6s-2.5,3.2-3.8,6.7c0-0.3-0.1-0.6-0.2-0.8c0.8-3.7,1-7-0.5-6.9s-2.7,4.4-3.3,8.9
					c-0.1-0.3-0.2-0.6-0.4-0.9c-0.1-3.6-0.4-6.7-1.6-6.3s-1.5,4.2-1.5,8.3c-0.4-3.2-1-5.8-1.9-5.1c-1.8,1.3,0.6,11.5,1.7,15.5
					l-0.2,0.2l0,0l-0.5,0.6l0,0l0,0c-1.6,2-3.1,3.8-3.1,3.8c0.8-1.6,0.9-2.2,0.7-2.3c0.3-0.8,0.5-1.5,0.7-2.3
					c0.1-1.3-3.7,1.1-3.7,1.1s1.6-2,0.5-2.9s-3.2,2.1-3.2,2.1s1.9-3.4,1.1-3.9s-3.1,3.4-3.1,3.4s2.2-5.1,0.9-5.7s-3.8,5.4-3.8,5.4
					s2.1-6.5,1.1-7.2s-3.7,6-3.7,6s1.4-7.5,0.3-7.8s-1.7,7.1-1.7,7.1s-0.1-8.5-1-8.4s-1.8,6.7-1.8,6.7s0.5-8.6-1.1-9.1
					s-1.2,8.1-1.2,8.1s-1.8-9.7-2.7-10.4s-1,7.3-1,7.3s-2.3-9.8-2.8-9.6s-0.6,8-0.6,8s-1.7-8.9-2.8-9.4s-1.1,8.7-1.1,8.7
					s-1.1-9.6-2.7-9.2c-0.9,0.2-1,2.8-0.9,4.8c-0.3-2.6-0.9-6.2-2.1-6c-1.8,0.3-0.9,6.5-0.9,6.5s-1.8-9.2-4-8.7
					c-1.2,0.3-0.4,3.8,0.6,6.8c-1.4-3.6-3.4-8.1-4.9-8.5s0.3,4.1,2,8.4c-2.2-4.8-4.9-10-6.2-10.2c-1-0.2,0.9,4.5,2.9,8.9
					c-3.9-7.1-7.6-11.1-8.7-10.9c-0.7,0.1,1.5,4.4,3.8,8.6c-3-5.1-6.8-10.9-8.6-11.4c-3.2-0.9,6.4,14.8,6.4,14.8s-10.1-14-12.3-13.6
					c-2.1,0.3,7.6,11.7,9.4,13.8c-2.9-3.3-15-12.1-16.3-12.3c-1.2-0.2,10.5,11.3,14,14.8c-6.1-5.7-16.1-9.6-16.6-9.2
					s8.8,6.9,13.8,10.5c-9.1-5.6-19.2-5.3-12.2-3.4c7.9,2,18.1,10,18.1,10c-14.6-10.4-22.3-7.4-16.3-6.4c2.8,0.5,11.4,5.5,19.6,10.6
					c-0.1,0-0.2,0-0.3,0c-1.5,0.1,9.3,6.6,13.9,9.3c0.9,0.6,1.7,1.2,2.6,1.7c0.4,0.3,0.7,0.5,1.1,0.7c2.5,1.6,5.1,2.9,7.9,3.9
					c1.6,0.5,3.1,1.2,4.5,2c1.5,0.9,3,1.8,4.3,2.7c4.2,2.9,7.4,5.9,8.5,6.1c0,0.2,0,0.3,0,0.5c-0.2,0.2-0.4,0.5-0.6,0.6
					c0.4-1.5-1.1,0-2,0.9c0.3-2.6-2.6,0.5-3,2.6c-0.9,2.1-0.8,8.6,0.3,9.4l0,0c-0.3,1.6-0.7,4.6,0.4,5.2c1.1,0.6,2.3,0.8,3.6,0.9
					c0,0-0.9-2.5,2.1-7l0.1-0.1c0.1,0,0.2,0,0.3,0c0,0,2.5-3.5,4.9-4.5c1.6-0.4,5.4,0.2,5.6-0.7c0,0,0,0,0-0.1
					c1.2,0.8,2.6,1.8,4,2.9s2.5,2.1,3.9,3.3c1.2,1.1,2.3,2.4,3.3,3.7c1.8,2.3,3.8,4.5,6,6.4c0.3,0.3,0.6,0.6,1,0.9
					c0.8,0.7,1.6,1.4,2.5,2c4,3.6,13.4,12,13,10.5c0-0.1-0.1-0.2-0.1-0.3c7.3,6.3,14.6,13,15.9,15.5c2.7,5.4,3.3-2.8-11-13.7
					c0,0,10.7,7.4,15,14.3c3.8,6.2,1.2-3.6-6.9-10.6c4.9,3.7,14,10.5,14.1,10.1c0.2-0.6-7.3-9.9-15-13.8
					C303.4,208.1,323.6,219,322.9,217.8z"/>
			</g>
		</g>
	</g>
</g>
</svg>
