<?xml version="1.0" encoding="utf-8"?>
<!-- Generator: Adobe Illustrator 25.2.3, SVG Export Plug-In . SVG Version: 6.00 Build 0)  -->
<svg version="1.1" id="Layer_1" xmlns="http://www.w3.org/2000/svg" xmlns:xlink="http://www.w3.org/1999/xlink" x="0px" y="0px"
	 viewBox="0 0 381.3 619.1" style="enable-background:new 0 0 381.3 619.1;" xml:space="preserve">
<style type="text/css">
	.st0{fill:#F4B155;}
	.st1{fill:#FFF0CC;}
	.st2{fill:#231F20;}
	.st3{clip-path:url(#SVGID_2_);}
	.st4{fill:#7FD0DE;}
	.st5{fill:#A4F6FF;}
	.st6{fill:#F2889D;}
	.st7{fill:#F79389;}
	.st8{fill:#FFDE8D;}
	.st9{fill:#D2EFA5;}
	.st10{fill:#9EEFE4;}
	.st11{fill:#7881A3;}
	.st12{fill:#A08AB5;}
	.st13{fill:#FFFFFF;}
	.st14{fill:#80EAED;}
	.st15{fill:#90CD96;}
	.st16{fill:#CDD06F;}
	.st17{fill:none;}
	.st18{fill:#AFEFEF;}
	.st19{fill:#F1F2F2;}
	.st20{fill:#FFD150;}
	.st21{fill:#F5B155;}
	.st22{fill:#FFD351;}
	.st23{fill:#414042;}
	.st24{fill:#E6E7E8;}
	.st25{fill:#D1D3D4;}
	.st26{fill:#3A335F;}
	.st27{fill:#87AF8A;}
	.st28{fill:#4A2D63;}
	.st29{clip-path:url(#SVGID_4_);}
	.st30{clip-path:url(#SVGID_6_);}
	.st31{fill:#3C2A4F;}
	.st32{fill:#602C60;}
	.st33{clip-path:url(#SVGID_8_);}
	.st34{clip-path:url(#SVGID_10_);}
</style>
<g id="Layer_2_1_">
	<g id="Layer_1-2">
		<path class="st0" d="M381.8,23.5v572.2c0,12.9-10.9,23.5-24.4,23.5h-333C10.9,619.1,0,608.6,0,595.7V23.5C0,10.5,10.9,0,24.4,0
			h333C370.8,0,381.8,10.5,381.8,23.5z M361.3,582.1v-545c0-9.7-7.9-17.6-17.6-17.6H38c-9.7,0-17.5,7.9-17.5,17.6v545
			c0,9.7,7.9,17.5,17.5,17.5h305.7C353.4,599.6,361.3,591.8,361.3,582.1z"/>
		<path class="st1" d="M38,19.5h305.7c9.7,0,17.6,7.9,17.6,17.6v545c0,9.7-7.9,17.6-17.6,17.6H38c-9.7,0-17.6-7.9-17.6-17.6v-545
			C20.5,27.4,28.3,19.5,38,19.5z"/>
		<path class="st2" d="M93.2,552.4c-0.2-0.2-0.3-0.5-0.3-0.9v-17.4h-5.6c-0.3,0-0.6-0.1-0.9-0.3c-0.2-0.2-0.3-0.6-0.2-0.9v-0.9
			c0-0.3,0.1-0.6,0.2-0.9c0.2-0.2,0.6-0.3,0.9-0.3h15.2c0.3,0,0.6,0.1,0.9,0.3c0.2,0.3,0.3,0.6,0.2,0.9v0.8c0,0.3-0.1,0.6-0.2,0.9
			c-0.2,0.2-0.6,0.3-0.9,0.3h-5.6v17.4c0,0.3-0.1,0.6-0.3,0.9c-0.3,0.2-0.6,0.3-0.9,0.3h-1.7C93.7,552.7,93.4,552.6,93.2,552.4z"/>
		<path class="st2" d="M106.4,552.4c-0.2-0.2-0.3-0.5-0.3-0.9v-19.4c0-0.3,0.1-0.6,0.3-0.9c0.3-0.2,0.6-0.3,0.9-0.3h13.3
			c0.3,0,0.6,0.1,0.9,0.3c0.2,0.2,0.3,0.6,0.2,0.9v0.9c0,0.3-0.1,0.6-0.2,0.9c-0.2,0.2-0.6,0.3-0.9,0.3h-10.4v6.2h7.5
			c0.3,0,0.6,0.1,0.9,0.2c0.2,0.2,0.3,0.6,0.2,0.9v0.8c0,0.3-0.1,0.6-0.2,0.9c-0.3,0.2-0.6,0.3-0.9,0.3h-7.5v6.2h10.3
			c0.3,0,0.6,0.1,0.9,0.3c0.2,0.3,0.3,0.6,0.2,0.9v0.9c0,0.3-0.1,0.6-0.2,0.8c-0.3,0.2-0.6,0.3-0.9,0.3h-13.2
			C107,552.7,106.7,552.6,106.4,552.4z"/>
		<path class="st2" d="M124.8,552.4c-0.2-0.2-0.3-0.5-0.3-0.9v-19.4c-0.1-0.5,0.2-1.1,0.8-1.2c0.1,0,0.3,0,0.4,0h1.7
			c0.3,0,0.5,0,0.8,0.1c0.2,0.1,0.4,0.3,0.4,0.5l6.4,14.8l6.4-14.8c0.1-0.2,0.2-0.4,0.4-0.5c0.3-0.1,0.5-0.1,0.8-0.1h1.7
			c0.5-0.1,1.1,0.2,1.2,0.7c0,0.1,0,0.3,0,0.4v19.4c0.1,0.5-0.3,1.1-0.8,1.2c-0.1,0-0.2,0-0.4,0h-1.4c-0.3,0-0.7-0.1-0.9-0.3
			c-0.2-0.2-0.3-0.5-0.3-0.9v-13.8l-5.5,12.2c-0.1,0.3-0.3,0.5-0.5,0.7c-0.2,0.2-0.5,0.2-0.8,0.2c-0.3,0-0.6-0.1-0.9-0.2
			c-0.2-0.2-0.4-0.5-0.5-0.7l-5.5-12.2v13.8c0,0.3-0.1,0.6-0.3,0.9c-0.3,0.2-0.6,0.3-0.9,0.3h-1.4
			C125.4,552.8,125.1,552.6,124.8,552.4z"/>
		<path class="st2" d="M149.8,552.4c-0.2-0.2-0.3-0.5-0.3-0.9v-19.4c0-0.3,0.1-0.6,0.3-0.9c0.3-0.2,0.6-0.3,0.9-0.3h8.2
			c2.6,0,4.6,0.6,5.8,1.9c1.3,1.4,2,3.4,1.9,5.3c0.1,2-0.6,3.9-1.9,5.3c-1.3,1.2-3.2,1.8-5.8,1.8h-5.3v6.2c0,0.3-0.1,0.6-0.3,0.9
			c-0.3,0.2-0.6,0.3-0.9,0.3h-1.7C150.3,552.7,150,552.6,149.8,552.4z M158.6,542.3c1.1,0.1,2.1-0.3,2.9-1c0.7-0.8,1-1.9,0.9-3
			c0.1-1.1-0.3-2.2-0.9-3.1c-0.8-0.7-1.8-1.1-2.9-1h-5.1v8.1L158.6,542.3z"/>
		<path class="st2" d="M169.3,552.4c-0.2-0.2-0.3-0.5-0.3-0.9v-19.4c0-0.3,0.1-0.6,0.3-0.9c0.3-0.2,0.6-0.3,0.9-0.3h13.3
			c0.3,0,0.6,0.1,0.9,0.3c0.2,0.2,0.3,0.6,0.2,0.9v0.9c0,0.3-0.1,0.6-0.2,0.9c-0.2,0.2-0.6,0.3-0.9,0.3h-10.4v6.2h7.5
			c0.3,0,0.6,0.1,0.9,0.2c0.2,0.2,0.3,0.6,0.2,0.9v0.8c0,0.3-0.1,0.6-0.2,0.9c-0.3,0.2-0.6,0.3-0.9,0.3h-7.5v6.2h10.3
			c0.3,0,0.6,0.1,0.9,0.3c0.2,0.3,0.3,0.6,0.2,0.9v0.9c0,0.3-0.1,0.6-0.2,0.8c-0.3,0.2-0.6,0.3-0.9,0.3h-13.2
			C169.9,552.7,169.6,552.6,169.3,552.4z"/>
		<path class="st2" d="M187.7,552.4c-0.2-0.2-0.3-0.5-0.3-0.9v-19.4c0-0.3,0.1-0.6,0.3-0.9c0.3-0.2,0.6-0.3,0.9-0.3h8.3
			c2-0.1,4,0.5,5.6,1.7c1.4,1.3,2.1,3.2,1.9,5.1c0,1.3-0.3,2.7-1.1,3.8c-0.7,1.1-1.8,1.9-3.1,2.4l3.5,7.8c0.1,0.1,0.1,0.2,0.1,0.3
			c0,0.3-0.2,0.5-0.6,0.5h-2.6c-0.2,0-0.4,0-0.6-0.1c-0.2-0.1-0.3-0.3-0.4-0.5l-3.2-7.6h-5.1v7c0,0.3-0.1,0.6-0.3,0.9
			c-0.3,0.2-0.6,0.3-0.9,0.3h-1.7C188.3,552.7,187.9,552.6,187.7,552.4z M196.1,541.5c1.2,0.1,2.3-0.2,3.3-0.9
			c0.8-0.7,1.1-1.8,1.1-2.8c0.1-1-0.3-2.1-1-2.8c-0.8-0.7-1.9-1-2.9-0.9h-5v7.4H196.1z"/>
		<path class="st2" d="M205.5,552.2c0-0.1,0-0.3,0.1-0.4l8.4-20c0.1-0.2,0.2-0.5,0.4-0.7c0.2-0.1,0.4-0.2,0.6-0.2h1.8
			c0.2,0,0.5,0,0.7,0.2c0.2,0.2,0.3,0.4,0.4,0.7l8.4,20c0.1,0.1,0.1,0.3,0.1,0.4c0,0.3-0.2,0.5-0.6,0.5h-2.8c-0.2,0-0.4,0-0.6-0.1
			c-0.2-0.1-0.3-0.3-0.3-0.5l-1.8-4.5h-8.8l-1.8,4.5c-0.1,0.2-0.2,0.3-0.3,0.5c-0.2,0.1-0.4,0.1-0.6,0.1h-2.8
			C205.7,552.7,205.5,552.5,205.5,552.2z M219.3,544.7l-3.3-8.4l-3.4,8.4L219.3,544.7z"/>
		<path class="st2" d="M229.8,552.4c-0.2-0.2-0.3-0.5-0.3-0.9v-19.4c-0.1-0.5,0.2-1.1,0.8-1.2c0.1,0,0.3,0,0.4,0h1.5
			c0.2,0,0.5,0,0.7,0.1c0.2,0.1,0.4,0.3,0.5,0.5l10.6,14.6v-14.1c0-0.3,0.1-0.6,0.3-0.9c0.3-0.2,0.6-0.3,0.9-0.3h1.7
			c0.3,0,0.7,0.1,0.9,0.3c0.2,0.2,0.3,0.6,0.3,0.9v19.4c0,0.3-0.1,0.6-0.3,0.9c-0.3,0.2-0.6,0.3-0.9,0.3h-1.5
			c-0.5,0.1-1-0.2-1.2-0.6l-10.5-14.6v14c0,0.3-0.1,0.6-0.3,0.9c-0.3,0.2-0.6,0.3-0.9,0.3h-1.7C230.4,552.7,230.1,552.6,229.8,552.4
			z"/>
		<path class="st2" d="M254.2,550.2c-2-2-3-4.8-3-8.4s1-6.4,2.9-8.4s4.7-2.9,8.3-2.9c1.3,0,2.7,0.1,4,0.4c1.1,0.2,2.2,0.7,3.1,1.3
			c0.2,0.1,0.3,0.3,0.3,0.4c0,0.2-0.1,0.3-0.2,0.5l-0.9,1.5c-0.1,0.2-0.2,0.3-0.4,0.3c-0.2,0-0.3-0.1-0.4-0.2
			c-1.6-0.9-3.3-1.3-5.1-1.2c-2.1-0.1-4.1,0.6-5.6,2.1c-1.4,1.4-2,3.5-2,6.2s0.7,4.9,2.1,6.3c1.5,1.4,3.6,2.2,5.7,2.1
			c1.9,0.1,3.8-0.4,5.5-1.2c0.1-0.1,0.3-0.1,0.4-0.2c0.1,0,0.2,0.1,0.4,0.3l1,1.7c0.1,0.1,0.1,0.2,0.1,0.3c0,0.1-0.1,0.3-0.4,0.4
			c-1.6,1.2-4.1,1.7-7.4,1.7C258.9,553.2,256.1,552.2,254.2,550.2z"/>
		<path class="st2" d="M273.7,552.4c-0.2-0.2-0.3-0.5-0.3-0.9v-19.4c0-0.3,0.1-0.6,0.3-0.9c0.3-0.2,0.6-0.3,0.9-0.3h13.3
			c0.3,0,0.6,0.1,0.9,0.3c0.2,0.2,0.3,0.6,0.2,0.9v0.9c0,0.3-0.1,0.6-0.2,0.9c-0.2,0.2-0.6,0.3-0.9,0.3h-10.4v6.2h7.5
			c0.3,0,0.6,0.1,0.9,0.2c0.2,0.2,0.3,0.6,0.3,0.9v0.8c0,0.3-0.1,0.6-0.3,0.9c-0.2,0.2-0.6,0.3-0.9,0.3h-7.5v6.2h10.3
			c0.3,0,0.6,0.1,0.9,0.3c0.2,0.3,0.3,0.6,0.3,0.9v0.9c0,0.3-0.1,0.6-0.3,0.8c-0.3,0.2-0.6,0.3-0.9,0.3h-13.2
			C274.3,552.7,273.9,552.6,273.7,552.4z"/>
		<path class="st2" d="M291.6,540.5c-0.3-0.3-0.4-0.7-0.4-1.2v-0.7c0-0.4,0.1-0.9,0.4-1.2c0.3-0.3,0.7-0.5,1.1-0.5h0.7
			c0.4,0,0.8,0.2,1.1,0.5c0.3,0.3,0.4,0.7,0.4,1.2v0.7c0,0.4-0.2,0.8-0.5,1.2c-0.3,0.3-0.7,0.5-1.1,0.5h-0.7
			C292.3,541,291.9,540.8,291.6,540.5z M291.6,552.2c-0.3-0.3-0.4-0.7-0.4-1.2v-0.7c0-0.4,0.1-0.9,0.4-1.2c0.3-0.3,0.7-0.5,1.1-0.5
			h0.7c0.4,0,0.8,0.2,1.1,0.5c0.3,0.3,0.4,0.7,0.4,1.2v0.7c0,0.4-0.2,0.8-0.5,1.2c-0.3,0.3-0.7,0.5-1.1,0.5h-0.7
			C292.3,552.7,291.9,552.5,291.6,552.2z"/>
		<g>
			<defs>
				<path id="SVGID_1_" d="M86.1,71.3h209.5c22.2,0,40.3,18,40.3,40.3v312.3c0,22.2-18,40.3-40.3,40.3H86.1
					c-22.2,0-40.3-18-40.3-40.3V111.5C45.9,89.3,63.9,71.3,86.1,71.3z"/>
			</defs>
			<clipPath id="SVGID_2_">
				<use xlink:href="#SVGID_1_"  style="overflow:visible;"/>
			</clipPath>
			<g class="st3">
				<rect x="36.7" y="-31.8" class="st4" width="303" height="503.3"/>
				<rect x="36.7" y="-31.8" class="st5" width="303" height="503.3"/>
				<path class="st6" d="M312.3,55.1c-112.8,0-204.2,91.4-204.2,204.2s91.4,204.2,204.2,204.2s204.2-91.4,204.2-204.2
					S425.1,55.1,312.3,55.1z M312.3,439.2c-99.4,0-179.9-80.5-179.9-179.9S213,79.4,312.3,79.4s179.9,80.5,179.9,179.9
					S411.7,439.2,312.3,439.2L312.3,439.2z"/>
				<path class="st7" d="M312.3,79.4c-99.4,0-179.9,80.5-179.9,179.9S213,439.2,312.3,439.2s179.9-80.5,179.9-179.9
					S411.7,79.4,312.3,79.4L312.3,79.4z M312.3,412.5c-84.6,0-153.2-68.6-153.2-153.2c0-84.6,68.6-153.2,153.2-153.2
					s153.2,68.6,153.2,153.2l0,0C465.5,343.9,396.9,412.5,312.3,412.5z"/>
				<path class="st8" d="M312.3,106.1c-84.6,0-153.2,68.6-153.2,153.2s68.6,153.2,153.2,153.2s153.2-68.6,153.2-153.2
					S396.9,106.1,312.3,106.1C312.3,106.1,312.3,106.1,312.3,106.1z M312.3,390.6c-72.5,0-131.3-58.8-131.3-131.3
					S239.8,128,312.3,128s131.3,58.8,131.3,131.3c0,0,0,0,0,0C443.6,331.8,384.9,390.6,312.3,390.6
					C312.3,390.6,312.3,390.6,312.3,390.6z"/>
				<path class="st9" d="M312.3,128c-72.5,0-131.3,58.8-131.3,131.3s58.8,131.3,131.3,131.3s131.3-58.8,131.3-131.3
					S384.8,128,312.3,128L312.3,128z M312.3,368.7c-60.4,0-109.4-49-109.4-109.4s49-109.4,109.4-109.4s109.4,49,109.4,109.4
					c0,0,0,0,0,0C421.7,319.7,372.8,368.7,312.3,368.7z"/>
				<path class="st10" d="M312.3,149.9c-60.4,0-109.4,49-109.4,109.4s49,109.4,109.4,109.4s109.4-49,109.4-109.4
					S372.8,149.9,312.3,149.9L312.3,149.9z M312.3,349.2c-49.7,0-90-40.3-90-90c0-49.7,40.3-90,90-90s90,40.3,90,90c0,0,0,0,0,0
					C402.3,309,362,349.2,312.3,349.2z"/>
				<path class="st11" d="M312.3,169.3c-49.7,0-90,40.3-90,90s40.3,90,90,90s90-40.3,90-90S362,169.3,312.3,169.3
					C312.3,169.3,312.3,169.3,312.3,169.3z M312.3,327.3c-37.6,0-68.1-30.5-68.1-68.1s30.5-68.1,68.1-68.1s68.1,30.5,68.1,68.1
					c0,0,0,0,0,0C380.4,296.9,350,327.3,312.3,327.3C312.4,327.4,312.4,327.4,312.3,327.3L312.3,327.3z"/>
				<path class="st12" d="M312.3,191.2c-37.6,0-68.1,30.5-68.1,68.1s30.5,68.1,68.1,68.1c37.6,0,68.1-30.5,68.1-68.1c0,0,0,0,0,0
					C380.4,221.7,349.9,191.2,312.3,191.2C312.3,191.2,312.3,191.2,312.3,191.2z M312.3,307.9c-26.9,0-48.6-21.8-48.6-48.7
					s21.8-48.6,48.7-48.6c26.8,0,48.6,21.8,48.6,48.6C361,286.1,339.2,307.9,312.3,307.9C312.4,307.9,312.4,307.9,312.3,307.9z"/>
				<path class="st13" d="M185.8,271.8h-136C25.6,271.7,6.1,252.1,6,227.9l0,0c0.1-24.2,19.7-43.8,43.9-43.9h136
					c24.2,0.1,43.8,19.7,43.9,43.9l0,0C229.7,252.1,210.1,271.7,185.8,271.8z"/>
				<path class="st13" d="M299.1,271.8h-129c-12.7-0.1-23-10.4-23-23.1l0,0c0-12.7,10.3-23,23-23.1h129c12.7,0,23,10.3,23.1,23.1
					l0,0C322.1,261.4,311.8,271.8,299.1,271.8z"/>
				<rect x="24.7" y="353.7" class="st14" width="320.6" height="127.4"/>
				<rect x="33.4" y="283.4" class="st15" width="311.8" height="109.8"/>
				<rect x="33.4" y="261.5" class="st16" width="311.8" height="109.8"/>
				<rect x="36.7" y="-31.8" class="st17" width="303" height="503.3"/>
				<path class="st18" d="M282.5,457.5h-65.9c-3.6,0-6.6-2.9-6.6-6.5l0,0c0-3.6,3-6.6,6.6-6.6h65.9c3.6,0,6.6,3,6.6,6.6l0,0
					C289,454.6,286.1,457.5,282.5,457.5z"/>
				<path class="st18" d="M318.3,428.3h-55.6c-3.2,0-5.9-2.6-5.9-5.9l0,0c0-3.2,2.6-5.8,5.9-5.9h55.6c3.2,0,5.8,2.6,5.9,5.9l0,0
					C324.2,425.6,321.6,428.2,318.3,428.3z"/>
				<path class="st19" d="M178,200.7c-5.1-23.7-19.6-39.8-46.1-33.2s-31.1,46.9-37.2,64.8s-18.2,70-38.5,80.8s17.5,23.2,44.9,4.1
					c0,0-0.6,19.1-4.9,22.8s32.5,4.5,44.5-50.9c0,0,1,20.1,3.4,22.1s15-16.1,16.7-30.9c0,0,1.6,14.7,5.3,13.8S193.4,271.6,178,200.7
					z"/>
				<path class="st20" d="M150.3,408.5V303.3c0-5.4,4.4-9.7,9.7-9.7s9.7,4.4,9.7,9.7v107c0,0.1,0,0.2,0,0.3l7.1,1.5
					c1.2,0.3,2.3,0.9,3.1,1.8l1.5,1.6c2.2,2.4,2,6.1-0.4,8.2c-1.1,1-2.5,1.5-3.9,1.5h-23.2c-3.2,0-5.8-2.6-5.8-5.8v-6.3
					C148.1,411.4,148.9,409.6,150.3,408.5z"/>
				<path class="st21" d="M175,388.2V282.9c0-5.4,4.4-9.7,9.7-9.7s9.7,4.4,9.7,9.7v107c0,0.1,0,0.2,0,0.3l7.1,1.5
					c1.2,0.3,2.3,0.9,3.1,1.8l1.5,1.6c2.2,2.4,2,6.1-0.4,8.2c-1.1,1-2.5,1.5-3.9,1.5h-23.2c-3.2,0-5.8-2.6-5.8-5.8v-6.3
					C172.7,391,173.6,389.3,175,388.2z"/>
				<path class="st22" d="M175.6,197.2L175.6,197.2c3.4,0,6.2-2.8,6.2-6.2v-11.3c0-3.4-2.8-6.2-6.2-6.2l0,0c-3.4,0-6.2,2.8-6.2,6.2
					V191C169.4,194.4,172.2,197.2,175.6,197.2z"/>
				<path class="st23" d="M144.6,111.9c-3.8,1.5-7.1,3.8-9.9,6.8c-18.6,18.6-15.5,43.1-22.6,66.1c-4.3,14.1-20.2,49.6-38.2,49.6
					c-5.5,0-11,0.4-16.5,1.2c4.5,0.3,8.9,2,12.4,4.8c9.9,7.6,15.1,19.7,26.3,25.7c11,5.9,24.2,6.7,36.4,5.3c8.8-1,17.4-4.1,26.3-4.3
					c7.9-0.2,14.6,4,22.3,4.8c5,0.5,10.3-0.6,14-3.9c10.6-9.5,9.4-28.4,8.9-41.2c-0.7-17.1-1.6-34.4,6-50.4
					c7-14.6,17.6-27.2,21.2-43.3c0,0,2.1-9.2,2.1-9.4c2.8-12.1-54.9-11.6-59.8-11.9C162.1,110.9,153.2,108.6,144.6,111.9z"/>
				<path class="st21" d="M225.1,218.2c-19,0-37.5-10-38.6-10.6c-3.9-2.2-5.3-7.2-3-11.1c2.2-3.8,7-5.2,10.9-3.2
					c7.6,4.2,30.1,13.3,42.9,5.7c7.7-4.6,11.6-15.2,11.6-31.6c-0.2-4.5,3.4-8.3,7.9-8.4c4.5-0.2,8.3,3.4,8.4,7.9c0,0.2,0,0.4,0,0.6
					c0,22.6-6.6,38-19.6,45.7C239.4,216.6,232.3,218.4,225.1,218.2z"/>
				<path class="st24" d="M214.7,193.4c-7.2-6.5-18.2-6-24.8,1.1l0,0c-6.5,7.2-6,18.2,1.1,24.8l8.5,7.8l23.7-25.9L214.7,193.4z"/>
				<path class="st22" d="M168.1,190.7l-5-32.8l27.1,13.5c0,0-6.5,10.2-4.8,20.6"/>
				<path class="st13" d="M211.1,342.9L214,227c0-12.7-6.1-24.6-16.4-31.9c-0.4-0.3-0.8-0.6-1.3-0.9c-2.3-1.5-4.8-2.8-7.4-3.8
					c6.8,9.3,5.6,22.2,5.6,22.2h-27.3c2.4-7.9,0.8-16.5-4.2-23c-0.7,0.2-1.3,0.4-2,0.7c-1.8,0.7-3.5,1.4-5.1,2.3
					c-12.6,6.9-20.4,20.1-20.4,34.5l-19.7,177.2"/>
				<path class="st22" d="M167.1,212.5h27.4c0,0,1.2-12.8-5.6-22.2c-8.3-3.2-17.5-3.5-26-0.8C168,196,169.5,204.6,167.1,212.5z"/>
				<path class="st24" d="M195.2,240.6l-0.1,14.2c-0.1,6.6,4.6,12.4,11.2,13.6v10.2l-5.6,4c0,0,1.4,1.2,7.8,1.2l0,0
					c6.4,0,7.9-1.2,7.9-1.2l-5.6-3.9v-10.4c6.4-1.2,11.1-6.8,11.1-13.4l0.1-14.1L195.2,240.6z"/>
				<path class="st25" d="M222,240.6c-0.1,2-6.2,3.5-13.7,3.2s-13.5-2.2-13.4-4.2s6.2-3.5,13.7-3.2S222,238.6,222,240.6z"/>
				<path class="st21" d="M204.3,285.6c-26.9,0-48-12.5-60.8-36.1c-5.8-10.9-9.5-22.8-11-35c-0.4-4.8,3.1-9.1,8-9.6s9.1,3.1,9.6,8
					l0,0c0.2,2.2,5.7,55.1,54.3,55.1c4.9,0.2,8.7,4.2,8.5,9.1C212.7,281.8,208.9,285.5,204.3,285.6L204.3,285.6z"/>
				<path class="st22" d="M204.3,282.5c-26.9,0-48-12.5-60.8-36.1c-5.8-10.9-9.5-22.8-11-35c-0.4-4.8,3.1-9.1,8-9.6s9.1,3.1,9.6,8
					l0,0c0.2,2.2,5.7,55.1,54.3,55.1c4.9,0.2,8.7,4.2,8.5,9.1C212.7,278.6,208.9,282.3,204.3,282.5L204.3,282.5z"/>
				<path class="st13" d="M163.7,209.6c-1.5-9.5-10.4-16.1-20-14.6l0,0c-9.6,1.5-16.1,10.4-14.7,20l1.8,11.4l34.7-5.4L163.7,209.6z"
					/>
				<path class="st22" d="M238.2,188.1l12.9-5.4c6.1-2.6,9.5-9.1,8-15.6l9.3-3.9l5.8,3.7c0,0,0.5-1.8-2-7.7l0,0
					c-2.5-5.9-4.2-6.9-4.2-6.9l-1.4,6.7l-9.4,4c-3.5-5.5-10.5-7.6-16.5-5.1l-12.9,5.3L238.2,188.1z"/>
				<path class="st21" d="M228.1,162.6c1.9-0.8,5.9,4.1,8.8,11.1s3.8,13.2,1.9,14s-5.8-4.1-8.8-11S226.2,163.4,228.1,162.6z"/>
				<path class="st14" d="M239.4,181.3c0,0-35.4,9.4-35.2,62.2c5.5,0.5,11.1,0,16.4-1.4c0,0,0-40.6,18.1-54.4
					C238.8,187.8,240.8,187.4,239.4,181.3z"/>
				<path class="st13" d="M131,296.8c-2.3,10.4-5.2,20.7-8.3,30.9c-6.2,20.5-13.7,40.8-23.9,59.7c-4.7,8.6-10,17-16.6,24.4
					c-2.9,3.2-6,6.1-9.5,8.7c-4.2,3-9.4,5.2-13.3,8.5c-5.9,5,2.5,8.5,6.7,9.7c8,2.3,16.9,2,25.1,0.8c2-0.3,3.7-1.5,5.7-1.8
					c5.7-0.8,9,7.6,15.1,7.9c3.3,0.2,6.5-1.5,9.7-2.1c5-1,9,1.5,13.3,3.6c3.4,1.7,7.1,2.4,10.6,3.7c3.9,1.4,7.4,1,11.4,0.6
					c5.2-0.5,10.3-1.3,15.4-2.4c5.1-1.1,10.5,3,15.3,0.1c3.4-2,6.2-3,10.4-2.2c3.1,0.6,6,2.6,9.1,3.6c3.7,1.2,6.9-0.2,10.5-1.2
					c4.2-1.1,8.9-1.4,11.8,2.5l9.4-2c-23.4-17-27.8-79.3-27.8-106.9"/>
				<path class="st22" d="M207.5,155.8c-0.8,3.8,1.6,7.4,5.4,8.2c3.8,0.8,7.4-1.6,8.2-5.4c0.8-3.7-1.6-7.4-5.4-8.2
					C211.9,149.6,208.3,152,207.5,155.8z"/>
				<path class="st21" d="M209.9,156.2c-0.5,2.4,1.1,4.8,3.5,5.3c2.4,0.5,4.8-1.1,5.3-3.5c0.5-2.4-1.1-4.8-3.5-5.3
					C212.8,152.3,210.4,153.8,209.9,156.2z"/>
				<path class="st21" d="M179.4,182.4L179.4,182.4c16.8,3.4,33.2-7.3,36.8-24.1l2.6-12.7c3.4-16.8-7.3-33.2-24.1-36.8l0,0
					c-16.8-3.4-33.2,7.3-36.8,24.1l-2.6,12.7C151.8,162.5,162.6,178.9,179.4,182.4z"/>
				<path class="st22" d="M179.8,180.3L179.8,180.3c16.8,3.4,33.2-7.3,36.8-24.1l2.6-12.7c3.4-16.8-7.3-33.2-24.1-36.8l0,0
					c-16.8-3.4-33.2,7.3-36.8,24.1l-2.6,12.7C152.2,160.4,163,176.8,179.8,180.3z"/>
				<path class="st21" d="M192.6,157.9l2.3,0.5c0.2-1.3-0.6-2.5-1.9-2.7c-1.2-0.2-2.4,0.5-2.7,1.7L192.6,157.9z"/>
				<circle class="st23" cx="182.8" cy="110" r="26.4"/>
				<path class="st23" d="M220.4,116.9l14.3,23.3c-12.9,7.9-29.7,3.9-37.6-9c-7.3-11.8-4.5-27.3,6.5-35.8L220.4,116.9z"/>
				<path class="st23" d="M225,132.5l-70.6-14.7c-7.3-1.5-12-8.7-10.5-16l0,0c1.5-7.3,8.7-12,16-10.5l70.6,14.7
					c7.3,1.5,12,8.7,10.5,16l0,0C239.5,129.4,232.3,134,225,132.5z"/>
				<path class="st23" d="M154.4,145L154.4,145c-3.1-0.7-5.1-3.7-4.4-6.8l3.7-18c0.6-3.1,3.7-5.1,6.8-4.4l0,0
					c3.1,0.6,5.1,3.7,4.4,6.8l-3.7,18C160.5,143.6,157.5,145.6,154.4,145z"/>
				<path class="st22" d="M148.8,143.8c-0.8,3.8,1.6,7.4,5.4,8.2c3.8,0.8,7.4-1.6,8.2-5.4c0.8-3.7-1.6-7.4-5.4-8.2
					C153.2,137.6,149.6,140,148.8,143.8C148.8,143.8,148.8,143.8,148.8,143.8z"/>
				<path class="st21" d="M151.2,144.3c-0.5,2.4,1.1,4.8,3.5,5.3c2.4,0.5,4.8-1.1,5.3-3.5c0.5-2.4-1.1-4.8-3.5-5.3
					C154.1,140.3,151.7,141.9,151.2,144.3z"/>
				<path class="st23" d="M223.8,108.2l-22.8-4.7c-2.8-0.6-4.6-3.3-4-6.1l0,0c0.6-2.8,3.3-4.6,6.1-4l22.7,4.7c2.8,0.6,4.6,3.3,4,6.1
					l0,0C229.2,107,226.5,108.8,223.8,108.2z"/>
				<path class="st21" d="M195.4,169.3c-11.2-2.3-15.6-5.3-15.8-5.4c-0.4-0.3-0.5-0.8-0.2-1.3c0,0,0,0,0,0c0.3-0.4,0.8-0.5,1.3-0.2
					c0.1,0.1,5.4,3.5,18.8,5.8c0.5,0.1,0.8,0.5,0.8,1c0,0,0,0,0,0.1c-0.1,0.5-0.6,0.8-1.1,0.8C197.8,169.8,196.6,169.6,195.4,169.3z
					"/>
				<path class="st26" d="M184.3,150.9c-0.5,2.6-3.1,4.3-5.8,3.8s-4.3-3.1-3.8-5.8c0.5-2.6,3.1-4.3,5.8-3.8
					C183.2,145.7,184.9,148.3,184.3,150.9C184.3,150.9,184.3,150.9,184.3,150.9z"/>
				<path class="st26" d="M212,156.7c-0.5,2.2-2.7,3.7-4.9,3.2c-2.2-0.5-3.7-2.7-3.2-4.9c0.5-2.2,2.7-3.7,4.9-3.2
					C211,152.2,212.5,154.4,212,156.7C212,156.7,212,156.7,212,156.7z"/>
				<path class="st23" d="M168.5,146c-0.4-0.1-0.7-0.3-1-0.6c-0.7-0.7-0.6-1.9,0.1-2.6c0,0,0,0,0,0c3.3-3,11.6-7.3,19.5-2.3
					c0.9,0.5,1.2,1.6,0.7,2.5c-0.5,0.9-1.6,1.2-2.5,0.7c-0.1,0-0.1-0.1-0.2-0.1c-7.6-4.7-14.8,1.6-15.1,1.9
					C169.6,145.9,169,146.1,168.5,146z"/>
				<path class="st23" d="M201.6,149.2c-0.4-0.1-0.7-0.3-0.9-0.7c-0.4-0.6-0.2-1.5,0.5-1.9c0,0,0,0,0,0c6.3-3.6,12.6,0,15.1,2.4
					c0.6,0.5,0.6,1.4,0,2s-1.4,0.6-2,0l0,0l0,0c-0.2-0.2-5.7-5.4-11.8-1.9C202.3,149.2,202,149.3,201.6,149.2z"/>
				<path class="st22" d="M185.3,302.2c-39.2,0-60.8-10.3-61.8-10.9c-2.7-1.4-3.8-4.7-2.5-7.4c1.3-2.7,4.6-3.8,7.3-2.5
					c0.5,0.3,30.8,14.5,84.5,8.1c3-0.4,5.8,1.8,6.1,4.8s-1.8,5.8-4.8,6.1C204.5,301.6,194.9,302.2,185.3,302.2z"/>
				<path class="st27" d="M11.4,422.8h156.4c17,0,30.8,13.8,30.8,30.8v6.6c0,17-13.8,30.8-30.8,30.8H11.4c-17,0-30.8-13.8-30.8-30.8
					v-6.6C-19.5,436.6-5.7,422.8,11.4,422.8z"/>
				<path class="st16" d="M158.2,434.3c0,0,6,21.6-2.3,35.8h9.9c0,0-3-4.3-5.8-35.9"/>
				<path class="st28" d="M169.1,429.7c-2.6,0.9-3.3,2.4-3.5,3.5v1.3c0,0.1,0,0.1,0.1,0.2h-0.1c-0.1,0.8-2.5,1.5-5.4,1.5
					s-5.2-0.6-5.4-1.4l0,0c0,0,0-0.1,0-0.1V433c-0.3-1.2-1.3-2.6-4.2-3.4l-0.3-0.1l-0.2,0l0,0c-1.8-0.5-2.9-1.2-2.9-1.9
					c0-1.5,4.1-2.6,9.1-2.6h7.8c5,0,9.1,1.2,9.1,2.6C173.1,428.4,171.5,429.2,169.1,429.7z"/>
				<g>
					<defs>
						<path id="SVGID_3_" d="M169.1,429.7c-2.6,0.9-3.3,2.4-3.5,3.5v1.3c0,0.1,0,0.1,0.1,0.2h-0.1c-0.1,0.8-2.5,1.5-5.4,1.5
							s-5.2-0.6-5.4-1.4l0,0c0,0,0-0.1,0-0.1V433c-0.3-1.2-1.3-2.6-4.2-3.4l-0.3-0.1l-0.2,0l0,0c-1.8-0.5-2.9-1.2-2.9-1.9
							c0-1.5,4.1-2.6,9.1-2.6h7.8c5,0,9.1,1.2,9.1,2.6C173.1,428.4,171.5,429.2,169.1,429.7z"/>
					</defs>
					<clipPath id="SVGID_4_">
						<use xlink:href="#SVGID_3_"  style="overflow:visible;"/>
					</clipPath>
					<g class="st29">
						<rect x="147.1" y="424.9" class="st28" width="26" height="11.3"/>
						<path class="st28" d="M160.7,425.6c-6.2-0.2-12.4,0.8-18.2,2.9h3.8v8.1h27.6V429h4.5C174,427,167.7,425.7,160.7,425.6z"/>
						<path class="st28" d="M160.6,427.3c-5.2-0.2-10.4,0.7-15.3,2.4h1v6.8h27.6v-6.4h1.5C170.7,428.2,165.7,427.3,160.6,427.3z"/>
						<path class="st28" d="M160.4,429c-9.5-0.1-17.5,3-17.8,7h3.7v0.5h27.6h3.1C177.3,432.5,169.9,429.2,160.4,429z"/>
						<path class="st28" d="M160.3,430.7c-7.3-0.1-13.3,2.3-13.6,5.3c0,0.8,0.3,1.6,0.8,2.2v-1.7h24.1v2.1c0.7-0.5,1.1-1.3,1.2-2.1
							C173.2,433.4,167.5,430.9,160.3,430.7z"/>
						<path class="st28" d="M160.2,431.4c-6.3-0.1-11.6,2-11.9,4.7c0,0.7,0.2,1.4,0.7,1.9v-1.5h21.1v1.8c0.6-0.5,1-1.1,1.1-1.9
							C171.5,433.8,166.6,431.5,160.2,431.4z"/>
						<path class="st28" d="M160.2,432.1c-5.4-0.1-10,1.7-10.2,4c0,0.6,0.2,1.2,0.6,1.6v-1.2h18.1v1.5c0.5-0.4,0.8-1,0.9-1.6
							C169.8,434.1,165.6,432.2,160.2,432.1z"/>
						<path class="st28" d="M160.1,432.8c-4.5-0.1-8.3,1.4-8.5,3.3c-0.1,1,0.8,1.8,2.2,2.5v-2.1h11.6v2.3c1.5-0.6,2.5-1.5,2.6-2.4
							C168.2,434.5,164.6,432.9,160.1,432.8z"/>
						<path class="st28" d="M160,433.5c-3.6-0.1-6.7,1.1-6.8,2.7c-0.1,0.8,0.6,1.5,1.8,2v-1.6h9.3v1.8c1.2-0.5,2-1.2,2.1-1.9
							C166.5,434.9,163.7,433.6,160,433.5z"/>
						<path class="st28" d="M160,434.2c-2.7,0-5,0.9-5.1,2s2,2.1,4.7,2.1s5-0.9,5.1-2S162.7,434.2,160,434.2z"/>
						<path class="st28" d="M159.9,434.9c-1.8,0-3.3,0.6-3.4,1.3s1.4,1.4,3.1,1.4s3.3-0.6,3.4-1.3S161.7,434.9,159.9,434.9z"/>
						<path class="st28" d="M159.9,435.6c-0.9,0-1.7,0.3-1.7,0.7s0.7,0.7,1.6,0.7s1.7-0.3,1.7-0.7S160.8,435.6,159.9,435.6z"/>
					</g>
				</g>
				<path class="st28" d="M156.8,436.2c0,0-11.8,1.6-10.6,7.8c0,0,0.7,5.5-6,4.6c0,0-7.2-1.2-4.8-8.4c0,0,3.7-13,23.2-7.5l1.5,1.5
					L156.8,436.2z"/>
				<path class="st28" d="M163.7,436.2c0,0,11.8,1.6,10.6,7.8c0,0-0.7,5.5,6,4.6c0,0,7.2-1.2,4.8-8.4c0,0-3.7-13-23.2-7.5l-1.5,1.5
					L163.7,436.2z"/>
				<path class="st28" d="M168,446.7c-2.2-1.9-2.8-4.9-3-7.2v-2.6c0-0.3,0-0.4,0-0.4l0,0c-0.1-1.7-2.1-3.1-4.6-3.1s-4.4,1.3-4.6,2.9
					l0,0c0,0.1,0,0.2,0,0.3v3.4c-0.3,2.4-1.1,5.4-3.6,7l-0.3,0.1l-0.2,0.1l0,0c-1.4,0.8-2.4,2.3-2.4,3.9c0,3,3.5,5.4,7.8,5.4h6.7
					c4.3,0,7.8-2.4,7.8-5.4C171.4,449.3,170.1,447.6,168,446.7z"/>
				<g>
					<defs>
						<path id="SVGID_5_" d="M168,446.7c-2.2-1.9-2.8-4.9-3-7.2v-2.6c0-0.3,0-0.4,0-0.4l0,0c-0.1-1.7-2.1-3.1-4.6-3.1
							s-4.4,1.3-4.6,2.9l0,0c0,0.1,0,0.2,0,0.3v3.4c-0.3,2.4-1.1,5.4-3.6,7l-0.3,0.1l-0.2,0.1l0,0c-1.4,0.8-2.4,2.3-2.4,3.9
							c0,3,3.5,5.4,7.8,5.4h6.7c4.3,0,7.8-2.4,7.8-5.4C171.4,449.3,170.1,447.6,168,446.7z"/>
					</defs>
					<clipPath id="SVGID_6_">
						<use xlink:href="#SVGID_5_"  style="overflow:visible;"/>
					</clipPath>
					<g class="st30">
						<rect x="149.2" y="433.4" class="st28" width="22.2" height="23.2"/>
						<path class="st28" d="M160.5,444.5c-7.2,0.2-13.3-4.7-13.6-10.9c-0.1-1.5,0.2-3.1,0.8-4.5v3.5h24.1v-4.3
							c0.7,1.3,1.1,2.8,1.2,4.4C173.4,439,167.7,444.3,160.5,444.5z"/>
						<path class="st28" d="M160.4,443.1c-6.3,0.2-11.6-4.1-11.9-9.6c-0.1-1.3,0.2-2.7,0.7-3.9v3h21.1V429c0.6,1.2,1,2.5,1.1,3.8
							C171.7,438.3,166.8,442.9,160.4,443.1z"/>
						<path class="st28" d="M160.4,441.7c-5.4,0.2-10-3.5-10.2-8.2c0-1.1,0.2-2.3,0.6-3.3v2.5H169v-3.1c0.6,1,0.9,2.1,0.9,3.3
							C170.1,437.6,165.8,441.5,160.4,441.7z"/>
						<path class="st28" d="M160.3,440.3c-4.5,0.1-8.3-2.9-8.5-6.8c-0.1-1.9,0.7-3.8,2.2-5.1v4.3h11.6V428c1.5,1.2,2.5,3,2.6,4.9
							C168.4,436.8,164.9,440.1,160.3,440.3z"/>
						<path class="st28" d="M160.3,438.9c-3.6,0.1-6.7-2.3-6.8-5.5c0-1.5,0.6-3,1.8-4.1v3.4h9.3V429c1.2,1,2,2.4,2.1,4
							C166.7,436.1,163.9,438.7,160.3,438.9z"/>
						<path class="st28" d="M160.2,437.4c-2.7,0.1-5-1.8-5.1-4.1s2-4.3,4.7-4.4s5,1.8,5.1,4.1S162.9,437.3,160.2,437.4z"/>
						<path class="st28" d="M160.1,436c-1.7,0.2-3.2-1-3.4-2.7c0-1.7,1.4-3,3.1-2.9c0,0,0.1,0,0.1,0c1.7-0.2,3.2,1.1,3.4,2.7
							c0,1.7-1.4,3-3.1,2.9C160.2,436,160.2,436,160.1,436z"/>
						<path class="st28" d="M160.1,434.6c-0.8,0.1-1.6-0.5-1.7-1.4c0-0.8,0.7-1.5,1.6-1.5c0.8-0.1,1.6,0.5,1.7,1.4
							C161.6,434,160.9,434.6,160.1,434.6C160.1,434.6,160.1,434.6,160.1,434.6z"/>
					</g>
				</g>
				<ellipse class="st31" cx="160.1" cy="434.2" rx="4.4" ry="2"/>
				<path class="st16" d="M78.5,409.6c0,0,10.6,38.3-4.1,63.4H92c0,0-5.3-7.6-10.2-63.6"/>
				<path class="st32" d="M75.9,412.9c0,0-20.8,2.8-18.7,13.8c0,0,1.2,9.7-10.6,8.2c0,0-12.8-2.1-8.5-14.9c0,0,6.5-23.1,41.1-13.3
					l2.7,2.7L75.9,412.9z"/>
				<path class="st32" d="M88.1,412.9c0,0,20.8,2.8,18.7,13.8c0,0-1.2,9.7,10.6,8.2c0,0,12.8-2.1,8.5-14.9c0,0-6.6-23.1-41.1-13.3
					l-2.7,2.7L88.1,412.9z"/>
				<path class="st28" d="M95.8,431.5c-3.9-3.3-5-8.7-5.3-12.7v-4.6c0-0.5,0.1-0.7,0.1-0.7h-0.1c-0.2-3-3.8-5.5-8.2-5.5
					c-4.3,0-7.8,2.3-8.2,5.2l0,0c0,0.2,0,0.3,0,0.5v5.9c-0.5,4.2-2,9.5-6.4,12.4l-0.4,0.3l-0.3,0.2l0,0c-2.7,1.8-4.3,4.2-4.3,6.9
					c0,5.3,6.2,9.6,13.8,9.6h11.8c7.6,0,13.8-4.3,13.8-9.6C101.9,436.1,99.4,433.2,95.8,431.5z"/>
				<g>
					<defs>
						<path id="SVGID_7_" d="M95.8,431.5c-3.9-3.3-5-8.7-5.3-12.7v-4.6c0-0.5,0.1-0.7,0.1-0.7h-0.1c-0.2-3-3.8-5.5-8.2-5.5
							c-4.3,0-7.8,2.3-8.2,5.2l0,0c0,0.2,0,0.3,0,0.5v5.9c-0.5,4.2-2,9.5-6.4,12.4l-0.4,0.3l-0.3,0.2l0,0c-2.7,1.8-4.3,4.2-4.3,6.9
							c0,5.3,6.2,9.6,13.8,9.6h11.8c7.6,0,13.8-4.3,13.8-9.6C101.9,436.1,99.4,433.2,95.8,431.5z"/>
					</defs>
					<clipPath id="SVGID_8_">
						<use xlink:href="#SVGID_7_"  style="overflow:visible;"/>
					</clipPath>
					<g class="st33">
						<rect x="62.5" y="408" class="st32" width="39.4" height="41"/>
						<path class="st28" d="M81.9,412.6c-3.2,0.1-5.9-2.1-6-4.8s2.4-5.1,5.6-5.2s5.9,2.1,6,4.8S85.1,412.5,81.9,412.6z"/>
						<path class="st28" d="M81.8,410.1c-1.5,0.1-2.8-0.9-3-2.4c0-1.5,1.3-2.6,2.8-2.6c0,0,0,0,0,0c1.5-0.1,2.8,0.9,3,2.4
							C84.5,409,83.3,410.2,81.8,410.1C81.8,410.1,81.8,410.1,81.8,410.1z"/>
					</g>
				</g>
				<path class="st28" d="M90.4,408.2c0,0.2,0.1,0.4,0.1,0.4h-0.1c-0.2,1.5-3.8,2.8-8.2,2.8c-4.3,0-7.8-1.1-8.2-2.6l0,0
					c0-0.1,0-0.2,0-0.3v-3c-0.5-2.1-2-4.8-6.4-6.2l-0.4-0.1l-0.3-0.1l0,0c-2.7-0.9-4.3-2.1-4.3-3.5c0-2.6,6.2-4.8,13.8-4.8h11.8
					c7.6,0,13.8,2.1,13.8,4.8c0,1.7-2.4,3.1-6.1,4c-3.9,1.7-5,4.3-5.3,6.3"/>
				<g>
					<defs>
						<path id="SVGID_9_" d="M90.4,408.2c0,0.2,0.1,0.4,0.1,0.4h-0.1c-0.2,1.5-3.8,2.8-8.2,2.8c-4.3,0-7.8-1.1-8.2-2.6l0,0
							c0-0.1,0-0.2,0-0.3v-3c-0.5-2.1-2-4.8-6.4-6.2l-0.4-0.1l-0.3-0.1l0,0c-2.7-0.9-4.3-2.1-4.3-3.5c0-2.6,6.2-4.8,13.8-4.8h11.8
							c7.6,0,13.8,2.1,13.8,4.8c0,1.7-2.4,3.1-6.1,4c-3.9,1.7-5,4.3-5.3,6.3"/>
					</defs>
					<clipPath id="SVGID_10_">
						<use xlink:href="#SVGID_9_"  style="overflow:visible;"/>
					</clipPath>
					<g class="st34">
						<rect x="62.5" y="390.8" class="st32" width="39.4" height="20.5"/>
						<path class="st28" d="M82,407.8c-4.8-0.1-8.8,1.5-9,3.6s3.6,3.8,8.4,3.9s8.8-1.5,9-3.6S86.8,407.8,82,407.8z"/>
						<path class="st28" d="M81.9,409c-3.2,0-5.9,1-6,2.4s2.4,2.5,5.6,2.6s5.9-1,6-2.4S85.1,409,81.9,409z"/>
						<path class="st28" d="M81.8,410.3c-1.6,0-3,0.5-3,1.2s1.2,1.3,2.8,1.3s3-0.5,3-1.2S83.4,410.3,81.8,410.3z"/>
					</g>
				</g>
				<path class="st31" d="M89.6,409.4c0,2-3.5,3.5-7.8,3.5s-7.8-1.6-7.8-3.5s3.5-3.5,7.8-3.5S89.6,407.4,89.6,409.4z"/>
			</g>
		</g>
	</g>
</g>
</svg>
