<svg xmlns="http://www.w3.org/2000/svg" xmlns:xlink="http://www.w3.org/1999/xlink" viewBox="0 0 381.76 624.48"><defs><style>.cls-1{fill:none;}.cls-2{fill:#f4b155;}.cls-3{fill:#fff0cc;}.cls-4{fill:#231f20;}.cls-5{clip-path:url(#clip-path);}.cls-6{fill:#5ba587;}.cls-7{fill:#54323a;}.cls-8{fill:#6b3d46;}.cls-9{fill:#59353e;}.cls-10{fill:#f1f1f1;}.cls-11{fill:#382c26;}.cls-12{fill:#e5705f;}.cls-13{fill:#ffd250;}.cls-14{fill:#ee915b;}.cls-15{fill:#ffd150;}.cls-16{fill:#4a355b;}.cls-17{fill:#f2af55;}.cls-18{fill:#47372e;}.cls-19{fill:#7c6153;}.cls-20{fill:#d6326b;}.cls-21{fill:#c65268;}.cls-22{fill:#ffd351;}.cls-23{fill:#f2c249;}.cls-24{fill:#dc4f65;}.cls-25{fill:#002a73;}.cls-26{fill:#ffab51;}.cls-27{fill:#e26079;}.cls-28{fill:#484d66;}</style><clipPath id="clip-path" transform="translate(0 5.34)"><rect class="cls-1" x="45.87" y="71.27" width="290.02" height="392.88" rx="40.27"/></clipPath></defs><g id="Layer_2" data-name="Layer 2"><g id="Layer_1-2" data-name="Layer 1"><path class="cls-2" d="M381.76,23.47v572.2c0,12.94-10.92,23.47-24.36,23.47h-333C10.93,619.14,0,608.61,0,595.67V23.47C0,10.53,10.93,0,24.35,0h333C370.84,0,381.76,10.53,381.76,23.47ZM361.3,582.06v-545a17.59,17.59,0,0,0-17.57-17.57H38A17.59,17.59,0,0,0,20.47,37.09v545A17.58,17.58,0,0,0,38,599.62h305.7A17.59,17.59,0,0,0,361.3,582.06Z" transform="translate(0 5.34)"/><rect class="cls-3" x="20.47" y="24.86" width="340.83" height="580.1" rx="17.57"/><path class="cls-4" d="M128.85,547.22a1,1,0,0,1-.25-.74v-15h-4.79a1,1,0,0,1-.75-.22,1.06,1.06,0,0,1-.21-.74v-.74a1.08,1.08,0,0,1,.21-.75.93.93,0,0,1,.75-.24H136.9a1,1,0,0,1,.76.24,1,1,0,0,1,.22.75v.74a1,1,0,0,1-.22.74,1.08,1.08,0,0,1-.76.22h-4.79v15a1,1,0,0,1-.24.74,1.08,1.08,0,0,1-.8.24h-1.43A1.1,1.1,0,0,1,128.85,547.22Z" transform="translate(0 5.34)"/><path class="cls-4" d="M140.25,547.22a1.07,1.07,0,0,1-.23-.74V529.86a1.11,1.11,0,0,1,.23-.77,1.07,1.07,0,0,1,.78-.25h1.45a1.13,1.13,0,0,1,.8.25,1.06,1.06,0,0,1,.24.77v6.9h9v-6.9a1.06,1.06,0,0,1,.25-.77,1.12,1.12,0,0,1,.79-.25H155a1.1,1.1,0,0,1,.79.25,1,1,0,0,1,.25.77v16.62a1.07,1.07,0,0,1-.23.74,1.12,1.12,0,0,1-.81.24h-1.43a1.11,1.11,0,0,1-.79-.24,1,1,0,0,1-.25-.74v-7.07h-9v7.07a1,1,0,0,1-.23.74,1.09,1.09,0,0,1-.81.24H141A1.07,1.07,0,0,1,140.25,547.22Z" transform="translate(0 5.34)"/><path class="cls-4" d="M159.47,547.22a1.07,1.07,0,0,1-.23-.74V529.86a1.11,1.11,0,0,1,.23-.77,1.07,1.07,0,0,1,.78-.25h11.39a1.06,1.06,0,0,1,.76.22,1.13,1.13,0,0,1,.2.74v.74a1.19,1.19,0,0,1-.2.76,1,1,0,0,1-.76.23h-8.9v5.31h6.47a1,1,0,0,1,.76.22,1,1,0,0,1,.22.74v.68a1.08,1.08,0,0,1-.22.76,1,1,0,0,1-.76.23h-6.47v5.34h8.88a1,1,0,0,1,.76.23,1.07,1.07,0,0,1,.22.75v.74a.94.94,0,0,1-.22.71,1,1,0,0,1-.76.22H160.25A1.07,1.07,0,0,1,159.47,547.22Z" transform="translate(0 5.34)"/><path class="cls-4" d="M185.92,547.22a1.07,1.07,0,0,1-.23-.74V529.86a1.11,1.11,0,0,1,.23-.77,1.07,1.07,0,0,1,.78-.25h5.48q4.62,0,7.08,2.22c1.63,1.48,2.45,3.85,2.45,7.09q0,9.32-9.53,9.31H186.7A1.07,1.07,0,0,1,185.92,547.22Zm6.48-2.41a5.83,5.83,0,0,0,4.37-1.51q1.46-1.5,1.46-5.15T196.77,533a5.9,5.9,0,0,0-4.37-1.49h-3.21v13.28Z" transform="translate(0 5.34)"/><path class="cls-4" d="M204.62,547.22a1.07,1.07,0,0,1-.23-.74V529.86a1.11,1.11,0,0,1,.23-.77,1.07,1.07,0,0,1,.78-.25h11.4a1,1,0,0,1,.75.22,1.13,1.13,0,0,1,.2.74v.74a1.19,1.19,0,0,1-.2.76,1,1,0,0,1-.75.23h-8.9v5.31h6.46a1,1,0,0,1,.76.22,1,1,0,0,1,.22.74v.68a1.08,1.08,0,0,1-.22.76,1,1,0,0,1-.76.23H207.9v5.34h8.87a1,1,0,0,1,.76.23,1.07,1.07,0,0,1,.22.75v.74a.94.94,0,0,1-.22.71,1,1,0,0,1-.76.22H205.4A1.07,1.07,0,0,1,204.62,547.22Z" transform="translate(0 5.34)"/><path class="cls-4" d="M226.47,547.33a1.33,1.33,0,0,1-.34-.55L219,529.61a.8.8,0,0,1-.08-.33.43.43,0,0,1,.12-.31.5.5,0,0,1,.35-.13h2.35a1,1,0,0,1,.55.14.86.86,0,0,1,.3.44l5.17,13.14L233,529.42a.86.86,0,0,1,.3-.44,1,1,0,0,1,.55-.14h2.35a.5.5,0,0,1,.35.13.43.43,0,0,1,.12.31.8.8,0,0,1-.08.33l-7.1,17.17a1.16,1.16,0,0,1-.35.55,1,1,0,0,1-.58.13H227A1,1,0,0,1,226.47,547.33Z" transform="translate(0 5.34)"/><path class="cls-4" d="M239.53,547.22a1.07,1.07,0,0,1-.23-.74V529.86a1.11,1.11,0,0,1,.23-.77,1.08,1.08,0,0,1,.79-.25h1.45a1.1,1.1,0,0,1,.79.25,1.06,1.06,0,0,1,.25.77v16.62a1,1,0,0,1-.24.74,1.08,1.08,0,0,1-.8.24h-1.45A1.08,1.08,0,0,1,239.53,547.22Z" transform="translate(0 5.34)"/><path class="cls-4" d="M246.27,547.22a1,1,0,0,1-.23-.74V529.86a1.06,1.06,0,0,1,.23-.77,1.07,1.07,0,0,1,.78-.25h1.45a1.13,1.13,0,0,1,.8.25,1.06,1.06,0,0,1,.24.77v14.95h8.38a1.06,1.06,0,0,1,.77.23,1.12,1.12,0,0,1,.22.75v.74a1,1,0,0,1-.22.71,1.06,1.06,0,0,1-.77.22H247.05A1.07,1.07,0,0,1,246.27,547.22Z" transform="translate(0 5.34)"/><g class="cls-5"><rect class="cls-6" x="47.54" y="474.01" width="287.52" height="32.42"/><rect class="cls-1" x="47.54" width="287.52" height="506.43"/><polygon class="cls-7" points="342.56 7.16 40.49 7.16 40.49 326.74 40.49 363.76 40.49 538.93 342.4 538.93 342.4 363.76 342.56 363.76 342.56 7.16"/><polygon class="cls-8" points="340.79 365.02 38.73 365.02 38.73 490.58 38.73 505.12 38.73 573.94 340.63 573.94 340.63 505.12 340.79 505.12 340.79 365.02"/><rect class="cls-9" x="65.91" y="426.73" width="271.11" height="51.41" rx="25.71"/><rect class="cls-10" x="103.07" y="153.61" width="7.11" height="28.62" rx="3.07"/><rect class="cls-10" x="186.18" y="153.61" width="7.11" height="28.62" rx="3.07"/><rect class="cls-11" x="107.81" y="136.29" width="81.92" height="63.78" rx="15.25"/><path class="cls-2" d="M250.19,285.65c-18.84,0-38.12-14-57.33-41.52a266.29,266.29,0,0,1-22.29-39A9.57,9.57,0,0,1,188,197.33a250.73,250.73,0,0,0,20.67,36.08c14.93,21.35,29.66,33.11,41.48,33.11a9.57,9.57,0,1,1,0,19.13Z" transform="translate(0 5.34)"/><path class="cls-12" d="M128,307.4h0a14.39,14.39,0,0,0-14.39,14.39v48.59a26.26,26.26,0,0,1,.43,49.18,14.39,14.39,0,0,0,14,10.91h0a14.39,14.39,0,0,0,14.39-14.39V321.79A14.4,14.4,0,0,0,128,307.4Z" transform="translate(0 5.34)"/><circle class="cls-2" cx="186.18" cy="207.87" r="18.5"/><path class="cls-13" d="M142.61,182.23H155.3a40.05,40.05,0,0,1,40.05,40.05v91.77a0,0,0,0,1,0,0H102.56a0,0,0,0,1,0,0V222.28A40.05,40.05,0,0,1,142.61,182.23Z"/><rect class="cls-12" x="101.72" y="301.04" width="13.54" height="23.57" rx="5.84"/><circle class="cls-13" cx="114.03" cy="207.87" r="18.5"/><rect class="cls-12" x="115.27" y="301.04" width="13.54" height="40.53" rx="5.84"/><rect class="cls-12" x="128.81" y="301.04" width="13.54" height="40.53" rx="5.84"/><rect class="cls-12" x="142.35" y="301.04" width="13.54" height="40.53" rx="5.84"/><rect class="cls-12" x="155.89" y="301.04" width="13.54" height="40.53" rx="5.84"/><rect class="cls-12" x="169.43" y="301.04" width="13.54" height="40.53" rx="5.84"/><rect class="cls-12" x="182.97" y="301.04" width="13.54" height="29.4" rx="5.84"/><path class="cls-14" d="M100,430.47a22,22,0,1,1,44,0Z" transform="translate(0 5.34)"/><path class="cls-12" d="M167.74,307.4h0a14.39,14.39,0,0,1,14.39,14.39v48.59a26.25,26.25,0,0,0-.43,49.18,14.39,14.39,0,0,1-14,10.91h0a14.39,14.39,0,0,1-14.39-14.39V321.79A14.39,14.39,0,0,1,167.74,307.4Z" transform="translate(0 5.34)"/><path class="cls-14" d="M195.67,430.47a22,22,0,1,0-44,0Z" transform="translate(0 5.34)"/><path class="cls-12" d="M101.72,318.9h94.78a0,0,0,0,1,0,0v5.46A34.49,34.49,0,0,1,162,358.86H129.09a27.36,27.36,0,0,1-27.36-27.36V318.9A0,0,0,0,1,101.72,318.9Z"/><path class="cls-11" d="M174.92,134.74l-53.06.22a15.65,15.65,0,0,1-15.67-15.54h0a15.66,15.66,0,0,1,15.54-15.68l53.06-.21a15.65,15.65,0,0,1,15.67,15.54h0A15.65,15.65,0,0,1,174.92,134.74Z" transform="translate(0 5.34)"/><rect class="cls-15" x="124.98" y="151.4" width="47.55" height="20.93" transform="translate(298.18 328.46) rotate(179.76)"/><path class="cls-15" d="M120.58,131.19l.2,46.78a28.13,28.13,0,0,0,28.16,27.93h0a28.14,28.14,0,0,0,27.93-28.16l-.2-46.78Z" transform="translate(0 5.34)"/><rect class="cls-16" x="157.48" y="149.21" width="5.53" height="10.31" rx="2.39" transform="translate(321.13 313.41) rotate(179.77)"/><rect class="cls-16" x="134.43" y="149.31" width="5.53" height="10.31" rx="2.39" transform="translate(275.03 313.7) rotate(179.77)"/><path class="cls-10" d="M180,135l-6.3,0,.12,28.28-49.42.21-.12-28.29-7.06,0,.11,28.29.07,17.07V182l0,.05a31.46,31.46,0,0,0,31.45,29.89h0a31.45,31.45,0,0,0,31.22-30.73l.08-.12Z" transform="translate(0 5.34)"/><path class="cls-17" d="M149.51,156.61a4.69,4.69,0,0,0-4.67,4.71l9.39,0A4.69,4.69,0,0,0,149.51,156.61Z" transform="translate(0 5.34)"/><rect class="cls-18" x="154.99" y="143.44" width="16.12" height="4.17" rx="1.8" transform="translate(-0.6 6.01) rotate(-0.24)"/><rect class="cls-18" x="126.34" y="143.56" width="16.12" height="4.17" rx="1.8" transform="translate(-0.6 5.89) rotate(-0.24)"/><path class="cls-18" d="M126.83,140a13.43,13.43,0,1,1-13.48-13.37A13.43,13.43,0,0,1,126.83,140Z" transform="translate(0 5.34)"/><circle class="cls-18" cx="184.51" cy="139.76" r="13.42" transform="translate(-37.47 210.69) rotate(-53.61)"/><circle class="cls-18" cx="169.69" cy="125.14" r="13.37" transform="translate(-32.96 188.68) rotate(-52.43)"/><path class="cls-18" d="M162.07,125.17a13.37,13.37,0,1,1-13.42-13.32A13.37,13.37,0,0,1,162.07,125.17Z" transform="translate(0 5.34)"/><path class="cls-18" d="M140.77,125.25a13.37,13.37,0,1,1-13.42-13.31A13.37,13.37,0,0,1,140.77,125.25Z" transform="translate(0 5.34)"/><path class="cls-19" d="M117.16,117.14c-1-5.32-7.18-12.3-13.88-15.59a14.3,14.3,0,0,0-6.16-1.69c2-3,7.2-3.22,13.83,0,9.39,4.61,18.1,14.38,19.45,21.83s-5.16,9.76-14.55,5.15a41.23,41.23,0,0,1-8.77-5.92C113.62,124.05,118.11,122.38,117.16,117.14Z" transform="translate(0 5.34)"/><path class="cls-18" d="M118.14,123.4a5.85,5.85,0,1,1-5.85-5.85A5.86,5.86,0,0,1,118.14,123.4Z" transform="translate(0 5.34)"/><path class="cls-18" d="M125.11,128.71a5.86,5.86,0,1,1-5.85-5.85A5.85,5.85,0,0,1,125.11,128.71Z" transform="translate(0 5.34)"/><path class="cls-18" d="M134.08,126.63a5.86,5.86,0,1,1-5.85-5.85A5.85,5.85,0,0,1,134.08,126.63Z" transform="translate(0 5.34)"/><path class="cls-18" d="M138.92,119.24a5.85,5.85,0,1,1-5.85-5.85A5.85,5.85,0,0,1,138.92,119.24Z" transform="translate(0 5.34)"/><path class="cls-19" d="M177.36,116.94c1-5.32,7.18-12.3,13.89-15.59a14.27,14.27,0,0,1,6.16-1.69c-2-3-7.2-3.21-13.83,0-9.4,4.61-18.1,14.39-19.45,21.84s5.16,9.75,14.55,5.14a40.8,40.8,0,0,0,8.76-5.92C180.91,123.85,176.41,122.18,177.36,116.94Z" transform="translate(0 5.34)"/><path class="cls-18" d="M176.38,123.2a5.86,5.86,0,1,0,5.86-5.85A5.86,5.86,0,0,0,176.38,123.2Z" transform="translate(0 5.34)"/><path class="cls-18" d="M168.22,128.71a5.86,5.86,0,1,0,5.86-5.85A5.86,5.86,0,0,0,168.22,128.71Z" transform="translate(0 5.34)"/><path class="cls-18" d="M160.45,126.44a5.85,5.85,0,1,0,5.85-5.86A5.85,5.85,0,0,0,160.45,126.44Z" transform="translate(0 5.34)"/><path class="cls-18" d="M155.6,119.05a5.86,5.86,0,1,0,5.86-5.86A5.85,5.85,0,0,0,155.6,119.05Z" transform="translate(0 5.34)"/><ellipse class="cls-16" cx="150.58" cy="184.18" rx="5.74" ry="7.54"/><path class="cls-20" d="M151.41,174.91l-26.88-8.48a4.11,4.11,0,0,0-5.36,3.92v17a4.12,4.12,0,0,0,5.36,3.93l26.88-8.49A4.12,4.12,0,0,0,151.41,174.91Z" transform="translate(0 5.34)"/><rect class="cls-12" x="119.17" y="170.07" width="6.05" height="29.06" rx="2.61"/><path class="cls-17" d="M89.84,221.18a37.56,37.56,0,0,1-7.44-.68c-9-1.83-12.35-7.19-13.56-10.59-1.15-2.74-4.44-12.43,1.74-22.07,7.29-11.36,23.75-16.66,50.36-16.19a8.95,8.95,0,0,1-.16,17.89h-.16c-27.14-.48-33.58,5.88-34.9,7.84a6.12,6.12,0,0,0-.46,5.42c1.23.37,4.8,1,12.87-.25a102.44,102.44,0,0,0,11.8-2.6A8.94,8.94,0,0,1,115,217.1a117.3,117.3,0,0,1-17.87,3.63A65,65,0,0,1,89.84,221.18Z" transform="translate(0 5.34)"/><path class="cls-13" d="M89.84,219.52a37.56,37.56,0,0,1-7.44-.68c-9-1.83-12.35-7.19-13.56-10.6-1.15-2.73-4.44-12.43,1.74-22.06,7.29-11.37,23.75-16.66,50.36-16.19a8.95,8.95,0,0,1-.16,17.89h-.16c-27.14-.49-33.58,5.88-34.9,7.84a6.12,6.12,0,0,0-.46,5.42c1.23.37,4.8,1,12.87-.25a102.44,102.44,0,0,0,11.8-2.6A8.94,8.94,0,0,1,115,215.44a117.3,117.3,0,0,1-17.87,3.63A65,65,0,0,1,89.84,219.52Z" transform="translate(0 5.34)"/><polygon class="cls-12" points="252.97 372.35 251.46 276.51 285.2 373.2 278.05 377.01 252.51 279.46 256.94 385.96 252.97 372.35"/><rect class="cls-13" x="247.53" y="268.67" width="14.78" height="27.75" rx="6.74"/><path class="cls-21" d="M259.66,371.82c1.29.56,2.39,1.3,2.65,2.71.44,2.41-.92,4.81-1.63,7a8,8,0,0,0-.23,4.53c.33,1.19,1.44,2.28,1.59,3.49.24,1.59-1.11,4-2.49,4.27-3.63.71-8,1.07-8.74-3.68-.55-3.45,1.54-6.8,2.64-9.93l2.1-6c.46-1.29,1.19-2.77,2.74-2.77A3.81,3.81,0,0,1,259.66,371.82Z" transform="translate(0 5.34)"/><path class="cls-21" d="M259.42,373.21l-4.77-.48a3.14,3.14,0,0,1-2.81-3.43h0a3.14,3.14,0,0,1,3.43-2.81L260,367a3.15,3.15,0,0,1,2.82,3.43h0A3.16,3.16,0,0,1,259.42,373.21Z" transform="translate(0 5.34)"/><path class="cls-22" d="M250.22,387.07h0a6,6,0,0,1-3.9-7.48l1.68-5.32a6,6,0,0,1,7.48-3.9h0a6,6,0,0,1,3.89,7.48l-1.67,5.32A6,6,0,0,1,250.22,387.07Z" transform="translate(0 5.34)"/><path class="cls-23" d="M227.08,402.45c-2,0-3.59-.87-3.72-2s1.43-2.21,3.48-2.29c15.33-.58,17.36-9.77,17.44-10.16.24-1.18,2.08-2,4.12-1.89s3.52,1.19,3.29,2.37c-.86,4.55-7.06,13.32-24.36,14Z" transform="translate(0 5.34)"/><path class="cls-22" d="M263.5,419.64c-1,0-1.94-.81-2.44-2.24l-8.49-24.28c-.72-2.07-.21-4.65,1.14-5.75s3-.33,3.76,1.74l6.27,26.08c.73,2.07,5.45,3.28,4.1,4.38C267.42,419.92,264,419.64,263.5,419.64Z" transform="translate(0 5.34)"/><path class="cls-23" d="M255.7,404.41l-3.86,7.15a30.07,30.07,0,0,0-3.82-6.67,2.38,2.38,0,0,0-3.64-.23,3.21,3.21,0,0,0-.21,4.12,23.73,23.73,0,0,1,3,5.16l-1.23.39,0,10.7c-2.3,2.18-6.2,3.79-11.52,4.74a2.89,2.89,0,0,0-2.15,3.34,2.71,2.71,0,0,0,2.55,2.46,1.81,1.81,0,0,0,.4,0c8.67-1.54,14.32-4.81,16.85-9.72C254.67,421.51,255.7,404.41,255.7,404.41Z" transform="translate(0 5.34)"/><path class="cls-22" d="M245.05,418.09h0c-4-1.1-6.45-5.69-5.48-10.19l3.55-16.4c1-4.5,5-7.29,9-6.19h0c4,1.1,6.45,5.69,5.48,10.2l-3.55,16.39C253.1,416.41,249,419.19,245.05,418.09Z" transform="translate(0 5.34)"/><path class="cls-24" d="M257.63,373.11c-1.09.7-1.88,1.75-2.95,2.48s-2.69.82-3.78,1.71-2.37,1.88-1.67,3.53c.78,1.8,2.61,2.67,3.81,4.13a4.3,4.3,0,0,1,1.17,2.73c-.33,3-2.47,3.78-5.15,3.32a35,35,0,0,1-3.75-1c-1.4-.39-3-.14-4.32-.75-1.71-.76-1.53-3-1.77-4.58-.39-2.59-1.25-5.11-.86-7.76.69-4.68,6.76-6.39,9.81-9.26a8.84,8.84,0,0,0,2.28-3.08c.74-1.89,2.65-1.64,4.19-.94a7.72,7.72,0,0,1,2.07,1.31c.8.73,1,1.81,1.46,2.72.76,1.37,1.42,3.35.26,4.74A3.65,3.65,0,0,1,257.63,373.11Z" transform="translate(0 5.34)"/><path class="cls-22" d="M248.41,439a42,42,0,0,1-3.43-9c1.9-4.58,1.9-14.74,1.9-14.74l-2-.14a17.57,17.57,0,0,1,1.75-4.35,3.18,3.18,0,0,0-.59-4.06,2.35,2.35,0,0,0-2.93-.07l-1.44-6.92s-5.36,17.52-2.7,26a45,45,0,0,0,4.93,16.21,2.55,2.55,0,0,0,2.24,1.47,2.4,2.4,0,0,0,1.29-.39A3.15,3.15,0,0,0,248.41,439Z" transform="translate(0 5.34)"/><path class="cls-24" d="M253.19,378.5l-1.26-.18a.44.44,0,0,1-.38-.49h0a.44.44,0,0,1,.5-.37l1.26.17a.45.45,0,0,1,.38.5h0A.45.45,0,0,1,253.19,378.5Z" transform="translate(0 5.34)"/><path class="cls-24" d="M258.23,379.58l-1.26-.25a.44.44,0,0,1-.34-.52h0a.44.44,0,0,1,.51-.34l1.26.25a.44.44,0,0,1,.34.52h0A.44.44,0,0,1,258.23,379.58Z" transform="translate(0 5.34)"/><path class="cls-25" d="M253.28,379.45a.43.43,0,0,1-.45.41.44.44,0,0,1-.42-.45.43.43,0,0,1,.45-.41A.44.44,0,0,1,253.28,379.45Z" transform="translate(0 5.34)"/><path class="cls-25" d="M258.25,380.39a.42.42,0,0,1-.45.41.43.43,0,1,1,.45-.41Z" transform="translate(0 5.34)"/><path class="cls-26" d="M255,381.17l.1-.7a.71.71,0,0,1,.61.8.72.72,0,0,1-.8.6.71.71,0,0,1-.61-.79Z" transform="translate(0 5.34)"/><path class="cls-23" d="M252,373a6.8,6.8,0,0,1,.56-7.28s-.93,4.79,1.29,6.17A1.76,1.76,0,0,1,252,373Z" transform="translate(0 5.34)"/><path class="cls-27" d="M293.41,375.42s0,9.67,5.77,15.41l-5.41.39-7-4.64Z" transform="translate(0 5.34)"/><path class="cls-24" d="M295.57,394c-1.13,0-3.28-1.15-3.68-2.27-.5-1.42-2.22-3.57-.8-4.07l13.13-2.32a4.27,4.27,0,0,0,2.39-5.95l-4-7.9a2.73,2.73,0,0,1,4.86-2.47l4,7.9a9.72,9.72,0,0,1,.36,8c-1,2.59-1.59,4.44-4.24,5.37l-9.23,4.36A25.68,25.68,0,0,1,295.57,394Z" transform="translate(0 5.34)"/><path class="cls-24" d="M291.12,427.52a4.08,4.08,0,0,0-7.9,1.74l-2.05-2.95c-3.13,5.71-.72,11.42.33,13.42-3.69,3.08-11.67,3.79-22.76,2a4.09,4.09,0,0,0-1.33,8.08,75.88,75.88,0,0,0,12.06,1.09c9,0,15.49-2.28,19.24-6.81C294.5,437.07,291.26,427.9,291.12,427.52Z" transform="translate(0 5.34)"/><path class="cls-27" d="M299.23,390a8.63,8.63,0,0,0-14.69,7.19,19,19,0,0,1-3.45,8.16c-3.94,4.92-9.69,4.05-21.74,4a2.85,2.85,0,0,0-2.89,2.58,2.73,2.73,0,0,0,2.73,2.88c14.07,0,22.38-1.11,27.48-7.47.3-.37.57-.74.82-1.11a69.22,69.22,0,0,1,1.54,8.89,8.9,8.9,0,0,1-4.38,8.28c-3.57,2.13-8,6.51-.94,13,3.61,4.21,12.67,17.12,5,33.51a6.53,6.53,0,0,0,2.43,8.42,6.46,6.46,0,0,0,3.22.88,6.36,6.36,0,0,0,5.75-3.63A42.24,42.24,0,0,0,299.9,438C315.4,416.18,306.26,397,299.23,390ZM290,407l-1.28-2.59A17.86,17.86,0,0,1,290,407Z" transform="translate(0 5.34)"/><path class="cls-24" d="M286.37,390.93h0a9.58,9.58,0,0,1-11.45-7.14l-3-13a9.58,9.58,0,0,1,7.14-11.45h0a9.57,9.57,0,0,1,11.44,7.14l3,13A9.56,9.56,0,0,1,286.37,390.93Z" transform="translate(0 5.34)"/><path class="cls-27" d="M286.12,390.07h0a9.56,9.56,0,0,1-11.44-7.14l-3-12.95a9.56,9.56,0,0,1,7.14-11.44h0a9.55,9.55,0,0,1,11.44,7.13l3,13A9.56,9.56,0,0,1,286.12,390.07Z" transform="translate(0 5.34)"/><path class="cls-22" d="M271.8,369.14c1.63.73,3.54-.05,5-.88,1.17-.66,2.22-2,3.46-2.68a5.79,5.79,0,0,1,2.84-.61c1.37.08,1.43,1.83,2.06,2.9s1.82,1,2.77,1.59c1.85,1.09,2.35,3.62,3,5.77.26.9,2.13,6.43,3.05,3.57.67-2.05-.36-5.3-.68-7.36-.41-2.67.16-5.79-1-8.2a10.1,10.1,0,0,0-7.38-5.66c-3.4-.72-7-1.23-9.8,1.9l-2.85,3.14c-1.18,1.3-2.28,2.81-1.75,4.85A2.33,2.33,0,0,0,271.8,369.14Z" transform="translate(0 5.34)"/><path class="cls-22" d="M283,374.5l4.12-.52a1.43,1.43,0,0,0,1.23-1.59h0a1.41,1.41,0,0,0-1.59-1.23l-4.12.52a1.43,1.43,0,0,0-1.23,1.59h0A1.43,1.43,0,0,0,283,374.5Z" transform="translate(0 5.34)"/><path class="cls-22" d="M273.41,376.57l3.31-1.07a1.21,1.21,0,0,0,.76-1.51h0a1.2,1.2,0,0,0-1.5-.76l-3.31,1.07a1.21,1.21,0,0,0-.77,1.51h0A1.21,1.21,0,0,0,273.41,376.57Z" transform="translate(0 5.34)"/><path class="cls-28" d="M283.2,377.47a1.41,1.41,0,1,0,1.37-1.45A1.41,1.41,0,0,0,283.2,377.47Z" transform="translate(0 5.34)"/><path class="cls-28" d="M274,379.18a1.18,1.18,0,1,0,1-1.35A1.18,1.18,0,0,0,274,379.18Z" transform="translate(0 5.34)"/><path class="cls-24" d="M280.33,380.44l-.4-1.53a1.58,1.58,0,1,0,1.93,1.14Z" transform="translate(0 5.34)"/><path class="cls-27" d="M293.22,374.82a2.28,2.28,0,1,1-2.29-2.26A2.28,2.28,0,0,1,293.22,374.82Z" transform="translate(0 5.34)"/><path class="cls-24" d="M292.31,374.83a1.36,1.36,0,1,1-1.37-1.35A1.37,1.37,0,0,1,292.31,374.83Z" transform="translate(0 5.34)"/><path class="cls-24" d="M305.56,370.42,299,372.54a1.6,1.6,0,0,1-2-1h0a1.6,1.6,0,0,1,1-2l6.55-2.12a1.58,1.58,0,0,1,2,1h0A1.6,1.6,0,0,1,305.56,370.42Z" transform="translate(0 5.34)"/></g></g></g></svg>