<?xml version="1.0" encoding="utf-8"?>
<!-- Generator: Adobe Illustrator 25.2.3, SVG Export Plug-In . SVG Version: 6.00 Build 0)  -->
<svg version="1.1" id="Layer_1" xmlns="http://www.w3.org/2000/svg" xmlns:xlink="http://www.w3.org/1999/xlink" x="0px" y="0px"
	 viewBox="0 0 381.8 619.1" style="enable-background:new 0 0 381.8 619.1;" xml:space="preserve">
<style type="text/css">
	.st0{fill:#F4B155;}
	.st1{fill:#FFF0CC;}
	.st2{fill:#231F20;}
	.st3{clip-path:url(#SVGID_2_);}
	.st4{fill:#F4B055;}
	.st5{fill:#FFD150;}
	.st6{fill:none;}
	.st7{fill:#2B3251;}
	.st8{fill:#B55269;}
	.st9{fill:#E6E7E8;}
	.st10{fill:#C14F65;}
	.st11{fill:#F1F2F2;}
	.st12{fill:#FFFFFF;}
	.st13{fill:#DD4F65;}
	.st14{fill:#3D7C89;}
	.st15{fill:#4C9BA5;}
	.st16{fill:#DC4F65;}
	.st17{fill:#FFD250;}
	.st18{fill:#4997C8;}
	.st19{fill:#F2AF55;}
	.st20{fill:#47372E;}
	.st21{fill:#ED915C;}
	.st22{fill:#54323A;}
</style>
<g id="Layer_2_1_">
	<g id="Layer_1-2">
		<path class="st0" d="M381.8,23.5v572.2c0,12.9-10.9,23.5-24.4,23.5h-333C10.9,619.1,0,608.6,0,595.7V23.5C0,10.5,10.9,0,24.4,0
			h333C370.8,0,381.8,10.5,381.8,23.5z M361.3,582.1v-545c0-9.7-7.9-17.6-17.6-17.6H38c-9.7,0-17.5,7.9-17.5,17.6v545
			c0,9.7,7.9,17.5,17.5,17.5h305.7C353.4,599.6,361.3,591.8,361.3,582.1z"/>
		<path class="st1" d="M38,19.5h305.7c9.7,0,17.6,7.9,17.6,17.6v545c0,9.7-7.9,17.6-17.6,17.6H38c-9.7,0-17.6-7.9-17.6-17.6v-545
			C20.5,27.4,28.3,19.5,38,19.5z"/>
		<path class="st2" d="M112.9,549.8c-0.2-0.2-0.3-0.5-0.3-0.8v-16.7h-5.3c-0.3,0-0.6-0.1-0.8-0.2c-0.2-0.2-0.3-0.5-0.2-0.8v-0.8
			c0-0.3,0.1-0.6,0.2-0.8c0.2-0.2,0.5-0.3,0.8-0.2h14.6c0.3,0,0.6,0.1,0.8,0.2c0.2,0.2,0.3,0.5,0.2,0.8v0.8c0,0.3-0.1,0.6-0.2,0.8
			c-0.2,0.2-0.5,0.3-0.8,0.2h-5.3V549c0,0.3-0.1,0.6-0.3,0.8c-0.3,0.2-0.6,0.3-0.9,0.3h-1.6C113.4,550.1,113.1,550,112.9,549.8z"/>
		<path class="st2" d="M125.6,549.8c-0.2-0.2-0.3-0.5-0.3-0.8v-18.5c0-0.3,0.1-0.6,0.3-0.9c0.2-0.2,0.6-0.3,0.9-0.3h1.6
			c0.3,0,0.6,0.1,0.9,0.3c0.2,0.2,0.3,0.5,0.3,0.9v7.7h10v-7.7c0-0.3,0.1-0.6,0.3-0.9c0.2-0.2,0.6-0.3,0.9-0.3h1.6
			c0.3,0,0.6,0.1,0.9,0.3c0.2,0.2,0.3,0.5,0.3,0.9V549c0,0.3-0.1,0.6-0.3,0.8c-0.3,0.2-0.6,0.3-0.9,0.3h-1.6c-0.3,0-0.6-0.1-0.9-0.3
			c-0.2-0.2-0.3-0.5-0.3-0.8v-7.9h-10v7.9c0,0.3-0.1,0.6-0.3,0.8c-0.3,0.2-0.6,0.3-0.9,0.3h-1.6
			C126.2,550.1,125.8,550.1,125.6,549.8z"/>
		<path class="st2" d="M147,549.8c-0.2-0.2-0.3-0.5-0.3-0.8v-18.5c0-0.3,0.1-0.6,0.3-0.9c0.2-0.2,0.6-0.3,0.9-0.3h12.7
			c0.5-0.1,0.9,0.2,1.1,0.6c0,0.1,0,0.3,0,0.4v0.8c0,0.3-0.1,0.6-0.2,0.8c-0.2,0.2-0.5,0.3-0.8,0.3h-9.9v5.9h7.2
			c0.3,0,0.6,0.1,0.9,0.2c0.2,0.2,0.3,0.5,0.2,0.8v0.8c0,0.3-0.1,0.6-0.2,0.8c-0.2,0.2-0.5,0.3-0.9,0.3h-7.2v6h9.9
			c0.3,0,0.6,0.1,0.9,0.3c0.2,0.2,0.3,0.5,0.2,0.8v0.8c0,0.3-0.1,0.6-0.2,0.8c-0.2,0.2-0.6,0.3-0.9,0.2h-12.6
			C147.6,550.2,147.3,550.1,147,549.8z"/>
		<path class="st2" d="M181.8,549.8c-0.2-0.2-0.3-0.5-0.3-0.8v-16.7h-5.3c-0.3,0-0.6-0.1-0.8-0.2c-0.2-0.2-0.3-0.5-0.2-0.8v-0.8
			c0-0.3,0.1-0.6,0.2-0.8c0.2-0.2,0.5-0.3,0.8-0.2h14.6c0.3,0,0.6,0.1,0.9,0.2c0.2,0.2,0.3,0.5,0.2,0.8v0.8c0,0.3-0.1,0.6-0.2,0.8
			c-0.2,0.2-0.5,0.3-0.9,0.2h-5.4V549c0,0.3-0.1,0.6-0.3,0.8c-0.3,0.2-0.6,0.3-0.9,0.3h-1.6C182.3,550.1,182,550,181.8,549.8z"/>
		<path class="st2" d="M194.9,547.7c-1.8-1.9-2.7-4.6-2.7-8c0-3.4,0.9-6.1,2.7-8c1.8-1.9,4.4-2.8,7.7-2.8s5.9,0.9,7.7,2.8
			s2.7,4.6,2.7,8s-0.9,6.1-2.7,8s-4.4,2.8-7.7,2.8S196.7,549.6,194.9,547.7z M207.5,545.7c2.2-3.6,2.2-8.2,0-11.9
			c-2.7-2.7-7.1-2.7-9.8,0c-2.3,3.6-2.3,8.2,0,11.9C200.5,548.4,204.8,548.4,207.5,545.7C207.5,545.7,207.5,545.7,207.5,545.7z"/>
		<path class="st2" d="M218.7,550c-0.2-0.2-0.3-0.4-0.3-0.6l-4.8-19.3c0-0.1,0-0.2,0-0.3c0-0.3,0.2-0.5,0.6-0.5h2.5
			c0.2,0,0.5,0,0.6,0.2c0.1,0.1,0.2,0.3,0.2,0.5l3.1,13.4l3.7-11.8c0-0.2,0.1-0.4,0.3-0.5c0.2-0.1,0.4-0.2,0.6-0.1h1.4
			c0.2,0,0.4,0,0.6,0.1c0.1,0.1,0.2,0.3,0.3,0.5l3.7,11.8l3-13.5c0-0.2,0.1-0.4,0.3-0.5c0.2-0.1,0.4-0.2,0.6-0.2h2.5
			c0.4,0,0.6,0.2,0.6,0.5c0,0.1,0,0.2,0,0.3l-4.9,19.3c-0.1,0.5-0.5,0.8-1,0.8c0,0,0,0,0,0h-1.6c-0.2,0-0.5,0-0.7-0.2
			c-0.2-0.2-0.3-0.4-0.4-0.6l-3.7-12.2l-3.7,12.2c-0.1,0.2-0.2,0.4-0.4,0.6c-0.2,0.1-0.4,0.2-0.7,0.2h-1.7
			C219.2,550.1,218.9,550.1,218.7,550z"/>
		<path class="st2" d="M241.3,549.8c-0.2-0.2-0.3-0.5-0.3-0.8v-18.5c0-0.3,0.1-0.6,0.3-0.9c0.2-0.2,0.6-0.3,0.9-0.3h12.7
			c0.3,0,0.6,0.1,0.8,0.2c0.2,0.2,0.3,0.5,0.2,0.8v0.8c0,0.3-0.1,0.6-0.2,0.8c-0.2,0.2-0.5,0.3-0.8,0.3h-9.9v5.9h7.2
			c0.3,0,0.6,0.1,0.9,0.2c0.2,0.2,0.3,0.5,0.2,0.8v0.8c0,0.3-0.1,0.6-0.2,0.8c-0.2,0.2-0.6,0.3-0.9,0.3h-7.2v6h9.9
			c0.3,0,0.6,0.1,0.9,0.3c0.2,0.2,0.3,0.5,0.2,0.8v0.8c0,0.3-0.1,0.6-0.2,0.8c-0.2,0.2-0.6,0.3-0.9,0.2h-12.6
			C241.8,550.2,241.5,550.1,241.3,549.8z"/>
		<path class="st2" d="M258.9,549.8c-0.2-0.2-0.3-0.5-0.3-0.8v-18.5c0-0.3,0.1-0.6,0.3-0.9c0.2-0.2,0.6-0.3,0.9-0.3h8
			c1.9-0.1,3.9,0.4,5.4,1.7c1.3,1.3,2,3.1,1.9,4.9c0,1.3-0.3,2.6-1,3.7c-0.7,1-1.7,1.8-2.9,2.3l3.4,7.5c0.1,0.1,0.1,0.2,0.1,0.3
			c0,0.3-0.2,0.5-0.5,0.5h-2.5c-0.2,0-0.4,0-0.6-0.1c-0.2-0.1-0.3-0.3-0.3-0.5l-3.1-7.2h-4.9v6.7c0,0.3-0.1,0.6-0.3,0.8
			c-0.3,0.2-0.6,0.3-0.9,0.3h-1.6C259.5,550.1,259.1,550.1,258.9,549.8z M266.9,539.4c1.1,0.1,2.2-0.2,3.1-0.8
			c0.7-0.7,1.1-1.7,1-2.7c0.1-1-0.2-2-0.9-2.7c-0.8-0.6-1.8-0.9-2.8-0.8h-4.9v7L266.9,539.4z"/>
		<g>
			<defs>
				<path id="SVGID_1_" d="M84.4,71.3h209.5c22.2,0,40.3,18,40.3,40.3v312.3c0,22.2-18,40.3-40.3,40.3H84.4
					c-22.2,0-40.3-18-40.3-40.3V111.5C44.1,89.3,62.1,71.3,84.4,71.3z"/>
			</defs>
			<clipPath id="SVGID_2_">
				<use xlink:href="#SVGID_1_"  style="overflow:visible;"/>
			</clipPath>
			<g class="st3">
				<path class="st4" d="M222.6,204.2c-1.2,0-2.2,1-2.2,2.2h4.5C224.9,205.2,223.9,204.2,222.6,204.2L222.6,204.2z"/>
				<path class="st5" d="M219,169.6v0.1C219,169.7,219,169.6,219,169.6z"/>
				<rect x="47.1" y="64.2" class="st6" width="243.3" height="404.2"/>
				<polygon class="st7" points="20.1,71.3 20.1,464.1 20.2,464.1 355.4,464.1 355.4,328.6 355.4,71.3 				"/>
				<polygon class="st8" points="164.5,68 149.8,102.9 156,100.7 138.8,137.9 164.1,93.9 155.3,96.7 				"/>
				<path class="st9" d="M181.9,207H18c-11.7,0-21.1-9.5-21.1-21.1l0,0c0-11.7,9.5-21.1,21.1-21.2h163.9c11.7,0,21.1,9.5,21.2,21.2
					l0,0C203,197.5,193.6,207,181.9,207z"/>
				<circle class="st9" cx="79.1" cy="154.4" r="52.6"/>
				<circle class="st9" cx="136.9" cy="169.6" r="37.5"/>
				<polygon class="st8" points="224.5,65.8 212,95.7 217.2,93.8 202.5,125.7 224.2,88 216.7,90.4 				"/>
				<polygon class="st10" points="130.1,64.2 99.5,137 112.3,132.3 76.5,209.9 129.2,118.1 111,124 				"/>
				<path class="st11" d="M394.3,207H168.4c-13.4,0-24.3-10.9-24.3-24.3V175c0-13.4,10.9-24.3,24.3-24.3h225.9
					c13.4,0,24.3,10.9,24.3,24.3v7.7C418.6,196.1,407.7,207,394.3,207z"/>
				<circle class="st11" cx="309.1" cy="137" r="70"/>
				<circle class="st11" cx="232.2" cy="157.1" r="49.9"/>
				<path class="st12" d="M117.5,208H24.8c-6.6,0-12-5.4-12-12l0,0c0-6.6,5.4-12,12-12h92.7c6.6,0,12,5.4,12,12l0,0
					C129.5,202.6,124.1,208,117.5,208z"/>
				<circle class="st12" cx="59.3" cy="178.2" r="29.8"/>
				<circle class="st12" cx="92" cy="186.8" r="21.2"/>
				<polygon class="st10" points="295.3,82.3 267.6,148.2 279.2,143.9 246.8,214.2 294.5,131.1 278,136.4 				"/>
				<polygon class="st13" points="97.3,35.3 57.3,130.4 74.1,124.2 27.3,225.6 96.1,105.7 72.3,113.4 				"/>
				<path class="st12" d="M248.7,208h92.7c6.6,0,12-5.4,12-12l0,0c0-6.6-5.4-12-12-12h-92.7c-6.6,0-12,5.4-12,12l0,0
					C236.7,202.6,242,208,248.7,208z"/>
				<circle class="st12" cx="306.8" cy="178.3" r="29.8"/>
				<circle class="st12" cx="274.1" cy="186.8" r="21.2"/>
				<polygon class="st13" points="335.7,76.2 301.7,157.1 315.9,151.8 276.2,238 334.7,136.1 314.4,142.6 				"/>
				<rect x="21.1" y="205.2" class="st14" width="334.3" height="259"/>
				<path class="st15" d="M321.3,309.6h-52.6c-1.9,0-3.4-1.5-3.4-3.4l0,0c0-1.9,1.5-3.4,3.4-3.4h52.6c1.9,0,3.4,1.5,3.4,3.4l0,0
					C324.7,308.1,323.2,309.6,321.3,309.6z"/>
				<path class="st15" d="M241.8,296.6h-52.6c-1.9,0-3.4-1.5-3.4-3.4l0,0c0-1.9,1.5-3.4,3.4-3.4h52.6c1.9,0,3.4,1.5,3.4,3.4l0,0
					C245.1,295.1,243.6,296.6,241.8,296.6z"/>
				<path class="st15" d="M308.5,274.4h-52.6c-1.9,0-3.4-1.5-3.4-3.4l0,0c0-1.9,1.5-3.4,3.4-3.4h52.6c1.9,0,3.4,1.5,3.4,3.4l0,0
					C311.9,272.9,310.4,274.4,308.5,274.4z"/>
				<path class="st15" d="M162.2,278.6h-52.6c-1.9,0-3.4-1.5-3.4-3.4l0,0c0-1.9,1.5-3.4,3.4-3.4h52.6c1.9,0,3.4,1.5,3.4,3.4l0,0
					C165.6,277.1,164.1,278.6,162.2,278.6z"/>
				<path class="st15" d="M131.4,316.3H78.8c-1.9,0-3.4-1.5-3.4-3.4l0,0c0-1.9,1.5-3.4,3.4-3.4h52.6c1.9,0,3.4,1.5,3.4,3.4l0,0
					C134.8,314.8,133.3,316.3,131.4,316.3z"/>
				<path class="st15" d="M81.4,291.9H28.8c-1.9,0-3.4-1.5-3.4-3.4l0,0c0-1.9,1.5-3.4,3.4-3.4h52.6c1.9,0,3.4,1.5,3.4,3.4l0,0
					C84.7,290.4,83.2,291.9,81.4,291.9z"/>
				<path class="st15" d="M85.5,243.1H32.9c-1.9,0-3.4-1.5-3.4-3.4l0,0c0-1.9,1.5-3.4,3.4-3.4h52.6c1.9,0,3.4,1.5,3.4,3.4l0,0
					C88.9,241.6,87.4,243.1,85.5,243.1z"/>
				<path class="st15" d="M344.9,242.3h-52.6c-1.8,0-3.3-1.5-3.3-3.3l0,0c0-1.9,1.5-3.4,3.4-3.4H345c1.9,0,3.4,1.5,3.4,3.4l0,0
					C348.3,240.9,346.8,242.4,344.9,242.3C344.9,242.3,344.9,242.3,344.9,242.3z"/>
				<path class="st16" d="M277.3,442c0.1,0.5-0.9,1-2.1,1.1h-0.1c-1.2,0.1-2.2-0.3-2.3-0.8l-22.3-166.8l4.4-0.3L277.3,442z"/>
				<polygon class="st17" points="255.4,265.8 255.4,265.8 257.9,275 255,275.2 250.5,275.5 248.1,275.7 248.6,266.3 253,265.9 
					255.4,265.8 				"/>
				<polygon class="st17" points="250.4,247.6 252.7,263.7 253,265.9 250.3,266 250.1,263.9 248.2,247.6 245.9,247.2 248.2,238.7 
					252.7,246.6 				"/>
				<path class="st17" d="M270.8,260.7c1.5,1.6-4.1,4.4-15.4,5.1l0,0l0,0L253,266v0l-0.3-2.1h0.1c9.8,0.1,14.4-1.8,14.4-2.8
					s-7-9.1-2.5-13.3l-1.8-0.2c0,0,4.5-3.4,6.3-5.2c-0.4,2-0.4,4-0.1,6l-2.5-0.4C266.7,247.9,262.6,251.7,270.8,260.7z"/>
				<path class="st17" d="M250.3,266l2.7-0.1v0l-4.4,0.3c-12,0.5-17.8-1.9-16.7-3.7c5.1-8.3,0.9-12.6,0.9-12.6l-2.4,0.6
					c0.1-2-0.2-4-0.7-5.9c1.9,1.6,6.7,4.6,6.7,4.6l-1.7,0.3c4.9,3.7,0.8,12,0.9,13s4.9,2.4,14.5,1.4L250.3,266z"/>
				<path class="st18" d="M112.9,423.8L112.9,423.8c-2.7,0-4.9-2.2-4.9-4.9v0V405c0-2.7,2.2-4.9,4.9-4.9l0,0c2.7,0,4.9,2.2,4.9,4.9
					v13.9C117.8,421.6,115.6,423.8,112.9,423.8z"/>
				<path class="st18" d="M237.1,423.8L237.1,423.8c-2.7,0-4.9-2.2-4.9-4.9V405c0-2.7,2.2-4.9,4.9-4.9l0,0c2.7,0,4.9,2.2,4.9,4.9
					v13.9C242,421.6,239.8,423.8,237.1,423.8z"/>
				<path class="st18" d="M225.6,409.6c-3.4-0.1-6.1-2.1-6.1-4.4v-0.8c-0.1-1.2-0.8-2.4-1.9-3c-1.6-1-3.5-1.4-5.3-1.2
					c-3.2,0.3-5.5,2.2-5.5,4.4v0.7c0,2.3-2.7,4.3-6.1,4.4c-3.6,0.1-6.6-1.9-6.6-4.3v-0.9c-0.1-1.2-0.8-2.4-1.9-3
					c-1.6-1-3.5-1.4-5.3-1.2c-3.2,0.3-5.5,2.2-5.5,4.4v0.8c0,2.4-2.8,4.3-6.3,4.3s-6.3-2-6.3-4.3v-0.9c-0.1-1.2-0.8-2.4-1.9-3
					c-1.6-1-3.5-1.4-5.3-1.2c-3.2,0.3-5.5,2.2-5.5,4.4v0.7c0,2.3-2.7,4.3-6.1,4.4c-3.6,0.1-6.6-1.9-6.6-4.3v-0.9
					c-0.1-1.2-0.8-2.4-1.9-3c-1.6-1-3.5-1.4-5.3-1.2c-3.2,0.3-5.5,2.2-5.5,4.4v0.7c0,2.3-2.7,4.3-6.1,4.4c-3.6,0.1-6.6-1.9-6.6-4.3
					v16h114.4v-8.3l0,0c0-0.1,0-0.2,0-0.3v-7.3C232.2,407.7,229.2,409.7,225.6,409.6z"/>
				<path class="st9" d="M362.5,444.9H184.6c-12.7,0-23-10.3-23-23l0,0c0-12.7,10.3-23,23-23h177.8c12.7,0,23,10.3,23,23l0,0
					C385.4,434.7,375.1,444.9,362.5,444.9z"/>
				<circle class="st9" cx="296.2" cy="387.9" r="57.1"/>
				
					<ellipse transform="matrix(0.4566 -0.8897 0.8897 0.4566 -232.829 427.3882)" class="st9" cx="233.4" cy="404.3" rx="40.7" ry="40.7"/>
				<path class="st9" d="M190.4,446H-22.1c-15.1,0-27.4-12.3-27.4-27.5l0,0c0-15.1,12.3-27.4,27.5-27.5h212.5
					c15.1,0,27.4,12.3,27.4,27.5l0,0C217.8,433.7,205.5,446,190.4,446z"/>
				<circle class="st9" cx="57.1" cy="377.8" r="68.2"/>
				<circle class="st9" cx="132.1" cy="397.4" r="48.6"/>
				<path class="st5" d="M112.9,409.5c-5.2,0-9.5-4.2-9.5-9.5c0-3.4,1.9-6.6,4.9-8.3c25.3-14.1,28-44,28.1-44.3
					c0.3-5.2,4.8-9.2,10-8.9c5.2,0.3,9.2,4.8,8.9,10c0,0.2,0,0.3,0,0.5c-0.1,1.6-3.7,40.4-37.7,59.3
					C116.1,409.1,114.5,409.5,112.9,409.5z"/>
				<ellipse class="st5" cx="208" cy="333" rx="17.4" ry="17.1"/>
				<ellipse class="st5" cx="139.1" cy="335.9" rx="17.6" ry="17.3"/>
				<path class="st9" d="M154.4,196.6c0,6.8-5.5,12.4-12.4,12.4c-6.8,0-12.4-5.5-12.4-12.4c0-6.8,5.5-12.4,12.4-12.4c0,0,0,0,0,0
					C148.9,184.3,154.4,189.8,154.4,196.6z"/>
				<circle class="st9" cx="157.5" cy="198.6" r="12.4"/>
				<path class="st9" d="M233.2,195c0,6.8-5.5,12.4-12.4,12.4c-6.8,0-12.4-5.5-12.4-12.4c0-6.8,5.5-12.4,12.4-12.4c0,0,0,0,0,0
					C227.7,182.6,233.2,188.2,233.2,195C233.2,195,233.2,195,233.2,195z"/>
				<circle class="st9" cx="240.6" cy="195" r="14.1"/>
				<path class="st5" d="M212.8,285.2c0.1,3.8-3,7-6.8,7.1c-3.8,0.1-7-3-7.1-6.8c-0.1-3.8,3-7,6.8-7.1c0,0,0.1,0,0.1,0
					C209.7,278.4,212.8,281.4,212.8,285.2z"/>
				<path class="st19" d="M210.1,285.2c0,2.3-1.8,4.3-4.1,4.3c-2.3,0-4.3-1.8-4.3-4.1s1.8-4.3,4.1-4.3c0,0,0.1,0,0.1,0
					C208.2,281.1,210.1,282.9,210.1,285.2C210.1,285.2,210.1,285.2,210.1,285.2z"/>
				<path class="st5" d="M154.5,285.2c0.1,3.8-3,7-6.8,7.1c-3.8,0.1-7-3-7.1-6.8c-0.1-3.8,3-7,6.8-7.1c0,0,0.1,0,0.1,0
					C151.4,278.4,154.5,281.4,154.5,285.2z"/>
				<path class="st19" d="M151.8,285.2c0,2.3-1.8,4.3-4.1,4.3c-2.3,0-4.3-1.8-4.3-4.1s1.8-4.3,4.1-4.3c0,0,0.1,0,0.1,0
					C149.9,281.1,151.8,282.9,151.8,285.2C151.8,285.2,151.8,285.2,151.8,285.2z"/>
				<rect x="168.2" y="308.1" class="st5" width="17.8" height="16.8"/>
				<path class="st5" d="M176.9,333.9c7.2,0,13.8-3.8,17.2-10.1c-4.4-2.2-9.3-3.3-14.3-3.3h-5.9c-5,0-9.9,1.1-14.3,3.3
					C163.1,330.1,169.7,333.9,176.9,333.9z"/>
				<path class="st5" d="M196.5,325.1c-0.8-0.5-1.5-0.9-2.3-1.3c-5.3,9.5-17.4,12.9-26.9,7.6c-3.2-1.8-5.8-4.4-7.6-7.6
					c-1.7,0.9-3.4,1.9-4.9,3l-0.1,0.1c3.4,1.7,5.5,5.1,5.5,8.9c-0.1,5.6-4.7,10.1-10.2,10c-1.7,0-3.3-0.4-4.8-1.1c0,0.2,0,0.5,0,0.7
					v77h63.5v-77C208.7,337,203.8,329.6,196.5,325.1z"/>
				<path class="st5" d="M160.1,335.8c0-3.8-2.1-7.2-5.5-8.9c-5.7,4.2-9.1,10.7-9.5,17.8c1.5,0.8,3.1,1.2,4.8,1.1
					C155.5,345.9,160.1,341.4,160.1,335.8z"/>
				<path class="st20" d="M151.9,275c-3,0.1-5.5-2.3-5.5-5.3c0-1.4,0.5-2.7,1.4-3.7c5.5-6.1,16.5-10.3,29-10.3l0,0
					c12.6,0,23.5,4.2,29.1,10.3c2,2.2,1.8,5.6-0.4,7.6c-1,0.9-2.4,1.4-3.7,1.4H151.9z"/>
				<path class="st20" d="M176.9,345.9L176.9,345.9c-18.1-0.1-32.7-14.7-32.8-32.8v-19.6c0-13.7,11.1-24.8,24.8-24.8h16.1
					c13.7,0,24.8,11.1,24.8,24.8v19.6C209.6,331.2,194.9,345.8,176.9,345.9z"/>
				<path class="st17" d="M177.1,278.1c-6.7,0.1-13.3-0.6-19.9-1.9H145c0,4.9,14.4,8.9,32.1,8.9s32.1-4,32.1-8.9h-12.3
					C190.4,277.5,183.7,278.2,177.1,278.1z"/>
				<path class="st17" d="M147.5,272.7c-1.7-1.1-2.6-2.2-2.6-3.5v7C145,275,145.9,273.8,147.5,272.7z"/>
				<path class="st17" d="M206.6,272.7c1.6,1.1,2.6,2.2,2.6,3.5v-7C209.2,270.5,208.2,271.6,206.6,272.7z"/>
				<path class="st17" d="M147.5,272.7c-1.7,1.1-2.6,2.2-2.6,3.5h12.2C153.8,275.6,150.5,274.4,147.5,272.7z"/>
				<path class="st17" d="M206.6,272.7c-3,1.7-6.3,2.9-9.7,3.5h12.2C209.2,275,208.2,273.8,206.6,272.7z"/>
				<rect x="145.1" y="254.6" class="st17" width="8.3" height="21.6"/>
				<rect x="200.9" y="254.6" class="st17" width="8.3" height="21.6"/>
				<rect x="172.9" y="261.9" class="st17" width="8.3" height="21.5"/>
				<rect x="159" y="258.4" class="st17" width="8.3" height="21.5"/>
				<rect x="186.9" y="258.4" class="st17" width="8.3" height="21.5"/>
				<polygon class="st17" points="223.5,114.9 223.5,100.8 209.1,100.8 209.1,114.9 207.7,114.9 209.4,121.1 203.8,121.1 203.8,141 
					189.1,141 189.1,154.7 161.3,154.7 161.3,197 223.6,197 223.6,114.9 				"/>
				<rect x="182.3" y="166.7" class="st21" width="20.3" height="30.2"/>
				<polygon class="st17" points="181.7,121.8 195.3,116.7 188,98 193.2,96 189.4,90.9 181.8,93.8 176.6,80.7 163.2,85.7 
					168.4,98.8 159.5,102.2 154.3,89.1 140.9,94.2 146.1,107.3 160.7,144.4 186.7,134.6 				"/>
				<rect x="140.9" y="152.1" class="st17" width="8.9" height="8.7"/>
				<rect x="136.4" y="174.3" class="st17" width="8.9" height="8.7"/>
				<rect x="133.1" y="129.6" class="st17" width="4.5" height="4.4"/>
				<rect x="204.7" y="84.8" class="st17" width="7.1" height="6.9"/>
				<rect x="232" y="138.8" class="st17" width="6.5" height="6.4"/>
				<rect x="239.1" y="170" class="st17" width="8.9" height="8.7"/>
				<path class="st22" d="M231.5,221h-78.4c-6.6,0-12-5.4-12-12l0,0c0-6.6,5.4-12,12-12h78.4c6.6,0,12,5.4,12,12l0,0
					C243.5,215.6,238.1,221,231.5,221L231.5,221z"/>
				<path class="st12" d="M138.4,215.6h105.7c2.4,0,4.4,2,4.4,4.4v2.3c0,2.4-2,4.4-4.4,4.4H138.4c-2.4,0-4.4-2-4.4-4.4v-2.3
					C134,217.6,135.9,215.6,138.4,215.6z"/>
				<circle class="st12" cx="130.2" cy="217.3" r="22.1"/>
				
					<ellipse transform="matrix(0.7655 -0.6435 0.6435 0.7655 -83.3198 206.0727)" class="st12" cx="241" cy="217.3" rx="22.1" ry="22.1"/>
				<circle class="st12" cx="157.6" cy="224.6" r="14.4"/>
				<circle class="st12" cx="218.1" cy="224.6" r="14.4"/>
				<path class="st12" d="M184.2,234.7h-14.1c-2.7,0-4.9-2.2-4.9-4.9l0,0c0-2.7,2.2-4.9,4.9-4.9h14.1c2.7,0,4.9,2.2,4.9,4.9l0,0
					C189.1,232.5,186.9,234.7,184.2,234.7z"/>
				<path class="st12" d="M183.6,223.5h20.7c2.1,0,3.8,1.7,3.8,3.8v0.5c0,2.1-1.7,3.8-3.8,3.8h-20.7c-2.1,0-3.8-1.7-3.8-3.8v-0.5
					C179.9,225.2,181.5,223.5,183.6,223.5z"/>
				<path class="st5" d="M252.4,378.3c-27.1,0-51.7-22.5-53-23.7c-4.2-4-4.4-10.7-0.3-14.9c3.9-4.1,10.4-4.4,14.7-0.5l0,0
					c0.3,0.3,30.3,27.6,51.3,14.6c4.9-3.1,11.4-1.5,14.5,3.4s1.5,11.4-3.4,14.5C269,376,260.8,378.3,252.4,378.3z"/>
				<path class="st12" d="M168.9,477H-35.9c-14.6,0-26.4-11.9-26.5-26.5l0,0c0-14.6,11.9-26.4,26.5-26.5h204.8
					c14.6,0,26.4,11.9,26.4,26.5l0,0C195.3,465.1,183.5,477,168.9,477z"/>
				<circle class="st12" cx="40.4" cy="411.2" r="65.7"/>
				<circle class="st12" cx="112.7" cy="430.1" r="46.8"/>
				<path class="st12" d="M408.7,478.1H160.5c-16.5,0-29.8-13.4-29.8-29.8v-3.5c0-16.5,13.4-29.8,29.8-29.8h248.3
					c16.5,0,29.8,13.4,29.8,29.8v3.5C438.6,464.8,425.2,478.1,408.7,478.1z"/>
				<circle class="st12" cx="315.8" cy="399.6" r="78.5"/>
				<circle class="st12" cx="229.4" cy="422.2" r="56"/>
				<path class="st15" d="M90.8,223.2H61.2c-1.2,0-2.1-0.9-2.1-2.1l0,0l0,0c0-1.2,0.9-2.1,2.1-2.1h29.6c1.2,0,2.1,0.9,2.1,2.1l0,0
					C92.9,222.3,92,223.2,90.8,223.2z"/>
				<path class="st15" d="M87.3,262.2H57.8c-1.2,0-2.1-0.9-2.1-2.1l0,0c0-1.2,0.9-2.1,2.1-2.1h29.6c1.2,0,2.1,0.9,2.1,2.1l0,0
					C89.4,261.3,88.5,262.2,87.3,262.2z"/>
				<path class="st15" d="M311.2,219.1h-30.3c-1.5,0-2.7-1.2-2.7-2.7l0,0l0,0c0-1.5,1.2-2.7,2.7-2.7l0,0h30.3c1.5,0,2.7,1.2,2.7,2.7
					l0,0l0,0C313.9,217.9,312.7,219.1,311.2,219.1L311.2,219.1z"/>
				<polygon class="st13" points="248.2,238.7 214.9,184.6 212.9,192.4 178.2,126.9 215.2,208 218.6,197.5 				"/>
			</g>
		</g>
	</g>
</g>
</svg>
