<svg xmlns="http://www.w3.org/2000/svg" xmlns:xlink="http://www.w3.org/1999/xlink" viewBox="0 0 381.76 624.74"><defs><style>.cls-1{fill:none;}.cls-2{fill:#f4b155;}.cls-3{fill:#fff0cc;}.cls-4{fill:#231f20;}.cls-5{clip-path:url(#clip-path);}.cls-6{fill:#2b3251;}.cls-7{clip-path:url(#clip-path-2);}.cls-8{fill:#655d53;}.cls-9{fill:#b29657;}.cls-10{fill:#c5a458;}.cls-11{fill:#d8b258;}.cls-12{fill:#ecc159;}.cls-13{fill:#ffd351;}.cls-14{fill:#6b3d46;}.cls-15{fill:#3d7c89;}.cls-16{fill:#4c9ba5;}.cls-17{fill:#397077;}.cls-18{fill:#fcf0a7;}.cls-19{fill:#f5b155;}.cls-20{fill:#ffd150;}.cls-21{fill:#3a335f;}.cls-22{fill:#f1f2f2;}.cls-23{fill:#e5e5e5;}.cls-24{fill:#dd4f65;}.cls-25{clip-path:url(#clip-path-3);}.cls-26{fill:#d6306a;}.cls-27{fill:#e6705f;}.cls-28{fill:#c8ba61;}.cls-29{fill:#bcbec0;}.cls-30{fill:#58595b;}.cls-31{fill:#120f12;}.cls-32{fill:#e6e7e8;}.cls-33{fill:#242424;}.cls-34{fill:#0a0601;}.cls-35{fill:#fff;}.cls-36{fill:#874600;}.cls-37{fill:#6d6e71;}.cls-38{fill:#261705;}.cls-39{fill:#121212;}.cls-40{fill:#414042;}.cls-41{fill:#030203;}</style><clipPath id="clip-path" transform="translate(0 5.59)"><rect class="cls-1" x="45.87" y="71.27" width="290.02" height="392.88" rx="40.27"/></clipPath><clipPath id="clip-path-2" transform="translate(0 5.59)"><circle class="cls-1" cx="190.26" cy="140.03" r="145.62" transform="translate(-43.29 175.55) rotate(-45)"/></clipPath><clipPath id="clip-path-3" transform="translate(0 5.59)"><path class="cls-1" d="M185.15,301.43a6.94,6.94,0,0,1,6.94-6.93c21.79,0,30.39-4.19,33.75-7.84V271.51c-3.44-7.71-10-15.85-14.15-20.07a6.94,6.94,0,0,1,0-9.81,7.15,7.15,0,0,1,1.2-.95,33,33,0,0,0-4.89-3.26l-10.41,18a8.84,8.84,0,0,1-15.31,0l-9.58-16.59a34.23,34.23,0,0,0-15.41,28.61l-7.83,166.59,83,.19L225.84,303.1c-8.13,3.53-19.34,5.27-33.75,5.27A6.94,6.94,0,0,1,185.15,301.43Z"/></clipPath></defs><g id="Layer_2" data-name="Layer 2"><g id="Layer_1-2" data-name="Layer 1"><path class="cls-2" d="M381.76,23.47v572.2c0,12.94-10.92,23.47-24.36,23.47h-333C10.93,619.14,0,608.61,0,595.67V23.47C0,10.53,10.93,0,24.35,0h333C370.84,0,381.76,10.53,381.76,23.47ZM361.3,582.06v-545a17.59,17.59,0,0,0-17.57-17.57H38A17.59,17.59,0,0,0,20.47,37.09v545A17.58,17.58,0,0,0,38,599.62h305.7A17.59,17.59,0,0,0,361.3,582.06Z" transform="translate(0 5.59)"/><rect class="cls-3" x="20.47" y="25.11" width="340.83" height="580.1" rx="17.57"/><path class="cls-4" d="M121.24,557.22a1.09,1.09,0,0,1-.26-.79v-16.1h-5.16a1.09,1.09,0,0,1-.81-.24,1.13,1.13,0,0,1-.22-.79v-.8a1.21,1.21,0,0,1,.22-.81,1,1,0,0,1,.81-.25h14.09a1.1,1.1,0,0,1,.83.25,1.15,1.15,0,0,1,.24.81v.8a1.08,1.08,0,0,1-.24.79,1.14,1.14,0,0,1-.83.24h-5.16v16.1a1.09,1.09,0,0,1-.25.79,1.13,1.13,0,0,1-.87.27H122.1A1.18,1.18,0,0,1,121.24,557.22Z" transform="translate(0 5.59)"/><path class="cls-4" d="M133.53,557.22a1.09,1.09,0,0,1-.25-.79v-17.9a1.18,1.18,0,0,1,.25-.83,1.12,1.12,0,0,1,.84-.26h1.56a1.18,1.18,0,0,1,.85.26,1.14,1.14,0,0,1,.27.83V546h9.67v-7.43a1.14,1.14,0,0,1,.27-.83,1.18,1.18,0,0,1,.85-.26h1.54a1.2,1.2,0,0,1,.85.26,1.14,1.14,0,0,1,.27.83v17.9a1.13,1.13,0,0,1-.25.79,1.16,1.16,0,0,1-.87.27h-1.54a1.14,1.14,0,0,1-.85-.27,1,1,0,0,1-.27-.79v-7.61h-9.67v7.61a1.09,1.09,0,0,1-.25.79,1.16,1.16,0,0,1-.87.27h-1.56A1.08,1.08,0,0,1,133.53,557.22Z" transform="translate(0 5.59)"/><path class="cls-4" d="M154.23,557.22a1.09,1.09,0,0,1-.25-.79v-17.9a1.18,1.18,0,0,1,.25-.83,1.12,1.12,0,0,1,.84-.26h12.26a1.1,1.1,0,0,1,.81.23,1.16,1.16,0,0,1,.23.8v.8a1.21,1.21,0,0,1-.23.81,1.06,1.06,0,0,1-.81.25h-9.58v5.72h7a1.16,1.16,0,0,1,.82.23,1.11,1.11,0,0,1,.24.8v.74a1.15,1.15,0,0,1-.24.81,1.07,1.07,0,0,1-.82.25h-7v5.75h9.55a1.1,1.1,0,0,1,.83.25,1.15,1.15,0,0,1,.24.81v.8a1,1,0,0,1-.24.76,1.14,1.14,0,0,1-.83.24H155.07A1.08,1.08,0,0,1,154.23,557.22Z" transform="translate(0 5.59)"/><path class="cls-4" d="M182.71,557.22a1.09,1.09,0,0,1-.25-.79v-17.9a1.18,1.18,0,0,1,.25-.83,1.21,1.21,0,0,1,.87-.26h1.59a1.75,1.75,0,0,1,.73.12.82.82,0,0,1,.39.47l6,13.71,6-13.71a.82.82,0,0,1,.39-.47,1.75,1.75,0,0,1,.73-.12h1.59a1.21,1.21,0,0,1,.87.26,1.18,1.18,0,0,1,.25.83v17.9a1.09,1.09,0,0,1-.25.79,1.11,1.11,0,0,1-.84.27h-1.3a1.14,1.14,0,0,1-.85-.27,1,1,0,0,1-.27-.79V543.72l-5,11.23a2.39,2.39,0,0,1-.47.68,1.16,1.16,0,0,1-.77.21,1.21,1.21,0,0,1-.78-.21A1.79,1.79,0,0,1,191,555l-5-11.23v12.71a1.09,1.09,0,0,1-.25.79,1.16,1.16,0,0,1-.87.27h-1.3A1.11,1.11,0,0,1,182.71,557.22Z" transform="translate(0 5.59)"/><path class="cls-4" d="M206.51,555.19c-1.74-1.83-2.61-4.4-2.61-7.73s.87-5.89,2.61-7.72S210.74,537,214,537s5.71.91,7.46,2.74,2.63,4.4,2.63,7.72-.88,5.9-2.63,7.73-4.23,2.74-7.46,2.74S208.25,557,206.51,555.19Zm12.19-2a10.94,10.94,0,0,0,0-11.46,6.72,6.72,0,0,0-9.45,0,10.83,10.83,0,0,0,0,11.46,6.68,6.68,0,0,0,9.45,0Z" transform="translate(0 5.59)"/><path class="cls-4" d="M228.24,555.19c-1.74-1.83-2.61-4.4-2.61-7.73s.87-5.89,2.61-7.72,4.23-2.74,7.47-2.74,5.71.91,7.46,2.74,2.63,4.4,2.63,7.72-.88,5.9-2.63,7.73-4.23,2.74-7.46,2.74S230,557,228.24,555.19Zm12.19-2a10.94,10.94,0,0,0,0-11.46,6.72,6.72,0,0,0-9.45,0,10.89,10.89,0,0,0,0,11.46,6.68,6.68,0,0,0,9.45,0Z" transform="translate(0 5.59)"/><path class="cls-4" d="M248.94,557.22a1.09,1.09,0,0,1-.25-.79v-17.9a1.18,1.18,0,0,1,.25-.83,1.21,1.21,0,0,1,.87-.26h1.36a1.4,1.4,0,0,1,.64.12,1.32,1.32,0,0,1,.48.47l9.73,13.5v-13a1.18,1.18,0,0,1,.25-.83,1.14,1.14,0,0,1,.84-.26h1.56a1.23,1.23,0,0,1,.86.26,1.18,1.18,0,0,1,.26.83v17.9a1.09,1.09,0,0,1-.25.79,1.16,1.16,0,0,1-.87.27h-1.38a1.39,1.39,0,0,1-.62-.1,1.53,1.53,0,0,1-.48-.46l-9.73-13.48v13a1.09,1.09,0,0,1-.25.79,1.13,1.13,0,0,1-.87.27h-1.56A1.11,1.11,0,0,1,248.94,557.22Z" transform="translate(0 5.59)"/><g class="cls-5"><polygon class="cls-6" points="24.94 38.48 24.94 508.12 25.09 508.12 361.3 508.12 361.3 346.14 361.3 38.48 24.94 38.48"/><polygon class="cls-6" points="31.39 44.94 31.39 514.58 31.55 514.58 367.75 514.58 367.75 352.6 367.75 44.94 31.39 44.94"/><g class="cls-7"><rect class="cls-6" x="44.64" width="291.25" height="291.25"/><circle class="cls-8" cx="190.26" cy="140.03" r="145.62" transform="translate(-43.29 181.14) rotate(-45)"/><circle class="cls-8" cx="190.26" cy="145.62" r="127.53"/><circle class="cls-9" cx="190.26" cy="140.03" r="109.44" transform="translate(-43.29 181.14) rotate(-45)"/><circle class="cls-10" cx="188.98" cy="145.62" r="91.34"/><circle class="cls-11" cx="190.26" cy="140.03" r="73.25" transform="translate(-43.29 181.14) rotate(-45)"/><circle class="cls-12" cx="190.26" cy="145.62" r="68.76"/><circle class="cls-13" cx="190.26" cy="140.03" r="24.42" transform="translate(-45.2 126.53) rotate(-31.72)"/></g><rect class="cls-14" x="20.46" y="337.48" width="340.83" height="156.2"/><ellipse class="cls-15" cx="184.46" cy="448.24" rx="157.02" ry="35.39"/><path class="cls-16" d="M247.13,422.26H216.35a2.34,2.34,0,0,1-2.32-2.33h0a2.33,2.33,0,0,1,2.32-2.32h30.78a2.33,2.33,0,0,1,2.33,2.32h0A2.34,2.34,0,0,1,247.13,422.26Z" transform="translate(0 5.59)"/><path class="cls-16" d="M101,436.19H70.19a2.33,2.33,0,0,1-2.32-2.32h0a2.34,2.34,0,0,1,2.32-2.33H101a2.34,2.34,0,0,1,2.33,2.33h0A2.33,2.33,0,0,1,101,436.19Z" transform="translate(0 5.59)"/><path class="cls-16" d="M121.56,457.53H90.78a2.32,2.32,0,0,1-2.32-2.32h0a2.33,2.33,0,0,1,2.32-2.33h30.78a2.34,2.34,0,0,1,2.33,2.33h0A2.33,2.33,0,0,1,121.56,457.53Z" transform="translate(0 5.59)"/><rect class="cls-16" x="45.04" y="448.78" width="35.43" height="4.65" rx="2.32"/><path class="cls-17" d="M234.09,439.54H138.63a5.62,5.62,0,0,1-5.61-5.61h0a5.63,5.63,0,0,1,5.61-5.61h95.46a5.63,5.63,0,0,1,5.61,5.61h0A5.63,5.63,0,0,1,234.09,439.54Z" transform="translate(0 5.59)"/><path class="cls-18" d="M143.68,169.2s.11,1.3.21,3.56c.51,11.27.81,46.5-13.8,64.87a8.4,8.4,0,0,0,3.38,13.05c24.33,9.79,79.86,27,115.47-2.16a8.4,8.4,0,0,0,2.35-9.91c-6.23-14-21.45-51.31-16.25-71.05" transform="translate(0 5.59)"/><rect class="cls-19" x="191.45" y="166.32" width="39.22" height="57.22" rx="13.02" transform="translate(422.12 395.46) rotate(180)"/><path class="cls-20" d="M198.24,414.33v-91.7a8.48,8.48,0,0,1,16.95,0v93.24c0,.09,0,.18,0,.27l6.15,1.33A5,5,0,0,1,224,419l1.29,1.42a5.06,5.06,0,0,1-3.75,8.46H201.32a5.07,5.07,0,0,1-5.06-5.06v-5.5A5,5,0,0,1,198.24,414.33Z" transform="translate(0 5.59)"/><path class="cls-20" d="M186,414.33v-91.7a8.48,8.48,0,0,0-16.95,0v93.24c0,.09,0,.18,0,.27l-6.15,1.33a5,5,0,0,0-2.69,1.55L159,420.44a5.06,5.06,0,0,0,3.74,8.46h20.23a5.07,5.07,0,0,0,5.06-5.06v-5.5A5,5,0,0,0,186,414.33Z" transform="translate(0 5.59)"/><polygon class="cls-13" points="198.39 247.15 183.35 247.15 185.32 226.46 196.19 226.46 198.39 247.15"/><path class="cls-19" d="M190.58,227.71h0a27.18,27.18,0,0,1-27.1-27.11V189.26a27.18,27.18,0,0,1,27.1-27.1h0a27.19,27.19,0,0,1,27.11,27.1V200.6A27.19,27.19,0,0,1,190.58,227.71Z" transform="translate(0 5.59)"/><rect class="cls-19" x="148.59" y="171.92" width="39.22" height="57.22" rx="13.02"/><path class="cls-13" d="M147.27,192l-2.19,6.44a3.09,3.09,0,0,0,2.93,4.09h4.38a3.09,3.09,0,0,0,2.93-4.09L153.13,192A3.09,3.09,0,0,0,147.27,192Z" transform="translate(0 5.59)"/><path class="cls-13" d="M190.58,226.21h0a27.17,27.17,0,0,1-27.1-27.1V187.77a27.18,27.18,0,0,1,27.1-27.1h0a27.19,27.19,0,0,1,27.11,27.1v11.34A27.18,27.18,0,0,1,190.58,226.21Z" transform="translate(0 5.59)"/><rect class="cls-13" x="148.59" y="171.06" width="39.22" height="57.22" rx="13.02"/><rect class="cls-21" x="154.37" y="194.74" width="6.04" height="11.58" rx="2.42"/><rect class="cls-18" x="151.71" y="188.95" width="12.1" height="3.2" rx="1.06"/><path class="cls-13" d="M232,192l2.19,6.44a3.09,3.09,0,0,1-2.93,4.09h-4.38a3.09,3.09,0,0,1-2.93-4.09l2.19-6.44A3.09,3.09,0,0,1,232,192Z" transform="translate(0 5.59)"/><rect class="cls-13" x="191.45" y="165.46" width="39.22" height="57.22" rx="13.02" transform="translate(422.12 393.74) rotate(180)"/><rect class="cls-21" x="218.85" y="189.14" width="6.04" height="11.58" rx="2.42" transform="translate(443.74 395.46) rotate(180)"/><path class="cls-21" d="M203.05,206.77h0a3.47,3.47,0,0,1-3.46-3.46V197a3.47,3.47,0,0,1,3.46-3.46h0a3.47,3.47,0,0,1,3.46,3.46v6.34A3.46,3.46,0,0,1,203.05,206.77Z" transform="translate(0 5.59)"/><rect class="cls-21" x="174.65" y="199.1" width="6.92" height="13.27" rx="2.72"/><path class="cls-19" d="M190.58,206h-2.05a2.06,2.06,0,0,1,4.11,0Z" transform="translate(0 5.59)"/><path class="cls-18" d="M207.6,191.84H197.41a1.83,1.83,0,0,1-1.83-1.83h0a1.83,1.83,0,0,1,1.83-1.83H207.6a1.84,1.84,0,0,1,1.84,1.83h0A1.84,1.84,0,0,1,207.6,191.84Z" transform="translate(0 5.59)"/><path class="cls-1" d="M227.47,284.19c1.42-3.42.46-8-1.63-12.68v15.15A8.56,8.56,0,0,0,227.47,284.19Z" transform="translate(0 5.59)"/><path class="cls-22" d="M185.15,301.43a6.94,6.94,0,0,1,6.94-6.93c21.79,0,30.39-4.19,33.75-7.84V271.51c-3.44-7.71-10-15.85-14.15-20.07a6.94,6.94,0,0,1,0-9.81,7.15,7.15,0,0,1,1.2-.95,33,33,0,0,0-4.89-3.26l-10.41,18a8.84,8.84,0,0,1-15.31,0l-9.58-16.59a34.23,34.23,0,0,0-15.41,28.61l-7.83,166.59,83,.19L225.84,303.1c-8.13,3.53-19.34,5.27-33.75,5.27A6.94,6.94,0,0,1,185.15,301.43Z" transform="translate(0 5.59)"/><path class="cls-22" d="M211.69,251.44c4.2,4.22,10.71,12.36,14.15,20.07v-4a34.16,34.16,0,0,0-12.93-26.8,7.15,7.15,0,0,0-1.2.95A6.94,6.94,0,0,0,211.69,251.44Z" transform="translate(0 5.59)"/><path class="cls-22" d="M190,268.71,227,323l-1.21-58s-.17-18.39-17.72-27.55Z" transform="translate(0 5.59)"/><path class="cls-13" d="M190,268.71,208,237.42a34.08,34.08,0,0,0-16.45-4.21h0a34.12,34.12,0,0,0-18.85,5.66Z" transform="translate(0 5.59)"/><path class="cls-18" d="M230.06,176.65H149.85a9.11,9.11,0,0,1-9.08-9.09h0a9.11,9.11,0,0,1,9.08-9.08h80.21a9.11,9.11,0,0,1,9.08,9.08h0A9.11,9.11,0,0,1,230.06,176.65Z" transform="translate(0 5.59)"/><path class="cls-23" d="M190,268.71s32.32,43.17,36.87,47.71v9.47S193.78,279.53,190,268.71Z" transform="translate(0 5.59)"/><rect class="cls-18" x="151.82" y="153.16" width="76.26" height="13.69" rx="5.02"/><path class="cls-18" d="M217.07,186.55H226a1.61,1.61,0,0,0,1.61-1.6h0a1.61,1.61,0,0,0-1.61-1.6h-8.89a1.6,1.6,0,0,0-1.6,1.6h0A1.6,1.6,0,0,0,217.07,186.55Z" transform="translate(0 5.59)"/><path class="cls-22" d="M221.51,241.64a6.93,6.93,0,0,0-8.6-1,34.16,34.16,0,0,1,12.93,26.8v4c2.09,4.71,3,9.26,1.63,12.68a8.56,8.56,0,0,1-1.63,2.47V303.1c7.19-3.12,12-7.65,14.45-13.61C248.56,269.52,224.3,244.43,221.51,241.64Z" transform="translate(0 5.59)"/><path class="cls-24" d="M153.09,209.37h-3.68a1.83,1.83,0,0,1-1.83-1.84h0a1.83,1.83,0,0,1,1.83-1.83h3.68a1.84,1.84,0,0,1,1.84,1.83h0A1.84,1.84,0,0,1,153.09,209.37Z" transform="translate(0 5.59)"/><path class="cls-24" d="M230.33,209.37h-3.68a1.84,1.84,0,0,1-1.84-1.84h0a1.84,1.84,0,0,1,1.84-1.83h3.68a1.84,1.84,0,0,1,1.84,1.83h0A1.84,1.84,0,0,1,230.33,209.37Z" transform="translate(0 5.59)"/><path class="cls-18" d="M184.85,192.29a6,6,0,0,1-3.37-1.14,7.27,7.27,0,0,0-8.73-.71,1.58,1.58,0,0,1-1.81-2.59,10.4,10.4,0,0,1,12.48.8c.08.06,1.4,1,2.25.11a1.58,1.58,0,0,1,2.24,2.23A4.21,4.21,0,0,1,184.85,192.29Z" transform="translate(0 5.59)"/><path class="cls-13" d="M192.09,294.5a6.94,6.94,0,1,0,0,13.87c13.33,0,23.9-1.49,31.85-4.5l-4-13.33C214.69,292.76,206.13,294.5,192.09,294.5Z" transform="translate(0 5.59)"/><path class="cls-22" d="M225.84,286.66a16.86,16.86,0,0,1-5.94,3.88l4,13.33c.65-.25,1.28-.5,1.9-.77Z" transform="translate(0 5.59)"/><path class="cls-13" d="M192.07,293.32c-8.65,0-19.48-1.26-24.43-6.91-1.52,2-6,7.42-11.59,10.77,7.14,7.92,19.2,11.94,36,11.94a7.9,7.9,0,0,0,0-15.8Z" transform="translate(0 5.59)"/><path class="cls-22" d="M167.64,286.41a11.38,11.38,0,0,1-1.36-1.88c-5.14-9.27,3.06-26.33,6.34-31.58a7.9,7.9,0,0,0-13.37-8.41c-1.8,2.87-17.33,28.54-6.81,47.61a27.29,27.29,0,0,0,3.61,5C161.66,293.83,166.12,288.39,167.64,286.41Z" transform="translate(0 5.59)"/><g class="cls-25"><path class="cls-23" d="M162.86,336q-1.12,28.08-2.26,56.16c-.73,18.33-1.31,36.75-6.65,54.44-.69,2.28,3.46,5.24,4.33,2.37,5.24-17.37,5.93-35.49,6.66-53.49l2.34-58.23c.1-2.46-4.29-4.51-4.42-1.25Z" transform="translate(0 5.59)"/><path class="cls-23" d="M175.76,335.47c-.33,34.7-.77,69.61-8.07,103.68-.33,1.53,3.57,1.36,3.84.1,7.35-34.26,7.83-69.34,8.15-104.23,0-1.29-3.91-1-3.92.45Z" transform="translate(0 5.59)"/><path class="cls-23" d="M212.55,336l2.34,58.24c.73,18,1.47,36.14,6.72,53.53.75,2.5,5.21,3.33,4.22,0-5.33-17.67-5.86-36.09-6.6-54.4q-1.12-28.08-2.26-56.15c-.09-2.44-4.55-4.5-4.42-1.25Z" transform="translate(0 5.59)"/><path class="cls-23" d="M200.15,335.47c.33,34.8.79,69.79,8.11,104,.3,1.4,4.2.86,3.92-.44-7.32-34.17-7.78-69.16-8.1-104,0-1.31-3.94-1-3.93.45Z" transform="translate(0 5.59)"/><path class="cls-23" d="M187.65,335.22l-.54,61c-.18,19.8-.16,39.64-3.13,59.26-.15,1,2,2.41,2.18,1,3-19.62,3-39.47,3.13-59.26l.54-61c0-1-2.17-2.38-2.18-1Z" transform="translate(0 5.59)"/></g><circle class="cls-19" cx="190.13" cy="143.12" r="36.49"/><circle class="cls-13" cx="190.13" cy="143.12" r="33.94"/><path class="cls-19" d="M204.38,123.27a34.21,34.21,0,0,1,4.39,43,34.21,34.21,0,1,0-43-52.77,34.68,34.68,0,0,0-4.39,5.38A34.21,34.21,0,0,1,204.38,123.27Z" transform="translate(0 5.59)"/><path class="cls-19" d="M214,160.32H203.17l.08-.85c.16-1.6-1.39-4.74-4.37-8.83a3.69,3.69,0,0,0-4.55-1.14,6.55,6.55,0,0,1-.69.27,4.63,4.63,0,0,1-3.77-.44,4.77,4.77,0,0,1-2.27-3.22,23.79,23.79,0,0,0-6.31-12.33c-14.58-3.53-16.09-18-16.11-18.11l1.55-.15h0c.05.56,1.46,13.6,15.11,16.79l.19,0,.15.13a24.72,24.72,0,0,1,6.95,13.33,3.24,3.24,0,0,0,1.53,2.18,3,3,0,0,0,2.5.29,3.82,3.82,0,0,0,.53-.2,5.22,5.22,0,0,1,6.44,1.63c2.87,3.95,4.43,7,4.66,9.05H214Z" transform="translate(0 5.59)"/><path class="cls-19" d="M194.4,129.13l-4.18,3.24a5.29,5.29,0,0,1,8.34-6.5Z" transform="translate(0 5.59)"/><path class="cls-24" d="M296,421.89s-4.88-3.36-7.18-1c-1.85,1.92-2.86,5-2.25,6.28,0,0,.59,1.09.93-.08s1.88-5.71,3.54-5.49,4.68,1.35,5.06,1.9S296,421.89,296,421.89Z" transform="translate(0 5.59)"/><path class="cls-24" d="M295.76,417s-5-3.07-7.6-1.57a8.63,8.63,0,0,0-4.1,5.8c-.07.64.57.69.9.26.73-1,2.89-5.56,5.55-4.86,1.87.5,3.46,1.19,4.74,1.59C295.89,418.38,295.76,417,295.76,417Z" transform="translate(0 5.59)"/><path class="cls-24" d="M296.53,415c-.08.21-4.17-1.29-4.49-1.45-2.45-1.16-4.43-3.28-3.81-6.19a3.72,3.72,0,0,1,1.18-2c.75-.42.51,1,.46,1.29-.22,1.36-.34,2.88.67,4a9.18,9.18,0,0,0,3.82,2c.7.25,1.42.49,2.11.77S296.53,415,296.53,415Z" transform="translate(0 5.59)"/><path class="cls-24" d="M298,411.93a18.5,18.5,0,0,1-5-3.3,4.45,4.45,0,0,1-.91-4.95,3.44,3.44,0,0,1,1.4-1.52c.65-.2.48.4.34.78a11.66,11.66,0,0,0-.44,1.42c-.24,1.19-.19,2.74.85,3.56a27.14,27.14,0,0,0,4.21,2.66C298.86,410.84,298,411.93,298,411.93Z" transform="translate(0 5.59)"/><path class="cls-24" d="M311.41,432.09s5,3.19,3.7,6.23c-1.05,2.46-3.53,4.6-4.91,4.53,0,0-1.24-.12-.29-.89s4.52-3.95,3.68-5.41-3.07-3.78-3.72-3.91S311.41,432.09,311.41,432.09Z" transform="translate(0 5.59)"/><path class="cls-24" d="M316,430.41s4.78,3.42,4.41,6.4a8.68,8.68,0,0,1-3.75,6c-.56.31-.86-.25-.59-.73.61-1.05,4-4.82,2.31-7-1.18-1.52-2.44-2.73-3.3-3.75C314.69,430.85,316,430.41,316,430.41Z" transform="translate(0 5.59)"/><path class="cls-24" d="M317.6,428.93c-.17.15,2.81,3.33,3.07,3.57,2,1.8,4.75,2.81,7.2,1.1a3.77,3.77,0,0,0,1.35-1.86c.09-.84-1.09-.09-1.37.09-1.17.73-2.52,1.43-3.92.92a9.28,9.28,0,0,1-3.3-2.74c-.51-.56-1-1.12-1.53-1.65S317.6,428.93,317.6,428.93Z" transform="translate(0 5.59)"/><path class="cls-24" d="M319.83,426.44a18.61,18.61,0,0,0,5,3.34,4.42,4.42,0,0,0,4.9-1.09,3.35,3.35,0,0,0,.86-1.88c-.07-.67-.55-.29-.85,0a10.24,10.24,0,0,1-1.13,1c-1,.68-2.46,1.24-3.61.6a27.48,27.48,0,0,1-4.1-2.84C320.48,425.18,319.83,426.44,319.83,426.44Z" transform="translate(0 5.59)"/><path class="cls-26" d="M303.62,399.51s1.78-5.68,8.9-3.46c0,0,2.38,1.12,1,1.32s-3.63-.74-3.69.61-.76.13-1.65,1.12-.57,1.11-2,1.43A2.75,2.75,0,0,1,303.62,399.51Z" transform="translate(0 5.59)"/><path class="cls-24" d="M305.17,401.37c0,.11.39-2.39,1.71-1.95s1.54,1.51,2.48.66.77-1.16,1.84-.82,1.76.7,2.36.08,1.67-1.11,1.46,0-4.51,6.37-8.58,4.69S305.17,401.37,305.17,401.37Z" transform="translate(0 5.59)"/><path class="cls-27" d="M299.63,406a6,6,0,0,1,1.91-6c2.9-2.31,4.2-.34,4.6,1.61s-5.15,5.22-5.33,5.14S299.63,406,299.63,406Z" transform="translate(0 5.59)"/><path class="cls-24" d="M302.8,407.23c1,1.53,1.65,4,1.2,4.82-1.4,2.46-3.54-.39-4.43-2.42-.72-1.66-.74-3.74,0-4.24S301.81,405.71,302.8,407.23Z" transform="translate(0 5.59)"/><path class="cls-26" d="M329.06,416.38s4.54-3.84-.27-9.53c0,0-2-1.76-1.6-.42s2.09,3.06.87,3.64.18.75-.39,2-.8,1-.53,2.43A2.74,2.74,0,0,0,329.06,416.38Z" transform="translate(0 5.59)"/><path class="cls-24" d="M326.75,415.68c-.11,0,2.05-1.28,1.13-2.33s-2-.83-1.57-2,.77-1.16,0-2-1.33-1.34-1-2.14.37-2-.61-1.32-4.11,6.62-1,9.72S326.75,415.68,326.75,415.68Z" transform="translate(0 5.59)"/><path class="cls-27" d="M324.65,422.58a6,6,0,0,0,4.77-4.09c1-3.57-1.32-4-3.28-3.6s-2.8,6.77-2.66,6.91S324.65,422.58,324.65,422.58Z" transform="translate(0 5.59)"/><path class="cls-24" d="M322.27,420.14c-1.79-.31-4.34,0-4.9.78-1.72,2.25,1.73,3.11,3.94,3.13,1.82,0,3.74-.78,3.9-1.68S324.06,420.46,322.27,420.14Z" transform="translate(0 5.59)"/><path class="cls-27" d="M321.41,429.94c3.24-4.9-1.05-11.68-8.59-16.68s-15.46-6.32-18.71-1.42-1.44,15.44,6.1,20.44S318.16,434.84,321.41,429.94Z" transform="translate(0 5.59)"/><path class="cls-16" d="M289.22,435.3H258.44a2.33,2.33,0,0,1-2.33-2.32h0a2.33,2.33,0,0,1,2.33-2.32h30.78a2.33,2.33,0,0,1,2.32,2.32h0A2.33,2.33,0,0,1,289.22,435.3Z" transform="translate(0 5.59)"/><path class="cls-16" d="M301.08,453.56H270.3a2.32,2.32,0,0,1-2.32-2.32h0a2.33,2.33,0,0,1,2.32-2.33h30.78a2.33,2.33,0,0,1,2.32,2.33h0A2.32,2.32,0,0,1,301.08,453.56Z" transform="translate(0 5.59)"/><ellipse class="cls-28" cx="195.99" cy="482.28" rx="37.67" ry="30.93"/><path class="cls-29" d="M149.83,391.79c15.95,2.23,22.66,27.23,33.85,30.87S194.5,418,194.5,418s5.25,15.55-13.11,18.07c-20.23,2.77-27.55-19-32-31.33S149.83,391.79,149.83,391.79Z" transform="translate(0 5.59)"/><path class="cls-29" d="M93.17,429.22s-6.84,15.69,0,20.52,7.43,9.93,4.75,13.42-9.68,9.31-9.83,12.07,5.08,4.29,9.24,4.29,6.25-2.68,6.84-9.92S109.83,453,109.83,453a12.4,12.4,0,0,0-4.47-5.9c-3.57-2.68,2.09-23.81,2.09-23.81l-5.36-6.51Z" transform="translate(0 5.59)"/><path class="cls-30" d="M165.38,326a50.21,50.21,0,0,1,.64,9.83c-.22,5-.42,8.41-.42,8.41l-6.51-1Z" transform="translate(0 5.59)"/><path class="cls-31" d="M154.34,345a52,52,0,0,1,6.33-10.33,23.68,23.68,0,0,0,4.71-8.74,15.37,15.37,0,0,1,0,7.94c-1.77,6.5-.21,8.9.23,10.3S154.34,345,154.34,345Z" transform="translate(0 5.59)"/><path class="cls-32" d="M195.52,361.12c-4.12-2.7-15.63-8.33-18.24-12.4-1.44-2.25-8.26-7.35-12.26-7.58s-6.3-1.4-12.36,1.9c-5.09,2.76-22.31,23.28-31.13,30.24,7.25,11,11.61,19.77,18.73,30.81,5.13-8.64,18.14-21.62,20-25.49,2.24-4.79,3.3-10.32,12.29-9.47,6,.56,10.55,6.34,17.6,3C195.05,369.75,200,364.05,195.52,361.12Z" transform="translate(0 5.59)"/><path class="cls-30" d="M161.86,324.49a56.38,56.38,0,0,1,1.35,10.92c.06,5.58.07,9.41.07,9.41l-7.32-.71Z" transform="translate(0 5.59)"/><path class="cls-33" d="M150.76,346.46a58.93,58.93,0,0,1,6.39-11.92,26.52,26.52,0,0,0,4.71-10.05,17.15,17.15,0,0,1,.5,8.86c-1.56,7.35-1.28,10.81-.7,12.34S150.76,346.46,150.76,346.46Z" transform="translate(0 5.59)"/><path class="cls-34" d="M195.52,361.12c-.62-.4-1.42-.88-2.31-1.39a7.55,7.55,0,0,0,2.4,8.17C198,365.75,198.66,363.19,195.52,361.12Z" transform="translate(0 5.59)"/><path class="cls-35" d="M177.86,354.33a1.45,1.45,0,0,1-.2.34v0a1.93,1.93,0,0,0,.19-.38Z" transform="translate(0 5.59)"/><polygon class="cls-36" points="177.65 360.29 177.64 360.29 177.64 360.29 177.65 360.29"/><path class="cls-36" d="M177.82,354.3h0a1.93,1.93,0,0,1-.19.38h0A.85.85,0,0,0,177.82,354.3Z" transform="translate(0 5.59)"/><path class="cls-30" d="M90.48,337.37a49.7,49.7,0,0,1-2.54,9.52c-1.81,4.65-3.1,7.82-3.1,7.82l-5.83-3Z" transform="translate(0 5.59)"/><path class="cls-4" d="M73.92,351.89a52.18,52.18,0,0,1,9.3-7.76,23.69,23.69,0,0,0,7.26-6.76,15.3,15.3,0,0,1-2.55,7.52c-3.76,5.59-3.05,8.37-3.09,9.82S73.92,351.89,73.92,351.89Z" transform="translate(0 5.59)"/><path class="cls-29" d="M44.56,372.94c3.81-3.12,14.66-9.95,16.81-14.27,1.19-2.39,7.43-8.19,11.39-8.84s6.11-2.07,12.49.56c5.35,2.2,24.66,20.77,34.17,26.75-5.38,10.39-8.75,19.55-15.34,32.64-6-8-20.33-19.57-22.56-23.22-2.73-4.53-4.37-9.92-13.23-8.11-5.88,1.2-9.81,7.42-17.19,4.84C45.94,381.48,40.43,376.33,44.56,372.94Z" transform="translate(0 5.59)"/><path class="cls-37" d="M87.63,334.84a56.13,56.13,0,0,1-2.23,10.78c-1.73,5.3-3,8.92-3,8.92l-6.7-3Z" transform="translate(0 5.59)"/><path class="cls-4" d="M70.07,352.09A58.66,58.66,0,0,1,80,342.85a26.67,26.67,0,0,0,7.68-8,17.11,17.11,0,0,1-2.38,8.55c-3.83,6.46-4.67,9.84-4.61,11.47S70.07,352.09,70.07,352.09Z" transform="translate(0 5.59)"/><path class="cls-31" d="M44.56,372.94c.57-.46,1.32-1,2.14-1.63a7.58,7.58,0,0,1-1.5,8.38C42.59,377.81,41.66,375.33,44.56,372.94Z" transform="translate(0 5.59)"/><path class="cls-35" d="M61.29,363.25a1.08,1.08,0,0,0,.24.32h0a1.63,1.63,0,0,1-.23-.35Z" transform="translate(0 5.59)"/><polygon class="cls-36" points="61.54 369.18 61.55 369.19 61.55 369.19 61.54 369.18"/><path class="cls-36" d="M61.32,363.22h0a1.63,1.63,0,0,0,.23.35h0A1,1,0,0,1,61.32,363.22Z" transform="translate(0 5.59)"/><path class="cls-38" d="M61.54,363.58Z" transform="translate(0 5.59)"/><path class="cls-32" d="M119,362c-13.09,0-29.35,12.88-30.94,22.9s-11.5,34.28-11.1,43.58-.24,33-1.19,35.78c-2,5.71-10.41,8.59-10.71,12.35s.6,7.24,5.65,5.63a5.5,5.5,0,0,0,4.71,2.91c3.27,0,3.62-2,3.62-2s-1.59.74,2.27.74a4.79,4.79,0,0,0,5.06-5.1c0-2.14-.6-12.88,0-13.95s9.13-28.44,9.72-31.12,1.49-1,2.38-3.94,20.53-3,20.53-3Z" transform="translate(0 5.59)"/><path class="cls-29" d="M144.75,429.22s6.84,15.69,0,20.52-7.44,9.93-4.76,13.42,9.68,9.31,9.84,12.07-5.08,4.29-9.24,4.29-6.25-2.68-6.85-9.92S128.09,453,128.09,453a12.34,12.34,0,0,1,4.46-5.9c3.56-2.68-2.08-23.81-2.08-23.81l5.35-6.51Z" transform="translate(0 5.59)"/><path class="cls-32" d="M119,362c13.09,0,29.35,12.88,30.93,22.9s11.5,34.28,11.1,43.58.25,33,1.2,35.78c1.94,5.71,10.41,8.59,10.7,12.35s-.59,7.24-5.65,5.63a5.48,5.48,0,0,1-4.7,2.91c-3.27,0-2.92-2.1-2.92-2.1s.89.8-3,.8-5-2.95-5-5.1.59-12.88,0-13.95-9.13-28.44-9.73-31.12-1.49-1-2.38-3.94-20.52-3-20.52-3Z" transform="translate(0 5.59)"/><path class="cls-30" d="M142.4,366.16s1.46,14.41-8.32,20.83-3.43-5.41-3.43-5.41Z" transform="translate(0 5.59)"/><path class="cls-39" d="M142.4,366.16s-6.15,8.76-13.4,9.78l4.63,6.2S140.58,382.24,142.4,366.16Z" transform="translate(0 5.59)"/><path class="cls-30" d="M96.17,366.16s-1.45,14.41,8.32,20.83,3.43-5.41,3.43-5.41Z" transform="translate(0 5.59)"/><path class="cls-29" d="M119.28,374.15c16.65,0,22.29,12.38,21,22.36s-3.19,9.92-3.19,9.92-7.23,6.22-7.93,11.32c-1.27,9.28.26,18-9.87,18Z" transform="translate(0 5.59)"/><path class="cls-29" d="M119.28,374.15c-16.64,0-22.28,12.38-21,22.36s3.2,9.92,3.2,9.92,7.23,6.22,7.93,11.32c1.27,9.28-.26,18,9.86,18Z" transform="translate(0 5.59)"/><path class="cls-39" d="M96.17,366.16s6.14,8.76,13.39,9.78l-4.63,6.2S98,382.24,96.17,366.16Z" transform="translate(0 5.59)"/><path class="cls-40" d="M114.1,418.26c-.18,9-2.29,6.33-4,6.35h0c.57,7,1.56,11.13,9.22,11.13V410.61C116.56,410.54,114.16,415.09,114.1,418.26Z" transform="translate(0 5.59)"/><path class="cls-40" d="M124.47,418.26c.08,8.79,2.29,6.33,4,6.35h0c-.58,7-1.56,11.13-9.23,11.13V410.61C122,410.54,124.44,415.09,124.47,418.26Z" transform="translate(0 5.59)"/><path class="cls-41" d="M121.73,433.43c.49-.84,2-1,2.25-1.43.57-.77.23-3.63-4.7-3.63s-5.25,2.86-4.7,3.63c.29.39,1.76.59,2.25,1.43a3.14,3.14,0,0,1,.09,2.06,10.89,10.89,0,0,0,4.73,0A3.07,3.07,0,0,1,121.73,433.43Z" transform="translate(0 5.59)"/><path class="cls-35" d="M127.42,398.67a1.3,1.3,0,0,0,.24.41s0,0,0,0a2.13,2.13,0,0,1-.23-.45Z" transform="translate(0 5.59)"/><path class="cls-36" d="M127.67,399.1h0Z" transform="translate(0 5.59)"/><path class="cls-36" d="M127.67,399.1Z" transform="translate(0 5.59)"/><path class="cls-36" d="M127.46,398.64h0a2.13,2.13,0,0,0,.23.45h0A1.07,1.07,0,0,1,127.46,398.64Z" transform="translate(0 5.59)"/><path class="cls-38" d="M127.67,399.1Z" transform="translate(0 5.59)"/><path class="cls-35" d="M111.15,398.67a1.52,1.52,0,0,1-.24.41s0,0,0,0a1.7,1.7,0,0,0,.22-.45Z" transform="translate(0 5.59)"/><path class="cls-36" d="M110.9,399.1h0Z" transform="translate(0 5.59)"/><path class="cls-40" d="M172.23,350.79c-1.71,2.52-1.6,5.58.24,6.82s4.71.2,6.42-2.33Z" transform="translate(0 5.59)"/><path class="cls-40" d="M107.22,395.82c-1.7,2.53-1.6,5.58.25,6.83s4.71.2,6.41-2.33Z" transform="translate(0 5.59)"/><path class="cls-40" d="M129.53,395.82c1.71,2.53,1.6,5.58-.24,6.83s-4.71.2-6.42-2.33Z" transform="translate(0 5.59)"/><path class="cls-40" d="M66.9,360.83c1.71,2.52,1.6,5.58-.24,6.82s-4.72.2-6.42-2.33Z" transform="translate(0 5.59)"/><path class="cls-19" d="M190.5,215.06a25.46,25.46,0,0,1-7.43-1,1.05,1.05,0,0,1,.67-2,25.14,25.14,0,0,0,13.19.08,1.05,1.05,0,1,1,.57,2A26.48,26.48,0,0,1,190.5,215.06Z" transform="translate(0 5.59)"/></g></g></g></svg>