<?xml version="1.0" encoding="utf-8"?>
<!-- Generator: Adobe Illustrator 25.2.3, SVG Export Plug-In . SVG Version: 6.00 Build 0)  -->
<svg version="1.1" id="Layer_1" xmlns="http://www.w3.org/2000/svg" xmlns:xlink="http://www.w3.org/1999/xlink" x="0px" y="0px"
	 viewBox="0 0 381.8 619.1" style="enable-background:new 0 0 381.8 619.1;" xml:space="preserve">
<style type="text/css">
	.st0{fill:#F4B155;}
	.st1{fill:#FFF0CC;}
	.st2{fill:#231F20;}
	.st3{clip-path:url(#SVGID_2_);}
	.st4{fill:#5BA587;}
	.st5{fill:none;}
	.st6{fill:#A4F6FF;}
	.st7{fill:#FFFFFF;}
	.st8{fill:#60B28F;}
	.st9{fill:#8ECC95;}
	.st10{fill:#88BF8C;}
	.st11{fill:#6B3D46;}
	.st12{fill:#334F42;}
	.st13{fill:#395B4C;}
	.st14{fill:#EE915B;}
	.st15{fill:#FFD351;}
	.st16{fill:#F5B155;}
	.st17{fill:#E6705F;}
	.st18{fill:#FFB852;}
	.st19{fill:#FF8F33;}
	.st20{fill:#DD4F65;}
	.st21{fill:#FFE98F;}
	.st22{fill:#F9C441;}
	.st23{fill:#FFA73E;}
	.st24{fill:#FFD150;}
	.st25{fill:#4A355B;}
	.st26{fill:#F49E40;}
	.st27{fill:#00A79D;}
	.st28{fill:#D6306A;}
</style>
<g id="Layer_2_1_">
	<g id="Layer_1-2">
		<path class="st0" d="M381.8,23.5v572.2c0,12.9-10.9,23.5-24.4,23.5h-333C10.9,619.1,0,608.6,0,595.7V23.5C0,10.5,10.9,0,24.4,0
			h333C370.8,0,381.8,10.5,381.8,23.5z M361.3,582.1v-545c0-9.7-7.9-17.6-17.6-17.6H38c-9.7,0-17.5,7.9-17.5,17.6v545
			c0,9.7,7.9,17.5,17.5,17.5h305.7C353.4,599.6,361.3,591.8,361.3,582.1z"/>
		<path class="st1" d="M38,19.5h305.7c9.7,0,17.6,7.9,17.6,17.6v545c0,9.7-7.9,17.6-17.6,17.6H38c-9.7,0-17.6-7.9-17.6-17.6v-545
			C20.5,27.4,28.3,19.5,38,19.5z"/>
		<path class="st2" d="M139.1,556.5c-0.2-0.2-0.3-0.5-0.2-0.7v-15h-4.8c-0.4,0.1-0.9-0.1-1-0.5c0-0.2,0-0.3,0-0.5v-0.7
			c0-0.3,0-0.5,0.2-0.8c0.2-0.2,0.5-0.3,0.8-0.2h13.1c0.3,0,0.6,0.1,0.8,0.2c0.2,0.2,0.2,0.5,0.2,0.8v0.7c0,0.3-0.1,0.5-0.2,0.7
			c-0.2,0.2-0.5,0.2-0.8,0.2h-4.8v15c0,0.3-0.1,0.5-0.2,0.7c-0.2,0.2-0.5,0.3-0.8,0.2h-1.4C139.6,556.8,139.3,556.7,139.1,556.5z"/>
		<path class="st2" d="M150.5,556.5c-0.2-0.2-0.3-0.5-0.2-0.7v-16.6c0-0.3,0.1-0.6,0.2-0.8c0.2-0.2,0.5-0.3,0.8-0.2h1.4
			c0.3,0,0.6,0.1,0.8,0.2c0.2,0.2,0.3,0.5,0.2,0.8v6.9h9v-6.9c0-0.3,0.1-0.6,0.2-0.8c0.2-0.2,0.5-0.3,0.8-0.2h1.4
			c0.3,0,0.6,0.1,0.8,0.2c0.2,0.2,0.3,0.5,0.2,0.8v16.6c0,0.3-0.1,0.5-0.2,0.7c-0.2,0.2-0.5,0.3-0.8,0.2h-1.4
			c-0.3,0-0.6-0.1-0.8-0.2c-0.2-0.2-0.3-0.5-0.2-0.7v-7.1h-9v7.1c0,0.3-0.1,0.5-0.2,0.7c-0.2,0.2-0.5,0.3-0.8,0.2h-1.4
			C151,556.8,150.7,556.7,150.5,556.5z"/>
		<path class="st2" d="M169.7,556.5c-0.2-0.2-0.3-0.5-0.2-0.7v-16.6c0-0.3,0.1-0.6,0.2-0.8c0.2-0.2,0.5-0.3,0.8-0.2h11.4
			c0.3,0,0.5,0,0.8,0.2c0.2,0.2,0.2,0.5,0.2,0.7v0.7c0,0.3,0,0.5-0.2,0.8c-0.2,0.2-0.5,0.3-0.8,0.2H173v5.3h6.5c0.3,0,0.6,0,0.8,0.2
			c0.2,0.2,0.2,0.5,0.2,0.7v0.7c0,0.3-0.1,0.5-0.2,0.8c-0.2,0.2-0.5,0.3-0.8,0.2H173v5.3h8.9c0.3,0,0.6,0,0.8,0.2
			c0.2,0.2,0.2,0.5,0.2,0.8v0.7c0,0.3-0.1,0.5-0.2,0.7c-0.2,0.2-0.5,0.3-0.8,0.2h-11.4C170.2,556.8,169.9,556.7,169.7,556.5z"/>
		<path class="st2" d="M198.8,556.8c-1.1-0.2-2.1-0.6-3-1.2c-0.2-0.2-0.4-0.3-0.4-0.4c0-0.1,0-0.2,0.1-0.3l0.9-1.4
			c0.1-0.2,0.2-0.2,0.3-0.2c0.1,0,0.2,0.1,0.4,0.1c0.7,0.4,1.5,0.8,2.4,1c0.9,0.2,1.8,0.4,2.7,0.4c1,0.1,2-0.2,2.8-0.6
			c0.7-0.4,1-1.2,0.9-2c0-0.5-0.1-0.9-0.4-1.3c-0.3-0.4-0.6-0.6-1.1-0.8c-0.4-0.2-1.2-0.5-2.2-1l-0.6-0.2c-1-0.4-2-0.8-2.9-1.4
			c-0.8-0.4-1.4-1-1.9-1.7c-0.5-0.8-0.8-1.7-0.8-2.6c-0.1-1.5,0.6-3,1.9-3.8c1.5-1,3.2-1.4,5-1.4c1.1,0,2.2,0.1,3.3,0.4
			c0.9,0.2,1.7,0.6,2.4,1.1c0.2,0.2,0.3,0.3,0.3,0.5c0,0.1,0,0.2-0.1,0.3l-0.9,1.4c-0.1,0.2-0.2,0.2-0.3,0.2c-0.1,0-0.2-0.1-0.4-0.2
			c-1.3-0.8-2.8-1.2-4.4-1.1c-0.9-0.1-1.8,0.2-2.6,0.6c-0.6,0.5-0.9,1.2-0.9,2c0,0.5,0.1,1,0.4,1.4c0.3,0.4,0.7,0.7,1.1,0.9
			c0.5,0.2,1.2,0.6,2.3,1l0.7,0.3c1.1,0.4,2.1,0.9,3.1,1.5c0.7,0.4,1.3,1,1.7,1.7c0.4,0.8,0.7,1.7,0.6,2.6c0.1,1.5-0.6,2.8-1.8,3.7
			c-1.5,1-3.2,1.5-5,1.3C201.3,557.2,200.1,557,198.8,556.8z"/>
		<path class="st2" d="M215.9,556.3c-2.5-1-4.1-3.5-4-6.2v-11c0-0.3,0.1-0.6,0.2-0.8c0.2-0.2,0.5-0.3,0.8-0.2h1.4
			c0.3,0,0.6,0.1,0.8,0.2c0.2,0.2,0.3,0.5,0.2,0.8v11.1c-0.1,1.2,0.4,2.4,1.2,3.2c1,0.8,2.3,1.2,3.6,1.1c1.3,0.1,2.5-0.3,3.5-1.1
			c0.9-0.8,1.3-2,1.2-3.2v-11.1c0-0.3,0.1-0.6,0.2-0.8c0.2-0.2,0.5-0.3,0.8-0.2h1.4c0.7,0,1.1,0.3,1.1,1v11c0,1.3-0.3,2.6-1.1,3.7
			c-0.7,1.1-1.8,1.9-2.9,2.4c-1.4,0.6-2.8,0.9-4.3,0.8C218.7,557.2,217.3,556.9,215.9,556.3z"/>
		<path class="st2" d="M231.9,556.5c-0.2-0.2-0.3-0.5-0.2-0.7v-16.6c0-0.3,0.1-0.6,0.2-0.8c0.2-0.2,0.5-0.3,0.8-0.2h1.3
			c0.2,0,0.4,0,0.6,0.1c0.2,0.1,0.3,0.3,0.4,0.4l9,12.5v-12.1c0-0.3,0.1-0.6,0.2-0.8c0.2-0.2,0.5-0.3,0.8-0.2h1.4
			c0.3,0,0.6,0.1,0.8,0.2c0.2,0.2,0.3,0.5,0.2,0.8v16.6c0,0.3-0.1,0.5-0.2,0.7c-0.2,0.2-0.5,0.3-0.8,0.2h-1.3c-0.2,0-0.4,0-0.6-0.1
			c-0.2-0.1-0.3-0.3-0.4-0.4l-9-12.5v12c0,0.3-0.1,0.5-0.2,0.7c-0.2,0.2-0.5,0.3-0.8,0.2h-1.4C232.4,556.8,232.1,556.7,231.9,556.5z
			"/>
		<g>
			<defs>
				<path id="SVGID_1_" d="M86.1,71.3h209.5c22.2,0,40.3,18,40.3,40.3v312.3c0,22.2-18,40.3-40.3,40.3H86.1
					c-22.2,0-40.3-18-40.3-40.3V111.5C45.9,89.3,63.9,71.3,86.1,71.3z"/>
			</defs>
			<clipPath id="SVGID_2_">
				<use xlink:href="#SVGID_1_"  style="overflow:visible;"/>
			</clipPath>
			<g class="st3">
				<rect x="47.5" y="468.7" class="st4" width="287.5" height="32.4"/>
				<rect x="47.5" y="-5.3" class="st5" width="287.5" height="506.4"/>
				<polygon class="st6" points="342.6,1.8 40.5,1.8 40.5,321.4 40.5,358.4 40.5,533.6 342.4,533.6 342.4,358.4 342.6,358.4 				"/>
				<path class="st7" d="M248.3,286H341c6.6,0,12-5.4,12-12l0,0c0-6.6-5.4-12-12-12h-92.7c-6.6,0-12,5.4-12,12l0,0
					C236.3,280.6,241.7,286,248.3,286C248.3,286,248.3,286,248.3,286z"/>
				<circle class="st7" cx="306.5" cy="256.2" r="29.8"/>
				<circle class="st7" cx="273.7" cy="264.8" r="21.2"/>
				<path class="st7" d="M37.1,252.8h121c6.6,0,12,5.4,12,12v5.8c0,6.6-5.4,12-12,12h-121c-6.6,0-12-5.4-12-12v-5.8
					C25.1,258.2,30.5,252.8,37.1,252.8z"/>
				<circle class="st7" cx="82.9" cy="245.6" r="37"/>
				<circle class="st7" cx="123.6" cy="256.2" r="26.3"/>
				<polygon class="st4" points="42.4,287.2 73.8,266.6 127.2,279.5 163.4,248.9 224.9,272.9 263.9,255.9 338,290.3 338,364.9 
					42.4,364.9 				"/>
				<polygon class="st8" points="40,315.9 115,269.6 173.4,298.7 230.5,259.6 292.7,290.3 338,266.6 338,364.9 42.4,364.9 				"/>
				<polygon class="st9" points="340.2,327.9 38.2,327.9 38.2,453.4 38.2,468 38.2,536.8 340.1,536.8 340.1,468 340.2,468 				"/>
				<path class="st10" d="M275.2,342.6h36.4c1.6,0,2.9,1.3,2.9,2.9v0.2c0,1.6-1.3,2.9-2.9,2.9h-36.4c-1.6,0-2.9-1.3-2.9-2.9v-0.2
					C272.2,343.9,273.6,342.6,275.2,342.6z"/>
				<path class="st10" d="M245.6,338H282c1.6,0,2.9,1.3,2.9,2.9v0.2c0,1.6-1.3,2.9-2.9,2.9h-36.4c-1.6,0-2.9-1.3-2.9-2.9v-0.2
					C242.6,339.3,243.9,338,245.6,338z"/>
				<path class="st11" d="M291.4,311.9L291.4,311.9c1.6,0,2.9,1.3,2.9,2.9v28.5c0,1.6-1.3,2.9-2.9,2.9l0,0c-1.6,0-2.9-1.3-2.9-2.9
					v-28.5C288.5,313.2,289.8,311.9,291.4,311.9z"/>
				<path class="st11" d="M262.4,342.8L262.4,342.8c-1.3,0-2.4-1.1-2.4-2.4v-23.4c0-1.3,1.1-2.4,2.4-2.4l0,0c1.3,0,2.4,1.1,2.4,2.4
					v23.4C264.8,341.8,263.7,342.8,262.4,342.8z"/>
				<path class="st12" d="M262.4,324.5L262.4,324.5c-10.5,0-19-8.5-19-19v-24.2c0-10.5,8.5-19,19-19l0,0l0,0c10.5,0,19,8.5,19,19
					l0,0v24.2C281.4,316,272.9,324.5,262.4,324.5z"/>
				<path class="st10" d="M39.9,354.4h298c7,0,12.6,5.7,12.6,12.6v1.3c0,7-5.7,12.6-12.6,12.6h-298c-7,0-12.6-5.7-12.6-12.6V367
					C27.3,360,33,354.4,39.9,354.4z"/>
				<path class="st13" d="M291.4,248L291.4,248c12.8,0,23.1,10.4,23.1,23.1v29.5c0,12.8-10.4,23.1-23.1,23.1h0
					c-12.8,0-23.1-10.4-23.1-23.1v-29.5C268.2,258.3,278.6,248,291.4,248z"/>
				<path class="st10" d="M59.3,450h183.3c6.9,0,12.5,5.6,12.5,12.5v3.4c0,6.9-5.6,12.5-12.5,12.5H59.3c-6.9,0-12.5-5.6-12.5-12.5
					v-3.4C46.9,455.5,52.5,450,59.3,450z"/>
				<rect x="37.7" y="156.2" class="st14" width="36" height="211.2"/>
				<rect x="308.1" y="156.2" class="st14" width="36" height="211.2"/>
				<path class="st15" d="M32.3,359.3h48.3c3.1,0,5.7,2.5,5.7,5.6v2.1c0,3.1-2.5,5.6-5.7,5.6H32.3c-3.1,0-5.7-2.5-5.7-5.6v-2.1
					C26.7,361.8,29.2,359.3,32.3,359.3z"/>
				<path class="st15" d="M303.2,359.3h48.3c3.1,0,5.6,2.5,5.6,5.6v2.1c0,3.1-2.5,5.6-5.6,5.6h-48.3c-3.1,0-5.6-2.5-5.6-5.6v-2.1
					C297.6,361.8,300.1,359.3,303.2,359.3z"/>
				<polygon class="st15" points="190.9,56.3 0,157.4 381.8,157.4 				"/>
				<polygon class="st16" points="190.9,71.3 56.4,142.5 325.4,142.5 				"/>
				<rect x="-1.2" y="151.7" class="st14" width="383" height="7.8"/>
				<path class="st15" d="M317,169.9h0.6c0.9,0,1.6,0.7,1.6,1.6v180c0,0.9-0.7,1.6-1.6,1.6H317c-0.9,0-1.6-0.7-1.6-1.6v-180
					C315.4,170.7,316.1,169.9,317,169.9z"/>
				<path class="st15" d="M325.8,169.9h0.6c0.9,0,1.6,0.7,1.6,1.6v180c0,0.9-0.7,1.6-1.6,1.6h-0.6c-0.9,0-1.6-0.7-1.6-1.6v-180
					C324.3,170.7,325,169.9,325.8,169.9z"/>
				<path class="st15" d="M335.1,169.9h0.6c0.9,0,1.6,0.7,1.6,1.6v180c0,0.9-0.7,1.6-1.6,1.6h-0.6c-0.9,0-1.6-0.7-1.6-1.6v-180
					C333.5,170.7,334.3,169.9,335.1,169.9z"/>
				<path class="st15" d="M46.8,169.9h0.6c0.9,0,1.6,0.7,1.6,1.6v180c0,0.9-0.7,1.6-1.6,1.6h-0.6c-0.9,0-1.6-0.7-1.6-1.6v-180
					C45.3,170.7,46,169.9,46.8,169.9z"/>
				<path class="st15" d="M55.7,169.9h0.6c0.9,0,1.6,0.7,1.6,1.6v180c0,0.9-0.7,1.6-1.6,1.6h-0.6c-0.9,0-1.6-0.7-1.6-1.6v-180
					C54.1,170.7,54.8,169.9,55.7,169.9z"/>
				<path class="st15" d="M65,169.9h0.6c0.9,0,1.6,0.7,1.6,1.6v180c0,0.9-0.7,1.6-1.6,1.6H65c-0.9,0-1.6-0.7-1.6-1.6v-180
					C63.4,170.7,64.1,169.9,65,169.9z"/>
				<rect x="308.1" y="159.4" class="st17" width="36" height="10.5"/>
				<rect x="37.7" y="159.4" class="st17" width="36" height="10.5"/>
				<path class="st18" d="M143.2,228.5c0,0-27-53.5-61.3-19.3c-16.7,16.7-25.6,44.7-24,73.3c2,34.9,2.2,92-13.5,124.9
					c0,0,59.8-14.9,97.8-67.9"/>
				<path class="st15" d="M156.7,225.9c0,0,24.7-48.9,56-17.6c15.3,15.2,23.4,40.9,21.9,67c-1.8,31.8-2,84,12.4,114.1
					c0,0-54.6-13.6-89.3-62"/>
				<path class="st19" d="M218.9,312.5c-4,0-7.3-2.9-7.8-6.9c-5-38.3-48-84.6-48.5-85.1c-3-3.1-2.9-8.1,0.2-11.2
					c3.1-3,8.1-2.9,11.2,0.2c0.1,0.1,0.1,0.1,0.2,0.2c1.9,2,46.9,50.5,52.6,93.8c0.6,4.3-2.5,8.3-6.8,8.9
					C219.6,312.5,219.3,312.5,218.9,312.5z"/>
				<path class="st20" d="M21.6,341.4l86.8,54.6c0.2-0.3,0.3-0.6,0.5-0.9l-86.8-54.5L21.6,341.4z"/>
				<path class="st20" d="M121.3,420.1c2.1-3.1,1.2-7.4-1.9-9.5c-3-2-7-1.3-9.2,1.5c-0.8-3.1,1.3-8,4.6-13.2
					c14.1-22.4,3.5-54.5-23.6-71.5s-60.6-12.7-74.7,9.7c-3.3,5.2-7,9-10.2,9.6c1.5-3.1,0.4-6.8-2.5-8.7c-3.2-2-7.4-1-9.4,2.1
					c0,0,0,0,0,0c-1.8,2.9-1.2,6.7,1.4,8.9l-0.1,0.1c0.8,0.8,1.7,1.6,2.7,2.2c2.4,1.5,5.1,2.2,7.9,2c5.5-0.5,11.1-5.3,15.8-12.7l0,0
					c12.7-19.1,42.5-23.2,66.1-8.4s32.4,43.2,20.8,63l0,0c-4.7,7.4-6.5,14.6-4.6,19.7c1,2.6,2.9,4.8,5.3,6.3c0.9,0.6,1.8,1,2.8,1.4
					C115.6,424.1,119.4,423.1,121.3,420.1z"/>
				<path class="st21" d="M106.6,212.2l-27,3.2c-1,0.1-1.8-0.6-1.9-1.5c-0.1-0.7,0.2-1.3,0.8-1.7L99.3,198c0.8-0.5,1-1.6,0.4-2.4
					c-0.3-0.5-0.9-0.8-1.4-0.7l-20.8,0.5c-1,0-1.8-0.7-1.8-1.7c0-0.8,0.5-1.5,1.2-1.7l21.1-7.1c0.9-0.3,1.4-1.3,1.1-2.2
					c-0.2-0.6-0.7-1.1-1.4-1.2l-22.7-4.3c-0.9-0.2-1.6-1.1-1.4-2c0.1-0.7,0.7-1.3,1.5-1.4l27.4-4c1-0.1,1.6-1,1.5-2
					c-0.1-0.5-0.3-0.9-0.7-1.2l-29.7-20.8c-0.8-0.6-1-1.6-0.4-2.4c0.3-0.5,0.9-0.7,1.4-0.7l29.9,0.8c1,0,1.8-0.7,1.8-1.7
					c0-0.2,0-0.5-0.1-0.7L94.3,110c-0.3-0.9,0.1-1.9,1-2.2c0.6-0.2,1.3-0.1,1.8,0.4l19.1,18.3c0.7,0.7,1.8,0.6,2.5-0.1
					c0.3-0.3,0.5-0.8,0.5-1.2l-0.2-28.4c0-1,0.8-1.7,1.7-1.7c0.7,0,1.3,0.4,1.6,0.9l13,25.6c0.4,0.9,1.5,1.2,2.3,0.8
					c0.5-0.2,0.8-0.7,0.9-1.2l8.1-44.9c0.2-0.9,1.1-1.6,2-1.4c0.8,0.1,1.3,0.7,1.4,1.5l5.4,45.1c0.1,1,1,1.6,1.9,1.5
					c0.6-0.1,1.1-0.4,1.3-1L180.9,76c0.4-0.9,1.4-1.2,2.3-0.8c0.7,0.3,1.1,1,1,1.8l-4.5,46.2c-0.1,1,0.6,1.8,1.6,1.9
					c0.3,0,0.6,0,0.8-0.1l28.1-11.5c0.9-0.4,1.9,0.1,2.3,1c0.2,0.5,0.2,1.1-0.2,1.6l-24.5,35.9c-0.5,0.8-0.3,1.9,0.4,2.4
					c0.2,0.1,0.4,0.2,0.7,0.3l29.7,5.9c0.9,0.2,1.5,1.1,1.4,2.1c-0.1,0.7-0.7,1.2-1.4,1.4l-27.1,4.9c-0.9,0.2-1.6,1.1-1.4,2
					c0.1,0.6,0.5,1.1,1.1,1.3l26,10c0.9,0.3,1.4,1.3,1,2.2c-0.3,0.8-1.1,1.2-1.9,1.1l-17.4-2.5c-1-0.1-1.8,0.5-2,1.5
					c-0.1,0.8,0.3,1.5,1.1,1.8l13,5.3c0.9,0.4,1.3,1.4,0.9,2.3c-0.3,0.7-1,1.1-1.7,1.1l-14.7-1.3c-1-0.1-1.8,0.6-1.9,1.6
					c-0.1,0.7,0.3,1.4,1,1.7l30.1,13.6c0.9,0.4,1.3,1.4,0.9,2.3c-0.3,0.7-1,1.1-1.8,1l-35.1-4.1c-1-0.1-1.8,0.6-1.9,1.5
					c0,0.4,0,0.7,0.2,1.1l9.2,16.3c0.5,0.8,0.2,1.9-0.7,2.4c-0.6,0.4-1.4,0.3-2-0.2l-7.9-7.1c-0.7-0.6-1.8-0.6-2.5,0.1
					c-0.4,0.5-0.6,1.1-0.4,1.7l4.6,13.3c0.3,0.9-0.2,1.9-1.1,2.2c-0.7,0.2-1.4,0-1.9-0.5l-20.9-27.2c-0.5-0.6-1.3-0.8-2.1-0.5
					l-12.2,5.1c-0.3,0.1-0.6,0.2-0.9,0.1l-17.3-2.6c-0.4-0.1-0.7-0.2-1-0.5l-1.4-1.4c-0.7-0.7-1.8-0.7-2.5,0l-28.6,28.6
					c-0.7,0.7-1.8,0.7-2.5,0c-0.5-0.5-0.6-1.2-0.4-1.9L106.6,212.2"/>
				<path class="st22" d="M153.2,253.1h-41.8l0,0V144.2l0,0h71.3l0,0v79.4C182.8,239.9,169.5,253.1,153.2,253.1
					C153.2,253.1,153.2,253.1,153.2,253.1z"/>
				<path class="st23" d="M154.9,460.2v-99.4c0.2-4.8,4.2-8.6,9-8.4c4.6,0.2,8.2,3.8,8.4,8.4v100.9c0,0.1,0,0.2,0,0.3l6.3,1.3
					c1.1,0.2,2,0.8,2.8,1.5l1.3,1.4c1.9,2,1.8,5.2-0.2,7.1c-1,0.9-2.3,1.4-3.6,1.3H158c-2.8,0-5.1-2.2-5.2-5v-5.5
					C152.8,462.6,153.6,461.1,154.9,460.2z"/>
				<path class="st23" d="M109,466.2l1.3-1.4c0.7-0.8,1.7-1.3,2.8-1.5l6.3-1.3c0-0.1,0-0.2,0-0.3V360.8c0.2-4.8,4.2-8.6,9-8.4
					c4.6,0.2,8.2,3.8,8.4,8.4v99.4c1.3,0.9,2,2.4,2,4v5.5c-0.1,2.8-2.4,5-5.2,5h-20.7c-2.8,0.1-5.1-2-5.2-4.8
					C107.6,468.5,108.1,467.2,109,466.2z"/>
				<path class="st24" d="M151.5,340.1h-11.4c-15.2,0-27.5-12.3-27.5-27.5v-79.5c0-15.2,12.3-27.5,27.5-27.5h11.4
					c15.2,0,27.5,12.3,27.5,27.5v79.5C179,327.8,166.7,340.1,151.5,340.1z"/>
				<path class="st7" d="M165.9,209.4c0,0.3,0,0.6,0,0.9c0,29.2-24.4,52.9-54.5,52.9c-2,0-4-0.1-6-0.3v120.8h80.8V243.3
					C186.1,229.2,178.3,216.2,165.9,209.4z"/>
				<path class="st23" d="M166,210.3c0-0.3,0-0.6,0-0.9c-6.1-3.5-13.1-5.3-20.1-5.3l0,0c-22.2,0-40.4,17.6-40.4,39.2v19.5
					c2,0.2,4,0.3,6,0.3C141.6,263.2,166,239.5,166,210.3z"/>
				<ellipse class="st23" cx="175.8" cy="173.7" rx="7.7" ry="7.4"/>
				<path class="st19" d="M180.4,173.7c0.1,2.6-1.9,4.7-4.5,4.8c-2.6,0.1-4.7-1.9-4.8-4.5c-0.1-2.6,1.9-4.7,4.5-4.8
					c0.1,0,0.1,0,0.2,0C178.3,169.2,180.4,171.2,180.4,173.7C180.4,173.7,180.4,173.7,180.4,173.7z"/>
				<path class="st19" d="M149.2,215.2L149.2,215.2c-15.7,0.8-29.2-11.1-29.9-26.3l-1.4-27.5c-0.8-15.2,11.4-28.3,27.1-29.1l0,0
					c15.7-0.8,29.2,11.1,29.9,26.3l1.4,27.5C177.1,201.3,164.9,214.4,149.2,215.2z"/>
				<path class="st23" d="M149.2,212.1L149.2,212.1c-15.7,0.8-29.2-11.1-29.9-26.3l-1.4-27.5c-0.8-15.2,11.4-28.3,27.1-29l0,0
					c15.7-0.8,29.2,11.1,29.9,26.3l1.4,27.5C177.1,198.3,164.9,211.4,149.2,212.1z"/>
				<polygon class="st22" points="111.5,216.2 124.9,208.4 124.9,158.5 111.5,158.5 				"/>
				<path class="st25" d="M142,167.1h0.9c1.2,0,2.1,0.9,2.1,2.1v5c0,1.2-0.9,2.1-2.1,2.1H142c-1.2,0-2.1-0.9-2.1-2.1v-5
					C139.9,168.1,140.9,167.1,142,167.1z"/>
				<path class="st25" d="M163.2,167.1h0.9c1.2,0,2.1,0.9,2.1,2.1v5c0,1.2-0.9,2.1-2.1,2.1h-0.9c-1.2,0-2.1-0.9-2.1-2.1v-5
					C161.1,168.1,162.1,167.1,163.2,167.1z"/>
				<path class="st22" d="M122,158.5h50c8.2,0,14.9-6.7,14.9-14.9l0,0c0-8.2-6.7-14.9-14.9-14.9h-50c-8.2,0.1-14.8,6.7-14.9,14.9
					l0,0C107.1,151.8,113.8,158.4,122,158.5z"/>
				<ellipse class="st23" cx="123.8" cy="172.6" rx="7.7" ry="7.4"/>
				<path class="st19" d="M128.5,172.6c0.1,2.6-1.9,4.7-4.5,4.8c-2.6,0.1-4.7-1.9-4.8-4.5c-0.1-2.6,1.9-4.7,4.5-4.8
					c0.1,0,0.1,0,0.2,0C126.3,168.1,128.4,170.1,128.5,172.6C128.5,172.6,128.5,172.6,128.5,172.6z"/>
				<path class="st22" d="M170.3,166.5l-8.7-1.5c-0.7-0.1-1.1-0.8-1-1.5l0.1-0.5c0.1-0.7,0.8-1.1,1.5-1l8.7,1.5
					c0.7,0.1,1.1,0.8,1,1.5l-0.1,0.5C171.7,166.2,171,166.6,170.3,166.5z"/>
				<path class="st22" d="M146.5,164.5l-10.1,2.5c-0.7,0.2-1.4-0.2-1.5-0.9l-0.1-0.5c-0.2-0.7,0.2-1.4,0.9-1.5l10.1-2.5
					c0.7-0.2,1.4,0.2,1.5,0.9l0.1,0.5C147.6,163.6,147.2,164.3,146.5,164.5z"/>
				<path class="st26" d="M149.8,178.2c-0.1,0.4,0.1,0.7,0.5,0.8c0,0,0.1,0,0.1,0h5.1c0.4,0,0.7-0.4,0.6-0.8c0,0,0-0.1,0-0.1
					c-0.1-0.3-0.2-0.7-0.4-1c-0.1-0.3-0.3-0.6-0.6-0.8h-0.1c0,0.1,0,0.1,0,0.2c0-0.1,0-0.2,0-0.3l0,0c-1.2-1.2-3.1-1.2-4.2,0
					c-0.1,0.1-0.1,0.1-0.2,0.2l0,0c0,0,0,0.1,0,0.1l0,0c0,0,0-0.1-0.1,0C150.2,177,150,177.6,149.8,178.2z M150.7,176.8
					c0,0,0-0.1,0-0.1C150.7,176.7,150.7,176.7,150.7,176.8L150.7,176.8z M155.2,176.8C155.2,176.8,155.2,176.7,155.2,176.8
					C155.2,176.6,155.2,176.7,155.2,176.8L155.2,176.8z M155.2,177L155.2,177C155.2,177,155.2,177,155.2,177L155.2,177z"/>
				<path class="st27" d="M182.8,158.9h-72.3c-1.9,0-3.4-1.5-3.4-3.4v-1.4c0-1.9,1.5-3.4,3.4-3.4h72.3c1.9,0,3.4,1.5,3.4,3.4v1.4
					C186.2,157.4,184.7,158.9,182.8,158.9z"/>
				<path class="st19" d="M161,188.9h-16.1c-0.7,0-1.3-0.6-1.3-1.3v-0.5c0-0.7,0.6-1.3,1.3-1.3H161c0.7,0,1.3,0.6,1.3,1.3v0.5
					C162.3,188.3,161.7,188.9,161,188.9z"/>
				<path class="st23" d="M74.8,329.9c-4.4,0-7.9-3.5-7.9-7.8c0-0.8,0.1-1.6,0.4-2.4c23.5-75.5,48.2-104.5,49.2-105.7
					c2.9-3.3,7.9-3.7,11.2-0.8c3.3,2.9,3.7,7.9,0.8,11.2c-0.2,0.3-23.7,28.3-46.1,100.1C81.3,327.7,78.2,329.9,74.8,329.9z"/>
				<path class="st7" d="M186.2,296.5c0,0,1.3,62,10.7,85.2c1.4,3.5-0.2,7.6-3.8,9c-0.6,0.2-1.2,0.4-1.8,0.5
					c-23,2.6-75.1,7.2-99.7-1.4c0,0,16.1-68.1,13.8-105L186.2,296.5z"/>
				<path class="st20" d="M173,238c0,0-8.5,13.1-5.7,21.1l-14.7,5.4l5.4-15.9L173,238z"/>
				<path class="st7" d="M270.4,263.3l-89.2-65.6c-0.5-0.4-0.6-1-0.2-1.5l0.8-1.1c0.4-0.5,1-0.6,1.5-0.2l89.2,65.6
					c0.5,0.4,0.6,1,0.2,1.5l-0.8,1.1C271.5,263.5,270.9,263.6,270.4,263.3z"/>
				<path class="st20" d="M229.3,279.4c0,0-9.9,12-18.4,11.7l-0.8,15.6l13.6-9.8L229.3,279.4z"/>
				<path class="st20" d="M248.2,243.4c-3,4-2.4,9.5,1.3,12.2c3.7,2.7,9.1,1.7,12-2.4s2.4-9.5-1.3-12.2S251.1,239.3,248.2,243.4z"/>
				<path class="st20" d="M201.8,209.2c-2.9,4-8.3,5.1-12,2.4s-4.3-8.2-1.3-12.2s8.3-5.1,12-2.4S204.8,205.2,201.8,209.2z"/>
				<path class="st20" d="M191.6,316.7c-8.2-0.6-15.2-6.4-17.1-14.4c-1-0.4-1.9-1-2.7-1.6c-1.5-1.1-2.7-2.4-3.6-3.9
					c-8.4,1-16.4-3.8-19.7-11.6c-0.2,0.2-0.3,0.5-0.5,0.7c-0.5,0.6-1,1.2-1.5,1.7l43.3,31.9c0.3-0.7,0.7-1.4,1.2-2
					C191.2,317.2,191.4,316.9,191.6,316.7z"/>
				<path class="st20" d="M150.9,277.8c-0.3,0-0.6,0-0.8,0c0.1,0.5,0.1,1,0.1,1.5l16.6,12.2c0.1-0.8,0.4-1.5,0.9-2.1
					c1.7-2.3,5.3-2.7,8.9-1.2c0.3-0.5,0.7-1.1,1-1.6c1.9-2.5,4.3-4.6,7.1-5.9c1.4-10.4-5.9-20-16.3-21.4c-5-0.7-10,0.7-14,3.7
					c-1.1,3.9-1.6,8-1.3,12.1C153.2,276.4,152.3,277.6,150.9,277.8z"/>
				<path class="st20" d="M166.8,291.5l-16.6-12.2c0,2.1-0.6,4.2-1.7,6c3.2,7.8,11.3,12.6,19.7,11.6
					C167.1,295.3,166.6,293.4,166.8,291.5z"/>
				<path class="st20" d="M180.3,290.3c4,3.3,5.6,8,3.5,10.9c-0.5,0.6-1.1,1.1-1.8,1.5l14.6,10.7c0.5-0.1,1-0.3,1.4-0.3
					c-0.1-0.2-0.2-0.5-0.3-0.8c-0.3-1.4,0.6-2.7,2-2.9c3.8-0.9,7.3-2.4,10.6-4.5c3.9-9.7-0.8-20.8-10.6-24.7
					c-4.9-2-10.3-1.8-15.1,0.4c-0.4,3.1-1.6,6-3.5,8.6C181,289.6,180.7,290,180.3,290.3z"/>
				<path class="st20" d="M182.1,302.7c-2,1-4.8,0.8-7.6-0.4c2,8,8.9,13.8,17.1,14.4c1.3-1.5,3.1-2.6,5-3.2L182.1,302.7z"/>
				<path class="st20" d="M176.6,288.1c1.1,0.5,2.2,1,3.2,1.8c0.2,0.1,0.4,0.3,0.6,0.5c0.3-0.4,0.6-0.8,0.9-1.1
					c1.9-2.5,3.1-5.5,3.5-8.6c-2.8,1.3-5.3,3.4-7.1,5.9C177.2,287,176.9,287.6,176.6,288.1z"/>
				<path class="st15" d="M172.6,295.7l1.4,1c0-0.5,0.1-1.1,0.2-1.6C173.6,295.3,173.1,295.5,172.6,295.7z"/>
				<path class="st20" d="M174,296.7l-1.4-1c-1.4,0.5-2.9,0.9-4.4,1.1c1,1.5,2.2,2.8,3.6,3.9c0.8,0.6,1.7,1.1,2.7,1.6
					C174.1,300.5,173.9,298.6,174,296.7z"/>
				<path class="st15" d="M174.1,295.1c0.3-2.5,1.2-4.9,2.5-7c-3.6-1.5-7.2-1.1-8.9,1.2c-0.5,0.6-0.8,1.4-0.9,2.1l5.8,4.3
					C173.1,295.5,173.6,295.3,174.1,295.1z"/>
				<path class="st20" d="M172.6,295.7l-5.8-4.3c-0.2,1.9,0.3,3.8,1.3,5.3C169.7,296.6,171.2,296.3,172.6,295.7z"/>
				<path class="st15" d="M174,296.7l8.1,6c0.7-0.3,1.3-0.8,1.8-1.5c2.1-2.9,0.5-7.6-3.5-10.9c-1.7,2-3.8,3.6-6.2,4.8
					C174,295.6,174,296.2,174,296.7z"/>
				<path class="st20" d="M182.1,302.7l-8.1-6c-0.1,1.9,0.1,3.7,0.5,5.5C177.3,303.5,180.1,303.7,182.1,302.7z"/>
				<path class="st15" d="M180.3,290.3c-0.2-0.2-0.4-0.3-0.6-0.5c-1-0.7-2-1.3-3.2-1.8c-1.3,2.1-2.1,4.5-2.5,7
					C176.5,294,178.6,292.3,180.3,290.3z"/>
				<path class="st20" d="M154.7,262.6c0.3-1.1,0.7-2.3,1.2-3.5c4.6-11.4,13.8-19.9,27.6-25c3.8-1.1,7.4-3,10.4-5.6
					c4.7-4,10.2-11.5,9.4-24.6c-0.1-1.4-1.2-2.4-2.6-2.3c0,0-0.1,0-0.1,0c-1.4,0.2-2.5,1.4-2.4,2.8c1.2,20.5-15.2,24.5-15.9,24.6
					h-0.2l-0.2,0.1c-19.2,7.1-27.4,19.4-30.9,28.4c-1.8,4.6-2.9,9.6-3.1,14.5C149.3,268.3,151.6,265,154.7,262.6L154.7,262.6z"/>
				<path class="st20" d="M150.1,277.8c0.3,0,0.6,0,0.8,0c1.4-0.2,2.4-1.4,2.2-2.8c-0.3-4.1,0.2-8.2,1.3-12.1
					c-3,2.3-5.3,5.5-6.4,9.1c0,0.2,0,0.4,0,0.6C149.1,274.1,149.8,275.9,150.1,277.8z"/>
				<path class="st20" d="M203.5,313.5l0.3,0.1c4.9-1.7,9.4-4.2,13.4-7.4c7.6-6,16.8-17.5,17.9-38V268v-0.2
					c-0.1-0.7-1.1-17.6,18.8-22.5c1.4-0.3,2.3-1.7,2-3.1c-0.3-1.3-1.6-2.2-2.9-1.9c0,0-0.1,0-0.1,0c-12.7,3.1-18.2,10.6-20.7,16.3
					c-1.6,3.7-2.3,7.6-2.2,11.6c-0.8,14.6-6.1,26-15.7,33.8c-1.1,0.9-2.3,1.8-3.6,2.6c-0.6,1.5-1.4,2.9-2.4,4.2
					C207,310.6,205.3,312.2,203.5,313.5z"/>
				<path class="st20" d="M197.8,312.3c0,0.3,0.1,0.5,0.3,0.8c1.8-0.3,3.6-0.2,5.4,0.4c3.1-2.1,5.6-5.1,7-8.6
					c-3.3,2.1-6.8,3.6-10.6,4.5C198.5,309.6,197.6,310.9,197.8,312.3C197.8,312.3,197.8,312.3,197.8,312.3z"/>
				<path class="st17" d="M155.1,281.9l2.7-3.7c1.2-1.7,3.6-2,5.3-0.8l31.2,23c1.7,1.2,2,3.6,0.8,5.3l-2.7,3.7
					c-1.2,1.7-3.6,2-5.3,0.8l-31.2-23C154.2,286,153.9,283.6,155.1,281.9z"/>
				
					<rect x="143.7" y="251.6" transform="matrix(0.5926 -0.8055 0.8055 0.5926 -127.619 251.9346)" class="st7" width="83" height="1.1"/>
				
					<rect x="149.2" y="255.7" transform="matrix(0.5926 -0.8055 0.8055 0.5926 -128.6664 258.0114)" class="st28" width="83" height="1.1"/>
				
					<rect x="149.2" y="255.7" transform="matrix(0.5926 -0.8055 0.8055 0.5926 -128.6664 258.0114)" class="st7" width="83" height="1.1"/>
				
					<rect x="154.7" y="259.7" transform="matrix(0.5926 -0.8055 0.8055 0.5926 -129.6615 264.0517)" class="st28" width="83" height="1.1"/>
				
					<rect x="154.7" y="259.7" transform="matrix(0.5926 -0.8055 0.8055 0.5926 -129.6615 264.0517)" class="st7" width="83" height="1.1"/>
				
					<rect x="160.2" y="263.7" transform="matrix(0.5926 -0.8055 0.8055 0.5926 -130.6935 270.1349)" class="st28" width="83" height="1.1"/>
				
					<rect x="160.2" y="263.7" transform="matrix(0.5926 -0.8055 0.8055 0.5926 -130.6935 270.1349)" class="st7" width="83" height="1.1"/>
				
					<rect x="165.7" y="267.7" transform="matrix(0.5926 -0.8055 0.8055 0.5926 -131.7047 276.1833)" class="st28" width="83" height="1.1"/>
				
					<rect x="165.7" y="267.7" transform="matrix(0.5926 -0.8055 0.8055 0.5926 -131.7047 276.1833)" class="st7" width="83" height="1.1"/>
				
					<rect x="171.2" y="271.8" transform="matrix(0.5926 -0.8055 0.8055 0.5926 -132.7038 282.2357)" class="st7" width="83" height="1.1"/>
				<path class="st20" d="M205.9,215.9l2.1-2.8c0.9-1.3,2.7-1.6,4-0.6l30.3,22.3c1.3,0.9,1.6,2.7,0.6,4l-2.1,2.8
					c-0.9,1.3-2.7,1.6-4,0.6l-30.3-22.3C205.3,219,205,217.2,205.9,215.9z"/>
				<path class="st18" d="M209.1,302.6l12.9-7.4c3.3-1.9,7.4-0.8,9.3,2.5l1.4,2.4c1.9,3.3,0.8,7.4-2.5,9.3l-12.9,7.4
					c-3.3,1.9-7.4,0.8-9.3-2.5l-1.4-2.4C204.8,308.7,205.9,304.5,209.1,302.6z"/>
			</g>
		</g>
	</g>
</g>
</svg>
