<?xml version="1.0" encoding="utf-8"?>
<!-- Generator: Adobe Illustrator 25.2.3, SVG Export Plug-In . SVG Version: 6.00 Build 0)  -->
<svg version="1.1" id="Layer_1" xmlns="http://www.w3.org/2000/svg" xmlns:xlink="http://www.w3.org/1999/xlink" x="0px" y="0px"
	 viewBox="0 0 379.8 616" style="enable-background:new 0 0 379.8 616;" xml:space="preserve">
<style type="text/css">
	.st0{fill:#F4B155;}
	.st1{fill:#FFF0CC;}
	.st2{fill:#231F20;}
	.st3{clip-path:url(#SVGID_2_);}
	.st4{fill:#535254;}
	.st5{fill:#414042;}
	.st6{fill:#4F5051;}
	.st7{fill:#6D6E71;}
	.st8{fill:#58595B;}
	.st9{fill:#BCBEC0;}
	.st10{fill:#FFFFFF;}
	.st11{clip-path:url(#SVGID_4_);}
	.st12{fill:#67D8DB;}
	.st13{fill:#F5B155;}
	.st14{fill:#A4F6FF;}
	.st15{fill:#81EFEF;}
	.st16{fill:#5BA587;}
	.st17{fill:#60B28F;}
	.st18{fill:#EE915B;}
	.st19{fill:#F4B055;}
	.st20{fill:#E6E7E8;}
	.st21{fill:#80EAED;}
	.st22{fill:#F1F2F2;}
	.st23{fill:#FFD150;}
	.st24{fill:#BC4B61;}
	.st25{fill:#754F4B;}
	.st26{fill:none;}
	.st27{fill:#E6705F;}
	.st28{fill:#DD4F65;}
	.st29{fill:#939598;}
	.st30{fill:#EDE6DA;}
	.st31{clip-path:url(#SVGID_6_);}
	.st32{fill:#E5DCC6;}
	.st33{fill:#E0DAD1;}
	.st34{clip-path:url(#SVGID_8_);}
	.st35{fill:#D3CCBA;}
	.st36{fill:#FBF2E1;}
	.st37{fill:#808285;}
	.st38{clip-path:url(#SVGID_10_);}
	.st39{fill:#4A355B;}
</style>
<g id="Layer_2_1_">
	<g id="Layer_1-2">
		<path class="st0" d="M379.8,23.4v569.3c0,12.9-10.9,23.3-24.2,23.3H24.2C10.9,616,0,605.5,0,592.6V23.4C0,10.5,10.9,0,24.2,0
			h331.3C368.9,0,379.8,10.5,379.8,23.4z M359.5,579.1V36.9c0-9.6-7.8-17.5-17.5-17.5H37.8c-9.6,0-17.5,7.8-17.5,17.5v542.2
			c0,9.6,7.8,17.5,17.5,17.5H342C351.6,596.5,359.4,588.7,359.5,579.1z"/>
		<path class="st1" d="M37.8,19.4H342c9.7,0,17.5,7.8,17.5,17.5v542.2c0,9.7-7.8,17.5-17.5,17.5H37.8c-9.7,0-17.5-7.8-17.5-17.5
			V36.9C20.4,27.2,28.2,19.4,37.8,19.4z"/>
		<path class="st2" d="M108.5,556c-0.1-0.1-0.2-0.2-0.2-0.4c0-0.1,0.1-0.3,0.1-0.4l0.8-1.4c0.1-0.2,0.2-0.3,0.3-0.3
			c0.1,0,0.3,0.1,0.4,0.2c0.5,0.3,1,0.6,1.6,0.7c0.7,0.2,1.3,0.3,2,0.3c0.8,0.1,1.6-0.2,2.2-0.8c0.5-0.7,0.8-1.5,0.7-2.4v-12.8
			c0-0.3,0.1-0.6,0.2-0.8c0.2-0.2,0.5-0.3,0.8-0.2h1.5c0.3,0,0.6,0.1,0.8,0.2c0.2,0.2,0.3,0.5,0.2,0.8v12.8c0.1,1.6-0.5,3.1-1.5,4.2
			c-1.2,1.1-2.9,1.7-4.6,1.6C112,557.4,110.1,557,108.5,556z"/>
		<path class="st2" d="M127.1,556.5c-2.6-1.1-4.2-3.6-4.1-6.3v-11.4c0-0.3,0.1-0.6,0.2-0.8c0.2-0.2,0.5-0.3,0.8-0.2h1.5
			c0.3,0,0.6,0.1,0.8,0.2c0.2,0.2,0.3,0.5,0.3,0.8v11.5c-0.1,1.2,0.4,2.5,1.3,3.3c1.1,0.8,2.4,1.2,3.7,1.1c1.3,0.1,2.6-0.3,3.7-1.1
			c0.9-0.9,1.4-2.1,1.3-3.3v-11.5c0-0.3,0.1-0.6,0.2-0.8c0.2-0.2,0.5-0.3,0.8-0.2h1.5c0.7,0,1.1,0.3,1.1,1v11.4
			c0,1.4-0.3,2.7-1.1,3.9c-0.7,1.1-1.8,2-3,2.5c-1.4,0.6-2.9,0.9-4.5,0.9C130.1,557.4,128.5,557.1,127.1,556.5z"/>
		<path class="st2" d="M143.6,556.7c-0.2-0.2-0.3-0.5-0.2-0.8v-17.2c0-0.3,0.1-0.6,0.2-0.8c0.2-0.2,0.5-0.3,0.8-0.2h5.7
			c3.2,0,5.6,0.8,7.3,2.3s2.5,4,2.5,7.3c0,6.4-3.3,9.6-9.8,9.6h-5.7C144.1,557,143.8,556.9,143.6,556.7z M150.3,554.2
			c1.7,0.1,3.3-0.4,4.5-1.6c1-1,1.5-2.8,1.5-5.3s-0.5-4.3-1.5-5.3c-1.2-1.1-2.9-1.7-4.5-1.5H147v13.7H150.3z"/>
		<path class="st2" d="M164.8,554.8c-1.8-1.7-2.6-4.2-2.6-7.4s0.9-5.7,2.6-7.4c2-1.8,4.7-2.8,7.4-2.6c1.2,0,2.4,0.1,3.6,0.4
			c1,0.2,1.9,0.6,2.8,1.1c0.1,0.1,0.2,0.2,0.3,0.4c0,0.1,0,0.2-0.1,0.3l-0.8,1.4c-0.1,0.2-0.2,0.3-0.3,0.3c-0.1,0-0.3-0.1-0.4-0.1
			c-1.4-0.7-3-1.1-4.6-1c-1.9-0.1-3.7,0.6-5.1,1.8c-1.2,1.2-1.8,3.1-1.8,5.5s0.6,4.3,1.8,5.5c1.3,1.3,3.1,1.9,4.9,1.8
			c0.7,0,1.5-0.1,2.2-0.2c0.6-0.1,1.2-0.3,1.8-0.5v-5.2h-3.7c-0.3,0-0.6-0.1-0.8-0.2c-0.2-0.2-0.2-0.5-0.2-0.8V547
			c0-0.3,0-0.5,0.2-0.8c0.2-0.2,0.5-0.2,0.8-0.2h6c0.3,0,0.7,0.1,0.9,0.3c0.2,0.3,0.3,0.6,0.3,0.9v7.5c0,0.2,0,0.4-0.1,0.6
			c-0.1,0.2-0.2,0.3-0.4,0.4c-2.2,1.2-4.6,1.8-7.1,1.6C169,557.4,166.5,556.5,164.8,554.8z"/>
		<path class="st2" d="M182.8,556.7c-0.2-0.2-0.3-0.5-0.2-0.8v-17.2c0-0.3,0.1-0.6,0.2-0.8c0.2-0.2,0.5-0.3,0.8-0.2h11.8
			c0.3,0,0.6,0,0.8,0.2c0.2,0.2,0.2,0.5,0.2,0.8v0.8c0,0.3,0,0.6-0.2,0.8c-0.2,0.2-0.5,0.3-0.8,0.2h-9.2v5.5h6.7
			c0.3,0,0.6,0,0.8,0.2c0.2,0.2,0.2,0.5,0.2,0.8v0.7c0,0.3-0.1,0.5-0.2,0.8c-0.2,0.2-0.5,0.3-0.8,0.2h-6.7v5.5h9.2
			c0.3,0,0.6,0.1,0.8,0.2c0.2,0.2,0.3,0.5,0.2,0.8v0.7c0,0.3-0.1,0.5-0.2,0.7c-0.2,0.2-0.5,0.3-0.8,0.2h-11.7
			C183.3,557,183,556.9,182.8,556.7z"/>
		<path class="st2" d="M199,556.7c-0.2-0.2-0.3-0.5-0.2-0.8v-17.2c0-0.3,0.1-0.6,0.2-0.8c0.2-0.2,0.5-0.3,0.8-0.2h1.5
			c0.2,0,0.5,0,0.7,0.1c0.2,0.1,0.3,0.3,0.4,0.5l5.7,13.2l5.7-13.2c0.1-0.2,0.2-0.4,0.4-0.5c0.2-0.1,0.5-0.1,0.7-0.1h1.5
			c0.3,0,0.6,0.1,0.8,0.2c0.2,0.2,0.3,0.5,0.2,0.8v17.2c0.1,0.5-0.3,0.9-0.7,1c-0.1,0-0.2,0-0.3,0h-1.2c-0.3,0-0.6-0.1-0.8-0.2
			c-0.2-0.2-0.3-0.5-0.2-0.8v-12.2l-4.8,10.8c-0.1,0.2-0.3,0.5-0.4,0.7c-0.2,0.2-0.5,0.2-0.7,0.2c-0.3,0-0.5,0-0.8-0.2
			c-0.2-0.2-0.3-0.4-0.4-0.7l-4.8-10.8v12.2c0,0.3-0.1,0.5-0.2,0.8c-0.2,0.2-0.5,0.3-0.8,0.2h-1.2C199.5,557,199.2,556.9,199,556.7z
			"/>
		<path class="st2" d="M221.2,556.7c-0.2-0.2-0.3-0.5-0.2-0.8v-17.2c0-0.3,0.1-0.6,0.2-0.8c0.2-0.2,0.5-0.3,0.8-0.2h11.8
			c0.3,0,0.6,0,0.8,0.2c0.2,0.2,0.2,0.5,0.2,0.8v0.8c0,0.3,0,0.6-0.2,0.8c-0.2,0.2-0.5,0.3-0.8,0.2h-9.2v5.5h6.7
			c0.5-0.1,0.9,0.2,1,0.6c0,0.1,0,0.2,0,0.4v0.7c0,0.3-0.1,0.6-0.2,0.8c-0.2,0.2-0.5,0.3-0.8,0.2h-6.7v5.5h9.2
			c0.3,0,0.6,0.1,0.8,0.2c0.2,0.2,0.3,0.5,0.2,0.8v0.7c0,0.3-0.1,0.5-0.2,0.7c-0.2,0.2-0.5,0.3-0.8,0.2H222
			C221.7,557,221.4,556.9,221.2,556.7z"/>
		<path class="st2" d="M237.5,556.7c-0.2-0.2-0.3-0.5-0.2-0.8v-17.2c0-0.3,0.1-0.6,0.2-0.8c0.2-0.2,0.5-0.3,0.8-0.2h1.3
			c0.2,0,0.4,0,0.6,0.1c0.2,0.1,0.3,0.3,0.4,0.5l9.3,13v-12.5c0-0.3,0.1-0.6,0.2-0.8c0.2-0.2,0.5-0.3,0.8-0.2h1.5
			c0.3,0,0.6,0.1,0.8,0.2c0.2,0.2,0.3,0.5,0.2,0.8v17.2c0,0.3-0.1,0.5-0.2,0.8c-0.2,0.2-0.5,0.3-0.8,0.2h-1.3c-0.2,0-0.4,0-0.6-0.1
			c-0.2-0.1-0.3-0.3-0.5-0.4l-9.3-12.9v12.5c0,0.3-0.1,0.5-0.2,0.8c-0.2,0.2-0.5,0.3-0.8,0.2h-1.5C238,557,237.7,556.9,237.5,556.7z
			"/>
		<path class="st2" d="M262,556.7c-0.2-0.2-0.3-0.5-0.3-0.8v-15.5h-5c-0.3,0-0.6,0-0.8-0.2c-0.2-0.2-0.2-0.5-0.2-0.8v-0.8
			c0-0.3,0-0.6,0.2-0.8c0.2-0.2,0.5-0.3,0.8-0.2h13.5c0.3,0,0.6,0.1,0.8,0.2c0.2,0.2,0.2,0.5,0.2,0.8v0.8c0,0.3,0,0.5-0.2,0.8
			c-0.2,0.2-0.5,0.3-0.8,0.2h-5v15.5c0,0.3-0.1,0.5-0.2,0.8c-0.2,0.2-0.5,0.3-0.8,0.2h-1.5C262.5,557,262.2,556.9,262,556.7z"/>
		<g>
			<defs>
				<path id="SVGID_1_" d="M108.6,74h166.2c33.8,0,61.2,27.4,61.2,61.2v268.5c0,33.8-27.4,61.2-61.2,61.2H108.6
					c-33.8,0-61.2-27.4-61.2-61.2V135.1C47.4,101.3,74.8,74,108.6,74z"/>
			</defs>
			<clipPath id="SVGID_2_">
				<use xlink:href="#SVGID_1_"  style="overflow:visible;"/>
			</clipPath>
			<g class="st3">
				<rect x="70.8" y="26.9" class="st4" width="253.6" height="97.1"/>
				<polygon class="st5" points="168.6,123.8 -9.3,-54.1 -9.3,557.9 167,557.9 				"/>
				<polygon class="st5" points="229,123.8 406.9,-54.1 406.9,557.9 230.6,557.9 				"/>
				<polygon class="st6" points="199.1,292.8 199,292.8 140.1,292.8 140.1,314.5 199,314.5 199.1,314.5 258,314.5 258,292.8 				"/>
				<polygon class="st7" points="252.2,283.6 199.1,283.6 199,283.6 145.9,283.6 140.1,292.8 199,292.8 199.1,292.8 258,292.8 				
					"/>
				<polygon class="st8" points="199.1,264 199.1,264 145.9,264 145.9,283.6 199.1,283.6 199.1,283.6 252.2,283.6 252.2,264 				"/>
				<polygon class="st7" points="246.9,255.6 199.1,255.6 199.1,255.6 151.2,255.6 145.9,264 199.1,264 199.1,264 252.2,264 				"/>
				<polygon class="st8" points="199.1,238.1 199.1,238.1 151.2,238.1 151.2,255.8 199.1,255.8 199.1,255.8 246.9,255.8 
					246.9,238.1 				"/>
				<polygon class="st7" points="242.2,230.6 199.1,230.6 199.1,230.6 155.9,230.6 151.2,238.1 199.1,238.1 199.1,238.1 
					246.9,238.1 				"/>
				<polygon class="st6" points="199.2,398.8 199.1,398.8 119.2,398.8 119.2,428.3 199.1,428.3 199.2,428.3 279.1,428.3 
					279.1,398.8 				"/>
				<polygon class="st7" points="271.3,386.2 199.2,386.2 199.1,386.2 127.1,386.2 119.2,398.8 199.1,398.8 199.2,398.8 
					279.1,398.8 				"/>
				<polygon class="st6" points="199.2,359.6 199.2,359.6 127.1,359.6 127.1,386.2 199.2,386.2 199.2,386.2 271.3,386.2 
					271.3,359.6 				"/>
				<polygon class="st7" points="264.2,348.3 199.2,348.3 199.2,348.3 134.1,348.3 127.1,359.6 199.2,359.6 199.2,359.6 
					271.3,359.6 				"/>
				<polygon class="st6" points="199.2,324.5 199.2,324.5 134.2,324.5 134.2,348.4 199.2,348.4 199.2,348.4 264.2,348.4 
					264.2,324.5 				"/>
				<polygon class="st7" points="257.8,314.3 199.2,314.3 199.2,314.3 140.6,314.3 134.2,324.5 199.2,324.5 199.2,324.5 
					264.2,324.5 				"/>
				<polygon class="st8" points="199,214.7 155.9,214.7 155.9,230.6 199,230.6 242.2,230.6 242.2,214.7 				"/>
				<polygon class="st7" points="227.8,205.5 199.1,205.5 168.6,205.5 155.9,214.7 199,214.7 242.2,214.7 				"/>
				<rect x="278.2" y="74" class="st9" width="57.6" height="438.3"/>
				<path class="st10" d="M341.2,101.5h-67.7c-7.7,0-13.9-6.2-13.9-13.9l0,0c0-7.7,6.2-13.9,13.9-13.9h67.7
					c7.7,0,13.9,6.2,13.9,13.9l0,0C355.1,95.3,348.9,101.5,341.2,101.5z"/>
				<path class="st10" d="M272.8,495.6H342c7.3,0,13.1,5.9,13.1,13.1v1.5c0,7.3-5.9,13.1-13.1,13.1h-69.2c-7.3,0-13.1-5.9-13.1-13.1
					v-1.5C259.6,501.5,265.5,495.6,272.8,495.6z"/>
				<path class="st10" d="M292.3,108.4h1.2c1.3,0,2.4,1.1,2.4,2.4v375.5c0,1.3-1.1,2.4-2.4,2.4h-1.2c-1.3,0-2.4-1.1-2.4-2.4V110.8
					C289.9,109.5,291,108.4,292.3,108.4z"/>
				<path class="st10" d="M306.5,108.4h1.2c1.3,0,2.4,1.1,2.4,2.4v375.5c0,1.3-1.1,2.4-2.4,2.4h-1.2c-1.3,0-2.4-1.1-2.4-2.4V110.8
					C304.1,109.5,305.1,108.4,306.5,108.4z"/>
				<path class="st10" d="M321.3,108.4h1.2c1.3,0,2.4,1.1,2.4,2.4v375.5c0,1.3-1.1,2.4-2.4,2.4h-1.2c-1.3,0-2.4-1.1-2.4-2.4V110.8
					C318.9,109.5,320,108.4,321.3,108.4z"/>
				<rect x="47.1" y="74" class="st9" width="57.6" height="438.3"/>
				<path class="st10" d="M110.1,101.5H42.4c-7.7,0-13.9-6.2-13.9-13.9l0,0c0-7.7,6.2-13.9,13.9-13.9h67.7c7.7,0,13.9,6.2,13.9,13.9
					l0,0C124,95.3,117.7,101.5,110.1,101.5z"/>
				<path class="st10" d="M41.6,495.6h69.2c7.3,0,13.1,5.9,13.1,13.1v1.5c0,7.3-5.9,13.1-13.1,13.1H41.6c-7.3,0-13.1-5.9-13.1-13.1
					v-1.5C28.5,501.5,34.4,495.6,41.6,495.6z"/>
				<path class="st10" d="M61.2,108.4h1.2c1.3,0,2.4,1.1,2.4,2.4v375.5c0,1.3-1.1,2.4-2.4,2.4h-1.2c-1.3,0-2.4-1.1-2.4-2.4V110.8
					C58.8,109.5,59.8,108.4,61.2,108.4z"/>
				<path class="st10" d="M75.3,108.4h1.2c1.3,0,2.4,1.1,2.4,2.4v375.5c0,1.3-1.1,2.4-2.4,2.4h-1.2c-1.3,0-2.4-1.1-2.4-2.4V110.8
					C72.9,109.5,74,108.4,75.3,108.4z"/>
				<path class="st10" d="M90.2,108.4h1.2c1.3,0,2.4,1.1,2.4,2.4v375.5c0,1.3-1.1,2.4-2.4,2.4h-1.2c-1.3,0-2.4-1.1-2.4-2.4V110.8
					C87.8,109.5,88.9,108.4,90.2,108.4z"/>
				<polyline class="st5" points="213.5,381 203,381 213.5,369.7 				"/>
				<rect x="42.9" y="421.1" class="st2" width="302.3" height="55.2"/>
				<g>
					<defs>
						<rect id="SVGID_3_" x="169.1" y="123.8" width="59.2" height="81.7"/>
					</defs>
					<clipPath id="SVGID_4_">
						<use xlink:href="#SVGID_3_"  style="overflow:visible;"/>
					</clipPath>
					<g class="st11">
						<rect x="165.9" y="162" class="st12" width="64.6" height="11.5"/>
						<rect x="164.9" y="172.8" class="st13" width="68.8" height="33.7"/>
						<rect x="166.5" y="120.5" class="st14" width="71.1" height="29.6"/>
						<path class="st15" d="M172.6,171h11.5c0.2,0,0.4,0.2,0.4,0.4l0,0c0,0.2-0.2,0.4-0.4,0.4h-11.5c-0.2,0-0.4-0.2-0.4-0.4l0,0
							C172.2,171.2,172.4,171,172.6,171z"/>
						<path class="st15" d="M191.4,170.6h11.5c0.2,0,0.4,0.2,0.4,0.4l0,0c0,0.2-0.2,0.4-0.4,0.4h-11.5c-0.2,0-0.4-0.2-0.4-0.4l0,0
							C191,170.8,191.2,170.6,191.4,170.6z"/>
						<path class="st15" d="M195.9,168.1h11.5c0.2,0,0.4,0.2,0.4,0.4v0c0,0.2-0.2,0.4-0.4,0.4h-11.5c-0.2,0-0.4-0.2-0.4-0.4v0
							C195.5,168.3,195.6,168.1,195.9,168.1z"/>
						<path class="st15" d="M211.9,166.2h11.5c0.2,0,0.4,0.2,0.4,0.4l0,0c0,0.2-0.2,0.4-0.4,0.4h-11.5c-0.2,0-0.4-0.2-0.4-0.4l0,0
							C211.5,166.3,211.7,166.2,211.9,166.2z"/>
						<path class="st15" d="M215.6,169.4h11.5c0.2,0,0.4,0.2,0.4,0.4l0,0c0,0.2-0.2,0.4-0.4,0.4h-11.5c-0.2,0-0.4-0.2-0.4-0.4l0,0
							C215.2,169.5,215.4,169.4,215.6,169.4z"/>
						<path class="st10" d="M203.4,148.6h-12.5c-0.9,0-1.6-0.7-1.6-1.6l0,0c0-0.9,0.7-1.6,1.6-1.6h12.5c0.9,0,1.6,0.7,1.6,1.6l0,0
							C205,147.9,204.3,148.6,203.4,148.6z"/>
						<path class="st10" d="M194.7,144.6c0,2.2,1.8,4,4,4s4-1.8,4-4s-1.8-4-4-4S194.7,142.4,194.7,144.6z"/>
						<path class="st10" d="M191.4,145.8c0,1.6,1.3,2.9,2.9,2.9c1.6,0,2.9-1.3,2.9-2.9c0-1.6-1.3-2.9-2.9-2.9c0,0,0,0,0,0
							C192.7,142.9,191.5,144.2,191.4,145.8z"/>
						<path class="st16" d="M157.9,149.1l7.5-3.9l12.7,2.4l7.6-2.8c1.1-0.4,2.4-0.5,3.5-0.1l11.6,3.6l7.9-4.1
							c1.2-0.6,2.6-0.7,3.9-0.2l15.6,5.8v14.1h-70.4V149.1z"/>
						<path class="st10" d="M163.6,145h14.7c1,0,1.9,0.8,1.9,1.9l0,0c0,1-0.9,1.9-1.9,1.9h-14.7c-1,0-1.9-0.8-1.9-1.9l0,0
							C161.7,145.9,162.6,145,163.6,145z"/>
						<path class="st10" d="M173.8,144.1c0,2.6-2.1,4.7-4.7,4.7s-4.7-2.1-4.7-4.7s2.1-4.7,4.7-4.7S173.8,141.5,173.8,144.1
							L173.8,144.1z"/>
						<path class="st10" d="M177.6,145.5c0,1.9-1.5,3.4-3.4,3.4c-1.9,0-3.4-1.5-3.4-3.4c0-1.9,1.5-3.4,3.4-3.4c0,0,0,0,0,0
							C176.1,142.1,177.6,143.6,177.6,145.5C177.6,145.5,177.6,145.5,177.6,145.5z"/>
						<path class="st17" d="M154.9,152.7l18.8-7.7l15.1,6l11.4-6.2c1.3-0.7,2.9-0.9,4.3-0.4l15.2,4.9l11.7-4.9v20.2h-76.4V152.7z"/>
						<rect x="169.4" y="175.1" class="st18" width="16" height="30"/>
						<rect x="188.9" y="175.1" class="st18" width="16" height="30"/>
						<rect x="210.7" y="175.1" class="st18" width="16" height="30"/>
						<path class="st10" d="M188.5,136.3h-5.5c-0.4,0-0.7-0.3-0.7-0.7v0c0-0.4,0.3-0.7,0.7-0.7h5.5c0.4,0,0.7,0.3,0.7,0.7v0
							C189.2,136,188.9,136.3,188.5,136.3z"/>
						<path class="st10" d="M184.7,134.6c0,1,0.8,1.8,1.7,1.8s1.8-0.8,1.8-1.7c0-1-0.8-1.8-1.7-1.8c0,0,0,0,0,0
							C185.5,132.8,184.7,133.6,184.7,134.6z"/>
						<path class="st10" d="M183.3,135.1c0,0.7,0.6,1.2,1.2,1.2s1.2-0.6,1.2-1.2s-0.6-1.2-1.2-1.2S183.3,134.4,183.3,135.1z"/>
						<path class="st19" d="M191.7,177.2L191.7,177.2c0.2,0,0.3,0.1,0.3,0.3v1.2c0,0.2-0.1,0.3-0.3,0.3h0c-0.2,0-0.3-0.1-0.3-0.3
							v-1.2C191.4,177.4,191.6,177.2,191.7,177.2z"/>
						<path class="st19" d="M190.7,176.5L190.7,176.5c0.1-0.1,0.3-0.1,0.4,0l0.8,0.8c0.1,0.1,0.1,0.3,0,0.4l0,0
							c-0.1,0.1-0.3,0.1-0.4,0l-0.8-0.8C190.6,176.8,190.6,176.6,190.7,176.5z"/>
						<path class="st19" d="M191.5,177.8L191.5,177.8c-0.1-0.1-0.1-0.3,0-0.4l0.8-0.8c0.1-0.1,0.3-0.1,0.4,0l0,0
							c0.1,0.1,0.1,0.3,0,0.4l-0.8,0.8C191.8,177.9,191.6,177.9,191.5,177.8z"/>
						<path class="st19" d="M195.5,177.2L195.5,177.2c0.2,0,0.3,0.1,0.3,0.3v1.2c0,0.2-0.1,0.3-0.3,0.3h0c-0.2,0-0.3-0.1-0.3-0.3
							v-1.2C195.2,177.4,195.3,177.2,195.5,177.2z"/>
						<path class="st19" d="M194.4,176.5L194.4,176.5c0.1-0.1,0.3-0.1,0.4,0l0.8,0.8c0.1,0.1,0.1,0.3,0,0.4l0,0
							c-0.1,0.1-0.3,0.1-0.4,0l-0.8-0.8C194.3,176.8,194.3,176.7,194.4,176.5z"/>
						<path class="st19" d="M195.3,177.8L195.3,177.8c-0.1-0.1-0.1-0.3,0-0.4l0.8-0.8c0.1-0.1,0.3-0.1,0.4,0l0,0
							c0.1,0.1,0.1,0.3,0,0.4l-0.8,0.8C195.6,177.9,195.4,177.9,195.3,177.8z"/>
						<path class="st19" d="M199.2,177.2L199.2,177.2c0.2,0,0.3,0.1,0.3,0.3v1.2c0,0.2-0.1,0.3-0.3,0.3h0c-0.2,0-0.3-0.1-0.3-0.3
							v-1.2C198.9,177.4,199,177.2,199.2,177.2z"/>
						<path class="st19" d="M198.2,176.5L198.2,176.5c0.1-0.1,0.3-0.1,0.4,0l0.8,0.8c0.1,0.1,0.1,0.3,0,0.4l0,0
							c-0.1,0.1-0.3,0.1-0.4,0l-0.8-0.8C198.1,176.8,198.1,176.6,198.2,176.5z"/>
						<path class="st19" d="M199,177.8L199,177.8c-0.1-0.1-0.1-0.3,0-0.4l0.8-0.8c0.1-0.1,0.3-0.1,0.4,0l0,0c0.1,0.1,0.1,0.3,0,0.4
							l-0.8,0.8C199.3,177.9,199.1,177.9,199,177.8z"/>
						<path class="st19" d="M202.9,177.2L202.9,177.2c0.2,0,0.3,0.1,0.3,0.3v1.2c0,0.2-0.1,0.3-0.3,0.3h0c-0.2,0-0.3-0.1-0.3-0.3
							v-1.2C202.6,177.4,202.8,177.2,202.9,177.2z"/>
						<path class="st19" d="M201.9,176.5L201.9,176.5c0.1-0.1,0.3-0.1,0.4,0l0.8,0.8c0.1,0.1,0.1,0.3,0,0.4l0,0
							c-0.1,0.1-0.3,0.1-0.4,0l-0.8-0.8C201.8,176.8,201.8,176.7,201.9,176.5z"/>
						<path class="st19" d="M202.7,177.8L202.7,177.8c-0.1-0.1-0.1-0.3,0-0.4l0.8-0.8c0.1-0.1,0.3-0.1,0.4,0l0,0
							c0.1,0.1,0.1,0.3,0,0.4l-0.8,0.8C203,177.9,202.8,177.9,202.7,177.8z"/>
						<path class="st19" d="M191.7,181.4L191.7,181.4c0.2,0,0.3,0.1,0.3,0.3v1.2c0,0.2-0.1,0.3-0.3,0.3h0c-0.2,0-0.3-0.1-0.3-0.3
							v-1.2C191.4,181.6,191.6,181.4,191.7,181.4z"/>
						<path class="st19" d="M190.7,180.7L190.7,180.7c0.1-0.1,0.3-0.1,0.4,0l0.8,0.8c0.1,0.1,0.1,0.3,0,0.4l0,0
							c-0.1,0.1-0.3,0.1-0.4,0l-0.8-0.8C190.6,181,190.6,180.8,190.7,180.7z"/>
						<path class="st19" d="M191.5,182L191.5,182c-0.1-0.1-0.1-0.3,0-0.4l0.8-0.8c0.1-0.1,0.3-0.1,0.4,0l0,0c0.1,0.1,0.1,0.3,0,0.4
							L192,182C191.8,182.1,191.7,182.1,191.5,182z"/>
						<path class="st19" d="M195.5,181.4L195.5,181.4c0.2,0,0.3,0.1,0.3,0.3v1.2c0,0.2-0.1,0.3-0.3,0.3h0c-0.2,0-0.3-0.1-0.3-0.3
							v-1.2C195.2,181.6,195.3,181.4,195.5,181.4z"/>
						<path class="st19" d="M194.4,180.7L194.4,180.7c0.1-0.1,0.3-0.1,0.4,0l0.8,0.8c0.1,0.1,0.1,0.3,0,0.4l0,0
							c-0.1,0.1-0.3,0.1-0.4,0l-0.8-0.8C194.3,181,194.3,180.8,194.4,180.7z"/>
						<path class="st19" d="M195.3,182L195.3,182c-0.1-0.1-0.1-0.3,0-0.4l0.8-0.8c0.1-0.1,0.3-0.1,0.4,0l0,0c0.1,0.1,0.1,0.3,0,0.4
							l-0.8,0.8C195.6,182.1,195.4,182.1,195.3,182z"/>
						<path class="st19" d="M199.2,181.4L199.2,181.4c0.2,0,0.3,0.1,0.3,0.3v1.2c0,0.2-0.1,0.3-0.3,0.3h0c-0.2,0-0.3-0.1-0.3-0.3
							v-1.2C198.9,181.6,199,181.4,199.2,181.4z"/>
						<path class="st19" d="M198.2,180.7L198.2,180.7c0.1-0.1,0.3-0.1,0.4,0l0.8,0.8c0.1,0.1,0.1,0.3,0,0.4l0,0
							c-0.1,0.1-0.3,0.1-0.4,0l-0.8-0.8C198.1,181,198.1,180.8,198.2,180.7z"/>
						<path class="st19" d="M199,182L199,182c-0.1-0.1-0.1-0.3,0-0.4l0.8-0.8c0.1-0.1,0.3-0.1,0.4,0l0,0c0.1,0.1,0.1,0.3,0,0.4
							l-0.8,0.8C199.3,182.1,199.1,182.1,199,182z"/>
						<path class="st19" d="M202.9,181.4L202.9,181.4c0.2,0,0.3,0.1,0.3,0.3v1.2c0,0.2-0.1,0.3-0.3,0.3h0c-0.2,0-0.3-0.1-0.3-0.3
							v-1.2C202.6,181.6,202.8,181.4,202.9,181.4z"/>
						<path class="st19" d="M201.9,180.7L201.9,180.7c0.1-0.1,0.3-0.1,0.4,0l0.8,0.8c0.1,0.1,0.1,0.3,0,0.4l0,0
							c-0.1,0.1-0.3,0.1-0.4,0l-0.8-0.8C201.8,181,201.8,180.8,201.9,180.7z"/>
						<path class="st19" d="M202.7,182L202.7,182c-0.1-0.1-0.1-0.3,0-0.4l0.8-0.8c0.1-0.1,0.3-0.1,0.4,0l0,0c0.1,0.1,0.1,0.3,0,0.4
							l-0.8,0.8C203,182.1,202.9,182.1,202.7,182z"/>
						<path class="st19" d="M191.7,185.6L191.7,185.6c0.2,0,0.3,0.1,0.3,0.3v1.2c0,0.2-0.1,0.3-0.3,0.3h0c-0.2,0-0.3-0.1-0.3-0.3
							v-1.2C191.4,185.8,191.6,185.6,191.7,185.6z"/>
						<path class="st19" d="M190.7,184.9L190.7,184.9c0.1-0.1,0.3-0.1,0.4,0l0.8,0.8c0.1,0.1,0.1,0.3,0,0.4l0,0
							c-0.1,0.1-0.3,0.1-0.4,0l-0.8-0.8C190.6,185.2,190.6,185,190.7,184.9z"/>
						<path class="st19" d="M191.5,186.2L191.5,186.2c-0.1-0.1-0.1-0.3,0-0.4l0.8-0.8c0.1-0.1,0.3-0.1,0.4,0l0,0
							c0.1,0.1,0.1,0.3,0,0.4l-0.8,0.8C191.8,186.3,191.6,186.3,191.5,186.2z"/>
						<path class="st19" d="M195.5,185.6L195.5,185.6c0.2,0,0.3,0.1,0.3,0.3v1.2c0,0.2-0.1,0.3-0.3,0.3h0c-0.2,0-0.3-0.1-0.3-0.3
							v-1.2C195.2,185.8,195.3,185.6,195.5,185.6z"/>
						<path class="st19" d="M194.4,184.9L194.4,184.9c0.1-0.1,0.3-0.1,0.4,0l0.8,0.8c0.1,0.1,0.1,0.3,0,0.4l0,0
							c-0.1,0.1-0.3,0.1-0.4,0l-0.8-0.8C194.3,185.3,194.3,185.1,194.4,184.9z"/>
						<path class="st19" d="M195.3,186.2L195.3,186.2c-0.1-0.1-0.1-0.3,0-0.4l0.8-0.8c0.1-0.1,0.3-0.1,0.4,0l0,0
							c0.1,0.1,0.1,0.3,0,0.4l-0.8,0.8C195.6,186.3,195.4,186.3,195.3,186.2z"/>
						<path class="st19" d="M199.2,185.6L199.2,185.6c0.2,0,0.3,0.1,0.3,0.3v1.2c0,0.2-0.1,0.3-0.3,0.3h0c-0.2,0-0.3-0.1-0.3-0.3
							v-1.2C198.9,185.8,199,185.6,199.2,185.6z"/>
						<path class="st19" d="M198.2,184.9L198.2,184.9c0.1-0.1,0.3-0.1,0.4,0l0.8,0.8c0.1,0.1,0.1,0.3,0,0.4l0,0
							c-0.1,0.1-0.3,0.1-0.4,0l-0.8-0.8C198.1,185.2,198.1,185.1,198.2,184.9z"/>
						<path class="st19" d="M199,186.2L199,186.2c-0.1-0.1-0.1-0.3,0-0.4l0.8-0.8c0.1-0.1,0.3-0.1,0.4,0l0,0c0.1,0.1,0.1,0.3,0,0.4
							l-0.8,0.8C199.3,186.3,199.1,186.3,199,186.2z"/>
						<path class="st19" d="M202.9,185.6L202.9,185.6c0.2,0,0.3,0.1,0.3,0.3v1.2c0,0.2-0.1,0.3-0.3,0.3h0c-0.2,0-0.3-0.1-0.3-0.3
							v-1.2C202.6,185.8,202.8,185.6,202.9,185.6z"/>
						<path class="st19" d="M201.9,184.9L201.9,184.9c0.1-0.1,0.3-0.1,0.4,0l0.8,0.8c0.1,0.1,0.1,0.3,0,0.4l0,0
							c-0.1,0.1-0.3,0.1-0.4,0l-0.8-0.8C201.8,185.3,201.8,185.1,201.9,184.9z"/>
						<path class="st19" d="M202.7,186.2L202.7,186.2c-0.1-0.1-0.1-0.3,0-0.4l0.8-0.8c0.1-0.1,0.3-0.1,0.4,0l0,0
							c0.1,0.1,0.1,0.3,0,0.4l-0.8,0.8C203,186.3,202.8,186.3,202.7,186.2z"/>
						<path class="st19" d="M191.7,189.9L191.7,189.9c0.2,0,0.3,0.1,0.3,0.3v1.2c0,0.2-0.1,0.3-0.3,0.3h0c-0.2,0-0.3-0.1-0.3-0.3
							v-1.2C191.4,190,191.6,189.9,191.7,189.9z"/>
						<path class="st19" d="M190.7,189.2L190.7,189.2c0.1-0.1,0.3-0.1,0.4,0l0.8,0.8c0.1,0.1,0.1,0.3,0,0.4l0,0
							c-0.1,0.1-0.3,0.1-0.4,0l-0.8-0.8C190.6,189.5,190.6,189.3,190.7,189.2z"/>
						<path class="st19" d="M191.5,190.4L191.5,190.4c-0.1-0.1-0.1-0.3,0-0.4l0.8-0.8c0.1-0.1,0.3-0.1,0.4,0l0,0
							c0.1,0.1,0.1,0.3,0,0.4l-0.8,0.8C191.8,190.5,191.7,190.5,191.5,190.4z"/>
						<path class="st19" d="M195.5,189.9L195.5,189.9c0.2,0,0.3,0.1,0.3,0.3v1.2c0,0.2-0.1,0.3-0.3,0.3h0c-0.2,0-0.3-0.1-0.3-0.3
							v-1.2C195.2,190,195.3,189.9,195.5,189.9z"/>
						<path class="st19" d="M194.4,189.1L194.4,189.1c0.1-0.1,0.3-0.1,0.4,0l0.8,0.8c0.1,0.1,0.1,0.3,0,0.4l0,0
							c-0.1,0.1-0.3,0.1-0.4,0l-0.8-0.8C194.3,189.4,194.3,189.2,194.4,189.1z"/>
						<path class="st19" d="M195.2,190.4L195.2,190.4c-0.1-0.1-0.1-0.3,0-0.4l0.8-0.8c0.1-0.1,0.3-0.1,0.4,0l0,0
							c0.1,0.1,0.1,0.3,0,0.4l-0.8,0.8C195.5,190.5,195.4,190.5,195.2,190.4z"/>
						<path class="st19" d="M199.2,189.9L199.2,189.9c0.2,0,0.3,0.1,0.3,0.3v1.2c0,0.2-0.1,0.3-0.3,0.3h0c-0.2,0-0.3-0.1-0.3-0.3
							v-1.2C198.9,190,199,189.9,199.2,189.9z"/>
						<path class="st19" d="M198.2,189.1L198.2,189.1c0.1-0.1,0.3-0.1,0.4,0l0.8,0.8c0.1,0.1,0.1,0.3,0,0.4l0,0
							c-0.1,0.1-0.3,0.1-0.4,0l-0.8-0.8C198.1,189.4,198.1,189.2,198.2,189.1z"/>
						<path class="st19" d="M199,190.4L199,190.4c-0.1-0.1-0.1-0.3,0-0.4l0.8-0.8c0.1-0.1,0.3-0.1,0.4,0l0,0c0.1,0.1,0.1,0.3,0,0.4
							l-0.8,0.8C199.3,190.5,199.1,190.5,199,190.4z"/>
						<path class="st19" d="M202.9,189.9L202.9,189.9c0.2,0,0.3,0.1,0.3,0.3v1.2c0,0.2-0.1,0.3-0.3,0.3h0c-0.2,0-0.3-0.1-0.3-0.3
							v-1.2C202.6,190,202.8,189.9,202.9,189.9z"/>
						<path class="st19" d="M201.9,189.1L201.9,189.1c0.1-0.1,0.3-0.1,0.4,0l0.8,0.8c0.1,0.1,0.1,0.3,0,0.4l0,0
							c-0.1,0.1-0.3,0.1-0.4,0l-0.8-0.8C201.8,189.4,201.8,189.2,201.9,189.1z"/>
						<path class="st19" d="M202.7,190.4L202.7,190.4c-0.1-0.1-0.1-0.3,0-0.4l0.8-0.8c0.1-0.1,0.3-0.1,0.4,0l0,0
							c0.1,0.1,0.1,0.3,0,0.4l-0.8,0.8C203.1,190.5,202.9,190.5,202.7,190.4z"/>
						<path class="st19" d="M191.7,194L191.7,194c0.2,0,0.3,0.1,0.3,0.3v1.2c0,0.2-0.1,0.3-0.3,0.3h0c-0.2,0-0.3-0.1-0.3-0.3v-1.2
							C191.4,194.2,191.6,194,191.7,194z"/>
						<path class="st19" d="M190.7,193.3L190.7,193.3c0.1-0.1,0.3-0.1,0.4,0l0.8,0.8c0.1,0.1,0.1,0.3,0,0.4l0,0
							c-0.1,0.1-0.3,0.1-0.4,0l-0.8-0.8C190.6,193.6,190.6,193.4,190.7,193.3z"/>
						<path class="st19" d="M191.5,194.6L191.5,194.6c-0.1-0.1-0.1-0.3,0-0.4l0.8-0.8c0.1-0.1,0.3-0.1,0.4,0l0,0
							c0.1,0.1,0.1,0.3,0,0.4l-0.8,0.8C191.8,194.7,191.7,194.7,191.5,194.6z"/>
						<path class="st19" d="M195.5,194L195.5,194c0.2,0,0.3,0.1,0.3,0.3v1.2c0,0.2-0.1,0.3-0.3,0.3h0c-0.2,0-0.3-0.1-0.3-0.3v-1.2
							C195.2,194.2,195.3,194,195.5,194z"/>
						<path class="st19" d="M194.5,193.3L194.5,193.3c0.1-0.1,0.3-0.1,0.4,0l0.8,0.8c0.1,0.1,0.1,0.3,0,0.4l0,0
							c-0.1,0.1-0.3,0.1-0.4,0l-0.8-0.8C194.3,193.7,194.3,193.5,194.5,193.3z"/>
						<path class="st19" d="M195.3,194.6L195.3,194.6c-0.1-0.1-0.1-0.3,0-0.4l0.8-0.8c0.1-0.1,0.3-0.1,0.4,0l0,0
							c0.1,0.1,0.1,0.3,0,0.4l-0.8,0.8C195.6,194.7,195.4,194.7,195.3,194.6z"/>
						<path class="st19" d="M199.2,194L199.2,194c0.2,0,0.3,0.1,0.3,0.3v1.2c0,0.2-0.1,0.3-0.3,0.3h0c-0.2,0-0.3-0.1-0.3-0.3v-1.2
							C198.9,194.2,199,194,199.2,194z"/>
						<path class="st19" d="M198.2,193.3L198.2,193.3c0.1-0.1,0.3-0.1,0.4,0l0.8,0.8c0.1,0.1,0.1,0.3,0,0.4l0,0
							c-0.1,0.1-0.3,0.1-0.4,0l-0.8-0.8C198.1,193.6,198.1,193.5,198.2,193.3z"/>
						<path class="st19" d="M199,194.6L199,194.6c-0.1-0.1-0.1-0.3,0-0.4l0.8-0.8c0.1-0.1,0.3-0.1,0.4,0l0,0c0.1,0.1,0.1,0.3,0,0.4
							l-0.8,0.8C199.3,194.7,199.1,194.7,199,194.6z"/>
						<path class="st19" d="M202.9,194L202.9,194c0.2,0,0.3,0.1,0.3,0.3v1.2c0,0.2-0.1,0.3-0.3,0.3h0c-0.2,0-0.3-0.1-0.3-0.3v-1.2
							C202.6,194.2,202.8,194,202.9,194z"/>
						<path class="st19" d="M201.9,193.3L201.9,193.3c0.1-0.1,0.3-0.1,0.4,0l0.8,0.8c0.1,0.1,0.1,0.3,0,0.4l0,0
							c-0.1,0.1-0.3,0.1-0.4,0l-0.8-0.8C201.8,193.7,201.8,193.5,201.9,193.3z"/>
						<path class="st19" d="M202.7,194.6L202.7,194.6c-0.1-0.1-0.1-0.3,0-0.4l0.8-0.8c0.1-0.1,0.3-0.1,0.4,0l0,0
							c0.1,0.1,0.1,0.3,0,0.4l-0.8,0.8C203,194.7,202.9,194.7,202.7,194.6z"/>
						<path class="st19" d="M191.7,198.3L191.7,198.3c0.2,0,0.3,0.1,0.3,0.3v1.2c0,0.2-0.1,0.3-0.3,0.3h0c-0.2,0-0.3-0.1-0.3-0.3
							v-1.2C191.4,198.4,191.6,198.3,191.7,198.3z"/>
						<path class="st19" d="M190.7,197.5L190.7,197.5c0.1-0.1,0.3-0.1,0.4,0l0.8,0.8c0.1,0.1,0.1,0.3,0,0.4l0,0
							c-0.1,0.1-0.3,0.1-0.4,0l-0.8-0.8C190.6,197.9,190.6,197.7,190.7,197.5z"/>
						<path class="st19" d="M191.5,198.8L191.5,198.8c-0.1-0.1-0.1-0.3,0-0.4l0.8-0.8c0.1-0.1,0.3-0.1,0.4,0l0,0
							c0.1,0.1,0.1,0.3,0,0.4l-0.8,0.8C191.8,198.9,191.6,198.9,191.5,198.8z"/>
						<path class="st19" d="M195.5,198.3L195.5,198.3c0.2,0,0.3,0.1,0.3,0.3v1.2c0,0.2-0.1,0.3-0.3,0.3h0c-0.2,0-0.3-0.1-0.3-0.3
							v-1.2C195.2,198.4,195.3,198.3,195.5,198.3z"/>
						<path class="st19" d="M194.4,197.6L194.4,197.6c0.1-0.1,0.3-0.1,0.4,0l0.8,0.8c0.1,0.1,0.1,0.3,0,0.4l0,0
							c-0.1,0.1-0.3,0.1-0.4,0l-0.8-0.8C194.3,197.9,194.3,197.7,194.4,197.6z"/>
						<path class="st19" d="M195.3,198.8L195.3,198.8c-0.1-0.1-0.1-0.3,0-0.4l0.8-0.8c0.1-0.1,0.3-0.1,0.4,0l0,0
							c0.1,0.1,0.1,0.3,0,0.4l-0.8,0.8C195.6,198.9,195.4,198.9,195.3,198.8z"/>
						<path class="st19" d="M199.2,198.3L199.2,198.3c0.2,0,0.3,0.1,0.3,0.3v1.2c0,0.2-0.1,0.3-0.3,0.3h0c-0.2,0-0.3-0.1-0.3-0.3
							v-1.2C198.9,198.4,199,198.3,199.2,198.3z"/>
						<path class="st19" d="M198.2,197.6L198.2,197.6c0.1-0.1,0.3-0.1,0.4,0l0.8,0.8c0.1,0.1,0.1,0.3,0,0.4l0,0
							c-0.1,0.1-0.3,0.1-0.4,0l-0.8-0.8C198.1,197.9,198,197.7,198.2,197.6z"/>
						<path class="st19" d="M199,198.8L199,198.8c-0.1-0.1-0.1-0.3,0-0.4l0.8-0.8c0.1-0.1,0.3-0.1,0.4,0l0,0c0.1,0.1,0.1,0.3,0,0.4
							l-0.8,0.8C199.3,198.9,199.1,198.9,199,198.8z"/>
						<path class="st19" d="M202.9,198.3L202.9,198.3c0.2,0,0.3,0.1,0.3,0.3v1.2c0,0.2-0.1,0.3-0.3,0.3h0c-0.2,0-0.3-0.1-0.3-0.3
							v-1.2C202.6,198.4,202.8,198.3,202.9,198.3z"/>
						<path class="st19" d="M201.9,197.6L201.9,197.6c0.1-0.1,0.3-0.1,0.4,0l0.8,0.8c0.1,0.1,0.1,0.3,0,0.4l0,0
							c-0.1,0.1-0.3,0.1-0.4,0l-0.8-0.8C201.8,197.9,201.8,197.7,201.9,197.6z"/>
						<path class="st19" d="M202.7,198.8L202.7,198.8c-0.1-0.1-0.1-0.3,0-0.4l0.8-0.8c0.1-0.1,0.3-0.1,0.4,0l0,0
							c0.1,0.1,0.1,0.3,0,0.4l-0.8,0.8C203,198.9,202.8,198.9,202.7,198.8z"/>
						<path class="st19" d="M191.7,202.5L191.7,202.5c0.2,0,0.3,0.1,0.3,0.3v1.2c0,0.2-0.1,0.3-0.3,0.3h0c-0.2,0-0.3-0.1-0.3-0.3
							v-1.2C191.4,202.6,191.6,202.5,191.7,202.5z"/>
						<path class="st19" d="M190.7,201.8L190.7,201.8c0.1-0.1,0.3-0.1,0.4,0l0.8,0.8c0.1,0.1,0.1,0.3,0,0.4l0,0
							c-0.1,0.1-0.3,0.1-0.4,0l-0.8-0.8C190.6,202.1,190.6,201.9,190.7,201.8z"/>
						<path class="st19" d="M191.5,203L191.5,203c-0.1-0.1-0.1-0.3,0-0.4l0.8-0.8c0.1-0.1,0.3-0.1,0.4,0l0,0c0.1,0.1,0.1,0.3,0,0.4
							L192,203C191.8,203.1,191.7,203.1,191.5,203z"/>
						<path class="st19" d="M195.5,202.5L195.5,202.5c0.2,0,0.3,0.1,0.3,0.3v1.2c0,0.2-0.1,0.3-0.3,0.3h0c-0.2,0-0.3-0.1-0.3-0.3
							v-1.2C195.2,202.6,195.3,202.5,195.5,202.5z"/>
						<path class="st19" d="M194.4,201.7L194.4,201.7c0.1-0.1,0.3-0.1,0.4,0l0.8,0.8c0.1,0.1,0.1,0.3,0,0.4l0,0
							c-0.1,0.1-0.3,0.1-0.4,0l-0.8-0.8C194.3,202,194.3,201.9,194.4,201.7z"/>
						<path class="st19" d="M195.2,203L195.2,203c-0.1-0.1-0.1-0.3,0-0.4l0.8-0.8c0.1-0.1,0.3-0.1,0.4,0l0,0c0.1,0.1,0.1,0.3,0,0.4
							l-0.8,0.8C195.5,203.1,195.4,203.1,195.2,203z"/>
						<path class="st19" d="M199.2,202.5L199.2,202.5c0.2,0,0.3,0.1,0.3,0.3v1.2c0,0.2-0.1,0.3-0.3,0.3h0c-0.2,0-0.3-0.1-0.3-0.3
							v-1.2C198.9,202.6,199,202.5,199.2,202.5z"/>
						<path class="st19" d="M198.2,201.7L198.2,201.7c0.1-0.1,0.3-0.1,0.4,0l0.8,0.8c0.1,0.1,0.1,0.3,0,0.4l0,0
							c-0.1,0.1-0.3,0.1-0.4,0l-0.8-0.8C198.1,202,198.1,201.9,198.2,201.7z"/>
						<path class="st19" d="M199,203L199,203c-0.1-0.1-0.1-0.3,0-0.4l0.8-0.8c0.1-0.1,0.3-0.1,0.4,0l0,0c0.1,0.1,0.1,0.3,0,0.4
							l-0.8,0.8C199.3,203.1,199.1,203.1,199,203z"/>
						<path class="st19" d="M202.9,202.5L202.9,202.5c0.2,0,0.3,0.1,0.3,0.3v1.2c0,0.2-0.1,0.3-0.3,0.3h0c-0.2,0-0.3-0.1-0.3-0.3
							v-1.2C202.6,202.6,202.8,202.5,202.9,202.5z"/>
						<path class="st19" d="M201.9,201.8L201.9,201.8c0.1-0.1,0.3-0.1,0.4,0l0.8,0.8c0.1,0.1,0.1,0.3,0,0.4l0,0
							c-0.1,0.1-0.3,0.1-0.4,0l-0.8-0.8C201.8,202.1,201.8,201.9,201.9,201.8z"/>
						<path class="st19" d="M202.8,203L202.8,203c-0.1-0.1-0.1-0.3,0-0.4l0.8-0.8c0.1-0.1,0.3-0.1,0.4,0l0,0c0.1,0.1,0.1,0.3,0,0.4
							l-0.8,0.8C203.1,203.1,202.9,203.1,202.8,203z"/>
						<path class="st19" d="M212.9,177.2L212.9,177.2c0.2,0,0.3,0.1,0.3,0.3v1.2c0,0.2-0.1,0.3-0.3,0.3h0c-0.2,0-0.3-0.1-0.3-0.3
							v-1.2C212.6,177.4,212.7,177.2,212.9,177.2z"/>
						<path class="st19" d="M211.8,176.5L211.8,176.5c0.1-0.1,0.3-0.1,0.4,0l0.8,0.8c0.1,0.1,0.1,0.3,0,0.4l0,0
							c-0.1,0.1-0.3,0.1-0.4,0l-0.8-0.8C211.7,176.8,211.7,176.6,211.8,176.5z"/>
						<path class="st19" d="M212.6,177.8L212.6,177.8c-0.1-0.1-0.1-0.3,0-0.4l0.8-0.8c0.1-0.1,0.3-0.1,0.4,0l0,0
							c0.1,0.1,0.1,0.3,0,0.4l-0.8,0.8C212.9,177.9,212.7,177.9,212.6,177.8z"/>
						<path class="st19" d="M216.6,177.2L216.6,177.2c0.2,0,0.3,0.1,0.3,0.3v1.2c0,0.2-0.1,0.3-0.3,0.3h0c-0.2,0-0.3-0.1-0.3-0.3
							v-1.2C216.3,177.4,216.4,177.2,216.6,177.2z"/>
						<path class="st19" d="M215.5,176.5L215.5,176.5c0.1-0.1,0.3-0.1,0.4,0l0.8,0.8c0.1,0.1,0.1,0.3,0,0.4l0,0
							c-0.1,0.1-0.3,0.1-0.4,0l-0.8-0.8C215.4,176.8,215.4,176.6,215.5,176.5z"/>
						<path class="st19" d="M216.4,177.8L216.4,177.8c-0.1-0.1-0.1-0.3,0-0.4l0.8-0.8c0.1-0.1,0.3-0.1,0.4,0l0,0
							c0.1,0.1,0.1,0.3,0,0.4l-0.8,0.8C216.7,177.9,216.5,177.9,216.4,177.8z"/>
						<path class="st19" d="M220.3,177.2L220.3,177.2c0.2,0,0.3,0.1,0.3,0.3v1.2c0,0.2-0.1,0.3-0.3,0.3h0c-0.2,0-0.3-0.1-0.3-0.3
							v-1.2C220,177.4,220.1,177.2,220.3,177.2z"/>
						<path class="st19" d="M219.3,176.5L219.3,176.5c0.1-0.1,0.3-0.1,0.4,0l0.8,0.8c0.1,0.1,0.1,0.3,0,0.4l0,0
							c-0.1,0.1-0.3,0.1-0.4,0l-0.8-0.8C219.2,176.8,219.2,176.6,219.3,176.5z"/>
						<path class="st19" d="M220.1,177.8L220.1,177.8c-0.1-0.1-0.1-0.3,0-0.4l0.8-0.8c0.1-0.1,0.3-0.1,0.4,0l0,0
							c0.1,0.1,0.1,0.3,0,0.4l-0.8,0.8C220.4,177.9,220.2,177.9,220.1,177.8z"/>
						<path class="st19" d="M224,177.2L224,177.2c0.2,0,0.3,0.1,0.3,0.3v1.2c0,0.2-0.1,0.3-0.3,0.3h0c-0.2,0-0.3-0.1-0.3-0.3v-1.2
							C223.7,177.4,223.9,177.2,224,177.2z"/>
						<path class="st19" d="M223,176.5L223,176.5c0.1-0.1,0.3-0.1,0.4,0l0.8,0.8c0.1,0.1,0.1,0.3,0,0.4l0,0c-0.1,0.1-0.3,0.1-0.4,0
							l-0.8-0.8C222.9,176.8,222.9,176.6,223,176.5z"/>
						<path class="st19" d="M223.8,177.8L223.8,177.8c-0.1-0.1-0.1-0.3,0-0.4l0.8-0.8c0.1-0.1,0.3-0.1,0.4,0l0,0
							c0.1,0.1,0.1,0.3,0,0.4l-0.8,0.8C224.1,177.9,224,177.9,223.8,177.8z"/>
						<path class="st19" d="M212.9,181.4L212.9,181.4c0.2,0,0.3,0.1,0.3,0.3v1.2c0,0.2-0.1,0.3-0.3,0.3h0c-0.2,0-0.3-0.1-0.3-0.3
							v-1.2C212.6,181.6,212.7,181.4,212.9,181.4z"/>
						<path class="st19" d="M211.8,180.7L211.8,180.7c0.1-0.1,0.3-0.1,0.4,0l0.8,0.8c0.1,0.1,0.1,0.3,0,0.4l0,0
							c-0.1,0.1-0.3,0.1-0.4,0l-0.8-0.8C211.7,181,211.7,180.8,211.8,180.7z"/>
						<path class="st19" d="M212.7,182L212.7,182c-0.1-0.1-0.1-0.3,0-0.4l0.8-0.8c0.1-0.1,0.3-0.1,0.4,0l0,0c0.1,0.1,0.1,0.3,0,0.4
							l-0.8,0.8C213,182.1,212.8,182.1,212.7,182z"/>
						<path class="st19" d="M216.6,181.4L216.6,181.4c0.2,0,0.3,0.1,0.3,0.3v1.2c0,0.2-0.1,0.3-0.3,0.3h0c-0.2,0-0.3-0.1-0.3-0.3
							v-1.2C216.3,181.6,216.4,181.4,216.6,181.4z"/>
						<path class="st19" d="M215.5,180.7L215.5,180.7c0.1-0.1,0.3-0.1,0.4,0l0.8,0.8c0.1,0.1,0.1,0.3,0,0.4l0,0
							c-0.1,0.1-0.3,0.1-0.4,0l-0.8-0.8C215.4,181,215.4,180.8,215.5,180.7z"/>
						<path class="st19" d="M216.4,182L216.4,182c-0.1-0.1-0.1-0.3,0-0.4l0.8-0.8c0.1-0.1,0.3-0.1,0.4,0l0,0c0.1,0.1,0.1,0.3,0,0.4
							l-0.8,0.8C216.7,182.1,216.5,182.1,216.4,182z"/>
						<path class="st19" d="M220.3,181.4L220.3,181.4c0.2,0,0.3,0.1,0.3,0.3v1.2c0,0.2-0.1,0.3-0.3,0.3h0c-0.2,0-0.3-0.1-0.3-0.3
							v-1.2C220,181.6,220.1,181.4,220.3,181.4z"/>
						<path class="st19" d="M219.3,180.7L219.3,180.7c0.1-0.1,0.3-0.1,0.4,0l0.8,0.8c0.1,0.1,0.1,0.3,0,0.4l0,0
							c-0.1,0.1-0.3,0.1-0.4,0l-0.8-0.8C219.2,181,219.2,180.8,219.3,180.7z"/>
						<path class="st19" d="M220.1,182L220.1,182c-0.1-0.1-0.1-0.3,0-0.4l0.8-0.8c0.1-0.1,0.3-0.1,0.4,0l0,0c0.1,0.1,0.1,0.3,0,0.4
							l-0.8,0.8C220.4,182.1,220.2,182.1,220.1,182z"/>
						<path class="st19" d="M224,181.4L224,181.4c0.2,0,0.3,0.1,0.3,0.3v1.2c0,0.2-0.1,0.3-0.3,0.3h0c-0.2,0-0.3-0.1-0.3-0.3v-1.2
							C223.7,181.6,223.9,181.4,224,181.4z"/>
						<path class="st19" d="M223,180.7L223,180.7c0.1-0.1,0.3-0.1,0.4,0l0.8,0.8c0.1,0.1,0.1,0.3,0,0.4l0,0c-0.1,0.1-0.3,0.1-0.4,0
							l-0.8-0.8C222.9,181,222.9,180.8,223,180.7z"/>
						<path class="st19" d="M223.9,182L223.9,182c-0.1-0.1-0.1-0.3,0-0.4l0.8-0.8c0.1-0.1,0.3-0.1,0.4,0l0,0c0.1,0.1,0.1,0.3,0,0.4
							l-0.8,0.8C224.2,182.1,224,182.1,223.9,182z"/>
						<path class="st19" d="M212.9,185.6L212.9,185.6c0.2,0,0.3,0.1,0.3,0.3v1.2c0,0.2-0.1,0.3-0.3,0.3h0c-0.2,0-0.3-0.1-0.3-0.3
							v-1.2C212.6,185.8,212.7,185.6,212.9,185.6z"/>
						<path class="st19" d="M211.8,185L211.8,185c0.1-0.1,0.3-0.1,0.4,0l0.8,0.8c0.1,0.1,0.1,0.3,0,0.4l0,0c-0.1,0.1-0.3,0.1-0.4,0
							l-0.8-0.8C211.7,185.3,211.7,185.1,211.8,185z"/>
						<path class="st19" d="M212.6,186.2L212.6,186.2c-0.1-0.1-0.1-0.3,0-0.4l0.8-0.8c0.1-0.1,0.3-0.1,0.4,0l0,0
							c0.1,0.1,0.1,0.3,0,0.4l-0.8,0.8C212.9,186.3,212.7,186.3,212.6,186.2z"/>
						<path class="st19" d="M216.6,185.6L216.6,185.6c0.2,0,0.3,0.1,0.3,0.3v1.2c0,0.2-0.1,0.3-0.3,0.3h0c-0.2,0-0.3-0.1-0.3-0.3
							v-1.2C216.3,185.8,216.4,185.6,216.6,185.6z"/>
						<path class="st19" d="M215.5,184.9L215.5,184.9c0.1-0.1,0.3-0.1,0.4,0l0.8,0.8c0.1,0.1,0.1,0.3,0,0.4l0,0
							c-0.1,0.1-0.3,0.1-0.4,0l-0.8-0.8C215.4,185.2,215.4,185,215.5,184.9z"/>
						<path class="st19" d="M216.3,186.2L216.3,186.2c-0.1-0.1-0.1-0.3,0-0.4l0.8-0.8c0.1-0.1,0.3-0.1,0.4,0l0,0
							c0.1,0.1,0.1,0.3,0,0.4l-0.8,0.8C216.7,186.3,216.5,186.3,216.3,186.2z"/>
						<path class="st19" d="M220.3,185.6L220.3,185.6c0.2,0,0.3,0.1,0.3,0.3v1.2c0,0.2-0.1,0.3-0.3,0.3h0c-0.2,0-0.3-0.1-0.3-0.3
							v-1.2C220,185.8,220.1,185.6,220.3,185.6z"/>
						<path class="st19" d="M219.3,184.9L219.3,184.9c0.1-0.1,0.3-0.1,0.4,0l0.8,0.8c0.1,0.1,0.1,0.3,0,0.4l0,0
							c-0.1,0.1-0.3,0.1-0.4,0l-0.8-0.8C219.2,185.2,219.2,185.1,219.3,184.9z"/>
						<path class="st19" d="M220.1,186.2L220.1,186.2c-0.1-0.1-0.1-0.3,0-0.4l0.8-0.8c0.1-0.1,0.3-0.1,0.4,0l0,0
							c0.1,0.1,0.1,0.3,0,0.4l-0.8,0.8C220.4,186.3,220.2,186.3,220.1,186.2z"/>
						<path class="st19" d="M224,185.6L224,185.6c0.2,0,0.3,0.1,0.3,0.3v1.2c0,0.2-0.1,0.3-0.3,0.3h0c-0.2,0-0.3-0.1-0.3-0.3v-1.2
							C223.7,185.8,223.9,185.6,224,185.6z"/>
						<path class="st19" d="M223,184.9L223,184.9c0.1-0.1,0.3-0.1,0.4,0l0.8,0.8c0.1,0.1,0.1,0.3,0,0.4l0,0c-0.1,0.1-0.3,0.1-0.4,0
							l-0.8-0.8C222.9,185.2,222.9,185,223,184.9z"/>
						<path class="st19" d="M223.8,186.2L223.8,186.2c-0.1-0.1-0.1-0.3,0-0.4l0.8-0.8c0.1-0.1,0.3-0.1,0.4,0l0,0
							c0.1,0.1,0.1,0.3,0,0.4l-0.8,0.8C224.1,186.3,223.9,186.3,223.8,186.2z"/>
						<path class="st19" d="M212.9,189.9L212.9,189.9c0.2,0,0.3,0.1,0.3,0.3v1.2c0,0.2-0.1,0.3-0.3,0.3h0c-0.2,0-0.3-0.1-0.3-0.3
							v-1.2C212.6,190,212.7,189.9,212.9,189.9z"/>
						<path class="st19" d="M211.8,189.1L211.8,189.1c0.1-0.1,0.3-0.1,0.4,0l0.8,0.8c0.1,0.1,0.1,0.3,0,0.4l0,0
							c-0.1,0.1-0.3,0.1-0.4,0l-0.8-0.8C211.7,189.4,211.7,189.2,211.8,189.1z"/>
						<path class="st19" d="M212.6,190.4L212.6,190.4c-0.1-0.1-0.1-0.3,0-0.4l0.8-0.8c0.1-0.1,0.3-0.1,0.4,0l0,0
							c0.1,0.1,0.1,0.3,0,0.4l-0.8,0.8C213,190.5,212.8,190.5,212.6,190.4z"/>
						<path class="st19" d="M216.6,189.9L216.6,189.9c0.2,0,0.3,0.1,0.3,0.3v1.2c0,0.2-0.1,0.3-0.3,0.3h0c-0.2,0-0.3-0.1-0.3-0.3
							v-1.2C216.3,190,216.4,189.9,216.6,189.9z"/>
						<path class="st19" d="M215.5,189.2L215.5,189.2c0.1-0.1,0.3-0.1,0.4,0l0.8,0.8c0.1,0.1,0.1,0.3,0,0.4l0,0
							c-0.1,0.1-0.3,0.1-0.4,0l-0.8-0.8C215.4,189.5,215.4,189.3,215.5,189.2z"/>
						<path class="st19" d="M216.4,190.4L216.4,190.4c-0.1-0.1-0.1-0.3,0-0.4l0.8-0.8c0.1-0.1,0.3-0.1,0.4,0l0,0
							c0.1,0.1,0.1,0.3,0,0.4l-0.8,0.8C216.7,190.5,216.5,190.5,216.4,190.4z"/>
						<path class="st19" d="M220.3,189.9L220.3,189.9c0.2,0,0.3,0.1,0.3,0.3v1.2c0,0.2-0.1,0.3-0.3,0.3h0c-0.2,0-0.3-0.1-0.3-0.3
							v-1.2C220,190,220.1,189.9,220.3,189.9z"/>
						<path class="st19" d="M219.3,189.1L219.3,189.1c0.1-0.1,0.3-0.1,0.4,0l0.8,0.8c0.1,0.1,0.1,0.3,0,0.4l0,0
							c-0.1,0.1-0.3,0.1-0.4,0l-0.8-0.8C219.2,189.4,219.2,189.2,219.3,189.1z"/>
						<path class="st19" d="M220.1,190.4L220.1,190.4c-0.1-0.1-0.1-0.3,0-0.4l0.8-0.8c0.1-0.1,0.3-0.1,0.4,0l0,0
							c0.1,0.1,0.1,0.3,0,0.4l-0.8,0.8C220.4,190.5,220.2,190.5,220.1,190.4z"/>
						<path class="st19" d="M224,189.9L224,189.9c0.2,0,0.3,0.1,0.3,0.3v1.2c0,0.2-0.1,0.3-0.3,0.3h0c-0.2,0-0.3-0.1-0.3-0.3v-1.2
							C223.7,190,223.9,189.9,224,189.9z"/>
						<path class="st19" d="M223,189.1L223,189.1c0.1-0.1,0.3-0.1,0.4,0l0.8,0.8c0.1,0.1,0.1,0.3,0,0.4l0,0c-0.1,0.1-0.3,0.1-0.4,0
							l-0.8-0.8C222.9,189.4,222.9,189.2,223,189.1z"/>
						<path class="st19" d="M223.8,190.4L223.8,190.4c-0.1-0.1-0.1-0.3,0-0.4l0.8-0.8c0.1-0.1,0.3-0.1,0.4,0l0,0
							c0.1,0.1,0.1,0.3,0,0.4l-0.8,0.8C224.1,190.5,223.9,190.5,223.8,190.4z"/>
						<path class="st19" d="M212.9,194L212.9,194c0.2,0,0.3,0.1,0.3,0.3v1.2c0,0.2-0.1,0.3-0.3,0.3h0c-0.2,0-0.3-0.1-0.3-0.3v-1.2
							C212.6,194.2,212.7,194,212.9,194z"/>
						<path class="st19" d="M211.8,193.3L211.8,193.3c0.1-0.1,0.3-0.1,0.4,0l0.8,0.8c0.1,0.1,0.1,0.3,0,0.4l0,0
							c-0.1,0.1-0.3,0.1-0.4,0l-0.8-0.8C211.7,193.7,211.7,193.5,211.8,193.3z"/>
						<path class="st19" d="M212.6,194.6L212.6,194.6c-0.1-0.1-0.1-0.3,0-0.4l0.8-0.8c0.1-0.1,0.3-0.1,0.4,0l0,0
							c0.1,0.1,0.1,0.3,0,0.4l-0.8,0.8C213,194.7,212.8,194.7,212.6,194.6z"/>
						<path class="st19" d="M216.6,194L216.6,194c0.2,0,0.3,0.1,0.3,0.3v1.2c0,0.2-0.1,0.3-0.3,0.3h0c-0.2,0-0.3-0.1-0.3-0.3v-1.2
							C216.3,194.2,216.4,194,216.6,194z"/>
						<path class="st19" d="M215.5,193.3L215.5,193.3c0.1-0.1,0.3-0.1,0.4,0l0.8,0.8c0.1,0.1,0.1,0.3,0,0.4l0,0
							c-0.1,0.1-0.3,0.1-0.4,0l-0.8-0.8C215.4,193.6,215.4,193.4,215.5,193.3z"/>
						<path class="st19" d="M216.4,194.6L216.4,194.6c-0.1-0.1-0.1-0.3,0-0.4l0.8-0.8c0.1-0.1,0.3-0.1,0.4,0l0,0
							c0.1,0.1,0.1,0.3,0,0.4l-0.8,0.8C216.7,194.7,216.5,194.7,216.4,194.6z"/>
						<path class="st19" d="M220.3,194L220.3,194c0.2,0,0.3,0.1,0.3,0.3v1.2c0,0.2-0.1,0.3-0.3,0.3h0c-0.2,0-0.3-0.1-0.3-0.3v-1.2
							C220,194.2,220.1,194,220.3,194z"/>
						<path class="st19" d="M219.3,193.3L219.3,193.3c0.1-0.1,0.3-0.1,0.4,0l0.8,0.8c0.1,0.1,0.1,0.3,0,0.4l0,0
							c-0.1,0.1-0.3,0.1-0.4,0l-0.8-0.8C219.2,193.7,219.2,193.5,219.3,193.3z"/>
						<path class="st19" d="M220.1,194.6L220.1,194.6c-0.1-0.1-0.1-0.3,0-0.4l0.8-0.8c0.1-0.1,0.3-0.1,0.4,0l0,0
							c0.1,0.1,0.1,0.3,0,0.4l-0.8,0.8C220.4,194.7,220.2,194.7,220.1,194.6z"/>
						<path class="st19" d="M224,194L224,194c0.2,0,0.3,0.1,0.3,0.3v1.2c0,0.2-0.1,0.3-0.3,0.3h0c-0.2,0-0.3-0.1-0.3-0.3v-1.2
							C223.7,194.2,223.9,194,224,194z"/>
						<path class="st19" d="M223,193.3L223,193.3c0.1-0.1,0.3-0.1,0.4,0l0.8,0.8c0.1,0.1,0.1,0.3,0,0.4l0,0c-0.1,0.1-0.3,0.1-0.4,0
							l-0.8-0.8C222.9,193.6,222.9,193.5,223,193.3z"/>
						<path class="st19" d="M223.9,194.6L223.9,194.6c-0.1-0.1-0.1-0.3,0-0.4l0.8-0.8c0.1-0.1,0.3-0.1,0.4,0l0,0
							c0.1,0.1,0.1,0.3,0,0.4l-0.8,0.8C224.2,194.7,224,194.7,223.9,194.6z"/>
						<path class="st19" d="M212.9,198.3L212.9,198.3c0.2,0,0.3,0.1,0.3,0.3v1.2c0,0.2-0.1,0.3-0.3,0.3h0c-0.2,0-0.3-0.1-0.3-0.3
							v-1.2C212.6,198.4,212.7,198.3,212.9,198.3z"/>
						<path class="st19" d="M211.8,197.6L211.8,197.6c0.1-0.1,0.3-0.1,0.4,0l0.8,0.8c0.1,0.1,0.1,0.3,0,0.4l0,0
							c-0.1,0.1-0.3,0.1-0.4,0l-0.8-0.8C211.7,197.9,211.7,197.7,211.8,197.6z"/>
						<path class="st19" d="M212.6,198.8L212.6,198.8c-0.1-0.1-0.1-0.3,0-0.4l0.8-0.8c0.1-0.1,0.3-0.1,0.4,0l0,0
							c0.1,0.1,0.1,0.3,0,0.4l-0.8,0.8C212.9,198.9,212.7,198.9,212.6,198.8z"/>
						<path class="st19" d="M216.6,198.3L216.6,198.3c0.2,0,0.3,0.1,0.3,0.3v1.2c0,0.2-0.1,0.3-0.3,0.3h0c-0.2,0-0.3-0.1-0.3-0.3
							v-1.2C216.3,198.4,216.4,198.3,216.6,198.3z"/>
						<path class="st19" d="M215.5,197.5L215.5,197.5c0.1-0.1,0.3-0.1,0.4,0l0.8,0.8c0.1,0.1,0.1,0.3,0,0.4l0,0
							c-0.1,0.1-0.3,0.1-0.4,0l-0.8-0.8C215.4,197.9,215.4,197.7,215.5,197.5z"/>
						<path class="st19" d="M216.3,198.8L216.3,198.8c-0.1-0.1-0.1-0.3,0-0.4l0.8-0.8c0.1-0.1,0.3-0.1,0.4,0l0,0
							c0.1,0.1,0.1,0.3,0,0.4l-0.8,0.8C216.7,198.9,216.5,198.9,216.3,198.8z"/>
						<path class="st19" d="M220.3,198.3L220.3,198.3c0.2,0,0.3,0.1,0.3,0.3v1.2c0,0.2-0.1,0.3-0.3,0.3h0c-0.2,0-0.3-0.1-0.3-0.3
							v-1.2C220,198.4,220.1,198.3,220.3,198.3z"/>
						<path class="st19" d="M219.3,197.6L219.3,197.6c0.1-0.1,0.3-0.1,0.4,0l0.8,0.8c0.1,0.1,0.1,0.3,0,0.4l0,0
							c-0.1,0.1-0.3,0.1-0.4,0l-0.8-0.8C219.2,197.9,219.2,197.7,219.3,197.6z"/>
						<path class="st19" d="M220.1,198.8L220.1,198.8c-0.1-0.1-0.1-0.3,0-0.4l0.8-0.8c0.1-0.1,0.3-0.1,0.4,0l0,0
							c0.1,0.1,0.1,0.3,0,0.4l-0.8,0.8C220.4,198.9,220.2,198.9,220.1,198.8z"/>
						<path class="st19" d="M224,198.3L224,198.3c0.2,0,0.3,0.1,0.3,0.3v1.2c0,0.2-0.1,0.3-0.3,0.3h0c-0.2,0-0.3-0.1-0.3-0.3v-1.2
							C223.7,198.4,223.9,198.3,224,198.3z"/>
						<path class="st19" d="M223,197.6L223,197.6c0.1-0.1,0.3-0.1,0.4,0l0.8,0.8c0.1,0.1,0.1,0.3,0,0.4l0,0c-0.1,0.1-0.3,0.1-0.4,0
							L223,198C222.9,197.9,222.9,197.7,223,197.6z"/>
						<path class="st19" d="M223.8,198.8L223.8,198.8c-0.1-0.1-0.1-0.3,0-0.4l0.8-0.8c0.1-0.1,0.3-0.1,0.4,0l0,0
							c0.1,0.1,0.1,0.3,0,0.4l-0.8,0.8C224.1,198.9,224,198.9,223.8,198.8z"/>
						<path class="st19" d="M212.9,202.5L212.9,202.5c0.2,0,0.3,0.1,0.3,0.3v1.2c0,0.2-0.1,0.3-0.3,0.3h0c-0.2,0-0.3-0.1-0.3-0.3
							v-1.2C212.6,202.6,212.7,202.5,212.9,202.5z"/>
						<path class="st19" d="M211.8,201.7L211.8,201.7c0.1-0.1,0.3-0.1,0.4,0l0.8,0.8c0.1,0.1,0.1,0.3,0,0.4l0,0
							c-0.1,0.1-0.3,0.1-0.4,0l-0.8-0.8C211.7,202.1,211.7,201.9,211.8,201.7z"/>
						<path class="st19" d="M212.6,203L212.6,203c-0.1-0.1-0.1-0.3,0-0.4l0.8-0.8c0.1-0.1,0.3-0.1,0.4,0l0,0c0.1,0.1,0.1,0.3,0,0.4
							l-0.8,0.8C213,203.1,212.8,203.1,212.6,203z"/>
						<path class="st19" d="M216.6,202.5L216.6,202.5c0.2,0,0.3,0.1,0.3,0.3v1.2c0,0.2-0.1,0.3-0.3,0.3h0c-0.2,0-0.3-0.1-0.3-0.3
							v-1.2C216.3,202.6,216.4,202.5,216.6,202.5z"/>
						<path class="st19" d="M215.5,201.8L215.5,201.8c0.1-0.1,0.3-0.1,0.4,0l0.8,0.8c0.1,0.1,0.1,0.3,0,0.4l0,0
							c-0.1,0.1-0.3,0.1-0.4,0l-0.8-0.8C215.4,202.1,215.4,201.9,215.5,201.8z"/>
						<path class="st19" d="M216.4,203L216.4,203c-0.1-0.1-0.1-0.3,0-0.4l0.8-0.8c0.1-0.1,0.3-0.1,0.4,0l0,0c0.1,0.1,0.1,0.3,0,0.4
							l-0.8,0.8C216.7,203.1,216.5,203.1,216.4,203z"/>
						<path class="st19" d="M220.3,202.5L220.3,202.5c0.2,0,0.3,0.1,0.3,0.3v1.2c0,0.2-0.1,0.3-0.3,0.3h0c-0.2,0-0.3-0.1-0.3-0.3
							v-1.2C220,202.6,220.1,202.5,220.3,202.5z"/>
						<path class="st19" d="M219.3,201.7L219.3,201.7c0.1-0.1,0.3-0.1,0.4,0l0.8,0.8c0.1,0.1,0.1,0.3,0,0.4l0,0
							c-0.1,0.1-0.3,0.1-0.4,0l-0.8-0.8C219.2,202,219.2,201.9,219.3,201.7z"/>
						<path class="st19" d="M220.1,203L220.1,203c-0.1-0.1-0.1-0.3,0-0.4l0.8-0.8c0.1-0.1,0.3-0.1,0.4,0l0,0c0.1,0.1,0.1,0.3,0,0.4
							l-0.8,0.8C220.4,203.1,220.2,203.1,220.1,203z"/>
						<path class="st19" d="M224,202.5L224,202.5c0.2,0,0.3,0.1,0.3,0.3v1.2c0,0.2-0.1,0.3-0.3,0.3h0c-0.2,0-0.3-0.1-0.3-0.3v-1.2
							C223.7,202.6,223.9,202.5,224,202.5z"/>
						<path class="st19" d="M223,201.7L223,201.7c0.1-0.1,0.3-0.1,0.4,0l0.8,0.8c0.1,0.1,0.1,0.3,0,0.4l0,0c-0.1,0.1-0.3,0.1-0.4,0
							l-0.8-0.8C222.9,202,222.9,201.9,223,201.7z"/>
						<path class="st19" d="M223.8,203L223.8,203c-0.1-0.1-0.1-0.3,0-0.4l0.8-0.8c0.1-0.1,0.3-0.1,0.4,0l0,0c0.1,0.1,0.1,0.3,0,0.4
							l-0.8,0.8C224.1,203.1,223.9,203.1,223.8,203z"/>
						<path class="st10" d="M226.1,141.3h-9.2c-0.7,0-1.2-0.5-1.2-1.2v0c0-0.7,0.5-1.2,1.2-1.2h9.2c0.7,0,1.2,0.5,1.2,1.2v0
							C227.2,140.8,226.7,141.3,226.1,141.3z"/>
						<circle class="st10" cx="222.6" cy="138.4" r="2.9"/>
						<path class="st10" d="M217.3,139.2c0,1.2,0.9,2.1,2.1,2.1s2.1-0.9,2.1-2.1c0-1.2-0.9-2.1-2.1-2.1
							C218.3,137.1,217.3,138.1,217.3,139.2L217.3,139.2z"/>
						<path class="st20" d="M186.1,166.1h4.1c0.2,0,0.4,0.2,0.4,0.4l0,0c0,0.2-0.2,0.4-0.4,0.4h-4.1c-0.2,0-0.4-0.2-0.4-0.4l0,0
							C185.7,166.3,185.9,166.1,186.1,166.1z"/>
						<path class="st20" d="M186.6,166.9h3.6c0.2,0,0.4,0.2,0.4,0.4l0,0c0,0.2-0.2,0.4-0.4,0.4h-3.6c-0.2,0-0.4-0.2-0.4-0.4l0,0
							C186.2,167.1,186.4,166.9,186.6,166.9z"/>
						<path class="st20" d="M191.8,166.4c0,0.5-0.4,0.9-0.9,0.9s-0.9-0.4-0.9-0.9s0.4-0.9,0.9-0.9l0,0
							C191.4,165.5,191.8,165.9,191.8,166.4z"/>
						<path class="st20" d="M186.8,166.1c0,0.5-0.4,0.9-0.9,0.9s-0.9-0.4-0.9-0.9s0.4-0.9,0.9-0.9l0,0
							C186.4,165.2,186.8,165.6,186.8,166.1z"/>
						<path class="st20" d="M187.4,166.1c0,0.2-0.1,0.3-0.3,0.3h0c-0.2,0-0.3-0.1-0.3-0.3c0-0.2,0.1-0.3,0.3-0.3c0,0,0,0,0,0
							C187.2,165.8,187.4,165.9,187.4,166.1z"/>
						<path class="st20" d="M190,166.1c0,0.2-0.2,0.4-0.4,0.4s-0.4-0.2-0.4-0.4c0-0.2,0.2-0.4,0.4-0.4S190,165.9,190,166.1
							L190,166.1z"/>
						<path class="st20" d="M186.6,167.1c0,0.3-0.1,0.5-0.4,0.5s-0.5-0.1-0.5-0.4c0,0,0-0.1,0-0.1c0-0.3,0.3-0.4,0.5-0.4
							C186.5,166.7,186.6,166.9,186.6,167.1z"/>
						<path class="st21" d="M189.2,151.1c-1,5.5-0.4,11.1,1.8,16.2c-1.5,1.4-3.8,1.4-5.3,0c0,0,1.2-17.2,4.5-17
							C190.1,150.3,189.6,151.1,189.2,151.1z"/>
						<path class="st22" d="M185.3,166.8h5.4c0.3,0,0.5,0.2,0.5,0.5l0,0c0,0.3-0.2,0.5-0.5,0.5h-5.4c-0.3,0-0.5-0.2-0.5-0.5l0,0
							C184.8,167,185,166.8,185.3,166.8z"/>
						<path class="st22" d="M185.9,167.9h4.7c0.3,0,0.5,0.2,0.5,0.5l0,0c0,0.3-0.2,0.5-0.5,0.5h-4.7c-0.3,0-0.5-0.2-0.5-0.5l0,0
							C185.3,168.1,185.6,167.9,185.9,167.9z"/>
						<path class="st22" d="M192.6,167.2c0,0.7-0.5,1.2-1.2,1.2c-0.7,0-1.2-0.5-1.2-1.2c0-0.7,0.5-1.2,1.2-1.2l0,0
							C192.1,166,192.6,166.5,192.6,167.2z"/>
						<path class="st22" d="M186.1,166.8c0,0.7-0.5,1.2-1.2,1.2c-0.7,0-1.2-0.5-1.2-1.2c0-0.7,0.5-1.2,1.2-1.2l0,0
							C185.6,165.6,186.1,166.1,186.1,166.8z"/>
						<path class="st22" d="M186.9,166.8c0,0.2-0.2,0.4-0.4,0.4s-0.4-0.2-0.4-0.4c0-0.2,0.2-0.4,0.4-0.4c0,0,0,0,0,0
							C186.7,166.4,186.9,166.6,186.9,166.8L186.9,166.8z"/>
						<path class="st22" d="M190.3,166.8c0,0.3-0.2,0.5-0.5,0.5c0,0,0,0,0,0c-0.3-0.1-0.4-0.4-0.4-0.6c0-0.2,0.2-0.3,0.4-0.4
							C190.1,166.3,190.3,166.5,190.3,166.8z"/>
						<path class="st22" d="M185.9,168.1c0,0.3-0.3,0.6-0.7,0.5c-0.3,0-0.5-0.2-0.5-0.5c0-0.3,0.3-0.6,0.7-0.5
							C185.7,167.6,185.9,167.8,185.9,168.1z"/>
						<path class="st15" d="M176.2,168.9h3.3c0.2,0,0.3,0.2,0.3,0.3l0,0c0,0.2-0.2,0.3-0.3,0.3h-3.3c-0.2,0-0.3-0.2-0.3-0.3l0,0
							C175.8,169,176,168.9,176.2,168.9z"/>
						<path class="st15" d="M171.1,166.1h7.7c0.3,0,0.5,0.2,0.5,0.5v0c0,0.3-0.2,0.5-0.5,0.5h-7.7c-0.3,0-0.5-0.2-0.5-0.5v0
							C170.7,166.3,170.9,166.1,171.1,166.1z"/>
						<path class="st19" d="M171.9,177.2L171.9,177.2c0.2,0,0.3,0.1,0.3,0.3v1.2c0,0.2-0.1,0.3-0.3,0.3h0c-0.2,0-0.3-0.1-0.3-0.3
							v-1.2C171.6,177.4,171.7,177.2,171.9,177.2z"/>
						<path class="st19" d="M170.9,176.5L170.9,176.5c0.1-0.1,0.3-0.1,0.4,0l0.8,0.8c0.1,0.1,0.1,0.3,0,0.4l0,0
							c-0.1,0.1-0.3,0.1-0.4,0l-0.8-0.8C170.8,176.8,170.8,176.7,170.9,176.5z"/>
						<path class="st19" d="M171.7,177.7L171.7,177.7c-0.1-0.1-0.1-0.3,0-0.4l0.8-0.8c0.1-0.1,0.3-0.1,0.4,0l0,0
							c0.1,0.1,0.1,0.3,0,0.4l-0.8,0.8C172,177.9,171.8,177.9,171.7,177.7z"/>
						<path class="st19" d="M175.6,177.2L175.6,177.2c0.2,0,0.3,0.1,0.3,0.3v1.2c0,0.2-0.1,0.3-0.3,0.3h0c-0.2,0-0.3-0.1-0.3-0.3
							v-1.2C175.3,177.4,175.5,177.2,175.6,177.2z"/>
						<path class="st19" d="M174.6,176.5L174.6,176.5c0.1-0.1,0.3-0.1,0.4,0l0.8,0.8c0.1,0.1,0.1,0.3,0,0.4l0,0
							c-0.1,0.1-0.3,0.1-0.4,0l-0.8-0.8C174.5,176.8,174.5,176.6,174.6,176.5z"/>
						<path class="st19" d="M175.4,177.8L175.4,177.8c-0.1-0.1-0.1-0.3,0-0.4l0.8-0.8c0.1-0.1,0.3-0.1,0.4,0l0,0
							c0.1,0.1,0.1,0.3,0,0.4l-0.8,0.8C175.7,177.9,175.5,177.9,175.4,177.8z"/>
						<path class="st19" d="M179.4,177.2L179.4,177.2c0.2,0,0.3,0.1,0.3,0.3v1.2c0,0.2-0.1,0.3-0.3,0.3h0c-0.2,0-0.3-0.1-0.3-0.3
							v-1.2C179.1,177.4,179.2,177.2,179.4,177.2z"/>
						<path class="st19" d="M178.3,176.5L178.3,176.5c0.1-0.1,0.3-0.1,0.4,0l0.8,0.8c0.1,0.1,0.1,0.3,0,0.4l0,0
							c-0.1,0.1-0.3,0.1-0.4,0l-0.8-0.8C178.2,176.8,178.2,176.7,178.3,176.5z"/>
						<path class="st19" d="M179.2,177.8L179.2,177.8c-0.1-0.1-0.1-0.3,0-0.4l0.8-0.8c0.1-0.1,0.3-0.1,0.4,0l0,0
							c0.1,0.1,0.1,0.3,0,0.4l-0.8,0.8C179.5,177.9,179.3,177.9,179.2,177.8z"/>
						<path class="st19" d="M183.1,177.2L183.1,177.2c0.2,0,0.3,0.1,0.3,0.3v1.2c0,0.2-0.1,0.3-0.3,0.3h0c-0.2,0-0.3-0.1-0.3-0.3
							v-1.2C182.8,177.4,182.9,177.2,183.1,177.2z"/>
						<path class="st19" d="M182.1,176.5L182.1,176.5c0.1-0.1,0.3-0.1,0.4,0l0.8,0.8c0.1,0.1,0.1,0.3,0,0.4l0,0
							c-0.1,0.1-0.3,0.1-0.4,0l-0.8-0.8C182,176.8,182,176.6,182.1,176.5z"/>
						<path class="st19" d="M182.9,177.7L182.9,177.7c-0.1-0.1-0.1-0.3,0-0.4l0.8-0.8c0.1-0.1,0.3-0.1,0.4,0l0,0
							c0.1,0.1,0.1,0.3,0,0.4l-0.8,0.8C183.2,177.9,183,177.9,182.9,177.7z"/>
						<path class="st19" d="M171.9,181.4L171.9,181.4c0.2,0,0.3,0.1,0.3,0.3v1.2c0,0.2-0.1,0.3-0.3,0.3h0c-0.2,0-0.3-0.1-0.3-0.3
							v-1.2C171.6,181.6,171.7,181.4,171.9,181.4z"/>
						<path class="st19" d="M170.9,180.7L170.9,180.7c0.1-0.1,0.3-0.1,0.4,0l0.8,0.8c0.1,0.1,0.1,0.3,0,0.4l0,0
							c-0.1,0.1-0.3,0.1-0.4,0l-0.8-0.8C170.8,181,170.8,180.8,170.9,180.7z"/>
						<path class="st19" d="M171.7,182L171.7,182c-0.1-0.1-0.1-0.3,0-0.4l0.8-0.8c0.1-0.1,0.3-0.1,0.4,0l0,0c0.1,0.1,0.1,0.3,0,0.4
							l-0.8,0.8C172,182.1,171.8,182.1,171.7,182z"/>
						<path class="st19" d="M175.6,181.4L175.6,181.4c0.2,0,0.3,0.1,0.3,0.3v1.2c0,0.2-0.1,0.3-0.3,0.3h0c-0.2,0-0.3-0.1-0.3-0.3
							v-1.2C175.3,181.6,175.5,181.4,175.6,181.4z"/>
						<path class="st19" d="M174.6,180.7L174.6,180.7c0.1-0.1,0.3-0.1,0.4,0l0.8,0.8c0.1,0.1,0.1,0.3,0,0.4l0,0
							c-0.1,0.1-0.3,0.1-0.4,0l-0.8-0.8C174.5,181,174.5,180.8,174.6,180.7z"/>
						<path class="st19" d="M175.4,182L175.4,182c-0.1-0.1-0.1-0.3,0-0.4l0.8-0.8c0.1-0.1,0.3-0.1,0.4,0l0,0c0.1,0.1,0.1,0.3,0,0.4
							l-0.8,0.8C175.7,182.1,175.6,182.1,175.4,182z"/>
						<path class="st19" d="M179.4,181.4L179.4,181.4c0.2,0,0.3,0.1,0.3,0.3v1.2c0,0.2-0.1,0.3-0.3,0.3h0c-0.2,0-0.3-0.1-0.3-0.3
							v-1.2C179.1,181.6,179.2,181.4,179.4,181.4z"/>
						<path class="st19" d="M178.3,180.7L178.3,180.7c0.1-0.1,0.3-0.1,0.4,0l0.8,0.8c0.1,0.1,0.1,0.3,0,0.4l0,0
							c-0.1,0.1-0.3,0.1-0.4,0l-0.8-0.8C178.2,181,178.2,180.8,178.3,180.7z"/>
						<path class="st19" d="M179.2,182L179.2,182c-0.1-0.1-0.1-0.3,0-0.4l0.8-0.8c0.1-0.1,0.3-0.1,0.4,0l0,0c0.1,0.1,0.1,0.3,0,0.4
							l-0.8,0.8C179.5,182.1,179.3,182.1,179.2,182z"/>
						<path class="st19" d="M183.1,181.4L183.1,181.4c0.2,0,0.3,0.1,0.3,0.3v1.2c0,0.2-0.1,0.3-0.3,0.3h0c-0.2,0-0.3-0.1-0.3-0.3
							v-1.2C182.8,181.6,182.9,181.4,183.1,181.4z"/>
						<path class="st19" d="M182.1,180.7L182.1,180.7c0.1-0.1,0.3-0.1,0.4,0l0.8,0.8c0.1,0.1,0.1,0.3,0,0.4l0,0
							c-0.1,0.1-0.3,0.1-0.4,0l-0.8-0.8C182,181,182,180.8,182.1,180.7z"/>
						<path class="st19" d="M182.9,182L182.9,182c-0.1-0.1-0.1-0.3,0-0.4l0.8-0.8c0.1-0.1,0.3-0.1,0.4,0l0,0c0.1,0.1,0.1,0.3,0,0.4
							l-0.8,0.8C183.2,182.1,183,182.1,182.9,182z"/>
						<path class="st19" d="M171.9,185.6L171.9,185.6c0.2,0,0.3,0.1,0.3,0.3v1.2c0,0.2-0.1,0.3-0.3,0.3h0c-0.2,0-0.3-0.1-0.3-0.3
							v-1.2C171.6,185.8,171.7,185.6,171.9,185.6z"/>
						<path class="st19" d="M170.9,184.9L170.9,184.9c0.1-0.1,0.3-0.1,0.4,0l0.8,0.8c0.1,0.1,0.1,0.3,0,0.4l0,0
							c-0.1,0.1-0.3,0.1-0.4,0l-0.8-0.8C170.8,185.3,170.8,185.1,170.9,184.9z"/>
						<path class="st19" d="M171.7,186.2L171.7,186.2c-0.1-0.1-0.1-0.3,0-0.4l0.8-0.8c0.1-0.1,0.3-0.1,0.4,0l0,0
							c0.1,0.1,0.1,0.3,0,0.4l-0.8,0.8C172,186.3,171.8,186.3,171.7,186.2z"/>
						<path class="st19" d="M175.6,185.6L175.6,185.6c0.2,0,0.3,0.1,0.3,0.3v1.2c0,0.2-0.1,0.3-0.3,0.3h0c-0.2,0-0.3-0.1-0.3-0.3
							v-1.2C175.3,185.8,175.5,185.6,175.6,185.6z"/>
						<path class="st19" d="M174.6,184.9L174.6,184.9c0.1-0.1,0.3-0.1,0.4,0l0.8,0.8c0.1,0.1,0.1,0.3,0,0.4l0,0
							c-0.1,0.1-0.3,0.1-0.4,0l-0.8-0.8C174.5,185.2,174.5,185,174.6,184.9z"/>
						<path class="st19" d="M175.4,186.2L175.4,186.2c-0.1-0.1-0.1-0.3,0-0.4l0.8-0.8c0.1-0.1,0.3-0.1,0.4,0l0,0
							c0.1,0.1,0.1,0.3,0,0.4l-0.8,0.8C175.7,186.3,175.5,186.3,175.4,186.2z"/>
						<path class="st19" d="M179.4,185.6L179.4,185.6c0.2,0,0.3,0.1,0.3,0.3v1.2c0,0.2-0.1,0.3-0.3,0.3h0c-0.2,0-0.3-0.1-0.3-0.3
							v-1.2C179.1,185.8,179.2,185.6,179.4,185.6z"/>
						<path class="st19" d="M178.3,184.9L178.3,184.9c0.1-0.1,0.3-0.1,0.4,0l0.8,0.8c0.1,0.1,0.1,0.3,0,0.4l0,0
							c-0.1,0.1-0.3,0.1-0.4,0l-0.8-0.8C178.2,185.3,178.2,185.1,178.3,184.9z"/>
						<path class="st19" d="M179.2,186.2L179.2,186.2c-0.1-0.1-0.1-0.3,0-0.4l0.8-0.8c0.1-0.1,0.3-0.1,0.4,0l0,0
							c0.1,0.1,0.1,0.3,0,0.4l-0.8,0.8C179.5,186.3,179.3,186.3,179.2,186.2z"/>
						<path class="st19" d="M183.1,185.6L183.1,185.6c0.2,0,0.3,0.1,0.3,0.3v1.2c0,0.2-0.1,0.3-0.3,0.3h0c-0.2,0-0.3-0.1-0.3-0.3
							v-1.2C182.8,185.8,182.9,185.6,183.1,185.6z"/>
						<path class="st19" d="M182.1,184.9L182.1,184.9c0.1-0.1,0.3-0.1,0.4,0l0.8,0.8c0.1,0.1,0.1,0.3,0,0.4l0,0
							c-0.1,0.1-0.3,0.1-0.4,0l-0.8-0.8C182,185.2,182,185.1,182.1,184.9z"/>
						<path class="st19" d="M182.9,186.2L182.9,186.2c-0.1-0.1-0.1-0.3,0-0.4l0.8-0.8c0.1-0.1,0.3-0.1,0.4,0l0,0
							c0.1,0.1,0.1,0.3,0,0.4l-0.8,0.8C183.2,186.3,183,186.3,182.9,186.2z"/>
						<path class="st19" d="M171.9,189.9L171.9,189.9c0.2,0,0.3,0.1,0.3,0.3v1.2c0,0.2-0.1,0.3-0.3,0.3h0c-0.2,0-0.3-0.1-0.3-0.3
							v-1.2C171.6,190,171.7,189.9,171.9,189.9z"/>
						<path class="st19" d="M170.9,189.1L170.9,189.1c0.1-0.1,0.3-0.1,0.4,0l0.8,0.8c0.1,0.1,0.1,0.3,0,0.4l0,0
							c-0.1,0.1-0.3,0.1-0.4,0l-0.8-0.8C170.8,189.4,170.8,189.2,170.9,189.1z"/>
						<path class="st19" d="M171.7,190.4L171.7,190.4c-0.1-0.1-0.1-0.3,0-0.4l0.8-0.8c0.1-0.1,0.3-0.1,0.4,0l0,0
							c0.1,0.1,0.1,0.3,0,0.4l-0.8,0.8C172,190.5,171.8,190.5,171.7,190.4z"/>
						<path class="st19" d="M175.6,189.9L175.6,189.9c0.2,0,0.3,0.1,0.3,0.3v1.2c0,0.2-0.1,0.3-0.3,0.3h0c-0.2,0-0.3-0.1-0.3-0.3
							v-1.2C175.3,190,175.5,189.9,175.6,189.9z"/>
						<path class="st19" d="M174.6,189.1L174.6,189.1c0.1-0.1,0.3-0.1,0.4,0l0.8,0.8c0.1,0.1,0.1,0.3,0,0.4l0,0
							c-0.1,0.1-0.3,0.1-0.4,0l-0.8-0.8C174.5,189.5,174.5,189.3,174.6,189.1z"/>
						<path class="st19" d="M175.4,190.4L175.4,190.4c-0.1-0.1-0.1-0.3,0-0.4l0.8-0.8c0.1-0.1,0.3-0.1,0.4,0l0,0
							c0.1,0.1,0.1,0.3,0,0.4l-0.8,0.8C175.8,190.5,175.6,190.5,175.4,190.4z"/>
						<path class="st19" d="M179.4,189.9L179.4,189.9c0.2,0,0.3,0.1,0.3,0.3v1.2c0,0.2-0.1,0.3-0.3,0.3h0c-0.2,0-0.3-0.1-0.3-0.3
							v-1.2C179.1,190,179.2,189.9,179.4,189.9z"/>
						<path class="st19" d="M178.3,189.1L178.3,189.1c0.1-0.1,0.3-0.1,0.4,0l0.8,0.8c0.1,0.1,0.1,0.3,0,0.4l0,0
							c-0.1,0.1-0.3,0.1-0.4,0l-0.8-0.8C178.2,189.4,178.2,189.2,178.3,189.1z"/>
						<path class="st19" d="M179.1,190.4L179.1,190.4c-0.1-0.1-0.1-0.3,0-0.4l0.8-0.8c0.1-0.1,0.3-0.1,0.4,0l0,0
							c0.1,0.1,0.1,0.3,0,0.4l-0.8,0.8C179.5,190.5,179.3,190.5,179.1,190.4z"/>
						<path class="st19" d="M183.1,189.9L183.1,189.9c0.2,0,0.3,0.1,0.3,0.3v1.2c0,0.2-0.1,0.3-0.3,0.3h0c-0.2,0-0.3-0.1-0.3-0.3
							v-1.2C182.8,190,182.9,189.9,183.1,189.9z"/>
						<path class="st19" d="M182.1,189.1L182.1,189.1c0.1-0.1,0.3-0.1,0.4,0l0.8,0.8c0.1,0.1,0.1,0.3,0,0.4l0,0
							c-0.1,0.1-0.3,0.1-0.4,0l-0.8-0.8C182,189.4,182,189.2,182.1,189.1z"/>
						<path class="st19" d="M182.9,190.4L182.9,190.4c-0.1-0.1-0.1-0.3,0-0.4l0.8-0.8c0.1-0.1,0.3-0.1,0.4,0l0,0
							c0.1,0.1,0.1,0.3,0,0.4l-0.8,0.8C183.2,190.5,183,190.5,182.9,190.4z"/>
						<path class="st19" d="M171.9,194L171.9,194c0.2,0,0.3,0.1,0.3,0.3v1.2c0,0.2-0.1,0.3-0.3,0.3h0c-0.2,0-0.3-0.1-0.3-0.3v-1.2
							C171.6,194.2,171.7,194,171.9,194z"/>
						<path class="st19" d="M170.9,193.3L170.9,193.3c0.1-0.1,0.3-0.1,0.4,0l0.8,0.8c0.1,0.1,0.1,0.3,0,0.4l0,0
							c-0.1,0.1-0.3,0.1-0.4,0l-0.8-0.8C170.8,193.7,170.8,193.5,170.9,193.3z"/>
						<path class="st19" d="M171.7,194.6L171.7,194.6c-0.1-0.1-0.1-0.3,0-0.4l0.8-0.8c0.1-0.1,0.3-0.1,0.4,0l0,0
							c0.1,0.1,0.1,0.3,0,0.4l-0.8,0.8C172,194.7,171.8,194.7,171.7,194.6z"/>
						<path class="st19" d="M175.6,194L175.6,194c0.2,0,0.3,0.1,0.3,0.3v1.2c0,0.2-0.1,0.3-0.3,0.3h0c-0.2,0-0.3-0.1-0.3-0.3v-1.2
							C175.3,194.2,175.5,194,175.6,194z"/>
						<path class="st19" d="M174.6,193.3L174.6,193.3c0.1-0.1,0.3-0.1,0.4,0l0.8,0.8c0.1,0.1,0.1,0.3,0,0.4l0,0
							c-0.1,0.1-0.3,0.1-0.4,0l-0.8-0.8C174.5,193.6,174.5,193.4,174.6,193.3z"/>
						<path class="st19" d="M175.4,194.6L175.4,194.6c-0.1-0.1-0.1-0.3,0-0.4l0.8-0.8c0.1-0.1,0.3-0.1,0.4,0l0,0
							c0.1,0.1,0.1,0.3,0,0.4l-0.8,0.8C175.7,194.7,175.6,194.7,175.4,194.6z"/>
						<path class="st19" d="M179.4,194L179.4,194c0.2,0,0.3,0.1,0.3,0.3v1.2c0,0.2-0.1,0.3-0.3,0.3h0c-0.2,0-0.3-0.1-0.3-0.3v-1.2
							C179.1,194.2,179.2,194,179.4,194z"/>
						<path class="st19" d="M178.3,193.3L178.3,193.3c0.1-0.1,0.3-0.1,0.4,0l0.8,0.8c0.1,0.1,0.1,0.3,0,0.4l0,0
							c-0.1,0.1-0.3,0.1-0.4,0l-0.8-0.8C178.2,193.7,178.2,193.5,178.3,193.3z"/>
						<path class="st19" d="M179.2,194.6L179.2,194.6c-0.1-0.1-0.1-0.3,0-0.4l0.8-0.8c0.1-0.1,0.3-0.1,0.4,0l0,0
							c0.1,0.1,0.1,0.3,0,0.4l-0.8,0.8C179.5,194.7,179.3,194.7,179.2,194.6z"/>
						<path class="st19" d="M183.1,194L183.1,194c0.2,0,0.3,0.1,0.3,0.3v1.2c0,0.2-0.1,0.3-0.3,0.3h0c-0.2,0-0.3-0.1-0.3-0.3v-1.2
							C182.8,194.2,182.9,194,183.1,194z"/>
						<path class="st19" d="M182.1,193.3L182.1,193.3c0.1-0.1,0.3-0.1,0.4,0l0.8,0.8c0.1,0.1,0.1,0.3,0,0.4l0,0
							c-0.1,0.1-0.3,0.1-0.4,0l-0.8-0.8C182,193.6,182,193.5,182.1,193.3z"/>
						<path class="st19" d="M182.9,194.6L182.9,194.6c-0.1-0.1-0.1-0.3,0-0.4l0.8-0.8c0.1-0.1,0.3-0.1,0.4,0l0,0
							c0.1,0.1,0.1,0.3,0,0.4l-0.8,0.8C183.2,194.7,183,194.7,182.9,194.6z"/>
						<path class="st19" d="M171.9,198.3L171.9,198.3c0.2,0,0.3,0.1,0.3,0.3v1.2c0,0.2-0.1,0.3-0.3,0.3h0c-0.2,0-0.3-0.1-0.3-0.3
							v-1.2C171.6,198.4,171.7,198.3,171.9,198.3z"/>
						<path class="st19" d="M170.9,197.6L170.9,197.6c0.1-0.1,0.3-0.1,0.4,0l0.8,0.8c0.1,0.1,0.1,0.3,0,0.4l0,0
							c-0.1,0.1-0.3,0.1-0.4,0l-0.8-0.8C170.8,197.9,170.8,197.7,170.9,197.6z"/>
						<path class="st19" d="M171.7,198.8L171.7,198.8c-0.1-0.1-0.1-0.3,0-0.4l0.8-0.8c0.1-0.1,0.3-0.1,0.4,0l0,0
							c0.1,0.1,0.1,0.3,0,0.4l-0.8,0.8C172,198.9,171.8,198.9,171.7,198.8z"/>
						<path class="st19" d="M175.6,198.3L175.6,198.3c0.2,0,0.3,0.1,0.3,0.3v1.2c0,0.2-0.1,0.3-0.3,0.3h0c-0.2,0-0.3-0.1-0.3-0.3
							v-1.2C175.3,198.4,175.5,198.3,175.6,198.3z"/>
						<path class="st19" d="M174.6,197.5L174.6,197.5c0.1-0.1,0.3-0.1,0.4,0l0.8,0.8c0.1,0.1,0.1,0.3,0,0.4l0,0
							c-0.1,0.1-0.3,0.1-0.4,0l-0.8-0.8C174.5,197.8,174.5,197.7,174.6,197.5z"/>
						<path class="st19" d="M175.4,198.8L175.4,198.8c-0.1-0.1-0.1-0.3,0-0.4l0.8-0.8c0.1-0.1,0.3-0.1,0.4,0l0,0
							c0.1,0.1,0.1,0.3,0,0.4l-0.8,0.8C175.7,198.9,175.5,198.9,175.4,198.8z"/>
						<path class="st19" d="M179.4,198.3L179.4,198.3c0.2,0,0.3,0.1,0.3,0.3v1.2c0,0.2-0.1,0.3-0.3,0.3h0c-0.2,0-0.3-0.1-0.3-0.3
							v-1.2C179.1,198.4,179.2,198.3,179.4,198.3z"/>
						<path class="st19" d="M178.3,197.6L178.3,197.6c0.1-0.1,0.3-0.1,0.4,0l0.8,0.8c0.1,0.1,0.1,0.3,0,0.4l0,0
							c-0.1,0.1-0.3,0.1-0.4,0l-0.8-0.8C178.2,197.9,178.2,197.7,178.3,197.6z"/>
						<path class="st19" d="M179.2,198.8L179.2,198.8c-0.1-0.1-0.1-0.3,0-0.4l0.8-0.8c0.1-0.1,0.3-0.1,0.4,0l0,0
							c0.1,0.1,0.1,0.3,0,0.4l-0.8,0.8C179.5,198.9,179.3,198.9,179.2,198.8z"/>
						<path class="st19" d="M183.1,198.3L183.1,198.3c0.2,0,0.3,0.1,0.3,0.3v1.2c0,0.2-0.1,0.3-0.3,0.3h0c-0.2,0-0.3-0.1-0.3-0.3
							v-1.2C182.8,198.4,182.9,198.3,183.1,198.3z"/>
						<path class="st19" d="M182.1,197.6L182.1,197.6c0.1-0.1,0.3-0.1,0.4,0l0.8,0.8c0.1,0.1,0.1,0.3,0,0.4l0,0
							c-0.1,0.1-0.3,0.1-0.4,0l-0.8-0.8C182,197.9,182,197.7,182.1,197.6z"/>
						<path class="st19" d="M182.9,198.8L182.9,198.8c-0.1-0.1-0.1-0.3,0-0.4l0.8-0.8c0.1-0.1,0.3-0.1,0.4,0l0,0
							c0.1,0.1,0.1,0.3,0,0.4l-0.8,0.8C183.2,198.9,183,198.9,182.9,198.8z"/>
						<path class="st19" d="M171.9,202.5L171.9,202.5c0.2,0,0.3,0.1,0.3,0.3v1.2c0,0.2-0.1,0.3-0.3,0.3h0c-0.2,0-0.3-0.1-0.3-0.3
							v-1.2C171.6,202.6,171.7,202.5,171.9,202.5z"/>
						<path class="st19" d="M170.9,201.8L170.9,201.8c0.1-0.1,0.3-0.1,0.4,0l0.8,0.8c0.1,0.1,0.1,0.3,0,0.4l0,0
							c-0.1,0.1-0.3,0.1-0.4,0l-0.8-0.8C170.8,202.1,170.8,201.9,170.9,201.8z"/>
						<path class="st19" d="M171.7,203L171.7,203c-0.1-0.1-0.1-0.3,0-0.4l0.8-0.8c0.1-0.1,0.3-0.1,0.4,0l0,0c0.1,0.1,0.1,0.3,0,0.4
							l-0.8,0.8C172,203.1,171.8,203.1,171.7,203z"/>
						<path class="st19" d="M175.6,202.5L175.6,202.5c0.2,0,0.3,0.1,0.3,0.3v1.2c0,0.2-0.1,0.3-0.3,0.3h0c-0.2,0-0.3-0.1-0.3-0.3
							v-1.2C175.3,202.6,175.5,202.5,175.6,202.5z"/>
						<path class="st19" d="M174.6,201.8L174.6,201.8c0.1-0.1,0.3-0.1,0.4,0l0.8,0.8c0.1,0.1,0.1,0.3,0,0.4l0,0
							c-0.1,0.1-0.3,0.1-0.4,0l-0.8-0.8C174.5,202.1,174.5,201.9,174.6,201.8z"/>
						<path class="st19" d="M175.4,203L175.4,203c-0.1-0.1-0.1-0.3,0-0.4l0.8-0.8c0.1-0.1,0.3-0.1,0.4,0l0,0c0.1,0.1,0.1,0.3,0,0.4
							l-0.8,0.8C175.8,203.1,175.6,203.1,175.4,203z"/>
						<path class="st19" d="M179.4,202.5L179.4,202.5c0.2,0,0.3,0.1,0.3,0.3v1.2c0,0.2-0.1,0.3-0.3,0.3h0c-0.2,0-0.3-0.1-0.3-0.3
							v-1.2C179.1,202.6,179.2,202.5,179.4,202.5z"/>
						<path class="st19" d="M178.3,201.7L178.3,201.7c0.1-0.1,0.3-0.1,0.4,0l0.8,0.8c0.1,0.1,0.1,0.3,0,0.4l0,0
							c-0.1,0.1-0.3,0.1-0.4,0l-0.8-0.8C178.2,202.1,178.2,201.9,178.3,201.7z"/>
						<path class="st19" d="M179.1,203L179.1,203c-0.1-0.1-0.1-0.3,0-0.4l0.8-0.8c0.1-0.1,0.3-0.1,0.4,0l0,0c0.1,0.1,0.1,0.3,0,0.4
							l-0.8,0.8C179.5,203.1,179.3,203.1,179.1,203z"/>
						<path class="st19" d="M183.1,202.5L183.1,202.5c0.2,0,0.3,0.1,0.3,0.3v1.2c0,0.2-0.1,0.3-0.3,0.3h0c-0.2,0-0.3-0.1-0.3-0.3
							v-1.2C182.8,202.6,182.9,202.5,183.1,202.5z"/>
						<path class="st19" d="M182.1,201.7L182.1,201.7c0.1-0.1,0.3-0.1,0.4,0l0.8,0.8c0.1,0.1,0.1,0.3,0,0.4l0,0
							c-0.1,0.1-0.3,0.1-0.4,0l-0.8-0.8C182,202,182,201.9,182.1,201.7z"/>
						<path class="st19" d="M182.9,203L182.9,203c-0.1-0.1-0.1-0.3,0-0.4l0.8-0.8c0.1-0.1,0.3-0.1,0.4,0l0,0c0.1,0.1,0.1,0.3,0,0.4
							l-0.8,0.8C183.2,203.1,183,203.1,182.9,203z"/>
					</g>
				</g>
				<path class="st23" d="M187.8,419.8V290.3c-0.5-6.6,4.4-12.4,11-12.9c6.6-0.5,12.4,4.4,12.9,11c0.1,0.7,0.1,1.3,0,2v131.6
					c0,0.1,0,0.3,0,0.4l8.7,1.9c1.5,0.3,2.8,1.1,3.8,2.2l1.8,2c2.7,2.9,2.4,7.4-0.5,10.1c-1.3,1.2-3,1.9-4.8,1.9h-28.6
					c-3.9,0-7.1-3.2-7.1-7.1v-7.8C185,423.2,186,421.1,187.8,419.8z"/>
				<path class="st24" d="M219.3,302.8l27.4,12.7c-9,2-18.3,2-27.4,0"/>
				<path class="st23" d="M94.1,301.5c-6.8,0-12.3-5.5-12.3-12.2c0-4.1,2-7.9,5.4-10.2c17-11.5,29.3-27.9,36.5-39.6
					c4.7-7.5,8.7-15.3,12-23.5c2.4-6.4,9.4-9.6,15.8-7.2c6.4,2.4,9.6,9.4,7.2,15.8c-0.7,1.9-18.2,48-57.8,74.8
					C99,300.8,96.6,301.5,94.1,301.5z"/>
				<path class="st23" d="M170.5,419.8V290.3c0.5-6.6-4.4-12.4-11-12.9c-6.6-0.5-12.4,4.4-12.9,11c-0.1,0.7-0.1,1.3,0,2v131.6
					c0,0.1,0,0.3,0,0.4l-8.7,1.9c-1.5,0.3-2.8,1.1-3.8,2.2l-1.8,2c-2.7,2.9-2.4,7.4,0.5,10.1c1.3,1.2,3,1.9,4.8,1.9h28.6
					c3.9,0,7.1-3.2,7.1-7.1v-7.8C173.3,423.2,172.2,421.1,170.5,419.8z"/>
				<path class="st25" d="M113.7,369c-1.7,0.5-3.3-0.7-3.8-2.7L78.5,221.8c-0.5-1.9,0.4-3.8,2.2-4.5c1.7-0.5,3.3,0.7,3.8,2.7
					L116,364.5C116.5,366.3,115.5,368.3,113.7,369z"/>
				<path class="st26" d="M82.2,283.2c-2.4,2.2-3.7,5.4-3.3,8.7c0.2,2.7,1.9,5,4.3,6.1c3.7,1.6,8.1,2,13.7,1.1l0.6-0.1
					c0.2-0.1,0.4-0.1,0.5-0.2c5.2-2.5,8.9-5.4,11.5-9c1.7-2.2,2.2-5.2,1.3-7.8c-0.9-3-3.4-5.2-6.4-5.7c-2.6-0.2-5.2-0.1-7.7,0.5
					c-1.2,0.2-2.5,0.4-3.8,0.5c-1.2,0.6-2.4,1.2-3.6,1.8C86.7,280.1,84.3,281.5,82.2,283.2z"/>
				<path class="st26" d="M96,306.7c-2.2,0.7-4.3,1.3-5.7,2.7c-2.3,2.3-2.3,7.4-1.3,11.3c1.7,7,7.1,7.6,14.7,6.8
					c6.9-3.7,11.4-7.4,10-14.5c-0.8-4-2.9-8.4-5.8-9.1c-1.8-0.4-3.9,0.3-6.1,1c-0.9,0.3-1.9,0.6-2.9,0.9S97,306.4,96,306.7z"/>
				<path class="st27" d="M91.2,270.6c-0.4,0-0.9,0-1.3,0c-3.3,0-6.7-2-9.5-5.7c-3.4-4.4-5.2-9.8-5.1-15.4c0.1-1.8,0.4-3.5,0.7-5.2
					c0.5-2.4,0.8-4.8,0.9-7.2c0.1-3.8-1.6-5.4-2.5-6c-3.2-2-7.5,0.8-12.9,5.5l-0.6,0.5c-1.3,1.2-1.6,3.2-0.7,4.8
					c0.6,1.3,2.2,1.8,3.5,1.2c0.2-0.1,0.4-0.2,0.5-0.3l0.7-0.6c3.4-3,5.3-4.1,6.3-4.6c-0.1,1.8-0.4,3.5-0.7,5.3
					c-0.4,2.1-0.7,4.2-0.8,6.2c-0.2,7.4,2.1,14.6,6.7,20.5c1.7,2.2,3.7,4.1,6.1,5.5c1.5-0.9,3.1-1.7,4.7-2.4
					C88.5,272,89.9,271.4,91.2,270.6z"/>
				<path class="st27" d="M101.2,328.8l2.4-1.2c-7.6,0.8-13,0.2-14.7-6.8c-1-4-0.9-9,1.3-11.3c1.4-1.4,3.5-2,5.7-2.7
					c1-0.3,1.9-0.6,2.9-1c-0.4,0.1-0.8,0.2-1.3,0.3c-4.1,0.7-8.3,0.7-12.4-0.2c-3.2,4.7-3.1,11.6-1.8,16.9
					c1.7,7.1,5.7,10.2,10.2,11.4c1.5-1.9,3.5-3.3,5.7-4.3L101.2,328.8z"/>
				<path class="st27" d="M106.8,334.1c0.7-0.1,1.4-0.2,2.1-0.3h0.2l0.2-0.1c0,0,4.2-1,6.9,2.2c3.1,3.8,3.4,12.7,0.8,24.9
					c-0.5,1.7,0.4,3.5,2.1,4.2c0.5,0.1,1,0.1,1.4,0c1.1-0.4,1.9-1.3,2.1-2.5c3.2-15.1,2.4-25.7-2.3-31.4c-1.4-1.7-3.2-3-5.3-3.8
					c-2.9,2.8-6.2,5.2-9.9,6.9L106.8,334.1z"/>
				<path class="st27" d="M92.7,277.4c1.3-0.1,2.6-0.3,3.8-0.5c2.5-0.5,5.2-0.7,7.7-0.5c3,0.5,5.5,2.7,6.4,5.7
					c0.9,2.7,0.4,5.6-1.3,7.8c-2.6,3.6-6.2,6.5-11.5,9c-0.2,0.1-0.3,0.2-0.5,0.2c0.9-0.2,1.8-0.5,2.8-0.8c2.6-0.8,5.6-1.8,8.7-1.1
					c0.7,0.2,1.3,0.4,1.9,0.7c1.1-1.1,2.1-2.3,3-3.5c3-4.3,3.9-9.8,2.2-14.8c-1.8-5.4-6-9.2-11.1-10c-1.3-0.2-2.7-0.2-4-0.1
					c-1.4,2.6-3.3,4.8-5.7,6.5C94.4,276.4,93.6,276.9,92.7,277.4z"/>
				<path class="st18" d="M90.5,340.4c-1.8,7.8,1.9,17.5,10.8,28.8c0.6,0.9,1.8,1.3,2.8,1c0.5-0.2,0.9-0.4,1.2-0.8
					c1.2-1.4,1.2-3.4,0.1-4.9c-7.2-9.1-10.6-17-9.5-22.2c0.7-2.7,2.6-4.9,5.1-6l0.2-0.1l0.2-0.1l2-1l1.6-0.8
					c-3.6,0.4-7.7,0.7-11.5-0.3C92.1,335.9,91,338.1,90.5,340.4z"/>
				<path class="st18" d="M104.1,223.6l-0.7-0.1c-6.7-0.9-11.6-0.8-13.5,2.8c-0.6,1.1-1.4,3.4,0.2,6.7c1.1,2,2.3,4,3.7,5.8
					c1,1.3,2,2.7,2.8,4.2c2.3,4.3,3,10.6,1.8,16.4c-1,4.8-3.1,8.5-6,10.5c-0.4,0.3-0.8,0.5-1.2,0.7c1.5-0.1,3-0.3,4.6-0.6
					s3.4-0.5,5.2-0.6c1.4-2.6,2.4-5.4,3-8.4c1.6-7.6,0.6-15.9-2.6-21.8c-1-1.7-2.1-3.4-3.3-5c-1-1.3-2-2.7-2.8-4.2
					c1.1-0.2,3.2-0.3,7.4,0.3l0.8,0.1c1.6,0.2,3-1.2,3.2-3.1C106.9,225.7,105.8,224,104.1,223.6z"/>
				<path class="st18" d="M94.6,300c1-0.3,2-0.6,2.8-1l-0.6,0.1c-5.6,0.9-10,0.5-13.7-1.1c-2.4-1.1-4.1-3.4-4.3-6.1
					c-0.4-3.3,0.9-6.5,3.3-8.7c2.1-1.7,4.5-3.1,7-4.1c1.2-0.6,2.4-1.1,3.6-1.8c-0.9,0.1-1.9,0.1-2.8,0.1c-2.7-0.1-5.4-0.9-7.6-2.3
					c-1.2,0.7-2.4,1.5-3.4,2.5c-4.2,3.8-6.3,9.5-5.6,15.2c0.6,5.3,3.6,9.7,8,11.6c1.3,0.6,2.6,1,4,1.4c0.4-0.6,0.9-1.2,1.4-1.7
					C89,301.7,92,300.8,94.6,300z"/>
				<path class="st18" d="M98.9,305.7c1-0.2,2-0.5,2.9-0.9c2.2-0.7,4.3-1.4,6.1-1c2.9,0.7,5,5.1,5.8,9.1c1.4,7.2-3.1,10.8-10,14.5
					l2.6-0.3c0.7-0.1,1.4-0.2,2.1-0.2c2.2-0.5,4.6-0.3,6.7,0.4c3.4-3.7,5.6-8.7,4.3-15.9c-1-5.4-3.8-11.4-8.4-13.7
					c-3.1,3.1-6.8,5.6-10.7,7.4C99.7,305.4,99.3,305.6,98.9,305.7z"/>
				<path class="st27" d="M100.3,298.2c-1,0.3-2,0.6-2.8,0.8c-0.8,0.4-1.8,0.6-2.8,1c-2.6,0.8-5.6,1.7-8,4.1c-0.5,0.5-1,1.1-1.4,1.7
					c4.1,0.9,8.3,0.9,12.3,0.2c0.4-0.1,0.9-0.2,1.3-0.3s0.8-0.3,1.2-0.5c4-1.8,7.6-4.3,10.7-7.4c-0.6-0.3-1.2-0.5-1.9-0.7
					C105.9,296.4,102.9,297.4,100.3,298.2z"/>
				<path class="st18" d="M106.2,327.2l-2.6,0.3l-2.4,1.2l-1.9,1c-2.2,0.9-4.2,2.4-5.7,4.2c3.8,1,7.9,0.7,11.5,0.3
					c3.7-1.7,7-4.1,9.9-6.9c-2.2-0.7-4.5-0.8-6.7-0.4C107.6,327.1,107,327.1,106.2,327.2z"/>
				<path class="st27" d="M91.2,270.6c-1.3,0.8-2.7,1.5-4.2,2.1c-1.6,0.7-3.2,1.6-4.8,2.5c2.3,1.5,4.9,2.3,7.6,2.3
					c0.9,0,1.9-0.1,2.8-0.1c0.8-0.5,1.7-1,2.5-1.5c2.4-1.7,4.4-3.9,5.7-6.5c-1.8,0.1-3.5,0.4-5.2,0.6S92.7,270.5,91.2,270.6z"/>
				<path class="st28" d="M75.1,176.4h-0.3c2.5,2.5,4.1,5.9,4.3,9.4c0.6,7.4-3.8,14-10,14.7c-3,0.3-6-0.8-8.1-3
					c-0.1,1.7-0.1,3.5,0.1,5.2c1.1,13.5,9.3,23.6,18.2,22.6s15.3-12.8,14.1-26.3S84,175.4,75.1,176.4z"/>
				<path class="st23" d="M82.9,200v0.2c0.5,6-3.1,11.3-8,11.9c-0.8,0.1-1.5,0-2.3-0.1c1,5,4.3,8.6,7.8,8.2c4-0.4,6.8-5.6,6.2-11.6
					C86.5,205.3,85.1,202.3,82.9,200z"/>
				<path class="st23" d="M237.3,358.6c-0.4,0-0.8,0-1.2,0c-6.7-0.7-11.7-6.6-11-13.4c4.5-46.5-42.8-113.2-43.3-113.9
					c-3.6-5.7-1.9-13.3,3.8-16.9c5.3-3.3,12.2-2.2,16.1,2.6c9.6,13.8,18.2,28.3,25.7,43.4c17,34,24.4,63.4,22.2,87.2
					C248.8,353.8,243.6,358.6,237.3,358.6z"/>
				<path class="st22" d="M217.5,219.4c-1.3-1.8-2.8-3.4-4.4-4.9c-2.4,12.1-16.8,21.4-34.3,21.4c-17.3,0-31.6-9.1-34.2-21.1
					c-5.4,5.1-8.6,11.4-8.6,18.2v127.8c0,1.9,2.2,3.5,5,3.5h76.2c2.7,0,4.9-1.6,4.9-3.5V232.9C222,228,220.4,223.3,217.5,219.4z"/>
				<path class="st23" d="M178.8,235.8c17.5,0,31.9-9.3,34.3-21.4c-7.9-7.2-20.2-11.9-34-11.9l0,0c-7.8-0.1-15.5,1.5-22.6,4.6
					c-4.3,1.9-8.3,4.4-11.8,7.6C147.1,226.7,161.5,235.8,178.8,235.8z"/>
				
					<rect x="110.9" y="350.9" transform="matrix(0.2055 -0.9787 0.9787 0.2055 -308.3481 444.2206)" class="st29" width="17.1" height="122.2"/>
				<path class="st30" d="M94.4,362.3l5.2-15.2c3.1-9,12.9-13.8,21.9-10.7l1.9,0.6c9,3.1,13.8,12.9,10.7,21.9l-5.2,15.2
					c-3.1,9-12.9,13.8-21.9,10.7l-1.9-0.6C96.1,381.1,91.4,371.3,94.4,362.3z"/>
				<path class="st30" d="M105.4,442.9l-32.1-11c-4.4-1.5-6.7-6.3-5.2-10.6l9.8-28.4c4.3-12.5,17.9-19.2,30.5-14.9l2.6,0.9
					c12.5,4.3,19.2,17.9,14.9,30.5l-9.7,28.4C114.5,442.1,109.8,444.4,105.4,442.9z"/>
				<path class="st30" d="M113.8,393.5c-0.5-0.3-0.9-0.7-1.3-1c-2.9-2.3-3.3-6.5-1-9.4c2.3-2.9,6.5-3.3,9.4-1l0,0
					c0.2,0.1,5.6,4.3,10.6,2.2c3.2-1.3,10.9-7.3,14.4-35.3c0.4-3.7,3.6-6.4,7.3-6.1c3.7,0.3,6.4,3.6,6,7.3c0,0.1,0,0.1,0,0.2
					c-3.3,26.4-10.8,41.5-22.8,46.4C127.5,400.4,118.6,396.7,113.8,393.5z"/>
				<path class="st30" d="M81.6,388.5c0.5,0.2,1,0.5,1.5,0.6c3.4,1.4,7.3-0.3,8.7-3.8c1.4-3.4-0.3-7.3-3.8-8.7
					c-0.2-0.1-6.5-2.8-7.2-8.1c-0.4-3.4,1-13.1,23.5-30c3-2.2,3.8-6.3,1.7-9.4c-2.1-3-6.3-3.7-9.3-1.6c-0.1,0-0.1,0.1-0.2,0.1
					c-21.3,15.9-30.8,29.9-29,42.8C68.9,380,76.4,386,81.6,388.5z"/>
				<g>
					<defs>
						<path id="SVGID_5_" d="M153.2,342.9c-3.7-0.2-6.9,2.5-7.3,6.1c-3.5,28-11.2,34-14.4,35.3c-3.6,1.5-7.5-0.3-9.4-1.4
							c3.2-2.1,5.5-5.1,6.8-8.7l5.2-15.2c3.1-9-1.7-18.8-10.7-21.9l-1.8-0.6c-9-3.1-18.8,1.7-21.9,10.7l-5.2,15.2
							c-1.7,4.9-1,10.3,1.7,14.8c-1.9,0.4-3.7,0.9-5.4,1.7c-0.7-0.9-1.7-1.7-2.8-2.1c-0.2-0.1-6.5-2.8-7.2-8.1
							c-0.4-3.4,1-13.1,23.5-30c3-2.2,3.8-6.3,1.7-9.4c-2.1-3-6.3-3.7-9.3-1.6c-0.1,0-0.1,0.1-0.2,0.1c-21.3,15.9-30.8,29.9-29,42.8
							c1.2,8.8,7.7,14.5,12.8,17.3c-1,1.6-1.8,3.3-2.4,5.1l-9.8,28.4c-1.5,4.4,0.8,9.1,5.2,10.6l32.1,11c4.4,1.5,9.1-0.8,10.7-5.2
							l9.7-28.4c1.2-3.6,1.6-7.4,1-11.1c3.3,0.3,6.5-0.2,9.6-1.4c12.1-4.8,19.5-20,22.8-46.4c0.4-3.7-2.2-7-5.8-7.4
							C153.3,342.9,153.3,342.9,153.2,342.9z"/>
					</defs>
					<clipPath id="SVGID_6_">
						<use xlink:href="#SVGID_5_"  style="overflow:visible;"/>
					</clipPath>
					<g class="st31">
						<path class="st32" d="M73.8,394.8c7.3,2.2,13.2,8.4,19.2,13c6.6,5,13.3,9.8,20.1,14.4c-0.8-0.5,0.8-4.7,0-5.2
							c-6.8-4.7-13.5-9.5-20.1-14.5c-6-4.6-11.9-10.7-19.2-13C74.2,389.7,73.3,394.6,73.8,394.8L73.8,394.8z"/>
						<path class="st32" d="M131.6,383.1c6.2,5.3,12.7,10.2,19.4,14.8c-0.8-0.5,0.8-4.7,0-5.2c-6.8-4.5-13.2-9.5-19.4-14.8
							C132.4,378.6,130.7,382.3,131.6,383.1L131.6,383.1z"/>
						<path class="st32" d="M133.6,384.1c11.2-1.6,22.1-4.6,32.5-9.1c0.7-0.3-0.6-5,0-5.2c-10.4,4.4-21.3,7.5-32.5,9
							C133.3,378.8,133.8,384,133.6,384.1L133.6,384.1z"/>
						<path class="st32" d="M157.8,360.8c-0.1-2.9-4.7-5.5-6.7-7.1c-3.2-2.6-6.6-4.9-10.1-7c0.7,0.4-0.8,4.8,0,5.2
							c3.2,1.9,6.3,4,9.2,6.2c2,1.6,7.5,4.9,7.6,7.7C157.7,364.6,157.9,362.4,157.8,360.8L157.8,360.8z"/>
						<path class="st32" d="M94.4,377.1c12.4,0.7,24.9,0.8,37.4,0.5c18.7-0.5,0-2.6,0-2.6c-12.5,0.4-24.9,0.2-37.4-0.5
							C75.7,373.4,94.3,377.1,94.4,377.1z"/>
						<path class="st32" d="M93,362.8c6.6,1.2,12.6,5.9,18.6,8.8c6.3,3.1,13,5.5,19.9,7c-0.3-0.1,0.4-5.2,0-5.2
							c-6.9-1.5-13.6-3.9-19.9-7c-6-2.9-12-7.5-18.6-8.8C93.3,357.6,92.6,362.7,93,362.8z"/>
						<path class="st32" d="M94.5,360.4c16.7,1.3,33.6,3.8,50.1-0.4c0.3-0.1-0.3-3.9,0-3.9c-16.5,4.2-33.4,1.7-50.1,0.4
							C94.6,356.5,94.4,360.4,94.5,360.4L94.5,360.4z"/>
						<path class="st32" d="M68.1,383.7c0.1-3.3,4-5.6,6.6-7.1c2.9-1.6,6-2.6,9.2-3c0.3,0-0.2-5.2,0-5.2c-3.6,0.5-7,1.6-10.1,3.5
							c-2.5,1.5-5.6,3.6-5.7,6.8C68.1,380.2,68.1,382.5,68.1,383.7L68.1,383.7z"/>
						<path class="st32" d="M83.5,367c-3.4-0.5-6.3-3.8-8.8-6c-2.9-2.6-5.6-5.3-8.1-8.1c0.8,0.9-0.9,4.2,0,5.2
							c2.6,2.9,5.3,5.6,8.1,8.1c2.5,2.2,5.4,5.5,8.8,6C83.2,372.2,83.8,367,83.5,367z"/>
						<path class="st32" d="M69.8,353.9c3.8,0.6,7.1,2.3,10.8,3.2c3.8,0.9,7.8,0.9,11.6-0.1c0.4-0.1-0.4-5.1,0-5.2
							c-3.8,1-7.8,1.1-11.6,0.1c-3.7-0.9-7-2.6-10.8-3.2C70,348.7,69.5,353.9,69.8,353.9L69.8,353.9z"/>
						<path class="st32" d="M85.8,332.6c1.9,3.3,3.8,6.7,5.9,10s3.8,6.4,7.1,8.3c-0.7-0.4,0.8-4.8,0-5.2c-3.3-1.9-5.2-5.1-7.1-8.3
							s-3.9-6.7-5.9-10C86.6,328.6,85.1,331.2,85.8,332.6z"/>
						<path class="st32" d="M87,403.9c20.9,0.3,41.1,8.9,62.1,5.6c0.3,0-0.2-5.2,0-5.2c-21,3.2-41.2-5.4-62.1-5.6
							C87,398.6,86.9,403.9,87,403.9z"/>
						<path class="st32" d="M90.2,377.3c5.9,6.8,11.5,14,17.9,20.4c5.9,5.9,13.2,9.4,20.8,12.6c-0.6-0.2,0.7-5,0-5.2
							c-7.6-3.2-14.8-6.7-20.8-12.6c-6.4-6.3-12-13.5-17.9-20.4C91,373,89.3,376.3,90.2,377.3L90.2,377.3z"/>
						<path class="st32" d="M107.9,338c10,11.6,22.8,20.5,37.2,25.8c-0.3-0.1,0.3-2.5,0-2.6c-14.4-5.3-27.2-14.2-37.2-25.8
							C108.3,335.9,107.4,337.5,107.9,338z"/>
					</g>
				</g>
				
					<rect x="86.6" y="369.1" transform="matrix(0.2055 -0.9787 0.9787 0.2055 -339.1224 442.5396)" class="st22" width="32.8" height="122.2"/>
				<polyline class="st2" points="58.7,404.1 46.6,401.5 61.4,391.1 				"/>
				<polyline class="st20" points="166.1,426.6 180.9,416.2 175.2,443.5 159.4,458.7 				"/>
				
					<rect x="212.6" y="398.3" transform="matrix(0.9778 -0.2095 0.2095 0.9778 -79.1407 65.7151)" class="st29" width="115.9" height="16.2"/>
				<path class="st33" d="M293.2,389.9L293.2,389.9c-6,1.2-11.8-2.6-13-8.5l-1.8-8.4c-1.2-6,2.6-11.8,8.5-13l0,0
					c6-1.3,11.8,2.6,13.1,8.5l1.8,8.4C303,382.8,299.1,388.6,293.2,389.9z"/>
				<path class="st33" d="M310.6,420.5l-19.5,4.1c-2.9,0.6-5.7-1.3-6.4-4.1l-3.5-16.7c-1.7-8.3,3.6-16.4,11.9-18.2l0,0
					c8.3-1.7,16.4,3.6,18.2,11.9l3.5,16.7C315.4,417,313.5,419.9,310.6,420.5z"/>
				<path class="st33" d="M300,392.1c-0.4,0-0.7-0.1-1-0.1c-2.2-0.5-3.6-2.6-3.1-4.8c0.4-2,2.2-3.4,4.3-3.2c0.1,0,4.2,0.5,6.2-2.1
					c1.2-1.6,3.4-7.2-3.4-22.8c-0.9-2-0.1-4.4,1.9-5.5c2-1,4.4-0.1,5.4,1.9c0,0,0,0.1,0,0.1c6.5,14.8,7.3,25,2.5,31.2
					C309.2,391.5,303.5,392.3,300,392.1z"/>
				<path class="st33" d="M281.6,399.5c0.4,0,0.7-0.1,1-0.1c2.2-0.4,3.7-2.5,3.3-4.7s-2.5-3.7-4.7-3.3c-0.1,0-4.2,0.6-6.2-2
					c-1.3-1.6-3.5-7.1,3-22.9c0.9-2.1,0-4.4-2-5.4c-2-0.9-4.4-0.1-5.3,1.9c0,0.1-0.1,0.1-0.1,0.2c-6.1,14.9-6.8,25.1-1.9,31.3
					C272.4,399,278.2,399.8,281.6,399.5z"/>
				<g>
					<defs>
						<path id="SVGID_7_" d="M304.8,353.6c-2,1-2.8,3.4-1.9,5.5c6.8,15.6,4.7,21.2,3.4,22.8c-1.4,1.9-4,2.2-5.3,2.1
							c1-2.1,1.3-4.4,0.8-6.6l-2-9.6c-1.2-5.6-6.7-9.2-12.4-8.1l-1.2,0.2c-5.6,1.2-9.2,6.7-8.1,12.4l2,9.5c0.7,3.1,2.7,5.7,5.5,7.1
							c-0.9,0.8-1.6,1.6-2.3,2.5c-0.7-0.3-1.4-0.4-2.1-0.2c-0.1,0-4.2,0.6-6.2-2c-1.3-1.6-3.5-7.1,3-22.9c0.9-2.1,0-4.4-2-5.4
							c-2-0.9-4.4,0-5.4,2.1c0,0,0,0.1,0,0.1c-6.1,14.9-6.8,25.1-1.9,31.3c3.4,4.2,8.5,5.2,12,5.1c0,1.1,0.1,2.3,0.3,3.4l3.7,17.8
							c0.6,2.7,3.3,4.5,6,3.9l20.1-4.2c2.7-0.6,4.5-3.3,3.9-6l-3.7-17.8c-0.5-2.2-1.5-4.3-2.9-6.1c1.8-0.9,3.3-2.1,4.5-3.7
							c4.8-6.2,4-16.5-2.5-31.2C309.3,353.5,306.9,352.6,304.8,353.6C304.8,353.5,304.8,353.5,304.8,353.6z"/>
					</defs>
					<clipPath id="SVGID_8_">
						<use xlink:href="#SVGID_7_"  style="overflow:visible;"/>
					</clipPath>
					<g class="st34">
						<path class="st35" d="M279.5,405.2c4.5-1.1,9.5,0.3,14,0.8c5,0.6,10,1,15,1.3c-0.6,0-1-2.7-1.6-2.7c-5-0.3-10-0.7-15-1.3
							c-4.5-0.5-9.5-1.9-14-0.8C278.2,402.4,279.2,405.3,279.5,405.2L279.5,405.2z"/>
						<path class="st35" d="M306,381.2c4.8,0.9,9.7,1.4,14.7,1.7c-0.6,0-1-2.7-1.6-2.7c-4.9-0.3-9.8-0.8-14.7-1.7
							C305,378.6,305.3,381.1,306,381.2z"/>
						<path class="st35" d="M307.3,381.1c5.3-4.3,10.1-9.3,14.1-14.8c0.3-0.4-1.9-2.4-1.6-2.7c-4,5.5-8.8,10.5-14.1,14.8
							C305.6,378.5,307.4,381,307.3,381.1L307.3,381.1z"/>
						<path class="st35" d="M312.8,361.5c-1-1.4-4.1-1.4-5.7-1.6c-2.5-0.3-4.9-0.5-7.4-0.5c0.5,0,1.1,2.7,1.6,2.7
							c2.2,0,4.5,0.1,6.7,0.4c1.5,0.2,5.4,0.2,6.4,1.6C313.9,363.5,313.3,362.3,312.8,361.5L312.8,361.5z"/>
						<path class="st35" d="M284.8,389.6c6.7-3.5,13.2-7.3,19.6-11.3c9.6-6.1-0.8-1.4-0.8-1.4c-6.4,4-12.9,7.8-19.6,11.3
							C274,393.5,284.8,389.6,284.8,389.6L284.8,389.6z"/>
						<path class="st35" d="M279.6,382.6c3.8-1.4,8.4-0.9,12.4-1.2c4.3-0.3,8.5-1.2,12.5-2.5c-0.2,0.1-1.4-2.8-1.6-2.7
							c-4.1,1.3-8.3,2.2-12.5,2.5c-4,0.4-8.6-0.2-12.4,1.2C278.1,379.8,279.4,382.6,279.6,382.6L279.6,382.6z"/>
						<path class="st35" d="M279.7,380.9c9.1-4.5,18.7-8.4,26-15.7c0.1-0.1-1.3-1.9-1.2-2c-7.3,7.3-16.9,11.2-26,15.7
							C278.5,378.9,279.6,380.9,279.7,380.9L279.7,380.9z"/>
						<path class="st35" d="M273.1,401.2c-1-1.8,0.4-4.2,1.2-5.7c1-1.7,2.3-3.2,3.9-4.4c0.1-0.1-1.7-2.6-1.6-2.7
							c-1.7,1.4-3.2,3.1-4.2,5c-0.8,1.5-1.8,3.6-0.9,5.3C272,399.4,272.8,400.6,273.1,401.2L273.1,401.2z"/>
						<path class="st35" d="M276,387.7c-1.9,0.8-4.5,0-6.5-0.4c-2.3-0.4-4.5-1-6.8-1.7c0.7,0.2,0.9,2.5,1.6,2.7
							c2.2,0.7,4.5,1.3,6.8,1.7c2,0.4,4.5,1.2,6.4,0.4C277.5,390.5,276.2,387.7,276,387.7z"/>
						<path class="st35" d="M264.8,385.2c2.1-0.9,4.4-1,6.6-1.7c2.3-0.7,4.3-2,6-3.7c0.2-0.2-1.8-2.6-1.6-2.7c-1.7,1.7-3.7,3-6,3.7
							c-2.2,0.7-4.5,0.8-6.6,1.7C263.3,382.4,264.7,385.2,264.8,385.2L264.8,385.2z"/>
						<path class="st35" d="M266.5,369.1c2,1.1,4.1,2.3,6.1,3.4s4,2.1,6.3,2.1c-0.5,0-1.1-2.7-1.6-2.7c-2.3,0-4.3-1.1-6.3-2.1
							s-4.1-2.3-6.1-3.4C265.7,366.8,265.7,368.6,266.5,369.1L266.5,369.1z"/>
						<path class="st35" d="M289.2,405.8c11-6.3,24.1-8.1,34.1-16.3c0.1-0.1-1.7-2.6-1.6-2.7c-9.9,8.2-23.1,10-34.1,16.3
							C287.6,403.1,289.2,405.8,289.2,405.8z"/>
						<path class="st35" d="M282.7,391c5.2,1.7,10.3,3.7,15.6,5c4.9,1.2,9.8,0.8,14.7,0.1c-0.4,0-1.2-2.8-1.6-2.7
							c-5,0.7-9.8,1.1-14.7-0.1c-5.3-1.3-10.5-3.3-15.6-5C281.8,388.6,281.9,390.8,282.7,391L282.7,391z"/>
						<path class="st35" d="M279.7,365.1c8.8,3,18.2,3.6,27.4,1.9c-0.2,0-0.6-1.4-0.8-1.4c-9.1,1.7-18.6,1.1-27.4-1.9
							C279.2,363.9,279.3,365,279.7,365.1L279.7,365.1z"/>
					</g>
				</g>
				
					<rect x="230.5" y="407.3" transform="matrix(0.9787 -0.2055 0.2055 0.9787 -80.7483 68.2811)" class="st22" width="115.6" height="31"/>
				<polyline class="st2" points="330.2,398.2 341.6,395.8 327.7,385.9 				"/>
				<polyline class="st20" points="228.5,419.5 214.5,409.7 219.9,435.5 234.9,449.9 				"/>
				<polygon class="st29" points="299.6,450.4 318,430.6 136,430.6 136,450.4 				"/>
				<path class="st36" d="M202,345.6L202,345.6c13.4,0,24.3,10.9,24.3,24.3v18.9c0,13.4-10.9,24.3-24.3,24.3l0,0
					c-13.4,0-24.3-10.9-24.3-24.3v-18.9C177.7,356.5,188.6,345.6,202,345.6z"/>
				<polygon class="st37" points="136,430.6 117.7,450.4 136,450.4 				"/>
				<path class="st36" d="M225.8,486.8h-44c-6.5,0-11.8-5.3-11.8-11.8v-37.6c0.1-18.6,15.2-33.7,33.8-33.8l0,0
					c18.6,0.1,33.7,15.1,33.8,33.8v37.6C237.6,481.5,232.3,486.8,225.8,486.8z"/>
				<path class="st36" d="M146.2,442.7c-4.7-1.2-8.8-4.4-11.1-8.6c-2.4-4.3-1-9.7,3.3-12.2c4.3-2.4,9.7-1,12.2,3.3
					c0,0.1,0.1,0.2,0.2,0.2c0.6,0.4,4.8,0.7,14.3-4.3c4.6-2.5,8.9-5.3,13-8.4c4-2.9,9.6-2,12.4,2c2.7,3.8,2.1,9-1.4,12
					c-4.1,3.2-25.6,19.3-41.4,16.2C147.2,443,146.7,442.9,146.2,442.7z"/>
				<path class="st36" d="M225.6,422.2c-4.1,0-8.2-0.7-12.1-2c-4.6-1.7-7-6.8-5.3-11.4c1.7-4.6,6.8-7,11.4-5.3
					c0.3,0.1,8.9,3,14.3-1.8c3.4-3,10.6-14.1,2.8-51.2c-1-4.8,2.1-9.5,6.9-10.6c4.8-1,9.5,2.1,10.6,6.9l0,0
					c7.3,34.7,4.4,57-8.7,68.4C240,419.9,232.9,422.4,225.6,422.2z"/>
				<g>
					<defs>
						<path id="SVGID_9_" d="M254.5,346.6c-1-4.8-5.7-7.9-10.6-6.9c-4.8,1-7.9,5.7-6.9,10.6l0,0c7.8,37.1,0.6,48.1-2.8,51.2
							c-4.2,3.7-10.3,2.8-13,2.1c3.4-4.3,5.3-9.6,5.3-15.1v-18.9c0-13.4-10.9-24.3-24.3-24.3c-13.4,0-24.3,10.9-24.3,24.3v18.9
							c0,7.6,3.6,14.7,9.6,19.3c-1.5,0.9-2.9,1.8-4.3,2.9c-1.8,0.1-3.6,0.8-5,1.9c-4.1,3.1-8.5,5.9-13.1,8.4
							c-9.4,5-13.6,4.6-14.2,4.2c-0.1-0.1-0.1-0.2-0.2-0.2c-2.5-4.3-7.9-5.7-12.2-3.3c-4.3,2.5-5.7,7.9-3.3,12.2
							c2.4,4.3,6.4,7.4,11.1,8.6c0.5,0.1,0.9,0.2,1.4,0.3c7,1.4,15.1-1,22.4-4.4v36.5c0,6.5,5.3,11.8,11.8,11.8h44
							c6.5,0,11.7-5.3,11.8-11.8v-37.6c0-5.7-1.4-11.2-4.1-16.2c4.5-1,8.7-3.1,12.1-6.1C258.9,403.6,261.7,381.3,254.5,346.6z"/>
					</defs>
					<clipPath id="SVGID_10_">
						<use xlink:href="#SVGID_9_"  style="overflow:visible;"/>
					</clipPath>
					<g class="st38">
						<path class="st32" d="M219.6,346.6c0,0-29.6,18.9-51.3,20l0.6-5.8C168.9,360.7,215,351.2,219.6,346.6z"/>
						<path class="st32" d="M226,374.8c-8,4.3-16.4,7.8-25,10.6c-9,2.8-18.4,2.6-27.7,2.9c-2.5,0.1-4.7,4.1-1.2,4
							c9.6-0.3,19.2-0.1,28.5-2.9c9.3-2.9,18.2-6.6,26.8-11.2C230.2,376.7,228.9,373.2,226,374.8L226,374.8z"/>
						<path class="st32" d="M173.4,408.6c26.7,15.7,56.1,26,86.7,30.5c-0.2,0,0.3-5.2,0-5.2c-30.6-4.5-60-14.8-86.7-30.5
							C174.1,403.8,172.6,408.2,173.4,408.6z"/>
						<path class="st32" d="M156.4,450.4c15-0.6,29.9-0.9,44.8,0.9c14.8,1.9,29.7,2.8,44.6,2.6c0.1,0,0-5.2,0-5.2
							c-14.9,0.2-29.8-0.7-44.6-2.6c-14.9-1.9-29.8-1.6-44.8-0.9C156.3,445.2,156.4,450.4,156.4,450.4L156.4,450.4z"/>
						<path class="st32" d="M232.1,393.6c8,9,16.9,17.1,26.6,24.2c-0.8-0.6,0.9-4.6,0-5.2c-9.7-7.1-18.6-15.2-26.6-24.2
							C233,389.3,231.2,392.6,232.1,393.6z"/>
						<path class="st32" d="M258.4,367.8c-8.8,8.1-14.4,21.3-27.4,23c-0.3,0,0.2,5.2,0,5.2c13.1-1.7,18.7-14.9,27.4-23
							C259.3,372.3,257.6,368.6,258.4,367.8z"/>
						<path class="st32" d="M237.1,370.1c10.2-1,20.3-2.5,30.4-4.5c0.4-0.1-0.3-5.2,0-5.2c-10.1,2-20.2,3.5-30.4,4.5
							C236.9,364.8,237.3,370.1,237.1,370.1L237.1,370.1z"/>
						<path class="st32" d="M254.1,342.8c-1.9,3.7-5.7,5.9-9,8.2c-3.8,2.6-7.8,5.1-11.8,7.4c-0.8,0.5,0.7,4.8,0,5.2
							c4-2.3,8-4.8,11.8-7.4c3.3-2.3,7.1-4.5,9-8.2C254.8,346.7,253.4,344.2,254.1,342.8L254.1,342.8z"/>
						<path class="st32" d="M161.8,452.6c16.6-6.2,29.5-19.3,45-27.5c0.8-0.4-0.7-4.9,0-5.2c-15.5,8.1-28.4,21.3-45,27.5
							C161.2,447.6,162.3,452.4,161.8,452.6L161.8,452.6z"/>
						<path class="st32" d="M163.9,415.3c-4.4,9.9-10.8,18.9-18.7,26.4c-0.9,0.9,0.9,4.4,0,5.2c7.9-7.5,14.3-16.4,18.7-26.4
							C164.5,419.1,163.2,416.8,163.9,415.3L163.9,415.3z"/>
						<path class="st32" d="M181.7,411.6c16-0.7,31.3-5.4,47-8c0.3,0-0.2-5.2,0-5.2c-15.7,2.5-31.1,7.2-47,8
							C181.6,406.4,181.7,411.6,181.7,411.6z"/>
						<path class="st32" d="M185.3,362.9c8.2,3.9,16.5,7.5,24.9,11c7.1,2.9,14.1,5.9,21.8,6.2c3.4,0.1,1.9-4.1-0.8-4.2
							c-8.1-0.4-15.6-4-23-7.1c-7.1-3-14.2-6.1-21.2-9.5C184.1,358,182.3,361.5,185.3,362.9L185.3,362.9z"/>
						<path class="st32" d="M192.8,364.7l-31.3,12c-0.4,0.1,3.3,2.4,4.7,1.9l31.3-12C198,366.4,194.2,364.2,192.8,364.7L192.8,364.7
							z"/>
					</g>
				</g>
				<polygon class="st22" points="136,456 136,450.4 117.7,450.4 117.7,450.4 117.7,499.2 299.6,499.2 299.6,456 				"/>
				<rect x="136" y="450.4" class="st22" width="163.5" height="5.7"/>
				<polygon class="st20" points="299.6,499.2 318,472.2 318,456 299.6,456 				"/>
				<polygon class="st20" points="299.6,450.4 299.6,456 318,456 318,430.6 				"/>
				<path class="st28" d="M140.4,220.6c0,0,41.2,12.5,69.2-8.8c0,0,26,3,37.1,103.8C246.6,315.6,144.7,282.9,140.4,220.6z"/>
				<path class="st28" d="M145.2,226.1L145.2,226.1c-2.8,0.7-5.6-1-6.3-3.8l-1.4-5.6c-0.7-2.8,1-5.6,3.8-6.3l0,0
					c2.8-0.7,5.6,1,6.3,3.8l1.4,5.6C149.7,222.6,148,225.4,145.2,226.1z"/>
				<path class="st23" d="M148,222.4c0,2-1.6,3.7-3.7,3.7s-3.7-1.6-3.7-3.7s1.6-3.7,3.7-3.7l0,0C146.4,218.8,148,220.4,148,222.4z"
					/>
				<path class="st13" d="M153.5,151.2l-2.2,22.4c-1.8,18.2,7.6,34.2,21.1,35.6l4.1,0.4c13.4,1.4,25.9-12.4,27.8-30.7l2.3-22.4
					L153.5,151.2z"/>
				<path class="st23" d="M154.8,149.8l-2.3,22.4c-1.8,18.2,7.6,34.2,21.1,35.6l4.1,0.4c13.4,1.4,25.9-12.4,27.8-30.7l2.9-14
					L154.8,149.8z"/>
				<path class="st18" d="M161.1,206.4c0,0,3-14.1,2.1-27.1c0,0-1.4-19.8,12.4-20.8c0,0,24.6,1.2,32.1,8.7c0.9-4.1,8.6-35.2-26.8-39
					c0,0-38.8-4.3-41.7,29.8c0.3,5.1,0.9,10.1,1.9,15.2c0.7,4,1.7,7.9,3.1,11.7c1.8,4.6,4.4,8.8,6.5,13.2
					C152.7,202.2,156.2,206.1,161.1,206.4z"/>
				<path class="st13" d="M157.9,144.7c0,0-15.4-17.9-33.5,26.4c0,0,0.1-39.5,18.1-45.7c1.2-0.4,2.5-0.7,3.8-0.8
					C168,123.1,157.9,144.7,157.9,144.7z"/>
				<path class="st13" d="M196.8,195.3h-0.2l-10.3-1.8c-0.6-0.1-0.9-0.6-0.9-1.2c0.1-0.6,0.6-0.9,1.2-0.8l10.3,1.8
					c0.6,0.1,1,0.6,0.9,1.2c0,0,0,0,0,0C197.7,195,197.3,195.3,196.8,195.3z"/>
				<path class="st5" d="M190,172.9l-11.4,1.2c-1.5,0.2-2.8-0.9-3-2.4c0,0,0,0,0,0l0,0c-0.2-1.5,0.9-2.8,2.4-3c0,0,0,0,0,0l11.4-1.2
					c1.5-0.2,2.8,0.9,3,2.4l0,0C192.6,171.4,191.5,172.8,190,172.9z"/>
				<path class="st39" d="M185.8,184.2L185.8,184.2c-1.5-0.2-2.4-1.6-2.2-3.1l0.6-3.9c0.2-1.5,1.6-2.4,3.1-2.2l0,0
					c1.5,0.2,2.4,1.6,2.2,3.1l-0.6,3.9C188.6,183.5,187.2,184.5,185.8,184.2z"/>
				<path class="st5" d="M203.8,170.4c-1-0.5-2.2-0.1-2.7,0.9c-0.4,0.9-0.1,2,0.7,2.5l4,2.3l0.8-4.1L203.8,170.4z"/>
				<path class="st39" d="M203.6,179c-1.2-0.2-2.3,0.6-2.6,1.8l-0.5,3.2c-0.2,1.2,0.6,2.3,1.8,2.5c0.5,0.1,1,0,1.4-0.2
					c0.6-2,1.1-4.1,1.5-6.2C204.9,179.6,204.3,179.1,203.6,179z"/>
				<path class="st13" d="M191.6,189.6c0.3-1.9,2-3.2,3.9-3c1.9,0.3,3.2,2,3,3.9c0,0.1,0,0.1,0,0.2L191.6,189.6z"/>
			</g>
		</g>
	</g>
</g>
</svg>
