<?xml version="1.0" encoding="utf-8"?>
<!-- Generator: Adobe Illustrator 25.2.3, SVG Export Plug-In . SVG Version: 6.00 Build 0)  -->
<svg version="1.1" id="Layer_1" xmlns="http://www.w3.org/2000/svg" xmlns:xlink="http://www.w3.org/1999/xlink" x="0px" y="0px"
	 viewBox="0 0 381.8 619.1" style="enable-background:new 0 0 381.8 619.1;" xml:space="preserve">
<style type="text/css">
	.st0{fill:#F4B155;}
	.st1{fill:#FFF0CC;}
	.st2{fill:#231F20;}
	.st3{clip-path:url(#SVGID_2_);}
	.st4{fill:#A4F6FF;}
	.st5{fill:#FFFFFF;}
	.st6{fill:#FFD351;}
	.st7{fill:#FFD150;}
	.st8{fill:#EE915B;}
	.st9{fill:#E6705F;}
	.st10{fill:#DD4F65;}
	.st11{fill:#5BC4B8;}
	.st12{fill:#E6E7E8;}
	.st13{fill:#F5B155;}
	.st14{fill:#414042;}
	.st15{fill:#3A335F;}
	.st16{fill:#F4B055;}
	.st17{fill:#4A355B;}
	.st18{fill:#754F4B;}
	.st19{fill:none;}
</style>
<g id="Layer_2_1_">
	<g id="Layer_1-2">
		<path class="st0" d="M381.8,23.5v572.2c0,12.9-10.9,23.5-24.4,23.5h-333C10.9,619.1,0,608.6,0,595.7V23.5C0,10.5,10.9,0,24.4,0
			h333C370.8,0,381.8,10.5,381.8,23.5z M361.3,582.1v-545c0-9.7-7.9-17.6-17.6-17.6H38c-9.7,0-17.5,7.9-17.5,17.6v545
			c0,9.7,7.9,17.5,17.5,17.5h305.7C353.4,599.6,361.3,591.8,361.3,582.1z"/>
		<path class="st1" d="M38,19.5h305.7c9.7,0,17.6,7.9,17.6,17.6v545c0,9.7-7.9,17.6-17.6,17.6H38c-9.7,0-17.6-7.9-17.6-17.6v-545
			C20.5,27.4,28.3,19.5,38,19.5z"/>
		<path class="st2" d="M107.6,543.7c-0.2-0.2-0.3-0.5-0.3-0.9v-17.4h-5.6c-0.3,0-0.6-0.1-0.9-0.3c-0.2-0.2-0.3-0.6-0.2-0.9v-0.9
			c0-0.3,0.1-0.6,0.2-0.9c0.2-0.2,0.6-0.3,0.9-0.3H117c0.3,0,0.6,0.1,0.9,0.3c0.2,0.3,0.3,0.6,0.3,0.9v0.9c0,0.3-0.1,0.6-0.3,0.9
			c-0.3,0.2-0.6,0.3-0.9,0.3h-5.6v17.4c0,0.3-0.1,0.6-0.3,0.9c-0.3,0.2-0.6,0.3-0.9,0.3h-1.7C108.2,544,107.9,543.9,107.6,543.7z"/>
		<path class="st2" d="M120.9,543.7c-0.2-0.2-0.3-0.5-0.3-0.9v-19.4c0-0.3,0.1-0.6,0.3-0.9c0.3-0.2,0.6-0.3,0.9-0.3h1.7
			c0.3,0,0.7,0.1,0.9,0.3c0.2,0.2,0.3,0.6,0.3,0.9v8h10.5v-8c0-0.3,0.1-0.6,0.3-0.9c0.3-0.2,0.6-0.3,0.9-0.3h1.6
			c0.3,0,0.7,0.1,0.9,0.3c0.2,0.2,0.3,0.6,0.3,0.9v19.4c0,0.3-0.1,0.6-0.3,0.9c-0.3,0.2-0.6,0.3-0.9,0.3h-1.7
			c-0.3,0-0.7-0.1-0.9-0.3c-0.2-0.2-0.3-0.5-0.3-0.9v-8.2h-10.4v8.2c0,0.3-0.1,0.6-0.3,0.9c-0.3,0.2-0.6,0.3-1,0.3h-1.7
			C121.4,544,121.1,543.9,120.9,543.7z"/>
		<path class="st2" d="M143.3,543.7c-0.2-0.2-0.3-0.5-0.3-0.9v-19.4c0-0.3,0.1-0.6,0.3-0.9c0.3-0.2,0.6-0.3,0.9-0.3h13.3
			c0.3,0,0.6,0.1,0.9,0.3c0.2,0.2,0.3,0.6,0.2,0.9v0.9c0,0.3-0.1,0.6-0.2,0.9c-0.2,0.2-0.6,0.3-0.9,0.3h-10.4v6.2h7.5
			c0.3,0,0.6,0.1,0.9,0.2c0.2,0.2,0.3,0.6,0.2,0.9v0.8c0,0.3-0.1,0.6-0.2,0.9c-0.3,0.2-0.6,0.3-0.9,0.3h-7.5v6.2h10.3
			c0.3,0,0.6,0.1,0.9,0.3c0.2,0.3,0.3,0.6,0.3,0.9v0.9c0,0.3-0.1,0.6-0.3,0.8c-0.3,0.2-0.6,0.3-0.9,0.3h-13.2
			C143.9,544,143.5,543.9,143.3,543.7z"/>
		<path class="st2" d="M178.6,543.8c-0.2-0.2-0.3-0.4-0.3-0.6l-5-20.1c0-0.1,0-0.2,0-0.3c0-0.3,0.2-0.5,0.6-0.5h2.6
			c0.2,0,0.5,0,0.7,0.2c0.1,0.1,0.2,0.3,0.3,0.5l3.2,14l3.8-12.4c0-0.2,0.2-0.4,0.3-0.5c0.2-0.1,0.4-0.2,0.6-0.1h1.5
			c0.2,0,0.4,0,0.6,0.1c0.1,0.1,0.2,0.3,0.3,0.5l3.8,12.5l3.2-14c0-0.2,0.1-0.4,0.3-0.5c0.2-0.1,0.4-0.2,0.6-0.2h2.6
			c0.4,0,0.6,0.2,0.6,0.5c0,0.1,0,0.2,0,0.3l-5.1,20.1c-0.1,0.5-0.5,0.8-1,0.8H191c-0.2,0-0.5,0-0.7-0.2c-0.2-0.2-0.3-0.4-0.4-0.6
			l-3.9-12.8l-3.8,12.8c0,0.2-0.2,0.5-0.4,0.6c-0.2,0.1-0.4,0.2-0.7,0.2h-1.8C179.1,544,178.9,543.9,178.6,543.8z"/>
		<path class="st2" d="M202.1,541.5c-1.9-2-2.8-4.8-2.8-8.4c0-3.6,0.9-6.4,2.8-8.4s4.6-3,8.1-3s6.2,1,8.1,3s2.8,4.8,2.8,8.4
			s-0.9,6.4-2.8,8.4s-4.6,3-8.1,3S203.9,543.4,202.1,541.5z M215.2,539.3c1.2-1.4,1.8-3.5,1.8-6.2c0-2.7-0.6-4.8-1.8-6.2
			c-2.8-2.8-7.4-2.8-10.2,0c-1.2,1.4-1.8,3.5-1.8,6.2s0.6,4.8,1.8,6.2C207.8,542.1,212.4,542.1,215.2,539.3
			C215.2,539.3,215.2,539.3,215.2,539.3z"/>
		<path class="st2" d="M224.4,543.7c-0.2-0.2-0.3-0.5-0.3-0.9v-19.4c0-0.3,0.1-0.6,0.3-0.9c0.3-0.2,0.6-0.3,0.9-0.3h8.3
			c2-0.1,4,0.5,5.6,1.7c1.4,1.3,2.1,3.2,1.9,5.1c0,1.3-0.3,2.7-1.1,3.8c-0.8,1.1-1.8,1.9-3.1,2.4l3.5,7.8c0.1,0.1,0.1,0.2,0.1,0.3
			c0,0.3-0.2,0.5-0.6,0.5h-2.6c-0.2,0-0.4,0-0.6-0.1c-0.2-0.1-0.3-0.3-0.4-0.5l-3.2-7.6h-5.1v7c0,0.3-0.1,0.6-0.3,0.9
			c-0.3,0.2-0.6,0.3-0.9,0.3h-1.7C225,544,224.7,543.9,224.4,543.7z M232.9,532.7c1.2,0.1,2.3-0.2,3.3-0.9c0.8-0.7,1.2-1.8,1.1-2.8
			c0.1-1-0.3-2.1-1-2.8c-0.8-0.7-1.9-1-2.9-0.9h-5.1v7.4H232.9z"/>
		<path class="st2" d="M244.6,543.7c-0.2-0.2-0.3-0.5-0.3-0.9v-19.4c0-0.3,0.1-0.6,0.3-0.9c0.3-0.2,0.6-0.3,0.9-0.3h1.7
			c0.3,0,0.7,0.1,0.9,0.3c0.2,0.2,0.3,0.6,0.3,0.9v17.4h9.8c0.3,0,0.6,0.1,0.9,0.3c0.2,0.3,0.3,0.6,0.3,0.9v0.9
			c0,0.3-0.1,0.6-0.3,0.8c-0.3,0.2-0.6,0.3-0.9,0.3h-12.7C245.2,544,244.9,543.9,244.6,543.7z"/>
		<path class="st2" d="M262.1,543.7c-0.2-0.2-0.3-0.5-0.3-0.9v-19.4c0-0.3,0.1-0.6,0.3-0.9c0.3-0.2,0.6-0.3,0.9-0.3h6.4
			c3.6,0,6.3,0.9,8.2,2.6s2.9,4.5,2.9,8.3c0,7.2-3.7,10.8-11.1,10.8H263C262.7,544,262.4,543.9,262.1,543.7z M269.7,540.8
			c1.9,0.1,3.7-0.5,5.1-1.8c1.1-1.2,1.7-3.2,1.7-6s-0.6-4.8-1.7-6c-1.4-1.3-3.2-1.9-5.1-1.7h-3.7v15.5L269.7,540.8z"/>
		<g>
			<defs>
				<path id="SVGID_1_" d="M107.6,72.8h166.5c34.1,0,61.8,27.7,61.8,61.8V404c0,34.1-27.7,61.8-61.8,61.8H107.6
					c-34.1,0-61.8-27.7-61.8-61.8V134.6C45.9,100.5,73.5,72.8,107.6,72.8z"/>
			</defs>
			<clipPath id="SVGID_2_">
				<use xlink:href="#SVGID_1_"  style="overflow:visible;"/>
			</clipPath>
			<g class="st3">
				<rect x="45.9" y="51.3" class="st4" width="298.8" height="456.3"/>
				<path class="st5" d="M320.4,206.5h-82.7c-5.9,0-10.7-4.8-10.7-10.7l0,0c0-5.9,4.8-10.7,10.7-10.7h82.7c5.9,0,10.7,4.8,10.7,10.7
					l0,0C331,201.7,326.3,206.5,320.4,206.5z"/>
				<circle class="st5" cx="289.6" cy="180" r="26.5"/>
				<circle class="st5" cx="260.4" cy="187.6" r="18.9"/>
				<path class="st5" d="M131.4,160.7h48.2c3.4,0,6.2,2.8,6.2,6.2v0c0,3.4-2.8,6.2-6.2,6.2h-48.2c-3.4,0-6.2-2.8-6.2-6.2v0
					C125.1,163.5,127.9,160.7,131.4,160.7z"/>
				<circle class="st5" cx="149.3" cy="157.7" r="15.5"/>
				<circle class="st5" cx="166.3" cy="162.1" r="11"/>
				<path class="st5" d="M135.6,269.3H15.2c-8.6,0-15.5-7-15.6-15.6l0,0c0-8.6,7-15.5,15.6-15.5h120.3c8.6,0,15.5,7,15.5,15.5l0,0
					C151.1,262.3,144.1,269.3,135.6,269.3z"/>
				<circle class="st5" cx="60.1" cy="230.7" r="38.6"/>
				<circle class="st5" cx="102.5" cy="241.8" r="27.5"/>
				<path class="st5" d="M379.9,465.7H198.5c-12.9,0-23.4-10.5-23.4-23.4v0c0-12.9,10.5-23.4,23.4-23.4h181.4
					c12.9,0,23.4,10.5,23.4,23.4v0C403.4,455.2,392.9,465.7,379.9,465.7z"/>
				<circle class="st5" cx="312.3" cy="407.5" r="58.2"/>
				<circle class="st5" cx="248.3" cy="424.2" r="41.5"/>
				<path class="st6" d="M196.7,151.3c42,0,76.1,53.5,76.1,119.5s-34.1,119.5-76.1,119.5s-76.1-53.5-76.1-119.5
					S154.7,151.3,196.7,151.3 M196.7,141.4c-12.3,0-24.1,3.7-35.1,11.1c-10.2,6.8-19.3,16.4-27.1,28.5
					c-7.9,12.6-13.8,26.3-17.5,40.7c-8.4,32.2-8.4,66,0,98.2c3.7,14.4,9.6,28.1,17.5,40.7c7.7,12.1,16.8,21.8,27.1,28.5
					c11,7.3,22.8,11,35.1,11s24.1-3.7,35.1-11c10.2-6.8,19.3-16.4,27.1-28.5c7.9-12.6,13.8-26.3,17.5-40.7c8.4-32.2,8.4-66,0-98.2
					c-3.7-14.4-9.6-28.1-17.5-40.7c-7.7-12.1-16.8-21.8-27.1-28.5C220.8,145.1,209,141.4,196.7,141.4L196.7,141.4z"/>
				<circle class="st7" cx="286.9" cy="417.4" r="32.7"/>
				<circle class="st8" cx="286.9" cy="413.4" r="32.7"/>
				<path class="st9" d="M312.1,402.8h-18.6l-6.6-20.4l-6.6,20.4h-21.5l17.4,12.6l-6.6,20.4l17.4-12.6l17.4,12.6l-6.6-20.4l15-10.9
					c0.4-0.3,0.5-0.9,0.2-1.3C312.6,402.9,312.4,402.8,312.1,402.8z M286.9,386.5l5.3,16.2h-10.5L286.9,386.5z M292.6,404.1
					l3.5,10.8l-9.2,6.7l-9.2-6.7l3.5-10.8H292.6z M262.7,404.1h17.1l-3.3,10L262.7,404.1z M272,432.4l5.3-16.2l8.5,6.2L272,432.4z
					 M301.8,432.4l-13.8-10l8.5-6.2L301.8,432.4z M294,404.1h17l-13.8,10L294,404.1z"/>
				<polygon class="st6" points="286.9,386.5 281.6,402.8 292.1,402.8 				"/>
				<polygon class="st6" points="272,432.4 285.8,422.4 277.2,416.2 				"/>
				<polygon class="st6" points="279.8,404.1 262.7,404.1 276.5,414.1 				"/>
				<polygon class="st6" points="292.6,404.1 281.2,404.1 277.7,414.9 286.9,421.6 296.1,414.9 				"/>
				<polygon class="st6" points="288,422.4 301.8,432.4 296.5,416.2 				"/>
				<polygon class="st6" points="293.9,404.1 297.2,414.1 311,404.1 				"/>
				
					<rect x="91.8" y="97.5" transform="matrix(0.186 -0.9825 0.9825 0.186 -15.8191 184.7716)" class="st10" width="23.7" height="8.9"/>
				
					<rect x="99.8" y="103.4" transform="matrix(0.186 -0.9825 0.9825 0.186 -28.4522 191.9525)" class="st11" width="3.7" height="19.5"/>
				<polygon class="st12" points="73.5,260.6 79.4,253.9 105.5,115.7 96.8,114 70.6,252.2 				"/>
				<path class="st5" d="M209.7,465.7H-11.7c-15.8,0-28.6-12.8-28.6-28.6l0,0c0-15.8,12.8-28.6,28.6-28.6h221.4
					c15.8,0,28.6,12.8,28.6,28.6l0,0C238.2,452.9,225.4,465.7,209.7,465.7z"/>
				<circle class="st5" cx="70.8" cy="394.7" r="71.1"/>
				<circle class="st5" cx="148.9" cy="415.1" r="50.6"/>
				<path class="st13" d="M206.1,288c-3.1,0-5.6,2.5-5.6,5.6c0,0.8,0.1,1.5,0.4,2.2c5.3,12.6,5.8,21.9,1.4,27.5
					c-7.1,9.1-26.4,8.3-33.2,7.3c-3.1-0.4-5.9,1.8-6.3,4.9c-0.4,3,1.6,5.7,4.6,6.2c5.5,0.7,11,0.9,16.5,0.5c12.6-1,21.8-5,27.3-12
					c7.1-9.1,7.1-22.1,0.1-38.9C210.5,289.3,208.4,288,206.1,288z"/>
				<path class="st7" d="M192.2,357.7v-63.5c0-3.2-2.6-5.9-5.9-5.9s-5.9,2.6-5.9,5.9v64.5c0,0.1,0,0.1,0,0.2l-4.3,0.9
					c-0.7,0.2-1.4,0.5-1.9,1.1l-0.9,1c-1.3,1.4-1.2,3.6,0.2,4.9c0.6,0.6,1.5,0.9,2.4,0.9h14c1.9,0,3.5-1.6,3.5-3.5v-3.8
					C193.6,359.4,193.1,358.3,192.2,357.7z"/>
				<path class="st13" d="M164.6,329.5l5.7,0.5c2.1,0.2,3.6,2.1,3.4,4.1c0,0.5-0.2,0.9-0.4,1.4l-4.5,8.8c-1,1.9-3.2,2.6-5.1,1.6
					c-1.1-0.6-1.9-1.7-2-2.9l-1.2-9.4c-0.3-2.1,1.2-4,3.3-4.2C164,329.5,164.3,329.5,164.6,329.5z"/>
				
					<rect x="158.6" y="206.5" transform="matrix(0.918 -0.3965 0.3965 0.918 -79.9888 91.0333)" class="st14" width="43.1" height="64.9"/>
				<path class="st6" d="M195.7,217.6c0.9,2.1-0.1,4.6-2.2,5.5c-2.1,0.9-4.6-0.1-5.5-2.2c-0.9-2.1,0.1-4.6,2.2-5.5
					C192.3,214.5,194.8,215.5,195.7,217.6C195.7,217.6,195.7,217.6,195.7,217.6z"/>
				<path class="st13" d="M194.4,218.2c0.6,1.4,0,3-1.4,3.6c-1.4,0.6-3,0-3.6-1.4c-0.6-1.4,0-3,1.4-3.6
					C192.1,216.2,193.7,216.8,194.4,218.2C194.3,218.2,194.3,218.2,194.4,218.2z"/>
				<path class="st6" d="M161.4,233.6c0.9,2.1-0.1,4.6-2.2,5.5c-2.1,0.9-4.6-0.1-5.5-2.2c-0.9-2.1,0.1-4.6,2.2-5.5
					C158,230.5,160.5,231.5,161.4,233.6C161.4,233.6,161.4,233.6,161.4,233.6z"/>
				<path class="st13" d="M160,234.2c0.6,1.4,0,3-1.4,3.6c-1.4,0.6-3,0-3.6-1.4c-0.6-1.4,0-3,1.4-3.6
					C157.8,232.2,159.4,232.8,160,234.2C160,234.2,160,234.2,160,234.2z"/>
				<path class="st6" d="M179.2,239.1l2.2-0.9c1.1-0.5,2.3,0,2.8,1.1c0,0,0,0,0,0l3.3,7.6c0.5,1.1,0,2.3-1.1,2.8l-2.2,0.9
					c-1.1,0.5-2.3,0-2.8-1.1l-3.3-7.6C177.6,240.8,178.1,239.5,179.2,239.1C179.2,239.1,179.2,239.1,179.2,239.1z"/>
				<path class="st6" d="M204.1,247l3.5-7.5c0.5-1.1,1.8-1.5,2.8-1l2.1,1c1.1,0.5,1.5,1.8,1,2.8l-3.5,7.5c-0.5,1.1-1.8,1.5-2.8,1
					l-2.1-1C204,249.3,203.6,248.1,204.1,247z"/>
				<path class="st13" d="M183,245.2L183,245.2c-9.6,4.1-20.7-0.3-24.8-9.9l-3.1-7.2c-4.1-9.6,0.3-20.7,9.9-24.8l0,0
					c9.6-4.1,20.6,0.3,24.8,9.9l3.1,7.2C196.9,229.9,192.5,241,183,245.2z"/>
				<path class="st6" d="M182.6,244.2L182.6,244.2c-9.6,4.1-20.6-0.3-24.8-9.9l-3.1-7.2c-4.1-9.6,0.3-20.7,9.9-24.8l0,0
					c9.6-4.1,20.7,0.3,24.8,9.9l3.1,7.2C196.6,229,192.2,240.1,182.6,244.2z"/>
				<path class="st14" d="M186.2,211.2l-29.9,12.9c-5,2.1-10.9-0.2-13.1-5.2l0,0c-2.1-5,0.2-10.9,5.2-13.1l29.9-12.9
					c5-2.1,10.9,0.2,13.1,5.2l0,0C193.5,203.1,191.2,209,186.2,211.2z"/>
				<path class="st6" d="M196.3,318.8L196.3,318.8c-11.5,0-20.8-9.3-20.8-20.8v-34.6c0-11.5,9.3-20.8,20.8-20.8l0,0
					c11.5,0,20.8,9.3,20.8,20.8l0,0V298C217.1,309.5,207.8,318.8,196.3,318.8z"/>
				<path class="st15" d="M181.5,219.9L181.5,219.9c1.3-0.5,2.7,0,3.2,1.2l1.8,4.1c0.5,1.2,0,2.6-1.2,3.1l-0.1,0
					c-1.2,0.5-2.6,0-3.1-1.2l-1.8-4.1C179.8,221.8,180.3,220.4,181.5,219.9z"/>
				<path class="st15" d="M164.8,227.1l1.6-0.7c0.8-0.3,1.7,0,2,0.8l2.4,5.6c0.3,0.8,0,1.7-0.8,2l-1.6,0.7c-0.8,0.3-1.7,0-2-0.8
					l-2.4-5.6C163.7,228.4,164,227.4,164.8,227.1z"/>
				<path class="st13" d="M177,231.3l-1.2,0.5c-0.1,0-0.2,0-0.2-0.1c0,0,0,0,0,0c-0.2-0.8,0.2-1.6,1-1.8c0.6-0.2,1.3,0.1,1.6,0.6
					c0,0.1,0,0.2-0.1,0.2c0,0,0,0,0,0L177,231.3z"/>
				<path class="st14" d="M176.1,218.2l7.4-3.2c0.4-0.2,0.9,0,1.1,0.4l0.4,0.8c0.2,0.4,0,0.9-0.4,1.1l-7.4,3.2
					c-0.4,0.2-0.9,0-1.1-0.4l-0.4-0.8C175.5,218.9,175.7,218.4,176.1,218.2z"/>
				<path class="st14" d="M160.8,224.8l7.4-3.2c0.4-0.2,0.9,0,1.1,0.4l0.4,0.8c0.2,0.4,0,0.9-0.4,1.1l-7.4,3.2
					c-0.4,0.2-0.9,0-1.1-0.4l-0.4-0.8C160.2,225.4,160.4,225,160.8,224.8z"/>
				<path class="st10" d="M176,234.6c-0.1,0-0.1,0.1-0.1,0.2c0,0,0,0,0,0c0.6,1.2,2.1,1.6,3.3,1c1.1-0.6,1.6-1.8,1.2-2.9
					c0-0.1-0.1-0.1-0.2-0.1c0,0,0,0,0,0L176,234.6z"/>
				
					<rect x="214.5" y="204.8" transform="matrix(0.3193 -0.9477 0.9477 0.3193 -62.5116 360.6523)" class="st13" width="10.6" height="38"/>
				<path class="st7" d="M197.2,220.2c-0.8,2.2,0.4,4.7,2.7,5.4c2.2,0.8,4.7-0.4,5.4-2.7s-0.4-4.7-2.7-5.4c0,0,0,0,0,0
					C200.4,216.8,198,218,197.2,220.2z"/>
				<path class="st16" d="M198.8,220.8c-0.5,1.4,0.3,2.8,1.6,3.3c1.4,0.5,2.8-0.3,3.3-1.6c0.5-1.4-0.3-2.8-1.6-3.3c0,0,0,0,0,0
					C200.7,218.7,199.2,219.4,198.8,220.8z"/>
				<path class="st7" d="M231.4,231.8c-0.8,2.2,0.4,4.7,2.7,5.4c2.2,0.8,4.7-0.4,5.4-2.7c0.8-2.2-0.4-4.7-2.7-5.4c0,0,0,0,0,0
					C234.5,228.3,232.1,229.5,231.4,231.8z"/>
				<path class="st16" d="M232.9,232.3c-0.5,1.4,0.3,2.8,1.6,3.3c1.4,0.5,2.8-0.3,3.3-1.6c0.5-1.4-0.3-2.8-1.6-3.3
					C234.9,230.2,233.4,230.9,232.9,232.3C232.9,232.3,232.9,232.3,232.9,232.3z"/>
				<path class="st13" d="M211.8,246.2L211.8,246.2c9.1,3,19-1.9,22.1-11l2.9-8.6c3-9.1-1.9-19-11-22.1l0,0c-9.1-3-19,1.9-22.1,11
					l-2.9,8.6C197.7,233.2,202.7,243.1,211.8,246.2z"/>
				<path class="st7" d="M212.1,245.2L212.1,245.2c9.1,3,19-1.8,22.1-10.9l2.9-8.6c3-9.1-1.9-19-11-22.1l0,0c-9.1-3-19,1.9-22.1,11
					l-2.9,8.6C198.1,232.2,203,242.1,212.1,245.2z"/>
				<path class="st13" d="M239.4,224.9c3.3-9.9-2-20.6-11.9-24l0,0c-9.9-3.3-20.6,2-24,11.9L239.4,224.9z"/>
				<path class="st17" d="M221.8,233.2L221.8,233.2c-1.2-0.3-1.9-1.5-1.6-2.6l0.6-2.4c0.3-1.1,1.5-1.8,2.6-1.5l0.1,0
					c1.1,0.3,1.8,1.5,1.5,2.6l-0.6,2.4C224.1,232.9,222.9,233.5,221.8,233.2z"/>
				<path class="st17" d="M209.2,229.1L209.2,229.1c-1.2-0.3-1.9-1.5-1.6-2.7l0.7-2.5c0.3-1.2,1.5-1.9,2.7-1.5l0.1,0
					c1.2,0.3,1.9,1.5,1.5,2.7l-0.7,2.5C211.5,228.7,210.3,229.4,209.2,229.1z"/>
				<path class="st13" d="M206.4,218l5.9-0.7c0.6-0.1,1.1,0.3,1.2,0.9l0.1,1.2c0.1,0.6-0.3,1.1-0.9,1.2l-5.9,0.7
					c-0.6,0.1-1.1-0.3-1.2-0.9l-0.1-1.2C205.4,218.6,205.8,218.1,206.4,218z"/>
				<path class="st13" d="M226,223l3.5,3c0.6,0.6,0.7,1.5,0.1,2.2l0,0c-0.6,0.6-1.5,0.7-2.2,0.1l-3.5-3c-0.6-0.6-0.7-1.5-0.1-2.2
					l0,0C224.4,222.5,225.4,222.4,226,223z"/>
				<path class="st16" d="M216.1,233c0.3-1.4-0.6-2.7-1.9-3c-1.3-0.3-2.6,0.5-2.9,1.7L216.1,233z"/>
				<path class="st10" d="M214.7,235.9c0.3-1-0.3-2-1.3-2.3s-2,0.3-2.3,1.3L214.7,235.9z"/>
				<path class="st16" d="M213.1,236.2c0.1-0.2-0.1-0.5-0.3-0.5s-0.5,0.1-0.5,0.3l0,0L213.1,236.2z"/>
				<path class="st6" d="M163.1,297.3c-2.6,0-4.8-2.1-4.8-4.8c0-38.7,24.2-46.4,25.2-46.7l2.8,9.2h0.1c-0.8,0.2-18.5,6.3-18.5,37.6
					C167.9,295.1,165.7,297.3,163.1,297.3z"/>
				<path class="st6" d="M225.7,263.1c-7.1-0.1-14-2.1-20-5.9c-2.2-1.5-2.8-4.5-1.3-6.7c1.5-2.2,4.5-2.8,6.7-1.3
					c0.2,0.1,9.5,6.1,19.9,3.6c7.2-1.8,13.4-7.2,18.5-16.4c1.3-2.3,4.2-3.1,6.5-1.8c2.3,1.3,3.1,4.2,1.8,6.5
					c-6.5,11.6-14.8,18.6-24.8,21C230.6,262.8,228.2,263.1,225.7,263.1z"/>
				<rect x="140.3" y="291.3" class="st9" width="37.8" height="2.4"/>
				<path class="st6" d="M159.2,292.5h8c1.5,0,2.6,1.2,2.6,2.6v0.1c0,1.5-1.2,2.6-2.6,2.6h-8c-1.5,0-2.6-1.2-2.6-2.6v-0.1
					C156.5,293.7,157.7,292.5,159.2,292.5z"/>
				
					<rect x="253.4" y="220" transform="matrix(0.7071 -0.7071 0.7071 0.7071 -94.3666 249.978)" class="st9" width="2.4" height="37.8"/>
				<path class="st6" d="M257.4,241.1l-5.6-5.6c-1-1-1-2.7,0-3.8l0,0c1-1,2.7-1,3.8,0l5.6,5.6c1,1,1,2.7,0,3.8l0,0
					C260.1,242.1,258.4,242.1,257.4,241.1z"/>
				<path class="st7" d="M153.9,210.2c4.1-2,6.4-6.6,6.4-11.8c0-1.1,0.9-2,2-2c0.4,0,0.9,0.2,1.2,0.4c4.1,3.3,9.1,4.5,13.2,2.5
					c2.4-1.2,4.3-3.3,5.3-5.8c0.3-0.5,0.9-0.6,1.4-0.4c0.2,0.1,0.3,0.2,0.4,0.4l2.8,5.8c1.5,3.1,0.7,6.6-1.7,7.8l-30.5,14.5
					c-2.4,1.1-5.6-0.5-7.1-3.6l-2.9-6.2c-0.2-0.5,0.1-1.1,0.6-1.3c0.2-0.1,0.4-0.1,0.5,0C148.2,211.5,151.2,211.4,153.9,210.2z"/>
				<path class="st16" d="M153.3,227.2l36.9-17.5c1.3-0.6,1.9-2.2,1.3-3.5l0,0c-0.6-1.3-2.2-1.9-3.5-1.3l-37,17.5
					c-1.3,0.6-1.9,2.2-1.3,3.5l0,0C150.4,227.3,152,227.8,153.3,227.2C153.3,227.2,153.3,227.2,153.3,227.2z"/>
				<path class="st18" d="M315.3,225.7c-1.2,0.6-2.6,0.1-3.2-1c0-0.1-0.1-0.2-0.1-0.3l-50.7-103.6c-0.7-1.3-0.4-2.9,0.8-3.8
					c1.2-0.6,2.6-0.1,3.2,1c0,0.1,0.1,0.2,0.1,0.3l50.7,103.6C316.8,223.1,316.5,224.8,315.3,225.7z"/>
				<path class="st19" d="M275.4,166.6c-1.4,2.1-1.8,4.8-0.9,7.2c0.7,2,2.3,3.4,4.4,3.8c3.1,0.6,6.5,0,10.6-1.7l0.4-0.2l0.4-0.3
					c3.1-2.3,5.5-5.4,7-8.9c0.8-2,0.7-4.3-0.5-6.2c-1.2-2.1-3.5-3.3-5.9-3.1c-2,0.3-3.9,0.9-5.8,1.8c-0.9,0.4-1.8,0.8-2.8,1.1
					c-0.8,0.7-1.6,1.4-2.4,2C278.2,163.4,276.7,164.9,275.4,166.6z"/>
				<path class="st19" d="M290.3,181.8c-1.5,0.7-2.8,1.8-3.8,3.1c-1.3,2.2-0.4,6,1.1,8.8c2.6,5,6.8,4.4,12.4,2.4
					c4.5-4.1,7.3-7.7,4.9-12.9c-1.3-2.9-3.7-5.9-6.1-5.8c-1.4,0-2.9,0.9-4.4,1.9c-0.7,0.4-1.3,0.8-2,1.2S290.9,181.4,290.3,181.8z"
					/>
				<path class="st10" d="M250.1,87l-0.2,0.1c2.4,1.4,4.2,3.7,5,6.3c1.9,5.5-0.3,11.3-4.8,13c-2.2,0.8-4.7,0.5-6.7-0.8
					c0.2,1.3,0.6,2.6,1,3.9c3.4,10,11.4,16.2,18,13.8s9.2-12.5,5.8-22.5S256.7,84.5,250.1,87z"/>
				<path class="st7" d="M260.5,103.4c0,0,0,0.1,0,0.1c1.5,4.4-0.2,9.1-3.9,10.5c-0.6,0.2-1.1,0.3-1.7,0.3c1.7,3.6,4.8,5.7,7.4,4.8
					c2.9-1.1,4.1-5.5,2.6-10C264.2,106.7,262.6,104.7,260.5,103.4z"/>
				<path class="st6" d="M59.8,359.1l4.5,27.8c2.2,13.3,13.4,22.9,26,23l3.4,20.1l-9.5,9.6c0,0,3.2,1.8,15.4-0.2h0.1
					c12.2-2,14.8-4.9,14.8-4.9l-12.1-5.9l-3.4-20.2c11.7-4.2,19.1-16.7,17-29.8l-4.5-27.8L59.8,359.1z"/>
				<path class="st13" d="M111.3,351c0.4,2.4-10.8,6.2-25,8.5s-26,2.1-26.4-0.3s10.8-6.2,25-8.5S111,348.5,111.3,351z"/>
			</g>
		</g>
	</g>
</g>
</svg>
