<?xml version="1.0" encoding="utf-8"?>
<!-- Generator: Adobe Illustrator 25.2.3, SVG Export Plug-In . SVG Version: 6.00 Build 0)  -->
<svg version="1.1" id="Layer_1" xmlns="http://www.w3.org/2000/svg" xmlns:xlink="http://www.w3.org/1999/xlink" x="0px" y="0px"
	 viewBox="0 0 234.2 379.8" style="enable-background:new 0 0 234.2 379.8;" xml:space="preserve">
<style type="text/css">
	.st0{fill:#F4B155;}
	.st1{fill:#FFF0CC;}
	.st2{fill:#231F20;}
	.st3{clip-path:url(#SVGID_2_);}
	.st4{fill:#A4F6FF;}
	.st5{fill:#FFFFFF;}
	.st6{fill:#E6E7E8;}
	.st7{fill:#3F272D;}
	.st8{fill:#D1D3D4;}
	.st9{fill:#754854;}
	.st10{fill:#66424D;}
	.st11{fill:#4A355B;}
	.st12{fill:#FFD150;}
	.st13{fill:#F4B055;}
	.st14{fill:#F5B155;}
	.st15{fill:#E6705F;}
	.st16{fill:#47372E;}
	.st17{fill:#DD4F65;}
	.st18{fill:#48C2CA;}
	.st19{fill:#AECE83;}
	.st20{fill:#EE915B;}
	.st21{fill:#D6306A;}
	.st22{fill:#FFD351;}
</style>
<g id="Layer_2_1_">
	<g id="Layer_1-2">
		<path class="st0" d="M234.2,14.4v351c0,7.9-6.7,14.4-14.9,14.4H14.9c-8.2,0-14.9-6.4-14.9-14.4v-351C0,6.5,6.7,0,14.9,0h204.3
			C227.5,0,234.2,6.5,234.2,14.4z M221.6,357.1V22.8c0-5.9-4.8-10.7-10.8-10.8H23.3c-5.9,0-10.7,4.8-10.8,10.8v334.3
			c0,5.9,4.8,10.8,10.8,10.8h187.5C216.8,367.8,221.6,363,221.6,357.1z"/>
		<path class="st1" d="M23.3,12h187.5c6,0,10.8,4.8,10.8,10.8v334.3c0,6-4.8,10.8-10.8,10.8H23.3c-6,0-10.8-4.8-10.8-10.8V22.8
			C12.6,16.8,17.4,12,23.3,12z"/>
		<path class="st2" d="M44.7,325.8c0-0.1,0-0.2,0-0.2l5.3-12.2c0-0.2,0.1-0.3,0.3-0.4c0.1-0.1,0.3-0.1,0.4-0.1h1.1
			c0.1,0,0.3,0,0.4,0.1c0.1,0.1,0.2,0.2,0.2,0.4l5.1,12.2c0,0.1,0,0.2,0,0.2c0,0.2-0.1,0.3-0.3,0.3h-1.7c-0.1,0-0.2,0-0.4-0.1
			c-0.1-0.1-0.2-0.2-0.2-0.3l-1.1-2.7h-5.4l-1.1,2.7c0,0.1-0.1,0.2-0.2,0.3c-0.1,0.1-0.2,0.1-0.4,0.1h-1.7
			C44.9,326.1,44.7,325.9,44.7,325.8z M53.2,321.1l-2.1-5.1l-2.1,5.1L53.2,321.1z"/>
		<path class="st2" d="M59.8,324.5c-1.3-1.4-2-3.3-1.8-5.1c-0.1-1.9,0.5-3.7,1.8-5.1c1.4-1.3,3.2-1.9,5.1-1.8c0.8,0,1.7,0.1,2.5,0.3
			c0.7,0.1,1.3,0.4,1.9,0.8c0.1,0,0.2,0.1,0.2,0.3c0,0.1,0,0.2-0.1,0.3l-0.6,0.9c-0.1,0.1-0.2,0.2-0.2,0.2c-0.1,0-0.2,0-0.3-0.1
			c-1-0.5-2.1-0.8-3.2-0.8c-1.3-0.1-2.5,0.4-3.5,1.3c-0.9,1.1-1.4,2.4-1.2,3.8c-0.1,1.4,0.4,2.8,1.3,3.9c0.9,0.9,2.2,1.3,3.5,1.3
			c1.2,0,2.3-0.2,3.3-0.8c0.1,0,0.2-0.1,0.3-0.1c0.1,0,0.2,0.1,0.2,0.2l0.6,1c0,0.1,0.1,0.1,0.1,0.2c0,0.1-0.1,0.2-0.2,0.2
			c-1.4,0.8-2.9,1.2-4.5,1.1C63.1,326.5,61.2,325.8,59.8,324.5z"/>
		<path class="st2" d="M71.8,325.9c-0.1-0.1-0.2-0.3-0.2-0.5v-11.9c-0.1-0.3,0.1-0.7,0.5-0.7c0.1,0,0.2,0,0.2,0h8.1
			c0.3-0.1,0.6,0.1,0.7,0.4c0,0.1,0,0.2,0,0.3v0.6c0,0.2,0,0.4-0.2,0.5c-0.1,0.1-0.3,0.2-0.5,0.2h-6.4v3.8h4.6c0.2,0,0.4,0,0.6,0.2
			c0.1,0.1,0.2,0.3,0.2,0.5v0.5c0,0.2,0,0.4-0.2,0.5c-0.2,0.1-0.4,0.2-0.6,0.2h-4.6v3.8h6.3c0.2,0,0.4,0,0.6,0.2
			c0.1,0.2,0.2,0.3,0.2,0.5v0.5c0,0.2,0,0.4-0.2,0.5c-0.2,0.1-0.4,0.2-0.6,0.2h-8.1C72.2,326.1,72,326,71.8,325.9z"/>
		<path class="st2" d="M91.9,324.5c-2.3-3-2.3-7.2,0-10.3c2.9-2.4,7.1-2.4,9.9,0c2.3,3,2.3,7.2,0,10.3
			C98.9,326.9,94.8,326.9,91.9,324.5z M100,323.2c0.8-1.1,1.2-2.5,1.1-3.8c0.1-1.3-0.3-2.7-1.1-3.8c-1.7-1.7-4.5-1.7-6.3,0
			c0,0,0,0,0,0c-0.8,1.1-1.2,2.4-1.1,3.8c-0.1,1.4,0.3,2.7,1.1,3.8C95.5,324.9,98.3,324.9,100,323.2C100,323.2,100,323.2,100,323.2
			L100,323.2z"/>
		<path class="st2" d="M105.6,325.9c-0.1-0.1-0.2-0.3-0.2-0.5v-11.9c-0.1-0.3,0.1-0.7,0.5-0.7c0.1,0,0.2,0,0.2,0h8.1
			c0.3-0.1,0.6,0.1,0.7,0.4c0,0.1,0,0.2,0,0.3v0.6c0,0.2,0,0.4-0.2,0.5c-0.1,0.1-0.3,0.2-0.5,0.2H108v3.8h4.6c0.2,0,0.4,0,0.6,0.2
			c0.1,0.2,0.2,0.3,0.2,0.5v0.5c0,0.2,0,0.4-0.2,0.5c-0.2,0.1-0.4,0.2-0.6,0.2H108v5c0,0.2,0,0.4-0.2,0.5c-0.2,0.1-0.4,0.2-0.6,0.2
			h-1C106,326.1,105.8,326,105.6,325.9z"/>
		<path class="st2" d="M127.1,325.9c-0.1-0.1-0.2-0.2-0.2-0.4l-3.1-12.4c0-0.1,0-0.1,0-0.2c0-0.2,0.1-0.3,0.4-0.3h1.6
			c0.1,0,0.3,0,0.4,0.1c0.1,0.1,0.1,0.2,0.2,0.3l2,8.6l2.4-7.6c0-0.1,0.1-0.2,0.2-0.3c0.1-0.1,0.2-0.1,0.4-0.1h0.9
			c0.1,0,0.3,0,0.4,0.1c0.1,0.1,0.2,0.2,0.2,0.3l2.4,7.6l1.9-8.6c0-0.1,0.1-0.2,0.2-0.3c0.1-0.1,0.3-0.1,0.4-0.1h1.6
			c0.2,0,0.4,0.1,0.4,0.3c0,0.1,0,0.1,0,0.2l-3.1,12.4c0,0.1-0.1,0.3-0.2,0.4c-0.1,0.1-0.3,0.1-0.4,0.1h-1c-0.1,0-0.3,0-0.4-0.1
			c-0.1-0.1-0.2-0.2-0.2-0.4l-2.4-7.8l-2.4,7.8c0,0.1-0.1,0.3-0.2,0.4c-0.1,0.1-0.3,0.1-0.4,0.1h-1.1
			C127.5,326.1,127.3,326,127.1,325.9z"/>
		<path class="st2" d="M139,325.8c0-0.1,0-0.2,0.1-0.2l5.2-12.2c0.1-0.2,0.1-0.3,0.2-0.4c0.1-0.1,0.3-0.1,0.4-0.1h1.1
			c0.1,0,0.3,0,0.4,0.1c0.1,0.1,0.2,0.2,0.2,0.4l5.2,12.2c0,0.1,0.1,0.2,0.1,0.2c0,0.2-0.1,0.3-0.3,0.3h-1.7c-0.1,0-0.2,0-0.4-0.1
			c-0.1-0.1-0.2-0.2-0.2-0.3l-1.1-2.7h-5.4l-1.1,2.7c0,0.1-0.1,0.2-0.2,0.3c-0.1,0.1-0.2,0.1-0.4,0.1h-1.7
			C139.1,326,139,326,139,325.8z M147.5,321.1l-2.1-5.1l-2.1,5.1L147.5,321.1z"/>
		<path class="st2" d="M153.9,325.9c-0.1-0.1-0.2-0.3-0.2-0.5v-11.9c-0.1-0.3,0.2-0.7,0.5-0.7c0.1,0,0.2,0,0.2,0h0.9
			c0.2,0,0.3,0,0.4,0.1c0.1,0.1,0.2,0.2,0.3,0.3l6.5,9v-8.6c-0.1-0.3,0.1-0.7,0.5-0.7c0.1,0,0.2,0,0.2,0h1c0.2,0,0.4,0,0.6,0.2
			c0.1,0.2,0.2,0.4,0.2,0.5v11.9c0,0.2,0,0.4-0.2,0.5c-0.2,0.1-0.4,0.2-0.6,0.2h-0.9c-0.1,0-0.2,0-0.4-0.1c-0.1-0.1-0.2-0.2-0.3-0.3
			l-6.4-8.9v8.6c0,0.2,0,0.4-0.2,0.5c-0.2,0.1-0.4,0.2-0.6,0.2h-1C154.3,326.1,154,326,153.9,325.9z"/>
		<path class="st2" d="M167.5,325.9c-0.1-0.1-0.2-0.3-0.2-0.5v-11.9c0-0.2,0-0.4,0.2-0.5c0.2-0.1,0.4-0.2,0.6-0.2h3.9
			c1.8-0.1,3.6,0.4,5.1,1.6c1.2,1.1,1.8,2.8,1.8,5.1c0,4.4-2.3,6.7-6.8,6.7h-3.9C167.9,326.1,167.7,326,167.5,325.9z M172.2,324.1
			c1.1,0.1,2.3-0.3,3.1-1.1c1.4-2.3,1.4-5.1,0-7.4c-0.9-0.8-2-1.1-3.1-1.1h-2.3v9.5H172.2z"/>
		<path class="st2" d="M181.9,326c-0.8-0.2-1.5-0.4-2.1-0.9c-0.2-0.1-0.2-0.2-0.2-0.3c0-0.1,0-0.2,0.1-0.2l0.6-1
			c0.1-0.1,0.1-0.2,0.2-0.2c0.1,0,0.2,0,0.2,0.1c0.5,0.3,1.1,0.5,1.7,0.7c0.6,0.2,1.3,0.3,1.9,0.3c0.7,0,1.4-0.1,2-0.4
			c0.5-0.3,0.7-0.9,0.7-1.4c0-0.3-0.1-0.7-0.2-0.9c-0.2-0.3-0.5-0.5-0.8-0.6c-0.3-0.2-0.9-0.4-1.6-0.7l-0.4-0.2
			c-0.7-0.3-1.4-0.6-2.1-1c-0.5-0.3-1-0.7-1.4-1.2c-0.4-0.5-0.6-1.2-0.6-1.9c0-1.1,0.5-2.1,1.4-2.8c1.1-0.7,2.3-1.1,3.6-1
			c0.8,0,1.6,0.1,2.3,0.3c0.6,0.1,1.2,0.4,1.7,0.8c0.2,0.1,0.2,0.2,0.2,0.3c0,0.1,0,0.2-0.1,0.2l-0.6,1c-0.1,0.1-0.1,0.2-0.2,0.2
			c-0.1,0-0.2-0.1-0.2-0.1c-0.9-0.6-2-0.8-3.1-0.8c-0.7,0-1.3,0.1-1.9,0.5c-0.4,0.3-0.7,0.9-0.6,1.4c0,0.4,0.1,0.7,0.3,1
			c0.2,0.3,0.5,0.5,0.8,0.6c0.3,0.2,0.9,0.4,1.6,0.7l0.5,0.2c0.8,0.3,1.5,0.6,2.2,1c0.5,0.3,0.9,0.7,1.2,1.2
			c0.3,0.6,0.5,1.2,0.4,1.8c0,1-0.4,2-1.3,2.6c-1.1,0.7-2.3,1.1-3.6,1C183.7,326.3,182.8,326.2,181.9,326z"/>
		<g>
			<defs>
				<path id="SVGID_1_" d="M52.8,44.3h128.5c13.6,0,24.7,11.1,24.7,24.7v191.6c0,13.6-11.1,24.7-24.7,24.7H52.8
					c-13.6,0-24.7-11.1-24.7-24.7V69C28.1,55.3,39.2,44.3,52.8,44.3z"/>
			</defs>
			<clipPath id="SVGID_2_">
				<use xlink:href="#SVGID_1_"  style="overflow:visible;"/>
			</clipPath>
			<g class="st3">
				<polygon class="st4" points="215.7,16.4 26.6,16.4 26.6,179.5 26.6,198.4 26.6,287.7 215.6,287.7 215.6,198.4 215.7,198.4 				
					"/>
				<path class="st5" d="M147.1,83.6h37.3c2.7,0,4.8-2.2,4.8-4.8l0,0c0-2.7-2.2-4.8-4.8-4.8h-37.3c-2.7,0-4.8,2.2-4.8,4.8l0,0
					C142.3,81.5,144.4,83.6,147.1,83.6z"/>
				<circle class="st5" cx="170.4" cy="71.7" r="12"/>
				<circle class="st5" cx="157.3" cy="75.1" r="8.5"/>
				<path class="st5" d="M72.2,89.9H48.9c-1.7,0-3-1.3-3-3l0,0c0-1.7,1.3-3,3-3h23.3c1.7,0,3,1.3,3,3l0,0
					C75.2,88.5,73.9,89.9,72.2,89.9z"/>
				<circle class="st5" cx="57.6" cy="82.4" r="7.5"/>
				<circle class="st5" cx="65.8" cy="84.5" r="5.3"/>
				<polygon class="st6" points="23.9,111.2 44.1,100.3 78.4,107.2 108.4,97.8 141.2,103.7 182.8,96.9 213.9,112.9 213.9,152.3 
					23.9,152.3 				"/>
				<polygon class="st5" points="23.9,121.6 70.6,101.9 108.1,117.3 144.8,96.6 184.8,112.9 213.9,100.3 213.9,152.3 23.9,152.3 
									"/>
				<polygon class="st7" points="213.9,152.3 23.9,152.3 23.9,230.7 23.9,239.7 23.9,282.7 213.8,282.7 213.8,239.7 213.9,239.7 
									"/>
				<path class="st8" d="M73.2,242h90.1c4.3,0,7.8,3.5,7.8,7.8v2c0,4.3-3.5,7.8-7.8,7.8H73.2c-4.3,0-7.8-3.5-7.8-7.8v-2
					C65.5,245.5,69,242,73.2,242z"/>
				
					<ellipse transform="matrix(0.7071 -0.7071 0.7071 0.7071 -172.9966 171.2419)" class="st9" cx="120.2" cy="294.4" rx="100.1" ry="100"/>
				<polygon class="st10" points="78.7,243.3 50.2,288.6 215.6,288.6 161.9,244.3 				"/>
				<path class="st11" d="M92.2,148c-2.6-1.3-5.7-0.2-7,2.4c0,0,0,0,0,0c-1.6,3.3-7.1,12.2-13.3,14.2v10.7c0.7-0.1,1.3-0.2,2-0.4
					c12.3-3.2,19.8-18.3,20.7-20C95.8,152.3,94.7,149.3,92.2,148z"/>
				<path class="st11" d="M138.4,194.2v-29.6c0-14.1-11.5-25.5-25.6-25.6h-3.1c-14.1,0-25.5,11.5-25.6,25.6v38.8
					c-0.5,15.5-2.8,40.7-12.2,56.1c0,0,4.1,6.5,12.3,3.2c0,0,11.3-3.8,16.9,1.9c0,0,9.2,3.3,17.4-2.4c0,0,5.6-5.4,15.8,1.6
					c0,0,9.6,3.1,13.9-4.3C148.2,259.5,138.4,223.8,138.4,194.2z"/>
				<path class="st12" d="M84.3,191.8h54.1c1.7,0,3.2,1.4,3.2,3.2v0.4c0,1.7-1.4,3.2-3.2,3.2H84.3c-1.7,0-3.2-1.4-3.2-3.2V195
					C81.1,193.2,82.5,191.8,84.3,191.8z"/>
				<path class="st12" d="M132.3,136.5c0,2.3-1.8,4.1-4.1,4.1c-2.3,0-4.1-1.8-4.1-4.1c0-2.3,1.8-4.1,4.1-4.1
					C130.5,132.4,132.3,134.3,132.3,136.5L132.3,136.5z"/>
				<path class="st13" d="M130.7,136.5c0,1.4-1.1,2.5-2.5,2.5c-1.4,0-2.5-1.1-2.5-2.5c0-1.4,1.1-2.5,2.5-2.5
					S130.7,135.1,130.7,136.5C130.7,136.5,130.7,136.5,130.7,136.5z"/>
				<path class="st12" d="M98,136.5c0,2.3-1.8,4.1-4.1,4.1s-4.1-1.8-4.1-4.1c0-2.3,1.8-4.1,4.1-4.1S98,134.3,98,136.5L98,136.5z"/>
				<path class="st13" d="M96.4,136.5c0,1.4-1.1,2.5-2.5,2.5c-1.4,0-2.5-1.1-2.5-2.5c0-1.4,1.1-2.5,2.5-2.5
					C95.3,134,96.4,135.1,96.4,136.5C96.4,136.5,96.4,136.5,96.4,136.5z"/>
				<rect x="98.2" y="130.8" class="st12" width="25.8" height="11.4"/>
				<path class="st14" d="M97.6,143.7h7.4c4.3,0,7.8,3.5,7.8,7.8v44.2c0,4.3-3.5,7.8-7.8,7.8h-7.4c-4.3,0-7.8-3.5-7.8-7.8v-44.2
					C89.8,147.2,93.3,143.7,97.6,143.7z"/>
				<path class="st12" d="M126.3,123.5v21.7c0,8.4-6.8,15.2-15.2,15.2l0,0c-8.4,0-15.2-6.8-15.2-15.2v-21.7"/>
				<path class="st11" d="M104.8,130.9h0.2c0.8,0,1.4,0.6,1.4,1.4v2.8c0,0.8-0.6,1.4-1.4,1.4h-0.2c-0.8,0-1.4-0.6-1.4-1.4v-2.8
					C103.3,131.5,104,130.9,104.8,130.9z"/>
				<path class="st11" d="M117.2,130.9h0.2c0.8,0,1.4,0.6,1.4,1.4v2.8c0,0.8-0.6,1.4-1.4,1.4h-0.2c-0.8,0-1.4-0.6-1.4-1.4v-2.8
					C115.8,131.5,116.5,130.9,117.2,130.9z"/>
				<polygon class="st15" points="98.3,151.5 95.1,146.7 95.1,123.3 98.3,123.3 				"/>
				<polygon class="st15" points="127,147.1 123.4,151.5 123.4,123.3 127,123.3 				"/>
				<path class="st15" d="M95.2,137.7v8.7c0,8.8,7.1,16,15.9,16l0,0c8.8,0,15.9-7.2,15.9-16v-8.7L95.2,137.7z"/>
				<path class="st12" d="M115.5,140.8H109h-1.9c-0.6,0-1,0.4-1,1c0,0.1,0,0.1,0,0.2c0.2,1,0.7,1.8,1.4,2.5c0-0.1,0-0.2,0-0.2
					c0,0.1,0,0.2,0,0.2c2,2.1,5.2,2.2,7.3,0.3c0-0.1,0-0.2,0-0.2c0,0.1,0,0.2,0,0.2c0.4-0.4,0.8-0.8,1.1-1.3
					c0.3-0.4,0.5-0.9,0.6-1.4c0.2-0.5-0.1-1.1-0.6-1.3C115.7,140.8,115.6,140.8,115.5,140.8z M114.8,143.8L114.8,143.8z
					 M107.4,144.2L107.4,144.2z M114.9,144.5c0-0.1,0-0.1,0-0.2C114.9,144.4,114.9,144.4,114.9,144.5L114.9,144.5z M114.9,144.1
					L114.9,144.1z"/>
				<path class="st13" d="M113.7,136.5c-0.1-0.4-0.3-0.8-0.6-1.2l0,0c-0.5-0.5-1.1-0.7-1.8-0.8c-0.6,0-1.2,0.2-1.6,0.6v0.1v-0.1
					c-0.2,0.2-0.4,0.4-0.5,0.6c-0.1,0.2-0.2,0.4-0.3,0.6c-0.1,0.3,0.1,0.5,0.3,0.6c0,0,0.1,0,0.1,0h3h0.9
					C113.5,137.1,113.7,136.9,113.7,136.5C113.7,136.6,113.7,136.6,113.7,136.5z M109.6,135.4C109.6,135.4,109.6,135.4,109.6,135.4
					C109.6,135.5,109.6,135.4,109.6,135.4z M109.6,135.7C109.6,135.7,109.6,135.7,109.6,135.7L109.6,135.7L109.6,135.7z
					 M109.6,135.5c0,0,0,0.1,0,0.1S109.6,135.5,109.6,135.5L109.6,135.5z M109.7,135.8L109.7,135.8z M113,135.6c0,0,0-0.1,0-0.1
					C113,135.5,113,135.5,113,135.6L113,135.6z"/>
				<path class="st11" d="M152.9,174.3c-1.5,0-3-0.2-4.5-0.6c-12.3-3.2-19.9-18.2-20.7-20c-1.3-2.5-0.4-5.7,2.2-7s5.7-0.4,7,2.2
					c0.1,0.1,0.1,0.2,0.2,0.4c1.7,3.4,7.4,12.8,13.9,14.4c2.4,0.6,4.7,0.1,7.2-1.7c2.3-1.8,5.5-1.4,7.3,0.9c1.8,2.3,1.4,5.5-0.9,7.3
					c-0.1,0.1-0.3,0.2-0.5,0.3C160.9,172.9,157,174.3,152.9,174.3z"/>
				<path class="st16" d="M158.3,251.3h-0.4c-2,0-3.6-1.6-3.6-3.6V131.8c0-2,1.6-3.6,3.6-3.6h0.4c2,0,3.6,1.6,3.6,3.6v115.9
					C161.9,249.7,160.3,251.3,158.3,251.3z"/>
				<path class="st17" d="M157,78.2h-0.4c4.8,4.4,5.1,11.9,0.7,16.7c-4.4,4.8-11.9,5.1-16.7,0.7c-0.2-0.1-0.3-0.3-0.4-0.4
					c-0.2,1.5-0.4,3-0.4,4.5c0,11.8,7.7,21.4,17.2,21.4s17.2-9.6,17.2-21.4S166.5,78.2,157,78.2z"/>
				<path class="st12" d="M163.2,99.5v0.2c0,5.3-4.3,9.5-9.5,9.5c-0.8,0-1.6-0.1-2.4-0.3c0.6,4.5,3.7,7.9,7.5,7.9
					c4.2,0,7.6-4.2,7.6-9.5C166.5,104.3,165.3,101.5,163.2,99.5z"/>
				<path class="st12" d="M163.1,158.6h0.4c1.7,0,3,1.4,3,3v9.3c0,1.7-1.4,3-3,3h-0.4c-1.7,0-3-1.4-3-3v-9.3
					C160.1,160,161.5,158.6,163.1,158.6z"/>
				<path class="st12" d="M154.2,161.5h1.9c1.1,0,1.9,0.9,1.9,1.9v0.2c0,1.1-0.9,1.9-1.9,1.9h-1.9c-1.1,0-1.9-0.9-1.9-1.9v-0.2
					C152.3,162.3,153.2,161.5,154.2,161.5z"/>
				<path class="st12" d="M71.3,164.8c-2.4,0.6-4.7,0.1-7.2-1.7c-2.4-1.5-5.7-0.8-7.2,1.6c-1.4,2.3-0.9,5.2,1.2,6.9
					c3.3,2.5,7.3,3.8,11.4,3.9c0.8,0,1.7-0.1,2.5-0.2v-10.7C71.7,164.7,71.5,164.8,71.3,164.8z"/>
				<path class="st18" d="M61.3,149.9c-1.4,0-2.5-1.1-2.5-2.5s1.1-2.5,2.5-2.5l0,0h12.2c-1.3-2.9-3.3-5.4-5.8-7.3
					c-0.4,1.2-1.6,2-2.9,2H47.7c-1.5,0-2.8-1.2-3-2.7c-3.9,2.7-6.7,6.7-7.9,11.2c0.3-0.1,0.7-0.1,1-0.1h7.9c2.3,0,4.2,1.9,4.2,4.2
					l0,0c0,0.3,0,0.6-0.1,0.9h1.3c2.6,0,4.7,2.1,4.7,4.7c0,2.6-2.1,4.7-4.7,4.7c0,0,0,0,0,0H38.5c2.5,4.7,6.8,8.1,11.9,9.6
					c-0.3-0.4-0.5-1-0.5-1.6c0-1.4,1.2-2.6,2.6-2.6h11.3c1.1,0,2.1,0.7,2.5,1.8c5.7-3.6,9.1-9.8,9.1-16.6c0-1.1-0.1-2.2-0.3-3.2
					c-0.2,0-0.3,0-0.5,0.1H61.3z M71,163.4h-3.8c-0.8-0.1-1.4-0.8-1.3-1.6c0.1-0.7,0.6-1.3,1.3-1.3H71c0.8,0.1,1.4,0.8,1.3,1.6
					C72.3,162.8,71.7,163.4,71,163.4z"/>
				<path class="st19" d="M55.7,157.8c0-2.6-2.1-4.7-4.7-4.7h-1.3c-0.4,1.9-2.1,3.3-4.1,3.3h-7.9c-0.5,0-1-0.1-1.4-0.3
					c0.3,2.2,1.1,4.3,2.1,6.3H51C53.6,162.4,55.7,160.4,55.7,157.8z"/>
				<path class="st19" d="M36.1,153.6c0.7-0.3,1.4-0.5,2.1-0.5h11.5c0.1-0.3,0.1-0.6,0.1-0.9l0,0c0-2.3-1.9-4.2-4.2-4.2h-7.9
					c-0.3,0-0.7,0-1,0.1c-0.4,1.6-0.6,3.3-0.6,5C36.1,153.3,36.1,153.4,36.1,153.6z"/>
				<path class="st19" d="M36.1,153.6c0,0.9,0.1,1.7,0.2,2.6c0.5,0.2,0.9,0.3,1.4,0.3h7.9c2,0,3.7-1.4,4.1-3.3H38.2
					C37.5,153.1,36.8,153.3,36.1,153.6z"/>
				<path class="st19" d="M61.3,145c-1.4,0-2.5,1.1-2.5,2.5s1.1,2.5,2.5,2.5l0,0h13.3c0.2,0,0.3,0,0.5-0.1c-0.3-1.7-0.8-3.4-1.5-4.9
					H61.3z"/>
				<path class="st19" d="M47.7,139.6h17.2c1.3,0,2.4-0.8,2.9-2c-6.7-5.2-16.1-5.5-23.1-0.7C44.8,138.4,46.1,139.6,47.7,139.6z"/>
				<path class="st19" d="M71,160.5h-3.8c-0.8,0.1-1.4,0.8-1.3,1.6c0.1,0.7,0.6,1.3,1.3,1.3H71c0.8-0.1,1.4-0.8,1.3-1.6
					C72.3,161.2,71.7,160.6,71,160.5z"/>
				<path class="st19" d="M63.8,167.8H52.5c-1.4,0-2.6,1.2-2.6,2.6c0,0.6,0.2,1.1,0.5,1.6c5.4,1.5,11.2,0.7,15.9-2.3
					C65.9,168.6,64.9,167.9,63.8,167.8z"/>
				<path class="st15" d="M95.9,109.4h28.5c4.1,0,7.5,3.3,7.5,7.5v0.9c0,4.1-3.3,7.5-7.5,7.5H95.9c-4.1,0-7.5-3.3-7.5-7.5v-0.9
					C88.4,112.7,91.8,109.4,95.9,109.4z"/>
				<circle class="st15" cx="96.7" cy="113.7" r="11.7"/>
				<path class="st15" d="M120.3,131.2l-4.3-2.5c-0.4-0.2-0.5-0.7-0.3-1.1c0,0,0,0,0,0l0,0c0.2-0.4,0.7-0.5,1.1-0.3c0,0,0,0,0,0
					l4.4,2.5c0.4,0.2,0.5,0.7,0.3,1.1l0,0C121.3,131.3,120.8,131.4,120.3,131.2C120.4,131.2,120.4,131.2,120.3,131.2z"/>
				<path class="st15" d="M102.1,131.2l4.4-2.5c0.4-0.2,0.5-0.7,0.3-1.1l0,0c-0.2-0.4-0.7-0.5-1.1-0.3l-4.4,2.5
					c-0.4,0.2-0.5,0.7-0.3,1.1l0,0C101.2,131.3,101.7,131.4,102.1,131.2C102.1,131.2,102.1,131.2,102.1,131.2z"/>
				<path class="st20" d="M100.4,188c0,2.9-2.4,5.3-5.3,5.3s-5.3-2.4-5.3-5.3s2.4-5.3,5.3-5.3c0,0,0,0,0,0
					C98,182.7,100.4,185.1,100.4,188z"/>
				<path class="st20" d="M106.3,185.3c0,2.9-2.4,5.3-5.3,5.3s-5.3-2.4-5.3-5.3s2.4-5.3,5.3-5.3c0,0,0,0,0,0
					C103.9,180,106.3,182.4,106.3,185.3z"/>
				<path class="st20" d="M113.1,187.5c0,2.9-2.4,5.3-5.3,5.3s-5.3-2.4-5.3-5.3c0-2.9,2.4-5.3,5.3-5.3
					C110.7,182.2,113.1,184.6,113.1,187.5L113.1,187.5z"/>
				<path class="st20" d="M110.2,203.2c1.8-1.8,4.2-0.8,7,0.2s5.3,1.8,5.5,4.3c-0.8,0.8-1.7,1.3-2.8,1.6c0.2-0.1,0.4-0.3,0.6-0.5
					c-0.2-1.9-2-2.5-4.1-3.3s-3.9-1.4-5.2-0.1c0,0.2,0.1,0.5,0.1,0.7C110.7,205.3,110.3,204.3,110.2,203.2z"/>
				<path class="st21" d="M116.4,205.6c2.1,0.7,3.9,1.4,4.1,3.3c-0.2,0.2-0.4,0.3-0.6,0.5c-3.2,0.9-6.7-0.3-8.6-3.1
					c-0.1-0.2-0.1-0.5-0.1-0.7C112.5,204.2,114.3,204.9,116.4,205.6z"/>
				<path class="st20" d="M94.1,203.2c-1.8-1.8-4.2-0.8-7,0.2s-5.3,1.8-5.5,4.3c0.8,0.8,1.7,1.3,2.8,1.6c-0.2-0.1-0.4-0.3-0.6-0.5
					c0.2-1.9,2-2.5,4.1-3.3s3.9-1.4,5.2-0.1c0,0.2-0.1,0.5-0.1,0.7C93.5,205.3,93.9,204.3,94.1,203.2z"/>
				<path class="st21" d="M87.8,205.6c-2.1,0.7-3.9,1.4-4.1,3.3c0.2,0.2,0.4,0.3,0.6,0.5c3.2,0.9,6.7-0.3,8.6-3.1
					c0.1-0.2,0.1-0.5,0.1-0.7C91.7,204.2,89.9,204.9,87.8,205.6z"/>
				<path class="st22" d="M106.3,220.2l8.1-18.5c1.1-2.4,0-5.2-2.4-6.3c-0.6-0.3-1.3-0.4-2-0.4H93.8c-2.6,0-4.8,2.1-4.8,4.8
					c0,0.7,0.1,1.3,0.4,1.9l8.1,18.5c1,2.4,3.8,3.5,6.3,2.5C104.9,222.2,105.8,221.3,106.3,220.2z"/>
				
					<ellipse transform="matrix(0.2297 -0.9733 0.9733 0.2297 -121.0818 240.7615)" class="st14" cx="91.6" cy="196.9" rx="7.6" ry="7.6"/>
				<circle class="st14" cx="112" cy="196.9" r="7.6"/>
				<path class="st14" d="M108.4,195c0,3.6-2.9,6.5-6.5,6.5c-3.6,0-6.5-2.9-6.5-6.5c0-3.6,2.9-6.5,6.5-6.5S108.4,191.4,108.4,195
					L108.4,195z"/>
				<path class="st17" d="M101.2,216.7h2c0.8,0,1.4,0.6,1.4,1.4v0.2c0,0.8-0.6,1.4-1.4,1.4h-2c-0.8,0-1.4-0.6-1.4-1.4v-0.2
					C99.8,217.3,100.5,216.7,101.2,216.7z"/>
				<path class="st11" d="M95.5,210.3c-0.2,0-0.4-0.1-0.5-0.2c-0.3-0.3-0.3-0.7,0-1l3.7-3.7c0.3-0.3,0.7-0.2,1,0.1
					c0.2,0.3,0.2,0.6,0,0.9l-3.7,3.7C95.9,210.3,95.7,210.3,95.5,210.3z"/>
				<path class="st11" d="M99.2,210.3c-0.2,0-0.4-0.1-0.5-0.2l-3.7-3.7c-0.3-0.3-0.3-0.7,0-1c0.3-0.3,0.7-0.3,1,0l3.7,3.7
					c0.3,0.3,0.3,0.7,0,1C99.6,210.3,99.4,210.3,99.2,210.3z"/>
				<path class="st11" d="M104.3,210.3c-0.2,0-0.4-0.1-0.5-0.2c-0.3-0.3-0.3-0.7,0-1l3.7-3.7c0.3-0.3,0.7-0.2,1,0.1
					c0.2,0.3,0.2,0.6,0,0.9l-3.7,3.7C104.6,210.2,104.5,210.3,104.3,210.3z"/>
				<path class="st11" d="M108,210.3c-0.2,0-0.4-0.1-0.5-0.2l-3.7-3.7c-0.3-0.3-0.3-0.7,0-1c0.3-0.3,0.7-0.3,1,0l3.7,3.7
					c0.3,0.3,0.3,0.7,0,1C108.4,210.2,108.2,210.3,108,210.3z"/>
				<path class="st14" d="M100.4,189.7c0,2.9-2.4,5.3-5.3,5.3s-5.3-2.4-5.3-5.3c0-2.9,2.4-5.3,5.3-5.3
					C98,184.4,100.4,186.8,100.4,189.7L100.4,189.7z"/>
				<path class="st14" d="M106.3,187.1c0,2.9-2.4,5.3-5.3,5.3s-5.3-2.4-5.3-5.3c0-2.9,2.4-5.3,5.3-5.3
					C104,181.7,106.3,184.1,106.3,187.1L106.3,187.1z"/>
				<path class="st14" d="M113.1,189.3c0,2.9-2.4,5.3-5.3,5.3s-5.3-2.4-5.3-5.3c0-2.9,2.4-5.3,5.3-5.3
					C110.7,184,113.1,186.4,113.1,189.3L113.1,189.3z"/>
				<path class="st12" d="M117.8,198.8c-1.6-2.5-5-3.3-7.6-1.8c-0.9,0.5-1.6,1.2-2.1,2.1c-0.2-2.8,1.3-5.5,3.8-6.9
					c3.7-2.1,8.3-0.9,10.6,2.6c2.1,3.4,1,7.8-2.3,9.9c-0.1,0.1-0.2,0.1-0.4,0.2c-1.2,0.6-2.5,1-3.8,1
					C118.4,204.5,119.3,201.3,117.8,198.8C117.8,198.8,117.8,198.8,117.8,198.8z"/>
				<path class="st14" d="M111.3,198.2c0,1-0.8,1.8-1.8,1.8s-1.8-0.8-1.8-1.8s0.8-1.8,1.8-1.8c0,0,0,0,0,0
					C110.5,196.4,111.3,197.2,111.3,198.2z"/>
				<path class="st14" d="M111.9,195.6c0,1.3-1,2.3-2.3,2.3s-2.3-1-2.3-2.3c0-1.3,1-2.3,2.3-2.3c0,0,0,0,0,0
					C110.8,193.3,111.9,194.3,111.9,195.6z"/>
				<path class="st14" d="M113.5,192.7c0,1.4-1.1,2.5-2.5,2.5c-1.4,0-2.5-1.1-2.5-2.5c0-1.4,1.1-2.5,2.5-2.5
					C112.4,190.2,113.5,191.3,113.5,192.7C113.5,192.7,113.5,192.7,113.5,192.7z"/>
				<path class="st14" d="M110.6,196c0-1.2,1-2.2,2.1-2.2s2.2,1,2.2,2.1c0,1.2-1,2.2-2.1,2.2c0,0,0,0,0,0
					C111.5,198.1,110.6,197.2,110.6,196z"/>
				<path class="st12" d="M84.8,198.8c1.6-2.5,5-3.3,7.6-1.8c0.9,0.5,1.6,1.2,2.1,2.1c0.2-2.8-1.3-5.5-3.8-6.9
					c-3.7-2.1-8.3-1-10.6,2.6c-2.1,3.4-1,7.8,2.3,9.9c0.1,0.1,0.2,0.1,0.4,0.2c1.2,0.6,2.5,1,3.8,1
					C84.2,204.4,83.4,201.3,84.8,198.8C84.8,198.8,84.8,198.8,84.8,198.8z"/>
				<path class="st14" d="M92.7,198.2c0,1,0.8,1.8,1.7,1.8c1,0,1.8-0.8,1.8-1.7c0-1-0.8-1.8-1.7-1.8c0,0,0,0,0,0
					C93.5,196.4,92.7,197.2,92.7,198.2C92.7,198.2,92.7,198.2,92.7,198.2z"/>
				<path class="st14" d="M92.1,195.6c0,1.3,1,2.3,2.3,2.3c1.3,0,2.3-1,2.3-2.3c0-1.3-1-2.3-2.3-2.3c0,0,0,0,0,0
					C93.2,193.3,92.1,194.3,92.1,195.6z"/>
				<circle class="st14" cx="93" cy="192.7" r="2.5"/>
				<path class="st14" d="M93.4,196c0-1.2-1-2.1-2.1-2.1s-2.1,1-2.1,2.1s1,2.1,2.1,2.1l0,0C92.5,198.1,93.4,197.2,93.4,196z"/>
				<path class="st12" d="M121.2,113.4c-3.8,0-7-2.6-8.9-6.4c-0.4-0.8-1.3-1.2-2.2-0.8c-0.3,0.2-0.6,0.4-0.8,0.8
					c-1.8,3.8-5.1,6.4-8.9,6.4c-2.2,0-4.4-0.9-6-2.4c-0.3-0.3-0.8-0.2-1.1,0.1c-0.1,0.1-0.2,0.3-0.2,0.5v5.2c0,2.8,1.8,5.1,4,5.1
					h27.6c2.2,0,4-2.3,4-5.1v-5.6c0-0.4-0.3-0.8-0.8-0.8c-0.2,0-0.4,0.1-0.6,0.2C125.8,112.3,123.6,113.3,121.2,113.4z"/>
				<path class="st13" d="M94,121.3h33.6c1.1,0,2,0.9,2,2v0.2c0,1.1-0.9,2-2,2H94c-1.1,0-2-0.9-2-2v-0.2
					C92,122.2,92.9,121.3,94,121.3z"/>
				<path class="st13" d="M113.7,143.2c-0.1,0-0.1,0-0.2,0c-1.4-0.8-3.1-0.8-4.5,0c-0.1,0.1-0.3,0.1-0.4-0.1c0,0,0,0,0,0
					c-0.1-0.2,0-0.4,0.1-0.4c1.6-1,3.6-1,5.2,0c0.1,0.1,0.2,0.3,0.1,0.5C113.9,143.2,113.8,143.2,113.7,143.2L113.7,143.2z"/>
				<path class="st13" d="M111.8,143.3L111.8,143.3c-0.3-0.2-0.6-0.2-0.9,0c-0.1,0.1-0.2,0.1-0.2,0c-0.1-0.1-0.1-0.2,0-0.2
					c0,0,0,0,0,0c0.4-0.2,0.8-0.2,1.2,0C111.9,143.2,111.9,143.3,111.8,143.3C111.8,143.3,111.8,143.3,111.8,143.3z"/>
			</g>
		</g>
	</g>
</g>
</svg>
