<?xml version="1.0" encoding="utf-8"?>
<!-- Generator: Adobe Illustrator 25.2.3, SVG Export Plug-In . SVG Version: 6.00 Build 0)  -->
<svg version="1.1" id="Layer_1" xmlns="http://www.w3.org/2000/svg" xmlns:xlink="http://www.w3.org/1999/xlink" x="0px" y="0px"
	 viewBox="0 0 234.2 379.8" style="enable-background:new 0 0 234.2 379.8;" xml:space="preserve">
<style type="text/css">
	.st0{fill:#F4B155;}
	.st1{fill:#FFF0CC;}
	.st2{fill:#231F20;}
	.st3{clip-path:url(#SVGID_2_);}
	.st4{fill:#A4F6FF;}
	.st5{fill:#3F272D;}
	.st6{fill:#54323A;}
	.st7{fill:#E6E7E8;}
	.st8{fill:#FFFFFF;}
	.st9{fill:none;}
	.st10{fill:#E6705F;}
	.st11{fill:#878286;}
	.st12{fill:#BCB7BB;}
	.st13{fill:#EE915B;}
	.st14{fill:#DD4F65;}
	.st15{fill:#A5A0A4;}
	.st16{fill:#352D3D;}
	.st17{fill:#754854;}
	.st18{fill:#66424D;}
	.st19{fill:#FFD150;}
	.st20{fill:#F5B155;}
	.st21{fill:#F4B055;}
	.st22{fill:#47372E;}
	.st23{fill:#E4705E;}
	.st24{fill:#AA334A;}
	.st25{fill:#4A355B;}
	.st26{clip-path:url(#SVGID_4_);}
	.st27{fill:#55A599;}
	.st28{fill:#48C2CA;}
	.st29{fill:#FFD351;}
	.st30{fill:#F1F2F2;}
</style>
<g id="Layer_2_1_">
	<g id="Layer_1-2">
		<path class="st0" d="M234.2,14.4v351c0,7.9-6.7,14.4-14.9,14.4H14.9c-8.2,0-14.9-6.4-14.9-14.4v-351C0,6.5,6.7,0,14.9,0h204.3
			C227.5,0,234.2,6.5,234.2,14.4z M221.6,357.1V22.8c0-5.9-4.8-10.7-10.8-10.8H23.3c-5.9,0-10.7,4.8-10.8,10.8v334.3
			c0,5.9,4.8,10.8,10.8,10.8h187.5C216.8,367.8,221.6,363,221.6,357.1z"/>
		<path class="st1" d="M23.3,12h187.5c6,0,10.8,4.8,10.8,10.8v334.3c0,6-4.8,10.8-10.8,10.8H23.3c-6,0-10.8-4.8-10.8-10.8V22.8
			C12.6,16.8,17.4,12,23.3,12z"/>
		<path class="st2" d="M49.3,325.9c-0.1-0.1-0.2-0.3-0.2-0.5v-9.9H46c-0.2,0-0.4,0-0.5-0.1c-0.1-0.1-0.1-0.3-0.1-0.5v-0.5
			c0-0.2,0-0.4,0.1-0.5c0.1-0.1,0.3-0.2,0.5-0.1h8.7c0.2,0,0.4,0,0.5,0.1c0.1,0.1,0.2,0.3,0.2,0.5v0.5c0,0.2,0,0.4-0.2,0.5
			c-0.1,0.1-0.3,0.2-0.5,0.1h-3.2v9.9c0,0.2,0,0.3-0.2,0.5c-0.1,0.1-0.3,0.2-0.5,0.2h-0.9C49.6,326.1,49.4,326,49.3,325.9z"/>
		<path class="st2" d="M59.1,326c-0.1-0.1-0.2-0.2-0.2-0.4l-2.9-11.4c0-0.1,0-0.1,0-0.2c0-0.2,0.1-0.3,0.3-0.3h1.5
			c0.1,0,0.3,0,0.4,0.1c0.1,0.1,0.1,0.2,0.2,0.3l1.8,8l2.2-7c0-0.1,0.1-0.2,0.2-0.3c0.1-0.1,0.2-0.1,0.3-0.1h0.8
			c0.1,0,0.2,0,0.3,0.1c0.1,0.1,0.1,0.2,0.2,0.3l2.2,7l1.8-8c0-0.1,0.1-0.2,0.2-0.3c0.1-0.1,0.2-0.1,0.4-0.1h1.5
			c0.2,0,0.3,0.1,0.3,0.3c0,0.1,0,0.1,0,0.2l-2.9,11.4c0,0.1-0.1,0.3-0.2,0.4c-0.1,0.1-0.3,0.1-0.4,0.1h-1c-0.1,0-0.3,0-0.4-0.1
			c-0.1-0.1-0.2-0.2-0.2-0.4l-2.2-7.2l-2.2,7.2c0,0.1-0.1,0.3-0.2,0.4c-0.1,0.1-0.3,0.1-0.4,0.1h-1C59.4,326.1,59.2,326.1,59.1,326z
			"/>
		<path class="st2" d="M72.4,324.6c-2.1-2.8-2.1-6.7,0-9.5c1.2-1.2,2.9-1.8,4.6-1.7c1.7-0.1,3.4,0.5,4.6,1.7c2.1,2.8,2.1,6.7,0,9.5
			c-1.2,1.2-2.9,1.8-4.6,1.7C75.3,326.4,73.6,325.8,72.4,324.6z M79.9,323.4c1.3-2.1,1.3-4.9,0-7c-1.6-1.6-4.2-1.6-5.8,0
			c0,0,0,0,0,0c-1.3,2.1-1.3,4.9,0,7C75.7,325,78.2,325,79.9,323.4C79.9,323.4,79.9,323.4,79.9,323.4z"/>
		<path class="st2" d="M93.2,324.6c-2.1-2.8-2.1-6.7,0-9.5c2.6-2.3,6.5-2.3,9.2,0c2.1,2.8,2.1,6.7,0,9.5
			C99.8,326.9,95.9,326.9,93.2,324.6z M100.7,323.4c1.3-2.1,1.3-4.9,0-7c-1.6-1.6-4.2-1.6-5.8,0c0,0,0,0,0,0c-1.3,2.1-1.3,4.9,0,7
			C96.5,325,99.1,325,100.7,323.4C100.7,323.4,100.7,323.4,100.7,323.4z"/>
		<path class="st2" d="M105.9,325.9c-0.1-0.1-0.2-0.3-0.2-0.5v-11c0-0.2,0-0.4,0.2-0.5c0.1-0.1,0.3-0.2,0.5-0.2h7.5
			c0.2,0,0.4,0,0.5,0.1c0.1,0.1,0.1,0.3,0.1,0.5v0.5c0,0.2,0,0.3-0.1,0.5c-0.1,0.1-0.3,0.2-0.5,0.2h-5.9v3.5h4.3
			c0.2,0,0.4,0,0.5,0.1c0.1,0.1,0.2,0.3,0.2,0.5v0.5c0,0.2,0,0.4-0.2,0.5c-0.1,0.1-0.3,0.2-0.5,0.1h-4.3v4.6c0,0.2,0,0.3-0.2,0.5
			c-0.2,0.1-0.3,0.2-0.5,0.2h-1C106.2,326,106.1,326,105.9,325.9z"/>
		<path class="st2" d="M126.1,325.9c-0.1-0.1-0.2-0.2-0.2-0.4l-3.1-12.4c0-0.1,0-0.1,0-0.2c0-0.2,0.1-0.3,0.4-0.3h1.6
			c0.1,0,0.3,0,0.4,0.1c0.1,0.1,0.1,0.2,0.2,0.3l2,8.6l2.4-7.6c0-0.1,0.1-0.2,0.2-0.3c0.1-0.1,0.2-0.1,0.4-0.1h0.9
			c0.1,0,0.3,0,0.4,0.1c0.1,0.1,0.2,0.2,0.2,0.3l2.4,7.6l1.9-8.6c0-0.1,0.1-0.2,0.2-0.3c0.1-0.1,0.3-0.1,0.4-0.1h1.6
			c0.2,0,0.4,0.1,0.4,0.3c0,0.1,0,0.1,0,0.2l-3.1,12.4c0,0.1-0.1,0.3-0.2,0.4c-0.1,0.1-0.3,0.1-0.4,0.1h-1.1c-0.1,0-0.3,0-0.4-0.1
			c-0.1-0.1-0.2-0.2-0.2-0.4l-2.4-7.8l-2.4,7.8c0,0.1-0.1,0.3-0.2,0.4c-0.1,0.1-0.3,0.1-0.4,0.1h-1.1
			C126.5,326.1,126.3,326,126.1,325.9z"/>
		<path class="st2" d="M138,325.8c0-0.1,0-0.2,0.1-0.2l5.2-12.2c0.1-0.2,0.1-0.3,0.2-0.4c0.1-0.1,0.3-0.1,0.4-0.1h1.1
			c0.1,0,0.3,0,0.4,0.1c0.1,0.1,0.2,0.2,0.2,0.4l5.2,12.2c0,0.1,0.1,0.2,0.1,0.2c0,0.2-0.1,0.3-0.3,0.3h-1.7c-0.1,0-0.3,0-0.4-0.1
			c-0.1-0.1-0.2-0.2-0.2-0.3l-1.2-2.7h-5.4l-1.1,2.7c0,0.1-0.1,0.2-0.2,0.3c-0.1,0.1-0.2,0.1-0.4,0.1h-1.7
			C138.1,326.1,138,325.9,138,325.8z M146.5,321.1l-2.1-5.1l-2.1,5.1L146.5,321.1z"/>
		<path class="st2" d="M152.9,325.9c-0.1-0.1-0.2-0.3-0.2-0.5v-11.9c0-0.2,0-0.4,0.2-0.5c0.2-0.1,0.4-0.2,0.6-0.2h0.9
			c0.1,0,0.3,0,0.4,0.1c0.1,0.1,0.2,0.2,0.3,0.3l6.5,9v-8.6c-0.1-0.3,0.1-0.7,0.5-0.7c0.1,0,0.2,0,0.2,0h1c0.2,0,0.4,0,0.6,0.2
			c0.1,0.2,0.2,0.3,0.2,0.5v11.9c0.1,0.3-0.2,0.7-0.5,0.7c-0.1,0-0.1,0-0.2,0h-0.9c-0.3,0-0.6-0.1-0.7-0.4l-6.5-8.9v8.6
			c0,0.2,0,0.4-0.2,0.5c-0.2,0.1-0.4,0.2-0.6,0.2h-1C153.2,326.1,153,326,152.9,325.9z"/>
		<path class="st2" d="M166.5,325.9c-0.1-0.1-0.2-0.3-0.2-0.5v-11.9c0-0.2,0-0.4,0.2-0.5c0.2-0.1,0.4-0.2,0.6-0.2h3.9
			c1.8-0.1,3.6,0.4,5.1,1.6c1.2,1.1,1.8,2.8,1.8,5.1c0,4.4-2.3,6.7-6.8,6.7h-3.9C166.9,326.1,166.7,326,166.5,325.9z M171.1,324.1
			c1.1,0.1,2.3-0.3,3.1-1.1c1.4-2.3,1.4-5.1,0-7.4c-0.9-0.8-2-1.1-3.1-1.1h-2.3v9.5H171.1z"/>
		<path class="st2" d="M180.9,326c-0.8-0.2-1.5-0.4-2.1-0.9c-0.2-0.1-0.3-0.2-0.3-0.3c0-0.1,0-0.2,0.1-0.2l0.6-1
			c0.1-0.1,0.1-0.2,0.2-0.2c0.1,0,0.2,0,0.3,0.1c0.5,0.3,1.1,0.5,1.7,0.7c0.6,0.2,1.3,0.3,1.9,0.3c0.7,0,1.4-0.1,2-0.4
			c0.5-0.3,0.7-0.9,0.7-1.4c0-0.3-0.1-0.7-0.2-0.9c-0.2-0.3-0.5-0.5-0.8-0.6c-0.3-0.2-0.9-0.4-1.6-0.7l-0.4-0.2
			c-0.7-0.3-1.4-0.6-2.1-1c-0.5-0.3-1-0.7-1.4-1.2c-0.4-0.5-0.6-1.2-0.5-1.9c0-1.1,0.5-2.1,1.4-2.8c1.1-0.7,2.3-1.1,3.6-1
			c0.8,0,1.6,0.1,2.3,0.3c0.6,0.2,1.2,0.4,1.7,0.8c0.2,0.1,0.2,0.2,0.2,0.3c0,0.1,0,0.2-0.1,0.2l-0.6,1c-0.1,0.1-0.1,0.2-0.2,0.2
			c-0.1,0-0.2-0.1-0.2-0.1c-0.9-0.6-2-0.8-3.1-0.8c-0.7,0-1.3,0.1-1.9,0.5c-0.4,0.3-0.7,0.9-0.6,1.4c0,0.4,0.1,0.7,0.3,1
			c0.2,0.3,0.5,0.5,0.8,0.6c0.3,0.2,0.9,0.4,1.6,0.7l0.5,0.2c0.8,0.3,1.5,0.6,2.2,1c0.5,0.3,0.9,0.7,1.2,1.2
			c0.3,0.6,0.5,1.2,0.4,1.8c0,1-0.4,2-1.3,2.6c-1.1,0.7-2.3,1.1-3.6,1C182.7,326.3,181.8,326.2,180.9,326z"/>
		<g>
			<defs>
				<path id="SVGID_1_" d="M53.5,44.3H182c13.6,0,24.7,11.1,24.7,24.7v191.6c0,13.6-11.1,24.7-24.7,24.7H53.5
					c-13.6,0-24.7-11.1-24.7-24.7V69C28.8,55.3,39.8,44.3,53.5,44.3z"/>
			</defs>
			<clipPath id="SVGID_2_">
				<use xlink:href="#SVGID_1_"  style="overflow:visible;"/>
			</clipPath>
			<g class="st3">
				<polygon class="st4" points="211.6,0.6 28.3,0.6 28.3,197.9 28.3,220.8 28.3,328.9 211.5,328.9 211.5,220.8 211.6,220.8 				"/>
				<polygon class="st5" points="27.2,123.6 47,110.4 80.6,118.7 103.2,99.1 141.9,114.4 166.4,103.6 212.9,125.6 212.9,173.2 
					27.2,173.2 				"/>
				<polygon class="st6" points="27.2,136.2 72.9,112.3 109.6,130.9 145.4,105.9 184.5,125.6 212.9,110.4 212.9,173.2 27.2,173.2 
									"/>
				<polygon class="st7" points="212.9,173.2 27.2,173.2 27.2,268.1 27.2,279.1 27.2,331 212.8,331 212.8,279.1 212.9,279.1 				"/>
				<path class="st8" d="M122.2,75.7h33.5c2.4,0,4.3-1.9,4.3-4.3l0,0c0-2.4-1.9-4.3-4.3-4.3c0,0,0,0,0,0h-33.5
					c-2.4,0-4.3,1.9-4.3,4.3l0,0C117.9,73.7,119.8,75.7,122.2,75.7z"/>
				<circle class="st8" cx="143.3" cy="64.9" r="10.8"/>
				<circle class="st8" cx="131.4" cy="68" r="7.7"/>
				<path class="st8" d="M76.2,90.2H49.3c-1.9,0-3.5-1.6-3.5-3.5l0,0c0-1.9,1.6-3.5,3.5-3.5h26.9c1.9,0,3.5,1.6,3.5,3.5l0,0
					C79.7,88.7,78.1,90.2,76.2,90.2z"/>
				<circle class="st8" cx="59.3" cy="81.6" r="8.6"/>
				<path class="st8" d="M75,84.1c0,3.4-2.8,6.2-6.2,6.2s-6.1-2.8-6.1-6.2c0-3.4,2.8-6.2,6.1-6.2S75,80.7,75,84.1L75,84.1z"/>
				<polygon class="st9" points="211.6,0.6 28.3,0.6 28.3,197.9 28.3,220.8 28.3,328.9 211.5,328.9 211.5,220.8 211.6,220.8 				"/>
				<path class="st10" d="M131.2,181.9c0.3-0.8,0.5-1.6,0.8-2.4c0.6-1.8,1.2-3.6,1.8-5.5c-0.1,0.1-0.1,0.1-0.2,0.2
					c0.6-2.1,1.3-4.2,1.9-6.3c1.9-7.4,3.5-14.8,5-22c0.9-4.1,2.7-9.9,3-14.1c-3.5,5.4-7.8,10.3-12.7,14.4c-2.4,2.1-5.9,2-6.3,0.1
					c-0.7-3.3-3-2.4-5.2-0.4c-1,1.1-2.7,0.4-4,1.5c-0.9,1.3-1.6,2.8-2.2,4.3c-1.9,4.4-3.1,4.4-5.4,6.7c0-2.5,2.7-7,3.4-11.4
					c0.8-4.9,3.6-6,5.5-6.8c4.5-2,14.5-6.7,16.6-9.1c1.7-1.9,6.1-6.8,8-11.9c1.5-4,0.6-8.6,0.6-9c0.1-2.1,3.5-6.3,3.7-8.5
					c0.7-6.3-4.6-7.8-3.6-11.3c1.6-5.2,0.9-8.6-0.9-8c-3.4,1-8.2,3.9-11.8,7.3c-1.3,2.5-2.2,5.2-2.7,7.9c-0.2,2-0.4,3.8,0.8,5.2
					c0.6,0.7,1.4,2.9-1.5,1.6c-2.6-1.1-4.5,1.3-5.8,4.2c-5.3,11.7-9.7,23.7-13.2,36c-2.4,8.4-7.6,20.1-2.7,28.5
					c2.2,3.9,8.6,6.3,12.2,10c3.8,3.9,6.4,8.7,11,10.6c1-3,1.9-6,2.9-9L131.2,181.9z"/>
				<path class="st11" d="M132,179.5c0.6-1.8,1.2-3.6,1.8-5.5l0,0C133.2,175.9,132.6,177.7,132,179.5z"/>
				<path class="st11" d="M131.2,181.9l-1,2.9L131.2,181.9z"/>
				<path class="st10" d="M170.4,75.4c-6.5-2.3-12,3-13.5,7.3c-1.3,3.8-0.4,8.3-2.9,11.7c-5.1,6.7-3.9,14.9-5.1,23.6
					c-1.3,10-1.7,20.1-2,22.3c-0.5,4.2-1.4,8.4-2.8,12.4c0.6-0.4,1.3-0.8,2-1.1c15.3-6.9,4.7-23.4,15.2-34.5
					c2.5-2.7,5.9-4.9,7.3-8.2c1.5-3.5,1.2-7.8,1.5-11.5c0.2-2.1-5.3-10.5-0.5-14.7c5.7-5,10,3.5,16.9,2.3l0.8-0.1
					c-2.5-2-5.1-3.8-7.9-5.3C176.5,77.9,173.5,76.5,170.4,75.4z"/>
				<path class="st12" d="M143.9,139.1c0.1-0.5,0.2-0.9,0.3-1.4C144.1,138.2,144,138.7,143.9,139.1z"/>
				<path class="st12" d="M144.8,134.6c0.1-0.6,0.2-1.3,0.3-1.9C145,133.3,144.9,134,144.8,134.6z"/>
				<path class="st12" d="M141.8,148.1c0.1-0.2,0.1-0.4,0.2-0.6C141.9,147.7,141.8,147.9,141.8,148.1z"/>
				<path class="st12" d="M145.6,130.1c0.1-0.9,0.2-1.7,0.4-2.6C145.8,128.4,145.7,129.2,145.6,130.1z"/>
				<path class="st12" d="M140.5,152.6c0-0.1,0-0.2,0.1-0.3C140.6,152.4,140.6,152.5,140.5,152.6z"/>
				<path class="st12" d="M142.9,143.6c0.1-0.3,0.1-0.6,0.2-1C143,143,143,143.3,142.9,143.6z"/>
				<path class="st12" d="M146.2,125.5c0.2-1.5,0.4-3,0.5-4.6C146.6,122.4,146.4,124,146.2,125.5z"/>
				<path class="st12" d="M139.2,157L139.2,157z"/>
				<path class="st13" d="M141.1,82.5c1.8-0.5,2.5,2.8,0.9,8c-1.1,3.5,4.2,5,3.6,11.3c-0.2,2.1-3.6,6.3-3.7,8.5c0,0.4,0.9,5-0.6,9
					c-1.9,5.1-6.3,10-8,12c-2.1,2.4-12.1,7.1-16.7,9.1c-1.9,0.8-4.7,1.9-5.5,6.8c-0.7,4.4-3.4,8.9-3.4,11.4c2.3-2.3,3.5-2.3,5.4-6.7
					c0.6-1.5,1.3-3,2.2-4.3c1.3-1.1,3.1-0.4,4-1.5c2.2-1.9,4.5-2.9,5.2,0.4c0.4,1.9,3.9,1.9,6.4-0.1c4.9-4.1,9.2-9,12.7-14.4
					c-0.3,4.2-2.1,10-3,14.1c-1.6,7.2-3.2,14.7-5,22c-0.7,2.1-1.3,4.2-1.9,6.3c0.1,0,0.1-0.1,0.2-0.2c1.9-5.6,3.7-11.3,5.4-17l0,0
					c0.4-1.5,0.9-3,1.3-4.4c0-0.1,0-0.2,0.1-0.3c0.4-1.4,0.8-2.8,1.1-4.2c0.1-0.2,0.1-0.4,0.2-0.6c0.3-1.3,0.7-2.6,1-3.9
					c0.1-0.3,0.1-0.6,0.2-1c0.3-1.2,0.6-2.4,0.8-3.6c0.1-0.5,0.2-0.9,0.3-1.4c0.2-1,0.4-2.1,0.6-3.1c0.1-0.6,0.2-1.3,0.3-1.9
					c0.1-0.9,0.3-1.8,0.4-2.6s0.2-1.7,0.4-2.6c0.1-0.7,0.2-1.3,0.3-2c0.2-1.5,0.4-3,0.5-4.6c1.1-12.7,1.4-25.5,2-38.3
					c0.1-1.5,0.2-7.6,0.2-15.5l-0.4-0.1c-7.7,6.4-15.3,15-19.3,22.8C132.9,86.4,137.7,83.5,141.1,82.5z"/>
				<path class="st13" d="M139.2,157L139.2,157c-1.7,5.7-3.5,11.4-5.4,17c3.4-2.7,6-10.1,8.8-17c0.6-1.5,1.1-3,1.6-4.4
					C142.4,153.9,140.7,155.3,139.2,157z"/>
				<path class="st13" d="M190,84.5c-1,0.1-1.9,0.2-2.6,0.3c3.8,2.9,7.1,5.7,11.6,7.4C196.1,89.5,193.1,86.9,190,84.5z"/>
				<path class="st12" d="M133.8,174.1L133.8,174.1c1.9-5.6,3.7-11.3,5.4-17C137.6,162.7,135.7,168.4,133.8,174.1z"/>
				<path class="st13" d="M149,67.1c0,7.9-0.1,14-0.2,15.5c-0.7,12.8-0.9,25.6-2,38.3c-0.1,1.5-0.3,3.1-0.5,4.6
					c-0.1,0.7-0.2,1.3-0.3,2c-0.1,0.9-0.2,1.7-0.4,2.6s-0.3,1.8-0.4,2.6c-0.1,0.6-0.2,1.3-0.3,1.9c-0.2,1-0.4,2.1-0.6,3.1
					c-0.1,0.5-0.2,0.9-0.3,1.4c-0.3,1.2-0.5,2.4-0.8,3.6c-0.1,0.3-0.1,0.6-0.2,1c-0.3,1.3-0.6,2.6-1,3.9c-0.1,0.2-0.1,0.4-0.2,0.6
					c-0.4,1.4-0.8,2.8-1.1,4.2c0,0.1-0.1,0.2-0.1,0.3c-0.4,1.5-0.9,3-1.3,4.4l0,0c1.5-1.7,3.2-3.1,5-4.4c1.3-4,2.2-8.2,2.7-12.4
					c0.3-2.2,0.6-12.4,2-22.3c1.2-8.7,0-16.9,5.1-23.6c2.5-3.3,1.6-7.8,2.9-11.7c1.5-4.3,7-9.6,13.5-7.3c3.1,1.1,6.2,2.4,9.1,4
					c2.8,1.6,5.4,3.3,7.9,5.3c0.8-0.1,1.7-0.2,2.6-0.3C178.4,75.6,164.8,69,149,67.1z"/>
				<path class="st12" d="M140.5,152.6c-0.4,1.5-0.9,3-1.3,4.4"/>
				<path class="st12" d="M140.6,152.3c0.4-1.4,0.8-2.8,1.1-4.2C141.4,149.5,141,150.9,140.6,152.3z"/>
				<path class="st12" d="M146,127.5c0.1-0.7,0.2-1.3,0.3-2C146.2,126.2,146.1,126.8,146,127.5z"/>
				<path class="st12" d="M144.2,137.7c0.2-1,0.4-2.1,0.6-3.1C144.6,135.6,144.4,136.7,144.2,137.7z"/>
				<path class="st12" d="M143.1,142.7c0.3-1.2,0.6-2.4,0.8-3.6C143.6,140.3,143.4,141.5,143.1,142.7z"/>
				<path class="st12" d="M145.1,132.7c0.1-0.9,0.3-1.8,0.4-2.6C145.5,130.9,145.3,131.8,145.1,132.7z"/>
				<path class="st12" d="M141.9,147.5c0.3-1.3,0.7-2.6,1-3.9C142.6,144.9,142.2,146.2,141.9,147.5z"/>
				<path class="st14" d="M216.8,172.2c1.2-2,8.5-8.4,8.8-9.9c1-6.7,6.6-9.1,2.4-14.8c-8.4-11.3-6.2-16.6-11.2-21
					c-10.4-9.4-6.8-15.8-5-20.1c-2.8-3.5-5.7-6.9-8.8-10.2c-1.3-1.3-2.6-2.7-4-4c-0.1,0.8-0.2,1.7-0.3,2.8
					c-0.6,6.4,1.9,13.3,3.9,19.4c0.4,1.2,0.8,2.4,1.1,3.7c1.9,4.3,3,8.5,6.8,12c3.4,3.2,4.5,5.3,4.4,9.7c-0.2,2.3,0,4.6,0.5,6.9
					c0.5,1.8,1.3,3.4,1.4,5.2c0.1,2.5-1.4,4.2-3.7,5.6c-6.8,4.1-15.6,4.9-22.7,8.8c-6.6,3.6-11.8,8.7-17.8,13
					c-3.9,5.4-6.1,11-7.7,18.1c0.6-0.1,1.1-0.1,1.7-0.3c15.8-3.1,28.8-1.2,43.8-4.2c2.2-3,4.2-6.3,5.8-9.7
					C218.3,178.8,214.1,176.8,216.8,172.2z"/>
				<path class="st14" d="M223.8,184.8c8-0.7,13.6-3.4,15.4-6.4c5.9-9.7-1.4-24.5-5.6-34.7c-5.5-13.4-12.9-26-21.9-37.4
					c-1.8,4.3-5.4,10.7,5,20.1c5,4.4,2.7,9.7,11.2,21c4.2,5.7-1.4,8.1-2.4,14.8c-0.2,1.5-7.6,7.9-8.8,9.9c-2.6,4.6,1.5,6.6-0.7,11.2
					c-1.6,3.4-3.5,6.7-5.8,9.7c0.3-0.1,0.6-0.1,0.9-0.2C216.6,191.7,218.1,185.3,223.8,184.8z"/>
				<path class="st10" d="M169.7,174.2c2.5-7.6,11.2-18,17.6-21.6c8.1-4.5,9.7-10.5,10.2-16.5c0.5-5.8,3.9-10.4,7.2-15.5
					c-0.3-0.8-0.7-1.7-1.1-2.6c-0.3-1.3-0.7-2.5-1.1-3.7c-2-6.2-4.5-13-3.9-19.4c0.1-1.1,0.2-2,0.3-2.8l0,0
					c-4.5-1.6-7.8-4.4-11.6-7.4l-0.8,0.1c-6.9,1.2-11.1-7.4-16.9-2.3c-4.8,4.2,0.7,12.5,0.5,14.7c-0.3,3.7,0,8-1.5,11.5
					c-1.4,3.3-4.8,5.6-7.3,8.2c-10.5,11.1,0.2,27.6-15.2,34.5c-0.7,0.3-1.4,0.7-2,1.1c-0.5,1.4-1,2.9-1.6,4.4
					c-2.8,6.9-5.3,14.4-8.8,17c-0.6,1.8-1.2,3.6-1.8,5.5c-0.3,0.8-0.5,1.6-0.8,2.4l-1,2.9c-1,3-2,6-2.9,9c1.6,0.7,3.4,0.9,5.2,0.8
					c12.1-0.8,21.4,4.4,32.4,2.9c0.8-3.8,2-7.5,3.6-11.1C167.8,184.6,167.4,181.2,169.7,174.2z"/>
				<path class="st15" d="M170.2,189.3c0-0.1,0-0.2,0-0.2C170.1,189.4,170.1,189.6,170.2,189.3z"/>
				<path class="st10" d="M190.4,166.4c7-3.9,15.9-4.6,22.7-8.8c2.3-1.4,3.9-3.1,3.7-5.6c-0.1-1.8-0.9-3.5-1.4-5.2
					c-0.5-2.2-0.7-4.6-0.5-6.9c0.1-4.4-1-6.5-4.4-9.7c-3-2.8-4.4-6.1-5.7-9.5c-3.3,5.1-6.7,9.6-7.2,15.5c-0.5,6-2.1,12-10.2,16.5
					c-6.4,3.6-15.2,13.9-17.6,21.6c-2.3,7-1.9,10.4-1.1,12.2c1.1-2.5,2.5-4.8,4.1-7C178.6,175.1,183.8,170,190.4,166.4z"/>
				<polygon class="st16" points="137.2,172.4 143.9,142.8 157.4,113.6 167.1,101.2 192.3,103.6 213.5,124.8 226.5,172.8 				"/>
				<rect x="19" y="172.4" class="st17" width="200.7" height="156.3"/>
				<path class="st18" d="M72.8,273h39.5c4.3,0,7.8,3.5,7.8,7.8v1.3c0,4.3-3.5,7.8-7.8,7.8H72.8c-4.3,0-7.8-3.5-7.8-7.8v-1.3
					C65.1,276.5,68.6,273,72.8,273z"/>
				<path class="st18" d="M138.1,277.6H48c-5.6,0-10.1-4.6-10.2-10.2l0,0c0-5.6,4.6-10.1,10.2-10.2h90.1c5.6,0,10.1,4.6,10.2,10.2
					l0,0C148.3,273.1,143.7,277.6,138.1,277.6z"/>
				<path class="st19" d="M126.3,202.8c-1.5,0-2.9-0.2-4.3-0.6c-11.8-3-19.1-17.6-19.9-19.2c-1.2-2.5-0.2-5.5,2.3-6.7
					c2.5-1.2,5.5-0.2,6.7,2.3c1.6,3.3,7.2,12.3,13.4,13.9c2.3,0.6,4.5,0.1,7-1.7c2.3-1.6,5.4-1.1,7,1.2c1.6,2.3,1.1,5.4-1.2,7l0,0
					C134.1,201.4,130.3,202.7,126.3,202.8z"/>
				<rect x="71.8" y="141.7" class="st20" width="39.5" height="11.1"/>
				<path class="st19" d="M115,151.2c0,2.5-2,4.4-4.4,4.4s-4.5-2-4.5-4.4c0-2.5,2-4.4,4.4-4.4c0,0,0,0,0,0
					C113,146.8,115,148.7,115,151.2z"/>
				<circle class="st21" cx="110.6" cy="151.2" r="2.7"/>
				<circle class="st19" cx="73.1" cy="151.2" r="4.4"/>
				<circle class="st21" cx="73.1" cy="151.2" r="2.7"/>
				<path class="st22" d="M133.3,263.7L133.3,263.7c1.8,0,3.3-1.5,3.3-3.3V156.4c0-1.8-1.5-3.3-3.3-3.3l0,0c-1.8,0-3.3,1.5-3.3,3.3
					v104.1C130,262.3,131.5,263.7,133.3,263.7z"/>
				<path class="st14" d="M133.4,109.2h-0.3c4.2,3.7,4.7,10.1,1,14.3c-3.7,4.2-10.1,4.7-14.3,1c-0.3-0.2-0.5-0.5-0.8-0.8
					c-0.2,1.3-0.3,2.6-0.3,3.9c0,10.2,6.6,18.5,14.8,18.5s14.8-8.3,14.8-18.4S141.6,109.2,133.4,109.2z"/>
				<path class="st19" d="M138.7,127.5c0,0,0,0.1,0,0.1c0,4.5-3.7,8.2-8.2,8.2c-0.7,0-1.4-0.1-2.1-0.3c0.5,3.9,3.2,6.8,6.5,6.8
					c3.6,0,6.6-3.7,6.6-8.2C141.6,131.6,140.6,129.2,138.7,127.5z"/>
				<path class="st19" d="M108.4,279.2l-0.6-0.7c-0.3-0.4-0.8-0.6-1.3-0.7l-2.9-0.6v-55.4c-0.3-2.2-2.3-3.7-4.5-3.4
					c-1.8,0.3-3.1,1.6-3.4,3.4v54.5c-0.6,0.4-0.9,1.1-0.9,1.9v2.6c0,1.3,1.1,2.4,2.4,2.4h9.5c1.3,0,2.4-1.1,2.4-2.4
					C109,280.2,108.8,279.6,108.4,279.2z"/>
				<path class="st23" d="M103.1,260.2H96c-0.4,0-0.7-0.3-0.7-0.7v-0.1c0-0.4,0.3-0.7,0.7-0.7h7.2c0.4,0,0.7,0.3,0.7,0.7v0.1
					C103.8,259.9,103.5,260.2,103.1,260.2z"/>
				<path class="st23" d="M103.3,269.3L103.3,269.3c-0.4,0.3-0.9,0.3-1.2-0.1l-6.4-8.5c-0.3-0.4-0.2-0.9,0.2-1.1l0.1-0.1
					c0.4-0.3,0.9-0.2,1.1,0.2l6.4,8.5C103.7,268.6,103.6,269.1,103.3,269.3z"/>
				<path class="st23" d="M103.1,259.5L103.1,259.5c0.4,0.3,0.4,0.7,0.2,1.1l-6.5,8.6c-0.2,0.3-0.7,0.4-1,0.1l-0.1,0
					c-0.3-0.2-0.4-0.7-0.1-1l6.5-8.6C102.3,259.3,102.8,259.3,103.1,259.5z"/>
				<path class="st23" d="M103.3,277.9L103.3,277.9c-0.4,0.3-0.9,0.3-1.2-0.1l-6.4-8.5c-0.3-0.4-0.2-0.9,0.2-1.1l0.1-0.1
					c0.4-0.3,0.9-0.2,1.1,0.2l6.4,8.5C103.7,277.1,103.6,277.6,103.3,277.9z"/>
				<path class="st23" d="M103.2,268.1L103.2,268.1c0.4,0.3,0.5,0.8,0.2,1.2l-6.4,8.5c-0.3,0.4-0.8,0.4-1.1,0.2l-0.1-0.1
					c-0.4-0.3-0.4-0.8-0.2-1.1l6.4-8.5C102.3,267.9,102.8,267.8,103.2,268.1z"/>
				<path class="st23" d="M106.6,282.7L106.6,282.7c-0.4,0-0.7-0.3-0.7-0.7v-3.7c0-0.4,0.3-0.7,0.7-0.7h0.1c0.4,0,0.7,0.3,0.7,0.7
					v3.7C107.3,282.4,107,282.7,106.6,282.7z"/>
				<path class="st23" d="M103.9,282.7L103.9,282.7c-0.4,0-0.7-0.3-0.7-0.7v-4.3c0-0.4,0.3-0.7,0.7-0.7h0.1c0.4,0,0.7,0.3,0.7,0.7
					v4.3C104.5,282.4,104.2,282.7,103.9,282.7z"/>
				<path class="st23" d="M103.1,278.5h-6.8c-0.4,0-0.7-0.3-0.7-0.7v-0.1c0-0.4,0.3-0.7,0.7-0.7h6.8c0.4,0,0.7,0.3,0.7,0.7v0.1
					C103.8,278.1,103.5,278.5,103.1,278.5z"/>
				<path class="st23" d="M94.8,282h13.5c0.4,0,0.7,0.3,0.7,0.7v0.1c0,0.4-0.3,0.7-0.7,0.7H94.8c-0.4,0-0.7-0.3-0.7-0.7v-0.1
					C94.1,282.3,94.4,282,94.8,282z"/>
				<path class="st19" d="M87.5,276.3v-54.5c-0.3-2.2-2.3-3.7-4.5-3.4c-1.8,0.2-3.2,1.6-3.4,3.4V277c0,0,0,0.1,0,0.1l-2.9,0.6
					c-0.5,0.1-0.9,0.4-1.2,0.7l-0.6,0.7c-0.9,1-0.9,2.5,0.1,3.4c0.5,0.4,1,0.7,1.7,0.6h9.5c1.3,0,2.4-1.1,2.4-2.4v-2.6
					C88.4,277.5,88.1,276.8,87.5,276.3z"/>
				<path class="st23" d="M80.1,258.7h7.2c0.4,0,0.7,0.3,0.7,0.7v0.1c0,0.4-0.3,0.7-0.7,0.7h-7.2c-0.4,0-0.7-0.3-0.7-0.7v-0.1
					C79.3,259,79.7,258.7,80.1,258.7z"/>
				<path class="st23" d="M87.3,259.6L87.3,259.6c0.4,0.3,0.5,0.8,0.2,1.2l-6.4,8.4c-0.3,0.4-0.8,0.4-1.1,0.2l-0.1-0.1
					c-0.4-0.3-0.4-0.8-0.2-1.1l6.4-8.4C86.4,259.4,87,259.3,87.3,259.6z"/>
				<path class="st23" d="M87.4,269.3L87.4,269.3c-0.4,0.3-0.9,0.3-1.2-0.1l-6.4-8.4c-0.3-0.4-0.2-0.9,0.2-1.1l0.1-0.1
					c0.4-0.3,0.9-0.2,1.1,0.2l6.4,8.4C87.8,268.5,87.7,269,87.4,269.3z"/>
				<path class="st23" d="M87.3,268.1L87.3,268.1c0.4,0.3,0.5,0.8,0.2,1.2l-6.4,8.5c-0.3,0.4-0.8,0.4-1.1,0.2l-0.1-0.1
					c-0.4-0.3-0.4-0.8-0.2-1.1l6.4-8.5C86.4,267.9,87,267.9,87.3,268.1z"/>
				<path class="st23" d="M87.4,277.9L87.4,277.9c-0.4,0.3-0.9,0.3-1.2-0.1l-6.4-8.5c-0.3-0.4-0.2-0.9,0.2-1.1l0.1-0.1
					c0.4-0.3,0.9-0.2,1.1,0.2l6.4,8.5C87.8,277.1,87.7,277.6,87.4,277.9z"/>
				<path class="st23" d="M76.5,277.3L76.5,277.3c0.4,0,0.7,0.3,0.7,0.7v3.7c0,0.4-0.3,0.7-0.7,0.7h-0.1c-0.4,0-0.7-0.3-0.7-0.7V278
					C75.9,277.6,76.2,277.3,76.5,277.3z"/>
				<path class="st23" d="M79.3,276.9L79.3,276.9c0.4,0,0.7,0.3,0.7,0.7v4.1c0,0.4-0.3,0.7-0.7,0.7h-0.1c-0.4,0-0.7-0.3-0.7-0.7
					v-4.1C78.7,277.2,78.9,276.9,79.3,276.9z"/>
				<path class="st23" d="M80.1,276.9h6.8c0.4,0,0.7,0.3,0.7,0.7v0.1c0,0.4-0.3,0.7-0.7,0.7h-6.8c-0.4,0-0.7-0.3-0.7-0.7v-0.1
					C79.3,277.2,79.7,276.9,80.1,276.9z"/>
				<path class="st23" d="M74.6,282h13.5c0.4,0,0.7,0.3,0.7,0.7v0.1c0,0.4-0.3,0.7-0.7,0.7H74.6c-0.4,0-0.7-0.3-0.7-0.7v-0.1
					C73.9,282.3,74.2,282,74.6,282z"/>
				<path class="st23" d="M88,283.4L88,283.4c-0.5,0-0.9-0.3-0.9-0.8v-5.5c0-0.4,0.3-0.8,0.8-0.8H88c0.4,0,0.8,0.3,0.8,0.8v5.5
					C88.7,283,88.4,283.4,88,283.4z"/>
				<path class="st23" d="M94.8,276.2L94.8,276.2c0.5,0,0.9,0.3,0.9,0.8v5.6c0,0.4-0.3,0.8-0.8,0.8h-0.1c-0.4,0-0.8-0.3-0.8-0.8V277
					C94,276.6,94.4,276.2,94.8,276.2z"/>
				<rect x="86.3" y="166.2" class="st19" width="11.4" height="11"/>
				<path class="st19" d="M91.9,180.7c4.1,0,7.9-2.3,9.8-5.9c-2.5-1.3-5.3-1.9-8.2-1.9h-3.4c-2.8,0-5.6,0.6-8.2,1.9
					C83.9,178.4,87.7,180.7,91.9,180.7z"/>
				<path class="st14" d="M103,175.6c-0.4-0.3-0.9-0.5-1.3-0.8c-2.9,5.4-9.7,7.5-15.1,4.5c-1.9-1-3.5-2.6-4.5-4.5
					c-1,0.5-1.9,1.1-2.8,1.8l-0.1,0.1c2.9,1.5,4,5,2.5,7.9c-1.5,2.9-5,4-7.9,2.5c0,0.1,0,0.3,0,0.4v58H110v-58
					C109.9,182.5,107.2,178,103,175.6z"/>
				<path class="st19" d="M82.3,181.8c0-2.2-1.2-4.2-3.1-5.2c-3.2,2.5-5.2,6.3-5.4,10.4c2.9,1.5,6.4,0.4,7.9-2.5
					C82.1,183.7,82.3,182.8,82.3,181.8L82.3,181.8z"/>
				<path class="st24" d="M110.3,218.5H74.5c-1.5,0-2.7-1.2-2.7-2.7l0,0c0-1.5,1.2-2.7,2.7-2.7h35.8c1.5,0,2.7,1.2,2.7,2.7l0,0
					C113,217.3,111.8,218.5,110.3,218.5z"/>
				<path class="st19" d="M92.1,170.8L92.1,170.8c-10-0.1-18-8.1-18.1-18.1v-9.4c0-10,8.1-18.1,18.1-18.1l0,0
					c10,0,18.1,8.1,18.1,18.1v9.4C110.2,162.7,102.1,170.8,92.1,170.8z"/>
				<path class="st22" d="M70.7,142.6c0-11.7,9.5-21.1,21.1-21.1l0,0c11.7,0,21.1,9.5,21.1,21.1H70.7z"/>
				<path class="st19" d="M136.4,187.6L136.4,187.6c1.7,0,3.1,1.4,3.1,3.1v8.6c0,1.7-1.4,3.1-3.1,3.1h0c-1.7,0-3.1-1.4-3.1-3.1v-8.6
					C133.3,189,134.7,187.6,136.4,187.6z"/>
				<path class="st19" d="M129.4,194.3h-1.6c-1.1,0-1.9-0.9-1.9-1.9c0,0,0,0,0,0l0,0c0-1.1,0.9-1.9,1.9-1.9c0,0,0,0,0,0h1.6
					c1.1,0,1.9,0.9,1.9,1.9l0,0l0,0C131.3,193.4,130.5,194.3,129.4,194.3C129.4,194.3,129.4,194.3,129.4,194.3z"/>
				<path class="st19" d="M58.9,202.8c1.5,0,2.9-0.2,4.3-0.6c11.8-3,19.1-17.6,19.9-19.2c1.2-2.5,0.2-5.5-2.3-6.7
					c-2.5-1.2-5.5-0.2-6.7,2.3c-1.6,3.3-7.2,12.3-13.4,13.9c-2.3,0.6-4.5,0.1-7-1.7c-2.3-1.6-5.4-1.1-7,1.2c-1.6,2.3-1.1,5.4,1.2,7
					l0,0C51.1,201.4,55,202.7,58.9,202.8z"/>
				<path class="st22" d="M51.2,263.7L51.2,263.7c1.8,0,3.3-1.5,3.3-3.3V156.4c0-1.8-1.5-3.3-3.3-3.3l0,0c-1.8,0-3.3,1.5-3.3,3.3
					l0,0v104.1C47.9,262.3,49.4,263.7,51.2,263.7z"/>
				<path class="st14" d="M50.3,110.1H50c4,3.9,4.1,10.3,0.2,14.4c-3.9,4-10.3,4.1-14.4,0.2c-0.2,1.3-0.3,2.6-0.3,3.9
					c0,10.2,6.6,18.4,14.8,18.4s14.8-8.3,14.8-18.4S58.5,110.1,50.3,110.1z"/>
				<path class="st19" d="M55.6,128.4v0.1c0,4.5-3.7,8.2-8.2,8.2l0,0c-0.7,0-1.4-0.1-2-0.3c0.5,3.8,3.2,6.8,6.5,6.8
					c3.6,0,6.6-3.7,6.6-8.2C58.4,132.5,57.4,130.1,55.6,128.4z"/>
				<path class="st19" d="M47.9,202.5L47.9,202.5c1.7,0,3.1-1.4,3.1-3.1l0,0v-8.6c0-1.7-1.4-3.1-3.1-3.1l0,0c-1.7,0-3.1,1.4-3.1,3.1
					v8.6C44.8,201.1,46.2,202.5,47.9,202.5z"/>
				<path class="st19" d="M54.8,194.3h1.6c1.1,0,1.9-0.9,1.9-1.9c0,0,0,0,0,0l0,0c0-1.1-0.9-1.9-1.9-1.9l0,0h-1.6
					c-1.1,0-1.9,0.9-1.9,1.9c0,0,0,0,0,0l0,0C52.9,193.4,53.7,194.2,54.8,194.3z"/>
				<path class="st25" d="M86.3,156.3L86.3,156.3c-1.2,0-2.2-1-2.2-2.2c0,0,0,0,0,0v-2.5c0-1.2,1-2.2,2.2-2.2l0,0
					c1.2,0,2.2,1,2.2,2.2v2.5C88.6,155.2,87.6,156.2,86.3,156.3C86.3,156.3,86.3,156.3,86.3,156.3z"/>
				<path class="st25" d="M101.7,156.3L101.7,156.3c-1.2,0-2.2-1-2.2-2.2c0,0,0,0,0,0v-2.5c0-1.2,1-2.2,2.2-2.2l0,0
					c1.2,0,2.2,1,2.2,2.2v2.5C103.9,155.2,103,156.2,101.7,156.3C101.7,156.3,101.7,156.3,101.7,156.3z"/>
				<path class="st22" d="M105.5,149.1l-4.4-1.8c-0.8-0.3-1.2-1.3-0.9-2.1l0,0c0.3-0.8,1.3-1.2,2.1-0.9l4.4,1.8
					c0.8,0.3,1.2,1.3,0.9,2.1l0,0C107.3,149.1,106.3,149.5,105.5,149.1C105.5,149.2,105.5,149.2,105.5,149.1z"/>
				<path class="st22" d="M82.5,149.1l4.4-1.8c0.8-0.3,1.2-1.3,0.9-2.1l0,0c-0.3-0.8-1.3-1.2-2.1-0.9l-4.4,1.8
					c-0.8,0.3-1.2,1.3-0.9,2.1l0,0C80.8,149.1,81.7,149.5,82.5,149.1C82.5,149.2,82.5,149.2,82.5,149.1z"/>
				<path class="st21" d="M92.1,157.6c0-1.4,1.2-2.6,2.6-2.6s2.6,1.2,2.6,2.6H92.1z"/>
				<path class="st21" d="M94.3,161.6c0-0.2,0.2-0.4,0.4-0.4c0,0,0,0,0,0c0.2,0,0.4,0.2,0.4,0.4c0,0,0,0,0,0H94.3z"/>
				<path class="st21" d="M97.8,160.2c0,0-0.1,0-0.1,0c-1.7-0.6-3.7-0.6-5.4,0c-0.2,0-0.4-0.1-0.4-0.2c0-0.1,0-0.3,0.1-0.4
					c1.9-0.7,4-0.7,5.9,0c0.2,0.1,0.3,0.2,0.2,0.4c0,0,0,0,0,0C98,160.1,97.9,160.2,97.8,160.2z"/>
				<g>
					<defs>
						<polygon id="SVGID_3_" points="136.4,172.4 143.1,142.8 156.6,113.6 166.3,101.2 191.6,103.6 212.7,124.8 225.7,172.8 						
							"/>
					</defs>
					<clipPath id="SVGID_4_">
						<use xlink:href="#SVGID_3_"  style="overflow:visible;"/>
					</clipPath>
					<g class="st26">
						<path class="st20" d="M168.2,132.6c0,2.9,2.4,5.3,5.3,5.3c2.9,0,5.3-2.4,5.3-5.3s-2.4-5.3-5.3-5.3c0,0,0,0,0,0
							C170.6,127.3,168.2,129.7,168.2,132.6C168.2,132.6,168.2,132.6,168.2,132.6z"/>
						<rect x="169.9" y="159.5" class="st14" width="4.8" height="13.5"/>
						<rect x="169.9" y="173" class="st27" width="4.8" height="4.1"/>
						<rect x="142" y="158.9" class="st14" width="4.8" height="13.5"/>
						<rect x="142" y="172.4" class="st27" width="4.8" height="4.1"/>
						<rect x="162.5" y="163.5" class="st10" width="6" height="16.8"/>
						<rect x="162.5" y="180.4" class="st28" width="6" height="5.1"/>
						<polygon class="st10" points="133.9,156.7 139.9,163.5 139.9,180.4 133.9,180.4 						"/>
						<rect x="133.9" y="180.4" class="st28" width="6" height="5.1"/>
						<path class="st29" d="M168.9,145.7c0-1,0.8-1.9,1.8-1.9h0c2.3,0,3.8-0.6,4.6-1.7c0.3-0.5,0.5-1.2,0.6-1.8V139
							c-0.1-1.2-0.4-2.4-0.8-3.5c-0.2-0.4-0.2-0.9,0-1.4c-1.4-2.8-4.3-4.6-7.4-4.6l0,0c-4.6,0-8.3,3.7-8.3,8.3v17.5
							c0,0.5,0.5,1,1,0.9h14.6c0.5,0,0.9-0.4,0.9-0.9v-8.9c-1.6,0.8-3.4,1.1-5.1,1.1C169.7,147.5,168.9,146.7,168.9,145.7z"/>
						<rect x="162" y="123.2" class="st19" width="10.6" height="4.7"/>
						<path class="st19" d="M161,120.2v8.9c0,3.4,2.8,6.2,6.2,6.2l0,0c3.4,0,6.2-2.8,6.2-6.2v-8.9"/>
						<path class="st25" d="M170,125h-0.4c-0.2,0-0.4-0.2-0.4-0.4v-1.4c0-0.2,0.2-0.4,0.4-0.4h0.4c0.2,0,0.4,0.2,0.4,0.4v1.4
							C170.4,124.8,170.2,125,170,125z"/>
						<path class="st25" d="M164.9,125h-0.4c-0.2,0-0.4-0.2-0.4-0.4v-1.4c0-0.2,0.2-0.4,0.4-0.4h0.4c0.2,0,0.4,0.2,0.4,0.4v1.4
							C165.3,124.8,165.1,125,164.9,125z"/>
						<path class="st22" d="M174.2,119.6h-1.4v6.3h-11v-6.3h-1.6V130l0,0c0.2,3.7,3.3,6.7,7,6.7l0,0c3.8,0,6.9-3,7-6.8l0,0
							L174.2,119.6z"/>
						<path class="st21" d="M167.4,124.4c-0.6,0-1,0.4-1,1h2.1C168.5,124.8,168.1,124.4,167.4,124.4
							C167.5,124.4,167.5,124.4,167.4,124.4z"/>
						<path class="st22" d="M169,121.4h2.9c0.2,0,0.3,0.1,0.3,0.3v0.3c0,0.2-0.1,0.3-0.3,0.3H169c-0.2,0-0.3-0.1-0.3-0.3v-0.3
							C168.6,121.6,168.8,121.4,169,121.4z"/>
						<path class="st22" d="M162.6,121.4h2.9c0.2,0,0.3,0.1,0.3,0.3v0.3c0,0.2-0.1,0.3-0.3,0.3h-2.9c-0.2,0-0.3-0.1-0.3-0.3v-0.3
							C162.3,121.6,162.4,121.4,162.6,121.4z"/>
						<path class="st19" d="M171.3,116.2c-1.5-0.1-2.8-1.1-3.4-2.5c-0.1-0.3-0.5-0.4-0.8-0.3c-0.1,0.1-0.2,0.2-0.3,0.3
							c-0.5,1.4-1.9,2.4-3.4,2.5c-0.8,0-1.7-0.3-2.3-0.9c-0.1-0.1-0.3-0.1-0.4,0c0,0.1-0.1,0.1-0.1,0.2v2c-0.1,1,0.5,1.9,1.5,2h10.5
							c1-0.1,1.6-1,1.5-2v-2.1c0-0.2-0.1-0.3-0.3-0.3c-0.1,0-0.2,0-0.2,0.1C173.1,115.9,172.2,116.2,171.3,116.2z"/>
						<path class="st21" d="M160.8,119.3H174c0.3,0,0.6,0.3,0.6,0.6v0.5c0,0.3-0.3,0.6-0.6,0.6h-13.2c-0.3,0-0.6-0.3-0.6-0.6v-0.5
							C160.2,119.6,160.5,119.3,160.8,119.3z"/>
						<path class="st10" d="M175.9,142.2c0-0.6-0.5-1.1-1.1-1.1l0,0c-0.6,0-1,0.5-1,1.1c0-0.6-0.5-1.1-1.1-1.1
							c-0.6,0-1.1,0.5-1.1,1.1c0.1-0.6-0.4-1.1-1-1.2c-0.6-0.1-1.1,0.4-1.2,1c0,0.1,0,0.1,0,0.2c0-0.6-0.5-1.1-1.1-1.1l0,0
							c-0.6,0-1,0.5-1,1.1c0-0.6-0.5-1.1-1.1-1.1c-0.6,0-1.1,0.5-1.1,1.1c0.1-0.6-0.4-1.1-1-1.2c-0.6-0.1-1.1,0.4-1.2,1
							c0,0.1,0,0.1,0,0.2c0-0.6-0.5-1.1-1.1-1.1l0,0c-0.6,0-1.1,0.5-1.1,1.1c0-0.6-0.5-1.1-1.1-1.1c-0.6,0-1.1,0.5-1.1,1.1v4h-14.5
							c-5.8,0-10.5,4.7-10.5,10.5l0,0c0,5.8,4.7,10.5,10.6,10.6h20.8c5.8,0,10.5-4.7,10.6-10.6l0,0c0-0.4,0-0.8-0.1-1.3
							c0.1-0.1,0.1-0.3,0.1-0.4L175.9,142.2z"/>
						<path class="st30" d="M169.1,139.1l1-0.3c0.6-0.2,1.3,0.2,1.5,0.8l2.9,9.7c0.2,0.6-0.2,1.3-0.8,1.5l-1,0.3
							c-0.6,0.2-1.3-0.2-1.5-0.8l-2.9-9.7C168.1,140,168.5,139.3,169.1,139.1z"/>
						<circle class="st29" cx="160.3" cy="132" r="4.6"/>
						<path class="st9" d="M175.9,139v1.4C175.9,139.9,175.9,139.5,175.9,139z"/>
						<path class="st20" d="M178.4,134c-0.4-0.9-1.5-1.4-2.4-1c0,0,0,0,0,0c-0.5,0.2-0.8,0.5-1,1c0.6,1.1,0.9,2.4,0.9,3.7v1.3
							c0,0.5,0,0.9,0,1.4v6.1c1-0.5,1.9-1.3,2.5-2.2C181,140.3,178.7,134.7,178.4,134z"/>
						<path class="st20" d="M175.3,142.2c-0.7,1.1-2.3,1.7-4.6,1.7c-1-0.1-1.9,0.7-2,1.7s0.7,1.9,1.7,2c0.1,0,0.2,0,0.3,0
							c1.8,0.1,3.5-0.3,5.1-1.1v-6.1C175.8,141,175.6,141.6,175.3,142.2z"/>
						<path class="st29" d="M175,135.5c0.4,1.1,0.7,2.3,0.8,3.5v-1.2c0-1.3-0.3-2.6-0.9-3.7C174.8,134.6,174.8,135.1,175,135.5z"/>
						<path class="st29" d="M154,139c-0.8,0-1.7-0.2-2.4-0.5c-2.6-1.2-4-4.4-4-9.5c-0.1-1,0.7-1.9,1.7-2c1-0.1,1.9,0.7,2,1.7
							c0,0.1,0,0.2,0,0.3c0,3.4,0.7,5.6,1.8,6.1c1.8,0.8,5.5-1.5,6.9-2.7c0.8-0.7,1.9-0.6,2.6,0.2c0.7,0.8,0.6,1.9-0.2,2.6l0,0
							C161.9,135.7,157.9,139,154,139z"/>
						<path class="st29" d="M148.1,125.2h0.4c0.2,0,0.4,0.2,0.4,0.4v3.8c0,0.2-0.2,0.4-0.4,0.4h-0.4c-0.2,0-0.4-0.2-0.4-0.4v-3.8
							C147.6,125.4,147.8,125.2,148.1,125.2z"/>
						<path class="st29" d="M150.6,125.5h0.3c0.2,0,0.3,0.2,0.3,0.3v3.7c0,0.2-0.2,0.3-0.3,0.3h-0.3c-0.2,0-0.3-0.2-0.3-0.3v-3.7
							C150.2,125.7,150.4,125.5,150.6,125.5z"/>
					</g>
				</g>
				<path class="st14" d="M109.8,222.5c0,0,4.4,27,7.9,30.5c0,0-2.6,3.3-7.9,0c0,0-8.1-1.1-10.7,1.5c0,0-7.2,3.5-10.8-2.1
					c0,0-7.3-3-10.3,0c0,0-3.9,2.7-7.2-2.7c0,0,3.7-16.4,3.3-25.1L109.8,222.5z"/>
			</g>
		</g>
	</g>
</g>
</svg>
