<?xml version="1.0" encoding="utf-8"?>
<!-- Generator: Adobe Illustrator 25.2.3, SVG Export Plug-In . SVG Version: 6.00 Build 0)  -->
<svg version="1.1" id="Layer_1" xmlns="http://www.w3.org/2000/svg" xmlns:xlink="http://www.w3.org/1999/xlink" x="0px" y="0px"
	 viewBox="0 0 234.2 379.8" style="enable-background:new 0 0 234.2 379.8;" xml:space="preserve">
<style type="text/css">
	.st0{fill:#F4B155;}
	.st1{fill:#FFF0CC;}
	.st2{fill:#231F20;}
	.st3{clip-path:url(#SVGID_2_);}
	.st4{fill:#A4F6FF;}
	.st5{fill:#FFFFFF;}
	.st6{fill:#3F272D;}
	.st7{fill:#754854;}
	.st8{fill:#CC655A;}
	.st9{fill:#C97167;}
	.st10{fill:#74C7A7;}
	.st11{fill:#54585E;}
	.st12{fill:#F1F2F2;}
	.st13{fill:#DFD7CB;}
	.st14{fill:#F5F3EF;}
	.st15{fill:#8A7E70;}
	.st16{fill:#E6E7E8;}
	.st17{fill:#E4E6E1;}
	.st18{fill:#54323A;}
	.st19{fill:none;}
	.st20{fill:#80EAED;}
	.st21{fill:#66424D;}
	.st22{fill:#2E3F60;}
	.st23{fill:#EABD4E;}
	.st24{fill:#334572;}
	.st25{fill:#FFD150;}
	.st26{fill:#F5B155;}
	.st27{fill:#F4B055;}
	.st28{fill:#E4705E;}
	.st29{fill:#DD4F65;}
	.st30{fill:#AA334A;}
	.st31{fill:#47372E;}
	.st32{fill:#4A355B;}
	.st33{fill:#FFD351;}
	.st34{fill:#414042;}
</style>
<g id="Layer_2_1_">
	<g id="Layer_1-2">
		<path class="st0" d="M234.2,14.4v351c0,7.9-6.7,14.4-14.9,14.4H14.9c-8.2,0-14.9-6.4-14.9-14.4v-351C0,6.5,6.7,0,14.9,0h204.3
			C227.5,0,234.2,6.5,234.2,14.4z M221.6,357.1V22.8c0-5.9-4.8-10.7-10.8-10.8H23.3c-5.9,0-10.7,4.8-10.8,10.8v334.3
			c0,5.9,4.8,10.8,10.8,10.8h187.5C216.8,367.8,221.6,363,221.6,357.1z"/>
		<path class="st1" d="M23.3,12h187.5c6,0,10.8,4.8,10.8,10.8v334.3c0,6-4.8,10.8-10.8,10.8H23.3c-6,0-10.8-4.8-10.8-10.8V22.8
			C12.6,16.8,17.4,12,23.3,12z"/>
		<path class="st2" d="M37.1,325.9c-0.1-0.1-0.2-0.3-0.2-0.5v-9.9h-3.2c-0.2,0-0.4,0-0.5-0.1c-0.1-0.1-0.2-0.3-0.1-0.5v-0.5
			c0-0.2,0-0.4,0.1-0.5c0.1-0.1,0.3-0.2,0.5-0.1h8.6c0.2,0,0.4,0,0.5,0.1c0.1,0.1,0.2,0.3,0.1,0.5v0.5c0,0.2,0,0.4-0.1,0.5
			c-0.1,0.1-0.3,0.2-0.5,0.1h-3.2v9.9c0,0.2,0,0.3-0.2,0.5c-0.1,0.1-0.3,0.2-0.5,0.2h-0.9C37.4,326.1,37.3,326,37.1,325.9z"/>
		<path class="st2" d="M44.7,325.9c-0.1-0.1-0.2-0.3-0.2-0.5v-11c0-0.2,0-0.4,0.2-0.5c0.1-0.1,0.3-0.2,0.5-0.2h1
			c0.2,0,0.4,0,0.5,0.2c0.1,0.1,0.2,0.3,0.2,0.5v4.6h5.9v-4.6c0-0.2,0-0.4,0.2-0.5c0.1-0.1,0.3-0.2,0.5-0.2h0.9c0.2,0,0.4,0,0.5,0.2
			c0.1,0.1,0.2,0.3,0.2,0.5v11c0,0.2,0,0.3-0.2,0.5c-0.1,0.1-0.3,0.2-0.5,0.2h-0.9c-0.2,0-0.4,0-0.5-0.2c-0.1-0.1-0.2-0.3-0.2-0.5
			v-4.7h-6v4.7c0,0.2,0,0.3-0.2,0.5c-0.1,0.1-0.3,0.2-0.5,0.2h-1C44.9,326.1,44.8,326,44.7,325.9z"/>
		<path class="st2" d="M57.3,325.9c-0.1-0.1-0.2-0.3-0.2-0.5v-11c0-0.2,0-0.4,0.2-0.5c0.1-0.1,0.3-0.2,0.5-0.2h4.7
			c1.2-0.1,2.3,0.3,3.2,1c0.8,0.8,1.2,1.8,1.1,2.9c0,0.8-0.2,1.5-0.6,2.2c-0.4,0.6-1,1.1-1.7,1.4l2,4.5c0,0.1,0,0.1,0,0.2
			c0,0.2-0.1,0.3-0.3,0.3h-1.4c-0.1,0-0.2,0-0.3-0.1c-0.1-0.1-0.2-0.2-0.2-0.3l-1.8-4.3h-2.9v4c0,0.2,0,0.3-0.2,0.5
			c-0.1,0.1-0.3,0.2-0.5,0.2h-1C57.6,326.1,57.5,326,57.3,325.9z M62.1,319.7c0.7,0,1.3-0.1,1.9-0.5c0.4-0.4,0.6-1,0.6-1.6
			c0-0.6-0.2-1.2-0.6-1.6c-0.5-0.4-1.1-0.5-1.6-0.5h-2.9v4.2L62.1,319.7z"/>
		<path class="st2" d="M68.8,325.9c-0.1-0.1-0.2-0.3-0.2-0.5v-11c0-0.2,0-0.4,0.2-0.5c0.1-0.1,0.3-0.2,0.5-0.2h7.5
			c0.2,0,0.4,0,0.5,0.1c0.1,0.1,0.1,0.3,0.1,0.5v0.5c0,0.2,0,0.3-0.1,0.5c-0.1,0.1-0.3,0.2-0.5,0.2H71v3.5h4.3c0.2,0,0.4,0,0.5,0.1
			c0.1,0.1,0.2,0.3,0.1,0.5v0.5c0,0.2,0,0.4-0.1,0.5c-0.1,0.1-0.3,0.2-0.5,0.1H71v3.5h5.9c0.2,0,0.4,0,0.5,0.2
			c0.1,0.1,0.2,0.3,0.1,0.5v0.5c0,0.2,0,0.3-0.1,0.5c-0.1,0.1-0.3,0.2-0.5,0.1h-7.6C69.1,326,68.9,326,68.8,325.9z"/>
		<path class="st2" d="M79.2,325.9c-0.1-0.1-0.2-0.3-0.2-0.5v-11c0-0.2,0-0.4,0.2-0.5c0.1-0.1,0.3-0.2,0.5-0.2h7.5
			c0.2,0,0.4,0,0.5,0.1c0.1,0.1,0.1,0.3,0.1,0.5v0.5c0,0.2,0,0.3-0.1,0.5c-0.1,0.1-0.3,0.2-0.5,0.2h-5.9v3.5h4.3
			c0.2,0,0.4,0,0.5,0.1c0.1,0.1,0.2,0.3,0.1,0.5v0.5c0,0.2,0,0.4-0.1,0.5c-0.1,0.1-0.3,0.2-0.5,0.1h-4.3v3.5h5.9
			c0.2,0,0.4,0,0.5,0.2c0.1,0.1,0.2,0.3,0.1,0.5v0.5c0,0.2,0,0.3-0.1,0.5c-0.1,0.1-0.3,0.2-0.5,0.1h-7.5
			C79.5,326,79.4,326,79.2,325.9z"/>
		<path class="st2" d="M97.8,324.6c-2.1-2.8-2.1-6.7,0-9.5c2.6-2.3,6.5-2.3,9.2,0c2.1,2.8,2.1,6.7,0,9.5
			C104.3,326.9,100.4,326.9,97.8,324.6z M105.3,323.4c1.3-2.1,1.3-4.9,0-7c-1.6-1.6-4.2-1.6-5.8,0c0,0,0,0,0,0c-1.3,2.1-1.3,4.9,0,7
			C101,325,103.6,325,105.3,323.4C105.2,323.4,105.3,323.4,105.3,323.4z"/>
		<path class="st2" d="M110.5,325.9c-0.1-0.1-0.2-0.3-0.2-0.5v-11c0-0.2,0-0.4,0.2-0.5c0.1-0.1,0.3-0.2,0.5-0.2h7.5
			c0.2,0,0.4,0,0.5,0.1c0.1,0.1,0.1,0.3,0.1,0.5v0.5c0,0.2,0,0.3-0.1,0.5c-0.1,0.1-0.3,0.2-0.5,0.2h-5.9v3.5h4.3
			c0.2,0,0.4,0,0.5,0.1c0.1,0.1,0.2,0.3,0.1,0.5v0.5c0,0.2,0,0.4-0.1,0.5c-0.1,0.1-0.3,0.2-0.5,0.1h-4.3v4.6c0,0.2,0,0.3-0.2,0.5
			c-0.1,0.1-0.3,0.2-0.5,0.2h-1C110.8,326,110.6,326,110.5,325.9z"/>
		<path class="st2" d="M130.6,325.9c-0.1-0.1-0.2-0.2-0.2-0.4l-3.1-12.4c0-0.1,0-0.1,0-0.2c0-0.2,0.1-0.3,0.4-0.3h1.6
			c0.1,0,0.3,0,0.4,0.1c0.1,0.1,0.1,0.2,0.2,0.3l2,8.6l2.3-7.6c0-0.1,0.1-0.2,0.2-0.3c0.1-0.1,0.2-0.1,0.4-0.1h0.9
			c0.1,0,0.3,0,0.4,0.1c0.1,0.1,0.2,0.2,0.2,0.3l2.4,7.6l1.9-8.6c0-0.1,0.1-0.2,0.2-0.3c0.1-0.1,0.3-0.1,0.4-0.1h1.6
			c0.2,0,0.4,0.1,0.4,0.3c0,0.1,0,0.1,0,0.2l-3.1,12.4c0,0.1-0.1,0.3-0.2,0.4c-0.1,0.1-0.3,0.1-0.4,0.1h-1c-0.1,0-0.3,0-0.4-0.1
			c-0.1-0.1-0.2-0.2-0.2-0.4l-2.4-7.8l-2.4,7.8c0,0.1-0.1,0.3-0.2,0.4c-0.1,0.1-0.3,0.1-0.4,0.1h-1.1
			C131,326.1,130.8,326,130.6,325.9z"/>
		<path class="st2" d="M142.5,325.8c0-0.1,0-0.2,0.1-0.2l5.2-12.2c0.1-0.2,0.1-0.3,0.2-0.4c0.1-0.1,0.3-0.1,0.4-0.1h1.1
			c0.1,0,0.3,0,0.4,0.1c0.1,0.1,0.2,0.2,0.2,0.4l5.2,12.2c0,0.1,0.1,0.2,0.1,0.2c0,0.2-0.1,0.3-0.3,0.3h-1.7c-0.1,0-0.3,0-0.4-0.1
			c-0.1-0.1-0.2-0.2-0.2-0.3l-1.1-2.7h-5.4l-1.1,2.7c0,0.1-0.1,0.2-0.2,0.3c-0.1,0.1-0.2,0.1-0.4,0.1h-1.7
			C142.6,326.1,142.5,325.9,142.5,325.8z M151,321.1l-2.1-5.1l-2.1,5.1L151,321.1z"/>
		<path class="st2" d="M157.4,325.9c-0.1-0.1-0.2-0.3-0.2-0.5v-11.9c0-0.2,0-0.4,0.2-0.5c0.2-0.1,0.4-0.2,0.6-0.2h0.9
			c0.3,0,0.6,0.1,0.8,0.4l6.5,9v-8.6c-0.1-0.3,0.1-0.7,0.5-0.7c0.1,0,0.2,0,0.2,0h1c0.2,0,0.4,0,0.6,0.2c0.1,0.2,0.2,0.3,0.2,0.5
			v11.9c0.1,0.3-0.2,0.7-0.5,0.7c-0.1,0-0.1,0-0.2,0h-0.9c-0.3,0-0.6-0.1-0.7-0.4l-6.5-8.9v8.6c0,0.2,0,0.4-0.2,0.5
			c-0.2,0.1-0.4,0.2-0.6,0.2h-1C157.8,326.1,157.6,326,157.4,325.9z"/>
		<path class="st2" d="M171.1,325.9c-0.1-0.1-0.2-0.3-0.2-0.5v-11.9c0-0.2,0-0.4,0.2-0.5c0.2-0.1,0.4-0.2,0.6-0.2h3.9
			c1.8-0.1,3.6,0.4,5.1,1.6c1.2,1.1,1.8,2.8,1.8,5.1c0,4.4-2.3,6.7-6.8,6.7h-3.9C171.4,326.1,171.2,326,171.1,325.9z M175.7,324.1
			c1.1,0.1,2.3-0.3,3.1-1.1c1.4-2.3,1.4-5.1,0-7.4c-0.9-0.8-2-1.1-3.1-1.1h-2.3v9.5H175.7z"/>
		<path class="st2" d="M185.4,326c-0.8-0.2-1.5-0.4-2.1-0.9c-0.2-0.1-0.2-0.2-0.2-0.3c0-0.1,0-0.2,0.1-0.2l0.6-1
			c0.1-0.1,0.2-0.2,0.2-0.2c0.1,0,0.2,0,0.3,0.1c0.5,0.3,1.1,0.5,1.7,0.7c0.6,0.2,1.3,0.3,1.9,0.3c0.7,0,1.4-0.1,2-0.4
			c0.5-0.3,0.7-0.9,0.7-1.4c0-0.3-0.1-0.7-0.2-0.9c-0.2-0.3-0.5-0.5-0.8-0.6c-0.3-0.2-0.9-0.4-1.6-0.7l-0.4-0.2
			c-0.7-0.3-1.4-0.6-2.1-1c-0.5-0.3-1-0.7-1.4-1.2c-0.4-0.5-0.6-1.2-0.5-1.9c0-1.1,0.5-2.1,1.4-2.8c1.1-0.7,2.3-1.1,3.6-1
			c0.8,0,1.6,0.1,2.3,0.3c0.6,0.1,1.2,0.4,1.7,0.8c0.2,0.1,0.2,0.2,0.2,0.3c0,0.1,0,0.2-0.1,0.2l-0.6,1c-0.1,0.1-0.1,0.2-0.2,0.2
			c-0.1,0-0.2-0.1-0.2-0.1c-0.9-0.6-2-0.8-3.1-0.8c-0.7,0-1.3,0.1-1.9,0.5c-0.4,0.3-0.7,0.9-0.6,1.4c0,0.4,0.1,0.7,0.3,1
			c0.2,0.3,0.5,0.5,0.8,0.6c0.3,0.2,0.9,0.4,1.6,0.7l0.5,0.2c0.8,0.3,1.5,0.6,2.2,1c0.5,0.3,0.9,0.7,1.2,1.2
			c0.3,0.6,0.5,1.2,0.4,1.8c0,1-0.4,2-1.3,2.6c-1.1,0.7-2.3,1.1-3.6,1C187.2,326.3,186.3,326.2,185.4,326z"/>
		<g>
			<defs>
				<path id="SVGID_1_" d="M53.8,45.5h128.5c13.6,0,24.7,11.1,24.7,24.7v191.6c0,13.6-11.1,24.7-24.7,24.7H53.8
					c-13.6,0-24.7-11.1-24.7-24.7V70.2C29.1,56.6,40.1,45.5,53.8,45.5z"/>
			</defs>
			<clipPath id="SVGID_2_">
				<use xlink:href="#SVGID_1_"  style="overflow:visible;"/>
			</clipPath>
			<g class="st3">
				<polygon class="st4" points="216.4,3.6 23.3,3.6 23.3,200.9 23.3,223.8 23.3,331.9 216.3,331.9 216.3,223.8 216.4,223.8 				"/>
				<path class="st5" d="M151.7,85.7h33.5c2.4,0,4.3-1.9,4.3-4.3l0,0c0-2.4-1.9-4.3-4.3-4.3h-33.5c-2.4,0-4.3,1.9-4.3,4.3l0,0
					C147.4,83.7,149.4,85.7,151.7,85.7z"/>
				<circle class="st5" cx="172.8" cy="74.9" r="10.8"/>
				<circle class="st5" cx="160.9" cy="78" r="7.7"/>
				<polygon class="st6" points="29.1,105.8 62.4,123.1 163.8,127.2 198.7,148.9 77.1,164.8 25,164.8 				"/>
				<path class="st5" d="M73.7,99.6H49.2c-1.7,0-3.2-1.4-3.2-3.2l0,0c0-1.7,1.4-3.2,3.2-3.2h24.5c1.7,0,3.2,1.4,3.2,3.2l0,0
					C76.9,98.2,75.5,99.6,73.7,99.6z"/>
				<circle class="st5" cx="58.4" cy="91.8" r="7.9"/>
				<path class="st5" d="M72.6,94c0,3.1-2.5,5.6-5.6,5.6s-5.6-2.5-5.6-5.6c0-3.1,2.5-5.6,5.6-5.6l0,0C70.1,88.4,72.6,90.9,72.6,94z"
					/>
				<polygon class="st7" points="210.9,172.9 25.2,172.9 25.2,267.8 25.2,278.8 25.2,330.8 210.8,330.8 210.8,278.8 210.9,278.8 
									"/>
				<polygon class="st8" points="121,147.5 145.4,144.5 160.4,152.1 182.8,148.2 205.8,161.2 200.4,173.2 160.4,173.2 				"/>
				<path class="st9" d="M162,160.9c0.1-0.1,0.2-0.2,0.3-0.3c0.1-0.4,0-0.8-0.1-1.1c-2.8-6.6-5.9-13.1-9.5-19.3
					c-2.9-5.1-6.1-10.1-10.4-13.4c-4.7-3.5-10.1-10.8-15.7-11.2c-3.3-0.3-7,5.8-10.2,4.5s-5.7-3.7-8.7-4.9c-2.8-1-5.7-1.4-8.7-1.3
					c-8.8-0.3-17.9-0.5-26.1,3.4c-2.2,1-4.3,2.3-6.5,3.2c-8.7,3.4-18.4,0.1-27.2,3.4s-15,13.1-20.3,22.3c-2.4,3.8-4.4,8-5.8,12.3
					c-0.3,0.9-0.6,1.7-0.8,2.5H162z"/>
				<path class="st10" d="M138.3,123.8c-0.1,0.4-1.3,0.5-2.6,0.2s-2.3-1-2.2-1.4s1.3-0.5,2.6-0.2S138.4,123.4,138.3,123.8z"/>
				<path class="st10" d="M139.5,120.6c0.3-0.1,0.6-0.3,0.7-0.7c0.2-0.7-0.7-1.6-2-1.9c-0.2-0.1-0.5-0.1-0.7-0.1
					c-0.5-0.5-1.1-0.8-1.7-1h-0.2c0.1-0.1,0.1-0.1,0.1-0.2c0.2-0.7-0.7-1.6-2-1.9s-2.5-0.1-2.7,0.6c0,0.1,0,0.2,0,0.3
					c-0.2-0.1-0.5-0.2-0.7-0.3c-1.3-0.4-2.5-0.1-2.7,0.6c-0.1,0.4,0.1,0.8,0.4,1.1c-1.2-0.2-2.3,0-2.4,0.7s0.7,1.6,2,1.9
					c0.7,0.2,1.5,0.2,2.2-0.1c0.4,0.2,0.7,0.4,1.1,0.5c0.7,0.2,1.5,0.2,2.2-0.1c0.5,0.4,1.1,0.8,1.8,0.9c0.5,0.1,1,0.2,1.6,0.2
					c-0.1,0.7,0.8,1.5,2,1.9s2.5,0.1,2.7-0.6S140.5,121,139.5,120.6z"/>
				<path class="st10" d="M143,127.1c0.3-0.1,0.5-0.3,0.6-0.6c0.2-0.7-0.6-1.4-1.8-1.8l-0.3-0.1c0.1-0.1,0.2-0.2,0.2-0.3
					c0.2-0.7-0.6-1.4-1.8-1.8c-0.3-0.1-0.5-0.1-0.8-0.1c-0.3-0.8-0.9-1.4-1.8-1.6c-1.2-0.3-2.3,0-2.5,0.8c0,0,0,0.1,0,0.1
					c-0.3-0.2-0.7-0.4-1.1-0.5c-0.7-0.2-1.4-0.2-2.1,0.1c-0.3-0.5-0.7-0.8-1.2-1c0.1-0.1,0.2-0.2,0.2-0.4c0.2-0.8-0.6-1.7-1.8-2
					c-0.9-0.4-1.9-0.1-2.5,0.6c-0.3-0.2-0.7-0.4-1.1-0.5c-1.2-0.3-2.3,0-2.5,0.8c-0.1,0.2-0.1,0.4,0,0.6c-1.1-0.2-2,0.1-2.1,0.7
					s0.7,1.4,1.8,1.8c0.1,0,0.2,0.1,0.4,0.1c0,0.1-0.1,0.1-0.1,0.2c-0.2,0.7,0.6,1.4,1.8,1.8s2.3,0.1,2.5-0.6
					c0.1-0.4-0.1-0.8-0.5-1.1c0.4,0.1,0.9,0.1,1.3,0c0.3,0.3,0.7,0.5,1.2,0.7c-0.1,0.1-0.1,0.1-0.1,0.2c-0.2,0.7,0.6,1.4,1.8,1.8
					c0.6,0.2,1.2,0.2,1.7,0h0.1c-0.1,0.1-0.1,0.2-0.1,0.3c-0.2,0.7,0.6,1.4,1.8,1.8s2.3,0.1,2.5-0.6c0.2,0.1,0.4,0.1,0.5,0.2
					c1.1,0.3,2.2,0.1,2.4-0.5c0.2,0.2,0.5,0.4,0.8,0.5c-0.1,0.1-0.1,0.2-0.2,0.3c-0.1,0.5,0.5,1.1,1.4,1.3s1.7,0.1,1.9-0.4
					C143.6,127.7,143.4,127.4,143,127.1z"/>
				<path class="st10" d="M131.7,119.9c-0.1,0.6-1.6,0.6-3.2,0.2s-2.8-1.2-2.7-1.8s1.6-0.6,3.2-0.2
					C130.7,118.6,131.9,119.4,131.7,119.9z"/>
				<path class="st10" d="M133,117.9c0.4-0.1,0.8-0.4,0.9-0.8c0.2-0.9-0.9-2-2.5-2.4c-0.3-0.1-0.6-0.1-0.9-0.2
					c-0.6-0.6-1.3-1-2.1-1.2l-0.2-0.1c0.1-0.1,0.1-0.2,0.1-0.3c0.2-0.9-0.9-1.9-2.5-2.4s-3.1-0.1-3.4,0.8c0,0.1,0,0.3,0,0.4
					c-0.3-0.1-0.6-0.3-0.9-0.3c-1.6-0.4-3.1-0.1-3.4,0.8c-0.1,0.5,0.1,1,0.5,1.3c-1.5-0.3-2.8,0.1-3,0.9s0.9,2,2.5,2.4
					c0.9,0.3,1.9,0.3,2.8-0.1c0.4,0.3,0.9,0.5,1.4,0.6c0.9,0.3,1.9,0.3,2.7-0.1c0.6,0.6,1.4,0.9,2.2,1.1c0.6,0.2,1.3,0.3,1.9,0.2
					c-0.2,0.9,0.9,1.9,2.5,2.3s3.1,0.1,3.4-0.8S134.3,118.4,133,117.9z"/>
				<path class="st10" d="M137.6,124c0.3-0.1,0.6-0.4,0.7-0.7c0.2-0.8-0.8-1.8-2.3-2.2l-0.3-0.1c0.1-0.1,0.2-0.3,0.3-0.4
					c0.2-0.8-0.8-1.8-2.3-2.2c-0.3-0.1-0.7-0.1-1-0.2c-0.3-1-1.2-1.8-2.2-2c-1.5-0.4-2.9,0-3.1,1v0.2c-0.4-0.3-0.8-0.5-1.3-0.6
					c-0.8-0.3-1.8-0.2-2.6,0.1c-0.3-0.6-0.9-1-1.5-1.2c0.1-0.1,0.2-0.3,0.2-0.5c0.3-1-0.7-2.1-2.2-2.5s-2.6,0-3,0.8
					c-0.4-0.3-0.8-0.5-1.3-0.7c-1.5-0.4-2.9,0.1-3.1,1c-0.1,0.2-0.1,0.5,0,0.8c-1.3-0.2-2.4,0.1-2.6,0.8s0.8,1.8,2.3,2.2l0.4,0.1
					c0,0.1-0.1,0.2-0.1,0.2c-0.2,0.8,0.8,1.8,2.3,2.2s2.9,0.1,3.1-0.7c0.1-0.5-0.2-1.1-0.6-1.3c0.5,0.1,1.1,0.1,1.6,0
					c0.4,0.4,0.9,0.7,1.4,0.8c-0.1,0.1-0.1,0.2-0.2,0.3c-0.2,0.8,0.8,1.8,2.3,2.2c0.7,0.2,1.4,0.2,2.1,0.1h0.1
					c-0.1,0.1-0.1,0.2-0.2,0.3c-0.2,0.8,0.8,1.8,2.3,2.2s2.9,0.1,3.1-0.7c0.2,0.1,0.4,0.2,0.7,0.2c1.4,0.4,2.7,0.1,3-0.6
					c0.3,0.3,0.6,0.5,1,0.6c-0.1,0.1-0.2,0.2-0.2,0.3c-0.2,0.6,0.6,1.3,1.7,1.7s2.1,0.1,2.3-0.6C138.4,124.8,138.1,124.3,137.6,124z
					"/>
				<rect x="96.9" y="107.4" class="st5" width="16.4" height="12.4"/>
				<rect x="98.6" y="109.9" class="st11" width="2.5" height="2.5"/>
				<rect x="103.8" y="109.9" class="st11" width="2.5" height="2.5"/>
				<rect x="109.1" y="109.9" class="st11" width="2.5" height="2.5"/>
				<rect x="98.6" y="113.9" class="st11" width="2.5" height="2.5"/>
				<rect x="103.8" y="113.9" class="st11" width="2.5" height="2.5"/>
				<rect x="109.1" y="113.9" class="st11" width="2.5" height="2.5"/>
				<path class="st12" d="M115.2,107.4H95c-0.1,0-0.2-0.1-0.2-0.2c0-0.1,0-0.2,0.1-0.2l9.5-5.8c0.5-0.3,1.1-0.3,1.5,0l9.5,5.8
					c0.1,0.1,0.1,0.2,0.1,0.3C115.4,107.4,115.3,107.4,115.2,107.4z"/>
				<path class="st10" d="M103.4,115.4c0,0.5-1,0.8-2.3,0.8s-2.3-0.4-2.3-0.8s1-0.8,2.3-0.8S103.4,115,103.4,115.4z"/>
				<path class="st10" d="M103.7,112c0.3-0.2,0.5-0.5,0.5-0.8c0-0.7-1-1.3-2.3-1.3c-0.2,0-0.5,0-0.7,0.1c-0.5-0.3-1.2-0.5-1.8-0.5
					h-0.2c0-0.1,0-0.2,0-0.2c0-0.7-1-1.3-2.3-1.3s-2.3,0.6-2.3,1.3c0,0.1,0,0.2,0.1,0.3c-0.2,0-0.5-0.1-0.7-0.1
					c-1.3,0-2.3,0.6-2.3,1.3c0,0.4,0.3,0.7,0.6,0.9c-1.2,0.1-2,0.6-2,1.3s1,1.3,2.3,1.3c0.7,0,1.4-0.2,2-0.7
					c0.4,0.1,0.8,0.2,1.2,0.2c0.7,0,1.4-0.2,2-0.7c0.6,0.3,1.2,0.4,1.8,0.4c0.5,0,1-0.1,1.5-0.2c0,0.7,1.1,1.3,2.3,1.3
					s2.3-0.6,2.3-1.3S104.8,112.1,103.7,112z"/>
				<path class="st10" d="M108.6,117.3c0.2-0.2,0.4-0.4,0.4-0.7c0-0.7-1-1.2-2.1-1.2h-0.3c0.1-0.1,0.1-0.2,0.1-0.4
					c0-0.7-1-1.2-2.1-1.2c-0.3,0-0.5,0-0.8,0.1c-0.4-0.7-1.2-1.1-2-1.1c-1.2,0-2.1,0.7-2.1,1.5c0,0,0,0.1,0,0.1
					c-0.3-0.1-0.7-0.2-1.1-0.2c-0.7,0-1.4,0.2-1.9,0.7c-0.4-0.4-0.8-0.6-1.3-0.7c0.1-0.1,0.1-0.3,0.1-0.4c0-0.8-0.9-1.5-2.1-1.5
					c-0.9-0.1-1.8,0.4-2.1,1.3c-0.4-0.1-0.7-0.2-1.1-0.2c-1.2,0-2.1,0.7-2.1,1.5c0,0.2,0.1,0.4,0.2,0.6c-1,0.1-1.8,0.6-1.8,1.2
					s0.9,1.2,2.1,1.2H89c0,0.1,0,0.1,0,0.2c0,0.7,1,1.2,2.1,1.2s2.1-0.5,2.1-1.2c0-0.4-0.3-0.8-0.7-0.9c0.4,0,0.8-0.1,1.2-0.3
					c0.4,0.2,0.8,0.3,1.2,0.3c0,0.1,0,0.2,0,0.3c0,0.7,0.9,1.2,2.1,1.2c0.6,0,1.1-0.1,1.6-0.4h0.1c0,0.1-0.1,0.2-0.1,0.3
					c0,0.7,1,1.2,2.1,1.2s2.1-0.5,2.1-1.2c0.2,0,0.4,0,0.5,0c1.1,0,2-0.5,2.1-1.1c0.3,0.1,0.5,0.2,0.8,0.3c-0.1,0.1-0.1,0.2-0.1,0.3
					c0,0.5,0.7,0.9,1.6,0.9s1.6-0.4,1.6-0.9C109.2,117.8,109,117.5,108.6,117.3z"/>
				<path class="st10" d="M96.5,113.4c0,0.6-1.3,1-2.9,1s-2.9-0.5-2.9-1s1.3-1,2.9-1S96.5,112.8,96.5,113.4z"/>
				<path class="st10" d="M97.2,111.1c0.4-0.2,0.6-0.6,0.6-1c0-0.9-1.3-1.7-2.9-1.7c-0.3,0-0.6,0-0.9,0.1c-0.7-0.4-1.4-0.6-2.2-0.6
					h-0.2c0-0.1,0-0.2,0-0.3c0-0.9-1.3-1.7-2.9-1.7s-2.9,0.7-2.9,1.7c0,0.1,0.1,0.3,0.2,0.4c-0.3-0.1-0.6-0.1-0.9-0.1
					c-1.6,0-2.9,0.7-2.9,1.7c0,0.5,0.3,0.9,0.8,1.1c-1.4,0.1-2.5,0.8-2.5,1.6s1.2,1.7,2.8,1.7c0.9,0,1.8-0.2,2.5-0.8
					c0.5,0.1,1,0.2,1.4,0.2c0.9,0,1.8-0.2,2.4-0.8c0.7,0.4,1.5,0.5,2.3,0.5c0.6,0,1.2-0.1,1.8-0.3c0.1,0.9,1.3,1.6,2.9,1.6
					s2.9-0.7,2.9-1.7S98.5,111.2,97.2,111.1z"/>
				<path class="st10" d="M102.8,115.7c0.3-0.2,0.5-0.5,0.5-0.9c0-0.8-1.2-1.5-2.6-1.5h-0.3c0.1-0.1,0.1-0.3,0.1-0.5
					c0-0.8-1.2-1.5-2.6-1.5c-0.3,0-0.7,0-1,0.1c-0.5-0.9-1.5-1.4-2.5-1.3c-1.4,0-2.6,0.8-2.6,1.8c0,0.1,0,0.1,0,0.2
					c-0.4-0.1-0.9-0.2-1.3-0.2c-0.9,0-1.7,0.2-2.3,0.8c-0.4-0.4-1-0.7-1.7-0.8c0.1-0.2,0.1-0.3,0.1-0.5c0-1-1.2-1.8-2.6-1.8
					c-1.1-0.1-2.2,0.5-2.6,1.6c-0.4-0.2-0.9-0.3-1.4-0.3c-1.4,0-2.6,0.8-2.6,1.8c0,0.3,0.1,0.5,0.2,0.7c-1.2,0.1-2.2,0.7-2.2,1.5
					s1.2,1.5,2.6,1.5h0.4c0,0.1,0,0.2,0,0.3c0,0.8,1.2,1.5,2.6,1.5s2.6-0.7,2.6-1.5c-0.1-0.5-0.4-1-0.9-1.1c0.5,0,1-0.2,1.4-0.4
					c0.5,0.3,1,0.4,1.5,0.4c0,0.1-0.1,0.2-0.1,0.3c0,0.8,1.2,1.5,2.6,1.5c0.7,0,1.4-0.1,2-0.5h0.1c-0.1,0.1-0.1,0.2-0.1,0.4
					c0,0.8,1.2,1.5,2.6,1.5s2.6-0.7,2.6-1.5c0.2,0,0.4,0,0.7,0c1.4,0,2.5-0.6,2.6-1.4c0.3,0.2,0.6,0.3,1,0.4
					c-0.1,0.1-0.1,0.2-0.1,0.4c0,0.6,0.9,1.1,2,1.1s2-0.5,2-1.1C103.7,116.3,103.4,115.9,102.8,115.7z"/>
				<path class="st10" d="M73.7,119.9c0.1,0.4-1,1-2.3,1.1s-2.5,0-2.6-0.5s1-1,2.3-1.1S73.7,119.4,73.7,119.9z"/>
				<path class="st10" d="M73.6,116.4c0.3-0.2,0.4-0.5,0.4-0.9c-0.1-0.7-1.3-1.2-2.6-1c-0.3,0-0.5,0.1-0.7,0.2
					c-0.6-0.3-1.3-0.4-2-0.2h-0.2c0-0.1,0-0.2,0-0.2c-0.1-0.7-1.3-1.2-2.6-1s-2.4,0.9-2.3,1.6c0,0.1,0.1,0.2,0.1,0.3
					c-0.3,0-0.5,0-0.8,0c-1.3,0.2-2.4,0.9-2.3,1.6c0.1,0.4,0.4,0.7,0.8,0.8c-1.2,0.2-2.1,0.9-2,1.6s1.3,1.2,2.6,1
					c0.8-0.1,1.5-0.4,2-0.9c0.4,0.1,0.8,0.1,1.2,0c0.8-0.1,1.5-0.4,2-0.9c0.6,0.2,1.3,0.3,2,0.2c0.5-0.1,1-0.2,1.5-0.4
					c0.1,0.7,1.3,1.1,2.6,0.9s2.4-0.9,2.3-1.6S74.7,116.4,73.6,116.4z"/>
				<path class="st10" d="M79.4,121.1c0.2-0.2,0.3-0.5,0.3-0.7c-0.1-0.7-1.2-1.1-2.4-0.9H77c0.1-0.1,0.1-0.3,0.1-0.4
					c-0.1-0.7-1.2-1.1-2.4-0.9c-0.3,0-0.5,0.1-0.8,0.2c-0.5-0.7-1.4-1-2.3-0.8c-1.2,0.2-2.1,0.9-2,1.7c0,0,0,0.1,0,0.1
					c-0.4-0.1-0.8-0.1-1.2,0c-0.7,0.1-1.4,0.4-1.9,0.9c-0.4-0.3-1-0.5-1.5-0.5c0.1-0.1,0.1-0.3,0.1-0.4c-0.1-0.8-1.2-1.3-2.4-1.2
					s-2,0.8-2,1.5c-0.4-0.1-0.8-0.1-1.2-0.1c-1.2,0.2-2.1,0.9-2,1.7c0,0.2,0.1,0.4,0.2,0.6c-1,0.2-1.8,0.8-1.7,1.4s1.2,1.1,2.4,0.9
					l0.4-0.1c0,0.1,0,0.1,0,0.2c0.1,0.7,1.2,1.1,2.4,0.9s2.2-0.8,2.1-1.5c0-0.4-0.4-0.7-0.9-0.8c0.4-0.1,0.8-0.2,1.2-0.5
					c0.4,0.2,0.9,0.2,1.3,0.2c0,0.1,0,0.2,0,0.3c0.1,0.7,1.2,1.1,2.4,0.9c0.6-0.1,1.1-0.3,1.6-0.6H69c0,0.1,0,0.2,0,0.3
					c0.1,0.7,1.2,1.1,2.4,0.9s2.2-0.8,2.1-1.5c0.2,0,0.4,0,0.6,0c1.2-0.2,2-0.8,2.1-1.4c0.3,0.1,0.6,0.2,0.9,0.2
					c0,0.1-0.1,0.2-0.1,0.3c0.1,0.5,0.9,0.8,1.8,0.7s1.6-0.6,1.6-1.1C80.2,121.4,79.8,121.2,79.4,121.1z"/>
				<path class="st10" d="M66.2,118.8c0.1,0.6-1.2,1.2-2.9,1.4s-3.1-0.1-3.2-0.6s1.2-1.2,2.9-1.4C64.7,118,66.1,118.2,66.2,118.8z"
					/>
				<path class="st10" d="M66.6,116.5c0.4-0.3,0.6-0.7,0.5-1.1c-0.1-0.9-1.6-1.5-3.2-1.2c-0.3,0-0.6,0.1-0.9,0.2
					c-0.8-0.3-1.6-0.4-2.4-0.3h-0.3c0-0.1,0-0.2,0-0.3c-0.1-0.9-1.6-1.5-3.2-1.2s-2.9,1.1-2.8,2c0,0.1,0.1,0.3,0.1,0.4
					c-0.3,0-0.7,0-1,0c-1.7,0.2-2.9,1.1-2.8,2c0.1,0.5,0.5,0.9,1,1c-1.5,0.3-2.6,1.1-2.5,2s1.6,1.5,3.2,1.2c0.9-0.1,1.8-0.5,2.5-1.1
					c0.5,0.1,1,0.1,1.5,0c0.9-0.1,1.8-0.5,2.5-1.1c0.8,0.3,1.6,0.4,2.5,0.2c0.6-0.1,1.3-0.3,1.9-0.6c0.2,0.9,1.6,1.4,3.2,1.2
					s2.9-1.1,2.8-2S68,116.4,66.6,116.5z"/>
				<path class="st10" d="M73.2,120.3c0.3-0.2,0.4-0.6,0.4-0.9c-0.1-0.8-1.4-1.3-2.9-1.2l-0.3,0.1c0.1-0.2,0.1-0.3,0.1-0.5
					c-0.1-0.8-1.4-1.3-2.9-1.1c-0.3,0-0.7,0.1-1,0.2c-0.7-0.8-1.7-1.2-2.8-1c-1.5,0.2-2.6,1.2-2.5,2.1v0.2c-0.5-0.1-0.9-0.1-1.4,0
					c-0.9,0.1-1.7,0.5-2.3,1.1c-0.5-0.4-1.2-0.6-1.8-0.6c0.1-0.2,0.1-0.4,0.1-0.5c-0.1-1-1.5-1.6-3-1.4s-2.5,1-2.5,1.9
					c-0.5-0.1-1-0.2-1.5-0.1c-1.5,0.2-2.6,1.2-2.5,2.2c0,0.3,0.1,0.5,0.3,0.7c-1.3,0.3-2.2,1-2.1,1.8s1.4,1.3,3,1.2l0.5-0.1
					c0,0.1,0,0.2,0,0.3c0.1,0.8,1.4,1.3,3,1.2s2.7-1,2.6-1.8c0-0.4-0.5-0.8-1.1-1c0.5-0.1,1-0.3,1.5-0.6c0.5,0.2,1.1,0.3,1.7,0.2
					c0,0.1,0,0.2,0,0.3c0.1,0.8,1.4,1.3,2.9,1.1c0.7-0.1,1.4-0.3,2-0.8h0.1c0,0.1,0,0.2,0,0.4c0.1,0.8,1.4,1.3,2.9,1.2
					c1.5-0.2,2.7-1,2.6-1.8c0.2,0,0.5,0,0.7,0c1.4-0.2,2.5-0.9,2.6-1.7c0.4,0.1,0.7,0.2,1.1,0.2c-0.1,0.1-0.1,0.2-0.1,0.4
					c0.1,0.6,1.1,1,2.2,0.9s2-0.8,1.9-1.4C74.1,120.7,73.7,120.4,73.2,120.3z"/>
				<path class="st12" d="M81.8,106.5v-1.1c0-6-4.8-10.8-10.8-10.8h-0.2c-6,0-10.8,4.8-10.8,10.8v1.1H81.8z"/>
				<rect x="59.9" y="104.8" class="st13" width="21.8" height="27.5"/>
				<rect x="66.5" y="104.8" class="st14" width="8.6" height="27.5"/>
				<path class="st15" d="M73.4,117.3h-5.1v-5.9c0-1.4,1.1-2.5,2.5-2.5c0,0,0,0,0,0l0,0c1.4,0,2.5,1.1,2.5,2.5c0,0,0,0,0,0
					L73.4,117.3z"/>
				<path class="st15" d="M79.9,117.3h-3.6v-5.9c0-1.4,0.8-2.5,1.8-2.5l0,0c1,0,1.8,1.1,1.8,2.5L79.9,117.3z"/>
				<path class="st15" d="M65.3,117.3h-3.5v-5.9c0-1.4,0.8-2.5,1.7-2.5l0,0c0.9,0,1.7,1.1,1.7,2.5L65.3,117.3z"/>
				<path class="st12" d="M151.6,120.2v-0.8c0-4.4-3.5-7.9-7.9-7.9h-0.2c-4.4,0-7.9,3.5-7.9,7.9c0,0,0,0,0,0v0.8H151.6z"/>
				<rect x="135.7" y="118.9" class="st13" width="16" height="20.1"/>
				<rect x="140.5" y="118.9" class="st14" width="6.3" height="20.1"/>
				<path class="st15" d="M145.5,128.1h-3.7v-4.3c0-1,0.8-1.8,1.8-1.8c0,0,0,0,0,0l0,0c1,0,1.8,0.8,1.8,1.8c0,0,0,0,0,0L145.5,128.1
					z"/>
				<path class="st15" d="M150.3,128.1h-2.6v-4.3c0-1,0.6-1.8,1.3-1.8l0,0c0.7,0,1.3,0.8,1.3,1.8L150.3,128.1z"/>
				<path class="st15" d="M139.6,128.1H137v-4.3c0-1,0.6-1.8,1.3-1.8l0,0c0.7,0,1.3,0.8,1.3,1.8L139.6,128.1z"/>
				<rect x="127.1" y="139.1" class="st5" width="28.5" height="21.8"/>
				<polygon class="st12" points="121.6,140.9 161.1,140.9 151.7,132.9 131,132.9 				"/>
				<rect x="133.5" y="146.1" class="st11" width="15.7" height="12.8"/>
				<path class="st5" d="M132.1,144v16.9h18.6V144H132.1z M149,158.8h-15.2v-12.6H149V158.8z"/>
				<path class="st10" d="M26.6,130.9c0,0.4,1.2,0.7,2.5,0.6s2.4-0.6,2.4-1s-1.2-0.7-2.5-0.6S26.5,130.4,26.6,130.9z"/>
				<path class="st10" d="M26,127.4c-0.3-0.1-0.5-0.4-0.6-0.8c-0.1-0.7,1-1.4,2.3-1.5c0.2,0,0.5,0,0.8,0c0.5-0.4,1.2-0.6,1.9-0.7
					h0.2c0-0.1-0.1-0.2-0.1-0.2c-0.1-0.7,1-1.4,2.3-1.5c1.3-0.1,2.5,0.4,2.6,1.1c0,0.1,0,0.2,0,0.3c0.3-0.1,0.5-0.1,0.8-0.1
					c1.3-0.1,2.5,0.4,2.6,1.1c0,0.4-0.2,0.8-0.6,1c1.2,0,2.2,0.4,2.3,1.1s-1,1.4-2.3,1.5c-0.8,0.1-1.5-0.1-2.2-0.5
					c-0.4,0.2-0.8,0.3-1.2,0.3c-0.7,0.1-1.5-0.1-2.2-0.5c-0.6,0.3-1.2,0.5-1.9,0.6c-0.5,0.1-1.1,0-1.6-0.1c0,0.7-1,1.4-2.3,1.5
					s-2.5-0.4-2.6-1.1S24.9,127.6,26,127.4z"/>
				<path class="st10" d="M20.6,134c0,0.5,0.8,0.9,1.8,0.8s1.6-0.6,1.6-1.1c0-0.1,0-0.2-0.1-0.3c0.3-0.1,0.6-0.2,0.9-0.4
					c0.2,0.6,1.2,1,2.3,0.9c0.2,0,0.4,0,0.6-0.1c0.1,0.7,1.1,1.1,2.3,1s2.2-0.7,2.1-1.4c0-0.1,0-0.2-0.1-0.3h0
					c0.5,0.2,1.1,0.3,1.7,0.3c1.2-0.1,2.2-0.7,2.1-1.4c0-0.1,0-0.2-0.1-0.2c0.5,0,0.9-0.2,1.3-0.4c0.4,0.2,0.8,0.2,1.3,0.2
					c-0.4,0.2-0.7,0.6-0.7,1c0.1,0.7,1.1,1.1,2.3,1s2.2-0.7,2.1-1.4c0-0.1,0-0.1,0-0.2h0.4c1.2-0.1,2.2-0.7,2.1-1.4s-0.9-1-2-1
					c0.1-0.2,0.1-0.4,0.1-0.6c-0.1-0.8-1.1-1.4-2.3-1.3c-0.4,0-0.8,0.1-1.2,0.3c-0.4-0.8-1.4-1.3-2.3-1.1c-1.2,0.1-2.2,0.8-2.1,1.7
					c0,0.1,0.1,0.3,0.2,0.4c-0.5,0.1-1,0.4-1.4,0.8c-0.6-0.4-1.3-0.6-2-0.5c-0.4,0-0.8,0.1-1.1,0.3v-0.1c-0.1-0.8-1.1-1.4-2.3-1.3
					c-0.9,0-1.6,0.5-2,1.2c-0.3,0-0.5,0-0.8,0c-1.2,0.1-2.2,0.7-2.1,1.4c0,0.1,0.1,0.3,0.1,0.4H23c-1.2,0.1-2.2,0.7-2.1,1.4
					c0,0.3,0.2,0.5,0.5,0.7C20.9,133.4,20.6,133.7,20.6,134z"/>
				<path class="st10" d="M33.7,128.2c0,0.6,1.5,0.9,3.1,0.8s3-0.7,3-1.3s-1.5-0.9-3.1-0.8S33.7,127.6,33.7,128.2z"/>
				<path class="st10" d="M32.8,126c-0.4-0.2-0.7-0.6-0.8-1c-0.1-0.9,1.2-1.8,2.9-1.9c0.3,0,0.6,0,0.9,0c0.7-0.5,1.5-0.8,2.3-0.8
					h0.3c0-0.1-0.1-0.2-0.1-0.3c-0.1-0.9,1.2-1.8,2.9-1.9s3.1,0.5,3.2,1.4c0,0.1,0,0.3,0,0.4c0.3-0.1,0.7-0.1,1-0.2
					c1.7-0.1,3.1,0.5,3.2,1.4c0,0.5-0.3,1-0.7,1.2c1.5,0,2.7,0.6,2.8,1.4s-1.2,1.8-2.9,1.9c-1,0.2-2,0-2.8-0.6
					c-0.5,0.2-1,0.3-1.5,0.3c-0.9,0.1-1.9-0.1-2.7-0.6c-0.7,0.4-1.5,0.7-2.3,0.7c-0.7,0.1-1.3,0-2-0.1c0,0.9-1.2,1.7-2.9,1.8
					s-3.1-0.5-3.2-1.4S31.4,126.2,32.8,126z"/>
				<path class="st10" d="M26.4,132.1c0,0.6,1,1.1,2.2,1s2-0.7,2-1.3c0-0.1-0.1-0.3-0.1-0.4c0.4-0.1,0.7-0.3,1.1-0.5
					c0.2,0.8,1.4,1.2,2.9,1.1c0.2,0,0.4-0.1,0.7-0.1c0.1,0.8,1.4,1.4,2.9,1.3s2.7-0.9,2.6-1.7c0-0.1,0-0.2-0.1-0.4h0.1
					c0.7,0.3,1.4,0.4,2.1,0.3c1.5-0.1,2.7-0.9,2.6-1.7c0-0.1,0-0.2-0.1-0.3c0.6-0.1,1.1-0.3,1.6-0.6c0.5,0.2,1,0.3,1.6,0.3
					c-0.5,0.2-0.8,0.7-0.8,1.2c0.1,0.8,1.4,1.4,2.9,1.3s2.7-0.9,2.6-1.7c0-0.1,0-0.2-0.1-0.3h0.5c1.5-0.1,2.7-0.9,2.6-1.7
					s-1.1-1.3-2.4-1.3c0.1-0.2,0.2-0.5,0.2-0.7c-0.1-1-1.4-1.7-2.9-1.6c-0.5,0-1,0.2-1.4,0.4c-0.2-0.9-1.5-1.4-2.9-1.3s-2.7,1-2.6,2
					c0,0.2,0.1,0.4,0.2,0.5c-0.7,0.1-1.2,0.5-1.7,1c-0.7-0.5-1.6-0.7-2.5-0.6c-0.5,0-0.9,0.1-1.4,0.3c0-0.1,0-0.1,0-0.2
					c-0.1-1-1.4-1.7-2.9-1.6c-1.1,0-2,0.6-2.5,1.5c-0.3,0-0.7,0-1,0c-1.5,0.1-2.7,0.9-2.6,1.7c0,0.2,0.1,0.3,0.2,0.5h-0.4
					c-1.5,0.1-2.7,0.9-2.6,1.7c0,0.3,0.3,0.7,0.6,0.8C26.7,131.4,26.3,131.7,26.4,132.1z"/>
				<rect x="78.4" y="121.7" class="st16" width="30.2" height="30.1"/>
				<rect x="81.8" y="126.5" class="st11" width="4" height="4"/>
				<rect x="91.5" y="126.5" class="st11" width="4" height="4"/>
				<rect x="101.2" y="126.5" class="st11" width="4" height="4"/>
				<rect x="81.8" y="134" class="st11" width="4" height="4"/>
				<rect x="81.8" y="141.7" class="st11" width="4" height="4"/>
				<rect x="91.5" y="134" class="st11" width="4" height="4"/>
				<rect x="101.2" y="134" class="st11" width="4" height="4"/>
				<rect x="91.5" y="141.7" class="st11" width="4" height="4"/>
				<rect x="101.2" y="141.7" class="st11" width="4" height="4"/>
				<path class="st12" d="M112.1,121.7H74.9c-0.2,0-0.4-0.2-0.4-0.4c0-0.1,0.1-0.3,0.2-0.4l17.4-10.7c0.9-0.5,1.9-0.5,2.8,0
					l17.4,10.7c0.2,0.1,0.3,0.4,0.1,0.6C112.4,121.6,112.2,121.7,112.1,121.7z"/>
				<path class="st10" d="M93.5,156.1c0-0.2,0.1-0.5,0.2-0.7c-0.8-0.8-1.7-1.4-2.8-1.8c-0.6-0.1-1-0.5-1.2-1.1
					c-0.2-0.6-0.5-1.1-1-1.4c-0.3-0.2-0.6-0.4-1-0.5c-0.2-0.1-0.4-0.1-0.9-0.7h-0.8c0.2,0.1,0.3,0.2,0.4,0.4c0.8,1,0.6,1.2,1.1,1.3
					c0.3,0.1,0.6,0.2,0.8,0.4c0.3,0.2,0.6,0.6,0.6,1c0.2,0.8,0.9,1.4,1.7,1.6c1,0.4,2,1,2.7,1.8C93.5,156.3,93.5,156.2,93.5,156.1z"
					/>
				<path class="st10" d="M102.9,151.7c0-0.1,0.1-0.3,0.1-0.4c0.6-0.2,1.3-0.2,1.9,0c0.3,0.1,0.7,0.1,0.9-0.2
					c0.2-0.2,0.5-0.4,0.9-0.4c0.2,0,0.4,0,0.6,0.1c0.1,0,0.2-0.2,0.6-0.4h0.3c-0.1,0-0.4,0.3-0.4,0.4c-0.4,0.5-0.8,0.3-1.1,0.3
					s-0.5,0.3-0.7,0.4c-0.3,0.4-0.8,0.5-1.3,0.3c-0.6-0.2-1.3-0.1-1.9,0.1L102.9,151.7z"/>
				<path class="st10" d="M91.5,149.4c-0.1,0.5-0.5,1-1,1.2c-0.6,0.4-1.2,0.9-1.5,1.6l0,0c0.2,0.2,0.3,0.5,0.5,0.7
					c0.1-0.2,0.3-0.5,0.4-0.7c0.3-0.4,0.7-0.8,1.1-1.1c0.5-0.4,0.9-1,0.9-1.6L91.5,149.4z"/>
				<path class="st10" d="M97.8,147c0,0,1.1,4.7-1.1,5.4l0.8,0.4c0,0,2.2-1.8,0.7-6.1L97.8,147z"/>
				<path class="st10" d="M92.7,160.8h1.6c0,0-1.5-4.6,0.9-6.9c0.3-0.4,0.8-0.7,1.3-0.8c1.4-0.1,2.9,0,4.2-0.2
					c0.7-0.1,1.3-0.3,1.9-0.6c0.8-0.6,1.2-1.8,1.1-3.4l-0.4,0.1c0,0,0.1,1.9-0.8,2.5c-0.7,0.5-1.6,0.7-2.5,0.7
					c-2.7,0.1-4.3-0.6-5.8,1.1C93.3,154.3,92.7,156.7,92.7,160.8z"/>
				<path class="st10" d="M95.2,146.1c0-0.1-0.1-0.3-0.1-0.4c0.5-0.5,1.2-0.8,1.9-1c0.4-0.1,0.7-0.3,0.8-0.6
					c0.1-0.3,0.4-0.6,0.7-0.8c0.2-0.1,0.4-0.2,0.7-0.3c0.2,0,0.3-0.1,0.6-0.4h0.5c-0.1,0-0.2,0.1-0.3,0.2c-0.6,0.6-0.4,0.7-0.7,0.8
					c-0.2,0-0.4,0.1-0.5,0.2c-0.2,0.1-0.4,0.3-0.5,0.6c-0.2,0.5-0.6,0.9-1.2,1c-0.7,0.2-1.3,0.6-1.8,1.1
					C95.3,146.3,95.3,146.2,95.2,146.1z"/>
				<path class="st10" d="M96.6,142.2c0.1,0.3,0.3,0.6,0.6,0.7c0.4,0.2,0.8,0.5,1,0.9l0,0c-0.1,0.1-0.2,0.3-0.3,0.4
					c-0.1-0.1-0.2-0.3-0.3-0.4c-0.2-0.3-0.4-0.5-0.7-0.7c-0.4-0.2-0.6-0.6-0.6-1L96.6,142.2z"/>
				<path class="st10" d="M95.8,148.7h-1.1c0,0,1-2.6-0.6-3.9c-0.2-0.2-0.5-0.4-0.9-0.5c-1-0.1-2,0-2.9-0.1c-0.4,0-0.9-0.2-1.3-0.4
					c-0.6-0.5-0.9-1.2-0.8-2h0.3c0,0,0,1.1,0.5,1.5c0.5,0.3,1.1,0.4,1.7,0.4c1.8,0.1,2.9-0.4,3.9,0.6
					C95.4,145.1,95.8,146.3,95.8,148.7z"/>
				<path class="st10" d="M101.4,148.4c0,0.6-1.3,1.1-2.9,1.1s-2.9-0.5-2.9-1.1s1.3-1.1,2.9-1.1S101.4,147.8,101.4,148.4z"/>
				<path class="st10" d="M102.1,142.2c0.4-0.3,0.6-0.7,0.6-1.1c0-1-1.3-1.9-2.9-1.9c-0.3,0-0.6,0-0.9,0.1c-0.7-0.5-1.4-0.7-2.2-0.7
					h-0.2c0-0.1,0-0.2,0-0.3c0-1-1.3-1.9-2.9-1.9s-2.9,0.8-2.9,1.9c0,0.1,0,0.3,0.1,0.4c-0.3-0.1-0.6-0.1-0.9-0.1
					c-1.6,0-2.9,0.8-2.9,1.8c0,0.5,0.3,1,0.8,1.3c-1.4,0.1-2.6,0.9-2.6,1.8s1.3,1.8,2.9,1.8c0.9,0,1.8-0.3,2.5-0.9
					c0.5,0.2,1,0.3,1.4,0.2c0.9,0,1.8-0.3,2.5-0.9c0.7,0.4,1.5,0.6,2.3,0.6c0.6,0,1.2-0.1,1.8-0.3c0.1,1,1.3,1.8,2.9,1.8
					s2.9-0.8,2.9-1.8S103.4,142.3,102.1,142.2z"/>
				<path class="st10" d="M107.8,151.1c0.3-0.2,0.5-0.6,0.5-1c0-0.9-1.2-1.7-2.7-1.7h-0.3c0.1-0.2,0.1-0.3,0.1-0.5
					c0-0.9-1.2-1.7-2.6-1.7c-0.3,0-0.7,0-1,0.1c-0.5-1-1.5-1.5-2.5-1.5c-1.3-0.1-2.4,0.7-2.6,2c0,0.1,0,0.1,0,0.2
					c-0.4-0.2-0.9-0.2-1.3-0.2c-0.9,0-1.7,0.3-2.3,0.9c-0.4-0.5-1-0.8-1.7-0.9c0.1-0.2,0.1-0.4,0.1-0.6c-0.2-1.3-1.4-2.1-2.6-2
					c-1.2-0.1-2.3,0.6-2.6,1.8c-0.4-0.2-0.9-0.3-1.4-0.3c-1.3-0.1-2.4,0.7-2.6,2c0,0.3,0.1,0.6,0.2,0.8c-1.2,0.1-2.2,0.8-2.2,1.7
					s1.2,1.7,2.6,1.7c0.1,0,0.3,0,0.4,0c0,0.1,0,0.2,0,0.3c0,0.9,1.2,1.7,2.6,1.7s2.7-0.8,2.7-1.7c0-0.6-0.4-1-0.9-1.3
					c0.5,0,1-0.2,1.5-0.5c0.5,0.3,1,0.5,1.5,0.5c0,0.1-0.1,0.2-0.1,0.4c0,0.9,1.2,1.7,2.6,1.7c0.7,0,1.4-0.2,2-0.6l0.1,0.1
					c0,0.1-0.1,0.3-0.1,0.4c0,0.9,1.2,1.7,2.6,1.7s2.6-0.8,2.6-1.7c0.2,0,0.4,0.1,0.7,0.1c1.4,0,2.5-0.7,2.6-1.5
					c0.3,0.2,0.6,0.3,1,0.4c-0.1,0.1-0.1,0.3-0.1,0.4c0,0.7,0.9,1.3,2,1.3s2-0.6,2-1.3C108.7,151.6,108.3,151.2,107.8,151.1z"/>
				<path class="st10" d="M83,155.1c0-0.3,0.1-0.6,0.2-0.9c-0.9-1-2.1-1.7-3.4-2.2c-0.7-0.1-1.3-0.7-1.4-1.4
					c-0.2-0.7-0.7-1.3-1.3-1.7c-0.4-0.3-0.8-0.5-1.2-0.6c-0.3-0.1-0.5-0.1-1.1-0.9h-1c0.2,0.1,0.4,0.3,0.5,0.4
					c1,1.3,0.8,1.4,1.3,1.6c0.4,0.1,0.7,0.2,1,0.5c0.4,0.3,0.7,0.7,0.8,1.2c0.3,1,1.1,1.8,2.1,2c1.3,0.4,2.4,1.2,3.3,2.3
					C82.9,155.3,82.9,155.2,83,155.1z"/>
				<path class="st10" d="M94.6,149.6c0.1-0.2,0.1-0.3,0.1-0.5c0.8-0.2,1.6-0.2,2.3,0c0.4,0.2,0.8,0.1,1.1-0.2
					c0.3-0.3,0.7-0.5,1.1-0.5c0.3,0,0.5,0,0.8,0.1c0.2,0.1,0.3-0.3,0.8-0.5h0.4c-0.1,0-0.4,0.4-0.5,0.5c-0.6,0.6-1,0.4-1.4,0.4
					s-0.6,0.3-0.8,0.5c-0.4,0.4-1.1,0.6-1.6,0.3c-0.8-0.2-1.5-0.2-2.3,0.1C94.5,149.7,94.5,149.7,94.6,149.6z"/>
				<path class="st10" d="M80.5,146.8c-0.1,0.6-0.6,1.2-1.2,1.4c-0.8,0.5-1.5,1.1-1.9,1.9l0,0c0.2,0.3,0.4,0.6,0.6,0.9
					c0.2-0.3,0.3-0.6,0.5-0.9c0.4-0.6,0.8-1,1.3-1.4c0.7-0.5,1.1-1.2,1.1-2L80.5,146.8z"/>
				<path class="st10" d="M88.2,143.8c0,0,1.3,5.9-1.3,6.6l0.9,0.6c0,0,2.8-2.2,0.9-7.5L88.2,143.8z"/>
				<path class="st10" d="M82,160.9h1.9c0,0-1.8-5.7,1.1-8.6c0.4-0.5,1-0.9,1.6-1c1.8-0.1,3.7,0,5.2-0.2c0.8-0.1,1.6-0.4,2.3-0.8
					c1.1-0.7,1.5-2.2,1.4-4.1l-0.6,0.1c0,0,0.1,2.4-1,3.1c-0.9,0.6-2,0.9-3.1,0.9c-3.4,0.2-5.3-0.8-7.2,1.3
					C82.6,152.9,82,155.8,82,160.9z"/>
				<path class="st10" d="M85.1,142.7c0-0.2-0.1-0.3-0.2-0.5c0.7-0.6,1.5-1,2.3-1.3c0.5,0,0.9-0.4,1-0.8c0.2-0.4,0.5-0.8,0.9-1
					c0.3-0.2,0.5-0.3,0.8-0.3c0.2-0.1,0.3-0.1,0.8-0.5h0.7c-0.1,0.1-0.2,0.2-0.3,0.3c-0.7,0.8-0.5,0.8-0.9,0.9
					c-0.2,0.1-0.5,0.1-0.7,0.3c-0.3,0.2-0.5,0.4-0.6,0.7c-0.2,0.6-0.8,1.1-1.4,1.2c-0.9,0.2-1.7,0.7-2.3,1.4
					C85.1,142.9,85.1,142.8,85.1,142.7z"/>
				<path class="st10" d="M86.8,137.9c0.1,0.4,0.4,0.7,0.8,0.8c0.5,0.3,1,0.6,1.3,1.1l0,0c-0.1,0.2-0.3,0.3-0.4,0.5
					c-0.1-0.2-0.2-0.4-0.3-0.5c-0.3-0.3-0.6-0.6-0.9-0.9c-0.4-0.2-0.7-0.7-0.8-1.2L86.8,137.9z"/>
				<path class="st10" d="M85.8,145.9h-1.3c0,0,1.2-3.1-0.8-4.8c-0.3-0.3-0.7-0.5-1.1-0.6c-1.2-0.1-2.5,0-3.6-0.1
					c-0.5-0.1-1.1-0.2-1.6-0.5c-0.8-0.5-1.2-1.5-1-2.4h0.4c0,0,0,1.4,0.7,1.8c0.6,0.3,1.4,0.5,2.1,0.5c2.3,0.1,3.6-0.4,4.8,0.8
					C85.3,141.4,85.8,142.9,85.8,145.9z"/>
				<path class="st10" d="M92.8,145.6c0,0.8-1.6,1.4-3.6,1.4s-3.6-0.6-3.6-1.4s1.6-1.4,3.6-1.4S92.8,144.8,92.8,145.6z"/>
				<path class="st10" d="M93.6,137.8c0.5-0.3,0.8-0.9,0.8-1.4c0-1.3-1.6-2.3-3.6-2.3c-0.4,0-0.7,0-1.1,0.1
					c-0.8-0.6-1.8-0.9-2.8-0.9h-0.3c0-0.1,0.1-0.3,0.1-0.4c0-1.3-1.6-2.3-3.6-2.3s-3.6,1-3.6,2.3c0,0.2,0,0.4,0.1,0.5
					c-0.4-0.1-0.8-0.1-1.1-0.1c-2,0-3.6,1-3.6,2.3c0.1,0.7,0.4,1.3,1,1.6c-1.8,0.1-3.2,1.1-3.2,2.3s1.6,2.3,3.6,2.3
					c1.1,0.1,2.3-0.4,3.1-1.1c0.6,0.2,1.2,0.3,1.8,0.3c1.1,0.1,2.2-0.3,3.1-1.1c0.9,0.5,1.8,0.8,2.8,0.7c0.8,0,1.5-0.1,2.3-0.4
					c0.1,1.2,1.7,2.2,3.6,2.2s3.6-1,3.6-2.3C96.5,139,95.2,138,93.6,137.8z"/>
				<path class="st10" d="M100.7,148.9c0.4-0.3,0.6-0.7,0.6-1.2c0-1.2-1.5-2.1-3.3-2.1h-0.4c0.1-0.2,0.2-0.4,0.2-0.7
					c0-1.2-1.5-2.1-3.3-2.1c-0.4,0-0.8,0.1-1.2,0.1c-0.6-1.2-1.8-1.9-3.1-1.8c-1.8,0-3.2,1.1-3.2,2.5c0,0.1,0,0.2,0,0.2
					c-0.5-0.2-1.1-0.3-1.7-0.3c-1.1-0.1-2.1,0.3-2.9,1.1c-0.5-0.6-1.3-1-2.1-1.1c0.1-0.2,0.1-0.5,0.2-0.7c0-1.4-1.5-2.5-3.3-2.5
					c-1.4-0.1-2.8,0.8-3.2,2.2c-0.5-0.3-1.1-0.4-1.7-0.4c-1.8,0-3.3,1.1-3.3,2.5c0,0.3,0.1,0.7,0.3,1c-1.5,0.2-2.7,1-2.7,2.1
					s1.5,2.1,3.3,2.1c0.2,0,0.4,0,0.6,0c0,0.1-0.1,0.2-0.1,0.4c0,1.2,1.5,2.1,3.3,2.1s3.3-0.9,3.3-2.1c-0.1-0.7-0.5-1.3-1.1-1.6
					c0.6-0.1,1.3-0.3,1.8-0.6c0.6,0.4,1.2,0.5,1.9,0.6c0,0.1-0.1,0.3-0.1,0.4c0,1.2,1.5,2.1,3.3,2.1c0.9,0,1.7-0.2,2.4-0.7l0.1,0.1
					c-0.1,0.2-0.1,0.3-0.1,0.5c0,1.2,1.5,2.1,3.3,2.1s3.3-0.9,3.3-2.1c0.3,0,0.5,0.1,0.8,0.1c1.7,0,3.1-0.8,3.3-1.9
					c0.4,0.2,0.8,0.4,1.3,0.5c-0.1,0.2-0.1,0.3-0.1,0.5c0,0.9,1.1,1.6,2.5,1.6s2.5-0.7,2.5-1.6C101.8,149.6,101.3,149,100.7,148.9z"
					/>
				<rect x="101.3" y="127.7" class="st5" width="33.4" height="33.3"/>
				<rect x="105.1" y="133" class="st11" width="4.4" height="4.4"/>
				<rect x="115.8" y="133" class="st11" width="4.4" height="4.4"/>
				<rect x="126.5" y="133" class="st11" width="4.4" height="4.4"/>
				<rect x="105.1" y="141.2" class="st11" width="4.4" height="4.4"/>
				<rect x="105.1" y="149.7" class="st11" width="4.4" height="4.4"/>
				<rect x="115.8" y="141.2" class="st11" width="4.4" height="4.4"/>
				<rect x="126.5" y="141.2" class="st11" width="4.4" height="4.4"/>
				<rect x="115.8" y="149.7" class="st11" width="4.4" height="4.4"/>
				<rect x="126.5" y="149.7" class="st11" width="4.4" height="4.4"/>
				<path class="st12" d="M138.5,127.7h-41c-0.3,0-0.5-0.2-0.5-0.5c0-0.2,0.1-0.3,0.2-0.4l19.2-11.8c1-0.6,2.1-0.6,3.1,0l19.2,11.8
					c0.2,0.1,0.3,0.4,0.2,0.6C138.9,127.6,138.7,127.7,138.5,127.7z"/>
				<rect x="77.2" y="141.8" class="st5" width="25.1" height="19.1"/>
				<polygon class="st12" points="72.4,143.3 107.1,143.3 98.9,136.2 80.7,136.2 				"/>
				<rect x="82.9" y="147.9" class="st17" width="13.8" height="11.3"/>
				<path class="st11" d="M81.6,146.1v14.9H98v-14.9H81.6z M96.5,159H83.1v-11h13.4V159z"/>
				<rect x="43.7" y="130.9" class="st16" width="30.2" height="30.1"/>
				<rect x="47.1" y="135.7" class="st11" width="4" height="4"/>
				<rect x="56.8" y="135.7" class="st11" width="4" height="4"/>
				<rect x="66.4" y="135.7" class="st11" width="4" height="4"/>
				<rect x="47.1" y="143.1" class="st11" width="4" height="4"/>
				<rect x="56.8" y="143.1" class="st11" width="4" height="4"/>
				<rect x="66.4" y="143.1" class="st11" width="4" height="4"/>
				<rect x="56.8" y="150.8" class="st11" width="4" height="4"/>
				<rect x="66.4" y="150.8" class="st11" width="4" height="4"/>
				<path class="st12" d="M77.3,130.9H40.2c-0.2,0-0.4-0.2-0.4-0.4c0-0.1,0.1-0.3,0.2-0.4l17.4-10.6c0.9-0.5,1.9-0.5,2.8,0
					l17.4,10.6c0.2,0.1,0.3,0.4,0.1,0.6C77.6,130.8,77.4,130.9,77.3,130.9z"/>
				<rect x="22.4" y="138.2" class="st5" width="30.2" height="22.7"/>
				<rect x="25.5" y="142.7" class="st11" width="4.6" height="4.6"/>
				<rect x="35.2" y="142.7" class="st11" width="4.6" height="4.6"/>
				<rect x="44.8" y="142.7" class="st11" width="4.6" height="4.6"/>
				<rect x="25.5" y="150.1" class="st11" width="4.6" height="4.6"/>
				<rect x="35.2" y="150.1" class="st11" width="4.6" height="4.6"/>
				<rect x="44.8" y="150.1" class="st11" width="4.6" height="4.6"/>
				<path class="st12" d="M56,138.2H19c-0.2,0-0.4-0.2-0.4-0.4c0-0.1,0.1-0.3,0.2-0.4l17.4-10.6c0.9-0.5,1.9-0.5,2.8,0l17.4,10.6
					c0.2,0.1,0.3,0.4,0.2,0.6C56.4,138.2,56.2,138.2,56,138.2z"/>
				<path class="st18" d="M13.4,159.4l36.1-15.6l47.3,12.9c0,0,94.5-12.9,101.2-12.9s67.2,30.5,67.2,30.5l-177.5,7.6l-81.2-4.3
					L13.4,159.4z"/>
				<polygon class="st19" points="202.7,36.8 55.8,36.8 55.8,192.1 55.8,210.1 55.8,295.3 202.6,295.3 202.6,210.1 202.7,210.1 				
					"/>
				<path class="st20" d="M207,176.8c0,0-161.8,6.1-183.5,39c0,0-48.7,23.2,202.7,48.3l-1-34.6c0,0-161.7-2.1-156.2-16.5
					C74,217.8,13.5,203.4,207,176.8"/>
				<path class="st21" d="M160.2,280h-56.4c-2.2,0-4.1-1.8-4.1-4.1l0,0l0,0c0-2.2,1.8-4.1,4.1-4.1h0h56.4c2.2,0,4.1,1.8,4.1,4.1l0,0
					l0,0C164.3,278.2,162.4,280,160.2,280L160.2,280z"/>
				<path class="st22" d="M79.6,252.2c0-3,2.4-5.4,5.4-5.4c0,0,0,0,0.1,0c3.2,0,5.4-0.9,7.1-2.8c2.7-3.2,3.5-8.6,3.6-13.3l0,0
					c0,0,10.8,0,10.8-0.3l0,0c0,6.3-1.2,14.7-6.2,20.5c-1,1.2-2.2,2.2-3.5,3.1c-3.5,2.4-7.7,3.6-11.9,3.5
					C82,257.5,79.6,255.1,79.6,252.2z"/>
				<path class="st23" d="M95.7,230.7L95.7,230.7c0-2.4-0.1-4.8-0.4-7.1c-0.6-2.9,1.3-5.7,4.2-6.3c2.9-0.6,5.7,1.3,6.3,4.2
					c0,0.1,0,0.2,0.1,0.4c0.4,2.8,0.6,5.7,0.6,8.6l0,0C106.4,230.7,95.7,230.7,95.7,230.7z"/>
				<path class="st24" d="M66.1,233.2c0,0-26.9-4.3-21.8,22.6c0,0,0.3,14.6,10.6,24.9c0,0,7.1,14.2-2.4,27.7h65.9
					c0,0-10.1-75.2-34.7-75.2"/>
				<path class="st25" d="M107.2,198.9c1.4-0.3,2.7-0.8,4-1.4c10.8-5.3,14.8-20.8,15.3-22.6c0.6-2.7-1.1-5.3-3.8-5.9
					c-2.6-0.6-5.1,1-5.8,3.5c-0.9,3.5-4.4,13.3-10.1,16.1c-2.1,1-4.3,1-7-0.2c-2.5-1.2-5.4-0.2-6.6,2.3c-1.2,2.5-0.2,5.4,2.3,6.6
					c0.1,0.1,0.2,0.1,0.4,0.2C99.4,199.2,103.3,199.7,107.2,198.9z"/>
				<rect x="114.5" y="133.7" class="st26" width="38.8" height="11"/>
				<circle class="st25" cx="115.1" cy="143.3" r="4.5"/>
				<circle class="st27" cx="115.1" cy="143.3" r="2.6"/>
				<circle class="st25" cx="151.9" cy="143.3" r="4.5"/>
				<circle class="st27" cx="151.9" cy="143.3" r="2.6"/>
				<path class="st25" d="M116.4,274.9l2-2.2c0.2-0.2,0.5-0.4,0.8-0.5l3.1-0.7v-48.1c0-0.8,0.4-1.6,1-2.1c3.2-2.5,6.7-0.2,6.7,2.8
					v46.5c0.6,0.4,0.8,1.2,0.6,1.9v2.5c0.2,1.3-2.1,2.4-2.1,2.4h-11c-0.8,0-1.5-0.7-1.5-1.5C116,275.5,116.1,275.2,116.4,274.9z"/>
				<path class="st28" d="M130,254.8h-7.1c-0.4,0-0.6-0.3-0.6-0.6l0,0c0-0.4,0.3-0.6,0.6-0.6h7.1c0.4,0,0.6,0.3,0.6,0.6l0,0
					C130.6,254.5,130.4,254.8,130,254.8z"/>
				<path class="st28" d="M129.8,254.1L129.8,254.1c0.4,0.3,0.5,0.8,0.2,1.2l-6.3,8.3c-0.3,0.4-0.8,0.4-1.1,0.2l0,0
					c-0.4-0.3-0.4-0.8-0.2-1.1l6.3-8.3C128.9,253.9,129.4,253.8,129.8,254.1z"/>
				<path class="st28" d="M129.9,263.7L129.9,263.7c0.3-0.2,0.4-0.7,0.1-1l-6.4-8.4c-0.2-0.3-0.7-0.4-1-0.1l0,0
					c-0.3,0.2-0.4,0.7-0.1,1l6.4,8.5C129.1,263.9,129.6,263.9,129.9,263.7z"/>
				<path class="st28" d="M129.8,262.6L129.8,262.6c0.4,0.3,0.5,0.8,0.2,1.2l-6.3,8.3c-0.3,0.4-0.8,0.4-1.1,0.2l0,0
					c-0.4-0.3-0.4-0.8-0.2-1.1l6.3-8.3C128.9,262.4,129.4,262.3,129.8,262.6z"/>
				<path class="st28" d="M129.9,272.2L129.9,272.2c-0.4,0.3-0.9,0.2-1.2-0.1l-6.3-8.3c-0.3-0.4-0.2-0.9,0.2-1.1l0,0
					c0.4-0.3,0.9-0.2,1.1,0.2l6.3,8.3C130.3,271.4,130.2,271.9,129.9,272.2z"/>
				<path class="st28" d="M119,276.8L119,276.8c-0.4,0-0.6-0.3-0.7-0.6v-3.9c0-0.4,0.3-0.6,0.7-0.6l0,0c0.4,0,0.6,0.3,0.6,0.6l0,0
					v3.9C119.6,276.5,119.4,276.8,119,276.8C119,276.8,119,276.8,119,276.8z"/>
				<path class="st28" d="M122.2,276.8L122.2,276.8c-0.4,0-0.6-0.3-0.7-0.6v-4.5c0-0.4,0.3-0.6,0.7-0.6l0,0c0.4,0,0.6,0.3,0.6,0.6
					v4.5C122.9,276.5,122.6,276.8,122.2,276.8C122.2,276.8,122.2,276.8,122.2,276.8z"/>
				<path class="st28" d="M129.3,272.9h-7.1c-0.4,0-0.7-0.3-0.7-0.6l0,0c0-0.4,0.3-0.6,0.7-0.6h7.1c0.4,0,0.6,0.3,0.6,0.6l0,0
					C130,272.6,129.7,272.9,129.3,272.9z"/>
				<path class="st28" d="M117.7,277.4h13.6c0.4,0,0.6-0.3,0.6-0.6l0,0c0-0.4-0.3-0.6-0.6-0.6h-13.6c-0.4,0-0.6,0.3-0.6,0.6l0,0l0,0
					C117,277.1,117.3,277.4,117.7,277.4z"/>
				<path class="st25" d="M137.7,270.6v-46.3c0-1.8,1.1-3.3,2.8-3.9c2.2-0.8,4.6,0.3,5.4,2.5c0.1,0.4,0.2,0.8,0.2,1.2v47.3
					c0,0,0,0.1,0,0.1l3.1,0.6c0.5,0.1,0.9,0.3,1.2,0.7l0.6,0.6c0.9,0.9,0.9,2.4,0,3.3c-0.4,0.5-1.1,0.7-1.7,0.7h-9.9
					c0,0-2.3-1.1-2.4-2.4v-2.5C137.2,271.8,137.4,271.2,137.7,270.6z"/>
				<path class="st28" d="M138.4,254.8h7.1c0.4,0,0.6-0.3,0.6-0.6l0,0c0-0.4-0.3-0.6-0.6-0.6h-7.1c-0.4,0-0.6,0.3-0.6,0.6l0,0
					C137.7,254.5,138,254.8,138.4,254.8z"/>
				<path class="st28" d="M145.5,263.7L145.5,263.7c-0.4,0.3-0.9,0.2-1.2-0.1l-6.3-8.3c-0.3-0.4-0.2-0.9,0.2-1.1l0,0
					c0.4-0.3,0.9-0.2,1.1,0.2l6.3,8.3C145.9,262.9,145.9,263.4,145.5,263.7z"/>
				<path class="st28" d="M145.4,254.1L145.4,254.1c0.4,0.3,0.5,0.8,0.2,1.2l-6.3,8.3c-0.3,0.4-0.8,0.4-1.1,0.2l0,0
					c-0.4-0.3-0.4-0.8-0.2-1.1l6.3-8.3C144.6,253.9,145.1,253.8,145.4,254.1z"/>
				<path class="st28" d="M146.2,270.6L146.2,270.6c-0.4,0.3-0.9,0.2-1.2-0.1l-6.2-8.3c-0.3-0.4-0.2-0.9,0.2-1.1l0,0
					c0.4-0.3,0.9-0.2,1.1,0.2l6.2,8.3C146.6,269.9,146.6,270.4,146.2,270.6z"/>
				<path class="st28" d="M145.5,262.6L145.5,262.6c0.4,0.3,0.5,0.8,0.2,1.2l-6.3,8.3c-0.3,0.4-0.8,0.4-1.1,0.2l0,0
					c-0.4-0.3-0.4-0.8-0.2-1.1l6.3-8.3C144.6,262.3,145.1,262.3,145.5,262.6z"/>
				<path class="st28" d="M148.7,276.8L148.7,276.8c0.4,0,0.6-0.3,0.6-0.6v-3.9c0-0.4-0.3-0.6-0.6-0.6l0,0c-0.4,0-0.6,0.3-0.6,0.6
					l0,0v3.9C148,276.5,148.3,276.8,148.7,276.8L148.7,276.8z"/>
				<path class="st28" d="M146.1,276.8L146.1,276.8c0.4,0,0.6-0.3,0.6-0.6v-3.9c0-0.4-0.3-0.6-0.6-0.6l0,0c-0.4,0-0.6,0.3-0.6,0.6
					v3.9C145.5,276.5,145.8,276.8,146.1,276.8z"/>
				<path class="st28" d="M138.4,272.9h7.1c0.4,0,0.6-0.3,0.6-0.6l0,0c0-0.4-0.3-0.6-0.6-0.6h-7.1c-0.4,0-0.6,0.3-0.6,0.6l0,0
					C137.7,272.6,138,272.9,138.4,272.9z"/>
				<path class="st28" d="M137.1,277.4h13.6c0.4,0,0.6-0.3,0.6-0.6l0,0c0-0.4-0.3-0.6-0.6-0.6h-13.6c-0.4,0-0.6,0.3-0.6,0.6l0,0
					C136.4,277.1,136.7,277.4,137.1,277.4z"/>
				<path class="st28" d="M137.7,277.4L137.7,277.4c-0.4,0-0.6-0.3-0.6-0.6V271c0-0.4,0.3-0.6,0.6-0.6l0,0c0.4,0,0.6,0.3,0.6,0.6
					v5.8C138.3,277.2,138.1,277.4,137.7,277.4z"/>
				<path class="st28" d="M130.6,277.4L130.6,277.4c0.4,0,0.6-0.3,0.6-0.6V271c0-0.4-0.3-0.6-0.6-0.6l0,0c-0.4,0-0.6,0.3-0.6,0.6
					v5.8C130,277.2,130.3,277.4,130.6,277.4z"/>
				<rect x="128" y="158.2" class="st25" width="11" height="11"/>
				<path class="st25" d="M133.7,172.4c-4,0-7.8-2.2-9.7-5.8c2.5-1.2,5.2-1.9,8-1.9h3.3c2.8,0,5.5,0.6,8,1.9
					C141.5,170.1,137.8,172.3,133.7,172.4z"/>
				<path class="st29" d="M122.6,166.9c0.4-0.3,0.9-0.5,1.3-0.7c2.8,5.3,9.5,7.3,14.8,4.5c1.9-1,3.5-2.6,4.5-4.5
					c1,0.5,2,1.1,2.8,1.8l0,0c-2.8,1.4-4,4.9-2.6,7.7c1.4,2.7,4.7,3.9,7.5,2.7l0.4,0.2v57.1h-35.6v-57.1
					C115.8,173.8,118.4,169.4,122.6,166.9z"/>
				<path class="st25" d="M143.2,173.4c0-2.1,1.2-4.1,3.1-5.1c3.2,2.4,5.1,6.2,5.3,10.2c-2.8,1.5-6.3,0.4-7.8-2.4
					C143.4,175.3,143.2,174.3,143.2,173.4z"/>
				<path class="st30" d="M115.8,209.2h35.5c1.4,0,2.6-1.2,2.6-2.6l0,0c0-1.4-1.2-2.6-2.6-2.6h-35.5c-1.4,0-2.6,1.2-2.6,2.6l0,0
					C113.2,208.1,114.3,209.2,115.8,209.2z"/>
				<path class="st25" d="M133.5,162.7L133.5,162.7c-9.8,0-17.8-8-17.8-17.8v-9.7c0-9.8,8-17.8,17.8-17.8l0,0
					c9.8,0,17.8,8,17.8,17.8v9.7C151.3,154.8,143.3,162.7,133.5,162.7z"/>
				<path class="st31" d="M154.6,135c0-11.5-9.3-20.8-20.8-20.8l0,0c-11.5,0-20.8,9.3-20.8,20.8H154.6z"/>
				<path class="st32" d="M139.4,148.5h-0.1c-1.2,0-2.2-1-2.2-2.2v-2.7c0-1.2,1-2.2,2.2-2.2h0.1c1.2,0,2.2,1,2.2,2.2v2.7
					C141.6,147.5,140.6,148.5,139.4,148.5z"/>
				<path class="st32" d="M123.9,148.5h-0.1c-1.2,0-2.2-1-2.2-2.2v-2.7c0-1.2,1-2.2,2.2-2.2h0.1c1.2,0,2.2,1,2.2,2.2v2.7
					C126.1,147.5,125.1,148.5,123.9,148.5z"/>
				<path class="st31" d="M120.3,141.2l4.3-1.8c0.8-0.3,1.2-1.3,0.9-2.1l0,0c-0.3-0.8-1.3-1.2-2.1-0.9l-4.3,1.8
					c-0.8,0.3-1.2,1.3-0.9,2.1l0,0C118.6,141.2,119.5,141.6,120.3,141.2z"/>
				<path class="st31" d="M142.9,141.2l-4.3-1.8c-0.8-0.3-1.2-1.3-0.9-2.1l0,0c0.3-0.8,1.3-1.2,2.1-0.9l4.3,1.8
					c0.8,0.3,1.2,1.3,0.9,2.1l0,0C144.7,141.2,143.7,141.6,142.9,141.2C142.9,141.3,142.9,141.3,142.9,141.2z"/>
				<path class="st27" d="M133.5,149.8c0.1-1.4-1-2.6-2.4-2.7c-1.4-0.1-2.6,1-2.7,2.4c0,0.1,0,0.2,0,0.3H133.5z"/>
				<path class="st25" d="M166.2,194c-1.4,0-2.8-0.2-4.2-0.5c-11.6-3-18.8-17.3-19.6-18.9c-1.1-2.5,0.1-5.4,2.6-6.5
					c2.4-1,5.1-0.1,6.3,2.2c1.6,3.3,7.1,12.1,13.2,13.7c2.3,0.6,4.5,0.1,6.9-1.6c2.2-1.6,5.3-1.1,6.9,1.2c1.6,2.2,1.1,5.3-1.2,6.9
					l0,0C173.9,192.7,170.1,193.9,166.2,194z"/>
				<path class="st31" d="M180.5,225.4L180.5,225.4c-1.1,0.2-2.2-0.5-2.5-1.6l-10.8-51.2c-0.2-1.1,0.5-2.2,1.6-2.5c0,0,0,0,0,0l0,0
					c1.1-0.2,2.2,0.5,2.5,1.6l10.8,51.2C182.3,224.1,181.6,225.2,180.5,225.4z"/>
				<path class="st33" d="M163.1,143h0.2c-2,3-1.2,7,1.8,8.9s7,1.2,8.9-1.8c0.3,0.8,0.5,1.5,0.7,2.4c1.3,6.3-1.7,12.3-6.8,13.4
					s-10.3-3.2-11.6-9.5S158,144.1,163.1,143z"/>
				<path class="st29" d="M162.2,155.1C162.2,155.1,162.2,155.1,162.2,155.1c0.6,2.9,3.3,4.7,6.1,4.1c0,0,0,0,0,0
					c0.4-0.1,0.8-0.2,1.2-0.4c0.2,2.4-1.1,4.6-3.1,5c-2.2,0.5-4.5-1.4-5.1-4.2C161,158,161.3,156.4,162.2,155.1z"/>
				<path class="st29" d="M163.1,143h0.2c-2,3-1.2,7,1.8,8.9s7,1.2,8.9-1.8c0.3,0.8,0.5,1.5,0.7,2.4c1.3,6.3-1.7,12.3-6.8,13.4
					s-10.3-3.2-11.6-9.5S158,144.1,163.1,143z"/>
				<path class="st25" d="M162.2,155.1C162.2,155.1,162.2,155.1,162.2,155.1c0.6,2.9,3.3,4.7,6.1,4.1c0,0,0,0,0,0
					c0.4-0.1,0.8-0.2,1.2-0.4c0.2,2.4-1.1,4.6-3.1,5c-2.2,0.5-4.5-1.4-5.1-4.2C161,158,161.3,156.4,162.2,155.1z"/>
				<path class="st31" d="M157.6,223.7L157.6,223.7c-0.8-0.4-1.2-1.3-0.8-2.1l20-45.8c0.4-0.8,1.3-1.2,2.1-0.8l0,0
					c0.8,0.4,1.2,1.3,0.8,2.1l-20,45.8C159.3,223.7,158.4,224.1,157.6,223.7z"/>
				<path class="st29" d="M187.3,155.7l0.1,0.1c-2.5,0.9-3.8,3.7-2.9,6.3c0.5,1.3,1.4,2.3,2.6,2.8c1.2,0.5,2.5,0.5,3.7,0.1
					c-0.2,0.6-0.4,1.2-0.6,1.8c-2,4.5-6.5,6.8-10.1,5.3s-4.9-6.5-3-11S183.7,154.1,187.3,155.7z"/>
				<path class="st25" d="M181.4,162.8L181.4,162.8c-0.9,2,0,4.4,2,5.2c0.3,0.1,0.7,0.2,1,0.3c-1,1.6-2.7,2.4-4.1,1.7
					c-1.6-0.7-2.2-2.9-1.3-4.9C179.4,164,180.3,163.2,181.4,162.8z"/>
				<path class="st31" d="M140.9,210.9L140.9,210.9c-0.5-0.7-0.2-1.7,0.5-2.2c0,0,0,0,0,0l42.3-26.6c0.7-0.5,1.7-0.2,2.2,0.5l0,0
					c0.5,0.7,0.2,1.7-0.5,2.2c0,0,0,0,0,0L143,211.4C142.3,211.8,141.3,211.6,140.9,210.9z"/>
				<path class="st29" d="M203.7,171.4l0.1,0.1c-2.6-0.7-5.3,0.8-6,3.4c-0.7,2.6,0.8,5.3,3.4,6c0.1,0,0.1,0,0.2,0.1
					c-0.5,0.4-1,0.8-1.5,1.1c-4.1,2.6-9.2,2-11.3-1.3s-0.4-8.1,3.7-10.7S201.6,168.1,203.7,171.4z"/>
				<path class="st25" d="M194.9,173.9L194.9,173.9c-1.9,1.1-2.4,3.6-1.3,5.4c0,0,0,0,0,0c0.2,0.3,0.4,0.5,0.6,0.8
					c-1.5,0.8-3.4,0.5-4.4-0.9c-0.9-1.5-0.2-3.6,1.6-4.8C192.5,173.8,193.7,173.6,194.9,173.9z"/>
				<path class="st25" d="M176.8,193.7L176.8,193.7c-1.6,0-2.9-1.3-2.9-2.9v-9c0-1.6,1.3-2.9,2.9-2.9l0,0c1.6,0,2.9,1.3,2.9,2.9v9
					C179.7,192.4,178.4,193.7,176.8,193.7z"/>
				<path class="st25" d="M168.7,182.1h1.3c1.1,0,1.9,0.9,1.9,1.9v0c0,1.1-0.9,1.9-1.9,1.9h-1.3c-1.1,0-1.9-0.9-1.9-1.9v0
					C166.8,183,167.6,182.1,168.7,182.1z"/>
				<path class="st27" d="M134.7,155.2c-0.2,0-0.3-0.1-0.5-0.2c-2.5-2.5-6.4-1.8-6.4-1.8c-0.4,0.1-0.7-0.2-0.8-0.5
					c-0.1-0.4,0.2-0.7,0.5-0.8c0.2,0,4.6-0.8,7.6,2.1c0.2,0.3,0.2,0.7,0,0.9C135,155.1,134.8,155.2,134.7,155.2z"/>
				<path class="st29" d="M151.1,215.8c0,0,4.4,27,7.9,30.5c0,0-2.6,3.3-7.9,0c0,0-8.1-1.1-10.7,1.5c0,0-7.2,3.5-10.8-2.1
					c0,0-7.3-3-10.4,0c0,0-3.9,2.7-7.1-2.7c0,0,4.2-18.5,3.8-27.2L151.1,215.8z"/>
				<path class="st25" d="M125.2,149.6h-2.7c-1.3,0-2.3-1-2.3-2.3l0,0c0-1.3,1-2.3,2.3-2.3h2.7c1.3,0,2.3,1,2.3,2.3l0,0
					C127.5,148.6,126.5,149.6,125.2,149.6z"/>
				<path class="st25" d="M140.7,149.6H138c-1.3,0-2.3-1-2.3-2.3l0,0c0-1.3,1.1-2.3,2.3-2.3h2.7c1.3,0,2.3,1,2.3,2.3l0,0
					C143,148.6,141.9,149.6,140.7,149.6z"/>
				<path class="st25" d="M105.6,217.6c3.3,0,6.1-7.1,7.7-11.3c0.3-0.7,1.1-1.1,1.8-0.8c0.4,0.1,0.7,0.4,0.8,0.8
					c1.6,4.3,3.9,11.6,7.1,11.6c1.9,0,4.3-5.5,5.8-7.2c0.4-0.5,1.1-0.1,1.1,0.7v5.8c0,3.1-1.6,5.7-3.5,5.7h-24.1
					c-1.9,0-3.5-2.6-3.5-5.7v-6.2c0-0.8,0.7-1.1,1.2-0.6C101.6,212.2,103.5,217.6,105.6,217.6z"/>
				<path class="st27" d="M129.4,226.7h-29.3c-1,0-1.8-0.8-1.8-1.8V224c0-1,0.8-1.8,1.8-1.8h29.3c1,0,1.8,0.8,1.8,1.8v0.8
					C131.2,225.9,130.4,226.7,129.4,226.7z"/>
				
					<rect x="76.3" y="193.3" transform="matrix(0.8791 -0.4767 0.4767 0.8791 -86.9419 61.8848)" class="st34" width="4.5" height="17.9"/>
				
					<rect x="46.3" y="208.9" transform="matrix(0.8791 -0.4767 0.4767 0.8791 -100.0151 50.4227)" class="st34" width="6.1" height="26.8"/>
				
					<rect x="48.5" y="199.5" transform="matrix(0.8791 -0.4767 0.4767 0.8791 -92.8348 56.0025)" class="st25" width="31" height="22.9"/>
				<path class="st32" d="M75.6,208.8l-0.7,0.4c-0.7,0.4-1.5,0.1-1.9-0.6l-1.9-3.5c-0.3-0.7-0.1-1.5,0.6-1.8l0.7-0.4
					c0.7-0.4,1.5-0.1,1.9,0.6c0,0,0,0,0,0l1.9,3.5C76.5,207.7,76.2,208.5,75.6,208.8z"/>
				<path class="st32" d="M62.3,216l-0.7,0.4c-0.7,0.4-1.5,0.1-1.9-0.6l-1.9-3.5c-0.4-0.7-0.1-1.5,0.6-1.9c0,0,0,0,0,0l0.7-0.4
					c0.7-0.4,1.5-0.1,1.9,0.6l1.9,3.5C63.3,214.8,63,215.6,62.3,216z"/>
				<path class="st34" d="M83.7,207.2l5,9.2c5,9.3,1.6,20.9-7.7,26l0,0c-9.3,5-22.7,2.7-27.8-6.6l-5-9.2L83.7,207.2z"/>
				<path class="st25" d="M63.5,223.4c0.6,0.7,1.4,1.3,2.1,1.7c0.9,0.5,1.8,0.9,2.8,1.1c-0.1-0.1-0.2-0.2-0.3-0.3
					c0.1,0.1,0.2,0.2,0.3,0.3c2.3,0.5,4.7,0.2,6.8-0.9c2.3-1.3,4-3.4,4.7-5.9c-0.1-0.1-0.1-0.3-0.2-0.4c0.1,0.1,0.1,0.2,0.2,0.4
					c0.5-1.7,0.5-3.5,0-5.2c-0.3-0.9-1.2-1.5-2.2-1.2c-0.1,0-0.3,0.1-0.4,0.2l-3,1.7L64,220.5c-0.9,0.5-1.2,1.6-0.8,2.5
					C63.3,223.2,63.4,223.3,63.5,223.4z M67.6,224.6L67.6,224.6z M79.7,219L79.7,219L79.7,219z M67.9,225.6l0.2,0.3L67.9,225.6z
					 M67.7,225.2L67.7,225.2C67.7,225.2,67.7,225.1,67.7,225.2L67.7,225.2z"/>
				<path class="st27" d="M66.7,214.4l0.9-0.5l3.2-1.7c0.3-0.2,0.4-0.5,0.2-0.8c0,0,0-0.1-0.1-0.1c-0.2-0.2-0.4-0.4-0.7-0.5
					c-0.3-0.2-0.6-0.3-0.9-0.3l0.1,0.1l-0.1-0.1c-1.5-0.3-3.1,0.6-3.5,2.1c0,0,0,0.1,0.1,0.1c0,0,0-0.1-0.1-0.1
					c-0.1,0.5-0.1,1.1,0,1.6c0.1,0.3,0.4,0.5,0.7,0.4C66.6,214.5,66.6,214.5,66.7,214.4z M69.6,210.6L69.6,210.6L69.6,210.6z
					 M69.7,210.9C69.7,210.9,69.7,210.9,69.7,210.9C69.7,211,69.7,210.9,69.7,210.9C69.7,210.8,69.7,210.9,69.7,210.9L69.7,210.9z
					 M69.7,210.8l-0.1-0.1L69.7,210.8z M69.7,211.1L69.7,211.1z M67.7,212.8L67.7,212.8l1.4-0.8l0,0L67.7,212.8z M65.9,212.7
					l0.1,0.1L65.9,212.7z"/>
				<path class="st34" d="M45.3,211.5l30-16.3c4.7-2.6,6.5-8.5,3.9-13.3l0,0c-2.6-4.7-8.5-6.5-13.2-3.9l-30,16.3
					c-4.7,2.6-6.5,8.5-3.9,13.2l0,0C34.7,212.3,40.6,214.1,45.3,211.5z"/>
				<path class="st34" d="M72.7,201.2l-2.7,1.4c-0.3,0.1-0.6,0-0.7-0.2l-0.2-0.3c-0.1-0.3,0-0.6,0.2-0.7L72,200
					c0.3-0.1,0.6,0,0.7,0.2l0.2,0.3C73.1,200.7,73,201.1,72.7,201.2z"/>
				<path class="st34" d="M59.5,208.4l-2.7,1.4c-0.3,0.1-0.6,0-0.7-0.2l-0.2-0.3c-0.1-0.3,0-0.6,0.2-0.7l2.7-1.4
					c0.3-0.1,0.6,0,0.7,0.2l0.2,0.3C59.8,207.9,59.8,208.2,59.5,208.4z"/>
				
					<rect x="44.7" y="210" transform="matrix(0.8791 -0.4767 0.4767 0.8791 -97.0804 48.2756)" class="st34" width="3.9" height="11"/>
				<path class="st25" d="M45,223.3c1.3,2.4,4.2,3.2,6.6,2s3.2-4.2,2-6.6c-1.3-2.4-4.2-3.2-6.5-2C44.6,217.9,43.7,220.9,45,223.3
					C45,223.2,45,223.2,45,223.3z"/>
				<path class="st27" d="M46.7,222.3c0.8,1.4,2.5,1.9,3.9,1.2c1.4-0.8,1.9-2.5,1.2-3.9c-0.8-1.4-2.5-1.9-3.9-1.2c0,0,0,0,0,0
					C46.5,219.2,46,220.9,46.7,222.3z"/>
				<path class="st29" d="M71.2,221.6l0.9-0.5l3.2-1.8c0.3-0.2,0.4-0.5,0.2-0.8c0,0,0-0.1-0.1-0.1c-0.4-0.4-0.9-0.7-1.5-0.9l0.1,0.1
					l-0.1-0.1c-1.5-0.3-3.1,0.6-3.5,2.1c0,0,0,0.1,0.1,0.1c0,0,0-0.1-0.1-0.1c-0.2,0.5-0.2,1.1,0,1.6c0.1,0.3,0.4,0.5,0.7,0.4
					C71.1,221.7,71.1,221.6,71.2,221.6z M74.1,217.8C74.1,217.8,74.1,217.8,74.1,217.8C74.1,217.8,74.1,217.8,74.1,217.8z
					 M74.2,218.1C74.2,218.1,74.2,218.1,74.2,218.1C74.2,218.1,74.2,218.1,74.2,218.1C74.2,218,74.2,218.1,74.2,218.1z M74.2,218
					l-0.1-0.1L74.2,218z M74.2,218.2L74.2,218.2z M72.2,220L72.2,220l1.4-0.8l0,0L72.2,220z M70.4,219.8c0,0,0,0.1,0.1,0.1
					C70.4,219.9,70.4,219.9,70.4,219.8L70.4,219.8z"/>
				<path class="st23" d="M105,240.8L105,240.8c1.7-3.2,3.1-6.5,4.3-9.9c1.5-4.2,6.1-6.5,10.3-5c4.1,1.4,6.3,5.7,5.1,9.9
					c-1.4,4.1-3.1,8.1-5.1,11.9l0,0C119.3,248.2,105,240.8,105,240.8z"/>
				<path class="st22" d="M68.7,258.6c2-4,6.9-5.5,10.9-3.5c4.3,2.2,7.9,2.5,11.5,1c5.8-2.4,11.7-10.9,15-17.1l0.7-0.7
					c0,0,14.2,6.8,14.4,6.3l-1.5,3.1c-4.4,8.4-11.6,18.9-22.3,23.3c-2.2,0.9-4.4,1.5-6.7,1.9c-6.3,0.8-12.8-0.4-18.4-3.4
					C68.2,267.4,66.7,262.6,68.7,258.6z"/>
				<path class="st24" d="M68.7,255.2c2-4,6.9-5.5,10.9-3.5c0,0,0,0,0,0c4.3,2.2,7.9,2.5,11.5,1c5.8-2.4,10.6-9.2,13.9-15.3l0,0
					c0,0,14.4,7.4,14.6,7l0,0c-4.3,8.4-11.6,18.8-22.3,23.3c-2.2,0.9-4.4,1.5-6.7,1.9c-6.3,0.8-12.8-0.4-18.4-3.4
					C68.2,264.1,66.7,259.2,68.7,255.2C68.7,255.2,68.7,255.2,68.7,255.2z"/>
				<path class="st25" d="M105,237.4L105,237.4c1.7-3.2,3.1-6.5,4.3-9.9c1.5-4.2,6.1-6.5,10.3-5c4.1,1.4,6.3,5.7,5.1,9.9
					c-1.4,4.1-3.1,8.1-5.1,11.9l0,0C119.3,244.8,105,237.4,105,237.4z"/>
			</g>
		</g>
	</g>
</g>
</svg>
