<?xml version="1.0" encoding="utf-8"?>
<!-- Generator: Adobe Illustrator 25.2.3, SVG Export Plug-In . SVG Version: 6.00 Build 0)  -->
<svg version="1.1" id="Layer_1" xmlns="http://www.w3.org/2000/svg" xmlns:xlink="http://www.w3.org/1999/xlink" x="0px" y="0px"
	 viewBox="0 0 234.2 379.8" style="enable-background:new 0 0 234.2 379.8;" xml:space="preserve">
<style type="text/css">
	.st0{fill:#F4B155;}
	.st1{fill:#FFF0CC;}
	.st2{fill:#231F20;}
	.st3{clip-path:url(#SVGID_2_);}
	.st4{fill:#A4F6FF;}
	.st5{fill:#754854;}
	.st6{fill:none;}
	.st7{fill:#FFFFFF;}
	.st8{fill-rule:evenodd;clip-rule:evenodd;fill:#B59B77;}
	.st9{fill-rule:evenodd;clip-rule:evenodd;fill:#E6705F;}
	.st10{fill-rule:evenodd;clip-rule:evenodd;fill:#DD4F65;}
	.st11{fill-rule:evenodd;clip-rule:evenodd;fill:#474358;}
	.st12{fill:#B59B77;}
	.st13{fill:#47372E;}
	.st14{fill:#DD4F65;}
	.st15{fill:#FFD150;}
	.st16{fill-rule:evenodd;clip-rule:evenodd;fill:#FFD150;}
	.st17{fill-rule:evenodd;clip-rule:evenodd;fill:#A58C69;}
	.st18{fill-rule:evenodd;clip-rule:evenodd;fill:#99805D;}
	.st19{fill-rule:evenodd;clip-rule:evenodd;fill:#EE915B;}
	.st20{fill-rule:evenodd;clip-rule:evenodd;fill:#89714E;}
	.st21{fill-rule:evenodd;clip-rule:evenodd;fill:#F5B155;}
	.st22{fill:#80EAED;}
	.st23{fill:#66424D;}
	.st24{fill:#F4B055;}
	.st25{fill:#E4705E;}
	.st26{fill:#4A355B;}
	.st27{fill:#414042;}
	.st28{fill:#FFD351;}
	.st29{fill:#F5B155;}
	.st30{fill:#AA334A;}
	.st31{fill:#334572;}
	.st32{fill:#FFC152;}
	.st33{fill:#47C1C8;}
	.st34{fill:#E6705F;}
</style>
<g id="Layer_2_1_">
	<g id="Layer_1-2">
		<path class="st0" d="M234.2,14.4v351c0,7.9-6.7,14.4-14.9,14.4H14.9c-8.2,0-14.9-6.4-14.9-14.4v-351C0,6.5,6.7,0,14.9,0h204.3
			C227.5,0,234.2,6.5,234.2,14.4z M221.6,357.1V22.8c0-5.9-4.8-10.7-10.8-10.8H23.3c-5.9,0-10.7,4.8-10.8,10.8v334.3
			c0,5.9,4.8,10.8,10.8,10.8h187.5C216.8,367.8,221.6,363,221.6,357.1z"/>
		<path class="st1" d="M23.3,12h187.5c6,0,10.8,4.8,10.8,10.8v334.3c0,6-4.8,10.8-10.8,10.8H23.3c-6,0-10.8-4.8-10.8-10.8V22.8
			C12.6,16.8,17.4,12,23.3,12z"/>
		<path class="st2" d="M41.8,325.9c-0.1-0.1-0.2-0.3-0.2-0.5v-11c0-0.2,0-0.4,0.2-0.5c0.1-0.1,0.3-0.2,0.5-0.2h7.5
			c0.2,0,0.4,0,0.5,0.1c0.1,0.1,0.2,0.3,0.1,0.5v0.5c0,0.2,0,0.3-0.1,0.5c-0.1,0.1-0.3,0.2-0.5,0.2H44v3.5h4.3c0.2,0,0.4,0,0.5,0.1
			c0.1,0.1,0.2,0.3,0.2,0.5v0.5c0,0.2,0,0.4-0.2,0.5c-0.1,0.1-0.3,0.2-0.5,0.1H44v4.6c0,0.2,0,0.3-0.2,0.5c-0.1,0.1-0.3,0.2-0.5,0.2
			h-1C42.1,326,42,326,41.8,325.9z"/>
		<path class="st2" d="M52.4,324.6c-2.1-2.8-2.1-6.7,0-9.5c1.2-1.2,2.9-1.8,4.6-1.7c1.7-0.1,3.4,0.5,4.6,1.7c2.1,2.8,2.1,6.7,0,9.5
			c-1.2,1.2-2.9,1.8-4.6,1.7C55.2,326.4,53.6,325.8,52.4,324.6z M59.8,323.4c1.3-2.1,1.3-4.9,0-7c-1.6-1.6-4.2-1.6-5.8,0
			c0,0,0,0,0,0c-1.3,2.1-1.3,4.9,0,7C55.6,325,58.2,325,59.8,323.4C59.8,323.4,59.8,323.4,59.8,323.4z"/>
		<path class="st2" d="M67.4,325.8c-0.8-0.3-1.5-0.9-1.9-1.6c-0.5-0.7-0.7-1.6-0.7-2.5v-7.3c0-0.2,0-0.4,0.2-0.5
			c0.1-0.1,0.3-0.2,0.5-0.2h1c0.2,0,0.4,0,0.5,0.2c0.1,0.1,0.2,0.3,0.2,0.5v7.4c-0.1,0.8,0.2,1.6,0.8,2.1c1.4,1,3.3,1,4.7,0
			c0.6-0.6,0.9-1.3,0.8-2.1v-7.4c0-0.2,0-0.4,0.2-0.5c0.1-0.1,0.3-0.2,0.5-0.2h0.9c0.5,0,0.7,0.2,0.7,0.7v7.3c0,0.9-0.2,1.7-0.7,2.5
			c-0.5,0.7-1.2,1.3-1.9,1.6c-0.9,0.4-1.9,0.6-2.9,0.6C69.3,326.3,68.4,326.2,67.4,325.8z"/>
		<path class="st2" d="M78,325.9c-0.1-0.1-0.2-0.3-0.2-0.5v-11c0-0.2,0-0.4,0.2-0.5c0.1-0.1,0.3-0.2,0.5-0.2h4.7
			c1.2-0.1,2.3,0.3,3.2,1c0.8,0.8,1.2,1.8,1.1,2.9c0,0.8-0.2,1.5-0.6,2.2c-0.4,0.6-1,1.1-1.7,1.4l2,4.5c0,0.1,0.1,0.1,0.1,0.2
			c0,0.2-0.1,0.3-0.3,0.3h-1.5c-0.1,0-0.2,0-0.3-0.1c-0.1-0.1-0.2-0.2-0.2-0.3l-1.8-4.3h-2.9v4c0,0.2,0,0.3-0.2,0.5
			c-0.1,0.1-0.3,0.2-0.5,0.2h-1C78.3,326.1,78.1,326,78,325.9z M82.8,319.7c0.7,0,1.3-0.1,1.9-0.5c0.4-0.4,0.6-1,0.6-1.6
			c0.1-0.6-0.1-1.2-0.5-1.6c-0.5-0.4-1.1-0.5-1.7-0.5h-2.9v4.2H82.8z"/>
		<path class="st2" d="M97.6,324.6c-2.1-2.8-2.1-6.7,0-9.5c2.6-2.3,6.5-2.3,9.2,0c2.1,2.8,2.1,6.7,0,9.5
			C104.1,326.9,100.2,326.9,97.6,324.6z M105.1,323.4c1.3-2.1,1.3-4.9,0-7c-1.6-1.6-4.2-1.6-5.8,0c0,0,0,0,0,0c-1.3,2.1-1.3,4.9,0,7
			C100.9,325,103.4,325,105.1,323.4C105.1,323.4,105.1,323.4,105.1,323.4z"/>
		<path class="st2" d="M110.3,325.9c-0.1-0.1-0.2-0.3-0.2-0.5v-11c0-0.2,0-0.4,0.2-0.5c0.1-0.1,0.3-0.2,0.5-0.2h7.5
			c0.2,0,0.4,0,0.5,0.1c0.1,0.1,0.2,0.3,0.1,0.5v0.5c0,0.2,0,0.4-0.1,0.5c-0.1,0.1-0.3,0.2-0.5,0.2h-5.9v3.5h4.3
			c0.2,0,0.4,0,0.5,0.1c0.1,0.1,0.2,0.3,0.2,0.5v0.5c0,0.2,0,0.4-0.2,0.5c-0.1,0.1-0.3,0.2-0.5,0.1h-4.3v4.6c0,0.2,0,0.3-0.2,0.5
			c-0.1,0.1-0.3,0.2-0.5,0.2h-1C110.6,326,110.4,326,110.3,325.9z"/>
		<path class="st2" d="M130.5,325.9c-0.1-0.1-0.2-0.2-0.2-0.4l-3.1-12.4c0-0.1,0-0.1,0-0.2c0-0.2,0.1-0.3,0.4-0.3h1.6
			c0.1,0,0.3,0,0.4,0.1c0.1,0.1,0.1,0.2,0.2,0.3l1.9,8.6l2.4-7.6c0-0.1,0.1-0.2,0.2-0.3c0.1-0.1,0.2-0.1,0.4-0.1h0.9
			c0.1,0,0.3,0,0.4,0.1c0.1,0.1,0.2,0.2,0.2,0.3l2.4,7.6l1.9-8.6c0-0.1,0.1-0.2,0.2-0.3c0.1-0.1,0.3-0.1,0.4-0.1h1.6
			c0.2,0,0.4,0.1,0.4,0.3c0,0.1,0,0.1,0,0.2l-3.1,12.4c0,0.1-0.1,0.3-0.2,0.4c-0.1,0.1-0.3,0.1-0.4,0.1H138c-0.3,0-0.6-0.2-0.6-0.5
			l-2.4-7.8l-2.4,7.8c0,0.1-0.1,0.3-0.2,0.4c-0.1,0.1-0.3,0.1-0.4,0.1h-1.1C130.8,326.1,130.6,326,130.5,325.9z"/>
		<path class="st2" d="M142.3,325.8c0-0.1,0-0.2,0.1-0.2l5.2-12.2c0-0.2,0.1-0.3,0.2-0.4c0.1-0.1,0.3-0.1,0.4-0.1h1.1
			c0.1,0,0.3,0,0.4,0.1c0.1,0.1,0.2,0.2,0.2,0.4l5.2,12.2c0,0.1,0.1,0.2,0.1,0.2c0,0.2-0.1,0.3-0.3,0.3h-1.7c-0.1,0-0.2,0-0.4-0.1
			c-0.1-0.1-0.2-0.2-0.2-0.3l-1.1-2.7H146l-1.1,2.7c0,0.1-0.1,0.2-0.2,0.3c-0.1,0.1-0.2,0.1-0.4,0.1h-1.7
			C142.4,326.1,142.3,325.9,142.3,325.8z M150.8,321.1l-2.1-5.1l-2.1,5.1L150.8,321.1z"/>
		<path class="st2" d="M157.2,325.9c-0.1-0.1-0.2-0.3-0.2-0.5v-11.9c0-0.2,0-0.4,0.2-0.5c0.2-0.1,0.4-0.2,0.6-0.2h0.9
			c0.1,0,0.3,0,0.4,0.1c0.1,0.1,0.2,0.2,0.3,0.3l6.4,9v-8.6c-0.1-0.3,0.2-0.7,0.5-0.7c0.1,0,0.2,0,0.2,0h1c0.2,0,0.4,0,0.6,0.2
			c0.1,0.2,0.2,0.3,0.2,0.5v11.9c0.1,0.3-0.2,0.7-0.5,0.7c-0.1,0-0.1,0-0.2,0h-0.9c-0.3,0-0.6-0.1-0.7-0.4l-6.5-8.9v8.6
			c0,0.2,0,0.4-0.2,0.5c-0.2,0.1-0.4,0.2-0.6,0.2h-1C157.6,326.1,157.4,326,157.2,325.9z"/>
		<path class="st2" d="M170.9,325.9c-0.1-0.1-0.2-0.3-0.2-0.5v-11.9c0-0.2,0-0.4,0.2-0.5c0.2-0.1,0.4-0.2,0.6-0.2h3.9
			c1.8-0.1,3.6,0.4,5.1,1.6c1.2,1.1,1.8,2.8,1.8,5.1c0,4.4-2.3,6.7-6.8,6.7h-3.9C171.2,326.1,171,326,170.9,325.9z M175.5,324.1
			c1.1,0.1,2.3-0.3,3.1-1.1c1.4-2.3,1.4-5.1,0-7.4c-0.9-0.8-2-1.1-3.1-1.1h-2.3v9.5H175.5z"/>
		<path class="st2" d="M185.2,326c-0.8-0.2-1.5-0.4-2.1-0.9c-0.2-0.1-0.3-0.2-0.3-0.3c0-0.1,0-0.2,0.1-0.2l0.6-1
			c0.1-0.1,0.2-0.2,0.2-0.2c0.1,0,0.2,0,0.3,0.1c0.5,0.3,1.1,0.5,1.7,0.7c0.6,0.2,1.3,0.3,1.9,0.3c0.7,0,1.4-0.1,2-0.4
			c0.5-0.3,0.7-0.9,0.7-1.4c0-0.3-0.1-0.7-0.2-0.9c-0.2-0.3-0.5-0.5-0.8-0.6c-0.3-0.2-0.9-0.4-1.6-0.7l-0.4-0.2
			c-0.7-0.3-1.4-0.6-2.1-1c-0.5-0.3-1-0.7-1.4-1.2c-0.4-0.5-0.6-1.2-0.6-1.9c0-1.1,0.5-2.1,1.4-2.8c1.1-0.7,2.3-1,3.6-1
			c0.8,0,1.6,0.1,2.3,0.3c0.6,0.2,1.2,0.4,1.7,0.8c0.1,0.1,0.2,0.2,0.2,0.3c0,0.1,0,0.2-0.1,0.2l-0.6,1c-0.1,0.1-0.1,0.2-0.2,0.2
			c-0.1,0-0.2-0.1-0.2-0.1c-0.9-0.6-2-0.8-3.1-0.8c-0.7,0-1.3,0.1-1.9,0.5c-0.7,0.6-0.8,1.6-0.4,2.4c0.2,0.3,0.5,0.5,0.8,0.6
			c0.5,0.3,1.1,0.5,1.6,0.7l0.5,0.2c0.8,0.3,1.5,0.6,2.2,1c0.5,0.3,0.9,0.7,1.2,1.2c0.3,0.6,0.5,1.2,0.4,1.8c0,1-0.4,2-1.3,2.6
			c-1.1,0.7-2.3,1.1-3.6,1C187,326.3,186.1,326.2,185.2,326z"/>
		<g>
			<defs>
				<path id="SVGID_1_" d="M52.8,44.3h128.5c13.6,0,24.7,11.1,24.7,24.7v191.6c0,13.6-11.1,24.7-24.7,24.7H52.8
					c-13.6,0-24.7-11.1-24.7-24.7V69C28.1,55.3,39.2,44.3,52.8,44.3z"/>
			</defs>
			<clipPath id="SVGID_2_">
				<use xlink:href="#SVGID_1_"  style="overflow:visible;"/>
			</clipPath>
			<g class="st3">
				<polygon class="st4" points="210.2,44.5 19.7,44.5 19.7,194.8 19.7,212.2 19.7,294.5 210.1,294.5 210.1,212.2 210.2,212.2 				
					"/>
				<rect x="22.7" y="140.5" class="st5" width="183.3" height="153.9"/>
				<polygon class="st6" points="185.9,44.5 43.8,44.5 43.8,194.8 43.8,212.2 43.8,294.5 185.8,294.5 185.8,212.2 185.9,212.2 				
					"/>
				<path class="st7" d="M97.3,129.6H7.9c-6.4,0-11.5-5.2-11.5-11.6l0,0c0-6.4,5.2-11.5,11.5-11.5h89.3c6.4,0,11.5,5.2,11.6,11.5
					l0,0C108.8,124.4,103.7,129.5,97.3,129.6z"/>
				<circle class="st7" cx="41.2" cy="100.9" r="28.7"/>
				<circle class="st7" cx="72.8" cy="109.1" r="20.4"/>
				<path class="st7" d="M153,127.7h69.9c5,0,9-4,9-9l0,0c0-5-4-9-9-9H153c-5,0-9,4-9,9l0,0C144,123.7,148,127.7,153,127.7z"/>
				<circle class="st7" cx="196.9" cy="105.3" r="22.4"/>
				<circle class="st7" cx="172.2" cy="111.7" r="16"/>
				<path class="st8" d="M124.1,78.5h-0.7l-0.4,31.8l0.8-0.2L124.1,78.5z"/>
				<path class="st9" d="M134.5,106.6c3.4-7,3.5-15.1,0.3-22.2L111,83.2c4.9,7.2,4,19-2.5,26.2c8.3-3.1,17.3-4.8,22.4-1.3
					C132.1,107.7,133.3,107.2,134.5,106.6L134.5,106.6z"/>
				<path class="st10" d="M134.5,106.6c3.4-7,3.5-15.1,0.3-22.2c1.4,13.7-19.3,22.4-25,24.5c7.9-2.8,16.2-4.2,21-0.8
					C132.1,107.7,133.3,107.2,134.5,106.6L134.5,106.6z"/>
				<path class="st11" d="M123.3,78.7v0.6c-1.7,0.4-3.4,0.5-5.2,0.2c-3-0.5-6,0.1-8.5,1.8c2.5-2.1,5.8-3,9-2.6
					c-2.3-0.9-4.7-1-7.1-0.3c2.1-0.7,4.8-1.3,7.1-0.6C120.2,78.1,121.7,79.1,123.3,78.7L123.3,78.7z"/>
				
					<rect x="104.5" y="109.5" transform="matrix(0.9261 -0.3772 0.3772 0.9261 -33.4093 48.6885)" class="st12" width="6.2" height="0.3"/>
				<path class="st10" d="M145.1,100.4c0.6-2.1,1.3-4.2,2.1-6.3c0.5-1.1,1.3-2.6,2.6-2.2c0.7,0.3,1.1,1.1,0.8,1.8
					c0,0.1-0.1,0.1-0.1,0.2c-0.2,0.4-0.7,0.6-1.1,0.5c-0.3-0.2-0.3-0.6-0.1-1.1c-1.1,2.3-1.9,4.7-2.3,7.2c-1.4,6-3.4,11.5-8.9,14.4
					C142.3,111.5,144.1,106.2,145.1,100.4L145.1,100.4z"/>
				<path class="st13" d="M108.2,112.2L108.2,112.2c-0.2,0-0.3-0.2-0.3-0.3v-5.3c0-0.2,0.2-0.3,0.3-0.3l0,0c0.2,0,0.3,0.2,0.3,0.3
					v5.3C108.5,112,108.4,112.2,108.2,112.2z"/>
				<path class="st14" d="M108.2,103.2L108.2,103.2c-0.1,0.1-0.2,0.3-0.2,0.5c0,0.4,0.3,0.7,0.7,0.7c0.2,0,0.4-0.1,0.5-0.2
					c0,0.1,0,0.2,0,0.3c-0.1,0.6-0.7,0.9-1.3,0.8c-0.6-0.1-0.9-0.7-0.8-1.3C107.2,103.6,107.7,103.2,108.2,103.2L108.2,103.2z"/>
				<path class="st15" d="M107.8,104.5L107.8,104.5c0,0.3,0.3,0.6,0.6,0.6h0.1c0,0.2-0.2,0.4-0.4,0.5c-0.3,0-0.5-0.3-0.5-0.6
					C107.6,104.8,107.7,104.6,107.8,104.5z"/>
				<path class="st13" d="M111.6,112.2L111.6,112.2c-0.2,0-0.3-0.2-0.3-0.3v-5.3c0-0.2,0.2-0.3,0.3-0.3l0,0c0.2,0,0.4,0.2,0.4,0.3
					v5.3C112,112,111.8,112.2,111.6,112.2z"/>
				<path class="st14" d="M111.6,103.2L111.6,103.2c-0.1,0.1-0.2,0.3-0.2,0.5c0,0.4,0.3,0.7,0.7,0.7c0.2,0,0.4-0.1,0.5-0.2
					c0,0.1,0,0.2,0,0.3c-0.1,0.6-0.7,0.9-1.3,0.8c-0.6-0.1-0.9-0.7-0.8-1.3C110.7,103.6,111.1,103.2,111.6,103.2z"/>
				<path class="st15" d="M111.2,104.5L111.2,104.5c0,0.3,0.3,0.6,0.6,0.6h0.2c0,0.2-0.2,0.4-0.4,0.5c-0.3,0-0.5-0.3-0.5-0.6
					C111,104.8,111.1,104.6,111.2,104.5z"/>
				<path class="st13" d="M115.1,112.2L115.1,112.2c-0.2,0-0.4-0.2-0.4-0.3v-5.3c0-0.2,0.2-0.4,0.4-0.3l0,0c0.2,0,0.3,0.2,0.3,0.3
					v5.3C115.4,112,115.3,112.2,115.1,112.2z"/>
				<path class="st14" d="M115.1,103.2L115.1,103.2c-0.1,0.1-0.2,0.3-0.2,0.5c0,0.4,0.3,0.7,0.7,0.7c0.2,0,0.4-0.1,0.5-0.2
					c0,0.1,0,0.2,0,0.3c-0.1,0.6-0.7,0.9-1.3,0.8c-0.6-0.1-0.9-0.7-0.8-1.3C114.1,103.6,114.5,103.2,115.1,103.2L115.1,103.2z"/>
				<path class="st15" d="M114.7,104.5L114.7,104.5c0,0.3,0.3,0.6,0.6,0.6h0.1c0,0.2-0.2,0.4-0.4,0.5c-0.3,0-0.5-0.3-0.5-0.6
					C114.5,104.8,114.6,104.6,114.7,104.5z"/>
				<path class="st13" d="M118.5,112.2L118.5,112.2c-0.2,0-0.3-0.2-0.3-0.3v-5.3c0-0.2,0.2-0.3,0.3-0.3l0,0c0.2,0,0.3,0.2,0.3,0.3
					v5.3C118.8,112,118.7,112.2,118.5,112.2z"/>
				<path class="st14" d="M118.5,103.2L118.5,103.2c-0.1,0.1-0.2,0.3-0.2,0.5c0,0.4,0.3,0.7,0.7,0.7c0.2,0,0.4-0.1,0.5-0.2
					c0,0.1,0,0.2,0,0.3c-0.1,0.6-0.7,0.9-1.3,0.8c-0.6-0.1-0.9-0.7-0.8-1.3C117.5,103.6,118,103.2,118.5,103.2L118.5,103.2z"/>
				<path class="st15" d="M118.1,104.5L118.1,104.5c0,0.3,0.3,0.6,0.6,0.6h0.2c0,0.2-0.2,0.5-0.5,0.5c-0.3,0-0.5-0.3-0.4-0.6
					C117.9,104.8,118,104.6,118.1,104.5z"/>
				<path class="st13" d="M121.9,112.2L121.9,112.2c-0.2,0-0.3-0.2-0.3-0.3v-5.3c0-0.2,0.2-0.3,0.3-0.3l0,0c0.2,0,0.4,0.2,0.4,0.3
					v5.3C122.3,112,122.1,112.2,121.9,112.2z"/>
				<path class="st14" d="M121.9,103.2L121.9,103.2c-0.1,0.1-0.2,0.3-0.2,0.5c0,0.4,0.3,0.7,0.7,0.7c0,0,0,0,0,0
					c0.2,0,0.4-0.1,0.5-0.2c0,0.1,0,0.2,0,0.3c-0.1,0.6-0.7,0.9-1.3,0.8c-0.6-0.1-0.9-0.7-0.8-1.3
					C121,103.6,121.4,103.2,121.9,103.2L121.9,103.2z"/>
				<path class="st15" d="M121.6,104.5L121.6,104.5c0,0.3,0.3,0.6,0.6,0.6h0.1c0,0.2-0.2,0.4-0.4,0.5c-0.3,0-0.5-0.3-0.5-0.6
					C121.4,104.8,121.4,104.6,121.6,104.5z"/>
				<path class="st13" d="M125.4,112.2L125.4,112.2c-0.2,0-0.3-0.2-0.3-0.3v-5.3c0-0.2,0.2-0.3,0.3-0.3l0,0c0.2,0,0.3,0.2,0.3,0.3
					v5.3C125.7,112,125.6,112.2,125.4,112.2z"/>
				<path class="st14" d="M125.4,103.2L125.4,103.2c-0.1,0.1-0.2,0.3-0.2,0.5c0,0.4,0.3,0.7,0.7,0.7c0.2,0,0.4-0.1,0.5-0.2
					c0,0.1,0,0.2,0,0.3c-0.1,0.6-0.7,0.9-1.3,0.8c-0.6-0.1-0.9-0.7-0.8-1.3C124.4,103.6,124.9,103.2,125.4,103.2L125.4,103.2z"/>
				<path class="st15" d="M125,104.5L125,104.5c0,0.3,0.3,0.6,0.6,0.6h0.1c0,0.2-0.2,0.4-0.4,0.5c-0.3,0-0.5-0.3-0.5-0.6
					C124.8,104.8,124.9,104.6,125,104.5z"/>
				<path class="st13" d="M128.8,112.2L128.8,112.2c-0.2,0-0.4-0.2-0.4-0.3c0,0,0,0,0,0v-5.3c0-0.2,0.2-0.3,0.4-0.3l0,0l0,0
					c0.2,0,0.4,0.2,0.4,0.3c0,0,0,0,0,0v5.3C129.2,112,129,112.2,128.8,112.2L128.8,112.2z"/>
				<path class="st14" d="M128.8,103.2L128.8,103.2c-0.1,0.1-0.2,0.3-0.2,0.5c0,0.4,0.3,0.7,0.7,0.7c0.2,0,0.4-0.1,0.5-0.2
					c0,0.1,0,0.2,0,0.3c-0.1,0.6-0.7,0.9-1.3,0.8c-0.6-0.1-0.9-0.7-0.8-1.3C127.9,103.6,128.3,103.2,128.8,103.2L128.8,103.2z"/>
				<path class="st15" d="M128.5,104.5L128.5,104.5c0,0.3,0.3,0.6,0.6,0.6h0.1c0,0.2-0.2,0.4-0.4,0.5c-0.3,0-0.5-0.3-0.5-0.6
					C128.3,104.8,128.3,104.6,128.5,104.5z"/>
				<path class="st13" d="M128.8,112.2L128.8,112.2c-0.2,0-0.4-0.2-0.4-0.3c0,0,0,0,0,0v-5.3c0-0.2,0.2-0.3,0.4-0.3l0,0l0,0
					c0.2,0,0.4,0.2,0.4,0.3c0,0,0,0,0,0v5.3C129.2,112,129,112.2,128.8,112.2L128.8,112.2z"/>
				<path class="st14" d="M128.8,103.2L128.8,103.2c-0.1,0.1-0.2,0.3-0.2,0.5c0,0.4,0.3,0.7,0.7,0.7c0.2,0,0.4-0.1,0.5-0.2
					c0,0.1,0,0.2,0,0.3c-0.1,0.6-0.7,0.9-1.3,0.8c-0.6-0.1-0.9-0.7-0.8-1.3C127.9,103.6,128.3,103.2,128.8,103.2L128.8,103.2z"/>
				<path class="st15" d="M128.5,104.5L128.5,104.5c0,0.3,0.3,0.6,0.6,0.6h0.1c0,0.2-0.2,0.4-0.4,0.5c-0.3,0-0.5-0.3-0.5-0.6
					C128.3,104.8,128.3,104.6,128.5,104.5z"/>
				<path class="st13" d="M132.3,112.2L132.3,112.2c-0.2,0-0.4-0.2-0.4-0.3v-5.3c0-0.2,0.2-0.4,0.4-0.3l0,0c0.2,0,0.4,0.2,0.4,0.3
					c0,0,0,0,0,0v5.3C132.6,112,132.5,112.2,132.3,112.2L132.3,112.2z"/>
				<path class="st14" d="M132.3,103.2L132.3,103.2c-0.1,0.1-0.2,0.3-0.2,0.5c0,0.4,0.3,0.7,0.7,0.7l0,0c0.2,0,0.4-0.1,0.5-0.2
					c0,0.1,0,0.2,0,0.3c-0.1,0.6-0.7,0.9-1.3,0.8c-0.6-0.1-0.9-0.7-0.8-1.3C131.3,103.6,131.8,103.2,132.3,103.2L132.3,103.2z"/>
				<path class="st15" d="M131.9,104.5L131.9,104.5c0,0.3,0.3,0.6,0.6,0.6l0,0h0.1c0,0.2-0.2,0.4-0.4,0.5c-0.3,0-0.5-0.3-0.5-0.6
					C131.7,104.8,131.8,104.6,131.9,104.5z"/>
				<path class="st16" d="M138.1,114.9l-30.7-0.2c-1.3-1.2-2.4-2.6-3.2-4.3c7.1,1.3,14.4,1.1,21.4-0.7c7.1-1.8,13.7-5,19.5-9.4
					C144.8,106,143,111.4,138.1,114.9L138.1,114.9z"/>
				<path class="st17" d="M138.1,114.9c5-3.6,6.7-8.9,7-14.5c-2.6,6.4-7.6,11.6-13.9,14.5L138.1,114.9L138.1,114.9z M111.7,114.7
					c-2.9-0.7-5.4-2.2-7.5-4.3c0.8,1.6,1.8,3.1,3.2,4.3L111.7,114.7L111.7,114.7z"/>
				<path class="st18" d="M138.1,114.9h-2.4c1.5-0.4,2.9-0.9,4.3-1.6C139.4,113.9,138.7,114.4,138.1,114.9L138.1,114.9z"/>
				<path class="st19" d="M126.1,114.8c5.9-1.3,11.7-3.3,17.1-6.1c0.6-1.3,1-2.6,1.3-4c-11.4,6.5-24.2,9.5-38.4,8.6
					c0.4,0.5,0.8,0.9,1.3,1.3L126.1,114.8L126.1,114.8z M138.1,114.9c0.7-0.5,1.3-1,1.9-1.6c-1.4,0.6-2.8,1.1-4.3,1.6L138.1,114.9z"
					/>
				<path class="st20" d="M111.7,114.7c-1.2-0.3-2.3-0.7-3.3-1.2c-0.8,0-1.5-0.1-2.3-0.1c0.4,0.5,0.8,0.9,1.3,1.3L111.7,114.7
					L111.7,114.7z M141.8,106.2c-1.6,2.1-3.4,4-5.6,5.6c2.4-0.9,4.7-1.9,6.9-3.1c0.6-1.3,1-2.6,1.3-4
					C143.6,105.2,142.7,105.7,141.8,106.2L141.8,106.2z M138.1,114.9c0.7-0.5,1.3-1,1.9-1.6c-1.4,0.6-2.8,1.1-4.3,1.6L138.1,114.9z"
					/>
				<path class="st10" d="M147,100.3l-0.1,0.2c-1.4,6-3.4,11.5-8.9,14.4c4.2-3.5,6.1-8.8,7-14.5L147,100.3z"/>
				<path class="st21" d="M138.1,114.9c5-3.6,6.7-8.9,7-14.5c-2.6,6.4-7.6,11.6-13.9,14.5L138.1,114.9L138.1,114.9z M111.7,114.7
					c-2.9-0.7-5.4-2.2-7.5-4.3c0.8,1.6,1.8,3.1,3.2,4.3L111.7,114.7L111.7,114.7z"/>
				<path class="st9" d="M111.7,114.7c-1.2-0.3-2.3-0.7-3.3-1.2c-0.8,0-1.5-0.1-2.3-0.1c0.4,0.5,0.8,0.9,1.3,1.3L111.7,114.7
					L111.7,114.7z M141.8,106.2c-1.6,2.1-3.4,4-5.6,5.6c2.4-0.9,4.7-1.9,6.9-3.1c0.6-1.3,1-2.6,1.3-4
					C143.6,105.2,142.7,105.7,141.8,106.2L141.8,106.2z"/>
				<path class="st16" d="M129.5,94.4c-0.2,2.1-2.1,3.6-4.2,3.4c-2.1-0.2-3.6-2.1-3.4-4.2c0.2-1.9,1.8-3.4,3.8-3.4
					C127.9,90.3,129.6,92.2,129.5,94.4C129.5,94.4,129.5,94.4,129.5,94.4z"/>
				<rect x="23.8" y="113.2" class="st22" width="182.2" height="30.3"/>
				<path class="st4" d="M61.4,119.1h-26c-0.7,0-1.3-0.6-1.3-1.3l0,0c0-0.7,0.6-1.3,1.3-1.3h26c0.7,0,1.3,0.6,1.3,1.3l0,0
					C62.7,118.5,62.1,119.1,61.4,119.1z"/>
				<path class="st4" d="M79.6,125.4h-26c-0.7,0-1.3-0.6-1.3-1.3l0,0c0-0.7,0.6-1.3,1.3-1.3h26c0.7,0,1.3,0.6,1.3,1.3l0,0
					C80.9,124.8,80.3,125.4,79.6,125.4z"/>
				<path class="st4" d="M62.9,131.7h-26c-0.7,0-1.3-0.6-1.3-1.3l0,0c0-0.7,0.6-1.3,1.3-1.3h26c0.7,0,1.3,0.6,1.3,1.3l0,0
					C64.2,131.2,63.6,131.7,62.9,131.7z"/>
				<path class="st4" d="M90.7,138.1h-26c-0.7,0-1.3-0.6-1.3-1.3l0,0c0-0.7,0.6-1.3,1.3-1.3h26c0.7,0,1.3,0.6,1.3,1.3c0,0,0,0,0,0
					l0,0C92,137.5,91.4,138.1,90.7,138.1z"/>
				<path class="st4" d="M110.4,130.4h-26c-0.7,0-1.3-0.6-1.3-1.3l0,0c0-0.7,0.6-1.3,1.3-1.3h26c0.7,0,1.3,0.6,1.3,1.3l0,0
					C111.7,129.8,111.2,130.4,110.4,130.4z"/>
				<path class="st4" d="M166.9,120.4h-26c-0.7,0-1.3-0.6-1.3-1.3l0,0c0-0.7,0.6-1.3,1.3-1.3h26c0.7,0,1.3,0.6,1.3,1.3l0,0
					C168.2,119.8,167.6,120.4,166.9,120.4z"/>
				<path class="st4" d="M158.8,130.4h-26c-0.7,0-1.3-0.6-1.3-1.3l0,0c0-0.7,0.6-1.3,1.3-1.3h26c0.7,0,1.3,0.6,1.3,1.3l0,0
					C160.1,129.8,159.6,130.4,158.8,130.4z"/>
				<path class="st4" d="M128,121.7h-26c-0.7,0-1.3-0.6-1.3-1.3l0,0c0-0.7,0.6-1.3,1.3-1.3h26c0.7,0,1.3,0.6,1.3,1.3l0,0
					C129.3,121.1,128.7,121.7,128,121.7z"/>
				<path class="st4" d="M140.8,139.4h-26c-0.7,0-1.3-0.6-1.3-1.3l0,0c0-0.7,0.6-1.3,1.3-1.3h26c0.7,0,1.3,0.6,1.3,1.3l0,0
					C142.1,138.8,141.5,139.4,140.8,139.4z"/>
				<path class="st4" d="M187.5,139.4h-26c-0.7,0-1.3-0.6-1.3-1.3l0,0c0-0.7,0.6-1.3,1.3-1.3h26c0.7,0,1.3,0.6,1.3,1.3l0,0
					C188.8,138.8,188.2,139.4,187.5,139.4z"/>
				<path class="st4" d="M198.5,130.4h-26c-0.7,0-1.3-0.6-1.3-1.3l0,0c0-0.7,0.6-1.3,1.3-1.3h26c0.7,0,1.3,0.6,1.3,1.3l0,0
					C199.8,129.8,199.3,130.4,198.5,130.4z"/>
				<path class="st4" d="M200.7,123h-26c-0.7,0-1.3-0.6-1.3-1.3l0,0c0-0.7,0.6-1.3,1.3-1.3h26c0.7,0,1.3,0.6,1.3,1.3l0,0
					C202,122.4,201.4,123,200.7,123z"/>
				<polygon class="st23" points="105.5,190.2 66.2,214.9 24.7,264.5 39.2,290.2 210.1,292.8 218.6,266.8 128,192.9 				"/>
				<path class="st23" d="M165,237h-31.7c-1.5,0-2.7-1.2-2.7-2.7l0,0l0,0c0-1.5,1.2-2.7,2.7-2.7H165c1.5,0,2.7,1.2,2.7,2.7l0,0
					C167.7,235.8,166.5,237,165,237z"/>
				<path class="st24" d="M136.4,198.1c1.6,0,2.8-1.3,2.8-2.8c0-1.6-1.3-2.8-2.8-2.8c-2.2-0.1-4.3-1.1-5.8-2.6c-1.1-1-1.8-2.5-1.9-4
					c0-3.4,4-6.5,7.6-8.3c1.4-0.7,2-2.4,1.3-3.8c-0.7-1.4-2.4-2-3.8-1.3c-3.2,1.6-10.8,6-10.9,13.4c0,3.1,1.3,6,3.5,8.1
					C129.2,196.5,132.7,198,136.4,198.1z"/>
				<path class="st15" d="M141.5,230.6v-26c0.1-1.3-0.9-2.5-2.2-2.5c-1.3-0.1-2.5,0.9-2.5,2.2c0,0.1,0,0.2,0,0.3v26.5l-1.7,0.4
					c-0.3,0.1-0.6,0.2-0.8,0.4l-0.4,0.4c-0.5,0.6-0.5,1.5,0.1,2c0.3,0.2,0.6,0.4,1,0.4h5.7c0.8,0,1.4-0.6,1.4-1.4v-1.6
					C142.1,231.3,141.9,230.9,141.5,230.6z"/>
				<path class="st15" d="M145.6,230.6v-26c-0.1-1.3,0.9-2.5,2.2-2.5c1.3-0.1,2.5,0.9,2.5,2.2c0,0.1,0,0.2,0,0.3V231
					c0,0,0,0.1,0,0.1l1.7,0.4c0.3,0.1,0.6,0.2,0.8,0.4l0.4,0.4c0.5,0.6,0.5,1.5-0.1,2c-0.3,0.2-0.6,0.4-1,0.4h-5.7
					c-0.8,0-1.4-0.6-1.4-1.4v-1.6C145,231.3,145.2,230.9,145.6,230.6z"/>
				<path class="st15" d="M149.7,175.4c0-1.3,0.7-2.5,1.9-3.1c2,1.5,3.2,3.8,3.3,6.2c-0.5,0.3-1.1,0.4-1.6,0.4
					C151.3,178.9,149.7,177.3,149.7,175.4z"/>
				<path class="st15" d="M150.7,176.5c2.7,2.6,6.3,4,10,3.9c3.1,0.1,6-1.1,8.2-3.2c5.1-5.3,2.9-13.7,1.7-17.1
					c-0.5-1.5-2.1-2.3-3.6-1.7c-1.5,0.5-2.3,2.1-1.7,3.6c1.4,3.9,1.9,8.8-0.4,11.3c-1.1,1-2.6,1.6-4.2,1.5c-2.2,0-4.4-0.8-6-2.2
					c-1.2-1-3-0.8-4,0.4C149.8,173.9,149.8,175.4,150.7,176.5L150.7,176.5z"/>
				<path class="st13" d="M166.6,135.3l0.5,0c1-0.1,1.8,0.7,1.9,1.6l3.4,49.8c0.1,1-0.7,1.8-1.6,1.9l-0.5,0c-1,0.1-1.8-0.7-1.9-1.6
					l-3.4-49.8C164.9,136.1,165.6,135.3,166.6,135.3z"/>
				<path class="st14" d="M164.6,109h-0.2c2.6,2.2,2.9,6,0.7,8.6s-6,2.9-8.6,0.7l0,0c-0.1,0.8-0.1,1.5,0,2.3
					c0.4,6.1,4.7,10.8,9.6,10.4s8.5-5.5,8.1-11.6S169.4,108.7,164.6,109z"/>
				<path class="st15" d="M168.5,119.7C168.5,119.7,168.5,119.8,168.5,119.7c0.2,2.8-1.9,5.1-4.6,5.3c-0.4,0-0.8,0-1.2-0.1
					c0.5,2.3,2.2,3.9,4.1,3.8c2.2-0.1,3.8-2.4,3.6-5.1C170.3,122.1,169.6,120.7,168.5,119.7z"/>
				<path class="st15" d="M165.3,163.7l1.9-0.6c0.5-0.1,1,0.1,1.2,0.7l0.1,0.3c0.1,0.5-0.1,1-0.7,1.2l-1.9,0.6
					c-0.5,0.1-1-0.1-1.2-0.7l-0.1-0.3C164.5,164.4,164.8,163.8,165.3,163.7z"/>
				<path class="st15" d="M171.7,166.4L171.7,166.4c-1.2,0.3-2.5-0.5-2.8-1.8l-1.2-5.3c-0.3-1.2,0.5-2.5,1.7-2.7c0,0,0,0,0,0l0,0
					c1.2-0.3,2.5,0.5,2.8,1.8l1.2,5.3C173.7,164.9,172.9,166.1,171.7,166.4z"/>
				<path class="st25" d="M154.3,200l0.2-6.9c-14.9-8.4-15.8-19.6-15.9-22.3l-0.7,0.3c-0.3,0.1-0.5,0.3-0.8,0.4
					c-2.5,1.5-4.1,4.2-4.2,7.2l-0.1,3c-0.6,5.9-3.1,28.7-5.2,33.6c2.5,1,5.3,0.7,7.6-0.7c0,0,5-1.2,8,0.1c0,0,3.9,1.9,8.5-1.7
					c2.4-0.1,4.8,0.7,6.5,2.4C156.2,210.5,154.8,205.3,154.3,200z"/>
				<path class="st15" d="M154.9,178.8c0-0.1,0-0.2,0-0.3c-0.5,0.3-1.1,0.4-1.6,0.4c-1.9,0-3.5-1.6-3.5-3.5c0-1.3,0.7-2.5,1.9-3.1
					l0,0c-0.5-0.4-1.1-0.8-1.7-1.1c-1.5-0.8-3.2-1.2-4.9-1.2h-2c-0.8,0-1.6,0.1-2.4,0.3c-0.6,0.1-1.3,0.3-1.9,0.6
					c0,2.7,1,13.9,15.9,22.3l0.1-1.5c0.1-0.4,0.1-0.7,0.2-1.1l-0.2-0.1l0.3-8.7L154.9,178.8z"/>
				<rect x="140.4" y="165.9" class="st15" width="6.9" height="6.7"/>
				<path class="st13" d="M137.4,142.1h13.9c4.3,0,7.8,3.5,7.8,7.8l0,0c0,4.3-3.5,7.8-7.8,7.8h-13.9c-4.3,0-7.8-3.5-7.8-7.8l0,0
					C129.6,145.6,133.1,142.2,137.4,142.1z"/>
				<path class="st15" d="M130,157.2c0,1.5,1.2,2.7,2.7,2.7s2.7-1.2,2.7-2.7s-1.2-2.7-2.7-2.7C131.2,154.5,130,155.7,130,157.2
					C130,157.2,130,157.2,130,157.2z"/>
				<path class="st24" d="M131,157.2c0,0.9,0.7,1.6,1.6,1.6s1.6-0.7,1.6-1.6s-0.7-1.6-1.6-1.6l0,0C131.7,155.5,131,156.3,131,157.2
					C131,157.2,131,157.2,131,157.2z"/>
				<path class="st15" d="M152.6,157.2c0,1.5,1.2,2.7,2.7,2.7s2.7-1.2,2.7-2.7s-1.2-2.7-2.7-2.7
					C153.8,154.5,152.6,155.7,152.6,157.2C152.6,157.2,152.6,157.2,152.6,157.2z"/>
				<path class="st24" d="M153.6,157.2c0,0.9,0.7,1.6,1.6,1.6s1.6-0.7,1.6-1.6s-0.7-1.6-1.6-1.6l0,0
					C154.4,155.5,153.7,156.3,153.6,157.2C153.6,157.2,153.6,157.2,153.6,157.2z"/>
				<path class="st15" d="M143.8,169L143.8,169c6.1,0,11-4.9,11-10.9v-5.7c0-6.1-4.9-11-11-11l0,0c-6.1,0-11,4.9-11,11v5.7
					C132.9,164.1,137.8,169,143.8,169z"/>
				<path class="st13" d="M131.8,159.9c0,6.7,5.4,12.1,12.1,12.1l0,0c6.6,0,12-5.4,12-12.1L131.8,159.9z"/>
				<path class="st26" d="M147.4,158.1L147.4,158.1c-0.8,0-1.4-0.6-1.4-1.3v-1.6c0-0.7,0.6-1.3,1.3-1.3h0.1c0.7,0,1.3,0.6,1.3,1.3
					v1.6C148.7,157.6,148.1,158.1,147.4,158.1z"/>
				<path class="st26" d="M138.1,158.1L138.1,158.1c-0.8,0-1.4-0.6-1.4-1.3v-1.6c0-0.7,0.6-1.3,1.3-1.3h0.1c0.7,0,1.3,0.6,1.3,1.3
					v1.6C139.4,157.6,138.8,158.1,138.1,158.1z"/>
				<path class="st13" d="M135.7,153.9l2.6-1.1c0.5-0.2,0.7-0.8,0.5-1.3l0,0c-0.2-0.5-0.8-0.7-1.3-0.5L135,152
					c-0.5,0.2-0.7,0.8-0.5,1.3l0,0C134.7,153.8,135.2,154,135.7,153.9z"/>
				<path class="st13" d="M149.6,153.9l-2.6-1.1c-0.5-0.2-0.7-0.8-0.5-1.3l0,0c0.2-0.5,0.8-0.7,1.3-0.5l2.6,1.1
					c0.5,0.2,0.7,0.8,0.5,1.3l0,0C150.7,153.8,150.1,154,149.6,153.9z"/>
				<path class="st15" d="M140.1,160.5c-0.4,0-0.7,0.3-0.7,0.7c0,0.1,0,0.2,0,0.2c0.5,1.5,2.2,2.3,3.7,1.8c0.9-0.3,1.5-1,1.8-1.9
					c0.1-0.4-0.1-0.7-0.5-0.8c-0.1,0-0.1,0-0.2,0L140.1,160.5z"/>
				<path class="st24" d="M143.8,158.1c-0.1-0.9-0.8-1.5-1.7-1.4c-0.8,0.1-1.4,0.7-1.4,1.4H143.8z"/>
				<path class="st14" d="M141.1,160.7c0,0.6,0.5,1.2,1.2,1.2c0.6,0,1.2-0.5,1.2-1.2H141.1z"/>
				<path class="st24" d="M142.5,162.7c0-0.1-0.1-0.3-0.3-0.3c-0.1,0-0.3,0.1-0.3,0.3c0,0,0,0,0,0H142.5z"/>
				<path class="st15" d="M66.7,167.1c-3.7,0.1-7.3-1-10.2-3.2c-4.5-3.4-6.8-9.3-6.8-17.4c0-1.7,1.4-3,3-3s3,1.4,3,3
					c0,6.1,1.5,10.3,4.4,12.5c4,3.1,9.8,1.6,9.8,1.6c1.6-0.4,3.3,0.5,3.7,2.1c0.4,1.6-0.5,3.3-2.2,3.7l0,0
					C69.9,166.9,68.3,167.1,66.7,167.1z"/>
				<rect x="71.8" y="190" class="st15" width="4.5" height="8.7"/>
				<rect x="81.5" y="190" class="st15" width="4.4" height="8.7"/>
				<path class="st7" d="M78.4,134.3H81c5.3,0,9.6,4.3,9.6,9.6v4.8c0,5.3-4.3,9.6-9.6,9.6h-2.6c-5.3,0-9.6-4.3-9.6-9.6v-4.8
					C68.9,138.6,73.2,134.3,78.4,134.3z"/>
				<path class="st15" d="M86.4,182.9c-1.3,0.1-2.5-0.9-2.6-2.3c-0.1-1.3,0.9-2.5,2.3-2.6c0.1,0,0.2,0,0.3,0c1.9-0.1,3.7-0.9,5-2.3
					c1-0.9,1.5-2.1,1.6-3.4c0-2.9-3.4-5.6-6.6-7.1c-1.2-0.5-1.8-1.9-1.3-3.2c0.5-1.2,1.9-1.8,3.2-1.3c0.1,0,0.2,0.1,0.3,0.1
					c2.8,1.3,9.3,5.1,9.3,11.4c0,2.6-1.1,5.1-3,6.9C92.7,181.5,89.6,182.9,86.4,182.9z"/>
				<path class="st15" d="M79.1,211.3l-0.3-0.4c-0.2-0.2-0.4-0.4-0.7-0.4l-1.7-0.4V198c0-1.3-1-2.3-2.3-2.3s-2.3,1-2.3,2.3l0,0v11.6
					c-0.3,0.3-0.5,0.7-0.5,1.1v1.5c0,0.8,0.6,1.4,1.4,1.4h5.5c0.8,0,1.4-0.6,1.4-1.4C79.4,211.9,79.3,211.5,79.1,211.3z"/>
				<path class="st25" d="M76,200.3h-4.2c-0.2,0-0.4-0.2-0.4-0.4v-0.1c0-0.2,0.2-0.4,0.4-0.4H76c0.2,0,0.4,0.2,0.4,0.4v0.1
					C76.4,200.1,76.3,200.3,76,200.3z"/>
				<path class="st25" d="M76.1,205.6L76.1,205.6c-0.3,0.2-0.6,0.2-0.7,0l-3.7-4.9c-0.1-0.2-0.1-0.5,0.1-0.6l0.1-0.1
					c0.2-0.1,0.5-0.1,0.6,0.1l3.7,4.9C76.3,205.1,76.3,205.4,76.1,205.6z"/>
				<path class="st25" d="M76,199.9L76,199.9c0.3,0.2,0.3,0.4,0.2,0.6l-3.8,5c-0.1,0.2-0.4,0.2-0.5,0.1l-0.1-0.1
					c-0.2-0.1-0.2-0.4-0.1-0.5l3.8-5C75.6,199.8,75.8,199.8,76,199.9z"/>
				<path class="st25" d="M76.1,210.5L76.1,210.5c-0.3,0.2-0.6,0.2-0.7,0l-3.7-4.9c-0.1-0.2-0.1-0.5,0.1-0.6l0.1-0.1
					c0.2-0.1,0.5-0.1,0.6,0.1l3.7,4.9C76.3,210.1,76.3,210.4,76.1,210.5z"/>
				<path class="st25" d="M76,204.9L76,204.9c0.3,0.2,0.3,0.5,0.2,0.7l-3.7,4.9c-0.1,0.2-0.4,0.2-0.6,0.1l-0.1-0.1
					c-0.2-0.1-0.2-0.4-0.1-0.6l3.7-4.9C75.6,204.8,75.8,204.7,76,204.9z"/>
				<path class="st25" d="M78.1,213.3L78.1,213.3c-0.3,0-0.5-0.2-0.5-0.4v-2.2c0-0.2,0.2-0.4,0.4-0.4h0.1c0.2,0,0.4,0.2,0.4,0.4v2.2
					C78.4,213.2,78.3,213.3,78.1,213.3z"/>
				<path class="st25" d="M76.5,213.3L76.5,213.3c-0.3,0-0.5-0.2-0.5-0.4v-2.6c0-0.2,0.2-0.4,0.4-0.4h0.1c0.2,0,0.4,0.2,0.4,0.4v2.6
					C76.8,213.2,76.7,213.3,76.5,213.3z"/>
				<path class="st25" d="M76,210.9h-4c-0.2,0-0.4-0.2-0.4-0.4v-0.1c0-0.2,0.2-0.4,0.4-0.4h4c0.2,0,0.4,0.2,0.4,0.4v0.1
					C76.4,210.7,76.3,210.9,76,210.9z"/>
				<path class="st25" d="M71.2,212.9h7.9c0.2,0,0.4,0.2,0.4,0.4v0.1c0,0.2-0.2,0.4-0.4,0.4h-7.9c-0.2,0-0.4-0.2-0.4-0.4v-0.1
					C70.8,213,71,212.9,71.2,212.9z"/>
				<path class="st15" d="M81.5,209.6V198c0.1-1.3,1.2-2.2,2.4-2.1c1.2,0.1,2.1,1,2.1,2.1v12c0,0,0,0.1,0,0.1l1.7,0.4
					c0.3,0.1,0.5,0.2,0.7,0.4l0.3,0.4c0.5,0.6,0.5,1.4-0.1,1.9c-0.2,0.2-0.6,0.4-0.9,0.4h-5.5c-0.7,0-1.3-0.6-1.3-1.3v-1.5
					C81,210.3,81.2,209.9,81.5,209.6z"/>
				<path class="st25" d="M85.8,200.3h-4.2c-0.2,0-0.4-0.2-0.4-0.4v-0.1c0-0.2,0.2-0.4,0.4-0.4h4.2c0.2,0,0.4,0.2,0.4,0.4v0.1
					C86.2,200.1,86,200.3,85.8,200.3z"/>
				<path class="st25" d="M85.9,205.6L85.9,205.6c-0.3,0.2-0.6,0.2-0.7,0l-3.7-4.9c-0.1-0.2-0.1-0.5,0.1-0.6l0.1-0.1
					c0.2-0.1,0.5-0.1,0.6,0.1L86,205C86.1,205.1,86.1,205.4,85.9,205.6z"/>
				<path class="st25" d="M85.8,199.9L85.8,199.9c0.3,0.2,0.3,0.5,0.2,0.7l-3.7,4.9c-0.1,0.2-0.4,0.2-0.6,0.1l-0.1-0.1
					c-0.2-0.1-0.2-0.4-0.1-0.6l3.7-4.9C85.3,199.8,85.6,199.8,85.8,199.9z"/>
				<path class="st25" d="M85.9,210.5L85.9,210.5c-0.3,0.2-0.6,0.2-0.7,0l-3.7-4.9c-0.1-0.2-0.1-0.5,0.1-0.6l0.1-0.1
					c0.2-0.1,0.5-0.1,0.6,0.1l3.7,4.9C86.1,210.1,86.1,210.4,85.9,210.5z"/>
				<path class="st25" d="M85.8,204.9L85.8,204.9c0.3,0.2,0.3,0.5,0.2,0.7l-3.7,4.9c-0.1,0.2-0.4,0.2-0.6,0.1l-0.1-0.1
					c-0.2-0.1-0.2-0.4-0.1-0.6l3.7-4.9C85.3,204.8,85.6,204.7,85.8,204.9z"/>
				<path class="st25" d="M87.9,213.1L87.9,213.1c-0.3,0-0.5-0.2-0.5-0.4v-2.2c0-0.2,0.2-0.4,0.4-0.4h0.1c0.2,0,0.4,0.2,0.4,0.4v2.2
					C88.2,213,88.1,213.1,87.9,213.1z"/>
				<path class="st25" d="M86.2,213.1L86.2,213.1c-0.3,0-0.5-0.2-0.5-0.4v-2.4c0-0.2,0.2-0.4,0.4-0.4h0.1c0.2,0,0.4,0.2,0.4,0.4v2.4
					C86.6,213,86.4,213.1,86.2,213.1z"/>
				<path class="st25" d="M85.8,210.9h-4c-0.2,0-0.4-0.2-0.4-0.4v-0.1c0-0.2,0.2-0.4,0.4-0.4h4c0.2,0,0.4,0.2,0.4,0.4v0.1
					C86.2,210.7,86,210.9,85.8,210.9z"/>
				<path class="st25" d="M89,213.7h-7.9c-0.2,0-0.4-0.2-0.4-0.4v-0.1c0-0.2,0.2-0.4,0.4-0.4H89c0.2,0,0.4,0.2,0.4,0.4v0.1
					C89.4,213.6,89.2,213.7,89,213.7z"/>
				<path class="st25" d="M81.2,209.6h0.1c0.2,0,0.4,0.2,0.4,0.4v3.2c0,0.2-0.2,0.4-0.4,0.4h-0.1c-0.2,0-0.4-0.2-0.4-0.4v-3.2
					C80.8,209.8,81,209.6,81.2,209.6z"/>
				<path class="st25" d="M77.3,213.7h-0.1c-0.2,0-0.4-0.2-0.4-0.4V210c0-0.2,0.2-0.4,0.4-0.4h0.1c0.2,0,0.4,0.2,0.4,0.4v3.3
					C77.7,213.5,77.5,213.7,77.3,213.7z"/>
				<rect x="77.1" y="155.4" class="st15" width="5.9" height="5.7"/>
				<path class="st27" d="M87.8,195.2c0,1.5-1.2,2.8-2.8,2.8s-2.8-1.2-2.8-2.8s1.2-2.8,2.8-2.8S87.8,193.7,87.8,195.2L87.8,195.2z"
					/>
				<ellipse class="st27" cx="76" cy="194.4" rx="2.8" ry="3.6"/>
				<path class="st15" d="M75,163.4c0-1.1-0.6-2.2-1.6-2.7c-1.7,1.3-2.7,3.3-2.8,5.4c0.4,0.2,0.9,0.3,1.4,0.3
					C73.6,166.5,75,165.2,75,163.4C75,163.5,75,163.5,75,163.4z"/>
				<circle class="st27" cx="88.2" cy="163.6" r="5.1"/>
				<path class="st7" d="M85.8,160.2c-0.2-0.1-0.5-0.2-0.7-0.4l0,0c0.1,0.2,0.1,0.4,0.1,0.6c-0.1,1.7-1.4,3-3.1,2.9c0,0,0,0,0,0
					h-3.9c-1.7,0.1-3.1-1.2-3.1-2.9c0,0,0,0,0,0c0-0.2,0-0.5,0.1-0.7l-0.2,0.1c-0.5,0.2-1,0.5-1.4,0.9l0,0c1,0.5,1.6,1.4,1.6,2.5
					c0,1.6-1.4,2.9-3,2.8c-0.5,0-1-0.1-1.4-0.3c0,0.1,0,0.1,0,0.2v27.9h18.8v-27.9C89.3,163.5,87.9,161.3,85.8,160.2z"/>
				<path class="st15" d="M78.2,163.6H82c1.7,0,3.1-1.4,3.1-3.1c0-0.2,0-0.5-0.1-0.7c-0.7-0.3-1.4-0.6-2.2-0.8
					c-0.7-0.2-1.3-0.2-2-0.2h-1.8c-1.4,0-2.7,0.3-4,0.9c-0.1,0.3-0.1,0.5-0.1,0.8C75,162.2,76.4,163.6,78.2,163.6
					C78.2,163.6,78.2,163.6,78.2,163.6z"/>
				<path class="st27" d="M89,182.5H70.1c-0.7,0-1.2-0.5-1.2-1.2v-0.3c0-0.7,0.5-1.2,1.2-1.2H89c0.7,0,1.2,0.5,1.2,1.2v0.3
					C90.2,181.9,89.7,182.5,89,182.5z"/>
				<path class="st15" d="M78.5,134.3h2.2c4.6,0,8.3,3.7,8.3,8.3v7.1c0,4.6-3.7,8.3-8.3,8.3h-2.2c-4.6,0-8.3-3.7-8.3-8.3v-7.1
					C70.2,138,73.9,134.3,78.5,134.3z"/>
				<path class="st7" d="M68.8,142.9c0-6,4.9-10.9,10.9-10.9l0,0c6,0,10.9,4.9,10.9,10.9L68.8,142.9z"/>
				<circle class="st27" cx="70.7" cy="163.6" r="5.1"/>
				<path class="st24" d="M82,147.3c0.6,0,1.1,0.5,1.1,1.1h-2.2C80.9,147.8,81.4,147.3,82,147.3C82,147.3,82,147.3,82,147.3z"/>
				<circle class="st26" cx="86.4" cy="146.1" r="0.8"/>
				<path class="st26" d="M76.3,146.1c0,0.4,0.4,0.8,0.8,0.8c0.4,0,0.8-0.4,0.8-0.8c0-0.4-0.4-0.8-0.8-0.8S76.3,145.6,76.3,146.1
					L76.3,146.1z"/>
				<path class="st24" d="M81.5,151.9c-0.4,0-0.8,0-1.1-0.1c-0.9-0.2-1.7-0.7-2.3-1.5c-0.1-0.2,0.1-0.5,0.3-0.6
					c0.2-0.1,0.5,0.1,0.6,0.3l0,0c0.5,0.5,1.1,0.9,1.9,1c1.3,0.2,2.6-0.2,3.5-1.1c0.2-0.2,0.5-0.2,0.7,0c0.2,0.2,0.2,0.5,0,0.6
					c0,0,0,0,0,0C84.1,151.4,82.8,151.9,81.5,151.9z"/>
				<path class="st13" d="M45.6,182.5l7.1-42.2c0.1-0.8,0.9-1.4,1.7-1.2l0.4,0.1c0.8,0.1,1.4,0.9,1.2,1.7L49,183.1
					c-0.1,0.8-0.9,1.4-1.7,1.2l-0.4-0.1C46,184.1,45.5,183.3,45.6,182.5z"/>
				<path class="st28" d="M58.5,116.9h-0.2c1.7,2.3,1.2,5.6-1.1,7.3c-2.3,1.7-5.6,1.2-7.3-1.1l0,0c-0.2,0.6-0.4,1.3-0.5,1.9
					c-0.9,5.2,1.8,9.9,5.9,10.6s8.2-2.9,9.1-8.1S62.7,117.6,58.5,116.9z"/>
				<path class="st14" d="M59.6,126.6C59.6,126.7,59.6,126.7,59.6,126.6c-0.4,2.4-2.6,3.9-4.8,3.5c0,0,0,0,0,0
					c-0.3-0.1-0.7-0.2-1-0.3c-0.1,2,1,3.7,2.7,4c1.8,0.3,3.6-1.3,4-3.6C60.7,129,60.4,127.7,59.6,126.6z"/>
				<path class="st14" d="M58.5,116.9h-0.2c1.7,2.3,1.2,5.6-1.1,7.3c-2.3,1.7-5.6,1.2-7.3-1.1l0,0c-0.2,0.6-0.4,1.3-0.5,1.9
					c-0.9,5.2,1.8,9.9,5.9,10.6s8.2-2.9,9.1-8.1S62.7,117.6,58.5,116.9z"/>
				<path class="st15" d="M59.6,126.6C59.6,126.7,59.6,126.7,59.6,126.6c-0.4,2.4-2.6,3.9-4.8,3.5c0,0,0,0,0,0
					c-0.3-0.1-0.7-0.2-1-0.3c-0.1,2,1,3.7,2.7,4c1.8,0.3,3.6-1.3,4-3.6C60.7,129,60.4,127.7,59.6,126.6z"/>
				<path class="st15" d="M54.4,146.7h1.4c0.6,0,1,0.5,1,1v0.3c0,0.6-0.5,1-1,1h-1.4c-0.6,0-1-0.5-1-1v-0.3
					C53.3,147.2,53.8,146.7,54.4,146.7z"/>
				<path class="st27" d="M73.7,143.5h3.8c0.3,0,0.6,0.3,0.6,0.6v0.1c0,0.3-0.3,0.6-0.6,0.6h-3.8c-0.3,0-0.6-0.3-0.6-0.6v-0.1
					C73,143.8,73.3,143.5,73.7,143.5z"/>
				<path class="st27" d="M83.6,143.5h3.8c0.3,0,0.6,0.3,0.6,0.6v0.1c0,0.3-0.3,0.6-0.6,0.6h-3.8c-0.3,0-0.6-0.3-0.6-0.6v-0.1
					C83,143.8,83.3,143.5,83.6,143.5z"/>
				<path class="st15" d="M82.4,169.8c-3.9,0.1-7.7-1.1-10.9-3.4c-4.8-3.6-7.2-9.9-7.2-18.5c0-1.7,1.4-3,3-3s3,1.4,3,3
					c0,6.6,1.6,11.2,4.8,13.7c4.4,3.4,10.7,1.8,10.7,1.8c1.6-0.4,3.3,0.5,3.7,2.1s-0.5,3.3-2.1,3.7
					C85.9,169.6,84.2,169.8,82.4,169.8z"/>
				<rect x="87.9" y="194.7" class="st15" width="4.8" height="9.3"/>
				<rect x="98.4" y="194.7" class="st15" width="4.8" height="9.3"/>
				<path class="st7" d="M95.1,134.8h2.8c5.7,0,10.3,4.6,10.3,10.3v5.1c0,5.7-4.6,10.3-10.3,10.3h-2.8c-5.7,0-10.3-4.6-10.3-10.3
					V145C84.8,139.4,89.4,134.8,95.1,134.8z"/>
				<path class="st15" d="M103.7,187.1c-1.4,0-2.6-1.2-2.6-2.6c0-1.4,1.2-2.6,2.6-2.6l0,0c2-0.1,4-1,5.4-2.4c1-1,1.7-2.3,1.7-3.7
					c0-3.1-3.7-6-7.1-7.6c-1.3-0.6-1.9-2.2-1.2-3.5c0.6-1.3,2.2-1.9,3.5-1.2c3,1.4,10,5.5,10,12.3c0,2.8-1.2,5.5-3.2,7.5
					C110.4,185.5,107.1,187,103.7,187.1z"/>
				<path class="st15" d="M95.8,217.6l-0.4-0.4c-0.2-0.2-0.5-0.4-0.8-0.4l-1.8-0.4v-13c0.1-1.4-0.9-2.5-2.3-2.6
					c-1.4-0.1-2.5,0.9-2.6,2.3c0,0.1,0,0.2,0,0.3v12.5c-0.4,0.3-0.6,0.7-0.6,1.2v1.6c0,0.8,0.7,1.5,1.5,1.5l0,0h5.9
					c0.8,0,1.5-0.6,1.5-1.4C96.2,218.3,96.1,217.9,95.8,217.6z"/>
				<path class="st25" d="M92.5,205.8H88c-0.2,0-0.4-0.2-0.4-0.4v-0.1c0-0.2,0.2-0.4,0.4-0.4h4.5c0.2,0,0.4,0.2,0.4,0.4v0.1
					C92.9,205.6,92.8,205.8,92.5,205.8z"/>
				<path class="st25" d="M92.6,211.4l-0.1,0.1c-0.2,0.2-0.5,0.1-0.7-0.1l-4-5.3c-0.2-0.2-0.1-0.5,0.1-0.7l0.1-0.1
					c0.2-0.2,0.5-0.1,0.7,0.1l4,5.3C92.9,211,92.8,211.3,92.6,211.4z"/>
				<path class="st25" d="M93.5,205.6L93.5,205.6c0.3,0.2,0.3,0.5,0.2,0.7l-4.1,5.4c-0.1,0.2-0.4,0.2-0.6,0.1l-0.1-0.1
					c-0.2-0.1-0.2-0.4-0.1-0.6l4.1-5.4C93.1,205.5,93.3,205.4,93.5,205.6z"/>
				<path class="st25" d="M92.6,216.7l-0.1,0.1c-0.2,0.2-0.5,0.1-0.7-0.1l-4-5.3c-0.2-0.2-0.1-0.5,0.1-0.7l0.1-0.1
					c0.2-0.2,0.5-0.1,0.7,0.1l4,5.3C92.9,216.3,92.8,216.6,92.6,216.7z"/>
				<path class="st25" d="M92.5,210.7l0.1,0.1c0.2,0.2,0.2,0.5,0.1,0.7l-4,5.3c-0.2,0.2-0.5,0.2-0.7,0.1l-0.1-0.1
					c-0.2-0.2-0.2-0.5-0.1-0.7l4-5.3C92,210.6,92.3,210.5,92.5,210.7z"/>
				<path class="st25" d="M94.7,219.8L94.7,219.8c-0.3,0-0.5-0.2-0.5-0.4v-2.4c0-0.2,0.2-0.4,0.4-0.4h0.1c0.2,0,0.4,0.2,0.4,0.4v2.4
					C95.1,219.6,94.9,219.8,94.7,219.8z"/>
				<path class="st25" d="M93,219.8L93,219.8c-0.3,0-0.5-0.2-0.5-0.4v-2.8c0-0.2,0.2-0.4,0.4-0.4H93c0.2,0,0.4,0.2,0.4,0.4v2.8
					C93.4,219.6,93.2,219.8,93,219.8z"/>
				<path class="st25" d="M92.5,217.1h-4.3c-0.2,0-0.4-0.2-0.4-0.4v-0.1c0-0.2,0.2-0.4,0.4-0.4h4.3c0.2,0,0.4,0.2,0.4,0.4v0.1
					C92.9,217,92.8,217.1,92.5,217.1z"/>
				<path class="st25" d="M87.3,219.3h8.5c0.2,0,0.4,0.2,0.4,0.4v0.1c0,0.2-0.2,0.4-0.4,0.4h-8.5c-0.2,0-0.4-0.2-0.4-0.4v-0.1
					C86.9,219.5,87.1,219.3,87.3,219.3z"/>
				<path class="st15" d="M98.4,215.8v-12.5c-0.1-1.4,0.9-2.5,2.3-2.6c1.4-0.1,2.5,0.9,2.6,2.3c0,0.1,0,0.2,0,0.3v13
					c0,0,0,0.1,0,0.1l1.8,0.4c0.3,0.1,0.6,0.2,0.8,0.4l0.4,0.4c0.5,0.6,0.5,1.5-0.1,2.1c-0.3,0.2-0.6,0.4-1,0.4h-5.9
					c-0.8,0-1.5-0.7-1.5-1.5l0,0V217C97.8,216.5,98,216.1,98.4,215.8z"/>
				<path class="st25" d="M103.1,205.8h-4.5c-0.2,0-0.4-0.2-0.4-0.4v-0.1c0-0.2,0.2-0.4,0.4-0.4h4.5c0.2,0,0.4,0.2,0.4,0.4v0.1
					C103.5,205.6,103.3,205.8,103.1,205.8z"/>
				<path class="st25" d="M103.1,211.4l-0.1,0.1c-0.2,0.2-0.5,0.1-0.7-0.1l-4-5.3c-0.2-0.2-0.1-0.5,0.1-0.7l0.1-0.1
					c0.2-0.2,0.5-0.1,0.7,0.1l4,5.3C103.4,211,103.4,211.3,103.1,211.4z"/>
				<path class="st25" d="M103,205.4l0.1,0.1c0.2,0.2,0.2,0.5,0.1,0.7l-4,5.3c-0.2,0.2-0.5,0.2-0.7,0.1l-0.1-0.1
					c-0.2-0.2-0.2-0.5-0.1-0.7l4-5.3C102.5,205.2,102.8,205.2,103,205.4z"/>
				<path class="st25" d="M103.7,215.7l-0.1,0.1c-0.2,0.2-0.5,0.1-0.7-0.1l-4-5.3c-0.2-0.2-0.1-0.5,0.1-0.7l0.1-0.1
					c0.2-0.2,0.5-0.1,0.7,0.1l4,5.3C103.9,215.3,103.9,215.6,103.7,215.7z"/>
				<path class="st25" d="M103,210.7l0.1,0.1c0.2,0.2,0.2,0.5,0.1,0.7l-4,5.3c-0.2,0.2-0.5,0.2-0.7,0.1l-0.1-0.1
					c-0.2-0.2-0.2-0.5-0.1-0.7l4-5.3C102.5,210.6,102.8,210.5,103,210.7z"/>
				<path class="st25" d="M105.2,219.6L105.2,219.6c-0.3,0-0.5-0.2-0.5-0.4v-2.4c0-0.2,0.2-0.4,0.4-0.4h0.1c0.2,0,0.4,0.2,0.4,0.4
					v2.4C105.6,219.4,105.5,219.6,105.2,219.6z"/>
				<path class="st25" d="M103.5,219.6L103.5,219.6c-0.3,0-0.5-0.2-0.5-0.4v-2.6c0-0.2,0.2-0.4,0.4-0.4h0.1c0.2,0,0.4,0.2,0.4,0.4
					v2.6C103.9,219.4,103.7,219.6,103.5,219.6z"/>
				<path class="st25" d="M103,217.1h-4.3c-0.2,0-0.4-0.2-0.4-0.4v-0.1c0-0.2,0.2-0.4,0.4-0.4h4.3c0.2,0,0.4,0.2,0.4,0.4v0.1
					C103.5,217,103.3,217.1,103,217.1z"/>
				<path class="st25" d="M106.5,220.2H98c-0.2,0-0.4-0.2-0.4-0.4v-0.1c0-0.2,0.2-0.4,0.4-0.4h8.5c0.2,0,0.4,0.2,0.4,0.4v0.1
					C106.9,220,106.7,220.2,106.5,220.2z"/>
				<path class="st25" d="M98.1,215.8h0.1c0.2,0,0.4,0.2,0.4,0.4v3.5c0,0.2-0.2,0.4-0.4,0.4h-0.1c-0.2,0-0.4-0.2-0.4-0.4v-3.5
					C97.6,216,97.8,215.8,98.1,215.8z"/>
				<path class="st25" d="M93.9,220.2h-0.1c-0.2,0-0.4-0.2-0.4-0.4v-3.6c0-0.2,0.2-0.4,0.4-0.4h0.1c0.2,0,0.4,0.2,0.4,0.4v3.6
					C94.3,220,94.1,220.2,93.9,220.2z"/>
				<rect x="93.7" y="157.4" class="st15" width="6.4" height="6.1"/>
				<path class="st27" d="M105.2,200.3c0,1.7-1.3,3-3,3s-3-1.3-3-3s1.3-3,3-3S105.2,198.7,105.2,200.3z"/>
				<path class="st27" d="M95.5,199.4c0,2.1-1.3,3.8-3,3.8s-3-1.7-3-3.8s1.3-3.9,3-3.9S95.5,197.3,95.5,199.4z"/>
				<path class="st15" d="M91.4,166.1c0-1.2-0.7-2.3-1.8-2.9c-1.8,1.4-2.9,3.5-3,5.8c0.5,0.2,1,0.4,1.5,0.4
					C90,169.3,91.5,167.9,91.4,166.1z"/>
				<path class="st27" d="M111.1,166.3c0,3-2.5,5.5-5.5,5.5s-5.5-2.5-5.5-5.5c0-3,2.5-5.5,5.5-5.5c0,0,0,0,0,0
					C108.6,160.8,111.1,163.2,111.1,166.3C111.1,166.3,111.1,166.3,111.1,166.3z"/>
				<path class="st7" d="M103,162.6c-0.2-0.1-0.5-0.3-0.8-0.4l0,0c0.1,0.2,0.1,0.5,0.1,0.7c-0.1,1.8-1.6,3.2-3.3,3.1h-4.2
					c-1.8,0.1-3.3-1.3-3.4-3.1c0-0.3,0-0.5,0.1-0.8c-0.1,0-0.2,0.1-0.3,0.1c-0.5,0.3-1.1,0.6-1.6,0.9l0,0c1.1,0.5,1.7,1.5,1.8,2.7
					c-0.1,1.7-1.5,3.1-3.3,3c-0.5,0-1-0.1-1.5-0.4c0,0.1,0,0.1,0,0.2v30h20.2v-30C106.8,166.1,105.3,163.8,103,162.6z"/>
				<path class="st15" d="M94.8,166.3H99c1.9,0,3.4-1.5,3.4-3.4c0-0.2,0-0.5-0.1-0.7c-1.4-0.7-3-1.1-4.5-1.1h-1.9
					c-1.5,0-2.9,0.3-4.3,0.9c-0.5,1.8,0.6,3.6,2.4,4.1C94.2,166.3,94.5,166.3,94.8,166.3L94.8,166.3z"/>
				<path class="st27" d="M106.4,186.6H86.1c-0.7,0-1.3-0.6-1.3-1.3v-0.3c0-0.7,0.6-1.3,1.3-1.3h20.3c0.7,0,1.3,0.6,1.3,1.3v0.3
					C107.8,186,107.2,186.6,106.4,186.6z"/>
				<path class="st15" d="M95.2,134.8h2.4c4.9,0,8.9,4,8.9,8.9v7.7c0,4.9-4,8.9-8.9,8.9h-2.4c-4.9,0-8.9-4-8.9-8.9v-7.7
					C86.3,138.7,90.3,134.8,95.2,134.8z"/>
				<path class="st7" d="M84.8,144c0-6.5,5.3-11.7,11.7-11.7l0,0c6.5,0,11.7,5.3,11.7,11.7H84.8z"/>
				<path class="st27" d="M92.3,166.3c0,3-2.5,5.5-5.5,5.5s-5.5-2.5-5.5-5.5c0-3,2.5-5.5,5.5-5.5c0,0,0,0,0,0
					C89.8,160.8,92.3,163.2,92.3,166.3C92.3,166.3,92.3,166.3,92.3,166.3z"/>
				<path class="st24" d="M98.9,148.8c0.6,0,1.2,0.5,1.2,1.2h-2.3C97.7,149.3,98.3,148.8,98.9,148.8z"/>
				<path class="st26" d="M102.8,147.4c0,0.5,0.4,0.9,0.9,0.9s0.9-0.4,0.9-0.9c0-0.5-0.4-0.9-0.9-0.9c0,0,0,0,0,0
					C103.2,146.5,102.8,146.9,102.8,147.4L102.8,147.4z"/>
				<path class="st26" d="M92.8,147.4c-0.1,0.5,0.3,0.9,0.8,1c0.5,0.1,0.9-0.3,1-0.8c0-0.1,0-0.1,0-0.2c-0.1-0.5-0.5-0.8-1-0.8
					C93.2,146.7,92.9,147,92.8,147.4z"/>
				<path class="st24" d="M98.8,153.5c-0.4,0-0.8,0-1.1-0.1c-0.9-0.2-1.7-0.7-2.2-1.5c0-0.2,0.1-0.5,0.4-0.5c0.2,0,0.4,0.1,0.5,0.2
					c0.5,0.5,1.2,0.9,1.9,0.9c1.3,0.2,2.6-0.2,3.5-1.1c0.2-0.1,0.5-0.1,0.6,0.1c0.1,0.2,0.1,0.4,0,0.6
					C101.3,153,100.1,153.5,98.8,153.5z"/>
				<path class="st27" d="M90.5,144.8h3.8c0.3,0,0.6,0.3,0.6,0.6v0.1c0,0.3-0.3,0.6-0.6,0.6h-3.8c-0.3,0-0.6-0.3-0.6-0.6v-0.1
					C89.9,145,90.2,144.8,90.5,144.8z"/>
				<path class="st27" d="M100.5,144.8h3.8c0.3,0,0.6,0.3,0.6,0.6v0.1c0,0.3-0.3,0.6-0.6,0.6h-3.8c-0.3,0-0.6-0.3-0.6-0.6v-0.1
					C99.9,145,100.2,144.8,100.5,144.8z"/>
				<path class="st13" d="M61.5,188.6l-0.4-0.1c-0.9-0.1-1.5-1-1.3-1.8l7.7-45.5c0.1-0.9,1-1.5,1.8-1.3l0.4,0.1
					c0.9,0.1,1.5,1,1.3,1.8l-7.7,45.5C63.2,188.1,62.4,188.7,61.5,188.6z"/>
				<path class="st28" d="M73.7,116h-0.2c1.8,2.5,1.3,6-1.2,7.9c-2.5,1.8-6,1.3-7.9-1.2c-0.2,0.7-0.4,1.4-0.5,2.1
					c-0.9,5.6,1.9,10.7,6.4,11.4s8.8-3.1,9.8-8.7S78.1,116.8,73.7,116z"/>
				<path class="st14" d="M74.8,126.5C74.8,126.5,74.8,126.5,74.8,126.5c-0.4,2.5-2.8,4.2-5.2,3.8c-0.4-0.1-0.7-0.2-1.1-0.3
					c-0.1,2.1,1.1,4,2.9,4.3c2,0.3,3.9-1.4,4.3-3.9C76,129,75.7,127.6,74.8,126.5z"/>
				<path class="st14" d="M73.7,116h-0.2c1.8,2.5,1.3,6-1.2,7.9c-2.5,1.8-6,1.3-7.9-1.2c-0.2,0.7-0.4,1.4-0.5,2.1
					c-0.9,5.6,1.9,10.7,6.4,11.4s8.8-3.1,9.8-8.7S78.1,116.8,73.7,116z"/>
				<path class="st15" d="M74.8,126.5C74.8,126.5,74.8,126.5,74.8,126.5c-0.4,2.5-2.8,4.2-5.2,3.8c-0.4-0.1-0.7-0.2-1.1-0.3
					c-0.1,2.1,1.1,4,2.9,4.3c2,0.3,3.9-1.4,4.3-3.9C76,129,75.7,127.6,74.8,126.5z"/>
				<path class="st15" d="M69.2,148.1h1.5c0.6,0,1.1,0.5,1.1,1.1v0.3c0,0.6-0.5,1.1-1.1,1.1h-1.5c-0.6,0-1.1-0.5-1.1-1.1v-0.3
					C68.1,148.6,68.6,148.1,69.2,148.1z"/>
				<path class="st15" d="M66.4,144.8l0.3,0.1c0.7,0.1,1.1,0.7,1,1.4c0,0,0,0,0,0l-0.6,3.8c-0.1,0.7-0.7,1.1-1.4,1l-0.3-0.1
					c-0.7-0.1-1.1-0.7-1-1.4l0,0l0.6-3.8C65.1,145.1,65.7,144.7,66.4,144.8C66.4,144.8,66.4,144.8,66.4,144.8z"/>
				<path class="st15" d="M57,144.8l0.3,0.1c0.7,0.1,1.1,0.8,1,1.4l-0.6,3.8c-0.1,0.7-0.7,1.1-1.4,1l-0.3-0.1
					c-0.7-0.1-1.1-0.7-1-1.4l0,0l0.6-3.8C55.7,145.1,56.3,144.7,57,144.8C56.9,144.8,56.9,144.8,57,144.8L57,144.8z"/>
				<rect x="104.3" y="159.6" class="st29" width="25.2" height="7.1"/>
				<path class="st15" d="M131.9,165.7c0,1.6-1.3,2.8-2.8,2.8c-1.6,0-2.8-1.3-2.8-2.8c0-1.6,1.3-2.8,2.8-2.8l0,0
					C130.6,162.9,131.9,164.1,131.9,165.7z"/>
				<path class="st24" d="M130.8,165.7c0,1-0.7,1.8-1.7,1.8s-1.8-0.7-1.8-1.7c0-1,0.7-1.8,1.7-1.8c0,0,0,0,0,0
					C130,164,130.7,164.7,130.8,165.7C130.8,165.7,130.8,165.7,130.8,165.7z"/>
				<circle class="st15" cx="105.1" cy="165.7" r="2.8"/>
				<path class="st24" d="M106.8,165.7c0,1-0.8,1.7-1.7,1.7c-1,0-1.7-0.8-1.7-1.7c0-1,0.8-1.7,1.7-1.7c0,0,0,0,0,0
					C106.1,164,106.8,164.7,106.8,165.7z"/>
				<path class="st15" d="M127.6,246.9l-0.4-0.4c-0.2-0.2-0.5-0.4-0.8-0.5l-1.8-0.4v-30.9c0-1.4-1.1-2.5-2.5-2.5
					c-1.4,0-2.5,1.1-2.5,2.5v30.4c-0.4,0.3-0.6,0.7-0.6,1.2v1.6c0,0.8,0.7,1.5,1.5,1.5h6c0.8,0,1.5-0.6,1.5-1.5
					C128,247.6,127.9,247.2,127.6,246.9z"/>
				<path class="st25" d="M124.3,234.8h-4.6c-0.2,0-0.4-0.2-0.4-0.4v-0.1c0-0.2,0.2-0.4,0.4-0.4h4.6c0.2,0,0.4,0.2,0.4,0.4v0.1
					C124.7,234.6,124.5,234.8,124.3,234.8z"/>
				<path class="st25" d="M124.4,240.6L124.4,240.6c-0.3,0.2-0.6,0.2-0.8,0l0,0l-4.1-5.5c-0.2-0.2-0.1-0.5,0.1-0.7l0.1-0.1
					c0.2-0.2,0.5-0.1,0.7,0.1l0,0l4.1,5.5C124.7,240.1,124.6,240.4,124.4,240.6L124.4,240.6L124.4,240.6z"/>
				<path class="st25" d="M124.2,234.3l0.1,0.1c0.2,0.1,0.2,0.4,0.1,0.6l-4.2,5.5c-0.1,0.2-0.4,0.2-0.6,0.1l-0.1-0.1
					c-0.2-0.1-0.2-0.4-0.1-0.6l4.2-5.5C123.8,234.2,124,234.2,124.2,234.3z"/>
				<path class="st25" d="M125,244.8L125,244.8c-0.3,0.2-0.6,0.2-0.8,0l0,0l-4.1-5.5c-0.2-0.2-0.1-0.5,0.1-0.7l0,0l0.1-0.1
					c0.2-0.2,0.5-0.1,0.7,0.1l0,0l4.1,5.5C125.3,244.3,125.3,244.6,125,244.8L125,244.8z"/>
				<path class="st25" d="M125.7,240.1L125.7,240.1c0.3,0.2,0.3,0.5,0.2,0.7l0,0l-4.1,5.5c-0.2,0.2-0.5,0.3-0.7,0.1l0,0l-0.1-0.1
					c-0.2-0.2-0.3-0.5-0.1-0.7l0,0l4.1-5.5C125.1,239.9,125.4,239.9,125.7,240.1L125.7,240.1z"/>
				<path class="st25" d="M126.5,249.1L126.5,249.1c-0.3,0-0.5-0.2-0.5-0.4v-2.4c0-0.2,0.2-0.4,0.4-0.4h0.1c0.2,0,0.4,0.2,0.4,0.4
					v2.4C126.9,249,126.8,249.1,126.5,249.1z"/>
				<path class="st25" d="M124.8,249.2L124.8,249.2c-0.3,0-0.5-0.2-0.5-0.4v-2.8c0-0.2,0.2-0.4,0.4-0.4h0.1c0.2,0,0.4,0.2,0.4,0.4
					v2.8C125.2,249,125,249.2,124.8,249.2z"/>
				<path class="st25" d="M124.3,246.4h-4.4c-0.2,0-0.4-0.2-0.4-0.4v-0.1c0-0.2,0.2-0.4,0.4-0.4h4.4c0.2,0,0.4,0.2,0.4,0.4v0.1
					C124.7,246.2,124.5,246.4,124.3,246.4z"/>
				<path class="st25" d="M118.9,248.7h8.7c0.2,0,0.4,0.2,0.4,0.4v0.1c0,0.2-0.2,0.4-0.4,0.4h-8.7c-0.2,0-0.4-0.2-0.4-0.4v-0.1
					C118.5,248.8,118.7,248.7,118.9,248.7z"/>
				<path class="st15" d="M114.3,245.1v-30.4c0-1.4-1.1-2.5-2.5-2.5c-1.4,0-2.5,1.1-2.5,2.5c0,0,0,0,0,0v30.9l-1.8,0.4
					c-0.3,0.1-0.6,0.2-0.8,0.5l-0.4,0.4c-0.6,0.6-0.5,1.6,0.1,2.1c0.3,0.2,0.6,0.4,1,0.4h6c0.8,0,1.5-0.7,1.5-1.5v-1.6
					C114.8,245.8,114.6,245.4,114.3,245.1z"/>
				<path class="st25" d="M109.5,233.8h4.6c0.2,0,0.4,0.2,0.4,0.4v0.1c0,0.2-0.2,0.4-0.4,0.4h-4.6c-0.2,0-0.4-0.2-0.4-0.4v-0.1
					C109.1,234,109.3,233.8,109.5,233.8z"/>
				<path class="st25" d="M115.3,234.6l0.1,0.1c0.2,0.2,0.3,0.5,0.1,0.7l0,0l-4.1,5.5c-0.2,0.2-0.5,0.3-0.7,0.1l-0.1-0.1
					c-0.2-0.2-0.3-0.5-0.1-0.7l0,0l4.1-5.5C114.8,234.5,115.1,234.4,115.3,234.6z"/>
				<path class="st25" d="M114.2,240.6l-0.1,0.1c-0.2,0.2-0.5,0.1-0.7-0.1l-4.1-5.5c-0.2-0.2-0.1-0.5,0.1-0.7l0.1-0.1
					c0.2-0.2,0.5-0.1,0.7,0.1l0,0l4.1,5.5C114.5,240.1,114.5,240.4,114.2,240.6L114.2,240.6L114.2,240.6z"/>
				<path class="st25" d="M114.1,239.8l0.1,0.1c0.2,0.2,0.3,0.5,0.1,0.7l0,0l-4.1,5.5c-0.2,0.2-0.5,0.3-0.7,0.1l0,0l-0.1-0.1
					c-0.2-0.2-0.3-0.5-0.1-0.7l0,0l4.1-5.5C113.6,239.7,113.9,239.6,114.1,239.8C114.1,239.8,114.1,239.8,114.1,239.8z"/>
				<path class="st25" d="M114.2,246l-0.1,0.1c-0.2,0.2-0.5,0.1-0.7-0.1l0,0l-4.1-5.5c-0.2-0.2-0.1-0.5,0.1-0.7l0,0l0.1-0.1
					c0.2-0.2,0.5-0.1,0.7,0.1l0,0l4.1,5.5C114.5,245.6,114.5,245.9,114.2,246L114.2,246z"/>
				<path class="st25" d="M107.3,245.7L107.3,245.7c0.3,0,0.5,0.2,0.5,0.4v2.4c0,0.2-0.2,0.4-0.4,0.4h-0.1c-0.2,0-0.4-0.2-0.4-0.4
					v-2.4C106.9,245.9,107,245.7,107.3,245.7z"/>
				<path class="st25" d="M109,245.4L109,245.4c0.3,0,0.5,0.2,0.5,0.4v2.7c0,0.2-0.2,0.4-0.4,0.4H109c-0.2,0-0.4-0.2-0.4-0.4v-2.7
					C108.6,245.6,108.8,245.4,109,245.4z"/>
				<path class="st25" d="M109.5,245.4h4.4c0.2,0,0.4,0.2,0.4,0.4v0.1c0,0.2-0.2,0.4-0.4,0.4h-4.4c-0.2,0-0.4-0.2-0.4-0.4v-0.1
					C109.1,245.6,109.3,245.4,109.5,245.4z"/>
				<path class="st25" d="M106,248.7h8.7c0.2,0,0.4,0.2,0.4,0.4v0.1c0,0.2-0.2,0.4-0.4,0.4H106c-0.2,0-0.4-0.2-0.4-0.4v-0.1
					C105.6,248.8,105.8,248.7,106,248.7z"/>
				<path class="st25" d="M114.6,249.6h-0.1c-0.3,0-0.5-0.2-0.5-0.5v-3.6c0-0.3,0.2-0.5,0.5-0.5h0.1c0.3,0,0.5,0.2,0.5,0.5v3.6
					C115.1,249.4,114.9,249.6,114.6,249.6z"/>
				<path class="st25" d="M118.9,245h0.1c0.3,0,0.5,0.2,0.5,0.5v3.6c0,0.3-0.2,0.5-0.5,0.5h-0.1c-0.3,0-0.5-0.2-0.5-0.5v-3.6
					C118.4,245.2,118.7,245,118.9,245z"/>
				<rect x="113.5" y="175.3" class="st15" width="7.3" height="7"/>
				<path class="st15" d="M117.1,184.5c2.6,0,5-1.4,6.3-3.8c-1.6-0.8-3.4-1.2-5.2-1.2H116c-1.8,0-3.6,0.4-5.2,1.2
					C112,183.1,114.4,184.5,117.1,184.5z"/>
				<path class="st14" d="M124.2,181.2c-0.3-0.2-0.6-0.3-0.8-0.5c-1.9,3.5-6.2,4.8-9.7,2.9c-1.2-0.7-2.2-1.7-2.9-2.9
					c-0.6,0.3-1.2,0.7-1.8,1.1l0,0c1.8,1,2.4,3.3,1.4,5.1c-1,1.7-3.1,2.4-4.9,1.5c0,0.1,0,0.2,0,0.3v37h23.1v-37
					C128.6,185.7,126.9,182.8,124.2,181.2z"/>
				<path class="st30" d="M105.8,205.2h23.3c0.8,0,1.5,0.7,1.5,1.5v0.4c0,0.8-0.7,1.5-1.5,1.5h-23.3c-0.8,0-1.5-0.7-1.5-1.5v-0.4
					C104.3,205.9,105,205.2,105.8,205.2z"/>
				<path class="st24" d="M117.2,179.1L117.2,179.1c-6.4,0-11.5-5.2-11.6-11.6v-6c0-6.4,5.2-11.6,11.6-11.6l0,0
					c6.4,0,11.6,5.2,11.6,11.6v6C128.8,173.9,123.6,179,117.2,179.1z"/>
				<path class="st15" d="M117.2,178.2L117.2,178.2c-6.4,0-11.5-5.2-11.6-11.6v-6c0-6.4,5.2-11.6,11.6-11.6l0,0
					c6.4,0,11.6,5.2,11.6,11.6v6C128.8,173,123.6,178.2,117.2,178.2z"/>
				<path class="st13" d="M103.6,160.2c0-7.4,6-13.5,13.5-13.5l0,0c7.4,0,13.5,6,13.5,13.5H103.6z"/>
				<path class="st26" d="M113.4,164.5h0.3c0.7,0,1.2,0.6,1.2,1.2v1.9c0,0.7-0.6,1.2-1.2,1.2h-0.3c-0.7,0-1.2-0.6-1.2-1.2v-1.9
					C112.1,165,112.7,164.5,113.4,164.5z"/>
				<path class="st26" d="M123.2,164.5h0.3c0.7,0,1.2,0.6,1.2,1.2v1.9c0,0.7-0.6,1.2-1.2,1.2h-0.3c-0.7,0-1.2-0.6-1.2-1.2v-1.9
					C121.9,165,122.5,164.5,123.2,164.5z"/>
				<path class="st13" d="M123.6,161.3l3,1.3c0.5,0.2,0.7,0.7,0.5,1.2l-0.1,0.2c-0.2,0.5-0.7,0.7-1.2,0.5l-3-1.3
					c-0.5-0.2-0.7-0.7-0.5-1.2l0.1-0.2C122.6,161.3,123.2,161.1,123.6,161.3z"/>
				<path class="st13" d="M114,163.2l-3,1.3c-0.5,0.2-1,0-1.2-0.5l-0.1-0.2c-0.2-0.5,0-1,0.5-1.2l3-1.3c0.5-0.2,1,0,1.2,0.5l0.1,0.2
					C114.7,162.4,114.5,163,114,163.2z"/>
				<path class="st24" d="M117.2,169.8c0-0.9,0.7-1.7,1.7-1.7c0.9,0,1.7,0.7,1.7,1.7c0,0,0,0,0,0H117.2z"/>
				<path class="st14" d="M117.7,171.8c0-0.7,0.5-1.2,1.2-1.2c0.7,0,1.2,0.5,1.2,1.2c0,0,0,0,0,0H117.7z"/>
				<path class="st24" d="M118.6,172.3c0-0.2,0.1-0.3,0.3-0.3c0.2,0,0.3,0.1,0.3,0.3H118.6z"/>
				<path class="st15" d="M108.9,209.2c-3.9-0.1-7.7-1.7-10.4-4.6c-2.3-2.2-3.7-5.3-3.7-8.5c0.1-7.8,8.1-12.4,11.5-14.1
					c1.5-0.7,3.3-0.1,4,1.4c0.7,1.5,0.1,3.3-1.4,4c-3.9,1.9-8,5.1-8.1,8.8c0.1,1.6,0.8,3.2,2,4.2c1.6,1.7,3.8,2.7,6.1,2.8
					c1.7,0,3,1.3,3,3S110.6,209.2,108.9,209.2L108.9,209.2z"/>
				<path class="st15" d="M125,209.2c-1.7,0-3-1.3-3-3s1.3-3,3-3c2.3-0.1,4.5-1.1,6.1-2.8c1.2-1.1,1.9-2.6,2-4.2
					c0-3.6-4.2-6.9-8.1-8.8c-1.5-0.7-2.1-2.5-1.4-4c0.7-1.5,2.5-2.1,4-1.4c3.4,1.6,11.4,6.3,11.5,14.1c0,3.2-1.4,6.3-3.7,8.5
					C132.7,207.5,128.9,209.1,125,209.2z"/>
				<path class="st7" d="M151,79.5h11.9c0.8,0,1.5-0.7,1.5-1.5l0,0c0-0.8-0.7-1.5-1.5-1.5H151c-0.8,0-1.5,0.7-1.5,1.5l0,0
					C149.5,78.8,150.2,79.5,151,79.5z"/>
				<circle class="st7" cx="158.4" cy="75.7" r="3.8"/>
				<path class="st7" d="M151.5,76.8c0,1.5,1.2,2.7,2.7,2.7c1.5,0,2.7-1.2,2.7-2.7c0-1.5-1.2-2.7-2.7-2.7c0,0,0,0,0,0
					C152.8,74.1,151.5,75.3,151.5,76.8L151.5,76.8z"/>
				<path class="st7" d="M97.1,68.4H80.8c-1.2,0-2.1-0.9-2.1-2.1l0,0c0-1.2,0.9-2.1,2.1-2.1h16.3c1.2,0,2.1,0.9,2.1,2.1l0,0
					C99.2,67.4,98.2,68.4,97.1,68.4z"/>
				<path class="st7" d="M92.1,63.2c0,2.9-2.3,5.2-5.2,5.2s-5.2-2.3-5.2-5.2c0-2.9,2.3-5.2,5.2-5.2S92.1,60.3,92.1,63.2
					C92.1,63.2,92.1,63.2,92.1,63.2z"/>
				<path class="st7" d="M96.3,64.7c0,2.1-1.7,3.7-3.7,3.7s-3.7-1.7-3.7-3.7c0-2.1,1.7-3.7,3.7-3.7C94.7,60.9,96.3,62.6,96.3,64.7
					C96.3,64.6,96.3,64.6,96.3,64.7z"/>
				<path class="st31" d="M158.4,234.8c0,0-5.1,60.8-16.2,72.7c0,0,7.6,5.6,14.2-1.4c0,0,5.8-3.3,12.1,3.5c3.4,1.3,7.2,0.3,9.5-2.4
					c0,0,7.1-3.8,11.4,0.8c0,0,7.8,5.3,12.7-2.5c0,0,5.2-1.9,7.8,3.1c0,0,6.8,2.5,8-5.5c0,0-24.1-62.6-22.6-75.1L158.4,234.8z"/>
				<path class="st31" d="M160.3,212.7c1.7-3.9,4.6-7.2,8.3-9.4c0,0.1,0,0.2,0,0.3c0,5.5,4.2,9.9,9.3,9.9s9.3-4.4,9.3-9.9
					c0-0.1,0-0.1,0-0.2c3.4,2,6.1,4.9,7.8,8.4c1.5,3,2.3,6.3,2.3,9.7v13.3h-38.8v-13.2C158.4,218.5,159.1,215.5,160.3,212.7z"/>
				<path class="st32" d="M178,245c-15.1,0-24.6-3.9-28.4-11.7c-5-10.4,2.8-22.4,3.2-22.9c1.3-2.1,4-2.7,6.1-1.4
					c0.1,0.1,0.2,0.2,0.4,0.2c2.1,1.7,2.6,4.7,1.1,6.9c-1.3,2-4.5,8.6-2.5,12.7s9.1,6.4,20.1,6.4c2.7,0.3,4.7,2.9,4.3,5.6
					C182,242.9,180.3,244.7,178,245L178,245z"/>
				<path class="st28" d="M178,243.7c-15.1,0-24.6-3.9-28.4-11.7c-5-10.4,2.8-22.4,3.2-22.9c1.3-2.1,4-2.7,6.1-1.4
					c0.1,0.1,0.2,0.2,0.4,0.2c2.1,1.7,2.6,4.7,1.1,6.9c-1.3,2-4.5,8.6-2.5,12.7s9.1,6.4,20.1,6.4c2.7,0.3,4.7,2.9,4.3,5.6
					C182,241.6,180.3,243.4,178,243.7L178,243.7z"/>
				<rect x="161.3" y="175.4" class="st27" width="33.5" height="36"/>
				<path class="st33" d="M177.9,213.5c-5.1,0-9.3-4.4-9.3-9.9c0-0.1,0-0.2,0-0.3c2.8-1.6,6-2.5,9.2-2.5l0,0c3.3,0,6.5,0.9,9.3,2.5
					c0,0.1,0,0.1,0,0.2C187.2,209.1,183,213.5,177.9,213.5z"/>
				<ellipse class="st33" cx="188.7" cy="209.3" rx="7.5" ry="8"/>
				<ellipse class="st33" cx="166.4" cy="209" rx="7.8" ry="8.4"/>
				<path class="st6" d="M200.5,206.1l11.5-26.4l-1.5-0.8l-11.2,25.8C199.5,205,199.9,205.4,200.5,206.1z"/>
				<path class="st6" d="M204,210.4c2.3,3.1,4.1,6.6,5.4,10.2c3.6-3.5,5.5-8.4,5-13.4c-0.4-2.5-1.6-4.6-1.9-7.1
					c-0.4-3.2,0.1-6.4,1.4-9.3c1.2-2.9,3.4-5.4,6.1-7.1l-3.6-1.8L204,210.4z"/>
				<path class="st31" d="M159.8,200.4h33.6c4.1,0,7.5,3.4,7.5,7.5v5.2c0,4.1-3.4,7.5-7.5,7.5h-29c-6.6,0-12-5.4-12-12v-0.7
					c0-4.1,3.4-7.5,7.5-7.5L159.8,200.4z"/>
				<path class="st6" d="M202.1,208l11.9-27.3l-1.5-0.8l-11.6,26.6C201.2,206.9,201.6,207.4,202.1,208z"/>
				<path class="st6" d="M198.1,218.4l1,0.5c-0.2-0.4-0.5-0.8-0.7-1.1L198.1,218.4z"/>
				<path class="st6" d="M203.6,209.9l12.3-28.3l-1.5-0.8l-12,27.5C202.8,208.9,203.2,209.4,203.6,209.9z"/>
				<path class="st6" d="M196.9,215.6l-0.8,1.8l1.5,0.8l0.4-0.9C197.7,216.6,197.3,216.1,196.9,215.6z"/>
				<path class="st6" d="M196.6,215.1c-0.4-0.5-0.8-1-1.2-1.5l-1.2,2.8l-0.4-0.2l2,1l-0.1-0.1L196.6,215.1z"/>
				<path class="st6" d="M193.8,211.8l-1.6,3.6l1.5,0.8l1.3-3C194.6,212.6,194.2,212.2,193.8,211.8z"/>
				<path class="st6" d="M198.8,204.4l11.2-25.7l-1.5-0.8l-11.1,25.7C197.9,203.8,198.4,204,198.8,204.4z"/>
				<path class="st28" d="M184.7,240c-0.1-0.4-0.1-0.8,0-1.3c-0.9-1.2-1.7-2.5-2.3-3.9h-3.6c-2.5,0.2-4.4,2.4-4.2,4.9
					c0.2,2.2,2,4,4.2,4.2h6.5c0.6,0,1.3-0.2,1.8-0.4C185.8,242.8,184.9,241.5,184.7,240z"/>
				<path class="st31" d="M195,213.1l3.8-8.8c-0.4-0.4-1-0.6-1.5-0.8l-3.6,8.2C194.2,212.2,194.6,212.6,195,213.1z"/>
				<path class="st31" d="M196.6,215.1l3.9-9c-0.6-0.6-1-1.1-1.2-1.4l-3.9,8.9C195.8,214.1,196.2,214.6,196.6,215.1z"/>
				<path class="st31" d="M202.4,208.4l-4.1,9.3c0.2,0.4,0.5,0.8,0.7,1.1l0.5,0.3l4-9.2C203.2,209.4,202.8,208.9,202.4,208.4z"/>
				<path class="st31" d="M200.1,219.3l-0.1-0.1l2.4,1.2c0.3,1.2,0.5,2.4,0.6,3.6c2.4-0.6,4.6-1.8,6.4-3.4c-1.2-3.7-3-7.1-5.3-10.2
					L200.1,219.3z"/>
				<path class="st31" d="M193.2,204.9c-1.6,1.9-1.6,4.6,0.2,6.4l0.1,0.1l3.4-7.9C195.4,203.3,194.1,203.8,193.2,204.9z"/>
				<path class="st31" d="M198,217.2l4-9.2c-0.4-0.5-0.9-1-1.2-1.4l-3.9,9.1C197.3,216.1,197.7,216.6,198,217.2z"/>
				<path class="st31" d="M189.5,240.3c-1.1,0.1-2.2,0-3.3-0.1c-0.5-0.5-0.9-1-1.4-1.5c-0.1,0.4-0.1,0.8,0,1.3
					c0.2,1.5,1.1,2.8,2.4,3.5C188.4,242.8,189.2,241.7,189.5,240.3z"/>
				<path class="st32" d="M204.2,174c0.2,0.7,0.4,1.3,0.5,2l3.4,1.7l0,0l0.4,0.2l0,0l1.5,0.8l0,0l0.4,0.2l0,0l1.5,0.8l0,0l0.5,0.2
					l0,0l1.5,0.8l0,0l0.4,0.2l0,0l1.5,0.8l0,0l0.4,0.2l0,0l3.6,1.8c0.6-0.4,1.3-0.7,2-1c0-0.1,0-0.1,0.1-0.2
					c0.1-0.3,0.3-0.6,0.5-0.8l-17.9-9c0,0.3-0.1,0.6-0.2,0.9C204.3,173.8,204.3,173.9,204.2,174z"/>
				<path class="st32" d="M198.1,218.4L198.1,218.4l-0.4-0.2l0,0l-1.5-0.8l0,0l-0.3-0.2l-2-1h-0.1l0,0l-1.5-0.8l0,0l-0.4-0.2l0,0
					l-1.9-0.9c-1,0.5-2,1.1-2.9,1.9c1.4,3,3.8,5.4,6.7,6.9c2.4,1.2,5.2,1.7,7.9,1.4c-0.6-1.9-1.4-3.8-2.4-5.5L198.1,218.4z"/>
				<path class="st32" d="M187.1,235.3c0.4-0.2,0.8-0.3,1.3-0.4c7.6-1,12.3-3.3,13.2-6.5c0.2-0.6,0.3-1.3,0.2-2
					c-3.1,0.4-6.3-0.1-9.1-1.5c-3.2-1.6-5.8-4.2-7.4-7.4c-1.2,1.3-2.1,2.7-2.8,4.4c-1.8,4.1-1.8,8.8-0.1,13h2.9
					C186,234.9,186.6,235,187.1,235.3z"/>
				<path class="st28" d="M187.1,235.3c-0.6-0.3-1.2-0.5-1.8-0.5h-2.9c0.6,1.4,1.4,2.7,2.3,3.9C184.9,237.2,185.8,236,187.1,235.3z"
					/>
				<path class="st32" d="M199.9,219.3l-0.3-0.2l0,0l-0.5-0.3c1.1,1.7,1.9,3.6,2.4,5.5c0.5-0.1,0.9-0.1,1.4-0.2
					c-0.1-1.2-0.2-2.4-0.6-3.6L199.9,219.3z"/>
				<path class="st31" d="M210,222.9c-1.8,1.5-3.9,2.6-6.2,3.2l0,0c-0.3,0.1-1.6,0.3-1.9,0.4c0,0.7,0,1.4-0.2,2
					c-1,3.1-5.7,5.4-13.2,6.5c-0.4,0.1-0.9,0.2-1.3,0.4c1.5,0.8,2.4,2.4,2.4,4.1c0,0.3,0,0.7-0.1,1h0.4h-0.3
					c-0.3,1.4-1.1,2.5-2.3,3.1c0.6,0.3,1.2,0.4,1.8,0.4c0.2,0,0.4,0,0.5,0c11.3-1.5,18.2-5.8,20.2-12.6
					C210.6,228.6,210.7,225.7,210,222.9z"/>
				<path class="st31" d="M187.1,235.3c-1.3,0.7-2.2,2-2.4,3.4c0.4,0.5,0.9,1,1.4,1.5c1.1,0.2,2.2,0.2,3.3,0.1
					c0.1-0.3,0.1-0.7,0.1-1C189.6,237.6,188.6,236.1,187.1,235.3z"/>
				<path class="st32" d="M221.8,184.6l-1.8-0.9c-2.7,1.7-4.9,4.1-6.1,7.1c-1.3,2.9-1.8,6.1-1.4,9.3c0.3,2.5,1.5,4.7,1.9,7.1
					c0.5,5-1.4,9.9-5,13.4c0.2,0.7,0.4,1.5,0.6,2.2c2.1-1.8,3.8-4,4.9-6.5c1.5-3.5,2.2-8.2,0.9-11.9c-0.1-0.2-0.2-0.5-0.3-0.7
					c-1.6-3.9-1.5-8.2,0.2-12c1.3-3,3.6-5.4,6.5-6.8c0-0.1-0.1-0.1-0.1-0.2L221.8,184.6z"/>
				<path class="st32" d="M202.9,224.1c0,0.7,0,1.5,0,2.2c2.6-0.5,5.1-1.7,7.1-3.4c-0.2-0.8-0.4-1.5-0.6-2.2
					C207.6,222.3,205.3,223.5,202.9,224.1z"/>
				<path class="st32" d="M202.7,175l1.9,1c-0.1-0.7-0.3-1.3-0.5-2C203.9,174.5,203.3,174.9,202.7,175z"/>
				<path class="st32" d="M222,182.7c-0.7,0.3-1.4,0.6-2,1l1.8,0.9l0.3,0.1C221.8,184.1,221.8,183.3,222,182.7z"/>
				<path class="st32" d="M192.8,224.9c2.8,1.4,6,2,9.1,1.5c0-0.7-0.2-1.4-0.4-2.1c-2.7,0.3-5.5-0.1-7.9-1.4
					c-2.9-1.5-5.3-3.9-6.7-6.9c-0.5,0.4-1.1,0.9-1.5,1.4C187,220.7,189.6,223.3,192.8,224.9z"/>
				<path class="st32" d="M201.9,226.4c0.3,0,0.6-0.1,1-0.2c0-0.7,0-1.5,0-2.2c-0.4,0.1-0.9,0.2-1.4,0.2
					C201.7,225,201.8,225.7,201.9,226.4z"/>
				<path class="st32" d="M202,173c0.3-0.7,1.1-1,1.8-0.8c0,0,0.1,0,0.1,0l0.8,0.4c0.1-1-0.5-2-1.4-2.5c-1.2-0.6-2.6-0.1-3.2,1.1
					c0,0.1-0.1,0.1-0.1,0.2c-0.6,1.3-0.1,2.8,1.2,3.5c0.4,0.2,0.8,0.3,1.2,0.2c0-0.1-0.1-0.2-0.1-0.4
					C201.9,174.3,201.7,173.6,202,173z"/>
				<path class="st32" d="M202,173c-0.3,0.6-0.1,1.3,0.3,1.7l-0.1-0.3l1.9-0.7l0.1,0.3c0.1-0.1,0.1-0.2,0.2-0.4
					c0.1-0.3,0.2-0.6,0.2-0.9l-0.8-0.4C203.2,172,202.4,172.2,202,173C202,172.9,202,173,202,173z"/>
				<path class="st32" d="M202.6,175c-0.1-0.1-0.2-0.2-0.3-0.2c0,0.1,0.1,0.2,0.1,0.4c0.1,0,0.2,0,0.3-0.1L202.6,175z"/>
				<path class="st32" d="M204.2,174l-0.1-0.3l-1.9,0.7l0.1,0.3c0.1,0.1,0.2,0.2,0.3,0.2h0.1C203.3,174.9,203.9,174.5,204.2,174z"/>
				<path class="st32" d="M225.6,181.4c-0.9-0.7-2.3-0.6-3.1,0.3l0.4,0.2c0.6,0.3,1,1,0.8,1.7c-0.1,0.6-0.5,1-1.1,1.2l-0.4,0.2
					c0.6,1.2,2.1,1.6,3.2,1c0.7-0.4,1.1-1,1.2-1.7C226.8,183.1,226.4,182.1,225.6,181.4z"/>
				<path class="st32" d="M222,182.7l0.1-0.1l0.7,2l-0.2,0.1c0.6-0.1,1-0.6,1.1-1.2c0.1-0.7-0.2-1.4-0.8-1.7l-0.4-0.2
					c-0.2,0.2-0.4,0.5-0.5,0.8C222,182.5,222,182.6,222,182.7z"/>
				<path class="st32" d="M222,184.7c0,0.1,0.1,0.1,0.1,0.2l0.4-0.2C222.4,184.8,222.2,184.8,222,184.7z"/>
				<path class="st32" d="M222.1,182.6l-0.1,0.1c-0.2,0.7-0.2,1.4,0.1,2c0.2,0,0.4,0,0.6,0l0.2-0.1L222.1,182.6z"/>
				<path class="st7" d="M197.3,203.6l11.2-25.7l-0.4-0.2l-11.2,25.8C197,203.5,197.2,203.6,197.3,203.6z"/>
				<path class="st7" d="M193.4,211.4l-1.6,3.8l0.4,0.2l1.6-3.6L193.4,211.4z"/>
				<path class="st7" d="M197.3,203.6c-0.2,0-0.3-0.1-0.5-0.1l-3.4,7.9l0.4,0.4L197.3,203.6z"/>
				<rect x="208.3" y="177.6" class="st14" width="0" height="0.5"/>
				<path class="st7" d="M199.2,204.7L199.2,204.7l11.3-25.8l-0.4-0.2l-11.2,25.7L199.2,204.7z"/>
				<path class="st7" d="M195.4,213.6l-0.4-0.4l-1.3,3h0.1l0.4,0.2L195.4,213.6z"/>
				<path class="st7" d="M195.4,213.6l3.9-8.9l-0.1-0.1l-0.3-0.3l-3.8,8.8L195.4,213.6z"/>
				<rect x="210.2" y="178.6" class="st14" width="0" height="0.5"/>
				<path class="st7" d="M200.9,206.5l11.6-26.6l-0.5-0.2l-11.5,26.4L200.9,206.5z"/>
				<path class="st7" d="M196.6,215.1l-0.9,2l0.1,0.1l0.3,0.2l0.8-1.8L196.6,215.1z"/>
				<path class="st7" d="M196.9,215.6l3.9-9.1l-0.4-0.4l-3.9,9L196.9,215.6z"/>
				<rect x="212.2" y="179.6" class="st14" width="0" height="0.5"/>
				<path class="st7" d="M202.4,208.4l12-27.5l-0.4-0.2L202.1,208L202.4,208.4z"/>
				<path class="st7" d="M198,217.2l-0.4,0.9l0.4,0.2l0.3-0.6L198,217.2z"/>
				<path class="st7" d="M198.4,217.7l4.1-9.3l-0.4-0.4l-4,9.2L198.4,217.7z"/>
				<rect x="214.2" y="180.5" class="st14" width="0" height="0.5"/>
				<path class="st7" d="M204,210.4l12.4-28.5l-0.4-0.2l-12.4,28.3C203.7,210.1,203.8,210.2,204,210.4z"/>
				<path class="st7" d="M199.6,219.1l0.3,0.2l0.1,0.1l3.9-8.9c-0.1-0.2-0.2-0.3-0.4-0.5L199.6,219.1z"/>
				<rect x="216.1" y="181.5" class="st14" width="0" height="0.5"/>
				<path class="st15" d="M178,207.2h-1.3c-1.4,0-2.5-1.1-2.5-2.5v-9.2c0-1.4,1.1-2.5,2.5-2.5h1.3c1.4,0,2.5,1.1,2.5,2.5v9.2
					C180.5,206,179.4,207.2,178,207.2z"/>
				<path class="st15" d="M158.8,187c0.1,2,1.9,3.5,3.9,3.4c2-0.1,3.5-1.9,3.4-3.9c-0.1-1.9-1.7-3.4-3.7-3.4
					C160.3,183.2,158.7,184.9,158.8,187z"/>
				<ellipse class="st24" cx="162.4" cy="186.9" rx="2.2" ry="2.4"/>
				<path class="st15" d="M189.5,187c0.1,2,1.9,3.5,3.9,3.4c2-0.1,3.5-1.9,3.4-3.9c-0.1-1.9-1.7-3.4-3.7-3.4
					C191.1,183.2,189.4,184.9,189.5,187z"/>
				<path class="st24" d="M190.9,187c0.1,1.2,1.2,2.2,2.4,2.1c1.2-0.1,2.2-1.2,2.1-2.4c-0.1-1.2-1.1-2.1-2.2-2.1
					C191.9,184.7,190.9,185.7,190.9,187z"/>
				<rect x="165.4" y="183.3" class="st15" width="25.1" height="11.9"/>
				<path class="st15" d="M163.2,177.1v11.1c0,8.7,6.7,15.9,14.8,15.9l0,0c8.1,0,14.8-7.2,14.8-15.9v-11.1H163.2z"/>
				<path class="st24" d="M178,185.8c-1.2,0-2.1,1.1-2.1,2.3c0,0,0,0,0,0h4.2C180.1,186.9,179.2,185.9,178,185.8
					C178,185.8,178,185.8,178,185.8z"/>
				<path class="st27" d="M174.9,181.1l-7.1,1.5c-0.3,0.1-0.6-0.1-0.6-0.4c0,0,0,0,0,0l-0.1-0.3c-0.1-0.3,0.1-0.6,0.4-0.7l7-1.5
					c0.3-0.1,0.6,0.1,0.6,0.4c0,0,0,0,0,0l0.1,0.3C175.4,180.7,175.2,181,174.9,181.1z"/>
				<path class="st27" d="M180.5,181.1l7.1,1.5c0.3,0.1,0.6-0.1,0.6-0.4c0,0,0,0,0,0l0.1-0.3c0.1-0.3-0.1-0.6-0.4-0.7l-7.1-1.5
					c-0.3-0.1-0.6,0.1-0.6,0.4c0,0,0,0,0,0l-0.1,0.3C180,180.7,180.2,181,180.5,181.1z"/>
				<path class="st27" d="M178,214.5L178,214.5c-8.3,0-15-7.2-15-16.1v-8.6l29.8-0.6l0.2,9.2C193,207.3,186.3,214.5,178,214.5z"/>
				<path class="st6" d="M191.7,215.2l1.6-3.8l-0.1-0.1c-1.7-1.8-1.8-4.6-0.2-6.4c0.9-1,2.3-1.6,3.7-1.4l11.2-25.8l-3.4-1.7
					c0.6,3.2,0.2,6.6-1.1,9.6c-1.7,3.9-4.8,7.4-8.6,8.7c-3.8,1.3-6.8,4.2-8.3,7.9c-1.9,4.4-1.8,9.5,0.3,13.9
					c0.9-0.7,1.9-1.4,2.9-1.9L191.7,215.2z"/>
				<rect x="163" y="177.1" class="st27" width="3.3" height="15"/>
				<rect x="189.5" y="177.1" class="st27" width="3.6" height="15"/>
				<path class="st27" d="M163.9,176h27.7c0.1,0,0.1,0.1,0.1,0.1v3c0,0.1-0.1,0.1-0.1,0.1h-27.7c-0.1,0-0.1-0.1-0.1-0.1v-3
					C163.8,176.1,163.8,176,163.9,176z"/>
				<path class="st15" d="M178.3,195c1.7,0,3.1-1.1,3.7-2.6c0.3-0.6,0-1.3-0.6-1.6c-0.1,0-0.2-0.1-0.4-0.1h-5.3
					c-0.7,0.1-1.2,0.7-1.1,1.3c0,0.1,0,0.2,0.1,0.4C175.3,193.9,176.7,194.9,178.3,195z"/>
				<path class="st15" d="M188.5,165.5c-3.7,0-6.9-2.7-8.7-6.8c-0.3-0.8-1.2-1.2-2-0.9c-0.4,0.2-0.7,0.5-0.9,0.9
					c-1.8,4.1-5,6.8-8.7,6.8c-2.2,0-4.3-1-5.9-2.6c-0.3-0.3-0.8-0.3-1.1,0c-0.1,0.2-0.2,0.4-0.2,0.6v5.6c0,3,1.8,5.4,3.9,5.4h27.2
					c2.1,0,3.9-2.4,3.9-5.4v-5.9c0-0.4-0.3-0.8-0.7-0.8c-0.2,0-0.4,0.1-0.6,0.2C193.1,164.4,190.9,165.4,188.5,165.5z"/>
				<path class="st24" d="M162.8,173.3h31c0.9,0,1.6,0.7,1.6,1.6v1.1c0,0.9-0.7,1.6-1.6,1.6h-31c-0.9,0-1.6-0.7-1.6-1.6v-1.1
					C161.3,174,162,173.3,162.8,173.3z"/>
				<path class="st24" d="M180.8,192.7h-4.9c-0.3-0.1-0.4-0.4-0.4-0.6c0-0.2,0.2-0.3,0.4-0.4h4.9c0.3,0.1,0.4,0.4,0.4,0.6
					C181.1,192.5,180.9,192.6,180.8,192.7z"/>
				<path class="st24" d="M178.5,193.3c-0.3,0-0.6,0.3-0.6,0.6c0,0,0,0,0,0h1.1C179,193.6,178.8,193.3,178.5,193.3z"/>
				<path class="st27" d="M171.6,182.2h0.4c0.6,0,1.1,0.5,1.1,1.1v3.3c0,0.6-0.5,1.1-1.1,1.1h-0.4c-0.6,0-1.1-0.5-1.1-1.1v-3.3
					C170.6,182.7,171,182.2,171.6,182.2z"/>
				<path class="st27" d="M183,182.2h0.4c0.6,0,1.1,0.5,1.1,1.1v3.3c0,0.6-0.5,1.1-1.1,1.1H183c-0.6,0-1.1-0.5-1.1-1.1v-3.3
					C182,182.7,182.5,182.2,183,182.2z"/>
				<path class="st32" d="M186.9,216.1c-2.1-4.4-2.2-9.4-0.3-13.9c1.5-3.7,4.5-6.6,8.3-7.9c3.9-1.3,6.9-4.9,8.6-8.7
					c1.3-3,1.7-6.3,1.1-9.6l-1.9-1c-0.1,0-0.2,0-0.3,0.1c0.9,3.2,0.6,6.6-0.7,9.6c-0.9,2-2.2,3.8-3.8,5.3c-2.2,1.9-5,2.4-7.3,4.1
					c-2.6,1.8-4.6,4.3-5.9,7.2c-2.3,5.2-2.1,11.2,0.6,16.2C185.9,217,186.4,216.5,186.9,216.1z"/>
				<path class="st15" d="M36,215.2c-1.6-1.9-4.4-2.3-6.4-0.7c-1.9,1.5-2.2,4.2-0.8,6.2l16.1,21.1c0.8,1,2,1.7,3.2,1.8L48,231
					L36,215.2z"/>
				<path class="st14" d="M36.7,139.3h-0.2c1.2,1.3,1.9,3,1.8,4.8c-0.2,3.6-3.2,6.3-6.8,6.2c-1.7-0.1-3.3-0.8-4.5-2.1
					c-0.2,0.8-0.3,1.6-0.3,2.4c-0.3,6.5,3.7,12,8.9,12.2s9.7-4.8,10-11.3S41.9,139.5,36.7,139.3z"/>
				<path class="st13" d="M29.7,217.8L32,169c0.1-1.6,1.4-2.8,3-2.8l0.6,0c1.6,0.1,2.8,1.4,2.8,3l-2.3,48.8c-0.1,1.6-1.4,2.8-3,2.8
					l-0.6,0C30.9,220.8,29.6,219.4,29.7,217.8z"/>
				<path class="st15" d="M36,213.6l2.2,0.1c0.6,0,1.1,0.6,1.1,1.2l0,0.2c0,0.6-0.6,1.1-1.2,1.1l-2.2-0.1c-0.6,0-1.1-0.6-1.1-1.2
					l0-0.2C34.8,214,35.4,213.5,36,213.6z"/>
				<path class="st15" d="M29.8,211.4l0.5,0c1.3,0.1,2.4,1.2,2.3,2.6l-0.2,3.9c-0.1,1.3-1.2,2.4-2.6,2.3l-0.5,0
					c-1.3-0.1-2.4-1.2-2.3-2.6l0.2-3.9C27.3,212.4,28.4,211.4,29.8,211.4z"/>
				<path class="st15" d="M39.5,151.1C39.5,151.1,39.5,151.2,39.5,151.1c-0.1,3-2.5,5.2-5.4,5.1c0,0,0,0-0.1,0
					c-0.4,0-0.9-0.1-1.3-0.2c0.2,2.5,1.8,4.4,3.9,4.5c2.3,0.1,4.3-2.1,4.4-5C41.2,153.8,40.6,152.3,39.5,151.1z"/>
				<circle class="st13" cx="87.4" cy="219" r="8.7"/>
				<circle class="st13" cx="54.4" cy="219" r="8.7"/>
				<path class="st13" d="M71.1,231.6L71.1,231.6c9.3,0,16.8-7.5,16.8-16.8l0.4-25.4l-33.9,0.2v25.3
					C54.4,224.1,61.9,231.6,71.1,231.6z"/>
				<path class="st15" d="M71.3,220h-0.9c-1.2,0-2.2-1-2.2-2.2v-6.9c0-1.2,1-2.2,2.2-2.2h0.9c1.2,0,2.2,1,2.2,2.2v6.9
					C73.5,219,72.5,220,71.3,220z"/>
				<path class="st15" d="M70.9,225c-4.4,0-7.9-3.5-7.9-7.9c0,0,0,0,0,0c0-0.1,0-0.1,0-0.2c2.4-1.3,5.1-2,7.9-2l0,0
					c2.8,0,5.5,0.7,8,2c0,0.1,0,0.1,0,0.2C78.9,221.4,75.4,225,70.9,225C71,225,70.9,225,70.9,225z"/>
				<path class="st14" d="M55.9,224.4c1.5-3.2,4-5.8,7.1-7.4c0,0.1,0,0.1,0,0.2c0.2,4.4,3.8,7.8,8.2,7.7c4.2-0.1,7.5-3.5,7.7-7.7
					c0-0.1,0-0.1,0-0.2c2.8,1.5,5.1,3.9,6.7,6.7c1.3,2.4,2,5,2,7.7v31.8H54.3v-31.8C54.3,229,54.8,226.6,55.9,224.4z"/>
				<path class="st15" d="M54.1,313.8l0.6-1c0.3-0.5,0.7-0.9,1.2-1l2.7-0.9c0-0.1,0-0.1,0-0.2v-30.3c0-3.2,1.7-5.8,3.8-5.8
					s3.7,2.6,3.7,5.8v29.2c0.6,0.8,0.9,1.7,0.9,2.7v3.7c0,1.9-1,3.5-2.2,3.5h-8.9C53.8,319.6,52.8,316,54.1,313.8z"/>
				<path class="st15" d="M73.8,309.7v-29.2c0-3.2,1.7-5.8,3.8-5.8s3.8,2.6,3.8,5.8v30.3c0,0.1,0,0.1,0,0.2l2.7,0.9
					c0.5,0.2,0.9,0.6,1.2,1l0.6,1c1.3,2.2,0.3,5.8-1.7,5.8h-9c-1.2,0-2.2-1.5-2.2-3.5v-3.7C72.9,311.5,73.2,310.5,73.8,309.7z"/>
				<path class="st34" d="M54.2,250.5h33.9c1,0,1.8,0.8,1.8,1.8v0.2c0,1-0.8,1.8-1.8,1.8H54.2c-1,0-1.8-0.8-1.8-1.8v-0.2
					C52.4,251.3,53.2,250.5,54.2,250.5z"/>
				<path class="st14" d="M87.3,260.9c0,0,1.9,28.9,8.7,32.4c0,0-6,3.7-11.5,0c0,0-8.3-1.2-10.9,1.6c0,0-8,3.9-12.9-1.6
					c-1.7-0.5-3.6-0.1-4.9,1.2c0,0-6.8,2.1-7.8-2.1c4.6-11.5,6.7-23.9,6.3-36.3"/>
				<path class="st24" d="M69.4,176.6h2.3c7.4,0,13.4,6,13.4,13.4l0,0v9.9c0,7.4-6,13.4-13.4,13.4h-2.3c-7.4,0-13.4-6-13.3-13.4V190
					C56.1,182.6,62,176.6,69.4,176.6L69.4,176.6z"/>
				<path class="st15" d="M90,196.3c0,2-1.6,3.6-3.5,3.6c-2,0-3.6-1.6-3.6-3.5c0-2,1.6-3.6,3.5-3.6c0,0,0,0,0,0
					C88.4,192.7,90,194.3,90,196.3z"/>
				<path class="st24" d="M88.6,196.3c0,1.2-1,2.2-2.2,2.2c-1.2,0-2.2-1-2.2-2.2c0-1.2,1-2.2,2.2-2.2
					C87.6,194.1,88.6,195.1,88.6,196.3C88.6,196.3,88.6,196.3,88.6,196.3z"/>
				<path class="st15" d="M59.9,196.4c0,2-1.6,3.6-3.6,3.6s-3.6-1.6-3.6-3.6c0-2,1.6-3.6,3.5-3.6C58.3,192.9,59.9,194.4,59.9,196.4
					C59.9,196.4,59.9,196.4,59.9,196.4z"/>
				<path class="st24" d="M58.5,196.4c0,1.2-1,2.2-2.2,2.2c-1.2,0-2.2-1-2.2-2.2s1-2.2,2.2-2.2c0,0,0,0,0,0
					C57.5,194.3,58.5,195.2,58.5,196.4z"/>
				<path class="st15" d="M71.6,212.1L71.6,212.1c-8,0-14.5-6.5-14.6-14.5v-7.6c0-8,6.5-14.5,14.5-14.6l0,0c8,0,14.6,6.4,14.6,14.5
					v7.6C86.1,205.5,79.6,212,71.6,212.1z"/>
				<path class="st13" d="M54.4,189.6c0-9.3,7.5-16.9,16.9-17l0,0c9.3,0,16.9,7.5,17,16.9L54.4,189.6z"/>
				<path class="st24" d="M71,203.1c0-1.2,0.9-2.1,2.1-2.1c1.2,0,2.1,0.9,2.1,2.1H71z"/>
				<path class="st24" d="M69.9,206.4c0.1,0,0.2,0,0.2-0.1c1.5-1.5,4.6-0.4,4.6-0.4c0.2,0.1,0.4-0.1,0.4-0.2c0-0.2,0-0.4-0.2-0.4
					c-0.1-0.1-3.5-1.2-5.3,0.6c-0.1,0.1-0.1,0.4,0,0.5C69.7,206.4,69.8,206.4,69.9,206.4z"/>
				<path class="st13" d="M77,195.5l6.1-1.4c0.5-0.1,0.9-0.7,0.8-1.2c0,0,0,0,0,0l0,0c-0.1-0.5-0.7-0.9-1.2-0.8c0,0,0,0,0,0
					l-6.1,1.4c-0.5,0.1-0.9,0.7-0.8,1.2c0,0,0,0,0,0l0,0C75.9,195.3,76.4,195.6,77,195.5C77,195.5,77,195.5,77,195.5z"/>
				<path class="st13" d="M68.7,195.5l-6.1-1.4c-0.5-0.1-0.9-0.7-0.8-1.2c0,0,0,0,0,0l0,0c0.1-0.5,0.7-0.9,1.2-0.8c0,0,0,0,0,0
					l6.1,1.4c0.5,0.1,0.9,0.7,0.8,1.2c0,0,0,0,0,0l0,0C69.8,195.3,69.2,195.6,68.7,195.5C68.7,195.5,68.7,195.5,68.7,195.5z"/>
				<path class="st26" d="M78.4,201L78.4,201c0.6,0,1-0.4,1.1-1v-2.6c0-0.6-0.5-1.1-1.1-1.1l0,0c-0.6,0-1.1,0.5-1.1,1.1v2.6
					C77.4,200.6,77.8,201,78.4,201z"/>
				<path class="st26" d="M66.7,201L66.7,201c0.6,0,1-0.4,1.1-1v-2.6c0-0.6-0.5-1.1-1.1-1.1l0,0c-0.6,0-1.1,0.5-1.1,1.1v2.6
					C65.6,200.6,66.1,201,66.7,201z"/>
				<rect x="80" y="173.3" class="st15" width="8.1" height="13.8"/>
				<rect x="54.2" y="173.3" class="st15" width="8.1" height="13.8"/>
				<rect x="66.5" y="171.1" class="st15" width="9.4" height="18.4"/>
				<rect x="54.1" y="181.7" class="st15" width="34.2" height="5.5"/>
				<path class="st24" d="M87.4,190H54.5c-0.8,0-1.4-0.6-1.4-1.4V188c0-0.8,0.6-1.4,1.4-1.4h32.9c0.8,0,1.4,0.6,1.4,1.4v0.6
					C88.8,189.3,88.1,190,87.4,190z"/>
				<path class="st14" d="M48.5,243.6c1.5-0.1,2.8-1,3.5-2.3l10.6-18.8c1.2-2.2,0.5-4.9-1.7-6.2c-2.2-1.2-4.9-0.5-6.2,1.7l-7.4,13.1
					l-0.1-0.1l0.7,12.5h0.1L48.5,243.6z"/>
				<path class="st15" d="M116.6,225.5c-1.8-1.4-4.5-1.1-5.9,0.7c-3.5,4.4-6.9,6.4-10.1,6.1h-0.2c-0.4,2.8-1.3,5.5-2.6,8
					c0.6,0.1,1.2,0.3,1.8,0.3c0.6,0.1,1.2,0.1,1.8,0.1c5.6,0,10.9-3.1,15.8-9.3C118.7,229.6,118.4,226.9,116.6,225.5
					C116.6,225.5,116.6,225.5,116.6,225.5z"/>
				<path class="st14" d="M87.1,218.8c-0.9-2.1-3.4-3.2-5.5-2.3c-2.1,0.9-3.2,3.4-2.3,5.5c0,0.1,0.1,0.2,0.1,0.3
					c0.8,1.6,7.4,15.3,18.3,18c1.3-2.5,2.2-5.2,2.6-8C94.3,231.4,88.7,222,87.1,218.8z"/>
			</g>
		</g>
	</g>
</g>
</svg>
