<?xml version="1.0" encoding="utf-8"?>
<!-- Generator: Adobe Illustrator 25.2.3, SVG Export Plug-In . SVG Version: 6.00 Build 0)  -->
<svg version="1.1" id="Layer_1" xmlns="http://www.w3.org/2000/svg" xmlns:xlink="http://www.w3.org/1999/xlink" x="0px" y="0px"
	 viewBox="0 0 234.2 379.8" style="enable-background:new 0 0 234.2 379.8;" xml:space="preserve">
<style type="text/css">
	.st0{fill:#231F20;}
	.st1{fill:#F4B155;}
	.st2{fill:#FFF0CC;}
	.st3{clip-path:url(#SVGID_2_);}
	.st4{fill:#3F272D;}
	.st5{fill:#54323A;}
	.st6{fill:#492C34;}
	.st7{fill:#FFD150;}
	.st8{fill:#F5B155;}
	.st9{fill:#F4B055;}
	.st10{fill:#47372E;}
	.st11{fill:#EE915B;}
	.st12{fill:#E4705E;}
	.st13{fill:#DD4F65;}
	.st14{fill:#AA334A;}
	.st15{fill:#4A355B;}
	.st16{fill:#D6306A;}
	.st17{fill:#FFD351;}
	.st18{fill:#FFFFFF;}
	.st19{fill:#E6705F;}
	.st20{fill:#414042;}
	.st21{fill:#DC4F64;}
</style>
<g id="Layer_2_1_">
	<g id="Layer_1-2">
		<path class="st0" d="M180.7,285.6H53.5c-13.8,0-24.9-11.2-24.9-24.9V68.1c0-13.8,11.2-24.9,24.9-24.9h127.2
			c13.7,0,24.9,11.2,24.9,24.9v192.5C205.6,274.4,194.5,285.5,180.7,285.6z M53.5,44.6c-13,0-23.6,10.6-23.6,23.6v192.5
			c0,13,10.6,23.6,23.6,23.6h127.2c13,0,23.6-10.6,23.6-23.6V68.1c0-13-10.6-23.6-23.6-23.6L53.5,44.6z"/>
		<path class="st1" d="M234.2,14.4v351c0,7.9-6.7,14.4-14.9,14.4H14.9c-8.2,0-14.9-6.4-14.9-14.4v-351C0,6.5,6.7,0,14.9,0h204.3
			C227.5,0,234.2,6.5,234.2,14.4z M221.6,357.1V22.8c0-5.9-4.8-10.7-10.8-10.8H23.3c-5.9,0-10.7,4.8-10.8,10.8v334.3
			c0,5.9,4.8,10.8,10.8,10.8h187.5C216.8,367.8,221.6,363,221.6,357.1z"/>
		<path class="st2" d="M23.3,12h187.5c6,0,10.8,4.8,10.8,10.8v334.3c0,6-4.8,10.8-10.8,10.8H23.3c-6,0-10.8-4.8-10.8-10.8V22.8
			C12.5,16.8,17.4,12,23.3,12z"/>
		<path class="st0" d="M43.7,325.9c-0.1-0.1-0.2-0.3-0.2-0.5v-11.9c0-0.2,0-0.4,0.2-0.5c0.2-0.1,0.4-0.2,0.6-0.2h8.1
			c0.2,0,0.4,0,0.5,0.1c0.1,0.2,0.2,0.3,0.1,0.5v0.6c0,0.2,0,0.4-0.1,0.5c-0.1,0.1-0.3,0.2-0.5,0.2H46v3.8h4.6c0.2,0,0.4,0,0.5,0.2
			c0.1,0.1,0.2,0.3,0.2,0.5v0.5c0,0.2,0,0.4-0.2,0.5c-0.1,0.1-0.3,0.2-0.5,0.2H46v5c0,0.2,0,0.4-0.2,0.5c-0.2,0.1-0.4,0.2-0.6,0.2
			h-1C44,326.1,43.8,326,43.7,325.9z"/>
		<path class="st0" d="M54.8,325.9c-0.1-0.1-0.2-0.3-0.2-0.5v-11.9c0-0.2,0-0.4,0.2-0.5c0.2-0.1,0.4-0.2,0.5-0.2h1
			c0.2,0,0.4,0,0.6,0.2c0.1,0.2,0.2,0.3,0.2,0.5v11.9c0,0.2,0,0.4-0.2,0.5c-0.2,0.1-0.4,0.2-0.6,0.2h-1
			C55.1,326.1,54.9,326,54.8,325.9z"/>
		<path class="st0" d="M64.4,326c-0.1-0.1-0.2-0.2-0.2-0.4l-5.1-12.3c0-0.1-0.1-0.2-0.1-0.2c0-0.1,0-0.2,0.1-0.2
			c0.1-0.1,0.2-0.1,0.2-0.1H61c0.1,0,0.3,0,0.4,0.1c0.1,0.1,0.2,0.2,0.2,0.3l3.7,9.4l3.7-9.4c0-0.1,0.1-0.2,0.2-0.3
			c0.1-0.1,0.3-0.1,0.4-0.1h1.7c0.1,0,0.2,0,0.2,0.1c0.1,0.1,0.1,0.1,0.1,0.2c0,0.1,0,0.2-0.1,0.2l-5.1,12.3
			c-0.1,0.1-0.1,0.3-0.3,0.4c-0.1,0.1-0.3,0.1-0.4,0.1h-1C64.7,326.1,64.5,326.1,64.4,326z"/>
		<path class="st0" d="M73.4,325.9c-0.1-0.1-0.2-0.3-0.2-0.5v-11.9c0-0.2,0-0.4,0.2-0.5c0.2-0.1,0.4-0.2,0.6-0.2h8.2
			c0.2,0,0.4,0,0.5,0.1c0.1,0.2,0.2,0.3,0.2,0.5v0.6c0,0.2,0,0.4-0.2,0.5c-0.1,0.1-0.3,0.2-0.5,0.2h-6.4v3.8h4.6
			c0.2,0,0.4,0,0.6,0.2c0.1,0.1,0.2,0.3,0.2,0.5v0.5c0,0.2,0,0.4-0.2,0.5c-0.2,0.1-0.4,0.2-0.6,0.2h-4.6v3.8h6.3
			c0.2,0,0.4,0,0.6,0.2c0.1,0.2,0.2,0.3,0.2,0.5v0.5c0,0.2,0,0.4-0.2,0.5c-0.2,0.1-0.4,0.2-0.6,0.2H74
			C73.8,326.1,73.6,326,73.4,325.9z"/>
		<path class="st0" d="M93.5,324.5c-2.3-3-2.3-7.2,0-10.3c2.9-2.4,7.1-2.4,9.9,0c2.3,3,2.3,7.2,0,10.3
			C100.6,326.9,96.4,326.9,93.5,324.5z M101.6,323.2c1.4-2.3,1.4-5.3,0-7.6c-1.7-1.7-4.5-1.7-6.3,0c-1.5,2.3-1.5,5.3,0,7.6
			C97.1,324.9,99.9,324.9,101.6,323.2C101.6,323.2,101.6,323.2,101.6,323.2z"/>
		<path class="st0" d="M107.3,325.9c-0.1-0.1-0.2-0.3-0.2-0.5v-11.9c0-0.2,0-0.4,0.2-0.5c0.2-0.1,0.4-0.2,0.6-0.2h8.2
			c0.2,0,0.4,0,0.5,0.1c0.1,0.2,0.2,0.3,0.2,0.5v0.6c0,0.2,0,0.4-0.2,0.5c-0.1,0.1-0.3,0.2-0.5,0.2h-6.4v3.8h4.6
			c0.2,0,0.4,0,0.6,0.2c0.1,0.1,0.2,0.3,0.2,0.5v0.5c0,0.2,0,0.4-0.2,0.5c-0.1,0.1-0.4,0.2-0.6,0.2h-4.6v5c0,0.2,0,0.4-0.2,0.5
			c-0.2,0.1-0.4,0.2-0.6,0.2h-1C107.6,326.1,107.4,326,107.3,325.9z"/>
		<path class="st0" d="M128.8,325.9c-0.1-0.1-0.2-0.2-0.2-0.4l-3.1-12.4c0-0.1,0-0.1,0-0.2c0-0.2,0.1-0.3,0.4-0.3h1.6
			c0.1,0,0.3,0,0.4,0.1c0.1,0.1,0.1,0.2,0.2,0.3l2,8.6l2.4-7.6c0-0.1,0.1-0.2,0.2-0.3c0.1-0.1,0.2-0.1,0.4-0.1h0.9
			c0.1,0,0.3,0,0.4,0.1c0.1,0.1,0.2,0.2,0.2,0.3l2.4,7.6l1.9-8.6c0-0.1,0.1-0.2,0.2-0.3c0.1-0.1,0.3-0.1,0.4-0.1h1.6
			c0.2,0,0.4,0.1,0.4,0.3c0,0.1,0,0.1,0,0.2l-3.2,12.4c0,0.1-0.1,0.3-0.2,0.4c-0.1,0.1-0.3,0.1-0.4,0.1h-1.1c-0.1,0-0.3,0-0.4-0.1
			c-0.1-0.1-0.2-0.2-0.2-0.4l-2.4-7.8l-2.4,7.8c0,0.1-0.1,0.3-0.2,0.4c-0.1,0.1-0.3,0.1-0.4,0.1h-1.1
			C129.1,326.1,128.9,326,128.8,325.9z"/>
		<path class="st0" d="M140.6,325.8c0-0.1,0-0.2,0.1-0.2l5.2-12.2c0.1-0.2,0.1-0.3,0.3-0.4c0.1-0.1,0.3-0.1,0.4-0.1h1.1
			c0.1,0,0.3,0,0.4,0.1c0.1,0.1,0.2,0.3,0.2,0.4l5.2,12.2c0,0.1,0.1,0.2,0.1,0.2c0,0.2-0.1,0.3-0.3,0.3h-1.7c-0.1,0-0.3,0-0.4,0
			c-0.1-0.1-0.2-0.2-0.2-0.3l-1.1-2.7h-5.4l-1.1,2.7c0,0.1-0.1,0.2-0.2,0.3c-0.1,0.1-0.2,0.1-0.4,0.1h-1.7
			C140.7,326.1,140.6,325.9,140.6,325.8z M149.1,321.1L147,316l-2.1,5.1L149.1,321.1z"/>
		<path class="st0" d="M155.5,325.9c-0.1-0.1-0.2-0.3-0.2-0.5v-11.9c0-0.2,0-0.4,0.2-0.5c0.2-0.1,0.4-0.2,0.6-0.2h0.9
			c0.1,0,0.3,0,0.4,0.1c0.1,0.1,0.2,0.2,0.3,0.3l6.5,9v-8.6c0-0.2,0-0.4,0.2-0.5c0.2-0.1,0.4-0.2,0.6-0.2h1c0.2,0,0.4,0,0.6,0.2
			c0.1,0.2,0.2,0.3,0.2,0.5v11.9c0,0.2,0,0.4-0.2,0.5c-0.2,0.1-0.4,0.2-0.6,0.2H165c-0.1,0-0.3,0-0.4-0.1c-0.1-0.1-0.2-0.2-0.3-0.3
			l-6.5-8.9v8.6c0.1,0.3-0.2,0.7-0.5,0.7c-0.1,0-0.1,0-0.2,0h-1C155.9,326.1,155.7,326,155.5,325.9z"/>
		<path class="st0" d="M169.2,325.9c-0.1-0.1-0.2-0.3-0.2-0.5v-11.9c-0.1-0.3,0.1-0.7,0.5-0.7c0.1,0,0.2,0,0.2,0h3.9
			c1.8-0.1,3.6,0.4,5.1,1.6c1.2,1.1,1.8,2.8,1.8,5.1c0,4.4-2.3,6.7-6.8,6.7h-3.9C169.5,326.1,169.3,326,169.2,325.9z M173.8,324.1
			c1.1,0.1,2.3-0.3,3.1-1.1c1.4-2.3,1.4-5.1,0-7.4c-0.9-0.8-2-1.1-3.1-1.1h-2.3v9.5H173.8z"/>
		<path class="st0" d="M183.5,326c-0.8-0.2-1.5-0.4-2.1-0.9c-0.2-0.1-0.3-0.2-0.3-0.3c0-0.1,0-0.2,0.1-0.2l0.6-1
			c0.1-0.1,0.1-0.2,0.2-0.2c0.1,0,0.2,0,0.2,0.1c0.5,0.3,1.1,0.5,1.7,0.7c0.6,0.2,1.3,0.3,1.9,0.3c0.7,0,1.4-0.1,2-0.4
			c0.7-0.6,0.9-1.6,0.4-2.4c-0.2-0.3-0.5-0.5-0.7-0.6c-0.3-0.2-0.9-0.4-1.6-0.7l-0.4-0.2c-0.7-0.3-1.4-0.6-2.1-1
			c-0.5-0.3-1-0.7-1.4-1.2c-0.4-0.5-0.6-1.2-0.6-1.9c0-1.1,0.5-2.1,1.4-2.8c1.1-0.7,2.3-1,3.6-1c0.8,0,1.6,0.1,2.3,0.3
			c0.6,0.1,1.2,0.4,1.7,0.8c0.2,0.1,0.2,0.2,0.2,0.3c0,0.1,0,0.2-0.1,0.2l-0.6,1c-0.1,0.1-0.1,0.2-0.2,0.2c-0.1,0-0.2-0.1-0.3-0.1
			c-0.9-0.6-2-0.8-3.1-0.8c-0.7,0-1.3,0.1-1.9,0.5c-0.4,0.3-0.7,0.9-0.6,1.4c0,0.4,0.1,0.7,0.3,1c0.2,0.3,0.5,0.5,0.8,0.6
			c0.5,0.3,1.1,0.5,1.6,0.7l0.5,0.2c0.8,0.3,1.5,0.6,2.2,1c0.5,0.3,0.9,0.7,1.2,1.2c0.3,0.6,0.5,1.2,0.4,1.8c0,1-0.4,2-1.3,2.6
			c-1.1,0.7-2.3,1.1-3.6,1C185.3,326.3,184.4,326.2,183.5,326z"/>
		<g>
			<defs>
				<path id="SVGID_1_" d="M52.4,46h128.5c13.6,0,24.7,11.1,24.7,24.7v191.6c0,13.6-11.1,24.7-24.7,24.7H52.4
					c-13.6,0-24.7-11.1-24.7-24.7V70.7C27.7,57,38.7,46,52.4,46z"/>
			</defs>
			<clipPath id="SVGID_2_">
				<use xlink:href="#SVGID_1_"  style="overflow:visible;"/>
			</clipPath>
			<g class="st3">
				<rect x="-3.6" y="32.7" class="st4" width="218.4" height="261"/>
				<rect x="24.6" y="216.1" class="st5" width="186.7" height="70.9"/>
				<polygon class="st6" points="71,216.1 41,289.1 236,289.1 199.5,217.2 				"/>
				<polygon class="st6" points="48.6,229.7 24.3,250.1 23.9,292.5 56.5,296.6 74.2,231.7 				"/>
				<path class="st7" d="M66,202c-0.5,0-1.1-0.1-1.6-0.2c-4.3-1.1-7-6.4-7.3-7c-0.4-0.9,0.1-2,1-2.4c0.9-0.4,1.8,0,2.3,0.8
					c0.6,1.2,2.6,4.5,4.9,5.1c0.9,0.2,1.8,0,2.5-0.6c0.8-0.6,2-0.4,2.6,0.4c0.6,0.8,0.4,2-0.4,2.6C68.8,201.5,67.4,202,66,202z"/>
				<rect x="46.1" y="179.7" class="st8" width="14.4" height="4"/>
				<circle class="st7" cx="60.3" cy="183.2" r="1.6"/>
				<circle class="st9" cx="60.3" cy="183.2" r="1"/>
				<circle class="st7" cx="46.6" cy="183.2" r="1.6"/>
				<circle class="st9" cx="46.6" cy="183.2" r="1"/>
				<path class="st10" d="M68.5,224.2L68.5,224.2c0.7,0,1.2-0.5,1.2-1.2c0,0,0,0,0,0v-38c0-0.7-0.5-1.2-1.2-1.2c0,0,0,0,0,0l0,0
					c-0.7,0-1.2,0.5-1.2,1.2v38C67.3,223.7,67.9,224.2,68.5,224.2C68.5,224.2,68.5,224.2,68.5,224.2z"/>
				<path class="st11" d="M68.6,167.8h-0.1c0.7,0.7,1.2,1.7,1.2,2.7c0,2-1.7,3.7-3.7,3.7c-1,0-1.9-0.4-2.6-1.1
					c-0.1,0.5-0.1,0.9-0.1,1.4c0,3.7,2.4,6.7,5.4,6.7s5.4-3,5.4-6.7S71.6,167.8,68.6,167.8z"/>
				<path class="st7" d="M70.5,174.5L70.5,174.5c0,1.7-1.4,3-3,3c-0.2,0-0.5,0-0.7-0.1c0.1,1.3,1.1,2.3,2.3,2.5
					c1.5-0.2,2.6-1.5,2.4-3C71.6,176,71.2,175.1,70.5,174.5z"/>
				<path class="st7" d="M59.5,230.2l-0.2-0.2c-0.1-0.1-0.3-0.2-0.5-0.3l-1-0.2v-16.3c-0.1-0.8-0.8-1.4-1.6-1.3
					c-0.7,0.1-1.3,0.6-1.3,1.3v16c-0.2,0.2-0.3,0.4-0.3,0.7v0.9c0,0.5,0.4,0.9,0.9,0.9l0,0h3.5c0.5,0,0.8-0.4,0.8-0.9
					C59.7,230.6,59.6,230.4,59.5,230.2z"/>
				<path class="st12" d="M54.9,223.3h2.6c0.1,0,0.3-0.1,0.3-0.3l0,0l0,0c0-0.2-0.1-0.3-0.3-0.3h-2.6c-0.2,0-0.3,0.1-0.3,0.3l0,0
					C54.7,223.2,54.8,223.3,54.9,223.3L54.9,223.3z"/>
				<path class="st12" d="M57.6,226.7L57.6,226.7c0.1-0.1,0.2-0.3,0.1-0.4c0,0,0,0,0,0l-2.3-3.1c-0.1-0.1-0.3-0.2-0.4-0.1
					c0,0,0,0,0,0l0,0c-0.1,0.1-0.2,0.3-0.1,0.4c0,0,0,0,0,0l2.3,3.1C57.2,226.7,57.4,226.8,57.6,226.7z"/>
				<path class="st12" d="M54.8,226.6L54.8,226.6c-0.1-0.1-0.1-0.3-0.1-0.4c0,0,0,0,0,0l2.3-3.1c0.1-0.1,0.3-0.1,0.4,0l0,0
					c0.1,0.1,0.1,0.3,0,0.4l-2.4,3.1C55.1,226.7,55,226.7,54.8,226.6z"/>
				<path class="st12" d="M57.6,229.8L57.6,229.8c0.1-0.1,0.2-0.3,0.1-0.4c0,0,0,0,0,0l-2.3-3.1c-0.1-0.1-0.3-0.2-0.4-0.1
					c0,0,0,0,0,0l0,0c-0.1,0.1-0.2,0.3-0.1,0.4c0,0,0,0,0,0l2.3,3.1C57.2,229.9,57.4,229.9,57.6,229.8
					C57.6,229.8,57.6,229.8,57.6,229.8z"/>
				<path class="st12" d="M54.9,229.8L54.9,229.8c-0.1-0.1-0.2-0.3-0.1-0.4c0,0,0,0,0,0l2.3-3.1c0.1-0.1,0.3-0.2,0.4-0.1
					c0,0,0,0,0,0l0,0c0.1,0.1,0.2,0.3,0.1,0.4c0,0,0,0,0,0l-2.3,3.1C55.2,229.9,55,229.9,54.9,229.8
					C54.9,229.8,54.9,229.8,54.9,229.8z"/>
				<path class="st12" d="M58.8,231.5L58.8,231.5c0.1,0,0.3-0.1,0.3-0.3V230c0-0.1-0.1-0.3-0.3-0.3l0,0c-0.1,0-0.3,0.1-0.2,0.3v1.3
					C58.6,231.4,58.7,231.5,58.8,231.5z"/>
				<path class="st12" d="M57.8,231.5L57.8,231.5c0.1,0,0.3-0.1,0.3-0.3v-1.6c0-0.1-0.1-0.3-0.3-0.2l0,0c-0.1,0-0.3,0.1-0.3,0.2v1.6
					C57.5,231.4,57.6,231.5,57.8,231.5z"/>
				<path class="st12" d="M55,230h2.5c0.2,0,0.3-0.1,0.3-0.3l0,0c0-0.2-0.1-0.3-0.3-0.3H55c-0.2,0-0.3,0.1-0.3,0.3l0,0
					C54.8,229.9,54.9,230,55,230C55,230,55,230,55,230z"/>
				<path class="st12" d="M59.4,231.8h-4.9c-0.1,0-0.3-0.1-0.3-0.3l0,0c0-0.1,0.1-0.3,0.3-0.3h4.9c0.1,0,0.3,0.1,0.3,0.3l0,0
					C59.7,231.7,59.6,231.8,59.4,231.8z"/>
				<path class="st7" d="M51.8,229.2v-16c-0.1-0.8-0.8-1.4-1.6-1.3c-0.7,0.1-1.3,0.6-1.3,1.3v16.3l-1,0.2c-0.2,0-0.3,0.1-0.5,0.3
					l-0.2,0.2c-0.3,0.4-0.3,0.9,0.1,1.2c0.2,0.1,0.4,0.2,0.6,0.2h3.5c0.5,0,0.9-0.4,0.9-0.9v-0.9C52.2,229.6,52.1,229.3,51.8,229.2z
					"/>
				<path class="st12" d="M51.7,223.3h-2.6c-0.1,0-0.3-0.1-0.3-0.3l0,0l0,0c0-0.2,0.1-0.3,0.3-0.3h2.6c0.1,0,0.3,0.1,0.3,0.2l0,0
					C52,223.1,51.9,223.3,51.7,223.3C51.8,223.3,51.7,223.3,51.7,223.3z"/>
				<path class="st12" d="M49.1,226.7L49.1,226.7c-0.1-0.1-0.2-0.3-0.1-0.4c0,0,0,0,0,0l2.3-3.1c0.1-0.1,0.3-0.2,0.4-0.1
					c0,0,0,0,0,0l0,0c0.1,0.1,0.2,0.3,0.1,0.4l-2.3,3.1C49.4,226.7,49.2,226.8,49.1,226.7z"/>
				<path class="st12" d="M51.8,226.7L51.8,226.7c0.1-0.1,0.2-0.3,0.1-0.4l-2.3-3.1c-0.1-0.1-0.3-0.2-0.4-0.1c0,0,0,0,0,0l0,0
					c-0.1,0.1-0.2,0.3-0.1,0.4c0,0,0,0,0,0l2.3,3.1C51.4,226.7,51.6,226.8,51.8,226.7z"/>
				<path class="st12" d="M49.1,229.8L49.1,229.8c-0.1-0.1-0.2-0.3-0.1-0.4c0,0,0,0,0,0l2.3-3.1c0.1-0.1,0.3-0.2,0.4-0.1
					c0,0,0,0,0,0l0,0c0.1,0.1,0.2,0.3,0.1,0.4l-2.3,3.1C49.4,229.9,49.2,229.9,49.1,229.8C49.1,229.8,49.1,229.8,49.1,229.8z"/>
				<path class="st12" d="M51.8,229.8L51.8,229.8c0.1-0.1,0.2-0.3,0.1-0.4l-2.3-3.1c-0.1-0.1-0.3-0.2-0.4-0.1c0,0,0,0,0,0l0,0
					c-0.1,0.1-0.2,0.3-0.1,0.4c0,0,0,0,0,0l2.3,3.1C51.4,229.9,51.6,229.9,51.8,229.8C51.8,229.8,51.8,229.8,51.8,229.8z"/>
				<path class="st12" d="M47.8,231.4L47.8,231.4c-0.1,0-0.3-0.1-0.3-0.3v-1.3c0-0.1,0.1-0.3,0.3-0.3l0,0c0.1,0,0.3,0.1,0.2,0.3v1.3
					C48.1,231.3,48,231.4,47.8,231.4z"/>
				<path class="st12" d="M48.9,231.4L48.9,231.4c-0.1,0-0.3-0.1-0.3-0.3v-1.5c0-0.1,0.1-0.3,0.3-0.3l0,0c0.1,0,0.3,0.1,0.3,0.3v1.5
					C49.1,231.3,49,231.4,48.9,231.4z"/>
				<path class="st12" d="M51.6,230h-2.5c-0.2,0-0.3-0.1-0.3-0.3l0,0c0-0.2,0.1-0.3,0.3-0.3h2.5c0.2,0,0.3,0.1,0.3,0.3l0,0
					C51.9,229.9,51.8,230,51.6,230C51.6,230,51.6,230,51.6,230z"/>
				<path class="st12" d="M52,231.8h-4.9c-0.1,0-0.3-0.1-0.3-0.3l0,0c0-0.1,0.1-0.3,0.3-0.3H52c0.1,0,0.3,0.1,0.3,0.3l0,0
					C52.3,231.7,52.1,231.8,52,231.8z"/>
				<path class="st12" d="M52,231.8L52,231.8c0.2,0,0.3-0.1,0.3-0.3l0,0v-2c0-0.2-0.1-0.3-0.3-0.3c0,0,0,0,0,0l0,0
					c-0.2,0-0.3,0.1-0.3,0.3v2C51.7,231.6,51.8,231.8,52,231.8z"/>
				<path class="st12" d="M54.5,231.8L54.5,231.8c-0.2,0-0.3-0.1-0.3-0.3c0,0,0,0,0,0v-2c0-0.2,0.1-0.3,0.3-0.3c0,0,0,0,0,0l0,0
					c0.2,0,0.3,0.1,0.3,0.3v2C54.8,231.6,54.7,231.8,54.5,231.8C54.5,231.8,54.5,231.8,54.5,231.8z"/>
				<rect x="51.4" y="188.6" class="st7" width="4.2" height="4"/>
				<path class="st7" d="M53.4,193.9c1.5,0,2.9-0.8,3.6-2.2c-0.9-0.5-2-0.7-3-0.7h-1.2c-1,0-2.1,0.2-3,0.7
					C50.5,193.1,51.9,193.9,53.4,193.9z"/>
				<path class="st13" d="M57.5,192.1c-0.2-0.1-0.3-0.2-0.5-0.3c-1.1,2-3.5,2.7-5.5,1.7c-0.7-0.4-1.3-1-1.7-1.7
					c-0.4,0.2-0.7,0.4-1,0.6l0,0c1,0.6,1.4,1.9,0.9,2.9c-0.4,0.7-1.1,1.1-1.9,1.1c-0.3,0-0.7-0.1-1-0.2c0,0,0,0.1,0,0.1v21.2H60
					v-21.1C60,194.6,59,193,57.5,192.1z"/>
				<path class="st7" d="M49.9,194.3c0-0.8-0.4-1.5-1.1-1.9c-1.2,0.9-1.9,2.3-2,3.8c0.3,0.2,0.7,0.2,1,0.2
					C49,196.5,49.9,195.5,49.9,194.3C49.9,194.4,49.9,194.4,49.9,194.3z"/>
				<path class="st14" d="M60.2,207H47.1c-0.6,0-1-0.4-1-1l0,0c0-0.6,0.4-1,1-1h13.1c0.6,0,1,0.4,1,1l0,0
					C61.2,206.6,60.7,207,60.2,207z"/>
				<path class="st9" d="M53.5,190.8L53.5,190.8c-3.6,0-6.6-3-6.6-6.6v-3.4c0-3.6,3-6.6,6.6-6.6l0,0c3.6,0,6.6,3,6.6,6.6v3.4
					C60.1,187.8,57.1,190.8,53.5,190.8z"/>
				<path class="st7" d="M53.5,190.3L53.5,190.3c-3.6,0-6.6-3-6.6-6.6v-3.4c0-3.6,3-6.6,6.6-6.6l0,0c3.6,0,6.6,3,6.6,6.6v3.4
					C60.1,187.4,57.1,190.3,53.5,190.3z"/>
				<path class="st10" d="M45.7,180.1c0-4.3,3.5-7.7,7.7-7.7l0,0c4.3,0,7.7,3.5,7.7,7.7H45.7z"/>
				<path class="st7" d="M69.7,201.9L69.7,201.9c-0.6,0-1.1-0.5-1.1-1.1v-3.1c0-0.6,0.5-1.1,1.1-1.1l0,0c0.6,0,1.1,0.5,1.1,1.1v3.1
					C70.8,201.4,70.3,201.9,69.7,201.9z"/>
				<path class="st7" d="M67.1,198.9h-0.6c-0.4,0-0.7-0.3-0.7-0.7l0,0l0,0c0-0.4,0.3-0.7,0.7-0.7h0h0.6c0.4,0,0.7,0.3,0.7,0.7l0,0
					l0,0C67.8,198.6,67.5,198.9,67.1,198.9L67.1,198.9z"/>
				<path class="st7" d="M41.4,202c0.5,0,1.1-0.1,1.6-0.2c4.3-1.1,7-6.4,7.3-7c0.4-0.9,0.1-2-0.9-2.4c-0.9-0.4-2-0.1-2.4,0.9l0,0
					c-0.6,1.2-2.6,4.5-4.9,5.1c-0.9,0.2-1.8,0-2.5-0.6c-0.8-0.6-2-0.4-2.6,0.4c-0.6,0.8-0.4,2,0.4,2.6C38.6,201.5,40,202,41.4,202z"
					/>
				<path class="st10" d="M38.6,224.2L38.6,224.2c0.7,0,1.2-0.5,1.2-1.2v-38c0-0.7-0.5-1.2-1.2-1.2l0,0c-0.7,0-1.2,0.5-1.2,1.2l0,0
					v38C37.4,223.7,37.9,224.2,38.6,224.2L38.6,224.2z"/>
				<path class="st11" d="M38.2,168.2h-0.1c1.6,1.3,1.8,3.6,0.6,5.2c-1.3,1.6-3.6,1.8-5.2,0.6c-0.2-0.1-0.3-0.3-0.5-0.5
					c-0.1,0.5-0.1,0.9-0.1,1.4c0,3.7,2.4,6.7,5.4,6.7s5.4-3,5.4-6.7S41.2,168.2,38.2,168.2z"/>
				<path class="st7" d="M40.2,174.8L40.2,174.8c0,1.7-1.3,3-3,3c-0.3,0-0.5,0-0.8-0.1c0.1,1.3,1.1,2.4,2.4,2.5
					c1.5-0.2,2.5-1.5,2.4-3C41.2,176.3,40.8,175.5,40.2,174.8z"/>
				<path class="st7" d="M37.4,201.9L37.4,201.9c0.6,0,1.1-0.5,1.1-1.1v-3.1c0-0.6-0.5-1.1-1.1-1.1l0,0c-0.6,0-1.1,0.5-1.1,1.1v3.1
					C36.2,201.4,36.7,201.9,37.4,201.9z"/>
				<path class="st7" d="M39.9,198.9h0.6c0.4,0,0.7-0.3,0.7-0.7l0,0l0,0c0-0.4-0.3-0.7-0.7-0.7c0,0,0,0,0,0h-0.6
					c-0.4,0-0.7,0.3-0.7,0.7l0,0l0,0C39.2,198.6,39.5,198.9,39.9,198.9C39.9,198.9,39.9,198.9,39.9,198.9z"/>
				<path class="st15" d="M51.4,185L51.4,185c-0.4,0-0.8-0.4-0.8-0.8v-0.9c0-0.4,0.4-0.8,0.8-0.8l0,0c0.4,0,0.8,0.4,0.8,0.8v0.9
					C52.2,184.6,51.9,185,51.4,185z"/>
				<path class="st15" d="M57,185L57,185c-0.4,0-0.8-0.4-0.8-0.8v-0.9c0-0.4,0.4-0.8,0.8-0.8l0,0c0.4,0,0.8,0.4,0.8,0.8v0.9
					C57.8,184.6,57.4,185,57,185z"/>
				<path class="st10" d="M58.4,182.4l-1.6-0.7c-0.3-0.1-0.4-0.5-0.3-0.8l0,0c0.1-0.3,0.5-0.4,0.8-0.3l1.6,0.7
					c0.3,0.1,0.4,0.5,0.3,0.8l0,0C59,182.4,58.7,182.5,58.4,182.4z"/>
				<path class="st10" d="M50,182.4l1.6-0.7c0.3-0.1,0.4-0.5,0.3-0.8l0,0c-0.1-0.3-0.5-0.4-0.8-0.3l-1.6,0.7
					c-0.3,0.1-0.4,0.5-0.3,0.8l0,0C49.4,182.4,49.7,182.6,50,182.4z"/>
				<path class="st9" d="M53.5,185.5c0-0.5,0.4-0.9,1-0.9s1,0.4,1,0.9H53.5z"/>
				<path class="st13" d="M53.8,186.7c0-0.4,0.3-0.7,0.7-0.7c0,0,0,0,0,0c0.4,0,0.7,0.3,0.7,0.7c0,0,0,0,0,0H53.8z"/>
				<path class="st9" d="M54.3,187c0-0.1,0.1-0.2,0.2-0.2c0.1,0,0.2,0.1,0.2,0.2c0,0,0,0,0,0H54.3z"/>
				<path class="st13" d="M47,208.2c0,0-1.6,9.9-2.9,11.2c0,0,1,1.2,2.9,0c0,0,3-0.4,3.9,0.6c0,0,2.6,1.3,4-0.8c0,0,2.7-1.1,3.8,0
					c0,0,1.4,1,2.6-1c0,0-1.3-6-1.2-9.2L47,208.2z"/>
				<path class="st16" d="M121.9,141c0,0,7.9,3.1,1.9,13.2s14-3.2,13.9-3.9s-0.7-13.1-1.3-14.1"/>
				<path class="st16" d="M137,220.5c0-7.1-5.4-12.9-12-12.9H80.5c-4.4,0.1-8.4,2.6-10.4,6.4H79c1.4,0,2.5,1.1,2.5,2.5v2.4
					c0,0.5-0.2,1-0.5,1.5L137,220.5z"/>
				<path class="st11" d="M81.5,216.6c0-1.4-1.1-2.5-2.5-2.5h-8.9c-1.1,2-1.6,4.2-1.6,6.4h12.6c0.3-0.4,0.5-0.9,0.5-1.5L81.5,216.6z
					"/>
				<path class="st16" d="M207.9,148.7l-25.7-39.9c-1.9-3-5.9-3.8-8.8-1.9c-0.6,0.4-1.1,0.8-1.5,1.3l-18.6,23
					c-2.2,2.7-1.8,6.7,0.9,9c0.5,0.4,1.1,0.8,1.8,1l44.3,16.9c3.3,1.3,7-0.4,8.2-3.7C209.2,152.5,209,150.4,207.9,148.7z"/>
				<path class="st16" d="M109.6,159.4H78.4c-3.6-0.1-7,1.6-9.1,4.5h7.8c2.8,0,5.1,1.9,5.1,4.3l0,0c0,2.4-2.3,4.3-5.1,4.3h-7.8
					c2.1,2.9,5.5,4.6,9.1,4.5h31.2c5.8,0,10.4-4,10.4-8.8l0,0C120.1,163.4,115.4,159.4,109.6,159.4z"/>
				<path class="st16" d="M132.3,141l-63.9,11.5c-2.1,0.4-4.2-1-4.6-3.2l0,0c-0.4-2.1,1.1-4.2,3.2-4.6l63.9-11.6
					c2.1-0.4,4.2,1.1,4.6,3.2l0,0C135.9,138.5,134.5,140.6,132.3,141z"/>
				<path class="st17" d="M116.7,154.9c3.5,0.5,5.9-3.5,7.7-5.9c2.6-3.3,4.2-7.2,4.6-11.4c0.1-1.4-0.2-2.9-0.2-4.3
					c0-0.5,0.7-4.7,0.6-4.6l5.4-3.9l2.8,25.6l-8.3,7.1C125.2,156.7,121,155.5,116.7,154.9z"/>
				<path class="st11" d="M128.7,65l-14.2,15c-2.8,2.9-2.7,7.6,0.3,10.4c0.3,0.3,0.6,0.5,1,0.8l0.1,0.1c3.4,2.3,7.9,1.3,10.2-2
					c0.2-0.3,0.4-0.7,0.6-1.1l8.5-18.9c0.9-2,0-4.3-2-5.1C131.6,63.5,129.9,63.8,128.7,65z"/>
				<path class="st17" d="M157.5,100.9l-10.9,2c-2.9,0.5-4.8,3.3-4.3,6.1c0.2,0.9,0.6,1.8,1.2,2.5l7.1,8.4c1.9,2.2,5.2,2.5,7.5,0.6
					c0.7-0.6,1.2-1.4,1.5-2.2l3.7-10.4c1-2.7-0.4-5.8-3.1-6.8C159.4,100.8,158.4,100.8,157.5,100.9z"/>
				<path class="st16" d="M168.1,127.7L168.1,127.7c-4.6-0.5-8.8,2.8-9.4,7.5c-0.2,1.5,0.1,3,0.7,4.4l0,0c1.9,4.3,6.9,6.2,11.2,4.4
					c1.3-0.6,2.5-1.5,3.4-2.7l0,0c2.8-3.8,2-9.1-1.8-11.8C171,128.4,169.6,127.8,168.1,127.7z"/>
				<path class="st17" d="M181.7,148.1l-11-1.4c-2.4-0.3-4.5,1.4-4.8,3.8c-0.1,0.8,0,1.5,0.3,2.2l4.3,10.2c0.9,2.2,3.5,3.2,5.7,2.3
					c0.7-0.3,1.3-0.8,1.8-1.4l6.7-8.8c1.5-1.9,1.1-4.6-0.8-6.1C183.2,148.5,182.5,148.2,181.7,148.1z"/>
				<path class="st17" d="M173.4,124.8h-11c-2.9,0-5.3,2.4-5.3,5.3c0,0.9,0.2,1.8,0.7,2.6l5.5,9.6c1.5,2.5,4.7,3.4,7.2,1.9
					c0.8-0.5,1.5-1.1,1.9-1.9l5.5-9.6c1.5-2.5,0.6-5.8-1.9-7.2C175.3,125.1,174.4,124.8,173.4,124.8z"/>
				<path class="st17" d="M188.3,172.1l-9.2-6.1c-1.6-1.1-3.8-0.7-4.8,0.9c-0.3,0.5-0.5,1.1-0.6,1.7l-0.7,11
					c-0.1,1.9,1.3,3.6,3.2,3.7c0.6,0,1.2-0.1,1.8-0.3l9.9-4.9c1.7-0.9,2.4-2.9,1.6-4.7C189.2,172.9,188.8,172.4,188.3,172.1z"/>
				<path class="st17" d="M190.9,187.5l-9.2-6.1c-1.3-0.9-3-0.5-3.8,0.8c-0.3,0.4-0.4,0.9-0.5,1.4l-0.7,11c-0.1,1.5,1,2.8,2.6,3
					c0.5,0,1-0.1,1.4-0.3l9.9-4.9c1.4-0.7,1.9-2.4,1.2-3.7C191.6,188.2,191.3,187.8,190.9,187.5z"/>
				<path class="st13" d="M124.2,209.5H95.1c-7.1,0-12.9-5.8-12.9-12.9l0,0c0-7.1,5.8-12.9,12.9-12.9h29.1c7.1,0,12.9,5.8,12.9,12.9
					l0,0C137.1,203.8,131.3,209.5,124.2,209.5z"/>
				<circle class="st13" cx="96.8" cy="199.8" r="16"/>
				<path class="st13" d="M128.4,213.1H84c-4.4,0.1-8.4,2.5-10.4,6.4h9.2c1.4,0,2.5,1.1,2.5,2.5v2c0,0.7-0.3,1.4-0.8,1.9h56
					C140.5,218.9,135.1,213.1,128.4,213.1z"/>
				<path class="st8" d="M85.3,224.1v-2c0-1.4-1.1-2.5-2.5-2.5h-9.2c-1.1,2-1.6,4.2-1.6,6.4h12.5C85,225.5,85.3,224.8,85.3,224.1z"
					/>
				<path class="st17" d="M124.2,154.1h17.5c20.6,0,37.2,16.7,37.2,37.2l0,0c0,20.6-16.7,37.2-37.2,37.2h-17.5
					c-20.6,0-37.2-16.7-37.2-37.2l0,0C87,170.8,103.7,154.1,124.2,154.1z"/>
				<path class="st13" d="M138.1,154.9h7.3c20.6,0,37.2,16.7,37.2,37.2l0,0c0,20.6-16.7,37.2-37.2,37.2h-7.3
					c-20.6,0-37.2-16.7-37.2-37.2l0,0C100.9,171.6,117.5,154.9,138.1,154.9z"/>
				<path class="st13" d="M117.6,161.1c0,0,23.3-9.9,14.2-32.3l3.4-37.2c0,0,48,52.5,46.9,106.6"/>
				<circle class="st13" cx="114.8" cy="111.8" r="29.6"/>
				<path class="st13" d="M97.9,111.5l16.3,0.7c4.3,0.2,7.6,3.8,7.4,8.1L121,131c-0.2,4.3-3.8,7.6-8.1,7.4l-16.3-0.7
					c-4.3-0.2-7.6-3.8-7.4-8.1l0.5-10.7C90,114.6,93.6,111.3,97.9,111.5z"/>
				<path class="st13" d="M100.3,137.9l-47.9-2.2l0,0c-8.6-27.2,10.5-43.9,39.3-30.5l9.9,2.9L100.3,137.9z"/>
				<circle class="st18" cx="104.7" cy="110.6" r="11.2"/>
				<path class="st15" d="M110.7,110.8c-0.2,3.3-3,5.9-6.3,5.7c-3.3-0.2-5.9-3-5.7-6.3c0.2-3.3,3-5.9,6.3-5.7
					C108.3,104.7,110.8,107.5,110.7,110.8C110.7,110.8,110.7,110.8,110.7,110.8z"/>
				<path class="st15" d="M58.2,115.2L58.2,115.2c-0.5-1.8,0.6-3.6,2.4-4.1l4-1c1.8-0.5,3.6,0.6,4.1,2.4l0,0
					c0.5,1.8-0.6,3.6-2.4,4.1l-4,1C60.5,118,58.6,116.9,58.2,115.2z"/>
				<path class="st16" d="M113.1,103.6l-20,8.7c-3.2,1.4-6.9-0.1-8.3-3.3l0,0c-1.4-3.2,0.1-6.9,3.3-8.3c0,0,0,0,0,0l20-8.7
					c3.2-1.4,6.9,0.1,8.3,3.3l0,0C117.8,98.4,116.3,102.2,113.1,103.6C113.1,103.6,113.1,103.6,113.1,103.6z"/>
				<path class="st8" d="M145.4,72.5l-23.3,17.7c-2.1,1.6-2.5,4.5-0.9,6.6c0.2,0.2,0.3,0.4,0.5,0.6l7.1,6.7c1.9,1.8,4.8,1.7,6.6-0.2
					c0.2-0.2,0.4-0.4,0.5-0.6l16.2-24.4c1.4-2.2,0.8-5.1-1.3-6.5C149.1,71.3,147,71.3,145.4,72.5z"/>
				<path class="st13" d="M94.8,175.2L94.8,175.2z"/>
				<path class="st13" d="M126.3,159.4H96.8c-3.4-0.1-6.7,1.6-8.6,4.5h7.4c2.5-0.1,4.7,1.8,4.9,4.3l0,0c-0.2,2.5-2.3,4.5-4.9,4.3
					h-7.4c1.9,2.9,5.1,4.5,8.6,4.5h29.5c5.4,0,9.9-4,9.9-8.8l0,0C136.2,163.4,131.8,159.4,126.3,159.4z"/>
				<path class="st13" d="M222.7,153.3l-24.2-37.6c-2.6-4-7.9-5.1-11.8-2.6c-0.8,0.5-1.4,1.1-2,1.8l-17.6,21.6
					c-3,3.7-2.4,9.1,1.3,12.1c0.7,0.6,1.5,1,2.3,1.3l41.7,16c4.4,1.7,9.4-0.5,11.1-4.9C224.5,158.5,224.2,155.6,222.7,153.3z"/>
				<circle class="st13" cx="132.7" cy="214.1" r="16"/>
				<path class="st13" d="M180.3,200.3c0-1.2,0.1-2.5,0.3-3.7h-22c-8.1,0-14.6,6.5-14.7,14.6c0,0,0,0,0,0l0,0
					c0,8.1,6.5,14.6,14.6,14.6c0,0,0,0,0,0h49.7C192.6,224.3,180.3,213.5,180.3,200.3z"/>
				<path class="st16" d="M167.5,231.2c0-7.1-5.4-12.9-12-12.9H111h-0.7c-4.2,0.3-7.9,2.8-9.8,6.6h10.2c1.4,0,2.5,1.1,2.5,2.5v2.9
					c0,0.3,0,0.6-0.1,0.8L167.5,231.2z"/>
				<path class="st11" d="M113.2,227.4c0-1.4-1.1-2.5-2.5-2.5h-10.2c-1,1.9-1.5,4.1-1.5,6.3h14.1c0.1-0.3,0.1-0.5,0.1-0.8
					L113.2,227.4z"/>
				<path class="st13" d="M229.6,185.9c-5.1,13.7-20.4,20.8-34.1,15.7c-5.6-2.1-10.4-6-13.5-11.2c-0.6,1.7-1.1,3.6-1.4,5.4
					c-0.2,1.2-0.3,2.5-0.3,3.8c0,13.3,9.9,24.6,23.1,26.3c1.1,0.1,2.3,0.2,3.4,0.2c14.7,0,26.5-11.9,26.5-26.5
					C233.4,194.8,232.1,190.1,229.6,185.9L229.6,185.9z"/>
				<path class="st13" d="M164.4,222.2h-44.5c-1,0-2,0.1-3,0.4c-3.2,0.9-5.8,3.1-7.4,6h9.3c1.4,0,2.5,1.1,2.5,2.5v3.1
					c0,0.3,0,0.6-0.1,0.8h55.2C176.4,228,171,222.2,164.4,222.2z"/>
				<path class="st8" d="M121.3,231.2c0-1.4-1.1-2.5-2.5-2.5h-9.3c-1.1,2-1.6,4.2-1.6,6.4h13.3c0.1-0.3,0.1-0.5,0.1-0.8V231.2z"/>
				<path class="st13" d="M131,198.1h29.1c7.1,0,12.9,5.8,12.9,12.9l0,0c0,7.1-5.8,12.9-12.9,12.9H131c-7.1,0-12.9-5.8-12.9-12.9
					l0,0C118.2,203.9,123.9,198.1,131,198.1z"/>
				<path class="st8" d="M117.5,183.1L117.5,183.1c-2.9,0-5.3-2.4-5.3-5.3v-17c0-2.9,2.4-5.3,5.3-5.3l0,0c2.9,0,5.3,2.4,5.3,5.3v17
					C122.8,180.8,120.4,183.1,117.5,183.1z"/>
				<path class="st19" d="M117.1,176c0,1.4-1.1,2.5-2.4,2.5c-1.4,0-2.5-1.1-2.5-2.4c0-1.4,1.1-2.5,2.4-2.5c0,0,0,0,0,0
					C116,173.6,117.1,174.6,117.1,176z"/>
				<path class="st19" d="M119.9,174.8c0,1.4-1.1,2.5-2.5,2.5s-2.5-1.1-2.5-2.5c0-1.4,1.1-2.5,2.5-2.5S119.9,173.4,119.9,174.8
					L119.9,174.8z"/>
				<path class="st19" d="M123,175.8c0,1.4-1.1,2.5-2.4,2.5c-1.4,0-2.5-1.1-2.5-2.4s1.1-2.5,2.4-2.5c0,0,0,0,0,0
					C121.9,173.4,123,174.5,123,175.8z"/>
				<path class="st19" d="M121.6,183.1c0.8-0.8,1.9-0.4,3.2,0.1s2.4,0.8,2.6,2c-0.4,0.4-0.8,0.6-1.3,0.8c0.1-0.1,0.2-0.1,0.2-0.2
					c-0.1-0.9-0.9-1.2-1.9-1.5s-1.8-0.6-2.4,0c0,0.1,0,0.2,0.1,0.3C121.9,184.1,121.7,183.6,121.6,183.1z"/>
				<path class="st16" d="M124.5,184.2c1,0.4,1.8,0.6,1.9,1.5c-0.1,0.1-0.2,0.1-0.2,0.2c-1.5,0.4-3.1-0.1-4-1.4
					c0-0.1-0.1-0.2-0.1-0.3C122.7,183.5,123.5,183.8,124.5,184.2z"/>
				<path class="st19" d="M114.2,183.1c-0.8-0.8-1.9-0.4-3.2,0.1s-2.4,0.8-2.6,2c0.4,0.4,0.8,0.6,1.3,0.8c-0.1-0.1-0.2-0.1-0.3-0.2
					c0.1-0.9,0.9-1.2,1.9-1.5s1.8-0.6,2.4,0c0,0.1,0,0.2-0.1,0.3C114,184.1,114.1,183.6,114.2,183.1z"/>
				<path class="st16" d="M111.3,184.2c-1,0.4-1.8,0.6-1.9,1.5c0.1,0.1,0.2,0.1,0.3,0.2c1.5,0.4,3.1-0.1,4-1.4
					c0-0.1,0.1-0.2,0.1-0.3C113.1,183.5,112.3,183.8,111.3,184.2z"/>
				<path class="st17" d="M119.8,191l2.8-6.3c0.9-2,0-4.2-2-5.1c-0.5-0.2-1-0.3-1.6-0.3h-2.4c-2.1,0-3.9,1.7-3.9,3.9
					c0,0.5,0.1,1.1,0.3,1.6l2.8,6.3c0.5,1.1,1.7,1.6,2.8,1.1C119.2,191.9,119.6,191.5,119.8,191z"/>
				<path class="st8" d="M116.5,180.1c0,1.9-1.6,3.5-3.5,3.5s-3.5-1.6-3.5-3.5c0-1.9,1.6-3.5,3.5-3.5l0,0
					C115,176.6,116.5,178.2,116.5,180.1z"/>
				<path class="st8" d="M126,180.1c0,1.9-1.6,3.5-3.5,3.5s-3.5-1.6-3.5-3.5c0-1.9,1.6-3.5,3.5-3.5l0,0
					C124.4,176.6,126,178.2,126,180.1z"/>
				<circle class="st8" cx="117.8" cy="179.3" r="3"/>
				<path class="st13" d="M117.5,189.3h0.8c0.4,0,0.7,0.3,0.7,0.7v0c0,0.4-0.3,0.7-0.7,0.7h-0.8c-0.4,0-0.7-0.3-0.7-0.7v0
					C116.8,189.6,117.2,189.3,117.5,189.3z"/>
				<path class="st15" d="M114.8,186.4c-0.1,0-0.2,0-0.2-0.1c-0.1-0.1-0.1-0.3,0-0.5c0,0,0,0,0,0l1.7-1.7c0.1-0.1,0.3-0.1,0.5,0
					c0,0,0,0,0,0c0.1,0.1,0.1,0.3,0,0.5l-1.7,1.7C115,186.3,114.9,186.4,114.8,186.4z"/>
				<path class="st15" d="M116.5,186.4c-0.1,0-0.2,0-0.2-0.1l-1.7-1.7c-0.1-0.1-0.1-0.3,0-0.5c0,0,0,0,0,0c0.1-0.1,0.3-0.1,0.5,0
					c0,0,0,0,0,0l1.7,1.7c0.1,0.1,0.1,0.3,0,0.5C116.7,186.3,116.6,186.4,116.5,186.4z"/>
				<path class="st15" d="M118.9,186.4c-0.1,0-0.2,0-0.2-0.1c-0.1-0.1-0.1-0.3,0-0.5c0,0,0,0,0,0l1.7-1.7c0.1-0.1,0.3-0.1,0.5,0
					c0,0,0,0,0,0c0.1,0.1,0.1,0.3,0,0.5l-1.7,1.7C119.1,186.3,119,186.4,118.9,186.4z"/>
				<path class="st15" d="M120.6,186.4c-0.1,0-0.2,0-0.2-0.1l-1.7-1.7c-0.1-0.1-0.1-0.3,0-0.5c0,0,0,0,0,0c0.1-0.1,0.3-0.1,0.5,0
					c0,0,0,0,0,0l1.7,1.7c0.1,0.1,0.1,0.3,0,0.5C120.8,186.3,120.7,186.4,120.6,186.4z"/>
				<path class="st8" d="M117.1,176.8c0,1.4-1.1,2.5-2.5,2.5s-2.5-1.1-2.5-2.5c0-1.4,1.1-2.5,2.5-2.5c0,0,0,0,0,0
					C116,174.4,117.1,175.5,117.1,176.8C117.1,176.8,117.1,176.8,117.1,176.8z"/>
				<path class="st8" d="M119.9,175.6c0,1.4-1.1,2.5-2.5,2.5s-2.5-1.1-2.5-2.5c0-1.4,1.1-2.5,2.5-2.5S119.9,174.3,119.9,175.6
					L119.9,175.6z"/>
				<path class="st8" d="M123,176.6c0,1.4-1.1,2.5-2.5,2.5s-2.5-1.1-2.5-2.5c0-1.4,1.1-2.5,2.5-2.5S123,175.3,123,176.6L123,176.6z"
					/>
				<path class="st17" d="M125.2,181c-0.8-1.2-2.3-1.5-3.5-0.9c-0.4,0.2-0.8,0.6-1,1c-0.1-1.3,0.6-2.5,1.7-3.2
					c1.7-1,3.8-0.4,4.9,1.2c1,1.6,0.5,3.6-1.1,4.6c0,0-0.1,0.1-0.1,0.1c-0.5,0.3-1.1,0.5-1.8,0.5C125.4,183.7,125.8,182.2,125.2,181
					C125.2,181.1,125.2,181,125.2,181z"/>
				<circle class="st8" cx="121.3" cy="180.7" r="0.8"/>
				<path class="st8" d="M122.4,179.5c0,0.6-0.5,1-1,0.9c-0.6,0-1-0.5-0.9-1c0-0.5,0.5-0.9,1-0.9C122,178.5,122.4,178.9,122.4,179.5
					C122.4,179.5,122.4,179.5,122.4,179.5z"/>
				<path class="st8" d="M123.2,178.2c0,0.6-0.5,1.2-1.2,1.2s-1.2-0.5-1.2-1.2c0-0.6,0.5-1.2,1.2-1.2l0,0
					C122.7,177.1,123.2,177.6,123.2,178.2C123.2,178.2,123.2,178.2,123.2,178.2z"/>
				<path class="st8" d="M121.8,179.8c0-0.6,0.4-1,1-1s1,0.4,1,1s-0.4,1-1,1S121.8,180.3,121.8,179.8z"/>
				<path class="st17" d="M109.9,181c0.8-1.2,2.3-1.5,3.5-0.9c0.4,0.2,0.8,0.6,1,1c0.1-1.3-0.6-2.5-1.7-3.2c-1.7-1-3.8-0.4-4.9,1.2
					c-1,1.6-0.5,3.6,1.1,4.6c0.1,0,0.1,0.1,0.2,0.1c0.5,0.3,1.1,0.5,1.8,0.5c-1.1-0.6-1.6-2.1-0.9-3.2
					C109.9,181.1,109.9,181,109.9,181z"/>
				<circle class="st8" cx="114.4" cy="180.7" r="0.8"/>
				<path class="st8" d="M113.3,179.5c0,0.6,0.5,1,1,0.9c0.6,0,1-0.5,0.9-1c0-0.5-0.5-0.9-1-0.9
					C113.7,178.5,113.3,178.9,113.3,179.5C113.3,179.5,113.3,179.5,113.3,179.5z"/>
				<path class="st8" d="M112.5,178.2c0,0.6,0.5,1.2,1.2,1.2c0.6,0,1.2-0.5,1.2-1.2c0-0.6-0.5-1.2-1.2-1.2c0,0,0,0,0,0
					C113,177.1,112.5,177.6,112.5,178.2C112.5,178.2,112.5,178.2,112.5,178.2z"/>
				<path class="st8" d="M113.9,179.8c0-0.6-0.4-1-1-1s-1,0.4-1,1s0.4,1,1,1S113.9,180.3,113.9,179.8z"/>
				<path class="st7" d="M158.2,231.9c-1,0-2-0.1-3-0.4c-0.8-0.3-1.3-1.2-1-2.1c0.3-0.8,1-1.2,1.8-1.1c0.1,0,3.9,1,6.6-1.1
					c2-1.5,2.9-4.3,2.9-8.4c0.1-0.9,0.9-1.6,1.7-1.5c0.8,0.1,1.4,0.7,1.5,1.5c0,5.1-1.4,8.8-4.2,10.9
					C162.8,231.3,160.5,232,158.2,231.9z"/>
				<rect x="152" y="247" class="st7" width="2.9" height="5.6"/>
				<rect x="145.8" y="247" class="st7" width="2.9" height="5.6"/>
				<path class="st18" d="M149.8,226.5L149.8,226.5c-3.9,0-7-3.1-7-7v-1.4c0-3.9,3.1-7,7-7h0c3.9,0,7,3.1,7,7v1.4
					C156.8,223.3,153.7,226.5,149.8,226.5z"/>
				<path class="st7" d="M145.4,242.5c0.9-0.1,1.5-0.8,1.4-1.7c-0.1-0.8-0.7-1.4-1.4-1.4c-1.2-0.1-2.4-0.6-3.2-1.5
					c-0.6-0.6-1-1.4-1-2.2c0-1.9,2.2-3.6,4.2-4.6c0.8-0.4,1-1.4,0.6-2.2c-0.4-0.7-1.2-1-2-0.7c-1.8,0.9-6,3.3-6,7.4
					c0,1.7,0.8,3.3,2,4.5C141.5,241.5,143.4,242.4,145.4,242.5z"/>
				<path class="st7" d="M150.2,260.8l0.2-0.2c0.1-0.1,0.3-0.2,0.5-0.3l1.1-0.3v-7.8c0-0.8,0.7-1.5,1.5-1.5s1.5,0.7,1.5,1.5v7.5
					c0.2,0.2,0.3,0.4,0.3,0.7v1c0,0.5-0.4,0.9-0.9,0.9c0,0,0,0,0,0h-3.5c-0.5,0.1-0.9-0.3-1-0.8C149.9,261.3,150,261,150.2,260.8z"
					/>
				<path class="st12" d="M154.9,253.7h-2.7c-0.2,0-0.3-0.1-0.3-0.3l0,0c0-0.2,0.1-0.3,0.3-0.3h2.6c0.2,0,0.3,0.1,0.3,0.3l0,0
					C155.1,253.6,155,253.7,154.9,253.7z"/>
				<path class="st12" d="M152.1,257.1L152.1,257.1c-0.1-0.1-0.2-0.3-0.1-0.5l2.4-3.1c0.1-0.1,0.3-0.2,0.5-0.1l0,0
					c0.1,0.1,0.2,0.3,0.1,0.4l-2.4,3.1C152.5,257.2,152.3,257.2,152.1,257.1C152.1,257.1,152.1,257.1,152.1,257.1z"/>
				<path class="st12" d="M154.9,257.1L154.9,257.1c0.1-0.1,0.2-0.3,0.1-0.4l-2.4-3.2c-0.1-0.1-0.3-0.2-0.4-0.1l0,0
					c-0.1,0.1-0.1,0.3,0,0.4c0,0,0,0,0,0l2.4,3.2C154.7,257.1,154.8,257.2,154.9,257.1z"/>
				<path class="st12" d="M152.1,260.3L152.1,260.3c-0.1-0.1-0.2-0.3-0.1-0.4c0,0,0,0,0,0l2.4-3.1c0.1-0.1,0.3-0.2,0.5-0.1l0,0
					c0.1,0.1,0.2,0.3,0.1,0.5l-2.4,3.1C152.5,260.4,152.3,260.4,152.1,260.3z"/>
				<path class="st12" d="M154.9,260.3L154.9,260.3c0.1-0.1,0.2-0.3,0.1-0.5l-2.4-3.1c-0.1-0.1-0.3-0.2-0.5-0.1l0,0
					c-0.1,0.1-0.2,0.3-0.1,0.4c0,0,0,0,0,0l2.4,3.1C154.6,260.4,154.8,260.4,154.9,260.3z"/>
				<path class="st12" d="M150.9,262.1L150.9,262.1c-0.1,0-0.3-0.1-0.3-0.3l0,0v-1.4c0-0.1,0.1-0.3,0.3-0.3l0,0
					c0.1,0,0.3,0.1,0.3,0.3v1.4C151.1,262,151,262.1,150.9,262.1z"/>
				<path class="st12" d="M151.9,262.1L151.9,262.1c-0.1,0-0.3-0.1-0.3-0.3l0,0v-1.6c0-0.1,0.1-0.3,0.3-0.3l0,0l0,0
					c0.1,0,0.3,0.1,0.3,0.3l0,0v1.6C152.2,262,152.1,262.1,151.9,262.1L151.9,262.1z"/>
				<path class="st12" d="M154.7,260.5h-2.5c-0.2,0-0.3-0.1-0.3-0.3l0,0l0,0c0-0.2,0.1-0.3,0.3-0.3h2.5c0.2,0,0.3,0.1,0.3,0.3l0,0
					C155,260.4,154.9,260.5,154.7,260.5L154.7,260.5z"/>
				<path class="st12" d="M150.2,262.4h5c0.1,0,0.3-0.1,0.3-0.3l0,0c0-0.1-0.1-0.3-0.3-0.3h-5c-0.1,0-0.3,0.1-0.3,0.3l0,0
					C150,262.2,150.1,262.4,150.2,262.4z"/>
				<path class="st7" d="M148.6,259.7v-7.5c0-0.8-0.7-1.5-1.5-1.5s-1.5,0.7-1.5,1.5v7.8l0,0l-1.1,0.2c-0.2,0-0.3,0.1-0.5,0.3
					l-0.2,0.2c-0.3,0.4-0.3,0.9,0,1.2c0.2,0.2,0.4,0.2,0.6,0.2h3.5c0.5,0,0.9-0.4,0.9-0.9c0,0,0,0,0,0v-1
					C148.9,260.1,148.8,259.9,148.6,259.7z"/>
				<path class="st12" d="M148.5,253.7h-2.6c-0.2,0-0.3-0.1-0.3-0.3l0,0c0-0.2,0.1-0.3,0.3-0.3h2.6c0.2,0,0.3,0.1,0.3,0.3l0,0
					C148.8,253.6,148.7,253.7,148.5,253.7z"/>
				<path class="st12" d="M145.8,257.1L145.8,257.1c-0.1-0.1-0.2-0.3-0.1-0.5l2.4-3.1c0.1-0.1,0.3-0.2,0.5-0.1l0,0
					c0.1,0.1,0.2,0.3,0.1,0.4c0,0,0,0,0,0l-2.4,3.1C146.2,257.2,146,257.2,145.8,257.1C145.8,257.1,145.8,257.1,145.8,257.1z"/>
				<path class="st12" d="M148.6,257.1L148.6,257.1c0.1-0.1,0.2-0.3,0.1-0.5l-2.4-3.1c-0.1-0.1-0.3-0.2-0.5-0.1l0,0
					c-0.1,0.1-0.2,0.3-0.1,0.4l2.4,3.1C148.2,257.2,148.4,257.2,148.6,257.1z"/>
				<path class="st12" d="M145.8,260.3L145.8,260.3c-0.1-0.1-0.2-0.3-0.1-0.5l2.4-3.1c0.1-0.1,0.3-0.2,0.5-0.1l0,0
					c0.1,0.1,0.2,0.3,0.1,0.4c0,0,0,0,0,0l-2.4,3.1C146.2,260.4,146,260.4,145.8,260.3z"/>
				<path class="st12" d="M148.6,260.3L148.6,260.3c0.1-0.1,0.2-0.3,0.1-0.4c0,0,0,0,0,0l-2.4-3.1c-0.1-0.1-0.3-0.2-0.5-0.1l0,0
					c-0.1,0.1-0.2,0.3-0.1,0.5l2.4,3.1C148.2,260.4,148.4,260.4,148.6,260.3z"/>
				<path class="st12" d="M144.6,262L144.6,262c-0.1,0-0.3-0.1-0.3-0.3l0,0v-1.4c0-0.1,0.1-0.3,0.3-0.3l0,0c0.1,0,0.3,0.1,0.3,0.3
					v1.4C144.8,261.9,144.7,262,144.6,262z"/>
				<path class="st12" d="M145.6,262L145.6,262c-0.1,0-0.3-0.1-0.3-0.3l0,0v-1.5c0-0.1,0.1-0.3,0.3-0.3l0,0l0,0
					c0.1,0,0.3,0.1,0.3,0.3v1.5C145.9,261.9,145.8,262,145.6,262C145.6,262,145.6,262,145.6,262z"/>
				<path class="st12" d="M148.4,260.5h-2.5c-0.2,0-0.3-0.1-0.3-0.3l0,0l0,0c0-0.2,0.1-0.3,0.3-0.3h2.5c0.2,0,0.3,0.1,0.3,0.3l0,0
					C148.7,260.4,148.6,260.5,148.4,260.5L148.4,260.5z"/>
				<path class="st12" d="M148.9,262.4h-5c-0.1,0-0.3-0.1-0.3-0.3l0,0c0-0.1,0.1-0.3,0.3-0.3h5c0.1,0,0.3,0.1,0.3,0.3l0,0l0,0
					C149.1,262.2,149,262.3,148.9,262.4z"/>
				<path class="st12" d="M148.8,262.4L148.8,262.4c0.2,0,0.3-0.1,0.3-0.3c0,0,0,0,0,0v-2c0-0.2-0.1-0.3-0.3-0.3c0,0,0,0,0,0l0,0
					c-0.2,0-0.3,0.1-0.3,0.3v2C148.5,262.2,148.6,262.4,148.8,262.4z"/>
				<path class="st12" d="M151.4,262.4L151.4,262.4c-0.2,0-0.3-0.1-0.3-0.3c0,0,0,0,0,0V260c0-0.2,0.1-0.3,0.3-0.3l0,0
					c0.2,0,0.3,0.1,0.3,0.3v2.1C151.7,262.2,151.6,262.4,151.4,262.4z"/>
				<rect x="147.6" y="224.6" class="st7" width="3.8" height="3.7"/>
				<path class="st20" d="M144.6,250.4c0,1,0.8,1.8,1.8,1.8s1.8-0.8,1.8-1.8s-0.8-1.8-1.8-1.8l0,0
					C145.4,248.6,144.6,249.4,144.6,250.4z"/>
				<path class="st20" d="M150.4,249.9c0.3,1,1.3,1.6,2.2,1.3c1-0.3,1.6-1.3,1.3-2.2c-0.2-0.8-0.9-1.4-1.8-1.4
					C151.1,247.7,150.3,248.8,150.4,249.9z"/>
				<path class="st7" d="M152.8,229.9c0-0.7,0.4-1.4,1.1-1.7c1.1,0.8,1.8,2.1,1.8,3.5c-0.3,0.1-0.6,0.2-0.9,0.2
					C153.7,231.8,152.8,230.9,152.8,229.9z"/>
				<path class="st20" d="M141,230c0,1.8,1.5,3.3,3.3,3.3c1.8,0,3.3-1.5,3.3-3.3c0-1.8-1.5-3.3-3.3-3.3c0,0,0,0,0,0
					C142.5,226.7,141,228.2,141,230C141,230,141,230,141,230z"/>
				<path class="st18" d="M145.9,227.8c0.1-0.1,0.3-0.2,0.4-0.2l0,0c0,0.1,0,0.3-0.1,0.4c0.1,1.1,0.9,1.9,2,1.9h2.5
					c1.1,0,1.9-0.8,2-1.9c0-0.2,0-0.3-0.1-0.5l0.2,0.1c0.3,0.1,0.6,0.3,0.9,0.6l0,0c-0.6,0.3-1,0.9-1.1,1.6c0,1,0.9,1.9,2,1.8
					c0,0,0,0,0,0c0.3,0,0.6-0.1,0.9-0.2c0,0,0,0.1,0,0.1v18h-12.1v-18C143.6,229.9,144.5,228.5,145.9,227.8z"/>
				<path class="st7" d="M150.8,230h-2.5c-1.1,0-2-0.8-2.1-1.9c0-0.2,0-0.3,0.1-0.5c0.4-0.2,0.9-0.4,1.4-0.5
					c0.4-0.1,0.9-0.2,1.3-0.1h1.1c0.9,0,1.8,0.2,2.6,0.6c0,0.2,0.1,0.3,0.1,0.5C152.8,229.1,151.9,230,150.8,230
					C150.8,230,150.8,230,150.8,230z"/>
				<path class="st20" d="M155.9,242.2h-12c-0.5,0-0.9-0.4-0.9-0.9l0,0c0-0.5,0.4-0.9,0.9-0.9h12c0.5,0,0.9,0.4,0.9,0.9l0,0
					C156.8,241.8,156.4,242.2,155.9,242.2z"/>
				<path class="st7" d="M149.9,226.4L149.9,226.4c3.3,0,6.1-2.7,6.1-6.1v-3.2c0-3.3-2.7-6.1-6.1-6.1l0,0c-3.3,0-6.1,2.7-6.1,6.1
					v3.2C143.8,223.6,146.5,226.3,149.9,226.4z"/>
				<path class="st20" d="M153.1,217.5h-2.9c-0.3,0-0.6-0.3-0.6-0.6l0,0c0-0.3,0.3-0.6,0.6-0.6h2.9c0.3,0,0.6,0.3,0.6,0.6l0,0
					C153.7,217.2,153.4,217.5,153.1,217.5z"/>
				<path class="st20" d="M143.8,217.5h2.8c0.3,0,0.6-0.3,0.6-0.6v0l0,0c0-0.3-0.3-0.6-0.6-0.6h-2.8c-0.3,0-0.6,0.3-0.6,0.6l0,0
					C143.2,217.2,143.4,217.5,143.8,217.5C143.8,217.5,143.8,217.5,143.8,217.5z"/>
				<path class="st18" d="M156.8,216.6c0-3.9-3.1-7-7-7l0,0c-3.9,0-7,3.1-7,7H156.8z"/>
				<path class="st20" d="M152.3,230c0,1.8,1.5,3.3,3.3,3.3s3.3-1.5,3.3-3.3s-1.5-3.3-3.3-3.3l0,0
					C153.8,226.7,152.3,228.2,152.3,230z"/>
				<path class="st9" d="M148.3,219.4c-0.4,0-0.7,0.3-0.7,0.7h1.4C149.1,219.8,148.7,219.4,148.3,219.4
					C148.3,219.4,148.3,219.4,148.3,219.4z"/>
				<path class="st15" d="M149.8,222c0.4,0,0.8,0.3,0.8,0.8c0,0.1,0,0.2-0.1,0.3h1.2c0-1.1-0.9-2.1-2-2.1c-0.7,0-1.4,0.4-1.8,1h0.2
					H149.8z"/>
				<path class="st21" d="M150.5,223c0-0.1,0-0.2,0.1-0.3c0-0.4-0.3-0.8-0.8-0.8H148h-0.2c-0.2,0.3-0.3,0.7-0.3,1.1L150.5,223z"/>
				<path class="st15" d="M145.7,218.6c0,0.3-0.2,0.5-0.5,0.5c0,0,0,0,0,0c-0.3,0-0.5-0.2-0.5-0.5c0,0,0,0,0,0
					c0-0.3,0.2-0.5,0.5-0.5C145.4,218.1,145.7,218.3,145.7,218.6C145.7,218.6,145.7,218.6,145.7,218.6z"/>
				<path class="st15" d="M152,218.6c0.1,0.3-0.1,0.6-0.4,0.6c-0.3,0.1-0.6-0.1-0.6-0.4c0-0.1,0-0.2,0-0.3c-0.1-0.3,0.1-0.6,0.4-0.6
					c0.3-0.1,0.6,0.1,0.6,0.4C152,218.4,152,218.5,152,218.6z"/>
				<path class="st10" d="M170.9,243.3L170.9,243.3c-0.6,0.1-1.2-0.3-1.3-0.9l-4.6-27c-0.1-0.6,0.3-1.2,0.9-1.3l0,0
					c0.6-0.1,1.2,0.3,1.3,0.9l4.6,27C171.9,242.7,171.5,243.2,170.9,243.3C170.9,243.3,170.9,243.3,170.9,243.3z"/>
				<path class="st17" d="M163.5,199.8h0.1c-1.1,1.5-0.8,3.6,0.7,4.7s3.6,0.8,4.7-0.7c0.1,0.4,0.3,0.8,0.3,1.2
					c0.6,3.3-1.2,6.4-3.8,6.9s-5.3-1.9-5.9-5.2S160.8,200.2,163.5,199.8z"/>
				<path class="st13" d="M162.8,206.1C162.8,206.1,162.8,206.1,162.8,206.1c0.2,1.5,1.6,2.5,3.1,2.3c0,0,0,0,0,0
					c0.2,0,0.5-0.1,0.7-0.2c0.1,1.2-0.6,2.3-1.7,2.6c-1.4,0.1-2.5-1-2.6-2.3C162.1,207.6,162.3,206.7,162.8,206.1z"/>
				<path class="st11" d="M163.5,199.8h0.1c-1.1,1.5-0.8,3.6,0.7,4.7s3.6,0.8,4.7-0.7c0.1,0.4,0.3,0.8,0.3,1.2
					c0.6,3.3-1.2,6.4-3.8,6.9s-5.3-1.9-5.9-5.2S160.8,200.2,163.5,199.8z"/>
				<path class="st7" d="M162.8,206.1C162.8,206.1,162.8,206.1,162.8,206.1c0.2,1.5,1.6,2.5,3.1,2.3c0,0,0,0,0,0
					c0.2,0,0.5-0.1,0.7-0.2c0.1,1.2-0.6,2.3-1.7,2.6c-1.4,0.1-2.5-1-2.6-2.3C162.1,207.6,162.3,206.7,162.8,206.1z"/>
				<path class="st7" d="M165.4,220.6h0.7c0.4,0,0.8-0.3,0.8-0.8l0,0c0-0.4-0.3-0.8-0.7-0.8c0,0,0,0,0,0h-0.7
					c-0.4,0-0.8,0.3-0.8,0.8l0,0C164.6,220.2,165,220.5,165.4,220.6z"/>
				<path class="st7" d="M151.4,233c-1.1,0-2.2-0.1-3.2-0.4c-0.9-0.3-1.3-1.2-1.1-2c0.2-0.8,1.1-1.3,1.9-1.1l0,0
					c0.1,0,4.3,1.1,7.3-1.2c2.1-1.6,3.2-4.7,3.2-9.1c0.1-0.9,0.9-1.6,1.7-1.5c0.8,0.1,1.4,0.7,1.5,1.5c0,5.5-1.5,9.4-4.5,11.7
					C156.2,232.3,153.8,233.1,151.4,233z"/>
				<rect x="144.7" y="249.4" class="st7" width="3.1" height="6"/>
				<rect x="138" y="249.4" class="st7" width="3.1" height="6"/>
				<path class="st18" d="M142.3,227.2L142.3,227.2c4.2,0,7.5-3.4,7.6-7.6v-1.5c0-4.2-3.4-7.5-7.6-7.6l0,0c-4.2,0-7.5,3.4-7.6,7.6
					v1.5C134.8,223.9,138.1,227.2,142.3,227.2z"/>
				<path class="st7" d="M137.6,244.5c0.9,0,1.7-0.8,1.7-1.7c0-0.9-0.8-1.7-1.7-1.7c0,0,0,0,0,0c-1.3-0.1-2.5-0.6-3.5-1.6
					c-0.7-0.6-1.1-1.5-1.1-2.4c0-2,2.4-3.9,4.6-4.9c0.8-0.5,1.1-1.5,0.7-2.3c-0.4-0.8-1.3-1.1-2.1-0.8c-1.9,0.9-6.4,3.6-6.5,8
					c0,1.8,0.8,3.6,2.1,4.8C133.3,243.5,135.4,244.4,137.6,244.5z"/>
				<path class="st7" d="M142.8,264.2l0.2-0.3c0.1-0.1,0.3-0.3,0.5-0.3l1.2-0.2v-8.4c0.1-0.9,0.8-1.5,1.7-1.5
					c0.8,0.1,1.4,0.7,1.5,1.5v8.1c0.2,0.2,0.4,0.5,0.4,0.8v1c0,0.5-0.4,0.9-0.9,1h-3.8c-0.5-0.1-0.9-0.6-0.8-1.1
					C142.6,264.4,142.7,264.3,142.8,264.2z"/>
				<path class="st12" d="M147.8,256.5h-2.9c-0.2,0-0.3-0.1-0.3-0.3l0,0c0-0.2,0.1-0.3,0.3-0.3h2.9c0.2,0,0.3,0.1,0.3,0.3l0,0l0,0
					C148.1,256.4,147.9,256.5,147.8,256.5C147.8,256.5,147.8,256.5,147.8,256.5z"/>
				<path class="st12" d="M144.9,260.2L144.9,260.2c-0.1-0.1-0.2-0.3-0.1-0.5l2.6-3.4c0.1-0.1,0.3-0.2,0.5-0.1l0,0
					c0.2,0.1,0.2,0.3,0.1,0.5l-2.6,3.4C145.2,260.3,145,260.3,144.9,260.2z"/>
				<path class="st12" d="M147.9,260.2L147.9,260.2c0.1-0.1,0.2-0.3,0.1-0.4c0,0,0,0,0,0l-2.6-3.4c-0.1-0.1-0.3-0.2-0.4-0.1
					c0,0,0,0,0,0l0,0c-0.1,0.1-0.2,0.3-0.1,0.4l2.6,3.4C147.5,260.3,147.7,260.3,147.9,260.2C147.8,260.2,147.8,260.2,147.9,260.2z"
					/>
				<path class="st12" d="M144.9,263.7L144.9,263.7c-0.1-0.1-0.2-0.3-0.1-0.5l2.6-3.4c0.1-0.1,0.3-0.2,0.5-0.1c0,0,0,0,0,0l0,0
					c0.2,0.1,0.2,0.3,0.1,0.5c0,0,0,0,0,0l-2.6,3.4C145.2,263.7,145,263.8,144.9,263.7C144.9,263.7,144.9,263.7,144.9,263.7z"/>
				<path class="st12" d="M147.8,263.7L147.8,263.7c0.2-0.1,0.2-0.3,0.1-0.5l-2.6-3.4c-0.1-0.2-0.3-0.2-0.5-0.1l0,0
					c-0.1,0.1-0.2,0.3-0.1,0.5l2.6,3.4C147.4,263.7,147.6,263.8,147.8,263.7C147.8,263.7,147.8,263.7,147.8,263.7z"/>
				<path class="st12" d="M143.5,265.6L143.5,265.6c-0.2,0-0.3-0.1-0.3-0.3v-1.5c0-0.2,0.1-0.3,0.3-0.3l0,0c0.2,0,0.3,0.1,0.3,0.3
					l0,0v1.5C143.8,265.5,143.7,265.6,143.5,265.6C143.5,265.6,143.5,265.6,143.5,265.6z"/>
				<path class="st12" d="M144.6,265.6L144.6,265.6c-0.1,0-0.3-0.1-0.3-0.3c0,0,0,0,0,0v-1.7c0-0.2,0.1-0.3,0.3-0.3l0,0
					c0.2,0,0.3,0.1,0.3,0.3v1.7C144.9,265.5,144.8,265.6,144.6,265.6C144.6,265.6,144.6,265.6,144.6,265.6z"/>
				<path class="st12" d="M147.6,263.9h-2.7c-0.2,0-0.3-0.1-0.3-0.3l0,0c0-0.2,0.1-0.3,0.3-0.3h2.7c0.2,0,0.3,0.1,0.3,0.3l0,0
					C147.9,263.7,147.8,263.9,147.6,263.9z"/>
				<path class="st12" d="M142.8,265.9h5.4c0.2,0,0.3-0.1,0.3-0.3l0,0l0,0c0-0.2-0.1-0.3-0.3-0.3l0,0h-5.4c-0.2,0-0.3,0.1-0.3,0.3
					l0,0l0,0C142.5,265.7,142.6,265.9,142.8,265.9L142.8,265.9z"/>
				<path class="st7" d="M141.1,263v-8.1c-0.1-0.9-0.8-1.5-1.7-1.5c-0.8,0.1-1.4,0.7-1.5,1.5v8.4l-1.2,0.2c-0.2,0-0.4,0.1-0.5,0.3
					l-0.2,0.3c-0.3,0.4-0.2,1.1,0.2,1.4c0.1,0.1,0.3,0.2,0.5,0.2h3.8c0.5,0,1-0.4,1-1v-1C141.5,263.5,141.3,263.2,141.1,263z"/>
				<path class="st12" d="M141,256.5h-2.9c-0.2,0-0.3-0.1-0.3-0.3c0,0,0,0,0,0l0,0c0-0.2,0.1-0.3,0.3-0.3l0,0h2.9
					c0.2,0,0.3,0.1,0.3,0.3l0,0C141.3,256.4,141.2,256.5,141,256.5z"/>
				<path class="st12" d="M138.1,260.2L138.1,260.2c-0.1-0.1-0.2-0.3-0.1-0.5l2.6-3.4c0.1-0.1,0.3-0.2,0.5-0.1l0,0
					c0.1,0.1,0.2,0.3,0.1,0.5l-2.6,3.4C138.4,260.3,138.2,260.3,138.1,260.2z"/>
				<path class="st12" d="M141,260.2L141,260.2c0.1-0.1,0.2-0.3,0.1-0.5l-2.6-3.4c-0.1-0.1-0.3-0.2-0.5-0.1l0,0
					c-0.1,0.1-0.2,0.3-0.1,0.5l2.6,3.4C140.6,260.3,140.8,260.3,141,260.2z"/>
				<path class="st12" d="M138.1,263.7L138.1,263.7c-0.1-0.1-0.2-0.3-0.1-0.5l2.6-3.4c0.1-0.2,0.3-0.2,0.5-0.1l0,0
					c0.1,0.1,0.2,0.3,0.1,0.5l-2.6,3.4C138.4,263.7,138.2,263.8,138.1,263.7C138.1,263.7,138.1,263.7,138.1,263.7z"/>
				<path class="st12" d="M141,263.7L141,263.7c0.1-0.1,0.2-0.3,0.1-0.5l-2.6-3.4c-0.1-0.2-0.3-0.2-0.5-0.1l0,0
					c-0.1,0.1-0.2,0.3-0.1,0.5l2.6,3.4C140.6,263.7,140.8,263.8,141,263.7C141,263.7,141,263.7,141,263.7z"/>
				<path class="st12" d="M136.7,265.5L136.7,265.5c-0.2,0-0.3-0.1-0.3-0.3v-1.5c0-0.2,0.1-0.3,0.3-0.3l0,0c0.2,0,0.3,0.1,0.3,0.3
					v1.5C137,265.3,136.8,265.5,136.7,265.5z"/>
				<path class="st12" d="M137.8,265.5L137.8,265.5c-0.2,0-0.3-0.1-0.3-0.3v-1.6c0-0.2,0.1-0.3,0.3-0.3c0,0,0,0,0,0l0,0
					c0.2,0,0.3,0.1,0.3,0.3c0,0,0,0,0,0v1.6C138.1,265.3,138,265.5,137.8,265.5z"/>
				<path class="st12" d="M140.8,263.9h-2.7c-0.2,0-0.3-0.1-0.3-0.3l0,0c0-0.2,0.1-0.3,0.3-0.3h2.7c0.2,0,0.3,0.1,0.3,0.3l0,0
					C141.1,263.7,141,263.9,140.8,263.9z"/>
				<path class="st12" d="M141.3,265.9h-5.4c-0.2,0-0.3-0.1-0.3-0.3l0,0c0-0.2,0.1-0.3,0.3-0.3h5.4c0.2,0,0.3,0.1,0.3,0.3l0,0l0,0
					C141.6,265.7,141.5,265.9,141.3,265.9L141.3,265.9z"/>
				<path class="st12" d="M141.3,265.9L141.3,265.9c0.2,0,0.3-0.1,0.3-0.3v-2.2c0-0.2-0.1-0.3-0.3-0.3l0,0c-0.2,0-0.3,0.1-0.3,0.3
					v2.2C140.9,265.7,141.1,265.9,141.3,265.9z"/>
				<path class="st12" d="M144,265.9L144,265.9c-0.2,0-0.3-0.1-0.3-0.3c0,0,0,0,0,0v-2.2c0-0.2,0.1-0.3,0.3-0.3h0l0,0
					c0.2,0,0.3,0.1,0.3,0.3v2.2C144.3,265.7,144.2,265.9,144,265.9z"/>
				<rect x="140" y="225.3" class="st7" width="4.1" height="4"/>
				<path class="st20" d="M136.7,253c0,1.1,0.8,1.9,1.9,1.9s1.9-0.8,1.9-1.9c0-1.1-0.8-1.9-1.9-1.9c0,0,0,0,0,0
					C137.5,251.1,136.7,251.9,136.7,253z"/>
				<path class="st20" d="M143,252.4c0.3,1.1,1.3,1.7,2.4,1.5c1.1-0.3,1.7-1.3,1.5-2.4c-0.2-0.9-1-1.5-2-1.5
					C143.7,250.1,142.9,251.2,143,252.4z"/>
				<path class="st7" d="M145.6,230.9c0-0.8,0.4-1.5,1.1-1.9c1.2,0.9,1.9,2.3,1.9,3.7c-0.3,0.2-0.7,0.2-1,0.2
					C146.5,233,145.6,232.1,145.6,230.9z"/>
				<path class="st20" d="M132.9,231c0,2,1.6,3.6,3.6,3.6s3.6-1.6,3.6-3.6c0-2-1.6-3.6-3.6-3.6l0,0C134.5,227.4,132.9,229,132.9,231
					z"/>
				<path class="st18" d="M138.1,228.6c0.1-0.1,0.3-0.2,0.5-0.2l0,0c0,0.1-0.1,0.3-0.1,0.4c0.1,1.1,1,2,2.2,2h2.7
					c1.2,0,2.1-0.9,2.2-2c0-0.2,0-0.3-0.1-0.5l0.2,0.1c0.4,0.2,0.7,0.4,1,0.6l0,0c-0.7,0.3-1.1,1-1.1,1.7c0,1.1,0.9,2,2,2
					c0,0,0,0,0.1,0c0.3,0,0.7-0.1,1-0.2V252h-13v-19.4C135.6,230.9,136.6,229.4,138.1,228.6z"/>
				<path class="st7" d="M143.4,231h-2.7c-1.2,0-2.2-1-2.2-2.2c0-0.2,0-0.3,0.1-0.5c0.5-0.2,1-0.4,1.5-0.5c0.5-0.1,0.9-0.2,1.4-0.2
					h1.2c1,0,1.9,0.2,2.8,0.6c0.1,0.2,0.1,0.4,0.1,0.6C145.6,230,144.6,231,143.4,231z"/>
				<path class="st20" d="M148.9,244.1H136c-0.6,0-1-0.4-1-1l0,0c0-0.6,0.4-1,1-1h12.9c0.6,0,1,0.4,1,1l0,0
					C149.9,243.7,149.5,244.1,148.9,244.1z"/>
				<path class="st7" d="M142.4,227.1L142.4,227.1c3.6,0,6.5-2.9,6.5-6.5v-3.4c0-3.6-2.9-6.5-6.5-6.5l0,0c-3.6,0-6.5,2.9-6.5,6.5
					v3.4C135.9,224.2,138.8,227.1,142.4,227.1z"/>
				<path class="st20" d="M145.7,217.5h-2.9c-0.3,0-0.6-0.3-0.6-0.6c0,0,0,0,0,0l0,0c0-0.3,0.3-0.6,0.6-0.6h2.9
					c0.3,0,0.6,0.3,0.6,0.6l0,0C146.3,217.2,146.1,217.5,145.7,217.5z"/>
				<path class="st20" d="M136.4,217.5h2.8c0.3,0,0.6-0.3,0.6-0.6v0l0,0c0-0.3-0.3-0.6-0.6-0.6h-2.8c-0.3,0-0.6,0.3-0.6,0.6l0,0
					C135.8,217.2,136.1,217.5,136.4,217.5L136.4,217.5z"/>
				<path class="st18" d="M149.9,216.6c0-4.2-3.4-7.6-7.6-7.6l0,0c-4.2,0-7.5,3.4-7.6,7.6H149.9z"/>
				<path class="st20" d="M145,231c0,2,1.6,3.6,3.6,3.6s3.6-1.6,3.6-3.6c0-2-1.6-3.6-3.6-3.6l0,0C146.6,227.4,145,229,145,231
					C145,231,145,231,145,231z"/>
				<path class="st9" d="M140.8,219.7c-0.4,0-0.8,0.3-0.8,0.8h1.5C141.5,220,141.2,219.7,140.8,219.7L140.8,219.7z"/>
				<path class="st15" d="M142.3,222.4c0.5,0,0.9,0.4,0.9,0.8v0c0,0.1,0,0.2-0.1,0.3h1.2c0-1.2-1-2.2-2.2-2.2
					c-0.8,0-1.5,0.4-1.9,1.1c0.1,0,0.1,0,0.2,0L142.3,222.4z"/>
				<path class="st21" d="M143.1,223.5c0-0.1,0.1-0.2,0.1-0.3c0-0.5-0.4-0.9-0.8-0.9h0h-1.9c-0.1,0-0.1,0-0.2,0
					c-0.2,0.3-0.3,0.7-0.3,1.1L143.1,223.5z"/>
				<circle class="st15" cx="137.7" cy="218.8" r="0.6"/>
				<path class="st15" d="M144.7,218.8c0,0.3-0.3,0.6-0.6,0.6s-0.6-0.3-0.6-0.6s0.3-0.6,0.6-0.6l0,0
					C144.4,218.2,144.7,218.5,144.7,218.8z"/>
				<path class="st10" d="M165.1,245.4L165.1,245.4c-0.6,0.1-1.3-0.3-1.4-1c0,0,0,0,0,0l-4.9-29.1c-0.1-0.6,0.3-1.3,1-1.4
					c0,0,0,0,0,0l0,0c0.6-0.1,1.3,0.3,1.4,1c0,0,0,0,0,0L166,244C166.1,244.6,165.7,245.3,165.1,245.4
					C165.1,245.4,165.1,245.4,165.1,245.4z"/>
				<path class="st17" d="M157.1,198.5h0.1c-1.2,1.6-0.8,3.9,0.8,5.1s3.9,0.8,5.1-0.8l0,0c0.2,0.4,0.3,0.9,0.4,1.3
					c0.6,3.6-1.2,6.9-4.1,7.4s-5.7-2-6.3-5.6S154.2,199,157.1,198.5z"/>
				<path class="st13" d="M156.3,205.3C156.3,205.3,156.3,205.3,156.3,205.3c0.3,1.6,1.8,2.7,3.4,2.5c0,0,0,0,0,0
					c0.2,0,0.5-0.1,0.7-0.2c0.1,1.3-0.6,2.4-1.9,2.8c-1.5,0.1-2.7-1-2.8-2.5C155.5,206.9,155.8,206,156.3,205.3z"/>
				<path class="st11" d="M157.1,198.5h0.1c-1.2,1.6-0.8,3.9,0.8,5.1s3.9,0.8,5.1-0.8l0,0c0.2,0.4,0.3,0.9,0.4,1.3
					c0.6,3.6-1.2,6.9-4.1,7.4s-5.7-2-6.3-5.6S154.2,199,157.1,198.5z"/>
				<path class="st7" d="M156.3,205.3C156.3,205.3,156.3,205.3,156.3,205.3c0.3,1.6,1.8,2.7,3.4,2.5c0,0,0,0,0,0
					c0.2,0,0.5-0.1,0.7-0.2c0.1,1.3-0.6,2.4-1.9,2.8c-1.5,0.1-2.7-1-2.8-2.5C155.5,206.9,155.8,206,156.3,205.3z"/>
				<path class="st7" d="M159.1,220.9h0.8c0.4,0,0.8-0.4,0.8-0.8l0,0c0-0.4-0.3-0.8-0.8-0.8c0,0,0,0,0,0h-0.8
					c-0.4,0-0.8,0.4-0.8,0.8l0,0C158.3,220.5,158.7,220.9,159.1,220.9z"/>
				<path class="st7" d="M162.3,221.2L162.3,221.2c0.5-0.1,0.8-0.5,0.7-1l-0.4-2.3c-0.1-0.5-0.5-0.8-1-0.7l0,0
					c-0.5,0.1-0.8,0.5-0.7,1l0.4,2.3C161.4,220.9,161.8,221.2,162.3,221.2z"/>
				<path class="st7" d="M168.4,221.2L168.4,221.2c0.5-0.1,0.8-0.5,0.7-1l-0.4-2.3c-0.1-0.5-0.5-0.8-1-0.7l0,0
					c-0.5,0.1-0.8,0.5-0.7,1l0.4,2.3C167.5,220.9,167.9,221.2,168.4,221.2z"/>
				<path class="st7" d="M89,244.2c-1-0.1-1.7-0.9-1.6-1.9c0.1-0.9,0.7-1.5,1.6-1.6c1.3-0.1,2.6-0.6,3.6-1.6
					c0.7-0.6,1.1-1.5,1.1-2.4c0-2.1-2.4-4-4.7-5.1c-0.8-0.5-1.1-1.5-0.6-2.4c0.4-0.8,1.3-1.1,2.1-0.8c2,0.9,6.6,3.6,6.6,8.1
					c0,1.9-0.8,3.6-2.1,4.9C93.4,243.2,91.3,244.2,89,244.2z"/>
				<path class="st7" d="M85.9,264.1v-15.9c0-0.8,0.7-1.5,1.5-1.5c0.8,0,1.5,0.7,1.5,1.5c0,0,0,0,0,0v16.2l1.1,0.2
					c0.2,0,0.3,0.1,0.5,0.3l0.2,0.2c0.3,0.4,0.3,0.9,0,1.2c-0.2,0.2-0.4,0.2-0.6,0.2h-3.5c-0.5,0-0.9-0.4-0.9-0.9v-1
					C85.6,264.5,85.7,264.3,85.9,264.1z"/>
				<path class="st7" d="M83.5,264.1v-15.9c0-0.8-0.7-1.5-1.5-1.5c-0.8,0-1.5,0.7-1.5,1.5c0,0,0,0,0,0v16.2l-1.1,0.2
					c-0.2,0-0.3,0.1-0.5,0.3l-0.2,0.2c-0.3,0.4-0.3,0.9,0,1.2c0.2,0.2,0.4,0.2,0.6,0.2h3.5c0.5,0,0.9-0.4,0.9-0.9v-1
					C83.8,264.5,83.7,264.3,83.5,264.1z"/>
				<path class="st7" d="M80.9,230.4c0-0.8-0.4-1.5-1.2-1.9c-1.2,0.9-1.9,2.3-2,3.8c0.3,0.2,0.7,0.2,1,0.2
					C79.9,232.5,80.9,231.6,80.9,230.4C80.9,230.4,80.9,230.4,80.9,230.4z"/>
				<path class="st7" d="M80.3,231.1c-1.7,1.6-3.8,2.4-6.1,2.4c-1.9,0-3.7-0.7-5-2c-3.1-3.2-1.8-8.4-1.1-10.4
					c0.3-0.9,1.3-1.4,2.2-1.1c0.9,0.3,1.4,1.3,1.1,2.2c-0.8,2.4-1.2,5.4,0.3,6.9c0.7,0.6,1.6,1,2.6,0.9c1.3,0,2.6-0.5,3.6-1.4
					c0.6-0.7,1.7-0.8,2.5-0.2s0.8,1.7,0.2,2.5C80.5,230.9,80.4,231,80.3,231.1L80.3,231.1z"/>
				<path class="st10" d="M70.4,205.9l0.3,0c0.6,0,1,0.5,1,1.1l-2.1,30.4c0,0.6-0.5,1-1.1,1l-0.3,0c-0.6,0-1-0.5-1-1.1l2.1-30.4
					C69.3,206.3,69.8,205.8,70.4,205.9z"/>
				<path class="st11" d="M71.9,189.9H72c-1.6,1.3-1.8,3.6-0.5,5.2c0.6,0.8,1.6,1.3,2.6,1.3c1,0.1,1.9-0.3,2.7-0.9
					c0,0.5,0,0.9,0,1.4c-0.2,3.7-2.9,6.6-5.9,6.4s-5.2-3.4-4.9-7.1S68.9,189.6,71.9,189.9z"/>
				<path class="st7" d="M69.5,196.4L69.5,196.4c-0.1,1.6,1.1,3.1,2.8,3.2c0.2,0,0.5,0,0.8,0c-0.2,1.3-1.2,2.3-2.5,2.3
					c-1.5-0.3-2.4-1.7-2.2-3.1C68.4,197.8,68.8,197,69.5,196.4z"/>
				<path class="st7" d="M71,224.5l-1.2-0.3c-0.3-0.1-0.5-0.4-0.4-0.7l0-0.2c0.1-0.3,0.4-0.5,0.7-0.4l1.2,0.3
					c0.3,0.1,0.5,0.4,0.4,0.7l0,0.2C71.7,224.4,71.3,224.6,71,224.5z"/>
				<path class="st7" d="M67.5,224.9L67.5,224.9c0.8,0.2,1.5-0.3,1.7-1.1l0.7-3.2c0.2-0.8-0.3-1.5-1.1-1.7l0,0
					c-0.8-0.2-1.5,0.3-1.7,1.1c0,0,0,0,0,0l-0.7,3.2C66.3,224,66.8,224.7,67.5,224.9z"/>
				<path class="st12" d="M78.1,245.4l-0.1-4.2c9.1-5.1,9.7-12,9.7-13.6l0.4,0.2c0.2,0.1,0.3,0.2,0.5,0.3c1.6,0.9,2.5,2.6,2.6,4.4
					l0.1,1.9c0.4,3.6,1.9,17.5,3.2,20.6c-1.5,0.6-3.3,0.4-4.7-0.4c0,0-3.1-0.7-4.9,0c0,0-2.4,1.2-5.2-1.1c-1.5-0.1-2.9,0.4-4,1.4
					C77,251.8,77.8,248.6,78.1,245.4z"/>
				<path class="st7" d="M77.8,232.4c0,0,0-0.1,0-0.1c0.3,0.2,0.7,0.2,1,0.2c1.2,0,2.2-0.9,2.2-2.1c0-0.8-0.4-1.6-1.2-1.9l0,0
					c0.3-0.3,0.6-0.5,1-0.6c0.9-0.5,2-0.7,3-0.7H85c0.5,0,1,0.1,1.5,0.2c0.4,0.1,0.8,0.2,1.1,0.4c0,1.6-0.6,8.5-9.7,13.6v-0.9
					l-0.1-0.7h0.1l-0.2-5.3L77.8,232.4z"/>
				<rect x="82.4" y="224.6" class="st7" width="4.2" height="4.1"/>
				<path class="st10" d="M88.5,210.1H80c-2.6,0-4.7,2.1-4.7,4.8l0,0c0,2.6,2.1,4.7,4.7,4.7h8.5c2.6,0,4.7-2.1,4.7-4.7l0,0
					C93.2,212.2,91.1,210.1,88.5,210.1z"/>
				<path class="st7" d="M93,219.3c0,0.9-0.7,1.6-1.6,1.6s-1.6-0.7-1.6-1.6s0.7-1.6,1.6-1.6l0,0C92.3,217.6,93,218.4,93,219.3z"/>
				<path class="st9" d="M92.4,219.3c0,0.6-0.4,1-1,1s-1-0.4-1-1s0.4-1,1-1S92.4,218.7,92.4,219.3z"/>
				<circle class="st7" cx="77.5" cy="219.3" r="1.6"/>
				<path class="st9" d="M78.5,219.3c0,0.6-0.4,1-1,1s-1-0.4-1-1s0.4-1,1-1S78.5,218.7,78.5,219.3z"/>
				<path class="st7" d="M84.5,226.5L84.5,226.5c-3.7,0-6.7-3-6.7-6.7v-3.5c0-3.7,3-6.7,6.7-6.7l0,0c3.7,0,6.7,3,6.7,6.7v3.5
					C91.2,223.5,88.2,226.5,84.5,226.5z"/>
				<path class="st10" d="M91.9,220.9c0,4.1-3.3,7.3-7.4,7.4l0,0c-4.1,0-7.3-3.3-7.3-7.4H91.9z"/>
				<path class="st15" d="M82.4,217.3L82.4,217.3c0.5,0,0.8,0.4,0.8,0.8v1c0,0.4-0.4,0.8-0.8,0.8h-0.1c-0.4,0-0.8-0.4-0.8-0.8v-1
					C81.6,217.6,81.9,217.3,82.4,217.3z"/>
				<path class="st15" d="M88,217.3L88,217.3c0.5,0,0.8,0.4,0.8,0.8v1c0,0.4-0.4,0.8-0.8,0.8H88c-0.4,0-0.8-0.4-0.8-0.8v-1
					C87.2,217.6,87.6,217.3,88,217.3z"/>
				<path class="st10" d="M89.3,216.7l-1.7,0.4c-0.3,0.1-0.6-0.1-0.7-0.4l0,0c-0.1-0.3,0.1-0.6,0.4-0.7l1.7-0.4
					c0.3-0.1,0.6,0.1,0.7,0.4l0,0C89.8,216.3,89.6,216.6,89.3,216.7C89.3,216.7,89.3,216.7,89.3,216.7z"/>
				<path class="st10" d="M81.2,216.7l1.7,0.4c0.3,0.1,0.6-0.1,0.7-0.5l0,0c0.1-0.3-0.1-0.6-0.5-0.7l-1.7-0.4
					c-0.3-0.1-0.6,0.1-0.7,0.4l0,0C80.7,216.3,80.9,216.7,81.2,216.7C81.2,216.7,81.2,216.7,81.2,216.7z"/>
				<path class="st7" d="M86.8,221.3c0.2,0,0.4,0.2,0.4,0.4c0,0,0,0.1,0,0.1c-0.3,0.9-1.3,1.4-2.2,1.1c-0.5-0.2-0.9-0.6-1.1-1.1
					c-0.1-0.2,0.1-0.5,0.3-0.5c0,0,0.1,0,0.1,0L86.8,221.3z"/>
				<path class="st9" d="M84.5,219.8c0.1-0.5,0.7-0.8,1.2-0.7c0.3,0.1,0.6,0.4,0.7,0.7H84.5z"/>
				<path class="st9" d="M85.3,222.6c0-0.1,0.1-0.2,0.2-0.2h0c0.1,0,0.2,0.1,0.2,0.2H85.3z"/>
				<path class="st9" d="M86.5,222.1C86.4,222.2,86.4,222.2,86.5,222.1c-0.6-0.3-1.3-0.3-1.9-0.1c-0.1,0.1-0.2,0-0.2,0
					c-0.1-0.1,0-0.2,0-0.2c0,0,0,0,0.1,0c0.7-0.2,1.4-0.2,2.1,0.2C86.6,221.9,86.6,222,86.5,222.1C86.5,222.1,86.5,222.1,86.5,222.1
					z"/>
			</g>
		</g>
	</g>
</g>
</svg>
