<?xml version="1.0" encoding="utf-8"?>
<!-- Generator: Adobe Illustrator 25.2.3, SVG Export Plug-In . SVG Version: 6.00 Build 0)  -->
<svg version="1.1" id="Layer_1" xmlns="http://www.w3.org/2000/svg" xmlns:xlink="http://www.w3.org/1999/xlink" x="0px" y="0px"
	 viewBox="0 0 234.2 379.8" style="enable-background:new 0 0 234.2 379.8;" xml:space="preserve">
<style type="text/css">
	.st0{fill:#F4B155;}
	.st1{fill:#FFF0CC;}
	.st2{fill:#231F20;}
	.st3{clip-path:url(#SVGID_2_);}
	.st4{fill:#A4F6FF;}
	.st5{fill:#FFFFFF;}
	.st6{fill:#3F282E;}
	.st7{fill:#54323A;}
	.st8{fill:#754854;}
	.st9{fill:#DB8356;}
	.st10{fill:#66424D;}
	.st11{fill:#FFD150;}
	.st12{fill:#E6E7E8;}
	.st13{fill:#E4705E;}
	.st14{fill:#414042;}
	.st15{fill:#F4B055;}
	.st16{fill:#4A355B;}
	.st17{fill:#DC4F64;}
	.st18{fill:#47372E;}
	.st19{fill:#FFD351;}
	.st20{fill:#DD4F65;}
	.st21{fill:#334572;}
	.st22{fill:#47C1C8;}
	.st23{fill:none;}
	.st24{fill:#FFC152;}
	.st25{fill:#F2C453;}
	.st26{fill:#EABC54;}
	.st27{fill:#F2C351;}
	.st28{fill:#F5B155;}
	.st29{fill:#E6705F;}
	.st30{fill:#AA334A;}
</style>
<g id="Layer_2_1_">
	<g id="Layer_1-2">
		<path class="st0" d="M234.2,14.4v351c0,7.9-6.7,14.4-14.9,14.4H14.9c-8.2,0-14.9-6.4-14.9-14.4v-351C0,6.5,6.7,0,14.9,0h204.3
			C227.5,0,234.2,6.5,234.2,14.4z M221.6,357.1V22.8c0-5.9-4.8-10.7-10.8-10.8H23.3c-5.9,0-10.7,4.8-10.8,10.8v334.3
			c0,5.9,4.8,10.8,10.8,10.8h187.5C216.8,367.8,221.6,363,221.6,357.1z"/>
		<path class="st1" d="M23.3,12h187.5c6,0,10.8,4.8,10.8,10.8v334.3c0,6-4.8,10.8-10.8,10.8H23.3c-6,0-10.8-4.8-10.8-10.8V22.8
			C12.6,16.8,17.4,12,23.3,12z"/>
		<path class="st2" d="M50.9,326c-0.8-0.2-1.5-0.4-2.1-0.9c-0.2-0.1-0.3-0.2-0.3-0.3c0-0.1,0-0.2,0.1-0.2l0.7-1
			c0.1-0.1,0.2-0.2,0.2-0.2c0.1,0,0.2,0,0.3,0.1c0.5,0.3,1.1,0.5,1.7,0.7c0.6,0.2,1.3,0.3,1.9,0.3c0.7,0,1.4-0.1,2-0.4
			c0.7-0.6,0.9-1.6,0.4-2.4c-0.2-0.3-0.4-0.5-0.7-0.6c-0.3-0.2-0.8-0.4-1.6-0.7l-0.5-0.2c-0.7-0.3-1.4-0.6-2.1-1
			c-0.5-0.3-1-0.7-1.4-1.2c-0.4-0.5-0.6-1.2-0.5-1.9c0-1.1,0.5-2.1,1.4-2.8c1.1-0.7,2.3-1,3.6-1c0.8,0,1.6,0.1,2.3,0.3
			c0.6,0.2,1.2,0.4,1.7,0.8c0.2,0.1,0.2,0.2,0.2,0.3c0,0.1,0,0.2-0.1,0.2l-0.6,1c-0.1,0.1-0.2,0.2-0.2,0.2c-0.1,0-0.2-0.1-0.2-0.1
			c-0.9-0.6-2-0.8-3.1-0.8c-0.6,0-1.3,0.1-1.8,0.5c-0.7,0.6-0.8,1.6-0.4,2.4c0.2,0.3,0.5,0.5,0.8,0.6c0.5,0.3,1.1,0.5,1.6,0.7
			l0.5,0.2c0.8,0.3,1.5,0.6,2.2,1c0.5,0.3,0.9,0.7,1.2,1.3c0.3,0.6,0.5,1.2,0.4,1.8c0,1-0.4,2-1.3,2.6c-1.1,0.7-2.3,1.1-3.6,1
			C52.7,326.3,51.8,326.2,50.9,326z"/>
		<path class="st2" d="M60.6,325.9c-0.1-0.1-0.2-0.3-0.2-0.5v-11.9c-0.1-0.3,0.2-0.7,0.5-0.7c0.1,0,0.2,0,0.2,0h1
			c0.2,0,0.4,0,0.6,0.2c0.1,0.2,0.2,0.3,0.2,0.5v11.9c0,0.2,0,0.4-0.2,0.5c-0.2,0.1-0.4,0.2-0.6,0.2h-1
			C60.9,326.1,60.7,326,60.6,325.9z"/>
		<path class="st2" d="M64.9,326c-0.1-0.1-0.1-0.1-0.1-0.2c0-0.1,0-0.2,0.1-0.3l4.7-6.3l-4.5-6c-0.1-0.1-0.1-0.2-0.1-0.3
			c0-0.1,0-0.1,0.1-0.2c0.1-0.1,0.1-0.1,0.2-0.1h1.8c0.1,0,0.2,0,0.3,0c0.1,0,0.1,0.1,0.2,0.2l3.3,4.4l3.4-4.4
			c0-0.1,0.1-0.1,0.2-0.2c0.1,0,0.2-0.1,0.3,0h1.8c0.1,0,0.2,0,0.2,0.1c0,0,0.1,0.1,0.1,0.2c0,0.1,0,0.2-0.1,0.3l-4.5,6l4.7,6.3
			c0.1,0.1,0.1,0.2,0.1,0.3c0,0.1,0,0.1-0.1,0.2c-0.1,0.1-0.1,0.1-0.2,0.1h-1.8c-0.1,0-0.2,0-0.3,0c-0.1,0-0.1-0.1-0.2-0.2l-3.6-4.8
			l-3.6,4.7c-0.1,0.1-0.1,0.1-0.2,0.2c-0.1,0-0.2,0-0.3,0h-1.8C65.1,326,65,326,64.9,326z"/>
		<path class="st2" d="M88.1,324.5c-2.3-3-2.3-7.2,0-10.3c2.9-2.4,7.1-2.4,9.9,0c2.3,3,2.3,7.2,0,10.3
			C95.2,326.9,91,326.9,88.1,324.5z M96.2,323.2c1.4-2.3,1.4-5.3,0-7.6c-1.7-1.7-4.5-1.7-6.3,0c-1.5,2.3-1.5,5.3,0,7.6
			C91.7,324.9,94.5,324.9,96.2,323.2C96.2,323.2,96.2,323.2,96.2,323.2z"/>
		<path class="st2" d="M101.9,325.9c-0.1-0.1-0.2-0.3-0.2-0.5v-11.9c-0.1-0.3,0.1-0.7,0.5-0.7c0.1,0,0.2,0,0.2,0h8.1
			c0.3-0.1,0.6,0.1,0.7,0.4c0,0.1,0,0.2,0,0.3v0.6c0,0.2,0,0.4-0.2,0.5c-0.1,0.1-0.3,0.2-0.5,0.2h-6.4v3.8h4.6c0.2,0,0.4,0,0.6,0.2
			c0.1,0.1,0.2,0.3,0.2,0.5v0.5c0,0.2,0,0.4-0.2,0.5c-0.2,0.1-0.4,0.2-0.6,0.2h-4.6v5c0,0.2,0,0.4-0.2,0.5c-0.2,0.1-0.4,0.2-0.6,0.2
			h-1C102.3,326.1,102,326,101.9,325.9z"/>
		<path class="st2" d="M123.4,325.9c-0.1-0.1-0.2-0.2-0.2-0.4l-3.1-12.4c0-0.1,0-0.1,0-0.2c0-0.2,0.1-0.3,0.4-0.3h1.5
			c0.1,0,0.3,0,0.4,0.1c0.1,0.1,0.1,0.2,0.2,0.3l2,8.6l2.3-7.6c0-0.1,0.1-0.2,0.2-0.3c0.1-0.1,0.2-0.1,0.4-0.1h0.9
			c0.1,0,0.3,0,0.4,0.1c0.1,0.1,0.2,0.2,0.2,0.3l2.4,7.6l1.9-8.6c0-0.1,0.1-0.2,0.2-0.3c0.1-0.1,0.3-0.1,0.4-0.1h1.6
			c0.2,0,0.4,0.1,0.4,0.3c0,0.1,0,0.1,0,0.2l-3.1,12.4c0,0.1-0.1,0.3-0.2,0.4c-0.1,0.1-0.3,0.1-0.4,0.1h-1.1c-0.3,0-0.6-0.2-0.6-0.5
			l-2.4-7.8l-2.3,7.8c0,0.3-0.3,0.5-0.7,0.5h-1.1C123.7,326.1,123.5,326,123.4,325.9z"/>
		<path class="st2" d="M135.2,325.8c0-0.1,0-0.2,0.1-0.2l5.2-12.2c0.1-0.2,0.1-0.3,0.2-0.4c0.1-0.1,0.3-0.1,0.4-0.1h1.1
			c0.1,0,0.3,0,0.4,0.1c0.1,0.1,0.2,0.2,0.2,0.4l5.2,12.2c0,0.1,0,0.2,0,0.2c0,0.2-0.1,0.3-0.3,0.3H146c-0.1,0-0.2,0-0.4-0.1
			c-0.1-0.1-0.2-0.2-0.2-0.3l-1.1-2.7h-5.4l-1.1,2.7c0,0.1-0.1,0.2-0.2,0.3c-0.1,0.1-0.2,0.1-0.4,0.1h-1.7
			C135.3,326,135.2,326,135.2,325.8z M143.7,321.1l-2.1-5.1l-2.1,5.1L143.7,321.1z"/>
		<path class="st2" d="M150.1,325.9c-0.1-0.1-0.2-0.3-0.2-0.5v-11.9c0-0.2,0-0.4,0.2-0.5c0.2-0.1,0.4-0.2,0.6-0.2h0.9
			c0.1,0,0.3,0,0.4,0.1c0.1,0.1,0.2,0.2,0.3,0.3l6.5,9v-8.6c0-0.2,0-0.4,0.2-0.5c0.2-0.1,0.4-0.2,0.6-0.2h1c0.2,0,0.4,0,0.6,0.2
			c0.1,0.2,0.2,0.4,0.2,0.5v11.9c0,0.2,0,0.4-0.2,0.5c-0.2,0.1-0.4,0.2-0.6,0.2h-0.9c-0.1,0-0.3,0-0.4-0.1c-0.1-0.1-0.2-0.2-0.3-0.3
			l-6.5-8.9v8.6c0,0.2,0,0.4-0.2,0.5c-0.2,0.1-0.4,0.2-0.6,0.2h-1C150.5,326.1,150.3,326,150.1,325.9z"/>
		<path class="st2" d="M163.8,325.9c-0.1-0.1-0.2-0.3-0.2-0.5v-11.9c-0.1-0.3,0.2-0.7,0.5-0.7c0.1,0,0.2,0,0.2,0h3.9
			c1.8-0.1,3.6,0.4,5.1,1.6c1.2,1.1,1.8,2.8,1.8,5.1c0,4.4-2.3,6.7-6.8,6.7h-3.9C164.1,326.1,163.9,326,163.8,325.9z M168.4,324.1
			c1.1,0.1,2.3-0.3,3.1-1.1c1.4-2.3,1.4-5.1,0-7.4c-0.9-0.8-2-1.1-3.1-1.1h-2.3v9.5H168.4z"/>
		<path class="st2" d="M178.1,326c-0.8-0.2-1.5-0.4-2.1-0.9c-0.2-0.1-0.2-0.2-0.2-0.3c0-0.1,0-0.2,0.1-0.2l0.6-1
			c0.1-0.1,0.1-0.2,0.2-0.2c0.1,0,0.2,0,0.2,0.1c0.5,0.3,1.1,0.5,1.7,0.7c0.6,0.2,1.3,0.3,1.9,0.3c0.7,0,1.4-0.1,2-0.4
			c0.5-0.3,0.7-0.9,0.7-1.4c0-0.3-0.1-0.7-0.2-0.9c-0.2-0.3-0.5-0.5-0.7-0.6c-0.3-0.2-0.9-0.4-1.6-0.7l-0.4-0.2
			c-0.7-0.3-1.4-0.6-2.1-1c-0.5-0.3-1-0.7-1.4-1.2c-0.4-0.5-0.6-1.2-0.6-1.9c0-1.1,0.5-2.1,1.4-2.8c1.1-0.7,2.3-1,3.6-1
			c0.8,0,1.6,0.1,2.3,0.3c0.6,0.1,1.2,0.4,1.7,0.8c0.2,0.1,0.2,0.2,0.2,0.3c0,0.1,0,0.2-0.1,0.2l-0.6,1c-0.1,0.1-0.1,0.2-0.2,0.2
			c-0.1,0-0.2-0.1-0.3-0.1c-0.9-0.6-2-0.8-3.1-0.8c-0.7,0-1.3,0.1-1.9,0.5c-0.4,0.3-0.7,0.9-0.6,1.4c0,0.4,0.1,0.7,0.3,1
			c0.2,0.3,0.5,0.5,0.8,0.6c0.5,0.3,1.1,0.5,1.6,0.7l0.5,0.2c0.8,0.3,1.5,0.7,2.2,1.1c0.5,0.3,0.9,0.7,1.2,1.2
			c0.3,0.6,0.5,1.2,0.4,1.8c0,1-0.4,2-1.3,2.6c-1.1,0.7-2.3,1.1-3.6,1C179.9,326.3,179,326.2,178.1,326z"/>
		<g>
			<defs>
				<path id="SVGID_1_" d="M52.8,43.9h128.5c13.6,0,24.7,11.1,24.7,24.7v191.6c0,13.6-11.1,24.7-24.7,24.7H52.8
					c-13.6,0-24.7-11.1-24.7-24.7V68.6C28.1,54.9,39.2,43.9,52.8,43.9z"/>
			</defs>
			<clipPath id="SVGID_2_">
				<use xlink:href="#SVGID_1_"  style="overflow:visible;"/>
			</clipPath>
			<g class="st3">
				<rect x="24.9" y="28.8" class="st4" width="181.2" height="142.1"/>
				<path class="st5" d="M157.4,93.8h68c4.9,0,8.8-3.9,8.8-8.8l0,0c0-4.8-3.9-8.8-8.8-8.8h-68c-4.8,0-8.8,3.9-8.8,8.8l0,0
					C148.6,89.8,152.6,93.8,157.4,93.8z"/>
				<circle class="st5" cx="200.1" cy="72" r="21.8"/>
				<circle class="st5" cx="176.1" cy="78.2" r="15.6"/>
				<path class="st6" d="M116.8,87.8l14.8-10.6c2.7-1.9,6.2-2.3,9.1-0.8L180.5,95l34.3-26.5v38.2H17.7v-41l37.2,17L116.8,87.8z"/>
				<path class="st5" d="M59,91.6H6.1c-3.8,0-6.8-3.1-6.8-6.8l0,0c0-3.8,3.1-6.8,6.8-6.8H59c3.8,0,6.8,3.1,6.8,6.8l0,0
					C65.8,88.5,62.8,91.6,59,91.6z"/>
				<circle class="st5" cx="25.8" cy="74.6" r="17"/>
				<circle class="st5" cx="44.5" cy="79.5" r="12.1"/>
				<path class="st7" d="M-21.5,111.3L72,67.7c4.9-3,11-3.2,16-0.3l51.5,29.4l31.9-18c3.1-1.8,6.8-2.1,10.2-1l74.8,24.8l2.2,41.6
					l-278.3,69.7L-21.5,111.3z"/>
				<polygon class="st8" points="206.1,150 20.3,199.3 23.3,284.9 206.1,284.9 				"/>
				<path class="st9" d="M102.5,275.4H154c2.2,0,3.9,1.8,3.9,3.9v0c0,2.2-1.8,3.9-3.9,3.9h-51.5c-2.2,0-3.9-1.8-3.9-3.9v0
					C98.6,277.2,100.4,275.4,102.5,275.4z"/>
				<polygon class="st10" points="148.3,176.5 117.1,259.2 221.6,274.3 208.9,175.7 				"/>
				<path class="st11" d="M172.8,149.3c-1.1,0-2.2-0.1-3.3-0.4c-0.9-0.3-1.5-1.2-1.3-2.2c0.3-0.9,1.2-1.5,2.2-1.3
					c0,0,4.3,1.1,7.2-1.2c2.1-1.6,3.2-4.7,3.2-9.1c0-1,0.8-1.8,1.8-1.8c1,0,1.8,0.8,1.8,1.8c0,5.6-1.6,9.6-4.6,12
					C177.8,148.6,175.3,149.4,172.8,149.3z"/>
				<rect x="166.1" y="165.9" class="st11" width="3.2" height="6.1"/>
				<rect x="159.2" y="165.9" class="st11" width="3.1" height="6.1"/>
				<path class="st12" d="M163.6,143.4L163.6,143.4c4.2,0,7.6-3.4,7.7-7.7v-1.5c0-4.2-3.4-7.6-7.7-7.7l0,0c-4.2,0-7.7,3.4-7.7,7.7
					v1.5C156,140,159.4,143.4,163.6,143.4z"/>
				<path class="st11" d="M158.9,160.9c0.9,0,1.7-0.8,1.7-1.7s-0.8-1.7-1.7-1.7c-1.3-0.1-2.6-0.6-3.5-1.6c-0.7-0.6-1.1-1.5-1.1-2.4
					c0-2.1,2.4-4,4.6-5c0.8-0.4,1.2-1.5,0.8-2.3c-0.4-0.8-1.4-1.2-2.3-0.8c-2,0.9-6.5,3.6-6.6,8.1c0,1.8,0.8,3.6,2.1,4.9
					C154.5,159.9,156.6,160.8,158.9,160.9z"/>
				<path class="st11" d="M164.1,180.9l0.2-0.3c0.1-0.1,0.3-0.2,0.5-0.3l1.2-0.3v-8.5c-0.1-0.9,0.6-1.7,1.5-1.7s1.7,0.6,1.7,1.5
					c0,0.1,0,0.2,0,0.3v8.2c0.2,0.2,0.4,0.5,0.4,0.8v1.1c0,0.6-0.4,1-1,1h-3.9c-0.5-0.1-0.9-0.5-0.9-1.1
					C163.9,181.2,163.9,181,164.1,180.9z"/>
				<path class="st13" d="M169.1,173.1h-2.9c-0.2,0-0.3-0.1-0.3-0.3l0,0c0-0.2,0.1-0.3,0.3-0.3h2.9c0.2,0,0.3,0.1,0.3,0.3l0,0
					C169.4,173,169.3,173.1,169.1,173.1z"/>
				<path class="st13" d="M166.2,176.8L166.2,176.8c-0.1-0.1-0.2-0.3-0.1-0.5l2.6-3.4c0.1-0.2,0.3-0.2,0.5-0.1l0,0
					c0.2,0.1,0.2,0.3,0.1,0.5l-2.6,3.4C166.6,176.9,166.3,177,166.2,176.8z"/>
				<path class="st13" d="M169.2,176.8L169.2,176.8c0.1-0.1,0.2-0.3,0.1-0.4l-2.6-3.5c-0.1-0.1-0.3-0.2-0.4-0.1l0,0
					c-0.1,0.1-0.2,0.3-0.1,0.4l2.6,3.5C168.9,176.9,169.1,176.9,169.2,176.8C169.2,176.8,169.2,176.8,169.2,176.8z"/>
				<path class="st13" d="M166.2,180.3L166.2,180.3c-0.1-0.1-0.2-0.3-0.1-0.5l2.6-3.4c0.1-0.2,0.3-0.2,0.5-0.1c0,0,0,0,0,0l0,0
					c0.2,0.1,0.2,0.3,0.1,0.5l-2.6,3.4C166.6,180.4,166.3,180.5,166.2,180.3C166.2,180.3,166.2,180.3,166.2,180.3z"/>
				<path class="st13" d="M169.2,180.3L169.2,180.3c0.2-0.1,0.2-0.3,0.1-0.5l-2.6-3.4c-0.1-0.2-0.3-0.2-0.5-0.1c0,0,0,0,0,0l0,0
					c-0.1,0.1-0.2,0.3-0.1,0.5l2.6,3.4C168.8,180.4,169,180.5,169.2,180.3C169.2,180.3,169.2,180.3,169.2,180.3z"/>
				<path class="st13" d="M164.8,182.3L164.8,182.3c-0.2,0-0.3-0.1-0.3-0.3v-1.5c0-0.2,0.1-0.3,0.3-0.3l0,0c0.2,0,0.3,0.1,0.3,0.3
					v1.5C165.1,182.2,165,182.3,164.8,182.3C164.8,182.3,164.8,182.3,164.8,182.3z"/>
				<path class="st13" d="M165.9,182.3L165.9,182.3c-0.2,0-0.3-0.1-0.3-0.3v-1.7c0-0.2,0.1-0.3,0.3-0.3l0,0c0.2,0,0.3,0.1,0.3,0.3
					v1.7C166.2,182.2,166.1,182.3,165.9,182.3C165.9,182.3,165.9,182.3,165.9,182.3z"/>
				<path class="st13" d="M169,180.6h-2.8c-0.2,0-0.3-0.1-0.3-0.3l0,0c0-0.2,0.1-0.3,0.3-0.3h2.8c0.2,0,0.3,0.1,0.3,0.3v0l0,0
					C169.3,180.4,169.2,180.6,169,180.6C169,180.6,169,180.6,169,180.6z"/>
				<path class="st13" d="M164.1,182.6h5.5c0.2,0,0.3-0.1,0.3-0.3l0,0c0-0.2-0.1-0.3-0.3-0.3h-5.5c-0.2,0-0.3,0.1-0.3,0.3l0,0
					C163.8,182.4,163.9,182.6,164.1,182.6z"/>
				<path class="st11" d="M162.4,179.7v-8.2c0.1-0.9-0.6-1.7-1.5-1.7s-1.7,0.6-1.7,1.5c0,0.1,0,0.2,0,0.3v8.5l-1.2,0.3
					c-0.2,0-0.4,0.1-0.5,0.3l-0.2,0.3c-0.3,0.4-0.3,1.1,0.2,1.4c0.2,0.1,0.4,0.2,0.6,0.2h3.9c0.6,0,1-0.4,1-1v-1.1
					C162.7,180.1,162.6,179.9,162.4,179.7z"/>
				<path class="st13" d="M162.2,173.1h-2.9c-0.2,0-0.3-0.1-0.3-0.3l0,0c0-0.2,0.1-0.3,0.3-0.3h2.9c0.2,0,0.3,0.1,0.3,0.3l0,0
					C162.5,173,162.4,173.1,162.2,173.1z"/>
				<path class="st13" d="M159.3,176.8L159.3,176.8c-0.2-0.1-0.2-0.3-0.1-0.5l2.6-3.4c0.1-0.2,0.3-0.2,0.5-0.1l0,0
					c0.1,0.1,0.2,0.3,0.1,0.5l-2.6,3.4C159.7,176.9,159.4,177,159.3,176.8z"/>
				<path class="st13" d="M162.3,176.8L162.3,176.8c0.1-0.1,0.2-0.3,0.1-0.5l-2.6-3.4c-0.1-0.2-0.3-0.2-0.5-0.1l0,0
					c-0.2,0.1-0.2,0.3-0.1,0.5l2.6,3.4C161.9,176.9,162.1,177,162.3,176.8z"/>
				<path class="st13" d="M159.3,180.3L159.3,180.3c-0.2-0.1-0.2-0.3-0.1-0.5l2.6-3.4c0.1-0.2,0.3-0.2,0.5-0.1c0,0,0,0,0,0l0,0
					c0.1,0.1,0.2,0.3,0.1,0.5l-2.6,3.4C159.7,180.4,159.4,180.5,159.3,180.3C159.3,180.3,159.3,180.3,159.3,180.3z"/>
				<path class="st13" d="M162.3,180.3L162.3,180.3c0.1-0.1,0.2-0.3,0.1-0.5l-2.6-3.4c-0.1-0.2-0.3-0.2-0.5-0.1c0,0,0,0,0,0l0,0
					c-0.2,0.1-0.2,0.3-0.1,0.5l2.6,3.4C161.9,180.4,162.1,180.5,162.3,180.3C162.3,180.3,162.3,180.3,162.3,180.3z"/>
				<path class="st13" d="M157.9,182.1L157.9,182.1c-0.2,0-0.3-0.1-0.3-0.3v-1.5c0-0.2,0.1-0.3,0.3-0.3l0,0c0.2,0,0.3,0.1,0.3,0.3
					c0,0,0,0,0,0v1.5C158.2,182,158.1,182.1,157.9,182.1C157.9,182.1,157.9,182.1,157.9,182.1z"/>
				<path class="st13" d="M159,182.1L159,182.1c-0.2,0-0.3-0.1-0.3-0.3v-1.6c0-0.2,0.1-0.3,0.3-0.3l0,0c0.2,0,0.3,0.1,0.3,0.3v1.6
					C159.3,182,159.2,182.1,159,182.1z"/>
				<path class="st13" d="M162.1,180.6h-2.8c-0.2,0-0.3-0.1-0.3-0.3l0,0c0-0.2,0.1-0.3,0.3-0.3h2.8c0.2,0,0.3,0.1,0.3,0.3l0,0
					C162.4,180.4,162.3,180.6,162.1,180.6z"/>
				<path class="st13" d="M162.6,182.6h-5.5c-0.2,0-0.3-0.1-0.3-0.3l0,0c0-0.2,0.1-0.3,0.3-0.3h5.5c0.2,0,0.3,0.1,0.3,0.3l0,0
					C162.9,182.4,162.8,182.6,162.6,182.6z"/>
				<path class="st13" d="M162.5,182.6L162.5,182.6c0.2,0,0.3-0.2,0.3-0.3V180c0-0.2-0.1-0.3-0.3-0.3l0,0l0,0
					c-0.2,0-0.3,0.1-0.3,0.3l0,0v2.2C162.2,182.4,162.3,182.6,162.5,182.6C162.5,182.6,162.5,182.6,162.5,182.6z"/>
				<path class="st13" d="M165.4,182.6L165.4,182.6c-0.2,0-0.3-0.1-0.3-0.3l0,0V180c0-0.2,0.1-0.3,0.3-0.3l0,0l0,0
					c0.2,0,0.3,0.1,0.3,0.3v2.2C165.7,182.4,165.5,182.6,165.4,182.6z"/>
				<rect x="161.3" y="141.4" class="st11" width="4.2" height="4"/>
				<circle class="st14" cx="159.9" cy="169.5" r="1.9"/>
				<path class="st14" d="M164.3,169c0.3,1.1,1.4,1.7,2.5,1.4s1.7-1.4,1.4-2.5c-0.2-0.9-1-1.5-1.9-1.5
					C165,166.7,164.1,167.8,164.3,169z"/>
				<path class="st11" d="M166.9,147.1c0-0.8,0.4-1.5,1.1-1.9c1.2,0.9,1.9,2.3,2,3.8c-0.3,0.2-0.7,0.3-1,0.2
					C167.9,149.3,166.9,148.3,166.9,147.1C166.9,147.1,166.9,147.1,166.9,147.1z"/>
				<circle class="st14" cx="157.6" cy="147.2" r="3.6"/>
				<path class="st5" d="M159.3,144.8c0.2-0.1,0.3-0.2,0.5-0.2l0,0c-0.3,1.1,0.4,2.2,1.5,2.4c0.2,0.1,0.5,0.1,0.7,0h2.7
					c1.2,0,2.2-0.9,2.2-2.1c0-0.2,0-0.3-0.1-0.5l0.2,0.1c0.4,0.2,0.7,0.4,1,0.6l0,0c-0.7,0.3-1.1,1-1.1,1.8c0,1.1,1,2,2.1,2
					c0,0,0,0,0,0c0.3,0,0.7-0.1,1-0.2c0,0,0,0.1,0,0.1v19.7h-13.2v-19.7C156.9,147.1,157.8,145.6,159.3,144.8z"/>
				<path class="st11" d="M164.7,147.2H162c-1.2,0-2.2-1-2.2-2.2c0-0.2,0-0.3,0.1-0.5c0.5-0.2,1-0.4,1.5-0.5c0.5-0.1,1-0.2,1.4-0.2
					h1.2c1,0,1.9,0.2,2.8,0.6c0.1,0.2,0.1,0.4,0.1,0.6C166.9,146.2,165.9,147.2,164.7,147.2z"/>
				<path class="st14" d="M170.3,160.5h-13.1c-0.6,0-1-0.4-1-1l0,0c0-0.6,0.4-1,1-1h13.1c0.6,0,1,0.4,1,1l0,0
					C171.3,160.1,170.8,160.5,170.3,160.5z"/>
				<path class="st11" d="M163.7,143.3L163.7,143.3c3.7,0,6.6-3,6.6-6.6v-3.4c0-3.7-3-6.6-6.6-6.6l0,0c-3.7,0-6.6,3-6.6,6.6v3.4
					C157.1,140.3,160,143.3,163.7,143.3z"/>
				<path class="st14" d="M167.2,133l-2.7,0.9c-0.3,0.1-0.6,0-0.7-0.3c0,0,0,0,0,0l0,0c-0.1-0.3,0-0.6,0.3-0.7c0,0,0,0,0,0l2.7-0.9
					c0.3-0.1,0.6,0.1,0.8,0.4l0,0C167.7,132.6,167.5,132.9,167.2,133C167.2,133,167.2,133,167.2,133z"/>
				<path class="st14" d="M157.1,133l2.7,0.9c0.3,0.1,0.6,0,0.7-0.3c0,0,0,0,0,0l0,0c0.1-0.3,0-0.6-0.3-0.7c0,0,0,0,0,0l-2.7-0.9
					c-0.3-0.1-0.6,0.1-0.8,0.4l0,0C156.6,132.6,156.8,132.9,157.1,133C157.1,133,157.1,133,157.1,133z"/>
				<path class="st12" d="M171.3,132.6c0-4.2-3.4-7.7-7.7-7.7l0,0c-4.2,0-7.7,3.4-7.7,7.7H171.3z"/>
				<circle class="st14" cx="170" cy="147.2" r="3.6"/>
				<path class="st15" d="M162,135.7c-0.4,0-0.8,0.3-0.8,0.8h1.5C162.8,136.1,162.4,135.7,162,135.7z"/>
				<path class="st16" d="M163.6,138.5c0.5,0,0.9,0.4,0.9,0.8v0c0,0.1,0,0.2-0.1,0.3h1.3c0-1.2-1-2.3-2.3-2.3
					c-0.8,0-1.5,0.4-1.9,1.1h0.2L163.6,138.5z"/>
				<path class="st17" d="M164.4,139.6c0-0.1,0.1-0.2,0.1-0.3c0-0.5-0.4-0.9-0.8-0.9h0h-2h-0.2c-0.2,0.3-0.3,0.7-0.3,1.1
					L164.4,139.6z"/>
				<circle class="st16" cx="158.9" cy="134.9" r="0.6"/>
				<circle class="st16" cx="165.5" cy="134.9" r="0.6"/>
				<path class="st18" d="M186.7,161.8L186.7,161.8c-0.6,0.1-1.3-0.3-1.4-1c0,0,0,0,0,0l-5-29.5c-0.1-0.7,0.3-1.3,1-1.4l0,0
					c0.7-0.1,1.3,0.3,1.4,1c0,0,0,0,0,0l5,29.5C187.8,161.1,187.3,161.7,186.7,161.8C186.7,161.8,186.7,161.8,186.7,161.8z"/>
				<path class="st19" d="M178.6,114.3h0.1c-1.2,1.6-0.9,3.9,0.8,5.2c0.8,0.6,1.8,0.8,2.8,0.7c1-0.2,1.8-0.7,2.4-1.5
					c0.2,0.4,0.3,0.9,0.4,1.4c0.6,3.6-1.3,7-4.2,7.5s-5.8-2.1-6.4-5.7S175.7,114.8,178.6,114.3z"/>
				<path class="st20" d="M177.8,121.1L177.8,121.1c0.3,1.6,1.8,2.7,3.4,2.4c0.2,0,0.5-0.1,0.7-0.2c0.1,1.3-0.7,2.5-1.9,2.8
					c-1.5,0.1-2.7-1-2.8-2.5C177,122.8,177.3,121.9,177.8,121.1z"/>
				<path class="st20" d="M178.6,114.3h0.1c-1.2,1.6-0.9,3.9,0.8,5.2c0.8,0.6,1.8,0.8,2.8,0.7c1-0.2,1.8-0.7,2.4-1.5
					c0.2,0.4,0.3,0.9,0.4,1.4c0.6,3.6-1.3,7-4.2,7.5s-5.8-2.1-6.4-5.7S175.7,114.8,178.6,114.3z"/>
				<path class="st11" d="M177.8,121.1L177.8,121.1c0.3,1.6,1.8,2.7,3.4,2.4c0.2,0,0.5-0.1,0.7-0.2c0.1,1.3-0.7,2.5-1.9,2.8
					c-1.5,0.1-2.7-1-2.8-2.5C177,122.8,177.3,121.9,177.8,121.1z"/>
				<path class="st11" d="M180.6,136.9h0.8c0.5,0,0.8-0.4,0.8-0.8v0l0,0c0-0.5-0.4-0.8-0.8-0.8h0h-0.8c-0.5,0-0.8,0.4-0.8,0.8v0l0,0
					C179.8,136.6,180.2,136.9,180.6,136.9L180.6,136.9z"/>
				<path class="st11" d="M163.1,150.3c-1.2,0-2.4-0.1-3.5-0.4c-0.9-0.3-1.5-1.2-1.3-2.2c0.3-0.9,1.2-1.5,2.2-1.3l0,0
					c0.1,0,4.7,1.2,7.9-1.3c2.3-1.8,3.5-5.1,3.5-9.9c0.1-1,0.9-1.7,1.9-1.7c0.9,0.1,1.6,0.8,1.7,1.7c0,6-1.7,10.3-4.9,12.8
					C168.4,149.5,165.8,150.3,163.1,150.3z"/>
				<rect x="155.9" y="168.2" class="st11" width="3.4" height="6.6"/>
				<rect x="148.5" y="168.2" class="st11" width="3.4" height="6.6"/>
				<path class="st12" d="M153.2,144.1L153.2,144.1c4.6,0,8.2-3.7,8.2-8.2v-1.6c0-4.6-3.7-8.2-8.2-8.2l0,0c-4.5,0-8.2,3.7-8.2,8.2
					v1.6C145,140.3,148.7,144,153.2,144.1z"/>
				<path class="st11" d="M148.1,162.8c1,0,1.9-0.8,1.9-1.8s-0.8-1.9-1.8-1.9c0,0,0,0,0,0c-1.4-0.1-2.8-0.7-3.8-1.7
					c-0.7-0.7-1.2-1.6-1.2-2.6c0-2.2,2.6-4.2,5-5.4c0.9-0.4,1.4-1.5,1-2.4s-1.5-1.4-2.4-1c-0.1,0-0.1,0.1-0.2,0.1
					c-2.1,1-7,3.9-7.1,8.7c0,2,0.9,3.9,2.3,5.3C143.4,161.7,145.7,162.8,148.1,162.8z"/>
				<path class="st11" d="M153.7,184.4l0.3-0.3c0.1-0.2,0.3-0.3,0.6-0.3l1.3-0.3v-9.2c0-1,0.8-1.7,1.7-1.7c1,0,1.7,0.8,1.7,1.7v8.8
					c0.3,0.2,0.4,0.5,0.4,0.8v1.1c0,0.6-0.4,1-1,1h-4.2c-0.6,0-1-0.4-1-1C153.5,184.8,153.6,184.5,153.7,184.4z"/>
				<path class="st13" d="M159.2,176h-3.1c-0.2,0-0.3-0.1-0.3-0.3l0,0l0,0c0-0.2,0.1-0.3,0.3-0.3l0,0h3.1c0.2,0,0.3,0.1,0.3,0.3l0,0
					l0,0C159.5,175.9,159.4,176,159.2,176L159.2,176z"/>
				<path class="st13" d="M156,180L156,180c-0.2-0.1-0.2-0.4-0.1-0.5l2.8-3.7c0.1-0.2,0.4-0.2,0.5-0.1l0,0c0.2,0.1,0.2,0.4,0.1,0.5
					c0,0,0,0,0,0l-2.8,3.8C156.4,180.1,156.2,180.2,156,180C156,180,156,180,156,180z"/>
				<path class="st13" d="M159.3,180L159.3,180c0.1-0.1,0.2-0.3,0.1-0.5l-2.8-3.7c-0.1-0.1-0.3-0.2-0.5-0.1l0,0
					c-0.1,0.1-0.2,0.3-0.1,0.5l2.8,3.7C158.9,180.1,159.1,180.1,159.3,180z"/>
				<path class="st13" d="M156,183.8L156,183.8c-0.2-0.1-0.2-0.4-0.1-0.5l2.8-3.7c0.1-0.2,0.4-0.2,0.5-0.1l0,0
					c0.2,0.1,0.2,0.4,0.1,0.5c0,0,0,0,0,0l-2.8,3.7C156.4,183.9,156.2,183.9,156,183.8C156,183.8,156,183.8,156,183.8z"/>
				<path class="st13" d="M159.2,183.8L159.2,183.8c0.2-0.1,0.2-0.4,0.1-0.5c0,0,0,0,0,0l-2.8-3.7c-0.1-0.2-0.4-0.2-0.5-0.1l0,0
					c-0.2,0.1-0.2,0.4-0.1,0.5l2.8,3.7C158.8,183.9,159.1,183.9,159.2,183.8C159.2,183.8,159.2,183.8,159.2,183.8z"/>
				<path class="st13" d="M154.5,185.9L154.5,185.9c-0.2,0-0.3-0.1-0.3-0.3V184c0-0.2,0.1-0.3,0.3-0.3l0,0c0.2,0,0.3,0.1,0.3,0.3
					v1.6C154.8,185.8,154.7,185.9,154.5,185.9z"/>
				<path class="st13" d="M155.7,185.9L155.7,185.9c-0.2,0-0.3-0.1-0.3-0.3v-1.9c0-0.2,0.1-0.3,0.3-0.3l0,0c0.2,0,0.3,0.1,0.3,0.3
					v1.9C156.1,185.8,155.9,185.9,155.7,185.9z"/>
				<path class="st13" d="M159,184h-3c-0.2,0-0.3-0.2-0.3-0.3l0,0c0-0.2,0.2-0.3,0.3-0.3h3c0.2,0,0.3,0.1,0.3,0.3l0,0
					C159.3,183.8,159.2,184,159,184z"/>
				<path class="st13" d="M153.8,186.2h5.9c0.2,0,0.3-0.1,0.3-0.3l0,0c0-0.2-0.1-0.3-0.3-0.3h-5.9c-0.2,0-0.3,0.1-0.3,0.3v0l0,0
					C153.5,186.1,153.6,186.2,153.8,186.2C153.8,186.2,153.8,186.2,153.8,186.2z"/>
				<path class="st11" d="M151.9,183.1v-8.8c0-1-0.8-1.7-1.7-1.7c-1,0-1.7,0.8-1.7,1.7v9.2l-1.3,0.3c-0.2,0-0.4,0.1-0.6,0.3
					l-0.3,0.3c-0.4,0.4-0.4,1-0.1,1.4c0.2,0.2,0.5,0.3,0.8,0.3h4.1c0.6,0,1-0.4,1-1V184C152.3,183.6,152.1,183.3,151.9,183.1z"/>
				<path class="st13" d="M151.8,176h-3.1c-0.2,0-0.3-0.1-0.3-0.3l0,0l0,0c0-0.2,0.1-0.3,0.3-0.3l0,0h3.1c0.2,0,0.3,0.1,0.3,0.3l0,0
					l0,0C152.1,175.9,151.9,176,151.8,176L151.8,176z"/>
				<path class="st13" d="M148.6,180L148.6,180c-0.2-0.1-0.2-0.4-0.1-0.5l2.8-3.7c0.1-0.2,0.4-0.2,0.5-0.1l0,0
					c0.2,0.1,0.2,0.4,0.1,0.5l-2.8,3.8C149,180.1,148.7,180.1,148.6,180z"/>
				<path class="st13" d="M151.8,180L151.8,180c0.2-0.1,0.2-0.4,0.1-0.5l-2.8-3.7c-0.1-0.2-0.4-0.2-0.5-0.1l0,0
					c-0.2,0.1-0.2,0.4-0.1,0.5l2.8,3.7C151.4,180.1,151.7,180.1,151.8,180z"/>
				<path class="st13" d="M148.6,183.8L148.6,183.8c-0.2-0.1-0.2-0.4-0.1-0.5l2.8-3.7c0.1-0.2,0.4-0.2,0.5-0.1l0,0
					c0.2,0.1,0.2,0.4,0.1,0.5l-2.8,3.7C149,183.9,148.8,183.9,148.6,183.8C148.6,183.8,148.6,183.8,148.6,183.8z"/>
				<path class="st13" d="M151.8,183.8L151.8,183.8c0.2-0.1,0.2-0.4,0.1-0.5l-2.8-3.7c-0.1-0.2-0.4-0.2-0.5-0.1l0,0
					c-0.2,0.1-0.2,0.4-0.1,0.5l2.8,3.7C151.4,183.9,151.7,183.9,151.8,183.8C151.8,183.8,151.8,183.8,151.8,183.8z"/>
				<path class="st13" d="M147.1,185.7L147.1,185.7c-0.2,0-0.3-0.1-0.3-0.3c0,0,0,0,0,0v-1.6c0-0.2,0.1-0.3,0.3-0.3l0,0
					c0.2,0,0.3,0.1,0.3,0.3v1.6C147.4,185.6,147.3,185.7,147.1,185.7C147.1,185.7,147.1,185.7,147.1,185.7z"/>
				<path class="st13" d="M148.3,185.7L148.3,185.7c-0.2,0-0.3-0.1-0.3-0.3c0,0,0,0,0,0v-1.8c0-0.2,0.1-0.3,0.3-0.3l0,0
					c0.2,0,0.3,0.1,0.3,0.3v1.8C148.6,185.6,148.5,185.7,148.3,185.7C148.3,185.7,148.3,185.7,148.3,185.7z"/>
				<path class="st13" d="M151.6,184h-3c-0.2,0-0.3-0.2-0.3-0.3l0,0c0-0.2,0.2-0.3,0.3-0.3h3c0.2,0,0.3,0.1,0.3,0.3l0,0
					C152,183.8,151.8,184,151.6,184z"/>
				<path class="st13" d="M152.1,186.2h-5.9c-0.2,0-0.3-0.1-0.3-0.3l0,0c0-0.2,0.1-0.3,0.3-0.3h5.9c0.2,0,0.3,0.1,0.3,0.3v0l0,0
					C152.5,186.1,152.3,186.2,152.1,186.2C152.1,186.2,152.1,186.2,152.1,186.2z"/>
				<path class="st13" d="M152.1,186.2L152.1,186.2c0.2,0,0.4-0.2,0.4-0.4l0,0v-2.4c0-0.2-0.2-0.4-0.4-0.4l0,0l0,0
					c-0.2,0-0.4,0.2-0.4,0.4l0,0v2.4C151.7,186,151.9,186.2,152.1,186.2L152.1,186.2z"/>
				<path class="st13" d="M155.1,186.2L155.1,186.2c-0.2,0-0.4-0.2-0.4-0.3v0v-2.4c0-0.2,0.2-0.4,0.4-0.4l0,0c0.2,0,0.4,0.2,0.4,0.4
					l0,0v2.4C155.5,186,155.3,186.2,155.1,186.2z"/>
				<rect x="150.7" y="141.9" class="st11" width="4.5" height="4.3"/>
				<path class="st14" d="M147.1,172.2c0,1.2,0.9,2.1,2.1,2.1c1.2,0,2.1-0.9,2.1-2.1c0-1.2-0.9-2.1-2.1-2.1l0,0
					C148,170.1,147.1,171,147.1,172.2z"/>
				<path class="st14" d="M154,171.5c0,1.5,0.9,2.7,2.1,2.7s2.1-1.2,2.1-2.7s-0.9-2.7-2.1-2.7S154,170,154,171.5z"/>
				<path class="st11" d="M156.8,148c0-0.8,0.5-1.6,1.2-2c1.3,1,2.1,2.5,2.1,4.1c-0.3,0.2-0.7,0.3-1.1,0.3
					C157.8,150.3,156.8,149.3,156.8,148C156.8,148,156.8,148,156.8,148z"/>
				<circle class="st14" cx="146.8" cy="148.2" r="3.9"/>
				<path class="st5" d="M148.6,145.5c0.2-0.1,0.3-0.2,0.5-0.3l0,0c0,0.2-0.1,0.3-0.1,0.5c0.1,1.3,1.1,2.2,2.4,2.2h2.9
					c1.3,0,2.3-0.9,2.4-2.2c0-0.2,0-0.4-0.1-0.6l0.2,0.1c0.4,0.2,0.8,0.4,1.1,0.6l0,0c-0.7,0.3-1.2,1.1-1.2,1.9
					c0,1.2,1.1,2.2,2.3,2.1c0.4,0,0.7-0.1,1.1-0.2c0,0,0,0.1,0,0.1V171h-14.2v-21.1C146,148,147,146.4,148.6,145.5z"/>
				<path class="st11" d="M154.4,148.2h-2.9c-1.3,0-2.4-1.1-2.4-2.4c0-0.2,0-0.3,0.1-0.5c0.5-0.3,1.1-0.4,1.6-0.6
					c0.5-0.1,1-0.2,1.6-0.2h1.3c1,0,2.1,0.2,3,0.7c0.1,0.2,0.1,0.4,0.1,0.6C156.8,147.1,155.7,148.1,154.4,148.2z"/>
				<path class="st14" d="M160.4,162.5h-14.1c-0.6,0-1.1-0.5-1.1-1.1l0,0c0-0.6,0.5-1.1,1.1-1.1h14.1c0.6,0,1.1,0.5,1.1,1.1l0,0
					C161.5,162,161,162.5,160.4,162.5z"/>
				<path class="st11" d="M153.3,143.9L153.3,143.9c3.9,0,7.1-3.2,7.1-7.1V133c0-3.9-3.2-7.1-7.1-7.1l0,0c-3.9,0-7.1,3.2-7.1,7.1
					v3.7C146.2,140.7,149.4,143.9,153.3,143.9z"/>
				<path class="st14" d="M157,133.3l-2.7,0.9c-0.3,0.1-0.6,0-0.7-0.3c0,0,0,0,0,0l0,0c-0.1-0.3,0.1-0.6,0.4-0.8l2.7-0.9
					c0.3-0.1,0.6,0.1,0.8,0.4l0,0C157.5,132.9,157.3,133.2,157,133.3C157,133.3,157,133.3,157,133.3z"/>
				<path class="st14" d="M146.6,133.3l2.7,0.9c0.3,0.1,0.6,0,0.7-0.3c0,0,0,0,0,0l0,0c0.1-0.3,0-0.6-0.3-0.7c0,0,0,0,0,0l-2.7-0.9
					c-0.3-0.1-0.6,0.1-0.8,0.4l0,0C146.1,132.9,146.3,133.2,146.6,133.3C146.6,133.3,146.6,133.3,146.6,133.3z"/>
				<path class="st12" d="M161.5,132.4c0-4.6-3.7-8.2-8.3-8.3l0,0c-4.6,0-8.2,3.7-8.3,8.3H161.5z"/>
				<circle class="st14" cx="160.1" cy="148.2" r="3.9"/>
				<path class="st15" d="M151.5,135.8c-0.5,0-0.8,0.4-0.8,0.8l0,0h1.7C152.4,136.2,152,135.8,151.5,135.8L151.5,135.8z"/>
				<path class="st16" d="M153.2,138.7c0.5,0,0.9,0.4,0.9,0.9c0,0.1,0,0.2-0.1,0.3h1.4c0-1.3-1.1-2.4-2.4-2.4
					c-0.9,0-1.6,0.5-2.1,1.2c0.1,0,0.1,0,0.2,0L153.2,138.7z"/>
				<path class="st17" d="M154.1,140c0-0.1,0.1-0.2,0.1-0.3c0-0.5-0.4-0.9-0.9-0.9h-2.1c-0.1,0-0.1,0-0.2,0
					c-0.2,0.4-0.3,0.8-0.3,1.2L154.1,140z"/>
				<path class="st16" d="M148.8,134.8c0,0.3-0.3,0.6-0.6,0.6s-0.6-0.3-0.6-0.6s0.3-0.6,0.6-0.6S148.8,134.5,148.8,134.8z"/>
				<path class="st16" d="M155.8,134.8c0,0.3-0.4,0.6-0.7,0.5c-0.3,0-0.5-0.3-0.5-0.5c0-0.3,0.4-0.6,0.7-0.5
					C155.6,134.3,155.8,134.5,155.8,134.8z"/>
				<path class="st18" d="M178.1,163.9L178.1,163.9c-0.7,0.1-1.3-0.3-1.5-1l-5.4-31.9c-0.1-0.7,0.3-1.3,1-1.5l0,0
					c0.7-0.1,1.4,0.4,1.5,1.1l5.4,31.8C179.2,163,178.7,163.7,178.1,163.9z"/>
				<path class="st19" d="M169.4,112.7h0.1c-0.6,0.9-0.9,1.9-0.7,3c0.4,2.1,2.4,3.6,4.6,3.2c1-0.2,2-0.7,2.6-1.6
					c0.2,0.5,0.3,1,0.4,1.5c0.7,3.9-1.4,7.5-4.5,8.1s-6.2-2.2-6.9-6.1S166.2,113.2,169.4,112.7z"/>
				<path class="st20" d="M168.5,120.1L168.5,120.1c0.3,1.8,1.9,3,3.7,2.7c0.3,0,0.5-0.1,0.8-0.2c0.1,1.4-0.7,2.6-2.1,3
					c-1.4,0.2-2.8-1-3-2.7C167.7,121.8,167.9,120.9,168.5,120.1z"/>
				<path class="st20" d="M169.4,112.7h0.1c-0.6,0.9-0.9,1.9-0.7,3c0.4,2.1,2.4,3.6,4.6,3.2c1-0.2,2-0.7,2.6-1.6
					c0.2,0.5,0.3,1,0.4,1.5c0.7,3.9-1.4,7.5-4.5,8.1s-6.2-2.2-6.9-6.1S166.2,113.2,169.4,112.7z"/>
				<path class="st11" d="M168.5,120.1L168.5,120.1c0.3,1.8,1.9,3,3.7,2.7c0.3,0,0.5-0.1,0.8-0.2c0.1,1.4-0.7,2.6-2.1,3
					c-1.4,0.2-2.8-1-3-2.7C167.7,121.8,167.9,120.9,168.5,120.1z"/>
				<path class="st11" d="M171.6,137.1h0.8c0.5,0,0.9-0.4,0.9-0.9l0,0c0-0.5-0.4-0.9-0.9-0.9h-0.8c-0.5,0-0.9,0.4-0.9,0.9l0,0
					C170.7,136.7,171.1,137.1,171.6,137.1z"/>
				<path class="st11" d="M175.1,137.4L175.1,137.4c0.5-0.1,0.9-0.6,0.8-1.1l-0.4-2.5c-0.1-0.5-0.6-0.9-1.1-0.8l0,0
					c-0.5,0.1-0.9,0.6-0.8,1.1l0.4,2.5C174,137.1,174.5,137.5,175.1,137.4z"/>
				<path class="st11" d="M181.7,137.4L181.7,137.4c0.5-0.1,0.9-0.6,0.8-1.1l-0.4-2.5c-0.1-0.5-0.6-0.9-1.1-0.8l0,0
					c-0.5,0.1-0.9,0.6-0.8,1.1l0.4,2.5C180.7,137.1,181.2,137.5,181.7,137.4z"/>
				<path class="st11" d="M180.3,159.3c1.1,0,1.9-0.9,1.9-1.9s-0.9-1.9-1.9-1.9c-1.5-0.1-2.9-0.7-4-1.8c-0.8-0.7-1.2-1.7-1.3-2.8
					c0-2.3,2.7-4.5,5.2-5.7c1-0.5,1.4-1.6,0.9-2.6s-1.6-1.4-2.6-0.9l0,0c-2.2,1.1-7.4,4.1-7.4,9.1c0,2.1,0.9,4.1,2.4,5.5
					C175.3,158.2,177.7,159.3,180.3,159.3z"/>
				<path class="st11" d="M185.5,180.2l0.2-0.3c0.1-0.1,0.3-0.2,0.5-0.3l1.2-0.3l0,0v-8.6c0-0.9,0.7-1.6,1.6-1.6
					c0.9,0,1.6,0.7,1.6,1.6v8.3c0.2,0.2,0.4,0.5,0.4,0.8v1.1c0,0.6-0.4,1-1,1h-3.9c-0.6,0-1-0.5-1-1
					C185.2,180.6,185.3,180.4,185.5,180.2z"/>
				<path class="st13" d="M190.6,172.3h-2.9c-0.2,0-0.3-0.1-0.3-0.3l0,0c0-0.2,0.1-0.3,0.3-0.3h2.9c0.2,0,0.3,0.1,0.3,0.3l0,0
					C190.9,172.2,190.8,172.3,190.6,172.3z"/>
				<path class="st13" d="M187.6,176.1L187.6,176.1c-0.2-0.1-0.2-0.3-0.1-0.5c0,0,0,0,0,0l2.6-3.5c0.1-0.2,0.3-0.2,0.5-0.1
					c0,0,0,0,0,0l0,0c0.2,0.1,0.2,0.3,0.1,0.5c0,0,0,0,0,0l-2.6,3.5C188,176.2,187.8,176.2,187.6,176.1
					C187.6,176.1,187.6,176.1,187.6,176.1z"/>
				<path class="st13" d="M190.7,176.1L190.7,176.1c0.1-0.1,0.2-0.3,0.1-0.4l-2.7-3.5c-0.1-0.1-0.3-0.2-0.4-0.1c0,0,0,0,0,0l0,0
					c-0.1,0.1-0.2,0.3-0.1,0.4c0,0,0,0,0,0l2.7,3.5C190.3,176.2,190.5,176.2,190.7,176.1z"/>
				<path class="st13" d="M187.6,179.7L187.6,179.7c-0.2-0.1-0.2-0.3-0.1-0.5c0,0,0,0,0,0l2.6-3.5c0.1-0.2,0.3-0.2,0.5-0.1
					c0,0,0,0,0,0l0,0c0.2,0.1,0.2,0.3,0.1,0.5c0,0,0,0,0,0l-2.6,3.5C188,179.7,187.8,179.8,187.6,179.7
					C187.6,179.7,187.6,179.7,187.6,179.7z"/>
				<path class="st13" d="M190.6,179.7L190.6,179.7c0.2-0.1,0.2-0.3,0.1-0.5c0,0,0,0,0,0l-2.6-3.5c-0.1-0.2-0.3-0.2-0.5-0.1
					c0,0,0,0,0,0l0,0c-0.2,0.1-0.2,0.3-0.1,0.5c0,0,0,0,0,0l2.6,3.5C190.3,179.7,190.5,179.8,190.6,179.7
					C190.6,179.7,190.6,179.7,190.6,179.7z"/>
				<path class="st13" d="M186.2,181.6L186.2,181.6c-0.2,0-0.3-0.1-0.3-0.3v-1.5c0-0.2,0.1-0.3,0.3-0.3l0,0c0.2,0,0.3,0.1,0.3,0.3
					v1.5C186.5,181.5,186.4,181.6,186.2,181.6z"/>
				<path class="st13" d="M187.4,181.6L187.4,181.6c-0.2,0-0.3-0.1-0.3-0.3v-1.8c0-0.2,0.1-0.3,0.3-0.3l0,0c0.2,0,0.3,0.1,0.3,0.3
					v1.8C187.6,181.5,187.5,181.6,187.4,181.6z"/>
				<path class="st13" d="M190.5,179.9h-2.8c-0.2,0-0.3-0.1-0.3-0.3l0,0c0-0.2,0.1-0.3,0.3-0.3h0h2.8c0.2,0,0.3,0.1,0.3,0.3v0l0,0
					C190.8,179.7,190.6,179.9,190.5,179.9z"/>
				<path class="st13" d="M185.5,181.9h5.6c0.2,0,0.3-0.1,0.3-0.3l0,0c0-0.2-0.1-0.3-0.3-0.3h-5.6c-0.2,0-0.3,0.1-0.3,0.3l0,0
					C185.2,181.8,185.3,181.9,185.5,181.9z"/>
				<path class="st11" d="M183.7,179v-8.3c-0.1-0.9-0.9-1.6-1.8-1.5c-0.8,0.1-1.4,0.7-1.5,1.5v8.7l-1.2,0.3c-0.2,0-0.4,0.1-0.5,0.3
					l-0.2,0.3c-0.3,0.4-0.3,1.1,0.1,1.4c0.2,0.1,0.4,0.2,0.6,0.2h3.9c0.6,0,1-0.4,1-1v-1.1C184.1,179.4,184,179.2,183.7,179z"/>
				<path class="st13" d="M183.6,172.3h-2.9c-0.2,0-0.3-0.1-0.3-0.3l0,0c0-0.2,0.1-0.3,0.3-0.3h2.9c0.2,0,0.3,0.1,0.3,0.3l0,0
					C183.9,172.2,183.8,172.3,183.6,172.3z"/>
				<path class="st13" d="M180.6,176.1L180.6,176.1c-0.2-0.1-0.2-0.3-0.1-0.5l2.6-3.5c0.1-0.2,0.3-0.2,0.5-0.1c0,0,0,0,0,0l0,0
					c0.2,0.1,0.2,0.3,0.1,0.5l-2.6,3.5C181,176.2,180.8,176.2,180.6,176.1C180.6,176.1,180.6,176.1,180.6,176.1z"/>
				<path class="st13" d="M183.7,176.1L183.7,176.1c0.2-0.1,0.2-0.3,0.1-0.5l-2.6-3.5c-0.1-0.2-0.3-0.2-0.5-0.1c0,0,0,0,0,0l0,0
					c-0.2,0.1-0.2,0.3-0.1,0.5l2.6,3.5C183.3,176.2,183.5,176.2,183.7,176.1C183.7,176.1,183.7,176.1,183.7,176.1z"/>
				<path class="st13" d="M180.6,179.7L180.6,179.7c-0.2-0.1-0.2-0.3-0.1-0.5l2.6-3.5c0.1-0.2,0.3-0.2,0.5-0.1c0,0,0,0,0,0l0,0
					c0.2,0.1,0.2,0.3,0.1,0.5l-2.6,3.5C181,179.7,180.8,179.8,180.6,179.7C180.6,179.7,180.6,179.7,180.6,179.7z"/>
				<path class="st13" d="M183.7,179.7L183.7,179.7c0.2-0.1,0.2-0.3,0.1-0.5l-2.6-3.5c-0.1-0.2-0.3-0.2-0.5-0.1c0,0,0,0,0,0l0,0
					c-0.2,0.1-0.2,0.3-0.1,0.5l2.6,3.5C183.3,179.7,183.5,179.8,183.7,179.7C183.7,179.7,183.7,179.7,183.7,179.7z"/>
				<path class="st13" d="M179.2,181.5L179.2,181.5c-0.2,0-0.3-0.1-0.3-0.3v-1.5c0-0.2,0.1-0.3,0.3-0.3l0,0c0.2,0,0.3,0.1,0.3,0.3
					v1.5C179.5,181.4,179.4,181.5,179.2,181.5z"/>
				<path class="st13" d="M180.4,181.5L180.4,181.5c-0.2,0-0.3-0.1-0.3-0.3v-1.7c0-0.2,0.1-0.3,0.3-0.3l0,0c0.2,0,0.3,0.1,0.3,0.3
					v1.7C180.7,181.4,180.5,181.5,180.4,181.5z"/>
				<path class="st13" d="M183.5,179.9h-2.8c-0.2,0-0.3-0.1-0.3-0.3c0,0,0,0,0,0l0,0c0-0.2,0.1-0.3,0.3-0.3h0h2.8
					c0.2,0,0.3,0.1,0.3,0.3v0l0,0C183.8,179.7,183.7,179.9,183.5,179.9C183.5,179.9,183.5,179.9,183.5,179.9z"/>
				<path class="st13" d="M184,181.9h-5.6c-0.2,0-0.3-0.1-0.3-0.3l0,0c0-0.2,0.1-0.3,0.3-0.3h5.6c0.2,0,0.3,0.1,0.3,0.3l0,0
					C184.3,181.8,184.2,181.9,184,181.9z"/>
				<path class="st13" d="M183.9,181.9L183.9,181.9c0.2,0,0.3-0.1,0.3-0.3v-2.2c0-0.2-0.2-0.3-0.3-0.3l0,0c-0.2,0-0.3,0.2-0.3,0.3
					v2.2C183.6,181.8,183.7,181.9,183.9,181.9L183.9,181.9z"/>
				<path class="st13" d="M186.8,181.9L186.8,181.9c-0.2,0-0.3-0.2-0.3-0.3v-2.3c0-0.2,0.2-0.3,0.3-0.3l0,0c0.2,0,0.3,0.1,0.3,0.3
					v2.3C187.1,181.8,186.9,181.9,186.8,181.9z"/>
				<rect x="183" y="137.3" class="st11" width="4.7" height="4.6"/>
				<path class="st11" d="M189.4,143.8c0-0.9,0.5-1.7,1.3-2.1c1.3,1,2.2,2.6,2.2,4.3c-0.3,0.2-0.7,0.3-1.1,0.3
					C190.4,146.2,189.4,145.1,189.4,143.8L189.4,143.8z"/>
				<path class="st13" d="M180.8,141.2c0.2-0.1,0.4-0.2,0.6-0.3c0.5-0.3,1.1-0.5,1.7-0.6c-0.7,3.9,1.9,7.6,5.8,8.3
					c0.4,0.1,0.8,0.1,1.3,0.1c0.9,0,1.9-0.2,2.7-0.5v21.9h-15v-24C177.9,144.1,179,142.2,180.8,141.2z"/>
				<path class="st11" d="M183,141.5c0-0.4,0-0.8,0.1-1.2c0.5-0.1,1.1-0.2,1.6-0.2h1.4c1.6,0,3.2,0.5,4.5,1.5l0,0
					c-1.2,0.6-1.7,2-1.1,3.2c0.4,0.8,1.3,1.3,2.2,1.3c0.4,0,0.8-0.1,1.1-0.3c0,0.1,0,0.1,0,0.2v2.1c-3.7,1.5-7.9-0.3-9.4-3.9
					C183.1,143.4,183,142.4,183,141.5L183,141.5z"/>
				<path class="st11" d="M190,144.6c1.8,1.8,4.3,2.7,6.9,2.7c2.1,0,4.1-0.7,5.6-2.2c3.5-3.6,2-9.4,1.2-11.7
					c-0.2-1.1-1.3-1.7-2.3-1.5c-1.1,0.2-1.7,1.3-1.5,2.3c0,0.2,0.1,0.3,0.2,0.4c0.9,2.6,1.3,6-0.3,7.7c-0.8,0.7-1.8,1.1-2.9,1
					c-1.5,0-3-0.5-4.1-1.5c-0.8-0.8-2-0.8-2.7,0C189.3,142.5,189.3,143.8,190,144.6L190,144.6z"/>
				<path class="st18" d="M180.9,121.1h9.5c2.9,0,5.3,2.4,5.3,5.3l0,0c0,2.9-2.4,5.3-5.3,5.3h-9.5c-2.9,0-5.3-2.4-5.3-5.3l0,0
					C175.6,123.5,178,121.1,180.9,121.1z"/>
				<path class="st11" d="M175.8,131.4c0,1,0.8,1.8,1.8,1.8c1,0,1.8-0.8,1.8-1.8c0-1-0.8-1.8-1.8-1.8l0,0
					C176.6,129.5,175.8,130.3,175.8,131.4z"/>
				<path class="st15" d="M176.5,131.4c0,0.6,0.5,1.1,1.1,1.1c0.6,0,1.1-0.5,1.1-1.1c0-0.6-0.5-1.1-1.1-1.1c0,0,0,0,0,0
					C177,130.2,176.5,130.7,176.5,131.4z"/>
				<path class="st11" d="M191.3,131.4c0,1,0.8,1.8,1.8,1.8s1.8-0.8,1.8-1.8c0-1-0.8-1.8-1.8-1.8c0,0,0,0,0,0
					C192.1,129.5,191.3,130.3,191.3,131.4C191.3,131.4,191.3,131.4,191.3,131.4z"/>
				<path class="st15" d="M192,131.4c0,0.6,0.5,1.1,1.1,1.1c0.6,0,1.1-0.5,1.1-1.1c0-0.6-0.5-1.1-1.1-1.1c0,0,0,0,0,0
					C192.5,130.2,192,130.7,192,131.4z"/>
				<path class="st11" d="M185.3,139.5L185.3,139.5c4.1,0,7.5-3.3,7.5-7.5v-3.9c0-4.1-3.4-7.5-7.5-7.5l0,0c-4.1,0-7.5,3.4-7.5,7.5
					v3.9C177.9,136.1,181.2,139.4,185.3,139.5z"/>
				<path class="st18" d="M177.1,133.2c0,4.5,3.7,8.2,8.2,8.2l0,0c4.5,0,8.2-3.7,8.2-8.2H177.1z"/>
				<path class="st16" d="M187.7,132L187.7,132c-0.5,0-0.9-0.4-0.9-0.9v-1c0-0.5,0.4-0.9,0.9-0.9l0,0c0.5,0,0.9,0.4,0.9,0.9v1
					C188.6,131.6,188.2,132,187.7,132z"/>
				<path class="st16" d="M181.3,132L181.3,132c0.5,0,0.9-0.4,0.9-0.9v-1c0-0.5-0.4-0.9-0.9-0.9l0,0c-0.5,0-0.9,0.4-0.9,0.9v1
					C180.4,131.6,180.8,132,181.3,132z"/>
				<path class="st18" d="M189.2,128.5l-2.7,0.6c-0.4,0.1-0.9-0.1-1-0.6c0,0,0,0,0,0l0,0c-0.1-0.4,0.1-0.9,0.6-1c0,0,0,0,0,0
					l2.7-0.7c0.4-0.1,0.9,0.1,1,0.6c0,0,0,0,0,0l0,0C190,128,189.7,128.4,189.2,128.5C189.3,128.5,189.3,128.5,189.2,128.5z"/>
				<path class="st18" d="M179.4,128.5l2.7,0.6c0.4,0.1,0.9-0.1,1-0.6c0,0,0,0,0,0l0,0c0.1-0.4-0.1-0.9-0.6-1c0,0,0,0,0,0l-2.7-0.7
					c-0.4-0.1-0.9,0.1-1,0.6c0,0,0,0,0,0l0,0C178.7,128,178.9,128.4,179.4,128.5C179.4,128.5,179.4,128.5,179.4,128.5z"/>
				<path class="st11" d="M182.8,133.6c-0.3,0-0.5,0.2-0.5,0.5c0,0.1,0,0.1,0,0.2c0.4,1,1.5,1.6,2.6,1.2c0.5-0.2,1-0.6,1.2-1.2
					c0.1-0.2-0.1-0.5-0.3-0.6c0,0-0.1,0-0.1,0L182.8,133.6z"/>
				<path class="st15" d="M185.3,132c0-0.6-0.5-1.1-1.1-1.1s-1.1,0.5-1.1,1.1H185.3z"/>
				<path class="st20" d="M185,134.5c0-0.4-0.4-0.8-0.8-0.8s-0.8,0.4-0.8,0.8H185z"/>
				<path class="st15" d="M184.4,135.1c0-0.1-0.1-0.2-0.2-0.2c-0.1,0-0.2,0.1-0.2,0.2H184.4z"/>
				<path class="st18" d="M203.5,152.8L203.5,152.8c0.7-0.1,1.3-0.7,1.2-1.4l-2.3-33.7c0-0.7-0.7-1.3-1.4-1.3c0,0,0,0,0,0l0,0
					c-0.7,0.1-1.3,0.7-1.3,1.4l2.3,33.7C202.1,152.3,202.8,152.8,203.5,152.8z"/>
				<path class="st20" d="M199.5,98.4h-0.1c0.9,0.7,1.4,1.8,1.5,2.9c0.2,2.3-1.6,4.3-3.8,4.5c-1.1,0.1-2.2-0.3-3-1
					c-0.1,0.5-0.1,1.1,0,1.6c0.3,4.2,3.2,7.3,6.6,7.1s5.8-3.8,5.5-8S202.8,98.2,199.5,98.4z"/>
				<path class="st11" d="M202.1,105.8L202.1,105.8c0.1,1.9-1.2,3.5-3.1,3.6c-0.3,0-0.6,0-0.9-0.1c0.2,1.4,1.4,2.5,2.8,2.6
					c1.5-0.1,2.6-1.7,2.4-3.5C203.4,107.4,202.9,106.4,202.1,105.8z"/>
				<path class="st11" d="M201.4,137.1h-1.2c-0.4,0-0.7-0.3-0.8-0.8l0,0c0-0.4,0.3-0.7,0.8-0.8h1.2c0.4,0,0.8,0.3,0.8,0.8l0,0
					C202.2,136.7,201.8,137.1,201.4,137.1z"/>
				<path class="st11" d="M204.3,136.8L204.3,136.8c-0.8,0.1-1.4-0.4-1.5-1.2c0,0,0,0,0,0l-0.4-3.2c-0.1-0.8,0.4-1.4,1.2-1.5
					c0,0,0,0,0,0l0,0c0.8-0.1,1.4,0.4,1.5,1.2c0,0,0,0,0,0l0.4,3.2C205.6,136,205,136.7,204.3,136.8z"/>
				<path class="st11" d="M170,179.1c-4.9,0-8.7-1.6-11.5-4.8c-5.7-6.5-4.3-17.2-4.3-17.6c0.2-1.4,1.5-2.4,2.9-2.2
					c1.4,0.2,2.4,1.5,2.2,2.9c0,0.1-1.1,8.9,3.1,13.6c1.8,2,4.3,3,7.6,3c1.4,0,2.6,1.2,2.6,2.6C172.6,177.9,171.4,179.1,170,179.1
					L170,179.1z"/>
				<path class="st21" d="M171.3,191.5c0,0-3,35.1-9.4,42c0,0,4.4,3.3,8.2-0.8c0,0,3.3-1.9,7,2c1.9,0.7,4.1,0.2,5.5-1.4
					c0,0,4.1-2.2,6.6,0.5c0,0,4.5,3,7.3-1.4c1.7-0.6,3.7,0.1,4.5,1.8c0,0,3.9,1.4,4.6-3.2c0,0-13.9-36.2-13-43.3L171.3,191.5z"/>
				<path class="st21" d="M172.4,178.7c1-2.3,2.7-4.1,4.8-5.4c0,0.1,0,0.1,0,0.1c-0.2,3,2,5.5,5,5.8s5.5-2,5.8-5c0-0.3,0-0.5,0-0.8
					v-0.1c1.9,1.2,3.5,2.9,4.5,4.9c0.9,1.7,1.3,3.7,1.3,5.6v7.6h-22.4v-7.6C171.3,182.1,171.7,180.4,172.4,178.7z"/>
				<rect x="173" y="157.2" class="st14" width="19.4" height="20.8"/>
				<path class="st22" d="M182.6,179.2c-3.1-0.1-5.5-2.7-5.4-5.7c0-0.1,0-0.1,0-0.1c1.6-0.9,3.5-1.4,5.3-1.4l0,0
					c1.9,0,3.8,0.5,5.4,1.5v0.1C188,176.6,185.6,179.1,182.6,179.2z"/>
				<path class="st22" d="M193.1,176.8c-0.2,2.4-2.2,4.2-4.6,4c-2.4-0.2-4.2-2.2-4-4.6c0.2-2.3,2-4,4.3-4
					C191.3,172.2,193.2,174.3,193.1,176.8z"/>
				<path class="st22" d="M180.4,176.6c-0.2,2.5-2.3,4.4-4.8,4.2s-4.4-2.3-4.2-4.8c0.2-2.4,2.1-4.2,4.5-4.2
					C178.5,171.9,180.5,174,180.4,176.6z"/>
				<path class="st23" d="M195.6,174.9l6.6-15.2l-0.9-0.4l-6.5,14.9C195,174.3,195.3,174.6,195.6,174.9z"/>
				<path class="st23" d="M197.6,177.4c1.3,1.8,2.4,3.8,3.1,5.9c0.9-0.8,1.6-1.9,2.1-3c0.7-1.5,1-3.1,0.8-4.8
					c-0.2-1.4-0.9-2.7-1.1-4.1c-0.2-1.8,0.1-3.7,0.8-5.4c0.7-1.7,2-3.1,3.5-4.1l-2.1-1L197.6,177.4z"/>
				<path class="st21" d="M172.1,171.6h19.4c2.4,0,4.3,2,4.3,4.4v3c0,2.4-1.9,4.3-4.3,4.3h-16.8c-3.8,0-6.9-3.1-6.9-6.9l0,0V176
					C167.8,173.6,169.7,171.7,172.1,171.6C172.1,171.6,172.1,171.6,172.1,171.6z"/>
				<path class="st23" d="M196.5,176l6.9-15.8l-0.9-0.4l-6.7,15.4L196.5,176z"/>
				<path class="st23" d="M194.2,182l0.6,0.3l-0.4-0.7L194.2,182z"/>
				<path class="st23" d="M197.4,177.2l7.1-16.3l-0.9-0.4l-6.9,15.9L197.4,177.2z"/>
				<path class="st23" d="M193.6,180.4l-0.4,1l0.9,0.4l0.2-0.5L193.6,180.4z"/>
				<path class="st23" d="M193.4,180.1c-0.2-0.3-0.5-0.6-0.7-0.9l-0.7,1.6l-0.2-0.1l1.2,0.6h-0.1L193.4,180.1z"/>
				<path class="st23" d="M191.7,178.2l-0.9,2.1l0.9,0.4l0.8-1.7C192.2,178.7,192,178.4,191.7,178.2z"/>
				<path class="st23" d="M194.7,174l6.5-14.8l-0.9-0.4l-6.5,14.8C194.1,173.6,194.4,173.8,194.7,174z"/>
				<path class="st19" d="M186.5,194.5c0-0.2,0-0.5,0-0.7c-0.5-0.7-1-1.4-1.3-2.2h-2.1c-1.5,0.1-2.5,1.4-2.4,2.9
					c0.1,1.3,1.1,2.3,2.4,2.4h3.8c0.3,0,0.7-0.1,1-0.3C187.1,196.1,186.6,195.4,186.5,194.5z"/>
				<path class="st21" d="M192.4,179l2.2-5.1c-0.3-0.2-0.6-0.4-0.9-0.4l-2,4.7C192,178.4,192.2,178.7,192.4,179z"/>
				<path class="st21" d="M193.4,180.1l2.3-5.2c-0.3-0.4-0.6-0.6-0.7-0.8l-2.2,5.1C192.9,179.5,193.1,179.8,193.4,180.1z"/>
				<path class="st21" d="M196.7,176.3l-2.3,5.4l0.4,0.7l0.3,0.1l2.3-5.3L196.7,176.3z"/>
				<path class="st21" d="M195.4,182.6L195.4,182.6l1.3,0.7c0.2,0.7,0.3,1.4,0.3,2.1c1.4-0.3,2.7-1,3.7-2c-0.7-2.1-1.8-4.1-3.1-5.9
					L195.4,182.6z"/>
				<path class="st21" d="M191.4,174.2c-0.9,1.1-0.9,2.7,0.1,3.7l0,0l2-4.5C192.7,173.3,191.9,173.6,191.4,174.2z"/>
				<path class="st21" d="M194.2,181.4l2.3-5.3l-0.7-0.8l-2.3,5.2L194.2,181.4z"/>
				<path class="st21" d="M189.2,194.7c-0.6,0.1-1.3,0-1.9-0.1c-0.3-0.3-0.6-0.6-0.8-0.9c0,0.2,0,0.5,0,0.7c0.1,0.9,0.6,1.6,1.4,2
					C188.6,196.1,189.1,195.5,189.2,194.7z"/>
				<path class="st24" d="M197.8,156.4c0.1,0.4,0.2,0.8,0.3,1.2l2,1l0,0l0.3,0.1l0,0l0.9,0.4l0,0l0.3,0.1l0,0l0.9,0.4l0,0l0.3,0.1
					l0,0l0.9,0.4l0,0l0.3,0.1l0,0l0.9,0.4l0,0l0.3,0.1l0,0l2.1,1c0.4-0.2,0.8-0.4,1.1-0.6c0,0,0-0.1,0-0.1c0.1-0.2,0.2-0.3,0.3-0.4
					l-10.4-5.2c0,0.2-0.1,0.4-0.1,0.5C197.8,156.3,197.8,156.3,197.8,156.4z"/>
				<path class="st24" d="M194.2,182L194.2,182l-0.3-0.1l0,0l-0.9-0.4l0,0l-0.2-0.1l-1.2-0.6l0,0l0,0l-0.9-0.4l0,0l-0.3-0.1l0,0
					l-1.1-0.6c-0.6,0.3-1.2,0.6-1.7,1.1c0.8,1.7,2.2,3.1,3.9,4c1.4,0.7,3,1,4.6,0.8c-0.3-1.1-0.8-2.2-1.4-3.2L194.2,182z"/>
				<path class="st24" d="M187.9,191.8c0.2-0.1,0.5-0.2,0.7-0.2c4.4-0.6,7.1-1.9,7.6-3.7c0.1-0.4,0.2-0.8,0.1-1.1
					c-1.8,0.3-3.6-0.1-5.2-0.9c-1.8-0.9-3.3-2.4-4.3-4.3c-0.7,0.7-1.2,1.6-1.6,2.5c-1,2.4-1,5.1,0,7.5h1.6
					C187.3,191.6,187.6,191.6,187.9,191.8z"/>
				<path class="st19" d="M187.9,191.8c-0.3-0.2-0.7-0.2-1-0.3h-1.6c0.3,0.8,0.8,1.6,1.3,2.2C186.7,192.9,187.2,192.2,187.9,191.8z"
					/>
				<path class="st24" d="M195.3,182.6l-0.2-0.1l0,0l-0.3-0.1c0.6,1,1.1,2,1.4,3.2c0.3,0,0.5-0.1,0.8-0.1c0-0.7-0.1-1.4-0.3-2.1
					L195.3,182.6z"/>
				<path class="st21" d="M201.1,184.6c-1.1,0.9-2.3,1.5-3.6,1.9l0,0c-0.2,0-0.9,0.2-1.1,0.2c0,0.4,0,0.8-0.1,1.1
					c-0.6,1.8-3.3,3.1-7.6,3.7c-0.3,0-0.5,0.1-0.7,0.2c0.9,0.5,1.4,1.4,1.4,2.4c0,0.2,0,0.4-0.1,0.6h0.2h-0.2
					c-0.2,0.8-0.6,1.4-1.3,1.8c0.3,0.2,0.7,0.3,1.1,0.3c0.1,0,0.2,0,0.3,0c6.5-0.9,10.5-3.4,11.7-7.3
					C201.5,187.9,201.5,186.2,201.1,184.6z"/>
				<path class="st21" d="M187.9,191.8c-0.8,0.4-1.3,1.1-1.4,2c0.2,0.3,0.5,0.6,0.8,0.9c0.6,0.1,1.3,0.1,1.9,0.1
					c0-0.2,0.1-0.4,0.1-0.6C189.3,193.2,188.8,192.3,187.9,191.8z"/>
				<path class="st24" d="M207.9,162.5l-1-0.5c-1.6,1-2.8,2.4-3.5,4.1c-0.7,1.7-1,3.5-0.8,5.4c0.2,1.4,0.9,2.7,1.1,4.1
					c0.2,1.6-0.1,3.3-0.8,4.8c-0.5,1.1-1.2,2.2-2.1,3c0.1,0.4,0.3,0.9,0.4,1.3c3.1-2.6,4.3-6.8,3.3-10.6c-0.1-0.1-0.1-0.3-0.2-0.4
					c-0.9-2.2-0.9-4.7,0.1-6.9c0.7-1.7,2.1-3.1,3.8-3.9c0,0,0-0.1-0.1-0.1C208,162.6,208,162.6,207.9,162.5z"/>
				<path class="st24" d="M197,185.3c0,0.4,0,0.8,0,1.3c1.5-0.3,2.9-1,4.1-2c-0.1-0.4-0.2-0.9-0.4-1.3
					C199.7,184.3,198.4,185,197,185.3z"/>
				<path class="st24" d="M196.9,157l1.1,0.6c-0.1-0.4-0.2-0.8-0.3-1.2C197.6,156.7,197.3,156.9,196.9,157z"/>
				<path class="st24" d="M208,161.4c-0.4,0.2-0.8,0.4-1.1,0.6l1,0.5c0,0,0.1,0.1,0.2,0.1C207.9,162.2,207.9,161.8,208,161.4z"/>
				<path class="st24" d="M191.2,185.8c1.6,0.8,3.5,1.1,5.2,0.9c0-0.4-0.1-0.8-0.2-1.2c-1.6,0.2-3.2-0.1-4.6-0.8
					c-1.7-0.9-3.1-2.3-3.9-4c-0.3,0.3-0.6,0.5-0.9,0.8C187.8,183.4,189.3,184.9,191.2,185.8z"/>
				<path class="st24" d="M196.4,186.7c0.2,0,0.4,0,0.6-0.1c0-0.4,0-0.8,0-1.3c-0.3,0.1-0.5,0.1-0.8,0.1
					C196.3,185.9,196.4,186.3,196.4,186.7z"/>
				<path class="st24" d="M196.5,155.8c0.1-0.4,0.6-0.6,1-0.4c0,0,0,0,0.1,0l0.5,0.2c0.1-0.6-0.3-1.2-0.8-1.5
					c-0.7-0.3-1.5,0-1.8,0.6c0,0,0,0.1,0,0.1c-0.3,0.7,0,1.6,0.7,2c0.2,0.1,0.5,0.2,0.7,0.1l-0.1-0.2
					C196.4,156.6,196.3,156.2,196.5,155.8z"/>
				<path class="st24" d="M196.5,155.8c-0.2,0.3-0.1,0.7,0.2,1c0-0.1,0-0.1,0-0.2l1.1-0.4v0.1c0-0.1,0.1-0.1,0.1-0.2
					c0.1-0.2,0.1-0.4,0.1-0.5l-0.5-0.2C197.2,155.2,196.7,155.4,196.5,155.8C196.5,155.8,196.5,155.8,196.5,155.8z"/>
				<path class="st24" d="M196.9,157c-0.1,0-0.1-0.1-0.2-0.1l0.1,0.2C196.8,157.1,196.9,157.1,196.9,157L196.9,157z"/>
				<path class="st24" d="M197.8,156.4v-0.1l-1.1,0.4c0,0.1,0,0.1,0,0.2c0.1,0.1,0.1,0.1,0.2,0.1h0.1
					C197.3,156.9,197.6,156.7,197.8,156.4z"/>
				<path class="st24" d="M210.1,160.7c-0.5-0.4-1.3-0.3-1.8,0.1l0.2,0.1c0.4,0.2,0.6,0.6,0.5,1c-0.1,0.3-0.3,0.6-0.6,0.7l-0.3,0.1
					c0.1,0.3,0.3,0.5,0.6,0.6c0.7,0.3,1.5,0.1,1.9-0.6c0.1-0.1,0.1-0.2,0.1-0.4C210.9,161.7,210.6,161.1,210.1,160.7z"/>
				<path class="st24" d="M208,161.4L208,161.4l0.5,1.2h-0.1c0.3-0.1,0.6-0.3,0.6-0.7c0.1-0.4-0.1-0.8-0.5-1l-0.2-0.1
					c-0.1,0.1-0.2,0.3-0.3,0.4C208,161.3,208,161.4,208,161.4z"/>
				<path class="st24" d="M208.1,162.6c0,0,0,0.1,0.1,0.1l0.3-0.1C208.3,162.6,208.2,162.6,208.1,162.6z"/>
				<path class="st24" d="M208.1,161.4L208.1,161.4c-0.2,0.4-0.2,0.8,0,1.2c0.1,0,0.2,0,0.3,0h0.1L208.1,161.4z"/>
				<path class="st5" d="M193.8,173.5l6.5-14.8l-0.3-0.1l-6.5,14.9C193.6,173.4,193.7,173.5,193.8,173.5z"/>
				<path class="st5" d="M191.5,178l-1,2.2l0.3,0.1l0.9-2.1L191.5,178z"/>
				<path class="st5" d="M193.8,173.5c-0.1,0-0.2-0.1-0.3-0.1l-2,4.5l0.2,0.2L193.8,173.5z"/>
				<rect x="200.1" y="158.5" class="st20" width="0" height="0.3"/>
				<path class="st5" d="M194.9,174.1L194.9,174.1l6.5-14.9l-0.3-0.1l-6.4,14.9L194.9,174.1z"/>
				<path class="st5" d="M192.7,179.3l-0.2-0.2l-0.8,1.7l0,0l0.2,0.1L192.7,179.3z"/>
				<path class="st5" d="M192.7,179.3l2.2-5.1l0,0l-0.2-0.2l-2.2,5L192.7,179.3z"/>
				<rect x="201.3" y="159" class="st20" width="0" height="0.3"/>
				<path class="st5" d="M195.8,175.2l6.7-15.4l-0.3-0.1l-6.6,15.2L195.8,175.2z"/>
				<path class="st5" d="M193.4,180.1l-0.5,1.2h0.1l0.2,0.1l0.4-1L193.4,180.1z"/>
				<path class="st5" d="M193.6,180.4l2.3-5.2l-0.2-0.2l-2.3,5.2L193.6,180.4z"/>
				<rect x="202.4" y="159.6" class="st20" width="0" height="0.3"/>
				<path class="st5" d="M196.7,176.3l6.9-15.9l-0.3-0.1l-6.9,15.7L196.7,176.3z"/>
				<path class="st5" d="M194.2,181.4l-0.2,0.5l0.3,0.1l0.2-0.4C194.3,181.6,194.3,181.4,194.2,181.4z"/>
				<path class="st5" d="M194.4,181.6l2.3-5.4l-0.2-0.2l-2.3,5.3C194.3,181.4,194.3,181.6,194.4,181.6z"/>
				<rect x="203.5" y="160.2" class="st20" width="0" height="0.3"/>
				<path class="st5" d="M197.6,177.4l7.2-16.4l-0.3-0.1l-7.1,16.3L197.6,177.4z"/>
				<path class="st5" d="M195.1,182.5l0.2,0.1h0.1l2.2-5.1l-0.2-0.3L195.1,182.5z"/>
				<rect x="204.7" y="160.8" class="st20" width="0" height="0.3"/>
				<path class="st11" d="M182.6,175.6h-0.7c-0.8,0-1.5-0.7-1.5-1.5v-5.3c0-0.8,0.7-1.5,1.5-1.5h0.7c0.8,0,1.5,0.7,1.5,1.5v5.3
					C184.1,174.9,183.4,175.6,182.6,175.6z"/>
				<path class="st11" d="M171.5,163.9c0.1,1.2,1.1,2,2.3,2c1.2-0.1,2-1.1,2-2.3c-0.1-1.1-1-2-2.1-2
					C172.4,161.7,171.5,162.7,171.5,163.9C171.5,163.9,171.5,163.9,171.5,163.9z"/>
				<ellipse class="st15" cx="173.6" cy="163.9" rx="1.3" ry="1.4"/>
				<path class="st11" d="M189.3,163.9c0.1,1.2,1.1,2,2.3,1.9c1.2-0.1,2-1.1,1.9-2.3c-0.1-1.1-1-2-2.1-1.9
					C190.2,161.7,189.2,162.7,189.3,163.9C189.3,163.9,189.3,163.9,189.3,163.9z"/>
				<path class="st15" d="M190.1,163.9c0,0.7,0.7,1.2,1.4,1.2c0.7,0,1.2-0.7,1.2-1.4c0-0.7-0.6-1.2-1.3-1.2
					C190.7,162.5,190.1,163.2,190.1,163.9C190.1,163.9,190.1,163.9,190.1,163.9z"/>
				<rect x="175.4" y="161.8" class="st11" width="14.5" height="6.9"/>
				<path class="st11" d="M174.1,158.2v6.4c0,5,3.9,9.2,8.6,9.2l0,0c4.7,0,8.6-4.1,8.6-9.2v-6.4H174.1z"/>
				<path class="st15" d="M182.6,163.2c-0.7,0-1.2,0.6-1.2,1.3h2.4C183.9,163.8,183.3,163.3,182.6,163.2
					C182.6,163.2,182.6,163.2,182.6,163.2z"/>
				<path class="st14" d="M180.7,161.4l-4-1c-0.2,0-0.3-0.2-0.2-0.4c0,0,0,0,0,0l0.1-0.2c0-0.2,0.2-0.3,0.4-0.2c0,0,0,0,0,0l4,1
					c0.2,0,0.3,0.2,0.2,0.4c0,0,0,0,0,0v0.2C181.1,161.4,180.9,161.5,180.7,161.4C180.7,161.4,180.7,161.4,180.7,161.4z"/>
				<path class="st14" d="M184.3,161.4l4.1-0.9c0.2,0,0.3-0.2,0.2-0.4c0,0,0,0,0,0v-0.2c0-0.2-0.2-0.3-0.4-0.3l-4.1,0.9
					c-0.2,0-0.3,0.2-0.2,0.4c0,0,0,0,0,0v0.2C183.9,161.3,184.1,161.4,184.3,161.4z"/>
				<path class="st14" d="M182.6,179.8L182.6,179.8c-4.8,0-8.7-4.2-8.7-9.3v-5l17.2-0.3l0.1,5.3
					C191.3,175.7,187.4,179.8,182.6,179.8z"/>
				<path class="st23" d="M190.6,180.2l1-2.2l0,0c-1-1-1-2.6-0.1-3.7c0.5-0.6,1.3-0.9,2.1-0.8l6.4-14.9l-2-1
					c0.3,1.9,0.1,3.8-0.7,5.5c-0.9,2.3-2.7,4.1-5,5.1c-2.2,0.8-3.9,2.4-4.8,4.5c-1.1,2.6-1,5.5,0.2,8c0.5-0.4,1.1-0.8,1.7-1.1
					L190.6,180.2z"/>
				<rect x="174" y="158.2" class="st14" width="1.9" height="8.7"/>
				<rect x="189.3" y="158.2" class="st14" width="2.1" height="8.7"/>
				<path class="st14" d="M174.5,157.6h16c0,0,0.1,0,0.1,0.1v1.7c0,0,0,0.1-0.1,0.1h-16c0,0-0.1,0-0.1-0.1L174.5,157.6
					C174.4,157.6,174.4,157.6,174.5,157.6z"/>
				<path class="st11" d="M182.8,168.5c1,0,1.8-0.6,2.2-1.5c0.2-0.3,0-0.8-0.3-0.9c-0.1,0-0.2-0.1-0.3-0.1h-3.1
					c-0.4,0-0.7,0.3-0.7,0.7c0,0.1,0,0.2,0.1,0.3C181,167.9,181.9,168.5,182.8,168.5z"/>
				<path class="st11" d="M188.7,151.5c-2.1,0-4-1.6-5.1-3.9c-0.2-0.5-0.7-0.7-1.2-0.5c-0.2,0.1-0.4,0.3-0.5,0.5
					c-1,2.4-2.9,3.9-5,3.9c-1.3,0-2.5-0.6-3.4-1.5c-0.2-0.2-0.5-0.1-0.6,0.1c-0.1,0.1-0.1,0.2-0.1,0.3v3.2c0,1.7,1,3.1,2.3,3.1h15.7
					c1.2,0,2.3-1.4,2.3-3.1v-3.4c0-0.2-0.2-0.5-0.4-0.5c-0.1,0-0.3,0-0.3,0.1C191.4,150.9,190.1,151.5,188.7,151.5z"/>
				<path class="st15" d="M173.9,156h17.9c0.5,0,0.9,0.4,0.9,0.9v0.6c0,0.5-0.4,0.9-0.9,0.9h-17.9c-0.5,0-0.9-0.4-0.9-0.9v-0.6
					C173,156.4,173.4,156,173.9,156z"/>
				<path class="st15" d="M182.9,167.5c-0.2,0-0.3,0.2-0.3,0.3c0,0,0,0,0,0h0.6C183.2,167.7,183.1,167.6,182.9,167.5
					C182.9,167.5,182.9,167.5,182.9,167.5z"/>
				<path class="st14" d="M178.9,161.2h0.2c0.3,0,0.6,0.3,0.6,0.6v1.9c0,0.3-0.3,0.6-0.6,0.6h-0.2c-0.3,0-0.6-0.3-0.6-0.6v-1.9
					C178.3,161.4,178.6,161.2,178.9,161.2z"/>
				<path class="st14" d="M185.5,161.2h0.2c0.3,0,0.6,0.3,0.6,0.6v1.9c0,0.3-0.3,0.6-0.6,0.6h-0.2c-0.3,0-0.6-0.3-0.6-0.6v-1.9
					C184.9,161.4,185.2,161.2,185.5,161.2z"/>
				<path class="st24" d="M187.8,180.7c-1.2-2.5-1.3-5.4-0.2-8c0.9-2.1,2.6-3.8,4.8-4.5c2.3-0.9,4.1-2.8,5-5.1
					c0.8-1.7,1-3.7,0.7-5.5l-1.1-0.6c-0.1,0-0.1,0-0.2,0c0.5,1.8,0.3,3.8-0.4,5.5c-0.5,1.2-1.2,2.2-2.2,3.1
					c-1.2,1.1-2.9,1.4-4.2,2.4c-1.5,1.1-2.6,2.5-3.4,4.2c-1.3,3-1.2,6.5,0.3,9.4C187.2,181.2,187.5,181,187.8,180.7z"/>
				<path class="st15" d="M183.9,167.4c0,0-0.1,0-0.1,0c-0.5-0.5-1.3-0.5-1.9,0c-0.1,0.1-0.3,0.1-0.4,0s-0.1-0.3,0-0.4l0,0
					c0.7-0.6,1.8-0.6,2.5,0c0.1,0.1,0.1,0.3,0,0.4C184.1,167.4,184,167.4,183.9,167.4L183.9,167.4z"/>
				<path class="st18" d="M157,160.4L157,160.4c1.1,0,1.9-0.9,1.9-1.9v-28.8c0-1.1-0.9-1.9-1.9-1.9l0,0c-1.1,0-1.9,0.9-1.9,1.9v28.8
					C155.1,159.5,155.9,160.4,157,160.4L157,160.4z"/>
				<path class="st20" d="M162.6,118.6c0.1-2.6-1.2-5-3.3-6.4c-0.5-0.2-1.1,0-1.3,0.5c-0.1,0.2-0.1,0.4-0.1,0.6
					c0.1,0.5,0.2,1,0.1,1.5c-0.3,2.1-2.2,3.6-4.3,3.4c-0.4-0.1-0.8-0.2-1.2-0.4c-0.4-0.2-0.9,0-1.1,0.4c-0.1,0.1-0.1,0.2-0.1,0.3
					l0,0c0,3.9,2.5,7,5.6,7S162.6,122.5,162.6,118.6z"/>
				<path class="st11" d="M159,116.8C159,116.8,159,116.8,159,116.8c0,1.9-1.5,3.4-3.3,3.4c-0.3,0-0.6,0-0.8-0.1
					c0.1,1.4,1.2,2.6,2.6,2.7c1.5,0,2.6-1.5,2.6-3.3C160.1,118.5,159.7,117.5,159,116.8z"/>
				<path class="st25" d="M23.3,258c0,0,68.8-16.9,192.9,5v27.3H23.3V258z"/>
				<path class="st26" d="M162.7,270c-1.8,0-3.4-0.5-3.9-1.1c-0.1,0.1-0.2,0.3-0.2,0.5c0,0.9,1.9,1.6,4.1,1.6s4.1-0.7,4.1-1.6
					c0-0.2-0.1-0.4-0.2-0.5C166.1,269.6,164.5,270,162.7,270z"/>
				<path class="st26" d="M158.8,281.5c-1.8,0-3.4-0.5-3.9-1.1c-0.1,0.1-0.2,0.3-0.2,0.5c0,0.9,1.9,1.6,4.1,1.6s4.1-0.7,4.1-1.6
					c0-0.2-0.1-0.4-0.2-0.5C162.2,281,160.6,281.5,158.8,281.5z"/>
				<path class="st26" d="M43.5,283.8c-1.8,0-3.4-0.5-3.9-1.1c-0.1,0.1-0.2,0.3-0.2,0.5c0,0.9,1.9,1.6,4.2,1.6s4.1-0.7,4.1-1.6
					c0-0.2-0.1-0.4-0.2-0.5C46.9,283.3,45.4,283.8,43.5,283.8z"/>
				<path class="st26" d="M140.1,276.5c-1,0.1-2-0.2-2.9-0.8c-0.1,0.1-0.2,0.2-0.2,0.4c0,0.6,1.4,1.2,3,1.2s3-0.5,3-1.2
					c0-0.1-0.1-0.3-0.1-0.4C142.1,276.3,141.1,276.6,140.1,276.5z"/>
				<path class="st26" d="M146.4,266.3c-1,0.1-2-0.2-2.9-0.8c-0.1,0.1-0.1,0.2-0.1,0.4c0,0.6,1.4,1.2,3,1.2s3-0.5,3-1.2
					c0-0.1-0.1-0.3-0.2-0.4C148.5,266.1,147.5,266.4,146.4,266.3z"/>
				<path class="st26" d="M60.1,272.1c-1,0.1-2-0.2-2.9-0.8c-0.1,0.1-0.1,0.2-0.2,0.4c0,0.6,1.3,1.2,3,1.2s3-0.5,3-1.2
					c0-0.1-0.1-0.3-0.2-0.4C62.1,271.9,61.1,272.2,60.1,272.1z"/>
				<path class="st26" d="M88.3,284.5c-1,0.1-2-0.2-2.9-0.8c-0.1,0.1-0.1,0.2-0.2,0.4c0,0.6,1.3,1.2,3,1.2s3-0.5,3-1.2
					c0-0.1-0.1-0.3-0.2-0.4C90.3,284.3,89.3,284.6,88.3,284.5z"/>
				<path class="st26" d="M136,284.9c-0.5,0-1.1-0.1-1.5-0.4c0,0.1-0.1,0.1-0.1,0.2c0,0.3,0.7,0.6,1.6,0.6s1.6-0.3,1.6-0.6
					c0-0.1,0-0.1-0.1-0.2C137.1,284.8,136.5,285,136,284.9z"/>
				<path class="st26" d="M117.1,280.4c-0.5,0-1.1-0.1-1.5-0.4c-0.1,0-0.1,0.1-0.1,0.2c0,0.3,0.7,0.6,1.6,0.6s1.6-0.3,1.6-0.6
					c0-0.1,0-0.1-0.1-0.2C118.2,280.3,117.6,280.4,117.1,280.4z"/>
				<path class="st26" d="M117.1,257.2c-0.5,0-1.1-0.1-1.5-0.4c-0.1,0-0.1,0.1-0.1,0.2c0,0.3,0.7,0.6,1.6,0.6s1.6-0.3,1.6-0.6
					c0-0.1,0-0.1-0.1-0.2C118.2,257.1,117.6,257.3,117.1,257.2z"/>
				<path class="st26" d="M99.3,261.4c-0.5,0-1.1-0.1-1.5-0.4c0,0.1-0.1,0.1-0.1,0.2c0,0.3,0.7,0.6,1.6,0.6s1.6-0.3,1.6-0.6
					c0-0.1,0-0.1-0.1-0.2C100.4,261.3,99.8,261.4,99.3,261.4z"/>
				<path class="st26" d="M133.9,268.9c-0.5,0-1.1-0.1-1.5-0.4c-0.1,0-0.1,0.1-0.1,0.2c0,0.3,0.7,0.6,1.6,0.6s1.6-0.3,1.6-0.6
					c0-0.1,0-0.1-0.1-0.2C134.9,268.8,134.4,268.9,133.9,268.9z"/>
				<path class="st26" d="M139.6,257c-0.5,0-1.1-0.1-1.5-0.4c0,0.1-0.1,0.1-0.1,0.2c0,0.3,0.7,0.6,1.6,0.6s1.6-0.3,1.6-0.6
					c0-0.1,0-0.1-0.1-0.2C140.7,256.9,140.1,257,139.6,257z"/>
				<path class="st26" d="M104.9,278.7c-0.5,0-1.1-0.1-1.5-0.4c-0.1,0-0.1,0.1-0.1,0.2c0,0.3,0.7,0.6,1.6,0.6s1.6-0.3,1.6-0.6
					c0-0.1,0-0.1-0.1-0.2C106,278.6,105.5,278.8,104.9,278.7z"/>
				<path class="st26" d="M53.3,279.6c-0.5,0-1.1-0.1-1.5-0.4c0,0.1-0.1,0.1-0.1,0.2c0,0.3,0.7,0.6,1.6,0.6s1.6-0.3,1.6-0.6
					c0-0.1,0-0.1-0.1-0.2C54.4,279.5,53.8,279.7,53.3,279.6z"/>
				<path class="st26" d="M56,263c-0.5,0-1.1-0.1-1.5-0.4c0,0.1-0.1,0.1-0.1,0.2c0,0.3,0.7,0.6,1.6,0.6s1.6-0.3,1.6-0.6
					c0-0.1,0-0.1-0.1-0.2C57.1,262.9,56.5,263,56,263z"/>
				<path class="st26" d="M135.8,282.4c-0.5,0-1.1-0.1-1.5-0.4c0,0.1-0.1,0.1-0.1,0.2c0,0.3,0.7,0.6,1.6,0.6s1.6-0.3,1.6-0.6
					c0-0.1,0-0.1-0.1-0.2C136.9,282.3,136.3,282.4,135.8,282.4z"/>
				<path class="st26" d="M128.7,275c-0.5,0-1.1-0.1-1.5-0.4c-0.1,0-0.1,0.1-0.1,0.2c0,0.3,0.7,0.6,1.6,0.6c0.9,0,1.6-0.3,1.6-0.6
					c0-0.1,0-0.1-0.1-0.2C129.8,274.9,129.2,275,128.7,275z"/>
				<path class="st26" d="M155,272.8c-0.5,0-1.1-0.1-1.5-0.4c0,0.1-0.1,0.1-0.1,0.2c0,0.3,0.7,0.6,1.6,0.6s1.6-0.3,1.6-0.6
					c0-0.1,0-0.1-0.1-0.2C156.1,272.7,155.5,272.8,155,272.8z"/>
				<path class="st26" d="M172.6,261.9c-0.5,0-1.1-0.1-1.5-0.4c-0.1,0.1-0.1,0.1-0.1,0.2c0,0.3,0.7,0.6,1.6,0.6s1.6-0.3,1.6-0.6
					c0-0.1,0-0.1-0.1-0.2C173.7,261.8,173.2,261.9,172.6,261.9z"/>
				<path class="st26" d="M181.2,271.5c-0.5,0-1.1-0.1-1.5-0.4c0,0.1-0.1,0.1-0.1,0.2c0,0.3,0.7,0.6,1.6,0.6s1.6-0.3,1.6-0.6
					c0-0.1,0-0.1-0.1-0.2C182.3,271.3,181.8,271.5,181.2,271.5z"/>
				<path class="st26" d="M168.6,276.4c-0.5,0-1.1-0.1-1.5-0.4c0,0.1-0.1,0.1-0.1,0.2c0,0.3,0.7,0.6,1.6,0.6s1.6-0.3,1.6-0.6
					c0-0.1,0-0.1-0.1-0.2C169.7,276.3,169.2,276.4,168.6,276.4z"/>
				<path class="st26" d="M160.4,262.7c-0.5,0-1.1-0.1-1.5-0.4c-0.1,0-0.1,0.1-0.1,0.2c0,0.3,0.7,0.6,1.6,0.6s1.6-0.3,1.6-0.6
					c0-0.1,0-0.1-0.1-0.2C161.5,262.6,160.9,262.7,160.4,262.7z"/>
				<path class="st26" d="M177.5,279.4c-1.8,0-3.4-0.5-3.9-1.1c-0.1,0.1-0.2,0.3-0.2,0.5c0,0.9,1.9,1.6,4.1,1.6s4.1-0.7,4.1-1.6
					c0-0.2-0.1-0.4-0.2-0.5C180.9,278.9,179.4,279.4,177.5,279.4z"/>
				<path class="st26" d="M196,278.3c-1,0.1-2-0.2-2.8-0.8c-0.1,0.1-0.1,0.2-0.1,0.4c0,0.6,1.3,1.1,2.9,1.1s2.9-0.5,2.9-1.1
					c0-0.1-0.1-0.3-0.1-0.4C198,278.1,197,278.4,196,278.3z"/>
				<path class="st26" d="M43.5,265.6c-1.8,0-3.4-0.5-3.9-1.1c-0.1,0.1-0.2,0.3-0.2,0.5c0,0.9,1.9,1.6,4.2,1.6s4.1-0.7,4.1-1.6
					c0-0.2-0.1-0.4-0.2-0.5C46.9,265.1,45.4,265.6,43.5,265.6z"/>
				<path class="st26" d="M101.8,272.1c-1.8,0-3.4-0.5-3.9-1.1c-0.1,0.1-0.2,0.3-0.2,0.5c0,0.9,1.9,1.6,4.1,1.6s4.2-0.7,4.2-1.6
					c0-0.2-0.1-0.4-0.2-0.5C105.2,271.7,103.7,272.1,101.8,272.1z"/>
				<path class="st26" d="M128.1,263.7c-1.8,0-3.4-0.5-3.9-1.1c-0.1,0.1-0.2,0.3-0.2,0.5c0,0.9,1.8,1.6,4.1,1.6
					c2.3,0,4.1-0.7,4.1-1.6c0-0.2-0.1-0.4-0.2-0.5C131.5,263.2,130,263.7,128.1,263.7z"/>
				<path class="st26" d="M118.7,270.4c-1.8,0-3.4-0.5-3.9-1.1c-0.1,0.1-0.2,0.3-0.2,0.5c0,0.9,1.8,1.6,4.1,1.6s4.1-0.7,4.1-1.6
					c0-0.2-0.1-0.4-0.2-0.5C122.1,269.9,120.5,270.4,118.7,270.4z"/>
				<path class="st26" d="M28.1,274.2c-1.8,0-3.4-0.5-3.9-1.1c-0.1,0.1-0.2,0.3-0.2,0.5c0,0.9,1.9,1.6,4.1,1.6s4.2-0.7,4.2-1.6
					c0-0.2-0.1-0.4-0.2-0.5C31.5,273.8,30,274.2,28.1,274.2z"/>
				<path class="st26" d="M187.9,267.5c-0.9,0.1-1.9-0.2-2.6-0.7c-0.1,0.1-0.1,0.2-0.1,0.3c0,0.6,1.2,1,2.7,1s2.7-0.5,2.7-1
					c0-0.1-0.1-0.2-0.1-0.3C189.8,267.3,188.8,267.6,187.9,267.5z"/>
				<path class="st27" d="M94.9,179c-3.3,0.2-6.1-2.3-6.3-5.6s2.3-6.1,5.6-6.3c0.2,0,0.5,0,0.7,0c8.6,0,15.1-2.6,20-8.1
					c12.8-14.2,11.3-44.6,9.6-55c-0.5-3.3,1.8-6.3,5.1-6.8c0,0,0.1,0,0.1,0c3.3-0.6,6.5,1.7,7.1,5c0.3,1.8,6.8,43.4-12.4,64.6
					C117.1,174.9,107.2,179,94.9,179z"/>
				<path class="st28" d="M123.5,94.5v17.6c0,6.9-5.6,12.5-12.5,12.5H25c-6.9,0-12.5-5.6-12.5-12.5V94.5c0-6.9,5.6-12.5,12.5-12.5
					h86C117.9,82.1,123.5,87.6,123.5,94.5z"/>
				<circle class="st29" cx="94.9" cy="91.8" r="9.9"/>
				<circle class="st29" cx="89.9" cy="102.8" r="9.9"/>
				<circle class="st12" cx="94.1" cy="115.4" r="9.9"/>
				<path class="st28" d="M123.2,119.8c-3.3,3.4-1.5,7.8,0.3,13c1.9,5.2,3.3,9.8,8,10.3c1.4-1.5,2.4-3.3,3-5.2
					c-0.3,0.4-0.5,0.7-0.9,1c-3.5-0.4-4.7-3.7-6.1-7.6s-2.6-7.2-0.1-9.7c0.4,0,0.9,0.1,1.3,0.2C127.2,120.8,125.2,120.1,123.2,119.8
					z"/>
				<path class="st29" d="M127.7,131.4c1.4,3.9,2.6,7.2,6.1,7.6c0.3-0.3,0.6-0.6,0.9-1c1.7-6-0.6-12.4-5.7-16
					c-0.4-0.1-0.9-0.2-1.3-0.2C125.1,124.2,126.3,127.6,127.7,131.4z"/>
				<path class="st28" d="M123.2,89.9c-3.3-3.4-1.5-7.8,0.3-13s3.3-9.8,8-10.3c1.4,1.5,2.4,3.3,3,5.2c-0.3-0.4-0.6-0.7-0.9-1
					c-3.5,0.4-4.7,3.7-6.1,7.6s-2.6,7.2-0.1,9.7c0.4,0,0.9-0.1,1.3-0.2C127.2,89,125.2,89.7,123.2,89.9z"/>
				<path class="st29" d="M127.7,78.3c1.4-3.9,2.6-7.2,6.1-7.6c0.3,0.3,0.6,0.6,0.9,1c1.7,6-0.6,12.4-5.7,16
					c-0.4,0.1-0.9,0.2-1.3,0.2C125.1,85.5,126.3,82.2,127.7,78.3z"/>
				<path class="st19" d="M156.4,111.9l-37,16.2c-4.1,1.8-8.9,0-10.7-4.1c-0.5-1.1-0.7-2.2-0.7-3.4V88.3c0-4.5,3.6-8.1,8.1-8.1
					c1.1,0,2.2,0.2,3.2,0.7l37,16.2c4.1,1.8,6,6.6,4.2,10.7C159.8,109.6,158.3,111.1,156.4,111.9z"/>
				<circle class="st28" cx="111.5" cy="85.3" r="14.1"/>
				<circle class="st28" cx="111.5" cy="123.3" r="14.1"/>
				<circle class="st28" cx="108" cy="104.4" r="12.1"/>
				<path class="st20" d="M153.9,106.8v-3.4c0-1.5-1.2-2.7-2.8-2.8l0,0c-1.5,0-2.8,1.2-2.8,2.8v3.4c0,1.5,1.2,2.8,2.8,2.8l0,0
					C152.6,109.5,153.8,108.3,153.9,106.8z"/>
				<path class="st16" d="M136.5,92.5c0-0.4-0.1-0.7-0.4-0.9c-0.5-0.5-1.4-0.5-1.9,0c0,0,0,0,0,0l-6.9,6.9c-0.5,0.5-0.5,1.4,0,1.9
					c0.5,0.5,1.4,0.5,1.9,0l6.9-6.9C136.3,93.2,136.5,92.9,136.5,92.5z"/>
				<path class="st16" d="M136.5,99.4c0-0.4-0.1-0.7-0.4-0.9l-6.9-6.9c-0.5-0.5-1.4-0.5-1.9,0s-0.5,1.4,0,1.9l6.9,6.9
					c0.5,0.5,1.4,0.5,1.9,0c0,0,0,0,0,0C136.3,100.1,136.5,99.7,136.5,99.4z"/>
				<path class="st16" d="M136.5,108.9c0-0.7-0.6-1.3-1.3-1.3c-0.3,0-0.7,0.1-0.9,0.4l-6.9,6.9c-0.5,0.5-0.6,1.3-0.1,1.9
					c0.5,0.5,1.3,0.6,1.9,0.1c0,0,0.1-0.1,0.1-0.1l6.9-6.9C136.3,109.6,136.5,109.2,136.5,108.9z"/>
				<path class="st16" d="M136.5,115.7c0-0.3-0.1-0.7-0.4-0.9l-6.9-6.8c-0.5-0.5-1.3-0.6-1.9-0.1s-0.6,1.3-0.1,1.9
					c0,0,0.1,0.1,0.1,0.1l6.9,6.9c0.5,0.5,1.4,0.5,1.9,0C136.3,116.5,136.5,116.1,136.5,115.7L136.5,115.7z"/>
				<circle class="st28" cx="98.2" cy="91.8" r="9.9"/>
				<circle class="st28" cx="93.2" cy="102.8" r="9.9"/>
				<circle class="st28" cx="97.3" cy="115.4" r="9.9"/>
				<path class="st19" d="M115,134c-4.7-3-6.2-9.2-3.4-14.1c0.9-1.6,2.3-3,3.9-3.9c-5.2-0.3-10.2,2.4-12.8,7
					c-3.9,6.8-1.8,15.5,4.8,19.7c6.3,3.9,14.5,2,18.4-4.3c0.1-0.2,0.3-0.4,0.4-0.7c1.2-2.2,1.9-4.6,1.9-7.1c-2.6,4.6-8.4,6.2-13,3.5
					C115.2,134.1,115.1,134.1,115,134z"/>
				<path class="st28" d="M113.9,121.9c1.8,0,3.3-1.5,3.3-3.3c0-1.8-1.5-3.3-3.3-3.3c-1.8,0-3.3,1.5-3.3,3.3
					S112.1,121.9,113.9,121.9C113.9,121.9,113.9,121.9,113.9,121.9z"/>
				<path class="st28" d="M109,123c2.3,0,4.2-1.9,4.2-4.2s-1.9-4.2-4.2-4.2c-2.3,0-4.2,1.9-4.2,4.2C104.8,121.1,106.7,123,109,123
					L109,123z"/>
				<path class="st28" d="M103.7,126.1c2.6,0,4.7-2.1,4.7-4.7c0-2.6-2.1-4.7-4.7-4.7c-2.6,0-4.7,2.1-4.7,4.7
					C99,124,101.1,126.1,103.7,126.1C103.7,126.1,103.7,126.1,103.7,126.1z"/>
				<path class="st28" d="M109.9,120.6c-2.2,0-4,1.8-4,4s1.8,4,4,4s4-1.8,4-4S112.1,120.6,109.9,120.6z"/>
				<path class="st19" d="M115,72.8c-4.7,3-6.2,9.2-3.4,14.1c0.9,1.6,2.3,3,3.9,3.9c-5.2,0.3-10.2-2.4-12.8-7
					c-3.9-6.8-1.8-15.5,4.8-19.7c6.3-3.9,14.5-2,18.4,4.3c0.1,0.2,0.3,0.4,0.4,0.7c1.2,2.2,1.9,4.6,1.9,7.1c-2.6-4.6-8.5-6.1-13-3.5
					C115.1,72.7,115.1,72.7,115,72.8z"/>
				<path class="st28" d="M113.9,87.4c1.8,0,3.3,1.5,3.3,3.3c0,1.8-1.5,3.3-3.3,3.3c-1.8,0-3.3-1.5-3.3-3.3S112.1,87.4,113.9,87.4
					C113.9,87.4,113.9,87.4,113.9,87.4z"/>
				<path class="st28" d="M109,86.3c2.3,0,4.2,1.9,4.2,4.2s-1.9,4.2-4.2,4.2c-2.3,0-4.2-1.9-4.2-4.2C104.8,88.2,106.7,86.3,109,86.3
					z"/>
				<path class="st28" d="M103.7,83.2c2.6,0,4.7,2.1,4.7,4.7c0,2.6-2.1,4.7-4.7,4.7c-2.6,0-4.7-2.1-4.7-4.7c0,0,0,0,0,0
					C99.1,85.3,101.2,83.2,103.7,83.2z"/>
				<path class="st28" d="M109.9,88.8c-2.2,0-4-1.8-4-4s1.8-4,4-4s4,1.8,4,4S112.1,88.8,109.9,88.8z"/>
				<rect x="55.2" y="123.5" class="st27" width="48" height="13.5"/>
				<path class="st11" d="M107.7,135c0,3-2.4,5.4-5.4,5.4s-5.4-2.4-5.4-5.4c0-3,2.4-5.4,5.4-5.4c0,0,0,0,0,0
					C105.2,129.6,107.7,132,107.7,135z"/>
				<path class="st15" d="M105.6,135c0,1.8-1.5,3.3-3.3,3.3c-1.8,0-3.3-1.5-3.3-3.3c0-1.8,1.5-3.3,3.3-3.3c0,0,0,0,0,0
					C104.1,131.7,105.5,133.2,105.6,135z"/>
				<path class="st11" d="M62.1,135c0,3-2.4,5.4-5.4,5.4c-3,0-5.4-2.4-5.4-5.4c0-3,2.4-5.4,5.4-5.4c0,0,0,0,0,0
					C59.7,129.6,62.1,132,62.1,135z"/>
				<path class="st15" d="M60,135c0,1.8-1.5,3.3-3.3,3.3c-1.8,0-3.3-1.5-3.3-3.3c0-1.8,1.5-3.3,3.3-3.3c0,0,0,0,0,0
					C58.5,131.7,60,133.2,60,135z"/>
				<path class="st11" d="M99.6,290.6l-0.7-0.8c-0.4-0.4-0.9-0.8-1.5-0.9l-3.5-0.8c0-0.1,0-0.1,0-0.2v-50c0.1-2.7-1.9-4.9-4.6-5
					c-2.7-0.1-4.9,1.9-5,4.6c0,0.1,0,0.3,0,0.4v49.1c-0.7,0.5-1.1,1.4-1.1,2.3v3.1c0,1.6,1.3,2.9,2.9,2.9c0,0,0,0,0.1,0h11.5
					c1.6,0,2.9-1.3,2.9-2.9C100.3,291.8,100.1,291.2,99.6,290.6z"/>
				<path class="st13" d="M93.5,267.5h-9.4c-0.3,0-0.5-0.2-0.5-0.5v-0.8c0-0.3,0.2-0.5,0.5-0.5h9.4c0.3,0,0.5,0.2,0.5,0.5v0.8
					C94,267.3,93.8,267.5,93.5,267.5z"/>
				<path class="st13" d="M93.7,278.4l-0.7,0.6c-0.3,0.2-0.6,0.1-0.8-0.1l-8.3-10.9c-0.2-0.3-0.1-0.6,0.1-0.8l0.7-0.6
					c0.3-0.2,0.6-0.1,0.8,0.1l8.3,10.9C94,277.9,93.9,278.2,93.7,278.4z"/>
				<path class="st13" d="M94.1,267l0.7,0.5c0.2,0.2,0.3,0.5,0.1,0.7l-8.3,11.1c-0.2,0.2-0.5,0.3-0.7,0.1l-0.7-0.5
					c-0.2-0.2-0.3-0.5-0.1-0.7l8.3-11.1C93.6,266.8,93.9,266.8,94.1,267z"/>
				<path class="st13" d="M93.7,288.8l-0.7,0.6c-0.3,0.2-0.6,0.1-0.8-0.1l-8.3-10.9c-0.2-0.3-0.1-0.6,0.1-0.8l0.7-0.6
					c0.3-0.2,0.6-0.1,0.8,0.1l8.3,10.9C94,288.2,94,288.6,93.7,288.8z"/>
				<path class="st13" d="M92.9,277l0.7,0.6c0.3,0.2,0.3,0.6,0.1,0.8l-8.3,10.9c-0.2,0.3-0.6,0.3-0.8,0.1l-0.7-0.6
					c-0.3-0.2-0.3-0.6-0.1-0.8l8.3-10.9C92.3,276.8,92.7,276.8,92.9,277z"/>
				<path class="st13" d="M97.8,294.9H97c-0.3,0-0.5-0.2-0.5-0.5v-5.1c0-0.3,0.2-0.5,0.5-0.5h0.7c0.3,0,0.5,0.2,0.5,0.5v5.1
					C98.3,294.7,98.1,294.9,97.8,294.9z"/>
				<path class="st13" d="M94.4,294.9h-0.7c-0.3,0-0.5-0.2-0.5-0.5v-5.9c0-0.3,0.2-0.5,0.5-0.5h0.7c0.3,0,0.5,0.2,0.5,0.5v5.9
					C94.9,294.7,94.7,294.9,94.4,294.9z"/>
				<path class="st13" d="M93.5,289.8h-9c-0.3,0-0.5-0.2-0.5-0.5v-0.8c0-0.3,0.2-0.5,0.5-0.5h9c0.3,0,0.5,0.2,0.5,0.5v0.8
					C94,289.5,93.8,289.8,93.5,289.8z"/>
				<path class="st13" d="M82.7,294h17.1c0.3,0,0.5,0.2,0.5,0.5v0.8c0,0.3-0.2,0.5-0.5,0.5H82.7c-0.3,0-0.5-0.2-0.5-0.5v-0.8
					C82.2,294.2,82.5,294,82.7,294z"/>
				<path class="st11" d="M74.2,287.2V238c0-2.7-2.2-4.8-4.8-4.8c-2.7,0-4.8,2.2-4.8,4.8v50.2l-3.5,0.8c-0.6,0.1-1.1,0.4-1.5,0.9
					l-0.7,0.8c-1.1,1.2-1,3,0.2,4.1c0.5,0.5,1.2,0.8,2,0.7h11.5c1.6,0,2.9-1.3,2.9-2.9v-3.1C75.4,288.5,74.9,287.7,74.2,287.2z"/>
				<path class="st13" d="M64.8,265.7h9.4c0.3,0,0.5,0.2,0.5,0.5v0.8c0,0.3-0.2,0.5-0.5,0.5h-9.4c-0.3,0-0.5-0.2-0.5-0.5v-0.8
					C64.3,265.9,64.5,265.7,64.8,265.7z"/>
				<path class="st13" d="M73.6,266.5l0.7,0.6c0.3,0.2,0.3,0.6,0.1,0.8l-8.3,10.9c-0.2,0.3-0.6,0.3-0.8,0.1l-0.7-0.6
					c-0.3-0.2-0.3-0.6-0.1-0.8l8.3-10.9C73,266.4,73.4,266.4,73.6,266.5z"/>
				<path class="st13" d="M74.4,278.4l-0.7,0.6c-0.3,0.2-0.6,0.1-0.8-0.1l-8.3-10.9c-0.2-0.3-0.1-0.6,0.1-0.8l0.7-0.6
					c0.3-0.2,0.6-0.1,0.8,0.1l8.3,10.9C74.7,277.9,74.6,278.2,74.4,278.4z"/>
				<path class="st13" d="M73.6,277l0.7,0.6c0.3,0.2,0.3,0.6,0.1,0.8l-8.3,10.9c-0.2,0.3-0.6,0.3-0.8,0.1l-0.7-0.6
					c-0.3-0.2-0.3-0.6-0.1-0.8l8.3-10.9C73,276.8,73.4,276.8,73.6,277z"/>
				<path class="st13" d="M74.4,288.8l-0.7,0.6c-0.3,0.2-0.6,0.1-0.8-0.1l-8.3-10.9c-0.2-0.3-0.1-0.6,0.1-0.8l0.7-0.6
					c0.3-0.2,0.6-0.1,0.8,0.1l8.3,10.9C74.7,288.2,74.6,288.6,74.4,288.8z"/>
				<path class="st13" d="M60.5,288.4h0.7c0.3,0,0.5,0.2,0.5,0.5v5.1c0,0.3-0.2,0.5-0.5,0.5h-0.7c-0.3,0-0.5-0.2-0.5-0.5v-5.1
					C60.1,288.6,60.3,288.4,60.5,288.4z"/>
				<path class="st13" d="M63.9,287.9h0.7c0.3,0,0.5,0.2,0.5,0.5v5.6c0,0.3-0.2,0.5-0.5,0.5h-0.7c-0.3,0-0.5-0.2-0.5-0.5v-5.6
					C63.4,288.1,63.7,287.9,63.9,287.9z"/>
				<path class="st13" d="M64.8,287.9h9c0.3,0,0.5,0.2,0.5,0.5v0.8c0,0.3-0.2,0.5-0.5,0.5h-9c-0.3,0-0.5-0.2-0.5-0.5v-0.8
					C64.3,288.1,64.5,287.9,64.8,287.9z"/>
				<path class="st13" d="M58.1,294h17.1c0.3,0,0.5,0.2,0.5,0.5v0.8c0,0.3-0.2,0.5-0.5,0.5H58.1c-0.3,0-0.5-0.2-0.5-0.5v-0.8
					C57.6,294.2,57.9,294,58.1,294z"/>
				<path class="st13" d="M75.2,295.7h-0.9c-0.3,0-0.6-0.2-0.6-0.5v-7.5c0-0.3,0.2-0.5,0.6-0.5h0.9c0.3,0,0.6,0.2,0.6,0.5v7.5
					C75.7,295.5,75.5,295.7,75.2,295.7z"/>
				<path class="st13" d="M82.7,287.1h0.9c0.3,0,0.6,0.2,0.6,0.5v7.6c0,0.3-0.2,0.5-0.6,0.5h-0.9c-0.3,0-0.6-0.2-0.6-0.5v-7.6
					C82.1,287.3,82.4,287.1,82.7,287.1z"/>
				<rect x="72.8" y="153.3" class="st11" width="13.9" height="13.4"/>
				<path class="st11" d="M79.5,170.9c5,0,9.6-2.7,12-7.1c-3.1-1.5-6.5-2.3-9.9-2.3h-4.1c-3.4,0-6.8,0.8-9.9,2.3
					C69.9,168.1,74.5,170.9,79.5,170.9z"/>
				<path class="st20" d="M93.1,164.6c-0.5-0.3-1.1-0.6-1.6-0.9c-3.6,6.6-11.8,9.1-18.4,5.5c-2.3-1.3-4.3-3.2-5.5-5.5
					c-1.2,0.6-2.3,1.3-3.4,2.2l-0.1,0.1c3.5,1.8,4.9,6.1,3.1,9.5c-1.8,3.5-6.1,4.9-9.5,3.1c0,0-0.1,0-0.1-0.1c0,0.2,0,0.4,0,0.5
					v70.5h44V179C101.4,173.1,98.2,167.6,93.1,164.6z"/>
				<path class="st11" d="M67.9,172.2c0-2.6-1.5-5-3.8-6.2c-3.9,3-6.3,7.6-6.6,12.6c3.5,1.8,7.7,0.5,9.6-2.9
					C67.6,174.6,67.9,173.4,67.9,172.2L67.9,172.2z"/>
				<path class="st30" d="M57,210.3h46.4c1,0,1.8,0.8,1.8,1.8v2.9c0,1-0.8,1.8-1.8,1.8H57c-1,0-1.8-0.8-1.8-1.8v-2.9
					C55.2,211.1,56,210.3,57,210.3z"/>
				<path class="st27" d="M79.8,160.8L79.8,160.8c-12.1,0-22-9.9-22-22v-11.5c0-12.1,9.9-22,22-22l0,0c12.1,0,22,9.9,22,22v11.4
					C101.7,150.9,91.9,160.8,79.8,160.8z"/>
				<path class="st11" d="M79.8,158.9L79.8,158.9c-12.1,0-22-9.9-22-22v-11.5c0-12.1,9.9-22,22-22l0,0c12.1,0,22,9.9,22,22v11.4
					C101.7,149,91.9,158.8,79.8,158.9z"/>
				<path class="st18" d="M53.8,124.6C53.9,110.5,65.3,99,79.5,99l0,0c14.2,0,25.6,11.5,25.7,25.7L53.8,124.6z"/>
				<path class="st16" d="M72.5,132.7h0.6c1.3,0,2.4,1.1,2.4,2.4v3.7c0,1.3-1.1,2.4-2.4,2.4h-0.6c-1.3,0-2.4-1.1-2.4-2.4v-3.7
					C70.1,133.8,71.1,132.7,72.5,132.7z"/>
				<path class="st16" d="M91.4,141.2L91.4,141.2c-1.5,0-2.7-1.2-2.7-2.7v-3.1c0-1.5,1.2-2.7,2.7-2.7l0,0c1.5,0,2.7,1.2,2.7,2.7v3.1
					C94.1,140,92.9,141.2,91.4,141.2z"/>
				<path class="st18" d="M96.1,132.6l-5.3-2.2c-1-0.4-1.5-1.6-1.1-2.6l0,0c0.4-1,1.6-1.5,2.6-1.1l5.3,2.2c1,0.4,1.5,1.6,1.1,2.6
					l0,0C98.2,132.5,97.1,133,96.1,132.6z"/>
				<path class="st18" d="M68.2,132.6l5.3-2.2c1-0.4,1.5-1.6,1.1-2.6l0,0c-0.4-1-1.6-1.4-2.6-1.1l-5.3,2.2c-1,0.4-1.5,1.6-1.1,2.6
					l0,0C66.1,132.5,67.2,132.9,68.2,132.6z"/>
				<path class="st15" d="M79.8,141.2c0-1.8,1.4-3.2,3.2-3.2c1.7,0,3.2,1.4,3.2,3.2H79.8z"/>
				<path class="st11" d="M62.7,179c-12.1,0-21.9-3.9-28.9-11.7c-18.8-20.7-10.7-61.9-10.4-63.7c0.8-3.2,4-5.2,7.3-4.6
					c3.2,0.4,5.4,3.3,5,6.4c0,0.1,0,0.2,0,0.2l0,0c-0.1,0.4-7.4,37.7,7.7,54.3c4.6,5.1,11,7.6,19.3,7.6c3.2-0.3,6,2,6.3,5.2
					c0.3,3.2-2,6-5.2,6.3C63.4,179,63,179,62.7,179L62.7,179z"/>
				<path class="st15" d="M88.7,147.4H75.5c-0.4,0-0.7-0.2-0.7-0.6c0-0.4,0.2-0.7,0.6-0.7c0.1,0,0.1,0,0.2,0h13.3
					c0.4,0,0.7,0.2,0.7,0.6c0,0.4-0.2,0.7-0.6,0.7C88.8,147.4,88.8,147.4,88.7,147.4z"/>
				<path class="st20" d="M58.1,220.1c0,0-5.3,32.8-9.6,37.1c0,0,3.1,4.1,9.6,0c0,0,9.9-1.3,13,1.8c0,0,8.7,4.3,13.1-2.6
					c0,0,8.9-3.7,12.6,0c0,0,4.7,3.3,8.7-3.3c0,0-4.4-20-4-30.5L58.1,220.1z"/>
				<circle class="st18" cx="138.5" cy="180.7" r="5.4"/>
				<circle class="st18" cx="158.9" cy="180.7" r="5.4"/>
				<path class="st18" d="M148.6,188.6L148.6,188.6c-5.7,0-10.4-4.7-10.4-10.4l-0.2-15.8l21,0.1v15.7
					C158.9,183.9,154.3,188.5,148.6,188.6z"/>
				<path class="st20" d="M167.7,190.4L167.7,190.4c0.8-1,0.6-2.5-0.5-3.3l-9.7-7.3c-1-0.8-2.5-0.6-3.3,0.4l0,0
					c-0.8,1-0.6,2.5,0.5,3.3l9.7,7.3C165.4,191.6,166.9,191.4,167.7,190.4z"/>
				<path class="st11" d="M173.5,179.3l0.6,0.5c0.8,0.6,1,1.8,0.4,2.7L168,191c-0.6,0.8-1.8,1-2.7,0.4l-0.6-0.5
					c-0.8-0.6-1-1.8-0.4-2.7l6.5-8.5C171.4,178.9,172.6,178.7,173.5,179.3z"/>
				<path class="st18" d="M172.9,148.4h0.4c1,0,1.8,0.8,1.8,1.8v30.3c0,1-0.8,1.8-1.8,1.8h-0.4c-1,0-1.8-0.8-1.8-1.8v-30.3
					C171.1,149.3,171.9,148.4,172.9,148.4z"/>
				<path class="st11" d="M171.3,179.3H170c-0.4,0-0.7-0.3-0.7-0.7v-0.1c0-0.4,0.3-0.7,0.7-0.7h1.4c0.4,0,0.7,0.3,0.7,0.7v0.1
					C172.1,179,171.7,179.3,171.3,179.3z"/>
				<path class="st11" d="M175.3,182.1H175c-0.8,0-1.5-0.7-1.5-1.5v-2.4c0-0.8,0.7-1.5,1.5-1.5h0.3c0.8,0,1.5,0.7,1.5,1.5v2.4
					C176.8,181.4,176.1,182.1,175.3,182.1z"/>
				<path class="st20" d="M173.1,131.7h0.1c-1.6,1.5-1.6,4.1-0.1,5.7s4.1,1.6,5.7,0.1l0,0c0.1,0.5,0.1,1,0.1,1.6
					c0,4-2.6,7.3-5.9,7.3s-5.9-3.3-5.9-7.3S169.9,131.7,173.1,131.7z"/>
				<path class="st11" d="M171,138.9L171,138.9c0,1.9,1.4,3.3,3.2,3.3c0.3,0,0.5,0,0.8-0.1c-0.1,1.4-1.2,2.5-2.6,2.7
					c-1.4,0-2.6-1.4-2.6-3.2C169.9,140.6,170.3,139.6,171,138.9z"/>
				<path class="st11" d="M148.5,174.3h0.6c0.8,0,1.4,0.6,1.4,1.4v4.3c0,0.8-0.6,1.4-1.4,1.4h-0.6c-0.8,0-1.4-0.6-1.4-1.4v-4.3
					C147.1,174.9,147.7,174.3,148.5,174.3z"/>
				<path class="st19" d="M133.3,191.1c-0.8,1.9-1.2,4-0.9,6c0.3,2.1,1.6,4.9,5.9,6.9c1.1,0.5,2.3,0,2.8-1.1s0-2.3-1.1-2.8l0,0
					c-3-1.4-3.3-3-3.4-3.6c-0.1-1.1,0-2.2,0.5-3.2L133.3,191.1z"/>
				<path class="st20" d="M145.3,182.3c0.9-0.8,1-2.1,0.2-3c-0.8-0.9-2.1-1-3-0.2l0,0c-0.9,0.8-6.8,6.1-9.2,12l3.8,2.1
					C138.6,188.9,143.3,184.1,145.3,182.3z"/>
				<path class="st11" d="M148.7,184.5c2.7,0,4.9-2.2,4.9-4.9c0,0,0,0,0,0v-0.1c-1.5-0.8-3.2-1.2-4.9-1.2l0,0c-1.7,0-3.5,0.4-5,1.3
					v0.1C143.7,182.3,145.9,184.5,148.7,184.5C148.6,184.5,148.7,184.5,148.7,184.5z"/>
				<path class="st20" d="M158,184.1c-0.9-2-2.5-3.6-4.4-4.6v0.1c-0.1,2.7-2.4,4.8-5.1,4.7c-2.5-0.1-4.6-2.2-4.7-4.7v-0.1
					c-1.8,1-3.2,2.4-4.1,4.2c-0.8,1.5-1.2,3.1-1.2,4.8v19.8H159v-19.8C159,186.9,158.7,185.4,158,184.1z"/>
				<path class="st11" d="M159.1,239.6l-0.4-0.6c-0.2-0.3-0.4-0.5-0.7-0.7l-1.7-0.6v-18.9c0-2-1-3.6-2.3-3.6s-2.3,1.6-2.3,3.6V237
					c-0.4,0.5-0.6,1.1-0.5,1.7v2.3c0,1.2,0.6,2.1,1.4,2.1h5.6C159.3,243.2,160,241,159.1,239.6z"/>
				<path class="st11" d="M146.9,237v-18.1c0-2-1-3.6-2.3-3.6s-2.3,1.6-2.3,3.6v18.8c0,0,0,0.1,0,0.1l-1.7,0.6
					c-0.3,0.1-0.6,0.4-0.7,0.7l-0.4,0.6c-0.8,1.4-0.2,3.6,1,3.6h5.6c0.8,0,1.4-1,1.4-2.1v-2.3C147.4,238.1,147.2,237.5,146.9,237z"
					/>
				<path class="st29" d="M159.1,202.7H138c-0.6,0-1.1-0.5-1.1-1.1v-0.2c0-0.6,0.5-1.1,1.1-1.1h21.1c0.6,0,1.1,0.5,1.1,1.1v0.2
					C160.2,202.2,159.7,202.7,159.1,202.7z"/>
				<path class="st20" d="M138.5,206.7c0,0-1.2,17.9-5.4,20.1c0,0,3.7,2.3,7.1,0c0,0,5.1-0.8,6.8,1c0,0,4.9,2.4,8-1
					c1.1-0.3,2.3,0,3.1,0.8c0,0,4.2,1.3,4.8-1.3c-2.9-7.1-4.2-14.8-3.9-22.5"/>
				<path class="st15" d="M149,176.9l-1.4,0c-4.6,0-8.3-3.8-8.3-8.3l0-6.1c0-4.6,3.8-8.3,8.3-8.3l1.4,0c4.6,0,8.3,3.8,8.3,8.3l0,6.1
					C157.3,173.3,153.6,177,149,176.9z"/>
				<path class="st11" d="M136.9,166.6c0,1.2,1,2.2,2.2,2.2c1.2,0,2.2-1,2.2-2.2c0-1.2-1-2.2-2.2-2.2c0,0,0,0,0,0
					C137.9,164.4,136.9,165.4,136.9,166.6z"/>
				<path class="st15" d="M137.7,166.6c0,0.7,0.6,1.3,1.4,1.3s1.3-0.6,1.3-1.4c0-0.7-0.6-1.3-1.3-1.3
					C138.3,165.3,137.7,165.9,137.7,166.6L137.7,166.6z"/>
				<path class="st11" d="M155.5,166.7c0,1.2,1,2.2,2.2,2.2c1.2,0,2.2-1,2.2-2.2c0-1.2-1-2.2-2.2-2.2c0,0,0,0,0,0
					C156.5,164.5,155.5,165.5,155.5,166.7z"/>
				<path class="st15" d="M156.4,166.7c0,0.7,0.6,1.3,1.4,1.3c0.7,0,1.3-0.6,1.3-1.4c0-0.7-0.6-1.3-1.3-1.3
					C157,165.4,156.4,166,156.4,166.7z"/>
				<path class="st11" d="M148.3,176.5L148.3,176.5c5,0,9-4,9.1-8.9c0,0,0,0,0-0.1v-4.7c0-5-4-9-9-9.1l0,0c-5,0-9,4-9.1,9v4.7
					C139.2,172.4,143.2,176.4,148.3,176.5C148.2,176.5,148.2,176.5,148.3,176.5z"/>
				<path class="st18" d="M159,162.5c0-5.8-4.7-10.5-10.5-10.6l0,0c-5.8,0-10.5,4.7-10.6,10.5L159,162.5z"/>
				<path class="st15" d="M148.6,170.9c0.1-0.7-0.5-1.3-1.2-1.4c-0.7-0.1-1.3,0.5-1.4,1.2c0,0.1,0,0.2,0,0.2H148.6z"/>
				<path class="st15" d="M149.3,172.9c-0.1,0-0.1,0-0.1-0.1c-0.9-0.9-2.9-0.3-2.9-0.3c-0.1,0-0.2,0-0.3-0.1c0-0.1,0-0.2,0.1-0.3
					c0.1,0,2.2-0.7,3.3,0.4c0.1,0.1,0.1,0.2,0,0.3C149.4,172.9,149.4,172.9,149.3,172.9z"/>
				<path class="st18" d="M144.9,166.2l-3.8-0.9c-0.3-0.1-0.5-0.4-0.5-0.8l0,0c0.1-0.3,0.4-0.5,0.8-0.5l3.8,0.9
					c0.3,0.1,0.5,0.4,0.5,0.7c0,0,0,0,0,0l0,0C145.6,166,145.2,166.2,144.9,166.2C144.9,166.2,144.9,166.2,144.9,166.2z"/>
				<path class="st18" d="M150.1,166.2l3.8-0.9c0.3-0.1,0.5-0.4,0.5-0.8l0,0c-0.1-0.3-0.4-0.5-0.8-0.5l-3.8,0.9
					c-0.3,0.1-0.5,0.4-0.5,0.7c0,0,0,0,0,0l0,0C149.4,166,149.7,166.2,150.1,166.2z"/>
				<path class="st16" d="M144,169.6L144,169.6c-0.4,0-0.7-0.3-0.7-0.6c0,0,0,0,0,0v-1.6c0-0.4,0.3-0.7,0.6-0.7l0,0
					c0.4,0,0.7,0.3,0.7,0.7l0,0v1.6C144.7,169.3,144.4,169.6,144,169.6C144,169.6,144,169.6,144,169.6z"/>
				<path class="st16" d="M151.3,169.6L151.3,169.6c-0.4,0-0.7-0.3-0.7-0.6c0,0,0,0,0,0v-1.6c0-0.4,0.3-0.7,0.7-0.7l0,0l0,0
					c0.4,0,0.7,0.3,0.6,0.7v1.6C152,169.3,151.7,169.6,151.3,169.6C151.3,169.6,151.3,169.6,151.3,169.6z"/>
				<rect x="138" y="152.4" class="st11" width="5" height="8.6"/>
				<rect x="154" y="152.4" class="st11" width="5" height="8.6"/>
				<rect x="145.6" y="151" class="st11" width="5.8" height="11.4"/>
				<rect x="137.9" y="157.6" class="st11" width="21.2" height="3.4"/>
				<path class="st15" d="M138.5,160.7h20.4c0.5,0,0.9,0.4,0.9,0.9v0.3c0,0.5-0.4,0.9-0.9,0.9h-20.4c-0.5,0-0.9-0.4-0.9-0.9v-0.3
					C137.6,161.1,138,160.7,138.5,160.7z"/>
			</g>
		</g>
	</g>
</g>
</svg>
