<?xml version="1.0" encoding="utf-8"?>
<!-- Generator: Adobe Illustrator 25.2.3, SVG Export Plug-In . SVG Version: 6.00 Build 0)  -->
<svg version="1.1" id="Layer_1" xmlns="http://www.w3.org/2000/svg" xmlns:xlink="http://www.w3.org/1999/xlink" x="0px" y="0px"
	 viewBox="0 0 234.2 379.8" style="enable-background:new 0 0 234.2 379.8;" xml:space="preserve">
<style type="text/css">
	.st0{fill:#F4B155;}
	.st1{fill:#FFF0CC;}
	.st2{fill:#231F20;}
	.st3{clip-path:url(#SVGID_2_);}
	.st4{fill:#F4B055;}
	.st5{fill:#FFD150;}
	.st6{fill:#3F272D;}
	.st7{fill:none;}
	.st8{fill:#54323A;}
	.st9{fill:#E4705E;}
	.st10{fill:#47372E;}
	.st11{fill:#4A355B;}
	.st12{fill:#DD4F65;}
	.st13{fill:#FFFFFF;}
	.st14{fill:#414042;}
	.st15{fill:#DC4F64;}
	.st16{fill:#FFD351;}
	.st17{fill:#334572;}
	.st18{fill:#E6705F;}
	.st19{fill:#F5B155;}
	.st20{fill:#AA334A;}
</style>
<g id="Layer_2_1_">
	<g id="Layer_1-2">
		<path class="st0" d="M234.2,14.4v351c0,7.9-6.7,14.4-14.9,14.4H14.9c-8.2,0-14.9-6.4-14.9-14.4v-351C0,6.5,6.7,0,14.9,0h204.3
			C227.5,0,234.2,6.5,234.2,14.4z M221.6,357.1V22.8c0-5.9-4.8-10.7-10.8-10.8H23.3c-5.9,0-10.7,4.8-10.8,10.8v334.3
			c0,5.9,4.8,10.8,10.8,10.8h187.5C216.8,367.8,221.6,363,221.6,357.1z"/>
		<path class="st1" d="M23.3,12h187.5c6,0,10.8,4.8,10.8,10.8v334.3c0,6-4.8,10.8-10.8,10.8H23.3c-6,0-10.8-4.8-10.8-10.8V22.8
			C12.6,16.8,17.4,12,23.3,12z"/>
		<path class="st2" d="M40.7,326c-0.7-0.1-1.3-0.4-1.9-0.8c-0.2-0.1-0.2-0.2-0.2-0.3c0-0.1,0-0.2,0.1-0.2l0.6-0.9
			c0.1-0.1,0.1-0.1,0.2-0.1c0.1,0,0.2,0,0.2,0.1c0.5,0.3,1,0.5,1.5,0.6c0.6,0.2,1.1,0.2,1.7,0.2c0.6,0,1.2-0.1,1.8-0.4
			c0.4-0.3,0.6-0.8,0.6-1.3c0-0.3-0.1-0.6-0.2-0.8c-0.2-0.2-0.4-0.4-0.7-0.5c-0.3-0.1-0.8-0.4-1.4-0.6l-0.4-0.1
			c-0.6-0.3-1.3-0.5-1.9-0.9c-0.5-0.3-0.9-0.6-1.2-1.1c-0.3-0.5-0.5-1.1-0.5-1.6c0-1,0.4-1.9,1.2-2.5c0.9-0.6,2.1-0.9,3.2-0.9
			c0.7,0,1.4,0.1,2.1,0.2c0.6,0.1,1.1,0.4,1.5,0.7c0.1,0.1,0.2,0.2,0.2,0.3c0,0.1,0,0.1-0.1,0.2l-0.6,0.9c-0.1,0.1-0.1,0.2-0.2,0.2
			c-0.1,0-0.2-0.1-0.2-0.1c-0.8-0.5-1.8-0.8-2.8-0.7c-0.6,0-1.2,0.1-1.7,0.4c-0.4,0.3-0.6,0.8-0.6,1.3c0,0.3,0.1,0.6,0.2,0.9
			c0.2,0.2,0.4,0.4,0.7,0.5c0.3,0.1,0.8,0.4,1.5,0.6l0.4,0.2c0.7,0.3,1.4,0.6,2,0.9c0.4,0.3,0.8,0.6,1.1,1.1
			c0.3,0.5,0.4,1.1,0.4,1.6c0,0.9-0.4,1.8-1.1,2.4c-0.9,0.6-2.1,0.9-3.2,0.9C42.3,326.3,41.5,326.2,40.7,326z"/>
		<path class="st2" d="M49.3,325.9c-0.1-0.1-0.2-0.3-0.1-0.5v-10.6c0-0.2,0-0.3,0.1-0.5c0.1-0.1,0.3-0.2,0.5-0.2h7.3
			c0.2,0,0.3,0,0.5,0.1c0.1,0.1,0.1,0.3,0.1,0.5v0.5c0,0.2,0,0.3-0.1,0.5c-0.1,0.1-0.3,0.2-0.5,0.1h-5.7v3.4h4.1
			c0.2,0,0.3,0,0.5,0.1c0.1,0.1,0.2,0.3,0.1,0.5v0.4c0.1,0.3-0.1,0.6-0.4,0.6c-0.1,0-0.1,0-0.2,0h-4.1v3.4h5.7c0.2,0,0.4,0,0.5,0.1
			c0.1,0.1,0.2,0.3,0.1,0.5v0.5c0,0.2,0,0.3-0.1,0.5c-0.1,0.1-0.3,0.2-0.5,0.1h-7.2C49.6,326.1,49.5,326,49.3,325.9z"/>
		<path class="st2" d="M63.2,326c-0.1-0.1-0.2-0.2-0.2-0.4l-4.5-10.9c0-0.1,0-0.1,0-0.2c0-0.1,0-0.1,0.1-0.2
			c0.1-0.1,0.1-0.1,0.2-0.1h1.5c0.2,0,0.5,0.1,0.5,0.4l3.3,8.4l3.3-8.4c0-0.1,0.1-0.2,0.2-0.3c0.1-0.1,0.2-0.1,0.3-0.1h1.5
			c0.1,0,0.2,0,0.2,0.1c0.1,0.1,0.1,0.1,0.1,0.2c0,0.1,0,0.1-0.1,0.2l-4.5,10.9c0,0.1-0.1,0.3-0.2,0.4c-0.1,0.1-0.2,0.1-0.4,0.1
			h-0.9C63.5,326.1,63.3,326.1,63.2,326z"/>
		<path class="st2" d="M71.3,325.9c-0.1-0.1-0.2-0.3-0.2-0.5v-10.6c-0.1-0.3,0.1-0.6,0.5-0.6c0.1,0,0.1,0,0.2,0h7.3
			c0.2,0,0.3,0,0.5,0.1c0.1,0.1,0.1,0.3,0.1,0.5v0.5c0,0.2,0,0.3-0.1,0.5c-0.1,0.1-0.3,0.2-0.5,0.1h-5.7v3.4h4.1
			c0.2,0,0.4,0,0.5,0.1c0.1,0.1,0.2,0.3,0.1,0.5v0.4c0,0.2,0,0.3-0.1,0.5c-0.1,0.1-0.3,0.2-0.5,0.1h-4.1v3.4H79c0.2,0,0.4,0,0.5,0.1
			c0.1,0.1,0.2,0.3,0.1,0.5v0.5c0,0.2,0,0.3-0.1,0.5c-0.1,0.1-0.3,0.2-0.5,0.1h-7.2C71.6,326.1,71.4,326,71.3,325.9z"/>
		<path class="st2" d="M81.3,325.9c-0.1-0.1-0.2-0.3-0.2-0.5v-10.6c0-0.2,0-0.4,0.2-0.5c0.1-0.1,0.3-0.2,0.5-0.2h0.8
			c0.1,0,0.3,0,0.4,0.1c0.1,0.1,0.2,0.2,0.3,0.3l5.8,8v-7.7c0-0.2,0-0.4,0.2-0.5c0.1-0.1,0.3-0.2,0.5-0.2h0.9c0.2,0,0.4,0,0.5,0.2
			c0.1,0.1,0.2,0.3,0.2,0.5v10.6c0,0.2,0,0.3-0.2,0.5c-0.1,0.1-0.3,0.2-0.5,0.2h-0.8c-0.1,0-0.3,0-0.4-0.1c-0.1-0.1-0.2-0.2-0.3-0.3
			l-5.8-8v7.7c0,0.2,0,0.3-0.2,0.5c-0.1,0.1-0.3,0.2-0.5,0.2h-0.9C81.7,326,81.5,326,81.3,325.9z"/>
		<path class="st2" d="M101.4,324.7c-2.1-2.7-2.1-6.4,0-9.1c2.5-2.2,6.3-2.2,8.8,0c2.1,2.7,2.1,6.4,0,9.1
			C107.7,326.8,103.9,326.8,101.4,324.7z M108.6,323.5c1.3-2.1,1.3-4.7,0-6.8c-1.6-1.5-4-1.5-5.6,0c-1.3,2.1-1.3,4.7,0,6.8
			C104.5,325.1,107,325.1,108.6,323.5C108.6,323.5,108.6,323.5,108.6,323.5z"/>
		<path class="st2" d="M113.6,325.9c-0.1-0.1-0.2-0.3-0.2-0.5v-10.6c-0.1-0.3,0.1-0.6,0.5-0.6c0.1,0,0.1,0,0.2,0h7.3
			c0.2,0,0.3,0,0.5,0.1c0.1,0.1,0.1,0.3,0.1,0.5v0.5c0,0.2,0,0.3-0.1,0.5c-0.1,0.1-0.3,0.2-0.5,0.1h-5.7v3.4h4.1
			c0.2,0,0.4,0,0.5,0.1c0.1,0.1,0.2,0.3,0.1,0.5v0.5c0,0.2,0,0.3-0.1,0.5c-0.1,0.1-0.3,0.2-0.5,0.1h-4.1v4.5c0,0.2,0,0.3-0.2,0.5
			c-0.1,0.1-0.3,0.2-0.5,0.2h-0.9C113.9,326.1,113.8,326,113.6,325.9z"/>
		<path class="st2" d="M133.2,325.9c-0.1-0.1-0.2-0.2-0.2-0.4l-3.1-12.4c0-0.1,0-0.1,0-0.2c0-0.2,0.1-0.3,0.4-0.3h1.6
			c0.1,0,0.3,0,0.4,0.1c0.1,0.1,0.1,0.2,0.2,0.3l2,8.6l2.3-7.6c0-0.1,0.1-0.2,0.2-0.3c0.1-0.1,0.2-0.1,0.4-0.1h0.9
			c0.1,0,0.3,0,0.4,0.1c0.1,0.1,0.2,0.2,0.2,0.3l2.4,7.6l1.9-8.6c0-0.1,0.1-0.2,0.2-0.3c0.1-0.1,0.3-0.1,0.4-0.1h1.6
			c0.2,0,0.4,0.1,0.4,0.3c0,0.1,0,0.1,0,0.2l-3.1,12.4c0,0.1-0.1,0.3-0.2,0.4c-0.1,0.1-0.3,0.1-0.4,0.1h-1.1c-0.1,0-0.3,0-0.4-0.1
			c-0.1-0.1-0.2-0.2-0.2-0.4l-2.4-7.8l-2.4,7.8c0,0.1-0.1,0.3-0.2,0.4c-0.1,0.1-0.3,0.1-0.4,0.1h-1.1
			C133.6,326.1,133.4,326,133.2,325.9z"/>
		<path class="st2" d="M145.1,325.8c0-0.1,0-0.2,0.1-0.2l5.2-12.2c0.1-0.2,0.1-0.3,0.2-0.4c0.1-0.1,0.3-0.1,0.4-0.1h1.1
			c0.1,0,0.3,0,0.4,0.1c0.1,0.1,0.2,0.2,0.2,0.4l5.2,12.2c0,0.1,0.1,0.2,0.1,0.2c0,0.2-0.1,0.3-0.3,0.3h-1.7c-0.1,0-0.3,0-0.4-0.1
			c-0.1-0.1-0.2-0.2-0.2-0.3l-1.1-2.7h-5.4l-1.1,2.7c0,0.1-0.1,0.2-0.2,0.3c-0.1,0.1-0.2,0.1-0.4,0.1h-1.7
			C145.2,326.1,145.1,325.9,145.1,325.8z M153.6,321.1l-2.1-5.1l-2.1,5.1L153.6,321.1z"/>
		<path class="st2" d="M160,325.9c-0.1-0.1-0.2-0.3-0.2-0.5v-11.9c0-0.2,0-0.4,0.2-0.5c0.2-0.1,0.4-0.2,0.6-0.2h0.9
			c0.3,0,0.6,0.1,0.8,0.4l6.5,9v-8.6c-0.1-0.3,0.1-0.7,0.5-0.7c0.1,0,0.2,0,0.2,0h1c0.2,0,0.4,0,0.6,0.2c0.1,0.2,0.2,0.3,0.2,0.5
			v11.9c0,0.2,0,0.4-0.2,0.5c-0.2,0.1-0.4,0.2-0.6,0.2h-0.9c-0.3,0-0.6-0.1-0.7-0.4l-6.5-8.9v8.6c0,0.2,0,0.4-0.2,0.5
			c-0.2,0.1-0.4,0.2-0.6,0.2h-1C160.3,326.1,160.1,326,160,325.9z"/>
		<path class="st2" d="M173.6,325.9c-0.1-0.1-0.2-0.3-0.2-0.5v-11.9c0-0.2,0-0.4,0.2-0.5c0.2-0.1,0.4-0.2,0.6-0.2h3.9
			c1.8-0.1,3.6,0.4,5.1,1.6c1.2,1.1,1.8,2.8,1.8,5.1c0,4.4-2.3,6.7-6.8,6.7h-3.9C174,326.1,173.8,326,173.6,325.9z M178.3,324.1
			c1.1,0.1,2.3-0.3,3.1-1.1c1.4-2.3,1.4-5.1,0-7.4c-0.9-0.8-2-1.1-3.1-1.1H176v9.5H178.3z"/>
		<path class="st2" d="M188,326c-0.8-0.2-1.5-0.4-2.1-0.9c-0.2-0.1-0.2-0.2-0.2-0.3c0-0.1,0-0.2,0.1-0.2l0.6-1
			c0.1-0.1,0.1-0.2,0.2-0.2c0.1,0,0.2,0,0.3,0.1c0.5,0.3,1.1,0.5,1.7,0.7c0.6,0.2,1.3,0.3,1.9,0.3c0.7,0,1.4-0.1,2-0.4
			c0.5-0.3,0.7-0.9,0.7-1.4c0-0.3-0.1-0.7-0.2-0.9c-0.2-0.3-0.5-0.5-0.8-0.6c-0.3-0.2-0.9-0.4-1.6-0.7l-0.4-0.2
			c-0.7-0.3-1.4-0.6-2.1-1c-0.5-0.3-1-0.7-1.4-1.2c-0.4-0.5-0.6-1.2-0.5-1.9c0-1.1,0.5-2.1,1.4-2.8c1.1-0.7,2.3-1.1,3.6-1
			c0.8,0,1.6,0.1,2.3,0.3c0.6,0.1,1.2,0.4,1.7,0.8c0.2,0.1,0.2,0.2,0.2,0.3c0,0.1,0,0.2-0.1,0.2l-0.6,1c-0.1,0.1-0.1,0.2-0.2,0.2
			c-0.1,0-0.2-0.1-0.2-0.1c-0.9-0.6-2-0.8-3.1-0.8c-0.7,0-1.3,0.1-1.9,0.5c-0.4,0.3-0.7,0.9-0.6,1.4c0,0.4,0.1,0.7,0.3,1
			c0.2,0.3,0.5,0.5,0.8,0.6c0.3,0.2,0.9,0.4,1.6,0.7l0.5,0.2c0.8,0.3,1.5,0.6,2.2,1c0.5,0.3,0.9,0.7,1.2,1.2
			c0.3,0.6,0.5,1.2,0.4,1.8c0,1-0.4,2-1.3,2.6c-1.1,0.7-2.3,1.1-3.6,1C189.8,326.3,188.9,326.2,188,326z"/>
		<g>
			<defs>
				<path id="SVGID_1_" d="M54,43.9h128.5c13.6,0,24.7,11.1,24.7,24.7v191.6c0,13.6-11.1,24.7-24.7,24.7H54
					c-13.6,0-24.7-11.1-24.7-24.7V68.6C29.3,54.9,40.4,43.9,54,43.9z"/>
			</defs>
			<clipPath id="SVGID_2_">
				<use xlink:href="#SVGID_1_"  style="overflow:visible;"/>
			</clipPath>
			<g class="st3">
				<path class="st4" d="M138.9,125.4c-0.8,0-1.4,0.6-1.4,1.4h2.7C140.2,126.1,139.6,125.4,138.9,125.4z"/>
				<path class="st5" d="M136.6,104.2C136.6,104.2,136.6,104.2,136.6,104.2L136.6,104.2z"/>
				<polygon class="st6" points="240.5,14.4 -4,14.4 -4,179.9 -4,199.1 -4,289.9 240.4,289.9 240.4,199.1 240.5,199.1 				"/>
				<polygon class="st7" points="196.5,14.4 40.1,14.4 40.1,179.9 40.1,199.1 40.1,289.9 196.4,289.9 196.4,199.1 196.5,199.1 				
					"/>
				<polygon class="st8" points="34,274.7 34,274.7 133.5,164.4 207.2,43.9 207.2,298.4 29.3,298.4 				"/>
				<path class="st5" d="M113.5,163c-1.7,0-3.2-1.4-3.2-3.2s1.4-3.2,3.2-3.2l0,0c2.4-0.1,4.8-1.2,6.5-2.9c1.3-1.2,2-2.8,2.1-4.5
					c0-3.8-4.4-7.2-8.5-9.2c-1.5-0.8-2.1-2.8-1.3-4.3c0.8-1.4,2.5-2,4-1.4c3.6,1.7,12,6.6,12.1,14.8c0,3.4-1.4,6.6-3.9,9
					C121.6,161.2,117.7,162.9,113.5,163z"/>
				<path class="st5" d="M105.1,196.9l-0.4-0.4c-0.2-0.2-0.5-0.4-0.8-0.5l-1.9-0.4v-14.1c0-1.5-1.2-2.7-2.7-2.7
					c-1.5,0-2.7,1.2-2.7,2.7c0,0,0,0,0,0V195c-0.4,0.3-0.6,0.8-0.6,1.3v1.7c0,0.9,0.7,1.6,1.6,1.6h6.4c0.9,0,1.6-0.7,1.6-1.5
					C105.6,197.6,105.4,197.2,105.1,196.9z"/>
				<path class="st9" d="M101.6,184.1h-4.8c-0.3,0-0.5-0.2-0.5-0.5v-0.1c0-0.3,0.2-0.5,0.5-0.5h4.8c0.3,0,0.5,0.2,0.5,0.5v0.1
					C102,183.9,101.8,184.1,101.6,184.1z"/>
				<path class="st9" d="M101.7,190.2L101.7,190.2c-0.3,0.2-0.7,0.2-0.8,0l-4.3-5.7c-0.2-0.2-0.1-0.6,0.1-0.7l0.1-0.1
					c0.2-0.2,0.6-0.1,0.7,0.1l4.3,5.7C101.9,189.7,101.9,190.1,101.7,190.2z"/>
				<path class="st9" d="M101.5,183.6L101.5,183.6c0.3,0.2,0.3,0.5,0.2,0.7l-4.4,5.8c-0.2,0.2-0.5,0.2-0.7,0.1l-0.1-0.1
					c-0.2-0.2-0.2-0.5-0.1-0.7l4.4-5.8C101,183.5,101.3,183.5,101.5,183.6z"/>
				<path class="st9" d="M101.7,196L101.7,196c-0.3,0.2-0.6,0.2-0.8,0l0,0l-4.3-5.7c-0.2-0.2-0.1-0.6,0.1-0.7l0.1-0.1
					c0.2-0.2,0.6-0.1,0.7,0.1l0,0l4.3,5.7C101.9,195.5,101.9,195.8,101.7,196C101.7,196,101.7,196,101.7,196z"/>
				<path class="st9" d="M101.6,189.4L101.6,189.4c0.3,0.2,0.4,0.6,0.2,0.8l0,0l-4.3,5.7c-0.2,0.2-0.5,0.3-0.7,0.1l-0.1-0.1
					c-0.2-0.2-0.3-0.5-0.1-0.7l0,0l4.3-5.7C101,189.3,101.3,189.3,101.6,189.4L101.6,189.4L101.6,189.4z"/>
				<path class="st9" d="M103.9,199.2L103.9,199.2c-0.3,0-0.5-0.2-0.5-0.4v-2.5c0-0.2,0.2-0.4,0.4-0.4h0.1c0.2,0,0.4,0.2,0.4,0.4
					v2.5C104.4,199.1,104.2,199.2,103.9,199.2z"/>
				<path class="st9" d="M102.1,199.2L102.1,199.2c-0.3,0-0.5-0.2-0.5-0.4v-3c0-0.2,0.2-0.4,0.4-0.4h0.1c0.2,0,0.4,0.2,0.4,0.4v3
					C102.5,199.1,102.3,199.2,102.1,199.2z"/>
				<path class="st9" d="M101.5,196.4h-4.6c-0.3,0-0.5-0.2-0.5-0.5v-0.1c0-0.3,0.2-0.5,0.5-0.5h4.6c0.3,0,0.5,0.2,0.5,0.5v0.1
					C102,196.2,101.8,196.4,101.5,196.4z"/>
				<path class="st9" d="M95.9,198.7h9.1c0.2,0,0.4,0.2,0.4,0.4v0.1c0,0.2-0.2,0.4-0.4,0.4h-9.1c-0.2,0-0.4-0.2-0.4-0.4v-0.1
					C95.5,198.9,95.7,198.7,95.9,198.7z"/>
				<path class="st5" d="M107.9,195v-13.6c0-1.5,1.2-2.7,2.7-2.7c1.5,0,2.7,1.2,2.7,2.7v14c0,0,0,0.1,0,0.1l1.9,0.4
					c0.3,0.1,0.6,0.2,0.8,0.5l0.4,0.4c0.6,0.6,0.5,1.7-0.1,2.2c-0.3,0.3-0.7,0.4-1.1,0.4h-6.4c-0.9,0-1.6-0.7-1.6-1.6v-1.7
					C107.3,195.7,107.5,195.3,107.9,195z"/>
				<path class="st9" d="M112.9,184.1h-4.8c-0.3,0-0.5-0.2-0.5-0.5v-0.1c0-0.3,0.2-0.5,0.5-0.5h4.8c0.3,0,0.5,0.2,0.5,0.5v0.1
					C113.4,183.9,113.2,184.1,112.9,184.1z"/>
				<path class="st9" d="M113,190.2L113,190.2c-0.3,0.2-0.6,0.2-0.8,0l0,0l-4.3-5.7c-0.2-0.2-0.1-0.6,0.1-0.7l0.1-0.1
					c0.2-0.2,0.6-0.1,0.7,0.1l0,0l4.3,5.7C113.3,189.7,113.3,190.1,113,190.2L113,190.2z"/>
				<path class="st9" d="M112.9,183.7L112.9,183.7c0.3,0.2,0.4,0.6,0.2,0.8l0,0l-4.3,5.7c-0.2,0.2-0.5,0.3-0.7,0.1l0,0l-0.1-0.1
					c-0.2-0.2-0.3-0.5-0.1-0.7l0,0l4.3-5.7C112.4,183.5,112.7,183.5,112.9,183.7L112.9,183.7z"/>
				<path class="st9" d="M113,196L113,196c-0.3,0.2-0.6,0.2-0.8,0l0,0l-4.3-5.7c-0.2-0.2-0.1-0.6,0.1-0.7l0.1-0.1
					c0.2-0.2,0.6-0.1,0.7,0.1l0,0l4.3,5.7C113.3,195.5,113.3,195.8,113,196L113,196L113,196z"/>
				<path class="st9" d="M112.9,189.4L112.9,189.4c0.3,0.2,0.4,0.6,0.2,0.8l-4.3,5.7c-0.2,0.2-0.5,0.3-0.7,0.1L108,196
					c-0.2-0.2-0.3-0.5-0.1-0.7l4.3-5.7C112.4,189.3,112.7,189.3,112.9,189.4z"/>
				<path class="st9" d="M115.3,199L115.3,199c-0.3,0-0.5-0.2-0.5-0.4v-2.5c0-0.2,0.2-0.4,0.4-0.4h0.1c0.2,0,0.4,0.2,0.4,0.4v2.5
					C115.7,198.8,115.5,199,115.3,199z"/>
				<path class="st9" d="M113.4,199L113.4,199c-0.3,0-0.5-0.2-0.5-0.4v-2.8c0-0.2,0.2-0.4,0.4-0.4h0.1c0.2,0,0.4,0.2,0.4,0.4v2.8
					C113.9,198.8,113.7,199,113.4,199z"/>
				<path class="st9" d="M112.9,196.4h-4.6c-0.3,0-0.5-0.2-0.5-0.5v-0.1c0-0.3,0.2-0.5,0.5-0.5h4.6c0.3,0,0.5,0.2,0.5,0.5v0.1
					C113.4,196.2,113.2,196.4,112.9,196.4z"/>
				<path class="st9" d="M116.6,199.7h-9.1c-0.2,0-0.4-0.2-0.4-0.4v-0.1c0-0.2,0.2-0.4,0.4-0.4h9.1c0.2,0,0.4,0.2,0.4,0.4v0.1
					C117.1,199.5,116.9,199.7,116.6,199.7z"/>
				<path class="st9" d="M107.6,194.9L107.6,194.9c0.4,0,0.6,0.2,0.6,0.5v3.7c0,0.3-0.2,0.5-0.5,0.5h-0.1c-0.3,0-0.5-0.2-0.5-0.5
					v-3.7C107.1,195.2,107.3,194.9,107.6,194.9z"/>
				<path class="st9" d="M103,199.7L103,199.7c-0.4,0-0.6-0.2-0.6-0.5v-3.8c0-0.3,0.2-0.5,0.5-0.5h0.1c0.3,0,0.5,0.2,0.5,0.5v3.8
					C103.5,199.5,103.3,199.7,103,199.7z"/>
				<rect x="101.5" y="127.2" class="st5" width="7.7" height="7.4"/>
				<path class="st5" d="M98.8,137.7c0-1.5-0.8-2.8-2.1-3.5c-2.2,1.7-3.5,4.2-3.6,7c1.9,1,4.3,0.3,5.3-1.7
					C98.6,139,98.8,138.4,98.8,137.7L98.8,137.7z"/>
				<path class="st9" d="M112.7,133.5c-0.3-0.2-0.6-0.3-0.9-0.5c-0.9-0.5-1.8-0.8-2.8-1c0.1,0.7,0.2,1.3,0.2,2
					c0,6.5-5.2,11.7-11.7,11.7c0,0,0,0,0,0c-1.5,0-3-0.3-4.4-0.9v35.6h24.3v-39C117.3,138.1,115.5,135.2,112.7,133.5z"/>
				<path class="st5" d="M109.2,134c0-0.7-0.1-1.3-0.2-2c-0.9-0.2-1.8-0.3-2.7-0.3h-2.3c-1.9,0-3.8,0.4-5.5,1.3
					c-0.7,0.3-1.3,0.7-1.9,1.2l0,0c1.9,1,2.7,3.4,1.7,5.3c-0.7,1.3-2,2.1-3.5,2.1c-0.6,0-1.3-0.2-1.8-0.4c0,0.1,0,0.2,0,0.3v3.4
					c1.4,0.6,2.9,0.9,4.4,0.9C104,145.6,109.2,140.4,109.2,134z"/>
				<path class="st5" d="M97.7,138.9c-3,2.8-7,4.4-11.1,4.3c-3.4,0.1-6.7-1.2-9.1-3.6c-5.7-5.9-3.3-15.3-1.9-19c0.6-1.7,2.4-2.5,4-2
					s2.5,2.4,2,4c-1.5,4.3-2.2,9.8,0.5,12.5c1.2,1.1,2.9,1.8,4.6,1.7c2.4,0,4.8-0.9,6.6-2.5c1.2-1.2,3.2-1.2,4.5,0
					C99,135.7,99,137.7,97.7,138.9L97.7,138.9L97.7,138.9z"/>
				<path class="st10" d="M96.3,100.8h17c4.3,0,7.8,3.5,7.8,7.8v1.6c0,4.3-3.5,7.8-7.8,7.8h-17c-4.3,0-7.8-3.5-7.8-7.8v-1.6
					C88.5,104.3,92,100.8,96.3,100.8z"/>
				<path class="st5" d="M120.8,117.5c0,1.7-1.3,3-3,3s-3-1.3-3-3s1.3-3,3-3S120.8,115.8,120.8,117.5z"/>
				<circle class="st4" cx="117.8" cy="117.5" r="1.8"/>
				<path class="st5" d="M95.6,117.5c0,1.7-1.3,3-3,3s-3-1.3-3-3s1.3-3,3-3S95.6,115.8,95.6,117.5z"/>
				<path class="st4" d="M94.4,117.5c0,1-0.8,1.8-1.8,1.8s-1.8-0.8-1.8-1.8s0.8-1.8,1.8-1.8c0,0,0,0,0,0
					C93.6,115.7,94.4,116.5,94.4,117.5z"/>
				<path class="st5" d="M104.2,100h2.3c6.1,0,11,4.9,11,11v8.6c0,6.1-4.9,11-11,11h-2.3c-6.1,0-11-4.9-11-11V111
					C93.2,104.9,98.1,100,104.2,100z"/>
				<path class="st10" d="M118.8,120.5c0,7.4-6,13.4-13.4,13.4l0,0c-7.4,0-13.3-6-13.4-13.4H118.8z"/>
				<path class="st11" d="M101.3,113.9h0.3c0.7,0,1.3,0.6,1.3,1.3v2c0,0.7-0.6,1.3-1.3,1.3h-0.3c-0.7,0-1.3-0.6-1.3-1.3v-2
					C100,114.5,100.6,113.9,101.3,113.9z"/>
				<path class="st11" d="M111.7,113.9h0.3c0.7,0,1.3,0.6,1.3,1.3v2c0,0.7-0.6,1.3-1.3,1.3h-0.3c-0.7,0-1.3-0.6-1.3-1.3v-2
					C110.3,114.5,110.9,113.9,111.7,113.9z"/>
				<path class="st10" d="M109.8,111.8l3.1-1.3c0.5-0.2,1.1,0,1.3,0.5l0.1,0.2c0.2,0.5,0,1.1-0.5,1.3l-3.1,1.3
					c-0.5,0.2-1.1,0-1.3-0.5l-0.1-0.2C109.1,112.6,109.3,112,109.8,111.8z"/>
				<path class="st10" d="M102.2,113.8l-3.1-1.3c-0.5-0.2-0.7-0.8-0.5-1.3l0.1-0.2c0.2-0.5,0.8-0.7,1.3-0.5l3.1,1.3
					c0.5,0.2,0.7,0.8,0.5,1.3l-0.1,0.2C103.3,113.8,102.7,114,102.2,113.8z"/>
				<path class="st5" d="M109.4,121.1c0.4,0,0.8,0.4,0.8,0.8c0,0.1,0,0.1,0,0.2c-0.6,1.7-2.4,2.6-4.1,2c-1-0.3-1.7-1.1-2-2.1
					c-0.1-0.4,0.1-0.8,0.5-1c0.1,0,0.2,0,0.3,0L109.4,121.1z"/>
				<path class="st4" d="M105.4,118.5c0-1,0.8-1.8,1.8-1.8s1.8,0.8,1.8,1.8H105.4z"/>
				<path class="st4" d="M106.8,123.6c0-0.2,0.1-0.3,0.2-0.3c0.2,0,0.3,0.1,0.3,0.2c0,0,0,0.1,0,0.1H106.8z"/>
				<path class="st10" d="M79.6,93.1l0.4,0c1.1,0.1,1.9,1,1.8,2.1l-3.8,55.2c-0.1,1.1-1,1.9-2.1,1.8l-0.4,0c-1.1-0.1-1.9-1-1.8-2.1
					l3.8-55.2C77.6,93.8,78.5,93,79.6,93.1z"/>
				<path class="st12" d="M82.3,64h0.2c-2.9,2.3-3.5,6.6-1.1,9.5s6.6,3.5,9.5,1.1c0.1-0.1,0.3-0.2,0.4-0.3c0.1,0.9,0.1,1.7,0,2.6
					c-0.5,6.8-5.2,11.9-10.7,11.6s-9.5-6.2-9-12.9S76.9,63.6,82.3,64z"/>
				<path class="st5" d="M78,75.9c0,0,0,0.1,0,0.1c-0.2,3,2,5.5,5,5.8c0.5,0,0.9,0,1.4-0.1c-0.5,2.5-2.4,4.3-4.6,4.2
					c-2.4-0.2-4.2-2.7-4-5.7C75.9,78.5,76.7,76.9,78,75.9z"/>
				<path class="st5" d="M81.2,126.8H79c-0.6,0-1.1-0.5-1.1-1.1v-0.2c0-0.6,0.5-1.1,1.1-1.1h2.1c0.6,0,1.1,0.5,1.1,1.1v0.2
					C82.3,126.3,81.8,126.8,81.2,126.8z"/>
				<path class="st5" d="M74.7,126.3l-0.4-0.1c-1.1-0.1-1.9-1.1-1.7-2.2l0.7-5.7c0.1-1.1,1.1-1.9,2.2-1.7l0.4,0.1
					c1.1,0.1,1.9,1.1,1.7,2.2l-0.7,5.7C76.8,125.7,75.8,126.5,74.7,126.3z"/>
				<path class="st5" d="M63.5,178.6c-4,0.1-7.9-1.1-11.1-3.5c-4.9-3.7-7.4-10.1-7.4-19c0.1-1.6,1.5-2.8,3.1-2.7
					c1.5,0.1,2.6,1.3,2.7,2.7c0,6.9,1.7,11.8,5.1,14.4c4.7,3.6,11.3,1.9,11.4,1.9c1.6-0.4,3.2,0.5,3.6,2.1c0.4,1.6-0.5,3.2-2.1,3.6
					l0,0C67.1,178.4,65.3,178.6,63.5,178.6z"/>
				<rect x="69.2" y="204.6" class="st5" width="5" height="9.7"/>
				<rect x="80.1" y="204.6" class="st5" width="5" height="9.7"/>
				<path class="st13" d="M77,142.5h2.3c6.1,0,11,4.9,11,11v4.7c0,6.1-4.9,11-11,11H77c-6.1,0-11-4.9-11-11v-4.7
					C66,147.4,70.9,142.5,77,142.5z"/>
				<path class="st5" d="M85.6,196.7c-1.5,0-2.7-1.2-2.7-2.7s1.2-2.7,2.7-2.7c2.1-0.1,4.1-1,5.6-2.5c1.1-1,1.8-2.4,1.8-3.9
					c0-3.3-3.8-6.2-7.3-7.9c-1.3-0.7-1.8-2.4-1-3.7c0.7-1.2,2.1-1.7,3.4-1.2c3.1,1.5,10.3,5.7,10.4,12.8c0,2.9-1.3,5.7-3.4,7.7
					C92.5,195.2,89.2,196.6,85.6,196.7z"/>
				<path class="st5" d="M77.4,228.4l-0.4-0.4c-0.2-0.2-0.5-0.4-0.8-0.5l-1.8-0.4v-13.5c0.1-1.4-1-2.6-2.4-2.7
					c-1.4-0.1-2.6,1-2.7,2.4c0,0.1,0,0.2,0,0.3v13c-0.4,0.3-0.6,0.7-0.6,1.2v1.6c0,0.8,0.7,1.5,1.5,1.5h6.1c0.8,0,1.5-0.7,1.5-1.5
					C77.8,229,77.7,228.6,77.4,228.4z"/>
				<path class="st9" d="M74,216.1h-4.7c-0.2,0-0.4-0.2-0.4-0.4v-0.1c0-0.2,0.2-0.4,0.4-0.4H74c0.2,0,0.4,0.2,0.4,0.4v0.1
					C74.4,215.9,74.2,216.1,74,216.1z"/>
				<path class="st9" d="M74.8,221L74.8,221c-0.3,0.2-0.6,0.2-0.8,0l-4.1-5.5c-0.2-0.2-0.1-0.5,0.1-0.7l0.1-0.1
					c0.2-0.2,0.5-0.1,0.7,0.1l4.1,5.5C75,220.5,75,220.8,74.8,221z"/>
				<path class="st9" d="M75.2,216.1L75.2,216.1c0.3,0.2,0.3,0.5,0.2,0.7l-4.2,5.6c-0.1,0.2-0.4,0.2-0.6,0.1l-0.1-0.1
					c-0.2-0.1-0.2-0.4-0.1-0.6l4.2-5.6C74.7,216,75,215.9,75.2,216.1z"/>
				<path class="st9" d="M74.1,227.5L74.1,227.5c-0.3,0.2-0.6,0.2-0.8,0l-4.2-5.5c-0.2-0.2-0.1-0.5,0.1-0.7l0.1-0.1
					c0.2-0.2,0.5-0.1,0.7,0.1l4.2,5.5C74.4,227,74.3,227.3,74.1,227.5z"/>
				<path class="st9" d="M74,221.2L74,221.2c0.3,0.2,0.4,0.5,0.2,0.8l-4.2,5.5c-0.2,0.2-0.5,0.3-0.7,0.1l-0.1-0.1
					c-0.2-0.2-0.3-0.5-0.1-0.7l4.2-5.5C73.5,221.1,73.8,221,74,221.2z"/>
				<path class="st9" d="M76.3,230.6L76.3,230.6c-0.3,0-0.5-0.2-0.5-0.4v-2.4c0-0.2,0.2-0.4,0.4-0.4h0.1c0.2,0,0.4,0.2,0.4,0.4v2.4
					C76.7,230.4,76.5,230.6,76.3,230.6z"/>
				<path class="st9" d="M74.5,230.6L74.5,230.6c-0.3,0-0.5-0.2-0.5-0.4v-2.8c0-0.2,0.2-0.4,0.4-0.4h0.1c0.2,0,0.4,0.2,0.4,0.4v2.8
					C74.9,230.4,74.7,230.6,74.5,230.6z"/>
				<path class="st9" d="M74,227.9h-4.4c-0.2,0-0.4-0.2-0.4-0.4v-0.1c0-0.2,0.2-0.4,0.4-0.4H74c0.2,0,0.4,0.2,0.4,0.4v0.1
					C74.4,227.7,74.2,227.9,74,227.9z"/>
				<path class="st9" d="M68.6,230.1h8.8c0.2,0,0.4,0.2,0.4,0.4v0.1c0,0.2-0.2,0.4-0.4,0.4h-8.8c-0.2,0-0.4-0.2-0.4-0.4v-0.1
					C68.2,230.3,68.4,230.1,68.6,230.1z"/>
				<path class="st5" d="M80.1,226.5v-13c-0.1-1.4,1-2.6,2.4-2.7c1.4-0.1,2.6,1,2.7,2.4c0,0.1,0,0.2,0,0.3V227c0,0,0,0.1,0,0.1
					l1.9,0.4c0.3,0.1,0.6,0.2,0.8,0.5l0.4,0.4c0.6,0.6,0.5,1.6-0.1,2.2c-0.3,0.2-0.6,0.4-1,0.4H81c-0.8,0-1.5-0.7-1.5-1.5
					c0,0,0,0,0,0v-1.6C79.5,227.3,79.7,226.8,80.1,226.5z"/>
				<path class="st9" d="M84.9,216.1h-4.7c-0.2,0-0.4-0.2-0.4-0.4v-0.1c0-0.2,0.2-0.4,0.4-0.4h4.7c0.2,0,0.4,0.2,0.4,0.4v0.1
					C85.3,215.9,85.1,216.1,84.9,216.1z"/>
				<path class="st9" d="M85,222L85,222c-0.3,0.2-0.6,0.2-0.8,0l-4.2-5.5c-0.2-0.2-0.1-0.5,0.1-0.7l0.1-0.1c0.2-0.2,0.5-0.1,0.7,0.1
					l4.2,5.5C85.3,221.5,85.2,221.8,85,222z"/>
				<path class="st9" d="M84.9,215.7L84.9,215.7c0.3,0.2,0.4,0.5,0.2,0.8l-4.2,5.5c-0.2,0.2-0.5,0.3-0.7,0.1l-0.1-0.1
					c-0.2-0.2-0.3-0.5-0.1-0.7l4.2-5.5C84.4,215.6,84.7,215.5,84.9,215.7z"/>
				<path class="st9" d="M85,227.5L85,227.5c-0.3,0.2-0.6,0.2-0.8,0L80,222c-0.2-0.2-0.1-0.5,0.1-0.7l0.1-0.1
					c0.2-0.2,0.5-0.1,0.7,0.1l4.2,5.5C85.3,227,85.2,227.3,85,227.5z"/>
				<path class="st9" d="M84.9,221.2L84.9,221.2c0.3,0.2,0.4,0.5,0.2,0.8l-4.2,5.5c-0.2,0.2-0.5,0.3-0.7,0.1l-0.1-0.1
					c-0.2-0.2-0.3-0.5-0.1-0.7l4.2-5.5C84.4,221.1,84.7,221,84.9,221.2z"/>
				<path class="st9" d="M87.2,230.4L87.2,230.4c-0.3,0-0.5-0.2-0.5-0.4v-2.4c0-0.2,0.2-0.4,0.4-0.4h0.1c0.2,0,0.4,0.2,0.4,0.4v2.4
					C87.6,230.2,87.4,230.4,87.2,230.4z"/>
				<path class="st9" d="M85.4,230.4L85.4,230.4c-0.3,0-0.5-0.2-0.5-0.4v-2.7c0-0.2,0.2-0.4,0.4-0.4h0.1c0.2,0,0.4,0.2,0.4,0.4v2.7
					C85.8,230.2,85.6,230.4,85.4,230.4z"/>
				<path class="st9" d="M84.9,227.9h-4.4c-0.2,0-0.4-0.2-0.4-0.4v-0.1c0-0.2,0.2-0.4,0.4-0.4h4.4c0.2,0,0.4,0.2,0.4,0.4v0.1
					C85.3,227.7,85.1,227.9,84.9,227.9z"/>
				<path class="st9" d="M88.5,231.1h-8.8c-0.2,0-0.4-0.2-0.4-0.4v-0.1c0-0.2,0.2-0.4,0.4-0.4h8.8c0.2,0,0.4,0.2,0.4,0.4v0.1
					C88.9,230.9,88.7,231.1,88.5,231.1z"/>
				<path class="st9" d="M79.8,226.5L79.8,226.5c0.4,0,0.6,0.2,0.6,0.5v3.6c0,0.3-0.2,0.5-0.5,0.5h-0.1c-0.3,0-0.5-0.2-0.5-0.5V227
					C79.3,226.7,79.5,226.5,79.8,226.5z"/>
				<path class="st9" d="M75.4,231.1L75.4,231.1c-0.4,0-0.6-0.2-0.6-0.5v-3.7c0-0.3,0.2-0.5,0.5-0.5h0.1c0.3,0,0.5,0.2,0.5,0.5v3.7
					C75.9,230.9,75.7,231.1,75.4,231.1z"/>
				<rect x="75.2" y="166" class="st5" width="6.6" height="6.4"/>
				<path class="st14" d="M87.1,210.4c0,1.7-1.4,3.1-3.1,3.1s-3.1-1.4-3.1-3.1c0-1.7,1.4-3.1,3.1-3.1S87.1,208.8,87.1,210.4
					L87.1,210.4z"/>
				<path class="st14" d="M77,209.5c0,2.2-1.4,4-3.1,4s-3.1-1.8-3.1-4s1.4-4,3.1-4S77,207.3,77,209.5z"/>
				<path class="st5" d="M72.9,175c0-1.3-0.7-2.4-1.8-3c-1.9,1.4-3,3.6-3.1,6c0.5,0.3,1,0.4,1.6,0.4C71.4,178.4,72.9,176.9,72.9,175
					C72.9,175,72.9,175,72.9,175z"/>
				<circle class="st14" cx="87.5" cy="175.2" r="5.7"/>
				<path class="st13" d="M84.9,171.3c-0.2-0.1-0.5-0.3-0.8-0.4l0,0c0.1,0.2,0.1,0.5,0.1,0.7c-0.1,1.9-1.6,3.3-3.5,3.2h-4.3
					c-1.9,0.1-3.4-1.4-3.5-3.2c0-0.3,0-0.6,0.1-0.8l-0.3,0.1c-0.6,0.3-1.1,0.6-1.6,1l0,0c1.1,0.5,1.8,1.6,1.8,2.8
					c-0.1,1.8-1.6,3.2-3.4,3.1c-0.5,0-1.1-0.1-1.6-0.4v31.4h21v-31.1C88.9,175,87.3,172.6,84.9,171.3z"/>
				<path class="st5" d="M76.4,175.2h4.3c1.9,0,3.5-1.6,3.5-3.5c0-0.3,0-0.5-0.1-0.8c-0.8-0.4-1.6-0.7-2.4-0.8
					c-0.8-0.2-1.5-0.2-2.3-0.2h-1.9c-1.5,0-3.1,0.3-4.4,1c-0.1,0.3-0.1,0.6-0.1,0.9C72.9,173.6,74.5,175.2,76.4,175.2z"/>
				<path class="st14" d="M88.4,196.2h-21c-0.8,0-1.4-0.6-1.4-1.4v-0.3c0-0.8,0.6-1.4,1.4-1.4h21c0.8,0,1.4,0.6,1.4,1.4v0.3
					C89.8,195.6,89.2,196.2,88.4,196.2z"/>
				<path class="st5" d="M77,142.5h2c5.2,0,9.5,4.2,9.5,9.5v7.4c0,5.2-4.2,9.5-9.5,9.5h-2c-5.2,0-9.5-4.2-9.5-9.5V152
					C67.5,146.8,71.8,142.5,77,142.5z"/>
				<path class="st14" d="M88.8,152.9l-4.5,1.7c-0.4,0.2-0.9,0-1.1-0.5l0,0c-0.2-0.4,0.1-0.9,0.5-1.1l4.5-1.7
					c0.4-0.2,0.9,0.1,1.1,0.5c0,0,0,0,0,0l0,0C89.4,152.2,89.2,152.7,88.8,152.9z"/>
				<path class="st14" d="M72,152.9l4.5,1.7c0.4,0.1,0.8-0.1,1-0.5l0,0c0.2-0.4,0-0.9-0.4-1.1c0,0,0,0,0,0l-4.5-1.7
					c-0.4-0.1-0.8,0.1-1,0.5l0,0C71.4,152.2,71.6,152.7,72,152.9C72,152.8,72,152.8,72,152.9z"/>
				<path class="st13" d="M66,152.1c0-6.7,5.4-12.1,12.1-12.1l0,0c6.7,0,12.1,5.4,12.1,12.1H66z"/>
				<circle class="st14" cx="68.1" cy="175.2" r="5.7"/>
				<path class="st4" d="M80.6,157c0.7,0,1.2,0.5,1.2,1.2h-2.4C79.4,157.5,79.9,157,80.6,157z"/>
				<path class="st11" d="M78.1,161.3c-0.7,0-1.3,0.6-1.3,1.4c0,0.2,0,0.3,0.1,0.5h-2c0-2,1.6-3.6,3.6-3.6c1.3,0,2.4,0.7,3.1,1.8
					c-0.1,0-0.2,0-0.3,0L78.1,161.3z"/>
				<path class="st15" d="M76.9,163.2c-0.1-0.2-0.1-0.3-0.1-0.5c0-0.7,0.6-1.3,1.3-1.4h3.1c0.1,0,0.2,0,0.3,0
					c0.3,0.5,0.5,1.2,0.5,1.8L76.9,163.2z"/>
				<circle class="st11" cx="85.6" cy="155.6" r="0.9"/>
				<circle class="st11" cx="75.2" cy="155.6" r="0.9"/>
				<path class="st10" d="M40.1,196.2l7.9-47c0.2-0.9,1-1.6,2-1.4l0.4,0.1c0.9,0.2,1.6,1,1.4,2l-7.9,47c-0.2,0.9-1,1.6-2,1.4
					l-0.4-0.1C40.5,198,39.9,197.2,40.1,196.2z"/>
				<path class="st16" d="M54.4,123.1h-0.2c1.9,2.6,1.4,6.2-1.2,8.1c-1.3,1-2.9,1.3-4.5,1.1c-1.5-0.3-2.9-1.1-3.8-2.4
					c-0.2,0.7-0.4,1.4-0.5,2.1c-1,5.8,2,11.1,6.6,11.8s9.2-3.3,10.1-9S59,123.8,54.4,123.1z"/>
				<path class="st12" d="M55.7,133.9C55.7,133.9,55.7,134,55.7,133.9c-0.4,2.6-2.8,4.3-5.3,3.9c-0.4-0.1-0.8-0.2-1.2-0.4
					c-0.1,2.2,1.2,4.1,3,4.4c2,0.4,4-1.4,4.5-4C56.9,136.5,56.5,135.1,55.7,133.9z"/>
				<path class="st12" d="M54.4,123.1h-0.2c1.9,2.6,1.4,6.2-1.2,8.1c-1.3,1-2.9,1.3-4.5,1.1c-1.5-0.3-2.9-1.1-3.8-2.4
					c-0.2,0.7-0.4,1.4-0.5,2.1c-1,5.8,2,11.1,6.6,11.8s9.2-3.3,10.1-9S59,123.8,54.4,123.1z"/>
				<path class="st5" d="M55.7,133.9C55.7,133.9,55.7,134,55.7,133.9c-0.4,2.6-2.8,4.3-5.3,3.9c-0.4-0.1-0.8-0.2-1.2-0.4
					c-0.1,2.2,1.2,4.1,3,4.4c2,0.4,4-1.4,4.5-4C56.9,136.5,56.5,135.1,55.7,133.9z"/>
				<path class="st5" d="M49.8,156.3h1.5c0.6,0,1.2,0.5,1.2,1.2v0.2c0,0.6-0.5,1.2-1.2,1.2h-1.5c-0.6,0-1.2-0.5-1.2-1.2v-0.2
					C48.7,156.8,49.2,156.3,49.8,156.3z"/>
				<path class="st5" d="M78.8,180.1c-4.2,0.1-8.4-1.2-11.8-3.7c-5.2-4-7.8-10.8-7.8-20.3c0.1-1.6,1.5-2.8,3.1-2.7
					c1.5,0.1,2.6,1.3,2.7,2.7c0,7.6,1.9,12.8,5.6,15.6c5.1,3.9,12.3,2.1,12.4,2.1c1.6-0.4,3.2,0.5,3.6,2.1c0.4,1.6-0.5,3.2-2,3.6
					C82.6,179.9,80.7,180.1,78.8,180.1z"/>
				<rect x="85" y="208.3" class="st5" width="5.4" height="10.4"/>
				<rect x="96.6" y="208.3" class="st5" width="5.3" height="10.4"/>
				<path class="st13" d="M93.3,141.5h2.5c6.5,0,11.8,5.3,11.8,11.8v5.1c0,6.5-5.3,11.8-11.8,11.8h-2.5c-6.5,0-11.8-5.3-11.8-11.8
					v-5.1C81.5,146.8,86.8,141.5,93.3,141.5z"/>
				<path class="st5" d="M102.6,199.9c-1.6,0-2.9-1.3-2.9-2.9c0-1.6,1.3-2.9,2.9-2.9l0,0c2.3-0.1,4.4-1.1,6-2.7
					c1.2-1.1,1.9-2.6,1.9-4.1c0-3.5-4.1-6.7-7.9-8.5c-1.5-0.6-2.2-2.3-1.6-3.8c0.6-1.5,2.3-2.2,3.8-1.6c0.1,0,0.2,0.1,0.3,0.1
					c3.3,1.6,11.1,6.1,11.2,13.7c0,3.1-1.3,6.1-3.6,8.3C110.1,198.1,106.4,199.7,102.6,199.9z"/>
				<path class="st5" d="M93.7,233.9l-0.4-0.5c-0.2-0.3-0.5-0.4-0.9-0.5l-2-0.4v-14.6c0-1.5-1.2-2.8-2.8-2.8s-2.8,1.2-2.8,2.8v14
					c-0.4,0.3-0.6,0.8-0.6,1.3v1.8c0,0.9,0.7,1.6,1.6,1.6h6.6c0.9,0,1.7-0.7,1.7-1.6C94.2,234.6,94,234.2,93.7,233.9z"/>
				<path class="st9" d="M90.1,220.7h-5c-0.3,0-0.5-0.2-0.5-0.5v-0.1c0-0.3,0.2-0.5,0.5-0.5h5c0.3,0,0.5,0.2,0.5,0.5v0.1
					C90.5,220.5,90.3,220.7,90.1,220.7z"/>
				<path class="st9" d="M90.2,227L90.2,227c-0.3,0.3-0.7,0.2-0.9,0l-4.5-5.9c-0.2-0.2-0.1-0.6,0.1-0.8l0.1-0.1
					c0.2-0.2,0.6-0.1,0.8,0.1l4.5,5.9C90.5,226.5,90.4,226.8,90.2,227z"/>
				<path class="st9" d="M90.1,220.2L90.1,220.2c0.3,0.2,0.3,0.5,0.2,0.7l0,0l-4.6,6c-0.2,0.2-0.5,0.3-0.7,0.1l-0.1-0.1
					c-0.2-0.2-0.3-0.5-0.1-0.7l0,0l4.6-6C89.5,220.1,89.8,220.1,90.1,220.2z"/>
				<path class="st9" d="M90.2,233L90.2,233c-0.3,0.3-0.7,0.2-0.9,0l-4.5-5.9c-0.2-0.2-0.1-0.6,0.1-0.8l0.1-0.1
					c0.2-0.2,0.6-0.1,0.8,0.1l4.5,5.9C90.5,232.4,90.4,232.8,90.2,233z"/>
				<path class="st9" d="M90.1,226.2L90.1,226.2c0.3,0.3,0.4,0.6,0.2,0.8l-4.5,5.9c-0.2,0.2-0.5,0.3-0.8,0.1L85,233
					c-0.2-0.2-0.3-0.5-0.1-0.8l4.5-5.9C89.5,226.1,89.9,226,90.1,226.2z"/>
				<path class="st9" d="M92.5,236.3L92.5,236.3c-0.3,0-0.5-0.2-0.5-0.4v-2.6c0-0.2,0.2-0.4,0.4-0.4h0.1c0.2,0,0.4,0.2,0.4,0.4v2.6
					C93,236.1,92.8,236.3,92.5,236.3z"/>
				<path class="st9" d="M90.6,236.3L90.6,236.3c-0.3,0-0.5-0.2-0.5-0.4v-3.1c0-0.2,0.2-0.4,0.4-0.4h0.1c0.2,0,0.4,0.2,0.4,0.4v3.1
					C91,236.1,90.8,236.3,90.6,236.3z"/>
				<path class="st9" d="M90.1,233.4h-4.8c-0.3,0-0.5-0.2-0.5-0.5v-0.1c0-0.3,0.2-0.5,0.5-0.5h4.8c0.3,0,0.5,0.2,0.5,0.5v0.1
					C90.6,233.2,90.3,233.4,90.1,233.4z"/>
				<path class="st9" d="M84.3,235.8h9.5c0.2,0,0.4,0.2,0.4,0.4v0.1c0,0.2-0.2,0.4-0.4,0.4h-9.5c-0.2,0-0.4-0.2-0.4-0.4v-0.1
					C83.8,236,84,235.8,84.3,235.8z"/>
				<path class="st5" d="M96.6,231.9v-14c0-1.5,1.2-2.8,2.8-2.8s2.8,1.2,2.8,2.8v14.6l2,0.4c0.3,0.1,0.6,0.2,0.9,0.5l0.4,0.5
					c0.6,0.7,0.6,1.7-0.1,2.3c-0.3,0.3-0.7,0.4-1.1,0.4h-6.6c-0.9,0-1.6-0.7-1.6-1.6v-1.8C96,232.7,96.2,232.2,96.6,231.9z"/>
				<path class="st9" d="M101.8,220.7h-5c-0.3,0-0.5-0.2-0.5-0.5v-0.1c0-0.3,0.2-0.5,0.5-0.5h5c0.3,0,0.5,0.2,0.5,0.5v0.1
					C102.3,220.5,102.1,220.7,101.8,220.7z"/>
				<path class="st9" d="M101.9,227L101.9,227c-0.3,0.3-0.7,0.2-0.9,0l-4.5-5.9c-0.2-0.2-0.1-0.6,0.1-0.8l0.1-0.1
					c0.2-0.2,0.6-0.1,0.8,0.1l4.5,5.9C102.2,226.5,102.2,226.8,101.9,227z"/>
				<path class="st9" d="M101.8,220.2L101.8,220.2c0.3,0.3,0.4,0.6,0.2,0.8l-4.5,5.9c-0.2,0.2-0.5,0.3-0.8,0.1l-0.1-0.1
					c-0.2-0.2-0.3-0.5-0.1-0.8l4.5-5.9C101.3,220.1,101.6,220.1,101.8,220.2z"/>
				<path class="st9" d="M101.9,233L101.9,233c-0.3,0.3-0.7,0.2-0.9,0l-4.5-5.9c-0.2-0.2-0.1-0.6,0.1-0.8l0.1-0.1
					c0.2-0.2,0.6-0.1,0.8,0.1l4.5,5.9C102.2,232.4,102.2,232.8,101.9,233z"/>
				<path class="st9" d="M101.8,226.2L101.8,226.2c0.3,0.3,0.4,0.6,0.2,0.8l-4.5,5.9c-0.2,0.2-0.5,0.3-0.8,0.1l-0.1-0.1
					c-0.2-0.2-0.3-0.5-0.1-0.8l4.5-5.9C101.3,226.1,101.6,226,101.8,226.2z"/>
				<path class="st9" d="M104.3,236.1L104.3,236.1c-0.3,0-0.5-0.2-0.5-0.4V233c0-0.2,0.2-0.4,0.4-0.4h0.1c0.2,0,0.4,0.2,0.4,0.4v2.6
					C104.7,235.9,104.5,236.1,104.3,236.1z"/>
				<path class="st9" d="M102.3,236.1L102.3,236.1c-0.3,0-0.5-0.2-0.5-0.4v-2.9c0-0.2,0.2-0.4,0.4-0.4h0.1c0.2,0,0.4,0.2,0.4,0.4
					v2.9C102.8,235.9,102.6,236.1,102.3,236.1z"/>
				<path class="st9" d="M101.8,233.4H97c-0.3,0-0.5-0.2-0.5-0.5v-0.1c0-0.3,0.2-0.5,0.5-0.5h4.8c0.3,0,0.5,0.2,0.5,0.5v0.1
					C102.3,233.2,102.1,233.4,101.8,233.4z"/>
				<path class="st9" d="M105.6,236.8h-9.5c-0.2,0-0.4-0.2-0.4-0.4v-0.1c0-0.2,0.2-0.4,0.4-0.4h9.5c0.2,0,0.4,0.2,0.4,0.4v0.1
					C106.1,236.6,105.9,236.8,105.6,236.8z"/>
				<path class="st9" d="M96.3,231.9h0.1c0.3,0,0.5,0.2,0.5,0.5v3.9c0,0.3-0.2,0.5-0.5,0.5h-0.1c-0.3,0-0.5-0.2-0.5-0.5v-3.9
					C95.8,232.1,96,231.9,96.3,231.9z"/>
				<path class="st9" d="M91.6,236.8h-0.1c-0.3,0-0.5-0.2-0.5-0.5v-3.9c0-0.3,0.2-0.5,0.5-0.5h0.1c0.3,0,0.5,0.2,0.5,0.5v3.9
					C92.1,236.6,91.9,236.8,91.6,236.8z"/>
				<rect x="91.4" y="166.7" class="st5" width="7.1" height="6.9"/>
				<path class="st14" d="M104.2,214.6c0,1.8-1.5,3.3-3.3,3.3s-3.3-1.5-3.3-3.3c0-1.8,1.5-3.3,3.3-3.3c0,0,0,0,0,0
					C102.7,211.3,104.2,212.8,104.2,214.6C104.2,214.6,104.2,214.6,104.2,214.6z"/>
				<path class="st14" d="M93.4,213.6c0,2.4-1.5,4.3-3.3,4.3s-3.3-1.9-3.3-4.3s1.5-4.3,3.3-4.3S93.4,211.2,93.4,213.6z"/>
				<path class="st5" d="M88.9,176.4c0-1.4-0.8-2.6-1.9-3.2c-2,1.5-3.3,3.9-3.4,6.4c1.8,0.9,4,0.3,4.9-1.5
					C88.7,177.6,88.9,177,88.9,176.4z"/>
				<path class="st14" d="M110.8,176.6c0,3.4-2.7,6.1-6.1,6.1s-6.1-2.7-6.1-6.1c0-3.4,2.7-6.1,6.1-6.1l0,0
					C108.1,170.5,110.8,173.3,110.8,176.6z"/>
				<path class="st13" d="M101.8,172.5c-0.3-0.2-0.5-0.3-0.8-0.4l0,0c0.1,0.2,0.1,0.5,0.1,0.8c-0.1,2-1.8,3.6-3.8,3.5h-4.6
					c-2,0.1-3.7-1.5-3.8-3.5c0-0.3,0-0.6,0.1-0.9l-0.3,0.1c-0.6,0.3-1.2,0.6-1.7,1l0,0c1.2,0.5,1.9,1.7,1.9,3
					c-0.1,1.9-1.7,3.4-3.6,3.4c-0.6,0-1.2-0.1-1.7-0.4c0,0.1,0,0.2,0,0.2v33.5h22.6v-33.5C106,176.4,104.4,173.8,101.8,172.5z"/>
				<path class="st5" d="M92.6,176.6h4.6c2.1,0,3.7-1.6,3.8-3.7c0-0.3,0-0.6-0.1-0.9c-0.8-0.4-1.7-0.7-2.6-0.9
					c-0.8-0.2-1.6-0.3-2.5-0.3h-2.1c-1.7,0-3.3,0.4-4.8,1.1c-0.5,2,0.7,4.1,2.7,4.6C92,176.6,92.3,176.6,92.6,176.6L92.6,176.6z"/>
				<path class="st14" d="M105.6,199.3H83c-0.8,0-1.5-0.7-1.5-1.5v-0.3c0-0.8,0.7-1.5,1.5-1.5h22.6c0.8,0,1.5,0.7,1.5,1.5v0.3
					C107.1,198.6,106.4,199.3,105.6,199.3z"/>
				<path class="st5" d="M93.3,141.5h2.1c5.6,0,10.2,4.6,10.2,10.2v8c0,5.6-4.6,10.2-10.2,10.2h-2.1c-5.6,0-10.2-4.6-10.2-10.2v-8
					C83.1,146.1,87.7,141.5,93.3,141.5z"/>
				<path class="st14" d="M105.3,152.9l-4.5,1.7c-0.4,0.2-0.9,0-1.1-0.5l0,0c-0.2-0.4,0.1-0.9,0.5-1.1l4.5-1.7
					c0.4-0.1,0.8,0.1,1,0.5l0,0C105.9,152.2,105.7,152.7,105.3,152.9z"/>
				<path class="st14" d="M88.5,152.9l4.5,1.7c0.4,0.1,0.8-0.1,1-0.5l0,0c0.2-0.4,0-0.9-0.5-1.1l-4.5-1.7c-0.4-0.1-0.8,0.1-1,0.5
					l0,0C87.9,152.2,88.1,152.7,88.5,152.9C88.5,152.8,88.5,152.8,88.5,152.9z"/>
				<path class="st13" d="M81.4,151.8c0-7.2,5.9-13,13.1-13.1l0,0c7.2,0,13,5.9,13.1,13.1L81.4,151.8z"/>
				<path class="st14" d="M89.8,176.6c0,3.4-2.7,6.1-6.1,6.1s-6.1-2.7-6.1-6.1c0-3.4,2.7-6.1,6.1-6.1l0,0
					C87.1,170.5,89.8,173.3,89.8,176.6z"/>
				<path class="st4" d="M97.2,157.1c0.7,0,1.3,0.6,1.3,1.3h-2.6C95.9,157.7,96.5,157.1,97.2,157.1L97.2,157.1z"/>
				<path class="st11" d="M94.5,161.7c-0.8,0-1.5,0.7-1.4,1.5c0,0.2,0,0.4,0.1,0.5H91c0-2.1,1.7-3.8,3.8-3.8c1.4,0,2.6,0.7,3.3,1.9
					c-0.1,0-0.2,0-0.3,0L94.5,161.7z"/>
				<path class="st15" d="M93.2,163.7c-0.1-0.2-0.1-0.3-0.1-0.5c0-0.8,0.6-1.5,1.4-1.5h3.3c0.1,0,0.2,0,0.3,0
					c0.3,0.6,0.5,1.3,0.5,1.9L93.2,163.7z"/>
				<circle class="st11" cx="102.5" cy="155.6" r="1"/>
				<circle class="st11" cx="91.4" cy="155.6" r="1"/>
				<path class="st10" d="M53.6,199.3l8.5-50.6c0.2-1,1.1-1.7,2.1-1.5l0.4,0.1c1,0.2,1.7,1.1,1.5,2.1L57.6,200
					c-0.2,1-1.1,1.7-2.1,1.5l-0.4-0.1C54.1,201.2,53.4,200.3,53.6,199.3z"/>
				<path class="st16" d="M69,120.6h-0.2c2,2.8,1.4,6.7-1.4,8.8c-2.8,2-6.7,1.4-8.8-1.4l0,0c-0.3,0.8-0.5,1.5-0.6,2.3
					c-1,6.2,2.1,11.9,7.1,12.7s9.9-3.5,10.9-9.7S74,121.4,69,120.6z"/>
				<path class="st12" d="M70.4,132.2C70.4,132.3,70.4,132.3,70.4,132.2c-0.5,2.8-3.1,4.7-5.8,4.2c0,0,0,0,0,0
					c-0.4-0.1-0.8-0.2-1.2-0.4c-0.1,2.4,1.3,4.4,3.2,4.8c2.2,0.4,4.4-1.6,4.8-4.3C71.7,135.1,71.3,133.5,70.4,132.2z"/>
				<path class="st12" d="M69,120.6h-0.2c2,2.8,1.4,6.7-1.4,8.8c-2.8,2-6.7,1.4-8.8-1.4l0,0c-0.3,0.8-0.5,1.5-0.6,2.3
					c-1,6.2,2.1,11.9,7.1,12.7s9.9-3.5,10.9-9.7S74,121.4,69,120.6z"/>
				<path class="st5" d="M70.4,132.2C70.4,132.3,70.4,132.3,70.4,132.2c-0.5,2.8-3.1,4.7-5.8,4.2c0,0,0,0,0,0
					c-0.4-0.1-0.8-0.2-1.2-0.4c-0.1,2.4,1.3,4.4,3.2,4.8c2.2,0.4,4.4-1.6,4.8-4.3C71.7,135.1,71.3,133.5,70.4,132.2z"/>
				<path class="st5" d="M64.1,156.3h1.6c0.7,0,1.3,0.6,1.3,1.3v0.3c0,0.7-0.6,1.3-1.3,1.3h-1.6c-0.7,0-1.3-0.6-1.3-1.3v-0.3
					C62.8,156.9,63.4,156.3,64.1,156.3z"/>
				<path class="st5" d="M60.7,153.5l0.3,0.1c0.8,0.1,1.3,0.9,1.1,1.6l-0.7,4.2c-0.1,0.8-0.9,1.3-1.6,1.1l-0.3-0.1
					c-0.8-0.1-1.3-0.9-1.1-1.6l0.7-4.2C59.2,153.9,60,153.3,60.7,153.5z"/>
				<path class="st5" d="M46.7,152.9l0.3,0.1c0.8,0.1,1.3,0.9,1.1,1.6l-0.7,4.2c-0.1,0.8-0.9,1.3-1.6,1.2h0l-0.3-0.1
					c-0.8-0.1-1.3-0.9-1.1-1.6l0.7-4.2C45.2,153.3,46,152.7,46.7,152.9L46.7,152.9z"/>
				<path class="st5" d="M146.9,221.8l0.6-0.6c0.3-0.4,0.8-0.6,1.2-0.7l2.8-0.6c0-0.1,0-0.1,0-0.1v-20.3c0.1-2.1,1.9-3.8,4.1-3.7
					c2,0.1,3.6,1.7,3.7,3.7V219c0.6,0.4,0.9,1.1,0.9,1.8v2.5c0,1.3-1,2.3-2.3,2.3c0,0,0,0,0,0h-9.2c-1.3,0-2.3-1.1-2.3-2.3
					C146.3,222.8,146.5,222.2,146.9,221.8z"/>
				<path class="st5" d="M167.3,219v-19.6c0.1-2.1,1.9-3.8,4.1-3.7c2,0.1,3.6,1.7,3.7,3.7v20.3c0,0,0,0.1,0,0.1l2.8,0.6
					c0.5,0.1,0.9,0.3,1.2,0.7l0.6,0.6c0.9,0.9,0.8,2.4-0.2,3.3c-0.4,0.4-1,0.6-1.5,0.6h-9.2c-1.3,0-2.3-1-2.3-2.3c0,0,0,0,0,0v-2.5
					C166.4,220.1,166.7,219.4,167.3,219z"/>
				<rect x="148.2" y="113.6" class="st14" width="26.8" height="28.8"/>
				<path class="st4" d="M153.7,149.6c-7.4,0-13.4-2.5-17.6-7.3c-8.7-10-6.7-26.4-6.6-27.1c0.4-2.2,2.4-3.6,4.6-3.2
					c2,0.3,3.5,2.2,3.3,4.2c0,0.2-1.7,13.7,4.7,20.9c2.7,3.1,6.5,4.6,11.7,4.6c2.2,0.3,3.7,2.4,3.3,4.6
					C156.8,148,155.4,149.3,153.7,149.6L153.7,149.6z"/>
				<path class="st5" d="M153.7,148.1c-7.4,0-13.4-2.5-17.6-7.3c-8.7-10-6.7-26.4-6.6-27.1c0.4-2.2,2.4-3.6,4.6-3.2
					c2,0.3,3.5,2.2,3.3,4.2c0,0.2-1.7,13.7,4.7,20.9c2.7,3.1,6.5,4.6,11.7,4.6c2.2,0,3.9,1.8,3.9,4
					C157.7,146.3,155.9,148.1,153.7,148.1L153.7,148.1z"/>
				<path class="st17" d="M179.4,172.4v-18.4c-0.2-9.6-8.2-17.1-17.7-16.9c-9.2,0.2-16.7,7.7-16.9,16.9v24.3
					c-0.4,14.3-1.6,32.7-5.4,36.4c3.1,1.8,6.9,1.8,10,0c0,0,5.4-2.5,10.6,0c3.7,1.9,8.2,1.3,11.3-1.6c3.6-0.1,7.1,0.9,10,2.9
					c0,0,1.8,1,4.1-1.4C181.5,201,179.4,186.8,179.4,172.4z"/>
				<path class="st5" d="M142.9,175.5h38.4c1.2,0,2.1,1,2.1,2.1v0.4c0,1.2-1,2.1-2.1,2.1h-38.4c-1.2,0-2.1-1-2.1-2.1v-0.4
					C140.8,176.4,141.7,175.5,142.9,175.5z"/>
				<path class="st5" d="M146.2,122.9c0.1,1.6,1.5,2.8,3.1,2.7s2.8-1.5,2.7-3.1c-0.1-1.5-1.4-2.7-2.9-2.7
					C147.5,119.8,146.2,121.1,146.2,122.9C146.2,122.8,146.2,122.8,146.2,122.9z"/>
				<path class="st4" d="M147.4,122.9c0.1,1,0.9,1.7,1.9,1.7s1.7-0.9,1.7-1.9c-0.1-0.9-0.9-1.7-1.8-1.7
					C148.1,121,147.3,121.8,147.4,122.9C147.4,122.9,147.4,122.9,147.4,122.9z"/>
				<path class="st5" d="M170.8,122.9c0.1,1.6,1.5,2.8,3.1,2.7s2.8-1.5,2.7-3.1c-0.1-1.5-1.4-2.7-2.9-2.7
					C172.1,119.8,170.8,121.1,170.8,122.9C170.8,122.8,170.8,122.8,170.8,122.9z"/>
				<path class="st4" d="M172,122.9c0.1,1,0.9,1.7,1.9,1.7s1.7-0.9,1.7-1.9c-0.1-0.9-0.9-1.7-1.8-1.7C172.8,121,172,121.8,172,122.9
					C172,122.9,172,122.9,172,122.9z"/>
				<rect x="151.5" y="119.9" class="st5" width="20.1" height="9.5"/>
				<path class="st5" d="M149.7,115v8.9c0,7,5.3,12.7,11.9,12.7l0,0c6.5,0,11.9-5.7,11.9-12.7V115H149.7z"/>
				<path class="st4" d="M161.6,122c-1,0-1.7,0.8-1.7,1.8h3.4C163.3,122.8,162.6,122,161.6,122z"/>
				<path class="st14" d="M158.9,119.4l-5.6-1.4c-0.2-0.1-0.4-0.3-0.3-0.5c0,0,0,0,0,0l0.1-0.3c0.1-0.2,0.3-0.4,0.5-0.3l5.6,1.4
					c0.2,0.1,0.4,0.3,0.3,0.5c0,0,0,0,0,0l-0.1,0.3C159.4,119.3,159.1,119.5,158.9,119.4z"/>
				<path class="st14" d="M163.9,119.4l5.6-1.2c0.2-0.1,0.4-0.3,0.3-0.5c0,0,0,0,0,0l-0.1-0.3c-0.1-0.2-0.3-0.4-0.5-0.4l-5.6,1.2
					c-0.2,0.1-0.4,0.3-0.3,0.5c0,0,0,0,0,0l0.1,0.3C163.4,119.3,163.6,119.4,163.9,119.4z"/>
				<path class="st14" d="M161.6,144.9L161.6,144.9c-6.6,0-12-5.8-12-12.9v-6.9l23.8-0.4l0.2,7.4
					C173.6,139.2,168.2,144.9,161.6,144.9z"/>
				<rect x="149.6" y="115" class="st14" width="2.6" height="12"/>
				<rect x="170.8" y="115" class="st14" width="2.9" height="12"/>
				<path class="st14" d="M150.3,114.1h22.2c0.1,0,0.1,0.1,0.1,0.1v2.4c0,0.1-0.1,0.1-0.1,0.1h-22.2c-0.1,0-0.1-0.1-0.1-0.1v-2.4
					C150.2,114.2,150.3,114.1,150.3,114.1z"/>
				<path class="st5" d="M161.9,129.3c1.3,0,2.5-0.9,3-2.1c0.2-0.5-0.1-1.1-0.6-1.3c-0.1,0-0.2-0.1-0.3-0.1h-4.3
					c-0.5,0.1-0.9,0.5-0.9,1.1c0,0.1,0,0.2,0.1,0.3C159.4,128.4,160.6,129.3,161.9,129.3z"/>
				<path class="st5" d="M170,105.7c-3,0-5.6-2.2-7-5.5c-0.2-0.6-1-1-1.6-0.7c-0.3,0.1-0.6,0.4-0.7,0.7c-1.4,3.3-4,5.5-7,5.5
					c-1.8,0-3.5-0.8-4.7-2.1c-0.3-0.2-0.6-0.2-0.9,0.1c-0.1,0.1-0.1,0.3-0.1,0.4v4.4c0,2.4,1.4,4.4,3.1,4.4h21.7
					c1.7,0,3.1-2,3.1-4.4v-4.8c0-0.3-0.3-0.6-0.6-0.6c-0.1,0-0.3,0-0.4,0.1C173.7,104.8,171.9,105.7,170,105.7z"/>
				<path class="st4" d="M149.5,112h24.8c0.7,0,1.2,0.6,1.2,1.2v0.9c0,0.7-0.6,1.2-1.2,1.2h-24.8c-0.7,0-1.2-0.6-1.2-1.2v-0.9
					C148.2,112.5,148.8,112,149.5,112z"/>
				<path class="st4" d="M162,127.9c-0.3,0-0.5,0.2-0.4,0.5c0,0,0,0,0,0h0.9C162.5,128.1,162.3,127.9,162,127.9
					C162,127.9,162,127.9,162,127.9z"/>
				<path class="st14" d="M156.5,119.1h0.4c0.5,0,0.8,0.4,0.8,0.8v2.7c0,0.5-0.4,0.8-0.8,0.8h-0.4c-0.5,0-0.8-0.4-0.8-0.8v-2.7
					C155.6,119.5,156,119.1,156.5,119.1z"/>
				<path class="st14" d="M165.6,119.1h0.4c0.5,0,0.8,0.4,0.8,0.8v2.7c0,0.5-0.4,0.8-0.8,0.8h-0.4c-0.5,0-0.8-0.4-0.8-0.8v-2.7
					C164.8,119.5,165.2,119.1,165.6,119.1z"/>
				<path class="st10" d="M133.6,122.3H133c-1.5,0-2.7-1.2-2.7-2.7V74.8c0-1.5,1.2-2.7,2.7-2.7h0.6c1.5,0,2.7,1.2,2.7,2.7v44.9
					C136.3,121.1,135.1,122.3,133.6,122.3z"/>
				<path class="st12" d="M142,58.1c0-4.4-2.1-8.2-5.1-9.8c-0.7-0.4-1.6-0.1-2,0.6c-0.2,0.4-0.2,0.8-0.1,1.2
					c0.2,0.8,0.3,1.6,0.2,2.3c-0.4,3.3-3.3,5.6-6.6,5.2c-0.7-0.1-1.3-0.3-1.9-0.6c-0.6-0.3-1.4,0-1.7,0.6c-0.1,0.2-0.1,0.3-0.1,0.5
					l0,0c0,6,3.9,10.8,8.7,10.8S142,64.1,142,58.1z"/>
				<path class="st5" d="M136.4,55.3L136.4,55.3c0,2.9-2.3,5.2-5.1,5.2c0,0,0,0,0,0c-0.4,0-0.9-0.1-1.3-0.2c0.3,2.4,2,4.2,4,4.2
					c2.3,0,4.1-2.3,4.1-5.1C138.1,57.9,137.5,56.4,136.4,55.3z"/>
				<circle class="st10" cx="144" cy="201.3" r="8.1"/>
				<circle class="st10" cx="174.8" cy="201.3" r="8.1"/>
				<path class="st10" d="M159.2,213.1L159.2,213.1c-8.7,0-15.7-7-15.7-15.7l-0.4-23.8l31.7,0.2v23.6
					C174.8,206.1,167.8,213.1,159.2,213.1z"/>
				<path class="st12" d="M188,215.9L188,215.9c1.2-1.6,0.9-3.8-0.7-4.9l-14.6-11c-1.6-1.2-3.8-0.9-4.9,0.7l0,0
					c-1.2,1.6-0.9,3.8,0.7,4.9l14.6,11C184.6,217.7,186.8,217.4,188,215.9z"/>
				<path class="st5" d="M196.8,199.2l0.9,0.7c1.3,1,1.5,2.8,0.6,4l-9.7,12.8c-1,1.3-2.8,1.5-4,0.6l-0.9-0.7c-1.3-1-1.5-2.8-0.6-4
					l9.7-12.8C193.7,198.5,195.5,198.2,196.8,199.2z"/>
				<path class="st10" d="M195.9,152.6h0.6c1.5,0,2.7,1.2,2.7,2.7v45.7c0,1.5-1.2,2.7-2.7,2.7h-0.6c-1.5,0-2.7-1.2-2.7-2.7v-45.7
					C193.2,153.8,194.4,152.6,195.9,152.6z"/>
				<path class="st5" d="M193.5,199.2h-2.1c-0.6,0-1.1-0.5-1.1-1.1v-0.2c0-0.6,0.5-1.1,1.1-1.1h2.1c0.6,0,1.1,0.5,1.1,1.1v0.2
					C194.6,198.7,194.1,199.2,193.5,199.2z"/>
				<path class="st5" d="M199.5,203.3H199c-1.3,0-2.3-1-2.3-2.3v-3.7c0-1.3,1-2.3,2.3-2.3h0.5c1.3,0,2.3,1,2.3,2.3v3.7
					C201.8,202.3,200.7,203.3,199.5,203.3z"/>
				<path class="st12" d="M196.2,127.3h0.2c-2.4,2.3-2.5,6.2-0.1,8.6c2.3,2.4,6.2,2.5,8.6,0.1l0,0c0.1,0.8,0.2,1.5,0.2,2.3
					c0,6.1-4,11-8.8,11s-8.9-4.9-8.9-11S191.3,127.3,196.2,127.3z"/>
				<path class="st5" d="M193.1,138.3C193.1,138.3,193.1,138.3,193.1,138.3c0,2.8,2.2,5,4.9,5c0.4,0,0.8-0.1,1.3-0.2
					c-0.3,2.3-1.9,4.1-3.9,4.1c-2.2,0-3.9-2.2-3.9-4.9C191.4,140.7,192,139.3,193.1,138.3z"/>
				<path class="st5" d="M159,191.6h0.9c1.2,0,2.1,0.9,2.1,2.1v6.4c0,1.2-0.9,2.1-2.1,2.1H159c-1.2,0-2.1-0.9-2.1-2.1v-6.4
					C156.9,192.5,157.9,191.6,159,191.6z"/>
				<path class="st16" d="M136.1,217c-1.3,2.8-1.8,5.9-1.4,9c0.5,3.1,2.4,7.5,8.8,10.4c0.4,0.2,0.9,0.3,1.3,0.3
					c1.8,0,3.2-1.4,3.2-3.2c0-1.3-0.7-2.4-1.9-3c-4.6-2.1-5-4.6-5.1-5.4c-0.2-1.7,0.1-3.4,0.7-4.9L136.1,217z"/>
				<path class="st12" d="M154.2,203.7c1.3-1.2,1.5-3.2,0.3-4.6c-1.2-1.3-3.2-1.5-4.6-0.3l0,0c-1.3,1.1-10.2,9.2-13.8,18.1l5.7,3.1
					C144.2,213.7,151.3,206.3,154.2,203.7z"/>
				<path class="st5" d="M159.4,206.9c4.1,0,7.4-3.3,7.4-7.4c0,0,0,0,0,0c0-0.1,0-0.1,0-0.2c-2.3-1.2-4.8-1.9-7.4-1.9l0,0
					c-2.6,0-5.2,0.6-7.5,1.9v0.2C152,203.6,155.3,206.9,159.4,206.9C159.4,206.9,159.4,206.9,159.4,206.9z"/>
				<path class="st12" d="M173.4,206.3c-1.4-3-3.7-5.4-6.6-7c0,0.1,0,0.1,0,0.2c0,4.1-3.3,7.4-7.4,7.4c-4.1,0-7.4-3.3-7.4-7.4v-0.2
					c-2.6,1.4-4.8,3.6-6.2,6.3c-1.2,2.2-1.8,4.7-1.8,7.2v29.8h31v-29.8C174.9,210.6,174.4,208.4,173.4,206.3z"/>
				<path class="st5" d="M175.2,290l-0.5-0.9c-0.2-0.5-0.6-0.8-1.1-1l-2.6-0.8c0-0.1,0-0.1,0-0.2v-28.3c0-3-1.6-5.4-3.5-5.4
					s-3.5,2.4-3.5,5.4v27.4c-0.6,0.7-0.8,1.6-0.8,2.5v3.5c0,1.8,0.9,3.2,2.1,3.2h8.4C175.4,295.4,176.4,292.1,175.2,290z"/>
				<path class="st5" d="M156.6,286.1v-27.4c0-3-1.6-5.4-3.5-5.4s-3.5,2.4-3.5,5.4v28.3c0,0.1,0,0.1,0,0.2l-2.6,0.8
					c-0.5,0.2-0.9,0.5-1.1,1l-0.5,0.9c-1.2,2.1-0.3,5.4,1.6,5.4h8.4c1.2,0,2.1-1.4,2.1-3.2v-3.5
					C157.5,287.8,157.2,286.9,156.6,286.1z"/>
				<path class="st18" d="M175,234.4h-31.8c-0.9,0-1.7-0.8-1.7-1.7v-0.2c0-0.9,0.8-1.7,1.7-1.7H175c0.9,0,1.7,0.8,1.7,1.7v0.2
					C176.7,233.6,176,234.4,175,234.4z"/>
				<path class="st12" d="M144,240.5c0,0-1.8,27.1-8.2,30.3c0,0,5.6,3.5,10.8,0c0,0,7.8-1.2,10.2,1.5c0,0,7.5,3.6,12-1.5
					c1.6-0.5,3.4,0,4.6,1.2c0,0,6.3,1.9,7.2-2c-4.3-10.8-6.3-22.3-5.9-33.9"/>
				<path class="st4" d="M159.8,195.6l-2.2,0c-6.9,0-12.5-5.7-12.4-12.6l0-9.3c0-6.9,5.7-12.5,12.6-12.4l2.2,0
					c6.9,0,12.5,5.7,12.4,12.6l0,9.3C172.4,190,166.7,195.6,159.8,195.6z"/>
				<path class="st5" d="M141.6,180.1c0,1.8,1.5,3.3,3.3,3.4c1.8,0,3.3-1.5,3.4-3.3c0-1.8-1.5-3.3-3.3-3.4
					C143.1,176.7,141.6,178.2,141.6,180.1C141.6,180,141.6,180,141.6,180.1z"/>
				<path class="st4" d="M142.9,180.1c0,1.1,0.9,2,2,2s2-0.9,2-2c0-1.1-0.9-2-1.9-2C143.8,178,142.9,178.9,142.9,180.1
					C142.9,180,142.9,180,142.9,180.1z"/>
				<path class="st5" d="M169.7,180.2c0,1.8,1.5,3.3,3.3,3.4c1.8,0,3.3-1.5,3.4-3.3c0-1.8-1.5-3.3-3.3-3.4
					C171.2,176.9,169.7,178.3,169.7,180.2C169.7,180.2,169.7,180.2,169.7,180.2z"/>
				<path class="st4" d="M171,180.2c0,1.1,0.9,2,2,2s2-0.9,2-2s-0.9-2-2-2S171,179.1,171,180.2z"/>
				<path class="st5" d="M158.7,194.9L158.7,194.9c7.5,0,13.6-6,13.7-13.5v-7.1c0-7.5-6-13.6-13.5-13.7l0,0c-7.5,0-13.6,6-13.7,13.5
					v7.1C145.2,188.7,151.2,194.8,158.7,194.9z"/>
				<path class="st10" d="M174.9,173.8c0-8.8-7-15.9-15.8-15.9l0,0c-8.8,0-15.9,7-15.9,15.8L174.9,173.8z"/>
				<path class="st4" d="M159.3,186.5c0.2-1.1-0.5-2.1-1.6-2.4c-1.1-0.2-2.1,0.5-2.4,1.6c-0.1,0.3-0.1,0.5,0,0.8H159.3z"/>
				<path class="st4" d="M160.3,189.5c-0.1,0-0.2,0-0.2-0.1c-1.4-1.4-4.3-0.4-4.3-0.4c-0.2,0.1-0.3,0-0.4-0.2c0,0,0,0,0,0
					c-0.1-0.2,0-0.3,0.2-0.4c0,0,0,0,0,0c0.1-0.1,3.3-1.1,5,0.6c0.1,0.1,0.1,0.3,0,0.5c0,0,0,0,0,0
					C160.5,189.5,160.4,189.5,160.3,189.5z"/>
				<path class="st10" d="M153.7,179.3L148,178c-0.5-0.1-0.8-0.6-0.7-1.1l0,0c0.1-0.5,0.6-0.8,1.1-0.7l5.7,1.3
					c0.5,0.1,0.8,0.6,0.7,1.1l0,0C154.7,179.1,154.2,179.5,153.7,179.3C153.7,179.3,153.7,179.3,153.7,179.3z"/>
				<path class="st10" d="M161.5,179.3l5.7-1.3c0.5-0.1,0.8-0.6,0.7-1.1l0,0c-0.1-0.5-0.6-0.8-1.1-0.7l-5.7,1.3
					c-0.5,0.1-0.8,0.6-0.7,1.1l0,0C160.5,179.1,161,179.4,161.5,179.3z"/>
				<path class="st11" d="M152.4,184.5L152.4,184.5c-0.6,0-1-0.4-1-1v-2.4c0-0.6,0.4-1,1-1l0,0c0.6,0,1,0.4,1,1v2.4
					C153.4,184.1,152.9,184.5,152.4,184.5z"/>
				<path class="st11" d="M163.4,184.5L163.4,184.5c-0.6,0-1-0.4-1-1v-2.4c0-0.6,0.4-1,1-1l0,0c0.6,0,1,0.4,1,1v2.4
					C164.4,184.1,163.9,184.5,163.4,184.5z"/>
				<rect x="143.3" y="158.6" class="st5" width="7.6" height="12.9"/>
				<rect x="167.4" y="158.6" class="st5" width="7.6" height="12.9"/>
				<rect x="154.8" y="156.5" class="st5" width="8.8" height="17.2"/>
				<rect x="143.1" y="166.4" class="st5" width="31.9" height="5.1"/>
				<path class="st4" d="M144,171.1h30.8c0.7,0,1.3,0.6,1.3,1.3v0.5c0,0.7-0.6,1.3-1.3,1.3H144c-0.7,0-1.3-0.6-1.3-1.3v-0.5
					C142.7,171.6,143.3,171.1,144,171.1z"/>
				<path class="st5" d="M111.6,230.6c-1,0-2-0.1-2.9-0.4c-8-2.1-13-12-13.6-13.1c-0.8-1.7-0.1-3.7,1.6-4.6c1.7-0.8,3.7-0.1,4.6,1.6
					c1.1,2.3,4.9,8.4,9.1,9.5c1.7,0.4,3.4,0,4.7-1.1c1.5-1.1,3.7-0.7,4.8,0.8c1.1,1.5,0.7,3.7-0.8,4.8
					C116.9,229.7,114.3,230.6,111.6,230.6z"/>
				<rect x="74.5" y="189" class="st19" width="26.9" height="7.6"/>
				<circle class="st5" cx="100.9" cy="195.5" r="3"/>
				<path class="st4" d="M102.7,195.5c0,1-0.8,1.8-1.9,1.8s-1.8-0.8-1.8-1.9c0-1,0.8-1.8,1.8-1.8S102.7,194.5,102.7,195.5
					L102.7,195.5z"/>
				<path class="st5" d="M78.4,195.5c0,1.7-1.3,3-3,3s-3-1.3-3-3s1.3-3,3-3S78.4,193.9,78.4,195.5z"/>
				<path class="st4" d="M77.2,195.5c0,1-0.8,1.8-1.9,1.8s-1.8-0.8-1.8-1.9c0-1,0.8-1.8,1.8-1.8S77.2,194.5,77.2,195.5L77.2,195.5z"
					/>
				<path class="st10" d="M116.6,272.2h-0.4c-1.1,0-2-0.9-2-2v-71.4c0-1.1,0.9-2,2-2h0.4c1.1,0,2,0.9,2,2v71.4
					C118.6,271.3,117.7,272.2,116.6,272.2z"/>
				<path class="st12" d="M116.4,166.9h-0.2c2.7,2.7,2.8,7.1,0.1,9.8s-7.1,2.8-9.8,0.1l0,0c-0.1,0.9-0.2,1.7-0.2,2.6
					c0,6.9,4.5,12.6,10.1,12.6s10.1-5.6,10.1-12.6S122,166.9,116.4,166.9z"/>
				<path class="st16" d="M120.1,179.3L120.1,179.3c0,3.2-2.5,5.7-5.6,5.7c0,0,0,0,0,0c-0.5,0-0.9-0.1-1.4-0.2
					c0.4,2.6,2.2,4.6,4.4,4.6c2.5,0,4.5-2.5,4.5-5.6C122,182.2,121.3,180.5,120.1,179.3z"/>
				<path class="st5" d="M99.4,283.4l-0.4-0.5c-0.2-0.2-0.5-0.4-0.9-0.5l-2-0.4v-25.7c0-1.5-1.2-2.7-2.7-2.7c-1.5,0-2.7,1.2-2.7,2.7
					v25.1c-0.4,0.3-0.6,0.8-0.6,1.3v1.8c0,0.9,0.7,1.6,1.6,1.6c0,0,0,0,0,0h6.4c0.9,0,1.6-0.7,1.7-1.6
					C99.8,284.1,99.7,283.7,99.4,283.4z"/>
				<path class="st9" d="M95.8,270.4h-4.9c-0.3,0-0.5-0.2-0.5-0.5v-0.1c0-0.3,0.2-0.5,0.5-0.5h4.9c0.3,0,0.5,0.2,0.5,0.5v0.1
					C96.3,270.2,96.1,270.4,95.8,270.4z"/>
				<path class="st9" d="M95.9,276.7L95.9,276.7c-0.3,0.2-0.7,0.2-0.8,0l-4.4-5.8c-0.2-0.2-0.1-0.6,0.1-0.7l0.1-0.1
					c0.2-0.2,0.6-0.1,0.7,0.1l4.4,5.8C96.2,276.2,96.1,276.5,95.9,276.7z"/>
				<path class="st9" d="M95.8,270L95.8,270c0.3,0.2,0.3,0.5,0.2,0.7l-4.5,5.9c-0.2,0.2-0.5,0.3-0.7,0.1l-0.1-0.1
					c-0.2-0.2-0.3-0.5-0.1-0.7l4.5-5.9C95.3,269.8,95.6,269.8,95.8,270z"/>
				<path class="st9" d="M95.9,282.5L95.9,282.5c-0.3,0.2-0.7,0.2-0.8,0l-4.4-5.8c-0.2-0.2-0.1-0.6,0.1-0.7l0.1-0.1
					c0.2-0.2,0.6-0.1,0.7,0.1l4.4,5.8C96.2,282,96.1,282.3,95.9,282.5z"/>
				<path class="st9" d="M95.8,275.8L95.8,275.8c0.3,0.2,0.4,0.6,0.2,0.8l-4.4,5.8c-0.2,0.2-0.5,0.3-0.7,0.1l-0.1-0.1
					c-0.2-0.2-0.3-0.5-0.1-0.7l4.4-5.8C95.2,275.7,95.6,275.6,95.8,275.8z"/>
				<path class="st9" d="M98.2,285.8L98.2,285.8c-0.3,0-0.5-0.2-0.5-0.4v-2.5c0-0.2,0.2-0.4,0.4-0.4h0.1c0.2,0,0.4,0.2,0.4,0.4v2.5
					C98.6,285.6,98.4,285.8,98.2,285.8z"/>
				<path class="st9" d="M96.3,285.8L96.3,285.8c-0.3,0-0.5-0.2-0.5-0.4v-3c0-0.2,0.2-0.4,0.4-0.4h0.1c0.2,0,0.4,0.2,0.4,0.4v3
					C96.8,285.6,96.6,285.8,96.3,285.8z"/>
				<path class="st9" d="M95.8,282.9h-4.7c-0.3,0-0.5-0.2-0.5-0.5v-0.1c0-0.3,0.2-0.5,0.5-0.5h4.7c0.3,0,0.5,0.2,0.5,0.5v0.1
					C96.3,282.7,96,282.9,95.8,282.9z"/>
				<path class="st9" d="M90.1,285.3h9.3c0.2,0,0.4,0.2,0.4,0.4v0.1c0,0.2-0.2,0.4-0.4,0.4h-9.3c-0.2,0-0.4-0.2-0.4-0.4v-0.1
					C89.7,285.5,89.8,285.3,90.1,285.3z"/>
				<path class="st5" d="M85.1,281.4v-25.1c0-1.5-1.2-2.7-2.7-2.7c-1.5,0-2.7,1.2-2.7,2.7v25.6c0,0,0,0.1,0,0.1l-2,0.4
					c-0.3,0.1-0.6,0.2-0.9,0.5l-0.4,0.5c-0.6,0.7-0.5,1.7,0.1,2.3c0.3,0.3,0.7,0.4,1.1,0.4h6.4c0.9,0,1.6-0.7,1.6-1.6v-1.8
					C85.7,282.2,85.5,281.7,85.1,281.4z"/>
				<path class="st9" d="M80.1,269.4H85c0.3,0,0.5,0.2,0.5,0.5v0.1c0,0.3-0.2,0.5-0.5,0.5h-4.9c-0.3,0-0.5-0.2-0.5-0.5v-0.1
					C79.6,269.6,79.8,269.4,80.1,269.4z"/>
				<path class="st9" d="M85,270L85,270c0.3,0.2,0.4,0.6,0.2,0.8l-4.4,5.8c-0.2,0.2-0.5,0.3-0.7,0.1l-0.1-0.1
					c-0.2-0.2-0.3-0.5-0.1-0.7l4.4-5.8C84.4,269.9,84.7,269.8,85,270z"/>
				<path class="st9" d="M85.1,276.7L85.1,276.7c-0.3,0.2-0.7,0.2-0.8,0l-4.4-5.8c-0.2-0.2-0.1-0.6,0.1-0.7L80,270
					c0.2-0.2,0.6-0.1,0.7,0.1l4.4,5.8C85.3,276.2,85.3,276.5,85.1,276.7z"/>
				<path class="st9" d="M85,275.8L85,275.8c0.3,0.2,0.4,0.6,0.2,0.8l-4.4,5.8c-0.2,0.2-0.5,0.3-0.7,0.1l-0.1-0.1
					c-0.2-0.2-0.3-0.5-0.1-0.7l4.4-5.8C84.4,275.7,84.7,275.6,85,275.8z"/>
				<path class="st9" d="M85.1,282.5L85.1,282.5c-0.3,0.2-0.7,0.2-0.8,0l-4.4-5.8c-0.2-0.2-0.1-0.6,0.1-0.7l0.1-0.1
					c0.2-0.2,0.6-0.1,0.7,0.1l4.4,5.8C85.3,282,85.3,282.3,85.1,282.5z"/>
				<path class="st9" d="M77.7,282.1L77.7,282.1c0.3,0,0.5,0.2,0.5,0.4l0,0v2.6c0,0.2-0.2,0.4-0.4,0.4c0,0,0,0,0,0h-0.1
					c-0.2,0-0.4-0.2-0.4-0.4l0,0v-2.6C77.2,282.3,77.4,282.1,77.7,282.1C77.6,282.1,77.6,282.1,77.7,282.1z"/>
				<path class="st9" d="M79.5,281.8L79.5,281.8c0.3,0,0.5,0.2,0.5,0.4l0,0v2.8c0,0.2-0.2,0.4-0.4,0.4c0,0,0,0,0,0h-0.1
					c-0.2,0-0.4-0.2-0.4-0.4l0,0v-2.8C79.1,282,79.3,281.8,79.5,281.8C79.5,281.8,79.5,281.8,79.5,281.8z"/>
				<path class="st9" d="M80.1,281.8h4.7c0.3,0,0.5,0.2,0.5,0.5v0.1c0,0.3-0.2,0.5-0.5,0.5h-4.7c-0.3,0-0.5-0.2-0.5-0.5v-0.1
					C79.6,282.1,79.8,281.8,80.1,281.8z"/>
				<path class="st9" d="M76.3,285.3h9.3c0.2,0,0.4,0.2,0.4,0.4v0.1c0,0.2-0.2,0.4-0.4,0.4h-9.3c-0.2,0-0.4-0.2-0.4-0.4v-0.1
					C75.8,285.5,76,285.3,76.3,285.3z"/>
				<path class="st9" d="M85.5,286.2h-0.1c-0.3,0-0.5-0.2-0.5-0.5v-3.8c0-0.3,0.2-0.5,0.5-0.5h0.1c0.3,0,0.5,0.2,0.5,0.5v3.8
					C86,286,85.8,286.2,85.5,286.2z"/>
				<path class="st9" d="M90.1,281.4h0.1c0.3,0,0.5,0.2,0.5,0.5v3.9c0,0.3-0.2,0.5-0.5,0.5h-0.1c-0.3,0-0.5-0.2-0.5-0.5v-3.9
					C89.6,281.6,89.8,281.4,90.1,281.4z"/>
				<rect x="84.3" y="205.7" class="st5" width="7.8" height="7.5"/>
				<path class="st5" d="M88.1,215.6c2.8,0,5.4-1.5,6.7-4c-1.7-0.9-3.6-1.3-5.6-1.3H87c-1.9,0-3.8,0.4-5.6,1.3
					C82.8,214.1,85.3,215.6,88.1,215.6z"/>
				<path class="st12" d="M95.7,212.1c-0.3-0.2-0.6-0.3-0.9-0.5c-2,3.7-6.6,5.1-10.3,3.1c-1.3-0.7-2.4-1.8-3.1-3.1
					c-0.7,0.3-1.3,0.7-1.9,1.2l0,0c2.1,0.7,3.2,3,2.4,5.1c-0.7,2.1-3,3.2-5.1,2.4c-0.4-0.1-0.7-0.3-1-0.5v39.8h24.7v-39.5
					C100.4,216.8,98.6,213.8,95.7,212.1z"/>
				<path class="st5" d="M81.6,216.4c0-1.5-0.8-2.8-2.1-3.5c-2.2,1.7-3.5,4.2-3.7,7c2,1,4.4,0.2,5.4-1.7
					C81.4,217.6,81.6,217,81.6,216.4L81.6,216.4z"/>
				<path class="st20" d="M76.1,237.7h24.7c0.9,0,1.7,0.7,1.7,1.6v0.4c0,0.9-0.7,1.6-1.7,1.6H76.1c-0.9,0-1.7-0.7-1.7-1.6v-0.4
					C74.5,238.4,75.2,237.7,76.1,237.7z"/>
				<path class="st5" d="M87.1,177.8h2.4c6.2,0,11.2,5,11.2,11.2v8.8c0,6.2-5,11.2-11.2,11.2h-2.4c-6.2,0-11.2-5-11.2-11.2v-8.8
					C75.9,182.8,80.9,177.8,87.1,177.8z"/>
				<path class="st10" d="M73.7,189.7c0-7.9,6.5-14.4,14.4-14.4l0,0c7.9,0,14.4,6.5,14.4,14.4H73.7z"/>
				<path class="st5" d="M118.3,220.4h0.4c1.1,0,1.9,0.9,1.9,1.9v6.3c0,1.1-0.9,1.9-1.9,1.9h-0.4c-1.1,0-1.9-0.9-1.9-1.9v-6.3
					C116.3,221.2,117.2,220.4,118.3,220.4z"/>
				<path class="st5" d="M112.5,222.2h1.4c0.7,0,1.2,0.5,1.2,1.2v0.2c0,0.7-0.5,1.2-1.2,1.2h-1.4c-0.7,0-1.2-0.5-1.2-1.2v-0.2
					C111.3,222.7,111.8,222.2,112.5,222.2z"/>
				<path class="st5" d="M65.7,230.6c1,0,2-0.1,2.9-0.4c8-2.1,13-12,13.6-13.1c0.8-1.7,0.1-3.7-1.6-4.6c-1.7-0.8-3.7-0.1-4.6,1.6
					l0,0c-1.1,2.3-4.9,8.4-9.1,9.5c-1.7,0.4-3.4,0-4.7-1.1c-1.5-1.1-3.7-0.8-4.8,0.8s-0.8,3.7,0.8,4.8
					C60.3,229.7,62.9,230.6,65.7,230.6z"/>
				<path class="st10" d="M60.6,272.2h-0.4c-1.1,0-2-0.9-2-2v-71.4c0-1.1,0.9-2,2-2h0.4c1.1,0,2,0.9,2,2v71.4
					C62.6,271.3,61.7,272.2,60.6,272.2z"/>
				<path class="st12" d="M59.8,167.5h-0.2c2.8,2.6,3,7,0.4,9.8c-2.6,2.8-7,3-9.8,0.4c-0.1-0.1-0.2-0.2-0.3-0.3
					c-0.2,0.9-0.2,1.7-0.2,2.6c0,7,4.5,12.6,10.1,12.6S69.9,187,69.9,180S65.3,167.5,59.8,167.5z"/>
				<path class="st16" d="M63.4,180C63.4,180,63.4,180.1,63.4,180c0,3.2-2.5,5.7-5.6,5.7c-0.5,0-0.9-0.1-1.4-0.2
					c0.4,2.6,2.2,4.6,4.4,4.6c2.5,0,4.5-2.5,4.5-5.6C65.3,182.8,64.6,181.2,63.4,180z"/>
				<path class="st5" d="M58.3,230.4h-0.4c-1.1,0-1.9-0.9-1.9-1.9v-6.3c0-1.1,0.9-1.9,1.9-1.9h0.4c1.1,0,1.9,0.9,1.9,1.9v6.3
					C60.3,229.6,59.4,230.4,58.3,230.4z"/>
				<path class="st5" d="M64.1,224.9h-1.4c-0.7,0-1.2-0.5-1.2-1.2v-0.2c0-0.7,0.5-1.2,1.2-1.2h1.4c0.7,0,1.2,0.5,1.2,1.2v0.2
					C65.3,224.3,64.7,224.9,64.1,224.9z"/>
				<path class="st11" d="M84.2,194.2h0.3c0.8,0,1.4,0.6,1.4,1.4v2c0,0.8-0.6,1.4-1.4,1.4h-0.3c-0.8,0-1.4-0.6-1.4-1.4v-2
					C82.8,194.8,83.4,194.2,84.2,194.2z"/>
				<path class="st11" d="M94.7,194.2H95c0.8,0,1.4,0.6,1.4,1.4v2c0,0.8-0.6,1.4-1.4,1.4h-0.3c-0.8,0-1.4-0.6-1.4-1.4v-2
					C93.3,194.8,93.9,194.2,94.7,194.2z"/>
				<path class="st10" d="M81,193.5l4.7,0.8c0.6,0.1,1.2-0.3,1.3-0.9c0,0,0,0,0,0l0,0c0.1-0.6-0.3-1.2-0.9-1.3l-4.7-0.8
					c-0.6-0.1-1.2,0.3-1.3,0.9c0,0,0,0,0,0l0,0C80,192.8,80.4,193.4,81,193.5z"/>
				<path class="st10" d="M97.3,193.5l-4.7,0.8c-0.6,0.1-1.2-0.3-1.3-0.9l0,0c-0.1-0.6,0.3-1.2,0.9-1.3l4.7-0.8
					c0.6-0.1,1.2,0.3,1.3,0.9c0,0,0,0,0,0l0,0C98.3,192.8,97.9,193.4,97.3,193.5C97.3,193.5,97.3,193.5,97.3,193.5z"/>
				<path class="st4" d="M88.3,199.9c-0.1-1,0.7-1.8,1.6-1.9c1-0.1,1.8,0.7,1.9,1.6c0,0.1,0,0.2,0,0.3H88.3z"/>
				<path class="st11" d="M88.6,202.4c0.7,0,1.2,0.6,1.2,1.2c0,0.2,0,0.3-0.1,0.4h1.8c0-1.8-1.5-3.2-3.3-3.2c-1.1,0-2.1,0.6-2.7,1.5
					h0.3L88.6,202.4z"/>
				<path class="st15" d="M89.7,204.1c0.1-0.1,0.1-0.3,0.1-0.4c0-0.7-0.6-1.2-1.2-1.2h-2.8h-0.3c-0.3,0.5-0.4,1.1-0.4,1.6
					L89.7,204.1z"/>
				<path class="st12" d="M77.9,242.5c0,0-2.8,17.2-5.1,19.5c0,0,1.7,2.1,5.1,0c0,0,5.2-0.7,6.8,1c0,0,4.6,2.2,6.9-1.4
					c0,0,4.7-1.9,6.6,0c0,0,2.5,1.7,4.6-1.7c0,0-2.3-10.5-2.1-16L77.9,242.5z"/>
				<path class="st5" d="M130.3,112.2h0.4c0.9,0,1.6,0.7,1.6,1.7v5.7c0,0.9-0.7,1.7-1.6,1.7h-0.4c-0.9,0-1.6-0.7-1.6-1.7v-5.7
					C128.7,112.9,129.4,112.2,130.3,112.2z"/>
				<path class="st5" d="M135.1,116.2h1.6c0.7,0,1.2,0.5,1.2,1.2v0.2c0,0.7-0.5,1.2-1.2,1.2h-1.6c-0.7,0-1.2-0.5-1.2-1.2v-0.2
					C133.9,116.8,134.4,116.2,135.1,116.2z"/>
				<path class="st19" d="M163.6,127.7c-0.1,0-0.1,0-0.2,0c-0.9-0.5-2-0.8-3-0.7c-0.2,0-0.3-0.1-0.3-0.3c0-0.2,0.1-0.3,0.3-0.3
					c0,0,0,0,0,0c1.2,0,2.3,0.2,3.3,0.8c0.2,0.1,0.2,0.3,0.1,0.4C163.8,127.7,163.7,127.8,163.6,127.7z"/>
				<path class="st19" d="M108.9,123.1c-0.1,0-0.2,0-0.2-0.1c-0.7-0.7-2.1-0.5-2.7-0.4c-0.2,0-0.3-0.1-0.3-0.3
					c0-0.1,0.1-0.3,0.2-0.3c0.1,0,2.2-0.4,3.2,0.6c0.1,0.1,0.1,0.3,0,0.5C109,123,109,123,108.9,123.1z"/>
			</g>
		</g>
	</g>
</g>
</svg>
