<?xml version="1.0" encoding="utf-8"?>
<!-- Generator: Adobe Illustrator 25.2.3, SVG Export Plug-In . SVG Version: 6.00 Build 0)  -->
<svg version="1.1" id="Layer_1" xmlns="http://www.w3.org/2000/svg" xmlns:xlink="http://www.w3.org/1999/xlink" x="0px" y="0px"
	 viewBox="0 0 231.7 375.8" style="enable-background:new 0 0 231.7 375.8;" xml:space="preserve">
<style type="text/css">
	.st0{fill:#F4B155;}
	.st1{fill:#FFF0CC;}
	.st2{fill:#231F20;}
	.st3{clip-path:url(#SVGID_2_);}
	.st4{fill:#A4F6FF;}
	.st5{fill:#FFFFFF;}
	.st6{fill-rule:evenodd;clip-rule:evenodd;fill:#B59B77;}
	.st7{fill-rule:evenodd;clip-rule:evenodd;fill:#E6705F;}
	.st8{fill-rule:evenodd;clip-rule:evenodd;fill:#DD4F65;}
	.st9{fill-rule:evenodd;clip-rule:evenodd;fill:#474358;}
	.st10{fill:#B59B77;}
	.st11{fill:#47372E;}
	.st12{fill:#DD4F65;}
	.st13{fill:#FFD150;}
	.st14{fill-rule:evenodd;clip-rule:evenodd;fill:#FFD150;}
	.st15{fill-rule:evenodd;clip-rule:evenodd;fill:#A58C69;}
	.st16{fill-rule:evenodd;clip-rule:evenodd;fill:#99805D;}
	.st17{fill-rule:evenodd;clip-rule:evenodd;fill:#EE915B;}
	.st18{fill-rule:evenodd;clip-rule:evenodd;fill:#89714E;}
	.st19{fill-rule:evenodd;clip-rule:evenodd;fill:#F5B155;}
	.st20{fill:#80EAED;}
	.st21{fill-rule:evenodd;clip-rule:evenodd;fill:#A4F6FF;}
	.st22{fill:none;}
	.st23{fill:#E6E7E8;}
	.st24{fill-rule:evenodd;clip-rule:evenodd;fill:#4992C9;}
	.st25{fill-rule:evenodd;clip-rule:evenodd;fill:#FFFFFF;}
	.st26{fill-rule:evenodd;clip-rule:evenodd;fill:#4AA2D8;}
	.st27{fill:#4A355B;}
</style>
<g id="Layer_2_1_">
	<g id="Layer_1-2">
		<path class="st0" d="M231.7,14.2v347.3c0,7.9-6.6,14.2-14.8,14.2H14.8c-8,0.1-14.6-6.2-14.8-14.2V14.2C0.2,6.2,6.8-0.1,14.8,0
			h202.1C225.1,0,231.7,6.4,231.7,14.2z M219.3,353.2V22.5c0-5.9-4.8-10.7-10.7-10.7H23.1c-5.9,0-10.7,4.8-10.7,10.7v330.8
			c0,5.9,4.7,10.7,10.6,10.7c0,0,0,0,0,0h185.5C214.5,364,219.3,359.2,219.3,353.2C219.3,353.3,219.3,353.3,219.3,353.2L219.3,353.2
			z"/>
		<path class="st1" d="M23.1,11.9h185.5c5.9,0,10.7,4.8,10.7,10.7v330.8c0,5.9-4.8,10.7-10.7,10.7H23.1c-5.9,0-10.7-4.8-10.7-10.7
			V22.5C12.4,16.6,17.2,11.9,23.1,11.9z"/>
		<path class="st2" d="M39.8,325.5c-0.1-0.1-0.2-0.3-0.2-0.5v-10.9c0-0.2,0-0.4,0.2-0.5c0.1-0.1,0.3-0.2,0.5-0.2h7.4
			c0.2,0,0.4,0,0.5,0.1c0.1,0.1,0.1,0.3,0.1,0.5v0.5c0,0.2,0,0.4-0.1,0.5c-0.1,0.1-0.3,0.2-0.5,0.1h-5.8v3.5h4.2
			c0.2,0,0.4,0,0.5,0.1c0.1,0.1,0.2,0.3,0.2,0.5v0.4c0,0.2,0,0.4-0.2,0.5c-0.1,0.1-0.3,0.2-0.5,0.1h-4.2v3.5h5.8
			c0.2,0,0.4,0,0.5,0.1c0.1,0.1,0.2,0.3,0.1,0.5v0.5c0,0.2,0,0.3-0.1,0.5c-0.1,0.1-0.3,0.2-0.5,0.1h-7.4
			C40.1,325.7,39.9,325.6,39.8,325.5z"/>
		<path class="st2" d="M50.1,325.5c-0.1-0.1-0.1-0.3-0.1-0.5v-10.8c0-0.2,0-0.4,0.2-0.5c0.1-0.1,0.3-0.2,0.5-0.2h1
			c0.2,0,0.4,0,0.5,0.2c0.1,0.1,0.2,0.3,0.2,0.5V325c0,0.2,0,0.4-0.2,0.5c-0.1,0.1-0.3,0.2-0.5,0.2h-1
			C50.5,325.7,50.3,325.6,50.1,325.5z"/>
		<path class="st2" d="M55.7,324.3c-2.6-2.4-2.8-6.4-0.4-9c1.3-1.4,3.2-2.2,5.1-2.1c0.8,0,1.5,0.1,2.3,0.2c0.6,0.1,1.2,0.4,1.8,0.7
			c0.1,0,0.1,0.1,0.2,0.2c0,0.1,0,0.2-0.1,0.2l-0.5,0.9c-0.1,0.1-0.1,0.2-0.2,0.2c-0.1,0-0.2,0-0.2-0.1c-0.9-0.5-1.9-0.7-2.9-0.7
			c-1.2-0.1-2.3,0.3-3.2,1.1c-0.8,1-1.3,2.2-1.2,3.5c-0.1,1.3,0.3,2.5,1.1,3.5c0.8,0.8,2,1.2,3.1,1.1c0.5,0,0.9,0,1.4-0.1
			c0.4-0.1,0.8-0.2,1.1-0.3v-3.3h-2.4c-0.2,0-0.4,0-0.5-0.1c-0.1-0.1-0.2-0.3-0.1-0.5v-0.5c0-0.2,0-0.3,0.1-0.5
			c0.1-0.1,0.3-0.1,0.5-0.1h3.8c0.2,0,0.4,0.1,0.6,0.2c0.1,0.2,0.2,0.4,0.2,0.6v4.7c0,0.1,0,0.3,0,0.4c-0.1,0.1-0.1,0.2-0.2,0.2
			c-1.4,0.7-2.9,1.1-4.5,1C58.7,326.1,57,325.5,55.7,324.3z"/>
		<path class="st2" d="M67,325.5c-0.1-0.1-0.2-0.3-0.2-0.5v-10.9c0-0.2,0-0.4,0.2-0.5c0.1-0.1,0.3-0.2,0.5-0.2h1
			c0.2,0,0.4,0,0.5,0.2c0.1,0.1,0.2,0.3,0.2,0.5v4.5h5.9v-4.5c0-0.2,0-0.4,0.2-0.5c0.1-0.1,0.3-0.2,0.5-0.2h0.9c0.2,0,0.4,0,0.5,0.2
			c0.1,0.1,0.2,0.3,0.2,0.5V325c0,0.2,0,0.3-0.2,0.5c-0.1,0.1-0.3,0.2-0.5,0.2h-0.9c-0.2,0-0.4,0-0.5-0.2c-0.1-0.1-0.2-0.3-0.2-0.5
			v-4.6h-5.9v4.6c0,0.2,0,0.3-0.2,0.5c-0.1,0.1-0.3,0.2-0.5,0.2h-1C67.3,325.7,67.1,325.6,67,325.5z"/>
		<path class="st2" d="M82.7,325.5c-0.1-0.1-0.2-0.3-0.2-0.5v-9.8h-3.1c-0.2,0-0.4,0-0.5-0.1c-0.1-0.1-0.1-0.3-0.1-0.5v-0.5
			c0-0.2,0-0.3,0.1-0.5c0.1-0.1,0.3-0.2,0.5-0.2h8.6c0.2,0,0.4,0,0.5,0.2c0.1,0.1,0.2,0.3,0.1,0.5v0.5c0,0.2,0,0.3-0.1,0.5
			c-0.1,0.1-0.3,0.2-0.5,0.1h-3.1v9.7c0,0.2,0,0.3-0.2,0.5c-0.1,0.1-0.3,0.2-0.5,0.2h-0.9C83,325.7,82.8,325.6,82.7,325.5z"/>
		<path class="st2" d="M98.2,324.3c-2.1-2.8-2.1-6.6,0-9.4c2.6-2.2,6.5-2.2,9.1,0c2.1,2.8,2.1,6.6,0,9.4
			C104.6,326.5,100.8,326.5,98.2,324.3z M105.6,323.1c1.3-2.1,1.3-4.8,0-7c-1.6-1.6-4.1-1.6-5.7,0c-1.3,2.1-1.3,4.8,0,7
			C101.4,324.7,103.9,324.7,105.6,323.1C105.5,323.1,105.5,323.1,105.6,323.1z"/>
		<path class="st2" d="M110.7,325.5c-0.1-0.1-0.2-0.3-0.2-0.5v-10.9c0-0.2,0-0.4,0.2-0.5c0.1-0.1,0.3-0.2,0.5-0.2h7.4
			c0.2,0,0.4,0,0.5,0.1c0.1,0.1,0.2,0.3,0.1,0.5v0.5c0,0.2,0,0.4-0.1,0.5c-0.1,0.1-0.3,0.2-0.5,0.1h-5.8v3.5h4.2
			c0.2,0,0.4,0,0.5,0.1c0.1,0.1,0.2,0.3,0.1,0.5v0.5c0,0.2,0,0.4-0.1,0.5c-0.1,0.1-0.3,0.2-0.5,0.2h-4.2v4.5c0,0.2,0,0.4-0.2,0.5
			c-0.1,0.1-0.3,0.2-0.5,0.2h-1C111,325.7,110.9,325.6,110.7,325.5z"/>
		<path class="st2" d="M130.7,325.6c-0.1-0.1-0.2-0.2-0.2-0.4l-3.1-12.2c0-0.1,0-0.1,0-0.2c0-0.2,0.1-0.3,0.4-0.3h1.6
			c0.1,0,0.3,0,0.4,0.1c0.1,0.1,0.1,0.2,0.1,0.3l1.9,8.5l2.3-7.5c0-0.1,0.1-0.2,0.2-0.3c0.1-0.1,0.2-0.1,0.4-0.1h0.9
			c0.1,0,0.2,0,0.4,0.1c0.1,0.1,0.2,0.2,0.2,0.3l2.3,7.5l1.9-8.5c0-0.1,0.1-0.2,0.2-0.3c0.1-0.1,0.3-0.1,0.4-0.1h1.6
			c0.2,0,0.4,0.1,0.4,0.3c0,0.1,0,0.1,0,0.2l-3.1,12.2c0,0.1-0.1,0.3-0.2,0.4c-0.1,0.1-0.3,0.1-0.4,0.1h-1.1c-0.3,0-0.6-0.2-0.6-0.5
			c0,0,0,0,0,0l-2.3-7.8l-2.3,7.8c0,0.1-0.1,0.3-0.2,0.4c-0.1,0.1-0.3,0.1-0.4,0.1h-1.1C131,325.7,130.8,325.7,130.7,325.6z"/>
		<path class="st2" d="M142.4,325.4c0-0.1,0-0.2,0.1-0.2l5.1-12.1c0.1-0.2,0.1-0.3,0.2-0.4c0.1-0.1,0.3-0.1,0.4-0.1h1.1
			c0.1,0,0.3,0,0.4,0.1c0.1,0.1,0.2,0.2,0.2,0.4l5.1,12.1c0,0.1,0.1,0.2,0.1,0.2c0,0.2-0.1,0.3-0.3,0.3H153c-0.1,0-0.2,0-0.4-0.1
			c-0.1-0.1-0.2-0.2-0.2-0.3l-1.1-2.7H146l-1,2.7c0,0.1-0.1,0.2-0.2,0.3c-0.1,0-0.2,0.1-0.4,0.1h-1.7
			C142.5,325.7,142.4,325.6,142.4,325.4z M150.8,320.8l-2.1-5.1l-2.1,5.1H150.8z"/>
		<path class="st2" d="M157.2,325.5c-0.1-0.1-0.2-0.3-0.2-0.5v-11.8c0-0.2,0-0.4,0.2-0.5c0.2-0.1,0.4-0.2,0.6-0.2h0.9
			c0.1,0,0.3,0,0.4,0.1c0.1,0.1,0.2,0.2,0.3,0.3l6.4,8.9v-8.5c0-0.2,0-0.4,0.2-0.5c0.2-0.1,0.4-0.2,0.6-0.2h1c0.2,0,0.4,0,0.6,0.2
			c0.1,0.1,0.2,0.3,0.2,0.5V325c0,0.2,0,0.4-0.2,0.5c-0.2,0.1-0.4,0.2-0.6,0.2h-0.9c-0.1,0-0.3,0-0.4-0.1c-0.1-0.1-0.2-0.2-0.3-0.3
			l-6.4-8.9v8.5c0,0.2,0,0.4-0.2,0.5c-0.2,0.1-0.4,0.2-0.6,0.2h-1C157.5,325.7,157.3,325.6,157.2,325.5z"/>
		<path class="st2" d="M170.7,325.5c-0.1-0.1-0.2-0.3-0.2-0.5v-11.8c-0.1-0.3,0.1-0.6,0.5-0.7c0.1,0,0.2,0,0.2,0h3.9
			c1.8-0.1,3.6,0.4,5,1.6c1.2,1,1.7,2.7,1.7,5c0,4.4-2.2,6.6-6.7,6.6h-3.9C171,325.7,170.8,325.6,170.7,325.5z M175.2,323.8
			c1.1,0.1,2.3-0.3,3.1-1.1c1.4-2.2,1.4-5,0-7.3c-0.8-0.8-2-1.1-3.1-1.1H173v9.4H175.2z"/>
		<path class="st2" d="M184.9,325.7c-0.8-0.1-1.5-0.4-2.1-0.9c-0.2-0.1-0.3-0.2-0.3-0.3c0-0.1,0-0.2,0.1-0.2l0.6-1
			c0.1-0.1,0.1-0.2,0.2-0.2c0.1,0,0.2,0,0.3,0.1c0.5,0.3,1.1,0.5,1.7,0.7c0.6,0.2,1.3,0.3,1.9,0.3c0.7,0,1.4-0.1,2-0.4
			c0.7-0.6,0.9-1.6,0.4-2.3c-0.2-0.3-0.4-0.5-0.7-0.6c-0.5-0.3-1-0.5-1.6-0.7l-0.4-0.2c-0.7-0.3-1.4-0.6-2.1-1
			c-0.5-0.3-1-0.7-1.4-1.2c-1-1.5-0.6-3.5,0.8-4.6c1-0.7,2.3-1,3.5-1c0.8,0,1.6,0.1,2.3,0.2c0.6,0.1,1.2,0.4,1.7,0.8
			c0.1,0.1,0.2,0.2,0.2,0.3c0,0.1,0,0.2-0.1,0.2l-0.6,1c-0.1,0.1-0.1,0.2-0.2,0.2c-0.1,0-0.2-0.1-0.2-0.1c-0.9-0.6-2-0.8-3.1-0.8
			c-0.6,0-1.3,0.1-1.8,0.4c-0.4,0.3-0.7,0.9-0.6,1.4c0,0.3,0.1,0.7,0.3,1c0.2,0.3,0.5,0.5,0.8,0.6c0.5,0.3,1.1,0.5,1.6,0.7l0.5,0.2
			c0.8,0.3,1.5,0.6,2.2,1c0.5,0.3,0.9,0.7,1.2,1.2c0.3,0.5,0.5,1.2,0.4,1.8c0,1-0.4,2-1.2,2.6c-1,0.7-2.3,1.1-3.6,1
			C186.7,325.9,185.8,325.9,184.9,325.7z"/>
		<g>
			<defs>
				<path id="SVGID_1_" d="M52.3,45.5h127.1c13.5,0,24.4,10.9,24.4,24.4v189.6c0,13.5-10.9,24.4-24.4,24.4H52.3
					c-13.5,0-24.4-10.9-24.4-24.4V69.9C27.8,56.4,38.8,45.5,52.3,45.5z"/>
			</defs>
			<clipPath id="SVGID_2_">
				<use xlink:href="#SVGID_1_"  style="overflow:visible;"/>
			</clipPath>
			<g class="st3">
				<rect x="13.5" y="17" class="st4" width="204.2" height="216.9"/>
				<path class="st5" d="M147.9,102.7H181c2.4,0,4.3-1.9,4.3-4.3l0,0c0-2.4-1.9-4.3-4.3-4.3h-33.1c-2.4,0-4.3,1.9-4.3,4.3l0,0
					C143.6,100.8,145.5,102.7,147.9,102.7z"/>
				<circle class="st5" cx="168.7" cy="92.1" r="10.6"/>
				<circle class="st5" cx="157" cy="95.1" r="7.6"/>
				<path class="st5" d="M75.7,110.2h26.6c1.9,0,3.4,1.5,3.4,3.4v0c0,1.9-1.5,3.4-3.4,3.4H75.7c-1.9,0-3.4-1.5-3.4-3.4v0
					C72.3,111.8,73.8,110.2,75.7,110.2z"/>
				<circle class="st5" cx="85.7" cy="108.6" r="8.5"/>
				<circle class="st5" cx="95" cy="111" r="6.1"/>
				<path class="st5" d="M109.2,223.2H-10.1c-8.5,0-15.4-6.9-15.4-15.4l0,0c0-8.5,6.9-15.4,15.4-15.4h119.2
					c8.5,0,15.4,6.9,15.4,15.4l0,0C124.5,216.2,117.7,223.1,109.2,223.2z"/>
				<circle class="st5" cx="34.4" cy="184.9" r="38.3"/>
				<circle class="st5" cx="76.4" cy="195.9" r="27.3"/>
				<path class="st6" d="M102.8,76.7l-2.9-0.1l-1.4,123.6l2.9-0.6L102.8,76.7z"/>
				<path class="st7" d="M143.5,186c13.9-30.2,13.1-59,1.1-86.5L51.9,95c19,28,15.7,73.8-9.8,101.8c32.4-11.9,67.3-18.8,87-4.9
					C133.9,190.1,138.8,188.2,143.5,186L143.5,186z"/>
				<path class="st8" d="M143.5,186c13.9-30.2,13.1-59,1.1-86.5c5.6,53.2-75.2,87.2-97.1,95.4c30.8-10.7,63-16.1,81.6-3
					C134,190.1,138.8,188.2,143.5,186L143.5,186z"/>
				<path class="st9" d="M99.9,77.3v2.2c-6.6,1.6-13.4,1.8-20.1,0.7c-11.1-1.6-22.7,0.1-33.1,6.8c9.3-7.8,20.7-11.4,34.8-9.9
					c-7.6-3.3-16.8-3.7-27.5-1.4c8.1-2.9,18.7-5.2,27.7-2.5C87.7,75.1,93.6,78.7,99.9,77.3L99.9,77.3z"/>
				
					<rect x="26.7" y="197.2" transform="matrix(0.9261 -0.3772 0.3772 0.9261 -71.7218 29.2459)" class="st10" width="24.3" height="1.1"/>
				<path class="st8" d="M184.6,161.6c2.7-8.1,4.5-16.6,8-24.3c1.9-4.2,5.2-10.2,10.2-8.5c3.7,1.2,3.8,5.1,2.8,7.7
					c-0.6,1.5-2.8,2.7-4.4,1.8c-1.2-0.7-1.1-2.4-0.6-4.2c-5,9.3-6.7,18.6-8.9,28.2c-5.6,23.5-13,44.6-34.5,55.9
					C173.7,204.7,180.9,184.1,184.6,161.6L184.6,161.6z"/>
				<path class="st11" d="M41,207.6L41,207.6c-0.8,0-1.4-0.6-1.4-1.4v-20.6c0-0.8,0.6-1.4,1.4-1.4c0,0,0,0,0,0l0,0
					c0.8,0,1.4,0.6,1.4,1.4v20.6C42.4,207,41.8,207.6,41,207.6z"/>
				<path class="st12" d="M41,172.8L41,172.8c-1,1.1-1.1,2.8,0,3.9c1.1,1.1,2.8,1.1,3.9,0.1l0,0c0.1,0.3,0.1,0.7,0.1,1.1
					c0,2.8-1.8,5-4,5s-4-2.2-4-5S38.8,172.8,41,172.8z"/>
				<path class="st13" d="M39.6,177.8L39.6,177.8c0,1.2,1,2.2,2.2,2.2c0,0,0,0,0,0c0.2,0,0.4,0,0.6-0.1c0,1-0.8,1.8-1.8,1.8
					c-1.1-0.1-1.9-1.1-1.8-2.2c0,0,0,0,0,0C38.8,178.9,39.1,178.3,39.6,177.8z"/>
				<path class="st11" d="M54.4,207.6L54.4,207.6c-0.8,0-1.4-0.6-1.4-1.4c0,0,0,0,0,0v-20.6c0-0.8,0.6-1.4,1.4-1.4l0,0
					c0.8,0,1.4,0.6,1.4,1.4v20.6C55.7,207,55.1,207.6,54.4,207.6z"/>
				<path class="st12" d="M54.4,172.8L54.4,172.8c-1,1.1-1.1,2.8,0,3.9c1.1,1.1,2.8,1.1,3.9,0.1c0.1,0.3,0.1,0.7,0.1,1.1
					c0,2.8-1.8,5-4,5s-4-2.2-4-5S52.2,172.8,54.4,172.8z"/>
				<path class="st13" d="M53,177.8L53,177.8c0,1.2,1,2.2,2.2,2.2c0,0,0,0,0,0c0.2,0,0.4,0,0.6-0.1c-0.1,1-0.8,1.8-1.8,1.9
					c-1.1-0.1-1.9-1.1-1.8-2.2c0,0,0,0,0,0C52.2,178.9,52.5,178.3,53,177.8z"/>
				<path class="st11" d="M67.8,207.6L67.8,207.6c-0.8,0-1.4-0.6-1.4-1.4v-20.6c0-0.8,0.6-1.4,1.4-1.4l0,0c0.8,0,1.4,0.6,1.4,1.4
					v20.6C69.2,207,68.5,207.7,67.8,207.6z"/>
				<path class="st12" d="M67.8,172.8L67.8,172.8c-1,1.1-1,2.8,0,3.9c1.1,1.1,2.8,1.1,3.9,0.1c0.1,0.3,0.1,0.7,0.1,1.1
					c0,2.8-1.8,5-4,5s-4-2.2-4-5S65.6,172.8,67.8,172.8z"/>
				<path class="st13" d="M66.4,177.8L66.4,177.8c0,1.2,1,2.2,2.2,2.2c0.2,0,0.4,0,0.6-0.1c-0.1,1-0.8,1.7-1.8,1.8
					c-1.1-0.1-1.9-1.1-1.8-2.2c0,0,0,0,0,0C65.6,178.9,65.9,178.3,66.4,177.8z"/>
				<path class="st11" d="M81.2,207.6L81.2,207.6c-0.8,0-1.4-0.6-1.4-1.4v-20.6c0-0.8,0.6-1.4,1.4-1.4l0,0c0.8,0,1.4,0.6,1.4,1.4
					v20.6C82.6,207,81.9,207.7,81.2,207.6z"/>
				<path class="st12" d="M81.2,172.8L81.2,172.8c-1,1.1-1,2.8,0,3.9c1.1,1.1,2.8,1.1,3.9,0.1l0,0c0.1,0.3,0.1,0.7,0.1,1.1
					c0,2.8-1.8,5-4,5s-4-2.2-4-5S79,172.8,81.2,172.8z"/>
				<path class="st13" d="M79.8,177.8L79.8,177.8c0,1.2,1,2.2,2.2,2.3c0,0,0,0,0,0c0.2,0,0.4,0,0.6-0.1c-0.1,1-0.8,1.7-1.8,1.8
					c-1.1-0.1-1.9-1.1-1.8-2.2c0,0,0,0,0,0C79,178.9,79.3,178.3,79.8,177.8z"/>
				<path class="st11" d="M94.6,207.6L94.6,207.6c-0.8,0-1.4-0.6-1.4-1.4v-20.6c0-0.8,0.6-1.4,1.4-1.4l0,0c0.8,0,1.4,0.6,1.4,1.3
					c0,0,0,0,0,0v20.6C96,207,95.4,207.7,94.6,207.6C94.6,207.7,94.6,207.7,94.6,207.6z"/>
				<path class="st12" d="M94.6,172.8L94.6,172.8c-1,1.1-1,2.8,0,3.9c1.1,1.1,2.8,1.1,3.9,0.1c0.1,0.3,0.1,0.7,0.1,1.1
					c0,2.8-1.8,5-4,5s-4-2.2-4-5S92.4,172.8,94.6,172.8z"/>
				<path class="st13" d="M93.2,177.8L93.2,177.8c0,1.2,1,2.2,2.2,2.2c0.2,0,0.4,0,0.6-0.1c0,1-0.8,1.7-1.8,1.8
					c-1.1-0.1-1.9-1.1-1.8-2.2c0,0,0,0,0,0C92.4,178.9,92.7,178.3,93.2,177.8z"/>
				<path class="st11" d="M108,207.6L108,207.6c-0.8,0-1.4-0.6-1.4-1.4v-20.6c0-0.8,0.6-1.4,1.4-1.4l0,0c0.8,0,1.4,0.6,1.4,1.4v20.6
					C109.4,207,108.8,207.6,108,207.6z"/>
				<path class="st12" d="M108,172.8L108,172.8c-1,1.1-1,2.8,0,3.9c1.1,1.1,2.8,1.1,3.9,0.1l0,0c0.1,0.3,0.1,0.7,0.1,1.1
					c0,2.8-1.8,5-4,5s-4-2.2-4-5S105.8,172.8,108,172.8z"/>
				<path class="st13" d="M106.6,177.8L106.6,177.8c0,1.2,1,2.2,2.2,2.2c0.2,0,0.4,0,0.6-0.1c0,1-0.8,1.7-1.8,1.8
					c-1.1-0.1-1.9-1.1-1.8-2.2c0,0,0,0,0,0C105.8,178.9,106.1,178.3,106.6,177.8z"/>
				<path class="st11" d="M121.4,207.6L121.4,207.6c-0.8,0-1.4-0.6-1.4-1.4v-20.6c0-0.8,0.6-1.4,1.4-1.4l0,0c0.8,0,1.4,0.6,1.4,1.4
					v20.6C122.8,207,122.1,207.6,121.4,207.6z"/>
				<path class="st12" d="M121.4,172.8L121.4,172.8c-1,1.1-1,2.8,0,3.9c1.1,1.1,2.8,1.1,3.9,0.1l0,0c0.1,0.3,0.1,0.7,0.1,1.1
					c0,2.8-1.8,5-4,5s-4-2.2-4-5S119.2,172.8,121.4,172.8z"/>
				<path class="st13" d="M120,177.8L120,177.8c0,1.2,1,2.2,2.2,2.2c0.2,0,0.4,0,0.6-0.1c0,1-0.8,1.7-1.8,1.8
					c-1.1-0.1-1.9-1.1-1.8-2.2c0,0,0,0,0,0C119.2,178.9,119.5,178.3,120,177.8z"/>
				<path class="st11" d="M121.4,207.6L121.4,207.6c-0.8,0-1.4-0.6-1.4-1.4v-20.6c0-0.8,0.6-1.4,1.4-1.4l0,0c0.8,0,1.4,0.6,1.4,1.4
					v20.6C122.8,207,122.1,207.6,121.4,207.6z"/>
				<path class="st12" d="M121.4,172.8L121.4,172.8c-1,1.1-1,2.8,0,3.9c1.1,1.1,2.8,1.1,3.9,0.1l0,0c0.1,0.3,0.1,0.7,0.1,1.1
					c0,2.8-1.8,5-4,5s-4-2.2-4-5S119.2,172.8,121.4,172.8z"/>
				<path class="st13" d="M120,177.8L120,177.8c0,1.2,1,2.2,2.2,2.2c0.2,0,0.4,0,0.6-0.1c0,1-0.8,1.7-1.8,1.8
					c-1.1-0.1-1.9-1.1-1.8-2.2c0,0,0,0,0,0C119.2,178.9,119.5,178.3,120,177.8z"/>
				<path class="st11" d="M134.8,207.6L134.8,207.6c-0.8,0-1.4-0.6-1.4-1.4v-20.6c0-0.8,0.6-1.4,1.4-1.4l0,0c0.8,0,1.4,0.6,1.4,1.4
					v20.6C136.2,207,135.5,207.6,134.8,207.6z"/>
				<path class="st12" d="M134.8,172.8L134.8,172.8c-1,1.1-1,2.8,0,3.9s2.8,1.1,3.9,0.1c0.1,0.3,0.1,0.7,0.1,1.1c0,2.8-1.8,5-4,5
					s-4-2.2-4-5S132.6,172.8,134.8,172.8z"/>
				<path class="st13" d="M133.4,177.8L133.4,177.8c0,1.2,1,2.2,2.2,2.2c0.2,0,0.4,0,0.6-0.1c0,1-0.8,1.7-1.8,1.8
					c-1.1-0.1-1.9-1.1-1.8-2.2c0,0,0,0,0,0C132.6,178.9,132.9,178.3,133.4,177.8z"/>
				<path class="st14" d="M157.3,218.2l-119.6-0.8c-5.1-4.7-9.3-10.3-12.3-16.6c28.1,5.8,56.7,3.4,83.3-2.8s52.8-19.3,75.9-36.4
					C183.6,183.7,176.6,204.3,157.3,218.2L157.3,218.2z"/>
				<path class="st15" d="M157.3,218.2c19.4-13.9,26.2-34.5,27.3-56.6c0,0-11.7,36.3-53.9,56.4L157.3,218.2z M54.6,217.5
					c-0.1,0-14.7-2.5-29.2-16.7c3,6.3,7.2,11.9,12.3,16.6L54.6,217.5z"/>
				<path class="st16" d="M157.3,218.2l-9.4-0.1c5.7-1.7,11.4-3.7,16.8-6.1C162.4,214.2,159.9,216.3,157.3,218.2L157.3,218.2z"/>
				<path class="st17" d="M110.9,217.9c24.6-5.7,46.9-13.5,66.4-23.8c2.3-4.9,4-10.1,5.1-15.4c-44.4,25.4-94.1,37-149.6,33.5
					c1.5,1.8,3.2,3.5,4.9,5.1L110.9,217.9L110.9,217.9z M157.3,218.2c2.6-1.9,5.1-3.9,7.4-6.1c-5.5,2.4-11.1,4.4-16.8,6.1
					L157.3,218.2z"/>
				<path class="st18" d="M54.6,217.5c-4.5-1-8.8-2.6-12.9-4.8c-3-0.1-5.9-0.2-8.9-0.4c1.5,1.8,3.2,3.5,4.9,5.1
					C37.8,217.4,54.6,217.5,54.6,217.5z M171.9,184.5c-6.1,8.2-13.4,15.5-21.6,21.6c9.2-3.4,18.3-7.5,27-12.1
					c2.3-4.9,4-10.1,5.1-15.4C178.9,180.8,175.4,182.7,171.9,184.5L171.9,184.5z M157.3,218.2c2.6-1.9,5.1-3.9,7.4-6.1
					c-5.5,2.4-11.1,4.4-16.8,6.1L157.3,218.2z"/>
				<path class="st8" d="M192,161.4l-0.2,0.9c-5.6,23.5-13,44.6-34.5,55.9c16.4-13.5,23.6-34.1,27.3-56.6L192,161.4z"/>
				<path class="st19" d="M157.3,218.2c19.4-13.9,26.2-34.5,27.3-56.6c0,0-11.7,36.3-53.9,56.4L157.3,218.2z M54.6,217.5
					c-0.1,0-14.7-2.5-29.2-16.7c3,6.3,7.2,11.9,12.3,16.6L54.6,217.5z"/>
				<path class="st7" d="M54.6,217.5c-4.5-1-8.8-2.6-12.9-4.8c-3-0.1-5.9-0.2-8.9-0.4c1.5,1.8,3.2,3.5,4.9,5.1
					C37.8,217.4,54.6,217.5,54.6,217.5z M171.9,184.5c-6.1,8.2-13.4,15.5-21.6,21.6c9.2-3.4,18.3-7.5,27-12.1
					c2.3-4.9,4-10.1,5.1-15.4C178.9,180.8,175.4,182.7,171.9,184.5L171.9,184.5z"/>
				<ellipse class="st13" cx="109.3" cy="138.4" rx="14.7" ry="16.5"/>
				<rect x="13.5" y="217.1" class="st20" width="199" height="83.7"/>
				<path class="st21" d="M186.1,275.6h-28.2c-0.8,0-1.4-0.6-1.4-1.4l0,0c0-0.8,0.6-1.4,1.4-1.4h28.2c0.8,0,1.4,0.6,1.4,1.4l0,0
					C187.5,274.9,186.9,275.6,186.1,275.6z"/>
				<path class="st21" d="M140.4,264.1h-28.2c-0.8,0-1.4-0.6-1.4-1.4l0,0c0-0.8,0.6-1.4,1.4-1.4h28.2c0.8,0,1.4,0.6,1.4,1.4l0,0
					C141.9,263.5,141.2,264.1,140.4,264.1z"/>
				<path class="st21" d="M118.2,276.1H90c-0.8,0-1.4-0.6-1.4-1.4l0,0c0-0.8,0.6-1.4,1.4-1.4h28.2c0.8,0,1.4,0.6,1.4,1.4l0,0
					C119.7,275.5,119,276.1,118.2,276.1C118.2,276.1,118.2,276.1,118.2,276.1z"/>
				<path class="st21" d="M69.1,269H40.9c-0.8,0-1.4-0.6-1.4-1.4l0,0c0-0.8,0.6-1.4,1.4-1.4h28.3c0.8,0,1.4,0.6,1.4,1.4l0,0
					C70.5,268.4,69.9,269,69.1,269z"/>
				<path class="st21" d="M182.1,250.7h-28.2c-0.8,0-1.4-0.6-1.4-1.4l0,0c0-0.8,0.6-1.4,1.4-1.4h28.2c0.8,0,1.4,0.6,1.4,1.4l0,0
					C183.5,250.1,182.9,250.7,182.1,250.7z"/>
				<path class="st21" d="M116.5,251.6H88.2c-0.8,0-1.4-0.6-1.4-1.4l0,0c0-0.8,0.6-1.4,1.4-1.4h28.2c0.8,0,1.4,0.6,1.4,1.4l0,0
					C117.9,250.9,117.3,251.6,116.5,251.6z"/>
				<path class="st21" d="M74.5,242.2H46.3c-0.8,0-1.4-0.6-1.4-1.4l0,0c0-0.8,0.6-1.4,1.4-1.4h28.2c0.8,0,1.4,0.6,1.5,1.4
					c0,0,0,0,0,0l0,0C76,241.5,75.4,242.2,74.5,242.2C74.6,242.2,74.6,242.2,74.5,242.2z"/>
				<path class="st21" d="M143.6,243h-28.2c-0.8,0-1.4-0.6-1.4-1.4l0,0c0-0.8,0.6-1.4,1.4-1.4h28.2c0.8,0,1.4,0.7,1.4,1.4
					c0,0,0,0,0,0l0,0C145,242.4,144.4,243,143.6,243z"/>
				<path class="st4" d="M156.1,233.9h28.2c0.8,0,1.4,0.6,1.4,1.4l0,0c0,0.8-0.6,1.4-1.4,1.4h-28.2c-0.8,0-1.4-0.6-1.4-1.4l0,0
					C154.7,234.5,155.4,233.9,156.1,233.9z"/>
				<path class="st21" d="M210.4,225.6h-28.2c-0.8,0-1.4-0.6-1.4-1.4l0,0c0-0.8,0.6-1.4,1.4-1.4h28.2c0.8,0,1.4,0.6,1.4,1.4l0,0
					C211.8,225,211.1,225.6,210.4,225.6z"/>
				<path class="st21" d="M218,262.1h-28.2c-0.8,0-1.4-0.6-1.4-1.4l0,0c0-0.8,0.6-1.4,1.4-1.4H218c0.8,0,1.4,0.6,1.4,1.4l0,0
					C219.4,261.5,218.8,262.1,218,262.1z"/>
				<path class="st21" d="M49.1,231.9H20.8c-0.8,0-1.4-0.6-1.4-1.4l0,0c0-0.8,0.6-1.4,1.4-1.4h28.3c0.8,0,1.4,0.6,1.4,1.4l0,0
					C50.5,231.3,49.9,231.9,49.1,231.9z"/>
				<path class="st13" d="M134,105.2C134,105.2,134,105.2,134,105.2L134,105.2z"/>
				<rect x="29.7" y="41.2" class="st22" width="147.7" height="245.4"/>
				<path class="st23" d="M124.4,290.6H54c-5,0-9.1-4.1-9.1-9.1l0,0c0-5,4.1-9.1,9.1-9.1h70.5c5,0,9.1,4.1,9.1,9.1l0,0
					C133.5,286.5,129.5,290.6,124.4,290.6z"/>
				
					<ellipse transform="matrix(5.530035e-02 -0.9985 0.9985 5.530035e-02 -191.7961 333.2673)" class="st23" cx="80.2" cy="268" rx="22.6" ry="22.6"/>
				
					<ellipse transform="matrix(0.2297 -0.9733 0.9733 0.2297 -186.1935 313.7116)" class="st23" cx="105.1" cy="274.5" rx="16.1" ry="16.1"/>
				<path class="st24" d="M75.2,260.6c1.6-2.2,2.8-2.5,2.7-3.5c-6.7-5.2-9.9-12.2-11.5-16.7c-3-8.6-0.4-18.3,5.6-25.7
					c-1.5-2.7-5.5-3.7-4-5.4c2.2-2.7,7.5-3.2,11-1c5.7-3.9,12.6-5.7,19.5-5.2c1.9,0,3.8,0.8,5.3,2.1c1.8-0.2,3.6-0.4,5.3-0.7
					c2.9-0.6,4.5,1.9,2.5,3.9c-1.4,1.4-3.2,2.1-4.8,3.2c-0.4,0.3-0.8,0.5-1.2,0.8c-0.6,2-1.7,3.8-3.1,5.3c-3.7,4.1-7.7,6.1-10.9,8.7
					c-4.5,4-7.8,9-9.8,14.7c-0.5,3.5-1.6,8-0.2,14.8c4.3,0.4,9.5,2.8,9.6,5.5c-0.9,4.7-5.1,3-9,0.8c-1,2-5.2,7.5-7.5,5.9
					C72.8,266.4,74,262.1,75.2,260.6z"/>
				<path class="st25" d="M81.3,254.3c-13.8-26.1,13.8-35.4,19-34.5c-3,2.7-6.1,4.4-8.7,6.6c-4.5,4-7.8,9-9.8,14.7
					C81.5,244.4,80.4,248.4,81.3,254.3"/>
				<path class="st26" d="M78.9,222.7c-6.3,2.1-7.7,6.6-7.8,10c0,1.4,1,2.5,2.4,2.5c0.6,0,1.2-0.2,1.7-0.6
					C77.6,232.5,80,228.8,78.9,222.7"/>
				<path class="st27" d="M100.4,209.6l-0.3,0.1c-0.4,0.1-0.9-0.1-1-0.5l-0.8-2.3c-0.1-0.4,0.1-0.9,0.5-1l0.3-0.1
					c0.4-0.1,0.9,0.1,1,0.5l0.8,2.3C101,209,100.8,209.4,100.4,209.6z"/>
				<path class="st24" d="M105.1,257.9c2.6-0.9,3.7-0.5,4.2-1.4c-2-6.6-2-13.7-0.2-20.3c2.3-8.8,9.9-15.4,19.1-18.1
					c0.3-3.1-2.5-6.1-0.3-6.7c3.3-0.9,8,1.5,9.7,5.3c6.9,0,13.6,2.3,19.1,6.6c1.6,1.1,2.7,2.8,3.2,4.7c1.6,0.9,3.2,1.7,4.8,2.4
					c2.7,1.1,2.6,4.1-0.1,4.6c-1.9,0.4-3.8-0.1-5.8,0c-0.4,0-0.9,0-1.4,0c-1.6,1.3-3.5,2.2-5.6,2.6c-5.3,1.3-9.8,0.7-13.9,1.1
					c-5.9,0.8-11.5,3.1-16.3,6.7c-2.4,2.7-5.8,5.7-8.5,12.2c3.4,2.7,6.3,7.7,4.9,9.9c-3.3,3.4-5.9-0.3-7.9-4.4
					c-2,1.1-8.6,3.3-9.5,0.7C99.8,261.4,103.3,258.5,105.1,257.9z"/>
				<path class="st25" d="M113.7,256.2c3.2-29.4,31.2-21.6,35-17.9c-4,0.5-7.5,0.2-10.9,0.6c-5.9,0.8-11.5,3.1-16.3,6.7
					C119.3,248,116.2,250.7,113.7,256.2"/>
				<path class="st26" d="M129.4,228.6c-6.4-1.8-10.1,1.2-12,3.9c-0.8,1.1-0.5,2.7,0.6,3.4c0.5,0.4,1.1,0.5,1.8,0.4
					C122.9,235.9,127,234.2,129.4,228.6"/>
				<path class="st27" d="M154.6,229.8l-0.3-0.1c-0.4-0.1-0.7-0.6-0.6-1l0.7-2.4c0.1-0.4,0.6-0.7,1-0.6l0.3,0.1
					c0.4,0.1,0.7,0.6,0.6,1l-0.7,2.4C155.4,229.7,155,229.9,154.6,229.8z"/>
				<path class="st23" d="M106.3,290.6h70.5c5,0,9.1-4.1,9.1-9.1l0,0c0-5-4.1-9.1-9.1-9.1h-70.5c-5,0-9.1,4.1-9.1,9.1l0,0
					C97.2,286.5,101.3,290.6,106.3,290.6z"/>
				<circle class="st23" cx="150.5" cy="268" r="22.6"/>
				
					<ellipse transform="matrix(0.4242 -0.9056 0.9056 0.4242 -176.218 271.8492)" class="st23" cx="125.6" cy="274.5" rx="16.1" ry="16.1"/>
				<path class="st5" d="M212.9,291.8h-86.8c-6.2,0-11.2-5-11.2-11.2v0c0-6.2,5-11.2,11.2-11.2h86.8c6.2,0,11.2,5,11.2,11.2v0
					C224.1,286.8,219.1,291.8,212.9,291.8z"/>
				<circle class="st5" cx="180.5" cy="263.9" r="27.9"/>
				<circle class="st5" cx="149.9" cy="272" r="19.8"/>
				<path class="st5" d="M17.9,269.4h86.8c6.2,0,11.2,5,11.2,11.2v0c0,6.2-5,11.2-11.2,11.2H17.9c-6.2,0-11.2-5-11.2-11.2v0
					C6.7,274.4,11.7,269.4,17.9,269.4z"/>
				<circle class="st5" cx="50.2" cy="263.9" r="27.9"/>
				<circle class="st5" cx="80.8" cy="272" r="19.8"/>
			</g>
		</g>
	</g>
</g>
</svg>
