<?xml version="1.0" encoding="utf-8"?>
<!-- Generator: Adobe Illustrator 25.2.3, SVG Export Plug-In . SVG Version: 6.00 Build 0)  -->
<svg version="1.1" id="Layer_1" xmlns="http://www.w3.org/2000/svg" xmlns:xlink="http://www.w3.org/1999/xlink" x="0px" y="0px"
	 viewBox="0 0 231.7 375.8" style="enable-background:new 0 0 231.7 375.8;" xml:space="preserve">
<style type="text/css">
	.st0{fill:#F4B155;}
	.st1{fill:#FFF0CC;}
	.st2{fill:#231F20;}
	.st3{clip-path:url(#SVGID_2_);}
	.st4{fill:#A4F6FF;}
	.st5{fill:#FFFFFF;}
	.st6{fill:#3F272D;}
	.st7{fill:#66D3D3;}
	.st8{fill:#80EAED;}
	.st9{fill-rule:evenodd;clip-rule:evenodd;fill:#A4F6FF;}
	.st10{fill-rule:evenodd;clip-rule:evenodd;fill:#81EAEA;}
	.st11{fill:#54323A;}
	.st12{fill:#38302C;}
	.st13{fill:#E6E7E8;}
	.st14{fill-rule:evenodd;clip-rule:evenodd;fill:#B59B77;}
	.st15{fill-rule:evenodd;clip-rule:evenodd;fill:#E6705F;}
	.st16{fill-rule:evenodd;clip-rule:evenodd;fill:#DD4F65;}
	.st17{fill-rule:evenodd;clip-rule:evenodd;fill:#474358;}
	.st18{fill:#B59B77;}
	.st19{fill-rule:evenodd;clip-rule:evenodd;fill:#FFD150;}
	.st20{fill-rule:evenodd;clip-rule:evenodd;fill:#A58C69;}
	.st21{fill-rule:evenodd;clip-rule:evenodd;fill:#99805D;}
	.st22{fill-rule:evenodd;clip-rule:evenodd;fill:#EE915B;}
	.st23{fill-rule:evenodd;clip-rule:evenodd;fill:#89714E;}
	.st24{fill-rule:evenodd;clip-rule:evenodd;fill:#F5B155;}
	.st25{fill:#E6705F;}
	.st26{fill:#F5B155;}
	.st27{fill:#FFD351;}
	.st28{fill:#47372E;}
	.st29{fill:#DD4F65;}
	.st30{fill:#FFD150;}
</style>
<g id="Layer_2_1_">
	<g id="Layer_1-2">
		<path class="st0" d="M231.7,14.2v347.3c0,7.9-6.6,14.2-14.8,14.2H14.8c-8,0.1-14.6-6.2-14.8-14.2V14.2C0.2,6.2,6.8-0.1,14.8,0
			h202.1C225.1,0,231.7,6.4,231.7,14.2z M219.3,353.2V22.5c0-5.9-4.8-10.7-10.7-10.7H23.1c-5.9,0-10.7,4.8-10.7,10.7v330.8
			c0,5.9,4.7,10.7,10.6,10.7c0,0,0,0,0,0h185.5C214.5,364,219.3,359.2,219.3,353.2C219.3,353.3,219.3,353.3,219.3,353.2L219.3,353.2
			z"/>
		<path class="st1" d="M23.1,11.9h185.5c5.9,0,10.7,4.8,10.7,10.7v330.8c0,5.9-4.8,10.7-10.7,10.7H23.1c-5.9,0-10.7-4.8-10.7-10.7
			V22.5C12.4,16.6,17.2,11.9,23.1,11.9z"/>
		<path class="st2" d="M43.8,325.5c-0.1-0.1-0.2-0.3-0.2-0.5v-11.2c-0.1-0.3,0.2-0.6,0.5-0.7c0.1,0,0.1,0,0.2,0h0.9
			c0.1,0,0.3,0,0.4,0.1c0.1,0.1,0.2,0.2,0.3,0.3l6.1,8.5v-8.2c0-0.2,0-0.4,0.2-0.5c0.1-0.1,0.3-0.2,0.5-0.2h1c0.2,0,0.4,0,0.5,0.2
			c0.1,0.1,0.2,0.3,0.2,0.5V325c0,0.2,0,0.4-0.2,0.5c-0.2,0.1-0.3,0.2-0.5,0.2h-0.9c-0.1,0-0.3,0-0.4-0.1c-0.1-0.1-0.2-0.2-0.3-0.3
			l-6.1-8.5v8.1c0,0.2,0,0.4-0.2,0.5c-0.2,0.1-0.3,0.2-0.5,0.2h-1C44.1,325.7,43.9,325.6,43.8,325.5z"/>
		<path class="st2" d="M56.7,325.5c-0.1-0.1-0.2-0.3-0.2-0.5v-11.2c0-0.2,0-0.4,0.2-0.5c0.1-0.1,0.3-0.2,0.5-0.2h1
			c0.2,0,0.4,0,0.5,0.2c0.1,0.1,0.2,0.3,0.2,0.5V325c0,0.2,0,0.4-0.2,0.5c-0.2,0.1-0.3,0.2-0.5,0.2h-1
			C57,325.7,56.9,325.6,56.7,325.5z"/>
		<path class="st2" d="M61.3,325.5c-0.1-0.1-0.2-0.3-0.2-0.5v-11.2c-0.1-0.3,0.1-0.6,0.5-0.7c0.1,0,0.2,0,0.2,0h0.8
			c0.1,0,0.3,0,0.4,0.1c0.1,0.1,0.2,0.2,0.3,0.3l6.1,8.5v-8.2c0-0.2,0-0.4,0.2-0.5c0.1-0.1,0.3-0.2,0.5-0.2h1c0.2,0,0.4,0,0.5,0.2
			c0.1,0.1,0.2,0.3,0.2,0.5V325c0,0.2,0,0.4-0.2,0.5c-0.2,0.1-0.4,0.2-0.6,0.2h-0.9c-0.1,0-0.3,0-0.4-0.1c-0.1-0.1-0.2-0.2-0.3-0.3
			l-6.1-8.5v8.2c0,0.2,0,0.4-0.2,0.5c-0.2,0.1-0.3,0.2-0.5,0.2h-1C61.6,325.7,61.4,325.6,61.3,325.5z"/>
		<path class="st2" d="M74.2,325.5c-0.1-0.1-0.2-0.3-0.2-0.5v-11.2c0-0.2,0-0.4,0.2-0.5c0.1-0.1,0.3-0.2,0.5-0.2h7.7
			c0.3-0.1,0.6,0.1,0.7,0.4c0,0.1,0,0.2,0,0.2v0.5c0,0.2,0,0.4-0.1,0.5c-0.1,0.1-0.3,0.2-0.5,0.2h-6v3.6h4.4c0.2,0,0.4,0,0.5,0.1
			c0.1,0.1,0.2,0.3,0.2,0.5v0.5c0,0.2,0,0.4-0.2,0.5c-0.1,0.1-0.3,0.2-0.5,0.2h-4.4v3.6h6c0.2,0,0.4,0,0.5,0.1
			c0.1,0.1,0.2,0.3,0.2,0.5v0.5c0,0.2,0,0.4-0.2,0.5c-0.1,0.1-0.3,0.2-0.5,0.1h-7.7C74.5,325.7,74.3,325.6,74.2,325.5z"/>
		<path class="st2" d="M93.2,324.2c-2.2-2.9-2.2-6.8,0-9.7c2.7-2.3,6.7-2.3,9.4,0c2.2,2.9,2.2,6.8,0,9.7
			C99.9,326.5,95.9,326.5,93.2,324.2z M100.9,323c0.7-1.1,1.1-2.3,1-3.6c0.1-1.3-0.3-2.5-1-3.6c-1.6-1.6-4.3-1.6-5.9,0c0,0,0,0,0,0
			c-0.7,1-1.1,2.3-1,3.6c-0.1,1.3,0.3,2.6,1.1,3.6C96.6,324.6,99.3,324.6,100.9,323C100.9,323,100.9,323,100.9,323L100.9,323z"/>
		<path class="st2" d="M106.2,325.5c-0.1-0.1-0.2-0.3-0.2-0.5v-11.2c0-0.2,0-0.4,0.2-0.5c0.1-0.1,0.3-0.2,0.5-0.2h7.7
			c0.2,0,0.4,0,0.5,0.1c0.1,0.1,0.1,0.3,0.1,0.5v0.5c0,0.2,0,0.4-0.1,0.5c-0.1,0.1-0.3,0.2-0.5,0.2h-6v3.6h4.4
			c0.3-0.1,0.6,0.1,0.7,0.4c0,0.1,0,0.2,0,0.2v0.5c0,0.2,0,0.4-0.2,0.5c-0.1,0.1-0.3,0.2-0.5,0.2h-4.4v4.7c0,0.2,0,0.4-0.2,0.5
			c-0.2,0.1-0.3,0.2-0.5,0.2h-1C106.6,325.7,106.4,325.6,106.2,325.5z"/>
		<path class="st2" d="M126.8,325.6c-0.1-0.1-0.2-0.2-0.2-0.4l-3.1-12.2c0-0.1,0-0.1,0-0.2c0-0.2,0.1-0.3,0.4-0.3h1.6
			c0.1,0,0.3,0,0.4,0.1c0.1,0.1,0.1,0.2,0.2,0.3l1.9,8.5l2.3-7.5c0-0.1,0.1-0.2,0.2-0.3c0.1-0.1,0.2-0.1,0.4-0.1h0.9
			c0.1,0,0.3,0,0.4,0.1c0.1,0.1,0.1,0.2,0.2,0.3l2.4,7.5l1.9-8.5c0-0.1,0.1-0.2,0.2-0.3c0.1-0.1,0.3-0.1,0.4-0.1h1.6
			c0.2,0,0.4,0.1,0.4,0.3c0,0.1,0,0.1,0,0.2l-3.1,12.2c0,0.1-0.1,0.3-0.2,0.4c-0.1,0.1-0.3,0.1-0.4,0.1h-1c-0.1,0-0.3,0-0.4-0.1
			c-0.1-0.1-0.2-0.2-0.2-0.4l-2.3-7.8l-2.3,7.8c0,0.1-0.1,0.3-0.2,0.4c-0.1,0.1-0.3,0.1-0.4,0.1h-1.1
			C127,325.7,126.9,325.7,126.8,325.6z"/>
		<path class="st2" d="M138.5,325.4c0-0.1,0-0.2,0.1-0.2l5.1-12.1c0.1-0.1,0.1-0.3,0.2-0.4c0.1-0.1,0.3-0.1,0.4-0.1h1.1
			c0.1,0,0.3,0,0.4,0.1c0.1,0.1,0.2,0.3,0.2,0.4l5.1,12.1c0,0.1,0.1,0.2,0.1,0.2c0,0.2-0.1,0.3-0.3,0.3h-1.7c-0.1,0-0.2,0-0.4-0.1
			c-0.1-0.1-0.2-0.2-0.2-0.3l-1.1-2.7h-5.3l-1.1,2.7c0,0.1-0.1,0.2-0.2,0.3c-0.1,0-0.2,0.1-0.4,0.1h-1.7
			C138.6,325.7,138.5,325.6,138.5,325.4z M146.9,320.8l-2.1-5.1l-2,5.1H146.9z"/>
		<path class="st2" d="M153.2,325.5c-0.1-0.1-0.2-0.3-0.2-0.5v-11.8c0-0.2,0-0.4,0.2-0.5c0.2-0.1,0.4-0.2,0.6-0.2h0.9
			c0.1,0,0.3,0,0.4,0.1c0.1,0.1,0.2,0.2,0.3,0.3l6.4,8.9v-8.5c0-0.2,0-0.4,0.2-0.5c0.2-0.1,0.4-0.2,0.6-0.2h1c0.2,0,0.4,0,0.6,0.2
			c0.1,0.2,0.2,0.3,0.2,0.5V325c0,0.2,0,0.4-0.2,0.5c-0.2,0.1-0.4,0.2-0.6,0.2h-0.9c-0.1,0-0.3,0-0.4-0.1c-0.1-0.1-0.2-0.2-0.3-0.3
			l-6.4-8.9v8.5c0,0.2,0,0.4-0.2,0.5c-0.2,0.1-0.4,0.2-0.6,0.2h-1C153.6,325.7,153.4,325.6,153.2,325.5z"/>
		<path class="st2" d="M166.8,325.5c-0.1-0.1-0.2-0.3-0.2-0.5v-11.8c0-0.2,0-0.4,0.2-0.5c0.2-0.1,0.4-0.2,0.6-0.2h3.9
			c1.8-0.1,3.6,0.4,5,1.6c1.2,1,1.7,2.7,1.7,5c0,4.4-2.2,6.6-6.7,6.6h-3.9C167.1,325.7,166.9,325.6,166.8,325.5z M171.3,323.8
			c1.1,0.1,2.3-0.3,3.1-1.1c1.4-2.2,1.4-5,0-7.3c-0.8-0.8-2-1.1-3.1-1.1h-2.3v9.4H171.3z"/>
		<path class="st2" d="M180.9,325.7c-0.8-0.2-1.5-0.4-2.1-0.9c-0.2-0.1-0.2-0.2-0.2-0.3c0-0.1,0-0.2,0.1-0.2l0.6-1
			c0.1-0.1,0.1-0.2,0.2-0.2c0.1,0,0.2,0,0.2,0.1c0.5,0.3,1.1,0.5,1.7,0.7c0.6,0.2,1.3,0.3,1.9,0.3c0.7,0,1.4-0.1,2-0.4
			c0.5-0.3,0.7-0.8,0.7-1.4c0-0.3-0.1-0.7-0.2-0.9c-0.2-0.3-0.4-0.5-0.7-0.6c-0.5-0.3-1-0.5-1.6-0.7l-0.4-0.2
			c-0.7-0.3-1.4-0.6-2.1-1c-0.5-0.3-1-0.7-1.4-1.2c-0.4-0.5-0.6-1.2-0.5-1.8c0-1.1,0.5-2.1,1.3-2.7c1-0.7,2.3-1,3.5-1
			c0.8,0,1.6,0.1,2.3,0.2c0.6,0.1,1.2,0.4,1.7,0.8c0.1,0.1,0.2,0.2,0.2,0.3c0,0.1,0,0.2-0.1,0.2l-0.6,1c-0.1,0.1-0.1,0.2-0.2,0.2
			c-0.1,0-0.2-0.1-0.2-0.1c-0.9-0.6-2-0.8-3.1-0.8c-0.6,0-1.3,0.1-1.8,0.4c-0.4,0.3-0.7,0.9-0.6,1.4c0,0.3,0.1,0.7,0.3,1
			c0.2,0.3,0.5,0.5,0.8,0.6c0.3,0.2,0.9,0.4,1.6,0.7l0.5,0.2c0.8,0.3,1.5,0.6,2.2,1c0.5,0.3,0.9,0.7,1.2,1.2
			c0.3,0.6,0.5,1.2,0.4,1.8c0.1,1.1-0.4,2.1-1.3,2.7c-1,0.7-2.3,1.1-3.6,1C182.7,326,181.8,325.9,180.9,325.7z"/>
		<g>
			<defs>
				<path id="SVGID_1_" d="M55,43.3h127.2c13.5,0,24.4,10.9,24.4,24.4v189.6c0,13.5-10.9,24.4-24.4,24.4H55
					c-13.5,0-24.4-10.9-24.4-24.4V67.7C30.5,54.2,41.5,43.3,55,43.3z"/>
			</defs>
			<clipPath id="SVGID_2_">
				<use xlink:href="#SVGID_1_"  style="overflow:visible;"/>
			</clipPath>
			<g class="st3">
				<rect x="23.9" y="33.4" class="st4" width="186.3" height="68.6"/>
				<path class="st5" d="M168.2,105.6h56.2c4,0,7.3-3.3,7.3-7.3l0,0c0-4-3.3-7.3-7.3-7.3h-56.2c-4,0-7.3,3.3-7.3,7.3l0,0
					C161,102.4,164.2,105.6,168.2,105.6z"/>
				<circle class="st5" cx="203.5" cy="87.6" r="18.1"/>
				<circle class="st5" cx="183.6" cy="92.8" r="12.9"/>
				<path class="st5" d="M12.1,80.8h123.4c7.8,0,14.2,6.3,14.2,14.2v0c0,7.8-6.3,14.2-14.2,14.2H12.1c-7.8,0-14.2-6.3-14.2-14.2v0
					C-2.1,87.1,4.3,80.8,12.1,80.8z"/>
				<ellipse class="st5" cx="58.4" cy="73.9" rx="38.7" ry="35.2"/>
				<ellipse class="st5" cx="101" cy="84" rx="27.6" ry="25.1"/>
				<path class="st6" d="M38.1,49.2l28.8,8.2c0,0,15.4,7.7,19.7,7.7s26.3,7.5,26.3,7.5l10.7,20.8H28.5V46.8L38.1,49.2z"/>
				<rect x="27.5" y="100.6" class="st7" width="182.1" height="194.2"/>
				<polygon class="st8" points="76.1,281.7 83,238.4 114.4,212.9 213.1,209.2 213.1,286.9 				"/>
				<path class="st9" d="M156.8,245.8h-28.2c-0.8,0-1.4-0.6-1.4-1.4l0,0c0-0.8,0.6-1.4,1.4-1.4h28.2c0.8,0,1.4,0.6,1.4,1.4l0,0
					C158.2,245.2,157.6,245.8,156.8,245.8z"/>
				<path class="st9" d="M146.2,271.5h-28.2c-0.8,0-1.4-0.6-1.4-1.4l0,0c0-0.8,0.6-1.4,1.4-1.4h28.2c0.8,0,1.4,0.6,1.4,1.4l0,0
					C147.6,270.9,147,271.5,146.2,271.5z"/>
				<path class="st9" d="M135.2,259.8H107c-0.8,0-1.4-0.6-1.4-1.4l0,0c0-0.8,0.7-1.4,1.4-1.4h28.2c0.8,0,1.4,0.6,1.4,1.4l0,0
					C136.6,259.2,136,259.8,135.2,259.8z"/>
				<path class="st9" d="M203.8,242h-28.2c-0.8,0-1.4-0.6-1.4-1.4l0,0c0-0.8,0.6-1.4,1.4-1.4h28.2c0.8,0,1.4,0.6,1.4,1.4l0,0
					C205.2,241.4,204.6,242,203.8,242z"/>
				<path class="st10" d="M126,126.4H97.8c-0.8,0-1.4-0.6-1.4-1.4l0,0c0-0.8,0.6-1.4,1.4-1.4l0,0H126c0.8,0,1.4,0.6,1.4,1.4l0,0
					C127.4,125.8,126.8,126.4,126,126.4z"/>
				<path class="st10" d="M158.3,117.3H130c-0.8,0-1.4-0.6-1.4-1.4l0,0c0-0.8,0.6-1.4,1.4-1.4h28.2c0.8,0,1.4,0.6,1.4,1.4l0,0
					C159.7,116.7,159.1,117.3,158.3,117.3z"/>
				<path class="st10" d="M176.6,135.7h-28.2c-0.8,0-1.4-0.6-1.4-1.4l0,0c0-0.8,0.6-1.4,1.4-1.4h28.2c0.8,0,1.4,0.6,1.4,1.4l0,0
					C178,135,177.4,135.7,176.6,135.7z"/>
				<path class="st10" d="M154.4,148.3h-28.2c-0.8,0-1.4-0.6-1.4-1.4l0,0c0-0.8,0.6-1.4,1.4-1.4h28.2c0.8,0,1.4,0.6,1.4,1.4l0,0
					C155.8,147.7,155.2,148.3,154.4,148.3z"/>
				<path class="st10" d="M198,123.8h-28.2c-0.8,0-1.4-0.6-1.4-1.4l0,0c0-0.8,0.6-1.4,1.4-1.4H198c0.8,0,1.4,0.6,1.4,1.4l0,0
					C199.4,123.2,198.8,123.8,198,123.8z"/>
				<path class="st10" d="M215.1,110.9h-28.2c-0.8,0-1.4-0.6-1.4-1.4l0,0c0-0.8,0.6-1.4,1.4-1.4h28.2c0.8,0,1.4,0.6,1.4,1.4l0,0
					C216.5,110.3,215.8,110.9,215.1,110.9z"/>
				<path class="st10" d="M68.2,156.1H40c-0.8,0-1.4-0.6-1.4-1.4l0,0c0-0.8,0.6-1.4,1.4-1.4h28.2c0.8,0,1.4,0.6,1.4,1.4l0,0
					C69.6,155.4,69,156.1,68.2,156.1z"/>
				<path class="st10" d="M53.3,183.4H25c-0.8,0-1.4-0.6-1.4-1.4l0,0c0-0.8,0.6-1.4,1.4-1.4c0,0,0,0,0,0h28.3c0.8,0,1.4,0.7,1.4,1.4
					c0,0,0,0,0,0l0,0C54.7,182.8,54,183.4,53.3,183.4z"/>
				<path class="st10" d="M49.6,141.6H21.4c-0.8,0-1.4-0.7-1.4-1.4l0,0c0-0.8,0.6-1.4,1.4-1.4h28.2c0.8,0,1.4,0.6,1.4,1.4l0,0
					C51.1,141,50.4,141.6,49.6,141.6C49.6,141.6,49.6,141.6,49.6,141.6z"/>
				<path class="st10" d="M64,216.6H35.8c-0.8,0-1.4-0.6-1.4-1.4l0,0c0-0.8,0.6-1.4,1.4-1.4H64c0.8,0,1.4,0.6,1.4,1.4l0,0
					C65.4,216,64.8,216.6,64,216.6z"/>
				<path class="st9" d="M175.9,234.1h-43.2c-0.8,0-1.4-0.6-1.4-1.4l0,0c0-0.8,0.6-1.4,1.4-1.4h43.2c0.8,0,1.4,0.6,1.4,1.4l0,0
					C177.3,233.5,176.7,234.1,175.9,234.1z"/>
				<path class="st11" d="M46.2,229.9c-0.4-0.7-0.8-1.5-1.1-2.3c-10.2-23.7-4.3-50.3,7.7-72.1l13.7-24.7
					c1.8-3.2,66.4,11.5,72.4,12.6c0.5,0.1,12.1,34.9,14,38.5c4.5,8.4,19.6,22.6,15.4,29.5c-13.3,22.3-58.5,28.2-81.2,31.6
					C70.7,245.4,54.4,245.4,46.2,229.9z"/>
				<path class="st6" d="M113.4,198.8l10.7-9.8l13.1-21.8l1.8-23.8l8.2,22.8l-10.8,13.1c0,0-3.1,10.9-4.1,12s-28,15.1-28,15.1
					L113.4,198.8z"/>
				<path class="st6" d="M53.2,175.9c0,0,16.1,12.2,17.4,12.9s26.2-15.2,26.2-15.6s-31,2.7-31,2.7s-11.6-9.1-12-8.9s-5.7-2-5.7-2
					l-2.7,6.8L53.2,175.9z"/>
				<path class="st6" d="M47.4,233.3c0,0,18-6.1,19.5-5.9s7.5,7.7,7.5,7.7l18.6,1.3l18.2,2.7l-46.9,8.9L47.4,233.3z"/>
				<path class="st11" d="M83.8,268.8c0-0.5,0-1,0-1.5c-0.3-14.6-9.6-26.9-20.9-35.3l-12.9-9.5c-1.7-1.2-31.4,21.5-34.2,23.5
					c-0.2,0.2,2,20.8,1.8,23.1c-0.4,5.4-4.7,16.2-1,18.8c12.1,8.4,36.7,0.8,49.2-2.8C74.9,282.5,83.2,278.6,83.8,268.8z"/>
				<path class="st6" d="M42,268.6l-7.8-2.6l-11.9-8.1L15.8,246l1.2,13.7l8.6,4.2c0,0,4.1,4.9,4.9,5.2s17.9,1.2,17.9,1.2L42,268.6z"
					/>
				<path class="st6" d="M67.5,242.6c0,0-5.4,10-5.9,10.7s-17.1-1.7-17.1-1.9s16.6-5.9,16.6-5.9s3.8-7.4,4.1-7.4
					c0.9-0.7,1.7-1.5,2.5-2.3l3,2.9L67.5,242.6z"/>
				<path class="st6" d="M84,270.8c0,0-10.7,1.1-11.4,1.5s-2.1,5.7-2.1,5.7l-9.3,5l-8.7,5.7l26.2-6.5L84,270.8z"/>
				<path class="st11" d="M231,195.5c0-0.6,0-1.2,0-1.8c-0.4-17.6-11.5-32.4-25.1-42.4l-15.5-11.4c-2-1.5-37.8,25.9-41.2,28.2
					c-0.3,0.2,2.4,25,2.2,27.8c-0.4,6.4-5.7,19.5-1.2,22.6c14.5,10.1,44.2,0.9,59.1-3.4C220.2,212,230.3,207.4,231,195.5z"/>
				<path class="st12" d="M180.6,195.3l-9.4-3.1l-14.3-9.8l-7.8-14.2l1.4,16.4l10.4,5c0,0,5,5.9,5.9,6.2s21.6,1.4,21.6,1.4
					L180.6,195.3z"/>
				<path class="st6" d="M211.4,164.1c0,0-6.5,12.1-7.1,12.9s-20.5-2-20.6-2.3s20-7.1,20-7.1s4.6-8.9,4.9-8.9s3-2.8,3-2.8l3.6,3.4
					L211.4,164.1z"/>
				<path class="st12" d="M231.2,197.9c0,0-12.9,1.3-13.7,1.8s-2.5,6.8-2.5,6.8l-11.1,6.1l-10.4,6.8l31.5-7.8L231.2,197.9z"/>
				<circle class="st13" cx="130.2" cy="203.2" r="17.7"/>
				<path class="st14" d="M170.1,135h2l-1.8,84.9l-2-0.5L170.1,135z"/>
				<path class="st15" d="M139.6,209.1c-8.8-21.1-7.7-40.8,1.2-59.4l63.8-1c-13.6,18.8-12.4,50.3,4.5,70.1
					c-21.9-8.9-45.8-14.4-59.6-5.3C146.1,212.2,142.9,210.8,139.6,209.1L139.6,209.1z"/>
				<path class="st16" d="M139.6,209.1c-8.8-21.1-7.7-40.8,1.2-59.4c-5.1,36.4,49.7,61.5,64.6,67.7c-20.9-8-42.9-12.5-56-3.9
					C146.1,212.2,142.8,210.7,139.6,209.1L139.6,209.1z"/>
				<path class="st17" d="M172.1,135.4c0,0.5,0,1-0.1,1.5c4.5,1.2,9.2,1.5,13.8,0.9c7.9-1,16,0.9,22.6,5.4c-6.2-5.6-14-8.3-23.7-7.6
					c5.3-2.1,11.6-2.1,18.9-0.3c-5.5-2.1-12.7-4-19-2.3C180.4,134.2,176.3,136.5,172.1,135.4L172.1,135.4z"/>
				
					<rect x="210.9" y="211.1" transform="matrix(0.4069 -0.9135 0.9135 0.4069 -75.1615 323.1585)" class="st18" width="0.8" height="16.7"/>
				<path class="st16" d="M112,191.4c-1.7-5.6-2.7-11.5-5-16.9c-1.2-2.9-3.3-7.2-6.9-6.1c-2.6,0.8-2.7,3.4-2.1,5.2
					c0.5,1.2,1.8,1.8,3,1.3c0.9-0.5,0.8-1.6,0.5-2.9c3.2,6.5,4.2,12.9,5.5,19.6c3.3,16.3,7.9,30.9,22.5,39.1
					C118.5,221.3,114,207,112,191.4z"/>
				<path class="st19" d="M129.5,230.9l82.1,2.1c3.6-3.1,6.6-6.9,8.8-11.1c-19.4,3.4-39,1.1-57.1-3.7s-35.8-14.4-51.3-26.7
					C112.2,206.6,116.5,220.9,129.5,230.9L129.5,230.9z"/>
				<path class="st20" d="M129.5,230.9l18.3,0.5c-28.5-14.8-35.8-39.9-35.8-39.9C112.2,206.6,116.5,220.9,129.5,230.9L129.5,230.9z
					 M200,232.7l11.6,0.3c3.6-3.1,6.6-6.9,8.8-11.1C210.1,231.3,200,232.7,200,232.7L200,232.7z"/>
				<path class="st21" d="M129.5,230.9l6.5,0.2c-3.9-1.3-7.7-2.8-11.4-4.6C126.1,228.1,127.7,229.5,129.5,230.9z"/>
				<path class="st22" d="M161.4,231.7l50.2,1.3c1.2-1.1,2.4-2.2,3.5-3.4c-38.2,1.2-72.1-7.9-102-26.3c0.7,3.7,1.7,7.2,3.2,10.7
					C129.5,221.4,144.6,227.3,161.4,231.7L161.4,231.7z M129.5,230.9l6.5,0.2c-3.9-1.3-7.7-2.8-11.4-4.6
					C126.1,228.1,127.7,229.5,129.5,230.9z"/>
				<path class="st23" d="M200,232.7l11.6,0.3c1.2-1.1,2.4-2.2,3.5-3.4c-2.1,0.1-4.1,0.1-6.1,0.1C206.1,231.1,203.1,232.1,200,232.7
					L200,232.7z M120.2,207.4c-2.4-1.3-4.8-2.7-7.1-4.2c0.7,3.7,1.7,7.2,3.2,10.7c5.9,3.3,12,6.3,18.3,8.9
					C129.1,218.4,124.3,213.2,120.2,207.4z M129.4,230.9l6.5,0.2c-3.9-1.3-7.7-2.8-11.4-4.6C126.1,228.1,127.7,229.5,129.4,230.9z"
					/>
				<path class="st16" d="M106.9,191.1l0.1,0.6c3.3,16.3,7.9,30.9,22.5,39.1c-10.9-9.6-15.5-23.9-17.5-39.5L106.9,191.1z"/>
				<path class="st24" d="M129.5,230.9l18.3,0.5c-28.5-14.8-35.8-39.9-35.8-39.9C112.2,206.6,116.5,220.9,129.5,230.9L129.5,230.9z
					 M200,232.7l11.6,0.3c3.6-3.1,6.6-6.9,8.8-11.1C210.1,231.3,200,232.7,200,232.7L200,232.7z"/>
				<path class="st15" d="M200,232.7l11.6,0.3c1.2-1.1,2.4-2.2,3.5-3.4c-2.1,0.1-4.1,0.1-6.1,0.1C206.1,231.1,203.1,232.1,200,232.7
					L200,232.7z M120.2,207.4c-2.4-1.3-4.8-2.7-7.1-4.2c0.7,3.7,1.7,7.2,3.2,10.7c5.9,3.3,12,6.3,18.3,8.9
					C129.1,218.4,124.3,213.2,120.2,207.4z"/>
				<path class="st19" d="M154.1,176.9c-0.2,6.3,4.2,11.5,9.8,11.7s10.3-4.8,10.5-11s-4.2-11.5-9.8-11.7S154.3,170.6,154.1,176.9z"
					/>
				<polygon class="st25" points="91.8,256.9 102.9,281.2 103.6,276.2 93.9,254.8 				"/>
				<polygon class="st25" points="49.2,221.7 76.2,218.6 64.1,195.5 59.8,193.1 72.9,218.1 44.9,221.2 70.2,233.8 49.4,252.8 
					53.5,252.1 73.5,233.7 				"/>
				<polygon class="st26" points="120.1,241.9 120.2,242 120.5,242 120.4,241.9 				"/>
				<polygon class="st25" points="77.2,248.1 71.5,275.7 75.3,271.8 80.3,247.6 				"/>
				<polygon class="st25" points="108.8,254.3 131.5,267.2 130.1,264.5 109.1,252.6 				"/>
				<polygon class="st25" points="84.4,206.3 63.5,194.5 64.1,195.5 84.3,207 				"/>
				<polygon class="st25" points="120.2,242 118.4,242.2 130.1,264.5 132.8,266 				"/>
				<polygon class="st25" points="103.6,276.2 105.1,279.5 108.8,254.3 107,253.3 				"/>
				<polygon class="st25" points="53.5,252.1 53.5,252.1 77.2,248.1 77.2,248.1 				"/>
				<polygon class="st25" points="75.3,271.8 74.8,274.2 91.8,256.9 91.2,255.5 				"/>
				<polygon class="st27" points="120.2,242 120.1,241.9 120.4,241.9 87.3,207.1 87.2,207.9 84.4,206.3 84.3,207 64.1,195.5 
					76.2,218.6 49.2,221.7 73.5,233.7 53.5,252.1 77.2,248.1 77.2,248.1 80.3,247.6 75.3,271.8 91.2,255.5 91.8,256.9 93.9,254.8 
					103.6,276.2 107,253.3 108.8,254.3 109.1,252.6 130.1,264.5 118.4,242.2 				"/>
				
					<ellipse transform="matrix(0.9771 -0.2127 0.2127 0.9771 -44.7404 26.869)" class="st5" cx="102.5" cy="221.4" rx="18.5" ry="18.4"/>
				<path class="st5" d="M145.7,230.3c2.2,10-4,19.8-14,22.1c-10,2.2-19.8-4-22.1-14c-2.2-10,4-19.8,14-22.1c0,0,0.1,0,0.1,0
					C133.7,214.1,143.5,220.3,145.7,230.3z"/>
				<path class="st5" d="M162.1,226.7c1.5,6.7-2.8,13.4-9.5,14.9c-6.7,1.5-13.4-2.8-14.9-9.5c-1.5-6.7,2.8-13.4,9.5-14.9
					c0,0,0,0,0.1,0C154,215.7,160.7,219.9,162.1,226.7C162.1,226.7,162.1,226.7,162.1,226.7z"/>
				<path class="st28" d="M38.7,95.2L38.7,95.2c-0.5,0-0.9-0.4-1-0.9V80c0-0.5,0.4-0.9,1-0.9l0,0c0.5,0,1,0.4,1,0.9v14.3
					C39.7,94.8,39.3,95.2,38.7,95.2z"/>
				<path class="st29" d="M38.7,71.1L38.7,71.1c-0.7,0.7-0.7,1.9,0,2.7c0.7,0.8,1.9,0.8,2.7,0c0,0.2,0.1,0.5,0.1,0.7
					c0,1.9-1.2,3.5-2.8,3.5s-2.8-1.6-2.8-3.5S37.2,71.1,38.7,71.1z"/>
				<path class="st30" d="M37.7,74.5L37.7,74.5c0,0.9,0.7,1.5,1.5,1.5l0,0c0.1,0,0.3,0,0.4,0c0,0.7-0.6,1.2-1.2,1.3
					c-0.8-0.1-1.3-0.8-1.2-1.6C37.2,75.3,37.4,74.9,37.7,74.5z"/>
				<path class="st28" d="M48,95.2L48,95.2c-0.5,0-1-0.4-1-0.9V80c0-0.5,0.4-0.9,0.9-0.9c0,0,0,0,0.1,0l0,0c0.5,0,0.9,0.4,0.9,0.9
					l0,0v14.3C48.9,94.8,48.5,95.2,48,95.2z"/>
				<path class="st29" d="M48,71.1L48,71.1c-0.7,0.7-0.7,1.9,0,2.7c0.4,0.4,0.9,0.6,1.4,0.6c0.5,0,1-0.2,1.3-0.6
					c0,0.2,0.1,0.5,0.1,0.7c0,1.9-1.2,3.4-2.8,3.4s-2.8-1.6-2.8-3.5S46.5,71.1,48,71.1z"/>
				<path class="st30" d="M47,74.5L47,74.5c0,0.9,0.7,1.5,1.5,1.5l0,0c0.1,0,0.3,0,0.4,0c0,0.7-0.5,1.2-1.2,1.3
					c-0.8-0.1-1.3-0.8-1.2-1.5C46.5,75.3,46.6,74.9,47,74.5z"/>
				<path class="st28" d="M57.3,95.2L57.3,95.2c-0.5,0-1-0.4-1-0.9V80c0-0.5,0.5-0.9,1-0.9l0,0c0.5,0,0.9,0.4,1,0.9v14.3
					C58.2,94.8,57.8,95.2,57.3,95.2z"/>
				<path class="st29" d="M57.3,71.1L57.3,71.1c-0.3,0.4-0.5,0.9-0.5,1.4c0,1.1,0.9,1.9,1.9,1.9h0c0.5,0,1-0.2,1.3-0.6
					c0,0.2,0.1,0.5,0.1,0.7c0,1.9-1.2,3.5-2.8,3.5s-2.8-1.6-2.8-3.5S55.7,71.1,57.3,71.1z"/>
				<path class="st30" d="M56.3,74.5L56.3,74.5c0,0.9,0.7,1.5,1.5,1.5l0,0c0.1,0,0.3,0,0.4,0c0,0.7-0.5,1.2-1.2,1.3
					c-0.8-0.1-1.3-0.8-1.2-1.5C55.8,75.3,55.9,74.9,56.3,74.5z"/>
				<path class="st28" d="M66.6,95.2L66.6,95.2c-0.5,0-1-0.4-1-0.9V80c0-0.5,0.4-0.9,0.9-0.9c0,0,0,0,0.1,0l0,0c0.5,0,1,0.4,1,0.9
					v14.3C67.5,94.8,67.1,95.2,66.6,95.2z"/>
				<path class="st29" d="M66.6,71.1L66.6,71.1c-0.7,0.7-0.7,1.9,0,2.7c0.4,0.4,0.9,0.6,1.4,0.6c0.5,0,1-0.2,1.3-0.6
					c0,0.2,0.1,0.5,0.1,0.7c0,1.9-1.2,3.5-2.8,3.5s-2.8-1.6-2.8-3.5S65,71.1,66.6,71.1z"/>
				<path class="st30" d="M65.6,74.5L65.6,74.5c0,0.9,0.7,1.5,1.5,1.5l0,0c0.1,0,0.3,0,0.4,0c0,0.7-0.6,1.2-1.2,1.3
					c-0.8-0.1-1.3-0.8-1.3-1.5c0,0,0,0,0,0C65,75.3,65.2,74.9,65.6,74.5z"/>
				<path class="st28" d="M75.8,95.2L75.8,95.2c-0.5,0-0.9-0.4-0.9-0.9V80c0-0.5,0.4-0.9,0.9-0.9l0,0c0.5,0,1,0.4,1,0.9v14.3
					C76.8,94.8,76.4,95.2,75.8,95.2z"/>
				<path class="st29" d="M75.8,71.1L75.8,71.1c-0.3,0.4-0.5,0.9-0.5,1.4c0,1.1,0.9,1.9,1.9,1.9c0.5,0,1-0.2,1.3-0.6
					c0,0.2,0.1,0.5,0.1,0.7c0,1.9-1.2,3.5-2.8,3.5S73,76.5,73,74.6S74.3,71.1,75.8,71.1z"/>
				<path class="st30" d="M74.8,74.5L74.8,74.5c0,0.9,0.7,1.5,1.5,1.5c0,0,0,0,0,0c0.1,0,0.3,0,0.4,0c0,0.7-0.5,1.2-1.2,1.3
					c-0.8-0.1-1.3-0.8-1.3-1.6c0,0,0,0,0,0C74.3,75.3,74.5,74.9,74.8,74.5z"/>
				<path class="st28" d="M85.1,95.2L85.1,95.2c-0.5,0-0.9-0.4-0.9-0.9V80c0-0.5,0.4-0.9,0.9-0.9l0,0c0.5,0,1,0.4,1,0.9v14.3
					C86.1,94.8,85.6,95.2,85.1,95.2z"/>
				<path class="st29" d="M85.1,71.1L85.1,71.1c-0.7,0.7-0.7,1.9,0,2.7c0.4,0.4,0.9,0.6,1.4,0.6c0.5,0,1-0.2,1.3-0.6
					c0,0.2,0.1,0.5,0.1,0.7c0,1.9-1.2,3.5-2.8,3.5s-2.8-1.6-2.8-3.5S83.6,71.1,85.1,71.1z"/>
				<path class="st30" d="M84.1,74.5L84.1,74.5c0,0.9,0.7,1.5,1.5,1.5l0,0c0.1,0,0.3,0,0.4,0c0,0.7-0.6,1.2-1.2,1.3
					c-0.8-0.1-1.3-0.8-1.2-1.5C83.6,75.3,83.8,74.9,84.1,74.5z"/>
				<path class="st28" d="M94.4,95.2L94.4,95.2c-0.5,0-1-0.4-1-0.9V80c0-0.5,0.5-0.9,1-0.9l0,0c0.5,0,0.9,0.4,0.9,0.9c0,0,0,0,0,0
					v14.3C95.3,94.8,94.9,95.2,94.4,95.2z"/>
				<path class="st29" d="M94.4,71.1L94.4,71.1c-0.7,0.7-0.7,2,0,2.7c0.4,0.4,0.9,0.6,1.4,0.6c0.5,0,1-0.2,1.3-0.6
					c0,0.2,0.1,0.5,0.1,0.7c0,1.9-1.2,3.5-2.8,3.5s-2.8-1.6-2.8-3.5S92.8,71.1,94.4,71.1z"/>
				<path class="st30" d="M93.4,74.5L93.4,74.5c0,0.9,0.7,1.5,1.5,1.5l0,0c0.1,0,0.3,0,0.4,0c0,0.7-0.5,1.2-1.2,1.3
					c-0.8-0.1-1.3-0.8-1.2-1.5C92.8,75.3,93,74.9,93.4,74.5z"/>
				<path class="st28" d="M94.4,95.2L94.4,95.2c-0.5,0-1-0.4-1-0.9V80c0-0.5,0.5-0.9,1-0.9l0,0c0.5,0,0.9,0.4,0.9,0.9c0,0,0,0,0,0
					v14.3C95.3,94.8,94.9,95.2,94.4,95.2z"/>
				<path class="st29" d="M94.4,71.1L94.4,71.1c-0.7,0.7-0.7,2,0,2.7c0.4,0.4,0.9,0.6,1.4,0.6c0.5,0,1-0.2,1.3-0.6
					c0,0.2,0.1,0.5,0.1,0.7c0,1.9-1.2,3.5-2.8,3.5s-2.8-1.6-2.8-3.5S92.8,71.1,94.4,71.1z"/>
				<path class="st30" d="M93.4,74.5L93.4,74.5c0,0.9,0.7,1.5,1.5,1.5l0,0c0.1,0,0.3,0,0.4,0c0,0.7-0.5,1.2-1.2,1.3
					c-0.8-0.1-1.3-0.8-1.2-1.5C92.8,75.3,93,74.9,93.4,74.5z"/>
				<path class="st28" d="M103.7,95.2L103.7,95.2c-0.5,0-1-0.4-1-0.9V80c0-0.5,0.5-0.9,1-0.9l0,0c0.5,0,0.9,0.4,0.9,0.9v14.3
					C104.6,94.8,104.2,95.2,103.7,95.2z"/>
				<path class="st29" d="M103.7,71.1L103.7,71.1c-0.7,0.7-0.7,1.9,0,2.7c0.7,0.8,1.9,0.8,2.7,0c0,0.2,0.1,0.5,0.1,0.7
					c0,1.9-1.2,3.5-2.8,3.5s-2.8-1.6-2.8-3.5S102.1,71.1,103.7,71.1z"/>
				<path class="st30" d="M102.7,74.5L102.7,74.5c0,0.9,0.7,1.5,1.5,1.5l0,0c0.1,0,0.3,0,0.4,0c0,0.7-0.6,1.2-1.2,1.3
					c-0.8-0.1-1.3-0.8-1.2-1.5C102.1,75.3,102.3,74.9,102.7,74.5z"/>
				<path class="st28" d="M113.4,95.2L113.4,95.2c-0.5,0-1-0.4-1-0.9V80c0-0.5,0.5-0.9,1-0.9l0,0c0.5,0,1,0.4,1,0.9v14.3
					C114.4,94.8,114,95.2,113.4,95.2z"/>
				<path class="st29" d="M113.4,71.1L113.4,71.1c-0.7,0.7-0.7,1.9,0,2.7c0.7,0.8,1.9,0.8,2.7,0c0,0.2,0.1,0.5,0.1,0.7
					c0,1.9-1.2,3.5-2.8,3.5s-2.8-1.6-2.8-3.5S111.9,71.1,113.4,71.1z"/>
				<path class="st30" d="M112.4,74.5L112.4,74.5c0,0.9,0.7,1.6,1.5,1.6c0,0,0,0,0,0c0.1,0,0.3,0,0.4,0c0,0.7-0.6,1.2-1.2,1.3
					c-0.8-0.1-1.3-0.8-1.2-1.5C111.9,75.4,112.1,74.9,112.4,74.5z"/>
				<path class="st11" d="M33.4,90H118c4.2,0,7.7,3.4,7.7,7.7v0.2c0,4.2-3.4,7.7-7.7,7.7H33.4c-4.2,0-7.7-3.4-7.7-7.7v-0.2
					C25.7,93.4,29.1,90,33.4,90z"/>
				<path class="st9" d="M178.5,278.9h-28.2c-0.8,0-1.4-0.6-1.4-1.4l0,0c0-0.8,0.6-1.4,1.4-1.4h28.2c0.8,0,1.4,0.6,1.4,1.4l0,0
					C180,278.2,179.3,278.9,178.5,278.9z"/>
				<path class="st9" d="M189.5,267h-28.2c-0.8,0-1.4-0.6-1.4-1.4l0,0c0-0.8,0.6-1.4,1.4-1.4h28.2c0.8,0,1.4,0.6,1.4,1.4l0,0
					C190.9,266.4,190.3,267,189.5,267z"/>
				<path class="st9" d="M173.2,253.8H145c-0.8,0-1.4-0.6-1.4-1.4l0,0c0-0.8,0.6-1.4,1.4-1.4h28.2c0.8,0,1.4,0.6,1.4,1.4l0,0
					C174.7,253.1,174,253.8,173.2,253.8z"/>
				<path class="st9" d="M192.6,251.8h-5.3c-0.3,0-0.6-0.3-0.6-0.6l0,0c0-0.3,0.2-0.6,0.5-0.6c0,0,0,0,0,0h5.3
					c0.3,0,0.6,0.3,0.6,0.6v0l0,0C193.2,251.6,192.9,251.8,192.6,251.8z"/>
				<path class="st9" d="M200.4,259h-9.1c-0.4,0-0.8-0.3-0.8-0.8l0,0c0-0.4,0.3-0.8,0.8-0.8l0,0h9.1c0.4,0,0.8,0.3,0.8,0.8l0,0
					C201.1,258.7,200.8,259,200.4,259z"/>
				<path class="st9" d="M203.8,275.6h-9.1c-0.4,0-0.8-0.3-0.8-0.8l0,0c0-0.4,0.3-0.8,0.8-0.8l0,0h9.1c0.4,0,0.8,0.3,0.8,0.8l0,0
					l0,0C204.5,275.3,204.2,275.6,203.8,275.6z"/>
				<path class="st10" d="M59.2,124.5H44.9c-0.9,0-1.6-0.7-1.5-1.6l0,0c0-0.9,0.7-1.5,1.5-1.6h14.3c0.9,0,1.5,0.7,1.5,1.6l0,0
					C60.8,123.8,60.1,124.5,59.2,124.5z"/>
			</g>
		</g>
	</g>
</g>
</svg>
