<?xml version="1.0" encoding="utf-8"?>
<!-- Generator: Adobe Illustrator 25.2.3, SVG Export Plug-In . SVG Version: 6.00 Build 0)  -->
<svg version="1.1" id="Layer_1" xmlns="http://www.w3.org/2000/svg" xmlns:xlink="http://www.w3.org/1999/xlink" x="0px" y="0px"
	 viewBox="0 0 231.7 375.8" style="enable-background:new 0 0 231.7 375.8;" xml:space="preserve">
<style type="text/css">
	.st0{fill:#F4B155;}
	.st1{fill:#FFF0CC;}
	.st2{fill:#231F20;}
	.st3{clip-path:url(#SVGID_2_);}
	.st4{fill:#A4F6FF;}
	.st5{fill:#80EAED;}
	.st6{fill:#FFFFFF;}
	.st7{fill:#754854;}
	.st8{fill:#68424D;}
	.st9{fill:#FFD351;}
	.st10{fill:none;}
	.st11{fill:#DD4F65;}
	.st12{fill:#E6705F;}
	.st13{fill:#4A355B;}
	.st14{fill:#563A43;}
	.st15{fill:#47372E;}
	.st16{fill:#FFD150;}
	.st17{fill:#F4B055;}
	.st18{fill:#EE915B;}
	.st19{fill:#DC4F64;}
	.st20{fill:#F5B155;}
</style>
<g id="Layer_2_1_">
	<g id="Layer_1-2">
		<path class="st0" d="M231.7,14.2v347.3c0,7.9-6.6,14.2-14.8,14.2H14.8c-8,0.1-14.6-6.2-14.8-14.2V14.2C0.2,6.2,6.8-0.1,14.8,0
			h202.1C225.1,0,231.7,6.4,231.7,14.2z M219.3,353.2V22.5c0-5.9-4.8-10.7-10.7-10.7H23.1c-5.9,0-10.7,4.8-10.7,10.7v330.8
			c0,5.9,4.8,10.7,10.6,10.7c0,0,0,0,0,0h185.5C214.5,364,219.3,359.2,219.3,353.2C219.3,353.3,219.3,353.3,219.3,353.2L219.3,353.2
			z"/>
		<path class="st1" d="M23.1,11.9h185.6c5.9,0,10.7,4.8,10.7,10.7v330.8c0,5.9-4.8,10.7-10.7,10.7H23.1c-5.9,0-10.7-4.8-10.7-10.7
			V22.5C12.4,16.6,17.2,11.9,23.1,11.9z"/>
		<path class="st2" d="M48.8,325.5c-0.1-0.1-0.2-0.3-0.2-0.5v-10.6h-3.4c-0.2,0-0.4,0-0.5-0.1c-0.1-0.1-0.2-0.3-0.2-0.5v-0.5
			c0-0.2,0-0.4,0.2-0.5c0.1-0.1,0.3-0.2,0.5-0.2h9.2c0.2,0,0.4,0,0.5,0.2c0.1,0.2,0.2,0.3,0.2,0.5v0.5c0,0.2,0,0.4-0.2,0.5
			c-0.2,0.1-0.4,0.2-0.5,0.1h-3.4V325c0,0.2,0,0.4-0.2,0.5c-0.2,0.1-0.4,0.2-0.6,0.2h-1C49.2,325.7,48.9,325.6,48.8,325.5z"/>
		<path class="st2" d="M56.9,325.5c-0.1-0.1-0.2-0.3-0.2-0.5v-11.8c0-0.2,0-0.4,0.2-0.5c0.2-0.1,0.4-0.2,0.5-0.2h8
			c0.2,0,0.4,0,0.5,0.1c0.1,0.2,0.2,0.3,0.1,0.5v0.5c0,0.2,0,0.4-0.1,0.5c-0.2,0.1-0.3,0.2-0.5,0.2h-6.2v3.8h4.6
			c0.2,0,0.4,0,0.5,0.2c0.1,0.1,0.2,0.3,0.2,0.5v0.5c0,0.2,0,0.4-0.2,0.5c-0.2,0.1-0.3,0.2-0.5,0.2h-4.6v3.8h6.3
			c0.2,0,0.4,0.1,0.6,0.2c0.1,0.2,0.2,0.3,0.2,0.5v0.5c0,0.2,0,0.4-0.2,0.5c-0.2,0.1-0.4,0.2-0.6,0.1h-8
			C57.2,325.7,57,325.6,56.9,325.5z"/>
		<path class="st2" d="M68,325.5c-0.1-0.1-0.2-0.3-0.2-0.5v-11.8c0-0.2,0-0.4,0.2-0.5c0.2-0.1,0.4-0.2,0.6-0.2h0.9
			c0.1,0,0.3,0,0.4,0.1c0.1,0.1,0.2,0.2,0.3,0.3l6.4,8.9v-8.5c-0.1-0.3,0.1-0.6,0.5-0.7c0.1,0,0.2,0,0.2,0h1c0.2,0,0.4,0,0.6,0.2
			c0.1,0.1,0.2,0.3,0.2,0.5V325c0,0.2,0,0.4-0.2,0.5c-0.2,0.1-0.4,0.2-0.6,0.2h-0.9c-0.1,0-0.3,0-0.4-0.1c-0.1-0.1-0.2-0.2-0.3-0.3
			l-6.4-8.9v8.5c0,0.2,0,0.4-0.2,0.5c-0.2,0.1-0.4,0.2-0.6,0.2h-1C68.3,325.7,68.1,325.6,68,325.5z"/>
		<path class="st2" d="M90.2,324.2c-2.3-3-2.3-7.1,0-10.1c2.8-2.4,7-2.4,9.8,0c2.3,3,2.3,7.1,0,10.1
			C97.2,326.6,93.1,326.6,90.2,324.2z M98.2,322.9c1.4-2.3,1.4-5.2,0-7.5c-1.7-1.7-4.5-1.7-6.2,0c-1.4,2.3-1.4,5.2,0,7.5
			C93.7,324.6,96.5,324.6,98.2,322.9C98.2,322.9,98.2,322.9,98.2,322.9z"/>
		<path class="st2" d="M103.8,325.5c-0.1-0.1-0.2-0.3-0.2-0.5v-11.8c-0.1-0.3,0.2-0.6,0.5-0.7c0.1,0,0.2,0,0.2,0h8
			c0.2,0,0.4,0,0.5,0.1c0.1,0.2,0.2,0.3,0.2,0.5v0.5c0,0.2,0,0.4-0.2,0.5c-0.1,0.1-0.3,0.2-0.5,0.2h-6.3v3.7h4.6
			c0.3-0.1,0.6,0.1,0.7,0.4c0,0.1,0,0.2,0,0.3v0.5c0,0.2,0,0.4-0.2,0.5c-0.2,0.1-0.3,0.2-0.5,0.2h-4.6v5c0,0.2,0,0.4-0.2,0.5
			c-0.2,0.1-0.4,0.2-0.6,0.2h-1C104.2,325.7,104,325.6,103.8,325.5z"/>
		<path class="st2" d="M125.1,325.6c-0.1-0.1-0.2-0.2-0.2-0.4l-3.1-12.2c0-0.1,0-0.1,0-0.2c0-0.2,0.1-0.3,0.4-0.3h1.6
			c0.1,0,0.3,0,0.4,0.1c0.1,0.1,0.1,0.2,0.2,0.3l1.9,8.5l2.3-7.5c0-0.1,0.1-0.2,0.2-0.3c0.1-0.1,0.2-0.1,0.4-0.1h0.9
			c0.1,0,0.3,0,0.4,0.1c0.1,0.1,0.2,0.2,0.2,0.3l2.3,7.5l1.9-8.5c0-0.1,0.1-0.2,0.2-0.3c0.1-0.1,0.3-0.1,0.4-0.1h1.6
			c0.2,0,0.4,0.1,0.4,0.3c0,0.1,0,0.1,0,0.2l-3.1,12.2c0,0.1-0.1,0.3-0.2,0.4c-0.1,0.1-0.3,0.1-0.4,0.1h-1.1
			c-0.3,0.1-0.6-0.1-0.6-0.4c0,0,0,0,0,0l-2.3-7.8l-2.3,7.8c0,0.1-0.1,0.3-0.2,0.4c-0.1,0.1-0.3,0.1-0.4,0.1h-1.1
			C125.4,325.7,125.2,325.7,125.1,325.6z"/>
		<path class="st2" d="M136.8,325.4c0-0.1,0-0.2,0.1-0.2L142,313c0.1-0.1,0.1-0.3,0.2-0.4c0.1-0.1,0.3-0.1,0.4-0.1h1.1
			c0.1,0,0.3,0,0.4,0.1c0.1,0.1,0.2,0.2,0.2,0.4l5.1,12.1c0,0.1,0,0.2,0.1,0.2c0,0.2-0.1,0.3-0.3,0.3h-1.7c-0.1,0-0.2,0-0.4-0.1
			c-0.1-0.1-0.2-0.2-0.2-0.3l-1.1-2.7h-5.3l-1.1,2.7c0,0.1-0.1,0.2-0.2,0.3c-0.1,0-0.2,0.1-0.4,0.1h-1.7
			C136.9,325.7,136.8,325.6,136.8,325.4z M145.2,320.8l-2-5.1l-2.1,5.1H145.2z"/>
		<path class="st2" d="M151.6,325.5c-0.1-0.1-0.2-0.3-0.2-0.5v-11.8c-0.1-0.3,0.2-0.7,0.5-0.7c0.1,0,0.2,0,0.2,0h0.9
			c0.1,0,0.3,0,0.4,0.1c0.1,0.1,0.2,0.2,0.3,0.3l6.4,8.9v-8.5c0-0.2,0-0.4,0.2-0.5c0.2-0.1,0.4-0.2,0.6-0.2h1c0.2,0,0.4,0,0.6,0.2
			c0.1,0.2,0.2,0.3,0.2,0.5V325c0,0.2,0,0.4-0.2,0.5c-0.2,0.1-0.4,0.2-0.6,0.2H161c-0.1,0-0.3,0-0.4-0.1c-0.1-0.1-0.2-0.2-0.3-0.3
			l-6.4-8.9v8.5c0,0.2,0,0.4-0.2,0.5c-0.2,0.1-0.4,0.2-0.6,0.2h-1C151.9,325.7,151.7,325.6,151.6,325.5z"/>
		<path class="st2" d="M165.1,325.5c-0.1-0.1-0.2-0.3-0.2-0.5v-11.8c0-0.2,0-0.4,0.2-0.5c0.2-0.1,0.4-0.2,0.6-0.2h3.9
			c1.8-0.1,3.6,0.4,5,1.6c1.2,1,1.7,2.7,1.7,5c0,4.4-2.2,6.6-6.7,6.6h-3.9C165.4,325.7,165.2,325.6,165.1,325.5z M169.7,323.8
			c1.1,0.1,2.3-0.3,3.1-1.1c1.4-2.2,1.4-5,0-7.3c-0.8-0.8-2-1.1-3.1-1.1h-2.3v9.4H169.7z"/>
		<path class="st2" d="M179.3,325.7c-0.8-0.1-1.5-0.4-2.1-0.9c-0.2-0.1-0.2-0.2-0.2-0.3c0-0.1,0-0.2,0.1-0.2l0.6-1
			c0.1-0.1,0.1-0.2,0.2-0.2c0.1,0,0.2,0,0.2,0.1c0.5,0.3,1.1,0.5,1.7,0.7c0.6,0.2,1.3,0.3,1.9,0.3c0.7,0,1.4-0.1,2-0.4
			c0.7-0.6,0.9-1.6,0.4-2.3c-0.2-0.3-0.4-0.5-0.7-0.6c-0.5-0.3-1-0.5-1.6-0.7l-0.4-0.2c-0.7-0.3-1.4-0.6-2.1-1
			c-0.5-0.3-1-0.7-1.4-1.2c-1-1.5-0.6-3.5,0.8-4.6c1-0.7,2.3-1,3.5-1c0.8,0,1.6,0.1,2.3,0.2c0.6,0.1,1.2,0.4,1.7,0.8
			c0.1,0.1,0.2,0.2,0.2,0.3c0,0.1,0,0.2-0.1,0.2l-0.6,1c-0.1,0.1-0.1,0.2-0.2,0.2c-0.1,0-0.2-0.1-0.2-0.1c-0.9-0.6-2-0.8-3.1-0.8
			c-0.6,0-1.3,0.1-1.8,0.4c-0.4,0.3-0.7,0.9-0.6,1.4c0,0.3,0.1,0.7,0.3,1c0.2,0.3,0.5,0.5,0.8,0.6c0.5,0.3,1.1,0.5,1.6,0.7l0.5,0.2
			c0.8,0.3,1.5,0.6,2.2,1c0.5,0.3,0.9,0.7,1.2,1.2c0.3,0.6,0.5,1.2,0.4,1.8c0,1-0.4,2-1.2,2.6c-1,0.7-2.3,1.1-3.6,1
			C181.1,325.9,180.2,325.8,179.3,325.7z"/>
		<g>
			<defs>
				<path id="SVGID_1_" d="M52.3,43.3h127.1c13.5,0,24.4,10.9,24.4,24.4v189.6c0,13.5-10.9,24.4-24.4,24.4H52.3
					c-13.5,0-24.4-10.9-24.4-24.4V67.7C27.8,54.2,38.8,43.3,52.3,43.3z"/>
			</defs>
			<clipPath id="SVGID_2_">
				<use xlink:href="#SVGID_1_"  style="overflow:visible;"/>
			</clipPath>
			<g class="st3">
				<polygon class="st4" points="210.1,43.3 21.6,43.3 21.6,191.9 21.6,209.1 21.6,290.6 210,290.6 210,209.1 210.1,209.1 				"/>
				<rect x="54.5" y="83.9" class="st5" width="124.5" height="20.7"/>
				<path class="st4" d="M80.2,87.9H62.4c-0.5,0-0.9-0.4-0.9-0.9l0,0l0,0c0-0.5,0.4-0.9,0.9-0.9h0h17.8c0.5,0,0.9,0.4,0.9,0.9l0,0
					C81,87.5,80.6,87.9,80.2,87.9z"/>
				<path class="st4" d="M92.6,92.2H74.8c-0.5,0-0.9-0.4-0.9-0.9c0,0,0,0,0,0l0,0c0-0.5,0.4-0.9,0.9-0.9h17.8c0.5,0,0.9,0.4,0.9,0.9
					l0,0C93.5,91.8,93.1,92.2,92.6,92.2C92.6,92.2,92.6,92.2,92.6,92.2z"/>
				<path class="st4" d="M81.2,96.6H63.4c-0.5,0-0.9-0.4-0.9-0.9c0,0,0,0,0,0l0,0c0-0.5,0.4-0.9,0.9-0.9h0h17.8
					c0.5,0,0.9,0.4,0.9,0.9l0,0l0,0C82.1,96.2,81.7,96.6,81.2,96.6z"/>
				<path class="st4" d="M100.2,100.9H82.4c-0.5,0-0.9-0.4-0.9-0.9l0,0l0,0c0-0.5,0.4-0.9,0.9-0.9l0,0h17.8c0.5,0,0.9,0.4,0.9,0.9
					l0,0C101.1,100.5,100.7,100.9,100.2,100.9z"/>
				<path class="st4" d="M113.7,95.7H95.9c-0.5,0-0.9-0.4-0.9-0.9l0,0c0-0.5,0.4-0.9,0.9-0.9h17.8c0.5,0,0.9,0.4,0.9,0.9l0,0l0,0
					C114.6,95.3,114.2,95.7,113.7,95.7L113.7,95.7z"/>
				<path class="st4" d="M152.2,88.8h-17.8c-0.5,0-0.9-0.4-0.9-0.9c0,0,0,0,0,0l0,0c0-0.5,0.4-0.9,0.9-0.9h17.8
					c0.5,0,0.9,0.4,0.9,0.9l0,0C153.1,88.4,152.7,88.8,152.2,88.8z"/>
				<path class="st4" d="M146.7,95.7H129c-0.5,0-0.9-0.4-0.9-0.9l0,0c0-0.5,0.4-0.9,0.9-0.9h17.8c0.5,0,0.9,0.4,0.9,0.9l0,0
					C147.7,95.3,147.3,95.7,146.7,95.7C146.8,95.7,146.7,95.7,146.7,95.7z"/>
				<path class="st4" d="M125.6,89.7h-17.8c-0.5,0-0.9-0.4-0.9-0.9c0,0,0,0,0,0l0,0c0-0.5,0.4-0.9,0.9-0.9h17.8
					c0.5,0,0.9,0.4,0.9,0.9l0,0C126.5,89.3,126.1,89.7,125.6,89.7C125.6,89.7,125.6,89.7,125.6,89.7z"/>
				<path class="st4" d="M166.3,101.8h-17.8c-0.5,0-0.9-0.4-0.9-0.9c0,0,0,0,0,0l0,0c0-0.5,0.4-0.9,0.9-0.9h17.8
					c0.5,0,0.9,0.4,0.9,0.9l0,0C167.2,101.4,166.8,101.8,166.3,101.8z"/>
				<path class="st4" d="M173.9,95.7h-17.8c-0.5,0-0.9-0.4-0.9-0.9l0,0c0-0.5,0.4-0.9,0.9-0.9h17.8c0.5,0,0.9,0.4,0.9,0.9l0,0
					C174.7,95.3,174.3,95.7,173.9,95.7z"/>
				<path class="st4" d="M175.3,90.6h-17.8c-0.5,0-0.9-0.4-0.9-0.9l0,0c0-0.5,0.4-0.9,0.9-0.9h17.8c0.5,0,0.9,0.4,0.9,0.9l0,0
					C176.2,90.2,175.8,90.6,175.3,90.6z"/>
				<path class="st6" d="M-11.3,95.9h97.2c6.1,0,11,4.9,11,11v2.5c0,6.1-4.9,11-11,11h-97.2c-6.1,0-11-4.9-11-11v-2.5
					C-22.3,100.8-17.4,95.9-11.3,95.9z"/>
				<circle class="st6" cx="25.2" cy="89.9" r="30.4"/>
				<circle class="st6" cx="58.6" cy="98.7" r="21.7"/>
				<path class="st6" d="M153.6,116h86.1c6.1,0,11.1-5,11.1-11.1l0,0c0-6.1-5-11.1-11.1-11.1h-86.1c-6.1,0-11.1,5-11.1,11.1
					c0,0,0,0,0,0l0,0C142.5,111,147.4,116,153.6,116z"/>
				
					<ellipse transform="matrix(0.3827 -0.9239 0.9239 0.3827 46.4459 246.335)" class="st6" cx="207.6" cy="88.4" rx="27.6" ry="27.6"/>
				<circle class="st6" cx="177.2" cy="96.3" r="19.7"/>
				<rect x="24.6" y="102.6" class="st7" width="181.3" height="187.8"/>
				<polygon class="st8" points="90.5,266.2 90,290.2 27.8,284.9 26.4,240.4 				"/>
				<path class="st8" d="M23.8,115.2c17.2-4.7,37.1-8.1,54.7-4.7c2.6,0.5,5.2,1.2,7.7,2.1c2.4,1,5.2,3.7,3.3,6.6
					c-0.5,0.8-1.4,1.3-1.5,2.3c-0.4,3.1,5.5,2.8,7.2,3.2c5.1,1,9.1,4.5,10.2,9.7c1,4.7,0,10.4-4.2,13.3c-5.4,3.7-13,0.9-19,1.4
					c-13.9,0.9-27.9,1.8-41.8,1.4c-2.2-0.1-16.5,0.4-16.5-3.6L23.8,115.2z"/>
				<polygon class="st9" points="-21.2,99 -21.4,96.9 -21.5,97.6 -22,96.5 -22.2,97.6 -22.9,95 -22.4,99.1 -20.3,124.1 -19.2,124 
									"/>
				<polygon class="st9" points="-59.8,131.7 -67.5,115 -69.1,111.2 -68.4,113.7 -69.2,112.9 -69,114.1 -69.5,113.6 -68.6,115.5 
					-61.1,131.6 -58.1,138.3 -57,137.8 				"/>
				<polygon class="st9" points="-51.7,141.8 -52.5,129.6 -52.9,123.3 -52.9,116.8 -53.4,120.9 -54.1,119.3 -54.5,121.1 
					-54.9,120.1 -54.7,123.4 -54.2,130.6 -53.6,141.5 -52.2,162.5 -50.4,162.4 				"/>
				<polygon class="st9" points="-19.7,139.5 -28.2,130 -30,127.9 -30.3,127.6 -32.1,125.6 -32.7,125 -33.8,123.7 -35.6,121.6 
					-37.4,119.7 -41,115.6 -43.2,113.2 -42.7,114.2 -44.3,113.2 -43.6,114.8 -46.9,112.3 -42.3,116.8 -38.9,120.7 -34.1,126.1 
					-34.8,126.6 -33.9,126.3 -29.8,131 -22.7,138.9 -16.3,146.1 -14.9,144.9 				"/>
				<polygon class="st8" points="80.6,206.2 52.3,281.7 225,285.5 192,206.2 173.2,194.2 152.8,189.5 118.3,188.9 99.4,192.8 				
					"/>
				<polygon class="st10" points="60.3,112 61.3,112 61.2,111.8 				"/>
				<path class="st11" d="M89,140.8c-0.8-1.1-0.7-2.7,0.3-3.7l-0.2,0.1c-1.3,0.9-1.6,2.7-0.7,4s2.7,1.6,4,0.7
					c0.1-0.1,0.3-0.2,0.4-0.3C91.5,142.3,89.9,142,89,140.8z"/>
				<path class="st9" d="M34.3,88.4l0.1-4.2L34,86.8l-0.4-1.1L33.3,87L33,86.3l0.1,2.1l0.7,18c0.4,0.2,0.8,0.4,1.2,0.6L34.3,88.4z"
					/>
				<polygon class="st9" points="83.9,91.5 84.5,89.5 84.1,90 84.1,88.8 83.4,89.7 83.8,87.1 82.7,91.1 74.9,115.3 76,115.7 				"/>
				<path class="st12" d="M89.6,136.8c-0.1,0.1-0.3,0.2-0.4,0.3c1.4-0.8,3.1-0.3,3.9,1.1c0.6,1.1,0.4,2.5-0.4,3.4
					c0.1,0,0.2-0.1,0.2-0.1c1.3-0.9,1.6-2.7,0.7-4S90.9,135.8,89.6,136.8z"/>
				<path class="st12" d="M93,137.9c-0.9-1-2.5-1.1-3.5-0.1c-1,0.9-1.1,2.5-0.1,3.5c0.9,1,2.3,1.1,3.4,0.3
					C93.7,140.6,93.8,139.1,93,137.9z M92.5,139.4c-0.2,0.2-0.5,0.1-0.7-0.1l-0.8-1.2c-0.1-0.2,0-0.6,0.2-0.7
					c0.2-0.1,0.5-0.1,0.6,0.1l0.8,1.2C92.8,138.9,92.8,139.3,92.5,139.4C92.6,139.4,92.6,139.4,92.5,139.4L92.5,139.4z"/>
				<path class="st13" d="M91.8,137.5c-0.2-0.2-0.5-0.2-0.7,0c-0.2,0.2-0.2,0.4-0.1,0.6l0.8,1.2c0.2,0.2,0.5,0.3,0.7,0.1
					c0.2-0.2,0.3-0.5,0.1-0.7c0,0,0,0,0,0L91.8,137.5z"/>
				<path class="st9" d="M30.1,138.8l1.7,0.6l6.8-19.7c-0.6-0.3-1.1-0.6-1.6-1L30.1,138.8z"/>
				<path class="st9" d="M42.7,107.9l2.1-6.1l2.5-6l-2.1,3.7v-1.8l-1.1,1.6v-1.1l-1.1,3.2l-2.4,7c0.5,0,0.9-0.1,1.4-0.2L42.7,107.9z
					"/>
				<polygon class="st9" points="65.2,117.7 63.4,118 66.9,128.2 69.4,130 				"/>
				<polygon class="st9" points="64.3,115.1 64.2,114.6 63.9,115 				"/>
				<polygon class="st9" points="60.7,104.5 58.9,99.3 57.8,96.2 57.8,97.3 56.7,95.8 56.7,97.6 54.7,93.9 57.2,99.9 58.8,104.8 
					60,104.6 				"/>
				<polygon class="st9" points="62.4,109.6 61.5,107 60.4,109 				"/>
				<polygon class="st9" points="61.3,112 63.3,112.1 63,111.3 61.2,111.8 				"/>
				<path class="st12" d="M106.7,118.8l-3.5-2.4c-1.1-0.5-2.4-0.2-3,0.9c-22.6,19.1-27.3,14.9-27.9,14.6c-0.2-0.1-0.5-0.3-0.7-0.4
					l-2.2-1.4l2.4,6.9l-1.7,0.6l-3.2-9.2l-0.5-0.3l-10.5-4.3l1.4,6.5l-5.2-3.2l4,4.3l-3.4,0.5l5.4,7.2l4.2,2.9
					c5.9,4.1,10.7,3.5,17.2-1.9l0,0l0,0l0.3-0.2l5.5-4.7c0.1-0.1,0.2-0.1,0.3-0.2l15-13.8l3.3,2.3c1.1,0.6,2.5,0.1,3.1-1
					C107.8,121.2,107.7,119.7,106.7,118.8z"/>
				<polygon class="st12" points="71.8,136.9 69.4,130 66.9,128.2 70.1,137.5 				"/>
				<path class="st12" d="M35,107l0.2,6.8h-1.2l-0.3-7.4c-2-1.1-3.7-2.6-5.1-4.3c0.4-0.7,0.5-1.5,0.4-2.2c-0.3-1.4-1.4-2.4-2.4-2.2
					l-3.8,0.7c-1,0.2-1.6,1.5-1.3,2.9s1.4,2.4,2.4,2.2l3.3-0.6c0,0,0,0.1,0,0.1c1.5,6.9,5.3,12.6,9.8,15.8l3.6-10.5
					C38.7,108.3,36.8,107.9,35,107z"/>
				<polygon class="st12" points="65.7,112.3 63.3,112.1 64.2,114.6 				"/>
				<polygon class="st12" points="65.8,110.6 62.4,109.6 63,111.3 				"/>
				<polygon class="st12" points="72.1,116.4 64.3,115.1 65.2,117.7 				"/>
				<path class="st12" d="M60.3,112l0.9-0.2l-2.4-6.9l-3.5,0.7l-12.7,2.4l-4,11.7c2.5,1.5,5.5,2,8.3,1.5l16.4-3.1l-2.1-6H60.3z"/>
				<polygon class="st12" points="63.2,104 60.7,104.5 61.5,107 				"/>
				<path class="st12" d="M35.2,113.8L35,107c-0.4-0.2-0.8-0.4-1.2-0.6l0.3,7.4H35.2z"/>
				<path class="st12" d="M42,108c-0.5,0.1-0.9,0.1-1.4,0.2L37,118.6c0.5,0.4,1,0.7,1.6,1l4-11.7L42,108z"/>
				<polygon class="st12" points="63,111.3 62.4,109.6 60.4,109 61.5,107 60.7,104.5 60,104.6 58.8,104.8 61.2,111.8 				"/>
				<polygon class="st12" points="64.3,115.1 63.9,115 64.2,114.6 63.3,112.1 61.3,112 63.4,118 65.2,117.7 				"/>
				<polygon class="st14" points="109.4,232.1 96.5,287.8 169.2,287.8 160,228.3 				"/>
				<path class="st15" d="M83,151.8h1.8c1.3,0,2.4,1.1,2.4,2.4v52c0,1.3-1.1,2.4-2.4,2.4H83c-1.3,0-2.4-1.1-2.4-2.4v-52
					C80.6,152.9,81.7,151.8,83,151.8z"/>
				<path class="st11" d="M83.9,123.6h0.2c-2.7,2.6-2.8,6.8-0.2,9.5c1.3,1.3,3,2.1,4.8,2.1c1.8,0,3.5-0.7,4.7-2
					c0.1,0.8,0.2,1.7,0.2,2.6c0,6.8-4.4,12.2-9.8,12.2s-9.8-5.5-9.8-12.2S78.5,123.6,83.9,123.6z"/>
				<path class="st16" d="M80.4,135.8L80.4,135.8c0,3,2.3,5.5,5.3,5.5c0.5,0,1-0.1,1.5-0.2c-0.3,2.6-2.1,4.5-4.2,4.5
					c-2.4,0-4.3-2.4-4.3-5.4C78.6,138.5,79.2,136.9,80.4,135.8z"/>
				<path class="st15" d="M98.8,141.6h1.7c1.3,0,2.4,1.1,2.4,2.4v51.2c0,1.3-1.1,2.4-2.4,2.4h-1.7c-1.3,0-2.4-1.1-2.4-2.4V144
					C96.3,142.7,97.4,141.6,98.8,141.6z"/>
				<path class="st11" d="M99.6,113.8h0.2c-2.6,2.6-2.7,6.8-0.1,9.4c2.6,2.6,6.8,2.7,9.4,0.1l0,0c0.1,0.8,0.2,1.7,0.2,2.5
					c0,6.7-4.3,12.1-9.7,12.1s-9.7-5.4-9.7-12.1S94.2,113.8,99.6,113.8z"/>
				<path class="st16" d="M96.2,125.8C96.2,125.8,96.2,125.9,96.2,125.8c0,3.1,2.4,5.4,5.4,5.4l0,0c0.5,0,0.9-0.1,1.3-0.2
					c-0.3,2.5-2.1,4.4-4.2,4.4c-2.4,0-4.3-2.4-4.3-5.3C94.3,128.5,95,126.9,96.2,125.8z"/>
				<path class="st15" d="M118.1,133.8h1.7c1.3,0,2.4,1.1,2.4,2.4v50.8c0,1.3-1.1,2.4-2.4,2.4h-1.7c-1.3,0-2.4-1.1-2.4-2.4v-50.8
					C115.6,134.9,116.7,133.8,118.1,133.8z"/>
				<path class="st11" d="M118.9,106.3h0.2c-2.7,2.5-2.8,6.7-0.4,9.3s6.7,2.8,9.3,0.4c0.1-0.1,0.2-0.2,0.2-0.2
					c0.1,0.8,0.2,1.7,0.2,2.5c0,6.6-4.3,12-9.6,12s-9.6-5.4-9.6-12S113.6,106.3,118.9,106.3z"/>
				<path class="st16" d="M115.5,118.2C115.5,118.2,115.5,118.3,115.5,118.2c0,3,2.4,5.4,5.3,5.4c0.4,0,0.9-0.1,1.3-0.2
					c-0.3,2.5-2.1,4.4-4.2,4.4c-2.3,0-4.2-2.4-4.2-5.3C113.7,120.9,114.3,119.3,115.5,118.2z"/>
				<path class="st15" d="M94.7,183.4H97c1.3,0,2.4,1.1,2.4,2.4v55.8c0,1.3-1.1,2.4-2.4,2.4h-2.3c-1.3,0-2.4-1.1-2.4-2.4v-55.8
					C92.2,184.5,93.3,183.4,94.7,183.4z"/>
				<path class="st11" d="M95.8,153.4h0.2c-3,2.6-3.4,7.1-0.8,10.1c2.6,3,7.1,3.4,10.1,0.8c0.2-0.2,0.5-0.4,0.7-0.6
					c0.2,0.9,0.2,1.8,0.2,2.7c0,7.2-4.7,13.1-10.5,13.1s-10.5-5.9-10.5-13.1S90,153.4,95.8,153.4z"/>
				<path class="st16" d="M92.1,166.4c0,0,0,0.1,0,0.1c0,3.2,2.6,5.8,5.8,5.8c0.5,0,1-0.1,1.5-0.2c-0.4,2.7-2.3,4.8-4.6,4.8
					c-2.6,0-4.7-2.6-4.7-5.8C90.1,169.3,90.8,167.6,92.1,166.4z"/>
				<path class="st15" d="M189.5,208.6h-1.8c-1.3,0-2.4-1.1-2.4-2.4v-52c0-1.3,1.1-2.4,2.4-2.4h1.8c1.3,0,2.4,1.1,2.4,2.4v52
					C192,207.5,190.9,208.6,189.5,208.6z"/>
				<path class="st11" d="M188.6,123.6h-0.2c2.7,2.6,2.8,6.8,0.2,9.5c-1.3,1.3-3,2.1-4.8,2.1c-1.8,0-3.5-0.7-4.7-2
					c-0.1,0.8-0.2,1.7-0.2,2.6c0,6.8,4.4,12.2,9.8,12.2s9.8-5.5,9.8-12.2S194,123.6,188.6,123.6z"/>
				<path class="st16" d="M192.1,135.8L192.1,135.8c0,3-2.3,5.5-5.3,5.5c-0.5,0-1-0.1-1.5-0.2c0.4,2.6,2.1,4.5,4.3,4.5
					c2.4,0,4.3-2.4,4.3-5.4C194,138.5,193.3,136.9,192.1,135.8z"/>
				<path class="st15" d="M173.8,197.7h-1.7c-1.3,0-2.4-1.1-2.4-2.4V144c0-1.3,1.1-2.4,2.4-2.4h1.7c1.3,0,2.4,1.1,2.4,2.4v51.2
					C176.2,196.6,175.1,197.7,173.8,197.7z"/>
				<path class="st11" d="M172.9,113.8h-0.2c2.6,2.6,2.7,6.8,0.1,9.4c-2.6,2.6-6.8,2.7-9.4,0.1c-0.1,0.8-0.2,1.7-0.2,2.5
					c0,6.7,4.4,12.1,9.7,12.1s9.7-5.4,9.7-12.1S178.3,113.8,172.9,113.8z"/>
				<path class="st16" d="M176.4,125.8L176.4,125.8c0,3.1-2.4,5.4-5.4,5.4l0,0c-0.5,0-0.9-0.1-1.3-0.2c0.4,2.5,2.1,4.4,4.2,4.4
					c2.4,0,4.3-2.4,4.3-5.3C178.3,128.5,177.6,126.9,176.4,125.8z"/>
				<path class="st15" d="M154.5,189.5h-1.7c-1.3,0-2.4-1.1-2.4-2.4v-50.8c0-1.3,1.1-2.4,2.4-2.4h1.7c1.3,0,2.4,1.1,2.4,2.4V187
					C156.9,188.4,155.8,189.5,154.5,189.5z"/>
				<path class="st11" d="M153.6,106.3h-0.2c2.7,2.5,2.8,6.7,0.4,9.3s-6.7,2.8-9.3,0.4c-0.1-0.1-0.2-0.2-0.2-0.2
					c-0.1,0.8-0.2,1.7-0.2,2.5c0,6.6,4.3,12,9.6,12s9.6-5.4,9.6-12S158.9,106.3,153.6,106.3z"/>
				<path class="st16" d="M157.1,118.2L157.1,118.2c0,3-2.4,5.4-5.3,5.4c-0.4,0-0.9-0.1-1.3-0.2c0.3,2.5,2.1,4.4,4.2,4.4
					c2.4,0,4.3-2.4,4.3-5.3C158.9,120.9,158.2,119.3,157.1,118.2z"/>
				<path class="st15" d="M180.3,213.8V185c0-0.9-0.7-1.6-1.6-1.6h-3.9c-0.9,0-1.6,0.7-1.6,1.6v57.5c0,0.9,0.7,1.6,1.6,1.6h0h3.9
					c0.9,0,1.6-0.7,1.6-1.6v0V213.8"/>
				<path class="st11" d="M176.7,153.4h-0.2c3,2.6,3.4,7.1,0.8,10.1s-7.1,3.4-10.1,0.8c-0.2-0.2-0.5-0.4-0.7-0.6
					c-0.2,0.9-0.2,1.8-0.2,2.7c0,7.2,4.7,13.1,10.5,13.1s10.5-5.9,10.5-13.1S182.5,153.4,176.7,153.4z"/>
				<path class="st16" d="M180.5,166.4v0.1c0,3.2-2.6,5.8-5.8,5.8c-0.5,0-1-0.1-1.5-0.2c0.4,2.7,2.3,4.8,4.6,4.8
					c2.6,0,4.6-2.6,4.6-5.8C182.5,169.3,181.8,167.6,180.5,166.4z"/>
				<path class="st16" d="M147,236.4l-0.5-0.5c-0.3-0.3-0.6-0.5-1-0.6l-2.2-0.5V219c0-1.7-1.3-3-3-3s-3,1.3-3,3v15.3
					c-0.4,0.3-0.7,0.9-0.7,1.4v2c0,1,0.8,1.8,1.8,1.8h7.2c1,0.1,1.8-0.7,1.9-1.7C147.6,237.3,147.4,236.8,147,236.4z"/>
				<path class="st16" d="M131.1,234.3V219c0-1.7-1.3-3-3-3c-1.7,0-3,1.3-3,3v16l-2.2,0.5c-0.4,0.1-0.7,0.3-1,0.6l-0.5,0.5
					c-0.7,0.7-0.6,1.9,0.1,2.5c0.3,0.3,0.7,0.5,1.2,0.5h7.2c1,0,1.8-0.8,1.8-1.8v-2C131.8,235.2,131.6,234.6,131.1,234.3z"/>
				<rect x="119.5" y="149" class="st15" width="28.6" height="49.9"/>
				<path class="st16" d="M134.4,187L134.4,187c1.9,0,3.5-1.6,3.5-3.5V179c0-1.9-1.6-3.5-3.5-3.5l0,0c-1.9,0-3.5,1.6-3.5,3.5v4.6
					C131,185.5,132.5,187,134.4,187z"/>
				<path class="st16" d="M143,166.1c0,1.9,1.5,3.4,3.4,3.4s3.4-1.5,3.4-3.4s-1.5-3.4-3.4-3.4c0,0,0,0,0,0
					C144.5,162.7,143,164.2,143,166.1C143,166.1,143,166.1,143,166.1z"/>
				<path class="st17" d="M144.8,166.1c0,0.9,0.7,1.7,1.7,1.7s1.7-0.7,1.7-1.7s-0.7-1.7-1.7-1.7l0,0
					C145.5,164.4,144.8,165.2,144.8,166.1z"/>
				<path class="st16" d="M117.7,166.1c0,1.9,1.5,3.4,3.4,3.4c1.9,0,3.4-1.5,3.4-3.4c0-1.9-1.5-3.4-3.4-3.4
					C119.3,162.7,117.7,164.2,117.7,166.1C117.7,166.1,117.7,166.1,117.7,166.1z"/>
				<path class="st17" d="M119.5,166.1c0,0.9,0.7,1.7,1.7,1.7s1.7-0.7,1.7-1.7c0-0.9-0.7-1.7-1.7-1.7l0,0
					C120.2,164.4,119.5,165.2,119.5,166.1z"/>
				<path class="st17" d="M133.8,178.7L133.8,178.7c6.9,0,12.4-5.6,12.4-12.4v-2.1c0-6.9-5.6-12.4-12.4-12.4l0,0
					c-6.9,0-12.4,5.6-12.4,12.4v2.1C121.4,173.1,126.9,178.7,133.8,178.7z"/>
				<path class="st16" d="M146.4,160.4v5.4c0,6.4-5.7,11.6-12.6,11.6l0,0c-7,0-12.6-5.2-12.6-11.6v-5.4c0-1,0.1-2,0.4-3H146
					C146.3,158.4,146.4,159.4,146.4,160.4z"/>
				<path class="st13" d="M139.1,166.7L139.1,166.7c0.7,0,1.3-0.6,1.3-1.3v-2.2c0-0.7-0.6-1.3-1.3-1.3l0,0c-0.7,0-1.3,0.6-1.3,1.3
					v2.2C137.9,166.1,138.4,166.7,139.1,166.7z"/>
				<path class="st13" d="M128.4,166.7L128.4,166.7c0.7,0,1.3-0.6,1.3-1.3v-2.2c0-0.7-0.6-1.3-1.3-1.3l0,0c-0.7,0-1.3,0.6-1.3,1.3
					v2.2C127.2,166.1,127.7,166.7,128.4,166.7z"/>
				<path class="st17" d="M135.4,165.7c0-0.2-0.1-0.3-0.2-0.5c-0.1-0.2-0.2-0.3-0.3-0.4c-0.3-0.3-0.7-0.4-1.1-0.4
					c-0.5,0-0.9,0.2-1.2,0.5c-0.2,0.2-0.4,0.5-0.5,0.8c0,0.2,0.1,0.3,0.2,0.4c0,0,0.1,0,0.1,0h0.6h2h0.1
					C135.3,166.1,135.4,165.9,135.4,165.7C135.5,165.7,135.5,165.7,135.4,165.7z"/>
				<path class="st17" d="M134,171.5"/>
				<polygon class="st10" points="130.9,171.4 130.9,171.4 130.9,171.4 				"/>
				<path class="st18" d="M144.5,185.7c-0.9-0.7-1.9-1.2-2.9-1.7l-0.5-0.2l-5.5,7.3l-7.2-7.6c-1.4,0.6-2.7,1.3-3.9,2.2
					c-4.2,3.1-6.6,8.1-6.6,13.3v39.6h33.3V199C151.1,193.8,148.7,188.8,144.5,185.7z"/>
				<path class="st16" d="M141.1,183.8c-4-1.8-8.6-1.9-12.8-0.2l7.2,7.6L141.1,183.8z"/>
				<polygon class="st12" points="135.6,191.1 151.1,208.7 136.5,189.9 				"/>
				<circle class="st15" cx="125.8" cy="154.7" r="8.2"/>
				<path class="st15" d="M134.1,157.9h10.8c1.8,0,3.2-1.4,3.2-3.2l0,0c0-1.8-1.4-3.2-3.2-3.2h-10.8c-1.8,0-3.2,1.4-3.2,3.2l0,0
					C130.9,156.5,132.4,157.9,134.1,157.9z"/>
				<path class="st15" d="M123.2,154.9H146c2.9,0,5.3-2.4,5.3-5.3l0,0c0-2.9-2.4-5.3-5.3-5.3h-22.8c-2.9,0-5.3,2.4-5.3,5.3l0,0
					C117.9,152.5,120.3,154.8,123.2,154.9z"/>
				<path class="st15" d="M138.2,161.1l3.2,0.9c0.4,0.1,0.9-0.1,1-0.6l0,0c0.1-0.4-0.1-0.9-0.6-1l-3.2-0.9c-0.4-0.1-0.9,0.1-1,0.6
					l0,0C137.5,160.5,137.7,161,138.2,161.1z"/>
				<path class="st15" d="M142.2,157c0,3.2,2.6,5.9,5.9,5.9s5.9-2.6,5.9-5.9s-2.6-5.9-5.9-5.9S142.2,153.8,142.2,157L142.2,157z"/>
				<path class="st15" d="M132.4,146.1c0,3.9,3.2,7.1,7.1,7.1c3.9,0,7.1-3.2,7.1-7.1c0-3.9-3.2-7.1-7.1-7.1
					C135.6,139,132.4,142.2,132.4,146.1C132.4,146.1,132.4,146.1,132.4,146.1z"/>
				<path class="st15" d="M123.9,146.5c0,2.8,2.2,5,4.9,5c2.8,0,5-2.2,5-4.9s-2.2-5-4.9-5c0,0,0,0,0,0
					C126.1,141.5,123.9,143.7,123.9,146.5C123.9,146.4,123.9,146.5,123.9,146.5z"/>
				<path class="st16" d="M126.1,148.4c2.9,0,5.5-2,6.9-5c0.3-0.6,1-0.9,1.7-0.6c0.3,0.1,0.5,0.3,0.6,0.6c1.4,3,4,5,6.9,5
					c1.7,0,3.4-0.7,4.6-1.9c0.2-0.2,0.6-0.2,0.8,0c0.1,0.1,0.2,0.3,0.2,0.4v4c0,2.2-1.4,4-3.1,4h-21.4c-1.7,0-3.1-1.8-3.1-4v-4.4
					c0-0.3,0.3-0.6,0.6-0.6c0.1,0,0.3,0.1,0.4,0.2C122.4,147.6,124.2,148.3,126.1,148.4z"/>
				<path class="st17" d="M121.1,158H147c0.9,0,1.7-0.8,1.7-1.7l0,0l0,0c0-0.9-0.7-1.7-1.7-1.7c0,0,0,0,0,0h-25.9
					c-0.9,0-1.7,0.8-1.7,1.7l0,0C119.4,157.2,120.1,158,121.1,158C121.1,158,121.1,158,121.1,158z"/>
				<path class="st13" d="M139.1,163.1c0,0.2,0.2,0.4,0.4,0.4s0.4-0.2,0.4-0.4c0-0.2-0.2-0.4-0.4-0.4c0,0,0,0,0,0
					C139.3,162.7,139.1,162.9,139.1,163.1z"/>
				<path class="st13" d="M132.1,169.5c-0.8,0-1.4,0.6-1.4,1.4c0,0.2,0,0.4,0.1,0.5h-2.1c0-2.1,1.8-3.7,3.8-3.7
					c1.3,0,2.5,0.7,3.2,1.8c-0.1,0-0.2,0-0.3,0L132.1,169.5z"/>
				<path class="st19" d="M130.7,171.4c-0.1-0.2-0.1-0.3-0.1-0.5c0-0.8,0.6-1.4,1.4-1.4h3.3c0.1,0,0.2,0,0.3,0
					c0.3,0.6,0.5,1.2,0.5,1.9L130.7,171.4z"/>
				<path class="st17" d="M118,195.1c-0.4,0-0.8-0.1-1.2-0.3c-6.9-3-10.6-6.9-10.8-11.5c-0.4-7.8,9.4-13.7,10.5-14.3
					c1.5-0.9,3.4-0.3,4.3,1.2s0.3,3.4-1.2,4.3l0,0c-2.5,1.4-7.6,5.4-7.4,8.6c0.1,2,2.6,4.2,7.1,6.1c1.6,0.7,2.3,2.5,1.7,4.1
					C120.4,194.3,119.3,195.1,118,195.1L118,195.1z"/>
				<path class="st17" d="M118.9,174.4L118.9,174.4c-1.3,0-2.4-1.1-2.4-2.4v-6.6c0-1.3,1.1-2.4,2.4-2.4l0,0c1.3,0,2.4,1.1,2.4,2.4
					v6.6C121.3,173.3,120.2,174.4,118.9,174.4z"/>
				<path class="st9" d="M118,193.5c-0.4,0-0.8-0.1-1.2-0.3c-6.9-3-10.6-6.9-10.8-11.5c-0.4-7.8,9.4-13.7,10.5-14.3
					c1.5-0.8,3.4-0.2,4.2,1.4c0.7,1.4,0.3,3.2-1.1,4.1l0,0c-2.5,1.4-7.6,5.4-7.4,8.6c0.1,2,2.6,4.2,7.1,6.1c1.6,0.7,2.3,2.5,1.7,4.1
					C120.4,192.8,119.3,193.5,118,193.5L118,193.5z"/>
				<path class="st9" d="M118.9,172.9L118.9,172.9c-1.3,0-2.4-1.1-2.4-2.4v-6.6c0-1.3,1.1-2.4,2.4-2.4l0,0c1.3,0,2.4,1.1,2.4,2.4
					v6.6C121.3,171.8,120.2,172.9,118.9,172.9z"/>
				<path class="st17" d="M149.6,194.8c0.4,0,0.9-0.1,1.2-0.3c6.9-3,10.6-6.9,10.8-11.5c0.4-7.8-9.4-13.7-10.5-14.3
					c-1.5-0.8-3.4-0.2-4.2,1.4c-0.7,1.4-0.3,3.2,1.1,4.1l0,0c2.5,1.4,7.6,5.4,7.4,8.6c-0.1,2-2.6,4.2-7.1,6.1
					c-1.6,0.7-2.3,2.5-1.6,4.1C147.2,194,148.3,194.8,149.6,194.8z"/>
				<path class="st17" d="M148.7,174.1L148.7,174.1c1.3,0,2.4-1.1,2.4-2.4v-6.6c0-1.3-1.1-2.4-2.4-2.4l0,0c-1.3,0-2.4,1.1-2.4,2.4
					v6.6C146.3,173,147.4,174.1,148.7,174.1z"/>
				<path class="st9" d="M149.6,193.5c0.4,0,0.9-0.1,1.2-0.3c6.9-3,10.6-6.9,10.8-11.5c0.4-7.8-9.4-13.7-10.5-14.3
					c-1.5-0.8-3.4-0.2-4.2,1.4c-0.7,1.4-0.3,3.2,1.1,4.1l0,0c2.5,1.4,7.6,5.4,7.4,8.6c-0.1,2-2.6,4.2-7.1,6.1
					c-1.6,0.7-2.3,2.5-1.7,4.1C147.1,192.7,148.3,193.5,149.6,193.5L149.6,193.5z"/>
				<path class="st9" d="M148.7,172.9L148.7,172.9c1.3,0,2.4-1.1,2.4-2.4v-6.6c0-1.3-1.1-2.4-2.4-2.4l0,0c-1.3,0-2.4,1.1-2.4,2.4
					v6.6C146.3,171.8,147.3,172.9,148.7,172.9z"/>
				<circle class="st12" cx="117.9" cy="190.3" r="7.9"/>
				<path class="st18" d="M156.8,252.3h-44l-4-24c0.1-13.2,10.7-23.8,23.9-23.9h3.5c13.2,0.1,23.8,10.7,23.9,23.9L156.8,252.3z"/>
				<path class="st12" d="M118.4,211.7h32.3c1.1,0,2-0.9,2-2l0,0c0-1.1-0.9-2-2-2h-32.3c-1.1,0-2,0.9-2,2l0,0
					C116.4,210.8,117.3,211.7,118.4,211.7z"/>
				<circle class="st12" cx="150.9" cy="189.1" r="8.3"/>
				<path class="st15" d="M117.8,209.1h2.3c1.3,0,2.4,1.1,2.4,2.4v55.9c0,1.3-1.1,2.4-2.4,2.4h-2.3c-1.3,0-2.4-1.1-2.4-2.4v-55.9
					C115.4,210.2,116.5,209.1,117.8,209.1z"/>
				<path class="st11" d="M118.9,179.1h0.2c-3,2.6-3.4,7.1-0.8,10.1c2.6,3,7.1,3.4,10.1,0.8c0.2-0.2,0.5-0.4,0.7-0.6
					c0.2,0.9,0.2,1.8,0.2,2.7c0,7.2-4.7,13.1-10.5,13.1s-10.5-5.9-10.5-13.1S113.1,179.1,118.9,179.1z"/>
				<path class="st16" d="M115.2,192v0.1c0,3.2,2.6,5.8,5.8,5.8c0.5,0,1-0.1,1.5-0.2c-0.4,2.7-2.3,4.8-4.6,4.8
					c-2.6,0-4.6-2.6-4.6-5.8C113.2,194.9,113.9,193.2,115.2,192z"/>
				<path class="st15" d="M151.5,269.8h-2.3c-1.3,0-2.4-1.1-2.4-2.4v-55.9c0-1.3,1.1-2.4,2.4-2.4h2.3c1.3,0,2.4,1.1,2.4,2.4v55.9
					C154,268.7,152.9,269.8,151.5,269.8z"/>
				<path class="st11" d="M150.4,179.1h-0.2c3,2.6,3.4,7.1,0.8,10.1c-2.6,3-7.1,3.4-10.1,0.8c-0.2-0.2-0.5-0.4-0.7-0.6
					c-0.2,0.9-0.2,1.8-0.2,2.7c0,7.2,4.7,13.1,10.5,13.1s10.5-5.9,10.5-13.1S156.2,179.1,150.4,179.1z"/>
				<path class="st16" d="M154.2,192v0.1c0,3.2-2.6,5.8-5.8,5.8c-0.5,0-1-0.1-1.5-0.2c0.4,2.7,2.3,4.8,4.6,4.8
					c2.6,0,4.6-2.6,4.6-5.8C156.2,194.9,155.5,193.2,154.2,192z"/>
				<path class="st20" d="M10.1,218.3l1.7-2.7c3.7-5.9,11.5-7.7,17.5-4l41.6,26c5.9,3.7,7.7,11.5,4,17.5l-1.7,2.7
					c-3.7,5.9-11.5,7.7-17.5,4l-41.6-26C8.2,232,6.4,224.2,10.1,218.3z"/>
				<path class="st12" d="M58.3,245.3c3.1,1.9,7.2,1,9.1-2.1c1.9-3.1,1-7.2-2.1-9.1c-3.1-1.9-7.2-1-9.1,2.1
					C54.3,239.2,55.2,243.3,58.3,245.3C58.3,245.3,58.3,245.3,58.3,245.3z"/>
				<path class="st12" d="M51.6,249.8c3.1,1.9,7.2,1,9.1-2.1s1-7.2-2.1-9.1c-3.1-1.9-7.2-1-9.1,2.1
					C47.5,243.8,48.5,247.9,51.6,249.8C51.6,249.8,51.6,249.8,51.6,249.8z"/>
				<path class="st12" d="M49.5,258.4c3.1,1.9,7.2,1,9.2-2.1c1.9-3.1,1-7.2-2.1-9.2s-7.2-1-9.2,2.1c0,0,0,0,0,0
					C45.4,252.4,46.4,256.5,49.5,258.4C49.5,258.4,49.5,258.4,49.5,258.4z"/>
				<path class="st20" d="M68,265.7c-3.1,0.8-3.7,3.9-4.4,7.5s-1.6,6.7,0.9,8.7c1.3-0.3,2.6-1,3.6-1.9c-0.3,0.1-0.6,0.2-0.9,0.3
					c-1.9-1.5-1.4-3.8-0.8-6.5s1.1-5,3.4-5.5c0.2,0.2,0.5,0.4,0.7,0.6C69.9,267.6,69.1,266.5,68,265.7z"/>
				<path class="st11" d="M66.4,273.9c-0.6,2.7-1.1,5,0.8,6.5c0.3-0.1,0.6-0.2,0.9-0.3c3.1-2.8,4.1-7.3,2.4-11.1
					c-0.2-0.2-0.4-0.4-0.7-0.6C67.5,268.9,67,271.2,66.4,273.9z"/>
				<path class="st20" d="M78.7,248.7c-0.7-3.1,1.9-5,4.8-7.3s5.3-4.4,8.2-3c0.3,1.3,0.2,2.7-0.1,4c0-0.3-0.1-0.6-0.1-0.9
					c-2.1-1-4,0.4-6.2,2.1s-4,3.2-3.5,5.5c0.3,0.1,0.5,0.2,0.8,0.3C81.3,249.5,79.9,249.2,78.7,248.7z"/>
				<path class="st11" d="M85.3,243.6c2.2-1.7,4-3.2,6.2-2.1c0.1,0.3,0.1,0.6,0.1,0.9c-1.2,4-4.8,6.9-9,7.1
					c-0.3-0.1-0.6-0.2-0.8-0.3C81.3,246.8,83.1,245.4,85.3,243.6z"/>
				<path class="st9" d="M80.4,271.6L69.1,270c-5.2-0.8-8.8-5.6-8-10.8c0.2-1.3,0.6-2.5,1.3-3.7l4.9-7.8c2.8-4.5,8.7-5.9,13.1-3.1
					c1.1,0.7,2.1,1.6,2.9,2.7l6.5,9.5c3,4.4,1.8,10.3-2.6,13.2C85.2,271.4,82.8,272,80.4,271.6z"/>
				<path class="st20" d="M68.6,249.9c4.4,2.8,10.3,1.5,13.1-3c2.8-4.4,1.5-10.3-3-13.1c-4.4-2.8-10.3-1.5-13.1,3c0,0,0,0,0,0.1
					C62.9,241.3,64.2,247.1,68.6,249.9z"/>
				<path class="st20" d="M55.1,271.5c4.4,2.8,10.3,1.4,13.1-3c2.8-4.4,1.4-10.3-3-13.1c-4.4-2.8-10.3-1.4-13,3
					C49.3,262.9,50.6,268.8,55.1,271.5z"/>
				<path class="st20" d="M60.6,258.4c3.8,2.4,8.8,1.2,11.2-2.6c2.4-3.8,1.2-8.8-2.6-11.2c-3.8-2.4-8.8-1.2-11.2,2.6c0,0,0,0,0,0
					C55.6,251,56.8,256,60.6,258.4C60.6,258.4,60.6,258.4,60.6,258.4z"/>
				<path class="st11" d="M91.4,267.1l-1.4,2.3c-0.5,0.8-1.5,1-2.3,0.5l-0.4-0.2c-0.8-0.5-1-1.5-0.5-2.3l1.4-2.3
					c0.5-0.8,1.5-1,2.3-0.5l0.4,0.2C91.6,265.3,91.9,266.3,91.4,267.1z"/>
				<path class="st13" d="M85.2,254.9c0.1-0.2,0.2-0.4,0.1-0.7c-0.1-0.5-0.6-0.8-1-0.7c0,0,0,0,0,0L78,255c-0.5,0.1-0.8,0.6-0.7,1.1
					c0.1,0.5,0.6,0.8,1.1,0.7l6.3-1.5C85,255.2,85.1,255.1,85.2,254.9z"/>
				<path class="st13" d="M82.8,258.8c0.1-0.2,0.2-0.4,0.1-0.7l-1.5-6.3c-0.1-0.5-0.6-0.7-1.1-0.6c-0.4,0.1-0.7,0.6-0.6,1l1.5,6.3
					c0.1,0.5,0.6,0.8,1.1,0.7c0,0,0,0,0,0C82.5,259.1,82.7,259,82.8,258.8z"/>
				<path class="st13" d="M79.4,264.2c0.1-0.2,0.2-0.4,0.1-0.7c-0.1-0.5-0.6-0.8-1.1-0.7c0,0,0,0,0,0l-6.3,1.5
					c-0.5,0.1-0.8,0.5-0.7,1c0.1,0.5,0.5,0.8,1,0.7c0,0,0.1,0,0.1,0l6.3-1.5C79.1,264.5,79.3,264.4,79.4,264.2z"/>
				<path class="st13" d="M77,268.1c0.1-0.2,0.2-0.4,0.1-0.7l-1.5-6.3c-0.1-0.5-0.5-0.8-1-0.8c-0.5,0.1-0.8,0.5-0.8,1
					c0,0.1,0,0.1,0,0.1l1.5,6.4c0.1,0.5,0.6,0.8,1.1,0.7c0,0,0,0,0,0C76.7,268.4,76.9,268.3,77,268.1z"/>
				<path class="st20" d="M60.2,246.4c3.1,2,7.2,1,9.2-2.1s1-7.2-2.1-9.2s-7.2-1-9.2,2.1c0,0,0,0,0,0
					C56.2,240.4,57.1,244.5,60.2,246.4z"/>
				<path class="st20" d="M53.5,251c3.1,1.9,7.2,1,9.1-2.1c1.9-3.1,1-7.2-2.1-9.1c-3.1-1.9-7.2-1-9.1,2.1
					C49.4,245,50.4,249.1,53.5,251C53.5,251,53.5,251,53.5,251z"/>
				<path class="st20" d="M51.3,259.6c3.1,1.9,7.2,1,9.1-2.1c1.9-3.1,1-7.2-2.1-9.1c-3.1-1.9-7.2-1-9.1,2.1
					C47.3,253.6,48.2,257.7,51.3,259.6C51.3,259.6,51.3,259.6,51.3,259.6z"/>
				<path class="st9" d="M58.3,270.8c-1.6-3.4-0.2-7.5,3.1-9.2c1.1-0.6,2.4-0.9,3.6-0.8c-2.9-2.1-6.7-2.3-9.8-0.5
					c-4.6,2.5-6.5,8.2-4.3,12.9c2.2,4.5,7.6,6.3,12.1,4.1c0.1-0.1,0.3-0.2,0.4-0.2c1.5-0.8,2.7-2,3.6-3.4c-3.1,1.7-7,0.5-8.7-2.7
					C58.3,270.9,58.3,270.9,58.3,270.8z"/>
				<path class="st20" d="M61.9,263.6c1,0.6,2.4,0.3,3-0.7c0.6-1,0.3-2.4-0.7-3c-1-0.6-2.4-0.3-3,0.7c0,0,0,0,0,0
					C60.6,261.6,60.9,262.9,61.9,263.6z"/>
				<path class="st20" d="M58.8,262.4c1.3,0.8,3.1,0.4,3.9-0.9c0.8-1.3,0.4-3.1-0.9-3.9c-1.3-0.8-3.1-0.4-3.9,0.9
					C57.1,259.9,57.5,261.6,58.8,262.4z"/>
				<path class="st20" d="M54.7,262.3c1.5,0.9,3.4,0.5,4.3-1s0.5-3.4-1-4.3c-1.5-0.9-3.4-0.5-4.3,1c0,0,0,0,0,0
					C52.8,259.5,53.2,261.4,54.7,262.3z"/>
				<path class="st20" d="M60.2,261.4c-1.3-0.8-2.9-0.4-3.7,0.9c-0.8,1.3-0.4,2.9,0.9,3.7c1.3,0.8,2.9,0.4,3.7-0.8
					C61.8,263.8,61.4,262.2,60.2,261.4C60.2,261.4,60.2,261.4,60.2,261.4z"/>
				<path class="st9" d="M80.1,236c-3.8,0-6.9,3-7,6.8c-0.1,1.3,0.2,2.5,0.8,3.6c-3.1-1.7-5-5-4.8-8.5c0.2-5.3,4.5-9.4,9.8-9.5
					c5,0,9,4.1,8.9,9.1c0,0.2,0,0.3,0,0.5c-0.1,1.7-0.6,3.3-1.4,4.7c0.1-3.5-2.6-6.5-6.1-6.6C80.2,236,80.1,236,80.1,236z"/>
				<path class="st20" d="M74.2,243.9c1,0.6,1.3,2,0.7,3s-2,1.3-3,0.7c-1-0.6-1.3-2-0.7-3c0,0,0,0,0,0
					C71.9,243.6,73.2,243.3,74.2,243.9z"/>
				<path class="st20" d="M71.8,241.6c1.3,0.8,1.7,2.6,0.9,3.9s-2.6,1.7-3.9,0.9c-1.3-0.8-1.7-2.6-0.9-3.9
					C68.8,241.2,70.5,240.8,71.8,241.6z"/>
				<path class="st20" d="M69.9,237.9c1.5,0.9,1.9,2.9,1,4.3c-0.9,1.5-2.9,1.9-4.3,1c-1.5-0.9-1.9-2.9-1-4.3c0,0,0,0,0,0
					C66.5,237.5,68.5,237,69.9,237.9C69.9,237.9,69.9,237.9,69.9,237.9z"/>
				<path class="st20" d="M71.5,243.3c-1.2-0.8-1.6-2.4-0.8-3.7s2.4-1.6,3.7-0.8c1.2,0.8,1.6,2.4,0.8,3.7
					C74.4,243.7,72.7,244,71.5,243.3C71.5,243.3,71.5,243.3,71.5,243.3z"/>
			</g>
		</g>
	</g>
</g>
</svg>
