<?xml version="1.0" encoding="utf-8"?>
<!-- Generator: Adobe Illustrator 25.2.3, SVG Export Plug-In . SVG Version: 6.00 Build 0)  -->
<svg version="1.1" id="Layer_1" xmlns="http://www.w3.org/2000/svg" xmlns:xlink="http://www.w3.org/1999/xlink" x="0px" y="0px"
	 viewBox="0 0 231.7 375.8" style="enable-background:new 0 0 231.7 375.8;" xml:space="preserve">
<style type="text/css">
	.st0{fill:#F4B155;}
	.st1{fill:#FFF0CC;}
	.st2{fill:#231F20;}
	.st3{fill:#3F272D;}
	.st4{clip-path:url(#SVGID_2_);}
	.st5{fill:#2B3251;}
	.st6{fill:#FFFFFF;}
	.st7{fill:#F5B155;}
	.st8{fill:#FFD351;}
	.st9{fill:#D6306A;}
	.st10{fill:#DD4F65;}
	.st11{fill:#E6705F;}
	.st12{fill:#FFD150;}
	.st13{fill:#BF4F64;}
	.st14{fill:#47372E;}
	.st15{fill:#DC4F64;}
	.st16{fill:#F4B055;}
	.st17{fill:#4A355B;}
</style>
<g id="Layer_2_1_">
	<g id="Layer_1-2">
		<path class="st0" d="M231.7,14.2v347.3c0,7.9-6.6,14.2-14.8,14.2H14.8c-8,0.1-14.6-6.2-14.8-14.2V14.2C0.2,6.2,6.8-0.1,14.8,0
			h202.1C225.1,0,231.7,6.4,231.7,14.2z M219.3,357V26.2c0-5.9-4.8-10.7-10.7-10.7H23.1c-5.9,0-10.7,4.8-10.7,10.7V357
			c0,5.9,4.8,10.7,10.7,10.7h185.5C214.5,367.7,219.3,362.9,219.3,357z"/>
		<path class="st1" d="M23.1,15.6h185.5c5.9,0,10.7,4.8,10.7,10.7V357c0,5.9-4.8,10.7-10.7,10.7H23.1c-5.9,0-10.7-4.8-10.7-10.7
			V26.2C12.4,20.4,17.2,15.6,23.1,15.6z"/>
		<path class="st2" d="M42.4,329.2c-0.1-0.1-0.2-0.3-0.2-0.5v-10.9c0-0.2,0-0.4,0.2-0.5c0.1-0.1,0.3-0.2,0.5-0.2h4.6
			c1.2-0.1,2.4,0.3,3.3,1c1.5,1.7,1.5,4.3,0,6c-0.9,0.8-2.1,1.1-3.3,1h-3v3.5c0.1,0.3-0.2,0.6-0.5,0.7c-0.1,0-0.1,0-0.2,0h-1
			C42.6,329.4,42.5,329.3,42.4,329.2z M47.4,323.6c0.6,0,1.2-0.2,1.6-0.6c0.4-0.5,0.6-1.1,0.5-1.7c0.1-0.6-0.1-1.2-0.5-1.7
			c-0.4-0.4-1-0.6-1.6-0.6h-2.8v4.6L47.4,323.6z"/>
		<path class="st2" d="M51.1,329.1c0-0.1,0-0.2,0-0.2l4.7-11.2c0-0.1,0.1-0.3,0.2-0.4c0.1-0.1,0.2-0.1,0.4-0.1h1
			c0.1,0,0.3,0,0.4,0.1c0.1,0.1,0.2,0.2,0.2,0.4l4.7,11.2c0,0.1,0,0.2,0,0.2c0,0.2-0.1,0.3-0.3,0.3h-1.5c-0.1,0-0.2,0-0.3-0.1
			c-0.1-0.1-0.2-0.2-0.2-0.3l-1-2.5h-5l-1,2.5c0,0.1-0.1,0.2-0.2,0.3c-0.1,0-0.2,0.1-0.3,0.1h-1.6C51.2,329.4,51.1,329.3,51.1,329.1
			z M58.8,324.9l-1.9-4.7l-1.9,4.7H58.8z"/>
		<path class="st2" d="M65.8,328c-1.2-1.3-1.8-3-1.7-4.7c-0.1-1.7,0.5-3.4,1.7-4.7c1.3-1.2,3-1.8,4.7-1.7c0.8,0,1.5,0.1,2.3,0.2
			c0.6,0.1,1.2,0.4,1.8,0.7c0.1,0,0.2,0.1,0.2,0.2c0,0.1,0,0.1-0.1,0.2l-0.5,0.9c-0.1,0.1-0.1,0.2-0.2,0.2c-0.1,0-0.2,0-0.2-0.1
			c-0.9-0.5-1.9-0.7-2.9-0.7c-1.2-0.1-2.3,0.3-3.2,1.1c-0.8,1-1.3,2.2-1.2,3.5c-0.1,1.3,0.3,2.5,1.1,3.5c0.8,0.8,1.9,1.3,3.1,1.2
			c0.5,0,0.9,0,1.4-0.1c0.4-0.1,0.8-0.2,1.1-0.3v-3.3h-2.4c-0.2,0-0.4,0-0.5-0.1c-0.1-0.1-0.2-0.3-0.2-0.5v-0.5c0-0.2,0-0.3,0.2-0.5
			c0.1-0.1,0.3-0.1,0.5-0.1h3.8c0.2,0,0.4,0,0.6,0.2c0.1,0.2,0.2,0.4,0.2,0.6v4.7c0,0.1,0,0.3-0.1,0.4c0,0.1-0.1,0.2-0.2,0.2
			c-1.4,0.7-2.9,1.1-4.5,1C68.8,329.8,67.1,329.2,65.8,328z"/>
		<path class="st2" d="M77.2,329.2c-0.1-0.1-0.2-0.3-0.2-0.5v-10.9c0-0.2,0-0.4,0.2-0.5c0.1-0.1,0.3-0.2,0.5-0.2h7.4
			c0.2,0,0.4,0,0.5,0.1c0.1,0.1,0.2,0.3,0.1,0.5v0.5c0,0.2,0,0.3-0.1,0.5c-0.1,0.1-0.3,0.2-0.5,0.1h-5.8v3.5h4.2
			c0.2,0,0.4,0,0.5,0.1c0.1,0.1,0.2,0.3,0.1,0.5v0.5c0,0.2,0,0.3-0.1,0.5c-0.1,0.1-0.3,0.2-0.5,0.1h-4.2v3.5h5.8
			c0.2,0,0.4,0,0.5,0.2c0.1,0.1,0.2,0.3,0.2,0.5v0.5c0,0.2,0,0.3-0.2,0.5c-0.1,0.1-0.3,0.2-0.5,0.1h-7.4
			C77.5,329.4,77.4,329.4,77.2,329.2z"/>
		<path class="st2" d="M95.6,328c-2.1-2.8-2.1-6.6,0-9.4c2.6-2.2,6.4-2.2,9.1,0c2.1,2.8,2.1,6.6,0,9.4
			C102,330.2,98.2,330.2,95.6,328z M103,326.8c1.3-2.1,1.3-4.8,0-7c-1.6-1.6-4.2-1.6-5.7,0c-1.3,2.1-1.3,4.8,0,7
			C98.8,328.4,101.4,328.4,103,326.8z"/>
		<path class="st2" d="M108.1,329.2c-0.1-0.1-0.2-0.3-0.2-0.5v-10.9c0-0.2,0-0.4,0.2-0.5c0.1-0.1,0.3-0.2,0.5-0.2h7.4
			c0.2,0,0.4,0,0.5,0.1c0.1,0.1,0.1,0.3,0.1,0.5v0.5c0,0.2,0,0.3-0.1,0.5c-0.1,0.1-0.3,0.2-0.5,0.1h-5.8v3.5h4.2
			c0.3-0.1,0.6,0.1,0.6,0.4c0,0.1,0,0.2,0,0.2v0.5c0,0.2,0,0.3-0.1,0.5c-0.1,0.1-0.3,0.2-0.5,0.1h-4.2v4.6c0.1,0.3-0.2,0.6-0.5,0.7
			c-0.1,0-0.1,0-0.2,0h-0.9C108.5,329.4,108.3,329.4,108.1,329.2z"/>
		<path class="st2" d="M128.1,329.3c-0.1-0.1-0.2-0.2-0.2-0.4l-3.1-12.2c0-0.1,0-0.1,0-0.2c0-0.2,0.1-0.3,0.4-0.3h1.6
			c0.1,0,0.3,0,0.4,0.1c0.1,0.1,0.1,0.2,0.2,0.3l1.9,8.5l2.3-7.5c0-0.1,0.1-0.2,0.2-0.3c0.1-0.1,0.2-0.1,0.4-0.1h0.9
			c0.1,0,0.3,0,0.4,0.1c0.1,0.1,0.2,0.2,0.2,0.3l2.3,7.5l1.9-8.5c0-0.1,0.1-0.2,0.2-0.3c0.1-0.1,0.3-0.1,0.4-0.1h1.6
			c0.2,0,0.4,0.1,0.4,0.3c0,0.1,0,0.1,0,0.2l-3.1,12.2c0,0.1-0.1,0.3-0.2,0.4c-0.1,0.1-0.3,0.1-0.4,0.1h-1c-0.1,0-0.3,0-0.4-0.1
			c-0.1-0.1-0.2-0.2-0.2-0.4l-2.4-7.7l-2.3,7.7c0,0.1-0.1,0.3-0.2,0.4c-0.1,0.1-0.3,0.1-0.4,0.1h-1.1
			C128.5,329.4,128.3,329.4,128.1,329.3z"/>
		<path class="st2" d="M139.8,329.1c0-0.1,0-0.2,0-0.2l5.2-12.1c0-0.2,0.1-0.3,0.2-0.4c0.1-0.1,0.2-0.1,0.4-0.1h1.1
			c0.1,0,0.3,0,0.4,0.1c0.1,0.1,0.2,0.2,0.2,0.4l5.1,12.1c0,0.1,0.1,0.2,0.1,0.2c0,0.2-0.1,0.3-0.3,0.3h-1.7c-0.1,0-0.2,0-0.4-0.1
			c-0.1-0.1-0.2-0.2-0.2-0.3l-1.1-2.7h-5.3l-1.1,2.7c0,0.1-0.1,0.2-0.2,0.3c-0.1,0.1-0.2,0.1-0.4,0.1h-1.7
			C139.9,329.4,139.8,329.3,139.8,329.1z M148.2,324.5l-2.1-5.1l-2.1,5.1H148.2z"/>
		<path class="st2" d="M154.6,329.2c-0.1-0.1-0.2-0.3-0.2-0.5V317c-0.1-0.3,0.2-0.7,0.5-0.7c0.1,0,0.2,0,0.2,0h0.9
			c0.1,0,0.3,0,0.4,0.1c0.1,0.1,0.2,0.2,0.3,0.3l6.4,8.9V317c-0.1-0.3,0.2-0.7,0.5-0.7c0.1,0,0.1,0,0.2,0h1c0.2,0,0.4,0,0.6,0.2
			c0.1,0.1,0.2,0.3,0.2,0.5v11.8c0,0.2,0,0.4-0.2,0.5c-0.2,0.1-0.4,0.2-0.6,0.2H164c-0.1,0-0.3,0-0.4-0.1c-0.1-0.1-0.2-0.2-0.3-0.3
			l-6.4-8.9v8.5c0,0.2,0,0.4-0.2,0.5c-0.2,0.1-0.4,0.2-0.6,0.2h-1C154.9,329.5,154.7,329.4,154.6,329.2z"/>
		<path class="st2" d="M168.1,329.2c-0.1-0.1-0.2-0.3-0.2-0.5V317c0-0.2,0-0.4,0.2-0.5c0.1-0.1,0.3-0.2,0.6-0.2h3.9
			c1.8-0.1,3.6,0.4,5,1.6c1.1,1,1.7,2.7,1.7,5c0,4.4-2.2,6.6-6.7,6.6h-3.9C168.4,329.4,168.2,329.4,168.1,329.2z M172.7,327.5
			c1.1,0.1,2.2-0.3,3.1-1.1c1.4-2.2,1.4-5.1,0-7.3c-0.8-0.8-2-1.1-3.1-1h-2.3v9.4L172.7,327.5z"/>
		<path class="st2" d="M182.3,329.4c-0.8-0.1-1.5-0.4-2.1-0.8c-0.2-0.1-0.2-0.2-0.2-0.3c0-0.1,0-0.2,0.1-0.2l0.6-1
			c0.1-0.1,0.1-0.2,0.2-0.2c0.1,0,0.2,0,0.2,0.1c0.5,0.3,1.1,0.5,1.7,0.7c0.6,0.2,1.3,0.3,1.9,0.3c0.7,0,1.4-0.1,2-0.4
			c0.5-0.3,0.7-0.8,0.7-1.4c0-0.3-0.1-0.7-0.3-0.9c-0.2-0.3-0.4-0.5-0.7-0.6c-0.3-0.2-0.9-0.4-1.6-0.7l-0.4-0.2
			c-0.7-0.3-1.4-0.6-2.1-1c-0.5-0.3-1-0.7-1.4-1.2c-0.4-0.5-0.6-1.2-0.6-1.8c0-1.1,0.5-2.1,1.4-2.7c1-0.7,2.3-1,3.5-1
			c0.8,0,1.6,0.1,2.3,0.2c0.6,0.2,1.2,0.4,1.7,0.8c0.2,0.1,0.2,0.2,0.2,0.3c0,0.1,0,0.1-0.1,0.2l-0.6,1c-0.1,0.1-0.1,0.2-0.2,0.2
			c-0.1,0-0.2-0.1-0.2-0.1c-0.9-0.6-2-0.8-3.1-0.8c-0.6,0-1.3,0.1-1.8,0.5c-0.4,0.3-0.7,0.9-0.6,1.4c0,0.4,0.1,0.7,0.3,1
			c0.2,0.3,0.5,0.5,0.8,0.6c0.3,0.2,0.9,0.4,1.6,0.7l0.5,0.2c0.8,0.3,1.5,0.6,2.2,1c0.5,0.3,0.9,0.7,1.2,1.2
			c0.3,0.6,0.5,1.2,0.4,1.8c0,1-0.4,2-1.2,2.6c-1,0.7-2.3,1.1-3.6,1C184.1,329.7,183.2,329.6,182.3,329.4z"/>
		<path class="st3" d="M52.3,47h127.1c13.5,0,24.4,10.9,24.4,24.4V261c0,13.5-10.9,24.4-24.4,24.4H52.3c-13.5,0-24.4-10.9-24.4-24.4
			V71.4C27.9,57.9,38.8,47,52.3,47z"/>
		<g>
			<defs>
				<path id="SVGID_1_" d="M52.3,47h127.1c13.5,0,24.4,10.9,24.4,24.4V261c0,13.5-10.9,24.4-24.4,24.4H52.3
					c-13.5,0-24.4-10.9-24.4-24.4V71.4C27.8,57.9,38.8,47,52.3,47z"/>
			</defs>
			<clipPath id="SVGID_2_">
				<use xlink:href="#SVGID_1_"  style="overflow:visible;"/>
			</clipPath>
			<g class="st4">
				<rect x="12.4" y="33.1" class="st5" width="206.9" height="223.8"/>
				<rect x="17.1" y="191.7" class="st6" width="197.2" height="61.8"/>
				<path class="st6" d="M86.6,196.2H0.1c-6.2,0-11.2-5-11.2-11.2l0,0c0-6.2,5-11.2,11.2-11.2h86.5c6.2,0,11.1,5,11.2,11.2l0,0
					C97.7,191.2,92.8,196.2,86.6,196.2z"/>
				<circle class="st6" cx="32.3" cy="168.4" r="27.8"/>
				<circle class="st6" cx="62.8" cy="176.4" r="19.8"/>
				<path class="st6" d="M140.3,195.4h119.3c8.5,0,15.4-6.9,15.4-15.4l0,0c0-8.5-6.9-15.4-15.4-15.4H140.3
					c-8.5,0-15.4,6.9-15.4,15.4l0,0C124.9,188.5,131.8,195.4,140.3,195.4z"/>
				<circle class="st6" cx="215.1" cy="157.1" r="38.3"/>
				<circle class="st6" cx="173" cy="168.1" r="27.3"/>
				<polygon class="st7" points="5.7,236.9 29.8,224 70.6,232.1 98.2,212.8 145.3,227.9 175.1,217.2 231.7,238.9 231.7,285.7 
					5.7,285.7 				"/>
				<polygon class="st8" points="5.7,249.3 61.2,225.8 105.9,244.1 149.5,219.5 197.1,238.9 231.7,224 231.7,285.7 5.7,285.7 				
					"/>
				<polygon class="st8" points="231.7,285.7 5.7,285.7 5.7,339.6 5.7,345.8 5.7,375.3 231.6,375.3 231.6,345.8 231.7,345.8 				"/>
				<path class="st7" d="M135.2,185l-4.1,5.7l20.8,14.9c0.8-1,2.9-4,4-5.7L135.2,185z"/>
				<path class="st9" d="M161.1,203.6l-5.1-3.7c-1.1,1.7-3.2,4.7-4,5.7l5.1,3.6L161.1,203.6z"/>
				
					<rect x="73.3" y="186.8" transform="matrix(0.8131 -0.5822 0.5822 0.8131 -94.0781 87.4664)" class="st7" width="31.7" height="6.9"/>
				
					<rect x="75.6" y="194" transform="matrix(0.8131 -0.5822 0.5822 0.8131 -100.1993 82.9022)" class="st9" width="6.7" height="6.9"/>
				
					<rect x="74.8" y="192.6" transform="matrix(0.8132 -0.582 0.582 0.8132 -97.1641 89.4122)" class="st8" width="31.8" height="7"/>
				
					<rect x="77.1" y="199.9" transform="matrix(0.8132 -0.582 0.582 0.8132 -103.3033 84.8506)" class="st10" width="6.8" height="7"/>
				
					<rect x="149.6" y="179.2" transform="matrix(0.5821 -0.8131 0.8131 0.5821 -94.6126 206.0181)" class="st8" width="7" height="31.8"/>
				<path class="st11" d="M128.4,195.7h-25c-11.1,0-20-9-20.1-20.1l0,0c0-11.1,9-20,20.1-20.1h25c11.1,0,20,9,20.1,20.1l0,0
					C148.5,186.7,139.5,195.7,128.4,195.7z"/>
				<path class="st12" d="M98.2,143.2c-4.2,0-9.3-0.8-13.4-4c-4.3-3.4-6.5-8.6-6.5-15.5c0-2.1,1.7-3.8,3.8-3.8s3.8,1.7,3.8,3.8
					c0,4.5,1.2,7.6,3.6,9.5c4.3,3.4,12,2.4,14.6,1.8c2-0.5,4,0.7,4.6,2.7c0.5,2-0.7,4-2.7,4.6C103.3,142.9,100.8,143.2,98.2,143.2z"
					/>
				<path class="st13" d="M132.8,125.4c7.9-0.9,15.8-1.3,23.6-2.7c2.9-0.5,5.8-1.2,8.5-2.2c1.3-0.4,4.8-2.4,6.1-2
					c0,0,12.8,3.1,6.4,10.2c0,0-7.7,7.8-2.7,13c0,0,1.9,9.6-8.6,12c0,0-6.9-0.8-13.4,6.4c0,0-24.6-12.4-48.1-14.8l1.4-10.2
					c0-0.2,18.2-8.4,20.5-8.8C128.7,126,130.8,125.7,132.8,125.4z"/>
				<path class="st14" d="M117.1,118.4L98,120c-5.3,0.4-10-3.5-10.4-8.9l0,0c-0.4-5.3,3.5-10,8.8-10.4l19.1-1.6
					c5.3-0.4,10,3.5,10.4,8.8l0,0C126.4,113.3,122.4,118,117.1,118.4z"/>
				<path class="st15" d="M126.8,172.8h-24.4c-0.8,0-1.5-0.7-1.5-1.5V144c0-7.5,6.1-13.7,13.7-13.7l0,0c7.6,0,13.7,6.1,13.7,13.7
					v27.4C128.3,172.2,127.6,172.8,126.8,172.8z"/>
				<path class="st7" d="M81.9,212.9l0.8-0.5c0.5-0.3,1-0.4,1.5-0.4l3.2,0.2c0,0,0-0.1,0-0.1l1.6-5.4l1-3.9l6.4-21.8
					c0.6-2.3,3-3.6,5.3-3s3.6,3,3,5.3L98.3,205l-1.1,3.9l-1.2,4.6c0.5,0.6,0.6,1.5,0.4,2.2l-0.7,2.7c-0.4,1.4-1.8,2.2-3.2,1.8
					l-9.9-2.7c-1.4-0.4-2.2-1.7-1.8-3.1C81,213.8,81.4,213.2,81.9,212.9z"/>
				<path class="st12" d="M81.9,210.9l0.8-0.5c0.5-0.3,1-0.4,1.5-0.4l3.2,0.2c0,0,0-0.1,0-0.1l1.6-5.4l1-3.9l6.4-21.8
					c0.6-2.3,3-3.6,5.3-3s3.6,3,3,5.3L98.3,203l-1.1,4l-1.2,4.6c0.5,0.6,0.6,1.5,0.4,2.2l-0.7,2.7c-0.4,1.4-1.8,2.2-3.2,1.8
					l-9.9-2.7c-1.4-0.4-2.2-1.7-1.8-3.1C81,211.8,81.4,211.2,81.9,210.9z"/>
				<path class="st12" d="M90,120.3c0.2,1.8,1.8,3.2,3.6,3c1.8-0.2,3.2-1.8,3-3.6c-0.2-1.8-1.8-3.1-3.6-3
					C91.2,116.8,89.8,118.4,90,120.3C90,120.2,90,120.3,90,120.3z"/>
				<path class="st16" d="M91.3,120.1c0.1,1.1,1.1,1.9,2.2,1.8c1.1-0.1,1.9-1.1,1.8-2.2s-1.1-1.9-2.2-1.8
					C92,118.1,91.2,119,91.3,120.1z"/>
				<path class="st12" d="M117.7,117.7c0.2,1.8,1.8,3.2,3.6,3c1.8-0.2,3.2-1.8,3-3.6c-0.2-1.8-1.8-3.1-3.6-3
					C118.8,114.2,117.5,115.8,117.7,117.7C117.7,117.7,117.7,117.7,117.7,117.7z"/>
				<path class="st16" d="M118.9,117.6c0.1,1.1,1.1,1.9,2.2,1.8c1.1-0.1,1.9-1.1,1.8-2.2l0,0c-0.1-1.1-1.1-1.9-2.2-1.8
					C119.6,115.5,118.8,116.4,118.9,117.6z"/>
				<path class="st12" d="M108.3,133.1L108.3,133.1c7.4-0.7,12.8-7.3,12.1-14.6l-0.7-7c-0.7-7.4-7.3-12.8-14.6-12.1l0,0
					c-7.4,0.7-12.8,7.3-12.1,14.7l0.7,7C94.4,128.4,100.9,133.8,108.3,133.1z"/>
				<path class="st17" d="M111.5,122L111.5,122c0.9-0.1,1.6-0.9,1.5-1.8l-0.2-1.8c-0.1-0.9-0.9-1.6-1.8-1.5c0,0,0,0,0,0l0,0
					c-0.9,0.1-1.6,0.9-1.5,1.8l0.2,1.9C109.8,121.4,110.6,122.1,111.5,122z"/>
				<path class="st17" d="M100.2,123.1L100.2,123.1c0.9-0.1,1.6-0.9,1.5-1.8c0,0,0,0,0,0l-0.2-1.8c-0.1-0.9-0.9-1.6-1.8-1.5l0,0
					c-0.9,0.1-1.6,0.9-1.5,1.8l0.2,1.8C98.5,122.5,99.3,123.2,100.2,123.1z"/>
				<path class="st14" d="M96.1,117.4h3.5c0.7,0,1.2-0.5,1.2-1.2l0,0c0-0.7-0.5-1.2-1.2-1.2h-3.5c-0.7,0-1.2,0.5-1.2,1.2l0,0
					C94.9,116.9,95.5,117.4,96.1,117.4z"/>
				<path class="st14" d="M114.4,115.9l-3.5,0.3c-0.7,0.1-1.2-0.4-1.3-1.1l0,0c-0.1-0.7,0.4-1.2,1.1-1.3l3.5-0.3
					c0.7-0.1,1.2,0.4,1.3,1.1l0,0C115.5,115.2,115.1,115.8,114.4,115.9z"/>
				<path class="st16" d="M107.4,123.4c-0.1-1.1-1-1.8-2.1-1.7c-1.1,0.1-1.8,1-1.7,2.1l0,0L107.4,123.4z"/>
				<path class="st15" d="M124.1,145.6c5.7,0.7,9.1,18.1,14.9,18.4c2.1,0.2,4.2,0.1,6.3-0.1c1-0.1,3.8-1,4.6-0.5
					c0,0,8.5,4.7,2.8,9.1c0,0-6,4.2-4.3,8.8c0.3,0.8,0.3,1.6,0.1,2.3c-0.6,3.4-3.5,5.9-6.9,6.1c-0.4,0-0.9,0-1.3-0.1
					c-2.6-0.5-5.3-0.1-7.6,1.2c-1.5,0.8-3.4,0.6-4.7-0.5c-4.5-3.8-15.1-12.2-26.5-17.1c-1.5-0.7-2.5-2.2-2.5-3.9v-3.9
					c0-2.3,1.9-4.2,4.2-4.2c0,0,0,0,0,0c5.1,0,13.1,0.1,14.2,0.2C119,161.5,122.7,145.4,124.1,145.6z"/>
				<path class="st14" d="M81.9,145L81.9,145c0.9,0,1.5-0.7,1.5-1.6l-0.2-33.7c0-0.9-0.7-1.6-1.5-1.6c0,0,0,0,0,0l0,0
					c-0.9,0-1.5,0.7-1.5,1.6l0.2,33.7C80.3,144.3,81,145,81.9,145C81.9,145,81.9,145,81.9,145z"/>
				<path class="st12" d="M79.2,127.9L79.2,127.9c1,0,1.7-0.8,1.7-1.7v-4.8c0-1-0.8-1.7-1.7-1.7l0,0c-1,0-1.7,0.8-1.7,1.7v4.8
					C77.4,127.1,78.2,127.9,79.2,127.9z"/>
				<path class="st12" d="M83,124.8h0.9c0.6,0,1.1-0.5,1.1-1.1c0,0,0,0,0,0l0,0c0-0.6-0.5-1.1-1.1-1.1c0,0,0,0,0,0H83
					c-0.6,0-1.1,0.5-1.1,1.1l0,0C81.9,124.3,82.4,124.8,83,124.8L83,124.8z"/>
				<circle class="st14" cx="112.5" cy="100.2" r="8.3"/>
				<circle class="st14" cx="99.1" cy="100.2" r="8.3"/>
				<path class="st14" d="M107.4,99.5c0,2.1-1.7,3.9-3.9,3.9s-3.9-1.7-3.9-3.9s1.7-3.9,3.9-3.9S107.4,97.4,107.4,99.5L107.4,99.5z"
					/>
				<path class="st14" d="M109.5,96c0,2.1-1.7,3.9-3.8,3.9s-3.9-1.7-3.9-3.8c0-2.1,1.7-3.9,3.8-3.9c0,0,0,0,0,0
					C107.8,92.2,109.5,93.9,109.5,96z"/>
				<circle class="st14" cx="90.8" cy="102.2" r="3.9"/>
				<path class="st14" d="M109.5,104.8c0,2.1-1.7,3.9-3.9,3.9c-2.1,0-3.9-1.7-3.9-3.9c0-2.1,1.7-3.9,3.9-3.9c0,0,0,0,0,0
					C107.8,101,109.5,102.7,109.5,104.8C109.5,104.8,109.5,104.8,109.5,104.8z"/>
				<circle class="st14" cx="120" cy="99.9" r="3.9"/>
				<path class="st16" d="M108.6,126.8l-5,0.5c-0.3,0-0.6-0.2-0.6-0.5l0,0c0-0.3,0.2-0.6,0.5-0.6c0,0,0,0,0,0l5-0.5
					c0.3,0,0.6,0.2,0.6,0.5l0,0C109.1,126.5,108.9,126.8,108.6,126.8C108.6,126.8,108.6,126.8,108.6,126.8z"/>
				<path class="st15" d="M128.1,190.3c0,0-9.1-7.6-28.4-2.4c0,0-5.3-8.3,0.6-19.3"/>
				<path class="st7" d="M77.9,172.5c-1.6-1.6-3.7-0.7-6.2,0.1s-4.6,1.5-4.9,3.8c0.7,0.7,1.5,1.2,2.5,1.4c-0.2-0.1-0.3-0.3-0.5-0.4
					c0.2-1.7,1.8-2.2,3.6-2.9s3.4-1.2,4.6,0c0,0.2,0,0.4-0.1,0.6C77.5,174.4,77.8,173.4,77.9,172.5z"/>
				<path class="st10" d="M72.5,174.5c-1.8,0.6-3.4,1.2-3.6,2.9c0.2,0.1,0.3,0.3,0.5,0.4c2.8,0.8,5.9-0.3,7.6-2.7
					c0-0.2,0.1-0.4,0.1-0.6C75.9,173.3,74.3,173.9,72.5,174.5z"/>
				<path class="st7" d="M92.1,172.5c1.6-1.6,3.7-0.7,6.2,0.2s4.6,1.6,4.8,3.8c-0.7,0.7-1.5,1.2-2.5,1.4c0.2-0.1,0.3-0.3,0.5-0.4
					c-0.2-1.7-1.7-2.2-3.6-2.9s-3.4-1.2-4.6-0.1c0,0.2,0.1,0.4,0.1,0.6C92.6,174.4,92.2,173.5,92.1,172.5z"/>
				<path class="st10" d="M97.6,174.6c1.8,0.7,3.4,1.2,3.6,2.9c-0.2,0.2-0.3,0.3-0.5,0.4c-2.8,0.8-5.9-0.3-7.6-2.8
					c-0.1-0.2-0.1-0.4-0.1-0.6C94.2,173.4,95.8,174,97.6,174.6z"/>
				<path class="st8" d="M80.5,185.6l-5.8-13.3c-1.1-2.6,0.1-5.5,2.6-6.6c0.6-0.3,1.3-0.4,2-0.4h11.6c2.8,0,5,2.3,5,5.1
					c0,0.7-0.1,1.4-0.4,2l-5.9,13.3c-1,2.6-4,3.8-6.5,2.7C82,187.9,81,186.9,80.5,185.6z"/>
				<path class="st7" d="M87.6,166.9c0,3.7,3,6.7,6.7,6.7c3.7,0,6.7-3,6.7-6.7s-3-6.7-6.7-6.7c0,0,0,0,0,0
					C90.7,160.3,87.7,163.2,87.6,166.9C87.6,166.9,87.6,166.9,87.6,166.9z"/>
				<path class="st7" d="M69.6,166.9c0,3.7,3,6.7,6.7,6.7c3.7,0,6.7-3,6.7-6.7s-3-6.7-6.7-6.7c0,0,0,0,0,0
					C72.6,160.2,69.6,163.2,69.6,166.9z"/>
				<path class="st7" d="M79.6,165.3c0,3.2,2.5,5.8,5.7,5.8c3.2,0,5.8-2.5,5.8-5.7c0-3.2-2.5-5.8-5.7-5.8c0,0,0,0,0,0
					C82.2,159.5,79.6,162.1,79.6,165.3z"/>
				<path class="st10" d="M84.1,187h1.6c0.7,0,1.3-0.6,1.3-1.3l0,0c0-0.7-0.6-1.3-1.3-1.3h-1.6c-0.7,0-1.3,0.6-1.3,1.3c0,0,0,0,0,0
					l0,0C82.8,186.4,83.4,187,84.1,187C84.1,187,84.1,187,84.1,187z"/>
				<path class="st7" d="M86.6,160.6c0,2.6,2,4.7,4.6,4.7s4.7-2,4.7-4.6c0-2.6-2-4.7-4.6-4.7c0,0,0,0,0,0
					C88.7,156,86.6,158.1,86.6,160.6z"/>
				<path class="st7" d="M81.4,158.2c0,2.6,2.1,4.7,4.7,4.7c2.6,0,4.7-2.1,4.7-4.7c0-2.6-2.1-4.7-4.7-4.7c0,0,0,0,0,0
					C83.5,153.6,81.4,155.7,81.4,158.2z"/>
				<path class="st7" d="M75.4,160.2c0,2.6,2.1,4.7,4.7,4.7c2.6,0,4.7-2.1,4.7-4.7c0-2.6-2.1-4.7-4.7-4.7
					C77.5,155.5,75.4,157.6,75.4,160.2C75.4,160.2,75.4,160.2,75.4,160.2z"/>
				<path class="st8" d="M71.2,168.5c1.4-2.2,4.4-2.9,6.7-1.6c0.8,0.4,1.4,1.1,1.8,1.9c0.1-2.5-1.1-4.8-3.3-6
					c-3.2-1.8-7.3-0.9-9.3,2.2c-1.9,3-0.9,6.9,2,8.7c0.1,0.1,0.2,0.1,0.3,0.2c1,0.6,2.2,0.9,3.4,0.9c-2.2-1.2-2.9-4-1.7-6.2
					C71.2,168.6,71.2,168.6,71.2,168.5z"/>
				<path class="st7" d="M77,168c0,0.9,0.7,1.5,1.5,1.5s1.5-0.7,1.5-1.5c0-0.8-0.7-1.5-1.5-1.5C77.7,166.5,77,167.1,77,168z"/>
				<path class="st7" d="M76.5,165.7c0,1.1,0.9,2,2,2s2-0.9,2-2s-0.9-2-2-2S76.5,164.6,76.5,165.7z"/>
				<path class="st7" d="M75,163.2c0,1.2,1,2.2,2.2,2.2s2.2-1,2.2-2.2c0-1.2-1-2.2-2.2-2.2C76,161,75,162,75,163.2
					C75,163.2,75,163.2,75,163.2z"/>
				<path class="st7" d="M77.6,166.1c0-1-0.8-1.9-1.9-1.9c-1,0-1.9,0.8-1.9,1.9c0,1,0.8,1.9,1.9,1.9c0,0,0,0,0,0
					C76.8,168,77.6,167.2,77.6,166.1z"/>
				<path class="st8" d="M100.2,168.6c-1.4-2.2-4.4-2.9-6.7-1.6c-0.8,0.4-1.4,1.1-1.8,1.9c-0.1-2.5,1.2-4.8,3.3-6
					c3.2-1.8,7.3-0.8,9.3,2.3c1.8,3,0.8,6.9-2.1,8.7c-0.1,0.1-0.2,0.1-0.3,0.1c-1,0.6-2.2,0.9-3.4,0.9c2.2-1.2,2.9-4,1.7-6.2
					C100.3,168.7,100.3,168.7,100.2,168.6z"/>
				<path class="st7" d="M93.3,168.1c0,0.9-0.7,1.5-1.5,1.5s-1.5-0.7-1.5-1.5c0-0.8,0.7-1.5,1.5-1.5
					C92.6,166.5,93.3,167.2,93.3,168.1C93.3,168.1,93.3,168.1,93.3,168.1z"/>
				<path class="st7" d="M93.8,165.8c0,1.1-0.9,2-2,2s-2-0.9-2-2s0.9-2,2-2S93.8,164.7,93.8,165.8z"/>
				<path class="st7" d="M95.3,163.3c0,1.2-1,2.2-2.2,2.2c-1.2,0-2.2-1-2.2-2.2c0-1.2,1-2.2,2.2-2.2c0,0,0,0,0,0
					C94.3,161.1,95.3,162.1,95.3,163.3C95.3,163.3,95.3,163.3,95.3,163.3z"/>
				<path class="st7" d="M92.7,166.2c0-1,0.8-1.9,1.9-1.9c1,0,1.9,0.8,1.9,1.9c0,1-0.8,1.9-1.9,1.9c0,0,0,0,0,0
					C93.5,168.1,92.7,167.2,92.7,166.2z"/>
				<ellipse class="st12" cx="117.8" cy="142.9" rx="6.6" ry="8.6"/>
				<path class="st12" d="M93.1,164.9c-2.1,0.1-3.9-1.5-4-3.6c-0.1-2.1,1.5-3.9,3.6-4c0.1,0,0.3,0,0.4,0c8.8,0,15-2,17.7-5.9
					c3.2-4.5,1.3-10.6,1.2-10.6c-0.8-2,0.2-4.2,2.1-5c2-0.8,4.2,0.2,5,2.1c0,0.1,0.1,0.2,0.1,0.4c0.1,0.4,3.3,9.8-2.3,17.5
					C112.7,161.8,104.7,164.9,93.1,164.9z"/>
				<path class="st17" d="M88.3,176.5c-0.3,0.3-0.3,0.8,0,1.1c0.1,0.1,0.2,0.2,0.4,0.2c1.2,0.3,2.5-0.4,2.8-1.7
					c0.1-0.4,0.1-0.8,0-1.2c-0.1-0.4-0.6-0.6-1-0.5c-0.1,0-0.2,0.1-0.3,0.2L88.3,176.5z"/>
				<path class="st17" d="M81.9,176.8c0.3,0.3,0.3,0.8,0,1.1c-0.1,0.1-0.2,0.2-0.4,0.2c-1.2,0.3-2.5-0.4-2.8-1.6
					c-0.1-0.4-0.1-0.8,0-1.2c0.1-0.4,0.6-0.6,1-0.5c0.1,0,0.2,0.1,0.3,0.2L81.9,176.8z"/>
				
					<rect x="159.6" y="198.8" transform="matrix(0.5848 -0.8112 0.8112 0.5848 -96.3924 216.4423)" class="st10" width="7.2" height="7.2"/>
				<path class="st15" d="M77.2,103.7c0,0-4.2-8.7,7.5-11.3c0,0,4.7,0,6.5-1.8c0,0,0.1,3.5-1,3.5c0,0,10-1.5,12.9-6.2
					C103.1,87.9,91.9,113.9,77.2,103.7z"/>
				<path class="st12" d="M79.2,102.5c0,0-1.8-3.6,3.1-4.7c0,0,2,0,2.7-0.7c0,0,0,1.5-0.4,1.5c0,0,4.2-0.6,5.4-2.6
					C90,96,85.4,106.8,79.2,102.5z"/>
				<path class="st8" d="M46.5,117.1c0,0.3-0.3,0.6-0.6,0.6c-0.3,0-0.6-0.3-0.6-0.6c0-0.3,0.3-0.6,0.6-0.6S46.5,116.7,46.5,117.1
					C46.5,117.1,46.5,117.1,46.5,117.1z"/>
				<path class="st8" d="M63,136.7c0,0.3-0.2,0.6-0.6,0.6c0,0,0,0,0,0c-0.3,0-0.6-0.3-0.6-0.6c0-0.3,0.3-0.6,0.6-0.6c0,0,0,0,0,0
					C62.7,136.1,63,136.4,63,136.7C63,136.7,63,136.7,63,136.7z"/>
				<path class="st8" d="M62.4,92.8c0,0.3-0.3,0.6-0.6,0.6c-0.3,0-0.6-0.3-0.6-0.6c0-0.3,0.3-0.6,0.6-0.6c0,0,0,0,0,0
					C62.1,92.2,62.4,92.5,62.4,92.8C62.4,92.8,62.4,92.8,62.4,92.8z"/>
				<path class="st8" d="M38,92.5c0,0.3-0.3,0.6-0.6,0.6s-0.6-0.3-0.6-0.6c0-0.3,0.3-0.6,0.6-0.6h0C37.7,91.9,38,92.1,38,92.5z"/>
				<path class="st8" d="M68,115.9c0,0.3-0.3,0.6-0.6,0.6s-0.6-0.3-0.6-0.6s0.3-0.6,0.6-0.6h0C67.7,115.3,68,115.6,68,115.9
					C68,115.9,68,115.9,68,115.9z"/>
				<path class="st8" d="M116.4,74.4c0,0.3-0.3,0.6-0.6,0.6c-0.3,0-0.6-0.3-0.5-0.7c0-0.3,0.2-0.5,0.5-0.5
					C116.2,73.8,116.5,74,116.4,74.4z"/>
				<path class="st8" d="M99.4,60.8c0,0.3-0.3,0.6-0.6,0.6c-0.3,0-0.6-0.2-0.6-0.6c0,0,0,0,0,0c0-0.3,0.3-0.6,0.6-0.6
					C99.1,60.2,99.4,60.5,99.4,60.8z"/>
				<path class="st8" d="M136.1,101.8c0,0.3-0.3,0.6-0.6,0.6s-0.6-0.3-0.6-0.6c0-0.3,0.3-0.6,0.6-0.6S136.1,101.4,136.1,101.8
					L136.1,101.8z"/>
				<path class="st8" d="M146.2,120.2c0,0.3-0.2,0.6-0.6,0.6c0,0,0,0,0,0c-0.3,0-0.6-0.3-0.6-0.6c0-0.3,0.3-0.6,0.6-0.6
					C145.9,119.6,146.2,119.9,146.2,120.2C146.2,120.2,146.2,120.2,146.2,120.2z"/>
				<path class="st8" d="M76.6,68.5c0,0.3-0.3,0.6-0.6,0.6c-0.3,0-0.6-0.3-0.6-0.6c0-0.3,0.3-0.6,0.6-0.5c0,0,0,0,0,0
					C76.3,68,76.5,68.2,76.6,68.5z"/>
				<path class="st8" d="M154.5,92.3c0,0.3-0.3,0.6-0.6,0.6s-0.6-0.3-0.6-0.6c0-0.3,0.3-0.6,0.6-0.6l0,0
					C154.2,91.7,154.5,92,154.5,92.3C154.5,92.3,154.5,92.3,154.5,92.3z"/>
				<path class="st8" d="M161.4,71.2c0,0.3-0.3,0.6-0.7,0.5c-0.3,0-0.5-0.2-0.5-0.5c0-0.3,0.3-0.6,0.7-0.5
					C161.1,70.8,161.4,71,161.4,71.2z"/>
				<path class="st8" d="M135.4,61.2c0,0.3-0.3,0.6-0.6,0.6c-0.3,0-0.6-0.3-0.6-0.6c0-0.3,0.3-0.6,0.6-0.6
					C135.1,60.6,135.4,60.8,135.4,61.2C135.4,61.2,135.4,61.2,135.4,61.2z"/>
				<path class="st8" d="M51.4,68.5c0,0.3-0.3,0.6-0.7,0.5c-0.3,0-0.5-0.2-0.5-0.5c0-0.3,0.3-0.6,0.7-0.5
					C51.1,68.1,51.3,68.3,51.4,68.5z"/>
				<path class="st8" d="M180.2,89c0,0.3-0.3,0.6-0.6,0.6S179,89.4,179,89c0-0.3,0.3-0.6,0.6-0.6c0,0,0,0,0,0
					C179.9,88.4,180.2,88.7,180.2,89z"/>
				<path class="st8" d="M170.3,114.9c0,0.3-0.3,0.6-0.6,0.6s-0.6-0.3-0.6-0.6c0-0.3,0.3-0.6,0.6-0.6
					C170.1,114.3,170.3,114.5,170.3,114.9C170.3,114.9,170.3,114.9,170.3,114.9z"/>
				<path class="st8" d="M182.5,67.3c0,0.3-0.3,0.6-0.6,0.6s-0.6-0.3-0.6-0.6c0-0.3,0.3-0.6,0.6-0.6c0,0,0,0,0,0
					C182.2,66.7,182.5,67,182.5,67.3z"/>
			</g>
		</g>
	</g>
</g>
</svg>
