<?xml version="1.0" encoding="utf-8"?>
<!-- Generator: Adobe Illustrator 25.2.3, SVG Export Plug-In . SVG Version: 6.00 Build 0)  -->
<svg version="1.1" id="Layer_1" xmlns="http://www.w3.org/2000/svg" xmlns:xlink="http://www.w3.org/1999/xlink" x="0px" y="0px"
	 viewBox="0 0 231.7 375.8" style="enable-background:new 0 0 231.7 375.8;" xml:space="preserve">
<style type="text/css">
	.st0{fill:#F4B155;}
	.st1{fill:#FFF0CC;}
	.st2{fill:#231F20;}
	.st3{fill:#A4F6FF;}
	.st4{clip-path:url(#SVGID_2_);}
	.st5{fill:#5BA587;}
	.st6{fill:none;}
	.st7{fill:#FFFFFF;}
	.st8{fill:#F5B155;}
	.st9{fill:#F4C758;}
	.st10{fill:#FFD351;}
	.st11{fill:#EE915B;}
	.st12{fill:#FFF8C2;}
	.st13{fill:#E6705F;}
	.st14{fill:#FFD871;}
	.st15{fill:#975A12;}
	.st16{fill:#4A355B;}
	.st17{fill:#D6306A;}
	.st18{fill:#FFD150;}
	.st19{fill:#F4B055;}
	.st20{fill:#DC4F64;}
	.st21{fill:#E4705E;}
	.st22{fill:#F1F2F2;}
	.st23{fill:#47372E;}
	.st24{fill:#DD4F65;}
</style>
<g id="Layer_2_1_">
	<g id="Layer_1-2">
		<path class="st0" d="M231.7,14.3v347.3c0,7.9-6.6,14.2-14.8,14.2H14.8c-8,0.1-14.6-6.2-14.8-14.2V14.3C0.2,6.2,6.8-0.1,14.8,0
			h202.1C225.1,0,231.7,6.4,231.7,14.3z M219.3,353.3V22.5c0-5.9-4.8-10.7-10.7-10.7H23.1c-5.9,0-10.7,4.8-10.7,10.7v330.8
			c0,5.9,4.8,10.7,10.6,10.7c0,0,0,0,0,0h185.5C214.5,364,219.3,359.2,219.3,353.3C219.3,353.3,219.3,353.3,219.3,353.3L219.3,353.3
			z"/>
		<path class="st1" d="M23.1,11.9h185.5c5.9,0,10.7,4.8,10.7,10.7v330.8c0,5.9-4.8,10.7-10.7,10.7H23.1c-5.9,0-10.7-4.8-10.7-10.7
			V22.5C12.4,16.6,17.2,11.9,23.1,11.9z"/>
		<path class="st2" d="M36.9,325.5c-0.1-0.1-0.2-0.3-0.2-0.5V315c0-0.2,0-0.3,0.2-0.5c0.1-0.1,0.3-0.2,0.5-0.1h0.9
			c0.2,0,0.3,0,0.5,0.1c0.1,0.1,0.2,0.3,0.2,0.5v10.1c0,0.2,0,0.3-0.1,0.5c-0.1,0.1-0.3,0.2-0.5,0.1h-0.9
			C37.2,325.7,37,325.6,36.9,325.5z M43.6,325.6c-0.1,0-0.1-0.1-0.2-0.1l-4-4.8c-0.1-0.1-0.2-0.2-0.2-0.3c0-0.1-0.1-0.2-0.1-0.4
			c0-0.1,0-0.2,0.1-0.3c0.1-0.1,0.1-0.2,0.2-0.3l3.9-4.8c0-0.1,0.1-0.1,0.2-0.2c0.1,0,0.2,0,0.3,0h1.5c0.1,0,0.1,0,0.2,0.1
			c0,0,0.1,0.1,0.1,0.2c0,0.1,0,0.2-0.1,0.2l-4.3,5.1l4.4,5.2c0.1,0.1,0.1,0.1,0.1,0.2c0,0.1,0,0.1-0.1,0.2c-0.1,0-0.1,0.1-0.2,0.1
			h-1.6C43.7,325.7,43.7,325.7,43.6,325.6L43.6,325.6z"/>
		<path class="st2" d="M46.8,325.5c-0.1-0.1-0.2-0.3-0.1-0.5V315c0-0.2,0-0.3,0.1-0.5c0.1-0.1,0.3-0.2,0.5-0.1h0.8
			c0.1,0,0.2,0,0.4,0.1c0.1,0.1,0.2,0.2,0.3,0.3l5.5,7.6V315c0-0.2,0-0.3,0.1-0.5c0.1-0.1,0.3-0.2,0.5-0.1h0.9c0.2,0,0.3,0,0.5,0.1
			c0.1,0.1,0.2,0.3,0.2,0.5v10.1c0,0.2,0,0.3-0.1,0.5c-0.1,0.1-0.3,0.2-0.5,0.1h-0.8c-0.1,0-0.2,0-0.3,0c-0.1-0.1-0.2-0.2-0.3-0.3
			l-5.5-7.6v7.3c0,0.2,0,0.3-0.1,0.5c-0.1,0.1-0.3,0.2-0.5,0.1h-0.9C47.1,325.7,47,325.6,46.8,325.5z"/>
		<path class="st2" d="M58.4,325.5c-0.1-0.1-0.2-0.3-0.1-0.5V315c0-0.2,0-0.3,0.1-0.5c0.1-0.1,0.3-0.2,0.5-0.1h0.9
			c0.2,0,0.3,0,0.5,0.1c0.1,0.1,0.2,0.3,0.2,0.5v10.1c0,0.2,0,0.3-0.1,0.5c-0.1,0.1-0.3,0.2-0.5,0.1h-0.9
			C58.7,325.7,58.6,325.6,58.4,325.5z"/>
		<path class="st2" d="M63.6,324.4c-2.1-2.5-2.1-6.2,0-8.7c1.2-1.1,2.8-1.6,4.4-1.5c0.7,0,1.4,0.1,2.1,0.2c0.6,0.1,1.1,0.3,1.6,0.7
			c0.1,0,0.1,0.1,0.2,0.2c0,0.1,0,0.1-0.1,0.2l-0.5,0.8c-0.1,0.1-0.1,0.1-0.2,0.1c-0.1,0-0.1,0-0.2-0.1c-0.8-0.4-1.8-0.7-2.7-0.6
			c-1.1-0.1-2.2,0.3-3,1.1c-0.8,0.9-1.2,2-1.1,3.2c-0.1,1.2,0.3,2.4,1.1,3.3c0.8,0.7,1.8,1.1,2.9,1.1c0.4,0,0.9,0,1.3-0.1
			c0.3-0.1,0.7-0.2,1-0.3v-3.1h-2.2c-0.2,0-0.3,0-0.5-0.1c-0.1-0.1-0.1-0.3-0.1-0.5v-0.4c0-0.2,0-0.3,0.1-0.5
			c0.1-0.1,0.3-0.1,0.5-0.1h3.5c0.2,0,0.4,0,0.5,0.2c0.1,0.2,0.2,0.3,0.2,0.5v4.4c0,0.1,0,0.3-0.1,0.4c0,0.1-0.1,0.2-0.2,0.2
			c-1.3,0.7-2.7,1.1-4.2,1C66.3,326,64.8,325.5,63.6,324.4z"/>
		<path class="st2" d="M74.1,325.5c-0.1-0.1-0.2-0.3-0.1-0.5V315c0-0.2,0-0.3,0.1-0.5c0.1-0.1,0.3-0.2,0.5-0.1h0.9
			c0.2,0,0.3,0,0.5,0.1c0.1,0.1,0.2,0.3,0.2,0.5v4.2h5.4V315c0-0.2,0-0.3,0.2-0.5c0.1-0.1,0.3-0.2,0.5-0.1h0.9c0.2,0,0.3,0,0.5,0.1
			c0.1,0.1,0.2,0.3,0.2,0.5v10.1c0,0.2,0,0.3-0.1,0.5c-0.1,0.1-0.3,0.2-0.5,0.1h-0.9c-0.2,0-0.3,0-0.5-0.1c-0.1-0.1-0.2-0.3-0.2-0.5
			v-4.3h-5.5v4.3c0,0.2,0,0.3-0.1,0.5c-0.1,0.1-0.3,0.2-0.5,0.1h-0.9C74.4,325.7,74.3,325.6,74.1,325.5z"/>
		<path class="st2" d="M88.6,325.5c-0.1-0.1-0.2-0.3-0.2-0.5V316h-2.9c-0.2,0-0.3,0-0.5-0.1c-0.1-0.1-0.1-0.3-0.1-0.5V315
			c0-0.2,0-0.3,0.1-0.5c0.1-0.1,0.3-0.2,0.5-0.1h7.9c0.2,0,0.3,0,0.5,0.1c0.1,0.1,0.2,0.3,0.1,0.5v0.5c0.1,0.3-0.1,0.5-0.4,0.6
			c-0.1,0-0.1,0-0.2,0h-2.9v9.1c0,0.2,0,0.3-0.1,0.5c-0.1,0.1-0.3,0.2-0.5,0.1h-0.9C88.9,325.7,88.8,325.6,88.6,325.5z"/>
		<path class="st2" d="M103,324.4c-2-2.6-2-6.1,0-8.7c2.4-2.1,6-2.1,8.4,0c2,2.6,2,6.1,0,8.7C109,326.4,105.4,326.4,103,324.4z
			 M109.9,323.3c0.7-0.9,1-2.1,0.9-3.2c0.1-1.1-0.2-2.3-0.9-3.2c-1.5-1.5-3.9-1.5-5.3,0c-0.7,0.9-1,2.1-0.9,3.2
			c-0.1,1.2,0.2,2.3,0.9,3.2C106,324.7,108.4,324.7,109.9,323.3z"/>
		<path class="st2" d="M114.7,325.5c-0.1-0.1-0.2-0.3-0.1-0.5V315c0-0.2,0-0.3,0.1-0.5c0.1-0.1,0.3-0.2,0.5-0.1h6.9
			c0.2,0,0.3,0,0.4,0.1c0.1,0.1,0.1,0.3,0.1,0.5v0.4c0,0.2,0,0.3-0.1,0.5c-0.1,0.1-0.3,0.2-0.4,0.1h-5.4v3.2h3.9
			c0.3-0.1,0.5,0.1,0.6,0.4c0,0.1,0,0.1,0,0.2v0.5c0,0.2,0,0.3-0.1,0.5c-0.1,0.1-0.3,0.2-0.5,0.1h-3.9v4.2c0,0.2,0,0.3-0.1,0.5
			c-0.1,0.1-0.3,0.2-0.5,0.1h-0.9C115,325.7,114.8,325.6,114.7,325.5z"/>
		<path class="st2" d="M133.5,325.6c-0.1-0.1-0.2-0.2-0.2-0.4l-3.1-12.2c0-0.1,0-0.1,0-0.2c0-0.2,0.1-0.3,0.4-0.3h1.6
			c0.1,0,0.3,0,0.4,0.1c0.1,0.1,0.1,0.2,0.2,0.3l1.9,8.5l2.3-7.5c0-0.1,0.1-0.2,0.2-0.3c0.1-0.1,0.2-0.1,0.4-0.1h0.9
			c0.1,0,0.3,0,0.4,0.1c0.1,0.1,0.1,0.2,0.2,0.3l2.4,7.5l1.9-8.5c0-0.1,0.1-0.2,0.2-0.3c0.1-0.1,0.3-0.1,0.4-0.1h1.6
			c0.2,0,0.4,0.1,0.4,0.3c0,0.1,0,0.1,0,0.2l-3.1,12.2c0,0.1-0.1,0.3-0.2,0.4c-0.1,0.1-0.3,0.1-0.4,0.1h-1c-0.3,0.1-0.6-0.1-0.6-0.4
			c0,0,0,0,0,0l-2.4-7.8l-2.3,7.8c0,0.1-0.1,0.3-0.2,0.4c-0.1,0.1-0.3,0.1-0.4,0.1h-1C133.8,325.7,133.7,325.7,133.5,325.6z"/>
		<path class="st2" d="M145.3,325.4c0-0.1,0-0.2,0.1-0.2l5.1-12.1c0.1-0.1,0.1-0.3,0.2-0.4c0.1-0.1,0.3-0.1,0.4-0.1h1.1
			c0.1,0,0.3,0,0.4,0.1c0.1,0.1,0.2,0.3,0.2,0.4l5.1,12.1c0,0.1,0.1,0.2,0.1,0.2c0,0.2-0.1,0.3-0.3,0.3h-1.7c-0.1,0-0.2,0-0.4-0.1
			c-0.1-0.1-0.2-0.2-0.2-0.3l-1.1-2.7h-5.3l-1.1,2.7c0,0.1-0.1,0.2-0.2,0.3c-0.1,0-0.2,0.1-0.4,0.1h-1.7
			C145.4,325.7,145.3,325.6,145.3,325.4z M153.6,320.8l-2-5.1l-2.1,5.1H153.6z"/>
		<path class="st2" d="M160,325.5c-0.1-0.1-0.2-0.3-0.2-0.5v-11.8c0-0.2,0-0.4,0.2-0.5c0.2-0.1,0.4-0.2,0.6-0.2h0.9
			c0.1,0,0.3,0,0.4,0.1c0.1,0.1,0.2,0.2,0.3,0.3l6.4,8.9v-8.5c0-0.2,0-0.4,0.2-0.5c0.2-0.1,0.4-0.2,0.6-0.2h1c0.2,0,0.4,0,0.6,0.2
			c0.1,0.2,0.2,0.3,0.2,0.5V325c0,0.2,0,0.4-0.2,0.5c-0.2,0.1-0.4,0.2-0.6,0.2h-0.9c-0.1,0-0.3,0-0.4-0.1c-0.1-0.1-0.2-0.2-0.3-0.3
			l-6.4-8.9v8.5c0,0.2,0,0.4-0.2,0.5c-0.2,0.1-0.4,0.2-0.6,0.2h-1C160.3,325.7,160.1,325.6,160,325.5z"/>
		<path class="st2" d="M173.5,325.5c-0.1-0.1-0.2-0.3-0.2-0.5v-11.8c0-0.2,0-0.4,0.2-0.5c0.2-0.1,0.4-0.2,0.6-0.2h3.9
			c1.8-0.1,3.6,0.4,5,1.6c1.2,1,1.7,2.7,1.7,5c0,4.4-2.2,6.6-6.7,6.6h-3.9C173.9,325.7,173.7,325.6,173.5,325.5z M178.1,323.8
			c1.1,0.1,2.3-0.3,3.1-1.1c1.4-2.2,1.4-5,0-7.3c-0.8-0.8-2-1.1-3.1-1.1h-2.3v9.4H178.1z"/>
		<path class="st2" d="M187.7,325.7c-0.8-0.2-1.5-0.4-2.1-0.9c-0.2-0.1-0.2-0.2-0.2-0.3c0-0.1,0-0.2,0.1-0.2l0.6-1
			c0.1-0.1,0.1-0.2,0.2-0.2c0.1,0,0.2,0,0.2,0.1c0.5,0.3,1.1,0.5,1.7,0.7c0.6,0.2,1.3,0.3,1.9,0.3c0.7,0,1.4-0.1,2-0.4
			c0.5-0.3,0.7-0.8,0.7-1.4c0-0.3-0.1-0.7-0.2-0.9c-0.2-0.3-0.4-0.5-0.7-0.6c-0.5-0.3-1-0.5-1.6-0.7l-0.4-0.2
			c-0.7-0.3-1.4-0.6-2.1-1c-0.5-0.3-1-0.7-1.4-1.2c-0.4-0.5-0.6-1.2-0.5-1.8c0-1.1,0.5-2.1,1.3-2.7c1-0.7,2.3-1,3.5-1
			c0.8,0,1.6,0.1,2.3,0.2c0.6,0.1,1.2,0.4,1.7,0.8c0.1,0.1,0.2,0.2,0.2,0.3c0,0.1,0,0.2-0.1,0.2l-0.6,1c-0.1,0.1-0.1,0.2-0.2,0.2
			c-0.1,0-0.2-0.1-0.2-0.1c-0.9-0.6-2-0.8-3.1-0.8c-0.6,0-1.3,0.1-1.8,0.4c-0.4,0.3-0.7,0.9-0.6,1.4c0,0.3,0.1,0.7,0.3,1
			c0.2,0.3,0.5,0.5,0.8,0.6c0.3,0.2,0.9,0.4,1.6,0.7l0.5,0.2c0.8,0.3,1.5,0.6,2.2,1c0.5,0.3,0.9,0.7,1.2,1.2
			c0.3,0.6,0.5,1.2,0.4,1.8c0.1,1.1-0.4,2.1-1.2,2.7c-1,0.7-2.3,1.1-3.6,1C189.5,326,188.6,325.9,187.7,325.7z"/>
		<path class="st3" d="M52.3,43.3h127.1c13.5,0,24.4,10.9,24.4,24.4v189.6c0,13.5-10.9,24.4-24.4,24.4H52.3
			c-13.5,0-24.4-10.9-24.4-24.4V67.7C27.8,54.2,38.8,43.3,52.3,43.3z"/>
		<g>
			<defs>
				<path id="SVGID_1_" d="M52.3,43.3h127.1c13.5,0,24.4,10.9,24.4,24.4v189.6c0,13.5-10.9,24.4-24.4,24.4H52.3
					c-13.5,0-24.4-10.9-24.4-24.4V67.7C27.8,54.2,38.8,43.3,52.3,43.3z"/>
			</defs>
			<clipPath id="SVGID_2_">
				<use xlink:href="#SVGID_1_"  style="overflow:visible;"/>
			</clipPath>
			<g class="st4">
				<rect x="28.9" y="284.5" class="st5" width="174.5" height="19.7"/>
				<rect x="28.9" y="-3.2" class="st6" width="174.5" height="307.4"/>
				<polygon class="st3" points="207.9,1.1 24.6,1.1 24.6,195.1 24.6,217.6 24.6,323.9 207.8,323.9 207.8,217.6 207.9,217.6 				"/>
				<path class="st7" d="M85.3,237.6H-1.2c-6.2,0-11.2-5-11.2-11.2l0,0c0-6.2,5-11.1,11.2-11.2h86.5c6.2,0,11.2,5,11.2,11.2l0,0
					C96.4,232.6,91.4,237.6,85.3,237.6z"/>
				<circle class="st7" cx="31" cy="209.8" r="27.8"/>
				
					<ellipse transform="matrix(8.246040e-02 -0.9966 0.9966 8.246040e-02 -160.6009 261.1648)" class="st7" cx="61.5" cy="217.8" rx="19.8" ry="19.8"/>
				<path class="st7" d="M74.6,99.8H44.8c-2.1,0-3.8-1.7-3.9-3.8l0,0c0-2.1,1.7-3.9,3.8-3.9c0,0,0,0,0,0h29.8c2.1,0,3.9,1.7,3.9,3.9
					l0,0C78.5,98,76.7,99.7,74.6,99.8C74.6,99.8,74.6,99.8,74.6,99.8z"/>
				<circle class="st7" cx="55.9" cy="90.2" r="9.6"/>
				<circle class="st7" cx="66.4" cy="92.9" r="6.8"/>
				<path class="st7" d="M163,122h20c1.4,0,2.6-1.2,2.6-2.6l0,0c0-1.4-1.2-2.6-2.6-2.6h-20c-1.4,0-2.6,1.2-2.6,2.6l0,0
					C160.4,120.8,161.6,122,163,122z"/>
				<ellipse class="st7" cx="175.5" cy="115.5" rx="6.4" ry="6.5"/>
				<path class="st7" d="M163.9,117.4c0,2.5,2.1,4.6,4.6,4.5c2.5,0,4.6-2.1,4.5-4.6c0-2.5-2.1-4.5-4.6-4.5
					C165.9,112.8,163.9,114.8,163.9,117.4z"/>
				<path class="st7" d="M258.2,230.9H139c-8.5,0-15.4-6.9-15.4-15.4v0c0-8.5,6.9-15.4,15.4-15.4h119.3c8.5,0,15.4,6.9,15.4,15.4v0
					C273.6,224,266.7,230.9,258.2,230.9z"/>
				
					<ellipse transform="matrix(0.1602 -0.9871 0.9871 0.1602 -10.566 372.7253)" class="st7" cx="213.8" cy="192.6" rx="38.3" ry="38.3"/>
				<circle class="st7" cx="171.7" cy="203.6" r="27.3"/>
				<polygon class="st8" points="-8.7,228.7 19.5,213.6 67.5,223.1 100,200.4 155.3,218.2 190.4,205.6 257,231.1 257,286.2 
					-8.7,286.2 				"/>
				<polygon class="st9" points="-8.7,243.3 56.5,215.7 109.1,237.2 160.4,208.3 216.2,231.1 257,213.6 257,286.2 -8.7,286.2 				
					"/>
				<polygon class="st10" points="243.3,259.8 23.2,259.8 23.2,351.3 23.2,361.9 23.2,412.1 243.2,412.1 243.2,361.9 243.3,361.9 
									"/>
				<path class="st11" d="M57.7,211.2c0,0-7.4,1.4-8.7,4s3.4,5.9,4.2,6.3S57.8,213.9,57.7,211.2z"/>
				<path class="st8" d="M63.3,187.7c-4.1-0.7-5.1,7.6-6,9.5s-7.9,17.2-7.9,17.2l7.3,0.8c0.9-3.9,2.2-5.1,4.8-9c3-4.6,3-12.4,4.4-11
					c0.6,0.5,6.2,3.6,12.2,7.5L77,191.8C72.5,190.1,68,188.7,63.3,187.7z"/>
				<path class="st12" d="M97,186.6c-3-2.9-4.5-7.1-3.9-11.2c0.7-4.8,12.4-20.9,2.9-28.6s-14.9-9-20.3-12.5
					c-6.1-4-18.7-14.3-21-11.5s0.9,9.6,3.2,10.9c0,0-1.5,2.5-0.3,4.4c1,1.5,2.2,2.8,3.5,3.9c0,0-1.8,2.9-0.1,4.7
					c0.9,1,1.9,1.9,2.9,2.6c0,0-1.6,3.1-0.1,4.9c1.1,1.3,2.3,2.5,3.5,3.6c0,0-1.3,2.1,1.4,4.6l2.7,2.5c-0.5,1.9,0.4,4,2.2,4.8
					c3.2,1.8,3.7,2.1,3.7,2.1c-0.6,1.4-0.1,3.1,1.1,3.9c1.1,0.8,2.3,1.4,3.6,1.7c0,0-0.8,0.5,0.9,2.2s5.9,0.7,6.5,5.3L97,186.6z"/>
				<path class="st8" d="M92.5,183.7c-1.1-3.3-2.9-10-0.3-15.3c2.9-5.9,1.2-5.3-0.3-9.6c-0.8-2.2-0.6-2.3,0.7-2.9s-0.7-2.5-2-3.8
					c-2.4-2.5-0.6-3.9-0.6-3.9s-10.8-6.6-9.5-10.4s7,2.6,13.5,6.8s7.6,9.2,6.2,14.5s-6.1,13.5-6,17.2s-0.7,4.4,1.9,7L92.5,183.7z"/>
				<path class="st13" d="M157.2,194.7c0.9,7.2,1.1,11.2,7.8,13.2s9.8,15.5,4.8,18.8s-8.2-1.7-8.2-1.7s-1.6,5,5.2,6.1
					c11.1,1.8,14.1-11.4,12.7-23.6s-7.4-18.7-14-19.6c-5.5-0.8-9,1.1-13.9,4.2c-0.7,0.4-0.4,3.1,1.8,1.4
					C154.3,192.7,156.9,192.6,157.2,194.7z"/>
				<path class="st8" d="M117.4,212.1c7.4,11.2,16,20.3,16.6,24s-8,19.2-8,19.2l7.6-3.6c1.3-4.3,2.9-8.4,4.7-12.5
					c2.2-4.4,5-6.5,0.4-10.1s-2.2-13.1,0.8-19.6S117.4,212.1,117.4,212.1z"/>
				<path class="st11" d="M133.6,251.8c0,0-6,0.5-7.3,2.7s1.9,5.8,2.5,6.3S133.3,254.2,133.6,251.8z"/>
				<path class="st11" d="M75.5,232.2c0,0-4.4,4.7-4,7.4s5.7,3.3,6.5,3.3S77,234.3,75.5,232.2z"/>
				<path class="st14" d="M64.5,159.2c-6.4-1.6-6.7-3.4-6.7-3.4c0.2-4.6-4.2-9.4-4.3-6.8c-0.2,4.5-1.5,8.9-3.8,12.7
					c-3.2,5.2,2.6,15,4.8,16.4c1.8,1.1,1.8,6.4,3.6,11.7c1.4,4.2,4,3.5,6.5,1.9c2.5-1.6,1-7.5,1.1-11.1s4.4-5.5,3.2-11.3
					c1.2-0.1,2.4-0.1,3.6,0C72,165.2,69.2,160.3,64.5,159.2z"/>
				<path class="st14" d="M155.9,228.4c-3.2-2.1,3.2-20,0.1-32.4s-22.4-9.9-30-9.6c-1.6,0.1-3,0.2-4.4,0.2l0,0
					c-16.6,4.5-23.9-12.5-23.9-12.5c1,11.1-6.1,15.8-6.1,15.8c2-8.8-5.9-12.5-5.9-12.5c4.2,10.6-5.4,20.1-5.4,20.1
					c2.5-3.7,1.8-8.2-1.8-11.1c-0.4-0.3-0.7-0.6-1.1-1c-3.2,3.2-5,7.9-3.3,12.2c2,5,5.8,9.2,4.6,9.3c-4.1,0.7-8.1,1.7-12,3
					c-3.3,1.4,0.6,8.7,1,10.7s3.9,18,3.9,18l5.6-2.8c-1.5-3.7-1.5-5.2-1.6-9.7s-4.5-11.1-3-11.3s25.8,0.9,31.8,2.4s19.7,2,24.4,1.2
					s8.4,1.3,10.1,5.9c1.3,3.5,15.5,12.9,16.4,14.3s-0.7,14.9-1.2,18.9c-0.2,1.7-3.4,5.6-3.5,5.7l4.6,3.7c1.6-2.6,2.9-5.3,3.9-8.2
					c0.6-2.3-0.1-13.2,1.9-21.1S159.1,230.5,155.9,228.4z"/>
				<path class="st13" d="M79.2,183.6c3.6-2.6,1.4-9.3-1-11.9c-1.4-1.5-3.7-2.1-5.7-2.4c1.1,0.6,1.3,2.6,0.9,4.9
					c-0.8,4.1,0.6,8.3,3.7,11.2C77.8,184.7,78.5,184.2,79.2,183.6z"/>
				<path class="st13" d="M80.1,197.5c0,0,9.6-9.5,5.4-20.1c0,0,8,3.6,5.9,12.5c0,0,7.1-4.7,6.1-15.8c0,0,7.4,17,23.9,12.5l0,0
					c-5.3,0-9.7-1.8-15.1-15.6c-6.6-16.8-28.5-24.4-37.8-23.5c-4.7,0.5-10.5,1.4-12.1,3.3l1.3,4.9c0,0,0.3,1.9,6.7,3.4
					c4.7,1.1,7.5,6,8,10.1c2,0.2,4.3,0.8,5.7,2.4c2.4,2.6,4.6,9.4,1,11.9c-0.7,0.5-1.4,1.1-2,1.8c0.4,0.4,0.7,0.7,1.1,1
					C81.9,189.3,82.6,193.8,80.1,197.5z"/>
				<path class="st13" d="M57.8,155.8c0,0,2.3,4.6,5.4,6.2c3.1,1.6,7.8,8.5,7.1,11c1.4-1.2,2.2-3,2.1-4.9c-0.2-3-4.8-14-4.8-14
					L57.8,155.8z"/>
				<path class="st13" d="M53.2,151.6l-4.2,7c-1.3,2.2-4.2,10.7-0.7,15.5s1.7,8.2,0.6,8.7c0,0,4.5-1.6,3.3-9.4
					c0.6,0.8,1.4,1.5,2.2,2c0,0-2.5-8.2-1-12.5s0.7-3.8,0.2-5.2L53.2,151.6z"/>
				<path class="st14" d="M57.6,184.9c-0.1,1.6-1,5.1,1.1,6.3s2.4,1.8,3.2,1.6s1-5.1,1-5.1L57.6,184.9z"/>
				<path class="st15" d="M59.3,189.1c0.2,0.6,0.2,1.1-0.1,1.2s-0.6-0.3-0.8-0.9s-0.2-1.1,0.1-1.2S59.1,188.5,59.3,189.1z"/>
				<path class="st11" d="M155.9,266.9c0,0-3-4.1-5.5-4.3s-4.2,3.3-4.4,3.9S153.6,267.6,155.9,266.9z"/>
				<path class="st16" d="M57.7,176.2L57.7,176.2c-0.6,0.1-1.2-0.2-1.3-0.8l-0.5-2c-0.1-0.6,0.2-1.2,0.8-1.4l0,0
					c0.6-0.1,1.2,0.2,1.3,0.8l0.5,2C58.6,175.5,58.3,176.1,57.7,176.2z"/>
				<path class="st17" d="M125.2,145.6c0.2-3.9-2.9-7.2-6.8-7.4l0,0c-3.9-0.2-7.2,2.9-7.4,6.8l-0.2,4.7l14.2,0.6L125.2,145.6z"/>
				<path class="st8" d="M141.7,187.8l-27.8-1.2c-0.9,0-1.6-0.8-1.6-1.7l1.4-31.7c0.4-8.3,7.4-14.7,15.6-14.4l1.1,0.1
					c8.3,0.4,14.7,7.4,14.4,15.6l-1.4,31.7C143.4,187.1,142.6,187.8,141.7,187.8C141.7,187.8,141.7,187.8,141.7,187.8z"/>
				<path class="st18" d="M129.9,126.5l0.3,0c2,0.1,3.6,1.8,3.5,3.8l-0.3,8.1c-0.1,2-1.8,3.6-3.8,3.5l-0.3,0c-2-0.1-3.6-1.8-3.5-3.8
					l0.3-8.1C126.1,128,127.8,126.5,129.9,126.5z"/>
				<path class="st19" d="M125.7,138.1c0,0,3.9,2.4,7.6,0.4l0.1-1.3l-7.6-0.3L125.7,138.1z"/>
				<path class="st18" d="M130.2,112.2l0.9,0c6.7,0.3,11.9,6,11.6,12.7l-0.1,2c-0.3,6.7-6,11.9-12.7,11.6l-0.9,0
					c-6.7-0.3-11.9-6-11.6-12.7l0.1-2C117.8,117.1,123.4,111.9,130.2,112.2z"/>
				<path class="st8" d="M139.1,120.3l1.3,0.1c1.4,0.1,2.5,1.3,2.5,2.7l-0.4,9.9c-0.1,1.4-1.3,2.5-2.7,2.5l-1.3-0.1
					c-1.4-0.1-2.5-1.3-2.5-2.7l0.4-9.9C136.4,121.3,137.7,120.2,139.1,120.3z"/>
				<path class="st19" d="M126.1,128.8c-0.7,0-1.4,0.5-1.4,1.3c0,0,0,0,0,0l2.7,0.1C127.4,129.4,126.8,128.8,126.1,128.8
					C126.1,128.8,126.1,128.8,126.1,128.8z"/>
				<path class="st16" d="M128.6,132.9c0.8,0,1.5,0.7,1.4,1.5c0,0,0,0,0,0c0,0.2-0.1,0.4-0.1,0.5l2.2,0.1c0.1-2.2-1.6-4-3.7-4.1
					c-1.4-0.1-2.7,0.6-3.5,1.8h0.3L128.6,132.9z"/>
				<path class="st20" d="M129.9,135c0.1-0.2,0.1-0.3,0.1-0.5c0-0.8-0.6-1.5-1.4-1.5c0,0,0,0,0,0l-3.4-0.1h-0.3
					c-0.4,0.6-0.6,1.3-0.6,2L129.9,135z"/>
				<path class="st16" d="M122.4,127.1c0,0.6-0.4,1-1,1s-1-0.4-1-1c0-0.6,0.4-1,1-1c0,0,0,0,0.1,0
					C122,126.1,122.4,126.6,122.4,127.1z"/>
				<path class="st16" d="M132.4,127.9c0,0.6-0.4,1-1,1c-0.6,0-1-0.4-1-1s0.4-1,1-1c0,0,0,0,0.1,0
					C132,126.9,132.5,127.3,132.4,127.9z"/>
				<path class="st18" d="M131.7,185.6l0,0.3c0.1,2.5-1.8,4.5-4.3,4.6l0,0l-13.2,0.5c-2.5,0.1-4.5-1.8-4.6-4.3c0,0,0,0,0,0l0-0.3
					c-0.1-2.5,1.8-4.5,4.3-4.6l0,0l13.2-0.5C129.6,181.2,131.7,183.1,131.7,185.6L131.7,185.6z"/>
				<path class="st18" d="M95.1,210.4l1-0.6c0.5-0.3,1.1-0.4,1.8-0.4l3.6,0.4c0,0,0-0.1,0-0.1l1.9-6l1.4-4.4l4.5-14
					c0.7-2.6,3.4-4.1,6-3.4c2.6,0.7,4.1,3.4,3.4,6c0,0.1-0.1,0.3-0.1,0.4l-4.5,14l-1.4,4.4l-1.7,5.2c0.5,0.7,0.7,1.7,0.4,2.6l-1,3
					c-0.5,1.5-2.1,2.4-3.7,1.9c0,0,0,0,0,0l-11.1-3.6c-1.5-0.5-2.3-2.2-1.8-3.7C94,211.4,94.4,210.8,95.1,210.4z"/>
				<path class="st21" d="M109.1,188.4l8.4,2.7c0.5,0.2,0.7,0.7,0.6,1.1l0,0.1c-0.2,0.5-0.7,0.7-1.1,0.6l-8.4-2.7
					c-0.5-0.2-0.7-0.7-0.6-1.1l0-0.1C108.1,188.5,108.6,188.2,109.1,188.4z"/>
				<path class="st21" d="M117.2,192.2L117.2,192.2c0.4,0.5,0.3,1.2-0.2,1.5l-10.7,7.5c-0.5,0.3-1.1,0.2-1.4-0.3l0-0.1
					c-0.3-0.5-0.2-1.1,0.3-1.4l10.7-7.5C116.2,191.6,116.9,191.7,117.2,192.2z"/>
				<path class="st21" d="M113.7,203.6L113.7,203.6c-0.5,0.2-1.1-0.1-1.2-0.5l-4.4-12.5c-0.2-0.5,0.1-1,0.6-1.2l0.1,0
					c0.5-0.2,1,0.1,1.2,0.6l4.4,12.5C114.4,202.9,114.2,203.5,113.7,203.6z"/>
				<path class="st21" d="M101.6,211L101.6,211c-0.3-0.5-0.2-1.1,0.2-1.5c0,0,0,0,0,0l10.7-7.5c0.4-0.3,1.1-0.2,1.4,0.2c0,0,0,0,0,0
					v0.1c0.3,0.4,0.2,1.1-0.2,1.4c0,0,0,0,0,0l-10.7,7.5C102.6,211.5,102,211.4,101.6,211z"/>
				<path class="st21" d="M110.3,213.7L110.3,213.7c-0.6,0.2-1.2-0.1-1.4-0.6l-4.3-12.3c-0.2-0.5,0.1-1.1,0.6-1.3l0.1,0
					c0.5-0.2,1.1,0.1,1.3,0.6l4.3,12.3C111.1,213,110.9,213.5,110.3,213.7z"/>
				<path class="st21" d="M97.7,209.4L97.7,209.4c0.5,0.2,0.7,0.6,0.6,1.1l-1.4,4.3c-0.1,0.4-0.6,0.7-1.1,0.5l-0.1,0
					c-0.4-0.1-0.7-0.6-0.5-1.1l1.4-4.3C96.8,209.5,97.3,209.2,97.7,209.4z"/>
				<path class="st21" d="M101.2,209.7L101.2,209.7c0.5,0.2,0.7,0.6,0.6,1.1l-1.6,5.1c-0.1,0.4-0.6,0.7-1.1,0.5l-0.1,0
					c-0.4-0.1-0.7-0.6-0.5-1.1l1.6-5.1C100.3,209.8,100.8,209.5,101.2,209.7z"/>
				<path class="st21" d="M102.2,209.8l8,2.6c0.5,0.2,0.7,0.7,0.6,1.2l0,0.1c-0.2,0.5-0.7,0.7-1.2,0.6l-8-2.6
					c-0.5-0.2-0.7-0.7-0.6-1.2l0-0.1C101.2,209.9,101.7,209.7,102.2,209.8z"/>
				<path class="st21" d="M109.4,220.5l-15.9-5.1c-0.4-0.1-0.7-0.6-0.5-1.1l0-0.1c0.1-0.4,0.6-0.7,1.1-0.5l15.9,5.1
					c0.4,0.1,0.7,0.6,0.5,1.1l0,0.1C110.4,220.4,109.9,220.7,109.4,220.5z"/>
				<path class="st21" d="M109.4,220.6L109.4,220.6c-0.6-0.2-0.9-0.7-0.7-1.2l2.1-6.5c0.2-0.5,0.7-0.8,1.2-0.6l0.1,0
					c0.5,0.2,0.8,0.7,0.6,1.2l-2.1,6.5C110.5,220.4,109.9,220.7,109.4,220.6z"/>
				<path class="st17" d="M133.6,192l-9.8-0.4l-4.2-11.3l24.4,1l-0.1,1.3C143.6,188,139,192.2,133.6,192
					C133.6,192,133.6,192,133.6,192z"/>
				<path class="st17" d="M112.8,171.6l30.9,1.3c1.1,0,1.9,1,1.9,2l0,0.1c0,1.1-1,1.9-2,1.9l-30.9-1.3c-1.1,0-1.9-1-1.9-2l0-0.1
					C110.9,172.3,111.8,171.5,112.8,171.6z"/>
				<path class="st17" d="M115.8,181.2l0.2,0.2c1.4,1.1,1.6,3.1,0.5,4.5l0,0l-3.3,4.1c-1.1,1.4-3.1,1.6-4.5,0.5h0l-0.2-0.2
					c-1.4-1.1-1.6-3.1-0.5-4.5l0,0l3.3-4.1C112.4,180.3,114.4,180.1,115.8,181.2L115.8,181.2z"/>
				<path class="st8" d="M127,122.5l0.1,0c0.9,0,1.6,0.8,1.6,1.7l-0.2,4.4c0,0.9-0.8,1.6-1.7,1.6l-0.1,0c-0.9,0-1.6-0.8-1.6-1.7
					l0.2-4.4C125.3,123.1,126.1,122.4,127,122.5z"/>
				<path class="st8" d="M135,130.8l3.6,0.2c2.1,0.1,3.7,1.9,3.6,4l0,0.3c-0.1,2.1-1.9,3.7-4,3.6l-3.6-0.2c-2.1-0.1-3.7-1.9-3.6-4
					l0-0.3C131.2,132.4,132.9,130.8,135,130.8z"/>
				<path class="st8" d="M118.1,115L118.1,115c0.7,0,1.3,0.6,1.2,1.3l-0.7,17.3c0,0.7-0.6,1.2-1.3,1.1l-0.1,0
					c-0.7,0-1.2-0.6-1.1-1.3l0.7-17.3C116.9,115.5,117.5,115,118.1,115z"/>
				<path class="st22" d="M128.5,101l0.2,0c1.4,0.1,2.5,1.2,2.4,2.6l-0.5,12c-0.1,1.4-1.2,2.5-2.6,2.4l-0.2,0
					c-1.4-0.1-2.4-1.2-2.4-2.6l0.5-12C126,102,127.1,101,128.5,101L128.5,101z"/>
				<path class="st17" d="M131.1,86.7l0.2,0c1.4,0.1,2.5,1.2,2.4,2.6l-1.1,26.4c-0.1,1.4-1.2,2.5-2.6,2.4l-0.2,0
					c-1.4-0.1-2.4-1.2-2.4-2.6l1.1-26.4C128.5,87.7,129.7,86.7,131.1,86.7z"/>
				<path class="st22" d="M133.4,101.2l0.2,0c1.4,0.1,2.5,1.2,2.4,2.6l-0.5,12c-0.1,1.4-1.2,2.5-2.6,2.4l-0.2,0
					c-1.4-0.1-2.4-1.2-2.4-2.6l0.5-12C130.9,102.2,132.1,101.2,133.4,101.2z"/>
				<path class="st8" d="M119.6,130.6l0.3,0c1.8,0.1,3.2,1.6,3.2,3.4l0,0.3c-0.1,1.8-1.6,3.2-3.4,3.2l-0.3,0
					c-1.8-0.1-3.2-1.6-3.2-3.4l0-0.3C116.2,131.9,117.7,130.5,119.6,130.6z"/>
				<path class="st8" d="M121.3,111.8l17.7,0.8c3.2,0.1,5.8,2.9,5.6,6.1l0,0.4c-0.1,3.2-2.9,5.8-6.1,5.6l-17.7-0.8
					c-3.2-0.1-5.8-2.9-5.6-6.1l0-0.4C115.3,114.2,118.1,111.7,121.3,111.8z"/>
				<path class="st18" d="M126.8,154c-8.1-0.4-14.8-3-20-7.9c-12-11.4-10.6-30.8-10.6-31.6c0.3-2.6,2.6-4.5,5.2-4.3
					c2.5,0.3,4.4,2.4,4.3,5l0,0c0,0.2-1,15.7,7.7,24c4.6,4.4,11.3,6,20.1,5c2.6-0.3,5,1.6,5.3,4.2s-1.6,5-4.2,5.3
					C132,154,129.4,154.1,126.8,154z"/>
				<path class="st17" d="M133.9,157.4c4.5-0.4,7.8-4.3,7.4-8.8l0,0c-0.4-4.5-4.3-7.8-8.8-7.4l-5.3,0.5l1.4,16.2L133.9,157.4z"/>
				<path class="st23" d="M97.9,115.6l2-45.9c0.1-1.6,1.4-2.9,3.1-2.8l0.2,0c1.6,0.1,2.9,1.4,2.8,3.1l-2,45.9
					c-0.1,1.6-1.4,2.9-3.1,2.8l-0.2,0C99.1,118.5,97.8,117.2,97.9,115.6z"/>
				<path class="st24" d="M104.1,41.3h-0.2c2.4,2.4,2.4,6.3,0.1,8.7c-2.4,2.4-6.3,2.4-8.7,0.1c-0.1-0.1-0.2-0.2-0.3-0.3
					c-0.2,0.8-0.3,1.5-0.3,2.3c-0.3,6.1,3.5,11.3,8.5,11.5s9.2-4.6,9.4-10.8S109,41.6,104.1,41.3z"/>
				<path class="st18" d="M106.8,52.5L106.8,52.5c-0.1,2.8-2.4,4.9-5.1,4.8c-0.4,0-0.9-0.1-1.3-0.2c0.2,2.3,1.8,4.2,3.7,4.3
					c2.2,0.1,4-2,4.2-4.8C108.4,55.1,107.9,53.6,106.8,52.5z"/>
				<path class="st18" d="M104.9,106.1l0.1,0c1,0,1.8,0.9,1.7,1.9l-0.2,4.7c0,1-0.9,1.8-1.9,1.7l-0.1,0c-1,0-1.8-0.9-1.7-1.9
					l0.2-4.7C103.1,106.8,103.9,106.1,104.9,106.1z"/>
				<path class="st18" d="M97.6,109.9l4.6,0.2c2.5,0.1,4.4,2.2,4.3,4.6l0,0.3c-0.1,2.5-2.2,4.4-4.6,4.3l-4.6-0.2
					c-2.5-0.1-4.4-2.2-4.3-4.6l0-0.3C93.1,111.7,95.2,109.8,97.6,109.9z"/>
				<path class="st12" d="M104.8,188c3.4-1.5,5.2-4.5,5.2-9.7s-11.7-24.9,2.2-30.9s21-6.1,28.6-8.6c8.6-2.8,27-10.9,29.3-7.4
					c2.3,3.4-3.1,10-6.3,10.9c0,0,1.4,2.9-0.5,4.8c-1.6,1.4-3.4,2.5-5.4,3.3c0,0,1.7,3.5-0.8,5c-1.4,0.9-2.8,1.6-4.3,2.1
					c0,0,1.4,3.6-0.9,5.2c-1.7,1.1-3.4,2.1-5.3,3c0,0,1.2,2.5-2.8,4.6l-3.9,2c0,0,0.7,3.4-3.8,4.6s-5.1,1.4-5.1,1.4
					c0.5,1.7-0.5,3.4-2.2,3.9c0,0,0,0,0,0c-1.6,0.6-3.3,1-5,1c0,0,1,0.7-1.7,2.1c-1.4,0.8-5.6,0.4-9.3,0.8c-1.4,0.1-2.3,1.7-3.4,2.1
					s-2.6-0.1-3,1L104.8,188z"/>
				<path class="st8" d="M109.1,187.2c2.1-3.2,5.8-9.9,3.5-16.1c-2.6-6.9-0.4-5.8,2.4-10.1c1.4-2.2,1.2-2.3-0.3-3.2
					c-1.3-0.8,1.5-2.5,3.3-3.6c3.7-2.1,1.6-3.9,1.6-3.9s15.2-4.6,14.3-8.8s-9.6,1.1-18.8,4.1s-11.6,8-10.9,14s5.1,15.7,4.3,19.6
					s-0.3,4-3.9,7c-0.6,0.5-2.1,1.6-0.3,3.2C106,190.7,109.1,187.2,109.1,187.2z"/>
				<path class="st10" d="M143.9,146.1c-1.9,0.5-3.8,1.1-5.7,1.7s-3.7,1.4-5.6,1.9c-3.8,1.2-7.7,1.5-11.7,1.2
					c3.9,0.5,7.9,0.3,11.8-0.7c1.9-0.4,3.8-1.1,5.7-1.7s3.8-1,5.7-1.5c3.8-0.9,7.7-1.6,11.6-2.3c2.8-0.5,5.6-1,8.4-1.5
					c-0.1-0.3-0.2-0.6-0.3-0.9c0.9-0.3,1.7-0.8,2.4-1.4c-3.5,0.9-7.2,1.6-10.8,2.4C151.6,144.2,147.7,145.1,143.9,146.1z"/>
				<path class="st10" d="M139.8,153.9c-7.1,1.4-14.2,2.2-21.4,2.4c7.2,0.1,14.5-0.4,21.6-1.5c3.6-0.6,7.1-1.5,10.6-2.2
					c2.6-0.5,5.2-1,7.8-1.4c-0.1-0.3-0.2-0.6-0.3-0.8c0,0,1.1-0.5,2.4-1.2c-3.4,0.6-6.8,1.4-10.1,2.1
					C146.7,152.1,143.2,153.1,139.8,153.9z"/>
				<path class="st10" d="M147,157.6c-1.5,0.2-3,0.5-4.4,0.9s-2.9,0.5-4.3,0.7c-2.9,0.4-5.9,0.7-8.8,1.1s-5.9,0.7-8.8,0.8
					c3,0,5.9-0.2,8.9-0.4s5.9-0.4,8.9-0.6c1.5-0.1,2.9-0.2,4.4-0.5s2.9-0.5,4.4-0.6c1.9-0.2,3.9-0.4,5.9-0.6
					c-0.1-0.5-0.2-0.8-0.2-0.8c0.9-0.3,1.7-0.7,2.5-1.1C152.6,156.7,149.8,157.1,147,157.6z"/>
				<path class="st10" d="M142.3,165.2c-2.6,0.3-5.2,0.6-7.9,0.8s-5.2,0.4-7.9,0.5c-2.6,0.2-5.3,0.2-7.9,0c2.6,0.3,5.3,0.5,7.9,0.5
					c2.6,0,5.3,0,7.9-0.1s5.3-0.3,7.9-0.4c1.5-0.1,3-0.1,4.5-0.2c0-0.2-0.1-0.4-0.2-0.6c0,0,1-0.5,2.4-1.2
					C146.8,164.9,144.6,165,142.3,165.2z"/>
				<path class="st10" d="M119.2,170.8c3.9,0.7,7.8,1.2,11.8,1.6c3,0.3,6,0.5,9.1,0.6c0-0.2,0-0.5,0-0.7c0,0,0,0,1.8-0.9
					c-3.6,0.2-7.2,0.2-10.8,0.1C127.1,171.5,123.1,171.2,119.2,170.8z"/>
				<path class="st10" d="M119.7,174.7c2.2,1,4.4,1.8,6.6,2.6c1.6,0.6,3.2,1.2,4.9,1.7c0-0.2-0.1-0.5-0.1-0.7c0,0,0.3-0.1,1.7-0.5
					c-2.1-0.4-4.2-0.9-6.2-1.3C124.3,176,122,175.4,119.7,174.7z"/>
				<path class="st10" d="M118.1,179.3c1.1,1.1,2.4,2.1,3.8,3c0.7,0.5,1.4,0.9,2.2,1.3c0-0.1-0.1-0.2-0.2-0.3c0.9,0,1.8-0.1,2.6-0.3
					c-1.4-0.4-2.8-0.9-4.2-1.5C120.8,180.9,119.4,180.2,118.1,179.3z"/>
				<path class="st17" d="M133.2,126.1l-2.8,0.5c-0.4,0.1-0.8-0.2-0.9-0.6c0,0,0,0,0,0l0,0c-0.1-0.4,0.2-0.8,0.6-0.9c0,0,0,0,0,0
					l2.8-0.5c0.4-0.1,0.9,0.2,0.9,0.6c0,0,0,0,0,0l0,0C133.9,125.6,133.6,126,133.2,126.1C133.2,126.1,133.2,126.1,133.2,126.1z"/>
				<path class="st17" d="M121.7,125.9l-2.3-0.4c-0.4-0.1-0.7-0.5-0.7-0.9c0,0,0,0,0,0l0,0c0.1-0.4,0.5-0.7,0.9-0.7c0,0,0,0,0,0
					l2.3,0.3c0.4,0.1,0.7,0.5,0.7,0.9l0,0C122.6,125.7,122.2,126,121.7,125.9C121.7,125.9,121.7,125.9,121.7,125.9z"/>
				<path class="st8" d="M173.1,292.3H66.4c-5.8,0-10.5-4.7-10.5-10.5l0,0c0-5.8,4.7-10.5,10.5-10.5h106.7c5.8,0,10.5,4.7,10.5,10.5
					l0,0C183.6,287.5,178.9,292.2,173.1,292.3z"/>
			</g>
		</g>
	</g>
</g>
</svg>
