<?xml version="1.0" encoding="utf-8"?>
<!-- Generator: Adobe Illustrator 25.2.3, SVG Export Plug-In . SVG Version: 6.00 Build 0)  -->
<svg version="1.1" id="Layer_1" xmlns="http://www.w3.org/2000/svg" xmlns:xlink="http://www.w3.org/1999/xlink" x="0px" y="0px"
	 viewBox="0 0 231.7 375.8" style="enable-background:new 0 0 231.7 375.8;" xml:space="preserve">
<style type="text/css">
	.st0{fill:#F4B155;}
	.st1{fill:#FFF0CC;}
	.st2{fill:#231F20;}
	.st3{clip-path:url(#SVGID_2_);}
	.st4{fill:#A4F6FF;}
	.st5{fill:#FFFFFF;}
	.st6{fill:#BFBF6B;}
	.st7{fill:#CDD06F;}
	.st8{fill:#AECE83;}
	.st9{fill:#9FBA74;}
	.st10{fill:#D1D3D4;}
	.st11{fill:#F5B155;}
	.st12{fill:#FFD351;}
	.st13{fill:#FFD150;}
	.st14{fill:#DD4F65;}
	.st15{fill:none;}
	.st16{fill:#47372E;}
	.st17{fill:#4A355B;}
	.st18{fill:#F4B055;}
	.st19{fill:#D6306A;}
	.st20{fill:#EB8F03;}
	.st21{fill:#EFC865;}
	.st22{fill:#FAD979;}
	.st23{fill:#FCE6A5;}
	.st24{fill:#B99017;}
	.st25{fill:#FBE591;}
	.st26{fill:#562602;}
	.st27{fill:#9B4307;}
	.st28{fill:#C78B5F;}
	.st29{fill:#2A140C;}
	.st30{fill:#EE915B;}
	.st31{fill:#F4A914;}
	.st32{fill:#E6705F;}
	.st33{fill:#873E03;}
	.st34{fill:#F1F2F2;}
</style>
<g id="Layer_2_1_">
	<g id="Layer_1-2">
		<path class="st0" d="M231.7,14.2v347.3c0,7.9-6.6,14.2-14.8,14.2H14.8c-8,0.1-14.6-6.2-14.8-14.2V14.2C0.2,6.2,6.8-0.1,14.8,0
			h202.1C225.1,0,231.7,6.4,231.7,14.2z M219.3,353.2V22.5c0-5.9-4.8-10.7-10.7-10.7H23.1c-5.9,0-10.7,4.8-10.7,10.7v330.8
			c0,5.9,4.7,10.7,10.6,10.7c0,0,0,0,0,0h185.5C214.5,364,219.3,359.2,219.3,353.2C219.3,353.3,219.3,353.3,219.3,353.2L219.3,353.2
			z"/>
		<path class="st1" d="M23.1,11.9h185.5c5.9,0,10.7,4.8,10.7,10.7v330.8c0,5.9-4.8,10.7-10.7,10.7H23.1c-5.9,0-10.7-4.8-10.7-10.7
			V22.5C12.4,16.6,17.2,11.9,23.1,11.9z"/>
		<path class="st2" d="M42.3,328c-0.6-0.5-1-1.3-1-2.1c-1.4-0.1-2.7-0.8-3.6-1.9c-0.9-1.2-1.3-2.7-1.3-4.2c-0.1-1.7,0.4-3.3,1.5-4.5
			c1.2-1.1,2.8-1.7,4.4-1.6c1.6-0.1,3.2,0.5,4.4,1.6c1.1,1.2,1.6,2.9,1.5,4.5c0.1,1.5-0.4,3.1-1.3,4.3c-1,1.1-2.4,1.7-3.8,1.8
			c0,0.4,0.2,0.9,0.6,1.1c0.4,0.3,0.9,0.4,1.4,0.4c0.6,0,1.2-0.2,1.7-0.5c0,0,0.1-0.1,0.2-0.1c0.1,0,0.1,0,0.2,0.1l0.5,0.8
			c0,0.1,0,0.1,0,0.2c0,0.1,0,0.1-0.2,0.2c-0.4,0.2-0.7,0.4-1.1,0.5c-0.5,0.1-0.9,0.2-1.4,0.2C43.9,328.9,43,328.6,42.3,328z
			 M45,323.2c1.3-2.1,1.3-4.6,0-6.7c-0.7-0.8-1.7-1.2-2.8-1.1c-1-0.1-2.1,0.4-2.8,1.1c-1.3,2.1-1.3,4.6,0,6.7
			c0.7,0.8,1.7,1.2,2.8,1.1C43.3,324.4,44.3,324,45,323.2z"/>
		<path class="st2" d="M52.3,325.4c-0.8-0.3-1.4-0.8-1.8-1.5c-0.4-0.7-0.7-1.5-0.7-2.4v-7c0-0.2,0-0.4,0.2-0.5
			c0.1-0.1,0.3-0.2,0.5-0.1h0.9c0.2,0,0.4,0,0.5,0.1c0.1,0.1,0.2,0.3,0.2,0.5v7c0,0.7,0.2,1.5,0.8,2c1.4,0.9,3.1,0.9,4.5,0
			c0.5-0.5,0.8-1.3,0.8-2v-7c0-0.2,0-0.4,0.2-0.5c0.1-0.1,0.3-0.2,0.5-0.1h0.9c0.5,0,0.7,0.2,0.7,0.6v7c0,0.8-0.2,1.6-0.7,2.3
			c-0.5,0.7-1.1,1.2-1.8,1.5c-0.9,0.4-1.8,0.6-2.7,0.5C54.1,325.9,53.2,325.8,52.3,325.4z"/>
		<path class="st2" d="M62.4,325.5c-0.1-0.1-0.2-0.3-0.1-0.5v-10.5c0-0.2,0-0.3,0.1-0.5c0.1-0.1,0.3-0.2,0.5-0.1H70
			c0.2,0,0.3,0,0.5,0.1c0.1,0.1,0.1,0.3,0.1,0.5v0.5c0,0.2,0,0.3-0.1,0.5c-0.1,0.1-0.3,0.2-0.5,0.1h-5.6v3.4h4.1
			c0.2,0,0.3,0,0.5,0.1c0.1,0.1,0.2,0.3,0.1,0.5v0.4c0,0.2,0,0.3-0.1,0.5c-0.1,0.1-0.3,0.2-0.5,0.1h-4.1v3.4H70c0.2,0,0.3,0,0.5,0.1
			c0.1,0.1,0.2,0.3,0.1,0.5v0.5c0,0.2,0,0.3-0.1,0.5c-0.1,0.1-0.3,0.1-0.5,0.1h-7.1C62.7,325.7,62.5,325.6,62.4,325.5z"/>
		<path class="st2" d="M72.3,325.5c-0.1-0.1-0.2-0.3-0.2-0.5v-10.5c0-0.2,0-0.4,0.2-0.5c0.1-0.1,0.3-0.2,0.5-0.1H80
			c0.2,0,0.3,0,0.5,0.1c0.1,0.1,0.1,0.3,0.1,0.5v0.5c0,0.2,0,0.3-0.1,0.5c-0.1,0.1-0.3,0.2-0.5,0.1h-5.6v3.4h4.1
			c0.2,0,0.3,0,0.5,0.1c0.1,0.1,0.2,0.3,0.1,0.5v0.4c0,0.2,0,0.3-0.1,0.5c-0.1,0.1-0.3,0.2-0.5,0.1h-4.1v3.4H80
			c0.3-0.1,0.6,0.1,0.6,0.4c0,0.1,0,0.1,0,0.2v0.5c0,0.2,0,0.3-0.1,0.5c-0.1,0.1-0.3,0.1-0.5,0.1h-7.2
			C72.6,325.7,72.5,325.6,72.3,325.5z"/>
		<path class="st2" d="M82.3,325.5c-0.1-0.1-0.2-0.3-0.2-0.5v-10.5c0-0.2,0-0.4,0.2-0.5c0.1-0.1,0.3-0.2,0.5-0.1h0.8
			c0.1,0,0.3,0,0.4,0.1c0.1,0.1,0.2,0.2,0.3,0.3l5.7,7.9v-7.6c0-0.2,0-0.4,0.2-0.5c0.1-0.1,0.3-0.2,0.5-0.1h0.9c0.2,0,0.4,0,0.5,0.1
			c0.1,0.1,0.2,0.3,0.2,0.5v10.5c0,0.2,0,0.3-0.2,0.5c-0.1,0.1-0.3,0.2-0.5,0.1h-0.8c-0.1,0-0.2,0-0.4-0.1c-0.1-0.1-0.2-0.2-0.3-0.3
			l-5.7-7.9v7.6c0,0.2,0,0.3-0.2,0.5c-0.1,0.1-0.3,0.2-0.5,0.1h-0.9C82.6,325.7,82.4,325.6,82.3,325.5z"/>
		<path class="st2" d="M102.1,324.3c-2-2.7-2-6.4,0-9c2.5-2.1,6.2-2.1,8.7,0c2.1,2.7,2.1,6.4,0,9
			C108.3,326.5,104.6,326.5,102.1,324.3z M109.2,323.2c1.3-2.1,1.3-4.6,0-6.7c-1.5-1.5-4-1.5-5.5,0c-1.3,2.1-1.3,4.6,0,6.7
			C105.2,324.7,107.7,324.7,109.2,323.2C109.2,323.2,109.2,323.2,109.2,323.2z"/>
		<path class="st2" d="M114.2,325.5c-0.1-0.1-0.2-0.3-0.1-0.5v-10.5c0-0.2,0-0.3,0.1-0.5c0.1-0.1,0.3-0.2,0.5-0.1h7.2
			c0.2,0,0.3,0,0.5,0.1c0.1,0.1,0.1,0.3,0.1,0.5v0.5c0,0.2,0,0.3-0.1,0.5c-0.1,0.1-0.3,0.2-0.5,0.1h-5.6v3.4h4.1
			c0.2,0,0.3,0,0.5,0.1c0.1,0.1,0.2,0.3,0.1,0.5v0.4c0,0.2,0,0.3-0.1,0.5c-0.1,0.1-0.3,0.2-0.5,0.1h-4.1v4.4c0,0.2,0,0.3-0.2,0.5
			c-0.1,0.1-0.3,0.2-0.5,0.1h-0.9C114.5,325.7,114.3,325.6,114.2,325.5z"/>
		<path class="st2" d="M133.6,325.6c-0.1-0.1-0.2-0.2-0.2-0.4l-3.1-12.2c0-0.1,0-0.1,0-0.2c0-0.2,0.1-0.3,0.4-0.3h1.6
			c0.1,0,0.3,0,0.4,0.1c0.1,0.1,0.1,0.2,0.1,0.3l1.9,8.5l2.3-7.5c0-0.1,0.1-0.2,0.2-0.3c0.1-0.1,0.2-0.1,0.4-0.1h0.9
			c0.1,0,0.3,0,0.4,0.1c0.1,0.1,0.2,0.2,0.2,0.3l2.3,7.5l1.9-8.5c0-0.1,0.1-0.2,0.2-0.3c0.1-0.1,0.3-0.1,0.4-0.1h1.6
			c0.2,0,0.4,0.1,0.4,0.3c0,0.1,0,0.1,0,0.2l-3.1,12.2c0,0.1-0.1,0.3-0.2,0.4c-0.1,0.1-0.3,0.1-0.4,0.1h-1c-0.3,0-0.6-0.2-0.6-0.5
			c0,0,0,0,0,0l-2.5-7.8l-2.3,7.8c0,0.1-0.1,0.3-0.2,0.4c-0.1,0.1-0.3,0.1-0.4,0.1h-1C133.9,325.7,133.7,325.6,133.6,325.6z"/>
		<path class="st2" d="M145.3,325.4c0-0.1,0-0.2,0.1-0.2l5.1-12.1c0.1-0.1,0.1-0.3,0.2-0.4c0.1-0.1,0.3-0.1,0.4-0.1h1.1
			c0.1,0,0.3,0,0.4,0.1c0.1,0.1,0.2,0.2,0.2,0.4l5.1,12.1c0,0.1,0,0.2,0,0.2c0,0.2-0.1,0.3-0.3,0.3H156c-0.1,0-0.2,0-0.4-0.1
			c-0.1-0.1-0.2-0.2-0.2-0.3l-1.1-2.7H149l-1.1,2.7c0,0.1-0.1,0.2-0.2,0.3c-0.1,0-0.2,0.1-0.4,0.1h-1.7
			C145.4,325.7,145.3,325.6,145.3,325.4z M153.7,320.8l-2.1-5.1l-2,5.1H153.7z"/>
		<path class="st2" d="M160.1,325.5c-0.1-0.1-0.2-0.3-0.2-0.5v-11.8c0-0.2,0-0.4,0.2-0.5c0.2-0.1,0.4-0.2,0.6-0.2h0.9
			c0.1,0,0.3,0,0.4,0.1c0.1,0.1,0.2,0.2,0.3,0.3l6.4,8.9v-8.5c0-0.2,0-0.4,0.2-0.5c0.2-0.1,0.4-0.2,0.6-0.2h1c0.2,0,0.4,0,0.6,0.2
			c0.1,0.2,0.2,0.3,0.2,0.5V325c0,0.2,0,0.4-0.2,0.5c-0.2,0.1-0.4,0.2-0.6,0.2h-0.9c-0.1,0-0.3,0-0.4-0.1c-0.1-0.1-0.2-0.2-0.3-0.3
			l-6.4-8.9v8.5c0,0.2,0,0.4-0.2,0.5c-0.2,0.1-0.4,0.2-0.6,0.2h-1C160.4,325.7,160.2,325.6,160.1,325.5z"/>
		<path class="st2" d="M173.6,325.5c-0.1-0.1-0.2-0.3-0.2-0.5v-11.8c-0.1-0.3,0.1-0.6,0.5-0.7c0.1,0,0.2,0,0.2,0h3.9
			c1.8-0.1,3.6,0.4,5,1.6c1.2,1,1.7,2.7,1.7,5c0,4.4-2.2,6.6-6.7,6.6h-3.9C173.9,325.7,173.7,325.6,173.6,325.5z M178.1,323.8
			c1.1,0.1,2.3-0.3,3.1-1.1c1.4-2.2,1.4-5,0-7.3c-0.8-0.8-2-1.1-3.1-1.1h-2.3v9.4H178.1z"/>
		<path class="st2" d="M187.8,325.7c-0.8-0.1-1.5-0.4-2.1-0.9c-0.2-0.1-0.3-0.2-0.3-0.3c0-0.1,0-0.2,0.1-0.2l0.6-1
			c0.1-0.1,0.1-0.2,0.2-0.2c0.1,0,0.2,0,0.3,0.1c0.5,0.3,1.1,0.5,1.7,0.7c0.6,0.2,1.3,0.3,1.9,0.3c0.7,0,1.4-0.1,2-0.4
			c0.7-0.6,0.9-1.6,0.4-2.3c-0.2-0.3-0.4-0.5-0.7-0.6c-0.5-0.3-1-0.5-1.6-0.7l-0.4-0.2c-0.7-0.3-1.4-0.6-2.1-1
			c-0.5-0.3-1-0.7-1.4-1.2c-1-1.5-0.6-3.5,0.8-4.6c1-0.7,2.3-1,3.5-1c0.8,0,1.6,0.1,2.3,0.2c0.6,0.1,1.2,0.4,1.7,0.8
			c0.1,0.1,0.2,0.2,0.2,0.3c0,0.1,0,0.2-0.1,0.2l-0.6,1c-0.1,0.1-0.1,0.2-0.2,0.2c-0.1,0-0.2-0.1-0.2-0.1c-0.9-0.6-2-0.8-3.1-0.8
			c-0.6,0-1.3,0.1-1.8,0.4c-0.4,0.3-0.7,0.9-0.6,1.4c0,0.3,0.1,0.7,0.3,1c0.2,0.3,0.5,0.5,0.8,0.6c0.5,0.3,1.1,0.5,1.6,0.7l0.5,0.2
			c0.8,0.3,1.5,0.6,2.2,1c0.5,0.3,0.9,0.7,1.2,1.2c0.3,0.6,0.5,1.2,0.4,1.8c0.1,1.1-0.4,2.1-1.3,2.7c-1,0.7-2.3,1.1-3.6,1
			C189.5,326,188.6,325.9,187.8,325.7z"/>
		<g>
			<defs>
				<path id="SVGID_1_" d="M55,44.2h127.2c13.5,0,24.4,10.9,24.4,24.4v189.6c0,13.5-10.9,24.4-24.4,24.4H55
					c-13.5,0-24.4-10.9-24.4-24.4V68.7C30.5,55.2,41.5,44.2,55,44.2z"/>
			</defs>
			<clipPath id="SVGID_2_">
				<use xlink:href="#SVGID_1_"  style="overflow:visible;"/>
			</clipPath>
			<g class="st3">
				<polygon class="st4" points="206.6,19.2 24,19.2 24,189.5 24,209.2 24,302.6 206.5,302.6 206.5,209.2 206.6,209.2 				"/>
				<path class="st5" d="M141.2,98.2h33.1c2.4,0,4.3-1.9,4.3-4.3l0,0c0-2.4-1.9-4.3-4.3-4.3h-33.1c-2.4,0-4.3,1.9-4.3,4.3l0,0
					C136.9,96.3,138.9,98.2,141.2,98.2z"/>
				<circle class="st5" cx="162" cy="87.5" r="10.6"/>
				<circle class="st5" cx="150.3" cy="90.6" r="7.6"/>
				<path class="st5" d="M223.3,180.4h-97.1c-2.4,0-4.3-1.9-4.3-4.3v-13.1c0-2.4,1.9-4.3,4.3-4.3h97.1c2.4,0,4.3,1.9,4.3,4.3v13.1
					C227.5,178.4,225.6,180.4,223.3,180.4z"/>
				<circle class="st5" cx="185.4" cy="153.4" r="26.9"/>
				<circle class="st5" cx="155.8" cy="161.1" r="19.2"/>
				<path class="st5" d="M81,126.4H56.8c-1.7,0-3.1-1.4-3.1-3.1l0,0c0-1.7,1.4-3.1,3.1-3.1H81c1.7,0,3.1,1.4,3.1,3.1l0,0
					C84.1,125,82.7,126.4,81,126.4z"/>
				<circle class="st5" cx="65.8" cy="118.6" r="7.8"/>
				<path class="st5" d="M79.9,120.9c0,3.1-2.5,5.5-5.5,5.5s-5.5-2.5-5.5-5.5c0-3.1,2.5-5.5,5.5-5.5S79.9,117.8,79.9,120.9
					L79.9,120.9z"/>
				<ellipse class="st6" cx="115.9" cy="200.3" rx="80.3" ry="45.1"/>
				<path class="st7" d="M16.3,130.1c0,0,42.3,15.9,89.4,63h32.7c0,0,35.3-54.6,69.6-54.6v72.8H10.9L16.3,130.1z"/>
				<polygon class="st8" points="206.6,191.3 24,191.3 24,258.1 24,265.9 24,302.6 206.5,302.6 206.5,265.9 206.6,265.9 				"/>
				<path class="st9" d="M92.8,265.3h64.1c4.4,0,8,3.6,8,8v2.7c0,4.4-3.6,8-8,8H92.8c-4.4,0-8-3.6-8-8v-2.7
					C84.8,268.9,88.4,265.3,92.8,265.3z"/>
				<path class="st9" d="M77.6,250.4h94c4.1,0,7.4,3.3,7.4,7.4v2.5c0,4.1-3.3,7.4-7.4,7.4h-94c-4.1,0-7.4-3.3-7.4-7.4v-2.5
					C70.2,253.7,73.5,250.4,77.6,250.4z"/>
				<rect x="92.3" y="246" class="st10" width="61.8" height="11.9"/>
				<rect x="81.9" y="215.9" class="st11" width="10.4" height="42.1"/>
				<circle class="st11" cx="87.1" cy="211" r="9.8"/>
				<rect x="154.1" y="215.9" class="st11" width="10.4" height="42.1"/>
				<circle class="st11" cx="159.2" cy="211" r="9.8"/>
				<rect x="90.1" y="138.4" class="st12" width="66.3" height="71.7"/>
				<rect x="95.6" y="142.7" class="st11" width="55.9" height="67.5"/>
				<rect x="85" y="215.9" class="st12" width="10.4" height="42.1"/>
				<rect x="94.3" y="204.4" class="st2" width="57.8" height="12.8"/>
				<rect x="151.2" y="215.9" class="st12" width="10.4" height="42.1"/>
				<rect x="95.3" y="232.3" class="st13" width="55.9" height="11.2"/>
				<path class="st13" d="M102,271.6l0.8-0.9c0.4-0.5,1-0.9,1.7-1l3.9-0.8c0-0.1,0-0.1,0-0.2v-28c0-2.9,2.4-5.3,5.3-5.3
					c2.9,0,5.3,2.4,5.3,5.3c0,0,0,0,0,0v27.1c0.8,0.6,1.3,1.5,1.2,2.5v3.5c0,1.8-1.4,3.2-3.2,3.2c0,0,0,0,0,0h-12.7
					c-1.8,0-3.2-1.4-3.2-3.2C101.2,273,101.5,272.2,102,271.6z"/>
				<path class="st13" d="M130.2,267.8v-27.1c0-2.9,2.4-5.3,5.3-5.3c2.9,0,5.3,2.4,5.3,5.3v28.1c0,0.1,0,0.1,0,0.2l3.9,0.8
					c0.7,0.1,1.2,0.5,1.7,1l0.8,0.9c1.2,1.3,1.1,3.3-0.2,4.5c-0.6,0.5-1.3,0.8-2.1,0.8h-12.8c-1.8,0-3.2-1.4-3.2-3.2l0,0v-3.5
					C128.9,269.3,129.4,268.4,130.2,267.8z"/>
				<rect x="95.3" y="215.9" class="st14" width="55.9" height="16.3"/>
				
					<ellipse transform="matrix(0.7071 -0.7071 0.7071 0.7071 -122.8023 125.5509)" class="st12" cx="90.2" cy="211" rx="9.8" ry="9.8"/>
				<circle class="st12" cx="156.4" cy="211" r="9.8"/>
				<path class="st11" d="M170.2,213.6c-0.8,2.1-2.1,4.1-3.8,5.6c-1.6,1.4-3.4,2.4-4.8,3.9c0,0.1-0.1,0.1-0.2,0.1
					c-0.2,0.1-0.9-0.3-1.1-0.4c-0.5-0.2-1.1-0.4-1.6-0.7c-1-0.4-1.9-1-2.8-1.7c-0.6-0.5-1.3-0.9-1.9-1.4c-0.3-0.3-1.2-1.2-1-1.8
					c-0.2,0.7-0.4,1.3-0.5,2c-0.1-0.1,0,0-0.1,0c-7.4-3.1-5.1-9.9-5.1-9.9c-0.3,0-1.4,1.1-1.4,1.1c0-1.8,0.6-3.5,1.7-4.9l-1.2,0.2
					c0.2-1.8,0.8-3.6,1.6-5.2c0.5-0.9,1.2-2.2,2.2-2.7c0.9-0.4,1.8-0.6,2.8-0.5c1.2,0,3.2,0.2,4.2,1.1c-0.1-0.5-0.4-0.9-0.8-1.1
					c-0.3-0.2-0.7-0.5-1-0.6c0.4-0.1,0.8-0.1,1.2-0.1c0.6,0,1.2,0.3,1.5,0.8c0.5-0.6,1.1-1.1,1.9-1.3c0.2-0.1,0.3,0,0.6,0
					c-0.4,0.4-0.8,1-1,1.5c0.6-0.4,1.4-0.5,2.1-0.2c-0.4,0.2-0.7,0.6-0.8,1c0,0,6.9-1.5,9.1,5.2l-1.4-0.2c0,0,2.6,2.9,2.5,10.9
					L170.2,213.6z"/>
				<path class="st12" d="M163.9,206.1c0.6-0.6,0.7-1.5,0.3-2.2c-0.4-0.8-1.3-1.2-2.2-1c-0.7,0.3-1,1.4-1,2.1
					c-1.6-0.1-3.8-0.2-5,0.7c0-1.1-0.9-2-2-2c-0.1,0-0.2,0-0.2,0c0,0-1.8,0.5-0.8,3l0.5,0.7c-0.1,0.8-0.5,1.5-1,2.1
					c-0.3,0.2-0.5,0.3-0.8,0.4c-0.2,0.1-0.1,0.4-0.1,0.6c1.2,3.1,5.2,4.4,8.1,4.6c2,0.3,3.9-0.3,5.4-1.7c0.9-1.1,1.4-2.5,1.4-4
					c0-0.1,0-0.2-0.1-0.2c-0.1,0-0.1,0-0.2-0.1c-1.1-0.1-2.5-1.7-2.2-2.9L163.9,206.1z"/>
				<path class="st11" d="M161.7,204.9L161.7,204.9c0.6,0.2,1.2,0.3,1.7,0.6c0.2-0.3,0.3-0.6,0.2-1c-0.1-0.4-0.5-0.7-1-0.8
					C161.9,203.7,161.8,204.4,161.7,204.9z"/>
				<path class="st14" d="M153.9,206.9L153.9,206.9c0.5-0.4,1-0.7,1.5-1c-0.1-0.3-0.3-0.7-0.6-0.9c-0.4-0.2-0.9-0.1-1.3,0.3
					C153,206,153.5,206.4,153.9,206.9z"/>
				<path class="st11" d="M160.6,212.5c-0.1-0.1-0.1-0.2-0.2-0.2l-0.1-0.2c-0.2-0.2-0.2-0.4-0.2-0.7c0,0.5-0.2,1-0.6,1.4
					c0.1-0.1,0.4,0,0.6,0C160.2,212.8,160.4,212.7,160.6,212.5z"/>
				<path class="st11" d="M161.7,209.4c0,1.1-0.8,1.9-1.9,2c-0.9,0-1.8-0.7-1.9-1.6"/>
				<path class="st11" d="M75.4,213.6c0.8,2.1,2.1,4.1,3.8,5.6c1.6,1.4,3.4,2.4,4.8,3.9c0,0.1,0.1,0.1,0.2,0.1
					c0.2,0.1,0.8-0.3,1.1-0.4c0.5-0.2,1-0.4,1.6-0.7c1-0.4,1.9-1,2.8-1.7c0.6-0.5,1.3-0.9,1.9-1.4c0.3-0.3,1.2-1.2,1-1.8l0.5,2
					c0.1-0.1,0,0,0.1,0c7.4-3.1,5.1-9.9,5.1-9.9c0.3,0,1.4,1.1,1.4,1.1c0-1.8-0.6-3.5-1.6-4.9l1.2,0.2c-0.3-1.8-0.8-3.6-1.7-5.2
					c-0.5-1.1-1.2-2-2.2-2.7c-0.9-0.4-1.8-0.6-2.8-0.5c-1.2,0-3.2,0.2-4.2,1.1c0.1-0.5,0.4-0.9,0.8-1.1c0.3-0.2,0.6-0.5,1-0.6
					c-0.4-0.1-0.8-0.1-1.2-0.1c-0.6,0-1.2,0.3-1.6,0.8c-0.5-0.6-1.1-1.1-1.9-1.3c-0.2-0.1-0.3,0-0.6,0c0.4,0.4,0.8,1,1,1.5
					c-0.6-0.4-1.4-0.5-2.1-0.2c0.4,0.2,0.7,0.6,0.8,1c0,0-6.9-1.5-9.1,5.2l1.4-0.2c0,0-2.6,2.9-2.5,10.9L75.4,213.6z"/>
				<path class="st12" d="M81.7,206.1c-0.6-0.6-0.7-1.5-0.3-2.2c0.4-0.8,1.3-1.2,2.2-1c0.7,0.3,1,1.4,1,2.1c1.6-0.1,3.8-0.2,5,0.7
					c0-1.1,0.9-2,2-2c0.1,0,0.2,0,0.3,0c0,0,1.8,0.5,0.8,3l-0.5,0.7c0.1,0.8,0.5,1.5,1,2.1c0.3,0.2,0.5,0.3,0.8,0.4
					c0.2,0.1,0.2,0.4,0.1,0.6c-1.2,3.1-5.2,4.4-8.2,4.6c-2,0.3-3.9-0.3-5.4-1.7c-0.9-1.1-1.4-2.5-1.4-4c0-0.1,0-0.2,0.1-0.2
					c0.1,0,0.1-0.1,0.2-0.1c1.1-0.1,2.5-1.7,2.2-2.9L81.7,206.1z"/>
				<path class="st11" d="M83.8,204.9L83.8,204.9c-0.6,0.2-1.2,0.3-1.7,0.6c-0.2-0.3-0.3-0.6-0.2-1c0.1-0.4,0.5-0.7,1-0.8
					C83.7,203.7,83.8,204.4,83.8,204.9z"/>
				<path class="st11" d="M91.7,206.9L91.7,206.9c-0.5-0.4-1-0.7-1.5-1c0.1-0.3,0.3-0.7,0.6-0.9c0.4-0.2,0.9-0.1,1.2,0.3
					C92.5,206,92.1,206.4,91.7,206.9z"/>
				<path class="st11" d="M85,212.5c0.1-0.1,0.2-0.1,0.2-0.2c0.1-0.1,0.1-0.1,0.2-0.2c0.2-0.2,0.2-0.4,0.2-0.7c0,0.5,0.2,1,0.6,1.4
					c-0.1-0.1-0.4,0-0.6,0C85.4,212.8,85.2,212.7,85,212.5z"/>
				<path class="st11" d="M83.8,209.4c0,1.1,0.8,1.9,1.9,2c0.9,0,1.8-0.7,1.9-1.6"/>
				<polygon class="st15" points="128.4,151.6 128.4,151.6 128.4,151.6 				"/>
				<path class="st16" d="M107.5,122.8h17c2.2,0,4,1.8,4,4v1.3c0,2.2-1.8,4-4,4h-17c-2.2,0-4-1.8-4-4v-1.3
					C103.6,124.6,105.3,122.8,107.5,122.8z"/>
				<path class="st17" d="M116.6,139.6c0,0.3-0.3,0.6-0.6,0.6l0,0c-0.3,0-0.6-0.3-0.6-0.6s0.3-0.6,0.6-0.6S116.6,139.3,116.6,139.6
					L116.6,139.6z"/>
				<path class="st13" d="M88.2,197.3l-1.1,0.8c-1.7,1.3-4.1,1-5.4-0.7l-16.1-21.2c-1.3-1.7-1-4.1,0.7-5.4l1.1-0.8
					c1.7-1.3,4.1-1,5.4,0.7l16.1,21.2C90.2,193.5,89.9,196,88.2,197.3z"/>
				<path class="st14" d="M153.2,278.3l-57.8,0.4l-3.1-52c-1-16.9,11.9-31.3,28.7-32.3l0,0c16.9-1,31.4,11.8,32.4,28.7c0,0,0,0,0,0
					L153.2,278.3z"/>
				<rect x="103.6" y="119.2" class="st16" width="41.5" height="72.4"/>
				<path class="st13" d="M122.7,157.6h1.4c2.4,0,4.3,1.9,4.3,4.3v8.1c0,2.4-1.9,4.3-4.3,4.3h-1.4c-2.4,0-4.3-1.9-4.3-4.3v-8.1
					C118.4,159.5,120.3,157.6,122.7,157.6z"/>
				<path class="st14" d="M107.3,175.1l1.1,1.4c1.8,2.3,1.3,5.7-1,7.4l-18.8,14.3c-2.3,1.8-5.7,1.3-7.4-1l-1.1-1.4
					c-1.8-2.3-1.3-5.7,1-7.4L99.9,174C102.2,172.3,105.5,172.7,107.3,175.1z"/>
				<path class="st13" d="M110.9,144c0,2.8-2.2,5-5,5s-5-2.2-5-5s2.2-5,5-5S110.9,141.2,110.9,144z"/>
				<path class="st18" d="M108.4,144c0,1.3-1.1,2.4-2.4,2.4s-2.4-1.1-2.4-2.4c0-1.3,1.1-2.4,2.4-2.4c0,0,0,0,0,0
					C107.3,141.6,108.4,142.7,108.4,144z"/>
				<circle class="st13" cx="142.7" cy="144" r="5"/>
				<path class="st18" d="M145.1,144c0,1.3-1.1,2.4-2.4,2.4s-2.4-1.1-2.4-2.4s1.1-2.4,2.4-2.4l0,0C144,141.6,145.1,142.7,145.1,144z
					"/>
				<path class="st18" d="M121.7,123.1h5.2c8.5,0,15.4,6.9,15.4,15.5v8.3c0,8.5-6.9,15.4-15.4,15.4h-5.2c-8.5,0-15.4-6.9-15.4-15.4
					v-8.3C106.2,130,113.2,123.1,121.7,123.1z"/>
				<path class="st13" d="M106,135.8v7.8c0,9.3,8.2,16.9,18.3,16.9l0,0c10.1,0,18.4-7.6,18.4-16.9v-7.8c0-1.4-0.2-2.9-0.6-4.3h-35.5
					C106.2,132.9,106,134.3,106,135.8z"/>
				<path class="st17" d="M116.3,137.9h0.6c0.9,0,1.6,0.7,1.6,1.6v3.8c0,0.9-0.7,1.6-1.6,1.6h-0.6c-0.9,0-1.6-0.7-1.6-1.6v-3.8
					C114.7,138.6,115.4,137.9,116.3,137.9z"/>
				<path class="st17" d="M131.8,137.9h0.6c0.9,0,1.6,0.7,1.6,1.6v3.8c0,0.9-0.7,1.6-1.6,1.6h-0.6c-0.9,0-1.6-0.7-1.6-1.6v-3.8
					C130.2,138.6,130.9,137.9,131.8,137.9z"/>
				<path class="st13" d="M137.8,172.4c-4.2-3.2-9.3-4.9-14.5-4.9l0,0c-5.2,0-10.3,1.7-14.5,4.9l14.5,14.6L137.8,172.4z"/>
				<path class="st18" d="M122.5,144h0.1l2.9-0.1h0.9c0.2,0,0.4-0.2,0.4-0.5c0,0,0-0.1,0-0.1c-0.1-0.4-0.3-0.8-0.7-1.2
					c-0.9-0.9-2.5-1-3.4-0.1c-0.2,0.2-0.4,0.4-0.5,0.6c-0.1,0.2-0.2,0.4-0.3,0.7C122,143.7,122.2,143.9,122.5,144
					C122.5,144,122.5,144,122.5,144z"/>
				<path class="st14" d="M137.8,172.4L123.3,187l-14.5-14.5c-6.1,4.6-9.6,11.7-9.6,19.3v16.8h48.3v-16.8
					C147.5,184.2,143.9,177,137.8,172.4z"/>
				<path class="st16" d="M68.4,177.6H67c-2.3,0-4.1-1.8-4.1-4.1V100c0-2.3,1.8-4.1,4.1-4.1h1.4c2.3,0,4.1,1.8,4.1,4.1v73.5
					C72.6,175.8,70.7,177.6,68.4,177.6z"/>
				<path class="st13" d="M71.9,166.5h3.5c0.9,0,1.6,0.7,1.6,1.6v0.6c0,0.9-0.7,1.6-1.6,1.6h-3.5c-0.9,0-1.6-0.7-1.6-1.6v-0.6
					C70.3,167.2,71,166.5,71.9,166.5z"/>
				<path class="st13" d="M64,161.6h1.7c1.8,0,3.2,1.4,3.2,3.2v6.8c0,1.8-1.4,3.2-3.2,3.2H64c-1.8,0-3.2-1.4-3.2-3.2v-6.8
					C60.8,163,62.2,161.6,64,161.6z"/>
				<circle class="st19" cx="99.4" cy="177.4" r="12"/>
				<path class="st19" d="M99.3,204.4H147c1.4,0,2.5,1.1,2.5,2.5v0.8c0,1.4-1.1,2.5-2.5,2.5H99.3c-1.4,0-2.5-1.1-2.5-2.5v-0.8
					C96.8,205.5,97.9,204.4,99.3,204.4z"/>
				<path class="st12" d="M124.2,218.5h8c2.9,0,5.3-2.4,5.3-5.3l0,0c0-2.9-2.4-5.3-5.3-5.3h-8c-2.9,0-5.3,2.4-5.3,5.3l0,0
					C119,216.1,121.3,218.5,124.2,218.5z"/>
				<path class="st14" d="M136.8,218.5c0.2,0,0.4,0,0.7,0c14.1-1.8,22.6-6.8,25.2-14.8c4.5-13.7-11.3-29.2-13.2-31
					c-2.2-2-5.5-1.8-7.5,0.4c-1.9,2.1-1.8,5.3,0.2,7.3c4.2,4,12.3,14.2,10.4,20c-1.2,3.6-7,6.3-16.5,7.5c-2.9,0.4-4.9,3.1-4.5,6
					C132,216.5,134.2,218.4,136.8,218.5L136.8,218.5z"/>
				<path class="st19" d="M135.9,179.1c0,6.3,5.1,11.4,11.4,11.4s11.4-5.1,11.4-11.4c0-6.3-5.1-11.4-11.4-11.4
					S135.9,172.7,135.9,179.1L135.9,179.1z"/>
				<circle class="st16" cx="135.9" cy="127.5" r="12"/>
				<path class="st16" d="M105.5,112.3h35.3c3.6,0,6.6,3,6.6,6.6v2.2c0,3.6-3,6.6-6.6,6.6h-35.3c-3.6,0-6.6-3-6.6-6.6v-2.2
					C98.9,115.2,101.9,112.3,105.5,112.3z"/>
				<path class="st16" d="M113.4,133.8h5.2c0.6,0,1,0.5,1,1v0.3c0,0.6-0.5,1-1,1h-5.2c-0.6,0-1-0.5-1-1v-0.3
					C112.3,134.3,112.8,133.8,113.4,133.8z"/>
				<circle class="st16" cx="103.6" cy="130.8" r="8.5"/>
				<path class="st16" d="M126.3,115c0,5.7-4.6,10.3-10.4,10.3c-5.7,0-10.3-4.6-10.3-10.4c0-5.7,4.6-10.3,10.3-10.3
					C121.7,104.6,126.3,109.3,126.3,115C126.3,115,126.3,115,126.3,115z"/>
				<circle class="st16" cx="131.5" cy="115.5" r="7.2"/>
				<path class="st13" d="M135.5,118.3c-4.2,0-7.9-2.9-10-7.3c-0.4-0.9-1.5-1.3-2.4-0.9c-0.4,0.2-0.7,0.5-0.9,0.9
					c-2.1,4.4-5.8,7.3-10,7.3c-2.5,0-4.9-1-6.7-2.7c-0.4-0.3-0.9-0.3-1.2,0.1c-0.1,0.2-0.2,0.4-0.2,0.6v5.9c0,3.2,2,5.8,4.5,5.8
					h31.1c2.5,0,4.5-2.6,4.5-5.8v-6.3c0-0.5-0.4-0.9-0.9-0.9c-0.2,0-0.4,0.1-0.6,0.2C140.7,117.1,138.2,118.2,135.5,118.3z"/>
				<path class="st18" d="M104.8,127.3h38.3c1.2,0,2.1,0.9,2.1,2.1v0.7c0,1.2-0.9,2.1-2.1,2.1h-38.3c-1.2,0-2.1-0.9-2.1-2.1v-0.7
					C102.7,128.2,103.6,127.3,104.8,127.3z"/>
				<path class="st14" d="M67.7,55.4h-0.3c3.8,3.7,3.9,9.9,0.2,13.7c-3.7,3.8-9.9,3.9-13.7,0.2c-0.2,1.2-0.3,2.4-0.3,3.7
					c0,9.7,6.3,17.6,14.1,17.6S81.9,82.7,81.9,73S75.5,55.4,67.7,55.4z"/>
				<path class="st13" d="M72.8,72.9c0,0,0,0.1,0,0.1c0,4.3-3.4,7.8-7.7,7.8c-0.7,0-1.4-0.1-2.1-0.3c0.5,3.7,3.1,6.5,6.2,6.5
					c3.5,0,6.3-3.5,6.3-7.8C75.5,76.9,74.5,74.6,72.8,72.9z"/>
				<path class="st18" d="M121.8,148.4h5.4c0.2,0,0.4,0.2,0.4,0.4v0.4c0,0.2-0.2,0.4-0.4,0.4h-5.4c-0.2,0-0.4-0.2-0.4-0.4v-0.4
					C121.3,148.5,121.5,148.4,121.8,148.4z"/>
				<path class="st20" d="M124.5,288.2c2.6-1.7,6.3-1.6,9.7-1.1c1.8,0.1,3.9-1.4,7.3-1.8c-3.1-7.5-1.6-12.2-1.6-12.2l13.2-0.4
					c1.1,2.7,1.9,5.6,2.3,8.5c0.5,4-0.1,8.2-0.8,9.3c-1.3,2.3-3.4,3.6-8.6,4.5s-8.4,0.3-10.9,0.8c-2.2,2-8,3.2-9.7,1.6
					c-1.1,0.8-3.6-0.1-3.6-1.9C120.4,293.6,121.9,289.9,124.5,288.2z"/>
				<path class="st11" d="M136.8,292.6c-1.7-0.4-3.5,0.2-4.6,1.6c-1.2,1.3-3.2,2.8-4.9,2c-0.4-0.3-0.3-1.5-0.4-2.2
					c-1,0.9-2.6,2-3.2,1c-1.7-1.2,0.3-2.3,1.6-3.6c-0.7,0.5-1.9,0-2.3-0.3c-0.2-0.4-0.2-0.9-0.2-1.4c0.5-0.6,1-1.1,1.7-1.5
					c2.6-1.7,6.3-1.6,9.7-1.1c1.6,0.1,3.6-1.1,6.5-1.6c2.1-0.4,4.3-0.3,6.3,0.1c-3.8-2.6-6-7.7-5.8-12.5l11.9-0.4
					c1.1,2.7,1.9,5.6,2.3,8.5c0.1,1,0.2,2,0.2,3c-0.3,1.1-0.6,2.2-1.1,3.2C151.7,294.8,142.9,293.4,136.8,292.6z"/>
				<path class="st21" d="M125.5,297.6c-1.1,0.8-3.6-0.1-3.6-1.9c-1.5-2.1,0-5.9,2.7-7.5c0.5-0.3,1.1-0.6,1.7-0.8
					c4.3,1.2,3.9,6.9,8.9,8.6C132.9,297.9,127.1,299.1,125.5,297.6z"/>
				<path class="st22" d="M127.4,296.2c-0.4-0.3-0.3-1.5-0.4-2.2c-1,0.9-1.9,2-2.4,2.5c-2.8-1.2-2-2.8-0.8-4.1
					c-0.7,0.5-1.8,0.9-2.3-0.3c-0.2-0.5,1.3-2.1,1.4-2.5c0.5-0.6,1-1.1,1.7-1.5c0.5-0.3,1.1-0.6,1.7-0.8c3.3,0.9,3.8,4.4,6.1,6.8
					c0,0-0.1,0.1-0.1,0.1C131,295.6,129,297,127.4,296.2z"/>
				<path class="st23" d="M127.4,296.2c-0.4-0.3-0.3-1.5-0.4-2.2c-1,0.9-2,1.6-3.2,1c-1-1.3,0.3-2.3,1.6-3.6c-0.7,0.5-1.9,0-2.3-0.3
					c-0.2-0.4-0.2-0.9-0.2-1.4c0.5-0.6,1-1.1,1.7-1.5c0.5-0.3,1.1-0.6,1.7-0.8c3.3,0.9,3.8,4.4,6.1,6.8c0,0-0.1,0.1-0.1,0.1
					C131,295.6,129,297,127.4,296.2z"/>
				<path class="st24" d="M125.7,297.5c-0.4-2.6,1.5-3.3,1.5-3.3s-2.3,0.5-1.8,3.4L125.7,297.5z"/>
				<path class="st24" d="M122.1,295.9c0.5-3.8,3.1-4.1,3.2-4.1s-3,0-3.6,4.1L122.1,295.9z"/>
				<path class="st20" d="M123.8,238.4c5.1,1.1,8.8-6.8,7.8-9.2c-1.5-2.8-5.4-5.6-9.6-4.1"/>
				<path class="st12" d="M131.5,229.2c-1.5-2.8-5.4-5.6-9.6-4.1c-5.2,1.9-3.4,9.8,3.2,12.4C130.2,238.6,132.6,231.6,131.5,229.2z"
					/>
				<path class="st25" d="M121.3,226.4c-1,0.4-1.8,1.1-2.2,2c0.3-1.6,1.4-2.8,2.9-3.3c4.2-1.5,8.1,1.3,9.6,4.1
					c0.1,0.3,0.2,0.7,0.2,1.1C129.7,226.7,125.1,224.6,121.3,226.4z"/>
				<path class="st14" d="M127.9,231.5c-0.9-1.8-3-2.7-4.9-2.1c-2.6,1-2.4,5.4,0.9,6.7C126.6,236.8,128.5,232.7,127.9,231.5z"/>
				<path class="st14" d="M122.2,231.1c2.1-0.4,4.3,0.5,5.5,2.2c-0.6,1.5-2,3.2-3.8,2.8c-1.7-0.7-2.8-2.4-2.7-4.3
					C121.5,231.6,121.9,231.3,122.2,231.1z"/>
				<path class="st11" d="M156.5,256.8c2.5-0.2,6.1,2.3,7.4,4.5c4.3,1.1,11.6,1,19.8-1.2s16.1-3.3,22.6,2.7
					c5.8,5.3,4.1,10.9,11.2,14.1s17.1,6,21,13.6c3.2,6.2-3.2,13.7-12.1,12.4c-8.4-1.2-16.5-1.6-22.8,2.5c-0.2-0.2-1.9-2.6-2.1-2.9
					c4.5-2.9,10.4-5.1,19.4-4.1c10.7,1.3,14.6-3.9,10.8-8.4c-4.2-5.1-16-8.2-21-6.9c-5.1,4.5-30.1,9.3-35.7,10.3
					c-3.4,2.7-18.6,3.3-27.7-1s-8.8-14.5-8.4-18.9s-1.5-9-2.3-11.8c-1.3-0.1-2.6-0.1-3.9,0.2c-1.1,1.8-7.2,2.7-9.6,2
					s-3.4-3.5-3.7-5.1c-2.3-1.3-3.6-4.8-0.5-8.6c-0.2-1.4,0.9-3.3,3.7-5.1c-1.2-2.5-2.2-8.8,1.1-12.8s9.3-6.3,17-6.2
					s11.9,5.1,13.8,13C159.4,247.2,155,252.7,156.5,256.8z"/>
				<path class="st12" d="M119.1,250.1c-0.2-1.4,0.9-3.3,3.7-5.1c-1.2-2.5-2.2-8.8,1.1-12.8s9.3-6.3,17-6.2s11.9,5.1,13.8,13
					c0.3,0.5,0.5,1,0.8,1.4c-1.4,0.1-3.8,0.3-5.1-1.9c-0.7,1-1.8,1.7-3.1,1.9c4.5-0.6,8.5,4.1,9.6,8.2c-0.3,3.2-1.2,5.8-0.3,8
					c2.5-0.2,6.1,2.3,7.4,4.5c4.3,1.1,11.6,1,19.8-1.2s16.1-3.3,22.6,2.7c5.8,5.3,4.1,10.9,11.2,14.1s17.1,6,21,13.6
					c3.2,6.2-3.7,11.9-12.6,10.6c-8.4-1.2-16.6-0.9-22.9,3.1c-0.2-0.2-1.3-1.5-1.5-1.8c4.5-2.9,10.4-5.1,19.4-4.1
					c10.7,1.3,16-4.8,12.2-9.4c-4.2-5.1-17-11.5-22-10.3c-2.8,2.5-6,4.6-9.4,6.1c-5.3-2.8-10.4-7.1-14.8-4.8
					c-13.5,7.3-30,8.7-41.5-0.2l-0.1-0.1c-0.2-2.5,0.3-4.9,1.4-7.1c-1.9,0.6-3.3,2.1-3.9,4c-1.7-3.8-0.7-9.1,1.6-13.3
					c2.8-4.4,10-5.7,9.6-12c-4.6,7.6-14.4,5.5-20.9,7.1c-4.2,1.5-8.4,1-13.3,1.5c-0.1-0.4-0.2-0.8-0.3-1.3
					C117.3,257.5,116,254,119.1,250.1z"/>
				<path class="st25" d="M236.8,290c-3.2-5.4-8.9-7.6-14.3-11c6.2,2.5,13,5.6,16.1,11.6c1.8,3.5,0.4,6.9-2.8,8.9
					C238.1,296.8,239.2,293.5,236.8,290z"/>
				<path class="st25" d="M124.5,231.5c3.4-3.6,9.1-5.6,16.3-5.5c2.7,0,5.4,0.8,7.7,2.4C140.5,225.4,131.6,226.9,124.5,231.5z"/>
				<path class="st26" d="M205.5,301.4c-1.5-2.9-4.3-3.1-8.3-1.9c-3.4,1-6.1,3.8-7,7.2c-0.9,2.9,1.9,5.2-0.8,7.9
					c2.5,0.5,3.7-1.7,4.6-3.4s5.2-0.6,8.8-2S207.5,303.7,205.5,301.4z"/>
				<path class="st27" d="M195.4,304.2c-1.8,0.6-3.1,1.5-3.6,3.4c0.2-3.1,1.9-6,4.6-7.7c0.3-0.1,0.6-0.2,0.9-0.3
					c4-1.2,6.8-1.1,8.3,1.9c2,2.3,0.4,5-3.2,6.4s-7.6,0-8.6,1.7s-1.7,5-3.8,5.2C193.3,312.5,192.1,306.9,195.4,304.2z"/>
				<path class="st28" d="M193.6,302.5c0.8-1,1.7-1.9,2.7-2.6c0.3-0.1,0.6-0.2,0.9-0.3c3.8-1.2,6.5-1.1,8,1.3
					c-1.6-1-3.4-1.4-5.3-1.4C197.3,299.6,195.4,301,193.6,302.5z"/>
				<path class="st29" d="M189.7,314.7c3.4-1.8,2.7-7.2,2.7-7.2s0.3,5.2-2.9,6.9L189.7,314.7z"/>
				<path class="st22" d="M142.1,261.5c3.6,8.8-1.7,15,2.3,21.1s20.8,8.4,32.2,5.2c2.6,0.1,4.1,1.6,4.5,4.5
					c-2.6,0.5-4.7,0.9-5.9,1.1c-3.4,2.7-18.6,3.3-27.7-1s-8.8-14.5-8.4-18.9s-1.5-9-2.3-11.8C136.8,261.7,140.9,261.6,142.1,261.5z"
					/>
				<path class="st23" d="M143.3,266.2c0.4,3.8-0.4,7.1-0.5,10.2C141.6,273.4,142,269.6,143.3,266.2z"/>
				<path class="st12" d="M140,296.9c-1.7-0.5-3.5,0-4.6,1.3c-1.3,1.3-3.4,2.6-5,1.8c-0.4-0.3-0.2-1.5-0.3-2.2
					c-1,0.9-2.7,1.8-3.2,0.8c-1.6-1.3,0.4-2.3,1.8-3.5c-0.7,0.5-1.9-0.1-2.3-0.5c-0.2-0.4-0.2-0.9-0.1-1.4c0.5-0.6,1.1-1,1.7-1.4
					c2.7-1.5,6.3-1.3,9.7-0.6c1.6,0.2,3.7-0.9,6.6-1.3c2.1-0.3,4.3-0.1,6.3,0.4c-3.6-2.8-5.5-8.4-5.1-13.2l11.8,0.7
					c1,2.8,1.6,5.7,1.9,8.7c0.1,1,0.1,2,0,3c-0.3,1.1-0.7,2.2-1.2,3.2C154.8,299.8,146.1,298,140,296.9z"/>
				<path class="st21" d="M128.5,301.2c-1.1,0.7-3.6-0.3-3.5-2c-1.4-2.1,0.3-5.8,3.1-7.4c0.5-0.3,1.1-0.5,1.7-0.7
					c4.3,1.4,3.6,7.1,8.5,9C135.9,302,130,302.9,128.5,301.2z"/>
				<path class="st22" d="M130.2,301.3c-0.6-0.5-1.1-1.2-1.4-2c-1,0.9-2.8,1.5-3.3,0.4c-0.4-0.6-0.1-2.1,0.3-2.9
					c-0.7,0.5-1.6-0.1-1.1-1c-0.2-0.5,1.1-1.7,1.2-2.2c0.6-0.7,1.3-1.3,2.1-1.8c0.5-0.3,1.1-0.5,1.7-0.7c3.2,1.1,3.6,4.6,5.7,7.1
					c0,0,1.2,0.8,1.1,0.8C135.3,300.3,131.8,302.2,130.2,301.3z"/>
				<path class="st23" d="M130.4,300c-0.4-0.3-0.9-0.9-0.1-2c-1,0.9-3.3,1.9-3.8,0.9c-0.2-1.5,0.4-2,1.7-3.3
					c-0.7,0.5-1.5-0.1-1.8-0.9c-0.2-0.4-0.2-0.9-0.1-1.4c0.5-0.6,1.1-1,1.7-1.4c0.5-0.3,1.1-0.5,1.7-0.7c3.2,1.1,3.6,4.6,5.7,7.1
					l-0.1,0.1C134.1,299.5,132,300.9,130.4,300z"/>
				<path class="st24" d="M128.6,301.2c-0.3-2.6,1.6-3.2,1.7-3.2s-2.3,0.4-2,3.3L128.6,301.2z"/>
				<path class="st24" d="M125.1,299.4c0.7-3.7,3.3-4,3.5-4s-3-0.1-3.8,3.9L125.1,299.4z"/>
				<path class="st30" d="M172.8,288.1c2.5-2.7,10.6-3,14.2-2.2c-3.9-2.6-7.7-9.2-5.4-15.1s10.8-6.5,16.4-4s6.8,7.1,6.8,7.1l7.8,3.5
					c0.5,3.1,0,6.2-1.4,9c0.9,1.5,2.3,6.2-1.6,7.5c-9.6,3.2-19.1,1.4-23.6,2.5c-2.3,1.7-7.8,1.8-8.9,0.2c-2.2,0.9-4.4,0.2-4.8-1.3
					C170.2,294.8,170.2,290.8,172.8,288.1z"/>
				<path class="st11" d="M171.4,290.1c0.3-0.7,0.8-1.4,1.3-2c1.2-1.3,7.2-2.3,9.9-2.6c8,3.9,14.8,7.2,20.5,2.3
					c-8.8,3.3-23.6-4-21.4-16.9c0-0.6,1.2-2.1,1.4-2.5c3.4-3.5,10.1-3.6,14.8-1.6c5.6,2.5,6.8,7.1,6.8,7.1l7.8,3.5
					c0.2,1.2,0.3,2.4,0.1,3.5c-1,2-1,3.8-3.1,4.5c1.6,1.4,2.4,2.4,2.3,4.3c-0.3,1.1-1,2.1-2,2.7c-3.8,2-10.1,2.8-14.2,2.2
					c-9.9-0.8-12.2,2.9-16.3,1.7c-1.2-0.6-0.9-3.2-1-4.3c-1,0.9-1.1,2.7-3,2.6c-0.4,0-0.8-0.6-1.2-0.6c-0.5-1.2-0.3-2.5,0.7-3.4
					C173.7,291.3,172.2,291.1,171.4,290.1C171.5,290.1,171.4,290.1,171.4,290.1z"/>
				<path class="st12" d="M171.4,290.1c0.3-0.7,0.8-1.4,1.3-2c1.2-1.3,3.8-2.1,6.5-2.4c8.8,2.6,20.3,10,26.6-0.3
					c-11.1,5.9-24.1-3.2-23.1-15.5c0-0.6,0.1-1.1,0.4-1.6c3.4-3.5,10.1-3.6,14.8-1.6c5.6,2.5,6.8,7.1,6.8,7.1l7.8,3.5
					c0.2,1.2,0.3,2.4,0.1,3.5c-1.1,2-2.8,3.6-5,4.3c2.2,0.1,2.9,2.2,2.8,4.1c-0.3,0.7-0.9,1.2-1.7,1.3c-3.8,2-9.2,3.2-13.4,2.7
					c-8.7-0.3-11.4,2.4-16,1.9c-1.2-0.6-1-2.1-1.1-3.2c-1,0.9-1.1,2.7-3,2.6c-0.4,0-0.8-0.6-1.2-0.6c-0.5-1.2-0.3-2.5,0.7-3.4
					C173.7,291.3,172.2,291.1,171.4,290.1z"/>
				<path class="st21" d="M177.1,296.4c-2.9,1.4-5.2,0.7-4.8-1.3c-2.1-0.4-2-4.4,0.5-7.1c1-0.9,2.2-1.5,3.5-1.8
					c4.7,2,6.1,9.3,9.7,10C183.6,298,178.2,298.1,177.1,296.4z"/>
				<path class="st22" d="M179.3,296c-1.4-0.3-2.4-0.1-2.5-1.2c-0.9,0.7-2.1,0.9-3.1,0.4c-1-0.5-1.4-1.7-0.9-2.8
					c0.1-0.2,0.2-0.4,0.4-0.5c-0.8,0.4-1.7,0.1-2.2-0.6c0.5-1.1,1.1-2.2,1.8-3.2c1-0.9,2.2-1.5,3.5-1.8c3.7,1.6,6.1,7.4,8.4,9.7
					C182.9,296.3,181.1,296.3,179.3,296z"/>
				<path class="st23" d="M179.4,295.2c-1.2-0.6-1-2.1-1.1-3.2c-1,0.9-1.1,2.7-3,2.6c-0.4,0-0.8-0.6-1.2-0.6
					c-0.5-1.2-0.3-2.5,0.7-3.4c-1.1,0.8-2.5,0.5-3.3-0.5c0.3-0.7,0.8-1.4,1.3-2c1-0.9,2.2-1.5,3.5-1.8c3.7,1.6,5.4,6.5,7.7,8.8
					C182.4,295.5,180.9,295.5,179.4,295.2z"/>
				<path class="st24" d="M177,296.6l0.3-0.2c-0.7-1.2-0.6-2.6,0.2-3.7C176.5,293.7,176.2,295.3,177,296.6z"/>
				<path class="st24" d="M172.1,295.4l0.4-0.1c-0.3-1.7,0.4-3.5,1.7-4.6C174.2,290.7,171.5,292.5,172.1,295.4z"/>
				<path class="st31" d="M152.2,224.8c4.8-2.1,10.6-0.2,12.5,6.1c0.1,0.2,0.1,0.4,0.2,0.6c-0.1,7.1-5.8,11.4-11.8,10.2l-7.5-9.2
					C145.6,232.5,147.4,226.8,152.2,224.8z"/>
				<path class="st12" d="M152.2,224.8c4.8-2.1,10.6-0.2,12.5,6.1c0.1,0.2,0.1,0.4,0.2,0.6c-0.8,5.6-7.4,9.9-13.4,8.8l-5.9-7.7
					C145.6,232.5,147.4,226.8,152.2,224.8z"/>
				<path class="st25" d="M158.5,225.9c-4.2-1.3-8.8,0.1-11.5,3.6c1.2-2.1,3.1-3.8,5.3-4.7c4.8-2.1,10.6-0.2,12.5,6.1
					c0.1,0.2,0.1,0.4,0.2,0.6c-0.1,0.4-0.2,0.9-0.3,1.3C164.2,229.4,161.7,226.7,158.5,225.9z"/>
				<path class="st14" d="M150.8,237.4c1.9,1.4,6.5,2,8.9-1.1s0-7-3.3-6.3S151.2,234.6,150.8,237.4z"/>
				<path class="st14" d="M154.6,232.1c1.8-1.1,4.1-0.5,5.2,1.2c0.1,0.1,0.1,0.2,0.2,0.3c0.2,0.6,0.3,1.3,0.1,1.9
					c-0.1,0.3-0.3,0.5-0.5,0.7c-2.2,2.9-6.2,2.6-8.3,1.5C152.4,236,153,233.7,154.6,232.1z"/>
				<path class="st23" d="M123.3,263.9c-2.4-0.8-3.4-3.5-3.7-5.1c-2.3-1.3-3.6-4.8-0.5-8.6c0-0.3,0-0.5,0-0.8c2-0.4,5.2-0.8,6.6-0.4
					c1.5,1.7,4.1,1.8,7.1,1.4s4.9,1,4.6,3.5c-0.4,2.9-3.8,4.9-4.5,8C131.8,263.8,125.7,264.6,123.3,263.9z"/>
				<path class="st23" d="M124,263c-1.6-0.5-3.5-2.8-2.8-4.5c-3,1-4.9-4-1.8-7.9c-0.1-0.4-0.3-0.9-0.3-1.3c2-0.4,5.2-0.8,6.6-0.4
					c1.5,1.7,4.1,1.8,7.1,1.4s4.9,1,4.6,3.5c-0.4,2.9-3.4,3.8-4.2,6.9C132.2,262.6,126.4,263.8,124,263z"/>
				<path class="st23" d="M123.9,262.1c-1.4-0.4-2.2-1.9-1.8-3.3c0.1-0.2,0.1-0.4,0.2-0.5c-3,1-6-3.8-3-7.6
					c-0.1-0.4-0.3-0.9-0.3-1.3c2-0.4,5.2-0.8,6.6-0.4c1.5,1.7,4.1,1.8,7.1,1.4s4.9,1,4.6,3.5c-0.4,2.9-4.2,3.1-5,6.2
					C131.4,262,126.3,262.8,123.9,262.1z"/>
				<path class="st11" d="M128.3,259.6c0.7-0.1,1.5-0.3,2.1-0.6c2-1,3.4-2.8,4-4.9l-0.4,0c-0.6,2-1.9,3.7-3.8,4.7
					c-3,1.4-6.2,0.3-6.8-0.7l-0.1-0.2l-0.2,0.1c-0.5,0.4-2.3,1.4-3.8,0.6l-0.2,0.3c1.3,0.6,2.9,0.4,4.1-0.5
					C124,259.2,126.1,259.9,128.3,259.6z"/>
				<path class="st11" d="M123.8,258.8l0.2-0.3c-0.9-0.7-1.5-1.8-1.4-2.9C122.6,255.5,122.2,257.8,123.8,258.8z"/>
				<path class="st11" d="M135.1,255c0-0.5-0.4-1-0.9-1.2c-0.6-0.2-1.2,0-1.6,0.5c0.5-0.2,1-0.3,1.5-0.1
					C134.5,254.3,134.9,254.6,135.1,255z"/>
				<path class="st19" d="M122.1,254.1c0.8-0.1,1.2-0.7,1.3-1.9s1.7-2.1,2.4-2.5s0.6-1.8-0.8-1.8c-2,0.1-4,0.3-6,0.7
					c-1.2,0.4-1.2,1.8-0.1,2.5c0.5,0.3,1,0.8,1.2,1.4C120.7,253.6,121.2,254.2,122.1,254.1z"/>
				<path class="st32" d="M126.1,249.1c-2.6,0-2.8,3.7-4.9,2.5c-1.2-0.7-2.3-1.1-3-2.2c0.1-0.4,0.5-0.7,0.9-0.8c2-0.4,4-0.7,6-0.7
					c0.5,0,0.9,0.2,1.2,0.6C126.2,248.8,126.3,249.1,126.1,249.1z"/>
				<path class="st25" d="M132.2,243c0.3,2.8,8,1.8,7.7-1s-2.4-4.8-4.5-4.5S131.9,240.2,132.2,243z"/>
				<path class="st17" d="M132.7,242.8c0.3,2.4,7,1.6,6.7-0.9s-2-4.2-3.9-3.9S132.4,240.3,132.7,242.8z"/>
				<path class="st25" d="M122.4,241.8c-0.3,2.1,5.6,2.9,5.9,0.8s-0.8-4-2.4-4.2S122.7,239.6,122.4,241.8z"/>
				<path class="st17" d="M123.1,241.6c-0.2,1.7,4.5,2.4,4.7,0.6s-0.6-3.2-1.9-3.4S123.3,240,123.1,241.6z"/>
				<path class="st33" d="M135.8,233.9c0,0,2.4-0.8,4.3,2.1C140.2,233.8,137.7,231.5,135.8,233.9z"/>
				<path class="st32" d="M140.2,236.5l-0.3-0.4c-1.6-2.4-3.4-2.2-4-2.1h-0.1l-0.5,0.2l0.3-0.4c0.4-0.5,0.9-0.9,1.5-1
					c0.7-0.1,1.4,0.1,1.9,0.6c0.8,0.7,1.2,1.7,1.2,2.7L140.2,236.5z"/>
				<path class="st32" d="M122.7,236.1c0.9-1.1,2.1-1.8,3.5-2.1C125.5,232.9,123.9,233.1,122.7,236.1z"/>
				<path class="st34" d="M135.4,240.8c0,0.5-0.4,0.9-0.9,0.9s-0.9-0.4-0.9-0.9s0.4-0.9,0.9-0.9C135,239.9,135.3,240.3,135.4,240.8
					C135.4,240.7,135.4,240.8,135.4,240.8z"/>
				<path class="st34" d="M125,240.5c0,0.3-0.3,0.6-0.6,0.6c-0.3,0-0.6-0.3-0.6-0.6c0-0.3,0.3-0.6,0.6-0.6c0,0,0,0,0,0
					C124.7,239.9,125,240.2,125,240.5z"/>
			</g>
		</g>
	</g>
</g>
</svg>
