<?xml version="1.0" encoding="utf-8"?>
<!-- Generator: Adobe Illustrator 25.2.3, SVG Export Plug-In . SVG Version: 6.00 Build 0)  -->
<svg version="1.1" id="Layer_1" xmlns="http://www.w3.org/2000/svg" xmlns:xlink="http://www.w3.org/1999/xlink" x="0px" y="0px"
	 viewBox="0 0 231.7 375.8" style="enable-background:new 0 0 231.7 375.8;" xml:space="preserve">
<style type="text/css">
	.st0{fill:#F4B155;}
	.st1{fill:#FFF0CC;}
	.st2{fill:#231F20;}
	.st3{clip-path:url(#SVGID_2_);}
	.st4{fill:#A4F6FF;}
	.st5{fill:#FFFFFF;}
	.st6{fill:#CC655A;}
	.st7{fill:#C97167;}
	.st8{fill:#74C7A7;}
	.st9{fill:#54585E;}
	.st10{fill:#F1F2F2;}
	.st11{fill:#DFD7CB;}
	.st12{fill:#F5F3EF;}
	.st13{fill:#8A7E70;}
	.st14{fill:#E6E7E8;}
	.st15{fill:#E4E6E1;}
	.st16{fill:#EE915B;}
	.st17{fill:#AECE83;}
	.st18{fill:#9FBA74;}
	.st19{fill:#E6705F;}
	.st20{fill:#3C2E49;}
	.st21{fill:#F4F4C6;}
	.st22{fill:#DD4F65;}
	.st23{fill:#E0DEAF;}
	.st24{fill:#FFD351;}
	.st25{fill:#4A355B;}
	.st26{fill:#F5B155;}
	.st27{fill:#47372E;}
	.st28{fill:#FFD150;}
	.st29{fill:#E4705E;}
	.st30{fill:#D6306A;}
	.st31{fill:#F4B055;}
</style>
<g id="Layer_2_1_">
	<g id="Layer_1-2">
		<path class="st0" d="M231.7,14.2v347.3c0,7.9-6.6,14.2-14.8,14.2H14.8c-8,0.1-14.6-6.2-14.8-14.2V14.2C0.2,6.2,6.8-0.1,14.8,0
			h202.1C225.1,0,231.7,6.4,231.7,14.2z M219.3,353.2V22.5c0-5.9-4.8-10.7-10.7-10.7H23.1c-5.9,0-10.7,4.8-10.7,10.7v330.8
			c0,5.9,4.8,10.7,10.6,10.7c0,0,0,0,0,0h185.5C214.5,364,219.3,359.2,219.3,353.2C219.3,353.3,219.3,353.3,219.3,353.2L219.3,353.2
			z"/>
		<path class="st1" d="M23.1,11.9h185.5c5.9,0,10.7,4.8,10.7,10.7v330.8c0,5.9-4.8,10.7-10.7,10.7H23.1c-5.9,0-10.7-4.8-10.7-10.7
			V22.5C12.4,16.6,17.2,11.9,23.1,11.9z"/>
		<path class="st2" d="M41.5,325.5c-0.1-0.1-0.2-0.3-0.2-0.5v-11.8c-0.1-0.3,0.1-0.6,0.5-0.7c0.1,0,0.2,0,0.2,0h1
			c0.2,0,0.4,0,0.6,0.2c0.1,0.1,0.2,0.3,0.2,0.5V325c0,0.2,0,0.4-0.2,0.5c-0.2,0.1-0.4,0.2-0.6,0.2h-1
			C41.8,325.7,41.6,325.6,41.5,325.5z M49.3,325.6c-0.1,0-0.2-0.1-0.2-0.2l-4.7-5.6c-0.1-0.1-0.2-0.2-0.3-0.4
			c-0.1-0.1-0.1-0.3-0.1-0.4c0-0.1,0-0.3,0.1-0.4c0.1-0.1,0.2-0.3,0.3-0.4l4.5-5.6c0.1-0.1,0.1-0.2,0.2-0.2c0.1,0,0.2,0,0.4,0h1.8
			c0.1,0,0.2,0,0.2,0.1c0.1,0.1,0.1,0.1,0.1,0.2c0,0.1,0,0.2-0.1,0.3l-5,6l5.1,6.1c0.1,0.1,0.1,0.2,0.1,0.3c0,0.1-0.1,0.3-0.2,0.3
			c0,0,0,0,0,0h-1.8C49.5,325.7,49.4,325.7,49.3,325.6z"/>
		<path class="st2" d="M53.7,325.5c-0.1-0.1-0.2-0.3-0.2-0.5v-11.8c0-0.2,0-0.4,0.2-0.5c0.2-0.1,0.4-0.2,0.5-0.2h1
			c0.2,0,0.4,0,0.6,0.2c0.1,0.2,0.2,0.3,0.2,0.5V325c0,0.2,0,0.4-0.2,0.5c-0.2,0.1-0.4,0.2-0.6,0.2h-1
			C54.1,325.7,53.9,325.6,53.7,325.5z"/>
		<path class="st2" d="M58.5,325.5c-0.1-0.1-0.2-0.3-0.2-0.5v-11.8c0-0.2,0-0.4,0.2-0.5c0.2-0.1,0.4-0.2,0.6-0.2H60
			c0.1,0,0.3,0,0.4,0.1c0.1,0.1,0.2,0.2,0.3,0.3l6.4,8.9v-8.5c0-0.2,0-0.4,0.2-0.5c0.2-0.1,0.4-0.2,0.6-0.2h1c0.2,0,0.4,0,0.6,0.2
			c0.1,0.1,0.2,0.3,0.2,0.5V325c0,0.2,0,0.4-0.2,0.5c-0.2,0.1-0.4,0.2-0.6,0.2h-0.9c-0.1,0-0.3,0-0.4-0.1c-0.1-0.1-0.2-0.2-0.3-0.3
			l-6.4-8.9v8.5c0,0.2,0,0.4-0.2,0.5c-0.2,0.1-0.4,0.2-0.6,0.2H59C58.8,325.7,58.6,325.6,58.5,325.5z"/>
		<path class="st2" d="M73.3,324.2c-2.8-2.5-3.1-6.9-0.5-9.7c1.4-1.6,3.5-2.4,5.6-2.3c0.8,0,1.7,0.1,2.5,0.3
			c0.7,0.1,1.3,0.4,1.9,0.8c0.1,0.1,0.2,0.1,0.2,0.2c0,0.1,0,0.2-0.1,0.2l-0.6,1c-0.1,0.1-0.2,0.2-0.2,0.2c-0.1,0-0.2-0.1-0.2-0.1
			c-1-0.5-2-0.8-3.1-0.7c-1.3-0.1-2.5,0.4-3.5,1.2c-0.9,1-1.4,2.4-1.3,3.8c-0.1,1.4,0.3,2.7,1.2,3.8c0.9,0.9,2.1,1.3,3.3,1.2
			c0.5,0,1,0,1.5-0.1c0.4-0.1,0.8-0.2,1.2-0.4v-3.6h-2.6c-0.2,0-0.4,0-0.5-0.2c-0.1-0.1-0.2-0.3-0.2-0.5v-0.5c0-0.2,0-0.4,0.2-0.5
			c0.2-0.1,0.3-0.2,0.5-0.1h4.1c0.2,0,0.4,0.1,0.6,0.2c0.1,0.2,0.2,0.4,0.2,0.6v5.1c0,0.1,0,0.3-0.1,0.4c-0.1,0.1-0.1,0.2-0.2,0.3
			c-1.5,0.8-3.1,1.2-4.8,1.2C76.5,326.1,74.6,325.5,73.3,324.2z"/>
		<path class="st2" d="M94.3,324.2c-2.3-3-2.3-7.1,0-10.1c2.8-2.4,7-2.4,9.8,0c2.3,3,2.3,7.1,0,10.1
			C101.3,326.6,97.1,326.6,94.3,324.2z M102.3,322.9c1.4-2.3,1.4-5.2,0-7.5c-1.7-1.7-4.5-1.7-6.2,0c-1.4,2.3-1.4,5.2,0,7.5
			C97.8,324.6,100.5,324.6,102.3,322.9C102.3,322.9,102.3,322.9,102.3,322.9z"/>
		<path class="st2" d="M107.9,325.5c-0.1-0.1-0.2-0.3-0.2-0.5v-11.8c0-0.2,0-0.4,0.2-0.5c0.2-0.1,0.4-0.2,0.6-0.2h8.1
			c0.2,0,0.4,0,0.5,0.1c0.1,0.2,0.2,0.3,0.2,0.5v0.5c0,0.2,0,0.4-0.2,0.5c-0.1,0.1-0.3,0.2-0.5,0.2h-6.3v3.7h4.6
			c0.2,0,0.4,0,0.6,0.2c0.1,0.1,0.2,0.3,0.2,0.5v0.5c0,0.2,0,0.4-0.2,0.5c-0.2,0.1-0.4,0.2-0.6,0.2h-4.6v5c0,0.2,0,0.4-0.2,0.5
			c-0.2,0.1-0.4,0.2-0.6,0.2h-1C108.2,325.7,108,325.6,107.9,325.5z"/>
		<path class="st2" d="M129.1,325.6c-0.1-0.1-0.2-0.2-0.2-0.4l-3.1-12.2c0-0.1,0-0.1,0-0.2c0-0.2,0.1-0.3,0.4-0.3h1.6
			c0.1,0,0.3,0,0.4,0.1c0.1,0.1,0.1,0.2,0.2,0.3l1.9,8.5l2.3-7.5c0-0.1,0.1-0.2,0.2-0.3c0.1-0.1,0.2-0.1,0.4-0.1h0.8
			c0.1,0,0.3,0,0.4,0.1c0.1,0.1,0.1,0.2,0.2,0.3l2.4,7.5l1.9-8.5c0-0.1,0.1-0.2,0.2-0.3c0.1-0.1,0.3-0.1,0.4-0.1h1.6
			c0.2,0,0.4,0.1,0.4,0.3c0,0.1,0,0.1,0,0.2l-3.1,12.2c0,0.1-0.1,0.3-0.2,0.4c-0.1,0.1-0.3,0.1-0.4,0.1h-1c-0.1,0-0.3,0-0.4-0.1
			c-0.1-0.1-0.2-0.2-0.2-0.4l-2.3-7.8l-2.3,7.8c0,0.1-0.1,0.3-0.2,0.4c-0.1,0.1-0.3,0.1-0.4,0.1h-1.1
			C129.5,325.7,129.3,325.7,129.1,325.6z"/>
		<path class="st2" d="M140.9,325.4c0-0.1,0-0.2,0.1-0.2L146,313c0.1-0.2,0.1-0.3,0.2-0.4c0.1-0.1,0.3-0.1,0.4-0.1h1.1
			c0.1,0,0.3,0,0.4,0.1c0.1,0.1,0.2,0.3,0.2,0.4l5.1,12.1c0,0.1,0.1,0.2,0.1,0.2c0,0.2-0.1,0.3-0.3,0.3h-1.7c-0.1,0-0.2,0-0.4-0.1
			c-0.1-0.1-0.2-0.2-0.2-0.3l-1.1-2.7h-5.3l-1.1,2.7c0,0.1-0.1,0.2-0.2,0.3c-0.1,0-0.2,0.1-0.4,0.1h-1.7
			C141,325.7,140.9,325.6,140.9,325.4z M149.2,320.8l-2.1-5.1l-2.1,5.1H149.2z"/>
		<path class="st2" d="M155.6,325.5c-0.1-0.1-0.2-0.3-0.2-0.5v-11.8c0-0.2,0-0.4,0.2-0.5c0.2-0.1,0.4-0.2,0.6-0.2h0.9
			c0.1,0,0.3,0,0.4,0.1c0.1,0.1,0.2,0.2,0.3,0.3l6.4,8.9v-8.5c0-0.2,0-0.4,0.2-0.5c0.2-0.1,0.4-0.2,0.6-0.2h1c0.2,0,0.4,0,0.6,0.2
			c0.1,0.2,0.2,0.3,0.2,0.5V325c0,0.2,0,0.4-0.2,0.5c-0.2,0.1-0.4,0.2-0.6,0.2H165c-0.1,0-0.3,0-0.4-0.1c-0.1-0.1-0.2-0.2-0.3-0.3
			l-6.4-8.9v8.5c0,0.2,0,0.4-0.2,0.5c-0.2,0.1-0.4,0.2-0.6,0.2h-1C156,325.7,155.8,325.6,155.6,325.5z"/>
		<path class="st2" d="M169.1,325.5c-0.1-0.1-0.1-0.3-0.1-0.5v-11.8c0-0.2,0-0.4,0.2-0.5c0.2-0.1,0.4-0.2,0.6-0.2h3.9
			c1.8-0.1,3.6,0.4,5,1.6c1.1,1,1.7,2.7,1.7,5c0,4.4-2.2,6.6-6.7,6.6h-3.9C169.5,325.7,169.3,325.6,169.1,325.5z M173.7,323.8
			c1.1,0.1,2.3-0.3,3.1-1.1c1.4-2.2,1.4-5,0-7.3c-0.8-0.8-2-1.1-3.1-1.1h-2.3v9.4H173.7z"/>
		<path class="st2" d="M183.3,325.7c-0.8-0.2-1.5-0.4-2.1-0.9c-0.2-0.1-0.2-0.2-0.2-0.3c0-0.1,0-0.2,0.1-0.2l0.6-1
			c0.1-0.1,0.1-0.2,0.2-0.2c0.1,0,0.2,0,0.2,0.1c0.5,0.3,1.1,0.5,1.7,0.7c0.6,0.2,1.3,0.3,1.9,0.3c0.7,0,1.4-0.1,2-0.4
			c0.5-0.3,0.7-0.8,0.7-1.4c0-0.3-0.1-0.7-0.2-0.9c-0.2-0.3-0.4-0.5-0.7-0.6c-0.5-0.3-1-0.5-1.6-0.7l-0.4-0.2
			c-0.7-0.3-1.4-0.6-2.1-1c-0.5-0.3-1-0.7-1.4-1.2c-1-1.5-0.6-3.5,0.8-4.6c1-0.7,2.3-1,3.5-1c0.8,0,1.6,0.1,2.3,0.2
			c0.6,0.1,1.2,0.4,1.7,0.8c0.2,0.1,0.2,0.2,0.2,0.3c0,0.1,0,0.2-0.1,0.2l-0.6,1c-0.1,0.1-0.1,0.2-0.2,0.2c-0.1,0-0.2-0.1-0.3-0.1
			c-0.9-0.6-2-0.8-3.1-0.8c-0.6,0-1.3,0.1-1.8,0.4c-0.4,0.3-0.7,0.9-0.6,1.4c0,0.3,0.1,0.7,0.3,1c0.2,0.3,0.5,0.5,0.8,0.6
			c0.3,0.2,0.9,0.4,1.6,0.7l0.5,0.2c0.8,0.3,1.5,0.6,2.2,1c0.5,0.3,0.9,0.7,1.2,1.2c0.3,0.6,0.5,1.2,0.4,1.8c0,1-0.4,2-1.2,2.6
			c-1,0.7-2.3,1.1-3.6,1C185.1,325.9,184.2,325.8,183.3,325.7z"/>
		<g>
			<defs>
				<path id="SVGID_1_" d="M48.8,48.1H176c13.5,0,24.4,10.9,24.4,24.4v189.6c0,13.5-10.9,24.4-24.4,24.4H48.8
					c-13.5,0-24.4-10.9-24.4-24.4V72.5C24.4,59,35.3,48.1,48.8,48.1z"/>
			</defs>
			<clipPath id="SVGID_2_">
				<use xlink:href="#SVGID_1_"  style="overflow:visible;"/>
			</clipPath>
			<g class="st3">
				<polygon class="st4" points="206.7,21 18.1,21 18.1,191.3 18.1,211 18.1,304.4 206.6,304.4 206.6,211 206.7,211 				"/>
				<path class="st5" d="M56.7,101H-3.6c-4.3,0-7.8-3.5-7.8-7.8l0,0c0-4.3,3.5-7.8,7.8-7.8h60.3c4.3,0,7.8,3.5,7.8,7.8l0,0
					C64.5,97.5,61,101,56.7,101z"/>
				<circle class="st5" cx="18.9" cy="81.6" r="19.4"/>
				<circle class="st5" cx="40.2" cy="87.2" r="13.8"/>
				<path class="st5" d="M165.2,105.7H213c3.4,0,6.2-2.8,6.2-6.2l0,0c0-3.4-2.8-6.2-6.2-6.2h-47.8c-3.4,0-6.2,2.8-6.2,6.2l0,0
					C159,102.9,161.8,105.7,165.2,105.7z"/>
				<ellipse class="st5" cx="195.2" cy="90.2" rx="15.4" ry="15.5"/>
				<ellipse class="st5" cx="178.3" cy="94.6" rx="10.9" ry="11.1"/>
				<path class="st5" d="M158.2,62.9h-20.7c-1.1,0-2.1-0.9-2.1-2v-1c0-1.1,0.9-2,2.1-2h20.7c1.1,0,2.1,0.9,2.1,2v1
					C160.2,62,159.3,62.9,158.2,62.9z"/>
				<ellipse class="st5" cx="150.3" cy="56.5" rx="6.3" ry="6.4"/>
				<ellipse class="st5" cx="143.4" cy="58.4" rx="4.5" ry="4.5"/>
				<path class="st5" d="M76.4,37.2H96c1.1,0,2.1,0.9,2.1,2V40c0,1.1-0.9,2-2.1,2H76.4c-1.1,0-2.1-0.9-2.1-2v-0.8
					C74.3,38.1,75.2,37.2,76.4,37.2z"/>
				<ellipse class="st5" cx="83.8" cy="36" rx="6.1" ry="6.1"/>
				<ellipse class="st5" cx="90.4" cy="37.7" rx="4.3" ry="4.3"/>
				<polygon class="st6" points="129.2,95.2 153.3,92.2 168.2,99.8 190.3,95.9 213.1,108.7 207.8,120.6 168.2,120.6 				"/>
				<path class="st7" d="M140.6,112c0.1-0.1,0.2-0.2,0.2-0.3c0.1-0.3,0-0.6-0.1-0.9c-2.3-5.5-4.9-10.8-7.8-15.9
					c-2.4-4.2-5-8.3-8.6-11c-3.9-2.9-8.4-8.9-12.9-9.2c-2.8-0.2-5.8,4.8-8.4,3.7s-4.7-3-7.2-4c-2.3-0.8-4.7-1.1-7.1-1.1
					C81.5,73,74,72.8,67.2,76c-1.8,0.8-3.5,1.9-5.4,2.6c-7.2,2.8-15.2,0.1-22.4,2.8S27.1,92.2,22.7,99.8c-2,3.2-3.6,6.6-4.8,10.1
					c-0.2,0.8-0.5,1.4-0.7,2L140.6,112z"/>
				<path class="st8" d="M121.1,81.4c-0.1,0.4-1,0.4-2.1,0.1s-1.9-0.8-1.8-1.2s1.1-0.4,2.1-0.1S121.2,81.1,121.1,81.4z"/>
				<path class="st8" d="M122,78.7c0.3-0.1,0.5-0.3,0.6-0.5c0.2-0.6-0.6-1.3-1.7-1.6c-0.2-0.1-0.4-0.1-0.6-0.1
					c-0.4-0.4-0.9-0.7-1.4-0.8h-0.2c0-0.1,0.1-0.1,0.1-0.2c0.2-0.6-0.6-1.3-1.7-1.6s-2.1-0.1-2.2,0.5c0,0.1,0,0.2,0,0.2
					c-0.2-0.1-0.4-0.2-0.6-0.2c-1.1-0.3-2.1-0.1-2.2,0.5c0,0.3,0.1,0.7,0.3,0.9c-1-0.2-1.9,0-2,0.6s0.6,1.3,1.7,1.6
					c0.6,0.2,1.2,0.2,1.8-0.1c0.3,0.2,0.6,0.3,0.9,0.4c0.6,0.2,1.2,0.2,1.8-0.1c0.4,0.4,0.9,0.6,1.4,0.8c0.4,0.1,0.9,0.2,1.3,0.1
					c-0.1,0.6,0.6,1.3,1.7,1.6s2.1,0.1,2.2-0.5S122.9,79.1,122,78.7z"/>
				<path class="st8" d="M125,84.1c0.2-0.1,0.4-0.2,0.5-0.5c0.2-0.5-0.5-1.2-1.5-1.5h-0.2c0.1-0.1,0.1-0.2,0.2-0.3
					c0.2-0.5-0.5-1.2-1.5-1.5c-0.2-0.1-0.5-0.1-0.7-0.1c-0.2-0.7-0.8-1.2-1.5-1.3c-1-0.3-1.9,0-2.1,0.7c0,0,0,0.1,0,0.1
					c-0.3-0.2-0.6-0.3-0.9-0.4c-0.6-0.2-1.2-0.2-1.7,0.1c-0.2-0.4-0.6-0.7-1-0.8c0.1-0.1,0.1-0.2,0.2-0.3c0.2-0.7-0.5-1.4-1.4-1.7
					c-0.7-0.3-1.5-0.1-2,0.5c-0.3-0.2-0.6-0.4-0.9-0.4c-1-0.3-1.9,0-2.1,0.7c0,0.2,0,0.3,0,0.5c-0.9-0.2-1.6,0.1-1.7,0.6
					s0.5,1.2,1.5,1.5l0.3,0.1c0,0-0.1,0.1-0.1,0.2c-0.2,0.5,0.5,1.2,1.5,1.5s1.9,0,2-0.5c0.1-0.3-0.1-0.7-0.4-0.9
					c0.3,0.1,0.7,0.1,1,0c0.3,0.3,0.6,0.4,1,0.5c0,0.1-0.1,0.1-0.1,0.2c-0.1,0.5,0.5,1.2,1.5,1.4c0.5,0.1,0.9,0.1,1.4,0l0,0
					c-0.1,0.1-0.1,0.1-0.1,0.2c-0.2,0.5,0.5,1.2,1.5,1.5s1.9,0,2-0.5c0.1,0.1,0.3,0.1,0.4,0.2c0.9,0.3,1.8,0.1,2-0.4
					c0.2,0.2,0.4,0.3,0.6,0.4c-0.1,0.1-0.1,0.1-0.1,0.2c-0.1,0.4,0.4,0.9,1.1,1.1s1.4,0,1.5-0.4S125.3,84.3,125,84.1z"/>
				<path class="st8" d="M115.7,78.2c-0.1,0.4-1.3,0.5-2.7,0.2s-2.3-1-2.2-1.5s1.3-0.5,2.7-0.2S115.8,77.8,115.7,78.2z"/>
				<path class="st8" d="M116.7,76.6c0.4-0.1,0.6-0.3,0.8-0.7c0.2-0.7-0.7-1.6-2.1-2c-0.2-0.1-0.5-0.1-0.8-0.1
					c-0.5-0.5-1.1-0.8-1.7-1h-0.2c0-0.1,0.1-0.1,0.1-0.2c0.2-0.7-0.7-1.6-2.1-2s-2.6-0.1-2.8,0.7c0,0.1,0,0.2,0,0.3
					c-0.2-0.1-0.5-0.2-0.7-0.3c-1.3-0.4-2.6-0.1-2.8,0.7c-0.1,0.4,0.1,0.8,0.4,1.1c-1.2-0.2-2.3,0-2.5,0.7s0.7,1.6,2.1,2
					c0.7,0.2,1.5,0.2,2.3-0.1c0.4,0.2,0.7,0.4,1.2,0.5c0.7,0.2,1.5,0.2,2.2-0.1c0.5,0.5,1.1,0.8,1.8,0.9c0.5,0.1,1.1,0.2,1.6,0.2
					c-0.1,0.7,0.8,1.6,2.1,1.9s2.6,0.1,2.8-0.6S117.8,77,116.7,76.6z"/>
				<path class="st8" d="M120.5,81.5c0.3-0.1,0.5-0.3,0.6-0.6c0.2-0.7-0.7-1.5-1.9-1.8l-0.3-0.1c0.1-0.1,0.2-0.2,0.2-0.3
					c0.2-0.7-0.7-1.5-1.9-1.8c-0.3-0.1-0.5-0.1-0.8-0.1c-0.3-0.8-1-1.5-1.8-1.6c-1.2-0.3-2.4,0-2.6,0.8v0.1
					c-0.3-0.2-0.7-0.4-1.1-0.5c-0.7-0.2-1.5-0.2-2.1,0.1c-0.3-0.5-0.7-0.8-1.2-1c0.1-0.1,0.2-0.2,0.2-0.4c0.2-0.8-0.6-1.7-1.8-2
					c-0.9-0.4-1.9-0.1-2.5,0.7c-0.3-0.2-0.7-0.4-1.1-0.5c-1.2-0.3-2.4,0-2.6,0.8c-0.1,0.2-0.1,0.4,0,0.6c-1.1-0.2-2,0.1-2.2,0.7
					s0.7,1.5,1.9,1.8l0.4,0.1c0,0.1-0.1,0.1-0.1,0.2c-0.2,0.7,0.7,1.5,1.9,1.8s2.3,0.1,2.5-0.6c0.1-0.4-0.1-0.9-0.5-1.1
					c0.4,0.1,0.9,0.1,1.3,0c0.3,0.3,0.8,0.5,1.2,0.7c-0.1,0.1-0.1,0.2-0.1,0.2c-0.2,0.7,0.7,1.5,1.9,1.8c0.6,0.2,1.2,0.2,1.7,0h0.1
					c-0.1,0.1-0.1,0.2-0.1,0.3c-0.2,0.7,0.7,1.5,1.9,1.8s2.3,0.1,2.5-0.6c0.2,0.1,0.4,0.1,0.6,0.2c1.2,0.3,2.2,0.1,2.5-0.5
					c0.2,0.2,0.5,0.4,0.8,0.5c-0.1,0.1-0.1,0.2-0.2,0.3c-0.1,0.5,0.5,1.1,1.4,1.4s1.8,0,1.9-0.4C121.1,82.2,120.9,81.8,120.5,81.5z"
					/>
				<rect x="87" y="67.9" class="st5" width="13.5" height="10.2"/>
				<rect x="88.4" y="69.9" class="st9" width="2.1" height="2.1"/>
				<rect x="92.7" y="69.9" class="st9" width="2.1" height="2.1"/>
				<rect x="97" y="69.9" class="st9" width="2.1" height="2.1"/>
				<rect x="88.4" y="73.2" class="st9" width="2.1" height="2.1"/>
				<rect x="92.7" y="73.2" class="st9" width="2.1" height="2.1"/>
				<rect x="97" y="73.2" class="st9" width="2.1" height="2.1"/>
				<path class="st10" d="M102.1,67.9H85.4c-0.1,0-0.2-0.1-0.2-0.2c0-0.1,0-0.1,0.1-0.2l7.8-4.8c0.4-0.2,0.9-0.2,1.3,0l7.8,4.8
					c0.1,0.1,0.1,0.2,0.1,0.3C102.2,67.9,102.1,67.9,102.1,67.9z"/>
				<path class="st8" d="M92.4,74.5c0,0.4-0.9,0.7-1.9,0.7s-1.9-0.3-1.9-0.7s0.9-0.7,1.9-0.7S92.4,74.1,92.4,74.5z"/>
				<path class="st8" d="M92.6,71.6c0.2-0.1,0.4-0.4,0.4-0.6c0-0.6-0.9-1.1-1.9-1.1c-0.2,0-0.4,0-0.6,0.1c-0.4-0.3-1-0.5-1.5-0.5
					h-0.2c0-0.1,0-0.1,0-0.2c0-0.6-0.9-1.1-1.9-1.1S85,68.7,85,69.3c0,0.1,0,0.2,0.1,0.3c-0.2,0-0.4-0.1-0.6-0.1
					c-1,0-1.9,0.5-1.9,1.1c0,0.3,0.2,0.6,0.5,0.8c-1,0.1-1.7,0.5-1.7,1.1s0.8,1.1,1.9,1.1c0.6,0,1.2-0.1,1.7-0.5
					c0.3,0.1,0.7,0.2,1,0.2c0.6,0,1.2-0.2,1.6-0.5c0.5,0.2,1,0.4,1.5,0.3c0.4,0,0.8-0.1,1.2-0.2c0,0.6,0.9,1.1,1.9,1.1
					s1.9-0.5,1.9-1.1S93.4,71.7,92.6,71.6z"/>
				<path class="st8" d="M96.6,76.1c0.2-0.1,0.3-0.3,0.3-0.6c0-0.6-0.8-1-1.7-1h-0.2c0.1-0.1,0.1-0.2,0.1-0.3c0-0.6-0.8-1-1.7-1
					c-0.2,0-0.4,0-0.6,0.1c-0.3-0.6-1-0.9-1.7-0.9c-1,0-1.7,0.5-1.7,1.2c0,0,0,0.1,0,0.1c-0.3-0.1-0.6-0.1-0.9-0.2
					c-0.6,0-1.1,0.2-1.5,0.5c-0.3-0.3-0.7-0.5-1.1-0.5c0-0.1,0.1-0.2,0.1-0.3c0-0.7-0.8-1.2-1.7-1.2c-0.7-0.1-1.4,0.3-1.7,1
					c-0.3-0.1-0.6-0.2-0.9-0.2c-0.9,0-1.7,0.5-1.7,1.2c0,0.2,0,0.3,0.1,0.5c-0.8,0.1-1.4,0.5-1.4,1s0.8,1,1.7,1h0.3
					c0,0.1,0,0.1,0,0.2c0,0.6,0.8,1,1.7,1s1.7-0.4,1.7-1c0-0.3-0.3-0.6-0.6-0.8c0.4,0,0.7-0.1,1-0.3c0.3,0.2,0.6,0.3,1,0.3
					c0,0.1,0,0.1,0,0.2c0,0.6,0.8,1,1.7,1c0.5,0,0.9-0.1,1.3-0.3l0,0c0,0.1-0.1,0.2-0.1,0.2c0,0.6,0.8,1,1.7,1s1.7-0.4,1.8-1
					c0.1,0,0.3,0,0.4,0c0.9,0,1.7-0.4,1.7-0.9c0.2,0.1,0.4,0.2,0.7,0.2c0,0.1-0.1,0.2-0.1,0.2c0,0.4,0.6,0.8,1.3,0.8
					s1.3-0.3,1.3-0.8C97.2,76.4,96.9,76.2,96.6,76.1z"/>
				<path class="st8" d="M86.7,72.8c0,0.5-1.1,0.8-2.4,0.8s-2.4-0.4-2.4-0.8S83,72,84.3,72S86.7,72.3,86.7,72.8z"/>
				<path class="st8" d="M87.2,70.9c0.3-0.2,0.5-0.5,0.5-0.8c0-0.8-1-1.4-2.4-1.4c-0.2,0-0.5,0-0.7,0.1c-0.5-0.3-1.2-0.5-1.8-0.5
					h-0.2c0-0.1,0-0.2,0-0.2c0-0.8-1-1.4-2.4-1.4s-2.4,0.6-2.4,1.4c0,0.1,0,0.2,0.1,0.3c-0.2,0-0.5-0.1-0.7-0.1
					c-1.3,0-2.4,0.6-2.4,1.4c0,0.4,0.3,0.8,0.7,0.9c-1.2,0.1-2.1,0.7-2.1,1.3s1,1.4,2.4,1.4c0.7,0,1.4-0.2,2-0.7
					c0.4,0.1,0.8,0.2,1.2,0.2c0.7,0,1.4-0.2,2-0.7c0.6,0.3,1.2,0.4,1.9,0.4c0.5,0,1-0.1,1.5-0.2c0,0.7,1.1,1.3,2.3,1.3
					S89,73,89,72.2S88.3,71,87.2,70.9z"/>
				<path class="st8" d="M91.9,74.7c0.2-0.2,0.4-0.4,0.4-0.7c0-0.7-1-1.2-2.2-1.2h-0.3c0.1-0.1,0.1-0.2,0.2-0.4c0-0.7-1-1.2-2.2-1.2
					c-0.3,0-0.5,0-0.8,0.1c-0.4-0.7-1.2-1.1-2.1-1.1c-1.2,0-2.1,0.7-2.1,1.5c0,0,0,0.1,0,0.1c-0.4-0.1-0.7-0.2-1.1-0.2
					c-0.7,0-1.4,0.2-1.9,0.7c-0.4-0.4-0.9-0.6-1.4-0.7c0.1-0.1,0.1-0.3,0.1-0.4c0-0.8-1-1.5-2.1-1.5c-0.9-0.1-1.8,0.4-2.2,1.3
					c-0.4-0.1-0.7-0.2-1.1-0.2c-1.2,0-2.1,0.7-2.1,1.5c0,0.2,0.1,0.4,0.2,0.6c-1,0.1-1.8,0.6-1.8,1.2s1,1.2,2.2,1.2h0.4
					c0,0.1,0,0.1,0,0.2c0,0.7,1,1.2,2.2,1.2s2.2-0.6,2.2-1.2c0-0.4-0.3-0.8-0.7-0.9c0.4,0,0.8-0.1,1.2-0.3c0.4,0.2,0.8,0.3,1.3,0.3
					c0,0.1,0,0.2,0,0.3c0,0.7,1,1.2,2.2,1.2c0.6,0,1.1-0.1,1.6-0.4h0.1c0,0.1-0.1,0.2-0.1,0.3c0,0.7,1,1.2,2.2,1.2s2.1-0.6,2.1-1.2
					c0.2,0,0.4,0,0.5,0c1.1,0,2-0.5,2.2-1.1c0.3,0.2,0.6,0.3,0.8,0.3c-0.1,0.1-0.1,0.2-0.1,0.3c0,0.5,0.7,0.9,1.6,0.9
					s1.6-0.4,1.6-0.9C92.6,75.2,92.3,74.9,91.9,74.7z"/>
				<path class="st8" d="M67.9,78.2c0,0.4-0.8,0.8-1.9,0.9s-2.1,0-2.1-0.4s0.8-0.8,1.9-0.9S67.8,77.8,67.9,78.2z"/>
				<path class="st8" d="M67.8,75.3c0.2-0.2,0.4-0.4,0.3-0.7c-0.1-0.6-1-1-2.1-0.8c-0.2,0-0.4,0.1-0.6,0.1c-0.5-0.2-1.1-0.3-1.6-0.2
					h-0.2c0-0.1,0-0.1,0-0.2c-0.1-0.6-1-1-2.2-0.8s-1.9,0.8-1.9,1.3c0,0.1,0,0.2,0.1,0.2c-0.2,0-0.4,0-0.6,0c-1.1,0.1-2,0.7-1.9,1.3
					c0.1,0.3,0.3,0.6,0.7,0.7c-1,0.2-1.7,0.7-1.6,1.3s1,1,2.1,0.8c0.6,0,1.2-0.3,1.7-0.7c0.3,0.1,0.7,0.1,1,0c0.6,0,1.2-0.3,1.7-0.7
					c0.5,0.2,1.1,0.2,1.6,0.1c0.4,0,0.9-0.2,1.2-0.4c0.1,0.6,1.1,0.9,2.1,0.8s1.9-0.7,1.9-1.3S68.7,75.3,67.8,75.3z"/>
				<path class="st8" d="M72.6,79.2c0.2-0.2,0.3-0.4,0.2-0.6c-0.1-0.6-1-0.9-2-0.8h-0.2c0-0.1,0-0.2,0-0.3c-0.1-0.6-1-0.9-2-0.8
					c-0.2,0-0.4,0.1-0.7,0.2c-0.5-0.5-1.2-0.8-1.9-0.6c-1,0.1-1.8,0.8-1.7,1.4c0,0,0,0.1,0,0.1c-0.3-0.1-0.7-0.1-1,0
					c-0.5,0.1-1,0.3-1.4,0.7c-0.4-0.3-0.8-0.4-1.2-0.4c0-0.1,0-0.2,0-0.4c-0.1-0.7-1-1.1-2-1s-1.6,0.7-1.7,1.3
					c-0.3-0.1-0.7-0.1-1-0.1c-1,0.1-1.8,0.8-1.7,1.4c0,0.2,0.1,0.3,0.2,0.4c-0.9,0.2-1.5,0.7-1.4,1.2s0.9,0.9,2,0.8l0.3-0.1
					c0,0.1,0,0.1,0,0.2c0.1,0.6,1,0.9,2,0.8s1.8-0.7,1.7-1.2c0-0.3-0.3-0.5-0.7-0.7c0.4-0.1,0.7-0.2,1-0.4c0.4,0.1,0.7,0.2,1.1,0.1
					c0,0.1,0,0.1,0,0.2c0.1,0.6,1,0.9,2,0.8c0.5-0.1,0.9-0.2,1.3-0.5H64c0,0.1,0,0.2,0,0.2c0.1,0.6,0.9,0.9,2,0.8s1.8-0.7,1.7-1.2
					c0.2,0,0.3,0,0.5,0c1-0.1,1.7-0.6,1.7-1.1c0.2,0.1,0.5,0.1,0.8,0.2c0,0.1,0,0.2,0,0.2c0.1,0.4,0.7,0.7,1.5,0.6s1.3-0.5,1.3-0.9
					C73.2,79.4,72.9,79.2,72.6,79.2z"/>
				<path class="st8" d="M61.7,77.3c0.1,0.5-1,1-2.4,1.2s-2.5-0.1-2.6-0.5s1-1,2.4-1.2S61.6,76.8,61.7,77.3z"/>
				<path class="st8" d="M62,75.3c0.3-0.2,0.5-0.5,0.4-0.9c-0.1-0.7-1.3-1.2-2.7-1c-0.3,0-0.5,0.1-0.8,0.2c-0.6-0.3-1.3-0.4-2-0.2
					h-0.2c0-0.1,0-0.2,0-0.2c-0.1-0.8-1.3-1.2-2.7-1s-2.4,0.9-2.3,1.7c0,0.1,0.1,0.2,0.2,0.3c-0.3,0-0.5,0-0.8,0
					c-1.4,0.2-2.4,0.9-2.3,1.7c0.1,0.4,0.4,0.7,0.8,0.8c-1.2,0.2-2.1,0.9-2,1.6s1.3,1.2,2.7,1c0.8-0.1,1.5-0.4,2.1-0.9
					c0.4,0.1,0.8,0.1,1.3,0c0.8-0.1,1.5-0.4,2-0.9c0.6,0.2,1.3,0.3,2,0.2c0.5-0.1,1.1-0.2,1.5-0.4c0.2,0.7,1.3,1.1,2.7,1
					s2.4-0.9,2.3-1.7S63.2,75.3,62,75.3z"/>
				<path class="st8" d="M67.4,78.5c0.2-0.2,0.3-0.5,0.3-0.8c-0.1-0.7-1.2-1.1-2.4-0.9H65c0.1-0.1,0.1-0.3,0.1-0.4
					c-0.1-0.7-1.2-1.1-2.4-0.9c-0.3,0-0.6,0.1-0.8,0.2c-0.6-0.7-1.5-1-2.3-0.8c-1.2,0.2-2.2,1-2.1,1.8c0,0,0,0.1,0,0.1
					c-0.4-0.1-0.8-0.1-1.2,0c-0.7,0.1-1.4,0.4-1.9,0.9c-0.4-0.3-1-0.5-1.5-0.5c0-0.1,0-0.3,0-0.4c-0.1-0.8-1.2-1.3-2.5-1.2
					s-2,0.8-2.1,1.6C48,77,47.5,77,47.1,77c-1.2,0.2-2.2,1-2.1,1.8c0,0.2,0.1,0.4,0.3,0.6c-1.1,0.2-1.8,0.8-1.7,1.5s1.2,1.1,2.4,0.9
					c0.1,0,0.2,0,0.4-0.1c0,0.1,0,0.1,0,0.2c0.1,0.7,1.2,1.1,2.4,0.9s2.3-0.8,2.2-1.5c0-0.4-0.4-0.7-0.9-0.8
					c0.4-0.1,0.8-0.3,1.2-0.5c0.4,0.2,0.9,0.2,1.4,0.2c0,0.1,0,0.2,0,0.3c0.1,0.7,1.2,1.1,2.4,1c0.6-0.1,1.2-0.3,1.6-0.6h0.1
					c0,0.1,0,0.2,0,0.3c0.1,0.7,1.2,1.1,2.4,0.9s2.2-0.8,2.1-1.5h0.6c1.2-0.2,2.1-0.8,2.1-1.4c0.3,0.1,0.6,0.2,0.9,0.2
					c0,0.1-0.1,0.2-0.1,0.3c0.1,0.5,0.9,0.8,1.8,0.7s1.7-0.6,1.6-1.2C68.2,78.8,67.9,78.6,67.4,78.5z"/>
				<path class="st10" d="M74.5,67.1v-0.9c0-4.9-4-8.9-8.9-8.9h-0.2c-4.9,0-8.9,4-8.9,8.9v0.9H74.5z"/>
				<rect x="56.5" y="65.8" class="st11" width="18" height="22.6"/>
				<rect x="61.9" y="65.8" class="st12" width="7.1" height="22.6"/>
				<path class="st13" d="M67.6,76h-4.2v-4.8c0-1.1,0.9-2.1,2.1-2.1l0,0l0,0c1.1,0,2.1,0.9,2.1,2.1L67.6,76z"/>
				<path class="st13" d="M73,76h-2.9v-4.8c0-1.1,0.7-2.1,1.4-2.1l0,0c0.8,0,1.4,0.9,1.4,2.1L73,76z"/>
				<path class="st13" d="M61,76h-2.9v-4.8c0-1.1,0.6-2.1,1.4-2.1l0,0c0.8,0,1.4,0.9,1.4,2.1L61,76z"/>
				<path class="st10" d="M132.1,78.4v-0.7c0-3.6-2.9-6.5-6.5-6.5c0,0,0,0,0,0h-0.1c-3.6,0-6.5,2.9-6.5,6.5v0.7H132.1z"/>
				<rect x="118.9" y="77.4" class="st11" width="13.1" height="16.5"/>
				<rect x="122.9" y="77.4" class="st12" width="5.2" height="16.5"/>
				<path class="st13" d="M127,84.9h-3v-3.6c0-0.8,0.7-1.5,1.5-1.5c0,0,0,0,0,0l0,0c0.8,0,1.5,0.7,1.5,1.5V84.9z"/>
				<path class="st13" d="M131,84.9h-2.1v-3.6c0-0.8,0.5-1.5,1.1-1.5l0,0c0.6,0,1.1,0.7,1.1,1.5L131,84.9z"/>
				<path class="st13" d="M122.2,84.9H120v-3.6c0-0.8,0.5-1.5,1-1.5l0,0c0.6,0,1.1,0.7,1.1,1.5L122.2,84.9z"/>
				<rect x="111.9" y="94" class="st5" width="23.5" height="17.9"/>
				<polygon class="st10" points="107.4,95.5 139.9,95.5 132.1,88.8 115.1,88.8 				"/>
				<rect x="117.1" y="99.7" class="st9" width="13" height="10.6"/>
				<path class="st5" d="M116,98v14h15.3V98H116z M130,110.1h-12.7V99.8h12.6L130,110.1z"/>
				<path class="st8" d="M29,87.2c0,0.4,1,0.6,2.1,0.5s2-0.5,2-0.8s-1-0.6-2.1-0.5S29,86.8,29,87.2z"/>
				<path class="st8" d="M28.6,84.4c-0.3-0.1-0.5-0.4-0.5-0.7c0-0.6,0.8-1.2,1.9-1.3c0.2,0,0.4,0,0.6,0c0.5-0.3,1-0.5,1.5-0.5h0.2
					c0-0.1,0-0.1,0-0.2c0-0.6,0.8-1.2,1.9-1.3s2.1,0.3,2.1,0.9c0,0.1,0,0.2,0,0.2c0.2-0.1,0.4-0.1,0.6-0.1c1.1-0.1,2.1,0.3,2.1,0.9
					c0,0.3-0.2,0.6-0.5,0.8c1,0,1.8,0.4,1.9,0.9s-0.8,1.2-1.9,1.3c-0.7,0.1-1.3-0.1-1.9-0.4c-0.3,0.1-0.7,0.2-1,0.2
					c-0.6,0.1-1.2,0-1.8-0.4c-0.5,0.3-1,0.4-1.6,0.5c-0.4,0-0.9,0-1.3-0.1c0,0.6-0.8,1.1-1.9,1.2s-2.1-0.3-2.1-0.9
					S27.6,84.5,28.6,84.4z"/>
				<path class="st8" d="M24.2,89.8c0,0.4,0.7,0.7,1.4,0.6s1.4-0.4,1.3-0.9c0-0.1,0-0.2-0.1-0.2c0.3-0.1,0.5-0.2,0.7-0.3
					c0.1,0.5,1,0.8,1.9,0.8c0.2,0,0.3,0,0.5-0.1c0,0.6,0.9,0.9,1.9,0.8s1.8-0.6,1.8-1.2c0-0.1,0-0.2-0.1-0.2l0,0
					c0.4,0.2,0.9,0.3,1.4,0.2c1-0.1,1.8-0.6,1.8-1.2c0-0.1,0-0.1-0.1-0.2c0.4,0,0.7-0.2,1-0.4c0.3,0.1,0.7,0.2,1,0.2
					C38.2,88,38,88.3,38,88.6c0,0.6,0.9,0.9,1.9,0.8s1.8-0.6,1.8-1.2c0-0.1,0-0.1,0-0.2H42c1-0.1,1.8-0.6,1.8-1.2s-0.8-0.8-1.6-0.9
					c0.1-0.1,0.1-0.3,0.1-0.5c0-0.7-0.9-1.1-1.9-1c-0.3,0-0.7,0.1-1,0.3c-0.4-0.7-1.1-1-1.9-0.9c-1,0.1-1.8,0.7-1.7,1.3
					c0,0.1,0,0.2,0.1,0.3c-0.4,0.1-0.8,0.3-1.1,0.6C34.2,86,33.6,85.9,33,86c-0.3,0-0.6,0.1-0.9,0.2V86c-0.1-0.7-0.9-1.1-1.9-1
					c-0.7,0-1.4,0.4-1.7,1c-0.2,0-0.5,0-0.7,0c-1,0.1-1.8,0.6-1.8,1.2c0,0.1,0.1,0.2,0.1,0.3h-0.2c-1,0.1-1.8,0.6-1.8,1.2
					c0,0.2,0.2,0.4,0.4,0.6C24.4,89.3,24.1,89.5,24.2,89.8z"/>
				<path class="st8" d="M34.9,85c0,0.5,1.2,0.7,2.6,0.6S40,85,40,84.6s-1.2-0.8-2.6-0.6S34.9,84.5,34.9,85z"/>
				<path class="st8" d="M34.2,83.2c-0.3-0.1-0.6-0.4-0.6-0.8c-0.1-0.7,1-1.4,2.4-1.6c0.3,0,0.5,0,0.8,0c0.6-0.4,1.2-0.6,1.9-0.7
					h0.2c0-0.1-0.1-0.2-0.1-0.2c-0.1-0.8,1-1.4,2.4-1.6s2.5,0.4,2.6,1.1c0,0.1,0,0.2,0,0.3c0.3-0.1,0.5-0.1,0.8-0.1
					c1.4-0.1,2.5,0.4,2.6,1.1c0,0.4-0.2,0.8-0.6,1c1.2,0,2.3,0.5,2.3,1.2s-1,1.4-2.4,1.6c-0.8,0.1-1.6-0.1-2.2-0.5
					c-0.4,0.2-0.8,0.3-1.2,0.3c-0.8,0.1-1.5-0.1-2.2-0.5c-0.6,0.4-1.2,0.6-1.9,0.6c-0.5,0-1.1,0-1.6-0.1c0,0.7-1,1.4-2.4,1.5
					s-2.5-0.4-2.6-1.1S33,83.4,34.2,83.2z"/>
				<path class="st8" d="M28.9,88.2c0,0.5,0.9,0.9,1.8,0.8s1.7-0.6,1.6-1.1c0-0.1-0.1-0.2-0.1-0.3c0.3-0.1,0.6-0.2,0.9-0.4
					c0.2,0.6,1.2,1,2.4,0.9c0.2,0,0.4,0,0.6-0.1c0.1,0.7,1.1,1.2,2.4,1s2.2-0.8,2.2-1.4c0-0.1,0-0.2-0.1-0.3h0.1
					c0.5,0.2,1.1,0.3,1.7,0.3c1.3-0.1,2.2-0.8,2.2-1.4c0-0.1,0-0.2-0.1-0.2c0.5-0.1,0.9-0.2,1.3-0.5c0.4,0.2,0.8,0.3,1.3,0.2
					c-0.4,0.2-0.7,0.6-0.7,1c0.1,0.7,1.1,1.2,2.4,1s2.2-0.8,2.2-1.4c0-0.1,0-0.1-0.1-0.2h0.4c1.3-0.1,2.2-0.8,2.2-1.4
					s-0.9-1.1-2-1.1c0.1-0.2,0.2-0.4,0.1-0.6c-0.1-0.8-1.2-1.4-2.4-1.3c-0.4,0-0.8,0.1-1.2,0.3c-0.5-0.8-1.4-1.2-2.4-1
					c-1.3,0.1-2.2,0.9-2.1,1.7c0,0.1,0.1,0.3,0.1,0.4c-0.5,0.1-1,0.4-1.4,0.8c-0.6-0.4-1.4-0.6-2.1-0.5c-0.4,0-0.8,0.1-1.1,0.3v-0.1
					c-0.1-0.8-1.1-1.4-2.4-1.3c-0.9,0-1.7,0.5-2.1,1.3c-0.3,0-0.6,0-0.8,0c-1.3,0.1-2.2,0.8-2.2,1.4c0,0.1,0.1,0.3,0.1,0.4h-0.3
					C30,85.4,29,86,29.1,86.7c0,0.3,0.2,0.5,0.5,0.7C29.1,87.6,28.9,87.9,28.9,88.2z"/>
				<rect x="71.7" y="79.7" class="st14" width="24.9" height="24.8"/>
				<rect x="74.6" y="83.6" class="st9" width="3.3" height="3.3"/>
				<rect x="82.5" y="83.6" class="st9" width="3.3" height="3.3"/>
				<rect x="90.5" y="83.6" class="st9" width="3.3" height="3.3"/>
				<rect x="74.6" y="89.8" class="st9" width="3.3" height="3.3"/>
				<rect x="74.6" y="96.1" class="st9" width="3.3" height="3.3"/>
				<rect x="82.5" y="89.8" class="st9" width="3.3" height="3.3"/>
				<rect x="90.5" y="89.8" class="st9" width="3.3" height="3.3"/>
				<rect x="82.5" y="96.1" class="st9" width="3.3" height="3.3"/>
				<rect x="90.5" y="96.1" class="st9" width="3.3" height="3.3"/>
				<path class="st10" d="M99.5,79.7H68.9c-0.2,0-0.3-0.2-0.3-0.4c0-0.1,0.1-0.2,0.2-0.3L83,70.2c0.7-0.4,1.6-0.4,2.3,0L99.7,79
					c0.2,0.1,0.3,0.3,0.2,0.5C99.8,79.6,99.6,79.7,99.5,79.7z"/>
				<path class="st8" d="M84.2,108c0-0.2,0.1-0.4,0.2-0.6c-0.6-0.7-1.4-1.2-2.3-1.4c-0.5-0.1-0.9-0.4-1-0.9
					c-0.1-0.5-0.4-0.9-0.8-1.2c-0.3-0.2-0.5-0.3-0.8-0.4c-0.2-0.1-0.3-0.1-0.7-0.6H78c0.1,0.1,0.2,0.2,0.3,0.3
					c0.7,0.9,0.5,1,0.9,1.1c0.2,0.1,0.5,0.2,0.7,0.3c0.3,0.2,0.5,0.5,0.6,0.8c0.2,0.7,0.7,1.2,1.4,1.3c0.9,0.3,1.6,0.8,2.2,1.5
					C84.1,108.2,84.2,108.1,84.2,108z"/>
				<path class="st8" d="M91.9,104.3c0-0.1,0-0.2,0-0.3c0.5-0.1,1-0.1,1.5,0c0.2,0.1,0.5,0.1,0.7-0.2c0.2-0.2,0.4-0.3,0.7-0.3
					c0.2,0,0.4,0,0.5,0.1c0.1,0,0.2-0.2,0.5-0.3h0.3c-0.1,0-0.3,0.3-0.4,0.3c-0.4,0.4-0.7,0.2-0.9,0.2s-0.4,0.2-0.6,0.3
					c-0.3,0.3-0.7,0.4-1.1,0.2c-0.5-0.2-1-0.2-1.5,0C91.8,104.4,91.9,104.4,91.9,104.3z"/>
				<path class="st8" d="M82.6,102.5c-0.1,0.4-0.4,0.8-0.8,1c-0.5,0.3-1,0.7-1.3,1.3l0,0c0.1,0.2,0.3,0.4,0.4,0.6
					c0.1-0.2,0.2-0.4,0.3-0.6c0.2-0.4,0.5-0.7,0.9-1c0.4-0.3,0.7-0.8,0.8-1.3L82.6,102.5z"/>
				<path class="st8" d="M87.7,100.5c0,0,0.9,3.9-0.9,4.4l0.6,0.4c0,0,1.8-1.4,0.6-5L87.7,100.5z"/>
				<path class="st8" d="M83.5,111.8h1.3c0,0-1.2-3.8,0.7-5.7c0.3-0.3,0.7-0.5,1.1-0.6c1.2-0.1,2.4,0,3.5-0.2
					c0.5-0.1,1.1-0.2,1.5-0.5c0.8-0.7,1.1-1.7,0.9-2.8l-0.4,0.1c0,0,0,1.6-0.6,2.1c-0.6,0.4-1.3,0.6-2,0.6c-2.2,0.1-3.5-0.5-4.8,0.9
					C84,106.5,83.5,108.4,83.5,111.8z"/>
				<path class="st8" d="M85.6,99.8c0-0.1-0.1-0.2-0.1-0.3c0.4-0.4,1-0.7,1.6-0.8c0.3,0,0.6-0.2,0.7-0.5c0.1-0.3,0.3-0.5,0.6-0.7
					c0.2-0.1,0.4-0.2,0.6-0.2c0.1,0,0.2-0.1,0.5-0.3h0.4c-0.1,0-0.2,0.1-0.2,0.2c-0.5,0.5-0.4,0.6-0.6,0.6c-0.2,0-0.3,0.1-0.4,0.2
					c-0.2,0.1-0.3,0.3-0.4,0.5c-0.2,0.4-0.5,0.7-1,0.8c-0.6,0.2-1.1,0.5-1.5,0.9C85.6,99.9,85.6,99.8,85.6,99.8z"/>
				<path class="st8" d="M86.7,96.5c0.1,0.3,0.3,0.5,0.5,0.6c0.4,0.2,0.7,0.4,0.9,0.8l0,0c-0.1,0-0.2,0.3-0.3,0.3
					c-0.1-0.1-0.1-0.2-0.2-0.3c-0.2-0.2-0.4-0.4-0.6-0.6c-0.3-0.2-0.5-0.5-0.5-0.8L86.7,96.5z"/>
				<path class="st8" d="M86.1,101.9h-0.9c0,0,0.8-2.1-0.5-3.2c-0.2-0.2-0.4-0.3-0.7-0.4c-0.8,0-1.7,0-2.4-0.1c-0.3,0-0.7-0.2-1-0.3
					c-0.5-0.4-0.7-1-0.6-1.6h0.3c0,0,0,0.9,0.4,1.2c0.4,0.2,0.9,0.3,1.4,0.3c1.5,0.1,2.4-0.3,3.2,0.5
					C85.8,98.9,86.1,99.9,86.1,101.9z"/>
				<path class="st8" d="M90.7,101.7c0,0.5-1.1,1-2.4,1s-2.4-0.4-2.4-1s1.1-0.9,2.4-0.9S90.7,101.1,90.7,101.7z"/>
				<path class="st8" d="M91.3,96.5c0.3-0.2,0.5-0.6,0.5-1c0-0.8-1.1-1.5-2.4-1.5c-0.2,0-0.5,0-0.7,0.1c-0.5-0.4-1.2-0.6-1.8-0.6
					h-0.2c0-0.1,0-0.2,0-0.3c0-0.8-1.1-1.5-2.4-1.5s-2.4,0.7-2.4,1.5c0,0.1,0,0.2,0.1,0.3c-0.3,0-0.5-0.1-0.8-0.1
					c-1.3,0-2.4,0.7-2.4,1.5c0,0.4,0.3,0.8,0.7,1c-1.2,0.1-2.1,0.7-2.1,1.5s1.1,1.5,2.4,1.5c0.8,0,1.5-0.2,2.1-0.8
					c0.4,0.2,0.8,0.3,1.2,0.3c0.7,0,1.5-0.2,2-0.7c0.6,0.3,1.2,0.5,1.9,0.5c0.5,0,1-0.1,1.5-0.3c0,0.8,1.1,1.5,2.4,1.5
					s2.4-0.7,2.4-1.5S92.4,96.6,91.3,96.5z"/>
				<path class="st8" d="M96,103.8c0.2-0.2,0.4-0.5,0.4-0.8c0-0.8-1-1.4-2.2-1.4h-0.3c0.1-0.1,0.1-0.3,0.1-0.4c0-0.8-1-1.4-2.2-1.4
					c-0.3,0-0.5,0-0.8,0.1c-0.4-0.8-1.2-1.2-2.1-1.2c-1-0.1-2,0.6-2.2,1.7c0,0.1,0,0.1,0,0.2c-0.4-0.1-0.7-0.2-1.1-0.2
					c-0.7,0-1.4,0.2-1.9,0.8c-0.4-0.4-0.8-0.7-1.4-0.8c0.1-0.2,0.1-0.3,0.1-0.5c-0.2-1-1.1-1.8-2.2-1.7c-1-0.1-1.9,0.5-2.2,1.4
					c-0.4-0.2-0.7-0.3-1.1-0.2c-1.1-0.1-2,0.6-2.2,1.7c0,0.2,0.1,0.5,0.2,0.7c-1,0.1-1.8,0.7-1.8,1.4s1,1.4,2.2,1.4
					c0.1,0,0.2,0,0.4,0c0,0.1,0,0.2,0,0.2c0,0.8,1,1.4,2.2,1.4s2.2-0.6,2.2-1.4c-0.1-0.4-0.3-0.8-0.7-1c0.4,0,0.8-0.2,1.2-0.4
					c0.4,0.2,0.8,0.4,1.3,0.4c0,0.1,0,0.2-0.1,0.3c0,0.8,1,1.4,2.2,1.4c0.6,0,1.1-0.1,1.6-0.5h0.1c0,0.1-0.1,0.2-0.1,0.3
					c0,0.8,1,1.4,2.2,1.4s2.2-0.7,2.2-1.4c0.2,0,0.4,0,0.6,0c1.1,0,2.1-0.6,2.2-1.3c0.3,0.2,0.5,0.3,0.8,0.3
					c-0.1,0.1-0.1,0.2-0.1,0.3c0,0.6,0.7,1,1.6,1s1.6-0.5,1.6-1C96.7,104.3,96.4,103.9,96,103.8z"/>
				<path class="st8" d="M75.5,107.1c0-0.2,0.1-0.5,0.2-0.7c-0.8-0.8-1.7-1.4-2.8-1.8c-0.6-0.1-1.1-0.5-1.2-1.1
					c-0.2-0.6-0.5-1.1-1-1.4c-0.3-0.2-0.6-0.4-1-0.5c-0.2-0.1-0.4-0.1-0.9-0.7h-0.8c0.2,0.1,0.3,0.2,0.4,0.4
					c0.8,1.1,0.7,1.2,1.1,1.3c0.3,0.1,0.6,0.2,0.8,0.4c0.3,0.2,0.6,0.6,0.7,1c0.2,0.8,0.9,1.5,1.8,1.7c1.1,0.4,2,1,2.8,1.9
					C75.4,107.4,75.5,107.2,75.5,107.1z"/>
				<path class="st8" d="M85.1,102.6c0-0.1,0.1-0.3,0.1-0.4c0.6-0.2,1.3-0.2,1.9,0c0.3,0.2,0.7,0.1,0.9-0.2c0.2-0.2,0.6-0.4,0.9-0.4
					c0.2,0,0.4,0,0.6,0.1c0.2,0,0.2-0.2,0.6-0.4h0.4c-0.1,0-0.4,0.3-0.4,0.4c-0.4,0.5-0.8,0.3-1.1,0.3s-0.5,0.3-0.7,0.4
					c-0.3,0.4-0.9,0.5-1.3,0.3c-0.6-0.2-1.3-0.2-1.9,0C85,102.7,85,102.7,85.1,102.6z"/>
				<path class="st8" d="M73.5,100.4c-0.1,0.5-0.5,1-1,1.2c-0.7,0.4-1.2,0.9-1.6,1.6l0,0c0.2,0.2,0.3,0.5,0.5,0.7
					c0.1-0.3,0.3-0.5,0.4-0.7c0.3-0.4,0.7-0.8,1.1-1.1c0.6-0.4,0.9-1,0.9-1.7L73.5,100.4z"/>
				<path class="st8" d="M79.9,97.8c0,0,1.1,4.8-1.1,5.5l0.8,0.4c0,0,2.3-1.8,0.8-6.2L79.9,97.8z"/>
				<path class="st8" d="M74.7,111.9h1.6c0,0-1.5-4.7,0.9-7.1c0.3-0.4,0.8-0.7,1.3-0.8c1.4-0.1,3,0,4.3-0.2c0.7-0.1,1.3-0.3,1.9-0.7
					c0.9-0.6,1.2-1.8,1.1-3.4l-0.4,0.1c0,0,0,2-0.8,2.6c-0.8,0.5-1.6,0.7-2.5,0.7c-2.8,0.2-4.4-0.6-5.9,1.1
					C75.2,105.4,74.7,107.7,74.7,111.9z"/>
				<path class="st8" d="M77.3,97c0-0.1-0.1-0.3-0.1-0.4c0.6-0.5,1.2-0.8,1.9-1c0.4,0,0.7-0.3,0.8-0.7c0.1-0.4,0.4-0.7,0.7-0.8
					c0.2-0.1,0.4-0.2,0.7-0.3c0.2,0,0.3-0.1,0.6-0.4h0.6c-0.1,0-0.2,0.1-0.3,0.2c-0.6,0.6-0.4,0.7-0.8,0.8c-0.2,0-0.4,0.1-0.6,0.2
					c-0.2,0.1-0.4,0.3-0.5,0.6c-0.2,0.5-0.6,0.9-1.2,1c-0.7,0.2-1.3,0.6-1.9,1.1C77.3,97.2,77.3,97.1,77.3,97z"/>
				<path class="st8" d="M78.6,93c0.1,0.3,0.3,0.6,0.7,0.7c0.4,0.2,0.8,0.5,1.1,0.9l0,0c-0.1,0.1-0.2,0.3-0.3,0.4
					c-0.1-0.2-0.2-0.3-0.3-0.4c-0.2-0.3-0.5-0.5-0.7-0.7c-0.4-0.2-0.6-0.6-0.6-1L78.6,93z"/>
				<path class="st8" d="M77.8,99.6h-1.1c0,0,1-2.6-0.6-4c-0.2-0.2-0.6-0.4-0.9-0.5c-1-0.1-2,0-2.9-0.1c-0.5,0-0.9-0.2-1.3-0.4
					c-0.6-0.5-0.9-1.2-0.8-2h0.3c0,0,0,1.2,0.5,1.5c0.5,0.3,1.1,0.4,1.7,0.4c1.9,0.1,3-0.4,4,0.6C77.4,95.9,77.8,97.1,77.8,99.6z"/>
				<path class="st8" d="M83.6,99.3c0,0.7-1.3,1.2-3,1.2s-3-0.5-3-1.2s1.3-1.2,3-1.2S83.6,98.7,83.6,99.3z"/>
				<path class="st8" d="M84.2,92.9c0.4-0.3,0.6-0.7,0.7-1.2c0-1-1.3-1.9-3-1.9c-0.3,0-0.6,0-0.9,0.1c-0.7-0.5-1.5-0.7-2.3-0.7h-0.2
					c0-0.1,0-0.2,0-0.3c0-1-1.3-1.9-3-1.9s-3,0.8-3,1.9c0,0.1,0,0.3,0.1,0.4c-0.3-0.1-0.6-0.1-0.9-0.1c-1.6,0-3,0.8-3,1.9
					c0,0.5,0.3,1,0.8,1.3c-1.5,0.1-2.6,0.9-2.6,1.9s1.3,1.9,3,1.9c0.9,0,1.9-0.3,2.6-0.9c0.5,0.2,1,0.3,1.5,0.2
					c0.9,0,1.8-0.3,2.5-0.9c0.7,0.4,1.5,0.6,2.3,0.6c0.6,0,1.3-0.1,1.9-0.3c0.1,1,1.4,1.8,3,1.8s3-0.8,3-1.9S85.6,93.1,84.2,92.9z"
					/>
				<path class="st8" d="M90.1,102c0.3-0.2,0.5-0.6,0.5-1c0-1-1.2-1.7-2.7-1.7h-0.3c0.1-0.2,0.1-0.4,0.1-0.5c0-1-1.2-1.7-2.7-1.7
					c-0.3,0-0.7,0-1,0.1c-0.5-1-1.5-1.6-2.6-1.5c-1.3-0.1-2.5,0.8-2.7,2.1c0,0.1,0,0.1,0,0.2c-0.4-0.2-0.9-0.2-1.4-0.2
					c-0.9,0-1.8,0.3-2.4,0.9c-0.4-0.5-1-0.8-1.7-0.9c0.1-0.2,0.1-0.4,0.1-0.6c-0.2-1.3-1.4-2.2-2.7-2c-1.2-0.1-2.3,0.6-2.7,1.8
					c-0.4-0.2-0.9-0.3-1.4-0.3c-1.3-0.1-2.5,0.8-2.7,2.1c0,0.3,0.1,0.6,0.2,0.8c-1.3,0.1-2.2,0.8-2.2,1.7s1.2,1.7,2.7,1.7
					c0.1,0,0.3,0,0.4,0c0,0.1,0,0.2,0,0.3c0,1,1.2,1.7,2.7,1.7s2.7-0.8,2.7-1.7c0-0.6-0.4-1.1-0.9-1.3c0.5,0,1-0.2,1.5-0.5
					c0.5,0.3,1,0.5,1.6,0.5c0,0.1-0.1,0.2-0.1,0.4c0,0.9,1.2,1.7,2.7,1.7c0.7,0,1.4-0.2,2-0.6h0.1c-0.1,0.1-0.1,0.3-0.1,0.4
					c0,0.9,1.2,1.7,2.7,1.7s2.7-0.8,2.7-1.7c0.2,0,0.5,0.1,0.7,0.1c1.4,0,2.6-0.7,2.7-1.6c0.3,0.2,0.7,0.3,1.1,0.4
					c-0.1,0.1-0.1,0.3-0.1,0.4c0,0.7,0.9,1.3,2,1.3s2-0.6,2-1.3C90.9,102.6,90.6,102.2,90.1,102z"/>
				<rect x="90.6" y="84.6" class="st5" width="27.5" height="27.4"/>
				<rect x="93.7" y="88.9" class="st9" width="3.6" height="3.6"/>
				<rect x="102.5" y="88.9" class="st9" width="3.6" height="3.6"/>
				<rect x="111.3" y="88.9" class="st9" width="3.6" height="3.6"/>
				<rect x="93.7" y="95.7" class="st9" width="3.6" height="3.6"/>
				<rect x="93.7" y="102.7" class="st9" width="3.6" height="3.6"/>
				<rect x="102.5" y="95.7" class="st9" width="3.6" height="3.6"/>
				<rect x="111.3" y="95.7" class="st9" width="3.6" height="3.6"/>
				<rect x="102.5" y="102.7" class="st9" width="3.6" height="3.6"/>
				<rect x="111.3" y="102.7" class="st9" width="3.6" height="3.6"/>
				<path class="st10" d="M121.2,84.6H87.4c-0.2,0-0.4-0.2-0.4-0.4c0-0.1,0.1-0.3,0.2-0.3l15.8-9.7c0.8-0.5,1.8-0.5,2.6,0l15.8,9.7
					c0.2,0.1,0.2,0.3,0.1,0.5C121.5,84.5,121.4,84.6,121.2,84.6z"/>
				<rect x="70.8" y="96.2" class="st5" width="20.7" height="15.8"/>
				<polygon class="st10" points="66.8,97.5 95.4,97.5 88.6,91.6 73.6,91.6 				"/>
				<rect x="75.4" y="101.2" class="st15" width="11.4" height="9.3"/>
				<path class="st9" d="M74.4,99.7V112h13.5V99.7H74.4z M86.6,110.4H75.6v-9.1h11.1L86.6,110.4z"/>
				<rect x="43.1" y="87.2" class="st14" width="24.8" height="24.8"/>
				<rect x="46" y="91.2" class="st9" width="3.3" height="3.3"/>
				<rect x="53.9" y="91.2" class="st9" width="3.3" height="3.3"/>
				<rect x="61.9" y="91.2" class="st9" width="3.3" height="3.3"/>
				<rect x="46" y="97.3" class="st9" width="3.3" height="3.3"/>
				<rect x="53.9" y="97.3" class="st9" width="3.3" height="3.3"/>
				<rect x="61.9" y="97.3" class="st9" width="3.3" height="3.3"/>
				<rect x="53.9" y="103.6" class="st9" width="3.3" height="3.3"/>
				<rect x="61.9" y="103.6" class="st9" width="3.3" height="3.3"/>
				<path class="st10" d="M70.8,87.2H40.3c-0.2,0-0.3-0.1-0.4-0.3c0-0.1,0.1-0.3,0.2-0.3l14.3-8.8c0.7-0.4,1.6-0.4,2.3,0L71,86.6
					c0.2,0.1,0.2,0.3,0.1,0.5C71.1,87.1,71,87.2,70.8,87.2z"/>
				<rect x="25.6" y="93.2" class="st5" width="24.8" height="18.7"/>
				<rect x="28.2" y="96.9" class="st9" width="3.8" height="3.8"/>
				<rect x="36.1" y="96.9" class="st9" width="3.8" height="3.8"/>
				<rect x="44.1" y="96.9" class="st9" width="3.8" height="3.8"/>
				<rect x="28.2" y="103.1" class="st9" width="3.8" height="3.8"/>
				<rect x="36.1" y="103.1" class="st9" width="3.8" height="3.8"/>
				<rect x="44.1" y="103.1" class="st9" width="3.8" height="3.8"/>
				<path class="st10" d="M53.3,93.2H22.8c-0.2,0-0.3-0.1-0.4-0.3c0-0.1,0.1-0.3,0.2-0.3l14.3-8.8c0.7-0.4,1.6-0.4,2.3,0l14.3,8.8
					c0.2,0.1,0.2,0.3,0.1,0.5C53.6,93.2,53.4,93.2,53.3,93.2z"/>
				<polygon class="st16" points="206.7,121.6 18.1,121.6 18.1,231.4 18.1,244.1 18.1,304.4 206.6,304.4 206.6,244.1 206.7,244.1 
									"/>
				<ellipse class="st17" cx="115.9" cy="261.6" rx="125.9" ry="62.7"/>
				<path class="st18" d="M131,216.6h59.7c3.5,0,6.3,2.8,6.3,6.3l0,0c0,3.5-2.8,6.3-6.3,6.3H131c-3.5,0-6.3-2.8-6.3-6.3l0,0
					C124.7,219.5,127.5,216.7,131,216.6z"/>
				<path class="st19" d="M18.2,110.7l29.7-12.9l38.9,10.6c0,0,77.9-10.6,83.4-10.6s55.4,25.2,55.4,25.2l-146.2,6.2l-66.9-3.5
					L18.2,110.7z"/>
				<rect x="169.1" y="205.4" class="st14" width="7.3" height="16.2"/>
				<rect x="169.1" y="218.1" class="st20" width="7.3" height="3.4"/>
				<rect x="137.1" y="205.4" class="st14" width="7.3" height="16.2"/>
				<rect x="137.1" y="218.1" class="st20" width="7.3" height="3.4"/>
				<rect x="163.9" y="208.1" class="st5" width="7.7" height="17"/>
				<rect x="132.2" y="208.1" class="st5" width="7.7" height="17"/>
				<path class="st21" d="M172.8,206.2c0,3.1,2.5,5.6,5.6,5.6c3.1,0,5.6-2.5,5.6-5.6c0-3.1-2.5-5.6-5.6-5.6S172.8,203.1,172.8,206.2
					C172.8,206.2,172.8,206.2,172.8,206.2z"/>
				<path class="st21" d="M166.7,178.3c0,3.1,2.5,5.6,5.6,5.6c3.1,0,5.6-2.5,5.6-5.6c0-3.1-2.5-5.6-5.6-5.6c0,0,0,0,0,0
					C169.3,172.7,166.7,175.2,166.7,178.3C166.7,178.3,166.7,178.3,166.7,178.3z"/>
				<path class="st21" d="M158,177.1c0,3.1,2.5,5.6,5.6,5.6c3.1,0,5.6-2.5,5.6-5.6c0-3.1-2.5-5.6-5.6-5.6c0,0,0,0,0,0
					C160.5,171.5,158,174,158,177.1C158,177.1,158,177.1,158,177.1z"/>
				<path class="st21" d="M149.4,177.5c0,3.1,2.5,5.6,5.6,5.6c3.1,0,5.6-2.5,5.6-5.6s-2.5-5.6-5.6-5.6c0,0,0,0,0,0
					C151.9,171.8,149.4,174.4,149.4,177.5z"/>
				<path class="st21" d="M140.4,178.3c0,3.1,2.5,5.6,5.6,5.6c3.1,0,5.6-2.5,5.6-5.6c0-3.1-2.5-5.6-5.6-5.6
					C142.9,172.7,140.4,175.2,140.4,178.3C140.3,178.3,140.3,178.3,140.4,178.3z"/>
				<path class="st21" d="M132.1,179.2c0,3.1,2.5,5.6,5.6,5.6c3.1,0,5.6-2.5,5.6-5.6c0-3.1-2.5-5.6-5.6-5.6
					C134.6,173.5,132.1,176,132.1,179.2C132.1,179.2,132.1,179.2,132.1,179.2z"/>
				<path class="st21" d="M125.1,184.7c0,3.1,2.5,5.6,5.6,5.6c3.1,0,5.6-2.5,5.6-5.6c0-3.1-2.5-5.6-5.6-5.6c0,0,0,0,0,0
					C127.6,179.1,125.1,181.6,125.1,184.7z"/>
				<path class="st21" d="M123,193.5c0,3.1,2.5,5.6,5.6,5.6c3.1,0,5.6-2.5,5.6-5.6c0-3.1-2.5-5.6-5.6-5.6
					C125.5,187.8,123,190.4,123,193.5C123,193.5,123,193.5,123,193.5z"/>
				<path class="st21" d="M144.5,212.3h23.3c10.3,0,18.7-8.4,18.7-18.7l0,0c0-10.3-8.4-18.7-18.7-18.7h-23.3
					c-10.3,0-18.7,8.4-18.7,18.7l0,0C125.8,203.9,134.2,212.2,144.5,212.3z"/>
				<path class="st21" d="M124.8,203c0,3.1,2.5,5.6,5.6,5.6c3.1,0,5.6-2.5,5.6-5.6c0-3.1-2.5-5.6-5.6-5.6S124.8,199.9,124.8,203
					C124.8,203,124.8,203,124.8,203z"/>
				<path class="st21" d="M132.7,208.9c0,3.1,2.5,5.6,5.6,5.6c3.1,0,5.6-2.5,5.6-5.6c0-3.1-2.5-5.6-5.6-5.6S132.7,205.8,132.7,208.9
					C132.7,208.9,132.7,208.9,132.7,208.9z"/>
				<path class="st21" d="M142.7,211c0,3.1,2.5,5.6,5.6,5.6c3.1,0,5.6-2.5,5.6-5.6s-2.5-5.6-5.6-5.6c0,0,0,0,0,0
					C145.2,205.4,142.7,207.9,142.7,211z"/>
				<path class="st21" d="M154,211.6c0,3.1,2.5,5.6,5.6,5.6c3.1,0,5.6-2.5,5.6-5.6s-2.5-5.6-5.6-5.6c0,0,0,0,0,0
					C156.5,206,154,208.5,154,211.6z"/>
				<path class="st21" d="M164.5,211c0,3.1,2.5,5.6,5.6,5.6c3.1,0,5.6-2.5,5.6-5.6s-2.5-5.6-5.6-5.6c0,0,0,0,0,0
					C167,205.4,164.5,207.9,164.5,211z"/>
				<circle class="st5" cx="189.8" cy="194.9" r="0.3"/>
				<path class="st21" d="M191.6,190.5c1.5-1.5,3.4-0.7,5.8,0.1s4.3,1.4,4.6,3.5c-0.6,0.6-1.4,1.1-2.3,1.3c0.2-0.1,0.3-0.2,0.4-0.4
					c-0.2-1.6-1.6-2.1-3.3-2.7s-3.2-1.1-4.3,0c0,0.2,0.1,0.4,0.1,0.6C192.1,192.3,191.7,191.4,191.6,190.5z"/>
				<path class="st22" d="M196.7,192.5c1.7,0.6,3.2,1.1,3.3,2.7c-0.1,0.1-0.3,0.3-0.4,0.4c-2.6,0.7-5.5-0.3-7.1-2.5
					c-0.1-0.2-0.1-0.4-0.1-0.6C193.6,191.4,195,191.9,196.7,192.5z"/>
				<path class="st21" d="M178.4,190.6c-1.5-1.5-3.4-0.7-5.8,0.2s-4.3,1.5-4.5,3.6c0.6,0.6,1.4,1.1,2.3,1.3
					c-0.2-0.1-0.3-0.2-0.4-0.4c0.2-1.6,1.6-2.1,3.3-2.7s3.2-1.1,4.3-0.1c0,0.2-0.1,0.4-0.1,0.6C178,192.3,178.3,191.5,178.4,190.6z"
					/>
				<path class="st22" d="M173.3,192.6c-1.7,0.6-3.2,1.1-3.3,2.7c0.1,0.1,0.3,0.3,0.4,0.4c2.7,0.7,5.5-0.3,7.1-2.6
					c0-0.2,0.1-0.4,0.1-0.6C176.5,191.4,175,191.9,173.3,192.6z"/>
				<path class="st5" d="M189.5,202.1l4.9-11.2c1.1-2.6-0.1-5.5-2.6-6.6c-0.6-0.3-1.3-0.4-2-0.4h-9.8c-2.8,0-5,2.2-5.1,4.9
					c0,0.7,0.1,1.5,0.5,2.1l4.9,11.2c1,2.6,4,3.8,6.5,2.7C188,204.3,189,203.4,189.5,202.1z"/>
				<path class="st23" d="M182.7,186.8c0,3.3-2.6,5.9-5.9,6s-5.9-2.6-6-5.9c0-3.3,2.6-5.9,5.9-6c0,0,0,0,0,0
					C180,180.9,182.7,183.6,182.7,186.8z"/>
				<path class="st23" d="M198.6,186.8c0,3.3-2.6,5.9-5.9,5.9s-5.9-2.6-5.9-5.9c0-3.3,2.6-5.9,5.9-5.9
					C196,180.9,198.6,183.5,198.6,186.8C198.6,186.8,198.6,186.8,198.6,186.8z"/>
				<path class="st23" d="M189.9,185.4c0,2.8-2.3,5.1-5.1,5.1c-2.8,0-5.1-2.3-5.1-5.1c0-2.8,2.3-5.1,5.1-5.1c0,0,0,0,0,0
					C187.6,180.3,189.8,182.6,189.9,185.4z"/>
				<circle class="st21" cx="176.3" cy="185.4" r="6.2"/>
				<path class="st21" d="M199.4,185.3c0,3.4-2.8,6.3-6.2,6.3s-6.3-2.8-6.3-6.2s2.8-6.3,6.2-6.3c0,0,0,0,0,0
					C196.6,179.1,199.4,181.9,199.4,185.3C199.4,185.3,199.4,185.3,199.4,185.3z"/>
				<path class="st21" d="M190.1,183.8c0,3-2.4,5.4-5.3,5.4c-3,0-5.4-2.4-5.4-5.3c0-3,2.4-5.4,5.3-5.4c0,0,0,0,0,0
					C187.7,178.5,190.1,180.9,190.1,183.8z"/>
				<path class="st22" d="M185.9,204.1h-1.5c-0.7,0-1.2-0.5-1.2-1.2l0,0c0-0.7,0.5-1.2,1.2-1.2l0,0h1.5c0.7,0,1.2,0.5,1.2,1.2l0,0
					C187.1,203.5,186.6,204.1,185.9,204.1z"/>
				<path class="st21" d="M183.6,179.5c0,2.4-1.9,4.4-4.3,4.4c-2.4,0-4.4-1.9-4.4-4.3c0-2.4,1.9-4.4,4.3-4.4c0,0,0,0,0,0
					C181.6,175.1,183.6,177.1,183.6,179.5z"/>
				<path class="st21" d="M188.4,177.3c0,2.4-1.9,4.4-4.3,4.4c-2.4,0-4.4-1.9-4.4-4.3c0-2.4,1.9-4.4,4.3-4.4c0,0,0,0,0,0
					C186.5,172.9,188.4,174.9,188.4,177.3z"/>
				<path class="st21" d="M194,179.1c0,2.4-1.9,4.4-4.3,4.4c-2.4,0-4.4-1.9-4.4-4.3c0-2.4,1.9-4.4,4.3-4.4c0,0,0,0,0,0
					C192,174.8,194,176.7,194,179.1z"/>
				<path class="st24" d="M197.9,186.9c-1.4-2.1-4.1-2.7-6.2-1.5c-0.7,0.4-1.3,1-1.7,1.7c-0.2-2.3,1-4.5,3.1-5.6
					c3-1.7,6.8-0.8,8.7,2.1c1.7,2.8,0.9,6.4-1.9,8.1c-0.1,0.1-0.2,0.1-0.3,0.2c-1,0.6-2,0.9-3.1,0.9
					C198.4,191.6,199.1,189,197.9,186.9C197.9,186.9,197.9,186.9,197.9,186.9z"/>
				<path class="st21" d="M192.5,186.4c0,0.8-0.6,1.5-1.4,1.5s-1.5-0.6-1.5-1.4s0.6-1.5,1.4-1.5c0,0,0,0,0,0
					C191.9,185,192.5,185.6,192.5,186.4z"/>
				<path class="st21" d="M193,184.2c0,1-0.8,1.9-1.9,1.9s-1.9-0.8-1.9-1.9c0-1,0.8-1.9,1.9-1.9c0,0,0,0,0,0
					C192.2,182.4,193,183.2,193,184.2z"/>
				<path class="st21" d="M194.4,181.9c0,1.1-0.9,2.1-2.1,2.1s-2.1-0.9-2.1-2.1c0-1.1,0.9-2.1,2.1-2.1
					C193.4,179.9,194.4,180.8,194.4,181.9C194.4,181.9,194.4,181.9,194.4,181.9z"/>
				<path class="st21" d="M191.9,184.6c0-1,0.8-1.8,1.7-1.8c0,0,0,0,0,0c1,0,1.8,0.8,1.8,1.7s-0.8,1.8-1.7,1.8
					C192.7,186.4,191.9,185.6,191.9,184.6C191.9,184.6,191.9,184.6,191.9,184.6z"/>
				<path class="st24" d="M170.8,187c1.3-2.1,4.1-2.7,6.2-1.5c0.7,0.4,1.3,1,1.7,1.7c0.1-2.3-1.1-4.5-3.1-5.6
					c-3-1.7-6.8-0.8-8.7,2.1c-1.7,2.8-0.8,6.4,1.9,8.1c0.1,0.1,0.2,0.1,0.3,0.2c1,0.5,2,0.8,3.1,0.8c-2-1.1-2.7-3.7-1.6-5.7
					C170.8,187.1,170.8,187,170.8,187z"/>
				<path class="st21" d="M177.3,186.4c0,0.8,0.6,1.4,1.4,1.4c0.8,0,1.4-0.6,1.4-1.4c0-0.8-0.6-1.4-1.4-1.4c0,0,0,0,0,0
					C177.9,185,177.3,185.7,177.3,186.4z"/>
				<path class="st21" d="M176.8,184.3c0,1,0.8,1.9,1.9,1.9s1.9-0.8,1.9-1.9c0-1-0.8-1.9-1.9-1.9c0,0,0,0,0,0
					C177.7,182.4,176.8,183.3,176.8,184.3z"/>
				<path class="st21" d="M175.4,182c0,1.1,0.9,2.1,2.1,2.1c1.1,0,2.1-0.9,2.1-2.1s-0.9-2.1-2.1-2.1c0,0,0,0,0,0
					C176.4,179.9,175.5,180.8,175.4,182C175.4,182,175.4,182,175.4,182z"/>
				<path class="st21" d="M177.8,185.2c0.3-0.9-0.3-1.9-1.2-2.2c-0.9-0.3-1.9,0.3-2.2,1.2c-0.3,0.9,0.3,1.9,1.2,2.2
					C176.6,186.7,177.5,186.1,177.8,185.2z"/>
				<path class="st25" d="M189.2,197.2L189.2,197.2c0.6,0,1-0.4,1-1v-1.7c0-0.6-0.4-1-1-1l0,0c-0.6,0-1,0.4-1,1v1.7
					C188.2,196.8,188.6,197.2,189.2,197.2z"/>
				<path class="st25" d="M181.1,197.2L181.1,197.2c0.6,0,1-0.4,1-1v-1.7c0-0.6-0.4-1-1-1l0,0c-0.6,0-1,0.4-1,1v1.7
					C180.2,196.8,180.6,197.2,181.1,197.2z"/>
				<rect x="163.9" y="221.5" class="st25" width="7.7" height="3.6"/>
				<rect x="132.2" y="221.5" class="st25" width="7.7" height="3.6"/>
				<path class="st18" d="M64.3,251.7H168c4.5,0,8.2,3.7,8.2,8.2v1.4c0,4.5-3.7,8.2-8.2,8.2H64.3c-4.5,0-8.2-3.7-8.2-8.2v-1.4
					C56.1,255.4,59.8,251.7,64.3,251.7z"/>
				<rect x="81.8" y="244" class="st26" width="64.5" height="12.3"/>
				<rect x="70.9" y="212.9" class="st26" width="10.8" height="43.7"/>
				<ellipse class="st26" cx="76.4" cy="207.7" rx="10.2" ry="10.1"/>
				<rect x="146.9" y="213.6" class="st26" width="10.9" height="44"/>
				<rect x="79.5" y="132.5" class="st24" width="69.2" height="74.4"/>
				<rect x="85.2" y="136.9" class="st26" width="58.3" height="70"/>
				<circle class="st27" cx="88.2" cy="171.9" r="13.4"/>
				<circle class="st27" cx="139.2" cy="171.9" r="13.4"/>
				<rect x="74.2" y="212.9" class="st24" width="10.8" height="43.7"/>
				<path class="st27" d="M113.3,191.4L113.3,191.4c-14.3,0-26-11.7-25.9-26l-0.6-39.3l52.5,0.3l0.1,39.1
					C139.3,179.8,127.7,191.4,113.3,191.4z"/>
				<rect x="84" y="200.9" class="st26" width="60.3" height="13.3"/>
				<rect x="143.9" y="213.6" class="st24" width="10.9" height="44"/>
				<rect x="85" y="229.8" class="st28" width="58.3" height="11.6"/>
				<path class="st28" d="M92,259.9l0.8-0.9c0.5-0.5,1.1-0.9,1.8-1l4-0.9c0-0.1,0-0.1,0-0.2v-29.1c0-3.1,2.5-5.6,5.6-5.6
					c3.1,0,5.6,2.5,5.6,5.6v28.1c0.8,0.6,1.3,1.6,1.3,2.6v3.6c0,1.8-1.5,3.3-3.3,3.3c0,0,0,0,0,0H94.4c-1.8,0-3.3-1.5-3.3-3.3
					C91.2,261.3,91.5,260.5,92,259.9z"/>
				<path class="st29" d="M99.3,231.2h10.3c0.5,0,0.9,0.4,0.9,0.9v0.4c0,0.5-0.4,0.9-0.9,0.9H99.3c-0.5,0-0.9-0.4-0.9-0.9v-0.4
					C98.4,231.6,98.8,231.2,99.3,231.2z"/>
				<path class="st29" d="M99.3,246.2l-0.2-0.2c-0.5-0.4-0.6-1-0.2-1.5c0,0,0,0,0,0l9.1-11.9c0.4-0.5,1-0.6,1.5-0.2l0.2,0.2
					c0.5,0.4,0.6,1,0.2,1.5l-9.1,11.9C100.5,246.5,99.8,246.6,99.3,246.2C99.4,246.2,99.4,246.2,99.3,246.2z"/>
				<path class="st29" d="M109.6,246.1l0.2-0.1c0.4-0.3,0.5-0.9,0.2-1.4l-9.2-12.1c-0.3-0.4-0.9-0.5-1.4-0.2l-0.2,0.1
					c-0.4,0.3-0.5,0.9-0.2,1.4l9.2,12.1C108.6,246.4,109.2,246.5,109.6,246.1z"/>
				<path class="st29" d="M99.3,258.2l-0.2-0.1c-0.5-0.4-0.6-1-0.2-1.5l9.1-11.9c0.4-0.5,1-0.6,1.5-0.2l0.2,0.2
					c0.5,0.4,0.6,1,0.2,1.5l-9.1,11.9C100.5,258.5,99.8,258.6,99.3,258.2z"/>
				<path class="st29" d="M109.5,258.2l0.2-0.1c0.5-0.4,0.6-1,0.2-1.5l-9.1-11.9c-0.4-0.5-1-0.6-1.5-0.2l-0.2,0.2
					c-0.5,0.4-0.6,1-0.2,1.5L108,258C108.4,258.5,109.1,258.6,109.5,258.2C109.5,258.2,109.5,258.2,109.5,258.2z"/>
				<path class="st29" d="M94.3,257.8h0.3c0.5,0,0.8,0.4,0.8,0.8v5.4c0,0.5-0.4,0.8-0.8,0.8h-0.3c-0.5,0-0.8-0.4-0.8-0.8v-5.4
					C93.5,258.2,93.9,257.8,94.3,257.8z"/>
				<path class="st29" d="M98.2,256.9h0.3c0.5,0,0.8,0.4,0.8,0.8v6.3c0,0.5-0.4,0.8-0.8,0.8h-0.3c-0.5,0-0.8-0.4-0.8-0.8v-6.3
					C97.4,257.3,97.8,256.9,98.2,256.9z"/>
				<path class="st29" d="M99.3,256.7h9.9c0.5,0,0.9,0.4,0.9,0.9v0.4c0,0.5-0.4,0.9-0.9,0.9h-9.9c-0.5,0-0.9-0.4-0.9-0.9v-0.4
					C98.4,257.1,98.8,256.7,99.3,256.7z"/>
				<path class="st29" d="M111.2,265.8H91.9c-0.5,0-0.8-0.4-0.8-0.8v-0.4c0-0.5,0.4-0.8,0.8-0.8h19.3c0.5,0,0.8,0.4,0.8,0.8v0.4
					C112.1,265.4,111.7,265.8,111.2,265.8z"/>
				<path class="st28" d="M121.4,255.9v-28.1c0-3.1,2.5-5.6,5.6-5.6c3.1,0,5.6,2.5,5.6,5.6v29.1c0,0.1,0,0.1,0,0.2l4,0.9
					c0.7,0.1,1.3,0.5,1.8,1l0.9,0.9c1.2,1.4,1.1,3.4-0.2,4.7c-0.6,0.6-1.4,0.9-2.2,0.9h-13.2c-1.8,0-3.3-1.5-3.3-3.3v0v-3.6
					C120.1,257.5,120.5,256.5,121.4,255.9z"/>
				<path class="st29" d="M131.9,233.3h-10.3c-0.5,0-0.9-0.4-0.9-0.9v-0.4c0-0.5,0.4-0.9,0.9-0.9h10.3c0.5,0,0.9,0.4,0.9,0.9v0.4
					C132.8,232.9,132.4,233.3,131.9,233.3z"/>
				<path class="st29" d="M131.9,246.2l0.2-0.2c0.5-0.4,0.6-1,0.2-1.5c0,0,0,0,0,0l-9.1-11.9c-0.4-0.5-1-0.6-1.5-0.2l-0.2,0.2
					c-0.5,0.4-0.6,1-0.2,1.5l9.1,11.9C130.7,246.5,131.4,246.6,131.9,246.2z"/>
				<path class="st29" d="M121.7,246.2l-0.2-0.2c-0.5-0.4-0.6-1-0.2-1.5c0,0,0,0,0,0l9.1-11.9c0.4-0.5,1-0.6,1.5-0.2l0.2,0.2
					c0.5,0.4,0.6,1,0.2,1.5l-9.1,11.9C122.9,246.5,122.2,246.6,121.7,246.2C121.7,246.2,121.7,246.2,121.7,246.2z"/>
				<path class="st29" d="M131.9,258.2l0.2-0.1c0.5-0.4,0.6-1,0.2-1.5l-9.1-11.9c-0.4-0.5-1-0.6-1.5-0.2l-0.2,0.2
					c-0.5,0.4-0.6,1-0.2,1.5l9.1,11.9C130.7,258.5,131.4,258.6,131.9,258.2z"/>
				<path class="st29" d="M121.7,258.2l-0.2-0.1c-0.5-0.4-0.6-1-0.2-1.5l9.1-11.9c0.4-0.5,1-0.6,1.5-0.2l0.2,0.2
					c0.5,0.4,0.6,1,0.2,1.5l-9.1,11.9C122.8,258.5,122.2,258.6,121.7,258.2z"/>
				<path class="st29" d="M136.9,264.3h-0.3c-0.5,0-0.8-0.4-0.8-0.8v-5.4c0-0.5,0.4-0.8,0.8-0.8h0.3c0.5,0,0.8,0.4,0.8,0.8v5.4
					C137.7,264,137.3,264.3,136.9,264.3z"/>
				<path class="st29" d="M133,264.3h-0.3c-0.5,0-0.8-0.4-0.8-0.8v-6c0-0.5,0.4-0.8,0.8-0.8h0.3c0.5,0,0.8,0.4,0.8,0.8v6
					C133.8,264,133.4,264.3,133,264.3z"/>
				<path class="st29" d="M131.9,258.9h-9.9c-0.5,0-0.9-0.4-0.9-0.9v-0.4c0-0.5,0.4-0.9,0.9-0.9h9.9c0.5,0,0.9,0.4,0.9,0.9v0.4
					C132.8,258.5,132.4,258.9,131.9,258.9z"/>
				<path class="st29" d="M139.7,265.8h-19.3c-0.5,0-0.8-0.4-0.8-0.8v-0.4c0-0.5,0.4-0.8,0.8-0.8h19.3c0.5,0,0.8,0.4,0.8,0.8v0.4
					C140.5,265.4,140.1,265.8,139.7,265.8z"/>
				<path class="st29" d="M120.6,255.9h0.4c0.5,0,0.9,0.4,0.9,1v8c0,0.5-0.4,1-0.9,1h-0.4c-0.5,0-0.9-0.4-0.9-1v-8
					C119.6,256.3,120,255.9,120.6,255.9z"/>
				<path class="st29" d="M111.2,265.8h-0.4c-0.5,0-0.9-0.4-0.9-1v-8.1c0-0.5,0.4-1,0.9-1h0.4c0.5,0,0.9,0.4,0.9,1v8.1
					C112.2,265.3,111.8,265.8,111.2,265.8z"/>
				<rect x="85" y="212.9" class="st22" width="58.3" height="16.9"/>
				<ellipse class="st24" cx="79.6" cy="207.7" rx="10.2" ry="10.1"/>
				<path class="st24" d="M81.7,209.9c1.4-1.4,3.2-0.6,5.3,0.1s4,1.3,4.2,3.3c-0.6,0.6-1.3,1-2.1,1.2c0.2-0.1,0.3-0.2,0.4-0.4
					c-0.2-1.4-1.5-1.9-3.1-2.5s-3-1-4,0c0,0.2,0.1,0.4,0.1,0.5C82.1,211.5,81.8,210.7,81.7,209.9z"/>
				<path class="st26" d="M86.4,211.7c1.6,0.6,2.9,1.1,3.1,2.5c-0.1,0.1-0.3,0.2-0.4,0.4c-1.2,0.3-2.5,0.3-3.7-0.1
					c-1.2-0.4-2.2-1.2-2.9-2.2c0-0.2-0.1-0.4-0.1-0.5C83.5,210.6,84.8,211.1,86.4,211.7z"/>
				<path class="st24" d="M69.4,209.9c-1.4-1.4-3.2-0.6-5.3,0.2s-4,1.4-4.2,3.3c0.6,0.6,1.3,1,2.1,1.2c-0.1-0.1-0.3-0.2-0.4-0.4
					c0.2-1.4,1.5-1.9,3.1-2.5s2.9-1.1,4-0.1c0,0.2-0.1,0.4-0.1,0.5C69,211.5,69.3,210.7,69.4,209.9z"/>
				<path class="st26" d="M64.7,211.8c-1.6,0.6-2.9,1.1-3.1,2.5c0.1,0.1,0.3,0.2,0.4,0.4c2.5,0.7,5.1-0.3,6.5-2.4
					c0-0.2,0.1-0.4,0.1-0.5C67.6,210.7,66.3,211.2,64.7,211.8z"/>
				<path class="st24" d="M80.1,219.9l4-9.2c1.1-2.5-0.1-5.5-2.6-6.6c-0.6-0.3-1.3-0.4-2-0.4h-8c-2.8,0-5,2.2-5,5
					c0,0.7,0.1,1.4,0.4,2.1l4.1,9.2c1.1,2.5,4.1,3.7,6.6,2.5C78.6,222,79.5,221.1,80.1,219.9z"/>
				<path class="st26" d="M73.4,206.4c0,3-2.4,5.5-5.4,5.6c-3,0-5.5-2.4-5.6-5.4c0-3,2.4-5.5,5.4-5.6c0,0,0,0,0,0
					C70.9,201,73.4,203.4,73.4,206.4z"/>
				<path class="st26" d="M88.2,206.4c0,3-2.4,5.5-5.5,5.5c-3,0-5.5-2.4-5.5-5.5c0-3,2.4-5.5,5.5-5.5
					C85.7,200.9,88.2,203.3,88.2,206.4C88.2,206.4,88.2,206.4,88.2,206.4z"/>
				<path class="st26" d="M80.1,205.1c0,2.6-2.1,4.7-4.7,4.7c-2.6,0-4.7-2.1-4.7-4.7c0-2.6,2.1-4.7,4.7-4.7
					C77.9,200.4,80,202.5,80.1,205.1C80.1,205.1,80.1,205.1,80.1,205.1z"/>
				<path class="st24" d="M73.3,205.1c0,3.2-2.6,5.8-5.8,5.8s-5.8-2.6-5.8-5.8c0-3.2,2.6-5.8,5.8-5.8c0,0,0,0,0,0
					C70.7,199.3,73.3,201.9,73.3,205.1z"/>
				<path class="st24" d="M88.9,205c0,3.2-2.6,5.8-5.8,5.8c-3.2,0-5.8-2.6-5.8-5.8c0-3.2,2.6-5.8,5.8-5.8
					C86.3,199.2,88.9,201.8,88.9,205C88.9,205,88.9,205,88.9,205z"/>
				<path class="st24" d="M80.3,203.6c0,2.8-2.2,5-4.9,5.1c-2.8,0-5-2.2-5.1-4.9c0-2.8,2.2-5,4.9-5.1c0,0,0,0,0.1,0
					C78,198.7,80.3,200.9,80.3,203.6z"/>
				<path class="st26" d="M74.6,220.2l2.1,0c0.4,0,0.7,0.3,0.7,0.7l0,0.8c0,0.4-0.3,0.7-0.7,0.7l-2.1,0c-0.4,0-0.7-0.3-0.7-0.7
					l0-0.8C73.9,220.5,74.2,220.2,74.6,220.2z"/>
				<path class="st24" d="M74.2,199.6c0,2.2-1.8,4.1-4,4.1c-2.2,0-4.1-1.8-4.1-4c0-2.2,1.8-4.1,4-4.1c0,0,0,0,0,0
					C72.4,195.6,74.2,197.4,74.2,199.6z"/>
				<path class="st24" d="M78.7,197.6c0,2.2-1.8,4.1-4,4.1c-2.2,0-4.1-1.8-4.1-4c0-2.2,1.8-4.1,4-4.1c0,0,0,0,0,0
					C76.9,193.5,78.7,195.3,78.7,197.6C78.7,197.5,78.7,197.6,78.7,197.6z"/>
				<path class="st24" d="M83.9,199.3c0,2.2-1.8,4.1-4,4.1c-2.2,0-4.1-1.8-4.1-4c0-2.2,1.8-4.1,4-4.1c0,0,0,0,0,0
					C82,195.2,83.9,197,83.9,199.3C83.9,199.2,83.9,199.2,83.9,199.3z"/>
				<path class="st26" d="M87.5,206.5c-1.3-1.9-3.8-2.5-5.8-1.4c-0.7,0.4-1.2,0.9-1.6,1.6c-0.1-2.2,1-4.2,2.9-5.2
					c2.8-1.6,6.3-0.8,8.1,1.9c1.6,2.6,0.8,6-1.7,7.6c-0.1,0.1-0.2,0.1-0.3,0.2c-0.9,0.5-1.9,0.8-2.9,0.8
					C88,210.8,88.7,208.4,87.5,206.5C87.5,206.5,87.5,206.5,87.5,206.5z"/>
				<path class="st24" d="M82.5,206c0,0.7-0.6,1.3-1.3,1.3s-1.3-0.6-1.3-1.3c0-0.7,0.6-1.3,1.3-1.3c0,0,0,0,0,0
					C81.9,204.7,82.5,205.3,82.5,206C82.5,206,82.5,206,82.5,206z"/>
				<path class="st24" d="M83,204c0,1-0.8,1.7-1.7,1.7s-1.7-0.8-1.7-1.7c0-1,0.8-1.7,1.7-1.7c0,0,0,0,0,0C82.2,202.3,83,203,83,204z
					"/>
				<path class="st24" d="M84.2,201.9c0,1.1-0.8,1.9-1.9,2c-1.1,0-1.9-0.8-2-1.9c0-1.1,0.8-1.9,1.9-2c0,0,0,0,0,0
					C83.4,200,84.2,200.8,84.2,201.9z"/>
				<path class="st24" d="M82,204.4c0-0.9,0.7-1.6,1.6-1.7c0.9,0,1.6,0.7,1.7,1.6c0,0.9-0.7,1.6-1.6,1.7c0,0,0,0,0,0
					C82.7,206,82,205.3,82,204.4z"/>
				<path class="st26" d="M62.4,206.6c1.2-1.9,3.8-2.5,5.8-1.4c0.7,0.4,1.2,0.9,1.6,1.6c0.1-2.1-1-4.2-2.9-5.2
					c-2.8-1.6-6.3-0.7-8.1,2c-1.6,2.6-0.8,6,1.8,7.5c0.1,0.1,0.2,0.1,0.3,0.2c0.9,0.5,1.9,0.8,2.9,0.8c-1.9-1.1-2.5-3.5-1.5-5.3
					C62.4,206.6,62.4,206.6,62.4,206.6z"/>
				<path class="st24" d="M68.4,206.1c0,0.7,0.6,1.3,1.3,1.3c0.7,0,1.3-0.6,1.3-1.3c0-0.7-0.6-1.3-1.3-1.3
					C69,204.7,68.4,205.3,68.4,206.1C68.4,206.1,68.4,206.1,68.4,206.1z"/>
				<path class="st24" d="M68,204.1c0,1,0.8,1.7,1.7,1.7c1,0,1.7-0.8,1.7-1.7c0-1-0.8-1.7-1.7-1.7c0,0,0,0,0,0
					C68.8,202.3,68,203.1,68,204.1C68,204.1,68,204.1,68,204.1z"/>
				<path class="st24" d="M66.7,201.9c0,1.1,0.9,1.9,1.9,1.9c1.1,0,1.9-0.9,1.9-1.9c0-1.1-0.9-1.9-1.9-1.9
					C67.5,200,66.7,200.9,66.7,201.9C66.7,201.9,66.7,201.9,66.7,201.9z"/>
				<path class="st24" d="M69.2,204.8c0.3-0.8-0.2-1.7-1-2c-0.1,0-0.1,0-0.2,0c-0.9-0.2-1.9,0.3-2.2,1.2c-0.3,0.8,0.2,1.7,1,2
					c0.1,0,0.1,0,0.2,0C67.9,206.2,68.8,205.7,69.2,204.8z"/>
				<path class="st26" d="M79.7,216.1h-0.6c-0.3,0-0.6-0.3-0.6-0.6v-2.2c0-0.3,0.3-0.6,0.6-0.6h0.6c0.3,0,0.6,0.3,0.6,0.6v2.2
					C80.3,215.8,80,216.1,79.7,216.1z"/>
				<path class="st26" d="M72.3,216.1h-0.6c-0.3,0-0.6-0.3-0.6-0.6v-2.2c0-0.3,0.3-0.6,0.6-0.6h0.6c0.3,0,0.6,0.3,0.6,0.6v2.2
					C72.9,215.8,72.6,216.1,72.3,216.1z"/>
				<path class="st24" d="M158.4,209.9c1.4-1.4,3.2-0.6,5.3,0.1s4,1.3,4.2,3.3c-0.6,0.6-1.3,1-2.1,1.2c0.2-0.1,0.3-0.2,0.4-0.4
					c-0.2-1.4-1.5-1.9-3.1-2.5s-2.9-1-4,0c0,0.2,0.1,0.4,0.1,0.5C158.8,211.5,158.5,210.7,158.4,209.9z"/>
				<path class="st26" d="M163.2,211.7c1.6,0.6,2.9,1.1,3.1,2.5c-0.1,0.1-0.3,0.2-0.4,0.4c-1.2,0.3-2.5,0.3-3.6-0.1
					c-1.2-0.4-2.2-1.2-2.9-2.2c0-0.2-0.1-0.4-0.1-0.5C160.2,210.6,161.6,211.1,163.2,211.7z"/>
				<path class="st24" d="M146.1,209.9c-1.4-1.4-3.2-0.6-5.3,0.2s-4,1.4-4.2,3.3c0.6,0.6,1.3,1,2.1,1.2c-0.1-0.1-0.3-0.2-0.4-0.4
					c0.1-1.4,1.5-1.9,3.1-2.5s2.9-1.1,4-0.1c0,0.2-0.1,0.4-0.1,0.5C145.8,211.5,146.1,210.7,146.1,209.9z"/>
				<path class="st26" d="M141.4,211.8c-1.6,0.6-2.9,1.1-3.1,2.5c0.1,0.1,0.3,0.2,0.4,0.4c2.5,0.7,5.1-0.3,6.5-2.4
					c0-0.2,0.1-0.4,0.1-0.5C144.4,210.7,143,211.2,141.4,211.8z"/>
				<path class="st24" d="M156.8,219.9l4-9.2c1.1-2.5-0.1-5.5-2.6-6.6c-0.6-0.3-1.3-0.4-2-0.4h-8c-2.8,0-5,2.2-5,5
					c0,0.7,0.1,1.4,0.4,2.1l4.1,9.2c1.1,2.5,4.1,3.7,6.6,2.5C155.4,222,156.3,221.1,156.8,219.9z"/>
				<path class="st26" d="M150.1,206.4c0,3-2.4,5.5-5.5,5.5c-3,0-5.5-2.4-5.5-5.5c0-3,2.4-5.5,5.5-5.5c0,0,0,0,0,0
					C147.7,200.9,150.1,203.4,150.1,206.4C150.1,206.4,150.1,206.4,150.1,206.4z"/>
				<path class="st26" d="M164.9,206.4c0,3-2.4,5.5-5.5,5.5c-3,0-5.5-2.4-5.5-5.5c0-3,2.4-5.5,5.5-5.5
					C162.5,200.9,164.9,203.3,164.9,206.4C164.9,206.4,164.9,206.4,164.9,206.4z"/>
				<path class="st26" d="M156.8,205.1c0,2.6-2.1,4.7-4.7,4.7c-2.6,0-4.7-2.1-4.7-4.7c0-2.6,2.1-4.7,4.7-4.7
					C154.6,200.4,156.8,202.5,156.8,205.1C156.8,205.1,156.8,205.1,156.8,205.1z"/>
				<path class="st24" d="M150,205.1c0,3.2-2.6,5.8-5.8,5.8c-3.2,0-5.8-2.6-5.8-5.8c0-3.2,2.6-5.8,5.8-5.8c0,0,0,0,0,0
					C147.4,199.3,150,201.9,150,205.1z"/>
				<path class="st24" d="M165.6,205c0,3.2-2.6,5.8-5.8,5.8c-3.2,0-5.8-2.6-5.8-5.8c0-3.2,2.6-5.8,5.8-5.8
					C163,199.2,165.6,201.8,165.6,205C165.6,205,165.6,205,165.6,205z"/>
				<path class="st24" d="M157,203.6c0,2.8-2.2,5-4.9,5.1c-2.8,0-5-2.2-5.1-4.9c0-2.8,2.2-5,4.9-5.1c0,0,0,0,0.1,0
					C154.7,198.7,157,200.9,157,203.6z"/>
				<path class="st26" d="M151.3,220.2l2.1,0c0.4,0,0.7,0.3,0.7,0.7l0,0.8c0,0.4-0.3,0.7-0.7,0.7l-2.1,0c-0.4,0-0.7-0.3-0.7-0.7
					l0-0.8C150.6,220.5,150.9,220.2,151.3,220.2z"/>
				<path class="st24" d="M151,199.6c0,2.2-1.8,4.1-4,4.1c-2.2,0-4.1-1.8-4.1-4s1.8-4.1,4-4.1c0,0,0,0,0,0
					C149.2,195.6,151,197.4,151,199.6z"/>
				<path class="st24" d="M155.5,197.6c0,2.2-1.8,4.1-4,4.1c-2.2,0-4.1-1.8-4.1-4s1.8-4.1,4-4.1c0,0,0,0,0,0
					C153.6,193.5,155.4,195.3,155.5,197.6C155.5,197.5,155.5,197.6,155.5,197.6z"/>
				<path class="st24" d="M160.6,199.3c0,2.2-1.8,4.1-4,4.1c-2.2,0-4.1-1.8-4.1-4s1.8-4.1,4-4.1c0,0,0,0,0,0
					C158.8,195.2,160.6,197,160.6,199.3C160.6,199.2,160.6,199.2,160.6,199.3z"/>
				<path class="st26" d="M164.2,206.5c-1.3-1.9-3.8-2.5-5.8-1.4c-0.7,0.4-1.2,0.9-1.6,1.6c-0.1-2.1,1-4.2,2.9-5.2
					c2.8-1.6,6.3-0.8,8.1,1.9c1.6,2.6,0.8,6-1.7,7.6c-0.1,0.1-0.2,0.1-0.3,0.2c-0.9,0.5-1.9,0.8-2.9,0.8
					C164.8,210.8,165.4,208.4,164.2,206.5C164.3,206.5,164.2,206.5,164.2,206.5z"/>
				<path class="st24" d="M159.3,206c0,0.7-0.6,1.3-1.3,1.3c-0.7,0-1.3-0.6-1.3-1.3c0-0.7,0.6-1.3,1.3-1.3c0,0,0,0,0,0
					C158.7,204.7,159.3,205.3,159.3,206C159.3,206,159.3,206,159.3,206z"/>
				<path class="st24" d="M159.7,204c0,1-0.8,1.7-1.7,1.7c-1,0-1.7-0.8-1.7-1.7c0-1,0.8-1.7,1.7-1.7c0,0,0,0,0,0
					C158.9,202.3,159.7,203,159.7,204z"/>
				<path class="st24" d="M161,201.9c0,1.1-0.8,1.9-1.9,2c-1.1,0-1.9-0.8-2-1.9c0-1,0.8-1.9,1.8-2C160.1,200,160.9,200.8,161,201.9
					C161,201.8,161,201.9,161,201.9z"/>
				<path class="st24" d="M158.7,204.4c0-0.9,0.7-1.6,1.6-1.6c0.9,0,1.6,0.7,1.6,1.6c0,0.9-0.7,1.6-1.6,1.6
					C159.4,206,158.7,205.3,158.7,204.4z"/>
				<path class="st26" d="M139.1,206.6c1.2-1.9,3.8-2.5,5.8-1.4c0.7,0.4,1.2,0.9,1.6,1.6c0.1-2.1-1-4.2-2.9-5.2
					c-2.8-1.6-6.3-0.7-8.1,2c-1.6,2.6-0.8,6,1.8,7.6c0.1,0.1,0.2,0.1,0.3,0.1c0.9,0.5,1.9,0.8,2.9,0.8c-1.9-1.1-2.5-3.5-1.5-5.3
					C139.1,206.6,139.1,206.6,139.1,206.6z"/>
				<path class="st24" d="M145.1,206.1c0,0.7,0.6,1.3,1.3,1.3c0.7,0,1.3-0.6,1.3-1.3c0-0.7-0.6-1.3-1.3-1.3
					C145.7,204.7,145.1,205.3,145.1,206.1C145.1,206.1,145.1,206.1,145.1,206.1z"/>
				<path class="st24" d="M144.7,204.1c0,1,0.8,1.7,1.7,1.7c1,0,1.7-0.8,1.7-1.7c0-1-0.8-1.7-1.7-1.7c0,0,0,0,0,0
					C145.5,202.3,144.7,203.1,144.7,204.1C144.7,204.1,144.7,204.1,144.7,204.1z"/>
				<path class="st24" d="M143.4,201.9c0,1.1,0.9,1.9,1.9,1.9c1.1,0,1.9-0.9,1.9-1.9c0-1.1-0.9-1.9-1.9-1.9
					C144.3,200,143.4,200.9,143.4,201.9C143.4,201.9,143.4,201.9,143.4,201.9z"/>
				<path class="st24" d="M145.9,204.8c0.3-0.8-0.2-1.7-1-2c-0.1,0-0.1,0-0.2,0c-0.9-0.2-1.9,0.3-2.2,1.2c-0.3,0.8,0.2,1.7,1,2
					c0.1,0,0.1,0,0.2,0C144.6,206.2,145.6,205.7,145.9,204.8z"/>
				<path class="st26" d="M156.4,216.1h-0.6c-0.3,0-0.6-0.3-0.6-0.6v-2.2c0-0.3,0.3-0.6,0.6-0.6h0.6c0.3,0,0.6,0.3,0.6,0.6v2.2
					C157,215.8,156.8,216.1,156.4,216.1z"/>
				<path class="st26" d="M149,216.1h-0.6c-0.3,0-0.6-0.3-0.6-0.6v-2.2c0-0.3,0.3-0.6,0.6-0.6h0.6c0.3,0,0.6,0.3,0.6,0.6v2.2
					C149.6,215.8,149.3,216.1,149,216.1z"/>
				<path class="st22" d="M149.4,277.9l-68.9,0.3l2-61.3c0-14.6,11.8-26.5,26.5-26.5h10.9c14.6,0,26.5,11.9,26.5,26.5L149.4,277.9z"
					/>
				<path class="st28" d="M113.4,154.2h1.4c1.9,0,3.4,1.5,3.4,3.4v10.5c0,1.9-1.5,3.4-3.4,3.4h-1.4c-1.9,0-3.4-1.5-3.4-3.4v-10.5
					C110,155.8,111.6,154.2,113.4,154.2z"/>
				<path class="st28" d="M114,179.2c6.6,0,12-5.3,12.1-11.9c0,0,0,0,0-0.1c0-0.1,0-0.2,0-0.3c-3.7-2-7.8-3-12-3l0,0
					c-4.2,0-8.4,1.1-12.1,3.1c0,0.1,0,0.2,0,0.2C102,173.9,107.4,179.2,114,179.2z"/>
				<path class="st28" d="M170.5,166.5l1.3,1c1.7,1.3,2.1,3.8,0.8,5.5l-16.9,22.3c-1.3,1.7-3.8,2.1-5.5,0.8l-1.3-1
					c-1.7-1.3-2.1-3.8-0.8-5.5l16.9-22.3C166.3,165.6,168.8,165.2,170.5,166.5z"/>
				<path class="st27" d="M169.4,89.4h1.7c2.3,0,4.2,1.9,4.2,4.2v77c0,2.3-1.9,4.2-4.2,4.2h-1.7c-2.3,0-4.2-1.9-4.2-4.2v-77
					C165.3,91.2,167.1,89.4,169.4,89.4z"/>
				<path class="st28" d="M165.9,167h-3.7c-0.9,0-1.7-0.7-1.7-1.7v-0.7c0-0.9,0.7-1.7,1.7-1.7h3.7c0.9,0,1.7,0.7,1.7,1.7v0.7
					C167.6,166.3,166.9,167,165.9,167z"/>
				<path class="st28" d="M174.6,171.7H172c-1.6,0-2.9-1.3-2.9-2.9v-8c0-1.6,1.3-2.9,2.9-2.9h2.7c1.6,0,2.9,1.3,2.9,2.9v8
					C177.5,170.4,176.2,171.7,174.6,171.7z"/>
				<path class="st22" d="M136.8,178.2c-2.3-4.8-6.1-8.8-10.8-11.3c0,0.1,0,0.2,0,0.3c-0.2,6.7-5.7,11.9-12.4,11.7
					c-6.4-0.2-11.5-5.3-11.7-11.7c0-0.1,0-0.2,0-0.2c-4.3,2.3-7.8,5.9-10.1,10.2c-1.9,3.6-3,7.6-2.9,11.8v16h50.4v-16
					C139.3,185.2,138.4,181.5,136.8,178.2z"/>
				<path class="st30" d="M88.2,199.3H139c1.7,0,3.1,1.4,3.1,3.1v1.3c0,1.7-1.4,3.1-3.1,3.1H88.2c-1.7,0-3.1-1.4-3.1-3.1v-1.3
					C85.1,200.7,86.5,199.3,88.2,199.3z"/>
				<path class="st22" d="M157.6,193.5l-1.3,1.8c-1.8,2.4-5.2,2.8-7.5,1l-19.9-15.1c-2.4-1.8-2.8-5.2-1-7.5l1.3-1.8
					c1.8-2.4,5.2-2.8,7.5-1l19.9,15.1C158.9,187.7,159.4,191.1,157.6,193.5z"/>
				<path class="st24" d="M108.5,206.1h10.3c2.5,0,4.6,2,4.6,4.6v1.9c0,2.5-2,4.6-4.6,4.6h-10.3c-2.5,0-4.6-2-4.6-4.6v-1.9
					C103.9,208.2,105.9,206.1,108.5,206.1z"/>
				<path class="st22" d="M104.7,217.1c-0.2,0-0.5,0-0.7,0c-14.7-1.9-23.6-7-26.3-15.3c-4.7-14.3,11.8-30.4,13.7-32.2
					c2.2-2.1,5.7-2,7.8,0.2c2.1,2.2,2,5.6-0.2,7.7c0,0,0,0,0,0c-4.4,4.2-12.8,14.7-10.8,20.7c1.2,3.8,7.3,6.6,17.2,7.8
					c3,0.4,5.2,3.1,4.8,6.1C109.8,215.1,107.5,217.2,104.7,217.1z"/>
				<path class="st22" d="M168.4,48.1h-0.3c4.2,3.7,4.5,10.1,0.8,14.3c-3.7,4.2-10.1,4.5-14.3,0.8c-0.2-0.2-0.4-0.4-0.6-0.5
					c-0.2,1.3-0.3,2.6-0.3,3.8c0,10.1,6.6,18.4,14.7,18.4s14.7-8.2,14.7-18.4S176.5,48.1,168.4,48.1z"/>
				<path class="st28" d="M173.6,66.3c0,0,0,0.1,0,0.1c0,4.5-3.6,8.2-8.1,8.2c-0.7,0-1.3-0.1-2-0.3c0.5,3.8,3.2,6.7,6.4,6.7
					c3.6,0,6.5-3.6,6.5-8.1C176.5,70.4,175.5,68,173.6,66.3z"/>
				<path class="st31" d="M114.4,162.4l-3.6,0c-11.4-0.1-20.6-9.4-20.6-20.8l0.1-15.3c0.1-11.4,9.4-20.6,20.8-20.6l3.6,0
					c11.4,0.1,20.6,9.4,20.6,20.8l-0.1,15.3C135.1,153.3,125.8,162.5,114.4,162.4z"/>
				<path class="st28" d="M84.1,136.8c0,3.1,2.4,5.5,5.5,5.6c3.1,0,5.5-2.4,5.6-5.5c0-3.1-2.4-5.5-5.5-5.6c0,0,0,0,0,0
					C86.6,131.2,84.2,133.7,84.1,136.8z"/>
				<path class="st31" d="M86.3,136.8c0,1.9,1.5,3.4,3.3,3.4s3.4-1.5,3.4-3.3c0-1.9-1.5-3.4-3.3-3.4c0,0,0,0,0,0
					C87.8,133.4,86.3,134.9,86.3,136.8z"/>
				<path class="st28" d="M130.7,137c0,3,2.5,5.5,5.5,5.5s5.5-2.5,5.5-5.5c0-3-2.4-5.5-5.5-5.5C133.2,131.5,130.7,133.9,130.7,137
					C130.7,137,130.7,137,130.7,137z"/>
				<path class="st31" d="M132.8,137c0,1.9,1.5,3.4,3.4,3.4s3.4-1.5,3.4-3.4c0-1.9-1.5-3.4-3.3-3.4
					C134.4,133.6,132.8,135.1,132.8,137C132.8,137,132.8,137,132.8,137z"/>
				<path class="st28" d="M114.4,161.2l-3.6,0c-11.4-0.1-20.6-9.4-20.6-20.8l0.1-15.3c0.1-11.4,9.4-20.6,20.8-20.6l3.6,0
					c11.4,0.1,20.6,9.4,20.6,20.8l-0.1,15.3C135.1,152.1,125.8,161.3,114.4,161.2z"/>
				<path class="st27" d="M139.2,126.4c0-14.5-11.6-26.3-26.1-26.4l0,0c-14.5,0-26.3,11.6-26.4,26.1L139.2,126.4z"/>
				<path class="st31" d="M116.9,146.7c-0.1-1.8-1.6-3.2-3.4-3.1c-1.6,0.1-3,1.4-3.1,3.1H116.9z"/>
				<path class="st31" d="M110.6,149.4h6.1c0.4,0,0.7,0.3,0.7,0.7v0.3c0,0.4-0.3,0.7-0.7,0.7h-6.1c-0.4,0-0.7-0.3-0.7-0.7v-0.3
					C109.9,149.7,110.2,149.4,110.6,149.4z"/>
				<path class="st27" d="M106.8,135.4l-9-2.1c-0.8-0.2-1.3-1-1.1-1.8l0,0c0.2-0.8,1-1.3,1.8-1.1l9,2.1c0.8,0.2,1.3,1,1.1,1.8l0,0
					C108.4,135.1,107.6,135.6,106.8,135.4z"/>
				<path class="st27" d="M119.2,135.4l9-2.1c0.8-0.2,1.3-1,1.1-1.8l0,0c-0.2-0.8-1-1.3-1.8-1.1l-9,2.1c-0.8,0.2-1.3,1-1.1,1.8l0,0
					C117.6,135.1,118.4,135.6,119.2,135.4z"/>
				<path class="st25" d="M104.8,143.6L104.8,143.6c-0.9,0-1.6-0.7-1.6-1.5c0,0,0,0,0,0v-3.9c0-0.9,0.7-1.6,1.6-1.6h0l0,0
					c0.9,0,1.6,0.7,1.6,1.6v3.8C106.4,142.9,105.7,143.6,104.8,143.6C104.8,143.6,104.8,143.6,104.8,143.6z"/>
				<path class="st25" d="M122.2,143.6L122.2,143.6c-0.9,0-1.6-0.7-1.6-1.5c0,0,0,0,0,0v-3.9c0-0.9,0.7-1.6,1.6-1.6h0l0,0
					c0.9,0,1.6,0.7,1.6,1.6v3.8C123.7,142.9,123,143.6,122.2,143.6C122.2,143.6,122.2,143.6,122.2,143.6z"/>
				<path class="st27" d="M94.4,128.4c0,1.7-1.4,3.1-3.1,3.1s-3.1-1.4-3.1-3.1c0-1.7,1.4-3.1,3.1-3.1c0,0,0,0,0,0
					C93,125.3,94.4,126.7,94.4,128.4z"/>
				<path class="st27" d="M137.7,128.4c0,1.7-1.4,3.1-3.1,3.1c-1.7,0-3.1-1.4-3.1-3.1c0-1.7,1.4-3.1,3.1-3.1c0,0,0,0,0,0
					C136.3,125.3,137.7,126.7,137.7,128.4z"/>
				<path class="st27" d="M93.9,124.2h38.7c1,0,1.7,0.8,1.7,1.7v0.7c0,1-0.8,1.7-1.7,1.7H93.9c-1,0-1.7-0.8-1.7-1.7v-0.7
					C92.1,125,92.9,124.2,93.9,124.2z"/>
				<rect x="87" y="101.3" class="st28" width="12.5" height="21.4"/>
				<rect x="127" y="101.3" class="st28" width="12.5" height="21.4"/>
				<rect x="106" y="97.8" class="st28" width="14.5" height="28.5"/>
				<rect x="86.7" y="114.2" class="st28" width="52.8" height="8.5"/>
				<path class="st31" d="M88.1,121.9H139c1.2,0,2.1,0.9,2.1,2.1v0.9c0,1.2-0.9,2.1-2.1,2.1H88.1c-1.2,0-2.1-0.9-2.1-2.1V124
					C86,122.8,87,121.9,88.1,121.9z"/>
			</g>
		</g>
	</g>
</g>
</svg>
