<svg xmlns="http://www.w3.org/2000/svg" xmlns:xlink="http://www.w3.org/1999/xlink" viewBox="0 0 235.04 381.18"><defs><style>.cls-1{fill:none;}.cls-2{fill:#f4b155;}.cls-3{fill:#fff0cc;}.cls-4{fill:#231f20;}.cls-5{clip-path:url(#clip-path);}.cls-6{fill:#a7f1f9;}.cls-7{fill:#789b78;}.cls-8{fill:#f9fafb;}.cls-9{fill:#79b27b;}.cls-10{fill:#f1f2f2;}.cls-11{fill:#67d8db;}.cls-12{fill:#81efef;}.cls-13{fill:#ffd150;}.cls-14{fill:#414042;}.cls-15{fill:#ffd351;}.cls-16{fill:#f5b155;}.cls-17{fill:#3a335f;}.cls-18{fill:#f2c351;}</style><clipPath id="clip-path"><rect class="cls-1" x="29.56" y="44.04" width="178.55" height="241.88" rx="24.79"/></clipPath></defs><g id="Layer_2" data-name="Layer 2"><g id="Layer_1-2" data-name="Layer 1"><path class="cls-2" d="M235,14.45V366.73c0,8-6.73,14.45-15,14.45H15c-8.26,0-15-6.48-15-14.45V14.45C0,6.48,6.73,0,15,0H220C228.31,0,235,6.48,235,14.45Zm-12.6,343.89V22.83A10.83,10.83,0,0,0,211.62,12H23.42A10.83,10.83,0,0,0,12.6,22.83V358.34a10.83,10.83,0,0,0,10.82,10.82h188.2A10.83,10.83,0,0,0,222.44,358.34Z"/><rect class="cls-3" x="12.6" y="12.02" width="209.84" height="357.15" rx="10.82"/><path class="cls-4" d="M58.92,334.83a.65.65,0,0,1,.06-.26l5.18-12.29a1,1,0,0,1,.26-.41.63.63,0,0,1,.39-.1h1.08a.62.62,0,0,1,.4.1,1.07,1.07,0,0,1,.25.41l5.18,12.29a.65.65,0,0,1,.06.26c0,.19-.11.29-.33.29H69.74a.65.65,0,0,1-.36-.07.6.6,0,0,1-.21-.28L68.05,332H62.63l-1.1,2.75a.6.6,0,0,1-.21.28.65.65,0,0,1-.36.07H59.25C59,335.12,58.92,335,58.92,334.83Zm8.5-4.64-2.08-5.14-2.08,5.14Z"/><path class="cls-4" d="M74.06,333.61a7,7,0,0,1,5.11-12.14,10.15,10.15,0,0,1,2.47.28,6.18,6.18,0,0,1,1.93.78.32.32,0,0,1,.17.26.54.54,0,0,1-.09.27l-.55.95c-.08.11-.15.17-.22.17a.77.77,0,0,1-.28-.1,6.08,6.08,0,0,0-3.16-.74A4.63,4.63,0,0,0,76,324.61a5.26,5.26,0,0,0-1.26,3.83A5.15,5.15,0,0,0,76,332.3a4.74,4.74,0,0,0,3.49,1.27,6.53,6.53,0,0,0,3.36-.77.86.86,0,0,1,.26-.09c.07,0,.15.06.23.17l.61,1a.49.49,0,0,1,.06.2c0,.08-.07.16-.22.26a8.05,8.05,0,0,1-4.57,1.06A7.06,7.06,0,0,1,74.06,333.61Z"/><path class="cls-4" d="M86.09,335a.77.77,0,0,1-.17-.53V322.49a.62.62,0,0,1,.73-.72h8.17a.57.57,0,0,1,.69.68V323a.79.79,0,0,1-.15.54.67.67,0,0,1-.54.17H88.44v3.81h4.63a.74.74,0,0,1,.55.16.7.7,0,0,1,.16.53v.49a.6.6,0,0,1-.71.71H88.44v3.83H94.8a.74.74,0,0,1,.55.16.77.77,0,0,1,.16.54v.53a.7.7,0,0,1-.16.52.79.79,0,0,1-.55.15H86.65A.78.78,0,0,1,86.09,335Z"/><path class="cls-4" d="M106.24,333.59a8.48,8.48,0,0,1,0-10.29,7.68,7.68,0,0,1,10,0,8.44,8.44,0,0,1,0,10.29,7.68,7.68,0,0,1-10,0Zm8.12-1.33a7.28,7.28,0,0,0,0-7.63,3.85,3.85,0,0,0-3.14-1.29,3.9,3.9,0,0,0-3.15,1.29,7.22,7.22,0,0,0,0,7.63,3.85,3.85,0,0,0,3.15,1.31A3.81,3.81,0,0,0,114.36,332.26Z"/><path class="cls-4" d="M120,335a.77.77,0,0,1-.17-.53V322.49a.62.62,0,0,1,.73-.72h8.17a.57.57,0,0,1,.69.68V323a.79.79,0,0,1-.15.54.67.67,0,0,1-.54.17h-6.38v3.79H127a.72.72,0,0,1,.55.16.7.7,0,0,1,.16.53v.53a.74.74,0,0,1-.16.54.72.72,0,0,1-.55.17h-4.63v5a.77.77,0,0,1-.17.53.8.8,0,0,1-.58.17h-1A.78.78,0,0,1,120,335Z"/><path class="cls-4" d="M140.07,333.61a8.27,8.27,0,0,1,0-10.33,6.87,6.87,0,0,1,5.13-1.81,10.24,10.24,0,0,1,2.48.28,6,6,0,0,1,1.92.78.33.33,0,0,1,.18.26.56.56,0,0,1-.1.27l-.55.95c-.08.11-.15.17-.22.17a.69.69,0,0,1-.27-.1,6.13,6.13,0,0,0-3.16-.74,4.67,4.67,0,0,0-3.48,1.27,5.26,5.26,0,0,0-1.26,3.83,5.15,5.15,0,0,0,1.3,3.86,4.76,4.76,0,0,0,3.5,1.27,6.47,6.47,0,0,0,3.35-.77.86.86,0,0,1,.26-.09.3.3,0,0,1,.23.17l.61,1a.49.49,0,0,1,.06.2c0,.08-.07.16-.21.26a8.09,8.09,0,0,1-4.58,1.06A7.06,7.06,0,0,1,140.07,333.61Z"/><path class="cls-4" d="M154.69,334.82a4.65,4.65,0,0,1-2.1-1.74,4.75,4.75,0,0,1-.75-2.67v-7.92a.79.79,0,0,1,.17-.55.76.76,0,0,1,.56-.17h1a.83.83,0,0,1,.57.17.79.79,0,0,1,.17.55v8a2.89,2.89,0,0,0,.9,2.31,3.72,3.72,0,0,0,2.56.79,3.68,3.68,0,0,0,2.54-.79,2.89,2.89,0,0,0,.9-2.31v-8a.79.79,0,0,1,.17-.55.83.83,0,0,1,.57-.17h1c.51,0,.76.24.76.72v7.92a4.69,4.69,0,0,1-.75,2.66,5,5,0,0,1-2.12,1.74,8.3,8.3,0,0,1-6.22,0Z"/><path class="cls-4" d="M166.17,335a.77.77,0,0,1-.17-.53V322.49a.62.62,0,0,1,.73-.72h5a4.91,4.91,0,0,1,3.58,1.15,5.17,5.17,0,0,1,0,6.55,5,5,0,0,1-3.58,1.13h-3.25v3.82a.76.76,0,0,1-.16.53.82.82,0,0,1-.58.17h-1A.78.78,0,0,1,166.17,335Zm5.47-6.25a2.35,2.35,0,0,0,1.78-.62,2.59,2.59,0,0,0,.59-1.87,2.62,2.62,0,0,0-.59-1.9,2.35,2.35,0,0,0-1.78-.62h-3.13v5Z"/><g class="cls-5"><polygon class="cls-6" points="222.44 32.34 24.91 32.34 24.91 195.99 24.91 214.95 24.91 304.65 222.33 304.65 222.33 214.95 222.44 214.95 222.44 32.34"/><polygon class="cls-7" points="12.6 156.33 51.34 137.97 134.94 179.15 12.6 179.15 12.6 156.33"/><circle class="cls-8" cx="122.94" cy="163.02" r="18.23"/><circle class="cls-8" cx="200.01" cy="149.47" r="18.23"/><circle class="cls-8" cx="51.11" cy="172.36" r="18.23"/><rect class="cls-8" x="29.56" y="166.51" width="178.55" height="16.95"/><circle class="cls-8" cx="33" cy="157.86" r="18.23"/><polygon class="cls-9" points="211.88 157.04 173.63 138.32 80.18 181.61 211.88 181.61 211.88 157.04"/><rect class="cls-10" x="25.87" y="98.34" width="31.49" height="6.94" rx="3.47"/><path class="cls-10" d="M43.7,110.85H18.25A3.22,3.22,0,0,1,15,107.63h0a3.22,3.22,0,0,1,3.21-3.22H43.7a3.23,3.23,0,0,1,3.22,3.22h0A3.23,3.23,0,0,1,43.7,110.85Z"/><circle class="cls-8" cx="204.2" cy="166.67" r="18.23" transform="translate(-47.89 89.68) rotate(-22.24)"/><circle class="cls-8" cx="179.46" cy="180.09" r="18.23" transform="translate(-54.81 81.31) rotate(-22.24)"/><path class="cls-10" d="M91.12,79.6H69.69a2.11,2.11,0,0,1-2.1-2.1h0a2.1,2.1,0,0,1,2.1-2.1H91.12a2.11,2.11,0,0,1,2.1,2.1h0A2.11,2.11,0,0,1,91.12,79.6Z"/><path class="cls-10" d="M82.78,83H60.71A1.94,1.94,0,0,1,58.77,81h0a2,2,0,0,1,1.94-2H82.78a2,2,0,0,1,1.94,2h0A1.94,1.94,0,0,1,82.78,83Z"/><rect class="cls-11" x="24.91" y="174.85" width="197.53" height="129.63"/><path class="cls-12" d="M43.15,207.4H89.31A3.38,3.38,0,0,0,92.69,204h0a3.39,3.39,0,0,0-3.38-3.37H43.15A3.38,3.38,0,0,0,39.78,204h0A3.38,3.38,0,0,0,43.15,207.4Z"/><path class="cls-12" d="M141.75,212.46H194.7a3.19,3.19,0,0,0,3.18-3.19h0a3.19,3.19,0,0,0-3.18-3.18H141.75a3.2,3.2,0,0,0-3.19,3.18h0A3.2,3.2,0,0,0,141.75,212.46Z"/><path class="cls-12" d="M132,197h52.95a3.2,3.2,0,0,0,3.19-3.19h0a3.2,3.2,0,0,0-3.19-3.18H132a3.19,3.19,0,0,0-3.18,3.18h0A3.19,3.19,0,0,0,132,197Z"/><path class="cls-12" d="M65,266.57h53a3.19,3.19,0,0,0,3.18-3.18h0a3.2,3.2,0,0,0-3.18-3.19H65a3.21,3.21,0,0,0-3.19,3.19h0A3.2,3.2,0,0,0,65,266.57Z"/><path class="cls-12" d="M62.7,268.07h53a3.2,3.2,0,0,0,3.18-3.19h0a3.19,3.19,0,0,0-3.18-3.18H62.7a3.19,3.19,0,0,0-3.19,3.18h0A3.2,3.2,0,0,0,62.7,268.07Z"/><path class="cls-12" d="M42.53,246.6h53a3.2,3.2,0,0,0,3.18-3.19h0a3.19,3.19,0,0,0-3.18-3.18H42.53a3.2,3.2,0,0,0-3.19,3.18h0A3.21,3.21,0,0,0,42.53,246.6Z"/><path class="cls-12" d="M172.93,238.43H194.7a3.2,3.2,0,0,0,3.18-3.19h0a3.19,3.19,0,0,0-3.18-3.18H172.93a3.2,3.2,0,0,0-3.19,3.18h0A3.21,3.21,0,0,0,172.93,238.43Z"/><path class="cls-12" d="M122.15,229.89H148.8a3.19,3.19,0,0,0,3.19-3.18h0a3.2,3.2,0,0,0-3.19-3.19H122.15a3.21,3.21,0,0,0-3.19,3.19h0A3.2,3.2,0,0,0,122.15,229.89Z"/><path class="cls-12" d="M137.77,267.19h36.11a3.2,3.2,0,0,0,3.19-3.19h0a3.2,3.2,0,0,0-3.19-3.18H137.77a3.19,3.19,0,0,0-3.18,3.18h0A3.19,3.19,0,0,0,137.77,267.19Z"/><path class="cls-12" d="M131.74,250.54h24a3.2,3.2,0,0,0,3.19-3.19h0a3.2,3.2,0,0,0-3.19-3.18h-24a3.2,3.2,0,0,0-3.19,3.18h0A3.2,3.2,0,0,0,131.74,250.54Z"/><path class="cls-13" d="M101.63,295.28V220.83a6.88,6.88,0,1,1,13.75,0v75.7a1.77,1.77,0,0,1,0,.23l5,1.07a4.1,4.1,0,0,1,2.18,1.26l1,1.15a4.11,4.11,0,0,1-3,6.87H104.13A4.11,4.11,0,0,1,100,303v-4.46A4.09,4.09,0,0,1,101.63,295.28Z"/><path class="cls-13" d="M97.47,295.28V220.83a6.88,6.88,0,1,0-13.75,0v75.7c0,.08,0,.15,0,.23l-5,1.07a4,4,0,0,0-2.17,1.26l-1,1.15a4.11,4.11,0,0,0,3,6.87H95A4.11,4.11,0,0,0,99.08,303v-4.46A4.09,4.09,0,0,0,97.47,295.28Z"/><rect class="cls-14" x="72.7" y="114.21" width="49.53" height="74.6"/><path class="cls-15" d="M80.1,137.29a4.84,4.84,0,1,1-4.84-4.84A4.84,4.84,0,0,1,80.1,137.29Z"/><path class="cls-16" d="M78.38,137.29a3.13,3.13,0,1,1-3.12-3.13A3.12,3.12,0,0,1,78.38,137.29Z"/><path class="cls-15" d="M124,137.29a4.84,4.84,0,1,1-4.84-4.84A4.84,4.84,0,0,1,124,137.29Z"/><path class="cls-16" d="M122.32,137.29a3.13,3.13,0,1,1-3.13-3.13A3.13,3.13,0,0,1,122.32,137.29Z"/><path class="cls-15" d="M97.73,165.61h0a3.81,3.81,0,0,1-3.8-3.8V155a3.81,3.81,0,0,1,3.8-3.8h0a3.81,3.81,0,0,1,3.8,3.8v6.85A3.81,3.81,0,0,1,97.73,165.61Z"/><path class="cls-16" d="M97.66,159.35h0A21.76,21.76,0,0,1,76,137.66v-9.08a21.75,21.75,0,0,1,21.69-21.69h0a21.75,21.75,0,0,1,21.69,21.69v9.08A21.76,21.76,0,0,1,97.66,159.35Z"/><path class="cls-16" d="M141,189c-13.5,0-28.34-10.89-33.06-14.65l-.06,0a4.84,4.84,0,0,1,5.49-8,4.9,4.9,0,0,1,.6.44c8.89,7.08,22.17,14.49,30.36,12.1,3.4-1,5.84-3.8,7.47-8.58a4.84,4.84,0,1,1,9.17,3.13c-3.33,9.79-9.41,13.43-13.92,14.75A21.6,21.6,0,0,1,141,189ZM107.88,174.3l.33.22Z"/><path class="cls-15" d="M97.66,158.15h0A21.75,21.75,0,0,1,76,136.46v-9.07A21.75,21.75,0,0,1,97.66,105.7h0a21.75,21.75,0,0,1,21.69,21.69v9.07A21.75,21.75,0,0,1,97.66,158.15Z"/><path class="cls-14" d="M116.45,124.89H79a11.46,11.46,0,0,1-11.43-11.43h0A11.46,11.46,0,0,1,79,102h37.44a11.47,11.47,0,0,1,11.43,11.43h0A11.47,11.47,0,0,1,116.45,124.89Z"/><rect class="cls-17" x="103.24" y="132.45" width="5.54" height="10.62" rx="2.77"/><path class="cls-17" d="M86.05,143.06h0a2.78,2.78,0,0,1-2.77-2.77v-5.07a2.78,2.78,0,0,1,2.77-2.77h0a2.78,2.78,0,0,1,2.77,2.77v5.07A2.78,2.78,0,0,1,86.05,143.06Z"/><path class="cls-16" d="M96,142H94.59a.19.19,0,0,1-.19-.22,1.65,1.65,0,0,1,3.26,0,.19.19,0,0,1-.18.22Z"/><path class="cls-14" d="M111,131.34l-8-1.44a1.46,1.46,0,0,1-1.18-1.7h0a1.47,1.47,0,0,1,1.7-1.19l8,1.45a1.46,1.46,0,0,1,1.18,1.7h0A1.46,1.46,0,0,1,111,131.34Z"/><path class="cls-14" d="M89.47,130.43l-8,1.43a1.48,1.48,0,0,1-1.71-1.18h0A1.49,1.49,0,0,1,80.92,129l8-1.43a1.47,1.47,0,0,1,1.7,1.19h0A1.47,1.47,0,0,1,89.47,130.43Z"/><path class="cls-15" d="M98.3,249.32h0a23.93,23.93,0,0,1-23.94-23.93V185.62A23.93,23.93,0,0,1,98.3,161.69h0a23.93,23.93,0,0,1,23.93,23.93v39.77A23.93,23.93,0,0,1,98.3,249.32Z"/><path class="cls-10" d="M81.85,253.91l20.25.17a4.58,4.58,0,0,0,4.6-4.53h0a4.58,4.58,0,0,0-4.52-4.6l-20.25-.17a4.58,4.58,0,0,0-4.6,4.53h0A4.58,4.58,0,0,0,81.85,253.91Z"/><rect class="cls-10" x="83.8" y="234.59" width="39.86" height="6.42" rx="3.21" transform="translate(207.45 475.6) rotate(180)"/><path class="cls-10" d="M91.6,242.8h0a2.07,2.07,0,0,0-2.06-2.07h10a2.07,2.07,0,0,0-2.07,2.07h0a2.07,2.07,0,0,0,2.07,2.07h-10A2.07,2.07,0,0,0,91.6,242.8Z"/><path class="cls-15" d="M162.93,170.41h-9.31a3.16,3.16,0,0,1-3.15-3.15h0a3.16,3.16,0,0,1,3.15-3.16h9.31a3.16,3.16,0,0,1,3.15,3.16h0A3.16,3.16,0,0,1,162.93,170.41Z"/><path class="cls-10" d="M64.68,227.41H50.51A3.5,3.5,0,0,1,47,223.93h0a3.49,3.49,0,0,1,3.48-3.47H64.68a3.49,3.49,0,0,1,3.48,3.47h0A3.5,3.5,0,0,1,64.68,227.41Z"/><path class="cls-10" d="M50.8,214.08H49.55A2.52,2.52,0,0,1,47,211.57h0a2.52,2.52,0,0,1,2.52-2.52H50.8a2.52,2.52,0,0,1,2.51,2.52h0A2.52,2.52,0,0,1,50.8,214.08Z"/><path class="cls-10" d="M169.76,214.08a2.86,2.86,0,1,1-2.86-2.86A2.86,2.86,0,0,1,169.76,214.08Z"/><path class="cls-15" d="M132.79,68.78l-.22,33.56a32.55,32.55,0,0,0,27.08,32.19v24.33l-13.6,9.42S149.56,171,165,171h.09c15.42,0,19.1-2.8,19.1-2.8L170.57,159V134.49a32.55,32.55,0,0,0,26.86-31.73l.22-33.57Z"/><path class="cls-10" d="M84.75,141.37h0a.69.69,0,0,1-.68-.68v-1.55a.69.69,0,0,1,.68-.68h0a.69.69,0,0,1,.69.68v1.55A.69.69,0,0,1,84.75,141.37Z"/><path class="cls-10" d="M104.82,141.37h0a.69.69,0,0,1-.69-.68v-1.55a.69.69,0,0,1,.69-.68h0a.69.69,0,0,1,.68.68v1.55A.69.69,0,0,1,104.82,141.37Z"/><path class="cls-16" d="M101.16,148.43a.93.93,0,0,1-.23,0c-5.6-2.1-9.09-.22-9.13-.2a.64.64,0,0,1-.88-.24.66.66,0,0,1,.25-.89c.16-.09,4-2.21,10.22.11a.66.66,0,0,1,.38.84A.66.66,0,0,1,101.16,148.43Z"/><path class="cls-18" d="M72.27,209.83c2.78.08,7.34-2.79,9.87-4.38l.4-.25a115.43,115.43,0,0,0,11.09-8.08,5.51,5.51,0,1,1,6.93,8.57,126.63,126.63,0,0,1-12.15,8.84l-.39.25c-4,2.49-9.66,6.08-15.65,6.08a14.34,14.34,0,0,1-3-.32,9.86,9.86,0,0,1-6.77-5.06s-3.43-7.6.57-12.74C63.13,202.74,66,212.06,72.27,209.83Zm.11.64h0Z"/><path class="cls-15" d="M72.37,218.38a13.74,13.74,0,0,1-3-.33A9.8,9.8,0,0,1,62.56,213c-3-5.75-.18-13.57,3-21.09.36-.85.69-1.65.86-2.12,3.22-9,7.72-19,16.72-25.43a5.51,5.51,0,0,1,6.4,9C83,178,79.39,186.13,76.75,193.5c-.27.73-.64,1.62-1.06,2.64-2.35,5.64-3.5,9.4-3.42,11.21,2.78.07,7.34-2.79,9.87-4.38l.4-.25a115.43,115.43,0,0,0,11.09-8.08,5.51,5.51,0,1,1,6.93,8.57,126.63,126.63,0,0,1-12.15,8.84l-.39.24C84.06,214.79,78.36,218.38,72.37,218.38Zm0-10.39h0Z"/><path class="cls-10" d="M142.34,224.25l-48.24.41a10.9,10.9,0,0,1-11-10.77h0a10.9,10.9,0,0,1,10.78-11l48.23-.41a10.89,10.89,0,0,1,11,10.77h0A10.89,10.89,0,0,1,142.34,224.25Z"/><rect class="cls-10" x="42.75" y="178.24" width="94.95" height="15.29" rx="7.64"/><path class="cls-10" d="M119.11,198.45h0a4.93,4.93,0,0,1,4.92-4.92H100.17a4.94,4.94,0,0,1,4.93,4.92h0a5,5,0,0,1-4.93,4.93H124A4.94,4.94,0,0,1,119.11,198.45Z"/></g></g></g></svg>