<?xml version="1.0" encoding="utf-8"?>
<!-- Generator: Adobe Illustrator 25.2.3, SVG Export Plug-In . SVG Version: 6.00 Build 0)  -->
<svg version="1.1" id="Layer_1" xmlns="http://www.w3.org/2000/svg" xmlns:xlink="http://www.w3.org/1999/xlink" x="0px" y="0px"
	 viewBox="0 0 235 381.3" style="enable-background:new 0 0 235 381.3;" xml:space="preserve">
<style type="text/css">
	.st0{fill:#F4B155;}
	.st1{fill:#FFF0CC;}
	.st2{fill:#231F20;}
	.st3{clip-path:url(#SVGID_2_);}
	.st4{fill:#A7F1F9;}
	.st5{fill:#789B78;}
	.st6{fill:#79B27B;}
	.st7{fill:#F9FAFB;}
	.st8{fill:#67D8DB;}
	.st9{fill:#E6705F;}
	.st10{fill:#CE6357;}
	.st11{fill:#81EFEF;}
	.st12{fill:none;}
	.st13{fill:#FF8F33;}
	.st14{fill:#FFD351;}
	.st15{fill:#FFA73E;}
	.st16{fill:#3A335F;}
	.st17{fill:#DD4F65;}
	.st18{fill:#F1F2F2;}
	.st19{fill:#414042;}
	.st20{fill:#F5B155;}
	.st21{fill:#E0A35A;}
</style>
<g id="Layer_2_1_">
	<g id="Layer_1-2">
		<path class="st0" d="M235,14.6v352.3c0,8-6.7,14.5-15,14.5H15c-8.3,0-15-6.5-15-14.5V14.6c0-8,6.7-14.4,15-14.4h205
			C228.3,0.1,235,6.6,235,14.6z M222.4,358.5V23c0-6-4.8-10.8-10.8-10.8H23.4c-6,0-10.8,4.9-10.8,10.8v335.5c0,6,4.8,10.8,10.8,10.8
			h188.2C217.6,369.3,222.4,364.4,222.4,358.5L222.4,358.5z"/>
		<path class="st1" d="M23.4,12.2h188.2c6,0,10.8,4.8,10.8,10.8v335.5c0,6-4.8,10.8-10.8,10.8H23.4c-6,0-10.8-4.8-10.8-10.8V23
			C12.6,17,17.4,12.2,23.4,12.2z"/>
		<path class="st2" d="M63.5,335.1c-0.1-0.1-0.2-0.3-0.2-0.5v-9.9h-3.2c-0.2,0-0.4,0-0.5-0.1c-0.1-0.1-0.2-0.3-0.1-0.5v-0.5
			c0-0.2,0-0.4,0.1-0.5c0.1-0.1,0.3-0.2,0.5-0.1h8.7c0.2,0,0.4,0,0.5,0.1c0.1,0.1,0.2,0.3,0.2,0.5v0.5c0,0.2,0,0.4-0.2,0.5
			c-0.1,0.1-0.3,0.2-0.5,0.1h-3.2v9.9c0,0.2,0,0.4-0.2,0.5c-0.1,0.1-0.3,0.2-0.5,0.2h-1C63.8,335.3,63.6,335.2,63.5,335.1z"/>
		<path class="st2" d="M73.3,335.1c-0.1-0.1-0.2-0.2-0.2-0.4l-2.9-11.5c0-0.1,0-0.1,0-0.2c0-0.2,0.1-0.3,0.3-0.3h1.5
			c0.1,0,0.3,0,0.4,0.1c0.1,0.1,0.1,0.2,0.2,0.3l1.8,8l2.2-7c0-0.1,0.1-0.2,0.2-0.3c0.1-0.1,0.2-0.1,0.3-0.1H78c0.1,0,0.2,0,0.3,0.1
			c0.1,0.1,0.1,0.2,0.2,0.3l2.2,7l1.8-8c0-0.1,0.1-0.2,0.2-0.3c0.1-0.1,0.2-0.1,0.4-0.1h1.5c0.2,0,0.3,0.1,0.3,0.3
			c0,0.1,0,0.1,0,0.2L82,334.8c0,0.1-0.1,0.3-0.2,0.4c-0.1,0.1-0.3,0.1-0.4,0.1h-1c-0.1,0-0.3,0-0.4-0.1c-0.1-0.1-0.2-0.2-0.2-0.4
			l-2.2-7.3l-2.2,7.3c0,0.1-0.1,0.3-0.2,0.4c-0.1,0.1-0.3,0.1-0.4,0.1h-1C73.6,335.3,73.5,335.2,73.3,335.1z"/>
		<path class="st2" d="M86.7,333.8c-2.1-2.8-2.1-6.7,0-9.5c2.7-2.2,6.5-2.2,9.2,0c2.2,2.8,2.2,6.7,0,9.5
			C93.2,336.1,89.3,336.1,86.7,333.8z M94.2,332.6c1.3-2.2,1.3-4.9,0-7c-1.6-1.6-4.2-1.6-5.8,0c-1.3,2.2-1.3,4.9,0,7
			C90,334.2,92.6,334.2,94.2,332.6C94.2,332.6,94.2,332.6,94.2,332.6z"/>
		<path class="st2" d="M107.6,333.8c-2.1-2.8-2.1-6.7,0-9.5c2.7-2.2,6.5-2.2,9.2,0c2.1,2.8,2.1,6.7,0,9.5
			C114.1,336.1,110.2,336.1,107.6,333.8z M115.1,332.6c1.3-2.2,1.3-4.9,0-7c-1.6-1.6-4.2-1.6-5.8,0c-1.3,2.2-1.3,4.9,0,7
			C110.9,334.2,113.5,334.2,115.1,332.6C115.1,332.6,115.1,332.6,115.1,332.6z"/>
		<path class="st2" d="M120.3,335.1c-0.1-0.1-0.2-0.3-0.2-0.5v-11c0-0.2,0-0.4,0.2-0.5c0.1-0.1,0.3-0.2,0.5-0.2h7.6
			c0.2,0,0.4,0,0.5,0.1c0.1,0.1,0.2,0.3,0.1,0.5v0.5c0,0.2,0,0.4-0.1,0.5c-0.1,0.1-0.3,0.2-0.5,0.2h-5.9v3.5h4.3
			c0.2,0,0.4,0,0.5,0.1c0.1,0.1,0.2,0.3,0.1,0.5v0.5c0.1,0.3-0.1,0.6-0.4,0.6c-0.1,0-0.1,0-0.2,0h-4.3v4.6c0,0.3-0.2,0.6-0.5,0.7
			c-0.1,0-0.1,0-0.2,0h-1C120.6,335.3,120.5,335.3,120.3,335.1z"/>
		<path class="st2" d="M139.1,333.7c-2.8-2.6-3-7-0.4-9.9c1.4-1.5,3.4-2.4,5.5-2.2c0.8,0,1.7,0.1,2.5,0.3c0.7,0.1,1.3,0.4,1.9,0.8
			c0.1,0.1,0.2,0.2,0.2,0.3c0,0.1,0,0.2-0.1,0.3l-0.6,1c-0.1,0.1-0.1,0.2-0.2,0.2c-0.1,0-0.2,0-0.3-0.1c-1-0.5-2.1-0.8-3.2-0.7
			c-1.3-0.1-2.5,0.4-3.5,1.3c-0.9,1.1-1.4,2.4-1.2,3.8c-0.1,1.4,0.4,2.8,1.3,3.9c0.9,0.9,2.2,1.3,3.5,1.3c1.2,0,2.3-0.2,3.4-0.8
			c0.1,0,0.2-0.1,0.2-0.1c0.1,0,0.2,0.1,0.2,0.2l0.6,1c0,0.1,0.1,0.1,0.1,0.2c0,0.1-0.1,0.2-0.2,0.3c-1.4,0.8-3,1.2-4.6,1.1
			C142.3,335.7,140.5,335,139.1,333.7z"/>
		<path class="st2" d="M153.7,335c-1.8-0.7-2.9-2.5-2.9-4.4v-7.9c-0.1-0.3,0.2-0.7,0.5-0.7c0.1,0,0.2,0,0.2,0h1c0.2,0,0.4,0,0.6,0.2
			c0.1,0.2,0.2,0.3,0.2,0.5v8c-0.1,0.9,0.3,1.7,0.9,2.3c1.5,1.1,3.6,1.1,5.1,0c0.6-0.6,1-1.4,0.9-2.3v-8c0-0.2,0-0.4,0.2-0.5
			c0.2-0.1,0.4-0.2,0.6-0.2h1c0.5,0,0.8,0.2,0.8,0.7v7.9c0,0.9-0.2,1.9-0.8,2.7c-0.5,0.8-1.3,1.4-2.1,1.7
			C157.8,335.7,155.6,335.7,153.7,335L153.7,335z"/>
		<path class="st2" d="M165.1,335.1c-0.1-0.2-0.2-0.3-0.2-0.5v-12c-0.1-0.3,0.1-0.7,0.5-0.7c0.1,0,0.2,0,0.2,0h5
			c1.3-0.1,2.6,0.3,3.6,1.1c1.6,1.9,1.6,4.6,0,6.5c-1,0.8-2.3,1.2-3.6,1.1h-3.2v3.8c0,0.2,0,0.4-0.2,0.5c-0.2,0.1-0.4,0.2-0.6,0.2
			h-1C165.5,335.3,165.3,335.3,165.1,335.1z M170.6,328.9c0.7,0.1,1.3-0.2,1.8-0.6c0.4-0.5,0.6-1.2,0.6-1.9c0.1-0.7-0.2-1.4-0.6-1.9
			c-0.5-0.4-1.1-0.7-1.8-0.6h-3.1v5L170.6,328.9z"/>
		<g>
			<defs>
				<path id="SVGID_1_" d="M53,44.2h129c13.7,0,24.8,11.1,24.8,24.8v192.3c0,13.7-11.1,24.8-24.8,24.8H53
					c-13.7,0-24.8-11.1-24.8-24.8V69C28.2,55.3,39.3,44.2,53,44.2z"/>
			</defs>
			<clipPath id="SVGID_2_">
				<use xlink:href="#SVGID_1_"  style="overflow:visible;"/>
			</clipPath>
			<g class="st3">
				<polygon class="st4" points="210.6,-2.7 26.6,-2.7 26.6,195.3 26.6,218.3 26.6,326.8 210.5,326.8 210.5,218.3 210.6,218.3 				
					"/>
				<rect x="51.8" y="190.7" class="st5" width="110.8" height="21"/>
				<path class="st6" d="M25.4,187.2c0,0,31.6-17.3,33.6-17.3s56.1,30.5,56.1,30.5l46.8-30.5l44.9,25.6l-43.2,12H26.5L25.4,187.2z"
					/>
				<circle class="st7" cx="29.8" cy="177.1" r="29.8"/>
				<circle class="st7" cx="176.5" cy="192.5" r="29.8"/>
				<circle class="st7" cx="206.8" cy="173.3" r="29.8"/>
				<circle class="st7" cx="59.3" cy="200.7" r="29.8"/>
				<rect x="16.5" y="199.8" class="st8" width="201.4" height="126.9"/>
				<path class="st9" d="M110.6,286.1c0,0,3.5-17.1,6.9-20.6s16.2-34.8,16.2-34.8s33.9-6.2,37-6.2s36,7.1,36,7.1v57.5l-97.6,1.3
					L110.6,286.1z"/>
				<path class="st10" d="M158.2,261.1l-29.4,4.7c-1.5,0.2-2.9-0.8-3.2-2.3l0,0c-0.2-1.5,0.8-2.9,2.3-3.2l29.4-4.7
					c1.5-0.2,2.9,0.8,3.2,2.3l0,0C160.7,259.4,159.7,260.8,158.2,261.1z"/>
				<path class="st11" d="M149.4,208.1h46.2c1.9,0,3.4,1.5,3.4,3.4v0c0,1.9-1.5,3.4-3.4,3.4h-46.2c-1.9,0-3.4-1.5-3.4-3.4v0
					C146,209.6,147.5,208.1,149.4,208.1z"/>
				<polygon class="st12" points="209.8,-2.5 25.8,-2.5 25.8,195.5 25.8,218.4 25.8,326.9 209.7,326.9 209.7,218.4 209.8,218.4 				
					"/>
				<path class="st13" d="M86.6,160.4c-1.6,0-3.2-0.1-4.8-0.3c-1.7-0.3-2.8-1.9-2.5-3.6c0.3-1.6,1.7-2.6,3.3-2.5
					c6.8,0.9,12.1-0.4,15.9-3.7c6.8-6.1,6.7-17,6.7-17.1c0.1-1.7,1.5-3,3.2-3c1.6,0.1,2.8,1.3,2.9,2.9c0,0.6,0.1,13.9-8.8,21.8
					C98.4,158.5,93,160.4,86.6,160.4z"/>
				<path class="st14" d="M116.2,120.2v-9.7c0,0,0-0.1,0-0.1c0.2-0.9,2.4-11.5,11.6-15.5c13.2-5.8,20,4.8,34.2-3.8
					c0.3-0.2,0.7-0.1,0.8,0.2c0.1,0.2,0.1,0.4,0,0.5c-1.5,3.9-4,7.3-7.4,9.7c-0.3,0.2-0.4,0.6-0.2,0.8c0.1,0.2,0.4,0.3,0.7,0.2
					c1.8-0.5,3.6-1.3,5.1-2.4c0.3-0.2,0.7-0.1,0.9,0.1c0.1,0.2,0.2,0.4,0.1,0.6c-1.2,3.1-4.6,9-14.1,11c-0.3,0.1-0.5,0.4-0.5,0.7
					c0,0.2,0.2,0.4,0.5,0.5c2.5,0.5,5.1,0.6,7.6,0.4c0.3,0,0.6,0.2,0.6,0.6c0,0.2,0,0.3-0.1,0.4c-2,2.2-7.2,6.4-17,5.7
					c-0.3,0-0.6,0.2-0.7,0.5c0,0.3,0.1,0.5,0.4,0.6c3.4,1.4,7.1,2,10.8,1.6c0.3-0.1,0.7,0.1,0.8,0.4c0.1,0.3-0.1,0.7-0.4,0.8
					c-6.2,3.2-21.5,8.9-33.7-3.4C116.2,120.6,116.2,120.4,116.2,120.2z"/>
				<path class="st14" d="M99.7,120.2v-9.7c0,0,0-0.1,0-0.1C99.6,109.6,97.4,99,88.1,95c-13.2-5.8-20,4.8-34.2-3.8
					c-0.3-0.2-0.7-0.1-0.8,0.2c-0.1,0.2-0.1,0.3,0,0.5c1.5,3.9,4.1,7.3,7.4,9.8c0.2,0.2,0.2,0.6,0,0.8c-0.1,0.1-0.3,0.2-0.5,0.2
					c-1.9-0.5-3.7-1.4-5.2-2.5c-0.3-0.2-0.6-0.1-0.8,0.1c-0.1,0.2-0.2,0.4-0.1,0.6c1.2,3.1,4.5,9,14.1,11c0.3,0.1,0.5,0.4,0.5,0.7
					c0,0.2-0.2,0.4-0.5,0.5c-2.5,0.5-5.1,0.6-7.7,0.4c-0.3,0-0.6,0.2-0.7,0.5c0,0.2,0,0.4,0.2,0.5c2,2.2,7.3,6.4,17.1,5.7
					c0.3,0,0.6,0.2,0.6,0.6c0,0.2-0.1,0.5-0.3,0.6c-3.4,1.4-7.2,2-10.9,1.6c-0.3,0-0.6,0.2-0.7,0.5c0,0.3,0.1,0.5,0.3,0.6
					c6.2,3.2,21.5,9,33.7-3.4C99.7,120.5,99.7,120.4,99.7,120.2z"/>
				<path class="st15" d="M93.3,169.8c-1.7,0-3.3-0.1-5-0.3c-2.2-0.3-3.7-2.2-3.4-4.4c0.3-2.2,2.2-3.7,4.4-3.4
					c6.5,0.9,11.6-0.3,15.2-3.5c6.5-5.7,6.5-16.4,6.5-16.5c0.1-2.2,1.9-3.9,4.1-3.8c2,0.1,3.7,1.7,3.8,3.7c0,0.6,0.1,14.3-9.1,22.5
					C105.5,167.9,100,169.8,93.3,169.8z"/>
				<path class="st14" d="M99.4,85.5c0,2.1-1.7,3.9-3.9,3.9s-3.9-1.7-3.9-3.9s1.7-3.9,3.9-3.9S99.4,83.4,99.4,85.5L99.4,85.5z"/>
				<path class="st14" d="M99.2,78.4c0,2.3-1.9,4.2-4.2,4.2s-4.2-1.9-4.2-4.2c0-2.3,1.9-4.2,4.2-4.2C97.4,74.2,99.2,76.1,99.2,78.4
					L99.2,78.4z"/>
				<path class="st9" d="M103.7,73.3c0,2.3-1.9,4.2-4.2,4.2s-4.2-1.9-4.2-4.2s1.9-4.2,4.2-4.2S103.7,70.9,103.7,73.3L103.7,73.3z"/>
				<path class="st14" d="M117.4,78.4c0,2.3,1.9,4.2,4.2,4.2s4.2-1.9,4.2-4.2c0-2.3-1.9-4.2-4.2-4.2l0,0
					C119.3,74.2,117.4,76.1,117.4,78.4z"/>
				<path class="st9" d="M113,73.3c0,2.3,1.9,4.2,4.2,4.2s4.2-1.9,4.2-4.2s-1.9-4.2-4.2-4.2S113,70.9,113,73.3L113,73.3z"/>
				<path class="st14" d="M117.2,85.5c0,2.1,1.7,3.9,3.9,3.9s3.9-1.7,3.9-3.9s-1.7-3.9-3.9-3.9c0,0,0,0,0,0
					C119,81.6,117.2,83.4,117.2,85.5L117.2,85.5z"/>
				<path class="st15" d="M124.7,90.3c0,1.7-1.3,3-3,3s-3-1.3-3-3s1.3-3,3-3S124.7,88.6,124.7,90.3z"/>
				<path class="st13" d="M123.6,90.3c0,1.1-0.9,1.9-2,1.9s-1.9-0.9-1.9-2c0-1,0.9-1.9,1.9-1.9c1.1,0,2,0.8,2,1.9
					C123.6,90.2,123.6,90.3,123.6,90.3z"/>
				<path class="st15" d="M108.1,108.1L108.1,108.1c-1.2,0-2.1-1-2.1-2.1v-3.8c0-1.2,0.9-2.1,2.1-2.1c0,0,0,0,0,0l0,0
					c1.2,0,2.1,0.9,2.1,2.1c0,0,0,0,0,0v3.8C110.2,107.1,109.3,108.1,108.1,108.1z"/>
				<path class="st13" d="M108.1,71.4L108.1,71.4c7.5,0,13.5,6,13.5,13.5v5.6c0,7.5-6,13.5-13.5,13.5h0c-7.5,0-13.5-6-13.5-13.5
					v-5.6C94.6,77.4,100.7,71.4,108.1,71.4z"/>
				<path class="st15" d="M120.9,79.9c-1.9-5.5-7-9.2-12.8-9.2l0,0c-6.1,0-11.4,4.1-13,9.9c-0.3,1.2-0.5,2.4-0.5,3.6v5.7
					c0,7.4,6,13.5,13.5,13.5l0,0c7.4,0,13.5-6,13.5-13.5v-5.7C121.6,82.7,121.4,81.2,120.9,79.9z"/>
				<path class="st15" d="M128.3,121.8c-0.9,0-1.8-0.1-2.6-0.2c-8.6-1.5-12.9-10-13.1-10.3c-0.7-1.6,0-3.4,1.6-4.1
					c1.5-0.6,3.2-0.1,3.9,1.3c0.1,0.1,3.2,6.1,8.7,7c4,0.7,8.6-1.4,13.6-6.2c1.2-1.2,3.2-1.1,4.3,0.1c1.2,1.2,1.1,3.2-0.1,4.3
					C139,119.1,133.6,121.8,128.3,121.8z"/>
				<path class="st13" d="M110.2,93.9h-1.1c0.1-0.6,0.6-1.1,1.2-1c0.5,0.1,0.9,0.5,1,1H110.2z"/>
				<path class="st16" d="M115.9,94.6L115.9,94.6c-0.8,0-1.5-0.6-1.5-1.4c0,0,0,0,0,0v-2.7c0-0.8,0.6-1.5,1.4-1.5l0,0
					c0.8,0,1.5,0.7,1.4,1.5v2.7C117.3,93.9,116.7,94.6,115.9,94.6C115.9,94.6,115.9,94.6,115.9,94.6z"/>
				<path class="st16" d="M105.4,94.6L105.4,94.6c-0.8,0-1.4-0.7-1.4-1.5v-2.7c0-0.8,0.6-1.5,1.4-1.5l0,0c0.8,0,1.5,0.7,1.4,1.5v2.7
					C106.9,93.9,106.3,94.6,105.4,94.6C105.4,94.6,105.4,94.6,105.4,94.6z"/>
				<path class="st14" d="M113.5,83.5l5.4,1.6c0.5,0.1,0.8,0.7,0.6,1.1l0,0.1c-0.1,0.5-0.7,0.8-1.1,0.6l-5.4-1.6
					c-0.5-0.1-0.8-0.7-0.6-1.1l0-0.1C112.5,83.6,113,83.4,113.5,83.5z"/>
				<path class="st14" d="M106.3,85.2l-5.4,1.6c-0.5,0.1-1-0.1-1.1-0.6l0-0.1c-0.1-0.5,0.1-1,0.6-1.1l5.4-1.6c0.5-0.1,1,0.1,1.1,0.6
					l0,0.1C107.1,84.5,106.8,85,106.3,85.2z"/>
				<path class="st17" d="M108.6,96.2c0,1,0.8,1.9,1.9,1.9c1,0,1.9-0.8,1.9-1.9c0,0,0,0,0,0H108.6z"/>
				<path class="st14" d="M114.2,71.4c0,3.4-2.7,6.1-6.1,6.1c-3.4,0-6.1-2.7-6.1-6.1c0-3.4,2.7-6.1,6.1-6.1
					C111.4,65.3,114.1,68,114.2,71.4C114.1,71.4,114.2,71.4,114.2,71.4z"/>
				<path class="st14" d="M99.5,68.6h17.2c2.6,0,4.7,2.1,4.7,4.7l0,0c0,2.6-2.1,4.7-4.7,4.7H99.5c-2.6,0-4.7-2.1-4.7-4.7l0,0
					C94.8,70.7,96.9,68.6,99.5,68.6z"/>
				<path class="st14" d="M101.4,77.6c0,2.1-1.7,3.8-3.8,3.8c-2.1,0-3.8-1.7-3.8-3.8s1.7-3.8,3.8-3.8c0,0,0,0,0,0
					C99.7,73.7,101.4,75.5,101.4,77.6z"/>
				<path class="st14" d="M108.8,77.6c0,2.1-1.7,3.8-3.8,3.8c-2.1,0-3.8-1.7-3.8-3.8c0-2.1,1.7-3.8,3.8-3.8c0,0,0,0,0,0
					C107.1,73.8,108.8,75.5,108.8,77.6z"/>
				<path class="st14" d="M115.8,77.6c0,2.1-1.7,3.8-3.8,3.8c-2.1,0-3.8-1.7-3.8-3.8s1.7-3.8,3.8-3.8c0,0,0,0,0,0
					C114,73.7,115.7,75.5,115.8,77.6z"/>
				<path class="st14" d="M122.4,77.6c0,2.1-1.7,3.8-3.8,3.8s-3.8-1.7-3.8-3.8c0-2.1,1.7-3.8,3.8-3.8c0,0,0,0,0,0
					C120.7,73.8,122.4,75.5,122.4,77.6z"/>
				<path class="st15" d="M97.3,89.2c0,1.7-1.3,3-3,3s-3-1.3-3-3s1.3-3,3-3S97.3,87.5,97.3,89.2z"/>
				<path class="st13" d="M96.3,89.2c0,1.1-0.9,1.9-2,1.9s-1.9-0.9-1.9-2c0-1.1,0.9-1.9,2-1.9C95.4,87.2,96.3,88.1,96.3,89.2
					C96.3,89.1,96.3,89.2,96.3,89.2z"/>
				<rect x="142.2" y="101.9" class="st16" width="1.8" height="21"/>
				<polygon class="st18" points="143.1,95.9 139.5,102.2 146.7,102.2 				"/>
				<path class="st17" d="M145.6,127.3v-3.2c0-0.2-0.1-0.4-0.2-0.6l-2.1-2c-0.1-0.1-0.3-0.1-0.4,0c0,0,0,0,0,0l-2.1,2
					c-0.1,0.2-0.2,0.4-0.2,0.6v3.2c0,0.5,0.4,0.8,0.6,0.6l1.7-1.7c0.1-0.1,0.3-0.1,0.4,0c0,0,0,0,0,0l1.7,1.7
					C145.3,128.1,145.6,127.8,145.6,127.3z"/>
				<path class="st15" d="M141.7,110.6h-1.2c-0.5,0-0.9-0.4-0.9-0.9l0,0c0-0.5,0.4-0.9,0.9-0.9h1.2c0.5,0,0.9,0.4,0.9,0.9l0,0
					C142.6,110.2,142.2,110.6,141.7,110.6z"/>
				<path class="st13" d="M76.3,129.9c-1.7-0.1-3-1.6-2.9-3.3c0.1-1.6,1.3-2.8,2.9-2.9c7.9,0,13.7-2.3,17.3-7c1.5-1.9,2.6-4.2,3-6.6
					c0.1-1.7,1.6-3,3.3-2.8c1.7,0.1,3,1.6,2.8,3.3c0,0.1,0,0.2,0,0.3c-0.6,3.5-2.1,6.8-4.3,9.7C95.2,124.8,88.7,129.9,76.3,129.9z"
					/>
				<path class="st15" d="M121.8,118.1c0-7.4-6-13.4-13.4-13.4l0,0l0,0c-7.4,0-13.4,6-13.4,13.4l0,0v21.5h26.7V118.1z"/>
				<path class="st18" d="M108.4,153.7L108.4,153.7c7.4,0,13.4-6,13.4-13.4l0,0V130l-26.7,9.7v0.7
					C95.1,147.7,101.1,153.7,108.4,153.7z"/>
				<path class="st14" d="M69.6,110.8v7c0,3.3,2.4,6.1,5.6,6.7v5.1l-2.8,2c0,0,0.7,0.6,3.9,0.6l0,0c3.2,0,4-0.6,4-0.6l-2.8-1.9v-5.1
					c3.2-0.6,5.6-3.3,5.6-6.6v-7L69.6,110.8z"/>
				<path class="st15" d="M73.9,129.7L73.9,129.7c-0.6,0-1.1-0.5-1.1-1.1V124c0-0.6,0.5-1.1,1.1-1.1l0,0c0.6,0,1.1,0.5,1.1,1.1v4.6
					C75,129.2,74.5,129.7,73.9,129.7z"/>
				<path class="st15" d="M77.9,126.3h-1.2c-0.5,0-0.9-0.4-0.9-0.9l0,0c0-0.5,0.4-0.9,0.9-0.9h1.2c0.5,0,0.9,0.4,0.9,0.9l0,0
					C78.9,125.9,78.5,126.3,77.9,126.3L77.9,126.3z"/>
				<path class="st11" d="M97,219.9H44c-1.8,0-3.2-1.4-3.2-3.2l0,0c0-1.8,1.4-3.2,3.2-3.2h53c1.8,0,3.2,1.4,3.2,3.2l0,0
					C100.2,218.4,98.8,219.8,97,219.9z"/>
				<path class="st11" d="M65.8,245.8H44c-1.8,0-3.2-1.4-3.2-3.2l0,0c0-1.8,1.4-3.2,3.2-3.2h21.8c1.8,0,3.2,1.4,3.2,3.2c0,0,0,0,0,0
					l0,0C69,244.4,67.6,245.8,65.8,245.8C65.8,245.8,65.8,245.8,65.8,245.8z"/>
				<path class="st11" d="M116.6,237.3H89.9c-1.7,0-3.2-1.4-3.2-3.1l0,0c0-1.8,1.4-3.2,3.2-3.2h26.7c1.8,0,3.2,1.4,3.2,3.2l0,0l0,0
					C119.7,235.9,118.3,237.3,116.6,237.3z"/>
				<path class="st11" d="M100.9,274.6H64.8c-1.8,0-3.2-1.4-3.2-3.2l0,0c0-1.8,1.4-3.2,3.2-3.2h36.1c1.8,0,3.2,1.4,3.2,3.2l0,0
					C104.1,273.1,102.7,274.6,100.9,274.6z"/>
				<path class="st11" d="M107,257.9H83c-1.8,0-3.2-1.4-3.2-3.2l0,0c0-1.8,1.4-3.2,3.2-3.2h24c1.8,0,3.2,1.4,3.2,3.2l0,0
					C110.2,256.5,108.8,257.9,107,257.9z"/>
				<polygon class="st10" points="109,286 124.2,280.1 155.5,280.1 183.7,270.6 197.6,245.1 195.1,229.1 209,232.1 209.7,284.6 
					123.6,290.2 				"/>
				<path class="st18" d="M48.3,70.3h16.3c1.2,0,2.2,1,2.2,2.2v0.1c0,1.2-1,2.2-2.2,2.2H48.3c-1.2,0-2.2-1-2.2-2.2v-0.1
					C46.1,71.3,47.1,70.3,48.3,70.3z"/>
				<path class="st18" d="M57.9,78.6H41c-1.2,0-2.1-1-2.1-2.1l0,0c0-1.2,1-2.1,2.1-2.1h16.9c1.2,0,2.1,1,2.1,2.1l0,0
					C60,77.6,59.1,78.6,57.9,78.6z"/>
				<path class="st18" d="M160,62.1h29.9c1.6,0,2.9,1.3,2.9,2.8v0.1c0,1.6-1.3,2.8-2.9,2.8H160c-1.6,0-2.9-1.3-2.9-2.8v-0.1
					C157.2,63.4,158.4,62.1,160,62.1z"/>
				<path class="st18" d="M178.2,72.6h-30.6c-1.5,0-2.7-1.2-2.7-2.7l0,0c0-1.5,1.2-2.7,2.7-2.7h30.6c1.5,0,2.7,1.2,2.7,2.7l0,0
					C180.9,71.4,179.7,72.6,178.2,72.6z"/>
				<path class="st19" d="M146.4,202.9H137c-4.8,0-8.6-3.9-8.6-8.6v-22.9c0-4.8,3.9-8.6,8.6-8.6h9.4c4.8,0,8.6,3.9,8.6,8.6v22.9
					C155,199.1,151.1,202.9,146.4,202.9z"/>
				<path class="st14" d="M143.7,190.4L143.7,190.4c-1.2,0-2.1-0.9-2.1-2v-3.7c0-1.1,0.9-2,2-2h0.1c1.1,0,2,0.9,2,2v3.7
					C145.8,189.5,144.9,190.4,143.7,190.4z"/>
				<path class="st14" d="M151,174.7c0,1.3,1,2.3,2.3,2.3s2.3-1,2.3-2.3c0-1.3-1-2.3-2.3-2.3l0,0C152,172.5,151,173.5,151,174.7z"/>
				<circle class="st20" cx="153.3" cy="174.8" r="1.5"/>
				<path class="st20" d="M143.8,185.2L143.8,185.2c-5.6,0-10.2-4.6-10.2-10.2v-4.3c0-5.6,4.6-10.2,10.2-10.2l0,0
					c5.6,0,10.2,4.6,10.2,10.2v4.3C154,180.6,149.4,185.2,143.8,185.2z"/>
				<path class="st14" d="M143.8,184.6L143.8,184.6c-5.6,0-10.2-4.6-10.2-10.2v-4.3c0-5.6,4.6-10.2,10.2-10.2l0,0
					c5.6,0,10.2,4.6,10.2,10.2v4.3C154,180.1,149.4,184.6,143.8,184.6z"/>
				<path class="st19" d="M151.9,168.5h-20.3c-3.4,0-6.1-2.7-6.1-6.1v-0.2c0-3.4,2.7-6.1,6.1-6.1h20.3c3.4,0,6.1,2.7,6.1,6.1v0.2
					C158,165.7,155.2,168.5,151.9,168.5z"/>
				<path class="st14" d="M143.6,234.5h-0.3c-7,0-12.7-5.7-12.7-12.7V200c0-7,5.7-12.7,12.7-12.7h0.3c7,0,12.7,5.7,12.7,12.7v21.8
					C156.3,228.8,150.6,234.5,143.6,234.5z"/>
				<path class="st16" d="M142.5,176.9L142.5,176.9c-0.7,0-1.3-0.6-1.3-1.3v-2.4c0-0.7,0.6-1.3,1.3-1.3h0c0.7,0,1.3,0.6,1.3,1.3v2.4
					C143.8,176.3,143.2,176.9,142.5,176.9z"/>
				<path class="st16" d="M149.8,176.9L149.8,176.9c-0.7,0-1.3-0.6-1.3-1.3v-2.4c0-0.7,0.6-1.3,1.3-1.3h0c0.7,0,1.3,0.6,1.3,1.3v2.4
					C151.1,176.3,150.5,176.9,149.8,176.9z"/>
				<path class="st20" d="M146.4,176.4h0.8c0-0.4-0.3-0.8-0.8-0.8c-0.4,0-0.8,0.3-0.8,0.8H146.4z"/>
				<path class="st19" d="M144.4,171.2h-3.9c-0.4,0-0.7-0.3-0.7-0.7v0c0-0.4,0.3-0.7,0.7-0.7h3.9c0.4,0,0.7,0.3,0.7,0.7v0
					C145.1,170.9,144.8,171.2,144.4,171.2z"/>
				<path class="st19" d="M152.2,171.2h-3.9c-0.4,0-0.7-0.3-0.7-0.7v0c0-0.4,0.3-0.7,0.7-0.7h3.9c0.4,0,0.7,0.3,0.7,0.7v0
					C152.9,170.9,152.6,171.2,152.2,171.2z"/>
				<path class="st7" d="M137.6,188.6c0.6-0.3,1.2-0.5,1.8-0.7c0.8,1,2.6,3.9,4.2,6.3c0.7,1.1,2.2,1.3,3.2,0.6
					c0.1-0.1,0.2-0.1,0.2-0.2l3.6-3.2c0.8-0.7,0.5-1,0.1-1.8c3.4,2.4,6.1,5.6,6.1,10.1v57.9l-28.7,4.6l1.7-62.5
					C129.9,194.6,133.5,190.9,137.6,188.6z"/>
				<rect x="132.8" y="166.5" class="st19" width="3.1" height="7.9"/>
				<path class="st14" d="M131.4,174.8c0,1.3,1,2.3,2.3,2.3s2.3-1,2.3-2.3c0-1.3-1-2.3-2.3-2.3l0,0
					C132.4,172.5,131.4,173.6,131.4,174.8z"/>
				<path class="st20" d="M132.2,174.8c0,0.8,0.7,1.5,1.5,1.5s1.5-0.7,1.5-1.5s-0.7-1.5-1.5-1.5S132.2,174,132.2,174.8L132.2,174.8z
					"/>
				<path class="st20" d="M158,211.3l-29,4.3c-1.6,0.2-3.1-0.9-3.3-2.4l0,0c-0.2-1.6,0.9-3.1,2.4-3.3l29-4.3
					c1.6-0.2,3.1,0.9,3.3,2.4l0,0C160.7,209.6,159.6,211.1,158,211.3z"/>
				<path class="st21" d="M128.5,216c-1.8,0-3.2-1.4-3.3-3.2c0-1.6,1.2-3,2.8-3.2l29-4.3c1.8-0.3,3.4,0.9,3.7,2.7
					c0.3,1.8-0.9,3.4-2.7,3.7l0,0l-29,4.3C128.8,216,128.7,216,128.5,216z M157.6,205.9h-0.4l-29,4.3c-1.4,0.3-2.3,1.6-2.1,3
					c0.2,1.3,1.5,2.3,2.8,2.1l29-4.3v0.3V211c1.4-0.2,2.4-1.5,2.2-2.9C159.9,206.8,158.8,205.8,157.6,205.9L157.6,205.9z"/>
				<path class="st20" d="M157.5,217.2l-29,4.3c-1.6,0.2-3.1-0.9-3.3-2.4c0,0,0,0,0,0l0,0c-0.2-1.6,0.9-3.1,2.4-3.3l29.1-4.3
					c1.6-0.2,3.1,0.9,3.3,2.4l0,0C160.2,215.5,159.1,217,157.5,217.2C157.5,217.2,157.5,217.2,157.5,217.2z"/>
				<path class="st21" d="M128.1,221.9c-1.8,0-3.2-1.4-3.3-3.2c0-1.6,1.2-3,2.8-3.2l29.1-4.4c1.8-0.3,3.4,0.9,3.7,2.7
					c0.3,1.8-0.9,3.4-2.7,3.7l-29,4.3C128.4,221.9,128.3,221.9,128.1,221.9z M157.1,211.8c-0.1,0-0.3,0-0.4,0l-29,4.3
					c-1.4,0.2-2.4,1.5-2.2,2.9s1.5,2.4,2.9,2.2l0,0l29.1-4.3v0.3v-0.3c1.4-0.2,2.4-1.5,2.2-2.9c-0.1-0.7-0.5-1.3-1-1.7
					C158.2,211.9,157.7,211.7,157.1,211.8z"/>
				<path class="st20" d="M157.3,223.1l-29,4.3c-1.6,0.2-3.1-0.9-3.3-2.4c0,0,0,0,0,0l0,0c-0.2-1.6,0.9-3.1,2.4-3.3c0,0,0,0,0,0
					l29-4.3c1.6-0.2,3.1,0.9,3.3,2.4l0,0C160,221.4,158.9,222.9,157.3,223.1z"/>
				<path class="st21" d="M127.9,227.8c-1.8,0-3.2-1.5-3.2-3.3c0-1.6,1.2-2.9,2.7-3.2l29-4.3c0.8-0.1,1.7,0.1,2.4,0.6
					c0.7,0.5,1.2,1.3,1.3,2.1c0.3,1.8-1,3.4-2.7,3.7l-29,4.3C128.2,227.8,128,227.8,127.9,227.8z M156.9,217.6c-0.1,0-0.3,0-0.4,0
					l-29,4.3c-1.4,0.2-2.4,1.5-2.2,2.9c0.2,1.4,1.5,2.4,2.9,2.2l29-4.3v0.3v-0.3c1.4-0.2,2.4-1.5,2.2-2.9c-0.1-0.7-0.5-1.3-1-1.7
					C158,217.8,157.5,217.6,156.9,217.6z"/>
			</g>
		</g>
		<path class="st10" d="M183.9,257.4h-13.8c-0.7,0-1.2-0.6-1.2-1.2l0,0c0-0.7,0.5-1.2,1.2-1.2c0,0,0,0,0,0h13.8
			c0.7,0,1.2,0.6,1.2,1.2l0,0l0,0C185.1,256.9,184.6,257.4,183.9,257.4z"/>
		<path class="st14" d="M169.3,231.2v8.2c0,3.9,2.8,7.2,6.6,7.9v5.9l-3.3,2.3c0,0,0.9,0.7,4.6,0.7l0,0c3.8,0,4.7-0.7,4.7-0.7
			l-3.3-2.3v-6c3.8-0.7,6.5-3.9,6.6-7.7l0.1-8.2L169.3,231.2z"/>
		<path class="st20" d="M148.3,178.7h-4.7c-0.2,0-0.4-0.2-0.3-0.4c0-0.2,0.2-0.3,0.3-0.3h4.7c0.2,0,0.4,0.1,0.4,0.3
			c0,0.2-0.1,0.4-0.3,0.4C148.4,178.7,148.3,178.7,148.3,178.7z"/>
	</g>
</g>
</svg>
