<?xml version="1.0" encoding="utf-8"?>
<!-- Generator: Adobe Illustrator 25.2.3, SVG Export Plug-In . SVG Version: 6.00 Build 0)  -->
<svg version="1.1" id="Layer_1" xmlns="http://www.w3.org/2000/svg" xmlns:xlink="http://www.w3.org/1999/xlink" x="0px" y="0px"
	 viewBox="0 0 235 381.2" style="enable-background:new 0 0 235 381.2;" xml:space="preserve">
<style type="text/css">
	.st0{fill:#F4B155;}
	.st1{fill:#FFF0CC;}
	.st2{fill:#231F20;}
	.st3{clip-path:url(#SVGID_2_);}
	.st4{fill:#323647;}
	.st5{fill:#F9FAFB;}
	.st6{fill:#3D7C89;}
	.st7{fill:#4C9BA5;}
	.st8{fill:none;}
	.st9{fill:#E6705F;}
	.st10{fill:#CE6357;}
	.st11{fill:#FF8F33;}
	.st12{fill:#FFA73E;}
	.st13{fill:#FFD351;}
	.st14{fill:#3A335F;}
	.st15{fill:#DD4F65;}
	.st16{fill:#F1F2F2;}
	.st17{fill:#F5B155;}
	.st18{fill:#4A355B;}
	.st19{fill:#FFD150;}
	.st20{fill:#414042;}
	.st21{fill:#F2C351;}
	.st22{fill:#F4B055;}
	.st23{fill:#CDD06F;}
	.st24{fill:#74C7A7;}
	.st25{fill:#E6E7E8;}
	.st26{fill:#FFBD52;}
	.st27{fill:#385968;}
	.st28{fill:#4998C9;}
	.st29{fill:#A7E545;}
	.st30{fill:#48C2CA;}
</style>
<g id="Layer_2_1_">
	<g id="Layer_1-2">
		<path class="st0" d="M235,14.4v352.3c0,8-6.7,14.5-15,14.5H15c-8.3,0-15-6.5-15-14.5V14.4C0,6.5,6.7,0,15,0h205
			C228.3,0,235,6.5,235,14.4z M222.4,358.3V22.8c0-6-4.8-10.8-10.8-10.8H23.4c-6,0-10.8,4.9-10.8,10.8v335.5c0,6,4.8,10.8,10.8,10.8
			h188.2C217.6,369.2,222.4,364.3,222.4,358.3L222.4,358.3z"/>
		<path class="st1" d="M23.4,12h188.2c6,0,10.8,4.8,10.8,10.8v335.5c0,6-4.8,10.8-10.8,10.8H23.4c-6,0-10.8-4.8-10.8-10.8V22.8
			C12.6,16.9,17.4,12,23.4,12z"/>
		<path class="st2" d="M55.1,335c-0.1-0.1-0.2-0.3-0.2-0.5v-9.9h-3.2c-0.2,0-0.4,0-0.5-0.1c-0.1-0.1-0.2-0.3-0.1-0.5v-0.5
			c0-0.2,0-0.4,0.1-0.5c0.1-0.1,0.3-0.2,0.5-0.1h8.7c0.2,0,0.4,0,0.5,0.1c0.1,0.1,0.2,0.3,0.1,0.5v0.5c0,0.2,0,0.3-0.1,0.5
			c-0.1,0.1-0.3,0.2-0.5,0.1h-3.2v9.9c0,0.2,0,0.4-0.2,0.5c-0.2,0.1-0.3,0.2-0.5,0.2h-0.9C55.4,335.2,55.2,335.1,55.1,335z"/>
		<path class="st2" d="M62.7,335c-0.1-0.1-0.2-0.3-0.2-0.5v-11c0-0.2,0-0.4,0.2-0.5c0.1-0.1,0.3-0.2,0.5-0.2h1c0.2,0,0.4,0,0.5,0.2
			c0.1,0.1,0.2,0.3,0.2,0.5v4.5h6v-4.6c0-0.2,0-0.4,0.2-0.5c0.1-0.1,0.3-0.2,0.5-0.2h1c0.2,0,0.4,0,0.5,0.2c0.1,0.1,0.2,0.3,0.2,0.5
			v11c0,0.2-0.1,0.4-0.2,0.6c-0.1,0.1-0.3,0.2-0.5,0.2h-1c-0.2,0-0.3-0.1-0.5-0.2c-0.1-0.1-0.2-0.3-0.2-0.5v-4.7h-6v4.7
			c0,0.2,0,0.4-0.2,0.5c-0.2,0.1-0.3,0.2-0.5,0.2h-1C63,335.2,62.8,335.1,62.7,335z"/>
		<path class="st2" d="M75.4,335c-0.1-0.1-0.2-0.3-0.2-0.5v-11c0-0.2,0-0.4,0.2-0.5c0.1-0.1,0.3-0.2,0.5-0.2h4.7
			c1.2-0.1,2.3,0.3,3.2,1c0.8,0.8,1.2,1.8,1.1,2.9c0,0.8-0.2,1.5-0.6,2.2c-0.4,0.6-1,1.1-1.7,1.4l2,4.5c0,0.1,0,0.1,0,0.2
			c0,0.2-0.1,0.3-0.3,0.3h-1.4c-0.1,0-0.2,0-0.3-0.1c-0.1-0.1-0.2-0.2-0.2-0.3l-1.8-4.3h-2.9v4c0,0.2,0,0.4-0.2,0.5
			c-0.2,0.1-0.3,0.2-0.5,0.2h-1C75.7,335.2,75.5,335.1,75.4,335z M80.2,328.8c0.7,0.1,1.3-0.1,1.9-0.5c0.4-0.4,0.6-1,0.6-1.6
			c0.1-0.6-0.1-1.2-0.6-1.6c-0.5-0.4-1.1-0.5-1.7-0.5h-2.9v4.2H80.2z"/>
		<path class="st2" d="M86.9,335c-0.1-0.1-0.2-0.3-0.2-0.5v-11c0-0.2,0-0.4,0.2-0.5c0.1-0.1,0.3-0.2,0.5-0.2H95c0.2,0,0.4,0,0.5,0.1
			c0.1,0.1,0.1,0.3,0.1,0.5v0.5c0,0.2,0,0.4-0.1,0.5c-0.1,0.1-0.3,0.2-0.5,0.2h-5.9v3.5h4.3c0.2,0,0.4,0,0.5,0.1
			c0.1,0.1,0.2,0.3,0.1,0.5v0.5c0.1,0.3-0.1,0.6-0.4,0.6c-0.1,0-0.2,0-0.2,0h-4.3v3.5H95c0.2,0,0.4,0,0.5,0.2
			c0.1,0.1,0.2,0.3,0.1,0.5v0.5c0,0.2,0,0.3-0.1,0.5c-0.1,0.1-0.3,0.2-0.5,0.1h-7.6C87.2,335.2,87,335.1,86.9,335z"/>
		<path class="st2" d="M97.3,335c-0.1-0.1-0.2-0.3-0.2-0.5v-11c0-0.2,0-0.4,0.2-0.5c0.1-0.1,0.3-0.2,0.5-0.2h7.6
			c0.3-0.1,0.6,0.1,0.6,0.4c0,0.1,0,0.2,0,0.2v0.5c0,0.2,0,0.4-0.1,0.5c-0.1,0.1-0.3,0.2-0.5,0.2h-5.9v3.5h4.3c0.2,0,0.4,0,0.5,0.1
			c0.1,0.1,0.2,0.3,0.1,0.5v0.5c0,0.2,0,0.4-0.1,0.5c-0.1,0.1-0.3,0.2-0.5,0.1h-4.3v3.5h5.9c0.2,0,0.4,0,0.5,0.2
			c0.1,0.1,0.2,0.3,0.2,0.5v0.5c0,0.2,0,0.3-0.2,0.5c-0.1,0.1-0.3,0.2-0.5,0.1h-7.5C97.7,335.2,97.5,335.1,97.3,335z"/>
		<path class="st2" d="M116,333.7c-2.1-2.8-2.1-6.7,0-9.5c2.7-2.2,6.5-2.2,9.2,0c2.2,2.8,2.2,6.7,0,9.5
			C122.5,336,118.7,336,116,333.7z M123.5,332.5c1.3-2.2,1.3-4.9,0-7c-1.6-1.6-4.2-1.6-5.8,0c-1.3,2.2-1.3,4.9,0,7
			C119.3,334.1,121.9,334.1,123.5,332.5C123.5,332.5,123.5,332.5,123.5,332.5z"/>
		<path class="st2" d="M128.7,335c-0.1-0.1-0.2-0.3-0.1-0.5v-11c0-0.2,0-0.4,0.1-0.5c0.1-0.1,0.3-0.2,0.5-0.2h7.6
			c0.3-0.1,0.6,0.1,0.6,0.4c0,0.1,0,0.2,0,0.2v0.5c0,0.2,0,0.4-0.1,0.5c-0.1,0.1-0.3,0.2-0.5,0.2h-5.9v3.5h4.3c0.2,0,0.4,0,0.5,0.1
			c0.1,0.1,0.2,0.3,0.1,0.5v0.5c0,0.2,0,0.3-0.1,0.5c-0.1,0.1-0.3,0.2-0.5,0.2h-4.3v4.6c0,0.2,0,0.4-0.1,0.5
			c-0.2,0.1-0.3,0.2-0.5,0.2h-1C129,335.2,128.9,335.1,128.7,335z"/>
		<path class="st2" d="M147.4,333.6c-2.8-2.6-3-7-0.4-9.9c1.4-1.5,3.4-2.4,5.5-2.2c0.8,0,1.7,0.1,2.5,0.3c0.7,0.1,1.3,0.4,1.9,0.8
			c0.1,0.1,0.2,0.1,0.2,0.3c0,0.1,0,0.2-0.1,0.3l-0.6,1c-0.1,0.1-0.1,0.2-0.2,0.2c-0.1,0-0.2,0-0.3-0.1c-1-0.5-2.1-0.8-3.2-0.7
			c-1.3-0.1-2.5,0.4-3.5,1.3c-0.9,1.1-1.4,2.4-1.3,3.8c-0.1,1.4,0.4,2.8,1.3,3.9c0.9,0.9,2.2,1.3,3.5,1.3c1.2,0,2.3-0.2,3.4-0.8
			c0.1,0,0.2-0.1,0.2-0.1c0.1,0,0.2,0.1,0.2,0.2l0.6,1c0,0.1,0.1,0.1,0.1,0.2c0,0.1-0.1,0.2-0.2,0.3c-1.4,0.8-3,1.2-4.6,1.1
			C150.7,335.5,148.9,334.9,147.4,333.6z"/>
		<path class="st2" d="M162.1,334.8c-1.8-0.7-2.9-2.5-2.9-4.4v-7.9c-0.1-0.3,0.2-0.7,0.5-0.7c0.1,0,0.2,0,0.2,0h1
			c0.2,0,0.4,0,0.6,0.2c0.1,0.2,0.2,0.4,0.2,0.5v8c-0.1,0.9,0.3,1.7,0.9,2.3c1.5,1.1,3.6,1.1,5.1,0c0.6-0.6,1-1.4,0.9-2.3v-8
			c0-0.2,0-0.4,0.2-0.5c0.2-0.1,0.4-0.2,0.6-0.2h1c0.5,0,0.8,0.2,0.8,0.7v7.9c0,0.9-0.2,1.9-0.8,2.7c-0.5,0.8-1.3,1.4-2.1,1.7
			C166.2,335.6,164,335.6,162.1,334.8L162.1,334.8z"/>
		<path class="st2" d="M173.5,335c-0.1-0.1-0.2-0.3-0.2-0.5v-12c-0.1-0.3,0.2-0.7,0.5-0.7c0.1,0,0.2,0,0.2,0h5
			c1.3-0.1,2.6,0.3,3.6,1.1c1.6,1.9,1.6,4.6,0,6.5c-1,0.8-2.3,1.2-3.6,1.1h-3.2v3.8c0,0.2,0,0.4-0.2,0.5c-0.2,0.1-0.4,0.2-0.6,0.2
			h-1C173.9,335.2,173.7,335.1,173.5,335z M179,328.7c0.7,0,1.3-0.2,1.8-0.6c0.4-0.5,0.6-1.2,0.6-1.9c0.1-0.7-0.2-1.4-0.6-1.9
			c-0.5-0.4-1.1-0.7-1.8-0.6h-3.1v5L179,328.7z"/>
		<g>
			<defs>
				<path id="SVGID_1_" d="M53,44h129c13.7,0,24.8,11.1,24.8,24.8v192.3c0,13.7-11.1,24.8-24.8,24.8H53c-13.7,0-24.8-11.1-24.8-24.8
					V68.8C28.2,55.1,39.3,44,53,44z"/>
			</defs>
			<clipPath id="SVGID_2_">
				<use xlink:href="#SVGID_1_"  style="overflow:visible;"/>
			</clipPath>
			<g class="st3">
				<polygon class="st4" points="234.7,35.3 22.8,35.3 22.8,191.2 22.8,209.2 22.8,294.7 234.6,294.7 234.6,209.2 234.7,209.2 				
					"/>
				<circle class="st5" cx="23.5" cy="155" r="29.8"/>
				<circle class="st5" cx="170.3" cy="170.4" r="29.8"/>
				<circle class="st5" cx="200.5" cy="151.3" r="29.8"/>
				<circle class="st5" cx="53" cy="178.7" r="29.8"/>
				<rect x="22.8" y="172.4" class="st6" width="212.2" height="121.2"/>
				<path class="st7" d="M149.6,185.5H186c1.1,0,2.1,0.9,2.1,2.1v1c0,1.1-0.9,2.1-2.1,2.1h-36.4c-1.1,0-2.1-0.9-2.1-2.1v-1
					C147.5,186.4,148.5,185.5,149.6,185.5z"/>
				<path class="st7" d="M197.6,209h-40.5c-1.1,0-2.1-0.9-2.1-2.1l0,0c0-1.1,0.9-2.1,2.1-2.1h40.5c1.1,0,2.1,0.9,2.1,2.1l0,0
					C199.7,208.1,198.8,209,197.6,209z"/>
				<path class="st7" d="M69.7,177.5h32.2c1.1,0,2.1,0.9,2.1,2.1v3.2c0,1.1-0.9,2.1-2.1,2.1H69.7c-1.1,0-2.1-0.9-2.1-2.1v-3.2
					C67.6,178.4,68.6,177.5,69.7,177.5z"/>
				<path class="st7" d="M143.3,224.4h36.4c1.1,0,2.1,0.9,2.1,2.1v1c0,1.1-0.9,2.1-2.1,2.1h-36.4c-1.1,0-2.1-0.9-2.1-2.1v-1
					C141.2,225.3,142.1,224.4,143.3,224.4z"/>
				<path class="st7" d="M55.2,211.8h36.4c1.1,0,2.1,0.9,2.1,2.1v1c0,1.1-0.9,2.1-2.1,2.1H55.2c-1.1,0-2.1-0.9-2.1-2.1v-1
					C53.1,212.7,54,211.8,55.2,211.8z"/>
				<polygon class="st8" points="202.5,35.3 55.1,35.3 55.1,191.2 55.1,209.2 55.1,294.7 202.4,294.7 202.4,209.2 202.5,209.2 				
					"/>
				<polygon class="st9" points="79.4,214.3 81.1,185.1 94.6,168.8 154.7,168.2 164.6,199.8 161.1,220.1 120.2,226 85.2,226 				"/>
				<path class="st10" d="M139,184.5h-24.4c-1.4,0-2.6-1.2-2.6-2.6l0,0c0-1.4,1.2-2.6,2.6-2.6H139c1.4,0,2.6,1.2,2.6,2.6l0,0
					C141.6,183.3,140.4,184.5,139,184.5z"/>
				<polygon class="st10" points="79.4,214.3 113.2,218.1 142.6,214.3 163.6,205.7 161.1,220.1 120.2,226 85.2,226 				"/>
				<path class="st11" d="M87.5,162c-1.4,0-2.8,0-4.2-0.1c-1.8-0.2-3.2-1.8-3-3.6c0.2-1.8,1.8-3.2,3.6-3l0,0
					c5.5,0.5,9.8-0.6,12.7-3.4c5.2-5,5-13.9,5-14c-0.1-1.8,1.2-3.4,3.1-3.5s3.4,1.2,3.5,3.1c0,0.1,0,0.1,0,0.2c0,0.5,0.5,12-7,19.1
					C97.7,160,93.1,161.8,87.5,162z"/>
				<path class="st12" d="M91.7,132.2L91.7,132.2c2.3,0,4.1,1.8,4.1,4.1V166c0,2.3-1.8,4.1-4.1,4.1l0,0c-2.3,0-4.1-1.8-4.1-4.1
					v-29.7C87.6,134,89.5,132.2,91.7,132.2z"/>
				<path class="st13" d="M103.7,120.1v-8.2c0.1-0.7,2-9.7,9.8-13.1c11-4.8,16.8,4.1,28.8-3.2c0.2-0.1,0.6-0.1,0.7,0.2
					c0.1,0.1,0.1,0.3,0,0.4c-1.2,3.3-3.4,6.1-6.2,8.2c-0.2,0.2-0.3,0.5-0.1,0.7c0.1,0.2,0.3,0.2,0.5,0.2c1.5-0.4,3-1.1,4.3-2.1
					c0.2-0.2,0.5-0.1,0.7,0.1c0.1,0.1,0.1,0.3,0.1,0.5c-1,2.6-3.8,7.5-11.8,9.2c-0.3,0.1-0.5,0.3-0.4,0.6c0,0.2,0.2,0.4,0.4,0.4
					c2.1,0.4,4.3,0.5,6.4,0.3c0.3,0,0.5,0.2,0.6,0.4c0,0.2,0,0.3-0.1,0.4c-1.7,1.8-6.1,5.4-14.3,4.8c-0.3-0.1-0.6,0.1-0.6,0.4
					s0.1,0.6,0.4,0.6c2.9,1.2,6,1.6,9.1,1.3c0.3-0.1,0.6,0.1,0.6,0.4s-0.1,0.6-0.4,0.6c-5.2,2.7-18.1,7.5-28.3-2.9
					C103.8,120.4,103.7,120.3,103.7,120.1z"/>
				<path class="st13" d="M89.9,120.1V112c0,0,0-0.1,0-0.1c-0.1-0.7-2-9.7-9.8-13.1c-11.1-4.8-16.8,4.1-28.8-3.2
					c-0.2-0.1-0.5-0.1-0.7,0.2c-0.1,0.1-0.1,0.3,0,0.4c1.2,3.3,3.4,6.2,6.2,8.2c0.2,0.2,0.3,0.5,0.1,0.7c-0.1,0.2-0.3,0.2-0.5,0.2
					c-1.6-0.4-3.1-1.2-4.4-2.1c-0.2-0.2-0.5-0.1-0.7,0.1c-0.1,0.1-0.1,0.3-0.1,0.5c1,2.6,3.8,7.6,11.9,9.3c0.3,0,0.5,0.2,0.5,0.5
					s-0.2,0.5-0.5,0.5c-2.1,0.4-4.3,0.5-6.5,0.3c-0.3,0-0.5,0.1-0.6,0.4c0,0.2,0,0.3,0.1,0.4c1.7,1.8,6.1,5.4,14.4,4.8
					c0.3-0.1,0.6,0.1,0.6,0.4c0.1,0.3-0.1,0.6-0.4,0.6c-2.9,1.2-6,1.7-9.2,1.3c-0.3,0-0.5,0.2-0.5,0.5c0,0.2,0.1,0.4,0.3,0.5
					c5.2,2.7,18.1,7.6,28.3-2.9C89.8,120.4,89.9,120.3,89.9,120.1z"/>
				<path class="st13" d="M89.6,90.9c0,1.8-1.5,3.2-3.3,3.2s-3.2-1.5-3.2-3.3c0-1.8,1.5-3.2,3.3-3.2c0,0,0,0,0,0
					C88.2,87.7,89.6,89.1,89.6,90.9z"/>
				<circle class="st13" cx="86" cy="84.9" r="3.5"/>
				<path class="st9" d="M93.2,80.6c0,2-1.6,3.6-3.6,3.6s-3.6-1.6-3.6-3.6c0-2,1.6-3.6,3.6-3.6c0,0,0,0,0,0
					C91.6,77,93.2,78.6,93.2,80.6z"/>
				<path class="st13" d="M104.8,84.9c0,1.9,1.6,3.5,3.5,3.5s3.5-1.6,3.5-3.5c0-1.9-1.6-3.5-3.5-3.5c0,0,0,0,0,0
					C106.3,81.4,104.8,83,104.8,84.9C104.8,84.9,104.8,84.9,104.8,84.9z"/>
				<path class="st9" d="M101,80.6c0,2,1.6,3.6,3.6,3.6s3.6-1.6,3.6-3.6c0-2-1.6-3.6-3.6-3.6c0,0,0,0,0,0
					C102.6,77,101,78.6,101,80.6z"/>
				<path class="st13" d="M104.6,90.9c0,1.8,1.5,3.2,3.3,3.2s3.2-1.5,3.2-3.3c0-1.8-1.5-3.2-3.3-3.2c0,0,0,0,0,0
					C106,87.7,104.6,89.1,104.6,90.9z"/>
				<path class="st12" d="M110.9,94.9c0,1.4-1.1,2.5-2.5,2.5c-1.4,0-2.5-1.1-2.5-2.5s1.1-2.5,2.5-2.5c0,0,0,0,0,0
					C109.7,92.4,110.9,93.5,110.9,94.9z"/>
				<circle class="st11" cx="108.3" cy="94.9" r="1.6"/>
				<path class="st12" d="M96.9,109.9L96.9,109.9c-1,0-1.8-0.8-1.8-1.8v-3.2c0-1,0.8-1.8,1.8-1.8l0,0c1,0,1.8,0.8,1.8,1.8v3.2
					C98.7,109.1,97.9,109.9,96.9,109.9L96.9,109.9z"/>
				<path class="st11" d="M96.9,106.5L96.9,106.5c-6.3,0-11.3-5.1-11.4-11.3v-4.8c0-6.3,5.1-11.4,11.4-11.4l0,0
					c6.3,0,11.3,5.1,11.3,11.3v4.8C108.3,101.4,103.2,106.4,96.9,106.5z"/>
				<path class="st12" d="M107.7,86.1c-1.6-4.6-5.9-7.7-10.8-7.7l0,0c-5.1,0-9.6,3.4-10.9,8.3c-0.3,1-0.4,2-0.4,3v4.7
					c0,6.3,5.1,11.3,11.3,11.3l0,0c6.3,0,11.3-5.1,11.3-11.3v-4.7C108.3,88.5,108.1,87.3,107.7,86.1z"/>
				<path class="st11" d="M113.9,122.2c-0.7,0-1.5-0.1-2.2-0.2c-7.2-1.3-10.8-8.4-11-8.7c-0.6-1.3-0.1-2.8,1.2-3.5
					c1.3-0.6,2.8-0.1,3.5,1.2l0,0c0.1,0.1,2.7,5.1,7.3,5.9c3.4,0.6,7.2-1.2,11.4-5.2c1-1.1,2.6-1.1,3.7-0.2s1.1,2.6,0.2,3.7
					c-0.1,0.1-0.1,0.2-0.2,0.2C122.9,120,118.3,122.2,113.9,122.2z"/>
				<path class="st11" d="M98.9,99.1H98c0-0.5,0.4-0.9,0.9-0.9s0.9,0.4,0.9,0.9H98.9z"/>
				<path class="st14" d="M103.3,99.6L103.3,99.6c-0.6,0-1.1-0.5-1.1-1.1v-2.1c0-0.6,0.5-1.1,1.1-1.1l0,0c0.6,0,1.1,0.5,1.1,1.1v2.1
					C104.5,99.1,104,99.6,103.3,99.6z"/>
				<path class="st14" d="M95.2,99.6L95.2,99.6c-0.6,0-1.1-0.5-1.2-1.1c0,0,0,0,0,0v-2.1c0-0.6,0.5-1.1,1.1-1.1l0,0
					c0.6,0,1.1,0.5,1.1,1.1v2.1C96.3,99.1,95.8,99.6,95.2,99.6z"/>
				<path class="st13" d="M104.9,93.5l-4.1-1.2c-0.4-0.1-0.6-0.5-0.5-0.9c0,0,0,0,0-0.1l0,0c0.1-0.4,0.5-0.6,1-0.5c0,0,0,0,0,0
					l4.1,1.2c0.4,0.1,0.6,0.5,0.5,1c0,0,0,0,0,0l0,0C105.8,93.4,105.3,93.7,104.9,93.5C104.9,93.5,104.9,93.5,104.9,93.5z"/>
				<path class="st13" d="M91.7,93.5l4.1-1.2c0.4-0.1,0.6-0.6,0.5-1c0,0,0,0,0,0l0,0c-0.1-0.4-0.5-0.6-1-0.5c0,0,0,0,0,0L91.2,92
					c-0.4,0.1-0.6,0.5-0.5,1c0,0,0,0,0,0l0,0C90.8,93.4,91.3,93.7,91.7,93.5C91.7,93.5,91.7,93.5,91.7,93.5z"/>
				<path class="st15" d="M97.6,100.9c0,0.8,0.7,1.5,1.5,1.5c0.8,0,1.5-0.7,1.5-1.5c0,0,0,0,0,0H97.6z"/>
				<path class="st13" d="M102,79.1c0,2.8-2.3,5.2-5.2,5.2s-5.2-2.3-5.2-5.2c0-2.8,2.3-5.2,5.2-5.2C99.7,73.9,102,76.2,102,79.1z"/>
				<path class="st13" d="M104.2,84.6H89.7c-2.2,0-4-1.8-4-4l0,0c0-2.2,1.8-4,4-4h14.5c2.2,0,4,1.8,4,4l0,0
					C108.2,82.8,106.4,84.6,104.2,84.6z"/>
				<path class="st13" d="M91.3,84.2c0,1.8-1.4,3.2-3.2,3.2c-1.8,0-3.2-1.4-3.2-3.2c0-1.8,1.4-3.2,3.2-3.2c0,0,0,0,0,0
					C89.9,81,91.3,82.4,91.3,84.2C91.3,84.2,91.3,84.2,91.3,84.2z"/>
				<path class="st13" d="M97.5,84.2c0,1.8-1.4,3.2-3.2,3.2s-3.2-1.4-3.2-3.2c0-1.8,1.4-3.2,3.2-3.2C96.1,81,97.5,82.4,97.5,84.2
					C97.5,84.2,97.5,84.2,97.5,84.2z"/>
				<path class="st13" d="M103.3,84.2c0,1.8-1.4,3.2-3.2,3.2s-3.2-1.4-3.2-3.2c0-1.8,1.4-3.2,3.2-3.2
					C101.9,81,103.4,82.4,103.3,84.2C103.4,84.2,103.4,84.2,103.3,84.2z"/>
				<path class="st13" d="M109,84.2c0,1.8-1.4,3.2-3.2,3.2c-1.8,0-3.2-1.4-3.2-3.2c0-1.8,1.4-3.2,3.2-3.2
					C107.5,81,109,82.4,109,84.2C109,84.2,109,84.2,109,84.2z"/>
				<path class="st12" d="M87.9,94c0,1.4-1.1,2.5-2.5,2.5c-1.4,0-2.5-1.1-2.5-2.5s1.1-2.5,2.5-2.5c0,0,0,0,0,0
					C86.7,91.5,87.9,92.6,87.9,94z"/>
				<path class="st11" d="M87,94c0,0.9-0.7,1.6-1.6,1.6s-1.6-0.7-1.6-1.6s0.7-1.6,1.6-1.6c0,0,0,0,0,0C86.3,92.4,87,93.1,87,94
					C87,94,87,94,87,94z"/>
				<path class="st12" d="M108.4,118.4c0-6.2-5-11.2-11.2-11.2l0,0c-6.2,0-11.2,5-11.2,11.2v18h22.5L108.4,118.4z"/>
				<path class="st16" d="M97.2,148.2L97.2,148.2c6.2,0,11.2-5,11.2-11.2c0,0,0,0,0,0v-7.6l-22.4,7v0.6
					C86,143.2,91,148.2,97.2,148.2C97.2,148.2,97.2,148.2,97.2,148.2z"/>
				<rect x="85.1" y="127" class="st13" width="0.4" height="5"/>
				<polygon class="st9" points="85.3,133.4 86.2,131.9 84.4,131.9 				"/>
				<path class="st15" d="M84.7,125.9v0.8c0,0.1,0,0.1,0.1,0.1l0.5,0.5c0,0,0.1,0,0.1,0c0,0,0,0,0,0l0.5-0.5c0,0,0-0.1,0-0.1v-0.8
					c0-0.1-0.1-0.2-0.2-0.1l-0.4,0.4c0,0-0.1,0-0.1,0l-0.4-0.4C84.8,125.7,84.7,125.8,84.7,125.9z"/>
				<rect x="86.7" y="127" class="st17" width="0.4" height="5"/>
				<polygon class="st9" points="86.9,133.4 87.8,131.9 86,131.9 				"/>
				<path class="st15" d="M86.3,125.9v0.8c0,0,0,0.1,0,0.1l0.5,0.5c0,0,0.1,0,0.1,0c0,0,0,0,0,0l0.5-0.5c0,0,0-0.1,0-0.1v-0.8
					c0-0.1-0.1-0.2-0.2-0.1l-0.4,0.4c0,0-0.1,0-0.1,0l-0.4-0.4C86.4,125.7,86.3,125.8,86.3,125.9z"/>
				<rect x="88.2" y="127" class="st13" width="0.4" height="5"/>
				<polygon class="st9" points="88.5,133.4 89.3,131.9 87.6,131.9 				"/>
				<path class="st15" d="M87.9,125.9v0.8c0,0,0,0.1,0,0.1l0.5,0.5c0,0,0.1,0,0.1,0c0,0,0,0,0,0l0.5-0.5c0,0,0-0.1,0-0.1v-0.8
					c0-0.1-0.1-0.2-0.2-0.1l-0.4,0.4c0,0-0.1,0-0.1,0c0,0,0,0,0,0l-0.4-0.4C88,125.7,87.9,125.8,87.9,125.9z"/>
				<rect x="84.1" y="125.1" class="st13" width="0.7" height="7.8"/>
				<polygon class="st9" points="84.4,135.1 85.8,132.8 83.1,132.8 				"/>
				<path class="st15" d="M83.5,123.4v1.2c0,0.1,0,0.2,0.1,0.2l0.8,0.8c0,0,0.1,0,0.2,0l0.8-0.8c0.1-0.1,0.1-0.1,0.1-0.2v-1.2
					c0-0.2-0.1-0.3-0.2-0.2l-0.6,0.6c0,0-0.1,0.1-0.1,0c0,0,0,0,0,0l-0.6-0.6C83.6,123.1,83.5,123.2,83.5,123.4z"/>
				<rect x="86.6" y="125.1" class="st13" width="0.7" height="7.8"/>
				<polygon class="st9" points="86.9,135.1 88.2,132.8 85.5,132.8 				"/>
				<path class="st15" d="M86,123.4v1.2c0,0.1,0,0.2,0.1,0.2l0.8,0.8c0,0,0.1,0,0.2,0l0.8-0.8c0.1-0.1,0.1-0.1,0.1-0.2v-1.2
					c0-0.2-0.1-0.3-0.2-0.2l-0.6,0.6c0,0-0.1,0.1-0.1,0c0,0,0,0,0,0l-0.6-0.6C86.1,123.1,86,123.2,86,123.4z"/>
				<rect x="89" y="125.1" class="st13" width="0.7" height="7.8"/>
				<polygon class="st9" points="89.3,135.1 90.7,132.8 88,132.8 				"/>
				<path class="st15" d="M88.4,123.4v1.2c0,0.1,0,0.2,0.1,0.2l0.8,0.8c0,0,0.1,0,0.2,0l0.8-0.8c0-0.1,0.1-0.1,0.1-0.2v-1.2
					c0-0.2-0.1-0.3-0.2-0.2l-0.6,0.6c0,0-0.1,0.1-0.1,0c0,0,0,0,0,0l-0.6-0.6C88.5,123.1,88.4,123.2,88.4,123.4z"/>
				<path class="st18" d="M86.7,145L86.7,145c-2.2,0-4-1.8-4-4v-9.3h8v9.3C90.7,143.2,88.9,145,86.7,145z"/>
				<path class="st13" d="M62.2,147.1h33c0-0.1,0-0.2,0-0.3H62.2C62.2,146.9,62.2,147,62.2,147.1z"/>
				<path class="st13" d="M102.8,151.5c0.1-1.2-0.9-2.2-2.1-2.3c-1.2,0-2.2,0.8-2.3,2c-0.8-0.7-1-2.4-1-4.4
					c0-8.5-8.3-15.4-18.7-15.4s-18.7,6.9-18.7,15.4c0,2-0.4,3.7-1.1,4.4c-0.1-1.2-1.2-2.1-2.4-1.9c-1.2,0.1-2.1,1.2-1.9,2.4
					c0.1,1,0.9,1.8,1.9,1.9l0,0c0.4,0.1,0.7,0.1,1.1,0.1c0.9,0,1.8-0.3,2.5-0.8c1.4-1.1,2.1-3.3,2.1-6.1l0,0
					c0.2-7.4,7.6-13.6,16.5-13.6c7.2,0,16.2,6.2,16.4,13.6l0,0c0,2.8,0.7,5.1,2.1,6.1c0.7,0.5,1.6,0.8,2.5,0.8c0.3,0,0.7,0,1-0.1
					C102,153.5,102.8,152.6,102.8,151.5z"/>
				<path class="st12" d="M78.7,134.5c-1.3,0-2.3-1-2.3-2.3c0,0,0,0,0,0c0-9.9,3.7-15.6,6.9-18.7c2-2,4.5-3.6,7.2-4.5
					c1.2-0.3,2.4,0.5,2.7,1.8c0.2,1.1-0.4,2.2-1.5,2.6c-0.5,0.1-10.7,3.3-10.7,18.8C81,133.5,80,134.5,78.7,134.5L78.7,134.5z"/>
				<path class="st19" d="M128.9,177.6v-30.1c-0.1-1.5,1.1-2.8,2.6-2.9s2.8,1.1,2.9,2.6c0,0.1,0,0.2,0,0.3v30.7l2,0.4
					c0.3,0.1,0.6,0.2,0.9,0.5l0.4,0.5c0.6,0.7,0.6,1.7-0.1,2.3c-0.3,0.3-0.7,0.4-1.1,0.4h-6.6c-0.9,0-1.7-0.7-1.7-1.7l0,0v-1.8
					C128.2,178.4,128.5,177.9,128.9,177.6z"/>
				<path class="st19" d="M124.9,177.6v-30.1c0-1.5-1.2-2.8-2.8-2.8c-1.5,0-2.8,1.2-2.8,2.8v30.6c0,0,0,0.1,0,0.1l-2,0.4
					c-0.3,0.1-0.6,0.2-0.9,0.5l-0.4,0.5c-0.6,0.7-0.6,1.7,0.1,2.3c0.3,0.3,0.7,0.4,1.1,0.4h6.6c0.9,0,1.7-0.7,1.7-1.7v-1.8
					C125.6,178.4,125.3,177.9,124.9,177.6z"/>
				<rect x="114.7" y="96.8" class="st20" width="23.2" height="35"/>
				<path class="st13" d="M119.2,107.4c0,1.1-0.9,2-2,2s-2-0.9-2-2s0.9-2,2-2S119.2,106.3,119.2,107.4z"/>
				<path class="st21" d="M118.5,107.4c0,0.7-0.6,1.3-1.3,1.3c-0.7,0-1.3-0.6-1.3-1.3c0-0.7,0.6-1.3,1.3-1.3
					C117.9,106.1,118.5,106.7,118.5,107.4z"/>
				<path class="st13" d="M137.2,107.4c0,1.1-0.9,2-2,2s-2-0.9-2-2s0.9-2,2-2S137.2,106.3,137.2,107.4z"/>
				<path class="st21" d="M136.5,107.4c0,0.7-0.6,1.3-1.3,1.3c-0.7,0-1.3-0.6-1.3-1.3c0-0.7,0.6-1.3,1.3-1.3
					C135.9,106.1,136.5,106.7,136.5,107.4z"/>
				<path class="st13" d="M126.4,121L126.4,121c-1,0-1.8-0.8-1.8-1.8V116c0-1,0.8-1.8,1.8-1.8l0,0c1,0,1.8,0.8,1.8,1.8v3.2
					C128.2,120.2,127.4,121,126.4,121z"/>
				<path class="st21" d="M126.4,116.4L126.4,116.4c-4.9,0-8.9-4-8.9-8.9v-3.7c0-4.9,4-8.9,8.9-8.9l0,0c4.9,0,8.9,4,8.9,8.9v3.7
					C135.3,112.4,131.3,116.4,126.4,116.4z"/>
				<path class="st13" d="M126.4,115.9L126.4,115.9c-4.9,0-8.9-4-8.9-8.9v-3.7c0-4.9,4-8.9,8.9-8.9l0,0c4.9,0,8.9,4,8.9,8.9v3.7
					C135.3,112,131.3,115.9,126.4,115.9z"/>
				<path class="st20" d="M135.2,101.8h-17.6c-3,0-5.4-2.4-5.4-5.4l0,0c0-3,2.4-5.4,5.4-5.4h17.6c3,0,5.4,2.4,5.4,5.4l0,0
					C140.6,99.4,138.2,101.8,135.2,101.8z"/>
				<path class="st13" d="M126.7,159.4L126.7,159.4c-6.2,0-11.2-5-11.2-11.2v-18.7c0-6.2,5-11.2,11.2-11.2l0,0
					c6.2,0,11.2,5,11.2,11.2v18.7C137.9,154.3,132.9,159.4,126.7,159.4z"/>
				<path class="st14" d="M130.5,109.6L130.5,109.6c-0.6,0-1.1-0.5-1.1-1.1v-2.1c0-0.6,0.5-1.1,1.1-1.1l0,0c0.6,0,1.1,0.5,1.1,1.1
					v2.1C131.6,109.1,131.1,109.6,130.5,109.6z"/>
				<path class="st14" d="M122.3,109.6L122.3,109.6c-0.6,0-1.1-0.5-1.1-1.1v-2.1c0-0.6,0.5-1.1,1.1-1.1l0,0c0.6,0,1.1,0.5,1.1,1.1
					v2.1C123.4,109.1,122.9,109.6,122.3,109.6z"/>
				<path class="st17" d="M126.4,109.3h-0.7c0-0.4,0.4-0.6,0.8-0.6c0.3,0,0.6,0.3,0.6,0.6H126.4z"/>
				<path class="st20" d="M132,104.7h-3.4c-0.3,0-0.6-0.3-0.6-0.6c0,0,0,0,0,0l0,0c0-0.3,0.3-0.6,0.6-0.6h3.4c0.3,0,0.6,0.3,0.6,0.6
					l0,0C132.6,104.4,132.3,104.7,132,104.7L132,104.7z"/>
				<path class="st20" d="M124.2,104.7h-3.3c-0.3,0-0.6-0.3-0.6-0.6c0,0,0,0,0,0l0,0c0-0.3,0.3-0.6,0.6-0.6l0,0h3.3
					c0.3,0,0.6,0.3,0.6,0.6l0,0C124.8,104.4,124.5,104.7,124.2,104.7z"/>
				<path class="st15" d="M125.2,110.3c-0.1,0.6,0.4,1.2,1,1.3c0.6,0.1,1.2-0.4,1.3-1c0-0.1,0-0.1,0-0.2H125.2z"/>
				<path class="st22" d="M126.7,112c0-0.1-0.1-0.3-0.3-0.3c0,0,0,0,0,0c-0.1,0-0.3,0.1-0.3,0.3c0,0,0,0,0,0H126.7z"/>
				<path class="st8" d="M138.5,134.9c0.4-1.4,0.2-2.9-0.5-4.1v5C138.2,135.5,138.4,135.3,138.5,134.9z"/>
				<path class="st21" d="M136.5,121c-0.8-0.8-1.9-0.9-2.8-0.3c2.7,2.1,4.2,5.4,4.2,8.8v1.3c0.7,1.3,0.9,2.7,0.5,4.1
					c-0.1,0.3-0.3,0.6-0.5,0.8v5.4c2.1-0.8,3.8-2.4,4.7-4.5C145.4,130.1,137.4,121.9,136.5,121z"/>
				<path class="st5" d="M124.6,140.6c0-1.3,1-2.3,2.3-2.3c0,0,0,0,0,0c7.2,0,10-1.4,11.1-2.6v-5c-1.2-2.4-2.7-4.7-4.6-6.6
					c-0.9-0.9-0.9-2.3,0-3.2c0.1-0.1,0.3-0.2,0.4-0.3c-0.5-0.4-1-0.8-1.6-1.1l-3.4,5.9c-0.8,1.4-2.6,1.8-4,1c-0.4-0.3-0.8-0.6-1-1
					l-3.1-5.4c-3.1,2.1-5,5.6-5,9.4l-2.9,53.6h26.8l-1.6-41.8c-2.7,1.2-6.3,1.7-11.1,1.7C125.6,142.9,124.6,141.9,124.6,140.6
					C124.6,140.6,124.6,140.6,124.6,140.6z"/>
				<path class="st16" d="M133.3,124.2c1.9,1.9,3.5,4.2,4.6,6.6v-1.3c0-3.4-1.6-6.7-4.2-8.8c-0.1,0.1-0.3,0.2-0.4,0.3
					C132.4,121.9,132.5,123.3,133.3,124.2z"/>
				<path class="st21" d="M126.9,138.3c-1.3,0.1-2.2,1.2-2.1,2.4c0.1,1.1,1,2,2.1,2.1c4.7,0,8.4-0.6,11.1-1.7v-5.4
					C136.8,137,134,138.3,126.9,138.3z"/>
				<path class="st13" d="M128.7,125.5l3.4-5.9c-1.7-0.9-3.5-1.4-5.4-1.4l0,0c-2.2,0-4.3,0.6-6.2,1.8l3.1,5.4c0.8,1.4,2.6,1.9,4,1.1
					C128.1,126.3,128.4,126,128.7,125.5z"/>
				<path class="st23" d="M126,140.8L126,140.8c-0.2-0.1-0.4-0.3-0.3-0.5l1.8-8.3c0.1-0.2,0.3-0.4,0.5-0.3l0,0
					c0.2,0.1,0.4,0.3,0.3,0.5l-1.8,8.3C126.5,140.7,126.3,140.8,126,140.8C126,140.8,126,140.8,126,140.8z"/>
				<path class="st23" d="M127.3,134.1L127.3,134.1c-0.1,0.1-0.3,0.1-0.4,0L126,133c-0.1-0.1-0.1-0.3,0-0.4l0,0
					c0.1-0.1,0.3-0.1,0.4,0c0,0,0,0,0,0l1,1.1C127.4,133.9,127.4,134.1,127.3,134.1z"/>
				<path class="st23" d="M127.8,131.8L127.8,131.8c-0.1,0.1-0.3,0.1-0.4,0c0,0,0,0,0,0l-1-1.2c-0.1-0.1-0.1-0.3,0-0.4c0,0,0,0,0,0
					l0,0c0.1-0.1,0.3-0.1,0.4,0l1,1.2C127.9,131.5,127.9,131.7,127.8,131.8z"/>
				<path class="st24" d="M125.2,128.1c-0.8,0.2-1.2,1.1-1,1.8s1.1,1.2,1.8,1s1.2-1.1,1-1.8c0-0.1-0.1-0.3-0.2-0.4
					C126.5,128.2,125.8,127.9,125.2,128.1z"/>
				<path class="st24" d="M124.1,130.7c-0.7,0.4-1,1.3-0.7,2c0.4,0.7,1.3,1,2,0.7c0.7-0.4,1-1.3,0.7-2c-0.1-0.1-0.2-0.3-0.3-0.4
					C125.4,130.6,124.7,130.5,124.1,130.7z"/>
				<path class="st23" d="M126.7,136.7L126.7,136.7c-0.1,0.1-0.3,0.1-0.4,0l-1-1.1c-0.1-0.1-0.1-0.3,0-0.4c0,0,0,0,0,0l0,0
					c0.1-0.1,0.3-0.1,0.4,0c0,0,0,0,0,0l1,1.1C126.8,136.5,126.8,136.6,126.7,136.7z"/>
				<path class="st24" d="M123.6,133.3c-0.3,0.6-0.2,1.3,0.2,1.8c0.5,0.3,1.2,0.1,1.5-0.4c0.3-0.5,0.1-1.2-0.4-1.5
					C124.4,133,123.9,133,123.6,133.3z"/>
				<path class="st23" d="M127.4,134.2L127.4,134.2c0.1,0.1,0.2,0.2,0.3,0.1l1.3-0.7c0.1-0.1,0.2-0.2,0.1-0.3c0,0,0,0,0,0l0,0
					c-0.1-0.1-0.2-0.2-0.4-0.1l-1.3,0.7C127.4,133.9,127.4,134,127.4,134.2C127.4,134.2,127.4,134.2,127.4,134.2z"/>
				<path class="st23" d="M127.9,131.8L127.9,131.8c0.1,0.1,0.2,0.2,0.3,0.1c0,0,0,0,0,0l1.3-0.7c0.1-0.1,0.2-0.2,0.1-0.3
					c0,0,0,0,0,0l0,0c-0.1-0.1-0.2-0.2-0.3-0.1c0,0,0,0,0,0l-1.3,0.7C127.9,131.5,127.9,131.7,127.9,131.8
					C127.9,131.8,127.9,131.8,127.9,131.8z"/>
				<path class="st24" d="M131.8,129.5c0.6,0.5,0.7,1.5,0.2,2.1c-0.5,0.6-1.5,0.7-2.1,0.2c-0.6-0.5-0.7-1.5-0.2-2.1
					c0.1-0.1,0.2-0.2,0.3-0.3C130.6,129,131.3,129.1,131.8,129.5z"/>
				<path class="st24" d="M131.7,132.3c0.5,0.6,0.5,1.6-0.2,2.1c-0.6,0.5-1.6,0.5-2.1-0.2c-0.5-0.6-0.5-1.6,0.2-2.1
					c0.1-0.1,0.3-0.2,0.4-0.2C130.6,131.7,131.3,131.8,131.7,132.3z"/>
				<path class="st23" d="M126.9,136.8L126.9,136.8c0.1,0.1,0.2,0.2,0.3,0.1c0,0,0,0,0,0l1.3-0.7c0.1-0.1,0.2-0.2,0.1-0.3
					c0,0,0,0,0,0l0,0c-0.1-0.1-0.2-0.2-0.3-0.1c0,0,0,0,0,0l-1.3,0.7C126.9,136.5,126.8,136.6,126.9,136.8
					C126.9,136.7,126.9,136.8,126.9,136.8z"/>
				<path class="st24" d="M131.1,134.9c0.5,0.6,0.5,1.6-0.2,2.1c-0.6,0.5-1.6,0.5-2.1-0.2c-0.5-0.6-0.5-1.6,0.2-2.1
					c0.1-0.1,0.2-0.2,0.4-0.2C130,134.3,130.7,134.4,131.1,134.9z"/>
				<path class="st23" d="M122.8,138.7L122.8,138.7c-0.1,0.1-0.3,0.1-0.4-0.1l-3-4c-0.1-0.1-0.1-0.3,0-0.4c0,0,0,0,0,0l0,0
					c0.1-0.1,0.3-0.1,0.4,0l3,4C122.9,138.4,122.9,138.6,122.8,138.7C122.8,138.7,122.8,138.7,122.8,138.7z"/>
				<path class="st23" d="M120.3,135.6L120.3,135.6c0,0.1-0.1,0.1-0.2,0.1h-0.9c-0.1,0-0.2-0.1-0.2-0.2l0,0c0-0.1,0.1-0.1,0.2-0.1
					h0.9C120.2,135.4,120.3,135.5,120.3,135.6C120.3,135.6,120.3,135.6,120.3,135.6z"/>
				<path class="st23" d="M119.4,134.5L119.4,134.5c0,0.1-0.1,0.1-0.2,0.1h-0.9c-0.1,0-0.2-0.1-0.2-0.1l0,0c0-0.1,0.1-0.1,0.2-0.1
					h0.9C119.4,134.3,119.4,134.4,119.4,134.5z"/>
				<path class="st24" d="M116.8,134.2c0.1,0.4,0.4,0.7,0.8,0.7c0.3-0.1,0.6-0.4,0.5-0.7c-0.1-0.3-0.4-0.6-0.7-0.5
					C117.1,133.7,116.8,133.9,116.8,134.2z"/>
				<path class="st24" d="M117.6,135.7c-0.1,0.5,0.2,1,0.6,1.1c0.5,0.1,1-0.2,1.1-0.6s-0.2-1-0.6-1.1c-0.1,0-0.2,0-0.3,0
					C118,135.1,117.7,135.3,117.6,135.7z"/>
				<path class="st23" d="M121.2,136.8L121.2,136.8c0,0.1-0.1,0.1-0.2,0.1h-0.9c-0.1,0-0.1-0.1-0.2-0.1c0,0,0,0,0,0l0,0
					c0-0.1,0.1-0.1,0.2-0.1h0.9C121.2,136.7,121.2,136.8,121.2,136.8z"/>
				<path class="st24" d="M118.5,136.9c0.1,0.4,0.5,0.6,0.9,0.6c0.4,0,0.7-0.3,0.8-0.6c-0.1-0.4-0.5-0.6-0.9-0.6
					C119,136.3,118.6,136.6,118.5,136.9z"/>
				<path class="st23" d="M120.4,135.5L120.4,135.5c0.1,0,0.2,0,0.2-0.1l0.2-0.9c0-0.1,0-0.2-0.1-0.2c0,0,0,0,0,0l0,0
					c-0.1,0-0.2,0-0.2,0.1l-0.2,0.9C120.2,135.4,120.3,135.5,120.4,135.5C120.4,135.5,120.4,135.5,120.4,135.5z"/>
				<path class="st23" d="M119.5,134.4L119.5,134.4c0.1,0,0.2,0,0.2-0.1l0.2-0.9c0-0.1,0-0.2-0.1-0.2l0,0c-0.1,0-0.2,0-0.2,0.1
					l-0.2,0.9C119.4,134.3,119.4,134.4,119.5,134.4z"/>
				<path class="st24" d="M120,131.8c0.3,0.2,0.6,0.5,0.5,0.9c0.1,0.3-0.2,0.7-0.5,0.7c-0.3,0.1-0.7-0.2-0.7-0.5c0-0.1,0-0.2,0-0.3
					C119.3,132.2,119.6,131.9,120,131.8z"/>
				<path class="st24" d="M121.2,132.9c0.3,0.2,0.5,0.6,0.3,1c-0.1,0.4-0.5,0.6-0.8,0.6c-0.4-0.3-0.5-0.8-0.2-1.2
					C120.6,133.1,120.9,133,121.2,132.9L121.2,132.9z"/>
				<path class="st23" d="M121.3,136.8L121.3,136.8c0.1,0,0.2,0,0.2-0.1c0,0,0,0,0,0l0.2-0.9c0-0.1,0-0.2-0.1-0.2l0,0
					c-0.1,0-0.2,0-0.2,0.1l-0.2,0.9C121.2,136.7,121.3,136.8,121.3,136.8z"/>
				<path class="st24" d="M122.1,134.2c0.5,0,0.9,0.4,0.9,0.9s-0.4,0.9-0.9,0.9c-0.5,0-0.9-0.4-0.9-0.9c0-0.1,0-0.2,0-0.3
					C121.4,134.4,121.8,134.2,122.1,134.2z"/>
				<path class="st13" d="M126.2,142.9c-8.9,0-14.1-2-15.8-6.2c-2.7-6.6,5.2-14.8,6.2-15.7c0.9-0.8,2.4-0.8,3.2,0.2
					c0.8,0.9,0.8,2.2,0,3.1c-2.2,2.2-6.4,7.8-5.2,10.7c0.5,1.3,2.7,3.4,11.6,3.4c1.3,0.1,2.2,1.2,2.1,2.4
					C128.3,141.9,127.4,142.8,126.2,142.9z"/>
				<path class="st13" d="M126.2,142.9c-8.9,0-14.1-2-15.8-6.2c-2.7-6.6,5.2-14.8,6.2-15.7c0.9-0.8,2.4-0.8,3.2,0.2
					c0.8,0.9,0.8,2.2,0,3.1c-2.2,2.2-6.4,7.8-5.2,10.7c0.5,1.3,2.7,3.4,11.6,3.4c1.3,0.1,2.2,1.2,2.1,2.4
					C128.3,141.9,127.4,142.8,126.2,142.9z"/>
				<path class="st25" d="M117.7,101.5L117.7,101.5c-0.4-0.4-0.4-1,0-1.4l0.5-0.5c0.4-0.4,1-0.4,1.4,0l0,0c0.4,0.4,0.4,1,0,1.4
					l-0.5,0.5C118.7,101.8,118.1,101.8,117.7,101.5z"/>
				<path class="st25" d="M116.2,103L116.2,103c-0.4-0.4-0.4-1,0-1.4l0.5-0.5c0.4-0.4,1-0.4,1.4,0l0,0c0.4,0.4,0.4,1,0,1.4l-0.5,0.5
					C117.2,103.4,116.6,103.4,116.2,103z"/>
				<path class="st25" d="M117.7,101.1L117.7,101.1c0.4-0.4,1-0.4,1.4,0l0.5,0.5c0.4,0.4,0.4,1,0,1.4l0,0c-0.4,0.4-1,0.4-1.4,0
					l-0.5-0.5C117.3,102.1,117.3,101.5,117.7,101.1z"/>
				<path class="st25" d="M116.2,99.6L116.2,99.6c0.4-0.4,1-0.4,1.4,0l0.5,0.5c0.4,0.4,0.4,1,0,1.4l0,0c-0.4,0.4-1,0.4-1.4,0
					l-0.5-0.5C115.8,100.6,115.8,100,116.2,99.6z"/>
				<path class="st5" d="M117.9,101.6L117.9,101.6c-0.6,0-1-0.4-1.1-1v-0.7c0-0.6,0.4-1,1-1c0,0,0,0,0.1,0l0,0c0.6,0,1,0.4,1,1v0.7
					C118.9,101.1,118.4,101.5,117.9,101.6z"/>
				<path class="st5" d="M117.9,103.8L117.9,103.8c-0.6,0-1-0.4-1-0.9c0,0,0,0,0-0.1v-0.7c0-0.6,0.4-1,1-1c0,0,0,0,0.1,0l0,0
					c0.6,0,1,0.4,1,1v0.7C118.9,103.4,118.5,103.8,117.9,103.8z"/>
				<path class="st5" d="M117.6,101.3L117.6,101.3c0-0.6,0.5-1.1,1.1-1.1h0.7c0.6,0,1,0.4,1,1c0,0,0,0,0,0.1l0,0c0,0.6-0.4,1-1,1
					h-0.7C118.1,102.3,117.7,101.9,117.6,101.3z"/>
				<path class="st5" d="M115.3,101.3L115.3,101.3c0-0.6,0.4-1,0.9-1c0,0,0,0,0.1,0h0.7c0.6,0,1.1,0.5,1.1,1.1l0,0
					c0,0.6-0.5,1-1.1,1h-0.7C115.8,102.3,115.3,101.8,115.3,101.3z"/>
				<path class="st13" d="M119,101.2c0,0.6-0.5,1.1-1.1,1.1s-1.1-0.5-1.1-1.1s0.5-1.1,1.1-1.1h0C118.5,100.1,119,100.6,119,101.2z"
					/>
				<path class="st25" d="M128.3,129.4L128.3,129.4c-0.4-0.4-0.4-1,0-1.4l0.5-0.5c0.4-0.4,1-0.4,1.4,0l0,0c0.4,0.4,0.4,1,0,1.4
					l-0.5,0.5C129.3,129.8,128.6,129.8,128.3,129.4z"/>
				<path class="st25" d="M126.7,130.9L126.7,130.9c-0.4-0.4-0.4-1,0-1.4l0.5-0.5c0.4-0.4,1-0.4,1.4,0l0,0c0.4,0.4,0.4,1,0,1.4
					l-0.5,0.5C127.7,131.3,127.1,131.3,126.7,130.9z"/>
				<path class="st25" d="M128.3,129.1L128.3,129.1c0.4-0.4,1-0.4,1.4,0l0.5,0.5c0.4,0.4,0.4,1,0,1.4l0,0c-0.4,0.4-1,0.4-1.4,0
					l-0.5-0.5C127.9,130.1,127.9,129.4,128.3,129.1z"/>
				<path class="st25" d="M126.7,127.5L126.7,127.5c0.4-0.4,1-0.4,1.4,0l0.5,0.5c0.4,0.4,0.4,1,0,1.4l0,0c-0.4,0.4-1,0.4-1.4,0
					l-0.5-0.5C126.4,128.5,126.4,127.9,126.7,127.5z"/>
				<path class="st5" d="M128.4,129.5L128.4,129.5c-0.6,0-1-0.4-1-0.9c0,0,0,0,0-0.1v-0.7c0-0.6,0.4-1,1-1c0,0,0,0,0.1,0l0,0
					c0.6,0,1,0.4,1,1v0.7C129.4,129,129,129.5,128.4,129.5z"/>
				<path class="st5" d="M128.4,131.8L128.4,131.8c-0.6,0-1.1-0.5-1.1-1.1V130c0-0.6,0.4-1,0.9-1.1c0,0,0.1,0,0.1,0l0,0
					c0.6,0,1,0.4,1,1c0,0,0,0,0,0.1v0.7C129.4,131.3,129,131.8,128.4,131.8z"/>
				<path class="st5" d="M128.2,129.2L128.2,129.2c0-0.6,0.5-1,1.1-1.1h0.7c0.6,0,1,0.5,1.1,1.1l0,0c0,0.6-0.4,1-0.9,1.1
					c0,0-0.1,0-0.1,0h-0.7C128.6,130.3,128.2,129.8,128.2,129.2z"/>
				<path class="st5" d="M125.9,129.2L125.9,129.2c0-0.6,0.4-1,1-1.1h0.7c0.6,0,1,0.5,1.1,1.1l0,0c0,0.6-0.4,1-0.9,1.1
					c0,0-0.1,0-0.1,0h-0.7C126.3,130.3,125.9,129.8,125.9,129.2C125.9,129.3,125.9,129.2,125.9,129.2z"/>
				<path class="st13" d="M129.6,129.2c0,0.6-0.5,1.1-1.1,1.1c-0.6,0-1.1-0.5-1.1-1.1c0-0.6,0.5-1.1,1.1-1.1l0,0
					C129.1,128.1,129.6,128.6,129.6,129.2z"/>
				<path class="st25" d="M118.6,132.8L118.6,132.8c-0.3-0.3-0.3-0.8,0-1.1c0,0,0,0,0,0l0.4-0.4c0.3-0.3,0.8-0.3,1.1,0l0,0
					c0.3,0.3,0.3,0.8,0,1.1l-0.4,0.4C119.4,133.1,118.9,133.1,118.6,132.8C118.6,132.8,118.6,132.8,118.6,132.8z"/>
				<path class="st25" d="M117.4,134L117.4,134c-0.3-0.3-0.3-0.8,0-1.1l0.4-0.4c0.3-0.3,0.8-0.3,1.1,0l0,0c0.3,0.3,0.3,0.8,0,1.1
					l-0.4,0.4C118.2,134.3,117.7,134.3,117.4,134z"/>
				<path class="st25" d="M118.6,132.5L118.6,132.5c0.3-0.3,0.8-0.3,1.1,0l0.4,0.4c0.3,0.3,0.3,0.8,0,1.1l0,0
					c-0.3,0.3-0.8,0.3-1.1,0l-0.4-0.4C118.3,133.3,118.3,132.8,118.6,132.5z"/>
				<path class="st25" d="M117.4,131.2L117.4,131.2c0.3-0.3,0.8-0.3,1.1,0l0.4,0.4c0.3,0.3,0.3,0.8,0,1.1c0,0,0,0,0,0l0,0
					c-0.3,0.3-0.8,0.3-1.1,0c0,0,0,0,0,0l-0.4-0.4C117.1,132.1,117.1,131.6,117.4,131.2z"/>
				<path class="st5" d="M118.8,132.8L118.8,132.8c-0.5,0-0.8-0.4-0.8-0.9l0,0v-0.6c0-0.5,0.4-0.9,0.8-0.9c0,0,0,0,0,0l0,0
					c0.5,0,0.8,0.4,0.8,0.9l0,0v0.6C119.6,132.5,119.2,132.8,118.8,132.8z"/>
				<path class="st5" d="M118.8,134.7L118.8,134.7c-0.5,0-0.8-0.4-0.8-0.9l0,0v-0.6c0-0.5,0.4-0.9,0.8-0.9c0,0,0,0,0,0l0,0
					c0.5,0,0.8,0.4,0.8,0.9l0,0v0.6C119.6,134.3,119.2,134.7,118.8,134.7C118.8,134.7,118.8,134.7,118.8,134.7z"/>
				<path class="st5" d="M118.5,132.6L118.5,132.6c0-0.5,0.4-0.9,0.9-0.9h0.6c0.5,0,0.8,0.4,0.8,0.9l0,0l0,0c0,0.5-0.4,0.9-0.8,0.9
					c0,0,0,0,0,0h-0.6C118.9,133.5,118.6,133.1,118.5,132.6C118.5,132.6,118.5,132.6,118.5,132.6z"/>
				<path class="st5" d="M116.7,132.6L116.7,132.6c0-0.5,0.4-0.9,0.8-0.9c0,0,0,0,0,0h0.6c0.5,0,0.8,0.4,0.8,0.9l0,0l0,0
					c0,0.5-0.4,0.9-0.8,0.9c0,0,0,0,0,0h-0.6C117.1,133.5,116.7,133.1,116.7,132.6L116.7,132.6z"/>
				<circle class="st13" cx="118.8" cy="132.6" r="0.9"/>
				<path class="st25" d="M134.8,101.2L134.8,101.2c-0.4-0.4-0.4-1,0-1.4l0.5-0.5c0.4-0.4,1-0.4,1.4,0l0,0c0.4,0.4,0.4,1,0,1.4
					l-0.5,0.5C135.8,101.6,135.1,101.6,134.8,101.2z"/>
				<path class="st25" d="M133.2,102.7L133.2,102.7c-0.4-0.4-0.4-1,0-1.4l0.5-0.5c0.4-0.4,1-0.4,1.4,0l0,0c0.4,0.4,0.4,1,0,1.4
					l-0.5,0.5C134.2,103.1,133.6,103.1,133.2,102.7z"/>
				<path class="st25" d="M134.8,100.9L134.8,100.9c0.4-0.4,1-0.4,1.4,0l0.5,0.5c0.4,0.4,0.4,1,0,1.4l0,0c-0.4,0.4-1,0.4-1.4,0
					l-0.5-0.5C134.4,101.9,134.4,101.3,134.8,100.9z"/>
				<path class="st25" d="M133.2,99.3L133.2,99.3c0.4-0.4,1-0.4,1.4,0l0.5,0.5c0.4,0.4,0.4,1,0,1.4l0,0c-0.4,0.4-1,0.4-1.4,0
					l-0.5-0.5C132.8,100.3,132.8,99.7,133.2,99.3z"/>
				<path class="st5" d="M134.9,101.3L134.9,101.3c-0.6,0-1-0.4-1-1c0,0,0,0,0-0.1v-0.7c0-0.6,0.4-1,1-1.1l0,0c0.6,0,1.1,0.5,1.1,1
					c0,0,0,0,0,0v0.7c0,0.6-0.4,1-0.9,1.1C135,101.3,135,101.3,134.9,101.3z"/>
				<path class="st5" d="M134.9,103.6L134.9,103.6c-0.5,0-1-0.5-1-1v-0.7c0-0.6,0.4-1,1-1l0,0c0.6,0,1,0.4,1,0.9c0,0,0,0,0,0.1v0.7
					C135.9,103.2,135.5,103.6,134.9,103.6z"/>
				<path class="st5" d="M134.7,101L134.7,101c0-0.6,0.5-1,1.1-1.1h0.7c0.6,0,1,0.5,1,1.1l0,0c0,0.5-0.5,1-1,1h-0.7
					C135.2,102,134.7,101.6,134.7,101z"/>
				<path class="st5" d="M132.4,101L132.4,101c0-0.6,0.4-1,1-1.1h0.7c0.6,0,1,0.5,1,1.1l0,0c0,0.5-0.5,1-1,1h-0.7
					C132.8,102,132.4,101.5,132.4,101z"/>
				<path class="st13" d="M136.1,101c0,0.6-0.5,1.1-1.1,1.1c-0.6,0-1.1-0.5-1.1-1.1c0-0.6,0.5-1.1,1.1-1.1c0,0,0,0,0,0
					C135.6,99.9,136.1,100.4,136.1,101z"/>
				<path class="st25" d="M133.6,116.8L133.6,116.8c-0.2-0.2-0.2-0.5,0-0.7c0,0,0,0,0,0l0.2-0.2c0.2-0.2,0.5-0.2,0.7,0l0,0
					c0.2,0.2,0.2,0.5,0,0.7l-0.2,0.2C134.1,117,133.8,117,133.6,116.8C133.6,116.8,133.6,116.8,133.6,116.8z"/>
				<path class="st25" d="M132.9,117.6L132.9,117.6c-0.2-0.2-0.2-0.5,0-0.7c0,0,0,0,0,0l0.2-0.2c0.2-0.2,0.5-0.2,0.7,0c0,0,0,0,0,0
					l0,0c0.2,0.2,0.2,0.5,0,0.7c0,0,0,0,0,0l-0.2,0.2C133.4,117.7,133.1,117.7,132.9,117.6C132.9,117.6,132.9,117.6,132.9,117.6z"/>
				<path class="st25" d="M133.6,116.6L133.6,116.6c0.2-0.2,0.5-0.2,0.7,0c0,0,0,0,0,0l0.2,0.2c0.2,0.2,0.2,0.5,0,0.7l0,0
					c-0.2,0.2-0.5,0.2-0.7,0c0,0,0,0,0,0l-0.2-0.2C133.4,117.1,133.4,116.8,133.6,116.6C133.6,116.6,133.6,116.6,133.6,116.6z"/>
				<path class="st25" d="M132.9,115.9L132.9,115.9c0.2-0.2,0.5-0.2,0.7,0l0.2,0.2c0.2,0.2,0.2,0.5,0,0.7c0,0,0,0,0,0l0,0
					c-0.2,0.2-0.5,0.2-0.7,0c0,0,0,0,0,0l-0.2-0.2C132.7,116.4,132.7,116.1,132.9,115.9C132.9,115.9,132.9,115.9,132.9,115.9z"/>
				<path class="st5" d="M133.7,116.8L133.7,116.8c-0.3,0-0.5-0.2-0.5-0.5c0,0,0,0,0,0V116c0-0.3,0.2-0.5,0.5-0.5l0,0
					c0.3,0,0.5,0.2,0.5,0.5v0.3C134.2,116.6,134,116.9,133.7,116.8z"/>
				<path class="st5" d="M133.7,118L133.7,118c-0.3,0-0.5-0.2-0.5-0.5v-0.3c0-0.3,0.2-0.5,0.5-0.5l0,0c0.3,0,0.5,0.2,0.5,0.5v0.3
					C134.2,117.8,134,118,133.7,118z"/>
				<path class="st5" d="M133.6,116.7L133.6,116.7c0-0.3,0.2-0.5,0.5-0.5c0,0,0,0,0,0h0.3c0.3,0,0.5,0.2,0.5,0.5c0,0,0,0,0,0l0,0
					c0,0.3-0.2,0.5-0.5,0.5c0,0,0,0,0,0h-0.3C133.8,117.2,133.6,117,133.6,116.7C133.6,116.7,133.6,116.7,133.6,116.7z"/>
				<path class="st5" d="M132.5,116.7L132.5,116.7c0-0.3,0.2-0.5,0.5-0.5h0.4c0.3,0,0.5,0.2,0.5,0.5l0,0c0,0.3-0.2,0.5-0.5,0.5H133
					C132.7,117.2,132.5,117,132.5,116.7C132.5,116.7,132.5,116.7,132.5,116.7z"/>
				<circle class="st13" cx="133.7" cy="116.7" r="0.5"/>
				<path class="st25" d="M118.3,116.8L118.3,116.8c-0.2-0.2-0.2-0.5,0-0.7c0,0,0,0,0,0l0.2-0.2c0.2-0.2,0.5-0.2,0.7,0l0,0
					c0.2,0.2,0.2,0.5,0,0.7l-0.2,0.2C118.8,117,118.5,117,118.3,116.8C118.3,116.8,118.3,116.8,118.3,116.8z"/>
				<path class="st25" d="M117.6,117.6L117.6,117.6c-0.2-0.2-0.2-0.5,0-0.7c0,0,0,0,0,0l0.2-0.2c0.2-0.2,0.5-0.2,0.7,0c0,0,0,0,0,0
					l0,0c0.2,0.2,0.2,0.5,0,0.7c0,0,0,0,0,0l-0.2,0.2C118.1,117.7,117.8,117.7,117.6,117.6C117.6,117.6,117.6,117.6,117.6,117.6z"/>
				<path class="st25" d="M118.3,116.6L118.3,116.6c0.2-0.2,0.5-0.2,0.7,0c0,0,0,0,0,0l0.2,0.2c0.2,0.2,0.2,0.5,0,0.7l0,0
					c-0.2,0.2-0.5,0.2-0.7,0c0,0,0,0,0,0l-0.2-0.2C118.2,117.1,118.2,116.8,118.3,116.6C118.3,116.6,118.3,116.6,118.3,116.6z"/>
				<path class="st25" d="M117.6,115.9L117.6,115.9c0.2-0.2,0.5-0.2,0.7,0l0.2,0.2c0.2,0.2,0.2,0.5,0,0.7c0,0,0,0,0,0l0,0
					c-0.2,0.2-0.5,0.2-0.7,0c0,0,0,0,0,0l-0.2-0.2C117.4,116.4,117.4,116.1,117.6,115.9C117.6,115.9,117.6,115.9,117.6,115.9z"/>
				<path class="st5" d="M118.4,116.8L118.4,116.8c-0.3,0-0.5-0.2-0.5-0.5c0,0,0,0,0,0V116c0-0.3,0.2-0.5,0.5-0.5c0,0,0,0,0,0l0,0
					c0.3,0,0.5,0.2,0.5,0.5c0,0,0,0,0,0v0.3C118.9,116.6,118.7,116.9,118.4,116.8z"/>
				<path class="st5" d="M118.4,118L118.4,118c-0.3,0-0.5-0.2-0.5-0.5c0,0,0,0,0,0v-0.3c0-0.3,0.2-0.5,0.5-0.5c0,0,0,0,0,0l0,0
					c0.3,0,0.5,0.2,0.5,0.5c0,0,0,0,0,0v0.3C118.9,117.8,118.7,118,118.4,118C118.4,118,118.4,118,118.4,118z"/>
				<path class="st5" d="M118.3,116.7L118.3,116.7c0-0.3,0.2-0.5,0.5-0.5c0,0,0,0,0,0h0.3c0.3,0,0.5,0.2,0.5,0.5c0,0,0,0,0,0l0,0
					c0,0.3-0.2,0.5-0.5,0.5c0,0,0,0,0,0h-0.3C118.5,117.2,118.3,117,118.3,116.7C118.3,116.7,118.3,116.7,118.3,116.7z"/>
				<path class="st5" d="M117.2,116.7L117.2,116.7c0-0.3,0.2-0.5,0.5-0.5c0,0,0,0,0,0h0.3c0.3,0,0.5,0.2,0.5,0.5c0,0,0,0,0,0l0,0
					c0,0.3-0.2,0.5-0.5,0.5c0,0,0,0,0,0h-0.3C117.4,117.2,117.2,117,117.2,116.7z"/>
				<path class="st13" d="M119,116.7c0,0.3-0.2,0.5-0.5,0.5c-0.3,0-0.5-0.2-0.5-0.5c0-0.3,0.2-0.5,0.5-0.5
					C118.8,116.2,119,116.4,119,116.7z"/>
				<path class="st26" d="M96.3,171.6l-0.1,17.6c0,8.3,6,15.5,14.2,16.9v12.7l-7.1,4.9c0,0,1.8,1.4,9.9,1.4l0,0c8.1,0,10-1.5,10-1.5
					l-7.1-4.9V206c8.1-1.4,14-8.4,14.1-16.6l0.1-17.6L96.3,171.6z"/>
				<path class="st26" d="M135.9,178.9l-0.1,12.8c0,6.1,4.3,11.3,10.3,12.3v9.3l-5.2,3.6c0,0,1.3,1.1,7.2,1.1l0,0
					c5.9,0,7.3-1.1,7.3-1.1l-5.2-3.5V204c5.9-1,10.2-6.1,10.2-12.1l0.1-12.8L135.9,178.9z"/>
				<path class="st26" d="M65.6,178.9l-0.1,12.8c0,6.1,4.3,11.3,10.3,12.3v9.3l-5.2,3.6c0,0,1.3,1.1,7.2,1.1l0,0
					c5.9,0,7.3-1.1,7.3-1.1l-5.2-3.6V204c5.9-1,10.2-6.1,10.2-12.1l0.1-12.8L65.6,178.9z"/>
				<path class="st27" d="M198.5,258.1c-0.5,0-0.9,0.4-0.9,0.9v0.5c0,0.6-0.5,1.1-1.1,1.1c0,0,0,0-0.1,0c-0.6,0-1.1-0.5-1.1-1.1
					v-0.2c0-0.3-0.1-0.6-0.3-0.8c-0.3-0.2-0.6-0.4-0.9-0.3c-0.6,0.1-1,0.6-1,1.1v0.2c0,0.6-0.5,1.1-1.1,1.1c-0.6,0-1.1-0.5-1.2-1.1
					c0,0,0,0,0,0v-0.2c0-0.3-0.1-0.6-0.3-0.8c-0.3-0.2-0.6-0.4-0.9-0.3c-0.6,0.1-1,0.6-1,1.1v0.2c0,0.6-0.5,1.1-1.1,1.1
					s-1.1-0.5-1.1-1.1c0,0,0,0,0,0v-0.2c0-0.3-0.1-0.6-0.3-0.8c-0.4-0.4-1.1-0.4-1.6,0c-0.2,0.2-0.3,0.5-0.3,0.8v0.2
					c0,0.6-0.5,1.1-1.1,1.1c-0.6,0-1.1-0.4-1.2-1.1c0,0,0,0,0-0.1v-0.2c0-0.3-0.1-0.6-0.3-0.8c-0.3-0.2-0.6-0.4-0.9-0.3
					c-0.6,0.1-1,0.6-1,1.1v0.2c0,0.6-0.5,1.1-1.1,1.1c-0.6,0-1.1-0.4-1.2-1.1c0,0,0,0,0-0.1v-0.5c0-0.5-0.4-0.9-0.9-0.9
					s-0.9,0.4-0.9,0.9v4.4c0,0.5,0.4,0.9,0.9,0.9s0.9-0.4,0.9-0.9v0.2h20.1v-2.2l0,0v2c-0.1,0.5,0.3,0.9,0.8,0.9
					c0.5,0.1,0.9-0.3,0.9-0.8c0-0.1,0-0.1,0-0.2V259C199.3,258.5,198.9,258.1,198.5,258.1z"/>
				<path class="st27" d="M52.3,258.7c-0.5,0-0.9,0.4-0.9,0.8c0,0,0,0,0,0v0.5c0,0.6-0.5,1.1-1.1,1.1c0,0,0,0,0,0
					c-0.6,0-1.1-0.5-1.1-1.1v-0.2c0-0.6-0.5-1.1-1.1-1.1c0,0-0.1,0-0.1,0c-0.6,0.1-1,0.6-1,1.1v0.2c0,0.6-0.5,1.1-1.1,1.1
					c-0.6,0-1.2-0.5-1.2-1.1c0,0,0,0,0-0.1v-0.2c0-0.3-0.1-0.6-0.3-0.8c-0.2-0.2-0.6-0.4-0.9-0.3c-0.6,0.1-1,0.6-1,1.1v0.2
					c0.1,0.6-0.4,1.2-1,1.2c-0.6,0.1-1.2-0.4-1.2-1c0-0.1,0-0.1,0-0.2v-0.2c0-0.6-0.5-1.1-1.1-1.1c-0.1,0-0.1,0-0.2,0
					c-0.6,0.1-1,0.6-1,1.1v0.2c0,0.6-0.4,1.1-1,1.1c-0.6,0-1.1-0.5-1.2-1.1c0,0,0,0,0-0.1v-0.2c0-0.6-0.5-1.1-1.1-1.1
					c0,0-0.1,0-0.1,0c-0.6,0.1-1,0.6-1,1.1v0.2c0,0.6-0.5,1.1-1.1,1.1c-0.6,0-1.1-0.5-1.1-1.1c0,0,0,0,0,0v-0.5
					c0.1-0.5-0.3-0.9-0.8-0.9c-0.5-0.1-0.9,0.3-0.9,0.8c0,0.1,0,0.1,0,0.2v4.5c0.1,0.5,0.5,0.8,0.9,0.8c0.4,0,0.7-0.4,0.8-0.8v0.2
					h20.1V262l0,0c0,0,0,0,0-0.1v2c0,0.5,0.4,0.9,0.8,0.9h0c0.5,0,0.9-0.4,0.9-0.9v-4.4C53.1,259,52.8,258.7,52.3,258.7z"/>
				<rect x="23.7" y="261.7" class="st8" width="178.2" height="57.6"/>
				<path class="st13" d="M153.6,246.1c-2,0-3.6-1.6-3.6-3.5c0-1,0.5-2,1.2-2.7c0.2-0.1,9.5-8.4,8.9-17.9
					c-0.4-5.6-4.1-10.8-11.2-15.5c-1.6-1.1-2.1-3.3-1-4.9c1.1-1.6,3.3-2.1,4.9-1l0,0c9.1,6,13.9,13.1,14.4,21
					c0.8,13.1-10.9,23.3-11.4,23.7C155.3,245.8,154.5,246.1,153.6,246.1z"/>
				<path class="st13" d="M142.9,246c-0.8,0-1.7-0.3-2.3-0.8c-0.5-0.4-12.1-10.4-11.3-23.4c0.5-7.9,5.3-15,14.4-21
					c1.6-1.1,3.8-0.8,5,0.8c1.1,1.6,0.8,3.8-0.8,5c-0.1,0.1-0.2,0.1-0.2,0.2c-7.1,4.7-10.9,9.9-11.3,15.5c-0.3,4.9,2.1,9.3,4.1,12.2
					c1.4,1.9,2.9,3.7,4.7,5.3c1.5,1.3,1.7,3.5,0.4,5C144.9,245.5,143.9,246,142.9,246L142.9,246z"/>
				<path class="st27" d="M130.2,256.7h0.9c0.5,0,0.9,0.4,0.9,0.9v7.8c0,0.5-0.4,0.9-0.9,0.9h-0.9c-0.5,0-0.9-0.4-0.9-0.9v-7.8
					C129.3,257,129.7,256.7,130.2,256.7z"/>
				<path class="st27" d="M163.9,256.7h0.9c0.5,0,0.9,0.4,0.9,0.9v7.8c0,0.5-0.4,0.9-0.9,0.9h-0.9c-0.5,0-0.9-0.4-0.9-0.9v-7.8
					C163.1,257,163.5,256.7,163.9,256.7z"/>
				<path class="st27" d="M161.3,260.5c-0.9-0.1-1.7-0.8-1.7-1.8v-0.3c0-0.5-0.2-0.9-0.5-1.2c-0.7-0.7-1.8-0.7-2.4,0
					c-0.3,0.3-0.5,0.8-0.5,1.3v0.3c0,1-0.7,1.7-1.7,1.8c-1,0-1.7-0.7-1.8-1.7l0,0v-0.4c0-1-0.8-1.7-1.8-1.7c-1,0-1.7,0.8-1.7,1.8
					v0.3c0.1,0.9-0.6,1.8-1.6,1.8c-0.9,0.1-1.8-0.6-1.8-1.6c0-0.1,0-0.2,0-0.3v-0.4c0-0.5-0.2-0.9-0.5-1.2c-0.7-0.7-1.8-0.7-2.4,0
					c-0.3,0.3-0.5,0.8-0.5,1.3v0.3c0,0.9-0.7,1.7-1.7,1.8c-1,0-1.8-0.7-1.8-1.7c0,0,0,0,0,0v-0.4c0-1-0.8-1.7-1.8-1.7
					c-1,0-1.7,0.8-1.7,1.8v0.3c0,0.9-0.7,1.7-1.7,1.8c-1,0-1.8-0.7-1.8-1.7c0,0,0,0,0,0v6.4h31.1v-3.3l0,0c0,0,0-0.1,0-0.1v-2.9
					C163,259.7,162.3,260.5,161.3,260.5C161.3,260.5,161.3,260.5,161.3,260.5z"/>
				<rect x="137" y="241.1" class="st13" width="22.4" height="25.6"/>
				<path class="st15" d="M148,213.6L148,213.6c7.6,0,13.9,6.2,13.9,13.8v0v18.7c0,2.7-2.2,4.8-4.8,4.8l0,0h-18
					c-2.7,0-4.8-2.2-4.8-4.8l0,0v-18.7C134.1,219.9,140.3,213.7,148,213.6C147.9,213.6,147.9,213.6,148,213.6z"/>
				<path class="st6" d="M169.5,264.5c-1.5,0-2.8-1.2-2.8-2.8v-0.6c0-0.7-0.3-1.4-0.8-1.9c-1.1-1.1-2.8-1.1-3.9,0
					c-0.5,0.5-0.8,1.2-0.8,2v0.6c0,1.5-1.2,2.8-2.8,2.8c-1.5,0-2.8-1.2-2.8-2.8v-0.6c0-0.7-0.3-1.4-0.8-1.9c-1.1-1.1-2.8-1.1-3.9,0
					c-0.5,0.5-0.8,1.2-0.8,2v0.6c0.1,1.5-1.1,2.8-2.6,2.9c-1.5,0.1-2.8-1.1-2.9-2.6c0-0.1,0-0.2,0-0.3v-0.6c0-0.7-0.3-1.4-0.8-1.9
					c-1.1-1.1-2.8-1.1-3.9,0c-0.5,0.5-0.8,1.2-0.8,1.9v0.6c0.1,1.5-1.1,2.8-2.6,2.9s-2.8-1.1-2.9-2.6c0-0.1,0-0.2,0-0.3v-0.6
					c0-0.7-0.3-1.4-0.8-1.9c-1.1-1.1-2.8-1.1-3.9,0c-0.5,0.5-0.8,1.2-0.8,2v0.6c0,1.5-1.2,2.8-2.8,2.8c-1.5,0-2.8-1.2-2.8-2.8v10.2
					h49.5v-5.3c0-0.1,0-0.1,0-0.2v-4.7C172.3,263.3,171.1,264.5,169.5,264.5z"/>
				<path class="st13" d="M84,246.1c-2,0-3.6-1.6-3.6-3.5c0-1,0.5-2,1.2-2.7l0,0c0.1-0.1,9.6-8.4,8.9-17.9
					c-0.4-5.6-4.1-10.8-11.2-15.5c-1.6-1.1-2.1-3.3-1-4.9s3.3-2.1,4.9-1l0,0c9.1,6,13.9,13.1,14.4,21c0.8,13.1-10.9,23.3-11.4,23.7
					C85.7,245.8,84.8,246.1,84,246.1z"/>
				<path class="st13" d="M73.3,246.1c-0.8,0-1.7-0.3-2.3-0.8c-0.5-0.4-12.1-10.4-11.3-23.4c0.5-7.9,5.3-15,14.4-21
					c1.7-1,3.9-0.4,4.8,1.3c0.9,1.6,0.5,3.5-0.9,4.6c-7.1,4.7-10.9,9.9-11.3,15.5c-0.6,9.4,8.7,17.5,8.8,17.6c1.5,1.3,1.7,3.5,0.4,5
					C75.3,245.7,74.3,246.1,73.3,246.1L73.3,246.1z"/>
				<path class="st27" d="M60.6,256.7h0.9c0.5,0,0.9,0.4,0.9,0.9v7.8c0,0.5-0.4,0.9-0.9,0.9h-0.9c-0.5,0-0.9-0.4-0.9-0.9v-7.8
					C59.7,257,60.1,256.7,60.6,256.7z"/>
				<path class="st28" d="M94.3,256.7h0.9c0.5,0,0.9,0.4,0.9,0.9v7.8c0,0.5-0.4,0.9-0.9,0.9h-0.9c-0.5,0-0.9-0.4-0.9-0.9v-7.8
					C93.5,257,93.9,256.7,94.3,256.7z"/>
				<path class="st27" d="M91.7,260.5c-0.9,0-1.7-0.8-1.7-1.8v-0.3c0.1-1-0.7-1.8-1.6-1.8c-1-0.1-1.8,0.7-1.8,1.6c0,0.1,0,0.2,0,0.3
					v0.3c0,1-0.7,1.7-1.7,1.8c-1,0-1.7-0.7-1.8-1.7l0,0v-0.4c0-1-0.8-1.7-1.8-1.7c-1,0-1.7,0.8-1.7,1.8v0.3c0.1,0.9-0.6,1.8-1.6,1.8
					c-0.9,0.1-1.8-0.6-1.8-1.6c0-0.1,0-0.2,0-0.3v-0.4c0-1-0.8-1.7-1.8-1.7c-1,0-1.7,0.8-1.7,1.8v0.3c0,1-0.7,1.7-1.7,1.8
					c-1,0-1.7-0.7-1.8-1.7l0,0v-0.4c0-1-0.8-1.7-1.8-1.7c-1,0-1.7,0.8-1.7,1.8v0.3c0,1-0.7,1.7-1.7,1.8c-1,0-1.7-0.7-1.8-1.7l0,0
					v6.4h31.1v-3.3l0,0v-3C93.5,259.7,92.7,260.5,91.7,260.5C91.7,260.5,91.7,260.5,91.7,260.5z"/>
				<rect x="67.4" y="241.1" class="st13" width="22.4" height="25.6"/>
				<path class="st15" d="M87.4,251h-18c-2.7,0-4.8-2.2-4.8-4.8l0,0v-18.7c0-7.6,6.2-13.8,13.9-13.9l0,0c7.6,0,13.8,6.2,13.8,13.9
					v18.7C92.3,248.8,90.1,251,87.4,251C87.4,251,87.4,251,87.4,251z"/>
				<path class="st6" d="M99.9,264.5c-1.5,0-2.8-1.2-2.8-2.8v-0.6c0-0.7-0.3-1.4-0.8-1.9c-1.1-1.1-2.8-1.1-3.9,0
					c-0.5,0.5-0.8,1.2-0.8,1.9v0.6c0.1,1.5-1.1,2.8-2.6,2.9s-2.8-1.1-2.9-2.6c0-0.1,0-0.2,0-0.3v-0.6c0-0.7-0.3-1.4-0.8-1.9
					c-1.1-1.1-2.8-1.1-3.9,0c-0.5,0.5-0.8,1.2-0.8,2v0.6c0,1.5-1.2,2.7-2.7,2.7s-2.7-1.2-2.7-2.7v-0.6c0-0.7-0.3-1.4-0.8-1.9
					c-1.1-1.1-2.8-1.1-3.9,0c-0.5,0.5-0.8,1.2-0.8,2v0.6c0.1,1.5-1.1,2.8-2.6,2.9s-2.8-1.1-2.9-2.6c0-0.1,0-0.2,0-0.3v-0.6
					c0-0.7-0.3-1.4-0.8-1.9c-1.1-1.1-2.8-1.1-3.9,0c-0.5,0.5-0.8,1.2-0.8,1.9v0.6c0.1,1.5-1.1,2.8-2.6,2.9c-1.5,0.1-2.8-1.1-2.9-2.6
					c0-0.1,0-0.2,0-0.3v10.2h49.5v-5.3c0,0,0-0.1,0-0.2v-4.7C102.7,263.3,101.5,264.5,99.9,264.5z"/>
				<path class="st13" d="M120.4,261.7c-2,0-3.5-1.6-3.5-3.6c0-1,0.5-2,1.2-2.7l0,0c0.1-0.1,13.3-11.6,12.5-25.2
					c-0.5-7.9-5.8-15.3-15.7-21.8c-1.7-1-2.2-3.2-1.2-4.9s3.2-2.2,4.9-1.2c0.1,0,0.2,0.1,0.2,0.2c11.9,7.9,18.2,17.1,18.9,27.3
					c1,17.1-14.3,30.4-15,31C122,261.4,121.2,261.7,120.4,261.7z"/>
				<path class="st13" d="M105.9,261.7c-0.8,0-1.7-0.3-2.3-0.8c-0.7-0.5-15.8-13.6-14.8-30.6c0.6-10.3,7-19.5,18.9-27.4
					c1.6-1.1,3.8-0.6,4.9,1c1.1,1.6,0.6,3.8-1,4.9l0,0c-10,6.6-15.3,14-15.7,21.9c-0.8,13.4,12.2,24.6,12.3,24.7
					c1.5,1.3,1.7,3.5,0.4,5C107.9,261.3,106.9,261.7,105.9,261.7z"/>
				<path class="st27" d="M88.8,277.2H90c0.6,0,1.2,0.5,1.2,1.2v10.5c0,0.6-0.5,1.2-1.2,1.2h-1.2c-0.6,0-1.2-0.5-1.2-1.2v-10.5
					C87.6,277.7,88.1,277.2,88.8,277.2z"/>
				<path class="st27" d="M134.3,277.2h1.2c0.6,0,1.2,0.5,1.2,1.2v10.5c0,0.6-0.5,1.2-1.2,1.2h-1.2c-0.6,0-1.2-0.5-1.2-1.2v-10.5
					C133.1,277.7,133.6,277.2,134.3,277.2z"/>
				<path class="st27" d="M130.7,282.3c-1.3-0.1-2.3-1.1-2.2-2.4v-0.4c0-1.3-1-2.3-2.3-2.3c-0.1,0-0.2,0-0.3,0c-1.2,0.2-2,1.2-2,2.4
					v0.4c0,1.3-1,2.3-2.2,2.4c-1.3,0-2.4-1-2.4-2.3c0,0,0,0,0-0.1v-0.5c0-0.6-0.2-1.2-0.7-1.6c-0.9-0.9-2.4-0.9-3.3,0
					c-0.5,0.5-0.7,1.1-0.7,1.8v0.4c0,1.3-1,2.3-2.3,2.3c-1.3,0-2.3-1-2.3-2.3c0,0,0,0,0,0v-0.5c0-1.3-1.1-2.3-2.4-2.3
					c-0.1,0-0.2,0-0.3,0c-1.2,0.2-2,1.2-2,2.4v0.4c0,1.3-1,2.3-2.2,2.4c-1.3,0-2.4-1-2.4-2.2c0,0,0-0.1,0-0.1v-0.5
					c0-0.6-0.2-1.2-0.7-1.6c-0.9-0.9-2.4-0.9-3.3,0c-0.5,0.5-0.7,1.1-0.7,1.8v0.4c0,1.3-1,2.3-2.2,2.4c-1.3,0.1-2.4-0.9-2.4-2.2
					c0,0,0-0.1,0-0.1v8.6h41.9v-4.5l0,0c0,0,0-0.1,0-0.1v-4c0,1.3-1,2.4-2.3,2.4C130.8,282.3,130.7,282.3,130.7,282.3z"/>
				<rect x="98" y="256.2" class="st13" width="30.2" height="34.5"/>
				<path class="st15" d="M112.7,219.2L112.7,219.2c10.3,0,18.7,8.4,18.7,18.7l0,0V263c0,3.6-2.9,6.5-6.5,6.5l0,0h-24.4
					c-3.6,0-6.5-2.9-6.5-6.5l0,0v-25.1C94,227.5,102.4,219.2,112.7,219.2L112.7,219.2z"/>
				<path class="st6" d="M137.2,287.9c-1.7,0-3.1-1.4-3.1-3.1v-0.7c0-1.7-1.4-3.1-3.1-3.1c-1.7,0-3.1,1.4-3.1,3.1v0.7
					c0,1.7-1.4,3.1-3.1,3.1c-1.7,0-3.1-1.4-3.1-3.1v-0.7c0-0.8-0.3-1.6-0.9-2.2c-1.2-1.2-3.2-1.2-4.4,0c-0.6,0.6-0.9,1.4-0.9,2.2
					v0.7c0.1,1.7-1.2,3.2-2.9,3.3c-1.7,0.1-3.2-1.2-3.3-2.9c0-0.1,0-0.2,0-0.4v-0.7c0-1.7-1.4-3.1-3.1-3.1c-1.7,0-3.1,1.4-3.1,3.1
					v0.7c0,1.7-1.4,3.1-3.1,3.1c-1.7,0-3.1-1.4-3.1-3.1v-0.7c0-1.7-1.4-3.1-3.1-3.1c-1.7,0-3.1,1.4-3.1,3.1v0.7
					c0,1.7-1.4,3.1-3.1,3.1c-1.7,0-3.1-1.4-3.1-3.1v11.6h56.4v-6.1c0-0.1,0-0.1,0-0.2v-5.3C140.3,286.5,138.9,287.9,137.2,287.9z"/>
				<path class="st29" d="M54.8,241c0-1.5-0.3-3-0.8-4.4c-2.4,6.4-9.6,9.7-16,7.2c-3.3-1.3-6-3.9-7.2-7.2
					c-2.2,5.9,0.3,12.5,5.8,15.4c-0.1,7.1-3,12.6-3.8,13.3h16.4c-2.4-6.5-2-11.3-1.7-13C51.9,250.2,54.7,245.8,54.8,241z"/>
				<path class="st6" d="M49.9,262.6c-0.7,0-1.2-0.5-1.2-1.2v-0.2c0-0.3-0.1-0.6-0.3-0.8c-0.2-0.2-0.5-0.3-0.8-0.3
					c-0.6,0-1.2,0.5-1.2,1.2v0.2c0.1,0.6-0.4,1.2-1.1,1.3s-1.2-0.4-1.3-1.1c0-0.1,0-0.1,0-0.2v-0.2c0-0.7-0.5-1.2-1.2-1.2
					s-1.2,0.5-1.2,1.2v0.2c0.1,0.6-0.4,1.2-1.1,1.3c-0.6,0.1-1.2-0.4-1.3-1.1c0-0.1,0-0.1,0-0.2v-0.2c0-0.3-0.1-0.6-0.3-0.8
					c-0.2-0.2-0.5-0.3-0.8-0.3c-0.6,0-1.1,0.5-1.1,1.2v0.2c0,0.7-0.5,1.2-1.2,1.2s-1.2-0.5-1.2-1.2v-0.2c0-0.3-0.1-0.6-0.3-0.8
					c-0.2-0.2-0.5-0.3-0.8-0.3c-0.6,0-1.2,0.5-1.2,1.2v0.2c0,0.7-0.5,1.2-1.2,1.2c-0.6,0-1.2,0.6-1.2,0v3.2h21.2v-3.3
					C51.1,263.1,50.5,262.6,49.9,262.6z"/>
				<path class="st29" d="M200.9,239.7c0-1.5-0.3-3-0.8-4.4c-2.4,6.4-9.6,9.7-16,7.2c-3.3-1.3-6-3.9-7.2-7.2
					c-2.2,5.9,0.3,12.5,5.8,15.4c-0.1,7.1-3,12.6-3.8,13.3h16.4c-1.7-4.1-2.3-8.6-1.7-13C198.1,248.9,200.9,244.5,200.9,239.7z"/>
				<path class="st6" d="M196.1,262c-0.7,0-1.2-0.5-1.2-1.2v-0.2c0-0.3-0.1-0.6-0.4-0.8c-0.2-0.2-0.5-0.4-0.8-0.4
					c-0.7,0-1.2,0.5-1.2,1.2v0.2c0,0.7-0.5,1.2-1.2,1.2c-0.7,0-1.2-0.5-1.2-1.2v-0.2c0-0.6-0.5-1.2-1.2-1.2c-0.7,0-1.2,0.5-1.2,1.2
					v0.2c0.1,0.6-0.4,1.2-1.1,1.3s-1.2-0.4-1.3-1.1c0-0.1,0-0.1,0-0.2v-0.2c0-0.3-0.1-0.6-0.3-0.8c-0.2-0.2-0.5-0.3-0.8-0.4
					c-0.7,0-1.2,0.5-1.2,1.2v0.2c0,0.7-0.5,1.2-1.2,1.2c-0.7,0-1.2-0.5-1.2-1.2v-0.2c0-0.3-0.1-0.6-0.4-0.8
					c-0.2-0.2-0.5-0.4-0.8-0.4c-0.7,0-1.2,0.5-1.2,1.2v0.2c0,0.7-0.5,1.2-1.2,1.2c-0.6,0-1.2,0.6-1.2,0v3.2h21.2v-2.3c0,0,0,0,0-0.1
					v-1C197.3,262.5,196.7,262,196.1,262z"/>
				<path class="st28" d="M176.1,295.2c-0.5,0-0.9,0.4-0.9,0.9v0.5c0.1,0.6-0.4,1.2-1,1.2c-0.6,0.1-1.2-0.4-1.2-1c0-0.1,0-0.1,0-0.2
					v-0.2c0-0.6-0.5-1.1-1.1-1.1c0,0-0.1,0-0.1,0c-0.6,0.1-1,0.6-1,1.1v0.2c0,0.6-0.5,1.1-1.1,1.1c-0.6,0-1.1-0.5-1.2-1.1
					c0,0,0,0,0,0v-0.2c0-0.6-0.5-1.1-1.1-1.1c0,0-0.1,0-0.1,0c-0.6,0.1-1,0.6-1,1.1v0.2c0,0.6-0.5,1.1-1.1,1.1s-1.1-0.5-1.1-1.1
					c0,0,0,0,0,0v-0.2c0-0.3-0.1-0.6-0.3-0.8c-0.2-0.3-0.6-0.4-0.9-0.3c-0.6,0.1-1,0.6-1,1.1v0.2c0.1,0.6-0.4,1.2-1,1.2
					c-0.6,0.1-1.2-0.4-1.2-1c0-0.1,0-0.1,0-0.2v-0.2c0-0.3-0.1-0.6-0.3-0.8c-0.2-0.3-0.6-0.4-0.9-0.3c-0.6,0.1-1,0.6-1,1.1v0.2
					c0.1,0.6-0.4,1.2-1,1.2c-0.6,0.1-1.2-0.4-1.2-1c0-0.1,0-0.1,0-0.2v-0.5c0-0.5-0.4-0.9-0.9-0.9s-0.9,0.4-0.9,0.9v4.4
					c0,0.5,0.4,0.9,0.9,0.9s0.9-0.4,0.9-0.9v0.2h20.1v-2.2l0,0v2c-0.1,0.5,0.3,0.9,0.8,0.9c0.5,0.1,0.9-0.3,0.9-0.8
					c0-0.1,0-0.1,0-0.2v-4.4C176.9,295.7,176.6,295.3,176.1,295.2z"/>
				<path class="st29" d="M182.5,272.6c0-2-0.4-3.9-1.1-5.8c-3.2,8.4-12.6,12.6-20.9,9.4c-4.3-1.6-7.7-5.1-9.4-9.4
					c-2.9,7.6,0.3,16.3,7.6,20.1c-0.1,9.3-3.9,16.4-4.9,17.3h21.4c-3.2-8.5-2.5-14.8-2.2-16.9C178.8,284.7,182.5,278.9,182.5,272.6z
					"/>
				<path class="st30" d="M178.9,301.9c-1,0-1.8-0.8-1.8-1.8v-0.4c0-1-0.8-1.8-1.8-1.8s-1.8,0.8-1.8,1.8v0.4c0,1-0.8,1.8-1.8,1.8
					c-1,0-1.8-0.8-1.8-1.8v-0.4c0-1-0.8-1.8-1.8-1.8s-1.8,0.8-1.8,1.8v0.4c0.1,1-0.7,1.8-1.6,1.9s-1.8-0.7-1.9-1.6
					c0-0.1,0-0.2,0-0.3v-0.4c0-1-0.8-1.8-1.8-1.8s-1.8,0.8-1.8,1.8v0.4c0,1-0.8,1.8-1.8,1.8c-1,0-1.8-0.8-1.8-1.8v-0.4
					c0-1-0.8-1.8-1.8-1.8s-1.8,0.8-1.8,1.8v0.4c0,1-0.8,1.8-1.8,1.8c-1,0-1.8,1-1.8,0v4.8h32v-5
					C180.7,302.7,179.9,301.9,178.9,301.9z"/>
				<path class="st13" d="M168.8,70.6c0,6-4,11.3-9.8,13c1.3,0.4,2.7,0.5,4.1,0.5c7.4-0.3,13.2-6.6,12.9-14.1
					c-0.3-7.4-6.6-13.2-14.1-12.9c-1,0-2,0.2-3,0.5C164.8,59.3,168.8,64.5,168.8,70.6z"/>
				<path class="st7" d="M59,196.6H38.6c-1.1,0-2.1-0.9-2.1-2.1l0,0l0,0c0-1.1,0.9-2.1,2.1-2.1c0,0,0,0,0,0H59
					c1.1,0,2.1,0.9,2.1,2.1l0,0l0,0C61.1,195.7,60.1,196.6,59,196.6C59,196.6,59,196.6,59,196.6z"/>
			</g>
		</g>
		<path class="st13" d="M50.3,63.8c0,0.4-0.3,0.6-0.7,0.6S49,64.2,49,63.8c0-0.4,0.3-0.6,0.6-0.6C50,63.2,50.3,63.5,50.3,63.8
			L50.3,63.8z"/>
		<path class="st13" d="M58.5,82.8c0,0.4-0.3,0.7-0.7,0.7c-0.4,0-0.6-0.3-0.6-0.7c0-0.4,0.3-0.7,0.6-0.7
			C58.2,82.2,58.5,82.5,58.5,82.8L58.5,82.8z"/>
		<path class="st13" d="M101.7,65.1c0,0.4-0.3,0.6-0.7,0.6c-0.4,0-0.6-0.3-0.6-0.7c0-0.4,0.3-0.6,0.7-0.6c0,0,0,0,0,0
			C101.4,64.5,101.7,64.8,101.7,65.1z"/>
		<path class="st13" d="M79.4,51.4c0,0.4-0.3,0.6-0.7,0.6s-0.7-0.3-0.7-0.7c0-0.4,0.3-0.6,0.7-0.6S79.4,51,79.4,51.4L79.4,51.4z"/>
		<path class="st13" d="M136.2,82.2c0,0.4-0.3,0.7-0.7,0.7c-0.4,0-0.6-0.3-0.6-0.7c0-0.4,0.3-0.7,0.7-0.7l0,0
			C135.9,81.5,136.2,81.8,136.2,82.2z"/>
		<path class="st13" d="M134.9,58.1c0,0.4-0.3,0.7-0.6,0.7s-0.7-0.3-0.7-0.6c0-0.4,0.3-0.7,0.6-0.7c0,0,0,0,0,0
			C134.6,57.4,134.9,57.7,134.9,58.1z"/>
		<path class="st13" d="M170.4,117c0,0.4-0.3,0.6-0.7,0.6c-0.4,0-0.6-0.3-0.6-0.7c0-0.4,0.3-0.6,0.7-0.6c0,0,0,0,0,0
			C170.1,116.4,170.4,116.6,170.4,117z"/>
		<path class="st13" d="M44.7,120.7c0,0.4-0.3,0.7-0.6,0.7c-0.4,0-0.7-0.3-0.7-0.6c0-0.4,0.3-0.7,0.6-0.7c0,0,0,0,0,0
			C44.4,120,44.7,120.3,44.7,120.7z"/>
		<path class="st13" d="M195.6,93.8c0,0.4-0.3,0.7-0.7,0.7c-0.4,0-0.6-0.3-0.6-0.7c0-0.4,0.3-0.7,0.7-0.7l0,0
			C195.3,93.2,195.6,93.5,195.6,93.8z"/>
	</g>
</g>
</svg>
