<?xml version="1.0" encoding="utf-8"?>
<!-- Generator: Adobe Illustrator 25.2.3, SVG Export Plug-In . SVG Version: 6.00 Build 0)  -->
<svg version="1.1" id="Layer_1" xmlns="http://www.w3.org/2000/svg" xmlns:xlink="http://www.w3.org/1999/xlink" x="0px" y="0px"
	 viewBox="0 0 235 381.2" style="enable-background:new 0 0 235 381.2;" xml:space="preserve">
<style type="text/css">
	.st0{fill:#F4B155;}
	.st1{fill:#FFF0CC;}
	.st2{fill:#231F20;}
	.st3{clip-path:url(#SVGID_2_);}
	.st4{fill:#A7F1F9;}
	.st5{fill:#789B78;}
	.st6{fill:#79B27B;}
	.st7{fill:#FFFFFF;}
	.st8{fill:#67D8DB;}
	.st9{fill:none;}
	.st10{fill:#E6E7E8;}
	.st11{fill:#81EFEF;}
	.st12{fill:#414042;}
	.st13{fill:#BCBEC0;}
	.st14{fill:#939598;}
	.st15{fill:#713D89;}
	.st16{fill:#F5B155;}
	.st17{fill:#FFD351;}
	.st18{fill:#3A335F;}
	.st19{fill:#495B66;}
	.st20{fill:#DD4F65;}
	.st21{fill:#2C2B2D;}
	.st22{fill:#7F3F98;}
	.st23{fill:#D6306A;}
	.st24{fill:#CDD06F;}
	.st25{fill:#74C7A7;}
	.st26{fill:#F9FAFB;}
</style>
<g id="Layer_2_1_">
	<g id="Layer_1-2">
		<path class="st0" d="M235,14.4v352.3c0,8-6.7,14.5-15,14.5H15c-8.3,0-15-6.5-15-14.5V14.4C0,6.5,6.7,0,15,0h205
			C228.3,0,235,6.5,235,14.4z M222.4,358.3V22.8c0-6-4.8-10.8-10.8-10.8H23.4c-6,0-10.8,4.9-10.8,10.8v335.5c0,6,4.8,10.8,10.8,10.8
			h188.2C217.6,369.2,222.4,364.3,222.4,358.3L222.4,358.3z"/>
		<path class="st1" d="M23.4,12h188.2c6,0,10.8,4.8,10.8,10.8v335.5c0,6-4.8,10.8-10.8,10.8H23.4c-6,0-10.8-4.8-10.8-10.8V22.8
			C12.6,16.9,17.4,12,23.4,12z"/>
		<path class="st2" d="M56,335c-0.1-0.1-0.2-0.3-0.2-0.5v-11c0-0.2,0-0.4,0.2-0.5c0.1-0.1,0.3-0.2,0.5-0.2h7.6c0.2,0,0.4,0,0.5,0.1
			c0.1,0.1,0.1,0.3,0.1,0.5v0.5c0,0.2,0,0.4-0.1,0.5c-0.1,0.1-0.3,0.2-0.5,0.2h-5.9v3.5h4.3c0.2,0,0.4,0,0.5,0.1
			c0.1,0.1,0.2,0.3,0.1,0.5v0.5c0.1,0.3-0.1,0.6-0.4,0.6c-0.1,0-0.1,0-0.2,0h-4.3v4.6c0,0.3-0.2,0.6-0.5,0.7c-0.1,0-0.1,0-0.2,0h-1
			C56.3,335.2,56.1,335.1,56,335z"/>
		<path class="st2" d="M66.6,333.7c-2.1-2.8-2.1-6.7,0-9.5c1.2-1.2,2.9-1.8,4.6-1.7c1.7-0.1,3.4,0.5,4.6,1.7c2.2,2.8,2.2,6.7,0,9.5
			c-1.2,1.2-2.9,1.8-4.6,1.7C69.5,335.5,67.8,334.9,66.6,333.7z M74.1,332.5c1.3-2.2,1.3-4.9,0-7c-0.7-0.8-1.8-1.3-2.9-1.2
			c-1.1-0.1-2.2,0.4-2.9,1.2c-1.3,2.2-1.3,4.9,0,7c0.7,0.8,1.8,1.3,2.9,1.2C72.3,333.8,73.3,333.3,74.1,332.5L74.1,332.5z"/>
		<path class="st2" d="M81.7,334.8c-0.8-0.3-1.5-0.9-2-1.6c-0.5-0.7-0.7-1.6-0.7-2.5v-7.3c0-0.2,0-0.4,0.2-0.5
			c0.1-0.1,0.3-0.2,0.5-0.2h1c0.2,0,0.4,0,0.5,0.2c0.1,0.1,0.2,0.3,0.2,0.5v7.4c-0.1,0.8,0.2,1.6,0.8,2.1c0.7,0.5,1.5,0.8,2.4,0.7
			c0.8,0.1,1.7-0.2,2.3-0.7c0.6-0.6,0.9-1.3,0.8-2.1v-7.4c0-0.2,0-0.4,0.2-0.5c0.1-0.1,0.3-0.2,0.5-0.2h0.9c0.5,0,0.7,0.2,0.7,0.7
			v7.3c0,0.9-0.2,1.7-0.7,2.5c-0.5,0.7-1.2,1.3-2,1.6c-0.9,0.4-1.9,0.6-2.9,0.6C83.5,335.4,82.6,335.2,81.7,334.8z"/>
		<path class="st2" d="M92.3,335c-0.1-0.1-0.2-0.3-0.2-0.5v-11c0-0.2,0-0.4,0.2-0.5c0.1-0.1,0.3-0.2,0.5-0.2h4.7
			c1.2-0.1,2.3,0.3,3.2,1c0.8,0.8,1.2,1.8,1.1,2.9c0,0.8-0.2,1.5-0.6,2.2c-0.4,0.6-1,1.1-1.8,1.4l2,4.5c0,0.1,0,0.1,0,0.2
			c0,0.2-0.1,0.3-0.3,0.3h-1.4c-0.1,0-0.2,0-0.3-0.1c-0.1-0.1-0.2-0.2-0.2-0.3l-1.8-4.3h-2.9v4c0,0.3-0.2,0.6-0.5,0.7
			c-0.1,0-0.1,0-0.2,0h-1C92.6,335.2,92.4,335.1,92.3,335z M97.1,328.8c0.7,0.1,1.3-0.1,1.9-0.5c0.4-0.4,0.6-1,0.6-1.6
			c0.1-0.6-0.1-1.2-0.6-1.6c-0.5-0.4-1.1-0.5-1.7-0.5h-2.9v4.2H97.1z"/>
		<path class="st2" d="M112,333.7c-2.1-2.8-2.1-6.7,0-9.5c2.7-2.2,6.5-2.2,9.2,0c2.2,2.8,2.2,6.7,0,9.5
			C118.5,336,114.7,336,112,333.7z M119.5,332.5c1.3-2.2,1.3-4.9,0-7c-1.6-1.6-4.2-1.6-5.8,0c-1.3,2.2-1.3,4.9,0,7
			C115.3,334.1,117.9,334.1,119.5,332.5C119.5,332.5,119.5,332.5,119.5,332.5z"/>
		<path class="st2" d="M124.7,335c-0.1-0.1-0.2-0.3-0.2-0.5v-11c0-0.2,0-0.4,0.2-0.5c0.1-0.1,0.3-0.2,0.5-0.2h7.6
			c0.3-0.1,0.6,0.1,0.6,0.4c0,0.1,0,0.2,0,0.2v0.5c0,0.2,0,0.4-0.1,0.5c-0.1,0.1-0.3,0.2-0.5,0.2h-5.9v3.5h4.3c0.2,0,0.4,0,0.5,0.1
			c0.1,0.1,0.2,0.3,0.1,0.5v0.5c0,0.2,0,0.4-0.1,0.5c-0.1,0.1-0.3,0.2-0.5,0.2h-4.3v4.6c0,0.2,0,0.4-0.2,0.5
			c-0.2,0.1-0.3,0.2-0.5,0.2h-1C125,335.2,124.8,335.1,124.7,335z"/>
		<path class="st2" d="M143.4,333.6c-2.8-2.6-3-7-0.4-9.9c1.4-1.5,3.4-2.4,5.5-2.2c0.8,0,1.7,0.1,2.5,0.3c0.7,0.1,1.3,0.4,1.9,0.8
			c0.1,0.1,0.2,0.1,0.2,0.3c0,0.1,0,0.2-0.1,0.3l-0.6,1c-0.1,0.1-0.1,0.2-0.2,0.2c-0.1,0-0.2,0-0.3-0.1c-1-0.5-2.1-0.8-3.2-0.7
			c-1.3-0.1-2.5,0.4-3.5,1.3c-0.9,1.1-1.4,2.4-1.3,3.8c-0.1,1.4,0.4,2.8,1.3,3.9c0.9,0.9,2.2,1.3,3.5,1.3c1.2,0.1,2.3-0.2,3.4-0.8
			c0.1,0,0.2-0.1,0.3-0.1c0.1,0,0.2,0.1,0.2,0.2l0.6,1c0,0.1,0.1,0.1,0.1,0.2c0,0.1-0.1,0.2-0.2,0.3c-1.4,0.8-3,1.2-4.6,1.1
			C146.7,335.5,144.8,334.9,143.4,333.6z"/>
		<path class="st2" d="M158.1,334.8c-0.9-0.4-1.6-1-2.1-1.7c-0.5-0.8-0.8-1.7-0.8-2.7v-7.9c0-0.2,0-0.4,0.2-0.5
			c0.2-0.1,0.4-0.2,0.6-0.2h1c0.2,0,0.4,0,0.6,0.2c0.1,0.2,0.2,0.4,0.2,0.5v8c-0.1,0.9,0.3,1.7,0.9,2.3c0.7,0.6,1.6,0.9,2.6,0.8
			c0.9,0.1,1.8-0.2,2.5-0.8c0.6-0.6,1-1.4,0.9-2.3v-8c0-0.2,0-0.4,0.2-0.5c0.2-0.1,0.4-0.2,0.6-0.2h1c0.5,0,0.8,0.2,0.8,0.7v7.9
			c0,0.9-0.2,1.9-0.8,2.7c-0.5,0.8-1.3,1.4-2.1,1.7C162.2,335.6,160,335.6,158.1,334.8L158.1,334.8z"/>
		<path class="st2" d="M169.5,335c-0.1-0.1-0.2-0.3-0.2-0.5v-12c0-0.2,0-0.4,0.2-0.5c0.2-0.1,0.4-0.2,0.6-0.2h5
			c1.3-0.1,2.6,0.3,3.6,1.1c1.6,1.9,1.6,4.6,0,6.5c-1,0.8-2.3,1.2-3.6,1.1h-3.2v3.8c0,0.2,0,0.4-0.2,0.5c-0.2,0.1-0.4,0.2-0.6,0.2
			h-1C169.9,335.2,169.7,335.1,169.5,335z M175,328.7c0.7,0.1,1.3-0.2,1.8-0.6c0.4-0.5,0.6-1.2,0.6-1.9c0.1-0.7-0.2-1.4-0.6-1.9
			c-0.5-0.4-1.1-0.7-1.8-0.6h-3.1v5L175,328.7z"/>
		<g>
			<defs>
				<path id="SVGID_1_" d="M53,44h129c13.7,0,24.8,11.1,24.8,24.8v192.3c0,13.7-11.1,24.8-24.8,24.8H53c-13.7,0-24.8-11.1-24.8-24.8
					V68.8C28.2,55.1,39.3,44,53,44z"/>
			</defs>
			<clipPath id="SVGID_2_">
				<use xlink:href="#SVGID_1_"  style="overflow:visible;"/>
			</clipPath>
			<g class="st3">
				<polygon class="st4" points="222.4,7.5 13.7,7.5 13.7,180.2 13.7,200.2 13.7,294.9 222.3,294.9 222.3,200.2 222.4,200.2 				"/>
				<polygon class="st5" points="74,131.5 88.9,125.1 119.4,139.7 59.7,139.7 				"/>
				<polygon class="st6" points="103.6,139.9 150.1,114.8 188.8,138.8 				"/>
				<circle class="st7" cx="50.1" cy="119.1" r="9.9"/>
				<path class="st7" d="M213.4,113.6h-43.9c-3.7,0-6.6,3-6.7,6.7l0,0c0,3.7,3,6.6,6.7,6.7h43.9c3.7,0,6.6-3,6.7-6.7l0,0
					C220.1,116.6,217.1,113.6,213.4,113.6z"/>
				<path class="st7" d="M209.9,142.4h-63.1c-5,0-9-4-9.1-9l0,0c0-5,4.1-9,9.1-9.1h63.1c5,0,9,4.1,9.1,9.1l0,0
					C218.9,138.4,214.9,142.4,209.9,142.4z"/>
				<path class="st7" d="M85.7,139.5H38.2c-2.5,0-4.6-2.1-4.6-4.6l0,0c0-2.5,2.1-4.6,4.6-4.6h47.5c2.5,0,4.6,2.1,4.6,4.6l0,0
					C90.3,137.4,88.2,139.5,85.7,139.5z"/>
				<path class="st7" d="M21.3,120.9h51.3c2.6,0,4.7,2.1,4.7,4.7v0.5c0,2.6-2.1,4.7-4.7,4.7H21.3c-2.6,0-4.7-2.1-4.7-4.7v-0.5
					C16.6,123,18.7,120.9,21.3,120.9z"/>
				<rect x="22.9" y="138.4" class="st8" width="198.4" height="58.3"/>
				<polygon class="st9" points="199.7,7.5 36.4,7.5 36.4,180.2 36.4,200.2 36.4,294.9 199.6,294.9 199.6,200.2 199.7,200.2 				"/>
				<rect x="-12.5" y="173.5" class="st7" width="285.9" height="134.2"/>
				<path class="st10" d="M27.5,212.2h176.1c4.3,0,7.8,3.5,7.8,7.8v6.4c0,4.3-3.5,7.8-7.8,7.8H27.5c-4.3,0-7.8-3.5-7.8-7.8v-6.4
					C19.7,215.7,23.2,212.2,27.5,212.2z"/>
				<path class="st11" d="M133.1,165H55.2c-1.2,0-2.2-1-2.2-2.2l0,0c0-1.2,1-2.2,2.2-2.2h78c1.2,0,2.2,1,2.2,2.2l0,0
					C135.4,164,134.4,165,133.1,165C133.2,165,133.2,165,133.1,165z"/>
				<rect x="105.9" y="159.6" class="st12" width="25.3" height="38.1"/>
				<path class="st11" d="M104.5,146.6h79.9c0.7,0,1.2,0.6,1.2,1.2v0.7c0,0.7-0.6,1.2-1.2,1.2h-79.9c-0.7,0-1.2-0.6-1.2-1.2v-0.7
					C103.3,147.2,103.8,146.6,104.5,146.6z"/>
				<rect x="70.9" y="99.8" class="st13" width="13.5" height="79.2"/>
				<path class="st7" d="M86.7,181H69.3c-1.4,0-2.5-1.1-2.5-2.5l0,0c0-1.4,1.1-2.5,2.5-2.5h17.4c1.4,0,2.5,1.1,2.5,2.5l0,0
					C89.2,179.9,88.1,181,86.7,181z"/>
				<path class="st7" d="M74.5,105L74.5,105c0.4,0,0.7,0.3,0.7,0.7V173c0,0.4-0.3,0.7-0.7,0.7c0,0,0,0,0,0l0,0
					c-0.4,0-0.7-0.3-0.7-0.7c0,0,0,0,0,0v-67.3C73.8,105.3,74.1,105,74.5,105z"/>
				<path class="st7" d="M77.8,105L77.8,105c0.4,0,0.7,0.3,0.7,0.7V173c0,0.4-0.3,0.7-0.7,0.7c0,0,0,0,0,0l0,0
					c-0.4,0-0.7-0.3-0.7-0.7c0,0,0,0,0,0v-67.3C77.1,105.3,77.4,105,77.8,105z"/>
				<path class="st7" d="M81.3,105L81.3,105c0.4,0,0.7,0.3,0.7,0.7V173c0,0.4-0.3,0.7-0.7,0.7c0,0,0,0,0,0l0,0
					c-0.4,0-0.7-0.3-0.7-0.7c0,0,0,0,0,0v-67.3C80.6,105.3,80.9,105,81.3,105z"/>
				<rect x="70.9" y="99.8" class="st14" width="13.5" height="3.9"/>
				<rect x="51.5" y="99.6" class="st13" width="16.6" height="97.7"/>
				<path class="st7" d="M49.4,193.5h21.6c1.7,0,3,1.4,3,3v0.1c0,1.7-1.4,3-3,3H49.4c-1.7,0-3-1.4-3-3v-0.1
					C46.4,194.9,47.7,193.5,49.4,193.5z"/>
				<path class="st7" d="M55.8,105.9L55.8,105.9c0.5,0,0.9,0.4,0.9,0.8v83c0,0.5-0.4,0.9-0.8,0.9h-0.1c-0.5,0-0.8-0.4-0.8-0.9v-83
					C55,106.3,55.3,105.9,55.8,105.9z"/>
				<path class="st7" d="M59.9,105.9L59.9,105.9c0.5,0,0.9,0.4,0.9,0.8v83c0,0.5-0.4,0.9-0.8,0.9h-0.1c-0.5,0-0.8-0.4-0.8-0.9v-83
					C59,106.3,59.4,105.9,59.9,105.9z"/>
				<path class="st7" d="M64.2,105.9L64.2,105.9c0.5,0,0.9,0.4,0.9,0.8v83c0,0.5-0.4,0.9-0.8,0.9h-0.1c-0.5,0-0.9-0.4-0.9-0.9v-83
					C63.3,106.3,63.7,105.9,64.2,105.9z"/>
				<rect x="51.5" y="99.6" class="st14" width="16.6" height="4.9"/>
				<rect x="149.5" y="99.8" class="st13" width="13.5" height="79.2"/>
				<path class="st7" d="M147.3,181h17.4c1.4,0,2.5-1.1,2.5-2.5l0,0c0-1.4-1.1-2.5-2.5-2.5h-17.4c-1.4,0-2.5,1.1-2.5,2.5l0,0
					C144.8,179.9,145.9,181,147.3,181z"/>
				<path class="st7" d="M159.5,105L159.5,105c-0.4,0-0.7,0.3-0.7,0.7v0V173c0,0.4,0.3,0.7,0.7,0.7c0,0,0,0,0,0l0,0
					c0.4,0,0.7-0.3,0.7-0.7c0,0,0,0,0,0v-67.3C160.2,105.3,159.8,105,159.5,105z"/>
				<path class="st7" d="M156.1,105L156.1,105c-0.4,0-0.7,0.3-0.7,0.7v0V173c0,0.4,0.3,0.7,0.7,0.7c0,0,0,0,0,0l0,0
					c0.4,0,0.7-0.3,0.7-0.7c0,0,0,0,0,0v-67.3C156.8,105.3,156.5,105,156.1,105z"/>
				<path class="st7" d="M152.7,105L152.7,105c-0.4,0-0.7,0.3-0.7,0.7v0V173c0,0.4,0.3,0.7,0.7,0.7c0,0,0,0,0,0l0,0
					c0.4,0,0.7-0.3,0.7-0.7c0,0,0,0,0,0v-67.3C153.4,105.3,153,105,152.7,105z"/>
				<rect x="149.5" y="99.8" class="st14" width="13.5" height="3.9"/>
				<rect x="166.5" y="99.6" class="st13" width="16.6" height="97.7"/>
				<path class="st7" d="M185.2,199.7h-21.5c-1.7,0-3-1.4-3-3v-0.1c0-1.7,1.4-3,3-3h21.5c1.7,0,3,1.4,3,3v0.1
					C188.2,198.3,186.9,199.7,185.2,199.7z"/>
				<path class="st7" d="M178.8,190.7L178.8,190.7c-0.5,0-0.9-0.4-0.9-0.8v-83.1c0-0.5,0.4-0.9,0.9-0.9h0c0.5,0,0.9,0.4,0.9,0.9
					v83.1C179.7,190.3,179.3,190.7,178.8,190.7z"/>
				<path class="st7" d="M174.7,190.7L174.7,190.7c-0.5,0-0.9-0.4-0.9-0.8v-83.1c0-0.5,0.4-0.9,0.9-0.9h0c0.5,0,0.9,0.4,0.9,0.9
					v83.1C175.6,190.3,175.2,190.7,174.7,190.7z"/>
				<path class="st7" d="M170.4,190.7L170.4,190.7c-0.5,0-0.9-0.4-0.9-0.8v-83.1c0-0.5,0.4-0.9,0.9-0.9h0c0.5,0,0.9,0.4,0.9,0.9
					v83.1C171.3,190.3,170.9,190.7,170.4,190.7z"/>
				<rect x="166.5" y="99.6" class="st14" width="16.6" height="4.9"/>
				<path class="st15" d="M142.8,158c0,0,9.5-8,10.8,11.4c0,0-0.7,9,2.9,11.9c0,0-7.4,4.1-12-5.5C144.5,175.8,140.4,170.5,142.8,158
					z"/>
				<path class="st16" d="M109.7,213.2c-1.3,0-2.3-1-2.5-2.2c-1.8-18.9-12.6-23.4-12.7-23.5c-1.3-0.5-1.9-1.9-1.4-3.2
					c0.5-1.3,1.9-1.9,3.2-1.4c0,0,0,0,0.1,0c0.6,0.2,13.8,5.8,15.8,27.6c0.1,1.4-0.9,2.6-2.2,2.7L109.7,213.2z"/>
				<path class="st12" d="M72.4,202.1h24.2c4.9,0,8.8,3.9,8.8,8.8v1c0,4.9-3.9,8.8-8.8,8.8H72.4c-4.9,0-8.8-3.9-8.8-8.8v-1
					C63.6,206.1,67.5,202.1,72.4,202.1z"/>
				<path class="st17" d="M92.4,182.4c-0.2,0-0.4,0-0.6-0.1c-1.3-0.3-2.1-1.7-1.8-3c0,0,0,0,0,0c0.4-1.6,2.6-9.6,7.5-11.6
					c1.3-0.5,2.7,0.1,3.2,1.4c0.5,1.3-0.1,2.7-1.4,3.2c-1.9,0.8-3.8,5.3-4.5,8.1C94.5,181.6,93.6,182.4,92.4,182.4z"/>
				<path class="st16" d="M96.8,153.8h1.1c5,0,9.1,4.1,9.1,9.1v5.1c0,5-4.1,9.1-9.1,9.1h-1.1c-5,0-9.1-4.1-9.1-9.1v-5.1
					C87.7,157.9,91.8,153.8,96.8,153.8z"/>
				<path class="st17" d="M96.8,153.3h1.1c5,0,9.1,4.1,9.1,9.1v5.1c0,5-4.1,9.1-9.1,9.1h-1.1c-5,0-9.1-4.1-9.1-9.1v-5.1
					C87.7,157.4,91.8,153.3,96.8,153.3z"/>
				<path class="st18" d="M103.5,166.4h0.1c0.6,0,1.2,0.5,1.2,1.2v2.4c0,0.6-0.5,1.2-1.2,1.2h-0.1c-0.6,0-1.2-0.5-1.2-1.2v-2.4
					C102.4,166.9,102.9,166.4,103.5,166.4z"/>
				<path class="st18" d="M94.6,166.4h0.1c0.6,0,1.2,0.5,1.2,1.2v2.4c0,0.6-0.5,1.2-1.2,1.2h-0.1c-0.6,0-1.2-0.5-1.2-1.2v-2.4
					C93.5,166.9,94,166.4,94.6,166.4z"/>
				<path class="st19" d="M82.8,157h7.1l0,0v17.8l0,0h-0.1c-3.9,0-7-3.1-7-7L82.8,157L82.8,157z"/>
				<path class="st16" d="M99.2,170.1h-0.7c0-0.4,0.3-0.7,0.7-0.7c0.4,0,0.7,0.3,0.7,0.7L99.2,170.1z"/>
				<path class="st19" d="M101.6,163.7h3.7c0.3,0,0.6,0.3,0.6,0.6v0.1c0,0.3-0.3,0.6-0.6,0.6h-3.7c-0.3,0-0.6-0.3-0.6-0.6v-0.1
					C100.9,164,101.2,163.7,101.6,163.7z"/>
				<path class="st19" d="M93,163.7h3.7c0.3,0,0.6,0.3,0.6,0.6v0.1c0,0.3-0.3,0.6-0.6,0.6H93c-0.3,0-0.6-0.3-0.6-0.6v-0.1
					C92.4,164,92.7,163.7,93,163.7z"/>
				<path class="st20" d="M100.4,172.4c-0.1-0.7-0.7-1.2-1.4-1.1c-0.6,0.1-1.1,0.5-1.1,1.1H100.4z"/>
				<path class="st17" d="M90.3,167.3c0,1.2-1,2.2-2.1,2.2s-2.2-1-2.2-2.1c0-1.2,1-2.2,2.1-2.2c0,0,0,0,0,0
					C89.3,165.2,90.3,166.2,90.3,167.3z"/>
				<path class="st16" d="M89.5,167.3c0,0.8-0.6,1.4-1.4,1.4s-1.4-0.6-1.4-1.4s0.6-1.4,1.4-1.4c0,0,0,0,0,0
					C88.9,165.9,89.5,166.6,89.5,167.3z"/>
				<path class="st19" d="M90.6,152.4h14.8c2.1,0,3.8,1.7,3.8,3.8v0.4c0,2.1-1.7,3.8-3.8,3.8H90.6c-2.1,0-3.8-1.7-3.8-3.8v-0.4
					C86.8,154.1,88.5,152.4,90.6,152.4z"/>
				<path class="st19" d="M94.1,151c0,2.3-1.9,4.2-4.2,4.1s-4.2-1.9-4.1-4.2s1.9-4.2,4.2-4.1c0,0,0,0,0,0
					C92.3,146.8,94.1,148.7,94.1,151C94.1,151,94.1,151,94.1,151z"/>
				<path class="st12" d="M100,181.8c-1.4,3.3-5.3,4.9-8.6,3.5c-2.9-1.2-4.5-4.3-3.9-7.4c0-0.1,0.1-0.3,0.2-0.4
					c-5.6,0.9-10.1,5-11.4,10.5l-4.8,20.3l27.1,6.4l4.8-20.3C104.4,189.9,103.1,185.2,100,181.8z"/>
				<path class="st17" d="M92,185.5c3.2,1.2,6.8-0.5,8-3.7c-1.9-2-4.3-3.5-7-4.1l0,0c-1.7-0.4-3.5-0.5-5.3-0.2
					c-0.1,0.1-0.1,0.3-0.2,0.4C86.7,181.2,88.7,184.6,92,185.5z"/>
				<path class="st21" d="M73.5,200.4h27.3c1.1,0,2,0.9,2,2v0.2c0,1.1-0.9,2-2,2H73.5c-1.1,0-2-0.9-2-2v-0.2
					C71.4,201.3,72.3,200.4,73.5,200.4z"/>
				<path class="st19" d="M92.9,157.1c0,3.6-2.9,6.6-6.6,6.6s-6.6-2.9-6.6-6.6c0-3.6,2.9-6.6,6.6-6.6c0,0,0,0,0,0
					C90,150.5,92.9,153.4,92.9,157.1z"/>
				<path class="st19" d="M89.9,166.1c0,0,9.8,1,11.8-6.3H87.3L89.9,166.1z"/>
				<rect x="92.2" y="168.7" class="st17" width="4.7" height="2.4"/>
				<rect x="101.9" y="168.7" class="st17" width="3.5" height="2.4"/>
				<path class="st16" d="M127.9,214.5c1.3,0,2.3-1,2.5-2.2c1.8-18.8,12.6-23.4,12.7-23.5c1.3-0.5,1.9-2,1.4-3.2s-2-1.9-3.2-1.4
					c-0.6,0.2-13.8,5.8-15.8,27.6c-0.1,1.4,0.9,2.6,2.2,2.7c0,0,0,0,0,0L127.9,214.5z"/>
				<path class="st20" d="M165.2,222H141c-4.9,0-8.8-3.9-8.8-8.8v-1c0-4.9,3.9-8.8,8.8-8.8h24.2c4.9,0,8.8,3.9,8.8,8.8v1
					C174,218.1,170.1,222,165.2,222z"/>
				<path class="st17" d="M145.1,183.7c1.4,0,2.5-1.1,2.5-2.4c0-0.2,0-0.4-0.1-0.6c-0.4-1.6-2.6-9.6-7.5-11.5
					c-1.3-0.5-2.7,0.1-3.2,1.4s0.1,2.7,1.4,3.2c1.9,0.8,3.8,5.3,4.5,8.1C143,182.9,144,183.7,145.1,183.7z"/>
				<path class="st16" d="M140.7,178.4h-1.1c-5,0-9.1-4.1-9.1-9.1v-5.1c0-5,4.1-9.1,9.1-9.1h1.1c5,0,9.1,4.1,9.1,9.1v5.1
					C149.9,174.4,145.8,178.4,140.7,178.4z"/>
				<path class="st17" d="M140.7,177.9h-1.1c-5,0-9.1-4.1-9.1-9.1v-5.1c0-5,4.1-9.1,9.1-9.1h1.1c5,0,9.1,4.1,9.1,9.1v5.1
					C149.9,173.8,145.8,177.9,140.7,177.9z"/>
				<path class="st18" d="M134.1,171.6h-0.1c-0.6,0-1.2-0.5-1.2-1.2v-2.4c0-0.6,0.5-1.2,1.2-1.2h0.1c0.6,0,1.2,0.5,1.2,1.2v2.4
					C135.2,171.1,134.7,171.6,134.1,171.6z"/>
				<path class="st18" d="M142.9,171.6h-0.1c-0.6,0-1.2-0.5-1.2-1.2v-2.4c0-0.6,0.5-1.2,1.2-1.2h0.1c0.6,0,1.2,0.5,1.2,1.2v2.4
					C144.1,171.1,143.6,171.6,142.9,171.6z"/>
				<rect x="132.2" y="169.3" class="st17" width="3.5" height="2.6"/>
				<rect x="140.9" y="169.3" class="st17" width="3.5" height="2.6"/>
				<path class="st16" d="M138.4,171.4h0.7c0-0.4-0.4-0.7-0.8-0.6c-0.3,0-0.6,0.3-0.6,0.6H138.4z"/>
				<path class="st22" d="M136,166.3h-3.7c-0.3,0-0.6-0.3-0.6-0.6v-0.1c0-0.3,0.3-0.6,0.6-0.6h3.7c0.3,0,0.6,0.3,0.6,0.6v0.1
					C136.6,166,136.4,166.3,136,166.3z"/>
				<path class="st22" d="M144.5,166.3h-3.7c-0.3,0-0.6-0.3-0.6-0.6v-0.1c0-0.3,0.3-0.6,0.6-0.6h3.7c0.3,0,0.6,0.3,0.6,0.6v0.1
					C145.1,166,144.9,166.3,144.5,166.3z"/>
				<path class="st20" d="M137.2,173.7c0.1-0.7,0.7-1.2,1.4-1.1c0.6,0.1,1.1,0.5,1.1,1.1H137.2z"/>
				<path class="st22" d="M129.9,163.2c0,0,13,1,15.5-1.5c0,0,1.4,5.3,3.6,6.9h1.7c0,0,1.5-9.7-5.2-13.2
					C145.6,155.4,131.9,149.4,129.9,163.2z"/>
				<path class="st20" d="M137.6,183.1c1.4,3.3,5.3,4.9,8.6,3.5c2.9-1.2,4.5-4.3,3.9-7.4c0-0.1-0.1-0.3-0.1-0.4
					c5.6,0.9,10.1,5,11.4,10.5l4.8,20.3l-27.1,6.4l-4.8-20.3C133.2,191.2,134.4,186.5,137.6,183.1z"/>
				<path class="st17" d="M145.6,186.8c-3.2,1.2-6.8-0.5-8-3.7c1.9-2,4.3-3.5,7-4.1l0,0c1.7-0.4,3.5-0.5,5.3-0.2
					c0,0.1,0.1,0.3,0.1,0.4C150.9,182.5,148.9,185.9,145.6,186.8z"/>
				<path class="st23" d="M164.1,206h-27.4c-1.1,0-2-0.9-2-2v-0.2c0-1.1,0.9-2,2-2h27.4c1.1,0,2,0.9,2,2v0.2
					C166.1,205.1,165.2,206,164.1,206z"/>
				<path class="st7" d="M99.7,210.2h36.6c4.9,0,8.9,4,8.9,8.9v1c0,4.9-4,8.9-8.9,8.9H99.7c-4.9,0-8.9-4-8.9-8.9v-1
					C90.8,214.1,94.8,210.2,99.7,210.2z"/>
				<path class="st17" d="M122.6,222c-1.4,0.1-2.5-1-2.6-2.3c-0.1-1.4,1-2.5,2.3-2.6c0.1,0,0.2,0,0.3,0c5,0,8.3-1.3,9.7-3.9
					c3.5-6.2-2.7-18.9-5.4-23.3c-0.7-1.2-0.3-2.7,0.8-3.4c1.2-0.7,2.7-0.3,3.4,0.8c1.9,3.2,3.5,6.5,4.8,10c2.9,7.8,3.1,14,0.7,18.3
					S129.5,222,122.6,222z"/>
				<path class="st17" d="M110.4,171c0,1.2-1,2.2-2.2,2.2s-2.2-1-2.2-2.2c0-1.2,1-2.2,2.2-2.2c0,0,0,0,0,0
					C109.4,168.8,110.4,169.8,110.4,171z"/>
				<path class="st16" d="M109.6,171c0,0.8-0.6,1.4-1.4,1.4s-1.4-0.6-1.4-1.4c0-0.8,0.6-1.4,1.4-1.4c0,0,0,0,0,0
					C109,169.6,109.6,170.2,109.6,171z"/>
				<path class="st17" d="M130,171c0,1.2-1,2.2-2.2,2.2c-1.2,0-2.2-1-2.2-2.2c0-1.2,1-2.2,2.2-2.2c0,0,0,0,0,0
					C129,168.8,130,169.8,130,171z"/>
				<circle class="st16" cx="127.8" cy="171" r="1.4"/>
				<path class="st17" d="M118.2,178.4h0.2c1,0,1.8,0.8,1.8,1.8v3.7c0,1-0.8,1.8-1.8,1.8h-0.2c-1,0-1.8-0.8-1.8-1.8v-3.7
					C116.3,179.2,117.1,178.4,118.2,178.4z"/>
				<path class="st7" d="M124.4,184.3l-3.7,4.1c-1.6,1.3-3.9,1.3-5.5,0l-3.4-3.8c-0.4,0.2-0.7,0.3-1.1,0.5c0.7,1.6,1.1,3.3,1.1,5
					c0,4.3-2.1,7.8-4.7,7.8c-0.3,0-0.5,0-0.8-0.1v13.5h24.4v-20.3C130.8,188.2,128.2,185.7,124.4,184.3z"/>
				<path class="st16" d="M117.7,157.5h1.1c5,0,9.1,4.1,9.1,9.1v5.1c0,5-4.1,9.1-9.1,9.1h-1.1c-5,0-9.1-4.1-9.1-9.1v-5.1
					C108.5,161.6,112.6,157.5,117.7,157.5z"/>
				<path class="st17" d="M117.7,157h1.1c5,0,9.1,4.1,9.1,9.1v5.1c0,5-4.1,9.1-9.1,9.1h-1.1c-5,0-9.1-4.1-9.1-9.1v-5.1
					C108.5,161.1,112.6,157,117.7,157z"/>
				<path class="st12" d="M108.4,153.4h19.7c3,0,5.5,2.5,5.5,5.5v0.6c0,3-2.5,5.5-5.5,5.5h-19.7c-3,0-5.5-2.5-5.5-5.5v-0.6
					C102.9,155.8,105.3,153.4,108.4,153.4z"/>
				<path class="st18" d="M122.6,168.7h0.1c0.6,0,1.2,0.5,1.2,1.2v2.4c0,0.6-0.5,1.2-1.2,1.2h-0.1c-0.6,0-1.2-0.5-1.2-1.2v-2.4
					C121.4,169.2,121.9,168.7,122.6,168.7z"/>
				<path class="st18" d="M113.7,168.7h0.1c0.6,0,1.2,0.5,1.2,1.2v2.4c0,0.6-0.5,1.2-1.2,1.2h-0.1c-0.6,0-1.2-0.5-1.2-1.2v-2.4
					C112.5,169.2,113,168.7,113.7,168.7z"/>
				<path class="st16" d="M118.2,173.1h-0.7c0-0.4,0.3-0.7,0.7-0.7c0.4,0,0.7,0.3,0.7,0.7c0,0,0,0,0,0H118.2z"/>
				<path class="st12" d="M120.6,166.8h3.7c0.3,0,0.6,0.3,0.6,0.6v0.1c0,0.3-0.3,0.6-0.6,0.6h-3.7c-0.3,0-0.6-0.3-0.6-0.6v-0.1
					C120,167,120.3,166.8,120.6,166.8z"/>
				<path class="st12" d="M112.1,166.8h3.7c0.3,0,0.6,0.3,0.6,0.6v0.1c0,0.3-0.3,0.6-0.6,0.6h-3.7c-0.3,0-0.6-0.3-0.6-0.6v-0.1
					C111.5,167,111.8,166.8,112.1,166.8z"/>
				<path class="st16" d="M118.6,176c0-0.2-0.1-0.3-0.2-0.3c-0.2,0-0.3,0.1-0.3,0.2c0,0,0,0.1,0,0.1H118.6z"/>
				<path class="st17" d="M121,188.8l4-4.3c-2-0.7-4.1-1.1-6.3-1.1l0,0c-2.5,0-4.9,0.4-7.2,1.4l3.6,4
					C116.9,190.2,119.3,190.2,121,188.8z"/>
				<path class="st17" d="M115.2,222c-6.9,0-11.7-2.2-14.1-6.4s-2.2-10.5,0.7-18.3c1.3-3.5,2.9-6.8,4.8-10c0.7-1.2,2.2-1.5,3.4-0.8
					s1.5,2.2,0.8,3.4l0,0c-2.7,4.4-8.9,17.2-5.4,23.3c1.4,2.6,4.7,3.9,9.7,3.9c1.4,0.1,2.4,1.3,2.3,2.6
					C117.4,221,116.4,222,115.2,222L115.2,222z"/>
				<path class="st10" d="M73.3,271.6H56.1c-1.4,0-2.6-1.1-2.6-2.6c0,0,0,0,0,0l0,0c0-1.4,1.1-2.6,2.6-2.6h17.2
					c1.4,0,2.6,1.1,2.6,2.6l0,0C75.9,270.4,74.8,271.6,73.3,271.6C73.3,271.6,73.3,271.6,73.3,271.6z"/>
				<path class="st10" d="M107.4,271.6H90.2c-1.4,0-2.6-1.2-2.6-2.6c0,0,0,0,0,0l0,0c0-1.4,1.1-2.6,2.6-2.6h17.2
					c1.4,0,2.6,1.1,2.6,2.5c0,0,0,0,0,0l0,0C110,270.4,108.9,271.6,107.4,271.6C107.5,271.6,107.4,271.6,107.4,271.6z"/>
				<path class="st10" d="M147.9,271.6h-17.2c-1.4,0-2.5-1.1-2.6-2.5l0,0c0-1.4,1.1-2.6,2.6-2.6h17.2c1.4,0,2.6,1.2,2.6,2.6l0,0
					C150.4,270.4,149.3,271.6,147.9,271.6z"/>
				<path class="st10" d="M184.5,271.6h-17.2c-1.4,0-2.5-1.1-2.6-2.5l0,0c0-1.4,1.1-2.6,2.6-2.6h17.2c1.4,0,2.5,1.1,2.5,2.5l0,0
					C187,270.4,185.9,271.6,184.5,271.6C184.5,271.6,184.5,271.6,184.5,271.6z"/>
				<path class="st17" d="M111.8,190.1c0-1.7-0.3-3.4-1.1-5c-2.7,1.4-4.4,3.6-4.4,6v6.7c0.2,0.1,0.5,0.1,0.8,0.1
					C109.7,198,111.8,194.5,111.8,190.1z"/>
				<path class="st17" d="M125.3,190.1c0-1.7,0.3-3.4,1.1-5c2.7,1.4,4.4,3.6,4.4,6v6.7c-0.2,0.1-0.5,0.1-0.8,0.1
					C127.4,198,125.3,194.5,125.3,190.1z"/>
				<rect x="26.2" y="98.6" class="st13" width="21.4" height="125.6"/>
				<rect x="187" y="98.6" class="st13" width="21.4" height="125.6"/>
				<path class="st7" d="M23.1,219.4h28.5c1.9,0,3.5,1.6,3.5,3.5v1c0,1.9-1.6,3.5-3.5,3.5H23.1c-1.9,0-3.5-1.6-3.5-3.5v-1
					C19.6,220.9,21.2,219.4,23.1,219.4z"/>
				<path class="st7" d="M184.2,219.4h28.5c1.9,0,3.5,1.6,3.5,3.5v1c0,1.9-1.6,3.5-3.5,3.5h-28.5c-1.9,0-3.5-1.6-3.5-3.5v-1
					C180.7,220.9,182.3,219.4,184.2,219.4z"/>
				<polygon class="st7" points="117.3,39.2 3.8,99.4 230.8,99.4 				"/>
				<polygon class="st10" points="117.3,45.3 32.9,90.7 202.1,90.7 				"/>
				<rect x="25.5" y="95.9" class="st13" width="182.9" height="4.6"/>
				<path class="st7" d="M192.3,106.8h0.3c0.5,0,1,0.4,1,1v107c0,0.5-0.4,1-1,1h-0.3c-0.5,0-1-0.4-1-1v-107
					C191.3,107.2,191.8,106.8,192.3,106.8z"/>
				<path class="st7" d="M197.6,106.8h0.3c0.5,0,1,0.4,1,1v107c0,0.5-0.4,1-1,1h-0.3c-0.5,0-1-0.4-1-1v-107
					C196.6,107.2,197,106.8,197.6,106.8z"/>
				<path class="st7" d="M203.1,106.8h0.3c0.5,0,1,0.4,1,1v107c0,0.5-0.4,1-1,1h-0.3c-0.5,0-1-0.4-1-1v-107
					C202.1,107.2,202.5,106.8,203.1,106.8z"/>
				<path class="st7" d="M31.7,106.8H32c0.5,0,1,0.4,1,1v107c0,0.5-0.4,1-1,1h-0.3c-0.5,0-1-0.4-1-1v-107
					C30.7,107.2,31.1,106.8,31.7,106.8z"/>
				<path class="st7" d="M36.9,106.8h0.3c0.5,0,1,0.4,1,1v107c0,0.5-0.4,1-1,1h-0.3c-0.5,0-1-0.4-1-1v-107
					C36,107.2,36.4,106.8,36.9,106.8z"/>
				<path class="st7" d="M42.4,106.8h0.3c0.5,0,1,0.4,1,1v107c0,0.5-0.4,1-1,1h-0.3c-0.5,0-1-0.4-1-1v-107
					C41.5,107.2,41.9,106.8,42.4,106.8z"/>
				<rect x="187" y="100.6" class="st14" width="21.4" height="6.2"/>
				<rect x="26.2" y="100.6" class="st14" width="21.4" height="6.2"/>
				<path class="st17" d="M55.2,238.4l-0.1,10.3c0,4.9,3.5,9.1,8.3,9.9v7.5l-4.2,2.9c0,0,1.1,0.9,5.8,0.9l0,0c4.8,0,5.9-0.9,5.9-0.9
					l-4.2-2.9v-7.5c4.7-0.8,8.2-4.9,8.3-9.8l0.1-10.3L55.2,238.4z"/>
				<path class="st17" d="M89.3,238.4l-0.1,10.3c0,4.9,3.5,9.1,8.3,9.9v7.5l-4.2,2.9c0,0,1.1,0.9,5.8,0.9l0,0c4.8,0,5.9-0.9,5.9-0.9
					l-4.2-2.9v-7.5c4.7-0.8,8.2-4.9,8.3-9.8l0.1-10.3L89.3,238.4z"/>
				<path class="st17" d="M89.3,238.4l-0.1,10.3c0,4.9,3.5,9.1,8.3,9.9v7.5l-4.2,2.9c0,0,1.1,0.9,5.8,0.9l0,0c4.8,0,5.9-0.9,5.9-0.9
					l-4.2-2.9v-7.5c4.7-0.8,8.2-4.9,8.3-9.8l0.1-10.3L89.3,238.4z"/>
				<path class="st17" d="M130.3,238.4l-0.1,10.3c0,4.9,3.5,9.1,8.3,9.9v7.5l-4.2,2.9c0,0,1.1,0.9,5.8,0.9l0,0
					c4.7,0,5.9-0.9,5.9-0.9l-4.2-2.9v-7.5c4.7-0.8,8.2-4.9,8.3-9.8l0.1-10.3L130.3,238.4z"/>
				<path class="st17" d="M166.7,238.4l-0.1,10.3c0,4.9,3.5,9.1,8.3,9.9v7.5l-4.2,2.9c0,0,1.1,0.9,5.8,0.9l0,0
					c4.8,0,5.9-0.9,5.9-0.9l-4.2-2.9v-7.5c4.7-0.8,8.2-4.9,8.3-9.8l0.1-10.3L166.7,238.4z"/>
				<circle class="st17" cx="149.4" cy="168.6" r="2.2"/>
				<circle class="st16" cx="149.4" cy="168.6" r="1.4"/>
				<path class="st16" d="M88.2,189.8c-1.9-0.7-3.6-1.7-5.2-3c-1-0.9-1.1-2.5-0.2-3.5c0.9-1,2.5-1.1,3.5-0.2c0.1,0.1,3.9,3.4,8,2.4
					c3.6-0.9,6.9-5.1,9.4-12c0.5-1.3,1.9-1.9,3.2-1.5c1.3,0.5,1.9,1.9,1.5,3.2c-3.1,8.7-7.5,13.8-12.9,15.1
					C93,190.8,90.5,190.7,88.2,189.8z"/>
				<path class="st17" d="M88.2,188.9c-1.9-0.7-3.6-1.7-5.2-3c-1-0.9-1.1-2.5-0.2-3.5c0.9-1,2.5-1.1,3.5-0.2c0.1,0.1,3.9,3.4,8,2.3
					c3.6-0.9,6.9-5,9.4-12c0.5-1.3,1.9-1.9,3.2-1.5c1.3,0.5,1.9,1.9,1.5,3.2l0,0c-3.1,8.7-7.5,13.8-12.9,15.1
					C93,190,90.5,189.8,88.2,188.9z"/>
				<path class="st16" d="M148.9,189c1.8-0.8,3.5-2,4.9-3.4c0.9-1,0.8-2.6-0.3-3.5c-1-0.8-2.4-0.8-3.3,0.1c-0.1,0.1-3.6,3.6-7.8,2.9
					c-3.7-0.6-7.2-4.6-10.2-11.3c-0.6-1.2-2-1.8-3.3-1.3c-1.2,0.6-1.8,2-1.3,3.3c3.8,8.4,8.4,13.2,13.9,14.2
					C144.1,190.4,146.6,190,148.9,189z"/>
				<path class="st17" d="M148.9,188.5c1.8-0.8,3.5-2,4.9-3.4c0.9-1,0.8-2.6-0.3-3.5c-1-0.8-2.4-0.8-3.3,0.1
					c-0.1,0.1-3.6,3.6-7.8,2.9c-3.7-0.7-7.2-4.6-10.2-11.3c-0.6-1.2-2-1.8-3.3-1.3c-1.2,0.6-1.8,2-1.3,3.3
					c3.8,8.5,8.4,13.2,13.9,14.2C144.1,189.9,146.6,189.6,148.9,188.5z"/>
				<path class="st16" d="M120.3,175.1h-4.2c-0.2,0-0.4-0.2-0.4-0.4s0.2-0.4,0.4-0.4l0,0h4.2c0.2,0,0.4,0.2,0.4,0.4
					S120.5,175.1,120.3,175.1z"/>
				<path class="st24" d="M116.6,222.5L116.6,222.5c-0.2-0.3-0.1-0.6,0.2-0.8l9.1-6.2c0.3-0.2,0.6-0.1,0.8,0.1l0,0
					c0.2,0.3,0.1,0.6-0.2,0.8l-9.1,6.2C117.1,222.9,116.8,222.8,116.6,222.5z"/>
				<path class="st24" d="M123.7,217.5L123.7,217.5c-0.2,0-0.3-0.2-0.3-0.3c0,0,0,0,0,0l0.1-1.9c0-0.2,0.2-0.3,0.3-0.3c0,0,0,0,0,0
					l0,0c0.2,0,0.3,0.2,0.3,0.3c0,0,0,0,0,0l-0.1,1.9C124.1,217.3,123.9,217.5,123.7,217.5C123.7,217.5,123.7,217.5,123.7,217.5z"/>
				<path class="st24" d="M126.3,215.7L126.3,215.7c-0.2,0-0.3-0.2-0.3-0.4l0.1-1.9c0-0.2,0.2-0.3,0.4-0.3l0,0
					c0.2,0,0.3,0.2,0.3,0.4l-0.1,1.9C126.6,215.6,126.5,215.7,126.3,215.7z"/>
				<path class="st25" d="M127.2,210c-0.9-0.5-2.1-0.1-2.6,0.8c-0.5,0.9-0.1,2.1,0.8,2.6c0.9,0.5,2.1,0.1,2.6-0.8
					c0.1-0.2,0.2-0.4,0.2-0.5C128.3,211.2,127.9,210.4,127.2,210z"/>
				<path class="st25" d="M123.8,211.5c-1-0.3-2.1,0.2-2.4,1.2c-0.3,1,0.2,2.1,1.2,2.4c1,0.3,2.1-0.2,2.4-1.2
					c0.1-0.2,0.1-0.4,0.1-0.6C125.1,212.5,124.6,211.8,123.8,211.5z"/>
				<path class="st24" d="M120.9,219.4L120.9,219.4c-0.2,0-0.3-0.2-0.3-0.3c0,0,0,0,0,0l0.1-1.9c0-0.2,0.2-0.3,0.3-0.3c0,0,0,0,0,0
					l0,0c0.2,0,0.3,0.2,0.3,0.3c0,0,0,0,0,0l-0.1,1.9C121.2,219.3,121.1,219.4,120.9,219.4C120.9,219.4,120.9,219.4,120.9,219.4z"/>
				
					<ellipse transform="matrix(9.948207e-03 -1 1 9.948207e-03 -95.5075 334.0725)" class="st25" cx="121" cy="215.3" rx="1.8" ry="1.4"/>
				<path class="st24" d="M123.8,217.6L123.8,217.6c-0.1,0.2,0,0.4,0.2,0.4c0,0,0,0,0,0l1.8,0.6c0.2,0.1,0.3,0,0.4-0.2c0,0,0,0,0,0
					l0,0c0.1-0.2,0-0.3-0.2-0.4c0,0,0,0,0,0l-1.8-0.6C124.1,217.4,123.9,217.5,123.8,217.6z"/>
				<path class="st24" d="M126.4,215.9L126.4,215.9c0,0.2,0,0.4,0.2,0.4l1.9,0.6c0.2,0,0.4,0,0.4-0.2l0,0c0.1-0.2,0-0.4-0.2-0.4
					l-1.8-0.6C126.6,215.6,126.5,215.7,126.4,215.9C126.4,215.9,126.4,215.9,126.4,215.9z"/>
				<path class="st25" d="M132.1,217.1c0.1,1.1-0.6,2-1.7,2.1c-1.1,0.1-2-0.6-2.1-1.7c-0.1-1.1,0.6-2,1.7-2.1c0.2,0,0.4,0,0.6,0
					C131.3,215.6,132,216.3,132.1,217.1z"/>
				<path class="st25" d="M129.4,219.7c-0.1,1.1-1,1.9-2,1.8c-1.1-0.1-1.9-1-1.8-2c0.1-1.1,1-1.9,2-1.8c0.2,0,0.4,0.1,0.6,0.1
					C129,218.1,129.5,218.9,129.4,219.7z"/>
				<path class="st24" d="M121,219.6L121,219.6c-0.1,0.2,0,0.3,0.2,0.4c0,0,0,0,0,0l1.8,0.6c0.2,0.1,0.4,0,0.4-0.2l0,0
					c0.1-0.2,0-0.4-0.2-0.4c0,0,0,0,0,0l-1.8-0.6C121.2,219.3,121.1,219.4,121,219.6C121,219.6,121,219.6,121,219.6z"/>
				<path class="st25" d="M126.6,221.7c-0.1,1.1-1,1.9-2,1.8c-1.1-0.1-1.9-1-1.8-2c0.1-1.1,1-1.9,2-1.8c0.2,0,0.4,0.1,0.6,0.1
					C126.1,220.1,126.6,220.8,126.6,221.7z"/>
				<path class="st24" d="M121.7,222L121.7,222c-0.1,0.2-0.4,0.2-0.6,0.1c0,0,0,0,0,0l-6.6-4.5c-0.2-0.1-0.2-0.4-0.1-0.6l0,0
					c0.1-0.2,0.4-0.2,0.6-0.1l6.6,4.5C121.8,221.6,121.8,221.8,121.7,222C121.7,222,121.7,222,121.7,222z"/>
				<path class="st24" d="M116.4,218.5L116.4,218.5c0,0.1,0,0.3-0.2,0.3c0,0,0,0,0,0l-1.3,0.4c-0.1,0-0.3,0-0.3-0.2c0,0,0,0,0,0l0,0
					c0-0.1,0-0.3,0.2-0.3c0,0,0,0,0,0l1.3-0.4C116.2,218.3,116.4,218.4,116.4,218.5z"/>
				<path class="st24" d="M114.5,217.2L114.5,217.2c0,0.1,0,0.3-0.2,0.3l-1.3,0.4c-0.1,0-0.3,0-0.3-0.1l0,0c0-0.1,0-0.3,0.2-0.3
					l1.3-0.4C114.4,217,114.5,217.1,114.5,217.2C114.5,217.2,114.5,217.2,114.5,217.2z"/>
				<path class="st25" d="M110.4,218.1c-0.1,0.8,0.5,1.5,1.2,1.6s1.5-0.5,1.6-1.2c0.1-0.8-0.5-1.5-1.2-1.6c-0.1,0-0.3,0-0.4,0
					C111,217,110.5,217.5,110.4,218.1z"/>
				<path class="st25" d="M112.3,220c0.5,0.6,1.4,0.7,2,0.2c0.4-0.3,0.5-0.7,0.5-1.2c-0.4-0.5-1-0.7-1.6-0.4
					C112.7,218.8,112.3,219.4,112.3,220z"/>
				<path class="st24" d="M118.4,219.9L118.4,219.9c0,0.1,0,0.3-0.1,0.3c0,0,0,0,0,0l-1.3,0.4c-0.1,0-0.3,0-0.3-0.1l0,0
					c0-0.1,0-0.3,0.2-0.3l1.3-0.4C118.3,219.7,118.4,219.7,118.4,219.9C118.4,219.9,118.4,219.9,118.4,219.9z"/>
				<path class="st25" d="M114.4,221.4c0.5,0.6,1.4,0.7,2,0.2c0.4-0.3,0.6-0.7,0.5-1.2c-0.4-0.5-1-0.7-1.6-0.4
					C114.7,220.2,114.4,220.8,114.4,221.4z"/>
				<path class="st24" d="M116.5,218.4L116.5,218.4c0.1,0,0.2-0.1,0.2-0.3c0,0,0,0,0,0l-0.1-1.4c0-0.1-0.1-0.2-0.3-0.2c0,0,0,0,0,0
					l0,0c-0.1,0-0.2,0.1-0.2,0.3c0,0,0,0,0,0l0.1,1.4C116.2,218.3,116.3,218.4,116.5,218.4C116.5,218.4,116.5,218.4,116.5,218.4z"/>
				<path class="st24" d="M114.6,217.1L114.6,217.1c0.1,0,0.2-0.1,0.2-0.3l-0.1-1.4c0-0.1-0.1-0.2-0.3-0.2c0,0,0,0,0,0l0,0
					c-0.1,0-0.2,0.1-0.2,0.3l0.1,1.4C114.4,217,114.5,217.1,114.6,217.1z"/>
				<path class="st25" d="M114,212.9c0.7-0.4,1.5-0.1,1.9,0.6c0.4,0.7,0.1,1.5-0.6,1.9s-1.5,0.1-1.9-0.6c-0.1-0.1-0.1-0.3-0.1-0.4
					C113.2,213.8,113.5,213.2,114,212.9z"/>
				<path class="st25" d="M116.4,214c0.7-0.2,1.5,0.2,1.7,0.9c0.2,0.7-0.2,1.5-0.9,1.7c-0.7,0.2-1.5-0.2-1.7-0.9
					c0-0.1-0.1-0.3-0.1-0.4C115.4,214.7,115.8,214.2,116.4,214z"/>
				<path class="st24" d="M118.5,219.8L118.5,219.8c0.1,0,0.2-0.1,0.2-0.3l-0.1-1.4c0-0.1-0.1-0.2-0.3-0.2c0,0,0,0,0,0l0,0
					c-0.1,0-0.2,0.1-0.2,0.3l0.1,1.4C118.3,219.7,118.4,219.8,118.5,219.8z"/>
				<path class="st25" d="M118.5,215.4c0.7-0.2,1.5,0.2,1.7,0.9s-0.2,1.5-0.9,1.7c-0.7,0.2-1.5-0.2-1.7-0.9c0-0.1-0.1-0.3-0.1-0.4
					C117.5,216.1,117.9,215.6,118.5,215.4z"/>
				<path class="st10" d="M112.4,215.9L112.4,215.9c-0.2,0.5-0.8,0.7-1.3,0.5c0,0,0,0,0,0l-0.6-0.3c-0.5-0.2-0.7-0.8-0.5-1.3
					c0,0,0,0,0,0l0,0c0.2-0.5,0.8-0.7,1.3-0.5c0,0,0,0,0,0l0.6,0.3C112.4,214.8,112.7,215.3,112.4,215.9
					C112.4,215.9,112.4,215.9,112.4,215.9z"/>
				<path class="st10" d="M114.4,216.7L114.4,216.7c-0.2,0.5-0.8,0.7-1.3,0.5c0,0,0,0,0,0l-0.6-0.3c-0.5-0.2-0.7-0.8-0.5-1.3
					c0,0,0,0,0,0l0,0c0.2-0.5,0.8-0.7,1.3-0.5c0,0,0,0,0,0l0.6,0.3C114.4,215.6,114.7,216.2,114.4,216.7
					C114.5,216.7,114.5,216.7,114.4,216.7z"/>
				<path class="st10" d="M112.1,216L112.1,216c-0.5-0.2-0.7-0.8-0.5-1.3c0,0,0,0,0,0l0.3-0.6c0.2-0.5,0.8-0.7,1.3-0.5c0,0,0,0,0,0
					l0,0c0.5,0.2,0.7,0.8,0.5,1.3c0,0,0,0,0,0l-0.3,0.6C113.2,216,112.6,216.2,112.1,216C112.1,216,112.1,216,112.1,216z"/>
				<path class="st10" d="M111.2,218L111.2,218c-0.5-0.2-0.7-0.8-0.5-1.3c0,0,0,0,0,0l0.3-0.6c0.2-0.5,0.8-0.7,1.3-0.5c0,0,0,0,0,0
					l0,0c0.5,0.2,0.7,0.8,0.5,1.3c0,0,0,0,0,0l-0.3,0.6C112.3,218,111.7,218.2,111.2,218C111.2,218,111.2,218,111.2,218z"/>
				<path class="st26" d="M112.4,215.7L112.4,215.7c0.2,0.6-0.1,1.2-0.6,1.4l-0.7,0.3c-0.5,0.2-1.2-0.1-1.4-0.6l0,0
					c-0.2-0.5,0.1-1.2,0.6-1.4c0,0,0,0,0,0l0.7-0.3C111.6,214.8,112.2,215.1,112.4,215.7z"/>
				<path class="st26" d="M114.6,214.8L114.6,214.8c0.2,0.6-0.1,1.2-0.6,1.4l-0.7,0.3c-0.5,0.2-1.2,0-1.4-0.6c0,0,0,0,0,0l0,0
					c-0.2-0.6,0.1-1.2,0.6-1.4l0.7-0.3C113.8,214,114.4,214.3,114.6,214.8C114.6,214.8,114.6,214.8,114.6,214.8z"/>
				<path class="st26" d="M112.3,216L112.3,216c-0.5,0.2-1.2-0.1-1.4-0.6l-0.3-0.7c-0.2-0.6,0.1-1.2,0.6-1.4l0,0
					c0.5-0.2,1.2,0.1,1.4,0.6l0.3,0.7C113.1,215.2,112.8,215.8,112.3,216z"/>
				<path class="st26" d="M113.2,218.2L113.2,218.2c-0.5,0.2-1.2,0-1.4-0.6c0,0,0,0,0,0l-0.3-0.7c-0.2-0.5,0-1.2,0.6-1.4
					c0,0,0,0,0,0l0,0c0.6-0.2,1.2,0.1,1.4,0.6l0.3,0.7C114,217.4,113.7,218,113.2,218.2C113.2,218.2,113.2,218.2,113.2,218.2z"/>
				<path class="st17" d="M111.7,214.7c0.6-0.2,1.2,0.1,1.4,0.6c0.2,0.6-0.1,1.2-0.6,1.4c-0.6,0.2-1.2-0.1-1.4-0.6
					C110.9,215.6,111.2,214.9,111.7,214.7z"/>
				<path class="st10" d="M129.1,213.7L129.1,213.7c-0.6-0.5-0.6-1.4,0-2c0,0,0,0,0,0l0.7-0.7c0.5-0.6,1.4-0.6,2,0c0,0,0,0,0,0l0,0
					c0.6,0.5,0.6,1.4,0,2c0,0,0,0,0,0l-0.7,0.7C130.5,214.2,129.7,214.3,129.1,213.7C129.1,213.7,129.1,213.7,129.1,213.7z"/>
				<path class="st10" d="M126.9,215.8L126.9,215.8c-0.6-0.5-0.6-1.4,0-2c0,0,0,0,0,0l0.7-0.7c0.5-0.6,1.4-0.6,2,0c0,0,0,0,0,0l0,0
					c0.6,0.5,0.6,1.4,0,2c0,0,0,0,0,0l-0.7,0.7C128.4,216.4,127.5,216.4,126.9,215.8C127,215.9,126.9,215.9,126.9,215.8z"/>
				<path class="st10" d="M129.1,213.2L129.1,213.2c0.5-0.5,1.4-0.5,1.9,0l0.7,0.7c0.6,0.5,0.6,1.4,0,2c0,0,0,0,0,0l0,0
					c-0.5,0.6-1.4,0.6-2,0c0,0,0,0,0,0l-0.7-0.7C128.5,214.7,128.5,213.8,129.1,213.2C129.1,213.2,129.1,213.2,129.1,213.2z"/>
				<path class="st10" d="M126.9,211.1L126.9,211.1c0.5-0.6,1.4-0.6,2,0c0,0,0,0,0,0l0.7,0.7c0.6,0.5,0.6,1.4,0,2c0,0,0,0,0,0l0,0
					c-0.5,0.6-1.4,0.6-2,0c0,0,0,0,0,0l-0.7-0.7C126.4,212.5,126.5,211.7,126.9,211.1z"/>
				<path class="st26" d="M129.3,213.8L129.3,213.8c-0.8,0-1.5-0.7-1.5-1.5v-1c0-0.8,0.6-1.5,1.5-1.5c0,0,0,0,0,0l0,0
					c0.8,0,1.5,0.7,1.5,1.5v1C130.8,213.2,130.1,213.8,129.3,213.8z"/>
				<path class="st26" d="M129.3,217.1L129.3,217.1c-0.8,0-1.5-0.7-1.5-1.5v-1c0-0.8,0.6-1.5,1.5-1.5c0,0,0,0,0,0l0,0
					c0.8,0,1.5,0.7,1.5,1.5v1C130.8,216.4,130.1,217.1,129.3,217.1z"/>
				<path class="st26" d="M129,213.5L129,213.5c0-0.8,0.7-1.5,1.5-1.5h1c0.8,0,1.5,0.7,1.5,1.5c0,0,0,0,0,0l0,0
					c0,0.8-0.7,1.5-1.5,1.5l0,0h-1C129.7,214.9,129,214.3,129,213.5z"/>
				<path class="st26" d="M125.7,213.5L125.7,213.5c0-0.8,0.7-1.5,1.5-1.5h1c0.8,0,1.5,0.7,1.5,1.5c0,0,0,0,0,0l0,0
					c0,0.8-0.7,1.5-1.5,1.5l0,0h-1C126.4,214.9,125.7,214.3,125.7,213.5z"/>
				<path class="st17" d="M130.9,213.4c0,0.8-0.7,1.5-1.5,1.5s-1.5-0.7-1.5-1.5c0-0.8,0.7-1.5,1.5-1.5l0,0
					C130.2,211.8,130.9,212.5,130.9,213.4z"/>
				<path class="st24" d="M109.1,221.1L109.1,221.1c0-0.3,0.2-0.5,0.5-0.5c0,0,0,0,0,0l9.6-0.3c0.3,0,0.5,0.2,0.5,0.5c0,0,0,0,0,0
					l0,0c0,0.3-0.2,0.5-0.5,0.5l-9.6,0.3C109.4,221.5,109.2,221.3,109.1,221.1z"/>
				<path class="st24" d="M116.7,220.7L116.7,220.7c-0.1-0.1-0.2-0.3-0.1-0.4l1-1.4c0.1-0.1,0.3-0.2,0.4-0.1c0,0,0,0,0,0l0,0
					c0.1,0.1,0.2,0.3,0.1,0.4c0,0,0,0,0,0l-1,1.4C117,220.8,116.9,220.8,116.7,220.7z"/>
				<path class="st24" d="M119.4,220.6L119.4,220.6c-0.1-0.1-0.2-0.3-0.1-0.4c0,0,0,0,0,0l1-1.4c0.1-0.1,0.3-0.2,0.4-0.1
					c0,0,0,0,0,0l0,0c0.1,0.1,0.2,0.3,0.1,0.4c0,0,0,0,0,0l-1,1.4C119.8,220.7,119.6,220.7,119.4,220.6z"/>
				<path class="st25" d="M122.8,216.8c-0.5-0.8-1.5-1.1-2.3-0.6s-1.1,1.5-0.6,2.3c0.5,0.8,1.5,1.1,2.3,0.6c0.1-0.1,0.3-0.2,0.4-0.3
					C123.1,218.3,123.2,217.5,122.8,216.8z"/>
				<path class="st25" d="M119.6,216.4c-0.7-0.2-1.5,0.1-1.9,0.7c-0.2,0.7,0.2,1.3,0.9,1.5c0.7,0.2,1.3-0.2,1.5-0.9
					C120.3,217.2,120.1,216.6,119.6,216.4z"/>
				<path class="st24" d="M113.8,220.8L113.8,220.8c-0.1-0.1-0.2-0.3-0.1-0.4c0,0,0,0,0,0l1-1.4c0.1-0.1,0.3-0.2,0.4-0.1
					c0,0,0,0,0,0l0,0c0.1,0.1,0.2,0.3,0.1,0.4l-1,1.4C114.1,220.9,113.9,220.9,113.8,220.8C113.8,220.8,113.8,220.8,113.8,220.8z"/>
				<path class="st25" d="M116.6,216.4c-0.7-0.2-1.5,0.1-1.9,0.7c-0.2,0.7,0.2,1.3,0.9,1.5c0.7,0.2,1.3-0.2,1.5-0.9
					C117.3,217.3,117.1,216.7,116.6,216.4z"/>
				<path class="st24" d="M116.8,220.9L116.8,220.9c-0.1,0.1-0.1,0.3,0,0.4l1.1,1.3c0.1,0.1,0.3,0.1,0.4,0l0,0
					c0.1-0.1,0.1-0.3,0-0.4l-1.1-1.3C117.1,220.8,116.9,220.8,116.8,220.9z"/>
				<path class="st24" d="M119.4,220.8L119.4,220.8c-0.1,0.1-0.1,0.3,0,0.4l1.1,1.3c0.1,0.1,0.3,0.1,0.4,0l0,0
					c0.1-0.1,0.1-0.3,0-0.4l-1.1-1.3C119.7,220.7,119.6,220.7,119.4,220.8z"/>
				<path class="st25" d="M123,224.4c-0.6,0.4-1.5,0.3-2-0.2c-0.6-0.3-0.9-1-0.5-1.7c0.3-0.6,1-0.9,1.7-0.5c0.2,0.1,0.4,0.3,0.5,0.5
					C123.2,222.9,123.3,223.7,123,224.4z"/>
				<path class="st25" d="M119.9,225.1c-0.7,0.2-1.5,0-1.9-0.6c-0.2-0.6,0.1-1.3,0.8-1.6c0.6-0.2,1.3,0.1,1.6,0.8
					C120.5,224.2,120.3,224.7,119.9,225.1z"/>
				<path class="st24" d="M113.8,221L113.8,221c-0.1,0.1-0.1,0.3,0,0.4l1.1,1.3c0.1,0.1,0.3,0.1,0.4,0l0,0c0.1-0.1,0.1-0.3,0-0.4
					l-1.1-1.3C114.1,220.9,113.9,220.9,113.8,221z"/>
				<path class="st25" d="M116.9,225.1c-0.6,0.7-1.6,0.9-2.3,0.3c-0.7-0.6-0.9-1.6-0.3-2.3s1.6-0.9,2.3-0.3c0.1,0.1,0.3,0.2,0.3,0.3
					C117.3,223.7,117.3,224.5,116.9,225.1z"/>
				<path class="st10" d="M122.5,220.4L122.5,220.4c-0.1-0.6,0.3-1.3,0.9-1.4c0,0,0,0,0,0l0.8-0.2c0.6-0.1,1.3,0.3,1.4,0.9
					c0,0,0,0,0,0l0,0c0.1,0.6-0.3,1.3-0.9,1.4l-0.8,0.2C123.2,221.5,122.6,221.1,122.5,220.4z"/>
				<path class="st10" d="M119.9,221L119.9,221c-0.1-0.7,0.3-1.3,0.9-1.4l0.8-0.2c0.7-0.1,1.3,0.3,1.4,0.9l0,0
					c0.1,0.6-0.3,1.3-0.9,1.4c0,0,0,0,0,0l-0.8,0.2C120.7,222.1,120,221.7,119.9,221z"/>
				<path class="st10" d="M122.7,220.1L122.7,220.1c0.6-0.1,1.3,0.3,1.4,0.9c0,0,0,0,0,0l0.2,0.8c0.1,0.6-0.3,1.3-0.9,1.4l0,0
					c-0.7,0.1-1.3-0.3-1.4-0.9l-0.2-0.8C121.6,220.9,122,220.3,122.7,220.1C122.7,220.1,122.7,220.1,122.7,220.1z"/>
				<path class="st10" d="M122.1,217.5L122.1,217.5c0.6-0.1,1.3,0.3,1.4,0.9l0.2,0.8c0.1,0.6-0.3,1.3-0.9,1.4c0,0,0,0,0,0l0,0
					c-0.6,0.1-1.3-0.3-1.4-0.9l-0.2-0.8C121.1,218.3,121.5,217.7,122.1,217.5z"/>
				<path class="st26" d="M122.6,220.7L122.6,220.7c-0.6-0.4-0.8-1.2-0.4-1.8l0.5-0.7c0.4-0.6,1.2-0.8,1.8-0.4l0,0
					c0.6,0.4,0.8,1.2,0.4,1.8l-0.5,0.7C124,220.9,123.2,221,122.6,220.7z"/>
				<path class="st26" d="M121.1,223L121.1,223c-0.6-0.4-0.8-1.2-0.4-1.8l0.5-0.7c0.4-0.6,1.2-0.8,1.8-0.4l0,0
					c0.6,0.4,0.8,1.2,0.4,1.8l-0.5,0.7C122.4,223.2,121.6,223.4,121.1,223z"/>
				<path class="st26" d="M122.5,220.2L122.5,220.2c0.4-0.6,1.2-0.8,1.8-0.4l0.7,0.5c0.6,0.4,0.8,1.2,0.4,1.8l0,0
					c-0.4,0.6-1.2,0.8-1.8,0.4l-0.7-0.5C122.3,221.6,122.1,220.8,122.5,220.2z"/>
				<path class="st26" d="M120.1,218.7L120.1,218.7c0.4-0.6,1.2-0.8,1.8-0.4l0.7,0.5c0.6,0.4,0.8,1.2,0.4,1.8l0,0
					c-0.4,0.6-1.2,0.8-1.8,0.4l-0.7-0.5C119.9,220.1,119.7,219.3,120.1,218.7z"/>
				<path class="st17" d="M123.9,221.1c-0.4,0.6-1.2,0.8-1.8,0.4c-0.6-0.4-0.8-1.2-0.4-1.8c0.4-0.6,1.2-0.8,1.8-0.4
					C124.2,219.6,124.3,220.4,123.9,221.1C123.9,221.1,123.9,221.1,123.9,221.1z"/>
			</g>
		</g>
	</g>
</g>
</svg>
