<svg xmlns="http://www.w3.org/2000/svg" xmlns:xlink="http://www.w3.org/1999/xlink" viewBox="0 0 235.04 381.18"><defs><style>.cls-1{fill:none;}.cls-2{fill:#231f20;}.cls-3{fill:#f4b155;}.cls-4{fill:#fff0cc;}.cls-5{clip-path:url(#clip-path);}.cls-6{fill:#2b3251;}.cls-7{fill:#fff;}.cls-8{fill:#3d7c89;}.cls-9{fill:#4c9ba5;}.cls-10{fill:#494f6a;}.cls-11{fill:#424551;}.cls-12{fill:#bcbec0;}.cls-13{fill:#f1f2f2;}.cls-14{fill:#939598;}.cls-15{fill:#d1d3d4;}.cls-16{fill:#ffd351;}.cls-17{fill:#f49e40;}.cls-18{fill:#e6705f;}.cls-19{fill:#ffa73e;}.cls-20{fill:#f5b155;}.cls-21{fill:#3a335f;}.cls-22{fill:#dd4f65;}.cls-23{fill:#f9fafb;}.cls-24{fill:#ffd150;}.cls-25{fill:#414042;}.cls-26{fill:#f2c351;}.cls-27{fill:#f4b055;}.cls-28{fill:#f7c74d;}.cls-29{fill:#48c2ca;}.cls-30{fill:#e6e7e8;}.cls-31{fill:#c64760;}</style><clipPath id="clip-path"><rect class="cls-1" x="28.94" y="46.32" width="178.55" height="241.88" rx="24.79"/></clipPath></defs><g id="Layer_2" data-name="Layer 2"><g id="Layer_1-2" data-name="Layer 1"><path class="cls-2" d="M181.35,286.64H53.69a25.1,25.1,0,0,1-25.07-25.06V68.38A25.09,25.09,0,0,1,53.69,43.32H181.35a25.09,25.09,0,0,1,25.06,25.06v193.2A25.09,25.09,0,0,1,181.35,286.64ZM53.69,44.76A23.65,23.65,0,0,0,30.06,68.38v193.2a23.65,23.65,0,0,0,23.63,23.61H181.35A23.64,23.64,0,0,0,205,261.58V68.38a23.65,23.65,0,0,0-23.62-23.62Z"/><path class="cls-3" d="M235,14.45V366.73c0,8-6.73,14.45-15,14.45H15c-8.26,0-15-6.48-15-14.45V14.45C0,6.48,6.73,0,15,0H220C228.31,0,235,6.48,235,14.45Zm-12.6,343.89V22.83A10.83,10.83,0,0,0,211.62,12H23.42A10.83,10.83,0,0,0,12.6,22.83V358.34a10.83,10.83,0,0,0,10.82,10.82h188.2A10.83,10.83,0,0,0,222.44,358.34Z"/><rect class="cls-4" x="12.6" y="12.02" width="209.84" height="357.15" rx="10.82"/><path class="cls-2" d="M57.85,335a.77.77,0,0,1-.17-.53V322.49a.79.79,0,0,1,.17-.55.72.72,0,0,1,.56-.17h8.17a.57.57,0,0,1,.69.68V323a.79.79,0,0,1-.15.54.67.67,0,0,1-.54.17H60.19v3.79h4.64a.75.75,0,0,1,.55.16.74.74,0,0,1,.16.53v.53a.79.79,0,0,1-.16.54.75.75,0,0,1-.55.17H60.19v5A.76.76,0,0,1,60,335a.82.82,0,0,1-.58.17h-1A.76.76,0,0,1,57.85,335Z"/><path class="cls-2" d="M69,335a.76.76,0,0,1-.16-.53V322.49a.79.79,0,0,1,.16-.55.74.74,0,0,1,.56-.17h1a.63.63,0,0,1,.75.72v11.93a.72.72,0,0,1-.17.53.8.8,0,0,1-.58.17h-1A.78.78,0,0,1,69,335Z"/><path class="cls-2" d="M78.65,335a.84.84,0,0,1-.25-.39l-5.11-12.31a.69.69,0,0,1-.05-.24.31.31,0,0,1,.08-.23.37.37,0,0,1,.25-.08h1.69a.7.7,0,0,1,.39.09.72.72,0,0,1,.22.32l3.71,9.43,3.71-9.43a.65.65,0,0,1,.22-.32.7.7,0,0,1,.39-.09h1.69a.39.39,0,0,1,.25.08.36.36,0,0,1,.08.23.53.53,0,0,1-.06.24l-5.08,12.31a.84.84,0,0,1-.26.39.67.67,0,0,1-.41.1H79.05A.62.62,0,0,1,78.65,335Z"/><path class="cls-2" d="M87.72,335a.77.77,0,0,1-.17-.53V322.49a.79.79,0,0,1,.17-.55.74.74,0,0,1,.56-.17h8.17a.57.57,0,0,1,.69.68V323a.79.79,0,0,1-.15.54.67.67,0,0,1-.54.17H90.07v3.81H94.7a.72.72,0,0,1,.55.16.7.7,0,0,1,.16.53v.49a.74.74,0,0,1-.16.54.72.72,0,0,1-.55.17H90.07v3.83h6.36a.74.74,0,0,1,.55.16.77.77,0,0,1,.16.54v.53A.7.7,0,0,1,97,335a.79.79,0,0,1-.55.15H88.28A.78.78,0,0,1,87.72,335Z"/><path class="cls-2" d="M107.87,333.59a8.48,8.48,0,0,1,0-10.29,7.68,7.68,0,0,1,9.95,0,8.44,8.44,0,0,1,0,10.29,7.68,7.68,0,0,1-9.95,0Zm8.12-1.33a7.22,7.22,0,0,0,0-7.63,3.85,3.85,0,0,0-3.14-1.29,3.9,3.9,0,0,0-3.15,1.29,7.22,7.22,0,0,0,0,7.63,3.85,3.85,0,0,0,3.15,1.31A3.81,3.81,0,0,0,116,332.26Z"/><path class="cls-2" d="M121.66,335a.77.77,0,0,1-.17-.53V322.49a.79.79,0,0,1,.17-.55.74.74,0,0,1,.56-.17h8.17a.57.57,0,0,1,.69.68V323a.79.79,0,0,1-.15.54.67.67,0,0,1-.54.17H124v3.79h4.63a.72.72,0,0,1,.55.16.7.7,0,0,1,.16.53v.53a.74.74,0,0,1-.16.54.72.72,0,0,1-.55.17H124v5a.77.77,0,0,1-.17.53.8.8,0,0,1-.58.17h-1A.78.78,0,0,1,121.66,335Z"/><path class="cls-2" d="M141.7,333.61a8.27,8.27,0,0,1,0-10.33,6.89,6.89,0,0,1,5.13-1.81,10.24,10.24,0,0,1,2.48.28,6,6,0,0,1,1.92.78.33.33,0,0,1,.18.26.48.48,0,0,1-.1.27l-.55.94c-.08.12-.15.18-.22.18a.69.69,0,0,1-.27-.1,6.13,6.13,0,0,0-3.16-.74,4.67,4.67,0,0,0-3.48,1.27,5.26,5.26,0,0,0-1.26,3.83,5.19,5.19,0,0,0,1.3,3.86,4.76,4.76,0,0,0,3.5,1.27,6.47,6.47,0,0,0,3.35-.77,1,1,0,0,1,.26-.09c.08,0,.16.06.24.17l.6,1a.49.49,0,0,1,.06.2c0,.08-.07.16-.21.26a8.09,8.09,0,0,1-4.58,1.06A7.06,7.06,0,0,1,141.7,333.61Z"/><path class="cls-2" d="M156.32,334.82a4.65,4.65,0,0,1-2.1-1.74,4.75,4.75,0,0,1-.75-2.67v-7.92a.79.79,0,0,1,.17-.55.72.72,0,0,1,.56-.17h1a.78.78,0,0,1,.57.17.74.74,0,0,1,.17.55v8a2.89,2.89,0,0,0,.9,2.31,3.72,3.72,0,0,0,2.56.79,3.68,3.68,0,0,0,2.54-.79,2.89,2.89,0,0,0,.9-2.31v-8a.62.62,0,0,1,.74-.72h1c.51,0,.76.24.76.72v7.92a4.69,4.69,0,0,1-.75,2.66,5,5,0,0,1-2.12,1.74,8.3,8.3,0,0,1-6.22,0Z"/><path class="cls-2" d="M167.8,335a.77.77,0,0,1-.17-.53V322.49a.79.79,0,0,1,.17-.55.74.74,0,0,1,.56-.17h5a5,5,0,0,1,3.58,1.14,4.42,4.42,0,0,1,1.17,3.29,4.36,4.36,0,0,1-1.17,3.27,5,5,0,0,1-3.58,1.13h-3.24v3.82a.77.77,0,0,1-.17.53.82.82,0,0,1-.58.17h-1A.78.78,0,0,1,167.8,335Zm5.47-6.25a2.39,2.39,0,0,0,1.79-.62,3.35,3.35,0,0,0,0-3.77,2.39,2.39,0,0,0-1.79-.62h-3.12v5Z"/><g class="cls-5"><polygon class="cls-6" points="221.77 10.91 12.99 10.91 12.99 183.62 12.99 203.63 12.99 298.29 221.66 298.29 221.66 203.63 221.77 203.63 221.77 10.91"/><path class="cls-7" d="M97,148.56H24.26a9.43,9.43,0,0,1-9.4-9.4h0a9.42,9.42,0,0,1,9.4-9.39H97a9.42,9.42,0,0,1,9.39,9.39h0A9.43,9.43,0,0,1,97,148.56Z"/><circle class="cls-7" cx="51.37" cy="125.21" r="23.35" transform="translate(-78.31 163.94) rotate(-84.32)"/><circle class="cls-7" cx="77.04" cy="131.92" r="16.64" transform="translate(-65.47 186.96) rotate(-80.83)"/><path class="cls-7" d="M141,148.56h55a7.13,7.13,0,0,0,7.11-7.11h0a7.13,7.13,0,0,0-7.11-7.11H141a7.13,7.13,0,0,0-7.11,7.11h0A7.13,7.13,0,0,0,141,148.56Z"/><circle class="cls-7" cx="175.55" cy="130.9" r="17.66"/><circle class="cls-7" cx="156.13" cy="135.98" r="12.59"/><rect class="cls-8" x="23.18" y="140.74" width="198.4" height="58.35"/><path class="cls-9" d="M106.39,165.93H71.53a1,1,0,0,1-1-1h0a1,1,0,0,1,1-1h34.86a1,1,0,0,1,1,1h0A1,1,0,0,1,106.39,165.93Z"/><path class="cls-9" d="M148.53,170.64H113.66a1,1,0,0,1-1-1h0a1,1,0,0,1,1-1h34.87a1,1,0,0,1,1,1h0A1,1,0,0,1,148.53,170.64Z"/><path class="cls-9" d="M152,162.51H117.08a1,1,0,0,1-1-1h0a1,1,0,0,1,1-1H152a1,1,0,0,1,1,1h0A1,1,0,0,1,152,162.51Z"/><path class="cls-9" d="M121.58,156.74H86.71a1,1,0,0,1-.95-1h0a1,1,0,0,1,.95-1h34.87a1,1,0,0,1,1,1h0A1,1,0,0,1,121.58,156.74Z"/><rect class="cls-9" x="102.81" y="148.5" width="57.8" height="2.46" rx="0.96"/><rect class="cls-9" x="39.1" y="144.75" width="57.8" height="2.46" rx="0.96"/><polygon class="cls-1" points="200.36 9.8 37.12 9.8 37.12 182.51 37.12 202.52 37.12 297.18 200.27 297.18 200.27 202.52 200.36 202.52 200.36 9.8"/><rect class="cls-10" x="18.82" y="175.75" width="192.56" height="134.21"/><rect class="cls-11" x="24.66" y="216.59" width="192.56" height="17.51" rx="7.78"/><rect class="cls-12" x="70.59" y="103.08" width="13.5" height="79.23"/><path class="cls-13" d="M86.33,184.31H69a2.52,2.52,0,0,1-2.51-2.51h0A2.52,2.52,0,0,1,69,179.29H86.33a2.52,2.52,0,0,1,2.51,2.51h0A2.52,2.52,0,0,1,86.33,184.31Z"/><path class="cls-7" d="M74.14,108.25h0a.7.7,0,0,1,.71.7v67.34a.71.71,0,0,1-.71.71h0a.7.7,0,0,1-.7-.71V109A.7.7,0,0,1,74.14,108.25Z"/><path class="cls-7" d="M77.46,108.25h0a.7.7,0,0,1,.71.7v67.34a.71.71,0,0,1-.71.71h0a.71.71,0,0,1-.71-.71V109A.7.7,0,0,1,77.46,108.25Z"/><path class="cls-7" d="M80.94,108.25h0a.7.7,0,0,1,.71.7v67.34a.71.71,0,0,1-.71.71h0a.7.7,0,0,1-.7-.71V109A.7.7,0,0,1,80.94,108.25Z"/><rect class="cls-14" x="70.59" y="103.08" width="13.5" height="3.94"/><path class="cls-11" d="M44.66,187.58H81.8A2.45,2.45,0,0,1,84.24,190h0a2.45,2.45,0,0,1-2.44,2.44H44.66A2.45,2.45,0,0,1,42.22,190h0A2.45,2.45,0,0,1,44.66,187.58Z"/><path class="cls-15" d="M62.12,163.16l-2-4.23,0-.05c-.11-.42-1.33-5.53,1.88-9.2,4.57-5.24,9.76-2,14.22-8.73a.3.3,0,0,1,.54.14,10.45,10.45,0,0,1-1.22,5.79.29.29,0,0,0,.45.36,8.17,8.17,0,0,0,1.75-2.14.29.29,0,0,1,.55.11c.13,1.6-.15,4.88-3.88,7.73a.29.29,0,0,0,.25.51A12.93,12.93,0,0,0,78.05,152a.3.3,0,0,1,.43.35c-.43,1.36-1.86,4.29-6.29,6a.29.29,0,0,0,.12.56,10.75,10.75,0,0,0,5-1.54.3.3,0,0,1,.39.43c-2.07,2.67-7.59,8.36-15.46,5.46A.29.29,0,0,1,62.12,163.16Z"/><path class="cls-16" d="M66.75,162v-4.68a.43.43,0,0,1,0-.05c.08-.42,1.15-5.56,5.63-7.52,6.37-2.79,9.69,2.34,16.59-1.83a.29.29,0,0,1,.42.35A10.36,10.36,0,0,1,85.8,153a.29.29,0,0,0,.24.52,8.21,8.21,0,0,0,2.55-1.22.29.29,0,0,1,.44.33c-.56,1.51-2.21,4.38-6.84,5.36a.29.29,0,0,0,0,.56,12.88,12.88,0,0,0,3.73.19.29.29,0,0,1,.25.48c-1,1-3.52,3.12-8.3,2.76a.29.29,0,0,0-.14.55,10.68,10.68,0,0,0,5.28.77.29.29,0,0,1,.16.54c-3,1.53-10.43,4.35-16.33-1.65A.25.25,0,0,1,66.75,162Z"/><path class="cls-16" d="M66.89,145.12a1.88,1.88,0,1,0,1.87-1.87A1.87,1.87,0,0,0,66.89,145.12Z"/><path class="cls-17" d="M73.7,180.3h-.29c-6.12-.2-10.3-7-10.47-7.26a1.79,1.79,0,1,1,3-1.86c.06.1,3.38,5.42,7.55,5.55,2.3.07,4.62-1.53,6.88-4.74a1.79,1.79,0,0,1,2.93,2C80.43,178.2,77.18,180.3,73.7,180.3Z"/><path class="cls-17" d="M55.76,160.26c-5.33,0-7.76-1.94-8.87-3.83-1.22-2.1-1-4.66-.1-5.74a1.79,1.79,0,0,1,2.87,2.11,2.72,2.72,0,0,0,.62,2.24c.88,1,3.49,2.53,11,1a1.78,1.78,0,0,1,.7,3.5A31.89,31.89,0,0,1,55.76,160.26ZM49.5,153h0Z"/><path class="cls-16" d="M67,141.67a2,2,0,1,0,2-2A2,2,0,0,0,67,141.67Z"/><path class="cls-18" d="M64.83,139.2a2.06,2.06,0,1,0,2.06-2.06A2.06,2.06,0,0,0,64.83,139.2Z"/><path class="cls-16" d="M58.18,141.67a2,2,0,1,1-2-2A2,2,0,0,1,58.18,141.67Z"/><circle class="cls-18" cx="58.28" cy="139.2" r="2.06"/><path class="cls-16" d="M58.28,145.12a1.88,1.88,0,1,1-1.88-1.87A1.88,1.88,0,0,1,58.28,145.12Z"/><path class="cls-19" d="M54.66,147.44A1.46,1.46,0,1,0,56.12,146,1.47,1.47,0,0,0,54.66,147.44Z"/><path class="cls-17" d="M55.18,147.44a.95.95,0,0,0,1.89,0,.95.95,0,1,0-1.89,0Z"/><path class="cls-19" d="M62.69,156h0a1,1,0,0,0,1-1v-1.85a1,1,0,0,0-1-1h0a1,1,0,0,0-1,1V155A1,1,0,0,0,62.69,156Z"/><path class="cls-20" d="M62.69,154.09h0a6.56,6.56,0,0,0,6.54-6.54v-2.74a6.56,6.56,0,0,0-6.54-6.54h0a6.56,6.56,0,0,0-6.54,6.54v2.74A6.56,6.56,0,0,0,62.69,154.09Z"/><path class="cls-19" d="M56.49,142.38a6.58,6.58,0,0,1,6.2-4.47h0a6.57,6.57,0,0,1,6.3,4.8,6.25,6.25,0,0,1,.24,1.74v2.74a6.56,6.56,0,0,1-6.54,6.54h0a6.56,6.56,0,0,1-6.54-6.54v-2.74A6.46,6.46,0,0,1,56.49,142.38Z"/><path class="cls-20" d="M61.56,149.82h.5a.5.5,0,0,0-1,0Z"/><path class="cls-21" d="M59,150.15h0a.65.65,0,0,0,.65-.65v-1.2a.65.65,0,0,0-.65-.65h0a.65.65,0,0,0-.65.65v1.2A.65.65,0,0,0,59,150.15Z"/><path class="cls-21" d="M63.71,150.15h0a.66.66,0,0,0,.66-.65v-1.2a.66.66,0,0,0-.66-.65h0a.65.65,0,0,0-.65.65v1.2A.65.65,0,0,0,63.71,150.15Z"/><path class="cls-16" d="M58.12,146.63l2.35-.71a.45.45,0,0,0,.3-.55h0a.45.45,0,0,0-.56-.3l-2.35.71a.45.45,0,0,0-.29.56h0A.44.44,0,0,0,58.12,146.63Z"/><path class="cls-16" d="M65.69,146.63l-2.35-.71a.43.43,0,0,1-.29-.55h0a.44.44,0,0,1,.55-.3l2.35.71a.44.44,0,0,1,.29.56h0A.44.44,0,0,1,65.69,146.63Z"/><path class="cls-22" d="M62.29,150.89a.84.84,0,0,1-1.68,0Z"/><path class="cls-16" d="M59.77,138.29a3,3,0,1,0,3-3A3,3,0,0,0,59.77,138.29Z"/><path class="cls-16" d="M58.5,141.48h8.36a2.29,2.29,0,0,0,2.28-2.28h0a2.29,2.29,0,0,0-2.28-2.29H58.5a2.29,2.29,0,0,0-2.28,2.29h0A2.29,2.29,0,0,0,58.5,141.48Z"/><path class="cls-16" d="M65.92,141.27a1.85,1.85,0,1,0,1.85-1.85A1.85,1.85,0,0,0,65.92,141.27Z"/><path class="cls-16" d="M62.36,141.27a1.85,1.85,0,1,0,1.85-1.85A1.85,1.85,0,0,0,62.36,141.27Z"/><path class="cls-16" d="M59,141.27a1.85,1.85,0,1,0,1.85-1.85A1.85,1.85,0,0,0,59,141.27Z"/><path class="cls-16" d="M55.75,141.27a1.86,1.86,0,1,0,1.86-1.85A1.85,1.85,0,0,0,55.75,141.27Z"/><path class="cls-19" d="M67.91,146.9a1.46,1.46,0,1,0,1.46-1.46A1.46,1.46,0,0,0,67.91,146.9Z"/><circle class="cls-17" cx="69.37" cy="146.9" r="0.94"/><path class="cls-19" d="M76.91,166.09a1.81,1.81,0,0,1-1.17-.44,1.78,1.78,0,0,1-.34-2.29,2.72,2.72,0,0,0-.62-2.24c-.88-1-3.49-2.53-11-1a1.78,1.78,0,1,1-.7-3.5c9.84-2,13.65.61,15.11,3.13,1.22,2.1,1,4.66.1,5.74A1.77,1.77,0,0,1,76.91,166.09Zm-1.35-3Z"/><path class="cls-19" d="M48.42,188.44a2.1,2.1,0,0,1-2.05-1.73c-.92-5.25,0-9.19,2.68-11.72,4.59-4.29,12.49-2.42,12.82-2.34a2.08,2.08,0,1,1-1,4h0c-1.67-.4-6.55-.94-9,1.34-1.61,1.51-2.08,4.18-1.42,8a2.08,2.08,0,0,1-1.7,2.41A1.47,1.47,0,0,1,48.42,188.44Z"/><path class="cls-19" d="M69,160.94a6.48,6.48,0,0,0-13,0v8.66H69Z"/><path class="cls-23" d="M62.53,178.17A6.48,6.48,0,0,0,69,171.69V169.6l-13-3.51v5.6A6.48,6.48,0,0,0,62.53,178.17Z"/><rect class="cls-12" x="51.1" y="102.85" width="16.64" height="97.67"/><rect class="cls-13" x="46.01" y="196.79" width="27.59" height="6.19" rx="3.02"/><rect class="cls-7" x="54.61" y="109.21" width="1.75" height="84.75" rx="0.85"/><rect class="cls-7" x="58.7" y="109.21" width="1.75" height="84.75" rx="0.85"/><rect class="cls-7" x="62.99" y="109.21" width="1.75" height="84.75" rx="0.85"/><rect class="cls-14" x="51.1" y="102.85" width="16.64" height="4.86"/><rect class="cls-12" x="149.18" y="103.08" width="13.5" height="79.23" transform="translate(311.86 285.39) rotate(180)"/><path class="cls-13" d="M146.93,184.31h17.36a2.52,2.52,0,0,0,2.51-2.51h0a2.52,2.52,0,0,0-2.51-2.51H146.93a2.51,2.51,0,0,0-2.5,2.51h0A2.51,2.51,0,0,0,146.93,184.31Z"/><path class="cls-7" d="M159.12,108.25h0a.7.7,0,0,0-.71.7v67.34a.71.71,0,0,0,.71.71h0a.71.71,0,0,0,.71-.71V109A.7.7,0,0,0,159.12,108.25Z"/><path class="cls-7" d="M155.8,108.25h0a.7.7,0,0,0-.7.7v67.34a.7.7,0,0,0,.7.71h0a.71.71,0,0,0,.71-.71V109A.7.7,0,0,0,155.8,108.25Z"/><path class="cls-7" d="M152.32,108.25h0a.7.7,0,0,0-.71.7v67.34a.71.71,0,0,0,.71.71h0a.71.71,0,0,0,.71-.71V109A.7.7,0,0,0,152.32,108.25Z"/><rect class="cls-14" x="149.18" y="103.08" width="13.5" height="3.94" transform="translate(311.86 210.1) rotate(180)"/><rect class="cls-12" x="166.17" y="102.85" width="16.64" height="97.67" transform="translate(348.99 303.36) rotate(180)"/><rect class="cls-13" x="160.31" y="196.79" width="27.59" height="6.19" rx="3.02" transform="translate(348.21 399.78) rotate(180)"/><rect class="cls-7" x="177.55" y="109.21" width="1.75" height="84.75" rx="0.85" transform="translate(356.86 303.18) rotate(180)"/><rect class="cls-7" x="173.47" y="109.21" width="1.75" height="84.75" rx="0.85" transform="translate(348.68 303.18) rotate(180)"/><rect class="cls-7" x="169.17" y="109.21" width="1.75" height="84.75" rx="0.85" transform="translate(340.09 303.18) rotate(180)"/><rect class="cls-14" x="166.17" y="102.85" width="16.64" height="4.86" transform="translate(348.99 210.55) rotate(180)"/><rect class="cls-12" x="26.87" y="100.9" width="21.39" height="125.56"/><path class="cls-24" d="M168.81,216.14V186.92a2.7,2.7,0,0,0-5.4,0v29.8l-2,.42a1.58,1.58,0,0,0-.85.5l-.41.45a1.61,1.61,0,0,0,1.19,2.7h6.45a1.62,1.62,0,0,0,1.61-1.62v-1.75A1.62,1.62,0,0,0,168.81,216.14Z"/><path class="cls-20" d="M162,210.48V181.26a2.7,2.7,0,0,0-5.4,0V211s0,.06,0,.09l-2,.42a1.62,1.62,0,0,0-.86.49l-.41.46a1.61,1.61,0,0,0,1.19,2.69H161a1.61,1.61,0,0,0,1.61-1.61v-1.75A1.6,1.6,0,0,0,162,210.48Z"/><rect class="cls-25" x="152.22" y="134.02" width="22.6" height="34.03" rx="8.65"/><circle class="cls-16" cx="153.53" cy="144.27" r="1.93"/><path class="cls-26" d="M154.77,144.27a1.25,1.25,0,1,1-1.24-1.25A1.24,1.24,0,0,1,154.77,144.27Z"/><path class="cls-16" d="M161.79,157.46h0a1.74,1.74,0,0,1-1.74-1.73V152.6a1.74,1.74,0,0,1,1.74-1.73h0a1.74,1.74,0,0,1,1.73,1.73v3.13A1.74,1.74,0,0,1,161.79,157.46Z"/><path class="cls-26" d="M161.73,153.05h0a8.67,8.67,0,0,1-8.64-8.64V140.8a8.67,8.67,0,0,1,8.64-8.64h0a8.67,8.67,0,0,1,8.64,8.64v3.61A8.67,8.67,0,0,1,161.73,153.05Z"/><path class="cls-16" d="M161.73,152.58h0a8.67,8.67,0,0,1-8.64-8.64v-3.61a8.66,8.66,0,0,1,8.64-8.64h0a8.66,8.66,0,0,1,8.64,8.64v3.61A8.67,8.67,0,0,1,161.73,152.58Z"/><path class="cls-25" d="M172,138.89H155a5.23,5.23,0,0,1-5.21-5.22h0a5.22,5.22,0,0,1,5.21-5.21H172a5.23,5.23,0,0,1,5.22,5.21h0A5.24,5.24,0,0,1,172,138.89Z"/><path class="cls-21" d="M162.83,146h0a1.11,1.11,0,0,1-1.1-1.11v-2a1.1,1.1,0,0,1,1.1-1.1h0a1.11,1.11,0,0,1,1.11,1.1v2A1.11,1.11,0,0,1,162.83,146Z"/><path class="cls-21" d="M156.65,146h0a1.11,1.11,0,0,1-1.11-1.11v-2a1.11,1.11,0,0,1,1.11-1.1h0a1.1,1.1,0,0,1,1.1,1.1v2A1.11,1.11,0,0,1,156.65,146Z"/><path class="cls-20" d="M159.51,145.63h-.66a.66.66,0,0,1,.66-.65.65.65,0,0,1,.65.65Z"/><path class="cls-25" d="M164.46,141.23h-3.25a.59.59,0,0,1-.58-.59h0a.58.58,0,0,1,.58-.58h3.25a.58.58,0,0,1,.58.58h0A.59.59,0,0,1,164.46,141.23Z"/><path class="cls-25" d="M157.88,141.23h-3.25a.6.6,0,0,1-.59-.59h0a.59.59,0,0,1,.59-.58h3.25a.58.58,0,0,1,.58.58h0A.59.59,0,0,1,157.88,141.23Z"/><path class="cls-27" d="M159.82,148.22a.26.26,0,0,0-.51,0Z"/><path class="cls-26" d="M162.5,163.38a2.22,2.22,0,0,1-.8-.15L132.23,151.9a2.21,2.21,0,0,1,1.58-4.13l29.48,11.33a2.21,2.21,0,0,1-.79,4.28Z"/><path class="cls-23" d="M167.29,156.15a10.14,10.14,0,0,0-1.42-.65c-.65.77-2.71,3.78-4.05,5.75a1.86,1.86,0,0,1-2.79.34l-2.89-2.6a1.87,1.87,0,0,1-.46-2.14,10.91,10.91,0,0,0-4.55,8.88v43.53L173,212.14V165.73A10.92,10.92,0,0,0,167.29,156.15Z"/><path class="cls-16" d="M156.14,159l2.89,2.6a1.86,1.86,0,0,0,2.79-.34c1.34-2,3.4-5,4.05-5.75a10.93,10.93,0,0,0-9.83,1.11l-.36.24A1.87,1.87,0,0,0,156.14,159Z"/><path class="cls-28" d="M141.3,149.55s-2.78,3.71-1,11.59c0,0-.5-8.73,1.36-12"/><path class="cls-16" d="M140.6,156.47l.25-.21A4,4,0,0,0,142,154.5a1.17,1.17,0,0,1-1,.31,2.67,2.67,0,0,0,1.41-1.64l.27-.88c.33-1.06.73-2,1.05-2.81a1.94,1.94,0,0,1-1.42.19,3.32,3.32,0,0,0,1-.28,1.42,1.42,0,0,0,.79-.89c.29-.95.33-1.74-.34-2.32s-1.63-.35-2.59.58a1.47,1.47,0,0,0-.43,1A2.35,2.35,0,0,0,141,149a1.64,1.64,0,0,1-.56-1.43,12.14,12.14,0,0,0-2,5,2.27,2.27,0,0,0,.8,2.07.93.93,0,0,1-.9-.6v.22a3,3,0,0,0,.37,1.35,2.85,2.85,0,0,0,.74.89,1,1,0,0,0-1.42.59,4.12,4.12,0,0,1,1.82.14s-1,.09-1,1.4a1,1,0,0,1,1-.69,13.57,13.57,0,0,1,.74-6.49,11.15,11.15,0,0,1,.56-1.26c.15-.3.25-.46.25-.46l-.17.49c-.11.31-.25.77-.39,1.31a18.23,18.23,0,0,0-.63,4.07,17.54,17.54,0,0,0,0,2.3,1,1,0,0,1,1.18.35,1.34,1.34,0,0,0-1.21-1.05,4.21,4.21,0,0,1,1.8-.3,1.17,1.17,0,0,0-1.46-.42Z"/><path class="cls-16" d="M154.89,172.26a18.78,18.78,0,0,1-16.52-9,2.21,2.21,0,0,1,3.72-2.4,14.46,14.46,0,0,0,13.32,7,23.67,23.67,0,0,0,8.27-1.8,2.21,2.21,0,0,1,1.85,4,28.13,28.13,0,0,1-9.84,2.19Z"/><path class="cls-29" d="M164.29,146.46l-.35-.61-.35.61a.43.43,0,0,0-.1.27.45.45,0,0,0,.89,0A.42.42,0,0,0,164.29,146.46Z"/><path class="cls-16" d="M172.23,144.27a1.93,1.93,0,1,1-1.92-1.93A1.92,1.92,0,0,1,172.23,144.27Z"/><path class="cls-26" d="M171.55,144.27a1.25,1.25,0,1,1-1.24-1.25A1.25,1.25,0,0,1,171.55,144.27Z"/><path class="cls-20" d="M161.42,148.45a.36.36,0,0,1-.3-.15c-.65-1-2.63-.83-3.34-.69a.36.36,0,0,1-.42-.29.36.36,0,0,1,.28-.42c.13,0,3-.56,4.07,1a.35.35,0,0,1-.09.5A.36.36,0,0,1,161.42,148.45Z"/><rect class="cls-12" x="187.69" y="100.9" width="21.39" height="125.56"/><rect class="cls-13" x="20.33" y="221.68" width="35.46" height="7.95" rx="3.48"/><rect class="cls-13" x="181.41" y="221.68" width="35.46" height="7.95" rx="3.48"/><polygon class="cls-7" points="117.97 41.54 4.47 101.65 231.47 101.65 117.97 41.54"/><polygon class="cls-30" points="117.97 47.89 28.46 95.3 207.49 95.3 117.97 47.89"/><rect class="cls-12" x="26.15" y="98.22" width="182.93" height="4.62"/><rect class="cls-7" x="192.02" y="109.09" width="2.24" height="108.95" rx="0.98"/><rect class="cls-7" x="197.28" y="109.09" width="2.24" height="108.95" rx="0.98"/><rect class="cls-7" x="202.8" y="109.09" width="2.24" height="108.95" rx="0.98"/><rect class="cls-7" x="31.38" y="110.5" width="2.24" height="108.95" rx="0.98"/><rect class="cls-7" x="36.64" y="110.5" width="2.24" height="108.95" rx="0.98"/><rect class="cls-7" x="42.16" y="110.5" width="2.24" height="108.95" rx="0.98"/><rect class="cls-14" x="187.69" y="102.85" width="21.39" height="6.25"/><rect class="cls-14" x="26.87" y="102.85" width="21.39" height="6.25"/><path class="cls-16" d="M111.8,129a.65.65,0,1,1-.64-.65A.65.65,0,0,1,111.8,129Z"/><path class="cls-16" d="M45.15,68.82a.65.65,0,1,1-.65-.65A.65.65,0,0,1,45.15,68.82Z"/><path class="cls-16" d="M178.46,66.65a.65.65,0,1,1-.65-.65A.65.65,0,0,1,178.46,66.65Z"/><path class="cls-16" d="M195.54,68.57a.65.65,0,1,1-.65-.64A.65.65,0,0,1,195.54,68.57Z"/><path class="cls-16" d="M169.8,55.1a.65.65,0,1,1-.65-.65A.65.65,0,0,1,169.8,55.1Z"/><path class="cls-16" d="M134.18,115a.65.65,0,0,1-.65.64.65.65,0,1,1,.65-.64Z"/><circle class="cls-16" cx="117.52" cy="110.28" r="0.65"/><path class="cls-16" d="M96.81,118.38a.65.65,0,1,1-.65-.64A.65.65,0,0,1,96.81,118.38Z"/><circle class="cls-16" cx="61.27" cy="55.41" r="0.65"/><path class="cls-16" d="M97.71,114.93a6.4,6.4,0,0,1,4.65-6.15,6.32,6.32,0,0,0-2-.24,6.4,6.4,0,0,0,.22,12.79,6.25,6.25,0,0,0,1.74-.24A6.41,6.41,0,0,1,97.71,114.93Z"/><path class="cls-11" d="M182.8,243.54H53.71a7,7,0,0,1-7-7h0a7,7,0,0,1,7-7H182.8a7,7,0,0,1,6.95,7h0A7,7,0,0,1,182.8,243.54Z"/><rect class="cls-12" x="52.22" y="220.48" width="130.59" height="14.48"/><polygon class="cls-7" points="52.22 220.48 73.79 204.82 164.79 204.82 182.81 220.48 52.22 220.48"/><path class="cls-22" d="M63,215.65l11.22-8.46a1.05,1.05,0,0,1,.64-.22h9.43a1.07,1.07,0,0,1,.76,1.82l-8.28,8.46a1.07,1.07,0,0,1-.77.32H63.6A1.07,1.07,0,0,1,63,215.65Z"/><polygon class="cls-22" points="104.84 234.95 104.84 220.48 108.2 204.82 164.79 204.82 182.81 220.48 182.81 234.95 104.84 234.95"/><rect class="cls-31" x="104.84" y="220.48" width="77.98" height="14.48"/><path class="cls-29" d="M107.13,277.17h-1.91c-.37,2.19-1,3.64-1.81,3.65a.7.7,0,0,1-.4-.13h-1a1.67,1.67,0,0,0,.88.25h4.28a1.76,1.76,0,0,0,1.76-1.75v-.27A1.76,1.76,0,0,0,107.13,277.17Z"/><rect class="cls-29" x="65.93" y="258.11" width="26.28" height="7.38" rx="3.14"/><rect class="cls-29" x="103.1" y="253.58" width="12.13" height="3.77" rx="1.6" transform="translate(219.66 510.36) rotate(179.7)"/><rect class="cls-29" x="105.7" y="249.27" width="16.47" height="2.65" rx="1.13" transform="translate(231.29 499.6) rotate(179.22)"/><path class="cls-29" d="M109,252.73h0a.86.86,0,0,0-.87-.84l4.14-.06a.85.85,0,0,0-.84.86h0a.86.86,0,0,0,.86.85l-4.14.05A.86.86,0,0,0,109,252.73Z"/><rect class="cls-29" x="102.6" y="284.67" width="18.59" height="5.78" rx="2.46" transform="translate(1.5 -0.58) rotate(0.3)"/><rect class="cls-29" x="91.97" y="278.07" width="25.23" height="4.06" rx="1.73" transform="translate(3.85 -1.41) rotate(0.78)"/><path class="cls-29" d="M112.22,283.37h0a1.31,1.31,0,0,1,1.32-1.29L107.2,282a1.32,1.32,0,0,1,1.3,1.33h0a1.31,1.31,0,0,1-1.33,1.29l6.34.08A1.31,1.31,0,0,1,112.22,283.37Z"/><rect class="cls-29" x="155.44" y="267.64" width="15.05" height="5.4" rx="2.3"/><rect class="cls-29" x="147.56" y="272.1" width="15.76" height="5.72" rx="2.43"/><path class="cls-16" d="M69.74,231.54l-.07,10.33a10,10,0,0,0,8.33,9.9v7.48l-4.18,2.9s1.08.85,5.82.85h0c4.74,0,5.88-.86,5.88-.86l-4.19-2.85v-7.53A10,10,0,0,0,89.63,242l.06-10.32Z"/><ellipse class="cls-20" cx="79.68" cy="231.6" rx="10" ry="1.55"/><path class="cls-16" d="M103.15,263.62l-8.83-.06a8.56,8.56,0,0,0-8.48,7.13h-6.4L77,267.11s-.73.92-.73,5v0c0,4.06.74,5,.74,5l2.44-3.58h6.44a8.57,8.57,0,0,0,8.36,7.07l8.83.06Z"/><ellipse class="cls-20" cx="103.1" cy="272.12" rx="1.33" ry="8.56"/><path class="cls-29" d="M103.31,280.69H103a.7.7,0,0,0,.4.13c.77,0,1.44-1.46,1.81-3.65H103.3Z"/><path class="cls-29" d="M103.3,277.17h-.45c-.47,0-.47,0-.79.3.34,1.56.4,2.86,1,3.22h.3Z"/><path class="cls-16" d="M127.59,265l-.06,9.29A9,9,0,0,0,135,283.2v6.73l-3.76,2.61s1,.76,5.24.76h0c4.27,0,5.29-.77,5.29-.77L138,290v-6.77a9,9,0,0,0,7.44-8.78l.06-9.29Z"/><ellipse class="cls-20" cx="136.53" cy="265.06" rx="9" ry="1.4"/><path class="cls-16" d="M148.73,244.18l0,6.19a6,6,0,0,0,5,5.93v4.49l-2.51,1.73s.65.51,3.49.51h0c2.84,0,3.52-.51,3.52-.51l-2.51-1.71v-4.52a6,6,0,0,0,5-5.85l0-6.19Z"/><path class="cls-20" d="M160.68,244.22c0,.51-2.68.93-6,.93s-6-.42-6-.93,2.69-.94,6-.94S160.68,243.7,160.68,244.22Z"/><path class="cls-16" d="M117.93,251.31l5.27,2.42a5.64,5.64,0,0,0,7-2l3.83,1.73.51,2.82s.69-.36,1.79-2.79h0c1.09-2.43.92-3.21.92-3.21l-2.43,1.48L131,250a5.63,5.63,0,0,0-3.09-6.5l-5.27-2.42Z"/><path class="cls-20" d="M122.58,241.11c.44.2-.24,2.65-1.52,5.48s-2.68,5-3.12,4.76.25-2.65,1.53-5.48S122.14,240.91,122.58,241.11Z"/></g></g></g></svg>