<?xml version="1.0" encoding="utf-8"?>
<!-- Generator: Adobe Illustrator 25.2.3, SVG Export Plug-In . SVG Version: 6.00 Build 0)  -->
<svg version="1.1" id="Layer_1" xmlns="http://www.w3.org/2000/svg" xmlns:xlink="http://www.w3.org/1999/xlink" x="0px" y="0px"
	 viewBox="0 0 235.3 381.2" style="enable-background:new 0 0 235.3 381.2;" xml:space="preserve">
<style type="text/css">
	.st0{fill:#F4B155;}
	.st1{fill:#FFF0CC;}
	.st2{fill:#231F20;}
	.st3{clip-path:url(#SVGID_2_);}
	.st4{fill:#A7F1F9;}
	.st5{fill:#789B78;}
	.st6{fill:#79B27B;}
	.st7{fill:#FFFFFF;}
	.st8{fill:#67D8DB;}
	.st9{fill:#81EFEF;}
	.st10{fill:none;}
	.st11{fill:#E6705F;}
	.st12{fill:#FFD351;}
	.st13{fill:#F5B155;}
	.st14{fill:#CE6357;}
	.st15{fill:#F2C351;}
	.st16{fill:#414042;}
	.st17{fill:#3A335F;}
	.st18{fill:#F4B055;}
	.st19{fill:#F9FAFB;}
	.st20{fill:#CDD06F;}
	.st21{fill:#74C7A7;}
	.st22{fill:#E6E7E8;}
</style>
<g id="Layer_2_1_">
	<g id="Layer_1-2">
		<path class="st0" d="M235,14.4v352.3c0,8-6.7,14.5-15,14.5H15c-8.3,0-15-6.5-15-14.5V14.4C0,6.5,6.7,0,15,0h205
			C228.3,0,235,6.5,235,14.4z M222.4,358.3V22.8c0-6-4.8-10.8-10.8-10.8H23.4c-6,0-10.8,4.9-10.8,10.8v335.5c0,6,4.8,10.8,10.8,10.8
			h188.2C217.6,369.2,222.4,364.3,222.4,358.3L222.4,358.3z"/>
		<path class="st1" d="M23.4,12h188.2c6,0,10.8,4.8,10.8,10.8v335.5c0,6-4.8,10.8-10.8,10.8H23.4c-6,0-10.8-4.8-10.8-10.8V22.8
			C12.6,16.9,17.4,12,23.4,12z"/>
		<path class="st2" d="M65.1,335.1c-0.8-0.2-1.5-0.4-2.2-0.9c-0.2-0.1-0.2-0.2-0.2-0.3c0-0.1,0-0.2,0.1-0.2l0.6-1
			c0.1-0.1,0.2-0.2,0.2-0.2c0.1,0,0.2,0,0.3,0.1c0.5,0.3,1.1,0.5,1.7,0.7c0.6,0.2,1.3,0.3,1.9,0.3c0.7,0,1.4-0.1,2-0.4
			c0.7-0.6,0.9-1.6,0.4-2.4c-0.2-0.3-0.5-0.5-0.8-0.6c-0.5-0.3-1-0.5-1.6-0.7l-0.4-0.2c-0.7-0.3-1.4-0.6-2.1-1
			c-0.5-0.3-1-0.7-1.4-1.2c-0.4-0.5-0.6-1.2-0.5-1.9c0-1.1,0.5-2.1,1.4-2.8c1.1-0.7,2.3-1,3.6-1c0.8,0,1.6,0.1,2.3,0.3
			c0.6,0.2,1.2,0.4,1.7,0.8c0.2,0.1,0.2,0.2,0.2,0.3c0,0.1,0,0.2-0.1,0.2l-0.6,1c-0.1,0.1-0.1,0.2-0.2,0.2c-0.1,0-0.2-0.1-0.3-0.1
			c-0.9-0.6-2-0.8-3.1-0.8c-0.7,0-1.3,0.1-1.9,0.5c-0.7,0.6-0.8,1.6-0.4,2.4c0.2,0.3,0.5,0.5,0.8,0.6c0.3,0.2,0.9,0.4,1.7,0.7
			l0.5,0.2c0.8,0.3,1.5,0.7,2.2,1.1c0.5,0.3,0.9,0.7,1.2,1.2c0.3,0.6,0.5,1.2,0.4,1.8c0,1-0.4,2-1.3,2.7c-1.1,0.7-2.3,1.1-3.6,1
			C66.9,335.4,66,335.3,65.1,335.1z"/>
		<path class="st2" d="M74.8,335c-0.1-0.1-0.2-0.3-0.2-0.5v-12c0-0.2,0-0.4,0.2-0.5c0.2-0.1,0.4-0.2,0.6-0.2h1
			c0.3-0.1,0.7,0.1,0.7,0.5c0,0.1,0,0.2,0,0.2v11.9c0,0.2,0,0.4-0.1,0.6c-0.2,0.1-0.4,0.2-0.6,0.2h-1C75.2,335.2,75,335.1,74.8,335z
			"/>
		<path class="st2" d="M79.2,335c-0.1,0-0.1-0.1-0.1-0.2c0-0.1,0-0.2,0.1-0.3l4.7-6.3l-4.5-6c-0.1-0.1-0.1-0.2-0.1-0.3
			c0-0.1,0-0.1,0.1-0.2c0.1,0,0.2-0.1,0.2-0.1h1.8c0.1,0,0.2,0,0.3,0c0.1,0,0.1,0.1,0.2,0.2l3.3,4.4l3.3-4.4
			c0.1-0.1,0.1-0.1,0.2-0.2c0.1,0,0.2-0.1,0.3,0H91c0.1,0,0.2,0,0.2,0.1c0.1,0,0.1,0.1,0.1,0.2c0,0.1,0,0.2-0.1,0.3l-4.5,6l4.7,6.3
			c0.1,0.1,0.1,0.2,0.1,0.3c0,0.1,0,0.1-0.1,0.2c-0.1,0.1-0.1,0.1-0.2,0.1h-1.8c-0.1,0-0.2,0-0.3,0c-0.1,0-0.2-0.1-0.2-0.2l-3.6-4.8
			l-3.6,4.8c0,0.1-0.1,0.1-0.2,0.2c-0.1,0-0.2,0-0.3,0h-1.9C79.3,335.1,79.2,335.1,79.2,335z"/>
		<path class="st2" d="M102.5,333.6c-2.3-3-2.3-7.3,0-10.3c2.9-2.5,7.1-2.5,10,0c2.3,3,2.3,7.3,0,10.3
			C109.6,336.1,105.4,336.1,102.5,333.6z M110.6,332.3c1.4-2.3,1.4-5.3,0-7.6c-1.7-1.7-4.5-1.7-6.3,0c-1.5,2.3-1.5,5.3,0,7.6
			C106,334,108.8,334,110.6,332.3C110.6,332.3,110.6,332.3,110.6,332.3z"/>
		<path class="st2" d="M116.3,335c-0.1-0.1-0.2-0.3-0.2-0.5v-12c0-0.2,0-0.4,0.2-0.5c0.2-0.1,0.4-0.2,0.6-0.2h8.2
			c0.3-0.1,0.6,0.1,0.7,0.4c0,0.1,0,0.2,0,0.3v0.6c0,0.2,0,0.4-0.2,0.5c-0.1,0.1-0.3,0.2-0.5,0.2h-6.4v3.8h4.6c0.2,0,0.4,0,0.6,0.2
			c0.1,0.1,0.2,0.3,0.2,0.5v0.5c0.1,0.3-0.1,0.6-0.5,0.7c-0.1,0-0.2,0-0.2,0h-4.6v5c0,0.2,0,0.4-0.2,0.5c-0.2,0.1-0.4,0.2-0.6,0.2
			h-1C116.7,335.2,116.4,335.1,116.3,335z"/>
		<path class="st2" d="M136.3,333.6c-2.8-2.6-3-7-0.4-9.9c1.4-1.5,3.4-2.4,5.5-2.2c0.8,0,1.7,0.1,2.5,0.3c0.7,0.1,1.3,0.4,1.9,0.8
			c0.1,0.1,0.2,0.1,0.2,0.3c0,0.1,0,0.2-0.1,0.3l-0.6,0.9c-0.1,0.1-0.1,0.2-0.2,0.2c-0.1,0-0.2,0-0.3-0.1c-1-0.5-2.1-0.8-3.2-0.7
			c-1.3-0.1-2.5,0.4-3.5,1.3c-0.9,1.1-1.4,2.4-1.3,3.8c-0.1,1.4,0.4,2.8,1.3,3.9c0.9,0.9,2.2,1.3,3.5,1.3c1.2,0.1,2.3-0.2,3.4-0.8
			c0.1,0,0.2-0.1,0.3-0.1c0.1,0,0.1,0.1,0.2,0.2l0.6,1c0,0.1,0.1,0.1,0.1,0.2c0,0.1-0.1,0.2-0.2,0.3c-1.4,0.8-3,1.2-4.6,1.1
			C139.6,335.5,137.7,334.9,136.3,333.6z"/>
		<path class="st2" d="M150.9,334.8c-0.9-0.4-1.6-1-2.1-1.7c-0.5-0.8-0.8-1.7-0.7-2.7v-7.9c0-0.2,0-0.4,0.2-0.5
			c0.2-0.1,0.4-0.2,0.6-0.2h1c0.3-0.1,0.7,0.1,0.7,0.5c0,0.1,0,0.2,0,0.2v8c-0.1,0.9,0.3,1.7,0.9,2.3c0.7,0.6,1.6,0.9,2.6,0.8
			c0.9,0.1,1.8-0.2,2.5-0.8c0.6-0.6,1-1.4,0.9-2.3v-8c-0.1-0.3,0.2-0.7,0.5-0.7c0.1,0,0.2,0,0.2,0h1c0.5,0,0.8,0.2,0.8,0.7v7.9
			c0,0.9-0.2,1.9-0.8,2.7c-0.5,0.8-1.3,1.4-2.1,1.7C155.1,335.6,152.9,335.6,150.9,334.8L150.9,334.8z"/>
		<path class="st2" d="M162.4,335c-0.1-0.1-0.2-0.3-0.2-0.5v-12c0-0.2,0-0.4,0.2-0.5c0.2-0.1,0.4-0.2,0.6-0.2h5
			c1.3-0.1,2.6,0.3,3.6,1.1c0.8,0.9,1.2,2.1,1.2,3.3c0.1,1.2-0.3,2.4-1.2,3.3c-1,0.8-2.3,1.2-3.6,1.1h-3.2v3.8c0,0.2,0,0.4-0.2,0.5
			c-0.2,0.1-0.4,0.2-0.6,0.2h-1C162.8,335.2,162.6,335.1,162.4,335z M167.9,328.8c0.7,0.1,1.3-0.2,1.8-0.6c0.8-1.1,0.8-2.6,0-3.8
			c-0.5-0.4-1.1-0.7-1.8-0.6h-3.1v5L167.9,328.8z"/>
		<g>
			<defs>
				<path id="SVGID_1_" d="M53,44h129c13.7,0,24.8,11.1,24.8,24.8v192.3c0,13.7-11.1,24.8-24.8,24.8H53c-13.7,0-24.8-11.1-24.8-24.8
					V68.8C28.2,55.1,39.3,44,53,44z"/>
			</defs>
			<clipPath id="SVGID_2_">
				<use xlink:href="#SVGID_1_"  style="overflow:visible;"/>
			</clipPath>
			<g class="st3">
				<rect x="17.7" y="12" class="st4" width="203.4" height="289.3"/>
				<polygon class="st5" points="87,185.5 113.8,171.1 153,194.3 76.7,194.3 				"/>
				<polygon class="st6" points="198.5,182.1 161.3,162.1 106.9,194.3 212.8,194.3 				"/>
				<path class="st7" d="M163.5,194.7h71.1c5.1,0,9.2-4.1,9.2-9.2l0,0c0-5.1-4.1-9.2-9.2-9.2h-71.1c-5.1,0-9.2,4.1-9.2,9.2l0,0
					C154.3,190.6,158.4,194.7,163.5,194.7z"/>
				<circle class="st7" cx="208.1" cy="171.9" r="22.8"/>
				<circle class="st7" cx="183" cy="178.5" r="16.3"/>
				<path class="st7" d="M155.7,108h28.6c2,0,3.7-1.7,3.7-3.7l0,0c0-2-1.7-3.7-3.7-3.7h-28.6c-2,0-3.7,1.7-3.7,3.7l0,0
					C152,106.3,153.6,108,155.7,108z"/>
				
					<ellipse transform="matrix(0.7071 -0.7071 0.7071 0.7071 -19.0001 151.7099)" class="st7" cx="173.6" cy="98.8" rx="9.2" ry="9.2"/>
				<path class="st7" d="M157,101.4c0,3.6,2.9,6.5,6.5,6.5c3.6,0,6.5-2.9,6.5-6.5c0-3.6-2.9-6.5-6.5-6.5l0,0
					C159.9,94.9,157,97.8,157,101.4z"/>
				<path class="st7" d="M109.3,88.2H80.7c-2,0-3.7-1.7-3.7-3.7l0,0c0-2,1.7-3.7,3.7-3.7h28.6c2,0,3.7,1.7,3.7,3.7l0,0
					C113,86.5,111.3,88.2,109.3,88.2C109.3,88.2,109.3,88.2,109.3,88.2z"/>
				<circle class="st7" cx="91.3" cy="79" r="9.2"/>
				<path class="st7" d="M108,81.6c0,3.6-2.9,6.5-6.5,6.5s-6.5-2.9-6.5-6.5c0-3.6,2.9-6.5,6.5-6.5C105.1,75.1,108,78,108,81.6
					C108,81.6,108,81.6,108,81.6z"/>
				<path class="st7" d="M120.7,130.6h-15.4c-1.1,0-2-0.9-2-2l0,0c0-1.1,0.9-2,2-2h15.4c1.1,0,2,0.9,2,2l0,0
					C122.7,129.8,121.8,130.6,120.7,130.6z"/>
				<path class="st7" d="M116,125.7c0,2.8-2.2,5-5,5s-5-2.2-5-5c0-2.8,2.2-5,5-5S116,122.9,116,125.7L116,125.7z"/>
				<path class="st7" d="M120,127.1c0,2-1.6,3.5-3.5,3.5s-3.5-1.6-3.5-3.5s1.6-3.5,3.5-3.5c0,0,0,0,0,0
					C118.4,123.6,120,125.2,120,127.1z"/>
				<rect x="12.6" y="193" class="st8" width="218.1" height="108.3"/>
				<path class="st9" d="M180.8,233.2h-30.6c-1.1,0-1.9-0.9-1.9-1.9l0,0c0-1.1,0.9-2,1.9-2h30.6c1.1,0,2,0.9,1.9,2l0,0
					C182.7,232.3,181.9,233.2,180.8,233.2z"/>
				<path class="st9" d="M200,220.6h-30.5c-1.1,0-2-0.9-2-2l0,0c0-1.1,0.9-2,2-1.9H200c1.1,0,2,0.9,2,1.9l0,0
					C202,219.7,201.1,220.6,200,220.6z"/>
				<path class="st9" d="M155.6,219.7H125c-1.1,0-2-0.9-2-2l0,0c0-1.1,0.9-2,2-1.9h30.6c1.1,0,1.9,0.9,1.9,1.9l0,0
					C157.5,218.8,156.7,219.6,155.6,219.7z"/>
				<path class="st9" d="M137.5,203.5h58.6c1.1,0,1.9,0.9,1.9,1.9v0.6c0,1.1-0.9,1.9-1.9,1.9h-58.6c-1.1,0-1.9-0.9-1.9-1.9v-0.6
					C135.5,204.3,136.4,203.5,137.5,203.5z"/>
				<path class="st9" d="M123.1,208.6H92.6c-1.1,0-2-0.9-2-2l0,0c0-1.1,0.9-2,2-2h30.6c1.1,0,2,0.9,2,2l0,0
					C125.1,207.7,124.2,208.6,123.1,208.6z"/>
				<rect x="32.3" y="12" class="st10" width="174.1" height="289.3"/>
				<polygon class="st11" points="28.3,280.1 28.3,161.9 53.2,173.5 77.4,182.3 106.6,210.2 146.2,223.8 179.3,253.5 206.4,275.2 
					196.4,286.6 28.1,286.6 				"/>
				<path class="st12" d="M83.7,140.6l-0.1,8.6c0,4.1,3,7.6,7,8.3v6.2l-3.5,2.4c0,0,0.9,0.7,4.9,0.7l0,0c4,0,4.9-0.7,4.9-0.7
					l-3.5-2.4v-6.3c4-0.7,6.9-4.1,6.9-8.2v-8.6L83.7,140.6z"/>
				<ellipse class="st13" cx="91.9" cy="140.7" rx="8.3" ry="1.3"/>
				<path class="st14" d="M82.2,281.6H66.4c-1.4,0-2.5-1.1-2.5-2.5l0,0c0-1.4,1.1-2.5,2.5-2.5h15.8c1.4,0,2.5,1.1,2.5,2.5l0,0
					C84.7,280.5,83.6,281.6,82.2,281.6z"/>
				<path class="st14" d="M124.3,269h-15.8c-1.4,0-2.5-1.1-2.5-2.5l0,0c0-1.4,1.1-2.5,2.5-2.5h15.8c1.4,0,2.5,1.1,2.5,2.5l0,0
					C126.8,267.9,125.7,269,124.3,269z"/>
				<path class="st14" d="M147.3,270.4h15.8c1.4,0,2.5,1.1,2.5,2.5l0,0c0,1.4-1.1,2.5-2.5,2.5h-15.8c-1.4,0-2.5-1.1-2.5-2.5l0,0
					C144.8,271.5,145.9,270.4,147.3,270.4z"/>
				<path class="st14" d="M149,237.6h-15.8c-1.4,0-2.5-1.1-2.5-2.5l0,0c0-1.4,1.1-2.5,2.5-2.5H149c1.4,0,2.5,1.1,2.5,2.5l0,0
					C151.5,236.5,150.4,237.6,149,237.6z"/>
				<path class="st15" d="M91.3,173.8c-10.3,0-18.7-3.5-25.1-10.3c-13.8-14.9-12.1-40.5-12-41.6c0.4-3.5,3.5-6,6.9-5.6
					c3.3,0.3,5.8,3.2,5.7,6.6l0,0c0,0.2-1.4,21.3,8.7,32.1c3.9,4.2,9.1,6.3,15.8,6.3c3.5,0,6.3,2.8,6.3,6.3S94.8,173.8,91.3,173.8
					C91.3,173.8,91.3,173.8,91.3,173.8z"/>
				<path class="st16" d="M65.1,152l-25.7-5.7c-4.7-1-7.6-5.6-6.6-10.3l10.4-47.2c1-4.7,5.6-7.6,10.3-6.6l25.7,5.7
					c4.7,1,7.6,5.6,6.6,10.3l-10.4,47.2C74.4,150,69.8,153,65.1,152z"/>
				<path class="st12" d="M77.4,107.7c-0.4,2,0.8,4,2.8,4.4c2,0.4,4-0.8,4.4-2.8c0.4-2-0.8-4-2.8-4.4c0,0,0,0,0,0
					C79.8,104.4,77.9,105.6,77.4,107.7C77.4,107.6,77.4,107.6,77.4,107.7z"/>
				<path class="st13" d="M78.7,107.9c-0.3,1.3,0.5,2.6,1.8,2.9c1.3,0.3,2.6-0.5,2.9-1.8c0.3-1.3-0.5-2.6-1.8-2.9
					C80.3,105.8,79,106.6,78.7,107.9C78.7,107.9,78.7,107.9,78.7,107.9z"/>
				<path class="st12" d="M59.9,129.9L59.9,129.9c1.9,0.4,3.7-0.7,4.1-2.5c0,0,0,0,0,0l1.3-6c0.4-1.8-0.7-3.6-2.5-4c0,0,0,0,0,0
					h-0.1c-1.8-0.4-3.6,0.7-4,2.5c0,0,0,0.1,0,0.1l-1.3,6C57.1,127.8,58.2,129.5,59.9,129.9z"/>
				<path class="st13" d="M61.8,121.6l0.3,0.1c8.9,1.9,17.7-3.7,19.7-12.6l1.6-7.1c1.9-8.9-3.7-17.7-12.5-19.7l-0.3-0.1
					c-8.9-1.9-17.7,3.7-19.7,12.5l-1.6,7.1C47.3,110.8,52.9,119.6,61.8,121.6z"/>
				<path class="st12" d="M62,120.7l0.3,0.1c8.9,1.9,17.7-3.7,19.7-12.5l1.6-7.1c1.9-8.9-3.7-17.7-12.6-19.7l-0.3-0.1
					C61.8,79.4,53,85,51,93.8l-1.6,7.2C47.5,109.9,53.1,118.7,62,120.7z"/>
				<path class="st16" d="M49.2,90.6l32.4,7.2c5.4,1.2,10.7-2.2,11.9-7.6V90c1.2-5.4-2.2-10.7-7.5-11.9l-32.4-7.2
					c-5.4-1.2-10.7,2.2-11.9,7.6v0.2C40.5,84.1,43.8,89.4,49.2,90.6z"/>
				<path class="st17" d="M61.2,105.3l0.9-3.8c0.3-1.1,1.4-1.9,2.5-1.6l0,0c1.1,0.3,1.9,1.4,1.6,2.5l-0.9,3.8
					c-0.3,1.1-1.4,1.9-2.5,1.6l0,0C61.6,107.6,60.9,106.4,61.2,105.3z"/>
				<path class="st17" d="M74.5,110.4L74.5,110.4c-1.1-0.3-1.9-1.4-1.6-2.5l0,0l0.9-3.8c0.3-1.1,1.4-1.9,2.5-1.6l0,0l0,0
					c1.1,0.3,1.9,1.4,1.6,2.5l0,0l-0.9,3.9C76.7,109.9,75.6,110.7,74.5,110.4L74.5,110.4z"/>
				<path class="st13" d="M69.2,108.5l1.2,0.3c0.2-0.7-0.3-1.4-1-1.5c-0.7-0.2-1.4,0.3-1.5,1l0,0L69.2,108.5z"/>
				<path class="st16" d="M67.8,99.5l-6.1-1.4c-0.6-0.1-1-0.7-0.9-1.3l0,0c0.1-0.6,0.7-1,1.3-0.9l6.1,1.4c0.6,0.1,1,0.7,0.9,1.3l0,0
					C69,99.3,68.4,99.7,67.8,99.5z"/>
				<path class="st16" d="M80.2,102.3l-6.1-1.4c-0.6-0.1-1-0.7-0.9-1.3l0,0c0.1-0.6,0.7-1,1.3-0.9l6.1,1.4c0.6,0.1,1,0.7,0.9,1.3
					l0,0C81.4,102,80.8,102.4,80.2,102.3z"/>
				<path class="st18" d="M67.5,113.3c0-0.3,0.3-0.4,0.6-0.4c0,0,0,0,0,0c0.3,0.1,0.4,0.3,0.4,0.6c0,0,0,0,0,0L67.5,113.3z"/>
				<circle class="st12" cx="50" cy="101.6" r="3.7"/>
				<path class="st13" d="M47.1,101c-0.3,1.3,0.5,2.6,1.8,2.9s2.6-0.5,2.9-1.8c0.3-1.3-0.5-2.6-1.8-2.9
					C48.6,98.9,47.4,99.7,47.1,101C47.1,101,47.1,101,47.1,101z"/>
				<path class="st19" d="M104.5,172.3c-3-4.1-7.7-6.5-12.8-6.5H75.3v-27.2c0-5.6-3.6-10.5-8.8-13c-2.5-1.2-5.3-1.8-8.1-1.8
					c-3.3,0-6.5,0.8-9.3,2.4c-4.6,2.4-7.5,7.2-7.6,12.3v45.2c0.1,7.6,6.3,13.8,13.9,13.7c0,0,0,0,0,0h22v27.2h30.1v-43.3
					C107.5,178.1,106.5,174.9,104.5,172.3z"/>
				<path class="st16" d="M53.9,88.3L53.9,88.3c1.3,0.4,2,1.6,1.6,2.8L54,96.7c-0.3,1.2-1.6,1.9-2.8,1.6l0,0
					c-1.2-0.3-1.9-1.6-1.6-2.8l1.5-5.6C51.4,88.6,52.7,87.9,53.9,88.3z"/>
				<path class="st20" d="M74.6,171.8L74.6,171.8c-0.2-0.3-0.2-0.8,0.2-1.1c0,0,0,0,0,0l12.3-8.4c0.3-0.2,0.8-0.2,1.1,0.2
					c0,0,0,0,0,0l0,0c0.2,0.3,0.1,0.8-0.2,1.1L75.7,172C75.3,172.2,74.8,172.1,74.6,171.8z"/>
				<path class="st20" d="M84.2,164.9L84.2,164.9c-0.2,0-0.4-0.2-0.4-0.5l0.2-2.6c0-0.2,0.2-0.4,0.5-0.4l0,0c0.2,0,0.4,0.2,0.4,0.5
					l-0.2,2.6C84.7,164.8,84.5,165,84.2,164.9C84.2,164.9,84.2,164.9,84.2,164.9z"/>
				<path class="st20" d="M87.7,162.6L87.7,162.6c-0.2,0-0.4-0.2-0.4-0.5c0,0,0,0,0,0l0.2-2.6c0-0.2,0.2-0.4,0.5-0.4l0,0
					c0.2,0,0.4,0.2,0.4,0.5l-0.2,2.6C88.1,162.4,87.9,162.6,87.7,162.6z"/>
				<path class="st21" d="M88.9,154.8c-1.4,0.2-2.4,1.5-2.3,2.9c0.1,0.8,0.6,1.6,1.4,2c1.4-0.2,2.4-1.5,2.3-2.9
					C90.1,156,89.6,155.2,88.9,154.8z"/>
				<path class="st21" d="M84.3,156.9c-1.4,0.4-2.2,1.8-1.8,3.2c0.2,0.9,0.9,1.5,1.8,1.8c1.4-0.4,2.2-1.8,1.8-3.2
					C85.9,157.8,85.2,157.1,84.3,156.9z"/>
				<path class="st20" d="M80.4,167.6L80.4,167.6c-0.2,0-0.4-0.2-0.4-0.5l0.2-2.6c0-0.2,0.2-0.4,0.5-0.4l0,0c0.2,0,0.4,0.2,0.4,0.5
					l-0.2,2.6C80.9,167.4,80.7,167.6,80.4,167.6C80.4,167.6,80.4,167.6,80.4,167.6z"/>
				<path class="st21" d="M80.5,159.5c-1.4,0.4-2.2,1.8-1.8,3.2c0.2,0.9,0.9,1.5,1.8,1.8c1.4-0.4,2.2-1.8,1.8-3.2
					C82.1,160.4,81.4,159.7,80.5,159.5z"/>
				<path class="st20" d="M84.4,165.2L84.4,165.2c0.1-0.2,0.3-0.4,0.6-0.3l2.5,0.8c0.2,0.1,0.4,0.3,0.3,0.6h0
					c-0.1,0.2-0.3,0.4-0.6,0.3l-2.5-0.8C84.4,165.7,84.3,165.4,84.4,165.2z"/>
				<path class="st20" d="M87.9,162.8L87.9,162.8c0.1-0.2,0.3-0.4,0.6-0.3l2.5,0.8c0.2,0.1,0.4,0.3,0.3,0.6h0
					c-0.1,0.2-0.3,0.4-0.6,0.3l-2.5-0.8C87.9,163.3,87.8,163,87.9,162.8z"/>
				<path class="st21" d="M95.5,164.5c0.2,1.4-0.8,2.7-2.3,2.9c-1.4,0.2-2.7-0.8-2.9-2.3c-0.2-1.4,0.8-2.7,2.3-2.9
					c0.3,0,0.5,0,0.8,0C94.5,162.4,95.4,163.4,95.5,164.5z"/>
				<path class="st21" d="M92,168c-0.1,1.4-1.3,2.5-2.8,2.5c-1.4-0.1-2.5-1.3-2.5-2.8s1.3-2.5,2.8-2.5c0.3,0,0.5,0.1,0.8,0.2
					C91.4,165.8,92.1,166.9,92,168z"/>
				<path class="st20" d="M80.6,167.8L80.6,167.8c0.1-0.2,0.3-0.4,0.6-0.3l2.5,0.8c0.2,0.1,0.4,0.3,0.3,0.6v0
					c-0.1,0.2-0.3,0.4-0.6,0.3l-2.5-0.8C80.6,168.3,80.5,168,80.6,167.8z"/>
				<path class="st21" d="M88.2,170.6c-0.1,1.4-1.3,2.5-2.8,2.4s-2.5-1.3-2.4-2.8s1.3-2.5,2.8-2.4c0.3,0,0.5,0.1,0.8,0.2
					C87.5,168.4,88.2,169.5,88.2,170.6z"/>
				<path class="st20" d="M89,171.9L89,171.9c0-0.2,0.1-0.4,0.4-0.4l7.9-0.8c0.2,0,0.4,0.1,0.4,0.4l0,0c0,0.2-0.1,0.4-0.3,0.4
					c0,0,0,0,0,0l-7.9,0.8C89.2,172.2,89,172.1,89,171.9C89,171.9,89,171.9,89,171.9z"/>
				<path class="st20" d="M95.3,171.1L95.3,171.1c-0.1-0.1-0.1-0.2-0.1-0.3l0.8-1.2c0.1-0.1,0.2-0.1,0.3-0.1c0,0,0,0,0,0l0,0
					c0.1,0.1,0.1,0.2,0.1,0.3l-0.8,1.2C95.6,171.1,95.4,171.2,95.3,171.1C95.3,171.1,95.3,171.1,95.3,171.1z"/>
				<path class="st20" d="M97.6,170.9L97.6,170.9c-0.1-0.1-0.1-0.2-0.1-0.3l0.8-1.2c0.1-0.1,0.2-0.1,0.3-0.1c0,0,0,0,0,0l0,0
					c0.1,0.1,0.1,0.2,0.1,0.3l-0.8,1.2C97.8,170.9,97.7,170.9,97.6,170.9C97.6,170.9,97.6,170.9,97.6,170.9z"/>
				<path class="st21" d="M100.1,167.5c-0.4-0.6-1.3-0.8-1.9-0.4c-0.6,0.4-0.8,1.3-0.4,1.9c0.4,0.6,1.3,0.8,1.9,0.4
					c0.1-0.1,0.2-0.2,0.3-0.3C100.4,168.7,100.4,168,100.1,167.5z"/>
				<path class="st21" d="M97.4,167.3c-0.8-0.2-1.5,0.3-1.7,1.1c-0.1,0.4,0,0.9,0.4,1.2c0.8,0.2,1.5-0.3,1.7-1.1
					C97.9,168.1,97.7,167.6,97.4,167.3z"/>
				<path class="st20" d="M92.8,171.3L92.8,171.3c-0.1-0.1-0.1-0.2-0.1-0.3l0.8-1.2c0.1-0.1,0.2-0.1,0.3-0.1l0,0
					c0.1,0.1,0.1,0.2,0.1,0.3l-0.8,1.2C93.1,171.4,93,171.4,92.8,171.3z"/>
				
					<ellipse transform="matrix(0.4857 -0.8741 0.8741 0.4857 -98.9814 169.222)" class="st21" cx="94.3" cy="168.7" rx="1.3" ry="1"/>
				<path class="st20" d="M95.3,171.2L95.3,171.2c-0.1,0.1-0.1,0.2,0,0.3c0,0,0,0,0,0l1,1c0.1,0.1,0.2,0.1,0.3,0c0,0,0,0,0,0l0,0
					c0.1-0.1,0.1-0.2,0-0.3l-1-1C95.6,171.1,95.4,171.1,95.3,171.2C95.3,171.2,95.3,171.2,95.3,171.2z"/>
				<path class="st20" d="M97.6,171L97.6,171c-0.1,0.1-0.1,0.2,0,0.3c0,0,0,0,0,0l1,1c0.1,0.1,0.2,0.1,0.3,0l0,0
					c0.1-0.1,0.1-0.2,0-0.3l-1-1C97.8,170.9,97.7,170.9,97.6,171z"/>
				<path class="st21" d="M100.7,173.8c-0.3,0.7-1.1,1.1-1.8,0.8c-0.7-0.3-1.1-1.1-0.8-1.8s1.1-1.1,1.8-0.8c0.1,0.1,0.3,0.1,0.4,0.2
					C100.8,172.5,101,173.2,100.7,173.8z"/>
				<path class="st21" d="M98.2,174.5c-0.4,0.7-1.3,0.9-1.9,0.5s-0.9-1.3-0.5-1.9c0.4-0.7,1.3-0.9,1.9-0.5c0.1,0.1,0.2,0.2,0.3,0.3
					C98.4,173.3,98.5,174,98.2,174.5z"/>
				<path class="st20" d="M92.9,171.5L92.9,171.5c-0.1,0.1-0.1,0.2,0,0.3c0,0,0,0,0,0l1,1c0.1,0.1,0.2,0.1,0.3,0c0,0,0,0,0,0l0,0
					c0.1-0.1,0.1-0.2,0-0.3l-1-1C93.1,171.4,93,171.4,92.9,171.5z"/>
				<path class="st21" d="M95.7,174.8c-0.4,0.7-1.3,0.8-1.9,0.4c-0.7-0.4-0.8-1.3-0.4-1.9c0.4-0.7,1.3-0.8,1.9-0.4
					c0.1,0.1,0.2,0.2,0.3,0.3C96,173.6,96,174.2,95.7,174.8z"/>
				<path class="st12" d="M85.6,179.4c-10.3,0-18.7-3.5-25.1-10.3c-13.8-14.9-12.1-40.5-12-41.6c0.1-3.5,3.1-6.2,6.6-6
					c3.5,0.1,6.2,3.1,6,6.6c0,0.1,0,0.3,0,0.4l0,0c0,0.2-1.4,21.3,8.7,32.1c3.9,4.2,9.1,6.3,15.8,6.3c3.5,0,6.3,2.8,6.3,6.3
					S89.1,179.4,85.6,179.4C85.6,179.4,85.6,179.4,85.6,179.4L85.6,179.4z"/>
				<path class="st12" d="M65.4,248.2l-0.1,10.3c0,4.9,3.5,9.1,8.3,9.9v7.5l-4.2,2.9c0,0,1.1,0.9,5.8,0.9l0,0c4.7,0,5.9-0.9,5.9-0.9
					L77,276v-7.5c4.7-0.8,8.2-4.9,8.3-9.8l0.1-10.3L65.4,248.2z"/>
				<path class="st13" d="M85.3,248.3c0,0.9-4.5,1.6-10,1.6s-10-0.7-10-1.6s4.5-1.6,10-1.6S85.3,247.4,85.3,248.3z"/>
				<path class="st12" d="M106.5,236.6l-0.1,10.3c0,4.9,3.5,9.1,8.3,9.9v7.5l-4.2,2.9c0,0,1.1,0.9,5.8,0.9l0,0
					c4.7,0,5.9-0.9,5.9-0.9l-4.2-2.9v-7.5c4.7-0.8,8.2-4.9,8.3-9.8l0.1-10.3L106.5,236.6z"/>
				<ellipse class="st13" cx="116.4" cy="236.6" rx="10" ry="1.6"/>
				<path class="st12" d="M131.2,204.4l-0.1,10.3c0,4.9,3.5,9.1,8.3,9.9v7.5l-4.2,2.9c0,0,1.1,0.9,5.8,0.9l0,0
					c4.7,0,5.9-0.9,5.9-0.9l-4.2-2.9v-7.5c4.7-0.8,8.2-4.9,8.3-9.8l0.1-10.3L131.2,204.4z"/>
				<path class="st13" d="M151.1,204.4c0,0.9-4.5,1.6-10,1.6s-10-0.7-10-1.6s4.5-1.6,10-1.6S151.1,203.6,151.1,204.4z"/>
				<path class="st12" d="M145.3,242.3l-0.1,10.3c0,4.9,3.5,9.1,8.3,9.9v7.4l-4.2,2.9c0,0,1.1,0.9,5.8,0.9l0,0
					c4.7,0,5.9-0.9,5.9-0.9l-4.2-2.9v-7.5c4.7-0.8,8.2-4.9,8.3-9.8l0.1-10.3L145.3,242.3z"/>
				<ellipse class="st13" cx="155.2" cy="242.4" rx="10" ry="1.6"/>
				<path class="st13" d="M71.5,113.7c-0.1,0-0.3-0.1-0.3-0.2c-2.2-2.2-6.5-1.6-6.5-1.6c-0.3,0-0.5-0.1-0.6-0.4s0.1-0.5,0.4-0.6l0,0
					c0.2,0,4.7-0.8,7.3,1.8c0.2,0.2,0.2,0.5,0,0.7c0,0,0,0,0,0C71.8,113.6,71.6,113.7,71.5,113.7z"/>
				<path class="st22" d="M91.5,159.8L91.5,159.8c-0.7-0.7-0.7-1.9,0-2.6l0.9-0.9c0.7-0.7,1.9-0.7,2.7,0l0,0c0.7,0.7,0.7,1.9,0,2.6
					l-0.9,0.9C93.4,160.6,92.2,160.6,91.5,159.8z"/>
				<path class="st22" d="M88.6,162.7L88.6,162.7c-0.7-0.7-0.7-1.9,0-2.6l0.9-0.9c0.7-0.7,1.9-0.7,2.6,0l0,0c0.7,0.7,0.7,1.9,0,2.6
					l-0.9,0.9C90.5,163.5,89.3,163.5,88.6,162.7z"/>
				<path class="st22" d="M91.5,159.2L91.5,159.2c0.7-0.7,1.9-0.7,2.7,0l0.9,0.9c0.7,0.7,0.7,1.9,0,2.6l0,0c-0.7,0.7-1.9,0.7-2.7,0
					l-0.9-0.9C90.7,161.1,90.7,159.9,91.5,159.2z"/>
				<path class="st22" d="M88.6,156.3L88.6,156.3c0.7-0.7,1.9-0.7,2.7,0l0.9,0.9c0.7,0.7,0.7,1.9,0,2.6l0,0c-0.7,0.7-1.9,0.7-2.6,0
					l-0.9-0.9C87.8,158.2,87.8,157,88.6,156.3z"/>
				<path class="st19" d="M91.7,154.6h0.1c1.1,0,1.9,0.9,1.9,1.9v1.5c0,1.1-0.9,1.9-1.9,1.9h-0.1c-1.1,0-1.9-0.9-1.9-1.9v-1.5
					C89.8,155.5,90.7,154.6,91.7,154.6z"/>
				<path class="st19" d="M91.7,159h0.1c1.1,0,1.9,0.9,1.9,1.9v1.5c0,1.1-0.9,1.9-1.9,1.9h-0.1c-1.1,0-1.9-0.9-1.9-1.9V161
					C89.8,159.9,90.7,159,91.7,159z"/>
				<path class="st19" d="M96.7,159.5v0.1c0,1.1-0.9,1.9-1.9,1.9h-1.5c-1.1,0-1.9-0.9-1.9-1.9v-0.1c0-1.1,0.9-1.9,1.9-1.9h1.5
					C95.8,157.5,96.7,158.4,96.7,159.5z"/>
				<path class="st19" d="M92.3,159.5v0.1c0,1.1-0.9,1.9-1.9,1.9h-1.5c-1.1,0-1.9-0.9-1.9-1.9v-0.1c0-1.1,0.9-1.9,1.9-1.9h1.5
					C91.4,157.5,92.3,158.4,92.3,159.5z"/>
				<circle class="st12" cx="91.9" cy="159.4" r="2.1"/>
				<path class="st11" d="M36.5,173.6c0,0,17.5,15,20.4,15s32.3,13.6,32.3,13.6l23.8,23.5l-40.4-1L47.1,205l-13.1-8.8L36.5,173.6z"
					/>
				<polygon class="st14" points="35.2,185.5 42.6,195.6 74.6,215.2 95.3,225.1 77.5,224.8 33.9,196.3 				"/>
				<path class="st9" d="M212.1,245.5h-30.6c-1.1,0-1.9-0.9-1.9-1.9l0,0c0-1.1,0.9-1.9,1.9-1.9h30.6c1.1,0,1.9,0.9,1.9,1.9l0,0
					C214,244.6,213.1,245.5,212.1,245.5z"/>
				<path class="st22" d="M102.5,168.8L102.5,168.8c0.5,0.5,0.5,1.1,0.1,1.5l-0.6,0.6c-0.4,0.4-1,0.4-1.4,0l-0.1-0.1
					c-0.4-0.4-0.4-1,0-1.4l0.6-0.6C101.4,168.4,102.1,168.4,102.5,168.8z"/>
				<path class="st22" d="M100.8,170.4L100.8,170.4c0.5,0.5,0.5,1.1,0.1,1.5l-0.6,0.6c-0.4,0.4-1,0.4-1.4,0l-0.1-0.1
					c-0.4-0.4-0.4-1,0-1.4l0.6-0.6C99.8,170,100.4,170,100.8,170.4z"/>
				<path class="st22" d="M102.6,172.5L102.6,172.5c-0.5,0.5-1.1,0.5-1.5,0.1l-0.6-0.6c-0.4-0.4-0.4-1,0-1.4l0.1-0.1
					c0.4-0.4,1-0.4,1.4,0l0.6,0.6C103,171.4,103,172.1,102.6,172.5z"/>
				<path class="st22" d="M100.9,170.8L100.9,170.8c-0.5,0.5-1.1,0.5-1.5,0.1l-0.6-0.6c-0.4-0.4-0.4-1,0-1.4l0.1-0.1
					c0.4-0.4,1-0.4,1.4,0l0.6,0.6C101.3,169.8,101.3,170.4,100.9,170.8z"/>
				<path class="st19" d="M100.6,167.9h0.1c0.6,0,1.1,0.5,1.1,1.1v0.9c0,0.6-0.5,1.1-1.1,1.1h-0.1c-0.6,0-1.1-0.5-1.1-1.1v-0.9
					C99.5,168.3,100,167.9,100.6,167.9z"/>
				<path class="st19" d="M100.6,170.4h0.1c0.6,0,1.1,0.5,1.1,1.1v0.9c0,0.6-0.5,1.1-1.1,1.1h-0.1c-0.6,0-1.1-0.5-1.1-1.1v-0.9
					C99.5,170.9,100,170.4,100.6,170.4z"/>
				<path class="st19" d="M103.5,170.6v0.1c0,0.6-0.5,1.1-1.1,1.1h-0.9c-0.6,0-1.1-0.5-1.1-1.1v-0.1c0-0.6,0.5-1.1,1.1-1.1h0.9
					C103,169.5,103.5,170,103.5,170.6z"/>
				<path class="st19" d="M101,170.6v0.1c0,0.6-0.5,1.1-1.1,1.1H99c-0.6,0-1.1-0.5-1.1-1.1v-0.1c0-0.6,0.5-1.1,1.1-1.1h0.9
					C100.5,169.5,101,170,101,170.6z"/>
				<circle class="st12" cx="100.7" cy="170.6" r="1.2"/>
				<path class="st14" d="M55.2,240.8H39.4c-1.4,0-2.5-1.1-2.5-2.5l0,0c0-1.4,1.1-2.5,2.5-2.5h15.8c1.4,0,2.5,1.1,2.5,2.5l0,0
					C57.7,239.7,56.6,240.8,55.2,240.8z"/>
				<path class="st12" d="M37.3,208.1l-0.1,10.3c0,4.9,3.5,9.1,8.3,9.9v7.5l-4.2,2.9c0,0,1.1,0.9,5.8,0.9l0,0c4.7,0,5.9-0.9,5.9-0.9
					l-4.1-2.9v-7.5c4.7-0.8,8.2-4.9,8.3-9.8l0.1-10.3L37.3,208.1z"/>
				<path class="st13" d="M57.3,208.2c0,0.9-4.5,1.6-10,1.6s-10-0.7-10-1.6s4.5-1.6,10-1.6S57.3,207.3,57.3,208.2z"/>
			</g>
		</g>
	</g>
</g>
</svg>
