<?xml version="1.0" encoding="utf-8"?>
<!-- Generator: Adobe Illustrator 25.2.3, SVG Export Plug-In . SVG Version: 6.00 Build 0)  -->
<svg version="1.1" id="Layer_1" xmlns="http://www.w3.org/2000/svg" xmlns:xlink="http://www.w3.org/1999/xlink" x="0px" y="0px"
	 viewBox="0 0 235 381.2" style="enable-background:new 0 0 235 381.2;" xml:space="preserve">
<style type="text/css">
	.st0{fill:#F4B155;}
	.st1{fill:#FFF0CC;}
	.st2{fill:#231F20;}
	.st3{clip-path:url(#SVGID_2_);}
	.st4{fill:#A7F1F9;}
	.st5{fill:#FFFFFF;}
	.st6{fill:#789B78;}
	.st7{fill:#79B27B;}
	.st8{fill:#67D8DB;}
	.st9{fill:none;}
	.st10{fill:#E6705F;}
	.st11{fill:#81EFEF;}
	.st12{fill:#CE6357;}
	.st13{fill:#B7376C;}
	.st14{fill:#A33A69;}
	.st15{fill:#D6306A;}
	.st16{fill:#FFEBBD;}
	.st17{fill:#F2DEB1;}
	.st18{fill:#F9E7BB;}
	.st19{fill:#3A335F;}
	.st20{fill:#DD4F65;}
	.st21{fill:#F5B155;}
	.st22{fill:#FFD150;}
	.st23{fill:#414042;}
	.st24{fill:#FFD351;}
	.st25{fill:#F9FAFB;}
	.st26{fill:#F4B055;}
	.st27{fill:#48C2CA;}
</style>
<g id="Layer_2_1_">
	<g id="Layer_1-2">
		<path class="st0" d="M235,14.4v352.3c0,8-6.7,14.5-15,14.5H15c-8.3,0-15-6.5-15-14.5V14.4C0,6.5,6.7,0,15,0h205
			C228.3,0,235,6.5,235,14.4z M222.4,358.3V22.8c0-6-4.8-10.8-10.8-10.8H23.4c-6,0-10.8,4.9-10.8,10.8v335.5c0,6,4.8,10.8,10.8,10.8
			h188.2C217.6,369.2,222.4,364.3,222.4,358.3L222.4,358.3z"/>
		<path class="st1" d="M23.4,12h188.2c6,0,10.8,4.8,10.8,10.8v335.5c0,6-4.8,10.8-10.8,10.8H23.4c-6,0-10.8-4.8-10.8-10.8V22.8
			C12.6,16.9,17.4,12,23.4,12z"/>
		<path class="st2" d="M56.3,335.1c-0.7-0.1-1.3-0.4-1.9-0.8c-0.2-0.1-0.2-0.2-0.2-0.3c0-0.1,0-0.2,0.1-0.2l0.6-0.9
			c0.1-0.1,0.1-0.2,0.2-0.2c0.1,0,0.2,0,0.2,0.1c0.5,0.3,1,0.5,1.5,0.6c0.6,0.2,1.2,0.2,1.7,0.2c0.6,0,1.2-0.1,1.8-0.4
			c0.6-0.5,0.8-1.4,0.4-2.1c-0.2-0.2-0.4-0.4-0.7-0.5c-0.3-0.1-0.8-0.4-1.4-0.6l-0.4-0.2c-0.6-0.2-1.3-0.5-1.9-0.9
			c-0.5-0.3-0.9-0.7-1.2-1.1c-0.3-0.5-0.5-1.1-0.5-1.7c0-1,0.4-1.9,1.2-2.5c1-0.6,2.1-0.9,3.2-0.8c0.7,0,1.4,0.1,2.1,0.2
			c0.5,0.1,1.1,0.4,1.5,0.7c0.1,0.1,0.2,0.2,0.2,0.3c0,0.1,0,0.1-0.1,0.2l-0.6,0.9c-0.1,0.1-0.1,0.2-0.2,0.2c-0.1,0-0.2,0-0.2-0.1
			c-0.8-0.5-1.8-0.8-2.8-0.7c-0.6,0-1.2,0.1-1.7,0.4c-0.4,0.3-0.6,0.8-0.6,1.3c0,0.3,0.1,0.6,0.2,0.9c0.2,0.2,0.4,0.4,0.7,0.5
			c0.3,0.1,0.8,0.4,1.5,0.6l0.4,0.2c0.7,0.3,1.4,0.6,2,0.9c0.5,0.3,0.8,0.6,1.1,1.1c0.3,0.5,0.4,1.1,0.4,1.6c0,0.9-0.4,1.8-1.1,2.3
			c-0.9,0.6-2.1,0.9-3.2,0.9C58,335.4,57.1,335.3,56.3,335.1z"/>
		<path class="st2" d="M65,335c-0.1-0.1-0.2-0.3-0.2-0.5v-10.7c0-0.2,0-0.4,0.2-0.5c0.1-0.1,0.3-0.2,0.5-0.2h7.3
			c0.2,0,0.3,0,0.5,0.1c0.1,0.1,0.2,0.3,0.1,0.5v0.5c0,0.2,0,0.3-0.1,0.5c-0.1,0.1-0.3,0.2-0.5,0.1h-5.7v3.4h4.1
			c0.2,0,0.4,0,0.5,0.1c0.1,0.1,0.2,0.3,0.1,0.5v0.4c0,0.2,0,0.3-0.1,0.5c-0.1,0.1-0.3,0.2-0.5,0.1h-4.1v3.4h5.7
			c0.2,0,0.4,0,0.5,0.1c0.1,0.1,0.2,0.3,0.1,0.5v0.5c0,0.2,0,0.3-0.1,0.5c-0.1,0.1-0.3,0.2-0.5,0.1h-7.3
			C65.3,335.1,65.1,335.1,65,335z"/>
		<path class="st2" d="M78.9,335c-0.1-0.1-0.2-0.2-0.2-0.4l-4.6-11c0-0.1,0-0.1,0-0.2c0-0.1,0-0.1,0.1-0.2c0.1-0.1,0.1-0.1,0.2-0.1
			H76c0.1,0,0.2,0,0.3,0.1c0.1,0.1,0.2,0.2,0.2,0.3l3.3,8.4l3.3-8.4c0-0.1,0.1-0.2,0.2-0.3c0.1-0.1,0.2-0.1,0.3-0.1h1.5
			c0.1,0,0.2,0,0.2,0.1c0.1,0.1,0.1,0.1,0.1,0.2c0,0.1,0,0.1-0.1,0.2l-4.5,11c0,0.1-0.1,0.3-0.2,0.4c-0.1,0.1-0.2,0.1-0.4,0.1h-1
			C79.2,335.1,79,335.1,78.9,335z"/>
		<path class="st2" d="M87,335c-0.1-0.1-0.2-0.3-0.2-0.5v-10.7c0-0.2,0-0.4,0.2-0.5c0.1-0.1,0.3-0.2,0.5-0.2h7.3
			c0.2,0,0.3,0,0.5,0.1c0.1,0.1,0.1,0.3,0.1,0.5v0.5c0,0.2,0,0.3-0.1,0.5c-0.1,0.1-0.3,0.2-0.5,0.1h-5.7v3.4h4.1
			c0.2,0,0.4,0,0.5,0.1c0.1,0.1,0.2,0.3,0.1,0.5v0.4c0,0.2,0,0.3-0.1,0.5c-0.1,0.1-0.3,0.2-0.5,0.1h-4.1v3.4h5.7
			c0.2,0,0.4,0,0.5,0.1c0.1,0.1,0.2,0.3,0.1,0.5v0.5c0,0.2,0,0.3-0.1,0.5c-0.1,0.1-0.3,0.2-0.5,0.1h-7.3
			C87.3,335.2,87.2,335.1,87,335z"/>
		<path class="st2" d="M97.1,335c-0.1-0.1-0.2-0.3-0.2-0.5v-10.7c-0.1-0.3,0.1-0.6,0.4-0.7c0.1,0,0.1,0,0.2,0h0.8
			c0.1,0,0.3,0,0.4,0.1c0.1,0.1,0.2,0.2,0.3,0.3l5.8,8v-7.7c0-0.2,0-0.4,0.1-0.5c0.1-0.1,0.3-0.2,0.5-0.2h0.9c0.2,0,0.4,0,0.5,0.2
			c0.1,0.1,0.2,0.3,0.2,0.5v10.6c0,0.2,0,0.3-0.2,0.5c-0.1,0.1-0.3,0.2-0.5,0.2h-0.8c-0.1,0-0.3,0-0.4-0.1c-0.1-0.1-0.2-0.2-0.3-0.3
			l-5.8-8v7.7c0,0.3-0.2,0.6-0.5,0.6c-0.1,0-0.1,0-0.2,0h-0.9C97.4,335.1,97.3,335.1,97.1,335z"/>
		<path class="st2" d="M117.2,333.8c-2.1-2.7-2.1-6.5,0-9.2c2.6-2.2,6.3-2.2,8.9,0c2.1,2.7,2.1,6.5,0,9.2
			C123.5,335.9,119.8,335.9,117.2,333.8z M124.4,332.6c1.3-2.1,1.3-4.7,0-6.8c-1.6-1.5-4.1-1.5-5.6,0c-1.3,2.1-1.3,4.7,0,6.8
			C120.4,334.1,122.9,334.1,124.4,332.6C124.4,332.6,124.4,332.6,124.4,332.6z"/>
		<path class="st2" d="M129.5,335c-0.1-0.1-0.2-0.3-0.1-0.5v-10.7c0-0.2,0-0.4,0.1-0.5c0.1-0.1,0.3-0.2,0.5-0.2h7.3
			c0.2,0,0.3,0,0.5,0.1c0.1,0.1,0.1,0.3,0.1,0.5v0.5c0,0.2,0,0.3-0.1,0.5c-0.1,0.1-0.3,0.2-0.5,0.1h-5.7v3.4h4.1
			c0.2,0,0.4,0,0.5,0.1c0.1,0.1,0.2,0.3,0.1,0.5v0.5c0,0.2,0,0.3-0.1,0.5c-0.1,0.1-0.3,0.2-0.5,0.1h-4.1v4.5c0,0.2,0,0.3-0.1,0.5
			c-0.1,0.1-0.3,0.2-0.5,0.2H130C129.8,335.2,129.6,335.1,129.5,335z"/>
		<path class="st2" d="M147.6,333.6c-2.8-2.6-3-7-0.4-9.9c1.4-1.5,3.4-2.4,5.5-2.2c0.8,0,1.7,0.1,2.5,0.3c0.7,0.1,1.3,0.4,1.9,0.8
			c0.1,0.1,0.2,0.1,0.2,0.3c0,0.1,0,0.2-0.1,0.3l-0.6,0.9c-0.1,0.1-0.1,0.2-0.2,0.2c-0.1,0-0.2,0-0.3-0.1c-1-0.5-2.1-0.8-3.2-0.7
			c-1.3-0.1-2.5,0.4-3.5,1.3c-0.9,1.1-1.4,2.4-1.3,3.8c-0.1,1.4,0.4,2.8,1.3,3.9c0.9,0.9,2.2,1.3,3.5,1.3c1.2,0.1,2.3-0.2,3.4-0.8
			c0.1,0,0.2-0.1,0.3-0.1c0.1,0,0.2,0.1,0.2,0.2l0.6,1c0,0.1,0.1,0.1,0.1,0.2c0,0.1-0.1,0.2-0.2,0.3c-1.4,0.8-3,1.2-4.6,1.1
			C150.9,335.5,149.1,334.9,147.6,333.6z"/>
		<path class="st2" d="M162.3,334.8c-0.9-0.4-1.6-1-2.1-1.7c-0.5-0.8-0.8-1.7-0.7-2.7v-7.9c0-0.2,0-0.4,0.2-0.5
			c0.2-0.1,0.4-0.2,0.6-0.2h1c0.3-0.1,0.7,0.1,0.7,0.5c0,0.1,0,0.2,0,0.2v8c-0.1,0.9,0.3,1.7,0.9,2.3c0.7,0.6,1.6,0.9,2.6,0.8
			c0.9,0.1,1.8-0.2,2.5-0.8c0.6-0.6,1-1.4,0.9-2.3v-8c-0.1-0.3,0.2-0.7,0.5-0.7c0.1,0,0.2,0,0.2,0h1c0.5,0,0.8,0.2,0.8,0.7v7.9
			c0,0.9-0.2,1.9-0.8,2.7c-0.5,0.8-1.3,1.4-2.1,1.7C166.4,335.6,164.2,335.6,162.3,334.8L162.3,334.8z"/>
		<path class="st2" d="M173.7,335c-0.1-0.1-0.2-0.3-0.2-0.5v-12c0-0.2,0-0.4,0.2-0.5c0.2-0.1,0.4-0.2,0.6-0.2h5
			c1.3-0.1,2.6,0.3,3.6,1.1c0.8,0.9,1.2,2.1,1.2,3.3c0.1,1.2-0.3,2.4-1.2,3.3c-1,0.8-2.3,1.2-3.6,1.1h-3.2v3.8c0,0.2,0,0.4-0.2,0.5
			c-0.2,0.1-0.4,0.2-0.6,0.2h-1C174.1,335.2,173.9,335.1,173.7,335z M179.2,328.8c0.7,0.1,1.3-0.2,1.8-0.6c0.8-1.1,0.8-2.6,0-3.8
			c-0.5-0.4-1.1-0.7-1.8-0.6h-3.1v5L179.2,328.8z"/>
		<g>
			<defs>
				<path id="SVGID_1_" d="M53.5,44h129c13.7,0,24.8,11.1,24.8,24.8v192.3c0,13.7-11.1,24.8-24.8,24.8h-129
					c-13.7,0-24.8-11.1-24.8-24.8V68.8C28.7,55.1,39.8,44,53.5,44z"/>
			</defs>
			<clipPath id="SVGID_2_">
				<use xlink:href="#SVGID_1_"  style="overflow:visible;"/>
			</clipPath>
			<g class="st3">
				<rect x="18.1" y="12" class="st4" width="203.4" height="289.3"/>
				<path class="st5" d="M49.7,137.9H76c1.6,0,2.8,1.3,2.8,2.8v0.9c0,1.6-1.3,2.8-2.8,2.8H49.7c-1.6,0-2.8-1.3-2.8-2.8v-0.9
					C46.8,139.1,48.1,137.9,49.7,137.9z"/>
				<circle class="st5" cx="59.6" cy="136.3" r="8.2"/>
				<path class="st5" d="M74.4,138.6c0,3.2-2.6,5.8-5.8,5.8s-5.8-2.6-5.8-5.8s2.6-5.8,5.8-5.8C71.8,132.8,74.4,135.4,74.4,138.6
					C74.4,138.6,74.4,138.6,74.4,138.6z"/>
				<path class="st5" d="M81.1,77.1H61.5c-1.4,0-2.5-1.1-2.5-2.5c0,0,0,0,0,0l0,0c0-1.4,1.2-2.5,2.5-2.5h19.6c1.4,0,2.5,1.1,2.5,2.5
					l0,0C83.7,75.9,82.5,77,81.1,77.1z"/>
				<circle class="st5" cx="68.8" cy="70.8" r="6.3"/>
				<path class="st5" d="M80.2,72.6c0,2.5-2,4.5-4.5,4.5s-4.5-2-4.5-4.5s2-4.5,4.5-4.5C78.2,68.1,80.2,70.1,80.2,72.6
					C80.2,72.6,80.2,72.6,80.2,72.6z"/>
				<path class="st5" d="M182.6,78.8h-16.8c-1.2,0-2.2-1-2.2-2.2l0,0c0-1.2,1-2.2,2.2-2.2l0,0h16.8c1.2,0,2.2,1,2.2,2.2l0,0
					C184.7,77.8,183.8,78.8,182.6,78.8z"/>
				<path class="st5" d="M177.4,73.4c0,3-2.4,5.4-5.4,5.4c-3,0-5.4-2.4-5.4-5.4s2.4-5.4,5.4-5.4h0C175,68,177.4,70.4,177.4,73.4z"/>
				<path class="st5" d="M181.8,74.9c0,2.1-1.7,3.8-3.8,3.8c-2.1,0-3.8-1.7-3.8-3.8c0-2.1,1.7-3.8,3.8-3.8c0,0,0,0,0,0
					C180.1,71.1,181.8,72.8,181.8,74.9z"/>
				<path class="st5" d="M115,104.2h13.3c0.9,0,1.7-0.8,1.7-1.7l0,0l0,0c0-0.9-0.8-1.7-1.7-1.7H115c-0.9,0-1.7,0.8-1.7,1.7l0,0
					C113.3,103.4,114.1,104.2,115,104.2L115,104.2z"/>
				<path class="st5" d="M119.1,99.9c0,2.4,1.9,4.3,4.3,4.3s4.3-1.9,4.3-4.3s-1.9-4.3-4.3-4.3h0C121,95.7,119.1,97.6,119.1,99.9z"/>
				<path class="st5" d="M115.7,101.2c0,1.7,1.3,3,3,3s3-1.3,3-3s-1.3-3-3-3S115.7,99.5,115.7,101.2z"/>
				<polygon class="st6" points="71.6,184.8 99.8,169.7 141,194 60.7,194 				"/>
				<polygon class="st7" points="188.9,181.3 149.8,160.2 92.5,194 203.9,194 				"/>
				<path class="st5" d="M226.8,194.5H152c-5.3,0-9.7-4.3-9.7-9.7v0c0-5.3,4.3-9.7,9.7-9.7h74.8c5.3,0,9.7,4.3,9.7,9.7v0
					C236.5,190.2,232.2,194.5,226.8,194.5z"/>
				<circle class="st5" cx="198.9" cy="170.5" r="24"/>
				<circle class="st5" cx="172.5" cy="177.4" r="17.1"/>
				<path class="st5" d="M71.6,194.5h-48c-3.4,0-6.2-2.8-6.2-6.2l0,0c0-3.4,2.8-6.2,6.2-6.2h48c3.4,0,6.2,2.8,6.2,6.2l0,0
					C77.7,191.7,75,194.5,71.6,194.5z"/>
				<circle class="st5" cx="41.5" cy="179.1" r="15.4"/>
				<circle class="st5" cx="58.4" cy="183.5" r="11"/>
				<rect x="10.8" y="193.6" class="st8" width="218.1" height="107.7"/>
				<rect x="32.8" y="12" class="st9" width="174.1" height="289.3"/>
				<path class="st10" d="M22.5,269.1c0,0,23.3-11.7,29.2-11.7s46.7-5.8,52.5-5.8s23.3,5.8,23.3,5.8l17.5,29.2l-5.8,11.7L22.5,286.6
					V269.1z"/>
				<path class="st11" d="M116.6,207H38.1c-1.3,0-2.3-1-2.3-2.3l0,0c0-1.3,1-2.3,2.3-2.3h78.5c1.3,0,2.3,1,2.3,2.3l0,0
					C118.9,206,117.9,207,116.6,207z"/>
				<path class="st11" d="M153.9,221.1H75.4c-1.3,0-2.3-1-2.3-2.3l0,0c0-1.3,1-2.3,2.3-2.3h78.5c1.3,0,2.3,1,2.3,2.3l0,0
					C156.2,220.1,155.2,221.1,153.9,221.1z"/>
				<path class="st12" d="M119,281.9H64.3c-2.4,0-4.4-2-4.4-4.4l0,0c0-2.4,2-4.4,4.4-4.4H119c2.4,0,4.4,2,4.4,4.4l0,0
					C123.4,279.9,121.4,281.9,119,281.9z"/>
				<path class="st11" d="M119.4,239.8H40.9c-1.3,0-2.3-1-2.3-2.3l0,0c0-1.3,1-2.3,2.3-2.3c0,0,0,0,0,0h78.5c1.3,0,2.3,1,2.3,2.3
					l0,0C121.7,238.8,120.7,239.8,119.4,239.8z"/>
				<path class="st11" d="M187.1,273.3h-36.9c-1.3,0-2.3-1-2.3-2.3l0,0c0-1.3,1-2.3,2.3-2.3h36.9c1.3,0,2.3,1,2.3,2.3l0,0
					C189.4,272.3,188.4,273.3,187.1,273.3z"/>
				<path class="st11" d="M175.3,250.9h-36.9c-1.3,0-2.3-1-2.3-2.3l0,0c0-1.3,1-2.3,2.3-2.3h36.9c1.3,0,2.3,1,2.3,2.3l0,0
					C177.6,249.9,176.6,250.9,175.3,250.9z"/>
				<path class="st11" d="M194.3,235.3h-49.6c-1.3,0-2.3-1-2.3-2.3l0,0c0-1.3,1-2.3,2.3-2.3h49.6c1.3,0,2.3,1,2.3,2.3v0l0,0
					C196.6,234.2,195.6,235.3,194.3,235.3z"/>
				<path class="st11" d="M195.9,206.9h-49.6c-1.3,0-2.3-1-2.3-2.3v0l0,0c0-1.3,1-2.3,2.3-2.3h0h49.6c1.3,0,2.3,1,2.3,2.3l0,0
					C198.3,205.9,197.2,206.9,195.9,206.9z"/>
				<path class="st13" d="M152.9,138.5c0,0,0.5,6.8-5.1,8.8c0,0,6.2,4.2,9-1.2v-9.4L152.9,138.5z"/>
				<circle class="st14" cx="192.9" cy="176.4" r="1.4"/>
				<path class="st13" d="M184.9,135.5c0,0,1.8,46,9.4,41.1c0,0-0.5,4.1-12.2,2.9"/>
				<rect x="152.9" y="78.2" class="st13" width="44.2" height="60.3"/>
				<path class="st13" d="M150.4,207.4h14.5c5.2,0,9.4,4.2,9.4,9.4V234c0,5.2-4.2,9.4-9.4,9.4h-5c-5.2,0-9.4-4.2-9.4-9.4
					L150.4,207.4L150.4,207.4z"/>
				<path class="st15" d="M157.3,94.3h1.1c1.1,0,2.1,0.9,2.1,2.1v13.3c0,1.1-0.9,2.1-2.1,2.1h-1.1c-1.1,0-2.1-0.9-2.1-2.1V96.3
					C155.2,95.2,156.1,94.3,157.3,94.3z"/>
				<path class="st16" d="M189.4,269.1v-64.6c-0.4-3.3-3.3-5.7-6.6-5.3c-2.8,0.3-5,2.5-5.3,5.3v65.7c0,0.1,0,0.1,0,0.2l-4.3,0.9
					c-0.7,0.2-1.4,0.5-1.9,1.1l-0.9,1c-1.3,1.4-1.3,3.7,0.2,5c0.7,0.6,1.5,1,2.5,1h14.2c2,0,3.6-1.6,3.6-3.5c0,0,0,0,0,0V272
					C190.8,270.9,190.3,269.8,189.4,269.1z"/>
				<rect x="152.1" y="79.9" class="st15" width="3.6" height="38.7"/>
				<path class="st17" d="M174.3,257.7v-57.6c0-2.9-2.7-5.3-6-5.3s-6,2.4-6,5.3v58.6c0,0.1,0,0.1,0,0.2l-4.3,0.8
					c-0.7,0.1-1.4,0.5-1.9,1l-0.9,0.9c-2.1,2-0.4,5.3,2.6,5.3h14.2c1.9,0.1,3.5-1.3,3.6-3.2v-3.5
					C175.6,259.2,175.2,258.3,174.3,257.7z"/>
				<path class="st18" d="M160,91.2c0,2.4-1.9,4.3-4.2,4.3c-2.4,0-4.3-1.9-4.3-4.2c0-2.3,1.9-4.3,4.2-4.3C158,87,160,88.9,160,91.2
					C160,91.2,160,91.2,160,91.2z"/>
				<circle class="st17" cx="155.7" cy="91.2" r="2.8"/>
				<path class="st18" d="M173.1,105.8h1.6c1.7,0,3,1.4,3,3v8.5c0,1.7-1.4,3-3,3h-1.6c-1.7,0-3-1.4-3-3v-8.5
					C170.1,107.2,171.5,105.8,173.1,105.8z"/>
				<path class="st17" d="M178.8,123.6c-0.6,0.2-1.2,0.2-1.8,0.2l-68.6-4.8c-2.3,0-4.2-1.9-4.2-4.2c0-0.2,0-0.3,0-0.5
					c0.5-2.5,2.9-4.2,5.4-4l68.7,4.8c2.3,0,4.2,1.9,4.2,4.2c0,0.2,0,0.3,0,0.5C182.1,121.7,180.6,123.2,178.8,123.6z"/>
				<path class="st17" d="M173.2,110.6L173.2,110.6c-9.1,0-16.4-7.4-16.4-16.4V83.7c0-9.1,7.4-16.4,16.4-16.4l0,0
					c9.1,0,16.4,7.4,16.4,16.4v10.4C189.6,103.2,182.3,110.6,173.2,110.6z"/>
				<path class="st18" d="M172.1,110.6L172.1,110.6c-9.1,0-16.4-7.4-16.4-16.4V83.7c0-9.1,7.4-16.4,16.4-16.4l0,0
					c9.1,0,16.4,7.4,16.4,16.4v10.4C188.6,103.2,181.2,110.6,172.1,110.6z"/>
				<path class="st19" d="M161.7,89.3h0.6c0.6,0,1.2,0.5,1.2,1.2v5c0,0.6-0.5,1.2-1.2,1.2h-0.6c-0.6,0-1.2-0.5-1.2-1.2v-5
					C160.5,89.8,161,89.3,161.7,89.3z"/>
				<path class="st19" d="M175,89.3h0.6c0.6,0,1.2,0.5,1.2,1.2v5c0,0.6-0.5,1.2-1.2,1.2H175c-0.6,0-1.2-0.5-1.2-1.2v-5
					C173.8,89.8,174.3,89.3,175,89.3z"/>
				<path class="st15" d="M189,78.2h1.7c1.8,0,3.2,1.4,3.2,3.2v30c0,1.8-1.4,3.2-3.2,3.2H189c-1.8,0-3.2-1.4-3.2-3.2v-30
					C185.8,79.6,187.3,78.2,189,78.2z"/>
				<path class="st17" d="M168.3,97.3h-1.4c0-0.8,0.7-1.4,1.5-1.4c0.8,0,1.4,0.6,1.4,1.4H168.3z"/>
				<path class="st15" d="M172,85.3l7.6,1.6c0.4,0.1,0.7,0.5,0.6,0.9l-0.1,0.4c-0.1,0.4-0.5,0.7-0.9,0.6l-7.6-1.6
					c-0.4-0.1-0.7-0.5-0.6-0.9l0.1-0.4C171.2,85.5,171.6,85.2,172,85.3z"/>
				<path class="st15" d="M165.9,87.1l-7.6,1.6c-0.4,0.1-0.8-0.2-0.9-0.6l-0.1-0.4c-0.1-0.4,0.2-0.8,0.6-0.9l7.6-1.6
					c0.4-0.1,0.8,0.2,0.9,0.6l0.1,0.4C166.6,86.6,166.3,87,165.9,87.1z"/>
				<path class="st20" d="M165.8,99.5c0,1.4,1.2,2.4,2.5,2.4c1.4,0,2.4-1.2,2.4-2.5l0,0L165.8,99.5z"/>
				<path class="st17" d="M169,103c0-0.3-0.3-0.6-0.6-0.6c-0.3,0-0.6,0.3-0.6,0.6H169z"/>
				<path class="st16" d="M193.9,132.2c-0.1-6.7-4-12.7-10.1-15.5c-0.8-0.4-1.7-0.8-2.5-1.1c-2.2-0.7-4.5-1.1-6.8-1.1
					c-3.7,0-7.4,1-10.6,2.9l-0.6,0.4c-3.6,2.3-6.2,5.8-7.4,9.9l38.1,5.4V132.2z"/>
				<polyline class="st15" points="198.4,133.1 198.4,220.1 149.7,215.4 155.1,127.6 198.4,133.1 				"/>
				<path class="st13" d="M176.9,189.1l17.2,2c0.6,0.1,1,0.6,0.9,1.2l-0.1,0.5c-0.1,0.6-0.6,1-1.2,0.9l-17.2-2
					c-0.6-0.1-1-0.6-0.9-1.2l0.1-0.5C175.8,189.4,176.3,189,176.9,189.1z"/>
				<path class="st13" d="M167.2,172.3l17.2,2c0.6,0.1,1,0.6,0.9,1.2l-0.1,0.5c-0.1,0.6-0.6,1-1.2,0.9l-17.2-2
					c-0.6-0.1-1-0.6-0.9-1.2l0.1-0.5C166.1,172.6,166.6,172.2,167.2,172.3z"/>
				<path class="st13" d="M174.1,208.4l17.2,2c0.6,0.1,1,0.6,0.9,1.2l-0.1,0.5c-0.1,0.6-0.6,1-1.2,0.9l-17.2-2
					c-0.6-0.1-1-0.6-0.9-1.2l0.1-0.5C173,208.7,173.5,208.3,174.1,208.4z"/>
				<path class="st13" d="M158,197l17.2,2c0.6,0.1,1,0.6,0.9,1.2l-0.1,0.5c-0.1,0.6-0.6,1-1.2,0.9l-17.2-2c-0.6-0.1-1-0.6-0.9-1.2
					l0.1-0.5C156.9,197.3,157.4,196.9,158,197z"/>
				<path class="st15" d="M150,79.9c0,0,10.5,7.6,34.4-4c0,0,3.5,11.1,12.5,14.5c0,0,8.6-20-12.5-27.8
					C184.4,62.6,157.9,54.7,150,79.9z"/>
				<path class="st13" d="M164.5,136.1l26.8,3.2c0.6,0.1,1,0.6,0.9,1.2l-0.1,0.5c-0.1,0.6-0.6,1-1.2,0.9l-26.8-3.2
					c-0.6-0.1-1-0.6-0.9-1.2l0.1-0.5C163.4,136.5,164,136.1,164.5,136.1z"/>
				<path class="st18" d="M190.1,91.2c0,2.4-1.9,4.3-4.2,4.3c-2.4,0-4.3-1.9-4.3-4.2c0-2.4,1.9-4.3,4.2-4.3c0,0,0,0,0,0
					C188.2,87,190.1,88.9,190.1,91.2z"/>
				<circle class="st17" cx="185.8" cy="91.2" r="2.8"/>
				<path class="st15" d="M189,83.5h-7.4c-2.5,0-4.5-2-4.5-4.5l0,0c0-2.5,2-4.4,4.5-4.5h7.4c2.5,0,4.4,2,4.4,4.5l0,0
					C193.5,81.5,191.5,83.5,189,83.5z"/>
				<path class="st15" d="M183.8,82.2h0.7c0.7,0,1.3,0.6,1.3,1.3v13.8c0,0.7-0.6,1.3-1.3,1.3h-0.7c-0.7,0-1.3-0.6-1.3-1.3V83.6
					C182.5,82.8,183.1,82.2,183.8,82.2z"/>
				<path class="st15" d="M155.5,93.6H155c-0.5,0-1-0.4-1-1V81.3c0-0.5,0.4-1,1-1h0.5c0.5,0,1,0.4,1,1v11.2
					C156.5,93.1,156,93.6,155.5,93.6z"/>
				<path class="st16" d="M175.3,196.7c-3.1,0-5.6-2.5-5.6-5.5c0-0.9,0.2-1.7,0.6-2.5c18.5-36.7,12.9-58.6,12.8-58.8
					c-0.8-2.9,0.9-6,3.8-6.9c2.9-0.8,6,0.9,6.9,3.8c0.3,1,7.2,25.9-13.6,66.9C179.3,195.5,177.4,196.7,175.3,196.7z"/>
				<path class="st15" d="M195.5,75.2h1.6c1.6,0,2.9,1.3,2.9,2.9v58.5c0,1.6-1.3,2.9-2.9,2.9h-1.6c-1.6,0-2.9-1.3-2.9-2.9V78.1
					C192.6,76.5,193.9,75.2,195.5,75.2z"/>
				<path class="st15" d="M174.4,59.5l0.4-0.5c0.5-0.5,1.2-0.5,1.7-0.1l2.7,2.5c0.5,0.5,0.5,1.2,0.1,1.7l-0.4,0.5
					c-0.5,0.5-1.2,0.5-1.7,0.1l-2.7-2.5C174,60.8,174,60,174.4,59.5z"/>
				<path class="st15" d="M183.3,57.6l0.7,0.6c0.7,0.7,0.8,1.8,0.1,2.5l-2.3,2.5c-0.7,0.7-1.8,0.8-2.5,0.1l-0.7-0.6
					c-0.7-0.7-0.8-1.8-0.1-2.5l2.3-2.5C181.5,57,182.6,57,183.3,57.6z"/>
				<path class="st13" d="M157.1,149.5l17.2,2c0.6,0.1,1,0.6,0.9,1.2l-0.1,0.5c-0.1,0.6-0.6,1-1.2,0.9l-17.2-2
					c-0.6-0.1-1-0.6-0.9-1.2l0.1-0.5C156,149.9,156.6,149.5,157.1,149.5z"/>
				<path class="st21" d="M99.4,241.2c-1.8,0-3.7-0.1-5.5-0.4c-1.6-0.2-2.7-1.7-2.4-3.3c0.2-1.6,1.7-2.7,3.3-2.4
					c3.5,0.5,13.5,0.9,17.8-3.8c2.3-2.4,2.9-6.2,1.8-11.1c-0.3-1.6,0.7-3.1,2.2-3.5c1.6-0.3,3.1,0.7,3.5,2.2
					c1.5,6.9,0.4,12.4-3.2,16.4C112.3,240.3,104.6,241.2,99.4,241.2z"/>
				<path class="st21" d="M79.1,264.1h20.1c1.9,0,3.5,1.6,3.5,3.5s-1.6,3.5-3.5,3.5l0,0H78.4l-0.5,2.5c-0.1,0.4-0.3,0.8-0.6,1.1
					l-0.6,0.5c-0.8,0.8-2.2,0.7-2.9-0.1c-0.4-0.4-0.5-0.9-0.5-1.4v-8.3c0-1.1,0.9-2.1,2.1-2.1h2.2C78.1,263.3,78.7,263.6,79.1,264.1
					z"/>
				<path class="st22" d="M80.7,268.3h21.6c2.1-0.1,3.8,1.5,3.9,3.5s-1.5,3.8-3.5,3.9c-0.1,0-0.3,0-0.4,0H79.8l-0.6,2.7
					c-0.1,0.5-0.3,0.9-0.7,1.2l-0.6,0.6c-0.9,0.8-2.3,0.8-3.2-0.2c-0.4-0.4-0.6-0.9-0.6-1.5v-8.9c0-1.2,1-2.2,2.2-2.2c0,0,0,0,0,0
					h2.4C79.6,267.4,80.2,267.7,80.7,268.3z"/>
				<polygon class="st23" points="88.5,253.3 110.8,249 105.9,214.9 84.8,216.9 				"/>
				<path class="st24" d="M105,222.3c0.1,1.1,1.1,1.9,2.2,1.7c1.1-0.1,1.9-1.1,1.7-2.2c-0.1-1.1-1.1-1.9-2.2-1.7c0,0-0.1,0-0.1,0
					C105.6,220.3,104.9,221.2,105,222.3z"/>
				<path class="st21" d="M105.6,222.2c0.1,0.7,0.7,1.2,1.4,1.1c0.7-0.1,1.2-0.7,1.1-1.4c-0.1-0.7-0.7-1.2-1.4-1.1
					C106,220.9,105.5,221.5,105.6,222.2C105.6,222.2,105.6,222.2,105.6,222.2z"/>
				<path class="st24" d="M100.5,236.5L100.5,236.5c1-0.1,1.6-1,1.5-2c0,0,0,0,0,0l-0.4-3.1c-0.1-1-1-1.6-2-1.5c0,0,0,0,0,0l0,0
					c-1,0.1-1.6,1-1.5,2l0.4,3.1C98.6,235.9,99.5,236.6,100.5,236.5C100.5,236.5,100.5,236.5,100.5,236.5z"/>
				<path class="st25" d="M116.2,270.1l-20.8,3.9L90.1,246c-1.1-5.7,2.7-11.3,8.4-12.3c0,0,0,0,0,0l0,0c5.7-1.1,11.2,2.6,12.3,8.4
					L116.2,270.1z"/>
				<path class="st21" d="M99.9,232L99.9,232c4.8-0.7,8.1-5.1,7.4-9.9l-0.5-3.6c-0.7-4.8-5.1-8.1-9.9-7.4l0,0
					c-4.8,0.7-8.1,5.1-7.4,9.9c0,0,0,0,0,0l0.5,3.6C90.7,229.4,95.1,232.7,99.9,232z"/>
				<path class="st24" d="M99.8,231.5L99.8,231.5c4.8-0.7,8.1-5.1,7.4-9.9l-0.5-3.6c-0.7-4.8-5.1-8.1-9.9-7.4l0,0
					c-4.8,0.7-8.1,5.1-7.4,9.9l0.5,3.6C90.6,228.9,95.1,232.2,99.8,231.5z"/>
				<path class="st23" d="M88,219.1l19.7-2.8l-0.8-5.2c-0.4-2.9-3.1-4.9-6-4.5c0,0,0,0,0,0l-14.5,2.1c-2.9,0.4-4.9,3.1-4.5,6l0,0
					C82.4,217.6,85.1,219.6,88,219.1z"/>
				<path class="st19" d="M97.8,225.1L97.8,225.1c0.6-0.1,1-0.7,0.9-1.3l-0.3-2c-0.1-0.6-0.7-1-1.3-0.9l0,0c-0.6,0.1-1.1,0.6-1,1.2
					c0,0,0,0,0,0l0.3,2C96.6,224.8,97.1,225.2,97.8,225.1C97.8,225.1,97.8,225.1,97.8,225.1z"/>
				<path class="st19" d="M104,224.2L104,224.2c0.6-0.1,1.1-0.6,1-1.2c0,0,0,0,0,0l-0.3-2c-0.1-0.6-0.6-1.1-1.2-1c0,0,0,0,0,0l0,0
					c-0.6,0.1-1.1,0.6-1,1.2c0,0,0,0,0,0l0.3,2C102.8,223.8,103.4,224.3,104,224.2C104,224.2,104,224.2,104,224.2z"/>
				<path class="st21" d="M101.1,224.3l0.7-0.1c-0.1-0.4-0.4-0.6-0.8-0.6s-0.6,0.4-0.6,0.8L101.1,224.3z"/>
				<path class="st23" d="M95.5,220.6l3.2-0.5c0.3,0,0.6-0.3,0.5-0.7l0,0c0-0.3-0.3-0.5-0.7-0.5c0,0,0,0,0,0l-3.3,0.5
					c-0.3,0-0.6,0.3-0.5,0.7l0,0C94.9,220.4,95.2,220.6,95.5,220.6z"/>
				<path class="st23" d="M102.1,219.6l3.3-0.5c0.3,0,0.5-0.3,0.5-0.7c0,0,0,0,0,0l0,0c0-0.3-0.3-0.5-0.7-0.5c0,0,0,0,0,0l-3.3,0.5
					c-0.3,0-0.5,0.3-0.5,0.6c0,0,0,0,0,0l0,0C101.5,219.4,101.8,219.6,102.1,219.6C102.1,219.6,102.1,219.6,102.1,219.6z"/>
				<path class="st20" d="M100.3,226.5c-0.1-0.6,0.2-1.2,0.9-1.4s1.2,0.2,1.4,0.9c0,0.1,0,0.1,0,0.2L100.3,226.5z"/>
				<path class="st26" d="M101.1,226.9c0-0.1,0.1-0.3,0.3-0.3c0.1,0,0.2,0.1,0.3,0.2L101.1,226.9z"/>
				<path class="st24" d="M88.1,224.7c0.4,1,1.5,1.6,2.6,1.2c0.7-0.3,1.2-1,1.3-1.7c0.1-1.1-0.8-2.1-1.9-2.1s-2.1,0.8-2.1,1.9
					C88,224.2,88,224.5,88.1,224.7z"/>
				<path class="st21" d="M88.8,224.6c0.1,0.7,0.7,1.2,1.4,1.1c0.7-0.1,1.2-0.7,1.1-1.4c-0.1-0.7-0.7-1.2-1.4-1.1
					C89.2,223.3,88.7,223.9,88.8,224.6C88.8,224.6,88.8,224.6,88.8,224.6z"/>
				<path class="st27" d="M96.4,225.8l0.3-0.7l0.4,0.6c0.1,0.1,0.1,0.2,0.1,0.3c0,0.2-0.1,0.5-0.4,0.5c-0.2,0-0.5-0.1-0.5-0.4
					C96.3,226,96.4,225.9,96.4,225.8L96.4,225.8z"/>
				<path class="st23" d="M90.3,222.6L90.3,222.6c-0.7,0.1-1.3-0.4-1.3-1.1l-0.3-3c-0.1-0.7,0.4-1.3,1.1-1.3l0,0
					c0.7-0.1,1.3,0.4,1.3,1.1l0.3,3C91.4,221.9,90.9,222.5,90.3,222.6z"/>
				<path class="st25" d="M107.7,278.4H84.1v-17.3h23.5c4.8,0,8.6,3.9,8.6,8.6l0,0C116.3,274.5,112.4,278.4,107.7,278.4z"/>
				<path class="st24" d="M103.4,243c-1.8,0-3.7-0.1-5.5-0.4c-1.6-0.2-2.7-1.7-2.5-3.3c0.2-1.6,1.7-2.7,3.3-2.4l0,0l0,0
					c3.5,0.5,13.5,0.9,17.8-3.8c2.3-2.4,2.9-6.2,1.8-11.1c-0.3-1.6,0.7-3.1,2.2-3.5c1.6-0.3,3.1,0.7,3.5,2.2l0,0
					c1.5,6.9,0.4,12.4-3.2,16.4C116.2,242,108.6,243,103.4,243z"/>
				<circle class="st15" cx="196.3" cy="72.3" r="7.6"/>
				<path class="st24" d="M42.9,99.3v7c0,3.3,2.4,6.1,5.6,6.7v5l-2.8,2c0,0,0.7,0.6,3.9,0.6l0,0c3.2,0,4-0.6,4-0.6l-2.9-1.9v-5.1
					c3.2-0.6,5.5-3.3,5.6-6.6v-7L42.9,99.3z"/>
				<path class="st24" d="M48.7,71.4v7c0,3.3,2.4,6.1,5.6,6.7v5.1l-2.8,1.9c0,0,0.7,0.6,3.9,0.6l0,0c3.2,0,4-0.6,4-0.6l-2.8-1.9
					v-5.1c3.2-0.6,5.5-3.3,5.6-6.6l0-7L48.7,71.4z"/>
				<path class="st24" d="M65.4,96.6v7c0,3.3,2.4,6.1,5.6,6.7v5.1l-2.8,2c0,0,0.7,0.6,3.9,0.6l0,0c3.2,0,4-0.6,4-0.6l-2.8-1.9v-5.1
					c3.2-0.6,5.6-3.3,5.6-6.6v-7L65.4,96.6z"/>
				<path class="st24" d="M81.1,69.2v7c0,3.3,2.4,6.1,5.6,6.7v5l-2.8,2c0,0,0.7,0.6,3.9,0.6l0,0c3.2,0,4-0.6,4-0.6L88.9,88v-5.1
					c3.2-0.6,5.5-3.3,5.6-6.6v-7L81.1,69.2z"/>
				<path class="st24" d="M54,126.6v7c0,3.3,2.4,6.1,5.6,6.7v5.1l-2.8,2c0,0,0.7,0.6,3.9,0.6l0,0c3.2,0,4-0.6,4-0.6l-2.8-1.9v-5.1
					c3.2-0.6,5.5-3.3,5.6-6.6v-7L54,126.6z"/>
				<path class="st24" d="M84.3,114v7c0,3.3,2.4,6.1,5.6,6.7v5.1l-2.8,1.9c0,0,0.7,0.6,3.9,0.6l0,0c3.2,0,4-0.6,4-0.6l-2.8-1.9v-5.1
					c3.2-0.6,5.5-3.3,5.6-6.6v-7L84.3,114z"/>
				<path class="st24" d="M78.9,144.2v7c0,3.3,2.4,6.1,5.6,6.7v5l-2.8,2c0,0,0.7,0.6,3.9,0.6l0,0c3.2,0,4-0.6,4-0.6l-2.9-1.9v-5.1
					c3.2-0.6,5.6-3.3,5.6-6.6v-7L78.9,144.2z"/>
				<path class="st25" d="M98,222.4L98,222.4c-0.1,0-0.2-0.1-0.3-0.2l-0.1-0.5c0-0.1,0-0.2,0.2-0.3c0,0,0,0,0,0l0,0
					c0.1,0,0.2,0.1,0.3,0.2c0,0,0,0,0,0l0.1,0.5C98.2,222.3,98.1,222.4,98,222.4z"/>
				<path class="st25" d="M104.3,221.6L104.3,221.6c-0.1,0-0.2,0-0.3-0.2c0,0,0,0,0,0l-0.1-0.5c0-0.1,0.1-0.2,0.2-0.3c0,0,0,0,0,0
					l0,0c0.1,0,0.2,0,0.3,0.2c0,0,0,0,0,0l0.1,0.5C104.5,221.5,104.4,221.6,104.3,221.6C104.3,221.6,104.3,221.6,104.3,221.6z"/>
				<path class="st11" d="M61.2,222.7h-24c-0.9,0-1.7-0.8-1.7-1.7l0,0c0-0.9,0.8-1.7,1.7-1.7l0,0h24c0.9,0,1.7,0.8,1.7,1.7l0,0
					C62.8,222,62.1,222.7,61.2,222.7z"/>
				<path class="st17" d="M112,111.7L112,111.7c0,0.6-0.6,1.1-1.2,1.1l-9.2-0.7c-0.6,0-1.1-0.6-1.1-1.2c0,0,0,0,0,0l0,0
					c0-0.6,0.6-1.1,1.2-1.1c0,0,0,0,0,0l9.2,0.7C111.6,110.5,112,111.1,112,111.7C112,111.7,112,111.7,112,111.7z"/>
				<path class="st5" d="M161.3,91.8L161.3,91.8c-0.2,0-0.4-0.2-0.4-0.3c0,0,0,0,0,0v-1c0-0.2,0.2-0.3,0.4-0.3l0,0l0,0
					c0.2,0,0.4,0.2,0.4,0.3c0,0,0,0,0,0v1C161.6,91.6,161.5,91.8,161.3,91.8L161.3,91.8z"/>
				<path class="st5" d="M174.6,91.8L174.6,91.8c-0.2,0-0.4-0.2-0.4-0.3c0,0,0,0,0,0v-1c0-0.2,0.2-0.3,0.4-0.3l0,0l0,0
					c0.2,0,0.4,0.2,0.4,0.3c0,0,0,0,0,0v1C174.9,91.6,174.7,91.8,174.6,91.8L174.6,91.8z"/>
			</g>
		</g>
	</g>
</g>
</svg>
