<?xml version="1.0" encoding="utf-8"?>
<!-- Generator: Adobe Illustrator 25.2.3, SVG Export Plug-In . SVG Version: 6.00 Build 0)  -->
<svg version="1.1" id="Layer_1" xmlns="http://www.w3.org/2000/svg" xmlns:xlink="http://www.w3.org/1999/xlink" x="0px" y="0px"
	 viewBox="0 0 237.4 381.2" style="enable-background:new 0 0 237.4 381.2;" xml:space="preserve">
<style type="text/css">
	.st0{fill:#F4B155;}
	.st1{fill:#FFF0CC;}
	.st2{fill:#231F20;}
	.st3{clip-path:url(#SVGID_2_);}
	.st4{fill:#F4B055;}
	.st5{fill:#FFD150;}
	.st6{fill:#323647;}
	.st7{fill:#789B78;}
	.st8{fill:#79B27B;}
	.st9{fill:#FFFFFF;}
	.st10{fill:#3D7C89;}
	.st11{fill:#4C9BA5;}
	.st12{fill:#63454F;}
	.st13{fill:#332C2E;}
	.st14{fill:none;}
	.st15{fill:#FFD351;}
	.st16{fill:#4C3D41;}
	.st17{fill:#3A3134;}
	.st18{fill:#302A2D;}
	.st19{fill:#42363A;}
	.st20{fill:#59404A;}
	.st21{fill:#383838;}
	.st22{fill:#F5B155;}
	.st23{fill:#414042;}
	.st24{fill:#333333;}
	.st25{fill:#3A335F;}
</style>
<g id="Layer_2_1_">
	<g id="Layer_1-2">
		<path class="st0" d="M237.4,14.4v352.3c0,8-6.7,14.5-15,14.5h-205c-8.3,0-15-6.5-15-14.5V14.4c0-8,6.7-14.4,15-14.4h205
			C230.7,0,237.4,6.5,237.4,14.4z M224.8,358.3V22.8c0-6-4.8-10.8-10.8-10.8H25.8c-6,0-10.8,4.9-10.8,10.8v335.5
			c0,6,4.8,10.8,10.8,10.8H214C220,369.2,224.8,364.3,224.8,358.3L224.8,358.3z"/>
		<path class="st1" d="M25.8,12H214c6,0,10.8,4.8,10.8,10.8v335.5c0,6-4.8,10.8-10.8,10.8H25.8c-6,0-10.8-4.8-10.8-10.8V22.8
			C15,16.9,19.8,12,25.8,12z"/>
		<path class="st2" d="M56.8,335c-0.1-0.1-0.2-0.3-0.2-0.5v-11c0-0.2,0-0.4,0.2-0.5c0.1-0.1,0.3-0.2,0.5-0.2h7.5
			c0.3-0.1,0.6,0.1,0.6,0.4c0,0.1,0,0.2,0,0.2v0.5c0,0.2,0,0.4-0.1,0.5c-0.1,0.1-0.3,0.2-0.5,0.2h-5.9v3.5h4.3c0.2,0,0.4,0,0.5,0.1
			c0.1,0.1,0.2,0.3,0.2,0.5v0.5c0,0.2,0,0.4-0.2,0.5c-0.1,0.1-0.3,0.2-0.5,0.1h-4.3v3.5h5.9c0.2,0,0.4,0,0.5,0.2
			c0.1,0.1,0.2,0.3,0.2,0.5v0.5c0,0.2,0,0.3-0.1,0.4c-0.1,0.1-0.3,0.2-0.5,0.1h-7.6C57.1,335.2,56.9,335.1,56.8,335z"/>
		<path class="st2" d="M67.2,335c-0.1-0.1-0.2-0.3-0.2-0.5v-11c0-0.2,0-0.4,0.2-0.5c0.1-0.1,0.3-0.2,0.5-0.2h1
			c0.3-0.1,0.6,0.2,0.7,0.5c0,0.1,0,0.1,0,0.2v11c0,0.2,0,0.4-0.2,0.5c-0.1,0.1-0.3,0.2-0.5,0.2h-1C67.6,335.2,67.4,335.1,67.2,335z
			"/>
		<path class="st2" d="M72.9,333.7c-2.3-2.8-2.3-6.8,0-9.5c1.3-1.2,3-1.8,4.8-1.7c0.8,0,1.6,0.1,2.3,0.2c0.6,0.1,1.2,0.4,1.8,0.7
			c0.1,0,0.2,0.1,0.2,0.2c0,0.1,0,0.2-0.1,0.2l-0.5,0.9c0,0.1-0.1,0.1-0.2,0.2c-0.1,0-0.2,0-0.2-0.1c-0.9-0.5-1.9-0.7-2.9-0.7
			c-1.2-0.1-2.4,0.4-3.2,1.2c-0.9,1-1.3,2.3-1.2,3.6c-0.1,1.3,0.3,2.6,1.2,3.6c0.8,0.8,2,1.2,3.1,1.2c0.5,0,0.9,0,1.4-0.1
			c0.4-0.1,0.8-0.2,1.1-0.3v-3.4h-2.4c-0.2,0-0.4,0-0.5-0.2c-0.1-0.1-0.2-0.3-0.2-0.5v-0.5c0-0.2,0-0.3,0.2-0.5
			c0.1-0.1,0.3-0.2,0.5-0.1h3.8c0.2,0,0.4,0.1,0.6,0.2c0.1,0.2,0.2,0.4,0.2,0.6v4.8c0,0.1,0,0.3-0.1,0.4c0,0.1-0.1,0.2-0.2,0.2
			c-1.4,0.8-3,1.1-4.5,1C75.9,335.5,74.2,334.9,72.9,333.7z"/>
		<path class="st2" d="M84.4,335c-0.1-0.1-0.2-0.3-0.2-0.5v-11c0-0.2,0-0.4,0.2-0.5c0.1-0.1,0.3-0.2,0.5-0.2h1c0.2,0,0.4,0,0.5,0.2
			c0.1,0.1,0.2,0.3,0.2,0.5v4.5h6v-4.6c0-0.2,0-0.4,0.2-0.5c0.1-0.1,0.3-0.2,0.5-0.2h0.9c0.2,0,0.4,0,0.5,0.2
			c0.1,0.1,0.2,0.3,0.2,0.5v11c0,0.2,0,0.4-0.2,0.5c-0.2,0.1-0.3,0.2-0.5,0.2h-0.9c-0.2,0-0.4,0-0.5-0.2c-0.1-0.1-0.2-0.3-0.2-0.5
			v-4.7h-6v4.7c0,0.2-0.1,0.4-0.2,0.6c-0.2,0.1-0.3,0.2-0.5,0.2h-1C84.7,335.2,84.5,335.1,84.4,335z"/>
		<path class="st2" d="M100.2,335c-0.1-0.1-0.2-0.3-0.2-0.5v-9.9h-3.2c-0.2,0-0.4,0-0.5-0.1c-0.1-0.1-0.1-0.3-0.1-0.5v-0.5
			c0-0.2,0-0.4,0.1-0.5c0.1-0.1,0.3-0.2,0.5-0.1h8.7c0.2,0,0.4,0,0.5,0.1c0.1,0.1,0.2,0.3,0.1,0.5v0.5c0,0.2,0,0.3-0.1,0.5
			c-0.1,0.1-0.3,0.2-0.5,0.1h-3.2v9.9c0,0.2,0,0.4-0.2,0.5c-0.2,0.1-0.3,0.2-0.5,0.2h-0.9C100.6,335.2,100.4,335.1,100.2,335z"/>
		<path class="st2" d="M116,333.7c-2.1-2.8-2.1-6.7,0-9.5c2.7-2.2,6.5-2.2,9.2,0c2.1,2.8,2.1,6.7,0,9.5
			C122.5,335.9,118.6,335.9,116,333.7z M123.5,332.5c1.3-2.2,1.3-4.9,0-7c-1.6-1.6-4.2-1.6-5.8,0c-1.3,2.2-1.3,4.9,0,7
			C119.3,334.1,121.9,334.1,123.5,332.5C123.5,332.5,123.5,332.5,123.5,332.5z"/>
		<path class="st2" d="M128.7,335c-0.1-0.1-0.2-0.3-0.2-0.5v-11c0-0.2,0-0.4,0.2-0.5c0.1-0.1,0.3-0.2,0.5-0.2h7.6
			c0.2,0,0.4,0,0.5,0.1c0.1,0.1,0.2,0.3,0.1,0.5v0.5c0,0.2,0,0.4-0.1,0.5c-0.1,0.1-0.3,0.2-0.5,0.2h-5.9v3.5h4.3
			c0.2,0,0.4,0,0.5,0.1c0.1,0.1,0.2,0.3,0.1,0.5v0.5c0.1,0.3-0.1,0.6-0.4,0.6c-0.1,0-0.1,0-0.2,0h-4.3v4.6c0,0.3-0.2,0.6-0.5,0.7
			c-0.1,0-0.1,0-0.2,0h-1C129,335.2,128.8,335.1,128.7,335z"/>
		<path class="st2" d="M147.4,333.6c-2.8-2.6-3-7-0.4-9.9c1.4-1.5,3.4-2.4,5.5-2.2c0.8,0,1.7,0.1,2.5,0.3c0.7,0.1,1.3,0.4,1.9,0.8
			c0.1,0.1,0.2,0.2,0.2,0.3c0,0.1,0,0.2-0.1,0.3l-0.6,0.9c-0.1,0.1-0.1,0.2-0.2,0.2c-0.1,0-0.2,0-0.3-0.1c-1-0.5-2.1-0.8-3.2-0.7
			c-1.3-0.1-2.5,0.4-3.5,1.3c-0.9,1.1-1.4,2.4-1.2,3.8c-0.1,1.4,0.4,2.8,1.3,3.9c0.9,0.9,2.2,1.3,3.5,1.3c1.2,0,2.3-0.2,3.4-0.8
			c0.1,0,0.2-0.1,0.2-0.1c0.1,0,0.2,0.1,0.2,0.2l0.6,1c0,0.1,0.1,0.1,0.1,0.2c0,0.1-0.1,0.2-0.2,0.3c-1.4,0.8-3,1.2-4.6,1.1
			C150.7,335.5,148.8,334.9,147.4,333.6z"/>
		<path class="st2" d="M162.1,334.8c-1.8-0.7-2.9-2.5-2.9-4.4v-7.9c-0.1-0.3,0.2-0.7,0.5-0.7c0.1,0,0.2,0,0.2,0h1
			c0.2,0,0.4,0,0.6,0.2c0.1,0.2,0.2,0.3,0.2,0.5v8c-0.1,0.9,0.3,1.7,0.9,2.3c1.5,1.1,3.6,1.1,5.1,0c0.6-0.6,1-1.4,0.9-2.3v-8
			c0-0.2,0-0.4,0.2-0.5c0.2-0.1,0.4-0.2,0.6-0.2h1c0.5,0,0.8,0.2,0.8,0.7v7.9c0,0.9-0.2,1.9-0.8,2.7c-0.5,0.8-1.3,1.4-2.1,1.7
			C166.2,335.6,164,335.6,162.1,334.8L162.1,334.8z"/>
		<path class="st2" d="M173.5,335c-0.1-0.2-0.2-0.3-0.2-0.5v-12c-0.1-0.3,0.1-0.7,0.5-0.7c0.1,0,0.2,0,0.2,0h5
			c1.3-0.1,2.6,0.3,3.6,1.1c1.6,1.9,1.6,4.6,0,6.5c-1,0.8-2.3,1.2-3.6,1.1h-3.2v3.8c0,0.2,0,0.4-0.2,0.5c-0.2,0.1-0.4,0.2-0.6,0.2
			h-1C173.9,335.2,173.7,335.1,173.5,335z M179,328.8c0.7,0.1,1.3-0.2,1.8-0.6c0.8-1.1,0.8-2.6,0-3.8c-0.5-0.4-1.1-0.7-1.8-0.6h-3.1
			v5L179,328.8z"/>
		<g>
			<defs>
				<path id="SVGID_1_" d="M55.4,44h129c13.7,0,24.8,11.1,24.8,24.8v192.3c0,13.7-11.1,24.8-24.8,24.8h-129
					c-13.7,0-24.8-11.1-24.8-24.8V68.8C30.6,55.1,41.7,44,55.4,44z"/>
			</defs>
			<clipPath id="SVGID_2_">
				<use xlink:href="#SVGID_1_"  style="overflow:visible;"/>
			</clipPath>
			<g class="st3">
				<path class="st4" d="M140.6,125.9c-0.8,0-1.4,0.6-1.4,1.4h2.8C141.9,126.5,141.3,125.9,140.6,125.9
					C140.6,125.9,140.6,125.9,140.6,125.9z"/>
				<path class="st5" d="M138.3,104.6C138.3,104.6,138.3,104.6,138.3,104.6L138.3,104.6z"/>
				<polygon class="st6" points="245.4,13 0,13 0,179.1 0,198.3 0,289.4 245.2,289.4 245.2,198.3 245.4,198.3 				"/>
				<polygon class="st7" points="92.9,104 117.9,94.5 154.5,109.8 83.3,109.8 				"/>
				<polygon class="st8" points="197,101.8 162.3,88.5 111.5,109.8 210.4,109.8 				"/>
				<path class="st9" d="M161.8,110.1h71.4c3.4,0,6.1-2.7,6.1-6.1l0,0c0-3.4-2.7-6.1-6.1-6.1h-71.4c-3.4,0-6.1,2.7-6.1,6.1l0,0
					C155.7,107.4,158.4,110.1,161.8,110.1z"/>
				<ellipse class="st9" cx="205.9" cy="95" rx="21.3" ry="15.1"/>
				<ellipse class="st9" cx="182.5" cy="99.3" rx="15.2" ry="10.8"/>
				<path class="st9" d="M100.3,114.1H10.1c-4.2,0-7.7-3.4-7.7-7.7l0,0c0-4.2,3.4-7.7,7.7-7.7h90.2c4.2,0,7.7,3.5,7.7,7.7l0,0
					C107.9,110.6,104.5,114,100.3,114.1z"/>
				<ellipse class="st9" cx="44.5" cy="94.9" rx="26.9" ry="19.1"/>
				<ellipse class="st9" cx="74.1" cy="100.4" rx="19.2" ry="13.6"/>
				<path class="st9" d="M77.4,204.5h-48c-3.4,0-6.2-2.8-6.2-6.2l0,0c0-3.4,2.8-6.2,6.2-6.2h48c3.4,0,6.2,2.8,6.2,6.2l0,0
					C83.6,201.7,80.8,204.5,77.4,204.5z"/>
				<circle class="st9" cx="47.3" cy="189.1" r="15.4"/>
				<circle class="st9" cx="64.2" cy="193.5" r="11"/>
				<path class="st10" d="M14.9,105.3h198.9c4.3,0,7.8,3.5,7.8,7.8v12.7c0,4.3-3.5,7.8-7.8,7.8H14.9c-4.3,0-7.8-3.5-7.8-7.8v-12.7
					C7.1,108.8,10.6,105.3,14.9,105.3z"/>
				<path class="st11" d="M127,108.8h-26.9c-0.4,0-0.8-0.3-0.8-0.8c0,0,0,0,0,0l0,0c0-0.4,0.3-0.8,0.8-0.8H127
					c0.4,0,0.8,0.3,0.8,0.8l0,0C127.8,108.4,127.5,108.8,127,108.8C127,108.8,127,108.8,127,108.8z"/>
				<path class="st11" d="M43.5,123h26.9c0.4,0,0.8,0.3,0.8,0.8v0c0,0.4-0.3,0.8-0.8,0.8H43.5c-0.4,0-0.8-0.3-0.8-0.8v0
					C42.8,123.3,43.1,123,43.5,123z"/>
				<path class="st11" d="M145.7,118.2h-26.9c-0.4,0-0.8-0.3-0.8-0.8l0,0c0-0.4,0.3-0.8,0.8-0.8c0,0,0,0,0,0h26.9
					c0.4,0,0.8,0.3,0.8,0.8l0,0C146.5,117.9,146.2,118.3,145.7,118.2z"/>
				<path class="st11" d="M180.8,113.7h-26.9c-0.4,0-0.8-0.3-0.8-0.8l0,0c0-0.4,0.3-0.8,0.7-0.8c0,0,0,0,0,0h26.9
					c0.4,0,0.8,0.3,0.8,0.7c0,0,0,0,0,0l0,0C181.6,113.4,181.2,113.7,180.8,113.7z"/>
				<path class="st11" d="M204.3,120.3h-26.9c-0.4,0-0.8-0.3-0.8-0.8l0,0c0-0.4,0.3-0.8,0.8-0.8h26.9c0.4,0,0.8,0.3,0.8,0.8l0,0
					C205,120,204.7,120.3,204.3,120.3z"/>
				<path class="st11" d="M216.4,115.3h-26.9c-0.4,0-0.8-0.3-0.8-0.8l0,0c0-0.4,0.3-0.8,0.8-0.8h26.9c0.4,0,0.8,0.3,0.8,0.8l0,0
					C217.1,115,216.8,115.3,216.4,115.3z"/>
				<path class="st11" d="M97.4,112.3H70.5c-0.4,0-0.8-0.3-0.8-0.8c0,0,0,0,0,0l0,0c0-0.4,0.3-0.8,0.8-0.8h26.9
					c0.4,0,0.8,0.3,0.8,0.8l0,0C98.2,112,97.8,112.3,97.4,112.3C97.4,112.3,97.4,112.3,97.4,112.3z"/>
				<path class="st11" d="M52.8,116.9H25.9c-0.4,0-0.8-0.3-0.8-0.8l0,0l0,0c0-0.4,0.3-0.8,0.8-0.8h26.9c0.4,0,0.8,0.3,0.8,0.8l0,0
					C53.5,116.5,53.2,116.9,52.8,116.9L52.8,116.9z"/>
				<path class="st11" d="M42.6,110.1H15.7c-0.4,0-0.8-0.3-0.8-0.8l0,0c0-0.4,0.3-0.7,0.8-0.8h26.9c0.4,0,0.7,0.3,0.8,0.8l0,0
					C43.4,109.7,43,110,42.6,110.1z"/>
				<path class="st11" d="M103.2,118.9H76.4c-0.4,0-0.7-0.3-0.8-0.8l0,0c0-0.4,0.3-0.8,0.8-0.8h26.9c0.4,0,0.8,0.3,0.8,0.8l0,0
					C104,118.6,103.7,118.9,103.2,118.9C103.3,118.9,103.3,118.9,103.2,118.9z"/>
				<path class="st11" d="M115.9,126.5H89c-0.4,0-0.8-0.3-0.8-0.8l0,0c0-0.4,0.3-0.8,0.8-0.8c0,0,0,0,0,0h26.9
					c0.4,0,0.8,0.3,0.8,0.8c0,0,0,0,0,0l0,0C116.7,126.2,116.3,126.5,115.9,126.5z"/>
				<rect x="23" y="121.4" class="st12" width="206.6" height="170.2"/>
				<rect x="89.3" y="216.1" class="st13" width="109" height="7.8"/>
				<rect x="89.3" y="211" class="st12" width="109" height="5.3"/>
				<rect x="99.4" y="203.6" class="st13" width="97.7" height="7"/>
				<rect x="99.4" y="199" class="st12" width="97.7" height="4.7"/>
				<rect x="107.9" y="193" class="st13" width="86.2" height="6.2"/>
				<rect x="107.9" y="188.9" class="st12" width="86.2" height="4.2"/>
				<rect x="119.7" y="183.7" class="st13" width="70.7" height="5.1"/>
				<rect x="119.7" y="180.4" class="st12" width="70.7" height="3.4"/>
				<rect x="125.5" y="176.2" class="st13" width="60.4" height="4.3"/>
				<rect x="125.5" y="173.3" class="st12" width="60.4" height="2.9"/>
				<rect x="150.8" y="164.9" class="st13" width="35.1" height="2.5"/>
				<rect x="150.8" y="163.2" class="st12" width="35.1" height="1.7"/>
				<rect x="154.5" y="161.4" class="st13" width="35.1" height="2"/>
				<rect x="154.5" y="160.1" class="st12" width="35.1" height="1.4"/>
				<rect x="159" y="158.3" class="st13" width="35.1" height="1.8"/>
				<rect x="159" y="157.1" class="st12" width="35.1" height="1.2"/>
				<rect x="161.8" y="155.8" class="st13" width="35.1" height="1.4"/>
				<rect x="161.8" y="154.9" class="st12" width="35.1" height="1"/>
				<rect x="163.1" y="153.9" class="st13" width="35.1" height="1.1"/>
				<rect x="163.1" y="153.1" class="st12" width="35.1" height="0.8"/>
				<rect x="164.6" y="152.2" class="st13" width="35.1" height="0.9"/>
				<rect x="165.3" y="150.2" class="st13" width="35.1" height="0.9"/>
				<rect x="166.8" y="148.5" class="st13" width="35.1" height="0.6"/>
				<rect x="169.8" y="146.3" class="st13" width="35.1" height="0.6"/>
				<rect x="171.1" y="144.6" class="st13" width="35.1" height="0.6"/>
				<rect x="173.5" y="142.6" class="st13" width="35.1" height="0.6"/>
				<rect x="175.8" y="141" class="st13" width="35.1" height="0.6"/>
				<rect x="177" y="139.8" class="st13" width="35.1" height="0.6"/>
				<rect x="177.9" y="138.7" class="st13" width="35.1" height="0.6"/>
				<rect x="178.9" y="137.4" class="st13" width="35.1" height="0.6"/>
				<rect x="164.6" y="151.6" class="st12" width="35.1" height="0.6"/>
				<rect x="138.4" y="169.7" class="st13" width="49.5" height="3.5"/>
				<rect x="138.4" y="167.4" class="st12" width="49.5" height="2.4"/>
				<polygon class="st14" points="177,20.1 19.9,20.1 19.9,186.2 19.9,205.4 19.9,296.5 176.9,296.5 176.9,205.4 177,205.4 				"/>
				<path class="st15" d="M95.4,67.9c0,2.5-1.7,4.7-4.1,5.4c0.6,0.2,1.1,0.2,1.7,0.2c3.1-0.1,5.6-2.6,5.5-5.7s-2.6-5.6-5.7-5.5
					c-0.5,0-1,0.1-1.5,0.2C93.7,63.2,95.4,65.4,95.4,67.9z"/>
				<rect x="38.2" y="264.1" class="st13" width="137.7" height="24.9"/>
				<rect x="38.2" y="256.3" class="st12" width="137.7" height="13.3"/>
				<rect x="42.4" y="245.7" class="st13" width="137.7" height="9.9"/>
				<rect x="42.4" y="239.2" class="st12" width="137.7" height="6.7"/>
				<rect x="61" y="229.8" class="st13" width="123.9" height="8.9"/>
				<rect x="61" y="224" class="st12" width="123.9" height="6"/>
				<path class="st15" d="M57.8,67.9c0,0.3-0.2,0.5-0.5,0.5s-0.5-0.2-0.5-0.5s0.2-0.5,0.5-0.5S57.8,67.6,57.8,67.9z"/>
				<path class="st15" d="M101.3,89.5c-0.5,0.1-0.9-0.3-0.9-0.7s0.3-0.9,0.7-0.9c0.1,0,0.1,0,0.2,0"/>
				<circle class="st15" cx="131.5" cy="89.5" r="0.4"/>
				<path class="st15" d="M158.2,84.9c0,0.5-0.4,0.9-0.9,0.9c-0.5,0-0.9-0.4-0.9-0.9c0-0.5,0.4-0.9,0.9-0.9l0,0
					C157.7,84,158.2,84.4,158.2,84.9z"/>
				<path class="st15" d="M122.2,64.1c0,0.2-0.2,0.4-0.4,0.4c-0.2,0-0.4-0.1-0.5-0.3c0-0.2,0.1-0.4,0.3-0.5c0,0,0.1,0,0.1,0
					C122,63.7,122.2,63.9,122.2,64.1L122.2,64.1z"/>
				<path class="st15" d="M77.4,64.9c0,0.3-0.2,0.5-0.5,0.5s-0.5-0.2-0.5-0.5s0.2-0.5,0.5-0.5S77.4,64.6,77.4,64.9z"/>
				<path class="st16" d="M30.4,256.1c0,0,155.5-125.2,179.5-135.6H26.8v140.3L30.4,256.1z"/>
				<path class="st15" d="M185.8,67.7c0,0.4-0.3,0.7-0.7,0.7c-0.4,0-0.7-0.3-0.7-0.7c0-0.4,0.3-0.7,0.7-0.7l0,0
					C185.5,67.1,185.8,67.3,185.8,67.7C185.8,67.7,185.8,67.7,185.8,67.7z"/>
				<path class="st15" d="M114.7,79.4c0,0.3-0.2,0.5-0.5,0.5s-0.5-0.2-0.5-0.5s0.2-0.5,0.5-0.5l0,0
					C114.5,78.9,114.7,79.1,114.7,79.4z"/>
				<polygon class="st17" points="38.8,289.8 196,132.1 199.8,123.8 23.6,218.9 20.9,291.6 				"/>
				<path class="st18" d="M161.4,291.6c0,0,12.2-167.6,60.4-195.5v198.2L161.4,291.6z"/>
				<path class="st19" d="M55.7,134.2H135c1.2,0,2.2,1,2.2,2.2v0.3c0,1.2-1,2.2-2.2,2.2H55.7c-1.2,0-2.2-1-2.2-2.2v-0.3
					C53.5,135.2,54.5,134.2,55.7,134.2z"/>
				<path class="st20" d="M151.1,267.7h-28.6c-1.4,0-2.6-1.2-2.6-2.6l0,0c0-1.4,1.1-2.6,2.6-2.6h28.6c1.4,0,2.6,1.2,2.6,2.6l0,0
					C153.6,266.5,152.5,267.7,151.1,267.7z"/>
				<path class="st15" d="M74.4,118.6v5.7c-0.1,2.6,1.8,4.9,4.4,5.4v4.1l-2.2,1.6c0,0,0.6,0.5,3.1,0.5l0,0c2.5,0,3.1-0.5,3.1-0.5
					l-2.2-1.6v-4.1c2.5-0.5,4.4-2.8,4.4-5.3v-5.7L74.4,118.6z"/>
				<path class="st15" d="M56.7,118.6v5.7c-0.1,2.6,1.8,4.9,4.4,5.4v4.1l-2.2,1.6c0,0,0.6,0.5,3.1,0.5l0,0c2.5,0,3.1-0.5,3.1-0.5
					l-2.2-1.6v-4.1c2.5-0.5,4.4-2.8,4.4-5.3v-5.7L56.7,118.6z"/>
				<path class="st15" d="M123.5,118.6v5.7c-0.1,2.6,1.8,4.9,4.4,5.4v4.1l-2.2,1.6c0,0,0.6,0.5,3.1,0.5l0,0c2.5,0,3.1-0.5,3.1-0.5
					l-2.2-1.6v-4.1c2.5-0.5,4.4-2.8,4.4-5.3v-5.7L123.5,118.6z"/>
				<path class="st15" d="M82.7,101.9v5.7c-0.1,2.6,1.8,4.9,4.4,5.4v4.1l-2.2,1.6c0,0,0.6,0.5,3.1,0.5l0,0c2.5,0,3.1-0.5,3.1-0.5
					l-2.2-1.6V113c2.5-0.5,4.4-2.8,4.3-5.3V102L82.7,101.9z"/>
				<path class="st15" d="M90.9,118.6v5.7c0,2.6,1.8,4.9,4.4,5.4v4.1l-2.2,1.6c0,0,0.6,0.5,3.1,0.5l0,0c2.5,0,3.1-0.5,3.1-0.5
					l-2.2-1.6v-4.1c2.5-0.5,4.3-2.8,4.3-5.4v-5.7L90.9,118.6z"/>
				<path class="st15" d="M90.9,85.2v5.7c0,2.6,1.8,4.9,4.4,5.4v4.1l-2.2,1.6c0,0,0.6,0.5,3.1,0.5l0,0c2.5,0,3.1-0.5,3.1-0.5
					l-2.2-1.6v-4.1c2.5-0.5,4.3-2.7,4.3-5.3v-5.7L90.9,85.2z"/>
				<path class="st15" d="M99.2,101.9v5.7c-0.1,2.6,1.8,4.9,4.4,5.4v4.1l-2.2,1.6c0,0,0.6,0.5,3.1,0.5l0,0c2.5,0,3.1-0.5,3.1-0.5
					l-2.2-1.6V113c2.5-0.5,4.4-2.8,4.4-5.3V102L99.2,101.9z"/>
				<path class="st15" d="M107.4,118.6v5.7c0,2.6,1.8,4.9,4.4,5.4v4.1l-2.2,1.6c0,0,0.6,0.5,3.1,0.5l0,0c2.5,0,3.1-0.5,3.1-0.5
					l-2.2-1.6v-4.1c2.5-0.5,4.4-2.8,4.3-5.3v-5.7L107.4,118.6z"/>
				<rect x="118.1" y="172.3" class="st21" width="27.6" height="14.5"/>
				<path class="st15" d="M150.6,206.3c0.5-11-10.7-19.4-11.2-19.8c-1.2-0.8-2.8-0.6-3.6,0.6s-0.6,2.8,0.6,3.6
					c0.2,0.1,0.4,0.3,0.6,0.5c1.7-0.8,2.8-2.4,3-4.2c1.9,2.1,3,4.9,3,7.8v3.2c1.6,2.4,2.5,5.2,2.5,8.1c-0.2,2.3-1,4.5-2.4,6.3
					c0.1,2.4,0.3,4.8,0.5,7.1C148,215.5,150.4,211.1,150.6,206.3z"/>
				<path class="st22" d="M119.6,189h0.8c1.3,0,2.4,1.1,2.4,2.4v30.2c0,1.3-1.1,2.4-2.4,2.4h-0.8c-1.3,0-2.4-1.1-2.4-2.4v-30.2
					C117.2,190.1,118.3,189,119.6,189z"/>
				<rect x="118.1" y="158" class="st23" width="26.4" height="46.9"/>
				<path class="st5" d="M131.7,259.9l0.6-4.2l0.5-3.6l1.9-14c0.3-2.1-0.7-3.9-2.2-4.1s-2.9,1.3-3.2,3.4l-2,14l-0.5,3.6l-0.7,4.9
					c0,0,0,0.1,0,0.1l-2,0.3c-0.4,0.1-0.7,0.3-1,0.6l-0.5,0.6c-1.1,1.3-0.7,3.7,0.7,3.9l6.5,0.9c0.9,0.1,1.8-0.8,1.9-2l0.3-2.5
					C132.2,261.2,132.1,260.5,131.7,259.9z"/>
				<rect x="125.5" y="180.5" class="st24" width="10.6" height="3.7"/>
				<path class="st15" d="M130.3,179h0.6c1,0,1.9,0.8,1.9,1.9v4.5c0,1-0.8,1.9-1.9,1.9h-0.6c-1,0-1.9-0.8-1.9-1.9v-4.5
					C128.4,179.9,129.2,179,130.3,179z"/>
				<path class="st22" d="M146.3,249.2l-2.5-3.2l-2.2-2.7l-8.5-10.6c-1.3-1.6-3.2-2.1-4.3-1.2c-1.1,0.9-1,2.9,0.2,4.5l8.5,10.6
					l2.2,2.7l2.9,3.7l0.1,0.1l-1.1,1.6c-0.2,0.3-0.3,0.7-0.2,1l0.1,0.7c0.2,1.7,2.1,3,3.2,2.1l4.9-3.9c0.6-0.8,0.6-1.9-0.1-2.6
					l-1.5-1.8C147.5,249.7,146.9,249.3,146.3,249.2z"/>
				<path class="st15" d="M131.1,192.7c4.8,0,8.7-2.5,8.8-5.7c-2.2-2.4-5.3-3.8-8.6-3.9l0,0c-3.5,0-6.8,1.5-9,4.2
					C122.7,190.3,126.5,192.7,131.1,192.7z"/>
				<path class="st9" d="M124.1,214.1h14.6c2.5,0,4.5,2,4.5,4.5v19.3c0,8.8-7.1,15.9-15.9,15.9l0,0h-3.3c-2.5,0-4.5-2-4.5-4.5v-30.6
					C119.6,216.2,121.6,214.1,124.1,214.1C124.1,214.1,124.1,214.1,124.1,214.1z"/>
				<path class="st9" d="M143,212.4c0,0,0.1-0.1,0.1-0.1c0-1.2-0.1-2.5-0.1-3.7l-15.6,45.2c0,0,15.4-0.4,22-8.6
					c-3-8.3-4.9-17-5.8-25.8l-0.6,0.5L143,212.4z"/>
				<path class="st15" d="M143,212.4v7.4l0.6-0.5c-0.2-2.3-0.4-4.6-0.5-7.1C143,212.4,143,212.4,143,212.4z"/>
				<path class="st14" d="M145.4,206.1c0-2.9-0.9-5.7-2.5-8.1v14.5C144.4,210.6,145.3,208.4,145.4,206.1z"/>
				<path class="st9" d="M136.3,224c-1.4,0-2.6-1.1-2.6-2.6c0-0.9,0.5-1.8,1.3-2.2c3.1-1.7,5.8-4,8-6.8V198c-1.6-2.6-3.7-4.8-6-6.8
					c-1.8,1-3.8,1.5-5.9,1.5c-4.6,0-8.4-2.3-8.8-5.3c-1.8,2.1-2.7,4.7-2.7,7.5v38.7c0,6.4,5.2,11.7,11.7,11.7l0,0
					c6.4,0,11.7-5.2,11.7-11.7v-13.6c-1.7,1.4-3.5,2.7-5.4,3.8C137.2,223.9,136.7,224,136.3,224z"/>
				<path class="st15" d="M134.9,219.2c-1.2,0.7-1.6,2.3-0.9,3.5c0.5,0.8,1.3,1.3,2.2,1.3c0.5,0,0.9-0.1,1.3-0.4
					c1.9-1.1,3.7-2.4,5.4-3.8v-7.4C140.8,215.2,138,217.5,134.9,219.2z"/>
				<path class="st9" d="M143,198v-3.2c0-2.9-1.1-5.7-3-7.8c-0.2,1.8-1.3,3.4-3,4.2C139.3,193.2,141.3,195.4,143,198z"/>
				<path class="st23" d="M143.2,204.8L143.2,204.8c-4.5,0-8.2-3.7-8.2-8.2l0,0V179h8.2V204.8z"/>
				<path class="st23" d="M119.4,204.8L119.4,204.8V179h7.6v18.2C127,201.4,123.6,204.8,119.4,204.8
					C119.4,204.8,119.4,204.8,119.4,204.8z"/>
				<path class="st15" d="M121.8,170.8c0,1.3-1.1,2.4-2.4,2.4c-1.3,0-2.4-1.1-2.4-2.4c0-1.3,1.1-2.4,2.4-2.4
					C120.7,168.4,121.8,169.4,121.8,170.8L121.8,170.8z"/>
				<path class="st22" d="M120.9,170.8c0,0.9-0.7,1.6-1.6,1.6s-1.6-0.7-1.6-1.6c0-0.9,0.7-1.6,1.6-1.6c0,0,0,0,0,0
					C120.2,169.2,120.9,169.9,120.9,170.8z"/>
				<path class="st15" d="M143.6,170.8c0,1.3-1.1,2.4-2.4,2.4c-1.3,0-2.4-1.1-2.4-2.4c0-1.3,1.1-2.4,2.4-2.4
					S143.6,169.4,143.6,170.8L143.6,170.8z"/>
				<path class="st22" d="M142.8,170.8c0,0.9-0.7,1.6-1.6,1.6c-0.9,0-1.6-0.7-1.6-1.6c0-0.9,0.7-1.6,1.6-1.6c0,0,0,0,0,0
					C142.1,169.2,142.8,169.9,142.8,170.8C142.8,170.8,142.8,170.8,142.8,170.8z"/>
				<path class="st22" d="M130.5,181.8L130.5,181.8c-6,0-10.8-4.8-10.8-10.8v-4.5c0-6,4.8-10.8,10.8-10.8l0,0
					c6,0,10.8,4.8,10.8,10.8v4.6C141.3,176.9,136.5,181.7,130.5,181.8z"/>
				<path class="st15" d="M130.5,181.2L130.5,181.2c-6,0-10.8-4.8-10.8-10.8v-4.5c0-6,4.8-10.8,10.8-10.8l0,0
					c6,0,10.8,4.8,10.8,10.8v4.5C141.3,176.3,136.5,181.2,130.5,181.2z"/>
				<path class="st25" d="M135.5,173.4L135.5,173.4c-0.8,0-1.4-0.6-1.4-1.4c0,0,0,0,0,0v-2.5c0-0.8,0.6-1.4,1.4-1.4c0,0,0,0,0,0l0,0
					c0.8,0,1.4,0.6,1.4,1.4v2.5C136.9,172.8,136.3,173.4,135.5,173.4C135.5,173.4,135.5,173.4,135.5,173.4z"/>
				<path class="st25" d="M125.5,173.4L125.5,173.4c-0.8,0-1.4-0.6-1.4-1.4l0,0v-2.5c0-0.8,0.6-1.4,1.4-1.4l0,0l0,0
					c0.8,0,1.4,0.6,1.4,1.4v2.5C126.9,172.8,126.3,173.4,125.5,173.4C125.6,173.4,125.6,173.4,125.5,173.4z"/>
				<path class="st22" d="M130.5,173.1h-0.8c0-0.4,0.4-0.8,0.8-0.8c0.4,0,0.8,0.4,0.8,0.8H130.5z"/>
				<path class="st23" d="M133.1,166h4.3c0.3,0,0.6,0.3,0.6,0.6v0.2c0,0.3-0.3,0.6-0.6,0.6h-4.3c-0.3,0-0.6-0.3-0.6-0.6v-0.2
					C132.5,166.3,132.8,166,133.1,166z"/>
				<path class="st23" d="M123.6,166h4.3c0.3,0,0.6,0.3,0.6,0.6v0.2c0,0.3-0.3,0.6-0.6,0.6h-4.3c-0.3,0-0.6-0.3-0.6-0.6v-0.2
					C123,166.3,123.3,166,123.6,166z"/>
				<path class="st22" d="M132.4,175.4h-3.7c-0.2,0-0.3-0.1-0.3-0.3l0,0c0-0.2,0.1-0.3,0.3-0.3h3.7c0.2,0,0.3,0.1,0.3,0.3l0,0
					C132.7,175.3,132.6,175.4,132.4,175.4z"/>
				<path class="st23" d="M141.2,164.1h-21.4c-3.6,0-6.5-2.9-6.5-6.5l0,0c0-3.6,2.9-6.5,6.5-6.5h21.4c3.6,0,6.5,2.9,6.5,6.5l0,0
					C147.8,161.1,144.8,164,141.2,164.1z"/>
				<path class="st11" d="M135,112.6h-6.6c-0.3,0-0.5-0.2-0.5-0.5l0,0c0-0.3,0.2-0.5,0.5-0.5c0,0,0,0,0,0h6.6c0.3,0,0.5,0.2,0.5,0.5
					c0,0,0,0,0,0l0,0C135.5,112.3,135.3,112.6,135,112.6C135,112.6,135,112.6,135,112.6z"/>
				<path class="st11" d="M154.3,108.5h-5.8c-0.2,0-0.4-0.2-0.4-0.4l0,0c0-0.2,0.2-0.4,0.4-0.4h5.8c0.2,0,0.4,0.2,0.4,0.4l0,0
					C154.7,108.3,154.5,108.5,154.3,108.5z"/>
				<path class="st11" d="M189.1,108.2h-4.4c-0.2,0-0.4-0.2-0.4-0.4l0,0l0,0c0-0.2,0.2-0.4,0.4-0.4h4.4c0.2,0,0.4,0.2,0.4,0.4l0,0
					C189.5,108,189.3,108.2,189.1,108.2L189.1,108.2z"/>
			</g>
		</g>
	</g>
</g>
</svg>
