<svg xmlns="http://www.w3.org/2000/svg" xmlns:xlink="http://www.w3.org/1999/xlink" viewBox="0 0 235.04 381.18"><defs><style>.cls-1{fill:none;}.cls-2{fill:#f4b155;}.cls-3{fill:#fff0cc;}.cls-4{fill:#231f20;}.cls-5{clip-path:url(#clip-path);}.cls-6{fill:#a7f1f9;}.cls-7{fill:#789b78;}.cls-8{fill:#79b27b;}.cls-9{fill:#fff;}.cls-10{fill:#67d8db;}.cls-11{fill:#81efef;}.cls-12{fill:#b7376c;}.cls-13{fill:#ff8f33;}.cls-14{fill:#f5b155;}.cls-15{fill:#ffbd52;}.cls-16{fill:#ffd351;}.cls-17{fill:#ffa73e;}.cls-18{fill:#f9fafb;}.cls-19{fill:#e6705f;}.cls-20{fill:#f49e40;}.cls-21{fill:#3a335f;}.cls-22{fill:#dd4f65;}.cls-23{fill:#f1f2f2;}.cls-24{fill:#ffd150;}.cls-25{fill:#414042;}.cls-26{fill:#f2c351;}.cls-27{fill:#ce6357;}.cls-28{fill:#d6306a;}.cls-29{fill:#ffebbd;}.cls-30{fill:#f2deb1;}.cls-31{fill:#f9e7bb;}.cls-32{fill:#ef8bb1;}</style><clipPath id="clip-path"><rect class="cls-1" x="28.69" y="46.66" width="178.55" height="241.88" rx="24.79"/></clipPath></defs><g id="Layer_2" data-name="Layer 2"><g id="Layer_1-2" data-name="Layer 1"><path class="cls-2" d="M235,14.45V366.73c0,8-6.73,14.45-15,14.45H15c-8.26,0-15-6.48-15-14.45V14.45C0,6.48,6.73,0,15,0H220C228.31,0,235,6.48,235,14.45Zm-12.6,343.89V22.83A10.83,10.83,0,0,0,211.62,12H23.42A10.83,10.83,0,0,0,12.6,22.83V358.34a10.83,10.83,0,0,0,10.82,10.82h188.2A10.83,10.83,0,0,0,222.44,358.34Z"/><rect class="cls-3" x="12.6" y="12.02" width="209.84" height="357.15" rx="10.82"/><path class="cls-4" d="M58.42,335a.68.68,0,0,1-.16-.5V323a.6.6,0,0,1,.71-.69h.87a.94.94,0,0,1,.41.07.85.85,0,0,1,.3.3l6.21,8.61V323a.75.75,0,0,1,.15-.52.7.7,0,0,1,.54-.17h1a.7.7,0,0,1,.54.17.67.67,0,0,1,.17.52v11.42a.68.68,0,0,1-.16.5.7.7,0,0,1-.55.17h-.89a1,1,0,0,1-.39-.06.93.93,0,0,1-.3-.3l-6.21-8.59v8.28a.68.68,0,0,1-.16.5.7.7,0,0,1-.55.17H59A.66.66,0,0,1,58.42,335Z"/><path class="cls-4" d="M71.54,335a.68.68,0,0,1-.16-.5V323a.6.6,0,0,1,.7-.69h1a.73.73,0,0,1,.55.17.71.71,0,0,1,.17.52v11.42a.6.6,0,0,1-.72.67h-1A.7.7,0,0,1,71.54,335Z"/><path class="cls-4" d="M76.17,335a.68.68,0,0,1-.16-.5V323a.6.6,0,0,1,.71-.69h.86a1,1,0,0,1,.42.07.85.85,0,0,1,.3.3l6.2,8.61V323a.75.75,0,0,1,.16-.52.7.7,0,0,1,.54-.17h1a.61.61,0,0,1,.71.69v11.42a.68.68,0,0,1-.16.5.71.71,0,0,1-.55.17h-.89a1,1,0,0,1-.39-.06.93.93,0,0,1-.3-.3l-6.21-8.59v8.28a.68.68,0,0,1-.16.5.7.7,0,0,1-.55.17h-1A.66.66,0,0,1,76.17,335Z"/><path class="cls-4" d="M89.29,335a.68.68,0,0,1-.16-.5V323a.7.7,0,0,1,.16-.52.69.69,0,0,1,.54-.17h7.82a.67.67,0,0,1,.51.15.7.7,0,0,1,.15.5v.51a.75.75,0,0,1-.15.52.64.64,0,0,1-.51.16H91.54v3.65H96a.75.75,0,0,1,.53.15.71.71,0,0,1,.15.51V329a.73.73,0,0,1-.15.52.7.7,0,0,1-.53.16H91.54v3.67h6.09a.67.67,0,0,1,.52.16.7.7,0,0,1,.16.52v.5a.63.63,0,0,1-.16.49.72.72,0,0,1-.52.15h-7.8A.69.69,0,0,1,89.29,335Z"/><path class="cls-4" d="M108.58,333.66a8.15,8.15,0,0,1,0-9.86,7.35,7.35,0,0,1,9.52,0,8.07,8.07,0,0,1,0,9.86,7.38,7.38,0,0,1-9.52,0Zm7.78-1.27a7,7,0,0,0,0-7.31,4.29,4.29,0,0,0-6,0,6.94,6.94,0,0,0,0,7.31,4.26,4.26,0,0,0,6,0Z"/><path class="cls-4" d="M121.78,335a.68.68,0,0,1-.16-.5V323a.6.6,0,0,1,.7-.69h7.82a.67.67,0,0,1,.51.15.7.7,0,0,1,.15.5v.51a.75.75,0,0,1-.15.52.64.64,0,0,1-.51.16H124v3.63h4.43a.73.73,0,0,1,.53.15.71.71,0,0,1,.15.51v.5a.75.75,0,0,1-.15.52.69.69,0,0,1-.53.16H124v4.8a.6.6,0,0,1-.72.67h-1A.7.7,0,0,1,121.78,335Z"/><path class="cls-4" d="M141.08,333.61a7,7,0,0,1,5.11-12.14,10.15,10.15,0,0,1,2.47.28,6.18,6.18,0,0,1,1.93.78.34.34,0,0,1,.17.26.48.48,0,0,1-.1.27l-.55.94c-.07.12-.15.18-.21.18a.72.72,0,0,1-.28-.1,6.11,6.11,0,0,0-3.16-.74,4.67,4.67,0,0,0-3.48,1.27,5.3,5.3,0,0,0-1.25,3.83A5.18,5.18,0,0,0,143,332.3a4.78,4.78,0,0,0,3.5,1.27,6.63,6.63,0,0,0,3.36-.77.83.83,0,0,1,.25-.09c.08,0,.16.06.24.17l.61,1a.49.49,0,0,1,.06.2c0,.08-.08.16-.22.26a8.07,8.07,0,0,1-4.58,1.06A7.05,7.05,0,0,1,141.08,333.61Z"/><path class="cls-4" d="M155.69,334.82a4.62,4.62,0,0,1-2.85-4.41v-7.92a.79.79,0,0,1,.17-.55.74.74,0,0,1,.56-.17h1a.78.78,0,0,1,.57.17.74.74,0,0,1,.18.55v8a2.92,2.92,0,0,0,.89,2.31,4.53,4.53,0,0,0,5.11,0,2.92,2.92,0,0,0,.89-2.31v-8a.74.74,0,0,1,.18-.55.78.78,0,0,1,.57-.17h1c.51,0,.77.24.77.72v7.92a4.7,4.7,0,0,1-.76,2.66,5,5,0,0,1-2.11,1.74,8.32,8.32,0,0,1-6.23,0Z"/><path class="cls-4" d="M167.17,335a.77.77,0,0,1-.17-.53V322.49a.79.79,0,0,1,.17-.55.74.74,0,0,1,.56-.17h5a4.89,4.89,0,0,1,3.58,1.15,5.17,5.17,0,0,1,0,6.55,4.93,4.93,0,0,1-3.58,1.13h-3.24v3.82a.77.77,0,0,1-.17.53.8.8,0,0,1-.58.17h-1A.78.78,0,0,1,167.17,335Zm5.47-6.25a2.37,2.37,0,0,0,1.79-.62,2.64,2.64,0,0,0,.59-1.87,2.67,2.67,0,0,0-.59-1.9,2.37,2.37,0,0,0-1.79-.62h-3.12v5Z"/><g class="cls-5"><rect class="cls-6" x="18.13" y="14.64" width="203.44" height="289.28"/><polygon class="cls-7" points="63.52 111.44 90.76 96.8 151.37 126.08 38.66 126.08 63.52 111.44"/><polygon class="cls-8" points="193.89 109.27 162.61 92.46 93.01 126.08 222.44 126.08 193.89 109.27"/><polyline class="cls-7" points="38.66 126.08 63.52 111.44 90.76 96.8"/><path class="cls-9" d="M84.31,131.21h-68a8.81,8.81,0,0,1-8.79-8.78h0a8.81,8.81,0,0,1,8.79-8.79h68a8.81,8.81,0,0,1,8.79,8.79h0A8.81,8.81,0,0,1,84.31,131.21Z"/><circle class="cls-9" cx="41.64" cy="109.38" r="21.83" transform="translate(-73.36 131.14) rotate(-79.87)"/><circle class="cls-9" cx="65.65" cy="115.66" r="15.56" transform="matrix(0.16, -0.99, 0.99, 0.16, -59.07, 161.83)"/><path class="cls-9" d="M164.58,131.21h46.65a6,6,0,0,0,6-6h0a6,6,0,0,0-6-6H164.58a6,6,0,0,0-6,6h0A6,6,0,0,0,164.58,131.21Z"/><circle class="cls-9" cx="193.85" cy="116.24" r="14.97"/><path class="cls-9" d="M166.71,120.54a10.67,10.67,0,1,0,10.67-10.67A10.67,10.67,0,0,0,166.71,120.54Z"/><rect class="cls-10" x="17.56" y="125.96" width="211.33" height="177.97"/><rect class="cls-1" x="32.8" y="14.64" width="174.11" height="289.28"/><rect class="cls-11" x="34.7" y="201.89" width="62.48" height="4.51" rx="1.95"/><rect class="cls-11" x="114.91" y="194.37" width="62.48" height="4.51" rx="1.95"/><rect class="cls-11" x="78.45" y="177.74" width="62.48" height="4.51" rx="1.95"/><rect class="cls-11" x="60.22" y="133.08" width="62.48" height="4.51" rx="1.95"/><rect class="cls-11" x="126.31" y="160.19" width="62.48" height="4.51" rx="1.95"/><rect class="cls-11" x="43.59" y="163.1" width="62.48" height="4.51" rx="1.95"/><rect class="cls-11" x="8.95" y="186.08" width="62.48" height="4.51" rx="1.95"/><rect class="cls-11" x="9.18" y="142.79" width="62.48" height="4.51" rx="1.95"/><path class="cls-12" d="M146.2,170.37s7.3-3.47,9.22-11l4.52,10.78S156.29,175.76,146.2,170.37Z"/><path class="cls-13" d="M71.72,161.67c-6.32,0-11.29-5-11.52-5.29a3.56,3.56,0,0,1,5.11-5c.08.08,4,3.9,7.54,3,3.07-.8,5.86-5.24,7.86-12.49a3.56,3.56,0,0,1,6.87,1.89c-2.78,10.13-7.15,16-13,17.52A11.57,11.57,0,0,1,71.72,161.67Z"/><path class="cls-13" d="M103.46,234.42v-47.3a4.37,4.37,0,1,0-8.74,0v48.09s0,.09,0,.14l-3.17.68a2.72,2.72,0,0,0-1.39.8l-.66.74a2.61,2.61,0,0,0,1.93,4.36h10.43a2.61,2.61,0,0,0,2.61-2.61v-2.84A2.57,2.57,0,0,0,103.46,234.42Z"/><path class="cls-14" d="M92.38,225.25V178a4.37,4.37,0,1,0-8.74,0V226c0,.05,0,.1,0,.15l-3.17.68a2.55,2.55,0,0,0-1.39.8l-.66.73a2.61,2.61,0,0,0,1.93,4.37H90.79a2.61,2.61,0,0,0,2.61-2.61v-2.84A2.59,2.59,0,0,0,92.38,225.25Z"/><path class="cls-15" d="M94.94,156.85l-3.42-9.48a.2.2,0,0,1,0-.11c-.15-.91-1.74-12.11,5.89-19.35,10.87-10.31,21.34-2.37,32.26-15.84a.63.63,0,0,1,1.12.41A22.44,22.44,0,0,1,127,124.64a.64.64,0,0,0,.89.88,17.21,17.21,0,0,0,4.18-4.24.63.63,0,0,1,1.16.35c0,3.46-1.3,10.43-9.88,15.78a.63.63,0,0,0,.43,1.16,27.8,27.8,0,0,0,7.6-2.33.63.63,0,0,1,.86.82c-1.21,2.83-4.86,8.84-14.7,11.61a.64.64,0,0,0,.12,1.25,23.27,23.27,0,0,0,11.14-2.29.63.63,0,0,1,.73,1c-5,5.31-17.95,16.38-34.24,8.58A.68.68,0,0,1,94.94,156.85Z"/><path class="cls-16" d="M105.14,155.2l.94-10s0-.07,0-.11c.26-.87,3.6-11.69,13.59-15,14.23-4.69,20.32,7,36-.57a.62.62,0,0,1,.83.83,22.46,22.46,0,0,1-8.69,9.45.62.62,0,0,0,.42,1.14,17,17,0,0,0,5.7-2.08.62.62,0,0,1,.88.79c-1.49,3.12-5.61,8.93-15.74,10.1a.62.62,0,0,0-.11,1.21,28.12,28.12,0,0,0,8,1.16.61.61,0,0,1,.42,1.07c-2.28,2.05-8.18,6-18.35,4.25a.62.62,0,0,0-.41,1.15,23,23,0,0,0,11.18,2.73.62.62,0,0,1,.23,1.19c-6.72,2.68-23.26,7.22-34.7-6.84A.61.61,0,0,1,105.14,155.2Z"/><path class="cls-17" d="M106.81,151.71c0-8.67-6.18-15.7-13.81-15.7h0c-7.63,0-13.82,7-13.82,15.7v28.18h27.63Z"/><path class="cls-18" d="M93,200.93h0c7.63,0,13.81-7,13.81-15.7v-5.34H79.18v5.34C79.18,193.9,85.37,200.93,93,200.93Z"/><path class="cls-16" d="M61.42,140.5l-1.69,5.22a5.32,5.32,0,0,0,2.63,6.35l-1.2,3.78-2.58.8s.41.6,2.81,1.36h0c2.4.76,3.11.5,3.11.5l-1.66-2.11,1.2-3.81A5.32,5.32,0,0,0,69.81,149l1.69-5.22Z"/><rect class="cls-17" x="59.44" y="148.5" width="3.58" height="8.65" rx="1.46" transform="translate(53.03 -11.61) rotate(18.98)"/><rect class="cls-17" x="63.91" y="151.32" width="3.34" height="1.79" rx="0.73" transform="matrix(0.95, 0.33, -0.33, 0.95, 53.09, -13.06)"/><path class="cls-19" d="M100.43,117.77a4,4,0,1,0,3.9-4.17A4,4,0,0,0,100.43,117.77Z"/><path class="cls-16" d="M100.39,110.35a4.34,4.34,0,1,0,4.19-4.49A4.33,4.33,0,0,0,100.39,110.35Z"/><path class="cls-19" d="M95.57,105.17a4.43,4.43,0,1,0,4.28-4.58A4.42,4.42,0,0,0,95.57,105.17Z"/><path class="cls-16" d="M82.56,110.05a4.34,4.34,0,1,1-4.49-4.19A4.35,4.35,0,0,1,82.56,110.05Z"/><path class="cls-19" d="M85.88,105.5a4.43,4.43,0,1,1-4.58-4.28A4.42,4.42,0,0,1,85.88,105.5Z"/><path class="cls-16" d="M82.72,116.48a4,4,0,1,1-4.16-3.89A4,4,0,0,1,82.72,116.48Z"/><path class="cls-17" d="M75.06,122.08a3.15,3.15,0,1,0,3-3.25A3.15,3.15,0,0,0,75.06,122.08Z"/><path class="cls-13" d="M76.18,122a2,2,0,1,0,2-2.09A2,2,0,0,0,76.18,122Z"/><rect class="cls-13" x="77.38" y="103.33" width="28.17" height="34.06" rx="13.14" transform="matrix(-1, 0.03, -0.03, -1, 186.98, 237.55)"/><path class="cls-17" d="M77.85,112.63a14.13,14.13,0,0,1,13-10.06h0a14.12,14.12,0,0,1,14.56,13.6l.2,5.88A14.13,14.13,0,0,1,92,136.61h0A14.13,14.13,0,0,1,77.46,123l-.2-5.88A14,14,0,0,1,77.85,112.63Z"/><path class="cls-20" d="M88.47,127.57l1.07,0a1.07,1.07,0,0,0-2.14.07Z"/><rect class="cls-21" x="81.48" y="123.07" width="2.82" height="5.4" rx="1.15" transform="translate(169.99 248.66) rotate(178.06)"/><path class="cls-21" d="M93.12,128.12h0a1.42,1.42,0,0,0,1.36-1.45l-.09-2.58a1.41,1.41,0,0,0-1.46-1.36h0a1.4,1.4,0,0,0-1.35,1.45l.08,2.58A1.41,1.41,0,0,0,93.12,128.12Z"/><path class="cls-16" d="M80.82,121l5-1.71a1,1,0,0,0,.6-1.21h0a1,1,0,0,0-1.21-.59l-5,1.71a1,1,0,0,0-.59,1.21h0A1,1,0,0,0,80.82,121Z"/><path class="cls-16" d="M97.12,120.4,92,119a1,1,0,0,1-.68-1.16h0a1,1,0,0,1,1.17-.68l5.11,1.36a1,1,0,0,1,.68,1.17h0A1,1,0,0,1,97.12,120.4Z"/><path class="cls-22" d="M90.11,129.81a1.81,1.81,0,1,1-3.62.13Z"/><path class="cls-16" d="M84.6,103.59A6.39,6.39,0,1,0,90.77,97,6.39,6.39,0,0,0,84.6,103.59Z"/><rect class="cls-16" x="77.01" y="100.41" width="27.83" height="9.83" rx="4.01" transform="translate(185.39 207.5) rotate(178.05)"/><path class="cls-16" d="M90.4,109.81a4,4,0,1,0,3.85-4.12A4,4,0,0,0,90.4,109.81Z"/><path class="cls-16" d="M83.15,110.06A4,4,0,1,0,87,105.94,4,4,0,0,0,83.15,110.06Z"/><path class="cls-16" d="M76.18,110.3A4,4,0,1,0,80,106.18,4,4,0,0,0,76.18,110.3Z"/><path class="cls-16" d="M109.35,117.42a4.37,4.37,0,1,1-4.52-4.22A4.37,4.37,0,0,1,109.35,117.42Z"/><path class="cls-16" d="M110.21,124.77a4.18,4.18,0,1,1-4.32-4A4.18,4.18,0,0,1,110.21,124.77Z"/><path class="cls-16" d="M108.14,111.15a5.73,5.73,0,1,1-5.92-5.53A5.72,5.72,0,0,1,108.14,111.15Z"/><path class="cls-17" d="M98.54,122.08a3.15,3.15,0,1,0,3-3.25A3.15,3.15,0,0,0,98.54,122.08Z"/><path class="cls-13" d="M99.66,122a2,2,0,1,0,2-2.09A2,2,0,0,0,99.66,122Z"/><path class="cls-23" d="M82.09,125.12h0a.29.29,0,0,1-.29-.28v-.55a.29.29,0,0,1,.29-.29h0a.29.29,0,0,1,.28.29v.55A.29.29,0,0,1,82.09,125.12Z"/><path class="cls-23" d="M92.24,125.12h0a.28.28,0,0,1-.28-.28v-.55a.28.28,0,0,1,.28-.29h0a.29.29,0,0,1,.28.29v.55A.29.29,0,0,1,92.24,125.12Z"/><path class="cls-24" d="M39.16,221.37V185.14a3.35,3.35,0,1,1,6.69,0V222s0,.08,0,.11l2.43.53a2,2,0,0,1,1.06.61l.51.56a2,2,0,0,1-1.48,3.34h-8a2,2,0,0,1-2-2V223A2,2,0,0,1,39.16,221.37Z"/><path class="cls-14" d="M47.64,214.35V178.12a3.35,3.35,0,0,1,6.7,0V215s0,.08,0,.11l2.43.53a2,2,0,0,1,1.06.61l.51.56a2,2,0,0,1-1.48,3.34h-8a2,2,0,0,1-2-2v-2.17A2,2,0,0,1,47.64,214.35Z"/><rect class="cls-25" x="31.71" y="119.56" width="28.01" height="42.19" rx="8.65" transform="translate(91.42 281.3) rotate(180)"/><rect class="cls-16" x="45.71" y="140.45" width="4.3" height="8.17" rx="2.02" transform="translate(95.72 289.08) rotate(180)"/><path class="cls-16" d="M55.53,132.18a2.39,2.39,0,1,0,2.39-2.39A2.39,2.39,0,0,0,55.53,132.18Z"/><path class="cls-26" d="M56.38,132.18a1.55,1.55,0,1,0,1.54-1.54A1.54,1.54,0,0,0,56.38,132.18Z"/><rect class="cls-26" x="37.22" y="117.26" width="21.42" height="25.9" rx="10.08" transform="translate(95.86 260.41) rotate(180)"/><rect class="cls-16" x="37.22" y="116.67" width="21.42" height="25.9" rx="10.08" transform="translate(95.86 259.23) rotate(180)"/><rect class="cls-25" x="28.69" y="112.66" width="34.1" height="12.93" rx="6.08" transform="translate(91.49 238.26) rotate(180)"/><rect class="cls-16" x="34" y="145.33" width="27.08" height="49.56" rx="12.74" transform="translate(95.07 340.22) rotate(180)"/><rect class="cls-21" x="45.19" y="129.15" width="2.73" height="5.24" rx="1.29" transform="translate(93.12 263.55) rotate(180)"/><rect class="cls-21" x="52.87" y="129.15" width="2.73" height="5.24" rx="1.29" transform="translate(108.47 263.55) rotate(180)"/><path class="cls-26" d="M50.68,134h.81a.81.81,0,0,0-1.62,0Z"/><rect class="cls-25" x="43.82" y="127.05" width="5.47" height="1.45" rx="0.68" transform="translate(93.12 255.54) rotate(180)"/><rect class="cls-25" x="51.98" y="127.05" width="5.47" height="1.45" rx="0.68" transform="translate(109.44 255.54) rotate(180)"/><path class="cls-22" d="M52.09,135.24a1.38,1.38,0,0,1-1.44,1.31,1.36,1.36,0,0,1-1.31-1.43Z"/><path class="cls-18" d="M40.74,145.92a13.87,13.87,0,0,1,1.84-.84c.84,1,3.51,4.9,5.25,7.46a2.41,2.41,0,0,0,3.61.44l3.75-3.38a2.41,2.41,0,0,0,.6-2.76,14.13,14.13,0,0,1,5.9,11.5v60.72l-30.12,4.83,1.81-65.55A14.13,14.13,0,0,1,40.74,145.92Z"/><rect class="cls-25" x="36.41" y="123.48" width="3.27" height="8.29" transform="translate(76.1 255.25) rotate(180)"/><path class="cls-26" d="M56.82,161.73l.57,6.27A6.11,6.11,0,0,0,63,173.51l.45,4.55-2.37,2s.71.45,3.59.16h0c2.88-.28,3.51-.87,3.51-.87l-2.71-1.48-.45-4.58a6.09,6.09,0,0,0,4.43-6.42l-.58-6.27Z"/><path class="cls-16" d="M34.91,132.26a2.39,2.39,0,1,0,2.39-2.39A2.39,2.39,0,0,0,34.91,132.26Z"/><path class="cls-26" d="M35.76,132.26a1.54,1.54,0,1,0,1.54-1.54A1.54,1.54,0,0,0,35.76,132.26Z"/><path class="cls-16" d="M53.21,179c-5.25-.52-9.37-2.42-12.31-5.68-7.92-8.79-3.54-23.87-3.35-24.5a3.18,3.18,0,0,1,6.09,1.81c-.07.21-3.53,12.34,2,18.46,3.24,3.59,9.27,4.59,17.91,3a3.17,3.17,0,1,1,1.16,6.24A40.86,40.86,0,0,1,53.21,179Z"/><path class="cls-13" d="M56.33,183.43a3.9,3.9,0,0,1,0-7.79c28.38,0,31.6-28.84,31.72-30.07a3.89,3.89,0,0,1,7.74.75,49.87,49.87,0,0,1-6.16,18.37C84.7,173.23,74.91,183.43,56.33,183.43Z"/><path class="cls-17" d="M56.33,181.65a3.89,3.89,0,1,1,0-7.78c28.38,0,31.6-28.85,31.72-30.08a3.89,3.89,0,0,1,7.74.75,49.81,49.81,0,0,1-6.16,18.37C84.7,171.46,74.91,181.65,56.33,181.65Z"/><polygon class="cls-19" points="18.82 224.71 59.67 213.04 106.35 207.21 153.03 213.04 193.88 230.55 211.39 236.38 211.39 306.41 30.49 306.41 18.82 224.71"/><polygon class="cls-27" points="38.47 233.66 48.93 246.85 66.55 249.2 76.09 253.07 58.48 252.11 43.71 249.54 38.47 233.66"/><polygon class="cls-27" points="154.39 274.73 179.98 271.37 193.72 255.48 185.94 268.88 185.94 276.08 170.16 278.34 154.39 274.73"/><path class="cls-27" d="M124,282.9H47.13A5.2,5.2,0,0,1,42,277.71h0a5.19,5.19,0,0,1,5.18-5.18H124a5.19,5.19,0,0,1,5.18,5.18h0A5.2,5.2,0,0,1,124,282.9Z"/><polyline class="cls-27" points="110.74 249.72 129.58 244.76 148.14 236.2 135.98 248.37"/><path class="cls-9" d="M170.49,75.7H151.11a2.51,2.51,0,0,1-2.5-2.5h0a2.51,2.51,0,0,1,2.5-2.51h19.38A2.52,2.52,0,0,1,173,73.2h0A2.51,2.51,0,0,1,170.49,75.7Z"/><circle class="cls-9" cx="158.33" cy="69.48" r="6.22"/><path class="cls-9" d="M169.6,71.27a4.43,4.43,0,1,1-4.43-4.43A4.43,4.43,0,0,1,169.6,71.27Z"/><path class="cls-9" d="M92.16,83.82H79a1.7,1.7,0,0,1-1.7-1.7h0a1.71,1.71,0,0,1,1.7-1.7H92.16a1.7,1.7,0,0,1,1.7,1.7h0A1.7,1.7,0,0,1,92.16,83.82Z"/><path class="cls-9" d="M88.13,79.6a4.23,4.23,0,1,1-4.22-4.23A4.22,4.22,0,0,1,88.13,79.6Z"/><circle class="cls-9" cx="88.55" cy="80.81" r="3.01"/><path class="cls-16" d="M45.75,247.77l-.07,10.33A10,10,0,0,0,54,268v7.49l-4.18,2.89s1.08.85,5.82.85h0c4.74,0,5.88-.86,5.88-.86l-4.19-2.85V268a10,10,0,0,0,8.27-9.76l.06-10.33Z"/><path class="cls-16" d="M61.51,217.29l-.06,10.33a10,10,0,0,0,8.33,9.9V245l-4.19,2.9s1.08.84,5.83.84h0c4.75,0,5.88-.86,5.88-.86L73.13,245v-7.53a10,10,0,0,0,8.27-9.76l.07-10.33Z"/><path class="cls-16" d="M77.24,247.77l-.07,10.33A10,10,0,0,0,85.5,268v7.49l-4.18,2.89s1.08.85,5.82.85h0c4.74,0,5.88-.86,5.88-.86l-4.19-2.85V268a10,10,0,0,0,8.27-9.76l.06-10.33Z"/><path class="cls-16" d="M77.24,186.82l-.07,10.32a10,10,0,0,0,8.33,9.91v7.48l-4.18,2.9s1.08.85,5.82.85h0c4.74,0,5.88-.86,5.88-.86l-4.19-2.86V207a10,10,0,0,0,8.27-9.76l.06-10.33Z"/><path class="cls-16" d="M92.83,217.29l-.06,10.33a10,10,0,0,0,8.33,9.9V245l-4.19,2.9s1.08.84,5.83.84h0c4.74,0,5.87-.86,5.87-.86L104.46,245v-7.53a10,10,0,0,0,8.26-9.76l.07-10.33Z"/><path class="cls-16" d="M108.56,247.77l-.06,10.33a10,10,0,0,0,8.33,9.9v7.49l-4.19,2.89s1.08.85,5.83.85h0c4.75,0,5.88-.86,5.88-.86l-4.19-2.85V268a10,10,0,0,0,8.27-9.76l.07-10.33Z"/><rect class="cls-12" x="153.97" y="95.47" width="52.93" height="72.27"/><path class="cls-12" d="M150.9,250.27h19.22a9.45,9.45,0,0,1,9.45,9.45V284a9.45,9.45,0,0,1-9.45,9.45h-9.76A9.45,9.45,0,0,1,150.9,284V250.27A0,0,0,0,1,150.9,250.27Z"/><rect class="cls-28" x="156.7" y="114.8" width="6.26" height="20.85" rx="2.06"/><path class="cls-29" d="M197.7,324.24V246.9a7.15,7.15,0,0,0-14.29,0v78.64c0,.07,0,.15,0,.23l-5.19,1.12a4.22,4.22,0,0,0-2.26,1.3l-1.09,1.2a4.27,4.27,0,0,0,3.16,7.14H195.1a4.27,4.27,0,0,0,4.27-4.27v-4.64A4.25,4.25,0,0,0,197.7,324.24Z"/><path class="cls-28" d="M155.11,143.93h0a2.15,2.15,0,0,1-2.15-2.15v-42a2.15,2.15,0,0,1,2.15-2.15h0a2.15,2.15,0,0,1,2.15,2.15v42.05A2.15,2.15,0,0,1,155.11,143.93Z"/><path class="cls-30" d="M179.58,310.58v-69c0-3.52-3.2-6.38-7.15-6.38s-7.14,2.86-7.14,6.38v70.15c0,.07,0,.14,0,.21l-5.19,1a4.44,4.44,0,0,0-2.26,1.17l-1.09,1.06c-2.49,2.45-.54,6.37,3.16,6.37H177a4.05,4.05,0,0,0,4.27-3.81V313.6A3.68,3.68,0,0,0,179.58,310.58Z"/><path class="cls-31" d="M162.36,111.13a5.1,5.1,0,1,1-5.1-5.1A5.1,5.1,0,0,1,162.36,111.13Z"/><path class="cls-30" d="M160.55,111.13a3.29,3.29,0,1,1-3.29-3.29A3.29,3.29,0,0,1,160.55,111.13Z"/><rect class="cls-31" x="174.53" y="128.61" width="9.17" height="17.45" rx="3.02"/><rect class="cls-30" x="159.25" y="83.23" width="39.4" height="51.92" rx="19.7"/><path class="cls-31" d="M177,134.36h0a19.75,19.75,0,0,1-19.7-19.7V102.14A19.76,19.76,0,0,1,177,82.44h0a19.76,19.76,0,0,1,19.7,19.7v12.52A19.76,19.76,0,0,1,177,134.36Z"/><path class="cls-30" d="M152.84,157.29a36.64,36.64,0,0,1-21-6c-11.62-8-17.5-23-17.5-44.66a6.12,6.12,0,1,1,12.24,0c0,17.35,4.08,29,12.13,34.53,11.13,7.68,27.18,1.74,27.34,1.68a6.12,6.12,0,1,1,4.39,11.43A53.16,53.16,0,0,1,152.84,157.29Z"/><path class="cls-21" d="M164.78,117.66h0a1.78,1.78,0,0,1-1.77-1.77v-5.31a1.77,1.77,0,0,1,1.77-1.77h0a1.77,1.77,0,0,1,1.77,1.77v5.31A1.78,1.78,0,0,1,164.78,117.66Z"/><path class="cls-21" d="M180.74,117.66h0a1.78,1.78,0,0,1-1.77-1.77v-5.31a1.77,1.77,0,0,1,1.77-1.77h0a1.77,1.77,0,0,1,1.77,1.77v5.31A1.77,1.77,0,0,1,180.74,117.66Z"/><rect class="cls-28" x="193.36" y="95.47" width="9.7" height="43.55" rx="3.2"/><path class="cls-30" d="M172.38,118.38h-1.73a1.73,1.73,0,0,1,3.46,0Z"/><rect class="cls-28" x="175.63" y="104.92" width="11.1" height="2.22" rx="0.73" transform="translate(24.74 -33.96) rotate(11.49)"/><rect class="cls-28" x="159.2" y="104.92" width="11.1" height="2.22" rx="0.73" transform="matrix(-0.98, 0.2, -0.2, -0.98, 347.32, 177.13)"/><path class="cls-30" d="M173.42,124.63a.67.67,0,0,0-.67-.67.68.68,0,0,0-.68.67Z"/><path class="cls-29" d="M203.07,160.21c0-8-4.87-15-12-18.59a25.19,25.19,0,0,0-11.13-2.6,24.63,24.63,0,0,0-12.75,3.5l-.75.48a21.29,21.29,0,0,0-8.93,11.89l45.61,6.46Z"/><polyline class="cls-28" points="208.47 161.34 208.47 265.5 150.12 259.85 156.57 154.65 208.47 161.34"/><rect class="cls-12" x="181.15" y="229.6" width="23.24" height="3.15" rx="1.04" transform="translate(28.65 -21.15) rotate(6.78)"/><rect class="cls-12" x="169.56" y="209.46" width="23.24" height="3.15" rx="1.04" transform="translate(26.19 -19.92) rotate(6.78)"/><rect class="cls-12" x="177.74" y="252.72" width="23.24" height="3.15" rx="1.04" transform="translate(31.35 -20.58) rotate(6.78)"/><rect class="cls-12" x="158.49" y="239.08" width="23.24" height="3.15" rx="1.04" transform="translate(29.61 -18.4) rotate(6.78)"/><path class="cls-28" d="M150.4,97.58s12.63,9,41.25-4.83c0,0,4.23,13.25,15,17.34,0,0,10.29-24-15-33.29C191.65,76.8,159.94,67.39,150.4,97.58Z"/><rect class="cls-12" x="166.3" y="166.85" width="34.8" height="3.15" rx="1.04" transform="translate(21.17 -20.52) rotate(6.78)"/><path class="cls-31" d="M198.46,111.13a5.1,5.1,0,1,1-5.1-5.1A5.1,5.1,0,0,1,198.46,111.13Z"/><path class="cls-30" d="M196.66,111.13a3.3,3.3,0,1,1-3.3-3.29A3.3,3.3,0,0,1,196.66,111.13Z"/><rect class="cls-28" x="182.91" y="91.16" width="19.58" height="10.7" rx="3.53"/><rect class="cls-28" x="189.36" y="100.35" width="4" height="19.71" rx="1.32"/><rect class="cls-28" x="155.22" y="98.13" width="2.96" height="15.8" rx="0.98" transform="translate(313.4 212.06) rotate(180)"/><path class="cls-29" d="M180.8,237.51a6.65,6.65,0,0,1-5.93-9.65c22.22-43.94,15.4-70.18,15.33-70.44A6.65,6.65,0,1,1,203,153.75c.36,1.24,8.58,31-16.25,80.11A6.65,6.65,0,0,1,180.8,237.51Z"/><rect class="cls-28" x="201.48" y="91.98" width="8.81" height="77" rx="2.9"/><path class="cls-28" d="M185.64,77.19h0a1.88,1.88,0,0,1-2.65.1l-2.71-2.51a1.89,1.89,0,0,1-.1-2.65h0a1.89,1.89,0,0,1,2.65-.1l2.71,2.51A1.89,1.89,0,0,1,185.64,77.19Z"/><rect class="cls-28" x="185.24" y="70.17" width="5.41" height="8.37" rx="2.42" transform="translate(100.67 -107.95) rotate(42.84)"/><rect class="cls-12" x="157.46" y="182.19" width="23.24" height="3.15" rx="1.04" transform="translate(22.88 -18.68) rotate(6.78)"/><path class="cls-16" d="M110.72,85.29l-.06,10.33a10,10,0,0,0,8.33,9.9V113l-4.19,2.89s1.08.85,5.82.85h0c4.75,0,5.88-.86,5.88-.86L122.34,113v-7.53a10,10,0,0,0,8.27-9.76l.07-10.33Z"/><rect class="cls-29" x="114.27" y="101.59" width="5.48" height="12.33" rx="2.74"/><path class="cls-29" d="M125.79,108.15h-2.65a2.23,2.23,0,0,1-2.22-2.22h0a2.22,2.22,0,0,1,2.22-2.21h2.65a2.22,2.22,0,0,1,2.22,2.21h0A2.23,2.23,0,0,1,125.79,108.15Z"/><path class="cls-23" d="M47.32,130.93h0a.27.27,0,0,1-.27-.27v-.31a.27.27,0,0,1,.27-.27h0a.28.28,0,0,1,.28.27v.31A.28.28,0,0,1,47.32,130.93Z"/><path class="cls-23" d="M55.09,130.93h0a.27.27,0,0,1-.27-.27v-.31a.27.27,0,0,1,.27-.27h0a.27.27,0,0,1,.27.27v.31A.27.27,0,0,1,55.09,130.93Z"/><path class="cls-32" d="M170.23,122.8a23.1,23.1,0,0,1-2.41-.14l-.19,0A.65.65,0,0,1,167,122a.64.64,0,0,1,.64-.64l.31,0a16.6,16.6,0,0,0,9.1-1.31.64.64,0,0,1,.86.3.65.65,0,0,1-.3.87A16.92,16.92,0,0,1,170.23,122.8Z"/></g></g></g></svg>