<?xml version="1.0" encoding="utf-8"?>
<!-- Generator: Adobe Illustrator 25.2.3, SVG Export Plug-In . SVG Version: 6.00 Build 0)  -->
<svg version="1.1" id="Layer_1" xmlns="http://www.w3.org/2000/svg" xmlns:xlink="http://www.w3.org/1999/xlink" x="0px" y="0px"
	 viewBox="0 0 235 381.2" style="enable-background:new 0 0 235 381.2;" xml:space="preserve">
<style type="text/css">
	.st0{fill:#F4B155;}
	.st1{fill:#FFF0CC;}
	.st2{fill:#231F20;}
	.st3{fill:#A7F1F9;}
	.st4{clip-path:url(#SVGID_2_);}
	.st5{fill:#789B78;}
	.st6{fill:#FFFFFF;}
	.st7{fill:#79B27B;}
	.st8{fill:#67D8DB;}
	.st9{fill:#81EFEF;}
	.st10{fill:none;}
	.st11{fill:#F1F2F2;}
	.st12{fill:#BCBEC0;}
	.st13{fill:#D1D3D4;}
	.st14{fill:#939598;}
	.st15{fill:#FFBD52;}
	.st16{fill:#FFD351;}
	.st17{fill:#FFA73E;}
	.st18{fill:#FF8F33;}
	.st19{fill:#E6705F;}
	.st20{fill:#F49E40;}
	.st21{fill:#3A335F;}
	.st22{fill:#DD4F65;}
	.st23{fill:#FFD150;}
	.st24{fill:#414042;}
	.st25{fill:#F2C351;}
</style>
<g id="Layer_2_1_">
	<g id="Layer_1-2">
		<path class="st0" d="M235,14.4v352.3c0,8-6.7,14.5-15,14.5H15c-8.3,0-15-6.5-15-14.5V14.4C0,6.5,6.7,0,15,0h205
			C228.3,0,235,6.5,235,14.4z M222.4,358.3V22.8c0-6-4.8-10.8-10.8-10.8H23.4c-6,0-10.8,4.9-10.8,10.8v335.5c0,6,4.8,10.8,10.8,10.8
			h188.2C217.6,369.2,222.4,364.3,222.4,358.3L222.4,358.3z"/>
		<path class="st1" d="M23.4,12h188.2c6,0,10.8,4.8,10.8,10.8v335.5c0,6-4.8,10.8-10.8,10.8H23.4c-6,0-10.8-4.8-10.8-10.8V22.8
			C12.6,16.9,17.4,12,23.4,12z"/>
		<path class="st2" d="M63.5,335c-0.1-0.1-0.2-0.3-0.2-0.5v-10.8h-3.4c-0.2,0-0.4,0-0.5-0.2c-0.1-0.2-0.2-0.3-0.2-0.5v-0.5
			c0-0.2,0-0.4,0.2-0.5c0.2-0.1,0.3-0.2,0.5-0.2h9.4c0.2,0,0.4,0,0.6,0.2c0.1,0.2,0.2,0.3,0.2,0.5v0.5c0,0.2,0,0.4-0.2,0.5
			c-0.2,0.1-0.4,0.2-0.6,0.2h-3.4v10.7c0,0.2,0,0.4-0.2,0.5c-0.2,0.1-0.4,0.2-0.6,0.2h-1C63.9,335.2,63.7,335.1,63.5,335z"/>
		<path class="st2" d="M71.7,335c-0.1-0.2-0.2-0.3-0.2-0.5v-12c0-0.2,0-0.4,0.2-0.5c0.2-0.1,0.4-0.2,0.6-0.2h8.2
			c0.2,0,0.4,0,0.5,0.1c0.1,0.2,0.2,0.3,0.2,0.5v0.6c0,0.2,0,0.4-0.2,0.5c-0.1,0.1-0.3,0.2-0.5,0.2H74v3.8h4.6c0.2,0,0.4,0,0.6,0.2
			c0.1,0.2,0.2,0.3,0.2,0.5v0.5c0,0.2,0,0.4-0.2,0.5c-0.2,0.1-0.4,0.2-0.6,0.2H74v3.8h6.4c0.2,0,0.4,0,0.6,0.2
			c0.1,0.2,0.2,0.3,0.2,0.5v0.5c0,0.2,0,0.4-0.1,0.5c-0.2,0.1-0.4,0.2-0.6,0.1h-8.2C72.1,335.2,71.9,335.1,71.7,335z"/>
		<path class="st2" d="M83,335c-0.1-0.1-0.2-0.3-0.2-0.5v-12c0-0.2,0-0.4,0.2-0.5c0.2-0.1,0.4-0.2,0.6-0.2h0.9c0.1,0,0.3,0,0.4,0.1
			c0.1,0.1,0.2,0.2,0.3,0.3l6.5,9v-8.7c0-0.2,0-0.4,0.2-0.5c0.2-0.1,0.4-0.2,0.6-0.2h1c0.3-0.1,0.7,0.2,0.7,0.5c0,0.1,0,0.1,0,0.2
			v11.9c0,0.2,0,0.4-0.2,0.5c-0.2,0.1-0.4,0.2-0.6,0.2h-0.9c-0.1,0-0.3,0-0.4-0.1c-0.1-0.1-0.2-0.2-0.3-0.3l-6.5-9v8.6
			c0,0.2,0,0.4-0.2,0.5c-0.2,0.1-0.4,0.2-0.6,0.2h-1C83.4,335.1,83.2,335.1,83,335z"/>
		<path class="st2" d="M105.6,333.6c-2.3-3-2.3-7.3,0-10.3c2.9-2.4,7.1-2.4,9.9,0c2.3,3,2.3,7.3,0,10.3
			C112.6,336,108.4,336,105.6,333.6z M113.7,332.3c1.4-2.3,1.4-5.3,0-7.6c-1.7-1.7-4.6-1.7-6.3,0c-1.5,2.3-1.5,5.3,0,7.6
			C109.1,334,111.9,334,113.7,332.3C113.7,332.3,113.7,332.3,113.7,332.3z"/>
		<path class="st2" d="M119.3,335c-0.1-0.2-0.2-0.3-0.2-0.5v-12c0-0.2,0-0.4,0.2-0.5c0.2-0.1,0.4-0.2,0.6-0.2h8.2
			c0.2,0,0.4,0,0.5,0.1c0.1,0.2,0.2,0.3,0.1,0.5v0.6c0,0.2,0,0.4-0.1,0.5c-0.1,0.1-0.3,0.2-0.5,0.2h-6.4v3.8h4.6
			c0.2,0,0.4,0,0.6,0.2c0.1,0.2,0.2,0.3,0.2,0.5v0.5c0,0.2,0,0.4-0.2,0.5c-0.2,0.1-0.4,0.2-0.6,0.2h-4.6v5c0,0.2,0,0.4-0.2,0.5
			c-0.2,0.1-0.4,0.2-0.6,0.2h-1C119.7,335.2,119.5,335.1,119.3,335z"/>
		<path class="st2" d="M139.4,333.6c-2.8-2.6-3-7-0.4-9.9c1.4-1.5,3.4-2.4,5.5-2.2c0.8,0,1.7,0.1,2.5,0.3c0.7,0.1,1.3,0.4,1.9,0.8
			c0.1,0.1,0.2,0.1,0.2,0.3c0,0.1,0,0.2-0.1,0.3l-0.6,0.9c-0.1,0.1-0.2,0.2-0.2,0.2c-0.1,0-0.2,0-0.3-0.1c-1-0.5-2.1-0.8-3.2-0.7
			c-1.3-0.1-2.5,0.4-3.5,1.3c-0.9,1.1-1.4,2.4-1.3,3.8c-0.1,1.4,0.4,2.8,1.3,3.9c0.9,0.9,2.2,1.3,3.5,1.3c1.2,0,2.3-0.2,3.4-0.8
			c0.1,0,0.2-0.1,0.2-0.1c0.1,0,0.2,0.1,0.2,0.2l0.6,1c0,0.1,0.1,0.1,0.1,0.2c0,0.1-0.1,0.2-0.2,0.3c-1.4,0.8-3,1.2-4.6,1.1
			C142.7,335.5,140.8,334.9,139.4,333.6z"/>
		<path class="st2" d="M154,334.8c-1.8-0.7-2.9-2.5-2.9-4.4v-7.9c0-0.2,0-0.4,0.2-0.5c0.2-0.1,0.4-0.2,0.6-0.2h1
			c0.2,0,0.4,0,0.6,0.2c0.1,0.2,0.2,0.3,0.2,0.5v8c-0.1,0.9,0.3,1.7,0.9,2.3c1.5,1.1,3.6,1.1,5.1,0c0.6-0.6,1-1.4,0.9-2.3v-8
			c-0.1-0.3,0.2-0.7,0.5-0.7c0.1,0,0.2,0,0.2,0h1c0.5,0,0.8,0.2,0.8,0.7v7.9c0,0.9-0.2,1.9-0.8,2.7c-0.5,0.8-1.3,1.4-2.1,1.7
			C158.2,335.6,155.9,335.6,154,334.8L154,334.8z"/>
		<path class="st2" d="M165.5,335c-0.1-0.1-0.2-0.3-0.2-0.5v-12c0-0.2,0-0.4,0.2-0.5c0.2-0.1,0.4-0.2,0.6-0.2h5
			c1.3-0.1,2.6,0.3,3.6,1.1c1.6,1.9,1.6,4.6,0,6.5c-1,0.8-2.3,1.2-3.6,1.1h-3.2v3.8c0,0.2,0,0.4-0.2,0.5c-0.2,0.1-0.4,0.2-0.6,0.2
			h-1C165.9,335.2,165.6,335.1,165.5,335z M171,328.7c0.7,0,1.3-0.2,1.8-0.6c0.4-0.5,0.6-1.2,0.6-1.9c0.1-0.7-0.2-1.4-0.6-1.9
			c-0.5-0.4-1.1-0.7-1.8-0.6h-3.1v5L171,328.7z"/>
		<path class="st3" d="M53,43.9h129c13.7,0,24.8,11.1,24.8,24.8V261c0,13.7-11.1,24.8-24.8,24.8H53c-13.7,0-24.8-11.1-24.8-24.8
			V68.7C28.2,55,39.3,43.9,53,43.9z"/>
		<g>
			<defs>
				<path id="SVGID_1_" d="M53,43.9h129c13.7,0,24.8,11.1,24.8,24.8V261c0,13.7-11.1,24.8-24.8,24.8H53c-13.7,0-24.8-11.1-24.8-24.8
					V68.7C28.2,55,39.3,43.9,53,43.9z"/>
			</defs>
			<clipPath id="SVGID_2_">
				<use xlink:href="#SVGID_1_"  style="overflow:visible;"/>
			</clipPath>
			<g class="st4">
				<polygon class="st3" points="222.4,7.4 13.6,7.4 13.6,180.1 13.6,200.1 13.6,294.8 222.2,294.8 222.2,200.1 222.4,200.1 				"/>
				<polygon class="st5" points="71,134 88.5,126.6 124.1,143.6 54.3,143.6 				"/>
				<path class="st6" d="M75.1,142H43.5c-3.7,0-6.6-3-6.6-6.6l0,0c0-3.7,3-6.6,6.6-6.6h31.6c3.7,0,6.6,3,6.6,6.6l0,0
					C81.7,139,78.7,142,75.1,142z"/>
				<circle class="st6" cx="42.9" cy="125.5" r="16.5"/>
				<circle class="st6" cx="61" cy="130.2" r="11.7"/>
				<path class="st6" d="M104.3,142h17.6c2,0,3.7-1.7,3.7-3.7l0,0c0-2-1.7-3.7-3.7-3.7h-17.6c-2,0-3.7,1.7-3.7,3.7l0,0
					C100.6,140.3,102.2,142,104.3,142z"/>
				<path class="st6" d="M113,132.8c0,5.1,4.1,9.2,9.2,9.2s9.2-4.1,9.2-9.2c0-5.1-4.1-9.2-9.2-9.2c0,0,0,0,0,0
					C117.1,123.6,113,127.7,113,132.8C113,132.8,113,132.8,113,132.8z"/>
				<path class="st6" d="M105.6,135.4c0,3.6,2.9,6.6,6.6,6.6s6.5-2.9,6.5-6.6s-2.9-6.6-6.5-6.6C108.5,128.9,105.6,131.8,105.6,135.4
					C105.6,135.4,105.6,135.4,105.6,135.4z"/>
				<polygon class="st7" points="98.2,143.8 144.7,118.7 183.4,142.7 				"/>
				<path class="st6" d="M208,117.5h-43.9c-3.7,0-6.6,3-6.7,6.7l0,0c0,3.7,3,6.6,6.7,6.6H208c3.7,0,6.6-3,6.7-6.7l0,0
					C214.6,120.5,211.7,117.6,208,117.5z"/>
				<path class="st6" d="M204.5,146.3h-63.1c-5,0-9-4.1-9.1-9.1l0,0c0-5,4.1-9,9.1-9.1h63.1c5,0,9,4.1,9.1,9.1l0,0
					C213.6,142.2,209.5,146.3,204.5,146.3z"/>
				<rect x="22.4" y="138.3" class="st8" width="198.4" height="58.4"/>
				<path class="st9" d="M94.5,154.1H65.2c-1,0-1.8-0.8-1.8-1.8l0,0c0-1,0.8-1.8,1.8-1.8h29.3c1,0,1.8,0.8,1.8,1.8l0,0
					C96.3,153.3,95.5,154.1,94.5,154.1z"/>
				<path class="st9" d="M157.6,148.1h-29.3c-1,0-1.8-0.8-1.8-1.8l0,0c0-1,0.8-1.8,1.8-1.8h29.3c1,0,1.8,0.8,1.8,1.8l0,0
					C159.4,147.3,158.6,148.1,157.6,148.1z"/>
				<path class="st9" d="M138.4,169.7h-29.3c-1,0-1.8-0.8-1.8-1.8l0,0c0-1,0.8-1.8,1.8-1.8h29.3c1,0,1.8,0.8,1.8,1.8l0,0
					C140.2,168.9,139.4,169.7,138.4,169.7z"/>
				<path class="st9" d="M145.9,161.4h-29.3c-1,0-1.8-0.8-1.8-1.8l0,0c0-1,0.8-1.8,1.8-1.8h29.3c1,0,1.8,0.8,1.8,1.8l0,0
					C147.7,160.6,146.9,161.4,145.9,161.4z"/>
				<path class="st9" d="M78.1,184.6H48.7c-1,0-1.8-0.8-1.8-1.8l0,0c0-1,0.8-1.8,1.8-1.8h29.3c1,0,1.8,0.8,1.8,1.8l0,0
					C79.9,183.8,79.1,184.6,78.1,184.6z"/>
				<path class="st9" d="M73.8,169.4H44.4c-1,0-1.8-0.8-1.8-1.8l0,0c0-1,0.8-1.8,1.8-1.8h29.3c1,0,1.8,0.8,1.8,1.8l0,0
					C75.6,168.6,74.8,169.4,73.8,169.4z"/>
				<path class="st9" d="M136.3,186.4H107c-1,0-1.8-0.8-1.8-1.8l0,0c0-1,0.8-1.8,1.8-1.8h29.3c1,0,1.8,0.8,1.8,1.8l0,0
					C138.1,185.6,137.3,186.4,136.3,186.4C136.3,186.4,136.3,186.4,136.3,186.4z"/>
				<path class="st9" d="M186.5,180.3h-29.3c-1,0-1.8-0.8-1.8-1.8l0,0c0-1,0.8-1.8,1.8-1.8h29.3c1,0,1.8,0.8,1.8,1.8l0,0
					C188.3,179.5,187.5,180.3,186.5,180.3z"/>
				<path class="st9" d="M103.8,161H74.5c-1,0-1.8-0.8-1.8-1.8l0,0c0-1,0.8-1.8,1.8-1.8h29.3c1,0,1.8,0.8,1.8,1.8l0,0
					C105.6,160.2,104.8,161,103.8,161z"/>
				<path class="st9" d="M200.8,156.5h-29.3c-1,0-1.8-0.8-1.8-1.8l0,0c0-1,0.8-1.8,1.8-1.8h29.3c1,0,1.8,0.8,1.8,1.8l0,0
					C202.5,155.7,201.7,156.5,200.8,156.5z"/>
				<polygon class="st10" points="199.6,7.4 36.4,7.4 36.4,180.1 36.4,200.1 36.4,294.8 199.5,294.8 199.5,200.1 199.6,200.1 				
					"/>
				<rect x="-12.6" y="173.3" class="st6" width="285.9" height="134.2"/>
				<path class="st11" d="M187.7,257.7H46.5c-4.1,0-7.4-3.3-7.4-7.4l0,0c0-4.1,3.3-7.3,7.4-7.4h141.2c4.1,0,7.4,3.3,7.4,7.4l0,0
					C195,254.4,191.7,257.7,187.7,257.7z"/>
				<path class="st11" d="M32.5,215.7h170.1c4.3,0,7.8,3.5,7.8,7.8v2.6c0,4.3-3.5,7.8-7.8,7.8H32.5c-4.3,0-7.8-3.5-7.8-7.8v-2.6
					C24.7,219.2,28.2,215.7,32.5,215.7z"/>
				<path class="st11" d="M75.4,276.4h77.9c1.6,0,2.9,1.3,2.9,2.9v1.2c0,1.6-1.3,2.9-2.9,2.9H75.4c-1.6,0-2.9-1.3-2.9-2.9v-1.2
					C72.5,277.7,73.8,276.4,75.4,276.4z"/>
				<rect x="26.1" y="98.5" class="st12" width="21.4" height="125.6"/>
				<rect x="186.9" y="98.5" class="st12" width="21.4" height="125.6"/>
				<path class="st6" d="M23,219.3h28.5c1.9,0,3.5,1.6,3.5,3.5v1c0,1.9-1.6,3.5-3.5,3.5H23c-1.9,0-3.5-1.6-3.5-3.5v-1
					C19.6,220.8,21.1,219.3,23,219.3z"/>
				<path class="st6" d="M184.1,219.3h28.5c1.9,0,3.5,1.6,3.5,3.5v1c0,1.9-1.6,3.5-3.5,3.5h-28.5c-1.9,0-3.5-1.6-3.5-3.5v-1
					C180.6,220.8,182.2,219.3,184.1,219.3z"/>
				<polygon class="st6" points="117.2,39.1 3.7,99.2 230.7,99.2 				"/>
				<polygon class="st11" points="117.2,47.5 35.2,90.9 199.2,90.9 				"/>
				<rect x="25.4" y="95.8" class="st13" width="182.9" height="4.6"/>
				<path class="st6" d="M192.2,106.7h0.3c0.5,0,1,0.4,1,1v107c0,0.5-0.4,1-1,1h-0.3c-0.5,0-1-0.4-1-1v-107
					C191.3,107.1,191.7,106.7,192.2,106.7z"/>
				<path class="st6" d="M197.5,106.7h0.3c0.5,0,1,0.4,1,1v107c0,0.5-0.4,1-1,1h-0.3c-0.5,0-1-0.4-1-1v-107
					C196.5,107.1,197,106.7,197.5,106.7z"/>
				<path class="st6" d="M203,106.7h0.3c0.5,0,1,0.4,1,1v107c0,0.5-0.4,1-1,1H203c-0.5,0-1-0.4-1-1v-107
					C202,107.1,202.5,106.7,203,106.7z"/>
				<path class="st6" d="M31.6,106.7h0.3c0.5,0,1,0.4,1,1v107c0,0.5-0.4,1-1,1h-0.3c-0.5,0-1-0.4-1-1v-107
					C30.6,107.1,31.1,106.7,31.6,106.7z"/>
				<path class="st6" d="M36.9,106.7h0.3c0.5,0,1,0.4,1,1v107c0,0.5-0.4,1-1,1h-0.3c-0.5,0-1-0.4-1-1v-107
					C35.9,107.1,36.3,106.7,36.9,106.7z"/>
				<path class="st6" d="M42.4,106.7h0.3c0.5,0,1,0.4,1,1v107c0,0.5-0.4,1-1,1h-0.3c-0.5,0-1-0.4-1-1v-107
					C41.4,107.1,41.8,106.7,42.4,106.7z"/>
				<rect x="186.9" y="100.4" class="st14" width="21.4" height="6.2"/>
				<rect x="26.1" y="100.4" class="st14" width="21.4" height="6.2"/>
				<path class="st15" d="M58.3,153.4V143c0,0,0-0.1,0-0.1c-0.1-0.9-1.9-12.4-9.5-16.7c-10.7-6.2-16.3,5.2-27.9-4.1
					c-0.4-0.3-0.9,0.2-0.7,0.8c0.7,2.5,2.5,7.2,6.1,10.5c0.5,0.4,0.1,1.3-0.4,1.1c-1.6-0.6-3.1-1.5-4.3-2.7
					c-0.4-0.4-0.9,0.1-0.8,0.7c1.4,5.7,5.8,10.3,11.5,11.9c0.3,0.2,0.5,0.6,0.3,0.9c-0.1,0.1-0.2,0.2-0.3,0.3
					c-2,0.5-4.2,0.7-6.3,0.4c-0.4-0.1-0.7,0.6-0.4,1.1c3.1,4.5,8.6,6.9,14,6.1c0.5-0.1,0.7,0.9,0.2,1.2c-2.7,1.5-5.8,2.1-8.9,1.7
					c-0.5-0.1-0.7,0.9-0.3,1.2c5,3.4,17.5,9.7,27.5-3.7C58.3,153.7,58.3,153.5,58.3,153.4z"/>
				<path class="st15" d="M71.7,153.4V143c0,0,0-0.1,0-0.1c0.1-0.9,1.9-12.4,9.5-16.7c10.7-6.2,16.3,5.2,27.9-4
					c0.4-0.3,0.9,0.2,0.7,0.8c-0.7,2.5-2.5,7.2-6,10.5c-0.4,0.4-0.1,1.4,0.4,1.2c1.6-0.6,3-1.5,4.2-2.6c0.4-0.4,0.9,0.1,0.8,0.8
					c-1.4,5.7-5.8,10.2-11.4,11.9c-0.4,0.2-0.5,0.6-0.3,1c0.1,0.1,0.2,0.2,0.3,0.3c2,0.5,4.1,0.7,6.2,0.4c0.5-0.1,0.7,0.7,0.4,1.1
					c-3.1,4.5-8.5,6.8-13.9,6.1c-0.6-0.1-0.8,1-0.2,1.2c2.7,1.5,5.8,2,8.8,1.6c0.5-0.1,0.8,0.9,0.3,1.2c-5.1,3.4-17.5,9.6-27.4-3.7
					C71.7,153.7,71.7,153.5,71.7,153.4z"/>
				<path class="st16" d="M149.6,153v-14.7c0-0.1,0-0.1,0-0.2c-0.2-1.3-2.7-17.5-13.4-23.7c-15.2-8.8-23.1,7.4-39.5-5.8
					c-0.6-0.4-1.2,0.3-1,1.1c1,3.6,3.5,10.3,8.6,15c0.6,0.6,0.2,1.9-0.6,1.6c-2.2-0.8-4.3-2.1-6-3.8c-0.6-0.5-1.3,0.2-1,1
					c1.3,4.7,5.2,13.8,16.3,16.9c0.5,0.3,0.7,0.9,0.4,1.4c-0.1,0.2-0.2,0.3-0.4,0.4c-2.9,0.8-5.9,1-8.9,0.6c-0.6-0.1-1,0.9-0.6,1.5
					c2.3,3.3,8.4,9.8,19.8,8.7c0.8-0.1,1,1.3,0.3,1.7c-3.8,2.2-8.2,3-12.6,2.4c-0.8-0.1-1,1.2-0.4,1.7c7.1,4.8,24.8,13.7,38.9-5.2
					C149.6,153.4,149.6,153.2,149.6,153z"/>
				<path class="st17" d="M164,242.2v-54.5c0-2.8,2.3-5,5-5s5,2.3,5,5v55.6l3.6,0.8c0.6,0.1,1.2,0.5,1.6,0.9l0.8,0.8
					c1.1,1.2,1,3.1-0.2,4.2c-0.5,0.5-1.3,0.8-2,0.8h-12c-1.7,0-3-1.3-3-3l0,0v-3.3C162.9,243.7,163.3,242.8,164,242.2z"/>
				<path class="st17" d="M156.7,242.2v-54.5c0-2.8-2.3-5-5-5c-2.8,0-5,2.3-5,5v55.4c0,0.1,0,0.1,0,0.2l-3.7,0.8
					c-0.6,0.1-1.2,0.5-1.6,0.9l-0.8,0.8c-1.1,1.2-1,3.1,0.2,4.2c0.5,0.5,1.3,0.8,2,0.8h12c1.7,0,3-1.3,3-3l0,0v-3.3
					C157.9,243.7,157.4,242.8,156.7,242.2z"/>
				<path class="st16" d="M168.6,153v-14.7c0-0.1,0-0.1,0-0.2c0.2-1.3,2.8-17.5,13.4-23.7c15.2-8.8,23.1,7.3,39.5-5.7
					c0.6-0.5,1.2,0.3,1,1.1c-1,3.6-3.5,10.2-8.5,14.8c-0.6,0.6-0.1,1.9,0.6,1.6c2.2-0.8,4.2-2.1,5.9-3.7c0.6-0.6,1.3,0.2,1.1,1.1
					c-1.3,4.7-5.3,13.7-16.2,16.8c-0.5,0.2-0.7,0.8-0.5,1.3c0.1,0.2,0.3,0.4,0.5,0.5c2.9,0.7,5.8,0.9,8.8,0.6c0.6-0.1,1,0.9,0.6,1.6
					c-2.3,3.3-8.4,9.7-19.6,8.7c-0.8-0.1-1.1,1.4-0.3,1.8c3.8,2.1,8.1,3,12.4,2.4c0.8-0.1,1.1,1.3,0.4,1.7
					c-7.2,4.8-24.8,13.6-38.8-5.2C168.6,153.5,168.6,153.2,168.6,153z"/>
				<path class="st18" d="M178.4,204.1L178.4,204.1c-2.8,0-5.1-2.3-5.1-5.1v-59.4c0-2.8,2.3-5.1,5.1-5.1l0,0c2.8,0,5.1,2.3,5.1,5.1
					v59.4C183.5,201.8,181.2,204,178.4,204.1z"/>
				<path class="st16" d="M146.1,100c0,3.3-2.6,5.9-5.9,5.9s-5.9-2.6-5.9-5.9s2.6-5.9,5.9-5.9l0,0C143.5,94.1,146.1,96.7,146.1,100z
					"/>
				<path class="st17" d="M142.9,105.6c0,2.5-2,4.6-4.6,4.6c-2.5,0-4.6-2-4.6-4.6c0-2.5,2-4.6,4.6-4.6c0,0,0,0,0,0
					C140.8,101,142.9,103.1,142.9,105.6C142.9,105.6,142.9,105.6,142.9,105.6z"/>
				<path class="st18" d="M141.3,105.6c0,1.7-1.3,3-3,3s-3-1.3-3-3s1.3-3,3-3S141.3,104,141.3,105.6z"/>
				<path class="st16" d="M145.8,89.2c0,3.5-2.8,6.3-6.4,6.3c-3.5,0-6.3-2.8-6.3-6.4c0-3.5,2.8-6.3,6.4-6.3c0,0,0,0,0,0
					C143,82.8,145.8,85.7,145.8,89.2C145.8,89.2,145.8,89.2,145.8,89.2z"/>
				<path class="st19" d="M152.6,81.4c0,3.6-2.9,6.5-6.5,6.5c-3.6,0-6.5-2.9-6.5-6.5c0-3.6,2.9-6.5,6.5-6.5l0,0
					C149.7,74.9,152.6,77.8,152.6,81.4z"/>
				<path class="st16" d="M173.5,89.2c0,3.5,2.8,6.3,6.4,6.3c3.5,0,6.3-2.8,6.3-6.3c0-3.5-2.8-6.3-6.3-6.3
					C176.4,82.8,173.5,85.7,173.5,89.2C173.5,89.2,173.5,89.2,173.5,89.2z"/>
				<path class="st19" d="M166.8,81.4c0,3.6,2.9,6.5,6.5,6.5c3.6,0,6.5-2.9,6.5-6.5c0-3.6-2.9-6.5-6.5-6.5c0,0,0,0,0,0
					C169.7,74.9,166.8,77.8,166.8,81.4z"/>
				<path class="st16" d="M173.2,100c0,3.3,2.6,5.9,5.9,5.9c3.3,0,5.9-2.6,5.9-5.9s-2.6-5.9-5.9-5.9c0,0,0,0,0,0
					C175.9,94.1,173.2,96.7,173.2,100z"/>
				<path class="st17" d="M184.6,105.9c0,2.5-2,4.6-4.6,4.6c-2.5,0-4.6-2-4.6-4.6s2-4.6,4.6-4.6c0,0,0,0,0,0
					C182.5,101.3,184.6,103.4,184.6,105.9z"/>
				<path class="st18" d="M183,105.9c0,1.7-1.3,3-3,3s-3-1.3-3-3s1.3-3,3-3S183,104.2,183,105.9z"/>
				<path class="st17" d="M158,122.1h2.8c1,0,1.9,0.8,1.9,1.8v8.6c0,1-0.8,1.9-1.9,1.9H158c-1,0-1.9-0.8-1.9-1.9v-8.6
					C156.1,122.9,156.9,122.1,158,122.1z"/>
				<path class="st18" d="M159.3,128.2L159.3,128.2c-11.4,0-20.6-9.2-20.6-20.6v-8.6c0-11.4,9.2-20.6,20.6-20.6l0,0
					c11.4,0,20.6,9.2,20.6,20.6v8.6C179.9,119,170.7,128.2,159.3,128.2z"/>
				<path class="st17" d="M178.9,91.4c-2.8-8.4-10.7-14-19.5-14l0,0c-9.2,0-17.3,6.2-19.8,15.1c-0.5,1.8-0.8,3.6-0.8,5.5v8.6
					c0,11.4,9.2,20.6,20.6,20.6l0,0c11.4,0,20.6-9.2,20.6-20.6v-8.7C179.9,95.7,179.6,93.5,178.9,91.4z"/>
				<path class="st20" d="M157.2,112.6h-1.6c0-0.9,0.7-1.6,1.6-1.6c0.9,0,1.6,0.7,1.6,1.6H157.2z"/>
				<path class="st21" d="M163.9,112.9L163.9,112.9c-1.1,0-2.1-0.9-2.1-2.1v-3.8c0-1.1,0.9-2.1,2.1-2.1l0,0c1.1,0,2.1,0.9,2.1,2.1
					v3.8C166,112,165,112.9,163.9,112.9z"/>
				<path class="st21" d="M149.8,112.9L149.8,112.9c-1.1,0-2.1-0.9-2.1-2.1v-3.8c0-1.1,0.9-2.1,2.1-2.1l0,0c1.1,0,2.1,0.9,2.1,2.1
					v3.8C151.8,112,150.9,112.9,149.8,112.9z"/>
				<path class="st16" d="M168,103.9l-7.4-2.2c-0.7-0.2-1.2-1-0.9-1.7l0,0c0.2-0.7,1-1.2,1.7-0.9l7.4,2.2c0.7,0.2,1.1,1,0.9,1.7l0,0
					C169.5,103.7,168.7,104.1,168,103.9z"/>
				<path class="st16" d="M144.2,103.9l7.4-2.2c0.7-0.2,1.2-1,0.9-1.7l0,0c-0.2-0.7-1-1.2-1.7-0.9c0,0,0,0,0,0l-7.4,2.2
					c-0.7,0.2-1.2,1-0.9,1.7l0,0C142.7,103.7,143.5,104.1,144.2,103.9z"/>
				<path class="st22" d="M154.9,114.7c-0.1,1.5,1,2.7,2.5,2.8c1.5,0.1,2.7-1,2.8-2.5c0-0.1,0-0.2,0-0.3H154.9z"/>
				<circle class="st16" cx="159.2" cy="78.5" r="9.3"/>
				<path class="st16" d="M172.5,88.6h-26.3c-4,0-7.2-3.2-7.2-7.2l0,0c0-4,3.2-7.2,7.2-7.2h26.3c4,0,7.2,3.2,7.2,7.2l0,0
					C179.7,85.3,176.5,88.5,172.5,88.6z"/>
				<path class="st16" d="M149.2,87.9c0,3.2-2.6,5.8-5.8,5.8c-3.2,0-5.8-2.6-5.8-5.8c0-3.2,2.6-5.8,5.8-5.8c0,0,0,0,0,0
					C146.6,82.1,149.2,84.7,149.2,87.9z"/>
				<path class="st16" d="M160.4,87.9c0,3.2-2.6,5.8-5.8,5.8c-3.2,0-5.8-2.6-5.8-5.8c0-3.2,2.6-5.8,5.8-5.8S160.4,84.7,160.4,87.9
					L160.4,87.9z"/>
				<circle class="st16" cx="165.2" cy="87.9" r="5.8"/>
				<path class="st16" d="M181.2,87.9c0,3.2-2.6,5.8-5.8,5.8c-3.2,0-5.8-2.6-5.8-5.8c0-3.2,2.6-5.8,5.8-5.8c0,0,0,0,0,0
					C178.6,82.1,181.2,84.7,181.2,87.9z"/>
				<path class="st17" d="M120,189.3c-3,0.6-6-1.3-6.7-4.4c-0.6-2.9,1.2-5.8,4-6.6c11.8-3.2,20-25.6,21.9-33.3c0.8-3,3.9-4.8,6.9-4
					c2.9,0.8,4.7,3.8,4,6.7c-1.7,6.2-4,12.2-6.8,18c-6.4,13.1-14.2,21-23.1,23.4L120,189.3z"/>
				<path class="st17" d="M180.2,149.8c0-11.3-9.1-20.4-20.4-20.4h0l0,0c-11.3,0-20.4,9.1-20.4,20.4c0,0,0,0,0,0v38.4h40.8
					L180.2,149.8z"/>
				<path class="st11" d="M159.8,209.8L159.8,209.8c11.3,0,20.4-9.1,20.4-20.4v-17.1l-40.8,12.8v4.2
					C139.5,200.6,148.6,209.8,159.8,209.8z"/>
				<path class="st11" d="M148.8,108L148.8,108c-0.2,0-0.4-0.2-0.4-0.4v-0.5c0-0.2,0.2-0.4,0.4-0.4l0,0c0.2,0,0.4,0.2,0.4,0.4v0.5
					C149.2,107.8,149,108,148.8,108z"/>
				<path class="st11" d="M162.6,108L162.6,108c-0.2,0-0.4-0.2-0.4-0.4v-0.5c0-0.2,0.2-0.4,0.4-0.4l0,0c0.2,0,0.4,0.2,0.4,0.4v0.5
					C163,107.8,162.8,108,162.6,108z"/>
				<path class="st23" d="M74.2,242.2v-54.5c0-2.8,2.3-5,5-5s5,2.3,5,5v55.4c0,0.1,0,0.1,0,0.2l3.7,0.8c0.6,0.1,1.2,0.5,1.6,0.9
					l0.8,0.8c1.1,1.2,1,3.1-0.2,4.2c-0.5,0.5-1.3,0.8-2,0.8H76c-1.7,0-3-1.3-3-3l0,0v-3.3C73,243.7,73.4,242.8,74.2,242.2z"/>
				<path class="st23" d="M66.9,242.2v-54.5c0-2.8-2.3-5-5-5c-2.8,0-5,2.3-5,5v55.4c0,0.1,0,0.1,0,0.2l-3.7,0.8
					c-0.6,0.1-1.2,0.5-1.6,0.9l-0.8,0.8c-1.1,1.2-1,3.1,0.2,4.2c0.5,0.5,1.3,0.8,2,0.8h12c1.7,0,3-1.3,3-3l0,0v-3.3
					C68,243.7,67.6,242.8,66.9,242.2z"/>
				<rect x="48.4" y="95.7" class="st24" width="42.2" height="63.5"/>
				<path class="st16" d="M114.7,189.2c-0.9,0-1.7-0.2-2.5-0.6c-19.7-9.7-33.4-41-34-42.3c-1.1-2.9,0.3-6.2,3.2-7.3
					c2.7-1.1,5.8,0.2,7.1,2.8l0,0c0.1,0.3,12.6,28.8,28.6,36.7c2.8,1.4,3.9,4.7,2.6,7.5C118.8,188,116.8,189.2,114.7,189.2
					L114.7,189.2z"/>
				<path class="st16" d="M56.6,114.8c0,2-1.6,3.6-3.6,3.6c-2,0-3.6-1.6-3.6-3.6c0-2,1.6-3.6,3.6-3.6c0,0,0,0,0,0
					C55,111.2,56.6,112.9,56.6,114.8z"/>
				<path class="st25" d="M55.3,114.8c0,1.3-1,2.3-2.3,2.3c-1.3,0-2.3-1-2.3-2.3s1-2.3,2.3-2.3c0,0,0,0,0,0
					C54.3,112.5,55.3,113.6,55.3,114.8z"/>
				<path class="st16" d="M89.2,114.8c0,2-1.6,3.6-3.6,3.6s-3.6-1.6-3.6-3.6c0-2,1.6-3.6,3.6-3.6c0,0,0,0,0,0
					C87.6,111.3,89.2,112.9,89.2,114.8z"/>
				<path class="st25" d="M88,114.8c0,1.3-1,2.3-2.3,2.3s-2.3-1-2.3-2.3s1-2.3,2.3-2.3c0,0,0,0,0,0C87,112.5,88,113.6,88,114.8z"/>
				<path class="st16" d="M51.2,139.5h0.4c2.7,0,4.9,2.2,4.9,4.9v59.9c0,2.7-2.2,4.9-4.9,4.9h-0.4c-2.7,0-4.9-2.2-4.9-4.9v-59.9
					C46.3,141.7,48.5,139.5,51.2,139.5z"/>
				<path class="st16" d="M68.3,127.2h2.8c1,0,1.9,0.8,1.9,1.9v8.6c0,1-0.8,1.9-1.9,1.9h-2.8c-1,0-1.8-0.8-1.8-1.9V129
					C66.5,128,67.3,127.2,68.3,127.2z"/>
				<path class="st25" d="M68.9,92.2h1.4c8.5,0,15.4,6.9,15.4,15.4v8.1c0,8.5-6.9,15.4-15.4,15.4h-1.4c-8.5,0-15.4-6.9-15.4-15.4
					v-8.1C53.5,99.2,60.4,92.2,68.9,92.2z"/>
				<path class="st16" d="M68.9,91.4h1.4c8.5,0,15.4,6.9,15.4,15.4v8.1c0,8.5-6.9,15.4-15.4,15.4h-1.4c-8.5,0-15.4-6.9-15.4-15.4
					v-8.1C53.5,98.3,60.4,91.4,68.9,91.4z"/>
				<path class="st24" d="M53.4,85.3h32.7c5.1,0,9.3,4.2,9.3,9.3v0.9c0,5.1-4.2,9.3-9.3,9.3H53.4c-5.1,0-9.3-4.2-9.3-9.3v-0.9
					C44.1,89.5,48.2,85.3,53.4,85.3z"/>
				<path class="st21" d="M79,111.3h0.2c1.1,0,2,0.9,2,2v3.9c0,1.1-0.9,2-2,2H79c-1.1,0-2-0.9-2-2v-3.9
					C77,112.1,77.9,111.3,79,111.3z"/>
				<path class="st21" d="M64.2,111.3h0.2c1.1,0,2,0.9,2,2v3.9c0,1.1-0.9,2-2,2h-0.2c-1.1,0-2-0.9-2-2v-3.9
					C62.2,112.1,63.1,111.3,64.2,111.3z"/>
				<path class="st25" d="M71.7,118.7h-1.2c0-0.7,0.5-1.2,1.2-1.2s1.2,0.5,1.2,1.2H71.7z"/>
				<path class="st24" d="M81.8,110.3h-6.1c-0.6,0-1.1-0.5-1.1-1.1l0,0c0-0.6,0.5-1.1,1.1-1.1h6.1c0.6,0,1.1,0.5,1.1,1.1l0,0
					C82.9,109.8,82.4,110.3,81.8,110.3z"/>
				<path class="st24" d="M67.6,110.3h-6.1c-0.6,0-1.1-0.5-1.1-1.1l0,0c0-0.6,0.5-1.1,1.1-1.1h6.1c0.6,0,1.1,0.5,1.1,1.1l0,0
					C68.7,109.8,68.2,110.3,67.6,110.3z"/>
				<path class="st22" d="M69.6,119.9c0,1.1,0.9,2.1,2.1,2.1c1.1,0,2.1-0.9,2.1-2.1c0,0,0,0,0,0H69.6z"/>
				<path class="st6" d="M80,137l-6.2,10.7c-1.5,2.5-4.7,3.4-7.2,1.9c-0.8-0.5-1.5-1.1-1.9-1.9l-5.7-9.9c-5.7,3.8-9.2,10.2-9.2,17
					v97.5l42.8,0.1l-2-97.6C90.6,147.4,86.5,140.6,80,137z"/>
				<path class="st16" d="M73.8,147.7L80,137c-3-1.6-6.4-2.5-9.8-2.5l0,0c-4,0-7.9,1.2-11.2,3.4l5.7,9.9c1.5,2.5,4.7,3.4,7.2,1.9
					C72.7,149.2,73.3,148.5,73.8,147.7z"/>
				<path class="st11" d="M65.2,114.5L65.2,114.5c-0.2,0-0.4-0.2-0.4-0.4v-0.8c0-0.2,0.2-0.4,0.4-0.4l0,0c0.2,0,0.4,0.2,0.4,0.4v0.7
					C65.7,114.2,65.5,114.5,65.2,114.5C65.2,114.5,65.2,114.5,65.2,114.5z"/>
				<path class="st11" d="M80.2,114.5L80.2,114.5c-0.2,0-0.4-0.2-0.4-0.4v-0.8c0-0.2,0.2-0.4,0.4-0.4l0,0c0.2,0,0.4,0.2,0.4,0.4v0.7
					C80.7,114.2,80.5,114.5,80.2,114.5C80.3,114.5,80.3,114.5,80.2,114.5z"/>
				<path class="st16" d="M88,237.7v7.3c-0.1,3.4,2.3,6.4,5.7,7v5.3l-2.8,2c0,0,0.7,0.6,4,0.6l0,0c3.2,0,4-0.6,4-0.6l-2.8-2V252
					c3.3-0.7,5.6-3.6,5.6-6.9v-7.3L88,237.7z"/>
				<path class="st16" d="M98.7,216.2v7.3c-0.1,3.4,2.3,6.4,5.7,7v5.3l-2.8,2.1c0,0,0.7,0.6,4,0.6l0,0c3.2,0,4-0.6,4-0.6l-2.8-2
					v-5.3c3.3-0.7,5.6-3.5,5.6-6.9v-7.3L98.7,216.2z"/>
				<path class="st16" d="M109.4,237.7v7.3c-0.1,3.4,2.3,6.4,5.7,7v5.3l-2.8,2c0,0,0.7,0.6,4,0.6l0,0c3.2,0,4-0.6,4-0.6l-2.8-2V252
					c3.3-0.7,5.6-3.6,5.6-6.9v-7.3L109.4,237.7z"/>
				<path class="st16" d="M109.4,194.6v7.3c-0.1,3.4,2.3,6.4,5.7,7v5.3l-2.8,2c0,0,0.7,0.6,4,0.6l0,0c3.2,0,4-0.6,4-0.6l-2.8-2v-5.3
					c3.3-0.7,5.6-3.6,5.6-6.9v-7.3L109.4,194.6z"/>
				<path class="st16" d="M120,216.2v7.3c-0.1,3.4,2.3,6.4,5.7,7v5.3l-2.8,2.1c0,0,0.7,0.6,4,0.6l0,0c3.2,0,4-0.6,4-0.6l-2.8-2v-5.3
					c3.3-0.7,5.6-3.6,5.6-6.9v-7.3L120,216.2z"/>
				<path class="st16" d="M130.7,237.7v7.3c-0.1,3.4,2.3,6.4,5.7,7v5.3l-2.8,2c0,0,0.7,0.6,4,0.6l0,0c3.2,0,4-0.6,4-0.6l-2.9-2V252
					c3.3-0.7,5.6-3.6,5.6-6.9l0.1-7.3L130.7,237.7z"/>
				<path class="st16" d="M77.3,259.3v7.3c-0.1,3.4,2.3,6.4,5.7,7v5.3l-2.8,2c0,0,0.7,0.6,4,0.6l0,0c3.2,0,4-0.6,4-0.6l-2.8-2v-5.3
					c3.3-0.7,5.6-3.6,5.6-6.9l0.1-7.3L77.3,259.3z"/>
				<path class="st16" d="M98.8,259.3v7.3c-0.1,3.4,2.3,6.4,5.7,7v5.3l-2.8,2c0,0,0.7,0.6,4,0.6l0,0c3.2,0,4-0.6,4-0.6l-2.8-2v-5.3
					c3.3-0.7,5.6-3.6,5.6-6.9v-7.3L98.8,259.3z"/>
				<path class="st16" d="M120.1,259.3v7.3c-0.1,3.4,2.3,6.4,5.7,7v5.3l-2.8,2c0,0,0.7,0.6,4,0.6l0,0c3.2,0,4-0.6,4-0.6l-2.8-2v-5.3
					c3.3-0.7,5.6-3.6,5.6-6.9v-7.3L120.1,259.3z"/>
				<path class="st16" d="M141.4,259.3v7.3c-0.1,3.4,2.3,6.4,5.7,7v5.3l-2.9,2c0,0,0.7,0.6,4,0.6l0,0c3.2,0,4-0.6,4-0.6l-2.9-2v-5.3
					c3.3-0.7,5.6-3.6,5.6-6.9l0.1-7.3L141.4,259.3z"/>
			</g>
		</g>
	</g>
</g>
</svg>
