<?xml version="1.0" encoding="utf-8"?>
<!-- Generator: Adobe Illustrator 25.2.3, SVG Export Plug-In . SVG Version: 6.00 Build 0)  -->
<svg version="1.1" id="Layer_1" xmlns="http://www.w3.org/2000/svg" xmlns:xlink="http://www.w3.org/1999/xlink" x="0px" y="0px"
	 viewBox="0 0 235 381.2" style="enable-background:new 0 0 235 381.2;" xml:space="preserve">
<style type="text/css">
	.st0{fill:#F4B155;}
	.st1{fill:#FFF0CC;}
	.st2{fill:#231F20;}
	.st3{clip-path:url(#SVGID_2_);}
	.st4{fill:#A7F1F9;}
	.st5{fill:#789B78;}
	.st6{fill:#6D5954;}
	.st7{fill:#697F69;}
	.st8{fill:#5C6D5C;}
	.st9{fill:#86C489;}
	.st10{fill:#728E72;}
	.st11{fill:#67D8DB;}
	.st12{fill:#81EFEF;}
	.st13{fill:#7DAF7D;}
	.st14{fill:none;}
	.st15{fill:#F2C351;}
	.st16{fill:#FFD351;}
	.st17{fill:#F5B155;}
	.st18{fill:#48C2CA;}
	.st19{fill:#FFD150;}
	.st20{fill:#489DC8;}
	.st21{fill:#4A67C6;}
	.st22{fill:#414042;}
	.st23{fill:#3A335F;}
	.st24{fill:#FFFFFF;}
</style>
<g id="Layer_2_1_">
	<g id="Layer_1-2">
		<path class="st0" d="M235,14.4v352.3c0,8-6.7,14.5-15,14.5H15c-8.3,0-15-6.5-15-14.5V14.4C0,6.5,6.7,0,15,0h205
			C228.3,0,235,6.5,235,14.4z M222.4,358.3V22.8c0-6-4.8-10.8-10.8-10.8H23.4c-6,0-10.8,4.9-10.8,10.8v335.5c0,6,4.8,10.8,10.8,10.8
			h188.2C217.6,369.2,222.4,364.3,222.4,358.3L222.4,358.3z"/>
		<path class="st1" d="M23.4,12h188.2c6,0,10.8,4.8,10.8,10.8v335.5c0,6-4.8,10.8-10.8,10.8H23.4c-6,0-10.8-4.8-10.8-10.8V22.8
			C12.6,16.9,17.4,12,23.4,12z"/>
		<path class="st2" d="M57,335c-0.1-0.1-0.2-0.3-0.2-0.5v-11c0-0.2,0-0.4,0.2-0.5c0.1-0.1,0.3-0.2,0.5-0.2h4.7
			c1.2-0.1,2.4,0.3,3.3,1.1c0.8,0.8,1.1,1.9,1.1,3c0.1,1.1-0.3,2.2-1.1,3c-0.9,0.8-2.1,1.2-3.3,1.1h-3v3.5c0,0.2-0.1,0.3-0.2,0.5
			c-0.2,0.1-0.3,0.2-0.5,0.2h-1C57.3,335.2,57.1,335.1,57,335z M62,329.2c0.6,0,1.2-0.2,1.7-0.6c0.4-0.5,0.6-1.1,0.6-1.7
			c0.1-0.6-0.1-1.3-0.5-1.8c-0.4-0.4-1-0.6-1.7-0.6h-2.8v4.6H62z"/>
		<path class="st2" d="M65.8,334.9c0-0.1,0-0.2,0.1-0.2l4.8-11.4c0-0.1,0.1-0.3,0.2-0.4c0.1-0.1,0.2-0.1,0.4-0.1h1
			c0.1,0,0.3,0,0.4,0.1c0.1,0.1,0.2,0.2,0.2,0.4l4.8,11.4c0,0.1,0,0.2,0,0.2c0,0.2-0.1,0.3-0.3,0.3h-1.5c-0.1,0-0.2,0-0.3-0.1
			c-0.1-0.1-0.2-0.2-0.2-0.3l-1-2.5h-5l-1,2.5c0,0.1-0.1,0.2-0.2,0.3c-0.1,0-0.2,0.1-0.3,0.1h-1.6C65.9,335.1,65.8,335,65.8,334.9z
			 M73.7,330.6l-1.9-4.8l-1.9,4.8H73.7z"/>
		<path class="st2" d="M80.8,333.7c-2.3-2.8-2.3-6.8,0-9.5c1.3-1.2,3-1.8,4.8-1.7c0.8,0,1.6,0.1,2.3,0.3c0.6,0.1,1.2,0.4,1.8,0.7
			c0.1,0,0.2,0.1,0.2,0.2c0,0.1,0,0.2-0.1,0.2l-0.5,0.9c0,0.1-0.1,0.1-0.2,0.1c-0.1,0-0.2,0-0.2-0.1c-0.9-0.5-2-0.7-3-0.7
			c-1.2-0.1-2.4,0.4-3.2,1.2c-0.8,1-1.3,2.3-1.1,3.6c-0.1,1.3,0.3,2.6,1.2,3.6c0.8,0.8,2,1.2,3.1,1.2c0.5,0,1,0,1.4-0.1
			c0.4-0.1,0.8-0.2,1.1-0.3v-3.4h-2.4c-0.2,0-0.4,0-0.5-0.2c-0.1-0.1-0.2-0.3-0.2-0.5v-0.5c0-0.2,0-0.3,0.2-0.5
			c0.1-0.1,0.3-0.2,0.5-0.1h3.8c0.2,0,0.4,0.1,0.6,0.2c0.1,0.2,0.2,0.4,0.2,0.6v4.8c0,0.1,0,0.3,0,0.4c-0.1,0.1-0.1,0.2-0.2,0.2
			c-1.4,0.8-3,1.1-4.5,1C83.9,335.6,82.1,334.9,80.8,333.7z"/>
		<path class="st2" d="M92.3,335c-0.1-0.1-0.2-0.3-0.2-0.5v-11c0-0.2,0-0.4,0.2-0.5c0.1-0.1,0.3-0.2,0.5-0.2h7.6
			c0.3-0.1,0.6,0.1,0.6,0.4c0,0.1,0,0.2,0,0.2v0.5c0,0.2,0,0.4-0.1,0.5c-0.1,0.1-0.3,0.2-0.5,0.2h-5.9v3.5h4.3c0.2,0,0.4,0,0.5,0.1
			c0.1,0.1,0.2,0.3,0.2,0.5v0.5c0,0.2,0,0.4-0.2,0.5c-0.1,0.1-0.3,0.2-0.5,0.1h-4.3v3.5h5.9c0.2,0,0.4,0,0.5,0.2
			c0.1,0.1,0.2,0.3,0.2,0.5v0.5c0,0.2,0,0.3-0.2,0.5c-0.1,0.1-0.3,0.2-0.5,0.1h-7.5C92.7,335.2,92.5,335.1,92.3,335z"/>
		<path class="st2" d="M111,333.7c-2.1-2.8-2.1-6.7,0-9.5c2.6-2.3,6.5-2.3,9.2,0c2.2,2.8,2.2,6.7,0,9.5
			C117.5,336,113.7,336,111,333.7z M118.5,332.5c1.3-2.2,1.3-4.9,0-7c-1.6-1.6-4.2-1.6-5.8,0c-1.3,2.2-1.3,4.9,0,7
			C114.3,334.1,116.9,334.1,118.5,332.5C118.5,332.5,118.5,332.5,118.5,332.5z"/>
		<path class="st2" d="M123.7,335c-0.1-0.1-0.2-0.3-0.2-0.5v-11c0-0.2,0-0.4,0.2-0.5c0.1-0.1,0.3-0.2,0.5-0.2h7.6
			c0.3-0.1,0.6,0.1,0.6,0.4c0,0.1,0,0.2,0,0.2v0.5c0,0.2,0,0.4-0.1,0.5c-0.1,0.1-0.3,0.2-0.5,0.2h-5.9v3.5h4.3c0.2,0,0.4,0,0.5,0.1
			c0.1,0.1,0.2,0.3,0.1,0.5v0.5c0,0.2,0,0.4-0.1,0.5c-0.1,0.1-0.3,0.2-0.5,0.1h-4.3v4.6c0,0.2,0,0.4-0.2,0.5
			c-0.2,0.1-0.3,0.2-0.5,0.2h-1C124,335.2,123.8,335.1,123.7,335z"/>
		<path class="st2" d="M142.4,333.6c-2.8-2.6-3-7-0.4-9.9c1.4-1.5,3.4-2.4,5.5-2.2c0.8,0,1.7,0.1,2.5,0.3c0.7,0.1,1.3,0.4,1.9,0.8
			c0.1,0.1,0.2,0.1,0.2,0.3c0,0.1,0,0.2-0.1,0.3l-0.6,0.9c-0.1,0.1-0.1,0.2-0.2,0.2c-0.1,0-0.2,0-0.3-0.1c-1-0.5-2.1-0.8-3.2-0.7
			c-1.3-0.1-2.5,0.4-3.5,1.3c-0.9,1.1-1.4,2.4-1.3,3.8c-0.1,1.4,0.4,2.8,1.3,3.9c0.9,0.9,2.2,1.3,3.5,1.3c1.2,0,2.3-0.2,3.4-0.8
			c0.1,0,0.2-0.1,0.3-0.1c0.1,0,0.2,0.1,0.2,0.2l0.6,1c0,0.1,0.1,0.1,0.1,0.2c0,0.1-0.1,0.2-0.2,0.3c-1.4,0.8-3,1.2-4.6,1.1
			C145.7,335.5,143.8,334.9,142.4,333.6z"/>
		<path class="st2" d="M157.1,334.8c-0.9-0.4-1.6-1-2.1-1.7c-0.5-0.8-0.8-1.7-0.8-2.7v-7.9c0-0.2,0-0.4,0.2-0.5
			c0.2-0.1,0.4-0.2,0.6-0.2h1c0.2,0,0.4,0,0.6,0.2c0.1,0.2,0.2,0.4,0.2,0.5v8c-0.1,0.9,0.3,1.7,0.9,2.3c0.7,0.6,1.6,0.9,2.6,0.8
			c0.9,0.1,1.8-0.2,2.5-0.8c0.6-0.6,1-1.4,0.9-2.3v-8c-0.1-0.3,0.2-0.7,0.5-0.7c0.1,0,0.1,0,0.2,0h1c0.5,0,0.8,0.2,0.8,0.7v7.9
			c0,0.9-0.2,1.9-0.8,2.7c-0.5,0.8-1.3,1.4-2.1,1.7C161.2,335.6,159,335.6,157.1,334.8L157.1,334.8z"/>
		<path class="st2" d="M168.5,335c-0.1-0.1-0.2-0.3-0.2-0.5v-12c0-0.2,0-0.4,0.2-0.5c0.2-0.1,0.4-0.2,0.6-0.2h5
			c1.3-0.1,2.6,0.3,3.6,1.1c1.6,1.9,1.6,4.6,0,6.5c-1,0.8-2.3,1.2-3.6,1.1h-3.2v3.8c0,0.2,0,0.4-0.2,0.5c-0.2,0.1-0.4,0.2-0.6,0.2
			h-1C168.9,335.2,168.7,335.1,168.5,335z M174,328.7c0.7,0,1.3-0.2,1.8-0.6c0.4-0.5,0.6-1.2,0.6-1.9c0.1-0.7-0.2-1.4-0.6-1.9
			c-0.5-0.4-1.1-0.7-1.8-0.6h-3.1v5L174,328.7z"/>
		<g>
			<defs>
				<path id="SVGID_1_" d="M51.6,43.9h129c13.7,0,24.8,11.1,24.8,24.8V261c0,13.7-11.1,24.8-24.8,24.8h-129
					c-13.7,0-24.8-11.1-24.8-24.8V68.7C26.8,55,37.9,43.9,51.6,43.9z"/>
			</defs>
			<clipPath id="SVGID_2_">
				<use xlink:href="#SVGID_1_"  style="overflow:visible;"/>
			</clipPath>
			<g class="st3">
				<rect x="12.4" y="17.8" class="st4" width="204.2" height="157.6"/>
				<polygon class="st5" points="24,157.9 53.2,140.4 94,152.1 117.4,146.2 134.9,152.1 181.6,146.2 216.6,169.6 216.6,187.1 
					24,187.1 				"/>
				<path class="st6" d="M152.4,204.6L152.4,204.6c-3.2,0-5.8-2.6-5.8-5.8v-64.2c0-3.2,2.6-5.8,5.8-5.8l0,0c3.2,0,5.8,2.6,5.8,5.8
					v64.2C158.2,201.9,155.6,204.6,152.4,204.6z"/>
				<path class="st7" d="M116.5,125.9l2.2-13.5c0.7-4.3,4.7-7.1,8.9-6.5l53.9,8.7c4.3,0.7,7.1,4.7,6.5,8.9l-2.2,13.5
					c-0.7,4.3-4.7,7.1-8.9,6.5l-53.9-8.7C118.7,134.2,115.8,130.2,116.5,125.9z"/>
				<path class="st6" d="M88.2,135.5L88.2,135.5c2.7,0,4.9,2.2,4.9,4.9v53.5c0,2.7-2.2,4.9-4.9,4.9h0c-2.7,0-4.9-2.2-4.9-4.9v-53.5
					C83.3,137.7,85.5,135.5,88.2,135.5z"/>
				<path class="st6" d="M41.5,187.1L41.5,187.1c-3.2,0-5.8-2.6-5.8-5.8V117c0-3.2,2.6-5.8,5.8-5.8l0,0c3.2,0,5.8,2.6,5.8,5.8v64.2
					C47.4,184.4,44.8,187,41.5,187.1C41.5,187.1,41.5,187.1,41.5,187.1z"/>
				<path class="st6" d="M63.9,187.1L63.9,187.1c-2.7,0-4.9-2.2-4.9-4.9c0,0,0,0,0,0v-53.5c0-2.7,2.2-4.9,4.9-4.9l0,0
					c2.7,0,4.9,2.2,4.9,4.9v53.5C68.7,184.9,66.6,187,63.9,187.1z"/>
				<path class="st6" d="M176.7,187.1L176.7,187.1c-2.7,0-4.8-2.2-4.9-4.9v-53.5c0-2.7,2.2-4.9,4.9-4.9l0,0c2.7,0,4.9,2.2,4.9,4.9
					v53.5C181.6,184.9,179.4,187.1,176.7,187.1z"/>
				<path class="st8" d="M107.1,137.1l-33.5,6.1c-6.6,1.2-12.9-3.2-14.1-9.8l0,0c-1.2-6.6,3.2-12.9,9.8-14.1l33.5-6.1
					c6.6-1.2,12.9,3.2,14.1,9.8l0,0C118.1,129.6,113.7,135.9,107.1,137.1z"/>
				<path class="st6" d="M117.4,181.2L117.4,181.2c-3.2,0-5.8-2.6-5.8-5.8v-64.2c0-3.2,2.6-5.8,5.8-5.8l0,0c3.2,0,5.8,2.6,5.8,5.8
					v64.2C123.2,178.6,120.6,181.2,117.4,181.2z"/>
				<path class="st6" d="M199.1,192.9L199.1,192.9c-3.2,0-5.8-2.6-5.8-5.8v-64.2c0-3.2,2.6-5.8,5.8-5.8l0,0c3.2,0,5.8,2.6,5.8,5.8
					v64.2C204.9,190.3,202.3,192.9,199.1,192.9z"/>
				<ellipse class="st9" cx="111.7" cy="199.3" rx="116.6" ry="40.2"/>
				<path class="st10" d="M70,134.2l-51.3,11.2c-20.5,4.4-40.6-8.6-45.1-29l0,0c-4.4-20.5,8.6-40.6,29-45.1l51.3-11.2
					c20.5-4.4,40.6,8.6,45.1,29l0,0C103.4,109.5,90.4,129.7,70,134.2z"/>
				<path class="st10" d="M222.7,151.1l-51.2-11.8c-20.4-4.7-33.1-25-28.5-45.5l0,0c4.7-20.4,25.1-33.1,45.5-28.5l51.2,11.8
					c20.4,4.7,33.1,25.1,28.5,45.5l0,0C263.4,143,243.1,155.7,222.7,151.1z"/>
				<rect x="12.4" y="227.9" class="st9" width="204.2" height="64.2"/>
				<ellipse class="st6" cx="111.7" cy="218.5" rx="99.1" ry="25.6"/>
				<ellipse class="st11" cx="111.7" cy="225.6" rx="99.1" ry="25.6"/>
				<path class="st12" d="M73.6,210.4h52.5c1.6,0,2.9,1.3,2.9,2.9l0,0c0,1.6-1.3,2.9-2.9,2.9H73.6c-1.6,0-2.9-1.3-2.9-2.9l0,0
					C70.7,211.7,72,210.4,73.6,210.4z"/>
				<path class="st13" d="M160.7,274.6H77.6c-5.3,0-9.6-4.4-9.6-9.7l0,0c0-5.3,4.3-9.6,9.7-9.7h83.1c5.3,0,9.6,4.3,9.7,9.7l0,0
					C170.4,270.2,166,274.6,160.7,274.6z"/>
				<polygon class="st14" points="198.9,12 35.7,12 35.7,184.7 35.7,204.7 35.7,299.4 198.8,299.4 198.8,204.7 198.9,204.7 				"/>
				<path class="st15" d="M80.4,267.7c-2.3,0-4.2-1.9-4.2-4.2c0-2.3,1.9-4.2,4.2-4.2l0,0c10,0,16.7-2.5,19.8-7.4
					c5-7.9,0.2-21.5-2-26.1c-1-2.1-0.2-4.6,1.9-5.6c2.1-1,4.6-0.2,5.6,1.9l0,0c0.4,0.8,10,20.7,1.6,34.2
					C102.7,263.8,93.6,267.7,80.4,267.7z"/>
				<path class="st16" d="M81.2,245.3v6.6c0,3.2,2.3,5.8,5.4,6.4v4.8l-2.7,1.9c0,0,0.7,0.5,3.7,0.5l0,0c3,0,3.8-0.5,3.8-0.5
					l-2.7-1.8v-4.8c3.1-0.5,5.3-3.2,5.3-6.3v-6.6L81.2,245.3z"/>
				<ellipse class="st17" cx="87.6" cy="245.3" rx="6.4" ry="1"/>
				<path class="st12" d="M84.1,243.4c-0.3,0-0.5,0.1-0.7,0.3c0.3-0.1,0.7-0.1,1.1-0.2C84.4,243.4,84.2,243.3,84.1,243.4z"/>
				<path class="st12" d="M93,243.6c-0.4-0.3-1-0.4-1.4-0.1c0.6,0.1,1.1,0.3,1.6,0.5C93.2,243.9,93.1,243.7,93,243.6z"/>
				<path class="st18" d="M81.1,245h0.1c0-0.1-0.1-0.1-0.1-0.2C81.1,244.9,81.1,244.9,81.1,245c0,0.1,0,0.1,0,0.2L81.1,245z"/>
				<path class="st12" d="M83.1,244.3v0.2c0,0.2-0.1,0.4-0.2,0.5h2.4c-0.1-0.2-0.2-0.3-0.2-0.5v-0.2c0-0.3-0.1-0.5-0.3-0.7
					c-0.1-0.1-0.2-0.2-0.3-0.2c-0.4,0.1-0.8,0.1-1.1,0.2C83.2,243.8,83.1,244,83.1,244.3z"/>
				<path class="st12" d="M91.3,244.3v0.2c0,0.2-0.1,0.4-0.2,0.6h2.5c-0.1-0.2-0.2-0.4-0.2-0.6v-0.2c0-0.1,0-0.2,0-0.2
					c-0.5-0.2-1.1-0.4-1.6-0.5C91.5,243.7,91.3,244,91.3,244.3z"/>
				<path class="st12" d="M89.3,244.5v-0.2c0-0.3-0.1-0.5-0.3-0.7c-0.2-0.2-0.5-0.3-0.7-0.3c-0.5,0-1,0.4-1,0.9v0.2
					c0,0.2-0.1,0.4-0.2,0.5h2.4C89.3,244.9,89.3,244.7,89.3,244.5z"/>
				<path class="st12" d="M93.6,245.1h-2.5c-0.3,0.5-0.9,0.6-1.4,0.2c-0.1-0.1-0.2-0.1-0.2-0.2L87,245c-0.2,0.3-0.5,0.4-0.8,0.4
					c-0.3,0-0.7-0.2-0.9-0.4h-2.4c-0.2,0.3-0.5,0.4-0.9,0.4c-0.3,0-0.7-0.2-0.9-0.4h-0.1v0.2c0.4,0.9,3.2,1.6,6.6,1.6
					c3.1,0,5.8-0.6,6.4-1.4C93.9,245.3,93.7,245.2,93.6,245.1z"/>
				<path class="st15" d="M158,247.1h-29c-2.8,0-5,2.2-5,5s2.2,5,5,5h30.1l0.8,3.6c0.1,0.6,0.5,1.2,0.9,1.6l0.8,0.8
					c1.2,1.1,3.1,1,4.2-0.2c0.5-0.5,0.8-1.3,0.8-2v-12c0-1.7-1.3-3-3-3l0,0h-3.2C159.4,245.9,158.5,246.3,158,247.1z"/>
				<path class="st19" d="M155.8,253.1h-31.2c-3,0-5.4,2.4-5.4,5.4c0,3,2.4,5.4,5.4,5.4h32.3l0.8,3.9c0.1,0.7,0.5,1.3,1,1.7l0.9,0.8
					c1.3,1.2,3.4,1.1,4.6-0.2c0.5-0.6,0.8-1.4,0.8-2.1V255c0-1.8-1.5-3.2-3.2-3.2h-3.5C157.3,251.8,156.4,252.3,155.8,253.1z"/>
				<path class="st20" d="M127.8,262.3l21.8-19.4l-26.3-29.6c-5.4-6-14.6-6.6-20.6-1.2l0,0c-6,5.4-6.6,14.6-1.2,20.6L127.8,262.3z"
					/>
				<path class="st21" d="M146,245.9h-30.2c-2,0-3.6-1.6-3.6-3.6l0,0c0-2,1.6-3.6,3.6-3.6H146c2,0,3.6,1.6,3.6,3.6l0,0
					C149.6,244.3,148,245.9,146,245.9z"/>
				<path class="st20" d="M116.8,267.7h33.9v-24.9h-33.9c-6.9,0-12.4,5.6-12.5,12.5l0,0C104.4,262.1,109.9,267.7,116.8,267.7z"/>
				<path class="st16" d="M87.6,270c-2.5,0-4.5-2-4.5-4.5c0-2.5,2-4.5,4.5-4.5c8.8,0,14.8-2.4,17.8-7.1c6-9.4-0.1-27.1-2.9-33.1
					c-1-2.3,0.1-5,2.4-5.9c2.2-0.9,4.7,0,5.8,2.1c0.5,1.1,12.2,26.3,2.4,41.9C108.4,266.2,99.8,270,87.6,270z"/>
				<path class="st16" d="M81.9,225.8l6,2.1c0.7,0.3,1.5-0.1,1.8-0.8c0,0,0,0,0,0l0.7-2.1L81.9,225.8z"/>
				<circle class="st22" cx="84.8" cy="191.8" r="12"/>
				<circle class="st22" cx="96.3" cy="202.3" r="12"/>
				<path class="st16" d="M83.6,215.2c1.8,0.8,2.6,2.9,1.8,4.7c-0.8,1.8-2.9,2.6-4.7,1.8c-1.8-0.8-2.6-2.9-1.8-4.7
					C79.7,215.3,81.8,214.4,83.6,215.2C83.6,215.2,83.6,215.2,83.6,215.2z"/>
				<path class="st17" d="M83.1,216.4c1.2,0.5,1.7,1.8,1.2,3c-0.5,1.2-1.8,1.7-3,1.2c-1.2-0.5-1.7-1.8-1.2-3c0,0,0,0,0,0
					C80.6,216.4,81.9,215.9,83.1,216.4z"/>
				<path class="st16" d="M64.4,205.8l0.4-1.7c2.1-8.1,10.3-12.9,18.3-10.9l8.1,2.1c8.1,2.1,12.9,10.3,10.9,18.3l-0.4,1.7
					c-2.1,8.1-10.3,12.9-18.3,10.9l-8.1-2.1C67.2,222.1,62.4,213.9,64.4,205.8z"/>
				<path class="st22" d="M58.6,216.1l6.9-26.9c1.2-4.9,6.2-7.8,11.1-6.6l1,0.3c4.9,1.2,7.8,6.2,6.6,11.1l-6.9,26.9
					c-1.2,4.9-6.2,7.8-11.1,6.6l-1-0.3C60.3,225.9,57.4,220.9,58.6,216.1z"/>
				<path class="st23" d="M81.4,221.5l0-0.2c0.2-0.8,1-1.3,1.7-1.1l2.9,0.7c0.8,0.2,1.3,1,1.1,1.7l0,0.2c-0.2,0.8-1,1.3-1.7,1.1
					l-2.9-0.7C81.8,223.1,81.3,222.3,81.4,221.5z"/>
				<path class="st22" d="M78.8,223.1l1.4-4.4c0.1-0.4,0.6-0.6,1-0.5l0.1,0c0.4,0.1,0.6,0.6,0.5,1l-1.4,4.4c-0.1,0.4-0.6,0.6-1,0.5
					l-0.1,0C78.9,223.9,78.6,223.5,78.8,223.1z"/>
				<path class="st22" d="M88,195.6l0,0.2c-0.2,1.1-1.3,1.9-2.5,1.6l-5.6-1.1c-1.1-0.2-1.9-1.3-1.6-2.5l0-0.2
					c0.2-1.1,1.3-1.9,2.5-1.6l5.6,1.1C87.4,193.4,88.2,194.5,88,195.6z"/>
				<path class="st22" d="M101,203.1l0.5-0.3c2.5-1.2,5.5-0.3,6.7,2.2l0.3,0.5c1.2,2.5,0.3,5.5-2.2,6.7l-0.5,0.3
					c-2.5,1.2-5.5,0.3-6.7-2.2l-0.3-0.5C97.5,207.3,98.5,204.3,101,203.1z"/>
				<path class="st22" d="M91.5,194.6l0.5-0.3c2.5-1.2,5.5-0.3,6.7,2.2l0.3,0.5c1.2,2.5,0.3,5.5-2.2,6.7l-0.5,0.3
					c-2.5,1.2-5.5,0.3-6.7-2.2l-0.3-0.5C88,198.9,89,195.9,91.5,194.6z"/>
				<path class="st22" d="M82.7,197.1l0.5-0.3c2.5-1.2,5.5-0.3,6.7,2.2l0.3,0.5c1.2,2.5,0.3,5.5-2.2,6.7l-0.5,0.3
					c-2.5,1.2-5.5,0.3-6.7-2.2l-0.3-0.5C79.3,201.3,80.3,198.3,82.7,197.1z"/>
				<path class="st22" d="M89.3,191.6l0.5-0.3c2.5-1.2,5.5-0.3,6.7,2.2l0.3,0.5c1.2,2.5,0.3,5.5-2.2,6.7L94,201
					c-2.5,1.2-5.5,0.3-6.7-2.2l-0.3-0.5C85.8,195.9,86.8,192.9,89.3,191.6z"/>
				<path class="st22" d="M93.6,205.8c-1-2-0.2-4.4,1.7-5.4c2-1,4.4-0.2,5.4,1.7c1,2,0.2,4.4-1.7,5.4c0,0,0,0,0,0
					C97,208.5,94.6,207.7,93.6,205.8z"/>
				<path class="st22" d="M94.2,212.4c-1-2-0.2-4.4,1.7-5.4c2-1,4.4-0.2,5.4,1.7c1,2,0.2,4.4-1.7,5.4c0,0,0,0,0,0
					C97.6,215.1,95.2,214.4,94.2,212.4z"/>
				<path class="st22" d="M89.4,212.3c-1-2-0.2-4.4,1.7-5.4c2-1,4.4-0.2,5.4,1.7c1,2,0.2,4.4-1.7,5.4c0,0,0,0,0,0
					C92.8,215.1,90.4,214.3,89.4,212.3z"/>
				<path class="st22" d="M88,207.6c-1.4-2.9-0.3-6.3,2.6-7.8c2.9-1.4,6.3-0.3,7.8,2.6c1.4,2.9,0.3,6.3-2.6,7.8
					C92.9,211.6,89.5,210.5,88,207.6C88,207.6,88,207.6,88,207.6z"/>
				<path class="st22" d="M81.9,207.9c-1-2-0.2-4.4,1.7-5.4c2-1,4.4-0.2,5.4,1.7c1,2,0.2,4.4-1.7,5.4c0,0,0,0,0,0
					C85.3,210.6,82.9,209.8,81.9,207.9z"/>
				<path class="st22" d="M76.9,209.7c-1-2-0.2-4.4,1.7-5.4c2-1,4.4-0.2,5.4,1.7c1,2,0.2,4.4-1.7,5.4c0,0,0,0,0,0
					C80.3,212.5,77.9,211.7,76.9,209.7z"/>
				<circle class="st16" cx="88.8" cy="211.1" r="3.6"/>
				<path class="st15" d="M89.4,208.9c1.2,0.3,2,1.6,1.7,2.8c-0.3,1.2-1.6,2-2.8,1.7s-2-1.6-1.7-2.8c0,0,0,0,0,0
					C86.9,209.3,88.1,208.6,89.4,208.9z"/>
				<path class="st6" d="M114.2,134.6c-0.9,0-1.7-0.4-2.3-1l-20.2-20.1c-1.3-1.3-1.3-3.3,0-4.6s3.3-1.3,4.6,0l20.2,20.2
					c1.3,1.3,1.3,3.3,0,4.6C115.9,134.3,115.1,134.6,114.2,134.6z"/>
				<path class="st5" d="M97,41.2h52.5c20.9,0,37.9,17,37.9,37.9l0,0c0,20.9-17,37.9-37.9,37.9H97C76,117,59,100.1,59,79.1l0,0
					C59,58.2,76,41.2,97,41.2z"/>
				<path class="st12" d="M62,233.7H44.4c-1.6,0-2.9-1.3-2.9-2.9l0,0c0-1.6,1.3-2.9,2.9-2.9H62c1.6,0,2.9,1.3,2.9,2.9l0,0
					C64.9,232.4,63.6,233.7,62,233.7z"/>
				<path class="st12" d="M184.5,227.9h-29.2c-1.6,0-2.9-1.3-2.9-2.9l0,0c0-1.6,1.3-2.9,2.9-2.9h29.2c1.6,0,2.9,1.3,2.9,2.9l0,0
					C187.4,226.6,186.1,227.9,184.5,227.9z"/>
				<path class="st24" d="M35.7,257.7c4.2,0.4,8.6,4.2,8.6,4.2s0.8,1.2-1,1.7C43.3,263.6,37.9,261.3,35.7,257.7"/>
				<path class="st24" d="M48.4,272.6c0.2-4.2-2.9-9.1-2.9-9.1s-1.1-1-1.8,0.8C43.6,264.3,45.1,269.9,48.4,272.6"/>
				<path class="st24" d="M54.3,263c-3.7,2.1-9.5,1.5-9.5,1.5s-1.4-0.6-0.1-2C44.7,262.5,50.5,261.3,54.3,263"/>
				<path class="st24" d="M49.5,254.6c-0.4,4.2-4.2,8.6-4.2,8.6s-1.2,0.8-1.7-1C43.7,262.2,45.9,256.8,49.5,254.6"/>
				<path class="st24" d="M39.6,270.7c0.4-4.2,4.2-8.6,4.2-8.6s1.2-0.8,1.7,1C45.5,263.1,43.2,268.5,39.6,270.7"/>
				<path class="st16" d="M45.4,262.2c0.7,0.4,0.9,1.3,0.5,2c-0.4,0.7-1.3,0.9-2,0.5c-0.7-0.4-0.9-1.3-0.5-2
					C43.8,262,44.7,261.7,45.4,262.2C45.4,262.2,45.4,262.2,45.4,262.2z"/>
				<path class="st24" d="M78.2,280.3c-3.4,2.5-9.2,2.7-9.2,2.7s-1.4-0.4-0.4-2C68.6,281,74.2,279.1,78.2,280.3"/>
				<path class="st24" d="M58.8,277.8c2.7,3.3,8.3,4.8,8.3,4.8s1.5,0,0.8-1.8C67.9,280.8,63,277.6,58.8,277.8"/>
				<path class="st24" d="M60.8,288.9c1.3-4,6-7.5,6-7.5s1.4-0.5,1.4,1.4C68.2,282.9,64.8,287.6,60.8,288.9"/>
				<path class="st24" d="M70,291.9c-2.5-3.4-2.7-9.2-2.7-9.2s0.4-1.5,2-0.4C69.3,282.3,71.2,287.9,70,291.9"/>
				<path class="st24" d="M66.6,273.3c2.5,3.4,2.7,9.2,2.7,9.2s-0.4,1.5-2,0.4C67.3,282.9,65.3,277.4,66.6,273.3"/>
				<path class="st16" d="M68,283.5c-0.8,0.1-1.5-0.4-1.7-1.2s0.4-1.5,1.2-1.7s1.5,0.4,1.7,1.2S68.8,283.4,68,283.5L68,283.5z"/>
				<path class="st24" d="M196.2,260.2c1.8,6.1-0.9,14.4-0.9,14.4s-1.3,1.9-3-0.5C192.2,274.1,192.4,265.3,196.2,260.2"/>
				<path class="st24" d="M182.6,286.4c6-2.1,11.1-9.2,11.1-9.2s0.7-2.1-2.1-2.1C191.6,275,184.6,280.3,182.6,286.4"/>
				<path class="st24" d="M199.4,289.2c-5-4-7.4-12.4-7.4-12.4s0-2.2,2.7-1.3C194.7,275.5,199.6,282.9,199.4,289.2"/>
				<path class="st24" d="M208.4,277.8c-6.1,1.8-14.4-0.9-14.4-0.9s-1.9-1.3,0.5-3C194.4,273.9,203.2,274,208.4,277.8"/>
				<path class="st24" d="M180.3,273c6.1-1.8,14.4,0.9,14.4,0.9s1.9,1.3-0.5,3C194.2,276.9,185.4,276.8,180.3,273"/>
				<path class="st16" d="M195.5,276.3c-0.2,1.2-1.3,2-2.5,1.8s-2-1.3-1.8-2.5c0.2-1.2,1.3-2,2.5-1.8c0,0,0,0,0,0
					C194.9,274,195.7,275.1,195.5,276.3z"/>
				<path class="st24" d="M122.3,278.9c2.5,1.7,4,5.6,4,5.6s0.1,1.1-1.2,0.7C125,285.2,122.5,281.9,122.3,278.9"/>
				<path class="st24" d="M125.1,292.6c1.6-2.6,1.3-6.7,1.3-6.7s-0.4-1-1.4-0.1C125,285.7,124,289.8,125.1,292.6"/>
				<path class="st24" d="M132.1,288.6c-3,0-6.4-2.4-6.4-2.4s-0.7-0.8,0.6-1.3C126.3,285,130.3,286.2,132.1,288.6"/>
				<path class="st24" d="M132,281.8c-1.7,2.5-5.6,4-5.6,4s-1.1,0.1-0.7-1.2C125.7,284.5,129,281.9,132,281.8"/>
				<path class="st24" d="M120.2,288.4c1.7-2.5,5.6-4,5.6-4s1.1-0.1,0.7,1.2C126.5,285.6,123.2,288.2,120.2,288.4"/>
				<path class="st16" d="M126.8,285c0.3,0.5,0.1,1.1-0.4,1.4c-0.5,0.3-1.1,0.1-1.4-0.4c-0.2-0.5-0.1-1.1,0.4-1.3
					C125.9,284.3,126.5,284.5,126.8,285C126.8,285,126.8,285,126.8,285z"/>
				<path class="st24" d="M195.5,255.6c-1.5,0-3-0.3-4.3-1c0,0-0.5-0.5,0.3-0.9C193,254,194.4,254.6,195.5,255.6"/>
				<path class="st24" d="M188.3,250.1c0.4,1.4,1.2,2.7,2.2,3.8c0,0,0.6,0.3,0.7-0.5C190.6,252.1,189.6,251,188.3,250.1"/>
				<path class="st24" d="M186.6,255c1.2-0.9,2.6-1.4,4.1-1.6c0,0,0.7,0.1,0.2,0.9C189.6,254.9,188.1,255.1,186.6,255"/>
				<path class="st24" d="M189.6,258.3c0-1.5,0.3-3,1-4.3c0,0,0.5-0.5,0.9,0.3C191.2,255.8,190.5,257.2,189.6,258.3"/>
				<path class="st24" d="M192.5,250.1c0,1.5-0.3,3-1,4.3c0,0-0.5,0.5-0.9-0.3C190.9,252.6,191.5,251.3,192.5,250.1"/>
				<path class="st16" d="M190.7,254.5c-0.3-0.1-0.5-0.5-0.4-0.8c0,0,0,0,0,0c0.1-0.3,0.5-0.5,0.8-0.4s0.5,0.5,0.4,0.8
					C191.4,254.4,191,254.6,190.7,254.5z"/>
				<path class="st24" d="M28.7,242.8c0.1,1.5-0.1,2.9-0.7,4.3c0,0-0.4,0.5-0.9-0.2C27.3,245.4,27.9,244,28.7,242.8"/>
				<path class="st24" d="M23.9,250.2c1.4-0.5,2.6-1.3,3.6-2.4c0,0,0.3-0.6-0.6-0.7C25.7,247.8,24.6,248.9,23.9,250.2"/>
				<path class="st24" d="M28.9,251.5c-0.9-1.1-1.6-2.5-1.9-3.9c0,0,0.1-0.7,0.9-0.3C28.5,248.6,28.9,250.1,28.9,251.5"/>
				<path class="st24" d="M31.8,248.4c-1.5,0.1-2.9-0.1-4.3-0.7c0,0-0.5-0.4,0.2-0.9C29.3,247,30.6,247.5,31.8,248.4"/>
				<path class="st24" d="M23.6,246.2c1.5-0.1,2.9,0.1,4.3,0.7c0,0,0.5,0.4-0.2,0.9C26.2,247.5,24.8,247,23.6,246.2"/>
				<path class="st16" d="M28,247.6c-0.1,0.3-0.5,0.5-0.8,0.5s-0.5-0.5-0.5-0.8c0.1-0.3,0.4-0.5,0.8-0.5
					C27.9,246.9,28.1,247.2,28,247.6C28.1,247.6,28.1,247.6,28,247.6z"/>
			</g>
		</g>
	</g>
</g>
</svg>
