<?xml version="1.0" encoding="utf-8"?>
<!-- Generator: Adobe Illustrator 25.2.3, SVG Export Plug-In . SVG Version: 6.00 Build 0)  -->
<svg version="1.1" id="Layer_1" xmlns="http://www.w3.org/2000/svg" xmlns:xlink="http://www.w3.org/1999/xlink" x="0px" y="0px"
	 viewBox="0 0 235.5 384.5" style="enable-background:new 0 0 235.5 384.5;" xml:space="preserve">
<style type="text/css">
	.st0{fill:#F4B155;}
	.st1{fill:#FFF0CC;}
	.st2{fill:#231F20;}
	.st3{clip-path:url(#SVGID_2_);}
	.st4{fill:#A7F1F9;}
	.st5{fill:#789B78;}
	.st6{fill:#6D5954;}
	.st7{fill:#697F69;}
	.st8{fill:#5C6D5C;}
	.st9{fill:#86C489;}
	.st10{fill:#728E72;}
	.st11{fill:#67D8DB;}
	.st12{fill:none;}
	.st13{fill:#F5B155;}
	.st14{fill:#414042;}
	.st15{fill:#FFD351;}
	.st16{fill:#EE915B;}
	.st17{fill:#E6705F;}
	.st18{fill:#48C2CA;}
	.st19{fill:#FFD150;}
	.st20{fill:#9E1F63;}
	.st21{fill:#3A335F;}
	.st22{fill:#DD4F65;}
	.st23{fill:#F4B055;}
	.st24{fill:#662D91;}
	.st25{fill:#81EFEF;}
	.st26{fill:#5BA587;}
	.st27{fill:#79B27B;}
	.st28{fill:#7DAF7D;}
	.st29{fill:#6B9B6B;}
	.st30{fill:#F1F2F2;}
	.st31{fill:#E6E7E8;}
	.st32{fill:#D1D3D4;}
	.st33{fill:#A7A9AC;}
	.st34{fill:#4A355B;}
	.st35{fill:#F2C351;}
	.st36{fill:#E4705E;}
</style>
<g id="Layer_2_1_">
	<g id="Layer_1-2">
		<path class="st0" d="M235.5,17.7V370c0,8-6.7,14.5-15,14.5h-205c-8.3,0-15-6.5-15-14.5V17.7c0-8,6.7-14.4,15-14.4h205
			C228.8,3.3,235.5,9.8,235.5,17.7z M222.9,361.6V26.1c0-6-4.8-10.8-10.8-10.8H23.9c-6,0-10.8,4.9-10.8,10.8v335.5
			c0,6,4.8,10.8,10.8,10.8h188.2C218.1,372.4,222.9,367.6,222.9,361.6L222.9,361.6z"/>
		<path class="st1" d="M23.9,15.3h188.2c6,0,10.8,4.8,10.8,10.8v335.5c0,6-4.8,10.8-10.8,10.8H23.9c-6,0-10.8-4.8-10.8-10.8V26.1
			C13.1,20.1,17.9,15.3,23.9,15.3z"/>
		<path class="st2" d="M51.9,338.3c-0.1-0.1-0.2-0.3-0.2-0.5v-10.3c0-0.2,0-0.3,0.2-0.5c0.1-0.1,0.3-0.2,0.5-0.1h0.9
			c0.2,0,0.4,0,0.5,0.1c0.1,0.1,0.2,0.3,0.2,0.5v10.2c0,0.2,0,0.3-0.1,0.5c-0.1,0.1-0.3,0.2-0.5,0.1h-0.9
			C52.2,338.4,52,338.4,51.9,338.3z M58.7,338.4c-0.1,0-0.1-0.1-0.2-0.1l-4-4.9c-0.1-0.1-0.2-0.2-0.2-0.3c0-0.1-0.1-0.2-0.1-0.4
			c0-0.1,0-0.2,0.1-0.3c0.1-0.1,0.1-0.2,0.2-0.3l4-4.8c0-0.1,0.1-0.1,0.2-0.2c0.1,0,0.2,0,0.3,0h1.5c0.1,0,0.1,0,0.2,0.1
			c0,0,0.1,0.1,0.1,0.2c0,0.1,0,0.2-0.1,0.2l-4.4,5.2l4.5,5.3c0.1,0.1,0.1,0.1,0.1,0.2c0,0.1,0,0.1-0.1,0.2c0,0.1-0.1,0.1-0.2,0.1
			H59C58.9,338.4,58.8,338.4,58.7,338.4L58.7,338.4z"/>
		<path class="st2" d="M62,338.3c-0.1-0.1-0.2-0.3-0.1-0.5v-10.3c-0.1-0.3,0.1-0.6,0.4-0.6c0.1,0,0.2,0,0.2,0h0.8
			c0.1,0,0.3,0,0.4,0.1c0.1,0.1,0.2,0.2,0.3,0.3l5.6,7.7v-7.4c0-0.2,0-0.3,0.1-0.5c0.1-0.1,0.3-0.2,0.5-0.1H71c0.2,0,0.4,0,0.5,0.1
			c0.1,0.1,0.2,0.3,0.2,0.5v10.2c0,0.2,0,0.4-0.2,0.5c-0.1,0.1-0.3,0.2-0.5,0.1h-0.8c-0.1,0-0.2,0-0.4-0.1c-0.1-0.1-0.2-0.2-0.3-0.3
			l-5.6-7.7v7.4c0,0.2,0,0.3-0.1,0.5c-0.1,0.1-0.3,0.2-0.5,0.1h-0.9C62.3,338.5,62.1,338.4,62,338.3z"/>
		<path class="st2" d="M73.8,338.3c-0.1-0.1-0.2-0.3-0.1-0.5v-10.3c0-0.2,0-0.3,0.1-0.5c0.1-0.1,0.3-0.2,0.5-0.1h0.9
			c0.2,0,0.4,0,0.5,0.1c0.1,0.1,0.2,0.3,0.2,0.5v10.2c0,0.2,0,0.3-0.2,0.5c-0.1,0.1-0.3,0.2-0.5,0.1h-0.9
			C74.1,338.4,73.9,338.4,73.8,338.3z"/>
		<path class="st2" d="M79,337.1c-2.1-2.6-2.1-6.3,0-8.9c1.2-1.1,2.8-1.7,4.5-1.6c0.7,0,1.4,0.1,2.1,0.2c0.6,0.1,1.1,0.4,1.7,0.7
			c0.1,0,0.1,0.1,0.2,0.2c0,0.1,0,0.1-0.1,0.2l-0.5,0.8c-0.1,0.1-0.1,0.1-0.2,0.1c-0.1,0-0.1,0-0.2-0.1c-0.8-0.4-1.8-0.7-2.7-0.6
			c-1.1-0.1-2.2,0.3-3,1.1c-1.4,2-1.4,4.6,0,6.6c0.8,0.7,1.8,1.1,2.9,1.1c0.4,0,0.9,0,1.3-0.1c0.3-0.1,0.7-0.2,1-0.3v-3.1h-2.3
			c-0.2,0-0.3,0-0.5-0.1c-0.1-0.1-0.1-0.3-0.1-0.5v-0.4c0-0.2,0-0.3,0.1-0.5c0.1-0.1,0.3-0.1,0.5-0.1h3.6c0.2,0,0.4,0,0.5,0.2
			c0.1,0.2,0.2,0.4,0.2,0.5v4.5c0,0.1,0,0.3-0.1,0.4c0,0.1-0.1,0.2-0.2,0.2c-1.3,0.7-2.7,1.1-4.2,1C81.8,338.8,80.2,338.2,79,337.1z
			"/>
		<path class="st2" d="M89.7,338.3c-0.1-0.1-0.2-0.3-0.2-0.5v-10.3c0-0.2,0-0.3,0.2-0.5c0.1-0.1,0.3-0.2,0.5-0.1h0.9
			c0.2,0,0.4,0,0.5,0.1c0.1,0.1,0.2,0.3,0.2,0.5v4.2h5.5v-4.2c0-0.2,0-0.3,0.2-0.5c0.1-0.1,0.3-0.2,0.5-0.1h0.9c0.2,0,0.4,0,0.5,0.1
			c0.1,0.1,0.2,0.3,0.2,0.5v10.2c0,0.2,0,0.3-0.1,0.5c-0.1,0.1-0.3,0.2-0.5,0.1h-0.9c-0.2,0-0.4,0-0.5-0.1c-0.1-0.1-0.2-0.3-0.2-0.5
			v-4.4h-5.5v4.4c0,0.2,0,0.3-0.1,0.5c-0.1,0.1-0.3,0.2-0.5,0.1h-0.9C90,338.4,89.9,338.4,89.7,338.3z"/>
		<path class="st2" d="M104.4,338.3c-0.1-0.1-0.2-0.3-0.2-0.5v-9.2h-3c-0.2,0-0.3,0-0.5-0.1c-0.1-0.1-0.1-0.3-0.1-0.5v-0.5
			c0-0.2,0-0.3,0.1-0.5c0.1-0.1,0.3-0.2,0.5-0.1h8.1c0.2,0,0.3,0,0.5,0.1c0.1,0.1,0.2,0.3,0.1,0.5v0.5c0.1,0.3-0.1,0.5-0.4,0.6
			c-0.1,0-0.2,0-0.2,0h-3v9.2c0,0.2,0,0.3-0.1,0.5c-0.1,0.1-0.3,0.2-0.5,0.1h-0.9C104.7,338.4,104.5,338.4,104.4,338.3z"/>
		<path class="st2" d="M119,337.1c-2-2.6-2-6.2,0-8.8c2.5-2.1,6.1-2.1,8.5,0c2,2.6,2,6.2,0,8.8C125.1,339.2,121.5,339.2,119,337.1z
			 M126,336c1.2-2,1.2-4.5,0-6.5c-0.7-0.8-1.7-1.2-2.7-1.1c-1-0.1-2,0.3-2.7,1.1c-1.3,2-1.3,4.5,0,6.5c0.7,0.8,1.7,1.2,2.7,1.1
			C124.4,337.1,125.3,336.7,126,336L126,336z"/>
		<path class="st2" d="M130.9,338.3c-0.1-0.1-0.2-0.3-0.1-0.5v-10.3c0-0.2,0-0.3,0.1-0.5c0.1-0.1,0.3-0.2,0.5-0.1h7
			c0.2,0,0.3,0,0.5,0.1c0.1,0.1,0.1,0.3,0.1,0.5v0.5c0,0.2,0,0.3-0.1,0.5c-0.1,0.1-0.3,0.2-0.5,0.1h-5.5v3.2h4c0.2,0,0.3,0,0.5,0.1
			c0.1,0.1,0.2,0.3,0.1,0.5v0.5c0,0.2,0,0.3-0.1,0.5c-0.1,0.1-0.3,0.2-0.5,0.1h-4v4.3c0,0.2,0,0.3-0.1,0.5c-0.1,0.1-0.3,0.2-0.5,0.1
			h-0.9C131.2,338.4,131,338.4,130.9,338.3z"/>
		<path class="st2" d="M148.5,336.9c-2.8-2.6-3-7-0.4-9.9c1.4-1.5,3.4-2.4,5.5-2.2c0.8,0,1.7,0.1,2.5,0.3c0.7,0.1,1.3,0.4,1.9,0.8
			c0.1,0.1,0.2,0.1,0.2,0.3c0,0.1,0,0.2-0.1,0.3l-0.6,0.9c-0.1,0.1-0.2,0.2-0.2,0.2c-0.1,0-0.2,0-0.3-0.1c-1-0.5-2.1-0.8-3.2-0.7
			c-1.3-0.1-2.5,0.4-3.5,1.3c-0.9,1.1-1.4,2.4-1.3,3.8c-0.1,1.4,0.4,2.8,1.3,3.9c0.9,0.9,2.2,1.3,3.5,1.3c1.2,0,2.3-0.2,3.4-0.8
			c0.1,0,0.2-0.1,0.2-0.1c0.1,0,0.2,0.1,0.2,0.2l0.6,1c0,0.1,0,0.1,0.1,0.2c0,0.1-0.1,0.2-0.2,0.3c-1.4,0.8-3,1.2-4.6,1.1
			C151.7,338.8,149.9,338.2,148.5,336.9z"/>
		<path class="st2" d="M163.1,338.1c-1.8-0.7-2.9-2.5-2.9-4.4v-7.9c0-0.2,0-0.4,0.2-0.5c0.2-0.1,0.4-0.2,0.6-0.2h1
			c0.2,0,0.4,0,0.6,0.2c0.1,0.2,0.2,0.3,0.2,0.5v8c-0.1,0.9,0.3,1.7,0.9,2.3c1.5,1.1,3.6,1.1,5.1,0c0.6-0.6,1-1.4,0.9-2.3v-8
			c-0.1-0.3,0.2-0.7,0.5-0.7c0.1,0,0.2,0,0.2,0h1c0.5,0,0.8,0.2,0.8,0.7v7.9c0,0.9-0.2,1.9-0.8,2.7c-0.5,0.8-1.3,1.4-2.1,1.7
			C167.2,338.9,165,338.9,163.1,338.1L163.1,338.1z"/>
		<path class="st2" d="M174.5,338.3c-0.1-0.1-0.2-0.3-0.2-0.5v-12c0-0.2,0-0.4,0.2-0.5c0.2-0.1,0.4-0.2,0.6-0.2h5
			c1.3-0.1,2.6,0.3,3.6,1.1c1.6,1.9,1.6,4.6,0,6.5c-1,0.8-2.3,1.2-3.6,1.1h-3.2v3.8c0,0.2,0,0.4-0.2,0.5c-0.2,0.1-0.4,0.2-0.6,0.2
			h-1C174.9,338.4,174.7,338.4,174.5,338.3z M180,332c0.7,0,1.3-0.2,1.8-0.6c0.4-0.5,0.6-1.2,0.6-1.9c0.1-0.7-0.2-1.4-0.6-1.9
			c-0.5-0.4-1.1-0.7-1.8-0.6h-3.1v5L180,332z"/>
		<g>
			<defs>
				<path id="SVGID_1_" d="M53.5,47.2h129c13.7,0,24.8,11.1,24.8,24.8v192.3c0,13.7-11.1,24.8-24.8,24.8h-129
					c-13.7,0-24.8-11.1-24.8-24.8V72C28.7,58.3,39.8,47.2,53.5,47.2z"/>
			</defs>
			<clipPath id="SVGID_2_">
				<use xlink:href="#SVGID_1_"  style="overflow:visible;"/>
			</clipPath>
			<g class="st3">
				<rect x="9.5" y="21.1" class="st4" width="204.2" height="157.6"/>
				<polygon class="st5" points="21.1,161.2 50.3,143.7 91.2,155.3 114.5,149.5 132,155.3 178.7,149.5 213.7,172.8 213.7,190.3 
					21.1,190.3 				"/>
				<path class="st6" d="M149.5,207.8L149.5,207.8c-3.2,0-5.8-2.6-5.8-5.8v-64.2c0-3.2,2.6-5.8,5.8-5.8l0,0c3.2,0,5.8,2.6,5.8,5.8
					V202C155.3,205.2,152.7,207.8,149.5,207.8z"/>
				<path class="st7" d="M113.9,130.1l2.2-13.4c0.7-4.2,4.7-7.1,8.9-6.4l53.7,8.9c4.2,0.7,7.1,4.7,6.4,8.9l-2.2,13.4
					c-0.7,4.2-4.7,7.1-8.9,6.4l-53.7-8.9C116,138.3,113.2,134.3,113.9,130.1z"/>
				<path class="st6" d="M85.3,202L85.3,202c-2.7,0-4.8-2.2-4.8-4.9v-53.5c0-2.7,2.2-4.9,4.9-4.9l0,0c2.7,0,4.9,2.2,4.9,4.9v53.5
					C90.2,199.9,88,202,85.3,202C85.3,202,85.3,202,85.3,202z"/>
				<path class="st6" d="M38.6,190.3L38.6,190.3c-3.2,0-5.8-2.6-5.8-5.8v-64.2c0-3.2,2.6-5.8,5.8-5.8l0,0c3.2,0,5.8,2.6,5.9,5.8
					v64.2C44.5,187.7,41.9,190.3,38.6,190.3C38.6,190.3,38.6,190.3,38.6,190.3z"/>
				<path class="st6" d="M61,190.3L61,190.3c-2.7,0-4.9-2.2-4.9-4.9V132c0-2.7,2.2-4.9,4.9-4.9l0,0c2.7,0,4.9,2.2,4.9,4.9v53.5
					C65.9,188.2,63.7,190.3,61,190.3z"/>
				<path class="st6" d="M173.8,190.3L173.8,190.3c-2.7,0-4.8-2.2-4.9-4.9V132c0-2.7,2.2-4.9,4.9-4.9l0,0c2.7,0,4.9,2.2,4.9,4.9
					v53.5C178.7,188.2,176.5,190.3,173.8,190.3z"/>
				<path class="st8" d="M104.2,140.4l-33.5,6.1c-6.6,1.2-12.9-3.2-14.1-9.8l0,0c-1.2-6.6,3.2-12.9,9.8-14.1l33.5-6.1
					c6.6-1.2,12.9,3.2,14.1,9.8l0,0C115.2,132.9,110.8,139.2,104.2,140.4z"/>
				<path class="st6" d="M114.5,184.5L114.5,184.5c-3.2,0-5.8-2.6-5.8-5.8v-64.2c0-3.2,2.6-5.8,5.8-5.8l0,0c3.2,0,5.8,2.6,5.8,5.8
					v64.2C120.3,181.9,117.7,184.5,114.5,184.5z"/>
				<path class="st6" d="M196.2,196.2L196.2,196.2c-3.2,0-5.8-2.6-5.8-5.8v-64.2c0-3.2,2.6-5.8,5.8-5.8l0,0c3.2,0,5.8,2.6,5.8,5.8
					v64.2C202,193.6,199.4,196.2,196.2,196.2z"/>
				<ellipse class="st9" cx="108.8" cy="202.6" rx="116.6" ry="40.2"/>
				<path class="st10" d="M67.1,137.5l-51.3,11.2c-20.5,4.4-40.6-8.6-45.1-29l0,0c-4.4-20.5,8.6-40.6,29-45.1L51,63.4
					c20.5-4.4,40.6,8.6,45.1,29l0,0C100.5,112.8,87.6,133,67.1,137.5z"/>
				<path class="st10" d="M219.8,154.4l-51.2-11.8c-20.4-4.7-33.1-25.1-28.5-45.5l0,0c4.7-20.4,25.1-33.1,45.5-28.5l51.2,11.8
					c20.4,4.7,33.1,25,28.5,45.5l0,0C260.5,146.3,240.2,159,219.8,154.4z"/>
				<rect x="9.5" y="231.2" class="st9" width="204.2" height="64.2"/>
				<ellipse class="st6" cx="108.8" cy="221.8" rx="99.1" ry="25.6"/>
				<ellipse class="st11" cx="108.8" cy="228.9" rx="99.1" ry="25.6"/>
				<polygon class="st12" points="196,15.3 32.8,15.3 32.8,188 32.8,208 32.8,302.7 196,302.7 196,208 196,208 				"/>
				<path class="st13" d="M99.9,245.8c-3.5,0-6.9-0.5-10.2-1.5c-2.6-0.7-4.1-3.4-3.3-5.9c0.7-2.6,3.4-4.1,5.9-3.3l0,0
					c6.9,1.9,12.4,1.4,16.5-1.5c8.1-5.9,9-19.9,9-20c0.1-2.7,2.4-4.7,5-4.6c2.7,0.1,4.7,2.4,4.6,5c0,0.8-1,18.7-12.9,27.4
					C110.2,244.3,105.1,245.9,99.9,245.8z"/>
				<circle class="st14" cx="92.2" cy="195.3" r="11.9"/>
				<circle class="st14" cx="101.6" cy="202.8" r="11.9"/>
				<circle class="st14" cx="119" cy="181.3" r="11.9"/>
				
					<ellipse transform="matrix(0.925 -0.3799 0.3799 0.925 -65.9004 59.4405)" class="st14" cx="117.6" cy="196.7" rx="11.8" ry="11.9"/>
				<path class="st15" d="M93.8,197.8c0.8,1.8-0.1,3.8-1.8,4.6c-1.8,0.8-3.8-0.1-4.6-1.8c-0.8-1.8,0.1-3.8,1.8-4.6c0,0,0,0,0,0
					C91,195.2,93.1,196,93.8,197.8z"/>
				<path class="st13" d="M92.7,198.3c0.5,1.2,0,2.5-1.2,3c-1.2,0.5-2.5,0-3-1.2c-0.5-1.1,0-2.5,1.2-3
					C90.8,196.6,92.2,197.1,92.7,198.3C92.7,198.3,92.7,198.3,92.7,198.3z"/>
				<path class="st16" d="M81.9,240.7l-4.3,7.7l10.9-0.1l-4.3-7.5c-0.3,0-0.7,0-1,0C82.8,240.8,82.4,240.7,81.9,240.7z"/>
				<path class="st16" d="M93.1,220.7h0.2v4H73.1v5.9c0,5.1,3.8,9.5,8.9,10.1l1.1-1.9l1.1,2c5.2-0.5,9.2-4.8,9.2-10.1l0.1-10.5l0,0
					C93.4,220.3,93.3,220.5,93.1,220.7z"/>
				<path class="st16" d="M81.9,240.7c0.4,0.1,0.8,0.1,1.2,0.1c0.3,0,0.7,0,1,0l-1.1-2L81.9,240.7z"/>
				<path class="st17" d="M79.4,218.9v0.4c0,0.3,0.1,0.6,0.3,0.8h2.6c0.2-0.2,0.3-0.5,0.3-0.8V219c0-0.8,0.7-1.5,1.6-1.5
					c0.4,0,0.8,0.2,1.1,0.4c0.3,0.3,0.4,0.6,0.5,1v0.3c0,0.3,0.1,0.6,0.3,0.9h2.5c0.2-0.2,0.3-0.6,0.3-0.9V219
					c0-0.5,0.2-0.9,0.6-1.1c-2-0.4-4.1-0.6-6.2-0.6c-1.6,0-3.3,0.1-4.9,0.3c0.2,0.1,0.4,0.2,0.5,0.3
					C79.2,218.2,79.3,218.5,79.4,218.9z"/>
				<path class="st17" d="M92,219.3c0,0.3,0.1,0.6,0.3,0.9h1.1c0,0,0-0.1,0-0.1c0-0.5-0.6-1-1.6-1.5c0,0.1,0.1,0.3,0.1,0.4L92,219.3
					z"/>
				<path class="st17" d="M75.9,220c0.2-0.2,0.3-0.5,0.2-0.8v-0.3c0-0.4,0.2-0.7,0.5-1c-1.9,0.4-3.2,1.1-3.6,1.8
					c0,0.1,0.1,0.2,0.2,0.3L75.9,220z"/>
				<path class="st17" d="M80.9,220.7c0.5,0,1-0.2,1.3-0.6h-2.6C79.9,220.5,80.4,220.7,80.9,220.7z"/>
				<path class="st17" d="M74.6,220.7c0.5,0,1-0.2,1.3-0.7h-2.7C73.6,220.5,74.1,220.7,74.6,220.7z"/>
				<path class="st17" d="M93.1,220.7c0.1-0.1,0.2-0.3,0.3-0.5h-1.1C92.5,220.4,92.8,220.6,93.1,220.7z"/>
				<path class="st17" d="M87.2,220.7c0.5,0,0.9-0.2,1.2-0.6H86C86.3,220.5,86.7,220.7,87.2,220.7z"/>
				<path class="st18" d="M77.8,217.5c-0.4,0-0.8,0.1-1.1,0.4c0.5-0.1,1.1-0.2,1.7-0.3C78.2,217.5,78,217.5,77.8,217.5z"/>
				<path class="st18" d="M91.5,217.9c-0.3-0.3-0.7-0.4-1.1-0.4c-0.4,0-0.7,0.1-1,0.3c0.9,0.2,1.7,0.4,2.5,0.8
					C91.8,218.3,91.7,218.1,91.5,217.9z"/>
				<path class="st16" d="M88.8,224.7h4.6v-4h-0.2c-1.1,1.2-5.1,2.1-9.9,2.1c-5.2,0-9.6-1.1-10.1-2.5v4.4L88.8,224.7L88.8,224.7z"/>
				<path class="st18" d="M73.1,220h0.2c-0.1-0.1-0.1-0.2-0.2-0.3C73.1,219.8,73,219.9,73.1,220c-0.1,0.1,0,0.2,0,0.3L73.1,220z"/>
				<path class="st18" d="M76.2,218.9v0.4c0,0.3-0.1,0.6-0.2,0.8h3.7c-0.2-0.2-0.3-0.5-0.3-0.8V219c0-0.4-0.2-0.7-0.5-1
					c-0.2-0.1-0.3-0.3-0.5-0.3c-0.6,0.1-1.2,0.2-1.7,0.3C76.4,218.2,76.2,218.5,76.2,218.9z"/>
				<path class="st18" d="M88.8,218.9v0.4c0,0.3-0.1,0.6-0.3,0.9h3.8c-0.2-0.2-0.3-0.6-0.3-0.9V219c0-0.1,0-0.3-0.1-0.4
					c-0.8-0.3-1.6-0.6-2.5-0.8C89,218.1,88.8,218.5,88.8,218.9z"/>
				<path class="st18" d="M85.7,219.3V219c0-0.4-0.2-0.7-0.5-1c-0.3-0.3-0.7-0.4-1.1-0.4c-0.8,0-1.5,0.6-1.6,1.4v0.4
					c0,0.3-0.1,0.6-0.3,0.8H86C85.8,219.9,85.7,219.6,85.7,219.3z"/>
				<path class="st18" d="M92.3,220.1h-3.8c-0.5,0.7-1.5,0.8-2.2,0.3c-0.1-0.1-0.2-0.2-0.3-0.3h-3.7c-0.5,0.7-1.6,0.9-2.3,0.3
					c-0.1-0.1-0.2-0.2-0.3-0.3h-3.7c-0.5,0.7-1.6,0.9-2.3,0.4c-0.1-0.1-0.3-0.2-0.4-0.4h-0.2v0.2c0.6,1.4,4.9,2.5,10.1,2.5
					c4.8,0,8.8-0.9,9.9-2.1C92.8,220.6,92.5,220.4,92.3,220.1z"/>
				<path class="st13" d="M155.1,250.3h-29c-2.8,0-5,2.2-5,5s2.2,5,5,5l0,0h30.1l0.8,3.6c0.1,0.6,0.4,1.2,0.9,1.6l0.8,0.8
					c1.2,1.1,3.1,1,4.2-0.2c0.5-0.5,0.8-1.3,0.8-2v-12c0-1.7-1.3-3-3-3l0,0h-3.2C156.5,249.1,155.6,249.6,155.1,250.3z"/>
				<path class="st19" d="M152.9,256.4h-31.2c-3,0-5.4,2.4-5.4,5.4c0,3,2.4,5.4,5.4,5.4H154l0.8,3.9c0.2,0.7,0.5,1.3,1,1.7l0.9,0.8
					c1.3,1.2,3.4,1.1,4.6-0.2c0.5-0.6,0.8-1.4,0.8-2.1v-12.9c0-1.8-1.4-3.2-3.2-3.2l0,0h-3.5C154.4,255.1,153.5,255.6,152.9,256.4z"
					/>
				<path class="st15" d="M99.9,194.4c0.5,1.9-0.7,3.8-2.5,4.3s-3.8-0.7-4.3-2.5c-0.5-1.9,0.7-3.8,2.5-4.3c0,0,0,0,0,0
					C97.5,191.4,99.4,192.6,99.9,194.4C99.9,194.4,99.9,194.4,99.9,194.4z"/>
				<path class="st13" d="M98.7,194.7c0.3,1.2-0.4,2.5-1.6,2.8s-2.5-0.4-2.8-1.6s0.4-2.5,1.6-2.8c0,0,0,0,0,0
					C97.2,192.8,98.4,193.5,98.7,194.7C98.7,194.7,98.7,194.7,98.7,194.7z"/>
				<path class="st15" d="M115.8,214.3L115.8,214.3c-1.4,0.6-3,0-3.6-1.4l-1.9-4.5c-0.6-1.4,0-3,1.4-3.6l0,0c1.4-0.6,3,0,3.6,1.4
					l1.9,4.5C117.8,212.1,117.2,213.7,115.8,214.3z"/>
				<path class="st20" d="M118.1,266.6l29.3-8.4L136,218.5c-2.3-8.1-10.8-12.7-18.9-10.4l0,0c-8.1,2.3-12.7,10.8-10.4,18.9
					L118.1,266.6z"/>
				<path class="st15" d="M111.5,208.4L111.5,208.4c-8,3.4-17.2-0.3-20.7-8.2l-2.6-6c-3.4-8,0.3-17.3,8.2-20.7l0,0
					c8-3.4,17.2,0.3,20.7,8.2l2.6,6C123.2,195.7,119.5,204.9,111.5,208.4z"/>
				<path class="st14" d="M116.4,182.3l-28.6,12.2c-4.8,2.1-10.4-0.2-12.5-5l0,0c-2.1-4.8,0.2-10.4,5-12.5l28.6-12.3
					c4.8-2,10.4,0.2,12.5,5l0,0C123.5,174.6,121.2,180.2,116.4,182.3z"/>
				<path class="st21" d="M110.3,200.4L110.3,200.4c-1,0.4-2.2,0-2.6-1c0,0,0,0,0,0l-1.4-3.4c-0.5-1,0-2.2,1-2.6l0,0
					c1-0.4,2.2,0,2.6,1c0,0,0,0,0,0l1.4,3.4C111.7,198.8,111.3,199.9,110.3,200.4z"/>
				<path class="st21" d="M99.9,204.8L99.9,204.8c-1,0.4-2.2,0-2.6-1c0,0,0,0,0,0l-1.4-3.4c-0.4-1,0-2.2,1-2.6c0,0,0,0,0,0l0,0
					c1-0.4,2.2,0,2.6,1c0,0,0,0,0,0l1.4,3.4C101.4,203.2,100.9,204.4,99.9,204.8C99.9,204.8,99.9,204.8,99.9,204.8z"/>
				<path class="st13" d="M104.4,202.2l-1.1,0.5c-0.3-0.6,0-1.3,0.6-1.6s1.3,0,1.6,0.6L104.4,202.2z"/>
				<path class="st14" d="M109.5,191.3l-5.4,2.3c-0.5,0.2-1.2,0-1.4-0.6l0,0c-0.2-0.5,0-1.2,0.6-1.4l5.4-2.3c0.5-0.2,1.2,0,1.4,0.5
					c0,0,0,0,0,0l0,0C110.3,190.4,110.1,191.1,109.5,191.3z"/>
				<path class="st14" d="M98.5,196l-5.4,2.3c-0.5,0.2-1.2,0-1.4-0.6l0,0c-0.2-0.5,0-1.2,0.6-1.4l5.4-2.3c0.5-0.2,1.2,0,1.4,0.6l0,0
					C99.3,195.1,99.1,195.7,98.5,196C98.6,196,98.6,196,98.5,196z"/>
				<path class="st22" d="M103.3,204.6c0.4,1,1.6,1.5,2.7,1.1s1.5-1.6,1.1-2.7L103.3,204.6z"/>
				<path class="st23" d="M106.8,206.3c-0.1-0.2-0.4-0.3-0.6-0.3c0,0,0,0,0,0c-0.2,0.1-0.3,0.4-0.2,0.6L106.8,206.3z"/>
				<path class="st15" d="M123.1,186.9c0.8,1.8-0.1,3.8-1.8,4.6c-1.8,0.8-3.8-0.1-4.6-1.8c-0.8-1.8,0.1-3.8,1.8-4.6c0,0,0,0,0,0
					C120.3,184.3,122.3,185.2,123.1,186.9z"/>
				<path class="st13" d="M122,187.4c0.5,1.2,0,2.5-1.2,3c-1.2,0.5-2.5,0-3-1.2c-0.5-1.1,0-2.5,1.2-3
					C120.1,185.7,121.5,186.3,122,187.4C122,187.4,122,187.4,122,187.4z"/>
				<path class="st14" d="M117.8,186.1L117.8,186.1c1.1-0.5,1.5-1.8,1-2.9l-2.4-4.9c-0.5-1.1-1.8-1.5-2.9-1l0,0
					c-1.1,0.5-1.5,1.8-1,2.9c0,0,0,0,0,0l2.4,4.9C115.4,186.2,116.7,186.7,117.8,186.1z"/>
				<path class="st24" d="M143.1,249.2h-30.2c-2,0-3.6-1.6-3.6-3.6l0,0c0-2,1.6-3.6,3.6-3.6h30.2c2,0,3.6,1.6,3.6,3.6l0,0
					C146.7,247.6,145.1,249.2,143.1,249.2z"/>
				<path class="st20" d="M113.9,271h33.9v-24.9h-33.9c-6.9,0-12.4,5.6-12.4,12.5l0,0C101.5,265.4,107.1,271,113.9,271z"/>
				<path class="st15" d="M97.8,252.8c-2.7,0-5.4-0.3-8-0.8c-2.6-0.4-4.5-2.8-4.1-5.4s2.8-4.5,5.4-4.1c0.1,0,0.3,0,0.4,0.1
					c8,1.4,14.3,0.2,18.7-3.6c8.7-7.7,8.1-23.6,8.1-23.8c0-2.7,2.1-4.8,4.8-4.9c2.5,0,4.6,1.9,4.9,4.4c0,0.8,0.9,20.7-11.3,31.5
					C111.6,250.6,105.3,252.8,97.8,252.8z"/>
				<path class="st12" d="M48.7,47.2h129c13.7,0,24.8,11.1,24.8,24.8v192.3c0,13.7-11.1,24.8-24.8,24.8h-129
					c-13.7,0-24.8-11.1-24.8-24.8V72C23.9,58.3,35,47.2,48.7,47.2z"/>
				<path class="st6" d="M111.3,137.9c-0.9,0-1.7-0.4-2.3-1l-20.2-20.1c-1.3-1.3-1.3-3.3,0-4.6s3.3-1.3,4.6,0l20.2,20.2
					c1.3,1.3,1.3,3.3,0,4.6C113.1,137.6,112.2,137.9,111.3,137.9L111.3,137.9z"/>
				<path class="st5" d="M94.1,44.5h52.5c20.9,0,37.9,17,37.9,37.9l0,0c0,20.9-17,37.9-37.9,37.9H94.1c-20.9,0-37.9-17-37.9-37.9
					l0,0C56.1,61.4,73.1,44.5,94.1,44.5z"/>
				<path class="st25" d="M59.1,237H41.6c-1.6,0-2.9-1.3-2.9-2.9l0,0c0-1.6,1.3-2.9,2.9-2.9h17.5c1.6,0,2.9,1.3,2.9,2.9l0,0
					C62,235.7,60.7,237,59.1,237z"/>
				<path class="st25" d="M181.6,231.2h-29.2c-1.6,0-2.9-1.3-2.9-2.9l0,0c0-1.6,1.3-2.9,2.9-2.9h29.2c1.6,0,2.9,1.3,2.9,2.9l0,0
					C184.5,229.9,183.2,231.2,181.6,231.2z"/>
				<rect x="17.6" y="164.7" class="st5" width="196.5" height="14.9"/>
				<rect x="29.8" y="291.8" class="st26" width="177" height="20"/>
				<rect x="29.8" class="st12" width="177" height="311.8"/>
				<polygon class="st4" points="211.4,4.4 25.4,4.4 25.4,201.2 25.4,223.9 25.4,331.8 211.3,331.8 211.3,223.9 211.4,223.9 				"/>
				<polygon class="st9" points="210,187.1 24,187.1 24,268.6 24,278 24,322.6 209.9,322.6 209.9,278 210,278 				"/>
				<rect x="14.2" y="21.8" class="st4" width="204.2" height="167.6"/>
				<rect x="5.8" y="156.4" class="st11" width="217.1" height="37.4"/>
				<polygon class="st27" points="28.7,146.6 82.6,166.8 23.1,179.7 				"/>
				<polygon class="st27" points="199.4,146.6 145.6,166.8 205.1,179.7 				"/>
				<path class="st6" d="M154.3,208.5L154.3,208.5c-3.2,0-5.8-2.6-5.8-5.8v-64.2c0-3.2,2.6-5.8,5.8-5.8l0,0c3.2,0,5.8,2.6,5.8,5.8
					v64.2C160.1,205.9,157.5,208.5,154.3,208.5z"/>
				<path class="st7" d="M118.6,130.8l2.2-13.4c0.7-4.2,4.7-7.1,8.9-6.4l53.7,8.9c4.2,0.7,7.1,4.7,6.4,8.9l-2.2,13.4
					c-0.7,4.2-4.7,7.1-8.9,6.4l-53.7-8.9C120.8,139,117.9,135,118.6,130.8z"/>
				<path class="st6" d="M90.1,202.7L90.1,202.7c-2.7,0-4.9-2.2-4.9-4.9v-53.5c0-2.7,2.2-4.8,4.9-4.9l0,0c2.7,0,4.9,2.2,4.9,4.9
					v53.5C94.9,200.5,92.7,202.7,90.1,202.7z"/>
				<path class="st6" d="M30.5,116.3h4.3c3.2,0,5.8,2.6,5.8,5.8v92c0,3.2-2.6,5.8-5.8,5.8h-4.3c-3.2,0-5.8-2.6-5.8-5.8v-92
					C24.7,118.9,27.3,116.3,30.5,116.3z"/>
				<path class="st6" d="M65.8,191L65.8,191c-2.7,0-4.9-2.2-4.9-4.9v-53.5c0-2.7,2.2-4.9,4.9-4.9l0,0c2.7,0,4.8,2.2,4.9,4.9v53.5
					C70.6,188.9,68.4,191,65.8,191z"/>
				<path class="st6" d="M178.6,191L178.6,191c-2.7,0-4.9-2.2-4.9-4.9v-53.5c0-2.7,2.2-4.8,4.9-4.9l0,0c2.7,0,4.9,2.2,4.9,4.9v53.5
					C183.4,188.9,181.2,191,178.6,191z"/>
				<path class="st8" d="M109,141.1l-33.5,6.1c-6.6,1.2-12.9-3.2-14.1-9.8l0,0c-1.2-6.6,3.2-12.9,9.8-14.2l33.5-6.1
					c6.6-1.2,12.9,3.2,14.1,9.8l0,0C120,133.5,115.6,139.9,109,141.1z"/>
				<path class="st6" d="M119.2,185.2L119.2,185.2c-3.2,0-5.8-2.6-5.8-5.8v-64.2c0-3.2,2.6-5.8,5.8-5.8l0,0c3.2,0,5.8,2.6,5.8,5.8
					v64.2C125.1,182.6,122.5,185.2,119.2,185.2z"/>
				<path class="st6" d="M202.2,113.3h5.8c3.2,0,5.8,2.6,5.8,5.8v101.9c0,3.2-2.6,5.8-5.8,5.8h-5.8c-3.2,0-5.8-2.6-5.8-5.8V119.2
					C196.3,115.9,198.9,113.3,202.2,113.3z"/>
				<ellipse class="st9" cx="113.5" cy="204.2" rx="116.6" ry="39.4"/>
				<path class="st10" d="M71.9,138.2l-51.3,11.2c-20.5,4.4-40.6-8.6-45.1-29l0,0C-29,99.9-16,79.7,4.4,75.2l51.3-11.2
					c20.5-4.4,40.6,8.6,45.1,29l0,0C105.3,113.5,92.3,133.7,71.9,138.2z"/>
				<path class="st10" d="M224.5,155.1l-51.2-11.8c-20.4-4.7-33.1-25.1-28.5-45.5l0,0c4.7-20.4,25.1-33.1,45.5-28.5l51.1,11.8
					c20.4,4.7,33.1,25,28.5,45.5l0,0C265.2,147,244.9,159.7,224.5,155.1z"/>
				<polygon class="st12" points="203.3,16 37.6,16 37.6,188.7 37.6,208.7 37.6,303.4 203.3,303.4 203.3,208.7 203.3,208.7 				"/>
				<path class="st6" d="M116.1,138.6c-0.9,0-1.7-0.3-2.3-0.9l-20.2-20.2c-1.3-1.3-1.3-3.3,0-4.6s3.3-1.3,4.6,0l20.2,20.2
					c1.3,1.3,1.3,3.3,0,4.6C117.8,138.3,116.9,138.6,116.1,138.6z"/>
				<path class="st5" d="M91.8,45.2h52.5c20.9,0,37.9,17,37.9,37.9v0c0,20.9-17,37.9-37.9,37.9H91.8c-20.9,0-37.9-17-37.9-37.9v0
					C53.8,62.1,70.8,45.2,91.8,45.2z"/>
				<path class="st28" d="M66.9,213.8h101.8c4.3,0,7.8,3.5,7.8,7.8v0.2c0,4.3-3.5,7.8-7.8,7.8H66.9c-4.3,0-7.8-3.5-7.8-7.8v-0.2
					C59.1,217.3,62.6,213.8,66.9,213.8z"/>
				<rect x="28.7" y="235.6" class="st29" width="178.6" height="15.3"/>
				<path class="st30" d="M127.8,115.3L127.8,115.3c0.9,0,1.7,0.8,1.7,1.7v4.2c0,0.9-0.7,1.7-1.7,1.7l0,0c-0.9,0-1.7-0.8-1.7-1.7
					V117C126.1,116.1,126.9,115.3,127.8,115.3z"/>
				<path class="st15" d="M104.2,122.7c-1.1-0.3-2.1-0.8-3.1-1.3c-6.4-3.6-9.7-11.3-9.8-23l9.6-0.1c0,5.5,0.9,12.4,4.8,14.6
					c4.3,2.4,11.9-1.1,14.2-2.5l5,8.2C123.8,119.5,113.5,125.5,104.2,122.7z"/>
				<polygon class="st13" points="98.7,97.5 90.6,105.2 101.3,108.4 				"/>
				<path class="st13" d="M94.3,75.9l-3.1,10.4c-1.6,5.5,1.5,11.3,7,13l0,0c5.5,1.6,11.3-1.5,13-7l3.1-10.3L94.3,75.9z"/>
				<path class="st19" d="M100.2,97.9l2.7,0.8c0.8,0.2,1.2,1.1,1,1.9l-0.1,0.3c-0.2,0.8-1.1,1.2-1.9,1l-2.7-0.8
					c-0.8-0.2-1.2-1.1-1-1.9l0.1-0.3C98.5,98.1,99.4,97.7,100.2,97.9z"/>
				<path class="st19" d="M95,92l1,0.3c1.5,0.5,2.4,2.1,2,3.6l-1.6,5.2c-0.5,1.5-2.1,2.4-3.6,2l-1-0.3c-1.5-0.5-2.4-2.1-2-3.6
					l1.6-5.2C91.8,92.4,93.4,91.5,95,92z"/>
				<path class="st31" d="M131,83.7c0.6-5.2,5.1-10.8,10.7-13.2c3.3-1.4,6.7-1,9.9-0.4c2.6,0.5,7,1.3,8.6-1.9
					c-0.4,0.8,0.3,2.7,0,3.7c-1.1,3-4,5.7-7.3,7c-3.9,1.6-7.7,0.5-11.6,1.1c-1.9,0.3-3.8,0.7-5.6,1.3
					C135.1,81.5,131.1,82.9,131,83.7z"/>
				<path class="st31" d="M152.9,156.2c6.9-0.2,14.3,4,17.4,10.2c1.9,3.7,1.2,7.7,0.4,11.5c-0.7,3.2-1.8,8.4,2.4,9.8
					c-1-0.3-3.6,0.9-4.9,0.6c-4-0.9-7.4-3.6-9.2-7.3c-2.1-4.3-0.6-8.9-1.2-13.4c-0.3-2.1-0.8-4.2-1.6-6.2
					C155.7,160.5,153.9,156.2,152.9,156.2z"/>
				<path class="st32" d="M106,121.6h0.6c1.9,0,3.4,1.5,3.4,3.4v31.5c0,1.9-1.5,3.4-3.4,3.4H106c-1.9,0-3.4-1.5-3.4-3.4V125
					C102.6,123.1,104.1,121.6,106,121.6z"/>
				<rect x="89.7" y="130.6" class="st30" width="15.4" height="39.9"/>
				<path class="st30" d="M100.1,120.7L100.1,120.7c-3.9-3.9-9.4-5.6-14.8-4.7 M85.3,116.1L85.3,116.1L85.3,116.1
					c-3.4,0.6-6.6,2.2-9,4.7l-7.4,7.4l0,0l3.3,3.9l0,0l0,0l18.3,22h0.1c0.3-0.3,0.6-0.5,0.9-0.8l8.8-8.8c6.5-6.6,6.5-17.2,0-23.8
					L85.3,116.1z"/>
				<path class="st33" d="M70.1,134.1c-0.8,0.8-2,0.8-2.8,0c0,0,0,0,0,0l-1.9-1.9l0,0c-4.3,6.7-3.4,15.5,2.2,21.1l0,0
					c6.3,6.2,16.2,6.6,22.9,0.9l0,0l-18.2-22l0,0L70.1,134.1z"/>
				<path class="st30" d="M84.6,103h0.7c2.2,0,4,1.8,4,4v9.6c0,2.2-1.8,4-4,4h-0.7c-2.2,0-4-1.8-4-4v-9.6
					C80.6,104.7,82.4,103,84.6,103z"/>
				<path class="st33" d="M84.6,106.4h0.7c2.2,0,4,1.8,4,4v6.2c0,2.2-1.8,4-4,4h-0.7c-2.2,0-4-1.8-4-4v-6.2
					C80.6,108.1,82.4,106.4,84.6,106.4z"/>
				<path class="st32" d="M87,117.8c0,2.7-2.2,4.9-4.9,4.9c-2.7,0-4.9-2.2-4.9-4.9s2.2-4.9,4.9-4.9c0,0,0,0,0,0
					C84.8,112.8,87,115,87,117.8z"/>
				<path class="st32" d="M93.1,119.9c0,2.1-1.7,3.8-3.8,3.8c-2.1,0-3.8-1.7-3.8-3.8c0-2.1,1.7-3.8,3.8-3.8
					C91.4,116,93.1,117.8,93.1,119.9C93.1,119.9,93.1,119.9,93.1,119.9z"/>
				<circle class="st32" cx="95.8" cy="122.2" r="4.9"/>
				<circle class="st32" cx="91.4" cy="116.1" r="4.9"/>
				<path class="st30" d="M101.3,106.7h0.9c2.8,0,5,2.2,5,5v12.1c0,2.8-2.2,5-5,5h-0.9c-2.8,0-5-2.2-5-5v-12.1
					C96.3,108.9,98.5,106.7,101.3,106.7z"/>
				<path class="st33" d="M101.3,111h0.9c2.8,0,5,2.2,5,5v7.8c0,2.8-2.2,5-5,5h-0.9c-2.8,0-5-2.2-5-5V116
					C96.3,113.2,98.5,111,101.3,111z"/>
				<path class="st33" d="M65.3,132.1l1.9,1.9c0.8,0.8,2,0.8,2.8,0c0,0,0,0,0,0l2-2l0,0l-3.3-3.9l0,0l-1.3,1.3
					C66.7,130.3,66,131.2,65.3,132.1C65.3,132.1,65.3,132.1,65.3,132.1z"/>
				<circle class="st14" cx="88.5" cy="131.4" r="3.6"/>
				<path class="st30" d="M150,192.7h-47.4c-7.1,0-13-8.2-13-18.3v-2.8c0-10.1,5.8-18.3,12.3-17.4h47.5c7.8-1,13.7,7.3,13.7,17.4
					v2.8C163,184.5,157.1,192.7,150,192.7z"/>
				<rect x="89.4" y="167.8" class="st30" width="13.2" height="50.5"/>
				<rect x="89.4" y="217.2" class="st33" width="13.2" height="10.2"/>
				<polygon class="st30" points="163,169.9 150.7,183.6 150.7,217.2 163,217.2 				"/>
				<rect x="150.7" y="217.2" class="st33" width="12.3" height="10.2"/>
				<path class="st34" d="M120.7,124c4-1.4,6.1-5.7,4.8-9.7l0,0c-1.4-4-5.7-6.1-9.7-4.8l-4.8,1.6l4.9,14.5L120.7,124z"/>
				<path class="st30" d="M131,108.8h2.9c8.5,0,15.3,6.9,15.3,15.3l0,0v35.1c0,0.9-0.8,1.7-1.7,1.7h-30.2c-0.9,0-1.7-0.8-1.7-1.7
					v-35.1C115.7,115.7,122.6,108.8,131,108.8L131,108.8L131,108.8z"/>
				<path class="st19" d="M131.7,95.7h0.7c2.1,0,3.8,1.7,3.8,3.8v9.1c0,2.1-1.7,3.8-3.8,3.8h-0.7c-2.1,0-3.8-1.7-3.8-3.8v-9.1
					C128,97.4,129.7,95.7,131.7,95.7z"/>
				<path class="st35" d="M128,108.3c0,0,4.2,2.4,8.2,0.1V107H128V108.3z"/>
				<path class="st19" d="M130.9,80.2h2.3c6.9,0,12.4,5.6,12.4,12.4v3.4c0,6.9-5.6,12.4-12.4,12.4h-2.3c-6.9,0-12.4-5.6-12.4-12.4
					v-3.4C118.5,85.8,124.1,80.2,130.9,80.2z"/>
				<path class="st30" d="M141.3,88.5h1.8c1.4,0,2.6,1.1,2.6,2.6v11.1c0,1.4-1.1,2.6-2.6,2.6h-1.8c-1.4,0-2.6-1.1-2.6-2.6V91
					C138.8,89.6,139.9,88.5,141.3,88.5z"/>
				<path class="st35" d="M128,98.3c-0.8,0-1.4,0.6-1.4,1.4l0,0h2.9C129.4,98.9,128.8,98.3,128,98.3L128,98.3z"/>
				<path class="st35" d="M129,102.2c-0.8,0-1.4,0.6-1.4,1.4l0,0h2.9C130.4,102.8,129.8,102.2,129,102.2z"/>
				<circle class="st34" cx="122.1" cy="96.6" r="1.1"/>
				<path class="st34" d="M136,96.6c0,0.6-0.5,1.1-1.1,1.1c-0.6,0-1.1-0.5-1.1-1.1c0-0.6,0.5-1.1,1.1-1.1l0,0
					C135.6,95.6,136,96,136,96.6z"/>
				<path class="st19" d="M136.6,158.8l0.1,0.8c0.2,2.5-1.7,4.7-4.2,4.9l-14.6,1.2c-2.5,0.2-4.7-1.7-4.9-4.2l-0.1-0.8
					c-0.2-2.5,1.7-4.7,4.2-4.9l14.6-1.2C134.2,154.4,136.4,156.3,136.6,158.8z"/>
				<path class="st19" d="M98.4,187.4l1-0.6c0.6-0.4,1.2-0.5,1.9-0.5l3.9,0.2c0-0.1,0-0.1,0-0.2l1.8-6.6l1.3-4.8l4.2-15.2
					c0.8-2.8,3.7-4.4,6.5-3.7c2.8,0.8,4.4,3.7,3.7,6.5l0,0l-4.1,15.2l-1.3,4.8l-1.6,5.7c0.6,0.8,0.8,1.8,0.5,2.7l-0.9,3.3
					c-0.5,1.7-2.2,2.7-3.9,2.2l-12.1-3.4c-1.7-0.5-2.7-2.2-2.2-3.8C97.2,188.5,97.7,187.9,98.4,187.4z"/>
				<path class="st36" d="M112.4,163.1l9.2,2.6c0.5,0.1,0.8,0.6,0.6,1.1l0,0.2c-0.1,0.5-0.6,0.8-1.1,0.6l-9.2-2.6
					c-0.5-0.1-0.8-0.6-0.6-1.1l0-0.2C111.4,163.2,111.9,162.9,112.4,163.1z"/>
				<path class="st36" d="M121.3,166.8l0.1,0.2c0.4,0.5,0.3,1.1-0.2,1.5L110,177c-0.5,0.4-1.1,0.3-1.5-0.2l-0.1-0.2
					c-0.4-0.5-0.3-1.1,0.2-1.5l11.2-8.6C120.3,166.2,121,166.3,121.3,166.8z"/>
				<path class="st36" d="M118.1,179.3l-0.2,0.1c-0.5,0.2-1,0-1.2-0.5l-5.3-13.3c-0.2-0.5,0-1,0.5-1.2l0.2-0.1c0.5-0.2,1,0,1.2,0.5
					l5.3,13.3C118.8,178.5,118.6,179.1,118.1,179.3z"/>
				<path class="st36" d="M118.3,177.7l0.1,0.2c0.4,0.5,0.3,1.1-0.2,1.5l-11.2,8.6c-0.5,0.4-1.1,0.3-1.5-0.2l-0.1-0.2
					c-0.4-0.5-0.3-1.1,0.2-1.5l11.2-8.6C117.3,177.2,117.9,177.3,118.3,177.7z"/>
				<path class="st36" d="M115,190.2l-0.2,0.1c-0.5,0.2-1.1,0-1.4-0.6l-5.2-13.1c-0.2-0.5,0-1.1,0.6-1.4l0.2-0.1
					c0.5-0.2,1.1,0,1.4,0.6l5.2,13.1C115.8,189.4,115.5,190,115,190.2z"/>
				<path class="st36" d="M101.1,186.2l0.1,0c0.5,0.1,0.7,0.6,0.6,1.1l-1.3,4.8c-0.1,0.5-0.6,0.7-1.1,0.6l-0.1,0
					c-0.5-0.1-0.7-0.6-0.6-1.1l1.3-4.8C100.2,186.3,100.7,186,101.1,186.2z"/>
				<path class="st36" d="M104.9,186.3l0.1,0c0.5,0.1,0.7,0.6,0.6,1.1l-1.5,5.6c-0.1,0.5-0.6,0.7-1.1,0.6l-0.1,0
					c-0.5-0.1-0.7-0.6-0.6-1.1l1.5-5.6C104,186.5,104.5,186.2,104.9,186.3z"/>
				<path class="st36" d="M105.9,186.4l8.8,2.4c0.5,0.1,0.8,0.7,0.7,1.2l0,0l0,0.2c-0.1,0.5-0.7,0.8-1.2,0.7c0,0,0,0,0,0l-8.8-2.4
					c-0.5-0.1-0.8-0.7-0.7-1.2l0,0l0-0.2C104.9,186.6,105.4,186.3,105.9,186.4C105.9,186.4,105.9,186.4,105.9,186.4z"/>
				<path class="st36" d="M114.3,197.6l-17.4-4.8c-0.5-0.1-0.7-0.6-0.6-1.1l0-0.2c0.1-0.5,0.6-0.7,1.1-0.6l17.4,4.8
					c0.5,0.1,0.7,0.6,0.6,1.1l0,0.2C115.3,197.5,114.8,197.8,114.3,197.6z"/>
				<path class="st36" d="M114.4,197.7l-0.2-0.1c-0.5-0.1-0.8-0.7-0.7-1.2l2-7.2c0.1-0.5,0.7-0.8,1.2-0.7l0.2,0.1
					c0.5,0.1,0.8,0.7,0.7,1.2l-2,7.2C115.4,197.5,114.9,197.8,114.4,197.7z"/>
				<polygon class="st34" points="157.4,165.9 128.4,165.9 123.3,153.9 149.5,153.9 				"/>
				<path class="st34" d="M115.6,144.8h33.5c1.1,0,2,0.9,2,2v0.4c0,1.1-0.9,2-2,2h-33.5c-1.1,0-2-0.9-2-2v-0.4
					C113.6,145.7,114.5,144.8,115.6,144.8z"/>
				<path class="st34" d="M119.2,155l0.5,0.4c1.5,1.1,1.8,3.1,0.7,4.6l-3.5,4.8c-1.1,1.5-3.1,1.8-4.6,0.7l-0.5-0.4
					c-1.5-1.1-1.8-3.1-0.7-4.6l3.5-4.8C115.7,154.2,117.7,153.9,119.2,155z"/>
				<path class="st30" d="M137.5,100.1h4.3c2.1,0,3.9,1.7,3.9,3.9v0.7c0,2.1-1.7,3.9-3.9,3.9h-4.3c-2.1,0-3.9-1.7-3.9-3.9v-0.7
					C133.6,101.8,135.3,100.1,137.5,100.1z"/>
				<path class="st30" d="M118.7,83.8h0.2c0.7,0,1.2,0.5,1.2,1.2v18.8c0,0.7-0.5,1.2-1.2,1.2h-0.2c-0.7,0-1.2-0.5-1.2-1.2V85
					C117.5,84.4,118,83.8,118.7,83.8z"/>
				<path class="st30" d="M120.9,100.5h0.7c1.9,0,3.4,1.5,3.4,3.4v0.6c0,1.9-1.5,3.4-3.4,3.4h-0.7c-1.9,0-3.4-1.5-3.4-3.4v-0.6
					C117.5,102,119,100.5,120.9,100.5z"/>
				<path class="st30" d="M121.7,80.2h19.7c3.3,0,6,2.7,6,6v1.1c0,3.3-2.7,6-6,6h-19.7c-3.3,0-6-2.7-6-6v-1.1
					C115.7,82.9,118.4,80.2,121.7,80.2z"/>
				<path class="st15" d="M104.8,147.1c-2.4-0.1-4.2-2.1-4.1-4.5c0.1-2.2,1.9-4,4.1-4.1c14.5,0,24.7-2.9,28.5-8
					c1.6-2.2,2.2-4.9,1.5-7.5v0.1l8.2-2.8c1.5,5.2,0.6,10.8-2.6,15.1C134.8,143.1,122.9,147.1,104.8,147.1z"/>
				<path class="st34" d="M146.8,121.1c-0.1-4.8-4.1-8.7-8.9-8.6l0,0c-4.8,0.1-8.7,4.1-8.6,8.9l0.1,5.7l17.5-0.3L146.8,121.1z"/>
				<rect x="21.1" y="246.2" class="st11" width="194.4" height="52.9"/>
				<path class="st25" d="M53.3,261h40.6c2.2,0,3.9,1.8,3.9,4v0c0,2.2-1.8,4-3.9,4H53.3c-2.2,0-3.9-1.8-3.9-4v0
					C49.3,262.8,51.1,261,53.3,261z"/>
				<path class="st25" d="M115.5,272.4h36.9c2.3,0,4.2,1.9,4.2,4.2l0,0c0,2.3-1.9,4.2-4.2,4.2h-36.9c-2.3,0-4.2-1.9-4.2-4.2l0,0
					C111.3,274.3,113.2,272.4,115.5,272.4z"/>
				<path class="st25" d="M129.6,254h63.8c2.3,0,4.2,1.9,4.2,4.2l0,0c0,2.3-1.9,4.2-4.2,4.2h-63.8c-2.3,0-4.2-1.9-4.2-4.2l0,0
					C125.4,255.9,127.3,254,129.6,254z"/>
			</g>
		</g>
	</g>
</g>
</svg>
