<svg xmlns="http://www.w3.org/2000/svg" xmlns:xlink="http://www.w3.org/1999/xlink" viewBox="0 0 235.04 381.18"><defs><style>.cls-1{fill:none;}.cls-2{fill:#f4b155;}.cls-3{fill:#fff0cc;}.cls-4{fill:#231f20;}.cls-5{clip-path:url(#clip-path);}.cls-6{fill:#a7f1f9;}.cls-7{fill:#fff;}.cls-8{fill:#67d8db;}.cls-9{fill:#81efef;}.cls-10{fill:#79b27b;}.cls-11{fill:#8ecc95;}.cls-12{fill:#f2c351;}.cls-13{fill:#d1d3d4;}.cls-14{fill:#ffd150;}.cls-15{fill:#47c1c8;}.cls-16{fill:#dd4f65;}.cls-17{fill:#ee915b;}.cls-18{fill:#e6705f;}.cls-19{fill:#f4b055;}.cls-20{fill:#ffc152;}.cls-21{fill:#414042;}.cls-22{fill:#f5b155;}.cls-23{fill:#ffd351;}</style><clipPath id="clip-path"><rect class="cls-1" x="28.69" y="46.66" width="178.55" height="241.88" rx="24.79"/></clipPath></defs><g id="Layer_2" data-name="Layer 2"><g id="Layer_1-2" data-name="Layer 1"><path class="cls-2" d="M235,14.45V366.73c0,8-6.73,14.45-15,14.45H15c-8.26,0-15-6.48-15-14.45V14.45C0,6.48,6.73,0,15,0H220C228.31,0,235,6.48,235,14.45Zm-12.6,343.89V22.83A10.83,10.83,0,0,0,211.62,12H23.42A10.83,10.83,0,0,0,12.6,22.83V358.34a10.83,10.83,0,0,0,10.82,10.82h188.2A10.83,10.83,0,0,0,222.44,358.34Z"/><rect class="cls-3" x="12.6" y="12.02" width="209.84" height="357.15" rx="10.82"/><path class="cls-4" d="M56.9,337.49a2.91,2.91,0,0,1-1-2.17,5.22,5.22,0,0,1-3.67-1.86,6.67,6.67,0,0,1-1.28-4.29,6.42,6.42,0,0,1,1.55-4.59A5.85,5.85,0,0,1,56.91,323a5.83,5.83,0,0,1,4.42,1.62,6.38,6.38,0,0,1,1.56,4.59,6.46,6.46,0,0,1-1.36,4.35,5.56,5.56,0,0,1-3.92,1.8,1.34,1.34,0,0,0,.57,1.12,2.5,2.5,0,0,0,1.39.36,3.08,3.08,0,0,0,1.71-.49.34.34,0,0,1,.18-.07c.06,0,.11,0,.16.12l.52.83a.35.35,0,0,1,0,.17q0,.11-.15.21a4.44,4.44,0,0,1-1.17.55,5.29,5.29,0,0,1-1.39.17A3.88,3.88,0,0,1,56.9,337.49Zm2.81-4.92a6.5,6.5,0,0,0,0-6.8,4,4,0,0,0-5.61,0,6.39,6.39,0,0,0,0,6.8,3.95,3.95,0,0,0,5.61,0Z"/><path class="cls-4" d="M67.06,334.85a4.1,4.1,0,0,1-1.87-1.55,4.18,4.18,0,0,1-.67-2.38v-7.05a.67.67,0,0,1,.15-.49.65.65,0,0,1,.5-.16h.93a.65.65,0,0,1,.5.16.63.63,0,0,1,.16.49V331a2.62,2.62,0,0,0,.8,2.07,4,4,0,0,0,4.55,0,2.62,2.62,0,0,0,.8-2.07v-7.1a.67.67,0,0,1,.15-.49.69.69,0,0,1,.51-.16h.91c.46,0,.68.21.68.65v7.05a4.15,4.15,0,0,1-.67,2.37,4.37,4.37,0,0,1-1.88,1.55,7.46,7.46,0,0,1-5.55,0Z"/><path class="cls-4" d="M77.29,335a.65.65,0,0,1-.15-.47V323.87a.67.67,0,0,1,.15-.49.65.65,0,0,1,.5-.16h7.28a.6.6,0,0,1,.48.14.66.66,0,0,1,.14.47v.47a.72.72,0,0,1-.14.49.64.64,0,0,1-.48.14H79.38v3.4h4.13a.68.68,0,0,1,.49.14.62.62,0,0,1,.14.47v.44a.66.66,0,0,1-.14.48.64.64,0,0,1-.49.15H79.38v3.41h5.68a.67.67,0,0,1,.49.15.71.71,0,0,1,.14.48v.48a.62.62,0,0,1-.14.45.67.67,0,0,1-.49.14H77.79A.65.65,0,0,1,77.29,335Z"/><path class="cls-4" d="M87.37,335a.69.69,0,0,1-.14-.47V323.87a.72.72,0,0,1,.14-.49.65.65,0,0,1,.5-.16h7.29a.63.63,0,0,1,.48.14.71.71,0,0,1,.13.47v.47a.78.78,0,0,1-.13.49.67.67,0,0,1-.48.14H89.47v3.4H93.6a.72.72,0,0,1,.49.14.66.66,0,0,1,.14.47v.44a.71.71,0,0,1-.14.48.67.67,0,0,1-.49.15H89.47v3.41h5.67a.67.67,0,0,1,.49.15.71.71,0,0,1,.14.48v.48a.62.62,0,0,1-.14.45.67.67,0,0,1-.49.14H87.87A.65.65,0,0,1,87.37,335Z"/><path class="cls-4" d="M97.46,335a.65.65,0,0,1-.15-.47V323.87a.56.56,0,0,1,.66-.65h.81a.81.81,0,0,1,.38.07.74.74,0,0,1,.28.28l5.78,8v-7.72a.67.67,0,0,1,.15-.49.65.65,0,0,1,.5-.16h.93a.65.65,0,0,1,.5.16.63.63,0,0,1,.16.49v10.62a.65.65,0,0,1-.15.47.66.66,0,0,1-.51.16H106a.84.84,0,0,1-.36-.06.77.77,0,0,1-.28-.27l-5.78-8v7.7a.65.65,0,0,1-.15.47.67.67,0,0,1-.52.16H98A.64.64,0,0,1,97.46,335Z"/><path class="cls-4" d="M117.55,333.76a7.61,7.61,0,0,1,0-9.18,6.88,6.88,0,0,1,8.87,0,7.53,7.53,0,0,1,0,9.18,6.88,6.88,0,0,1-8.87,0Zm7.24-1.19a6.44,6.44,0,0,0,0-6.8,3.43,3.43,0,0,0-2.8-1.15,3.47,3.47,0,0,0-2.81,1.15,6.44,6.44,0,0,0,0,6.8,3.46,3.46,0,0,0,2.81,1.17A3.41,3.41,0,0,0,124.79,332.57Z"/><path class="cls-4" d="M129.84,335a.65.65,0,0,1-.15-.47V323.87a.67.67,0,0,1,.15-.49.65.65,0,0,1,.5-.16h7.28a.64.64,0,0,1,.49.14.71.71,0,0,1,.13.47v.47a.78.78,0,0,1-.13.49.68.68,0,0,1-.49.14h-5.68v3.38h4.13a.72.72,0,0,1,.49.14.69.69,0,0,1,.14.48v.47a.71.71,0,0,1-.14.48.67.67,0,0,1-.49.15h-4.13v4.46a.65.65,0,0,1-.15.47.67.67,0,0,1-.52.16h-.93A.65.65,0,0,1,129.84,335Z"/><path class="cls-4" d="M148,333.61a7,7,0,0,1,5.11-12.14,10.15,10.15,0,0,1,2.47.28,6.18,6.18,0,0,1,1.93.78.34.34,0,0,1,.17.26.48.48,0,0,1-.1.27L157,324c-.07.11-.15.17-.21.17a.72.72,0,0,1-.28-.1,6.11,6.11,0,0,0-3.16-.74,4.67,4.67,0,0,0-3.48,1.27,5.3,5.3,0,0,0-1.25,3.83,5.18,5.18,0,0,0,1.29,3.86,4.78,4.78,0,0,0,3.5,1.27,6.53,6.53,0,0,0,3.36-.77.94.94,0,0,1,.25-.09c.08,0,.16.06.24.17l.61,1a.49.49,0,0,1,.06.2c0,.08-.07.16-.22.26a8.05,8.05,0,0,1-4.57,1.06A7.06,7.06,0,0,1,148,333.61Z"/><path class="cls-4" d="M162.6,334.82a4.62,4.62,0,0,1-2.85-4.41v-7.92a.79.79,0,0,1,.17-.55.74.74,0,0,1,.56-.17h1a.78.78,0,0,1,.57.17.74.74,0,0,1,.18.55v8a2.92,2.92,0,0,0,.89,2.31,3.75,3.75,0,0,0,2.57.79,3.7,3.7,0,0,0,2.54-.79,2.89,2.89,0,0,0,.89-2.31v-8a.74.74,0,0,1,.18-.55.78.78,0,0,1,.57-.17h1c.51,0,.77.24.77.72v7.92a4.7,4.7,0,0,1-.76,2.66,4.92,4.92,0,0,1-2.11,1.74,7.59,7.59,0,0,1-3.1.61A7.7,7.7,0,0,1,162.6,334.82Z"/><path class="cls-4" d="M174.08,335a.76.76,0,0,1-.16-.53V322.49a.79.79,0,0,1,.16-.55.74.74,0,0,1,.56-.17h5a4.93,4.93,0,0,1,3.59,1.15,5.2,5.2,0,0,1,0,6.55,5,5,0,0,1-3.59,1.13h-3.24v3.82a.77.77,0,0,1-.17.53.8.8,0,0,1-.58.17h-1A.78.78,0,0,1,174.08,335Zm5.47-6.25a2.37,2.37,0,0,0,1.79-.62,2.64,2.64,0,0,0,.59-1.87,2.67,2.67,0,0,0-.59-1.9,2.37,2.37,0,0,0-1.79-.62h-3.12v5Z"/><g class="cls-5"><rect class="cls-6" x="18.13" y="14.64" width="203.44" height="289.28"/><path class="cls-7" d="M82.91,140.79H10.16a9.43,9.43,0,0,1-9.4-9.39h0a9.43,9.43,0,0,1,9.4-9.4H82.91a9.43,9.43,0,0,1,9.39,9.4h0A9.42,9.42,0,0,1,82.91,140.79Z"/><circle class="cls-7" cx="37.27" cy="117.45" r="23.35" transform="translate(-84.61 135.57) rotate(-80.85)"/><circle class="cls-7" cx="62.94" cy="124.16" r="16.64" transform="translate(-72.3 157.12) rotate(-76.81)"/><path class="cls-7" d="M156.91,143.6h58a7.51,7.51,0,0,0,7.49-7.5h0a7.51,7.51,0,0,0-7.49-7.49h-58a7.51,7.51,0,0,0-7.5,7.49h0A7.52,7.52,0,0,0,156.91,143.6Z"/><circle class="cls-7" cx="193.31" cy="124.97" r="18.63" transform="translate(-17.61 32.78) rotate(-9.27)"/><circle class="cls-7" cx="172.83" cy="130.33" r="13.27"/><path class="cls-7" d="M148.9,77h18.6a2.41,2.41,0,0,0,2.4-2.4h0a2.41,2.41,0,0,0-2.4-2.41H148.9a2.41,2.41,0,0,0-2.4,2.41h0A2.41,2.41,0,0,0,148.9,77Z"/><circle class="cls-7" cx="160.57" cy="71.04" r="5.97"/><path class="cls-7" d="M149.75,72.76A4.26,4.26,0,1,0,154,68.5,4.25,4.25,0,0,0,149.75,72.76Z"/><path class="cls-7" d="M91.78,90.8H72.67a2.48,2.48,0,0,1-2.47-2.47h0a2.47,2.47,0,0,1,2.47-2.46H91.78a2.47,2.47,0,0,1,2.47,2.46h0A2.48,2.48,0,0,1,91.78,90.8Z"/><circle class="cls-7" cx="79.79" cy="84.67" r="6.13"/><path class="cls-7" d="M90.91,86.43a4.37,4.37,0,1,1-4.37-4.37A4.37,4.37,0,0,1,90.91,86.43Z"/><rect class="cls-8" x="10.81" y="137.18" width="218.08" height="155.07"/><path class="cls-9" d="M82.41,143.05H71a.73.73,0,0,1-.73-.72h0a.73.73,0,0,1,.73-.73H82.41a.73.73,0,0,1,.73.73h0A.73.73,0,0,1,82.41,143.05Z"/><path class="cls-9" d="M93.67,148.61H82.26a.73.73,0,0,1-.73-.72h0a.73.73,0,0,1,.73-.73H93.67a.73.73,0,0,1,.73.73h0A.73.73,0,0,1,93.67,148.61Z"/><path class="cls-9" d="M174,146.4H162.57a.73.73,0,0,1-.73-.73h0a.73.73,0,0,1,.73-.72H174a.72.72,0,0,1,.72.72h0A.73.73,0,0,1,174,146.4Z"/><path class="cls-9" d="M164.2,141.35H152.78a.73.73,0,0,1-.72-.73h0a.72.72,0,0,1,.72-.72H164.2a.73.73,0,0,1,.73.72h0A.73.73,0,0,1,164.2,141.35Z"/><path class="cls-9" d="M85.67,153.36H74.25a.73.73,0,0,1-.73-.72h0a.73.73,0,0,1,.73-.72H85.67a.72.72,0,0,1,.72.72h0A.72.72,0,0,1,85.67,153.36Z"/><path class="cls-10" d="M16.5,113.57s42.89,16.13,90.67,63.92h33.22s35.85-55.36,70.64-55.36v73.81H11Z"/><rect class="cls-11" x="18.82" y="166.9" width="210.07" height="127.83"/><rect class="cls-1" x="32.8" y="14.64" width="174.11" height="289.28"/><rect class="cls-8" x="24.66" y="246.83" width="192.56" height="47.91"/><rect class="cls-9" x="158.02" y="255.03" width="30.12" height="4.02" rx="1.83"/><rect class="cls-9" x="52.64" y="255.25" width="30.12" height="4.02" rx="1.83"/><rect class="cls-9" x="10.32" y="255.25" width="30.12" height="4.02" rx="1.83"/><path class="cls-12" d="M126.2,148.6a38.47,38.47,0,0,1,38.38-38.46v-3h-3.17A38.46,38.46,0,0,0,123,145.61v3.17h41.63v-.18Z"/><path class="cls-12" d="M164.66,110.14h-.08V148.6h.08Z"/><path class="cls-12" d="M126.2,160a38.46,38.46,0,0,1,38.38-38.46v-3h-3.17A38.46,38.46,0,0,0,123,157v3.17h41.63V160Z"/><path class="cls-12" d="M164.66,121.52h-.08V160h.08Z"/><path class="cls-12" d="M126.2,173.17a38.47,38.47,0,0,1,38.38-38.46v-3h-3.17A38.46,38.46,0,0,0,123,170.18v3.17h41.63v-.18Z"/><path class="cls-12" d="M164.66,134.71h-.08v38.46h.08Z"/><path class="cls-12" d="M121.07,148.6a38.47,38.47,0,0,0-38.38-38.46v-3h3.17a38.45,38.45,0,0,1,38.45,38.46v3.17H82.69v-.18Z"/><path class="cls-12" d="M82.61,110.14h.08V148.6h-.08Z"/><path class="cls-12" d="M121.07,160a38.46,38.46,0,0,0-38.38-38.46v-3h3.17A38.45,38.45,0,0,1,124.31,157v3.17H82.69V160Z"/><path class="cls-12" d="M82.61,121.52h.08V160h-.08Z"/><path class="cls-12" d="M121.07,173.17a38.47,38.47,0,0,0-38.38-38.46v-3h3.17a38.45,38.45,0,0,1,38.45,38.46v3.17H82.69v-.18Z"/><path class="cls-12" d="M82.61,134.71h.08v38.46h-.08Z"/><rect class="cls-13" x="86.46" y="234.54" width="78.78" height="15.14"/><rect class="cls-12" x="157.98" y="196.24" width="13.25" height="55.44"/><circle class="cls-12" cx="164.61" cy="189.94" r="12.46" transform="translate(-59.8 76.75) rotate(-22.32)"/><rect class="cls-14" x="161.38" y="97.44" width="8.46" height="93.39"/><rect class="cls-14" x="90.4" y="217.06" width="71.22" height="14.32"/><path class="cls-14" d="M98.91,267.22l1-1.14a4.13,4.13,0,0,1,2.16-1.25l4.94-1.06c0-.07,0-.15,0-.22V227.78a6.81,6.81,0,1,1,13.61,0v34.53a4,4,0,0,1,1.59,3.23V270a4.07,4.07,0,0,1-4.06,4.07H101.92A4.07,4.07,0,0,1,98.91,267.22Z"/><path class="cls-14" d="M134.83,262.31V227.78a6.81,6.81,0,1,1,13.61,0v35.77c0,.07,0,.15,0,.22l4.94,1.06a4.06,4.06,0,0,1,2.15,1.25l1,1.14a4.07,4.07,0,0,1-3,6.8H137.3a4.07,4.07,0,0,1-4.07-4.07v-4.41A4.05,4.05,0,0,1,134.83,262.31Z"/><path class="cls-15" d="M86.46,183.39a9.36,9.36,0,0,0,9.34,9.33h60.1a9.36,9.36,0,0,0,9.34-9.33"/><rect class="cls-16" x="90.4" y="196.24" width="71.22" height="20.82"/><rect class="cls-12" x="86.86" y="147.32" width="74.36" height="36.07"/><rect class="cls-17" x="89.13" y="200.93" width="73.67" height="49.3"/><rect class="cls-18" x="89.13" y="183.39" width="73.67" height="18.18"/><rect class="cls-14" x="154.37" y="196.24" width="13.25" height="55.44"/><circle class="cls-14" cx="161" cy="189.94" r="12.46" transform="translate(-60.99 302.71) rotate(-76.65)"/><rect class="cls-14" x="119.81" y="121.87" width="12.79" height="21.29" rx="5.33"/><path class="cls-19" d="M124.82,110h0l.66,0h.2a.1.1,0,0,0,.1-.13.61.61,0,0,0-.15-.26.56.56,0,0,0-.41-.16.55.55,0,0,0-.37.14.76.76,0,0,0-.11.14l-.06.15A.12.12,0,0,0,124.82,110Zm.06-.32Z"/><path class="cls-15" d="M164.61,177.55a6.27,6.27,0,0,1-1.75-.25c-16.82-5-19.83-31.73-20.11-34.76a6.12,6.12,0,1,1,12.18-1.16c.69,7,4.37,22.09,11.42,24.18a6.12,6.12,0,0,1-1.74,12Z"/><polygon class="cls-1" points="129.59 109.46 129.59 109.47 129.59 109.46 129.59 109.46"/><path class="cls-15" d="M139.48,136.11l-15.34,8.36-15.34-8.36a25.48,25.48,0,0,0-10.16,20.37v28.21h51V156.48A25.48,25.48,0,0,0,139.48,136.11Z"/><rect class="cls-14" x="82.23" y="97.44" width="8.46" height="93.39"/><rect class="cls-16" x="168.59" y="153.02" width="2.12" height="4.85" rx="0.88" transform="translate(227.17 -67.35) rotate(61.98)"/><rect class="cls-16" x="165.69" y="153.2" width="1.69" height="3.85" rx="0.7" transform="translate(-53.34 96.33) rotate(-28)"/><path class="cls-17" d="M174.77,166a9,9,0,1,1-7.49-10.24A9,9,0,0,1,174.77,166Z"/><line class="cls-14" x1="123.67" y1="67.3" x2="123.67" y2="67.3"/><rect class="cls-15" x="90.4" y="131.37" width="68.72" height="15.95" rx="6.65"/><path class="cls-14" d="M139.14,131.12a14.26,14.26,0,1,1-14.26-14.25A14.25,14.25,0,0,1,139.14,131.12Z"/><rect class="cls-12" x="73.21" y="196.24" width="13.25" height="53.7"/><circle class="cls-12" cx="79.84" cy="189.94" r="12.46" transform="translate(-110.92 112.08) rotate(-45)"/><rect class="cls-14" x="77.15" y="196.24" width="13.25" height="53.7"/><circle class="cls-14" cx="83.78" cy="189.94" r="12.46" transform="translate(-120.38 227.58) rotate(-76.65)"/><path class="cls-15" d="M81.47,157a19,19,0,0,1-4.07-.43c-8.88-1.91-15.54-9.87-19.8-23.66l11.31-3.5c2,6.45,5.52,14.4,11,15.58,5.95,1.3,13.65-5.53,15.88-8l8.86,7.85C103.41,146.14,93.46,157,81.47,157Z"/><path class="cls-20" d="M55.44,108.3l-.06,10.26a10,10,0,0,0,8.28,9.84v7.44l-4.16,2.88s1.07.84,5.78.84h0c4.72,0,5.84-.85,5.84-.85L67,135.87v-7.48a10,10,0,0,0,8.22-9.7l.06-10.27Z"/><rect class="cls-14" x="65" y="129.1" width="7.12" height="4.04" rx="1.69"/><rect class="cls-14" x="55.94" y="123.93" width="8.53" height="13.93" rx="3.55"/><rect class="cls-21" x="101.16" y="78.6" width="19.52" height="74.38" rx="7.78"/><rect class="cls-21" x="127.14" y="78.6" width="19.52" height="74.38" rx="7.78"/><path class="cls-14" d="M103.77,92.23v14.54a20,20,0,0,0,19.9,19.9h0a20,20,0,0,0,19.9-19.9V92.23Z"/><rect class="cls-22" x="98.19" y="87.9" width="51.53" height="5.45" rx="2.27"/><path class="cls-23" d="M123.58,69.38c11.9,14.26,26.14,1.37,26.14,1.37L147,87.9H101L98.19,70.75s14.24,12.89,26.14-1.37"/><path class="cls-19" d="M122.26,108.07a1.85,1.85,0,1,1,3.69,0Z"/><rect class="cls-21" x="108.17" y="95.56" width="12.7" height="2.99" rx="1.25"/><path class="cls-22" d="M82.23,97.05v3.66a8.82,8.82,0,0,0,4.1,1,8.69,8.69,0,0,0,4.36-1.17v-3.5Z"/><path class="cls-22" d="M161.38,97.05v3.66a8.77,8.77,0,0,0,8.46-.16v-3.5Z"/><rect class="cls-21" x="126.5" y="95.56" width="12.7" height="2.99" rx="1.25"/><path class="cls-21" d="M132.85,105.28c-2.89,0-5.24-1.88-5.24-4.2a.33.33,0,0,1,.65,0c0,2,2.05,3.55,4.59,3.55s4.58-1.59,4.58-3.55a.33.33,0,0,1,.65,0C138.08,103.4,135.73,105.28,132.85,105.28Z"/><path class="cls-21" d="M115.35,105.28c-2.88,0-5.23-1.88-5.23-4.2a.32.32,0,1,1,.64,0c0,2,2.06,3.55,4.59,3.55s4.59-1.59,4.59-3.55a.33.33,0,0,1,.65,0C120.59,103.4,118.24,105.28,115.35,105.28Z"/><path class="cls-22" d="M124,116.76a20.71,20.71,0,0,1-6.33-1,.65.65,0,0,1,.43-1.22c.06,0,5.84,2,11.27,0a.64.64,0,0,1,.83.38.65.65,0,0,1-.39.83A17,17,0,0,1,124,116.76Z"/><circle class="cls-23" cx="98.02" cy="67.87" r="3.15"/><path class="cls-23" d="M127,66.78a3.16,3.16,0,1,1-3.15-3.16A3.15,3.15,0,0,1,127,66.78Z"/><path class="cls-23" d="M153.29,67.56a3.15,3.15,0,1,1-3.15-3.15A3.16,3.16,0,0,1,153.29,67.56Z"/><circle class="cls-14" cx="86.33" cy="91.82" r="8.77" transform="translate(-28.45 39.77) rotate(-22.37)"/><circle class="cls-14" cx="86.33" cy="91.82" r="8.77" transform="translate(-28.45 39.77) rotate(-22.37)"/><circle class="cls-14" cx="165.61" cy="91.82" r="8.77" transform="translate(-22.48 69.95) rotate(-22.37)"/><rect class="cls-12" x="64.32" y="249.68" width="28.75" height="13.28" rx="5.79"/><rect class="cls-14" x="69.72" y="249.68" width="28.75" height="13.28" rx="5.79"/><rect class="cls-12" x="149.95" y="249.68" width="28.75" height="13.28" rx="5.79" transform="translate(328.65 512.63) rotate(180)"/><rect class="cls-14" x="144.55" y="249.68" width="28.75" height="13.28" rx="5.79" transform="translate(317.85 512.63) rotate(180)"/><path class="cls-15" d="M154.6,240.23h0L158.73,197c0-15-10.29-27.09-23-27.09H112.62c-12.7,0-23,12.12-23,27.09l4.82,39.1h0s4.43,35.09-9.27,42.43H163S152.69,268.33,154.6,240.23Z"/><path class="cls-9" d="M65.73,273.63H37.26a2.2,2.2,0,0,1-2.2-2.19h0a2.2,2.2,0,0,1,2.2-2.19H65.73a2.19,2.19,0,0,1,2.19,2.19h0A2.2,2.2,0,0,1,65.73,273.63Z"/><path class="cls-9" d="M81,283.2H52.47A2.2,2.2,0,0,1,50.28,281h0a2.2,2.2,0,0,1,2.19-2.19H81A2.19,2.19,0,0,1,83.14,281h0A2.2,2.2,0,0,1,81,283.2Z"/><path class="cls-9" d="M145.59,290.73H108.87a2.2,2.2,0,0,1-2.19-2.19h0a2.2,2.2,0,0,1,2.19-2.19h36.72a2.2,2.2,0,0,1,2.19,2.19h0A2.19,2.19,0,0,1,145.59,290.73Z"/><rect class="cls-9" x="175" y="265.75" width="30.12" height="4.02" rx="1.83"/><path class="cls-9" d="M184,283.65H168.63a2.38,2.38,0,0,1-2.37-2.37h0a2.38,2.38,0,0,1,2.37-2.38H184a2.38,2.38,0,0,1,2.37,2.38h0A2.38,2.38,0,0,1,184,283.65Z"/></g></g></g></svg>