<svg xmlns="http://www.w3.org/2000/svg" xmlns:xlink="http://www.w3.org/1999/xlink" viewBox="0 0 235.04 381.18"><defs><style>.cls-1{fill:none;}.cls-2{fill:#f4b155;}.cls-3{fill:#fff0cc;}.cls-4{fill:#231f20;}.cls-5{clip-path:url(#clip-path);}.cls-6{fill:#a7f1f9;}.cls-7{fill:#fff;}.cls-8{fill:#67d8db;}.cls-9{fill:#81efef;}.cls-10{fill:#79b27b;}.cls-11{fill:#8ecc95;}.cls-12{fill:#6d5954;}.cls-13{fill:#3a3134;}.cls-14{fill:#4c3d41;}.cls-15{fill:#ffd351;}.cls-16{fill:#f5b155;}.cls-17{fill:#ffd150;}.cls-18{fill:#30263a;}.cls-19{fill:#ee915b;}.cls-20{fill:#dd4f65;}.cls-21{fill:#489dc8;}.cls-22{fill:#4a8ec6;}.cls-23{fill:#ffc152;}.cls-24{fill:#414042;}.cls-25{fill:#47c1c8;}.cls-26{fill:#f4b055;}.cls-27{fill:#e6705f;}.cls-28{fill:#f1f2f2;}</style><clipPath id="clip-path"><rect class="cls-1" x="29.46" y="46.66" width="178.55" height="241.88" rx="24.79"/></clipPath></defs><g id="Layer_2" data-name="Layer 2"><g id="Layer_1-2" data-name="Layer 1"><path class="cls-2" d="M235,14.45V366.73c0,8-6.73,14.45-15,14.45H15c-8.26,0-15-6.48-15-14.45V14.45C0,6.48,6.73,0,15,0H220C228.31,0,235,6.48,235,14.45Zm-12.6,343.89V22.83A10.83,10.83,0,0,0,211.62,12H23.42A10.83,10.83,0,0,0,12.6,22.83V358.34a10.83,10.83,0,0,0,10.82,10.82h188.2A10.83,10.83,0,0,0,222.44,358.34Z"/><rect class="cls-3" x="12.6" y="12.02" width="209.84" height="357.15" rx="10.82"/><path class="cls-4" d="M56.07,335a.77.77,0,0,1-.17-.53V322.49a.79.79,0,0,1,.17-.55.74.74,0,0,1,.56-.17h1a.78.78,0,0,1,.57.17.74.74,0,0,1,.18.55v11.93a.77.77,0,0,1-.17.53.82.82,0,0,1-.58.17h-1A.78.78,0,0,1,56.07,335Zm7.91.13a.52.52,0,0,1-.22-.17L59,329.21a2.41,2.41,0,0,1-.25-.37,1,1,0,0,1-.08-.42.82.82,0,0,1,.07-.39,3.2,3.2,0,0,1,.26-.39L63.64,322a.5.5,0,0,1,.24-.19,1.1,1.1,0,0,1,.37,0h1.81a.25.25,0,0,1,.21.08.26.26,0,0,1,.08.19.38.38,0,0,1-.12.28l-5.08,6.1,5.2,6.15a.38.38,0,0,1,.12.28.26.26,0,0,1-.08.19.26.26,0,0,1-.22.08H64.31A1,1,0,0,1,64,335.08Z"/><path class="cls-4" d="M68.52,335a.77.77,0,0,1-.17-.53V322.49a.79.79,0,0,1,.17-.55.74.74,0,0,1,.56-.17h1a.78.78,0,0,1,.57.17.74.74,0,0,1,.18.55v11.93a.77.77,0,0,1-.17.53.8.8,0,0,1-.58.17h-1A.78.78,0,0,1,68.52,335Z"/><path class="cls-4" d="M73.35,335a.76.76,0,0,1-.16-.53V322.49a.79.79,0,0,1,.16-.55.77.77,0,0,1,.58-.17h.91a.89.89,0,0,1,.43.08.82.82,0,0,1,.31.31l6.48,9v-8.67a.79.79,0,0,1,.17-.55.74.74,0,0,1,.56-.17h1a.78.78,0,0,1,.57.17.74.74,0,0,1,.18.55v11.93a.77.77,0,0,1-.17.53.8.8,0,0,1-.58.17h-.92a.74.74,0,0,1-.73-.37l-6.48-9v8.65a.77.77,0,0,1-.17.53.8.8,0,0,1-.58.17h-1A.78.78,0,0,1,73.35,335Z"/><path class="cls-4" d="M88.33,333.61a8.17,8.17,0,0,1,0-10.32,7,7,0,0,1,5.16-1.82,10.38,10.38,0,0,1,2.49.28,5.84,5.84,0,0,1,1.92.78.33.33,0,0,1,.18.26A.53.53,0,0,1,98,323l-.57,1c-.08.11-.15.17-.23.17a.72.72,0,0,1-.26-.1,6.5,6.5,0,0,0-3.18-.74,4.82,4.82,0,0,0-3.52,1.26A5.22,5.22,0,0,0,89,328.44a5.3,5.3,0,0,0,1.23,3.85,4.56,4.56,0,0,0,3.4,1.26,8.65,8.65,0,0,0,1.54-.13,4.14,4.14,0,0,0,1.21-.36v-3.63H93.77a.74.74,0,0,1-.55-.17.79.79,0,0,1-.16-.54v-.51a.72.72,0,0,1,.16-.52.79.79,0,0,1,.55-.15h4.14a.79.79,0,0,1,.62.21.89.89,0,0,1,.19.64v5.18a1.22,1.22,0,0,1-.06.44.58.58,0,0,1-.25.27,9.17,9.17,0,0,1-4.91,1.14A7.06,7.06,0,0,1,88.33,333.61Z"/><path class="cls-4" d="M109.65,333.59a8.48,8.48,0,0,1,0-10.29,7.68,7.68,0,0,1,9.95,0,8.44,8.44,0,0,1,0,10.29,7.68,7.68,0,0,1-9.95,0Zm8.12-1.33a7.28,7.28,0,0,0,0-7.63,4.48,4.48,0,0,0-6.29,0,7.22,7.22,0,0,0,0,7.63,4.43,4.43,0,0,0,6.29,0Z"/><path class="cls-4" d="M123.44,335a.77.77,0,0,1-.17-.53V322.49a.79.79,0,0,1,.17-.55.74.74,0,0,1,.56-.17h8.17a.57.57,0,0,1,.69.68V323a.79.79,0,0,1-.15.54.67.67,0,0,1-.54.17h-6.38v3.79h4.63a.74.74,0,0,1,.55.16.7.7,0,0,1,.16.53v.53a.6.6,0,0,1-.71.71h-4.63v5a.77.77,0,0,1-.17.53.82.82,0,0,1-.58.17h-1A.78.78,0,0,1,123.44,335Z"/><path class="cls-4" d="M143.48,333.61a7,7,0,0,1,5.11-12.14,10.15,10.15,0,0,1,2.47.28,6.18,6.18,0,0,1,1.93.78.33.33,0,0,1,.18.26.56.56,0,0,1-.1.27l-.55.95c-.08.11-.15.17-.22.17a.69.69,0,0,1-.27-.1,6.15,6.15,0,0,0-3.17-.74,4.64,4.64,0,0,0-3.47,1.27,5.26,5.26,0,0,0-1.26,3.83,5.15,5.15,0,0,0,1.3,3.86,4.76,4.76,0,0,0,3.49,1.27,6.53,6.53,0,0,0,3.36-.77.86.86,0,0,1,.26-.09c.08,0,.15.06.23.17l.61,1a.49.49,0,0,1,.06.2c0,.08-.07.16-.22.26a8,8,0,0,1-4.57,1.06A7.06,7.06,0,0,1,143.48,333.61Z"/><path class="cls-4" d="M158.09,334.82a4.75,4.75,0,0,1-2.1-1.74,4.82,4.82,0,0,1-.74-2.67v-7.92a.79.79,0,0,1,.16-.55.74.74,0,0,1,.56-.17h1a.63.63,0,0,1,.75.72v8a2.92,2.92,0,0,0,.89,2.31,3.75,3.75,0,0,0,2.57.79,3.68,3.68,0,0,0,2.54-.79,2.89,2.89,0,0,0,.89-2.31v-8a.74.74,0,0,1,.18-.55.78.78,0,0,1,.57-.17h1c.51,0,.77.24.77.72v7.92a4.62,4.62,0,0,1-.76,2.66,4.92,4.92,0,0,1-2.11,1.74,7.59,7.59,0,0,1-3.1.61A7.7,7.7,0,0,1,158.09,334.82Z"/><path class="cls-4" d="M169.58,335a.72.72,0,0,1-.17-.53V322.49a.74.74,0,0,1,.17-.55.71.71,0,0,1,.55-.17h5a4.93,4.93,0,0,1,3.59,1.15,5.17,5.17,0,0,1,0,6.55,5,5,0,0,1-3.59,1.13h-3.24v3.82a.76.76,0,0,1-.16.53.84.84,0,0,1-.58.17h-1.05A.75.75,0,0,1,169.58,335Zm5.47-6.25a2.36,2.36,0,0,0,1.78-.62,2.59,2.59,0,0,0,.59-1.87,2.62,2.62,0,0,0-.59-1.9,2.36,2.36,0,0,0-1.78-.62h-3.13v5Z"/><g class="cls-5"><rect class="cls-6" x="18.87" y="2.38" width="206.83" height="294.1"/><path class="cls-7" d="M84.26,140.79H11.52a9.43,9.43,0,0,1-9.4-9.39h0a9.43,9.43,0,0,1,9.4-9.4H84.26a9.43,9.43,0,0,1,9.4,9.4h0A9.43,9.43,0,0,1,84.26,140.79Z"/><circle class="cls-7" cx="38.63" cy="117.45" r="23.35" transform="translate(-84.52 128.35) rotate(-76.85)"/><circle class="cls-7" cx="64.3" cy="124.16" r="16.64" transform="translate(-71.25 158.44) rotate(-76.81)"/><path class="cls-7" d="M158.26,143.6h58a7.51,7.51,0,0,0,7.49-7.5h0a7.51,7.51,0,0,0-7.49-7.49h-58a7.51,7.51,0,0,0-7.49,7.49h0A7.51,7.51,0,0,0,158.26,143.6Z"/><circle class="cls-7" cx="194.67" cy="124.97" r="18.63" transform="translate(-17.59 33) rotate(-9.27)"/><circle class="cls-7" cx="174.19" cy="130.33" r="13.27"/><path class="cls-7" d="M158.24,73.66h18.6a2.42,2.42,0,0,0,2.4-2.41h0a2.41,2.41,0,0,0-2.4-2.4h-18.6a2.41,2.41,0,0,0-2.4,2.4h0A2.42,2.42,0,0,0,158.24,73.66Z"/><circle class="cls-7" cx="169.91" cy="67.69" r="5.97"/><path class="cls-7" d="M159.09,69.4a4.26,4.26,0,1,0,4.25-4.25A4.25,4.25,0,0,0,159.09,69.4Z"/><path class="cls-7" d="M89.77,93.85H74.51a2,2,0,0,1-2-2h0a2,2,0,0,1,2-2H89.77a2,2,0,0,1,2,2h0A2,2,0,0,1,89.77,93.85Z"/><path class="cls-7" d="M85.1,89a4.9,4.9,0,1,1-4.9-4.9A4.91,4.91,0,0,1,85.1,89Z"/><circle class="cls-7" cx="85.58" cy="90.36" r="3.49"/><path class="cls-7" d="M55.5,68.56H44.87a1.38,1.38,0,0,1-1.37-1.38h0a1.38,1.38,0,0,1,1.37-1.37H55.5a1.38,1.38,0,0,1,1.37,1.37h0A1.38,1.38,0,0,1,55.5,68.56Z"/><path class="cls-7" d="M52.24,65.15a3.41,3.41,0,1,1-3.41-3.41A3.41,3.41,0,0,1,52.24,65.15Z"/><path class="cls-7" d="M55,66.13a2.43,2.43,0,1,1-2.43-2.43A2.43,2.43,0,0,1,55,66.13Z"/><rect class="cls-8" x="9.82" y="128.09" width="221.72" height="157.66"/><path class="cls-9" d="M173.66,136.32H162.24a.72.72,0,0,1-.72-.72h0a.72.72,0,0,1,.72-.72h11.42a.73.73,0,0,1,.73.72h0A.73.73,0,0,1,173.66,136.32Z"/><path class="cls-9" d="M95.67,144.55H84.26a.73.73,0,0,1-.73-.72h0a.73.73,0,0,1,.73-.73H95.67a.73.73,0,0,1,.73.73h0A.73.73,0,0,1,95.67,144.55Z"/><path class="cls-9" d="M84.36,139.88H72.94a.73.73,0,0,1-.72-.73h0a.72.72,0,0,1,.72-.72H84.36a.72.72,0,0,1,.72.72h0A.73.73,0,0,1,84.36,139.88Z"/><path class="cls-9" d="M94.74,134.73H83.32a.72.72,0,0,1-.72-.72h0a.72.72,0,0,1,.72-.72H94.74a.72.72,0,0,1,.72.72h0A.72.72,0,0,1,94.74,134.73Z"/><path class="cls-9" d="M167.07,132.4H153.78a.73.73,0,0,1-.72-.73h0a.72.72,0,0,1,.72-.72h13.29a.73.73,0,0,1,.73.72h0A.73.73,0,0,1,167.07,132.4Z"/><path class="cls-10" d="M15.61,104.09s43.6,16.4,92.18,65h33.77s36.44-56.28,71.82-56.28v75H10Z"/><rect class="cls-11" x="17.97" y="158.31" width="213.57" height="129.96"/><rect class="cls-1" x="32.17" y="3.51" width="177.01" height="294.1"/><rect class="cls-12" x="28" y="242.84" width="181.53" height="13.77"/><rect class="cls-8" x="23.9" y="254.35" width="195.77" height="35.6"/><rect class="cls-1" x="28" y="36.06" width="181.53" height="245.91" rx="24.79"/><path class="cls-9" d="M142,282.11H58.75a5,5,0,0,1-5-5h0a5,5,0,0,1,5-5H142a5,5,0,0,1,5,5h0A5,5,0,0,1,142,282.11Z"/><path class="cls-9" d="M69.4,265.72H40.7a3.23,3.23,0,0,1-3.22-3.22h0a3.23,3.23,0,0,1,3.22-3.23H69.4a3.23,3.23,0,0,1,3.23,3.23h0A3.23,3.23,0,0,1,69.4,265.72Z"/><rect class="cls-9" x="170.84" y="260.3" width="30.62" height="4.08" rx="1.83"/><rect class="cls-9" x="166.39" y="272.18" width="20.42" height="4.83" rx="2.37"/><rect class="cls-1" x="33.57" y="14.64" width="174.11" height="289.28"/><polygon class="cls-13" points="118.63 262.33 118.62 262.33 42.99 262.33 42.99 276.77 118.62 276.77 118.63 276.77 194.25 276.77 194.25 262.33 118.63 262.33"/><polygon class="cls-14" points="186.81 256.16 118.63 256.16 118.62 256.16 50.43 256.16 42.99 262.33 118.62 262.33 118.63 262.33 194.25 262.33 186.81 256.16"/><polygon class="cls-13" points="118.61 243.15 50.43 243.15 50.43 256.16 118.61 256.16 186.78 256.16 186.78 243.15 118.61 243.15"/><polygon class="cls-14" points="164.95 225.06 118.62 225.06 67.32 225.06 50.43 243.15 118.61 243.15 186.78 243.15 164.95 225.06"/><path class="cls-15" d="M70.56,78.08v6.5a6.29,6.29,0,0,0,6.28,6.28h0a6.3,6.3,0,0,0,6.28-6.28v-6.5Z"/><path class="cls-15" d="M86.28,78.08v6.5a6.3,6.3,0,0,0,6.28,6.28h0a6.3,6.3,0,0,0,6.29-6.28v-6.5Z"/><path class="cls-15" d="M152.32,78.08v6.5a6.29,6.29,0,0,0,6.28,6.28h0a6.3,6.3,0,0,0,6.28-6.28v-6.5Z"/><path class="cls-15" d="M136.49,78.08v6.5a6.29,6.29,0,0,0,6.28,6.28h0a6.3,6.3,0,0,0,6.28-6.28v-6.5Z"/><rect class="cls-16" x="60.92" y="181.45" width="14.07" height="57" transform="translate(135.91 419.9) rotate(180)"/><rect class="cls-15" x="64.76" y="175.72" width="14.07" height="62.73" transform="translate(143.58 414.17) rotate(180)"/><path class="cls-16" d="M48.21,155.34v15.14a14.68,14.68,0,0,0,14.63,14.64h0a14.69,14.69,0,0,0,14.64-14.64V155.34Z"/><path class="cls-15" d="M52.15,155.34v15.14a14.69,14.69,0,0,0,14.64,14.64h0a14.68,14.68,0,0,0,14.63-14.64V155.34Z"/><rect class="cls-16" x="159.46" y="180.53" width="14.07" height="56.66" transform="translate(332.98 417.73) rotate(180)"/><rect class="cls-15" x="155.27" y="180.53" width="14.07" height="56.66" transform="translate(324.61 417.73) rotate(180)"/><path class="cls-16" d="M185.46,155.34v15.14a14.68,14.68,0,0,1-14.63,14.64h0a14.69,14.69,0,0,1-14.64-14.64V155.34Z"/><path class="cls-15" d="M181.52,155.34v15.14a14.69,14.69,0,0,1-14.64,14.64h0a14.68,14.68,0,0,1-14.63-14.64V155.34Z"/><rect class="cls-17" x="72.63" y="88.52" width="89.77" height="84.24" transform="translate(235.04 261.28) rotate(180)"/><path class="cls-16" d="M178,168c-.16-.31-.39.22-.45.34-.24.52-.54,1.07-1.13,1.21a3.2,3.2,0,0,1-1.53-.13,2.28,2.28,0,0,0,0-.26,2.6,2.6,0,0,0-.11-.74,5.76,5.76,0,0,0,1.25-.09,1.82,1.82,0,0,0,1.43-1.49,1.42,1.42,0,0,0-.13-.84c-.18-.21-.26,0-.3.19a4,4,0,0,1-.17.59,1.46,1.46,0,0,1-1.1,1,8.42,8.42,0,0,1-1.23,0,3.44,3.44,0,0,0-.73-.85c.46-.39.77-.91.68-1.22a2.36,2.36,0,0,0,.55-2.32,1.5,1.5,0,0,0-.55-.87c.08-.61.08-2.29-2.31-3,0,0-1.07-.16-.64.22s1.41.57,1.13,1.05.23.22.31.76c0,.16,0,.27,0,.36-.35,0-.56.1-.66-.3s0-.57-.45-.7-.76-.15-.82-.5-.32-.77-.51-.32.1,3.21,1.87,3.56a4.32,4.32,0,0,0,.53.07,6.82,6.82,0,0,0,.54,1.67,2.57,2.57,0,0,0-.54.17,3.92,3.92,0,0,0-.75.45,9.39,9.39,0,0,0-2-.51v-.22a.92.92,0,1,0-.68,0v.13c-.45,0-.92-.06-1.39-.06s-.94,0-1.39.06v-.13a.93.93,0,0,0,.57-.85.92.92,0,1,0-1.83,0,.93.93,0,0,0,.57.85v.22a9.55,9.55,0,0,0-2,.51,3.64,3.64,0,0,0-.75-.45,2.25,2.25,0,0,0-.54-.17,6.42,6.42,0,0,0,.55-1.67,4.45,4.45,0,0,0,.52-.07c1.78-.35,2.06-3.12,1.88-3.56s-.45,0-.51.32-.39.38-.83.5-.32.2-.44.7-.32.3-.67.3c0-.09,0-.2,0-.36.08-.54.59-.29.31-.76s.7-.67,1.12-1.05-.64-.22-.64-.22c-2.39.69-2.39,2.37-2.3,3a1.5,1.5,0,0,0-.56.87,2.39,2.39,0,0,0,.55,2.32c-.08.31.23.83.69,1.22a3.24,3.24,0,0,0-.73.85,8.55,8.55,0,0,1-1.24,0c-.54,0-.91-.56-1.1-1a4,4,0,0,1-.17-.59c0-.16-.12-.4-.29-.19a1.42,1.42,0,0,0-.14.84,1.82,1.82,0,0,0,1.44,1.49,5.67,5.67,0,0,0,1.24.09,2.6,2.6,0,0,0-.11.74c0,.09,0,.17,0,.26a3.15,3.15,0,0,1-1.52.13,1.85,1.85,0,0,1-1.13-1.21c-.06-.12-.29-.65-.45-.34a1.55,1.55,0,0,0,0,.95,2.33,2.33,0,0,0,2.71,1.26l.47-.11a5.55,5.55,0,0,0,.24.64,2.44,2.44,0,0,0-1.61,1,3.6,3.6,0,0,0-.09,2.92c.13.24.36.11.37-.11,0-.5-.27-2.56.8-2.93.3-.1.59-.18.86-.25a7.18,7.18,0,0,0,.77,1,1.54,1.54,0,0,0-1.22,1.09,3,3,0,0,0,.65,2.66s.45.24.3-.24-.65-2.38,0-2.68a4.41,4.41,0,0,1,.83-.3,6.92,6.92,0,0,0,9.46,0,4.05,4.05,0,0,1,.82.3c.63.3.12,2.2,0,2.68s.3.24.3.24a3,3,0,0,0,.66-2.66,1.54,1.54,0,0,0-1.22-1.09,7.1,7.1,0,0,0,.76-1c.28.07.57.15.86.25,1.08.37.77,2.43.8,2.93,0,.22.25.35.37.11a3.56,3.56,0,0,0-.09-2.92,2.42,2.42,0,0,0-1.61-1,4.16,4.16,0,0,0,.24-.64l.47.11a2.34,2.34,0,0,0,2.72-1.26A1.55,1.55,0,0,0,178,168Z"/><path class="cls-16" d="M75.94,168c-.16-.31-.39.22-.45.34-.24.52-.54,1.07-1.13,1.21a3.2,3.2,0,0,1-1.53-.13,2.28,2.28,0,0,0,0-.26,2.6,2.6,0,0,0-.11-.74,5.76,5.76,0,0,0,1.25-.09,1.82,1.82,0,0,0,1.43-1.49,1.42,1.42,0,0,0-.13-.84c-.18-.21-.26,0-.3.19a4,4,0,0,1-.17.59,1.46,1.46,0,0,1-1.1,1,8.42,8.42,0,0,1-1.23,0,3.44,3.44,0,0,0-.73-.85c.46-.39.77-.91.68-1.22a2.36,2.36,0,0,0,.55-2.32,1.5,1.5,0,0,0-.55-.87c.08-.61.08-2.29-2.31-3,0,0-1.07-.16-.64.22s1.41.57,1.13,1.05.23.22.31.76c0,.16,0,.27,0,.36-.35,0-.56.1-.66-.3s0-.57-.45-.7-.76-.15-.82-.5-.32-.77-.51-.32.1,3.21,1.87,3.56a4.32,4.32,0,0,0,.53.07,6.82,6.82,0,0,0,.54,1.67,2.57,2.57,0,0,0-.54.17,3.92,3.92,0,0,0-.75.45,9.39,9.39,0,0,0-2-.51v-.22a.92.92,0,1,0-.68,0v.13c-.45,0-.92-.06-1.39-.06s-.94,0-1.39.06v-.13a.93.93,0,0,0,.57-.85.92.92,0,1,0-1.83,0,.93.93,0,0,0,.57.85v.22a9.55,9.55,0,0,0-2,.51,3.64,3.64,0,0,0-.75-.45,2.25,2.25,0,0,0-.54-.17,6.42,6.42,0,0,0,.55-1.67,4.45,4.45,0,0,0,.52-.07c1.78-.35,2.06-3.12,1.88-3.56s-.45,0-.51.32-.39.38-.83.5-.32.2-.44.7-.32.3-.67.3c0-.09,0-.2,0-.36.08-.54.59-.29.31-.76s.7-.67,1.12-1.05-.64-.22-.64-.22c-2.39.69-2.39,2.37-2.3,3a1.55,1.55,0,0,0-.56.87,2.39,2.39,0,0,0,.55,2.32c-.08.31.23.83.69,1.22a3.24,3.24,0,0,0-.73.85,8.55,8.55,0,0,1-1.24,0c-.54,0-.91-.56-1.1-1a4,4,0,0,1-.17-.59c0-.16-.12-.4-.29-.19a1.42,1.42,0,0,0-.14.84,1.82,1.82,0,0,0,1.44,1.49,5.67,5.67,0,0,0,1.24.09,2.6,2.6,0,0,0-.11.74c0,.09,0,.17,0,.26a3.15,3.15,0,0,1-1.52.13,1.85,1.85,0,0,1-1.13-1.21c-.06-.12-.29-.65-.45-.34a1.55,1.55,0,0,0,0,.95,2.33,2.33,0,0,0,2.71,1.26l.47-.11a5.55,5.55,0,0,0,.24.64,2.44,2.44,0,0,0-1.61,1,3.6,3.6,0,0,0-.09,2.92c.13.24.36.11.37-.11,0-.5-.27-2.56.8-2.93.3-.1.59-.18.86-.25a7.18,7.18,0,0,0,.77,1,1.54,1.54,0,0,0-1.22,1.09,3,3,0,0,0,.65,2.66s.45.24.3-.24-.65-2.38,0-2.68a4.41,4.41,0,0,1,.83-.3,7.13,7.13,0,0,0,4.73,1.87,7.22,7.22,0,0,0,4.73-1.87,4.05,4.05,0,0,1,.82.3c.63.3.12,2.2,0,2.68s.3.24.3.24a3,3,0,0,0,.66-2.66,1.54,1.54,0,0,0-1.22-1.09,7.1,7.1,0,0,0,.76-1c.28.07.57.15.86.25,1.08.37.77,2.43.8,2.93,0,.22.25.35.37.11a3.56,3.56,0,0,0-.09-2.92,2.42,2.42,0,0,0-1.61-1,4.16,4.16,0,0,0,.24-.64l.47.11a2.34,2.34,0,0,0,2.72-1.26A1.55,1.55,0,0,0,75.94,168Z"/><rect class="cls-18" x="75.83" y="220.95" width="83.63" height="15.97" transform="translate(235.29 457.86) rotate(180)"/><rect class="cls-19" x="79.38" y="95.22" width="75.59" height="89.38" transform="translate(234.34 279.82) rotate(180)"/><rect class="cls-17" x="81.45" y="97.67" width="71.45" height="84.48" transform="translate(234.34 279.82) rotate(180)"/><rect class="cls-17" x="79.66" y="202.5" width="75.61" height="15.11" transform="translate(234.94 420.11) rotate(180)"/><path class="cls-15" d="M71.67,156.2a20.54,20.54,0,0,1-4.43-.47c-9.67-2.08-16.93-10.75-21.58-25.79L58,126.13c2.17,7,6,15.69,11.94,17,6.49,1.42,14.88-6,17.31-8.74l9.65,8.55C95.58,144.41,84.74,156.2,71.67,156.2Z"/><rect class="cls-20" x="79.66" y="180.53" width="75.61" height="21.97" transform="translate(234.94 383.03) rotate(180)"/><path class="cls-21" d="M88.05,135.57a32.72,32.72,0,0,1,14-14.66c0,.14,0,.27,0,.41a15.66,15.66,0,0,0,31.31,0c0-.11,0-.22,0-.33a32.73,32.73,0,0,1,13.15,13.26,32.1,32.1,0,0,1,3.83,15.24v20.78H84.89V149.49A32.13,32.13,0,0,1,88.05,135.57Z"/><path class="cls-22" d="M75.83,245v-52.2a41.4,41.4,0,0,1,41.4-41.4h0a41.4,41.4,0,0,1,41.39,41.4v59.56l-31.09-9.71-22.12-9.19Z"/><path class="cls-23" d="M39.1,100.12,39,113A12.5,12.5,0,0,0,49.4,125.35v9.34l-5.22,3.61s1.35,1.06,7.27,1.06h0c5.92,0,7.33-1.07,7.33-1.07l-5.22-3.56v-9.39A12.5,12.5,0,0,0,63.9,113.16L64,100.28Z"/><rect class="cls-24" x="89.68" y="77.04" width="56.46" height="56.46"/><rect class="cls-17" x="111.45" y="104.48" width="10.69" height="22.45" rx="4.11" transform="translate(233.6 231.4) rotate(180)"/><path class="cls-25" d="M117.64,136.87A15.6,15.6,0,0,1,102,121.32c0-.14,0-.27,0-.41A32.76,32.76,0,0,1,117.57,117h0a32.72,32.72,0,0,1,15.71,4c0,.11,0,.22,0,.33A15.6,15.6,0,0,1,117.64,136.87Z"/><circle class="cls-25" cx="135.83" cy="130.27" r="12.61" transform="translate(-52.33 134.2) rotate(-45)"/><circle class="cls-25" cx="98.31" cy="129.73" r="13.15"/><path class="cls-17" d="M58.43,128.32h-4a2.6,2.6,0,0,1-2.59-2.6h0a2.6,2.6,0,0,1,2.59-2.59h4A2.6,2.6,0,0,1,61,125.72h0A2.61,2.61,0,0,1,58.43,128.32Z"/><path class="cls-17" d="M44.48,134.37h0A5.48,5.48,0,0,1,39,128.9V122a5.48,5.48,0,0,1,5.47-5.46h0A5.48,5.48,0,0,1,49.94,122v6.93A5.48,5.48,0,0,1,44.48,134.37Z"/><path class="cls-21" d="M144.14,148H94.07a19.55,19.55,0,0,1-19.55-19.55h0a12.21,12.21,0,0,1,12.21-12.21h57.41a12.25,12.25,0,0,1,12.21,12.21v7.34A12.25,12.25,0,0,1,144.14,148Z"/><path class="cls-17" d="M85.48,95.22a6.15,6.15,0,1,0,6.14-6.15A6.14,6.14,0,0,0,85.48,95.22Z"/><path class="cls-26" d="M87.87,95.22a3.76,3.76,0,1,0,3.75-3.75A3.75,3.75,0,0,0,87.87,95.22Z"/><path class="cls-17" d="M137.26,95.22a6.15,6.15,0,1,0,6.15-6.15A6.15,6.15,0,0,0,137.26,95.22Z"/><path class="cls-26" d="M139.66,95.22a3.75,3.75,0,1,0,3.75-3.75A3.75,3.75,0,0,0,139.66,95.22Z"/><rect class="cls-17" x="96.68" y="89.48" width="42.29" height="18.61" transform="translate(235.65 197.57) rotate(180)"/><path class="cls-17" d="M92.89,79.81V97.3a25,25,0,0,0,24.94,24.94h0A25,25,0,0,0,142.77,97.3V79.81Z"/><path class="cls-26" d="M117.83,93.45A3.53,3.53,0,0,0,114.29,97h7.08A3.54,3.54,0,0,0,117.83,93.45Z"/><rect class="cls-24" x="99.59" y="84.87" width="13.91" height="2.36" rx="0.91" transform="translate(-14.41 21.81) rotate(-10.95)"/><rect class="cls-24" x="121.27" y="84.87" width="13.91" height="2.36" rx="0.91" transform="translate(237.76 194.9) rotate(-169.05)"/><path class="cls-24" d="M117.83,138.5h0a25.26,25.26,0,0,1-25.27-25.26V99.66l50.16-.88.37,14.46A25.26,25.26,0,0,1,117.83,138.5Z"/><path class="cls-1" d="M155.72,125.24,175.1,83.82l-2.55-1.19-18.94,40.5C154,123.5,154.74,124.22,155.72,125.24Z"/><path class="cls-1" d="M161.56,132a58,58,0,0,1,9.07,16,24.38,24.38,0,0,0,6.16-8.15c1.84-3.93,3-8.55,2.27-12.9-.63-3.85-2.72-7.3-3.21-11.18a26.68,26.68,0,0,1,2.38-14.59A24.81,24.81,0,0,1,188.52,90.1l-6-2.82Z"/><path class="cls-1" d="M141,139.47l2.79-6-.13-.12a7.12,7.12,0,0,1,5.91-12.22l18.91-40.44-5.7-2.66a24.75,24.75,0,0,1-1.94,15c-2.82,6-8,11.65-14.5,13.71a22.67,22.67,0,0,0-14,12.33,24.47,24.47,0,0,0,.51,21.77,24,24,0,0,1,4.92-2.91Z"/><path class="cls-1" d="M158.39,128.16l20-42.79-2.55-1.19L156.35,125.9C157,126.56,157.66,127.32,158.39,128.16Z"/><path class="cls-1" d="M151.7,144.47l1.67.78q-.59-.9-1.2-1.8Z"/><path class="cls-1" d="M161,131.27l20.74-44.35-2.55-1.19L159,128.86C159.64,129.61,160.3,130.41,161,131.27Z"/><path class="cls-1" d="M149.7,140.11l-1.32,2.81,2.55,1.19.68-1.45C151,141.78,150.35,140.93,149.7,140.11Z"/><path class="cls-1" d="M149.12,139.37c-.68-.83-1.35-1.63-2-2.37l-2.05,4.37-.64-.3,3.43,1.61-.24-.12Z"/><path class="cls-1" d="M144.42,134.13l-2.66,5.69,2.55,1.2,2.2-4.7C145.78,135.51,145.08,134.78,144.42,134.13Z"/><path class="cls-1" d="M152.94,122.56l18.85-40.29-2.55-1.19-18.83,40.24A7.19,7.19,0,0,1,152.94,122.56Z"/><path class="cls-15" d="M129.21,178.38a7,7,0,0,1,0-2,24.53,24.53,0,0,1-3.87-6.07h-6.12a7.14,7.14,0,0,0,0,14.28h10.94a6.89,6.89,0,0,0,3-.7A7.12,7.12,0,0,1,129.21,178.38Z"/><path class="cls-21" d="M146.51,136.32l6.43-13.76a7.19,7.19,0,0,0-2.53-1.24l-6,12.81C145.08,134.78,145.78,135.51,146.51,136.32Z"/><path class="cls-21" d="M149.12,139.37l6.6-14.13c-1-1-1.72-1.74-2.11-2.11L147.12,137C147.77,137.74,148.44,138.54,149.12,139.37Z"/><path class="cls-21" d="M159,128.86l-6.83,14.59q.62.9,1.2,1.8l.88.41L161,131.27C160.3,130.41,159.64,129.61,159,128.86Z"/><path class="cls-21" d="M155,146l-.19-.09,4,1.88a25,25,0,0,1,.93,5.65A24.78,24.78,0,0,0,170.63,148a58,58,0,0,0-9.07-16Z"/><path class="cls-21" d="M143.38,123.31a7.12,7.12,0,0,0,.27,10.07l.13.12,5.78-12.34A7.18,7.18,0,0,0,143.38,123.31Z"/><path class="cls-21" d="M151.61,142.66l6.78-14.5c-.73-.84-1.42-1.6-2-2.26l-6.65,14.21C150.35,140.93,151,141.78,151.61,142.66Z"/><path class="cls-21" d="M137.16,179a24.48,24.48,0,0,1-5.6-.21,24.48,24.48,0,0,1-2.32-2.35,7,7,0,0,0,0,2,7.12,7.12,0,0,0,4,5.52A7.16,7.16,0,0,0,137.16,179Z"/><path class="cls-23" d="M162,74.88a25.51,25.51,0,0,1,.8,3.18l5.7,2.66h0l.77.36h0l2.55,1.19h0l.76.36h0l2.55,1.19h0l.76.36h0l2.55,1.19h0l.76.36h0l2.55,1.19h0l.77.36h0l6,2.82a25.94,25.94,0,0,1,3.37-1.58c0-.11.06-.22.11-.33a4.22,4.22,0,0,1,.89-1.22L162.68,72.85a3.79,3.79,0,0,1-.37,1.45A3.68,3.68,0,0,1,162,74.88Z"/><path class="cls-23" d="M151.7,144.47h0l-.77-.36h0l-2.55-1.19h0l-.52-.24-3.43-1.61-.12,0h0l-2.55-1.2h0l-.77-.35h0L137.81,138a24,24,0,0,0-4.92,2.91,24.46,24.46,0,0,0,24.59,13,34.24,34.24,0,0,0-4.11-8.59Z"/><path class="cls-23" d="M133.26,171a7.31,7.31,0,0,1,2.15-.62c12.75-1.62,20.67-5.21,22.29-10.13a8.4,8.4,0,0,0,.37-3.12,27.78,27.78,0,0,1-27.78-14,24.34,24.34,0,0,0-4.92,27.16h4.82A7,7,0,0,1,133.26,171Z"/><path class="cls-15" d="M133.26,171a7,7,0,0,0-3.07-.71h-4.82a24.53,24.53,0,0,0,3.87,6.07A7.15,7.15,0,0,1,133.26,171Z"/><path class="cls-23" d="M154.82,145.93l-.57-.27h0l-.88-.41a34.24,34.24,0,0,1,4.11,8.59c.77-.09,1.53-.22,2.29-.38a25,25,0,0,0-.93-5.65Z"/><path class="cls-21" d="M171.77,151.55a27.92,27.92,0,0,1-10.5,5v0c-.54.1-2.67.53-3.21.6a8.4,8.4,0,0,1-.37,3.12c-1.62,4.92-9.54,8.51-22.29,10.13a7.31,7.31,0,0,0-2.15.62,7.16,7.16,0,0,1,4.06,6.43,6.67,6.67,0,0,1-.16,1.49l.61,0-.48,0a7.16,7.16,0,0,1-3.93,5,7.08,7.08,0,0,0,4,.64c19.1-2.42,30.58-9.1,34.11-19.84A24.2,24.2,0,0,0,171.77,151.55Z"/><path class="cls-21" d="M133.26,171a7.15,7.15,0,0,0-4,5.36,24.48,24.48,0,0,0,2.32,2.35,24.48,24.48,0,0,0,5.6.21,6.67,6.67,0,0,0,.16-1.49A7.16,7.16,0,0,0,133.26,171Z"/><path class="cls-23" d="M191.59,91.54l-3.07-1.44a24.81,24.81,0,0,0-10.29,11.12,26.68,26.68,0,0,0-2.38,14.59c.49,3.88,2.58,7.33,3.21,11.18.71,4.35-.43,9-2.27,12.9a24.38,24.38,0,0,1-6.16,8.15,36.05,36.05,0,0,1,1,3.51,27.74,27.74,0,0,0,8.2-10.23c2.54-5.43,3.74-12.89,1.58-18.72-.14-.38-.29-.75-.46-1.12a22.34,22.34,0,0,1,.32-18.83,21.37,21.37,0,0,1,10.92-10.6c-.06-.11-.11-.24-.17-.35A2.69,2.69,0,0,1,191.59,91.54Z"/><path class="cls-23" d="M132.89,140.89a24.47,24.47,0,0,1-.51-21.77,22.67,22.67,0,0,1,14-12.33c6.48-2.06,11.68-7.67,14.5-13.71a24.75,24.75,0,0,0,1.94-15l-3.24-1.52a5.25,5.25,0,0,1-.55.09,21.42,21.42,0,0,1-1.2,15,24.41,24.41,0,0,1-6.36,8.34c-3.64,3.07-8.37,3.78-12.24,6.38a28.24,28.24,0,0,0-9.86,11.32,27.86,27.86,0,0,0,1,25.47A23.35,23.35,0,0,1,132.89,140.89Z"/><path class="cls-23" d="M159.77,153.46a26.58,26.58,0,0,1-.08,3.45,28.11,28.11,0,0,0,12-5.36,36.05,36.05,0,0,0-1-3.51A24.78,24.78,0,0,1,159.77,153.46Z"/><path class="cls-23" d="M159.53,76.54l3.24,1.52a25.51,25.51,0,0,0-.8-3.18A4.09,4.09,0,0,1,159.53,76.54Z"/><path class="cls-23" d="M191.89,88.52a25.94,25.94,0,0,0-3.37,1.58l3.07,1.44a2.69,2.69,0,0,0,.45.16A4.07,4.07,0,0,1,191.89,88.52Z"/><path class="cls-23" d="M142.77,154.77a27.63,27.63,0,0,0,15.3,2.39,14.62,14.62,0,0,0-.59-3.32,24.46,24.46,0,0,1-24.59-13,23.35,23.35,0,0,0-2.6,2.27A27.66,27.66,0,0,0,142.77,154.77Z"/><path class="cls-23" d="M158.07,157.16c.54-.07,1.08-.15,1.62-.25a26.58,26.58,0,0,0,.08-3.45c-.76.16-1.52.29-2.29.38A14.62,14.62,0,0,1,158.07,157.16Z"/><path class="cls-23" d="M158.24,73.35a2.34,2.34,0,0,1,3.11-1.13l1.33.63a4.12,4.12,0,1,0-3.7,3.78c0-.18-.11-.36-.17-.55A2.33,2.33,0,0,1,158.24,73.35Z"/><path class="cls-23" d="M158.24,73.35a2.33,2.33,0,0,0,.57,2.73c-.05-.17-.1-.34-.16-.51l3.19-1.09c0,.14.08.27.13.4a3.68,3.68,0,0,0,.34-.58,3.79,3.79,0,0,0,.37-1.45l-1.33-.63A2.34,2.34,0,0,0,158.24,73.35Z"/><path class="cls-23" d="M159.37,76.46a2,2,0,0,1-.56-.38c.06.19.12.37.17.55a5.25,5.25,0,0,0,.55-.09Z"/><path class="cls-23" d="M162,74.88c-.05-.13-.08-.26-.13-.4l-3.19,1.09c.06.17.11.34.16.51a2,2,0,0,0,.56.38l.16.08A4.09,4.09,0,0,0,162,74.88Z"/><path class="cls-23" d="M198,86.55a4.09,4.09,0,0,0-5.15.42l.59.28a2.43,2.43,0,0,1,1.4,2.64A2.33,2.33,0,0,1,193,91.72l-.76.33a4.1,4.1,0,0,0,7.51-1.23A4.09,4.09,0,0,0,198,86.55Z"/><path class="cls-23" d="M191.89,88.52l.2-.08,1.18,3.16c-.1,0-.19.08-.3.12a2.33,2.33,0,0,0,1.91-1.83,2.43,2.43,0,0,0-1.4-2.64l-.59-.28a4.22,4.22,0,0,0-.89,1.22C192,88.3,191.93,88.41,191.89,88.52Z"/><path class="cls-23" d="M192,91.7c.06.11.11.24.17.35l.76-.33A2.25,2.25,0,0,1,192,91.7Z"/><path class="cls-23" d="M192.09,88.44l-.2.08A4.07,4.07,0,0,0,192,91.7a2.25,2.25,0,0,0,.93,0c.11,0,.2-.09.3-.12Z"/><path class="cls-7" d="M150.41,121.32l18.83-40.24-.77-.36-18.91,40.44A8,8,0,0,1,150.41,121.32Z"/><path class="cls-7" d="M143.78,133.5l-2.79,6,.77.35,2.66-5.69Z"/><path class="cls-7" d="M150.41,121.32a8,8,0,0,0-.85-.16l-5.78,12.34.64.63Z"/><rect class="cls-20" x="168.85" y="80.48" height="0.84" transform="translate(24.01 199.55) rotate(-64.92)"/><path class="cls-7" d="M153.52,123l.09.09,18.94-40.5-.76-.36-18.85,40.29C153.14,122.71,153.33,122.87,153.52,123Z"/><path class="cls-7" d="M147.12,137l-.61-.68-2.2,4.7.12,0,.64.3Z"/><path class="cls-7" d="M147.12,137l6.49-13.87-.09-.09c-.19-.17-.38-.33-.58-.48l-6.43,13.76Z"/><rect class="cls-20" x="172.17" y="82.03" height="0.84" transform="translate(24.55 203.49) rotate(-64.94)"/><path class="cls-7" d="M156.35,125.9l19.51-41.72-.76-.36-19.38,41.42Z"/><path class="cls-7" d="M149.12,139.37l-1.5,3.19.24.12.52.24,1.32-2.81Z"/><path class="cls-7" d="M149.7,140.11l6.65-14.21-.63-.66-6.6,14.13Z"/><rect class="cls-20" x="175.48" y="83.58" height="0.84" transform="translate(25.01 207.33) rotate(-64.92)"/><path class="cls-7" d="M159,128.86l20.17-43.13-.76-.36-20,42.79Z"/><path class="cls-7" d="M151.61,142.66l-.68,1.45.77.36.47-1Z"/><path class="cls-7" d="M152.17,143.45,159,128.86l-.61-.7-6.78,14.5Z"/><rect class="cls-24" x="92.56" y="79.81" width="5.55" height="23.58"/><rect class="cls-24" x="137.26" y="79.81" width="6.15" height="23.58"/><rect class="cls-20" x="178.79" y="85.13" height="0.84" transform="translate(25.53 211.24) rotate(-64.93)"/><path class="cls-7" d="M161.56,132l20.93-44.74-.77-.36L161,131.27C161.17,131.51,161.37,131.76,161.56,132Z"/><rect class="cls-24" x="93.86" y="78.06" width="47.14" height="5.09" rx="0.25"/><path class="cls-7" d="M154.25,145.66l.57.27.19.09,6.55-14c-.19-.26-.39-.51-.58-.75Z"/><rect class="cls-20" x="182.11" y="86.68" height="0.84" transform="translate(26.03 215.13) rotate(-64.92)"/><path class="cls-17" d="M118.42,107.86a6.76,6.76,0,0,0,6.24-4.14,1.9,1.9,0,0,0-1.75-2.63h-9a1.9,1.9,0,0,0-1.75,2.63A6.77,6.77,0,0,0,118.42,107.86Z"/><path class="cls-17" d="M135.52,61.58c-6.23,0-11.69-4.3-14.71-10.73a2.68,2.68,0,0,0-4.86,0c-3,6.43-8.48,10.73-14.71,10.73a14.65,14.65,0,0,1-9.88-4,1.29,1.29,0,0,0-2.14,1v8.72c0,4.7,3,8.54,6.58,8.54h45.74c3.62,0,6.58-3.84,6.58-8.54v-9.3a1.28,1.28,0,0,0-2.18-.92A14.78,14.78,0,0,1,135.52,61.58Z"/><rect class="cls-26" x="89.68" y="73.87" width="57.48" height="6.62" rx="2.54"/><path class="cls-26" d="M122.49,104.2h-8.2a.81.81,0,0,1,0-1.62h8.2a.81.81,0,0,1,0,1.62Z"/><path class="cls-26" d="M118.67,105.14a.94.94,0,0,0-.94.93h1.88A.94.94,0,0,0,118.67,105.14Z"/><rect class="cls-24" x="105.31" y="87.81" width="4.27" height="8.54" rx="1.71"/><rect class="cls-24" x="124.56" y="87.81" width="4.27" height="8.54" rx="1.71"/><path class="cls-22" d="M158.62,252.45C135.93,263,123,248.22,123,248.22c-11-11.06-25.31-5.78-25.31-5.78-11.8,8.65-21.83,2.66-21.83,2.66V231.53h83Z"/><path class="cls-27" d="M184.34,261.5c-.29-.11-.36-.11-.19,0l.09,0h.2a5.27,5.27,0,0,1,.57.14,8.73,8.73,0,0,1,1,.3,9.32,9.32,0,0,1,1,.43c.21.12.43.28.43.54a.62.62,0,0,1-.06.3c0,.07-.07.14-.08.2a.22.22,0,0,1-.05.08l.15-.05-.39-.2-.48-.31c-.3-.21-.59-.44-.88-.66l-.4-.32c-.06-.06-.19-.16-.21-.25l-.44.56a2.8,2.8,0,0,1,2.34,1.08l.48-.81a2.32,2.32,0,0,1-1.19-.57,1.58,1.58,0,0,0-1.26-.54c-.46.08-.64.8-.14,1a2.13,2.13,0,0,0,1.24.16.32.32,0,0,0,.14-.49,2,2,0,0,0-1-.6c0,.32-.09.65-.14,1,.14,0,.25.11.36.2s.31.27.49.39a3.38,3.38,0,0,0,1.34.52.51.51,0,0,0,.48-.8,3.85,3.85,0,0,0-3.29-1.48.5.5,0,0,0-.44.56c.17.75.92,1.2,1.5,1.63.33.24.67.47,1,.68a1.29,1.29,0,0,0,1.11.27c.66-.25.88-1.29.71-1.91s-1-1.07-1.71-1.32a8.43,8.43,0,0,0-1.31-.35,2.05,2.05,0,0,0-1.25,0,.36.36,0,0,0-.21.42.34.34,0,0,0,.39.27Z"/><path class="cls-27" d="M165.39,262.41a3.84,3.84,0,0,0-1.14.83,7.12,7.12,0,0,0-1,1.08,1.43,1.43,0,0,0-.32,1.25,1.19,1.19,0,0,0,.89.84c1,.23,1.62-.84,2-1.55a3.51,3.51,0,0,0,.53-1.4c0-.5-.27-1.08-.85-1-.29,0-.51.39-.68.6s-.33.45-.49.68c-.34.48-.64,1-1,1.49a.51.51,0,0,0,0,.64.49.49,0,0,0,.64.06,7.6,7.6,0,0,0,1.71-2.12c.27-.47-.53-1-.82-.49L164,265c-.17.27-.38.62-.1.9a.48.48,0,0,0,.79-.14.43.43,0,0,0-.64-.51h0l.43,0h0l.24.25v0c0,.12,0,.24,0,.35s.07-.11.08-.13l.15-.24c.1-.16.2-.32.31-.48l.6-1-.83-.49a6.45,6.45,0,0,1-1.4,1.72l.67.69a18.53,18.53,0,0,1,1.8-2.6l-.45.18c-.08,0-.07-.11-.1-.07a.58.58,0,0,0,0,.14,2.23,2.23,0,0,1-.13.44,5.26,5.26,0,0,1-.46.84c-.18.27-.57,1.14-1,.75s.29-1.07.52-1.35.4-.46.61-.68a9.35,9.35,0,0,0,.69-.72.23.23,0,0,0-.26-.35Z"/><path class="cls-27" d="M163.63,260.09c-1.2.31-2.88.54-3.45,1.83a1.24,1.24,0,0,0,.53,1.65,1.75,1.75,0,0,0,1.79-.17,10.61,10.61,0,0,0,1.6-1.47,1.63,1.63,0,0,0,.48-.65.71.71,0,0,0-.43-.92,1.6,1.6,0,0,0-1,.13,4.94,4.94,0,0,0-1,.52c-.3.19-.58.4-.86.61a3,3,0,0,0-.9.8.69.69,0,0,0,.48,1,1.48,1.48,0,0,0,1.1-.4,10.16,10.16,0,0,0,1-.75c.16-.13.31-.27.46-.41a1.57,1.57,0,0,0,.44-.52l-.35.26h.08a.39.39,0,0,0,.27-.62l-.05-.08a.45.45,0,0,0-.52-.15,2.61,2.61,0,0,0-.63.52c-.2.17-.4.35-.61.51l-.57.42-.33.22-.1.05s0,0,0,0c0,.37.08.49.2.37a4.51,4.51,0,0,0,.59-.47c.22-.16.43-.32.65-.46a3.5,3.5,0,0,1,1.21-.63l.16,0s-.31-.28-.19-.31-.07.12-.09.14c-.18.2-.38.38-.57.57a7.7,7.7,0,0,1-1.06,1,.84.84,0,0,1-.93.1c-.28-.2-.1-.57.07-.79a2.77,2.77,0,0,1,1.25-.75c.25-.09.51-.16.76-.24a3.45,3.45,0,0,0,.79-.4c.3-.19,0-.57-.28-.5Z"/><path class="cls-27" d="M181.08,265.75a3.69,3.69,0,0,0,.27,1c.1.3.19.6.26.9.11.46.3,1.17-.08,1.52a.36.36,0,0,1-.22.11h0c.06,0,0,.12,0,0,0-.34-.08-.7-.1-1a13.35,13.35,0,0,1,0-2.19l-.72.41c.29.11.32.83.37,1.12s.11.57.16.85.06.28.08.42v.1c0,.09,0,.1,0,0h.63c-.06-.05,0-.06-.06-.14a.8.8,0,0,0-.24-.39.39.39,0,0,0-.4-.06c-.62.3-.37,1.05.06,1.4a.51.51,0,0,0,.72-.08,1.22,1.22,0,0,0,.28-1.07c0-.42-.15-.83-.23-1.25-.14-.7-.22-1.58-1-1.89a.52.52,0,0,0-.72.4,15.61,15.61,0,0,0,0,2.9c.05.45.05,1,.44,1.31a1.16,1.16,0,0,0,1.33,0,2,2,0,0,0,.68-2.29,7.14,7.14,0,0,0-.4-1.29,1.92,1.92,0,0,0-.8-1,.27.27,0,0,0-.37.27Z"/><path class="cls-27" d="M182.8,264.58a4.48,4.48,0,0,0,.61,1.31,8.32,8.32,0,0,0,.91,1.21.94.94,0,0,0,1.28.16,1.3,1.3,0,0,0,.43-1.16,3.14,3.14,0,0,0-.46-1.19l-.75-1.26a1.14,1.14,0,0,0-1.14-.67,1,1,0,0,0-.77,1,2.4,2.4,0,0,0,.71,1.38l1.09,1.43c.29.38,1,.16.92-.36a6.53,6.53,0,0,0-1.59-3,.51.51,0,0,0-.82.61,1,1,0,0,0,.59.41.32.32,0,0,0,.32-.18.9.9,0,0,0,0-.72l-.88.49a5.45,5.45,0,0,1,1.4,2.54l.91-.36-.88-1.16a5.49,5.49,0,0,1-.7-1c0-.1,0-.05,0-.13a0,0,0,0,1,0,0l0,0-.13,0s.13.17.15.2c.25.38.47.77.7,1.16a2.17,2.17,0,0,1,.38.88.67.67,0,0,1,0,.2c0-.05,0,.08,0,0s0,.06,0,0h0c.05,0,.05,0,0,0l-.07-.06a24.11,24.11,0,0,0-1.71-2.05c-.17-.15-.52,0-.46.25Z"/><path class="cls-27" d="M163.58,257.5c-.37-.38-1.1-.21-1.57-.12a8.26,8.26,0,0,0-1.55.42,2.77,2.77,0,0,0-1.35.77.93.93,0,0,0,.23,1.4c.5.28,1.13,0,1.64-.1s1.1-.28,1.65-.43,1.09-.3,1.32-.77a.69.69,0,0,0-.17-.81,1,1,0,0,0-.85-.18,11.08,11.08,0,0,0-3.36,1.07.5.5,0,0,0-.29.59.49.49,0,0,0,.54.37,3.48,3.48,0,0,0,.56-.12.93.93,0,0,0,.42-.31.28.28,0,0,0-.05-.4.92.92,0,0,0-.48-.19,3.82,3.82,0,0,0-.58,0c.09.32.17.64.25,1a12.84,12.84,0,0,1,1.68-.68,8.12,8.12,0,0,1,.81-.22l.42-.08.24-.05h.09c.09,0,0,0-.11-.1l0-.25c.1-.13.11-.15,0-.07l-.06,0-.18.08a3.53,3.53,0,0,1-.46.15c-.35.11-.71.2-1.07.3l-1,.25-.47.07s0,.06.06.06.06-.07.08-.08a.62.62,0,0,1,.17-.11l.46-.2a7.76,7.76,0,0,1,1-.33c.32-.08.64-.14,1-.19a4.64,4.64,0,0,0,1-.15.36.36,0,0,0,.09-.62Z"/><path class="cls-19" d="M177,253.65a9,9,0,0,1,3.9,1.8,11.63,11.63,0,0,1,2.67,3.84,9.32,9.32,0,0,1,.94,2.48,3.51,3.51,0,0,1-.42,2.56,4.52,4.52,0,0,1-1.31,1.19,16.29,16.29,0,0,1-10.62,2.63,9.26,9.26,0,0,1-3.66-1,10.27,10.27,0,0,1-3.27-3.35,12.28,12.28,0,0,1-1.86-4c-.22-1-.68-3-.35-4,.41-1.2,2.6-1.35,3.66-1.61a31.3,31.3,0,0,1,4.82-.81A18.46,18.46,0,0,1,177,253.65Z"/><path class="cls-20" d="M184.21,255.89a1.12,1.12,0,0,1,.24-.32.78.78,0,0,1,.83-.08,2.39,2.39,0,0,1,.69.54,3.76,3.76,0,0,1,.72.92,1.2,1.2,0,0,1,0,1.12,1.38,1.38,0,0,1-.38.42,6.24,6.24,0,0,1-1.32.83c-.7.33-2.08.5-2.33-.49S183.8,256.63,184.21,255.89Z"/><path class="cls-16" d="M181.53,260.4a1.73,1.73,0,0,0,.26,1.11c.2.33.59.73,1,.41a1,1,0,0,0,.19-1.11,1.31,1.31,0,0,0-.82-.77.43.43,0,0,0-.59.44.55.55,0,0,0,.12.28.41.41,0,0,0,.7-.39v-.05l0,.21v0l-.48.35a.49.49,0,0,1,.25.22.5.5,0,0,1,.08.2s0,.06,0,.09,0,.09.07,0l.19,0s-.09-.12-.11-.15a1.51,1.51,0,0,1-.18-.26,5.15,5.15,0,0,1-.23-.54.24.24,0,0,0-.46,0Z"/><path class="cls-16" d="M180.71,260.27h0a.21.21,0,0,0-.23-.19.42.42,0,0,0,0,.82.5.5,0,0,0,.43-.31.53.53,0,0,0,0-.49.27.27,0,0,0-.38-.13.27.27,0,0,0-.09.39s0,0,0,0,0,0,0,0v0s0,0,0,0,0,0,0,0h0l0,0h.17c-.08,0,0,0,0,0s0,0,0,0,0,0,0,0a.21.21,0,0,0,.18-.18v0Z"/><path class="cls-16" d="M180.92,261.58a.29.29,0,0,0-.32.44.34.34,0,0,0,.39.08.44.44,0,0,0,.27-.31.24.24,0,0,0-.2-.27c-.12,0-.26-.07-.37,0a.23.23,0,0,0-.06.38.72.72,0,0,0,.36.1l-.2-.27s0-.05,0,0,0,0,0,0l0,0s0,0,0,0h0s0,0,0,0a.2.2,0,0,1,.12.09.14.14,0,0,1,0,.09s0,0,0,0-.12,0-.09,0a.2.2,0,0,0,.21-.14.2.2,0,0,0-.11-.23Z"/><path class="cls-16" d="M166.85,255.4a1.17,1.17,0,0,0-1.45.18.28.28,0,0,0-.06.38,1.33,1.33,0,0,0,2-.1.31.31,0,0,0-.12-.48c-.32-.17-1-.29-1.14.13a.27.27,0,0,0,.14.35.65.65,0,0,0,.39,0,.57.57,0,0,1,.36.07l-.12-.49a.71.71,0,0,1-1.11.12c0,.12,0,.25,0,.37a1.6,1.6,0,0,1,1-.33.13.13,0,0,0,.06-.23Z"/><path class="cls-16" d="M165.8,255.62a.29.29,0,0,0-.07.2.24.24,0,0,0,.16.21.22.22,0,0,0,.3-.1.25.25,0,0,0,0-.17.2.2,0,0,0-.07-.09h0l0,0h0l0,.05v0l0,.06v0h0l0,.06v0l0,.05h0a.18.18,0,0,0,.05-.16.28.28,0,0,0-.08-.15.25.25,0,0,0-.17,0,.23.23,0,0,0-.14.08Z"/><path class="cls-16" d="M165.66,256.87s0,0-.06.07l.08-.06a.21.21,0,0,0-.13.23.24.24,0,0,0,0,.14.26.26,0,0,0,.32.09.31.31,0,0,0,.19-.18.28.28,0,0,0-.08-.34.25.25,0,0,0-.25,0,.22.22,0,0,0-.11.22v0l0-.06,0,0,0,0h0l0,0h0l.06,0h0l.06,0h0l0,0h0l0,0s0,0,0,0,0,.06,0,0a.25.25,0,0,0-.13-.17l.11.11c0,.06,0,0,0,0v0a.18.18,0,0,0-.08-.18.2.2,0,0,0-.2,0Z"/><path class="cls-27" d="M184.85,254.29a4.7,4.7,0,0,1,1-2.55,3.63,3.63,0,0,1,1.51-1.24,2.17,2.17,0,0,1,1.91.09,14.39,14.39,0,0,1-.86,2.8,3.84,3.84,0,0,0,2-1.86,2.37,2.37,0,0,1,1.33,2.48,3.48,3.48,0,0,1-1.68,2.41C187.91,257.73,184.72,257.26,184.85,254.29Z"/><path class="cls-20" d="M163.65,252.7a1.42,1.42,0,0,1-.29-.26.8.8,0,0,1,0-.84A2.25,2.25,0,0,1,164,251a3.43,3.43,0,0,1,1-.62,1.23,1.23,0,0,1,1.12.1,1.53,1.53,0,0,1,.37.43,6.59,6.59,0,0,1,.69,1.41c.24.72.26,2.12-.75,2.26S164.35,253.2,163.65,252.7Z"/><path class="cls-27" d="M162.14,251.89a4.63,4.63,0,0,1-2.43-1.25,3.75,3.75,0,0,1-1.07-1.65,2.16,2.16,0,0,1,.31-1.88,13.28,13.28,0,0,1,2.68,1.17,3.85,3.85,0,0,0-1.62-2.19,2.37,2.37,0,0,1,2.61-1.05,3.45,3.45,0,0,1,2.2,1.94C165.9,249.24,165.07,252.35,162.14,251.89Z"/><path class="cls-1" d="M186,258.85l0-.06Z"/><path class="cls-24" d="M173.58,253.77a2.52,2.52,0,1,1-1.31-3.31A2.52,2.52,0,0,1,173.58,253.77Z"/><path class="cls-24" d="M181.72,255.48a2.52,2.52,0,1,1-1.32-3.31A2.52,2.52,0,0,1,181.72,255.48Z"/><path class="cls-28" d="M171.05,251.88a.63.63,0,1,1-.33-.82A.63.63,0,0,1,171.05,251.88Z"/><path class="cls-28" d="M179.14,253.76a.63.63,0,0,1-1.16-.5.63.63,0,1,1,1.16.5Z"/></g></g></g></svg>