<svg xmlns="http://www.w3.org/2000/svg" xmlns:xlink="http://www.w3.org/1999/xlink" viewBox="0 0 234.27 379.95"><defs><style>.cls-1{fill:none;}.cls-2{fill:#f4b155;}.cls-3{fill:#fff0cc;}.cls-4{fill:#231f20;}.cls-5{clip-path:url(#clip-path);}.cls-6{fill:#a4f6ff;}.cls-7{fill:#3f272d;}.cls-8{fill:#54323a;}.cls-9{fill:#e6e7e8;}.cls-10{fill:#6d4650;}.cls-11{fill:#ffd150;}.cls-12{fill:#e4705e;}.cls-13{fill:#e6705f;}.cls-14{fill:#f4b055;}.cls-15{fill:#ffd351;}.cls-16{fill:#4a355b;}.cls-17{fill:#fff;}.cls-18{fill:#bcbec0;}.cls-19{fill:#f9fafb;}.cls-20{fill:#f1f2f2;}.cls-21{fill:#f5b155;}.cls-22{fill:#5bc4b8;}</style><clipPath id="clip-path"><rect class="cls-1" x="29.46" y="43.89" width="177.97" height="241.09" rx="24.71"/></clipPath></defs><g id="Layer_2" data-name="Layer 2"><g id="Layer_1-2" data-name="Layer 1"><path class="cls-2" d="M234.27,14.4V365.54A14.7,14.7,0,0,1,219.33,380H14.94A14.7,14.7,0,0,1,0,365.54V14.4C0,6.46,6.7,0,14.94,0H219.33C227.57,0,234.27,6.46,234.27,14.4ZM221.71,357.18V22.76A10.78,10.78,0,0,0,210.93,12H23.34A10.78,10.78,0,0,0,12.56,22.76V357.18A10.79,10.79,0,0,0,23.34,368H210.93A10.79,10.79,0,0,0,221.71,357.18Z"/><rect class="cls-3" x="12.56" y="11.98" width="209.16" height="355.99" rx="10.78"/><path class="cls-4" d="M38.94,330.38a.61.61,0,0,1,.06-.25l5.17-12.26a1,1,0,0,1,.25-.4.68.68,0,0,1,.4-.11h1.07a.62.62,0,0,1,.4.11,1,1,0,0,1,.25.4l5.17,12.26a.61.61,0,0,1,.06.25c0,.2-.12.3-.34.3h-1.7a.75.75,0,0,1-.36-.07.72.72,0,0,1-.21-.29l-1.11-2.74H42.64l-1.09,2.74a.72.72,0,0,1-.21.29.75.75,0,0,1-.36.07H39.27Q38.94,330.68,38.94,330.38Zm8.48-4.62-2.08-5.13-2.07,5.13Z"/><path class="cls-4" d="M54,329.17a7,7,0,0,1,5.09-12.1,10.6,10.6,0,0,1,2.46.27,6.27,6.27,0,0,1,1.92.79.31.31,0,0,1,.18.25.48.48,0,0,1-.1.27l-.55.94q-.12.18-.21.18a.67.67,0,0,1-.28-.1,6.07,6.07,0,0,0-3.15-.74,4.62,4.62,0,0,0-3.46,1.27,6.41,6.41,0,0,0,0,7.67,4.81,4.81,0,0,0,3.49,1.26,6.7,6.7,0,0,0,3.35-.76.7.7,0,0,1,.25-.1c.08,0,.16.06.24.17l.6,1a.49.49,0,0,1,.06.2c0,.08-.07.16-.21.25A8,8,0,0,1,59.19,331,7,7,0,0,1,54,329.17Z"/><path class="cls-4" d="M66,330.5a.75.75,0,0,1-.17-.53V318.09a.79.79,0,0,1,.17-.55.72.72,0,0,1,.56-.18h8.14a.57.57,0,0,1,.68.69v.53a.83.83,0,0,1-.14.54.71.71,0,0,1-.54.16H68.37v3.8H73a.75.75,0,0,1,.55.16.73.73,0,0,1,.15.52v.49a.79.79,0,0,1-.15.54A.75.75,0,0,1,73,325H68.37v3.82h6.34a.75.75,0,0,1,.55.16.79.79,0,0,1,.15.54V330a.72.72,0,0,1-.15.51.8.8,0,0,1-.55.16H66.59A.72.72,0,0,1,66,330.5Z"/><path class="cls-4" d="M86.11,329.15a8.47,8.47,0,0,1,0-10.26,7.67,7.67,0,0,1,9.92,0,8.43,8.43,0,0,1,0,10.26,7.67,7.67,0,0,1-9.92,0Zm8.1-1.32a7.24,7.24,0,0,0,0-7.61,3.85,3.85,0,0,0-3.13-1.29,3.9,3.9,0,0,0-3.15,1.29,7.24,7.24,0,0,0,0,7.61,3.88,3.88,0,0,0,3.15,1.3A3.82,3.82,0,0,0,94.21,327.83Z"/><path class="cls-4" d="M99.86,330.5a.75.75,0,0,1-.17-.53V318.09a.79.79,0,0,1,.17-.55.72.72,0,0,1,.56-.18h8.14a.57.57,0,0,1,.68.69v.53a.83.83,0,0,1-.14.54.71.71,0,0,1-.54.16H102.2v3.78h4.62a.75.75,0,0,1,.55.16.75.75,0,0,1,.15.53v.52a.79.79,0,0,1-.15.54.75.75,0,0,1-.55.17H102.2v5a.75.75,0,0,1-.17.53.76.76,0,0,1-.58.18h-1A.72.72,0,0,1,99.86,330.5Z"/><path class="cls-4" d="M120.43,330.67a6.28,6.28,0,0,1-2.14-.86c-.17-.11-.25-.22-.25-.31a.35.35,0,0,1,.07-.23l.65-1q.12-.18.21-.18a.5.5,0,0,1,.26.1,6.42,6.42,0,0,0,1.68.69,7.15,7.15,0,0,0,1.94.27,3.75,3.75,0,0,0,2-.44,1.86,1.86,0,0,0,.42-2.36,2,2,0,0,0-.75-.61A15.63,15.63,0,0,0,123,325l-.45-.18a17.23,17.23,0,0,1-2.11-1,4.28,4.28,0,0,1-1.38-1.23,3.47,3.47,0,0,1,.82-4.61,6,6,0,0,1,3.57-1,9.48,9.48,0,0,1,2.34.25,4.81,4.81,0,0,1,1.71.79.46.46,0,0,1,.24.33.32.32,0,0,1-.08.21l-.63,1c-.08.12-.14.18-.19.18a.55.55,0,0,1-.26-.12,5.68,5.68,0,0,0-3.11-.8,3.19,3.19,0,0,0-1.86.45,1.64,1.64,0,0,0-.63,1.43,1.59,1.59,0,0,0,.27,1,2,2,0,0,0,.77.61c.34.17.89.4,1.64.69l.49.2a15.25,15.25,0,0,1,2.24,1,3.57,3.57,0,0,1,1.24,1.2,3.44,3.44,0,0,1,.44,1.83,3.17,3.17,0,0,1-1.26,2.65,5.78,5.78,0,0,1-3.6,1A12.55,12.55,0,0,1,120.43,330.67Z"/><path class="cls-4" d="M132.88,330.57a.65.65,0,0,1-.2-.38l-3.09-12.36a.39.39,0,0,1,0-.17c0-.2.12-.3.37-.3h1.58a.72.72,0,0,1,.42.1.53.53,0,0,1,.15.31l2,8.62,2.35-7.6a.73.73,0,0,1,.18-.32.61.61,0,0,1,.37-.09h.9a.56.56,0,0,1,.36.09.84.84,0,0,1,.19.32l2.36,7.6,1.94-8.62a.5.5,0,0,1,.17-.31.69.69,0,0,1,.4-.1h1.61c.24,0,.37.1.37.3a.65.65,0,0,1,0,.17l-3.11,12.36a.58.58,0,0,1-.65.49h-1.06a.72.72,0,0,1-.42-.11.66.66,0,0,1-.22-.38l-2.37-7.83-2.35,7.83a.67.67,0,0,1-.23.38.72.72,0,0,1-.42.11h-1.07A.78.78,0,0,1,132.88,330.57Z"/><path class="cls-4" d="M147.26,329.15a8.43,8.43,0,0,1,0-10.26,7.66,7.66,0,0,1,9.91,0,8.43,8.43,0,0,1,0,10.26,7.66,7.66,0,0,1-9.91,0Zm8.09-1.32a7.24,7.24,0,0,0,0-7.61,4.45,4.45,0,0,0-6.27,0,7.19,7.19,0,0,0,0,7.61,4.43,4.43,0,0,0,6.27,0Z"/><path class="cls-4" d="M161,330.5a.75.75,0,0,1-.17-.53V318.09a.79.79,0,0,1,.17-.55.74.74,0,0,1,.56-.18h5.11a5,5,0,0,1,3.45,1.06,4,4,0,0,1,1.19,3.13,4.1,4.1,0,0,1-.65,2.34,3.93,3.93,0,0,1-1.88,1.46l2.17,4.82a.48.48,0,0,1,.06.21c0,.2-.12.3-.35.3h-1.61a.83.83,0,0,1-.37-.07.57.57,0,0,1-.21-.29l-2-4.64h-3.15V330a.75.75,0,0,1-.17.53.76.76,0,0,1-.58.18h-1A.74.74,0,0,1,161,330.5Zm5.16-6.7a3.16,3.16,0,0,0,2-.52,2.13,2.13,0,0,0,.65-1.73,2.27,2.27,0,0,0-.59-1.72,2.5,2.5,0,0,0-1.78-.55h-3.11v4.52Z"/><path class="cls-4" d="M173.39,330.5a.75.75,0,0,1-.17-.53V318.09a.79.79,0,0,1,.17-.55.74.74,0,0,1,.56-.18h3.91a7.3,7.3,0,0,1,5.07,1.59c1.16,1.06,1.75,2.75,1.75,5.07q0,6.66-6.82,6.66H174A.74.74,0,0,1,173.39,330.5Zm4.63-1.72a4.15,4.15,0,0,0,3.12-1.08,7,7,0,0,0,0-7.35,4.18,4.18,0,0,0-3.12-1.07h-2.29v9.5Z"/><path class="cls-4" d="M187.74,330.67a6.28,6.28,0,0,1-2.14-.86c-.17-.11-.26-.22-.26-.31a.36.36,0,0,1,.08-.23l.65-1q.12-.18.21-.18a.5.5,0,0,1,.26.1,6.42,6.42,0,0,0,1.68.69,7.15,7.15,0,0,0,1.94.27,3.75,3.75,0,0,0,2-.44,1.86,1.86,0,0,0,.42-2.36,2,2,0,0,0-.75-.61,15.63,15.63,0,0,0-1.58-.68l-.45-.18a17.23,17.23,0,0,1-2.11-1,4.28,4.28,0,0,1-1.38-1.23,3.15,3.15,0,0,1-.55-1.86,3.18,3.18,0,0,1,1.36-2.75,6,6,0,0,1,3.58-1,9.48,9.48,0,0,1,2.34.25,4.81,4.81,0,0,1,1.71.79.46.46,0,0,1,.24.33.32.32,0,0,1-.08.21l-.63,1c-.08.12-.14.18-.2.18a.58.58,0,0,1-.25-.12,5.7,5.7,0,0,0-3.11-.8,3.17,3.17,0,0,0-1.86.45,1.64,1.64,0,0,0-.63,1.43,1.66,1.66,0,0,0,.26,1,2.15,2.15,0,0,0,.78.61c.34.17.89.4,1.64.69l.49.2a15.06,15.06,0,0,1,2.23,1,3.6,3.6,0,0,1,1.25,1.2,3.44,3.44,0,0,1,.44,1.83,3.17,3.17,0,0,1-1.26,2.65,5.8,5.8,0,0,1-3.6,1A12.55,12.55,0,0,1,187.74,330.67Z"/><g class="cls-5"><polygon class="cls-6" points="219.84 28.73 30.65 28.73 30.65 191.85 30.65 210.75 30.65 300.16 219.74 300.16 219.74 210.75 219.84 210.75 219.84 28.73"/><polygon class="cls-7" points="29.8 128.43 50.01 117.58 84.36 124.38 107.57 108.18 147.16 120.89 172.25 111.88 219.84 130.09 219.84 169.51 29.8 169.51 29.8 128.43"/><polygon class="cls-8" points="29.8 138.85 76.5 119.11 114.06 134.5 150.75 113.84 190.72 130.09 219.84 117.58 219.84 169.51 29.8 169.51 29.8 138.85"/><polygon class="cls-9" points="219.84 169.51 29.8 169.51 29.8 247.93 29.8 257.01 29.8 299.99 219.74 299.99 219.74 257.01 219.84 257.01 219.84 169.51"/><rect class="cls-10" x="22.95" y="167.22" width="196.89" height="132.77"/><polygon class="cls-1" points="182.23 28.73 30.65 28.73 30.65 191.85 30.65 210.75 30.65 300.16 182.15 300.16 182.15 210.75 182.23 210.75 182.23 28.73"/><path class="cls-8" d="M129.28,279.83l-39.85,7.24a6.13,6.13,0,0,1-7.09-4.92h0a6.1,6.1,0,0,1,4.91-7.08l39.85-7.24a6.13,6.13,0,0,1,7.09,4.92h0A6.1,6.1,0,0,1,129.28,279.83Z"/><path class="cls-11" d="M85.36,278.86l.84-.92a3.24,3.24,0,0,1,1.74-1l4-.86a1.09,1.09,0,0,1,0-.18V247a5.5,5.5,0,1,1,11,0V274.9a3.28,3.28,0,0,1,1.29,2.6v3.57a3.29,3.29,0,0,1-3.29,3.29H87.8A3.29,3.29,0,0,1,85.36,278.86Z"/><rect class="cls-12" x="91.73" y="250.39" width="11.91" height="2.08" rx="0.61"/><rect class="cls-12" x="96.49" y="249.95" width="2.4" height="16.99" rx="0.7" transform="translate(175.87 -6.55) rotate(37.14)"/><rect class="cls-12" x="96.71" y="249.88" width="2.14" height="16.99" rx="0.63" transform="translate(331.75 405.27) rotate(142.85)"/><rect class="cls-12" x="96.49" y="261.85" width="2.4" height="16.99" rx="0.7" transform="translate(183.05 -4.14) rotate(37.14)"/><rect class="cls-12" x="96.49" y="261.85" width="2.4" height="16.99" rx="0.7" transform="translate(338.78 426.87) rotate(142.86)"/><rect class="cls-12" x="86.89" y="276.8" width="1.96" height="6.98" rx="0.57"/><rect class="cls-12" x="90.75" y="275.9" width="1.96" height="7.89" rx="0.57"/><rect class="cls-12" x="91.73" y="275.73" width="11.5" height="2.14" rx="0.63"/><rect class="cls-12" x="84.5" y="282.71" width="20.69" height="2" rx="0.58" transform="translate(189.7 567.42) rotate(180)"/><path class="cls-11" d="M111.49,264.28V236.37a5.5,5.5,0,1,1,11,0v28.91a1.09,1.09,0,0,1,0,.18l4,.86a3.24,3.24,0,0,1,1.74,1l.84.92a3.29,3.29,0,0,1-2.44,5.5H113.49a3.29,3.29,0,0,1-3.29-3.29v-3.57A3.28,3.28,0,0,1,111.49,264.28Z"/><rect class="cls-12" x="110.88" y="239.77" width="11.91" height="2.08" rx="0.61" transform="translate(233.68 481.63) rotate(180)"/><rect class="cls-12" x="115.64" y="239.33" width="2.4" height="16.99" rx="0.7" transform="translate(359.61 374.84) rotate(142.86)"/><rect class="cls-12" x="115.64" y="239.33" width="2.4" height="16.99" rx="0.7" transform="translate(173.35 -20.27) rotate(37.14)"/><rect class="cls-12" x="115.64" y="251.23" width="2.4" height="16.99" rx="0.7" transform="translate(366.8 396.22) rotate(142.86)"/><rect class="cls-12" x="115.64" y="251.23" width="2.4" height="16.99" rx="0.7" transform="translate(180.53 -17.86) rotate(37.14)"/><rect class="cls-12" x="125.68" y="265.69" width="1.96" height="6.98" rx="0.57" transform="translate(253.32 538.36) rotate(180)"/><rect class="cls-12" x="121.82" y="265.11" width="1.96" height="7.55" rx="0.57" transform="translate(245.6 537.78) rotate(180)"/><rect class="cls-12" x="111.3" y="265.11" width="11.5" height="2.14" rx="0.63" transform="translate(234.09 532.37) rotate(180)"/><rect class="cls-12" x="109.71" y="272.09" width="20.69" height="2" rx="0.58" transform="translate(240.12 546.18) rotate(180)"/><rect class="cls-12" x="110.06" y="263.26" width="2.27" height="9.8" rx="0.66"/><rect class="cls-12" x="102.9" y="274.28" width="2.27" height="9.92" rx="0.66" transform="translate(208.07 558.49) rotate(180)"/><rect class="cls-13" x="90.05" y="124.95" width="33.58" height="41.56"/><path class="cls-11" d="M88.62,138.54a3.68,3.68,0,1,0,3.67-3.67A3.67,3.67,0,0,0,88.62,138.54Z"/><path class="cls-14" d="M90.05,138.54a2.24,2.24,0,1,0,2.24-2.24A2.24,2.24,0,0,0,90.05,138.54Z"/><path class="cls-11" d="M116.28,138a3.68,3.68,0,1,0,3.67-3.68A3.67,3.67,0,0,0,116.28,138Z"/><circle class="cls-14" cx="119.95" cy="138" r="2.24"/><path class="cls-11" d="M106.25,162.23h0A3.26,3.26,0,0,1,103,159V153.8a3.26,3.26,0,0,1,3.25-3.25h0a3.26,3.26,0,0,1,3.26,3.25V159A3.26,3.26,0,0,1,106.25,162.23Z"/><path class="cls-11" d="M119.29,160.16a17.4,17.4,0,0,0-10.06-3.2h-3.58A17.34,17.34,0,0,0,94,161.4l12,12Z"/><path class="cls-11" d="M105,155.42h0a13.76,13.76,0,0,0,14.38-13l.68-13.62a13.77,13.77,0,0,0-13-14.38h0a13.76,13.76,0,0,0-14.38,13L92,141A13.77,13.77,0,0,0,105,155.42Z"/><path class="cls-15" d="M149.87,182.6c-16.14,0-32.12-10.64-33-11.26a4.64,4.64,0,0,1,5.2-7.69h0c.26.17,25.38,16.85,39.55,6.06a4.65,4.65,0,1,1,5.63,7.39A27.92,27.92,0,0,1,149.87,182.6Z"/><path class="cls-16" d="M110.5,139.83h0a1.23,1.23,0,0,0,1.22-1.23v-2.1a1.23,1.23,0,0,0-1.22-1.23h0a1.23,1.23,0,0,0-1.23,1.23v2.1A1.23,1.23,0,0,0,110.5,139.83Z"/><path class="cls-16" d="M100.31,139.83h0a1.23,1.23,0,0,0,1.23-1.23v-2.1a1.23,1.23,0,0,0-1.23-1.23h0a1.23,1.23,0,0,0-1.22,1.23v2.1A1.23,1.23,0,0,0,100.31,139.83Z"/><path class="cls-13" d="M113.91,135.14a.88.88,0,0,1-.43-.12c-3.71-2.31-5.45-1.16-5.47-1.15a.82.82,0,0,1-1-1.31c.11-.08,2.61-1.87,7.32,1.07a.82.82,0,0,1-.44,1.51Z"/><path class="cls-13" d="M94.87,135a.75.75,0,0,1-.43-.13.81.81,0,0,1-.26-1.13c.07-.11,1.76-2.68,7.21-1.64a.82.82,0,0,1-.31,1.61c-4.29-.81-5.5.89-5.51.91A.84.84,0,0,1,94.87,135Z"/><path class="cls-15" d="M73.7,221.36a4.65,4.65,0,0,1-4.56-3.82c-3.58-19.72,3.25-33.9,9.61-42.32a54.52,54.52,0,0,1,14.93-13.7,4.64,4.64,0,0,1,4.58,8.08c-1.05.6-25.65,15.11-20,46.28a4.65,4.65,0,0,1-3.74,5.4A4.78,4.78,0,0,1,73.7,221.36Z"/><path class="cls-14" d="M104.41,140.63A1.41,1.41,0,0,0,103,142h2.82A1.41,1.41,0,0,0,104.41,140.63Z"/><path class="cls-17" d="M119.29,160.16l-2.18,2.18a15.65,15.65,0,0,1-22.13,0L94,161.4a17.38,17.38,0,0,0-5.82,13l-.12,76.65,38.56,10.26V174.4A17.42,17.42,0,0,0,119.29,160.16Z"/><path class="cls-18" d="M106.81,87.48h1.25a10.21,10.21,0,0,1,10.21,10.21v29.22a0,0,0,0,1,0,0H96.6a0,0,0,0,1,0,0V97.69A10.21,10.21,0,0,1,106.81,87.48Z"/><path class="cls-19" d="M105.06,115.76v-3.52c-.06-.31-.86-4.13-4.19-5.59-4.74-2.07-7.2,1.74-12.34-1.36a.22.22,0,0,0-.31.26,7.84,7.84,0,0,0,2.68,3.53.21.21,0,0,1-.18.38,5.79,5.79,0,0,1-1.89-.9.21.21,0,0,0-.33.24,6.42,6.42,0,0,0,5.08,4,.21.21,0,0,1,0,.42,9.38,9.38,0,0,1-2.77.14.22.22,0,0,0-.18.36,7.32,7.32,0,0,0,6.17,2,.21.21,0,0,1,.1.41,8,8,0,0,1-3.93.58.21.21,0,0,0-.12.4c2.23,1.14,7.76,3.23,12.15-1.23A.2.2,0,0,0,105.06,115.76Z"/><path class="cls-19" d="M108.61,115.76v-3.52c.06-.31.86-4.13,4.18-5.59,4.74-2.07,7.21,1.74,12.34-1.36a.22.22,0,0,1,.32.26,7.84,7.84,0,0,1-2.68,3.53.21.21,0,0,0,.18.38,5.79,5.79,0,0,0,1.89-.9.21.21,0,0,1,.33.24,6.44,6.44,0,0,1-5.09,4,.22.22,0,0,0,0,.42,9.38,9.38,0,0,0,2.77.14.22.22,0,0,1,.18.36,7.32,7.32,0,0,1-6.17,2,.22.22,0,0,0-.11.41,8,8,0,0,0,3.94.58.21.21,0,0,1,.11.4c-2.22,1.14-7.75,3.23-12.14-1.23A.2.2,0,0,1,108.61,115.76Z"/><polygon class="cls-20" points="105.68 111.95 95.2 93.02 99.84 87.48 107.44 111.95 105.68 111.95"/><polygon class="cls-20" points="108.01 111.95 118.5 93.02 113.86 87.48 106.25 111.95 108.01 111.95"/><path class="cls-20" d="M106.66,110.63C106.25,110,103,87.48,103,87.48h7.5Z"/><path class="cls-17" d="M105.07,110.6l-15,13.69a3.25,3.25,0,0,0,2.19,5.65h30a3.25,3.25,0,0,0,2.19-5.65l-15-13.69A3.25,3.25,0,0,0,105.07,110.6Z"/><path class="cls-21" d="M126.36,131H88.79a1.92,1.92,0,0,1-1.91-1.91h0a1.92,1.92,0,0,1,1.91-1.92h37.57a1.92,1.92,0,0,1,1.92,1.92h0A1.92,1.92,0,0,1,126.36,131Z"/><rect class="cls-16" x="162.23" y="161.16" width="6.07" height="14.55" transform="translate(-45.86 63.03) rotate(-19.01)"/><rect class="cls-22" x="155.77" y="159.14" width="13.26" height="2.51" transform="translate(-43.39 61.65) rotate(-19.01)"/><polygon class="cls-17" points="127.14 57.79 128.04 69.73 159.23 160.24 164.97 158.26 133.78 67.75 127.14 57.79"/><path class="cls-11" d="M163.13,174.05l2.42-.83a1.69,1.69,0,0,0,1-2.14h0a1.69,1.69,0,0,0-2.14-1l-2.42.83a1.7,1.7,0,0,0-1,2.14h0A1.69,1.69,0,0,0,163.13,174.05Z"/><path class="cls-11" d="M167.61,164.35h1.25a2.91,2.91,0,0,1,2.91,2.91V173a2.91,2.91,0,0,1-2.91,2.91h-1.25a2.92,2.92,0,0,1-2.92-2.92v-5.74a2.91,2.91,0,0,1,2.91-2.91Z" transform="translate(382.72 276.18) rotate(160.99)"/><path class="cls-14" d="M108.67,145.73h-7.52a.85.85,0,0,1-.84-.84h0a.84.84,0,0,1,.84-.84h7.52a.84.84,0,0,1,.84.84h0A.85.85,0,0,1,108.67,145.73Z"/><path class="cls-17" d="M70.12,107.92l-27.69-.32A3.59,3.59,0,0,1,38.89,104h0a3.6,3.6,0,0,1,3.62-3.54l27.69.32a3.6,3.6,0,0,1,3.54,3.62h0A3.59,3.59,0,0,1,70.12,107.92Z"/><path class="cls-17" d="M61.74,98.93a8.89,8.89,0,1,1-8.79-9A8.9,8.9,0,0,1,61.74,98.93Z"/><path class="cls-17" d="M68.93,101.57a6.34,6.34,0,1,1-6.26-6.41A6.33,6.33,0,0,1,68.93,101.57Z"/><path class="cls-17" d="M104.17,74.08l-17.1-.2a2.22,2.22,0,0,1-2.19-2.23h0a2.21,2.21,0,0,1,2.24-2.18l17.1.19a2.23,2.23,0,0,1,2.19,2.24h0A2.22,2.22,0,0,1,104.17,74.08Z"/><path class="cls-17" d="M99,68.53A5.49,5.49,0,1,1,93.57,63,5.49,5.49,0,0,1,99,68.53Z"/><path class="cls-17" d="M103.43,70.16a3.91,3.91,0,1,1-3.86-4A3.91,3.91,0,0,1,103.43,70.16Z"/><path class="cls-17" d="M150.76,92.3l37.49-.43A4.85,4.85,0,0,0,193,87h0a4.86,4.86,0,0,0-4.9-4.79l-37.49.44a4.85,4.85,0,0,0-4.79,4.9h0A4.85,4.85,0,0,0,150.76,92.3Z"/><circle class="cls-17" cx="174.14" cy="80" r="12.04" transform="translate(-1.52 156.59) rotate(-48.23)"/><path class="cls-17" d="M152.37,83.71A8.58,8.58,0,1,0,160.85,75,8.59,8.59,0,0,0,152.37,83.71Z"/></g></g></g></svg>