<?xml version="1.0" encoding="utf-8"?>
<!-- Generator: Adobe Illustrator 25.2.3, SVG Export Plug-In . SVG Version: 6.00 Build 0)  -->
<svg version="1.1" id="Layer_1" xmlns="http://www.w3.org/2000/svg" xmlns:xlink="http://www.w3.org/1999/xlink" x="0px" y="0px"
	 viewBox="0 0 234.3 380.2" style="enable-background:new 0 0 234.3 380.2;" xml:space="preserve">
<style type="text/css">
	.st0{fill:#F4B155;}
	.st1{fill:#FFF0CC;}
	.st2{fill:#231F20;}
	.st3{clip-path:url(#SVGID_2_);}
	.st4{fill:#A4F6FF;}
	.st5{fill:#3F272D;}
	.st6{fill:#54323A;}
	.st7{fill:#E6E7E8;}
	.st8{fill:#6D4650;}
	.st9{fill:none;}
	.st10{fill:#604049;}
	.st11{fill:#E4705E;}
	.st12{fill:#FFD351;}
	.st13{fill:#FFD150;}
	.st14{fill:#F4B055;}
	.st15{fill:#4A355B;}
	.st16{fill:#F1F2F2;}
	.st17{fill:#414042;}
	.st18{fill:#5BC4B8;}
	.st19{fill:#FFFFFF;}
	.st20{fill:#47372E;}
	.st21{fill:#363559;}
	.st22{fill:#EE915B;}
</style>
<g id="Layer_2_1_">
	<g id="Layer_1-2">
		<path class="st0" d="M234.3,14.6v351.1c-0.1,8.1-6.8,14.6-14.9,14.5c0,0,0,0,0,0H14.9c-8.1,0.1-14.8-6.3-14.9-14.5c0,0,0,0,0,0
			V14.6C0,6.7,6.7,0.2,14.9,0.2h204.4C227.6,0.2,234.3,6.7,234.3,14.6z M221.7,357.4V23c0-5.9-4.8-10.8-10.8-10.8H23.3
			c-5.9,0-10.8,4.8-10.8,10.8v334.4c0,6,4.8,10.8,10.8,10.8c0,0,0,0,0,0h187.6C216.9,368.2,221.7,363.4,221.7,357.4
			C221.7,357.4,221.7,357.4,221.7,357.4z"/>
		<path class="st1" d="M23.3,12.2h187.6c6,0,10.8,4.8,10.8,10.8v334.4c0,6-4.8,10.8-10.8,10.8H23.3c-6,0-10.8-4.8-10.8-10.8V23
			C12.6,17.1,17.4,12.2,23.3,12.2z"/>
		<path class="st2" d="M48.7,330.8c-0.1-0.1-0.2-0.3-0.2-0.5v-9.9h-3.2c-0.2,0-0.4,0-0.5-0.1c-0.1-0.1-0.2-0.3-0.1-0.5v-0.5
			c0-0.2,0-0.4,0.1-0.5c0.1-0.1,0.3-0.2,0.5-0.1H54c0.2,0,0.4,0,0.5,0.1c0.1,0.1,0.2,0.3,0.2,0.5v0.5c0.1,0.3-0.1,0.6-0.4,0.6
			c-0.1,0-0.2,0-0.2,0h-3.2v9.9c0,0.2,0,0.4-0.2,0.5c-0.1,0.1-0.3,0.2-0.5,0.2h-0.9C49,330.9,48.8,330.9,48.7,330.8z"/>
		<path class="st2" d="M58.5,330.8c-0.1-0.1-0.2-0.2-0.2-0.4l-2.9-11.4c0-0.1,0-0.1,0-0.2c0-0.2,0.1-0.3,0.3-0.3h1.5
			c0.1,0,0.3,0,0.4,0.1c0.1,0.1,0.1,0.2,0.2,0.3l1.8,8l2.2-7c0-0.1,0.1-0.2,0.2-0.3c0.1-0.1,0.2-0.1,0.3-0.1h0.8
			c0.1,0,0.2,0,0.3,0.1c0.1,0.1,0.1,0.2,0.2,0.3l2.2,7l1.8-8c0-0.1,0.1-0.2,0.2-0.3c0.1-0.1,0.2-0.1,0.4-0.1h1.5
			c0.2,0,0.3,0.1,0.3,0.3c0,0.1,0,0.1,0,0.2l-3,11.4c0,0.1-0.1,0.3-0.2,0.4c-0.1,0.1-0.3,0.1-0.4,0.1h-1c-0.1,0-0.3,0-0.4-0.1
			c-0.1-0.1-0.2-0.2-0.2-0.4l-2.1-7.2l-2.2,7.2c0,0.1-0.1,0.3-0.2,0.4c-0.1,0.1-0.3,0.1-0.4,0.1h-1
			C58.8,330.9,58.6,330.9,58.5,330.8z"/>
		<path class="st2" d="M71.8,329.5c-2.1-2.8-2.1-6.7,0-9.5c1.2-1.2,2.9-1.8,4.6-1.7c1.7-0.1,3.4,0.5,4.6,1.7c2.1,2.8,2.1,6.7,0,9.5
			c-1.2,1.2-2.9,1.8-4.6,1.7C74.7,331.3,73,330.7,71.8,329.5z M79.3,328.2c1.3-2.2,1.3-4.8,0-7c-1.6-1.6-4.2-1.6-5.8,0
			c-1.3,2.1-1.3,4.9,0,7C75.1,329.8,77.6,329.9,79.3,328.2C79.3,328.3,79.3,328.3,79.3,328.2z"/>
		<path class="st2" d="M92.6,329.5c-2.1-2.8-2.1-6.7,0-9.5c2.6-2.2,6.5-2.2,9.2,0c2.1,2.8,2.1,6.7,0,9.5
			C99.2,331.8,95.3,331.8,92.6,329.5z M100.1,328.3c1.3-2.1,1.3-4.9,0-7c-0.7-0.8-1.8-1.3-2.9-1.2c-1.1-0.1-2.2,0.3-2.9,1.1
			c-1.3,2.1-1.3,4.9,0,7c0.7,0.8,1.8,1.3,2.9,1.2C98.3,329.5,99.4,329.1,100.1,328.3L100.1,328.3z"/>
		<path class="st2" d="M105.3,330.8c-0.1-0.1-0.2-0.3-0.2-0.5v-11c-0.1-0.3,0.1-0.6,0.4-0.7c0.1,0,0.1,0,0.2,0h7.5
			c0.2,0,0.4,0,0.5,0.1c0.1,0.1,0.2,0.3,0.1,0.5v0.5c0,0.2,0,0.4-0.1,0.5c-0.1,0.1-0.3,0.2-0.5,0.1h-5.9v3.5h4.3
			c0.2,0,0.4,0,0.5,0.1c0.1,0.1,0.2,0.3,0.2,0.5v0.5c0,0.2,0,0.4-0.2,0.5c-0.1,0.1-0.3,0.2-0.5,0.1h-4.3v4.6c0,0.3-0.2,0.6-0.5,0.7
			c-0.1,0-0.1,0-0.2,0h-1C105.6,330.9,105.5,330.9,105.3,330.8z"/>
		<path class="st2" d="M124.6,330.9c-0.8-0.2-1.5-0.4-2.1-0.9c-0.2-0.1-0.3-0.2-0.3-0.3c0-0.1,0-0.2,0.1-0.2l0.7-1
			c0.1-0.1,0.1-0.2,0.2-0.2c0.1,0,0.2,0,0.3,0.1c0.5,0.3,1.1,0.5,1.7,0.7c0.6,0.2,1.3,0.3,1.9,0.3c0.7,0,1.4-0.1,2-0.4
			c0.7-0.6,0.9-1.6,0.4-2.4c-0.2-0.3-0.5-0.5-0.8-0.6c-0.5-0.3-1-0.5-1.6-0.7l-0.4-0.2c-0.7-0.3-1.4-0.6-2.1-1
			c-0.5-0.3-1-0.7-1.4-1.2c-0.4-0.5-0.6-1.2-0.6-1.9c-0.1-1.1,0.5-2.2,1.4-2.8c1.1-0.7,2.3-1.1,3.6-1c0.8,0,1.6,0.1,2.3,0.2
			c0.6,0.1,1.2,0.4,1.7,0.8c0.1,0.1,0.2,0.2,0.2,0.3c0,0.1,0,0.2-0.1,0.2l-0.6,1c-0.1,0.1-0.1,0.2-0.2,0.2c-0.1,0-0.2-0.1-0.2-0.1
			c-0.9-0.6-2-0.8-3.1-0.8c-0.7,0-1.3,0.1-1.9,0.5c-0.4,0.3-0.7,0.9-0.6,1.4c0,0.4,0.1,0.7,0.3,1c0.2,0.3,0.5,0.5,0.8,0.6
			c0.3,0.2,0.9,0.4,1.6,0.7l0.5,0.2c0.8,0.3,1.5,0.6,2.2,1c0.5,0.3,0.9,0.7,1.2,1.2c0.3,0.6,0.5,1.2,0.4,1.8c0,1-0.4,2-1.3,2.6
			c-1.1,0.7-2.3,1.1-3.6,1C126.4,331.2,125.5,331.1,124.6,330.9z"/>
		<path class="st2" d="M137.1,330.8c-0.1-0.1-0.2-0.2-0.2-0.4l-3.1-12.4c0-0.1,0-0.1,0-0.2c0-0.2,0.1-0.3,0.4-0.3h1.6
			c0.1,0,0.3,0,0.4,0.1c0.1,0.1,0.1,0.2,0.2,0.3l2,8.6l2.4-7.6c0-0.1,0.1-0.2,0.2-0.3c0.1-0.1,0.2-0.1,0.4-0.1h0.8
			c0.1,0,0.3,0,0.4,0.1c0.1,0.1,0.1,0.2,0.2,0.3l2.4,7.6l1.9-8.6c0-0.1,0.1-0.2,0.2-0.3c0.1-0.1,0.3-0.1,0.4-0.1h1.6
			c0.2,0,0.4,0.1,0.4,0.3c0,0.1,0,0.1,0,0.2l-3.1,12.4c0,0.1-0.1,0.3-0.2,0.4c-0.1,0.1-0.3,0.1-0.4,0.1h-1.1c-0.3,0-0.6-0.2-0.6-0.5
			l-2.4-7.8l-2.3,7.8c0,0.3-0.3,0.5-0.6,0.5h-1.1C137.3,330.9,137.2,330.9,137.1,330.8z"/>
		<path class="st2" d="M151.4,329.4c-2.3-3-2.3-7.2,0-10.3c2.9-2.4,7.1-2.4,9.9,0c2.3,3,2.3,7.2,0,10.3
			C158.5,331.8,154.3,331.8,151.4,329.4z M159.5,328.1c1.4-2.3,1.4-5.3,0-7.6c-0.8-0.9-1.9-1.4-3.1-1.3c-1.2-0.1-2.4,0.4-3.1,1.3
			c-1.4,2.3-1.4,5.3,0,7.6c0.8,0.9,2,1.4,3.1,1.3C157.6,329.5,158.7,329,159.5,328.1z"/>
		<path class="st2" d="M165.2,330.7c-0.1-0.1-0.2-0.3-0.2-0.5v-11.9c0-0.2,0-0.4,0.2-0.5c0.1-0.1,0.3-0.2,0.6-0.2h5.1
			c1.2-0.1,2.5,0.3,3.5,1.1c0.8,0.8,1.3,2,1.2,3.1c0,0.8-0.2,1.6-0.6,2.3c-0.5,0.7-1.1,1.2-1.9,1.5l2.2,4.8c0,0.1,0.1,0.1,0.1,0.2
			c0,0.2-0.1,0.3-0.4,0.3h-1.6c-0.1,0-0.3,0-0.4-0.1c-0.1-0.1-0.2-0.2-0.2-0.3l-2-4.6h-3.1v4.3c0,0.2,0,0.4-0.2,0.5
			c-0.2,0.1-0.4,0.2-0.6,0.2h-1C165.5,331,165.3,330.9,165.2,330.7z M170.3,324c0.7,0.1,1.4-0.1,2-0.5c0.5-0.4,0.7-1.1,0.6-1.7
			c0.1-0.6-0.2-1.3-0.6-1.7c-0.5-0.4-1.1-0.6-1.8-0.5h-3.1v4.5H170.3z"/>
		<path class="st2" d="M177.6,330.7c-0.1-0.1-0.2-0.3-0.2-0.5v-11.9c0-0.2,0-0.4,0.2-0.5c0.2-0.1,0.4-0.2,0.6-0.2h3.9
			c1.8-0.1,3.6,0.4,5.1,1.6c1.2,1.1,1.8,2.8,1.8,5.1c0,4.4-2.3,6.7-6.8,6.7h-3.9C177.9,330.9,177.7,330.9,177.6,330.7z M182.2,329
			c1.1,0.1,2.3-0.3,3.1-1.1c1.4-2.3,1.4-5.1,0-7.4c-0.9-0.8-2-1.2-3.1-1.1h-2.3v9.5H182.2z"/>
		<path class="st2" d="M191.9,330.9c-0.8-0.2-1.5-0.4-2.1-0.9c-0.2-0.1-0.3-0.2-0.3-0.3c0-0.1,0-0.2,0.1-0.2l0.6-1
			c0.1-0.1,0.1-0.2,0.2-0.2c0.1,0,0.2,0,0.2,0.1c0.5,0.3,1.1,0.5,1.7,0.7c0.6,0.2,1.3,0.3,1.9,0.3c0.7,0,1.4-0.1,2-0.4
			c0.5-0.3,0.7-0.9,0.7-1.4c0-0.3-0.1-0.7-0.3-0.9c-0.2-0.3-0.4-0.5-0.7-0.6c-0.5-0.3-1-0.5-1.6-0.7l-0.4-0.2
			c-0.7-0.3-1.4-0.6-2.1-1c-0.5-0.3-1-0.7-1.4-1.2c-0.4-0.5-0.6-1.2-0.6-1.9c-0.1-1.1,0.4-2.2,1.4-2.8c1.1-0.7,2.3-1.1,3.6-1
			c0.8,0,1.6,0.1,2.3,0.2c0.6,0.2,1.2,0.4,1.7,0.8c0.1,0.1,0.2,0.2,0.2,0.3c0,0.1,0,0.2-0.1,0.2l-0.6,1c-0.1,0.1-0.1,0.2-0.2,0.2
			c-0.1,0-0.2-0.1-0.2-0.1c-0.9-0.6-2-0.8-3.1-0.8c-0.7,0-1.3,0.1-1.9,0.5c-0.6,0.6-0.8,1.6-0.4,2.4c0.2,0.3,0.5,0.5,0.8,0.6
			c0.3,0.2,0.9,0.4,1.6,0.7l0.5,0.2c0.8,0.3,1.5,0.6,2.2,1c0.5,0.3,0.9,0.7,1.2,1.2c0.3,0.6,0.5,1.2,0.4,1.8c0,1-0.4,2-1.3,2.6
			c-1.1,0.7-2.3,1.1-3.6,1C193.7,331.1,192.8,331.1,191.9,330.9z"/>
		<g>
			<defs>
				<path id="SVGID_1_" d="M58,44.1h128.5c13.6,0,24.7,11.1,24.7,24.7v191.7c0,13.6-11.1,24.7-24.7,24.7H58
					c-13.6,0-24.7-11.1-24.7-24.7V68.8C33.3,55.2,44.4,44.1,58,44.1z"/>
			</defs>
			<clipPath id="SVGID_2_">
				<use xlink:href="#SVGID_1_"  style="overflow:visible;"/>
			</clipPath>
			<g class="st3">
				<polygon class="st4" points="214.3,-2.4 30.9,-2.4 30.9,194.9 30.9,217.8 30.9,326 214.2,326 214.2,217.8 214.3,217.8 				"/>
				<polygon class="st5" points="29.9,118.2 49.7,105.1 83.2,113.3 105.9,93.7 144.6,109.1 169.1,98.2 215.7,120.2 215.7,167.9 
					29.9,167.9 				"/>
				<polygon class="st6" points="29.9,130.8 75.6,106.9 112.3,125.6 148.1,100.6 187.2,120.2 215.7,105.1 215.7,167.9 29.9,167.9 
									"/>
				<polygon class="st7" points="215.7,167.9 29.9,167.9 29.9,262.8 29.9,273.8 29.9,325.8 215.6,325.8 215.6,273.8 215.7,273.8 
									"/>
				<rect x="21.6" y="164.7" class="st8" width="200.7" height="161.1"/>
				<polygon class="st9" points="214.3,-2.4 30.9,-2.4 30.9,194.9 30.9,217.8 30.9,326 214.2,326 214.2,217.8 214.3,217.8 				"/>
				<polygon class="st10" points="45.3,268.1 26.3,292.3 234.3,285.2 203.5,260.1 				"/>
				<path class="st6" d="M204.4,266.8h-37c-2,0-3.7-1.6-3.7-3.7l0,0c0-2,1.6-3.7,3.7-3.7h37c2,0,3.7,1.6,3.7,3.7l0,0
					C208,265.2,206.4,266.8,204.4,266.8z"/>
				<path class="st6" d="M140.5,270.8h-37c-2,0-3.7-1.6-3.7-3.7l0,0c0-2,1.6-3.7,3.7-3.7h37c2,0,3.7,1.6,3.7,3.7l0,0
					C144.1,269.2,142.5,270.8,140.5,270.8z"/>
				<path class="st6" d="M84,274.8H47c-2,0-3.7-1.6-3.7-3.7l0,0c0-2,1.6-3.7,3.7-3.7h37c2,0,3.7,1.6,3.7,3.7l0,0
					C87.7,273.1,86,274.8,84,274.8z"/>
				<path class="st11" d="M106.4,136.6h32.2l0,0v14.1c0,4.4-3.6,8-8,8h-16.2c-4.4,0-8-3.6-8-8V136.6L106.4,136.6z"/>
				<path class="st12" d="M137.6,174.3c-1.9,0-3.4-1.5-3.4-3.4c0-1.4,0.8-2.6,2.1-3.2c4.9-2.1,7.6-4.5,7.8-6.7
					c0.2-3.5-5.5-7.9-8.1-9.4c-1.7-0.9-2.2-3-1.3-4.7s3-2.2,4.7-1.3c1.2,0.7,12,7.1,11.6,15.7c-0.3,5.1-4.3,9.3-11.9,12.6
					C138.6,174.2,138.1,174.3,137.6,174.3z"/>
				<path class="st13" d="M139.1,262.2l-0.6-0.7c-0.3-0.4-0.8-0.6-1.3-0.7l-3-0.6c0,0,0-0.1,0-0.1v-21.3c0-2.2-1.8-4.1-4.1-4.1
					s-4.1,1.8-4.1,4.1v20.6c-0.6,0.4-1,1.2-1,1.9v2.6c0,1.3,1.1,2.4,2.4,2.4c0,0,0,0,0,0h9.7c1.3,0.1,2.5-1,2.6-2.3
					C139.8,263.4,139.6,262.7,139.1,262.2z"/>
				<path class="st11" d="M133.8,242.8h-7.4c-0.4,0-0.7-0.3-0.7-0.7v-0.2c0-0.4,0.3-0.7,0.7-0.7h7.4c0.4,0,0.7,0.3,0.7,0.7v0.2
					C134.5,242.5,134.1,242.8,133.8,242.8z"/>
				<path class="st11" d="M133.9,252.1l-0.2,0.1c-0.3,0.3-0.8,0.2-1.1-0.2l-6.6-8.7c-0.3-0.3-0.2-0.8,0.2-1.1l0.2-0.1
					c0.3-0.3,0.8-0.2,1.1,0.2l6.6,8.7C134.3,251.4,134.3,251.9,133.9,252.1z"/>
				<path class="st11" d="M133.7,242.1l0.1,0.1c0.3,0.2,0.4,0.7,0.1,1l-6.7,8.9c-0.2,0.3-0.7,0.4-1,0.1l-0.1-0.1
					c-0.3-0.2-0.4-0.7-0.1-1l6.7-8.9C133,241.9,133.4,241.9,133.7,242.1z"/>
				<path class="st11" d="M133.9,260.9l-0.2,0.1c-0.3,0.3-0.8,0.2-1.1-0.2l-6.6-8.8c-0.3-0.3-0.2-0.8,0.2-1.1l0,0l0.2-0.1
					c0.3-0.3,0.8-0.2,1.1,0.2l6.6,8.8C134.3,260.2,134.2,260.7,133.9,260.9L133.9,260.9z"/>
				<path class="st11" d="M133.7,250.9l0.2,0.1c0.3,0.3,0.4,0.8,0.2,1.1l-6.6,8.8c-0.3,0.3-0.8,0.4-1.1,0.2l0,0l-0.2-0.1
					c-0.3-0.3-0.4-0.7-0.2-1.1l6.6-8.8C132.9,250.7,133.4,250.7,133.7,250.9L133.7,250.9z"/>
				<path class="st11" d="M137.4,265.9h-0.2c-0.4,0-0.6-0.3-0.6-0.6v-3.9c0-0.4,0.3-0.6,0.6-0.6h0.2c0.4,0,0.6,0.3,0.6,0.6v3.9
					C138,265.6,137.7,265.9,137.4,265.9z"/>
				<path class="st11" d="M134.5,265.9h-0.2c-0.4,0-0.6-0.3-0.6-0.6v-4.5c0-0.4,0.3-0.6,0.6-0.6h0.2c0.4,0,0.6,0.3,0.6,0.6v4.5
					C135.2,265.6,134.9,265.9,134.5,265.9z"/>
				<path class="st11" d="M133.8,261.5h-7.1c-0.4,0-0.7-0.3-0.7-0.7v-0.2c0-0.4,0.3-0.7,0.7-0.7h7.1c0.4,0,0.7,0.3,0.7,0.7v0.2
					C134.4,261.2,134.1,261.5,133.8,261.5z"/>
				<path class="st11" d="M125.2,265.1h14c0.4,0,0.6,0.3,0.6,0.6v0.2c0,0.4-0.3,0.6-0.6,0.6h-14c-0.4,0-0.7-0.3-0.7-0.6v-0.2
					C124.5,265.4,124.8,265.1,125.2,265.1z"/>
				<path class="st13" d="M117.7,259.4v-20.6c0-2.2-1.8-4.1-4.1-4.1c-2.2,0-4.1,1.8-4.1,4.1v21.3c0,0,0,0.1,0,0.1l-2.9,0.6
					c-0.5,0.1-0.9,0.4-1.3,0.7l-0.6,0.7c-0.9,1-0.8,2.5,0.2,3.4c0.4,0.4,1,0.6,1.6,0.6h9.7c1.3,0,2.4-1.1,2.4-2.4c0,0,0,0,0,0v-2.7
					C118.6,260.5,118.3,259.8,117.7,259.4z"/>
				<path class="st11" d="M110,241.3h7.4c0.4,0,0.7,0.3,0.7,0.7v0.2c0,0.4-0.3,0.7-0.7,0.7H110c-0.4,0-0.7-0.3-0.7-0.7v-0.2
					C109.4,241.6,109.7,241.3,110,241.3z"/>
				<path class="st11" d="M117.5,242.2l0.2,0.1c0.3,0.3,0.4,0.8,0.2,1.1l-6.6,8.7c-0.3,0.3-0.8,0.4-1.1,0.2l-0.2-0.1
					c-0.3-0.3-0.4-0.8-0.2-1.1l6.6-8.7C116.6,242,117.1,241.9,117.5,242.2z"/>
				<path class="st11" d="M117.6,252.2l-0.2,0.1c-0.3,0.3-0.8,0.2-1.1-0.2l-6.6-8.8c-0.3-0.3-0.2-0.8,0.2-1.1l0.2-0.1
					c0.3-0.3,0.8-0.2,1.1,0.2l6.6,8.8C118,251.4,118,251.9,117.6,252.2L117.6,252.2z"/>
				<path class="st11" d="M117.5,250.9l0.2,0.1c0.3,0.3,0.4,0.8,0.2,1.1l-6.6,8.7c-0.3,0.3-0.8,0.4-1.1,0.2l-0.2-0.1
					c-0.3-0.3-0.4-0.8-0.2-1.1l6.6-8.7C116.6,250.7,117.1,250.7,117.5,250.9z"/>
				<path class="st11" d="M117.6,260.9l-0.2,0.1c-0.3,0.3-0.8,0.2-1.1-0.2l-6.6-8.7c-0.3-0.3-0.2-0.8,0.2-1.1l0.2-0.1
					c0.3-0.3,0.8-0.2,1.1,0.2l6.6,8.7C118,260.2,118,260.7,117.6,260.9z"/>
				<path class="st11" d="M106.4,260.4h0.2c0.4,0,0.6,0.3,0.6,0.6v3.9c0,0.4-0.3,0.6-0.6,0.6h-0.2c-0.4,0-0.6-0.3-0.6-0.6V261
					C105.8,260.7,106.1,260.4,106.4,260.4z"/>
				<path class="st11" d="M109.3,260h0.2c0.4,0,0.6,0.3,0.6,0.6v4.3c0,0.4-0.3,0.6-0.6,0.6h-0.2c-0.4,0-0.6-0.3-0.6-0.6v-4.3
					C108.6,260.3,108.9,260,109.3,260z"/>
				<path class="st11" d="M110.1,260h7.1c0.4,0,0.7,0.3,0.7,0.7v0.2c0,0.4-0.3,0.7-0.7,0.7h-7.1c-0.4,0-0.7-0.3-0.7-0.7v-0.2
					C109.4,260.3,109.7,260,110.1,260z"/>
				<path class="st11" d="M104.4,265.1h14c0.4,0,0.7,0.3,0.7,0.6v0.2c0,0.4-0.3,0.6-0.7,0.6h-14c-0.4,0-0.7-0.3-0.7-0.6v-0.2
					C103.8,265.4,104,265.1,104.4,265.1z"/>
				<path class="st11" d="M118.3,266.6h-0.2c-0.4,0-0.7-0.3-0.7-0.7v-5.8c0-0.4,0.3-0.7,0.7-0.7h0.2c0.4,0,0.7,0.3,0.7,0.7v5.8
					C119,266.2,118.7,266.6,118.3,266.6z"/>
				<path class="st11" d="M125.1,259.3h0.2c0.4,0,0.7,0.3,0.7,0.7v5.8c0,0.4-0.3,0.7-0.7,0.7h-0.2c-0.4,0-0.7-0.3-0.7-0.7V260
					C124.4,259.6,124.7,259.3,125.1,259.3z"/>
				<path class="st13" d="M122,156h0.7c1.5,0,2.8,1.2,2.8,2.8v5.7c0,1.5-1.2,2.8-2.8,2.8H122c-1.5,0-2.8-1.2-2.8-2.8v-5.7
					C119.2,157.3,120.5,156,122,156z"/>
				<path class="st13" d="M123.2,161.9l-3-0.1c-6.5-0.3-11.5-5.8-11.2-12.3l0.8-16.1c0.3-6.5,5.8-11.5,12.3-11.2l3,0.1
					c6.5,0.3,11.5,5.8,11.2,12.3l-0.8,16.1C135.2,157.2,129.7,162.2,123.2,161.9z"/>
				<path class="st13" d="M122.2,170.9c4.2,0,8.1-2.3,10.1-6c-2.6-1.3-5.4-2-8.3-2h-3.5c-2.9,0-5.8,0.7-8.4,2
					C114.1,168.6,118,170.9,122.2,170.9z"/>
				<path class="st11" d="M121.1,119.8l0.9,0.9c2,2,2,5.2,0,7.2l-10.7,10.7c-2,2-5.2,2-7.2,0l-0.9-0.9c-2-2-2-5.2,0-7.2l10.7-10.7
					C115.9,117.8,119.1,117.8,121.1,119.8z"/>
				<path class="st11" d="M112.1,124.9h21.5c1.5,0,2.7,1.2,2.7,2.7l0,0v3.3c0,1.5-1.2,2.7-2.7,2.7l0,0h-19.2c-2.8,0-5-2.2-5-5v-1
					C109.4,126.1,110.6,124.9,112.1,124.9L112.1,124.9L112.1,124.9z"/>
				<path class="st11" d="M112.3,116.2h18.6c2.4,0,4.3,1.9,4.3,4.3v1.1c0,2.4-1.9,4.3-4.3,4.3h-18.6c-2.4,0-4.3-1.9-4.3-4.3v-1.1
					C108,118.2,109.9,116.2,112.3,116.2z"/>
				<path class="st11" d="M122.3,120.8l0.9-0.9c2-2,5.2-2,7.2,0l10.7,10.7c2,2,2,5.2,0,7.2l-0.9,0.9c-2,2-5.2,2-7.2,0L122.3,128
					C120.3,126,120.3,122.8,122.3,120.8z"/>
				<path class="st11" d="M119.4,138.3l0.1,0.3c0.3,0.7,0,1.5-0.6,1.8l-5.5,2.7c-0.7,0.3-1.5,0-1.8-0.6l-0.1-0.3
					c-0.3-0.7,0-1.5,0.6-1.8l5.5-2.7C118.2,137.3,119,137.6,119.4,138.3z"/>
				<path class="st11" d="M133.3,142.5l-0.1,0.3c-0.3,0.7-1.1,1-1.8,0.6l-5.5-2.7c-0.7-0.3-1-1.1-0.6-1.8l0.1-0.3
					c0.3-0.7,1.1-1,1.8-0.6l5.5,2.7C133.3,141.1,133.6,141.9,133.3,142.5z"/>
				<path class="st14" d="M110,139.5h0.2c0.5,0,0.9,0.4,0.9,0.9v10.7c0,0.5-0.4,0.9-0.9,0.9H110c-0.5,0-0.9-0.4-0.9-0.9v-10.7
					C109.1,139.9,109.5,139.5,110,139.5z"/>
				<path class="st14" d="M134.3,139.5h0.2c0.5,0,0.9,0.4,0.9,0.9v10.7c0,0.5-0.4,0.9-0.9,0.9h-0.2c-0.5,0-0.9-0.4-0.9-0.9v-10.7
					C133.4,139.9,133.8,139.5,134.3,139.5z"/>
				<path class="st11" d="M125.2,154c-0.2,0-0.5-0.1-0.6-0.3c-0.5-0.6-1.2-0.9-1.9-0.9c-1,0-2,0.3-2.7,0.9c-0.4,0.3-0.9,0.2-1.1-0.1
					c-0.3-0.4-0.2-0.9,0.1-1.1c1.1-0.8,2.4-1.3,3.7-1.3c1.2,0,2.4,0.5,3.2,1.5c0.3,0.4,0.2,0.9-0.2,1.1
					C125.5,154,125.3,154,125.2,154L125.2,154z"/>
				<path class="st15" d="M127.2,146.9H127c-0.6,0-1.1-0.5-1.1-1.1v-2.3c0-0.6,0.5-1.1,1.1-1.1h0.3c0.6,0,1.1,0.5,1.1,1.1v2.3
					C128.3,146.5,127.8,146.9,127.2,146.9z"/>
				<path class="st15" d="M117.4,146.9h-0.3c-0.6,0-1.1-0.5-1.1-1.1v-2.3c0-0.6,0.5-1.1,1.1-1.1h0.3c0.6,0,1.1,0.5,1.1,1.1v2.3
					C118.5,146.5,118,146.9,117.4,146.9z"/>
				<path class="st14" d="M122.3,146.3c-1.3,0-2.3,1-2.3,2.3l0,0h4.6C124.6,147.4,123.6,146.3,122.3,146.3z"/>
				<path class="st14" d="M122.5,153.6c-0.7,0-1.2,0.3-1.2,0.6h2.4C123.7,153.9,123.2,153.6,122.5,153.6z"/>
				<path class="st12" d="M137,151.7h-0.6c-1.3,0-2.4-1.1-2.4-2.4v-7.8c0-1.3,1.1-2.4,2.4-2.4h0.6c1.3,0,2.4,1.1,2.4,2.4v7.8
					C139.3,150.6,138.3,151.7,137,151.7z"/>
				<path class="st12" d="M106.7,174.3c-0.5,0-0.9-0.1-1.4-0.3c-7.6-3.3-11.6-7.6-11.9-12.6c-0.5-8.6,10.3-15,11.6-15.7
					c1.7-0.9,3.8-0.4,4.7,1.3c0.9,1.7,0.4,3.8-1.3,4.7l0,0l0,0c-2.7,1.6-8.3,5.9-8.1,9.4c0.1,2.2,2.9,4.6,7.8,6.7
					c1.7,0.7,2.5,2.8,1.8,4.5C109.3,173.5,108.1,174.4,106.7,174.3L106.7,174.3z"/>
				<path class="st12" d="M107.4,139.1h0.6c1.3,0,2.4,1.1,2.4,2.4v7.8c0,1.3-1.1,2.4-2.4,2.4h-0.6c-1.3,0-2.4-1.1-2.4-2.4v-7.8
					C105,140.2,106.1,139.1,107.4,139.1z"/>
				<path class="st16" d="M133.6,165.6c-0.4-0.3-0.9-0.5-1.4-0.8c-3,5.6-9.9,7.7-15.5,4.7c-2-1.1-3.6-2.7-4.7-4.7
					c-1,0.5-2,1.1-2.9,1.8l-0.1,0.1c2.9,1.6,4,5.2,2.4,8.1c-1,1.9-3,3.1-5.2,3.2c-1,0-1.9-0.2-2.8-0.7c0,0.1,0,0.3,0,0.4v59.5h37.1
					v-59.5C140.7,172.7,137.9,168.1,133.6,165.6z"/>
				<path class="st13" d="M112.4,172c0-2.2-1.2-4.3-3.2-5.3c-3.3,2.5-5.4,6.4-5.6,10.6c0.9,0.5,1.8,0.7,2.8,0.7
					C109.7,178,112.4,175.3,112.4,172z"/>
				<path class="st17" d="M104.1,204.1h37.3c1.3,0,2.4,1.1,2.4,2.4v0.6c0,1.3-1.1,2.4-2.4,2.4h-37.3c-1.3,0-2.4-1.1-2.4-2.4v-0.6
					C101.7,205.2,102.8,204.1,104.1,204.1z"/>
				<polygon class="st15" points="78.4,192.1 81.2,186.8 100.8,197.6 98,202.9 				"/>
				<polygon class="st18" points="89.1,201.9 95.2,190.3 97.3,191.5 91.3,203.1 				"/>
				<polygon class="st19" points="185,247.4 176.6,239.3 95.6,194.7 92.8,200 173.9,244.6 				"/>
				<path class="st13" d="M64.7,263.4l-0.8-0.9c-0.4-0.5-1-0.9-1.7-1l-3.9-0.8c0-0.1,0-0.1,0-0.2v-28c0.1-2.9-2.2-5.4-5.1-5.6
					c-2.9-0.1-5.4,2.2-5.6,5.1c0,0.2,0,0.3,0,0.5v27.1c-0.8,0.6-1.3,1.5-1.2,2.5v3.5c0,1.8,1.4,3.2,3.2,3.2l0,0h12.8
					c1.8,0,3.2-1.4,3.2-3.2C65.5,264.8,65.2,264,64.7,263.4z"/>
				<path class="st11" d="M57.6,237.8h-9.8c-0.5,0-0.9-0.4-0.9-0.9v-0.2c0-0.5,0.4-0.9,0.9-0.9h9.8c0.5,0,0.9,0.4,0.9,0.9v0.2
					C58.5,237.4,58.1,237.8,57.6,237.8z"/>
				<path class="st11" d="M57.8,250.1l-0.2,0.2c-0.5,0.3-1.1,0.3-1.4-0.2l-8.7-11.5c-0.3-0.5-0.3-1.1,0.2-1.4l0.2-0.2
					c0.5-0.3,1.1-0.3,1.4,0.2l8.7,11.5C58.3,249.1,58.3,249.8,57.8,250.1z"/>
				<path class="st11" d="M57.5,236.9l0.2,0.1c0.4,0.3,0.5,0.9,0.2,1.3L49.1,250c-0.3,0.4-0.9,0.5-1.3,0.2l-0.2-0.1
					c-0.4-0.3-0.5-0.9-0.2-1.3l8.8-11.7C56.5,236.7,57.1,236.6,57.5,236.9z"/>
				<path class="st11" d="M57.8,261.6l-0.2,0.2c-0.5,0.3-1.1,0.3-1.4-0.2l-8.7-11.5c-0.3-0.5-0.3-1.1,0.2-1.4l0.2-0.2
					c0.5-0.3,1.1-0.3,1.4,0.2l8.7,11.5C58.4,260.7,58.3,261.3,57.8,261.6z"/>
				<path class="st11" d="M57.6,248.5l0.2,0.2c0.5,0.3,0.5,1,0.2,1.4l-8.7,11.5c-0.3,0.5-1,0.5-1.4,0.2l-0.2-0.2
					c-0.5-0.3-0.5-1-0.2-1.4l8.7-11.5C56.5,248.3,57.1,248.2,57.6,248.5z"/>
				<path class="st11" d="M62.4,268.2h-0.2c-0.5,0-0.8-0.4-0.8-0.8v-5.1c0-0.5,0.4-0.8,0.8-0.8h0.2c0.5,0,0.8,0.4,0.8,0.8v5.1
					C63.2,267.8,62.8,268.2,62.4,268.2z"/>
				<path class="st11" d="M58.6,268.2h-0.2c-0.5,0-0.8-0.4-0.8-0.8v-6c0-0.5,0.4-0.8,0.8-0.8h0.2c0.5,0,0.8,0.4,0.8,0.8v6
					C59.5,267.8,59.1,268.2,58.6,268.2z"/>
				<path class="st11" d="M57.6,262.5h-9.3c-0.5,0-0.9-0.4-0.9-0.9v-0.2c0-0.5,0.4-0.9,0.9-0.9h9.3c0.5,0,0.9,0.4,0.9,0.9v0.2
					C58.5,262.1,58.1,262.5,57.6,262.5z"/>
				<path class="st11" d="M46.3,267.2h18.3c0.5,0,0.9,0.4,0.9,0.9v0.2c0,0.5-0.4,0.9-0.9,0.9H46.3c-0.5,0-0.9-0.4-0.9-0.9V268
					C45.4,267.6,45.8,267.2,46.3,267.2z"/>
				<path class="st11" d="M46.3,259.5h0.2c0.5,0,1,0.4,1,1v7.7c0,0.5-0.4,1-1,1h-0.2c-0.5,0-1-0.4-1-1v-7.7
					C45.3,259.9,45.7,259.5,46.3,259.5z"/>
				<path class="st13" d="M81.1,265.8l-0.8-0.9c-0.4-0.5-1-0.9-1.7-1l-3.9-0.8c0-0.1,0-0.1,0-0.2v-28c0.1-2.9-2.2-5.4-5.1-5.6
					s-5.4,2.2-5.6,5.1c0,0.2,0,0.3,0,0.5v27.1c-0.8,0.6-1.2,1.5-1.2,2.5v3.5c0,1.8,1.4,3.2,3.2,3.2c0,0,0,0,0.1,0h12.7
					c1.8,0,3.2-1.4,3.2-3.2C81.9,267.1,81.6,266.4,81.1,265.8z"/>
				<path class="st11" d="M74,240.2h-9.8c-0.5,0-0.9-0.4-0.9-0.9v-0.2c0-0.5,0.4-0.9,0.9-0.9H74c0.5,0,0.9,0.4,0.9,0.9v0.2
					C74.9,239.8,74.5,240.2,74,240.2z"/>
				<path class="st11" d="M74.2,252.5l-0.2,0.2c-0.5,0.3-1.1,0.3-1.4-0.2l-8.7-11.5c-0.3-0.5-0.3-1.1,0.2-1.4l0.2-0.2
					c0.5-0.3,1.1-0.3,1.4,0.2l8.7,11.5C74.7,251.5,74.6,252.1,74.2,252.5z"/>
				<path class="st11" d="M73.9,239.3l0.2,0.1c0.4,0.3,0.5,0.9,0.2,1.3l-8.8,11.7c-0.3,0.4-0.9,0.5-1.3,0.2l-0.2-0.1
					c-0.4-0.3-0.5-0.9-0.2-1.3l8.8-11.7C72.9,239,73.5,239,73.9,239.3z"/>
				<path class="st11" d="M74.9,263.1l-0.2,0.2c-0.5,0.3-1.1,0.2-1.4-0.2l-8.7-11.5c-0.3-0.5-0.2-1.1,0.2-1.4l0.2-0.2
					c0.5-0.3,1.1-0.2,1.4,0.2l8.7,11.5C75.4,262.1,75.3,262.7,74.9,263.1z"/>
				<path class="st11" d="M74,250.9l0.2,0.2c0.5,0.3,0.5,1,0.2,1.4L65.7,264c-0.3,0.5-1,0.5-1.4,0.2L64,264c-0.5-0.3-0.5-1-0.2-1.4
					l8.7-11.5C72.9,250.6,73.5,250.5,74,250.9z"/>
				<path class="st11" d="M78.7,270.6h-0.2c-0.5,0-0.8-0.4-0.8-0.8v-5.1c0-0.5,0.4-0.8,0.8-0.8h0.2c0.5,0,0.8,0.4,0.8,0.8v5.1
					C79.6,270.2,79.2,270.6,78.7,270.6z"/>
				<path class="st11" d="M75,270.6h-0.2c-0.5,0-0.8-0.4-0.8-0.8v-6c0-0.5,0.4-0.8,0.8-0.8H75c0.5,0,0.8,0.4,0.8,0.8v6
					C75.8,270.2,75.4,270.6,75,270.6z"/>
				<path class="st11" d="M73.9,264.8h-9.3c-0.5,0-0.9-0.4-0.9-0.9v-0.2c0-0.5,0.4-0.9,0.9-0.9h9.3c0.5,0,0.9,0.4,0.9,0.9v0.2
					C74.9,264.4,74.5,264.8,73.9,264.8z"/>
				<path class="st11" d="M62.7,269.5H81c0.5,0,0.9,0.4,0.9,0.9v0.2c0,0.5-0.4,0.9-0.9,0.9H62.7c-0.5,0-0.9-0.4-0.9-0.9v-0.2
					C61.8,269.9,62.2,269.5,62.7,269.5z"/>
				<path class="st11" d="M62.6,261.8h0.2c0.5,0,1,0.4,1,1v7.7c0,0.5-0.4,1-1,1h-0.2c-0.5,0-1-0.4-1-1v-7.7
					C61.7,262.3,62.1,261.8,62.6,261.8z"/>
				<path class="st11" d="M61.9,177.9h-5c-9.3,0-16.9-7.5-16.9-16.9V130c0-9.3,7.5-16.8,16.8-16.8h0h21.9l0,0V161
					C78.8,170.3,71.2,177.9,61.9,177.9C61.9,177.9,61.9,177.9,61.9,177.9z"/>
				<path class="st13" d="M80.4,132.9c0,2.1-1.7,3.8-3.8,3.8s-3.8-1.7-3.8-3.8s1.7-3.8,3.8-3.8l0,0
					C78.7,129.1,80.4,130.8,80.4,132.9z"/>
				<path class="st14" d="M79,132.9c0,1.3-1,2.3-2.3,2.3s-2.3-1-2.3-2.3c0-1.3,1-2.3,2.3-2.3c0,0,0,0,0,0
					C78,130.6,79,131.6,79,132.9z"/>
				<line class="st9" x1="61.5" y1="108" x2="61.5" y2="108"/>
				<path class="st13" d="M76.2,121.4l0.7,14c0.4,7.8-5.6,14.4-13.4,14.8l0,0c-7.8,0.4-14.4-5.6-14.8-13.4l-0.7-14"/>
				<path class="st15" d="M60.1,129.5h0.3c0.6,0,1.1,0.5,1.1,1.1v2.4c0,0.6-0.5,1.1-1.1,1.1h-0.3c-0.6,0-1.1-0.5-1.1-1.1v-2.4
					C58.9,130,59.4,129.5,60.1,129.5z"/>
				<path class="st15" d="M70.5,129.5h0.3c0.6,0,1.1,0.5,1.1,1.1v2.4c0,0.6-0.5,1.1-1.1,1.1h-0.3c-0.6,0-1.1-0.5-1.1-1.1v-2.4
					C69.4,130,69.9,129.5,70.5,129.5z"/>
				<path class="st20" d="M62,163.1L62,163.1c0.1,0,0.2,0.1,0.2,0.1v0c0,0.1-0.1,0.1-0.1,0.1h0c-0.1,0-0.1-0.1-0.1-0.1v0
					C61.8,163.2,61.9,163.1,62,163.1z"/>
				<rect x="45.9" y="124" class="st11" width="5.7" height="5.7"/>
				<path class="st13" d="M53.5,132.3c0,2.1-1.7,3.8-3.8,3.8s-3.8-1.7-3.8-3.8c0-2.1,1.7-3.8,3.8-3.8c0,0,0,0,0,0
					C51.8,128.5,53.5,130.2,53.5,132.3z"/>
				<path class="st14" d="M52,132.3c0,1.3-1,2.3-2.3,2.3c-1.3,0-2.3-1-2.3-2.3c0-1.3,1-2.3,2.3-2.3c0,0,0,0,0,0
					C51,130,52,131,52,132.3z"/>
				<path class="st14" d="M66.1,135.8c0.6,0,1.1,0.5,1.1,1.1H65C65,136.3,65.5,135.8,66.1,135.8C66.1,135.8,66.1,135.8,66.1,135.8z"
					/>
				<path class="st13" d="M73.1,155.9c-3.1-2.5-7-3.8-11.1-3.8l0,0c-3.6,0-7.2,1.1-10.2,3.2l19.7,11L73.1,155.9z"/>
				<path class="st21" d="M73.1,155.9l-8,5.9l-13.3-6.5c-4.8,3.3-7.7,8.9-7.7,14.8v78.4h35.9V170C79.9,164.5,77.4,159.3,73.1,155.9z
					"/>
				<path class="st12" d="M94.1,193.4c-0.6-2.7-3.2-4.4-5.9-3.9c-2.1,0.4-4.2,0.5-6.3,0.2c-0.3,3.7-0.5,7.3-0.6,10
					c1,0.1,2,0.2,3,0.2c2,0,4-0.2,5.9-0.6C92.8,198.6,94.6,196,94.1,193.4z"/>
				<path class="st21" d="M59.6,165.7c-1.1-2.5-4-3.8-6.5-2.7c-2.3,0.9-3.5,3.4-2.9,5.8c2.1,6,5.2,11.7,9,16.8
					c6.3,8.4,13.9,13.1,22.2,14c0.1-2.8,0.3-6.3,0.6-10C67,187.4,59.7,166,59.6,165.7z"/>
				<path class="st13" d="M62.3,143.1h0.8c1.6,0,3,1.3,3,3v6.9c0,1.6-1.3,3-3,3h-0.8c-1.6,0-3-1.3-3-3v-6.9
					C59.4,144.5,60.7,143.1,62.3,143.1z"/>
				<rect x="47.4" y="119.5" class="st11" width="29.6" height="5.6"/>
				<path class="st11" d="M61.6,129.4l-4.6-0.8c-0.5-0.1-0.9-0.6-0.8-1.1c0,0,0,0,0,0l0,0c0.1-0.5,0.6-0.9,1.1-0.8c0,0,0,0,0,0
					l4.6,0.8c0.5,0.1,0.9,0.6,0.8,1.1c0,0,0,0,0,0l0,0C62.7,129.1,62.1,129.5,61.6,129.4C61.6,129.4,61.6,129.4,61.6,129.4z"/>
				<path class="st11" d="M68.6,129.4l4.6-0.8c0.5-0.1,0.9-0.6,0.9-1.1c0,0,0,0,0-0.1l0,0c-0.1-0.5-0.6-0.9-1.1-0.8c0,0,0,0,0,0
					l-4.6,0.8c-0.5,0.1-0.9,0.6-0.8,1.2c0,0,0,0,0,0l0,0C67.5,129.1,68,129.4,68.6,129.4z"/>
				<path class="st14" d="M69.4,141.4c-0.1,0-0.3-0.1-0.3-0.1c-2.1-2.1-8.2-1.7-8.3-1.7c-0.3,0-0.5-0.2-0.5-0.4c0,0,0,0,0,0
					c0-0.3,0.2-0.5,0.4-0.5c0,0,0,0,0,0c0.3,0,6.6-0.5,9.1,2c0.2,0.2,0.2,0.5,0,0.7c0,0,0,0,0,0C69.6,141.4,69.5,141.5,69.4,141.4z"
					/>
				<path class="st21" d="M44.1,226c0,0,1.1,27.6-3.9,32.6c0,0,28.6,9,42,1c0,0-3.3-28.8-2.2-39.6L44.1,226z"/>
				<polygon class="st15" points="169.6,190.1 167,184.7 147.1,194.9 149.6,200.3 				"/>
				<polygon class="st18" points="158.6,199.6 152.9,187.8 150.8,188.9 156.4,200.7 				"/>
				<polygon class="st19" points="61.3,242 69.9,234.2 152.4,192.2 155,197.5 72.5,239.6 				"/>
				<path class="st19" d="M173.9,112.9h0.9c1.9,0,3.5,1.6,3.5,3.5v21.1c0,1.9-1.6,3.5-3.5,3.5h-0.9c-1.9,0-3.5-1.6-3.5-3.5v-21.1
					C170.4,114.4,172,112.9,173.9,112.9z"/>
				<path class="st13" d="M184.1,255.5l0.8-0.9c0.4-0.5,1-0.9,1.7-1l3.9-0.8v-44.5c-0.1-2.9,2.2-5.4,5.1-5.6s5.4,2.2,5.6,5.1
					c0,0.2,0,0.3,0,0.5v43.4c0.8,0.6,1.3,1.5,1.2,2.5v3.5c0,1.8-1.4,3.2-3.2,3.2l0,0h-12.7c-1.8,0-3.2-1.4-3.2-3.2
					C183.3,256.8,183.6,256,184.1,255.5z"/>
				<path class="st11" d="M191.2,227.8h9.8c0.5,0,0.9,0.4,0.9,0.9v0.2c0,0.5-0.4,0.9-0.9,0.9h-9.8c-0.5,0-0.9-0.4-0.9-0.9v-0.2
					C190.3,228.2,190.7,227.8,191.2,227.8z"/>
				<path class="st11" d="M201,229l0.2,0.2c0.5,0.3,0.5,1,0.2,1.4l-8.7,11.5c-0.3,0.5-1,0.5-1.4,0.2l-0.2-0.2
					c-0.5-0.3-0.5-1-0.2-1.4l8.7-11.5C199.9,228.7,200.5,228.7,201,229z"/>
				<path class="st11" d="M201.3,242.1l-0.2,0.1c-0.4,0.3-1,0.2-1.3-0.2l-8.8-11.7c-0.3-0.4-0.2-1,0.2-1.3l0.2-0.1
					c0.4-0.3,1-0.2,1.3,0.2l8.8,11.7C201.8,241.2,201.7,241.8,201.3,242.1z"/>
				<path class="st11" d="M202.4,240.5l0.2,0.2c0.5,0.3,0.5,1,0.2,1.4l-8.7,11.5c-0.3,0.5-1,0.5-1.4,0.2l-0.2-0.2
					c-0.5-0.3-0.5-1-0.2-1.4l8.7-11.5C201.3,240.2,202,240.1,202.4,240.5z"/>
				<path class="st11" d="M201.2,253.7l-0.2,0.2c-0.5,0.3-1.1,0.3-1.4-0.2l-8.7-11.5c-0.3-0.5-0.3-1.1,0.2-1.4l0.2-0.2
					c0.5-0.3,1.1-0.3,1.4,0.2l8.7,11.5C201.7,252.7,201.6,253.3,201.2,253.7z"/>
				<path class="st11" d="M186.5,253.4h0.2c0.5,0,0.8,0.4,0.8,0.8v5.1c0,0.5-0.4,0.8-0.8,0.8h-0.2c-0.5,0-0.8-0.4-0.8-0.8v-5.1
					C185.6,253.8,186,253.4,186.5,253.4z"/>
				<path class="st11" d="M190.2,252.6h0.2c0.5,0,0.8,0.4,0.8,0.8v6c0,0.5-0.4,0.8-0.8,0.8h-0.2c-0.5,0-0.8-0.4-0.8-0.8v-6
					C189.4,253,189.7,252.6,190.2,252.6z"/>
				<path class="st11" d="M191.2,252.4h9.3c0.5,0,0.9,0.4,0.9,0.9v0.2c0,0.5-0.4,0.9-0.9,0.9h-9.3c-0.5,0-0.9-0.4-0.9-0.9v-0.2
					C190.3,252.8,190.7,252.4,191.2,252.4z"/>
				<path class="st11" d="M202.5,261.1h-18.4c-0.5,0-0.9-0.4-0.9-0.9V260c0-0.5,0.4-0.9,0.9-0.9h18.4c0.5,0,0.9,0.4,0.9,0.9v0.2
					C203.4,260.7,203,261.1,202.5,261.1z"/>
				<path class="st11" d="M202.6,261.1h-0.2c-0.5,0-1-0.4-1-1v-7.7c0-0.5,0.4-1,1-1h0.2c0.5,0,1,0.4,1,1v7.7
					C203.5,260.7,203.1,261.1,202.6,261.1z"/>
				<path class="st13" d="M169.6,258.1l0.8-0.9c0.4-0.5,1-0.9,1.7-1l3.9-0.8c0-0.1,0-0.1,0-0.2v-44.4c0-2.9,2.4-5.3,5.3-5.3
					c2.9,0,5.3,2.4,5.3,5.3v43.4c0.8,0.6,1.2,1.5,1.2,2.5v3.5c0,1.8-1.4,3.2-3.2,3.2c0,0,0,0,0,0H172c-1.8,0-3.2-1.4-3.2-3.2
					C168.8,259.5,169.1,258.7,169.6,258.1z"/>
				<path class="st11" d="M176.7,230.5h9.8c0.5,0,0.9,0.4,0.9,0.9v0.2c0,0.5-0.4,0.9-0.9,0.9h-9.8c-0.5,0-0.9-0.4-0.9-0.9v-0.2
					C175.8,230.9,176.2,230.5,176.7,230.5z"/>
				<path class="st11" d="M186.5,231.6l0.2,0.2c0.5,0.3,0.5,1,0.2,1.4l-8.7,11.5c-0.3,0.5-1,0.5-1.4,0.2l-0.2-0.2
					c-0.5-0.3-0.5-1-0.2-1.4l8.7-11.5C185.4,231.4,186,231.3,186.5,231.6z"/>
				<path class="st11" d="M186.8,244.7l-0.2,0.1c-0.4,0.3-1,0.2-1.3-0.2l-8.8-11.7c-0.3-0.4-0.2-1,0.2-1.3l0.2-0.1
					c0.4-0.3,1-0.2,1.3,0.2l8.8,11.7C187.2,243.8,187.2,244.4,186.8,244.7z"/>
				<path class="st11" d="M186.5,243.2l0.2,0.2c0.5,0.3,0.5,1,0.2,1.4l-8.7,11.5c-0.3,0.5-1,0.5-1.4,0.2l-0.2-0.2
					c-0.5-0.3-0.5-1-0.2-1.4l8.7-11.5C185.4,242.9,186,242.8,186.5,243.2z"/>
				<path class="st11" d="M186.7,256.3l-0.2,0.2c-0.5,0.3-1.1,0.3-1.4-0.2l-8.7-11.5c-0.3-0.5-0.3-1.1,0.2-1.4l0.2-0.2
					c0.5-0.3,1.1-0.3,1.4,0.2l8.7,11.5C187.2,255.3,187.1,256,186.7,256.3z"/>
				<path class="st11" d="M172,256.1h0.2c0.5,0,0.8,0.4,0.8,0.8v5.1c0,0.5-0.4,0.8-0.8,0.8H172c-0.5,0-0.8-0.4-0.8-0.8v-5.1
					C171.1,256.5,171.5,256.1,172,256.1z"/>
				<path class="st11" d="M175.7,255.2h0.2c0.5,0,0.8,0.4,0.8,0.8v6c0,0.5-0.4,0.8-0.8,0.8h-0.2c-0.5,0-0.8-0.4-0.8-0.8v-6
					C174.9,255.6,175.2,255.2,175.7,255.2z"/>
				<path class="st11" d="M176.7,255.1h9.3c0.5,0,0.9,0.4,0.9,0.9v0.2c0,0.5-0.4,0.9-0.9,0.9h-9.3c-0.5,0-0.9-0.4-0.9-0.9V256
					C175.8,255.5,176.2,255.1,176.7,255.1z"/>
				<path class="st11" d="M188,263.8h-18.4c-0.5,0-0.9-0.4-0.9-0.9v-0.2c0-0.5,0.4-0.9,0.9-0.9H188c0.5,0,0.9,0.4,0.9,0.9v0.2
					C188.9,263.4,188.5,263.8,188,263.8z"/>
				<path class="st11" d="M188,263.8h-0.2c-0.5,0-1-0.4-1-1v-7.7c0-0.5,0.4-1,1-1h0.2c0.5,0,1,0.4,1,1v7.7
					C189,263.3,188.6,263.8,188,263.8z"/>
				<path class="st13" d="M188.8,144l-3.3-0.2c-7.1-0.4-12.5-6.4-12.2-13.4l0.9-17.6c0.4-7.1,6.4-12.5,13.4-12.2l3.3,0.2
					c7.1,0.4,12.5,6.4,12.2,13.4l-0.9,17.6C201.9,138.9,195.8,144.3,188.8,144z"/>
				<path class="st15" d="M190.3,128.9H190c-0.6,0-1.1-0.5-1.1-1.1v-2.4c0-0.6,0.5-1.1,1.1-1.1h0.3c0.6,0,1.1,0.5,1.1,1.1v2.4
					C191.4,128.4,190.9,128.9,190.3,128.9z"/>
				<path class="st15" d="M179.8,128.9h-0.3c-0.6,0-1.1-0.5-1.1-1.1v-2.4c0-0.6,0.5-1.1,1.1-1.1h0.3c0.6,0,1.1,0.5,1.1,1.1v2.4
					C180.9,128.4,180.4,128.9,179.8,128.9z"/>
				<path class="st20" d="M188.4,157.1L188.4,157.1c-0.1,0-0.2-0.1-0.2-0.1v0c0-0.1,0.1-0.1,0.1-0.1h0c0.1,0,0.1,0.1,0.1,0.1v0
					C188.5,157,188.4,157.1,188.4,157.1z"/>
				<path class="st14" d="M184.2,129.4c-0.6,0-1.1,0.5-1.1,1.1h2.1C185.3,129.9,184.8,129.5,184.2,129.4z"/>
				<path class="st19" d="M198.6,148.9c-3-2.1-6.6-3.2-10.2-3.2l0,0c-9.9,0-17.9,8-17.9,17.9v49.7h35.9v-49.7
					C206.3,157.8,203.4,152.3,198.6,148.9z"/>
				<path class="st12" d="M156.3,187c0.6-2.7,3.2-4.4,5.9-3.9c2.1,0.4,4.2,0.5,6.3,0.2c0.3,3.7,0.5,7.3,0.6,10c-1,0.1-2,0.2-3,0.2
					c-2,0-4-0.2-5.9-0.6C157.5,192.3,155.8,189.7,156.3,187z"/>
				<path class="st12" d="M190.8,159.4c1.1-2.5,4-3.8,6.5-2.7c2.3,0.9,3.5,3.4,2.9,5.8c-2.1,6-5.2,11.7-9,16.8
					c-6.4,8.4-13.9,13.1-22.1,14c-0.1-2.8-0.3-6.3-0.6-10C183.4,181,190.7,159.6,190.8,159.4z"/>
				<path class="st13" d="M188,149.6h-0.7c-1.6,0-3-1.3-3-3v-6.9c0-1.6,1.3-3,3-3h0.7c1.6,0,3,1.3,3,3v6.9
					C191,148.2,189.6,149.6,188,149.6z"/>
				<path class="st19" d="M189.1,96.2h-3.7c-8.3,0-15,5.8-15,12.8v9.8h33.7V109C204.2,101.9,197.4,96.2,189.1,96.2z"/>
				<path class="st13" d="M195.1,126.6c0,2.1,1.7,3.8,3.8,3.8s3.8-1.7,3.8-3.8s-1.7-3.8-3.8-3.8l0,0
					C196.8,122.8,195.1,124.5,195.1,126.6z"/>
				<path class="st18" d="M194.5,163.5l-9.5-1.8c1.1-6.5,6.3-11.2,11.5-10.3s8.7,7,7.6,13.6L194.5,163.5z"/>
				<rect x="170.4" y="202.4" class="st18" width="35.9" height="13.2"/>
				<path class="st22" d="M173.4,131.1h27.1l0,0v3.6c0,6.5-5.3,11.7-11.7,11.7h-3.6c-6.5,0-11.7-5.3-11.7-11.7L173.4,131.1
					L173.4,131.1z"/>
				<polygon class="st22" points="199.9,120.2 173.8,120.2 174,117.1 199.9,117.1 				"/>
				<path class="st13" d="M179.8,132h9.6l0,0v1.5c0,1.9-1.5,3.4-3.4,3.4l0,0h-2.9c-1.9,0-3.4-1.5-3.4-3.4l0,0L179.8,132L179.8,132z"
					/>
				<path class="st14" d="M188,135.2c-0.1,0-0.2,0-0.3-0.1c-2.1-2.1-6.2-0.6-6.2-0.6c-0.2,0.1-0.5,0-0.5-0.3c0,0,0,0,0,0
					c-0.1-0.2,0-0.5,0.3-0.6c0.2-0.1,4.7-1.6,7.1,0.8c0.2,0.2,0.2,0.4,0,0.6c0,0,0,0,0,0C188.2,135.1,188.1,135.2,188,135.2z"/>
				<path class="st19" d="M201.2,113h0.6c1.3,0,2.4,1.1,2.4,2.4v22.5c0,1.3-1.1,2.4-2.4,2.4h-0.6c-1.3,0-2.4-1.1-2.4-2.4v-22.5
					C198.8,114,199.9,113,201.2,113z"/>
				<rect x="181.6" y="111.6" class="st19" width="6" height="17.3"/>
				<path class="st13" d="M72.7,115.2c-3.5,0-6.6-2.8-7.9-6.7c-0.1-0.4-0.5-0.6-0.9-0.4c-0.2,0.1-0.4,0.2-0.4,0.4
					c-1.3,3.9-4.3,6.7-7.9,6.7c-2.4-0.1-4.6-1.2-6-3.2v6c0,2.3,1.5,4.2,3.3,4.2h22.8c1.8,0,3.3-1.9,3.3-4.2v-6.4
					C77.6,113.8,75.3,115.2,72.7,115.2z"/>
				<path class="st14" d="M52.1,120.4h25c1,0,1.8,0.8,1.8,1.8v0.5c0,1-0.8,1.8-1.8,1.8h-25c-1,0-1.8-0.8-1.8-1.8v-0.5
					C50.3,121.2,51.1,120.4,52.1,120.4z"/>
				<path class="st22" d="M180,123.8l-5.1-0.8c-0.3-0.1-0.6-0.4-0.5-0.7l0,0c0.1-0.3,0.4-0.6,0.7-0.5l5.1,0.8
					c0.3,0.1,0.6,0.4,0.5,0.7c0,0,0,0,0,0l0,0C180.6,123.7,180.3,123.9,180,123.8z"/>
				<path class="st22" d="M194,123.1l-5.1,0.7c-0.3,0-0.6-0.2-0.7-0.5l0,0c0-0.3,0.2-0.6,0.5-0.7l5.1-0.7c0.3,0,0.6,0.2,0.7,0.5l0,0
					C194.6,122.7,194.3,123,194,123.1z"/>
				<path class="st19" d="M81.5,98.5l-36-0.4c-2.6,0-4.6-2.1-4.6-4.7l0,0c0-2.6,2.1-4.6,4.7-4.6l36,0.4c2.6,0,4.6,2.1,4.6,4.7l0,0
					C86.2,96.4,84.1,98.5,81.5,98.5z"/>
				<path class="st19" d="M70.6,86.8c-0.1,6.4-5.3,11.5-11.7,11.4s-11.5-5.3-11.4-11.7S52.8,75,59.2,75.1c0,0,0,0,0,0
					C65.6,75.1,70.7,80.4,70.6,86.8C70.6,86.8,70.6,86.8,70.6,86.8z"/>
				<circle class="st19" cx="71.7" cy="90.1" r="8.2"/>
				<path class="st19" d="M108,74.7l-14.8-0.2c-1.1,0-1.9-0.9-1.9-1.9l0,0c0-1.1,0.9-1.9,1.9-1.9l14.8,0.2c1.1,0,1.9,0.9,1.9,1.9
					l0,0C109.9,73.8,109,74.7,108,74.7z"/>
				<path class="st19" d="M103.5,69.9c0,2.6-2.2,4.7-4.8,4.7c-2.6,0-4.7-2.2-4.7-4.8s2.2-4.7,4.8-4.7c0,0,0,0,0,0
					C101.4,65.1,103.5,67.2,103.5,69.9z"/>
				<path class="st19" d="M107.3,71.2c0,1.9-1.5,3.4-3.4,3.4c-1.9,0-3.4-1.5-3.4-3.4c0-1.9,1.5-3.4,3.4-3.4c0,0,0,0,0,0
					C105.9,67.9,107.3,69.4,107.3,71.2z"/>
				<path class="st19" d="M151.5,91.8l22.9-0.3c1.6,0,2.9-1.4,2.9-3l0,0c0-1.6-1.4-2.9-3-2.9l-22.9,0.3c-1.6,0-2.9,1.4-2.9,3l0,0
					C148.6,90.5,149.9,91.8,151.5,91.8z"/>
				<path class="st19" d="M158.5,84.4c0,4.1,3.4,7.3,7.4,7.3c4.1,0,7.3-3.4,7.3-7.4c0-4.1-3.4-7.3-7.4-7.3c0,0,0,0,0,0
					C161.7,77,158.4,80.3,158.5,84.4C158.5,84.4,158.5,84.4,158.5,84.4z"/>
				<path class="st19" d="M152.5,86.6c0,2.9,2.4,5.2,5.3,5.2c2.9,0,5.2-2.4,5.2-5.3c0-2.9-2.4-5.2-5.3-5.2
					C154.8,81.3,152.5,83.6,152.5,86.6C152.5,86.5,152.5,86.5,152.5,86.6z"/>
			</g>
		</g>
	</g>
</g>
</svg>
