<?xml version="1.0" encoding="utf-8"?>
<!-- Generator: Adobe Illustrator 25.2.3, SVG Export Plug-In . SVG Version: 6.00 Build 0)  -->
<svg version="1.1" id="Layer_1" xmlns="http://www.w3.org/2000/svg" xmlns:xlink="http://www.w3.org/1999/xlink" x="0px" y="0px"
	 viewBox="0 0 234.3 380" style="enable-background:new 0 0 234.3 380;" xml:space="preserve">
<style type="text/css">
	.st0{fill:#F4B155;}
	.st1{fill:#FFF0CC;}
	.st2{fill:#231F20;}
	.st3{clip-path:url(#SVGID_2_);}
	.st4{fill:#282B35;}
	.st5{fill:#474952;}
	.st6{fill:#65686F;}
	.st7{fill:#84868C;}
	.st8{fill:#C2C2C5;}
	.st9{fill:#FFFFFF;}
	.st10{fill:#F1F2F2;}
	.st11{fill:#6D4650;}
	.st12{fill:#54323A;}
	.st13{fill:#414042;}
	.st14{fill:#FFD150;}
	.st15{fill:#4A355B;}
	.st16{fill:#47372E;}
	.st17{fill:#2B2B2B;}
	.st18{fill:#F4B055;}
	.st19{fill:#FFD351;}
	.st20{fill:#E4705E;}
	.st21{fill:none;}
	.st22{fill:#363559;}
	.st23{fill:#2F2F4C;}
	.st24{fill:#3D7C89;}
	.st25{fill:#EE915B;}
	.st26{fill:#D6306A;}
	.st27{fill:#5BC4B8;}
	.st28{clip-path:url(#SVGID_4_);}
	.st29{fill:#5C6D83;}
	.st30{fill:#7A5E7D;}
	.st31{fill:#994E76;}
	.st32{fill:#B73F70;}
	.st33{fill:#E6E7E8;}
	.st34{fill:#BCBEC0;}
</style>
<g id="Layer_2_1_">
	<g id="Layer_1-2">
		<path class="st0" d="M234.3,14.4v351.1c-0.1,8.1-6.8,14.6-14.9,14.5c0,0,0,0,0,0H14.9c-8.1,0.1-14.8-6.3-14.9-14.5c0,0,0,0,0,0
			V14.4C0,6.5,6.7,0,14.9,0h204.4C227.6,0,234.3,6.5,234.3,14.4z M221.7,357.2V22.8c0-5.9-4.8-10.8-10.8-10.8H23.3
			c-5.9,0-10.8,4.8-10.8,10.8v334.4c0,6,4.8,10.8,10.8,10.8c0,0,0,0,0,0h187.6C216.9,368,221.7,363.2,221.7,357.2
			C221.7,357.2,221.7,357.2,221.7,357.2z"/>
		<path class="st1" d="M23.3,12h187.6c6,0,10.8,4.8,10.8,10.8v334.4c0,6-4.8,10.8-10.8,10.8H23.3c-6,0-10.8-4.8-10.8-10.8V22.8
			C12.6,16.8,17.4,12,23.3,12z"/>
		<path class="st2" d="M35.1,330.5c-0.1-0.1-0.2-0.3-0.1-0.5v-9.9h-3.2c-0.2,0-0.4,0-0.5-0.1c-0.1-0.1-0.2-0.3-0.1-0.5V319
			c0-0.2,0-0.4,0.1-0.5c0.1-0.1,0.3-0.2,0.5-0.1h8.6c0.2,0,0.4,0,0.5,0.1c0.1,0.1,0.2,0.3,0.2,0.5v0.5c0.1,0.3-0.1,0.6-0.4,0.6
			c-0.1,0-0.2,0-0.2,0h-3.2v9.9c0,0.2,0,0.4-0.2,0.5c-0.1,0.1-0.3,0.2-0.5,0.2h-0.9C35.5,330.7,35.3,330.6,35.1,330.5z"/>
		<path class="st2" d="M42.7,330.5c-0.1-0.1-0.2-0.3-0.2-0.5v-11c0-0.2,0-0.4,0.2-0.5c0.1-0.1,0.3-0.2,0.5-0.2h1
			c0.2,0,0.4,0,0.5,0.2c0.1,0.1,0.2,0.3,0.2,0.5v4.6h5.9V319c0-0.2,0-0.4,0.2-0.5c0.2-0.1,0.3-0.2,0.5-0.2h0.9c0.2,0,0.4,0,0.5,0.2
			c0.1,0.1,0.2,0.3,0.2,0.5v11c0,0.2,0,0.4-0.2,0.5c-0.1,0.1-0.3,0.2-0.5,0.2h-0.9c-0.2,0-0.4,0-0.5-0.2c-0.1-0.1-0.2-0.3-0.2-0.5
			v-4.7h-6v4.7c0,0.3-0.2,0.6-0.5,0.7c-0.1,0-0.1,0-0.2,0h-1C43,330.7,42.8,330.6,42.7,330.5z"/>
		<path class="st2" d="M55.4,330.5c-0.1-0.1-0.2-0.3-0.2-0.5v-11c0-0.2,0-0.4,0.2-0.5c0.1-0.1,0.3-0.2,0.5-0.2h4.7
			c1.2-0.1,2.3,0.3,3.2,1c0.8,0.8,1.2,1.8,1.1,2.9c0,0.8-0.2,1.5-0.6,2.2c-0.4,0.6-1,1.1-1.7,1.3l2,4.5c0,0.1,0,0.1,0,0.2
			c0,0.2-0.1,0.3-0.3,0.3h-1.4c-0.1,0-0.2,0-0.3-0.1c-0.1-0.1-0.2-0.2-0.2-0.3l-1.8-4.3h-2.9v4c0,0.2,0,0.4-0.2,0.5
			c-0.2,0.1-0.3,0.2-0.5,0.2h-1C55.7,330.7,55.5,330.6,55.4,330.5z M60.1,324.3c0.7,0.1,1.3-0.1,1.9-0.5c0.4-0.4,0.6-1,0.6-1.6
			c0-0.6-0.2-1.2-0.5-1.6c-0.5-0.4-1-0.6-1.6-0.5h-2.9v4.2L60.1,324.3z"/>
		<path class="st2" d="M66.8,330.5c-0.1-0.1-0.2-0.3-0.2-0.5v-11c-0.1-0.3,0.1-0.6,0.4-0.7c0.1,0,0.1,0,0.2,0h7.5
			c0.2,0,0.4,0,0.5,0.1c0.1,0.1,0.2,0.3,0.1,0.5v0.5c0,0.2,0,0.4-0.1,0.5c-0.1,0.1-0.3,0.2-0.5,0.1H69v3.5h4.3c0.2,0,0.4,0,0.5,0.1
			c0.1,0.1,0.2,0.3,0.2,0.5v0.5c0.1,0.3-0.1,0.6-0.4,0.7c-0.1,0-0.2,0-0.2,0H69v3.5h5.9c0.2,0,0.4,0,0.5,0.1
			c0.1,0.1,0.2,0.3,0.2,0.5v0.5c0,0.2,0,0.3-0.2,0.5c-0.1,0.1-0.3,0.2-0.5,0.1h-7.5C67.2,330.7,67,330.6,66.8,330.5z"/>
		<path class="st2" d="M77.2,330.5c-0.1-0.1-0.2-0.3-0.2-0.5v-11c0-0.2,0-0.4,0.2-0.5c0.1-0.1,0.3-0.2,0.5-0.2h7.5
			c0.3-0.1,0.6,0.1,0.6,0.4c0,0.1,0,0.2,0,0.2v0.5c0,0.2,0,0.4-0.1,0.5c-0.1,0.1-0.3,0.2-0.5,0.1h-5.9v3.5h4.3
			c0.3-0.1,0.6,0.1,0.6,0.4c0,0.1,0,0.1,0,0.2v0.5c0,0.2,0,0.4-0.2,0.5c-0.1,0.1-0.3,0.2-0.5,0.1h-4.3v3.5h5.9c0.2,0,0.4,0,0.5,0.1
			c0.1,0.1,0.2,0.3,0.1,0.5v0.5c0,0.2,0,0.3-0.1,0.5c-0.1,0.1-0.3,0.2-0.5,0.1h-7.5C77.6,330.7,77.4,330.6,77.2,330.5z"/>
		<path class="st2" d="M95.8,329.3c-2.1-2.8-2.1-6.7,0-9.5c2.6-2.2,6.5-2.2,9.2,0c2.1,2.8,2.1,6.7,0,9.5
			C102.3,331.5,98.5,331.5,95.8,329.3z M103.3,328c1.3-2.1,1.3-4.9,0-7c-0.7-0.8-1.8-1.3-2.9-1.2c-1.1-0.1-2.2,0.4-2.9,1.2
			c-1.3,2.1-1.3,4.9,0,7c0.7,0.8,1.8,1.3,2.9,1.2C101.5,329.3,102.6,328.8,103.3,328z"/>
		<path class="st2" d="M108.5,330.5c-0.1-0.1-0.2-0.3-0.2-0.5v-11c-0.1-0.3,0.1-0.6,0.4-0.7c0.1,0,0.1,0,0.2,0h7.5
			c0.2,0,0.4,0,0.5,0.1c0.1,0.1,0.2,0.3,0.1,0.5v0.5c0,0.2,0,0.4-0.1,0.5c-0.1,0.1-0.3,0.2-0.5,0.1h-5.9v3.5h4.3
			c0.2,0,0.4,0,0.5,0.1c0.1,0.1,0.2,0.3,0.2,0.5v0.5c0,0.2,0,0.4-0.2,0.5c-0.1,0.1-0.3,0.2-0.5,0.1h-4.3v4.6c0,0.3-0.2,0.6-0.5,0.7
			c-0.1,0-0.1,0-0.2,0h-1C108.9,330.7,108.7,330.6,108.5,330.5z"/>
		<path class="st2" d="M127.8,330.7c-0.8-0.2-1.5-0.4-2.1-0.9c-0.2-0.1-0.3-0.2-0.3-0.3c0-0.1,0-0.2,0.1-0.2l0.7-1
			c0.1-0.1,0.2-0.2,0.2-0.2c0.1,0,0.2,0,0.3,0.1c0.5,0.3,1.1,0.5,1.7,0.7c0.6,0.2,1.3,0.3,1.9,0.3c0.7,0,1.4-0.1,2-0.4
			c0.7-0.6,0.9-1.6,0.4-2.4c-0.2-0.3-0.5-0.5-0.8-0.6c-0.5-0.3-1-0.5-1.6-0.7l-0.4-0.2c-0.7-0.3-1.4-0.6-2.1-1
			c-0.5-0.3-1-0.7-1.4-1.2c-0.4-0.5-0.6-1.2-0.6-1.9c0-1.1,0.5-2.1,1.4-2.8c1.1-0.7,2.3-1.1,3.6-1c0.8,0,1.6,0.1,2.3,0.2
			c0.6,0.1,1.2,0.4,1.7,0.8c0.1,0.1,0.2,0.2,0.2,0.3c0,0.1,0,0.2-0.1,0.2l-0.6,1c-0.1,0.1-0.1,0.2-0.2,0.2c-0.1,0-0.2-0.1-0.2-0.1
			c-0.9-0.6-2-0.8-3.1-0.8c-0.7,0-1.3,0.1-1.9,0.5c-0.4,0.3-0.7,0.9-0.6,1.4c0,0.4,0.1,0.7,0.3,1c0.2,0.3,0.5,0.5,0.8,0.6
			c0.3,0.2,0.9,0.4,1.6,0.7l0.5,0.2c0.8,0.3,1.5,0.6,2.2,1c0.5,0.3,0.9,0.7,1.2,1.2c0.3,0.6,0.5,1.2,0.4,1.8
			c0.1,1.1-0.4,2.1-1.3,2.7c-1.1,0.7-2.3,1.1-3.6,1C129.6,331,128.7,330.9,127.8,330.7z"/>
		<path class="st2" d="M140.2,330.6c-0.1-0.1-0.2-0.2-0.2-0.4l-3.1-12.4c0-0.1,0-0.1,0-0.2c0-0.2,0.1-0.3,0.4-0.3h1.6
			c0.1,0,0.3,0,0.4,0.1c0.1,0.1,0.1,0.2,0.2,0.3l2,8.6l2.4-7.6c0-0.1,0.1-0.2,0.2-0.3c0.1-0.1,0.2-0.1,0.4-0.1h0.9
			c0.1,0,0.3,0,0.4,0.1c0.1,0.1,0.1,0.2,0.2,0.3l2.4,7.6l1.9-8.6c0-0.1,0.1-0.2,0.2-0.3c0.1-0.1,0.3-0.1,0.4-0.1h1.6
			c0.2,0,0.4,0.1,0.4,0.3c0,0.1,0,0.1,0,0.2l-3.1,12.4c0,0.1-0.1,0.3-0.2,0.4c-0.1,0.1-0.3,0.1-0.4,0.1h-1.1c-0.3,0-0.6-0.2-0.6-0.5
			l-2.4-7.8l-2.4,7.8c0,0.3-0.3,0.5-0.6,0.5h-1.1C140.6,330.7,140.4,330.7,140.2,330.6z"/>
		<path class="st2" d="M154.6,329.1c-2.3-3-2.3-7.2,0-10.3c2.9-2.4,7.1-2.4,9.9,0c2.3,3,2.3,7.2,0,10.3
			C161.7,331.6,157.5,331.6,154.6,329.1z M162.7,327.8c1.4-2.3,1.4-5.3,0-7.6c-0.8-0.9-1.9-1.4-3.1-1.3c-1.2-0.1-2.4,0.4-3.1,1.3
			c-1.4,2.3-1.4,5.3,0,7.6c0.8,0.9,2,1.4,3.1,1.3C160.8,329.2,161.9,328.7,162.7,327.8L162.7,327.8z"/>
		<path class="st2" d="M168.4,330.5c-0.1-0.1-0.2-0.3-0.2-0.5v-11.9c0-0.2,0-0.4,0.2-0.5c0.1-0.1,0.3-0.2,0.6-0.2h5.1
			c1.2-0.1,2.5,0.3,3.5,1.1c0.8,0.8,1.3,2,1.2,3.1c0,0.8-0.2,1.6-0.6,2.3c-0.5,0.7-1.1,1.2-1.9,1.5l2.2,4.8c0,0.1,0.1,0.1,0.1,0.2
			c0,0.2-0.1,0.3-0.4,0.3h-1.6c-0.1,0-0.3,0-0.4-0.1c-0.1-0.1-0.2-0.2-0.2-0.3l-2-4.6h-3.1v4.3c0,0.2,0,0.4-0.2,0.5
			c-0.2,0.1-0.4,0.2-0.6,0.2h-1C168.7,330.7,168.5,330.7,168.4,330.5z M173.5,323.8c0.7,0.1,1.4-0.1,2-0.5c0.5-0.4,0.7-1.1,0.6-1.7
			c0.1-0.6-0.2-1.3-0.6-1.7c-0.5-0.4-1.1-0.6-1.8-0.5h-3.1v4.5H173.5z"/>
		<path class="st2" d="M180.7,330.5c-0.1-0.1-0.2-0.3-0.2-0.5v-11.9c0-0.2,0-0.4,0.2-0.5c0.2-0.1,0.4-0.2,0.6-0.2h3.9
			c1.8-0.1,3.6,0.4,5.1,1.6c1.2,1.1,1.7,2.7,1.7,5c0,4.4-2.3,6.7-6.8,6.7h-3.9C181.1,330.7,180.9,330.6,180.7,330.5z M185.4,328.8
			c1.1,0.1,2.3-0.3,3.1-1.1c1.4-2.3,1.4-5.1,0-7.4c-0.9-0.8-2-1.2-3.1-1.1h-2.3v9.5H185.4z"/>
		<path class="st2" d="M195.1,330.7c-0.8-0.2-1.5-0.4-2.1-0.9c-0.2-0.1-0.3-0.2-0.3-0.3c0-0.1,0-0.2,0.1-0.2l0.6-1
			c0.1-0.1,0.1-0.2,0.2-0.2c0.1,0,0.2,0,0.3,0.1c0.5,0.3,1.1,0.5,1.7,0.7c0.6,0.2,1.3,0.3,1.9,0.3c0.7,0,1.4-0.1,2-0.4
			c0.5-0.3,0.7-0.9,0.7-1.4c0-0.3-0.1-0.7-0.3-0.9c-0.2-0.3-0.4-0.5-0.7-0.6c-0.5-0.3-1-0.5-1.6-0.7l-0.5-0.2
			c-0.7-0.3-1.4-0.6-2.1-1c-0.5-0.3-1-0.7-1.4-1.2c-0.4-0.5-0.6-1.2-0.6-1.9c-0.1-1.1,0.5-2.1,1.4-2.8c1.1-0.7,2.3-1.1,3.6-1
			c0.8,0,1.6,0.1,2.3,0.2c0.6,0.2,1.2,0.4,1.7,0.8c0.1,0.1,0.2,0.2,0.2,0.3c0,0.1,0,0.2-0.1,0.2l-0.6,1c-0.1,0.1-0.1,0.2-0.2,0.2
			c-0.1,0-0.2-0.1-0.2-0.1c-0.9-0.6-2-0.8-3.1-0.8c-0.7,0-1.3,0.1-1.9,0.5c-0.6,0.6-0.8,1.6-0.4,2.4c0.2,0.3,0.5,0.5,0.8,0.6
			c0.3,0.2,0.9,0.4,1.6,0.7l0.5,0.2c0.8,0.3,1.5,0.6,2.2,1c0.5,0.3,0.9,0.7,1.2,1.2c0.3,0.6,0.5,1.2,0.4,1.8c0,1-0.4,2-1.3,2.6
			c-1.1,0.7-2.3,1.1-3.6,1C196.9,330.9,196,330.9,195.1,330.7z"/>
		<g>
			<defs>
				<path id="SVGID_1_" d="M52.9,43.9h128.6c13.6,0,24.7,11.1,24.7,24.7v191.7c0,13.6-11.1,24.7-24.7,24.7H52.9
					c-13.6,0-24.7-11.1-24.7-24.7V68.6C28.1,55,39.2,43.9,52.9,43.9z"/>
			</defs>
			<clipPath id="SVGID_2_">
				<use xlink:href="#SVGID_1_"  style="overflow:visible;"/>
			</clipPath>
			<g class="st3">
				<polygon class="st4" points="236.1,35.2 23.4,35.2 23.4,190.6 23.4,208.6 23.4,293.7 234.5,293.7 234.5,208.6 236.1,208.6 				
					"/>
				<path class="st5" d="M80.1,109.1l163.2-1.6c4.5,0,8.2,3.6,8.2,8l0.2,20.6c0,4.5-3.6,8.2-8,8.2L80.5,146c-4.5,0-8.2-3.6-8.2-8
					l-0.2-20.6C72,112.9,75.6,109.2,80.1,109.1z"/>
				<circle class="st5" cx="179.9" cy="98.9" r="45.8"/>
				<circle class="st5" cx="129.7" cy="112.7" r="32.6"/>
				<path class="st6" d="M143.4,155.1l-132.3-1.5c-9.4-0.1-17-7.9-16.9-17.3l0,0c0.1-9.4,7.9-17,17.3-16.9l132.3,1.5
					c9.4,0.1,17,7.9,16.9,17.3l0,0C160.5,147.6,152.8,155.1,143.4,155.1z"/>
				<circle class="st6" cx="60.7" cy="111.7" r="42.5"/>
				<path class="st6" d="M137.7,124.7c-0.2,16.7-13.9,30.1-30.6,29.9S77,140.7,77.2,124c0.2-16.7,13.9-30.1,30.6-29.9c0,0,0,0,0,0
					C124.5,94.3,137.9,108,137.7,124.7C137.7,124.7,137.7,124.7,137.7,124.7z"/>
				<path class="st7" d="M102.5,190.5l163-1.9c10-0.1,18-8.4,18-18.4v-4.6c-0.1-10-8.3-18.1-18.4-18l-163,1.9
					c-10,0.1-18.1,8.3-18,18.4v4.6C84.2,182.6,92.5,190.6,102.5,190.5z"/>
				<circle class="st7" cx="203.6" cy="138.5" r="50.9"/>
				<circle class="st7" cx="147.9" cy="153.8" r="36.2"/>
				<path class="st8" d="M113.3,193.7l-175.8-2c-10.7-0.2-19.3-8.9-19.2-19.7l0.1-5.3c0.2-10.7,8.9-19.2,19.6-19.2l175.8,2
					c10.7,0.2,19.3,8.9,19.2,19.7l-0.1,5.3C132.8,185.2,124,193.7,113.3,193.7z"/>
				<circle class="st8" cx="4.3" cy="137.7" r="54.7"/>
				<circle class="st8" cx="64.4" cy="154.1" r="39"/>
				<rect x="14.1" y="128.9" class="st9" width="228.9" height="14.9"/>
				<rect x="23.9" y="142.4" class="st9" width="15.7" height="57.1"/>
				<rect x="61.9" y="142.4" class="st9" width="15.7" height="57.1"/>
				<rect x="99.8" y="142.4" class="st9" width="15.7" height="57.1"/>
				<rect x="137.8" y="142.4" class="st9" width="15.7" height="57.1"/>
				<rect x="175.8" y="142.4" class="st9" width="15.7" height="57.1"/>
				<rect x="213.8" y="142.4" class="st9" width="15.7" height="57.1"/>
				<rect x="61.9" y="143.8" class="st10" width="15.7" height="3.8"/>
				<rect x="137.8" y="143.8" class="st10" width="15.7" height="3.8"/>
				<rect x="175.8" y="143.8" class="st10" width="15.7" height="3.8"/>
				<rect x="213.8" y="143.8" class="st10" width="15.7" height="3.8"/>
				<rect x="23.9" y="143.8" class="st10" width="15.7" height="3.8"/>
				<rect x="99.9" y="143.8" class="st10" width="15.7" height="3.8"/>
				<rect x="22.7" y="188.9" class="st11" width="211.6" height="104.8"/>
				<path class="st12" d="M130.7,236H83.8c-1.9,0-3.5-1.6-3.5-3.5l0,0c0-1.9,1.5-3.5,3.5-3.5c0,0,0,0,0,0h46.9
					c1.9,0,3.5,1.6,3.5,3.5l0,0C134.2,234.4,132.7,236,130.7,236z"/>
				<path class="st13" d="M119.6,119c0,0.4,0,0.8,0,1.2c0,10.1-8.2,18.3-18.3,18.3S83,130.3,83,120.2c0-0.4,0-0.8,0-1.2
					c-5.4,5-8.5,12.1-8.5,19.5l-7.1,94.8l68.2-1.8l-7.6-93C128,131.1,125,124.1,119.6,119z"/>
				<path class="st14" d="M101.3,138.5c10.1,0,18.3-8.2,18.3-18.3l0,0c0-0.4,0-0.8,0-1.2c-4.9-4.7-11.5-7.3-18.3-7.3l0,0
					c-6.8,0-13.4,2.6-18.3,7.3c0,0.4,0,0.8,0,1.2C83.1,130.3,91.3,138.5,101.3,138.5z"/>
				<path class="st14" d="M84,77.2v25.9c0,8.7,7.7,15.8,17.1,15.8l0,0c9.4,0,17.1-7.1,17.1-15.8V77.2H84z"/>
				<path class="st15" d="M93.6,89.1h1.1c0.6,0,1.1,0.5,1.1,1.1v4c0,0.6-0.5,1.1-1.1,1.1h-1.1c-0.6,0-1.1-0.5-1.1-1.1v-4
					C92.4,89.6,92.9,89.1,93.6,89.1z"/>
				<path class="st15" d="M107.6,89.1h1.1c0.6,0,1.1,0.5,1.1,1.1v4c0,0.6-0.5,1.1-1.1,1.1h-1.1c-0.6,0-1.1-0.5-1.1-1.1v-4
					C106.5,89.6,107,89.1,107.6,89.1z"/>
				<path class="st16" d="M101,129.7c0,0.1,0.1,0.2,0.2,0.2l0,0c0.1,0,0.2-0.1,0.2-0.2l0,0l0,0c0-0.1-0.1-0.2-0.2-0.2c0,0,0,0,0,0
					l0,0"/>
				<path class="st17" d="M112.6,88l-6.4,0.3c-0.5,0-0.8-0.3-0.9-0.8l0-0.8c0-0.5,0.3-0.8,0.8-0.9l6.4-0.3c0.5,0,0.8,0.3,0.9,0.8
					l0,0.8C113.4,87.6,113.1,88,112.6,88z"/>
				<path class="st17" d="M89.8,85.5l6.4,0.3c0.5,0,0.8,0.4,0.8,0.9l0,0.8c0,0.5-0.4,0.8-0.9,0.8L89.7,88c-0.5,0-0.8-0.4-0.8-0.9
					l0-0.8C89,85.8,89.4,85.5,89.8,85.5z"/>
				<path class="st18" d="M99.7,86.7h1.8c1,0,1.8,0.8,1.8,1.8V99c0,1-0.8,1.8-1.8,1.8h-1.8c-1,0-1.8-0.8-1.8-1.8V88.5
					C98,87.5,98.7,86.7,99.7,86.7z"/>
				<path class="st14" d="M96.9,101.8h7.8c0.6,0,1.1,0.5,1.1,1.1v0.4c0,0.6-0.5,1.1-1.1,1.1h-7.8c-0.6,0-1.1-0.5-1.1-1.1v-0.4
					C95.8,102.3,96.3,101.8,96.9,101.8z"/>
				<path class="st17" d="M98.7,101.8h4.9c4.3,0,7.8,3.5,7.8,7.8v9.9c0,4.3-3.5,7.8-7.8,7.8h-4.9c-4.3,0-7.8-3.5-7.8-7.8v-9.9
					C90.9,105.3,94.4,101.8,98.7,101.8z"/>
				<rect x="116.2" y="74.4" class="st17" width="4.6" height="28"/>
				<path class="st17" d="M101.3,121.8v-4.6c8.2,0,14.8-6.6,14.8-14.8h4.6C120.8,113.1,112.1,121.8,101.3,121.8z"/>
				<path class="st17" d="M101.3,121.8c-10.7,0-19.4-8.7-19.4-19.4h4.6c0,8.2,6.6,14.8,14.8,14.8V121.8z"/>
				<rect x="81.9" y="74.4" class="st17" width="4.6" height="28"/>
				<path class="st14" d="M103.5,108.5c0.9,0,1.7-0.8,1.7-1.7c0-0.4-0.1-0.7-0.3-1c-1.5-1.9-4.2-2.3-6.2-0.8
					c-0.3,0.2-0.6,0.5-0.8,0.8c-0.6,0.7-0.4,1.8,0.3,2.4c0.3,0.2,0.7,0.3,1,0.3H103.5z"/>
				<path class="st17" d="M85.5,98.6c0,0,2.2,7.1,8.2,8.2l-2.4,7.7l-6.1-8.9L85.5,98.6z"/>
				<path class="st17" d="M117.1,98.6c0,0-2.2,7.1-8.2,8.2l2.4,7.7l6.1-8.9L117.1,98.6z"/>
				<path class="st17" d="M101.4,64.3L101.4,64.3z"/>
				<path class="st17" d="M117.4,74.5h3.4c0,0-1.4-10.2-19.3-10.2S81.9,74.5,81.9,74.5h3.3v1.6h-2.8v9.6c18.6-4.7,18.4-6.5,18.4-6.5
					c8.5,6.1,19.7,6.5,19.7,6.5v-9.6h-3L117.4,74.5z"/>
				<path class="st19" d="M99.7,166.4L99.7,166.4l-30.6-0.1c-7.8,0-14.1-6.4-14.1-14.1c0-2.7,0.8-5.3,2.2-7.6l12.2-18.8
					c1.8-2.8,5.6-3.7,8.5-1.8s3.7,5.6,1.8,8.5l-12.2,18.8c-0.5,0.9-0.2,2,0.6,2.5c0.3,0.2,0.6,0.3,0.9,0.3l30.6,0.1
					c3.4,0,6.1,2.8,6.1,6.1C105.9,163.7,103.1,166.4,99.7,166.4L99.7,166.4z"/>
				<circle class="st19" cx="69.8" cy="128.6" r="13.5"/>
				<path class="st19" d="M103.3,166.4c-3.4,0-6.1-2.8-6.1-6.1c0-3.4,2.7-6.1,6.1-6.1l30.5-0.1c0.7,0,1.3-0.3,1.6-0.9
					c0.3-0.6,0.3-1.3-0.1-1.9l-12.2-18.8c-1.8-2.8-1-6.7,1.8-8.5c2.8-1.8,6.7-1,8.5,1.8l12.2,18.8c4.2,6.5,2.3,15.3-4.2,19.5
					c-2.3,1.5-4.9,2.2-7.6,2.2L103.3,166.4L103.3,166.4z"/>
				<path class="st19" d="M146.5,128.6c0-7.4-6-13.4-13.4-13.4c-7.4,0-13.4,6-13.4,13.4c0,7.4,6,13.4,13.4,13.4
					C140.5,142.1,146.5,136.1,146.5,128.6L146.5,128.6z"/>
				<path class="st14" d="M186.4,227.1l0.9-1c0.5-0.5,1.1-0.9,1.9-1.1l4.2-0.9c0-0.1,0-0.1,0-0.2v-30.5c0-3.2,2.6-5.8,5.8-5.8
					c3.2,0,5.8,2.6,5.8,5.8v29.5c0.9,0.7,1.4,1.7,1.4,2.8v3.8c0,1.9-1.5,3.5-3.5,3.5c0,0,0,0,0,0H189c-1.9,0-3.5-1.5-3.5-3.5
					C185.5,228.6,185.8,227.8,186.4,227.1z"/>
				<path class="st20" d="M193.9,197h11c0.4,0,0.8,0.4,0.8,0.8v0.6c0,0.4-0.4,0.8-0.8,0.8h-11c-0.4,0-0.8-0.4-0.8-0.8v-0.6
					C193.1,197.4,193.5,197,193.9,197z"/>
				<path class="st20" d="M204.6,198.2l0.6,0.4c0.4,0.3,0.5,0.9,0.2,1.3l-9.7,12.9c-0.3,0.4-0.9,0.5-1.3,0.2l-0.6-0.4
					c-0.4-0.3-0.5-0.9-0.2-1.3l9.7-12.9C203.6,197.9,204.2,197.9,204.6,198.2z"/>
				<path class="st20" d="M205.2,212.4l-0.5,0.4c-0.4,0.3-0.9,0.2-1.1-0.2l-9.8-13c-0.3-0.4-0.2-0.9,0.2-1.1l0.5-0.4
					c0.4-0.3,0.9-0.2,1.1,0.2l9.8,13C205.6,211.6,205.5,212.2,205.2,212.4z"/>
				<path class="st20" d="M204.5,210.7l0.6,0.4c0.4,0.3,0.5,0.9,0.2,1.3l-9.7,12.9c-0.3,0.4-0.9,0.5-1.3,0.2l-0.6-0.4
					c-0.4-0.3-0.5-0.9-0.2-1.3l9.7-12.9C203.5,210.5,204.1,210.4,204.5,210.7z"/>
				<path class="st20" d="M205.1,225l-0.6,0.4c-0.4,0.3-1,0.2-1.3-0.2l-9.7-12.9c-0.3-0.4-0.2-1,0.2-1.3l0.6-0.4
					c0.4-0.3,1-0.2,1.3,0.2l9.7,12.9C205.6,224.2,205.5,224.7,205.1,225z"/>
				<path class="st20" d="M188.8,224.9h0.6c0.4,0,0.8,0.3,0.8,0.8v5.9c0,0.4-0.3,0.8-0.8,0.8h-0.6c-0.4,0-0.8-0.3-0.8-0.8v-5.9
					C188,225.3,188.3,224.9,188.8,224.9z"/>
				<path class="st20" d="M192.8,224h0.6c0.4,0,0.8,0.3,0.8,0.8v6.8c0,0.4-0.3,0.8-0.8,0.8h-0.6c-0.4,0-0.8-0.3-0.8-0.8v-6.8
					C192.1,224.3,192.4,224,192.8,224z"/>
				<path class="st20" d="M193.9,223.8h10.5c0.4,0,0.8,0.4,0.8,0.8v0.6c0,0.4-0.4,0.8-0.8,0.8h-10.5c-0.4,0-0.8-0.4-0.8-0.8v-0.6
					C193.1,224.2,193.5,223.8,193.9,223.8z"/>
				<path class="st20" d="M206.6,233.3h-20.3c-0.4,0-0.8-0.3-0.8-0.8v-0.6c0-0.4,0.3-0.8,0.8-0.8h20.3c0.4,0,0.8,0.3,0.8,0.8v0.6
					C207.4,232.9,207,233.3,206.6,233.3z"/>
				<path class="st20" d="M206.6,233.3H206c-0.5,0-0.9-0.4-0.9-0.9v-8.8c0-0.5,0.4-0.9,0.9-0.9h0.7c0.5,0,0.9,0.4,0.9,0.9v8.8
					C207.5,232.9,207.1,233.3,206.6,233.3z"/>
				<path class="st14" d="M168.6,229.7l0.9-1c0.5-0.5,1.1-0.9,1.8-1.1l4.2-0.9c0-0.1,0-0.1,0-0.2V196c-0.1-3.2,2.4-5.9,5.6-6.1
					c3.2-0.1,5.9,2.4,6.1,5.6c0,0.2,0,0.3,0,0.5v29.5c0.9,0.7,1.4,1.7,1.4,2.8v3.8c0,1.9-1.6,3.5-3.5,3.5h-13.9
					c-1.9,0-3.5-1.6-3.5-3.5C167.7,231.1,168,230.3,168.6,229.7z"/>
				<path class="st20" d="M176.1,199.6h11c0.4,0,0.8,0.4,0.8,0.8v0.6c0,0.4-0.4,0.8-0.8,0.8h-11c-0.4,0-0.8-0.4-0.8-0.8v-0.6
					C175.3,199.9,175.6,199.6,176.1,199.6z"/>
				<path class="st20" d="M186.7,200.7l0.6,0.4c0.4,0.3,0.5,0.9,0.2,1.3l-9.7,12.9c-0.3,0.4-0.9,0.5-1.3,0.2l-0.6-0.4
					c-0.4-0.3-0.5-0.9-0.2-1.3l9.7-12.9C185.7,200.5,186.3,200.4,186.7,200.7z"/>
				<path class="st20" d="M187.4,215l-0.5,0.4c-0.4,0.3-0.9,0.2-1.1-0.2l-9.8-13c-0.3-0.4-0.2-0.9,0.2-1.1l0.5-0.4
					c0.4-0.3,0.9-0.2,1.1,0.2l9.8,13C187.8,214.2,187.7,214.7,187.4,215z"/>
				<path class="st20" d="M186.7,213.3l0.6,0.4c0.4,0.3,0.5,0.9,0.2,1.3l-9.7,12.9c-0.3,0.4-0.9,0.5-1.3,0.2l-0.6-0.4
					c-0.4-0.3-0.5-0.9-0.2-1.3l9.7-12.9C185.7,213.1,186.3,213,186.7,213.3z"/>
				<path class="st20" d="M187.3,227.6l-0.6,0.4c-0.4,0.3-1,0.2-1.3-0.2l-9.7-12.9c-0.3-0.4-0.2-1,0.2-1.3l0.6-0.4
					c0.4-0.3,1-0.2,1.3,0.2l9.7,12.9C187.8,226.7,187.7,227.3,187.3,227.6z"/>
				<path class="st20" d="M170.9,227.5h0.6c0.4,0,0.8,0.3,0.8,0.8v5.9c0,0.4-0.3,0.8-0.8,0.8h-0.6c-0.4,0-0.8-0.3-0.8-0.8v-5.9
					C170.2,227.8,170.5,227.5,170.9,227.5z"/>
				<path class="st20" d="M175,226.5h0.6c0.4,0,0.8,0.3,0.8,0.8v6.8c0,0.4-0.3,0.8-0.8,0.8H175c-0.4,0-0.8-0.3-0.8-0.8v-6.8
					C174.2,226.9,174.6,226.5,175,226.5z"/>
				<path class="st20" d="M176.1,226.4h10.5c0.4,0,0.8,0.4,0.8,0.8v0.6c0,0.4-0.4,0.8-0.8,0.8h-10.5c-0.4,0-0.8-0.4-0.8-0.8v-0.6
					C175.3,226.7,175.6,226.4,176.1,226.4z"/>
				<path class="st20" d="M188.8,235.8h-20.3c-0.4,0-0.8-0.3-0.8-0.8v-0.6c0-0.4,0.3-0.8,0.8-0.8h20.3c0.4,0,0.8,0.3,0.8,0.8v0.6
					C189.5,235.5,189.2,235.8,188.8,235.8z"/>
				<path class="st20" d="M188.8,235.8h-0.7c-0.5,0-0.9-0.4-0.9-0.9v-8.8c0-0.5,0.4-0.9,0.9-0.9h0.7c0.5,0,0.9,0.4,0.9,0.9v8.8
					C189.7,235.5,189.3,235.8,188.8,235.8z"/>
				<path class="st20" d="M171.1,63.3h27c8.4,0,15.2,6.8,15.2,15.2c0,0,0,0,0,0v40.2c0,8.4-6.8,15.2-15.2,15.2h-11.8
					c-8.4,0-15.2-6.8-15.2-15.2L171.1,63.3L171.1,63.3z"/>
				<path class="st14" d="M169.2,84.8c0,2.3,1.8,4.1,4.1,4.1c2.3,0,4.1-1.8,4.1-4.1s-1.8-4.1-4.1-4.1l0,0
					C171.1,80.7,169.2,82.6,169.2,84.8z"/>
				<path class="st18" d="M170.8,84.8c0,1.4,1.1,2.5,2.5,2.5c1.4,0,2.5-1.1,2.5-2.5c0-1.4-1.1-2.5-2.5-2.5l0,0
					C172,82.3,170.8,83.5,170.8,84.8z"/>
				<line class="st21" x1="200.3" y1="25.4" x2="200.3" y2="25.4"/>
				<path class="st14" d="M173.8,72.4L173,87.7c-0.4,8.5,6.1,15.7,14.6,16.1l0,0c8.5,0.4,15.7-6.1,16.1-14.6l0.8-15.3"/>
				<path class="st15" d="M191.7,86.3h-0.8c-0.5,0-1-0.4-1-1v-3.1c0-0.5,0.4-1,1-1h0.8c0.5,0,1,0.4,1,1v3.1
					C192.7,85.8,192.2,86.3,191.7,86.3z"/>
				<path class="st15" d="M180.2,86.3h-0.8c-0.5,0-1-0.4-1-1v-3.1c0-0.5,0.4-1,1-1h0.8c0.5,0,1,0.4,1,1v3.1
					C181.2,85.8,180.8,86.3,180.2,86.3z"/>
				<path class="st16" d="M189.4,118.1h-0.1c-0.1,0-0.1-0.1-0.1-0.1v-0.1c0-0.1,0.1-0.1,0.1-0.1h0.1c0.1,0,0.1,0.1,0.1,0.1v0.1
					C189.5,118.1,189.4,118.1,189.4,118.1z"/>
				<rect x="200.7" y="75.2" class="st20" width="6.2" height="6.2"/>
				<path class="st14" d="M198.6,84.2c0,2.3,1.8,4.1,4.1,4.1c2.3,0,4.1-1.8,4.1-4.1s-1.8-4.1-4.1-4.1l0,0
					C200.5,80.1,198.6,82,198.6,84.2z"/>
				<path class="st18" d="M200.2,84.2c0,1.4,1.1,2.5,2.5,2.5c1.4,0,2.5-1.1,2.5-2.5c0-1.4-1.1-2.5-2.5-2.5l0,0
					C201.4,81.7,200.2,82.9,200.2,84.2z"/>
				<path class="st18" d="M184.8,88.1c-0.6,0-1.1,0.5-1.1,1.2h2.3C186,88.6,185.5,88,184.8,88.1C184.8,88,184.8,88,184.8,88.1z"/>
				<path class="st14" d="M177.3,110c3.4-2.7,7.6-4.2,12-4.2l0,0c4,0,7.8,1.2,11.1,3.5L179,121.2L177.3,110z"/>
				<path class="st22" d="M177.3,110l8.7,6.4l14.4-7.1c5.3,3.6,8.4,9.7,8.4,16.1l4.5,89.9l-50.1,2.1l6.6-92
					C169.8,119.3,172.6,113.7,177.3,110z"/>
				<path class="st19" d="M154.9,161.1c0.1-3.4,2.8-6,6.2-6c2.6,0,5.2-0.4,7.6-1.2c1.2,4.4,2.3,8.6,3,11.9c-1.2,0.4-2.4,0.7-3.6,0.9
					c-2.4,0.5-4.8,0.7-7.3,0.6C157.6,167.3,154.9,164.5,154.9,161.1z"/>
				<path class="st23" d="M190,119.9c0.3-3.4,3.3-5.8,6.6-5.5s5.8,3.3,5.5,6.6c0,0.2,0,0.3-0.1,0.5c-1.2,7.7-3.5,15.3-6.9,22.3
					c-5.7,11.5-13.7,19-23.4,22c-0.8-3.3-1.8-7.5-3-11.9C186.2,147.6,190,120.2,190,119.9z"/>
				<path class="st14" d="M189.5,110h-2c-1.4,0-2.6-1.2-2.6-2.6v-8.7c0-1.4,1.2-2.6,2.6-2.6h2c1.4,0,2.6,1.2,2.6,2.6v8.7
					C192.2,108.8,191,110,189.5,110z"/>
				<rect x="173" y="70.3" class="st20" width="32.2" height="6.1"/>
				<path class="st20" d="M195.4,80.8l-5.7-0.4c-0.4,0-0.8-0.4-0.7-0.9l0-0.6c0-0.4,0.4-0.8,0.9-0.7l5.7,0.4c0.4,0,0.8,0.4,0.7,0.9
					l0,0.6C196.2,80.5,195.8,80.8,195.4,80.8z"/>
				<path class="st20" d="M177.3,77.9l5.6,1c0.4,0.1,0.7,0.5,0.6,0.9l-0.1,0.6c-0.1,0.4-0.5,0.7-0.9,0.6l-5.6-1
					c-0.4-0.1-0.7-0.5-0.6-0.9l0.1-0.6C176.4,78.1,176.8,77.8,177.3,77.9z"/>
				<path class="st18" d="M188.9,93.5c-0.1,0-0.1,0-0.2,0c-1.9-1-7.4-0.4-7.5-0.4c-0.2,0-0.4-0.1-0.4-0.3c0-0.2,0.1-0.4,0.3-0.4
					c0.2,0,5.8-0.6,7.9,0.5c0.2,0.1,0.2,0.3,0.1,0.5C189.2,93.5,189.1,93.5,188.9,93.5z"/>
				<path class="st14" d="M177.7,66.3c4.2,0,7.8-3.3,9.4-8c0.2-0.4,0.6-0.7,1.1-0.5c0.2,0.1,0.4,0.3,0.5,0.5c1.6,4.7,5.2,8,9.4,8
					c2.8-0.1,5.5-1.5,7.1-3.8v7.1c0,2.8-1.8,5.1-3.9,5.1h-27.2c-2.1,0-3.9-2.3-3.9-5.1v-7.6C171.9,64.7,174.7,66.2,177.7,66.3z"/>
				<path class="st18" d="M202.7,77.3H172c-1,0-1.8-0.8-1.8-1.8v-1.3c0-1,0.8-1.8,1.8-1.8h30.7c1,0,1.8,0.8,1.8,1.8v1.3
					C204.4,76.6,203.6,77.3,202.7,77.3z"/>
				<path class="st12" d="M194,277.6H44.4c-4.3,0-7.7-3.5-7.7-7.7l0,0c0-4.3,3.5-7.7,7.7-7.7H194c4.3,0,7.7,3.5,7.7,7.7l0,0
					C201.7,274.2,198.3,277.6,194,277.6z"/>
				<rect x="25" y="236.4" class="st9" width="185.9" height="2.8"/>
				<rect x="12.5" y="239.3" class="st24" width="211.1" height="24.7"/>
				<path class="st14" d="M19.8,235.8l1.2,1.1c0.7,0.6,1.1,1.4,1.3,2.3l1.1,5.3h61.3c4.1-0.1,7.5,3,7.6,7.1c0.1,4.1-3,7.5-7.1,7.6
					c-0.2,0-0.4,0-0.5,0H25.1c-0.8,1.1-2.1,1.7-3.5,1.8h-4.8c-2.4,0-4.4-2-4.4-4.4c0,0,0,0,0,0v-17.6c0-2.4,2-4.4,4.4-4.4
					C18,234.7,19,235.1,19.8,235.8z"/>
				<path class="st20" d="M57.8,245.2v14c0,0.5-0.4,0.9-0.9,0.9H56c-0.5,0-0.9-0.4-0.9-0.9v-14c0-0.5,0.4-0.9,0.9-0.9h0.9
					C57.4,244.3,57.8,244.7,57.8,245.2z"/>
				<path class="st20" d="M56.4,258.7l-0.6,0.8c-0.4,0.5-1,0.6-1.5,0.2l-16.3-12.4c-0.5-0.4-0.6-1-0.2-1.5l0.6-0.8
					c0.4-0.5,1-0.6,1.5-0.2l16.3,12.4C56.7,257.5,56.8,258.2,56.4,258.7z"/>
				<path class="st20" d="M38.4,259.6l-0.6-0.7c-0.3-0.4-0.2-1,0.2-1.4L54.6,245c0.4-0.3,1-0.2,1.4,0.2l0.6,0.7
					c0.3,0.4,0.2,1-0.2,1.4l-16.5,12.5C39.3,260.1,38.7,260,38.4,259.6z"/>
				<path class="st20" d="M40.5,258.7l-0.6,0.8c-0.4,0.5-1,0.6-1.5,0.2L22,247.3c-0.5-0.4-0.6-1-0.2-1.5l0.6-0.8
					c0.4-0.5,1-0.6,1.5-0.2l16.3,12.4C40.8,257.5,40.9,258.2,40.5,258.7z"/>
				<path class="st20" d="M22.5,259.5l-0.6-0.8c-0.4-0.5-0.3-1.2,0.2-1.5l16.3-12.4c0.5-0.4,1.2-0.3,1.5,0.2l0.6,0.8
					c0.4,0.5,0.3,1.2-0.2,1.5L24,259.7C23.5,260,22.8,260,22.5,259.5z"/>
				<path class="st20" d="M22.6,238.7v0.8c0,0.5-0.4,0.9-0.9,0.9h-7.5c-0.5,0-0.9-0.4-0.9-0.9v-0.8c0-0.5,0.4-0.9,0.9-0.9h7.5
					C22.2,237.8,22.6,238.2,22.6,238.7z"/>
				<path class="st20" d="M23.8,243.9v0.8c0,0.5-0.4,0.9-0.9,0.9h-8.7c-0.5,0-0.9-0.4-0.9-0.9v-0.8c0-0.5,0.4-0.9,0.9-0.9h8.7
					C23.4,243,23.8,243.4,23.8,243.9z"/>
				<path class="st20" d="M24,245.3v13.4c0,0.5-0.4,1-1,1h-0.9c-0.5,0-1-0.4-1-1v-13.4c0-0.5,0.4-1,1-1H23
					C23.6,244.3,24,244.7,24,245.3z"/>
				<path class="st20" d="M12,261.4v-25.8c0-0.5,0.4-0.9,0.9-0.9h0.9c0.5,0,0.9,0.4,0.9,0.9v25.8c0,0.5-0.4,0.9-0.9,0.9h-0.9
					C12.4,262.3,12,261.9,12,261.4z"/>
				<path class="st20" d="M12,261.4v-1c0-0.6,0.5-1,1-1h11.2c0.6,0,1,0.5,1,1v1c0,0.6-0.5,1-1,1H13C12.5,262.5,12,262,12,261.4z"/>
				<path class="st14" d="M16.9,243.1l1.2,1.1c0.7,0.6,1.1,1.4,1.3,2.3l1.1,5.3h61.3c4.1-0.1,7.5,3,7.6,7.1c0.1,4.1-3,7.5-7.1,7.6
					c-0.2,0-0.4,0-0.5,0H22.2c-0.8,1.1-2.1,1.7-3.5,1.7H14c-2.4,0-4.4-2-4.4-4.4v-17.5c0-2.4,2-4.4,4.4-4.3
					C15.1,242,16.1,242.4,16.9,243.1z"/>
				<path class="st20" d="M54.9,252.5v14c0,0.5-0.4,0.9-0.9,0.9H53c-0.5,0-0.9-0.4-0.9-0.9v-14c0-0.5,0.4-0.9,0.9-0.9h0.9
					C54.4,251.5,54.9,252,54.9,252.5z"/>
				<path class="st20" d="M53.5,265.9l-0.6,0.8c-0.4,0.5-1,0.6-1.5,0.2L35,254.6c-0.5-0.4-0.6-1-0.2-1.5l0.6-0.8
					c0.4-0.5,1-0.6,1.5-0.2l16.3,12.4C53.7,264.7,53.8,265.4,53.5,265.9z"/>
				<path class="st20" d="M35.5,266.8l-0.6-0.7c-0.3-0.4-0.2-1,0.2-1.4l16.5-12.5c0.4-0.3,1-0.2,1.4,0.2l0.6,0.7
					c0.3,0.4,0.2,1-0.2,1.4L36.8,267C36.4,267.3,35.8,267.2,35.5,266.8z"/>
				<path class="st20" d="M37,266.9l-0.6,0.8c-0.4,0.5-1,0.6-1.5,0.2l-16.4-12.3c-0.5-0.4-0.6-1-0.2-1.5l0.6-0.8
					c0.4-0.5,1-0.6,1.5-0.2l16.4,12.3C37.3,265.8,37.4,266.4,37,266.9z"/>
				<path class="st20" d="M19.5,266.7l-0.6-0.8c-0.4-0.5-0.3-1.2,0.2-1.5L35.4,252c0.5-0.4,1.2-0.3,1.5,0.2l0.6,0.8
					c0.4,0.5,0.3,1.2-0.2,1.5L21,266.9C20.6,267.3,19.9,267.2,19.5,266.7z"/>
				<path class="st20" d="M19.7,246v0.8c0,0.5-0.4,0.9-0.9,0.9h-7.5c-0.5,0-0.9-0.4-0.9-0.9V246c0-0.5,0.4-0.9,0.9-0.9h7.5
					C19.3,245.1,19.7,245.5,19.7,246z"/>
				<path class="st20" d="M20.8,251.1v0.8c0,0.5-0.4,0.9-0.9,0.9h-8.7c-0.5,0-0.9-0.4-0.9-0.9v-0.8c0-0.5,0.4-0.9,0.9-0.9H20
					C20.5,250.2,20.8,250.6,20.8,251.1z"/>
				<path class="st20" d="M21.1,252.5v13.4c0,0.5-0.4,1-1,1h-0.9c-0.5,0-1-0.4-1-1v-13.4c0-0.5,0.4-1,1-1h0.9
					C20.6,251.5,21.1,252,21.1,252.5z"/>
				<path class="st20" d="M9.1,268.6v-25.8c0-0.5,0.4-0.9,0.9-0.9h0.9c0.5,0,0.9,0.4,0.9,0.9v25.8c0,0.5-0.4,0.9-0.9,0.9H10
					C9.5,269.5,9.1,269.1,9.1,268.6z"/>
				<path class="st20" d="M9.1,268.7v-1c0-0.6,0.4-1,1-1h11.2c0.6,0,1,0.4,1,1v1c0,0.6-0.4,1-1,1H10.1
					C9.6,269.7,9.1,269.3,9.1,268.7C9.1,268.7,9.1,268.7,9.1,268.7z"/>
				<path class="st19" d="M158.3,266.7c2.7-2.8,4.3-6.5,4.4-10.5l0,0c-0.1-4.3-2-8.5-5.3-11.3c-4.5-4.3-11.5-7-19.4-7H80.1
					c-12.3,0-22.3,7.4-22.3,16.6v3.5c0,9.2,10,16.6,22.3,16.6H138C146.4,274.6,153.9,271.5,158.3,266.7z"/>
				<path class="st14" d="M197,235.1l-19.8-1c-11-0.5-20.3,7.9-20.9,18.9l0,0c-0.5,10.9,7.9,20.2,18.9,20.9l19.7,1"/>
				<path class="st25" d="M183.9,236.4c0,0.3,0.1,0.5,0.4,0.7c0.1,0,2.6,1.9,1.4,8.1c-0.1,0.5,0.2,0.9,0.7,1c0,0,0,0,0,0
					c0.4,0.1,0.9-0.2,1-0.6c0,0,0,0,0,0c1.4-7.5-2-9.8-2.2-9.9c-0.4-0.3-0.9-0.2-1.2,0.2c0,0,0,0,0,0
					C183.9,236.1,183.9,236.3,183.9,236.4z"/>
				<path class="st25" d="M177.7,234.1v40.4l0,0h-11.2c-6.5,0-11.7-5.3-11.7-11.7l0,0v-17c0-6.5,5.3-11.7,11.7-11.7H177.7
					L177.7,234.1z"/>
				<path class="st25" d="M191.3,275.1v-40.4l0,0h11.2c6.5,0,11.7,5.3,11.7,11.7v17c0,6.5-5.3,11.7-11.7,11.7L191.3,275.1
					L191.3,275.1z"/>
				<path class="st14" d="M175,242.8v13.3l0,0h-3.5c-1.9,0-3.4-1.5-3.4-3.4l0,0v-6.6c0-1.9,1.5-3.4,3.4-3.4l0,0H175L175,242.8z"/>
				<path class="st18" d="M170.6,254c0-0.2,0.1-0.3,0.2-0.4c2.8-2.8,0.9-8.5,0.9-8.6c-0.1-0.3,0.1-0.7,0.4-0.8c0,0,0,0,0,0
					c0.3-0.1,0.7,0.1,0.8,0.4c0.1,0.3,2.2,6.5-1.2,9.9c-0.2,0.2-0.6,0.2-0.8,0c0,0,0,0,0,0C170.7,254.3,170.6,254.2,170.6,254z"/>
				<polygon class="st25" points="188.7,275.1 188.7,234.4 193,234.7 193,275.1 				"/>
				<path class="st18" d="M181.2,244.2c-0.3,0-0.5-0.2-0.6-0.4l-1.4-5.3c-0.1-0.3,0.1-0.6,0.4-0.7c0,0,0,0,0,0
					c0.3-0.1,0.7,0.1,0.7,0.4c0,0,0,0,0,0l1.4,5.3c0.1,0.3-0.1,0.6-0.4,0.7C181.3,244.2,181.3,244.2,181.2,244.2z"/>
				<path class="st14" d="M148.1,254L148.1,254c0,1.8,1.5,3.3,3.3,3.3h6.1c1.8,0,3.3-1.5,3.3-3.3l0,0c0-1.8-1.5-3.3-3.3-3.3h-6.1
					C149.6,250.7,148.1,252.2,148.1,254z"/>
				<path class="st16" d="M141,254.7L141,254.7c0,0.1-0.1,0.2-0.2,0.1l0,0c-0.1,0-0.1-0.1-0.1-0.1l0,0c0-0.1,0.1-0.2,0.1-0.2l0,0
					C140.9,254.5,141,254.6,141,254.7L141,254.7z"/>
				<path class="st18" d="M106.8,270.2c-6.9,0-13.9-0.5-20.8-1.3c-2.5-0.3-4.3-2.6-4-5.1c0.3-2.5,2.6-4.3,5.1-4
					c33.8,4,47.3-3,47.4-3c2.3-1.1,5-0.2,6.1,2c1.1,2.1,0.4,4.7-1.7,5.9C138.5,265,129,270.2,106.8,270.2z"/>
				<path class="st19" d="M107.5,268.6c-6.9,0-13.8-0.5-20.7-1.3c-2.5-0.3-4.3-2.6-4-5.1c0.3-2.5,2.6-4.3,5.1-4
					c33.8,4,47.3-3,47.4-3c2.2-1.2,5-0.5,6.2,1.8c1.2,2.2,0.5,5-1.8,6.2C139.3,263.4,129.8,268.6,107.5,268.6z"/>
				<path class="st26" d="M120.9,255.9l7.8-7.8c1.5-1.5,4-1.5,5.5,0s1.5,4,0,5.5l0,0l-2.2,2.2l1.9,1.9c1.6,1.5,1.7,3.9,0.2,5.5
					c-1.5,1.6-3.9,1.7-5.5,0.2c-0.1-0.1-0.2-0.2-0.2-0.2L120.9,255.9z"/>
				
					<rect x="97.1" y="152.3" transform="matrix(0.9567 -0.291 0.291 0.9567 -42.0676 35.957)" class="st15" width="5.4" height="14.2"/>
				
					<rect x="95.8" y="164.4" transform="matrix(0.9573 -0.2892 0.2892 0.9573 -43.5073 36.5115)" class="st27" width="11.9" height="2.3"/>
				<polygon class="st9" points="130.2,259.2 129.8,248.5 104.8,166.4 99.6,168 124.6,250.1 				"/>
				
					<rect x="124.1" y="151.4" transform="matrix(2.739837e-02 -0.9996 0.9996 2.739837e-02 -26.5449 280.8615)" class="st15" width="13.8" height="5.4"/>
				
					<rect x="129.8" y="155.4" transform="matrix(2.739837e-02 -0.9996 0.9996 2.739837e-02 -33.8913 287.7828)" class="st27" width="2.2" height="11.9"/>
				<polygon class="st9" points="128.2,258.5 131.2,248.2 133.5,162.4 128.1,162.3 125.8,248.1 				"/>
				
					<rect x="155.5" y="157.2" transform="matrix(0.3223 -0.9466 0.9466 0.3223 -41.5676 261.7487)" class="st15" width="13" height="5.4"/>
				
					<rect x="158.5" y="161.2" transform="matrix(0.3221 -0.9467 0.9467 0.3221 -50.0867 264.431)" class="st27" width="2.2" height="11.9"/>
				<polygon class="st9" points="128.2,259.2 134.1,250.2 161.8,169 156.6,167.3 129,248.5 				"/>
				<path class="st26" d="M125.8,254.6c0.4-0.4,0.9-0.7,1.2-1.2l1.2,0.6l1.2-0.6l1.4,0.6l1.3-0.6l-3.1,6.5l-2-1l-1.2-3.4
					L125.8,254.6z"/>
				<path class="st25" d="M167.1,260.9c0,0.2,0.1,0.4,0.3,0.5c0.3,0.2,0.7,0.1,0.8-0.2c2.9-4.7,1.2-7.1,1.1-7.2
					c-0.2-0.3-0.6-0.3-0.9-0.1s-0.3,0.6-0.1,0.9l0,0c0,0,1.3,2-1.1,5.8C167.1,260.7,167.1,260.8,167.1,260.9z"/>
				<path class="st18" d="M161.6,250.6c0-0.6-0.4-1-1-1v2.1C161.2,251.7,161.6,251.2,161.6,250.6
					C161.6,250.6,161.6,250.6,161.6,250.6z"/>
				<path class="st18" d="M164.2,260.6h-0.1c-0.2-0.1-0.4-0.3-0.3-0.5c0,0,0,0,0,0l1-3.8c0.1-0.2,0.3-0.4,0.5-0.3
					c0.2,0.1,0.4,0.3,0.3,0.5l-1,3.8C164.6,260.5,164.4,260.6,164.2,260.6z"/>
				
					<rect x="164.8" y="261.8" transform="matrix(4.082935e-02 -0.9992 0.9992 4.082935e-02 -107.7691 422.8889)" class="st25" width="3.2" height="11.6"/>
				<polygon class="st25" points="170.7,240.8 162.7,240.5 162.7,239.8 170.6,240.1 				"/>
				<g>
					<defs>
						<path id="SVGID_3_" d="M200.2,254.4c-1.3,0.1-2.5-0.8-2.7-2.1v-0.4c-0.2-1.3-1.4-2.3-2.7-2.1c-0.7,0-1.4,0.2-1.9,0.6
							c-0.5,0.4-0.8,0.9-0.8,1.5v0.4c-0.4,1.5-1.9,2.4-3.4,2.1c-1-0.2-1.8-1-2.1-2.1v-0.4c-0.2-1.3-1.4-2.3-2.7-2.1
							c-0.7,0-1.4,0.2-1.9,0.6c-0.5,0.4-0.8,0.9-0.8,1.5v0.4c-0.3,1.5-1.8,2.4-3.3,2.1c-1-0.2-1.8-1-2.1-2.1v-0.4
							c-0.2-1.3-1.4-2.3-2.7-2.1c-0.7,0-1.4,0.2-1.9,0.6c-0.5,0.4-0.8,0.9-0.8,1.5v0.4c-0.4,1.5-1.9,2.4-3.4,2.1
							c-1-0.2-1.8-1-2.1-2.1v-0.4c-0.2-1.3-1.4-2.3-2.7-2.1c-0.7,0-1.4,0.2-1.9,0.6c-0.5,0.4-0.8,0.9-0.8,1.5v0.4c0,0,0,0.1,0,0.1
							v-0.1c-0.3,1.5-1.8,2.4-3.3,2.1c-1-0.2-1.9-1.1-2.1-2.1v0.1c0,0,0-0.1,0-0.1v-0.4c-0.2-1.3-1.4-2.3-2.7-2.1
							c-0.7,0-1.4,0.2-1.9,0.6c-0.5,0.4-0.8,0.9-0.8,1.5v0.4c-0.4,1.5-1.9,2.4-3.4,2.1c-1-0.2-1.8-1-2.1-2.1v-0.4
							c-0.2-1.3-1.4-2.3-2.7-2.1c-0.7,0-1.4,0.2-1.9,0.6c-0.5,0.4-0.8,0.9-0.8,1.5v0.4c-0.3,1.5-1.8,2.4-3.3,2.1
							c-1-0.2-1.9-1-2.1-2.1v-0.4c-0.2-1.3-1.4-2.3-2.7-2.1c-0.7,0-1.4,0.2-1.9,0.6c-0.5,0.4-0.8,0.9-0.8,1.5v0.4
							c0,0.8-0.5,1.5-1.2,1.8c-0.3,0.2-0.7,0.3-1,0.3c-0.2,0-0.4,0-0.5,0c-1.3,0.1-2.5-0.8-2.7-2.1v-0.4c0-0.6-0.3-1.2-0.8-1.5
							c-0.6-0.4-1.2-0.6-1.9-0.6l0,0c-0.7,0-1.4,0.2-1.9,0.6c-0.5,0.4-0.8,0.9-0.8,1.5v0.4c-0.2,1.3-1.4,2.3-2.7,2.1
							c-0.2,0-0.4,0-0.6,0c-0.3,0-0.7-0.2-1-0.3c-0.7-0.3-1.2-1-1.2-1.8v-0.4c0-0.6-0.3-1.2-0.8-1.5c-0.6-0.4-1.2-0.6-1.9-0.6
							c-1.3-0.1-2.5,0.8-2.7,2.1v0.4c-0.3,1.5-1.8,2.4-3.3,2.1c-1-0.2-1.8-1-2.1-2.1v-0.4c0-0.6-0.3-1.2-0.8-1.5
							c-0.6-0.4-1.2-0.6-1.9-0.6c-1.3-0.1-2.5,0.8-2.7,2.1v0.4c-0.4,1.5-1.9,2.4-3.4,2.1c-1-0.2-1.8-1-2.1-2.1v-0.4
							c0-0.6-0.3-1.2-0.8-1.5c-0.6-0.4-1.2-0.6-1.9-0.6c-1.3-0.1-2.5,0.8-2.7,2.1v0.4c0,0,0,0.1,0,0.1v-0.1
							c-0.3,1.5-1.8,2.4-3.3,2.1c-1-0.2-1.9-1.1-2.1-2.1v0.1c0,0,0-0.1,0-0.1v-0.4c0-0.6-0.3-1.2-0.8-1.5c-0.6-0.4-1.2-0.6-1.9-0.6
							c-1.3-0.1-2.5,0.8-2.7,2.1v0.4c-0.4,1.5-1.9,2.4-3.4,2.1c-1-0.2-1.8-1-2.1-2.1v-0.4c0-0.6-0.3-1.2-0.8-1.5
							c-0.6-0.4-1.2-0.6-1.9-0.6c-1.3-0.1-2.5,0.8-2.7,2.1v0.4c-0.3,1.5-1.8,2.4-3.3,2.1c-1-0.2-1.8-1-2.1-2.1v-0.4
							c0-0.6-0.3-1.2-0.8-1.5c-0.6-0.4-1.2-0.6-1.9-0.6c-1.3-0.1-2.5,0.8-2.7,2.1v0.4c-0.2,1.3-1.4,2.3-2.7,2.1
							c-1.3,0.1-2.5-0.8-2.7-2.1v-0.4c0-0.6-0.3-1.2-0.8-1.5c-0.6-0.4-1.2-0.6-1.9-0.6c-1.3-0.1-2.5,0.8-2.7,2.1v0.4
							c-0.2,1.3-1.4,2.3-2.7,2.1c-1.3,0.1-2.5-0.8-2.7-2.1v7.9h168.2v-7.9C202.8,253.6,201.6,254.6,200.2,254.4z"/>
					</defs>
					<clipPath id="SVGID_4_">
						<use xlink:href="#SVGID_3_"  style="overflow:visible;"/>
					</clipPath>
					<g class="st28">
						<rect x="34.8" y="249.7" class="st24" width="168.2" height="10.6"/>
						<path class="st24" d="M199.7,260.9H49.2v2.2c0.1-1.3,0.3-2.5,0.5-3.8c0.3-2.5,0.8-5,1.4-7.4c0.6-2.4,1.3-4.8,2.1-7.1v4.4
							h142.9v-2.2c0.4,1.2,0.7,2.4,1.1,3.6c0.7,2.4,1.2,4.8,1.6,7.3c0.4,2.5,0.7,5,0.9,7.5L199.7,260.9L199.7,260.9z"/>
						<path class="st29" d="M187.1,260.9h-125v0.1c0.3-2.1,0.7-4.2,1.2-6.2c0.5-2,1.1-4,1.8-6v0.2h118.1v-1.3
							c1.5,3.9,2.5,7.9,3.2,11.9c0.2,1,0.3,2.1,0.4,3.1v-1.9H187.1z"/>
						<path class="st30" d="M174.6,260.9h-100v1.9c0.7-4.9,2.1-9.8,4.3-14.3v0.5h90.6v-1.3c0.7,1.5,1.4,2.9,1.9,4.5
							c1.2,3.1,2,6.3,2.6,9.5v-0.9L174.6,260.9z"/>
						<path class="st31" d="M162,260.9H87v3.7c0.5-3.7,1.6-7.3,3.2-10.7c1-2.2,2.3-4.3,3.7-6.3v1.4h60.4v-1.9c0.7,1,1.4,2,2.1,3
							c2.6,4.2,4.3,8.8,5.1,13.7v-2.9L162,260.9z"/>
						<path class="st32" d="M149.4,260.9H99.9v3c0.4-1.6,1-3.2,1.7-4.7c5.9-12.6,20.9-18,33.4-12.1c2.9,1.4,5.6,3.3,7.8,5.7
							c2.2,2.4,3.9,5.2,5.1,8.2v-0.2H149.4z"/>
						<path class="st26" d="M136.9,260.9h-23.9v3.7c2.1-4.6,6.8-7.4,11.9-7.2c3.3,0.1,6.5,1.6,8.7,4v-0.5L136.9,260.9z"/>
					</g>
				</g>
				<rect x="24.7" y="256.2" class="st9" width="185.9" height="12.4"/>
				<rect x="24.7" y="263" class="st33" width="185.9" height="7.2"/>
				<rect x="23.7" y="269.2" class="st34" width="187.2" height="15.8"/>
				<polygon class="st21" points="201.8,35.2 54.9,35.2 54.9,190.6 54.9,208.6 54.9,293.7 201.7,293.7 201.7,208.6 201.8,208.6 				
					"/>
				<path class="st19" d="M104.6,163h-7c-4,0-7.2-3.2-7.2-7.2l0,0c0-4,3.2-7.2,7.2-7.2h7c4,0,7.2,3.2,7.2,7.2l0,0
					C111.7,159.8,108.5,163,104.6,163z"/>
			</g>
		</g>
	</g>
</g>
</svg>
