<svg xmlns="http://www.w3.org/2000/svg" xmlns:xlink="http://www.w3.org/1999/xlink" viewBox="0 0 234.27 379.95"><defs><style>.cls-1{fill:none;}.cls-2{fill:#f4b155;}.cls-3{fill:#fff0cc;}.cls-4{fill:#231f20;}.cls-5{clip-path:url(#clip-path);}.cls-6{fill:#a4f6ff;}.cls-7{fill:#3f272d;}.cls-8{fill:#fff;}.cls-9{fill:#54323a;}.cls-10{fill:#e6e7e8;}.cls-11{fill:#6d4650;}.cls-12{fill:#604049;}.cls-13{fill:#e4705e;}.cls-14{fill:#ffd150;}.cls-15{fill:#4a355b;}.cls-16{fill:#f4b055;}.cls-17{fill:#414042;}.cls-18{fill:#ffd351;}.cls-19{fill:#5bc4b8;}.cls-20{fill:#f1f2f2;}.cls-21{fill:#a7a9ac;}.cls-22{fill:#d1d3d4;}</style><clipPath id="clip-path"><rect class="cls-1" x="28.15" y="43.89" width="177.97" height="241.09" rx="24.71"/></clipPath></defs><g id="Layer_2" data-name="Layer 2"><g id="Layer_1-2" data-name="Layer 1"><path class="cls-2" d="M234.27,14.4V365.54A14.7,14.7,0,0,1,219.33,380H14.94A14.7,14.7,0,0,1,0,365.54V14.4C0,6.46,6.7,0,14.94,0H219.33C227.57,0,234.27,6.46,234.27,14.4ZM221.71,357.18V22.76A10.78,10.78,0,0,0,210.93,12H23.34A10.78,10.78,0,0,0,12.56,22.76V357.18A10.79,10.79,0,0,0,23.34,368H210.93A10.79,10.79,0,0,0,221.71,357.18Z"/><rect class="cls-3" x="12.56" y="11.98" width="209.16" height="355.99" rx="10.78"/><path class="cls-4" d="M36.05,330.51a.7.7,0,0,1-.15-.49V319a.74.74,0,0,1,.15-.51.72.72,0,0,1,.52-.16h7.52a.65.65,0,0,1,.5.15.69.69,0,0,1,.14.48v.49a.75.75,0,0,1-.14.5.65.65,0,0,1-.5.15H38.21v3.5h4.27a.71.71,0,0,1,.51.14.67.67,0,0,1,.15.49v.49a.55.55,0,0,1-.66.65H38.21V330a.58.58,0,0,1-.68.66h-1A.67.67,0,0,1,36.05,330.51Z"/><path class="cls-4" d="M46.56,329.26a7.82,7.82,0,0,1,0-9.48,6,6,0,0,1,4.59-1.68,6,6,0,0,1,4.58,1.68,7.78,7.78,0,0,1,0,9.48A6,6,0,0,1,51.15,331,6,6,0,0,1,46.56,329.26ZM54.05,328a6.74,6.74,0,0,0,0-7,4.13,4.13,0,0,0-5.8,0,6.62,6.62,0,0,0,0,7,4.08,4.08,0,0,0,5.8,0Z"/><path class="cls-4" d="M61.65,330.4A4.26,4.26,0,0,1,59,326.33V319a.69.69,0,0,1,.16-.51.71.71,0,0,1,.51-.16h1a.78.78,0,0,1,.53.16.74.74,0,0,1,.16.51v7.35a2.67,2.67,0,0,0,.82,2.13,4.16,4.16,0,0,0,4.71,0,2.67,2.67,0,0,0,.82-2.13V319a.69.69,0,0,1,.16-.51.78.78,0,0,1,.53-.16h.94c.47,0,.7.22.7.67v7.29a4.32,4.32,0,0,1-.69,2.45,4.57,4.57,0,0,1-2,1.61,7,7,0,0,1-2.86.56A7.17,7.17,0,0,1,61.65,330.4Z"/><path class="cls-4" d="M72.22,330.51a.7.7,0,0,1-.15-.49V319a.74.74,0,0,1,.15-.51.75.75,0,0,1,.52-.16h4.72a4.68,4.68,0,0,1,3.2,1,3.66,3.66,0,0,1,1.09,2.89,3.81,3.81,0,0,1-.6,2.17,3.63,3.63,0,0,1-1.73,1.34l2,4.46a.38.38,0,0,1,.06.19c0,.19-.11.28-.33.28H79.67a.69.69,0,0,1-.34-.07.51.51,0,0,1-.2-.26l-1.83-4.29H74.39v4a.59.59,0,0,1-.69.66h-1A.71.71,0,0,1,72.22,330.51ZM77,324.32a3,3,0,0,0,1.87-.48,2,2,0,0,0,.59-1.6,2.09,2.09,0,0,0-.54-1.59,2.33,2.33,0,0,0-1.65-.51H74.39v4.18Z"/><path class="cls-4" d="M91.82,329.26a7.82,7.82,0,0,1,0-9.48,7.1,7.1,0,0,1,9.17,0,7.78,7.78,0,0,1,0,9.48,7.06,7.06,0,0,1-9.17,0ZM99.3,328a6.68,6.68,0,0,0,0-7,3.56,3.56,0,0,0-2.89-1.19A3.61,3.61,0,0,0,93.5,321a6.68,6.68,0,0,0,0,7,3.56,3.56,0,0,0,2.91,1.21A3.52,3.52,0,0,0,99.3,328Z"/><path class="cls-4" d="M104.52,330.51a.7.7,0,0,1-.15-.49V319a.74.74,0,0,1,.15-.51.75.75,0,0,1,.52-.16h7.53a.64.64,0,0,1,.49.15.69.69,0,0,1,.14.48v.49a.75.75,0,0,1-.14.5.64.64,0,0,1-.49.15h-5.88v3.5H111a.54.54,0,0,1,.65.63v.49a.71.71,0,0,1-.15.5.66.66,0,0,1-.5.15h-4.27V330a.59.59,0,0,1-.69.66h-1A.71.71,0,0,1,104.52,330.51Z"/><path class="cls-4" d="M123.78,330.67a6.28,6.28,0,0,1-2.14-.86c-.17-.11-.26-.22-.26-.31a.36.36,0,0,1,.08-.23l.65-1q.12-.18.21-.18a.5.5,0,0,1,.26.1,6.42,6.42,0,0,0,1.68.69,7.15,7.15,0,0,0,1.94.27,3.75,3.75,0,0,0,2-.44,1.86,1.86,0,0,0,.42-2.36,2,2,0,0,0-.75-.61,15.63,15.63,0,0,0-1.58-.68l-.45-.18a17.23,17.23,0,0,1-2.11-1,4.28,4.28,0,0,1-1.38-1.23,3.15,3.15,0,0,1-.55-1.86,3.18,3.18,0,0,1,1.36-2.75,6,6,0,0,1,3.58-1,9.48,9.48,0,0,1,2.34.25,4.81,4.81,0,0,1,1.71.79.46.46,0,0,1,.24.33.32.32,0,0,1-.08.21l-.63,1c-.08.12-.14.18-.2.18a.58.58,0,0,1-.25-.12,5.7,5.7,0,0,0-3.11-.8,3.19,3.19,0,0,0-1.86.45,1.64,1.64,0,0,0-.63,1.43,1.59,1.59,0,0,0,.27,1,2,2,0,0,0,.77.61c.34.17.89.4,1.64.69l.49.2a14.59,14.59,0,0,1,2.23,1,3.6,3.6,0,0,1,1.25,1.2,3.44,3.44,0,0,1,.44,1.83,3.17,3.17,0,0,1-1.26,2.65,5.8,5.8,0,0,1-3.6,1A12.55,12.55,0,0,1,123.78,330.67Z"/><path class="cls-4" d="M136.23,330.57a.65.65,0,0,1-.2-.38l-3.1-12.36a.65.65,0,0,1,0-.17c0-.2.13-.3.38-.3h1.58a.66.66,0,0,1,.41.1.54.54,0,0,1,.16.31l2,8.62,2.35-7.6a.73.73,0,0,1,.18-.32.59.59,0,0,1,.37-.09h.9a.56.56,0,0,1,.36.09.73.73,0,0,1,.18.32l2.37,7.6,1.94-8.62a.5.5,0,0,1,.17-.31.69.69,0,0,1,.4-.1h1.6c.25,0,.38.1.38.3a.65.65,0,0,1,0,.17l-3.12,12.36a.66.66,0,0,1-.22.38.72.72,0,0,1-.42.11h-1.06a.58.58,0,0,1-.65-.49l-2.36-7.83-2.35,7.83a.58.58,0,0,1-.65.49h-1.08A.77.77,0,0,1,136.23,330.57Z"/><path class="cls-4" d="M150.6,329.15a8.47,8.47,0,0,1,0-10.26,7.67,7.67,0,0,1,9.92,0,8.43,8.43,0,0,1,0,10.26,7.67,7.67,0,0,1-9.92,0Zm8.1-1.32a7.24,7.24,0,0,0,0-7.61,3.85,3.85,0,0,0-3.13-1.29,3.9,3.9,0,0,0-3.15,1.29,7.24,7.24,0,0,0,0,7.61,3.88,3.88,0,0,0,3.15,1.3A3.82,3.82,0,0,0,158.7,327.83Z"/><path class="cls-4" d="M164.35,330.5a.75.75,0,0,1-.17-.53V318.09a.79.79,0,0,1,.17-.55.71.71,0,0,1,.55-.18H170a5.06,5.06,0,0,1,3.46,1.06,4,4,0,0,1,1.18,3.13,4.1,4.1,0,0,1-.64,2.34,3.93,3.93,0,0,1-1.88,1.46l2.17,4.82a.48.48,0,0,1,.06.21c0,.2-.12.3-.35.3H172.4a.83.83,0,0,1-.37-.07.57.57,0,0,1-.21-.29l-2-4.64h-3.15V330a.75.75,0,0,1-.17.53.76.76,0,0,1-.58.18h-1A.71.71,0,0,1,164.35,330.5Zm5.16-6.7a3.16,3.16,0,0,0,2-.52,2.13,2.13,0,0,0,.65-1.73,2.27,2.27,0,0,0-.59-1.72,2.5,2.5,0,0,0-1.78-.55h-3.11v4.52Z"/><path class="cls-4" d="M176.74,330.5a.75.75,0,0,1-.17-.53V318.09a.79.79,0,0,1,.17-.55.74.74,0,0,1,.56-.18h3.91a7.26,7.26,0,0,1,5.06,1.59Q188,320.54,188,324q0,6.66-6.82,6.66H177.3A.74.74,0,0,1,176.74,330.5Zm4.63-1.72a4.16,4.16,0,0,0,3.12-1.08,7,7,0,0,0,0-7.35,4.2,4.2,0,0,0-3.12-1.07h-2.29v9.5Z"/><path class="cls-4" d="M191.09,330.67a6.28,6.28,0,0,1-2.14-.86c-.17-.11-.26-.22-.26-.31a.36.36,0,0,1,.08-.23l.65-1c.07-.12.15-.18.21-.18a.5.5,0,0,1,.26.1,6.42,6.42,0,0,0,1.68.69,7.1,7.1,0,0,0,1.94.27,3.71,3.71,0,0,0,2-.44,1.58,1.58,0,0,0,.68-1.42,1.64,1.64,0,0,0-.25-.94,2,2,0,0,0-.75-.61,15.63,15.63,0,0,0-1.58-.68l-.45-.18a17.23,17.23,0,0,1-2.11-1,4.28,4.28,0,0,1-1.38-1.23,3.08,3.08,0,0,1-.55-1.86,3.18,3.18,0,0,1,1.36-2.75,6,6,0,0,1,3.58-1,9.48,9.48,0,0,1,2.34.25,4.89,4.89,0,0,1,1.71.79.44.44,0,0,1,.23.33.31.31,0,0,1-.07.21l-.63,1c-.08.12-.15.18-.2.18a.58.58,0,0,1-.25-.12,5.7,5.7,0,0,0-3.11-.8,3.15,3.15,0,0,0-1.86.45,1.64,1.64,0,0,0-.63,1.43,1.66,1.66,0,0,0,.26,1,2.15,2.15,0,0,0,.78.61c.34.17.88.4,1.64.69l.49.2a15.06,15.06,0,0,1,2.23,1,3.6,3.6,0,0,1,1.25,1.2,3.44,3.44,0,0,1,.44,1.83,3.15,3.15,0,0,1-1.27,2.65,5.77,5.77,0,0,1-3.59,1A12.41,12.41,0,0,1,191.09,330.67Z"/><g class="cls-5"><polygon class="cls-6" points="221.71 7.49 13.61 7.49 13.61 179.64 13.61 199.58 13.61 293.94 221.6 293.94 221.6 199.58 221.71 199.58 221.71 7.49"/><polygon class="cls-7" points="12.8 121.72 34.91 110.27 72.47 117.45 97.85 100.35 141.14 113.76 168.58 104.25 220.62 123.47 220.62 165.08 12.8 165.08 12.8 121.72"/><path class="cls-8" d="M178.87,124.51l37.21-.43a4.82,4.82,0,0,0,4.75-4.86h0a4.82,4.82,0,0,0-4.86-4.76l-37.21.43a4.83,4.83,0,0,0-4.76,4.87h0A4.83,4.83,0,0,0,178.87,124.51Z"/><path class="cls-8" d="M190.13,112.43a11.95,11.95,0,1,0,11.81-12.08A11.95,11.95,0,0,0,190.13,112.43Z"/><path class="cls-8" d="M180.47,116a8.51,8.51,0,1,0,8.41-8.61A8.51,8.51,0,0,0,180.47,116Z"/><polygon class="cls-9" points="12.8 132.71 63.87 111.89 104.94 128.13 145.07 106.33 188.78 123.47 220.62 110.27 220.62 165.08 12.8 165.08 12.8 132.71"/><polygon class="cls-10" points="220.62 165.08 12.8 165.08 12.8 247.82 12.8 257.41 12.8 302.76 220.51 302.76 220.51 257.41 220.62 257.41 220.62 165.08"/><rect class="cls-11" x="12.47" y="157.41" width="209.25" height="136.35"/><polyline class="cls-12" points="80.01 186.13 31.65 281.67 47.72 290.51 220.6 286.72 156.07 186.13"/><path class="cls-13" d="M101,102.7h32.8a0,0,0,0,1,0,0v14.51a8,8,0,0,1-8,8H109a8,8,0,0,1-8-8V102.7a0,0,0,0,1,0,0Z"/><rect class="cls-14" x="114.11" y="122.53" width="6.42" height="11.52" rx="2.35"/><path class="cls-14" d="M117.12,137.69a11.69,11.69,0,0,0,10.29-6.14,18.74,18.74,0,0,0-8.52-2h-3.53a18.86,18.86,0,0,0-8.52,2A11.66,11.66,0,0,0,117.12,137.69Z"/><rect class="cls-13" x="101.49" y="82.3" width="11.77" height="25.89" rx="4.31" transform="translate(98.8 -48.03) rotate(45)"/><rect class="cls-13" x="104.11" y="90.81" width="27.51" height="8.88" rx="3.25"/><rect class="cls-13" x="102.65" y="81.96" width="27.75" height="9.88" rx="3.62"/><rect class="cls-13" x="120.98" y="82.3" width="11.77" height="25.89" rx="4.31" transform="translate(-30.19 117.61) rotate(-45)"/><rect class="cls-13" x="108.68" y="102.04" width="3.13" height="9.05" rx="1.15" transform="translate(158.25 -39.05) rotate(64.22)"/><rect class="cls-13" x="122.74" y="102.46" width="3.13" height="9.05" rx="1.15" transform="translate(274.7 41.59) rotate(115.78)"/><rect class="cls-15" x="120.95" y="108.78" width="2.41" height="4.49" rx="0.88" transform="translate(244.31 222.05) rotate(180)"/><rect class="cls-15" x="110.92" y="108.78" width="2.41" height="4.49" rx="0.88" transform="translate(224.24 222.05) rotate(180)"/><path class="cls-16" d="M117.28,112.67a2.35,2.35,0,0,0-2.35,2.35h4.7A2.35,2.35,0,0,0,117.28,112.67Z"/><path class="cls-13" d="M117.48,118.34c-1,0-1.75.39-1.75.87h3.49C119.22,118.73,118.44,118.34,117.48,118.34Z"/><path class="cls-8" d="M128.8,132.32a15.49,15.49,0,0,0-1.39-.77,11.68,11.68,0,0,1-20.57,0,16.85,16.85,0,0,0-2.92,1.86.18.18,0,0,0-.07,0A6.1,6.1,0,0,1,101,145a6,6,0,0,1-2.83-.7c0,.15,0,.3,0,.45v43.88h37.89V144.71A14.71,14.71,0,0,0,128.8,132.32Z"/><path class="cls-14" d="M107.13,138.86a6.1,6.1,0,0,0-3.28-5.41,14.46,14.46,0,0,0-5.66,10.81,6,6,0,0,0,2.83.7A6.1,6.1,0,0,0,107.13,138.86Z"/><path class="cls-14" d="M127.46,138.86a6.11,6.11,0,0,1,3.27-5.41,14.43,14.43,0,0,1,5.66,10.81,6,6,0,0,1-2.83.7A6.1,6.1,0,0,1,127.46,138.86Z"/><rect class="cls-17" x="96.21" y="164.94" width="43.01" height="5.61" rx="2.06"/><path class="cls-8" d="M148.36,191.93h-61A11.47,11.47,0,0,1,75.93,180.5h0a11.47,11.47,0,0,1,11.43-11.43h61a11.46,11.46,0,0,1,11.43,11.43h0A11.46,11.46,0,0,1,148.36,191.93Z"/><path class="cls-18" d="M84.74,183.85a4.59,4.59,0,0,1-4.53-4,49.15,49.15,0,0,1,19.24-46.29,4.58,4.58,0,0,1,5.17,7.55,40,40,0,0,0-15.33,37.54,4.59,4.59,0,0,1-3.94,5.14C85.15,183.83,84.94,183.85,84.74,183.85Z"/><path class="cls-18" d="M149.21,183.85c-.2,0-.4,0-.61,0a4.58,4.58,0,0,1-3.93-5.14,40,40,0,0,0-15.34-37.54,4.58,4.58,0,0,1,5.17-7.55,49.15,49.15,0,0,1,19.24,46.29A4.58,4.58,0,0,1,149.21,183.85Z"/><rect class="cls-15" x="114.58" y="199.64" width="5.98" height="14.53" transform="translate(235.14 413.82) rotate(180)"/><rect class="cls-19" x="111.13" y="208.77" width="13.07" height="1.57" transform="translate(235.32 419.11) rotate(180)"/><polygon class="cls-20" points="117.57 277.57 120.56 270.31 120.56 210.29 114.58 210.29 114.58 270.31 117.57 277.57"/><rect class="cls-15" x="165.59" y="227.13" width="3.8" height="22.85" transform="translate(-71.05 406.05) rotate(-90)"/><rect class="cls-19" x="159.19" y="237.37" width="8.31" height="2.47" transform="translate(-75.27 401.95) rotate(-90)"/><polygon class="cls-20" points="56.4 238.55 67.81 240.45 162.18 240.45 162.18 236.65 67.81 236.65 56.4 238.55"/><polygon class="cls-15" points="72.17 212.44 76.39 209.75 92.55 220.03 88.32 222.72 72.17 212.44"/><polygon class="cls-19" points="79.86 220.45 89.11 214.57 90.86 215.68 81.61 221.56 79.86 220.45"/><polygon class="cls-20" points="160.91 266.2 154.96 259.72 88.23 217.28 84.01 219.97 150.73 262.41 160.91 266.2"/><polygon class="cls-15" points="158.8 209.67 163.03 212.36 146.87 222.63 142.64 219.94 158.8 209.67"/><polygon class="cls-19" points="146.22 214.57 155.46 220.45 153.71 221.56 144.47 215.68 146.22 214.57"/><polygon class="cls-20" points="74.28 266.12 84.46 262.33 151.19 219.89 146.96 217.2 80.23 259.64 74.28 266.12"/><polygon class="cls-21" points="160.91 266.2 154.96 259.72 88.23 217.28 84.01 219.97 150.73 262.41 160.91 266.2"/><polygon class="cls-22" points="74.28 266.12 84.46 262.33 151.19 219.89 146.96 217.2 80.23 259.64 74.28 266.12"/><polygon class="cls-10" points="56.4 238.55 67.81 240.45 162.18 240.45 162.18 236.65 67.81 236.65 56.4 238.55"/><polygon class="cls-20" points="117.57 277.57 120.56 270.31 120.56 210.29 114.58 210.29 114.58 270.31 117.57 277.57"/><rect class="cls-14" x="114.11" y="122.53" width="6.42" height="11.52" rx="2.35"/><path class="cls-16" d="M116.66,129.2h0a13.56,13.56,0,0,0,14.17-12.83l.67-13.43a13.56,13.56,0,0,0-12.83-14.17h0a13.57,13.57,0,0,0-14.18,12.83L103.83,115A13.56,13.56,0,0,0,116.66,129.2Z"/><path class="cls-14" d="M116.66,128.41h0a13.56,13.56,0,0,0,14.17-12.83l.67-13.43A13.56,13.56,0,0,0,118.67,88h0a13.57,13.57,0,0,0-14.18,12.83l-.66,13.43A13.56,13.56,0,0,0,116.66,128.41Z"/><path class="cls-14" d="M117.12,137.69a11.69,11.69,0,0,0,10.29-6.14,18.74,18.74,0,0,0-8.52-2h-3.53a18.86,18.86,0,0,0-8.52,2A11.66,11.66,0,0,0,117.12,137.69Z"/><path class="cls-13" d="M98.22,104.4h0a5.9,5.9,0,0,1,0-8.32l10-10a5.91,5.91,0,0,1,8.33,0h0a5.9,5.9,0,0,1,0,8.32l-10,10A5.9,5.9,0,0,1,98.22,104.4Z"/><rect class="cls-13" x="104.11" y="90.81" width="27.51" height="8.88" rx="3.25"/><path class="cls-13" d="M125.46,91.83H107.59a5,5,0,0,1-4.94-4.94h0A5,5,0,0,1,107.59,82h17.87a5,5,0,0,1,4.94,4.93h0A5,5,0,0,1,125.46,91.83Z"/><path class="cls-13" d="M136,104.4h0a5.91,5.91,0,0,1-8.33,0l-10-10a5.9,5.9,0,0,1,0-8.32h0a5.9,5.9,0,0,1,8.32,0l10,10A5.9,5.9,0,0,1,136,104.4Z"/><path class="cls-13" d="M128.82,107.21h0a1.56,1.56,0,0,0-1.48-1.64l-5.92-.29a1.56,1.56,0,0,0-1.64,1.48h0a1.58,1.58,0,0,0,1.49,1.64l5.92.29A1.56,1.56,0,0,0,128.82,107.21Z"/><path class="cls-13" d="M106.13,107.21h0a1.56,1.56,0,0,1,1.48-1.64l5.92-.29a1.56,1.56,0,0,1,1.64,1.48h0a1.58,1.58,0,0,1-1.49,1.64l-5.91.29A1.56,1.56,0,0,1,106.13,107.21Z"/><rect class="cls-15" x="120.95" y="108.99" width="2.41" height="4.49" rx="0.88" transform="translate(244.31 222.46) rotate(180)"/><rect class="cls-15" x="110.92" y="108.99" width="2.41" height="4.49" rx="0.88" transform="translate(224.24 222.46) rotate(180)"/><path class="cls-16" d="M117.28,112.67a2.35,2.35,0,0,0-2.35,2.35h4.7A2.35,2.35,0,0,0,117.28,112.67Z"/><path class="cls-16" d="M117.48,118.34c-1,0-1.75.39-1.75.87h3.49C119.22,118.73,118.44,118.34,117.48,118.34Z"/><path class="cls-14" d="M107.13,138.86a6.1,6.1,0,0,0-3.28-5.41,14.46,14.46,0,0,0-5.66,10.81,6,6,0,0,0,2.83.7A6.1,6.1,0,0,0,107.13,138.86Z"/><path class="cls-14" d="M127.46,138.86a6.11,6.11,0,0,1,3.27-5.41,14.43,14.43,0,0,1,5.66,10.81,6,6,0,0,1-2.83.7A6.1,6.1,0,0,1,127.46,138.86Z"/><rect class="cls-17" x="96.21" y="164.94" width="43.01" height="5.61" rx="2.06"/><path class="cls-8" d="M72.21,104.41l-26.38-.31a3.41,3.41,0,0,1-3.37-3.45h0a3.41,3.41,0,0,1,3.45-3.36l26.38.3A3.42,3.42,0,0,1,75.66,101h0A3.42,3.42,0,0,1,72.21,104.41Z"/><path class="cls-8" d="M64.23,95.85a8.47,8.47,0,1,1-8.37-8.57A8.47,8.47,0,0,1,64.23,95.85Z"/><path class="cls-8" d="M71.07,98.36a6,6,0,1,1-6-6.1A6,6,0,0,1,71.07,98.36Z"/><path class="cls-8" d="M155.93,82.42l12.82-.14a1.68,1.68,0,0,0,1.64-1.68h0A1.66,1.66,0,0,0,168.72,79l-12.82.15a1.67,1.67,0,0,0-1.64,1.68h0A1.65,1.65,0,0,0,155.93,82.42Z"/><path class="cls-8" d="M159.81,78.26a4.12,4.12,0,1,0,4.07-4.16A4.11,4.11,0,0,0,159.81,78.26Z"/><path class="cls-8" d="M156.49,79.48a2.93,2.93,0,1,0,2.89-3A2.93,2.93,0,0,0,156.49,79.48Z"/></g></g></g></svg>