<svg xmlns="http://www.w3.org/2000/svg" xmlns:xlink="http://www.w3.org/1999/xlink" viewBox="0 0 234.27 379.95"><defs><style>.cls-1{fill:none;}.cls-2{fill:#231f20;}.cls-3{fill:#f4b155;}.cls-4{fill:#fff0cc;}.cls-5{clip-path:url(#clip-path);}.cls-6{fill:#a4f6ff;}.cls-7{fill:#fff;}.cls-8{fill:#3f272d;}.cls-9{fill:#54323a;}.cls-10{fill:#6d4650;}.cls-11{fill:#604049;}.cls-12{fill:#ffe98f;}.cls-13{fill:#ffb852;}.cls-14{fill:#ffd351;}.cls-15{fill:#ff8f33;}.cls-16{fill:#f9c441;}.cls-17{fill:#ffa73e;}.cls-18{fill:#ffd150;}.cls-19{fill:#4a355b;}.cls-20{fill:#2bb673;}.cls-21{fill:#5bc4b8;}.cls-22{fill:#f4b055;}.cls-23{fill:#e4705e;}.cls-24{fill:#414042;}</style><clipPath id="clip-path"><rect class="cls-1" x="30.88" y="46.94" width="177.97" height="241.09" rx="24.71"/></clipPath></defs><g id="Layer_2" data-name="Layer 2"><g id="Layer_1-2" data-name="Layer 1"><path class="cls-2" d="M180.76,285.67H53.51a25,25,0,0,1-24.94-24.94V68.16A25,25,0,0,1,53.51,43.22H180.76A25,25,0,0,1,205.7,68.16V260.73A25,25,0,0,1,180.76,285.67ZM53.51,44.57A23.61,23.61,0,0,0,29.92,68.16V260.73a23.61,23.61,0,0,0,23.59,23.58H180.76a23.61,23.61,0,0,0,23.58-23.58V68.16a23.61,23.61,0,0,0-23.58-23.59Z"/><path class="cls-3" d="M234.27,14.4V365.54A14.7,14.7,0,0,1,219.33,380H14.94A14.7,14.7,0,0,1,0,365.54V14.4C0,6.46,6.7,0,14.94,0H219.33C227.57,0,234.27,6.46,234.27,14.4ZM221.71,357.18V22.76A10.78,10.78,0,0,0,210.93,12H23.34A10.78,10.78,0,0,0,12.56,22.76V357.18A10.79,10.79,0,0,0,23.34,368H210.93A10.79,10.79,0,0,0,221.71,357.18Z"/><rect class="cls-4" x="12.56" y="11.98" width="209.16" height="355.99" rx="10.78"/><path class="cls-2" d="M37.87,330.5a.75.75,0,0,1-.16-.53V318.09a.79.79,0,0,1,.16-.55.75.75,0,0,1,.56-.18h8.15a.76.76,0,0,1,.54.16.8.8,0,0,1,.14.53v.53a.84.84,0,0,1-.14.53.67.67,0,0,1-.54.17H40.21v3.78h4.62a.72.72,0,0,1,.55.16.7.7,0,0,1,.16.53v.52a.74.74,0,0,1-.16.54.72.72,0,0,1-.55.17H40.21v5a.75.75,0,0,1-.16.53.77.77,0,0,1-.58.18h-1A.75.75,0,0,1,37.87,330.5Z"/><path class="cls-2" d="M49,330.5a.71.71,0,0,1-.17-.53V318.09a.74.74,0,0,1,.17-.55.71.71,0,0,1,.55-.18h1a.78.78,0,0,1,.57.18.74.74,0,0,1,.18.55V330a.75.75,0,0,1-.17.53.76.76,0,0,1-.58.18h-1A.71.71,0,0,1,49,330.5Z"/><path class="cls-2" d="M58.61,330.58a1,1,0,0,1-.25-.39l-5.09-12.28a.53.53,0,0,1-.06-.23.32.32,0,0,1,.09-.23.33.33,0,0,1,.25-.09h1.68a.7.7,0,0,1,.39.1.75.75,0,0,1,.22.31l3.7,9.4,3.7-9.4a.66.66,0,0,1,.21-.31.7.7,0,0,1,.39-.1h1.69a.32.32,0,0,1,.24.09.32.32,0,0,1,.09.23.53.53,0,0,1-.06.23l-5.07,12.28a1,1,0,0,1-.25.39.75.75,0,0,1-.41.1H59A.69.69,0,0,1,58.61,330.58Z"/><path class="cls-2" d="M67.65,330.5a.75.75,0,0,1-.16-.53V318.09a.79.79,0,0,1,.16-.55.74.74,0,0,1,.56-.18h8.14a.72.72,0,0,1,.54.16.75.75,0,0,1,.15.53v.53a.78.78,0,0,1-.15.53.65.65,0,0,1-.54.17H70v3.8h4.62a.59.59,0,0,1,.71.68v.49a.79.79,0,0,1-.16.54.74.74,0,0,1-.55.17H70v3.82h6.34a.72.72,0,0,1,.55.16.74.74,0,0,1,.16.54V330a.69.69,0,0,1-.16.51.77.77,0,0,1-.55.16H68.21A.74.74,0,0,1,67.65,330.5Z"/><path class="cls-2" d="M87.74,329.15a8.47,8.47,0,0,1,0-10.26,7.66,7.66,0,0,1,9.91,0,8.39,8.39,0,0,1,0,10.26,7.66,7.66,0,0,1-9.91,0Zm8.09-1.32a7.24,7.24,0,0,0,0-7.61,4.45,4.45,0,0,0-6.27,0,7.19,7.19,0,0,0,0,7.61,4.43,4.43,0,0,0,6.27,0Z"/><path class="cls-2" d="M101.48,330.5a.75.75,0,0,1-.16-.53V318.09a.79.79,0,0,1,.16-.55.74.74,0,0,1,.56-.18h8.14a.74.74,0,0,1,.54.16.75.75,0,0,1,.15.53v.53a.78.78,0,0,1-.15.53.66.66,0,0,1-.54.17h-6.36v3.78h4.62a.59.59,0,0,1,.71.69v.52a.79.79,0,0,1-.16.54.74.74,0,0,1-.55.17h-4.62v5a.75.75,0,0,1-.16.53.79.79,0,0,1-.58.18h-1A.74.74,0,0,1,101.48,330.5Z"/><path class="cls-2" d="M122.06,330.67a6.34,6.34,0,0,1-2.15-.86c-.17-.11-.25-.22-.25-.31a.36.36,0,0,1,.08-.23l.64-1c.08-.12.15-.18.22-.18a.48.48,0,0,1,.25.1,6.64,6.64,0,0,0,1.69.69,7.1,7.1,0,0,0,1.94.27,3.73,3.73,0,0,0,2-.44,1.58,1.58,0,0,0,.68-1.42,1.56,1.56,0,0,0-.26-.94,2,2,0,0,0-.74-.61,17.2,17.2,0,0,0-1.59-.68l-.45-.18a16.35,16.35,0,0,1-2.1-1,4.09,4.09,0,0,1-1.38-1.23,3.08,3.08,0,0,1-.55-1.86,3.16,3.16,0,0,1,1.36-2.75,6,6,0,0,1,3.57-1,9.48,9.48,0,0,1,2.34.25,4.94,4.94,0,0,1,1.72.79.47.47,0,0,1,.23.33.28.28,0,0,1-.08.21l-.62,1c-.08.12-.15.18-.2.18a.53.53,0,0,1-.25-.12,5.74,5.74,0,0,0-3.12-.8,3.19,3.19,0,0,0-1.86.45,2,2,0,0,0-.36,2.4,2.19,2.19,0,0,0,.77.61q.51.25,1.65.69l.49.2a15.06,15.06,0,0,1,2.23,1,3.49,3.49,0,0,1,1.24,1.2,3.35,3.35,0,0,1,.44,1.83,3.17,3.17,0,0,1-1.26,2.65,5.77,5.77,0,0,1-3.59,1A12.41,12.41,0,0,1,122.06,330.67Z"/><path class="cls-2" d="M134.51,330.57a.61.61,0,0,1-.21-.38l-3.09-12.36a.72.72,0,0,1,0-.17c0-.2.12-.3.37-.3h1.59a.7.7,0,0,1,.41.1.54.54,0,0,1,.16.31l1.95,8.62,2.35-7.6a.84.84,0,0,1,.19-.32.56.56,0,0,1,.36-.09h.9a.56.56,0,0,1,.36.09.65.65,0,0,1,.19.32l2.37,7.6,1.94-8.62a.49.49,0,0,1,.16-.31.72.72,0,0,1,.41-.1h1.6c.25,0,.37.1.37.3a.42.42,0,0,1,0,.17l-3.11,12.36a.72.72,0,0,1-.22.38.74.74,0,0,1-.43.11H142a.68.68,0,0,1-.42-.11.67.67,0,0,1-.23-.38L139,322.36l-2.35,7.83a.66.66,0,0,1-.22.38.72.72,0,0,1-.42.11H135A.75.75,0,0,1,134.51,330.57Z"/><path class="cls-2" d="M148.88,329.15a8.47,8.47,0,0,1,0-10.26,7.67,7.67,0,0,1,9.92,0,8.43,8.43,0,0,1,0,10.26,7.67,7.67,0,0,1-9.92,0Zm8.1-1.32a7.3,7.3,0,0,0,0-7.61,4.47,4.47,0,0,0-6.28,0,7.19,7.19,0,0,0,0,7.61,4.44,4.44,0,0,0,6.28,0Z"/><path class="cls-2" d="M162.62,330.5a.75.75,0,0,1-.16-.53V318.09a.79.79,0,0,1,.16-.55.74.74,0,0,1,.56-.18h5.11a5.08,5.08,0,0,1,3.46,1.06,4,4,0,0,1,1.18,3.13,4,4,0,0,1-.65,2.34,3.9,3.9,0,0,1-1.87,1.46l2.17,4.82a.45.45,0,0,1,.06.21q0,.3-.36.3h-1.6a.83.83,0,0,1-.37-.07.64.64,0,0,1-.22-.29l-2-4.64H165V330a.75.75,0,0,1-.16.53.77.77,0,0,1-.58.18h-1A.74.74,0,0,1,162.62,330.5Zm5.16-6.7a3.17,3.17,0,0,0,2-.52,2.12,2.12,0,0,0,.64-1.73,2.26,2.26,0,0,0-.58-1.72,2.51,2.51,0,0,0-1.78-.55H165v4.52Z"/><path class="cls-2" d="M175,330.5a.71.71,0,0,1-.17-.53V318.09a.74.74,0,0,1,.17-.55.71.71,0,0,1,.55-.18h3.92a7.29,7.29,0,0,1,5.06,1.59q1.75,1.59,1.75,5.07,0,6.66-6.81,6.66h-3.92A.71.71,0,0,1,175,330.5Zm4.63-1.72a4.16,4.16,0,0,0,3.12-1.08,7,7,0,0,0,0-7.35,4.2,4.2,0,0,0-3.12-1.07h-2.29v9.5Z"/><path class="cls-2" d="M189.37,330.67a6.34,6.34,0,0,1-2.15-.86c-.17-.11-.25-.22-.25-.31a.31.31,0,0,1,.08-.23l.64-1c.08-.12.15-.18.22-.18a.48.48,0,0,1,.25.1,6.49,6.49,0,0,0,1.69.69,7.08,7.08,0,0,0,1.93.27,3.75,3.75,0,0,0,2-.44,1.58,1.58,0,0,0,.68-1.42,1.56,1.56,0,0,0-.26-.94,2.07,2.07,0,0,0-.74-.61,17.2,17.2,0,0,0-1.59-.68l-.45-.18a16.35,16.35,0,0,1-2.1-1,4.09,4.09,0,0,1-1.38-1.23,3.08,3.08,0,0,1-.55-1.86,3.16,3.16,0,0,1,1.36-2.75,6,6,0,0,1,3.57-1,9.48,9.48,0,0,1,2.34.25,4.81,4.81,0,0,1,1.71.79.46.46,0,0,1,.24.33.32.32,0,0,1-.08.21l-.63,1c-.07.12-.14.18-.19.18a.6.6,0,0,1-.26-.12,5.68,5.68,0,0,0-3.11-.8,3.19,3.19,0,0,0-1.86.45,1.63,1.63,0,0,0-.62,1.43,1.59,1.59,0,0,0,.26,1,2.11,2.11,0,0,0,.77.61q.51.25,1.65.69l.49.2a15.57,15.57,0,0,1,2.23,1,3.57,3.57,0,0,1,1.24,1.2,3.35,3.35,0,0,1,.44,1.83,3.17,3.17,0,0,1-1.26,2.65,5.77,5.77,0,0,1-3.59,1A12.41,12.41,0,0,1,189.37,330.67Z"/><g class="cls-5"><polygon class="cls-6" points="207.53 47.19 27.9 47.19 27.9 197.5 27.9 214.91 27.9 297.3 207.44 297.3 207.44 214.91 207.53 214.91 207.53 47.19"/><path class="cls-7" d="M75.8,112.17l-27.69-.32a3.59,3.59,0,0,1-3.54-3.62h0a3.58,3.58,0,0,1,3.62-3.53l27.69.32a3.59,3.59,0,0,1,3.54,3.62h0A3.59,3.59,0,0,1,75.8,112.17Z"/><circle class="cls-7" cx="58.53" cy="103.08" r="8.89" transform="translate(-53.51 141.79) rotate(-79.47)"/><path class="cls-7" d="M74.61,105.82a6.34,6.34,0,1,1-6.26-6.4A6.33,6.33,0,0,1,74.61,105.82Z"/><path class="cls-7" d="M81,68.23l-11.53-.14A1.49,1.49,0,0,1,68,66.59h0a1.49,1.49,0,0,1,1.51-1.47L81,65.25a1.49,1.49,0,0,1,1.47,1.5h0A1.49,1.49,0,0,1,81,68.23Z"/><path class="cls-7" d="M77.49,64.49a3.7,3.7,0,1,1-3.66-3.74A3.69,3.69,0,0,1,77.49,64.49Z"/><path class="cls-7" d="M80.48,65.58a2.64,2.64,0,1,1-2.6-2.66A2.64,2.64,0,0,1,80.48,65.58Z"/><path class="cls-7" d="M156.44,96.56l37.49-.44a4.85,4.85,0,0,0,4.79-4.9h0a4.86,4.86,0,0,0-4.9-4.78l-37.5.43a4.85,4.85,0,0,0-4.78,4.9h0A4.86,4.86,0,0,0,156.44,96.56Z"/><path class="cls-7" d="M167.78,84.39a12,12,0,1,0,11.9-12.17A12,12,0,0,0,167.78,84.39Z"/><path class="cls-7" d="M158.05,88a8.58,8.58,0,1,0,8.48-8.67A8.59,8.59,0,0,0,158.05,88Z"/><polygon class="cls-8" points="26.89 139.06 46.25 129.06 79.13 135.33 101.36 120.4 139.26 132.11 163.28 123.81 208.85 140.59 208.85 176.92 26.89 176.92 26.89 139.06"/><polygon class="cls-9" points="26.89 149.9 71.6 130.74 107.57 145.68 142.7 125.62 180.97 141.4 208.85 129.25 208.85 179.69 26.89 179.69 26.89 149.9"/><rect class="cls-10" x="25.42" y="178.08" width="183.34" height="119.06"/><polygon class="cls-11" points="47.06 254.4 20.94 288.04 115.31 299.91 225.31 294.55 196.79 268.74 114.83 268.74 104.56 259.15 47.06 254.4"/><path class="cls-9" d="M105.4,268.4l-42,3.81a4.65,4.65,0,0,1-5-4.2h0a4.65,4.65,0,0,1,4.2-5l42-3.81a4.65,4.65,0,0,1,5,4.21h0A4.65,4.65,0,0,1,105.4,268.4Z"/><path class="cls-9" d="M94.67,267.14l-42,3.81a4.65,4.65,0,0,1-5-4.2h0a4.66,4.66,0,0,1,4.2-5.05l42-3.81a4.66,4.66,0,0,1,5,4.21h0A4.65,4.65,0,0,1,94.67,267.14Z"/><path class="cls-9" d="M88.43,261.53l-42,3.81a4.65,4.65,0,0,1-5-4.2h0a4.65,4.65,0,0,1,4.2-5l42-3.81a4.66,4.66,0,0,1,5,4.2h0A4.66,4.66,0,0,1,88.43,261.53Z"/><path class="cls-9" d="M196.79,278H108a4.66,4.66,0,0,1-4.64-4.64h0a4.65,4.65,0,0,1,4.64-4.64h88.81a4.65,4.65,0,0,1,4.65,4.64h0A4.66,4.66,0,0,1,196.79,278Z"/><path class="cls-12" d="M138.5,142.94l-13.22,1.67a.89.89,0,0,1-.58-1.62L135,135.65a.9.9,0,0,0-.5-1.63l-10.18.27a.89.89,0,0,1-.29-1.73l10.34-3.66a.91.91,0,0,0-.12-1.73L123.08,125a.9.9,0,0,1,0-1.76l13.43-2a.91.91,0,0,0,.36-1.62l-14.56-10.72a.9.9,0,0,1,.52-1.62l14.62.42a.89.89,0,0,0,.82-1.21l-5.84-16a.86.86,0,0,1,1.38-1l9.33,9.4a.85.85,0,0,0,1.44-.65l-.08-14.59a.84.84,0,0,1,1.6-.41l6.38,13.12a.84.84,0,0,0,1.6-.24l4-23.09a.84.84,0,0,1,1.68.06l2.63,23.14a.84.84,0,0,0,1.61.29L174.86,73a.85.85,0,0,1,1.62.48l-2.2,23.74a.86.86,0,0,0,1.17.91l13.73-5.91a.88.88,0,0,1,1,1.33l-12,18.44a.9.9,0,0,0,.53,1.38l14.56,3a.9.9,0,0,1,0,1.75L180,120.69a.9.9,0,0,0-.16,1.71l12.74,5.14a.9.9,0,0,1-.43,1.72L183.64,128a.89.89,0,0,0-.44,1.71l6.39,2.72a.9.9,0,0,1-.4,1.72l-7.2-.66a.9.9,0,0,0-.43,1.71l14.75,7a.9.9,0,0,1-.45,1.7l-17.19-2.11a.89.89,0,0,0-.84,1.32l4.49,8.39a.87.87,0,0,1-1.31,1.1l-3.87-3.68a.86.86,0,0,0-1.37,1l2.27,6.83a.86.86,0,0,1-1.48.83l-10.26-14a.82.82,0,0,0-1-.28l-6,2.6a.87.87,0,0,1-.45.06l-8.48-1.32a.82.82,0,0,1-.48-.26l-.66-.7a.82.82,0,0,0-1.21,0l-14,14.73a.86.86,0,0,1-1.38-1l5.86-14.38"/><path class="cls-13" d="M156,153.24s-11-24.44-25-8.8c-6.83,7.61-10.46,20.43-9.81,33.49.8,15.93.89,42-5.52,57.06a76.72,76.72,0,0,0,39.91-31"/><path class="cls-14" d="M161.47,152.9s10.77-23.85,24.45-8.58c6.66,7.43,10.21,19.94,9.57,32.69-.78,15.55-.87,41,5.39,55.71a74.91,74.91,0,0,1-39-30.26"/><path class="cls-15" d="M124.44,168.62h0a5.52,5.52,0,0,1,.35-7.78L135,151.48a5.51,5.51,0,0,1,7.78.34h0a5.52,5.52,0,0,1-.34,7.78L132.22,169A5.52,5.52,0,0,1,124.44,168.62Z"/><circle class="cls-15" cx="146.76" cy="149.61" r="9.44" transform="matrix(0.92, -0.38, 0.38, 0.92, -46.08, 67.55)"/><path class="cls-16" d="M139.57,105.41h36.23a0,0,0,0,1,0,0v55.35a0,0,0,0,1,0,0H157.68a18.11,18.11,0,0,1-18.11-18.11V105.41A0,0,0,0,1,139.57,105.41Z"/><path class="cls-17" d="M153.74,265.94V215.46a4.41,4.41,0,0,0-8.82,0v51.4l-3.2.66a2.69,2.69,0,0,0-1.4.79l-.67.71a2.55,2.55,0,0,0,1.95,4.28h10.54a2.6,2.6,0,0,0,2.63-2.56V268A2.52,2.52,0,0,0,153.74,265.94Z"/><path class="cls-17" d="M177,269l-.67-.71a2.69,2.69,0,0,0-1.4-.79l-3.2-.66v-51.4a4.41,4.41,0,0,0-8.82,0v50.48a2.52,2.52,0,0,0-1,2v2.77a2.6,2.6,0,0,0,2.63,2.56h10.54A2.55,2.55,0,0,0,177,269Z"/><path class="cls-18" d="M158.34,205h0a16.89,16.89,0,0,1-16.88-16.89V153.48a16.88,16.88,0,0,1,16.88-16.88h0a16.88,16.88,0,0,1,16.88,16.88v34.58A16.89,16.89,0,0,1,158.34,205Z"/><path class="cls-7" d="M168.56,138.55c0,.15,0,.3,0,.45,0,14.84-12.4,26.86-27.7,26.86a28.24,28.24,0,0,1-3.06-.17v61.37h41V155.77A19.82,19.82,0,0,0,168.56,138.55Z"/><path class="cls-17" d="M168.58,139c0-.15,0-.3,0-.45a20.72,20.72,0,0,0-10.22-2.67h0c-11.28,0-20.52,9-20.52,19.89v9.92a28.24,28.24,0,0,0,3.06.17C156.18,165.86,168.58,153.84,168.58,139Z"/><path class="cls-17" d="M139.23,120.43a3.89,3.89,0,1,0,3.89-3.77A3.83,3.83,0,0,0,139.23,120.43Z"/><path class="cls-15" d="M140.75,120.43a2.37,2.37,0,1,0,2.37-2.3A2.34,2.34,0,0,0,140.75,120.43Z"/><path class="cls-15" d="M156.6,141.47h0a14.39,14.39,0,0,0,15.22-13.36l.72-14a14.31,14.31,0,0,0-13.78-14.76h0a14.41,14.41,0,0,0-15.22,13.36l-.71,14A14.28,14.28,0,0,0,156.6,141.47Z"/><path class="cls-17" d="M156.6,139.93h0a14.4,14.4,0,0,0,15.22-13.36l.72-14a14.29,14.29,0,0,0-13.78-14.75h0a14.4,14.4,0,0,0-15.22,13.36l-.71,14A14.28,14.28,0,0,0,156.6,139.93Z"/><polygon class="cls-16" points="175.79 142.03 168.97 138.06 168.97 112.67 175.79 112.67 175.79 142.03"/><path class="cls-19" d="M160.05,121.74h0a1.29,1.29,0,0,0,1.29-1.29v-2.08a1.3,1.3,0,0,0-1.29-1.3h0a1.3,1.3,0,0,0-1.3,1.3v2.08A1.3,1.3,0,0,0,160.05,121.74Z"/><path class="cls-19" d="M149.27,121.74h0a1.29,1.29,0,0,0,1.29-1.29v-2.08a1.3,1.3,0,0,0-1.29-1.3h0a1.3,1.3,0,0,0-1.29,1.3v2.08A1.29,1.29,0,0,0,149.27,121.74Z"/><path class="cls-16" d="M170.43,112.67H145a7.6,7.6,0,0,1-7.57-7.57h0A7.59,7.59,0,0,1,145,97.53h25.39A7.59,7.59,0,0,1,178,105.1h0A7.6,7.6,0,0,1,170.43,112.67Z"/><ellipse class="cls-17" cx="169.53" cy="119.87" rx="3.89" ry="3.77"/><ellipse class="cls-15" cx="169.53" cy="119.87" rx="2.37" ry="2.3"/><path class="cls-16" d="M150.73,116.88l-4-1.43a.78.78,0,0,1-.47-1h0a.77.77,0,0,1,1-.47l4,1.43a.76.76,0,0,1,.47,1h0A.78.78,0,0,1,150.73,116.88Z"/><path class="cls-16" d="M162.68,115.35,157.92,117a.77.77,0,0,1-1-.48h0a.77.77,0,0,1,.48-1l4.75-1.63a.79.79,0,0,1,1,.49h0A.77.77,0,0,1,162.68,115.35Z"/><path class="cls-15" d="M155.92,121.85a0,0,0,0,0,0,0h0v-.07h0a1.56,1.56,0,0,0-1.17-.56,1.54,1.54,0,0,0-1.09.47h0a.68.68,0,0,0,0,.14.25.25,0,0,1,0-.08,0,0,0,0,0,0,0,1.91,1.91,0,0,0-.28.4,2,2,0,0,0-.18.5.36.36,0,0,0,.32.45H156a.33.33,0,0,0,.29-.42A2,2,0,0,0,155.92,121.85Zm0,.06v0Zm-2.29,0v0Zm0,.15v0h0Z"/><path class="cls-15" d="M153.51,129.85h0v0h0a.8.8,0,0,0-.56-.37.83.83,0,0,0-.59.17h0a.19.19,0,0,0,0,.07.06.06,0,0,1,0,0s0,0,0,0a1,1,0,0,0-.17.19.9.9,0,0,0-.12.24.18.18,0,0,0,.13.25l1,.13.3,0a.17.17,0,0,0,.18-.2A1,1,0,0,0,153.51,129.85Zm0,0v0Zm-1.18-.15v0Zm0,.07v0h0Z"/><path class="cls-20" d="M175.9,112.9h-36a2.11,2.11,0,0,1-2.1-2.1h0a2.1,2.1,0,0,1,2.1-2.09h36a2.1,2.1,0,0,1,2.1,2.09h0A2.11,2.11,0,0,1,175.9,112.9Z"/><path class="cls-15" d="M157.68,130.48a.7.7,0,0,1-.46-.19c-3.06-3.06-9-1.56-9.08-1.55a.65.65,0,1,1-.32-1.25c.27-.07,6.74-1.7,10.32,1.88a.66.66,0,0,1,0,.92A.68.68,0,0,1,157.68,130.48Z"/><path class="cls-15" d="M112.08,145.47h0a4,4,0,0,1,5.63.78l13.54,17.87a4,4,0,0,1-.78,5.64h0a4,4,0,0,1-5.64-.78L111.3,151.11A4,4,0,0,1,112.08,145.47Z"/><rect class="cls-19" x="114.5" y="139.35" width="4.29" height="16.4" transform="translate(35.24 -22.01) rotate(12.68)"/><rect class="cls-21" x="112.55" y="143.74" width="9.39" height="1.78" transform="translate(34.61 -22.21) rotate(12.68)"/><polygon class="cls-7" points="134.16 69.73 130.27 77.25 115.39 143.35 119.58 144.3 134.46 78.19 134.16 69.73"/><rect class="cls-19" x="115.32" y="138.32" width="4.13" height="15.79" transform="matrix(1, -0.02, 0.02, 1, -2.62, 2.14)"/><rect class="cls-21" x="112.75" y="142.49" width="9.03" height="1.71" transform="translate(-2.57 2.14) rotate(-1.04)"/><polygon class="cls-7" points="116 69.45 114.08 77.37 115.25 142.58 119.39 142.5 118.21 77.3 116 69.45"/><rect class="cls-19" x="113.24" y="138.86" width="4.29" height="16.4" transform="translate(-22.89 21.28) rotate(-9.59)"/><rect class="cls-21" x="110.13" y="143.24" width="9.39" height="1.78" transform="translate(-22.41 21.15) rotate(-9.59)"/><polygon class="cls-7" points="102.1 68.41 101.34 76.84 112.63 143.65 116.87 142.94 105.58 76.13 102.1 68.41"/><rect class="cls-19" x="111.57" y="136.5" width="4.13" height="15.79" transform="translate(-41.29 45.6) rotate(-19.27)"/><rect class="cls-21" x="108.11" y="140.85" width="9.03" height="1.71" transform="translate(-40.46 45.12) rotate(-19.27)"/><polygon class="cls-7" points="88.29 71.92 88.94 80.04 110.47 141.6 114.37 140.24 92.84 78.68 88.29 71.92"/><rect class="cls-19" x="109.85" y="137.62" width="4.29" height="16.4" transform="translate(-55.12 69.16) rotate(-27.83)"/><rect class="cls-21" x="105.85" y="142.32" width="9.39" height="1.78" transform="translate(-54.07 68.18) rotate(-27.83)"/><polygon class="cls-7" points="74.75 75.28 76.68 83.52 108.32 143.44 112.11 141.44 80.48 81.52 74.75 75.28"/><path class="cls-17" d="M120.33,150.28h-2.59a1.71,1.71,0,0,1-1.7-1.7h0a1.7,1.7,0,0,1,1.7-1.7h2.59a1.7,1.7,0,0,1,1.7,1.7h0A1.71,1.71,0,0,1,120.33,150.28Z"/><circle class="cls-17" cx="182.96" cy="149.03" r="10.02" transform="translate(-36.94 234.63) rotate(-60.43)"/><path class="cls-15" d="M158.85,162.92h0a3.81,3.81,0,0,1,4.89-2.21l21.41,8.08a3.82,3.82,0,0,1,2.21,4.89h0a3.82,3.82,0,0,1-4.9,2.22l-21.4-8.09A3.8,3.8,0,0,1,158.85,162.92Z"/><path class="cls-17" d="M184.56,174.81h0a5.53,5.53,0,0,1-5.39-5.63l.27-12.79a5.52,5.52,0,0,1,5.62-5.38h0a5.52,5.52,0,0,1,5.39,5.62l-.27,12.79A5.53,5.53,0,0,1,184.56,174.81Z"/><path class="cls-15" d="M162.74,161.35h0a1.65,1.65,0,0,1-2.13,1l-6-2.25a1.65,1.65,0,0,1-1-2.13h0a1.67,1.67,0,0,1,2.14-1l5.95,2.25A1.65,1.65,0,0,1,162.74,161.35Z"/><path class="cls-17" d="M163.57,160.75h0a1.47,1.47,0,0,1-1.88.85l-6.24-2.36a1.46,1.46,0,0,1-.85-1.88h0a1.47,1.47,0,0,1,1.88-.85l6.24,2.36A1.45,1.45,0,0,1,163.57,160.75Z"/><path class="cls-17" d="M160.12,162h0a4,4,0,0,1,5.19-2.35l21,7.92a4,4,0,0,1,2.34,5.19h0a4,4,0,0,1-5.19,2.34l-21-7.91A4,4,0,0,1,160.12,162Z"/><path class="cls-17" d="M116.18,156.59h0a2.25,2.25,0,0,1-3-.94l-3.6-6.81a2.26,2.26,0,0,1,.94-3.05h0a2.26,2.26,0,0,1,3,.94l3.6,6.82A2.25,2.25,0,0,1,116.18,156.59Z"/><path class="cls-7" d="M65.17,249.5a8.51,8.51,0,0,0-7.11,9.68h0a8.52,8.52,0,0,0,9.68,7.11L95.61,262,93,245.23Z"/><path class="cls-22" d="M51.72,257.67h-.14A2.58,2.58,0,0,1,49,255.08,37,37,0,0,1,61.13,228a2.59,2.59,0,0,1,3.31,4c-.17.15-10.25,8.81-10.26,23.06A2.59,2.59,0,0,1,51.72,257.67Z"/><path class="cls-22" d="M52.11,258.66l-4,.81a2.59,2.59,0,0,1-3-2h0a2.59,2.59,0,0,1,2-3l4-.81a2.59,2.59,0,0,1,3,2h0A2.59,2.59,0,0,1,52.11,258.66Z"/><path class="cls-22" d="M50.79,259.11l1.26-1.92a1.21,1.21,0,0,1,1.67-.34h0a1.21,1.21,0,0,1,.35,1.67l-1.27,1.92a1.21,1.21,0,0,1-1.67.34h0A1.21,1.21,0,0,1,50.79,259.11Z"/><path class="cls-23" d="M52.65,197.64H77a0,0,0,0,1,0,0v11.28a8,8,0,0,1-8,8H60.66a8,8,0,0,1-8-8V197.64A0,0,0,0,1,52.65,197.64Z" transform="translate(-77.68 43.4) rotate(-23.64)"/><path class="cls-18" d="M76.52,203.09a2.13,2.13,0,1,1-2.8-1.1A2.13,2.13,0,0,1,76.52,203.09Z"/><path class="cls-22" d="M75.76,203.42a1.3,1.3,0,1,1-1.71-.67A1.29,1.29,0,0,1,75.76,203.42Z"/><path class="cls-18" d="M71.88,221.89h0a2.39,2.39,0,0,1-3.14-1.22l-1.52-3.48a2.4,2.4,0,0,1,1.23-3.14h0a2.4,2.4,0,0,1,3.14,1.23l1.52,3.47A2.38,2.38,0,0,1,71.88,221.89Z"/><path class="cls-18" d="M69.75,218.25h0a10.08,10.08,0,0,0,5.83-13L72,196a10.07,10.07,0,0,0-13-5.82h0a10.08,10.08,0,0,0-5.83,13l3.55,9.34A10.08,10.08,0,0,0,69.75,218.25Z"/><path class="cls-18" d="M71.78,224.89a8.65,8.65,0,0,0,6.86-5.67,13.89,13.89,0,0,0-6.49-.52l-2.58.4a14,14,0,0,0-6,2.43A8.67,8.67,0,0,0,71.78,224.89Z"/><path class="cls-23" d="M50,207.4h0a4.38,4.38,0,0,1-2.48-5.67L51.38,192a4.39,4.39,0,0,1,5.67-2.48h0a4.39,4.39,0,0,1,2.48,5.67l-3.82,9.77A4.39,4.39,0,0,1,50,207.4Z"/><path class="cls-23" d="M70.56,196.21l-13.62,6a4,4,0,0,1-5.32-2.08h0a4,4,0,0,1,2.08-5.32l13.62-6a4,4,0,0,1,5.32,2.08h0A4,4,0,0,1,70.56,196.21Z"/><path class="cls-23" d="M67.58,191.37,55.41,196.7a3.69,3.69,0,0,1-4.84-1.89h0A3.69,3.69,0,0,1,52.46,190l12.18-5.32a3.68,3.68,0,0,1,4.83,1.89h0A3.68,3.68,0,0,1,67.58,191.37Z"/><path class="cls-23" d="M60.11,206.65h0a.86.86,0,0,1-.09-1.2l3.27-3.81a.85.85,0,0,1,1.2-.1h0a.85.85,0,0,1,.09,1.2l-3.27,3.82A.85.85,0,0,1,60.11,206.65Z"/><path class="cls-23" d="M73,200.91h0a.8.8,0,0,0-.77-.83l-3-.11a.8.8,0,0,0-.82.77h0a.79.79,0,0,0,.77.82l3,.11A.79.79,0,0,0,73,200.91Z"/><path class="cls-19" d="M72.06,205h0a.68.68,0,0,0,.35-.89L71.94,203a.68.68,0,0,0-.89-.35h0a.68.68,0,0,0-.35.89l.47,1.07A.67.67,0,0,0,72.06,205Z"/><path class="cls-19" d="M65.55,207.8h0a.9.9,0,0,0,.47-1.18l-.62-1.41a.9.9,0,0,0-1.18-.46h0a.9.9,0,0,0-.46,1.18l.62,1.41A.88.88,0,0,0,65.55,207.8Z"/><path class="cls-22" d="M69.08,206.2a1.14,1.14,0,0,0-.58,1.5l2.08-.91A1.14,1.14,0,0,0,69.08,206.2Z"/><path class="cls-7" d="M79.75,219.63a10.51,10.51,0,0,0-1.11-.41,8.68,8.68,0,0,1-15.11,2.31,13.14,13.14,0,0,0-1.94,1.69l0,.05a4.53,4.53,0,0,1-.78,8.77,4.47,4.47,0,0,1-2.16-.19c0,.11,0,.22,0,.33l4.94,32.24,27.84-4.27-4.94-32.24A10.94,10.94,0,0,0,79.75,219.63Z"/><path class="cls-18" d="M64.57,226.87a4.56,4.56,0,0,0-3-3.6,10.74,10.74,0,0,0-2.94,8.58,4.47,4.47,0,0,0,2.16.19A4.53,4.53,0,0,0,64.57,226.87Z"/><path class="cls-24" d="M89.65,246.86l-27.48,4.21a2.1,2.1,0,0,1-2.38-1.75h0A2.09,2.09,0,0,1,61.54,247L89,242.73a2.11,2.11,0,0,1,2.38,1.75h0A2.1,2.1,0,0,1,89.65,246.86Z"/><path class="cls-14" d="M58,265.64a3.4,3.4,0,0,1-3.78-2.41c-6.18-21.18,4.84-37.85,5.31-38.55a3.4,3.4,0,0,1,5.65,3.8c-.16.24-9.68,14.87-4.43,32.84a3.4,3.4,0,0,1-2.31,4.22A2.51,2.51,0,0,1,58,265.64Z"/><path class="cls-23" d="M69.94,210.18l.49,1.12a.81.81,0,0,0,1.07.42.82.82,0,0,0,.42-1.07l-.5-1.12,0-.06-1.47.64S69.93,210.16,69.94,210.18Z"/><path class="cls-7" d="M70.36,209.11a.81.81,0,0,0-.44,1l1.47-.64A.81.81,0,0,0,70.36,209.11Z"/><path class="cls-23" d="M61.93,221.58h0A3.13,3.13,0,0,1,57.82,220l-6.15-14a3.13,3.13,0,0,1,1.61-4.11h0a3.12,3.12,0,0,1,4.11,1.61l6.15,14A3.13,3.13,0,0,1,61.93,221.58Z"/><path class="cls-18" d="M62.09,209.77a3.28,3.28,0,1,1-4.32-1.69A3.27,3.27,0,0,1,62.09,209.77Z"/><path class="cls-22" d="M60.92,210.28a2,2,0,1,1-2.64-1A2,2,0,0,1,60.92,210.28Z"/><path class="cls-14" d="M59.5,266.6l-4.79,2.51a3.4,3.4,0,0,1-4.58-1.44h0a3.39,3.39,0,0,1,1.43-4.58l4.79-2.51A3.42,3.42,0,0,1,60.94,262h0A3.42,3.42,0,0,1,59.5,266.6Z"/><path class="cls-14" d="M58,267.65l.89-2.89a1.6,1.6,0,0,1,2-1.05h0a1.59,1.59,0,0,1,1,2L61,268.58a1.58,1.58,0,0,1-2,1.05h0A1.6,1.6,0,0,1,58,267.65Z"/><path class="cls-18" d="M105.91,251.85h0a8.52,8.52,0,0,0-9.69-7.11l-3.19.49L95.61,262l3.19-.49A8.52,8.52,0,0,0,105.91,251.85Z"/><path class="cls-7" d="M137.82,182.8s-.66,31.52-5.44,43.28a3.51,3.51,0,0,0,2.85,4.81c11.68,1.33,38.13,3.67,50.66-.73,0,0-8.18-34.58-7-53.32Z"/><polygon class="cls-1" points="188.63 47.19 46.56 47.19 46.56 197.5 46.56 214.91 46.56 297.3 188.56 297.3 188.56 214.91 188.63 214.91 188.63 47.19"/></g></g></g></svg>