<?xml version="1.0" encoding="utf-8"?>
<!-- Generator: Adobe Illustrator 25.2.3, SVG Export Plug-In . SVG Version: 6.00 Build 0)  -->
<svg version="1.1" id="Layer_1" xmlns="http://www.w3.org/2000/svg" xmlns:xlink="http://www.w3.org/1999/xlink" x="0px" y="0px"
	 viewBox="0 0 234.3 380" style="enable-background:new 0 0 234.3 380;" xml:space="preserve">
<style type="text/css">
	.st0{fill:#F4B155;}
	.st1{fill:#FFF0CC;}
	.st2{fill:#231F20;}
	.st3{clip-path:url(#SVGID_2_);}
	.st4{fill:#A4F6FF;}
	.st5{fill:#C97167;}
	.st6{fill:#74C7A7;}
	.st7{fill:#FFFFFF;}
	.st8{fill:#54585E;}
	.st9{fill:#F1F2F2;}
	.st10{fill:#DFD7CB;}
	.st11{fill:#F5F3EF;}
	.st12{fill:#8A7E70;}
	.st13{fill:#E6E7E8;}
	.st14{fill:#E4E6E1;}
	.st15{fill:#F5B155;}
	.st16{fill:#6ED3D3;}
	.st17{fill:#47372E;}
	.st18{fill:#4A355B;}
	.st19{fill:#FFD150;}
	.st20{fill:#E4705E;}
	.st21{fill:#F4B055;}
	.st22{fill:#414042;}
	.st23{fill:#5BC4B8;}
	.st24{fill:#563E32;}
	.st25{fill:#80EAED;}
	.st26{fill:#FFD351;}
	.st27{fill:none;}
</style>
<g id="Layer_2_1_">
	<g id="Layer_1-2">
		<path class="st0" d="M234.3,14.4v351.1c-0.1,8.1-6.8,14.6-14.9,14.5c0,0,0,0,0,0H14.9c-8.1,0.1-14.8-6.3-14.9-14.5c0,0,0,0,0,0
			V14.4C0,6.5,6.7,0,14.9,0h204.4C227.6,0,234.3,6.5,234.3,14.4z M221.7,357.2V22.8c0-5.9-4.8-10.8-10.8-10.8H23.3
			c-5.9,0-10.8,4.8-10.8,10.8v334.4c0,6,4.8,10.8,10.8,10.8c0,0,0,0,0,0h187.6C216.9,368,221.7,363.2,221.7,357.2
			C221.7,357.2,221.7,357.2,221.7,357.2z"/>
		<path class="st1" d="M23.3,12h187.6c6,0,10.8,4.8,10.8,10.8v334.4c0,6-4.8,10.8-10.8,10.8H23.3c-6,0-10.8-4.8-10.8-10.8V22.8
			C12.6,16.8,17.4,12,23.3,12z"/>
		<path class="st2" d="M45.1,330.7c-0.8-0.2-1.5-0.4-2.1-0.9c-0.2-0.1-0.3-0.2-0.3-0.3c0-0.1,0-0.2,0.1-0.2l0.6-1
			c0.1-0.1,0.2-0.2,0.2-0.2c0.1,0,0.2,0,0.2,0.1c0.5,0.3,1.1,0.5,1.7,0.7c0.6,0.2,1.3,0.3,1.9,0.3c0.7,0,1.4-0.1,2-0.4
			c0.5-0.3,0.7-0.9,0.7-1.4c0-0.3-0.1-0.7-0.3-0.9c-0.2-0.3-0.4-0.5-0.7-0.6c-0.5-0.3-1-0.5-1.6-0.7l-0.5-0.2
			c-0.7-0.3-1.4-0.6-2.1-1c-0.5-0.3-1-0.7-1.4-1.2c-0.4-0.5-0.6-1.2-0.5-1.9c-0.1-1.1,0.4-2.2,1.4-2.8c1.1-0.7,2.3-1.1,3.6-1
			c0.8,0,1.6,0.1,2.3,0.2c0.6,0.2,1.2,0.4,1.7,0.8c0.1,0.1,0.2,0.2,0.2,0.3c0,0.1,0,0.2-0.1,0.2l-0.6,1c-0.1,0.1-0.2,0.2-0.2,0.2
			c-0.1,0-0.2-0.1-0.2-0.1c-0.9-0.6-2-0.8-3.1-0.8c-0.7,0-1.3,0.1-1.9,0.5c-0.6,0.6-0.8,1.6-0.4,2.4c0.2,0.3,0.5,0.5,0.8,0.6
			c0.3,0.2,0.9,0.4,1.6,0.7l0.5,0.2c0.8,0.3,1.5,0.6,2.2,1c0.5,0.3,0.9,0.7,1.2,1.2c0.3,0.6,0.5,1.2,0.4,1.8
			c0.1,1.1-0.4,2.1-1.3,2.8c-1.1,0.7-2.3,1.1-3.6,1C46.9,331,46,330.9,45.1,330.7z"/>
		<path class="st2" d="M54.8,330.5c-0.1-0.1-0.2-0.3-0.2-0.5v-11.9c0-0.2,0-0.4,0.2-0.5c0.2-0.1,0.4-0.2,0.6-0.2h1
			c0.3-0.1,0.7,0.2,0.7,0.5c0,0.1,0,0.1,0,0.2V330c0.1,0.3-0.2,0.7-0.5,0.7c-0.1,0-0.1,0-0.2,0h-1C55.1,330.7,54.9,330.6,54.8,330.5
			z"/>
		<path class="st2" d="M59.1,330.6c-0.1,0-0.1-0.1-0.1-0.2c0-0.1,0-0.2,0.1-0.3l4.7-6.3l-4.5-6c-0.1-0.1-0.1-0.2-0.1-0.3
			c0-0.1,0-0.1,0.1-0.2c0.1,0,0.2-0.1,0.2-0.1h1.8c0.1,0,0.2,0,0.3,0c0.1,0,0.1,0.1,0.2,0.2l3.3,4.4l3.3-4.4
			c0.1-0.1,0.1-0.1,0.2-0.2c0.1,0,0.2-0.1,0.3,0h1.8c0.1,0,0.2,0,0.2,0.1c0.1,0,0.1,0.1,0.1,0.2c0,0.1,0,0.2-0.1,0.3l-4.5,6l4.7,6.3
			c0.1,0.1,0.1,0.2,0.1,0.3c0,0.1,0,0.2-0.1,0.2c-0.1,0.1-0.1,0.1-0.2,0.1h-1.8c-0.1,0-0.2,0-0.3,0c-0.1,0-0.1-0.1-0.2-0.2l-3.6-4.7
			l-3.6,4.7c0,0.1-0.1,0.1-0.2,0.2c-0.1,0-0.2,0-0.3,0h-1.8C59.3,330.7,59.2,330.7,59.1,330.6z"/>
		<path class="st2" d="M82.4,329.1c-2.3-3-2.3-7.2,0-10.3c2.9-2.4,7.1-2.4,9.9,0c2.3,3,2.3,7.2,0,10.3
			C89.4,331.6,85.2,331.6,82.4,329.1z M90.5,327.8c1.4-2.3,1.4-5.3,0-7.6c-1.7-1.7-4.5-1.7-6.3,0c-1.5,2.3-1.5,5.3,0,7.6
			C85.9,329.6,88.7,329.6,90.5,327.8C90.5,327.8,90.5,327.8,90.5,327.8z"/>
		<path class="st2" d="M96.1,330.5c-0.1-0.1-0.2-0.3-0.2-0.5v-11.9c0-0.2,0-0.4,0.2-0.5c0.2-0.1,0.4-0.2,0.6-0.2h8.1
			c0.2,0,0.4,0,0.5,0.2c0.1,0.2,0.2,0.3,0.2,0.5v0.5c0,0.2,0,0.4-0.2,0.5c-0.1,0.1-0.3,0.2-0.5,0.2h-6.4v3.8h4.6
			c0.2,0,0.4,0,0.6,0.2c0.1,0.2,0.2,0.3,0.2,0.5v0.5c0,0.2,0,0.4-0.2,0.5c-0.2,0.1-0.4,0.2-0.6,0.2h-4.6v5c0,0.2,0,0.4-0.2,0.5
			c-0.2,0.1-0.4,0.2-0.6,0.2h-1C96.5,330.7,96.3,330.6,96.1,330.5z"/>
		<path class="st2" d="M116.7,330.7c-0.8-0.2-1.5-0.4-2.1-0.9c-0.2-0.1-0.2-0.2-0.2-0.3c0-0.1,0-0.2,0.1-0.2l0.7-1
			c0.1-0.1,0.2-0.2,0.2-0.2c0.1,0,0.2,0,0.2,0.1c0.5,0.3,1.1,0.5,1.7,0.7c0.6,0.2,1.3,0.3,1.9,0.3c0.7,0,1.4-0.1,2-0.4
			c0.7-0.6,0.9-1.6,0.4-2.4c-0.2-0.3-0.4-0.5-0.7-0.6c-0.5-0.3-1-0.5-1.6-0.7l-0.4-0.2c-0.7-0.3-1.4-0.6-2.1-1
			c-0.5-0.3-1-0.7-1.4-1.2c-1-1.5-0.6-3.5,0.8-4.6c1.1-0.7,2.3-1.1,3.6-1c0.8,0,1.6,0.1,2.3,0.2c0.6,0.1,1.2,0.4,1.7,0.8
			c0.1,0.1,0.2,0.2,0.2,0.3c0,0.1,0,0.2-0.1,0.2l-0.6,1c-0.1,0.1-0.1,0.2-0.2,0.2c-0.1,0-0.2-0.1-0.3-0.1c-0.9-0.6-2-0.8-3.1-0.8
			c-0.7,0-1.3,0.1-1.9,0.5c-0.4,0.3-0.7,0.9-0.6,1.4c0,0.4,0.1,0.7,0.3,1c0.2,0.3,0.5,0.5,0.8,0.6c0.3,0.2,0.9,0.4,1.7,0.7l0.5,0.2
			c0.8,0.3,1.5,0.6,2.2,1c0.5,0.3,0.9,0.7,1.2,1.2c0.3,0.6,0.5,1.2,0.4,1.8c0.1,1.1-0.4,2.1-1.3,2.7c-1.1,0.7-2.3,1.1-3.6,1
			C118.5,331,117.6,330.9,116.7,330.7z"/>
		<path class="st2" d="M129.1,330.6c-0.1-0.1-0.2-0.2-0.2-0.4l-3.1-12.4c0-0.1,0-0.1,0-0.2c0-0.2,0.1-0.3,0.4-0.3h1.6
			c0.1,0,0.3,0,0.4,0.1c0.1,0.1,0.1,0.2,0.1,0.3l2,8.6l2.4-7.6c0-0.1,0.1-0.2,0.2-0.3c0.1-0.1,0.2-0.1,0.4-0.1h0.9
			c0.1,0,0.3,0,0.4,0.1c0.1,0.1,0.2,0.2,0.2,0.3l2.4,7.6l1.9-8.6c0-0.1,0.1-0.2,0.2-0.3c0.1-0.1,0.3-0.1,0.4-0.1h1.6
			c0.2,0,0.4,0.1,0.4,0.3c0,0.1,0,0.1,0,0.2l-3.1,12.4c0,0.3-0.3,0.5-0.6,0.5h-1.1c-0.1,0-0.3,0-0.4-0.1c-0.1-0.1-0.2-0.2-0.2-0.4
			l-2.4-7.8l-2.4,7.8c0,0.1-0.1,0.3-0.2,0.4c-0.1,0.1-0.3,0.1-0.4,0.1h-1.1C129.5,330.7,129.3,330.7,129.1,330.6z"/>
		<path class="st2" d="M143.5,329.1c-2.3-3-2.3-7.2,0-10.3c2.9-2.4,7.1-2.4,9.9,0c2.3,3,2.3,7.2,0,10.3
			C150.6,331.6,146.4,331.6,143.5,329.1z M151.6,327.8c1.4-2.3,1.4-5.3,0-7.6c-1.7-1.7-4.5-1.7-6.3,0c-1.5,2.3-1.5,5.3,0,7.6
			C147.1,329.6,149.9,329.6,151.6,327.8C151.6,327.8,151.6,327.8,151.6,327.8z"/>
		<path class="st2" d="M157.2,330.5c-0.1-0.1-0.2-0.3-0.2-0.5v-11.9c0-0.2,0-0.4,0.2-0.5c0.2-0.1,0.4-0.2,0.6-0.2h5.1
			c1.2-0.1,2.5,0.3,3.4,1.1c0.8,0.8,1.3,2,1.2,3.1c0,0.8-0.2,1.6-0.6,2.3c-0.5,0.7-1.1,1.2-1.9,1.5l2.2,4.8c0,0.1,0.1,0.1,0.1,0.2
			c0,0.2-0.1,0.3-0.4,0.3h-1.6c-0.1,0-0.3,0-0.4-0.1c-0.1-0.1-0.2-0.2-0.2-0.3l-2-4.6h-3.1v4.3c0,0.2,0,0.4-0.2,0.5
			c-0.2,0.1-0.4,0.2-0.6,0.2h-1C157.6,330.7,157.4,330.6,157.2,330.5z M162.4,323.8c0.7,0.1,1.4-0.1,2-0.5c0.5-0.4,0.7-1.1,0.6-1.7
			c0.1-0.6-0.2-1.3-0.6-1.7c-0.5-0.4-1.1-0.6-1.8-0.5h-3.1v4.5H162.4z"/>
		<path class="st2" d="M169.6,330.5c-0.1-0.1-0.2-0.3-0.2-0.5v-11.9c0-0.2,0-0.4,0.2-0.5c0.2-0.1,0.4-0.2,0.6-0.2h3.9
			c1.8-0.1,3.6,0.4,5.1,1.6c1.2,1.1,1.8,2.8,1.8,5.1c0,4.4-2.3,6.7-6.8,6.7h-3.9C170,330.7,169.8,330.6,169.6,330.5z M174.3,328.8
			c1.1,0.1,2.3-0.3,3.1-1.1c1.4-2.3,1.4-5.1,0-7.4c-0.8-0.8-2-1.2-3.1-1.1H172v9.5H174.3z"/>
		<path class="st2" d="M184,330.7c-0.8-0.2-1.5-0.4-2.1-0.9c-0.2-0.1-0.3-0.2-0.3-0.3c0-0.1,0-0.2,0.1-0.2l0.6-1
			c0.1-0.1,0.1-0.2,0.2-0.2c0.1,0,0.2,0,0.3,0.1c0.5,0.3,1.1,0.5,1.7,0.7c0.6,0.2,1.3,0.3,1.9,0.3c0.7,0,1.4-0.1,2-0.4
			c0.7-0.6,0.9-1.6,0.4-2.4c-0.2-0.3-0.5-0.5-0.8-0.6c-0.5-0.3-1-0.5-1.6-0.7l-0.4-0.2c-0.7-0.3-1.4-0.6-2.1-1
			c-0.5-0.3-1-0.7-1.4-1.2c-1-1.5-0.6-3.5,0.8-4.6c1.1-0.7,2.3-1.1,3.6-1c0.8,0,1.6,0.1,2.3,0.2c0.6,0.1,1.2,0.4,1.7,0.8
			c0.1,0.1,0.2,0.2,0.2,0.3c0,0.1,0,0.2-0.1,0.2l-0.6,1c-0.1,0.1-0.1,0.2-0.2,0.2c-0.1,0-0.2-0.1-0.3-0.1c-0.9-0.6-2-0.8-3.1-0.8
			c-0.7,0-1.3,0.1-1.9,0.5c-0.4,0.3-0.7,0.9-0.6,1.4c0,0.4,0.1,0.7,0.3,1c0.2,0.3,0.5,0.5,0.8,0.6c0.3,0.2,0.9,0.4,1.6,0.7l0.5,0.2
			c0.8,0.3,1.5,0.6,2.2,1c0.5,0.3,0.9,0.7,1.2,1.2c0.3,0.6,0.5,1.2,0.4,1.8c0,1-0.4,2-1.3,2.6c-1.1,0.7-2.3,1.1-3.6,1
			C185.8,330.9,184.9,330.9,184,330.7z"/>
		<g>
			<defs>
				<path id="SVGID_1_" d="M52.9,43.9h128.6c13.6,0,24.7,11.1,24.7,24.7v191.7c0,13.6-11.1,24.7-24.7,24.7H52.9
					c-13.6,0-24.7-11.1-24.7-24.7V68.6C28.1,55,39.2,43.9,52.9,43.9z"/>
			</defs>
			<clipPath id="SVGID_2_">
				<use xlink:href="#SVGID_1_"  style="overflow:visible;"/>
			</clipPath>
			<g class="st3">
				<rect x="17.6" y="12" class="st4" width="202.8" height="288.3"/>
				<path class="st5" d="M229,209.5c0.1,0,0.2-0.1,0.2-0.2c0.1-0.2,0-0.5-0.1-0.7c-1.7-4.1-3.6-8-5.8-11.9c-1.8-3.1-3.8-6.2-6.4-8.2
					c-2.9-2.2-6.2-6.6-9.6-6.9c-2.1-0.2-4.3,3.6-6.3,2.8s-3.5-2.3-5.4-3c-1.7-0.6-3.5-0.9-5.3-0.8c-5.4-0.2-11-0.3-16.1,2.1
					c-1.4,0.6-2.6,1.4-4,2c-5.4,2.1-11.4,0-16.7,2.1s-9.2,8-12.5,13.7c-1.5,2.4-2.7,4.9-3.6,7.6c-0.2,0.6-0.4,1.1-0.5,1.5L229,209.5
					z"/>
				<path class="st6" d="M214.4,186.6c-0.1,0.3-0.8,0.3-1.6,0.1s-1.4-0.6-1.3-0.9s0.8-0.3,1.6-0.1S214.5,186.4,214.4,186.6z"/>
				<path class="st6" d="M215.1,184.6c0.2-0.1,0.4-0.2,0.4-0.4c0.1-0.4-0.4-1-1.2-1.2l-0.5-0.1c-0.3-0.3-0.6-0.5-1-0.6h-0.1
					c0,0,0.1-0.1,0.1-0.1c0.1-0.4-0.4-1-1.2-1.2s-1.6-0.1-1.7,0.4c0,0.1,0,0.1,0,0.2c-0.1-0.1-0.3-0.1-0.4-0.2
					c-0.8-0.2-1.6,0-1.7,0.4c0,0.2,0.1,0.5,0.2,0.7c-0.7-0.2-1.4,0-1.5,0.4s0.4,1,1.2,1.2c0.4,0.2,0.9,0.2,1.4,0
					c0.2,0.1,0.5,0.2,0.7,0.3c0.4,0.2,0.9,0.2,1.4,0c0.3,0.3,0.7,0.5,1.1,0.6c0.3,0.1,0.7,0.1,1,0.1c-0.1,0.4,0.5,0.9,1.2,1.1
					s1.6,0,1.7-0.4S215.8,184.9,215.1,184.6z"/>
				<path class="st6" d="M217.3,188.6c0.2-0.1,0.3-0.2,0.4-0.4c0.1-0.4-0.4-0.9-1.1-1.1h-0.2c0.1-0.1,0.1-0.1,0.1-0.2
					c0.1-0.4-0.4-0.9-1.1-1.1c-0.2,0-0.3-0.1-0.5-0.1c-0.2-0.5-0.6-0.9-1.1-1c-0.7-0.2-1.4,0-1.6,0.5c0,0,0,0,0,0.1
					c-0.2-0.1-0.4-0.2-0.6-0.3c-0.4-0.1-0.9-0.1-1.3,0.1c-0.2-0.3-0.4-0.5-0.7-0.6c0.1-0.1,0.1-0.2,0.1-0.2c0.1-0.5-0.4-1-1.1-1.2
					c-0.5-0.2-1.2-0.1-1.5,0.4c-0.2-0.1-0.4-0.3-0.7-0.3c-0.7-0.2-1.4,0-1.6,0.5c0,0.1,0,0.2,0,0.4c-0.6-0.1-1.2,0.1-1.3,0.4
					s0.4,0.9,1.1,1.1h0.2c0,0,0,0.1-0.1,0.1c-0.1,0.4,0.4,0.9,1.1,1.1s1.4,0,1.5-0.4c0-0.3-0.1-0.5-0.3-0.7c0.5-0.1,1.1,0,1.5,0.4
					c0,0-0.1,0.1-0.1,0.1c-0.1,0.4,0.4,0.9,1.1,1.1c0.3,0.1,0.7,0.1,1.1,0l0,0c0,0-0.1,0.1-0.1,0.2c-0.1,0.4,0.4,0.9,1.1,1.1
					s1.4,0,1.5-0.4c0.1,0.1,0.2,0.1,0.3,0.1c0.7,0.2,1.3,0.1,1.5-0.3c0.1,0.1,0.3,0.2,0.5,0.3c0,0-0.1,0.1-0.1,0.2
					c-0.1,0.3,0.3,0.7,0.9,0.8s1.1,0,1.1-0.3S217.6,188.8,217.3,188.6z"/>
				<path class="st6" d="M210.4,184.2c-0.1,0.3-1,0.4-2,0.1s-1.7-0.8-1.6-1.1s1-0.4,2-0.1S210.5,183.9,210.4,184.2z"/>
				<path class="st6" d="M211.2,183c0.3-0.1,0.5-0.3,0.6-0.5c0.1-0.5-0.5-1.2-1.5-1.5c-0.2,0-0.4-0.1-0.6-0.1
					c-0.4-0.4-0.8-0.6-1.3-0.8h-0.2c0-0.1,0.1-0.1,0.1-0.2c0.1-0.5-0.5-1.2-1.5-1.5s-1.9-0.1-2.1,0.5c0,0.1,0,0.2,0,0.2
					c-0.2-0.1-0.4-0.2-0.6-0.2c-1-0.3-1.9-0.1-2.1,0.5c-0.1,0.3,0.1,0.6,0.3,0.8c-0.9-0.2-1.7,0-1.9,0.5s0.5,1.2,1.5,1.5
					c0.6,0.2,1.2,0.2,1.7-0.1c0.3,0.2,0.6,0.3,0.9,0.4c0.5,0.2,1.1,0.2,1.7,0c0.4,0.3,0.8,0.6,1.3,0.7c0.4,0.1,0.8,0.2,1.2,0.1
					c-0.1,0.5,0.6,1.2,1.6,1.4s1.9,0.1,2.1-0.5S212,183.3,211.2,183z"/>
				<path class="st6" d="M214,186.7c0.2-0.1,0.4-0.2,0.4-0.4c0.1-0.5-0.5-1.1-1.4-1.4h-0.2c0.1-0.1,0.1-0.2,0.2-0.3
					c0.1-0.5-0.5-1.1-1.4-1.4c-0.2-0.1-0.4-0.1-0.6-0.1c-0.2-0.6-0.7-1.1-1.4-1.2c-0.9-0.2-1.8,0-1.9,0.6c0,0,0,0.1,0,0.1
					c-0.2-0.2-0.5-0.3-0.8-0.4c-0.5-0.2-1.1-0.2-1.6,0.1c-0.2-0.3-0.5-0.6-0.9-0.8c0.1-0.1,0.1-0.2,0.1-0.3c0.2-0.6-0.4-1.3-1.3-1.5
					c-0.7-0.3-1.4-0.1-1.9,0.5c-0.2-0.2-0.5-0.3-0.8-0.4c-0.9-0.2-1.8,0-1.9,0.6c0,0.2,0,0.3,0,0.5c-0.8-0.1-1.5,0.1-1.6,0.5
					s0.5,1.1,1.4,1.3l0.3,0.1c0,0-0.1,0.1-0.1,0.1c-0.1,0.5,0.5,1.1,1.4,1.4s1.8,0.1,1.9-0.4c0-0.3-0.1-0.6-0.4-0.8
					c0.3,0.1,0.7,0.1,1,0c0.3,0.2,0.6,0.4,0.9,0.5c0,0.1-0.1,0.1-0.1,0.2c-0.1,0.5,0.5,1.1,1.4,1.3c0.4,0.1,0.9,0.1,1.3,0l0,0
					c0,0.1-0.1,0.1-0.1,0.2c-0.1,0.5,0.5,1.1,1.4,1.3s1.8,0.1,1.9-0.4l0.4,0.1c0.9,0.2,1.7,0.1,1.9-0.4c0.2,0.2,0.4,0.3,0.6,0.4
					c-0.1,0.1-0.1,0.1-0.1,0.2c-0.1,0.4,0.4,0.8,1.1,1s1.3,0,1.4-0.3S214.3,186.9,214,186.7z"/>
				<rect x="188.9" y="176.5" class="st7" width="10.1" height="7.6"/>
				<rect x="190" y="178" class="st8" width="1.6" height="1.6"/>
				<rect x="193.2" y="178" class="st8" width="1.6" height="1.6"/>
				<rect x="196.4" y="178" class="st8" width="1.6" height="1.6"/>
				<rect x="190" y="180.5" class="st8" width="1.6" height="1.6"/>
				<rect x="193.2" y="180.5" class="st8" width="1.6" height="1.6"/>
				<rect x="196.4" y="180.5" class="st8" width="1.6" height="1.6"/>
				<path class="st9" d="M200.2,176.5h-12.4c-0.1,0-0.1-0.1-0.1-0.1c0,0,0-0.1,0.1-0.1l5.8-3.6c0.3-0.2,0.6-0.2,0.9,0l5.8,3.6
					c0.1,0,0.1,0.1,0,0.2C200.3,176.5,200.3,176.5,200.2,176.5z"/>
				<path class="st6" d="M193,181.5c0,0.3-0.6,0.5-1.4,0.5s-1.4-0.2-1.4-0.5s0.6-0.5,1.4-0.5S193,181.2,193,181.5z"/>
				<path class="st6" d="M193.1,179.3c0.2-0.1,0.3-0.3,0.3-0.5c0-0.4-0.6-0.8-1.4-0.8c-0.1,0-0.3,0-0.4,0c-0.3-0.2-0.7-0.3-1.1-0.3
					h-0.1c0,0,0-0.1,0-0.1c0-0.4-0.6-0.8-1.4-0.8s-1.4,0.4-1.4,0.8c0,0.1,0,0.1,0,0.2c-0.1,0-0.3,0-0.4,0c-0.8,0-1.4,0.4-1.4,0.8
					c0,0.2,0.2,0.5,0.4,0.6c-0.7,0-1.2,0.4-1.2,0.8s0.6,0.8,1.4,0.8c0.4,0,0.9-0.1,1.2-0.4c0.2,0.1,0.5,0.1,0.7,0.1
					c0.4,0,0.9-0.1,1.2-0.4c0.3,0.2,0.7,0.3,1.1,0.3c0.3,0,0.6,0,0.9-0.1c0,0.4,0.6,0.8,1.4,0.8s1.4-0.4,1.4-0.8
					S193.8,179.4,193.1,179.3z"/>
				<path class="st6" d="M196.1,182.6c0.1-0.1,0.2-0.3,0.2-0.4c0-0.4-0.6-0.8-1.3-0.8h-0.2c0-0.1,0.1-0.1,0.1-0.2
					c0-0.4-0.6-0.8-1.3-0.8c-0.2,0-0.3,0-0.5,0.1c-0.3-0.4-0.7-0.7-1.2-0.7c-0.7,0-1.3,0.4-1.3,0.9c0,0,0,0,0,0.1
					c-0.2-0.1-0.4-0.1-0.7-0.1c-0.4,0-0.8,0.1-1.1,0.4c-0.2-0.2-0.5-0.4-0.8-0.4c0-0.1,0-0.2,0.1-0.3c0-0.5-0.6-0.9-1.3-0.9
					c-0.6-0.1-1.1,0.3-1.3,0.8c-0.2-0.1-0.4-0.1-0.7-0.1c-0.7,0-1.3,0.4-1.3,0.9c0,0.1,0,0.2,0.1,0.4c-0.6,0.1-1.1,0.4-1.1,0.7
					s0.6,0.8,1.3,0.8h0.2c0,0,0,0.1,0,0.1c0,0.4,0.6,0.8,1.3,0.8s1.3-0.3,1.3-0.8c0-0.3-0.2-0.5-0.4-0.6c0.3,0,0.5-0.1,0.7-0.2
					c0.2,0.1,0.5,0.2,0.8,0.2c0,0.1,0,0.1,0,0.2c0,0.4,0.6,0.8,1.3,0.8c0.4,0,0.7-0.1,1-0.2l0,0c0,0.1,0,0.1,0,0.2
					c0,0.4,0.6,0.8,1.3,0.8s1.3-0.3,1.3-0.8h0.3c0.7,0,1.2-0.3,1.3-0.7c0.2,0.1,0.3,0.1,0.5,0.2c0,0.1-0.1,0.1-0.1,0.2
					c0,0.3,0.4,0.6,1,0.6s1-0.2,1-0.6S196.4,182.7,196.1,182.6z"/>
				<path class="st6" d="M188.7,180.2c0,0.3-0.8,0.6-1.8,0.6s-1.8-0.3-1.8-0.6s0.8-0.6,1.8-0.6S188.7,179.9,188.7,180.2z"/>
				<path class="st6" d="M189.1,178.8c0.2-0.1,0.4-0.4,0.4-0.6c0-0.6-0.8-1-1.8-1c-0.2,0-0.4,0-0.5,0.1c-0.4-0.3-0.9-0.4-1.4-0.4
					h-0.2c0-0.1,0-0.1,0-0.2c0-0.6-0.8-1-1.8-1s-1.8,0.5-1.8,1c0,0.1,0,0.2,0,0.2c-0.2,0-0.4-0.1-0.6-0.1c-1,0-1.8,0.4-1.8,1
					c0,0.3,0.2,0.6,0.5,0.7c-0.9,0.1-1.6,0.5-1.6,1s0.8,1,1.8,1c0.6,0,1.1-0.2,1.5-0.5c0.3,0.1,0.6,0.1,0.9,0.1
					c0.5,0,1.1-0.2,1.5-0.5c0.4,0.2,0.9,0.3,1.4,0.3c0.4,0,0.8-0.1,1.1-0.2c0,0.5,0.8,1,1.8,1s1.8-0.4,1.8-1
					S189.9,178.9,189.1,178.8z"/>
				<path class="st6" d="M192.6,181.6c0.2-0.1,0.3-0.3,0.3-0.5c0-0.5-0.7-0.9-1.6-0.9h-0.2c0.1-0.1,0.1-0.2,0.1-0.3
					c0-0.5-0.7-0.9-1.6-0.9c-0.2,0-0.4,0-0.6,0.1c-0.3-0.5-0.9-0.9-1.5-0.8c-0.9,0-1.6,0.5-1.6,1.1c0,0,0,0.1,0,0.1
					c-0.3-0.1-0.5-0.1-0.8-0.1c-0.5,0-1,0.1-1.4,0.5c-0.3-0.3-0.6-0.4-1-0.5c0-0.1,0.1-0.2,0.1-0.3c0-0.6-0.7-1.1-1.6-1.1
					c-0.7-0.1-1.4,0.3-1.6,1c-0.3-0.1-0.6-0.2-0.8-0.2c-0.9,0-1.6,0.5-1.6,1.1c0,0.2,0,0.3,0.1,0.4c-0.8,0.1-1.3,0.5-1.3,0.9
					s0.7,0.9,1.6,0.9h0.3c0,0.1,0,0.1,0,0.2c0,0.5,0.7,0.9,1.6,0.9s1.6-0.4,1.6-0.9c0-0.3-0.3-0.6-0.6-0.7c0.3,0,0.6-0.1,0.9-0.3
					c0.3,0.2,0.6,0.2,0.9,0.2c0,0.1,0,0.1,0,0.2c0,0.5,0.7,0.9,1.6,0.9c0.4,0,0.8-0.1,1.2-0.3l0,0c0,0.1,0,0.1,0,0.2
					c0,0.5,0.7,0.9,1.6,0.9s1.6-0.4,1.6-0.9c0.1,0,0.3,0,0.4,0c0.8,0,1.5-0.4,1.6-0.9c0.2,0.1,0.4,0.2,0.6,0.2
					c0,0.1-0.1,0.1-0.1,0.2c0,0.4,0.6,0.7,1.2,0.7s1.2-0.3,1.2-0.7S192.9,181.8,192.6,181.6z"/>
				<path class="st6" d="M174.7,184.2c0,0.3-0.6,0.6-1.4,0.7s-1.5,0-1.6-0.3s0.6-0.6,1.4-0.7S174.6,183.9,174.7,184.2z"/>
				<path class="st6" d="M174.6,182.1c0.2-0.1,0.3-0.3,0.3-0.6c-0.1-0.4-0.8-0.7-1.6-0.6c-0.2,0-0.3,0-0.5,0.1
					c-0.4-0.2-0.8-0.2-1.2-0.1h-0.1c0,0,0-0.1,0-0.1c-0.1-0.4-0.8-0.7-1.6-0.6s-1.4,0.6-1.4,1c0,0.1,0,0.1,0.1,0.2
					c-0.2,0-0.3,0-0.5,0c-0.8,0.1-1.4,0.6-1.4,1c0.1,0.2,0.2,0.4,0.5,0.5c-0.7,0.1-1.3,0.6-1.2,1s0.8,0.7,1.6,0.6
					c0.5,0,0.9-0.2,1.2-0.6c0.3,0,0.5,0,0.8,0c0.5,0,0.9-0.2,1.2-0.6c0.4,0.1,0.8,0.2,1.2,0.1c0.3,0,0.6-0.1,0.9-0.3
					c0.1,0.4,0.8,0.7,1.6,0.6s1.4-0.6,1.4-1S175.3,182.1,174.6,182.1z"/>
				<path class="st6" d="M178.1,184.9c0.1-0.1,0.2-0.3,0.2-0.4c-0.1-0.4-0.7-0.7-1.5-0.6h-0.2c0-0.1,0-0.2,0-0.2
					c-0.1-0.4-0.7-0.7-1.5-0.6c-0.2,0-0.3,0.1-0.5,0.1c-0.3-0.4-0.9-0.6-1.4-0.5c-0.8,0.1-1.3,0.6-1.2,1.1c0,0,0,0,0,0.1
					c-0.2,0-0.5,0-0.7,0c-0.4,0-0.9,0.2-1.2,0.6c-0.3-0.2-0.6-0.3-0.9-0.3c0-0.1,0-0.2,0-0.3c-0.1-0.5-0.7-0.8-1.5-0.7
					s-1.2,0.5-1.2,0.9c-0.2,0-0.5,0-0.7,0c-0.8,0.1-1.3,0.6-1.2,1.1c0,0.1,0.1,0.2,0.2,0.3c-0.6,0.1-1.1,0.5-1,0.9s0.7,0.7,1.5,0.6
					l0.2-0.1c0,0,0,0.1,0,0.1c0,0.4,0.7,0.7,1.5,0.6s1.3-0.5,1.3-0.9c0-0.2-0.2-0.4-0.5-0.5c0.3-0.1,0.5-0.2,0.7-0.3
					c0.3,0.1,0.5,0.1,0.8,0.1c0,0.1,0,0.1,0,0.2c0.1,0.4,0.7,0.7,1.5,0.6c0.4,0,0.7-0.2,1-0.4l0,0c0,0.1,0,0.1,0,0.2
					c0.1,0.4,0.7,0.7,1.5,0.6s1.3-0.5,1.3-0.9h0.4c0.7-0.1,1.3-0.5,1.3-0.9c0.2,0.1,0.4,0.1,0.6,0.1c0,0.1,0,0.1,0,0.2
					c0,0.3,0.5,0.5,1.1,0.4s1-0.4,1-0.7S178.4,185,178.1,184.9z"/>
				<path class="st6" d="M170,183.5c0,0.4-0.8,0.7-1.8,0.9s-1.9-0.1-1.9-0.4s0.8-0.7,1.8-0.9S170,183.2,170,183.5z"/>
				<path class="st6" d="M170.3,182.1c0.2-0.2,0.3-0.4,0.3-0.7c-0.1-0.6-1-0.9-2-0.8c-0.2,0-0.4,0.1-0.6,0.1c-0.5-0.2-1-0.3-1.5-0.2
					h-0.2c0-0.1,0-0.1,0-0.2c-0.1-0.6-1-0.9-2-0.8s-1.8,0.7-1.7,1.2c0,0.1,0,0.2,0.1,0.2c-0.2,0-0.4,0-0.6,0c-1,0.1-1.8,0.7-1.7,1.2
					c0.1,0.3,0.3,0.5,0.6,0.6c-0.9,0.2-1.6,0.7-1.5,1.2s1,0.9,2,0.8c0.6,0,1.1-0.3,1.5-0.7c0.3,0,0.6,0,0.9,0c0.6,0,1.1-0.3,1.5-0.7
					c0.5,0.2,1,0.2,1.5,0.1c0.4,0,0.8-0.2,1.1-0.3c0.1,0.5,1,0.9,2,0.7s1.8-0.7,1.7-1.2S171.1,182.1,170.3,182.1z"/>
				<path class="st6" d="M174.3,184.4c0.2-0.1,0.2-0.3,0.2-0.6c-0.1-0.5-0.9-0.8-1.8-0.7h-0.2c0-0.1,0.1-0.2,0.1-0.3
					c-0.1-0.5-0.9-0.8-1.8-0.7c-0.2,0-0.4,0.1-0.6,0.1c-0.4-0.5-1.1-0.7-1.7-0.6c-0.9,0.1-1.6,0.7-1.5,1.3c0,0,0,0.1,0,0.1
					c-0.3,0-0.6,0-0.9,0c-0.5,0-1.1,0.3-1.4,0.7c-0.3-0.2-0.7-0.4-1.1-0.4c0-0.1,0-0.2,0-0.3c-0.1-0.6-0.9-1-1.8-0.9
					s-1.5,0.6-1.6,1.2c-0.3-0.1-0.6-0.1-0.9-0.1c-0.9,0.1-1.6,0.7-1.5,1.3c0,0.2,0.1,0.3,0.2,0.4c-0.8,0.2-1.4,0.6-1.3,1.1
					s0.9,0.8,1.8,0.7h0.3c0,0.1,0,0.1,0,0.2c0.1,0.5,0.9,0.8,1.8,0.7s1.6-0.6,1.6-1.1c0-0.3-0.3-0.5-0.7-0.6
					c0.3-0.1,0.6-0.2,0.9-0.4c0.3,0.1,0.7,0.2,1,0.1c0,0.1,0,0.1,0,0.2c0.1,0.5,0.9,0.8,1.8,0.7c0.4,0,0.9-0.2,1.2-0.5h0.1
					c0,0.1,0,0.2,0,0.2c0.1,0.5,0.9,0.8,1.8,0.7s1.6-0.6,1.6-1.1c0.1,0,0.3,0,0.4,0c0.9-0.1,1.6-0.6,1.6-1c0.2,0.1,0.5,0.1,0.7,0.1
					c0,0.1,0,0.2,0,0.2c0,0.4,0.7,0.6,1.4,0.5s1.2-0.5,1.2-0.9S174.7,184.5,174.3,184.4z"/>
				<path class="st9" d="M179.6,176v-0.7c0-3.7-3-6.6-6.6-6.6h-0.1c-3.7,0-6.6,3-6.6,6.6v0.7H179.6z"/>
				<rect x="166.2" y="174.9" class="st10" width="13.4" height="16.9"/>
				<rect x="170.2" y="174.9" class="st11" width="5.3" height="16.9"/>
				<path class="st12" d="M174.4,182.6h-3.1V179c0-0.9,0.7-1.5,1.5-1.5l0,0c0.9,0,1.5,0.7,1.5,1.5L174.4,182.6z"/>
				<path class="st12" d="M178.5,182.6h-2.2V179c0-0.9,0.5-1.5,1.1-1.5l0,0c0.6,0,1.1,0.7,1.1,1.5L178.5,182.6z"/>
				<path class="st12" d="M169.5,182.6h-2.1V179c0-0.9,0.5-1.5,1.1-1.5l0,0c0.6,0,1.1,0.7,1.1,1.5L169.5,182.6z"/>
				<path class="st9" d="M222.6,184.4v-0.5c0-2.7-2.2-4.9-4.9-4.9l0,0h-0.1c-2.7,0-4.9,2.2-4.9,4.8c0,0,0,0,0,0v0.5H222.6z"/>
				<rect x="212.8" y="183.6" class="st10" width="9.8" height="12.4"/>
				<rect x="215.8" y="183.6" class="st11" width="3.9" height="12.4"/>
				<path class="st12" d="M218.9,189.2h-2.3v-2.7c0-0.6,0.5-1.1,1.1-1.1c0,0,0,0,0,0l0,0c0.6,0,1.1,0.5,1.1,1.1L218.9,189.2z"/>
				<path class="st12" d="M221.8,189.2h-1.6v-2.7c0-0.6,0.4-1.1,0.8-1.1l0,0c0.4,0,0.8,0.5,0.8,1.1L221.8,189.2z"/>
				<path class="st12" d="M215.2,189.2h-1.6v-2.7c0-0.6,0.4-1.1,0.8-1.1l0,0c0.4,0,0.8,0.5,0.8,1.1L215.2,189.2z"/>
				<rect x="207.5" y="196.1" class="st7" width="17.6" height="13.4"/>
				<polygon class="st9" points="204.2,197.1 228.5,197.1 222.7,192.2 209.9,192.2 				"/>
				<rect x="211.5" y="200.3" class="st8" width="9.7" height="7.9"/>
				<path class="st7" d="M210.6,199.1v10.4h11.5v-10.4H210.6z M221,208.1h-9.4v-7.7h9.4V208.1z"/>
				<path class="st6" d="M145.6,191c0,0.3,0.7,0.4,1.6,0.4s1.5-0.4,1.5-0.6s-0.7-0.4-1.6-0.4S145.6,190.7,145.6,191z"/>
				<path class="st6" d="M145.3,188.8c-0.2-0.1-0.3-0.3-0.4-0.5c0-0.4,0.6-0.9,1.4-0.9c0.2,0,0.3,0,0.5,0c0.4-0.3,0.8-0.4,1.2-0.4
					h0.1c0,0,0-0.1,0-0.1c0-0.4,0.6-0.9,1.4-0.9s1.5,0.2,1.6,0.7c0,0.1,0,0.1,0,0.2c0.2,0,0.3-0.1,0.5-0.1c0.8-0.1,1.5,0.2,1.6,0.7
					c0,0.3-0.1,0.5-0.4,0.6c0.8,0,1.4,0.3,1.4,0.7s-0.6,0.9-1.4,0.9c-0.5,0.1-0.9,0-1.3-0.3c-0.2,0.1-0.5,0.2-0.8,0.2
					c-0.5,0.1-0.9,0-1.3-0.3c-0.4,0.2-0.8,0.3-1.2,0.4c-0.3,0-0.7,0-1-0.1c0,0.4-0.6,0.8-1.4,0.9s-1.5-0.2-1.6-0.7
					S144.6,189,145.3,188.8z"/>
				<path class="st6" d="M142,192.9c0,0.3,0.5,0.5,1.1,0.5s1-0.3,1-0.6c0-0.1,0-0.1-0.1-0.2c0.2-0.1,0.4-0.1,0.5-0.2
					c0.1,0.4,0.7,0.6,1.4,0.6h0.4c0,0.4,0.7,0.7,1.4,0.6s1.3-0.4,1.3-0.9c0-0.1,0-0.1-0.1-0.2l0,0c0.3,0.1,0.7,0.2,1,0.2
					c0.8-0.1,1.4-0.4,1.3-0.9c0-0.1,0-0.1,0-0.2c0.3,0,0.5-0.1,0.8-0.3c0.2,0.1,0.5,0.1,0.8,0.1c-0.2,0.1-0.4,0.3-0.4,0.6
					c0,0.4,0.7,0.7,1.4,0.6s1.3-0.4,1.3-0.9v-0.1h0.2c0.8-0.1,1.3-0.4,1.3-0.9s-0.6-0.6-1.2-0.6c0.1-0.1,0.1-0.2,0.1-0.4
					c-0.1-0.5-0.7-0.8-1.4-0.8c-0.2,0-0.5,0.1-0.7,0.2c-0.3-0.5-0.9-0.8-1.4-0.7c-0.8,0.1-1.3,0.5-1.3,1c0,0.1,0,0.2,0.1,0.3
					c-0.3,0.1-0.6,0.2-0.8,0.5c-0.4-0.3-0.8-0.4-1.2-0.3c-0.2,0-0.5,0.1-0.7,0.2v-0.1c-0.1-0.5-0.7-0.8-1.4-0.8
					c-0.5,0-1,0.3-1.3,0.8c-0.2,0-0.3,0-0.5,0c-0.8,0.1-1.4,0.5-1.3,0.9c0,0.1,0,0.2,0.1,0.2h-0.2c-0.8,0.1-1.3,0.4-1.3,0.9
					c0,0.2,0.1,0.3,0.3,0.4C142.1,192.5,142,192.7,142,192.9z"/>
				<path class="st6" d="M150,189.3c0,0.3,0.9,0.6,1.9,0.5s1.9-0.4,1.8-0.8s-0.9-0.6-1.9-0.5S150,189,150,189.3z"/>
				<path class="st6" d="M149.5,188c-0.2-0.1-0.4-0.3-0.5-0.6c0-0.6,0.8-1.1,1.8-1.2c0.2,0,0.4,0,0.6,0c0.4-0.3,0.9-0.5,1.4-0.5h0.2
					c0-0.1,0-0.1,0-0.2c-0.1-0.6,0.8-1.1,1.8-1.2s1.9,0.3,1.9,0.9c0,0.1,0,0.2,0,0.2c0.2-0.1,0.4-0.1,0.6-0.1c1-0.1,1.9,0.3,1.9,0.8
					c0,0.3-0.2,0.6-0.5,0.7c0.9,0,1.7,0.4,1.7,0.9s-0.8,1.1-1.8,1.2c-0.6,0.1-1.2,0-1.7-0.4c-0.3,0.1-0.6,0.2-0.9,0.2
					c-0.6,0.1-1.1,0-1.6-0.4c-0.4,0.3-0.9,0.4-1.4,0.4c-0.4,0-0.8,0-1.2-0.1c0,0.5-0.8,1-1.8,1.1s-1.9-0.3-1.9-0.9
					S148.6,188.1,149.5,188z"/>
				<path class="st6" d="M145.5,191.7c0,0.4,0.6,0.6,1.3,0.6s1.2-0.4,1.2-0.8c0-0.1,0-0.2-0.1-0.2c0.2-0.1,0.4-0.2,0.6-0.3
					c0.1,0.5,0.9,0.8,1.8,0.7c0.1,0,0.3,0,0.4-0.1c0,0.5,0.8,0.9,1.8,0.8s1.7-0.6,1.6-1.1c0-0.1,0-0.2-0.1-0.2h0.1
					c0.4,0.2,0.9,0.2,1.3,0.2c0.9-0.1,1.7-0.6,1.6-1.1c0-0.1,0-0.1-0.1-0.2c0.4,0,0.7-0.1,1-0.3c0.3,0.1,0.7,0.2,1,0.2
					c-0.3,0.1-0.5,0.4-0.5,0.7c0.1,0.5,0.9,0.9,1.8,0.8s1.7-0.6,1.6-1.1c0-0.1,0-0.1,0-0.2h0.3c0.9-0.1,1.7-0.6,1.6-1.1
					s-0.7-0.8-1.5-0.8c0.1-0.1,0.1-0.3,0.1-0.4c-0.1-0.6-0.9-1.1-1.8-1c-0.3,0-0.6,0.1-0.9,0.2c-0.3-0.6-1.1-1-1.8-0.8
					c-0.9,0.1-1.6,0.6-1.6,1.3c0,0.1,0,0.2,0.1,0.3c-0.4,0.1-0.7,0.3-1,0.6c-0.5-0.3-1-0.4-1.6-0.4c-0.3,0-0.6,0.1-0.9,0.2
					c0,0,0-0.1,0-0.1c-0.1-0.6-0.9-1-1.8-1c-0.7,0-1.3,0.4-1.6,0.9c-0.2,0-0.4,0-0.6,0c-0.9,0.1-1.7,0.6-1.6,1.1
					c0,0.1,0.1,0.2,0.1,0.3h-0.2c-0.9,0.1-1.7,0.6-1.6,1.1c0,0.2,0.2,0.4,0.4,0.5C145.7,191.3,145.5,191.5,145.5,191.7z"/>
				<rect x="177.5" y="185.3" class="st13" width="18.6" height="18.6"/>
				<rect x="179.7" y="188.3" class="st8" width="2.4" height="2.4"/>
				<rect x="185.6" y="188.3" class="st8" width="2.4" height="2.4"/>
				<rect x="191.6" y="188.3" class="st8" width="2.4" height="2.4"/>
				<rect x="179.7" y="192.9" class="st8" width="2.4" height="2.4"/>
				<rect x="179.7" y="197.6" class="st8" width="2.4" height="2.4"/>
				<rect x="185.6" y="192.9" class="st8" width="2.4" height="2.4"/>
				<rect x="191.6" y="192.9" class="st8" width="2.4" height="2.4"/>
				<rect x="185.6" y="197.6" class="st8" width="2.4" height="2.4"/>
				<rect x="191.6" y="197.6" class="st8" width="2.4" height="2.4"/>
				<path class="st9" d="M198.3,185.3h-22.9c-0.1,0-0.3-0.1-0.3-0.3c0-0.1,0-0.2,0.1-0.2l10.7-6.6c0.5-0.3,1.2-0.3,1.7,0l10.7,6.6
					c0.1,0.1,0.2,0.2,0.1,0.4C198.5,185.3,198.4,185.3,198.3,185.3z"/>
				<path class="st6" d="M186.9,206.5c0-0.1,0.1-0.3,0.1-0.4c-0.5-0.5-1.1-0.9-1.7-1.1c-0.4-0.1-0.6-0.3-0.7-0.7
					c-0.1-0.4-0.3-0.7-0.6-0.9c-0.2-0.1-0.4-0.2-0.6-0.3c-0.1,0-0.2-0.1-0.6-0.4h-0.5c0.1,0.1,0.2,0.1,0.2,0.2
					c0.5,0.6,0.4,0.7,0.7,0.8c0.2,0,0.3,0.1,0.5,0.2c0.2,0.1,0.4,0.4,0.4,0.6c0.1,0.5,0.5,0.9,1.1,1c0.6,0.2,1.2,0.6,1.6,1.1
					C186.8,206.6,186.8,206.6,186.9,206.5z"/>
				<path class="st6" d="M192.6,203.8c0-0.1,0-0.2,0-0.3c0.4-0.1,0.8-0.1,1.2,0c0.2,0.1,0.4,0,0.5-0.1c0.1-0.1,0.3-0.2,0.5-0.2
					c0.1,0,0.3,0,0.4,0.1c0.1,0,0.1-0.1,0.4-0.2h0.2c-0.1,0-0.2,0.2-0.3,0.3c-0.3,0.3-0.5,0.2-0.7,0.2s-0.3,0.2-0.4,0.3
					c-0.2,0.2-0.5,0.3-0.8,0.2C193.3,203.7,192.9,203.7,192.6,203.8C192.6,203.8,192.6,203.8,192.6,203.8z"/>
				<path class="st6" d="M185.6,202.4c-0.1,0.3-0.3,0.6-0.6,0.7c-0.4,0.2-0.8,0.6-1,1l0,0c0.1,0.1,0.2,0.3,0.3,0.4
					c0.1-0.2,0.2-0.3,0.2-0.4c0.2-0.3,0.4-0.5,0.6-0.7c0.3-0.2,0.5-0.6,0.6-1L185.6,202.4z"/>
				<path class="st6" d="M189.5,200.9c0,0,0.7,2.9-0.7,3.3l0.5,0.3c0,0,1.4-1.1,0.5-3.7L189.5,200.9z"/>
				<path class="st6" d="M186.4,209.4h1c0,0-0.9-2.8,0.6-4.3c0.2-0.2,0.5-0.4,0.8-0.5c0.9-0.1,1.8,0,2.6-0.1
					c0.4-0.1,0.8-0.2,1.1-0.4c0.6-0.5,0.8-1.3,0.7-2.1h-0.3c0,0,0,1.2-0.5,1.6c-0.5,0.3-1,0.4-1.5,0.4c-1.7,0.1-2.6-0.4-3.6,0.6
					C186.7,205.4,186.4,206.8,186.4,209.4z"/>
				<path class="st6" d="M187.9,200.3c0-0.1,0-0.2-0.1-0.2c0.3-0.3,0.7-0.5,1.2-0.6c0.2,0,0.4-0.2,0.5-0.4c0.1-0.2,0.2-0.4,0.4-0.5
					c0.1-0.1,0.3-0.1,0.4-0.2c0.1,0,0.2,0,0.4-0.3h0.3c-0.1,0-0.1,0.1-0.2,0.1c-0.4,0.4-0.3,0.4-0.4,0.5c-0.1,0-0.2,0.1-0.3,0.1
					c-0.1,0.1-0.2,0.2-0.3,0.3c-0.1,0.3-0.4,0.5-0.7,0.6c-0.4,0.1-0.8,0.4-1.1,0.7V200.3z"/>
				<path class="st6" d="M188.7,197.9c0.1,0.2,0.2,0.4,0.4,0.4c0.3,0.1,0.5,0.3,0.6,0.6l0,0c-0.1,0.1-0.1,0.2-0.2,0.3
					c-0.1-0.1-0.1-0.2-0.2-0.3c-0.1-0.2-0.3-0.3-0.4-0.4c-0.2-0.1-0.4-0.3-0.4-0.6L188.7,197.9z"/>
				<path class="st6" d="M188.2,201.9h-0.7c0,0,0.6-1.6-0.4-2.4c-0.1-0.2-0.3-0.3-0.6-0.3c-0.6,0-1.2,0-1.8-0.1
					c-0.3,0-0.5-0.1-0.8-0.2c-0.4-0.3-0.6-0.7-0.5-1.2h0.2c0,0,0,0.7,0.3,0.9c0.3,0.2,0.7,0.2,1,0.2c1.1,0.1,1.8-0.2,2.4,0.4
					C188,199.7,188.2,200.4,188.2,201.9z"/>
				<path class="st6" d="M191.7,201.8c0,0.4-0.8,0.7-1.8,0.7s-1.8-0.3-1.8-0.7s0.8-0.7,1.8-0.7S191.7,201.4,191.7,201.8z"/>
				<path class="st6" d="M192.1,197.9c0.2-0.2,0.4-0.4,0.4-0.7c0-0.6-0.8-1.1-1.8-1.1c-0.2,0-0.4,0-0.6,0.1
					c-0.4-0.3-0.9-0.4-1.4-0.4h-0.2c0-0.1,0-0.1,0-0.2c0-0.6-0.8-1.1-1.8-1.1s-1.8,0.5-1.8,1.1c0,0.1,0,0.2,0.1,0.3
					c-0.2,0-0.4-0.1-0.6-0.1c-1,0-1.8,0.5-1.8,1.1c0,0.3,0.2,0.6,0.5,0.8c-0.9,0.1-1.6,0.6-1.6,1.1s0.8,1.1,1.8,1.1
					c0.6,0,1.1-0.2,1.5-0.6c0.3,0.1,0.6,0.2,0.9,0.2c0.6,0,1.1-0.2,1.5-0.6c0.4,0.3,0.9,0.4,1.4,0.4c0.4,0,0.8-0.1,1.1-0.2
					c0,0.6,0.8,1.1,1.8,1.1s1.8-0.5,1.8-1.1S193,198,192.1,197.9z"/>
				<path class="st6" d="M195.7,203.4c0.2-0.1,0.3-0.4,0.3-0.6c0-0.6-0.7-1.1-1.6-1.1h-0.2c0.1-0.1,0.1-0.2,0.1-0.3
					c0-0.6-0.7-1-1.6-1c-0.2,0-0.4,0-0.6,0.1c-0.3-0.6-0.9-0.9-1.6-0.9c-0.8-0.1-1.5,0.5-1.6,1.2c0,0,0,0.1,0,0.1
					c-0.3-0.1-0.5-0.1-0.8-0.1c-0.5,0-1.1,0.2-1.4,0.6c-0.3-0.3-0.6-0.5-1-0.6c0-0.1,0.1-0.2,0.1-0.4c-0.1-0.8-0.8-1.3-1.6-1.3
					c-0.7-0.1-1.4,0.4-1.6,1.1c-0.3-0.1-0.6-0.2-0.9-0.2c-0.8-0.1-1.5,0.5-1.6,1.2c0,0.2,0,0.3,0.1,0.5c-0.8,0.1-1.4,0.5-1.4,1
					s0.7,1,1.6,1h0.3c0,0.1,0,0.1,0,0.2c0,0.6,0.7,1.1,1.6,1.1s1.6-0.5,1.6-1.1c0-0.3-0.2-0.6-0.6-0.8c0.3,0,0.6-0.1,0.9-0.3
					c0.3,0.2,0.6,0.3,1,0.3c0,0.1,0,0.1,0,0.2c0,0.6,0.7,1,1.6,1c0.4,0,0.9-0.1,1.2-0.4l0,0c0,0.1,0,0.2,0,0.2c0,0.6,0.7,1,1.6,1
					s1.6-0.5,1.6-1c0.1,0,0.3,0,0.4,0c0.9,0,1.5-0.4,1.6-0.9c0.2,0.1,0.4,0.2,0.6,0.2c0,0.1-0.1,0.2-0.1,0.2c0,0.4,0.6,0.8,1.2,0.8
					s1.2-0.4,1.2-0.8C196.3,203.6,196,203.4,195.7,203.4z"/>
				<path class="st6" d="M180.3,205.9c0-0.2,0.1-0.4,0.1-0.5c-0.6-0.6-1.3-1.1-2.1-1.3c-0.4-0.1-0.8-0.4-0.9-0.8
					c-0.1-0.4-0.4-0.8-0.8-1.1c-0.2-0.2-0.5-0.3-0.8-0.4c-0.2-0.1-0.3-0.1-0.7-0.6h-0.6c0.1,0.1,0.2,0.2,0.3,0.3
					c0.6,0.8,0.5,0.9,0.8,1c0.2,0.1,0.4,0.2,0.6,0.3c0.3,0.2,0.4,0.4,0.5,0.7c0.2,0.6,0.7,1.1,1.3,1.2c0.8,0.3,1.5,0.8,2,1.4
					C180.3,206,180.3,206,180.3,205.9z"/>
				<path class="st6" d="M187.5,202.5c0-0.1,0-0.2,0-0.3c0.5-0.1,1-0.1,1.4,0c0.2,0.1,0.5,0.1,0.7-0.1c0.2-0.2,0.4-0.3,0.7-0.3
					c0.2,0,0.3,0,0.5,0.1c0.1,0,0.2-0.2,0.5-0.3h0.3c-0.1,0-0.3,0.2-0.3,0.3c-0.3,0.4-0.6,0.2-0.8,0.2s-0.4,0.2-0.5,0.3
					c-0.3,0.3-0.7,0.4-1,0.2c-0.5-0.1-0.9-0.1-1.4,0C187.4,202.6,187.5,202.5,187.5,202.5z"/>
				<path class="st6" d="M178.8,200.8c-0.1,0.4-0.4,0.7-0.7,0.9c-0.5,0.3-0.9,0.7-1.2,1.2l0,0c0.1,0.1,0.3,0.4,0.4,0.5
					c0.1-0.2,0.2-0.4,0.3-0.6c0.2-0.3,0.5-0.6,0.8-0.9c0.4-0.3,0.7-0.8,0.7-1.2L178.8,200.8z"/>
				<path class="st6" d="M183.6,198.9c0,0,0.8,3.6-0.8,4.1l0.6,0.3c0,0,1.7-1.4,0.6-4.6L183.6,198.9z"/>
				<path class="st6" d="M179.7,209.4h1.2c0,0-1.1-3.5,0.7-5.3c0.3-0.3,0.6-0.5,1-0.6c1.1-0.1,2.2,0,3.2-0.1c0.5-0.1,1-0.2,1.4-0.5
					c0.7-0.6,1-1.6,0.9-2.6l-0.3,0.1c0,0,0,1.5-0.6,1.9c-0.6,0.4-1.2,0.5-1.9,0.5c-2.1,0.1-3.3-0.5-4.4,0.8
					C180.1,204.5,179.7,206.3,179.7,209.4z"/>
				<path class="st6" d="M181.7,198.2c0-0.1,0-0.2-0.1-0.3c0.4-0.4,0.9-0.6,1.4-0.8c0.3,0,0.5-0.2,0.6-0.5c0.1-0.3,0.3-0.5,0.5-0.6
					c0.2-0.1,0.3-0.2,0.5-0.2c0.1,0,0.2-0.1,0.5-0.3h0.4c-0.1,0-0.2,0.1-0.2,0.2c-0.4,0.5-0.3,0.5-0.6,0.6c-0.1,0-0.3,0.1-0.4,0.2
					c-0.2,0.1-0.3,0.2-0.4,0.4c-0.1,0.4-0.5,0.7-0.9,0.7c-0.5,0.2-1,0.4-1.4,0.8C181.7,198.4,181.7,198.3,181.7,198.2z"/>
				<path class="st6" d="M182.7,195.3c0.1,0.2,0.3,0.4,0.5,0.5c0.3,0.2,0.6,0.4,0.8,0.7l0,0c-0.1,0.1-0.2,0.2-0.2,0.3
					c-0.1-0.1-0.1-0.2-0.2-0.3c-0.2-0.2-0.3-0.4-0.5-0.5c-0.3-0.2-0.4-0.4-0.5-0.7L182.7,195.3z"/>
				<path class="st6" d="M182.1,200.2h-0.8c0,0,0.8-1.9-0.5-3c-0.2-0.2-0.4-0.3-0.7-0.3c-0.7,0-1.5,0-2.2-0.1c-0.3,0-0.7-0.1-1-0.3
					c-0.5-0.3-0.7-0.9-0.6-1.5h0.2c0,0,0,0.9,0.4,1.1c0.4,0.2,0.8,0.3,1.3,0.3c1.4,0.1,2.2-0.3,3,0.5
					C181.8,197.5,182.1,198.4,182.1,200.2z"/>
				<path class="st6" d="M186.4,200c0,0.5-1,0.9-2.2,0.9s-2.2-0.4-2.2-0.9s1-0.9,2.2-0.9S186.4,199.5,186.4,200z"/>
				<path class="st6" d="M186.9,195.2c0.3-0.2,0.5-0.5,0.5-0.9c0-0.8-1-1.4-2.2-1.4c-0.2,0-0.4,0-0.7,0.1c-0.5-0.4-1.1-0.5-1.7-0.5
					h-0.2c0-0.1,0-0.2,0-0.3c0-0.8-1-1.4-2.2-1.4s-2.2,0.6-2.2,1.4c0,0.1,0,0.2,0.1,0.3c-0.2-0.1-0.5-0.1-0.7-0.1
					c-1.2,0-2.2,0.6-2.2,1.4c0,0.4,0.2,0.8,0.6,1c-1.1,0.1-1.9,0.7-1.9,1.4s1,1.4,2.2,1.4c0.7,0,1.4-0.2,1.9-0.7
					c0.4,0.1,0.7,0.2,1.1,0.2c0.7,0,1.4-0.2,1.9-0.7c0.5,0.3,1.1,0.5,1.7,0.4c0.5,0,1-0.1,1.4-0.3c0,0.8,1,1.4,2.2,1.4
					s2.2-0.6,2.2-1.4S187.9,195.4,186.9,195.2z"/>
				<path class="st6" d="M191.3,202c0.2-0.2,0.4-0.5,0.4-0.7c0-0.7-0.9-1.3-2-1.3h-0.2c0.1-0.1,0.1-0.3,0.1-0.4c0-0.7-0.9-1.3-2-1.3
					c-0.2,0-0.5,0-0.7,0.1c-0.4-0.7-1.1-1.2-1.9-1.1c-1-0.1-1.9,0.6-2,1.6c0,0,0,0.1,0,0.1c-0.3-0.1-0.7-0.2-1-0.2
					c-0.7,0-1.3,0.2-1.8,0.7c-0.3-0.4-0.8-0.6-1.3-0.7c0.1-0.1,0.1-0.3,0.1-0.5c-0.1-1-1-1.7-2-1.6c-0.9-0.1-1.7,0.5-2,1.4
					c-0.3-0.2-0.7-0.2-1.1-0.2c-1-0.1-1.9,0.6-2,1.6c0,0.2,0.1,0.4,0.2,0.6c-0.9,0.1-1.7,0.6-1.7,1.3s0.9,1.3,2,1.3h0.3
					c0,0.1,0,0.2,0,0.2c0,0.7,0.9,1.3,2,1.3s2-0.6,2-1.3c0-0.4-0.3-0.8-0.7-1c0.4,0,0.8-0.2,1.1-0.4c0.4,0.2,0.8,0.3,1.2,0.4
					c0,0.1,0,0.2,0,0.3c0,0.7,0.9,1.3,2,1.3c0.5,0,1.1-0.1,1.5-0.4h0.1c0,0.1-0.1,0.2-0.1,0.3c0,0.7,0.9,1.3,2,1.3s2-0.6,2-1.3
					c0.2,0,0.3,0,0.5,0c1.1,0,1.9-0.5,2-1.2c0.2,0.2,0.5,0.3,0.8,0.3c-0.1,0.1-0.1,0.2-0.1,0.3c0,0.5,0.7,1,1.5,1s1.5-0.4,1.5-1
					C191.9,202.4,191.6,202.1,191.3,202z"/>
				<rect x="191.6" y="189" class="st7" width="20.6" height="20.5"/>
				<rect x="194" y="192.3" class="st8" width="2.7" height="2.7"/>
				<rect x="200.6" y="192.3" class="st8" width="2.7" height="2.7"/>
				<rect x="207.1" y="192.3" class="st8" width="2.7" height="2.7"/>
				<rect x="194" y="197.3" class="st8" width="2.7" height="2.7"/>
				<rect x="194" y="202.5" class="st8" width="2.7" height="2.7"/>
				<rect x="200.6" y="197.3" class="st8" width="2.7" height="2.7"/>
				<rect x="207.1" y="197.3" class="st8" width="2.7" height="2.7"/>
				<rect x="200.6" y="202.5" class="st8" width="2.7" height="2.7"/>
				<rect x="207.1" y="202.5" class="st8" width="2.7" height="2.7"/>
				<path class="st9" d="M214.5,189h-25.3c-0.2,0-0.3-0.1-0.3-0.3c0-0.1,0.1-0.2,0.2-0.3l11.9-7.3c0.6-0.4,1.3-0.4,1.9,0l11.8,7.2
					c0.2,0.1,0.2,0.2,0.2,0.4S214.7,189.1,214.5,189z"/>
				<rect x="176.8" y="197.7" class="st7" width="15.4" height="11.8"/>
				<polygon class="st9" points="173.9,198.6 195.2,198.6 190.1,194.3 178.9,194.3 				"/>
				<rect x="180.3" y="201.4" class="st14" width="8.5" height="6.9"/>
				<path class="st8" d="M179.5,200.3v9.1h10.1v-9.1H179.5z M188.7,208.3h-8.3v-6.8h8.3V208.3z"/>
				<rect x="156.2" y="191" class="st13" width="18.6" height="18.5"/>
				<rect x="158.3" y="193.9" class="st8" width="2.4" height="2.4"/>
				<rect x="164.2" y="193.9" class="st8" width="2.4" height="2.4"/>
				<rect x="170.2" y="193.9" class="st8" width="2.4" height="2.4"/>
				<rect x="158.3" y="198.5" class="st8" width="2.4" height="2.4"/>
				<rect x="164.2" y="198.5" class="st8" width="2.4" height="2.4"/>
				<rect x="170.2" y="198.5" class="st8" width="2.4" height="2.4"/>
				<rect x="164.2" y="203.2" class="st8" width="2.4" height="2.4"/>
				<rect x="170.2" y="203.2" class="st8" width="2.4" height="2.4"/>
				<path class="st9" d="M176.9,191H154c-0.1,0-0.3-0.1-0.3-0.3c0-0.1,0-0.2,0.1-0.2l10.7-6.6c0.5-0.3,1.2-0.3,1.7,0l10.7,6.5
					c0.1,0,0.2,0.2,0.2,0.3S177,191,176.9,191z"/>
				<rect x="143.1" y="195.5" class="st7" width="18.6" height="14"/>
				<rect x="145" y="198.2" class="st8" width="2.9" height="2.9"/>
				<rect x="150.9" y="198.2" class="st8" width="2.9" height="2.9"/>
				<rect x="156.9" y="198.2" class="st8" width="2.9" height="2.9"/>
				<rect x="145" y="202.8" class="st8" width="2.9" height="2.9"/>
				<rect x="150.9" y="202.8" class="st8" width="2.9" height="2.9"/>
				<rect x="156.9" y="202.8" class="st8" width="2.9" height="2.9"/>
				<path class="st9" d="M163.8,195.5h-22.8c-0.1,0-0.3-0.1-0.3-0.3c0-0.1,0-0.2,0.1-0.2l10.7-6.6c0.5-0.3,1.2-0.3,1.7,0l10.7,6.6
					c0.1,0.1,0.1,0.2,0.1,0.4C163.9,195.4,163.8,195.5,163.8,195.5z"/>
				<path class="st7" d="M171.3,230.8l65.2-0.8c4.6-0.1,8.4-3.9,8.3-8.5l0,0c-0.1-4.6-3.9-8.4-8.5-8.3l-65.2,0.8
					c-4.6,0.1-8.4,3.9-8.3,8.5l0,0C162.8,227.2,166.6,230.9,171.3,230.8z"/>
				<circle class="st7" cx="211.9" cy="209.4" r="20.9"/>
				<circle class="st7" cx="189" cy="215.7" r="14.9"/>
				<path class="st7" d="M71.3,220.3l-58.9-0.7c-4.2-0.1-7.5-3.5-7.5-7.7l0,0c0.1-4.2,3.5-7.6,7.7-7.5l58.8,0.7
					c4.2,0.1,7.5,3.5,7.5,7.7l0,0C78.9,217,75.5,220.3,71.3,220.3z"/>
				<circle class="st7" cx="34.6" cy="201" r="18.9"/>
				<path class="st7" d="M68.8,206.8c-0.1,7.4-6.2,13.4-13.6,13.3c-7.4-0.1-13.4-6.2-13.3-13.6c0.1-7.4,6.2-13.4,13.6-13.3
					C62.9,193.3,68.9,199.4,68.8,206.8C68.8,206.8,68.8,206.8,68.8,206.8z"/>
				<path class="st7" d="M138.7,119.6l33.4-0.4c2.4,0,4.3-2,4.3-4.4l0,0c0-2.4-2-4.3-4.4-4.3l-33.4,0.4c-2.4,0-4.3,2-4.3,4.4l0,0
					C134.4,117.7,136.3,119.6,138.7,119.6z"/>
				<path class="st7" d="M148.8,108.8c0.1,5.9,4.9,10.7,10.9,10.6s10.7-4.9,10.6-10.9c-0.1-5.9-4.9-10.7-10.9-10.6c0,0,0,0,0,0
					C153.5,98,148.8,102.8,148.8,108.8z"/>
				<path class="st7" d="M140.2,111.9c0.1,4.2,3.5,7.6,7.7,7.5c4.2,0,7.6-3.5,7.5-7.7c-0.1-4.2-3.5-7.6-7.7-7.5
					C143.5,104.3,140.1,107.7,140.2,111.9C140.2,111.9,140.2,111.9,140.2,111.9z"/>
				<path class="st7" d="M70.2,124.6l-25.5-0.3c-1.8,0-3.3-1.5-3.2-3.3l0,0c0-1.8,1.5-3.3,3.3-3.2l25.5,0.3c1.8,0,3.3,1.5,3.3,3.3
					l0,0C73.6,123.1,72.1,124.6,70.2,124.6C70.3,124.6,70.3,124.6,70.2,124.6z"/>
				<path class="st7" d="M62.5,116.3c0,4.5-3.7,8.2-8.3,8.1s-8.2-3.7-8.1-8.3c0-4.5,3.7-8.2,8.3-8.1c0,0,0,0,0,0
					C59,108.1,62.6,111.8,62.5,116.3z"/>
				<path class="st7" d="M69.2,118.7c0,3.2-2.7,5.8-5.9,5.8c-3.2,0-5.8-2.7-5.8-5.9c0-3.2,2.7-5.8,5.9-5.8c0,0,0,0,0,0
					C66.6,112.8,69.2,115.5,69.2,118.7C69.2,118.7,69.2,118.7,69.2,118.7z"/>
				<path class="st15" d="M84.3,168c-2,0-3.6-1.6-3.5-3.6c0-1.8,1.3-3.2,3-3.5c11.1-1.6,12.1-4.1,12.1-4.1c0.2-0.9-2.6-3.9-5.8-5.7
					c-1.7-1.1-2.2-3.2-1.1-4.9c1-1.6,3-2.1,4.6-1.3c1.8,1,10.5,6.4,9.2,13.2S92,166.9,84.8,168C84.6,168,84.5,168,84.3,168z"/>
				<path class="st16" d="M205.7,224.7c-3.2,0-5.7-2.6-5.7-5.7c0,0,0,0,0,0v-1.2c-0.1-3.2-2.8-5.6-6-5.5c-3,0.1-5.4,2.5-5.5,5.5v1.2
					c0,3.2-2.6,5.7-5.7,5.7c-3.2,0-5.7-2.6-5.7-5.7l0,0v-1.2c-0.1-3.2-2.8-5.6-6-5.5c-3,0.1-5.4,2.5-5.5,5.5v1.2
					c0,3.1-2.5,5.6-5.7,5.6c-3.1,0-5.6-2.5-5.6-5.6v-1.2c0-3.2-2.6-5.7-5.7-5.7c-3.2,0-5.7,2.6-5.7,5.7l0,0v1.2
					c-0.1,3.2-2.8,5.6-6,5.5c-3-0.1-5.4-2.5-5.5-5.5v-1.2c0-3.2-2.6-5.7-5.7-5.7c-3.2,0-5.7,2.6-5.7,5.7c0,0,0,0,0,0v1.2
					c0,0.1,0,0.3,0,0.4V219c-0.1,3.2-2.8,5.6-6,5.5c-3-0.1-5.4-2.5-5.5-5.5v0.3c0-0.1,0-0.2,0-0.3v-1.2c-0.1-3.2-2.8-5.6-6-5.5
					c-3,0.1-5.4,2.5-5.5,5.5v1.2c-0.1,3.2-2.8,5.6-6,5.5c-3-0.1-5.4-2.5-5.5-5.5v-1.2c0-3.2-2.6-5.7-5.7-5.7c-3.2,0-5.7,2.6-5.7,5.7
					v1.2c0,3.1-2.5,5.7-5.6,5.7c-3.1,0-5.7-2.5-5.7-5.6c0,0,0,0,0,0v-1.2c-0.1-3.2-2.8-5.6-6-5.5c-3,0.1-5.4,2.5-5.5,5.5v1.2
					c0,3.2-2.6,5.7-5.7,5.7c-3.2,0-5.7-2.6-5.7-5.7v-1.2c0-3.2-2.6-5.7-5.7-5.7c-3.2,0-5.7,2.6-5.7,5.7c0,0,0,0,0,0v1.2
					c-0.1,3.2-2.8,5.6-6,5.5c-3-0.1-5.4-2.5-5.5-5.5v21.2h194.6v-11.1c0-0.1,0-0.2,0-0.4V219C211.5,222.2,208.9,224.7,205.7,224.7z"
					/>
				<path class="st17" d="M197.2,213.4c0-3.6-36.5-6.5-81.5-6.5s-81.5,2.9-81.5,6.5c0,0.1,0.1,0.3,0.1,0.4h162.8
					C197.2,213.6,197.2,213.5,197.2,213.4z"/>
				<path class="st17" d="M115.7,219.8c43.4,0,78.9-2.7,81.4-6.1H34.3C36.8,217.1,72.3,219.8,115.7,219.8z"/>
				<path class="st18" d="M72.3,146.4c0,0-23.1,16.4-33.7,51.8c0,0,11.1-0.1,11.1,5.7c0,0,14.1,11.4,20.8,3.1c0,0,8.8-4,10.6-1
					l5.5-22.5L72.3,146.4z"/>
				<path class="st19" d="M84.2,223.1l-0.6-0.7c-0.3-0.4-0.8-0.6-1.3-0.7l-2.9-0.6c0,0,0-0.1,0-0.1v-20.9c0-2.2-1.8-4-4-4
					s-4,1.8-4,4v20.2c-0.6,0.4-0.9,1.1-0.9,1.9v2.6c0,1.3,1.1,2.4,2.4,2.4h9.5c1.3,0,2.4-1,2.4-2.3
					C84.8,224.2,84.6,223.6,84.2,223.1z"/>
				<path class="st20" d="M78.8,204.1h-7.2c-0.4,0-0.7-0.3-0.7-0.7v-0.1c0-0.4,0.3-0.7,0.7-0.7h7.2c0.4,0,0.7,0.3,0.7,0.7v0.1
					C79.6,203.8,79.2,204.1,78.8,204.1z"/>
				<path class="st20" d="M79,213.3L79,213.3c-0.4,0.3-0.9,0.2-1.2-0.1l-6.4-8.5c-0.3-0.4-0.2-0.9,0.2-1.2l0.1,0
					c0.4-0.3,0.9-0.2,1.2,0.2l6.4,8.5C79.4,212.5,79.4,213,79,213.3z"/>
				<path class="st20" d="M79.7,203.7L79.7,203.7c0.4,0.3,0.4,0.8,0.2,1.1l-6.5,8.6c-0.2,0.3-0.7,0.4-1,0.1l-0.1,0
					c-0.3-0.2-0.4-0.7-0.1-1l6.5-8.6C78.9,203.5,79.3,203.4,79.7,203.7z"/>
				<path class="st20" d="M79,221.8L79,221.8c-0.4,0.3-0.9,0.2-1.2-0.1l-6.4-8.5c-0.3-0.4-0.2-0.9,0.2-1.2l0.1,0
					c0.4-0.3,0.9-0.2,1.2,0.2l6.4,8.5C79.4,221.1,79.4,221.6,79,221.8z"/>
				<path class="st20" d="M78.9,212.1L78.9,212.1c0.4,0.3,0.5,0.8,0.2,1.2l-6.4,8.5c-0.3,0.4-0.8,0.4-1.2,0.2l-0.1,0
					c-0.4-0.3-0.4-0.8-0.2-1.2l6.4-8.5C78.1,211.9,78.6,211.8,78.9,212.1z"/>
				<path class="st20" d="M82.4,226.7L82.4,226.7c-0.4,0-0.7-0.3-0.7-0.7v-3.7c0-0.4,0.3-0.7,0.7-0.7h0.1c0.4,0,0.7,0.3,0.7,0.7v3.7
					C83.1,226.4,82.8,226.7,82.4,226.7z"/>
				<path class="st20" d="M79.6,226.7L79.6,226.7c-0.4,0-0.7-0.3-0.7-0.7v-4.3c0-0.4,0.3-0.7,0.7-0.7h0.1c0.4,0,0.7,0.3,0.7,0.7v4.3
					C80.3,226.4,80,226.7,79.6,226.7z"/>
				<path class="st20" d="M78.8,222.4H72c-0.4,0-0.7-0.3-0.7-0.7v-0.1c0-0.4,0.3-0.7,0.7-0.7h6.8c0.4,0,0.7,0.3,0.7,0.7v0.1
					C79.6,222.1,79.2,222.4,78.8,222.4z"/>
				<path class="st20" d="M70.5,225.9h13.6c0.4,0,0.7,0.3,0.7,0.7v0.1c0,0.4-0.3,0.7-0.7,0.7H70.5c-0.4,0-0.7-0.3-0.7-0.7v-0.1
					C69.8,226.2,70.1,225.9,70.5,225.9z"/>
				<path class="st20" d="M70.5,220.2L70.5,220.2c0.5,0,0.8,0.4,0.8,0.8v5.6c0,0.4-0.4,0.8-0.8,0.8h-0.1c-0.4,0-0.8-0.4-0.8-0.8V221
					C69.7,220.6,70.1,220.2,70.5,220.2z"/>
				<path class="st19" d="M97.4,223.7l-0.6-0.7c-0.3-0.4-0.8-0.6-1.3-0.7l-2.9-0.6c0,0,0-0.1,0-0.1v-20.9c-0.3-2.2-2.3-3.8-4.5-3.5
					c-1.8,0.2-3.3,1.7-3.5,3.5v20.2c-0.6,0.4-0.9,1.1-0.9,1.9v2.6c0,1.3,1.1,2.4,2.4,2.4h9.5c1.3,0,2.4-1.1,2.4-2.4
					C98,224.7,97.8,224.1,97.4,223.7z"/>
				<path class="st20" d="M92.1,204.6h-7.2c-0.4,0-0.7-0.3-0.7-0.7v-0.1c0-0.4,0.3-0.7,0.7-0.7h7.2c0.4,0,0.7,0.3,0.7,0.7v0.1
					C92.8,204.3,92.5,204.6,92.1,204.6z"/>
				<path class="st20" d="M92.3,213.8L92.3,213.8c-0.4,0.3-0.9,0.2-1.2-0.1l-6.4-8.5c-0.3-0.4-0.2-0.9,0.2-1.2l0.1,0
					c0.4-0.3,0.9-0.2,1.2,0.2l6.4,8.5C92.7,213,92.6,213.5,92.3,213.8z"/>
				<path class="st20" d="M92.1,204L92.1,204c0.4,0.3,0.4,0.8,0.2,1.1l-6.5,8.6c-0.2,0.3-0.7,0.4-1,0.1l-0.1,0
					c-0.3-0.2-0.4-0.7-0.1-1l6.5-8.6C91.3,203.8,91.8,203.7,92.1,204z"/>
				<path class="st20" d="M92.3,222.4L92.3,222.4c-0.4,0.3-0.9,0.2-1.2-0.1l-6.4-8.5c-0.3-0.4-0.2-0.9,0.2-1.2l0.1,0
					c0.4-0.3,0.9-0.2,1.2,0.2l6.4,8.5C92.7,221.6,92.6,222.1,92.3,222.4z"/>
				<path class="st20" d="M92.2,212.6L92.2,212.6c0.4,0.3,0.5,0.8,0.2,1.2l-6.4,8.5c-0.3,0.4-0.8,0.4-1.2,0.2l-0.1,0
					c-0.4-0.3-0.4-0.8-0.2-1.2l6.4-8.5C91.3,212.4,91.8,212.3,92.2,212.6z"/>
				<path class="st20" d="M95.7,227.2L95.7,227.2c-0.4,0-0.7-0.3-0.7-0.7v-3.7c0-0.4,0.3-0.7,0.7-0.7h0.1c0.4,0,0.7,0.3,0.7,0.7v3.7
					C96.3,226.9,96,227.2,95.7,227.2z"/>
				<path class="st20" d="M92.9,227.2L92.9,227.2c-0.4,0-0.7-0.3-0.7-0.7v-4.3c0-0.4,0.3-0.7,0.7-0.7h0.1c0.4,0,0.7,0.3,0.7,0.7v4.3
					C93.5,226.9,93.2,227.2,92.9,227.2z"/>
				<path class="st20" d="M92.1,223h-6.8c-0.4,0-0.7-0.3-0.7-0.7v-0.1c0-0.4,0.3-0.7,0.7-0.7h6.8c0.4,0,0.7,0.3,0.7,0.7v0.1
					C92.8,222.6,92.5,223,92.1,223z"/>
				<path class="st20" d="M83.8,226.5h13.6c0.4,0,0.7,0.3,0.7,0.7v0.1c0,0.4-0.3,0.7-0.7,0.7H83.8c-0.4,0-0.7-0.3-0.7-0.7v-0.1
					C83.1,226.8,83.4,226.5,83.8,226.5z"/>
				<path class="st20" d="M83.8,220.7L83.8,220.7c0.5,0,0.8,0.4,0.8,0.8v5.6c0,0.4-0.4,0.8-0.8,0.8h-0.1c-0.4,0-0.8-0.4-0.8-0.8
					v-5.6C83,221.1,83.4,220.7,83.8,220.7z"/>
				<path class="st20" d="M69.4,119.4h26l0,0v12.5c0,4.4-3.6,8-8,8h-10c-4.4,0-8-3.6-8-8V119.4L69.4,119.4z"/>
				<path class="st19" d="M95.6,130.5c0,1.3-1,2.3-2.3,2.3c-1.3,0-2.3-1-2.3-2.3c0-1.3,1-2.3,2.3-2.3S95.6,129.3,95.6,130.5
					L95.6,130.5z"/>
				<path class="st21" d="M94.7,130.5c0,0.8-0.6,1.4-1.4,1.4s-1.4-0.6-1.4-1.4s0.6-1.4,1.4-1.4l0,0C94,129.1,94.7,129.8,94.7,130.5
					C94.7,130.5,94.7,130.5,94.7,130.5z"/>
				<path class="st19" d="M82.9,137.8h0.2c1.3,0,2.4,1.1,2.4,2.4v4.2c0,1.3-1.1,2.4-2.4,2.4h-0.2c-1.3,0-2.4-1.1-2.4-2.4v-4.2
					C80.5,138.9,81.6,137.8,82.9,137.8z"/>
				<path class="st19" d="M82.8,142.3l-0.9,0c-5.7-0.3-10-5.1-9.7-10.8l0.6-11.5c0.3-5.7,5.1-10,10.8-9.7l0.9,0
					c5.7,0.3,10,5.1,9.7,10.8l-0.6,11.5C93.3,138.2,88.5,142.6,82.8,142.3z"/>
				<path class="st19" d="M82.8,149.8c3.4,0,6.5-1.9,8.2-4.9c-2.1-1.1-4.4-1.6-6.7-1.6h-2.8c-2.3,0-4.7,0.5-6.8,1.6
					C76.3,147.9,79.4,149.8,82.8,149.8z"/>
				<path class="st20" d="M82.2,108.8l0.3,0.3c1.7,1.7,1.7,4.6,0,6.3l-8.2,8.2c-1.7,1.7-4.6,1.7-6.3,0l-0.3-0.3
					c-1.7-1.7-1.7-4.6,0-6.3l8.2-8.2C77.7,107.1,80.5,107.1,82.2,108.8z"/>
				<path class="st20" d="M76.7,112.7h16.2c2.3,0,4.1,1.8,4.1,4.1v0.4c0,2.3-1.8,4.1-4.1,4.1H76.7c-2.3,0-4.1-1.8-4.1-4.1v-0.4
					C72.5,114.5,74.4,112.7,76.7,112.7z"/>
				<path class="st20" d="M77.5,107.5H92c2.1,0,3.8,1.7,3.8,3.8v0.3c0,2.1-1.7,3.8-3.8,3.8H77.5c-2.1,0-3.8-1.7-3.8-3.8v-0.3
					C73.8,109.1,75.5,107.5,77.5,107.5z"/>
				<path class="st20" d="M84.8,125.3L84.8,125.3c0,0.6-0.4,1.1-1,1.1h-5.2c-0.5,0-1-0.4-1-1v-0.1c0-0.5,0.4-1,1-1h5.2
					C84.3,124.3,84.8,124.7,84.8,125.3z"/>
				<path class="st20" d="M93.7,125.5L93.7,125.5c0-0.4-0.3-0.7-0.7-0.7h0h-5.4c-0.4,0-0.7,0.3-0.7,0.7v0l0,0c0,0.4,0.3,0.7,0.7,0.7
					h0H93C93.4,126.3,93.7,125.9,93.7,125.5C93.7,125.5,93.7,125.5,93.7,125.5z"/>
				<path class="st18" d="M82.9,130.5L82.9,130.5c-0.6,0-1-0.4-1-0.9v-1.7c0-0.5,0.4-0.9,0.9-0.9h0.1c0.5,0,0.9,0.4,0.9,0.9v1.7
					C83.8,130.1,83.4,130.5,82.9,130.5z"/>
				<path class="st21" d="M86.6,130.4c-0.7,0-1.2,0.5-1.2,1.2l0,0h2.4C87.8,130.9,87.3,130.4,86.6,130.4
					C86.6,130.4,86.6,130.4,86.6,130.4z"/>
				<path class="st7" d="M92.1,145.5c-0.3-0.2-0.7-0.4-1.1-0.6c-2.4,4.5-8,6.2-12.5,3.7c-1.6-0.9-2.9-2.2-3.7-3.7
					c-0.8,0.4-1.6,0.9-2.3,1.5c0,0,0,0,0,0.1c2.4,1.2,3.3,4.2,2,6.5c-0.8,1.6-2.5,2.6-4.3,2.6c-0.8,0-1.6-0.2-2.2-0.6
					c0,0.1,0,0.2,0,0.4v45.2h30v-45.2C97.8,151.3,95.6,147.6,92.1,145.5z"/>
				<path class="st7" d="M74.9,150.7c0-1.8-1-3.4-2.6-4.3c-2.7,2.1-4.3,5.2-4.5,8.6c0.7,0.4,1.5,0.6,2.2,0.6
					C72.8,155.6,74.9,153.4,74.9,150.7C74.9,150.7,74.9,150.7,74.9,150.7z"/>
				<path class="st22" d="M68.4,177h29.8c1.2,0,2.1,1,2.1,2.1v0.2c0,1.2-1,2.1-2.1,2.1H68.4c-1.2,0-2.1-1-2.1-2.1v-0.2
					C66.3,178,67.2,177,68.4,177z"/>
				<path class="st20" d="M73.3,119.4h0.3c1.8,0,3.2,1.4,3.2,3.2v16.6c0,1.8-1.4,3.2-3.2,3.2h-0.3c-1.8,0-3.2-1.4-3.2-3.2v-16.6
					C70.1,120.8,71.5,119.4,73.3,119.4z"/>
				<path class="st19" d="M78.6,130.9c0,1.9-1.6,3.5-3.5,3.5c-1.9,0-3.5-1.6-3.5-3.5s1.6-3.5,3.5-3.5c0,0,0,0,0,0
					C77.1,127.4,78.6,129,78.6,130.9z"/>
				<path class="st21" d="M77.3,130.9c0,1.2-0.9,2.1-2.1,2.1s-2.1-0.9-2.1-2.1c0-1.2,0.9-2.1,2.1-2.1c0,0,0,0,0,0
					C76.3,128.8,77.3,129.7,77.3,130.9z"/>
				<path class="st21" d="M84,134.1c-0.2,0-0.3-0.1-0.3-0.3c0-0.2,0.1-0.3,0.3-0.3l5.2,0.1c0.2,0,0.4,0.1,0.4,0.3
					c0,0.2-0.1,0.4-0.3,0.4c0,0-0.1,0-0.1,0L84,134.1L84,134.1z"/>
				<rect x="105.9" y="131.3" class="st18" width="4.9" height="12.7"/>
				<rect x="103" y="143" class="st23" width="10.7" height="2"/>
				<polygon class="st7" points="108.3,231.2 110.7,221.9 110.7,145 105.9,145 105.9,221.9 				"/>
				<rect x="120.5" y="131.3" class="st18" width="4.9" height="18.6"/>
				<rect x="117.7" y="143" class="st23" width="10.7" height="2"/>
				<polygon class="st9" points="123,231.2 125.4,221.9 125.4,145 120.5,145 120.5,221.9 				"/>
				<rect x="120.5" y="131.3" class="st18" width="4.9" height="12.7"/>
				<rect x="117.7" y="143" class="st23" width="10.7" height="2"/>
				<polygon class="st7" points="123,231.2 125.4,221.9 125.4,145 120.5,145 120.5,221.9 				"/>
				<rect x="135.2" y="131.3" class="st18" width="4.9" height="12.7"/>
				<rect x="132.4" y="143" class="st23" width="10.7" height="2"/>
				<polygon class="st7" points="137.6,231.2 140.1,221.9 140.1,145 135.2,145 135.2,221.9 				"/>
				<rect x="149.8" y="131.3" class="st18" width="4.9" height="18.6"/>
				<rect x="147" y="143" class="st23" width="10.7" height="2"/>
				<polygon class="st9" points="152.3,231.2 154.7,221.9 154.7,145 149.9,145 149.9,221.9 				"/>
				<rect x="149.8" y="131.3" class="st18" width="4.9" height="12.7"/>
				<rect x="147" y="143" class="st23" width="10.7" height="2"/>
				<polygon class="st7" points="152.3,231.2 154.7,221.9 154.7,145 149.9,145 149.9,221.9 				"/>
				<rect x="164.5" y="131.3" class="st18" width="4.9" height="12.7"/>
				<rect x="161.7" y="143" class="st23" width="10.7" height="2"/>
				<polygon class="st7" points="166.9,231.2 169.4,221.9 169.4,145 164.5,145 164.5,221.9 				"/>
				<rect x="178.5" y="131.3" class="st18" width="4.9" height="12.7"/>
				<rect x="175.7" y="143" class="st23" width="10.7" height="2"/>
				<polygon class="st7" points="180.9,226.1 183.4,221.9 183.4,145 178.5,145 178.5,221.9 				"/>
				<path class="st24" d="M115.7,219.8c-43.4,0-78.9-2.7-81.4-6.1h-0.1c0,0,9.9,33.2,82.2,33.2c0,0,63.4,4.1,80.8-33.2h-0.1
					C194.6,217.1,159.1,219.8,115.7,219.8z"/>
				<path class="st25" d="M212.7,235.7c-3.3,0.1-6-2.5-6.1-5.7v-1.2c0-1.5-0.7-3-1.8-4c-1.2-1.1-2.7-1.7-4.4-1.7
					c-3.3-0.1-6,2.5-6.2,5.7v1.2c-0.4,3.4-3.5,5.8-6.9,5.4c-2.8-0.3-5-2.6-5.4-5.4v-1.2c0-1.5-0.7-3-1.8-4c-1.2-1.1-2.7-1.7-4.4-1.7
					c-3.3-0.1-6,2.5-6.1,5.7v1.2c-0.2,3.4-3.1,5.9-6.4,5.7c-3.1-0.2-5.5-2.6-5.7-5.7v-1.2c0-1.5-0.7-3-1.8-4
					c-1.2-1.1-2.7-1.7-4.4-1.7c-3.3-0.1-6,2.5-6.1,5.7v1.2c-0.3,3.4-3.3,5.9-6.7,5.7c-3-0.2-5.4-2.6-5.7-5.7v-1.2c0-1.5-0.7-3-1.8-4
					c-1.2-1.1-2.7-1.7-4.4-1.7c-3.3-0.1-6,2.5-6.2,5.7v1.2c0,0.1,0,0.3,0,0.4V230c-0.2,3.4-3.2,6-6.6,5.7c-3.1-0.2-5.5-2.7-5.7-5.7
					v0.3c0-0.1,0-0.2,0-0.3v-1.2c0-1.5-0.7-3-1.8-4c-1.2-1.1-2.7-1.7-4.3-1.7c-3.3-0.1-6,2.5-6.2,5.7v1.2c-0.3,3.4-3.3,5.9-6.7,5.7
					c-3-0.2-5.4-2.6-5.7-5.7v-1.2c0-1.5-0.7-3-1.8-4c-1.2-1.1-2.7-1.7-4.3-1.7c-3.3-0.1-6,2.5-6.2,5.7v1.2c-0.2,3.4-3.1,5.9-6.4,5.7
					c-3.1-0.2-5.5-2.6-5.7-5.7v-1.2c0-1.5-0.7-3-1.8-4c-1.2-1.1-2.8-1.8-4.5-1.7c-3.3-0.1-6,2.5-6.2,5.7v1.2
					c-0.3,3.4-3.3,5.9-6.7,5.7c-3-0.2-5.4-2.6-5.7-5.7v-1.2c0-1.5-0.7-3-1.8-4c-1.2-1.1-2.7-1.7-4.4-1.7c-3.3-0.1-6,2.5-6.1,5.7v1.2
					c-0.1,3.3-2.9,5.8-6.1,5.7c-3.3,0.1-6-2.5-6.1-5.7v21.2h209v-11.1c0-0.1,0-0.2,0-0.4V230C218.8,233.3,216,235.8,212.7,235.7z"/>
				<path class="st7" d="M83.2,128.3L83.2,128.3c-0.1,0-0.2-0.1-0.2-0.2v-0.4c0-0.1,0.1-0.2,0.2-0.2l0,0c0.1,0,0.2,0.1,0.2,0.2v0.4
					C83.4,128.2,83.3,128.3,83.2,128.3z"/>
				<path class="st18" d="M90.1,130.5L90.1,130.5c-0.6,0-1-0.4-1-0.9v-1.7c0-0.5,0.4-0.9,0.9-0.9h0.1c0.5,0,0.9,0.4,0.9,0.9v1.7
					C91,130.1,90.6,130.5,90.1,130.5z"/>
				<path class="st15" d="M90.4,165.2c-5.1,0.1-10.2-1.4-14.5-4.2c-1.7-1.3-2.1-3.7-0.8-5.4s3.7-2.1,5.4-0.8l0,0
					c0.3,0.2,6.6,4.6,16.2,1.8c2.1-0.5,4.2,0.7,4.7,2.8c0.5,2-0.6,4-2.5,4.6C96.2,164.8,93.3,165.2,90.4,165.2z"/>
				<path class="st7" d="M90.5,128.3L90.5,128.3c-0.1,0-0.2-0.1-0.2-0.2v-0.4c0-0.1,0.1-0.2,0.2-0.2l0,0c0.1,0,0.2,0.1,0.2,0.2
					c0,0,0,0,0,0v0.4C90.7,128.2,90.6,128.3,90.5,128.3C90.5,128.3,90.5,128.3,90.5,128.3z"/>
				<path class="st26" d="M81.5,165.9c-4.3,0-7.6-1.1-10.1-3.4c-4.4-4.1-4-10.6-3.1-13.8c0.7-2,2.9-3.1,4.9-2.5
					c1.9,0.6,3,2.6,2.6,4.6c0,0.1-1,4.2,0.9,6c0.9,0.9,5,3.2,18.9-2c2-0.7,4.2,0.4,4.9,2.5c0.6,1.9-0.3,4-2.2,4.8
					C91.6,164.6,86,165.9,81.5,165.9z"/>
				<rect x="10.3" y="251.2" class="st25" width="217.4" height="49.1"/>
				<rect x="32.2" y="12" class="st27" width="173.6" height="288.3"/>
				<path class="st7" d="M110.9,80.3l-15.7-0.2c-1.1,0-2-0.9-2-2l0,0c0-1.1,0.9-2,2-2l15.7,0.2c1.1,0,2,0.9,2,2l0,0
					C112.9,79.4,112,80.3,110.9,80.3z"/>
				<path class="st7" d="M106.2,75.2c0,2.8-2.3,5-5.1,4.9s-5-2.3-4.9-5.1c0-2.7,2.3-4.9,5-4.9C104,70.1,106.2,72.4,106.2,75.2z"/>
				<path class="st7" d="M110.3,76.7c0,2-1.6,3.6-3.6,3.6c-2,0-3.6-1.6-3.6-3.6c0-2,1.6-3.6,3.6-3.6c0,0,0,0,0,0
					C108.7,73.1,110.3,74.7,110.3,76.7z"/>
			</g>
		</g>
	</g>
</g>
</svg>
