<svg xmlns="http://www.w3.org/2000/svg" xmlns:xlink="http://www.w3.org/1999/xlink" viewBox="0 0 234.27 379.95"><defs><style>.cls-1{fill:none;}.cls-2{fill:#f4b155;}.cls-3{fill:#fff0cc;}.cls-4{fill:#231f20;}.cls-5{clip-path:url(#clip-path);}.cls-6{fill:#2b3251;}.cls-7{fill:#6d4650;}.cls-8{fill:#3f272d;}.cls-9{fill:#54323a;}.cls-10{fill:#ffd150;}.cls-11{fill:#414042;}.cls-12{fill:#f5b155;}.cls-13{fill:#30263a;}.cls-14{fill:#e4705e;}.cls-15{fill:#2f2638;}.cls-16{fill:#ffd351;}.cls-17{fill:#fff;}.cls-18{fill:#3c2e49;}.cls-19{fill:#4a355b;}.cls-20{fill:#5bc4b8;}.cls-21{fill:#f1f2f2;}.cls-22{fill:#f4b055;}</style><clipPath id="clip-path"><rect class="cls-1" x="28.15" y="43.89" width="177.97" height="241.09" rx="24.71"/></clipPath></defs><g id="Layer_2" data-name="Layer 2"><g id="Layer_1-2" data-name="Layer 1"><path class="cls-2" d="M234.27,14.4V365.54A14.7,14.7,0,0,1,219.33,380H14.94A14.7,14.7,0,0,1,0,365.54V14.4C0,6.46,6.7,0,14.94,0H219.33C227.57,0,234.27,6.46,234.27,14.4ZM221.71,357.18V22.76A10.78,10.78,0,0,0,210.93,12H23.34A10.78,10.78,0,0,0,12.56,22.76V357.18A10.79,10.79,0,0,0,23.34,368H210.93A10.79,10.79,0,0,0,221.71,357.18Z"/><rect class="cls-3" x="12.56" y="11.98" width="209.16" height="355.99" rx="10.78"/><path class="cls-4" d="M34.91,330.67a5.76,5.76,0,0,1-1.91-.76c-.15-.11-.22-.2-.22-.28a.37.37,0,0,1,.06-.21l.58-.91c.07-.1.13-.15.19-.15a.42.42,0,0,1,.23.08,6,6,0,0,0,1.5.62,6.39,6.39,0,0,0,1.73.24,3.23,3.23,0,0,0,1.79-.4,1.39,1.39,0,0,0,.6-1.26,1.42,1.42,0,0,0-.23-.84,1.81,1.81,0,0,0-.66-.54c-.29-.15-.76-.35-1.42-.61l-.4-.16a15.38,15.38,0,0,1-1.87-.87,3.62,3.62,0,0,1-1.23-1.1,2.72,2.72,0,0,1-.49-1.66,2.84,2.84,0,0,1,1.21-2.45,5.42,5.42,0,0,1,3.19-.86,8,8,0,0,1,2.08.23,4.47,4.47,0,0,1,1.53.69q.21.16.21.3a.34.34,0,0,1-.07.19l-.56.91c-.07.1-.13.16-.18.16a.53.53,0,0,1-.22-.11,5,5,0,0,0-2.78-.71,2.79,2.79,0,0,0-1.65.4,1.44,1.44,0,0,0-.56,1.27,1.52,1.52,0,0,0,.23.87,1.93,1.93,0,0,0,.69.54,14.78,14.78,0,0,0,1.47.62l.43.17a14.88,14.88,0,0,1,2,.93,3.17,3.17,0,0,1,1.11,1.07,3.07,3.07,0,0,1,.39,1.63,2.8,2.8,0,0,1-1.12,2.36,5.14,5.14,0,0,1-3.2.87A11.06,11.06,0,0,1,34.91,330.67Z"/><path class="cls-4" d="M43.53,330.52a.66.66,0,0,1-.15-.47V319.46a.68.68,0,0,1,.15-.49.65.65,0,0,1,.5-.16h7.26a.67.67,0,0,1,.48.14.66.66,0,0,1,.13.47v.47a.71.71,0,0,1-.13.48.63.63,0,0,1-.48.15H45.62v3.39h4.12a.63.63,0,0,1,.48.14.62.62,0,0,1,.14.47V325a.66.66,0,0,1-.14.48.63.63,0,0,1-.48.15H45.62V329h5.65a.65.65,0,0,1,.49.15.71.71,0,0,1,.14.48v.47a.67.67,0,0,1-.14.46.7.7,0,0,1-.49.14H44A.7.7,0,0,1,43.53,330.52Z"/><path class="cls-4" d="M57.46,330.59a.84.84,0,0,1-.22-.35L52.7,319.3a.54.54,0,0,1-.05-.21.28.28,0,0,1,.08-.2.29.29,0,0,1,.22-.08h1.5a.49.49,0,0,1,.54.37l3.3,8.37,3.29-8.37a.51.51,0,0,1,.54-.37h1.5a.29.29,0,0,1,.22.08.24.24,0,0,1,.08.2.54.54,0,0,1-.05.21l-4.52,10.94a.84.84,0,0,1-.23.35.6.6,0,0,1-.36.09h-.95A.54.54,0,0,1,57.46,330.59Z"/><path class="cls-4" d="M65.52,330.52a.66.66,0,0,1-.15-.47V319.46a.68.68,0,0,1,.15-.49.64.64,0,0,1,.5-.16h7.25a.64.64,0,0,1,.48.14.66.66,0,0,1,.14.47v.47a.71.71,0,0,1-.14.48.6.6,0,0,1-.48.15H67.6v3.39h4.12a.52.52,0,0,1,.63.61V325a.71.71,0,0,1-.14.48.65.65,0,0,1-.49.15H67.6V329h5.66a.67.67,0,0,1,.49.15.71.71,0,0,1,.14.48v.47a.67.67,0,0,1-.14.46.72.72,0,0,1-.49.14H66A.68.68,0,0,1,65.52,330.52Z"/><path class="cls-4" d="M75.57,330.52a.66.66,0,0,1-.15-.47V319.46a.68.68,0,0,1,.15-.49.66.66,0,0,1,.51-.16h.81a.81.81,0,0,1,.38.07.82.82,0,0,1,.28.28l5.76,8v-7.69a.68.68,0,0,1,.15-.49.61.61,0,0,1,.49-.16h.93a.65.65,0,0,1,.5.16.64.64,0,0,1,.16.49v10.59a.66.66,0,0,1-.15.47.71.71,0,0,1-.51.16h-.82a.71.71,0,0,1-.37-.07,1,1,0,0,1-.28-.27l-5.76-8v7.68a.55.55,0,0,1-.66.63h-.92A.68.68,0,0,1,75.57,330.52Z"/><path class="cls-4" d="M95.6,329.31a7.55,7.55,0,0,1,0-9.14,6.84,6.84,0,0,1,8.84,0,7.51,7.51,0,0,1,0,9.14,6.81,6.81,0,0,1-8.84,0Zm7.22-1.17a5.3,5.3,0,0,0,1-3.4,5.22,5.22,0,0,0-1-3.38,4,4,0,0,0-5.6,0,5.16,5.16,0,0,0-1,3.38,5.24,5.24,0,0,0,1,3.4,4,4,0,0,0,5.6,0Z"/><path class="cls-4" d="M107.85,330.52a.66.66,0,0,1-.15-.47V319.46a.68.68,0,0,1,.15-.49.64.64,0,0,1,.5-.16h7.26a.67.67,0,0,1,.48.14.71.71,0,0,1,.13.47v.47a.76.76,0,0,1-.13.48.63.63,0,0,1-.48.15h-5.68v3.37h4.12a.52.52,0,0,1,.63.61V325a.71.71,0,0,1-.14.48.65.65,0,0,1-.49.15h-4.12v4.45a.55.55,0,0,1-.66.63h-.92A.68.68,0,0,1,107.85,330.52Z"/><path class="cls-4" d="M126.53,330.67a6.36,6.36,0,0,1-2.14-.86c-.17-.11-.25-.22-.25-.31a.35.35,0,0,1,.07-.23l.65-1c.08-.12.15-.18.22-.18a.48.48,0,0,1,.25.1,6.42,6.42,0,0,0,1.68.69,7.15,7.15,0,0,0,1.94.27,3.75,3.75,0,0,0,2-.44,1.86,1.86,0,0,0,.42-2.36,2.07,2.07,0,0,0-.74-.61,17.2,17.2,0,0,0-1.59-.68l-.45-.18a16.35,16.35,0,0,1-2.1-1,4.22,4.22,0,0,1-1.39-1.23,3.47,3.47,0,0,1,.82-4.61,6,6,0,0,1,3.57-1,9.48,9.48,0,0,1,2.34.25,4.81,4.81,0,0,1,1.71.79.46.46,0,0,1,.24.33.32.32,0,0,1-.08.21l-.63,1c-.08.12-.14.18-.19.18a.55.55,0,0,1-.26-.12,5.68,5.68,0,0,0-3.11-.8,3.19,3.19,0,0,0-1.86.45,1.64,1.64,0,0,0-.63,1.43,1.59,1.59,0,0,0,.27,1,2,2,0,0,0,.77.61q.51.25,1.65.69l.48.2a15.25,15.25,0,0,1,2.24,1,3.57,3.57,0,0,1,1.24,1.2,3.44,3.44,0,0,1,.44,1.83,3.17,3.17,0,0,1-1.26,2.65,5.77,5.77,0,0,1-3.59,1A12.57,12.57,0,0,1,126.53,330.67Z"/><path class="cls-4" d="M139,330.57a.61.61,0,0,1-.21-.38l-3.09-12.36a.42.42,0,0,1,0-.17c0-.2.12-.3.37-.3h1.58a.72.72,0,0,1,.42.1.53.53,0,0,1,.15.31l2,8.62,2.35-7.6a.65.65,0,0,1,.19-.32.56.56,0,0,1,.36-.09h.9a.56.56,0,0,1,.36.09.84.84,0,0,1,.19.32l2.37,7.6,1.93-8.62a.55.55,0,0,1,.17-.31.71.71,0,0,1,.4-.1H151c.24,0,.37.1.37.3a.72.72,0,0,1,0,.17l-3.11,12.36a.58.58,0,0,1-.65.49h-1.06a.72.72,0,0,1-.42-.11.66.66,0,0,1-.22-.38l-2.37-7.83-2.35,7.83a.67.67,0,0,1-.23.38.68.68,0,0,1-.42.11h-1.07A.73.73,0,0,1,139,330.57Z"/><path class="cls-4" d="M153.36,329.15a8.43,8.43,0,0,1,0-10.26,7.66,7.66,0,0,1,9.91,0,8.43,8.43,0,0,1,0,10.26,7.66,7.66,0,0,1-9.91,0Zm8.09-1.32a7.24,7.24,0,0,0,0-7.61,4.45,4.45,0,0,0-6.27,0,7.19,7.19,0,0,0,0,7.61,4.43,4.43,0,0,0,6.27,0Z"/><path class="cls-4" d="M167.1,330.5a.75.75,0,0,1-.17-.53V318.09a.79.79,0,0,1,.17-.55.74.74,0,0,1,.56-.18h5.11a5,5,0,0,1,3.45,1.06,4,4,0,0,1,1.19,3.13,4.1,4.1,0,0,1-.65,2.34,3.93,3.93,0,0,1-1.88,1.46l2.17,4.82a.45.45,0,0,1,.06.21c0,.2-.11.3-.35.3h-1.6a.88.88,0,0,1-.38-.07.57.57,0,0,1-.21-.29l-2-4.64h-3.15V330a.75.75,0,0,1-.17.53.76.76,0,0,1-.58.18h-1A.74.74,0,0,1,167.1,330.5Zm5.16-6.7a3.16,3.16,0,0,0,2-.52,2.13,2.13,0,0,0,.65-1.73,2.27,2.27,0,0,0-.59-1.72,2.5,2.5,0,0,0-1.78-.55h-3.11v4.52Z"/><path class="cls-4" d="M179.49,330.5a.75.75,0,0,1-.16-.53V318.09a.79.79,0,0,1,.16-.55.74.74,0,0,1,.56-.18H184A7.29,7.29,0,0,1,189,319c1.16,1.06,1.75,2.75,1.75,5.07q0,6.66-6.81,6.66h-3.92A.74.74,0,0,1,179.49,330.5Zm4.63-1.72a4.13,4.13,0,0,0,3.12-1.08,7,7,0,0,0,0-7.35,4.17,4.17,0,0,0-3.12-1.07h-2.29v9.5Z"/><path class="cls-4" d="M193.84,330.67a6.28,6.28,0,0,1-2.14-.86c-.17-.11-.26-.22-.26-.31a.36.36,0,0,1,.08-.23l.65-1q.12-.18.21-.18a.5.5,0,0,1,.26.1,6.42,6.42,0,0,0,1.68.69,7.15,7.15,0,0,0,1.94.27,3.75,3.75,0,0,0,2-.44,1.86,1.86,0,0,0,.42-2.36,2,2,0,0,0-.75-.61,15.63,15.63,0,0,0-1.58-.68l-.45-.18a17.23,17.23,0,0,1-2.11-1,4.28,4.28,0,0,1-1.38-1.23,3.44,3.44,0,0,1,.82-4.61,6,6,0,0,1,3.57-1,9.48,9.48,0,0,1,2.34.25,4.81,4.81,0,0,1,1.71.79.46.46,0,0,1,.24.33.32.32,0,0,1-.08.21l-.63,1c-.08.12-.14.18-.19.18a.55.55,0,0,1-.26-.12,5.68,5.68,0,0,0-3.11-.8,3.19,3.19,0,0,0-1.86.45,1.64,1.64,0,0,0-.63,1.43,1.59,1.59,0,0,0,.27,1,2,2,0,0,0,.77.61c.34.17.89.4,1.64.69l.49.2a15.25,15.25,0,0,1,2.24,1,3.66,3.66,0,0,1,1.24,1.2,3.44,3.44,0,0,1,.44,1.83,3.17,3.17,0,0,1-1.26,2.65,5.8,5.8,0,0,1-3.6,1A12.55,12.55,0,0,1,193.84,330.67Z"/><g class="cls-5"><rect class="cls-6" x="27.89" y="7.03" width="178.23" height="296.13"/><rect class="cls-7" x="28.02" y="168.4" width="178.23" height="133.98"/><polygon class="cls-8" points="27.84 142.76 46.8 130.37 79.02 138.14 100.8 119.63 137.94 134.15 161.47 123.86 206.12 144.66 206.12 189.69 27.84 189.69 27.84 142.76"/><polygon class="cls-9" points="26.38 160.1 71.64 132.12 106.88 149.7 141.3 126.1 178.81 144.66 206.12 130.37 206.12 189.69 27.84 189.69 26.38 160.1"/><path class="cls-10" d="M65.72,69.26a16.71,16.71,0,0,0-4,.48,16.89,16.89,0,0,1,0,32.84,16.71,16.71,0,0,0,4,.48,16.9,16.9,0,1,0,0-33.8Z"/><polygon class="cls-11" points="110.21 247.71 110.21 7.03 206.12 7.03 206.12 247.28 110.21 247.71"/><polygon class="cls-9" points="110.21 247.71 154.28 303.16 206.12 303.16 206.12 247.28 110.21 247.71"/><path class="cls-9" d="M142.71,271.33H63.31a5.15,5.15,0,0,1-5.13-5.13h0a5.15,5.15,0,0,1,5.13-5.14h79.4a5.15,5.15,0,0,1,5.13,5.14h0A5.15,5.15,0,0,1,142.71,271.33Z"/><path class="cls-12" d="M116.08,201.63a3.86,3.86,0,0,1-.58-7.67c8.93-1.35,12.94-6.64,13.79-7.92,2.42-8.07-8.39-13-8.5-13.07a3.86,3.86,0,1,1,3.15-7c6.13,2.75,16.65,11.09,12.52,23l-.11.32-.17.29c-.22.41-5.67,9.94-19.52,12A3.9,3.9,0,0,1,116.08,201.63Zm16.74-13.95Z"/><path class="cls-13" d="M101.22,165c-4.37,26.33-40.3,82.45-47.95,79.71l2.92,2.92c.9.9,5.39,2,8.53,2s6-.24,9.65,0,4,0,4,0,4.27,1.34,4.94,2,4,3.59,6.29,3.59h6.28c2.7,0,8.08-2.25,9-3.14s7-2.19,7-2.19,3.28.22,5.19.22a16,16,0,0,1,6.93,1.75c1.68.81,3.72,2.83,5.52,3.2,13.24,2.76,18.64-3.88,18.64-3.88-8.54-4-18-51.56-18-51.56Z"/><path class="cls-10" d="M141,260.5l-.82-.66a2.75,2.75,0,0,0-1.58-.6l-3.43-.18c0-.05,0-.1,0-.15l-1-5.91-.7-4.36-2.2-13.74a4.63,4.63,0,0,0-9.14,1.47l2.21,13.74.7,4.35.81,5.08a2.79,2.79,0,0,0-.72,2.34l.48,3a2.76,2.76,0,0,0,3.17,2.29l10.9-1.75A2.76,2.76,0,0,0,141,260.5Z"/><rect class="cls-14" x="122.06" y="238.49" width="10.02" height="1.75" rx="0.75" transform="translate(290.47 455.56) rotate(170.88)"/><rect class="cls-14" x="127" y="238.04" width="2.02" height="14.29" rx="0.86" transform="translate(393.63 322.29) rotate(133.76)"/><rect class="cls-14" x="127.01" y="237.99" width="1.8" height="14.29" rx="0.77" transform="translate(130.23 -31.36) rotate(28.04)"/><rect class="cls-14" x="128.58" y="247.92" width="2.02" height="14.29" rx="0.86" transform="translate(403.48 337.72) rotate(133.73)"/><rect class="cls-14" x="128.58" y="247.92" width="2.02" height="14.29" rx="0.86" transform="translate(135.05 -30.98) rotate(28.03)"/><rect class="cls-14" x="138.25" y="259.08" width="1.65" height="5.87" rx="0.7" transform="translate(317.96 498.64) rotate(170.87)"/><rect class="cls-14" x="134.98" y="258.84" width="1.65" height="6.63" rx="0.7" transform="translate(311.38 499.52) rotate(170.9)"/><rect class="cls-14" x="125.79" y="259.5" width="9.67" height="1.8" rx="0.77" transform="translate(300.87 496.81) rotate(170.88)"/><rect class="cls-14" x="125.03" y="264.95" width="17.4" height="1.68" rx="0.72" transform="translate(-40.43 24.55) rotate(-9.12)"/><rect class="cls-14" x="124.47" y="259.57" width="1.91" height="8.34" rx="0.81" transform="translate(-40.13 23.15) rotate(-9.1)"/><path class="cls-15" d="M128.2,141.75s-3.65,24-1.1,28.17l-16.39-6.38L105,159.7l8-20.35,7-3.68Z"/><rect class="cls-16" x="116.4" y="212.42" width="9.84" height="27.43" rx="4.2" transform="matrix(0.86, -0.5, 0.5, 0.86, -97.39, 91.89)"/><rect class="cls-16" x="106.78" y="157.69" width="7.87" height="9.15" transform="translate(6.63 -4.33) rotate(2.31)"/><path class="cls-16" d="M112.32,163.11h-3.24a17.41,17.41,0,0,0-7.86,1.85,10.76,10.76,0,0,0,19,0"/><rect class="cls-16" x="98.91" y="216.51" width="8.64" height="27.43" rx="3.69" transform="translate(55.78 -17.58) rotate(13.31)"/><path class="cls-10" d="M80.07,259.62l.44-.95a2.78,2.78,0,0,0,.2-1.68l-.64-3.38.14-.05,5.51-2.34,4.06-1.72,12.82-5.43A4.63,4.63,0,0,0,99,235.55L86.17,241l-4.06,1.73-4.74,2a2.77,2.77,0,0,0-2.44-.14l-2.76,1.17a2.77,2.77,0,0,0-1.47,3.63L75,259.54A2.77,2.77,0,0,0,80.07,259.62Z"/><rect class="cls-14" x="92.25" y="240.2" width="10.02" height="1.75" rx="0.75" transform="translate(-86.74 424.71) rotate(-112.97)"/><rect class="cls-14" x="90.82" y="236.23" width="2.02" height="14.29" rx="0.86" transform="translate(50.12 500.13) rotate(-150.1)"/><rect class="cls-14" x="90.96" y="236.13" width="1.8" height="14.29" rx="0.77" transform="translate(350.21 213.73) rotate(104.16)"/><rect class="cls-14" x="81.61" y="240.14" width="2.02" height="14.29" rx="0.86" transform="translate(31.07 502.85) rotate(-150.12)"/><rect class="cls-14" x="81.61" y="240.14" width="2.02" height="14.29" rx="0.86" transform="translate(342.6 227.68) rotate(104.16)"/><rect class="cls-14" x="77.31" y="255.21" width="1.65" height="5.87" rx="0.7" transform="translate(-129.04 430.84) rotate(-112.97)"/><rect class="cls-14" x="76.4" y="251.69" width="1.65" height="6.63" rx="0.7" transform="translate(-127.48 425.57) rotate(-112.95)"/><rect class="cls-14" x="72.85" y="248.66" width="9.67" height="1.8" rx="0.77" transform="translate(-121.77 418.48) rotate(-112.97)"/><rect class="cls-14" x="64.5" y="253.02" width="17.4" height="1.68" rx="0.72" transform="translate(278.36 87.39) rotate(67.03)"/><rect class="cls-14" x="72.24" y="241.14" width="1.91" height="8.34" rx="0.81" transform="translate(270.41 82.09) rotate(67)"/><path class="cls-17" d="M121.46,165.68c-.41-.26-.84-.49-1.28-.72a10.76,10.76,0,0,1-19,0,15.75,15.75,0,0,0-2.69,1.71l-.07.05a5.62,5.62,0,1,1-5.21,10c0,.13,0,.27,0,.4v52.59h34.92V177.09A13.54,13.54,0,0,0,121.46,165.68Z"/><path class="cls-10" d="M101.49,171.7a5.62,5.62,0,0,0-3-5,13.32,13.32,0,0,0-5.21,10,5.63,5.63,0,0,0,8.24-5Z"/><rect class="cls-11" x="91.42" y="202.32" width="39.65" height="5.17" rx="2.21"/><path class="cls-12" d="M116.07,203.52a5.75,5.75,0,0,1-.85-11.44c9-1.35,12.47-7,12.61-7.27l0,.07,10,5.6c-.24.43-6.14,10.75-20.9,13A6.36,6.36,0,0,1,116.07,203.52Z"/><path class="cls-18" d="M113.53,164.33c-.37,1,1,1.85,1.33,2.86l3.83,9.71c2.43,3,4.84,6.08,7.27,9.12,1.68,2.1,3.76,3.94,5,6.36.88,1.72.94,5.68,3.74,3.73a19,19,0,0,0,3.6-3.67c1.21-1.5.9-2.56.69-4.3l-.43-3.49c-.49-4-.42-9.33-3.89-12.15-4-3.22-7.48-6.66-12.42-8.43a24.63,24.63,0,0,0-5.38-1.19,4.49,4.49,0,0,0-3,.91A1.41,1.41,0,0,0,113.53,164.33Z"/><rect class="cls-19" x="119.18" y="184.79" width="4.69" height="17.93" transform="translate(227.47 -8.95) rotate(59.69)"/><rect class="cls-20" x="119.18" y="191.07" width="10.26" height="1.94" transform="translate(227.37 -12.19) rotate(59.69)"/><polygon class="cls-21" points="196.81 149.75 187.89 152.24 123.95 189.62 126.32 193.67 190.26 156.29 196.81 149.75"/><rect class="cls-19" x="121.92" y="182.37" width="4.69" height="17.93" transform="translate(180.32 -29.82) rotate(47.22)"/><rect class="cls-20" x="121.48" y="188.1" width="10.26" height="1.94" transform="translate(179.42 -32.27) rotate(47.23)"/><polygon class="cls-21" points="188.27 132.12 180.1 136.48 125.74 186.78 128.93 190.22 183.29 139.93 188.27 132.12"/><rect class="cls-19" x="122.51" y="183.04" width="4.69" height="17.93" transform="translate(202.81 -23.35) rotate(52.93)"/><rect class="cls-20" x="122.28" y="189.02" width="10.26" height="1.94" transform="translate(202.21 -26.19) rotate(52.93)"/><polygon class="cls-21" points="194.43 139.45 185.87 142.98 126.77 187.62 129.6 191.37 188.7 146.72 194.43 139.45"/><rect class="cls-19" x="120.67" y="180.45" width="4.69" height="17.93" transform="translate(150.61 -34.75) rotate(40.02)"/><rect class="cls-20" x="119.92" y="185.9" width="10.26" height="1.94" transform="translate(149.46 -36.65) rotate(40.02)"/><polygon class="cls-21" points="179.09 122.64 171.53 127.99 123.9 184.71 127.5 187.73 175.13 131.01 179.09 122.64"/><rect class="cls-19" x="115.9" y="181.61" width="4.69" height="17.93" transform="translate(128.33 -33.48) rotate(34.39)"/><rect class="cls-20" x="114.9" y="186.87" width="10.26" height="1.94" transform="translate(127.09 -34.96) rotate(34.39)"/><polygon class="cls-21" points="167.5 118.62 160.5 124.69 118.67 185.8 122.54 188.45 164.38 127.34 167.5 118.62"/><rect class="cls-19" x="117.34" y="178.26" width="4.69" height="17.93" transform="translate(78.58 -31.15) rotate(21.93)"/><rect class="cls-20" x="115.71" y="183.2" width="10.26" height="1.94" transform="translate(77.53 -31.8) rotate(21.93)"/><polygon class="cls-21" points="152.25 106.33 146.73 113.77 119.07 182.47 123.42 184.22 151.09 115.52 152.25 106.33"/><rect class="cls-19" x="118.16" y="178.61" width="4.69" height="17.93" transform="translate(100.76 -34.5) rotate(27.64)"/><rect class="cls-20" x="116.82" y="183.69" width="10.26" height="1.94" transform="translate(99.57 -35.5) rotate(27.64)"/><polygon class="cls-21" points="160.95 110.33 154.72 117.18 120.36 182.79 124.52 184.97 158.88 119.35 160.95 110.33"/><path class="cls-12" d="M129.59,200.3c-12.12,0-21.5-3.25-27.87-9.65A28.32,28.32,0,0,1,93.64,172a3.86,3.86,0,0,1,3.85-3.84h0a3.86,3.86,0,0,1,3.83,3.86,20.8,20.8,0,0,0,3.52,10.38c4.59,6.77,12.91,10.2,24.72,10.2a3.86,3.86,0,1,1,0,7.71Z"/><path class="cls-16" d="M129.59,198.92c-12.12,0-21.5-3.25-27.87-9.65a28.32,28.32,0,0,1-8.08-18.66,3.86,3.86,0,0,1,3.85-3.84h0a3.86,3.86,0,0,1,3.83,3.86A20.85,20.85,0,0,0,104.87,181c4.59,6.76,12.91,10.19,24.72,10.19a3.86,3.86,0,1,1,0,7.71Z"/><rect class="cls-1" x="27.89" y="7.03" width="178.23" height="296.13"/><path class="cls-17" d="M128.16,207.49s1.38,20.09,6.09,24.8c0,0-15,5.91-41-2.61"/><path class="cls-10" d="M89.09,103.2a.18.18,0,0,1-.36,0,.18.18,0,1,1,.36,0Z"/><path class="cls-10" d="M100.69,95.74a.18.18,0,1,1-.18-.18A.18.18,0,0,1,100.69,95.74Z"/><path class="cls-10" d="M63.75,118.63a.18.18,0,1,1-.18-.18A.18.18,0,0,1,63.75,118.63Z"/><path class="cls-10" d="M83.53,121.89a.18.18,0,0,1-.18.19.18.18,0,0,1-.19-.19.18.18,0,0,1,.19-.18A.18.18,0,0,1,83.53,121.89Z"/><path class="cls-10" d="M43.29,102.09a.18.18,0,1,1-.18-.18A.18.18,0,0,1,43.29,102.09Z"/><path class="cls-10" d="M93.17,75.26a.18.18,0,1,1-.18-.18A.18.18,0,0,1,93.17,75.26Z"/><path class="cls-10" d="M51.89,81.74a.18.18,0,1,1-.18-.18A.18.18,0,0,1,51.89,81.74Z"/><path class="cls-10" d="M65.24,58.51a.18.18,0,1,1-.18-.18A.18.18,0,0,1,65.24,58.51Z"/><path class="cls-10" d="M39.85,122.7a.19.19,0,0,1-.19.18.18.18,0,0,1,0-.36A.19.19,0,0,1,39.85,122.7Z"/><path class="cls-10" d="M42.88,71.89a.18.18,0,0,1-.18.18.18.18,0,1,1,0-.36A.18.18,0,0,1,42.88,71.89Z"/><path class="cls-16" d="M129,141.88a11.5,11.5,0,0,0-9-13.46h0a11.5,11.5,0,0,0-13.46,9l-2.14,10.89A11.46,11.46,0,0,0,124.3,158l-4.79-1.12h-.05a.46.46,0,0,1,.26-.87l5.19,1.22a11.26,11.26,0,0,0,2-4.47Z"/><path class="cls-16" d="M127.72,147.18l-.4,7.33a.64.64,0,0,1-.71.61L125.2,155"/><polygon class="cls-22" points="126.15 155.07 125.41 154.9 126.07 155.25 126.15 155.07"/><rect class="cls-14" x="120.77" y="142.05" width="2.47" height="8.62" rx="1.18" transform="translate(297.55 72.25) rotate(106.93)"/><rect class="cls-19" x="121.59" y="148.64" width="2.3" height="4.28" rx="1.1" transform="translate(196.25 330.76) rotate(-163.07)"/><path class="cls-22" d="M119.18,156.37a.46.46,0,0,0,.28.53h.05L124.3,158c.21-.25.42-.51.61-.78L119.72,156A.46.46,0,0,0,119.18,156.37Z"/><circle class="cls-10" cx="114.62" cy="151.05" r="3.5"/><path class="cls-22" d="M116.75,151.05a2.14,2.14,0,1,1-2.13-2.14A2.13,2.13,0,0,1,116.75,151.05Z"/><path class="cls-17" d="M123.34,150.45h0a.21.21,0,0,1-.15-.27l.14-.47a.21.21,0,0,1,.27-.14h0a.21.21,0,0,1,.15.27l-.14.46A.21.21,0,0,1,123.34,150.45Z"/><path class="cls-19" d="M122.48,185.65c.21-1.63,1.28-3,1.83-4.51a4.9,4.9,0,0,0,.33-2,15.67,15.67,0,0,1-.47-2.22,4.16,4.16,0,0,1,.81-1.79,10,10,0,0,0,.84-3.28c.27-1.2-1.51-2.1-.81-3.09a2,2,0,0,0,0-2.59c-.55-.95-4.56-1-5.5-1.2a74.52,74.52,0,0,1-8.52-1.66,12.62,12.62,0,0,0-5.89.15c-3.48.73-8.41,2.35-10.4,5.58-2.44,4-1.69,9.07-2.88,13.43-1,3.61-3.23,6.73-5.42,9.77C80.1,201,77.68,213.6,70.91,222c-5.77,7.18-15.81,10.28-20,18.47a2.67,2.67,0,0,0-.4,1.27,2.8,2.8,0,0,0,.62,1.45l4.21,6.11a19.57,19.57,0,0,0,4.51,5.15c3.34,2.36,8,2.36,11.7.73,1.8-.79,3.46-1.92,5.36-2.42,3.8-1,7.72.7,11.56,1.55s8.74.35,10.43-3.2c.74-1.53.74-3.44,1.88-4.7a6.54,6.54,0,0,1,3.49-1.65l8.87-2.21a6.14,6.14,0,0,0,3.44-1.69c1.13-1.37.87-3.38,1.49-5a5,5,0,0,1,3.81-3.15,2.31,2.31,0,0,0,1.26-.42,1.84,1.84,0,0,0,.42-1.21c.42-4.83,2.47-5.38,2.09-10.21-.16-2-.36-4.17.59-6a7.48,7.48,0,0,0,.94-1.9"/><path class="cls-19" d="M130.47,134.5c-5.29-10.55-20.47-7.58-27.79-1.08-3.36,3-4.1,6.74-3.31,11,.72,3.88,2.15,8.33-1.25,11.4,0,0-7.23,7.51-5.51,21.92l7.51-9.16,12.13-2.95,5.09-.27c2.15-.11,4.54-.12,6.71-.34a9.26,9.26,0,0,1-3.7-2.46,10.77,10.77,0,0,1-3.19-4.17c-.71-2,0-3.52.92-5.27,1.06-2.07,1.15-4.46,2.59-6.37,1-1.3,3.8-4.55,5.61-2.74.88.88,1.28,2.89,2.82,2.89,1.69,0,2.7-2.56,2.93-3.94A14,14,0,0,0,130.47,134.5Z"/></g></g></g></svg>