<?xml version="1.0" encoding="utf-8"?>
<!-- Generator: Adobe Illustrator 25.2.3, SVG Export Plug-In . SVG Version: 6.00 Build 0)  -->
<svg version="1.1" id="Layer_1" xmlns="http://www.w3.org/2000/svg" xmlns:xlink="http://www.w3.org/1999/xlink" x="0px" y="0px"
	 viewBox="0 0 234.3 380" style="enable-background:new 0 0 234.3 380;" xml:space="preserve">
<style type="text/css">
	.st0{fill:#F4B155;}
	.st1{fill:#FFF0CC;}
	.st2{fill:#231F20;}
	.st3{clip-path:url(#SVGID_2_);}
	.st4{fill:#F4B055;}
	.st5{fill:#FFD150;}
	.st6{fill:#FFFFFF;}
	.st7{fill:#2B3251;}
	.st8{fill:#6D4650;}
	.st9{fill:#3F272D;}
	.st10{fill:#54323A;}
	.st11{fill:#59204D;}
	.st12{fill:#7C326E;}
	.st13{fill:#604049;}
	.st14{fill:#414042;}
	.st15{fill:#EE915B;}
	.st16{fill:#4A355B;}
	.st17{fill:#FFD351;}
	.st18{fill:#E4705E;}
	.st19{fill:#F1F2F2;}
	.st20{fill:#FFE98F;}
	.st21{fill:#F9C441;}
	.st22{fill:#FF8F33;}
	.st23{fill:#FFA73E;}
	.st24{fill:#2BB673;}
	.st25{fill:none;}
	.st26{fill:#5BC4B8;}
</style>
<g id="Layer_2_1_">
	<g id="Layer_1-2">
		<path class="st0" d="M234.3,14.4v351.1c-0.1,8.1-6.8,14.6-14.9,14.5c0,0,0,0,0,0H15c-8.3,0-15-6.5-15-14.5V14.4C0,6.5,6.7,0,15,0
			h204.3C227.6,0,234.3,6.5,234.3,14.4z M220.4,357.2V22.8c0-5.9-4.8-10.8-10.8-10.8H22c-6,0-10.8,4.8-10.8,10.8v334.4
			c0,6,4.8,10.8,10.8,10.8c0,0,0,0,0,0h187.6C215.5,368,220.4,363.2,220.4,357.2C220.4,357.2,220.4,357.2,220.4,357.2z"/>
		<path class="st1" d="M22,12h187.6c6,0,10.8,4.8,10.8,10.8v334.4c0,6-4.8,10.8-10.8,10.8H22c-6,0-10.8-4.8-10.8-10.8V22.8
			C11.2,16.8,16,12,22,12z"/>
		<path class="st2" d="M33.1,339.8c-0.1-0.1-0.2-0.3-0.2-0.5v-11c0-0.2,0-0.4,0.2-0.5c0.1-0.1,0.3-0.2,0.5-0.2h7.5
			c0.2,0,0.4,0,0.5,0.1c0.1,0.1,0.1,0.3,0.1,0.5v0.5c0,0.2,0,0.4-0.1,0.5c-0.1,0.1-0.3,0.2-0.5,0.1h-5.9v3.5h4.3
			c0.3-0.1,0.6,0.1,0.6,0.4c0,0.1,0,0.1,0,0.2v0.5c0,0.2,0,0.4-0.2,0.5c-0.1,0.1-0.3,0.2-0.5,0.1h-4.3v3.5h5.9c0.2,0,0.4,0,0.5,0.1
			c0.1,0.1,0.2,0.3,0.1,0.5v0.5c0,0.2,0,0.3-0.1,0.5c-0.1,0.1-0.3,0.2-0.5,0.1h-7.5C33.4,339.9,33.2,339.9,33.1,339.8z"/>
		<path class="st2" d="M43.5,339.8c-0.1-0.1-0.2-0.3-0.2-0.5v-11c0-0.2,0-0.4,0.2-0.5c0.1-0.1,0.3-0.2,0.5-0.2h1
			c0.2,0,0.4,0,0.5,0.2c0.1,0.1,0.2,0.3,0.2,0.5v11c0,0.2,0,0.4-0.2,0.5c-0.2,0.1-0.3,0.2-0.5,0.2h-1
			C43.8,339.9,43.6,339.9,43.5,339.8z"/>
		<path class="st2" d="M49.1,338.5c-2.3-2.8-2.3-6.7,0-9.5c1.3-1.2,3-1.8,4.8-1.7c0.8,0,1.5,0.1,2.3,0.2c0.6,0.1,1.2,0.4,1.8,0.7
			c0.1,0,0.1,0.1,0.2,0.2c0,0.1,0,0.2-0.1,0.2l-0.5,0.9c-0.1,0.1-0.1,0.2-0.2,0.2c-0.1,0-0.2,0-0.2-0.1c-0.9-0.5-1.9-0.7-2.9-0.7
			c-1.2-0.1-2.4,0.4-3.2,1.2c-0.9,1-1.3,2.2-1.2,3.5c-0.1,1.3,0.3,2.6,1.1,3.5c0.8,0.8,2,1.2,3.2,1.2c0.5,0,0.9,0,1.4-0.1
			c0.4-0.1,0.8-0.2,1.1-0.3v-3.4h-2.4c-0.3,0.1-0.6-0.1-0.7-0.4c0-0.1,0-0.1,0-0.2v-0.5c0-0.2,0-0.3,0.1-0.5
			c0.1-0.1,0.3-0.2,0.5-0.1H58c0.2,0,0.4,0,0.6,0.2c0.1,0.2,0.2,0.4,0.2,0.6v4.8c0,0.1,0,0.3-0.1,0.4c0,0.1-0.1,0.2-0.2,0.2
			c-1.4,0.8-3,1.1-4.5,1C52.2,340.3,50.4,339.7,49.1,338.5z"/>
		<path class="st2" d="M60.6,339.8c-0.1-0.1-0.2-0.3-0.2-0.5v-11c0-0.2,0-0.4,0.2-0.5c0.1-0.1,0.3-0.2,0.5-0.2h1
			c0.2,0,0.4,0,0.5,0.2c0.1,0.1,0.2,0.3,0.2,0.5v4.6h5.9v-4.6c0-0.2,0-0.4,0.2-0.5c0.1-0.1,0.3-0.2,0.5-0.2h0.9c0.2,0,0.4,0,0.5,0.2
			c0.1,0.1,0.2,0.3,0.2,0.5v11c0,0.2,0,0.4-0.2,0.5c-0.1,0.1-0.3,0.2-0.5,0.2h-1c-0.2,0-0.4,0-0.5-0.2c-0.1-0.1-0.2-0.3-0.2-0.5
			v-4.7h-5.9v4.7c0,0.2,0,0.4-0.2,0.5c-0.1,0.1-0.3,0.2-0.5,0.2h-1C60.9,339.9,60.7,339.9,60.6,339.8z"/>
		<path class="st2" d="M76.4,339.8c-0.1-0.1-0.2-0.3-0.2-0.5v-9.9h-3.2c-0.2,0-0.4,0-0.5-0.1c-0.1-0.1-0.2-0.3-0.1-0.5v-0.5
			c0-0.2,0-0.4,0.1-0.5c0.1-0.1,0.3-0.2,0.5-0.2h8.7c0.3-0.1,0.6,0.1,0.7,0.4c0,0.1,0,0.1,0,0.2v0.5c0,0.2,0,0.4-0.1,0.5
			c-0.1,0.1-0.3,0.2-0.5,0.1h-3.2v9.9c0,0.3-0.2,0.6-0.5,0.7c-0.1,0-0.1,0-0.2,0h-0.9C76.7,339.9,76.5,339.9,76.4,339.8z"/>
		<path class="st2" d="M92.1,338.5c-2.1-2.8-2.1-6.7,0-9.5c2.6-2.2,6.5-2.2,9.2,0c2.1,2.8,2.1,6.7,0,9.5
			C98.6,340.8,94.7,340.8,92.1,338.5z M99.6,337.3c1.3-2.1,1.3-4.9,0-7c-1.6-1.6-4.2-1.6-5.8,0c-1.3,2.1-1.3,4.9,0,7
			C95.3,338.9,97.9,338.9,99.6,337.3C99.5,337.3,99.5,337.3,99.6,337.3z"/>
		<path class="st2" d="M104.8,339.8c-0.1-0.1-0.2-0.3-0.2-0.5v-11c0-0.2,0-0.4,0.2-0.5c0.1-0.1,0.3-0.2,0.5-0.2h7.5
			c0.2,0,0.4,0,0.5,0.1c0.1,0.1,0.1,0.3,0.1,0.5v0.5c0,0.2,0,0.4-0.1,0.5c-0.1,0.1-0.3,0.2-0.5,0.1H107v3.5h4.3c0.2,0,0.4,0,0.5,0.1
			c0.1,0.1,0.2,0.3,0.2,0.5v0.5c0,0.2,0,0.4-0.2,0.5c-0.1,0.1-0.3,0.2-0.5,0.1H107v4.6c0,0.2,0,0.4-0.2,0.5
			c-0.1,0.1-0.3,0.2-0.5,0.2h-1C105.1,339.9,104.9,339.9,104.8,339.8z"/>
		<path class="st2" d="M124,339.9c-0.8-0.2-1.5-0.4-2.1-0.9c-0.2-0.1-0.2-0.2-0.2-0.3c0-0.1,0-0.2,0.1-0.2l0.7-1
			c0.1-0.1,0.2-0.2,0.2-0.2c0.1,0,0.2,0,0.2,0.1c0.5,0.3,1.1,0.5,1.7,0.7c0.6,0.2,1.3,0.3,1.9,0.3c0.7,0,1.4-0.1,2-0.4
			c0.7-0.6,0.9-1.6,0.4-2.4c-0.2-0.3-0.4-0.5-0.7-0.6c-0.5-0.3-1-0.5-1.6-0.7l-0.4-0.2c-0.7-0.3-1.4-0.6-2.1-1
			c-0.5-0.3-1-0.7-1.4-1.2c-1-1.5-0.6-3.5,0.8-4.6c1.1-0.7,2.3-1.1,3.6-1c0.8,0,1.6,0.1,2.3,0.2c0.6,0.1,1.2,0.4,1.7,0.8
			c0.1,0.1,0.2,0.2,0.2,0.3c0,0.1,0,0.2-0.1,0.2l-0.6,1c-0.1,0.1-0.1,0.2-0.2,0.2c-0.1,0-0.2-0.1-0.3-0.1c-0.9-0.6-2-0.8-3.1-0.8
			c-0.7,0-1.3,0.1-1.9,0.5c-0.4,0.3-0.7,0.9-0.6,1.4c0,0.4,0.1,0.7,0.3,1c0.2,0.3,0.5,0.5,0.8,0.6c0.3,0.2,0.9,0.4,1.7,0.7l0.5,0.2
			c0.8,0.3,1.5,0.6,2.2,1c0.5,0.3,0.9,0.7,1.2,1.2c0.3,0.6,0.5,1.2,0.4,1.8c0,1-0.4,2-1.3,2.6c-1.1,0.7-2.3,1.1-3.6,1
			C125.8,340.2,124.9,340.1,124,339.9z"/>
		<path class="st2" d="M136.5,339.8c-0.1-0.1-0.2-0.2-0.2-0.4l-3.1-12.4c0-0.1,0-0.1,0-0.2c0-0.2,0.1-0.3,0.4-0.3h1.6
			c0.1,0,0.3,0,0.4,0.1c0.1,0.1,0.1,0.2,0.1,0.3l2,8.6l2.3-7.6c0-0.1,0.1-0.2,0.2-0.3c0.1-0.1,0.2-0.1,0.4-0.1h0.9
			c0.1,0,0.3,0,0.4,0.1c0.1,0.1,0.2,0.2,0.2,0.3l2.4,7.6l1.9-8.6c0-0.1,0.1-0.2,0.2-0.3c0.1-0.1,0.3-0.1,0.4-0.1h1.6
			c0.2,0,0.4,0.1,0.4,0.3c0,0.1,0,0.1,0,0.2l-3.1,12.4c0,0.3-0.3,0.5-0.6,0.5H144c-0.1,0-0.3,0-0.4-0.1c-0.1-0.1-0.2-0.2-0.2-0.4
			l-2.4-7.8l-2.4,7.8c0,0.1-0.1,0.3-0.2,0.4c-0.1,0.1-0.3,0.1-0.4,0.1h-1.1C136.8,339.9,136.6,339.9,136.5,339.8z"/>
		<path class="st2" d="M150.9,338.4c-2.3-3-2.3-7.2,0-10.3c2.9-2.4,7.1-2.4,9.9,0c2.3,3,2.3,7.2,0,10.3
			C157.9,340.8,153.7,340.8,150.9,338.4z M159,337.1c1.4-2.3,1.4-5.3,0-7.6c-1.7-1.7-4.5-1.7-6.3,0c-1.5,2.3-1.5,5.3,0,7.6
			C154.4,338.8,157.2,338.8,159,337.1C159,337.1,159,337.1,159,337.1z"/>
		<path class="st2" d="M164.6,339.7c-0.1-0.1-0.2-0.3-0.2-0.5v-11.9c0-0.2,0-0.4,0.2-0.5c0.2-0.1,0.4-0.2,0.6-0.2h5.1
			c1.2-0.1,2.5,0.3,3.4,1.1c0.8,0.8,1.3,2,1.2,3.1c0,0.8-0.2,1.6-0.6,2.3c-0.5,0.7-1.1,1.2-1.9,1.5l2.2,4.8c0,0.1,0.1,0.1,0.1,0.2
			c0,0.2-0.1,0.3-0.4,0.3h-1.6c-0.1,0-0.3,0-0.4-0.1c-0.1-0.1-0.2-0.2-0.2-0.3l-2-4.6H167v4.3c0,0.2,0,0.4-0.2,0.5
			c-0.2,0.1-0.4,0.2-0.6,0.2h-1C165,340,164.8,339.9,164.6,339.7z M169.8,333c0.7,0.1,1.4-0.1,2-0.5c0.5-0.4,0.7-1.1,0.6-1.7
			c0.1-0.6-0.2-1.3-0.6-1.7c-0.5-0.4-1.1-0.6-1.8-0.5H167v4.5L169.8,333z"/>
		<path class="st2" d="M177,339.7c-0.1-0.1-0.2-0.3-0.2-0.5v-11.9c0-0.2,0-0.4,0.2-0.5c0.2-0.1,0.4-0.2,0.6-0.2h3.9
			c1.8-0.1,3.6,0.4,5.1,1.6c1.2,1.1,1.8,2.8,1.8,5.1c0,4.4-2.3,6.7-6.8,6.7h-3.9C177.4,339.9,177.2,339.9,177,339.7z M181.6,338
			c1.1,0.1,2.3-0.3,3.1-1.1c1.4-2.3,1.4-5.1,0-7.4c-0.8-0.8-2-1.2-3.1-1.1h-2.3v9.5L181.6,338z"/>
		<path class="st2" d="M191.4,339.9c-0.8-0.2-1.5-0.4-2.1-0.9c-0.2-0.1-0.3-0.2-0.3-0.3c0-0.1,0-0.2,0.1-0.2l0.6-1
			c0.1-0.1,0.1-0.2,0.2-0.2c0.1,0,0.2,0,0.3,0.1c0.5,0.3,1.1,0.5,1.7,0.7c0.6,0.2,1.3,0.3,1.9,0.3c0.7,0,1.4-0.1,2-0.4
			c0.7-0.6,0.9-1.6,0.4-2.4c-0.2-0.3-0.5-0.5-0.8-0.6c-0.5-0.3-1-0.5-1.6-0.7l-0.4-0.2c-0.7-0.3-1.4-0.6-2.1-1
			c-0.5-0.3-1-0.7-1.4-1.2c-1-1.5-0.6-3.5,0.8-4.6c1.1-0.7,2.3-1.1,3.6-1c0.8,0,1.6,0.1,2.3,0.2c0.6,0.1,1.2,0.4,1.7,0.8
			c0.1,0.1,0.2,0.2,0.2,0.3c0,0.1,0,0.2-0.1,0.2l-0.6,1c-0.1,0.1-0.1,0.2-0.2,0.2c-0.1,0-0.2-0.1-0.2-0.1c-0.9-0.6-2-0.8-3.1-0.8
			c-0.7,0-1.3,0.1-1.9,0.5c-0.4,0.3-0.7,0.9-0.6,1.4c0,0.4,0.1,0.7,0.3,1c0.2,0.3,0.5,0.5,0.8,0.6c0.3,0.2,0.9,0.4,1.6,0.7l0.5,0.2
			c0.8,0.3,1.5,0.6,2.2,1c0.5,0.3,0.9,0.7,1.2,1.2c0.3,0.6,0.5,1.2,0.4,1.8c0,1-0.4,2-1.3,2.6c-1.1,0.7-2.3,1.1-3.6,1
			C193.2,340.2,192.2,340.1,191.4,339.9z"/>
		<g>
			<defs>
				<path id="SVGID_1_" d="M51.5,43.9h128.6c13.6,0,24.7,11.1,24.7,24.7v191.7c0,13.6-11.1,24.7-24.7,24.7H51.5
					c-13.6,0-24.7-11.1-24.7-24.7V68.6C26.8,55,37.9,43.9,51.5,43.9z"/>
			</defs>
			<clipPath id="SVGID_2_">
				<use xlink:href="#SVGID_1_"  style="overflow:visible;"/>
			</clipPath>
			<g class="st3">
				<path class="st4" d="M136.4,125.5c-0.8,0-1.4,0.6-1.4,1.4h2.7C137.7,126.1,137.1,125.5,136.4,125.5
					C136.4,125.5,136.4,125.5,136.4,125.5z"/>
				<path class="st5" d="M134.1,104.2C134.1,104.3,134.1,104.3,134.1,104.2L134.1,104.2z"/>
				<path class="st6" d="M144.2,160.9l33.4-0.4c2.4,0,4.3-2,4.3-4.4l0,0c0-2.4-2-4.3-4.4-4.3l-33.4,0.4c-2.4,0-4.3,2-4.3,4.4l0,0
					C139.9,159,141.9,160.9,144.2,160.9z"/>
				<path class="st6" d="M154.4,150c0.1,5.9,4.9,10.7,10.8,10.6s10.7-4.9,10.6-10.8c-0.1-5.9-4.9-10.7-10.8-10.6
					C159.1,139.2,154.3,144,154.4,150C154.4,150,154.4,150,154.4,150z"/>
				<path class="st6" d="M145.7,153.2c0,4.2,3.5,7.6,7.7,7.6c4.2,0,7.6-3.5,7.6-7.7c0-4.2-3.5-7.6-7.7-7.6c0,0,0,0,0,0
					C149,145.5,145.6,149,145.7,153.2z"/>
				<polygon class="st7" points="230,23.5 -14.6,23.5 -14.6,189.1 -14.6,208.3 -14.6,299 229.9,299 229.9,208.3 230,208.3 				"/>
				<polygon class="st8" points="210.1,163.1 19.9,163.1 19.9,241 19.9,250 19.9,292.7 210,292.7 210,250 210.1,250 				"/>
				<polygon class="st9" points="20.2,123.3 40.4,112.5 74.7,119.3 97.9,103.1 137.5,115.8 162.5,106.8 210.1,125 210.1,164.4 
					20.2,164.4 				"/>
				<polygon class="st10" points="18.7,138.5 66.9,114 104.4,129.4 141.1,108.7 181,125 210.1,112.5 210.1,164.4 20.2,164.4 				"/>
				<path class="st11" d="M56.2,190.3c0,0-26.4,6.1-39.2-25.9c0,0-29.1,30.2-8.2,92.9c0,0,2.4-13.7,11.5-9.4c0,0,3.5-16.9,13.6-12.6
					c0,0,0.7-15.2,12-17l10.3-14L56.2,190.3z"/>
				<path class="st12" d="M16,171.7L16,171.7c0.1-0.2,0.2-0.2,0.3-0.2h0.1l0,0c0.1,0.1,0.2,0.2,0.2,0.3
					c4.4,13.3,16.2,22.7,30.1,24.1c0.6,0.1,0.6,1.5,0,1.4c-5.3-0.7-10.4-2.5-15-5.3c-3.8-2.2-7.2-5.1-9.9-8.6
					c-1.8-2.3-3.3-4.8-4.5-7.4c-0.1-0.2-0.2-0.4-0.3-0.6c0.4,3.5,1.2,6.9,1.9,10.1c3.2,14.7,8.3,28.3,13.6,41.1
					c0.3,0.8-0.4,1.5-0.8,0.7c-5.7-13.1-10.2-26.6-13.5-40.5c-1-4.1-1.7-8.2-2.2-12.4c-6,20-2,47.3,3.1,66.2
					c0.2,0.9-0.5,1.6-0.8,0.7c-5-18.8-9-45.4-3.7-65.7c-10.7,19.1-11.1,48.2-6,71.8c0.2,0.9-0.6,1.3-0.8,0.4
					C2.5,223.3,3.1,190.3,16,171.7z"/>
				<path class="st11" d="M61.5,159c0,0-16.7,3.9-24.8-16.4c0,0-18.4,19.1-5.2,58.7c0,0,1.5-8.7,7.3-5.9c0,0,2.2-10.7,8.6-8
					c0,0,0.4-9.6,7.6-10.8l6.5-8.8V159z"/>
				<path class="st12" d="M36.1,147.2L36.1,147.2c0-0.1,0.1-0.1,0.2-0.1l0,0l0,0c0.1,0,0.1,0.1,0.2,0.2c2.8,8.4,10.2,14.3,19,15.2
					c0.4,0,0.4,1,0,0.9c-3.4-0.5-6.6-1.6-9.5-3.4c-2.4-1.4-4.6-3.2-6.3-5.4c-1.1-1.4-2-3-2.8-4.6c0-0.1-0.1-0.2-0.2-0.4
					c0.3,2.2,0.7,4.4,1.2,6.4c2.1,8.9,5,17.6,8.6,26c0.2,0.5-0.3,0.9-0.5,0.5c-3.6-8.3-6.4-16.8-8.5-25.6c-0.6-2.6-1.1-5.2-1.4-7.8
					c-3.8,12.7-1.2,29.9,2,41.8c0.1,0.5-0.3,1-0.5,0.5c-3.2-11.9-5.7-28.7-2.3-41.5c-6.7,12.1-7,30.5-3.8,45.4
					c0.1,0.6-0.4,0.8-0.5,0.2C27.6,179.8,27.9,158.9,36.1,147.2z"/>
				<path class="st11" d="M73.5,144.5c0,0-14.2-6.6-8.5-25.7c0,0-24,3.4-36.8,39.2c0,0,6-5.4,8.6-0.2c0,0,7.6-6.4,10.7-0.9
					c0,0,5.7-6.6,11.5-3.4l9.6-2.7L73.5,144.5z"/>
				<path class="st12" d="M61.9,121.8L61.9,121.8c0.1-0.1,0.2-0.1,0.2,0l0,0l0,0c0,0.1,0,0.2,0,0.2c-2.7,7.6-0.7,16,5.1,21.6
					c0.2,0.2-0.3,0.9-0.5,0.6c-2.2-2.2-3.8-4.9-4.9-7.8c-1-2.4-1.5-4.9-1.4-7.4c0-1.7,0.2-3.3,0.6-4.9c0-0.1,0.1-0.2,0.1-0.4
					c-1,1.7-1.9,3.5-2.8,5.2c-3.5,7.6-6.4,15.4-8.4,23.5c-0.1,0.5-0.7,0.5-0.6,0.1c2.1-7.9,4.9-15.7,8.3-23.2c1-2.2,2.1-4.3,3.4-6.4
					c-9.8,7-17.7,20.8-22.1,31.2c-0.2,0.5-0.8,0.5-0.6,0.1c4.4-10.3,12-23.8,21.7-31.1c-11.6,4.9-22.2,17.9-28.3,30.4
					c-0.2,0.5-0.7,0.3-0.5-0.1C37.5,140.4,49.5,125.6,61.9,121.8z"/>
				<polygon class="st13" points="43.3,234 16.8,258.6 26.2,290.1 246.2,305.8 210,271.4 136.9,254 85.7,242.1 77.5,230 				"/>
				<path class="st11" d="M78.3,144.5c0,0,14.2-6.6,8.6-25.7c0,0,24,3.4,36.8,39.2c0,0-6-5.4-8.6-0.2c0,0-7.6-6.4-10.7-0.9
					c0,0-5.7-6.6-11.5-3.4l-9.6-2.7L78.3,144.5z"/>
				<path class="st12" d="M90,121.8L90,121.8c-0.1,0-0.2,0-0.2,0l0,0l0,0c0,0.1,0,0.1,0,0.2c2.7,7.6,0.8,16-5,21.6
					c-0.2,0.2,0.3,0.9,0.5,0.6c2.2-2.2,3.8-4.9,4.9-7.8c1-2.4,1.4-4.9,1.4-7.4c0-1.7-0.2-3.3-0.6-4.9c0-0.1,0-0.2-0.1-0.4
					c1,1.7,1.9,3.5,2.8,5.2c3.5,7.6,6.4,15.4,8.4,23.5c0.1,0.5,0.7,0.5,0.6,0.1c-2.1-7.9-4.9-15.7-8.3-23.2c-1-2.2-2.1-4.3-3.4-6.4
					c9.9,6.9,17.7,20.7,22.2,31.1c0.2,0.5,0.8,0.5,0.6,0.1c-4.6-10.2-12.2-23.7-21.9-31c11.6,4.9,22.2,17.9,28.3,30.4
					c0.2,0.5,0.7,0.3,0.5-0.1C114.4,140.4,102.4,125.6,90,121.8z"/>
				<path class="st10" d="M142.3,261.1H89.8c-2,0-3.6-1.6-3.6-3.6l0,0c0-2,1.6-3.5,3.6-3.6h52.5c2,0,3.6,1.6,3.6,3.6l0,0
					C145.8,259.5,144.2,261.1,142.3,261.1z"/>
				<path class="st10" d="M69.2,262H25.5c-2,0-3.6-1.6-3.6-3.6l0,0c0-2,1.6-3.6,3.6-3.6h43.7c2,0,3.6,1.6,3.6,3.6l0,0
					C72.7,260.4,71.1,262,69.2,262L69.2,262z"/>
				<path class="st10" d="M80.8,241.1H37.1c-2,0-3.6-1.6-3.6-3.6l0,0c0-2,1.6-3.6,3.6-3.6h43.7c2,0,3.6,1.6,3.6,3.6l0,0
					C84.3,239.5,82.7,241.1,80.8,241.1z"/>
				<path class="st14" d="M89.5,160.8c-2.1-1.5-4.7-2.3-7.3-2.3h-2.6c-7,0-12.6,5.7-12.6,12.7v50.6h27.9v-50.6
					C94.9,167.1,92.9,163.2,89.5,160.8z"/>
				<path class="st5" d="M79.3,167.4h-0.6c-5.3,0-9.7-4.3-9.7-9.7v-10.4c0-5.3,4.3-9.7,9.7-9.7h0.6c5.3,0,9.7,4.3,9.7,9.7v10.4
					C88.9,163,84.6,167.4,79.3,167.4z"/>
				<path class="st15" d="M60.9,164.8L60.9,164.8c-0.7,0-1.2-0.5-1.2-1.2c0-0.7,0.5-1.2,1.2-1.2c0,0,0,0,0,0l0,0
					c3.4,0,4.5-3.3,4.7-4c0.1-6.4,6.9-9.8,7.2-9.9c0.6-0.2,1.3,0.2,1.5,0.8c0.1,0.5,0,1-0.5,1.3c-0.1,0-5.9,3-5.9,8v0.1v0.1
					C67.4,160.9,65.4,164.8,60.9,164.8z"/>
				<path class="st15" d="M55.4,163.1c-0.7,0-1.2-0.5-1.2-1.2c0-0.6,0.4-1.1,0.9-1.2c2.1-0.4,3.9-1.7,4.9-3.7c0.3-0.6,0.5-1.3,0.7-2
					c0.6-1.8,1.1-3.7,4-4.9c0.6-0.2,1.2-0.5,1.9-0.8c2.2-1,4.8-2.2,7.1-2.2l0,0c0.7,0.1,1.1,0.6,1.1,1.3c-0.1,0.6-0.5,1-1.1,1.1l0,0
					c-1.8,0-4.1,1.1-6.1,2c-0.7,0.3-1.3,0.6-2,0.9c-1.9,0.8-2.2,1.8-2.7,3.4c-0.2,0.8-0.5,1.6-0.8,2.3c-1.3,2.6-3.6,4.4-6.5,5
					C55.5,163.1,55.5,163.1,55.4,163.1z"/>
				<path class="st15" d="M52.7,156.1c-0.3,0-0.5,0-0.8,0c-0.7-0.1-1.1-0.7-1-1.3c0.1-0.7,0.7-1.1,1.3-1c2.3,0.3,4.2-1.8,6-3.6
					c0.2-0.2,0.3-0.3,0.5-0.5l0.1-0.1c1.9-2.1,4.1-4.4,7.6-4.3c2.8,0.1,6.6,0.7,8.3,3.2c0.4,0.6,0.2,1.3-0.3,1.7s-1.3,0.2-1.7-0.3
					c-0.9-1.3-3.2-2.1-6.4-2.2c-2.5-0.1-4,1.6-5.8,3.6l-0.1,0.1l-0.5,0.5C58.2,153.6,55.8,156.1,52.7,156.1z"/>
				<path class="st15" d="M56.5,149.6c-1.5,0-3-0.5-4.3-1.4c-0.5-0.4-0.7-1.1-0.3-1.6c0.4-0.5,1.1-0.7,1.7-0.3
					c3.4,2.4,6.8-0.3,7.4-0.8c1-1.5,2.5-2.4,4.2-2.8c4.2-0.7,8.6,2.4,8.8,2.6c0.5,0.4,0.6,1.1,0.3,1.7c-0.4,0.5-1.1,0.7-1.6,0.3
					c0,0,0,0,0,0c-0.1-0.1-3.9-2.7-7-2.2c-1.1,0.2-2.2,0.9-2.8,1.9l-0.1,0.1l-0.1,0.1C61,148.6,58.8,149.5,56.5,149.6z"/>
				<path class="st15" d="M74.8,141.2c-0.6,0-1.1-0.5-1.2-1.1c0-0.3-0.8-5.9-6.4-6.7h-0.1h-0.1c-2.2-0.9-6.3-3.8-5.6-8.8
					c0.1-0.6,0.7-1.1,1.3-1c0.6,0.1,1.1,0.7,1,1.3c-0.6,4.1,3.3,5.9,4,6.3c5.9,0.9,8,6.1,8.3,8.7c0.1,0.6-0.4,1.2-1,1.3L74.8,141.2z
					"/>
				<path class="st15" d="M73.3,142.8c-0.7,0-1.2-0.5-1.2-1.2l0,0c0-4.3-3.5-7.8-7.8-7.9c-1.9,0.7-11.3,3.8-15,0.3
					c-0.5-0.5-0.5-1.2,0-1.7c0,0,0,0,0,0c0.5-0.5,1.2-0.5,1.7,0c2.1,2,8.9,0.5,12.7-0.9l0.2-0.1h0.2c5.7,0,10.3,4.6,10.3,10.3
					C74.5,142.2,73.9,142.8,73.3,142.8z"/>
				<path class="st15" d="M75.8,142.1h-0.2c-0.6-0.1-1.1-0.7-1-1.4c0-0.3,0.1-0.6,0.1-0.9c0.4-2.7,0.8-5.3,0.1-7.9
					c-0.6-2.3-1.7-2.9-3.6-3.7c-0.9-0.4-1.7-0.8-2.5-1.3c-2.7-1.8-4.4-4.8-4.6-8c-0.1-0.7,0.4-1.2,1.1-1.3c0.7-0.1,1.2,0.4,1.3,1.1
					c0.2,2.5,1.5,4.8,3.5,6.2c0.7,0.4,1.4,0.8,2.2,1.2c2,0.9,4,1.8,4.9,5.2c0.8,3.1,0.4,6,0,8.9c0,0.3-0.1,0.6-0.1,0.9
					C76.9,141.7,76.4,142.2,75.8,142.1z"/>
				<path class="st15" d="M76.6,141.7c-0.7,0-1.2-0.5-1.2-1.2c0-0.5,0.3-0.9,0.7-1.1c2.3-1.1,3.9-3.3,4.3-5.8
					c0.5-2.9-1.3-5.1-3.2-7.4l-0.2-0.2l-0.5-0.6c-2-2.5-4.8-5.8-3.7-9.7c0.1-0.6,0.8-1.1,1.4-0.9s1.1,0.8,0.9,1.4c0,0,0,0.1,0,0.1
					c-0.7,2.7,1.4,5.3,3.3,7.6l0.5,0.6l0.1,0.2c2,2.5,4.3,5.3,3.7,9.3c-0.5,3.3-2.6,6.1-5.6,7.6C77,141.7,76.8,141.7,76.6,141.7z"/>
				<path class="st15" d="M74.2,146.8c-0.2,0-0.5-0.1-0.7-0.2c-1.2-0.9-2.3-1.9-3.3-3c-1.8-1.8-3.8-3.8-5.4-4.2
					c-2.4-0.5-3.3,0.3-4.9,1.6c-0.7,0.6-1.5,1.1-2.3,1.6c-2.8,1.6-6.2,1.8-9.2,0.6c-0.6-0.3-0.9-1-0.6-1.6c0.2-0.6,0.9-0.8,1.5-0.7
					c2.3,1,5,0.9,7.2-0.4c0.7-0.4,1.4-0.9,2-1.5c1.7-1.3,3.4-2.7,6.9-2c2.3,0.5,4.5,2.7,6.6,4.8c0.9,1,1.9,1.9,3,2.7
					c0.5,0.4,0.7,1.1,0.3,1.7C75,146.6,74.6,146.8,74.2,146.8L74.2,146.8z"/>
				<path class="st6" d="M81.2,167.4h-0.6c-5.3,0-9.7-4.3-9.7-9.7v-10.4c0-5.3,4.3-9.7,9.7-9.7h0.6c5.3,0,9.7,4.3,9.7,9.7v10.4
					C90.8,163,86.5,167.4,81.2,167.4z"/>
				<path class="st14" d="M74.2,147.2h4.9c0.5,0,0.9,0.4,0.9,0.9v0.1c0,0.5-0.4,0.9-0.9,0.9h-4.9c-0.5,0-0.9-0.4-0.9-0.9v-0.1
					C73.3,147.6,73.7,147.2,74.2,147.2z"/>
				<path class="st14" d="M83.9,147.2h4.9c0.5,0,0.9,0.4,0.9,0.9v0.1c0,0.5-0.4,0.9-0.9,0.9h-4.9c-0.5,0-0.9-0.4-0.9-0.9v-0.1
					C82.9,147.6,83.3,147.2,83.9,147.2z"/>
				<path class="st14" d="M81.6,152.5h0.1c1.4,0,2.6,1.2,2.6,2.6v4.9c0,1.4-1.2,2.6-2.6,2.6h-0.1c-1.4,0-2.6-1.2-2.6-2.6v-4.9
					C79,153.6,80.2,152.5,81.6,152.5z"/>
				<path class="st14" d="M77.3,171.6c-2.2-1.6-4.9-2.5-7.7-2.4h-2.7c-7.4,0-13.3,6-13.3,13.3l0,0v53.3H83v-53.3
					C83,178.2,80.9,174.1,77.3,171.6z"/>
				<path class="st5" d="M66.6,178.5H66c-5.6,0-10.2-4.6-10.2-10.2v-11c0-5.6,4.6-10.2,10.2-10.2h0.6c5.6,0,10.2,4.6,10.2,10.2v11
					C76.7,173.9,72.2,178.5,66.6,178.5z"/>
				<path class="st15" d="M47.2,175.8L47.2,175.8c-0.7,0-1.2-0.6-1.2-1.2s0.6-1.2,1.2-1.2l0,0c3.6,0,4.8-3.5,4.9-4.2
					c0.1-6.7,7.3-10.3,7.6-10.5c0.6-0.3,1.4-0.1,1.7,0.6c0.3,0.6,0.1,1.4-0.6,1.7c-0.1,0-6.2,3.1-6.2,8.4v0.1v0.1
					C54.1,171.7,51.9,175.8,47.2,175.8z"/>
				<path class="st15" d="M41.4,174c-0.6,0-1.1-0.4-1.2-1c-0.2-0.7,0.3-1.3,0.9-1.5c2.2-0.4,4.1-1.9,5.1-3.9
					c0.3-0.7,0.6-1.4,0.8-2.1c0.6-1.9,1.2-3.9,4.2-5.1c0.6-0.3,1.3-0.6,2-0.9c2.4-1.1,5-2.3,7.5-2.3h0c0.7,0.1,1.2,0.7,1.1,1.4
					c-0.1,0.6-0.5,1.1-1.1,1.1l0,0c-1.9,0-4.3,1.1-6.5,2.1c-0.7,0.3-1.4,0.6-2,0.9c-2,0.8-2.3,1.9-2.8,3.6c-0.2,0.8-0.5,1.6-0.9,2.4
					c-1.3,2.7-3.8,4.6-6.8,5.2C41.7,174,41.5,174,41.4,174z"/>
				<path class="st15" d="M38.6,166.6c-0.3,0-0.6,0-0.8-0.1c-0.7-0.1-1.2-0.7-1.1-1.4s0.7-1.2,1.4-1.1l0,0c2.4,0.3,4.5-1.9,6.3-3.8
					l0.5-0.5l0.1-0.1c2-2.2,4.3-4.6,8-4.5c3,0.1,6.9,0.7,8.7,3.4c0.3,0.6,0.1,1.4-0.5,1.7c-0.5,0.3-1.2,0.2-1.6-0.3
					c-0.9-1.4-3.4-2.2-6.7-2.3c-2.6-0.1-4.2,1.7-6.2,3.8l-0.1,0.1l-0.5,0.5C44.4,164,41.9,166.6,38.6,166.6z"/>
				<path class="st15" d="M42.6,159.8c-1.6,0-3.2-0.5-4.5-1.4c-0.6-0.4-0.7-1.2-0.3-1.8c0.4-0.6,1.2-0.7,1.7-0.3c0,0,0,0,0,0
					c3.6,2.5,7.1-0.3,7.8-0.8c1-1.5,2.6-2.6,4.5-2.9c4.4-0.8,9.1,2.6,9.3,2.7c0.6,0.3,0.8,1.1,0.5,1.7c-0.3,0.6-1.1,0.8-1.7,0.5
					c-0.1,0-0.2-0.1-0.2-0.2c-0.1-0.1-4.1-2.9-7.4-2.3c-1.2,0.2-2.3,0.9-2.9,2l-0.1,0.1l-0.1,0.1C47.3,158.8,45,159.7,42.6,159.8z"
					/>
				<path class="st15" d="M61.8,151c-0.6,0-1.2-0.5-1.2-1.1c0-0.3-0.8-6.2-6.8-7h-0.1l-0.1-0.1c-2.4-0.9-6.7-4-5.9-9.3
					c0.1-0.7,0.7-1.2,1.4-1.1c0,0,0,0,0,0c0.7,0.1,1.2,0.7,1.1,1.4c0,0,0,0,0,0c-0.6,4.3,3.4,6.3,4.2,6.6c6.2,0.9,8.4,6.4,8.7,9.2
					c0.1,0.7-0.4,1.3-1.1,1.4H61.8z"/>
				<path class="st15" d="M60.3,152.6c-0.7,0-1.3-0.5-1.3-1.2c0,0,0,0,0,0c0-4.5-3.6-8.2-8.2-8.4c-2,0.7-11.9,4-15.7,0.3
					c-0.5-0.5-0.5-1.3,0-1.8c0.5-0.5,1.3-0.5,1.8,0c2.2,2.1,9.4,0.5,13.4-1l0.2-0.1h0.2c6,0,10.9,4.8,10.9,10.8
					C61.6,152,61,152.6,60.3,152.6C60.3,152.6,60.3,152.6,60.3,152.6z"/>
				<path class="st15" d="M62.9,151.9h-0.2c-0.7-0.1-1.2-0.7-1.1-1.4c0,0,0,0,0,0c0-0.3,0.1-0.6,0.1-0.9c0.4-2.9,0.8-5.6,0.1-8.3
					c-0.6-2.4-1.8-3-3.8-3.9c-0.9-0.4-1.8-0.8-2.6-1.3c-2.8-1.9-4.6-5-4.8-8.5c-0.1-0.7,0.4-1.3,1.1-1.4c0.7-0.1,1.3,0.4,1.4,1.1
					c0.1,2.7,1.5,5.1,3.7,6.6c0.7,0.5,1.5,0.9,2.3,1.2c2,0.9,4.2,1.9,5.1,5.5c0.8,3.2,0.4,6.3-0.1,9.3c0,0.3-0.1,0.6-0.1,0.9
					C64,151.5,63.5,151.9,62.9,151.9z"/>
				<path class="st15" d="M63.7,151.5c-0.7,0-1.3-0.6-1.2-1.3c0-0.5,0.3-0.9,0.7-1.1c2.4-1.2,4.1-3.5,4.5-6.1c0.5-3-1.4-5.3-3.4-7.8
					l-0.2-0.2l-0.5-0.6c-2.1-2.6-5-6.1-3.9-10.2c0.2-0.7,0.9-1.1,1.5-0.9c0.7,0.2,1.1,0.9,0.9,1.5l0,0c-0.8,2.8,1.5,5.6,3.5,8
					l0.5,0.6l0.2,0.2c2.1,2.6,4.6,5.6,3.9,9.8c-0.5,3.5-2.7,6.4-5.9,8C64.1,151.5,63.9,151.5,63.7,151.5z"/>
				<path class="st15" d="M61.2,156.8c-0.3,0-0.5-0.1-0.7-0.2c-1.2-1-2.4-2-3.5-3.2c-1.9-1.9-4-4-5.7-4.4c-2.5-0.5-3.5,0.3-5.2,1.6
					c-0.8,0.6-1.6,1.2-2.4,1.7c-3,1.7-6.6,1.9-9.7,0.6c-0.6-0.2-1-1-0.7-1.6c0.2-0.6,1-1,1.6-0.7c2.4,1,5.2,0.9,7.6-0.4
					c0.7-0.5,1.4-1,2.1-1.5c1.8-1.4,3.6-2.9,7.2-2.1c2.5,0.5,4.8,2.8,7,5.1c1,1,2,2,3.1,2.9c0.6,0.4,0.7,1.2,0.3,1.7c0,0,0,0,0,0
					C62.1,156.6,61.7,156.8,61.2,156.8z"/>
				<path class="st6" d="M68.6,178.5H68c-5.6,0-10.2-4.6-10.2-10.2v-11c0-5.6,4.6-10.2,10.2-10.2h0.6c5.6,0,10.2,4.6,10.2,10.2v11
					C78.8,173.9,74.2,178.5,68.6,178.5z"/>
				<path class="st14" d="M61.3,157.3h5.1c0.6,0,1,0.4,1,1v0.1c0,0.6-0.4,1-1,1h-5.1c-0.6,0-1-0.4-1-1v-0.1
					C60.3,157.7,60.7,157.3,61.3,157.3z"/>
				<path class="st14" d="M71.4,157.3h5.1c0.6,0,1,0.4,1,1v0.1c0,0.6-0.4,1-1,1h-5.1c-0.6,0-1-0.4-1-1v-0.1
					C70.4,157.7,70.8,157.3,71.4,157.3z"/>
				<path class="st14" d="M69,162.8h0.2c1.5,0,2.7,1.2,2.7,2.7v5.2c0,1.5-1.2,2.7-2.7,2.7H69c-1.5,0-2.7-1.2-2.7-2.7v-5.2
					C66.2,164,67.5,162.8,69,162.8z"/>
				<path class="st10" d="M61,279.9H51c-0.9,0-1.6-0.7-1.6-1.6l0,0c0-0.9,0.7-1.6,1.6-1.6h10c0.9,0,1.6,0.7,1.6,1.6l0,0
					C62.6,279.1,61.9,279.8,61,279.9z"/>
				<path class="st10" d="M79.8,266h-8c-0.9,0-1.6-0.7-1.6-1.6l0,0c0-0.9,0.7-1.6,1.6-1.6h8c0.9,0,1.6,0.7,1.6,1.6l0,0
					C81.5,265.3,80.7,266,79.8,266z"/>
				<path class="st10" d="M103.8,278.6h-7.9c-0.9,0-1.6-0.7-1.7-1.6l0,0c0-0.9,0.7-1.6,1.7-1.6h7.9c0.9,0,1.6,0.7,1.6,1.6l0,0
					C105.4,277.9,104.7,278.6,103.8,278.6z"/>
				<path class="st10" d="M121.9,278.8H114c-0.9,0-1.6-0.7-1.6-1.6c0,0,0,0,0,0l0,0c0-0.9,0.7-1.6,1.6-1.6c0,0,0,0,0,0h7.9
					c0.9,0,1.6,0.7,1.6,1.6l0,0l0,0C123.6,278.1,122.9,278.8,121.9,278.8C121.9,278.8,121.9,278.8,121.9,278.8z"/>
				<path class="st10" d="M140.4,277.9h-8c-0.9,0-1.6-0.7-1.6-1.6l0,0c0-0.9,0.7-1.6,1.6-1.6h8c0.9,0,1.6,0.7,1.6,1.6l0,0
					C142,277.2,141.3,277.9,140.4,277.9z"/>
				<path class="st10" d="M152,259.7h-8c-0.9,0-1.6-0.7-1.6-1.6l0,0c0-0.9,0.7-1.6,1.6-1.6h8c0.9,0,1.6,0.7,1.6,1.6l0,0
					C153.6,258.9,152.9,259.7,152,259.7z"/>
				<path class="st10" d="M90.6,252.4h-6.5c-0.9,0-1.6-0.7-1.6-1.6l0,0c0-0.9,0.7-1.6,1.6-1.6h6.5c0.9,0,1.6,0.7,1.6,1.6l0,0
					C92.2,251.6,91.5,252.4,90.6,252.4z"/>
				<path class="st14" d="M65.9,186.8c-2.5-1.8-5.6-2.8-8.7-2.8h-3.1c-8.3,0-15,6.8-15,15.1v60.2h33.1v-60.2
					C72.2,194.2,69.9,189.6,65.9,186.8z"/>
				<path class="st5" d="M53.7,194.5H53c-6.4,0-11.5-5.2-11.5-11.5v-12.4c0-6.4,5.2-11.5,11.5-11.5h0.6c6.4,0,11.5,5.2,11.5,11.5
					V183C65.2,189.4,60,194.5,53.7,194.5z"/>
				<path class="st15" d="M31.8,191.5L31.8,191.5c-0.8,0-1.5-0.6-1.5-1.4s0.6-1.4,1.4-1.4l0,0c4.1,0,5.4-4,5.6-4.8
					c0.1-7.6,8.2-11.6,8.6-11.8c0.7-0.3,1.5-0.1,1.9,0.6s0.1,1.5-0.6,1.9l0,0c-0.1,0-7,3.6-7,9.5v0.2v0.1
					C39.7,186.9,37.2,191.5,31.8,191.5z"/>
				<path class="st15" d="M25.3,189.4c-0.8,0-1.4-0.6-1.4-1.4c0-0.7,0.5-1.3,1.1-1.4c2.5-0.5,4.6-2.1,5.8-4.4
					c0.3-0.8,0.6-1.6,0.9-2.4c0.7-2.1,1.4-4.4,4.8-5.8c0.7-0.3,1.4-0.6,2.2-1c2.7-1.2,5.7-2.6,8.5-2.6l0,0c0.8-0.1,1.5,0.5,1.5,1.3
					c0.1,0.8-0.5,1.5-1.3,1.5c-0.1,0-0.2,0-0.2,0l0,0c-2.2,0-4.9,1.2-7.3,2.3c-0.8,0.4-1.6,0.7-2.3,1c-2.2,0.9-2.6,2.1-3.2,4
					c-0.3,0.9-0.6,1.8-1,2.7c-1.5,3.1-4.3,5.2-7.7,5.9C25.5,189.4,25.4,189.4,25.3,189.4z"/>
				<path class="st15" d="M22.1,181.1c-0.3,0-0.6,0-0.9-0.1c-0.8-0.1-1.3-0.8-1.2-1.6c0.1-0.8,0.8-1.3,1.6-1.2
					c2.7,0.4,5-2.1,7.1-4.3l0.5-0.6l0.2-0.2c2.3-2.4,4.9-5.2,9.1-5.1c3.4,0.1,7.8,0.8,9.8,3.8c0.5,0.6,0.5,1.5-0.1,2
					c-0.6,0.5-1.5,0.5-2-0.1c-0.1-0.1-0.2-0.2-0.2-0.3c-1-1.6-3.8-2.5-7.6-2.6c-2.9-0.1-4.8,1.9-6.9,4.2l-0.2,0.2l-0.5,0.6
					C28.7,178.1,25.9,181.1,22.1,181.1z"/>
				<path class="st15" d="M26.7,173.4c-1.8,0-3.6-0.6-5.1-1.6c-0.6-0.4-0.8-1.3-0.4-2c0.4-0.6,1.3-0.8,2-0.4c4.1,2.8,8-0.4,8.8-1
					c1.2-1.7,3-2.9,5-3.3c4.9-0.9,10.2,2.9,10.5,3.1c0.6,0.5,0.8,1.3,0.3,2c-0.5,0.6-1.3,0.8-2,0.3c-0.1-0.1-4.6-3.2-8.3-2.6
					c-1.4,0.2-2.6,1-3.3,2.2l-0.1,0.1l-0.1,0.1C32,172.2,29.4,173.3,26.7,173.4z"/>
				<path class="st15" d="M48.4,163.4c-0.7,0-1.3-0.5-1.4-1.2c0-0.3-0.9-7-7.6-7.9h-0.2l-0.1-0.1c-2.7-1-7.5-4.5-6.7-10.5
					c0.1-0.8,0.8-1.3,1.6-1.2c0.8,0.1,1.3,0.8,1.2,1.6c-0.7,4.9,3.9,7.1,4.7,7.4c7,1.1,9.5,7.2,9.9,10.4c0.1,0.8-0.5,1.5-1.2,1.6
					L48.4,163.4z"/>
				<path class="st15" d="M46.6,165.3c-0.8,0-1.4-0.6-1.4-1.4c0,0,0,0,0,0c0-5.1-4.1-9.3-9.2-9.4c-2.2,0.8-13.4,4.6-17.8,0.4
					c-0.6-0.6-0.6-1.4,0-2s1.4-0.6,2,0c2.5,2.4,10.5,0.6,15.1-1.1l0.2-0.1h0.2c6.7,0,12.2,5.5,12.2,12.2
					C48,164.6,47.4,165.3,46.6,165.3C46.6,165.3,46.6,165.3,46.6,165.3z"/>
				<path class="st15" d="M49.5,164.5h-0.2c-0.8-0.1-1.3-0.8-1.2-1.6l0.2-1.1c0.5-3.3,0.9-6.3,0.1-9.4c-0.7-2.8-2-3.4-4.2-4.4
					c-1-0.4-2-1-3-1.6c-3.2-2.2-5.2-5.7-5.5-9.6c0-0.8,0.6-1.4,1.4-1.5c0.7,0,1.3,0.5,1.4,1.2c0.2,3,1.7,5.8,4.2,7.4
					c0.8,0.5,1.7,1,2.6,1.4c2.3,1.1,4.7,2.2,5.8,6.2c0.9,3.6,0.4,7.1-0.1,10.5l0,1C50.9,164,50.3,164.5,49.5,164.5z"/>
				<path class="st15" d="M50.5,164c-0.8,0-1.4-0.6-1.4-1.4c0-0.5,0.3-1,0.8-1.3c2.7-1.3,4.6-3.9,5.1-6.9c0.6-3.4-1.6-6-3.8-8.8
					l-0.2-0.2l-0.6-0.7c-2.4-2.9-5.7-6.9-4.5-11.5c0.3-0.7,1.1-1.1,1.8-0.9c0.7,0.2,1,0.9,0.9,1.6c-0.9,3.2,1.7,6.3,3.9,9l0.6,0.7
					l0.2,0.2c2.4,3,5.2,6.4,4.4,11c-0.6,3.9-3.1,7.2-6.6,9C51,164,50.7,164,50.5,164z"/>
				<path class="st15" d="M47.7,170c-0.3,0-0.6-0.1-0.8-0.2c-1.4-1.1-2.7-2.3-3.9-3.6c-2.1-2.1-4.5-4.6-6.4-5
					c-2.8-0.6-3.9,0.3-5.8,1.8c-0.9,0.7-1.8,1.4-2.8,2c-3.4,1.9-7.4,2.2-11,0.7c-0.7-0.3-1.1-1.1-0.8-1.8s1.1-1.1,1.8-0.8
					c2.8,1.2,5.9,1,8.5-0.4c0.9-0.5,1.7-1.1,2.5-1.7c2-1.6,4.1-3.2,8.2-2.4c2.8,0.6,5.4,3.2,7.9,5.7c1.1,1.2,2.3,2.3,3.5,3.2
					c0.7,0.4,0.8,1.3,0.4,2c0,0,0,0,0,0C48.6,169.8,48.2,170,47.7,170z"/>
				<path class="st6" d="M56,194.5h-0.7c-6.4,0-11.5-5.2-11.5-11.5v-12.4c0-6.4,5.2-11.5,11.5-11.5H56c6.4,0,11.5,5.2,11.5,11.5V183
					C67.5,189.4,62.3,194.5,56,194.5z"/>
				<path class="st14" d="M47.7,170.6h5.8c0.6,0,1.1,0.5,1.1,1.1v0.1c0,0.6-0.5,1.1-1.1,1.1h-5.8c-0.6,0-1.1-0.5-1.1-1.1v-0.1
					C46.6,171.1,47.1,170.6,47.7,170.6z"/>
				<path class="st14" d="M59.2,170.6h5.8c0.6,0,1.1,0.5,1.1,1.1v0.1c0,0.6-0.5,1.1-1.1,1.1h-5.8c-0.6,0-1.1-0.5-1.1-1.1v-0.1
					C58,171.1,58.5,170.6,59.2,170.6z"/>
				<path class="st14" d="M56.5,176.8h0.2c1.7,0,3.1,1.4,3.1,3.1v5.9c0,1.7-1.4,3.1-3.1,3.1h-0.2c-1.7,0-3.1-1.4-3.1-3.1v-5.9
					C53.4,178.2,54.8,176.8,56.5,176.8z"/>
				<path class="st16" d="M110,165.4c0,0-19.5,19.9-28.4,62.6c0,0,9.4-0.1,9.4,6.9c0,0,11.9,13.8,17.5,3.7c0,0,7.4-4.9,8.9-1.2
					l4.6-27.2L110,165.4z"/>
				<path class="st17" d="M105.4,177c-0.7,0-1.4-0.2-2-0.6C102.6,176,83,164.1,85.6,123c0.1-2.2,2-3.9,4.2-3.8s3.9,2,3.8,4.2
					c-1.2,18.8,2.7,30.3,6.2,36.7c3.7,6.8,7.7,9.3,7.7,9.3c1.9,1.1,2.5,3.6,1.4,5.5C108.2,176.2,106.9,177,105.4,177L105.4,177z"/>
				<path class="st17" d="M132.7,176.5c-0.8,0-1.6-0.1-2.4-0.2l1.9-7.8h-0.1c1.7,0.2,3.3-0.4,4.5-1.6c2.5-2.2,6.4-8.8,5-28.1
					c-0.2-2.2,1.5-4.1,3.7-4.3c2.2-0.2,4.1,1.5,4.3,3.7c1.3,17.6-1.3,29.3-7.9,34.9C139.2,175.3,136,176.5,132.7,176.5z"/>
				<path class="st18" d="M104.2,141.1h28.7l0,0v11.7c0,4.4-3.6,8-8,8h-12.7c-4.4,0-8-3.6-8-8L104.2,141.1L104.2,141.1z"/>
				<path class="st5" d="M133.4,253.4l-0.6-0.6c-0.3-0.3-0.7-0.6-1.1-0.7l-2.6-0.6c0,0,0-0.1,0-0.1v-19.1c-0.1-2-1.8-3.5-3.8-3.4
					c-1.9,0.1-3.3,1.6-3.4,3.4v18.4c-0.5,0.4-0.9,1-0.8,1.7v2.4c0,1.2,1,2.2,2.2,2.2h8.7c1.2,0,2.2-1,2.2-2.2
					C134,254.3,133.8,253.8,133.4,253.4z"/>
				<path class="st18" d="M128.6,236h-6.5c-0.4,0-0.7-0.3-0.7-0.7v0c0-0.4,0.3-0.7,0.7-0.7h6.5c0.4,0,0.7,0.3,0.7,0.7v0
					C129.2,235.7,128.9,236,128.6,236z"/>
				<path class="st18" d="M128.7,244.4L128.7,244.4c-0.4,0.3-0.9,0.2-1.1-0.1l-5.8-7.7c-0.3-0.3-0.2-0.8,0.1-1.1l0,0
					c0.3-0.3,0.8-0.2,1.1,0.1l5.8,7.7C129.1,243.6,129.1,244.1,128.7,244.4z"/>
				<path class="st18" d="M128.6,235.4L128.6,235.4c0.3,0.2,0.4,0.7,0.2,1l-5.9,7.8c-0.2,0.3-0.7,0.4-1,0.1l0,0
					c-0.3-0.2-0.4-0.7-0.1-1l5.9-7.8C127.9,235.3,128.3,235.2,128.6,235.4z"/>
				<path class="st18" d="M128.7,252.2L128.7,252.2c-0.4,0.3-0.9,0.2-1.1-0.1l-5.8-7.7c-0.3-0.3-0.2-0.8,0.1-1.1l0,0
					c0.3-0.3,0.8-0.2,1.1,0.1l5.8,7.7C129.1,251.5,129.1,252,128.7,252.2z"/>
				<path class="st18" d="M128.7,243.3L128.7,243.3c0.4,0.3,0.4,0.8,0.2,1.1l-5.8,7.7c-0.3,0.3-0.7,0.4-1.1,0.1l0,0
					c-0.3-0.3-0.4-0.7-0.1-1.1l5.8-7.7C127.9,243.1,128.3,243.1,128.7,243.3z"/>
				<path class="st18" d="M131.8,256.7L131.8,256.7c-0.4,0-0.7-0.3-0.7-0.6v-3.3c0-0.3,0.3-0.6,0.6-0.6h0c0.3,0,0.6,0.3,0.6,0.6v3.3
					C132.4,256.4,132.1,256.7,131.8,256.7z"/>
				<path class="st18" d="M129.2,256.6L129.2,256.6c-0.4,0-0.7-0.3-0.7-0.6v-3.9c0-0.3,0.3-0.6,0.6-0.6h0c0.3,0,0.6,0.3,0.6,0.6v3.9
					C129.9,256.4,129.6,256.6,129.2,256.6z"/>
				<path class="st18" d="M128.5,252.8h-6.2c-0.4,0-0.7-0.3-0.7-0.7v0c0-0.4,0.3-0.7,0.7-0.7h6.2c0.4,0,0.7,0.3,0.7,0.7v0
					C129.2,252.5,128.9,252.8,128.5,252.8z"/>
				<path class="st18" d="M121,255.9h12.4c0.4,0,0.6,0.3,0.6,0.6v0c0,0.4-0.3,0.6-0.6,0.6H121c-0.4,0-0.6-0.3-0.6-0.6v0
					C120.4,256.2,120.6,255.9,121,255.9z"/>
				<path class="st5" d="M114.3,250.8v-18.4c0-2-1.6-3.6-3.6-3.6c-2,0-3.6,1.6-3.6,3.6v19.1c0,0,0,0.1,0,0.1l-2.6,0.6
					c-0.4,0.1-0.8,0.3-1.2,0.7l-0.6,0.6c-0.8,0.9-0.7,2.3,0.1,3.1c0.4,0.4,0.9,0.6,1.5,0.6h8.7c1.2,0,2.2-1,2.2-2.2v-2.4
					C115.2,251.8,114.8,251.2,114.3,250.8z"/>
				<path class="st18" d="M107.5,234.6h6.5c0.4,0,0.7,0.3,0.7,0.7v0c0,0.4-0.3,0.7-0.7,0.7h-6.5c-0.4,0-0.7-0.3-0.7-0.7v0
					C106.8,234.9,107.1,234.6,107.5,234.6z"/>
				<path class="st18" d="M115.5,235.8L115.5,235.8c0.4,0.3,0.4,0.8,0.2,1.1l-5.8,7.7c-0.3,0.3-0.7,0.4-1.1,0.2l0,0
					c-0.3-0.3-0.4-0.7-0.2-1.1l5.8-7.7C114.7,235.6,115.2,235.5,115.5,235.8z"/>
				<path class="st18" d="M114.2,244.4L114.2,244.4c-0.4,0.3-0.9,0.2-1.1-0.1l-5.8-7.7c-0.3-0.3-0.2-0.8,0.1-1.1l0,0
					c0.3-0.3,0.8-0.2,1.1,0.1l5.8,7.7C114.6,243.6,114.5,244.1,114.2,244.4z"/>
				<path class="st18" d="M114.1,243.3L114.1,243.3c0.4,0.3,0.4,0.8,0.2,1.1l-5.8,7.7c-0.3,0.3-0.7,0.4-1.1,0.1l0,0
					c-0.3-0.3-0.4-0.7-0.1-1.1l5.8-7.7C113.3,243.1,113.8,243.1,114.1,243.3z"/>
				<path class="st18" d="M114.2,252.2L114.2,252.2c-0.4,0.3-0.9,0.2-1.1-0.1l-5.8-7.7c-0.3-0.3-0.2-0.8,0.1-1.1l0,0
					c0.3-0.3,0.8-0.2,1.1,0.1l5.8,7.7C114.6,251.5,114.5,252,114.2,252.2z"/>
				<path class="st18" d="M104.3,251.7L104.3,251.7c0.4,0,0.7,0.3,0.7,0.6v3.3c0,0.3-0.3,0.6-0.6,0.6h0c-0.3,0-0.6-0.3-0.6-0.6v-3.3
					C103.7,252,103.9,251.7,104.3,251.7z"/>
				<path class="st18" d="M106.8,251.4L106.8,251.4c0.4,0,0.7,0.3,0.7,0.6v3.7c0,0.3-0.3,0.6-0.6,0.6h0c-0.3,0-0.6-0.3-0.6-0.6V252
					C106.2,251.6,106.5,251.4,106.8,251.4z"/>
				<path class="st18" d="M107.5,251.4h6.2c0.4,0,0.7,0.3,0.7,0.7v0c0,0.4-0.3,0.7-0.7,0.7h-6.2c-0.4,0-0.7-0.3-0.7-0.7v0
					C106.8,251.7,107.1,251.4,107.5,251.4z"/>
				<path class="st18" d="M102.5,255.9h12.4c0.4,0,0.6,0.3,0.6,0.6v0c0,0.4-0.3,0.6-0.6,0.6h-12.4c-0.4,0-0.6-0.3-0.6-0.6v0
					C101.8,256.2,102.1,255.9,102.5,255.9z"/>
				<path class="st18" d="M114.7,257.3L114.7,257.3c-0.4,0-0.8-0.3-0.8-0.7v-5c0-0.4,0.3-0.7,0.7-0.7h0c0.4,0,0.7,0.3,0.7,0.7v5
					C115.4,256.9,115.1,257.3,114.7,257.3z"/>
				<path class="st18" d="M121,250.7L121,250.7c0.4,0,0.8,0.3,0.8,0.7v5.1c0,0.4-0.3,0.7-0.7,0.7h0c-0.4,0-0.7-0.3-0.7-0.7v-5.1
					C120.3,251,120.6,250.7,121,250.7z"/>
				<path class="st5" d="M118.4,158.5h0.2c1.5,0,2.7,1.2,2.7,2.7v4.6c0,1.5-1.2,2.7-2.7,2.7h-0.2c-1.5,0-2.7-1.2-2.7-2.7v-4.6
					C115.7,159.7,116.9,158.5,118.4,158.5z"/>
				<path class="st5" d="M118.2,163.7l-0.6,0c-6.3-0.3-11.2-5.7-10.9-12.1l0.6-12.4c0.3-6.3,5.7-11.2,12.1-10.9l0.6,0
					c6.3,0.3,11.2,5.7,10.9,12.1l-0.6,12.4C130,159.1,124.6,164,118.2,163.7z"/>
				<path class="st5" d="M118.3,171.8c3.8,0,7.2-2.1,9-5.4c-2.3-1.2-4.9-1.8-7.5-1.8h-3.1c-2.6,0-5.1,0.6-7.5,1.8
					C111.1,169.7,114.5,171.8,118.3,171.8z"/>
				<path class="st18" d="M117.6,126.5l0.2,0.2c2,2,2,5.1,0,7.1l-8.9,8.9c-2,2-5.1,2-7.1,0l-0.2-0.2c-2-2-2-5.1,0-7.1l8.9-8.9
					C112.5,124.6,115.7,124.6,117.6,126.5z"/>
				<path class="st18" d="M110.7,130.7h16.5c2.1,0,3.8,1.7,3.8,3.8v0.2c0,2.1-1.7,3.8-3.8,3.8h-16.5c-2.1,0-3.8-1.7-3.8-3.8v-0.2
					C106.9,132.4,108.6,130.7,110.7,130.7z"/>
				<path class="st18" d="M109.8,123h15.9c2.3,0,4.2,1.9,4.2,4.2v0.3c0,2.3-1.9,4.2-4.2,4.2h-15.9c-2.3,0-4.2-1.9-4.2-4.2v-0.3
					C105.6,124.9,107.5,123,109.8,123z"/>
				<path class="st18" d="M118.7,126.7l0.2-0.2c2-2,5.1-2,7.1,0l8.9,8.9c2,2,2,5.1,0,7.1l-0.2,0.2c-2,2-5.1,2-7.1,0l-8.9-8.9
					C116.7,131.8,116.7,128.7,118.7,126.7z"/>
				<path class="st18" d="M115.8,142.8L115.8,142.8c0.4,0.7,0.1,1.5-0.6,1.8l-4.7,2.3c-0.7,0.3-1.5,0-1.8-0.6l0-0.1
					c-0.3-0.7,0-1.5,0.6-1.8l4.7-2.3C114.7,141.8,115.5,142.1,115.8,142.8z"/>
				<path class="st18" d="M128.1,146.6L128.1,146.6c-0.4,0.7-1.1,1-1.8,0.7l-4.7-2.3c-0.7-0.3-0.9-1.1-0.6-1.8l0-0.1
					c0.3-0.7,1.1-0.9,1.8-0.6l4.7,2.3C128.2,145.1,128.5,145.9,128.1,146.6z"/>
				<path class="st18" d="M121,156.7c-0.2,0-0.4-0.1-0.6-0.3c-0.4-0.5-1.1-0.8-1.7-0.8c-0.9,0-1.7,0.3-2.4,0.9
					c-0.3,0.2-0.7,0.2-1-0.1c0,0,0,0,0,0c-0.2-0.3-0.2-0.8,0.1-1c0,0,0,0,0,0c1-0.7,2.1-1.1,3.3-1.1c1.1,0,2.2,0.5,2.8,1.3
					c0.2,0.3,0.2,0.7-0.1,1c0,0,0,0,0,0C121.3,156.7,121.1,156.7,121,156.7z"/>
				<path class="st16" d="M122.7,150.4L122.7,150.4c-0.6,0-1.1-0.5-1.1-1v-1.9c0-0.6,0.5-1,1-1h0.1c0.6,0,1,0.5,1,1v1.9
					C123.7,149.9,123.3,150.4,122.7,150.4z"/>
				<path class="st16" d="M113.9,150.4L113.9,150.4c-0.6,0-1.1-0.5-1.1-1v-1.9c0-0.6,0.5-1,1-1h0.1c0.6,0,1,0.5,1,1v1.9
					C115,149.9,114.5,150.4,113.9,150.4z"/>
				<path class="st4" d="M118.4,149.9c-1.1,0-2.1,0.9-2.1,2.1h4.1C120.5,150.8,119.6,149.9,118.4,149.9L118.4,149.9z"/>
				<path class="st4" d="M118.6,156.3c-0.6,0-1.1,0.2-1.1,0.5h2.2C119.7,156.6,119.2,156.3,118.6,156.3z"/>
				<path class="st19" d="M128.5,167.1c-0.4-0.2-0.8-0.5-1.2-0.7c-2.7,5-8.9,6.8-13.8,4.2c-1.8-0.9-3.2-2.4-4.2-4.2
					c-0.9,0.5-1.8,1-2.6,1.6h-0.1c2.6,1.4,3.6,4.6,2.2,7.2s-4.6,3.6-7.2,2.2l0,0c0,0.1,0,0.3,0,0.4V231h33.2v-53.1
					C134.8,173.5,132.4,169.3,128.5,167.1z"/>
				<path class="st5" d="M109.5,172.8c0-2-1.1-3.8-2.9-4.7c-3,2.3-4.8,5.7-5,9.5c2.6,1.4,5.8,0.4,7.2-2.2
					C109.3,174.5,109.5,173.7,109.5,172.8L109.5,172.8z"/>
				<path class="st5" d="M127.3,172.8c0-2,1.1-3.8,2.9-4.7c3,2.3,4.8,5.7,5,9.5c-2.6,1.4-5.8,0.4-7.2-2.2
					C127.6,174.5,127.4,173.7,127.3,172.8L127.3,172.8z"/>
				<path class="st14" d="M102.4,201.5h32.9c1.3,0,2.4,1.1,2.4,2.4v0.1c0,1.3-1.1,2.4-2.4,2.4h-32.9c-1.3,0-2.4-1.1-2.4-2.4v-0.1
					C100,202.5,101,201.5,102.4,201.5z"/>
				<path class="st20" d="M154.7,120.2l-14.4,1.7c-0.5,0.1-1-0.3-1-0.8c0-0.4,0.1-0.7,0.4-0.9l11.1-7.6c0.4-0.3,0.5-0.9,0.2-1.3
					c-0.2-0.3-0.5-0.4-0.8-0.4l-11,0.3c-0.5,0-0.9-0.4-1-0.9c0-0.4,0.2-0.8,0.7-0.9l11.2-3.8c0.5-0.2,0.7-0.7,0.6-1.2
					c-0.1-0.3-0.4-0.6-0.7-0.6l-12.1-2.3c-0.5-0.1-0.8-0.5-0.8-1c0.1-0.4,0.4-0.7,0.8-0.8l14.6-2.1c0.5-0.1,0.9-0.5,0.8-1
					c0-0.2-0.2-0.5-0.4-0.6l-15.8-11.1c-0.4-0.3-0.5-0.9-0.2-1.3c0.2-0.3,0.5-0.4,0.8-0.4l15.9,0.4c0.5,0,0.9-0.4,1-0.9
					c0-0.1,0-0.2-0.1-0.4l-6.3-16.6c-0.2-0.5,0-1,0.5-1.2c0.3-0.1,0.7-0.1,1,0.2l10.1,9.7c0.4,0.4,0.9,0.3,1.3,0
					c0.2-0.2,0.3-0.4,0.3-0.6l-0.1-15.1c0-0.5,0.4-0.9,0.9-0.9c0.4,0,0.7,0.2,0.9,0.5l7,13.6c0.2,0.5,0.8,0.6,1.3,0.4
					c0.3-0.1,0.4-0.4,0.5-0.7l4.3-23.9c0.1-0.5,0.6-0.8,1.1-0.7c0.4,0.1,0.7,0.4,0.7,0.8l2.9,24c0.1,0.5,0.5,0.9,1.1,0.8
					c0.3,0,0.6-0.2,0.7-0.5l11.8-24.3c0.2-0.5,0.8-0.6,1.2-0.4c0.3,0.2,0.5,0.5,0.5,0.9l-2.4,24.6c-0.1,0.5,0.3,1,0.8,1.1
					c0.2,0,0.4,0,0.5-0.1l14.9-6.1c0.5-0.2,1,0.1,1.2,0.6c0.1,0.2,0.1,0.5,0,0.7l-13,19.1c-0.3,0.4-0.2,1,0.2,1.3
					c0.1,0.1,0.2,0.1,0.3,0.1l15.8,3.2c0.5,0.1,0.8,0.6,0.7,1.1c-0.1,0.4-0.4,0.7-0.7,0.7l-14.5,2.7c-0.5,0.1-0.8,0.6-0.8,1.1
					c0.1,0.3,0.3,0.6,0.6,0.7l13.8,5.3c0.5,0.1,0.8,0.7,0.6,1.1c-0.1,0.5-0.6,0.7-1.1,0.6l-9.2-1.4c-0.5-0.1-1,0.3-1,0.8
					c0,0.4,0.2,0.8,0.5,0.9l6.9,2.8c0.5,0.2,0.7,0.7,0.6,1.2c-0.1,0.4-0.6,0.7-1,0.6l-7.8-0.7c-0.5-0.1-1,0.3-1,0.8
					c0,0.4,0.2,0.8,0.6,0.9l16,7.2c0.5,0.2,0.7,0.7,0.5,1.2c-0.2,0.4-0.6,0.6-1,0.6l-18.7-2.2c-0.5-0.1-1,0.3-1,0.8
					c0,0.2,0,0.4,0.1,0.6l4.9,8.7c0.3,0.4,0.1,1-0.3,1.3c-0.4,0.2-0.8,0.2-1.1-0.1l-4.2-3.8c-0.4-0.3-1-0.3-1.3,0.1
					c-0.2,0.3-0.3,0.6-0.2,0.9l2.5,7.1c0.2,0.5-0.1,1-0.6,1.2c-0.4,0.1-0.8,0-1-0.3l-11.1-14.5c-0.3-0.3-0.7-0.4-1.1-0.3l-6.5,2.7
					c-0.2,0.1-0.3,0.1-0.5,0.1l-9.2-1.4c-0.2,0-0.4-0.1-0.5-0.3l-0.7-0.7c-0.4-0.4-1-0.4-1.3,0c0,0,0,0,0,0l-15.2,15.2
					c-0.4,0.4-0.9,0.4-1.3,0c-0.3-0.3-0.3-0.7-0.2-1L154.7,120.2"/>
				<path class="st21" d="M155.3,85.8h39l0,0v53.7l0,0h-5.6c-18.4,0-33.3-14.9-33.3-33.3L155.3,85.8L155.3,85.8z"/>
				<path class="st17" d="M178.6,130.2c0,0,14.3-30,32.5-10.8c8.9,9.4,13.6,25.1,12.7,41.1c-1,19.5-1.1,51.6,7.2,70
					c0,0-31.7-8.3-51.8-38"/>
				<path class="st10" d="M205.2,278.6h-55.5c-2,0-3.6-1.6-3.6-3.6l0,0c0-2,1.6-3.6,3.6-3.6h55.4c2,0,3.6,1.6,3.6,3.6l0,0
					C208.8,277,207.2,278.6,205.2,278.6z"/>
				<circle class="st22" cx="154.6" cy="132" r="8.8"/>
				<path class="st23" d="M170.9,267.4v-65.8c-0.3-2.7-2.8-4.7-5.6-4.4c-2.3,0.3-4.1,2.1-4.4,4.4v66.7c0,0.1,0,0.1,0,0.2l-3.6,0.8
					c-0.6,0.1-1.2,0.4-1.6,0.9l-0.8,0.8c-1.1,1.2-1,3.1,0.2,4.2c0.5,0.5,1.2,0.8,2,0.8h11.8c1.7,0,3-1.3,3-3v-3.2
					C172.1,268.8,171.7,268,170.9,267.4z"/>
				<path class="st23" d="M197.1,271l-0.8-0.8c-0.4-0.5-1-0.8-1.6-0.9l-3.6-0.8c0-0.1,0-0.1,0-0.2v-66.7c0.3-2.7-1.6-5.2-4.3-5.6
					c-2.7-0.3-5.2,1.6-5.6,4.3c-0.1,0.4-0.1,0.8,0,1.3v65.8c-0.7,0.6-1.2,1.4-1.2,2.4v3.2c0,1.7,1.3,3,3,3H195c1.7,0,3-1.4,2.9-3.1
					C197.9,272.2,197.6,271.5,197.1,271z"/>
				<path class="st23" d="M187.6,120.2c0-0.2,0-0.3,0-0.5c-3.5-2-7.5-3.1-11.5-3.1l0,0c-12.7,0-23.1,10.3-23.1,23.1v11.5
					c1.1,0.1,2.3,0.2,3.4,0.2C173.6,151.4,187.6,137.4,187.6,120.2C187.6,120.2,187.6,120.2,187.6,120.2z"/>
				<path class="st6" d="M187.6,119.7c0,0.2,0,0.3,0,0.5c0,17.2-14,31.1-31.1,31.1c-1.1,0-2.3-0.1-3.4-0.2v63.5h46.1v-75
					C199.1,131.4,194.7,123.8,187.6,119.7z"/>
				<path class="st22" d="M174.6,124.8l-0.9,0c-8.8-0.4-15.5-7.9-15.1-16.6l0.8-17.1c0.4-8.8,7.9-15.5,16.6-15.1l0.9,0
					c8.8,0.4,15.5,7.9,15.1,16.6l-0.8,17.1C190.8,118.5,183.4,125.3,174.6,124.8z"/>
				<circle class="st23" cx="159" cy="102.8" r="4.4"/>
				<path class="st22" d="M156.3,102.8c0,1.5,1.2,2.7,2.7,2.7c1.5,0,2.7-1.2,2.7-2.7c0-1.5-1.2-2.7-2.7-2.7l0,0
					C157.5,100.2,156.3,101.4,156.3,102.8z"/>
				<path class="st23" d="M174.6,122.9l-0.9,0c-8.8-0.4-15.5-7.9-15.1-16.6l0.9-17.1c0.4-8.8,7.9-15.5,16.6-15.1l0.9,0
					c8.8,0.4,15.5,7.9,15.1,16.6l-0.9,17.1C190.8,116.6,183.4,123.4,174.6,122.9z"/>
				<polygon class="st21" points="193.1,123.5 187.1,119.3 186.3,94.1 193.1,94.1 				"/>
				<path class="st16" d="M178.1,104.4L178.1,104.4c-0.9,0-1.5-0.6-1.5-1.4v-2.6c0-0.8,0.6-1.4,1.4-1.4h0.1c0.8,0,1.4,0.6,1.4,1.4
					v2.6C179.5,103.7,178.8,104.4,178.1,104.4z"/>
				<path class="st16" d="M166,104.4L166,104.4c-0.9,0-1.5-0.6-1.5-1.4v-2.6c0-0.8,0.6-1.4,1.4-1.4h0.1c0.8,0,1.4,0.6,1.4,1.4v2.6
					C167.4,103.7,166.7,104.4,166,104.4z"/>
				<path class="st23" d="M182.5,102.2c0,2.4,2,4.4,4.4,4.4c2.4,0,4.4-2,4.4-4.4s-2-4.4-4.4-4.4S182.5,99.8,182.5,102.2L182.5,102.2
					z"/>
				<path class="st22" d="M184.2,102.2c0,1.5,1.2,2.7,2.7,2.7c1.5,0,2.7-1.2,2.7-2.7c0-1.5-1.2-2.7-2.7-2.7l0,0
					C185.4,99.5,184.2,100.7,184.2,102.2z"/>
				<path class="st21" d="M176.1,96.5l5-0.8c0.5-0.1,0.9,0.2,1,0.7l0,0.1c0.1,0.5-0.2,0.9-0.7,1l-5,0.8c-0.5,0.1-0.9-0.2-1-0.7
					l0-0.1C175.3,97,175.6,96.6,176.1,96.5z"/>
				<path class="st21" d="M167.4,98.5l-5-0.8c-0.5-0.1-0.8-0.5-0.7-1l0-0.1c0.1-0.5,0.5-0.8,1-0.7l5,0.8c0.5,0.1,0.8,0.5,0.7,1
					l0,0.1C168.3,98.3,167.9,98.6,167.4,98.5z"/>
				<path class="st22" d="M173.4,104.5L173.4,104.5L173.4,104.5L173.4,104.5L173.4,104.5c-0.3-0.5-0.8-0.7-1.3-0.7
					c-0.5,0-0.9,0.2-1.2,0.5l0,0c0,0.1,0,0.1,0,0.2v-0.1l0,0c-0.1,0.1-0.2,0.3-0.3,0.5c-0.1,0.2-0.2,0.4-0.2,0.6
					c-0.1,0.2,0.1,0.5,0.3,0.5c0,0,0,0,0.1,0h2.9c0.2,0,0.4-0.2,0.3-0.4c0,0,0,0,0-0.1C173.8,105.1,173.6,104.8,173.4,104.5z
					 M173.4,104.6L173.4,104.6z M170.8,104.6C170.8,104.6,170.8,104.6,170.8,104.6C170.8,104.7,170.8,104.6,170.8,104.6L170.8,104.6
					z M170.8,104.7L170.8,104.7L170.8,104.7z"/>
				<path class="st22" d="M147.7,160.7c-0.5-2.8,1.3-5.5,4.1-6l3.6-0.7c-1.8-1.3-2.5-3.7-1.8-5.8l0,0c0.5-1.4,1.6-2.6,3-3.1l0.3-8.3
					c0-2.5-2-4.6-4.5-4.7c-2.5,0-4.5,1.9-4.7,4.3l-1,24.1c-0.1,2.5,1.8,4.7,4.4,4.8c0.7,0,1.3-0.1,1.9-0.3
					C150.4,165,148.2,163.2,147.7,160.7z"/>
				<path class="st22" d="M192.4,147.5c-0.7-0.2-1.5-0.2-2.2-0.1l-14.7,2.8l16.6,5.7L192.4,147.5z"/>
				<path class="st22" d="M156.2,154.5l-0.3,6.3c-0.1,1.8-1.2,3.4-2.9,4.1c0.2,0,0.5,0,0.7-0.1l20.9-4l-17.9-6.1
					C156.6,154.7,156.4,154.6,156.2,154.5z"/>
				<path class="st23" d="M203.1,136.7c0.1-2.5-1.9-4.7-4.4-4.8h-1c-2.5-0.1-4.7,1.9-4.8,4.4l-0.5,11.1c2.8,0.7,4.5,3.5,3.8,6.2
					c-0.3,1.2-1,2.2-1.9,2.9l3.5,1.2c2.4,0.8,3.8,3.2,3.4,5.6c0.6-0.7,0.9-1.6,0.9-2.5L203.1,136.7z"/>
				<path class="st22" d="M194.2,156.6c2.3-1.7,2.7-4.9,1-7.2c-0.7-1-1.7-1.6-2.9-1.9l-0.3,8.4L194.2,156.6z"/>
				<path class="st22" d="M156,160.8l0.3-6.3c-0.3-0.1-0.6-0.3-0.9-0.5l-3.6,0.7c-2.8,0.5-4.6,3.3-4.1,6.1c0.5,2.5,2.7,4.3,5.3,4.2
					C154.8,164.2,155.9,162.6,156,160.8z"/>
				<path class="st23" d="M175.4,150.2l-15.3-5.2c-1.1-0.4-2.4-0.4-3.5,0.1l-0.4,8.8L175.4,150.2z"/>
				<path class="st23" d="M197.3,165.3h-1c-2.5-0.1-4.5-2.2-4.4-4.8l0.1-2.9l-17.3,3.3l19.7,6.7c2.7,0.9,5.6-0.5,6.6-3.2
					c0.1-0.3,0.2-0.6,0.2-0.9C200.3,164.7,198.8,165.4,197.3,165.3z"/>
				<path class="st23" d="M192.1,155.9l-16.6-5.7l-19.2,3.6v0.7c0.2,0.1,0.4,0.2,0.6,0.2l17.9,6.1l17.3-3.3L192.1,155.9z"/>
				<path class="st23" d="M197.7,157.8l-3.5-1.2c-0.6,0.5-1.4,0.8-2.1,1H192l-0.1,2.9c-0.1,2.5,1.9,4.7,4.4,4.8h1
					c1.5,0.1,3-0.6,3.9-1.9C201.5,161,200.1,158.6,197.7,157.8z"/>
				<path class="st23" d="M192,157.6h0.1c0.8-0.2,1.5-0.5,2.1-1l-2.2-0.8L192,157.6z"/>
				<path class="st23" d="M153.6,148.2L153.6,148.2c-0.7,2.1,0,4.5,1.8,5.8l0.9-0.2l0.4-8.8C155.2,145.6,154.1,146.7,153.6,148.2z"
					/>
				<path class="st23" d="M156.2,154.5v-0.7l-0.9,0.2C155.6,154.2,155.9,154.4,156.2,154.5z"/>
				<polygon class="st23" points="154,148.9 158,148.9 158,132.5 154.2,132.3 				"/>
				<path class="st21" d="M160.2,73.8h27.3c4.8,0,8.7,3.9,8.7,8.7V83c0,4.8-3.9,8.7-8.7,8.7h-27.3c-4.8,0-8.7-3.9-8.7-8.7v-0.5
					C151.5,77.7,155.4,73.8,160.2,73.8z"/>
				<path class="st24" d="M153.6,88.9h41.7c1.3,0,2.4,1.1,2.4,2.4v0.5c0,1.3-1.1,2.4-2.4,2.4h-41.7c-1.3,0-2.4-1.1-2.4-2.4v-0.5
					C151.3,89.9,152.3,88.9,153.6,88.9z"/>
				<path class="st6" d="M154.3,177.8c0,0-0.7,31.5-5.4,43.3c-0.7,1.8,0.1,3.8,1.9,4.6c0.3,0.1,0.6,0.2,0.9,0.2
					c11.7,1.3,38.1,3.7,50.7-0.7c0,0-8.2-34.6-7-53.3L154.3,177.8z"/>
				<path class="st22" d="M176.5,110.7h-8.9c-0.5,0-1-0.5-0.9-1l0,0c0-0.5,0.4-1,0.9-1h8.9c0.5,0,1,0.5,0.9,1l0,0
					C177.4,110.2,177,110.7,176.5,110.7z"/>
				<circle class="st23" cx="197.6" cy="127.8" r="10.4"/>
				<polygon class="st25" points="194,14.4 37.5,14.4 37.5,180 37.5,199.2 37.5,289.9 194,289.9 194,199.2 194,199.2 				"/>
				<rect x="53.9" y="187.7" class="st16" width="4.9" height="12.7"/>
				<rect x="51.1" y="199.4" class="st26" width="10.7" height="2"/>
				<rect x="53.9" y="201.3" class="st6" width="4.9" height="76.9"/>
				<rect x="134.7" y="200.7" class="st16" width="4.1" height="10.6"/>
				<rect x="132.4" y="210.5" class="st26" width="8.9" height="1.7"/>
				<rect x="134.7" y="212.1" class="st6" width="4.1" height="64.2"/>
				<rect x="98" y="201.6" class="st16" width="4.1" height="10.6"/>
				<rect x="95.7" y="211.4" class="st26" width="8.9" height="1.7"/>
				<rect x="98" y="213" class="st6" width="4.1" height="64.2"/>
				<rect x="73.4" y="181" class="st16" width="4.5" height="11.6"/>
				<rect x="70.8" y="191.7" class="st26" width="9.8" height="1.9"/>
				<rect x="73.4" y="193.5" class="st6" width="4.5" height="70.5"/>
				<rect x="85.8" y="175" class="st16" width="4.1" height="10.6"/>
				<rect x="83.4" y="184.7" class="st26" width="8.9" height="1.7"/>
				<rect x="85.7" y="186.4" class="st6" width="4.1" height="64.1"/>
				<rect x="145" y="174.3" class="st16" width="4.5" height="11.8"/>
				<rect x="142.3" y="185.1" class="st26" width="9.9" height="1.9"/>
				<rect x="145" y="186.9" class="st6" width="4.5" height="71.4"/>
				<rect x="63.9" y="211.2" class="st16" width="5.2" height="13.4"/>
				<rect x="61" y="223.6" class="st26" width="11.3" height="2.1"/>
				<rect x="63.9" y="225.7" class="st6" width="5.2" height="81.4"/>
				<rect x="115.8" y="191.8" class="st16" width="4.6" height="11.9"/>
				<rect x="113.1" y="202.8" class="st26" width="10" height="1.9"/>
				<rect x="115.8" y="204.7" class="st6" width="4.6" height="72.4"/>
			</g>
		</g>
	</g>
</g>
</svg>
