<svg xmlns="http://www.w3.org/2000/svg" xmlns:xlink="http://www.w3.org/1999/xlink" viewBox="0 0 234.27 379.95"><defs><style>.cls-1{fill:none;}.cls-2{fill:#f4b155;}.cls-3{fill:#fff0cc;}.cls-4{fill:#231f20;}.cls-5{clip-path:url(#clip-path);}.cls-6{fill:#f4b055;}.cls-7{fill:#ffd150;}.cls-8{fill:#414042;}.cls-9{fill:#2b3251;}.cls-10{fill:#6d4650;}.cls-11{fill:#59204d;}.cls-12{fill:#7c326e;}.cls-13{fill:#604049;}.cls-14{fill:#ee915b;}.cls-15{fill:#fff;}.cls-16{fill:#e6e7e8;}.cls-17{fill:#4a355b;}.cls-18{fill:#5bc4b8;}.cls-19{fill:#f1f2f2;}.cls-20{fill:#3f272d;}.cls-21{fill:#54323a;}.cls-22{fill:#e4705e;}.cls-23{fill:#ffd351;}</style><clipPath id="clip-path"><rect class="cls-1" x="27.69" y="43.73" width="177.97" height="241.09" rx="24.71"/></clipPath></defs><g id="Layer_2" data-name="Layer 2"><g id="Layer_1-2" data-name="Layer 1"><path class="cls-2" d="M234.27,14.4V365.54A14.7,14.7,0,0,1,219.33,380H14.94A14.7,14.7,0,0,1,0,365.54V14.4C0,6.46,6.7,0,14.94,0H219.33C227.57,0,234.27,6.46,234.27,14.4ZM221.71,357.18V22.76A10.78,10.78,0,0,0,210.93,12H23.34A10.78,10.78,0,0,0,12.56,22.76V357.18A10.79,10.79,0,0,0,23.34,368H210.93A10.79,10.79,0,0,0,221.71,357.18Z"/><rect class="cls-3" x="12.56" y="11.98" width="209.16" height="355.99" rx="10.78"/><path class="cls-4" d="M38.44,339.75a.74.74,0,0,1-.16-.51V327.87a.78.78,0,0,1,.16-.53.76.76,0,0,1,.56-.17h.86a.93.93,0,0,1,.41.08.85.85,0,0,1,.3.3l6.18,8.58v-8.26a.78.78,0,0,1,.16-.53.74.74,0,0,1,.54-.17h1a.74.74,0,0,1,.54.17.69.69,0,0,1,.17.53v11.37a.69.69,0,0,1-.16.51.74.74,0,0,1-.55.17h-.88a.9.9,0,0,1-.39-.07.88.88,0,0,1-.3-.29L40.68,331v8.24a.69.69,0,0,1-.16.51.74.74,0,0,1-.55.17H39A.74.74,0,0,1,38.44,339.75Z"/><path class="cls-4" d="M51.52,339.75a.74.74,0,0,1-.16-.51V327.87a.78.78,0,0,1,.16-.53.74.74,0,0,1,.54-.17h1a.79.79,0,0,1,.55.17.73.73,0,0,1,.16.53v11.37a.69.69,0,0,1-.16.51.74.74,0,0,1-.55.17h-1A.74.74,0,0,1,51.52,339.75Z"/><path class="cls-4" d="M56.13,339.75a.74.74,0,0,1-.16-.51V327.87a.78.78,0,0,1,.16-.53.76.76,0,0,1,.56-.17h.86a.93.93,0,0,1,.41.08.85.85,0,0,1,.3.3l6.19,8.58v-8.26a.73.73,0,0,1,.16-.53.7.7,0,0,1,.53-.17h1a.79.79,0,0,1,.55.17.73.73,0,0,1,.16.53v11.37a.74.74,0,0,1-.15.51.76.76,0,0,1-.56.17h-.88a1,1,0,0,1-.39-.07.88.88,0,0,1-.3-.29L58.37,331v8.24a.69.69,0,0,1-.16.51.74.74,0,0,1-.55.17h-1A.74.74,0,0,1,56.13,339.75Z"/><path class="cls-4" d="M69.22,339.75a.69.69,0,0,1-.16-.51V327.87a.73.73,0,0,1,.16-.53.7.7,0,0,1,.53-.17h7.8a.67.67,0,0,1,.51.15.71.71,0,0,1,.14.51v.5a.75.75,0,0,1-.14.52.64.64,0,0,1-.51.16H71.46v3.63h4.42a.72.72,0,0,1,.52.15.71.71,0,0,1,.15.51v.47a.71.71,0,0,1-.15.51.67.67,0,0,1-.52.16H71.46v3.66h6.07a.67.67,0,0,1,.52.16.72.72,0,0,1,.15.51v.51a.68.68,0,0,1-.15.49.72.72,0,0,1-.52.15H69.75A.7.7,0,0,1,69.22,339.75Z"/><path class="cls-4" d="M88.44,338.45a8.13,8.13,0,0,1,0-9.82,7.35,7.35,0,0,1,9.5,0,8.05,8.05,0,0,1,0,9.82,7.32,7.32,0,0,1-9.5,0Zm7.75-1.26a5.59,5.59,0,0,0,1-3.65,5.51,5.51,0,0,0-1-3.63,3.64,3.64,0,0,0-3-1.24,3.68,3.68,0,0,0-3,1.24,5.46,5.46,0,0,0-1,3.63,5.54,5.54,0,0,0,1,3.65,3.69,3.69,0,0,0,3,1.25A3.65,3.65,0,0,0,96.19,337.19Z"/><path class="cls-4" d="M101.6,339.75a.69.69,0,0,1-.16-.51V327.87a.73.73,0,0,1,.16-.53.74.74,0,0,1,.54-.17h7.79a.72.72,0,0,1,.52.15.76.76,0,0,1,.14.51v.5a.81.81,0,0,1-.14.52.67.67,0,0,1-.52.16h-6.09v3.62h4.42a.75.75,0,0,1,.53.15.68.68,0,0,1,.15.5v.51a.57.57,0,0,1-.68.67h-4.42v4.78a.69.69,0,0,1-.16.51.74.74,0,0,1-.55.17h-1A.74.74,0,0,1,101.6,339.75Z"/><path class="cls-4" d="M121.43,339.91a6.36,6.36,0,0,1-2.14-.86c-.17-.11-.25-.22-.25-.31a.35.35,0,0,1,.07-.23l.65-1c.08-.12.15-.18.22-.18a.48.48,0,0,1,.25.1,6.79,6.79,0,0,0,1.68.7,7.55,7.55,0,0,0,1.94.26,3.75,3.75,0,0,0,2-.44,1.86,1.86,0,0,0,.42-2.36,2.07,2.07,0,0,0-.74-.61,17.2,17.2,0,0,0-1.59-.68l-.45-.18a16.35,16.35,0,0,1-2.1-1,4.22,4.22,0,0,1-1.39-1.23,3.47,3.47,0,0,1,.82-4.61,6,6,0,0,1,3.57-1,9.48,9.48,0,0,1,2.34.25,5,5,0,0,1,1.71.79.46.46,0,0,1,.24.33.37.37,0,0,1-.08.22l-.63,1c-.08.12-.14.18-.19.18a.6.6,0,0,1-.26-.12,5.68,5.68,0,0,0-3.11-.8,3.19,3.19,0,0,0-1.86.45,1.64,1.64,0,0,0-.63,1.43,1.59,1.59,0,0,0,.27,1,1.94,1.94,0,0,0,.77.61q.51.25,1.65.69l.49.2a15.57,15.57,0,0,1,2.23,1,3.57,3.57,0,0,1,1.24,1.2,3.44,3.44,0,0,1,.44,1.83,3.17,3.17,0,0,1-1.26,2.65,5.77,5.77,0,0,1-3.59,1A12.57,12.57,0,0,1,121.43,339.91Z"/><path class="cls-4" d="M133.89,339.81a.61.61,0,0,1-.21-.38l-3.09-12.36a.39.39,0,0,1,0-.17c0-.2.12-.3.37-.3h1.58a.72.72,0,0,1,.42.1.53.53,0,0,1,.15.31l2,8.62,2.35-7.6a.65.65,0,0,1,.19-.32.56.56,0,0,1,.36-.09h.9a.56.56,0,0,1,.36.09.84.84,0,0,1,.19.32l2.37,7.6L143.7,327a.5.5,0,0,1,.17-.31.69.69,0,0,1,.4-.1h1.61c.24,0,.37.1.37.3a.65.65,0,0,1,0,.17l-3.11,12.36a.58.58,0,0,1-.65.49h-1.06a.72.72,0,0,1-.42-.11.66.66,0,0,1-.22-.38l-2.37-7.83-2.35,7.83a.67.67,0,0,1-.23.38.68.68,0,0,1-.42.11h-1.07A.73.73,0,0,1,133.89,339.81Z"/><path class="cls-4" d="M148.26,338.39a8.43,8.43,0,0,1,0-10.26,7.66,7.66,0,0,1,9.91,0,8.43,8.43,0,0,1,0,10.26,7.66,7.66,0,0,1-9.91,0Zm8.09-1.32a7.24,7.24,0,0,0,0-7.61,4.45,4.45,0,0,0-6.27,0,7.19,7.19,0,0,0,0,7.61,4.43,4.43,0,0,0,6.27,0Z"/><path class="cls-4" d="M162,339.74a.75.75,0,0,1-.17-.53V327.33a.79.79,0,0,1,.17-.55.74.74,0,0,1,.56-.18h5.11a5,5,0,0,1,3.45,1.06,4,4,0,0,1,1.19,3.13,4.1,4.1,0,0,1-.65,2.34,3.93,3.93,0,0,1-1.88,1.46l2.17,4.82a.48.48,0,0,1,.06.21c0,.2-.11.3-.35.3h-1.6a.88.88,0,0,1-.38-.07.64.64,0,0,1-.21-.29l-2-4.64h-3.15v4.29a.75.75,0,0,1-.17.53.76.76,0,0,1-.58.18h-1A.74.74,0,0,1,162,339.74Zm5.16-6.7a3.16,3.16,0,0,0,2-.52,2.1,2.1,0,0,0,.65-1.73,2.27,2.27,0,0,0-.59-1.72,2.5,2.5,0,0,0-1.78-.55h-3.11V333Z"/><path class="cls-4" d="M174.39,339.74a.75.75,0,0,1-.16-.53V327.33a.79.79,0,0,1,.16-.55.74.74,0,0,1,.56-.18h3.92a7.29,7.29,0,0,1,5.06,1.59c1.16,1.06,1.75,2.75,1.75,5.07q0,6.66-6.81,6.66H175A.74.74,0,0,1,174.39,339.74ZM179,338a4.13,4.13,0,0,0,3.12-1.08,7,7,0,0,0,0-7.35,4.17,4.17,0,0,0-3.12-1.07h-2.29V338Z"/><path class="cls-4" d="M188.74,339.91a6.28,6.28,0,0,1-2.14-.86c-.17-.11-.26-.22-.26-.31a.36.36,0,0,1,.08-.23l.65-1q.12-.18.21-.18a.5.5,0,0,1,.26.1,6.79,6.79,0,0,0,1.68.7,7.55,7.55,0,0,0,1.94.26,3.75,3.75,0,0,0,2-.44,1.86,1.86,0,0,0,.42-2.36,2,2,0,0,0-.75-.61,15.63,15.63,0,0,0-1.58-.68l-.45-.18a17.23,17.23,0,0,1-2.11-1,4.28,4.28,0,0,1-1.38-1.23,3.44,3.44,0,0,1,.82-4.61,6,6,0,0,1,3.57-1,9.48,9.48,0,0,1,2.34.25,5,5,0,0,1,1.71.79.46.46,0,0,1,.24.33.37.37,0,0,1-.08.22l-.63,1c-.08.12-.14.18-.19.18a.55.55,0,0,1-.26-.12,5.68,5.68,0,0,0-3.11-.8,3.19,3.19,0,0,0-1.86.45,1.64,1.64,0,0,0-.63,1.43,1.59,1.59,0,0,0,.27,1,1.94,1.94,0,0,0,.77.61c.34.17.89.4,1.64.69l.49.2a15.25,15.25,0,0,1,2.24,1,3.66,3.66,0,0,1,1.24,1.2,3.44,3.44,0,0,1,.44,1.83,3.17,3.17,0,0,1-1.26,2.65,5.8,5.8,0,0,1-3.6,1A12.55,12.55,0,0,1,188.74,339.91Z"/><g class="cls-5"><path class="cls-6" d="M137.27,125.32a1.37,1.37,0,0,0-1.37,1.37h2.74A1.37,1.37,0,0,0,137.27,125.32Z"/><path class="cls-7" d="M135.05,104.07v.07s0,0,0-.07Z"/><rect class="cls-1" x="29.56" y="39.41" width="149.3" height="248.07"/><polygon class="cls-8" points="192.44 57.95 41.9 57.95 41.9 194.3 41.9 210.09 41.9 284.83 192.36 284.83 192.36 210.09 192.44 210.09 192.44 57.95"/><polygon class="cls-9" points="215.7 43.73 18.64 43.73 18.64 197.17 18.64 214.95 18.64 299.05 215.59 299.05 215.59 214.95 215.7 214.95 215.7 43.73"/><polygon class="cls-10" points="215.7 205.23 18.64 205.23 18.64 256.19 18.64 262.1 18.64 290.03 215.59 290.03 215.59 262.1 215.7 262.1 215.7 205.23"/><path class="cls-11" d="M98.48,100S76.22,97.56,69.86,79.27c0,0-27.41,8.77-18.23,43.72,0,0,3.69-6.22,10.51-2.23,0,0,4.93-7.53,12.61-3.37,0,0,2.47-7.27,11.89-5.84l10.1-4.7Z"/><path class="cls-12" d="M68.13,82.63h0a.33.33,0,0,1,.29,0l0,0,0,0a.31.31,0,0,1,.17.2c2.71,9.18,12.76,15.16,21.4,18,.44.15.27.86-.18.71a48,48,0,0,1-11.52-5.72,29.42,29.42,0,0,1-7-6.26A21.7,21.7,0,0,1,68.65,85a3.57,3.57,0,0,0-.17-.34A34.74,34.74,0,0,0,68.74,90c.76,7.87,3.2,15.57,6,22.93.16.44-.54.64-.71.2a96,96,0,0,1-6-22.59,31.29,31.29,0,0,1-.25-6.5c-7.42,8.55-7.5,22.71-5.74,33,.08.46-.63.66-.7.2C59.62,107,59.67,93.21,66.56,84.4c-11.05,7.14-15,21.3-13.86,33.86,0,.47-.69.48-.73,0C50.74,105.06,55.3,89,68.13,82.63Z"/><polygon class="cls-13" points="105.86 263.83 104.79 265.08 73.28 295.49 170.34 295.49 133.03 263.71 105.86 263.83"/><path class="cls-11" d="M137.06,100s22.26-2.47,28.61-20.76c0,0,27.42,8.77,18.24,43.72,0,0-3.69-6.22-10.51-2.23,0,0-4.93-7.53-12.61-3.37,0,0-2.47-7.27-11.9-5.84l-10.09-4.7Z"/><path class="cls-12" d="M167.41,82.63h0a.33.33,0,0,0-.29,0l-.05,0,0,0a.31.31,0,0,0-.17.2c-2.71,9.18-12.76,15.16-21.4,18-.45.15-.27.86.18.71a48,48,0,0,0,11.52-5.72,29.42,29.42,0,0,0,7-6.26A21.7,21.7,0,0,0,166.89,85a3.57,3.57,0,0,1,.17-.34A34.74,34.74,0,0,1,166.8,90c-.76,7.87-3.2,15.57-6,22.93-.16.44.54.64.71.2a96,96,0,0,0,5.95-22.59,31.29,31.29,0,0,0,.25-6.5c7.41,8.55,7.5,22.71,5.74,33-.08.46.62.66.7.2,1.75-10.23,1.7-24.06-5.2-32.87,11.06,7.14,15,21.3,13.87,33.86-.05.47.69.48.73,0C184.8,105.06,180.24,89,167.41,82.63Z"/><path class="cls-14" d="M67.53,92.57l0,0a1.21,1.21,0,1,1,1.72-1.7l0,0c2.48,2.49,5.66.85,6.27.5,4.67-4.51,12-2.08,12.37-2a1.21,1.21,0,0,1-.78,2.3c-.09,0-6.4-2.08-10,1.5l-.1.09-.11.07C75.08,94.5,70.78,95.81,67.53,92.57Z"/><path class="cls-14" d="M64.84,87.35a1.22,1.22,0,0,1-.18-1.5,1.21,1.21,0,0,1,1.67-.39,7,7,0,0,0,6.15.85,15.46,15.46,0,0,0,2-.91c1.71-.91,3.49-1.84,6.43-.62.59.25,1.25.5,1.94.75,2.36.88,5,1.87,6.71,3.56l0,0a1.21,1.21,0,1,1-1.72,1.71l0,0c-1.32-1.32-3.72-2.21-5.85-3-.71-.27-1.39-.52-2-.79-1.89-.78-2.82-.29-4.37.52a16.25,16.25,0,0,1-2.27,1,9.37,9.37,0,0,1-8.24-1.07A1,1,0,0,1,64.84,87.35Z"/><path class="cls-14" d="M68,80.37a5.16,5.16,0,0,1-.53-.6,1.21,1.21,0,0,1,1.93-1.47c1.44,1.88,4.36,1.77,6.93,1.67L77,80h.2c2.88-.09,6.15-.2,8.62,2.41,2,2.1,4.23,5.25,3.64,8.3a1.21,1.21,0,1,1-2.38-.45c.3-1.58-.8-3.83-3-6.18-1.73-1.83-4.06-1.74-6.77-1.65h-.2l-.67,0C73.74,82.5,70.21,82.64,68,80.37Z"/><path class="cls-14" d="M75.43,78.42a7.7,7.7,0,0,1-2.11-4.09,1.22,1.22,0,1,1,2.39-.45c.77,4.16,5.09,4.68,5.89,4.74a6.58,6.58,0,0,1,5,1.07c3.52,2.47,4.45,8,4.49,8.21a1.22,1.22,0,1,1-2.4.39c0-.1-.83-4.75-3.49-6.61A4.2,4.2,0,0,0,81.9,81l-.13,0h-.14A9.67,9.67,0,0,1,75.43,78.42Z"/><path class="cls-14" d="M94.61,85.56a1.21,1.21,0,0,1-.1-1.6c.17-.21,3.68-4.82.19-9.43l-.09-.1,0-.13c-1-2.24-1.84-7.3,2.34-10.43a1.21,1.21,0,0,1,1.45,1.94c-3.38,2.54-1.93,6.64-1.63,7.38,3.59,4.87,1.38,10.15-.3,12.27a1.22,1.22,0,0,1-1.71.2Z"/><path class="cls-14" d="M92.42,85.61a1.21,1.21,0,0,1,0-1.72,8.1,8.1,0,0,0,.1-11.29c-1.82-.85-10.92-5.39-11-10.57A1.22,1.22,0,1,1,84,62c0,2.94,6,6.77,9.79,8.49l.2.09.15.16a10.52,10.52,0,0,1,0,14.87A1.21,1.21,0,0,1,92.42,85.61Z"/><path class="cls-14" d="M94.66,86.93a.69.69,0,0,1-.11-.13,1.21,1.21,0,0,1,.24-1.7c.25-.18.5-.36.74-.55,2.27-1.68,4.41-3.27,5.79-5.63,1.24-2.12.81-3.29.1-5.24a20.66,20.66,0,0,1-.85-2.73,10.68,10.68,0,0,1,2.48-9.12,1.21,1.21,0,1,1,1.87,1.54,8.26,8.26,0,0,0-2,7.06,16.8,16.8,0,0,0,.75,2.42c.75,2.06,1.53,4.2-.29,7.3-1.63,2.78-4.07,4.59-6.43,6.35l-.73.55A1.22,1.22,0,0,1,94.66,86.93Z"/><path class="cls-14" d="M95.56,87.24a1.21,1.21,0,0,1,1.24-2,8.09,8.09,0,0,0,7.27-1.1c2.42-1.73,2.71-4.6,3-7.64l0-.23c0-.25,0-.51.08-.77.31-3.24.74-7.68,4.31-9.7a1.2,1.2,0,0,1,1.65.45,1.22,1.22,0,0,1-.45,1.66c-2.48,1.4-2.81,4.81-3.1,7.82,0,.27,0,.54-.07.79l0,.23c-.34,3.28-.72,7-4,9.36A10.51,10.51,0,0,1,96,87.53,1.17,1.17,0,0,1,95.56,87.24Z"/><path class="cls-14" d="M90.21,89.14a1.1,1.1,0,0,1-.33-.63A24.88,24.88,0,0,1,89.67,84c0-2.56,0-5.47-.9-6.9-1.35-2-2.59-2.19-4.65-2.42a20.15,20.15,0,0,1-2.83-.46,10.65,10.65,0,0,1-7.07-6.27,1.21,1.21,0,0,1,.61-1.6,1.23,1.23,0,0,1,1.61.61,8.26,8.26,0,0,0,5.45,4.91,18.22,18.22,0,0,0,2.5.4c2.18.24,4.44.49,6.41,3.5,1.34,2,1.32,5.2,1.29,8.25a25,25,0,0,0,.17,4.09,1.21,1.21,0,0,1-2.05,1.08Z"/><path class="cls-14" d="M91.1,79.27v0a1.23,1.23,0,0,1,.83-1.51,1.21,1.21,0,0,1,1.5.84v0C94.42,82,98,82,98.7,82c6.26-1.72,11.57,4,11.79,4.2a1.2,1.2,0,0,1-.07,1.71,1.21,1.21,0,0,1-1.71-.07c-.06-.07-4.62-4.89-9.48-3.47l-.13,0H99C96.81,84.58,92.39,83.67,91.1,79.27Z"/><path class="cls-14" d="M91.24,73.39a1.21,1.21,0,0,1,2.22-.94,7,7,0,0,0,5,3.69,14.85,14.85,0,0,0,2.16.14c1.93,0,3.94.06,5.93,2.55.4.5.86,1,1.35,1.59,1.64,1.9,3.51,4,4.18,6.34v0a1.21,1.21,0,0,1-2.33.68v0c-.52-1.78-2.2-3.72-3.69-5.43-.5-.58-1-1.12-1.4-1.66-1.28-1.6-2.33-1.61-4.08-1.64a16.35,16.35,0,0,1-2.49-.17,9.39,9.39,0,0,1-6.73-4.89C91.31,73.56,91.27,73.48,91.24,73.39Z"/><path class="cls-14" d="M97.32,68.76a6.34,6.34,0,0,1-.18-.78,1.22,1.22,0,0,1,1-1.38,1.2,1.2,0,0,1,1.38,1c.36,2.35,3,3.65,5.28,4.8l.62.3.18.09c2.57,1.3,5.49,2.78,6.41,6.25.73,2.8,1.19,6.64-.79,9a1.21,1.21,0,0,1-1.87-1.55c1-1.23,1.13-3.74.31-6.87-.64-2.43-2.73-3.48-5.16-4.7l-.17-.09-.61-.3C101.38,73.41,98.22,71.83,97.32,68.76Z"/><path class="cls-14" d="M104.82,70.64a7.68,7.68,0,0,1,.11-4.61,1.22,1.22,0,0,1,2.31.76c-1.32,4,2.23,6.55,2.9,7a6.52,6.52,0,0,1,3.9,3.36c1.92,3.85.08,9.13,0,9.35a1.21,1.21,0,0,1-1.55.74,1.19,1.19,0,0,1-.74-1.54c0-.1,1.55-4.57.11-7.48A4.21,4.21,0,0,0,109.24,76l-.12,0-.12-.07A9.72,9.72,0,0,1,104.82,70.64Z"/><path class="cls-14" d="M118.22,86.1a1.21,1.21,0,0,1,.69-1.45c.25-.11,5.54-2.47,4.68-8.18l0-.14V76.2c.18-2.46,1.89-7.29,7-8a1.23,1.23,0,0,1,1.38,1,1.21,1.21,0,0,1-1,1.37c-4.18.61-4.88,4.91-5,5.7.82,6-3.65,9.56-6.15,10.62a1.22,1.22,0,0,1-1.59-.64Z"/><path class="cls-14" d="M116.28,85.09a1.22,1.22,0,0,1,.82-1.51,8.09,8.09,0,0,0,5.51-9.85c-1.19-1.62-7-10-4.59-14.55a1.21,1.21,0,0,1,2.15,1.13c-1.37,2.61,2,8.83,4.52,12.15l.13.17.06.21a10.52,10.52,0,0,1-7.1,13.07A1.21,1.21,0,0,1,116.28,85.09Z"/><path class="cls-14" d="M117.61,87.33l0-.17a1.2,1.2,0,0,1,1-1.37l.92-.13c2.8-.39,5.44-.77,7.77-2.17,2.11-1.26,2.3-2.5,2.61-4.55a19.61,19.61,0,0,1,.57-2.8A10.67,10.67,0,0,1,137,69.32a1.21,1.21,0,0,1,.9,2.25,8.28,8.28,0,0,0-5.12,5.26,17,17,0,0,0-.5,2.48c-.33,2.17-.67,4.41-3.76,6.26-2.76,1.66-5.77,2.08-8.68,2.49l-.91.13A1.22,1.22,0,0,1,117.61,87.33Z"/><path class="cls-14" d="M118.25,88a1.21,1.21,0,0,1,2.06-1.16,8,8,0,0,0,6.9,2.52c3-.36,4.59-2.73,6.32-5.25l.13-.19.44-.64c1.83-2.69,4.33-6.38,8.44-6.45a1.22,1.22,0,0,1,0,2.43c-2.85,0-4.77,2.88-6.47,5.38q-.23.34-.45.66l-.13.19c-1.86,2.71-4,5.79-8,6.28a10.49,10.49,0,0,1-9-3.29A1.07,1.07,0,0,1,118.25,88Z"/><path class="cls-14" d="M112.65,87.13a1.15,1.15,0,0,1,0-.71,25,25,0,0,1,2-4.1c1.25-2.24,2.66-4.78,2.52-6.49-.19-2.44-1.22-3.16-2.92-4.35A20.09,20.09,0,0,1,112,69.72a10.7,10.7,0,0,1-3.2-8.89,1.23,1.23,0,0,1,1.31-1.12A1.21,1.21,0,0,1,111.22,61a8.3,8.3,0,0,0,2.43,6.92,20.07,20.07,0,0,0,2,1.55c1.8,1.26,3.66,2.56,3.95,6.14.2,2.45-1.34,5.2-2.82,7.87A24.48,24.48,0,0,0,115,87.17a1.21,1.21,0,0,1-2.32,0Z"/><path class="cls-14" d="M121.6,69v0a1.21,1.21,0,1,1,2.42.15v0c-.19,3.51,3.15,4.78,3.83,5,6.48.45,9.6,7.56,9.73,7.87a1.21,1.21,0,0,1-2.23,1c0-.09-2.73-6.15-7.79-6.42h-.13l-.13,0C125.23,75.86,121.36,73.53,121.6,69Z"/><path class="cls-14" d="M123.68,63.46a1.22,1.22,0,0,1,2.41-.16,7,7,0,0,0,3.48,5.14,15.84,15.84,0,0,0,2,.85c1.82.67,3.7,1.36,4.75,4.37.22.6.47,1.25.75,1.94.92,2.34,2,5,1.84,7.37v0a1.21,1.21,0,1,1-2.42-.14v0c.1-1.85-.85-4.24-1.68-6.34-.28-.72-.55-1.39-.78-2-.67-1.93-1.66-2.29-3.3-2.89a19,19,0,0,1-2.3-1,9.37,9.37,0,0,1-4.72-6.84C123.69,63.64,123.68,63.55,123.68,63.46Z"/><path class="cls-14" d="M131,61.1a5.46,5.46,0,0,1,.09-.79,1.22,1.22,0,1,1,2.39.45c-.44,2.33,1.6,4.42,3.39,6.27l.48.49.14.15c2,2.08,4.26,4.44,4,8-.24,2.89-1.07,6.66-3.74,8.27a1.21,1.21,0,0,1-1.25-2.08c1.37-.83,2.31-3.15,2.57-6.38.2-2.51-1.43-4.18-3.31-6.14l-.14-.15-.47-.48C133.25,66.83,130.78,64.3,131,61.1Z"/><path class="cls-14" d="M137.41,65.36A7.6,7.6,0,0,1,139,61.05,1.21,1.21,0,0,1,141,62.53c-2.57,3.35-.06,6.92.42,7.55A6.54,6.54,0,0,1,144,74.54c.52,4.27-3,8.64-3.1,8.83A1.21,1.21,0,0,1,139,81.85c.06-.09,3-3.8,2.58-7a4.2,4.2,0,0,0-1.76-2.92l-.11-.08-.08-.1A9.7,9.7,0,0,1,137.41,65.36Z"/><path class="cls-14" d="M144.93,84.39a1.21,1.21,0,0,1,1.13-1.14c.26,0,6-.5,7.12-6.17l0-.13,0-.13c1-2.25,4.2-6.25,9.32-5.24a1.21,1.21,0,1,1-.47,2.38c-4.15-.82-6.22,3-6.57,3.73-1.22,5.92-6.62,7.81-9.33,8a1.22,1.22,0,0,1-1.28-1.14A.33.33,0,0,1,144.93,84.39Z"/><path class="cls-14" d="M143.43,82.79a1.21,1.21,0,0,1,1.27-1.15,8.1,8.1,0,0,0,8.47-7.47c-.59-1.92-3.31-11.72.49-15.25a1.21,1.21,0,0,1,1.65,1.78c-2.16,2-1,9,.24,13l.07.21,0,.22a10.53,10.53,0,0,1-11,10A1.21,1.21,0,0,1,143.43,82.79Z"/><path class="cls-14" d="M143.94,85.35c0-.06,0-.12,0-.17a1.22,1.22,0,0,1,1.43-1l.91.18c2.76.56,5.38,1.08,8,.53,2.4-.49,3-1.6,4-3.43a21.4,21.4,0,0,1,1.47-2.45,10.65,10.65,0,0,1,8.44-4.26,1.21,1.21,0,0,1,.1,2.42,8.3,8.3,0,0,0-6.57,3.26,16.7,16.7,0,0,0-1.29,2.17c-1,1.94-2.1,4-5.62,4.67-3.16.65-6.14,0-9-.53l-.9-.18A1.22,1.22,0,0,1,143.94,85.35Z"/><path class="cls-14" d="M144.32,86.21a1.21,1.21,0,0,1,2.32-.41,8.11,8.11,0,0,0,5.68,4.67c2.91.63,5.24-1.07,7.7-2.87l.19-.13.63-.46c2.61-1.94,6.2-4.58,10.09-3.29a1.21,1.21,0,0,1-.76,2.3c-2.7-.89-5.46,1.14-7.89,2.94l-.64.47-.18.14c-2.67,1.94-5.68,4.14-9.66,3.27a10.51,10.51,0,0,1-7.38-6.08A1.17,1.17,0,0,1,144.32,86.21Z"/><path class="cls-14" d="M139.32,83.52a1.31,1.31,0,0,1,.25-.68,25.37,25.37,0,0,1,3.25-3.2c1.92-1.7,4.09-3.63,4.53-5.28C148,72,147.24,71,146,69.28a18.7,18.7,0,0,1-1.55-2.41,10.66,10.66,0,0,1-.08-9.45,1.22,1.22,0,0,1,2.22,1,8.27,8.27,0,0,0,0,7.33A19.58,19.58,0,0,0,148,67.87c1.28,1.78,2.6,3.62,1.69,7.1-.63,2.37-3,4.46-5.27,6.49a24.43,24.43,0,0,0-2.93,2.86,1.22,1.22,0,0,1-2.18-.8Z"/><path class="cls-8" d="M147.16,97.7a10.76,10.76,0,0,0-6.26-2h-2.23a10.88,10.88,0,0,0-10.86,10.87V150h23.95V106.57A10.84,10.84,0,0,0,147.16,97.7Z"/><rect class="cls-15" x="131.24" y="77.71" width="17.09" height="25.58" rx="8.54" transform="translate(279.57 181) rotate(-180)"/><path class="cls-8" d="M138.21,87.67H134.1a.84.84,0,0,1-.84-.84h0a.84.84,0,0,1,.84-.84h4.11a.85.85,0,0,1,.84.84h0A.85.85,0,0,1,138.21,87.67Z"/><path class="cls-8" d="M146.46,87.67h-4.11a.85.85,0,0,1-.84-.84h0a.85.85,0,0,1,.84-.84h4.11a.85.85,0,0,1,.84.84h0A.85.85,0,0,1,146.46,87.67Z"/><path class="cls-8" d="M140.43,99.2h0a2.3,2.3,0,0,1-2.29-2.29V92.79a2.3,2.3,0,0,1,2.29-2.29h0a2.3,2.3,0,0,1,2.3,2.29v4.12A2.3,2.3,0,0,1,140.43,99.2Z"/><path class="cls-8" d="M125.85,98.14a10.83,10.83,0,0,0-6.27-2h-2.23A10.87,10.87,0,0,0,106.49,107v43.43h24V107A10.85,10.85,0,0,0,125.85,98.14Z"/><path class="cls-15" d="M118.47,103.74h0A8.57,8.57,0,0,0,127,95.19V86.7a8.57,8.57,0,0,0-8.54-8.55h0a8.58,8.58,0,0,0-8.55,8.55v8.49A8.58,8.58,0,0,0,118.47,103.74Z"/><path class="cls-8" d="M116.89,88.12h-4.11a.85.85,0,0,1-.84-.84h0a.85.85,0,0,1,.84-.84h4.11a.85.85,0,0,1,.84.84h0A.85.85,0,0,1,116.89,88.12Z"/><path class="cls-8" d="M125.15,88.12H121a.84.84,0,0,1-.84-.84h0a.84.84,0,0,1,.84-.84h4.11a.85.85,0,0,1,.84.84h0A.85.85,0,0,1,125.15,88.12Z"/><path class="cls-8" d="M119.12,99.65h0a2.3,2.3,0,0,1-2.3-2.29V93.24a2.3,2.3,0,0,1,2.3-2.29h0a2.3,2.3,0,0,1,2.29,2.29v4.12A2.3,2.3,0,0,1,119.12,99.65Z"/><path class="cls-8" d="M103.09,98.14a10.85,10.85,0,0,0-6.27-2H94.59A10.87,10.87,0,0,0,83.73,107v43.43h24V107A10.85,10.85,0,0,0,103.09,98.14Z"/><path class="cls-15" d="M95.71,103.74h0a8.57,8.57,0,0,0,8.54-8.55V86.7a8.57,8.57,0,0,0-8.54-8.55h0a8.58,8.58,0,0,0-8.55,8.55v8.49A8.58,8.58,0,0,0,95.71,103.74Z"/><path class="cls-8" d="M94.13,88.12H90a.85.85,0,0,1-.84-.84h0a.85.85,0,0,1,.84-.84h4.11a.85.85,0,0,1,.84.84h0A.85.85,0,0,1,94.13,88.12Z"/><path class="cls-8" d="M102.38,88.12H98.27a.85.85,0,0,1-.84-.84h0a.85.85,0,0,1,.84-.84h4.11a.84.84,0,0,1,.84.84h0A.84.84,0,0,1,102.38,88.12Z"/><path class="cls-8" d="M96.36,99.65h0a2.3,2.3,0,0,1-2.3-2.29V93.24A2.3,2.3,0,0,1,96.36,91h0a2.3,2.3,0,0,1,2.29,2.29v4.12A2.3,2.3,0,0,1,96.36,99.65Z"/><path class="cls-16" d="M105.83,173.23l82.11-.95a9.27,9.27,0,0,0,9.14-9.35h0a9.26,9.26,0,0,0-9.35-9.14l-82.11,1a9.26,9.26,0,0,0-9.14,9.35h0A9.27,9.27,0,0,0,105.83,173.23Z"/><path class="cls-16" d="M131.14,150c.15,12.69,11.75,22.84,25.93,22.68s25.54-10.58,25.39-23.27-11.75-22.84-25.92-22.68S131,137.27,131.14,150Z"/><ellipse class="cls-16" cx="128.66" cy="156.59" rx="18.29" ry="16.37" transform="translate(-1.8 1.49) rotate(-0.66)"/><path class="cls-16" d="M112.44,167.54l-63.07-.73a8.16,8.16,0,0,1-8-8.24h0a8.16,8.16,0,0,1,8.24-8l63.06.72a8.18,8.18,0,0,1,8.06,8.25h0A8.17,8.17,0,0,1,112.44,167.54Z"/><circle class="cls-16" cx="73.11" cy="146.84" r="20.24" transform="translate(-62.51 54.56) rotate(-29.3)"/><path class="cls-16" d="M109.72,153.08a14.43,14.43,0,1,1-14.26-14.59A14.42,14.42,0,0,1,109.72,153.08Z"/><rect class="cls-17" x="91.73" y="110.42" width="3.29" height="12.56" transform="translate(186.75 233.39) rotate(180)"/><rect class="cls-18" x="89.84" y="118.3" width="7.18" height="1.36" transform="translate(186.86 237.96) rotate(180)"/><polygon class="cls-15" points="93.38 177.75 95.02 171.48 95.02 119.62 91.73 119.62 91.73 171.48 93.38 177.75"/><rect class="cls-17" x="91.47" y="111.77" width="3.16" height="12.09" transform="translate(211.39 210.2) rotate(166.28)"/><rect class="cls-18" x="90.16" y="119.28" width="6.92" height="1.31" transform="translate(213.01 214.26) rotate(166.28)"/><polygon class="cls-15" points="106.99 174.91 107.09 168.67 95.26 120.17 92.18 120.92 104.02 169.42 106.99 174.91"/><rect class="cls-17" x="92.76" y="110.57" width="3.29" height="12.56" transform="translate(226.05 189.19) rotate(157.72)"/><rect class="cls-18" x="91.72" y="118.26" width="7.18" height="1.36" transform="translate(228.6 192.88) rotate(157.73)"/><polygon class="cls-15" points="117.55 173.35 116.69 166.93 97.03 118.93 93.99 120.18 113.65 168.17 117.55 173.35"/><rect class="cls-17" x="118.28" y="109.62" width="3.29" height="12.56" transform="translate(229.29 241.8) rotate(-175.01)"/><rect class="cls-18" x="116.18" y="117.5" width="7.18" height="1.36" transform="matrix(-1, -0.09, 0.09, -1, 228.8, 246.34)"/><polygon class="cls-15" points="114.6 176.73 116.79 170.62 121.3 118.96 118.03 118.67 113.51 170.34 114.6 176.73"/><rect class="cls-17" x="117.92" y="110.95" width="3.16" height="12.09" transform="translate(255.36 214.5) rotate(171.28)"/><rect class="cls-18" x="116.42" y="118.5" width="6.92" height="1.31" transform="translate(256.44 218.75) rotate(171.28)"/><polygon class="cls-15" points="128.41 175.08 129.06 168.87 121.49 119.53 118.36 120.01 125.93 169.35 128.41 175.08"/><rect class="cls-17" x="119.28" y="109.87" width="3.29" height="12.56" transform="translate(270.9 191.13) rotate(162.72)"/><rect class="cls-18" x="118.06" y="117.63" width="7.18" height="1.36" transform="translate(272.96 195.14) rotate(162.72)"/><polygon class="cls-15" points="139.06 174.45 138.77 167.97 123.36 118.45 120.23 119.42 135.63 168.95 139.06 174.45"/><rect class="cls-17" x="143.06" y="109.02" width="3.29" height="12.56" transform="translate(260.57 259.54) rotate(-167.32)"/><rect class="cls-18" x="140.66" y="116.85" width="7.18" height="1.36" transform="translate(259.19 263.87) rotate(-167.32)"/><polygon class="cls-15" points="131.3 174.86 134.28 169.1 145.67 118.51 142.46 117.79 131.07 168.38 131.3 174.86"/><rect class="cls-17" x="142.56" y="110.27" width="3.16" height="12.09" transform="translate(290.37 230.01) rotate(178.97)"/><rect class="cls-18" x="140.78" y="117.86" width="6.92" height="1.31" transform="translate(290.58 234.4) rotate(178.97)"/><polygon class="cls-15" points="145.21 175.08 146.68 169.01 145.78 119.1 142.61 119.16 143.51 169.07 145.21 175.08"/><rect class="cls-17" x="144.03" y="109.39" width="3.29" height="12.56" transform="matrix(-0.99, 0.17, -0.17, -0.99, 308.59, 205.44)"/><rect class="cls-18" x="142.51" y="117.23" width="7.18" height="1.36" transform="translate(309.81 209.83) rotate(170.41)"/><polygon class="cls-15" points="155.85 175.88 156.42 169.42 147.78 118.28 144.54 118.83 153.18 169.97 155.85 175.88"/><rect class="cls-19" x="88.9" y="112.04" width="6.57" height="4.43" rx="2.21"/><rect class="cls-19" x="119.95" y="111.54" width="5" height="3.37" rx="1.68"/><rect class="cls-19" x="144.4" y="111.54" width="5.81" height="3.37" rx="1.68"/><polygon class="cls-20" points="29.13 168.76 47.91 158.25 79.81 164.84 101.38 149.15 138.15 161.46 161.46 152.73 205.67 170.36 205.67 208.53 29.13 208.53 29.13 168.76"/><polygon class="cls-21" points="27.7 183.46 72.51 159.74 107.4 174.64 141.49 154.64 178.62 170.36 205.67 158.25 205.67 208.53 29.13 208.53 27.7 183.46"/><polygon class="cls-1" points="192.44 57.95 41.9 57.95 41.9 194.3 41.9 210.09 41.9 284.83 192.36 284.83 192.36 210.09 192.44 210.09 192.44 57.95"/><path class="cls-17" d="M111.14,186.07S94,203.61,86.07,241.38c0,0,8.3-.09,8.3,6.07,0,0,10.5,12.22,15.45,3.29,0,0,6.53-4.29,7.85-1.07l4.07-24Z"/><path class="cls-22" d="M107.53,163h25.35a0,0,0,0,1,0,0v9.4a8,8,0,0,1-8,8h-9.33a8,8,0,0,1-8-8V163A0,0,0,0,1,107.53,163Z"/><path class="cls-23" d="M132.17,192.79a2.71,2.71,0,0,1-1.08-5.19c3.86-1.67,6-3.55,6.13-5.3.15-2.72-4.33-6.22-6.39-7.39a2.71,2.71,0,0,1,2.68-4.7c1,.55,9.48,5.6,9.11,12.39-.22,4-3.37,7.36-9.37,10A2.76,2.76,0,0,1,132.17,192.79Z"/><path class="cls-7" d="M133.35,262.16l-.49-.54a1.89,1.89,0,0,0-1-.59l-2.32-.5V232.89a3.2,3.2,0,0,0-6.4,0v27a1.89,1.89,0,0,0-.75,1.51v2.08a1.91,1.91,0,0,0,1.91,1.92h7.64A1.91,1.91,0,0,0,133.35,262.16Z"/><path class="cls-22" d="M123.32,246.8H129a.62.62,0,0,0,.61-.61h0a.62.62,0,0,0-.61-.61h-5.72a.62.62,0,0,0-.61.61h0A.62.62,0,0,0,123.32,246.8Z"/><path class="cls-22" d="M129.17,254.21h0a.7.7,0,0,0,.13-1l-5.13-6.77a.7.7,0,0,0-1-.14h0a.71.71,0,0,0-.13,1l5.13,6.77A.7.7,0,0,0,129.17,254.21Z"/><path class="cls-22" d="M123.14,254.17h0a.62.62,0,0,1-.13-.87l5.22-6.89a.62.62,0,0,1,.88-.12h0a.63.63,0,0,1,.12.87L124,254.05A.62.62,0,0,1,123.14,254.17Z"/><path class="cls-22" d="M129.17,261.14h0a.71.71,0,0,0,.13-1l-5.13-6.77a.7.7,0,0,0-1-.14h0a.71.71,0,0,0-.13,1l5.13,6.77A.7.7,0,0,0,129.17,261.14Z"/><path class="cls-22" d="M123.19,261.14h0a.71.71,0,0,1-.13-1l5.13-6.77a.7.7,0,0,1,1-.14h0a.71.71,0,0,1,.13,1L124.17,261A.7.7,0,0,1,123.19,261.14Z"/><path class="cls-22" d="M131.89,265h0a.57.57,0,0,0,.57-.57v-2.92a.56.56,0,0,0-.57-.57h0a.57.57,0,0,0-.57.57v2.92A.58.58,0,0,0,131.89,265Z"/><path class="cls-22" d="M129.65,265h0a.58.58,0,0,0,.57-.57V261a.58.58,0,0,0-.57-.57h0a.57.57,0,0,0-.57.57v3.45A.57.57,0,0,0,129.65,265Z"/><path class="cls-22" d="M123.57,261.58H129a.62.62,0,0,0,.62-.62h0a.63.63,0,0,0-.62-.63h-5.46a.63.63,0,0,0-.62.63h0A.62.62,0,0,0,123.57,261.58Z"/><path class="cls-22" d="M133.27,265.56H122.39a.58.58,0,0,1-.58-.58h0a.58.58,0,0,1,.58-.58h10.88a.58.58,0,0,1,.58.58h0A.58.58,0,0,1,133.27,265.56Z"/><path class="cls-7" d="M116.45,259.85v-27a3.2,3.2,0,0,0-6.4,0v27.64l-2.32.5a1.89,1.89,0,0,0-1,.59l-.49.54a1.91,1.91,0,0,0,1.42,3.2h7.64a1.91,1.91,0,0,0,1.91-1.92v-2.08A1.89,1.89,0,0,0,116.45,259.85Z"/><path class="cls-22" d="M116.2,246.8h-5.72a.61.61,0,0,1-.61-.61h0a.61.61,0,0,1,.61-.61h5.72a.62.62,0,0,1,.61.61h0A.62.62,0,0,1,116.2,246.8Z"/><path class="cls-22" d="M110.35,254.21h0a.7.7,0,0,1-.13-1l5.13-6.77a.69.69,0,0,1,1-.14h0a.7.7,0,0,1,.14,1l-5.13,6.77A.7.7,0,0,1,110.35,254.21Z"/><path class="cls-22" d="M116.32,254.21h0a.69.69,0,0,0,.14-1l-5.13-6.77a.7.7,0,0,0-1-.14h0a.71.71,0,0,0-.13,1l5.13,6.77A.69.69,0,0,0,116.32,254.21Z"/><path class="cls-22" d="M110.35,261.14h0a.71.71,0,0,1-.13-1l5.13-6.77a.69.69,0,0,1,1-.14h0a.7.7,0,0,1,.14,1L111.33,261A.7.7,0,0,1,110.35,261.14Z"/><path class="cls-22" d="M116.32,261.14h0a.7.7,0,0,0,.14-1l-5.13-6.77a.7.7,0,0,0-1-.14h0a.71.71,0,0,0-.13,1l5.13,6.77A.69.69,0,0,0,116.32,261.14Z"/><path class="cls-22" d="M107.62,264.73h0a.58.58,0,0,1-.57-.57v-2.92a.57.57,0,0,1,.57-.57h0a.56.56,0,0,1,.57.57v2.92A.57.57,0,0,1,107.62,264.73Z"/><path class="cls-22" d="M109.87,264.73h0a.58.58,0,0,1-.57-.57V260.9a.58.58,0,0,1,.57-.57h0a.58.58,0,0,1,.57.57v3.26A.58.58,0,0,1,109.87,264.73Z"/><path class="cls-22" d="M115.94,261.58h-5.45a.62.62,0,0,1-.62-.62h0a.63.63,0,0,1,.62-.63h5.45a.63.63,0,0,1,.63.63h0A.63.63,0,0,1,115.94,261.58Z"/><path class="cls-22" d="M116.91,265.56H106a.58.58,0,0,1-.58-.58h0a.58.58,0,0,1,.58-.58h10.89a.58.58,0,0,1,.58.58h0A.58.58,0,0,1,116.91,265.56Z"/><path class="cls-22" d="M116.81,265.55h0a.67.67,0,0,0,.66-.66v-4.38a.67.67,0,0,0-.66-.66h0a.66.66,0,0,0-.66.66v4.38A.66.66,0,0,0,116.81,265.55Z"/><path class="cls-22" d="M122.38,265.56h0a.66.66,0,0,1-.66-.66v-4.46a.66.66,0,0,1,.66-.66h0a.67.67,0,0,1,.66.66v4.46A.67.67,0,0,1,122.38,265.56Z"/><path class="cls-7" d="M120.13,187.27h0a2.49,2.49,0,0,1-2.48-2.48v-3.94a2.48,2.48,0,0,1,2.48-2.48h0a2.49,2.49,0,0,1,2.48,2.48v3.94A2.49,2.49,0,0,1,120.13,187.27Z"/><path class="cls-7" d="M119.61,182.91h0a10.49,10.49,0,0,0,11-9.92l.51-10.37a10.48,10.48,0,0,0-9.91-11h0a10.49,10.49,0,0,0-11,9.92L109.7,172A10.48,10.48,0,0,0,119.61,182.91Z"/><path class="cls-7" d="M120,190.08a9,9,0,0,0,7.94-4.75,14.57,14.57,0,0,0-6.58-1.55h-2.73a14.51,14.51,0,0,0-6.59,1.55A9,9,0,0,0,120,190.08Z"/><path class="cls-22" d="M105.36,164.35h0a4.58,4.58,0,0,1,0-6.43l7.72-7.72a4.58,4.58,0,0,1,6.43,0h0a4.57,4.57,0,0,1,0,6.44l-7.71,7.71A4.57,4.57,0,0,1,105.36,164.35Z"/><path class="cls-22" d="M127.75,160.71h-14.4a3.44,3.44,0,0,1-3.44-3.43h0a3.44,3.44,0,0,1,3.44-3.43h14.4a3.44,3.44,0,0,1,3.43,3.43h0A3.44,3.44,0,0,1,127.75,160.71Z"/><path class="cls-22" d="M126.42,154.64H112.6a3.82,3.82,0,0,1-3.81-3.82h0A3.82,3.82,0,0,1,112.6,147h13.82a3.82,3.82,0,0,1,3.81,3.81h0A3.82,3.82,0,0,1,126.42,154.64Z"/><path class="cls-22" d="M134.58,164.35h0a4.57,4.57,0,0,1-6.44,0l-7.71-7.71a4.57,4.57,0,0,1,0-6.44h0a4.58,4.58,0,0,1,6.43,0l7.72,7.72A4.56,4.56,0,0,1,134.58,164.35Z"/><path class="cls-22" d="M111.51,167.55h0a1.22,1.22,0,0,1,.56-1.62l4.12-2a1.22,1.22,0,0,1,1.62.57h0a1.21,1.21,0,0,1-.57,1.61l-4.12,2A1.2,1.2,0,0,1,111.51,167.55Z"/><path class="cls-22" d="M128.67,167.87h0a1.2,1.2,0,0,0-.56-1.61l-4.12-2a1.22,1.22,0,0,0-1.62.56h0a1.21,1.21,0,0,0,.57,1.61l4.12,2A1.2,1.2,0,0,0,128.67,167.87Z"/><path class="cls-6" d="M110.49,175.23h0a.82.82,0,0,0,.82-.81v-8.24a.82.82,0,0,0-.82-.81h0a.82.82,0,0,0-.81.81v8.24A.81.81,0,0,0,110.49,175.23Z"/><path class="cls-6" d="M129.66,175.23h0a.81.81,0,0,0,.81-.81v-8.24a.82.82,0,0,0-.81-.81h0a.82.82,0,0,0-.82.81v8.24A.82.82,0,0,0,129.66,175.23Z"/><path class="cls-22" d="M122.38,176.79a.63.63,0,0,1-.5-.25,1.88,1.88,0,0,0-1.53-.68,3.68,3.68,0,0,0-2.17.75.62.62,0,0,1-.87-.13.62.62,0,0,1,.13-.87,4.87,4.87,0,0,1,2.92-1,3.07,3.07,0,0,1,2.52,1.18.63.63,0,0,1-.13.88A.63.63,0,0,1,122.38,176.79Z"/><path class="cls-17" d="M123.86,171.2h0a.93.93,0,0,0,.94-.93v-1.6a.94.94,0,0,0-.94-.93h0a.93.93,0,0,0-.93.93v1.6A.93.93,0,0,0,123.86,171.2Z"/><path class="cls-17" d="M116.11,171.2h0a.93.93,0,0,0,.93-.93v-1.6a.93.93,0,0,0-.93-.93h0a.93.93,0,0,0-.93.93v1.6A.93.93,0,0,0,116.11,171.2Z"/><path class="cls-6" d="M120.09,170.74a1.82,1.82,0,0,0-1.81,1.82h3.63A1.82,1.82,0,0,0,120.09,170.74Z"/><path class="cls-6" d="M120.25,176.45c-.53,0-1,.22-1,.48h1.92C121.21,176.67,120.78,176.45,120.25,176.45Z"/><path class="cls-23" d="M131.41,174.94h0a2.11,2.11,0,0,0,2.11-2.1v-5.71a2.11,2.11,0,0,0-2.11-2.1h0a2.11,2.11,0,0,0-2.1,2.1v5.71A2.11,2.11,0,0,0,131.41,174.94Z"/><path class="cls-23" d="M107.78,192.79a2.59,2.59,0,0,1-1.08-.23c-6-2.6-9.15-6-9.37-10-.37-6.79,8.14-11.84,9.11-12.39a2.71,2.71,0,1,1,2.68,4.7h0c-2.15,1.23-6.54,4.67-6.39,7.4.1,1.74,2.27,3.62,6.13,5.29a2.71,2.71,0,0,1-1.08,5.19Z"/><rect class="cls-23" x="106.43" y="165.03" width="4.21" height="9.91" rx="2.1"/><path class="cls-15" d="M129,185.93c-.35-.22-.71-.41-1.08-.6a9,9,0,0,1-15.9,0,13.64,13.64,0,0,0-2.25,1.43l0,0a4.72,4.72,0,1,1-4.38,8.36c0,.11,0,.23,0,.34l.11,44h29.18v-44A11.36,11.36,0,0,0,129,185.93Z"/><path class="cls-7" d="M112.25,191a4.73,4.73,0,0,0-2.53-4.18,11.21,11.21,0,0,0-4.38,8.36,4.72,4.72,0,0,0,6.91-4.18Z"/><path class="cls-8" d="M134.88,220.62H106a2.17,2.17,0,0,1-2.17-2.17h0a2.17,2.17,0,0,1,2.17-2.16h28.9a2.17,2.17,0,0,1,2.17,2.16h0A2.17,2.17,0,0,1,134.88,220.62Z"/></g></g></g></svg>