<?xml version="1.0" encoding="utf-8"?>
<!-- Generator: Adobe Illustrator 25.2.3, SVG Export Plug-In . SVG Version: 6.00 Build 0)  -->
<svg version="1.1" id="Layer_1" xmlns="http://www.w3.org/2000/svg" xmlns:xlink="http://www.w3.org/1999/xlink" x="0px" y="0px"
	 viewBox="0 0 234.3 380" style="enable-background:new 0 0 234.3 380;" xml:space="preserve">
<style type="text/css">
	.st0{fill:#F4B155;}
	.st1{fill:#FFF0CC;}
	.st2{fill:#231F20;}
	.st3{clip-path:url(#SVGID_2_);}
	.st4{fill:#DD4F65;}
	.st5{clip-path:url(#SVGID_4_);}
	.st6{fill:#2B3251;}
	.st7{fill:#493754;}
	.st8{fill:#663C58;}
	.st9{fill:#84405B;}
	.st10{fill:#A2455E;}
	.st11{fill:#BF4A62;}
	.st12{fill:#E56F60;}
	.st13{fill:#EE905B;}
	.st14{fill:#F6B055;}
	.st15{fill:#FFD150;}
	.st16{fill:#3F272D;}
	.st17{fill:#54323A;}
	.st18{fill:#6D4650;}
	.st19{fill:#604049;}
	.st20{fill:#4A355B;}
	.st21{fill:#5BC4B8;}
	.st22{fill:#FFFFFF;}
	.st23{fill:#59204D;}
	.st24{fill:#7C326E;}
	.st25{fill:#421C3B;}
	.st26{fill:#414042;}
	.st27{fill:#EE915B;}
	.st28{fill:#F1F2F2;}
	.st29{fill:#F4B055;}
	.st30{fill:#E6705F;}
	.st31{fill:#DC4F64;}
	.st32{fill:#BCBEC0;}
	.st33{fill:#F9FAFB;}
	.st34{fill:#E4705E;}
	.st35{fill:#FFD351;}
</style>
<g id="Layer_2_1_">
	<g id="Layer_1-2">
		<path class="st0" d="M234.3,14.4v351.1c-0.1,8.1-6.8,14.6-14.9,14.5c0,0,0,0,0,0H14.9c-8.1,0.1-14.8-6.3-14.9-14.5c0,0,0,0,0,0
			V14.4C0,6.5,6.7,0,14.9,0h204.4C227.6,0,234.3,6.5,234.3,14.4z M221.7,357.2V22.8c0-5.9-4.8-10.8-10.8-10.8H23.3
			c-5.9,0-10.8,4.8-10.8,10.8v334.4c0,6,4.8,10.8,10.8,10.8c0,0,0,0,0,0h187.6C216.9,368,221.7,363.2,221.7,357.2
			C221.7,357.2,221.7,357.2,221.7,357.2z"/>
		<path class="st1" d="M23.3,12h187.6c6,0,10.8,4.8,10.8,10.8v334.4c0,6-4.8,10.8-10.8,10.8H23.3c-6,0-10.8-4.8-10.8-10.8V22.8
			C12.6,16.8,17.4,12,23.3,12z"/>
		<path class="st2" d="M43.5,339.7c-0.1-0.1-0.2-0.3-0.2-0.5v-10.7h-3.4c-0.3,0.1-0.6-0.1-0.7-0.4c0-0.1,0-0.2,0-0.3v-0.5
			c0-0.2,0-0.4,0.1-0.5c0.1-0.1,0.3-0.2,0.5-0.2h9.4c0.2,0,0.4,0,0.5,0.2c0.1,0.2,0.2,0.3,0.2,0.5v0.5c0,0.2,0,0.4-0.2,0.5
			c-0.2,0.1-0.4,0.2-0.5,0.1h-3.4v10.7c0,0.2,0,0.4-0.2,0.5c-0.2,0.1-0.4,0.2-0.6,0.2h-1C43.9,339.9,43.7,339.9,43.5,339.7z"/>
		<path class="st2" d="M51.7,339.7c-0.1-0.1-0.2-0.3-0.2-0.5v-11.9c0-0.2,0-0.4,0.2-0.5c0.1-0.1,0.3-0.2,0.5-0.2h8.1
			c0.3-0.1,0.6,0.1,0.7,0.4c0,0.1,0,0.2,0,0.3v0.5c0,0.2,0,0.4-0.1,0.5c-0.2,0.1-0.3,0.2-0.5,0.2H54v3.8h4.6c0.2,0,0.4,0,0.5,0.2
			c0.1,0.1,0.2,0.3,0.2,0.5v0.5c0,0.2,0,0.4-0.2,0.5c-0.1,0.1-0.3,0.2-0.5,0.2H54v3.8h6.3c0.2,0,0.4,0,0.5,0.2
			c0.1,0.2,0.2,0.3,0.2,0.5v0.5c0,0.2,0,0.4-0.2,0.5c-0.2,0.1-0.4,0.2-0.5,0.2h-8.1C52,339.9,51.8,339.9,51.7,339.7z"/>
		<path class="st2" d="M63,339.7c-0.1-0.1-0.2-0.3-0.2-0.5v-11.9c0-0.2,0-0.4,0.2-0.5c0.2-0.1,0.4-0.2,0.6-0.2h0.9
			c0.1,0,0.3,0,0.4,0.1c0.1,0.1,0.2,0.2,0.3,0.3l6.5,9v-8.6c0-0.2,0-0.4,0.2-0.5c0.2-0.1,0.4-0.2,0.6-0.2h1c0.3-0.1,0.7,0.2,0.7,0.5
			c0,0.1,0,0.2,0,0.2v11.9c0,0.2,0,0.4-0.2,0.5c-0.2,0.1-0.4,0.2-0.6,0.2h-0.9c-0.1,0-0.3,0-0.4-0.1c-0.1-0.1-0.2-0.2-0.3-0.3
			l-6.5-8.9v8.6c0,0.2,0,0.4-0.2,0.5c-0.2,0.1-0.4,0.2-0.6,0.2h-1C63.4,340,63.1,339.9,63,339.7z"/>
		<path class="st2" d="M85.4,338.4c-2.3-3-2.3-7.2,0-10.3c2.9-2.4,7.1-2.4,9.9,0c2.3,3,2.3,7.2,0,10.3
			C92.5,340.8,88.3,340.8,85.4,338.4z M93.5,337.1c1.4-2.3,1.4-5.3,0-7.6c-1.7-1.7-4.5-1.7-6.3,0c-1.5,2.3-1.5,5.3,0,7.6
			C89,338.8,91.8,338.8,93.5,337.1C93.5,337.1,93.5,337.1,93.5,337.1z"/>
		<path class="st2" d="M99.2,339.7c-0.1-0.1-0.2-0.3-0.2-0.5v-11.9c0-0.2,0-0.4,0.2-0.5c0.2-0.1,0.4-0.2,0.6-0.2h8.1
			c0.2,0,0.4,0,0.5,0.2c0.1,0.2,0.2,0.3,0.2,0.5v0.5c0,0.2,0,0.4-0.2,0.5c-0.1,0.1-0.3,0.2-0.5,0.2h-6.4v3.8h4.6
			c0.3-0.1,0.6,0.1,0.7,0.4c0,0.1,0,0.2,0,0.2v0.5c0,0.2,0,0.4-0.2,0.5c-0.2,0.1-0.4,0.2-0.6,0.2h-4.6v5c0,0.2,0,0.4-0.2,0.5
			c-0.2,0.1-0.4,0.2-0.6,0.2h-1C99.6,340,99.3,339.9,99.2,339.7z"/>
		<path class="st2" d="M119.8,339.9c-0.8-0.2-1.5-0.4-2.2-0.9c-0.2-0.1-0.2-0.2-0.2-0.3c0-0.1,0-0.2,0.1-0.2l0.6-1
			c0.1-0.1,0.2-0.2,0.2-0.2c0.1,0,0.2,0,0.2,0.1c0.5,0.3,1.1,0.5,1.7,0.7c0.6,0.2,1.3,0.3,1.9,0.3c0.7,0,1.4-0.1,2-0.4
			c0.7-0.6,0.9-1.6,0.4-2.4c-0.2-0.3-0.4-0.5-0.7-0.6c-0.5-0.3-1-0.5-1.6-0.7l-0.4-0.2c-0.7-0.3-1.4-0.6-2.1-1
			c-0.5-0.3-1-0.7-1.4-1.2c-0.4-0.5-0.6-1.2-0.6-1.9c-0.1-1.1,0.5-2.1,1.4-2.8c1.1-0.7,2.3-1.1,3.6-1c0.8,0,1.6,0.1,2.3,0.2
			c0.6,0.2,1.2,0.4,1.7,0.8c0.1,0.1,0.2,0.2,0.2,0.3c0,0.1,0,0.2-0.1,0.2l-0.6,1c-0.1,0.1-0.2,0.2-0.2,0.2c-0.1,0-0.2-0.1-0.2-0.1
			c-0.9-0.6-2-0.8-3.1-0.8c-0.7,0-1.3,0.1-1.9,0.5c-0.6,0.6-0.8,1.6-0.4,2.4c0.2,0.3,0.5,0.5,0.8,0.6c0.3,0.2,0.9,0.4,1.7,0.7
			l0.5,0.2c0.8,0.3,1.5,0.6,2.2,1c0.5,0.3,0.9,0.7,1.2,1.2c0.3,0.6,0.5,1.2,0.4,1.8c0,1-0.4,2-1.3,2.6c-1.1,0.7-2.3,1.1-3.6,1
			C121.6,340.2,120.6,340.1,119.8,339.9z"/>
		<path class="st2" d="M132.2,339.8c-0.1-0.1-0.2-0.2-0.2-0.4l-3.1-12.4c0-0.1,0-0.1,0-0.2c0-0.2,0.1-0.3,0.4-0.3h1.6
			c0.1,0,0.3,0,0.4,0.1c0.1,0.1,0.1,0.2,0.2,0.3l2,8.6l2.4-7.6c0-0.1,0.1-0.2,0.2-0.3c0.1-0.1,0.2-0.1,0.4-0.1h0.9
			c0.1,0,0.3,0,0.4,0.1c0.1,0.1,0.2,0.2,0.2,0.3l2.4,7.6l1.9-8.6c0-0.1,0.1-0.2,0.2-0.3c0.1-0.1,0.3-0.1,0.4-0.1h1.6
			c0.2,0,0.4,0.1,0.4,0.3c0,0.1,0,0.1,0,0.2l-3.1,12.4c0,0.1-0.1,0.3-0.2,0.4c-0.1,0.1-0.3,0.1-0.4,0.1h-1.1c-0.1,0-0.3,0-0.4-0.1
			c-0.1-0.1-0.2-0.2-0.2-0.4l-2.4-7.8l-2.4,7.8c0,0.1-0.1,0.3-0.2,0.4c-0.1,0.1-0.3,0.1-0.4,0.1h-1.1
			C132.5,339.9,132.3,339.9,132.2,339.8z"/>
		<path class="st2" d="M146.6,338.4c-2.3-3-2.3-7.2,0-10.3c2.9-2.4,7.1-2.4,9.9,0c2.3,3,2.3,7.2,0,10.3
			C153.6,340.8,149.4,340.8,146.6,338.4z M154.7,337.1c1.4-2.3,1.4-5.3,0-7.6c-1.7-1.7-4.5-1.7-6.3,0c-1.5,2.3-1.5,5.3,0,7.6
			C150.1,338.8,152.9,338.8,154.7,337.1C154.7,337.1,154.7,337.1,154.7,337.1z"/>
		<path class="st2" d="M160.3,339.7c-0.1-0.1-0.2-0.3-0.2-0.5v-11.9c0-0.2,0-0.4,0.2-0.5c0.2-0.1,0.4-0.2,0.6-0.2h5.1
			c1.2-0.1,2.5,0.3,3.5,1.1c0.8,0.8,1.3,2,1.2,3.1c0,0.8-0.2,1.6-0.6,2.3c-0.5,0.7-1.1,1.2-1.9,1.5l2.2,4.8c0,0.1,0.1,0.1,0.1,0.2
			c0,0.2-0.1,0.3-0.4,0.3h-1.6c-0.1,0-0.3,0-0.4-0.1c-0.1-0.1-0.2-0.2-0.2-0.3l-2-4.6h-3.1v4.3c0,0.2,0,0.4-0.2,0.5
			c-0.2,0.1-0.4,0.2-0.6,0.2h-1C160.7,340,160.5,339.9,160.3,339.7z M165.5,333c0.7,0.1,1.4-0.1,2-0.5c0.5-0.4,0.7-1.1,0.6-1.7
			c0.1-0.6-0.2-1.3-0.6-1.7c-0.5-0.4-1.1-0.6-1.8-0.5h-3.1v4.5L165.5,333z"/>
		<path class="st2" d="M172.7,339.7c-0.1-0.1-0.2-0.3-0.2-0.5v-11.9c0-0.2,0-0.4,0.2-0.5c0.1-0.1,0.3-0.2,0.6-0.2h3.9
			c1.8-0.1,3.6,0.4,5.1,1.6c1.2,1.1,1.8,2.8,1.8,5.1c0,4.4-2.3,6.7-6.8,6.7h-3.9C173.1,339.9,172.9,339.9,172.7,339.7z M177.3,338
			c1.1,0.1,2.3-0.3,3.1-1.1c1.4-2.3,1.4-5.1,0-7.4c-0.9-0.8-2-1.2-3.1-1.1h-2.3v9.5L177.3,338z"/>
		<path class="st2" d="M187.1,339.9c-0.8-0.2-1.5-0.4-2.1-0.9c-0.2-0.1-0.2-0.2-0.2-0.3c0-0.1,0-0.2,0.1-0.2l0.6-1
			c0.1-0.1,0.1-0.2,0.2-0.2c0.1,0,0.2,0,0.2,0.1c0.5,0.3,1.1,0.5,1.7,0.7c0.6,0.2,1.3,0.3,1.9,0.3c0.7,0,1.4-0.1,2-0.4
			c0.7-0.6,0.9-1.6,0.4-2.4c-0.2-0.3-0.4-0.5-0.7-0.6c-0.5-0.3-1-0.5-1.6-0.7l-0.4-0.2c-0.7-0.3-1.4-0.6-2.1-1
			c-0.5-0.3-1-0.7-1.4-1.2c-0.4-0.5-0.6-1.2-0.6-1.9c-0.1-1.1,0.5-2.1,1.4-2.8c1.1-0.7,2.3-1.1,3.6-1c0.8,0,1.6,0.1,2.3,0.2
			c0.6,0.2,1.2,0.4,1.7,0.8c0.1,0.1,0.2,0.2,0.2,0.3c0,0.1,0,0.2-0.1,0.2l-0.6,1c-0.1,0.1-0.1,0.2-0.2,0.2c-0.1,0-0.2-0.1-0.3-0.1
			c-0.9-0.6-2-0.8-3.1-0.8c-0.7,0-1.3,0.1-1.9,0.5c-0.4,0.3-0.7,0.9-0.6,1.4c0,0.4,0.1,0.7,0.3,1c0.2,0.3,0.5,0.5,0.8,0.6
			c0.3,0.2,0.9,0.4,1.6,0.7l0.5,0.2c0.8,0.3,1.5,0.6,2.2,1c0.5,0.3,0.9,0.7,1.2,1.2c0.3,0.6,0.5,1.2,0.4,1.8c0,1-0.4,2-1.3,2.6
			c-1.1,0.7-2.3,1.1-3.6,1C188.9,340.2,188,340.1,187.1,339.9z"/>
		<g>
			<defs>
				<path id="SVGID_1_" d="M52.9,43.7h128.6c13.6,0,24.7,11.1,24.7,24.7v191.7c0,13.6-11.1,24.7-24.7,24.7H52.9
					c-13.6,0-24.7-11.1-24.7-24.7V68.4C28.1,54.8,39.2,43.7,52.9,43.7z"/>
			</defs>
			<clipPath id="SVGID_2_">
				<use xlink:href="#SVGID_1_"  style="overflow:visible;"/>
			</clipPath>
			<g class="st3">
				<polygon class="st4" points="206.1,21.9 28.1,21.9 28.1,194.1 28.1,214 28.1,308.4 206,308.4 206,214 206.1,214 				"/>
				<g>
					<defs>
						<rect id="SVGID_3_" x="-3.3" y="43.7" width="250.5" height="90.4"/>
					</defs>
					<clipPath id="SVGID_4_">
						<use xlink:href="#SVGID_3_"  style="overflow:visible;"/>
					</clipPath>
					<g class="st5">
						<rect x="-3.3" y="43.7" class="st6" width="250.5" height="90.4"/>
						<path class="st6" d="M247.7,118.8v15.8H26.3v1c-0.5-2.3-0.9-4.6-1.3-6.9c-1.5-9.4-1.8-18.9-1.1-28.3
							c1.5-18.9,7.1-37.2,16.7-53.6c1.2-2,2.4-4,3.7-6v2.4h203.5V118.8z"/>
						<path class="st7" d="M247.7,118.2v16.4H37.9v2.4c-0.2-1.1-0.5-2.1-0.7-3.1c-0.5-2.1-0.8-4.2-1.2-6.4c-1.3-8.7-1.7-17.5-1-26.3
							c1.3-17.6,6.6-34.6,15.5-49.9c1.1-1.9,2.2-3.8,3.4-5.6c0.6-0.9,1.2-1.8,1.8-2.7v0.4h192L247.7,118.2z"/>
						<path class="st8" d="M247.7,117.6v17H48.8v0.3c-0.2-1-0.5-1.9-0.7-2.9c-0.4-2-0.8-3.9-1.1-5.9c-1.3-8.1-1.6-16.2-1-24.4
							c1.3-16.3,6.2-32,14.4-46.1c2-3.5,4.2-6.9,6.6-10.2c1.2-1.6,2.4-3.3,3.7-4.8v2.7h177L247.7,117.6z"/>
						<path class="st9" d="M247.7,116.9v17.7H60.3v0.9c-1-3.5-1.8-7.1-2.3-10.8c-1.2-7.4-1.5-14.9-0.9-22.4
							c1.2-15,5.7-29.5,13.2-42.4c3.7-6.5,8.1-12.5,13.1-18.1v1.5h164.3V116.9z"/>
						<path class="st10" d="M247.7,116.3v18.3H71.8v1.1c-0.2-0.8-0.5-1.6-0.7-2.4c-0.9-3.2-1.6-6.5-2.1-9.8
							c-1.1-6.8-1.3-13.6-0.8-20.4c1-13.6,5.1-26.9,12-38.7c3.4-5.9,7.4-11.4,12-16.5c2.3-2.6,4.7-5,7.2-7.4v2.9h148.3V116.3z"/>
						<path class="st11" d="M247.7,115.6v19H83.2v0.7c-0.5-1.4-0.9-2.9-1.3-4.3c-2.4-8.9-3.3-18.2-2.7-27.4
							c1.9-25.2,15.3-47.3,35.4-62.7v2.3h133L247.7,115.6z"/>
						<path class="st4" d="M247.7,115v19.6H95.3v1.8c-4.1-10.2-5.8-21.2-4.9-32.1C92.1,81.8,104,62,122,48.3c2.3-1.7,4.6-3.3,7-4.9
							c1.2-0.8,2.4-1.5,3.7-2.2v2.1h100.7v-2.7c2.6,1.4,5,2.9,7.4,4.5c2.4,1.6,4.6,3.3,6.8,5.1c1.1,0.9,2.1,1.8,3.2,2.8h-3.1V115z"
							/>
						<path class="st4" d="M247.7,114.4v20.2H107.2v1.9c-0.5-1.1-1-2.2-1.4-3.3c-3.6-9-5.1-18.7-4.3-28.3
							c1.5-19.8,12-37.2,27.9-49.4c8.2-6.2,17.4-10.9,27.3-13.9v1.6h48.8v-3c5.2,1.2,10.2,2.9,15.1,5.1c9.3,4,17.7,9.8,24.9,16.9
							c1.7,1.7,3.4,3.5,4.9,5.4h-2.7L247.7,114.4z"/>
						<path class="st12" d="M249.3,113.4c-0.6,7.8-2.9,15.3-6.9,22v-0.9H125.1v1.6c-0.5-0.8-1-1.7-1.4-2.5c-0.9-1.7-1.7-3.4-2.4-5.2
							c-2.9-7.2-4.1-14.9-3.5-22.6c2.4-31.7,33.8-55.7,70.1-53.6c18.1,1,34.1,8.4,45.2,19.5S250.5,97.6,249.3,113.4z"/>
						<path class="st13" d="M232.9,112.5c-0.5,5.8-2.2,11.5-5.1,16.5c-1.5,2.5-3.2,4.9-5.1,7.1v-1.5h-79.2v0.2
							c-0.9-1.1-1.8-2.3-2.6-3.5c-1.6-2.4-2.9-4.9-4-7.6c-2.2-5.4-3.1-11.2-2.6-17c1.8-23.8,25.3-41.8,52.6-40.2
							S234.7,88.7,232.9,112.5z"/>
						<path class="st14" d="M216.4,111.5c-0.7,7.9-4.8,15.1-11.2,19.7c-3.3,2.5-7,4.4-10.9,5.6v-2.2h-25.6v0.8
							c-3.7-1.6-7.1-3.9-10-6.8c-5.6-5.4-8.6-13.1-8.1-20.9c1.2-15.8,16.9-27.8,35-26.8S217.6,95.7,216.4,111.5z"/>
						<path class="st15" d="M200,110.6c-0.6,7.9-8.4,13.9-17.5,13.4s-15.9-7.4-15.4-15.3s8.4-13.9,17.5-13.4S200.6,102.7,200,110.6z
							"/>
					</g>
				</g>
				<polygon class="st16" points="27.8,118.5 46.4,106.4 77.8,114 99.1,95.9 135.3,110.1 158.3,100.1 201.8,120.4 201.8,164.3 
					27.8,164.3 				"/>
				<polygon class="st17" points="14.3,134.6 62.6,107.3 100.2,124.4 136.9,101.4 177,119.5 206.1,105.6 206.1,163.5 15.8,163.5 
									"/>
				<polygon class="st18" points="21.6,142.5 212.8,142.5 212.8,305.7 21.6,308.4 				"/>
				<path class="st19" d="M225.9,304.9L186,262c0,0-51.9-14.3-57.9-14.3s-15.9-49.2-15.9-49.2l-88.2-4.6l1,93.8l58.6,19.1
					L225.9,304.9z"/>
				<path class="st17" d="M114.5,204.2h-8.7c-0.8,0-1.4-0.6-1.4-1.4l0,0c0-0.8,0.6-1.4,1.4-1.4h8.7c0.8,0,1.4,0.6,1.4,1.4l0,0
					C115.9,203.5,115.3,204.2,114.5,204.2z"/>
				<rect x="108.3" y="124.4" class="st20" width="4.2" height="11"/>
				<rect x="105.8" y="134.5" class="st21" width="9.2" height="1.8"/>
				<rect x="108.3" y="136.2" class="st22" width="4.2" height="66.6"/>
				<path class="st23" d="M63.8,139.8c0,0,16.8-1.1,20.6-18.7c0,0,21.5,10.3,16.6,44.2c0,0-3.2-6.3-8.2-2.8c0,0-4.2-7.7-9.8-4.1
					c0,0-2.3-7.3-9.4-6.5l-8-5.2L63.8,139.8z"/>
				<path class="st24" d="M85.9,124.5L85.9,124.5c-0.1,0-0.2,0-0.2,0l0,0l0,0c-0.1,0-0.1,0.1-0.1,0.2c-1.5,8.9-8.8,14.2-15.3,16.4
					c-0.3,0.1-0.2,0.8,0.2,0.7c3.1-1.1,5.9-2.8,8.4-4.9c2-1.6,3.7-3.5,5-5.8c0.8-1.4,1.4-2.8,1.8-4.3l0.1-0.3
					c0.1,1.7,0.2,3.5,0.1,5.2c-0.3,7.5-1.4,15-3.3,22.2c-0.1,0.4,0.4,0.7,0.6,0.2c1.8-7.2,2.9-14.5,3.2-21.9c0.1-2.1,0-4.3-0.2-6.4
					c6.2,8.9,7.1,22.8,6.4,32.9c0,0.4,0.5,0.7,0.6,0.2c0.7-10-0.2-23.6-6-32.7c8.9,7.6,12.8,21.8,12.7,34.1c0,0.5,0.6,0.5,0.6,0.1
					C100.5,147.6,96.1,131.6,85.9,124.5z"/>
				<path class="st17" d="M92.2,201.5h-7.4c-0.7,0-1.2-0.5-1.2-1.2l0,0c0-0.7,0.5-1.2,1.2-1.2h7.4c0.7,0,1.2,0.6,1.2,1.2l0,0
					C93.4,201,92.8,201.5,92.2,201.5C92.2,201.5,92.2,201.5,92.2,201.5z"/>
				<rect x="86.9" y="133.5" class="st20" width="3.6" height="9.4"/>
				<rect x="84.8" y="142.1" class="st21" width="7.9" height="1.5"/>
				<rect x="86.9" y="143.6" class="st22" width="3.6" height="56.8"/>
				<path class="st17" d="M100,180.7h-6.3c-0.6,0-1-0.4-1-1l0,0c0-0.6,0.4-1,1-1h6.3c0.6,0,1,0.4,1,1l0,0
					C101,180.2,100.6,180.7,100,180.7z"/>
				<rect x="95.5" y="123" class="st20" width="3.1" height="8"/>
				<rect x="93.7" y="130.3" class="st21" width="6.7" height="1.3"/>
				<rect x="95.5" y="131.5" class="st22" width="3.1" height="48.2"/>
				<path class="st17" d="M98.5,215.8h9c0.8,0,1.4,0.6,1.4,1.4v0.1c0,0.8-0.6,1.4-1.4,1.4h-9c-0.8,0-1.4-0.6-1.4-1.4v-0.1
					C97.1,216.4,97.7,215.8,98.5,215.8z"/>
				<rect x="101.1" y="137" class="st20" width="4.3" height="11.2"/>
				<rect x="98.6" y="147.4" class="st21" width="9.4" height="1.8"/>
				<rect x="101.1" y="149.1" class="st22" width="4.3" height="68.2"/>
				<path class="st17" d="M90.5,232.6h9.5c0.8,0,1.4,0.6,1.4,1.4v0.2c0,0.8-0.6,1.4-1.4,1.4h-9.5c-0.8,0-1.4-0.6-1.4-1.4v-0.2
					C89.1,233.3,89.7,232.6,90.5,232.6z"/>
				<rect x="93.3" y="150.2" class="st20" width="4.5" height="11.8"/>
				<rect x="90.7" y="161" class="st21" width="9.9" height="1.9"/>
				<rect x="93.3" y="162.8" class="st22" width="4.5" height="71.4"/>
				<path class="st25" d="M56.4,175.1c0,0-11.4,2.1-15.2-14.9c0,0-13.8,14.3-8,47.3c0,0,1.7-6.9,5.3-4.4c0,0,2.3-8.5,6.3-5.9
					c0,0,1-7.8,5.9-8.2l5-6.7L56.4,175.1z"/>
				<path class="st25" d="M40.4,164L40.4,164c0-0.1,0.1-0.1,0.1-0.1l0,0c0.1,0,0.1,0.1,0.1,0.2c1.7,8.6,7,12.5,11.5,13.6
					c0.2,0.1,0.2,0.8-0.1,0.7c-2.2-0.6-4.3-1.8-6-3.4c-1.6-1.3-2.8-3-3.8-4.8c-0.6-1.3-1.1-2.6-1.5-4l-0.1-0.3
					c0,1.8,0.2,3.6,0.3,5.3c0.7,7.3,1.9,14.5,3.7,21.6c0.1,0.4-0.3,0.8-0.4,0.4c-1.7-7-3-14.1-3.7-21.3c-0.2-2.1-0.3-4.3-0.3-6.4
					c-3.5,10-3.2,24.2-2,34.1c0,0.4-0.3,0.8-0.4,0.4c-1.2-9.9-1.6-23.6,1.7-33.8c-5.4,9.4-7.1,24.3-6.1,36.6c0,0.5-0.3,0.6-0.4,0.2
					C32.2,189.9,34.1,173,40.4,164z"/>
				<path class="st25" d="M70.3,137.7c0,0-18.4,4.3-27.3-18c0,0-20.3,21.1-5.7,64.7c0,0,1.7-9.6,8-6.6c0,0,2.4-11.8,9.5-8.8
					c0,0,0.5-10.6,8.4-11.9l7.2-9.7L70.3,137.7z"/>
				<path class="st25" d="M42.3,124.7L42.3,124.7c0.1-0.1,0.2-0.2,0.2-0.1l0,0l0,0c0.1,0,0.2,0.1,0.2,0.2
					c3.1,9.2,11.3,15.8,20.9,16.8c0.4,0,0.4,1.1,0,1c-3.7-0.5-7.3-1.8-10.4-3.7c-2.7-1.5-5-3.6-6.9-6c-1.2-1.6-2.3-3.3-3.1-5.1
					c0-0.1-0.1-0.2-0.2-0.4c0.3,2.4,0.8,4.8,1.3,7c2.3,9.8,5.5,19.4,9.5,28.6c0.2,0.5-0.3,1-0.5,0.5c-3.9-9.1-7.1-18.6-9.4-28.2
					c-0.7-2.8-1.2-5.7-1.5-8.6c-4.2,14-1.4,33,2.2,46.2c0.2,0.6-0.4,1.1-0.5,0.5c-3.5-13.1-6.3-31.6-2.6-45.8
					c-7.4,13.3-7.7,33.6-4.2,50c0.1,0.6-0.5,0.9-0.6,0.3C32.9,160.7,33.3,137.7,42.3,124.7z"/>
				<path class="st25" d="M60.3,180.4c0,0-16.4,3-21.8-21.3c0,0-19.7,20.6-11.5,67.9c0,0,2.4-10,7.6-6.3c0,0,3.3-12.2,9.1-8.5
					c0,0,1.5-11.1,8.5-11.8l7.2-9.7L60.3,180.4z"/>
				<path class="st25" d="M37.3,164.4L37.3,164.4c0.1-0.1,0.2-0.1,0.2-0.1l0,0l0,0c0.1,0.1,0.1,0.1,0.1,0.2
					c2.4,12.3,10,18,16.4,19.4c0.3,0.1,0.2,1.1-0.1,1.1c-3.2-0.9-6.2-2.5-8.7-4.8c-2.2-1.9-4-4.3-5.3-6.9c-0.9-1.8-1.6-3.7-2.2-5.7
					l-0.1-0.4c0,2.6,0.2,5.1,0.4,7.5c1,10.5,2.8,20.8,5.3,31c0.1,0.6-0.4,1.1-0.5,0.5c-2.5-10-4.3-20.3-5.3-30.6
					c-0.3-3.1-0.5-6.1-0.5-9.2c-5.1,14.4-4.5,34.7-2.8,48.9c0.1,0.6-0.4,1.1-0.5,0.5c-1.7-14.1-2.2-33.9,2.4-48.5
					c-7.8,13.4-10.1,34.8-8.8,52.5c0.1,0.7-0.5,0.9-0.5,0.2C25.5,201.6,28.2,177.3,37.3,164.4z"/>
				<path class="st25" d="M77.2,142.5c0,0-16.4,3-21.8-21.3c0,0-19.7,20.6-11.5,67.8c0,0,2.5-10,7.6-6.2c0,0,3.3-12.2,9.1-8.5
					c0,0,1.5-11.1,8.5-11.8l7.2-9.7L77.2,142.5z"/>
				<path class="st25" d="M54.3,126.5L54.3,126.5c0.1-0.1,0.1-0.1,0.2-0.1l0,0l0,0c0.1,0.1,0.1,0.1,0.1,0.2
					c2.4,12.3,10,17.9,16.4,19.5c0.3,0.1,0.2,1.1-0.1,1.1c-3.2-0.9-6.2-2.5-8.7-4.8c-2.2-1.9-4.1-4.3-5.4-6.9
					c-0.9-1.8-1.6-3.7-2.2-5.7c0-0.1-0.1-0.3-0.1-0.4c0,2.6,0.2,5.1,0.4,7.5c1,10.5,2.8,20.8,5.3,31c0.1,0.6-0.4,1.1-0.5,0.5
					c-2.5-10-4.3-20.3-5.3-30.6c-0.3-3.1-0.5-6.1-0.5-9.2c-5,14.5-4.5,34.7-2.8,49c0.1,0.6-0.4,1.1-0.5,0.5
					c-1.7-14.1-2.2-33.9,2.4-48.5c-7.8,13.4-10.1,34.8-8.8,52.5c0,0.7-0.5,0.9-0.5,0.2C42.5,163.7,45.1,139.4,54.3,126.5z"/>
				<path class="st26" d="M81.6,142.8c-2.5-1.8-5.5-2.7-8.6-2.8h-3.1c-8.3,0-15,6.7-15,15v60.2H88V155
					C88,150.1,85.6,145.6,81.6,142.8z"/>
				<path class="st15" d="M71.6,150.5h-4.9c-5.2,0-9.4-4.2-9.4-9.4v-16.7c0-5.2,4.2-9.4,9.4-9.4h4.9c5.2,0,9.4,4.2,9.4,9.4v16.7
					C81,146.3,76.8,150.5,71.6,150.5z"/>
				<path class="st27" d="M47.6,147.5L47.6,147.5c-0.8,0.1-1.5-0.5-1.6-1.3c-0.1-0.8,0.5-1.5,1.3-1.5c0.1,0,0.2,0,0.2,0l0,0
					c4.1,0,5.4-4,5.6-4.8c0.1-7.6,8.2-11.6,8.6-11.8c0.7-0.4,1.6-0.1,1.9,0.6c0.4,0.7,0.1,1.6-0.6,1.9c-0.1,0.1-7,3.6-7,9.5v0.2v0.1
					C55.4,142.9,52.9,147.5,47.6,147.5z"/>
				<path class="st27" d="M41.1,145.4c-0.8,0-1.4-0.7-1.4-1.4c0-0.7,0.5-1.2,1.1-1.4c2.5-0.5,4.6-2.1,5.8-4.4
					c0.3-0.8,0.6-1.6,0.9-2.4c0.7-2.1,1.4-4.4,4.8-5.8c0.7-0.3,1.4-0.6,2.2-1c2.7-1.2,5.7-2.6,8.5-2.6l0,0c0.8,0.1,1.4,0.8,1.3,1.5
					c-0.1,0.7-0.6,1.2-1.3,1.3l0,0c-2.2,0-4.9,1.2-7.3,2.3c-0.8,0.4-1.6,0.7-2.3,1c-2.2,0.9-2.6,2.1-3.2,4c-0.3,0.9-0.6,1.8-1,2.7
					c-1.5,3.1-4.3,5.3-7.7,5.9C41.3,145.4,41.2,145.4,41.1,145.4z"/>
				<path class="st27" d="M37.9,137.1c-0.3,0-0.6-0.1-0.9-0.1c-0.8-0.1-1.3-0.8-1.2-1.6c0.1-0.8,0.8-1.3,1.6-1.2
					c2.8,0.4,5.1-2.1,7.1-4.3l0.5-0.6l0.2-0.2c2.3-2.5,4.9-5.2,9.1-5.1c3.4,0.1,7.8,0.8,9.9,3.8c0.4,0.6,0.3,1.5-0.4,2
					s-1.5,0.3-2-0.4l0,0c-1-1.6-3.8-2.5-7.6-2.6c-2.9-0.1-4.8,1.9-7,4.2l-0.2,0.2l-0.5,0.6C44.4,134.1,41.6,137.1,37.9,137.1z"/>
				<path class="st27" d="M42.5,129.3c-1.8,0-3.6-0.6-5.1-1.6c-0.6-0.4-0.8-1.3-0.4-2c0.4-0.6,1.3-0.8,2-0.4l0,0
					c4.1,2.8,8.1-0.3,8.8-1c1.2-1.7,3-2.9,5-3.3c4.9-0.9,10.2,2.9,10.5,3.1c0.6,0.5,0.8,1.3,0.3,2c-0.5,0.6-1.3,0.8-2,0.3l0,0
					c-0.1-0.1-4.6-3.2-8.3-2.6c-1.4,0.2-2.6,1-3.3,2.2l-0.1,0.1l-0.1,0.1C47.7,128.2,45.1,129.2,42.5,129.3z"/>
				<path class="st27" d="M64.1,119.4c-0.7,0-1.3-0.5-1.4-1.2c0-0.3-1-7-7.6-7.9H55l-0.2-0.1c-2.7-1-7.5-4.5-6.7-10.5
					c0.1-0.8,0.8-1.3,1.6-1.2c0.8,0.1,1.3,0.8,1.2,1.6c-0.7,4.9,3.9,7.1,4.8,7.4c7,1,9.5,7.2,9.9,10.4c0.1,0.8-0.5,1.5-1.2,1.6
					L64.1,119.4z"/>
				<path class="st27" d="M62.4,121.3c-0.8,0-1.4-0.7-1.4-1.4c0-5.1-4.1-9.3-9.2-9.4c-2.2,0.8-13.4,4.6-17.8,0.4
					c-0.6-0.6-0.6-1.4,0-2s1.4-0.6,2,0c2.5,2.4,10.5,0.6,15.1-1.1l0.2-0.1h0.3c6.8,0,12.3,5.5,12.3,12.2
					C63.8,120.7,63.2,121.3,62.4,121.3C62.4,121.3,62.4,121.3,62.4,121.3z"/>
				<path class="st27" d="M65.3,120.5h-0.2c-0.8-0.1-1.3-0.8-1.2-1.6c0-0.4,0.1-0.7,0.2-1.1c0.5-3.2,0.9-6.3,0.1-9.4
					c-0.7-2.8-2-3.4-4.2-4.4c-1-0.5-2-1-3-1.6c-3.2-2.2-5.2-5.7-5.5-9.6c-0.1-0.8,0.4-1.5,1.2-1.6s1.5,0.4,1.6,1.2
					c0,0.1,0,0.1,0,0.2c0.2,3,1.7,5.8,4.2,7.4c0.8,0.5,1.7,1,2.6,1.4c2.3,1.1,4.7,2.2,5.8,6.2c0.9,3.6,0.4,7.1-0.1,10.5
					c-0.1,0.3-0.1,0.7-0.2,1C66.6,119.9,66,120.5,65.3,120.5z"/>
				<path class="st27" d="M66.3,120c-0.8,0-1.4-0.6-1.4-1.4c0-0.5,0.3-1,0.8-1.3c2.7-1.3,4.6-3.9,5.1-6.9c0.6-3.4-1.6-6-3.8-8.8
					l-0.2-0.2l-0.6-0.7c-2.4-2.9-5.7-6.9-4.4-11.6c0.2-0.8,1-1.2,1.7-1s1.2,1,1,1.7l0,0c-0.9,3.2,1.7,6.3,3.9,9l0.6,0.7l0.2,0.2
					c2.4,3,5.2,6.4,4.4,11c-0.6,3.9-3.1,7.2-6.6,9C66.7,119.9,66.5,120,66.3,120z"/>
				<path class="st27" d="M63.5,126c-0.3,0-0.6-0.1-0.8-0.2c-1.4-1.1-2.7-2.3-3.9-3.6c-2.1-2.1-4.5-4.6-6.4-5
					c-2.8-0.6-3.9,0.3-5.8,1.8c-0.9,0.7-1.8,1.4-2.7,2c-3.4,1.9-7.4,2.2-11,0.7c-0.7-0.3-1-1.2-0.7-1.9c0.3-0.6,1-1,1.7-0.8
					c2.8,1.2,5.9,1,8.5-0.4c0.8-0.5,1.6-1.1,2.4-1.7c2-1.6,4.1-3.3,8.2-2.4c2.8,0.6,5.4,3.2,7.9,5.7c1.1,1.2,2.3,2.3,3.5,3.2
					c0.6,0.4,0.8,1.3,0.4,2C64.4,125.8,63.9,126,63.5,126L63.5,126z"/>
				<path class="st22" d="M71.4,150.5L71.4,150.5c-6.5,0-11.8-5.3-11.8-11.8v-11.8c0-6.5,5.3-11.8,11.8-11.8l0,0
					c6.5,0,11.8,5.3,11.8,11.8v11.8C83.2,145.2,77.9,150.5,71.4,150.5z"/>
				<path class="st26" d="M63.3,126.5h6.2c0.5,0,0.9,0.4,0.9,0.9v0.5c0,0.5-0.4,0.9-0.9,0.9h-6.2c-0.5,0-0.9-0.4-0.9-0.9v-0.5
					C62.4,126.9,62.8,126.5,63.3,126.5z"/>
				<path class="st26" d="M74.7,126.5h6.2c0.5,0,0.9,0.4,0.9,0.9v0.5c0,0.5-0.4,0.9-0.9,0.9h-6.2c-0.5,0-0.9-0.4-0.9-0.9v-0.5
					C73.8,126.9,74.2,126.5,74.7,126.5z"/>
				<path class="st26" d="M71.7,132.8H73c1.4,0,2.5,1.1,2.5,2.5v7c0,1.4-1.1,2.5-2.5,2.5h-1.3c-1.4,0-2.5-1.1-2.5-2.5v-7
					C69.1,133.9,70.3,132.8,71.7,132.8z"/>
				<path class="st23" d="M59.3,207.4c0,0-26.4,6.1-39.2-25.9c0,0-29.1,30.2-8.2,92.9c0,0,2.4-13.7,11.5-9.4c0,0,3.5-16.9,13.6-12.6
					c0,0,0.7-15.2,12-17l10.3-14L59.3,207.4z"/>
				<path class="st24" d="M19.1,188.8L19.1,188.8c0.1-0.2,0.2-0.2,0.3-0.2h0.1l0,0c0.1,0.1,0.2,0.2,0.2,0.3
					c4.4,13.2,16.2,22.6,30,24.1c0.6,0.1,0.6,1.5,0,1.4c-5.3-0.7-10.4-2.5-15-5.3c-3.8-2.2-7.2-5.1-9.9-8.6
					c-1.8-2.3-3.3-4.8-4.5-7.4c-0.1-0.2-0.2-0.4-0.3-0.6c0.4,3.5,1.2,6.9,1.9,10.1c3.2,14.7,8.3,28.3,13.6,41.1
					c0.3,0.8-0.4,1.5-0.8,0.7c-5.6-13.1-10.1-26.6-13.5-40.4c-1-4.1-1.7-8.2-2.2-12.4c-6,20-2,47.3,3.1,66.2
					c0.2,0.9-0.5,1.6-0.8,0.7c-5-18.8-9-45.4-3.7-65.7c-10.7,19.1-11.1,48.2-6,71.8c0.2,0.9-0.7,1.3-0.8,0.4
					C5.7,240.4,6.2,207.3,19.1,188.8z"/>
				<path class="st26" d="M72.7,167.9c-2.7-1.9-5.9-2.9-9.1-2.9h-3.2c-8.7,0-15.8,7.1-15.8,15.8v63.4h34.9v-63.4
					C79.4,175.7,76.9,170.8,72.7,167.9z"/>
				<path class="st15" d="M62.2,176H57c-5.5,0-9.9-4.4-9.9-9.9v-17.6c0-5.5,4.4-9.9,9.9-9.9h5.2c5.5,0,9.9,4.4,9.9,9.9v17.6
					C72,171.6,67.6,176,62.2,176z"/>
				<path class="st27" d="M36.9,172.9L36.9,172.9c-0.9,0-1.6-0.7-1.5-1.5c0-0.8,0.7-1.5,1.5-1.5c0,0,0,0,0,0h0c4.3,0,5.6-4.2,5.9-5
					c0.1-8,8.7-12.3,9-12.4c0.7-0.4,1.6-0.1,2,0.6c0.4,0.7,0.1,1.6-0.6,2c0,0-0.1,0-0.1,0c-0.1,0-7.4,3.8-7.4,10v0.2v0.2
					C45.1,168,42.5,172.9,36.9,172.9z"/>
				<path class="st27" d="M30,170.7c-0.8,0-1.5-0.7-1.5-1.5c0-0.7,0.5-1.3,1.1-1.4c2.6-0.5,4.9-2.2,6.1-4.6c0.4-0.8,0.7-1.6,0.9-2.5
					c0.7-2.3,1.4-4.6,5-6.1c0.7-0.3,1.5-0.6,2.3-1c2.8-1.3,6-2.7,8.9-2.7H53c0.8,0,1.5,0.7,1.5,1.5s-0.7,1.5-1.5,1.5h0
					c-2.3,0-5.1,1.3-7.7,2.5c-0.8,0.4-1.7,0.8-2.4,1.1c-2.3,1-2.7,2.2-3.3,4.2c-0.3,1-0.6,1.9-1,2.9c-1.6,3.2-4.6,5.5-8.1,6.2
					C30.2,170.7,30.1,170.7,30,170.7z"/>
				<path class="st27" d="M26.6,161.9c-0.3,0-0.7,0-1-0.1c-0.8-0.1-1.4-0.9-1.3-1.7c0.1-0.8,0.9-1.4,1.7-1.3
					c2.9,0.4,5.3-2.2,7.5-4.6l0.6-0.6l0.2-0.2c2.4-2.6,5.2-5.5,9.6-5.4c3.5,0.1,8.2,0.9,10.4,4.1c0.5,0.7,0.3,1.6-0.4,2.1
					c-0.7,0.5-1.6,0.3-2.1-0.4l0,0c-1.1-1.6-4-2.6-8-2.7c-3.1-0.1-5,2-7.3,4.4l-0.2,0.2l-0.6,0.6C33.5,158.8,30.6,161.9,26.6,161.9z
					"/>
				<path class="st27" d="M31.5,153.7c-1.9,0-3.8-0.6-5.4-1.7c-0.7-0.4-1-1.3-0.5-2c0.4-0.7,1.3-1,2-0.5c0.1,0,0.1,0.1,0.2,0.1
					c4.3,2.9,8.5-0.4,9.2-1c1.2-1.8,3.1-3.1,5.3-3.4c5.2-0.9,10.8,3.1,11,3.2c0.7,0.5,0.8,1.4,0.3,2.1c-0.5,0.7-1.4,0.8-2.1,0.3
					c-0.1-0.1-4.8-3.4-8.8-2.7c-1.4,0.3-2.7,1.1-3.5,2.3l-0.1,0.1l-0.1,0.1C37,152.6,34.3,153.7,31.5,153.7z"/>
				<path class="st27" d="M54.3,143.3c-0.7,0-1.4-0.6-1.5-1.3c0-0.3-1-7.4-8-8.3h-0.2l-0.2-0.1c-2.8-1.1-7.9-4.7-7-11.1
					c0.1-0.8,0.9-1.4,1.7-1.3c0.8,0.1,1.4,0.9,1.3,1.7c0,0,0,0,0,0c-0.7,5.1,4.1,7.4,5,7.8c7.3,1.1,10,7.6,10.4,10.9
					c0.1,0.8-0.5,1.5-1.3,1.6L54.3,143.3z"/>
				<path class="st27" d="M52.4,145.2c-0.8,0-1.5-0.7-1.5-1.5l0,0c0-5.4-4.3-9.8-9.7-9.9c-2.3,0.8-14.2,4.8-18.7,0.4
					c-0.6-0.5-0.7-1.5-0.1-2.1c0.5-0.6,1.5-0.7,2.1-0.1c0,0,0.1,0.1,0.1,0.1c2.6,2.5,11.1,0.6,15.9-1.1l0.2-0.1H41
					c7.1,0,12.9,5.7,12.9,12.9C53.9,144.6,53.3,145.2,52.4,145.2C52.4,145.2,52.4,145.2,52.4,145.2z"/>
				<path class="st27" d="M55.5,144.4h-0.2c-0.8-0.1-1.4-0.9-1.3-1.7c0.1-0.4,0.1-0.8,0.2-1.1c0.5-3.4,1-6.7,0.1-9.9
					c-0.8-2.9-2.2-3.6-4.5-4.6c-1.1-0.5-2.1-1-3.1-1.7c-3.4-2.3-5.5-6-5.8-10.1c-0.1-0.8,0.5-1.6,1.4-1.6s1.6,0.5,1.6,1.4
					c0.2,3.2,1.8,6.1,4.4,7.8c0.9,0.5,1.8,1,2.8,1.4c2.4,1.1,5,2.3,6.1,6.6c1,3.8,0.5,7.5-0.1,11.1c0,0.4-0.1,0.7-0.2,1.1
					C56.9,143.9,56.3,144.4,55.5,144.4z"/>
				<path class="st27" d="M56.6,143.9c-0.8,0-1.5-0.6-1.5-1.5c0-0.6,0.3-1.1,0.8-1.4c2.9-1.4,4.8-4.1,5.4-7.3c0.6-3.6-1.6-6.3-4-9.2
					l-0.2-0.2l-0.6-0.7c-2.5-3.1-6-7.3-4.7-12.2c0.2-0.8,1-1.3,1.8-1c0.8,0.2,1.3,1,1,1.8l0,0c-0.9,3.4,1.8,6.6,4.1,9.5l0.6,0.8
					l0.2,0.2c2.5,3.1,5.4,6.7,4.6,11.6c-0.7,4.1-3.3,7.6-7,9.4C57,143.9,56.8,143.9,56.6,143.9z"/>
				<path class="st27" d="M53.6,150.2c-0.3,0-0.6-0.1-0.8-0.3c-1.5-1.1-2.9-2.4-4.1-3.8c-2.2-2.2-4.7-4.8-6.8-5.2
					c-3-0.6-4.2,0.3-6.1,1.9c-0.9,0.8-1.9,1.4-2.9,2.1c-3.5,2-7.8,2.3-11.6,0.7c-0.8-0.3-1.2-1.1-0.9-1.9s1.1-1.2,1.9-0.9
					c0,0,0.1,0,0.1,0c2.9,1.3,6.2,1.1,9-0.5c0.9-0.6,1.7-1.2,2.5-1.8c2.1-1.7,4.3-3.4,8.6-2.5c3,0.6,5.7,3.4,8.3,6
					c1.1,1.2,2.4,2.4,3.7,3.4c0.7,0.5,0.9,1.4,0.4,2.1C54.5,150,54.1,150.2,53.6,150.2L53.6,150.2z"/>
				<path class="st22" d="M62,176L62,176c-6.9,0-12.5-5.6-12.5-12.5v-12.4c0-6.9,5.6-12.5,12.5-12.5h0c6.9,0,12.5,5.6,12.5,12.5
					v12.4C74.4,170.4,68.8,176,62,176z"/>
				<path class="st26" d="M53.4,150.8h6.5c0.5,0,1,0.4,1,1v0.5c0,0.5-0.4,1-1,1h-6.5c-0.5,0-1-0.4-1-1v-0.5
					C52.4,151.2,52.9,150.8,53.4,150.8z"/>
				<path class="st26" d="M65.5,150.8H72c0.5,0,1,0.4,1,1v0.5c0,0.5-0.4,1-1,1h-6.5c-0.5,0-1-0.4-1-1v-0.5
					C64.5,151.2,64.9,150.8,65.5,150.8z"/>
				<path class="st26" d="M62.2,157.4h1.4c1.5,0,2.7,1.2,2.7,2.6v7.4c0,1.5-1.2,2.6-2.7,2.6h-1.4c-1.5,0-2.6-1.2-2.6-2.6V160
					C59.6,158.6,60.7,157.4,62.2,157.4z"/>
				<path class="st26" d="M68,201.1c-3-2.1-6.6-3.3-10.3-3.3H54c-9.9,0-17.9,8-17.9,17.9l0,0v71.5h39.5v-71.5
					C75.6,209.9,72.8,204.4,68,201.1z"/>
				<path class="st15" d="M53.2,210.3L53.2,210.3c-7.8,0-14.1-6.3-14.1-14.1v-14c0-7.8,6.3-14.1,14.1-14.1h0
					c7.8,0,14.1,6.3,14.1,14.1v14C67.2,204,60.9,210.3,53.2,210.3z"/>
				<path class="st27" d="M27.5,206.7L27.5,206.7c-1,0-1.8-0.8-1.8-1.7c0-0.9,0.8-1.7,1.7-1.7h0c4.9,0,6.4-4.7,6.6-5.7
					c0.2-9,9.8-13.8,10.2-14c0.9-0.3,1.8,0.1,2.2,0.9c0.3,0.8,0,1.6-0.7,2.1c-0.1,0.1-8.3,4.2-8.3,11.2v0.2v0.2
					C36.8,201.2,33.9,206.7,27.5,206.7z"/>
				<path class="st27" d="M19.8,204.2c-0.9,0-1.7-0.8-1.7-1.7c0-0.8,0.5-1.4,1.3-1.6c3-0.6,5.5-2.5,6.9-5.2c0.4-0.9,0.7-1.9,1-2.8
					c0.8-2.6,1.6-5.2,5.7-6.9c0.8-0.3,1.7-0.8,2.6-1.2c3.2-1.4,6.8-3.1,10.1-3.1h0.1c0.9,0,1.7,0.8,1.7,1.7c0,0.9-0.8,1.7-1.7,1.7
					l0,0c-2.6,0-5.8,1.5-8.7,2.8c-1,0.4-1.9,0.9-2.8,1.2c-2.6,1.1-3,2.5-3.8,4.8c-0.3,1.1-0.7,2.2-1.2,3.2c-1.8,3.6-5.2,6.2-9.1,7
					C20.1,204.2,19.9,204.2,19.8,204.2z"/>
				<path class="st27" d="M16,194.4c-0.4,0-0.7,0-1.1-0.1c-0.9-0.1-1.6-1-1.4-1.9c0.1-0.9,1-1.6,1.9-1.4c3.3,0.4,6-2.5,8.4-5.1
					l0.6-0.7l0.2-0.2c2.7-2.9,5.8-6.2,10.8-6.1c4,0.1,9.3,1,11.7,4.6c0.5,0.8,0.2,1.8-0.6,2.3c-0.7,0.4-1.7,0.3-2.2-0.4
					c-1.2-1.8-4.5-3-9-3.1c-3.5-0.1-5.7,2.3-8.3,5l-0.2,0.2l-0.6,0.7C23.8,190.8,20.4,194.4,16,194.4z"/>
				<path class="st27" d="M21.4,185.1c-2.2,0-4.3-0.7-6.1-1.9c-0.8-0.5-1-1.5-0.5-2.3c0.5-0.8,1.5-1,2.3-0.5c0,0,0,0,0.1,0
					c4.8,3.3,9.6-0.4,10.4-1.1c1.4-2.1,3.5-3.5,6-3.9c5.9-1,12.2,3.4,12.5,3.6c0.8,0.6,0.9,1.6,0.4,2.4c-0.6,0.8-1.6,0.9-2.4,0.4
					c-0.1-0.1-5.5-3.9-9.9-3.1c-1.6,0.3-3,1.2-3.9,2.6l-0.1,0.2l-0.1,0.1C27.7,183.8,24.6,185,21.4,185.1z"/>
				<path class="st27" d="M47.2,173.3c-0.9,0-1.6-0.6-1.7-1.5c0-0.4-1.1-8.3-9-9.4h-0.2l-0.2-0.1c-3.2-1.2-9-5.4-7.9-12.5
					c0.1-0.9,1-1.6,1.9-1.4c0.9,0.1,1.6,1,1.4,1.9l0,0c-0.8,5.8,4.6,8.4,5.6,8.8c8.3,1.2,11.3,8.6,11.7,12.3
					c0.1,0.9-0.6,1.8-1.5,1.9c0,0,0,0,0,0L47.2,173.3z"/>
				<path class="st27" d="M45.1,175.5c-0.9,0-1.7-0.8-1.7-1.7c0-6.1-4.9-11.1-11-11.2c-2.6,1-16,5.4-21.1,0.4
					c-0.7-0.7-0.6-1.7,0-2.4c0.6-0.6,1.7-0.6,2.3,0c2.9,2.8,12.6,0.7,17.9-1.3l0.3-0.1h0.3c8,0,14.6,6.5,14.6,14.5
					C46.7,174.8,46,175.5,45.1,175.5z"/>
				<path class="st27" d="M48.6,174.6h-0.2c-0.9-0.1-1.6-1-1.4-1.9c0,0,0,0,0,0l0.2-1.3c0.6-3.9,1.1-7.5,0.2-11.2
					c-0.9-3.3-2.4-4-5-5.2c-1.2-0.5-2.4-1.2-3.5-1.9c-3.8-2.6-6.2-6.8-6.5-11.4c-0.1-0.9,0.6-1.7,1.5-1.8c0.9-0.1,1.7,0.6,1.8,1.5
					c0.2,3.6,2,6.8,5,8.9c1,0.6,2,1.2,3.1,1.6c2.8,1.3,5.6,2.6,6.9,7.4c1.1,4.3,0.5,8.5-0.1,12.5c-0.1,0.4-0.1,0.8-0.2,1.3
					C50.1,174,49.4,174.6,48.6,174.6z"/>
				<path class="st27" d="M49.8,174c-0.9,0-1.7-0.7-1.7-1.7c0-0.6,0.4-1.2,0.9-1.5c3.2-1.6,5.4-4.7,6-8.2c0.7-4.1-1.9-7.2-4.5-10.4
					l-0.2-0.2l-0.7-0.8c-2.9-3.5-6.8-8.2-5.3-13.7c0.2-0.9,1.2-1.4,2.1-1.2c0.9,0.2,1.4,1.2,1.2,2.1c-1,3.8,2,7.5,4.6,10.7
					c0.2,0.3,0.5,0.6,0.7,0.9l0.2,0.2c2.9,3.6,6.2,7.6,5.2,13.1c-0.8,4.6-3.7,8.6-7.9,10.7C50.3,173.9,50,174,49.8,174z"/>
				<path class="st27" d="M46.4,181.1c-0.3,0-0.7-0.1-1-0.3c-1.7-1.3-3.2-2.7-4.7-4.3c-2.5-2.5-5.3-5.4-7.6-5.9
					c-3.3-0.7-4.7,0.4-6.9,2.2c-1,0.8-2.1,1.6-3.2,2.3c-4,2.3-8.8,2.6-13.1,0.8c-0.9-0.3-1.3-1.3-1-2.2c0.3-0.9,1.3-1.3,2.2-1l0,0
					c3.3,1.4,7,1.2,10.1-0.5c1-0.6,1.9-1.3,2.8-2c2.4-1.9,4.8-3.9,9.7-2.9c3.3,0.7,6.4,3.8,9.4,6.8c1.3,1.4,2.7,2.7,4.2,3.8
					c0.8,0.5,1,1.6,0.4,2.3C47.5,180.9,46.9,181.2,46.4,181.1L46.4,181.1z"/>
				<path class="st22" d="M55.8,210.3L55.8,210.3c7.8,0,14.1-6.3,14.1-14.1v-14c0-7.8-6.3-14-14.1-14.1l0,0c-7.8,0-14,6.3-14.1,14.1
					v14C41.8,204,48.1,210.3,55.8,210.3z"/>
				<path class="st26" d="M46.2,181.8h7.4c0.6,0,1.1,0.5,1.1,1.1v0.6c0,0.6-0.5,1.1-1.1,1.1h-7.4c-0.6,0-1.1-0.5-1.1-1.1v-0.6
					C45.1,182.3,45.6,181.8,46.2,181.8z"/>
				<path class="st26" d="M59.8,181.8h7.4c0.6,0,1.1,0.5,1.1,1.1v0.6c0,0.6-0.5,1.1-1.1,1.1h-7.4c-0.6,0-1.1-0.5-1.1-1.1v-0.6
					C58.7,182.3,59.2,181.8,59.8,181.8z"/>
				<path class="st26" d="M56.1,189.2h1.6c1.7,0,3,1.3,3,3v8.4c0,1.7-1.3,3-3,3h-1.6c-1.7,0-3-1.3-3-3v-8.4
					C53.2,190.6,54.5,189.2,56.1,189.2z"/>
				<path class="st28" d="M80.3,246.4c-0.9,0-1.9-0.2-2.7-0.6l-42.3-19.4c-3.3-1.5-4.9-5.3-3.5-8.7c1.5-3.3,5.3-4.8,8.6-3.3
					c0,0,0.1,0,0.1,0l42.3,19.4c3.1,1.4,4.7,4.8,3.7,8.1C85.6,244.6,83.1,246.4,80.3,246.4z"/>
				<path class="st28" d="M89,240l-0.3,0.6c-0.3,0.7-1.1,1-1.9,0.7l-8.8-3.8c-0.7-0.3-1-1.1-0.7-1.9l0.3-0.6c0.3-0.7,1.1-1,1.9-0.7
					l8.8,3.8C89,238.4,89.3,239.2,89,240z"/>
				<path class="st22" d="M80.3,245.1c-0.9,0-1.9-0.2-2.7-0.6l-42.3-19.4c-3.3-1.5-4.9-5.3-3.5-8.7c1.4-3.3,5.3-4.8,8.6-3.4
					c0,0,0.1,0,0.1,0.1l42.3,19.4c3.1,1.4,4.7,4.8,3.7,8.1C85.6,243.3,83.1,245.1,80.3,245.1z"/>
				<path class="st22" d="M78.1,228.4h0.7c0.8,0,1.5,0.7,1.5,1.5v4.4c0,0.8-0.7,1.5-1.5,1.5h-0.7c-0.8,0-1.5-0.7-1.5-1.5v-4.4
					C76.6,229,77.3,228.4,78.1,228.4z"/>
				<path class="st22" d="M89,238.7l-0.3,0.6c-0.3,0.7-1.1,1-1.9,0.7l-8.8-3.8c-0.7-0.3-1-1.1-0.7-1.9l0.3-0.6
					c0.3-0.7,1.1-1,1.9-0.7l8.8,3.8C89,237.1,89.3,238,89,238.7z"/>
				<path class="st26" d="M47.9,219.1c0,4.9-4,8.8-8.8,8.8s-8.8-4-8.8-8.8c0-4.9,4-8.8,8.8-8.8C43.9,210.3,47.9,214.2,47.9,219.1
					C47.9,219.1,47.9,219.1,47.9,219.1z"/>
				<path class="st17" d="M80.5,246.8H90c0.8,0,1.4,0.6,1.4,1.4v0.2c0,0.8-0.6,1.4-1.4,1.4h-9.5c-0.8,0-1.4-0.6-1.4-1.4v-0.2
					C79,247.4,79.7,246.8,80.5,246.8z"/>
				<rect x="83.2" y="164.3" class="st20" width="4.5" height="11.8"/>
				<rect x="80.6" y="175.1" class="st21" width="9.9" height="1.9"/>
				<rect x="83.2" y="176.9" class="st22" width="4.5" height="71.4"/>
				<path class="st17" d="M114.2,252.9h9.5c0.8,0,1.4,0.6,1.4,1.4v0.2c0,0.8-0.6,1.4-1.4,1.4h-9.5c-0.8,0-1.4-0.6-1.4-1.4v-0.2
					C112.8,253.5,113.4,252.9,114.2,252.9z"/>
				<rect x="116.9" y="170.4" class="st20" width="4.5" height="11.8"/>
				<rect x="114.3" y="181.2" class="st21" width="9.9" height="1.9"/>
				<rect x="116.9" y="183.1" class="st22" width="4.5" height="71.4"/>
				<path class="st17" d="M98.2,244.2h8.7c0.8,0,1.4,0.6,1.4,1.4v0c0,0.8-0.6,1.4-1.4,1.4h-8.7c-0.8,0-1.4-0.6-1.4-1.4v0
					C96.8,244.9,97.5,244.2,98.2,244.2z"/>
				<rect x="100.7" y="167.2" class="st20" width="4.2" height="11"/>
				<rect x="98.3" y="177.3" class="st21" width="9.2" height="1.8"/>
				<rect x="100.7" y="179" class="st22" width="4.2" height="66.7"/>
				<path class="st15" d="M146.9,241.6l0.5-0.6c0.3-0.3,0.7-0.5,1.1-0.6l2.4-0.5c0,0,0-0.1,0-0.1V222c0-1.9,1.5-3.4,3.4-3.4
					c1.9,0,3.4,1.5,3.4,3.4v17.1c0.5,0.4,0.8,1,0.8,1.6v2.2c0,1.1-0.9,2-2,2h-8.1c-1.1,0-2-0.9-2-2
					C146.3,242.5,146.5,242,146.9,241.6z"/>
				<path class="st15" d="M164.7,239.1V222c0-1.9,1.5-3.4,3.4-3.4c1.9,0,3.4,1.5,3.4,3.4v17.8c0,0,0,0.1,0,0.1l2.4,0.5
					c0.4,0.1,0.8,0.3,1.1,0.6l0.5,0.6c0.8,0.8,0.8,2,0,2.8c-0.4,0.4-1,0.6-1.6,0.6h-8.1c-1.1,0-2-0.9-2-2v-2.2
					C163.9,240.2,164.2,239.6,164.7,239.1z"/>
				<path class="st29" d="M159.1,148.7l1,1.3c1.2,1.6,0.9,4-0.7,5.2l-16.2,12.3c-1.6,1.2-4,0.9-5.2-0.7l-1-1.3
					c-1.2-1.6-0.9-4,0.7-5.2l16.2-12.3C155.5,146.7,157.8,147,159.1,148.7z"/>
				<path class="st29" d="M140.4,166.9l-1.2,0.2c-1.5,0.2-2.9-0.8-3.1-2.3l-3.1-23c-0.2-1.5,0.8-2.9,2.3-3.1l1.2-0.2
					c1.5-0.2,2.9,0.8,3.1,2.3l3.1,23C143,165.4,141.9,166.7,140.4,166.9z"/>
				<path class="st29" d="M135.7,127.5h1.3c1.7,0,3,1.4,3,3v9.7c0,1.7-1.4,3-3,3h-1.3c-1.7,0-3-1.4-3-3v-9.7
					C132.6,128.9,134,127.5,135.7,127.5z"/>
				<path class="st15" d="M139.4,134.2h0.4c0.6,0,1,0.4,1,1v3.3c0,0.6-0.4,1-1,1h-0.4c-0.6,0-1-0.4-1-1v-3.3
					C138.4,134.6,138.8,134.2,139.4,134.2z"/>
				<path class="st15" d="M140.2,136.9l0.4,0.5c0.6,0.6,0.5,1.6-0.1,2.1l-2.3,2.1c-0.6,0.6-1.6,0.5-2.1-0.1l-0.4-0.5
					c-0.6-0.6-0.5-1.6,0.1-2.1l2.3-2.1C138.7,136.3,139.7,136.3,140.2,136.9z"/>
				<rect x="148.9" y="120.2" class="st30" width="10.6" height="31.7"/>
				<path class="st30" d="M156.6,112.8h9.3c5.4,0,9.8,4.4,9.8,9.8v39.8l0,0h-19l0,0L156.6,112.8L156.6,112.8z"/>
				<path class="st15" d="M188.2,165.4l-1,1.3c-1.2,1.6-3.6,2-5.2,0.7l-13.3-10.1c-1.6-1.2-2-3.6-0.7-5.2l1-1.3
					c1.2-1.6,3.6-2,5.2-0.7l13.3,10.1C189.1,161.4,189.4,163.8,188.2,165.4z"/>
				<path class="st15" d="M198.1,146.8l0.9,0.7c1.2,0.9,1.4,2.6,0.5,3.8L187.7,167c-0.9,1.2-2.6,1.4-3.8,0.5l-0.9-0.7
					c-1.2-0.9-1.4-2.6-0.5-3.8l11.9-15.7C195.2,146.1,196.9,145.9,198.1,146.8z"/>
				<rect x="192.4" y="140.1" class="st20" width="5.1" height="13.2"/>
				<rect x="189.3" y="139.1" class="st21" width="11.1" height="2.1"/>
				<polygon class="st28" points="195,49.5 192.4,59.2 192.4,139.2 197.5,139.2 197.5,59.2 				"/>
				<path class="st15" d="M194.1,151.1h-2.6c-0.6,0-1.1-0.5-1.1-1.1v-0.5c0-0.6,0.5-1.1,1.1-1.1h2.6c0.6,0,1.1,0.5,1.1,1.1v0.5
					C195.3,150.6,194.8,151.1,194.1,151.1z"/>
				<path class="st15" d="M197.4,154.2h-1.1c-1.3,0-2.4-1.1-2.4-2.4V147c0-1.3,1.1-2.4,2.4-2.4h1.1c1.3,0,2.4,1.1,2.4,2.4v4.8
					C199.8,153.2,198.7,154.2,197.4,154.2z"/>
				<path class="st15" d="M160.9,140.6h1c1.2,0,2.2,1,2.2,2.2v5.3c0,1.2-1,2.2-2.2,2.2h-1c-1.2,0-2.2-1-2.2-2.2v-5.3
					C158.7,141.6,159.7,140.6,160.9,140.6z"/>
				<path class="st15" d="M172.3,148.6c-2.5-1.7-5.4-2.7-8.4-2.7h-3c-3.6,0-7,1.3-9.7,3.7l10,10L172.3,148.6z"/>
				<path class="st15" d="M146.7,130.6c0,1.7,1.4,3.1,3.1,3.1c1.7,0,3.1-1.4,3.1-3.1s-1.4-3.1-3.1-3.1
					C148.1,127.5,146.7,128.8,146.7,130.6C146.7,130.5,146.7,130.6,146.7,130.6z"/>
				<path class="st29" d="M147.9,130.6c0,1,0.8,1.9,1.9,1.9s1.9-0.8,1.9-1.9c0-1-0.8-1.9-1.9-1.9
					C148.7,128.7,147.9,129.5,147.9,130.6C147.9,130.6,147.9,130.6,147.9,130.6z"/>
				<path class="st15" d="M160.4,144.6L160.4,144.6c6.3,0.3,11.7-4.6,12-10.9l0.6-11.4c0.3-6.3-4.6-11.7-10.9-12l0,0
					c-6.3-0.3-11.7,4.6-12,10.9l-0.6,11.4C149.3,138.9,154.1,144.3,160.4,144.6z"/>
				<path class="st20" d="M162.6,132h-0.4c-0.5,0-0.8-0.4-0.8-0.8V129c0-0.5,0.4-0.8,0.8-0.8h0.4c0.5,0,0.8,0.4,0.8,0.8v2.1
					C163.4,131.6,163,132,162.6,132z"/>
				<path class="st20" d="M154.1,132h-0.4c-0.5,0-0.8-0.4-0.8-0.8V129c0-0.5,0.4-0.8,0.8-0.8h0.4c0.5,0,0.8,0.4,0.8,0.8v2.1
					C154.9,131.6,154.5,132,154.1,132z"/>
				<rect x="170.1" y="122.7" class="st30" width="4.6" height="5.2"/>
				<path class="st15" d="M168.6,130.1c0,1.7,1.4,3.1,3.1,3.1c1.7,0,3.1-1.4,3.1-3.1s-1.4-3.1-3.1-3.1c0,0,0,0,0,0
					C170,127,168.6,128.4,168.6,130.1C168.6,130.1,168.6,130.1,168.6,130.1z"/>
				<path class="st29" d="M169.8,130.1c0,1,0.8,1.9,1.9,1.9s1.9-0.8,1.9-1.9s-0.8-1.9-1.9-1.9c0,0,0,0,0,0
					C170.6,128.2,169.8,129.1,169.8,130.1z"/>
				<path class="st30" d="M166.8,127.7c-0.1,0-0.3,0-0.4-0.1c-3.1-1.9-4.6-1-4.6-1c-0.3,0.2-0.7,0.2-1-0.1s-0.2-0.7,0.1-1l0,0
					c0.1-0.1,2.2-1.6,6.1,0.9c0.3,0.2,0.4,0.6,0.2,1C167.2,127.6,167,127.7,166.8,127.7L166.8,127.7z"/>
				<path class="st30" d="M150.9,127.6c-0.1,0-0.3,0-0.4-0.1c-0.3-0.2-0.4-0.6-0.2-0.9c0,0,0,0,0,0c0.1-0.1,1.5-2.2,6-1.4
					c0.4,0.1,0.6,0.4,0.5,0.8s-0.4,0.6-0.8,0.5c-3.6-0.7-4.6,0.8-4.6,0.8C151.3,127.5,151.1,127.6,150.9,127.6z"/>
				<path class="st29" d="M158.7,132.3c-0.7,0-1.2,0.5-1.2,1.2h2.4C159.9,132.8,159.3,132.3,158.7,132.3L158.7,132.3z"/>
				<path class="st20" d="M160.2,137.5c0.7,0,1.3,0.6,1.3,1.3c0,0.2,0,0.3-0.1,0.5h2c0-1.9-1.6-3.5-3.5-3.5c-1.2,0-2.4,0.7-3,1.7
					c0.1,0,0.2,0,0.3,0L160.2,137.5z"/>
				<path class="st31" d="M161.4,139.3c0.1-0.1,0.1-0.3,0.1-0.5c0-0.7-0.6-1.3-1.3-1.3h-3c-0.1,0-0.2,0-0.3,0
					c-0.3,0.5-0.5,1.1-0.5,1.8L161.4,139.3z"/>
				<path class="st22" d="M172.3,148.6l-1,1c-5.5,5.5-14.5,5.5-20,0c0,0,0,0,0,0l0,0c-3.1,2.8-4.9,6.7-4.9,10.9l-5.5,85.9l42,1.6
					l-4.3-87.5C178.5,155.7,176.2,151.3,172.3,148.6z"/>
				<path class="st32" d="M160.3,87.3h3.3c4.2,0,7.6,3.4,7.6,7.6v0v25.9l0,0h-18.4l0,0V94.9C152.7,90.7,156.1,87.3,160.3,87.3
					L160.3,87.3z"/>
				<path class="st33" d="M159.9,111.3v-2.9l0,0c0-0.3-0.7-3.5-3.5-4.7c-4-1.8-6.1,1.5-10.5-1.2c-0.1-0.1-0.2,0-0.2,0.1
					c0,0,0,0.1,0,0.2c0.4,1.2,1.2,2.2,2.3,3c0.1,0.1,0.1,0.2,0,0.3c0,0.1-0.1,0.1-0.2,0.1c-0.6-0.2-1.1-0.4-1.6-0.8
					c-0.1-0.1-0.2,0-0.2,0c0,0,0,0.1,0,0.2c0.7,1.8,2.4,3.1,4.3,3.4c0.1,0,0.2,0.1,0.1,0.2c0,0.1-0.1,0.1-0.1,0.1
					c-0.8,0.2-1.6,0.2-2.4,0.1c-0.1,0-0.2,0.1-0.2,0.2c0,0.1,0,0.1,0,0.1c1.4,1.4,3.3,2,5.2,1.8c0.1,0,0.2,0.1,0.2,0.2
					c0,0.1,0,0.1-0.1,0.2c-1.1,0.4-2.2,0.6-3.3,0.5c-0.1,0-0.2,0.1-0.2,0.2c0,0.1,0,0.1,0.1,0.2c1.9,1,6.6,2.8,10.3-1
					C159.9,111.5,159.9,111.4,159.9,111.3z"/>
				<path class="st33" d="M162.9,111.3v-3c0.1-0.3,0.7-3.5,3.6-4.7c4-1.8,6.1,1.5,10.5-1.2c0.1,0,0.2,0,0.3,0.1c0,0,0,0.1,0,0.1
					c-0.5,1.2-1.2,2.2-2.3,3c-0.1,0.1-0.1,0.2-0.1,0.2c0,0.1,0.1,0.1,0.2,0.1c0.6-0.2,1.1-0.4,1.6-0.8c0.1-0.1,0.2-0.1,0.3,0
					c0,0.1,0.1,0.1,0,0.2c-0.7,1.8-2.4,3.1-4.3,3.4c-0.1,0-0.2,0.1-0.1,0.2c0,0.1,0.1,0.1,0.1,0.1c0.8,0.2,1.6,0.2,2.4,0.1
					c0.1,0,0.2,0.1,0.2,0.2c0,0.1,0,0.1,0,0.1c-1.4,1.4-3.3,2-5.2,1.8c-0.1,0-0.2,0.1-0.2,0.2c0,0.1,0,0.1,0.1,0.2
					c1,0.4,2.2,0.6,3.3,0.5c0.1,0,0.2,0,0.2,0.1c0,0.1,0,0.2-0.1,0.2c-1.9,1-6.6,2.8-10.3-1C162.9,111.4,162.9,111.4,162.9,111.3z"
					/>
				<polygon class="st28" points="160.4,108.1 151.5,92 155.5,87.3 161.9,108.1 				"/>
				<polygon class="st28" points="162.4,108.1 171.3,92 167.4,87.3 160.9,108.1 				"/>
				<path class="st28" d="M161.3,107c-0.4-0.6-3.1-19.7-3.1-19.7h6.4L161.3,107z"/>
				<path class="st22" d="M159.6,107.2l-11.5,10.5c-1.3,1.2-1.4,3.3-0.2,4.6c0.6,0.7,1.5,1.1,2.4,1.1h22.9c1.8,0,3.2-1.5,3.2-3.3
					c0-0.9-0.4-1.8-1.1-2.4L164,107.2C162.8,106.1,160.8,106.1,159.6,107.2z"/>
				<path class="st15" d="M111.5,257l0.8,0.7c0.4,0.4,0.7,0.9,0.8,1.5l0.7,3.3H138c2.5,0.1,4.5,2.3,4.4,4.8c-0.1,2.4-2,4.3-4.4,4.4
					h-23.2c-0.5,0.7-1.3,1.1-2.2,1.1h-3c-1.5,0-2.7-1.2-2.7-2.7V259c0-1.5,1.2-2.7,2.7-2.7C110.3,256.3,111,256.5,111.5,257z"/>
				<path class="st34" d="M133.4,271.3v-8.2c0-0.5,0.4-0.9,0.9-0.9l0,0c0.5,0,0.9,0.4,0.9,0.9v8.2c0,0.5-0.4,0.9-0.9,0.9l0,0
					C133.8,272.2,133.4,271.8,133.4,271.3z"/>
				<path class="st34" d="M122.8,263L122.8,263c0.3-0.4,1-0.5,1.4-0.2l9.7,7.3c0.4,0.3,0.5,1,0.2,1.4l0,0c-0.3,0.4-1,0.5-1.4,0.2
					l-9.7-7.4C122.6,264,122.5,263.4,122.8,263z"/>
				<path class="st34" d="M122.9,271.6L122.9,271.6c0.3,0.4,0.9,0.5,1.2,0.2l9.8-7.5c0.4-0.3,0.5-0.9,0.2-1.2c0,0,0,0,0,0l0,0
					c-0.3-0.4-0.9-0.5-1.2-0.2c0,0,0,0,0,0l-9.8,7.5C122.7,270.6,122.6,271.2,122.9,271.6C122.9,271.6,122.9,271.6,122.9,271.6z"/>
				<path class="st34" d="M112.9,263L112.9,263c0.3-0.4,1-0.5,1.4-0.2l9.7,7.3c0.4,0.3,0.5,1,0.2,1.4l0,0c-0.3,0.4-1,0.5-1.4,0.2
					l-9.7-7.3C112.7,264.1,112.6,263.4,112.9,263z"/>
				<path class="st34" d="M112.9,271.5L112.9,271.5c0.3,0.4,1,0.5,1.4,0.2l9.7-7.3c0.4-0.3,0.5-1,0.2-1.4l0,0
					c-0.3-0.4-1-0.5-1.4-0.2l-9.7,7.3C112.7,270.4,112.6,271.1,112.9,271.5z"/>
				<path class="st34" d="M107.4,259.1L107.4,259.1c0-0.5,0.4-0.8,0.8-0.8h0h4.2c0.5,0,0.8,0.4,0.8,0.8l0,0l0,0
					c0,0.4-0.4,0.8-0.8,0.8h-4.2C107.8,259.9,107.4,259.5,107.4,259.1z"/>
				<path class="st34" d="M107.4,262.3L107.4,262.3c0-0.5,0.4-0.8,0.8-0.8h0h4.9c0.4,0,0.8,0.4,0.8,0.8l0,0c0,0.4-0.4,0.8-0.8,0.8
					h-4.9C107.8,263.1,107.4,262.7,107.4,262.3z"/>
				<path class="st34" d="M112.3,271v-7.8c0-0.5,0.4-0.9,0.9-0.9c0,0,0,0,0,0l0,0c0.5,0,0.9,0.4,0.9,0.9l0,0v7.8
					c0,0.5-0.4,0.9-0.9,0.9c0,0,0,0,0,0l0,0C112.7,271.9,112.3,271.5,112.3,271L112.3,271z"/>
				<path class="st34" d="M106.6,257.1v15.5c0,0.5,0.4,0.8,0.8,0.8l0,0c0.5,0,0.8-0.4,0.8-0.8v-15.5c0-0.5-0.4-0.8-0.8-0.8l0,0
					C107,256.3,106.6,256.7,106.6,257.1z"/>
				<path class="st34" d="M106.6,272.7L106.6,272.7c0,0.5,0.4,0.9,0.9,0.9h6.4c0.5,0,0.9-0.4,0.9-0.9l0,0l0,0c0-0.5-0.4-0.9-0.9-1
					h-6.4C107.1,271.8,106.6,272.2,106.6,272.7z"/>
				<path class="st15" d="M110.9,241.7l0.8,0.7c0.4,0.4,0.7,0.9,0.8,1.4l0.7,3.3h24.2c2.5,0.1,4.5,2.3,4.4,4.8
					c-0.1,2.4-2,4.3-4.4,4.4h-23.2c-0.5,0.7-1.3,1.1-2.2,1.1h-3c-1.5,0-2.7-1.2-2.7-2.7v-10.9c0-1.5,1.2-2.7,2.7-2.8
					C109.7,241,110.3,241.2,110.9,241.7z"/>
				<path class="st34" d="M132.8,256v-8.2c0-0.5,0.4-0.9,0.9-0.9l0,0c0.5,0,0.9,0.4,0.9,0.9v8.2c0,0.5-0.4,0.9-0.9,0.9l0,0
					C133.2,256.9,132.8,256.5,132.8,256z"/>
				<path class="st34" d="M122.2,247.7L122.2,247.7c0.3-0.4,1-0.5,1.4-0.2l9.7,7.3c0.4,0.3,0.5,0.9,0.2,1.4l0,0
					c-0.3,0.4-1,0.5-1.4,0.2l-9.7-7.3C122,248.8,121.9,248.1,122.2,247.7z"/>
				<path class="st34" d="M122.3,256.3L122.3,256.3c0.3,0.4,0.8,0.5,1.2,0.2c0,0,0,0,0,0l9.8-7.5c0.4-0.3,0.5-0.8,0.2-1.2
					c0,0,0,0,0,0l0,0c-0.3-0.4-0.9-0.5-1.2-0.2c0,0,0,0,0,0l-9.8,7.5C122.1,255.4,122,255.9,122.3,256.3
					C122.3,256.3,122.3,256.3,122.3,256.3z"/>
				<path class="st34" d="M112.3,247.7L112.3,247.7c0.3-0.4,1-0.5,1.4-0.2l9.7,7.3c0.4,0.3,0.5,1,0.2,1.4l0,0
					c-0.3,0.4-0.9,0.5-1.4,0.2l-9.7-7.3C112.1,248.8,112,248.1,112.3,247.7z"/>
				<path class="st34" d="M112.3,256.2L112.3,256.2c0.3,0.4,1,0.5,1.4,0.2l0,0l9.7-7.3c0.4-0.3,0.5-1,0.2-1.4l0,0
					c-0.3-0.4-1-0.5-1.4-0.2l-9.7,7.3C112.1,255.2,112,255.8,112.3,256.2z"/>
				<path class="st34" d="M106.8,243.8L106.8,243.8c0-0.4,0.4-0.8,0.8-0.8h4.2c0.4,0,0.8,0.4,0.8,0.8l0,0c0,0.5-0.4,0.8-0.8,0.8h0
					h-4.2C107.1,244.6,106.8,244.3,106.8,243.8L106.8,243.8z"/>
				<path class="st34" d="M106.8,247L106.8,247c0-0.4,0.4-0.8,0.8-0.8h4.9c0.4,0,0.8,0.4,0.8,0.8l0,0c0,0.4-0.4,0.8-0.8,0.8h-4.9
					C107.1,247.8,106.8,247.5,106.8,247L106.8,247z"/>
				<path class="st34" d="M111.7,255.7v-7.8c0-0.5,0.4-0.9,0.9-0.9l0,0c0.5,0,0.9,0.4,0.9,0.9v7.8c0,0.5-0.4,0.9-0.9,0.9l0,0
					C112.1,256.6,111.7,256.2,111.7,255.7z"/>
				<path class="st34" d="M106,241.8v15.6c0,0.5,0.4,0.8,0.8,0.8l0,0c0.5,0,0.8-0.4,0.8-0.8v-15.6c0-0.5-0.4-0.8-0.8-0.8l0,0l0,0
					C106.4,241,106,241.4,106,241.8z"/>
				<path class="st34" d="M106,257.4L106,257.4c0,0.5,0.5,0.9,1,0.9h6.4c0.5,0,0.9-0.4,0.9-0.9l0,0l0,0c0-0.5-0.4-0.9-0.9-0.9
					c0,0,0,0,0,0H107C106.5,256.5,106,256.9,106,257.4z"/>
				<path class="st34" d="M207.3,266v-13.9c0-4.4,3.6-8,8-8H231l0,0V274l0,0h-15.6C210.9,274,207.3,270.5,207.3,266
					C207.3,266,207.3,266,207.3,266z"/>
				<path class="st15" d="M218.1,243.9c-1.4,0-2.6,1.2-2.6,2.6c0,1.4,1.2,2.6,2.6,2.6c1.4,0,2.6-1.2,2.6-2.6c0,0,0,0,0,0
					C220.8,245.1,219.6,243.9,218.1,243.9C218.1,243.9,218.1,243.9,218.1,243.9z"/>
				<path class="st29" d="M218.1,244.9c-0.9,0-1.6,0.7-1.6,1.6s0.7,1.6,1.6,1.6s1.6-0.7,1.6-1.6c0,0,0,0,0,0
					C219.7,245.6,219,244.9,218.1,244.9z"/>
				<path class="st15" d="M199.3,258.3L199.3,258.3c0,1.6,1.3,2.9,2.9,2.9h4.6c1.6,0,2.9-1.3,2.9-2.9l0,0c0-1.6-1.3-2.9-2.9-2.9
					h-4.6C200.6,255.4,199.3,256.7,199.3,258.3z"/>
				<path class="st15" d="M204.4,259L204.4,259c-0.4-6.8,4.9-12.6,11.7-13c0,0,0,0,0,0l12.2-0.6c6.8-0.3,12.6,4.9,12.9,11.7l0,0
					c0.3,6.8-4.9,12.6-11.7,12.9l-12.2,0.6C210.6,270.9,204.8,265.8,204.4,259z"/>
				<path class="st15" d="M196,258.5c0-3.9,2.2-7.5,5.6-9.4c1.2,2.4,1.8,5.1,1.8,7.8v3.2c0,2.7-0.6,5.4-1.8,7.8
					C198.2,266,196,262.4,196,258.5z"/>
				<path class="st34" d="M226.3,275.8L226.3,275.8c2.1,2.1,5.5,2.1,7.6,0l9.1-9.1c2.1-2.1,2.1-5.5,0-7.6l0,0
					c-2.1-2.1-5.5-2.1-7.6,0l-9.1,9.1C224.2,270.3,224.2,273.7,226.3,275.8z"/>
				<path class="st34" d="M228.8,247.2v18.2c0,2.7,2.2,5,4.9,5l0,0c2.8,0,5-2.2,5-5v-18.2c0-2.7-2.3-5-5-4.9l0,0
					C231,242.3,228.8,244.5,228.8,247.2z"/>
				<path class="st34" d="M235.7,248.2v16.3c0,2.5,2,4.5,4.5,4.5l0,0c2.5,0,4.5-2,4.5-4.5v-16.3c0-2.5-2-4.5-4.5-4.5l0,0
					C237.7,243.7,235.7,245.7,235.7,248.2z"/>
				<path class="st34" d="M222.3,264.1L222.3,264.1c0.6,0.3,1.3,0,1.6-0.5c0,0,0,0,0,0l2.6-5.3c0.3-0.6,0-1.3-0.6-1.6l0,0
					c-0.6-0.3-1.3,0-1.6,0.5l-2.6,5.3C221.5,263.1,221.7,263.8,222.3,264.1z"/>
				<path class="st34" d="M222.3,246.8L222.3,246.8c0.5-0.2,1.1,0,1.3,0.4l1.6,3.3c0.2,0.5,0,1.1-0.5,1.3l0,0
					c-0.5,0.2-1.1,0-1.3-0.4l-1.6-3.3C221.6,247.6,221.8,247,222.3,246.8z"/>
				<path class="st29" d="M218.3,254.2c0,0.8-0.6,1.4-1.4,1.4v-2.8C217.7,252.8,218.3,253.4,218.3,254.2z"/>
				<path class="st22" d="M200.9,247.9c0.2,0.4,0.5,0.8,0.7,1.3c-5.2,2.8-7.1,9.2-4.3,14.4c1,1.8,2.5,3.3,4.3,4.3
					c-0.5,0.9-1,1.8-1.7,2.7v0.1c-1.4-2.7-4.8-3.8-7.5-2.4c-2.7,1.4-3.8,4.8-2.3,7.5h-52.4v-34.5h52
					C194.2,241.3,198.5,243.9,200.9,247.9z"/>
				<path class="st15" d="M194.9,267.6c2.1,0,4,1.2,4.9,3c-2.4,3.1-6,5-9.9,5.2c-1.4-2.7-0.4-6.1,2.3-7.5
					C193.1,267.9,194,267.6,194.9,267.6L194.9,267.6z"/>
				<path class="st26" d="M159.5,240.9V275c0,1.4,1.1,2.6,2.6,2.6l0,0c1.4,0,2.6-1.1,2.6-2.6v-34.1c0-1.4-1.2-2.6-2.6-2.6l0,0
					C160.7,238.4,159.5,239.5,159.5,240.9C159.5,240.9,159.5,240.9,159.5,240.9z"/>
				<path class="st34" d="M204.5,269.4L204.5,269.4c0,2.1,1.7,3.8,3.8,3.8h18.8c2.1,0,3.8-1.7,3.8-3.8l0,0c0-2.1-1.7-3.8-3.8-3.8
					h-18.8C206.3,265.5,204.5,267.3,204.5,269.4z"/>
				<circle class="st15" cx="217.7" cy="267.4" r="4"/>
				<path class="st29" d="M217.7,265c-1.4,0-2.5,1.1-2.5,2.5c0,1.4,1.1,2.5,2.5,2.5c1.4,0,2.5-1.1,2.5-2.5l0,0
					C220.2,266.1,219.1,265,217.7,265z"/>
				<path class="st35" d="M142,273.2L142,273.2c0,3,2.4,5.4,5.4,5.4h44.3c3,0,5.4-2.4,5.4-5.4l0,0c0-3-2.4-5.4-5.4-5.4h-44.3
					C144.4,267.8,142,270.2,142,273.2z"/>
				<path class="st17" d="M95.4,301.8h12.5c0.8,0,1.4,0.6,1.4,1.4v0.9c0,0.8-0.6,1.4-1.4,1.4H95.4c-0.8,0-1.4-0.6-1.4-1.4v-0.9
					C94,302.4,94.6,301.8,95.4,301.8z"/>
				<rect x="99.2" y="199.2" class="st20" width="5.6" height="14.7"/>
				<rect x="95.9" y="212.7" class="st21" width="12.3" height="2.3"/>
				<rect x="99.2" y="215" class="st22" width="5.6" height="88.8"/>
			</g>
		</g>
	</g>
</g>
</svg>
