<?xml version="1.0" encoding="utf-8"?>
<!-- Generator: Adobe Illustrator 25.2.3, SVG Export Plug-In . SVG Version: 6.00 Build 0)  -->
<svg version="1.1" id="Layer_1" xmlns="http://www.w3.org/2000/svg" xmlns:xlink="http://www.w3.org/1999/xlink" x="0px" y="0px"
	 viewBox="0 0 234.3 380" style="enable-background:new 0 0 234.3 380;" xml:space="preserve">
<style type="text/css">
	.st0{fill:#F4B155;}
	.st1{fill:#FFF0CC;}
	.st2{fill:#231F20;}
	.st3{clip-path:url(#SVGID_2_);}
	.st4{fill:#7FD0DE;}
	.st5{fill:#D1D3D4;}
	.st6{fill:#E6E7E8;}
	.st7{fill:#4A355B;}
	.st8{fill:#E4705E;}
	.st9{fill:#FFD150;}
	.st10{fill:#F4B055;}
	.st11{fill:#58595B;}
	.st12{fill:#414042;}
	.st13{fill:#FFFFFF;}
	.st14{fill:#5BC4B8;}
	.st15{fill:#FFD351;}
	.st16{fill:none;}
	.st17{fill:#A4F6FF;}
	.st18{fill:#3F272D;}
	.st19{fill:#54323A;}
	.st20{fill:#F1F2F2;}
	.st21{fill:#426FB7;}
	.st22{fill:#EE915B;}
	.st23{fill:#498FC9;}
	.st24{fill:#F2F2F2;}
</style>
<g id="Layer_2_1_">
	<g id="Layer_1-2">
		<path class="st0" d="M234.3,14.4v351.1c-0.1,8.1-6.8,14.6-14.9,14.5c0,0,0,0,0,0H14.9c-8.1,0.1-14.8-6.3-14.9-14.5c0,0,0,0,0,0
			V14.4C0,6.5,6.7,0,14.9,0h204.4C227.6,0,234.3,6.5,234.3,14.4z M221.7,357.2V22.8c0-5.9-4.8-10.8-10.8-10.8H23.3
			c-5.9,0-10.8,4.8-10.8,10.8v334.4c0,6,4.8,10.8,10.8,10.8c0,0,0,0,0,0h187.6C216.9,368,221.7,363.2,221.7,357.2
			C221.7,357.2,221.7,357.2,221.7,357.2z"/>
		<path class="st1" d="M23.3,12h187.6c6,0,10.8,4.8,10.8,10.8v334.4c0,6-4.8,10.8-10.8,10.8H23.3c-6,0-10.8-4.8-10.8-10.8V22.8
			C12.6,16.8,17.4,12,23.3,12z"/>
		<path class="st2" d="M37,339.8c-0.1-0.1-0.2-0.3-0.2-0.5v-11c0-0.2,0-0.4,0.2-0.5c0.1-0.1,0.3-0.2,0.5-0.2h4.6
			c1.2-0.1,2.4,0.3,3.3,1.1c0.7,0.8,1.1,1.9,1.1,3c0.1,1.1-0.3,2.2-1.1,3c-0.9,0.8-2.1,1.1-3.3,1h-3v3.5c0,0.2,0,0.4-0.2,0.5
			c-0.1,0.1-0.3,0.2-0.5,0.2h-1C37.3,339.9,37.2,339.8,37,339.8z M42,334c0.6,0,1.2-0.2,1.6-0.6c0.4-0.5,0.6-1.1,0.5-1.7
			c0-0.6-0.1-1.3-0.5-1.8c-0.4-0.4-1-0.6-1.6-0.6h-2.8v4.6H42z"/>
		<path class="st2" d="M45.8,339.6c0-0.1,0-0.2,0.1-0.2l4.8-11.3c0.1-0.1,0.1-0.3,0.2-0.4c0.1-0.1,0.2-0.1,0.4-0.1h1
			c0.1,0,0.3,0,0.4,0.1c0.1,0.1,0.2,0.2,0.2,0.4l4.8,11.3c0,0.1,0.1,0.1,0.1,0.2c0,0.2-0.1,0.3-0.3,0.3h-1.6c-0.1,0-0.2,0-0.3-0.1
			c-0.1-0.1-0.2-0.2-0.2-0.3l-1-2.5h-5l-1,2.5c0,0.1-0.1,0.2-0.2,0.3c-0.1,0.1-0.2,0.1-0.3,0.1h-1.6
			C45.9,339.9,45.8,339.8,45.8,339.6z M53.7,335.4l-1.9-4.7l-1.9,4.7H53.7z"/>
		<path class="st2" d="M60.8,338.5c-2.2-2.8-2.2-6.7,0-9.5c1.3-1.2,3-1.8,4.7-1.7c0.8,0,1.5,0.1,2.3,0.2c0.6,0.1,1.2,0.4,1.8,0.7
			c0.1,0,0.1,0.1,0.2,0.2c0,0.1,0,0.2-0.1,0.2l-0.5,0.9c-0.1,0.1-0.2,0.2-0.2,0.2c-0.1,0-0.2,0-0.2-0.1c-0.9-0.5-1.9-0.7-2.9-0.7
			c-1.2-0.1-2.4,0.4-3.2,1.2c-0.9,1-1.3,2.2-1.2,3.5c-0.1,1.3,0.3,2.6,1.1,3.5c0.8,0.8,2,1.2,3.1,1.2c0.5,0,0.9,0,1.4-0.1
			c0.4-0.1,0.8-0.2,1.1-0.3v-3.4h-2.4c-0.2,0-0.4,0-0.5-0.2c-0.1-0.1-0.2-0.3-0.2-0.5v-0.5c0-0.2,0-0.3,0.2-0.5
			c0.1-0.1,0.3-0.2,0.5-0.1h3.8c0.2,0,0.4,0,0.6,0.2c0.1,0.2,0.2,0.4,0.2,0.6v4.8c0,0.1,0,0.3,0,0.4c-0.1,0.1-0.1,0.2-0.2,0.2
			c-1.4,0.8-2.9,1.1-4.5,1C63.8,340.3,62.1,339.7,60.8,338.5z"/>
		<path class="st2" d="M72.3,339.8c-0.1-0.1-0.2-0.3-0.2-0.5v-11c0-0.2,0-0.4,0.2-0.5c0.1-0.1,0.3-0.2,0.5-0.2h7.5
			c0.2,0,0.4,0,0.5,0.1c0.1,0.1,0.2,0.3,0.1,0.5v0.5c0,0.2,0,0.4-0.1,0.5c-0.1,0.1-0.3,0.2-0.5,0.1h-5.9v3.5h4.3
			c0.2,0,0.4,0,0.5,0.1c0.1,0.1,0.2,0.3,0.1,0.5v0.5c0,0.2,0,0.4-0.1,0.5c-0.1,0.1-0.3,0.2-0.5,0.1h-4.3v3.5h5.9
			c0.2,0,0.4,0,0.5,0.1c0.1,0.1,0.2,0.3,0.2,0.5v0.5c0,0.2,0,0.3-0.2,0.5c-0.1,0.1-0.3,0.2-0.5,0.1h-7.5
			C72.6,340,72.4,339.9,72.3,339.8z"/>
		<path class="st2" d="M90.8,338.5c-2.1-2.8-2.1-6.7,0-9.5c2.6-2.2,6.5-2.2,9.2,0c2.1,2.8,2.1,6.7,0,9.5
			C97.4,340.8,93.5,340.8,90.8,338.5z M98.3,337.3c1.3-2.2,1.3-4.8,0-7c-1.6-1.6-4.2-1.6-5.8,0c-1.3,2.1-1.3,4.9,0,7
			C94.1,338.9,96.7,338.9,98.3,337.3C98.3,337.3,98.3,337.3,98.3,337.3z"/>
		<path class="st2" d="M103.5,339.8c-0.1-0.1-0.2-0.3-0.2-0.5v-11c0-0.2,0-0.4,0.2-0.5c0.1-0.1,0.3-0.2,0.5-0.2h7.5
			c0.2,0,0.4,0,0.5,0.1c0.1,0.1,0.1,0.3,0.1,0.5v0.5c0,0.2,0,0.4-0.1,0.5c-0.1,0.1-0.3,0.2-0.5,0.1h-5.9v3.5h4.3
			c0.2,0,0.4,0,0.5,0.1c0.1,0.1,0.2,0.3,0.1,0.5v0.5c0,0.2,0,0.4-0.1,0.5c-0.1,0.1-0.3,0.2-0.5,0.1h-4.3v4.6c0,0.2,0,0.4-0.2,0.5
			c-0.1,0.1-0.3,0.2-0.5,0.2h-1C103.9,339.9,103.7,339.9,103.5,339.8z"/>
		<path class="st2" d="M122.8,339.9c-0.8-0.2-1.5-0.4-2.2-0.9c-0.2-0.1-0.2-0.2-0.2-0.3c0-0.1,0-0.2,0.1-0.2l0.6-1
			c0.1-0.1,0.2-0.2,0.2-0.2c0.1,0,0.2,0,0.2,0.1c0.5,0.3,1.1,0.5,1.7,0.7c0.6,0.2,1.3,0.3,1.9,0.3c0.7,0,1.4-0.1,2-0.4
			c0.7-0.6,0.9-1.6,0.4-2.4c-0.2-0.3-0.4-0.5-0.7-0.6c-0.5-0.3-1-0.5-1.6-0.7l-0.4-0.2c-0.7-0.3-1.4-0.6-2.1-1
			c-0.5-0.3-1-0.7-1.4-1.2c-0.4-0.5-0.6-1.2-0.6-1.9c-0.1-1.1,0.5-2.1,1.4-2.8c1.1-0.7,2.3-1.1,3.6-1c0.8,0,1.6,0.1,2.3,0.2
			c0.6,0.2,1.2,0.4,1.7,0.8c0.1,0.1,0.2,0.2,0.2,0.3c0,0.1,0,0.2-0.1,0.2l-0.6,1c-0.1,0.1-0.1,0.2-0.2,0.2c-0.1,0-0.2-0.1-0.2-0.1
			c-0.9-0.6-2-0.8-3.1-0.8c-0.7,0-1.3,0.1-1.9,0.5c-0.4,0.3-0.7,0.9-0.6,1.4c0,0.4,0.1,0.7,0.3,1c0.2,0.3,0.5,0.5,0.8,0.6
			c0.3,0.2,0.9,0.4,1.7,0.7l0.5,0.2c0.8,0.3,1.5,0.6,2.2,1c0.5,0.3,0.9,0.7,1.2,1.2c0.3,0.6,0.5,1.2,0.4,1.8c0,1-0.4,2-1.3,2.6
			c-1.1,0.7-2.3,1.1-3.6,1C124.6,340.2,123.7,340.1,122.8,339.9z"/>
		<path class="st2" d="M135.2,339.8c-0.1-0.1-0.2-0.2-0.2-0.4l-3.1-12.4c0-0.1,0-0.1,0-0.2c0-0.2,0.1-0.3,0.4-0.3h1.6
			c0.1,0,0.3,0,0.4,0.1c0.1,0.1,0.1,0.2,0.2,0.3l2,8.6l2.4-7.6c0-0.1,0.1-0.2,0.2-0.3c0.1-0.1,0.2-0.1,0.4-0.1h0.9
			c0.1,0,0.3,0,0.4,0.1c0.1,0.1,0.2,0.2,0.2,0.3l2.4,7.6l1.9-8.6c0-0.1,0.1-0.2,0.2-0.3c0.1-0.1,0.3-0.1,0.4-0.1h1.6
			c0.2,0,0.4,0.1,0.4,0.3c0,0.1,0,0.1,0,0.2l-3.1,12.4c0,0.1-0.1,0.3-0.2,0.4c-0.1,0.1-0.3,0.1-0.4,0.1h-1c-0.2,0-0.3,0-0.4-0.1
			c-0.1-0.1-0.2-0.2-0.2-0.4l-2.4-7.8l-2.4,7.8c0,0.3-0.3,0.5-0.6,0.5h-1.1C135.6,340,135.4,339.9,135.2,339.8z"/>
		<path class="st2" d="M149.6,338.4c-2.3-3-2.3-7.2,0-10.3c2.9-2.4,7.1-2.4,9.9,0c2.3,3,2.3,7.2,0,10.3
			C156.7,340.8,152.5,340.8,149.6,338.4z M157.7,337.1c1.4-2.3,1.4-5.3,0-7.6c-1.7-1.7-4.5-1.7-6.3,0c-1.5,2.3-1.5,5.3,0,7.6
			C153.2,338.8,156,338.8,157.7,337.1C157.7,337.1,157.7,337.1,157.7,337.1z"/>
		<path class="st2" d="M163.4,339.7c-0.1-0.1-0.2-0.3-0.2-0.5v-11.9c0-0.2,0-0.4,0.2-0.5c0.2-0.1,0.4-0.2,0.6-0.2h5.1
			c1.2-0.1,2.5,0.3,3.5,1.1c0.8,0.8,1.3,2,1.2,3.1c0,0.8-0.2,1.6-0.6,2.3c-0.5,0.7-1.1,1.2-1.9,1.5l2.2,4.8c0,0.1,0.1,0.1,0.1,0.2
			c0,0.2-0.1,0.3-0.4,0.3h-1.6c-0.1,0-0.3,0-0.4-0.1c-0.1-0.1-0.2-0.2-0.2-0.3l-2-4.6h-3.1v4.3c0,0.2,0,0.4-0.2,0.5
			c-0.2,0.1-0.4,0.2-0.6,0.2h-1C163.7,339.9,163.5,339.9,163.4,339.7z M168.5,333c0.7,0.1,1.4-0.1,2-0.5c0.5-0.4,0.7-1.1,0.6-1.7
			c0.1-0.6-0.2-1.3-0.6-1.7c-0.5-0.4-1.1-0.6-1.8-0.5h-3.1v4.5L168.5,333z"/>
		<path class="st2" d="M175.7,339.7c-0.1-0.1-0.2-0.3-0.2-0.5v-11.9c0-0.2,0-0.4,0.2-0.5c0.2-0.1,0.4-0.2,0.6-0.2h3.9
			c1.8-0.1,3.6,0.4,5.1,1.6c1.2,1.1,1.7,2.8,1.8,5.1c0,4.4-2.3,6.7-6.8,6.7h-3.9C176.1,339.9,175.9,339.9,175.7,339.7z M180.4,338
			c1.1,0.1,2.3-0.3,3.1-1.1c1.4-2.3,1.4-5.1,0-7.4c-0.9-0.8-2-1.2-3.1-1.1h-2.3v9.5L180.4,338z"/>
		<path class="st2" d="M190.1,339.9c-0.8-0.2-1.5-0.4-2.1-0.9c-0.2-0.1-0.2-0.2-0.2-0.3c0-0.1,0-0.2,0.1-0.2l0.6-1
			c0.1-0.1,0.1-0.2,0.2-0.2c0.1,0,0.2,0,0.2,0.1c0.5,0.3,1.1,0.5,1.7,0.7c0.6,0.2,1.3,0.3,1.9,0.3c0.7,0,1.4-0.1,2-0.4
			c0.7-0.6,0.9-1.6,0.4-2.4c-0.2-0.3-0.4-0.5-0.7-0.6c-0.5-0.3-1-0.5-1.6-0.7l-0.4-0.2c-0.7-0.3-1.4-0.6-2.1-1
			c-0.5-0.3-1-0.7-1.4-1.2c-0.4-0.5-0.6-1.2-0.6-1.9c-0.1-1.1,0.5-2.1,1.4-2.8c1.1-0.7,2.3-1.1,3.6-1c0.8,0,1.6,0.1,2.3,0.2
			c0.6,0.2,1.2,0.4,1.7,0.8c0.1,0.1,0.2,0.2,0.2,0.3c0,0.1,0,0.2-0.1,0.2l-0.6,1c-0.1,0.1-0.1,0.2-0.2,0.2c-0.1,0-0.2-0.1-0.3-0.1
			c-0.9-0.6-2-0.8-3.1-0.8c-0.7,0-1.3,0.1-1.9,0.5c-0.4,0.3-0.7,0.9-0.6,1.4c0,0.4,0.1,0.7,0.3,1c0.2,0.3,0.5,0.5,0.8,0.6
			c0.3,0.2,0.9,0.4,1.6,0.7l0.5,0.2c0.8,0.3,1.5,0.6,2.2,1c0.5,0.3,0.9,0.7,1.2,1.2c0.3,0.6,0.5,1.2,0.4,1.8c0,1-0.4,2-1.3,2.6
			c-1.1,0.7-2.3,1.1-3.6,1C191.9,340.2,191,340.1,190.1,339.9z"/>
		<g>
			<defs>
				<path id="SVGID_1_" d="M73.6,284.8H52.9c-13.6,0-24.7-11.1-24.7-24.7V68.4c0-13.6,11.1-24.7,24.7-24.7h128.6
					c13.6,0,24.7,11.1,24.7,24.7v191.7c0,13.6-11.1,24.7-24.7,24.7H73.6"/>
			</defs>
			<clipPath id="SVGID_2_">
				<use xlink:href="#SVGID_1_"  style="overflow:visible;"/>
			</clipPath>
			<g class="st3">
				<polygon class="st4" points="196.1,26.6 39.7,26.6 39.7,192.1 39.7,211.2 39.7,302 196.1,302 196.1,211.2 196.1,211.2 				"/>
				<polygon class="st5" points="39.7,260.8 56.4,249.9 84.6,256.8 103.8,240.5 136.3,253.3 157,244.2 196.1,262.5 196.1,302 
					39.7,302 				"/>
				<polygon class="st6" points="38.5,276 78.2,251.5 109.1,266.9 139.3,246.2 172.2,262.5 196.1,249.9 196.1,302 39.7,302 				"/>
				<path class="st5" d="M147.2,187.5c-0.1-4.8-2-9.4-5.2-12.9c4.7-11.4-0.7-24.4-12.1-29.1c-10.1-4.2-21.8-0.4-27.5,8.9
					c-4.3-5.2-12.1-5.8-17.2-1.5c-0.1,0.1-0.2,0.2-0.3,0.3c-7.1-10.1-20.9-12.6-31-5.5c-6.2,4.3-9.7,11.4-9.5,19c0,0.2,0,0.4,0,0.6
					c-10.1,7-12.6,20.9-5.6,31c7,10.1,20.9,12.6,31,5.6c2-1.4,3.8-3.1,5.3-5.1c5.9,9.7,18.5,12.9,28.3,7c2.7-1.6,5-3.9,6.7-6.6
					c6.1,9.4,18.7,12,28,5.9C143.9,201.2,147.4,194.6,147.2,187.5L147.2,187.5z"/>
				<path class="st7" d="M77.4,140.7c0,0-25.1,17.8-36.7,56.3c0,0,12.1-0.1,12.1,6.2c0,0,15.3,12.4,22.6,3.4c0,0,9.6-4.4,11.5-1.1
					l6-24.4L77.4,140.7z"/>
				<path class="st8" d="M74.2,111.3h28.2l0,0v14.3c0,4.4-3.6,8-8,8h0H82.2c-4.4,0-8-3.6-8-8L74.2,111.3L74.2,111.3z"/>
				<circle class="st9" cx="100.2" cy="123.4" r="2.5"/>
				<path class="st10" d="M101.7,123.4c0,0.8-0.7,1.5-1.5,1.5c-0.8,0-1.5-0.7-1.5-1.5c0-0.8,0.7-1.5,1.5-1.5c0,0,0,0,0,0
					C101,121.9,101.7,122.6,101.7,123.4z"/>
				<path class="st9" d="M88.8,131.3h0.4c1.4,0,2.6,1.1,2.6,2.6v4.8c0,1.4-1.1,2.6-2.6,2.6h-0.4c-1.4,0-2.6-1.1-2.6-2.6v-4.8
					C86.3,132.4,87.4,131.3,88.8,131.3z"/>
				<path class="st9" d="M89.4,136.4l-1.8-0.1c-5.9-0.3-10.5-5.3-10.2-11.3l0.7-13.4c0.3-5.9,5.3-10.5,11.3-10.2l1.8,0.1
					c5.9,0.3,10.5,5.3,10.2,11.3l-0.7,13.4C100.3,132.1,95.3,136.7,89.4,136.4z"/>
				<path class="st9" d="M88.9,144.3c3.7,0,7.1-2,8.8-5.3c-2.3-1.1-4.8-1.7-7.3-1.7h-3c-2.6,0-5.1,0.6-7.4,1.7
					C81.7,142.3,85.2,144.4,88.9,144.3z"/>
				<path class="st8" d="M88.1,99.7l0.6,0.6c1.8,1.8,1.8,4.8,0,6.6l-9.1,9.1c-1.8,1.8-4.8,1.8-6.6,0l-0.6-0.6
					c-1.8-1.8-1.8-4.8,0-6.6l9.1-9.1C83.3,97.8,86.2,97.8,88.1,99.7z"/>
				<path class="st8" d="M82,104h17.9c2.4,0,4.3,1.9,4.3,4.3v0.7c0,2.4-1.9,4.3-4.3,4.3H82c-2.4,0-4.3-1.9-4.3-4.3v-0.7
					C77.7,105.9,79.6,104,82,104z"/>
				<path class="st8" d="M82.9,98.3H99c2.2,0,3.9,1.8,3.9,3.9v0.7c0,2.2-1.8,3.9-3.9,3.9H82.9c-2.2,0-3.9-1.8-3.9-3.9v-0.7
					C79,100.1,80.8,98.3,82.9,98.3z"/>
				<path class="st8" d="M90.5,116l0.1,0.2c0.2,0.5,0,1.1-0.5,1.4L85,120c-0.5,0.2-1.1,0-1.4-0.5l-0.1-0.2c-0.2-0.5,0-1.1,0.5-1.4
					l5.2-2.5C89.7,115.3,90.3,115.5,90.5,116z"/>
				<path class="st8" d="M100,119.4l-0.1,0.1c-0.2,0.4-0.7,0.6-1.1,0.4l-3.3-1.6c-0.4-0.2-0.6-0.7-0.4-1.1l0.1-0.1
					c0.2-0.4,0.7-0.6,1.1-0.4l3.3,1.6C100,118.5,100.2,119,100,119.4z"/>
				<path class="st7" d="M97.2,123.3H97c-0.4,0-0.7-0.3-0.7-0.7v-1.5c0-0.4,0.3-0.7,0.7-0.7h0.1c0.4,0,0.7,0.3,0.7,0.7v1.5
					C97.9,123,97.5,123.3,97.2,123.3z"/>
				<path class="st7" d="M88.9,123.3h-0.2c-0.5,0-1-0.4-1-1v-1.9c0-0.5,0.4-1,1-1h0.2c0.5,0,1,0.4,1,1v1.9
					C89.9,122.9,89.5,123.3,88.9,123.3z"/>
				<path class="st10" d="M93,123.3c-0.7,0-1.3,0.6-1.3,1.3c0,0,0,0,0,0h2.6C94.3,123.9,93.7,123.3,93,123.3z"/>
				<path class="st11" d="M98.9,139.7c-0.4-0.2-0.8-0.5-1.2-0.7c-2.6,4.9-8.6,6.8-13.5,4.2c-1.8-0.9-3.3-2.4-4.2-4.2
					c-0.9,0.4-1.7,1-2.5,1.6v0.1c2.6,1.3,3.6,4.5,2.2,7.1c-0.9,1.8-2.7,2.9-4.7,2.8c-0.8,0-1.7-0.2-2.4-0.6c0,0.1,0,0.2,0,0.4v49.1
					h32.6v-49.1C105.1,146,102.7,141.9,98.9,139.7z"/>
				<path class="st9" d="M80.3,145.4c0-2-1.1-3.8-2.8-4.7c-2.9,2.2-4.7,5.6-4.9,9.3c2.6,1.3,5.7,0.4,7.1-2.2
					C80.1,147,80.3,146.2,80.3,145.4z"/>
				<path class="st12" d="M73.1,173.9h32.6c1.2,0,2.2,1,2.2,2.2v0.4c0,1.2-1,2.2-2.2,2.2H73.1c-1.2,0-2.2-1-2.2-2.2v-0.4
					C70.9,174.9,71.9,173.9,73.1,173.9z"/>
				<path class="st8" d="M78.3,111.3h0.6c1.8,0,3.3,1.5,3.3,3.3v18.3c0,1.8-1.5,3.3-3.3,3.3h-0.6c-1.8,0-3.3-1.5-3.3-3.3v-18.3
					C75,112.8,76.5,111.3,78.3,111.3z"/>
				<path class="st9" d="M84.3,123.8c0,2.1-1.7,3.8-3.8,3.8s-3.8-1.7-3.8-3.8c0-2.1,1.7-3.8,3.8-3.8S84.3,121.7,84.3,123.8
					L84.3,123.8z"/>
				<path class="st10" d="M82.8,123.8c0,1.3-1,2.3-2.3,2.3s-2.3-1-2.3-2.3s1-2.3,2.3-2.3l0,0C81.8,121.5,82.8,122.5,82.8,123.8z"/>
				<path class="st11" d="M80.3,177.5h39.8c6.6,0,11.9,5.3,11.9,11.9v2c0,6.6-5.3,11.9-11.9,11.9H80.3c-6.6,0-11.9-5.3-11.9-11.9v-2
					C68.4,182.8,73.7,177.5,80.3,177.5z"/>
				<path class="st8" d="M95.4,127.3c0,0.7-0.5,1.2-1.1,1.4c0.1,0,0.2,0,0.3,0c0.8,0,1.4-0.6,1.4-1.4c0-0.8-0.6-1.4-1.4-1.4
					c-0.1,0-0.2,0-0.3,0C94.9,126,95.4,126.7,95.4,127.3z"/>
				<path class="st8" d="M95.4,130.1c0,0.7-0.5,1.2-1.1,1.4c0.1,0,0.2,0,0.3,0c0.8,0,1.4-0.6,1.4-1.4s-0.6-1.4-1.4-1.4
					c-0.1,0-0.2,0-0.3,0C95,128.8,95.4,129.4,95.4,130.1z"/>
				<path class="st13" d="M158.6,190.6c0-12.4-10.1-22.5-22.5-22.5c-10.6,0-19.8,7.4-22,17.7c-5.4,0.3-10.5,2.5-14.3,6.2
					c-5.9-7.2-15.6-10-24.5-7.1c-6.9-10.4-20.9-13.2-31.2-6.3s-13.2,20.9-6.3,31.2c5.6,8.5,16.2,12.1,25.8,8.9
					c6.9,10.4,20.9,13.2,31.2,6.3c1.1-0.7,2.1-1.5,3-2.4c7.9,9.6,22.1,11,31.7,3.1c3.9-3.2,6.6-7.7,7.7-12.6
					C149.2,212.6,158.7,202.7,158.6,190.6z"/>
				<path class="st6" d="M97.6,128l-0.5,0.2C97.1,128.2,97.3,128.1,97.6,128z"/>
				<path class="st6" d="M178.2,74.7c-1-8.3-8.4-14.2-16.7-13.2c-4.1,0.5-7.8,2.6-10.3,5.9c-7.5-6.7-18.9-6-25.6,1.4
					c-3,3.4-4.6,7.7-4.6,12.2c0,1,0.1,2,0.3,3h-0.3c-8.3,0-15.1,6.8-15,15.1c0,4.6,2.2,9,5.8,11.9c-4,12.5-12.3,16.2-14.3,17
					c3.5-1.1,25.3-8,36.3-4.1l0,0c8.7,8.6,22.7,8.6,31.3-0.1c1.9-1.9,3.4-4.1,4.5-6.5c11.3,4.7,24.2-0.7,28.9-12s-0.7-24.2-12-28.9
					C183.9,75.3,181.1,74.7,178.2,74.7L178.2,74.7z"/>
				
					<rect x="105.2" y="155.9" transform="matrix(0.583 -0.8125 0.8125 0.583 -81.2851 157.4538)" class="st7" width="15" height="3.9"/>
				
					<rect x="113.5" y="151.4" transform="matrix(0.583 -0.8125 0.8125 0.583 -78.8137 157.766)" class="st14" width="1.6" height="8.6"/>
				<polygon class="st13" points="155.4,98.5 149.4,103.4 113.2,153.9 116.4,156.2 152.6,105.7 				"/>
				<path class="st15" d="M109.8,171.4c-16.4,0-28.1-3.8-34.9-11.4c-4-4.2-6.1-9.9-5.8-15.6l14.1,1.4c0-0.1,0-0.1,0-0.2
					c0.1,2,1,3.8,2.4,5.2c4,4.1,12.6,6.4,24.1,6.4c3.9-0.1,7.2,2.9,7.4,6.8c0.1,3.9-2.9,7.2-6.8,7.4
					C110.1,171.4,110,171.4,109.8,171.4L109.8,171.4z"/>
				<polygon class="st16" points="196.1,26.6 39.7,26.6 39.7,192.1 39.7,211.2 39.7,302 196.1,302 196.1,211.2 196.1,211.2 				"/>
				<polygon class="st17" points="210.2,26.6 25.9,26.6 25.9,192.1 25.9,211.2 25.9,302 210.1,302 210.1,211.2 210.2,211.2 				"/>
				<polygon class="st18" points="25.9,260.8 45.5,249.9 78.8,256.8 104.2,247.7 139.7,253.3 177.5,249.6 210.2,262.5 210.2,302 
					25.9,302 				"/>
				<path class="st13" d="M87.3,120.3l-27.7-0.3c-2,0-3.6-1.6-3.5-3.6l0,0c0-2,1.6-3.6,3.6-3.5l27.7,0.3c2,0,3.6,1.6,3.5,3.6l0,0
					C90.9,118.7,89.3,120.3,87.3,120.3z"/>
				<path class="st13" d="M78.9,111.3c-0.1,4.9-4.1,8.8-9,8.8s-8.8-4.1-8.8-9c0.1-4.9,4.1-8.8,9-8.8C75,102.3,79,106.4,78.9,111.3z"
					/>
				<circle class="st13" cx="79.8" cy="113.8" r="6.3"/>
				<polygon class="st19" points="24.4,276 71.2,251.5 107.6,266.9 143.2,246.2 182,262.5 210.2,249.9 210.2,302 25.9,302 				"/>
				<path class="st20" d="M137.3,193.8c-0.1-4.3-1.8-8.4-4.7-11.6c4.2-10.2-0.7-21.8-10.8-26c-9-3.7-19.5-0.3-24.6,8
					c-3.9-4.6-10.8-5.2-15.4-1.4c-0.1,0.1-0.2,0.2-0.3,0.3c-6.3-9-18.7-11.2-27.7-4.9c-5.5,3.8-8.7,10.2-8.5,16.9c0,0.2,0,0.4,0,0.6
					c-9,6.3-11.2,18.8-4.8,27.8s18.8,11.2,27.8,4.8c1.8-1.2,3.3-2.7,4.6-4.5c5.2,8.7,16.5,11.5,25.2,6.3c2.5-1.5,4.5-3.5,6.1-5.9
					c5.4,8.4,16.6,10.7,25,5.3C134.4,206.1,137.5,200.2,137.3,193.8L137.3,193.8z"/>
				<path class="st21" d="M77.4,140.7c0,0-25.1,17.8-36.7,56.3c0,0,12.1-0.1,12.1,6.2c0,0,15.3,12.4,22.6,3.4c0,0,9.6-4.4,11.5-1.1
					l6-24.4L77.4,140.7z"/>
				<circle class="st9" cx="100.2" cy="123.4" r="2.5"/>
				<path class="st10" d="M101.7,123.4c0,0.8-0.7,1.5-1.5,1.5c-0.8,0-1.5-0.7-1.5-1.5c0-0.8,0.7-1.5,1.5-1.5c0,0,0,0,0,0
					C101,121.9,101.7,122.6,101.7,123.4z"/>
				<path class="st9" d="M88.8,131.3h0.4c1.4,0,2.6,1.1,2.6,2.6v4.8c0,1.4-1.1,2.6-2.6,2.6h-0.4c-1.4,0-2.6-1.1-2.6-2.6v-4.8
					C86.3,132.4,87.4,131.3,88.8,131.3z"/>
				<path class="st9" d="M89.4,136.4l-1.8-0.1c-5.9-0.3-10.5-5.3-10.2-11.3l0.7-13.4c0.3-5.9,5.3-10.5,11.3-10.2l1.8,0.1
					c5.9,0.3,10.5,5.3,10.2,11.3l-0.7,13.4C100.3,132.1,95.3,136.7,89.4,136.4z"/>
				<path class="st9" d="M88.9,144.3c3.7,0,7.1-2,8.8-5.3c-2.3-1.1-4.8-1.7-7.3-1.7h-3c-2.6,0-5.1,0.6-7.4,1.7
					C81.7,142.3,85.2,144.4,88.9,144.3z"/>
				<path class="st22" d="M90.5,116l0.1,0.2c0.2,0.5,0,1.1-0.5,1.4L85,120c-0.5,0.2-1.1,0-1.4-0.5l-0.1-0.2c-0.2-0.5,0-1.1,0.5-1.4
					l5.2-2.5C89.7,115.3,90.3,115.5,90.5,116z"/>
				<path class="st22" d="M100.5,119.2l-0.1,0.1c-0.2,0.4-0.7,0.6-1.1,0.4l-3.3-1.6c-0.4-0.2-0.6-0.7-0.4-1.1l0.1-0.1
					c0.2-0.4,0.7-0.6,1.1-0.4l3.3,1.6C100.5,118.2,100.7,118.7,100.5,119.2z"/>
				<path class="st7" d="M97.2,123.3H97c-0.4,0-0.7-0.3-0.7-0.7v-1.5c0-0.4,0.3-0.7,0.7-0.7h0.1c0.4,0,0.7,0.3,0.7,0.7v1.5
					C97.9,123,97.5,123.3,97.2,123.3z"/>
				<path class="st7" d="M88.9,123.3h-0.2c-0.5,0-1-0.4-1-1v-1.9c0-0.5,0.4-1,1-1h0.2c0.5,0,1,0.4,1,1v1.9
					C89.9,122.9,89.5,123.3,88.9,123.3z"/>
				<path class="st10" d="M93,123.3c-0.7,0-1.3,0.6-1.3,1.3c0,0,0,0,0,0h2.6C94.3,123.9,93.7,123.3,93,123.3z"/>
				<path class="st23" d="M98.9,139.7c-0.4-0.2-0.8-0.5-1.2-0.7c-2.6,4.9-8.6,6.8-13.5,4.2c-1.8-0.9-3.3-2.4-4.2-4.2
					c-0.9,0.4-1.7,1-2.5,1.6v0.1c2.6,1.3,3.6,4.5,2.2,7.1c-0.9,1.8-2.7,2.9-4.7,2.8c-0.8,0-1.7-0.2-2.4-0.6c0,0.1,0,0.2,0,0.4v49.1
					h32.6v-49.1C105.1,146,102.7,141.9,98.9,139.7z"/>
				<path class="st9" d="M80.3,145.4c0-2-1.1-3.8-2.8-4.7c-2.9,2.2-4.7,5.6-4.9,9.3c2.6,1.3,5.7,0.4,7.1-2.2
					C80.1,147,80.3,146.2,80.3,145.4z"/>
				<path class="st23" d="M80.3,177.5h39.8c6.6,0,11.9,5.3,11.9,11.9v2c0,6.6-5.3,11.9-11.9,11.9H80.3c-6.6,0-11.9-5.3-11.9-11.9v-2
					C68.4,182.8,73.7,177.5,80.3,177.5z"/>
				<path class="st10" d="M95.4,127.3c0,0.7-0.5,1.2-1.1,1.4c0.1,0,0.2,0,0.3,0c0.8,0,1.4-0.6,1.4-1.4c0-0.8-0.6-1.4-1.4-1.4
					c-0.1,0-0.2,0-0.3,0C94.9,126,95.4,126.7,95.4,127.3z"/>
				<path class="st10" d="M95.4,130.1c0,0.7-0.5,1.2-1.1,1.4c0.1,0,0.2,0,0.3,0c0.8,0,1.4-0.6,1.4-1.4s-0.6-1.4-1.4-1.4
					c-0.1,0-0.2,0-0.3,0C95,128.8,95.4,129.4,95.4,130.1z"/>
				<path class="st13" d="M158.6,190.6c0-12.4-10.1-22.5-22.5-22.5c-10.6,0-19.8,7.4-22,17.7c-5.4,0.3-10.5,2.5-14.3,6.2
					c-5.9-7.2-15.6-10-24.5-7.1c-6.9-10.4-20.9-13.2-31.2-6.3s-13.2,20.9-6.3,31.2c5.6,8.5,16.2,12.1,25.8,8.9
					c6.9,10.4,20.9,13.2,31.2,6.3c1.1-0.7,2.1-1.5,3-2.4c7.9,9.6,22.1,11,31.7,3.1c3.9-3.2,6.6-7.7,7.7-12.6
					C149.2,212.6,158.7,202.7,158.6,190.6z"/>
				<path class="st6" d="M97.6,128l-0.5,0.2C97.1,128.2,97.3,128.1,97.6,128z"/>
				<path class="st24" d="M178.2,74.7c-1-8.3-8.4-14.2-16.7-13.2c-4.1,0.5-7.8,2.6-10.3,5.9c-7.5-6.7-18.9-6-25.6,1.4
					c-3,3.4-4.6,7.7-4.6,12.2c0,1,0.1,2,0.3,3h-0.3c-8.3,0-15.1,6.8-15,15.1c0,4.6,2.2,9,5.8,11.9c-4,12.5-12.3,16.2-14.3,17
					c3.5-1.1,25.3-8,36.3-4.1l0,0c8.7,8.6,22.7,8.6,31.3-0.1c1.9-1.9,3.4-4.1,4.5-6.5c11.3,4.7,24.2-0.7,28.9-12s-0.7-24.2-12-28.9
					C183.9,75.3,181.1,74.7,178.2,74.7L178.2,74.7z"/>
				
					<rect x="105.2" y="155.9" transform="matrix(0.583 -0.8125 0.8125 0.583 -81.2851 157.4538)" class="st7" width="15" height="3.9"/>
				
					<rect x="113.5" y="151.4" transform="matrix(0.583 -0.8125 0.8125 0.583 -78.8137 157.766)" class="st14" width="1.6" height="8.6"/>
				<polygon class="st13" points="155.4,98.5 149.4,103.4 113.2,153.9 116.4,156.2 152.6,105.7 				"/>
				<path class="st15" d="M109.8,159.7c-15.9,0-23-4-26.1-7.3c-1.4-1.4-2.4-3.2-2.8-5.1c1.3-2.4,0.4-5.5-2.1-6.8
					c-2.4-1.3-5.5-0.4-6.8,2.1c-0.4,0.8-0.6,1.6-0.6,2.5c0,0.5,0.1,0.9,0.2,1.4c0.3,4.4,2.1,8.6,5.1,11.8c6.3,7,17.4,10.5,33,10.5
					c2.5,0.2,4.7-1.6,4.9-4.1c0.2-2.5-1.6-4.7-4.1-4.9C110.3,159.7,110.1,159.7,109.8,159.7L109.8,159.7z"/>
				<polygon class="st16" points="196.1,26.6 39.7,26.6 39.7,192.1 39.7,211.2 39.7,302 196.1,302 196.1,211.2 196.1,211.2 				"/>
				<path class="st22" d="M81.8,121.2c0,0-1.9-9.4,10.8-9.4c3,0,6,0.4,8.9-0.1c0.6-0.1-1.3-4.3-1.5-4.6c-1.9-3.3-4.8-5.9-8.3-7.4
					c-4.1-1.7-7.8-0.2-11.9,0.3c-3.5,0.4-7,0.3-10.5-0.3c-9.7-1.6-6.5,8-14.5,8s10.5,5,14.8,5c0,0-10.7,1.7-11,1.7
					c0,0-5.9,1.3,2,2.4s1.1,5.6,11.9,2.5c0,0-12,6.8-2.5,5.7s5.1,2.3,1.7,8.3c-3.4,6,10.4-0.1,10.4-0.1S82.3,120.7,81.8,121.2z"/>
				<path class="st9" d="M84.3,123.8c0,2.1-1.7,3.8-3.8,3.8s-3.8-1.7-3.8-3.8c0-2.1,1.7-3.8,3.8-3.8S84.3,121.7,84.3,123.8
					L84.3,123.8z"/>
				<path class="st10" d="M82.8,123.8c0,1.3-1,2.3-2.3,2.3s-2.3-1-2.3-2.3s1-2.3,2.3-2.3l0,0C81.8,121.5,82.8,122.5,82.8,123.8z"/>
				<path class="st13" d="M96.1,71L79,70.8c-1.2,0-2.2-1-2.2-2.2l0,0c0-1.2,1-2.2,2.2-2.2l17.1,0.2c1.2,0,2.2,1,2.2,2.2l0,0
					C98.3,70,97.3,71,96.1,71z"/>
				<path class="st13" d="M91,65.4c0,3-2.5,5.5-5.6,5.4c-3,0-5.5-2.5-5.4-5.6c0-3,2.5-5.5,5.6-5.4c0,0,0,0,0,0
					C88.6,59.9,91,62.4,91,65.4z"/>
				<path class="st13" d="M95.4,67.1c0,2.2-1.8,3.9-4,3.9c-2.2,0-3.9-1.8-3.9-4c0-2.2,1.8-3.9,4-3.9c0,0,0,0,0,0
					C93.7,63.2,95.4,64.9,95.4,67.1z"/>
				<path class="st13" d="M155.1,294.8l82.1-1c5.8-0.1,10.5-4.9,10.5-10.7l0,0c-0.1-5.8-4.9-10.5-10.7-10.5l-82.1,1
					c-5.8,0.1-10.5,4.9-10.5,10.7l0,0C144.4,290.2,149.2,294.9,155.1,294.8z"/>
				<circle class="st13" cx="206.2" cy="267.9" r="26.3"/>
				<path class="st13" d="M172.7,294c10,2.6,20.3-3.5,22.8-13.5c2.6-10-3.5-20.3-13.5-22.8c-10-2.6-20.3,3.5-22.8,13.5
					c-0.4,1.6-0.6,3.2-0.6,4.8C158.6,284.5,164.5,291.9,172.7,294"/>
				<path class="st13" d="M75.4,294.8l-82.1-1c-5.8-0.1-10.5-4.9-10.5-10.7l0,0c0.1-5.8,4.9-10.5,10.7-10.5l82.1,1
					c5.8,0.1,10.5,4.9,10.5,10.7l0,0C86,290.2,81.2,294.9,75.4,294.8z"/>
				<circle class="st13" cx="24.2" cy="267.9" r="26.3"/>
				
					<ellipse transform="matrix(0.7071 -0.7071 0.7071 0.7071 -179.4901 118.3028)" class="st13" cx="53.1" cy="275.8" rx="18.8" ry="18.8"/>
				<rect x="60.7" y="277.9" class="st13" width="113.4" height="20.9"/>
			</g>
		</g>
	</g>
</g>
</svg>
