<?xml version="1.0" encoding="utf-8"?>
<!-- Generator: Adobe Illustrator 25.2.3, SVG Export Plug-In . SVG Version: 6.00 Build 0)  -->
<svg version="1.1" id="Layer_1" xmlns="http://www.w3.org/2000/svg" xmlns:xlink="http://www.w3.org/1999/xlink" x="0px" y="0px"
	 viewBox="0 0 234.3 379.9" style="enable-background:new 0 0 234.3 379.9;" xml:space="preserve">
<style type="text/css">
	.st0{fill:#F4B155;}
	.st1{fill:#FFF0CC;}
	.st2{fill:#231F20;}
	.st3{clip-path:url(#SVGID_2_);}
	.st4{fill:#5BA587;}
	.st5{fill:none;}
	.st6{fill:#A4F6FF;}
	.st7{fill:#D1D3D4;}
	.st8{fill:#FFFFFF;}
	.st9{fill:#E6E7E8;}
	.st10{fill:#8DB3B5;}
	.st11{fill:#739999;}
	.st12{fill:#FFD150;}
	.st13{fill:#4A355B;}
	.st14{fill:#5BC4B8;}
	.st15{fill:#F4B055;}
	.st16{fill:#414042;}
	.st17{fill:#F1F2F2;}
	.st18{fill:#54323A;}
	.st19{fill:#68444D;}
	.st20{fill:#DC4F64;}
	.st21{fill:#E4705E;}
</style>
<g id="Layer_2_1_">
	<g id="Layer_1-2">
		<path class="st0" d="M234.3,14.4v351.1c-0.1,8.1-6.8,14.6-14.9,14.5c0,0,0,0,0,0H14.9c-8.1,0.1-14.8-6.3-14.9-14.5c0,0,0,0,0,0
			V14.4C0,6.5,6.7,0,14.9,0h204.4C227.6,0,234.3,6.5,234.3,14.4z M221.7,357.2V22.8c0-5.9-4.8-10.8-10.8-10.8H23.3
			c-5.9,0-10.8,4.8-10.8,10.8v334.4c0,6,4.8,10.8,10.8,10.8c0,0,0,0,0,0h187.6C216.9,368,221.7,363.2,221.7,357.2
			C221.7,357.2,221.7,357.2,221.7,357.2z"/>
		<path class="st1" d="M23.3,12h187.6c6,0,10.8,4.8,10.8,10.8v334.4c0,6-4.8,10.8-10.8,10.8H23.3c-6,0-10.8-4.8-10.8-10.8V22.7
			C12.6,16.8,17.4,12,23.3,12z"/>
		<path class="st2" d="M31.5,339.8c-0.1-0.1-0.2-0.3-0.1-0.5v-10.2c0-0.2,0-0.3,0.1-0.5c0.1-0.1,0.3-0.2,0.5-0.1h0.9
			c0.2,0,0.4,0,0.5,0.1c0.1,0.1,0.2,0.3,0.2,0.5v10.2c0,0.2,0,0.3-0.1,0.5c-0.1,0.1-0.3,0.2-0.5,0.1h-0.9
			C31.8,339.9,31.6,339.9,31.5,339.8z M38.2,339.9c-0.1,0-0.1-0.1-0.2-0.1l-4-4.9c-0.1-0.1-0.2-0.2-0.2-0.3
			c-0.1-0.1-0.1-0.2-0.1-0.4c0-0.1,0-0.2,0.1-0.3c0.1-0.1,0.1-0.2,0.2-0.3l4-4.8c0.1-0.1,0.1-0.1,0.2-0.2c0.1,0,0.2,0,0.3,0H40
			c0.1,0,0.1,0,0.2,0.1c0,0,0.1,0.1,0.1,0.2c0,0.1,0,0.2-0.1,0.2l-4.3,5.2l4.5,5.3c0.1,0.1,0.1,0.1,0.1,0.2c0,0.1,0,0.1-0.1,0.2
			c-0.1,0-0.1,0.1-0.2,0.1h-1.6C38.4,339.9,38.3,339.9,38.2,339.9L38.2,339.9z"/>
		<path class="st2" d="M41.5,339.8c-0.1-0.1-0.2-0.3-0.1-0.5v-10.2c0-0.2,0-0.3,0.1-0.5c0.1-0.1,0.3-0.2,0.5-0.1h0.8
			c0.1,0,0.3,0,0.4,0.1c0.1,0.1,0.2,0.2,0.3,0.3l5.6,7.7v-7.4c0-0.2,0-0.3,0.2-0.5c0.1-0.1,0.3-0.2,0.5-0.1h0.9c0.2,0,0.4,0,0.5,0.1
			c0.1,0.1,0.2,0.3,0.2,0.5v10.2c0,0.2,0,0.3-0.1,0.5c-0.1,0.1-0.3,0.2-0.5,0.1h-0.8c-0.1,0-0.2,0-0.4-0.1c-0.1-0.1-0.2-0.2-0.3-0.3
			l-5.5-7.7v7.4c0,0.2,0,0.3-0.1,0.5c-0.1,0.1-0.3,0.2-0.5,0.1H42C41.8,339.9,41.7,339.9,41.5,339.8z"/>
		<path class="st2" d="M53.3,339.8c-0.1-0.1-0.2-0.3-0.1-0.5v-10.2c0-0.2,0-0.3,0.1-0.5c0.1-0.1,0.3-0.2,0.5-0.1h0.9
			c0.2,0,0.4,0,0.5,0.1c0.1,0.1,0.2,0.3,0.2,0.5v10.2c0,0.3-0.2,0.6-0.5,0.6c-0.1,0-0.1,0-0.2,0h-0.9
			C53.6,339.9,53.4,339.9,53.3,339.8z"/>
		<path class="st2" d="M58.5,338.6c-1.1-1.2-1.7-2.8-1.6-4.4c-0.1-1.6,0.5-3.2,1.6-4.4c1.2-1.1,2.8-1.7,4.4-1.5
			c0.7,0,1.4,0.1,2.1,0.2c0.6,0.1,1.1,0.4,1.7,0.7c0.1,0,0.1,0.1,0.2,0.2c0,0.1,0,0.1-0.1,0.2l-0.5,0.8c-0.1,0.1-0.1,0.1-0.2,0.1
			c-0.1,0-0.2,0-0.2-0.1c-0.8-0.4-1.8-0.7-2.7-0.6c-1.1-0.1-2.2,0.3-3,1.1c-0.8,0.9-1.2,2.1-1.1,3.3c-0.1,1.2,0.3,2.4,1.1,3.3
			c0.8,0.8,1.9,1.1,2.9,1.1c0.4,0,0.9,0,1.3-0.1c0.3-0.1,0.7-0.2,1-0.3V335h-2.2c-0.2,0-0.3,0-0.5-0.1c-0.1-0.1-0.1-0.3-0.1-0.5V334
			c0-0.2,0-0.3,0.1-0.4c0.1-0.1,0.3-0.1,0.5-0.1h3.5c0.2,0,0.4,0,0.5,0.2c0.1,0.2,0.2,0.3,0.2,0.5v4.4c0,0.1,0,0.3,0,0.4
			c0,0.1-0.1,0.2-0.2,0.2c-1.3,0.7-2.7,1.1-4.2,1C61.3,340.3,59.7,339.7,58.5,338.6z"/>
		<path class="st2" d="M69.2,339.8c-0.1-0.1-0.1-0.3-0.1-0.5v-10.2c0-0.2,0-0.3,0.1-0.5c0.1-0.1,0.3-0.2,0.5-0.1h0.9
			c0.2,0,0.4,0,0.5,0.1c0.1,0.1,0.2,0.3,0.2,0.5v4.2h5.5v-4.2c0-0.2,0-0.3,0.2-0.5c0.1-0.1,0.3-0.2,0.5-0.1h0.9c0.2,0,0.3,0,0.5,0.1
			c0.1,0.1,0.2,0.3,0.2,0.5v10.2c0.1,0.3-0.1,0.6-0.4,0.6c-0.1,0-0.1,0-0.2,0h-0.9c-0.2,0-0.4,0-0.5-0.1c-0.1-0.1-0.2-0.3-0.2-0.5
			V335h-5.5v4.3c0,0.2,0,0.3-0.1,0.5c-0.1,0.1-0.3,0.2-0.5,0.1h-0.9C69.5,339.9,69.3,339.9,69.2,339.8z"/>
		<path class="st2" d="M83.8,339.8c-0.1-0.1-0.2-0.3-0.2-0.5v-9.2h-2.9c-0.2,0-0.3,0-0.5-0.1c-0.1-0.1-0.1-0.3-0.1-0.5v-0.5
			c0-0.2,0-0.3,0.1-0.5c0.1-0.1,0.3-0.2,0.5-0.1h8c0.2,0,0.3,0,0.5,0.1c0.1,0.1,0.1,0.3,0.1,0.5v0.5c0.1,0.3-0.1,0.5-0.4,0.6
			c-0.1,0-0.2,0-0.2,0h-2.9v9.2c0.1,0.3-0.1,0.6-0.4,0.6c-0.1,0-0.1,0-0.2,0h-0.9C84.1,339.9,83.9,339.9,83.8,339.8z"/>
		<path class="st2" d="M98.4,338.6c-2-2.6-2-6.2,0-8.8c2.5-2.1,6.1-2.1,8.5,0c2,2.6,2,6.2,0,8.8C104.4,340.7,100.8,340.7,98.4,338.6
			z M105.3,337.5c1.2-2,1.2-4.5,0-6.5c-1.5-1.5-3.9-1.5-5.4,0c-1.3,2-1.3,4.5,0,6.5C101.4,339,103.8,339,105.3,337.5
			C105.3,337.5,105.3,337.5,105.3,337.5z"/>
		<path class="st2" d="M110.2,339.8c-0.1-0.1-0.2-0.3-0.1-0.5v-10.2c0-0.2,0-0.3,0.1-0.5c0.1-0.1,0.3-0.2,0.5-0.1h7
			c0.2,0,0.3,0,0.5,0.1c0.1,0.1,0.1,0.3,0.1,0.5v0.5c0,0.2,0,0.3-0.1,0.5c-0.1,0.1-0.3,0.2-0.5,0.1h-5.5v3.2h4
			c0.3-0.1,0.5,0.1,0.6,0.4c0,0.1,0,0.2,0,0.2v0.5c0,0.2,0,0.3-0.1,0.5c-0.1,0.1-0.3,0.2-0.5,0.1h-4v4.3c0,0.3-0.2,0.6-0.5,0.6
			c-0.1,0-0.1,0-0.2,0h-0.9C110.5,339.9,110.3,339.9,110.2,339.8z"/>
		<path class="st2" d="M128.3,339.9c-0.8-0.2-1.5-0.4-2.1-0.9c-0.2-0.1-0.3-0.2-0.3-0.3c0-0.1,0-0.2,0.1-0.2l0.7-1
			c0.1-0.1,0.2-0.2,0.2-0.2c0.1,0,0.2,0,0.3,0.1c0.5,0.3,1.1,0.5,1.7,0.7c0.6,0.2,1.3,0.3,1.9,0.3c0.7,0,1.4-0.1,2-0.4
			c0.5-0.3,0.7-0.9,0.7-1.4c0-0.3-0.1-0.7-0.2-0.9c-0.2-0.3-0.5-0.5-0.8-0.6c-0.5-0.3-1-0.5-1.6-0.7l-0.4-0.2
			c-0.7-0.3-1.4-0.6-2.1-1c-0.5-0.3-1-0.7-1.4-1.2c-0.4-0.5-0.6-1.2-0.6-1.9c0-1.1,0.5-2.1,1.4-2.8c1.1-0.7,2.3-1.1,3.6-1
			c0.8,0,1.6,0.1,2.3,0.2c0.6,0.2,1.2,0.4,1.7,0.8c0.1,0.1,0.2,0.2,0.2,0.3c0,0.1,0,0.2-0.1,0.2l-0.6,1c-0.1,0.1-0.1,0.2-0.2,0.2
			c-0.1,0-0.2-0.1-0.2-0.1c-0.9-0.6-2-0.8-3.1-0.8c-0.7,0-1.3,0.1-1.9,0.5c-0.4,0.3-0.7,0.9-0.6,1.4c0,0.4,0.1,0.7,0.3,1
			c0.2,0.3,0.5,0.5,0.8,0.6c0.3,0.2,0.9,0.4,1.6,0.7l0.5,0.2c0.8,0.3,1.5,0.6,2.2,1c0.5,0.3,0.9,0.7,1.2,1.2
			c0.3,0.6,0.5,1.2,0.4,1.8c0,1-0.4,2-1.3,2.6c-1.1,0.7-2.3,1.1-3.6,1C130.1,340.2,129.2,340.1,128.3,339.9z"/>
		<path class="st2" d="M140.7,339.8c-0.1-0.1-0.2-0.2-0.2-0.4l-3.1-12.4c0-0.1,0-0.1,0-0.2c0-0.2,0.1-0.3,0.4-0.3h1.6
			c0.1,0,0.3,0,0.4,0.1c0.1,0.1,0.1,0.2,0.2,0.3l2,8.6l2.4-7.6c0-0.1,0.1-0.2,0.2-0.3c0.1-0.1,0.2-0.1,0.4-0.1h0.9
			c0.1,0,0.3,0,0.4,0.1c0.1,0.1,0.1,0.2,0.2,0.3l2.4,7.6l1.9-8.6c0-0.1,0.1-0.2,0.2-0.3c0.1-0.1,0.3-0.1,0.4-0.1h1.6
			c0.2,0,0.4,0.1,0.4,0.3c0,0.1,0,0.1,0,0.2l-3.1,12.4c0,0.3-0.3,0.5-0.6,0.5h-1.1c-0.1,0-0.3,0-0.4-0.1c-0.1-0.1-0.2-0.2-0.2-0.4
			l-2.4-7.8l-2.4,7.8c0,0.1-0.1,0.3-0.2,0.4c-0.1,0.1-0.3,0.1-0.4,0.1h-1.1C141,339.9,140.9,339.9,140.7,339.8z"/>
		<path class="st2" d="M155.1,338.4c-2.3-3-2.3-7.2,0-10.3c2.9-2.4,7.1-2.4,9.9,0c2.3,3,2.3,7.2,0,10.3
			C162.2,340.8,158,340.8,155.1,338.4z M163.2,337.1c1.4-2.3,1.4-5.3,0-7.6c-1.7-1.7-4.5-1.7-6.3,0c-1.4,2.3-1.4,5.3,0,7.6
			C158.7,338.8,161.5,338.8,163.2,337.1C163.2,337.1,163.2,337.1,163.2,337.1z"/>
		<path class="st2" d="M168.8,339.7c-0.1-0.1-0.2-0.3-0.2-0.5v-11.9c0-0.2,0-0.4,0.2-0.5c0.2-0.1,0.4-0.2,0.6-0.2h5.1
			c1.2-0.1,2.5,0.3,3.5,1.1c0.8,0.8,1.3,2,1.2,3.1c0,0.8-0.2,1.6-0.6,2.3c-0.5,0.7-1.1,1.2-1.9,1.5l2.2,4.8c0,0.1,0.1,0.1,0.1,0.2
			c0,0.2-0.1,0.3-0.4,0.3h-1.6c-0.1,0-0.3,0-0.4-0.1c-0.1-0.1-0.2-0.2-0.2-0.3l-2-4.6h-3.2v4.3c0,0.2,0,0.4-0.2,0.5
			c-0.2,0.1-0.4,0.2-0.6,0.2h-1C169.2,339.9,169,339.9,168.8,339.7z M174,333c0.7,0.1,1.4-0.1,2-0.5c0.5-0.4,0.7-1.1,0.6-1.7
			c0.1-0.6-0.2-1.3-0.6-1.7c-0.5-0.4-1.1-0.6-1.8-0.5h-3.1v4.5H174z"/>
		<path class="st2" d="M181.2,339.7c-0.1-0.1-0.2-0.3-0.2-0.5v-11.9c0-0.2,0-0.4,0.2-0.5c0.2-0.1,0.4-0.2,0.6-0.2h3.9
			c1.8-0.1,3.6,0.4,5.1,1.6c1.2,1.1,1.8,2.8,1.8,5.1c0,4.4-2.3,6.7-6.8,6.7h-3.9C181.6,339.9,181.4,339.9,181.2,339.7z M185.9,338
			c1.1,0.1,2.3-0.3,3.1-1.1c1.4-2.3,1.4-5.1,0-7.4c-0.9-0.8-2-1.2-3.1-1.1h-2.3v9.5L185.9,338z"/>
		<path class="st2" d="M195.6,339.9c-0.8-0.2-1.5-0.4-2.1-0.9c-0.2-0.1-0.2-0.2-0.2-0.3c0-0.1,0-0.2,0.1-0.2l0.6-1
			c0.1-0.1,0.1-0.2,0.2-0.2c0.1,0,0.2,0,0.2,0.1c0.5,0.3,1.1,0.5,1.7,0.7c0.6,0.2,1.3,0.3,1.9,0.3c0.7,0,1.4-0.1,2-0.4
			c0.7-0.6,0.9-1.6,0.4-2.4c-0.2-0.3-0.4-0.5-0.7-0.6c-0.5-0.3-1-0.5-1.6-0.7l-0.4-0.2c-0.7-0.3-1.4-0.6-2.1-1
			c-0.5-0.3-1-0.7-1.4-1.2c-0.4-0.5-0.6-1.2-0.6-1.9c-0.1-1.1,0.5-2.1,1.4-2.8c1.1-0.7,2.3-1.1,3.6-1c0.8,0,1.6,0.1,2.3,0.2
			c0.6,0.2,1.2,0.4,1.7,0.8c0.1,0.1,0.2,0.2,0.2,0.3c0,0.1,0,0.2-0.1,0.2l-0.6,1c-0.1,0.1-0.1,0.2-0.2,0.2c-0.1,0-0.2-0.1-0.2-0.1
			c-0.9-0.6-2-0.8-3.1-0.8c-0.7,0-1.3,0.1-1.9,0.5c-0.6,0.6-0.8,1.6-0.4,2.4c0.2,0.3,0.5,0.5,0.8,0.6c0.3,0.2,0.9,0.4,1.6,0.7
			l0.5,0.2c0.8,0.3,1.5,0.6,2.2,1c0.5,0.3,0.9,0.7,1.2,1.2c0.3,0.6,0.5,1.2,0.4,1.8c0,1-0.4,2-1.3,2.6c-1.1,0.7-2.3,1.1-3.6,1
			C197.4,340.2,196.5,340.1,195.6,339.9z"/>
		<g>
			<defs>
				<path id="SVGID_1_" d="M52.9,43.7h128.6c13.6,0,24.7,11.1,24.7,24.7v191.7c0,13.6-11.1,24.7-24.7,24.7H52.9
					c-13.6,0-24.7-11.1-24.7-24.7V68.4C28.1,54.8,39.2,43.7,52.9,43.7z"/>
			</defs>
			<clipPath id="SVGID_2_">
				<use xlink:href="#SVGID_1_"  style="overflow:visible;"/>
			</clipPath>
			<g class="st3">
				<rect x="29.2" y="287.6" class="st4" width="176.4" height="19.9"/>
				<rect x="29.2" y="-3.3" class="st5" width="176.4" height="310.8"/>
				<polygon class="st6" points="206.1,1.1 20.8,1.1 20.8,197.2 20.8,219.9 20.8,327.4 206,327.4 206,219.9 206.1,219.9 				"/>
				<polygon class="st7" points="18.5,143.3 39.5,132 75.1,139.1 99.2,122.2 140.3,135.4 166.4,126.1 215.8,145 215.8,185.9 
					18.5,185.9 				"/>
				<path class="st8" d="M65.2,124l-26.4-0.3c-1.9,0-3.4-1.6-3.4-3.4l0,0c0-1.9,1.6-3.4,3.4-3.4c0,0,0,0,0,0l26.4,0.3
					c1.9,0,3.4,1.6,3.4,3.4l0,0C68.6,122.5,67,124,65.2,124z"/>
				<path class="st8" d="M57.2,115.5c-0.1,4.7-3.9,8.4-8.6,8.4s-8.4-3.9-8.4-8.6c0.1-4.7,3.9-8.4,8.6-8.4c0,0,0,0,0,0
					C53.5,107,57.2,110.8,57.2,115.5C57.2,115.5,57.2,115.5,57.2,115.5z"/>
				<path class="st8" d="M64,118c-0.1,3.3-2.8,6-6.1,5.9c-3.3-0.1-6-2.8-5.9-6.1c0.1-3.3,2.7-5.9,6-5.9c3.3,0,6,2.7,6,6
					C64,117.9,64,118,64,118z"/>
				<path class="st8" d="M73.5,81.5l-9.6-0.1c-0.7,0-1.2-0.6-1.2-1.3l0,0c0-0.7,0.6-1.2,1.2-1.2l9.6,0.1c0.7,0,1.2,0.6,1.2,1.3l0,0
					C74.7,80.9,74.1,81.5,73.5,81.5z"/>
				<path class="st8" d="M70.6,78.3c0,1.7-1.4,3.1-3.1,3c-1.7,0-3.1-1.4-3-3.1c0-1.7,1.4-3.1,3.1-3C69.2,75.2,70.6,76.6,70.6,78.3
					C70.6,78.3,70.6,78.3,70.6,78.3z"/>
				<path class="st8" d="M73,79.2c0,1.2-1,2.2-2.3,2.1c-1.2,0-2.2-1-2.1-2.3c0-1.2,1-2.2,2.3-2.1c0,0,0,0,0,0C72.1,77,73,78,73,79.2
					z"/>
				<path class="st8" d="M153.4,75.9l24.6-0.3c1.8,0,3.2-1.5,3.1-3.2l0,0c0-1.8-1.5-3.2-3.2-3.1l-24.6,0.3c-1.8,0-3.1,1.5-3.1,3.2
					l0,0C150.2,74.6,151.6,76,153.4,75.9z"/>
				<path class="st8" d="M160.8,68c0.1,4.4,3.6,7.8,8,7.8s7.8-3.6,7.8-8c-0.1-4.4-3.6-7.8-8-7.8C164.2,60.1,160.7,63.6,160.8,68
					C160.8,68,160.8,68,160.8,68z"/>
				<path class="st8" d="M154.4,70.3c0,3.1,2.6,5.6,5.7,5.6c3.1,0,5.6-2.6,5.6-5.7c0-3.1-2.6-5.6-5.7-5.6
					C156.9,64.7,154.4,67.2,154.4,70.3C154.4,70.3,154.4,70.3,154.4,70.3z"/>
				<polygon class="st9" points="18.5,154.1 67,133.6 106,149.6 144.1,128.1 185.6,145 215.8,132 215.8,185.9 18.5,185.9 				"/>
				<polygon class="st10" points="208.8,183.9 23.4,183.9 23.4,283.2 23.4,294.8 23.4,349.2 208.7,349.2 208.7,294.8 208.8,294.8 
									"/>
				<polygon class="st11" points="68.9,248.1 36.6,290.9 217.1,290.9 183.2,248.1 				"/>
				<path class="st12" d="M86.8,137.3c-1.4,1.4-3.6,1.4-5,0l-17.2-17c-1.4-1.4-1.4-3.6,0-5l0,0c1.4-1.4,3.6-1.4,5,0l17.2,17.1"/>
				<path class="st12" d="M99.2,136.3l-13.8,1.9c-2.2,0.3-4.2-1.2-4.5-3.4l0,0c-0.3-2.2,1.2-4.2,3.4-4.5l13.8-1.9"/>
				
					<rect x="63.5" y="109.5" transform="matrix(0.725 -0.6887 0.6887 0.725 -62.3961 77.4626)" class="st13" width="4.7" height="14.8"/>
				
					<rect x="55.8" y="110.7" transform="matrix(0.725 -0.6887 0.6887 0.725 -60.2589 72.6872)" class="st14" width="10.2" height="2.3"/>
				
					<rect x="38.6" y="62.1" transform="matrix(0.7267 -0.6869 0.6869 0.7267 -51.1357 52.8986)" class="st8" width="4.7" height="57.2"/>
				<polygon class="st8" points="19.3,71.3 16.2,64.7 22.7,68.1 				"/>
				<path class="st15" d="M63.4,118.2l0.8-0.8c0.6-0.6,1.5-0.6,2.1,0l3.8,3.8c0.6,0.6,0.6,1.5,0,2.1l-0.8,0.8
					c-0.6,0.6-1.5,0.6-2.1,0l-3.8-3.8C62.8,119.7,62.8,118.8,63.4,118.2z"/>
				<path class="st16" d="M169.1,179.6c9.6-0.3,20.1,5.6,24.5,14.3c2.6,5.1,1.6,10.8,0.5,16.2c-1,4.5-2.6,11.9,3.4,13.7
					c-1.4-0.4-5,1.2-7,0.9c-5.6-1-10.5-5.2-13-10.2c-2.9-6-0.8-12.5-1.7-18.9c-0.4-3-1.2-5.9-2.3-8.8
					C173,185.7,170.5,179.5,169.1,179.6z"/>
				<path class="st16" d="M87.9,139.4h2.9c2.1,0,3.8,1.7,3.8,3.8v37.7c0,2.1-1.7,3.8-3.8,3.8h-2.9c-2.1,0-3.8-1.7-3.8-3.8v-37.7
					C84.1,141.1,85.8,139.4,87.9,139.4z"/>
				<rect x="65.9" y="143.5" class="st8" width="21.7" height="56.1"/>
				<path class="st8" d="M82.6,162.2c6.6-6.7,6.6-17.4,0-24.1l0,0c-3.9-3.9-9.5-5.7-15-4.7l0.1,0.1c0.8,0.8,0.8,2,0,2.8c0,0,0,0,0,0
					l-13.4,13.3l18.5,22.3c0.3-0.3,0.6-0.6,0.9-0.9L82.6,162.2z"/>
				<path class="st8" d="M67.7,136.3c0.8-0.8,0.8-2,0-2.8c0,0,0,0,0,0l-0.1-0.1c-3.4,0.6-6.6,2.2-9.1,4.7l-7.5,7.5l3.3,4L67.7,136.3
					z"/>
				<path class="st17" d="M52.3,151.7c-0.8,0.8-2,0.8-2.8,0c0,0,0,0,0,0l-2-2c-4.4,6.8-3.5,15.7,2.2,21.4l0,0
					c6.3,6.3,16.4,6.7,23.2,0.9l-18.5-22.3L52.3,151.7z"/>
				<path class="st8" d="M66.1,120.2h2.4c1.8,0,3.2,1.4,3.2,3.2v11.4c0,1.8-1.4,3.2-3.2,3.2h-2.4c-1.8,0-3.2-1.4-3.2-3.2v-11.4
					C63,121.6,64.4,120.2,66.1,120.2z"/>
				<path class="st17" d="M66.1,123.6h2.4c1.8,0,3.2,1.4,3.2,3.2v7.9c0,1.8-1.4,3.2-3.2,3.2h-2.4c-1.8,0-3.2-1.4-3.2-3.2v-7.9
					C63,125,64.4,123.6,66.1,123.6z"/>
				<path class="st16" d="M69.5,135.1c0,2.8-2.2,5-5,5c-2.8,0-5-2.2-5-5s2.2-5,5-5C67.2,130.1,69.5,132.4,69.5,135.1z"/>
				<path class="st16" d="M75.6,137.2c0,2.1-1.7,3.8-3.9,3.8c-2.1,0-3.8-1.7-3.8-3.9c0-2.1,1.7-3.8,3.9-3.8c0,0,0,0,0,0
					C73.9,133.4,75.6,135.1,75.6,137.2z"/>
				<path class="st16" d="M83.2,139.6c0,2.7-2.2,4.9-4.9,4.9s-4.9-2.2-4.9-4.9c0-2.7,2.2-4.9,4.9-4.9l0,0
					C81,134.7,83.2,136.9,83.2,139.6z"/>
				<path class="st16" d="M78.8,133.4c0,2.7-2.2,4.9-4.9,4.9s-4.9-2.2-4.9-4.9c0-2.7,2.2-4.9,4.9-4.9l0,0
					C76.6,128.5,78.8,130.7,78.8,133.4z"/>
				<path class="st8" d="M82.8,123.9h3c2.2,0,4,1.8,4,4v14.3c0,2.2-1.8,4-4,4h-3c-2.2,0-4-1.8-4-4v-14.3
					C78.8,125.7,80.6,123.9,82.8,123.9z"/>
				<path class="st17" d="M82.8,128.3h3c2.2,0,4,1.8,4,4v10c0,2.2-1.8,4-4,4h-3c-2.2,0-4-1.8-4-4v-10
					C78.8,130.1,80.6,128.3,82.8,128.3z"/>
				<path class="st17" d="M47.5,149.7l2,2c0.8,0.8,2,0.8,2.8,0c0,0,0,0,0,0l2-2l-3.3-4l-1.3,1.3C48.8,147.8,48.1,148.7,47.5,149.7z"
					/>
				<circle class="st16" cx="71" cy="148.9" r="3.7"/>
				<path class="st8" d="M81.9,175.8h85.2c8.9,0,16.2,7.2,16.2,16.2v12.3c0,8.9-7.2,16.2-16.2,16.2H81.9c-8.9,0-16.2-7.2-16.2-16.2
					v-12.3C65.8,183,73,175.8,81.9,175.8z"/>
				<rect x="65.8" y="194.7" class="st8" width="18.6" height="53.4"/>
				<rect x="65.8" y="248.1" class="st16" width="18.6" height="10.8"/>
				<polygon class="st8" points="183.2,198.1 165.9,212.5 165.9,248.1 183.2,248.1 				"/>
				<rect x="165.9" y="248.1" class="st16" width="17.3" height="10.8"/>
				<rect x="124.5" y="196.5" class="st18" width="8.3" height="24.9"/>
				<path class="st18" d="M89.5,174.9h81.8l0,0v5c0,11.3-9.2,20.5-20.5,20.5H110c-11.3,0-20.5-9.2-20.5-20.5c0,0,0,0,0,0V174.9
					L89.5,174.9z"/>
				<path class="st19" d="M171.3,175c0,11.3-9.2,19.3-20.5,19.3H110c-11.3,0-18.9-7.6-18.9-18.9"/>
				<path class="st12" d="M135.2,137.4l-1.4,1.4c-1,1-2.6,1-3.6,0l-18.6-18.4c-1-1-1-2.6,0-3.6l1.4-1.4c1-1,2.6-1,3.6,0l18.6,18.4
					C136.2,134.8,136.2,136.4,135.2,137.4z"/>
				<path class="st12" d="M150.3,131.6l0.3,2.2c0.2,1.6-0.9,3-2.5,3.2l-16,2.2c-1.6,0.2-3-0.9-3.2-2.5l-0.3-2.2
					c-0.2-1.6,0.9-3,2.5-3.2l16-2.2C148.6,128.9,150,130,150.3,131.6z"/>
				<path class="st16" d="M152.9,131.9c0-4.6-3.7-8.3-8.3-8.3l0,0c-4.6,0-8.2,3.7-8.3,8.3v5.4h16.5V131.9z"/>
				<circle class="st12" cx="137.7" cy="111" r="3.3"/>
				<path class="st15" d="M138.9,111.7c-0.4,0.6-1.2,0.9-1.8,0.5s-0.9-1.2-0.5-1.8c0.4-0.6,1.2-0.9,1.8-0.5c0,0,0,0,0,0
					C139,110.3,139.3,111.1,138.9,111.7C138.9,111.7,138.9,111.7,138.9,111.7z"/>
				<path class="st8" d="M153.2,123.8L153.2,123.8c10,0,18.1,8.1,18.1,18.1v31.7c0,3.6-2.9,6.4-6.4,6.4h-23.3
					c-3.6,0-6.4-2.9-6.4-6.4v-31.7C135.1,131.9,143.2,123.8,153.2,123.8z"/>
				<path class="st12" d="M151.6,109.6h2.4c1.8,0,3.2,1.4,3.2,3.2v11.6c0,1.8-1.4,3.2-3.2,3.2h-2.4c-1.8,0-3.2-1.4-3.2-3.2v-11.6
					C148.3,111,149.8,109.6,151.6,109.6z"/>
				<path class="st15" d="M148.3,123.2c0,0,4.6,2.6,8.9,0.1v-1.5h-8.9V123.2z"/>
				<path class="st12" d="M148.7,87.3h8.1c5.9,0,10.6,4.8,10.6,10.6v15c0,5.9-4.8,10.6-10.6,10.6h-8.1c-5.9,0-10.6-4.8-10.6-10.6
					v-15C138.1,92,142.9,87.3,148.7,87.3z"/>
				<path class="st16" d="M145.3,109h-4.8c-0.7,0-1.2-0.6-1.2-1.2l0,0c0-0.7,0.6-1.2,1.2-1.2h4.8c0.7,0,1.2,0.6,1.2,1.2l0,0
					C146.5,108.4,146,109,145.3,109z"/>
				<path class="st16" d="M159.3,109h-4.8c-0.7,0-1.2-0.6-1.2-1.2l0,0c0-0.7,0.6-1.2,1.2-1.2h4.8c0.7,0,1.2,0.6,1.2,1.2l0,0
					C160.6,108.4,160,109,159.3,109z"/>
				<path class="st8" d="M164.2,101.8h1.4c1,0,1.8,0.8,1.8,1.8v13.9c0,1-0.8,1.8-1.8,1.8h-1.4c-1,0-1.8-0.8-1.8-1.8v-13.9
					C162.4,102.6,163.2,101.8,164.2,101.8z"/>
				<path class="st15" d="M148.3,112.4c-0.9,0-1.5,0.7-1.5,1.5h3.1C149.9,113.1,149.2,112.4,148.3,112.4z"/>
				<path class="st13" d="M151.5,117c0.9,0,1.7,0.8,1.7,1.7c0,0.2,0,0.4-0.1,0.6h2.6c0-2.5-2-4.5-4.5-4.5c-1.6,0-3.1,0.9-3.9,2.2
					c0.1,0,0.2,0,0.4,0L151.5,117z"/>
				<path class="st20" d="M153.1,119.3c0.1-0.2,0.1-0.4,0.1-0.6c0-0.9-0.8-1.7-1.7-1.7h-3.9c-0.1,0-0.2,0-0.4,0
					c-0.4,0.7-0.6,1.5-0.6,2.3L153.1,119.3z"/>
				<path class="st13" d="M143.2,110.6c0,0.6-0.5,1.1-1.1,1.1s-1.1-0.5-1.1-1.1c0-0.6,0.5-1.1,1.1-1.1l0,0
					C142.7,109.4,143.2,110,143.2,110.6z"/>
				<circle class="st13" cx="155.9" cy="110.6" r="1.1"/>
				<path class="st8" d="M154.4,84.6h-3.2c-7.2,0-13,5.9-13.1,13.1v10.1h29.4V97.7C167.4,90.5,161.6,84.7,154.4,84.6z"/>
				<circle class="st12" cx="163.2" cy="111" r="3.3"/>
				<path class="st15" d="M164.4,111.7c-0.3,0.7-1.1,0.9-1.8,0.6s-0.9-1.1-0.6-1.8c0,0,0-0.1,0.1-0.1c0.4-0.6,1.2-0.8,1.8-0.4
					C164.5,110.4,164.7,111.1,164.4,111.7z"/>
				<path class="st12" d="M157.6,176.7l0.2,2.9c0.2,2.1-1.4,4-3.6,4.2l-17.8,1.4c-2.1,0.2-4-1.4-4.2-3.6l-0.2-2.9
					c-0.2-2.1,1.4-4,3.6-4.2l17.8-1.4C155.5,172.9,157.4,174.5,157.6,176.7z"/>
				<path class="st12" d="M116.4,208.6l1.1-0.7c0.6-0.4,1.3-0.6,2-0.5l4.2,0.2c0-0.1,0-0.1,0-0.2l2-7.1l1.4-5.2l4.6-16.5
					c0.7-3,3.8-4.9,6.8-4.2c3,0.7,4.9,3.8,4.2,6.8c0,0.1-0.1,0.2-0.1,0.3l-4.6,16.4l-1.4,5.2l-1.6,6.1c0.6,0.8,0.8,1.9,0.6,2.9
					l-1,3.5c-0.5,1.8-2.4,2.9-4.2,2.4c0,0,0,0,0,0l-13.1-3.6c-1.8-0.5-2.9-2.3-2.4-4.1C115.1,209.8,115.7,209.1,116.4,208.6z"/>
				<path class="st21" d="M131.3,182.3l10.3,2.9c0.4,0.1,0.7,0.5,0.5,1l-0.2,0.6c-0.1,0.4-0.5,0.7-1,0.5l-10.3-2.9
					c-0.4-0.1-0.7-0.5-0.5-1l0.2-0.6C130.5,182.4,130.9,182.2,131.3,182.3z"/>
				<path class="st21" d="M141,186.1l0.4,0.5c0.3,0.4,0.2,1-0.2,1.3l-12.5,9.6c-0.4,0.3-1,0.2-1.3-0.2l-0.4-0.5
					c-0.3-0.4-0.2-1,0.2-1.3l12.5-9.6C140.1,185.7,140.7,185.7,141,186.1z"/>
				<path class="st21" d="M137.9,199.7l-0.6,0.2c-0.4,0.2-0.9,0-1-0.4l-5.9-14.8c-0.2-0.4,0-0.9,0.4-1l0.6-0.2c0.4-0.2,0.9,0,1,0.4
					l5.9,14.8C138.5,199.1,138.3,199.5,137.9,199.7z"/>
				<path class="st21" d="M137.8,198l0.4,0.5c0.3,0.4,0.2,1-0.2,1.3l-12.5,9.6c-0.4,0.3-1,0.2-1.3-0.2l-0.4-0.5
					c-0.3-0.4-0.2-1,0.2-1.3l12.5-9.6C136.9,197.5,137.5,197.6,137.8,198z"/>
				<path class="st21" d="M134.5,211.6l-0.6,0.2c-0.5,0.2-1,0-1.2-0.5l-5.8-14.6c-0.2-0.5,0-1,0.5-1.2l0.6-0.2c0.5-0.2,1,0,1.2,0.5
					l5.8,14.6C135.2,210.9,135,211.4,134.5,211.6z"/>
				<path class="st21" d="M119.2,207.2l0.5,0.1c0.4,0.1,0.6,0.5,0.5,0.9l-1.5,5.5c-0.1,0.4-0.5,0.6-0.9,0.5l-0.5-0.1
					c-0.4-0.1-0.6-0.5-0.5-0.9l1.5-5.5C118.4,207.3,118.8,207.1,119.2,207.2z"/>
				<path class="st21" d="M122.1,207l0.5,0.2c0.4,0.1,0.6,0.5,0.5,0.9l-1.8,6.4c-0.1,0.4-0.5,0.6-0.9,0.5l-0.5-0.2
					c-0.4-0.1-0.6-0.5-0.5-0.9l1.8-6.4C121.3,207.1,121.7,206.9,122.1,207z"/>
				<path class="st21" d="M124.4,207.5l9.9,2.7c0.4,0.1,0.7,0.6,0.6,1l-0.2,0.6c-0.1,0.4-0.6,0.7-1,0.6l-9.9-2.7
					c-0.4-0.1-0.7-0.6-0.6-1l0.2-0.6C123.5,207.6,123.9,207.4,124.4,207.5z"/>
				<path class="st21" d="M133.8,219.7l-19.1-5.3c-0.4-0.1-0.6-0.5-0.5-0.9l0.1-0.5c0.1-0.4,0.5-0.6,0.9-0.5l19.1,5.3
					c0.4,0.1,0.6,0.5,0.5,0.9l-0.1,0.5C134.6,219.6,134.2,219.8,133.8,219.7z"/>
				<path class="st21" d="M133.8,219.7l-0.6-0.2c-0.5-0.1-0.7-0.6-0.6-1l2.3-8.2c0.1-0.5,0.6-0.7,1-0.6l0.6,0.2
					c0.5,0.1,0.7,0.6,0.6,1l-2.3,8.2C134.7,219.6,134.3,219.8,133.8,219.7z"/>
				<polygon class="st8" points="171.6,185.4 148.8,185.4 143.3,172.4 171.6,172.4 				"/>
				<path class="st16" d="M134.5,162.6h37.1c0.9,0,1.7,0.8,1.7,1.7v1.3c0,0.9-0.8,1.7-1.7,1.7h-37.1c-0.9,0-1.7-0.8-1.7-1.7v-1.3
					C132.8,163.4,133.6,162.6,134.5,162.6z"/>
				<path class="st12" d="M158.8,129.4h2.4c1.7,0,3.2,1.4,3.2,3.2v17.8c0,1.7-1.4,3.2-3.2,3.2h-2.4c-1.7,0-3.2-1.4-3.2-3.2v-17.8
					C155.6,130.8,157,129.4,158.8,129.4z"/>
				<path class="st12" d="M162.9,146.6l1.3,1.7c0.9,1.2,0.7,3-0.5,4l-22.8,17.5c-1.2,0.9-3,0.7-4-0.5l-1.3-1.7c-0.9-1.2-0.7-3,0.5-4
					l22.8-17.5C160.2,145.2,161.9,145.4,162.9,146.6z"/>
				<path class="st16" d="M169.4,135.4c0-5.2-4.2-9.4-9.4-9.4l0,0c-5.2,0-9.4,4.2-9.4,9.4v6.2h18.9L169.4,135.4z"/>
				<path class="st16" d="M138.2,173.1l1.7,1.3c1.2,0.9,1.5,2.7,0.6,3.9l-4.7,6.4c-0.9,1.2-2.7,1.5-3.9,0.6l-1.7-1.3
					c-1.2-0.9-1.5-2.7-0.6-3.9l4.7-6.4C135.2,172.5,137,172.2,138.2,173.1z"/>
				
					<rect x="109.1" y="104.8" transform="matrix(0.725 -0.6887 0.6887 0.725 -48.8358 108.4538)" class="st13" width="4.7" height="21.2"/>
				
					<rect x="103.6" y="111.5" transform="matrix(0.725 -0.6887 0.6887 0.725 -47.6902 105.8419)" class="st14" width="10.2" height="2.3"/>
				
					<rect x="86.1" y="62.7" transform="matrix(0.725 -0.6887 0.6887 0.725 -38.4834 85.952)" class="st17" width="4.7" height="57"/>
				<polygon class="st17" points="67.1,72.1 64,65.5 70.5,68.9 				"/>
				<path class="st15" d="M111.2,119l0.8-0.8c0.6-0.6,1.5-0.6,2.1,0l3.8,3.8c0.6,0.6,0.6,1.5,0,2.1l-0.8,0.8c-0.6,0.6-1.5,0.6-2.1,0
					l-3.8-3.8C110.6,120.5,110.6,119.6,111.2,119z"/>
				<path class="st16" d="M114.5,131.1c0-4.6-3.7-8.3-8.3-8.3l0,0c-4.5,0-8.2,3.7-8.2,8.3v5.4h16.5L114.5,131.1z"/>
				<path class="st12" d="M102.6,110.2c0,1.8-1.5,3.3-3.3,3.3s-3.3-1.5-3.3-3.3s1.5-3.3,3.3-3.3c0,0,0,0,0,0
					C101.2,106.9,102.6,108.4,102.6,110.2C102.6,110.2,102.6,110.2,102.6,110.2z"/>
				<path class="st15" d="M100.5,110.9c-0.3,0.7-1.1,0.9-1.8,0.6c-0.7-0.3-0.9-1.1-0.6-1.8c0,0,0-0.1,0.1-0.1
					c0.4-0.6,1.2-0.8,1.8-0.4C100.6,109.5,100.8,110.3,100.5,110.9z"/>
				<path class="st8" d="M126.5,179.2h-23.3c-3.6,0-6.4-2.9-6.4-6.4c0,0,0,0,0,0V141c0-10,8.1-18.1,18.1-18.1l0,0
					c10,0,18.1,8.1,18.1,18.1v31.7C132.9,176.3,130.1,179.1,126.5,179.2C126.5,179.2,126.5,179.2,126.5,179.2z"/>
				<path class="st12" d="M113.2,108.7h2.4c1.8,0,3.2,1.4,3.2,3.2v11.6c0,1.8-1.4,3.2-3.2,3.2h-2.4c-1.8,0-3.2-1.4-3.2-3.2v-11.6
					C110,110.2,111.4,108.7,113.2,108.7z"/>
				<path class="st15" d="M110,122.4c0,0,4.6,2.6,8.9,0.1V121H110V122.4z"/>
				<path class="st12" d="M110.3,86.4h8.1c5.9,0,10.6,4.8,10.6,10.6v15c0,5.9-4.8,10.6-10.6,10.6h-8.1c-5.9,0-10.6-4.8-10.6-10.6V97
					C99.7,91.2,104.5,86.4,110.3,86.4z"/>
				<path class="st8" d="M125.8,101h1.4c1,0,1.8,0.8,1.8,1.8v13.9c0,1-0.8,1.8-1.8,1.8h-1.4c-1,0-1.8-0.8-1.8-1.8v-13.9
					C124,101.8,124.8,101,125.8,101z"/>
				<path class="st15" d="M110,111.5c-0.9,0-1.5,0.7-1.5,1.5c0,0,0,0,0,0h3.1C111.5,112.2,110.9,111.5,110,111.5z"/>
				<path class="st13" d="M113.1,116.2c0.9,0,1.7,0.8,1.7,1.7c0,0.2,0,0.4-0.1,0.6h2.5c0-2.5-2-4.5-4.5-4.5c-1.6,0-3.1,0.8-3.9,2.2
					c0.1,0,0.2,0,0.4,0L113.1,116.2z"/>
				<path class="st20" d="M114.7,118.5c0.1-0.2,0.1-0.4,0.1-0.6c0-0.9-0.8-1.7-1.7-1.7h-3.9c-0.1,0-0.2,0-0.4,0
					c-0.4,0.7-0.6,1.5-0.6,2.3L114.7,118.5z"/>
				<circle class="st13" cx="103.7" cy="109.7" r="1.1"/>
				<path class="st16" d="M107.2,108h-4.8c-0.7,0-1.2-0.6-1.2-1.2l0,0c0-0.7,0.6-1.2,1.2-1.2h4.8c0.7,0,1.2,0.6,1.2,1.2l0,0
					C108.5,107.4,107.9,108,107.2,108z"/>
				<path class="st16" d="M121.2,108h-4.8c-0.7,0-1.2-0.6-1.2-1.2l0,0c0-0.7,0.6-1.2,1.2-1.2h4.8c0.7,0,1.2,0.6,1.2,1.2l0,0
					C122.5,107.4,121.9,108,121.2,108z"/>
				<circle class="st13" cx="117.5" cy="109.7" r="1.1"/>
				<path class="st8" d="M116,83.8h-3.2c-7.2,0-13,5.9-13.1,13.1v10.1h29.4V96.9C129.1,89.6,123.2,83.8,116,83.8z"/>
				<circle class="st12" cx="124.9" cy="110.2" r="3.3"/>
				<path class="st15" d="M126,110.9c-0.4,0.6-1.2,0.9-1.8,0.5s-0.9-1.2-0.5-1.8s1.2-0.9,1.8-0.5c0,0,0,0,0,0
					C126.2,109.4,126.4,110.2,126,110.9C126,110.9,126,110.9,126,110.9z"/>
				<path class="st12" d="M119.2,175.8l0.2,2.9c0.2,2.1-1.4,4-3.6,4.2l-17.8,1.4c-2.1,0.2-4-1.4-4.2-3.6l-0.2-2.9
					c-0.2-2.1,1.4-4,3.6-4.2l17.8-1.4C117.2,172.1,119,173.7,119.2,175.8z"/>
				<path class="st12" d="M78,207.8l1.1-0.7c0.6-0.4,1.3-0.6,2-0.5l4.2,0.2c0-0.1,0-0.1,0-0.2l2-7.1l1.4-5.2l4.6-16.5
					c0.7-3.1,3.7-5,6.8-4.3c3.1,0.7,5,3.7,4.3,6.8c0,0.2-0.1,0.4-0.2,0.6l-4.5,16.5l-1.4,5.2l-1.7,6.1c0.6,0.8,0.8,1.9,0.6,2.9
					l-1,3.5c-0.5,1.8-2.3,2.8-4.1,2.4l-13-3.6c-1.8-0.5-2.9-2.3-2.5-4.1C76.8,209,77.3,208.3,78,207.8z"/>
				<path class="st21" d="M92.9,181.4l10.3,2.9c0.4,0.1,0.7,0.5,0.5,1l-0.2,0.6c-0.1,0.4-0.5,0.7-1,0.5l-10.3-2.9
					c-0.4-0.1-0.7-0.5-0.5-1L92,182C92.1,181.6,92.5,181.3,92.9,181.4z"/>
				<path class="st21" d="M102.6,185.3l0.4,0.5c0.3,0.4,0.2,1-0.2,1.3l-12.5,9.6c-0.4,0.3-1,0.2-1.3-0.2l-0.4-0.5
					c-0.3-0.4-0.2-1,0.2-1.3l12.5-9.6C101.8,184.8,102.3,184.9,102.6,185.3z"/>
				<path class="st21" d="M99.5,198.9l-0.6,0.2c-0.4,0.2-0.9,0-1-0.4L92,183.8c-0.2-0.4,0-0.9,0.4-1l0.6-0.2c0.4-0.2,0.9,0,1,0.4
					l5.9,14.8C100.1,198.2,99.9,198.7,99.5,198.9z"/>
				<path class="st21" d="M99.4,197.1l0.4,0.5c0.3,0.4,0.2,1-0.2,1.3l-12.5,9.6c-0.4,0.3-1,0.2-1.3-0.2l-0.4-0.5
					c-0.3-0.4-0.2-1,0.2-1.3l12.5-9.6C98.5,196.7,99.1,196.7,99.4,197.1z"/>
				<path class="st21" d="M96.2,210.7l-0.6,0.2c-0.5,0.2-1,0-1.2-0.5l-5.8-14.6c-0.2-0.5,0-1,0.5-1.2l0.6-0.2c0.5-0.2,1,0,1.2,0.5
					l5.8,14.6C96.8,210,96.6,210.6,96.2,210.7z"/>
				<path class="st21" d="M80.8,206.4l0.5,0.1c0.4,0.1,0.6,0.5,0.5,0.9l-1.5,5.5c-0.1,0.4-0.5,0.6-0.9,0.5l-0.5-0.1
					c-0.4-0.1-0.6-0.5-0.5-0.9l1.5-5.5C80,206.5,80.4,206.2,80.8,206.4z"/>
				<path class="st21" d="M84.9,206.5l0.5,0.1c0.4,0.1,0.6,0.5,0.5,0.9l-1.8,6.4c-0.1,0.4-0.5,0.6-0.9,0.5l-0.5-0.1
					c-0.4-0.1-0.6-0.5-0.5-0.9L84,207C84.1,206.6,84.5,206.4,84.9,206.5z"/>
				<path class="st21" d="M86,206.6l9.9,2.7c0.4,0.1,0.7,0.6,0.6,1l-0.2,0.6c-0.1,0.4-0.6,0.7-1,0.6l-9.9-2.7
					c-0.4-0.1-0.7-0.6-0.6-1l0.2-0.6C85.1,206.8,85.6,206.5,86,206.6z"/>
				<path class="st21" d="M96.4,219.4l-19-5.3c-0.4-0.1-0.6-0.5-0.5-0.9l0,0l0.2-0.5c0.1-0.4,0.5-0.6,0.9-0.5l19,5.3
					c0.4,0.1,0.6,0.5,0.5,0.9l-0.2,0.5C97.2,219.3,96.8,219.5,96.4,219.4z"/>
				<path class="st21" d="M95.5,218.9l-0.6-0.2c-0.5-0.1-0.7-0.6-0.6-1l2.3-8.2c0.1-0.5,0.6-0.7,1-0.6l0.6,0.2
					c0.5,0.1,0.7,0.6,0.6,1l-2.3,8.2C96.4,218.7,95.9,219,95.5,218.9z"/>
				<polygon class="st8" points="133.2,184.5 110.4,184.5 104.9,171.6 133.2,171.6 				"/>
				<path class="st16" d="M96.2,161.8h37.1c0.9,0,1.7,0.8,1.7,1.7v1.3c0,0.9-0.8,1.7-1.7,1.7H96.2c-0.9,0-1.7-0.8-1.7-1.7v-1.3
					C94.5,162.5,95.2,161.8,96.2,161.8z"/>
				<path class="st12" d="M120.4,128.6h2.4c1.7,0,3.2,1.4,3.2,3.2v17.8c0,1.7-1.4,3.2-3.2,3.2h-2.4c-1.7,0-3.2-1.4-3.2-3.2v-17.8
					C117.2,130,118.6,128.6,120.4,128.6z"/>
				<path class="st12" d="M124.5,145.8l1.3,1.7c0.9,1.2,0.7,3-0.5,4l-22.8,17.5c-1.2,0.9-3,0.7-4-0.5l-1.3-1.7c-0.9-1.2-0.7-3,0.5-4
					l22.8-17.5C121.8,144.3,123.5,144.6,124.5,145.8z"/>
				<path class="st16" d="M131,134.5c0-5.2-4.2-9.4-9.4-9.4l0,0c-5.2,0-9.4,4.2-9.4,9.4v6.2H131V134.5z"/>
				<path class="st16" d="M99.9,172.3l1.7,1.3c1.2,0.9,1.5,2.7,0.6,3.9l-4.7,6.4c-0.9,1.2-2.7,1.5-3.9,0.6l-1.7-1.3
					c-1.2-0.9-1.5-2.7-0.6-3.9l4.7-6.4C96.9,171.7,98.6,171.4,99.9,172.3z"/>
			</g>
		</g>
	</g>
</g>
</svg>
