<svg xmlns="http://www.w3.org/2000/svg" xmlns:xlink="http://www.w3.org/1999/xlink" viewBox="0 0 234.27 379.95"><defs><style>.cls-1{fill:none;}.cls-2{fill:#f4b155;}.cls-3{fill:#fff0cc;}.cls-4{fill:#231f20;}.cls-5{clip-path:url(#clip-path);}.cls-6{fill:#a4f6ff;}.cls-7{fill:#6d4650;}.cls-8{fill:#3f272d;}.cls-9{fill:#54323a;}.cls-10{fill:#fff;}.cls-11{fill:#d1d3d4;}.cls-12{fill:#f1f2f2;}.cls-13{fill:#ffd150;}.cls-14{fill:#dd4f65;}.cls-15{fill:#e4705e;}.cls-16{fill:#f4b055;}.cls-17{fill:#4a355b;}.cls-18{fill:#6fa3ce;}.cls-19{fill:#5bc4b8;}.cls-20{fill:#82c4e8;}.cls-21{fill:#a7a9ac;}.cls-22{fill:#80eaed;}.cls-23{fill:#8bd3f2;}</style><clipPath id="clip-path"><rect class="cls-1" x="30.88" y="44.7" width="177.97" height="241.09" rx="24.71"/></clipPath></defs><g id="Layer_2" data-name="Layer 2"><g id="Layer_1-2" data-name="Layer 1"><path class="cls-2" d="M234.27,14.4V365.54A14.7,14.7,0,0,1,219.33,380H14.94A14.7,14.7,0,0,1,0,365.54V14.4C0,6.46,6.7,0,14.94,0H219.33C227.57,0,234.27,6.46,234.27,14.4ZM221.71,357.18V22.76A10.78,10.78,0,0,0,210.93,12H23.34A10.78,10.78,0,0,0,12.56,22.76V357.18A10.79,10.79,0,0,0,23.34,368H210.93A10.79,10.79,0,0,0,221.71,357.18Z"/><rect class="cls-3" x="12.56" y="11.98" width="209.16" height="355.99" rx="10.78"/><path class="cls-4" d="M36.93,342.27a2.83,2.83,0,0,1-1-2.16,5.21,5.21,0,0,1-3.67-1.85A6.63,6.63,0,0,1,31,334a6.37,6.37,0,0,1,1.54-4.57,5.84,5.84,0,0,1,4.43-1.62,5.82,5.82,0,0,1,4.41,1.62A6.33,6.33,0,0,1,42.9,334a6.41,6.41,0,0,1-1.36,4.34,5.51,5.51,0,0,1-3.91,1.79,1.34,1.34,0,0,0,.58,1.11,2.37,2.37,0,0,0,1.38.37,3.08,3.08,0,0,0,1.71-.49.34.34,0,0,1,.17-.07c.06,0,.11,0,.16.12l.52.83a.32.32,0,0,1,.06.17c0,.07-.06.14-.16.21a4.52,4.52,0,0,1-1.16.54,4.85,4.85,0,0,1-1.39.17A3.82,3.82,0,0,1,36.93,342.27Zm2.8-4.89a5.24,5.24,0,0,0,1-3.4,5.16,5.16,0,0,0-1-3.38,3.42,3.42,0,0,0-2.79-1.15,3.44,3.44,0,0,0-2.8,1.15,5.1,5.1,0,0,0-1,3.38,5.18,5.18,0,0,0,1,3.4,3.44,3.44,0,0,0,2.8,1.16A3.42,3.42,0,0,0,39.73,337.38Z"/><path class="cls-4" d="M47.06,339.65a4.16,4.16,0,0,1-1.87-1.55,4.22,4.22,0,0,1-.66-2.37v-7a.68.68,0,0,1,.15-.49.61.61,0,0,1,.49-.16h.93a.65.65,0,0,1,.5.16.64.64,0,0,1,.16.49v7.08a2.63,2.63,0,0,0,.79,2.06,3.33,3.33,0,0,0,2.28.7,3.29,3.29,0,0,0,2.26-.7,2.6,2.6,0,0,0,.8-2.06V328.7a.68.68,0,0,1,.15-.49.69.69,0,0,1,.51-.16h.91c.45,0,.68.22.68.65v7a4.12,4.12,0,0,1-.68,2.36,4.28,4.28,0,0,1-1.87,1.55,6.66,6.66,0,0,1-2.76.54A6.84,6.84,0,0,1,47.06,339.65Z"/><path class="cls-4" d="M57.26,339.76a.66.66,0,0,1-.15-.47V328.7a.68.68,0,0,1,.15-.49.61.61,0,0,1,.49-.16H65a.67.67,0,0,1,.48.14.66.66,0,0,1,.13.47v.47a.71.71,0,0,1-.13.48.63.63,0,0,1-.48.15H59.34v3.39h4.12a.67.67,0,0,1,.49.14.66.66,0,0,1,.14.47v.43a.71.71,0,0,1-.14.48.67.67,0,0,1-.49.15H59.34v3.4H65a.64.64,0,0,1,.49.15.66.66,0,0,1,.14.48v.47a.62.62,0,0,1-.14.46.68.68,0,0,1-.49.14H57.75A.65.65,0,0,1,57.26,339.76Z"/><path class="cls-4" d="M67.31,339.76a.66.66,0,0,1-.15-.47V328.7a.68.68,0,0,1,.15-.49.63.63,0,0,1,.49-.16h7.26a.64.64,0,0,1,.48.14.66.66,0,0,1,.13.47v.47a.71.71,0,0,1-.13.48.6.6,0,0,1-.48.15H69.39v3.39h4.12a.52.52,0,0,1,.63.61v.43a.71.71,0,0,1-.14.48.65.65,0,0,1-.49.15H69.39v3.4h5.66a.63.63,0,0,1,.48.15.66.66,0,0,1,.14.48v.47a.62.62,0,0,1-.14.46.67.67,0,0,1-.48.14H67.8A.67.67,0,0,1,67.31,339.76Z"/><path class="cls-4" d="M77.36,339.76a.66.66,0,0,1-.15-.47V328.7a.68.68,0,0,1,.15-.49.66.66,0,0,1,.51-.16h.8a.82.82,0,0,1,.39.07.92.92,0,0,1,.28.28l5.76,8V328.7a.68.68,0,0,1,.14-.49.65.65,0,0,1,.5-.16h.93a.65.65,0,0,1,.5.16.64.64,0,0,1,.16.49v10.59a.66.66,0,0,1-.15.47.71.71,0,0,1-.51.16h-.82a.71.71,0,0,1-.37-.07,1,1,0,0,1-.28-.27l-5.76-8v7.68a.66.66,0,0,1-.15.47.71.71,0,0,1-.51.16h-.93A.67.67,0,0,1,77.36,339.76Z"/><path class="cls-4" d="M97.39,338.56a7.53,7.53,0,0,1,0-9.15,6.84,6.84,0,0,1,8.84,0,7.53,7.53,0,0,1,0,9.15,6.84,6.84,0,0,1-8.84,0Zm7.21-1.18a5.24,5.24,0,0,0,1-3.4,5.16,5.16,0,0,0-1-3.38,4,4,0,0,0-5.59,0A5.16,5.16,0,0,0,98,334a5.24,5.24,0,0,0,1,3.4,3.95,3.95,0,0,0,5.59,0Z"/><path class="cls-4" d="M109.64,339.76a.66.66,0,0,1-.15-.47V328.7a.68.68,0,0,1,.15-.49.63.63,0,0,1,.49-.16h7.26a.64.64,0,0,1,.48.14.66.66,0,0,1,.13.47v.47a.71.71,0,0,1-.13.48.6.6,0,0,1-.48.15h-5.67v3.37h4.12a.7.7,0,0,1,.49.14.66.66,0,0,1,.14.47v.47a.71.71,0,0,1-.14.48.65.65,0,0,1-.49.15h-4.12v4.45a.66.66,0,0,1-.15.47.69.69,0,0,1-.51.16h-.93A.67.67,0,0,1,109.64,339.76Z"/><path class="cls-4" d="M128.32,339.91a6.28,6.28,0,0,1-2.14-.86c-.17-.11-.26-.22-.26-.31a.36.36,0,0,1,.08-.23l.65-1q.12-.18.21-.18a.5.5,0,0,1,.26.1,6.79,6.79,0,0,0,1.68.7,7.55,7.55,0,0,0,1.94.26,3.75,3.75,0,0,0,2-.44,1.86,1.86,0,0,0,.42-2.36,2,2,0,0,0-.75-.61,15.63,15.63,0,0,0-1.58-.68l-.45-.18a17.23,17.23,0,0,1-2.11-1,4.28,4.28,0,0,1-1.38-1.23,3.47,3.47,0,0,1,.82-4.61,6,6,0,0,1,3.57-1,9.48,9.48,0,0,1,2.34.25,5,5,0,0,1,1.71.79.46.46,0,0,1,.24.33.37.37,0,0,1-.08.22l-.63,1c-.08.12-.14.18-.19.18a.55.55,0,0,1-.26-.12,5.68,5.68,0,0,0-3.11-.8,3.19,3.19,0,0,0-1.86.45,1.64,1.64,0,0,0-.63,1.43,1.59,1.59,0,0,0,.27,1,1.94,1.94,0,0,0,.77.61c.34.17.89.4,1.64.69l.49.2a15.25,15.25,0,0,1,2.24,1,3.66,3.66,0,0,1,1.24,1.2,3.44,3.44,0,0,1,.44,1.83,3.17,3.17,0,0,1-1.26,2.65,5.8,5.8,0,0,1-3.6,1A12.55,12.55,0,0,1,128.32,339.91Z"/><path class="cls-4" d="M140.77,339.81a.65.65,0,0,1-.2-.38l-3.09-12.36a.39.39,0,0,1,0-.17c0-.2.12-.3.37-.3h1.58a.66.66,0,0,1,.41.1.54.54,0,0,1,.16.31l2,8.62,2.35-7.6a.73.73,0,0,1,.18-.32.61.61,0,0,1,.37-.09h.9a.56.56,0,0,1,.36.09.84.84,0,0,1,.19.32l2.36,7.6,1.94-8.62a.5.5,0,0,1,.17-.31.69.69,0,0,1,.4-.1h1.61c.24,0,.37.1.37.3a.65.65,0,0,1,0,.17L150,339.43a.66.66,0,0,1-.22.38.72.72,0,0,1-.42.11H148.3a.72.72,0,0,1-.42-.11.66.66,0,0,1-.22-.38l-2.37-7.83-2.35,7.83a.67.67,0,0,1-.23.38.72.72,0,0,1-.42.11h-1.08A.77.77,0,0,1,140.77,339.81Z"/><path class="cls-4" d="M155.14,338.39a8.47,8.47,0,0,1,0-10.26,7.67,7.67,0,0,1,9.92,0,8.43,8.43,0,0,1,0,10.26,7.67,7.67,0,0,1-9.92,0Zm8.1-1.32a7.24,7.24,0,0,0,0-7.61,3.85,3.85,0,0,0-3.13-1.29,3.9,3.9,0,0,0-3.15,1.29,7.24,7.24,0,0,0,0,7.61,3.88,3.88,0,0,0,3.15,1.3A3.82,3.82,0,0,0,163.24,337.07Z"/><path class="cls-4" d="M168.89,339.74a.75.75,0,0,1-.17-.53V327.33a.79.79,0,0,1,.17-.55.72.72,0,0,1,.56-.18h5.11a5,5,0,0,1,3.45,1.06,4,4,0,0,1,1.19,3.13,4.1,4.1,0,0,1-.65,2.34,3.93,3.93,0,0,1-1.88,1.46l2.17,4.82a.48.48,0,0,1,.06.21c0,.2-.12.3-.35.3h-1.61a.83.83,0,0,1-.37-.07.57.57,0,0,1-.21-.29l-2-4.64h-3.15v4.29a.75.75,0,0,1-.17.53.76.76,0,0,1-.58.18h-1A.72.72,0,0,1,168.89,339.74Zm5.16-6.7a3.16,3.16,0,0,0,2-.52,2.13,2.13,0,0,0,.65-1.73,2.27,2.27,0,0,0-.59-1.72,2.5,2.5,0,0,0-1.78-.55h-3.11V333Z"/><path class="cls-4" d="M181.28,339.74a.75.75,0,0,1-.17-.53V327.33a.79.79,0,0,1,.17-.55.74.74,0,0,1,.56-.18h3.91a7.26,7.26,0,0,1,5.06,1.59q1.75,1.59,1.76,5.07,0,6.66-6.82,6.66h-3.91A.74.74,0,0,1,181.28,339.74Zm4.63-1.72a4.16,4.16,0,0,0,3.12-1.08,7,7,0,0,0,0-7.35,4.2,4.2,0,0,0-3.12-1.07h-2.29V338Z"/><path class="cls-4" d="M195.63,339.91a6.28,6.28,0,0,1-2.14-.86c-.17-.11-.26-.22-.26-.31a.36.36,0,0,1,.08-.23l.65-1q.12-.18.21-.18a.5.5,0,0,1,.26.1,6.79,6.79,0,0,0,1.68.7,7.55,7.55,0,0,0,1.94.26,3.77,3.77,0,0,0,2-.44,1.86,1.86,0,0,0,.42-2.36,2,2,0,0,0-.75-.61,15.63,15.63,0,0,0-1.58-.68l-.45-.18a17.23,17.23,0,0,1-2.11-1,4.28,4.28,0,0,1-1.38-1.23,3.15,3.15,0,0,1-.55-1.86,3.18,3.18,0,0,1,1.36-2.75,6,6,0,0,1,3.58-1,9.48,9.48,0,0,1,2.34.25,5,5,0,0,1,1.71.79.44.44,0,0,1,.23.33.36.36,0,0,1-.07.22l-.63,1c-.08.12-.14.18-.2.18a.58.58,0,0,1-.25-.12,5.7,5.7,0,0,0-3.11-.8,3.15,3.15,0,0,0-1.86.45,1.64,1.64,0,0,0-.63,1.43,1.66,1.66,0,0,0,.26,1,2,2,0,0,0,.78.61c.34.17.88.4,1.64.69l.49.2a15.06,15.06,0,0,1,2.23,1,3.6,3.6,0,0,1,1.25,1.2,3.44,3.44,0,0,1,.44,1.83,3.15,3.15,0,0,1-1.27,2.65,5.77,5.77,0,0,1-3.59,1A12.48,12.48,0,0,1,195.63,339.91Z"/><g class="cls-5"><polygon class="cls-6" points="208.85 19.46 24.31 19.46 24.31 191.61 24.31 211.55 24.31 305.9 208.75 305.9 208.75 211.55 208.85 211.55 208.85 19.46"/><polygon class="cls-7" points="222.12 137.54 17.61 137.54 17.61 237.44 17.61 249.02 17.61 303.77 222.01 303.77 222.01 249.02 222.12 249.02 222.12 137.54"/><polygon class="cls-8" points="91.22 94.52 99.49 89.86 106.12 93.84 107.03 89.86 119.14 92.19 118.55 88.7 129.06 88.7 101.23 79.77 83.92 91.86 92.38 89.86 91.22 94.52"/><polygon class="cls-8" points="154.69 92.63 163.53 90.6 169.32 95.1 169.32 91.12 175.47 93.16 175.47 89.53 191.23 92.35 168.39 83.61 153.36 89.01 158.75 88.57 154.69 92.63"/><polygon class="cls-8" points="191.23 92.35 175.47 89.53 175.47 93.16 169.32 91.12 169.32 95.1 163.53 90.6 154.69 92.63 158.75 88.57 153.36 89.01 142.34 92.97 129.06 88.7 118.55 88.7 119.14 92.19 107.03 89.86 106.12 93.84 99.49 89.86 91.22 94.52 92.38 89.86 83.92 91.86 77.13 96.59 70.39 95.26 51.84 94.52 63.42 100.67 47.98 97.03 49.27 100.67 43.35 97.03 33.32 100.67 35.89 97.03 24.06 98.88 20.48 100.8 20.48 143.46 217.8 143.46 217.8 102.52 191.23 92.35"/><polygon class="cls-8" points="33.32 100.67 43.35 97.03 49.27 100.67 47.98 97.03 63.42 100.67 51.84 94.52 70.39 95.26 41.47 89.53 24.06 98.88 35.89 97.03 33.32 100.67"/><path class="cls-9" d="M58.77,104s7.94-4.58,13.77,1.25c0,0,8,4.74,14.7-1.94A15.06,15.06,0,0,1,90.52,100L69,91.12,43.35,102C47.32,104.43,53.16,106.75,58.77,104Z"/><path class="cls-9" d="M202.91,98.77c-.12,0-1.47-.87-2.66-1.7l-12.68,5.45-19.69-8-.08.06a16.76,16.76,0,0,1-6.13,1.71c-4.66.58-9.66-1.27-14,1.29-2.74,1.61-5.43,3-8.68,3.08a24.85,24.85,0,0,1-10.36-1.89c-.12,0-1.53-.91-2.75-1.76L108,107.1,90.52,100a15.06,15.06,0,0,0-3.28,3.34c-6.68,6.68-14.7,1.94-14.7,1.94C66.71,99.41,58.77,104,58.77,104c-5.61,2.76-11.45.44-15.42-2l-22.87,9.66v31.85H217.8V99.69a13.52,13.52,0,0,1-4.53,1A24.83,24.83,0,0,1,202.91,98.77Z"/><path class="cls-9" d="M139,100.66c3.25-.1,5.94-1.47,8.68-3.08,4.34-2.56,9.34-.71,14-1.29a16.76,16.76,0,0,0,6.13-1.71l.08-.06-21.82-8.87L125.88,97c1.22.85,2.63,1.71,2.75,1.76A24.85,24.85,0,0,0,139,100.66Z"/><path class="cls-9" d="M200.25,97.07c1.19.83,2.54,1.65,2.66,1.7a24.83,24.83,0,0,0,10.36,1.89,13.52,13.52,0,0,0,4.53-1V89.53Z"/><path class="cls-10" d="M47.1,71.66H75.48A3.56,3.56,0,0,1,79,75.23v.16A3.57,3.57,0,0,1,75.48,79H47.1a3.56,3.56,0,0,1-3.56-3.56v-.16A3.57,3.57,0,0,1,47.1,71.66Z" transform="translate(0.87 -0.7) rotate(0.66)"/><path class="cls-10" d="M66.81,70a9.06,9.06,0,1,1-9-9.16A9.05,9.05,0,0,1,66.81,70Z"/><path class="cls-10" d="M74.14,72.65a6.46,6.46,0,1,1-6.38-6.53A6.46,6.46,0,0,1,74.14,72.65Z"/><path class="cls-10" d="M150,74.4l20.43-.24A2.66,2.66,0,0,0,173,71.49h0a2.66,2.66,0,0,0-2.67-2.61l-20.43.24a2.65,2.65,0,0,0-2.61,2.67h0A2.66,2.66,0,0,0,150,74.4Z"/><circle class="cls-10" cx="162.69" cy="67.69" r="6.56" transform="translate(-5.66 15.63) rotate(-5.41)"/><path class="cls-10" d="M150.83,69.71A4.67,4.67,0,1,0,155.45,65,4.68,4.68,0,0,0,150.83,69.71Z"/><rect class="cls-9" x="22.03" y="243.22" width="173.72" height="36.35" rx="18.18"/><rect class="cls-11" x="82.78" y="230.29" width="75.99" height="14.6"/><rect class="cls-11" x="69.99" y="193.34" width="12.78" height="51.8"/><rect class="cls-11" x="158.76" y="193.34" width="12.78" height="51.8"/><path class="cls-11" d="M86.85,103.28v83h68.69v-83Zm51.36,5.27,5.44,5.44-5.44,5.44L132.77,114Zm-20.66,36.72,5.43,5.44-5.43,5.44-5.44-5.44Zm-6.89,3.5-5.44-5.44,5.44-5.44,5.44,5.44Zm8.33-5.44,5.44-5.44,5.44,5.44-5.44,5.44Zm12.33,1.94,5.44,5.44-5.44,5.44-5.44-5.44ZM125.88,136l5.44-5.44,5.44,5.44-5.44,5.44Zm-1.45-1.94L119,128.66l5.44-5.44,5.44,5.44ZM123,136l-5.43,5.44L112.11,136l5.44-5.44Zm-12.32-1.94-5.44-5.44,5.44-5.44,5.44,5.44ZM109.21,136l-5.44,5.44L98.33,136l5.44-5.44Zm0,14.67-5.44,5.44-5.44-5.44,5.44-5.44Zm0,14.67-5.44,5.44-5.44-5.44,5.44-5.44Zm-4-7.38,5.44-5.44L116.1,158l-5.44,5.44Zm12.33,1.94,5.43,5.44-5.43,5.44-5.44-5.44ZM119,158l5.44-5.44,5.44,5.44-5.44,5.44Zm12.33,1.94,5.44,5.44-5.44,5.44-5.44-5.44Zm1.45-1.94,5.44-5.44,5.44,5.44-5.44,5.44Zm0-14.67,5.44-5.44,5.44,5.44-5.44,5.44Zm0-14.67,5.44-5.44,5.44,5.44-5.44,5.44Zm4-7.29-5.44,5.44-5.44-5.44,5.44-5.44Zm-12.33-12.82,5.44,5.44-5.44,5.44L119,114ZM123,121.37l-5.43,5.44-5.44-5.44,5.44-5.44Zm-12.32-12.82L116.1,114l-5.44,5.44L105.22,114Zm-1.45,12.82-5.44,5.44-5.44-5.44,5.44-5.44ZM96.89,108.55l5.43,5.44-5.43,5.44L91.45,114Zm0,14.67,5.43,5.44-5.43,5.44-5.44-5.44Zm0,14.67,5.43,5.44-5.43,5.44-5.44-5.44Zm0,14.67,5.43,5.44-5.43,5.44L91.45,158Zm-5.44,20.11,5.44-5.44,5.43,5.44-5.43,5.44Zm12.32,12.82-5.44-5.44,5.44-5.44,5.44,5.44Zm1.45-12.82,5.44-5.44,5.44,5.44-5.44,5.44Zm12.33,12.82-5.44-5.44,5.44-5.44,5.43,5.44ZM119,172.67l5.44-5.44,5.44,5.44-5.44,5.44Zm12.33,12.82-5.44-5.44,5.44-5.44,5.44,5.44Zm1.45-12.82,5.44-5.44,5.44,5.44-5.44,5.44Zm12.32,12.82-5.43-5.44,5.43-5.44,5.44,5.44Zm0-14.67-5.43-5.44,5.43-5.44,5.44,5.44Zm0-14.67-5.43-5.44,5.43-5.44,5.44,5.44Zm0-14.67L139.66,136l5.43-5.44,5.44,5.44Zm0-14.67-5.43-5.44,5.43-5.44,5.44,5.44Z"/><rect class="cls-12" x="73.8" y="193.34" width="12.78" height="51.8"/><rect class="cls-4" x="85.35" y="179.12" width="71.07" height="15.76"/><polygon class="cls-11" points="90.27 99.14 86.85 103.28 93.69 103.28 90.27 99.14"/><polygon class="cls-11" points="97.13 99.14 93.72 103.28 100.55 103.28 97.13 99.14"/><polygon class="cls-11" points="103.99 99.14 100.58 103.28 107.41 103.28 103.99 99.14"/><polygon class="cls-11" points="110.85 99.14 107.44 103.28 114.27 103.28 110.85 99.14"/><polygon class="cls-11" points="117.71 99.14 114.3 103.28 121.13 103.28 117.71 99.14"/><polygon class="cls-11" points="124.68 99.24 121.35 103.28 128.02 103.28 124.68 99.24"/><polygon class="cls-11" points="131.43 99.14 128.02 103.28 134.85 103.28 131.43 99.14"/><polygon class="cls-11" points="138.29 99.14 134.88 103.28 141.71 103.28 138.29 99.14"/><polygon class="cls-11" points="145.16 99.14 141.74 103.28 148.57 103.28 145.16 99.14"/><polygon class="cls-11" points="152.01 99.14 148.6 103.28 155.43 103.28 152.01 99.14"/><rect class="cls-12" x="155.28" y="193.34" width="12.78" height="51.8"/><rect class="cls-13" x="86.58" y="213.43" width="68.7" height="13.81"/><path class="cls-13" d="M94.78,261.81l1-1.1a3.89,3.89,0,0,1,2.08-1.2l4.77-1c0-.08,0-.15,0-.22v-34.5a6.57,6.57,0,1,1,13.13,0v33.31a3.9,3.9,0,0,1,1.53,3.11v4.26a3.92,3.92,0,0,1-3.92,3.92H97.69A3.93,3.93,0,0,1,94.78,261.81Z"/><path class="cls-13" d="M129.43,257.08V223.77a6.57,6.57,0,1,1,13.13,0v34.5c0,.07,0,.14,0,.22l4.77,1a3.93,3.93,0,0,1,2.08,1.2l1,1.1a3.92,3.92,0,0,1-2.9,6.56H131.82a3.93,3.93,0,0,1-3.93-3.92v-4.26A3.91,3.91,0,0,1,129.43,257.08Z"/><rect class="cls-12" x="155.43" y="98.77" width="9.72" height="80.02"/><rect class="cls-14" x="86.58" y="193.34" width="68.7" height="20.08"/><rect class="cls-15" x="106.49" y="121.61" width="32.15" height="33.35"/><rect class="cls-15" x="96.65" y="60.97" width="51.07" height="73.49" rx="16.05"/><rect class="cls-13" x="115.15" y="121.59" width="12.34" height="20.53" rx="3.88"/><path class="cls-13" d="M105.74,107.14A6.11,6.11,0,1,1,99.63,101,6.11,6.11,0,0,1,105.74,107.14Z"/><circle class="cls-16" cx="99.63" cy="107.14" r="2.98"/><path class="cls-13" d="M150.85,107.14a6.11,6.11,0,1,1-6.1-6.11A6.1,6.1,0,0,1,150.85,107.14Z"/><circle class="cls-16" cx="144.75" cy="107.14" r="2.98"/><rect class="cls-16" x="99.98" y="81.05" width="44.41" height="48.16" rx="17.02"/><path class="cls-13" d="M99.63,95v10.08c0,12.06,10.15,21.92,22.56,21.92h0c12.41,0,22.56-9.86,22.56-21.92V95a21.18,21.18,0,0,0-.74-5.55H100.37A21.18,21.18,0,0,0,99.63,95Z"/><rect class="cls-17" x="132.26" y="104.16" width="2.81" height="5.23" rx="1.08"/><rect class="cls-17" x="110" y="104.16" width="2.81" height="5.23" rx="1.08"/><rect class="cls-12" x="76.38" y="98.77" width="10.47" height="80.02"/><path class="cls-18" d="M171.35,169h0a7.65,7.65,0,0,0-1.47-10.69L146.6,140.65a7.65,7.65,0,0,0-10.69,1.48h0a7.65,7.65,0,0,0,1.48,10.69l23.27,17.63A7.65,7.65,0,0,0,171.35,169Z"/><rect class="cls-17" x="158.93" y="150.04" width="8.51" height="32.51" transform="translate(326.37 332.59) rotate(180)"/><path class="cls-13" d="M157.37,174.39H161a2.36,2.36,0,0,0,2.35-2.36h0a2.36,2.36,0,0,0-2.35-2.35h-3.59A2.36,2.36,0,0,0,155,172h0A2.36,2.36,0,0,0,157.37,174.39Z"/><rect class="cls-13" x="160.96" y="163.42" width="9.93" height="16.23" rx="3.85" transform="translate(331.86 343.06) rotate(180)"/><rect class="cls-19" x="154.01" y="158.62" width="18.6" height="3.52" transform="translate(326.63 320.76) rotate(180)"/><path class="cls-15" d="M122.19,72.61h0a22.64,22.64,0,0,0-21.82,16.85H144A22.65,22.65,0,0,0,122.19,72.61Z"/><path class="cls-13" d="M138.8,139.81a29.59,29.59,0,0,0-17.87-6h0a29.56,29.56,0,0,0-17.87,6l12.87,2.68a23.22,23.22,0,0,0,9.32,0Z"/><path class="cls-20" d="M66.73,168.41h0a8,8,0,0,1,1.55-11.23L90.1,140.65a8,8,0,0,1,11.24,1.55h0a8,8,0,0,1-1.55,11.23L78,170A8,8,0,0,1,66.73,168.41Z"/><rect class="cls-15" x="127.8" y="98.72" width="11.76" height="3.08" rx="1.18" transform="translate(-5.93 8.43) rotate(-3.54)"/><rect class="cls-15" x="105.73" y="98.72" width="11.76" height="3.08" rx="1.18" transform="translate(216.83 207.22) rotate(-176.46)"/><path class="cls-16" d="M119.81,110H120l3.58-.06h1.08a.57.57,0,0,0,.54-.7,3.09,3.09,0,0,0-.81-1.43,3,3,0,0,0-4.81.67,3,3,0,0,0-.32.81A.6.6,0,0,0,119.81,110Zm.33-1.72Z"/><path class="cls-20" d="M77.9,163.38,62.18,142.63l-9.94,6.31,16.31,21.52a5.59,5.59,0,0,0,7.82,1.08l.45-.34A5.6,5.6,0,0,0,77.9,163.38Z"/><path class="cls-13" d="M57.84,136.9A5.6,5.6,0,0,0,50,135.82l-.45.34A5.6,5.6,0,0,0,48.49,144l3.75,5,9.94-6.31Z"/><rect class="cls-12" x="65.94" y="170.5" width="14.2" height="3.41" rx="1.07" transform="translate(-108.4 126.7) rotate(-52.94)"/><circle class="cls-12" cx="55.88" cy="159.24" r="13.26" transform="translate(-112.32 145.45) rotate(-65.98)"/><path class="cls-12" d="M48.43,170.24s9,5.77,20,5.24l6.5-8.6s-2.83-11.46-11.75-18.74"/><path class="cls-12" d="M36.1,155.14s2.81-.13,6.56,3l8.56-11.33-4.9-5.22"/><path class="cls-11" d="M46.32,141.61c.8.6-.84,4.13-3.66,7.86s-5.76,6.27-6.56,5.67.83-4.13,3.65-7.87S45.51,141,46.32,141.61Z"/><path class="cls-21" d="M45.08,143.24c.62.46-.63,3.13-2.77,6s-4.37,4.76-5,4.29.63-3.13,2.77-6S44.47,142.78,45.08,143.24Z"/><path class="cls-12" d="M62.29,150.69a1.74,1.74,0,0,1-.39-.05,1.53,1.53,0,0,1-1.09-1.87,7.8,7.8,0,0,0-1.46-6.8,6.29,6.29,0,0,0-5.2-.49,2.65,2.65,0,0,0-1.85,1.9,5.27,5.27,0,0,0,.35,2.91,1.53,1.53,0,0,1-2.87,1.08,8.45,8.45,0,0,1-.47-4.68,5.71,5.71,0,0,1,3.77-4.09,9.34,9.34,0,0,1,8.21,1l.22.19a10.91,10.91,0,0,1,2.26,9.77A1.54,1.54,0,0,1,62.29,150.69Z"/><rect class="cls-13" x="54.39" y="138.06" width="8.31" height="4.6" rx="1.44" transform="translate(-72.87 63.82) rotate(-37.14)"/><path class="cls-22" d="M36.79,154.12s-11.64,51,10.57,100.36c0,0-14.43,14.85-32.95,0,0,0,7.15-106.11,27.63-105.27C42,149.21,39,154.28,36.79,154.12Z"/><rect class="cls-12" x="9.44" y="252.95" width="40" height="6.7" rx="2.11"/><rect class="cls-12" x="13.06" y="259.65" width="35.63" height="6.39" rx="2.01"/><path class="cls-12" d="M18.05,262.85a2.5,2.5,0,1,1-2.49-2.5A2.49,2.49,0,0,1,18.05,262.85Z"/><circle class="cls-12" cx="50.68" cy="255.44" r="7.4"/><circle class="cls-12" cx="10.43" cy="252.95" r="7.4" transform="translate(-238.76 208.29) rotate(-77.48)"/><path class="cls-12" d="M22.55,253A2.55,2.55,0,1,1,20,250.4,2.55,2.55,0,0,1,22.55,253Z"/><path class="cls-12" d="M43.84,253a3.22,3.22,0,1,1-3.22-3.22A3.22,3.22,0,0,1,43.84,253Z"/><circle class="cls-12" cx="13.06" cy="261.08" r="3.65"/><polygon class="cls-11" points="87.92 178.79 70.16 178.79 61.27 186.67 70.16 194.55 87.92 194.55 96.8 186.67 87.92 178.79"/><polygon class="cls-12" points="91.87 178.79 74.11 178.79 65.23 186.67 74.11 194.55 91.87 194.55 100.76 186.67 91.87 178.79"/><polygon class="cls-11" points="87.92 243.89 70.16 243.89 61.27 251.77 70.16 259.65 87.92 259.65 96.8 251.77 87.92 243.89"/><polygon class="cls-12" points="91.87 243.89 74.11 243.89 65.23 251.77 74.11 259.65 91.87 259.65 100.76 251.77 91.87 243.89"/><polygon class="cls-11" points="154.09 178.79 171.86 178.79 180.74 186.67 171.86 194.55 154.09 194.55 145.21 186.67 154.09 178.79"/><polygon class="cls-12" points="150.14 178.79 167.9 178.79 176.79 186.67 167.9 194.55 150.14 194.55 141.26 186.67 150.14 178.79"/><polygon class="cls-11" points="154.09 245.07 171.86 245.07 180.74 252.95 171.86 260.83 154.09 260.83 145.21 252.95 154.09 245.07"/><polygon class="cls-12" points="150.14 245.07 167.9 245.07 176.79 252.95 167.9 260.83 150.14 260.83 141.26 252.95 150.14 245.07"/><polygon class="cls-12" points="160.29 92.99 155.43 98.77 165.16 98.77 160.29 92.99"/><polygon class="cls-1" points="127.27 114.24 127.28 114.25 127.27 114.25 127.27 114.24"/><rect class="cls-16" x="114.94" y="115.42" width="14.5" height="2.51" rx="0.79"/><path class="cls-15" d="M97.78,97.08s13.8,4.33,25.2-8.76c0,0,2.66,8.32,23.21,10V84H97.78Z"/><rect class="cls-16" x="93.37" y="81.11" width="57.64" height="8.73" rx="3.35"/><rect class="cls-13" x="93.37" y="79.2" width="57.64" height="8.73" rx="3.35"/><polygon class="cls-13" points="136.67 73.74 130.36 63.12 124.44 73.74 130.36 84.36 136.67 73.74"/><polygon class="cls-13" points="151.85 73.74 146.92 65.45 142.3 73.74 146.92 82.03 151.85 73.74"/><polygon class="cls-13" points="101.95 73.74 96.93 65.3 92.22 73.74 96.93 82.18 101.95 73.74"/><polygon class="cls-13" points="119.95 73.74 113.64 63.12 107.71 73.74 113.64 84.36 119.95 73.74"/><polygon class="cls-12" points="81.62 92.99 76.38 98.77 86.85 98.77 81.62 92.99"/><polygon class="cls-10" points="163.18 60.67 158.93 71.25 158.93 158.72 167.44 158.72 167.44 71.25 163.18 60.67"/><path class="cls-20" d="M129.87,135.21l-8.94,6.93L113,134.9C98.42,138,91.23,153.84,91.23,163.54v35.4h59.4v-35.4C150.63,153.84,143.24,138.75,129.87,135.21Z"/><path class="cls-23" d="M162.24,274.16H78.92L72.69,211.1a30.79,30.79,0,0,1,30.78-30.79H136.8a30.79,30.79,0,0,1,30.78,30.79Z"/></g><path class="cls-16" d="M129.82,153.69a2.11,2.11,0,0,1,2.18,0"/></g></g></svg>