<svg xmlns="http://www.w3.org/2000/svg" xmlns:xlink="http://www.w3.org/1999/xlink" viewBox="0 0 234.27 379.95"><defs><style>.cls-1{fill:none;}.cls-2{fill:#f4b155;}.cls-3{fill:#fff0cc;}.cls-4{fill:#231f20;}.cls-5{clip-path:url(#clip-path);}.cls-6{fill:#a4f6ff;}.cls-7{fill:#6d4650;}.cls-8{fill:#3f272d;}.cls-9{fill:#fff;}.cls-10{fill:#54323a;}.cls-11{fill:#f1f2f2;}.cls-12{fill:#bfbfbf;}.cls-13{fill:#d1d3d4;}.cls-14{fill:#ffd150;}.cls-15{fill:#a9a9aa;}.cls-16{fill:#dd4f65;}.cls-17{fill:#e4705e;}.cls-18{fill:#f5b155;}.cls-19{fill:#4a355b;}.cls-20{fill:#5bc4b8;}.cls-21{fill:#f4b055;}.cls-22{fill:#ee915b;}</style><clipPath id="clip-path"><rect class="cls-1" x="28.15" y="44.7" width="177.97" height="241.09" rx="24.71"/></clipPath></defs><g id="Layer_2" data-name="Layer 2"><g id="Layer_1-2" data-name="Layer 1"><path class="cls-2" d="M234.27,14.4V365.54A14.7,14.7,0,0,1,219.33,380H14.94A14.7,14.7,0,0,1,0,365.54V14.4C0,6.46,6.7,0,14.94,0H219.33C227.57,0,234.27,6.46,234.27,14.4ZM221.71,357.18V22.76A10.78,10.78,0,0,0,210.93,12H23.34A10.78,10.78,0,0,0,12.56,22.76V357.18A10.79,10.79,0,0,0,23.34,368H210.93A10.79,10.79,0,0,0,221.71,357.18Z"/><rect class="cls-3" x="12.56" y="11.98" width="209.16" height="355.99" rx="10.78"/><path class="cls-4" d="M36.1,339.74a.75.75,0,0,1-.16-.53V327.33a.79.79,0,0,1,.16-.55.74.74,0,0,1,.56-.18h1a.63.63,0,0,1,.74.73v11.88a.75.75,0,0,1-.16.53.77.77,0,0,1-.58.18h-1A.74.74,0,0,1,36.1,339.74Zm7.89.14a.67.67,0,0,1-.22-.18L39.05,334a1.6,1.6,0,0,1-.25-.37.81.81,0,0,1-.08-.41.82.82,0,0,1,.07-.39,2.32,2.32,0,0,1,.26-.39l4.6-5.62a.53.53,0,0,1,.24-.2,1.46,1.46,0,0,1,.37,0h1.8a.29.29,0,0,1,.21.08.24.24,0,0,1,.08.2.37.37,0,0,1-.12.27l-5.07,6.09,5.19,6.13a.37.37,0,0,1,.12.27.28.28,0,0,1-.08.2.29.29,0,0,1-.21.08H44.32A1.22,1.22,0,0,1,44,339.88Z"/><path class="cls-4" d="M48.52,339.74a.71.71,0,0,1-.17-.53V327.33a.74.74,0,0,1,.17-.55.71.71,0,0,1,.55-.18h1a.78.78,0,0,1,.57.18.74.74,0,0,1,.17.55v11.88a.75.75,0,0,1-.16.53.77.77,0,0,1-.58.18h-1A.71.71,0,0,1,48.52,339.74Z"/><path class="cls-4" d="M53.33,339.74a.75.75,0,0,1-.17-.53V327.33a.79.79,0,0,1,.17-.55.76.76,0,0,1,.58-.18h.9a1,1,0,0,1,.43.08.86.86,0,0,1,.31.32L62,336v-8.63a.79.79,0,0,1,.17-.55.74.74,0,0,1,.56-.18h1a.64.64,0,0,1,.74.73v11.88a.63.63,0,0,1-.74.71h-.92a.71.71,0,0,1-.73-.38l-6.46-8.94v8.61a.63.63,0,0,1-.74.71h-1A.74.74,0,0,1,53.33,339.74Z"/><path class="cls-4" d="M68.26,338.41a7,7,0,0,1,5.15-12.1,10.83,10.83,0,0,1,2.48.27,6.06,6.06,0,0,1,1.92.79c.12.08.18.16.18.25a.52.52,0,0,1-.08.24l-.57,1c-.08.12-.15.18-.23.18a.72.72,0,0,1-.26-.1,6.43,6.43,0,0,0-3.17-.74,4.75,4.75,0,0,0-3.5,1.26,5.18,5.18,0,0,0-1.27,3.83,5.3,5.3,0,0,0,1.23,3.84,4.55,4.55,0,0,0,3.39,1.25,8.43,8.43,0,0,0,1.52-.13,4.22,4.22,0,0,0,1.22-.36v-3.62H73.68a.75.75,0,0,1-.55-.17.79.79,0,0,1-.15-.54V333a.69.69,0,0,1,.15-.51.8.8,0,0,1,.55-.15h4.13a.82.82,0,0,1,.62.2,1,1,0,0,1,.19.64v5.17a1.22,1.22,0,0,1-.06.44.54.54,0,0,1-.26.26,9.07,9.07,0,0,1-4.89,1.14A7,7,0,0,1,68.26,338.41Z"/><path class="cls-4" d="M89.51,338.39a8.47,8.47,0,0,1,0-10.26,7.67,7.67,0,0,1,9.92,0,8.43,8.43,0,0,1,0,10.26,7.67,7.67,0,0,1-9.92,0Zm8.1-1.32a7.3,7.3,0,0,0,0-7.61,4.47,4.47,0,0,0-6.28,0,7.19,7.19,0,0,0,0,7.61,4.44,4.44,0,0,0,6.28,0Z"/><path class="cls-4" d="M103.25,339.74a.75.75,0,0,1-.16-.53V327.33a.79.79,0,0,1,.16-.55.74.74,0,0,1,.56-.18H112a.71.71,0,0,1,.53.16.75.75,0,0,1,.15.53v.53a.83.83,0,0,1-.15.54.67.67,0,0,1-.53.16h-6.37v3.78h4.62a.74.74,0,0,1,.55.16.7.7,0,0,1,.16.53v.52a.6.6,0,0,1-.71.71h-4.62v5a.75.75,0,0,1-.16.53.77.77,0,0,1-.58.18h-1A.74.74,0,0,1,103.25,339.74Z"/><path class="cls-4" d="M123.83,339.91a6.28,6.28,0,0,1-2.14-.86c-.17-.11-.26-.22-.26-.31a.36.36,0,0,1,.08-.23l.65-1c.07-.12.15-.18.21-.18a.5.5,0,0,1,.26.1,6.79,6.79,0,0,0,1.68.7,7.55,7.55,0,0,0,1.94.26,3.71,3.71,0,0,0,2-.44,1.57,1.57,0,0,0,.68-1.42,1.64,1.64,0,0,0-.25-.94,2,2,0,0,0-.75-.61,15.63,15.63,0,0,0-1.58-.68l-.45-.18a17.23,17.23,0,0,1-2.11-1,4.28,4.28,0,0,1-1.38-1.23,3.15,3.15,0,0,1-.55-1.86,3.18,3.18,0,0,1,1.36-2.75,6,6,0,0,1,3.58-1,9.48,9.48,0,0,1,2.34.25,5.08,5.08,0,0,1,1.71.79.44.44,0,0,1,.23.33.36.36,0,0,1-.07.22l-.63,1c-.08.12-.14.18-.2.18a.58.58,0,0,1-.25-.12,5.7,5.7,0,0,0-3.11-.8,3.15,3.15,0,0,0-1.86.45,1.64,1.64,0,0,0-.63,1.43,1.66,1.66,0,0,0,.26,1,2,2,0,0,0,.78.61c.34.17.88.4,1.64.69l.49.2a15.06,15.06,0,0,1,2.23,1,3.6,3.6,0,0,1,1.25,1.2,3.44,3.44,0,0,1,.44,1.83,3.15,3.15,0,0,1-1.27,2.65,5.77,5.77,0,0,1-3.59,1A12.41,12.41,0,0,1,123.83,339.91Z"/><path class="cls-4" d="M136.28,339.81a.56.56,0,0,1-.2-.38L133,327.07a.65.65,0,0,1,0-.17c0-.2.13-.3.37-.3h1.59a.68.68,0,0,1,.41.1.54.54,0,0,1,.16.31l2,8.62,2.35-7.6a.73.73,0,0,1,.18-.32.56.56,0,0,1,.36-.09h.9a.61.61,0,0,1,.37.09.73.73,0,0,1,.18.32l2.37,7.6L146.1,327a.5.5,0,0,1,.17-.31.67.67,0,0,1,.4-.1h1.6c.25,0,.37.1.37.3a.76.76,0,0,1,0,.17l-3.12,12.36a.57.57,0,0,1-.64.49h-1.06a.72.72,0,0,1-.42-.11.67.67,0,0,1-.23-.38l-2.37-7.83-2.35,7.83a.66.66,0,0,1-.22.38.72.72,0,0,1-.42.11h-1.08A.77.77,0,0,1,136.28,339.81Z"/><path class="cls-4" d="M150.65,338.39a8.47,8.47,0,0,1,0-10.26,7.67,7.67,0,0,1,9.92,0,8.43,8.43,0,0,1,0,10.26,7.67,7.67,0,0,1-9.92,0Zm8.1-1.32a7.3,7.3,0,0,0,0-7.61,4.47,4.47,0,0,0-6.28,0,7.24,7.24,0,0,0,0,7.61,4.44,4.44,0,0,0,6.28,0Z"/><path class="cls-4" d="M164.4,339.74a.71.71,0,0,1-.17-.53V327.33a.74.74,0,0,1,.17-.55.71.71,0,0,1,.55-.18h5.11a5.06,5.06,0,0,1,3.46,1.06,4,4,0,0,1,1.18,3.13,4.1,4.1,0,0,1-.64,2.34,3.93,3.93,0,0,1-1.88,1.46l2.17,4.82a.48.48,0,0,1,.06.21c0,.2-.12.3-.35.3h-1.61a.83.83,0,0,1-.37-.07.64.64,0,0,1-.22-.29l-2-4.64h-3.16v4.29a.75.75,0,0,1-.16.53.77.77,0,0,1-.58.18h-1A.71.71,0,0,1,164.4,339.74Zm5.15-6.7a3.17,3.17,0,0,0,2-.52,2.13,2.13,0,0,0,.65-1.73,2.27,2.27,0,0,0-.59-1.72,2.51,2.51,0,0,0-1.78-.55h-3.12V333Z"/><path class="cls-4" d="M176.79,339.74a.75.75,0,0,1-.17-.53V327.33a.79.79,0,0,1,.17-.55.72.72,0,0,1,.56-.18h3.91a7.28,7.28,0,0,1,5.06,1.59q1.76,1.59,1.75,5.07,0,6.66-6.81,6.66h-3.91A.72.72,0,0,1,176.79,339.74Zm4.63-1.72a4.16,4.16,0,0,0,3.12-1.08,7,7,0,0,0,0-7.35,4.2,4.2,0,0,0-3.12-1.07h-2.29V338Z"/><path class="cls-4" d="M191.14,339.91a6.34,6.34,0,0,1-2.15-.86c-.17-.11-.25-.22-.25-.31a.36.36,0,0,1,.08-.23l.64-1c.08-.12.15-.18.22-.18a.48.48,0,0,1,.25.1,7,7,0,0,0,1.69.7,7.49,7.49,0,0,0,1.94.26,3.73,3.73,0,0,0,2-.44,1.83,1.83,0,0,0,.42-2.36,2,2,0,0,0-.74-.61,17.2,17.2,0,0,0-1.59-.68l-.45-.18a16.35,16.35,0,0,1-2.1-1,4.09,4.09,0,0,1-1.38-1.23,3.08,3.08,0,0,1-.55-1.86,3.16,3.16,0,0,1,1.36-2.75,6,6,0,0,1,3.57-1,9.48,9.48,0,0,1,2.34.25,5.13,5.13,0,0,1,1.72.79.47.47,0,0,1,.23.33.32.32,0,0,1-.08.22l-.62,1c-.08.12-.15.18-.2.18a.53.53,0,0,1-.25-.12,5.74,5.74,0,0,0-3.12-.8,3.19,3.19,0,0,0-1.86.45,2,2,0,0,0-.36,2.4,2.09,2.09,0,0,0,.77.61q.51.25,1.65.69l.49.2a15.06,15.06,0,0,1,2.23,1,3.49,3.49,0,0,1,1.24,1.2,3.35,3.35,0,0,1,.44,1.83,3.17,3.17,0,0,1-1.26,2.65,5.77,5.77,0,0,1-3.59,1A12.41,12.41,0,0,1,191.14,339.91Z"/><g class="cls-5"><polygon class="cls-6" points="212.5 17.33 21.77 17.33 21.77 189.48 21.77 209.42 21.77 303.77 212.4 303.77 212.4 209.42 212.5 209.42 212.5 17.33"/><polygon class="cls-7" points="223.02 137.54 18.51 137.54 18.51 237.44 18.51 249.02 18.51 303.77 222.91 303.77 222.91 249.02 223.02 249.02 223.02 137.54"/><polygon class="cls-8" points="20.07 100.8 41.06 89.53 76.72 96.59 100.82 79.77 141.93 92.97 167.98 83.61 217.39 102.52 217.39 143.46 20.07 143.46 20.07 100.8"/><rect class="cls-9" x="162.43" y="96.74" width="71.82" height="14.75" rx="4.84" transform="translate(-1.19 2.29) rotate(-0.66)"/><path class="cls-9" d="M187.16,93.3a18.32,18.32,0,1,0,18.1-18.53A18.31,18.31,0,0,0,187.16,93.3Z"/><path class="cls-9" d="M172.34,98.74a13.06,13.06,0,1,0,12.9-13.21A13.07,13.07,0,0,0,172.34,98.74Z"/><path class="cls-9" d="M161.2,61.2,181,61a2.56,2.56,0,0,0,2.53-2.58h0A2.57,2.57,0,0,0,181,55.86l-19.81.22a2.57,2.57,0,0,0-2.53,2.59h0A2.57,2.57,0,0,0,161.2,61.2Z"/><path class="cls-9" d="M167.19,54.77a6.36,6.36,0,1,0,6.29-6.43A6.37,6.37,0,0,0,167.19,54.77Z"/><path class="cls-9" d="M162.05,56.66a4.53,4.53,0,1,0,4.48-4.58A4.53,4.53,0,0,0,162.05,56.66Z"/><path class="cls-9" d="M85.29,84.87l-19.62-.23a2.53,2.53,0,0,1-2.5-2.56h0a2.54,2.54,0,0,1,2.56-2.51l19.62.23a2.54,2.54,0,0,1,2.51,2.56h0A2.55,2.55,0,0,1,85.29,84.87Z"/><path class="cls-9" d="M79.36,78.5a6.3,6.3,0,1,1-6.23-6.37A6.31,6.31,0,0,1,79.36,78.5Z"/><path class="cls-9" d="M84.45,80.37A4.49,4.49,0,1,1,80,75.83,4.5,4.5,0,0,1,84.45,80.37Z"/><polygon class="cls-10" points="20.07 111.61 68.56 91.12 107.56 107.1 145.65 85.65 187.16 102.52 217.39 89.53 217.39 143.46 20.07 143.46 20.07 111.61"/><rect class="cls-11" x="72.28" y="105.06" width="11.68" height="81.89"/><rect class="cls-11" x="154.89" y="105.06" width="11.68" height="81.89"/><polygon class="cls-11" points="160.52 91.09 147.99 105.48 173.06 105.48 160.52 91.09"/><polygon class="cls-12" points="160.52 94.65 152.64 103.7 168.4 103.7 160.52 94.65"/><polygon class="cls-11" points="160.52 96.49 155.05 102.78 166 102.78 160.52 96.49"/><path class="cls-10" d="M56.64,253.1H198.07a18.53,18.53,0,0,1,18.48,18.48h0a18.53,18.53,0,0,1-18.48,18.48H56.64a18.53,18.53,0,0,1-18.48-18.48h0A18.54,18.54,0,0,1,56.64,253.1Z"/><rect class="cls-13" x="81.53" y="241.41" width="76.81" height="14.76"/><rect class="cls-13" x="68.61" y="204.06" width="12.92" height="52.36"/><rect class="cls-13" x="158.34" y="204.06" width="12.92" height="52.36"/><rect class="cls-11" x="78.82" y="107.73" width="82.46" height="89.15"/><rect class="cls-13" x="85.65" y="118.9" width="69.43" height="77.97"/><rect class="cls-11" x="72.45" y="204.06" width="12.92" height="52.36"/><path class="cls-14" d="M164.82,192.17a7.34,7.34,0,0,1-1.54-.17,7.05,7.05,0,0,1-5.1-4.5l-12.36-34.28a7.06,7.06,0,1,1,13.28-4.79l8.59,23.82,10-10a7.06,7.06,0,0,1,10,10L169.81,190.1A7.06,7.06,0,0,1,164.82,192.17Z"/><rect class="cls-15" x="84.13" y="189.69" width="71.84" height="15.93"/><polygon class="cls-13" points="91.65 205.33 55.36 205.33 65.46 186.96 80.16 186.96 91.65 205.33"/><polygon class="cls-11" points="95.45 205.33 59.16 205.33 69.26 186.96 83.96 186.96 95.45 205.33"/><rect class="cls-11" x="154.82" y="204.06" width="12.92" height="52.36"/><path class="cls-13" d="M85.43,202.24H68.16l8.63-13.46Zm-14.67-1.35H82.83l-6-9.41Z"/><polygon class="cls-13" points="146.38 205.33 182.67 205.33 172.56 186.96 157.87 186.96 146.38 205.33"/><polygon class="cls-11" points="142.58 205.33 178.87 205.33 168.76 186.96 154.06 186.96 142.58 205.33"/><path class="cls-13" d="M161.23,188.78l8.64,13.46H152.6Zm0,2.7-6,9.41h12.07Z"/><rect class="cls-14" x="85.37" y="224.36" width="69.45" height="13.96"/><rect class="cls-16" x="85.37" y="204.06" width="69.45" height="20.3"/><circle class="cls-14" cx="148.56" cy="143.48" r="16.43" transform="matrix(0.99, -0.16, 0.16, 0.99, -21.16, 25.79)"/><path class="cls-14" d="M93.66,274.66l1-1.11a4,4,0,0,1,2.11-1.21l4.81-1c0-.07,0-.14,0-.22V236.2a6.64,6.64,0,0,1,13.27,0v33.68a3.93,3.93,0,0,1,1.56,3.14v4.31a4,4,0,0,1-4,4H96.6A4,4,0,0,1,93.66,274.66Z"/><rect class="cls-17" x="101.34" y="240.32" width="14.37" height="2.51" rx="0.87"/><rect class="cls-17" x="95.5" y="272.18" width="2.36" height="8.42" rx="0.81"/><rect class="cls-17" x="100.16" y="271.08" width="2.36" height="9.51" rx="0.81"/><rect class="cls-17" x="101.34" y="270.89" width="13.88" height="2.58" rx="0.89"/><rect class="cls-17" x="92.63" y="279.3" width="24.96" height="2.41" rx="0.83" transform="translate(210.22 561.02) rotate(180)"/><path class="cls-14" d="M128.69,269.88V236.2a6.64,6.64,0,0,1,13.27,0v34.88c0,.08,0,.15,0,.22l4.82,1a4,4,0,0,1,2.1,1.21l1,1.11a4,4,0,0,1-2.94,6.63H131.1a4,4,0,0,1-4-4V273A3.93,3.93,0,0,1,128.69,269.88Z"/><rect class="cls-17" x="127.96" y="240.32" width="14.37" height="2.51" rx="0.87" transform="translate(270.28 483.15) rotate(180)"/><rect class="cls-17" x="145.8" y="271.58" width="2.36" height="8.42" rx="0.81" transform="translate(293.97 551.58) rotate(180)"/><rect class="cls-17" x="141.15" y="270.89" width="2.36" height="9.11" rx="0.81" transform="translate(284.66 550.88) rotate(180)"/><rect class="cls-17" x="128.45" y="270.89" width="13.88" height="2.58" rx="0.89" transform="translate(270.78 544.35) rotate(180)"/><rect class="cls-17" x="126.54" y="279.3" width="24.96" height="2.41" rx="0.83" transform="translate(278.05 561.02) rotate(180)"/><rect class="cls-17" x="126.59" y="269.88" width="2.74" height="11.82" rx="0.94"/><rect class="cls-17" x="115.04" y="269.74" width="2.74" height="11.97" rx="0.94" transform="translate(232.82 551.46) rotate(180)"/><path class="cls-9" d="M150,150.64a23.06,23.06,0,0,0-9.26-18.39c-8.31,25.64-30.15,63.54-43.23,68.64H150Z"/><path class="cls-14" d="M140.76,132.25A24.42,24.42,0,0,0,126,127.31H114c-13.28,0-24,10.45-24,23.33v50.25h7.56C110.61,195.79,132.45,157.89,140.76,132.25Z"/><polygon class="cls-11" points="78.89 91.09 66.35 105.48 91.43 105.48 78.89 91.09"/><polygon class="cls-12" points="78.89 94.65 71.01 103.7 86.77 103.7 78.89 94.65"/><polygon class="cls-11" points="78.89 96.48 73.4 102.79 84.39 102.79 78.89 96.48"/><rect class="cls-18" x="117.22" y="89.34" width="4.38" height="16.14"/><polygon class="cls-13" points="152.68 268.66 178.4 268.66 171.24 255.64 167.74 256.42 152.68 268.66"/><polygon class="cls-11" points="148.06 268.66 174.44 268.66 167.74 256.42 154.82 256.42 148.06 268.66"/><path class="cls-13" d="M161.13,254.77l6.61,11.45H154.51Zm0,2.3-4.62,8h9.24Z"/><polygon class="cls-13" points="87.34 268.66 61.62 268.66 68.78 255.64 72.28 256.42 87.34 268.66"/><polygon class="cls-11" points="91.97 268.66 65.58 268.66 72.28 256.42 85.2 256.42 91.97 268.66"/><path class="cls-13" d="M85.51,266.22H72.28l6.62-11.45Zm-11.23-1.15h9.24l-4.62-8Z"/><rect class="cls-11" x="78.82" y="105.48" width="6.83" height="2.51"/><rect class="cls-11" x="154.52" y="105.48" width="6.83" height="2.51"/><path class="cls-9" d="M157.61,264.37H84l-5.49-55.69a27.18,27.18,0,0,1,27.18-27.18h29.43a27.18,27.18,0,0,1,27.18,27.18Z"/><rect class="cls-19" x="58.24" y="160.92" width="10.04" height="21.86"/><rect class="cls-14" x="65.87" y="168" width="9.79" height="5.56" rx="2.42"/><rect class="cls-14" x="53.52" y="162.4" width="11.72" height="19.16" rx="3.85"/><rect class="cls-20" x="52.28" y="158.4" width="21.95" height="4.15"/><polygon class="cls-9" points="63.26 44.76 67.14 57.24 67.14 160.47 59.38 160.47 59.38 57.24 63.26 44.76"/><circle class="cls-14" cx="93.86" cy="144.34" r="15.24"/><path class="cls-14" d="M90.5,108.6A5.65,5.65,0,1,0,96.15,103,5.65,5.65,0,0,0,90.5,108.6Z"/><circle class="cls-21" cx="96.15" cy="108.6" r="3.45"/><path class="cls-14" d="M138.07,108.6a5.65,5.65,0,1,0,5.65-5.65A5.65,5.65,0,0,0,138.07,108.6Z"/><path class="cls-21" d="M140.27,108.6a3.45,3.45,0,1,0,3.45-3.45A3.44,3.44,0,0,0,140.27,108.6Z"/><polygon class="cls-22" points="96.02 89.69 96.02 113.39 98.43 113.39 98.43 87.86 96.02 87.86 96.02 89.69"/><polygon class="cls-22" points="140.76 89.05 140.76 113.86 143.49 113.86 143.49 87.13 140.76 87.13 140.76 89.05"/><rect class="cls-14" x="98.43" y="82.83" width="42.64" height="30.56"/><path class="cls-22" d="M119.75,150.24h0c-13.1,0-23.73-20.61-23.73-29v-7.86h47.46v7.86C143.48,129.63,132.86,150.24,119.75,150.24Z"/><rect class="cls-19" x="127.37" y="100.73" width="4.52" height="8.42" rx="1.56" transform="translate(259.26 209.87) rotate(180)"/><rect class="cls-19" x="108.54" y="100.73" width="4.52" height="8.42" rx="1.56" transform="translate(221.6 209.87) rotate(180)"/><path class="cls-21" d="M120.37,106.07a5,5,0,0,0-5.05,5.05h10.09A5,5,0,0,0,120.37,106.07Z"/><rect class="cls-14" x="114.31" y="115.9" width="12.73" height="3" rx="1.04"/><rect class="cls-22" x="125.11" y="94.73" width="13.81" height="3.03" rx="1.3" transform="translate(47.98 -43.86) rotate(22.95)"/><rect class="cls-22" x="102.42" y="94.73" width="13.81" height="3.03" rx="1.3" transform="translate(247.53 142.25) rotate(157.05)"/><rect class="cls-22" x="96.18" y="84.12" width="46.94" height="6.06"/><rect class="cls-18" x="91.65" y="80.87" width="55.7" height="7.56" rx="3.25"/><rect class="cls-18" x="94.6" y="76.39" width="47.3" height="4.52"/><rect class="cls-14" x="91.65" y="79.57" width="55.7" height="7.56" rx="3.25"/><rect class="cls-14" x="93.02" y="60.7" width="5.32" height="19.62"/><rect class="cls-14" x="104.93" y="60.7" width="5.32" height="19.62"/><rect class="cls-14" x="128.24" y="60.7" width="5.32" height="19.62"/><rect class="cls-14" x="116.84" y="60.7" width="5.32" height="19.62"/><rect class="cls-14" x="139.64" y="60.7" width="5.32" height="19.62"/><rect class="cls-14" x="93.02" y="65.38" width="51.94" height="5.13"/><rect class="cls-11" x="160.5" y="184.5" width="4.36" height="22.93" rx="1.35"/><rect class="cls-11" x="199.15" y="184.5" width="4.36" height="22.93" rx="1.35"/><rect class="cls-11" x="160.39" y="181.56" width="43.24" height="5.12" rx="1.59"/><path class="cls-11" d="M201.09,207.43h10.53c0,3-4.75,5.55-10.53,5.55s-10.53-2.5-10.53-5.55h10.53Z"/><ellipse class="cls-13" cx="201.09" cy="207.42" rx="10.53" ry="1.03"/><path class="cls-11" d="M162.93,207.43h10.52c0,3-4.75,5.55-10.52,5.55s-10.53-2.5-10.53-5.55h10.53Z"/><ellipse class="cls-13" cx="162.93" cy="207.42" rx="10.53" ry="1.03"/><rect class="cls-11" x="179.22" y="144.63" width="5.57" height="39.88" rx="1.73"/><rect class="cls-14" x="175.03" y="153.49" width="8.39" height="4.76" rx="1.64" transform="translate(411.69 107.12) rotate(127.14)"/><rect class="cls-14" x="183.33" y="152.67" width="11.17" height="18.25" rx="4.86" transform="translate(377.83 323.6) rotate(180)"/><rect class="cls-13" x="72.28" y="105.48" width="13.37" height="1.45"/><rect class="cls-13" x="154.52" y="105.48" width="12.04" height="1.45"/><path class="cls-14" d="M76.89,193.57A7.82,7.82,0,0,1,71.12,191l-13.76-15.2A7.78,7.78,0,0,1,68.9,165.36l5.4,6L82.81,150a7.78,7.78,0,0,1,14.45,5.78L84.12,188.68a7.81,7.81,0,0,1-5.85,4.77A8,8,0,0,1,76.89,193.57Z"/></g></g></g></svg>