<?xml version="1.0" encoding="utf-8"?>
<!-- Generator: Adobe Illustrator 25.2.3, SVG Export Plug-In . SVG Version: 6.00 Build 0)  -->
<svg version="1.1" id="Layer_1" xmlns="http://www.w3.org/2000/svg" xmlns:xlink="http://www.w3.org/1999/xlink" x="0px" y="0px"
	 viewBox="0 0 235.4 381.8" style="enable-background:new 0 0 235.4 381.8;" xml:space="preserve">
<style type="text/css">
	.st0{fill:#F2B055;}
	.st1{fill:#FFF0CC;}
	.st2{fill:#231F20;}
	.st3{clip-path:url(#SVGID_2_);}
	.st4{fill:#A4F6FF;}
	.st5{fill:#FFFFFF;}
	.st6{fill:#5BA486;}
	.st7{fill:#5FB18E;}
	.st8{fill:#80EAED;}
	.st9{fill:#AFEFEF;}
	.st10{fill:#FFD150;}
	.st11{fill:#A9CF49;}
	.st12{fill:#F2AF55;}
	.st13{fill:#7AD3D3;}
	.st14{fill:#FFD250;}
	.st15{fill:#E3705E;}
	.st16{fill:#47372E;}
	.st17{fill:#4A355B;}
	.st18{fill:#DC4F65;}
	.st19{fill:#CB625A;}
	.st20{fill:#E5705F;}
	.st21{fill:#AA4E4C;}
	.st22{fill:#CE6357;}
	.st23{fill:#9AC54A;}
	.st24{fill:#A83583;}
	.st25{opacity:0.25;}
	.st26{opacity:0.1;}
</style>
<g>
	<g id="Layer_2_1_">
		<g id="Layer_1-2">
			<path class="st0" d="M235.4,14.5v352.9c-0.2,8.1-6.9,14.6-15,14.5H15c-8.3,0-15-6.5-15-14.5V14.5C0,6.5,6.7,0,15,0h205.4
				C228.7,0,235.4,6.5,235.4,14.5z M222.8,358.9V22.9c0-6-4.8-10.8-10.8-10.9H23.5c-6,0-10.8,4.9-10.8,10.8c0,0,0,0,0,0v336.1
				c0,6,4.9,10.8,10.8,10.8H212C218,369.7,222.8,364.9,222.8,358.9z"/>
			<path class="st1" d="M23.5,12H212c6,0,10.8,4.8,10.8,10.8v336.1c0,6-4.8,10.8-10.8,10.8H23.5c-6,0-10.8-4.8-10.8-10.8V22.9
				C12.6,16.9,17.5,12,23.5,12z"/>
			<path class="st2" d="M26.4,329.2c0-0.1,0-0.2,0.1-0.3l5.2-12.3c0.1-0.2,0.1-0.3,0.3-0.4c0.1-0.1,0.3-0.1,0.4-0.1h1.1
				c0.1,0,0.3,0,0.4,0.1c0.1,0.1,0.2,0.3,0.2,0.4l5.2,12.3c0,0.1,0.1,0.2,0.1,0.3c0,0.2-0.1,0.3-0.3,0.3h-1.7c-0.1,0-0.3,0-0.4-0.1
				c-0.1-0.1-0.2-0.2-0.2-0.3l-1.1-2.8h-5.4l-1.1,2.8c0,0.1-0.1,0.2-0.2,0.3c-0.1,0.1-0.2,0.1-0.4,0.1h-1.7
				C26.5,329.5,26.4,329.4,26.4,329.2z M34.9,324.5l-2.1-5.1l-2.1,5.1H34.9z"/>
			<path class="st2" d="M41.6,328c-2.4-3-2.4-7.3,0-10.4c1.4-1.3,3.3-1.9,5.1-1.8c0.8,0,1.7,0.1,2.5,0.3c0.7,0.2,1.3,0.4,1.9,0.8
				c0.1,0.1,0.2,0.1,0.2,0.3c0,0.1,0,0.2-0.1,0.3l-0.5,1c-0.1,0.1-0.2,0.2-0.2,0.2c-0.1,0-0.2,0-0.3-0.1c-1-0.5-2.1-0.8-3.2-0.8
				c-1.3-0.1-2.6,0.4-3.5,1.2c-1.7,2.3-1.7,5.4,0,7.7c1,0.9,2.2,1.3,3.5,1.2c1.2,0,2.3-0.2,3.4-0.8c0.1,0,0.2-0.1,0.2-0.1
				c0.1,0,0.2,0.1,0.2,0.2l0.6,1c0,0.1,0.1,0.1,0.1,0.2c0,0.1-0.1,0.2-0.2,0.2c-1.4,0.8-3,1.2-4.6,1.1C44.8,329.9,43,329.3,41.6,328
				z"/>
			<path class="st2" d="M53.6,329.3c-0.1-0.2-0.2-0.3-0.2-0.5v-11.9c0-0.2,0-0.4,0.2-0.5c0.2-0.1,0.4-0.2,0.6-0.2h8.2
				c0.3-0.1,0.6,0.1,0.7,0.4c0,0.1,0,0.2,0,0.2v0.5c0,0.2,0,0.4-0.2,0.5c-0.2,0.1-0.3,0.2-0.5,0.2H56v3.8h4.6c0.2,0,0.4,0,0.5,0.2
				c0.1,0.1,0.2,0.3,0.2,0.5v0.5c0,0.2,0,0.4-0.2,0.5c-0.2,0.1-0.4,0.2-0.5,0.2H56v3.8h6.4c0.3-0.1,0.6,0.1,0.7,0.5
				c0,0.1,0,0.2,0,0.2v0.5c0,0.2,0,0.4-0.2,0.5c-0.2,0.1-0.4,0.2-0.5,0.1h-8.2C54,329.5,53.8,329.4,53.6,329.3z"/>
			<path class="st2" d="M73.8,328c-2.3-3-2.3-7.3,0-10.3c1.3-1.3,3.1-2,5-1.8c1.9-0.1,3.7,0.5,5,1.8c2.3,3,2.3,7.3,0,10.3
				c-1.3,1.3-3.1,2-5,1.8C76.9,330,75.1,329.3,73.8,328z M81.9,326.7c0.8-1.1,1.2-2.5,1.1-3.9c0.1-1.4-0.3-2.7-1.1-3.8
				c-0.8-0.9-1.9-1.4-3.1-1.3c-1.2-0.1-2.4,0.4-3.2,1.3c-0.8,1.1-1.2,2.5-1.1,3.8c-0.1,1.4,0.3,2.7,1.1,3.8c0.8,0.9,2,1.4,3.2,1.3
				C80,328,81.1,327.5,81.9,326.7L81.9,326.7z"/>
			<path class="st2" d="M87.6,329.3c-0.1-0.2-0.2-0.3-0.2-0.5v-11.9c0-0.2,0-0.4,0.2-0.5c0.2-0.1,0.4-0.2,0.6-0.2h8.2
				c0.2,0,0.4,0,0.6,0.2c0.1,0.2,0.2,0.3,0.1,0.5v0.5c0,0.2,0,0.4-0.1,0.5c-0.2,0.1-0.4,0.2-0.6,0.2H90v3.8h4.6c0.2,0,0.4,0,0.6,0.2
				c0.1,0.1,0.2,0.3,0.2,0.5v0.5c0,0.2,0,0.4-0.2,0.5c-0.2,0.1-0.4,0.2-0.6,0.2H90v5c0,0.2,0,0.4-0.2,0.5c-0.2,0.1-0.4,0.2-0.6,0.2
				h-1C88,329.5,87.8,329.5,87.6,329.3z"/>
			<path class="st2" d="M106.4,329.3c-0.1-0.2-0.2-0.3-0.2-0.5v-11.9c0-0.2,0-0.4,0.2-0.5c0.2-0.1,0.4-0.2,0.6-0.2h5
				c1.3-0.1,2.6,0.3,3.6,1.2c1.6,1.9,1.6,4.7,0,6.6c-1,0.8-2.3,1.3-3.6,1.2h-3.2v3.8c0,0.2,0,0.4-0.2,0.5c-0.2,0.1-0.4,0.2-0.6,0.2
				h-1C106.8,329.5,106.6,329.5,106.4,329.3z M111.9,323c0.7,0,1.3-0.2,1.8-0.6c0.4-0.5,0.6-1.2,0.6-1.9c0.1-0.7-0.2-1.4-0.6-1.9
				c-0.5-0.4-1.1-0.7-1.8-0.6h-3.1v5L111.9,323z"/>
			<path class="st2" d="M118.5,329.3c-0.1-0.1-0.2-0.3-0.2-0.5v-11.9c0-0.2,0-0.4,0.2-0.5c0.2-0.1,0.4-0.2,0.6-0.2h8.2
				c0.3-0.1,0.6,0.1,0.7,0.4c0,0.1,0,0.2,0,0.2v0.5c0,0.2,0,0.4-0.2,0.5c-0.2,0.1-0.3,0.2-0.5,0.2h-6.4v3.8h4.6c0.2,0,0.4,0,0.6,0.2
				c0.1,0.1,0.2,0.3,0.2,0.5v0.5c0.1,0.3-0.1,0.6-0.5,0.7c-0.1,0-0.2,0-0.2,0h-4.6v3.8h6.4c0.3-0.1,0.6,0.1,0.7,0.5
				c0,0.1,0,0.2,0,0.2v0.5c0,0.2,0,0.4-0.2,0.5c-0.2,0.1-0.4,0.2-0.6,0.1H119C118.8,329.5,118.6,329.4,118.5,329.3z"/>
			<path class="st2" d="M129.8,329.3c-0.1-0.2-0.2-0.3-0.2-0.5v-11.9c0-0.2,0-0.4,0.2-0.5c0.2-0.1,0.4-0.2,0.6-0.2h0.9
				c0.2,0,0.3,0,0.4,0.1c0.1,0.1,0.2,0.2,0.3,0.3l6.5,9v-8.7c0-0.2,0-0.4,0.2-0.5c0.2-0.1,0.4-0.2,0.6-0.2h1
				c0.3-0.1,0.7,0.2,0.7,0.5c0,0.1,0,0.1,0,0.2v11.9c0,0.2,0,0.4-0.2,0.5c-0.2,0.1-0.4,0.2-0.6,0.2h-0.9c-0.1,0-0.3,0-0.4-0.1
				c-0.1-0.1-0.2-0.2-0.3-0.3l-6.5-9v8.6c0,0.2,0,0.4-0.2,0.5c-0.2,0.1-0.4,0.2-0.6,0.2h-1C130.2,329.5,130,329.4,129.8,329.3z"/>
			<path class="st2" d="M146.9,329.3c-0.1-0.2-0.2-0.3-0.2-0.5V318h-3.4c-0.2,0-0.4,0-0.5-0.1c-0.1-0.2-0.2-0.3-0.1-0.5v-0.5
				c0-0.2,0-0.4,0.1-0.5c0.1-0.1,0.3-0.2,0.5-0.2h9.4c0.2,0,0.4,0,0.6,0.2c0.1,0.2,0.2,0.3,0.2,0.5v0.5c0,0.2,0,0.4-0.2,0.5
				c-0.2,0.1-0.4,0.2-0.6,0.1h-3.4v10.7c0,0.2,0,0.4-0.2,0.5c-0.2,0.1-0.4,0.2-0.6,0.2h-1C147.3,329.5,147.1,329.4,146.9,329.3z"/>
			<path class="st2" d="M152.1,329.2c0-0.1,0-0.2,0.1-0.3l5.2-12.3c0.1-0.2,0.1-0.3,0.3-0.4c0.1-0.1,0.3-0.1,0.4-0.1h1
				c0.1,0,0.3,0,0.4,0.1c0.1,0.1,0.2,0.3,0.2,0.4l5.2,12.3c0,0.1,0.1,0.2,0.1,0.3c0,0.2-0.1,0.3-0.3,0.3h-1.7c-0.1,0-0.3,0-0.4-0.1
				c-0.1-0.1-0.2-0.2-0.2-0.3l-1.1-2.8h-5.4l-1.1,2.8c0,0.1-0.1,0.2-0.2,0.3c-0.1,0.1-0.2,0.1-0.4,0.1h-1.7
				C152.2,329.5,152.1,329.4,152.1,329.2z M160.6,324.5l-2.1-5.1l-2.1,5.1H160.6z"/>
			<path class="st2" d="M167.2,328c-2.9-2.6-3.1-7-0.5-9.9c1.4-1.6,3.5-2.4,5.6-2.3c0.8,0,1.7,0.1,2.5,0.3c0.7,0.2,1.3,0.4,1.9,0.8
				c0.1,0.1,0.2,0.1,0.2,0.3c0,0.1,0,0.2-0.1,0.3l-0.6,1c-0.1,0.1-0.1,0.2-0.2,0.2c-0.1,0-0.2,0-0.3-0.1c-1-0.5-2.1-0.8-3.2-0.8
				c-1.3-0.1-2.6,0.4-3.5,1.3c-1.7,2.3-1.7,5.4,0,7.7c1,0.9,2.2,1.3,3.5,1.3c1.2,0,2.3-0.2,3.4-0.8c0.1,0,0.2-0.1,0.3-0.1
				c0.1,0,0.1,0.1,0.2,0.2l0.6,1c0,0.1,0.1,0.1,0.1,0.2c0,0.1-0.1,0.2-0.2,0.2c-1.4,0.8-3,1.2-4.6,1.1
				C170.5,329.9,168.6,329.3,167.2,328z"/>
			<path class="st2" d="M179.3,329.3c-0.1-0.1-0.2-0.3-0.2-0.5v-11.9c0-0.2,0-0.4,0.2-0.5c0.2-0.1,0.4-0.2,0.6-0.2h1
				c0.2,0,0.4,0,0.6,0.2c0.1,0.2,0.2,0.3,0.2,0.5v10.7h6c0.2,0,0.4,0,0.6,0.2c0.1,0.2,0.2,0.3,0.1,0.5v0.5c0,0.2,0,0.4-0.1,0.5
				c-0.2,0.1-0.4,0.2-0.6,0.1h-7.8C179.6,329.5,179.4,329.4,179.3,329.3z"/>
			<path class="st2" d="M189.8,329.3c-0.1-0.2-0.2-0.3-0.2-0.5v-11.9c0-0.2,0-0.4,0.2-0.5c0.2-0.1,0.4-0.2,0.6-0.2h8.2
				c0.2,0,0.4,0,0.5,0.2c0.1,0.2,0.2,0.3,0.1,0.5v0.5c0,0.2,0,0.4-0.1,0.5c-0.2,0.1-0.3,0.2-0.5,0.2h-6.4v3.8h4.6
				c0.2,0,0.4,0,0.6,0.2c0.1,0.2,0.2,0.3,0.1,0.5v0.5c0,0.2,0,0.4-0.1,0.5c-0.2,0.1-0.4,0.2-0.6,0.2h-4.6v3.8h6.4
				c0.2,0,0.4,0,0.6,0.2c0.1,0.2,0.2,0.3,0.1,0.5v0.5c0,0.2,0,0.4-0.1,0.5c-0.2,0.1-0.4,0.2-0.6,0.1h-8.2
				C190.1,329.5,189.9,329.4,189.8,329.3z"/>
			<path class="st2" d="M203,329.5c-0.8-0.1-1.5-0.4-2.1-0.9c-0.2-0.1-0.3-0.2-0.3-0.3c0-0.1,0-0.2,0.1-0.2l0.6-1
				c0.1-0.1,0.1-0.2,0.2-0.2c0.1,0,0.2,0,0.2,0.1c0.5,0.3,1.1,0.5,1.7,0.7c0.6,0.2,1.3,0.3,1.9,0.3c0.7,0,1.4-0.1,2-0.4
				c0.5-0.3,0.7-0.9,0.7-1.4c0-0.3-0.1-0.7-0.3-1c-0.2-0.3-0.5-0.5-0.8-0.6c-0.5-0.3-1-0.5-1.6-0.7l-0.4-0.2c-0.7-0.3-1.4-0.6-2.1-1
				c-0.5-0.3-1-0.7-1.4-1.2c-1-1.5-0.6-3.5,0.8-4.6c1.1-0.7,2.3-1.1,3.6-1c0.8,0,1.6,0.1,2.4,0.3c0.6,0.1,1.2,0.4,1.7,0.8
				c0.2,0.1,0.2,0.2,0.2,0.3c0,0.1,0,0.2-0.1,0.2l-0.6,1c-0.1,0.1-0.1,0.2-0.2,0.2c-0.1,0-0.2-0.1-0.2-0.1c-0.9-0.6-2-0.8-3.1-0.8
				c-0.7,0-1.3,0.1-1.9,0.5c-0.4,0.3-0.7,0.9-0.6,1.4c0,0.4,0.1,0.7,0.3,1c0.2,0.3,0.5,0.5,0.8,0.6c0.3,0.2,0.9,0.4,1.6,0.7l0.5,0.2
				c0.8,0.3,1.5,0.6,2.2,1c0.5,0.3,0.9,0.7,1.2,1.2c0.3,0.6,0.5,1.2,0.4,1.8c0,1-0.4,2-1.3,2.7c-1.1,0.7-2.3,1.1-3.6,1
				C204.8,329.8,203.9,329.7,203,329.5z"/>
			<g>
				<defs>
					<path id="SVGID_1_" d="M54.4,44.1h129.2c13.7,0,24.8,11.1,24.8,24.8v192.6c0,13.7-11.1,24.8-24.8,24.8H54.4
						c-13.7,0-24.8-11.1-24.8-24.8V68.9C29.6,55.2,40.7,44.1,54.4,44.1z"/>
				</defs>
				<clipPath id="SVGID_2_">
					<use xlink:href="#SVGID_1_"  style="overflow:visible;"/>
				</clipPath>
				<g class="st3">
					<rect x="26.9" y="-6.2" class="st4" width="184.3" height="229.5"/>
					<path class="st5" d="M82.4,128H6.6c-5.4,0-9.8-4.4-9.8-9.8l0,0c0-5.4,4.4-9.8,9.8-9.8h75.8c5.4,0,9.8,4.4,9.8,9.8l0,0
						C92.2,123.6,87.8,128,82.4,128z"/>
					<circle class="st5" cx="34.9" cy="103.7" r="24.3"/>
					<circle class="st5" cx="61.6" cy="110.7" r="17.3"/>
					<path class="st6" d="M24.6,120.9l21.3-11l36.3,6.9l21.6-8.1c3.2-1.2,6.8-1.3,10.1-0.3l33.1,10.3l22.6-11.8
						c3.5-1.8,7.5-2.1,11.2-0.7l44.5,16.4v40.2H24.6V120.9z"/>
					<path class="st5" d="M188.9,124.1h42.9c3.1,0,5.5-2.5,5.5-5.5l0,0c0-3.1-2.5-5.5-5.5-5.5h-42.9c-3,0-5.5,2.5-5.5,5.5l0,0
						C183.4,121.6,185.9,124.1,188.9,124.1z"/>
					<circle class="st5" cx="215.8" cy="110.3" r="13.8"/>
					<circle class="st5" cx="200.7" cy="114.3" r="9.8"/>
					<path class="st7" d="M15.9,131.3l53.6-21.8l43.1,17l32.4-17.6c3.8-2.1,8.2-2.5,12.3-1.2l43.2,13.9l33.4-13.9v57.5H16
						L15.9,131.3z"/>
					<rect x="7" y="154.6" class="st8" width="259.9" height="99.1"/>
					<path class="st9" d="M159,161.5h-26.1c-0.7,0-1.3-0.6-1.3-1.3l0,0c0-0.7,0.6-1.3,1.3-1.3H159c0.7,0,1.3,0.6,1.3,1.3l0,0l0,0
						C160.3,160.9,159.7,161.5,159,161.5z"/>
					<path class="st9" d="M53.5,205.2H30.9c-0.7,0-1.3-0.6-1.3-1.3v-0.3c0-0.7,0.6-1.3,1.3-1.3h22.6c0.7,0,1.3,0.6,1.3,1.3v0.3
						C54.9,204.6,54.3,205.2,53.5,205.2z"/>
					<path class="st9" d="M39.3,192.4H16.7c-0.7,0-1.3-0.6-1.3-1.3v-0.3c0-0.7,0.6-1.3,1.3-1.3h22.6c0.7,0,1.3,0.6,1.3,1.3v0.3
						C40.6,191.8,40,192.4,39.3,192.4z"/>
					<path class="st9" d="M59.1,175.7h22.6c0.7,0,1.3,0.6,1.3,1.3v0.3c0,0.7-0.6,1.3-1.3,1.3H59.1c-0.7,0-1.3-0.6-1.3-1.3V177
						C57.8,176.2,58.3,175.7,59.1,175.7z"/>
					<path class="st9" d="M165.1,229.3h-8.3c-0.7,0-1.3-0.6-1.3-1.3l0,0l0,0c0-0.7,0.6-1.3,1.3-1.3h8.4c0.7,0,1.3,0.6,1.3,1.3l0,0
						C166.5,228.7,165.9,229.3,165.1,229.3z"/>
					<path class="st10" d="M182.6,186.1c-7.9,0-15-4.9-17.9-12.3c-3.7,9.9,1.2,20.9,11.1,24.6c9.9,3.7,20.9-1.2,24.6-11.1
						c1.7-4.4,1.7-9.2,0-13.6C197.6,181.1,190.5,186,182.6,186.1z"/>
					<ellipse class="st11" cx="182.6" cy="216.5" rx="13.6" ry="26.8"/>
					<rect x="4.3" y="210.7" class="st8" width="259.9" height="89.1"/>
					<path class="st12" d="M139.7,192.8c-3.8,0-6.9-3-6.9-6.8c0-2.4,1.2-4.6,3.2-5.8c0.2-0.2,8.7-5.8,10.4-15.9
						c1.4-8.1-1.8-17.2-9.5-27.1c-2.4-2.9-1.9-7.3,1-9.6c2.9-2.4,7.3-1.9,9.6,1c0.1,0.1,0.1,0.1,0.1,0.2
						c10.2,13.1,14.3,25.9,12.1,38c-2.9,16.2-16,24.6-16.6,25C142.2,192.5,141,192.8,139.7,192.8z"/>
					<circle class="st12" cx="136.8" cy="178" r="15.3"/>
					<path class="st10" d="M139.7,189.5c-3.8,0-6.9-3-6.9-6.8c0-2.4,1.2-4.6,3.2-5.8c0.2-0.2,8.7-5.8,10.4-15.9
						c1.4-8.1-1.8-17.2-9.5-27.1c-2.4-2.9-1.9-7.3,1-9.6c2.9-2.4,7.3-1.9,9.6,1c0.1,0.1,0.1,0.1,0.1,0.2
						c10.2,13.1,14.3,25.9,12.1,38c-2.9,16.2-16,24.6-16.6,25C142.2,189.2,141,189.5,139.7,189.5z"/>
					<circle class="st10" cx="137.1" cy="174.3" r="15.4"/>
					<path class="st13" d="M76.4,197.3h1.1c1.3,0,2.3,1,2.3,2.3v15.9c0,1.3-1,2.3-2.3,2.3h-1.1c-1.3,0-2.3-1-2.3-2.3v-15.9
						C74.1,198.3,75.1,197.3,76.4,197.3z"/>
					<path class="st13" d="M148.9,197.3h1.1c1.3,0,2.3,1,2.3,2.3v15.9c0,1.3-1,2.3-2.3,2.3h-1.1c-1.3,0-2.3-1-2.3-2.3v-15.9
						C146.6,198.3,147.7,197.3,148.9,197.3z"/>
					<path class="st13" d="M142.9,205.5c-2.1,0-3.7-1.7-3.7-3.7V201c0-2.1-1.7-3.7-3.7-3.7s-3.7,1.7-3.7,3.7v0.8
						c0,2.1-1.7,3.7-3.7,3.7c-2.1,0-3.7-1.7-3.7-3.7V201c0.1-2.1-1.5-3.8-3.5-3.9c-2.1-0.1-3.8,1.5-3.9,3.5c0,0.1,0,0.3,0,0.4v0.8
						c0.1,2-1.4,3.8-3.5,3.9s-3.8-1.4-3.9-3.5c0-0.1,0-0.3,0-0.4V201c0-2-1.7-3.7-3.7-3.7c-2.1,0-3.7,1.7-3.7,3.7v0.8
						c0,2.1-1.7,3.7-3.7,3.7s-3.7-1.7-3.7-3.7V201c0-2-1.7-3.6-3.7-3.7c-2.1,0-3.7,1.6-3.8,3.7v0.8c0,2.1-1.7,3.7-3.7,3.7
						s-3.7-1.7-3.7-3.7v13.8h66.8v-7.2c0-0.1,0-0.2,0-0.2v-6.3C146.6,203.8,145,205.5,142.9,205.5
						C142.9,205.5,142.9,205.5,142.9,205.5z"/>
					<circle class="st14" cx="114.2" cy="115.6" r="35.1"/>
					<circle class="st15" cx="114.2" cy="115.6" r="31.5"/>
					<path class="st10" d="M130.9,137.1L114.2,125l-16.7,12.1l6.4-19.7l-16.7-12.2h20.7l6.4-19.7l6.4,19.7h20.7l-16.7,12.2
						L130.9,137.1z M90.9,106.5l14.4,10.5l-5.5,16.9l14.4-10.4l14.4,10.4l-5.5-16.9l14.4-10.4h-17.8l-5.5-16.9l-5.5,16.9L90.9,106.5
						z"/>
					<path class="st10" d="M114.2,125l-10.3-7.5l4-12.2h12.8l4,12.2L114.2,125z M105.3,117l8.9,6.5l8.9-6.5l-3.4-10.4h-11L105.3,117
						z"/>
					<path class="st10" d="M110.2,129.4h5.8c6.4,0,11.5,5.2,11.5,11.5v26.4c0,6.4-5.2,11.5-11.5,11.5h-5.8
						c-6.4,0-11.5-5.2-11.5-11.5v-26.4C98.6,134.5,103.8,129.4,110.2,129.4z"/>
					<path class="st16" d="M124.3,145.5h-22.4c-4.3,0-7.7-3.5-7.7-7.7l0,0c0-4.3,3.5-7.7,7.7-7.7h22.4c4.3,0,7.7,3.5,7.7,7.7l0,0
						C132,142.1,128.5,145.5,124.3,145.5z"/>
					<path class="st10" d="M109.1,173.9h8.2c9,0,16.3,7.3,16.3,16.3l0,0v36.4l0,0H92.8l0,0v-36.4
						C92.8,181.2,100.1,173.9,109.1,173.9L109.1,173.9z"/>
					<path class="st10" d="M133.2,156.2c0,2.1-1.7,3.9-3.9,3.9c-2.1,0-3.9-1.7-3.9-3.9c0-2.1,1.7-3.9,3.9-3.9c0,0,0,0,0,0
						C131.5,152.3,133.2,154,133.2,156.2C133.2,156.2,133.2,156.2,133.2,156.2z"/>
					<path class="st12" d="M131.7,156.2c0,1.3-1.1,2.4-2.4,2.4s-2.4-1.1-2.4-2.4s1.1-2.4,2.4-2.4S131.7,154.9,131.7,156.2
						L131.7,156.2z"/>
					<path class="st10" d="M100.6,156.2c0,2.1-1.7,3.9-3.9,3.9c-2.1,0-3.9-1.7-3.9-3.9c0-2.1,1.7-3.9,3.9-3.9c0,0,0,0,0,0
						C98.9,152.3,100.6,154,100.6,156.2C100.6,156.2,100.6,156.2,100.6,156.2z"/>
					<path class="st12" d="M99.1,156.2c0,1.3-1.1,2.4-2.4,2.4s-2.4-1.1-2.4-2.4s1.1-2.4,2.4-2.4S99.1,154.9,99.1,156.2L99.1,156.2z"
						/>
					<circle class="st12" cx="90.4" cy="178.5" r="15.3"/>
					<path class="st12" d="M86.8,193.4c-1.3,0-2.6-0.4-3.6-1.1c-0.6-0.4-13.7-8.8-16.6-25c-2.1-12.1,1.9-24.9,12.1-38
						c2.3-3,6.6-3.5,9.6-1.2c3,2.3,3.5,6.6,1.2,9.6l0,0c-7.7,10-10.9,19.1-9.5,27.3c1.8,10.1,10.3,15.7,10.4,15.7
						c3.2,2,4.2,6.2,2.2,9.4C91.3,192.2,89.1,193.4,86.8,193.4L86.8,193.4z"/>
					<rect x="100.8" y="150.8" class="st10" width="24.5" height="10.8"/>
					<path class="st17" d="M107.1,156.1L107.1,156.1c-0.8,0-1.4-0.6-1.4-1.4v-2.5c0-0.8,0.6-1.4,1.4-1.4l0,0c0.8,0,1.4,0.6,1.4,1.4
						v2.5C108.5,155.5,107.9,156.1,107.1,156.1z"/>
					<path class="st17" d="M119,156.1L119,156.1c-0.8,0-1.4-0.6-1.4-1.4v-2.5c0-0.8,0.6-1.4,1.4-1.4l0,0c0.8,0,1.4,0.6,1.4,1.4v2.5
						C120.4,155.5,119.8,156.2,119,156.1z"/>
					<path class="st16" d="M112.9,185c0,0.1,0.1,0.2,0.2,0.2h0l0,0c0.1,0,0.2-0.1,0.2-0.2l0,0l0,0c0-0.1-0.1-0.2-0.2-0.2h0l0,0"/>
					<path class="st16" d="M116.1,149l6,2.2c0.5,0.2,1.1,0,1.3-0.5c0,0,0-0.1,0-0.1l0,0c0.2-0.5-0.1-1.1-0.6-1.4l-6-2.2
						c-0.5-0.2-1.1,0.1-1.3,0.6l0,0C115.3,148.2,115.6,148.8,116.1,149z"/>
					<path class="st16" d="M110.2,149l-6,2.2c-0.5,0.2-1.1-0.1-1.3-0.6l0,0c-0.2-0.5,0.1-1.1,0.6-1.4l6-2.2c0.5-0.2,1.1,0.1,1.3,0.6
						l0,0C111,148.2,110.7,148.8,110.2,149z"/>
					<circle class="st16" cx="110.4" cy="131.8" r="7.6"/>
					<path class="st16" d="M127.2,133.8c0,4-3.2,7.2-7.2,7.2s-7.2-3.2-7.2-7.2c0-4,3.2-7.2,7.2-7.2c0,0,0,0,0,0
						C124,126.5,127.2,129.8,127.2,133.8C127.2,133.7,127.2,133.7,127.2,133.8z"/>
					<path class="st16" d="M124.8,143.6v13.6H101v-13.6h-3v22.2v0.1c0.2,8.2,6.9,14.7,15.1,14.8l0,0c8.1,0,14.7-6.4,15.1-14.5v-22.5
						H124.8z"/>
					<circle class="st10" cx="90.4" cy="175.2" r="15.3"/>
					<path class="st10" d="M88,189.5c-1.3,0-2.6-0.4-3.6-1.1c-0.6-0.4-13.7-8.8-16.6-25c-2.1-12.1,1.9-24.9,12.1-38
						c2.4-2.9,6.7-3.4,9.6-1c2.9,2.3,3.4,6.5,1.2,9.4c-7.8,10-10.9,19.2-9.5,27.3c1.8,10.1,10.3,15.7,10.4,15.7
						c3.2,2,4.2,6.2,2.2,9.4C92.6,188.3,90.4,189.5,88,189.5z"/>
					<path class="st8" d="M155.1,216.5c-2.9,0-5.2-2.3-5.2-5.2v-1.1c-0.1-2.9-2.6-5.1-5.5-5c-2.7,0.1-4.9,2.3-5,5v1.1
						c0,2.9-2.4,5.2-5.2,5.2s-5.2-2.4-5.2-5.2v-1.1c0-2.9-2.4-5.2-5.2-5.2s-5.2,2.4-5.2,5.2v1.1c0,2.9-2.3,5.2-5.2,5.2
						s-5.2-2.3-5.2-5.2c0,0,0,0,0,0v-1.1c0-2.9-2.4-5.2-5.2-5.2s-5.2,2.4-5.2,5.2v1.1c0,2.9-2.4,5.2-5.2,5.2s-5.2-2.4-5.2-5.2v-1.1
						c-0.1-2.9-2.6-5.1-5.5-5c-2.7,0.1-4.9,2.3-5,5v1.1c0,2.9-2.4,5.2-5.2,5.2s-5.2-2.4-5.2-5.2v19.4h94.3v-10.1c0-0.1,0-0.2,0-0.3
						v-8.9C160.3,214.1,158,216.5,155.1,216.5z"/>
					<path class="st10" d="M116.6,163.8h-7.7c-1,0-1.9-0.9-1.9-1.9l0,0c0-1,0.9-1.9,1.9-1.9h7.7c1,0,1.9,0.9,1.9,1.9l0,0
						C118.5,163,117.6,163.8,116.6,163.8z"/>
					<path class="st16" d="M112.5,162.3h0.6c0.8,0,1.5,0.7,1.5,1.5c0,0,0,0,0,0l0,0c0,0.8-0.7,1.5-1.5,1.5l0,0h-0.6
						c-0.8,0-1.5-0.7-1.5-1.5l0,0l0,0C111,163,111.7,162.3,112.5,162.3C112.5,162.3,112.5,162.3,112.5,162.3z"/>
					<path class="st18" d="M112.6,160.7L112.6,160.7c-1.2,0-2.2-1-2.2-2.2v-2.8c0-1.2,1-2.2,2.2-2.2l0,0c1.2,0,2.2,1,2.2,2.2v2.8
						C114.8,159.7,113.8,160.7,112.6,160.7z"/>
					<path class="st12" d="M113.1,161.9c-1.5,0-2.9-0.1-4.4-0.4c-0.2,0-0.3-0.2-0.3-0.4c0,0,0,0,0,0c0-0.2,0.2-0.3,0.4-0.3
						c0,0,0,0,0,0c2.7,0.5,5.4,0.5,8.1,0c0.2,0,0.3,0.1,0.4,0.2c0,0.2-0.1,0.3-0.2,0.4c0,0,0,0,0,0
						C115.7,161.8,114.4,161.9,113.1,161.9z"/>
					<path class="st12" d="M109.5,200.3H96.3c-0.8,0-1.5-0.7-1.5-1.5l0,0c0-0.8,0.7-1.5,1.5-1.5h13.2c0.8,0,1.5,0.7,1.5,1.5l0,0
						C111,199.6,110.3,200.3,109.5,200.3z"/>
					<path class="st12" d="M131.1,200.3h-13.2c-0.8,0-1.5-0.7-1.5-1.5l0,0c0-0.8,0.7-1.5,1.5-1.5h13.2c0.8,0,1.5,0.7,1.5,1.5l0,0
						C132.6,199.6,132,200.3,131.1,200.3z"/>
					<path class="st10" d="M130.4,133.1c0-0.4-0.4-0.8-0.8-0.8c-0.2,0-0.4,0.1-0.5,0.2c-1.6,1.7-3.8,2.7-6.2,2.7
						c-3.7,0-6.9-2.5-8.7-6.4c-0.4-0.8-1.4-1.1-2.2-0.8c-0.3,0.2-0.6,0.4-0.8,0.8c-1.8,3.8-5,6.4-8.7,6.4c-2.2,0-4.3-0.9-5.8-2.4
						c-0.3-0.3-0.8-0.3-1.1,0c-0.1,0.1-0.2,0.3-0.2,0.5v5.2c0,1.3,0.4,2.6,1.2,3.6c0.4-0.5,1-0.9,1.7-0.9h30.1
						c0.4,0,0.9,0.1,1.2,0.4c0.6-1,0.9-2.1,0.9-3.2V133.1z"/>
					<path class="st12" d="M98.3,141.4c-0.7,0-1.3,0.3-1.7,0.9c-0.3,0.4-0.4,0.8-0.4,1.2v0.7c0,1.1,0.9,2.1,2.1,2.1l0,0h30.1
						c1.1,0,2.1-0.9,2.1-2.1v-0.7c0-0.7-0.3-1.3-0.9-1.7c-0.3-0.3-0.8-0.4-1.2-0.4L98.3,141.4z"/>
					<polygon class="st19" points="126.2,278.4 152.4,264.5 176.1,252.7 184.5,233.4 217.1,217.1 217.1,290.2 125.7,290.2 					"/>
					<path class="st20" d="M27.6,194.1l30.9,18.2l7.5,18.3c0,0,26.7,17.2,28.8,17.2s19,20.7,19,20.7l28.6,13.1l6.9,18.2
						c0,0-68.5-3.3-72.8-3.3S17.1,291,17.1,291L27.6,194.1z"/>
					<path class="st9" d="M88.5,233.2h32.8c0.7,0,1.3,0.6,1.3,1.3v1c0,0.7-0.6,1.3-1.3,1.3H88.5c-0.7,0-1.3-0.6-1.3-1.3v-1
						C87.2,233.8,87.8,233.2,88.5,233.2z"/>
					<path class="st9" d="M175.1,161.5h-8.4c-0.7,0-1.3-0.6-1.3-1.3l0,0c0-0.7,0.6-1.3,1.3-1.3l0,0h8.4c0.7,0,1.3,0.6,1.3,1.3l0,0
						C176.4,160.9,175.8,161.5,175.1,161.5z"/>
					<path class="st9" d="M61.5,166.6h-8.3c-0.7,0-1.3-0.6-1.3-1.3l0,0c0-0.7,0.6-1.3,1.3-1.3h8.3c0.7,0,1.3,0.6,1.3,1.3l0,0l0,0
						C62.8,166,62.2,166.5,61.5,166.6z"/>
					<path class="st9" d="M35.9,167.9h-8.4c-0.7,0-1.3-0.6-1.3-1.3l0,0c0-0.7,0.6-1.3,1.3-1.3h8.4c0.7,0,1.3,0.6,1.3,1.3l0,0
						C37.2,167.3,36.6,167.9,35.9,167.9z"/>
					<path class="st9" d="M186.8,175.1h-8.4c-0.7,0-1.3-0.6-1.3-1.3l0,0l0,0c0-0.7,0.6-1.3,1.3-1.3h8.4c0.7,0,1.3,0.6,1.3,1.3l0,0
						C188.1,174.5,187.5,175.1,186.8,175.1z"/>
					<path class="st9" d="M199.9,169.8h-8.4c-0.7,0-1.3-0.6-1.3-1.3l0,0c0-0.7,0.6-1.3,1.3-1.3h8.4c0.7,0,1.3,0.6,1.3,1.3l0,0
						C201.2,169.2,200.6,169.8,199.9,169.8z"/>
					<path class="st9" d="M181.2,158.6h22.6c0.7,0,1.3,0.6,1.3,1.3v0.3c0,0.7-0.6,1.3-1.3,1.3h-22.6c-0.7,0-1.3-0.6-1.3-1.3v-0.3
						C179.9,159.1,180.5,158.6,181.2,158.6z"/>
					<path class="st9" d="M23.7,175.7h22.6c0.7,0,1.3,0.6,1.3,1.3v0.3c0,0.7-0.6,1.3-1.3,1.3H23.7c-0.7,0-1.3-0.6-1.3-1.3V177
						C22.4,176.2,22.9,175.7,23.7,175.7z"/>
					<path class="st9" d="M162.2,232.1h8.4c0.7,0,1.3-0.6,1.3-1.3l0,0l0,0c0-0.7-0.6-1.3-1.3-1.3h-8.4c-0.7,0-1.3,0.6-1.3,1.3l0,0
						C160.9,231.5,161.5,232.1,162.2,232.1z"/>
					<path class="st9" d="M151.1,252.7h8.4c0.7,0,1.3-0.6,1.3-1.3l0,0c0-0.7-0.6-1.3-1.3-1.3h-8.4c-0.7,0-1.3,0.6-1.3,1.3l0,0
						C149.8,252.1,150.4,252.7,151.1,252.7z"/>
					<path class="st9" d="M127,263.5h8.4c0.7,0,1.3-0.6,1.3-1.3l0,0c0-0.7-0.6-1.3-1.3-1.3H127c-0.7,0-1.3,0.6-1.3,1.3l0,0
						C125.7,262.9,126.3,263.5,127,263.5z"/>
					<path class="st9" d="M137.4,240.3h8.4c0.7,0,1.3-0.6,1.3-1.3l0,0c0-0.7-0.6-1.3-1.3-1.3h-8.4c-0.7,0-1.3,0.6-1.3,1.3l0,0
						C136.1,239.8,136.7,240.3,137.4,240.3z"/>
					<path class="st9" d="M143.3,227.6h8.4c0.7,0,1.3-0.6,1.3-1.3l0,0c0-0.7-0.6-1.3-1.3-1.3h-8.4c-0.7,0-1.3,0.6-1.3,1.3l0,0
						C142,227,142.5,227.6,143.3,227.6z"/>
					<path class="st9" d="M138.8,252.7h-26.7c-0.7,0-1.3-0.6-1.3-1.3v-0.2c0-0.7,0.6-1.3,1.3-1.3h26.7c0.7,0,1.3,0.6,1.3,1.3v0.2
						C140.1,252.1,139.5,252.7,138.8,252.7z"/>
					<path class="st9" d="M178.4,240.6h-22.6c-0.7,0-1.3-0.6-1.3-1.3V239c0-0.7,0.6-1.3,1.3-1.3h22.6c0.7,0,1.3,0.6,1.3,1.3v0.3
						C179.8,240,179.2,240.6,178.4,240.6z"/>
					<path class="st9" d="M94.6,224.7H71.9c-0.7,0-1.3-0.6-1.3-1.3v-0.3c0-0.7,0.6-1.3,1.3-1.3h22.6c0.7,0,1.3,0.6,1.3,1.3v0.3
						C95.9,224.1,95.3,224.7,94.6,224.7z"/>
					<path class="st9" d="M76.2,193.8H53.6c-0.7,0-1.3-0.6-1.3-1.3v-0.3c0-0.7,0.6-1.3,1.3-1.3h22.6c0.7,0,1.3,0.6,1.3,1.3v0.3
						C77.6,193.2,77,193.8,76.2,193.8z"/>
					<path class="st21" d="M142.5,293.9l32.2-10.5l12.9-2.6l9.1-9.1c0,0,5.3-7.6,5.3-10.4s3.4-14.5,3.4-14.5l5.3-26.4l6.6,62.6
						l-59,11.7L142.5,293.9z"/>
					<path class="st9" d="M190.7,222.3H168c-0.7,0-1.3-0.6-1.3-1.3v-0.3c0-0.7,0.6-1.3,1.3-1.3h22.6c0.7,0,1.3,0.6,1.3,1.3v0.3
						C192,221.7,191.4,222.3,190.7,222.3z"/>
					<polygon class="st22" points="29.6,207.5 39.7,257.6 49.7,273 75.4,279.4 144.7,294 144.7,294 58.8,292.1 26.9,277.6 
						23.7,210.7 					"/>
					<path class="st11" d="M39.5,221.7c0,0,4.2-0.8,6-3.6c0.7-1,1.2-2.1,1.7-3.2c0.1-0.2,0-0.5-0.3-0.6c-0.1,0-0.2,0-0.3,0l-1.3,0.4
						c0.5-1.2,0.8-2.5,0.8-3.8c0.1-1,0.1-1.7,0-2.2c0-0.3-0.2-0.5-0.5-0.5c-0.1,0-0.2,0-0.3,0.1l-0.3,0.3l0.9-5.4
						c-2.4,0.8-4.7,1.9-6.8,3.3c-1.2,0.8-2.1,1.8-2.8,3.1l-0.5-1.6c-0.1-0.3-0.4-0.5-0.7-0.4c-0.1,0-0.2,0.1-0.3,0.2
						c-0.9,1-2.2,3.4-2,9C33.3,224.9,39.5,221.7,39.5,221.7z"/>
					<path class="st23" d="M33,216.8c-0.3-5.6,1.1-8,2-9c0.2-0.2,0.6-0.3,0.8-0.1c0.1,0.1,0.2,0.2,0.2,0.3l0.5,1.6
						c0.7-1.2,1.7-2.3,2.8-3.1c2.1-1.4,4.4-2.5,6.8-3.3c0,0-8,9-11.2,18.4C33.8,220.9,33.1,219.5,33,216.8z"/>
					<path class="st24" d="M43.8,245.8c1.6,2.2,1.1,5.2-1.1,6.8c-2.2,1.6-5.2,1.1-6.8-1.1c-1.6-2.2-1.1-5.2,1.1-6.8c0,0,0,0,0,0
						C39.2,243.1,42.2,243.6,43.8,245.8C43.8,245.8,43.8,245.8,43.8,245.8z"/>
					<g class="st25">
						<path class="st24" d="M43,245c0.1,0.1,0.2,0.2,0.2,0.3c1.2,1.6,0.8,3.9-0.8,5.1s-3.9,0.8-5.1-0.8c-1.2-1.6-0.8-3.9,0.8-5.1
							c0.5-0.3,1-0.6,1.6-0.7c-1,0-2,0.3-2.8,0.9c-2.2,1.6-2.6,4.6-1.1,6.7s4.6,2.6,6.7,1.1c2.2-1.6,2.6-4.6,1.1-6.7
							C43.6,245.5,43.3,245.2,43,245z"/>
					</g>
					<path class="st24" d="M49.8,232.1c1.7,2.3,1.2,5.6-1.2,7.3s-5.6,1.2-7.3-1.2c-1.7-2.3-1.2-5.6,1.2-7.3c0,0,0,0,0,0
						C44.9,229.2,48.2,229.7,49.8,232.1z"/>
					<g class="st25">
						<path class="st24" d="M49,231.2c0.1,0.1,0.2,0.2,0.2,0.3c1.2,1.7,0.9,4.2-0.9,5.4c-1.7,1.2-4.2,0.9-5.4-0.9
							c-1.2-1.7-0.9-4.2,0.9-5.4c0.5-0.4,1.1-0.6,1.7-0.7c-2.9,0-5.2,2.4-5.2,5.3c0,2.9,2.4,5.2,5.3,5.2c2.9,0,5.2-2.4,5.2-5.3
							C50.8,233.6,50.1,232.2,49,231.2z"/>
					</g>
					<path class="st24" d="M51.6,223.6c1.9,2.6,1.3,6.2-1.3,8.1s-6.2,1.3-8.1-1.3c-1.9-2.6-1.3-6.2,1.3-8.1c0,0,0,0,0,0
						C46.1,220.5,49.7,221,51.6,223.6C51.6,223.6,51.6,223.6,51.6,223.6z"/>
					<g class="st25">
						<path class="st24" d="M50.7,222.6c0.1,0.1,0.2,0.2,0.3,0.4c1.4,1.9,1,4.6-1,6c-1.9,1.4-4.6,1-6-1c-1.4-1.9-1-4.6,1-6
							c0,0,0,0,0,0c0.6-0.4,1.2-0.7,1.9-0.8c-3.2,0-5.7,2.6-5.7,5.8c0,3.2,2.6,5.7,5.8,5.7c3.2,0,5.7-2.6,5.7-5.8
							c0-1.2-0.4-2.3-1.1-3.3C51.3,223.2,51,222.9,50.7,222.6z"/>
					</g>
					<path class="st11" d="M34,219.1c0,0-3.9-5.3-3.6-9.8c0.1-2.2,1.1-4.2,2.7-5.7c0.5-0.4,1.3-0.4,1.7,0.1l0,0
						c0.5,0.5,0.5,1.2,0,1.7c-1,1.1-2.6,3.3-2.1,5.8c0.7,3.7,2.2,7.4,2.1,7.6S34,219.1,34,219.1z"/>
					<path class="st23" d="M31.5,212.1c-0.7-3.5,1.3-6.8,2.8-8.7c-0.4-0.1-0.8,0-1.2,0.3c-1.6,1.5-2.6,3.5-2.7,5.7
						c-0.3,4.5,3.6,9.8,3.6,9.8c0.2,0,0.4,0,0.6-0.1C33.1,216.9,32,214.6,31.5,212.1z"/>
					<path class="st24" d="M32.1,218.3c1.6,2.2,1.1,5.2-1.1,6.7c-2.2,1.6-5.2,1.1-6.7-1.1c-1.6-2.2-1.1-5.2,1.1-6.7c0,0,0,0,0,0
						C27.5,215.7,30.5,216.1,32.1,218.3C32.1,218.3,32.1,218.3,32.1,218.3z"/>
					<g class="st25">
						<path class="st24" d="M31.3,217.5c0.1,0.1,0.2,0.2,0.2,0.3c1.2,1.6,0.8,3.9-0.8,5c-1.6,1.2-3.9,0.8-5-0.8
							c-1.2-1.6-0.8-3.9,0.8-5c0.5-0.4,1-0.6,1.6-0.6c-1,0-2,0.3-2.8,0.9c-2.2,1.6-2.6,4.6-1.1,6.7c1.6,2.2,4.6,2.6,6.7,1.1
							c2.2-1.6,2.6-4.6,1.1-6.7c0,0,0,0,0,0C31.8,218,31.6,217.7,31.3,217.5z"/>
					</g>
					<path class="st24" d="M39.4,217.3c1.6,2.2,1.1,5.2-1.1,6.7s-5.2,1.1-6.7-1.1c-1.6-2.2-1.1-5.2,1.1-6.7c0,0,0,0,0,0
						C34.8,214.7,37.8,215.1,39.4,217.3z"/>
					<g class="st25">
						<path class="st24" d="M38.6,216.5c0.1,0.1,0.2,0.2,0.2,0.3c1.2,1.6,0.8,3.9-0.8,5.1c-1.6,1.2-3.9,0.8-5.1-0.8
							c-1.2-1.6-0.8-3.9,0.8-5.1c0.5-0.4,1.1-0.6,1.7-0.7c-2.7,0-4.8,2.2-4.8,4.9c0,2.7,2.2,4.8,4.9,4.8c2.7,0,4.8-2.2,4.8-4.9
							c0-1-0.3-2-0.9-2.8C39.1,217,38.9,216.7,38.6,216.5z"/>
					</g>
					<path class="st24" d="M46,216.4c1.6,2.2,1.1,5.2-1.1,6.7s-5.2,1.1-6.7-1.1c-1.6-2.2-1.1-5.2,1.1-6.7c0,0,0,0,0,0
						C41.4,213.8,44.4,214.3,46,216.4z"/>
					<g class="st25">
						<path class="st24" d="M45.2,215.6c0.1,0.1,0.2,0.2,0.2,0.3c1.2,1.6,0.8,3.9-0.8,5c-1.6,1.2-3.9,0.8-5-0.8
							c-1.2-1.6-0.8-3.9,0.8-5c0.5-0.3,1-0.6,1.6-0.6c-2.7,0-4.8,2.2-4.8,4.9c0,2.7,2.2,4.8,4.9,4.8c2.7,0,4.8-2.2,4.8-4.9
							c0-1-0.3-2-0.9-2.8C45.7,216.1,45.5,215.9,45.2,215.6z"/>
					</g>
					<path class="st24" d="M38.3,240.9c1.6,2.2,1.1,5.2-1.1,6.7c-2.2,1.6-5.2,1.1-6.7-1.1c-1.6-2.2-1.1-5.2,1.1-6.7
						C33.7,238.2,36.7,238.7,38.3,240.9C38.3,240.9,38.3,240.9,38.3,240.9z"/>
					<g class="st25">
						<path class="st24" d="M37.5,240c0.1,0.1,0.2,0.2,0.2,0.3c1.2,1.6,0.8,3.9-0.8,5.1c-1.6,1.2-3.9,0.8-5.1-0.8
							c-1.2-1.6-0.8-3.9,0.8-5.1c0.5-0.4,1.1-0.6,1.7-0.7c-2.7,0-4.8,2.2-4.8,4.9s2.2,4.8,4.9,4.8c2.7,0,4.8-2.2,4.8-4.9
							c0-1-0.3-2-0.9-2.8C38.1,240.5,37.8,240.2,37.5,240z"/>
					</g>
					<path class="st24" d="M46.8,239.3c1.6,2.2,1.1,5.2-1.1,6.8c-2.2,1.6-5.2,1.1-6.8-1.1c-1.6-2.2-1.1-5.2,1.1-6.8c0,0,0,0,0,0
						C42.2,236.6,45.2,237.1,46.8,239.3C46.8,239.3,46.8,239.3,46.8,239.3z"/>
					<g class="st25">
						<path class="st24" d="M46,238.5c0.1,0.1,0.2,0.2,0.2,0.3c1.2,1.6,0.8,3.9-0.8,5.1s-3.9,0.8-5.1-0.8c-1.2-1.6-0.8-3.9,0.8-5.1
							c0.5-0.3,1-0.6,1.6-0.7c-1,0-2,0.3-2.8,0.9c-2.2,1.6-2.6,4.6-1.1,6.7s4.6,2.6,6.7,1.1c2.2-1.6,2.6-4.6,1.1-6.7
							C46.5,239,46.3,238.7,46,238.5z"/>
					</g>
					<path class="st24" d="M33.6,234.3c1.7,2.3,1.2,5.6-1.2,7.3s-5.6,1.2-7.3-1.2c-1.7-2.3-1.2-5.6,1.2-7.3c0,0,0,0,0,0
						C28.6,231.5,31.9,232,33.6,234.3z"/>
					<g class="st25">
						<path class="st24" d="M32.8,233.4c0.1,0.1,0.2,0.2,0.2,0.3c1.3,1.7,0.9,4.2-0.9,5.4c-1.7,1.3-4.2,0.9-5.4-0.9
							c-1.3-1.7-0.9-4.2,0.9-5.4c0,0,0,0,0,0c0.5-0.4,1.1-0.6,1.8-0.7c-2.9,0-5.2,2.4-5.2,5.2c0,2.9,2.4,5.2,5.2,5.2
							s5.2-2.4,5.2-5.2c0-1.1-0.4-2.1-1-3C33.3,234,33.1,233.7,32.8,233.4z"/>
					</g>
					<path class="st24" d="M41.9,233.4c1.7,2.3,1.2,5.6-1.2,7.3s-5.6,1.2-7.3-1.2c-1.7-2.3-1.2-5.6,1.2-7.3c0,0,0,0,0,0
						C37,230.5,40.2,231,41.9,233.4z"/>
					<g class="st25">
						<path class="st24" d="M41.1,232.5c0.1,0.1,0.2,0.2,0.2,0.3c1.3,1.7,0.9,4.2-0.9,5.4c-1.7,1.3-4.2,0.9-5.4-0.9
							c-1.3-1.7-0.9-4.2,0.9-5.4c0,0,0,0,0,0c0.5-0.4,1.1-0.6,1.8-0.7c-2.9,0-5.2,2.4-5.2,5.2c0,2.9,2.4,5.2,5.2,5.2
							s5.2-2.4,5.2-5.2c0-1.1-0.4-2.1-1-3C41.7,233,41.4,232.7,41.1,232.5z"/>
					</g>
					<path class="st24" d="M46,224.3c1.9,2.6,1.3,6.2-1.3,8.1c-2.6,1.9-6.2,1.3-8.1-1.3c-1.9-2.6-1.3-6.2,1.3-8
						C40.5,221.1,44.1,221.7,46,224.3C46,224.3,46,224.3,46,224.3z"/>
					<g class="st25">
						<path class="st24" d="M45.1,223.3c0.1,0.1,0.2,0.2,0.3,0.4c1.4,1.9,1,4.6-1,6c-1.9,1.4-4.6,1-6-1c-1.4-1.9-1-4.6,1-6
							c0.6-0.4,1.2-0.7,2-0.8c-3.2,0-5.7,2.6-5.7,5.8s2.6,5.7,5.8,5.7c3.2,0,5.7-2.6,5.7-5.8c0-1.2-0.4-2.4-1.1-3.3
							C45.7,223.9,45.4,223.6,45.1,223.3z"/>
					</g>
					<path class="st24" d="M30.5,225.7c1.9,2.6,1.3,6.2-1.3,8.1s-6.2,1.3-8.1-1.3c-1.9-2.6-1.3-6.2,1.3-8.1c0,0,0,0,0,0
						C25,222.6,28.6,223.1,30.5,225.7C30.5,225.7,30.5,225.7,30.5,225.7z"/>
					<g class="st25">
						<path class="st24" d="M29.5,224.7c0.1,0.1,0.2,0.2,0.3,0.4c1.4,1.9,1,4.6-1,6c-1.9,1.4-4.6,1-6-1s-1-4.6,1-6c0,0,0,0,0,0
							c0.6-0.4,1.2-0.7,1.9-0.8c-3.2,0-5.7,2.6-5.7,5.8c0,3.2,2.6,5.7,5.8,5.7c3.2,0,5.7-2.6,5.7-5.8c0-1.2-0.4-2.3-1.1-3.3
							C30.2,225.3,29.9,225,29.5,224.7z"/>
					</g>
					<path class="st24" d="M38.8,225c1.9,2.6,1.3,6.2-1.3,8.1c-2.6,1.9-6.2,1.3-8.1-1.3c-1.9-2.6-1.3-6.2,1.3-8.1c0,0,0,0,0,0
						C33.4,221.8,37,222.4,38.8,225z"/>
					<g class="st25">
						<path class="st24" d="M37.9,224c0.1,0.1,0.2,0.2,0.3,0.4c1.4,1.9,1,4.7-1,6.1s-4.7,1-6.1-1c-1.4-1.9-1-4.7,1-6.1
							c0.6-0.4,1.3-0.7,2-0.8c-1.2,0-2.4,0.4-3.3,1.1c-2.6,1.9-3.2,5.5-1.3,8.1c1.9,2.6,5.5,3.2,8.1,1.3c2.6-1.9,3.2-5.5,1.3-8
							C38.6,224.6,38.3,224.3,37.9,224z"/>
					</g>
					<g class="st26">
						<path class="st5" d="M30.4,218c0.1,0.4-0.5,0.6-0.6,0.2c-0.1-0.3-0.5-0.6-0.8-0.6h-0.2c0,0-0.1,0-0.1,0h-0.4
							c-0.2,0-0.3-0.2-0.3-0.4c0-0.1,0.1-0.3,0.3-0.3h0.1c0.3-0.2,0.6-0.2,0.9,0l0,0C29.7,217.1,30.2,217.5,30.4,218z M35.7,215.9
							c-0.9,0.3-1.6,1-1.9,1.9c-0.1,0.4,0.5,0.5,0.6,0.1c0.2-0.7,0.7-1.2,1.4-1.4C36.3,216.4,36.1,215.8,35.7,215.9L35.7,215.9z
							 M41.1,215.4c-0.9,0.7-1.2,1.8-0.9,2.9c0.1,0.2,0.3,0.2,0.4,0.2c0.1-0.1,0.2-0.2,0.2-0.4c-0.3-0.8,0-1.6,0.6-2.1
							C41.8,215.8,41.4,215.2,41.1,215.4L41.1,215.4z M41.3,222.4c-0.4,0-0.4,0.6,0,0.7c0.8,0,1.5,0.5,1.7,1.2
							c0.2,0.4,0.8,0.2,0.6-0.2C43.2,223.1,42.3,222.5,41.3,222.4L41.3,222.4z M35.5,224.2c-1.4,0.1-2.6,1-3,2.4
							c-0.1,0.4,0.5,0.5,0.7,0.1c0.3-1,1.3-1.8,2.4-1.8c0.2-0.1,0.3-0.3,0.2-0.4C35.7,224.3,35.6,224.2,35.5,224.2L35.5,224.2z
							 M24.5,224.9c-1,1-1,2.6-0.1,3.7c0.3,0.3,0.7-0.2,0.4-0.5c-0.7-0.8-0.7-2,0.1-2.8C25.3,225.1,24.8,224.6,24.5,224.9
							L24.5,224.9z M48.5,222.1c-0.2,0-0.3,0.1-0.4,0.3c0,0.2,0.1,0.3,0.2,0.3c0.5,0.1,0.9,0.5,1,1c0.1,0.4,0.7,0.2,0.6-0.2
							C49.8,222.9,49.2,222.4,48.5,222.1L48.5,222.1z M46.6,235.8c-0.9,0.2-1.7-0.4-1.9-1.2c0,0,0,0,0,0c-0.1-0.4-0.7-0.2-0.6,0.2
							c0.3,1.2,1.5,2,2.7,1.7c0,0,0,0,0,0C47.2,236.4,47,235.7,46.6,235.8L46.6,235.8z M37.3,236.9c-0.7-0.1-1.3-0.7-1.5-1.4
							c-0.1-0.4-0.7-0.2-0.6,0.2c0.3,1.2,1.4,1.9,2.7,1.9c0.2,0,0.3-0.2,0.3-0.4c0-0.1,0-0.1-0.1-0.2l-0.2-0.3
							c-0.1-0.1-0.3-0.1-0.5,0C37.3,236.8,37.3,236.8,37.3,236.9L37.3,236.9z M29.1,238.2c-0.8,0-1.4-0.6-1.5-1.4c0,0,0-0.1,0-0.1
							c0-0.4-0.6-0.6-0.6-0.1c-0.1,1.1,0.7,2.2,1.8,2.3c0.1,0,0.2,0,0.3,0C29.6,238.9,29.5,238.2,29.1,238.2L29.1,238.2z
							 M35.2,244.1c-0.8,0.2-1.5-0.3-1.7-1c0,0,0,0,0,0c-0.1-0.4-0.7-0.4-0.7,0c0.2,1.1,1.3,1.9,2.4,1.7c0.1,0,0.1,0,0.2,0
							C35.8,244.7,35.6,244.1,35.2,244.1L35.2,244.1z M41,248.4c-0.8,0.2-1.6,0-2.1-0.6c-0.3-0.3-0.8,0-0.5,0.4
							c0.7,0.9,1.8,1.2,2.8,0.9c0.2-0.1,0.2-0.3,0.2-0.4C41.3,248.4,41.1,248.4,41,248.4z"/>
					</g>
					<path class="st11" d="M71.4,268.4c0,0,2.2-5.4,0.2-9.6c-0.7-1.5-1.5-3-2.5-4.4c-0.2-0.2-0.6-0.3-0.8-0.1
						c-0.1,0.1-0.2,0.2-0.2,0.3l-0.5,1.8c-1-1.5-2.3-2.8-3.8-3.8c-1.1-0.8-1.9-1.3-2.5-1.7c-0.3-0.2-0.8-0.1-1,0.2
						c-0.1,0.1-0.1,0.3-0.1,0.4v0.6l-5.5-5.1c0,0-1.6,6.3-1.3,10.2s1.4,5.6,1.4,5.6l-2.2-0.6c-0.4-0.1-0.9,0.1-1,0.5
						c0,0.1-0.1,0.3,0,0.4c0.5,1.8,2.2,5.1,8.8,9C70.3,277.9,71.4,268.4,71.4,268.4z"/>
					<path class="st23" d="M60.8,272.3c-6.6-3.8-8.4-7.2-8.8-9c-0.1-0.4,0.1-0.8,0.6-1c0.1,0,0.3,0,0.4,0l2.2,0.6
						c0,0-1.1-1.6-1.4-5.6s1.3-10.2,1.3-10.2s4.4,15.8,12.8,26.6C66.2,274.3,64,274.1,60.8,272.3z"/>
					<path class="st24" d="M102.2,281.4c3.7-0.2,6.8,2.6,7,6.3s-2.6,6.8-6.3,7c-3.6,0.2-6.8-2.6-7-6.2
						C95.7,284.7,98.5,281.6,102.2,281.4C102.2,281.4,102.2,281.4,102.2,281.4z"/>
					<g class="st25">
						<path class="st24" d="M100.7,281.6h0.5c2.8-0.2,5.1,1.9,5.3,4.7s-1.9,5.1-4.7,5.3c-2.8,0.2-5.1-1.9-5.3-4.7c0,0,0,0,0-0.1
							c-0.1-0.8,0.1-1.6,0.5-2.4c-0.7,1.2-1.1,2.5-1,3.9c0.2,3.6,3.3,6.4,7,6.2c3.6-0.2,6.4-3.3,6.2-7c-0.2-3.6-3.3-6.4-6.9-6.2
							C101.7,281.4,101.2,281.5,100.7,281.6z"/>
					</g>
					<path class="st24" d="M90.9,264.2c3.9-0.2,7.3,2.8,7.5,6.8c0.2,3.9-2.8,7.3-6.8,7.5c-3.9,0.2-7.3-2.8-7.5-6.7
						C84,267.8,87,264.4,90.9,264.2C90.9,264.2,90.9,264.2,90.9,264.2z"/>
					<g class="st25">
						<path class="st24" d="M89.3,264.5c0.2,0,0.4,0,0.6,0c2.9-0.2,5.5,2.1,5.6,5.1s-2.1,5.5-5.1,5.6c-2.9,0.2-5.5-2.1-5.6-5.1
							c0-0.9,0.1-1.8,0.5-2.5c-2.1,3.3-1.1,7.7,2.2,9.8c3.3,2.1,7.7,1.1,9.8-2.2c2.1-3.3,1.1-7.7-2.2-9.8c-1.2-0.8-2.7-1.2-4.2-1.1
							C90.4,264.2,89.8,264.3,89.3,264.5z"/>
					</g>
					<path class="st24" d="M82.5,255.9c4.4-0.2,8.1,3.1,8.3,7.5c0.2,4.4-3.1,8.1-7.5,8.3c-4.4,0.2-8.1-3.1-8.3-7.5c0,0,0,0,0,0
						C74.8,259.9,78.2,256.2,82.5,255.9z"/>
					<g class="st25">
						<path class="st24" d="M80.7,256.2c0.2,0,0.4,0,0.6-0.1c3.3-0.2,6.1,2.4,6.2,5.6s-2.4,6.1-5.6,6.2c-3.3,0.2-6.1-2.4-6.2-5.6
							c0-1,0.1-1.9,0.6-2.8c-2.3,3.7-1.2,8.6,2.4,10.9c3.7,2.3,8.6,1.2,10.9-2.4c2.3-3.7,1.2-8.6-2.4-10.9c-1.4-0.9-3-1.3-4.6-1.2
							C81.9,256,81.3,256.1,80.7,256.2z"/>
					</g>
					<path class="st11" d="M64.2,272.7c0,0-8.9,0.5-13.9-3.2c-2.4-1.8-4-4.4-4.5-7.4c-0.1-0.9,0.5-1.7,1.3-1.9l0,0
						c0.9-0.2,1.8,0.4,2,1.3c0.5,2,1.9,5.4,5.1,6.7c4.8,1.9,10.2,3,10.3,3.3S64.2,272.7,64.2,272.7z"/>
					<path class="st23" d="M54.3,270.3c-4.5-1.8-6.8-6.6-7.9-9.8c-0.4,0.4-0.6,1-0.6,1.5c0.5,3,2.1,5.6,4.5,7.4
						c4.9,3.7,13.9,3.2,13.9,3.2c0.1-0.2,0.2-0.5,0.3-0.7C61,272.2,57.5,271.6,54.3,270.3z"/>
					<path class="st24" d="M61.8,274.4c3.6-0.2,6.7,2.6,6.9,6.3c0.2,3.6-2.6,6.7-6.3,6.9c-3.6,0.2-6.7-2.6-6.9-6.3
						C55.4,277.7,58.2,274.6,61.8,274.4C61.8,274.4,61.8,274.4,61.8,274.4z"/>
					<g class="st25">
						<path class="st24" d="M60.3,274.7l0.5,0c2.8-0.2,5.1,1.9,5.3,4.7c0.2,2.8-1.9,5.1-4.7,5.3s-5.1-1.9-5.3-4.7c0,0,0-0.1,0-0.1
							c0-0.8,0.1-1.6,0.5-2.4c-2,3.1-1.1,7.1,1.9,9.1c3.1,2,7.1,1.1,9.1-1.9c2-3.1,1.1-7.1-1.9-9.1c-1.2-0.8-2.5-1.1-3.9-1.1
							C61.3,274.5,60.8,274.5,60.3,274.7z"/>
					</g>
					<path class="st24" d="M66.1,265.3c3.6-0.2,6.7,2.6,6.9,6.3c0.2,3.6-2.6,6.7-6.3,6.9c-3.6,0.2-6.7-2.6-6.9-6.3
						C59.7,268.6,62.5,265.5,66.1,265.3C66.1,265.3,66.1,265.3,66.1,265.3z"/>
					<g class="st25">
						<path class="st24" d="M64.6,265.5c0.2,0,0.3,0,0.5,0c2.7-0.1,5,2,5.2,4.7s-2,5-4.7,5.2c-2.7,0.1-5-2-5.2-4.7
							c0-0.8,0.1-1.6,0.5-2.3c-2,3.1-1,7.2,2,9.1c3.1,2,7.2,1,9.1-2c2-3.1,1-7.2-2-9.1c-1.2-0.7-2.5-1.1-3.9-1
							C65.6,265.3,65.1,265.4,64.6,265.5z"/>
					</g>
					<path class="st24" d="M70,257c3.6-0.2,6.8,2.6,7,6.2s-2.6,6.8-6.2,7c-3.6,0.2-6.7-2.6-7-6.2C63.6,260.4,66.3,257.2,70,257
						C70,257,70,257,70,257z"/>
					<g class="st25">
						<path class="st24" d="M68.5,257.3H69c2.8-0.2,5.1,1.9,5.3,4.7c0.2,2.8-1.9,5.1-4.7,5.3c-2.8,0.2-5.1-1.9-5.3-4.7
							c0,0,0-0.1,0-0.1c0-0.8,0.1-1.6,0.5-2.4c-1.9,3.1-1,7.2,2.1,9.1c3.1,1.9,7.2,1,9.1-2.1c1.9-3.1,1-7.2-2.1-9.1
							c-1.2-0.7-2.5-1.1-3.9-1C69.5,257,69,257.1,68.5,257.3z"/>
					</g>
					<path class="st24" d="M92.4,284.1c3.7-0.2,6.8,2.6,7,6.3c0.2,3.7-2.6,6.8-6.3,7c-3.7,0.2-6.8-2.6-7-6.3c0,0,0,0,0,0
						C86,287.3,88.8,284.2,92.4,284.1z"/>
					<g class="st25">
						<path class="st24" d="M90.9,284.3c0.2,0,0.3,0,0.5,0c2.8-0.2,5.1,1.9,5.3,4.7c0.2,2.8-1.9,5.1-4.7,5.3s-5.1-1.9-5.3-4.7
							c0,0,0,0,0-0.1c0-0.8,0.1-1.6,0.5-2.4c-2,3.1-1.1,7.2,2,9.2c3.1,2,7.2,1.1,9.2-2c2-3.1,1.1-7.2-2-9.2c-1.2-0.7-2.5-1.1-3.9-1
							C91.9,284.1,91.4,284.2,90.9,284.3z"/>
					</g>
					<circle class="st24" cx="97.3" cy="279.7" r="6.6"/>
					<g class="st25">
						<path class="st24" d="M95.4,273.4l0.5,0c2.8-0.2,5.1,2,5.3,4.7c0.2,2.8-2,5.1-4.7,5.3c-2.8,0.2-5.1-2-5.3-4.7
							c0-0.8,0.1-1.7,0.5-2.4c-2,3.1-1,7.2,2,9.1c3.1,2,7.2,1,9.1-2c2-3.1,1-7.2-2-9.1c-1.1-0.7-2.5-1.1-3.8-1
							C96.5,273.1,95.9,273.2,95.4,273.4z"/>
					</g>
					<path class="st24" d="M81.4,284.6c3.9-0.2,7.3,2.8,7.5,6.8c0.2,3.9-2.8,7.3-6.8,7.5c-3.9,0.2-7.3-2.8-7.5-6.7
						C74.4,288.2,77.5,284.8,81.4,284.6C81.4,284.6,81.4,284.6,81.4,284.6z"/>
					<g class="st25">
						<path class="st24" d="M79.8,284.9c0.2,0,0.4-0.1,0.5-0.1c2.9-0.2,5.5,2.1,5.6,5.1s-2.1,5.5-5.1,5.6c-2.9,0.2-5.5-2.1-5.6-5.1
							c0-0.9,0.1-1.7,0.5-2.5c-2.2,3.3-1.2,7.8,2.2,9.9c3.3,2.2,7.8,1.2,9.9-2.2s1.2-7.8-2.2-9.9C83.9,284.6,81.8,284.3,79.8,284.9
							L79.8,284.9z"/>
					</g>
					
						<ellipse transform="matrix(0.5989 -0.8008 0.8008 0.5989 -190.548 182.4419)" class="st24" cx="86.9" cy="281.4" rx="7.1" ry="7.1"/>
					<g class="st25">
						<path class="st24" d="M84.9,274.6c0.2,0,0.4-0.1,0.6-0.1c2.9-0.2,5.5,2.1,5.6,5.1s-2.1,5.5-5.1,5.6c-2.9,0.2-5.5-2.1-5.6-5.1
							c0-0.9,0.1-1.7,0.5-2.5c-2.1,3.3-1.1,7.7,2.2,9.8s7.7,1.1,9.8-2.2s1.1-7.7-2.2-9.8c-1.2-0.8-2.7-1.2-4.2-1.1
							C85.9,274.3,85.4,274.4,84.9,274.6z"/>
					</g>
					<path class="st24" d="M79.1,262.9c4.4-0.2,8.1,3.1,8.3,7.5c0.2,4.4-3.1,8.1-7.5,8.3c-4.4,0.2-8.1-3.1-8.3-7.5
						C71.4,266.8,74.7,263.1,79.1,262.9C79.1,262.9,79.1,262.9,79.1,262.9z"/>
					<g class="st25">
						<path class="st24" d="M77.3,263.2l0.6-0.1c3.3-0.2,6.1,2.4,6.2,5.6s-2.4,6.1-5.6,6.2c-3.3,0.2-6.1-2.4-6.2-5.6
							c0-1,0.1-1.9,0.6-2.8c-2.3,3.7-1.3,8.6,2.4,10.9s8.6,1.3,10.9-2.4c2.3-3.7,1.3-8.6-2.4-10.9c-1.4-0.9-3-1.3-4.7-1.2
							C78.5,262.9,77.9,263,77.3,263.2z"/>
					</g>
					<path class="st24" d="M69.2,281.8c4.4-0.2,8.1,3.1,8.3,7.5c0.2,4.4-3.1,8.1-7.5,8.3c-4.4,0.2-8.1-3.1-8.3-7.5c0,0,0,0,0,0
						C61.4,285.7,64.8,282,69.2,281.8C69.2,281.8,69.2,281.8,69.2,281.8z"/>
					<g class="st25">
						<path class="st24" d="M67.4,282.1c0.2,0,0.4-0.1,0.6-0.1c3.3-0.2,6.1,2.3,6.3,5.6c0.2,3.3-2.3,6.1-5.6,6.3
							c-3.3,0.2-6.1-2.3-6.3-5.6c-0.1-1,0.1-2,0.6-2.9c-2.4,3.7-1.3,8.6,2.3,10.9c1.4,0.9,3.1,1.4,4.7,1.3c4.4-0.4,7.6-4.2,7.2-8.6
							c-0.4-4.1-3.9-7.3-8-7.2C68.6,281.8,68,281.9,67.4,282.1z"/>
					</g>
					<path class="st24" d="M74.6,271.6c4.4-0.2,8.1,3.1,8.3,7.5c0.2,4.4-3.1,8.1-7.5,8.3c-4.4,0.2-8.1-3.1-8.3-7.5c0,0,0,0,0,0
						C66.9,275.5,70.2,271.8,74.6,271.6z"/>
					<g class="st25">
						<path class="st24" d="M72.8,271.9c0.2,0,0.4,0,0.6-0.1c3.3-0.2,6.1,2.4,6.2,5.6s-2.4,6.1-5.6,6.2c-3.3,0.2-6.1-2.4-6.2-5.6
							c0-1,0.1-1.9,0.6-2.8c-2.3,3.7-1.2,8.6,2.4,10.9c3.7,2.3,8.6,1.2,10.9-2.4c2.3-3.7,1.2-8.6-2.4-10.9c-1.4-0.9-3-1.3-4.6-1.2
							C74,271.6,73.4,271.7,72.8,271.9z"/>
					</g>
					<g class="st26">
						<path class="st5" d="M60.2,276.2c0.6,0.1,0.3,1-0.2,0.9c-0.5-0.1-1,0.1-1.3,0.5l-0.1,0.3c0,0.1,0,0.1-0.1,0.2l-0.2,0.3
							c0,0,0,0,0,0.1l-0.1,0.1c-0.1,0.2-0.4,0.3-0.6,0.1c-0.2-0.1-0.2-0.4-0.2-0.5l0.1-0.1c0-0.5,0.3-0.9,0.7-1.1l0,0
							C58.7,276.3,59.5,276,60.2,276.2z M61.8,268.4c-0.4,1.2-0.1,2.6,0.8,3.5c0.4,0.4,1-0.2,0.6-0.6c-0.6-0.7-0.8-1.8-0.5-2.7
							C62.9,268.1,62,267.9,61.8,268.4L61.8,268.4z M65.3,261.9c0.1,1.5,1.2,2.7,2.7,3.1c0.2,0,0.5-0.1,0.5-0.4
							c0-0.2-0.1-0.4-0.3-0.5c-1.1-0.3-1.9-1.2-2-2.2C66.2,261.3,65.3,261.3,65.3,261.9L65.3,261.9z M73.5,266.9
							c-0.3,0.5,0.5,0.9,0.8,0.4c0.6-0.9,1.6-1.3,2.6-1.1c0.6,0.1,0.8-0.8,0.2-0.9C75.7,265.1,74.2,265.8,73.5,266.9L73.5,266.9z
							 M71.2,274.8c-0.9,1.7-0.7,3.7,0.5,5.2c0.4,0.5,1-0.2,0.6-0.6c-0.9-1.2-1.1-2.8-0.3-4.1c0.1-0.2-0.1-0.5-0.3-0.5
							C71.5,274.7,71.3,274.7,71.2,274.8L71.2,274.8z M63.8,288c0.4,1.9,2.2,3.2,4.2,2.9c0.6-0.1,0.3-1-0.2-0.9
							c-1.4,0.2-2.8-0.8-3.1-2.2C64.6,287.3,63.7,287.5,63.8,288L63.8,288z M78.6,258.3c-0.4,0.4,0.2,1,0.6,0.6
							c0.5-0.5,1.3-0.7,1.9-0.5c0.6,0.2,0.8-0.7,0.2-0.9C80.4,257.3,79.3,257.6,78.6,258.3L78.6,258.3z M92.8,270.7
							c-0.4,1.1-1.7,1.7-2.9,1.3c0,0,0,0,0,0c-0.5-0.2-0.8,0.7-0.2,0.9c1.6,0.6,3.4-0.3,4-1.9c0,0,0,0,0-0.1
							C93.9,270.5,93,270.2,92.8,270.7L92.8,270.7z M87.1,282.2c-0.7,0.7-1.8,1-2.7,0.7c-0.6-0.2-0.8,0.7-0.2,0.9
							c1.6,0.5,3.3-0.2,4.1-1.7c0.1-0.2,0-0.5-0.2-0.6c-0.1,0-0.1,0-0.2-0.1h-0.5c-0.2,0-0.5,0.2-0.5,0.4
							C86.9,282.1,87,282.2,87.1,282.2L87.1,282.2z M82.6,292.6c-0.6,0.9-1.8,1.2-2.8,0.6c0,0-0.1,0-0.1-0.1
							c-0.4-0.4-1.1,0.3-0.6,0.6c1.2,1,3,0.8,4-0.4c0.1-0.1,0.2-0.2,0.2-0.3C83.7,292.6,82.9,292.2,82.6,292.6L82.6,292.6z
							 M93.9,290c-0.4,1-1.5,1.5-2.5,1.2c0,0,0,0,0,0c-0.5-0.2-1,0.6-0.4,0.8c1.4,0.6,3.1-0.1,3.7-1.5c0-0.1,0.1-0.1,0.1-0.2
							C95,289.8,94.1,289.5,93.9,290L93.9,290z M103.1,286.5c-0.3,1.1-1.2,1.8-2.3,2c-0.6,0-0.6,1,0,0.9c1.5-0.1,2.8-1.1,3.2-2.6
							c0.1-0.3-0.1-0.5-0.3-0.6C103.4,286.2,103.2,286.3,103.1,286.5L103.1,286.5z"/>
					</g>
					<path class="st11" d="M182.4,239.9c0,0-2.7-0.5-3.9-2.4c-0.4-0.7-0.8-1.4-1.1-2.1c-0.1-0.1,0-0.3,0.2-0.4c0.1,0,0.1,0,0.2,0
						l0.9,0.3c-0.4-0.8-0.5-1.6-0.6-2.5c0-0.6,0-1.1,0-1.4c0-0.2,0.2-0.3,0.3-0.3c0.1,0,0.1,0,0.2,0.1l0.2,0.2l-0.6-3.5
						c1.6,0.5,3.1,1.3,4.4,2.2c0.8,0.5,1.4,1.2,1.9,2l0.3-1c0.1-0.2,0.3-0.3,0.5-0.2c0.1,0,0.1,0.1,0.2,0.1c0.6,0.6,1.5,2.2,1.3,5.9
						C186.4,242,182.4,239.9,182.4,239.9z"/>
					<path class="st23" d="M186.7,236.7c0.2-3.6-0.7-5.2-1.3-5.9c-0.1-0.2-0.4-0.2-0.5,0c-0.1,0-0.1,0.1-0.1,0.2l-0.3,1
						c-0.5-0.8-1.1-1.5-1.9-2c-1.4-0.9-2.9-1.6-4.4-2.2c0,0,5.2,5.9,7.3,12.1C186.1,239.4,186.6,238.5,186.7,236.7z"/>
					<path class="st24" d="M179.6,255.7c-1,1.4-0.7,3.4,0.7,4.4c1.4,1,3.4,0.7,4.4-0.7c1-1.4,0.7-3.4-0.7-4.4
						C182.6,254,180.6,254.3,179.6,255.7C179.6,255.7,179.6,255.7,179.6,255.7z"/>
					<g class="st25">
						<path class="st24" d="M180.1,255.2l-0.1,0.2c-0.8,1.1-0.5,2.6,0.5,3.3c1.1,0.8,2.6,0.5,3.3-0.5s0.5-2.6-0.5-3.3c0,0,0,0,0,0
							c-0.3-0.2-0.7-0.4-1.1-0.4c0.7,0,1.3,0.2,1.8,0.6c1.4,1,1.8,3,0.7,4.4c-1,1.4-3,1.8-4.4,0.7c-1.4-1-1.8-3-0.7-4.4c0,0,0,0,0,0
							C179.7,255.5,179.9,255.3,180.1,255.2z"/>
					</g>
					<path class="st24" d="M175.6,246.7c-1.1,1.5-0.8,3.7,0.8,4.8c1.5,1.1,3.7,0.8,4.8-0.8c1.1-1.5,0.8-3.7-0.8-4.8c0,0,0,0,0,0
						C178.8,244.8,176.7,245.2,175.6,246.7z"/>
					<g class="st25">
						<path class="st24" d="M176.1,246.1l-0.2,0.2c-0.8,1.1-0.6,2.7,0.6,3.6c1.1,0.8,2.7,0.6,3.6-0.6c0.8-1.1,0.6-2.7-0.6-3.6
							c0,0,0,0,0,0c-0.3-0.3-0.7-0.4-1.1-0.5c1.9,0,3.4,1.6,3.4,3.4c0,1.9-1.6,3.4-3.4,3.4c-1.9,0-3.4-1.6-3.4-3.4
							c0-0.7,0.2-1.4,0.6-2C175.8,246.5,175.9,246.3,176.1,246.1z"/>
					</g>
					<path class="st24" d="M174.5,241.2c-1.2,1.7-0.8,4.1,0.8,5.3s4.1,0.8,5.3-0.8c1.2-1.7,0.8-4.1-0.8-5.3c0,0,0,0,0,0
						C178.1,239.1,175.7,239.5,174.5,241.2z"/>
					<g class="st25">
						<path class="st24" d="M175.1,240.5c-0.1,0.1-0.1,0.1-0.2,0.2c-0.9,1.3-0.6,3.1,0.6,4c1.3,0.9,3.1,0.6,4-0.6
							c0.9-1.3,0.6-3.1-0.6-4c-0.4-0.3-0.8-0.5-1.3-0.5c0.8,0,1.6,0.2,2.2,0.7c1.7,1.2,2.1,3.6,0.9,5.3c-1.2,1.7-3.6,2.1-5.3,0.9
							c-1.7-1.2-2.1-3.6-0.9-5.3c0,0,0,0,0,0C174.6,240.9,174.8,240.7,175.1,240.5z"/>
					</g>
					<path class="st11" d="M186,238.2c0,0,2.5-3.5,2.3-6.4c-0.1-1.4-0.7-2.8-1.8-3.7c-0.3-0.3-0.8-0.3-1.1,0l0,0
						c-0.3,0.3-0.3,0.8,0,1.1c1,1,1.5,2.4,1.4,3.8c-0.5,2.4-1.4,4.9-1.4,5S186,238.2,186,238.2z"/>
					<path class="st23" d="M187.6,233.6c0.4-2.3-0.9-4.5-1.9-5.7c0.3-0.1,0.6,0,0.8,0.2c1.1,1,1.7,2.3,1.8,3.7
						c0.2,2.9-2.3,6.4-2.3,6.4s-0.2,0-0.4,0C186.6,236.8,187.3,235.2,187.6,233.6z"/>
					<path class="st24" d="M187.3,237.7c-1,1.4-0.7,3.4,0.7,4.4s3.4,0.7,4.4-0.7s0.7-3.4-0.7-4.4c0,0,0,0,0,0
						C190.3,236,188.3,236.3,187.3,237.7z"/>
					<g class="st25">
						<path class="st24" d="M187.8,237.1l-0.1,0.2c-0.8,1.1-0.5,2.5,0.5,3.3c1.1,0.8,2.5,0.5,3.3-0.5c0.8-1.1,0.5-2.5-0.5-3.3
							c-0.3-0.2-0.7-0.4-1.1-0.4c1.8,0,3.2,1.4,3.1,3.2c0,1.8-1.4,3.2-3.2,3.1c-1.8,0-3.2-1.4-3.1-3.2c0-0.7,0.2-1.3,0.6-1.8
							C187.4,237.5,187.6,237.3,187.8,237.1z"/>
					</g>
					<path class="st24" d="M182.5,237c-1,1.4-0.7,3.4,0.7,4.4c1.4,1,3.4,0.7,4.4-0.7c1-1.4,0.7-3.4-0.7-4.4
						C185.5,235.3,183.5,235.6,182.5,237C182.5,237,182.5,237,182.5,237z"/>
					<g class="st25">
						<path class="st24" d="M183,236.5l-0.1,0.2c-0.7,1.1-0.5,2.6,0.6,3.3c1.1,0.7,2.6,0.5,3.3-0.6c0.7-1.1,0.5-2.6-0.6-3.3
							c-0.3-0.2-0.7-0.4-1.1-0.4c1.7,0,3.1,1.4,3.1,3.2s-1.4,3.1-3.2,3.1c-1.7,0-3.1-1.4-3.1-3.2c0-0.7,0.2-1.3,0.6-1.8
							C182.7,236.8,182.8,236.6,183,236.5z"/>
					</g>
					<path class="st24" d="M178.1,236.5c-1,1.4-0.7,3.4,0.7,4.4c1.4,1,3.4,0.7,4.4-0.7c1-1.4,0.7-3.4-0.7-4.4c0,0,0,0,0,0
						C181.2,234.7,179.2,235,178.1,236.5C178.2,236.5,178.2,236.5,178.1,236.5z"/>
					<g class="st25">
						<path class="st24" d="M178.6,235.9c-0.1,0.1-0.1,0.1-0.2,0.2c-0.8,1.1-0.5,2.5,0.5,3.3c1.1,0.8,2.5,0.5,3.3-0.5
							c0.8-1.1,0.5-2.5-0.5-3.3c-0.3-0.2-0.7-0.4-1.1-0.4c0.7,0,1.3,0.2,1.8,0.6c1.4,1,1.7,3,0.7,4.4c-1,1.4-3,1.7-4.4,0.7
							c-1.4-1-1.7-3-0.7-4.4c0,0,0,0,0,0C178.3,236.3,178.5,236.1,178.6,235.9z"/>
					</g>
					<path class="st24" d="M183.2,252.5c-1,1.4-0.7,3.4,0.7,4.4c1.4,1,3.4,0.7,4.4-0.7c1-1.4,0.7-3.4-0.7-4.4
						C186.2,250.8,184.2,251.1,183.2,252.5C183.2,252.5,183.2,252.5,183.2,252.5z"/>
					<g class="st25">
						<path class="st24" d="M183.7,252l-0.1,0.2c-0.8,1.1-0.5,2.6,0.5,3.3c1.1,0.8,2.6,0.5,3.3-0.5c0.8-1.1,0.5-2.6-0.5-3.3
							c0,0,0,0,0,0c-0.3-0.2-0.7-0.4-1.1-0.4c1.7,0,3.1,1.4,3.1,3.2c0,1.7-1.4,3.1-3.2,3.1s-3.1-1.4-3.1-3.2
							C182.6,253.4,183,252.6,183.7,252L183.7,252z"/>
					</g>
					<path class="st24" d="M177.6,251.5c-1,1.4-0.7,3.4,0.7,4.4c1.4,1,3.4,0.7,4.4-0.7c1-1.4,0.7-3.4-0.7-4.4c0,0,0,0,0,0
						C180.6,249.7,178.6,250,177.6,251.5z"/>
					<g class="st25">
						<path class="st24" d="M178.1,250.9l-0.1,0.2c-0.8,1.1-0.5,2.6,0.5,3.3s2.6,0.5,3.3-0.5c0.8-1.1,0.5-2.6-0.5-3.3c0,0,0,0,0,0
							c-0.3-0.2-0.7-0.4-1.1-0.4c0.7,0,1.3,0.2,1.8,0.6c1.4,1,1.8,3,0.7,4.4c-1,1.4-3,1.8-4.4,0.7c-1.4-1-1.8-3-0.7-4.4c0,0,0,0,0,0
							C177.7,251.3,177.9,251.1,178.1,250.9z"/>
					</g>
					<path class="st24" d="M186.3,248.2c-1.1,1.5-0.8,3.7,0.8,4.8s3.7,0.8,4.8-0.8c1.1-1.5,0.8-3.7-0.8-4.8c0,0,0,0,0,0
						C189.5,246.3,187.4,246.7,186.3,248.2z"/>
					<g class="st25">
						<path class="st24" d="M186.8,247.6l-0.2,0.2c-0.8,1.1-0.6,2.7,0.6,3.6c1.1,0.8,2.7,0.6,3.6-0.6c0.8-1.1,0.6-2.7-0.6-3.5
							c-0.3-0.2-0.7-0.4-1.1-0.5c0.7,0,1.4,0.2,2,0.6c1.5,1.1,1.9,3.2,0.8,4.8c-1.1,1.5-3.2,1.9-4.8,0.8c-1.5-1.1-1.9-3.2-0.8-4.8
							c0,0,0,0,0,0C186.5,248,186.6,247.8,186.8,247.6z"/>
					</g>
					<path class="st24" d="M180.8,247.6c-1.1,1.5-0.8,3.7,0.8,4.8c1.5,1.1,3.7,0.8,4.8-0.8c1.1-1.5,0.8-3.7-0.8-4.8c0,0,0,0,0,0
						C184.1,245.7,181.9,246,180.8,247.6C180.8,247.6,180.8,247.6,180.8,247.6z"/>
					<g class="st25">
						<path class="st24" d="M181.3,247c-0.1,0.1-0.1,0.1-0.2,0.2c-0.8,1.1-0.6,2.7,0.6,3.6c1.1,0.8,2.7,0.6,3.6-0.6
							c0.8-1.1,0.6-2.7-0.6-3.6c0,0,0,0,0,0c-0.3-0.2-0.7-0.4-1.1-0.5c1.9,0,3.4,1.6,3.4,3.4c0,1.9-1.6,3.4-3.4,3.4
							c-1.9,0-3.4-1.6-3.4-3.4c0-0.7,0.2-1.4,0.6-2C181,247.4,181.1,247.2,181.3,247z"/>
					</g>
					<path class="st24" d="M178.1,241.6c-1.2,1.7-0.8,4.1,0.8,5.3s4.1,0.8,5.3-0.8c1.2-1.7,0.8-4.1-0.8-5.3c0,0,0,0,0,0
						C181.7,239.6,179.4,239.9,178.1,241.6z"/>
					<g class="st25">
						<path class="st24" d="M178.7,241c-0.1,0.1-0.1,0.1-0.2,0.2c-0.9,1.3-0.6,3.1,0.6,4c1.3,0.9,3.1,0.6,4-0.6
							c0.9-1.3,0.6-3.1-0.6-4c-0.4-0.3-0.8-0.5-1.3-0.5c0.8,0,1.6,0.2,2.2,0.7c1.7,1.2,2.1,3.6,0.9,5.3c-1.2,1.7-3.6,2.1-5.3,0.9
							c-1.7-1.2-2.1-3.6-0.9-5.3c0,0,0,0,0,0C178.3,241.4,178.5,241.2,178.7,241z"/>
					</g>
					<path class="st24" d="M188.3,242.6c-1.2,1.7-0.8,4.1,0.8,5.3s4.1,0.8,5.3-0.8c1.2-1.7,0.8-4.1-0.8-5.3c0,0,0,0,0,0
						C191.9,240.5,189.6,240.8,188.3,242.6C188.3,242.5,188.3,242.5,188.3,242.6z"/>
					<g class="st25">
						<path class="st24" d="M188.9,241.9l-0.2,0.2c-0.9,1.3-0.6,3,0.6,4c1.3,0.9,3,0.6,4-0.6c0.9-1.3,0.6-3-0.6-4
							c-0.4-0.3-0.8-0.4-1.3-0.5c0.8,0,1.6,0.2,2.2,0.7c1.7,1.2,2.1,3.6,0.9,5.3c-1.2,1.7-3.6,2.1-5.3,0.9c-1.7-1.2-2.1-3.6-0.9-5.3
							c0,0,0,0,0,0C188.5,242.3,188.7,242.1,188.9,241.9z"/>
					</g>
					<path class="st24" d="M182.8,242.1c-1.2,1.7-0.8,4.1,0.8,5.3s4.1,0.8,5.3-0.8c1.2-1.7,0.8-4.1-0.8-5.3c0,0,0,0,0,0
						C186.4,240,184,240.4,182.8,242.1z"/>
					<g class="st25">
						<path class="st24" d="M183.4,241.4c-0.1,0.1-0.1,0.1-0.2,0.2c-0.9,1.3-0.6,3,0.7,4s3,0.6,4-0.7c0.9-1.3,0.6-3-0.6-3.9
							c-0.4-0.3-0.8-0.5-1.3-0.5c0.8,0,1.6,0.2,2.2,0.7c1.7,1.2,2.1,3.6,0.9,5.3c-1.2,1.7-3.6,2.1-5.3,0.9c-1.7-1.2-2.1-3.6-0.9-5.3
							c0,0,0,0,0,0C183,241.8,183.2,241.6,183.4,241.4z"/>
					</g>
					<g class="st26">
						<path class="st5" d="M189.2,236.8L189.2,236.8c0.2-0.1,0.4-0.1,0.6,0h0.1c0.1,0,0.2,0.1,0.2,0.3c0,0.1-0.1,0.2-0.2,0.2h-0.3
							h-0.1h-0.1c-0.2,0-0.4,0.2-0.5,0.4c-0.1,0.3-0.5,0.1-0.4-0.1C188.5,237.2,188.8,236.9,189.2,236.8z M184.7,236.5
							c0.5,0.1,0.8,0.5,0.9,0.9c0.1,0.3,0.5,0.2,0.4-0.1c-0.2-0.6-0.6-1.1-1.2-1.2C184.6,236.1,184.5,236.5,184.7,236.5z
							 M181.1,236.2c0.4,0.3,0.6,0.9,0.4,1.4c0,0.1,0.1,0.2,0.2,0.3c0.1,0,0.2,0,0.2-0.1c0.2-0.7,0-1.4-0.6-1.9
							C181.1,235.7,180.9,236,181.1,236.2L181.1,236.2z M179.7,241.5c-0.1,0.2,0.3,0.4,0.4,0.1c0.2-0.5,0.6-0.7,1.1-0.8
							c0.3,0,0.3-0.4,0-0.4C180.5,240.4,179.9,240.9,179.7,241.5L179.7,241.5z M185,242c0.7,0,1.3,0.5,1.6,1.2
							c0.1,0.3,0.5,0.2,0.4-0.1c-0.3-0.9-1.1-1.5-2-1.6c-0.1,0-0.2,0.1-0.2,0.3C184.8,241.9,184.9,242,185,242z M191.9,242.3
							c0.5,0.5,0.5,1.3,0.1,1.8c-0.2,0.2,0.1,0.5,0.3,0.3c0.6-0.7,0.6-1.7,0-2.4C192,241.9,191.7,242.1,191.9,242.3L191.9,242.3z
							 M175.5,241.2c-0.1,0.3,0.3,0.4,0.4,0.1c0.1-0.3,0.3-0.6,0.7-0.7c0.1,0,0.2-0.1,0.2-0.2s-0.1-0.2-0.2-0.2l0,0
							C176,240.3,175.6,240.7,175.5,241.2L175.5,241.2z M177.6,249.6c0.8,0.2,1.6-0.3,1.8-1.1c0,0,0,0,0,0c0.1-0.3-0.4-0.4-0.4-0.1
							c-0.1,0.5-0.6,0.9-1.1,0.9c0,0-0.1,0-0.1,0C177.5,249.1,177.3,249.5,177.6,249.6L177.6,249.6z M183.5,249.8l-0.1,0.2
							c-0.1,0.1,0,0.2,0.1,0.3c0,0,0.1,0,0.1,0c0.8,0,1.5-0.5,1.7-1.2c0.1-0.3-0.3-0.4-0.4-0.1c-0.1,0.5-0.5,0.8-1,0.9
							C183.8,249.7,183.6,249.6,183.5,249.8L183.5,249.8z M189.2,251.2c0.8,0,1.4-0.6,1.4-1.4c0-0.1,0-0.1,0-0.2
							c0-0.3-0.4-0.2-0.4,0.1c0,0.5-0.4,1-0.9,1c0,0,0,0-0.1,0C188.9,250.8,188.9,251.2,189.2,251.2L189.2,251.2z M185.1,255.1
							c0.7,0.2,1.5-0.2,1.7-1c0,0,0-0.1,0-0.1c0.1-0.3-0.4-0.3-0.4,0c-0.1,0.5-0.6,0.8-1.1,0.7c0,0,0,0,0,0
							C184.9,254.6,184.8,255,185.1,255.1L185.1,255.1z M181.3,257.9c0.7,0.2,1.4,0,1.9-0.6c0.2-0.2-0.2-0.5-0.4-0.2
							c-0.3,0.4-0.9,0.6-1.4,0.4c-0.1,0-0.2,0.1-0.2,0.2C181.2,257.7,181.2,257.8,181.3,257.9L181.3,257.9z"/>
					</g>
					<path class="st11" d="M169.6,276c0,0-1.9-4.7-0.2-8.4c0.6-1.3,1.3-2.6,2.1-3.8c0.2-0.2,0.5-0.3,0.7-0.1
						c0.1,0.1,0.2,0.2,0.2,0.3l0.4,1.6c0.9-1.3,2-2.5,3.3-3.3c1-0.7,1.7-1.2,2.2-1.5c0.3-0.2,0.7-0.1,0.9,0.1
						c0.1,0.1,0.1,0.3,0.1,0.5v0.5l4.8-4.4c0,0,1.4,5.5,1.1,9s-1.2,4.9-1.2,4.9l1.9-0.5c0.4-0.1,0.7,0.1,0.8,0.4c0,0.1,0,0.3,0,0.4
						c-0.4,1.5-2,4.5-7.7,7.9C170.6,284.3,169.6,276,169.6,276z"/>
					<path class="st23" d="M178.9,279.4c5.8-3.4,7.3-6.3,7.7-7.9c0.1-0.4-0.1-0.7-0.5-0.8c-0.1,0-0.3,0-0.4,0l-1.9,0.5
						c0,0,0.9-1.4,1.2-4.9s-1.1-9-1.1-9s-3.8,13.9-11.2,23.3C174.2,281.2,176.1,281,178.9,279.4z"/>
					<path class="st24" d="M142.7,287.4c-3.2-0.2-5.9,2.3-6.1,5.5c-0.2,3.2,2.3,5.9,5.5,6.1c3.2,0.2,5.9-2.3,6.1-5.5c0,0,0,0,0,0
						C148.3,290.3,145.9,287.5,142.7,287.4z"/>
					<g class="st25">
						<path class="st24" d="M144,287.6c-0.1,0-0.3,0-0.4,0c-2.4-0.1-4.4,1.7-4.6,4.1s1.7,4.4,4.1,4.6c2.4,0.1,4.4-1.7,4.6-4.1
							c0,0,0,0,0,0c0-0.7-0.1-1.4-0.4-2.1c0.7,1,1,2.2,0.9,3.4c-0.2,3.2-2.9,5.7-6.1,5.5s-5.7-2.9-5.5-6.1s2.9-5.7,6.1-5.5
							c0,0,0,0,0,0C143.1,287.4,143.6,287.5,144,287.6z"/>
					</g>
					<path class="st24" d="M152.5,272.3c-3.4-0.2-6.4,2.5-6.5,5.9c-0.2,3.4,2.5,6.4,5.9,6.5c3.4,0.2,6.4-2.5,6.5-5.9
						C158.6,275.4,156,272.5,152.5,272.3C152.6,272.3,152.5,272.3,152.5,272.3z"/>
					<g class="st25">
						<path class="st24" d="M154,272.6l-0.5,0c-2.6-0.1-4.8,1.8-4.9,4.4c-0.1,2.6,1.8,4.8,4.4,4.9c2.6,0.1,4.8-1.8,4.9-4.4
							c0,0,0,0,0,0c0-0.8-0.1-1.5-0.4-2.2c1.8,2.9,1,6.7-1.9,8.6c-2.9,1.8-6.7,1-8.6-1.9c-1.8-2.9-1-6.7,1.9-8.6
							c1.1-0.7,2.4-1,3.7-1C153.1,272.4,153.5,272.4,154,272.6z"/>
					</g>
					<path class="st24" d="M159.9,265.1c-3.8-0.2-7.1,2.7-7.3,6.6s2.7,7.1,6.6,7.3c3.8,0.2,7.1-2.7,7.3-6.6
						C166.6,268.6,163.7,265.3,159.9,265.1z"/>
					<g class="st25">
						<path class="st24" d="M161.5,265.4l-0.5,0c-2.9-0.1-5.3,2.1-5.4,4.9c-0.1,2.9,2.1,5.3,4.9,5.4c2.9,0.1,5.3-2.1,5.4-4.9
							c0-0.9-0.1-1.7-0.5-2.5c0.8,1.2,1.2,2.6,1.1,4.1c-0.2,3.8-3.5,6.8-7.3,6.6c-3.8-0.2-6.8-3.5-6.6-7.3c0.2-3.8,3.4-6.7,7.3-6.6
							C160.4,265.1,160.9,265.2,161.5,265.4z"/>
					</g>
					<path class="st11" d="M175.9,279.8c0,0,7.8,0.4,12.1-2.8c2.1-1.6,3.5-3.9,3.9-6.5c0.1-0.8-0.4-1.5-1.2-1.7l0,0
						c-0.8-0.2-1.6,0.3-1.8,1.1c-0.5,1.8-1.6,4.7-4.5,5.9c-4.2,1.7-8.9,2.7-9,2.9S175.9,279.8,175.9,279.8z"/>
					<path class="st23" d="M184.6,277.7c4-1.6,6-5.8,6.9-8.5c0.4,0.3,0.6,0.8,0.5,1.3c-0.4,2.6-1.8,4.9-3.9,6.5
						c-4.3,3.2-12.1,2.8-12.1,2.8c-0.1-0.2-0.2-0.4-0.3-0.6C178.7,279.3,181.8,278.8,184.6,277.7z"/>
					<path class="st24" d="M178,281.3c-3.2-0.2-5.9,2.3-6.1,5.5c-0.2,3.2,2.3,5.9,5.5,6.1s5.9-2.3,6.1-5.5c0,0,0,0,0,0
						C183.6,284.1,181.2,281.4,178,281.3z"/>
					<g class="st25">
						<path class="st24" d="M179.3,281.5c-0.1,0-0.3,0-0.4,0c-2.4-0.1-4.4,1.8-4.5,4.1c-0.1,2.4,1.8,4.4,4.1,4.5
							c2.4,0.1,4.4-1.8,4.5-4.1c0,0,0,0,0,0c0-0.7-0.1-1.4-0.4-2.1c0.7,1,1,2.2,0.9,3.4c-0.2,3.2-2.9,5.6-6.1,5.5
							c-3.2-0.2-5.6-2.9-5.5-6.1c0.2-3.2,2.9-5.6,6.1-5.5c0,0,0,0,0,0C178.5,281.3,178.9,281.4,179.3,281.5z"/>
					</g>
					<path class="st24" d="M174.2,273.3c-3.2-0.2-5.9,2.3-6.1,5.5c-0.2,3.2,2.3,5.9,5.5,6.1c3.2,0.2,5.9-2.3,6.1-5.5
						C179.9,276.2,177.4,273.4,174.2,273.3C174.2,273.3,174.2,273.3,174.2,273.3z"/>
					<g class="st25">
						<path class="st24" d="M175.5,273.5l-0.4,0c-2.4-0.1-4.4,1.7-4.6,4.1c-0.1,2.4,1.7,4.4,4.1,4.6s4.4-1.7,4.6-4.1c0,0,0,0,0,0
							c0-0.7-0.1-1.4-0.4-2.1c1.7,2.7,0.9,6.3-1.8,8c-2.7,1.7-6.3,0.9-8-1.8c-1.7-2.7-0.9-6.3,1.8-8c1-0.6,2.2-1,3.4-0.9
							C174.7,273.3,175.1,273.4,175.5,273.5z"/>
					</g>
					<path class="st24" d="M170.8,266.1c-3.2-0.2-5.9,2.3-6.1,5.5c-0.2,3.2,2.3,5.9,5.5,6.1c3.2,0.2,5.9-2.3,6.1-5.5c0,0,0,0,0,0
						C176.4,268.9,174,266.2,170.8,266.1C170.8,266.1,170.8,266.1,170.8,266.1z"/>
					<g class="st25">
						<path class="st24" d="M172.1,266.3h-0.4c-2.4-0.1-4.4,1.7-4.5,4.1c-0.1,2.4,1.7,4.4,4.1,4.5c2.4,0.1,4.4-1.7,4.5-4.1
							c0,0,0,0,0,0c0-0.7-0.1-1.4-0.4-2c1.7,2.7,0.9,6.3-1.8,8c-0.4,0.2-0.7,0.4-1.1,0.6c-0.7,0.3-1.5,0.4-2.3,0.3
							c-3.2-0.3-5.6-3-5.3-6.2c0.2-3.1,2.8-5.4,5.9-5.3C171.2,266.1,171.7,266.2,172.1,266.3z"/>
					</g>
					<path class="st24" d="M151.2,289.7c-3.2-0.2-5.9,2.3-6.1,5.5c-0.2,3.2,2.3,5.9,5.5,6.1s5.9-2.3,6.1-5.5c0,0,0,0,0,0
						C156.9,292.6,154.4,289.9,151.2,289.7z"/>
					<g class="st25">
						<path class="st24" d="M152.5,289.9c-0.1,0-0.3,0-0.4,0c-2.4-0.1-4.4,1.7-4.5,4.1c-0.1,2.4,1.7,4.4,4.1,4.5
							c2.4,0.1,4.4-1.7,4.5-4.1c0-0.7-0.1-1.4-0.4-2c1.7,2.7,0.9,6.3-1.8,8s-6.3,0.9-8-1.8s-0.9-6.3,1.8-8c1-0.6,2.2-1,3.4-0.9
							C151.7,289.7,152.1,289.8,152.5,289.9z"/>
					</g>
					<path class="st24" d="M147.2,280.1c-3.2-0.2-5.9,2.3-6.1,5.5c-0.2,3.2,2.3,5.9,5.5,6.1c3.2,0.2,5.9-2.3,6.1-5.5c0,0,0,0,0,0
						C152.9,283,150.5,280.3,147.2,280.1C147.3,280.1,147.3,280.1,147.2,280.1z"/>
					<g class="st25">
						<path class="st24" d="M148.6,280.4c-0.1,0-0.3,0-0.4,0c-2.4-0.1-4.4,1.7-4.6,4.1s1.7,4.4,4.1,4.6c2.4,0.1,4.4-1.7,4.6-4.1
							c0,0,0,0,0,0c0-0.7-0.1-1.4-0.4-2.1c1.7,2.7,0.9,6.3-1.8,8c-2.7,1.7-6.3,0.9-8-1.8c-1.7-2.7-0.9-6.3,1.8-8
							c1-0.7,2.2-1,3.4-0.9C147.7,280.2,148.1,280.2,148.6,280.4z"/>
					</g>
					<path class="st24" d="M160.9,290.2c-3.4-0.2-6.4,2.5-6.5,5.9s2.5,6.4,5.9,6.5s6.4-2.5,6.5-5.9c0,0,0,0,0,0
						C166.9,293.3,164.3,290.4,160.9,290.2z"/>
					<g class="st25">
						<path class="st24" d="M162.3,290.5c-0.2,0-0.3,0-0.5,0c-2.6-0.1-4.8,1.9-4.9,4.4s1.9,4.8,4.4,4.9c2.6,0.1,4.8-1.9,4.9-4.4
							c0-0.8-0.1-1.5-0.4-2.2c1.8,2.9,1,6.8-1.9,8.6s-6.8,1-8.6-1.9c-1.8-2.9-1-6.8,1.9-8.6c1.1-0.7,2.4-1,3.7-1
							C161.4,290.2,161.8,290.3,162.3,290.5z"/>
					</g>
					<path class="st24" d="M156.4,281.2c-3.4-0.2-6.4,2.5-6.5,5.9c-0.2,3.4,2.5,6.4,5.9,6.5c3.4,0.2,6.4-2.5,6.5-5.9
						C162.5,284.3,159.9,281.4,156.4,281.2C156.4,281.2,156.4,281.2,156.4,281.2z"/>
					<g class="st25">
						<path class="st24" d="M157.8,281.4l-0.5,0c-2.6-0.1-4.8,1.9-4.9,4.4c-0.1,2.6,1.9,4.8,4.4,4.9c2.6,0.1,4.8-1.9,4.9-4.4
							c0-0.8-0.1-1.5-0.4-2.2c0.7,1.1,1.1,2.4,1,3.7c-0.2,3.4-3.1,6.1-6.5,5.9c-3.4-0.2-6.1-3.1-5.9-6.5c0.2-3.4,3.1-6.1,6.5-5.9
							C156.9,281.2,157.4,281.3,157.8,281.4z"/>
					</g>
					<path class="st24" d="M162.9,271.2c-3.8-0.2-7.1,2.8-7.3,6.6c-0.2,3.8,2.8,7.1,6.6,7.3c3.8,0.2,7.1-2.7,7.3-6.6
						C169.6,274.6,166.7,271.4,162.9,271.2C162.9,271.2,162.9,271.2,162.9,271.2z"/>
					<g class="st25">
						<path class="st24" d="M164.4,271.4c-0.2,0-0.4,0-0.5,0c-2.9-0.1-5.3,2.1-5.4,4.9c-0.1,2.9,2.1,5.3,4.9,5.4
							c2.9,0.1,5.3-2.1,5.4-4.9c0,0,0,0,0,0c0-0.8-0.1-1.7-0.5-2.5c2,3.2,1.1,7.5-2.1,9.6c-3.2,2-7.5,1.1-9.6-2.1
							c-2-3.2-1.1-7.5,2.1-9.6c1.2-0.8,2.6-1.1,4.1-1.1C163.4,271.2,163.9,271.3,164.4,271.4z"/>
					</g>
					<path class="st24" d="M171.6,287.7c-3.8-0.2-7.1,2.8-7.3,6.6c-0.2,3.8,2.8,7.1,6.6,7.3c3.8,0.2,7.1-2.7,7.3-6.6
						C178.3,291.2,175.4,287.9,171.6,287.7C171.6,287.7,171.6,287.7,171.6,287.7z"/>
					<g class="st25">
						<path class="st24" d="M173.1,288c-0.2,0-0.4-0.1-0.5-0.1c-2.9-0.1-5.3,2.1-5.4,4.9c-0.1,2.9,2.1,5.3,4.9,5.4
							c2.9,0.1,5.3-2.1,5.4-4.9c0-0.9-0.1-1.7-0.5-2.5c0.8,1.2,1.1,2.6,1.1,4.1c-0.2,3.8-3.5,6.8-7.3,6.6s-6.8-3.5-6.6-7.3
							c0.2-3.8,3.4-6.7,7.3-6.6C172.1,287.8,172.6,287.8,173.1,288z"/>
					</g>
					
						<ellipse transform="matrix(0.6854 -0.7281 0.7281 0.6854 -155.6989 211.0874)" class="st24" cx="166.5" cy="285.7" rx="6.9" ry="6.9"/>
					<g class="st25">
						<path class="st24" d="M168.4,279.1c-0.2,0-0.4-0.1-0.5-0.1c-2.9-0.1-5.3,2.1-5.4,4.9c-0.1,2.9,2.1,5.3,4.9,5.4
							c2.9,0.1,5.3-2.1,5.4-4.9c0-0.9-0.1-1.7-0.5-2.5c0.8,1.2,1.1,2.6,1.1,4.1c-0.2,3.8-3.5,6.8-7.3,6.6s-6.8-3.5-6.6-7.3
							c0.2-3.8,3.4-6.7,7.3-6.6C167.3,278.8,167.9,278.9,168.4,279.1z"/>
					</g>
					<g class="st26">
						<path class="st5" d="M181.2,283.3L181.2,283.3c0.4,0.2,0.6,0.6,0.6,1l0.1,0.1c0.1,0.2,0.1,0.4-0.1,0.5c0,0,0,0,0,0
							c-0.2,0.1-0.4,0.1-0.5-0.1c0,0,0,0,0,0l-0.1-0.1v-0.1l-0.1-0.2c0,0,0-0.1,0-0.1l-0.1-0.2c-0.3-0.3-0.7-0.5-1.2-0.4
							c-0.5,0.1-0.7-0.7-0.2-0.8C180.1,282.7,180.7,282.9,181.2,283.3z M177.2,276.2c0.3,0.8,0.1,1.7-0.4,2.3
							c-0.3,0.4,0.2,0.9,0.6,0.6c0.8-0.8,1.1-2,0.7-3.1C177.8,275.5,177.1,275.7,177.2,276.2L177.2,276.2z M174.1,270.3
							c-0.1,1-0.8,1.8-1.7,2c-0.2,0.1-0.3,0.3-0.3,0.5c0.1,0.2,0.3,0.3,0.5,0.3l0,0c1.3-0.3,2.2-1.4,2.3-2.7
							C175,269.8,174.2,269.8,174.1,270.3L174.1,270.3z M164.6,273.4c-0.5,0.1-0.3,0.9,0.2,0.8c0.9-0.2,1.8,0.2,2.3,1
							c0.3,0.4,1,0,0.7-0.4C167.1,273.7,165.8,273.2,164.6,273.4L164.6,273.4z M169.1,282.1c0.7,1.1,0.5,2.6-0.3,3.6
							c-0.3,0.4,0.2,1,0.6,0.6c1.1-1.3,1.2-3.1,0.4-4.5c-0.2-0.2-0.4-0.1-0.6,0C169.1,281.8,169.1,281.9,169.1,282.1L169.1,282.1z
							 M175.5,293c-0.2,1.3-1.4,2.1-2.7,1.9c-0.5-0.1-0.7,0.7-0.2,0.8c1.7,0.3,3.3-0.8,3.6-2.5C176.3,292.7,175.6,292.5,175.5,293z
							 M160.9,266.6c-0.5,0.2-0.3,0.9,0.2,0.8c0.6-0.2,1.3-0.1,1.7,0.4c0.4,0.4,0.9-0.2,0.6-0.6
							C162.7,266.6,161.8,266.3,160.9,266.6z M150.1,278.3c0.5,1.4,2,2.2,3.4,1.7c0,0,0,0,0,0c0.5-0.2,0.3-1-0.2-0.8
							c-1,0.4-2.1-0.1-2.5-1.1c0,0,0,0,0,0C150.7,277.6,150,277.8,150.1,278.3z M155.6,287.5h-0.4c-0.2,0-0.4,0.2-0.4,0.4
							c0,0.1,0,0.1,0,0.2c0.7,1.3,2.2,1.9,3.6,1.5c0.5-0.1,0.3-0.9-0.2-0.8c-0.8,0.3-1.8,0-2.4-0.6
							C156.1,287.9,156,287.5,155.6,287.5L155.6,287.5z M159.1,297.7c0.7,1.2,2.3,1.6,3.5,0.8c0.1-0.1,0.2-0.1,0.3-0.2
							c0.4-0.3-0.2-0.9-0.6-0.6c-0.8,0.6-1.8,0.4-2.4-0.3c0,0-0.1-0.1-0.1-0.1C159.6,296.8,158.9,297.2,159.1,297.7L159.1,297.7z
							 M149.1,295.2c0.4,1.3,1.8,2,3.1,1.6c0.1,0,0.1,0,0.2-0.1c0.5-0.2,0.1-0.9-0.4-0.7c-0.9,0.3-1.8-0.1-2.2-1c0,0,0,0,0,0
							C149.7,294.5,149,294.7,149.1,295.2L149.1,295.2z M141.1,292.1c0.3,1.3,1.4,2.2,2.7,2.3c0.5,0,0.5-0.7,0-0.8
							c-1-0.1-1.7-0.8-2-1.7C141.8,291.4,141,291.6,141.1,292.1L141.1,292.1z"/>
					</g>
					<path class="st5" d="M154.4,91.1h17.1c1.2,0,2.2-1,2.2-2.2l0,0c0-1.2-1-2.2-2.2-2.2h-17.1c-1.2,0-2.2,1-2.2,2.2l0,0
						C152.2,90.1,153.2,91.1,154.4,91.1z"/>
					<path class="st5" d="M159.6,85.7c0,3,2.4,5.5,5.5,5.5c3,0,5.5-2.4,5.5-5.5c0-3-2.4-5.5-5.5-5.5c0,0,0,0,0,0
						C162.1,80.2,159.6,82.6,159.6,85.7z"/>
					<path class="st5" d="M155.2,87.2c0,2.2,1.8,3.9,3.9,3.9s3.9-1.8,3.9-3.9c0-2.2-1.8-3.9-3.9-3.9
						C156.9,83.3,155.2,85.1,155.2,87.2L155.2,87.2z"/>
					<path class="st5" d="M100.9,79.8H90.7c-0.7,0-1.3-0.6-1.3-1.3l0,0c0-0.7,0.6-1.3,1.3-1.3h10.3c0.7,0,1.3,0.6,1.3,1.3l0,0
						C102.3,79.2,101.7,79.8,100.9,79.8z"/>
					<path class="st5" d="M97.8,76.5c0,1.8-1.5,3.3-3.3,3.3s-3.3-1.5-3.3-3.3c0-1.8,1.5-3.3,3.3-3.3S97.8,74.7,97.8,76.5L97.8,76.5z
						"/>
					<circle class="st5" cx="98.1" cy="77.5" r="2.3"/>
				</g>
			</g>
		</g>
	</g>
</g>
</svg>
