<?xml version="1.0" encoding="utf-8"?>
<!-- Generator: Adobe Illustrator 25.2.3, SVG Export Plug-In . SVG Version: 6.00 Build 0)  -->
<svg version="1.1" id="Layer_1" xmlns="http://www.w3.org/2000/svg" xmlns:xlink="http://www.w3.org/1999/xlink" x="0px" y="0px"
	 viewBox="0 0 235.4 381.8" style="enable-background:new 0 0 235.4 381.8;" xml:space="preserve">
<style type="text/css">
	.st0{fill:#F2B055;}
	.st1{fill:#FFF0CC;}
	.st2{fill:#231F20;}
	.st3{clip-path:url(#SVGID_2_);}
	.st4{fill:#80CFDD;}
	.st5{fill:#A4F6FF;}
	.st6{fill:#FFFFFF;}
	.st7{fill:#618362;}
	.st8{fill:#557355;}
	.st9{fill:#82B686;}
	.st10{fill:#8ECC94;}
	.st11{fill:#A9CF49;}
	.st12{fill:none;}
	.st13{fill:#F4B155;}
	.st14{fill:#FFD150;}
	.st15{fill:#E3705E;}
	.st16{fill:#47372E;}
	.st17{fill:#F1F1F1;}
	.st18{fill:#ED915C;}
	.st19{fill:#E5705F;}
	.st20{fill:#D1D2D3;}
	.st21{fill:#F2AF55;}
	.st22{fill:#4A355B;}
	.st23{fill:#DC4F65;}
	.st24{fill:#7DAE81;}
	.st25{fill:#563E32;}
	.st26{fill:#BCBDBF;}
	.st27{fill:#929497;}
	.st28{fill:#9AC54A;}
	.st29{fill:#A83583;}
	.st30{opacity:0.25;}
	.st31{opacity:0.1;}
</style>
<g>
	<g id="Layer_2_1_">
		<g id="Layer_1-2">
			<path class="st0" d="M235.4,14.5v352.9c-0.2,8.1-6.9,14.6-15,14.5H15c-8.3,0-15-6.5-15-14.5V14.5C0,6.5,6.7,0,15,0h205.4
				C228.7,0,235.4,6.5,235.4,14.5z M222.8,358.9V22.9c0-6-4.8-10.8-10.8-10.9H23.5c-6,0-10.8,4.9-10.8,10.8c0,0,0,0,0,0v336.1
				c0,6,4.9,10.8,10.8,10.8H212C218,369.7,222.8,364.9,222.8,358.9z"/>
			<path class="st1" d="M23.5,12H212c6,0,10.8,4.8,10.8,10.8v336.1c0,6-4.8,10.8-10.8,10.8H23.5c-6,0-10.8-4.8-10.8-10.8V22.9
				C12.6,16.9,17.5,12,23.5,12z"/>
			<path class="st2" d="M35,329.3c-0.1-0.1-0.2-0.3-0.2-0.5v-9.9h-3.2c-0.2,0-0.4,0-0.5-0.1c-0.1-0.1-0.1-0.3-0.1-0.5v-0.5
				c0-0.2,0-0.4,0.1-0.5c0.1-0.1,0.3-0.2,0.5-0.1h8.7c0.2,0,0.4,0,0.5,0.1c0.1,0.1,0.2,0.3,0.2,0.5v0.5c0,0.2,0,0.4-0.2,0.5
				c-0.1,0.1-0.3,0.2-0.5,0.1h-3.2v9.9c0,0.2,0,0.4-0.2,0.5c-0.2,0.1-0.3,0.2-0.5,0.2h-0.9C35.3,329.5,35.1,329.4,35,329.3z"/>
			<path class="st2" d="M44.9,329.4c-0.1-0.1-0.2-0.2-0.2-0.4l-2.9-11.5c0-0.1,0-0.1,0-0.2c0-0.2,0.1-0.3,0.3-0.3h1.5
				c0.1,0,0.3,0,0.4,0.1c0.1,0.1,0.1,0.2,0.1,0.3l1.8,8l2.2-7.1c0-0.1,0.1-0.2,0.2-0.3c0.1-0.1,0.2-0.1,0.3-0.1h0.8
				c0.1,0,0.2,0,0.3,0.1c0.1,0.1,0.1,0.2,0.2,0.3l2.2,7.1l1.8-8c0-0.1,0.1-0.2,0.2-0.3c0.1-0.1,0.2-0.1,0.4-0.1H56
				c0.2,0,0.3,0.1,0.3,0.3c0,0.1,0,0.1,0,0.2L53.4,329c0,0.1-0.1,0.3-0.2,0.4c-0.1,0.1-0.3,0.1-0.4,0.1h-1c-0.1,0-0.3,0-0.4-0.1
				c-0.1-0.1-0.2-0.2-0.2-0.4l-2.2-7.3l-2.2,7.3c0,0.1-0.1,0.3-0.2,0.4c-0.1,0.1-0.3,0.1-0.4,0.1h-1C45.1,329.5,45,329.4,44.9,329.4
				z"/>
			<path class="st2" d="M58.2,328.1c-2.1-2.8-2.1-6.7,0-9.5c1.2-1.2,2.9-1.8,4.6-1.7c1.7-0.1,3.4,0.5,4.6,1.7c2.2,2.8,2.2,6.7,0,9.5
				c-1.2,1.2-2.9,1.8-4.6,1.7C61.1,329.9,59.4,329.3,58.2,328.1z M65.7,326.8c1.3-2.2,1.3-4.9,0-7.1c-1.6-1.6-4.2-1.6-5.8,0
				c-1.3,2.2-1.3,4.9,0,7.1C61.5,328.4,64.1,328.5,65.7,326.8C65.7,326.8,65.7,326.8,65.7,326.8z"/>
			<path class="st2" d="M79.2,328.1c-2.1-2.8-2.1-6.7,0-9.5c2.7-2.3,6.6-2.3,9.2,0c2.1,2.8,2.1,6.7,0,9.5
				C85.7,330.3,81.8,330.3,79.2,328.1z M86.7,326.8c1.3-2.2,1.3-4.9,0-7.1c-1.6-1.6-4.2-1.6-5.8,0c-1.3,2.2-1.3,4.9,0,7.1
				C82.5,328.4,85.1,328.5,86.7,326.8C86.7,326.9,86.7,326.8,86.7,326.8z"/>
			<path class="st2" d="M91.9,329.3c-0.1-0.1-0.2-0.3-0.2-0.5v-11c0-0.2,0-0.4,0.2-0.5c0.1-0.1,0.3-0.2,0.5-0.2h7.6
				c0.3-0.1,0.6,0.1,0.6,0.4c0,0.1,0,0.2,0,0.2v0.5c0,0.2,0,0.4-0.1,0.5c-0.1,0.1-0.3,0.2-0.5,0.2h-5.9v3.5h4.3c0.2,0,0.4,0,0.5,0.1
				c0.1,0.1,0.2,0.3,0.2,0.5v0.5c0,0.2,0,0.4-0.2,0.5c-0.1,0.1-0.3,0.2-0.5,0.1h-4.3v4.6c0,0.2,0,0.4-0.2,0.5
				c-0.2,0.1-0.3,0.2-0.5,0.2h-1C92.2,329.5,92.1,329.4,91.9,329.3z"/>
			<path class="st2" d="M109.3,329.3c-0.1-0.1-0.2-0.3-0.2-0.5v-11c0-0.2,0-0.4,0.2-0.5c0.1-0.1,0.3-0.2,0.5-0.2h4.7
				c1.2-0.1,2.4,0.3,3.3,1.1c0.8,0.8,1.2,1.9,1.1,3c0.1,1.1-0.3,2.2-1.1,3c-0.9,0.8-2.1,1.1-3.3,1h-3v3.5c0,0.3-0.2,0.6-0.5,0.7
				c-0.1,0-0.1,0-0.2,0h-1C109.6,329.5,109.4,329.4,109.3,329.3z M114.4,323.5c0.6,0.1,1.2-0.1,1.6-0.5c0.4-0.5,0.6-1.1,0.6-1.7
				c0-0.6-0.1-1.3-0.6-1.8c-0.4-0.4-1-0.6-1.7-0.6h-2.9v4.6L114.4,323.5z"/>
			<path class="st2" d="M120.5,329.3c-0.1-0.1-0.2-0.3-0.2-0.5v-11c0-0.2,0-0.4,0.2-0.5c0.1-0.1,0.3-0.2,0.5-0.2h7.6
				c0.3-0.1,0.6,0.1,0.6,0.4c0,0.1,0,0.2,0,0.2v0.5c0,0.2,0,0.4-0.1,0.5c-0.1,0.1-0.3,0.2-0.5,0.2h-5.9v3.5h4.3c0.2,0,0.4,0,0.5,0.1
				c0.1,0.1,0.2,0.3,0.2,0.5v0.5c0,0.2,0,0.4-0.2,0.5c-0.1,0.1-0.3,0.2-0.5,0.1h-4.3v3.5h5.9c0.2,0,0.4,0,0.5,0.1
				c0.1,0.1,0.2,0.3,0.1,0.5v0.5c0,0.2,0,0.3-0.1,0.5c-0.1,0.1-0.3,0.2-0.5,0.1H121C120.8,329.5,120.6,329.5,120.5,329.3z"/>
			<path class="st2" d="M130.9,329.3c-0.1-0.1-0.2-0.3-0.1-0.5v-11c0-0.2,0-0.4,0.1-0.5c0.2-0.1,0.3-0.2,0.5-0.2h0.8
				c0.1,0,0.3,0,0.4,0.1c0.1,0.1,0.2,0.2,0.3,0.3l6,8.3v-8c0-0.2,0-0.4,0.1-0.5c0.1-0.1,0.3-0.2,0.5-0.2h1c0.2,0,0.4,0,0.5,0.2
				c0.1,0.1,0.2,0.3,0.2,0.5v11c0,0.2,0,0.4-0.1,0.5c-0.2,0.1-0.3,0.2-0.5,0.2h-0.9c-0.1,0-0.3,0-0.4-0.1c-0.1-0.1-0.2-0.2-0.3-0.3
				l-6-8.3v8c0,0.2,0,0.4-0.2,0.5c-0.2,0.1-0.3,0.2-0.5,0.2h-1C131.3,329.5,131.1,329.4,130.9,329.3z"/>
			<path class="st2" d="M146.7,329.3c-0.1-0.1-0.2-0.3-0.2-0.5v-9.9h-3.2c-0.2,0-0.4,0-0.5-0.1c-0.1-0.1-0.2-0.3-0.1-0.5v-0.5
				c0-0.2,0-0.4,0.1-0.5c0.1-0.1,0.3-0.2,0.5-0.1h8.7c0.3-0.1,0.6,0.1,0.7,0.4c0,0.1,0,0.2,0,0.2v0.5c0,0.2,0,0.4-0.1,0.5
				c-0.1,0.1-0.3,0.2-0.5,0.1h-3.2v9.9c0,0.2,0,0.4-0.2,0.5c-0.1,0.1-0.3,0.2-0.5,0.2h-0.9C147.1,329.5,146.9,329.4,146.7,329.3z"/>
			<path class="st2" d="M151.5,329.2c0-0.1,0-0.2,0.1-0.2l4.8-11.4c0-0.1,0.1-0.3,0.2-0.4c0.1-0.1,0.2-0.1,0.4-0.1h1
				c0.1,0,0.3,0,0.4,0.1c0.1,0.1,0.2,0.2,0.2,0.4l4.8,11.4c0,0.1,0.1,0.2,0.1,0.2c0,0.2-0.1,0.3-0.3,0.3h-1.6c-0.1,0-0.2,0-0.3-0.1
				c-0.1-0.1-0.2-0.2-0.2-0.3l-1-2.5h-5l-1,2.5c0,0.1-0.1,0.2-0.2,0.3c-0.1,0-0.2,0.1-0.3,0.1h-1.6
				C151.6,329.5,151.5,329.4,151.5,329.2z M159.4,324.9l-1.9-4.8l-1.9,4.8H159.4z"/>
			<path class="st2" d="M165.5,328.1c-1.2-1.3-1.8-3-1.7-4.8c-0.1-1.8,0.5-3.5,1.7-4.8c1.3-1.2,3-1.8,4.8-1.7c0.8,0,1.5,0.1,2.3,0.3
				c0.6,0.1,1.2,0.4,1.8,0.7c0.1,0,0.1,0.1,0.2,0.2c0,0.1,0,0.2-0.1,0.3l-0.5,0.9c-0.1,0.1-0.1,0.2-0.2,0.2c-0.1,0-0.2,0-0.2-0.1
				c-0.9-0.5-1.9-0.7-2.9-0.7c-1.2-0.1-2.4,0.4-3.2,1.2c-0.8,1-1.3,2.3-1.2,3.5c-0.1,1.3,0.3,2.6,1.2,3.6c0.9,0.8,2,1.2,3.2,1.2
				c1.1,0,2.2-0.2,3.1-0.7c0.1,0,0.2-0.1,0.2-0.1c0.1,0,0.1,0,0.2,0.2l0.6,0.9c0,0.1,0.1,0.1,0.1,0.2c0,0.1-0.1,0.1-0.2,0.2
				c-1.3,0.8-2.8,1.1-4.2,1C168.6,329.9,166.8,329.3,165.5,328.1z"/>
			<path class="st2" d="M176.7,329.3c-0.1-0.1-0.2-0.3-0.1-0.5v-11c0-0.2,0-0.4,0.1-0.5c0.1-0.1,0.3-0.2,0.5-0.2h1
				c0.2,0,0.4,0,0.5,0.2c0.1,0.1,0.2,0.3,0.2,0.5v9.9h5.6c0.3-0.1,0.6,0.1,0.7,0.4c0,0.1,0,0.2,0,0.2v0.5c0,0.2,0,0.3-0.1,0.5
				c-0.1,0.1-0.3,0.2-0.5,0.1h-7.2C177,329.5,176.8,329.5,176.7,329.3z"/>
			<path class="st2" d="M186.4,329.3c-0.1-0.1-0.2-0.3-0.1-0.5v-11c0-0.2,0-0.4,0.1-0.5c0.1-0.1,0.3-0.2,0.5-0.2h7.6
				c0.2,0,0.4,0,0.5,0.1c0.1,0.1,0.1,0.3,0.1,0.5v0.5c0,0.2,0,0.4-0.1,0.5c-0.1,0.1-0.3,0.2-0.5,0.2h-5.9v3.5h4.3
				c0.2,0,0.4,0,0.5,0.1c0.1,0.1,0.2,0.3,0.1,0.5v0.5c0,0.2,0,0.4-0.1,0.5c-0.1,0.1-0.3,0.2-0.5,0.1h-4.3v3.5h5.9
				c0.3-0.1,0.6,0.1,0.6,0.4c0,0.1,0,0.2,0,0.2v0.5c0,0.2,0,0.3-0.1,0.5c-0.1,0.1-0.3,0.2-0.5,0.1h-7.6
				C186.7,329.5,186.5,329.5,186.4,329.3z"/>
			<path class="st2" d="M198.6,329.5c-0.7-0.1-1.4-0.4-2-0.8c-0.1-0.1-0.2-0.2-0.2-0.3c0-0.1,0-0.2,0.1-0.2l0.6-0.9
				c0.1-0.1,0.1-0.2,0.2-0.2c0.1,0,0.2,0,0.2,0.1c0.5,0.3,1,0.5,1.6,0.6c0.6,0.2,1.2,0.2,1.8,0.2c0.6,0,1.3-0.1,1.9-0.4
				c0.4-0.3,0.7-0.8,0.6-1.3c0-0.3-0.1-0.6-0.2-0.9c-0.2-0.2-0.4-0.4-0.7-0.6c-0.5-0.2-1-0.4-1.5-0.6l-0.4-0.2
				c-0.7-0.3-1.3-0.6-1.9-0.9c-0.5-0.3-0.9-0.7-1.3-1.1c-0.3-0.5-0.5-1.1-0.5-1.7c0-1,0.4-2,1.3-2.6c1-0.6,2.1-1,3.3-0.9
				c0.7,0,1.5,0.1,2.2,0.2c0.6,0.1,1.1,0.4,1.6,0.7c0.1,0.1,0.2,0.2,0.2,0.3c0,0.1,0,0.1-0.1,0.2l-0.6,0.9c-0.1,0.1-0.1,0.2-0.2,0.2
				c-0.1,0-0.2-0.1-0.2-0.1c-0.9-0.5-1.9-0.8-2.9-0.8c-0.6,0-1.2,0.1-1.7,0.4c-0.4,0.3-0.6,0.8-0.6,1.3c0,0.3,0.1,0.6,0.2,0.9
				c0.2,0.2,0.4,0.4,0.7,0.6c0.3,0.2,0.8,0.4,1.5,0.6l0.5,0.2c0.7,0.3,1.4,0.6,2.1,1c0.5,0.3,0.9,0.7,1.1,1.1
				c0.3,0.5,0.4,1.1,0.4,1.7c0,1-0.4,1.9-1.2,2.5c-1,0.7-2.2,1-3.3,0.9C200.2,329.8,199.4,329.7,198.6,329.5z"/>
			<g>
				<defs>
					<path id="SVGID_1_" d="M53.1,44.1h129.2c13.7,0,24.8,11.1,24.8,24.8v192.6c0,13.7-11.1,24.8-24.8,24.8H53.1
						c-13.7,0-24.8-11.1-24.8-24.8V68.9C28.3,55.2,39.4,44.1,53.1,44.1z"/>
				</defs>
				<clipPath id="SVGID_2_">
					<use xlink:href="#SVGID_1_"  style="overflow:visible;"/>
				</clipPath>
				<g class="st3">
					<rect x="29.3" y="-12.5" class="st4" width="171.3" height="205.1"/>
					<rect x="29.3" y="-12.5" class="st5" width="171.3" height="205.1"/>
					<path class="st6" d="M92.4,112.3h-33c-2.4,0-4.3-1.9-4.3-4.3l0,0l0,0c0-2.4,1.9-4.3,4.3-4.3h33c2.3,0,4.2,1.9,4.3,4.3l0,0
						C96.6,110.4,94.7,112.3,92.4,112.3z"/>
					<circle class="st6" cx="71.7" cy="101.8" r="10.6"/>
					<circle class="st6" cx="83.3" cy="104.8" r="7.5"/>
					<path class="st6" d="M101.6,80.5H87c-1,0-1.9-0.9-1.9-1.9l0,0l0,0c0-1,0.9-1.9,1.9-1.9h14.7c1,0,1.9,0.8,1.9,1.9l0,0
						C103.6,79.6,102.7,80.5,101.6,80.5C101.6,80.5,101.6,80.5,101.6,80.5z"/>
					<path class="st6" d="M97.2,75.8c0,2.6-2.1,4.7-4.7,4.7c-2.6,0-4.7-2.1-4.7-4.7c0-2.6,2.1-4.7,4.7-4.7c0,0,0,0,0,0
						C95,71.1,97.1,73.2,97.2,75.8z"/>
					<path class="st6" d="M101,77.1c0,1.9-1.5,3.4-3.4,3.4s-3.4-1.5-3.4-3.4s1.5-3.4,3.4-3.4c0,0,0,0,0,0
						C99.5,73.8,101,75.3,101,77.1C101,77.1,101,77.1,101,77.1z"/>
					<path class="st6" d="M176,118.6h-33.4c-1.6,0-2.8-1.3-2.8-2.8v-2.4c0-1.6,1.3-2.8,2.8-2.8H176c1.6,0,2.8,1.3,2.8,2.8v2.4
						C178.8,117.4,177.5,118.6,176,118.6z"/>
					<circle class="st6" cx="163.2" cy="108.7" r="9.9"/>
					<path class="st6" d="M145.2,111.5c0,3.9,3.2,7.1,7.1,7.1s7.1-3.2,7.1-7.1c0-3.9-3.2-7.1-7.1-7.1c0,0,0,0,0,0
						C148.4,104.4,145.2,107.6,145.2,111.5z"/>
					<path class="st6" d="M140.6,72.3h9.4c0.7,0,1.2-0.5,1.2-1.2l0,0l0,0c0-0.7-0.5-1.2-1.2-1.2l0,0h-9.4c-0.7,0-1.2,0.5-1.2,1.2
						l0,0l0,0C139.4,71.8,140,72.3,140.6,72.3L140.6,72.3z"/>
					<path class="st6" d="M143.5,69.3c0,1.7,1.3,3,3,3s3-1.3,3-3s-1.3-3-3-3S143.5,67.6,143.5,69.3z"/>
					<circle class="st6" cx="143.2" cy="70.2" r="2.2"/>
					<path class="st7" d="M164.5,139.5c0,17.6-24.9,31.9-55.7,31.9s-55.7-14.3-55.7-31.9s24.9-31.9,55.7-31.9c2.3,0,4.5,0.1,6.8,0.2
						C143.1,109.7,164.5,123.2,164.5,139.5z"/>
					<ellipse class="st8" cx="193.5" cy="134.9" rx="48.4" ry="27.8"/>
					<ellipse class="st8" cx="36.3" cy="133.2" rx="55.7" ry="31.9"/>
					<ellipse class="st9" cx="60.9" cy="156.8" rx="59.5" ry="34.1"/>
					<ellipse class="st9" cx="165.6" cy="156.8" rx="59.5" ry="34.1"/>
					<rect x="27.1" y="172.3" class="st10" width="171.2" height="120.3"/>
					<path class="st11" d="M109,11.6c-7.2,0-14.3-1.5-20.9-4.3c-1.5-0.6-2.9-1.3-4.3-2c-3.9-1.9-7.3-3.6-11.3-3.1
						C69.2,2.7,66,4,63.3,6.1l-3.9-5C63-1.7,67.3-3.4,71.8-4c5.9-0.7,10.4,1.5,14.9,3.7C88,0.3,89.2,1,90.6,1.5
						c8.5,3.6,17.8,4.7,26.8,3c4.4-0.8,8.3-2.9,12.5-5c2.6-1.4,5.3-2.6,8-3.8c6.9-2.7,14.4-3.6,21.8-2.7c7.5,0.9,14.5,4.3,20,9.6
						l-4.5,4.5c-9.5-9.5-24.4-9.6-35-5.5c-2.5,1-5,2.2-7.4,3.5c-4.4,2.2-8.9,4.5-14.2,5.6C115.4,11.3,112.2,11.6,109,11.6z"/>
					<rect x="27.1" y="-8.9" class="st12" width="171.2" height="301.6"/>
					<path class="st13" d="M129.6,122.4l0.5-0.7c1.4-1.9,4-2.4,6-1l10.8,7.7c1.9,1.4,2.4,4,1,6l-0.5,0.7c-1.4,1.9-4,2.4-6,1
						l-10.8-7.7C128.7,127,128.2,124.4,129.6,122.4z"/>
					<path class="st13" d="M143.2,136.6l-0.5-0.3c-1.4-1-1.7-2.9-0.7-4.4l11.4-16c1-1.4,2.9-1.7,4.4-0.7l0.5,0.3
						c1.4,1,1.7,2.9,0.7,4.4l-11.4,16C146.5,137.3,144.6,137.6,143.2,136.6z"/>
					<circle class="st13" cx="129" cy="122.7" r="7.5"/>
					<path class="st14" d="M132.1,185.4l-0.5-0.6c-0.3-0.3-0.7-0.5-1.1-0.6l-2.5-0.5v-18.4c0-1.9-1.6-3.5-3.5-3.5s-3.5,1.6-3.5,3.5
						v17.6c-0.5,0.4-0.8,1-0.8,1.6v2.3c0,1.1,0.9,2.1,2.1,2.1h8.3c1.1,0,2.1-0.9,2.1-2C132.6,186.3,132.4,185.8,132.1,185.4z"/>
					<path class="st15" d="M127.4,168.7h-6.3c-0.3,0-0.6-0.3-0.6-0.6V168c0-0.3,0.3-0.6,0.6-0.6h6.3c0.3,0,0.6,0.3,0.6,0.6v0.1
						C128,168.4,127.8,168.7,127.4,168.7z"/>
					<path class="st15" d="M127.6,176.7l-0.1,0.1c-0.3,0.2-0.7,0.2-1-0.1l-5.6-7.5c-0.2-0.3-0.2-0.7,0.1-1l0.1-0.1
						c0.3-0.2,0.7-0.2,1,0.1l5.6,7.5C127.9,176.1,127.9,176.5,127.6,176.7z"/>
					<path class="st15" d="M127.4,168.1L127.4,168.1c0.4,0.3,0.4,0.7,0.2,0.9l-5.7,7.6c-0.2,0.3-0.6,0.3-0.9,0.1l-0.1-0.1
						c-0.3-0.2-0.3-0.6-0.1-0.9l5.7-7.6C126.7,168,127.1,167.9,127.4,168.1z"/>
					<path class="st15" d="M127.6,184.2l-0.1,0.1c-0.3,0.2-0.7,0.2-1-0.1l-5.6-7.5c-0.2-0.3-0.2-0.7,0.1-1l0.1-0.1
						c0.3-0.2,0.7-0.2,1,0.1l5.6,7.5C127.9,183.6,127.9,184,127.6,184.2z"/>
					<path class="st15" d="M127.4,175.7l0.1,0.1c0.3,0.2,0.4,0.7,0.1,1l-5.6,7.5c-0.2,0.3-0.7,0.4-1,0.1l-0.1-0.1
						c-0.3-0.2-0.4-0.7-0.1-1l5.6-7.5C126.7,175.5,127.1,175.4,127.4,175.7z"/>
					<path class="st15" d="M130.5,188.5h-0.1c-0.3,0-0.6-0.3-0.6-0.6v-3.3c0-0.3,0.3-0.6,0.6-0.6h0.1c0.3,0,0.6,0.3,0.6,0.6v3.3
						C131.1,188.2,130.8,188.5,130.5,188.5z"/>
					<path class="st15" d="M128.1,188.5H128c-0.3,0-0.6-0.3-0.6-0.6v-3.9c0-0.3,0.3-0.6,0.6-0.6h0.1c0.3,0,0.6,0.3,0.6,0.6v3.9
						C128.6,188.2,128.4,188.5,128.1,188.5z"/>
					<path class="st15" d="M127.4,184.8h-6c-0.3,0-0.6-0.3-0.6-0.6V184c0-0.3,0.3-0.6,0.6-0.6h6c0.3,0,0.6,0.3,0.6,0.6v0.1
						C128,184.5,127.8,184.8,127.4,184.8z"/>
					<path class="st15" d="M120.1,187.8H132c0.3,0,0.6,0.3,0.6,0.6l0,0v0.1c0,0.3-0.3,0.6-0.6,0.6h0h-11.9c-0.3,0-0.6-0.3-0.6-0.6v0
						v-0.1C119.5,188.1,119.8,187.8,120.1,187.8z"/>
					<path class="st14" d="M113.7,182.9v-17.6c-0.1-1.9-1.7-3.4-3.7-3.3c-1.8,0.1-3.2,1.5-3.3,3.3v18.3c0,0,0,0.1,0,0.1l-2.5,0.5
						c-0.4,0.1-0.8,0.3-1.1,0.6l-0.5,0.6c-0.8,0.9-0.7,2.2,0.2,2.9c0.4,0.3,0.9,0.5,1.4,0.5h8.3c1.1,0,2.1-0.9,2.1-2.1l0,0v-2.3
						C114.5,183.9,114.2,183.3,113.7,182.9z"/>
					<path class="st15" d="M107.2,167.4h6.3c0.3,0,0.6,0.3,0.6,0.6v0.1c0,0.3-0.3,0.6-0.6,0.6h-6.3c-0.3,0-0.6-0.3-0.6-0.6V168
						C106.6,167.7,106.8,167.4,107.2,167.4z"/>
					<path class="st15" d="M113.5,168.2l0.1,0.1c0.3,0.2,0.4,0.7,0.1,1l-5.6,7.5c-0.2,0.3-0.7,0.4-1,0.1l-0.1-0.1
						c-0.3-0.2-0.4-0.7-0.1-1l5.6-7.5C112.8,168,113.2,167.9,113.5,168.2z"/>
					<path class="st15" d="M113.6,176.7l-0.1,0.1c-0.3,0.2-0.7,0.2-1-0.1l-5.6-7.5c-0.2-0.3-0.2-0.7,0.1-1l0.1-0.1
						c0.3-0.2,0.7-0.2,1,0.1l5.6,7.5C114,176.1,113.9,176.5,113.6,176.7z"/>
					<path class="st15" d="M114.4,175.8l0.1,0.1c0.3,0.2,0.4,0.7,0.1,1l-5.6,7.5c-0.2,0.3-0.7,0.4-1,0.1l-0.1-0.1
						c-0.3-0.2-0.4-0.7-0.1-1l5.6-7.5C113.7,175.6,114.1,175.5,114.4,175.8z"/>
					<path class="st15" d="M113.6,184.2l-0.1,0.1c-0.3,0.2-0.7,0.2-1-0.1l-5.6-7.5c-0.2-0.3-0.2-0.7,0.1-1l0.1-0.1
						c0.3-0.2,0.7-0.2,1,0.1l5.6,7.5C114,183.6,113.9,184,113.6,184.2z"/>
					<path class="st15" d="M104.1,183.8h0.1c0.3,0,0.6,0.3,0.6,0.6v3.3c0,0.3-0.3,0.6-0.6,0.6h-0.1c-0.3,0-0.6-0.3-0.6-0.6v-3.3
						C103.5,184,103.8,183.8,104.1,183.8z"/>
					<path class="st15" d="M106.5,183.4h0.1c0.3,0,0.6,0.3,0.6,0.6v3.7c0,0.3-0.3,0.6-0.6,0.6h-0.1c-0.3,0-0.6-0.3-0.6-0.6V184
						C105.9,183.7,106.2,183.4,106.5,183.4z"/>
					<path class="st15" d="M107.2,183.4h6c0.3,0,0.6,0.3,0.6,0.6v0.1c0,0.3-0.3,0.6-0.6,0.6h-6c-0.3,0-0.6-0.3-0.6-0.6V184
						C106.6,183.7,106.8,183.4,107.2,183.4z"/>
					<path class="st15" d="M102.3,187.8h11.9c0.3,0,0.6,0.3,0.6,0.6v0v0.1c0,0.3-0.3,0.6-0.6,0.6h0h-11.9c-0.3,0-0.6-0.3-0.6-0.6
						l0,0v-0.1C101.8,188.1,102,187.8,102.3,187.8z"/>
					<path class="st15" d="M114.2,189.1H114c-0.4,0-0.6-0.3-0.6-0.6v-4.9c0-0.4,0.3-0.6,0.6-0.6h0.1c0.4,0,0.6,0.3,0.6,0.6v4.9
						C114.8,188.8,114.5,189.1,114.2,189.1z"/>
					<path class="st15" d="M120.1,182.8h0.1c0.4,0,0.6,0.3,0.6,0.6v5c0,0.4-0.3,0.6-0.6,0.6h-0.1c-0.4,0-0.6-0.3-0.6-0.6v-5
						C119.4,183.1,119.7,182.8,120.1,182.8z"/>
					<path class="st14" d="M116,114.9h2.3c6.7,0,12.1,5.4,12.1,12.1v26.3c0,6.7-5.4,12.1-12.1,12.1H116c-6.7,0-12.1-5.4-12.1-12.1
						V127C103.9,120.3,109.3,114.9,116,114.9z"/>
					<path class="st14" d="M118.6,123.9c4.1,0,7.8-2.4,9.4-6.2c-2.6-2.2-6-3.4-9.4-3.4h-2.8c-2.5,0-4.9,0.6-7.1,1.8
						C109.8,120.7,113.9,123.9,118.6,123.9z"/>
					<path class="st16" d="M117.2,122.9L117.2,122.9c0.1,0,0.1,0.1,0.1,0.1v0c0,0.1-0.1,0.1-0.1,0.1h0c-0.1,0-0.1-0.1-0.1-0.1v0
						C117.1,123,117.1,122.9,117.2,122.9z"/>
					
						<rect x="150.8" y="81.7" transform="matrix(0.9914 -0.1305 0.1305 0.9914 -12.6923 20.8878)" class="st15" width="4.5" height="51.1"/>
					<polygon class="st17" points="142.6,88.8 163.9,95.4 161.5,76.9 					"/>
					<path class="st14" d="M151.9,116.1h2.6c0.8,0,1.4,0.6,1.4,1.4v0.3c0,0.8-0.6,1.4-1.4,1.4h-2.6c-0.8,0-1.4-0.6-1.4-1.4v-0.3
						C150.5,116.7,151.1,116.1,151.9,116.1z"/>
					<path class="st18" d="M105.8,129.8v-11.7c-3.1,2.8-4.8,6.7-4.8,10.8v36.4h4.9L105.8,129.8L105.8,129.8z"/>
					<path class="st18" d="M131.2,121.5v8.3l0,0v35.6h2.1V129C133.3,126.4,132.6,123.8,131.2,121.5z"/>
					<path class="st18" d="M125.7,127.2V121c-4,3.8-10.3,3.8-14.2-0.1v6.3L125.7,127.2z"/>
					<path class="st19" d="M128,117.7c-0.7-0.6-1.5-1.2-2.3-1.6v11.1h-14.2v-12.1c-1.1,0.3-2.1,0.7-3.1,1.2l0,0
						c-0.9,0.5-1.7,1.2-2.5,1.9v11.7l0,0v35.6h25.3v-43.9C130.4,120.1,129.3,118.8,128,117.7z"/>
					<circle class="st14" cx="102.2" cy="122.3" r="7.9"/>
					<path class="st14" d="M100.7,123.1l0.5,0.7c1.5,2,1.1,4.8-0.9,6.3l-9.8,7.4c-2,1.5-4.8,1.1-6.3-0.9l-0.5-0.7
						c-1.5-2-1.1-4.8,0.9-6.3l9.8-7.4C96.4,120.7,99.2,121.1,100.7,123.1z"/>
					<path class="st14" d="M90.3,137.9l-0.5,0.4c-1.4,1.1-3.5,0.8-4.6-0.6l-12.5-16.5c-1.1-1.4-0.8-3.5,0.6-4.6l0.5-0.4
						c1.4-1.1,3.5-0.8,4.6,0.6l12.5,16.5C92,134.7,91.7,136.8,90.3,137.9z"/>
					<rect x="74.5" y="104.9" class="st15" width="5.5" height="21"/>
					<rect x="74.5" y="66.2" class="st17" width="5.5" height="38.8"/>
					<rect x="72.1" y="66.2" class="st20" width="3.1" height="38.8"/>
					<path class="st14" d="M78.5,117.6h2.6c0.8,0,1.4,0.6,1.4,1.4v0.3c0,0.8-0.6,1.4-1.4,1.4h-2.6c-0.8,0-1.4-0.6-1.4-1.4V119
						C77.1,118.2,77.7,117.6,78.5,117.6z"/>
					<path class="st16" d="M107.8,79.6h18.8c3.1,0,5.6,2.5,5.6,5.6v1.1c0,3.1-2.5,5.6-5.6,5.6h-18.8c-3.1,0-5.6-2.5-5.6-5.6v-1.1
						C102.2,82.1,104.7,79.6,107.8,79.6z"/>
					<circle class="st14" cx="130.1" cy="100.3" r="3.1"/>
					<path class="st21" d="M131.9,100.3c0,1-0.8,1.9-1.9,1.9c-1,0-1.9-0.8-1.9-1.9c0-1,0.8-1.9,1.9-1.9l0,0
						C131.1,98.4,131.9,99.2,131.9,100.3C131.9,100.2,131.9,100.3,131.9,100.3z"/>
					<circle class="st14" cx="104.3" cy="100.3" r="3.1"/>
					<circle class="st21" cx="104.3" cy="100.3" r="1.9"/>
					<rect x="107.5" y="90.6" class="st14" width="19.4" height="13.9"/>
					<path class="st22" d="M112.4,96.1h0.2c0.6,0,1,0.5,1,1v2.1c0,0.6-0.5,1-1,1h-0.2c-0.6,0-1-0.5-1-1v-2.1
						C111.4,96.5,111.8,96.1,112.4,96.1z"/>
					<path class="st22" d="M121.8,96.1h0.2c0.6,0,1,0.5,1,1v2.1c0,0.6-0.5,1-1,1h-0.2c-0.6,0-1-0.5-1-1v-2.1
						C120.8,96.5,121.2,96.1,121.8,96.1z"/>
					<path class="st16" d="M110.6,93.6l3.6-1.3c0.4-0.1,0.8,0.1,1,0.4l0,0.1c0.1,0.4-0.1,0.8-0.4,1l-3.6,1.3c-0.4,0.1-0.8-0.1-1-0.4
						l0-0.1C110,94.2,110.2,93.8,110.6,93.6z"/>
					<path class="st16" d="M123.2,95.2l-3.6-1.3c-0.4-0.1-0.6-0.6-0.4-1l0-0.1c0.1-0.4,0.6-0.6,1-0.4l3.6,1.3c0.4,0.1,0.6,0.6,0.4,1
						l0,0.1C124,95.1,123.6,95.3,123.2,95.2z"/>
					<polygon class="st16" points="107.6,111.5 105.2,107.9 105.2,90.3 107.6,90.3 					"/>
					<polygon class="st16" points="129.2,108.2 126.5,111.5 126.5,90.3 129.2,90.3 					"/>
					<path class="st16" d="M104.9,84.7l7.2-4.7c0.1,0.1,0.2,0.2,0.2,0.3c2.4,4.1,1,9.3-3.1,11.6c-4.1,2.4-9.3,1-11.6-3.1L104.9,84.7
						z"/>
					<path class="st16" d="M129.1,87l-2.8-3.2l-0.2,0.1c-1.7,1.6-1.8,4.3-0.2,6.1c1.6,1.7,4.3,1.8,6.1,0.2L129.1,87z"/>
					<path class="st16" d="M120.6,81.3c0,3.1-2.5,5.6-5.6,5.6c-3.1,0-5.6-2.5-5.6-5.6c0-3.1,2.5-5.6,5.5-5.6
						C118.1,75.7,120.6,78.2,120.6,81.3C120.6,81.3,120.6,81.3,120.6,81.3z"/>
					<path class="st16" d="M127.3,82.7c0,2.9-2.4,5.3-5.3,5.3c-2.9,0-5.3-2.4-5.3-5.3c0-2.9,2.4-5.3,5.3-5.3c0,0,0,0,0,0
						C125,77.4,127.3,79.8,127.3,82.7C127.3,82.7,127.3,82.7,127.3,82.7z"/>
					<path class="st16" d="M105.2,101.2v6.5c0,6.6,5.4,12,12,12l0,0c6.6,0,12-5.4,12-12v-6.5H105.2z"/>
					<path class="st14" d="M120.4,106.1h-6.5c-0.9,0-1.6-0.7-1.6-1.6l0,0c0-0.9,0.7-1.6,1.6-1.6h6.5c0.9,0,1.6,0.7,1.6,1.6l0,0
						C122,105.4,121.3,106.1,120.4,106.1z"/>
					<path class="st16" d="M117,105.1h0.5c0.7,0,1.2,0.6,1.2,1.2l0,0c0,0.7-0.5,1.2-1.2,1.2c0,0,0,0,0,0H117c-0.7,0-1.2-0.5-1.2-1.2
						c0,0,0,0,0,0l0,0C115.8,105.7,116.3,105.1,117,105.1z"/>
					<path class="st23" d="M116.9,96.6h0.3c0.9,0,1.6,0.7,1.6,1.6v2.5c0,0.9-0.7,1.6-1.6,1.6h-0.3c-0.9,0-1.6-0.7-1.6-1.6v-2.5
						C115.3,97.3,116,96.6,116.9,96.6z"/>
					<path class="st21" d="M118.6,104.6c-0.1-0.8-0.7-1.3-1.5-1.3c-0.7,0.1-1.2,0.6-1.3,1.3H118.6z"/>
					<path class="st24" d="M64.1,262.1h107.3c2.7,0,4.9,2.2,4.9,4.9v0c0,2.7-2.2,4.9-4.9,4.9H64.1c-2.7,0-4.9-2.2-4.9-4.9v0
						C59.2,264.3,61.4,262.1,64.1,262.1z"/>
					<circle class="st14" cx="87.1" cy="234.3" r="34"/>
					
						<ellipse transform="matrix(0.2297 -0.9733 0.9733 0.2297 -160.8951 265.2972)" class="st19" cx="87.2" cy="234.3" rx="30.2" ry="30.2"/>
					<path class="st14" d="M103.2,254.9l-16-11.6l-16,11.6l6.1-18.8l-16-11.6H81l6.1-18.8l6.1,18.8H113l-16,11.6L103.2,254.9z
						 M64.9,225.6l13.8,10l-5.2,16.2l13.8-10l13.8,10l-5.2-16.2l13.8-10h-17l-5.2-16.2l-5.2,16.2H64.9z"/>
					<path class="st14" d="M87.2,243.3l-9.9-7.2l3.8-11.6h12.3l3.8,11.6L87.2,243.3z M78.7,235.6l8.5,6.2l8.5-6.2l-3.2-10H81.9
						L78.7,235.6z"/>
					<circle class="st14" cx="147.9" cy="234.3" r="33.1"/>
					<circle class="st19" cx="147.9" cy="234.3" r="30.2"/>
					<path class="st14" d="M163.9,254.9l-16-11.6l-16,11.6l6.1-18.8l-16-11.6h19.8l6.1-18.8l6.1,18.8h19.8l-16,11.6L163.9,254.9z
						 M125.6,225.6l13.8,10l-5.2,16.2l13.8-10l13.8,10l-5.3-16.2l13.8-10h-17l-5.3-16.2l-5.2,16.2H125.6z"/>
					<path class="st14" d="M147.9,243.3l-9.9-7.2l3.8-11.6H154l3.8,11.6L147.9,243.3z M139.4,235.6l8.5,6.2l8.5-6.2l-3.2-10h-10.5
						L139.4,235.6z"/>
					<rect x="53.8" y="156.1" class="st25" width="128.4" height="36.5"/>
					<rect x="53.8" y="192.6" class="st16" width="128.4" height="17.7"/>
					<path class="st26" d="M16.5-12.5h48.7c0.3,0,0.6,0.3,0.6,0.6v297.3c0,0.3-0.3,0.6-0.6,0.6H16.5c-0.3,0-0.6-0.3-0.6-0.6V-11.9
						C15.9-12.3,16.1-12.5,16.5-12.5z"/>
					<path class="st6" d="M7.9,274.6H76c4,0,7.3,3.3,7.3,7.3v4.4c0,4-3.3,7.3-7.3,7.3H7.9c-4,0-7.3-3.3-7.3-7.3v-4.4
						C0.6,277.8,3.9,274.6,7.9,274.6z"/>
					<path class="st6" d="M28.8,6.9h0.5c1.3,0,2.4,1.1,2.4,2.4v254.2c0,1.3-1.1,2.4-2.4,2.4h-0.5c-1.3,0-2.4-1.1-2.4-2.4V9.3
						C26.4,8,27.5,6.9,28.8,6.9z"/>
					<path class="st6" d="M41,6.9h0.5c1.3,0,2.4,1.1,2.4,2.4v254.2c0,1.3-1.1,2.4-2.4,2.4H41c-1.3,0-2.4-1.1-2.4-2.4V9.3
						C38.7,8,39.7,6.9,41,6.9z"/>
					<path class="st6" d="M53.9,6.9h0.5c1.3,0,2.4,1.1,2.4,2.4v254.2c0,1.3-1.1,2.4-2.4,2.4h-0.5c-1.3,0-2.4-1.1-2.4-2.4V9.3
						C51.5,8,52.6,6.9,53.9,6.9z"/>
					<rect x="15.9" y="-12.5" class="st27" width="49.8" height="14.8"/>
					<path class="st11" d="M71.8,57l0.4,1c1.3,2.8,0,6.1-2.8,7.3L19.1,88c-2.8,1.3-6.1,0-7.3-2.8l-0.4-1c-1.3-2.8,0-6.1,2.8-7.3
						l50.4-22.7C67.2,52.9,70.5,54.2,71.8,57z"/>
					<path class="st11" d="M14.1,174.5l50.4-22.7c2.8-1.3,6.1,0,7.3,2.8l0.4,1c1.3,2.8,0,6.1-2.8,7.3l-50.4,22.7
						c-2.8,1.3-6.1,0-7.3-2.8l-0.4-1C10,179.1,11.3,175.8,14.1,174.5z"/>
					<path class="st11" d="M36.9,76.1c0,0,3.2-2.8,3.3-6.1c0.1-1.2,0-2.4-0.1-3.6c0-0.2-0.3-0.4-0.5-0.3c-0.1,0-0.2,0.1-0.2,0.1
						l-0.9,1c-0.1-1.3-0.5-2.6-1.2-3.7c-0.5-0.9-0.8-1.5-1-1.9c-0.2-0.2-0.5-0.3-0.7-0.2c-0.1,0.1-0.2,0.1-0.2,0.2L35.2,62l-1.9-5
						c-1.7,1.9-3.1,4-4.2,6.2c-0.6,1.3-0.9,2.7-0.9,4.1L27,66.1c-0.2-0.2-0.6-0.2-0.8,0c-0.1,0.1-0.1,0.2-0.1,0.3
						c-0.3,1.3-0.2,4.1,2.7,8.7C33.1,81.9,36.9,76.1,36.9,76.1z"/>
					<path class="st28" d="M28.8,75.1c-3-4.7-3-7.4-2.7-8.7c0.1-0.3,0.4-0.5,0.7-0.4c0.1,0,0.2,0.1,0.3,0.1l1.2,1.1
						c0-1.4,0.3-2.8,0.9-4.1c1.1-2.2,2.6-4.3,4.2-6.2c0,0-2.4,11.7-0.5,21.4C31.6,78.2,30.2,77.4,28.8,75.1z"/>
					<path class="st29" d="M52.5,94.8c2.4,1.1,3.5,3.9,2.4,6.4s-3.9,3.5-6.4,2.4s-3.5-3.9-2.4-6.4c0,0,0,0,0,0
						C47.3,94.7,50.1,93.7,52.5,94.8z"/>
					<g class="st30">
						<path class="st29" d="M51.5,94.4c0.1,0,0.2,0.1,0.3,0.1c1.8,0.8,2.6,3,1.8,4.8c-0.8,1.8-3,2.6-4.8,1.8s-2.6-3-1.8-4.8
							c0.2-0.5,0.6-1,1.1-1.3c-2.3,1.3-3.1,4.3-1.7,6.6c0.5,0.9,1.3,1.5,2.2,2c2.4,1.2,5.3,0.1,6.4-2.3c1.2-2.4,0.1-5.3-2.3-6.4
							c-0.1,0-0.2-0.1-0.2-0.1C52.2,94.6,51.8,94.5,51.5,94.4z"/>
					</g>
					<path class="st29" d="M50.9,79.9c2.6,1.2,3.8,4.2,2.6,6.8c-1.2,2.6-4.2,3.8-6.8,2.6c-2.6-1.2-3.8-4.2-2.6-6.8
						C45.3,79.9,48.3,78.7,50.9,79.9C50.9,79.9,50.9,79.9,50.9,79.9z"/>
					<g class="st30">
						<path class="st29" d="M49.8,79.6l0.4,0.1c2,0.9,2.8,3.2,2,5.1c-0.9,2-3.2,2.8-5.1,2c-1.9-0.9-2.8-3.1-2-5.1
							c0.3-0.6,0.7-1.1,1.2-1.5c-2.5,1.4-3.3,4.6-1.8,7.1s4.6,3.3,7.1,1.8s3.3-4.6,1.8-7.1c-0.5-0.9-1.4-1.7-2.3-2.1
							C50.6,79.8,50.2,79.6,49.8,79.6z"/>
					</g>
					<path class="st29" d="M48.3,71.8c2.9,1.3,4.2,4.7,2.9,7.6c-1.3,2.9-4.7,4.2-7.6,2.9s-4.2-4.7-2.9-7.6c0,0,0,0,0,0
						C42,71.8,45.4,70.5,48.3,71.8z"/>
					<g class="st30">
						<path class="st29" d="M47,71.4l0.4,0.2c2.2,1,3.2,3.5,2.2,5.7c-1,2.2-3.5,3.2-5.7,2.2c-2.2-1-3.2-3.5-2.2-5.7
							c0.3-0.6,0.7-1.2,1.3-1.7c-2.7,1.6-3.6,5.1-2,7.9c1.6,2.7,5.1,3.6,7.9,2c2.7-1.6,3.6-5.1,2-7.9c-0.6-1-1.5-1.8-2.6-2.3
							C47.9,71.6,47.4,71.5,47,71.4z"/>
					</g>
					<path class="st11" d="M30.8,76.5c0,0-6-2.6-7.9-6.7c-1-1.9-1.1-4.2-0.5-6.3c0.2-0.6,0.9-1,1.5-0.8l0,0c0.6,0.2,1,0.8,0.9,1.5
						c-0.3,1.5-0.6,4.1,1.1,6c2.5,2.8,5.6,5.3,5.6,5.5S30.8,76.5,30.8,76.5z"/>
					<path class="st28" d="M25.2,71.7c-2.3-2.7-2.2-6.5-1.9-8.9c-0.4,0.1-0.7,0.4-0.9,0.8c-0.7,2.1-0.5,4.3,0.5,6.3
						c2,4,7.9,6.7,7.9,6.7c0.2-0.1,0.3-0.2,0.5-0.3C29,75.2,26.9,73.6,25.2,71.7z"/>
					<path class="st29" d="M28.8,76.9c2.4,1.1,3.5,3.9,2.4,6.3c-1.1,2.4-3.9,3.5-6.3,2.4c-2.4-1.1-3.5-3.9-2.4-6.3
						C23.5,76.9,26.3,75.8,28.8,76.9C28.7,76.9,28.8,76.9,28.8,76.9z"/>
					<g class="st30">
						<path class="st29" d="M27.7,76.5c0.1,0,0.2,0.1,0.3,0.1c1.8,0.8,2.6,2.9,1.8,4.8c-0.8,1.8-2.9,2.6-4.8,1.8
							c-1.8-0.8-2.6-2.9-1.8-4.8c0,0,0,0,0,0c0.2-0.5,0.6-1,1.1-1.4c-0.9,0.5-1.5,1.3-2,2.2c-1.1,2.4,0,5.3,2.4,6.3s5.3,0,6.3-2.4
							c1.1-2.4,0-5.3-2.4-6.3C28.4,76.7,28.1,76.6,27.7,76.5z"/>
					</g>
					<path class="st29" d="M34.6,72.4c2.4,1.1,3.5,3.9,2.4,6.3c-1.1,2.4-3.9,3.5-6.3,2.4s-3.5-3.9-2.4-6.3c0,0,0,0,0,0
						C29.3,72.4,32.1,71.3,34.6,72.4z"/>
					<g class="st30">
						<path class="st29" d="M33.5,72.1l0.3,0.1c1.8,0.8,2.6,3,1.8,4.8c-0.8,1.8-3,2.6-4.8,1.8s-2.6-3-1.8-4.8c0.2-0.5,0.6-1,1.1-1.4
							c-0.9,0.5-1.6,1.2-2,2.2c-1.1,2.4,0,5.3,2.4,6.3c2.4,1.1,5.3,0,6.3-2.4s0-5.3-2.4-6.3c0,0,0,0,0,0
							C34.2,72.2,33.8,72.1,33.5,72.1z"/>
					</g>
					<path class="st29" d="M39.8,68.3c2.4,1.1,3.5,3.9,2.4,6.3c-1.1,2.4-3.9,3.5-6.3,2.4s-3.5-3.9-2.4-6.3c0,0,0,0,0,0
						C34.6,68.3,37.4,67.3,39.8,68.3z"/>
					<g class="st30">
						<path class="st29" d="M38.8,68l0.3,0.1c1.8,0.8,2.6,2.9,1.8,4.8c-0.8,1.8-2.9,2.6-4.8,1.8c-1.8-0.8-2.6-2.9-1.8-4.8
							c0.2-0.5,0.6-1,1.1-1.4c-2.3,1.3-3.1,4.3-1.7,6.5c0.2,0.3,0.4,0.6,0.7,0.9c0.4,0.5,1,0.8,1.6,1.1c2.4,1.2,5.3,0.2,6.4-2.2
							c1.2-2.4,0.2-5.3-2.2-6.4c-0.1-0.1-0.2-0.1-0.4-0.2C39.5,68.2,39.1,68.1,38.8,68z"/>
					</g>
					<path class="st29" d="M45.3,93.2c2.4,1.1,3.5,3.9,2.4,6.4c-1.1,2.4-3.9,3.5-6.4,2.4c-2.4-1.1-3.5-3.9-2.4-6.4c0,0,0,0,0,0
						C40.1,93.2,42.9,92.2,45.3,93.2z"/>
					<g class="st30">
						<path class="st29" d="M44.3,92.9l0.3,0.1c1.8,0.8,2.6,3,1.8,4.8c-0.8,1.8-3,2.6-4.8,1.8c-1.8-0.8-2.6-3-1.8-4.8
							c0.2-0.5,0.6-1,1.1-1.4c-0.9,0.5-1.5,1.3-1.9,2.2c-1.1,2.4,0,5.3,2.4,6.4c2.4,1.1,5.3,0,6.4-2.4c1.1-2.4,0-5.3-2.4-6.4
							C45,93.1,44.7,93,44.3,92.9z"/>
					</g>
					<path class="st29" d="M51.9,87.7c2.4,1.1,3.5,3.9,2.4,6.4c-1.1,2.4-3.9,3.5-6.4,2.4c-2.4-1.1-3.5-3.9-2.4-6.4
						C46.6,87.7,49.5,86.6,51.9,87.7C51.9,87.7,51.9,87.7,51.9,87.7z"/>
					<g class="st30">
						<path class="st29" d="M50.8,87.3l0.3,0.1c1.8,0.8,2.6,3,1.8,4.8c-0.8,1.8-3,2.6-4.8,1.8c-1.8-0.8-2.6-3-1.8-4.8
							c0.2-0.5,0.6-1,1.1-1.4c-0.9,0.5-1.6,1.3-2,2.2c-1.1,2.4,0,5.3,2.4,6.4c2.4,1.1,5.3,0,6.4-2.4c1.1-2.4,0-5.3-2.4-6.4
							C51.5,87.5,51.2,87.4,50.8,87.3z"/>
					</g>
					<path class="st29" d="M38,90c2.6,1.2,3.8,4.2,2.6,6.8c-1.2,2.6-4.2,3.8-6.8,2.6c-2.6-1.2-3.8-4.2-2.6-6.8
						C32.3,90,35.4,88.8,38,90C38,90,38,90,38,90z"/>
					<g class="st30">
						<path class="st29" d="M36.9,89.6c0.1,0,0.2,0.1,0.4,0.2c1.9,0.9,2.8,3.2,1.9,5.1c-0.9,1.9-3.2,2.8-5.1,1.9
							c-1.9-0.9-2.8-3.2-1.9-5.1c0.3-0.6,0.6-1,1.1-1.4c-2.5,1.4-3.3,4.6-1.9,7.1c1.4,2.5,4.6,3.3,7.1,1.9c2.5-1.4,3.3-4.6,1.9-7.1
							C39.8,91.2,39,90.4,38,90C37.6,89.8,37.3,89.7,36.9,89.6z"/>
					</g>
					<path class="st29" d="M44.7,85c2.6,1.2,3.8,4.2,2.6,6.8c-1.2,2.6-4.2,3.8-6.8,2.6c-2.6-1.2-3.8-4.2-2.6-6.8
						C39.1,85,42.1,83.8,44.7,85z"/>
					<g class="st30">
						<path class="st29" d="M43.6,84.6l0.4,0.1c2,0.9,2.8,3.2,1.9,5.1c-0.9,2-3.2,2.8-5.1,1.9c-2-0.9-2.8-3.2-1.9-5.1
							c0.3-0.6,0.7-1.1,1.2-1.5c-2.5,1.4-3.3,4.6-1.9,7.1c1.4,2.5,4.6,3.3,7.1,1.9c2.5-1.4,3.3-4.6,1.9-7.1
							c-0.5-0.9-1.4-1.7-2.3-2.1C44.4,84.8,44,84.7,43.6,84.6z"/>
					</g>
					<path class="st29" d="M43.8,75.1c2.9,1.3,4.2,4.7,2.9,7.6c-1.3,2.9-4.7,4.2-7.6,2.9c-2.9-1.3-4.2-4.7-2.9-7.6
						C37.5,75.1,40.9,73.8,43.8,75.1C43.8,75.1,43.8,75.1,43.8,75.1z"/>
					<g class="st30">
						<path class="st29" d="M42.5,74.7c0.1,0,0.3,0.1,0.4,0.2c2.2,1,3.1,3.5,2.2,5.7c-1,2.2-3.5,3.1-5.7,2.2c-2.2-1-3.1-3.5-2.2-5.7
							c0,0,0,0,0,0c0.3-0.6,0.7-1.2,1.3-1.6c-2.7,1.6-3.7,5.1-2.1,7.9c1.6,2.7,5.1,3.7,7.9,2.1c2.7-1.6,3.7-5.1,2.1-7.9
							c-0.6-1-1.5-1.9-2.6-2.3C43.4,75,42.9,74.8,42.5,74.7z"/>
					</g>
					<path class="st29" d="M31.1,84.1c2.9,1.3,4.2,4.7,2.9,7.6s-4.7,4.2-7.6,2.9c-2.9-1.3-4.2-4.7-2.9-7.6
						C24.7,84.1,28.1,82.8,31.1,84.1C31,84.1,31,84.1,31.1,84.1z"/>
					<g class="st30">
						<path class="st29" d="M29.8,83.7c0.1,0,0.3,0.1,0.4,0.2c2.2,1,3.1,3.5,2.2,5.7s-3.5,3.1-5.7,2.2c-2.2-1-3.1-3.5-2.2-5.7
							c0.3-0.6,0.7-1.2,1.3-1.6c-2.7,1.6-3.6,5.1-2,7.9c1.6,2.7,5.1,3.6,7.9,2c2.7-1.6,3.6-5.1,2-7.9c-0.6-1-1.5-1.8-2.6-2.3
							C30.7,83.9,30.2,83.8,29.8,83.7z"/>
					</g>
					<path class="st29" d="M37.9,79.3c2.9,1.3,4.2,4.7,2.9,7.6c-1.3,2.9-4.7,4.2-7.6,2.9c-2.9-1.3-4.2-4.7-2.9-7.6c0,0,0,0,0,0
						C31.6,79.3,35,78,37.9,79.3z"/>
					<g class="st30">
						<path class="st29" d="M36.7,78.9c0.1,0,0.3,0.1,0.4,0.2c2.2,1,3.1,3.5,2.2,5.7s-3.5,3.1-5.7,2.2c-2.2-1-3.1-3.5-2.2-5.7
							c0.3-0.6,0.7-1.2,1.3-1.6c-2.7,1.6-3.6,5.1-2,7.9c1.6,2.7,5.1,3.6,7.9,2c2.7-1.6,3.6-5.1,2-7.9c-0.6-1-1.5-1.8-2.6-2.3
							C37.5,79.1,37.1,79,36.7,78.9z"/>
					</g>
					<g class="st31">
						<path class="st6" d="M27.1,77.5c0.3,0.3-0.1,0.8-0.4,0.5c-0.3-0.2-0.7-0.3-1-0.1L25.5,78c0,0-0.1,0.1-0.1,0.1l-0.2,0.1l0,0
							l-0.1,0.1c-0.2,0.1-0.4,0-0.4-0.1c-0.1-0.1,0-0.3,0.1-0.4l0.1-0.1c0.2-0.3,0.5-0.5,0.8-0.5l0,0C26.2,77,26.7,77.2,27.1,77.5z
							 M30.7,73c-0.7,0.7-0.9,1.6-0.7,2.5c0.1,0.4,0.7,0.2,0.6-0.2c-0.2-0.7,0-1.4,0.5-1.9C31.5,73.1,31,72.7,30.7,73z M35.2,70
							c-0.4,1-0.1,2.2,0.7,2.9c0.3,0.3,0.7-0.2,0.4-0.5c-0.6-0.5-0.8-1.4-0.5-2.1C35.9,69.9,35.3,69.6,35.2,70z M38.8,76
							c-0.4,0.2,0,0.8,0.4,0.5c0.6-0.3,1.4-0.3,2,0.2c0.3,0.2,0.8-0.2,0.4-0.5C40.8,75.6,39.7,75.4,38.8,76L38.8,76z M34.7,80.3
							c-1.2,0.8-1.7,2.2-1.4,3.5c0.1,0.4,0.7,0.2,0.6-0.2c-0.3-1.1,0.2-2.2,1.1-2.9c0.1-0.1,0.2-0.3,0.1-0.4S34.8,80.2,34.7,80.3
							L34.7,80.3z M25.5,86.4c-0.4,1.4,0.4,2.8,1.8,3.2c0.4,0.1,0.5-0.5,0.1-0.6c-1-0.4-1.6-1.4-1.3-2.4
							C26.3,86.1,25.6,86,25.5,86.4L25.5,86.4z M44.9,72.1c-0.2,0.1-0.2,0.3-0.1,0.4c0.1,0.1,0.2,0.2,0.3,0.2c0.5-0.2,1,0,1.4,0.3
							c0.3,0.3,0.7-0.2,0.4-0.5C46.4,72,45.6,71.8,44.9,72.1z M50,84.8c-0.7,0.6-1.7,0.5-2.3-0.1c0,0,0,0,0,0
							c-0.3-0.3-0.7,0.2-0.4,0.5c0.9,0.9,2.3,1,3.2,0.1c0,0,0,0,0,0C50.8,84.9,50.3,84.5,50,84.8z M42.5,90.3
							c-0.7,0.2-1.5,0.1-2-0.4c-0.3-0.3-0.7,0.2-0.4,0.5c0.9,0.8,2.2,1,3.2,0.3c0.2-0.1,0.2-0.3,0.1-0.4c0-0.1-0.1-0.1-0.1-0.1
							L43,89.9C42.7,89.8,42.4,90.1,42.5,90.3L42.5,90.3z M36.1,95.6c-0.7,0.4-1.6,0.1-2-0.5c0,0,0,0,0-0.1
							c-0.2-0.4-0.8-0.2-0.6,0.2c0.4,1.1,1.7,1.6,2.7,1.1c0.1,0,0.2-0.1,0.3-0.1C36.8,95.9,36.5,95.3,36.1,95.6L36.1,95.6z
							 M44.3,97.6c-0.6,0.5-1.4,0.5-2-0.1c0,0,0,0,0,0c-0.3-0.3-0.8,0-0.5,0.4c0.7,0.9,2,1,2.9,0.2c0,0,0.1-0.1,0.1-0.1
							C45.1,97.8,44.6,97.3,44.3,97.6L44.3,97.6z M51.4,98.4c-0.5,0.6-1.4,0.8-2.1,0.5c-0.4-0.2-0.7,0.4-0.3,0.6
							c1,0.4,2.2,0.1,2.9-0.7C52.2,98.5,51.7,98.1,51.4,98.4L51.4,98.4z"/>
					</g>
					<path class="st11" d="M42.2,165c0,0,2.9-0.7,4.1-2.8c0.4-0.8,0.8-1.6,1.1-2.4c0.1-0.2,0-0.3-0.2-0.4c-0.1,0-0.2,0-0.2,0
						l-0.9,0.4c0.3-0.9,0.5-1.8,0.5-2.8c0-0.7,0-1.2-0.1-1.6c0-0.2-0.2-0.4-0.4-0.3c-0.1,0-0.2,0-0.2,0.1l-0.2,0.2l0.4-3.9
						c-1.7,0.7-3.3,1.6-4.7,2.6c-0.8,0.6-1.4,1.4-1.9,2.3l-0.4-1.1c-0.1-0.2-0.3-0.3-0.5-0.2c-0.1,0-0.1,0.1-0.2,0.1
						c-0.6,0.7-1.5,2.5-1.1,6.5C37.9,167.5,42.2,165,42.2,165z"/>
					<path class="st28" d="M37.3,161.8c-0.4-3.9,0.5-5.7,1.1-6.5c0.1-0.2,0.4-0.2,0.6-0.1c0.1,0,0.1,0.1,0.1,0.2l0.4,1.1
						c0.5-0.9,1.1-1.7,1.9-2.3c1.4-1.1,3-2,4.7-2.6c0,0-5.3,6.7-7.2,13.6C38.1,164.7,37.5,163.7,37.3,161.8z"/>
					<path class="st29" d="M46.2,182c1.2,1.5,1,3.7-0.5,4.9s-3.7,1-4.9-0.5c-1.2-1.5-1-3.7,0.5-4.9c0,0,0,0,0,0
						C42.8,180.3,45,180.5,46.2,182z"/>
					<g class="st30">
						<path class="st29" d="M45.6,181.4l0.2,0.2c0.9,1.1,0.7,2.7-0.4,3.6c-1.1,0.9-2.7,0.7-3.6-0.4c-0.9-1.1-0.7-2.7,0.4-3.6
							c0.3-0.3,0.7-0.5,1.1-0.5c-0.7,0-1.4,0.3-2,0.8c-1.5,1.2-1.7,3.4-0.5,4.9s3.4,1.7,4.9,0.5c1.5-1.2,1.7-3.4,0.5-4.9
							c0,0,0,0,0,0C46,181.8,45.8,181.6,45.6,181.4z"/>
					</g>
					<path class="st29" d="M49.9,172c1.3,1.6,1,3.9-0.5,5.2s-3.9,1-5.2-0.5c-1.3-1.6-1-3.9,0.5-5.2C46.3,170.2,48.6,170.4,49.9,172
						C49.9,172,49.9,172,49.9,172z"/>
					<g class="st30">
						<path class="st29" d="M49.3,171.4c0.1,0.1,0.1,0.1,0.2,0.2c1,1.2,0.8,3-0.4,3.9c-1.2,1-3,0.8-3.9-0.4c-1-1.2-0.8-3,0.4-3.9
							c0,0,0,0,0,0c0.4-0.3,0.8-0.5,1.2-0.6c-0.8,0.1-1.5,0.3-2.1,0.8c-1.6,1.3-1.8,3.6-0.5,5.2c1.3,1.6,3.6,1.8,5.2,0.5
							c1.6-1.3,1.8-3.6,0.5-5.2C49.8,171.7,49.6,171.5,49.3,171.4z"/>
					</g>
					<path class="st29" d="M50.8,165.9c1.4,1.8,1.2,4.4-0.6,5.8c-1.8,1.4-4.4,1.2-5.8-0.6c-1.4-1.8-1.2-4.4,0.6-5.8c0,0,0,0,0,0
						C46.8,163.8,49.4,164.1,50.8,165.9z"/>
					<g class="st30">
						<path class="st29" d="M50.2,165.2c0.1,0.1,0.2,0.2,0.2,0.2c1.1,1.3,0.9,3.3-0.5,4.4s-3.3,0.9-4.4-0.5
							c-1.1-1.3-0.9-3.3,0.4-4.4c0.4-0.3,0.9-0.5,1.4-0.6c-2.3,0.2-4,2.1-3.8,4.4c0.2,2.3,2.1,4,4.4,3.8c2.3-0.2,4-2.1,3.8-4.4
							c-0.1-0.9-0.4-1.7-0.9-2.3C50.6,165.6,50.4,165.4,50.2,165.2z"/>
					</g>
					<path class="st11" d="M38.1,163.3c0,0-3-3.6-2.9-6.8c0-1.6,0.6-3.1,1.7-4.2c0.3-0.3,0.9-0.3,1.2,0l0,0c0.4,0.3,0.4,0.9,0.1,1.2
						c-1,1.1-1.5,2.7-1.2,4.2c0.7,2.6,1.8,5.2,1.8,5.4S38.1,163.3,38.1,163.3z"/>
					<path class="st28" d="M36.1,158.4c-0.6-2.5,0.7-4.9,1.7-6.3c-0.3-0.1-0.6,0-0.8,0.2c-1.1,1.1-1.7,2.6-1.7,4.2
						c0,3.2,2.9,6.8,2.9,6.8l0.4-0.1C37.4,161.8,36.5,160.2,36.1,158.4z"/>
					<path class="st29" d="M36.7,162.9c1.2,1.5,1,3.7-0.5,4.9s-3.7,1-4.9-0.5c-1.2-1.5-1-3.7,0.5-4.9c0,0,0,0,0,0
						C33.3,161.2,35.5,161.4,36.7,162.9z"/>
					<g class="st30">
						<path class="st29" d="M36.1,162.3c0.1,0.1,0.1,0.1,0.2,0.2c0.9,1.1,0.7,2.7-0.4,3.6s-2.7,0.7-3.6-0.4
							c-0.9-1.1-0.7-2.7,0.4-3.6c0.3-0.3,0.7-0.4,1.1-0.5c-0.7,0.1-1.4,0.3-2,0.8c-1.5,1.2-1.7,3.4-0.5,4.9c1.2,1.5,3.4,1.7,4.9,0.5
							s1.7-3.4,0.5-4.9c0,0,0,0,0,0C36.5,162.6,36.3,162.5,36.1,162.3z"/>
					</g>
					<path class="st29" d="M41.9,161.9c1.2,1.5,1,3.7-0.5,4.9s-3.7,1-4.9-0.5s-1-3.7,0.5-4.9c0,0,0,0,0,0
						C38.5,160.1,40.6,160.4,41.9,161.9C41.8,161.8,41.9,161.8,41.9,161.9z"/>
					<g class="st30">
						<path class="st29" d="M41.3,161.3c0.1,0.1,0.1,0.1,0.2,0.2c0.9,1.1,0.7,2.7-0.4,3.6s-2.7,0.7-3.6-0.4
							c-0.9-1.1-0.7-2.7,0.4-3.6c0.3-0.3,0.7-0.4,1.1-0.5c-0.7,0-1.4,0.3-2,0.8c-1.5,1.2-1.7,3.4-0.5,4.8s3.4,1.7,4.8,0.5
							c1.5-1.2,1.7-3.4,0.5-4.8C41.7,161.6,41.5,161.5,41.3,161.3z"/>
					</g>
					<path class="st29" d="M46.5,161c1.2,1.5,1,3.7-0.5,4.9s-3.7,1-4.9-0.5s-1-3.7,0.5-4.9c0,0,0,0,0,0
						C43.2,159.3,45.3,159.5,46.5,161z"/>
					<g class="st30">
						<path class="st29" d="M46,160.4c0.1,0.1,0.1,0.1,0.2,0.2c0.9,1.1,0.7,2.7-0.4,3.6s-2.7,0.7-3.6-0.4c-0.9-1.1-0.7-2.7,0.4-3.6
							c0.3-0.3,0.7-0.4,1.1-0.5c-0.7,0-1.4,0.3-2,0.8c-1.5,1.2-1.7,3.4-0.5,4.9c1.2,1.5,3.4,1.7,4.9,0.5s1.7-3.4,0.5-4.9
							c0,0,0,0,0,0C46.4,160.8,46.2,160.6,46,160.4z"/>
					</g>
					<path class="st29" d="M42.1,178.7c1.2,1.5,1,3.7-0.5,4.9c-1.5,1.2-3.7,1-4.9-0.5c-1.2-1.5-1-3.7,0.5-4.9
						C38.7,177,40.9,177.2,42.1,178.7C42.1,178.7,42.1,178.7,42.1,178.7z"/>
					<g class="st30">
						<path class="st29" d="M41.5,178.1l0.2,0.2c0.9,1.1,0.7,2.7-0.4,3.6c-1.1,0.9-2.7,0.7-3.6-0.4c-0.9-1.1-0.7-2.7,0.3-3.6
							c0.3-0.3,0.7-0.5,1.1-0.5c-0.7,0-1.4,0.3-2,0.8c-1.5,1.2-1.7,3.4-0.5,4.9c1.2,1.5,3.4,1.7,4.9,0.5c1.5-1.2,1.7-3.4,0.5-4.9
							C41.9,178.5,41.7,178.3,41.5,178.1z"/>
					</g>
					<path class="st29" d="M48,177.2c1.2,1.5,1,3.7-0.5,4.9s-3.7,1-4.9-0.5c-1.2-1.5-1-3.6,0.5-4.8C44.7,175.5,46.8,175.8,48,177.2
						C48,177.2,48,177.2,48,177.2z"/>
					<g class="st30">
						<path class="st29" d="M47.5,176.7l0.2,0.2c0.9,1.1,0.7,2.7-0.4,3.6c-1.1,0.9-2.7,0.7-3.6-0.4c-0.9-1.1-0.7-2.7,0.4-3.6
							c0.3-0.3,0.7-0.5,1.1-0.5c-1.9,0.1-3.3,1.8-3.2,3.7s1.8,3.3,3.7,3.2c1.9-0.1,3.3-1.8,3.2-3.7c0-0.7-0.3-1.4-0.8-2
							C47.9,177,47.7,176.8,47.5,176.7z"/>
					</g>
					<path class="st29" d="M38.4,174.2c1.3,1.6,1,3.9-0.5,5.2c-1.6,1.3-3.9,1-5.2-0.5c-1.3-1.6-1-3.9,0.5-5.2
						C34.8,172.4,37.1,172.6,38.4,174.2C38.4,174.2,38.4,174.2,38.4,174.2z"/>
					<g class="st30">
						<path class="st29" d="M37.8,173.6c0.1,0.1,0.1,0.1,0.2,0.2c1,1.2,0.8,3-0.4,3.9c-1.2,1-3,0.8-3.9-0.4s-0.8-3,0.4-3.9
							c0,0,0,0,0,0c0.4-0.3,0.8-0.5,1.2-0.6c-0.8,0-1.5,0.3-2.1,0.8c-1.6,1.3-1.8,3.6-0.5,5.2c1.3,1.6,3.6,1.8,5.2,0.5
							c1.6-1.3,1.8-3.6,0.5-5.2C38.2,174,38,173.8,37.8,173.6z"/>
					</g>
					<path class="st29" d="M44.3,173.2c1.3,1.6,1,3.9-0.5,5.2s-3.9,1-5.2-0.5c-1.3-1.6-1-3.9,0.5-5.2
						C40.7,171.4,43,171.6,44.3,173.2C44.3,173.2,44.3,173.2,44.3,173.2z"/>
					<g class="st30">
						<path class="st29" d="M43.7,172.6l0.2,0.2c1,1.2,0.8,3-0.4,3.9s-3,0.8-3.9-0.4c-1-1.2-0.8-3,0.4-3.9c0,0,0,0,0,0
							c0.4-0.3,0.8-0.5,1.2-0.6c-0.8,0-1.5,0.3-2.1,0.8c-1.6,1.3-1.8,3.6-0.5,5.2c1.3,1.6,3.6,1.8,5.2,0.5c1.6-1.3,1.8-3.6,0.5-5.2
							C44.2,173,43.9,172.8,43.7,172.6z"/>
					</g>
					<path class="st29" d="M46.9,166.6c1.4,1.8,1.2,4.4-0.6,5.8c-1.8,1.4-4.4,1.2-5.8-0.6c-1.4-1.8-1.2-4.4,0.6-5.8c0,0,0,0,0,0
						C42.8,164.5,45.4,164.8,46.9,166.6C46.9,166.6,46.9,166.6,46.9,166.6z"/>
					<g class="st30">
						<path class="st29" d="M46.2,165.9l0.2,0.2c1.1,1.3,0.9,3.3-0.4,4.4c-1.3,1.1-3.3,0.9-4.4-0.4s-0.9-3.3,0.4-4.4c0,0,0,0,0,0
							c0.4-0.3,0.9-0.5,1.3-0.6c-2.3,0.2-4,2.1-3.8,4.4c0.2,2.3,2.1,4,4.4,3.8c2.3-0.2,4-2.1,3.8-4.4c-0.1-0.9-0.4-1.7-0.9-2.3
							C46.7,166.3,46.4,166.1,46.2,165.9z"/>
					</g>
					<path class="st29" d="M35.8,168.2c1.4,1.8,1.2,4.4-0.6,5.8c-1.8,1.4-4.4,1.2-5.8-0.6s-1.2-4.4,0.6-5.8c0,0,0,0,0,0
						C31.8,166.2,34.4,166.5,35.8,168.2C35.8,168.2,35.8,168.2,35.8,168.2z"/>
					<g class="st30">
						<path class="st29" d="M35.2,167.6l0.2,0.2c1.1,1.3,0.9,3.3-0.5,4.3c-1.3,1.1-3.3,0.9-4.3-0.5c-1.1-1.3-0.9-3.3,0.4-4.3
							c0.4-0.3,0.9-0.5,1.4-0.6c-2.3,0.1-4,2.1-3.9,4.4c0.1,0.9,0.4,1.7,0.9,2.3c1.5,1.7,4.1,1.9,5.8,0.3c1.6-1.4,1.9-3.8,0.6-5.6
							C35.6,168,35.4,167.7,35.2,167.6z"/>
					</g>
					<path class="st29" d="M41.8,167.4c1.4,1.8,1.2,4.4-0.6,5.8c-1.8,1.4-4.4,1.2-5.8-0.6s-1.2-4.4,0.6-5.8c0,0,0,0,0,0
						C37.8,165.3,40.4,165.6,41.8,167.4z"/>
					<g class="st30">
						<path class="st29" d="M41.1,166.7l0.2,0.2c1.1,1.3,0.9,3.3-0.5,4.3c-1.3,1.1-3.3,0.9-4.3-0.5c-1.1-1.3-0.9-3.3,0.4-4.3
							c0.4-0.3,0.9-0.5,1.3-0.6c-2.3,0.2-4,2.1-3.8,4.4c0.2,2.3,2.1,4,4.4,3.8c2.3-0.2,4-2.1,3.8-4.4c-0.1-0.9-0.4-1.7-0.9-2.3
							C41.6,167.1,41.4,166.9,41.1,166.7z"/>
					</g>
					<g class="st31">
						<path class="st6" d="M35.5,162.7c0.1,0.3-0.3,0.4-0.4,0.2c-0.1-0.2-0.3-0.4-0.6-0.4h-0.2h-0.1h-0.3c-0.1,0-0.2,0-0.3-0.2
							c0,0,0,0,0,0c0-0.1,0.1-0.2,0.2-0.3c0,0,0,0,0,0h0.1c0.2-0.1,0.5-0.2,0.7-0.1l0,0C35,162.1,35.3,162.3,35.5,162.7z M39.2,161
							c-0.6,0.2-1.1,0.8-1.2,1.4c-0.1,0.3,0.4,0.4,0.5,0.1c0.1-0.5,0.5-0.9,1-1C39.7,161.4,39.5,160.9,39.2,161z M43,160.5
							c-0.6,0.5-0.8,1.3-0.5,2.1c0,0.1,0.2,0.2,0.3,0.1c0.1,0,0.2-0.2,0.1-0.3l0,0c-0.2-0.5-0.1-1.1,0.3-1.5
							C43.5,160.7,43.2,160.3,43,160.5L43,160.5z M43.4,165.5c-0.3,0-0.2,0.5,0,0.5c0.5,0,1,0.3,1.3,0.8c0.1,0.3,0.6,0.1,0.4-0.2
							C44.8,165.9,44.1,165.5,43.4,165.5z M39.4,166.9c-1,0.1-1.8,0.8-2,1.8c-0.1,0.3,0.4,0.4,0.5,0.1c0.2-0.8,0.8-1.3,1.6-1.4
							c0.1,0,0.2-0.2,0.2-0.3C39.6,167,39.5,166.9,39.4,166.9z M31.6,167.9c-0.7,0.8-0.6,1.9,0.1,2.6c0.2,0.2,0.5-0.1,0.3-0.4
							c-0.5-0.6-0.5-1.4,0-2C32.1,168,31.8,167.7,31.6,167.9L31.6,167.9z M48.6,165c-0.1,0-0.2,0.1-0.2,0.2c0,0.1,0.1,0.2,0.2,0.2
							c0.4,0,0.7,0.3,0.8,0.7c0.1,0.3,0.5,0.1,0.4-0.2C49.5,165.5,49.1,165.1,48.6,165L48.6,165z M47.7,174.8
							c-0.6,0.2-1.3-0.2-1.4-0.8c0,0,0,0,0,0c-0.1-0.3-0.5-0.1-0.4,0.2c0.3,0.8,1.2,1.3,2,1.1C48.2,175.1,48,174.7,47.7,174.8
							L47.7,174.8z M41.1,176c-0.5-0.1-1-0.5-1.1-1c-0.1-0.3-0.5-0.1-0.4,0.2c0.3,0.8,1.1,1.3,2,1.2c0.1,0,0.2-0.2,0.2-0.3
							c0,0,0-0.1,0-0.1l-0.1-0.2C41.5,175.6,41.2,175.7,41.1,176L41.1,176z M35.4,177.3c-0.5,0.1-1-0.3-1.1-0.9c0-0.1,0-0.1,0-0.2
							c0-0.3-0.4-0.4-0.5-0.1c-0.1,0.8,0.6,1.5,1.4,1.6c0.1,0,0.2,0,0.2,0c0.1,0,0.2-0.1,0.2-0.3C35.6,177.3,35.5,177.2,35.4,177.3
							L35.4,177.3z M40,181.3c-0.5,0.2-1.1-0.1-1.3-0.7c0,0,0,0,0,0c-0.1-0.3-0.5-0.2-0.5,0.1c0.2,0.8,1,1.3,1.8,1.1
							c0,0,0.1,0,0.1,0C40.5,181.5,40.3,181.1,40,181.3L40,181.3z M44.3,184c-0.5,0.2-1.1,0.1-1.5-0.4c-0.2-0.2-0.6,0.1-0.4,0.3
							c0.5,0.6,1.3,0.8,2.1,0.5C44.7,184.3,44.6,183.9,44.3,184z"/>
					</g>
					<path class="st26" d="M170.1-12.5h48.7c0.3,0,0.6,0.3,0.6,0.6v297.3c0,0.3-0.3,0.6-0.6,0.6h-48.7c-0.3,0-0.6-0.3-0.6-0.6V-11.9
						C169.5-12.3,169.7-12.5,170.1-12.5z"/>
					<path class="st6" d="M161.5,274.6h68.1c4,0,7.3,3.3,7.3,7.3v4.4c0,4-3.3,7.3-7.3,7.3h-68.1c-4,0-7.3-3.3-7.3-7.3v-4.4
						C154.2,277.8,157.5,274.6,161.5,274.6z"/>
					<path class="st6" d="M182.4,6.9h0.4c1.3,0,2.4,1.1,2.4,2.4v254.2c0,1.3-1.1,2.4-2.4,2.4h-0.4c-1.3,0-2.4-1.1-2.4-2.4V9.3
						C180,8,181.1,6.9,182.4,6.9z"/>
					<path class="st6" d="M194.6,6.9h0.4c1.3,0,2.4,1.1,2.4,2.4v254.2c0,1.3-1.1,2.4-2.4,2.4h-0.4c-1.3,0-2.4-1.1-2.4-2.4V9.3
						C192.2,8,193.3,6.9,194.6,6.9z"/>
					<path class="st6" d="M207.5,6.9h0.4c1.3,0,2.4,1.1,2.4,2.4v254.2c0,1.3-1.1,2.4-2.4,2.4h-0.4c-1.3,0-2.4-1.1-2.4-2.4V9.3
						C205.1,8,206.2,6.9,207.5,6.9z"/>
					<rect x="169.5" y="-12.5" class="st27" width="49.8" height="14.8"/>
					<path class="st11" d="M223.3,43l-0.4,1c-1.3,2.8-4.5,4-7.3,2.8L165.2,24c-2.8-1.3-4-4.5-2.8-7.3l0.4-1c1.3-2.8,4.5-4,7.3-2.8
						l50.4,22.7C223.3,36.9,224.6,40.2,223.3,43z"/>
					<path class="st11" d="M162.4,109.6l0.4-1c1.3-2.8,4.5-4,7.3-2.8l50.4,22.7c2.8,1.3,4,4.5,2.8,7.3l-0.4,1
						c-1.3,2.8-4.5,4-7.3,2.8l-50.4-22.7C162.4,115.7,161.1,112.4,162.4,109.6z"/>
					<path class="st11" d="M162.4,193.7l0.4-1c1.3-2.8,4.5-4,7.3-2.8l50.4,22.7c2.8,1.3,4,4.5,2.8,7.3l-0.4,1
						c-1.3,2.8-4.5,4-7.3,2.8l-50.4-22.7C162.4,199.8,161.1,196.5,162.4,193.7z"/>
					<path class="st11" d="M191.3,205.1c0,0,2.5-2.7,2.3-5.5c-0.1-1-0.2-2.1-0.5-3.1c0-0.2-0.2-0.3-0.4-0.3c-0.1,0-0.2,0.1-0.2,0.2
						l-0.7,1c-0.2-1.1-0.7-2.2-1.4-3.1c-0.5-0.7-0.8-1.2-1.1-1.5c-0.2-0.2-0.4-0.2-0.6-0.1c-0.1,0.1-0.1,0.1-0.1,0.2l-0.1,0.4
						l-2.1-4.3c-1.2,1.8-2.3,3.7-3,5.7c-0.4,1.1-0.6,2.4-0.4,3.6l-1.1-0.8c-0.2-0.2-0.5-0.1-0.7,0.1c0,0.1-0.1,0.1-0.1,0.2
						c-0.1,1.1,0.2,3.5,3.2,7.2C188.6,210.4,191.3,205.1,191.3,205.1z"/>
					<path class="st28" d="M184.2,205.1c-3-3.7-3.3-6.1-3.2-7.2c0-0.3,0.3-0.5,0.5-0.4c0.1,0,0.2,0,0.2,0.1l1.1,0.8
						c-0.1-1.2,0-2.4,0.4-3.6c0.7-2,1.8-4,3-5.7c0,0-1,10.3,1.6,18.4C186.9,207.5,185.7,206.9,184.2,205.1z"/>
					<path class="st29" d="M206.4,219.6c2.2,0.7,3.4,3.1,2.7,5.2c-0.7,2.2-3.1,3.4-5.2,2.7c-2.2-0.7-3.4-3.1-2.7-5.2c0,0,0,0,0,0
						C201.9,220.1,204.2,218.9,206.4,219.6z"/>
					<g class="st30">
						<path class="st29" d="M205.5,219.5l0.3,0.1c1.6,0.5,2.5,2.3,2,3.9s-2.3,2.5-3.9,2c-1.6-0.5-2.5-2.3-2-3.9c0,0,0,0,0,0
							c0.2-0.5,0.4-0.9,0.8-1.3c-1.8,1.4-2.2,4-0.9,5.8c1.4,1.8,4,2.2,5.8,0.9s2.2-4,0.9-5.8c-0.5-0.7-1.2-1.2-2.1-1.5
							C206.1,219.5,205.8,219.5,205.5,219.5z"/>
					</g>
					<path class="st29" d="M203.7,207.1c2.3,0.8,3.6,3.3,2.9,5.6c-0.8,2.3-3.3,3.6-5.6,2.9c-2.3-0.8-3.6-3.3-2.9-5.6
						C198.8,207.6,201.3,206.3,203.7,207.1z"/>
					<g class="st30">
						<path class="st29" d="M202.6,206.9l0.3,0.1c1.8,0.6,2.7,2.5,2.2,4.2c-0.6,1.8-2.5,2.7-4.2,2.2c-1.8-0.6-2.7-2.5-2.2-4.2
							c0,0,0,0,0,0c0.2-0.5,0.5-1,0.9-1.4c-0.7,0.5-1.3,1.3-1.6,2.2c-0.8,2.3,0.5,4.9,2.9,5.6c2.3,0.8,4.9-0.5,5.6-2.9
							c0.8-2.3-0.5-4.9-2.9-5.6C203.3,207,203,206.9,202.6,206.9z"/>
					</g>
					<path class="st29" d="M200.6,200.4c2.6,0.8,4.1,3.6,3.3,6.3s-3.6,4.1-6.3,3.3s-4.1-3.6-3.3-6.3c0,0,0-0.1,0-0.1
						C195.2,200.9,198,199.5,200.6,200.4C200.6,200.3,200.6,200.3,200.6,200.4z"/>
					<g class="st30">
						<path class="st29" d="M199.5,200.1c0.1,0,0.2,0.1,0.4,0.1c1.9,0.6,3,2.7,2.4,4.7c-0.6,1.9-2.7,3-4.7,2.4
							c-1.9-0.6-3-2.7-2.4-4.7c0.2-0.6,0.5-1.1,0.9-1.5c-2.2,1.7-2.6,4.8-1,7s4.8,2.6,7,1s2.6-4.8,1-7
							C202.2,200.9,200.9,200.2,199.5,200.1L199.5,200.1z"/>
					</g>
					<path class="st11" d="M186.1,206.1c0,0-5.4-1.7-7.4-5c-1-1.6-1.4-3.5-1-5.3c0.1-0.6,0.7-0.9,1.2-0.8l0,0c0.6,0.1,1,0.6,0.9,1.2
						c-0.3,1.8,0.2,3.7,1.5,5.1c2.4,2.2,5.3,4.1,5.3,4.2S186.1,206.1,186.1,206.1z"/>
					<path class="st28" d="M180.8,202.5c-2.2-2.1-2.5-5.4-2.4-7.5c-0.3,0.1-0.6,0.4-0.7,0.8c-0.4,1.8,0,3.8,1,5.3
						c2.1,3.2,7.4,5,7.4,5c0.1-0.1,0.3-0.2,0.4-0.3C184.4,205.1,182.5,204,180.8,202.5z"/>
					<path class="st29" d="M184.4,206.5c2.2,0.7,3.4,3,2.7,5.2c-0.7,2.2-3,3.4-5.2,2.7c-2.2-0.7-3.4-3-2.7-5.2
						C179.8,207,182.2,205.8,184.4,206.5C184.4,206.5,184.4,206.5,184.4,206.5z"/>
					<g class="st30">
						<path class="st29" d="M183.4,206.4l0.3,0.1c1.6,0.5,2.5,2.3,2,3.9c-0.5,1.6-2.3,2.5-3.9,2c-1.6-0.5-2.5-2.3-2-3.9c0,0,0,0,0,0
							c0.2-0.5,0.4-0.9,0.8-1.3c-0.7,0.5-1.2,1.2-1.5,2c-0.7,2.2,0.5,4.5,2.7,5.2c2.2,0.7,4.5-0.5,5.2-2.7c0.7-2.2-0.5-4.5-2.7-5.2
							C184.1,206.4,183.7,206.4,183.4,206.4z"/>
					</g>
					<path class="st29" d="M188.9,202.1c2.2,0.7,3.4,3,2.7,5.2c-0.7,2.2-3,3.4-5.2,2.7c-2.2-0.7-3.4-3-2.7-5.2c0,0,0,0,0,0
						C184.4,202.6,186.7,201.4,188.9,202.1C188.9,202.1,188.9,202.1,188.9,202.1z"/>
					<g class="st30">
						<path class="st29" d="M188,202c0.1,0,0.2,0,0.3,0.1c1.6,0.5,2.5,2.3,2,3.9c-0.5,1.6-2.3,2.5-3.9,2c-1.6-0.5-2.5-2.3-2-3.9
							c0.2-0.5,0.4-0.9,0.8-1.3c-0.7,0.5-1.2,1.2-1.5,2c-0.7,2.2,0.5,4.5,2.7,5.2c2.2,0.7,4.5-0.5,5.2-2.7c0.7-2.2-0.5-4.5-2.7-5.2
							c0,0,0,0,0,0C188.6,202.1,188.3,202,188,202z"/>
					</g>
					<path class="st29" d="M193.1,198.2c2.2,0.7,3.4,3,2.7,5.2c-0.7,2.2-3,3.4-5.2,2.7c-2.2-0.7-3.4-3-2.7-5.2c0,0,0,0,0,0
						C188.5,198.7,190.9,197.5,193.1,198.2C193,198.2,193,198.2,193.1,198.2z"/>
					<g class="st30">
						<path class="st29" d="M192.1,198c0.1,0,0.2,0.1,0.3,0.1c1.6,0.5,2.5,2.3,2,3.9c-0.5,1.6-2.3,2.5-3.9,2c-1.6-0.5-2.5-2.3-2-3.9
							c0.2-0.5,0.4-0.9,0.8-1.3c-1.8,1.4-2.2,3.9-0.9,5.8c0.2,0.2,0.4,0.5,0.6,0.7c0.4,0.4,0.9,0.6,1.4,0.8c2.1,0.8,4.5-0.3,5.3-2.4
							c0.8-2.1-0.3-4.5-2.4-5.3c-0.1,0-0.2-0.1-0.3-0.1C192.7,198.1,192.4,198,192.1,198z"/>
					</g>
					<path class="st29" d="M200.1,219c2.2,0.7,3.4,3,2.7,5.2c-0.7,2.2-3,3.4-5.2,2.7c-2.2-0.7-3.4-3-2.7-5.2
						C195.6,219.5,197.9,218.3,200.1,219C200.1,219,200.1,219,200.1,219z"/>
					<g class="st30">
						<path class="st29" d="M199.2,218.8l0.3,0.1c1.6,0.5,2.5,2.3,2,3.9c-0.5,1.6-2.3,2.5-3.9,2c-1.6-0.5-2.5-2.3-2-3.9
							c0.2-0.5,0.4-0.9,0.8-1.3c-1.8,1.4-2.2,4-0.9,5.8c1.4,1.8,4,2.2,5.8,0.9c1.8-1.4,2.2-4,0.9-5.8c-0.5-0.7-1.2-1.2-2.1-1.5
							C199.8,218.9,199.5,218.9,199.2,218.8z"/>
					</g>
					<path class="st29" d="M205.2,213.6c2.2,0.7,3.4,3,2.7,5.2c-0.7,2.2-3,3.4-5.2,2.7c-2.2-0.7-3.4-3-2.7-5.2c0,0,0,0,0,0
						C200.7,214.1,203,212.9,205.2,213.6z"/>
					<g class="st30">
						<path class="st29" d="M204.3,213.4c0.1,0,0.2,0.1,0.3,0.1c1.6,0.5,2.5,2.3,2,3.9c-0.5,1.6-2.3,2.5-3.9,2
							c-1.6-0.5-2.5-2.3-2-3.9c0.2-0.5,0.4-0.9,0.8-1.3c-0.7,0.5-1.2,1.2-1.4,2.1c-0.7,2.2,0.5,4.5,2.7,5.2c2.2,0.7,4.5-0.5,5.2-2.7
							c0.7-2.2-0.5-4.5-2.7-5.2C204.9,213.5,204.6,213.5,204.3,213.4z"/>
					</g>
					<path class="st29" d="M193.5,216.9c2.3,0.8,3.6,3.3,2.9,5.6s-3.3,3.6-5.6,2.9c-2.3-0.8-3.6-3.3-2.9-5.6
						C188.7,217.4,191.2,216.1,193.5,216.9C193.5,216.9,193.5,216.9,193.5,216.9z"/>
					<g class="st30">
						<path class="st29" d="M192.5,216.7c0.1,0,0.2,0.1,0.3,0.1c1.8,0.6,2.7,2.5,2.1,4.2c-0.6,1.8-2.5,2.7-4.2,2.1
							c-1.7-0.6-2.7-2.4-2.1-4.2c0.2-0.5,0.5-1,0.9-1.4c-2,1.5-2.4,4.3-0.9,6.2c0.6,0.7,1.3,1.3,2.2,1.6c2.3,0.8,4.9-0.5,5.6-2.9
							s-0.5-4.9-2.9-5.6C193.2,216.8,192.9,216.7,192.5,216.7z"/>
					</g>
					<path class="st29" d="M198.8,212c2.3,0.8,3.6,3.3,2.9,5.6c-0.8,2.3-3.3,3.6-5.6,2.9c-2.3-0.8-3.6-3.3-2.9-5.6
						C194,212.5,196.5,211.2,198.8,212z"/>
					<g class="st30">
						<path class="st29" d="M197.8,211.8l0.3,0.1c1.8,0.6,2.7,2.5,2.2,4.2c-0.6,1.8-2.5,2.7-4.2,2.2c-1.8-0.6-2.7-2.5-2.2-4.2
							c0.2-0.5,0.5-1,0.9-1.4c-0.7,0.5-1.3,1.3-1.6,2.2c-0.8,2.3,0.5,4.9,2.9,5.6c2.3,0.8,4.9-0.5,5.6-2.9c0.8-2.3-0.5-4.9-2.9-5.6
							C198.5,211.9,198.2,211.8,197.8,211.8z"/>
					</g>
					<path class="st29" d="M197.1,203.6c2.6,0.8,4.1,3.6,3.3,6.3s-3.6,4.1-6.3,3.3s-4.1-3.6-3.3-6.3c0,0,0-0.1,0-0.1
						C191.7,204.2,194.4,202.8,197.1,203.6C197,203.6,197.1,203.6,197.1,203.6z"/>
					<g class="st30">
						<path class="st29" d="M195.9,203.4l0.4,0.1c2,0.6,3,2.7,2.4,4.7c-0.6,2-2.7,3-4.7,2.4c-2-0.6-3-2.7-2.4-4.7c0,0,0,0,0,0
							c0.2-0.6,0.5-1.1,0.9-1.5c-0.8,0.6-1.4,1.5-1.8,2.4c-0.9,2.6,0.5,5.5,3.2,6.3s5.5-0.5,6.3-3.2c0.9-2.6-0.5-5.5-3.2-6.3
							c0,0-0.1,0-0.1,0C196.7,203.5,196.3,203.5,195.9,203.4z"/>
					</g>
					<path class="st29" d="M187,212.5c2.6,0.8,4.1,3.6,3.3,6.3c-0.8,2.6-3.6,4.1-6.3,3.3c-2.6-0.8-4.1-3.6-3.3-6.3c0,0,0-0.1,0-0.1
						C181.6,213.1,184.4,211.7,187,212.5z"/>
					<g class="st30">
						<path class="st29" d="M185.9,212.3l0.4,0.1c2,0.6,3.1,2.7,2.4,4.7c-0.6,2-2.7,3.1-4.7,2.4c-2-0.6-3.1-2.7-2.4-4.7
							c0.2-0.6,0.5-1.1,1-1.6c-0.8,0.6-1.4,1.5-1.8,2.4c-0.9,2.6,0.5,5.5,3.2,6.3c2.6,0.9,5.5-0.5,6.3-3.2c0.9-2.6-0.5-5.5-3.2-6.3
							C186.7,212.4,186.3,212.3,185.9,212.3z"/>
					</g>
					<path class="st29" d="M192.5,207.8c2.6,0.8,4.1,3.6,3.3,6.3s-3.6,4.1-6.3,3.3s-4.1-3.6-3.3-6.3c0,0,0-0.1,0-0.1
						C187.1,208.3,189.8,206.9,192.5,207.8C192.4,207.7,192.5,207.7,192.5,207.8z"/>
					<g class="st30">
						<path class="st29" d="M191.3,207.5c0.1,0,0.2,0.1,0.4,0.1c2,0.6,3,2.7,2.4,4.7c-0.6,2-2.7,3-4.7,2.4c-1.9-0.6-3-2.7-2.4-4.7
							c0.2-0.6,0.5-1.1,0.9-1.5c-2.2,1.6-2.7,4.8-1.1,7c1.6,2.2,4.8,2.7,7,1.1c2.2-1.6,2.7-4.8,1.1-7c-0.6-0.8-1.5-1.5-2.5-1.8
							C192.1,207.6,191.7,207.6,191.3,207.5z"/>
					</g>
					<g class="st31">
						<path class="st6" d="M183,207.2c0.3,0.2,0,0.6-0.3,0.5c-0.3-0.2-0.6-0.2-0.9,0l-0.1,0.1c0,0,0,0.1-0.1,0.1l-0.1,0.1l0,0
							l-0.1,0.1c-0.1,0.1-0.3,0-0.3-0.1c-0.1-0.1-0.1-0.2,0-0.4c0,0,0,0,0,0l0.1-0.1c0.1-0.3,0.4-0.5,0.6-0.5l0,0
							C182.1,206.9,182.6,207,183,207.2z M185.7,203c-0.5,0.6-0.6,1.5-0.3,2.2c0.1,0.4,0.6,0.1,0.5-0.2c-0.2-0.6-0.1-1.2,0.3-1.7
							C186.4,203.1,185.9,202.8,185.7,203L185.7,203z M189.2,200c-0.3,0.9,0.1,1.9,0.9,2.4c0.1,0.1,0.3,0.1,0.4-0.1s0.1-0.3-0.1-0.4
							l0,0c-0.6-0.4-0.8-1.1-0.6-1.8C189.8,199.9,189.3,199.7,189.2,200L189.2,200z M192.8,204.8c-0.3,0.2,0.1,0.6,0.4,0.4
							c0.5-0.4,1.2-0.4,1.8-0.1c0.3,0.2,0.6-0.3,0.3-0.5C194.5,204.2,193.6,204.3,192.8,204.8L192.8,204.8z M189.7,208.9
							c-0.9,0.8-1.3,2-0.9,3.2c0.1,0.3,0.6,0.1,0.5-0.2c-0.3-0.9,0-1.9,0.7-2.5c0.1-0.1,0.1-0.3,0-0.4
							C190,208.9,189.8,208.8,189.7,208.9L189.7,208.9z M182.5,215c-0.2,1.2,0.6,2.3,1.8,2.6c0.4,0.1,0.4-0.5,0.1-0.6
							c-0.9-0.2-1.5-1.1-1.3-2C183.1,214.7,182.5,214.6,182.5,215z M197.7,200.9c-0.1,0.1-0.2,0.2-0.1,0.4s0.2,0.2,0.4,0.1l0,0
							c0.4-0.2,0.9-0.1,1.2,0.2c0.3,0.2,0.6-0.2,0.3-0.5C199,200.7,198.3,200.6,197.7,200.9L197.7,200.9z M203.3,211.4
							c-0.5,0.6-1.4,0.6-2,0.1c0,0,0,0,0,0c-0.3-0.2-0.6,0.2-0.3,0.5c0.8,0.7,2,0.6,2.7-0.2c0,0,0,0,0,0
							C204,211.4,203.5,211.1,203.3,211.4L203.3,211.4z M197.4,216.8c-0.6,0.3-1.3,0.2-1.8-0.2c-0.3-0.2-0.6,0.2-0.3,0.5
							c0.8,0.6,2,0.6,2.8,0c0.1-0.1,0.1-0.3,0-0.4c0,0-0.1-0.1-0.1-0.1l-0.3-0.1C197.5,216.3,197.3,216.6,197.4,216.8L197.4,216.8z
							 M192.4,221.9c-0.6,0.4-1.3,0.3-1.7-0.3c0,0,0-0.1-0.1-0.1c-0.2-0.3-0.7-0.1-0.5,0.2c0.5,0.9,1.6,1.2,2.5,0.7
							c0.1,0,0.1-0.1,0.2-0.1C193.1,222.1,192.7,221.6,192.4,221.9L192.4,221.9z M199.6,222.9c-0.4,0.5-1.2,0.6-1.7,0.1c0,0,0,0,0,0
							c-0.3-0.2-0.7,0.1-0.4,0.4c0.7,0.7,1.8,0.7,2.5-0.1c0,0,0.1-0.1,0.1-0.1C200.3,222.9,199.9,222.6,199.6,222.9L199.6,222.9z
							 M205.8,222.9c-0.4,0.6-1.1,0.8-1.8,0.6c-0.4-0.1-0.6,0.4-0.2,0.5c0.9,0.3,1.9-0.1,2.4-0.8C206.5,222.9,206,222.6,205.8,222.9
							L205.8,222.9z"/>
					</g>
					<path class="st11" d="M199,125.8c0,0,3.4,1.2,6-0.1c0.9-0.5,1.8-1,2.7-1.6c0.2-0.1,0.2-0.4,0.1-0.5c-0.1-0.1-0.1-0.1-0.2-0.1
						l-1.1-0.2c0.9-0.7,1.7-1.5,2.3-2.4c0.5-0.7,0.8-1.2,1-1.6c0.1-0.2,0.1-0.5-0.2-0.6c-0.1-0.1-0.2-0.1-0.3-0.1h-0.4l3-3.6
						c-2.1-0.5-4.3-0.7-6.4-0.6c-1.2,0.1-2.4,0.4-3.4,1l0.3-1.4c0.1-0.3-0.1-0.5-0.4-0.6c-0.1,0-0.2,0-0.2,0
						c-1.1,0.3-3.2,1.5-5.4,5.7C193,125.4,199,125.8,199,125.8z"/>
					<path class="st28" d="M196.3,119.3c2.2-4.2,4.3-5.4,5.4-5.7c0.3-0.1,0.5,0.1,0.6,0.3c0,0.1,0,0.2,0,0.2l-0.3,1.4
						c1.1-0.6,2.2-0.9,3.4-1c2.2-0.1,4.3,0.1,6.4,0.6c0,0-9.8,3.1-16.4,8.6C195.1,122.7,195.2,121.3,196.3,119.3z"/>
					<path class="st29" d="M191.5,145.4c0.2,2.3-1.5,4.3-3.8,4.5c-2.3,0.2-4.3-1.5-4.5-3.8c-0.2-2.3,1.5-4.3,3.8-4.5c0,0,0,0,0,0
						C189.3,141.4,191.3,143.1,191.5,145.4z"/>
					<g class="st30">
						<path class="st29" d="M191.3,144.5c0.3,1.7-0.8,3.3-2.5,3.6c-1.7,0.3-3.3-0.8-3.6-2.5c-0.3-1.7,0.8-3.3,2.5-3.6
							c0.6-0.1,1.2,0,1.8,0.2c-0.7-0.4-1.6-0.6-2.5-0.6c-2.3,0.2-4,2.2-3.8,4.5c0.2,2.3,2.2,4,4.5,3.8c2.3-0.2,4-2.2,3.8-4.5
							C191.5,145.1,191.4,144.8,191.3,144.5z"/>
					</g>
					<path class="st29" d="M202,138c0.2,2.5-1.6,4.6-4.1,4.8c-2.5,0.2-4.6-1.6-4.8-4.1c-0.2-2.5,1.6-4.6,4.1-4.8
						C199.6,133.7,201.8,135.6,202,138z"/>
					<g class="st30">
						<path class="st29" d="M201.8,137c0,0.1,0,0.2,0,0.3c0.2,1.8-1.2,3.5-3,3.7c-1.8,0.2-3.5-1.2-3.7-3c-0.2-1.8,1.2-3.5,3-3.7
							c0,0,0,0,0,0c0.5,0,1.1,0,1.6,0.3c-0.8-0.5-1.7-0.7-2.6-0.6c-2.5,0.2-4.3,2.4-4,4.9c0.2,2.5,2.4,4.3,4.9,4
							c2.5-0.2,4.3-2.4,4-4.9c0,0,0,0,0,0C202,137.7,201.9,137.3,201.8,137z"/>
					</g>
					<path class="st29" d="M207,132.5c0.3,2.7-1.8,5.2-4.5,5.5c-2.7,0.3-5.2-1.8-5.5-4.5s1.8-5.2,4.5-5.5c0,0,0.1,0,0.1,0
						C204.4,127.8,206.7,129.8,207,132.5z"/>
					<g class="st30">
						<path class="st29" d="M206.8,131.4c0,0.1,0,0.2,0.1,0.4c0.2,2-1.3,3.9-3.4,4c-2,0.2-3.9-1.3-4-3.4c-0.2-2,1.3-3.9,3.4-4
							c0,0,0,0,0,0c0.6-0.1,1.2,0,1.8,0.3c-2.4-1.4-5.5-0.5-6.8,1.9c-0.5,0.9-0.7,1.8-0.6,2.8c-0.1,2.8,2,5.1,4.8,5.2
							c2.8,0.1,5.1-2,5.2-4.8c0-0.4,0-0.9-0.1-1.3C207,132.2,206.9,131.8,206.8,131.4z"/>
					</g>
					<path class="st11" d="M196.1,121.4c0,0-0.5-5.6,1.7-8.8c1.1-1.6,2.7-2.6,4.5-3c0.6-0.1,1.1,0.2,1.2,0.8l0,0
						c0.1,0.6-0.2,1.1-0.8,1.3c-1.8,0.4-3.3,1.7-4.1,3.4c-1.1,3-1.7,6.4-1.8,6.5S196.1,121.4,196.1,121.4z"/>
					<path class="st28" d="M197.4,115.2c1-2.9,4-4.4,5.9-5.2c-0.3-0.3-0.6-0.4-1-0.3c-1.8,0.4-3.5,1.4-4.5,3
						c-2.2,3.2-1.7,8.8-1.7,8.8s0.2,0.1,0.4,0.2C196.3,119.5,196.6,117.2,197.4,115.2z"/>
					<path class="st29" d="M195,120c0.2,2.3-1.5,4.3-3.8,4.5s-4.3-1.5-4.5-3.8s1.5-4.3,3.8-4.5c0,0,0,0,0,0
						C192.8,116,194.8,117.7,195,120z"/>
					<g class="st30">
						<path class="st29" d="M194.8,119.1c0,0.1,0,0.2,0,0.3c0.1,1.7-1.1,3.2-2.8,3.4c-1.7,0.1-3.2-1.1-3.4-2.8
							c-0.1-1.7,1.1-3.2,2.8-3.4c0.5,0,1,0,1.5,0.2c-2-1.2-4.5-0.5-5.7,1.5c-0.4,0.7-0.6,1.6-0.5,2.4c0.1,2.3,2,4.1,4.3,4
							s4.1-2,4-4.3C194.9,119.9,194.8,119.5,194.8,119.1L194.8,119.1z"/>
					</g>
					<path class="st29" d="M200.8,122.5c0.2,2.3-1.5,4.3-3.8,4.5s-4.3-1.5-4.5-3.8s1.5-4.3,3.8-4.5c0,0,0,0,0,0
						C198.6,118.5,200.6,120.2,200.8,122.5z"/>
					<g class="st30">
						<path class="st29" d="M200.6,121.5c0,0.1,0,0.2,0,0.3c0.1,1.7-1.1,3.2-2.8,3.3c-1.7,0.1-3.2-1.1-3.3-2.8
							c-0.1-1.7,1.1-3.2,2.8-3.3c0.5,0,1,0,1.4,0.2c-2-1.1-4.5-0.4-5.6,1.6s-0.4,4.5,1.6,5.6c0.7,0.4,1.5,0.6,2.4,0.5
							c2.3-0.2,4-2.2,3.8-4.4C200.7,122.2,200.7,121.9,200.6,121.5L200.6,121.5z"/>
					</g>
					<path class="st29" d="M206,124.8c0.2,2.3-1.5,4.3-3.8,4.5c-2.3,0.2-4.3-1.5-4.5-3.8s1.5-4.3,3.8-4.5c0,0,0,0,0,0
						C203.8,120.8,205.8,122.5,206,124.8z"/>
					<g class="st30">
						<path class="st29" d="M205.8,123.8c0,0.1,0,0.2,0,0.3c0.2,1.7-1.1,3.2-2.8,3.4c-1.7,0.2-3.2-1.1-3.4-2.8
							c-0.2-1.7,1.1-3.2,2.8-3.4c0,0,0,0,0,0c0.5,0,1,0,1.5,0.2c-0.7-0.4-1.6-0.6-2.4-0.6c-2.3,0.2-4,2.2-3.8,4.5
							c0.2,2.3,2.2,4,4.5,3.8s4-2.2,3.8-4.5C206,124.5,205.9,124.1,205.8,123.8L205.8,123.8z"/>
					</g>
					<path class="st29" d="M189.6,139.4c0.2,2.3-1.5,4.3-3.8,4.5s-4.3-1.5-4.5-3.8c-0.2-2.3,1.5-4.3,3.8-4.5
						C187.4,135.4,189.4,137.1,189.6,139.4C189.6,139.4,189.6,139.4,189.6,139.4z"/>
					<g class="st30">
						<path class="st29" d="M189.4,138.4c0,0.1,0,0.2,0.1,0.3c0.2,1.7-1.1,3.2-2.8,3.4s-3.2-1.1-3.4-2.8s1.1-3.2,2.8-3.4
							c0,0,0,0,0,0c0.5,0,1,0,1.5,0.2c-0.7-0.4-1.6-0.6-2.5-0.6c-2.3,0.2-4,2.2-3.8,4.5c0.2,2.3,2.2,4,4.5,3.8
							c2.3-0.2,4-2.2,3.8-4.5C189.6,139.1,189.5,138.7,189.4,138.4z"/>
					</g>
					<circle class="st29" cx="192.4" cy="142.3" r="4.1"/>
					<g class="st30">
						<path class="st29" d="M196.4,141c0.3,1.7-0.8,3.3-2.5,3.6c-1.7,0.3-3.3-0.8-3.6-2.5c-0.3-1.7,0.8-3.3,2.5-3.6
							c0.1,0,0.2,0,0.3,0c0.5,0,1,0,1.5,0.2c-2-1.2-4.5-0.5-5.7,1.4c-1.2,2-0.5,4.5,1.4,5.7s4.5,0.5,5.7-1.4
							c0.4-0.7,0.6-1.6,0.6-2.5C196.5,141.6,196.5,141.3,196.4,141z"/>
					</g>
					<path class="st29" d="M189,132.5c0.2,2.5-1.6,4.6-4.1,4.8c-2.5,0.2-4.6-1.6-4.8-4.1c-0.2-2.5,1.6-4.6,4.1-4.8
						C186.6,128.2,188.8,130,189,132.5C189,132.5,189,132.5,189,132.5z"/>
					<g class="st30">
						<path class="st29" d="M188.8,131.5c0,0.1,0,0.2,0,0.3c0.2,1.8-1.2,3.5-3,3.7c-1.8,0.2-3.5-1.2-3.7-3c-0.2-1.8,1.2-3.5,3-3.7
							c0,0,0,0,0,0c0.5,0,1.1,0,1.6,0.2c-2.1-1.2-4.9-0.5-6.1,1.6s-0.5,4.9,1.6,6.1c2.1,1.2,4.9,0.5,6.1-1.6
							c0.5-0.8,0.7-1.7,0.6-2.6C189,132.2,188.9,131.8,188.8,131.5z"/>
					</g>
					<path class="st29" d="M195.6,135.4c0.2,2.5-1.6,4.6-4.1,4.8c-2.5,0.2-4.6-1.6-4.8-4.1c-0.2-2.5,1.6-4.6,4.1-4.8
						C193.2,131.2,195.4,133,195.6,135.4C195.6,135.4,195.6,135.4,195.6,135.4z"/>
					<g class="st30">
						<path class="st29" d="M195.4,134.4c0,0.1,0,0.2,0,0.3c0.2,1.8-1.2,3.5-3.1,3.6c-1.8,0.2-3.5-1.2-3.6-3.1
							c-0.2-1.8,1.2-3.5,3.1-3.6c0.6,0,1.1,0,1.6,0.3c-0.8-0.5-1.7-0.7-2.6-0.6c-2.5,0.2-4.3,2.4-4.1,4.8c0.2,2.5,2.4,4.3,4.8,4.1
							c2.5-0.2,4.3-2.4,4.1-4.8C195.5,135.1,195.5,134.8,195.4,134.4z"/>
					</g>
					<path class="st29" d="M202.6,130.6c0.3,2.7-1.8,5.2-4.5,5.5c-2.7,0.3-5.2-1.8-5.5-4.5c-0.3-2.7,1.8-5.2,4.5-5.5
						c0,0,0.1,0,0.1,0C199.9,125.8,202.3,127.8,202.6,130.6z"/>
					<g class="st30">
						<path class="st29" d="M202.4,129.4c0,0.1,0,0.2,0.1,0.4c0.2,2-1.3,3.9-3.4,4c-2,0.2-3.9-1.3-4-3.4c-0.2-2,1.3-3.9,3.4-4
							c0,0,0,0,0,0c0.6-0.1,1.2,0,1.8,0.3c-2.4-1.4-5.4-0.6-6.9,1.8c-1.4,2.4-0.6,5.4,1.8,6.9c2.4,1.4,5.4,0.6,6.9-1.8
							c0.5-0.9,0.8-2,0.7-3C202.6,130.2,202.5,129.8,202.4,129.4z"/>
					</g>
					<circle class="st29" cx="185.6" cy="125.2" r="5"/>
					<g class="st30">
						<path class="st29" d="M190.3,123.6c0,0.1,0,0.2,0.1,0.4c0.2,2-1.3,3.9-3.4,4c-2,0.2-3.9-1.3-4-3.4c-0.2-2,1.3-3.9,3.4-4
							c0,0,0,0,0,0c0.6-0.1,1.2,0,1.8,0.3c-2.4-1.4-5.4-0.6-6.9,1.8s-0.6,5.4,1.8,6.9c2.4,1.4,5.4,0.6,6.9-1.8c0.5-0.9,0.8-2,0.7-3
							C190.5,124.4,190.4,124,190.3,123.6z"/>
					</g>
					<path class="st29" d="M197,127.9c0.3,2.7-1.8,5.2-4.5,5.5c-2.7,0.3-5.2-1.8-5.5-4.5c-0.3-2.7,1.8-5.2,4.5-5.5c0,0,0.1,0,0.1,0
						C194.4,123.2,196.7,125.2,197,127.9z"/>
					<g class="st30">
						<path class="st29" d="M196.8,126.8c0,0.1,0,0.3,0.1,0.4c0.2,2-1.3,3.9-3.4,4c-2,0.2-3.9-1.3-4-3.4c-0.2-2,1.3-3.9,3.4-4
							c0,0,0,0,0,0c0.6-0.1,1.2,0,1.8,0.3c-2.4-1.4-5.4-0.6-6.9,1.8c-1.4,2.4-0.6,5.4,1.8,6.9s5.4,0.6,6.9-1.8c0.5-0.9,0.8-2,0.7-3
							C197,127.5,196.9,127.2,196.8,126.8z"/>
					</g>
					<g class="st31">
						<path class="st6" d="M193.8,119c-0.1,0.4-0.6,0.2-0.6-0.1c0-0.3-0.1-0.6-0.3-0.8l-0.2-0.1c0,0-0.1,0-0.1,0l-0.2-0.1l0,0h-0.1
							c-0.1-0.1-0.2-0.3-0.1-0.4c0.1-0.1,0.2-0.1,0.3-0.1h0.1c0.3,0,0.6,0.2,0.7,0.4l0,0C193.8,118.1,193.9,118.6,193.8,119z
							 M198.7,119.8c-0.8-0.2-1.6,0-2.2,0.6c-0.3,0.2,0.1,0.6,0.4,0.4c0.4-0.4,1.1-0.6,1.7-0.4C198.9,120.5,199.1,120,198.7,119.8
							L198.7,119.8z M202.9,121.8c-0.9,0.1-1.7,0.8-1.9,1.7c0,0.2,0.1,0.3,0.2,0.3c0.2,0,0.3-0.1,0.3-0.2l0,0
							c0.1-0.7,0.7-1.2,1.4-1.3C203.2,122.4,203.2,121.9,202.9,121.8L202.9,121.8z M199.9,127c-0.3-0.2-0.6,0.3-0.3,0.5
							c0.5,0.3,0.8,1,0.8,1.6c0,0.4,0.5,0.5,0.6,0.1C201,128.4,200.6,127.6,199.9,127L199.9,127z M194.9,125.8
							c-1.1-0.5-2.4-0.4-3.2,0.4c-0.3,0.2,0.1,0.6,0.4,0.4c0.7-0.6,1.7-0.7,2.6-0.3c0.2,0,0.3-0.1,0.3-0.3
							C194.9,126,194.9,125.9,194.9,125.8L194.9,125.8z M186.5,121.5c-1.2,0.3-1.9,1.5-1.7,2.7c0.1,0.4,0.6,0.2,0.5-0.2
							c-0.2-0.9,0.4-1.8,1.3-2C187,122,186.8,121.5,186.5,121.5L186.5,121.5z M205.4,130c-0.3-0.2-0.6,0.2-0.4,0.4
							c0.3,0.3,0.5,0.8,0.3,1.2c-0.1,0.4,0.4,0.5,0.6,0.1C206,131.2,205.8,130.5,205.4,130L205.4,130z M197.9,139.2
							c-0.7-0.2-1.1-1-0.9-1.7c0,0,0,0,0,0c0.1-0.3-0.4-0.5-0.6-0.1c-0.3,1,0.2,2.1,1.3,2.4c0,0,0,0,0,0
							C198.2,140,198.3,139.4,197.9,139.2L197.9,139.2z M190.6,135.9c-0.5-0.4-0.7-1.1-0.5-1.7c0.1-0.4-0.5-0.5-0.6-0.1
							c-0.3,1,0.2,2.1,1.1,2.5c0.1,0.1,0.3,0,0.4-0.1c0,0,0-0.1,0-0.1v-0.3c-0.1-0.1-0.2-0.2-0.3-0.2
							C190.7,135.9,190.6,136,190.6,135.9L190.6,135.9z M184,133.4c-0.6-0.3-0.8-1.1-0.4-1.7c0,0,0-0.1,0.1-0.1
							c0.2-0.3-0.2-0.7-0.4-0.4c-0.6,0.8-0.5,1.9,0.3,2.5c0.1,0.1,0.1,0.1,0.2,0.1C184,134.1,184.3,133.6,184,133.4z M185.9,140.4
							c-0.6-0.2-1-0.9-0.8-1.5c0,0,0,0,0,0c0.1-0.3-0.4-0.6-0.5-0.3c-0.3,0.9,0.1,1.9,1,2.3c0,0,0.1,0,0.1,0
							C186.1,141.1,186.2,140.6,185.9,140.4L185.9,140.4z M188.3,146c-0.7-0.2-1.2-0.7-1.3-1.4c0-0.4-0.6-0.3-0.6,0
							c0.1,0.9,0.8,1.7,1.7,1.9c0.1,0,0.2-0.2,0.2-0.4C188.3,146.2,188.3,146.1,188.3,146L188.3,146z"/>
					</g>
					<path class="st11" d="M87.9,3.7c1.3-0.3,2.5-1,3.3-2c0.4-0.6,0.7-1.2,1-1.8c0-0.1,0-0.3-0.1-0.3c-0.1,0-0.1,0-0.2,0l-0.7,0.2
						c0.3-0.7,0.5-1.4,0.5-2.1c0-0.5,0-0.9,0-1.2c0-0.2-0.2-0.3-0.3-0.3c-0.1,0-0.1,0-0.2,0.1L91-3.6l0.5-3
						c-1.3,0.4-2.6,1.1-3.8,1.8c-0.6,0.5-1.2,1-1.6,1.7l-0.3-0.9c-0.1-0.2-0.2-0.3-0.4-0.2c0,0-0.1,0-0.1,0.1
						c-0.5,0.5-1.2,1.9-1.1,5C84.5,5.4,87.9,3.7,87.9,3.7z"/>
					<path class="st28" d="M84.3,1c-0.1-3.1,0.6-4.4,1.1-5c0.1-0.1,0.3-0.1,0.5,0c0,0,0.1,0.1,0.1,0.1L86.2-3
						c0.4-0.7,0.9-1.3,1.6-1.7c1.2-0.8,2.4-1.4,3.8-1.8c0,0-4.4,5-6.2,10.2C84.6,3,84.2,2,84.3,1z"/>
					<path class="st29" d="M90.3,17c0.9,1.2,0.6,2.9-0.6,3.7c-1.2,0.9-2.9,0.6-3.7-0.6c-0.9-1.2-0.6-2.9,0.6-3.7
						C87.7,15.5,89.4,15.8,90.3,17z"/>
					<g class="st30">
						<path class="st29" d="M89.9,16.6c0,0,0.1,0.1,0.1,0.2c0.6,0.9,0.4,2.1-0.5,2.8c-0.9,0.6-2.1,0.4-2.8-0.5
							c-0.6-0.9-0.4-2.1,0.5-2.8c0.3-0.2,0.6-0.3,0.9-0.4c-0.6,0-1.1,0.2-1.6,0.5c-1.2,0.9-1.5,2.5-0.6,3.7c0.9,1.2,2.5,1.5,3.7,0.6
							c1.2-0.9,1.5-2.5,0.6-3.7C90.2,16.9,90,16.7,89.9,16.6z"/>
					</g>
					<path class="st29" d="M93.6,9.4c0.9,1.3,0.6,3.1-0.6,4c-1.3,0.9-3.1,0.6-4-0.6s-0.6-3.1,0.6-4c0,0,0,0,0,0
						C90.9,7.9,92.7,8.1,93.6,9.4z"/>
					<g class="st30">
						<path class="st29" d="M93.2,8.9C93.2,9,93.3,9,93.3,9.1c0.7,1,0.5,2.3-0.5,3s-2.3,0.5-3-0.5c-0.7-1-0.5-2.3,0.5-3c0,0,0,0,0,0
							c0.3-0.2,0.6-0.3,1-0.4c-0.6,0-1.2,0.2-1.7,0.5c-1.3,0.9-1.6,2.7-0.7,4s2.7,1.6,4,0.7s1.6-2.7,0.7-4c0,0,0,0,0,0
							C93.5,9.2,93.4,9.1,93.2,8.9z"/>
					</g>
					<path class="st29" d="M94.6,4.8c1,1.4,0.7,3.4-0.8,4.5s-3.4,0.7-4.5-0.8C88.4,7,88.7,5,90.1,4C91.6,3,93.6,3.3,94.6,4.8
						C94.6,4.8,94.6,4.8,94.6,4.8z"/>
					<g class="st30">
						<path class="st29" d="M94.1,4.2c0.1,0.1,0.1,0.1,0.2,0.2C95,5.5,94.8,7,93.7,7.8c-1.1,0.8-2.6,0.5-3.4-0.5s-0.5-2.6,0.5-3.4
							c0,0,0,0,0,0c0.3-0.2,0.7-0.4,1.1-0.4c-1.8,0-3.2,1.5-3.2,3.2s1.5,3.2,3.2,3.2s3.2-1.5,3.2-3.2c0-0.7-0.2-1.3-0.6-1.8
							C94.5,4.6,94.3,4.4,94.1,4.2z"/>
					</g>
					<path class="st11" d="M84.9,2.2c0,0-2.1-2.9-2-5.4c0.1-1.2,0.6-2.3,1.5-3.1c0.3-0.3,0.7-0.3,1,0c0,0,0,0,0,0l0,0
						c0.3,0.3,0.3,0.7,0,1c0,0,0,0,0,0c-0.9,0.8-1.3,2-1.2,3.2c0.4,2,1.2,4.1,1.2,4.2S84.9,2.2,84.9,2.2z"/>
					<path class="st28" d="M83.5-1.7c-0.2-1.8,0.4-3.5,1.6-4.8c-0.2-0.1-0.5,0-0.6,0.2c-0.9,0.8-1.5,1.9-1.5,3.2
						c-0.2,2.5,2,5.4,2,5.4c0.1,0,0.2,0,0.3,0C84.4,1.1,83.8-0.3,83.5-1.7z"/>
					<path class="st29" d="M83.8,1.8c0.9,1.2,0.6,2.9-0.6,3.7c-1.2,0.9-2.9,0.6-3.7-0.6c-0.9-1.2-0.6-2.9,0.6-3.7
						C81.3,0.3,82.9,0.6,83.8,1.8C83.8,1.8,83.8,1.8,83.8,1.8z"/>
					<g class="st30">
						<path class="st29" d="M83.4,1.3c0,0,0.1,0.1,0.1,0.2c0.6,0.9,0.4,2.2-0.5,2.8c-0.9,0.6-2.2,0.4-2.8-0.5
							c-0.6-0.9-0.4-2.1,0.5-2.8c0.3-0.2,0.6-0.3,0.9-0.4c-0.6,0-1.1,0.2-1.5,0.5c-1.2,0.9-1.5,2.5-0.6,3.7s2.5,1.5,3.7,0.6
							c1.2-0.9,1.5-2.5,0.6-3.7C83.7,1.6,83.5,1.5,83.4,1.3z"/>
					</g>
					<path class="st29" d="M87.8,1.2c0.9,1.2,0.6,2.9-0.6,3.7s-2.9,0.6-3.7-0.6c-0.9-1.2-0.6-2.9,0.6-3.7C85.3-0.2,87,0,87.8,1.2
						C87.8,1.2,87.8,1.2,87.8,1.2z"/>
					<g class="st30">
						<path class="st29" d="M87.4,0.8l0.1,0.2c0.6,0.9,0.4,2.1-0.5,2.8s-2.1,0.4-2.8-0.5s-0.4-2.1,0.5-2.8c0.3-0.2,0.6-0.3,0.9-0.4
							c-0.6,0-1.1,0.2-1.5,0.5c-1.2,0.9-1.5,2.5-0.6,3.7C84.4,5.6,86,5.8,87.2,5c1.2-0.9,1.5-2.5,0.6-3.7
							C87.7,1.1,87.6,0.9,87.4,0.8z"/>
					</g>
					<path class="st29" d="M91.5,0.8c0.9,1.2,0.6,2.9-0.6,3.7c-1.2,0.9-2.9,0.6-3.7-0.6c-0.9-1.2-0.6-2.9,0.6-3.7
						C89-0.7,90.6-0.4,91.5,0.8z"/>
					<g class="st30">
						<path class="st29" d="M91.1,0.3c0,0,0.1,0.1,0.1,0.2c0.5,1,0.2,2.2-0.8,2.7c-0.8,0.5-1.8,0.3-2.4-0.4
							c-0.7-0.9-0.5-2.1,0.4-2.8c0.3-0.2,0.6-0.3,0.9-0.4c-0.6,0-1.1,0.2-1.6,0.5c-1.2,0.9-1.5,2.5-0.6,3.7s2.5,1.5,3.7,0.6
							c1.2-0.9,1.5-2.5,0.6-3.7C91.4,0.6,91.2,0.4,91.1,0.3z"/>
					</g>
					<path class="st29" d="M87.2,14.3c0.9,1.2,0.6,2.9-0.6,3.7c-1.2,0.9-2.9,0.6-3.7-0.6c-0.9-1.2-0.6-2.9,0.6-3.7c0,0,0,0,0,0
						C84.7,12.8,86.4,13.1,87.2,14.3z"/>
					<g class="st30">
						<path class="st29" d="M86.8,13.9c0,0,0.1,0.1,0.1,0.2c0.6,0.9,0.4,2.1-0.5,2.8c-0.9,0.6-2.1,0.4-2.8-0.5
							c-0.6-0.9-0.4-2.1,0.5-2.8c0.3-0.2,0.6-0.3,0.9-0.4c-0.6,0-1.1,0.2-1.6,0.5c-1.2,0.9-1.5,2.5-0.6,3.7c0.9,1.2,2.5,1.5,3.7,0.6
							c1.2-0.9,1.5-2.5,0.6-3.7c0,0,0,0,0,0C87.1,14.1,87,14,86.8,13.9z"/>
					</g>
					<path class="st29" d="M91.9,13.4c0.9,1.2,0.6,2.9-0.6,3.7s-2.9,0.6-3.7-0.6s-0.6-2.9,0.6-3.7c0,0,0,0,0,0
						C89.4,12,91.1,12.2,91.9,13.4C91.9,13.4,91.9,13.4,91.9,13.4z"/>
					<g class="st30">
						<path class="st29" d="M91.5,13c0,0.1,0.1,0.1,0.1,0.2c0.6,0.9,0.4,2.1-0.5,2.8c-0.9,0.6-2.1,0.4-2.8-0.5
							c-0.6-0.9-0.4-2.1,0.4-2.8c0.3-0.2,0.6-0.3,0.9-0.4c-0.6,0-1.1,0.2-1.6,0.5c-1.2,0.9-1.5,2.5-0.6,3.7c0.9,1.2,2.5,1.5,3.7,0.6
							c1.2-0.9,1.5-2.5,0.6-3.7c0,0,0,0,0,0C91.8,13.3,91.7,13.1,91.5,13z"/>
					</g>
					<circle class="st29" cx="82.3" cy="12.4" r="2.9"/>
					<g class="st30">
						<path class="st29" d="M84.2,10.2c0.1,0.1,0.1,0.1,0.1,0.2c0.7,1,0.5,2.3-0.5,3s-2.3,0.5-3-0.5c-0.7-1-0.5-2.3,0.5-3
							c0,0,0,0,0,0c0.3-0.2,0.6-0.3,1-0.4c-1.6,0-2.9,1.3-2.9,2.9c0,1.6,1.3,2.9,2.9,2.9c1.6,0,2.9-1.3,2.9-2.9
							c0-0.6-0.2-1.2-0.5-1.7C84.5,10.5,84.3,10.3,84.2,10.2z"/>
					</g>
					<circle class="st29" cx="86.9" cy="11.8" r="2.9"/>
					<g class="st30">
						<path class="st29" d="M88.8,9.7c0,0.1,0.1,0.1,0.1,0.2c0.7,1,0.5,2.3-0.5,3c-1,0.7-2.3,0.5-3-0.5l0,0c-0.7-1-0.5-2.3,0.5-3
							c0.3-0.2,0.6-0.3,1-0.4c-1.6,0-2.9,1.3-2.9,2.9c0,1.6,1.3,2.9,2.9,2.9c1.6,0,2.9-1.3,2.9-2.9c0-0.6-0.2-1.2-0.5-1.7
							C89.1,10,89,9.8,88.8,9.7z"/>
					</g>
					<path class="st29" d="M91.5,5.1c1,1.4,0.7,3.4-0.8,4.5s-3.4,0.7-4.5-0.8c-1-1.4-0.7-3.4,0.7-4.4C88.4,3.4,90.4,3.7,91.5,5.1
						C91.5,5.1,91.5,5.1,91.5,5.1z"/>
					<g class="st30">
						<path class="st29" d="M91,4.6l0.2,0.2c0.8,1.1,0.5,2.6-0.6,3.3S88,8.7,87.3,7.6c-0.8-1.1-0.5-2.6,0.5-3.3
							c0.3-0.2,0.7-0.4,1.1-0.4c-1.8,0-3.2,1.5-3.2,3.2s1.5,3.2,3.2,3.2s3.2-1.5,3.2-3.2c0-0.7-0.2-1.3-0.6-1.8
							C91.4,4.9,91.2,4.7,91,4.6z"/>
					</g>
					<path class="st29" d="M82.9,5.9c1,1.4,0.7,3.4-0.7,4.5s-3.4,0.7-4.5-0.7c-1-1.4-0.7-3.4,0.7-4.5C79.9,4.1,81.9,4.5,82.9,5.9
						C82.9,5.9,82.9,5.9,82.9,5.9z"/>
					<g class="st30">
						<path class="st29" d="M82.4,5.3l0.2,0.2c0.8,1.1,0.5,2.6-0.6,3.3s-2.6,0.5-3.3-0.6c-0.8-1.1-0.5-2.6,0.5-3.3
							c0.3-0.2,0.7-0.4,1.1-0.4c-0.7,0-1.3,0.2-1.8,0.6c-1.4,1-1.8,3-0.7,4.5s3,1.8,4.5,0.7c1.4-1,1.8-3,0.7-4.5c0,0,0,0,0,0
							C82.7,5.7,82.6,5.5,82.4,5.3z"/>
					</g>
					<path class="st29" d="M87.6,5.5c1,1.4,0.7,3.4-0.7,4.5s-3.4,0.7-4.5-0.7c-1-1.4-0.7-3.4,0.7-4.5C84.5,3.8,86.5,4.1,87.6,5.5z"
						/>
					<g class="st30">
						<path class="st29" d="M87,5c0.1,0.1,0.1,0.1,0.2,0.2c0.8,1.1,0.5,2.6-0.6,3.3S84,9.1,83.3,8c-0.8-1.1-0.5-2.6,0.5-3.3
							c0.3-0.2,0.7-0.4,1.1-0.4c-0.7,0-1.3,0.2-1.8,0.6c-1.4,1-1.8,3-0.7,4.5c1,1.4,3,1.8,4.5,0.7c1.4-1,1.8-3,0.7-4.5
							C87.4,5.3,87.2,5.2,87,5z"/>
					</g>
					<g class="st31">
						<path class="st6" d="M82.8,1.6c0.1,0.2-0.3,0.3-0.3,0.1c-0.1-0.2-0.3-0.3-0.5-0.4h-0.1h-0.1h-0.2c-0.1,0-0.2-0.1-0.2-0.1
							c0,0,0,0,0,0c0-0.1,0-0.2,0.1-0.2c0,0,0,0,0,0h0.1c0.2-0.1,0.4-0.1,0.5,0l0,0C82.5,1.1,82.7,1.3,82.8,1.6z M85.8,0.5
							c-0.5,0.1-0.9,0.5-1,1c-0.1,0.2,0.3,0.3,0.3,0.1c0.1-0.4,0.4-0.7,0.8-0.8C86.2,0.8,86.1,0.4,85.8,0.5L85.8,0.5z M88.8,0.2
							c-0.5,0.4-0.7,1-0.5,1.6c0.1,0.2,0.4,0.1,0.3-0.1c-0.2-0.4,0-0.9,0.3-1.2C89.2,0.4,89,0.1,88.8,0.2L88.8,0.2z M88.9,4.1
							c-0.2,0-0.2,0.4,0,0.4c0.4,0,0.8,0.2,0.9,0.6c0.1,0.2,0.4,0.1,0.3-0.1C90,4.5,89.5,4.1,88.9,4.1L88.9,4.1z M85.7,5.1
							c-0.8,0-1.5,0.5-1.7,1.3c-0.1,0.2,0.3,0.3,0.4,0.1c0.2-0.6,0.7-1,1.3-1C85.9,5.4,85.9,5.1,85.7,5.1L85.7,5.1z M79.6,5.5
							c-0.5,0.6-0.5,1.4,0,2c0.2,0.2,0.4-0.1,0.2-0.3c-0.4-0.4-0.4-1.1,0.1-1.5C80,5.5,79.8,5.3,79.6,5.5L79.6,5.5z M92.9,4
							c-0.1,0-0.2,0-0.2,0.1c0,0.1,0,0.2,0.1,0.2l0,0c0.3,0.1,0.5,0.3,0.6,0.6c0.1,0.2,0.4,0.1,0.3-0.1C93.7,4.4,93.3,4.1,92.9,4z
							 M91.8,11.6c-0.5,0.1-1-0.2-1.1-0.7c0,0,0,0,0,0c0-0.2-0.4-0.1-0.3,0.1c0.2,0.7,0.8,1.1,1.5,0.9c0,0,0,0,0,0
							C92.2,11.8,92.1,11.5,91.8,11.6L91.8,11.6z M86.7,12.2c-0.4-0.1-0.7-0.4-0.8-0.8c-0.1-0.2-0.4-0.1-0.3,0.1
							c0.2,0.6,0.8,1,1.5,1c0.1,0,0.2-0.1,0.2-0.2c0,0,0,0,0-0.1L87,12c0-0.1-0.1-0.1-0.2-0.1C86.7,11.9,86.6,12,86.7,12.2
							L86.7,12.2z M82.1,12.9c-0.4,0-0.8-0.4-0.8-0.8c0,0,0,0,0-0.1c0-0.2-0.3-0.3-0.3-0.1c-0.1,0.6,0.4,1.2,1,1.3
							c0.1,0,0.1,0,0.2,0c0.1,0,0.2-0.1,0.2-0.2C82.3,12.9,82.3,12.9,82.1,12.9L82.1,12.9z M85.5,16.2c-0.4,0.1-0.8-0.2-0.9-0.6
							c0-0.2-0.4-0.2-0.4,0c0.1,0.6,0.7,1,1.3,0.9c0,0,0.1,0,0.1,0C85.9,16.4,85.7,16.1,85.5,16.2L85.5,16.2z M88.7,18.5
							c-0.4,0.1-0.9,0-1.2-0.4c-0.2-0.2-0.4,0-0.3,0.2c0.4,0.5,1,0.7,1.6,0.5c0.1,0,0.2-0.1,0.1-0.3C88.9,18.5,88.8,18.4,88.7,18.5
							L88.7,18.5L88.7,18.5z"/>
					</g>
					<path class="st11" d="M144.9-1.9c0.8-1.2,1.2-2.7,1-4.1c-0.2-0.7-0.4-1.4-0.7-2.1c-0.1-0.1-0.2-0.2-0.3-0.1
						c-0.1,0-0.1,0.1-0.1,0.1l-0.4,0.7c-0.3-0.7-0.7-1.4-1.3-2c-0.4-0.4-0.7-0.8-0.9-1c-0.1-0.1-0.3-0.1-0.4,0
						c-0.1,0.1-0.1,0.1-0.1,0.2v0.3l-1.9-2.7c-0.7,1.4-1.2,2.8-1.5,4.3c-0.2,0.8-0.1,1.7,0.1,2.5l-0.9-0.5c-0.2-0.1-0.4,0-0.5,0.2
						c0,0,0,0.1,0,0.2c0.1,0.8,0.5,2.4,3,4.7C143.5,2.1,144.9-1.9,144.9-1.9z"/>
					<path class="st28" d="M139.9-1.2c-2.5-2.3-2.9-3.9-3-4.7c0-0.2,0.2-0.4,0.3-0.4c0.1,0,0.1,0,0.2,0l0.9,0.5
						c-0.2-0.8-0.3-1.7-0.1-2.5c0.3-1.5,0.8-3,1.5-4.3c0,0,0.4,7.3,3.1,12.7C142.1,0.2,141.1-0.1,139.9-1.2z"/>
					<path class="st29" d="M157,6.6c1.6,0.2,2.7,1.7,2.5,3.4s-1.7,2.7-3.4,2.5c-1.6-0.2-2.7-1.7-2.5-3.4c0,0,0,0,0,0
						C153.9,7.4,155.4,6.3,157,6.6C157,6.5,157,6.5,157,6.6z"/>
					<g class="st30">
						<path class="st29" d="M156.3,6.5h0.2c1.2,0.2,2,1.3,1.8,2.5c-0.2,1.2-1.3,2-2.5,1.8c-1.2-0.2-2-1.3-1.8-2.5
							c0.1-0.4,0.2-0.7,0.4-1c-1.1,1.1-1.1,3,0,4.1s3,1.1,4.1,0s1.1-3,0-4.1c-0.4-0.4-1-0.7-1.6-0.8C156.8,6.5,156.6,6.5,156.3,6.5z
							"/>
					</g>
					<path class="st29" d="M153.7-1.9c1.7,0.3,2.9,1.9,2.6,3.6c-0.3,1.7-1.9,2.9-3.6,2.6c-1.7-0.3-2.9-1.9-2.6-3.6
						C150.4-1,152-2.2,153.7-1.9C153.7-1.9,153.7-1.9,153.7-1.9z"/>
					<g class="st30">
						<path class="st29" d="M153-2h0.2c1.3,0.2,2.2,1.4,2,2.7c0,0,0,0,0,0c-0.2,1.3-1.4,2.2-2.7,2c-1.3-0.2-2.2-1.4-2-2.7
							c0,0,0,0,0,0c0.1-0.4,0.3-0.7,0.5-1c-0.5,0.5-0.8,1-0.9,1.7c-0.3,1.7,0.9,3.3,2.6,3.6c1.7,0.3,3.3-0.9,3.6-2.6c0,0,0,0,0,0
							c0.3-1.7-0.9-3.3-2.6-3.6c0,0,0,0,0,0C153.5-2,153.2-2,153-2z"/>
					</g>
					<path class="st29" d="M150.8-6.3c1.9,0.3,3.2,2.1,2.9,4c-0.3,1.9-2.1,3.2-4,2.9c0,0,0,0,0,0c-1.9-0.3-3.2-2.1-2.9-4
						C147.1-5.3,148.9-6.6,150.8-6.3z"/>
					<g class="st30">
						<path class="st29" d="M150-6.3h0.3c1.4,0.2,2.4,1.6,2.2,3c-0.2,1.4-1.6,2.4-3,2.2c-1.4-0.2-2.4-1.6-2.2-3c0,0,0,0,0,0
							c0.1-0.4,0.2-0.8,0.5-1.2c-0.5,0.5-0.9,1.2-1,1.9c-0.3,1.9,1,3.7,2.9,4c1.9,0.3,3.7-1,4-2.9c0,0,0,0,0,0c0.3-1.9-1-3.7-2.9-4
							C150.5-6.3,150.3-6.3,150-6.3z"/>
					</g>
					<path class="st11" d="M141.3-0.7c0,0-3.9-0.6-5.7-2.7c-0.9-1-1.3-2.3-1.3-3.6c0-0.4,0.4-0.7,0.8-0.7l0,0c0.4,0,0.7,0.3,0.8,0.7
						c0,1.3,0.6,2.6,1.6,3.4c1.9,1.3,4.1,2.2,4.2,2.4S141.3-0.7,141.3-0.7z"/>
					<path class="st28" d="M137.3-2.7c-1.8-1.2-2.4-3.5-2.5-5c-0.2,0.1-0.4,0.4-0.4,0.6c-0.1,1.3,0.4,2.6,1.3,3.6
						c1.8,2,5.7,2.7,5.7,2.7c0.1-0.1,0.2-0.2,0.2-0.3C140-1.3,138.6-1.8,137.3-2.7z"/>
					<path class="st29" d="M140.2-0.2c1.6,0.3,2.7,1.8,2.4,3.4s-1.8,2.7-3.4,2.4s-2.7-1.8-2.4-3.4c0,0,0,0,0,0
						C137.1,0.6,138.6-0.5,140.2-0.2z"/>
					<g class="st30">
						<path class="st29" d="M139.5-0.2h0.2c1.2,0.2,2,1.3,1.8,2.5c-0.2,1.2-1.3,2-2.5,1.8c-1.2-0.2-2-1.3-1.8-2.5
							c0.1-0.3,0.2-0.7,0.4-0.9c-1.1,1.2-1.1,3,0,4.1s3,1.1,4.1,0c1.1-1.2,1.1-3,0-4.1c-0.4-0.4-1-0.7-1.6-0.8
							C139.9-0.2,139.7-0.2,139.5-0.2z"/>
					</g>
					<path class="st29" d="M142.9-3.8c1.6,0.3,2.7,1.8,2.4,3.3C145,1.2,143.6,2.2,142,2c-1.6-0.3-2.7-1.8-2.4-3.3
						C139.8-2.9,141.3-4,142.9-3.8z"/>
					<g class="st30">
						<path class="st29" d="M142.2-3.8h0.2c1.2,0.2,2,1.3,1.8,2.5c0,0,0,0,0,0c-0.2,1.2-1.3,2-2.5,1.8c0,0,0,0,0,0
							c-1.2-0.2-2-1.3-1.8-2.5c0,0,0,0,0,0c0.1-0.4,0.2-0.7,0.4-1c-0.4,0.4-0.7,1-0.8,1.6c-0.2,1.6,0.8,3.1,2.4,3.3c0,0,0,0,0,0
							c1.6,0.2,3-0.8,3.3-2.4c0.3-1.6-0.8-3.1-2.4-3.3C142.7-3.8,142.4-3.8,142.2-3.8z"/>
					</g>
					<path class="st29" d="M145.3-7c1.6,0.3,2.7,1.8,2.4,3.3c-0.3,1.6-1.8,2.7-3.4,2.4c-1.6-0.3-2.6-1.7-2.4-3.3
						C142.2-6.1,143.7-7.2,145.3-7C145.3-7,145.3-7,145.3-7z"/>
					<g class="st30">
						<path class="st29" d="M144.7-7h0.2c1.2,0.2,2,1.3,1.8,2.5c0,0,0,0,0,0c-0.2,1.2-1.3,2-2.5,1.8c0,0,0,0,0,0
							c-1.2-0.2-2-1.3-1.8-2.5c0,0,0,0,0,0c0.1-0.4,0.2-0.7,0.4-1c-0.4,0.4-0.7,1-0.8,1.6c-0.2,1.2,0.3,2.3,1.3,2.9
							c0.3,0.2,0.7,0.3,1.1,0.4c1.6,0.3,3.1-0.8,3.4-2.4c0.2-1.6-0.8-3.1-2.4-3.3C145.1-7,144.9-7,144.7-7z"/>
					</g>
					<path class="st29" d="M152.5,6.8c1.6,0.3,2.7,1.8,2.4,3.4c-0.3,1.6-1.8,2.7-3.4,2.4c-1.6-0.3-2.7-1.8-2.4-3.4
						C149.4,7.6,150.9,6.6,152.5,6.8C152.5,6.8,152.5,6.8,152.5,6.8z"/>
					<g class="st30">
						<path class="st29" d="M151.9,6.8h0.2c1.2,0.2,2,1.3,1.8,2.5s-1.3,2-2.5,1.8c-1.2-0.2-2-1.3-1.8-2.5c0.1-0.4,0.2-0.7,0.4-1
							c-1.1,1.2-1.1,3,0,4.1s3,1.1,4.1,0c1.1-1.2,1.1-3,0-4.1c-0.4-0.4-1-0.7-1.6-0.8C152.3,6.8,152.1,6.8,151.9,6.8z"/>
					</g>
					<path class="st29" d="M155.5,2.5c1.6,0.3,2.7,1.8,2.4,3.4s-1.8,2.7-3.4,2.4c-1.6-0.3-2.7-1.8-2.4-3.4c0,0,0,0,0,0
						C152.4,3.3,153.9,2.2,155.5,2.5z"/>
					<g class="st30">
						<path class="st29" d="M154.8,2.5h0.2c1.2,0.2,2,1.3,1.8,2.5c-0.2,1.2-1.3,2-2.5,1.8c-1.2-0.2-2-1.3-1.8-2.5
							c0.1-0.4,0.2-0.7,0.4-1c-1.1,1.2-1.1,3,0.1,4.1s3,1.1,4.1-0.1s1.1-3-0.1-4.1c-0.4-0.4-1-0.7-1.6-0.8
							C155.3,2.4,155.1,2.4,154.8,2.5z"/>
					</g>
					<path class="st29" d="M147.7,6c1.7,0.3,2.9,1.9,2.6,3.6s-1.9,2.9-3.6,2.6c-1.7-0.3-2.9-1.9-2.6-3.6C144.4,6.9,146,5.7,147.7,6z
						"/>
					<g class="st30">
						<path class="st29" d="M147,6h0.2c1.3,0.2,2.2,1.4,2,2.7s-1.4,2.2-2.7,2c-1.3-0.2-2.1-1.4-2-2.7c0.1-0.4,0.2-0.7,0.4-1
							c-0.5,0.5-0.8,1.1-0.9,1.7c-0.2,1.7,1,3.3,2.7,3.5s3.3-1,3.5-2.7c0.2-1.7-1-3.3-2.7-3.5C147.5,6,147.2,6,147,6z"/>
					</g>
					<path class="st29" d="M150.9,2c1.7,0.3,2.9,1.9,2.6,3.6s-1.9,2.9-3.6,2.6c-1.7-0.3-2.9-1.9-2.6-3.6
						C147.5,2.9,149.1,1.7,150.9,2C150.8,2,150.9,2,150.9,2z"/>
					<g class="st30">
						<path class="st29" d="M150.1,2h0.2c1.3,0.2,2.2,1.4,2,2.7s-1.4,2.2-2.7,2c-1.3-0.2-2.1-1.4-2-2.7c0.1-0.4,0.2-0.7,0.4-1
							c-0.5,0.5-0.8,1.1-0.9,1.7c-0.2,1.7,0.9,3.3,2.7,3.6c1.7,0.2,3.3-0.9,3.6-2.7c0.2-1.7-0.9-3.3-2.6-3.6
							C150.6,2,150.4,2,150.1,2z"/>
					</g>
					<path class="st29" d="M148.7-3.6c1.9,0.3,3.2,2.1,2.9,4c-0.3,1.9-2.1,3.2-4,2.9c0,0,0,0,0,0c-1.9-0.3-3.2-2.1-2.9-4
						C145-2.6,146.8-3.9,148.7-3.6z"/>
					<g class="st30">
						<path class="st29" d="M147.9-3.6c0.1,0,0.2,0,0.3,0c1.4,0.2,2.4,1.6,2.2,3c0,0,0,0,0,0c-0.2,1.4-1.6,2.4-3,2.2
							c-1.4-0.2-2.4-1.6-2.2-3c0.1-0.4,0.2-0.8,0.5-1.2c-0.5,0.5-0.9,1.2-1,1.9c-0.3,1.9,1,3.7,2.9,4c1.9,0.3,3.7-1,4-2.9
							c0,0,0,0,0,0c0.3-1.9-1-3.7-2.9-4C148.4-3.7,148.2-3.7,147.9-3.6z"/>
					</g>
					<path class="st29" d="M142.7,3.7c1.9,0.3,3.2,2.1,2.9,4c-0.3,1.9-2.1,3.2-4,2.9c-1.9-0.3-3.2-2.1-2.9-4c0,0,0,0,0,0
						C139,4.7,140.8,3.4,142.7,3.7z"/>
					<g class="st30">
						<path class="st29" d="M141.9,3.7h0.3c1.4,0.2,2.4,1.6,2.2,3s-1.6,2.4-3,2.2c-1.4-0.2-2.4-1.6-2.2-3c0,0,0,0,0,0
							c0.1-0.4,0.2-0.8,0.5-1.2c-1.4,1.4-1.4,3.6,0,5c1.4,1.4,3.6,1.4,5,0c1.4-1.4,1.4-3.6,0-5c-0.5-0.5-1.2-0.9-2-1
							C142.4,3.6,142.1,3.6,141.9,3.7z"/>
					</g>
					<path class="st29" d="M146-0.2c1.9,0.3,3.2,2.1,2.9,4c-0.3,1.9-2.1,3.2-4,2.9c-1.9-0.3-3.2-2.1-2.9-4c0,0,0,0,0,0
						C142.3,0.8,144.1-0.5,146-0.2z"/>
					<g class="st30">
						<path class="st29" d="M145.1-0.3c0.1,0,0.2,0,0.3,0c1.4,0.2,2.4,1.6,2.2,3s-1.6,2.4-3,2.2c-1.4-0.2-2.4-1.6-2.2-3c0,0,0,0,0,0
							c0.1-0.4,0.2-0.8,0.5-1.2c-1.4,1.4-1.3,3.6,0,5c1.4,1.4,3.6,1.3,5,0c1.4-1.4,1.3-3.6,0-5c-0.5-0.5-1.2-0.9-1.9-1
							C145.7-0.3,145.4-0.3,145.1-0.3z"/>
					</g>
					<g class="st31">
						<path class="st6" d="M139.3,0.4c0.2,0.1,0.1,0.4-0.2,0.3c-0.2-0.1-0.4,0-0.6,0.1L138.4,1c0,0,0,0,0,0.1l-0.1,0.1l0,0l-0.1,0
							c-0.1,0.1-0.2,0.1-0.3,0c0,0,0,0,0,0c-0.1-0.1-0.1-0.2,0-0.3c0,0,0,0,0,0l0,0c0-0.2,0.2-0.4,0.4-0.4l0,0
							C138.7,0.3,139,0.3,139.3,0.4z M140.7-2.8c-0.3,0.5-0.3,1.1,0,1.6c0.1,0.2,0.4,0,0.3-0.2c-0.2-0.4-0.2-0.8,0-1.2
							C141.2-2.8,140.9-3,140.7-2.8z M142.8-5.3c-0.1,0.7,0.3,1.3,0.9,1.6c0.1,0,0.2,0,0.3-0.1c0-0.1,0-0.2-0.1-0.3l0,0
							c-0.4-0.2-0.7-0.7-0.6-1.2C143.3-5.5,142.9-5.5,142.8-5.3z M145.9-2.3c-0.2,0.2,0.1,0.4,0.3,0.3c0.3-0.3,0.8-0.4,1.2-0.2
							c0.2,0.1,0.4-0.3,0.2-0.4C147-2.9,146.4-2.8,145.9-2.3z M144.2,0.9c-0.6,0.6-0.7,1.6-0.3,2.3c0.1,0.2,0.4,0,0.3-0.2
							c-0.3-0.6-0.2-1.3,0.2-1.8C144.6,0.9,144.4,0.7,144.2,0.9z M139.8,5.9c0,0.9,0.7,1.6,1.6,1.6c0.2,0,0.2-0.4,0-0.4
							c-0.6,0-1.1-0.6-1.1-1.2C140.2,5.6,139.8,5.7,139.8,5.9L139.8,5.9z M148.9-5.6c-0.1,0.1-0.1,0.2,0,0.3c0.1,0.1,0.2,0.1,0.2,0
							c0.3-0.2,0.6-0.2,0.9,0c0.2,0.1,0.4-0.2,0.2-0.4C149.8-5.9,149.3-5.8,148.9-5.6z M153.9,1.1c-0.3,0.5-0.9,0.6-1.4,0.3
							c-0.2-0.1-0.4,0.2-0.2,0.4c0.7,0.4,1.5,0.2,1.9-0.5C154.4,1,154.1,0.9,153.9,1.1L153.9,1.1z M150.4,5.6
							c-0.4,0.3-0.8,0.3-1.2,0.1c-0.2-0.1-0.4,0.2-0.2,0.3c0.6,0.4,1.4,0.2,1.9-0.3c0.1-0.1,0.1-0.2,0-0.3c0,0-0.1,0-0.1-0.1
							l-0.2-0.1C150.4,5.2,150.3,5.4,150.4,5.6z M147.5,9.6c-0.3,0.3-0.9,0.4-1.2,0c0,0,0,0-0.1-0.1c-0.2-0.2-0.5,0-0.3,0.2
							c0.4,0.6,1.2,0.6,1.8,0.2c0,0,0.1-0.1,0.1-0.1C148,9.7,147.6,9.4,147.5,9.6z M152.6,9.6c-0.2,0.4-0.8,0.5-1.2,0.3c0,0,0,0,0,0
							c-0.2-0.1-0.5,0.2-0.3,0.3c0.6,0.4,1.3,0.3,1.7-0.3c0,0,0-0.1,0.1-0.1C153.1,9.5,152.8,9.3,152.6,9.6L152.6,9.6z M156.9,8.9
							c-0.2,0.4-0.7,0.7-1.2,0.6c-0.2,0-0.3,0.4-0.1,0.4c0.7,0.1,1.3-0.3,1.6-0.8c0-0.1,0-0.2-0.1-0.3S157,8.8,156.9,8.9L156.9,8.9
							L156.9,8.9z"/>
					</g>
					<rect x="26.3" y="-12.1" class="st12" width="183.4" height="304.8"/>
				</g>
			</g>
		</g>
	</g>
</g>
</svg>
