<?xml version="1.0" encoding="utf-8"?>
<!-- Generator: Adobe Illustrator 25.2.3, SVG Export Plug-In . SVG Version: 6.00 Build 0)  -->
<svg version="1.1" id="Layer_1" xmlns="http://www.w3.org/2000/svg" xmlns:xlink="http://www.w3.org/1999/xlink" x="0px" y="0px"
	 viewBox="0 0 235.4 381.8" style="enable-background:new 0 0 235.4 381.8;" xml:space="preserve">
<style type="text/css">
	.st0{fill:#F2B055;}
	.st1{fill:#FFF0CC;}
	.st2{fill:#231F20;}
	.st3{clip-path:url(#SVGID_2_);}
	.st4{fill:#A4F6FF;}
	.st5{fill:#FFFFFF;}
	.st6{fill:#618362;}
	.st7{fill:#557355;}
	.st8{fill:#82B686;}
	.st9{fill:#8ECC94;}
	.st10{fill:#F3E0AF;}
	.st11{fill:#E1CC9E;}
	.st12{fill:#A9CF49;}
	.st13{fill:none;}
	.st14{fill:#4A355B;}
	.st15{fill:#804097;}
	.st16{fill:#FFD150;}
	.st17{fill:#E3705E;}
	.st18{fill:#ED915C;}
	.st19{fill:#E5705F;}
	.st20{fill:#47372E;}
	.st21{fill:#F2AF55;}
	.st22{fill:#DC4F65;}
	.st23{fill:#48C1C9;}
	.st24{fill:#48A0C7;}
	.st25{fill:#352A24;}
	.st26{fill:#FFD250;}
	.st27{fill:#BCBDBF;}
	.st28{fill:#929497;}
	.st29{fill:#9AC54A;}
	.st30{fill:#A83583;}
	.st31{opacity:0.25;}
	.st32{opacity:0.1;}
</style>
<g>
	<g id="Layer_2_1_">
		<g id="Layer_1-2">
			<path class="st0" d="M235.4,14.5v352.9c-0.2,8.1-6.9,14.6-15,14.5H15c-8.3,0-15-6.5-15-14.5V14.5C0,6.5,6.7,0,15,0h205.4
				C228.7,0,235.4,6.5,235.4,14.5z M222.8,358.9V22.9c0-6-4.8-10.8-10.8-10.9H23.5c-6,0-10.8,4.9-10.8,10.8c0,0,0,0,0,0v336.1
				c0,6,4.9,10.8,10.8,10.8H212C218,369.7,222.8,364.9,222.8,358.9z"/>
			<path class="st1" d="M23.5,12H212c6,0,10.8,4.8,10.8,10.8v336.1c0,6-4.8,10.8-10.8,10.8H23.5c-6,0-10.8-4.8-10.8-10.8V22.9
				C12.6,16.9,17.5,12,23.5,12z"/>
			<path class="st2" d="M27.5,329.3c-0.1-0.1-0.2-0.3-0.2-0.5v-11c0-0.2,0-0.4,0.2-0.5c0.1-0.1,0.3-0.2,0.5-0.2h7.6
				c0.2,0,0.4,0,0.5,0.1c0.1,0.1,0.1,0.3,0.1,0.5v0.5c0,0.2,0,0.4-0.1,0.5c-0.1,0.1-0.3,0.2-0.5,0.2h-5.9v3.5H34
				c0.2,0,0.4,0,0.5,0.1c0.1,0.1,0.2,0.3,0.1,0.5v0.5c0.1,0.3-0.1,0.6-0.4,0.6c-0.1,0-0.2,0-0.2,0h-4.3v4.6c0,0.2,0,0.4-0.2,0.5
				c-0.1,0.1-0.3,0.2-0.5,0.2h-1C27.8,329.5,27.6,329.5,27.5,329.3z"/>
			<path class="st2" d="M38.1,328.1c-2.1-2.8-2.1-6.7,0-9.5c1.2-1.2,2.9-1.8,4.6-1.7c1.7-0.1,3.4,0.5,4.6,1.7c2.2,2.8,2.2,6.7,0,9.5
				c-1.2,1.2-2.9,1.8-4.6,1.7C41,329.9,39.3,329.3,38.1,328.1z M45.6,326.8c1.3-2.2,1.3-4.9,0-7.1c-0.7-0.8-1.8-1.3-2.9-1.2
				c-1.1-0.1-2.2,0.4-2.9,1.2c-1.3,2.2-1.3,4.9,0,7.1c0.7,0.8,1.8,1.3,2.9,1.2C43.8,328.1,44.9,327.7,45.6,326.8z"/>
			<path class="st2" d="M53.2,329.2c-1.6-0.7-2.7-2.3-2.6-4.1v-7.3c0-0.2,0-0.4,0.2-0.5c0.1-0.1,0.3-0.2,0.5-0.2h1
				c0.2,0,0.4,0,0.5,0.2c0.1,0.1,0.2,0.3,0.2,0.5v7.4c-0.1,0.8,0.2,1.6,0.8,2.1c0.7,0.5,1.5,0.8,2.4,0.7c0.8,0.1,1.7-0.2,2.3-0.7
				c0.6-0.6,0.9-1.3,0.8-2.1v-7.4c0-0.2,0-0.4,0.2-0.5c0.1-0.1,0.3-0.2,0.5-0.2h1c0.5,0,0.7,0.2,0.7,0.7v7.3c0,0.9-0.2,1.7-0.7,2.5
				c-0.5,0.7-1.2,1.3-2,1.6c-0.9,0.4-1.9,0.6-2.9,0.6C55.1,329.8,54.1,329.6,53.2,329.2z"/>
			<path class="st2" d="M63.8,329.3c-0.1-0.1-0.2-0.3-0.2-0.5v-11c0-0.2,0-0.4,0.2-0.5c0.1-0.1,0.3-0.2,0.5-0.2h4.8
				c1.2-0.1,2.3,0.3,3.2,1c0.8,0.8,1.2,1.8,1.1,2.9c0,0.8-0.2,1.5-0.6,2.2c-0.4,0.6-1,1.1-1.8,1.4l2,4.5c0,0.1,0.1,0.1,0.1,0.2
				c0,0.2-0.1,0.3-0.3,0.3h-1.5c-0.1,0-0.2,0-0.3-0.1c-0.1-0.1-0.2-0.2-0.2-0.3l-1.8-4.4h-3v4c0,0.2,0,0.4-0.2,0.5
				c-0.1,0.1-0.3,0.2-0.5,0.2h-1C64.1,329.5,64,329.4,63.8,329.3z M68.7,323.1c0.7,0.1,1.3-0.1,1.9-0.5c0.4-0.4,0.6-1,0.6-1.6
				c0.1-0.6-0.1-1.2-0.6-1.6c-0.5-0.4-1.1-0.6-1.7-0.5H66v4.2H68.7z"/>
			<path class="st2" d="M83.6,328.1c-2.1-2.8-2.1-6.7,0-9.5c2.7-2.3,6.6-2.3,9.2,0c2.1,2.8,2.1,6.7,0,9.5
				C90.1,330.3,86.2,330.3,83.6,328.1z M91.1,326.8c1.3-2.2,1.3-4.9,0-7.1c-0.7-0.8-1.8-1.3-2.9-1.2c-1.1-0.1-2.2,0.4-2.9,1.2
				c-1.3,2.2-1.3,4.9,0,7.1c0.7,0.8,1.8,1.3,2.9,1.2C89.3,328.1,90.3,327.7,91.1,326.8z"/>
			<path class="st2" d="M96.3,329.3c-0.1-0.1-0.2-0.3-0.2-0.5v-11c0-0.2,0-0.4,0.2-0.5c0.1-0.1,0.3-0.2,0.5-0.2h7.6
				c0.2,0,0.4,0,0.5,0.1c0.1,0.1,0.2,0.3,0.1,0.5v0.5c0,0.2,0,0.4-0.1,0.5c-0.1,0.1-0.3,0.2-0.5,0.2h-5.9v3.5h4.3
				c0.2,0,0.4,0,0.5,0.1c0.1,0.1,0.2,0.3,0.2,0.5v0.5c0,0.2,0,0.4-0.2,0.5c-0.1,0.1-0.3,0.2-0.5,0.1h-4.3v4.6c0,0.2,0,0.4-0.2,0.5
				c-0.2,0.1-0.3,0.2-0.5,0.2h-1C96.6,329.5,96.4,329.4,96.3,329.3z"/>
			<path class="st2" d="M113.7,329.3c-0.1-0.1-0.2-0.3-0.2-0.5v-11c0-0.2,0-0.4,0.2-0.5c0.1-0.1,0.3-0.2,0.5-0.2h4.7
				c1.2-0.1,2.4,0.3,3.3,1.1c0.8,0.8,1.2,1.9,1.1,3c0.1,1.1-0.3,2.2-1.1,3c-0.9,0.8-2.1,1.1-3.3,1h-3v3.5c0,0.2,0,0.4-0.2,0.5
				c-0.1,0.1-0.3,0.2-0.5,0.2h-1C114,329.5,113.8,329.4,113.7,329.3z M118.8,323.5c0.6,0.1,1.2-0.2,1.7-0.6c0.4-0.5,0.6-1.1,0.6-1.7
				c0.1-0.6-0.1-1.3-0.6-1.8c-0.4-0.4-1-0.6-1.7-0.6h-2.9v4.6H118.8z"/>
			<path class="st2" d="M124.8,329.3c-0.1-0.1-0.2-0.3-0.2-0.5v-11c0-0.2,0-0.4,0.2-0.5c0.1-0.1,0.3-0.2,0.5-0.2h7.6
				c0.2,0,0.4,0,0.5,0.1c0.1,0.1,0.2,0.3,0.1,0.5v0.5c0,0.2,0,0.4-0.1,0.5c-0.1,0.1-0.3,0.2-0.5,0.2H127v3.5h4.3
				c0.2,0,0.4,0,0.5,0.1c0.1,0.1,0.2,0.3,0.1,0.5v0.5c0,0.2,0,0.4-0.1,0.5c-0.1,0.1-0.3,0.2-0.5,0.1H127v3.5h5.9
				c0.2,0,0.4,0,0.5,0.1c0.1,0.1,0.2,0.3,0.1,0.5v0.5c0,0.2,0,0.3-0.1,0.5c-0.1,0.1-0.3,0.2-0.5,0.1h-7.5
				C125.2,329.5,125,329.5,124.8,329.3z"/>
			<path class="st2" d="M135.3,329.3c-0.1-0.1-0.2-0.3-0.1-0.5v-11c-0.1-0.3,0.1-0.6,0.4-0.7c0.1,0,0.2,0,0.2,0h0.8
				c0.1,0,0.3,0,0.4,0.1c0.1,0.1,0.2,0.2,0.3,0.3l6,8.3v-8c0-0.2,0-0.4,0.1-0.5c0.1-0.1,0.3-0.2,0.5-0.2h1c0.2,0,0.4,0,0.5,0.2
				c0.1,0.1,0.2,0.3,0.2,0.5v11c0,0.2,0,0.4-0.2,0.5c-0.2,0.1-0.3,0.2-0.5,0.2h-0.9c-0.1,0-0.3,0-0.4-0.1c-0.1-0.1-0.2-0.2-0.3-0.3
				l-6-8.3v8c0,0.2,0,0.4-0.2,0.5c-0.1,0.1-0.3,0.2-0.5,0.2h-1C135.6,329.5,135.5,329.5,135.3,329.3z"/>
			<path class="st2" d="M151.1,329.3c-0.1-0.1-0.2-0.3-0.2-0.5v-9.9h-3.2c-0.2,0-0.4,0-0.5-0.1c-0.1-0.1-0.2-0.3-0.1-0.5v-0.5
				c0-0.2,0-0.4,0.1-0.5c0.1-0.1,0.3-0.2,0.5-0.1h8.7c0.3-0.1,0.6,0.1,0.7,0.4c0,0.1,0,0.2,0,0.2v0.5c0,0.2,0,0.4-0.1,0.5
				c-0.1,0.1-0.3,0.2-0.5,0.1h-3.2v9.9c0,0.2,0,0.4-0.1,0.5c-0.2,0.1-0.3,0.2-0.5,0.2h-1C151.4,329.5,151.2,329.4,151.1,329.3z"/>
			<path class="st2" d="M155.9,329.2c0-0.1,0-0.2,0.1-0.2l4.8-11.4c0-0.1,0.1-0.3,0.2-0.4c0.1-0.1,0.2-0.1,0.4-0.1h1
				c0.1,0,0.3,0,0.4,0.1c0.1,0.1,0.2,0.2,0.2,0.4l4.8,11.4c0,0.1,0.1,0.2,0.1,0.2c0,0.2-0.1,0.3-0.3,0.3h-1.6c-0.1,0-0.2,0-0.3-0.1
				c-0.1-0.1-0.2-0.2-0.2-0.3l-1-2.5h-5l-1,2.5c0,0.1-0.1,0.2-0.2,0.3c-0.1,0-0.2,0.1-0.3,0.1h-1.7
				C156,329.5,155.9,329.4,155.9,329.2z M163.8,324.9l-1.9-4.8l-1.9,4.8H163.8z"/>
			<path class="st2" d="M169.9,328.1c-1.2-1.3-1.8-3-1.7-4.8c-0.1-1.8,0.5-3.5,1.7-4.8c1.3-1.2,3-1.8,4.8-1.7c0.8,0,1.5,0.1,2.3,0.3
				c0.6,0.1,1.2,0.4,1.8,0.7c0.1,0,0.1,0.1,0.2,0.2c0,0.1,0,0.2-0.1,0.3l-0.5,0.9c-0.1,0.1-0.1,0.2-0.2,0.2c-0.1,0-0.2,0-0.2-0.1
				c-0.9-0.5-1.9-0.7-2.9-0.7c-1.2-0.1-2.4,0.4-3.2,1.2c-0.8,1-1.3,2.3-1.2,3.5c-0.1,1.3,0.3,2.6,1.2,3.6c0.9,0.8,2,1.2,3.2,1.2
				c1.1,0,2.2-0.2,3.1-0.7c0.1,0,0.2-0.1,0.2-0.1c0.1,0,0.2,0.1,0.2,0.2l0.6,0.9c0,0.1,0.1,0.1,0.1,0.2c0,0.1-0.1,0.1-0.2,0.2
				c-1.3,0.8-2.8,1.1-4.2,1C172.9,329.9,171.2,329.3,169.9,328.1z"/>
			<path class="st2" d="M181,329.3c-0.1-0.1-0.2-0.3-0.1-0.5v-11c0-0.2,0-0.4,0.1-0.5c0.1-0.1,0.3-0.2,0.5-0.2h1
				c0.2,0,0.4,0,0.5,0.2c0.1,0.1,0.2,0.3,0.2,0.5v9.9h5.6c0.3-0.1,0.6,0.1,0.7,0.4c0,0.1,0,0.2,0,0.2v0.5c0,0.2,0,0.3-0.1,0.5
				c-0.1,0.1-0.3,0.2-0.5,0.1h-7.2C181.3,329.5,181.1,329.5,181,329.3z"/>
			<path class="st2" d="M190.7,329.3c-0.1-0.1-0.2-0.3-0.2-0.5v-11c0-0.2,0-0.4,0.2-0.5c0.1-0.1,0.3-0.2,0.5-0.2h7.6
				c0.3-0.1,0.6,0.1,0.6,0.4c0,0.1,0,0.2,0,0.2v0.5c0,0.2,0,0.4-0.1,0.5c-0.1,0.1-0.3,0.2-0.5,0.2h-5.9v3.5h4.3c0.2,0,0.4,0,0.5,0.1
				c0.1,0.1,0.2,0.3,0.1,0.5v0.5c0,0.2,0,0.4-0.1,0.5c-0.1,0.1-0.3,0.2-0.5,0.1h-4.3v3.5h5.9c0.3-0.1,0.6,0.1,0.7,0.4
				c0,0.1,0,0.2,0,0.2v0.5c0,0.2,0,0.3-0.1,0.5c-0.1,0.1-0.3,0.2-0.5,0.1h-7.6C191.1,329.5,190.9,329.5,190.7,329.3z"/>
			<path class="st2" d="M202.9,329.5c-0.7-0.1-1.4-0.4-2-0.8c-0.2-0.1-0.2-0.2-0.2-0.3c0-0.1,0-0.2,0.1-0.2l0.6-0.9
				c0.1-0.1,0.1-0.2,0.2-0.2c0.1,0,0.2,0,0.2,0.1c0.5,0.3,1,0.5,1.6,0.6c0.6,0.2,1.2,0.2,1.8,0.2c0.6,0,1.3-0.1,1.9-0.4
				c0.4-0.3,0.7-0.8,0.6-1.3c0-0.3-0.1-0.6-0.2-0.9c-0.2-0.2-0.4-0.4-0.7-0.6c-0.5-0.2-1-0.4-1.5-0.6l-0.4-0.2
				c-0.7-0.3-1.4-0.6-2-0.9c-0.5-0.3-0.9-0.7-1.3-1.1c-0.3-0.5-0.5-1.1-0.5-1.7c0-1,0.4-2,1.3-2.6c1-0.6,2.1-1,3.3-0.9
				c0.7,0,1.5,0.1,2.2,0.2c0.6,0.1,1.1,0.4,1.6,0.7c0.1,0.1,0.2,0.2,0.2,0.3c0,0.1,0,0.1-0.1,0.2l-0.6,0.9c-0.1,0.1-0.1,0.2-0.2,0.2
				c-0.1,0-0.2-0.1-0.2-0.1c-0.9-0.5-1.9-0.8-2.9-0.8c-0.6,0-1.2,0.1-1.7,0.4c-0.4,0.3-0.6,0.8-0.6,1.3c0,0.3,0.1,0.6,0.2,0.9
				c0.2,0.2,0.4,0.4,0.7,0.6c0.3,0.2,0.8,0.4,1.5,0.6l0.5,0.2c0.7,0.3,1.4,0.6,2.1,1c0.5,0.3,0.9,0.7,1.1,1.1
				c0.3,0.5,0.4,1.1,0.4,1.7c0,1-0.4,1.9-1.2,2.5c-1,0.7-2.2,1-3.3,0.9C204.6,329.8,203.8,329.7,202.9,329.5z"/>
			<g>
				<defs>
					<path id="SVGID_1_" d="M53.1,44.1h129.2c13.7,0,24.8,11.1,24.8,24.8v192.6c0,13.7-11.1,24.8-24.8,24.8H53.1
						c-13.7,0-24.8-11.1-24.8-24.8V68.9C28.3,55.2,39.4,44.1,53.1,44.1z"/>
				</defs>
				<clipPath id="SVGID_2_">
					<use xlink:href="#SVGID_1_"  style="overflow:visible;"/>
				</clipPath>
				<g class="st3">
					<rect x="30" y="-0.4" class="st4" width="163.5" height="195.8"/>
					<path class="st5" d="M96.5,97.1H66.3c-2.2,0-3.9-1.7-3.9-3.9l0,0c0-2.1,1.8-3.9,3.9-3.9h30.2c2.1,0,3.9,1.8,3.9,3.9l0,0
						C100.4,95.4,98.7,97.1,96.5,97.1z"/>
					<circle class="st5" cx="77.6" cy="87.4" r="9.7"/>
					<path class="st5" d="M95.1,90.2c0,3.8-3.1,6.9-6.9,6.9s-6.9-3.1-6.9-6.9s3.1-6.9,6.9-6.9S95.1,86.4,95.1,90.2L95.1,90.2z"/>
					<path class="st5" d="M114.1,70.1H102c-0.9,0-1.6-0.7-1.6-1.6l0,0c0-0.9,0.7-1.6,1.6-1.6h12.1c0.9,0,1.6,0.7,1.6,1.6l0,0
						C115.7,69.4,115,70.1,114.1,70.1C114.1,70.1,114.1,70.1,114.1,70.1z"/>
					<path class="st5" d="M110.3,66.2c0,2.1-1.7,3.9-3.9,3.9s-3.9-1.7-3.9-3.9c0-2.1,1.7-3.9,3.9-3.9l0,0
						C108.6,62.3,110.3,64,110.3,66.2z"/>
					<path class="st5" d="M113.5,67.3c0,1.5-1.2,2.8-2.8,2.8s-2.8-1.2-2.8-2.8s1.2-2.8,2.8-2.8h0C112.3,64.5,113.5,65.8,113.5,67.3z
						"/>
					<path class="st5" d="M158.9,86h-8.5c-0.4,0-0.8-0.4-0.8-0.8v-0.5c0-0.4,0.4-0.8,0.8-0.8h8.5c0.4,0,0.8,0.4,0.8,0.8v0.5
						C159.7,85.7,159.4,86,158.9,86z"/>
					<path class="st5" d="M153.1,83.4c0,1.4,1.2,2.6,2.6,2.6c1.4,0,2.6-1.2,2.6-2.6s-1.2-2.6-2.6-2.6
						C154.3,80.9,153.1,82,153.1,83.4z"/>
					<path class="st5" d="M151.1,84.2c0,1,0.8,1.8,1.8,1.8s1.8-0.8,1.8-1.8s-0.8-1.8-1.8-1.8c0,0,0,0,0,0
						C151.9,82.4,151.1,83.2,151.1,84.2L151.1,84.2z"/>
					<path class="st6" d="M162.6,122c0,16.2-22.8,29.3-51,29.3s-51-13.1-51-29.3s22.8-29.3,51-29.3c2.1,0,4.2,0.1,6.2,0.2
						C143,94.7,162.6,107.1,162.6,122z"/>
					<ellipse class="st7" cx="189.1" cy="117.8" rx="44.3" ry="25.4"/>
					<ellipse class="st7" cx="45.2" cy="116.2" rx="51" ry="29.3"/>
					<ellipse class="st8" cx="67.7" cy="137.8" rx="54.5" ry="31.3"/>
					<ellipse class="st8" cx="163.6" cy="137.8" rx="54.5" ry="31.3"/>
					<rect x="28.3" y="134.7" class="st9" width="163.4" height="156.2"/>
					<rect x="52.4" y="188" class="st10" width="125.9" height="55"/>
					<path class="st11" d="M115,211.1h45c2.1,0,3.9,1.7,3.9,3.9l0,0c0,2.1-1.7,3.9-3.9,3.9h-45c-2.1,0-3.9-1.7-3.9-3.9l0,0
						C111.1,212.8,112.9,211.1,115,211.1z"/>
					<path class="st12" d="M106,22.8c-6.9,0-13.7-1.4-20-4.1c-1.4-0.6-2.8-1.3-4.1-1.9c-3.7-1.8-6.9-3.4-10.7-2.9
						c-3.2,0.4-6.2,1.7-8.7,3.7l-3.9-5c3.4-2.7,7.5-4.4,11.9-5c5.7-0.7,10,1.5,14.3,3.6c1.3,0.6,2.5,1.2,3.7,1.7
						c8,3.5,16.9,4.5,25.5,2.9c4.2-0.8,7.9-2.7,11.9-4.8c2.5-1.3,5.1-2.5,7.7-3.6c6.6-2.6,13.8-3.5,20.9-2.6
						c7.2,0.9,13.9,4.1,19.1,9.2l-4.5,4.5c-9.1-9.1-23.2-9.2-33.2-5.3c-2.4,0.9-4.7,2.1-7.1,3.3c-4.2,2.1-8.5,4.3-13.5,5.3
						C112.2,22.5,109.1,22.8,106,22.8z"/>
					<rect x="27.9" y="3" class="st13" width="163.4" height="287.8"/>
					<path class="st14" d="M80.8,24.3c-0.7,1.4-2.4,1.9-3.8,1.1s-1.9-2.4-1.1-3.8c0.7-1.4,2.4-1.9,3.8-1.1c0,0,0,0,0,0
						C81.1,21.2,81.6,22.9,80.8,24.3z"/>
					<path class="st15" d="M81.1,23.8c-0.7,1.4-2.4,1.9-3.8,1.1c-1.4-0.7-1.9-2.4-1.1-3.8s2.4-1.9,3.8-1.1c0,0,0,0,0,0
						C81.4,20.7,81.9,22.4,81.1,23.8C81.1,23.8,81.1,23.8,81.1,23.8z"/>
					<path class="st14" d="M80.2,19.6c-0.7,1.4-2.4,1.9-3.8,1.1c-1.4-0.7-1.9-2.4-1.1-3.8c0.7-1.4,2.4-1.9,3.8-1.1
						C80.5,16.5,81,18.2,80.2,19.6C80.2,19.6,80.2,19.6,80.2,19.6z"/>
					<path class="st15" d="M80.5,19.1c-0.7,1.4-2.4,1.9-3.8,1.1s-1.9-2.4-1.1-3.8c0.7-1.4,2.4-1.9,3.8-1.1
						C80.7,16,81.2,17.7,80.5,19.1C80.5,19,80.5,19.1,80.5,19.1z"/>
					<path class="st14" d="M84.6,21.9c-0.7,1.4-2.4,1.9-3.8,1.1s-1.9-2.4-1.1-3.8c0.7-1.4,2.4-1.9,3.8-1.1c0,0,0,0,0,0
						C84.8,18.9,85.4,20.6,84.6,21.9C84.6,21.9,84.6,21.9,84.6,21.9z"/>
					<path class="st15" d="M84.9,21.4c-0.7,1.4-2.4,1.9-3.8,1.1c-1.4-0.7-1.9-2.4-1.1-3.8c0.7-1.4,2.4-1.9,3.8-1.1c0,0,0,0,0,0
						C85.1,18.4,85.6,20.1,84.9,21.4C84.9,21.4,84.9,21.4,84.9,21.4z"/>
					<path class="st14" d="M79.4,14.3c-0.7,1.4-2.4,1.9-3.8,1.1s-1.9-2.4-1.1-3.8s2.4-1.9,3.8-1.1c0,0,0,0,0,0
						C79.7,11.2,80.2,12.9,79.4,14.3z"/>
					<path class="st15" d="M79.7,13.8c-0.7,1.4-2.4,1.9-3.8,1.1c-1.4-0.7-1.9-2.4-1.1-3.8c0.7-1.4,2.4-1.9,3.8-1.1
						C79.9,10.7,80.5,12.4,79.7,13.8C79.7,13.8,79.7,13.8,79.7,13.8z"/>
					<path class="st14" d="M88.4,19.2c-0.7,1.4-2.4,1.9-3.8,1.1c-1.4-0.7-1.9-2.4-1.1-3.8c0.7-1.4,2.4-1.9,3.8-1.1
						C88.6,16.1,89.1,17.8,88.4,19.2C88.4,19.2,88.4,19.2,88.4,19.2z"/>
					<path class="st15" d="M88.7,18.7c-0.7,1.4-2.4,1.9-3.8,1.1S83,17.3,83.8,16c0.7-1.4,2.4-1.9,3.8-1.1
						C88.9,15.6,89.4,17.3,88.7,18.7C88.7,18.7,88.7,18.7,88.7,18.7z"/>
					<path class="st14" d="M83.9,16.7c-0.7,1.4-2.4,1.9-3.8,1.1S78.3,15.4,79,14c0.7-1.4,2.4-1.9,3.8-1.1
						C84.2,13.7,84.7,15.4,83.9,16.7C83.9,16.7,83.9,16.7,83.9,16.7z"/>
					<path class="st15" d="M84.2,16.2c-0.7,1.4-2.4,1.9-3.8,1.1c-1.4-0.7-1.9-2.4-1.1-3.8c0.7-1.4,2.4-1.9,3.8-1.1
						C84.4,13.2,84.9,14.9,84.2,16.2z"/>
					<path class="st14" d="M147,22.8c-0.6,2-2.8,3.2-4.9,2.5c-2-0.6-3.2-2.8-2.5-4.9c0.6-2,2.8-3.2,4.9-2.5c0,0,0,0,0.1,0
						C146.5,18.7,147.6,20.8,147,22.8z"/>
					<path class="st15" d="M147.3,22.1c-0.7,2-2.8,3.1-4.9,2.5c-2-0.7-3.1-2.8-2.5-4.9c0.7-2,2.8-3.1,4.9-2.5
						C146.8,17.9,147.9,20,147.3,22.1z"/>
					<path class="st14" d="M145,16.5c-0.7,2-2.8,3.1-4.9,2.5c-2-0.7-3.1-2.8-2.5-4.9c0.7-2,2.8-3.1,4.9-2.5c0,0,0,0,0,0
						C144.5,12.3,145.7,14.5,145,16.5z"/>
					<path class="st15" d="M145.2,15.8c-0.7,2-2.8,3.1-4.9,2.5c-2-0.7-3.1-2.8-2.5-4.9c0.7-2,2.8-3.1,4.9-2.5
						C144.8,11.6,145.9,13.8,145.2,15.8C145.2,15.8,145.2,15.8,145.2,15.8z"/>
					<path class="st14" d="M151.6,18.7c-0.7,2-2.8,3.2-4.9,2.5s-3.2-2.8-2.5-4.9s2.8-3.2,4.9-2.5c0,0,0,0,0,0
						C151.1,14.5,152.2,16.6,151.6,18.7z"/>
					<path class="st15" d="M151.8,17.9c-0.7,2-2.8,3.1-4.9,2.5c-2-0.7-3.1-2.8-2.5-4.9c0.7-2,2.8-3.1,4.9-2.5
						C151.4,13.7,152.5,15.9,151.8,17.9C151.8,17.9,151.8,17.9,151.8,17.9z"/>
					<path class="st14" d="M142.6,9.6c-0.7,2-2.8,3.1-4.9,2.5c-2-0.7-3.1-2.8-2.5-4.9c0.7-2,2.8-3.1,4.9-2.5
						C142.2,5.4,143.3,7.6,142.6,9.6C142.6,9.6,142.6,9.6,142.6,9.6z"/>
					<path class="st15" d="M142.9,8.9c-0.6,2-2.8,3.2-4.9,2.5c-2-0.6-3.2-2.8-2.5-4.9c0.6-2,2.8-3.2,4.9-2.5c0,0,0,0,0,0
						C142.4,4.7,143.5,6.8,142.9,8.9z"/>
					<path class="st14" d="M156,14c-0.7,2-2.8,3.1-4.9,2.5c-2-0.7-3.1-2.8-2.5-4.9c0.7-2,2.8-3.1,4.9-2.5C155.5,9.8,156.7,12,156,14
						C156,14,156,14,156,14z"/>
					<path class="st15" d="M156.3,13.2c-0.7,2-2.8,3.1-4.9,2.5c-2-0.7-3.1-2.8-2.5-4.9c0.7-2,2.8-3.1,4.9-2.5
						C155.8,9,156.9,11.2,156.3,13.2C156.3,13.2,156.3,13.2,156.3,13.2z"/>
					<path class="st14" d="M149.3,11.8c-0.7,2-2.8,3.2-4.9,2.5s-3.2-2.8-2.5-4.9s2.8-3.2,4.9-2.5c0,0,0,0,0,0
						C148.9,7.6,150,9.7,149.3,11.8z"/>
					<path class="st15" d="M149.6,11c-0.7,2-2.8,3.1-4.9,2.5c-2-0.7-3.1-2.8-2.5-4.9c0.7-2,2.8-3.1,4.9-2.5c0,0,0,0,0,0
						C149.1,6.8,150.2,9,149.6,11z"/>
					<path class="st14" d="M54.1,92.7c0.7,2.4-0.6,5-3.1,5.7c-2.4,0.7-5-0.6-5.7-3.1c-0.7-2.4,0.6-5,3.1-5.7c0,0,0,0,0,0
						C50.8,88.9,53.3,90.3,54.1,92.7C54.1,92.7,54.1,92.7,54.1,92.7z"/>
					<path class="st15" d="M53.8,91.8c0.7,2.4-0.6,5-3.1,5.7c-2.4,0.7-5-0.6-5.7-3.1c-0.7-2.4,0.6-5,3.1-5.7c0,0,0,0,0,0
						C50.5,88,53.1,89.4,53.8,91.8z"/>
					<path class="st14" d="M47.9,87.9c0.7,2.4-0.6,5-3.1,5.7c-2.4,0.7-5-0.6-5.7-3.1c-0.7-2.4,0.6-5,3.1-5.7c0,0,0,0,0,0
						C44.6,84.1,47.1,85.5,47.9,87.9C47.9,87.9,47.9,87.9,47.9,87.9z"/>
					<path class="st15" d="M47.6,87.1c0.7,2.4-0.6,5-3,5.7c-2.4,0.7-5-0.6-5.7-3s0.6-5,3-5.7c0,0,0,0,0,0
						C44.3,83.3,46.9,84.6,47.6,87.1z"/>
					<path class="st14" d="M55.7,85.6c0.7,2.4-0.6,5-3.1,5.7c-2.4,0.7-5-0.6-5.7-3.1c-0.7-2.4,0.6-5,3.1-5.7c0,0,0,0,0,0
						C52.4,81.8,55,83.2,55.7,85.6z"/>
					<path class="st15" d="M55.4,84.7c0.7,2.4-0.6,5-3.1,5.7c-2.4,0.7-5-0.6-5.7-3.1c-0.7-2.4,0.6-5,3.1-5.7c0,0,0,0,0,0
						C52.2,80.9,54.7,82.3,55.4,84.7z"/>
					<path class="st14" d="M40.9,82.8c0.7,2.4-0.6,5-3.1,5.7c-2.4,0.7-5-0.6-5.7-3.1c-0.7-2.4,0.6-5,3.1-5.7c0,0,0,0,0,0
						C37.6,79,40.1,80.4,40.9,82.8z"/>
					<path class="st15" d="M40.6,81.9c0.7,2.4-0.6,5-3.1,5.7c-2.4,0.7-5-0.6-5.7-3.1c-0.7-2.4,0.6-5,3.1-5.7c0,0,0,0,0,0
						C37.3,78.1,39.9,79.5,40.6,81.9z"/>
					<path class="st14" d="M56.8,78c0.7,2.4-0.6,5-3.1,5.7c-2.4,0.7-5-0.6-5.7-3.1c-0.7-2.4,0.6-5,3.1-5.7c0,0,0,0,0,0
						C53.6,74.2,56.1,75.6,56.8,78z"/>
					<path class="st15" d="M56.6,77.1c0.7,2.4-0.7,5-3.1,5.7s-5-0.7-5.7-3.1c-0.7-2.4,0.7-5,3.1-5.7C53.3,73.3,55.8,74.6,56.6,77.1
						C56.6,77.1,56.6,77.1,56.6,77.1z"/>
					<path class="st14" d="M48.8,80.4c0.7,2.4-0.6,5-3.1,5.7c-2.4,0.7-5-0.6-5.7-3.1c-0.7-2.4,0.6-5,3.1-5.7c0,0,0,0,0,0
						C45.6,76.6,48.1,78,48.8,80.4z"/>
					<path class="st15" d="M48.6,79.5c0.7,2.4-0.6,5-3.1,5.7c-2.4,0.7-5-0.6-5.7-3.1c-0.7-2.4,0.6-5,3.1-5.7c0,0,0,0,0,0
						C45.3,75.7,47.8,77.1,48.6,79.5C48.6,79.5,48.6,79.5,48.6,79.5z"/>
					<circle class="st16" cx="120.1" cy="130.4" r="8.8"/>
					<path class="st16" d="M117.9,132.5l0.5,0.2c2.6,1.2,3.8,4.3,2.6,6.9l-3.5,7.7c-1.2,2.6-4.3,3.8-6.9,2.6l-0.5-0.2
						c-2.6-1.2-3.8-4.3-2.6-6.9l3.5-7.7C112.1,132.5,115.2,131.3,117.9,132.5z"/>
					<path class="st16" d="M152.4,210.4l-0.6-0.7c-0.3-0.4-0.8-0.6-1.2-0.7l-2.8-0.6c0,0,0-0.1,0-0.1v-41.1c0-2.2-1.8-3.9-3.9-3.9
						c-2.2,0-3.9,1.8-3.9,3.9v40.4c-0.6,0.4-0.9,1.1-0.9,1.9v2.5c0,1.3,1,2.3,2.3,2.3h9.3c1.3,0,2.3-1,2.3-2.3
						C153,211.4,152.8,210.9,152.4,210.4z"/>
					<path class="st17" d="M147.2,191.7h-7.1c-0.4,0-0.7-0.3-0.7-0.7v-0.1c0-0.4,0.3-0.7,0.7-0.7h7.1c0.4,0,0.7,0.3,0.7,0.7v0.1
						C147.9,191.3,147.6,191.7,147.2,191.7z"/>
					<path class="st17" d="M147.3,200.7L147.3,200.7c-0.4,0.3-0.9,0.3-1.2-0.1l-6.3-8.3c-0.3-0.4-0.2-0.9,0.2-1.1l0.1-0.1
						c0.4-0.3,0.9-0.2,1.1,0.2l6.3,8.3C147.8,199.9,147.7,200.4,147.3,200.7z"/>
					<path class="st17" d="M147.2,191L147.2,191c0.4,0.3,0.4,0.7,0.2,1.1l0,0l-6.4,8.5c-0.2,0.3-0.7,0.4-1,0.1l0,0l-0.1,0
						c-0.3-0.2-0.4-0.7-0.1-1l6.4-8.5C146.4,190.8,146.9,190.8,147.2,191L147.2,191L147.2,191z"/>
					<path class="st17" d="M147.3,209.2L147.3,209.2c-0.4,0.3-0.9,0.3-1.2-0.1l-6.3-8.3c-0.3-0.4-0.2-0.9,0.2-1.1l0.1-0.1
						c0.4-0.3,0.9-0.2,1.1,0.2l6.3,8.3C147.8,208.4,147.7,208.9,147.3,209.2z"/>
					<path class="st17" d="M147.3,199.5L147.3,199.5c0.4,0.3,0.5,0.8,0.2,1.2l-6.3,8.3c-0.3,0.4-0.8,0.4-1.1,0.2l-0.1-0.1
						c-0.4-0.3-0.4-0.8-0.2-1.1l6.3-8.3C146.4,199.3,146.9,199.3,147.3,199.5z"/>
					<path class="st17" d="M150.7,213.9L150.7,213.9c-0.4,0-0.7-0.3-0.7-0.7v-3.6c0-0.4,0.3-0.7,0.7-0.7h0.1c0.4,0,0.7,0.3,0.7,0.7
						v3.6C151.3,213.6,151,213.9,150.7,213.9z"/>
					<path class="st17" d="M147.9,213.9L147.9,213.9c-0.4,0-0.7-0.3-0.7-0.7V209c0-0.4,0.3-0.7,0.7-0.7h0.1c0.4,0,0.7,0.3,0.7,0.7
						v4.3C148.6,213.6,148.3,213.9,147.9,213.9z"/>
					<path class="st17" d="M147.2,209.7h-6.8c-0.4,0-0.7-0.3-0.7-0.7v-0.1c0-0.4,0.3-0.7,0.7-0.7h6.8c0.4,0,0.7,0.3,0.7,0.7v0.1
						C147.9,209.4,147.6,209.7,147.2,209.7z"/>
					<path class="st17" d="M139,213.2h13.4c0.4,0,0.7,0.3,0.7,0.7v0.1c0,0.4-0.3,0.7-0.7,0.7H139c-0.4,0-0.7-0.3-0.7-0.7v-0.1
						C138.3,213.5,138.6,213.2,139,213.2z"/>
					<path class="st16" d="M131.8,207.6v-40.4c0.1-2.2-1.6-4-3.7-4.1c-2.2-0.1-4,1.6-4.1,3.7c0,0.1,0,0.3,0,0.4v41.1
						c0,0,0,0.1,0,0.1l-2.8,0.6c-0.5,0.1-0.9,0.3-1.2,0.7l-0.6,0.7c-0.9,1-0.8,2.4,0.2,3.3c0.4,0.4,1,0.6,1.6,0.6h9.3
						c1.3,0,2.3-1,2.3-2.3v-2.5C132.7,208.7,132.3,208.1,131.8,207.6z"/>
					<path class="st17" d="M124.4,190.2h7.1c0.4,0,0.7,0.3,0.7,0.7v0.1c0,0.4-0.3,0.7-0.7,0.7h-7.1c-0.4,0-0.7-0.3-0.7-0.7v-0.1
						C123.7,190.5,124,190.2,124.4,190.2z"/>
					<path class="st17" d="M131.6,191.1L131.6,191.1c0.4,0.3,0.5,0.8,0.2,1.2l-6.3,8.3c-0.3,0.4-0.8,0.4-1.1,0.2l-0.1-0.1
						c-0.4-0.3-0.4-0.8-0.2-1.1l6.3-8.3C130.7,190.9,131.2,190.8,131.6,191.1z"/>
					<path class="st17" d="M131.6,200.7L131.6,200.7c-0.4,0.3-0.9,0.3-1.2-0.1l-6.3-8.3c-0.3-0.4-0.2-0.9,0.2-1.1l0.1-0.1
						c0.4-0.3,0.9-0.2,1.1,0.2l6.3,8.3C132.1,199.9,132,200.4,131.6,200.7z"/>
					<path class="st17" d="M131.6,199.5L131.6,199.5c0.4,0.3,0.5,0.8,0.2,1.2l-6.3,8.3c-0.3,0.4-0.8,0.4-1.1,0.2l-0.1-0.1
						c-0.4-0.3-0.4-0.8-0.2-1.1l6.3-8.3C130.7,199.3,131.2,199.3,131.6,199.5z"/>
					<path class="st17" d="M132,208.1L132,208.1c-0.4,0.3-0.9,0.2-1.2-0.1l-6.3-8.4c-0.3-0.4-0.2-0.9,0.2-1.1l0.1-0.1
						c0.4-0.3,0.9-0.2,1.1,0.2l6.3,8.4C132.5,207.4,132.4,207.9,132,208.1z"/>
					<path class="st17" d="M120.9,208.6L120.9,208.6c0.4,0,0.7,0.3,0.7,0.7v3.6c0,0.4-0.3,0.7-0.7,0.7h-0.1c-0.4,0-0.7-0.3-0.7-0.7
						v-3.6C120.3,208.9,120.6,208.6,120.9,208.6z"/>
					<path class="st17" d="M123.7,208.2L123.7,208.2c0.4,0,0.7,0.3,0.7,0.7v4.1c0,0.4-0.3,0.7-0.7,0.7h-0.1c-0.4,0-0.7-0.3-0.7-0.7
						v-4.1C123,208.5,123.3,208.2,123.7,208.2z"/>
					<path class="st17" d="M124.4,208.2h6.8c0.4,0,0.7,0.3,0.7,0.7v0.1c0,0.4-0.3,0.7-0.7,0.7h-6.8c-0.4,0-0.7-0.3-0.7-0.7v-0.1
						C123.7,208.5,124,208.2,124.4,208.2z"/>
					<path class="st17" d="M119,213.2h13.4c0.4,0,0.7,0.3,0.7,0.7v0.1c0,0.4-0.3,0.7-0.7,0.7H119c-0.4,0-0.7-0.3-0.7-0.7v-0.1
						C118.3,213.5,118.6,213.2,119,213.2z"/>
					<path class="st17" d="M132.2,214.6L132.2,214.6c-0.5,0-0.8-0.3-0.8-0.8v-5.4c0-0.4,0.3-0.8,0.8-0.8h0.1c0.4,0,0.8,0.3,0.8,0.8
						v5.4C133,214.2,132.7,214.6,132.2,214.6z"/>
					<path class="st17" d="M139,207.5L139,207.5c0.5,0,0.8,0.3,0.8,0.8v5.5c0,0.4-0.3,0.8-0.8,0.8H139c-0.4,0-0.8-0.3-0.8-0.8v-5.5
						C138.2,207.9,138.5,207.5,139,207.5z"/>
					<path class="st16" d="M134.9,124.2h1.5c7.9,0,14.2,6.4,14.2,14.2v28.5c0,7.9-6.4,14.2-14.2,14.2h-1.5
						c-7.9,0-14.2-6.4-14.2-14.2v-28.5C120.7,130.6,127.1,124.2,134.9,124.2z"/>
					<path class="st18" d="M134.6,123.6h1.8c9.5,0,17.3,7.7,17.3,17.3c0,0,0,0,0,0v40.2l0,0h-36.4l0,0v-40.3
						C117.4,131.3,125.1,123.6,134.6,123.6z"/>
					<path class="st19" d="M118,165.3c-1.3,0-2.4-1.1-2.4-2.4v-0.3c0-1.3,1.1-2.4,2.4-2.4h35.4c1.3,0,2.4,1.1,2.4,2.4v0.3
						c0,1.3-1.1,2.4-2.4,2.4"/>
					<path class="st20" d="M135.7,133.3L135.7,133.3c0.1,0,0.1,0.1,0.1,0.1l0,0c0,0.1-0.1,0.1-0.1,0.1l0,0c-0.1,0-0.1-0.1-0.1-0.1
						l0,0C135.5,133.4,135.6,133.3,135.7,133.3z"/>
					<path class="st20" d="M125.3,84.5H146c3.6,0,6.6,2.9,6.6,6.6v0.7c0,3.6-2.9,6.6-6.6,6.6h-20.7c-3.6,0-6.5-2.9-6.5-6.6V91
						C118.8,87.4,121.7,84.5,125.3,84.5z"/>
					<path class="st16" d="M153.6,107.7c0,1.9-1.5,3.5-3.4,3.5s-3.4-1.5-3.4-3.4c0-1.9,1.5-3.5,3.4-3.5l0,0
						C152.1,104.3,153.6,105.8,153.6,107.7C153.6,107.7,153.6,107.7,153.6,107.7z"/>
					<circle class="st21" cx="150.2" cy="107.7" r="2.1"/>
					<circle class="st16" cx="121.2" cy="107.7" r="3.4"/>
					<circle class="st21" cx="121.2" cy="107.7" r="2.1"/>
					<rect x="124.8" y="96.1" class="st16" width="21.8" height="16.4"/>
					<path class="st14" d="M130.3,103h0.1c0.7,0,1.2,0.5,1.2,1.2v2.3c0,0.7-0.5,1.2-1.2,1.2h-0.1c-0.7,0-1.2-0.5-1.2-1.2v-2.3
						C129.1,103.5,129.7,103,130.3,103z"/>
					<path class="st14" d="M140.9,103h0.1c0.7,0,1.2,0.5,1.2,1.2v2.3c0,0.7-0.5,1.2-1.2,1.2h-0.1c-0.7,0-1.2-0.5-1.2-1.2v-2.3
						C139.7,103.5,140.2,103,140.9,103z"/>
					<path class="st20" d="M128.3,100.2l4-1.5c0.5-0.2,1,0.1,1.1,0.5l0,0.1c0.2,0.5-0.1,1-0.5,1.1l-4,1.5c-0.5,0.2-1-0.1-1.1-0.5
						l0-0.1C127.6,100.9,127.8,100.4,128.3,100.2z"/>
					<path class="st20" d="M142.4,102l-4-1.5c-0.5-0.2-0.7-0.7-0.5-1.1l0-0.1c0.2-0.5,0.7-0.7,1.1-0.5l4,1.5
						c0.5,0.2,0.7,0.7,0.5,1.1l0,0.1C143.4,101.9,142.9,102.2,142.4,102z"/>
					<path class="st20" d="M121.8,90.1l8.1-5.2c0.1,0.1,0.2,0.3,0.2,0.4c2.7,4.6,1.1,10.5-3.5,13.1c-4.6,2.7-10.5,1.1-13.1-3.5l0,0
						L121.8,90.1z"/>
					<path class="st20" d="M149.1,92.8l-3.2-3.7l-0.2,0.2c-2,1.7-2.2,4.8-0.5,6.8c1.7,2,4.8,2.2,6.8,0.5c0.1-0.1,0.2-0.2,0.3-0.3
						L149.1,92.8z"/>
					<path class="st20" d="M139.5,86.3c0,3.5-2.8,6.3-6.3,6.3c-3.5,0-6.3-2.8-6.3-6.3c0-3.5,2.8-6.3,6.3-6.3c0,0,0,0,0,0
						C136.7,80.1,139.5,82.9,139.5,86.3z"/>
					<path class="st20" d="M147.1,87.9c0,3.3-2.6,5.9-5.9,5.9c-3.3,0-5.9-2.6-5.9-5.9c0-3.3,2.6-5.9,5.9-5.9c0,0,0,0,0,0
						C144.4,82,147.1,84.6,147.1,87.9z"/>
					<path class="st20" d="M146.1,96.6v12.2h-21.3V96.6h-2.7v19.8v0.1c0.2,7.3,6.2,13.1,13.5,13.2l0,0c7.2,0,13.1-5.7,13.5-12.9l0,0
						V96.6H146.1z"/>
					<path class="st21" d="M138.7,113.1h-6.6c-0.5,0-0.9-0.4-0.9-0.9l0,0c0-0.5,0.4-1,0.9-1h6.6c0.5,0,1,0.5,0.9,1l0,0
						C139.7,112.6,139.3,113,138.7,113.1z"/>
					<path class="st22" d="M135.2,105.2h0.2c1,0,1.9,0.9,1.9,1.9v2.7c0,1-0.9,1.9-1.9,1.9h-0.2c-1,0-1.9-0.9-1.9-1.9v-2.7
						C133.3,106.1,134.1,105.2,135.2,105.2z"/>
					<path class="st16" d="M144.1,128.6c0,5.2,4.2,9.4,9.4,9.4s9.4-4.2,9.4-9.4c0-5.2-4.2-9.4-9.4-9.4c0,0,0,0,0,0
						C148.3,119.2,144.1,123.4,144.1,128.6z"/>
					<path class="st16" d="M163.4,150.6l-0.6,0.2c-2.9,1.3-6.3,0-7.6-2.9l-3.8-8.5c-1.3-2.9,0-6.3,2.9-7.6l0.6-0.2
						c2.9-1.3,6.3,0,7.6,2.9l3.8,8.5C167.7,145.9,166.4,149.3,163.4,150.6z"/>
					<circle class="st19" cx="123.1" cy="142.4" r="7.4"/>
					<path class="st16" d="M127,147.4l-3.9-2.8l-3.9,2.8l1.5-4.6l-3.9-2.8h4.8l1.5-4.6l1.5,4.6h4.8l-3.9,2.9L127,147.4z
						 M117.7,140.2l3.4,2.4l-1.3,3.9l3.3-2.4l3.4,2.4l-1.3-3.9l3.4-2.4h-4.2l-1.3-3.9l-1.3,3.9H117.7z"/>
					<path class="st16" d="M123.1,144.6l-2.4-1.8l0.9-2.9h3l0.9,2.9L123.1,144.6z M121,142.7l2.1,1.5l2.1-1.5l-0.8-2.4h-2.6
						L121,142.7z"/>
					<path class="st19" d="M142,145.6c0,4.1-3.3,7.4-7.4,7.4c-4.1,0-7.4-3.3-7.4-7.4c0-4.1,3.3-7.4,7.4-7.4c0,0,0,0,0,0
						C138.7,138.3,142,141.6,142,145.6z"/>
					<path class="st16" d="M138.5,150.7l-3.9-2.9l-3.9,2.9l1.5-4.6l-3.9-2.8h4.8l1.5-4.6l1.5,4.6h4.9l-3.9,2.8L138.5,150.7z
						 M129.2,143.5l3.4,2.4l-1.3,3.9l3.4-2.4l3.4,2.4l-1.3-3.9l3.4-2.4h-4.1l-1.3-4l-1.3,4L129.2,143.5z"/>
					<path class="st16" d="M134.6,147.8l-2.4-1.8l0.9-2.8h3l0.9,2.8L134.6,147.8z M132.6,146l2.1,1.5l2.1-1.5l-0.8-2.4h-2.6
						L132.6,146z"/>
					<circle class="st19" cx="144.9" cy="141.1" r="8.6"/>
					<path class="st16" d="M149.5,147l-4.6-3.3l-4.6,3.3l1.8-5.4l-4.6-3.3h5.7l1.7-5.4l1.8,5.4h5.7l-4.6,3.3L149.5,147z
						 M138.6,138.6l3.9,2.9l-1.5,4.6l3.9-2.9l3.9,2.9l-1.5-4.6l3.9-2.9h-4.9l-1.5-4.6l-1.5,4.6H138.6z"/>
					<path class="st16" d="M144.9,143.6l-2.8-2.1l1.1-3.3h3.5l1.1,3.3L144.9,143.6z M142.5,141.4l2.4,1.8l2.4-1.8l-0.9-2.9h-3
						L142.5,141.4z"/>
					<path class="st21" d="M134.6,153.1c-3.1,0-5.9-1.8-7.2-4.6c-3.7,2.4-8.6,1.4-11-2.3c-2.4-3.7-1.4-8.6,2.3-11
						c1.3-0.8,2.8-1.3,4.3-1.3c0.2,0,0.4,0,0.6,0c0-4.4,3.6-7.9,7.9-7.9c4.1,0,7.5,3.1,7.9,7.1c4.1-3,9.8-2.2,12.8,1.9
						s2.2,9.8-1.9,12.8c-1.6,1.2-3.5,1.8-5.5,1.8c-1.2,0-2.3-0.2-3.4-0.7C140.1,151.6,137.5,153.1,134.6,153.1z M128,146.8l0.3,0.7
						c1.3,3.5,5.1,5.4,8.7,4.1c1.7-0.6,3.1-1.8,3.9-3.4l0.2-0.5l0.5,0.2c4,1.9,8.8,0.1,10.7-3.9c1.9-4,0.1-8.8-3.9-10.7
						c-3-1.4-6.6-0.8-9,1.5l-1,1l0.1-1.6c0-0.1,0-0.2,0-0.2c0-3.8-3-6.8-6.8-6.8s-6.8,3-6.8,6.8c0,0.2,0,0.4,0,0.6l0.1,0.7l-0.7-0.1
						c-0.4-0.1-0.7-0.1-1.1-0.1c-3.8,0-6.8,3.1-6.8,6.8c0,3.8,3,6.8,6.8,6.8c1.6,0,3.1-0.5,4.3-1.5L128,146.8z"/>
					<circle class="st19" cx="131.6" cy="134.5" r="7.4"/>
					<path class="st16" d="M135.5,139.5l-3.9-2.8l-3.9,2.8l1.5-4.6l-3.9-2.8h4.8l1.5-4.6l1.5,4.6h4.8l-3.9,2.8L135.5,139.5z
						 M126.1,132.4l3.4,2.4l-1.3,3.9l3.4-2.4l3.4,2.4l-1.3-3.9l3.4-2.4h-4.1l-1.3-4l-1.3,4H126.1z"/>
					<path class="st16" d="M131.6,136.7l-2.4-1.8l0.9-2.8h3l0.9,2.8L131.6,136.7z M129.5,134.8l2.1,1.5l2.1-1.5l-0.8-2.4h-2.6
						L129.5,134.8z"/>
					<path class="st16" d="M108.8,145.4l0.1-0.4c0.6-2,2.7-3.2,4.8-2.6l19.8,5.9c2,0.6,3.2,2.7,2.6,4.8l-0.1,0.4
						c-0.6,2-2.7,3.2-4.8,2.6l-19.8-5.9C109.3,149.6,108.2,147.4,108.8,145.4z"/>
					<path class="st16" d="M135.5,153.2l-0.1-0.4c-0.6-2.3,0.8-4.6,3.1-5.1l23-5.7c2.3-0.6,4.6,0.8,5.1,3.1l0.1,0.4
						c0.6,2.3-0.8,4.6-3.1,5.1l-23,5.7C138.4,156.9,136.1,155.5,135.5,153.2z"/>
					<rect x="95.3" y="212.4" class="st16" width="9.7" height="11.4"/>
					<rect x="80.7" y="183.6" class="st21" width="3.7" height="11.3"/>
					<rect x="116.3" y="182.1" class="st21" width="2.7" height="12.8"/>
					<path class="st16" d="M76.3,196.9c0,2.5,2.1,4.6,4.6,4.6c2.5,0,4.6-2.1,4.6-4.6c0-2.5-2.1-4.6-4.6-4.6c0,0,0,0,0,0
						C78.4,192.2,76.3,194.3,76.3,196.9L76.3,196.9z"/>
					<path class="st21" d="M78.1,196.9c0,1.6,1.3,2.8,2.8,2.8c1.6,0,2.8-1.3,2.8-2.8s-1.3-2.8-2.8-2.8c0,0,0,0,0,0
						C79.4,194,78.1,195.3,78.1,196.9C78.1,196.8,78.1,196.8,78.1,196.9z"/>
					<path class="st16" d="M115.1,196.9c0,2.5,2.1,4.6,4.6,4.6c2.5,0,4.6-2.1,4.6-4.6c0-2.5-2.1-4.6-4.6-4.6c0,0,0,0,0,0
						C117.1,192.2,115.1,194.3,115.1,196.9C115.1,196.8,115.1,196.8,115.1,196.9z"/>
					<path class="st21" d="M116.9,196.9c0,1.6,1.3,2.8,2.8,2.8s2.8-1.3,2.8-2.8c0-1.6-1.3-2.8-2.8-2.8c0,0,0,0,0,0
						C118.1,194,116.9,195.3,116.9,196.9z"/>
					<path class="st21" d="M117.4,182.4c-2.8,4.7-9.9,8.1-18.2,8.1c-7.3,0-13.7-2.6-17-6.5c-0.6,1.8-0.8,3.6-0.8,5.5v9.7
						c0,10.3,8.4,18.7,18.8,18.7l0,0c10.3,0,18.7-8.4,18.8-18.7v-9.7C118.9,187.1,118.4,184.7,117.4,182.4z"/>
					<path class="st16" d="M117.4,181.5c-2.8,4.7-9.9,8.1-18.2,8.1c-7.3,0-13.7-2.6-17-6.5c-0.6,1.8-0.8,3.6-0.8,5.5v9.7
						c0,10.3,8.4,18.7,18.8,18.7l0,0c10.3,0,18.7-8.4,18.8-18.7v-9.7C118.9,186.2,118.4,183.8,117.4,181.5z"/>
					<path class="st20" d="M99.4,190.9c8.9,0,16.5-3.4,20-8.3c0.4-0.5,0.4-1.2,0.1-1.8c-3.5-7.4-11-12.1-19.1-12.1l0,0
						c-8.8,0-16.7,5.5-19.8,13.7c-0.3,0.7-0.1,1.6,0.4,2.2C84.9,188.3,91.7,190.9,99.4,190.9z"/>
					<path class="st16" d="M83.2,319.6l0.6-0.7c0.3-0.4,0.8-0.6,1.3-0.8l3-0.6c0,0,0-0.1,0-0.1v-21.5c0-2.3,1.8-4.1,4.1-4.1
						c2.3,0,4.1,1.8,4.1,4.1v20.8c0.6,0.5,1,1.2,1,1.9v2.7c0,1.4-1.1,2.5-2.4,2.5h0H85c-1.4,0-2.5-1.1-2.5-2.4
						C82.5,320.7,82.8,320.1,83.2,319.6z"/>
					<path class="st17" d="M88.6,298.4h7.5c0.4,0,0.7,0.3,0.7,0.7v0.1c0,0.4-0.3,0.7-0.7,0.7h-7.5c-0.4,0-0.7-0.3-0.7-0.7v-0.1
						C87.9,298.7,88.2,298.4,88.6,298.4z"/>
					<path class="st17" d="M96.1,299.3l0.1,0.1c0.4,0.3,0.4,0.8,0.2,1.1l-6.6,8.8c-0.3,0.4-0.8,0.4-1.1,0.2l-0.1-0.1
						c-0.4-0.3-0.4-0.8-0.2-1.1l6.6-8.8C95.2,299.1,95.7,299.1,96.1,299.3z"/>
					<path class="st17" d="M96.3,309.4l-0.1,0.1c-0.3,0.2-0.8,0.2-1-0.1l-6.8-8.9c-0.2-0.3-0.2-0.8,0.1-1l0.1-0.1
						c0.3-0.2,0.8-0.2,1,0.1l6.8,8.9C96.7,308.7,96.6,309.2,96.3,309.4z"/>
					<path class="st17" d="M96.1,308.2l0.1,0.1c0.4,0.3,0.4,0.8,0.2,1.1l-6.6,8.8c-0.3,0.4-0.8,0.4-1.1,0.2l-0.1-0.1
						c-0.4-0.3-0.4-0.8-0.2-1.1l6.6-8.8C95.2,308,95.7,307.9,96.1,308.2z"/>
					<path class="st17" d="M96.2,318.3l-0.1,0.1c-0.4,0.3-0.9,0.2-1.1-0.2l-6.7-8.8c-0.3-0.4-0.2-0.9,0.2-1.1l0.1-0.1
						c0.4-0.3,0.9-0.2,1.1,0.2l6.7,8.8C96.7,317.5,96.6,318,96.2,318.3z"/>
					<path class="st17" d="M85,318.1h0.1c0.4,0,0.7,0.3,0.7,0.7v3.9c0,0.4-0.3,0.7-0.7,0.7H85c-0.4,0-0.7-0.3-0.7-0.7v-3.9
						C84.3,318.4,84.6,318.1,85,318.1z"/>
					<path class="st17" d="M87.9,317.4H88c0.4,0,0.7,0.3,0.7,0.7v4.5c0,0.4-0.3,0.7-0.7,0.7h-0.1c-0.4,0-0.7-0.3-0.7-0.7v-4.5
						C87.2,317.7,87.5,317.4,87.9,317.4z"/>
					<path class="st17" d="M88.7,317.3h7.1c0.4,0,0.7,0.3,0.7,0.7v0.1c0,0.4-0.3,0.7-0.7,0.7h-7.1c-0.4,0-0.7-0.3-0.7-0.7V318
						C87.9,317.6,88.2,317.3,88.7,317.3z"/>
					<path class="st17" d="M97.3,324H83.2c-0.4,0-0.7-0.3-0.7-0.7v-0.1c0-0.4,0.3-0.7,0.7-0.7h14.1c0.4,0,0.7,0.3,0.7,0.7v0.1
						C98,323.7,97.7,324,97.3,324z"/>
					<path class="st16" d="M104.8,316.7v-20.8c0-2.3,1.8-4.1,4.1-4.1c2.3,0,4.1,1.8,4.1,4.1v21.5c0,0,0,0.1,0,0.1l3,0.6
						c0.5,0.1,1,0.4,1.3,0.8l0.6,0.7c0.9,1,0.8,2.5-0.2,3.5c-0.5,0.4-1,0.6-1.7,0.6h-9.8c-1.4,0-2.4-1.1-2.4-2.5l0,0v-2.7
						C103.8,317.9,104.2,317.1,104.8,316.7z"/>
					<path class="st17" d="M112.5,300h-7.5c-0.4,0-0.7-0.3-0.7-0.7v-0.1c0-0.4,0.3-0.7,0.7-0.7h7.5c0.4,0,0.7,0.3,0.7,0.7v0.1
						C113.2,299.7,112.9,300,112.5,300z"/>
					<path class="st17" d="M112.7,309.4l-0.1,0.1c-0.4,0.3-0.9,0.2-1.1-0.2l-6.7-8.8c-0.3-0.4-0.2-0.9,0.2-1.1l0.1-0.1
						c0.4-0.3,0.9-0.2,1.1,0.2l6.7,8.8C113.1,308.6,113,309.2,112.7,309.4z"/>
					<path class="st17" d="M112.5,299.3l0.1,0.1c0.4,0.3,0.4,0.8,0.2,1.1l-6.6,8.8c-0.3,0.4-0.8,0.4-1.1,0.2l-0.1-0.1
						c-0.4-0.3-0.4-0.8-0.2-1.1l6.6-8.8C111.7,299.1,112.2,299.1,112.5,299.3z"/>
					<path class="st17" d="M112.7,318.3l-0.1,0.1c-0.4,0.3-0.9,0.2-1.1-0.2l-6.7-8.8c-0.3-0.4-0.2-0.9,0.2-1.1l0.1-0.1
						c0.4-0.3,0.9-0.2,1.1,0.2l6.7,8.8C113.1,317.5,113,318,112.7,318.3z"/>
					<path class="st17" d="M113.8,308.6l0.1,0.1c0.4,0.3,0.4,0.8,0.2,1.1l-6.6,8.8c-0.3,0.4-0.8,0.4-1.1,0.2l-0.1-0.1
						c-0.4-0.3-0.4-0.8-0.2-1.1l6.6-8.8C113,308.4,113.5,308.3,113.8,308.6z"/>
					<path class="st17" d="M116.2,322.9h-0.1c-0.4,0-0.7-0.3-0.7-0.7v-3.9c0-0.4,0.3-0.7,0.7-0.7h0.1c0.4,0,0.7,0.3,0.7,0.7v3.9
						C116.8,322.6,116.6,322.9,116.2,322.9z"/>
					<path class="st17" d="M113.3,322.9h-0.1c-0.4,0-0.7-0.3-0.7-0.7V318c0-0.4,0.3-0.7,0.7-0.7h0.1c0.4,0,0.7,0.3,0.7,0.7v4.3
						C114,322.6,113.7,322.9,113.3,322.9z"/>
					<path class="st17" d="M112.5,318.9h-7.1c-0.4,0-0.7-0.3-0.7-0.7v-0.1c0-0.4,0.3-0.7,0.7-0.7h7.1c0.4,0,0.7,0.3,0.7,0.7v0.1
						C113.2,318.6,112.9,318.9,112.5,318.9z"/>
					<path class="st17" d="M118.2,324h-14.1c-0.4,0-0.7-0.3-0.7-0.7v-0.1c0-0.4,0.3-0.7,0.7-0.7h14.1c0.4,0,0.7,0.3,0.7,0.7v0.1
						C118.9,323.7,118.6,324,118.2,324z"/>
					<path class="st17" d="M104.3,316.7h0.1c0.4,0,0.8,0.3,0.8,0.8v5.7c0,0.4-0.3,0.8-0.8,0.8h-0.1c-0.4,0-0.8-0.3-0.8-0.8v-5.7
						C103.5,317,103.9,316.7,104.3,316.7z"/>
					<path class="st17" d="M97.3,324h-0.1c-0.4,0-0.8-0.3-0.8-0.8v-5.8c0-0.4,0.3-0.8,0.8-0.8h0.1c0.4,0,0.8,0.3,0.8,0.8v5.8
						C98.1,323.7,97.7,324,97.3,324z"/>
					<path class="st16" d="M100.3,227.4c-4.3,0-8.2-2.3-10.2-6.1c2.6-1.3,5.5-2,8.4-2h3.4c2.9,0,5.8,0.7,8.4,2
						C108.4,225,104.5,227.4,100.3,227.4z"/>
					<path class="st23" d="M88.7,222.1c0.4-0.3,0.9-0.5,1.4-0.8c3,5.6,10,7.7,15.7,4.7c2-1.1,3.6-2.7,4.7-4.7c1,0.5,2,1.1,2.9,1.8
						h0.1c-3,1.5-4.1,5.2-2.5,8.1c1.5,3,5.2,4.1,8.1,2.6l0,0c0,0.1,0,0.3,0,0.4v60H81.6v-60C81.7,229.2,84.4,224.6,88.7,222.1z"/>
					<path class="st16" d="M110.2,228.5c0-2.2,1.3-4.3,3.2-5.4c3.4,2.6,5.4,6.5,5.6,10.7c-2.9,1.6-6.6,0.5-8.1-2.4
						C110.4,230.5,110.2,229.5,110.2,228.5L110.2,228.5z"/>
					<path class="st24" d="M81.2,266.5h37c1.5,0,2.8-1.2,2.8-2.8l0,0c0-1.5-1.2-2.8-2.8-2.8h-37c-1.5,0-2.8,1.2-2.8,2.8l0,0
						C78.4,265.2,79.7,266.5,81.2,266.5z"/>
					<path class="st14" d="M106,200.8L106,200.8c1.3,0,2.3-1,2.3-2.3l0,0l0,0c0-1.3-1-2.3-2.3-2.3h0l0,0c-1.3,0-2.3,1-2.3,2.3l0,0
						l0,0C103.7,199.8,104.7,200.8,106,200.8L106,200.8z"/>
					<path class="st14" d="M90.1,200.8L90.1,200.8c1.3,0,2.3-1,2.3-2.3l0,0l0,0c0-1.3-1-2.3-2.3-2.3h0l0,0c-1.3,0-2.3,1-2.3,2.3l0,0
						l0,0C87.8,199.8,88.8,200.8,90.1,200.8L90.1,200.8z"/>
					<path class="st20" d="M87.1,194.6L92,195c0.9,0.1,1.7-0.6,1.8-1.6l0,0c0.1-0.9-0.6-1.7-1.6-1.8l-4.9-0.4
						c-0.9-0.1-1.7,0.6-1.8,1.6l0,0C85.5,193.8,86.2,194.5,87.1,194.6z"/>
					<path class="st20" d="M109.4,194.7l-4.9,0.3c-0.9,0.1-1.7-0.6-1.8-1.6l0,0c-0.1-0.9,0.6-1.7,1.6-1.8l4.9-0.4
						c0.9-0.1,1.7,0.6,1.8,1.6l0,0C111.1,193.8,110.4,194.6,109.4,194.7z"/>
					<path class="st21" d="M100,203.4c0.1-1.5-1-2.8-2.5-2.9c-1.5-0.1-2.8,1-2.9,2.5c0,0.1,0,0.2,0,0.3H100z"/>
					<path class="st21" d="M97.8,207.6c0-0.3-0.3-0.4-0.5-0.4c-0.2,0-0.4,0.2-0.4,0.4H97.8z"/>
					<path class="st21" d="M100.5,207.2L100.5,207.2c-2-0.5-3.9-0.6-5.8-0.3c-0.2,0-0.4-0.1-0.4-0.3c0-0.2,0.1-0.4,0.3-0.4l0,0
						c2-0.3,4-0.2,6,0.3c0.2,0,0.3,0.2,0.3,0.4c0,0,0,0,0,0C100.8,207.1,100.7,207.2,100.5,207.2z"/>
					<rect x="51.1" y="243" class="st20" width="149.4" height="47.9"/>
					<rect x="51.1" y="278.2" class="st25" width="149.4" height="47.9"/>
					<polygon class="st21" points="108.9,254.4 108.9,257.8 79.5,257.8 79.5,254.4 					"/>
					<ellipse class="st21" cx="94.2" cy="257.3" rx="14.7" ry="10.1"/>
					<ellipse class="st26" cx="94.2" cy="254.8" rx="14.7" ry="10.1"/>
					<ellipse class="st26" cx="94.2" cy="254.8" rx="14.7" ry="10.1"/>
					<ellipse class="st26" cx="94.2" cy="254.8" rx="14.7" ry="10.1"/>
					<ellipse class="st17" cx="94.4" cy="254.8" rx="12.8" ry="8.8"/>
					<path class="st16" d="M102.9,250.1l-4.9,4.7l4.9,4.7l-8-1.8l-4.9,4.7v-5.8l-8-1.8l8-1.8v-5.8l5,4.7L102.9,250.1z M90.5,261.3
						l4.2-4l6.9,1.5l-4.2-4l4.2-4l-6.9,1.5l-4.2-4v5l-6.9,1.5l6.9,1.5V261.3z"/>
					<path class="st16" d="M98,254.8l-3,2.9l-5-1.1V253l5-1.1L98,254.8z M94.8,257.3l2.6-2.5l-2.6-2.5l-4.2,0.9v3.1L94.8,257.3z"/>
					<polygon class="st27" points="91.3,260.2 92.3,255.2 90.3,255.2 					"/>
					<rect x="90.3" y="245.8" class="st27" width="2" height="9.4"/>
					<path class="st16" d="M89.7,258c-0.4,0-0.8-0.1-1.1-0.2c-10.2-3.1-15.8-7.8-16.8-14c-1.5-10.5,11.8-19.7,13.3-20.7
						c1.8-1.2,4.2-0.6,5.4,1.2c1.1,1.8,0.7,4.1-1.1,5.3l0,0c-3.5,2.4-10.6,8.6-10,13.1c0.4,2.9,4.4,5.6,11.3,7.7
						c2.1,0.6,3.2,2.8,2.6,4.9C92.8,256.9,91.4,258,89.7,258z"/>
					<path class="st28" d="M103.1,234.6c-2.1-1.2-4.8-1.1-6.8,0.3l-1.6,1.2c-0.1,0.1-0.1,0.2-0.1,0.3c0.1,0.8-0.4,1.5-1.2,1.7
						c-0.3,0.1-0.6,0-0.8-0.1c-0.1-0.1-0.2-0.1-0.3,0l-1.4,1.1c-0.1,0.1-0.1,0.2,0,0.3l1.8,2.3c0.1,0.1,0.2,0.1,0.3,0c0,0,0,0,0,0
						l1.4-1.1c0.1-0.1,0.1-0.2,0.1-0.3c-0.1-0.5,0.1-1,0.5-1.3l0.1-0.1c0.6-0.4,1.4-0.2,1.8,0.3l0.3,0.4l10.1,12.8l1.8-1.4L99,238.3
						l-0.6-0.8c0-2.2,3.2-2.5,4.6-2.5c0.1,0,0.2,0,0.2-0.1C103.3,234.7,103.2,234.6,103.1,234.6z"/>
					<path class="st17" d="M110.9,253.1l-4.2-5.4l-2,1.6l4.2,5.4c-0.2,0.3-0.2,0.7,0.1,0.9s0.7,0.2,0.9-0.1l0,0l1.6-1.3
						c0.3-0.2,0.3-0.6,0.1-0.9c0,0,0,0,0,0C111.5,253.1,111.2,253,110.9,253.1z"/>
					<path class="st16" d="M105.6,253.9c-2.1,0.2-4-1.4-4.2-3.5c-0.2-1.7,0.9-3.4,2.5-4c6.5-2.4,10.3-5.4,11-8.5
						c0.8-3.8-3.2-7.8-3.2-7.8c-1.6-1.5-1.6-3.9-0.2-5.5c1.5-1.6,3.9-1.6,5.5-0.2c0.3,0.3,7.2,6.9,5.5,15c-1.2,6-6.6,10.9-15.9,14.3
						C106.3,253.8,106,253.9,105.6,253.9z"/>
					<rect x="27.1" class="st13" width="175.1" height="290.9"/>
					<path class="st27" d="M18.2-2.9h47.4c0.3,0,0.6,0.3,0.6,0.6v289.5c0,0.3-0.3,0.6-0.6,0.6H18.2c-0.3,0-0.6-0.3-0.6-0.6V-2.3
						C17.6-2.6,17.9-2.9,18.2-2.9z"/>
					<path class="st5" d="M10,276.7H76c4,0,7.3,3.3,7.3,7.3v3.9c0,4-3.3,7.3-7.3,7.3H10c-4,0-7.3-3.3-7.3-7.3v-3.9
						C2.8,279.9,6,276.7,10,276.7z"/>
					<path class="st5" d="M30.3,16.1h0.1c1.4,0,2.5,1.1,2.5,2.5v247.3c0,1.4-1.1,2.5-2.5,2.5h-0.1c-1.4,0-2.5-1.1-2.5-2.5V18.5
						C27.8,17.2,28.9,16.1,30.3,16.1z"/>
					<path class="st5" d="M42.2,16.1h0.2c1.4,0,2.5,1.1,2.5,2.5v247.3c0,1.4-1.1,2.5-2.5,2.5h-0.2c-1.4,0-2.5-1.1-2.5-2.5V18.5
						C39.8,17.2,40.9,16.1,42.2,16.1z"/>
					<path class="st5" d="M54.8,16.1h0.1c1.4,0,2.5,1.1,2.5,2.5v247.3c0,1.4-1.1,2.5-2.5,2.5h-0.1c-1.4,0-2.5-1.1-2.5-2.5V18.5
						C52.3,17.2,53.4,16.1,54.8,16.1z"/>
					<rect x="17.6" y="-2.9" class="st28" width="48.5" height="14.5"/>
					<path class="st12" d="M72.2,65.1l0.1,0.2c1.3,2.9,0,6.3-2.9,7.7L21.1,94.8c-2.9,1.3-6.4,0-7.7-2.9l0,0l-0.1-0.2
						c-1.3-2.9,0-6.4,2.9-7.7l0,0l48.3-21.8C67.5,60.9,70.9,62.2,72.2,65.1L72.2,65.1z"/>
					<path class="st12" d="M72.2,160.2l0.1,0.2c1.3,2.9,0,6.4-2.9,7.7l0,0l-48.3,21.8c-2.9,1.3-6.4,0-7.7-2.9l0,0l-0.1-0.2
						c-1.3-2.9,0-6.4,2.9-7.7l48.3-21.8C67.4,155.9,70.9,157.2,72.2,160.2L72.2,160.2L72.2,160.2z"/>
					<path class="st27" d="M168.7-2.9h47.4c0.3,0,0.6,0.3,0.6,0.6v289.5c0,0.3-0.3,0.6-0.6,0.6h-47.4c-0.3,0-0.6-0.3-0.6-0.6V-2.3
						C168.1-2.6,168.4-2.9,168.7-2.9z"/>
					<path class="st5" d="M160.6,276.7h65.9c4,0,7.3,3.3,7.3,7.3v3.9c0,4-3.3,7.3-7.3,7.3h-65.9c-4,0-7.3-3.3-7.3-7.3v-3.9
						C153.3,279.9,156.6,276.7,160.6,276.7z"/>
					<path class="st5" d="M180.9,16.1h0.1c1.4,0,2.5,1.1,2.5,2.5v247.3c0,1.4-1.1,2.5-2.5,2.5h-0.1c-1.4,0-2.5-1.1-2.5-2.5V18.5
						C178.4,17.2,179.5,16.1,180.9,16.1z"/>
					<path class="st5" d="M192.8,16.1h0.1c1.4,0,2.5,1.1,2.5,2.5v247.3c0,1.4-1.1,2.5-2.5,2.5h-0.1c-1.4,0-2.5-1.1-2.5-2.5V18.5
						C190.3,17.2,191.4,16.1,192.8,16.1z"/>
					<path class="st5" d="M205.3,16.1h0.1c1.4,0,2.5,1.1,2.5,2.5v247.3c0,1.4-1.1,2.5-2.5,2.5h-0.1c-1.4,0-2.5-1.1-2.5-2.5V18.5
						C202.8,17.2,203.9,16.1,205.3,16.1z"/>
					<rect x="168.1" y="-2.9" class="st28" width="48.5" height="14.5"/>
					<path class="st12" d="M161.4,25.1l0.1-0.2c1.3-2.9,4.8-4.2,7.7-2.9c0,0,0,0,0,0l48.3,21.8c2.9,1.3,4.2,4.8,2.9,7.7l0,0
						l-0.1,0.2c-1.3,2.9-4.7,4.2-7.6,2.9l-48.3-21.8C161.4,31.5,160.1,28.1,161.4,25.1L161.4,25.1L161.4,25.1z"/>
					<path class="st12" d="M220.3,142.3l0.1-0.2c1.3-2.9,0-6.4-2.9-7.7l-48.3-21.8c-2.9-1.3-6.4,0-7.7,2.9l-0.1,0.2
						c-1.3,2.9,0,6.3,2.9,7.7l48.3,21.8C215.5,146.5,219,145.2,220.3,142.3z"/>
					<path class="st12" d="M161.4,197.6l0.1-0.2c1.3-2.9,4.8-4.2,7.7-2.9l0,0l48.3,21.8c2.9,1.3,4.2,4.8,2.9,7.7l0,0l-0.1,0.2
						c-1.3,2.9-4.7,4.2-7.6,2.9l-48.3-21.8C161.4,203.9,160.1,200.5,161.4,197.6L161.4,197.6L161.4,197.6z"/>
					<path class="st12" d="M191.1,135.5c1.5,0.4,3,0.2,4.4-0.5c0.7-0.4,1.3-0.9,1.9-1.4c0.1-0.1,0.1-0.3,0-0.4c0,0-0.1-0.1-0.2-0.1
						l-0.9-0.1c0.6-0.6,1.1-1.2,1.5-2c0.3-0.6,0.5-1,0.6-1.2c0.1-0.2,0-0.4-0.2-0.4c-0.1,0-0.1,0-0.2,0l-0.3,0.1l2-2.8
						c-1.6-0.2-3.2-0.2-4.8,0.1c-0.9,0.1-1.7,0.5-2.5,1l0.1-1c0-0.2-0.1-0.4-0.3-0.4c-0.1,0-0.1,0-0.2,0c-0.8,0.3-2.2,1.4-3.6,4.6
						C186.7,135.6,191.1,135.5,191.1,135.5z"/>
					<path class="st29" d="M188.6,130.9c1.3-3.3,2.8-4.3,3.6-4.6c0.2-0.1,0.4,0,0.5,0.2c0,0.1,0,0.1,0,0.2l-0.1,1
						c0.7-0.5,1.6-0.9,2.5-1c1.6-0.2,3.2-0.3,4.8-0.1c0,0-7,3-11.4,7.6C188,133.5,188,132.4,188.6,130.9z"/>
					<path class="st30" d="M187.1,150.4c0.3,1.7-0.8,3.3-2.4,3.6c-1.7,0.3-3.3-0.8-3.6-2.4c-0.3-1.7,0.8-3.3,2.4-3.6c0,0,0,0,0,0
						C185.1,147.7,186.7,148.8,187.1,150.4z"/>
					<g class="st31">
						<path class="st30" d="M186.9,149.8c0,0.1,0,0.2,0.1,0.2c0.2,1.2-0.6,2.5-1.8,2.7c-1.2,0.2-2.5-0.6-2.7-1.8
							c-0.2-1.2,0.6-2.5,1.8-2.7c0.4-0.1,0.8-0.1,1.1,0.1c-1.5-0.7-3.4,0-4.1,1.5c-0.7,1.5,0,3.4,1.5,4.1c1.5,0.7,3.4,0,4.1-1.5
							c0.3-0.6,0.3-1.2,0.2-1.9C187,150.2,186.9,150,186.9,149.8z"/>
					</g>
					<circle class="st30" cx="191" cy="144.8" r="3.3"/>
					<g class="st31">
						<path class="st30" d="M194,143.4l0.1,0.2c0.2,1.3-0.7,2.6-2,2.9c-1.3,0.2-2.6-0.7-2.9-2c-0.2-1.3,0.6-2.6,2-2.9
							c0.4-0.1,0.8-0.1,1.2,0.1c-1.7-0.8-3.6,0-4.4,1.6c-0.8,1.7,0,3.6,1.6,4.4c1.7,0.8,3.6,0,4.4-1.6c0.3-0.6,0.4-1.3,0.2-2
							C194.2,143.9,194.1,143.7,194,143.4z"/>
					</g>
					<path class="st30" d="M197.5,139.8c0.4,2-0.9,3.9-2.9,4.3c-2,0.4-3.9-0.9-4.3-2.9c-0.4-2,0.9-3.9,2.9-4.3c0,0,0,0,0,0
						C195.2,136.5,197.1,137.8,197.5,139.8C197.5,139.8,197.5,139.8,197.5,139.8z"/>
					<g class="st31">
						<path class="st30" d="M197.2,139c0,0.1,0.1,0.2,0.1,0.3c0.3,1.5-0.7,2.9-2.2,3.2c-1.5,0.3-2.9-0.7-3.2-2.2
							c-0.3-1.5,0.7-2.9,2.2-3.2c0,0,0,0,0,0c0.4-0.1,0.9-0.1,1.3,0.1c-0.7-0.3-1.5-0.4-2.2-0.3c-2,0.4-3.3,2.3-2.9,4.3
							c0.4,2,2.3,3.3,4.3,2.9c2-0.4,3.3-2.3,2.9-4.3c0,0,0,0,0,0C197.5,139.5,197.4,139.3,197.2,139z"/>
					</g>
					<path class="st12" d="M188.6,132.4c0,0-0.8-4.1,0.6-6.6c0.7-1.2,1.8-2.1,3.1-2.5c0.4-0.1,0.9,0.1,1,0.5l0,0
						c0.1,0.4-0.1,0.8-0.4,1c-1.3,0.5-2.3,1.5-2.8,2.8c-0.6,2.3-0.8,4.9-0.8,5S188.6,132.4,188.6,132.4z"/>
					<path class="st29" d="M189.1,127.7c0.6-2.2,2.6-3.6,4-4.2c-0.2-0.2-0.5-0.2-0.7-0.2c-1.3,0.4-2.4,1.3-3.1,2.5
						c-1.4,2.5-0.6,6.6-0.6,6.6c0.1,0,0.2,0.1,0.4,0.1C188.7,131,188.7,129.3,189.1,127.7z"/>
					<path class="st30" d="M187.7,131.5c0.3,1.7-0.8,3.3-2.4,3.6s-3.3-0.8-3.6-2.4c-0.3-1.7,0.8-3.3,2.4-3.6
						C185.8,128.7,187.4,129.8,187.7,131.5z"/>
					<g class="st31">
						<path class="st30" d="M187.5,130.8l0.1,0.2c0.2,1.2-0.6,2.5-1.8,2.7c-1.2,0.2-2.5-0.6-2.7-1.8c-0.2-1.2,0.6-2.5,1.8-2.7
							c0.4-0.1,0.8-0.1,1.1,0.1c-1.5-0.7-3.4,0-4.1,1.5c-0.7,1.5,0,3.4,1.5,4.1s3.4,0,4.1-1.5c0.3-0.6,0.3-1.2,0.2-1.8
							C187.7,131.2,187.6,131,187.5,130.8z"/>
					</g>
					<path class="st30" d="M192.2,132.9c0.3,1.7-0.8,3.3-2.4,3.6s-3.3-0.8-3.6-2.4c-0.3-1.7,0.8-3.3,2.4-3.6
						C190.2,130.1,191.8,131.2,192.2,132.9z"/>
					<g class="st31">
						<path class="st30" d="M192,132.2l0.1,0.2c0.2,1.2-0.6,2.5-1.8,2.7c-1.2,0.2-2.5-0.6-2.7-1.8c-0.2-1.2,0.6-2.5,1.8-2.7
							c0.4-0.1,0.7,0,1.1,0.1c-1.5-0.7-3.4,0-4.1,1.5c-0.7,1.5,0,3.4,1.5,4.1s3.4,0,4.1-1.5c0.3-0.6,0.3-1.2,0.2-1.8
							C192.2,132.6,192.1,132.4,192,132.2z"/>
					</g>
					<path class="st30" d="M196.2,134.1c0.3,1.7-0.8,3.3-2.4,3.6c-1.7,0.3-3.3-0.8-3.6-2.4c-0.3-1.7,0.8-3.3,2.4-3.6
						C194.3,131.4,195.9,132.5,196.2,134.1C196.2,134.1,196.2,134.1,196.2,134.1z"/>
					<g class="st31">
						<path class="st30" d="M196,133.5l0.1,0.2c0.2,1.2-0.6,2.5-1.8,2.7c-1.2,0.2-2.5-0.6-2.7-1.8c-0.2-1.2,0.6-2.5,1.8-2.7
							c0,0,0,0,0,0c0.4-0.1,0.8-0.1,1.1,0.1c-1.5-0.7-3.3,0-4.1,1.5c-0.1,0.2-0.2,0.4-0.2,0.7c-0.1,0.4-0.1,0.8,0,1.2
							c0.4,1.6,2.1,2.6,3.7,2.2c1.5-0.4,2.5-1.8,2.3-3.4C196.2,133.9,196.1,133.7,196,133.5z"/>
					</g>
					<path class="st30" d="M185.2,146.1c0.3,1.7-0.8,3.3-2.4,3.6c-1.7,0.3-3.3-0.8-3.6-2.4c-0.3-1.7,0.8-3.3,2.4-3.6c0,0,0,0,0,0
						C183.3,143.4,184.9,144.5,185.2,146.1z"/>
					<g class="st31">
						<path class="st30" d="M185,145.5l0.1,0.2c0.2,1.3-0.6,2.5-1.8,2.7s-2.5-0.6-2.7-1.8s0.6-2.5,1.8-2.7c0,0,0,0,0,0
							c0.4-0.1,0.8,0,1.1,0.1c-1.5-0.7-3.4,0-4.1,1.5c-0.7,1.5,0,3.4,1.5,4.1c1.5,0.7,3.4,0,4.1-1.5c0.3-0.6,0.3-1.2,0.2-1.9
							C185.2,145.9,185.1,145.7,185,145.5z"/>
					</g>
					<path class="st30" d="M190.5,147.5c0.3,1.7-0.8,3.3-2.4,3.6c-1.7,0.3-3.3-0.8-3.6-2.4c-0.3-1.7,0.8-3.3,2.4-3.6
						C188.6,144.8,190.2,145.8,190.5,147.5C190.5,147.5,190.5,147.5,190.5,147.5z"/>
					<g class="st31">
						<path class="st30" d="M190.3,146.8c0,0.1,0,0.2,0.1,0.2c0.3,1.3-0.6,2.5-1.8,2.7c-1.3,0.3-2.5-0.6-2.7-1.8
							c-0.3-1.3,0.6-2.5,1.8-2.7c0.4-0.1,0.8-0.1,1.1,0.1c-0.6-0.3-1.2-0.4-1.9-0.2c-1.7,0.3-2.8,1.9-2.4,3.6s1.9,2.8,3.6,2.4
							s2.8-1.9,2.4-3.6c0,0,0,0,0,0C190.5,147.3,190.4,147.1,190.3,146.8z"/>
					</g>
					<path class="st30" d="M184.2,141.1c0.3,1.8-0.8,3.5-2.6,3.9c-1.8,0.3-3.5-0.8-3.9-2.6c-0.3-1.8,0.8-3.5,2.6-3.9
						C182.2,138.1,183.9,139.3,184.2,141.1C184.2,141.1,184.2,141.1,184.2,141.1z"/>
					<g class="st31">
						<path class="st30" d="M184,140.4c0,0.1,0.1,0.2,0.1,0.2c0.2,1.3-0.7,2.6-2,2.9c-1.3,0.2-2.6-0.7-2.9-2c-0.2-1.3,0.6-2.6,2-2.9
							c0.4-0.1,0.8-0.1,1.2,0.1c-1.7-0.8-3.6,0-4.4,1.6c-0.8,1.7,0,3.6,1.6,4.4c1.7,0.8,3.6,0,4.4-1.6c0.3-0.6,0.4-1.3,0.2-2
							C184.2,140.8,184.1,140.6,184,140.4z"/>
					</g>
					<path class="st30" d="M189.3,142.8c0.3,1.8-0.8,3.5-2.6,3.9s-3.5-0.8-3.9-2.6c-0.3-1.8,0.8-3.5,2.6-3.9
						C187.2,139.8,189,141,189.3,142.8z"/>
					<g class="st31">
						<path class="st30" d="M189.1,142.1c0,0.1,0,0.2,0.1,0.2c0.2,1.3-0.7,2.6-2,2.9c-1.3,0.2-2.6-0.7-2.9-2c-0.2-1.3,0.6-2.6,2-2.9
							c0.4-0.1,0.8-0.1,1.2,0.1c-0.6-0.3-1.3-0.4-2-0.2c-1.8,0.3-3,2.1-2.6,3.9s2.1,3,3.9,2.6c1.8-0.3,3-2.1,2.6-3.9
							C189.3,142.5,189.2,142.3,189.1,142.1z"/>
					</g>
					<path class="st30" d="M194.1,138.7c0.4,2-0.9,3.9-2.9,4.3c-2,0.4-3.9-0.9-4.3-2.9c-0.4-2,0.9-3.9,2.9-4.3c0,0,0,0,0,0
						C191.8,135.4,193.7,136.7,194.1,138.7z"/>
					<g class="st31">
						<path class="st30" d="M193.8,137.9c0,0.1,0.1,0.2,0.1,0.3c0.3,1.5-0.7,2.9-2.2,3.2c-1.5,0.3-2.9-0.7-3.2-2.2
							c-0.3-1.5,0.7-2.9,2.2-3.2c0,0,0,0,0,0c0.4-0.1,0.9-0.1,1.3,0c-0.7-0.3-1.5-0.4-2.2-0.3c-2,0.4-3.3,2.3-2.9,4.3
							c0.4,2,2.3,3.3,4.3,2.9c2-0.4,3.3-2.3,2.9-4.3c0,0,0,0,0,0C194,138.4,193.9,138.1,193.8,137.9z"/>
					</g>
					<path class="st30" d="M184.8,135.3c0.4,2-0.9,3.9-2.9,4.3c-2,0.4-3.9-0.9-4.3-2.9c-0.4-2,0.9-3.9,2.9-4.3c0,0,0,0,0,0
						C182.5,132,184.4,133.3,184.8,135.3C184.8,135.3,184.8,135.3,184.8,135.3z"/>
					<g class="st31">
						<path class="st30" d="M184.5,134.5c0,0.1,0,0.2,0.1,0.3c0.3,1.5-0.7,2.9-2.2,3.2c-1.5,0.3-2.9-0.7-3.2-2.2
							c-0.3-1.5,0.7-2.9,2.2-3.2c0,0,0,0,0,0c0.4-0.1,0.9-0.1,1.3,0.1c-1.8-0.8-4,0-4.9,1.8c-0.8,1.8,0,4,1.8,4.9
							c1.8,0.8,4,0,4.9-1.8c0.3-0.7,0.4-1.5,0.3-2.2C184.7,135,184.6,134.8,184.5,134.5z"/>
					</g>
					<path class="st30" d="M189.8,137.1c0.4,2-0.9,3.9-2.9,4.3c-2,0.4-3.9-0.9-4.3-2.9c-0.4-2,0.9-3.9,2.9-4.3
						C187.5,133.9,189.4,135.2,189.8,137.1z"/>
					<g class="st31">
						<path class="st30" d="M189.5,136.4c0,0.1,0.1,0.2,0.1,0.3c0.3,1.5-0.7,2.9-2.2,3.2c-1.5,0.3-2.9-0.7-3.2-2.2
							c-0.3-1.5,0.7-2.9,2.2-3.2c0,0,0,0,0,0c0.4-0.1,0.9-0.1,1.3,0.1c-1.8-0.8-4,0-4.9,1.8c-0.8,1.8,0,4,1.8,4.9
							c0.7,0.3,1.5,0.4,2.2,0.3c2-0.4,3.3-2.3,2.9-4.3C189.7,136.9,189.7,136.6,189.5,136.4z"/>
					</g>
					<g class="st32">
						<path class="st5" d="M186.8,130.9c0,0.3-0.4,0.2-0.4,0c0-0.2-0.1-0.5-0.3-0.6h-0.1h-0.1h-0.1l0,0h-0.1c-0.1,0-0.2-0.1-0.1-0.2
							c0,0,0,0,0,0c0-0.1,0.1-0.2,0.2-0.1c0,0,0,0,0,0h0.1c0.2,0,0.4,0.1,0.5,0.2l0,0C186.6,130.3,186.8,130.6,186.8,130.9z
							 M190.4,131.1c-0.6-0.1-1.2,0.1-1.6,0.6c-0.2,0.2,0.1,0.4,0.3,0.2c0.3-0.3,0.8-0.5,1.2-0.4
							C190.7,131.6,190.7,131.1,190.4,131.1L190.4,131.1z M193.7,132.3c-0.7,0.2-1.2,0.7-1.3,1.4c0,0.1,0.1,0.2,0.2,0.2
							c0.1,0,0.2-0.1,0.2-0.2c0.1-0.5,0.4-0.9,0.9-1C194,132.6,193.9,132.2,193.7,132.3L193.7,132.3z M191.9,136.4
							c-0.2-0.1-0.4,0.3-0.1,0.4c0.4,0.2,0.7,0.6,0.7,1.1c0,0.3,0.4,0.3,0.4,0C192.8,137.2,192.4,136.6,191.9,136.4L191.9,136.4z
							 M188.1,135.8c-0.8-0.3-1.8-0.1-2.4,0.6c-0.2,0.2,0.1,0.4,0.3,0.2c0.5-0.5,1.2-0.7,1.9-0.4
							C188.2,136.3,188.3,135.9,188.1,135.8L188.1,135.8z M181.6,133.3c-0.8,0.3-1.3,1.2-1,2.1c0.1,0.3,0.5,0.1,0.4-0.2
							c-0.2-0.7,0.2-1.3,0.8-1.6C182,133.6,181.8,133.2,181.6,133.3L181.6,133.3z M196.1,138.1c-0.1-0.1-0.2,0-0.3,0s0,0.2,0,0.3
							c0.3,0.2,0.4,0.5,0.3,0.9c-0.1,0.3,0.4,0.3,0.4,0C196.7,138.9,196.5,138.4,196.1,138.1L196.1,138.1z M191.3,145.5
							c-0.5-0.1-0.9-0.6-0.8-1.2c0,0,0-0.1,0-0.1c0.1-0.3-0.4-0.3-0.4-0.1c-0.2,0.8,0.3,1.5,1.1,1.7c0,0,0,0,0,0
							C191.6,145.9,191.6,145.5,191.3,145.5L191.3,145.5z M185.7,143.6c-0.4-0.3-0.6-0.7-0.5-1.2c0-0.3-0.4-0.3-0.4,0
							c-0.1,0.8,0.3,1.5,1,1.8c0.1,0,0.2,0,0.3-0.1c0,0,0-0.1,0-0.1c0-0.1,0-0.2,0-0.2C186.1,143.5,185.8,143.5,185.7,143.6
							L185.7,143.6z M180.6,142.2c-0.5-0.2-0.7-0.7-0.5-1.2c0,0,0-0.1,0-0.1c0.1-0.2-0.2-0.5-0.3-0.2c-0.4,0.6-0.2,1.5,0.4,1.8
							c0,0,0.1,0.1,0.2,0.1C180.7,142.7,180.9,142.3,180.6,142.2L180.6,142.2z M182.5,147.2c-0.5-0.1-0.8-0.6-0.7-1c0,0,0,0,0,0
							c0.1-0.3-0.3-0.4-0.4-0.1c-0.2,0.7,0.2,1.4,0.9,1.6c0,0,0.1,0,0.1,0C182.8,147.7,182.8,147.3,182.5,147.2L182.5,147.2z
							 M184.7,151.2c-0.5-0.1-0.9-0.4-1-0.9c-0.1-0.3-0.5-0.2-0.4,0.1c0.2,0.7,0.7,1.2,1.4,1.3c0.1,0,0.2-0.1,0.2-0.2
							C185,151.3,184.9,151.2,184.7,151.2L184.7,151.2z"/>
					</g>
					<path class="st12" d="M191.3,217.1c0,0,2.6,0.7,4.4-0.5c0.7-0.4,1.3-0.9,1.9-1.4c0.1-0.1,0.1-0.3,0-0.4c0,0-0.1-0.1-0.2-0.1
						l-0.9-0.1c0.6-0.6,1.1-1.2,1.5-2c0.3-0.6,0.5-1,0.6-1.2c0.1-0.2,0-0.4-0.2-0.4c-0.1,0-0.1,0-0.2,0L198,211l2-2.8
						c-1.6-0.2-3.2-0.2-4.8,0.1c-0.9,0.1-1.7,0.5-2.5,1l0.1-1c0-0.2-0.1-0.4-0.3-0.4c-0.1,0-0.1,0-0.2,0c-0.8,0.3-2.2,1.4-3.6,4.6
						C186.9,217.2,191.3,217.1,191.3,217.1z"/>
					<path class="st29" d="M188.8,212.5c1.3-3.3,2.8-4.3,3.6-4.6c0.2-0.1,0.4,0,0.5,0.2c0,0.1,0,0.1,0,0.2l-0.1,1
						c0.7-0.5,1.6-0.9,2.5-1c1.6-0.2,3.2-0.3,4.8-0.1c0,0-7,3-11.4,7.6C188.2,215.1,188.2,214.1,188.8,212.5z"/>
					<path class="st30" d="M187.3,232.1c0.3,1.7-0.8,3.3-2.4,3.6c-1.7,0.3-3.3-0.8-3.6-2.4c-0.3-1.7,0.8-3.3,2.4-3.6c0,0,0,0,0,0
						C185.3,229.3,187,230.4,187.3,232.1z"/>
					<g class="st31">
						<path class="st30" d="M187.1,231.4l0.1,0.2c0.2,1.3-0.6,2.5-1.8,2.7s-2.5-0.6-2.7-1.8s0.6-2.5,1.8-2.7c0,0,0,0,0,0
							c0.4-0.1,0.8-0.1,1.1,0.1c-1.5-0.7-3.4,0-4.1,1.5c-0.7,1.5,0,3.4,1.5,4.1c0.6,0.3,1.2,0.3,1.8,0.2c1.7-0.3,2.8-1.9,2.4-3.6
							C187.2,231.9,187.2,231.6,187.1,231.4z"/>
					</g>
					<path class="st30" d="M194.4,225.8c0.3,1.8-0.8,3.5-2.6,3.9c-1.8,0.3-3.5-0.8-3.9-2.6c-0.3-1.8,0.8-3.5,2.6-3.9
						C192.4,222.9,194.1,224,194.4,225.8C194.4,225.8,194.4,225.8,194.4,225.8z"/>
					<g class="st31">
						<path class="st30" d="M194.2,225.1l0.1,0.2c0.2,1.3-0.7,2.6-2,2.9c-1.3,0.2-2.6-0.7-2.9-2c-0.2-1.3,0.6-2.6,2-2.9
							c0.4-0.1,0.8-0.1,1.2,0.1c-0.6-0.3-1.3-0.4-2-0.2c-1.8,0.3-3,2.1-2.6,3.9c0.3,1.8,2.1,3,3.9,2.6c1.8-0.3,3-2.1,2.6-3.9
							C194.4,225.6,194.3,225.3,194.2,225.1z"/>
					</g>
					<path class="st30" d="M197.7,221.4c0.4,2-0.9,3.9-2.9,4.3c-2,0.4-3.9-0.9-4.3-2.9c-0.4-2,0.9-3.9,2.9-4.3c0,0,0,0,0,0
						C195.4,218.1,197.3,219.4,197.7,221.4C197.7,221.4,197.7,221.4,197.7,221.4z"/>
					<g class="st31">
						<path class="st30" d="M197.5,220.6c0,0.1,0,0.2,0.1,0.3c0.3,1.5-0.7,2.9-2.2,3.2s-2.9-0.7-3.2-2.2s0.7-2.9,2.2-3.2
							c0.4-0.1,0.9-0.1,1.3,0.1c-0.7-0.3-1.5-0.4-2.2-0.3c-2,0.4-3.3,2.3-2.9,4.3c0.4,2,2.3,3.3,4.3,2.9c2-0.4,3.3-2.3,2.9-4.3
							c0,0,0,0,0,0C197.7,221.2,197.6,220.9,197.5,220.6z"/>
					</g>
					<path class="st12" d="M188.9,214.1c0,0-0.8-4.1,0.6-6.6c0.7-1.2,1.8-2.1,3.1-2.5c0.4-0.1,0.9,0.1,1,0.5l0,0
						c0.1,0.4-0.1,0.8-0.4,1c-1.3,0.4-2.3,1.5-2.8,2.8c-0.6,2.3-0.7,4.9-0.8,5S188.9,214.1,188.9,214.1z"/>
					<path class="st29" d="M189.3,209.4c0.6-2.2,2.6-3.6,4-4.2c-0.2-0.2-0.5-0.2-0.7-0.2c-1.3,0.4-2.4,1.3-3.1,2.5
						c-1.4,2.5-0.6,6.6-0.6,6.6c0.1,0,0.2,0.1,0.4,0.1C188.9,212.6,188.9,211,189.3,209.4z"/>
					<path class="st30" d="M187.9,213.1c0.3,1.7-0.8,3.3-2.4,3.6c-1.7,0.3-3.3-0.8-3.6-2.4c-0.3-1.7,0.8-3.3,2.4-3.6c0,0,0,0,0,0
						C186,210.4,187.6,211.5,187.9,213.1z"/>
					<g class="st31">
						<path class="st30" d="M187.7,212.4c0,0.1,0,0.2,0.1,0.2c0.2,1.2-0.6,2.5-1.8,2.7c-1.2,0.2-2.5-0.6-2.7-1.8
							c-0.2-1.2,0.6-2.5,1.8-2.7c0.4-0.1,0.8-0.1,1.1,0.1c-0.6-0.3-1.2-0.3-1.8-0.2c-1.7,0.3-2.7,1.9-2.4,3.6s1.9,2.7,3.6,2.4
							s2.7-1.9,2.4-3.6c0,0,0,0,0,0C187.9,212.9,187.8,212.7,187.7,212.4z"/>
					</g>
					<path class="st30" d="M192.4,214.5c0.3,1.7-0.8,3.3-2.4,3.6c-1.7,0.3-3.3-0.8-3.6-2.4c-0.3-1.7,0.8-3.3,2.4-3.6c0,0,0,0,0,0
						C190.5,211.8,192.1,212.8,192.4,214.5C192.4,214.5,192.4,214.5,192.4,214.5z"/>
					<g class="st31">
						<path class="st30" d="M192.2,213.8c0,0.1,0.1,0.2,0.1,0.2c0.2,1.2-0.6,2.5-1.8,2.7c-1.2,0.2-2.5-0.6-2.7-1.8
							c-0.2-1.2,0.6-2.5,1.8-2.7c0.4-0.1,0.7,0,1.1,0.1c-1.5-0.7-3.4,0-4.1,1.5c-0.7,1.5,0,3.4,1.5,4.1c0.6,0.3,1.2,0.3,1.8,0.2
							c1.7-0.3,2.7-1.9,2.4-3.6c0,0,0,0,0,0C192.3,214.3,192.3,214.1,192.2,213.8z"/>
					</g>
					<path class="st30" d="M196.4,215.8c0.3,1.7-0.8,3.3-2.4,3.6s-3.3-0.8-3.6-2.4c-0.3-1.7,0.8-3.3,2.4-3.6
						C194.5,213,196.1,214.1,196.4,215.8z"/>
					<g class="st31">
						<path class="st30" d="M196.2,215.1l0.1,0.2c0.2,1.2-0.6,2.5-1.8,2.7c-1.2,0.2-2.5-0.6-2.7-1.8c-0.2-1.2,0.6-2.5,1.8-2.7
							c0,0,0,0,0,0c0.4-0.1,0.8-0.1,1.1,0.1c-0.6-0.3-1.2-0.3-1.9-0.2c-1.2,0.2-2.2,1.2-2.4,2.4c-0.1,0.4-0.1,0.8,0,1.2
							c0.4,1.6,2.1,2.6,3.7,2.2c1.5-0.4,2.5-1.8,2.3-3.4C196.4,215.6,196.3,215.3,196.2,215.1z"/>
					</g>
					<path class="st30" d="M185.4,227.8c0.3,1.7-0.8,3.3-2.4,3.6c-1.7,0.3-3.3-0.8-3.6-2.4c-0.3-1.7,0.8-3.3,2.4-3.6c0,0,0,0,0,0
						C183.5,225,185.1,226.1,185.4,227.8C185.4,227.8,185.4,227.8,185.4,227.8z"/>
					<g class="st31">
						<path class="st30" d="M185.2,227.1c0,0.1,0.1,0.2,0.1,0.2c0.2,1.3-0.6,2.5-1.8,2.7s-2.5-0.6-2.7-1.8s0.6-2.5,1.8-2.7
							c0,0,0,0,0,0c0.4-0.1,0.8-0.1,1.1,0.1c-1.5-0.7-3.4,0-4.1,1.5c-0.7,1.5,0,3.4,1.5,4.1c1.5,0.7,3.4,0,4.1-1.5
							c0.3-0.6,0.3-1.2,0.2-1.9C185.4,227.6,185.3,227.3,185.2,227.1z"/>
					</g>
					<path class="st30" d="M190.7,229.2c0.3,1.7-0.8,3.3-2.4,3.6c-1.7,0.3-3.3-0.8-3.6-2.4c-0.3-1.7,0.8-3.3,2.4-3.6c0,0,0,0,0,0
						C188.8,226.4,190.4,227.5,190.7,229.2z"/>
					<g class="st31">
						<path class="st30" d="M190.5,228.5c0,0.1,0,0.2,0.1,0.2c0.3,1.3-0.5,2.5-1.8,2.8c-1.3,0.3-2.5-0.5-2.8-1.8
							c-0.3-1.3,0.5-2.5,1.8-2.8c0.4-0.1,0.8-0.1,1.2,0.1c-1.5-0.7-3.4,0-4.1,1.5c-0.7,1.5,0,3.4,1.5,4.1c1.5,0.7,3.4,0,4.1-1.5
							c0.3-0.6,0.3-1.2,0.2-1.9C190.7,229,190.6,228.7,190.5,228.5z"/>
					</g>
					<path class="st30" d="M184.5,222.8c0.3,1.8-0.8,3.5-2.6,3.9c-1.8,0.3-3.5-0.8-3.9-2.6c-0.3-1.8,0.8-3.5,2.6-3.8
						C182.4,219.8,184.1,221,184.5,222.8z"/>
					<g class="st31">
						<path class="st30" d="M184.2,222l0.1,0.2c0.2,1.3-0.7,2.6-2,2.9c-1.3,0.2-2.6-0.7-2.9-2c-0.2-1.3,0.6-2.6,2-2.9
							c0.4-0.1,0.8-0.1,1.2,0.1c-1.7-0.8-3.6,0-4.4,1.6c-0.8,1.7,0,3.6,1.6,4.4c1.7,0.8,3.6,0,4.4-1.6c0.3-0.6,0.4-1.3,0.2-2
							C184.4,222.5,184.3,222.2,184.2,222z"/>
					</g>
					<path class="st30" d="M189.5,224.4c0.3,1.8-0.8,3.5-2.6,3.9s-3.5-0.8-3.9-2.6s0.8-3.5,2.6-3.9c0,0,0,0,0,0
						C187.5,221.5,189.2,222.7,189.5,224.4z"/>
					<g class="st31">
						<path class="st30" d="M189.3,223.7l0.1,0.2c0.2,1.3-0.7,2.6-2,2.9c-1.3,0.2-2.6-0.7-2.9-2c-0.2-1.3,0.6-2.6,2-2.9
							c0.4-0.1,0.8-0.1,1.2,0.1c-0.6-0.3-1.3-0.4-2-0.2c-1.8,0.3-3,2.1-2.6,3.9s2.1,3,3.9,2.6c1.8-0.3,3-2.1,2.6-3.9c0,0,0,0,0,0
							C189.5,224.2,189.4,223.9,189.3,223.7z"/>
					</g>
					<path class="st30" d="M194.3,220.3c0.4,2-0.9,3.9-2.9,4.3c-2,0.4-3.9-0.9-4.3-2.9c-0.4-2,0.9-3.9,2.9-4.3c0,0,0,0,0,0
						C192,217,193.9,218.3,194.3,220.3C194.3,220.3,194.3,220.3,194.3,220.3z"/>
					<g class="st31">
						<path class="st30" d="M194.1,219.5c0,0.1,0.1,0.2,0.1,0.3c0.3,1.5-0.7,2.9-2.2,3.2c-1.5,0.3-2.9-0.7-3.2-2.2
							c-0.3-1.5,0.7-2.9,2.2-3.2c0,0,0,0,0,0c0.4-0.1,0.9-0.1,1.3,0.1c-1.8-0.8-4,0-4.9,1.8s0,4,1.8,4.9s4,0,4.9-1.8
							c0.3-0.7,0.4-1.5,0.3-2.2C194.3,220,194.2,219.8,194.1,219.5z"/>
					</g>
					<path class="st30" d="M185,217c0.4,2-0.9,3.9-2.9,4.3c-2,0.4-3.9-0.9-4.3-2.9c-0.4-2,0.9-3.9,2.9-4.3
						C182.7,213.7,184.6,215,185,217z"/>
					<g class="st31">
						<path class="st30" d="M184.7,216.1c0,0.1,0.1,0.2,0.1,0.3c0.3,1.5-0.7,2.9-2.2,3.2c-1.5,0.3-2.9-0.7-3.2-2.2
							c-0.3-1.5,0.7-2.9,2.2-3.2c0.4-0.1,0.9-0.1,1.3,0.1c-1.8-0.8-4,0-4.9,1.8c-0.8,1.8,0,4,1.8,4.9c0.7,0.3,1.5,0.4,2.2,0.3
							c2-0.4,3.3-2.3,2.9-4.3C184.9,216.7,184.8,216.4,184.7,216.1z"/>
					</g>
					<circle class="st30" cx="186.4" cy="219.5" r="3.7"/>
					<g class="st31">
						<path class="st30" d="M189.8,218c0,0.1,0.1,0.2,0.1,0.3c0.3,1.5-0.7,2.9-2.2,3.2c-1.5,0.3-2.9-0.7-3.2-2.2
							c-0.3-1.5,0.7-2.9,2.2-3.2c0,0,0,0,0,0c0.4-0.1,0.9-0.1,1.3,0.1c-0.7-0.3-1.5-0.4-2.2-0.3c-2,0.4-3.3,2.3-2.9,4.3
							c0.4,2,2.3,3.3,4.3,2.9c2-0.4,3.3-2.3,2.9-4.3c0,0,0,0,0,0C190,218.5,189.9,218.3,189.8,218z"/>
					</g>
					<g class="st32">
						<path class="st5" d="M187,212.5c0,0.3-0.4,0.2-0.4,0c0-0.2-0.1-0.5-0.3-0.6h-0.1c0,0-0.1,0-0.1,0l-0.1-0.1l0,0h-0.1
							c-0.1,0-0.2-0.1-0.1-0.2c0,0,0,0,0,0c0-0.1,0.1-0.2,0.2-0.1c0,0,0,0,0,0h0.1c0.2,0,0.4,0.1,0.6,0.2l0,0
							C186.9,211.9,187,212.2,187,212.5z M190.7,212.7c-0.6-0.1-1.2,0.1-1.6,0.6c-0.2,0.2,0.2,0.4,0.3,0.2c0.3-0.3,0.8-0.5,1.2-0.4
							C190.9,213.2,190.9,212.8,190.7,212.7L190.7,212.7z M193.9,213.9c-0.7,0.2-1.2,0.7-1.3,1.4c0,0.1,0.1,0.2,0.3,0.2
							c0.1,0,0.1-0.1,0.2-0.2c0.1-0.5,0.4-0.9,0.9-1C194.2,214.3,194.1,213.9,193.9,213.9L193.9,213.9z M192.1,218
							c-0.2-0.1-0.4,0.3-0.1,0.4c0.4,0.2,0.7,0.6,0.7,1.1c0,0.3,0.4,0.3,0.4,0.1C193,218.9,192.7,218.3,192.1,218L192.1,218z
							 M188.3,217.4c-0.8-0.3-1.8-0.1-2.4,0.6c-0.2,0.2,0.1,0.4,0.3,0.2c0.5-0.5,1.2-0.7,1.9-0.4
							C188.4,217.9,188.5,217.5,188.3,217.4L188.3,217.4z M181.8,214.9c-0.8,0.3-1.3,1.2-1,2.1c0.1,0.3,0.5,0.1,0.4-0.2
							c-0.2-0.7,0.2-1.3,0.8-1.6C182.2,215.2,182,214.8,181.8,214.9L181.8,214.9z M196.4,219.8c-0.2-0.1-0.5,0.2-0.2,0.3
							c0.3,0.2,0.4,0.5,0.3,0.9c0,0.3,0.4,0.3,0.4,0C196.9,220.5,196.7,220.1,196.4,219.8L196.4,219.8z M191.6,227.1
							c-0.5-0.1-0.9-0.6-0.8-1.2c0,0,0-0.1,0-0.1c0.1-0.3-0.4-0.3-0.4-0.1c-0.2,0.8,0.3,1.5,1.1,1.7c0,0,0,0,0,0
							C191.8,227.6,191.8,227.2,191.6,227.1L191.6,227.1z M185.9,225.2c-0.4-0.3-0.6-0.7-0.5-1.2c0-0.3-0.4-0.3-0.4,0
							c-0.1,0.8,0.3,1.5,1,1.8c0.1,0,0.2,0,0.3-0.1c0,0,0-0.1,0-0.1v-0.2c0-0.1,0-0.2-0.1-0.3C186.1,225.1,185.9,225.1,185.9,225.2
							L185.9,225.2z M180.9,223.8c-0.5-0.2-0.7-0.7-0.5-1.2c0,0,0-0.1,0-0.1c0.1-0.2-0.2-0.5-0.3-0.2c-0.4,0.6-0.2,1.4,0.4,1.8
							c0.1,0,0.1,0.1,0.2,0.1C180.9,224.3,181.1,223.9,180.9,223.8L180.9,223.8z M182.8,228.9c-0.5-0.1-0.8-0.6-0.7-1.1c0,0,0,0,0,0
							c0.1-0.3-0.3-0.4-0.4-0.1c-0.2,0.7,0.2,1.4,0.9,1.6c0,0,0.1,0,0.1,0C183,229.3,183,228.9,182.8,228.9L182.8,228.9z M185,232.9
							c-0.5-0.1-0.9-0.4-1-0.9c-0.1-0.3-0.5-0.2-0.4,0.1c0.2,0.7,0.7,1.2,1.4,1.3C185.2,233.3,185.2,232.9,185,232.9L185,232.9z"/>
					</g>
					<path class="st12" d="M192,43.3c1.5,0.4,3,0.2,4.4-0.5c0.7-0.4,1.3-0.9,1.9-1.4c0.1-0.1,0.1-0.3,0-0.4c0,0-0.1-0.1-0.2-0.1
						l-0.9-0.1c0.6-0.6,1.1-1.2,1.5-2c0.3-0.5,0.5-1,0.6-1.2c0.1-0.2,0-0.4-0.1-0.4c-0.1,0-0.1,0-0.2,0h-0.3l2-2.8
						c-1.6-0.2-3.2-0.2-4.8,0.1c-0.9,0.1-1.7,0.5-2.5,1l0.1-1c0-0.2-0.1-0.4-0.3-0.4c-0.1,0-0.1,0-0.2,0c-0.8,0.3-2.2,1.4-3.6,4.6
						C187.6,43.4,192,43.3,192,43.3z"/>
					<path class="st29" d="M189.5,38.6c1.3-3.3,2.8-4.3,3.6-4.6c0.2-0.1,0.4,0,0.5,0.2c0,0.1,0,0.1,0,0.2l-0.1,1
						c0.7-0.5,1.6-0.9,2.5-1c1.6-0.2,3.2-0.3,4.8-0.1c0,0-7,3-11.4,7.6C188.9,41.3,188.9,40.2,189.5,38.6z"/>
					<path class="st30" d="M188,58.2c0.3,1.7-0.8,3.3-2.4,3.6c-1.7,0.3-3.3-0.8-3.6-2.4c-0.3-1.7,0.8-3.3,2.4-3.6c0,0,0,0,0,0
						C186.1,55.5,187.7,56.6,188,58.2z"/>
					<g class="st31">
						<path class="st30" d="M187.7,57.6c0,0.1,0.1,0.2,0.1,0.2c0.3,1.2-0.6,2.5-1.8,2.7c-1.2,0.3-2.5-0.6-2.7-1.8s0.6-2.5,1.8-2.7
							c0,0,0,0,0,0c0.4-0.1,0.8-0.1,1.1,0.1c-0.6-0.3-1.2-0.3-1.9-0.2c-1.7,0.3-2.8,1.9-2.5,3.6c0.3,1.7,1.9,2.8,3.6,2.5
							c1.7-0.3,2.8-1.9,2.5-3.6C187.9,58.1,187.8,57.8,187.7,57.6L187.7,57.6z"/>
					</g>
					<path class="st30" d="M195.1,52c0.3,1.8-0.8,3.5-2.6,3.9c-1.8,0.3-3.5-0.8-3.9-2.6c-0.3-1.8,0.8-3.5,2.6-3.8
						C193.1,49,194.8,50.2,195.1,52z"/>
					<g class="st31">
						<path class="st30" d="M194.9,51.2c0,0.1,0.1,0.2,0.1,0.2c0.2,1.3-0.7,2.6-2,2.9c-1.3,0.2-2.6-0.7-2.9-2
							c-0.2-1.3,0.6-2.6,2-2.9c0.4-0.1,0.8-0.1,1.2,0.1c-0.6-0.3-1.3-0.4-2-0.2c-1.8,0.3-3,2.1-2.6,3.9s2.1,3,3.9,2.6
							c1.8-0.3,2.9-2,2.6-3.8C195.1,51.7,195,51.5,194.9,51.2z"/>
					</g>
					<path class="st30" d="M198.4,47.6c0.4,2-0.9,3.9-2.9,4.3s-3.9-0.9-4.3-2.9c-0.4-2,0.9-3.9,2.9-4.3c0,0,0,0,0,0
						C196.1,44.3,198,45.6,198.4,47.6z"/>
					<g class="st31">
						<path class="st30" d="M198.1,46.8c0,0.1,0.1,0.2,0.1,0.3c0.3,1.5-0.7,2.9-2.2,3.2c-1.5,0.3-2.9-0.7-3.2-2.2s0.7-2.9,2.2-3.2
							c0,0,0,0,0,0c0.4-0.1,0.9-0.1,1.3,0.1c-1.8-0.8-4,0-4.9,1.8c-0.8,1.8,0,4,1.8,4.9c1.8,0.8,4,0,4.9-1.8
							c0.3-0.7,0.4-1.5,0.3-2.2C198.3,47.3,198.3,47,198.1,46.8z"/>
					</g>
					<path class="st12" d="M189.5,40.2c0,0-0.8-4.1,0.6-6.6c0.7-1.2,1.8-2.1,3.1-2.5c0.4-0.1,0.9,0.1,1,0.5c0,0,0,0,0,0l0,0
						c0.1,0.4-0.1,0.8-0.4,1c-1.3,0.5-2.3,1.5-2.8,2.8c-0.6,2.3-0.8,4.9-0.8,4.9S189.5,40.2,189.5,40.2z"/>
					<path class="st29" d="M190,35.5c0.6-2.2,2.6-3.6,4-4.2c-0.2-0.2-0.5-0.2-0.7-0.2c-1.3,0.4-2.4,1.3-3.1,2.5
						c-1.4,2.5-0.6,6.6-0.6,6.6s0.2,0.1,0.4,0.1C189.6,38.8,189.6,37.1,190,35.5z"/>
					<path class="st30" d="M188.6,39.3c0.3,1.7-0.8,3.3-2.4,3.6c-1.7,0.3-3.3-0.8-3.6-2.4c-0.3-1.7,0.8-3.3,2.4-3.6c0,0,0,0,0,0
						C186.7,36.5,188.3,37.6,188.6,39.3C188.6,39.2,188.6,39.3,188.6,39.3z"/>
					<g class="st31">
						<path class="st30" d="M188.4,38.6l0.1,0.2c0.2,1.2-0.6,2.5-1.8,2.7c-1.2,0.2-2.5-0.6-2.7-1.8c-0.2-1.2,0.6-2.5,1.8-2.7
							c0,0,0,0,0,0c0.4-0.1,0.7,0,1.1,0.1c-1.5-0.7-3.4,0-4.1,1.5c-0.7,1.5,0,3.4,1.5,4.1c1.5,0.7,3.4,0,4.1-1.5
							c0.3-0.6,0.3-1.2,0.2-1.8C188.5,39,188.5,38.8,188.4,38.6z"/>
					</g>
					<path class="st30" d="M193.1,40.7c0.3,1.7-0.8,3.3-2.4,3.6c-1.7,0.3-3.3-0.8-3.6-2.4c-0.3-1.7,0.8-3.3,2.4-3.6c0,0,0,0,0,0
						C191.1,37.9,192.7,39,193.1,40.7z"/>
					<g class="st31">
						<path class="st30" d="M192.8,40l0.1,0.2c0.3,1.3-0.6,2.5-1.8,2.7s-2.5-0.6-2.7-1.8c-0.3-1.3,0.6-2.5,1.8-2.7
							c0.4-0.1,0.8-0.1,1.1,0.1c-1.5-0.7-3.3,0-4,1.5s0,3.3,1.5,4c1.5,0.7,3.3,0,4-1.5C193.2,41.7,193.2,40.8,192.8,40z"/>
					</g>
					<path class="st30" d="M197.1,41.9c0.3,1.7-0.8,3.3-2.4,3.6c-1.7,0.3-3.3-0.8-3.6-2.4c-0.3-1.7,0.8-3.3,2.4-3.6c0,0,0,0,0,0
						C195.2,39.2,196.8,40.3,197.1,41.9z"/>
					<g class="st31">
						<path class="st30" d="M196.9,41.2c0,0.1,0,0.2,0.1,0.2c0.2,1.2-0.6,2.4-1.8,2.7c-1.2,0.2-2.4-0.6-2.7-1.8s0.6-2.4,1.8-2.7
							c0.4-0.1,0.7,0,1.1,0.1c-1.5-0.7-3.4,0-4.1,1.5c-0.1,0.2-0.2,0.4-0.2,0.6c-0.1,0.4-0.1,0.8,0,1.2c0.4,1.6,2.1,2.6,3.7,2.2
							c1.5-0.4,2.5-1.8,2.3-3.4C197,41.7,197,41.5,196.9,41.2z"/>
					</g>
					<path class="st30" d="M186.1,53.9c0.3,1.7-0.8,3.3-2.4,3.6c-1.7,0.3-3.3-0.8-3.6-2.4s0.8-3.3,2.4-3.6c0,0,0,0,0,0
						C184.2,51.2,185.8,52.3,186.1,53.9z"/>
					<g class="st31">
						<path class="st30" d="M185.9,53.3l0.1,0.2c0.2,1.3-0.6,2.5-1.8,2.7s-2.5-0.6-2.7-1.8c-0.2-1.3,0.6-2.5,1.8-2.7c0,0,0,0,0,0
							c0.4-0.1,0.8-0.1,1.1,0.1c-1.5-0.7-3.3,0-4,1.5c-0.7,1.5,0,3.3,1.5,4c1.5,0.7,3.3,0,4-1.5C186.2,55,186.2,54.1,185.9,53.3z"/>
					</g>
					<path class="st30" d="M191.4,55.3c0.3,1.7-0.8,3.3-2.4,3.6c-1.7,0.3-3.3-0.8-3.6-2.4c-0.3-1.7,0.8-3.3,2.4-3.6c0,0,0,0,0,0
						C189.5,52.6,191.1,53.6,191.4,55.3z"/>
					<g class="st31">
						<path class="st30" d="M191.2,54.6c0,0.1,0,0.2,0.1,0.2c0.2,1.3-0.6,2.5-1.8,2.7s-2.5-0.6-2.7-1.8c-0.2-1.3,0.6-2.5,1.8-2.7
							c0,0,0,0,0,0c0.4-0.1,0.8-0.1,1.1,0.1c-1.5-0.7-3.4,0-4.1,1.5c-0.7,1.5,0,3.4,1.5,4.1c1.5,0.7,3.4,0,4.1-1.5
							c0.3-0.6,0.3-1.2,0.2-1.9C191.4,55.1,191.3,54.9,191.2,54.6z"/>
					</g>
					<path class="st30" d="M185.1,48.9c0.3,1.8-0.8,3.5-2.6,3.9c-1.8,0.3-3.5-0.8-3.9-2.6c-0.3-1.8,0.8-3.5,2.6-3.9c0,0,0,0,0,0
						C183.1,45.9,184.8,47.1,185.1,48.9z"/>
					<g class="st31">
						<path class="st30" d="M184.9,48.2l0.1,0.2c0.2,1.3-0.7,2.6-2,2.9s-2.6-0.7-2.9-2c-0.2-1.3,0.6-2.6,2-2.9
							c0.4-0.1,0.8-0.1,1.2,0.1c-0.6-0.3-1.3-0.4-2-0.2c-1.8,0.3-3,2.1-2.6,3.9c0.3,1.8,2.1,3,3.9,2.6c1.8-0.3,3-2.1,2.6-3.9
							c0,0,0,0,0,0C185.1,48.6,185,48.4,184.9,48.2z"/>
					</g>
					<path class="st30" d="M190.2,50.6c0.4,1.8-0.8,3.5-2.6,3.9c-1.8,0.4-3.5-0.8-3.9-2.6c-0.4-1.8,0.8-3.5,2.6-3.9c0,0,0,0,0,0
						C188.1,47.7,189.8,48.8,190.2,50.6z"/>
					<g class="st31">
						<path class="st30" d="M190,49.9c0,0.1,0.1,0.2,0.1,0.2c0.2,1.3-0.7,2.6-2,2.9c-1.3,0.2-2.6-0.7-2.9-2c-0.2-1.3,0.6-2.6,2-2.9
							c0.4-0.1,0.8-0.1,1.2,0.1c-1.7-0.8-3.6,0-4.4,1.6s0,3.6,1.6,4.4c1.7,0.8,3.6,0,4.4-1.6c0.3-0.6,0.4-1.3,0.2-2
							C190.2,50.3,190.1,50.1,190,49.9z"/>
					</g>
					<path class="st30" d="M195,46.5c0.4,2-0.9,3.9-2.9,4.3c-2,0.4-3.9-0.9-4.3-2.9c-0.4-2,0.9-3.9,2.9-4.3
						C192.7,43.2,194.6,44.5,195,46.5C195,46.5,195,46.5,195,46.5z"/>
					<g class="st31">
						<path class="st30" d="M194.7,45.7c0,0.1,0.1,0.2,0.1,0.3c0.3,1.5-0.7,2.9-2.2,3.2s-2.9-0.7-3.2-2.2s0.7-2.9,2.2-3.2
							c0,0,0,0,0,0c0.4-0.1,0.9-0.1,1.3,0.1c-0.7-0.3-1.5-0.4-2.2-0.3c-2,0.4-3.3,2.3-2.9,4.3c0.4,2,2.3,3.3,4.3,2.9
							c2-0.4,3.3-2.3,2.9-4.3C194.9,46.2,194.8,45.9,194.7,45.7z"/>
					</g>
					<path class="st30" d="M185.7,43.1c0.4,2-0.9,3.9-2.9,4.3c-2,0.4-3.9-0.9-4.3-2.9c-0.4-2,0.9-3.9,2.9-4.3c0,0,0,0,0,0
						C183.4,39.8,185.3,41.1,185.7,43.1z"/>
					<g class="st31">
						<path class="st30" d="M185.4,42.3c0,0.1,0.1,0.2,0.1,0.3c0.3,1.5-0.7,2.9-2.2,3.2c-1.5,0.3-2.9-0.7-3.2-2.2
							c-0.3-1.5,0.7-2.9,2.2-3.2c0.4-0.1,0.9-0.1,1.3,0.1c-0.7-0.3-1.5-0.4-2.2-0.3c-2,0.4-3.3,2.3-2.9,4.3c0.4,2,2.3,3.3,4.3,2.9
							c2-0.4,3.3-2.3,2.9-4.3c0,0,0,0,0,0C185.6,42.8,185.5,42.6,185.4,42.3z"/>
					</g>
					<path class="st30" d="M190.7,45c0.4,2-0.9,3.9-2.9,4.3c-2,0.4-3.9-0.9-4.3-2.9c-0.4-2,0.9-3.9,2.9-4.3
						C188.4,41.7,190.3,43,190.7,45C190.7,45,190.7,45,190.7,45z"/>
					<g class="st31">
						<path class="st30" d="M190.4,44.1c0,0.1,0.1,0.2,0.1,0.3c0.3,1.5-0.7,2.9-2.2,3.2s-2.9-0.7-3.2-2.2s0.7-2.9,2.2-3.2
							c0,0,0,0,0,0c0.4-0.1,0.9-0.1,1.3,0.1c-0.7-0.3-1.5-0.4-2.2-0.3c-2,0.4-3.3,2.3-2.9,4.3c0.4,2,2.3,3.3,4.3,2.9
							c2-0.4,3.3-2.3,2.9-4.3C190.6,44.7,190.5,44.4,190.4,44.1z"/>
					</g>
					<g class="st32">
						<path class="st5" d="M187.7,38.7c0,0.3-0.4,0.2-0.4,0c0.1-0.2,0-0.5-0.2-0.7l-0.1,0c0,0-0.1,0-0.1,0l-0.1,0l0,0h-0.1
							c-0.1-0.1-0.1-0.2-0.1-0.3c0-0.1,0.1-0.1,0.2-0.1h0.1c0.2,0,0.4,0.1,0.5,0.2l0,0C187.6,38,187.7,38.3,187.7,38.7z M191.3,38.9
							c-0.6-0.1-1.2,0.1-1.6,0.6c-0.2,0.2,0.2,0.5,0.3,0.2c0.3-0.3,0.8-0.5,1.2-0.4C191.6,39.3,191.6,38.9,191.3,38.9z M194.6,40.1
							c-0.7,0.2-1.2,0.7-1.3,1.4c0,0.1,0.1,0.2,0.2,0.2c0.1,0,0.2-0.1,0.2-0.2c0.1-0.5,0.4-0.9,0.9-1
							C194.9,40.4,194.8,40,194.6,40.1z M192.8,44.2c-0.2-0.1-0.4,0.3-0.1,0.4c0.4,0.2,0.7,0.7,0.7,1.1c0,0.3,0.4,0.3,0.4,0
							C193.7,45,193.3,44.4,192.8,44.2z M189,43.6c-0.8-0.3-1.8-0.1-2.4,0.5c-0.2,0.2,0.1,0.5,0.3,0.2c0.5-0.5,1.2-0.7,1.9-0.4
							C189.1,44.1,189.2,43.7,189,43.6z M182.5,41c-0.8,0.3-1.3,1.2-1,2.1c0.1,0.3,0.5,0.1,0.4-0.2c-0.2-0.6,0.2-1.3,0.8-1.5
							C182.9,41.3,182.7,41,182.5,41L182.5,41z M197,45.9c-0.1-0.1-0.2,0-0.3,0.1c0,0.1,0,0.2,0,0.2c0.3,0.2,0.4,0.5,0.3,0.9
							c-0.1,0.3,0.4,0.3,0.4,0C197.6,46.7,197.4,46.2,197,45.9z M192.2,53.3c-0.5-0.1-0.9-0.6-0.8-1.2c0,0,0-0.1,0-0.1
							c0.1-0.3-0.4-0.3-0.4,0c-0.2,0.8,0.3,1.5,1.1,1.7c0,0,0,0,0,0C192.4,53.7,192.5,53.3,192.2,53.3L192.2,53.3z M186.6,51.4
							c-0.4-0.3-0.6-0.7-0.5-1.2c0-0.3-0.4-0.3-0.4,0c-0.1,0.8,0.3,1.5,1,1.8c0.1,0,0.2,0,0.3-0.1c0,0,0-0.1,0-0.1v-0.2
							C186.9,51.3,186.7,51.2,186.6,51.4L186.6,51.4z M181.5,50c-0.5-0.2-0.7-0.8-0.4-1.2c0,0,0,0,0-0.1c0.1-0.2-0.2-0.5-0.3-0.2
							c-0.4,0.6-0.2,1.5,0.4,1.8c0,0,0.1,0.1,0.2,0.1c0.1,0,0.2,0,0.3-0.1C181.7,50.2,181.6,50,181.5,50z M183.4,55
							c-0.5-0.1-0.8-0.6-0.7-1.1c0,0,0,0,0,0c0.1-0.3-0.3-0.4-0.4-0.2c-0.2,0.7,0.2,1.4,0.9,1.6c0,0,0.1,0,0.1,0
							C183.6,55.5,183.7,55.1,183.4,55z M185.6,59c-0.5-0.1-0.9-0.4-1-0.9c-0.1-0.3-0.5-0.2-0.4,0.1c0.2,0.7,0.7,1.2,1.4,1.3
							c0.1,0,0.2-0.1,0.2-0.2C185.8,59.1,185.7,59,185.6,59L185.6,59z"/>
					</g>
					<path class="st12" d="M46.4,178c1.4-0.5,2.6-1.6,3.3-2.9c0.3-0.7,0.6-1.5,0.7-2.2c0-0.1-0.1-0.3-0.2-0.3c-0.1,0-0.1,0-0.2,0
						l-0.8,0.4c0.2-0.8,0.2-1.7,0.1-2.5c-0.1-0.6-0.1-1.1-0.2-1.4c0-0.2-0.2-0.3-0.4-0.3c-0.1,0-0.1,0-0.2,0.1l-0.2,0.2v-3.5
						c-1.4,0.8-2.7,1.7-3.9,2.8c-0.7,0.6-1.1,1.4-1.5,2.2l-0.5-0.9c-0.1-0.2-0.3-0.2-0.5-0.1c-0.1,0-0.1,0.1-0.1,0.1
						c-0.5,0.7-1,2.4-0.3,5.8C42.8,180.6,46.4,178,46.4,178z"/>
					<path class="st29" d="M41.8,175.6c-0.8-3.4-0.2-5.1,0.3-5.8c0.1-0.2,0.3-0.2,0.5-0.1c0.1,0,0.1,0.1,0.1,0.1l0.5,0.9
						c0.3-0.8,0.8-1.6,1.5-2.2c1.2-1.1,2.5-2,3.9-2.8c0,0-4,6.5-5.1,12.7C42.8,178.1,42.1,177.3,41.8,175.6z"/>
					<path class="st30" d="M51.6,192.6c1.2,1.2,1.2,3.2,0,4.4s-3.2,1.2-4.4,0c-1.2-1.2-1.2-3.2,0-4.4c0,0,0,0,0,0
						C48.5,191.5,50.4,191.5,51.6,192.6z"/>
					<g class="st31">
						<path class="st30" d="M51,192.2c0.1,0,0.1,0.1,0.2,0.2c0.9,0.9,0.9,2.4,0,3.3c-0.9,0.9-2.4,0.9-3.3,0c-0.9-0.9-0.9-2.3,0-3.2
							c0.3-0.3,0.6-0.5,1-0.6c-0.6,0.1-1.2,0.4-1.7,0.9c-1.2,1.2-1.2,3.2,0,4.4s3.2,1.2,4.4,0c1.2-1.2,1.2-3.2,0-4.4c0,0,0,0,0,0
							C51.5,192.5,51.3,192.3,51,192.2z"/>
					</g>
					<path class="st30" d="M54,183.4c1.3,1.3,1.3,3.4,0,4.7s-3.4,1.3-4.7,0c-1.3-1.3-1.3-3.4,0-4.7C50.6,182.1,52.7,182.1,54,183.4
						C54,183.4,54,183.4,54,183.4z"/>
					<g class="st31">
						<path class="st30" d="M53.4,182.9c0.1,0.1,0.1,0.1,0.2,0.2c1,1,1,2.5,0,3.5c-1,1-2.5,1-3.5,0s-1-2.5,0-3.5
							c0.3-0.3,0.6-0.5,1-0.6c-1.8,0.3-3,2-2.7,3.8c0.3,1.8,2,3,3.8,2.7c1.8-0.3,3-2,2.7-3.8c-0.1-0.7-0.4-1.3-0.9-1.8
							C53.8,183.2,53.6,183.1,53.4,182.9z"/>
					</g>
					<path class="st30" d="M54.2,178c1.4,1.4,1.4,3.8,0,5.2s-3.8,1.4-5.2,0s-1.4-3.8,0-5.2c0,0,0,0,0,0
						C50.4,176.6,52.7,176.6,54.2,178z"/>
					<g class="st31">
						<path class="st30" d="M53.5,177.4l0.2,0.2c1.1,1.1,1.1,2.8,0,3.9c-1.1,1.1-2.8,1.1-3.9,0c-1.1-1.1-1.1-2.8,0-3.9
							c0.3-0.3,0.7-0.5,1.2-0.6c-0.8,0.1-1.5,0.5-2,1c-1.4,1.4-1.4,3.8,0,5.2c1.4,1.4,3.8,1.4,5.2,0c1.4-1.4,1.4-3.8,0-5.2
							c0,0,0,0,0,0C54,177.8,53.7,177.6,53.5,177.4z"/>
					</g>
					<path class="st12" d="M42.7,176.9c0,0-3-2.9-3.3-5.7c-0.1-1.4,0.3-2.8,1.1-3.9c0.3-0.3,0.7-0.4,1.1-0.1l0,0
						c0.3,0.2,0.4,0.7,0.2,1.1c-0.8,1.1-1.1,2.5-0.7,3.9c0.8,2.2,2.2,4.4,2.1,4.6S42.7,176.9,42.7,176.9z"/>
					<path class="st29" d="M40.4,172.8c-0.8-2.1,0.1-4.4,0.9-5.8c-0.3,0-0.5,0.1-0.7,0.3c-0.9,1.1-1.3,2.5-1.1,3.9
						c0.3,2.8,3.3,5.7,3.3,5.7c0.1,0,0.2-0.1,0.3-0.1C41.9,175.7,41,174.3,40.4,172.8z"/>
					<path class="st30" d="M41.4,176.7c1.2,1.2,1.2,3.1,0,4.3c-1.2,1.2-3.1,1.2-4.3,0c-1.2-1.2-1.2-3.1,0-4.3
						C38.2,175.5,40.2,175.5,41.4,176.7C41.4,176.7,41.4,176.7,41.4,176.7z"/>
					<g class="st31">
						<path class="st30" d="M40.8,176.2c0.1,0,0.1,0.1,0.2,0.2c0.9,0.9,0.9,2.3,0,3.2c-0.9,0.9-2.3,0.9-3.2,0
							c-0.9-0.9-0.9-2.3,0-3.2c0.3-0.3,0.6-0.5,1-0.6c-1.7,0.3-2.8,1.9-2.5,3.5s1.9,2.8,3.5,2.5c1.7-0.3,2.8-1.9,2.5-3.5
							c-0.1-0.6-0.4-1.2-0.9-1.7C41.2,176.5,41,176.3,40.8,176.2z"/>
					</g>
					<path class="st30" d="M45.8,175.3c1.2,1.2,1.2,3.1,0,4.3c-1.2,1.2-3.1,1.2-4.3,0c-1.2-1.2-1.2-3.1,0-4.3
						C42.7,174.1,44.6,174.1,45.8,175.3C45.8,175.3,45.8,175.3,45.8,175.3z"/>
					<g class="st31">
						<path class="st30" d="M45.3,174.8l0.2,0.2c0.9,0.9,0.9,2.3,0,3.2c-0.9,0.9-2.3,0.9-3.2,0c-0.9-0.9-0.9-2.3,0-3.2
							c0.3-0.3,0.6-0.5,1-0.6c-1.7,0.3-2.8,1.9-2.5,3.5s1.9,2.8,3.5,2.5c1.7-0.3,2.8-1.9,2.5-3.5c-0.1-0.6-0.4-1.2-0.9-1.7
							C45.7,175.1,45.5,175,45.3,174.8z"/>
					</g>
					<path class="st30" d="M49.9,174c1.2,1.2,1.2,3.1,0,4.3c-1.2,1.2-3.1,1.2-4.3,0c-1.2-1.2-1.2-3.1,0-4.3
						C46.8,172.8,48.7,172.8,49.9,174z"/>
					<g class="st31">
						<path class="st30" d="M49.3,173.6c0.1,0,0.1,0.1,0.2,0.2c0.9,0.9,0.9,2.3,0,3.2c-0.9,0.9-2.3,0.9-3.2,0
							c-0.9-0.9-0.9-2.3,0-3.2c0.3-0.3,0.6-0.5,1-0.6c-1.7,0.3-2.8,1.9-2.5,3.5s1.9,2.8,3.5,2.5c1.7-0.3,2.8-1.9,2.5-3.5
							c-0.1-0.6-0.4-1.2-0.9-1.7C49.8,173.8,49.5,173.7,49.3,173.6z"/>
					</g>
					<path class="st30" d="M47.7,190.1c1.2,1.2,1.2,3.1,0,4.3c-1.2,1.2-3.1,1.2-4.3,0c-1.2-1.2-1.2-3.1,0-4.3c0,0,0,0,0,0
						C44.5,189,46.5,189,47.7,190.1z"/>
					<g class="st31">
						<path class="st30" d="M47.1,189.7l0.2,0.2c0.9,0.9,0.9,2.4,0,3.3s-2.4,0.9-3.3,0s-0.9-2.4,0-3.3c0,0,0,0,0,0
							c0.3-0.3,0.6-0.5,1-0.6c-1.7,0.3-2.8,1.9-2.5,3.6c0.3,1.7,1.9,2.8,3.6,2.5c1.7-0.3,2.8-1.9,2.5-3.6c-0.1-0.6-0.4-1.2-0.9-1.7
							C47.5,190,47.3,189.8,47.1,189.7z"/>
					</g>
					<path class="st30" d="M52.8,188.3c1.2,1.2,1.2,3.1,0,4.3c-1.2,1.2-3.1,1.2-4.3,0c-1.2-1.2-1.2-3.1,0-4.3
						C49.7,187.1,51.6,187.1,52.8,188.3C52.8,188.3,52.8,188.3,52.8,188.3z"/>
					<g class="st31">
						<path class="st30" d="M52.2,187.8c0.1,0,0.1,0.1,0.2,0.2c0.9,0.9,0.9,2.4,0,3.3c-0.9,0.9-2.4,0.9-3.3,0
							c-0.9-0.9-0.9-2.4,0-3.3c0,0,0,0,0,0c0.3-0.3,0.6-0.5,1-0.6c-0.6,0.1-1.2,0.4-1.7,0.9c-1.2,1.2-1.2,3.1,0,4.3
							c1.2,1.2,3.1,1.2,4.3,0c1.2-1.2,1.2-3.1,0-4.3C52.6,188.1,52.5,188,52.2,187.8z"/>
					</g>
					<path class="st30" d="M44,186.6c1.3,1.3,1.3,3.4,0,4.7s-3.4,1.3-4.7,0c-1.3-1.3-1.3-3.4,0-4.7C40.6,185.3,42.7,185.3,44,186.6
						C44,186.5,44,186.5,44,186.6z"/>
					<g class="st31">
						<path class="st30" d="M43.4,186.1l0.2,0.2c1,1,1,2.5,0,3.5c-1,1-2.5,1-3.5,0c-1-1-1-2.5,0-3.5c0.3-0.3,0.6-0.5,1-0.6
							c-0.7,0.1-1.3,0.4-1.8,0.9c-1.3,1.3-1.3,3.4,0,4.7s3.4,1.3,4.7,0c1.3-1.3,1.3-3.4,0-4.7C43.8,186.4,43.6,186.2,43.4,186.1z"/>
					</g>
					<path class="st30" d="M49.1,185.1c1.3,1.3,1.3,3.4,0,4.7c-1.3,1.3-3.4,1.3-4.7,0s-1.3-3.4,0-4.7c0,0,0,0,0,0
						C45.8,183.8,47.8,183.8,49.1,185.1z"/>
					<g class="st31">
						<path class="st30" d="M48.5,184.6c0.1,0.1,0.1,0.1,0.2,0.2c1,1,1,2.5,0,3.5c-1,1-2.5,1-3.5,0c-1-1-1-2.5,0-3.5
							c0.3-0.3,0.6-0.5,1-0.6c-0.7,0.1-1.3,0.4-1.8,0.9c-1.3,1.3-1.3,3.4,0,4.7s3.4,1.3,4.7,0c1.3-1.3,1.3-3.4,0-4.7
							C48.9,184.9,48.7,184.7,48.5,184.6z"/>
					</g>
					<path class="st30" d="M50.7,179c1.4,1.4,1.4,3.8,0,5.2c-1.4,1.4-3.8,1.4-5.2,0c-1.4-1.4-1.4-3.8,0-5.2c0,0,0,0,0,0
						C47,177.6,49.3,177.6,50.7,179z"/>
					<g class="st31">
						<path class="st30" d="M50.1,178.4l0.2,0.2c1.1,1.1,1.1,2.8,0,3.9c-1.1,1.1-2.8,1.1-3.9,0c-1.1-1.1-1.1-2.8,0-3.9
							c0.3-0.3,0.7-0.6,1.1-0.7c-2,0.4-3.3,2.3-3,4.2s2.3,3.3,4.2,3s3.3-2.3,3-4.2c-0.1-0.8-0.5-1.4-1-2
							C50.5,178.7,50.3,178.6,50.1,178.4z"/>
					</g>
					<path class="st30" d="M41.1,181.5c1.4,1.4,1.4,3.8,0,5.2c-1.4,1.4-3.8,1.4-5.2,0c-1.4-1.4-1.4-3.8,0-5.2c0,0,0,0,0,0
						C37.4,180.1,39.7,180.1,41.1,181.5z"/>
					<g class="st31">
						<path class="st30" d="M40.5,181l0.2,0.2c1.1,1.1,1.1,2.8,0,3.9c-1.1,1.1-2.8,1.1-3.9,0c-1.1-1.1-1.1-2.8,0-3.9
							c0.3-0.3,0.7-0.6,1.1-0.7c-2,0.4-3.3,2.3-3,4.2s2.3,3.3,4.2,3s3.3-2.3,3-4.2c-0.1-0.8-0.5-1.4-1-2
							C40.9,181.3,40.7,181.1,40.5,181z"/>
					</g>
					<path class="st30" d="M46.3,180.1c1.4,1.4,1.4,3.8,0,5.2c-1.4,1.4-3.8,1.4-5.2,0c-1.4-1.4-1.4-3.8,0-5.2c0,0,0,0,0,0
						C42.6,178.7,44.9,178.7,46.3,180.1z"/>
					<g class="st31">
						<path class="st30" d="M45.7,179.6c0.1,0.1,0.1,0.1,0.2,0.2c1.1,1.1,1.1,2.8,0,3.9c-1.1,1.1-2.8,1.1-3.9,0
							c-1.1-1.1-1.1-2.8,0-3.9c0.3-0.3,0.7-0.6,1.2-0.7c-2,0.4-3.3,2.3-3,4.2s2.3,3.3,4.2,3s3.3-2.3,3-4.2c-0.1-0.8-0.5-1.4-1-2
							C46.1,179.9,45.9,179.8,45.7,179.6z"/>
					</g>
					<g class="st32">
						<path class="st5" d="M40.3,176.7c0.1,0.2-0.2,0.4-0.4,0.2c-0.1-0.2-0.3-0.3-0.6-0.3h-0.1c0,0-0.1,0-0.1,0H39h-0.1
							c-0.1,0-0.2,0-0.2-0.1c0,0,0,0,0,0c0-0.1,0-0.2,0.1-0.2c0,0,0,0,0,0h0.1c0.2-0.1,0.4-0.2,0.6-0.1l0,0
							C39.8,176.1,40.1,176.3,40.3,176.7z M43.4,174.8c-0.6,0.2-0.9,0.8-1,1.4c0,0.3,0.4,0.3,0.4,0c0.1-0.4,0.3-0.8,0.8-1
							C43.8,175,43.7,174.7,43.4,174.8z M46.7,173.9c-0.5,0.5-0.6,1.3-0.2,1.9c0.1,0.1,0.2,0.1,0.3,0.1c0.1-0.1,0.1-0.2,0.1-0.3l0,0
							c-0.2-0.4-0.2-1,0.2-1.4C47.2,174.1,46.9,173.8,46.7,173.9L46.7,173.9z M47.6,178.3c-0.3,0-0.2,0.4,0.1,0.4
							c0.5-0.1,0.9,0.1,1.2,0.6c0.2,0.2,0.5,0,0.4-0.2C48.9,178.5,48.2,178.2,47.6,178.3L47.6,178.3z M44.1,180
							c-0.9,0.2-1.5,0.9-1.6,1.8c0,0.3,0.4,0.3,0.4,0c0.1-0.7,0.6-1.3,1.3-1.4C44.5,180.4,44.4,179.9,44.1,180z M37.3,181.6
							c-0.5,0.7-0.4,1.8,0.3,2.3c0.2,0.2,0.4-0.2,0.2-0.4c-0.5-0.4-0.6-1.2-0.2-1.7C37.8,181.6,37.5,181.4,37.3,181.6L37.3,181.6z
							 M52.1,177.4c-0.1,0-0.2,0.1-0.2,0.2c0,0.1,0.1,0.2,0.2,0.2c0.3,0,0.6,0.2,0.8,0.5c0.1,0.2,0.5,0,0.4-0.2
							C53,177.6,52.6,177.4,52.1,177.4L52.1,177.4z M52.3,186.1c-0.5,0.2-1.1,0-1.3-0.5c0,0,0-0.1,0-0.1c-0.1-0.2-0.5-0.1-0.4,0.2
							c0.3,0.7,1.2,1.1,1.9,0.8c0,0,0,0,0,0C52.8,186.4,52.5,186,52.3,186.1L52.3,186.1z M46.6,187.8c-0.5,0-0.9-0.3-1.1-0.7
							c-0.1-0.2-0.5,0-0.4,0.2c0.3,0.7,1.1,1.1,1.9,0.9c0.1,0,0.2-0.1,0.2-0.2c0,0,0-0.1-0.1-0.1l-0.1-0.2
							C46.8,187.5,46.6,187.6,46.6,187.8L46.6,187.8z M41.6,189.5c-0.5,0.1-1-0.3-1.1-0.8c0,0,0,0,0-0.1c0-0.3-0.4-0.3-0.4,0
							c0,0.7,0.7,1.3,1.4,1.3c0.1,0,0.1,0,0.2,0c0.1,0,0.2-0.2,0.1-0.3C41.8,189.5,41.7,189.5,41.6,189.5L41.6,189.5z M46,192.5
							c-0.4,0.2-1,0-1.2-0.5c0,0,0,0,0,0c-0.1-0.2-0.5-0.2-0.4,0.1c0.2,0.7,1,1,1.7,0.8c0,0,0.1,0,0.1,0
							C46.5,192.8,46.3,192.4,46,192.5L46,192.5z M50.1,194.5c-0.5,0.2-1,0.2-1.4-0.2c-0.2-0.2-0.5,0.1-0.3,0.3
							c0.5,0.5,1.3,0.6,1.9,0.2c0.1-0.1,0-0.2-0.1-0.3C50.2,194.6,50.2,194.6,50.1,194.5L50.1,194.5z"/>
					</g>
					<path class="st12" d="M50.1,80.6c0,0,2.5-0.9,3.3-2.9c0.3-0.7,0.6-1.5,0.7-2.2c0-0.1-0.1-0.3-0.2-0.3c-0.1,0-0.1,0-0.2,0
						L53,75.6c0.2-0.8,0.3-1.7,0.1-2.5c-0.1-0.6-0.1-1.1-0.2-1.4c0-0.2-0.2-0.3-0.4-0.3c-0.1,0-0.1,0-0.2,0.1l-0.2,0.2v-3.5
						c-1.4,0.8-2.7,1.7-3.9,2.8c-0.7,0.6-1.2,1.4-1.5,2.2l-0.5-0.9c-0.1-0.2-0.3-0.2-0.5-0.1c-0.1,0-0.1,0.1-0.1,0.1
						c-0.4,0.7-1,2.4-0.3,5.8C46.5,83.2,50.1,80.6,50.1,80.6z"/>
					<path class="st29" d="M45.4,78.2c-0.8-3.4-0.1-5.1,0.3-5.8c0.1-0.2,0.3-0.2,0.5-0.1c0.1,0,0.1,0.1,0.1,0.1l0.5,0.9
						c0.3-0.8,0.8-1.6,1.5-2.2c1.2-1.1,2.5-2,3.9-2.8c0,0-4,6.5-5.1,12.7C46.4,80.7,45.8,79.8,45.4,78.2z"/>
					<path class="st30" d="M55.3,95.2c1.2,1.2,1.2,3.1,0,4.3c-1.2,1.2-3.1,1.2-4.3,0s-1.2-3.1,0-4.3c0,0,0,0,0,0
						C52.1,94,54.1,94,55.3,95.2z"/>
					<g class="st31">
						<path class="st30" d="M54.7,94.8l0.2,0.2c1,0.8,1.1,2.3,0.2,3.3c-0.8,1-2.3,1.1-3.3,0.2c-0.1-0.1-0.1-0.1-0.2-0.2
							c-0.9-0.9-0.9-2.3,0-3.2c0,0,0,0,0,0c0.3-0.3,0.6-0.5,1-0.6c-0.6,0.1-1.2,0.4-1.7,0.9c-1.2,1.2-1.2,3.1,0,4.3
							c1.2,1.2,3.1,1.2,4.3,0s1.2-3.1,0-4.3c0,0,0,0,0,0C55.1,95,54.9,94.9,54.7,94.8z"/>
					</g>
					<path class="st30" d="M57.6,85.9c1.3,1.3,1.4,3.3,0.1,4.7c-1.3,1.3-3.3,1.4-4.7,0.1c-1.3-1.3-1.4-3.3-0.1-4.7c0,0,0,0,0,0
						C54.3,84.7,56.3,84.7,57.6,85.9z"/>
					<g class="st31">
						<path class="st30" d="M57,85.5l0.2,0.2c1,1,1,2.5,0,3.5c-1,1-2.5,1-3.5,0c-1-1-1-2.5,0-3.5c0.3-0.3,0.6-0.5,1-0.6
							c-0.6,0.2-1.2,0.5-1.7,1c-1.3,1.3-1.3,3.4,0,4.7c1.3,1.3,3.4,1.3,4.7,0c1.3-1.3,1.3-3.4,0-4.7C57.5,85.8,57.2,85.6,57,85.5z"
							/>
					</g>
					<path class="st30" d="M57.8,80.5c1.4,1.4,1.4,3.8,0,5.2c-1.4,1.4-3.8,1.4-5.2,0c-1.4-1.4-1.4-3.8,0-5.2c0,0,0,0,0,0
						C54.1,79.1,56.4,79.1,57.8,80.5z"/>
					<g class="st31">
						<path class="st30" d="M57.2,80l0.2,0.2c1.1,1.1,1.1,2.8,0.1,3.9c-1.1,1.1-2.8,1.1-3.9,0.1c-1.1-1.1-1.1-2.8-0.1-3.9
							c0.3-0.3,0.7-0.6,1.2-0.7c-0.8,0.1-1.5,0.5-2,1c-1.4,1.4-1.4,3.8,0,5.2c1.4,1.4,3.8,1.4,5.2,0c1.4-1.4,1.4-3.8,0-5.2
							c0,0,0,0,0,0C57.6,80.3,57.4,80.2,57.2,80z"/>
					</g>
					<path class="st12" d="M46.3,79.4c0,0-3-2.9-3.3-5.7c-0.2-1.4,0.3-2.8,1.1-3.8c0.3-0.3,0.7-0.4,1.1-0.1l0,0
						c0.3,0.3,0.4,0.7,0.2,1.1c-0.8,1.1-1.1,2.5-0.7,3.9c0.8,2.2,2.1,4.4,2.1,4.6S46.3,79.4,46.3,79.4z"/>
					<path class="st29" d="M44,75.3c-0.8-2.1,0.1-4.4,0.9-5.8c-0.3,0-0.5,0.1-0.7,0.3c-0.9,1.1-1.3,2.5-1.1,3.8
						c0.3,2.8,3.3,5.7,3.3,5.7c0.1,0,0.2-0.1,0.3-0.1C45.5,78.2,44.6,76.9,44,75.3z"/>
					<path class="st30" d="M45,79.2c1.2,1.2,1.2,3.1,0,4.3s-3.1,1.2-4.3,0c-1.2-1.2-1.2-3.1,0-4.3C41.9,78,43.8,78,45,79.2
						C45,79.2,45,79.2,45,79.2z"/>
					<g class="st31">
						<path class="st30" d="M44.5,78.8l0.2,0.2c0.9,0.9,0.9,2.4,0.1,3.3c-0.9,0.9-2.4,0.9-3.3,0.1s-0.9-2.4-0.1-3.3
							c0.3-0.3,0.6-0.5,1-0.6c-1.7,0.3-2.8,1.9-2.5,3.5s1.9,2.8,3.5,2.5c1.7-0.3,2.8-1.9,2.5-3.5c-0.1-0.6-0.4-1.2-0.9-1.6
							C44.8,79,44.7,78.9,44.5,78.8z"/>
					</g>
					<path class="st30" d="M49.5,77.8c1.2,1.2,1.2,3.1,0,4.3c-1.2,1.2-3.1,1.2-4.3,0c-1.2-1.2-1.2-3.1,0-4.3
						C46.3,76.6,48.3,76.6,49.5,77.8C49.5,77.8,49.5,77.8,49.5,77.8z"/>
					<g class="st31">
						<path class="st30" d="M48.9,77.4c0.1,0,0.1,0.1,0.2,0.2c0.9,0.9,0.9,2.4,0.1,3.3c-0.9,0.9-2.4,0.9-3.3,0.1s-0.9-2.4-0.1-3.3
							c0.3-0.3,0.6-0.5,1-0.6c-1.7,0.3-2.8,1.9-2.5,3.5s1.9,2.8,3.5,2.5c1.7-0.3,2.8-1.9,2.5-3.5c-0.1-0.6-0.4-1.2-0.9-1.6
							C49.3,77.6,49.1,77.5,48.9,77.4z"/>
					</g>
					<path class="st30" d="M53.5,76.6c1.2,1.2,1.2,3.1,0,4.3s-3.1,1.2-4.3,0c-1.2-1.2-1.2-3.1,0-4.3C50.4,75.4,52.3,75.4,53.5,76.6
						C53.5,76.5,53.5,76.6,53.5,76.6z"/>
					<g class="st31">
						<path class="st30" d="M53,76.1l0.2,0.2c0.9,0.9,0.9,2.4,0.1,3.3c-0.9,0.9-2.4,0.9-3.3,0.1s-0.9-2.4-0.1-3.3
							c0.3-0.3,0.6-0.5,1-0.6c-1.7,0.3-2.8,1.9-2.5,3.5s1.9,2.8,3.5,2.5c1.7-0.3,2.8-1.9,2.5-3.5c-0.1-0.6-0.4-1.2-0.9-1.6
							C53.4,76.4,53.2,76.2,53,76.1z"/>
					</g>
					<path class="st30" d="M51.3,92.7c1.2,1.2,1.2,3.1,0,4.3c-1.2,1.2-3.1,1.2-4.3,0c-1.2-1.2-1.2-3.1,0-4.3
						C48.2,91.5,50.1,91.5,51.3,92.7z"/>
					<g class="st31">
						<path class="st30" d="M50.7,92.2l0.2,0.2c0.9,0.9,0.9,2.4,0,3.3c-0.9,0.9-2.4,0.9-3.3,0s-0.9-2.4,0-3.3c0,0,0,0,0,0
							c0.3-0.3,0.6-0.5,1-0.6c-0.6,0.1-1.2,0.4-1.7,0.9c-1.2,1.2-1.2,3.1,0,4.3c1.2,1.2,3.1,1.2,4.3,0c1.2-1.2,1.2-3.1,0-4.3
							C51.2,92.5,51,92.4,50.7,92.2z"/>
					</g>
					<path class="st30" d="M56.5,90.8c1.2,1.2,1.2,3.1,0,4.3c-1.2,1.2-3.1,1.2-4.3,0s-1.2-3.1,0-4.3c0,0,0,0,0,0
						C53.3,89.6,55.2,89.6,56.5,90.8C56.5,90.8,56.5,90.8,56.5,90.8z"/>
					<g class="st31">
						<path class="st30" d="M55.9,90.4l0.2,0.2c0.9,0.9,1,2.3,0.1,3.3c-0.9,0.9-2.3,1-3.3,0.1s-1-2.3-0.1-3.3
							c0.3-0.3,0.6-0.5,0.9-0.6c-1.7,0.3-2.8,1.9-2.5,3.6c0.1,0.6,0.4,1.2,0.9,1.7c1.2,1.2,3.2,1.1,4.3-0.1c1.1-1.2,1.1-3,0-4.2
							C56.3,90.7,56.1,90.5,55.9,90.4z"/>
					</g>
					<path class="st30" d="M47.7,89.1c1.3,1.3,1.3,3.4,0,4.7c-1.3,1.3-3.4,1.3-4.7,0c-1.3-1.3-1.3-3.4,0-4.7
						C44.3,87.8,46.4,87.8,47.7,89.1C47.7,89.1,47.7,89.1,47.7,89.1z"/>
					<g class="st31">
						<path class="st30" d="M47,88.6c0.1,0.1,0.1,0.1,0.2,0.2c1,1,1,2.5,0,3.5c-1,1-2.5,1-3.5,0c-1-1-1-2.5,0-3.5c0,0,0,0,0,0
							c0.3-0.3,0.6-0.5,1-0.6c-0.7,0.1-1.3,0.4-1.8,0.9c-1.3,1.3-1.3,3.4,0,4.7c1.3,1.3,3.4,1.3,4.7,0c1.3-1.3,1.3-3.4,0-4.7
							C47.5,88.9,47.3,88.7,47,88.6z"/>
					</g>
					<path class="st30" d="M52.8,87.6c1.3,1.3,1.3,3.4,0,4.7c-1.3,1.3-3.4,1.3-4.7,0c-1.3-1.3-1.3-3.4,0-4.7
						C49.4,86.3,51.5,86.3,52.8,87.6C52.8,87.6,52.8,87.6,52.8,87.6z"/>
					<g class="st31">
						<path class="st30" d="M52.2,87.1l0.2,0.2c1,1,1,2.5,0,3.5c-1,1-2.5,1-3.5,0c-1-1-1-2.5,0-3.5c0.3-0.3,0.6-0.5,1-0.6
							c-0.7,0.1-1.3,0.4-1.8,0.9c-1.3,1.3-1.3,3.4,0,4.7c1.3,1.3,3.4,1.3,4.7,0c1.3-1.3,1.3-3.4,0-4.7
							C52.6,87.4,52.4,87.3,52.2,87.1z"/>
					</g>
					<path class="st30" d="M54.4,81.5c1.4,1.4,1.4,3.8,0,5.2c-1.4,1.4-3.8,1.4-5.2,0c-1.4-1.4-1.4-3.8,0-5.2c0,0,0,0,0,0
						C50.6,80.1,52.9,80.1,54.4,81.5z"/>
					<g class="st31">
						<path class="st30" d="M53.7,81c0.1,0.1,0.1,0.1,0.2,0.2c1.1,1.1,1.1,2.8,0,3.9c-1.1,1.1-2.8,1.1-3.9,0s-1.1-2.8,0-3.9
							c0.3-0.3,0.7-0.6,1.1-0.7c-0.8,0.1-1.5,0.5-2,1c-1.4,1.4-1.4,3.8,0,5.2c1.4,1.4,3.8,1.4,5.2,0c1.4-1.4,1.4-3.8,0-5.2
							c0,0,0,0,0,0C54.2,81.3,53.9,81.1,53.7,81z"/>
					</g>
					<path class="st30" d="M44.8,84c1.4,1.4,1.4,3.8,0,5.2c-1.4,1.4-3.8,1.4-5.2,0c-1.4-1.4-1.4-3.8,0-5.2c0,0,0,0,0,0
						C41,82.6,43.4,82.6,44.8,84z"/>
					<g class="st31">
						<path class="st30" d="M44.1,83.5l0.2,0.2c1.1,1.1,1.1,2.8,0,3.9c-1.1,1.1-2.8,1.1-3.9,0c-1.1-1.1-1.1-2.8,0-3.9
							c0.3-0.3,0.7-0.6,1.1-0.7c-0.8,0.1-1.5,0.5-2,1c-1.4,1.4-1.4,3.8,0,5.2c1.4,1.4,3.8,1.4,5.2,0c1.4-1.4,1.4-3.8,0-5.2
							c0,0,0,0,0,0C44.6,83.8,44.4,83.6,44.1,83.5z"/>
					</g>
					<path class="st30" d="M50,82.7c1.4,1.4,1.4,3.8,0,5.2c-1.4,1.4-3.8,1.4-5.2,0c-1.4-1.4-1.4-3.8,0-5.2c0,0,0,0,0,0
						C46.2,81.2,48.6,81.2,50,82.7z"/>
					<g class="st31">
						<path class="st30" d="M49.3,82.2l0.2,0.2c1.1,1.1,1.1,2.8,0,3.9c-1.1,1.1-2.8,1.1-3.9,0c-1.1-1.1-1.1-2.8,0-3.9
							c0.3-0.3,0.7-0.6,1.2-0.7c-2,0.3-3.3,2.2-3,4.2c0.1,0.8,0.5,1.5,1,2c1.4,1.4,3.8,1.4,5.2,0c1.4-1.4,1.4-3.8,0-5.2l0,0
							C49.8,82.5,49.6,82.3,49.3,82.2z"/>
					</g>
					<g class="st32">
						<path class="st5" d="M43.9,79.2c0.1,0.2-0.2,0.4-0.4,0.2c-0.1-0.2-0.3-0.3-0.6-0.3h-0.1c0,0,0,0-0.1,0h-0.2h-0.1
							c-0.1,0-0.2,0-0.2-0.1c0,0,0,0,0,0c0-0.1,0-0.2,0.1-0.2c0,0,0,0,0,0h0.1c0.2-0.1,0.4-0.2,0.6-0.1l0,0
							C43.4,78.6,43.8,78.9,43.9,79.2z M47.1,77.3c-0.6,0.2-0.9,0.8-1,1.4c0,0.3,0.4,0.3,0.4,0c0.1-0.4,0.3-0.8,0.8-1
							C47.5,77.6,47.3,77.2,47.1,77.3z M50.4,76.5c-0.5,0.5-0.6,1.3-0.2,1.9c0.1,0.1,0.2,0.1,0.3,0.1c0.1-0.1,0.1-0.2,0.1-0.3l0,0
							c-0.2-0.4-0.2-1,0.2-1.4C50.9,76.6,50.6,76.3,50.4,76.5z M51.2,80.9c-0.3,0-0.2,0.4,0.1,0.4c0.5-0.1,0.9,0.1,1.2,0.6
							c0.1,0.2,0.5,0,0.4-0.2C52.5,81,51.9,80.7,51.2,80.9z M47.8,82.5c-0.9,0.2-1.5,0.9-1.6,1.8c0,0.3,0.4,0.3,0.4,0
							c0.1-0.7,0.6-1.2,1.3-1.4c0.1-0.1,0.1-0.2,0-0.3C47.9,82.6,47.9,82.5,47.8,82.5z M41,84.2c-0.5,0.7-0.4,1.8,0.3,2.3
							c0.2,0.2,0.4-0.2,0.2-0.4c-0.5-0.4-0.6-1.2-0.2-1.7C41.5,84.2,41.1,83.9,41,84.2z M55.7,79.9c-0.1,0-0.2,0.1-0.2,0.3
							c0,0.1,0.1,0.1,0.2,0.2c0.3,0,0.6,0.2,0.8,0.5c0.1,0.2,0.5,0,0.4-0.2C56.7,80.2,56.2,79.9,55.7,79.9z M56,88.7
							c-0.5,0.2-1.1,0-1.3-0.5c0,0,0,0,0-0.1c-0.1-0.2-0.5,0-0.4,0.2c0.3,0.7,1.2,1.1,1.9,0.8c0,0,0,0,0,0
							C56.4,88.9,56.2,88.5,56,88.7z M50.3,90.3c-0.5,0-0.9-0.3-1.1-0.7c-0.1-0.2-0.5,0-0.4,0.2c0.3,0.7,1.1,1.1,1.8,0.9
							c0.1,0,0.2-0.1,0.2-0.3c0,0,0-0.1,0-0.1l-0.2-0.2C50.5,90,50.3,90.1,50.3,90.3L50.3,90.3z M45.3,92c-0.5,0.1-1-0.3-1.1-0.8
							c0,0,0-0.1,0-0.1c0-0.3-0.4-0.3-0.4,0c0,0.7,0.7,1.3,1.4,1.3c0.1,0,0.1,0,0.2,0C45.6,92.4,45.5,92,45.3,92L45.3,92z
							 M49.7,95.1c-0.5,0.2-1,0-1.2-0.5c0,0,0,0,0,0c-0.1-0.2-0.5-0.2-0.4,0.1c0.2,0.7,1,1,1.7,0.8c0,0,0.1,0,0.1,0
							C50.2,95.3,50,95,49.7,95.1L49.7,95.1z M53.8,97.1c-0.4,0.2-1,0.2-1.4-0.2c-0.2-0.2-0.5,0.1-0.3,0.3c0.5,0.5,1.3,0.6,1.9,0.2
							C54.2,97.4,54,97,53.8,97.1L53.8,97.1z"/>
					</g>
				</g>
			</g>
		</g>
	</g>
</g>
</svg>
