<?xml version="1.0" encoding="utf-8"?>
<!-- Generator: Adobe Illustrator 25.2.3, SVG Export Plug-In . SVG Version: 6.00 Build 0)  -->
<svg version="1.1" id="Layer_1" xmlns="http://www.w3.org/2000/svg" xmlns:xlink="http://www.w3.org/1999/xlink" x="0px" y="0px"
	 viewBox="0 0 235.4 381.8" style="enable-background:new 0 0 235.4 381.8;" xml:space="preserve">
<style type="text/css">
	.st0{fill:#221F1F;}
	.st1{fill:#F2B055;}
	.st2{fill:#FFF0CC;}
	.st3{fill:#231F20;}
	.st4{clip-path:url(#SVGID_2_);}
	.st5{fill:#2B3251;}
	.st6{fill:#3F272D;}
	.st7{fill:#472E34;}
	.st8{fill:#FFFFFF;}
	.st9{fill:#404041;}
	.st10{fill:#50373E;}
	.st11{fill:#3F2F34;}
	.st12{fill:#FFD150;}
	.st13{fill:#E3705E;}
	.st14{fill:#ED915C;}
	.st15{fill:none;}
	.st16{fill:#4A355B;}
	.st17{fill:#47372E;}
	.st18{fill:#DC4F65;}
	.st19{fill:#E5705F;}
	.st20{fill:#F2AF55;}
	.st21{fill:#544838;}
	.st22{fill:#FFD250;}
	.st23{fill:#2D2D2D;}
	.st24{fill:#F1F1F1;}
	.st25{fill:#6B3D46;}
	.st26{fill:#54333A;}
	.st27{fill:#E5E6E6;}
	.st28{fill:#BCBDBF;}
</style>
<g id="Layer_2_1_">
	<g id="Layer_1-2">
		<path class="st0" d="M178.9,287.1H51C37.2,287,26,275.8,26,262V68.5c0-13.8,11.2-25,25-25.1h127.9c13.9,0,25.1,11.2,25.1,25.1V262
			C204,275.9,192.8,287.1,178.9,287.1z M51,44.8c-13.1,0-23.6,10.6-23.6,23.7V262c0,13.1,10.6,23.6,23.6,23.7h127.9
			c13.1,0,23.7-10.6,23.7-23.7V68.5c0-13.1-10.6-23.7-23.7-23.7H51z"/>
		<path class="st1" d="M235.4,14.5v352.9c-0.2,8.1-6.9,14.6-15,14.5H15c-8.3,0-15-6.5-15-14.5V14.5C0,6.5,6.7,0,15,0h205.4
			C228.7,0,235.4,6.5,235.4,14.5z M222.8,358.9V22.9c0-6-4.8-10.8-10.8-10.9H23.5c-6,0-10.8,4.9-10.8,10.8c0,0,0,0,0,0v336.1
			c0,6,4.9,10.8,10.8,10.8H212C218,369.7,222.8,364.9,222.8,358.9z"/>
		<path class="st2" d="M23.5,12H212c6,0,10.8,4.8,10.8,10.8v336.1c0,6-4.8,10.8-10.8,10.8H23.5c-6,0-10.8-4.8-10.8-10.8V22.9
			C12.6,16.9,17.5,12,23.5,12z"/>
		<path class="st3" d="M22.6,329.3c-0.1-0.2-0.2-0.3-0.2-0.5v-11.9c0-0.2,0-0.4,0.2-0.5c0.2-0.1,0.4-0.2,0.6-0.2h8.2
			c0.3-0.1,0.6,0.1,0.7,0.4c0,0.1,0,0.2,0,0.2v0.5c0,0.2,0,0.4-0.1,0.5c-0.2,0.1-0.3,0.2-0.5,0.2h-6.4v3.8h4.6c0.2,0,0.4,0,0.5,0.2
			c0.1,0.2,0.2,0.3,0.1,0.5v0.5c0,0.2,0,0.4-0.1,0.5c-0.2,0.1-0.4,0.2-0.5,0.2h-4.6v5c0,0.2,0,0.4-0.2,0.5c-0.2,0.1-0.4,0.2-0.6,0.2
			h-1.1C22.9,329.5,22.7,329.4,22.6,329.3z"/>
		<path class="st3" d="M33.7,329.3c-0.1-0.2-0.2-0.3-0.2-0.5v-11.9c0-0.2,0-0.4,0.2-0.5c0.2-0.1,0.4-0.2,0.6-0.2h1
			c0.2,0,0.4,0,0.6,0.2c0.1,0.2,0.2,0.3,0.2,0.5v11.9c0,0.2,0,0.4-0.2,0.5c-0.2,0.1-0.4,0.2-0.6,0.2h-1
			C34.1,329.5,33.9,329.4,33.7,329.3z"/>
		<path class="st3" d="M43.4,329.4c-0.1-0.1-0.2-0.2-0.2-0.4L38,316.7c0-0.1,0-0.2,0-0.2c0-0.1,0-0.2,0.1-0.2
			c0.1-0.1,0.2-0.1,0.2-0.1H40c0.1,0,0.3,0,0.4,0.1c0.1,0.1,0.2,0.2,0.2,0.3l3.7,9.5l3.7-9.4c0-0.1,0.1-0.2,0.2-0.3
			c0.1-0.1,0.3-0.1,0.4-0.1h1.7c0.1,0,0.2,0,0.2,0.1c0.1,0.1,0.1,0.1,0.1,0.2c0,0.1,0,0.2,0,0.2L45.5,329c0,0.2-0.1,0.3-0.3,0.4
			c-0.1,0.1-0.3,0.1-0.4,0.1h-1.1C43.7,329.5,43.5,329.5,43.4,329.4z"/>
		<path class="st3" d="M52.5,329.3c-0.1-0.2-0.2-0.3-0.2-0.5v-11.9c0-0.2,0-0.4,0.2-0.5c0.2-0.1,0.4-0.2,0.6-0.2h8.2
			c0.3-0.1,0.6,0.1,0.7,0.4c0,0.1,0,0.2,0,0.2v0.5c0,0.2,0,0.4-0.2,0.5c-0.2,0.1-0.3,0.2-0.5,0.2h-6.4v3.8h4.6c0.2,0,0.4,0,0.5,0.1
			c0.1,0.1,0.2,0.3,0.2,0.5v0.5c0,0.2,0,0.4-0.2,0.5c-0.2,0.1-0.4,0.2-0.5,0.2h-4.6v3.8h6.4c0.3-0.1,0.6,0.1,0.7,0.5
			c0,0.1,0,0.2,0,0.2v0.5c0,0.2,0,0.4-0.2,0.5c-0.2,0.1-0.4,0.2-0.5,0.1h-8.2C52.9,329.5,52.7,329.4,52.5,329.3z"/>
		<path class="st3" d="M72.7,328c-2.3-3-2.3-7.3,0-10.3c1.3-1.3,3.1-2,5-1.8c1.9-0.1,3.7,0.5,5,1.8c2.3,3,2.3,7.3,0,10.3
			c-1.3,1.3-3.1,2-5,1.8C75.8,330,74,329.3,72.7,328z M80.8,326.7c0.8-1.1,1.2-2.5,1.1-3.8c0.1-1.4-0.3-2.7-1.1-3.8
			c-0.8-0.9-1.9-1.4-3.1-1.3c-1.2-0.1-2.4,0.4-3.2,1.3c-0.8,1.1-1.2,2.5-1.1,3.8c-0.1,1.4,0.3,2.7,1.1,3.8c0.8,0.9,2,1.4,3.2,1.3
			C78.9,328,80,327.5,80.8,326.7L80.8,326.7z"/>
		<path class="st3" d="M86.5,329.3c-0.1-0.2-0.2-0.3-0.2-0.5v-11.9c0-0.2,0-0.4,0.2-0.5c0.2-0.1,0.4-0.2,0.6-0.2h8.2
			c0.2,0,0.4,0,0.5,0.2c0.1,0.2,0.2,0.3,0.2,0.5v0.5c0,0.2,0,0.4-0.2,0.5c-0.1,0.1-0.3,0.2-0.5,0.2h-6.4v3.8h4.6
			c0.2,0,0.4,0,0.5,0.2c0.1,0.1,0.2,0.3,0.2,0.5v0.5c0,0.2,0,0.4-0.2,0.5c-0.2,0.1-0.4,0.2-0.6,0.2h-4.6v5c0,0.2,0,0.4-0.2,0.5
			c-0.2,0.1-0.4,0.2-0.6,0.2h-1C86.9,329.5,86.7,329.4,86.5,329.3z"/>
		<path class="st3" d="M105.3,329.3c-0.1-0.2-0.2-0.3-0.2-0.5v-11.9c0-0.2,0-0.4,0.2-0.5c0.2-0.1,0.4-0.2,0.6-0.2h5
			c1.3-0.1,2.6,0.3,3.6,1.2c1.6,1.9,1.6,4.7,0,6.6c-1,0.8-2.3,1.2-3.6,1.1h-3.2v3.8c0,0.2,0,0.4-0.2,0.5c-0.2,0.1-0.4,0.2-0.6,0.2
			h-1C105.7,329.5,105.5,329.4,105.3,329.3z M110.8,323c0.7,0,1.3-0.2,1.8-0.6c0.4-0.5,0.6-1.2,0.6-1.9c0.1-0.7-0.2-1.4-0.6-1.9
			c-0.5-0.4-1.1-0.7-1.8-0.6h-3.1v5L110.8,323z"/>
		<path class="st3" d="M117.4,329.3c-0.1-0.1-0.2-0.3-0.2-0.5v-11.9c0-0.2,0-0.4,0.2-0.5c0.2-0.1,0.4-0.2,0.6-0.2h8.2
			c0.3-0.1,0.6,0.1,0.7,0.4c0,0.1,0,0.2,0,0.2v0.5c0,0.2,0,0.4-0.2,0.5c-0.2,0.1-0.3,0.2-0.5,0.2h-6.4v3.8h4.6c0.2,0,0.4,0,0.6,0.2
			c0.1,0.1,0.2,0.3,0.2,0.5v0.5c0.1,0.3-0.1,0.6-0.5,0.7c-0.1,0-0.2,0-0.2,0h-4.6v3.8h6.4c0.3-0.1,0.6,0.1,0.7,0.5
			c0,0.1,0,0.2,0,0.2v0.5c0,0.2,0,0.4-0.2,0.5c-0.2,0.1-0.4,0.2-0.6,0.1h-8.2C117.7,329.5,117.5,329.4,117.4,329.3z"/>
		<path class="st3" d="M128.7,329.3c-0.1-0.2-0.2-0.3-0.2-0.5v-11.9c0-0.2,0-0.4,0.2-0.5c0.2-0.1,0.4-0.2,0.6-0.2h0.9
			c0.2,0,0.3,0,0.4,0.1c0.1,0.1,0.2,0.2,0.3,0.3l6.5,9v-8.7c0-0.2,0-0.4,0.2-0.5c0.2-0.1,0.4-0.2,0.6-0.2h1c0.3-0.1,0.7,0.2,0.7,0.5
			c0,0.1,0,0.1,0,0.2v11.9c0,0.2,0,0.4-0.2,0.5c-0.2,0.1-0.4,0.2-0.6,0.2h-0.9c-0.3,0-0.6-0.1-0.7-0.4l-6.5-9v8.6
			c0,0.2,0,0.4-0.2,0.5c-0.2,0.1-0.4,0.2-0.6,0.2h-1C129.1,329.5,128.9,329.4,128.7,329.3z"/>
		<path class="st3" d="M145.8,329.3c-0.1-0.2-0.2-0.3-0.2-0.5V318h-3.4c-0.2,0-0.4,0-0.5-0.1c-0.1-0.2-0.2-0.3-0.1-0.5v-0.5
			c0-0.2,0-0.4,0.1-0.5c0.1-0.1,0.3-0.2,0.5-0.2h9.4c0.2,0,0.4,0,0.6,0.2c0.1,0.2,0.2,0.3,0.2,0.5v0.5c0,0.2,0,0.4-0.2,0.5
			c-0.2,0.1-0.4,0.2-0.6,0.1h-3.4v10.7c0,0.2,0,0.4-0.2,0.5c-0.2,0.1-0.4,0.2-0.6,0.2h-1C146.2,329.5,145.9,329.4,145.8,329.3z"/>
		<path class="st3" d="M151,329.2c0-0.1,0-0.2,0.1-0.3l5.2-12.3c0.1-0.2,0.1-0.3,0.3-0.4c0.1-0.1,0.3-0.1,0.4-0.1h1.1
			c0.1,0,0.3,0,0.4,0.1c0.1,0.1,0.2,0.3,0.2,0.4l5.2,12.3c0,0.1,0.1,0.2,0.1,0.3c0,0.2-0.1,0.3-0.3,0.3h-1.7c-0.1,0-0.3,0-0.4-0.1
			c-0.1-0.1-0.2-0.2-0.2-0.3l-1.1-2.8h-5.4l-1.1,2.8c0,0.1-0.1,0.2-0.2,0.3c-0.1,0.1-0.2,0.1-0.4,0.1h-1.7
			C151.1,329.5,151,329.4,151,329.2z M159.5,324.5l-2.1-5.1l-2.1,5.1H159.5z"/>
		<path class="st3" d="M166.1,328c-2.9-2.6-3.1-7-0.5-9.9c1.4-1.6,3.5-2.4,5.6-2.3c0.8,0,1.7,0.1,2.5,0.3c0.7,0.1,1.3,0.4,1.9,0.8
			c0.1,0.1,0.2,0.1,0.2,0.3c0,0.1,0,0.2-0.1,0.3l-0.6,1c-0.1,0.1-0.1,0.2-0.2,0.2c-0.1,0-0.2,0-0.3-0.1c-1-0.5-2.1-0.8-3.2-0.8
			c-1.3-0.1-2.6,0.4-3.5,1.2c-1.7,2.3-1.7,5.4,0,7.7c0.9,0.9,2.2,1.3,3.5,1.3c1.2,0,2.3-0.2,3.4-0.8c0.1,0,0.2-0.1,0.2-0.1
			c0.1,0,0.2,0.1,0.2,0.2l0.6,1c0,0.1,0.1,0.1,0.1,0.2c0,0.1-0.1,0.2-0.2,0.3c-1.4,0.8-3,1.2-4.6,1.1
			C169.4,329.9,167.5,329.3,166.1,328z"/>
		<path class="st3" d="M178.2,329.3c-0.1-0.2-0.2-0.3-0.2-0.5v-11.9c0-0.2,0-0.4,0.2-0.5c0.2-0.1,0.4-0.2,0.6-0.2h1
			c0.2,0,0.4,0,0.6,0.2c0.1,0.2,0.2,0.3,0.2,0.5v10.7h6c0.2,0,0.4,0,0.6,0.2c0.1,0.2,0.2,0.3,0.1,0.5v0.5c0,0.2,0,0.4-0.1,0.5
			c-0.2,0.1-0.4,0.2-0.6,0.1h-7.8C178.5,329.5,178.3,329.4,178.2,329.3z"/>
		<path class="st3" d="M188.6,329.3c-0.1-0.2-0.2-0.3-0.2-0.5v-11.9c0-0.2,0-0.4,0.2-0.5c0.2-0.1,0.4-0.2,0.6-0.2h8.2
			c0.2,0,0.4,0,0.6,0.2c0.1,0.2,0.2,0.3,0.1,0.5v0.5c0,0.2,0,0.4-0.1,0.5c-0.2,0.1-0.4,0.2-0.6,0.2H191v3.8h4.6c0.2,0,0.4,0,0.6,0.2
			c0.1,0.2,0.2,0.3,0.1,0.5v0.5c0,0.2,0,0.4-0.1,0.5c-0.2,0.1-0.4,0.2-0.6,0.2H191v3.8h6.4c0.2,0,0.4,0,0.6,0.2
			c0.1,0.2,0.2,0.3,0.1,0.5v0.5c0,0.2,0,0.4-0.1,0.5c-0.2,0.1-0.4,0.2-0.6,0.1h-8.2C189,329.5,188.8,329.4,188.6,329.3z"/>
		<path class="st3" d="M201.9,329.5c-0.8-0.1-1.5-0.4-2.1-0.9c-0.2-0.1-0.3-0.2-0.3-0.3c0-0.1,0-0.2,0.1-0.2l0.6-1
			c0.1-0.1,0.1-0.2,0.2-0.2c0.1,0,0.2,0,0.2,0.1c0.5,0.3,1.1,0.5,1.7,0.7c0.6,0.2,1.3,0.3,1.9,0.3c0.7,0,1.4-0.1,2-0.4
			c0.5-0.3,0.7-0.9,0.7-1.4c0-0.3-0.1-0.7-0.3-0.9c-0.2-0.3-0.5-0.5-0.8-0.6c-0.5-0.3-1-0.5-1.6-0.7l-0.4-0.2
			c-0.7-0.3-1.4-0.6-2.1-1c-0.5-0.3-1-0.7-1.4-1.2c-1-1.5-0.6-3.5,0.8-4.6c1.1-0.7,2.3-1.1,3.6-1c0.8,0,1.6,0.1,2.4,0.3
			c0.6,0.1,1.2,0.4,1.7,0.8c0.2,0.1,0.2,0.2,0.2,0.3c0,0.1,0,0.2-0.1,0.2l-0.6,1c-0.1,0.1-0.1,0.2-0.2,0.2c-0.1,0-0.2-0.1-0.2-0.1
			c-0.9-0.6-2-0.8-3.1-0.8c-0.7,0-1.3,0.1-1.9,0.5c-0.4,0.3-0.7,0.9-0.6,1.4c0,0.4,0.1,0.7,0.3,1c0.2,0.3,0.5,0.5,0.8,0.6
			c0.4,0.2,0.9,0.4,1.7,0.7l0.5,0.2c0.8,0.3,1.5,0.6,2.2,1c0.5,0.3,0.9,0.7,1.2,1.2c0.3,0.6,0.5,1.2,0.4,1.8c0,1-0.4,2-1.3,2.7
			c-1.1,0.7-2.3,1.1-3.6,1C203.7,329.8,202.7,329.7,201.9,329.5z"/>
		<g>
			<defs>
				<path id="SVGID_1_" d="M53.1,44.1h129.2c13.7,0,24.8,11.1,24.8,24.8v192.6c0,13.7-11.1,24.8-24.8,24.8H53.1
					c-13.7,0-24.8-11.1-24.8-24.8V68.9C28.3,55.2,39.4,44.1,53.1,44.1z"/>
			</defs>
			<clipPath id="SVGID_2_">
				<use xlink:href="#SVGID_1_"  style="overflow:visible;"/>
			</clipPath>
			<g class="st4">
				<rect x="28.3" y="35.2" class="st5" width="187.9" height="288.1"/>
				<path class="st6" d="M20.1,167.1l13.7-9.3c3.8-2.7,8.7-3.4,13.1-1.8l20.9,7.5l19.9-11.1c4.4-2.5,9.7-2.9,14.4-1l34.9,14
					l27.3-10.4c5.2-2,11-1.7,16,0.7l27.8,13.4v49.2H20.1V167.1z"/>
				<path class="st7" d="M20.1,180.1l36.4-19.4c6.1-3.4,13.5-3.4,19.7-0.1l27.3,14.1l24.1-17.1c7.8-5.5,17-6.2,25.2-2.1l22.4,11.5
					c2.6,1.4,5.7,1.3,8.3-0.1l24.7-13.4v64.8H20.1V180.1z"/>
				<path class="st8" d="M250.2,222.1h-72c-4.8,0-8.7-3.9-8.7-8.7v-1c0-4.8,3.9-8.7,8.7-8.7h72c4.8,0,8.7,3.9,8.7,8.7v1
					C258.9,218.2,255,222.1,250.2,222.1z"/>
				<circle class="st8" cx="223.2" cy="199.3" r="22.8"/>
				<circle class="st8" cx="198.2" cy="205.8" r="16.2"/>
				<rect x="28.3" y="35.2" class="st9" width="70.9" height="182.4"/>
				<rect x="28.3" y="216" class="st10" width="187.9" height="107.2"/>
				<path class="st11" d="M182.6,273.5H61.4c-3.2,0-5.7-2.6-5.8-5.8l0,0c0-3.2,2.6-5.8,5.7-5.8c0,0,0,0,0,0h121.1
					c3.2,0,5.7,2.6,5.8,5.8l0,0C188.3,270.9,185.7,273.5,182.6,273.5z"/>
				<path class="st12" d="M123.5,227.5l0.2,0.1c3.4,1.2,5.1,4.8,4,8.2l-2.5,7.1c-1.2,3.4-4.8,5.1-8.2,4l-0.2-0.1
					c-3.4-1.2-5.1-4.8-4-8.2l2.5-7.1C116.5,228.1,120.1,226.3,123.5,227.5z"/>
				<path class="st12" d="M94.6,229.7l5.6,1.5l4.8,1.3l15.2,4c2.8,0.7,4.5,3.5,3.9,6.3s-3.5,4.5-6.3,3.9c-0.1,0-0.1,0-0.2-0.1
					l-15.2-4l-4.8-1.3l-6.6-1.7l-0.2-0.1l-1.7,3.4c-0.3,0.6-0.8,1.1-1.3,1.4l-1.1,0.5c-1.5,0.8-3.4,0.2-4.2-1.3
					c-0.4-0.7-0.5-1.5-0.3-2.2l3.2-12.1c0.4-1.7,2.1-2.7,3.8-2.3c0,0,0,0,0,0l3.3,0.9C93.4,228.1,94.2,228.8,94.6,229.7z"/>
				<path class="st13" d="M112.8,244.6l2.4-9.1c0.1-0.5,0.7-0.8,1.2-0.7l0,0c0.5,0.1,0.8,0.7,0.7,1.2l-2.4,9.1
					c-0.1,0.5-0.7,0.8-1.2,0.7l0,0C112.9,245.6,112.6,245.1,112.8,244.6z"/>
				<path class="st13" d="M101,241.7L101,241.7c0.2,0.6,0.9,0.8,1.5,0.6c0,0,0,0,0,0l12.8-5.3c0.6-0.2,0.8-0.9,0.6-1.4c0,0,0,0,0,0
					l0,0c-0.2-0.6-0.9-0.8-1.5-0.6c0,0,0,0,0,0l-12.9,5.3C101.1,240.5,100.8,241.1,101,241.7z"/>
				<path class="st13" d="M103.4,232.2L103.4,232.2c0.5-0.4,1.2-0.3,1.6,0.2l8.6,10.9c0.4,0.5,0.3,1.2-0.2,1.6l0,0
					c-0.5,0.4-1.2,0.3-1.6-0.2l-8.6-10.9C102.8,233.3,102.9,232.6,103.4,232.2z"/>
				<path class="st13" d="M90,238.8L90,238.8c0.2,0.6,0.9,0.8,1.5,0.6c0,0,0,0,0,0l12.9-5.3c0.6-0.2,0.8-0.9,0.6-1.5l0,0
					c-0.2-0.6-0.9-0.8-1.5-0.6l-12.9,5.3C90,237.6,89.8,238.2,90,238.8z"/>
				<path class="st13" d="M92.5,229.4L92.5,229.4c0.5-0.4,1.2-0.3,1.6,0.2l8.6,10.9c0.4,0.5,0.3,1.2-0.2,1.6l0,0
					c-0.5,0.4-1.2,0.3-1.6-0.2L92.3,231C91.9,230.5,91.9,229.8,92.5,229.4C92.4,229.4,92.5,229.4,92.5,229.4z"/>
				<path class="st13" d="M83.2,241.7L83.2,241.7c0.1-0.5,0.6-0.8,1.1-0.7l4.7,1.2c0.5,0.1,0.8,0.6,0.7,1.1l0,0
					c-0.1,0.5-0.6,0.8-1.1,0.7l-4.7-1.2C83.4,242.7,83.1,242.2,83.2,241.7z"/>
				<path class="st13" d="M84.1,238.1L84.1,238.1c0.1-0.5,0.6-0.8,1.1-0.7l5.2,1.3c0.5,0.1,0.8,0.6,0.7,1.1l0,0
					c-0.1,0.5-0.6,0.8-1.1,0.7l-5.2-1.3C84.3,239.1,84,238.6,84.1,238.1z"/>
				<path class="st13" d="M91.6,229.8l-2.3,8.7c-0.1,0.5,0.2,1.1,0.7,1.2c0,0,0,0,0,0l0,0c0.5,0.1,1.1-0.2,1.2-0.7c0,0,0,0,0,0
					l2.3-8.7c0.1-0.5-0.2-1.1-0.7-1.2c0,0,0,0,0,0l0,0C92.3,228.9,91.8,229.3,91.6,229.8C91.6,229.8,91.6,229.8,91.6,229.8z"/>
				<path class="st13" d="M85.7,226.6l-4.5,17.3c-0.1,0.5,0.2,1,0.7,1.1c0,0,0,0,0,0l0,0c0.5,0.1,1-0.2,1.1-0.7c0,0,0,0,0,0
					l4.5-17.3c0.1-0.5-0.2-1-0.7-1.1l0,0C86.4,225.8,85.9,226.1,85.7,226.6C85.7,226.6,85.7,226.6,85.7,226.6z"/>
				<path class="st13" d="M85.7,226.8L85.7,226.8c0.2-0.6,0.7-0.9,1.3-0.8l7,1.8c0.6,0.1,0.9,0.7,0.8,1.3l0,0
					c-0.1,0.6-0.7,0.9-1.3,0.8l-7-1.8C85.9,228,85.5,227.4,85.7,226.8z"/>
				<path class="st12" d="M139.5,180.6l0.5,0.1c8.2,1.5,13.7,9.3,12.2,17.5l-4.9,27.7c-1.5,8.2-9.3,13.7-17.5,12.2l-0.5-0.1
					c-8.2-1.5-13.7-9.3-12.2-17.5l4.9-27.7C123.4,184.7,131.2,179.2,139.5,180.6z"/>
				<path class="st14" d="M139.5,180l0.6,0.1c10,1.8,16.7,11.3,14.9,21.3l-7.1,40.1l0,0l-36.7-6.5l0,0l7.1-40.1
					C120,184.9,129.5,178.2,139.5,180z"/>
				<path class="st12" d="M140.7,200.9l-6.8,0.6c-1.7,0.2-3.2-1.1-3.4-2.8l0,0c-0.1-1.7,1.1-3.2,2.8-3.4l6.8-0.6
					c1.7-0.1,3.2,1.1,3.4,2.8l0,0C143.7,199.3,142.4,200.8,140.7,200.9z"/>
				
					<rect x="137.7" y="152.8" transform="matrix(0.1752 -0.9845 0.9845 0.1752 -43.8184 275.7354)" class="st12" width="9.9" height="22.4"/>
				<path class="st12" d="M157.7,155l-3.4,18.9c-1.3,7.1-8,11.8-15.1,10.5l-0.4-0.1c-7.1-1.3-11.8-8-10.5-15.1l3.4-18.9"/>
				<line class="st15" x1="146.8" y1="139.9" x2="147.1" y2="139.9"/>
				<path class="st16" d="M137.9,161.8l0.4-2.3c0.1-0.7,0.8-1.2,1.5-1l0,0c0.7,0.1,1.2,0.8,1,1.5l-0.4,2.3c-0.1,0.7-0.8,1.2-1.5,1
					l0,0C138.2,163.2,137.7,162.5,137.9,161.8C137.9,161.8,137.9,161.8,137.9,161.8z"/>
				<path class="st16" d="M148.5,163.8l0.4-2.3c0.1-0.7,0.8-1.2,1.5-1l0,0c0.7,0.1,1.2,0.8,1,1.5l-0.4,2.3c-0.1,0.7-0.8,1.2-1.5,1
					l0,0C148.9,165.1,148.4,164.5,148.5,163.8z"/>
				<path class="st17" d="M138,189.8L138,189.8c0.1,0,0.1,0.1,0.1,0.2l0,0c0,0.1-0.1,0.1-0.2,0.1l0,0c-0.1,0-0.1-0.1-0.1-0.2l0,0
					C137.9,189.9,137.9,189.8,138,189.8L138,189.8z"/>
				<path class="st17" d="M142.8,156.6l-4.2,0.8c-0.5,0.1-1-0.2-1.1-0.7c0,0,0,0,0,0l0,0c-0.1-0.5,0.2-1,0.8-1.1l4.2-0.8
					c0.5-0.1,1,0.3,1.1,0.8l0,0C143.7,156,143.4,156.5,142.8,156.6C142.8,156.5,142.8,156.5,142.8,156.6z"/>
				<path class="st17" d="M148.1,156.3L148.1,156.3c0.3-0.5,0.9-0.6,1.3-0.4l3.7,2.2c0.4,0.3,0.6,0.8,0.3,1.3l0,0
					c-0.3,0.4-0.8,0.6-1.3,0.3l-3.7-2.2C148,157.3,147.9,156.7,148.1,156.3z"/>
				<polygon class="st17" points="154.7,175.4 150.9,178.7 155.2,154.6 158.3,155.2 				"/>
				<path class="st17" d="M158.9,151.4l-2.5-4.3l-0.2,0.1c-2.5,1.2-3.5,4.2-2.3,6.7c1.2,2.5,4.2,3.5,6.7,2.3c0.4-0.2,0.7-0.4,1-0.7
					L158.9,151.4z"/>
				<path class="st17" d="M128.9,162.6l-1.3,7.4c-1.3,7.5,3.7,14.7,11.2,16.1l0,0c7.5,1.3,14.6-3.7,16-11.2l1.3-7.4L128.9,162.6z"/>
				<path class="st18" d="M145.2,161.9L145.2,161.9c1.2,0.2,1.9,1.3,1.7,2.4l-0.5,2.6c-0.2,1.1-1.2,1.8-2.3,1.6l-0.1,0
					c-1.1-0.2-1.8-1.2-1.6-2.3l0.5-2.6C143,162.4,144.1,161.7,145.2,161.9z"/>
				<path class="st12" d="M128.6,228.5l0-0.2c0.6-3.5,3.9-5.9,7.4-5.3l7.4,1.2c3.5,0.6,5.9,3.9,5.3,7.4l0,0.2
					c-0.6,3.5-3.9,5.9-7.4,5.3l-7.4-1.2C130.4,235.3,128,232,128.6,228.5z"/>
				<path class="st12" d="M158.5,259.5l-3.8-5.4l-3.3-4.6l-10.3-14.7c-1.6-2.9-0.5-6.6,2.5-8.1c2.4-1.3,5.4-0.8,7.3,1.3l10.3,14.7
					l3.3,4.7l4.4,6.3l0.1,0.2l4.1-1.7c0.7-0.3,1.4-0.4,2.2-0.2l1.3,0.3c1.9,0.4,3.1,2.3,2.7,4.3c-0.2,0.9-0.7,1.6-1.4,2.1l-11.6,8.1
					c-1.6,1.1-3.8,0.8-5-0.8c0,0,0,0,0,0l-2.1-3.2C158.4,261.7,158.2,260.6,158.5,259.5z"/>
				<path class="st13" d="M143.6,237.5l8.8-6.1c0.5-0.4,1.2-0.2,1.5,0.3l0,0c0.4,0.5,0.2,1.2-0.3,1.5l-8.8,6.1
					c-0.5,0.4-1.2,0.2-1.5-0.3l0,0C143,238.6,143.1,237.9,143.6,237.5z"/>
				<path class="st13" d="M161.8,244.4L161.8,244.4c-0.2,0.7-0.9,1.1-1.6,0.9l-15.1-4.8c-0.7-0.2-1-0.9-0.8-1.6l0,0
					c0.2-0.7,0.9-1,1.6-0.8l15.1,4.8C161.6,243,162,243.7,161.8,244.4z"/>
				<path class="st13" d="M152.7,250.8L152.7,250.8c-0.7,0-1.2-0.6-1.2-1.3l0.6-15.8c0-0.7,0.6-1.3,1.3-1.2c0,0,0,0,0,0l0,0
					c0.7,0,1.3,0.6,1.2,1.3c0,0,0,0,0,0l-0.6,15.8C154,250.3,153.4,250.8,152.7,250.8C152.7,250.8,152.7,250.8,152.7,250.8z"/>
				<path class="st13" d="M169.2,255L169.2,255c0.2-0.7-0.1-1.4-0.8-1.6c0,0,0,0,0,0l-15.1-4.9c-0.7-0.2-1.4,0.2-1.6,0.8l0,0
					c-0.2,0.7,0.2,1.4,0.8,1.6l15.1,4.9C168.2,256,168.9,255.7,169.2,255z"/>
				<path class="st13" d="M160.8,243L160.8,243c0.7,0,1.3,0.6,1.3,1.3l-0.6,15.8c0,0.7-0.6,1.3-1.3,1.2l0,0c-0.7,0-1.3-0.6-1.2-1.3
					l0.6-15.8C159.5,243.5,160.1,242.9,160.8,243z"/>
				<path class="st13" d="M172.8,251.3L172.8,251.3c0.5-0.3,1.1-0.2,1.4,0.2l3.1,4.5c0.3,0.5,0.2,1.1-0.2,1.4l0,0
					c-0.5,0.3-1.1,0.2-1.4-0.2l-3.1-4.5C172.3,252.3,172.4,251.7,172.8,251.3L172.8,251.3z"/>
				<path class="st13" d="M173.7,260L173.7,260c0.5-0.3,0.6-0.9,0.3-1.4c0,0,0-0.1-0.1-0.1l-3.5-5c-0.3-0.5-0.9-0.6-1.4-0.3
					c0,0,0,0-0.1,0l0,0c-0.5,0.3-0.6,0.9-0.3,1.4c0,0,0,0,0,0.1l3.5,5C172.6,260.2,173.2,260.3,173.7,260z"/>
				<path class="st13" d="M169.4,255.8l-8.3,5.8c-0.5,0.4-1.2,0.2-1.6-0.3l0,0c-0.4-0.5-0.2-1.2,0.3-1.6l8.3-5.8
					c0.5-0.4,1.2-0.2,1.6,0.3l0,0C170.1,254.7,170,255.4,169.4,255.8z"/>
				<path class="st13" d="M163.9,268.7l16.6-11.6c0.5-0.3,0.6-1,0.3-1.5c0,0,0,0,0,0l0,0c-0.3-0.5-1-0.6-1.5-0.3c0,0,0,0,0,0
					L162.6,267c-0.5,0.3-0.6,1-0.3,1.5c0,0,0,0,0,0l0,0C162.7,269,163.4,269.1,163.9,268.7C163.9,268.7,163.9,268.7,163.9,268.7z"/>
				<path class="st13" d="M164.1,268.6L164.1,268.6c-0.5,0.4-1.3,0.2-1.7-0.3l-4.7-6.7c-0.4-0.5-0.2-1.3,0.3-1.7l0,0
					c0.6-0.4,1.3-0.2,1.7,0.3l4.7,6.7C164.7,267.4,164.6,268.2,164.1,268.6z"/>
				<circle class="st12" cx="123.1" cy="186.4" r="11.4"/>
				
					<rect x="126.9" y="220.2" transform="matrix(0.8906 -0.4548 0.4548 0.8906 -87.4245 86.962)" class="st14" width="20.4" height="10.1"/>
				<path class="st19" d="M151.2,219.1l-35.6-6.3c-1.4-0.3-2.3-1.6-2.1-3v-0.1c0.3-1.4,1.6-2.3,3-2.1l35.6,6.3
					c1.4,0.3,2.3,1.6,2.1,3v0.1C154,218.4,152.6,219.4,151.2,219.1z"/>
				<path class="st12" d="M146.4,173.1l-6.4-1.3c-0.9-0.2-1.4-1-1.2-1.9l0,0c0.2-0.9,1-1.4,1.9-1.2l6.4,1.3c0.9,0.2,1.4,1,1.2,1.9
					l0,0C148.1,172.8,147.2,173.3,146.4,173.1C146.4,173.1,146.4,173.1,146.4,173.1z"/>
				<path class="st17" d="M143.2,171.5l0.5,0.1c0.7,0.1,1.1,0.8,1,1.4c0,0,0,0,0,0l0,0c-0.1,0.7-0.8,1.1-1.5,1c0,0,0,0,0,0l-0.5-0.1
					c-0.7-0.1-1.1-0.8-1-1.4c0,0,0,0,0,0l0,0C141.8,171.8,142.5,171.4,143.2,171.5C143.1,171.5,143.1,171.5,143.2,171.5z"/>
				<path class="st20" d="M144.8,171.4c0.2-0.7-0.3-1.5-1.1-1.6c-0.7-0.2-1.5,0.3-1.6,1.1l0,0L144.8,171.4z"/>
				<path class="st21" d="M161,156.4c0-0.4,0.1-0.9,0.1-1.4c0-2.1-0.8-4-2.4-5.4c-5.9-5.4-16.9-9.6-23.8-3.6c-1.2,1.1-2.2,2.3-3,3.7
					c-1.6,2.9-1.8,6.2-2.3,9.4c-0.5,3.4-1.6,6.7-2.3,10c-0.3,1.6-0.9,3.3-2.4,3.9c-0.9,0.2-1.8,0.2-2.6,0c-4.1,0-10.2,6-12.2,9.6
					c-3.2,6-2.8,10-6.3,16.1c-1.8,3.1-3.3,6.2-4.7,9.4c-3.8,9.1-10.9,13.4-16.8,21.4c-2.9,3.9-6,13.8-9.5,17.2
					c-1.3,1.2-14.8,11.4-16.2,11c18.5,5.4,53.9,13,71.6,5c1.4-0.6,10.8-3.6,11-5.4c1.8-17,1.2-45.4-1.5-62.3
					c-0.9-5.5,2.6-6.6,1.9-12.4c-0.9-7.5-5.4-19.9-1-26.5c0.7-1.2,1.7-2.1,2.9-2.8c1.8-0.8,3.9-0.4,5.7,0c3.1,0.7,6.4,1.5,8.3,4.1
					c2.4,3.4,1.1,8-0.2,11.6c-3.6,9.7-8.4,19.1-10.6,29.3c-2.8,12.8-1.5,26.1-0.2,39.2c0.3,3-1.3,22.3,1.7,24.5
					c4.6,1.6,19.4-12.9,24.2-14.2c-1.9-4-11.5-12-13.7-15.8c-2.1-3.7-2.9-8-2.4-12.2c0.9-8.1,5.2-16.2,3.1-24.4
					c-1.3-5-3.5-10.1-3.1-15.2c0.1-1.6,1.1-3.4,1.6-4.9c0.7-2.2,1.4-4.3,2.1-6.5c0-2.1,1.2-4,1.9-6
					C160.4,160.7,160.8,158.6,161,156.4z"/>
				<circle class="st12" cx="153.8" cy="91.1" r="18.8"/>
				<circle class="st22" cx="74" cy="137" r="12"/>
				<circle class="st22" cx="74" cy="137" r="12"/>
				<circle class="st23" cx="74" cy="139.3" r="12"/>
				<circle class="st22" cx="74" cy="137" r="12"/>
				<circle class="st13" cx="74" cy="137" r="10.4"/>
				<path class="st12" d="M79.6,144.1l-5.5-4l-5.5,4l2.1-6.5l-5.5-4h6.9l2.1-6.5l2.1,6.5H83l-5.6,4L79.6,144.1z M66.3,134l4.8,3.5
					l-1.8,5.5l4.7-3.4l4.8,3.4l-1.8-5.6l4.7-3.4h-5.9l-1.8-5.6l-1.8,5.6H66.3z"/>
				<path class="st12" d="M74,140.1l-3.4-2.5l1.3-4h4.2l1.3,4L74,140.1z M71.1,137.4l2.9,2.1l3-2.1l-1.2-3.4h-3.6L71.1,137.4z"/>
				<circle class="st22" cx="74" cy="104.7" r="12"/>
				<circle class="st22" cx="74" cy="104.7" r="12"/>
				<circle class="st23" cx="74" cy="107" r="12"/>
				<circle class="st22" cx="74" cy="104.7" r="12"/>
				<circle class="st13" cx="74" cy="104.7" r="10.4"/>
				<path class="st12" d="M79.6,111.8l-5.5-4l-5.5,4l2.1-6.5l-5.5-4h6.9l2.1-6.5l2.1,6.5H83l-5.6,4L79.6,111.8z M66.3,101.7l4.8,3.4
					l-1.8,5.6l4.7-3.5l4.8,3.5l-1.8-5.6l4.8-3.4h-5.9L74,96.1l-1.8,5.6L66.3,101.7z"/>
				<path class="st12" d="M74,107.8l-3.4-2.5l1.3-4h4.2l1.3,4L74,107.8z M71.1,105.1l2.9,2.1l3-2.1l-1.1-3.4h-3.7L71.1,105.1z"/>
				<circle class="st22" cx="58.4" cy="73.8" r="12"/>
				<circle class="st22" cx="58.4" cy="73.8" r="12"/>
				<circle class="st23" cx="58.4" cy="76.1" r="12"/>
				<circle class="st22" cx="58.4" cy="73.8" r="12"/>
				<circle class="st13" cx="58.4" cy="73.8" r="10.4"/>
				<path class="st12" d="M63.9,80.9l-5.5-4l-5.5,4l2.2-6.5l-5.5-4h6.9l2.1-6.5l2.1,6.5h6.8l-5.5,4L63.9,80.9z M50.7,70.8l4.8,3.5
					l-1.8,5.6l4.8-3.4l4.8,3.4l-1.8-5.6l4.8-3.5h-5.9l-1.8-5.6l-1.8,5.6H50.7z"/>
				<path class="st12" d="M58.4,76.9L55,74.4l1.3-4h4.2l1.3,4L58.4,76.9z M55.4,74.2l2.9,2.1l2.9-2.1l-1.1-3.5h-3.6L55.4,74.2z"/>
				<circle class="st22" cx="46.4" cy="137" r="12"/>
				<circle class="st22" cx="46.4" cy="137" r="12"/>
				<circle class="st23" cx="46.4" cy="139.3" r="12"/>
				<circle class="st22" cx="46.4" cy="137" r="12"/>
				<circle class="st13" cx="46.4" cy="137" r="10.4"/>
				<path class="st12" d="M51.9,144.1l-5.5-4l-5.5,4l2.2-6.5l-5.5-4h6.8l2.1-6.5l2.1,6.5h6.8l-5.5,4L51.9,144.1z M38.7,134l4.8,3.5
					l-1.8,5.5l4.8-3.5l4.8,3.5l-1.8-5.6l4.8-3.4h-5.9l-1.8-5.6l-1.8,5.6H38.7z"/>
				<path class="st12" d="M46.4,140.1l-3.4-2.5l1.3-4h4.2l1.3,4L46.4,140.1z M43.5,137.4l2.9,2.1l2.9-2.1l-1.1-3.4h-3.6L43.5,137.4z
					"/>
				<circle class="st22" cx="46.4" cy="104.7" r="12"/>
				<circle class="st22" cx="46.4" cy="104.7" r="12"/>
				<circle class="st23" cx="46.4" cy="107" r="12"/>
				<circle class="st22" cx="46.4" cy="104.7" r="12"/>
				<circle class="st13" cx="46.4" cy="104.7" r="10.4"/>
				<path class="st12" d="M51.9,111.8l-5.5-4l-5.5,4l2.2-6.5l-5.5-4h6.8l2.1-6.5l2.1,6.5h6.8l-5.5,4L51.9,111.8z M38.7,101.7
					l4.8,3.4l-1.8,5.6l4.8-3.5l4.8,3.5l-1.8-5.6l4.8-3.4h-5.9l-1.8-5.6l-1.8,5.6H38.7z"/>
				<path class="st12" d="M46.4,107.8l-3.4-2.5l1.3-4h4.2l1.3,4L46.4,107.8z M43.5,105.1l2.9,2.1l2.9-2.1l-1.1-3.4h-3.6L43.5,105.1z
					"/>
				<path class="st12" d="M177.2,99.8c0,0.1-0.1,0.2-0.2,0.2c0,0,0,0,0,0c-0.1,0-0.2-0.1-0.2-0.2s0.1-0.2,0.2-0.2c0,0,0,0,0,0
					C177.1,99.6,177.2,99.7,177.2,99.8C177.2,99.8,177.2,99.8,177.2,99.8z"/>
				<path class="st12" d="M184.7,126.2c0,0.1-0.1,0.2-0.2,0.2l0,0c-0.1,0-0.2-0.1-0.2-0.2c0-0.1,0.1-0.2,0.2-0.2l0,0
					C184.6,126,184.7,126,184.7,126.2C184.7,126.1,184.7,126.2,184.7,126.2z"/>
				<path class="st12" d="M119.4,69.4c0,0.1,0,0.2-0.2,0.2s-0.2,0-0.2-0.2c0,0,0-0.1,0-0.1c0-0.1,0.1-0.2,0.2-0.2
					C119.4,69.3,119.4,69.3,119.4,69.4z"/>
				<path class="st12" d="M158.2,126.5c0,0.1-0.1,0.2-0.2,0.2c0,0,0,0,0,0c-0.1,0-0.2-0.1-0.2-0.2c0,0,0,0,0,0
					c0-0.1,0.1-0.2,0.2-0.2C158.2,126.3,158.2,126.4,158.2,126.5C158.2,126.5,158.2,126.5,158.2,126.5z"/>
				<path class="st12" d="M142.5,120.3c0,0.1-0.1,0.2-0.2,0.2s-0.2-0.1-0.2-0.2l0,0c0-0.1,0.1-0.2,0.2-0.2S142.5,120.2,142.5,120.3z
					"/>
				<path class="st12" d="M180.4,149c0,0.1-0.1,0.2-0.2,0.2s-0.2-0.1-0.2-0.2l0,0c0-0.1,0.1-0.2,0.2-0.2S180.4,148.9,180.4,149z"/>
				<path class="st12" d="M191.3,160.8c0,0.1-0.1,0.2-0.2,0.2l0,0c-0.1,0-0.2-0.1-0.2-0.2c0,0,0,0,0,0c0-0.1,0.1-0.2,0.2-0.2
					C191.2,160.6,191.3,160.7,191.3,160.8z"/>
				<path class="st12" d="M191.5,113.7c0,0.1-0.1,0.2-0.2,0.2l0,0c-0.1,0-0.2-0.1-0.2-0.2c0,0,0,0,0,0c0-0.1,0.1-0.2,0.2-0.2l0,0
					C191.4,113.5,191.5,113.6,191.5,113.7z"/>
				<path class="st12" d="M191.1,76.7c0,0.1-0.1,0.2-0.2,0.2c0,0,0,0,0,0c-0.1,0-0.2-0.1-0.2-0.2s0.1-0.2,0.2-0.2c0,0,0,0,0,0
					C191,76.5,191.1,76.6,191.1,76.7C191.1,76.7,191.1,76.7,191.1,76.7z"/>
				<path class="st12" d="M137.5,65.6c0,0.1-0.1,0.2-0.2,0.2c0,0,0,0,0,0c-0.1,0-0.2-0.1-0.2-0.2c0,0,0,0,0,0c0-0.1,0.1-0.2,0.2-0.2
					C137.4,65.4,137.5,65.5,137.5,65.6C137.5,65.6,137.5,65.6,137.5,65.6z"/>
				<path class="st12" d="M129.4,54.3c0,0.1-0.1,0.2-0.2,0.2l0,0c-0.1,0-0.2-0.1-0.2-0.2c0,0,0,0,0,0c0-0.1,0.1-0.2,0.2-0.2l0,0
					C129.3,54.2,129.4,54.2,129.4,54.3z"/>
				<path class="st12" d="M116.6,97.2c0,0.1-0.1,0.2-0.2,0.2c0,0,0,0,0,0c-0.1,0-0.2-0.1-0.2-0.2c0-0.1,0.1-0.2,0.2-0.2
					C116.5,97,116.6,97.1,116.6,97.2C116.6,97.2,116.6,97.2,116.6,97.2z"/>
				<path class="st12" d="M166.7,60c0,0.1-0.1,0.2-0.2,0.2l0,0c-0.1,0-0.2-0.1-0.2-0.2c0,0,0,0,0,0c0-0.1,0.1-0.2,0.2-0.2l0,0
					C166.6,59.8,166.7,59.9,166.7,60z"/>
				<path class="st12" d="M196.5,94.7c0-0.1,0-0.1,0-0.2v0.4C196.5,94.8,196.5,94.7,196.5,94.7z"/>
				<path class="st12" d="M119.2,126.3c0,0.1-0.1,0.2-0.2,0.2c0,0,0,0,0,0c-0.1,0-0.2-0.1-0.2-0.2c0-0.1,0.1-0.2,0.2-0.2
					C119.2,126.2,119.2,126.2,119.2,126.3C119.3,126.3,119.3,126.3,119.2,126.3z"/>
				<path class="st12" d="M111.9,145c0,0.1-0.1,0.2-0.2,0.2c-0.1,0-0.2-0.1-0.2-0.2c0-0.1,0.1-0.2,0.2-0.2
					C111.8,144.8,111.9,144.9,111.9,145C111.9,145,111.9,145,111.9,145z"/>
				<rect x="44.8" y="165.6" class="st9" width="27.5" height="50.7"/>
				<path class="st24" d="M72.3,216.3H44.8v-37c0-7.6,6.1-13.7,13.7-13.7l0,0c7.6,0,13.7,6.2,13.7,13.7c0,0,0,0,0,0V216.3z"/>
				<path class="st25" d="M69.2,216.5H47.9v-36.2c0-5.9,4.8-10.7,10.7-10.7h0l0,0c5.9,0,10.7,4.8,10.7,10.7l0,0V216.5z"/>
				<rect x="50.8" y="180" class="st26" width="2.2" height="9.7"/>
				<rect x="57.5" y="173.1" class="st26" width="2.2" height="15"/>
				<rect x="57.5" y="190.4" class="st26" width="2.2" height="9.7"/>
				<rect x="57.5" y="204.4" class="st26" width="2.2" height="7.6"/>
				<rect x="63.5" y="184.7" class="st26" width="2.3" height="28.8"/>
				<rect x="50.8" y="195.2" class="st26" width="2.2" height="18.4"/>
				<rect x="63.5" y="179.4" class="st26" width="2.3" height="2.6"/>
				<polygon class="st8" points="58.8,152.8 37,167.8 80.5,167.8 				"/>
				<polygon class="st27" points="58.8,154.6 42.1,166 75.5,166 				"/>
				<rect x="72.2" y="166.8" class="st28" width="6.5" height="49.2"/>
				<path class="st8" d="M79.2,217.2h-7.6c-0.9,0-1.6-0.7-1.6-1.6l0,0c0-0.9,0.7-1.6,1.6-1.6h7.6c0.9,0,1.6,0.7,1.6,1.6l0,0
					C80.8,216.5,80.1,217.2,79.2,217.2z"/>
				<path class="st8" d="M79.2,169.9h-7.6c-0.9,0-1.5-0.7-1.6-1.6l0,0c0-0.9,0.7-1.6,1.6-1.6h7.6c0.9,0,1.6,0.7,1.6,1.6l0,0
					C80.8,169.2,80.1,169.9,79.2,169.9z"/>
				<path class="st8" d="M73.8,170.6L73.8,170.6c0.2,0,0.3,0.2,0.3,0.3v42c0,0.2-0.2,0.3-0.3,0.3l0,0c-0.2,0-0.3-0.2-0.3-0.3v-42
					C73.5,170.8,73.6,170.6,73.8,170.6C73.8,170.6,73.8,170.6,73.8,170.6z"/>
				<path class="st8" d="M75.4,170.6L75.4,170.6c0.2,0,0.3,0.2,0.3,0.3v42c0,0.2-0.2,0.3-0.3,0.3l0,0c-0.2,0-0.3-0.2-0.3-0.3v-42
					C75.1,170.8,75.2,170.6,75.4,170.6C75.4,170.6,75.4,170.6,75.4,170.6z"/>
				<path class="st8" d="M77.1,170.6L77.1,170.6c0.2,0,0.3,0.2,0.3,0.3v42c0,0.2-0.2,0.3-0.3,0.3l0,0c-0.2,0-0.3-0.2-0.3-0.3v-42
					C76.7,170.8,76.9,170.6,77.1,170.6C77.1,170.6,77.1,170.6,77.1,170.6z"/>
				<rect x="38.6" y="166.8" class="st28" width="6.5" height="49.2"/>
				<path class="st8" d="M45.7,217.2h-7.6c-0.9,0-1.6-0.7-1.6-1.6l0,0c0-0.9,0.7-1.6,1.6-1.6h7.6c0.9,0,1.6,0.7,1.6,1.6l0,0
					C47.2,216.5,46.5,217.2,45.7,217.2L45.7,217.2z"/>
				<path class="st8" d="M45.7,169.9h-7.6c-0.9,0-1.6-0.7-1.6-1.6l0,0c0-0.9,0.7-1.6,1.6-1.6h7.6c0.9,0,1.6,0.7,1.6,1.6l0,0
					C47.2,169.2,46.5,169.9,45.7,169.9z"/>
				<path class="st8" d="M40.3,170.6L40.3,170.6c0.2,0,0.3,0.2,0.3,0.3v42c0,0.2-0.2,0.3-0.3,0.3l0,0c-0.2,0-0.3-0.2-0.3-0.3v-42
					C40,170.8,40.1,170.7,40.3,170.6z"/>
				<path class="st8" d="M41.9,170.6L41.9,170.6c0.2,0,0.3,0.2,0.3,0.3v42c0,0.2-0.2,0.3-0.3,0.3l0,0c-0.2,0-0.3-0.2-0.3-0.3v-42
					C41.5,170.8,41.7,170.6,41.9,170.6C41.9,170.6,41.9,170.6,41.9,170.6z"/>
				<path class="st8" d="M43.5,170.6L43.5,170.6c0.2,0,0.3,0.2,0.3,0.3v42c0,0.2-0.2,0.3-0.3,0.3l0,0c-0.2,0-0.3-0.2-0.3-0.3v-42
					C43.2,170.8,43.3,170.6,43.5,170.6C43.5,170.6,43.5,170.6,43.5,170.6z"/>
			</g>
		</g>
	</g>
</g>
</svg>
