<svg xmlns="http://www.w3.org/2000/svg" xmlns:xlink="http://www.w3.org/1999/xlink" viewBox="0 0 235.41 381.8"><defs><style>.cls-1{fill:none;}.cls-2{fill:#f2b055;}.cls-3{fill:#fff0cc;}.cls-4{fill:#231f20;}.cls-5{clip-path:url(#clip-path);}.cls-6{clip-path:url(#clip-path-2);}.cls-7{fill:#56cccc;}.cls-8{fill:#56cfd0;}.cls-9{fill:#56d2d3;}.cls-10{fill:#56d5d7;}.cls-11{fill:#56d8db;}.cls-12{fill:#56dbde;}.cls-13{fill:#56dee2;}.cls-14{clip-path:url(#clip-path-3);}.cls-15{fill:#d1d3d4;}.cls-16{fill:#dcdede;}.cls-17{fill:#e5e7e7;}.cls-18{fill:#edeeef;}.cls-19{fill:#f4f4f5;}.cls-20{fill:#f9f9f9;}.cls-21{fill:#fcfcfc;}.cls-22{fill:#fefefe;}.cls-23{fill:#fff;}.cls-24{fill:#e3e5e5;}.cls-25{fill:silver;}.cls-26{fill:#ffd250;}.cls-27{fill:#ffd150;}.cls-28{fill:#d1d2d3;}.cls-29{fill:#f1f1f1;}.cls-30{fill:#dc4f65;}.cls-31{fill:#f4b155;}.cls-32{fill:#4a355b;}.cls-33{fill:#f2af55;}.cls-34{fill:#383a51;}.cls-35{fill:#2d2d2d;}.cls-36{fill:#e3705e;}.cls-37{fill:#ed915c;}.cls-38{fill:#e5705f;}.cls-39{fill:#47372e;}</style><clipPath id="clip-path"><rect class="cls-1" x="28.29" y="44.11" width="178.84" height="242.27" rx="24.83"/></clipPath><clipPath id="clip-path-2"><rect class="cls-1" x="16.23" y="15.73" width="201.04" height="288.1"/></clipPath><clipPath id="clip-path-3"><polyline class="cls-1" points="15.9 208.52 216.94 208.52 216.94 303.83 15.9 303.83 15.9 208.52"/></clipPath></defs><g id="Layer_2" data-name="Layer 2"><g id="Layer_1-2" data-name="Layer 1"><path class="cls-2" d="M235.41,14.47V367.32a14.77,14.77,0,0,1-15,14.48H15c-8.28,0-15-6.5-15-14.48V14.47C0,6.49,6.74,0,15,0H220.4C228.68,0,235.41,6.49,235.41,14.47ZM222.79,358.93V22.87A10.84,10.84,0,0,0,212,12H23.45A10.84,10.84,0,0,0,12.62,22.87V358.93a10.84,10.84,0,0,0,10.83,10.83H212A10.84,10.84,0,0,0,222.79,358.93Z"/><rect class="cls-3" x="12.62" y="12.04" width="210.17" height="357.72" rx="10.83"/><path class="cls-4" d="M32.58,329.47a6.43,6.43,0,0,1-2.15-.85c-.17-.12-.26-.23-.26-.32a.36.36,0,0,1,.08-.23l.65-1c.08-.11.15-.17.22-.17a.54.54,0,0,1,.25.09,6.58,6.58,0,0,0,1.7.7,7.15,7.15,0,0,0,1.94.27,3.76,3.76,0,0,0,2-.44,1.59,1.59,0,0,0,.68-1.43,1.56,1.56,0,0,0-.26-.94,2.07,2.07,0,0,0-.74-.61,16,16,0,0,0-1.6-.69l-.45-.18a19.12,19.12,0,0,1-2.12-1,4.33,4.33,0,0,1-1.38-1.24,3.11,3.11,0,0,1-.55-1.87A3.19,3.19,0,0,1,32,316.78a6.07,6.07,0,0,1,3.59-1,9.61,9.61,0,0,1,2.36.26,5.12,5.12,0,0,1,1.72.78c.15.12.23.23.23.34a.28.28,0,0,1-.08.21l-.62,1c-.08.11-.15.17-.2.17a.68.68,0,0,1-.26-.11,5.67,5.67,0,0,0-3.13-.81,3.19,3.19,0,0,0-1.86.45,1.65,1.65,0,0,0-.63,1.44,1.59,1.59,0,0,0,.26,1,2.17,2.17,0,0,0,.78.62q.51.25,1.65.69l.49.2a16.45,16.45,0,0,1,2.25,1.05,3.57,3.57,0,0,1,1.24,1.2,3.41,3.41,0,0,1,.45,1.84,3.18,3.18,0,0,1-1.27,2.66,5.83,5.83,0,0,1-3.61,1A12.08,12.08,0,0,1,32.58,329.47Z"/><path class="cls-4" d="M42.3,329.31a.77.77,0,0,1-.16-.54V316.83a.79.79,0,0,1,.16-.55.74.74,0,0,1,.56-.18h1a.63.63,0,0,1,.74.73v11.94a.77.77,0,0,1-.16.54.84.84,0,0,1-.58.17h-1A.78.78,0,0,1,42.3,329.31Z"/><path class="cls-4" d="M46.67,329.4a.23.23,0,0,1-.09-.19.53.53,0,0,1,.1-.28l4.74-6.29-4.48-6a.53.53,0,0,1-.12-.3.22.22,0,0,1,.08-.19.37.37,0,0,1,.23-.07H49a.82.82,0,0,1,.32,0,.68.68,0,0,1,.19.19l3.35,4.43,3.34-4.43a.7.7,0,0,1,.2-.19.76.76,0,0,1,.31,0h1.85a.36.36,0,0,1,.22.07.26.26,0,0,1,.08.19.53.53,0,0,1-.12.3l-4.49,6L59,328.93a.6.6,0,0,1,.09.28.26.26,0,0,1-.08.19.31.31,0,0,1-.23.08H56.91a.8.8,0,0,1-.3,0,.42.42,0,0,1-.19-.17l-3.6-4.76-3.58,4.76a.43.43,0,0,1-.2.17.75.75,0,0,1-.29,0H46.9A.3.3,0,0,1,46.67,329.4Z"/><path class="cls-4" d="M70,328a8.51,8.51,0,0,1,0-10.31,6.55,6.55,0,0,1,5-1.83,6.58,6.58,0,0,1,5,1.83A8.47,8.47,0,0,1,80,328a6.58,6.58,0,0,1-5,1.83A6.55,6.55,0,0,1,70,328Zm8.14-1.33a5.89,5.89,0,0,0,1.08-3.83A5.83,5.83,0,0,0,78.16,319a4.48,4.48,0,0,0-6.31,0,5.77,5.77,0,0,0-1.09,3.81,5.83,5.83,0,0,0,1.09,3.83,4.45,4.45,0,0,0,6.31,0Z"/><path class="cls-4" d="M83.83,329.31a.78.78,0,0,1-.17-.54V316.83a.79.79,0,0,1,.17-.55.74.74,0,0,1,.56-.18h8.19a.58.58,0,0,1,.69.69v.53a.84.84,0,0,1-.15.55.71.71,0,0,1-.54.16h-6.4v3.8h4.65a.75.75,0,0,1,.55.16.75.75,0,0,1,.15.53v.53a.79.79,0,0,1-.15.54.75.75,0,0,1-.55.17H86.18v5a.77.77,0,0,1-.16.54.84.84,0,0,1-.58.17h-1A.78.78,0,0,1,83.83,329.31Z"/><path class="cls-4" d="M102.64,329.31a.78.78,0,0,1-.17-.54V316.83a.79.79,0,0,1,.17-.55.74.74,0,0,1,.56-.18h5a4.93,4.93,0,0,1,3.59,1.16,5.18,5.18,0,0,1,0,6.56,5,5,0,0,1-3.59,1.14H105v3.81a.78.78,0,0,1-.17.54.8.8,0,0,1-.58.17h-1A.78.78,0,0,1,102.64,329.31Zm5.48-6.26a2.37,2.37,0,0,0,1.79-.62,2.65,2.65,0,0,0,.59-1.88,2.7,2.7,0,0,0-.59-1.9,2.37,2.37,0,0,0-1.79-.62H105v5Z"/><path class="cls-4" d="M114.7,329.31a.78.78,0,0,1-.17-.54V316.83a.79.79,0,0,1,.17-.55.74.74,0,0,1,.56-.18h8.18a.72.72,0,0,1,.54.16.76.76,0,0,1,.15.53v.53a.84.84,0,0,1-.15.55.68.68,0,0,1-.54.16h-6.39v3.82h4.64a.74.74,0,0,1,.55.16.7.7,0,0,1,.16.53V323a.6.6,0,0,1-.71.71h-4.64v3.83h6.37a.72.72,0,0,1,.55.17.74.74,0,0,1,.16.54v.53a.7.7,0,0,1-.16.52.77.77,0,0,1-.55.15h-8.16A.78.78,0,0,1,114.7,329.31Z"/><path class="cls-4" d="M126,329.31a.78.78,0,0,1-.17-.54V316.83a.79.79,0,0,1,.17-.55.77.77,0,0,1,.58-.18h.91a1,1,0,0,1,.43.08,1,1,0,0,1,.31.32l6.5,9v-8.68a.79.79,0,0,1,.16-.55.74.74,0,0,1,.56-.18h1.05a.63.63,0,0,1,.74.73v11.94a.77.77,0,0,1-.16.54.84.84,0,0,1-.58.17h-.93a.89.89,0,0,1-.41-.07.94.94,0,0,1-.32-.3l-6.49-9v8.65a.73.73,0,0,1-.17.54.8.8,0,0,1-.58.17h-1A.78.78,0,0,1,126,329.31Z"/><path class="cls-4" d="M143.12,329.31a.73.73,0,0,1-.18-.54V318H139.5a.73.73,0,0,1-.54-.15.79.79,0,0,1-.15-.54v-.53a.79.79,0,0,1,.15-.54.68.68,0,0,1,.54-.17h9.4a.6.6,0,0,1,.71.71v.53a.74.74,0,0,1-.16.54.79.79,0,0,1-.55.15h-3.44v10.74a.78.78,0,0,1-.17.54.8.8,0,0,1-.58.17h-1A.79.79,0,0,1,143.12,329.31Z"/><path class="cls-4" d="M148.29,329.19a.65.65,0,0,1,.06-.26l5.19-12.31a1.07,1.07,0,0,1,.26-.41.62.62,0,0,1,.39-.11h1.08a.65.65,0,0,1,.41.11,1.22,1.22,0,0,1,.24.41l5.2,12.31a.65.65,0,0,1,.06.26c0,.19-.12.29-.34.29h-1.71a.65.65,0,0,1-.36-.07.54.54,0,0,1-.21-.28l-1.12-2.76H152l-1.1,2.76a.67.67,0,0,1-.21.28.65.65,0,0,1-.36.07h-1.72C148.4,329.48,148.29,329.38,148.29,329.19Zm8.52-4.65-2.09-5.15-2.08,5.15Z"/><path class="cls-4" d="M163.46,328a7,7,0,0,1,5.11-12.16,10.18,10.18,0,0,1,2.48.28,6.09,6.09,0,0,1,1.93.78.33.33,0,0,1,.18.26.56.56,0,0,1-.1.27l-.55,1c-.08.12-.15.17-.22.17a.81.81,0,0,1-.27-.09,6.07,6.07,0,0,0-3.17-.75,4.67,4.67,0,0,0-3.48,1.28,5.25,5.25,0,0,0-1.26,3.83,5.17,5.17,0,0,0,1.3,3.87,4.76,4.76,0,0,0,3.5,1.27,6.63,6.63,0,0,0,3.36-.77,1,1,0,0,1,.26-.1c.08,0,.15.06.23.18l.61,1a.49.49,0,0,1,.06.2c0,.08-.07.16-.21.26a8.1,8.1,0,0,1-4.59,1.06A7.06,7.06,0,0,1,163.46,328Z"/><path class="cls-4" d="M175.51,329.31a.78.78,0,0,1-.17-.54V316.83a.79.79,0,0,1,.17-.55.74.74,0,0,1,.56-.18h1a.78.78,0,0,1,.57.18.74.74,0,0,1,.18.55v10.74h6a.75.75,0,0,1,.55.17.79.79,0,0,1,.16.54v.53a.75.75,0,0,1-.16.52.8.8,0,0,1-.55.15h-7.81A.78.78,0,0,1,175.51,329.31Z"/><path class="cls-4" d="M186,329.31a.77.77,0,0,1-.16-.54V316.83a.79.79,0,0,1,.16-.55.74.74,0,0,1,.56-.18h8.19a.58.58,0,0,1,.69.69v.53a.84.84,0,0,1-.15.55.71.71,0,0,1-.54.16h-6.4v3.82H193a.75.75,0,0,1,.55.16.75.75,0,0,1,.15.53V323a.79.79,0,0,1-.15.54.75.75,0,0,1-.55.17h-4.65v3.83h6.38a.75.75,0,0,1,.55.17.79.79,0,0,1,.16.54v.53a.75.75,0,0,1-.16.52.8.8,0,0,1-.55.15h-8.17A.78.78,0,0,1,186,329.31Z"/><path class="cls-4" d="M199.19,329.47a6.34,6.34,0,0,1-2.15-.85c-.17-.12-.26-.23-.26-.32a.36.36,0,0,1,.08-.23l.65-1c.08-.11.15-.17.22-.17a.54.54,0,0,1,.25.09,6.58,6.58,0,0,0,1.7.7,7.15,7.15,0,0,0,1.94.27,3.78,3.78,0,0,0,2-.44,1.59,1.59,0,0,0,.68-1.43,1.56,1.56,0,0,0-.26-.94,2.07,2.07,0,0,0-.74-.61,16,16,0,0,0-1.6-.69l-.45-.18a19.12,19.12,0,0,1-2.12-1,4.33,4.33,0,0,1-1.38-1.24,3.11,3.11,0,0,1-.55-1.87,3.19,3.19,0,0,1,1.36-2.77,6.07,6.07,0,0,1,3.59-1,9.61,9.61,0,0,1,2.36.26,5.12,5.12,0,0,1,1.72.78c.15.12.23.23.23.34a.28.28,0,0,1-.08.21l-.63,1c-.07.11-.14.17-.19.17a.68.68,0,0,1-.26-.11,5.67,5.67,0,0,0-3.13-.81,3.23,3.23,0,0,0-1.87.45,1.64,1.64,0,0,0-.62,1.44,1.59,1.59,0,0,0,.26,1,2.17,2.17,0,0,0,.78.62q.51.25,1.65.69l.49.2a16.45,16.45,0,0,1,2.25,1.05,3.57,3.57,0,0,1,1.24,1.2,3.41,3.41,0,0,1,.45,1.84,3.18,3.18,0,0,1-1.27,2.66,5.83,5.83,0,0,1-3.61,1A12.08,12.08,0,0,1,199.19,329.47Z"/><g class="cls-5"><g class="cls-6"><rect class="cls-7" x="16.23" y="179.81" width="201.04" height="124.02"/><rect class="cls-7" x="16.23" y="171.4" width="201.04" height="8.41"/><rect class="cls-8" x="16.23" y="162.99" width="201.04" height="8.41"/><rect class="cls-9" x="16.23" y="154.58" width="201.04" height="8.41"/><rect class="cls-10" x="16.23" y="146.16" width="201.04" height="8.41"/><rect class="cls-11" x="16.23" y="137.75" width="201.04" height="8.41"/><rect class="cls-12" x="16.23" y="129.34" width="201.04" height="8.41"/><rect class="cls-13" x="16.23" y="120.93" width="201.04" height="8.41"/><rect class="cls-13" x="16.23" y="15.73" width="201.04" height="105.2"/></g><g class="cls-14"><polygon class="cls-15" points="216.94 210.22 15.9 212.36 15.9 208.52 216.94 208.52 216.94 210.22"/><polygon class="cls-15" points="216.94 216.28 15.9 218.42 15.9 212.36 216.94 210.22 216.94 216.28"/><polygon class="cls-16" points="216.94 222.34 15.9 224.48 15.9 218.42 216.94 216.28 216.94 222.34"/><polygon class="cls-17" points="216.94 228.4 15.9 230.54 15.9 224.48 216.94 222.34 216.94 228.4"/><polygon class="cls-18" points="216.94 234.47 15.9 236.6 15.9 230.54 216.94 228.4 216.94 234.47"/><polygon class="cls-19" points="216.94 240.53 15.9 242.66 15.9 236.6 216.94 234.47 216.94 240.53"/><polygon class="cls-20" points="216.94 246.59 15.9 248.73 15.9 242.66 216.94 240.53 216.94 246.59"/><polygon class="cls-21" points="216.94 252.65 15.9 254.79 15.9 248.73 216.94 246.59 216.94 252.65"/><polygon class="cls-22" points="216.94 258.71 15.9 260.85 15.9 254.79 216.94 252.65 216.94 258.71"/><polygon class="cls-23" points="216.94 264.77 15.9 266.91 15.9 260.85 216.94 258.71 216.94 264.77"/><polygon class="cls-23" points="15.9 266.91 216.94 264.77 216.94 303.83 15.9 303.83 15.9 266.91"/></g><path class="cls-24" d="M189.88,267.77H135.51a7.77,7.77,0,0,1-7.75-7.74h0a7.78,7.78,0,0,1,7.75-7.75h54.37a7.78,7.78,0,0,1,7.75,7.75h0A7.77,7.77,0,0,1,189.88,267.77Z"/><rect class="cls-24" x="36.34" y="223.07" width="108.21" height="16.34" rx="7.79"/><rect class="cls-25" x="58.48" y="213.94" width="64.41" height="12.38"/><path class="cls-26" d="M85.45,225.41V198.34a5.34,5.34,0,0,0-10.67,0v28c0,.06,0,.12,0,.18l-3.87.83a3.13,3.13,0,0,0-1.69,1l-.82.89a3.19,3.19,0,0,0,2.37,5.33H83.51a3.18,3.18,0,0,0,3.18-3.19v-3.46A3.15,3.15,0,0,0,85.45,225.41Z"/><path class="cls-27" d="M113.6,229.25l-.82-.89a3.1,3.1,0,0,0-1.69-1l-3.87-.83c0-.06,0-.12,0-.18v-28a5.34,5.34,0,0,0-10.67,0v27.07a3.15,3.15,0,0,0-1.24,2.52v3.46a3.18,3.18,0,0,0,3.18,3.19h12.74A3.19,3.19,0,0,0,113.6,229.25Z"/><rect class="cls-28" x="47.64" y="182.63" width="10.83" height="43.9"/><circle class="cls-28" cx="53.06" cy="177.48" r="10.19"/><rect class="cls-28" x="122.89" y="182.63" width="10.83" height="43.9"/><circle class="cls-28" cx="128.3" cy="177.48" r="10.19"/><path class="cls-29" d="M89.07,101.85h3.41a32.87,32.87,0,0,1,32.87,32.87V176.6a0,0,0,0,1,0,0H56.2a0,0,0,0,1,0,0V134.72A32.87,32.87,0,0,1,89.07,101.85Z"/><path class="cls-28" d="M89.61,106.28h2.87A27.68,27.68,0,0,1,120.15,134V176.6a0,0,0,0,1,0,0H61.93a0,0,0,0,1,0,0V134A27.68,27.68,0,0,1,89.61,106.28Z"/><rect class="cls-29" x="50.86" y="182.63" width="10.83" height="43.9"/><rect class="cls-25" x="60.66" y="170.57" width="60.24" height="13.36"/><rect class="cls-29" x="119.93" y="182.63" width="10.83" height="43.9"/><rect class="cls-27" x="61.7" y="199.65" width="58.23" height="11.71"/><rect class="cls-30" x="61.7" y="182.63" width="58.23" height="17.02"/><circle class="cls-29" cx="56.28" cy="177.48" r="10.19"/><circle class="cls-29" cx="125.35" cy="177.48" r="10.19"/><path class="cls-31" d="M113.83,186A5.52,5.52,0,0,1,110.5,176c4.76-3.59,7-7.35,7-11.5-.12-9.08-10.93-18.79-15.09-21.76a5.52,5.52,0,1,1,6.42-9c2,1.43,19.5,14.41,19.71,30.6.1,7.8-3.74,14.68-11.39,20.46A5.57,5.57,0,0,1,113.83,186Z"/><path class="cls-32" d="M122.89,215.05H59.12V192A31.88,31.88,0,0,1,91,160.08h0A31.89,31.89,0,0,1,122.89,192Z"/><path class="cls-27" d="M66.9,114.46a4.74,4.74,0,1,0,4.74-4.74A4.74,4.74,0,0,0,66.9,114.46Z"/><path class="cls-33" d="M68.75,114.46a2.89,2.89,0,1,0,2.89-2.89A2.89,2.89,0,0,0,68.75,114.46Z"/><path class="cls-27" d="M106.79,114.46a4.74,4.74,0,1,0,4.74-4.74A4.74,4.74,0,0,0,106.79,114.46Z"/><path class="cls-33" d="M108.64,114.46a2.89,2.89,0,1,0,2.89-2.89A2.89,2.89,0,0,0,108.64,114.46Z"/><rect class="cls-27" x="75.53" y="89.45" width="32.57" height="32.64" transform="translate(183.64 211.54) rotate(180)"/><path class="cls-34" d="M102.51,114.38h0a1.61,1.61,0,0,0,1.61-1.61v-2.7a1.62,1.62,0,0,0-1.61-1.61h0a1.62,1.62,0,0,0-1.61,1.61v2.7A1.62,1.62,0,0,0,102.51,114.38Z"/><rect class="cls-34" x="84.25" y="107.57" width="3.79" height="7.06" rx="1.61" transform="translate(172.29 222.21) rotate(180)"/><rect class="cls-35" x="107.93" y="98.28" width="4.04" height="27.14"/><rect class="cls-35" x="71.67" y="98.28" width="4.54" height="26.67"/><path class="cls-35" d="M106,85.72l12.36,7.68A14.56,14.56,0,1,1,94.44,76.83Z"/><path class="cls-35" d="M79.21,85.72,66.85,93.4A14.56,14.56,0,1,0,90.74,76.83Z"/><circle class="cls-35" cx="81.25" cy="82.77" r="8.64"/><path class="cls-35" d="M105.26,89.45H89.93a6.73,6.73,0,0,1-6.72-6.72h0A6.74,6.74,0,0,1,89.93,76h15.33A6.75,6.75,0,0,1,112,82.73h0A6.74,6.74,0,0,1,105.26,89.45Z"/><path class="cls-33" d="M95.28,111.22a3.16,3.16,0,0,0-3.16,3.16h6.32A3.16,3.16,0,0,0,95.28,111.22Z"/><path class="cls-35" d="M105.26,106.6l-4.16-1.09a1.44,1.44,0,0,1-1-1.75h0a1.44,1.44,0,0,1,1.75-1l4.16,1.09a1.45,1.45,0,0,1,1,1.75h0A1.44,1.44,0,0,1,105.26,106.6Z"/><path class="cls-35" d="M83.53,106.6l4.16-1.09a1.44,1.44,0,0,0,1-1.75h0a1.44,1.44,0,0,0-1.75-1l-4.15,1.09a1.43,1.43,0,0,0-1,1.75h0A1.43,1.43,0,0,0,83.53,106.6Z"/><path class="cls-33" d="M110.12,90.94H74.44a2.56,2.56,0,0,1-2.55-2.55h0a2.56,2.56,0,0,1,2.55-2.55h35.68a2.56,2.56,0,0,1,2.55,2.55h0A2.56,2.56,0,0,1,110.12,90.94Z"/><path class="cls-27" d="M110.12,89.88H74.44a2.55,2.55,0,0,1-2.55-2.55h0a2.55,2.55,0,0,1,2.55-2.54h35.68a2.55,2.55,0,0,1,2.55,2.54h0A2.55,2.55,0,0,1,110.12,89.88Z"/><path class="cls-31" d="M121.24,204.66h0a6,6,0,0,1-5.93-5.92v-11.3a5.94,5.94,0,0,1,5.93-5.92h0a5.94,5.94,0,0,1,5.92,5.92v11.3A6,6,0,0,1,121.24,204.66Z"/><path class="cls-31" d="M151.22,188.66a11.08,11.08,0,1,0,12,10.12A11.08,11.08,0,0,0,151.22,188.66Z"/><path class="cls-31" d="M137.2,223.27h0a6.94,6.94,0,0,0,9.55-2.14l5.32-8.4a6.94,6.94,0,0,0-2.14-9.55h0a6.94,6.94,0,0,0-9.55,2.14l-5.32,8.4A6.94,6.94,0,0,0,137.2,223.27Z"/><path class="cls-31" d="M117.57,194.51h0a6.1,6.1,0,0,0-.44,8.59l17.18,19a6.09,6.09,0,0,0,8.58.43h0a6.09,6.09,0,0,0,.43-8.58l-17.17-19A6.09,6.09,0,0,0,117.57,194.51Z"/><path class="cls-27" d="M184.12,255.49l-1-.87a3.39,3.39,0,0,1-1.1-1.81l-1-4.2-.19,0-7.51.17-5.54.12-17.47.4a5.81,5.81,0,0,1-.27-11.61l17.48-.4,5.53-.13,6.46-.14a3.46,3.46,0,0,1,2.72-1.43l3.77-.08a3.46,3.46,0,0,1,3.55,3.39l.32,13.86A3.48,3.48,0,0,1,184.12,255.49Z"/><rect class="cls-36" x="148.58" y="242.04" width="12.58" height="2.2" rx="0.94" transform="translate(-84.68 403.51) rotate(-91.31)"/><rect class="cls-36" x="161.01" y="234" width="2.53" height="17.94" rx="1.08" transform="translate(-129.71 232.22) rotate(-54.15)"/><rect class="cls-36" x="161.06" y="233.89" width="2.26" height="17.94" rx="0.97" transform="translate(251.5 -35.18) rotate(51.54)"/><rect class="cls-36" x="173.56" y="233.71" width="2.53" height="17.94" rx="1.08" transform="translate(-124.27 242.35) rotate(-54.17)"/><rect class="cls-36" x="173.56" y="233.71" width="2.53" height="17.94" rx="1.08" transform="translate(256.13 -45.15) rotate(51.54)"/><rect class="cls-36" x="184.54" y="249.12" width="2.07" height="7.37" rx="0.88" transform="translate(-62.93 444.11) rotate(-91.31)"/><rect class="cls-36" x="183.97" y="244.58" width="2.07" height="8.33" rx="0.88" transform="translate(-59.45 439.38) rotate(-91.31)"/><path class="cls-36" d="M176.55,241.61h10.22a1,1,0,0,1,1,1v.33a1,1,0,0,1-1,1H176.55a1,1,0,0,1-1-1v-.33a1,1,0,0,1,1-1Z" transform="translate(-56.88 429.89) rotate(-91.31)"/><rect class="cls-36" x="178.09" y="244.3" width="21.85" height="2.11" rx="0.9" transform="translate(429.99 50.8) rotate(88.69)"/><rect class="cls-36" x="183.4" y="230.32" width="2.39" height="10.48" rx="1.02" transform="translate(415.87 45.61) rotate(88.69)"/><path class="cls-27" d="M154.7,246.87h0a17.08,17.08,0,0,0,17.08-17.08V199A17.08,17.08,0,0,0,154.7,182h0A17.08,17.08,0,0,0,137.62,199v30.76A17.08,17.08,0,0,0,154.7,246.87Z"/><path class="cls-37" d="M133.94,246.87h41.52V202A20.82,20.82,0,0,0,154.7,181.2h0A20.82,20.82,0,0,0,133.94,202Z"/><path class="cls-38" d="M134.64,233.17h40.12a2.93,2.93,0,0,0,2.92-2.93h0a2.93,2.93,0,0,0-2.92-2.93H134.64a2.94,2.94,0,0,0-2.92,2.93h0A2.94,2.94,0,0,0,134.64,233.17Z"/><path class="cls-39" d="M154.7,192.3h0a.16.16,0,0,1,.16.16h0a.16.16,0,0,1-.16.16h0a.16.16,0,0,1-.16-.16h0A.16.16,0,0,1,154.7,192.3Z"/><path class="cls-27" d="M178.85,264.22l-1-.86a3.47,3.47,0,0,1-1.11-1.81l-1-4.2h-.19l-7.52.18-5.53.12-17.47.4a5.81,5.81,0,0,1-.27-11.61l17.47-.4,5.54-.13,6.46-.15a3.47,3.47,0,0,1,2.72-1.42l3.77-.08a3.47,3.47,0,0,1,3.55,3.39l.31,13.86A3.47,3.47,0,0,1,178.85,264.22Z"/><rect class="cls-36" x="143.3" y="250.78" width="12.58" height="2.2" rx="0.94" transform="translate(-98.8 407.18) rotate(-91.31)"/><rect class="cls-36" x="155.73" y="242.74" width="2.53" height="17.94" rx="1.08" transform="translate(-138.97 231.57) rotate(-54.15)"/><rect class="cls-36" x="155.78" y="242.63" width="2.26" height="17.94" rx="0.97" transform="matrix(0.62, 0.78, -0.78, 0.62, 256.35, -27.75)"/><rect class="cls-36" x="168.29" y="242.45" width="2.53" height="17.94" rx="1.08" transform="translate(-133.54 241.63) rotate(-54.15)"/><rect class="cls-36" x="168.29" y="242.45" width="2.53" height="17.94" rx="1.08" transform="translate(261.03 -37.71) rotate(51.55)"/><rect class="cls-36" x="179.26" y="257.86" width="2.07" height="7.37" rx="0.88" transform="translate(-76.99 447.86) rotate(-91.33)"/><rect class="cls-36" x="178.69" y="253.32" width="2.07" height="8.33" rx="0.88" transform="translate(-73.58 443.05) rotate(-91.31)"/><path class="cls-36" d="M171.27,250.35h10.22a1,1,0,0,1,1,1v.33a1,1,0,0,1-1,1H171.27a1,1,0,0,1-1-1v-.33A1,1,0,0,1,171.27,250.35Z" transform="translate(-71.01 433.55) rotate(-91.31)"/><rect class="cls-36" x="172.81" y="253.04" width="21.85" height="2.11" rx="0.9" transform="translate(433.57 64.61) rotate(88.69)"/><rect class="cls-36" x="178.13" y="239.06" width="2.39" height="10.48" rx="1.02" transform="translate(419.51 59.49) rotate(88.7)"/><rect class="cls-37" x="133.94" y="242.97" width="23.06" height="15.09"/><polygon class="cls-27" points="136.21 169.15 141.1 143.33 170.54 148.84 166.94 175.59 136.21 169.15"/><polygon class="cls-27" points="141.51 153.67 172.62 158.61 170.39 172.63 138.52 167.58 141.51 153.67"/><rect class="cls-39" x="166.76" y="147.01" width="9.19" height="32.65" rx="3.94" transform="translate(27.7 -24.82) rotate(9.01)"/><rect class="cls-39" x="135.35" y="134.54" width="46.19" height="13.68" rx="5.86" transform="translate(24.1 -23.07) rotate(9.01)"/><path class="cls-39" d="M139.16,139.9l8.33-4.82c.08.13.15.27.22.4a9.63,9.63,0,1,1-17.1,8.85Z"/><path class="cls-39" d="M168.86,147.76l3.63,6.18-.3.16a7.16,7.16,0,0,1-6.66-12.68Z"/><path class="cls-27" d="M163.32,162.41a5.1,5.1,0,1,0,5.84-4.24A5.1,5.1,0,0,0,163.32,162.41Z"/><path class="cls-33" d="M165.28,162.72a3.11,3.11,0,1,0,3.56-2.59A3.12,3.12,0,0,0,165.28,162.72Z"/><path class="cls-39" d="M135.26,166.7l-.6,3.74A19.77,19.77,0,0,0,151,193h0a19.77,19.77,0,0,0,22.56-16.38l.59-3.74Z"/><rect class="cls-32" x="154.09" y="160.55" width="2.86" height="6.7" rx="1.06" transform="translate(283.43 350.15) rotate(-170.98)"/><rect class="cls-32" x="142.32" y="158.69" width="2.86" height="6.7" rx="1.06" transform="translate(260.34 344.59) rotate(-170.99)"/><path class="cls-39" d="M155.34,156.89l4.7,2.79a1.21,1.21,0,0,0,1.67-.52h0a1.34,1.34,0,0,0-.45-1.76l-4.71-2.78a1.18,1.18,0,0,0-1.66.51h0A1.32,1.32,0,0,0,155.34,156.89Z"/><path class="cls-39" d="M148.1,155.74l-5.34,1.19a1.19,1.19,0,0,1-1.42-1h0a1.31,1.31,0,0,1,1-1.53l5.33-1.2a1.22,1.22,0,0,1,1.43,1h0A1.32,1.32,0,0,1,148.1,155.74Z"/><path class="cls-33" d="M150.33,174.85l-6-1a1.32,1.32,0,0,1-1.11-1.52h0a1.32,1.32,0,0,1,1.52-1.11l6,1a1.33,1.33,0,0,1,1.1,1.53h0A1.34,1.34,0,0,1,150.33,174.85Z"/><rect class="cls-30" x="145.28" y="163.22" width="5.92" height="9.65" rx="2.53" transform="matrix(-0.99, -0.16, 0.16, -0.99, 268.31, 357.26)"/><path class="cls-39" d="M156.15,144.52a4.87,4.87,0,1,1-4.87-4.87A4.87,4.87,0,0,1,156.15,144.52Z"/><path class="cls-39" d="M166.28,146.25a6.6,6.6,0,1,1-6.6-6.6A6.61,6.61,0,0,1,166.28,146.25Z"/><path class="cls-27" d="M157.42,186.81a13.87,13.87,0,1,0,11.63,15.79A13.87,13.87,0,0,0,157.42,186.81Z"/><rect class="cls-27" x="135.91" y="201.85" width="14.36" height="24.68" rx="7.03" transform="translate(89.38 466.12) rotate(-134.22)"/><path class="cls-27" d="M116.29,195.13h0a6.32,6.32,0,0,0-.12,8.92l18.53,19a6.32,6.32,0,0,0,8.92.12h0a6.33,6.33,0,0,0,.12-8.91l-18.54-19A6.32,6.32,0,0,0,116.29,195.13Z"/><rect class="cls-27" x="72.14" y="73.64" width="4.13" height="13.45"/><rect class="cls-27" x="107.6" y="73.64" width="4.13" height="13.45"/><rect class="cls-27" x="89.73" y="69.81" width="5.73" height="18.65"/><rect class="cls-27" x="80.9" y="71.19" width="4.88" height="15.89"/><rect class="cls-27" x="98.79" y="71.19" width="4.88" height="15.89"/><path class="cls-27" d="M119.94,204.66h0a6,6,0,0,1-5.93-5.92v-11.3a5.94,5.94,0,0,1,5.93-5.92h0a5.94,5.94,0,0,1,5.92,5.92v11.3A6,6,0,0,1,119.94,204.66Z"/><path class="cls-1" d="M115.91,170.3a11,11,0,0,0,1.59-5.78,15.88,15.88,0,0,0-1.6-6.34c0,.13,0,.26,0,.39Z"/><path class="cls-26" d="M115.91,170.3a18.3,18.3,0,0,1-3.75,4.38h3.75Z"/><path class="cls-32" d="M115.9,158.18A25.15,25.15,0,0,0,90.73,133.4h0a25.17,25.17,0,0,0-25.17,25.17v16.11h46.6a18.3,18.3,0,0,0,3.75-4.38V158.57C115.91,158.44,115.9,158.31,115.9,158.18Z"/><circle class="cls-26" cx="98.17" cy="151.06" r="8.34" transform="translate(-14.98 10.87) rotate(-5.89)"/><path class="cls-36" d="M105.34,149.88a7.27,7.27,0,1,1-8.36-6A7.27,7.27,0,0,1,105.34,149.88Z"/><path class="cls-27" d="M102.78,155.33l-4.26-2.13-3.35,3.39.72-4.71-4.27-2.14,4.71-.77.71-4.72,2.19,4.23,4.71-.77-3.35,3.39Zm-10.24-5.45,3.66,1.84-.61,4,2.87-2.91,3.66,1.83-1.88-3.63,2.87-2.92-4,.67-1.88-3.63-.61,4Z"/><path class="cls-27" d="M98.52,153.2l-2.63-1.32.44-2.91,2.9-.49,1.36,2.62Zm-2.32-1.48,2.26,1.13,1.78-1.8-1.17-2.25-2.49.41Z"/><path class="cls-26" d="M99.68,158.86A8.34,8.34,0,1,1,90.09,152,8.34,8.34,0,0,1,99.68,158.86Z"/><path class="cls-36" d="M98.62,159a7.27,7.27,0,1,1-8.36-6A7.27,7.27,0,0,1,98.62,159Z"/><path class="cls-27" d="M96.06,164.49l-4.26-2.13-3.35,3.39.72-4.71-4.26-2.13,4.7-.78.71-4.72,2.19,4.24,4.71-.78-3.35,3.39ZM85.82,159l3.66,1.84-.61,4L91.74,162l3.66,1.83-1.88-3.63,2.87-2.92-4,.67-1.89-3.63-.61,4Z"/><path class="cls-27" d="M91.8,162.36,89.17,161l.44-2.91,2.9-.48,1.36,2.61Zm-2.32-1.48L91.74,162l1.78-1.8L92.36,158l-2.5.42Z"/><circle class="cls-26" cx="87.25" cy="171.2" r="11.21" transform="translate(-102.69 142.11) rotate(-54.29)"/><path class="cls-36" d="M96.88,169.61a9.76,9.76,0,1,1-11.23-8A9.76,9.76,0,0,1,96.88,169.61Z"/><path class="cls-27" d="M93.45,176.94l-5.73-2.87-4.49,4.56,1-6.33-5.72-2.87,6.32-1.05,1-6.33,3,5.69L95,166.69l-4.5,4.56Zm-13.76-7.32,4.92,2.46-.83,5.44,3.87-3.92,4.91,2.46L90,171.18l3.86-3.92-5.42.9-2.53-4.88-.82,5.44Z"/><path class="cls-27" d="M87.72,174.07l-3.54-1.77.6-3.92,3.9-.64,1.82,3.51Zm-3.11-2,3,1.52L90,171.18l-1.56-3-3.35.56Z"/><path class="cls-26" d="M111.87,159.27a7.7,7.7,0,1,1-8.86-6.34A7.71,7.71,0,0,1,111.87,159.27Z"/><path class="cls-36" d="M110.89,159.44a6.71,6.71,0,1,1-7.72-5.53A6.7,6.7,0,0,1,110.89,159.44Z"/><path class="cls-27" d="M108.53,164.48l-3.94-2-3.09,3.14.66-4.35-3.94-2,4.35-.72.66-4.35,2,3.91,4.35-.72-3.1,3.14Zm-9.46-5,3.38,1.69-.56,3.74,2.65-2.69,3.38,1.69-1.74-3.35,2.66-2.69-3.73.61-1.74-3.35-.57,3.73Z"/><path class="cls-27" d="M104.59,162.5l-2.43-1.21.41-2.7,2.68-.44,1.25,2.42Zm-2.14-1.37,2.09,1.05,1.64-1.66-1.07-2.08-2.31.38Z"/><path class="cls-26" d="M115.85,157.24c0,.32.05.63.05.94a15.88,15.88,0,0,1,1.6,6.34,11,11,0,0,1-1.59,5.78v4.38h-3.75c-.52.45-1.07.89-1.66,1.34a5.52,5.52,0,0,0,6.65,8.82c7.65-5.78,11.49-12.66,11.39-20.46a25.32,25.32,0,0,0-1.53-8.14A50.63,50.63,0,0,1,115.85,157.24Z"/><path class="cls-32" d="M127,156.24C122.68,144,110.47,135,108.83,133.78a5.52,5.52,0,0,0-7.7,1.28,3.79,3.79,0,0,0-.29.45,25.19,25.19,0,0,1,15,21.73A50.63,50.63,0,0,0,127,156.24Z"/><path class="cls-35" d="M103.32,116.44a8.62,8.62,0,0,1,8.62,8.61h0c0,8.7-9.06,15.82-20.14,15.82h0c-11.07,0-20.13-7.12-20.13-15.82h0a8.61,8.61,0,0,1,8.61-8.61Z"/><path class="cls-26" d="M121.81,163.06a8.13,8.13,0,1,1-9.35-6.69A8.13,8.13,0,0,1,121.81,163.06Z"/><path class="cls-36" d="M120.78,163.24a7.08,7.08,0,1,1-8.14-5.84A7.08,7.08,0,0,1,120.78,163.24Z"/><path class="cls-27" d="M118.29,168.55l-4.15-2.08-3.27,3.31.7-4.59-4.16-2.08,4.59-.76.69-4.6,2.14,4.13,4.59-.76-3.27,3.31Zm-10-5.31,3.57,1.79-.6,3.94,2.8-2.84,3.57,1.79-1.84-3.54,2.8-2.84-3.93.65-1.84-3.55-.6,4Z"/><path class="cls-27" d="M114.14,166.47l-2.57-1.28.43-2.84,2.83-.47,1.32,2.55ZM111.88,165l2.2,1.1,1.73-1.75-1.13-2.19-2.44.4Z"/><path class="cls-26" d="M113,170.82a9.85,9.85,0,1,1-11.33-8.11A9.85,9.85,0,0,1,113,170.82Z"/><path class="cls-36" d="M111.75,171a8.58,8.58,0,1,1-9.87-7.07A8.58,8.58,0,0,1,111.75,171Z"/><path class="cls-27" d="M108.74,177.48l-5-2.53-4,4,.85-5.57-5-2.52,5.56-.92.84-5.57,2.59,5,5.56-.92-4,4ZM96.63,171,101,173.2l-.72,4.78,3.39-3.44,4.33,2.17-2.23-4.3,3.4-3.44-4.78.79-2.22-4.3-.72,4.79Z"/><path class="cls-27" d="M103.7,175l-3.11-1.56.52-3.44,3.43-.57,1.6,3.09ZM101,173.2l2.67,1.34,2.1-2.13-1.38-2.65-2.94.49Z"/><path class="cls-27" d="M100.66,119.41H88.82a1.38,1.38,0,0,0-1.35,1.69,7.51,7.51,0,0,0,1.94,3.55c0-.1,0-.21,0-.32,0,.11,0,.22,0,.32a7.48,7.48,0,0,0,10.36.38,3.59,3.59,0,0,0,.08-.35,3.59,3.59,0,0,1-.08.35,7.42,7.42,0,0,0,1.49-1.81,7.59,7.59,0,0,0,.82-2A1.47,1.47,0,0,0,100.66,119.41Zm-11.27,4.88a1.63,1.63,0,0,1,0-.31A3,3,0,0,0,89.39,124.29Zm10.34-.82a.78.78,0,0,1,0,.14s0,0,0,.08Zm-.13-.33,0,.07Zm.26,1.43a2.11,2.11,0,0,0,0-.25A2.11,2.11,0,0,1,99.86,124.57Zm0-.71a1.69,1.69,0,0,1,0,.38A2.33,2.33,0,0,0,99.83,123.86Z"/><path class="cls-33" d="M99,122.72H90.43a.7.7,0,0,1,0-1.4H99a.7.7,0,1,1,0,1.4Z"/><path class="cls-26" d="M93.7,177.27c-9.6-4.14-15.68-9.35-18.09-15.5a78.58,78.58,0,0,1-11.76,3.73c3.47,9.68,11.85,17.45,25,23.1a6,6,0,0,0,2.44.5,6.17,6.17,0,0,0,2.45-11.83Z"/><path class="cls-32" d="M75.36,160.45c-2.69-8.79,2.54-17.17,2.67-17.38a6.26,6.26,0,0,0-10.47-6.86c-.35.53-8.55,13.21-4.22,27.71.16.54.34,1.06.53,1.58a80.34,80.34,0,0,0,11.93-3.78C75.64,161.3,75.49,160.87,75.36,160.45Z"/><rect class="cls-31" x="74.76" y="215.06" width="10.73" height="1.77"/><rect class="cls-31" x="96.56" y="215.06" width="10.67" height="1.77"/></g></g></g></svg>