<?xml version="1.0" encoding="utf-8"?>
<!-- Generator: Adobe Illustrator 25.2.3, SVG Export Plug-In . SVG Version: 6.00 Build 0)  -->
<svg version="1.1" id="Layer_1" xmlns="http://www.w3.org/2000/svg" xmlns:xlink="http://www.w3.org/1999/xlink" x="0px" y="0px"
	 viewBox="0 0 235.4 381.8" style="enable-background:new 0 0 235.4 381.8;" xml:space="preserve">
<style type="text/css">
	.st0{fill:#F2B055;}
	.st1{fill:#FFF0CC;}
	.st2{fill:#231F20;}
	.st3{clip-path:url(#SVGID_2_);}
	.st4{clip-path:url(#SVGID_4_);}
	.st5{fill:#56CCCC;}
	.st6{fill:#56CFD0;}
	.st7{fill:#56D2D3;}
	.st8{fill:#56D5D7;}
	.st9{fill:#56D8DB;}
	.st10{fill:#56DBDE;}
	.st11{fill:#56DEE2;}
	.st12{clip-path:url(#SVGID_6_);}
	.st13{fill:#D1D3D4;}
	.st14{fill:#DCDEDE;}
	.st15{fill:#E5E7E7;}
	.st16{fill:#EDEEEF;}
	.st17{fill:#F4F4F5;}
	.st18{fill:#F9F9F9;}
	.st19{fill:#FCFCFC;}
	.st20{fill:#FEFEFE;}
	.st21{fill:#FFFFFF;}
	.st22{fill:#E3E5E5;}
	.st23{fill:#844E5C;}
	.st24{fill:#FFD150;}
	.st25{fill:#F2AF55;}
	.st26{fill:#47372E;}
	.st27{fill:#E3705E;}
	.st28{fill:#4A355B;}
	.st29{fill:#ED915C;}
	.st30{fill:#E5705F;}
	.st31{fill:#DC4F65;}
	.st32{fill:#F4B155;}
	.st33{fill:#FFD250;}
	.st34{fill:#D1D2D3;}
	.st35{fill:#F1F1F1;}
	.st36{fill:#EDD25D;}
	.st37{fill:none;}
	.st38{fill:#BCBDBF;}
</style>
<g id="Layer_2_1_">
	<g id="Layer_1-2">
		<path class="st0" d="M235.4,14.5v352.9c-0.2,8.1-6.9,14.6-15,14.5H15c-8.3,0-15-6.5-15-14.5V14.5C0,6.5,6.7,0,15,0h205.4
			C228.7,0,235.4,6.5,235.4,14.5z M222.8,358.9V22.9c0-6-4.8-10.8-10.8-10.9H23.5c-6,0-10.8,4.9-10.8,10.8c0,0,0,0,0,0v336.1
			c0,6,4.9,10.8,10.8,10.8H212C218,369.7,222.8,364.9,222.8,358.9z"/>
		<path class="st1" d="M23.5,12H212c6,0,10.8,4.8,10.8,10.8v336.1c0,6-4.8,10.8-10.8,10.8H23.5c-6,0-10.8-4.8-10.8-10.8V22.9
			C12.6,16.9,17.5,12,23.5,12z"/>
		<path class="st2" d="M28.1,329.5c-0.7-0.1-1.3-0.4-1.9-0.8c-0.2-0.1-0.2-0.2-0.2-0.3c0-0.1,0-0.2,0.1-0.2l0.6-0.9
			c0.1-0.1,0.1-0.2,0.2-0.2c0.1,0,0.2,0,0.2,0.1c0.5,0.3,1,0.5,1.5,0.6c0.6,0.2,1.1,0.2,1.7,0.2c0.6,0,1.3-0.1,1.8-0.4
			c0.4-0.3,0.6-0.8,0.6-1.3c0-0.3-0.1-0.6-0.2-0.8c-0.2-0.2-0.4-0.4-0.7-0.5c-0.5-0.2-0.9-0.4-1.4-0.6l-0.4-0.2
			c-0.6-0.2-1.3-0.5-1.9-0.9c-0.5-0.3-0.9-0.7-1.2-1.1c-0.3-0.5-0.5-1.1-0.5-1.7c0-1,0.4-1.9,1.2-2.5c1-0.6,2.1-0.9,3.2-0.9
			c0.7,0,1.4,0.1,2.1,0.2c0.6,0.1,1.1,0.4,1.5,0.7c0.1,0.1,0.2,0.2,0.2,0.3c0,0.1,0,0.1-0.1,0.2l-0.6,0.9c-0.1,0.1-0.1,0.2-0.2,0.2
			c-0.1,0-0.2-0.1-0.2-0.1c-0.8-0.5-1.8-0.8-2.8-0.7c-0.6,0-1.2,0.1-1.7,0.4c-0.4,0.3-0.6,0.8-0.6,1.3c0,0.3,0.1,0.6,0.2,0.9
			c0.2,0.2,0.4,0.4,0.7,0.6c0.3,0.1,0.8,0.4,1.5,0.6l0.4,0.2c0.7,0.3,1.4,0.6,2,0.9c0.5,0.3,0.8,0.6,1.1,1.1
			c0.3,0.5,0.4,1.1,0.4,1.6c0,0.9-0.4,1.8-1.1,2.4c-0.9,0.6-2.1,0.9-3.2,0.9C29.7,329.7,28.9,329.7,28.1,329.5z"/>
		<path class="st2" d="M36.8,329.3c-0.1-0.1-0.2-0.3-0.2-0.5v-10.6c0-0.2,0-0.4,0.2-0.5c0.1-0.1,0.3-0.2,0.5-0.2h7.3
			c0.2,0,0.3,0,0.5,0.1c0.1,0.1,0.2,0.3,0.1,0.5v0.5c0,0.2,0,0.3-0.1,0.5c-0.1,0.1-0.3,0.2-0.5,0.1h-5.7v3.4H43c0.2,0,0.4,0,0.5,0.1
			c0.1,0.1,0.2,0.3,0.1,0.5v0.4c0.1,0.3-0.1,0.6-0.4,0.6c-0.1,0-0.2,0-0.2,0h-4.1v3.4h5.7c0.2,0,0.4,0,0.5,0.1
			c0.1,0.1,0.2,0.3,0.1,0.5v0.5c0,0.2,0,0.3-0.1,0.5c-0.1,0.1-0.3,0.2-0.5,0.1h-7.3C37.1,329.5,36.9,329.4,36.8,329.3z"/>
		<path class="st2" d="M50.8,329.4c-0.1-0.1-0.2-0.2-0.2-0.4L46,318c0-0.1,0-0.1,0-0.2c0-0.1,0-0.1,0.1-0.2c0.1-0.1,0.1-0.1,0.2-0.1
			h1.5c0.2,0,0.5,0.1,0.5,0.4l3.3,8.4l3.3-8.4c0-0.1,0.1-0.2,0.2-0.3c0.1-0.1,0.2-0.1,0.3-0.1H57c0.1,0,0.2,0,0.2,0.1
			c0.1,0.1,0.1,0.1,0.1,0.2c0,0.1,0,0.1-0.1,0.2l-4.5,11c0,0.1-0.1,0.3-0.2,0.4c-0.1,0.1-0.2,0.1-0.4,0.1h-1
			C51,329.5,50.9,329.5,50.8,329.4z"/>
		<path class="st2" d="M58.9,329.3c-0.1-0.1-0.2-0.3-0.2-0.5v-10.6c0-0.2,0-0.4,0.2-0.5c0.1-0.1,0.3-0.2,0.5-0.2h7.3
			c0.2,0,0.4,0,0.5,0.1c0.1,0.1,0.1,0.3,0.1,0.5v0.5c0,0.2,0,0.3-0.1,0.5c-0.1,0.1-0.3,0.2-0.5,0.1H61v3.4h4.1c0.2,0,0.4,0,0.5,0.1
			c0.1,0.1,0.2,0.3,0.2,0.5v0.4c0,0.2,0,0.3-0.2,0.5c-0.1,0.1-0.3,0.2-0.5,0.1H61v3.4h5.7c0.2,0,0.4,0,0.5,0.1
			c0.1,0.1,0.2,0.3,0.1,0.5v0.5c0,0.2,0,0.3-0.1,0.5c-0.1,0.1-0.3,0.2-0.5,0.1h-7.3C59.2,329.5,59,329.4,58.9,329.3z"/>
		<path class="st2" d="M69,329.3c-0.1-0.1-0.2-0.3-0.2-0.5v-10.6c0-0.2,0-0.4,0.2-0.5c0.1-0.1,0.3-0.2,0.5-0.2h0.8
			c0.3,0,0.5,0.1,0.7,0.4l5.8,8v-7.7c0-0.2,0-0.4,0.2-0.5c0.1-0.1,0.3-0.2,0.5-0.2h0.9c0.2,0,0.4,0,0.5,0.2c0.1,0.1,0.2,0.3,0.2,0.5
			v10.6c0,0.2,0,0.3-0.2,0.5c-0.1,0.1-0.3,0.2-0.5,0.2h-0.9c-0.1,0-0.3,0-0.4-0.1c-0.1-0.1-0.2-0.2-0.3-0.3l-5.8-8v7.7
			c0,0.2,0,0.3-0.2,0.5c-0.1,0.1-0.3,0.2-0.5,0.2h-0.9C69.3,329.5,69.1,329.4,69,329.3z"/>
		<path class="st2" d="M89.1,328.1c-2.1-2.7-2.1-6.5,0-9.2c2.6-2.2,6.3-2.2,8.9,0c2.1,2.7,2.1,6.5,0,9.2
			C95.4,330.3,91.7,330.3,89.1,328.1z M96.3,326.9c1.3-2.1,1.3-4.7,0-6.8c-1.6-1.5-4.1-1.5-5.6,0c-1.3,2.1-1.3,4.7,0,6.8
			C92.3,328.5,94.8,328.5,96.3,326.9z"/>
		<path class="st2" d="M101.4,329.3c-0.1-0.1-0.2-0.3-0.2-0.5v-10.6c0-0.2,0-0.4,0.2-0.5c0.1-0.1,0.3-0.2,0.5-0.2h7.3
			c0.2,0,0.3,0,0.5,0.1c0.1,0.1,0.2,0.3,0.1,0.5v0.5c0,0.2,0,0.3-0.1,0.5c-0.1,0.1-0.3,0.2-0.5,0.1h-5.7v3.4h4.1
			c0.2,0,0.4,0,0.5,0.1c0.1,0.1,0.2,0.3,0.1,0.5v0.5c0,0.2,0,0.3-0.1,0.5c-0.1,0.1-0.3,0.2-0.5,0.1h-4.1v4.5c0,0.2,0,0.3-0.2,0.5
			c-0.1,0.1-0.3,0.2-0.5,0.2h-0.9C101.7,329.5,101.5,329.4,101.4,329.3z"/>
		<path class="st2" d="M118.2,329.3c-0.1-0.1-0.2-0.3-0.2-0.5v-10.6c0-0.2,0-0.4,0.2-0.5c0.1-0.1,0.3-0.2,0.5-0.2h4.5
			c1.2-0.1,2.3,0.3,3.2,1c1.4,1.7,1.4,4.1,0,5.8c-0.9,0.7-2,1.1-3.2,1h-2.9v3.4c0,0.2,0,0.3-0.2,0.5c-0.1,0.1-0.3,0.2-0.5,0.2h-0.9
			C118.5,329.5,118.3,329.4,118.2,329.3z M123,323.8c0.6,0,1.2-0.2,1.6-0.5c0.7-1,0.7-2.4,0-3.4c-0.4-0.4-1-0.6-1.6-0.5h-2.8v4.5
			L123,323.8z"/>
		<path class="st2" d="M128.9,329.3c-0.1-0.1-0.2-0.3-0.1-0.5v-10.6c0-0.2,0-0.4,0.1-0.5c0.1-0.1,0.3-0.2,0.5-0.2h7.3
			c0.2,0,0.3,0,0.5,0.1c0.1,0.1,0.2,0.3,0.1,0.5v0.5c0,0.2,0,0.3-0.1,0.5c-0.1,0.1-0.3,0.2-0.5,0.1H131v3.4h4.1c0.2,0,0.4,0,0.5,0.1
			c0.1,0.1,0.2,0.3,0.1,0.5v0.4c0,0.2,0,0.3-0.1,0.5c-0.1,0.1-0.3,0.2-0.5,0.1H131v3.4h5.7c0.2,0,0.4,0,0.5,0.1
			c0.1,0.1,0.2,0.3,0.1,0.5v0.5c0,0.2,0,0.3-0.1,0.5c-0.1,0.1-0.3,0.2-0.5,0.1h-7.3C129.2,329.5,129.1,329.4,128.9,329.3z"/>
		<path class="st2" d="M139,329.3c-0.1-0.1-0.2-0.3-0.1-0.5v-10.6c0-0.2,0-0.4,0.1-0.5c0.1-0.1,0.3-0.2,0.5-0.2h0.8
			c0.1,0,0.3,0,0.4,0.1c0.1,0.1,0.2,0.2,0.3,0.3l5.8,8v-7.7c0-0.2,0-0.4,0.1-0.5c0.1-0.1,0.3-0.2,0.5-0.2h0.9c0.2,0,0.4,0,0.5,0.2
			c0.1,0.1,0.2,0.3,0.2,0.5v10.6c0,0.2,0,0.3-0.1,0.5c-0.1,0.1-0.3,0.2-0.5,0.2h-0.8c-0.1,0-0.3,0-0.4-0.1c-0.1-0.1-0.2-0.2-0.3-0.3
			l-5.8-8v7.7c0,0.3-0.2,0.6-0.5,0.6c-0.1,0-0.1,0-0.2,0h-0.9C139.3,329.5,139.1,329.4,139,329.3z"/>
		<path class="st2" d="M154.2,329.3c-0.1-0.1-0.2-0.3-0.2-0.5v-9.6H151c-0.2,0-0.3,0-0.5-0.1c-0.1-0.1-0.1-0.3-0.1-0.5v-0.5
			c0-0.2,0-0.3,0.1-0.5c0.1-0.1,0.3-0.2,0.5-0.1h8.4c0.2,0,0.4,0,0.5,0.1c0.1,0.1,0.2,0.3,0.1,0.5v0.5c0,0.2,0,0.3-0.1,0.5
			c-0.1,0.1-0.3,0.2-0.5,0.1h-3.1v9.6c0,0.2,0,0.3-0.1,0.5c-0.1,0.1-0.3,0.2-0.5,0.2h-0.9C154.6,329.5,154.4,329.4,154.2,329.3z"/>
		<path class="st2" d="M158.9,329.2c0-0.1,0-0.2,0-0.2l4.6-11c0-0.1,0.1-0.3,0.2-0.4c0.1-0.1,0.2-0.1,0.4-0.1h1c0.1,0,0.3,0,0.4,0.1
			c0.1,0.1,0.2,0.2,0.2,0.4l4.6,11c0,0.1,0,0.2,0.1,0.2c0,0.2-0.1,0.3-0.3,0.3h-1.5c-0.1,0-0.2,0-0.3-0.1c-0.1-0.1-0.1-0.2-0.2-0.2
			l-1-2.5h-4.8l-1,2.5c0,0.1-0.1,0.2-0.2,0.2c-0.1,0-0.2,0.1-0.3,0.1h-1.5C159,329.5,158.9,329.4,158.9,329.2z M166.4,325.1
			l-1.9-4.6l-1.9,4.6H166.4z"/>
		<path class="st2" d="M172.4,328.1c-1.2-1.2-1.7-2.9-1.6-4.6c-0.1-1.7,0.5-3.4,1.6-4.6c1.2-1.1,2.9-1.7,4.6-1.6
			c0.7,0,1.5,0.1,2.2,0.2c0.6,0.1,1.2,0.4,1.7,0.7c0.1,0,0.1,0.1,0.2,0.2c0,0.1,0,0.2-0.1,0.2l-0.5,0.8c-0.1,0.1-0.1,0.2-0.2,0.2
			c-0.1,0-0.2,0-0.2-0.1c-0.9-0.5-1.8-0.7-2.8-0.7c-1.1-0.1-2.3,0.3-3.1,1.1c-1.5,2-1.5,4.8,0,6.9c0.8,0.8,2,1.2,3.1,1.1
			c1,0,2.1-0.2,3-0.7c0.1,0,0.1-0.1,0.2-0.1c0.1,0,0.1,0.1,0.2,0.1l0.5,0.9c0,0.1,0.1,0.1,0.1,0.2c0,0.1-0.1,0.1-0.2,0.2
			c-1.2,0.7-2.7,1-4.1,1C175.3,329.9,173.6,329.3,172.4,328.1z"/>
		<path class="st2" d="M183.1,329.3c-0.1-0.1-0.2-0.3-0.1-0.5v-10.6c0-0.2,0-0.4,0.1-0.5c0.1-0.1,0.3-0.2,0.5-0.2h0.9
			c0.2,0,0.4,0,0.5,0.2c0.1,0.1,0.2,0.3,0.2,0.5v9.6h5.4c0.2,0,0.4,0,0.5,0.1c0.1,0.1,0.2,0.3,0.1,0.5v0.5c0,0.2,0,0.3-0.1,0.5
			c-0.1,0.1-0.3,0.2-0.5,0.1h-7C183.4,329.5,183.2,329.4,183.1,329.3z"/>
		<path class="st2" d="M192.5,329.3c-0.1-0.1-0.2-0.3-0.1-0.5v-10.6c0-0.2,0-0.4,0.1-0.5c0.1-0.1,0.3-0.2,0.5-0.2h7.3
			c0.2,0,0.4,0,0.5,0.1c0.1,0.1,0.1,0.3,0.1,0.5v0.5c0,0.2,0,0.3-0.1,0.5c-0.1,0.1-0.3,0.2-0.5,0.1h-5.7v3.4h4.1
			c0.2,0,0.4,0,0.5,0.1c0.1,0.1,0.2,0.3,0.1,0.5v0.4c0,0.2,0,0.3-0.1,0.5c-0.1,0.1-0.3,0.2-0.5,0.1h-4.1v3.4h5.7
			c0.2,0,0.4,0,0.5,0.1c0.1,0.1,0.2,0.3,0.1,0.5v0.5c0,0.2,0,0.3-0.1,0.5c-0.1,0.1-0.3,0.2-0.5,0.1H193
			C192.8,329.5,192.6,329.5,192.5,329.3z"/>
		<path class="st2" d="M204.2,329.5c-0.7-0.1-1.3-0.4-1.9-0.8c-0.2-0.1-0.2-0.2-0.2-0.3c0-0.1,0-0.2,0.1-0.2l0.6-0.9
			c0.1-0.1,0.1-0.2,0.2-0.2c0.1,0,0.2,0,0.2,0.1c0.5,0.3,1,0.5,1.5,0.6c0.6,0.2,1.1,0.2,1.7,0.2c0.6,0,1.3-0.1,1.8-0.4
			c0.4-0.3,0.6-0.8,0.6-1.3c0-0.3-0.1-0.6-0.2-0.8c-0.2-0.2-0.4-0.4-0.7-0.5c-0.5-0.2-0.9-0.4-1.4-0.6l-0.4-0.2
			c-0.6-0.2-1.3-0.5-1.9-0.9c-0.5-0.3-0.9-0.7-1.2-1.1c-0.3-0.5-0.5-1.1-0.5-1.7c0-1,0.4-1.9,1.2-2.5c1-0.6,2.1-0.9,3.2-0.9
			c0.7,0,1.4,0.1,2.1,0.2c0.6,0.1,1.1,0.4,1.5,0.7c0.1,0.1,0.2,0.2,0.2,0.3c0,0.1,0,0.1-0.1,0.2l-0.6,0.9c-0.1,0.1-0.1,0.2-0.2,0.2
			c-0.1,0-0.2-0.1-0.2-0.1c-0.8-0.5-1.8-0.8-2.8-0.7c-0.6,0-1.2,0.1-1.7,0.4c-0.4,0.3-0.6,0.8-0.6,1.3c0,0.3,0.1,0.6,0.2,0.9
			c0.2,0.2,0.4,0.4,0.7,0.6c0.3,0.1,0.8,0.4,1.5,0.6l0.4,0.2c0.7,0.3,1.4,0.6,2,0.9c0.5,0.3,0.8,0.6,1.1,1.1
			c0.3,0.5,0.4,1.1,0.4,1.6c0,0.9-0.4,1.8-1.1,2.4c-0.9,0.6-2.1,0.9-3.2,0.9C205.8,329.7,205,329.7,204.2,329.5z"/>
		<g>
			<defs>
				<path id="SVGID_1_" d="M53.1,44.1h129.2c13.7,0,24.8,11.1,24.8,24.8v192.6c0,13.7-11.1,24.8-24.8,24.8H53.1
					c-13.7,0-24.8-11.1-24.8-24.8V68.9C28.3,55.2,39.4,44.1,53.1,44.1z"/>
			</defs>
			<clipPath id="SVGID_2_">
				<use xlink:href="#SVGID_1_"  style="overflow:visible;"/>
			</clipPath>
			<g class="st3">
				<g>
					<defs>
						<rect id="SVGID_3_" x="12.6" y="15.7" width="201" height="288.1"/>
					</defs>
					<clipPath id="SVGID_4_">
						<use xlink:href="#SVGID_3_"  style="overflow:visible;"/>
					</clipPath>
					<g class="st4">
						<rect x="12.6" y="179.8" class="st5" width="201" height="124"/>
						<rect x="12.6" y="171.4" class="st5" width="201" height="8.4"/>
						<rect x="12.6" y="163" class="st6" width="201" height="8.4"/>
						<rect x="12.6" y="154.6" class="st7" width="201" height="8.4"/>
						<rect x="12.6" y="146.2" class="st8" width="201" height="8.4"/>
						<rect x="12.6" y="137.8" class="st9" width="201" height="8.4"/>
						<rect x="12.6" y="129.3" class="st10" width="201" height="8.4"/>
						<rect x="12.6" y="120.9" class="st11" width="201" height="8.4"/>
						<rect x="12.6" y="15.7" class="st11" width="201" height="105.2"/>
					</g>
				</g>
				<g>
					<defs>
						<polyline id="SVGID_5_" points="12.6,208.5 213.7,208.5 213.7,303.8 12.6,303.8 12.6,208.5 						"/>
					</defs>
					<clipPath id="SVGID_6_">
						<use xlink:href="#SVGID_5_"  style="overflow:visible;"/>
					</clipPath>
					<g class="st12">
						<polygon class="st13" points="213.7,210.2 12.6,212.4 12.6,208.5 213.7,208.5 						"/>
						<polygon class="st13" points="213.7,216.3 12.6,218.4 12.6,212.4 213.7,210.2 						"/>
						<polygon class="st14" points="213.7,222.3 12.6,224.5 12.6,218.4 213.7,216.3 						"/>
						<polygon class="st15" points="213.7,228.4 12.6,230.5 12.6,224.5 213.7,222.3 						"/>
						<polygon class="st16" points="213.7,234.5 12.6,236.6 12.6,230.5 213.7,228.4 						"/>
						<polygon class="st17" points="213.7,240.5 12.6,242.7 12.6,236.6 213.7,234.5 						"/>
						<polygon class="st18" points="213.7,246.6 12.6,248.7 12.6,242.7 213.7,240.5 						"/>
						<polygon class="st19" points="213.7,252.6 12.6,254.8 12.6,248.7 213.7,246.6 						"/>
						<polygon class="st20" points="213.7,258.7 12.6,260.9 12.6,254.8 213.7,252.6 						"/>
						<polygon class="st21" points="213.7,264.8 12.6,266.9 12.6,260.9 213.7,258.7 						"/>
						<polygon class="st21" points="12.6,266.9 213.7,264.8 213.7,303.8 12.6,303.8 						"/>
					</g>
				</g>
				<path class="st22" d="M139.3,284.1H55.7c-3.7,0-6.7-3-6.7-6.7l0,0c0-3.7,3-6.7,6.7-6.7h83.5c3.7,0,6.7,3,6.7,6.7l0,0
					C145.9,281.1,143,284.1,139.3,284.1z"/>
				<path class="st23" d="M135.6,224.1H94c-1.7,0-3.1-1.4-3.1-3.1c0,0,0,0,0,0l0,0c0-1.7,1.4-3.1,3.1-3.1c0,0,0,0,0,0h41.6
					c1.7,0,3.1,1.4,3.1,3.1l0,0C138.6,222.7,137.3,224.1,135.6,224.1L135.6,224.1z"/>
				<path class="st24" d="M75.9,125.7c0,2.4,1.9,4.3,4.3,4.3s4.3-1.9,4.3-4.3s-1.9-4.3-4.3-4.3l0,0
					C77.8,121.5,75.9,123.4,75.9,125.7z"/>
				<path class="st25" d="M77.6,125.7c0,1.4,1.2,2.6,2.6,2.6c1.4,0,2.6-1.2,2.6-2.6c0-1.4-1.2-2.6-2.6-2.6
					C78.7,123.1,77.6,124.3,77.6,125.7C77.6,125.7,77.6,125.7,77.6,125.7z"/>
				<path class="st24" d="M112,125.7c0,1.8,1.5,3.3,3.3,3.3c1.8,0,3.3-1.5,3.3-3.3c0-1.8-1.5-3.3-3.3-3.3c0,0,0,0,0,0
					C113.5,122.4,112,123.9,112,125.7C112,125.7,112,125.7,112,125.7z"/>
				<path class="st25" d="M113.3,125.7c0,1.1,0.9,2,2,2s2-0.9,2-2s-0.9-2-2-2S113.3,124.6,113.3,125.7z"/>
				<rect x="77.6" y="108.6" class="st26" width="4.9" height="21.5"/>
				<rect x="112.3" y="109.5" class="st26" width="4.5" height="21.5"/>
				<path class="st24" d="M58.8,175L58.8,175c2.2,3.1,6.6,3.8,9.7,1.6l10-7.1c3.1-2.2,3.8-6.6,1.6-9.7l0,0c-2.2-3.1-6.6-3.8-9.7-1.6
					l-10,7.1C57.3,167.6,56.6,171.9,58.8,175z"/>
				<path class="st24" d="M43.6,158.2L43.6,158.2c-1.9,2.1-1.7,5.3,0.4,7.2L59.3,179c2.1,1.8,5.3,1.7,7.2-0.4l0,0
					c1.9-2.1,1.7-5.3-0.4-7.2l-15.3-13.6C48.7,155.9,45.5,156.1,43.6,158.2z"/>
				<path class="st24" d="M70.2,158.5c0,6.1,5,11.1,11.1,11.1c6.1,0,11.1-5,11.1-11.1c0-6.1-5-11.1-11.1-11.1S70.2,152.4,70.2,158.5
					L70.2,158.5z"/>
				<path class="st24" d="M72.6,271l0.9-1c0.5-0.6,1.2-1,2-1.1l4.4-1c0-0.1,0-0.1,0-0.2v-53.6c-0.1-3.4,2.5-6.2,5.9-6.4
					c3.4-0.1,6.2,2.5,6.4,5.9c0,0.2,0,0.3,0,0.5v52.5c0.9,0.7,1.4,1.8,1.4,2.9v4c0,2-1.6,3.7-3.6,3.7c0,0,0,0,0,0H75.3
					c-2,0-3.7-1.6-3.7-3.6C71.6,272.6,72,271.7,72.6,271z"/>
				<path class="st27" d="M80.4,239.3h11.9c0.4,0,0.7,0.3,0.7,0.7v1c0,0.4-0.3,0.7-0.7,0.7H80.4c-0.4,0-0.7-0.3-0.7-0.7v-1
					C79.7,239.6,80,239.3,80.4,239.3z"/>
				<path class="st27" d="M91.6,240.4l0.9,0.7c0.3,0.3,0.4,0.7,0.1,1.1L82.2,256c-0.3,0.3-0.7,0.4-1.1,0.1l-0.9-0.7
					c-0.3-0.3-0.4-0.7-0.1-1.1l10.5-13.9C90.8,240.2,91.3,240.2,91.6,240.4z"/>
				<path class="st27" d="M92.6,255.4l-0.8,0.6c-0.3,0.2-0.7,0.2-1-0.1l-10.6-14c-0.2-0.3-0.2-0.7,0.1-1l0.8-0.6
					c0.3-0.2,0.7-0.2,1,0.1l10.6,14C92.9,254.8,92.9,255.2,92.6,255.4z"/>
				<path class="st27" d="M91.6,253.7l0.9,0.7c0.3,0.3,0.4,0.7,0.1,1.1l-10.5,13.9c-0.3,0.3-0.7,0.4-1.1,0.1l-0.9-0.7
					c-0.3-0.3-0.4-0.7-0.1-1.1l10.5-13.9C90.8,253.5,91.3,253.4,91.6,253.7z"/>
				<path class="st27" d="M92.5,268.7l-0.9,0.7c-0.3,0.3-0.8,0.2-1.1-0.1L80,255.4c-0.3-0.3-0.2-0.8,0.1-1.1l0.9-0.7
					c0.3-0.3,0.8-0.2,1.1,0.1l10.5,13.9C92.9,268,92.8,268.5,92.5,268.7z"/>
				<path class="st27" d="M74.9,268.7h0.9c0.3,0,0.6,0.3,0.6,0.6v6.5c0,0.3-0.3,0.6-0.6,0.6h-0.9c-0.3,0-0.6-0.3-0.6-0.6v-6.5
					C74.3,269,74.6,268.7,74.9,268.7z"/>
				<path class="st27" d="M79.2,267.7h0.9c0.3,0,0.6,0.3,0.6,0.6v7.5c0,0.3-0.3,0.6-0.6,0.6h-0.9c-0.3,0-0.6-0.3-0.6-0.6v-7.5
					C78.6,268,78.9,267.7,79.2,267.7z"/>
				<path class="st27" d="M80.4,267.5h11.4c0.4,0,0.7,0.3,0.7,0.7v1c0,0.4-0.3,0.7-0.7,0.7H80.4c-0.4,0-0.7-0.3-0.7-0.7v-1
					C79.7,267.9,80,267.5,80.4,267.5z"/>
				<path class="st27" d="M94.1,277.5H72.3c-0.3,0-0.6-0.3-0.6-0.6v-1c0-0.3,0.3-0.6,0.6-0.6h21.8c0.3,0,0.6,0.3,0.6,0.6v1
					C94.7,277.3,94.4,277.5,94.1,277.5z"/>
				<path class="st24" d="M105,266.6v-52.5c-0.1-3.4,2.5-6.2,5.9-6.4c3.4-0.1,6.2,2.5,6.4,5.9c0,0.2,0,0.3,0,0.5v53.6
					c0,0.1,0,0.1,0,0.2l4.4,1c0.7,0.2,1.4,0.6,1.9,1.1l0.9,1c1.4,1.5,1.2,3.8-0.2,5.2c-0.7,0.6-1.6,1-2.5,1h-14.7
					c-2,0-3.7-1.6-3.7-3.7l0,0v-4C103.5,268.4,104.1,267.3,105,266.6z"/>
				<path class="st27" d="M116.9,241.7h-11.9c-0.4,0-0.7-0.3-0.7-0.7v-1c0-0.4,0.3-0.7,0.7-0.7h11.9c0.4,0,0.7,0.3,0.7,0.7v1
					C117.5,241.4,117.2,241.7,116.9,241.7z"/>
				<path class="st27" d="M117.1,255.5l-0.9,0.7c-0.3,0.3-0.8,0.2-1.1-0.1l-10.5-13.9c-0.3-0.3-0.2-0.8,0.1-1.1l0.9-0.7
					c0.3-0.3,0.8-0.2,1.1,0.1l10.5,13.9C117.5,254.8,117.4,255.2,117.1,255.5z"/>
				<path class="st27" d="M116.2,240.4l0.9,0.7c0.3,0.3,0.4,0.7,0.1,1.1L106.7,256c-0.3,0.3-0.7,0.4-1.1,0.1l-0.9-0.7
					c-0.3-0.3-0.4-0.7-0.1-1.1l10.5-13.9C115.4,240.2,115.8,240.2,116.2,240.4z"/>
				<path class="st27" d="M117.1,268.7l-0.9,0.7c-0.3,0.3-0.8,0.2-1.1-0.1l-10.5-13.9c-0.3-0.3-0.2-0.8,0.1-1.1l0.9-0.7
					c0.3-0.3,0.8-0.2,1.1,0.1l10.5,13.9C117.5,268,117.4,268.5,117.1,268.7z"/>
				<path class="st27" d="M116.2,253.6l0.9,0.7c0.3,0.3,0.4,0.7,0.1,1.1l-10.5,13.9c-0.3,0.3-0.7,0.4-1.1,0.1l-0.9-0.7
					c-0.3-0.3-0.4-0.7-0.1-1.1l10.5-13.9C115.4,253.5,115.8,253.4,116.2,253.6z"/>
				<path class="st27" d="M122.3,276h-0.9c-0.3,0-0.6-0.3-0.6-0.6v-6.5c0-0.3,0.3-0.6,0.6-0.6h0.9c0.3,0,0.6,0.3,0.6,0.6v6.5
					C122.9,275.7,122.7,276,122.3,276z"/>
				<path class="st27" d="M118,276h-0.9c-0.3,0-0.6-0.3-0.6-0.6v-7.2c0-0.3,0.3-0.6,0.6-0.6h0.9c0.3,0,0.6,0.3,0.6,0.6v7.2
					C118.6,275.7,118.4,276,118,276z"/>
				<path class="st27" d="M116.9,269.9h-11.4c-0.4,0-0.7-0.3-0.7-0.7v-1c0-0.4,0.3-0.7,0.7-0.7h11.4c0.4,0,0.7,0.3,0.7,0.7v1
					C117.5,269.6,117.2,269.9,116.9,269.9z"/>
				<path class="st27" d="M125.4,277.5h-21.8c-0.3,0-0.6-0.3-0.6-0.6v-1c0-0.3,0.3-0.6,0.6-0.6h21.8c0.3,0,0.6,0.3,0.6,0.6v1
					C126,277.3,125.7,277.5,125.4,277.5z"/>
				<path class="st27" d="M103.7,266.6h1.1c0.4,0,0.7,0.3,0.7,0.7v9.5c0,0.4-0.3,0.7-0.7,0.7h-1.1c-0.4,0-0.7-0.3-0.7-0.7v-9.5
					C103,266.9,103.3,266.6,103.7,266.6z"/>
				<path class="st27" d="M94.2,277.5h-1.1c-0.4,0-0.7-0.3-0.7-0.7v-9.6c0-0.4,0.3-0.7,0.7-0.7h1.1c0.4,0,0.7,0.3,0.7,0.7v9.6
					C94.9,277.2,94.6,277.5,94.2,277.5z"/>
				<path class="st24" d="M105.3,224.1H92.4c-7.4,0-13.3-6-13.3-13.3v-48.4c0-7.4,6-13.3,13.3-13.3h12.8c7.4,0,13.3,6,13.3,13.3
					v48.4C118.6,218.1,112.6,224.1,105.3,224.1z"/>
				<path class="st26" d="M98.9,161.4h-0.1c-0.1,0-0.1-0.1-0.1-0.1v-0.1c0-0.1,0.1-0.1,0.1-0.1h0.1c0.1,0,0.1,0.1,0.1,0.1v0.1
					C99,161.3,99,161.4,98.9,161.4z"/>
				<rect x="81.8" y="110" class="st24" width="33" height="22.8"/>
				<path class="st28" d="M108.4,127h-0.3c-0.9,0-1.7-0.7-1.7-1.7v-3.4c0-0.9,0.7-1.7,1.7-1.7h0.3c0.9,0,1.7,0.7,1.7,1.7v3.4
					C110.1,126.3,109.3,127,108.4,127z"/>
				<path class="st28" d="M93.3,127H93c-0.9,0-1.7-0.7-1.7-1.7v-3.4c0-0.9,0.7-1.7,1.7-1.7h0.3c0.9,0,1.7,0.7,1.7,1.7v3.4
					C95,126.3,94.2,127,93.3,127z"/>
				<path class="st26" d="M105.4,117.8l5.6,2.1c0.7,0.3,1.4-0.1,1.7-0.8l0,0c0.2-0.7-0.1-1.5-0.8-1.7l-5.6-2.1
					c-0.7-0.2-1.5,0.1-1.7,0.8l0,0C104.4,116.8,104.7,117.6,105.4,117.8z"/>
				<path class="st26" d="M96.4,119.4l-5.9,0.2c-0.7,0-1.4-0.5-1.4-1.3l0,0c0-0.7,0.6-1.3,1.3-1.3l5.9-0.2c0.7,0,1.3,0.5,1.4,1.2
					l0,0C97.8,118.7,97.2,119.4,96.4,119.4C96.4,119.4,96.4,119.4,96.4,119.4z"/>
				<path class="st29" d="M114.2,153.8c-3.5,8.1-12.9,11.7-21,8.2c-4-1.7-7.1-5-8.6-9.1c-6.1,4.5-9.8,11.7-9.8,19.3v57.1h48v-57.1
					C122.8,165.1,119.7,158.3,114.2,153.8z"/>
				<path class="st24" d="M98.7,163.5c6.3,0,12.1-3.7,14.6-9.6c-4.3-3.6-9.7-5.6-15.3-5.6l0,0c-5.1,0-10.1,1.6-14.2,4.6
					C86,159.3,92,163.5,98.7,163.5z"/>
				<path class="st26" d="M116.4,99.1l-10.6-6.8c-0.1,0.2-0.2,0.3-0.3,0.5c-3.5,6-1.4,13.7,4.6,17.2c6,3.5,13.7,1.4,17.2-4.6
					L116.4,99.1z"/>
				<path class="st30" d="M123.1,195.1H74.5c-1.3,0-2.3-1-2.3-2.3v-2.2c0-1.3,1-2.3,2.3-2.3h48.6c1.3,0,2.3,1,2.3,2.3v2.2
					C125.4,194.1,124.4,195.1,123.1,195.1z"/>
				<path class="st26" d="M77.6,103.7l5.4-6.2l0.3,0.3c3.2,3.2,3.1,8.4-0.1,11.6c-3.1,3-8,3.1-11.2,0.3L77.6,103.7z"/>
				<circle class="st26" cx="101.7" cy="95.4" r="8.9"/>
				<circle class="st26" cx="90.4" cy="97.6" r="8.4"/>
				<path class="st26" d="M117,127.8v10.3c0,10.4-8.9,19-19.7,19l0,0c-10.8,0-19.7-8.5-19.7-19v-10.3H117z"/>
				<path class="st24" d="M106.5,138.2H97c-1.3,0-2.4-1.1-2.4-2.4l0,0c0-1.3,1.1-2.3,2.4-2.4h9.6c1.3,0,2.3,1.1,2.4,2.4l0,0
					C108.9,137.2,107.8,138.3,106.5,138.2C106.5,138.3,106.5,138.3,106.5,138.2z"/>
				<path class="st26" d="M100.8,136.8h1.9c0.7,0,1.2,0.6,1.2,1.2v1.2c0,0.7-0.6,1.2-1.2,1.2h-1.9c-0.7,0-1.2-0.6-1.2-1.2v-1.2
					C99.6,137.4,100.1,136.8,100.8,136.8z"/>
				<path class="st25" d="M105.4,136.1c-0.1,0-0.1,0-0.2,0c-4.2-1.7-6.3-0.3-6.3-0.2c-0.2,0.1-0.4,0.1-0.6-0.1c0,0,0,0,0,0
					c-0.1-0.2-0.1-0.4,0.1-0.6c0.1-0.1,2.5-1.8,7.1,0.1c0.2,0.1,0.3,0.3,0.2,0.6C105.7,136.1,105.6,136.1,105.4,136.1z"/>
				<path class="st31" d="M101.1,132.9L101.1,132.9c1.6,0,2.8-1.3,2.8-2.9v-3.6c0-1.6-1.3-2.8-2.8-2.8l0,0c-1.6,0-2.8,1.3-2.8,2.8
					v3.6C98.3,131.7,99.5,132.9,101.1,132.9z"/>
				<path class="st26" d="M84,112.4h28.5c5.4,0,9.8-4.4,9.8-9.8l0,0c0-5.4-4.4-9.8-9.8-9.8H84c-5.4,0-9.8,4.4-9.8,9.8l0,0
					C74.2,108,78.6,112.3,84,112.4z"/>
				<path class="st26" d="M135,123.8h19.7l0,0v50.5l0,0h-11.8c-4.4,0-7.9-3.6-7.9-7.9l0,0L135,123.8L135,123.8z"/>
				<path class="st32" d="M151.8,251.6h5.8c2.4,0,4.4,1.9,4.4,4.4v44.6c0,2.4-1.9,4.4-4.4,4.4h-5.8c-2.4,0-4.4-1.9-4.4-4.4V256
					C147.4,253.5,149.4,251.6,151.8,251.6z"/>
				<path class="st24" d="M161.1,261h5.8c2.4,0,4.4,1.9,4.4,4.4V310c0,2.4-1.9,4.4-4.4,4.4h-5.8c-2.4,0-4.4-1.9-4.4-4.4v-44.6
					C156.8,262.9,158.7,261,161.1,261z"/>
				<path class="st32" d="M121.2,231.4c-3.7,0-7.4-0.4-11-1.1c-4.9-1-8.1-5.8-7.1-10.8s5.8-8.1,10.8-7.1c11.8,2.4,21.4-0.8,29.4-9.7
					c4.1-4.7,7.2-10.1,9.3-15.9c1.5-4.8,6.6-7.5,11.4-5.9c4.8,1.5,7.5,6.6,5.9,11.4l0,0c-2.8,8-7.1,15.5-12.6,21.9
					C147.4,225.6,135.1,231.4,121.2,231.4z"/>
				<path class="st33" d="M141.4,233.1c-3.7,0-7.4-0.4-11-1.2c-4.9-1-8.1-5.8-7.1-10.8s5.8-8.1,10.8-7.1c8.2,1.7,14.5,0.7,19.5-2.8
					c9-6.6,10.7-20.1,10.8-20.2c0.6-5,5.1-8.6,10.1-8.1c5,0.6,8.6,5.1,8.1,10.1l0,0c-0.1,0.9-2.6,21.6-18.1,32.9
					C157.6,230.8,149.6,233.3,141.4,233.1z"/>
				<path class="st26" d="M165.1,117h12.7c5.3,0,9.5,4.3,9.5,9.5V190c0,5.3-4.3,9.5-9.5,9.5h-12.7c-5.3,0-9.5-4.3-9.5-9.5v-63.4
					C155.6,121.3,159.8,117,165.1,117z"/>
				<path class="st28" d="M185.5,274.4H137v-84c0-13.4,10.8-24.2,24.2-24.2c0,0,0,0,0,0l0,0c13.4,0,24.2,10.8,24.2,24.2L185.5,274.4
					z"/>
				<path class="st24" d="M133,144.4c0,2.8,2.3,5.1,5.1,5.1s5.1-2.3,5.1-5.1s-2.3-5.1-5.1-5.1S133,141.6,133,144.4L133,144.4z"/>
				<path class="st25" d="M135,144.4c0,1.7,1.4,3.1,3.1,3.1c1.7,0,3.1-1.4,3.1-3.1c0-1.7-1.4-3.1-3.1-3.1c0,0,0,0,0,0
					C136.4,141.3,135,142.7,135,144.4z"/>
				<path class="st25" d="M138.2,130.8l-0.2,19c-0.1,10.5,8.4,19.1,18.9,19.2l0,0c10.5,0.1,19.1-8.4,19.2-18.9l0.2-19"/>
				<path class="st24" d="M138.2,129.7l-0.2,18.9c-0.1,10.5,8.4,19.1,18.9,19.2l0,0c10.5,0,19.1-8.4,19.2-18.9l0.2-18.9"/>
				<path class="st28" d="M160.3,146.2L160.3,146.2c0.9,0,1.7-0.8,1.7-1.7v-2.9c0-0.9-0.8-1.7-1.7-1.7l0,0c-0.9,0-1.7,0.8-1.7,1.7
					v2.9C158.6,145.4,159.4,146.2,160.3,146.2L160.3,146.2z"/>
				<path class="st28" d="M146.2,146.2L146.2,146.2c0.9,0,1.7-0.8,1.7-1.7l0,0v-2.9c0-0.9-0.8-1.7-1.7-1.7l0,0
					c-0.9,0-1.7,0.8-1.7,1.7v2.9C144.5,145.4,145.2,146.2,146.2,146.2z"/>
				<path class="st26" d="M161.3,181.4h-0.2c-0.1,0-0.1-0.1-0.1-0.1v-0.2c0-0.1,0.1-0.1,0.1-0.1h0.2c0.1,0,0.1,0.1,0.1,0.1v0.2
					C161.5,181.4,161.4,181.4,161.3,181.4z"/>
				<circle class="st26" cx="149.1" cy="117.2" r="17.5"/>
				<circle class="st33" cx="126" cy="206" r="23.7"/>
				<circle class="st30" cx="126.6" cy="205.6" r="20.8"/>
				<path class="st24" d="M137,220.2l-11-8l-11,8l4.2-13l-11-8h13.6l4.2-13l4.2,13h13.6l-11,8L137,220.2z M110.7,200l9.5,6.9
					l-3.6,11.1l9.5-6.9l9.5,6.9l-3.6-11.1l9.5-6.9h-11.7l-3.6-11.1l-3.6,11.1H110.7z"/>
				<path class="st24" d="M126,212.1l-6.8-5l2.6-8h8.4l2.6,8L126,212.1z M120.2,206.9l5.8,4.2l5.9-4.2l-2.2-6.9h-7.2L120.2,206.9z"
					/>
				<circle class="st26" cx="173" cy="121.5" r="13.5"/>
				<rect x="172" y="132.4" class="st26" width="7.7" height="7.7"/>
				<path class="st24" d="M169.4,143.6c0,2.8,2.3,5.1,5.1,5.1c2.8,0,5.1-2.3,5.1-5.1c0-2.8-2.3-5.1-5.1-5.1c0,0,0,0,0,0
					C171.7,138.5,169.4,140.8,169.4,143.6L169.4,143.6z"/>
				<path class="st25" d="M171.4,143.6c0,1.7,1.4,3.1,3.1,3.1c1.7,0,3.1-1.4,3.1-3.1c0-1.7-1.4-3.1-3.1-3.1c0,0,0,0,0,0
					C172.8,140.5,171.4,141.9,171.4,143.6L171.4,143.6z"/>
				<path class="st26" d="M166.5,139.7c-0.2,0-0.4-0.1-0.6-0.2c-5.1-3.2-7.6-1.6-7.6-1.6c-0.5,0.4-1.2,0.3-1.6-0.2s-0.3-1.2,0.2-1.6
					c0.1-0.1,3.6-2.6,10.2,1.5c0.5,0.3,0.7,1,0.4,1.6C167.2,139.5,166.9,139.7,166.5,139.7L166.5,139.7z"/>
				<path class="st26" d="M140,139.5c-0.2,0-0.4-0.1-0.6-0.2c-0.5-0.3-0.7-1-0.4-1.6c0.1-0.2,2.4-3.7,10-2.3c0.6,0.1,1,0.7,0.9,1.4
					c-0.1,0.6-0.7,1-1.3,0.9c-6-1.1-7.6,1.2-7.7,1.3C140.7,139.3,140.4,139.5,140,139.5z"/>
				<path class="st24" d="M169.1,114.4c-5.1,0-9.6-3.5-12.1-8.8c-0.6-1.1-1.9-1.5-3-1c-0.4,0.2-0.8,0.6-1,1c-2.5,5.3-7,8.8-12.1,8.8
					c-3,0-5.9-1.2-8.1-3.3c-0.4-0.4-1.1-0.4-1.5,0c-0.2,0.2-0.3,0.5-0.3,0.8v7.2c0,3.9,2.4,7,5.4,7h37.7c3,0,5.4-3.2,5.4-7v-7.6
					c0-0.6-0.5-1.1-1.1-1.1c-0.3,0-0.5,0.1-0.7,0.3C175.5,113.1,172.4,114.4,169.1,114.4z"/>
				<path class="st25" d="M134.2,123h43.3c1.1,0,2.1,0.9,2.1,2.1v2.6c0,1.1-0.9,2.1-2.1,2.1h-43.3c-1.1,0-2.1-0.9-2.1-2.1v-2.6
					C132.1,123.9,133,123,134.2,123z"/>
				<path class="st25" d="M160,154.4h-0.1c-4-0.8-8.2-1.1-12.3-0.9c-0.3,0-0.5-0.2-0.6-0.5c0,0,0,0,0,0c0-0.3,0.2-0.5,0.5-0.6
					c4.2-0.3,8.5,0,12.6,0.9c0.3,0.1,0.5,0.3,0.4,0.6c0,0,0,0,0,0C160.4,154.3,160.2,154.4,160,154.4z"/>
				<path class="st25" d="M153.1,146.5c-1.2,0-2.2,1-2.2,2.2h4.5C155.3,147.5,154.3,146.5,153.1,146.5
					C153.1,146.5,153.1,146.5,153.1,146.5z"/>
				<path class="st33" d="M120.3,222c-4.5-0.9-8.9,2-9.9,6.5s2,8.9,6.5,9.9c3.1,0.6,6.2,1,9.3,1c1.4,0,2.8-0.1,4.2-0.2v-16.9
					C127.1,222.8,123.6,222.7,120.3,222z"/>
				<path class="st28" d="M165.6,217.2c5.9-8,10.7-16.8,14-26.2c1.4-4.4-0.9-9.1-5.3-10.6s-9.1,0.9-10.6,5.3
					c-0.1,0.4-11.1,32.5-33.3,36.5v16.9C143.6,237.8,155.6,230.4,165.6,217.2z"/>
				<rect x="166.5" y="260.5" class="st34" width="17.3" height="67.1"/>
				<rect x="227.9" y="260.5" class="st34" width="17.3" height="67.1"/>
				<rect x="189.6" y="260.5" class="st35" width="20.1" height="78"/>
				<rect x="250.4" y="263.4" class="st35" width="19.4" height="75.2"/>
				<path class="st21" d="M188.1,236.7h60.7c11.8,0,21.4,9.6,21.4,21.4v18.3c0,11.8-9.6,21.4-21.4,21.4h-60.7
					c-11.8,0-21.4-9.6-21.4-21.4v-18.3C166.8,246.3,176.3,236.7,188.1,236.7z"/>
				<path class="st21" d="M159.6,226.3c-3.7-2.8-7.8-0.5-12.7,2s-9.1,4.4-9,9.1c1.6,1.2,3.5,2,5.5,2.3c-0.4-0.2-0.8-0.4-1.1-0.7
					c-0.1-3.5,3-5.1,6.6-6.9s6.7-3.4,9.5-1.3c0,0.4,0,0.9-0.1,1.3C159.2,230.3,159.6,228.3,159.6,226.3z"/>
				<path class="st28" d="M148.9,232.1c-3.6,1.8-6.7,3.4-6.6,6.9c0.3,0.3,0.7,0.5,1.1,0.7c6.1,0.9,12.1-2.2,14.9-7.6
					c0.1-0.4,0.1-0.9,0.1-1.3C155.6,228.7,152.5,230.2,148.9,232.1z"/>
				<path class="st21" d="M182.9,227.4c3.4-3.3,7.7-1.5,12.8,0.3s9.6,3.2,10.1,7.9c-1.4,1.4-3.2,2.4-5.1,3c0.4-0.3,0.7-0.5,1-0.9
					c-0.4-3.5-3.6-4.6-7.4-6s-7.1-2.5-9.6-0.1c0,0.4,0.1,0.9,0.2,1.3C183.8,231.3,183.1,229.4,182.9,227.4z"/>
				<path class="st28" d="M194.2,231.7c3.8,1.4,7.1,2.5,7.4,6c-0.3,0.3-0.6,0.6-1,0.9c-5.9,1.7-12.2-0.6-15.8-5.6
					c-0.1-0.4-0.2-0.9-0.2-1.3C187.2,229.2,190.4,230.4,194.2,231.7z"/>
				<path class="st32" d="M153.1,230.2c0,0-18.1-5.2-8.3-30.2c0,0,3.4,22,16.3,19.2L153.1,230.2z"/>
				<path class="st32" d="M190.7,230.2c0,0,18.1-5.2,8.3-30.2c0,0-3.4,22-16.3,19.2L190.7,230.2z"/>
				<polygon class="st21" points="185.2,258.7 159.1,258.2 153.5,235.2 189.4,235.2 				"/>
				<path class="st36" d="M161.8,243.7h19.3c4.3,0,7.8,3.5,7.8,7.8v6.7c0,4.3-3.5,7.8-7.8,7.8h-19.3c-4.3,0-7.8-3.5-7.8-7.8v-6.7
					C154,247.2,157.5,243.7,161.8,243.7z"/>
				<path class="st29" d="M164.5,255.4l2.4,2.2l0,0c-1.2,1.3-3.3,1.4-4.6,0.2c-1.3-1.2-1.4-3.3-0.2-4.6L164.5,255.4z"/>
				<path class="st29" d="M179.1,255.4l-2.4,2.2l0,0c1.2,1.3,3.3,1.4,4.6,0.2c1.3-1.2,1.4-3.3,0.2-4.6L179.1,255.4z"/>
				<path class="st21" d="M155.8,219.2h30.6c3.9,0,7.1,3.2,7.1,7.1v6c0,3.9-3.2,7.1-7.1,7.1h-30.6c-3.9,0-7.1-3.2-7.1-7.1v-6
					C148.7,222.4,151.9,219.2,155.8,219.2z"/>
				<path class="st28" d="M161.1,235.3c0,1.5-1.2,2.7-2.7,2.7c-1.5,0-2.7-1.2-2.7-2.7c0-1.5,1.2-2.7,2.7-2.7c0,0,0,0,0,0
					C159.8,232.5,161.1,233.7,161.1,235.3C161.1,235.3,161.1,235.3,161.1,235.3z"/>
				<path class="st28" d="M188,235.3c0,1.5-1.2,2.7-2.7,2.7c-1.5,0-2.7-1.2-2.7-2.7c0-1.5,1.2-2.7,2.7-2.7c0,0,0,0,0,0
					C186.8,232.5,188,233.7,188,235.3C188,235.3,188,235.3,188,235.3z"/>
				<path class="st21" d="M180,221h-16.8c-1.6,0-2.9-1.3-2.9-2.9l0,0c0-1.6,1.3-2.9,2.9-2.9H180c1.6,0,3,1.3,3,2.9l0,0
					C183,219.7,181.6,221,180,221z"/>
				<path class="st32" d="M116,184c-1.8,0-3.6-0.6-5.1-1.7c-5.6-3.8-9.9-13.6-12.7-29c-0.5-2.3,1-4.5,3.2-5s4.5,1,5,3.2
					c0,0.1,0,0.2,0,0.2c3.6,19.9,8.6,23.3,9.5,23.8h0.2l0.3,0.1c1.4-0.2,4-2.3,5.3-9c0.5-2.3,2.7-3.8,5-3.3c2.2,0.5,3.7,2.6,3.3,4.9
					c-2.8,14.5-11.2,15.8-13.6,15.9C116.4,184.1,116.2,184,116,184z"/>
				<path class="st32" d="M102.2,154.2l-6.7-0.9c-2-0.3-3.5-2.2-3.2-4.2l0,0c0.3-2,2.2-3.5,4.2-3.2l6.7,0.9c2,0.3,3.5,2.2,3.2,4.2
					l0,0C106.2,153.1,104.3,154.5,102.2,154.2z"/>
				<path class="st24" d="M116,182c-1.8,0-3.6-0.6-5.1-1.7c-5.6-3.8-9.9-13.6-12.7-29c-0.5-2.3,1-4.5,3.2-5s4.5,1,5,3.2
					c0,0.1,0,0.2,0,0.2c3.6,19.9,8.6,23.3,9.5,23.8l0.2-0.1l0.3,0.1c1.4-0.2,4-2.3,5.3-9c0.5-2.3,2.7-3.8,5-3.3
					c2.2,0.5,3.7,2.6,3.3,4.9c-2.8,14.5-11.2,15.8-13.6,15.9C116.4,182,116.2,182,116,182z"/>
				<circle class="st24" cx="122.2" cy="155.7" r="12.1"/>
				<path class="st24" d="M102.2,153.6l-6.7-0.9c-2-0.3-3.5-2.2-3.2-4.2l0,0c0.3-2,2.2-3.5,4.2-3.2c0,0,0,0,0,0l6.7,0.9
					c2,0.3,3.5,2.2,3.2,4.2l0,0C106.1,152.4,104.3,153.9,102.2,153.6z"/>
				<path class="st24" d="M136.2,104.7C136.2,104.8,136.2,104.8,136.2,104.7L136.2,104.7z"/>
				<rect x="30.2" y="39.8" class="st37" width="150" height="249.3"/>
				<path class="st38" d="M29,37.6h40.6c0.3,0,0.6,0.3,0.6,0.6v248.7c0,0.3-0.3,0.6-0.6,0.6H29c-0.3,0-0.6-0.3-0.6-0.6V38.2
					C28.4,37.8,28.6,37.6,29,37.6z"/>
				<path class="st21" d="M22.9,278h54.7c4,0,7.3,3.3,7.3,7.3v1.3c0,4-3.3,7.3-7.3,7.3H22.9c-4,0-7.3-3.3-7.3-7.3v-1.3
					C15.6,281.2,18.9,278,22.9,278z"/>
				<path class="st21" d="M39.3,31.9h0.1c1.2,0,2.1,1,2.1,2.1v234.6c0,1.2-1,2.1-2.1,2.1h-0.1c-1.2,0-2.1-1-2.1-2.1V34
					C37.2,32.8,38.1,31.9,39.3,31.9z"/>
				<path class="st21" d="M49.6,31.9h0.1c1.2,0,2.1,1,2.1,2.1v234.6c0,1.2-1,2.1-2.1,2.1h-0.1c-1.2,0-2.1-1-2.1-2.1V34
					C47.4,32.8,48.4,31.9,49.6,31.9z"/>
				<path class="st21" d="M60.3,31.9h0.1c1.2,0,2.1,1,2.1,2.1v234.6c0,1.2-1,2.1-2.1,2.1h-0.1c-1.2,0-2.1-1-2.1-2.1V34
					C58.2,32.8,59.2,31.9,60.3,31.9z"/>
				
					<ellipse transform="matrix(0.1595 -0.9872 0.9872 0.1595 -209.1766 263.8161)" class="st33" cx="50.3" cy="254.8" rx="17.1" ry="17.1"/>
				<circle class="st30" cx="49.6" cy="254.9" r="14.9"/>
				<path class="st24" d="M57.5,265.1l-7.9-5.7l-7.9,5.7l3-9.3l-7.9-5.7h9.8l3-9.3l3,9.3h9.8l-7.9,5.7L57.5,265.1z M38.7,250.7
					l6.8,4.9l-2.6,8l6.8-4.9l6.8,4.9l-2.6-8l6.8-4.9h-8.4l-2.6-8l-2.6,8L38.7,250.7z"/>
				<path class="st24" d="M49.6,259.4l-4.9-3.5l1.9-5.7h6l1.9,5.7L49.6,259.4z M45.4,255.6l4.2,3l4.2-3l-1.6-4.9H47L45.4,255.6z"/>
				<circle class="st33" cx="50.3" cy="217.7" r="17.1"/>
				<circle class="st30" cx="49.6" cy="217.8" r="14.9"/>
				<path class="st24" d="M57.5,228l-7.9-5.7l-7.9,5.7l3-9.3l-7.9-5.7h9.8l3-9.3l3,9.3h9.8l-7.9,5.7L57.5,228z M38.7,213.6l6.8,4.9
					l-2.6,8l6.8-4.9l6.8,4.9l-2.6-8l6.8-4.9h-8.4l-2.6-8l-2.6,8H38.7z"/>
				<path class="st24" d="M49.6,222.3l-4.9-3.6l1.9-5.7h6l1.9,5.7L49.6,222.3z M45.4,218.5l4.2,3l4.2-3l-1.6-4.9H47L45.4,218.5z"/>
				<circle class="st33" cx="50.1" cy="177.5" r="17.1"/>
				<circle class="st30" cx="49.6" cy="177.7" r="14.9"/>
				<path class="st24" d="M57.5,187.9l-7.9-5.7l-7.9,5.7l3-9.3l-7.9-5.7h9.8l3-9.3l3,9.3h9.8l-7.9,5.7L57.5,187.9z M38.7,173.4
					l6.8,4.9l-2.6,8l6.8-4.9l6.8,4.9l-2.6-8l6.8-4.9h-8.4l-2.6-8l-2.6,8H38.7z"/>
				<path class="st24" d="M49.6,182.1l-4.9-3.5l1.9-5.7h6l1.9,5.7L49.6,182.1z M45.4,178.4l4.2,3l4.2-3l-1.6-4.9H47L45.4,178.4z"/>
				<circle class="st33" cx="49.6" cy="138.7" r="17.1"/>
				<circle class="st30" cx="49.6" cy="138.7" r="14.9"/>
				<path class="st24" d="M57.5,148.8l-7.9-5.7l-7.9,5.7l3-9.3l-7.9-5.7h9.8l3-9.3l3,9.3h9.8l-7.9,5.7L57.5,148.8z M38.7,134.4
					l6.8,4.9l-2.6,8l6.8-4.9l6.8,4.9l-2.6-8l6.8-4.9h-8.4l-2.6-8l-2.6,8H38.7z"/>
				<path class="st24" d="M49.6,143.1l-4.9-3.5l1.9-5.7h6l1.9,5.7L49.6,143.1z M45.4,139.3l4.2,3l4.2-3l-1.6-4.9H47L45.4,139.3z"/>
				<circle class="st33" cx="49.6" cy="101.6" r="17.1"/>
				<circle class="st30" cx="49.6" cy="101.6" r="14.9"/>
				<path class="st24" d="M57.5,111.7l-7.9-5.7l-7.9,5.7l3-9.3l-7.9-5.7h9.8l3-9.3l3,9.3h9.8l-7.9,5.7L57.5,111.7z M38.7,97.3
					l6.8,4.9l-2.6,8l6.8-4.9l6.8,4.9l-2.6-8l6.8-4.9h-8.4l-2.6-8l-2.6,8H38.7z"/>
				<path class="st24" d="M49.6,106l-4.9-3.6l1.9-5.7h6l1.9,5.7L49.6,106z M45.4,102.2l4.2,3l4.2-3l-1.6-4.9H47L45.4,102.2z"/>
				<circle class="st33" cx="49.6" cy="61.4" r="17.1"/>
				<circle class="st30" cx="49.6" cy="61.4" r="14.9"/>
				<path class="st24" d="M57.5,71.6l-7.9-5.7l-7.9,5.7l3-9.3l-7.9-5.7h9.8l3-9.3l3,9.3h9.8l-7.9,5.7L57.5,71.6z M38.7,57.2l6.8,4.9
					l-2.6,8l6.8-4.9l6.8,4.9l-2.6-8l6.8-4.9h-8.4l-2.6-8l-2.6,8H38.7z"/>
				<path class="st24" d="M49.6,65.9l-4.9-3.5l1.9-5.7h6l1.9,5.7L49.6,65.9z M45.4,62.1l4.2,3.1l4.2-3l-1.6-4.9H47L45.4,62.1z"/>
				<path class="st24" d="M102.7,148.8L102.7,148.8c-0.3-0.7,0-1.6,0.7-1.9l3.7-1.7c0.7-0.3,1.6,0,1.9,0.7c0,0,0,0,0,0l0,0
					c0.3,0.7,0,1.6-0.7,1.9l-3.7,1.7C103.9,149.8,103.1,149.5,102.7,148.8z"/>
			</g>
		</g>
	</g>
</g>
</svg>
