<?xml version="1.0" encoding="utf-8"?>
<!-- Generator: Adobe Illustrator 25.2.3, SVG Export Plug-In . SVG Version: 6.00 Build 0)  -->
<svg version="1.1" id="Layer_1" xmlns="http://www.w3.org/2000/svg" xmlns:xlink="http://www.w3.org/1999/xlink" x="0px" y="0px"
	 viewBox="0 0 235.4 381.8" style="enable-background:new 0 0 235.4 381.8;" xml:space="preserve">
<style type="text/css">
	.st0{fill:#F2B055;}
	.st1{fill:#FFF0CC;}
	.st2{fill:#231F20;}
	.st3{clip-path:url(#SVGID_2_);}
	.st4{fill:#F2AF55;}
	.st5{fill:#FFD150;}
	.st6{fill:none;}
	.st7{fill:#AFE0ED;}
	.st8{fill:#8ECC94;}
	.st9{fill:#A4F6FF;}
	.st10{fill:#FFFFFF;}
	.st11{fill:#5BA486;}
	.st12{fill:#5FB18E;}
	.st13{fill:#80EAED;}
	.st14{fill:#AFEFEF;}
	.st15{fill:#92D5DE;}
	.st16{fill:#82B686;}
	.st17{fill:#7DAE81;}
	.st18{fill:#E3705E;}
	.st19{fill:#DC4F65;}
	.st20{fill:#ED915C;}
	.st21{fill:#E5705F;}
	.st22{fill:#47372E;}
	.st23{fill:#563E32;}
	.st24{fill:#F4B155;}
	.st25{fill:#FFD250;}
	.st26{fill:#4A355B;}
	.st27{fill:#C3C3C4;}
	.st28{fill:#A9CF49;}
	.st29{fill:#BCBDBF;}
	.st30{fill:#929497;}
	.st31{fill:#9AC54A;}
	.st32{fill:#A83583;}
	.st33{opacity:0.25;}
	.st34{opacity:0.1;}
</style>
<g>
	<g id="Layer_2_1_">
		<g id="Layer_1-2">
			<path class="st0" d="M235.4,14.5v352.9c-0.2,8.1-6.9,14.6-15,14.5H15c-8.3,0-15-6.5-15-14.5V14.5C0,6.5,6.7,0,15,0h205.4
				C228.7,0,235.4,6.5,235.4,14.5z M222.8,358.9V22.9c0-6-4.8-10.8-10.8-10.9H23.5c-6,0-10.8,4.9-10.8,10.8c0,0,0,0,0,0v336.1
				c0,6,4.9,10.8,10.8,10.8H212C218,369.7,222.8,364.9,222.8,358.9z"/>
			<path class="st1" d="M23.5,12H212c6,0,10.8,4.8,10.8,10.8v336.1c0,6-4.8,10.8-10.8,10.8H23.5c-6,0-10.8-4.8-10.8-10.8V22.9
				C12.6,16.9,17.5,12,23.5,12z"/>
			<path class="st2" d="M25.9,329.3c-0.1-0.1-0.2-0.3-0.2-0.5v-11c0-0.2,0-0.4,0.2-0.5c0.1-0.1,0.3-0.2,0.5-0.2H34
				c0.3-0.1,0.6,0.1,0.6,0.4c0,0.1,0,0.2,0,0.2v0.5c0,0.2,0,0.4-0.1,0.5c-0.1,0.1-0.3,0.2-0.5,0.1h-6v3.5h4.3c0.2,0,0.4,0,0.5,0.1
				c0.1,0.1,0.2,0.3,0.2,0.5v0.5c0.1,0.3-0.1,0.6-0.4,0.7c-0.1,0-0.2,0-0.2,0H28v3.5h5.9c0.3-0.1,0.6,0.1,0.7,0.4c0,0.1,0,0.2,0,0.2
				v0.5c0,0.2,0,0.3-0.2,0.5c-0.1,0.1-0.3,0.2-0.5,0.1h-7.5C26.2,329.5,26,329.5,25.9,329.3z"/>
			<path class="st2" d="M36.3,329.3c-0.1-0.1-0.2-0.3-0.2-0.5v-11c0-0.2,0-0.4,0.2-0.5c0.1-0.1,0.3-0.2,0.5-0.2h1
				c0.2,0,0.4,0,0.5,0.2c0.1,0.1,0.2,0.3,0.2,0.5v11c0,0.2,0,0.4-0.2,0.5c-0.2,0.1-0.3,0.2-0.5,0.2h-1
				C36.7,329.5,36.5,329.4,36.3,329.3z"/>
			<path class="st2" d="M42,328.1c-2.3-2.8-2.3-6.8,0-9.5c1.3-1.2,3-1.8,4.8-1.7c0.8,0,1.6,0.1,2.3,0.3c0.6,0.1,1.2,0.4,1.8,0.7
				c0.1,0,0.1,0.1,0.2,0.2c0,0.1,0,0.2-0.1,0.2l-0.5,0.9c-0.1,0.1-0.1,0.2-0.2,0.2c-0.1,0-0.2,0-0.2-0.1c-0.9-0.5-1.9-0.7-3-0.7
				c-1.2-0.1-2.4,0.4-3.2,1.2c-0.9,1-1.3,2.3-1.2,3.5c-0.1,1.3,0.3,2.6,1.1,3.6c0.8,0.8,2,1.2,3.2,1.1c0.5,0,1,0,1.4-0.1
				c0.4-0.1,0.8-0.2,1.1-0.3v-3.4H47c-0.2,0-0.4,0-0.5-0.2c-0.1-0.1-0.2-0.3-0.2-0.5v-0.5c0-0.2,0-0.3,0.2-0.5
				c0.1-0.1,0.3-0.2,0.5-0.1h3.8c0.2,0,0.4,0.1,0.6,0.2c0.1,0.2,0.2,0.4,0.2,0.6v4.8c0,0.1,0,0.3-0.1,0.4c0,0.1-0.1,0.2-0.2,0.2
				c-1.4,0.8-3,1.1-4.5,1.1C45,329.8,43.3,329.2,42,328.1z"/>
			<path class="st2" d="M53.5,329.3c-0.1-0.1-0.2-0.3-0.2-0.5v-11c0-0.2,0-0.4,0.2-0.5c0.1-0.1,0.3-0.2,0.5-0.2h1
				c0.2,0,0.4,0,0.5,0.2c0.1,0.1,0.2,0.3,0.2,0.5v4.6h6v-4.6c0-0.2,0-0.4,0.2-0.5c0.1-0.1,0.3-0.2,0.5-0.2h1c0.2,0,0.4,0,0.5,0.2
				c0.1,0.1,0.2,0.3,0.2,0.5v11c0,0.2,0,0.4-0.2,0.5c-0.1,0.1-0.3,0.2-0.5,0.2h-1c-0.2,0-0.4,0-0.5-0.2c-0.1-0.1-0.2-0.3-0.2-0.5
				v-4.7h-6v4.7c0,0.2,0,0.4-0.2,0.5c-0.2,0.1-0.3,0.2-0.5,0.2h-1C53.9,329.5,53.7,329.4,53.5,329.3z"/>
			<path class="st2" d="M69.4,329.3c-0.1-0.1-0.2-0.3-0.2-0.5v-9.9h-3.2c-0.2,0-0.4,0-0.5-0.1c-0.1-0.1-0.1-0.3-0.1-0.5v-0.5
				c0-0.2,0-0.4,0.1-0.5c0.1-0.1,0.3-0.2,0.5-0.1h8.7c0.2,0,0.4,0,0.5,0.1c0.1,0.1,0.2,0.3,0.2,0.5v0.5c0,0.2,0,0.4-0.2,0.5
				c-0.1,0.1-0.3,0.2-0.5,0.1h-3.2v9.9c0,0.2,0,0.4-0.2,0.5c-0.2,0.1-0.3,0.2-0.5,0.2H70C69.8,329.5,69.6,329.5,69.4,329.3z"/>
			<path class="st2" d="M85.2,328.1c-2.1-2.8-2.1-6.7,0-9.5c2.7-2.3,6.6-2.3,9.2,0c2.2,2.8,2.2,6.7,0,9.5
				C91.7,330.3,87.8,330.3,85.2,328.1z M92.7,326.8c1.3-2.2,1.3-4.9,0-7.1c-0.7-0.8-1.8-1.3-2.9-1.2c-1.1-0.1-2.2,0.4-2.9,1.2
				c-1.3,2.2-1.3,4.9,0,7.1c0.7,0.8,1.8,1.3,2.9,1.2C90.9,328.1,92,327.7,92.7,326.8z"/>
			<path class="st2" d="M97.9,329.3c-0.1-0.1-0.2-0.3-0.2-0.5v-11c0-0.2,0-0.4,0.2-0.5c0.1-0.1,0.3-0.2,0.5-0.2h7.5
				c0.3-0.1,0.6,0.1,0.6,0.4c0,0.1,0,0.2,0,0.2v0.5c0,0.2,0,0.4-0.1,0.5c-0.1,0.1-0.3,0.2-0.5,0.1h-5.9v3.5h4.3c0.2,0,0.4,0,0.5,0.1
				c0.1,0.1,0.2,0.3,0.2,0.5v0.5c0.1,0.3-0.1,0.6-0.4,0.7c-0.1,0-0.2,0-0.2,0h-4.3v4.6c0,0.2,0,0.4-0.2,0.5
				c-0.2,0.1-0.3,0.2-0.5,0.2h-1C98.2,329.5,98.1,329.4,97.9,329.3z"/>
			<path class="st2" d="M115.3,329.3c-0.1-0.1-0.2-0.3-0.2-0.5v-11c0-0.2,0-0.4,0.2-0.5c0.1-0.1,0.3-0.2,0.5-0.2h4.7
				c1.2-0.1,2.4,0.3,3.3,1.1c0.8,0.8,1.2,1.9,1.1,3c0.1,1.1-0.3,2.2-1.1,3c-0.9,0.8-2.1,1.1-3.3,1h-3v3.5c0,0.2,0,0.4-0.2,0.5
				c-0.2,0.1-0.3,0.2-0.5,0.2h-1C115.6,329.5,115.5,329.4,115.3,329.3z M120.4,323.5c0.6,0,1.2-0.1,1.6-0.5c0.4-0.5,0.6-1.1,0.6-1.7
				c0-0.6-0.1-1.3-0.6-1.8c-0.4-0.4-1-0.6-1.7-0.6h-2.9v4.6L120.4,323.5z"/>
			<path class="st2" d="M126.5,329.3c-0.1-0.1-0.2-0.3-0.2-0.5v-11c0-0.2,0-0.4,0.2-0.5c0.1-0.1,0.3-0.2,0.5-0.2h7.6
				c0.3-0.1,0.6,0.1,0.6,0.4c0,0.1,0,0.2,0,0.2v0.5c0,0.2,0,0.4-0.1,0.5c-0.1,0.1-0.3,0.2-0.5,0.1h-5.9v3.5h4.3c0.2,0,0.4,0,0.5,0.1
				c0.1,0.1,0.2,0.3,0.1,0.5v0.5c0,0.2,0,0.4-0.1,0.5c-0.1,0.1-0.3,0.2-0.5,0.1h-4.3v3.5h5.9c0.3-0.1,0.6,0.1,0.7,0.4
				c0,0.1,0,0.2,0,0.2v0.5c0,0.2,0,0.3-0.1,0.5c-0.1,0.1-0.3,0.2-0.5,0.1H127C126.8,329.5,126.6,329.5,126.5,329.3z"/>
			<path class="st2" d="M136.9,329.3c-0.1-0.1-0.2-0.3-0.1-0.5v-11c0-0.2,0-0.4,0.1-0.5c0.2-0.1,0.3-0.2,0.5-0.2h0.8
				c0.1,0,0.3,0,0.4,0.1c0.1,0.1,0.2,0.2,0.3,0.3l6,8.3v-8c0-0.2,0-0.4,0.1-0.5c0.1-0.1,0.3-0.2,0.5-0.2h1c0.2,0,0.4,0,0.5,0.2
				c0.1,0.1,0.2,0.3,0.2,0.5v11c0,0.2,0,0.4-0.1,0.5c-0.2,0.1-0.3,0.2-0.5,0.2h-0.9c-0.1,0-0.3,0-0.4-0.1c-0.1-0.1-0.2-0.2-0.3-0.3
				l-6-8.3v8c0,0.2,0,0.4-0.1,0.5c-0.2,0.1-0.3,0.2-0.5,0.2h-1C137.3,329.5,137.1,329.5,136.9,329.3z"/>
			<path class="st2" d="M152.7,329.3c-0.1-0.1-0.2-0.3-0.2-0.5v-9.9h-3.2c-0.2,0-0.4,0-0.5-0.1c-0.1-0.1-0.2-0.3-0.1-0.5v-0.5
				c0-0.2,0-0.4,0.1-0.5c0.1-0.1,0.3-0.2,0.5-0.1h8.7c0.3-0.1,0.6,0.1,0.6,0.4c0,0.1,0,0.2,0,0.2v0.5c0,0.2,0,0.4-0.1,0.5
				c-0.1,0.1-0.3,0.2-0.5,0.1h-3.2v9.9c0,0.2,0,0.4-0.2,0.5c-0.1,0.1-0.3,0.2-0.5,0.2h-1C153,329.5,152.9,329.4,152.7,329.3z"/>
			<path class="st2" d="M157.5,329.2c0-0.1,0-0.2,0-0.2l4.8-11.4c0-0.1,0.1-0.3,0.2-0.4c0.1-0.1,0.2-0.1,0.4-0.1h1
				c0.1,0,0.3,0,0.4,0.1c0.1,0.1,0.2,0.2,0.2,0.4l4.8,11.4c0,0.1,0.1,0.2,0.1,0.2c0,0.2-0.1,0.3-0.3,0.3h-1.6c-0.1,0-0.2,0-0.3-0.1
				c-0.1-0.1-0.2-0.2-0.2-0.3l-1-2.5h-5l-1,2.5c0,0.1-0.1,0.2-0.2,0.3c-0.1,0-0.2,0.1-0.3,0.1h-1.6
				C157.6,329.5,157.5,329.4,157.5,329.2z M165.4,324.9l-1.9-4.8l-1.9,4.8H165.4z"/>
			<path class="st2" d="M171.5,328.1c-1.2-1.3-1.8-3-1.7-4.8c-0.1-1.8,0.5-3.5,1.7-4.8c1.3-1.2,3-1.8,4.8-1.7c0.8,0,1.5,0.1,2.3,0.3
				c0.6,0.1,1.2,0.4,1.8,0.7c0.1,0,0.1,0.1,0.2,0.2c0,0.1,0,0.2-0.1,0.3l-0.5,0.9c-0.1,0.1-0.1,0.2-0.2,0.2c-0.1,0-0.2,0-0.3-0.1
				c-0.9-0.5-1.9-0.7-2.9-0.7c-1.2-0.1-2.4,0.4-3.2,1.2c-0.8,1-1.3,2.3-1.2,3.5c-0.1,1.3,0.3,2.6,1.2,3.6c0.9,0.8,2,1.2,3.2,1.2
				c1.1,0,2.2-0.2,3.1-0.7c0.1,0,0.2-0.1,0.2-0.1c0.1,0,0.1,0,0.2,0.2l0.6,1c0,0.1,0,0.1,0.1,0.2c0,0.1-0.1,0.1-0.2,0.2
				c-1.3,0.8-2.8,1.1-4.2,1C174.6,329.9,172.8,329.3,171.5,328.1z"/>
			<path class="st2" d="M182.7,329.3c-0.1-0.1-0.2-0.3-0.1-0.5v-11c0-0.2,0-0.4,0.1-0.5c0.1-0.1,0.3-0.2,0.5-0.2h1
				c0.2,0,0.4,0,0.5,0.2c0.1,0.1,0.2,0.3,0.2,0.5v9.9h5.6c0.3-0.1,0.6,0.1,0.6,0.4c0,0.1,0,0.2,0,0.2v0.5c0,0.2,0,0.3-0.1,0.5
				c-0.1,0.1-0.3,0.2-0.5,0.1h-7.2C183,329.5,182.8,329.5,182.7,329.3z"/>
			<path class="st2" d="M192.4,329.3c-0.1-0.1-0.2-0.3-0.1-0.5v-11c0-0.2,0-0.4,0.1-0.5c0.1-0.1,0.3-0.2,0.5-0.2h7.6
				c0.2,0,0.4,0,0.5,0.1c0.1,0.1,0.1,0.3,0.1,0.5v0.5c0,0.2,0,0.4-0.1,0.5c-0.1,0.1-0.3,0.2-0.5,0.1h-5.9v3.5h4.3
				c0.2,0,0.4,0,0.5,0.1c0.1,0.1,0.2,0.3,0.1,0.5v0.5c0,0.2,0,0.4-0.1,0.5c-0.1,0.1-0.3,0.2-0.5,0.1h-4.3v3.5h5.9
				c0.2,0,0.4,0,0.5,0.1c0.1,0.1,0.2,0.3,0.1,0.5v0.5c0,0.2,0,0.3-0.1,0.5c-0.1,0.1-0.3,0.2-0.5,0.1h-7.6
				C192.7,329.5,192.5,329.5,192.4,329.3z"/>
			<path class="st2" d="M204.6,329.5c-0.7-0.1-1.4-0.4-2-0.8c-0.1-0.1-0.2-0.2-0.2-0.3c0-0.1,0-0.2,0.1-0.2l0.6-0.9
				c0.1-0.1,0.1-0.2,0.2-0.2c0.1,0,0.2,0,0.2,0.1c0.5,0.3,1,0.5,1.6,0.6c0.6,0.2,1.2,0.2,1.8,0.2c0.6,0,1.3-0.1,1.9-0.4
				c0.7-0.5,0.8-1.5,0.4-2.2c-0.2-0.2-0.4-0.4-0.7-0.6c-0.5-0.2-1-0.4-1.5-0.6l-0.4-0.2c-0.7-0.3-1.3-0.6-1.9-0.9
				c-0.5-0.3-0.9-0.7-1.3-1.1c-0.3-0.5-0.5-1.1-0.5-1.7c0-1,0.4-2,1.3-2.6c1-0.6,2.1-1,3.3-0.9c0.7,0,1.5,0.1,2.2,0.2
				c0.6,0.1,1.1,0.4,1.6,0.7c0.1,0.1,0.2,0.2,0.2,0.3c0,0.1,0,0.1-0.1,0.2l-0.6,0.9c-0.1,0.1-0.1,0.2-0.2,0.2
				c-0.1,0-0.2-0.1-0.2-0.1c-0.9-0.5-1.9-0.8-2.9-0.8c-0.6,0-1.2,0.1-1.7,0.4c-0.4,0.3-0.6,0.8-0.6,1.3c0,0.3,0.1,0.6,0.2,0.9
				c0.2,0.2,0.4,0.4,0.7,0.6c0.3,0.2,0.8,0.4,1.5,0.6l0.4,0.2c0.7,0.3,1.4,0.6,2.1,1c0.5,0.3,0.9,0.7,1.1,1.1
				c0.3,0.5,0.4,1.1,0.4,1.7c0,1-0.4,1.9-1.2,2.5c-1,0.7-2.2,1-3.3,0.9C206.2,329.8,205.4,329.7,204.6,329.5z"/>
			<g>
				<defs>
					<path id="SVGID_1_" d="M53.1,44.1h129.2c13.7,0,24.8,11.1,24.8,24.8v192.6c0,13.7-11.1,24.8-24.8,24.8H53.1
						c-13.7,0-24.8-11.1-24.8-24.8V68.9C28.3,55.2,39.4,44.1,53.1,44.1z"/>
				</defs>
				<clipPath id="SVGID_2_">
					<use xlink:href="#SVGID_1_"  style="overflow:visible;"/>
				</clipPath>
				<g class="st3">
					<path class="st4" d="M138.4,126.1c-0.8,0-1.4,0.6-1.4,1.4l0,0h2.8C139.8,126.7,139.2,126.1,138.4,126.1
						C138.4,126.1,138.4,126.1,138.4,126.1z"/>
					<path class="st5" d="M136.2,104.7C136.2,104.8,136.2,104.8,136.2,104.7L136.2,104.7z"/>
					<rect x="30.2" y="39.8" class="st6" width="150" height="249.3"/>
					<rect x="14.1" y="43.7" class="st7" width="203.6" height="159.6"/>
					<rect x="10.5" y="154.1" class="st8" width="207.1" height="127"/>
					<rect x="20.2" y="32.1" class="st9" width="194.5" height="154.6"/>
					<path class="st10" d="M21.8,163.7h67.6c4.8,0,8.7,3.9,8.7,8.7l0,0c0,4.8-3.9,8.7-8.7,8.7H21.8c-4.8,0-8.7-3.9-8.7-8.7l0,0
						C13.1,167.6,17,163.7,21.8,163.7z"/>
					<circle class="st10" cx="47.1" cy="159.4" r="21.7"/>
					<circle class="st10" cx="70.9" cy="165.7" r="15.5"/>
					<path class="st10" d="M190,131.2h28.6c2,0,3.7-1.7,3.7-3.7l0,0c0-2-1.7-3.7-3.7-3.7H190c-2,0-3.7,1.7-3.7,3.7l0,0
						C186.3,129.5,188,131.2,190,131.2z"/>
					<circle class="st10" cx="208" cy="122" r="9.2"/>
					<circle class="st10" cx="197.9" cy="124.7" r="6.5"/>
					<path class="st10" d="M71.8,131.4h-66c-4.7,0-8.5-3.8-8.5-8.5l0,0c0-4.7,3.8-8.5,8.5-8.5h66c4.7,0,8.5,3.8,8.5,8.5l0,0
						C80.3,127.6,76.5,131.4,71.8,131.4z"/>
					<circle class="st10" cx="30.4" cy="110.2" r="21.2"/>
					<circle class="st10" cx="53.7" cy="116.3" r="15.1"/>
					<path class="st11" d="M26.4,111l18.8-9.7l31.9,6.1l19-7.1c2.8-1.1,6-1.2,8.9-0.2l29.1,9l19.8-10.4c3-1.6,6.6-1.8,9.8-0.6
						l39.1,14.4v35.3H26.4V111z"/>
					<path class="st10" d="M143.8,95.8h28c2,0,3.6-1.6,3.6-3.6l0,0c0-2-1.6-3.6-3.6-3.6h-28c-2,0-3.6,1.6-3.6,3.6l0,0
						C140.2,94.2,141.8,95.8,143.8,95.8z"/>
					<circle class="st10" cx="161.4" cy="86.9" r="9"/>
					<circle class="st10" cx="151.5" cy="89.4" r="6.4"/>
					<path class="st12" d="M18.7,120.1L65.8,101l37.8,15l28.5-15.5c3.3-1.8,7.2-2.2,10.8-1l38,12.2l29.3-12.2V150H18.7V120.1z"/>
					<rect x="-5.4" y="127.2" class="st13" width="259.9" height="41.8"/>
					<path class="st14" d="M63.3,133.8h-28c-0.7,0-1.3-0.6-1.3-1.3l0,0c0-0.7,0.6-1.3,1.3-1.3h28c0.7,0,1.3,0.6,1.3,1.3l0,0
						C64.6,133.2,64.1,133.8,63.3,133.8C63.3,133.8,63.3,133.8,63.3,133.8z"/>
					<path class="st14" d="M87.1,147.1h-28c-0.7,0-1.3-0.6-1.3-1.3l0,0c0-0.7,0.6-1.3,1.3-1.3h28c0.7,0,1.3,0.6,1.3,1.3l0,0
						C88.5,146.5,87.9,147.1,87.1,147.1z"/>
					<path class="st15" d="M175.7,156.8h-28c-0.7,0-1.3-0.6-1.3-1.3v0l0,0c0-0.7,0.6-1.3,1.3-1.3h28c0.7,0,1.3,0.6,1.3,1.3l0,0
						C177,156.2,176.4,156.8,175.7,156.8L175.7,156.8z"/>
					<path class="st15" d="M206.8,151.2h-28c-0.7,0-1.3-0.6-1.3-1.3l0,0c0-0.7,0.6-1.3,1.3-1.3h28c0.7,0,1.3,0.6,1.3,1.3l0,0
						C208.1,150.6,207.5,151.2,206.8,151.2z"/>
					<path class="st15" d="M199.5,140.4h-28c-0.7,0-1.3-0.6-1.3-1.3l0,0c0-0.7,0.6-1.3,1.3-1.3h28c0.7,0,1.3,0.6,1.3,1.3l0,0
						C200.8,139.8,200.2,140.4,199.5,140.4L199.5,140.4z"/>
					<path class="st15" d="M216.9,133.8h-28c-0.7,0-1.3-0.6-1.3-1.3l0,0c0-0.7,0.6-1.3,1.3-1.3h28c0.7,0,1.3,0.6,1.3,1.3l0,0
						C218.2,133.2,217.6,133.8,216.9,133.8z"/>
					<path class="st14" d="M149.3,147.1h-28c-0.7,0-1.3-0.6-1.3-1.3l0,0l0,0c0-0.7,0.6-1.3,1.3-1.3h28c0.7,0,1.3,0.6,1.3,1.3l0,0
						C150.6,146.5,150,147.1,149.3,147.1L149.3,147.1z"/>
					<path class="st14" d="M172.4,138.9h-28c-0.7,0-1.3-0.6-1.3-1.3l0,0c0-0.7,0.6-1.3,1.3-1.3h0h28c0.7,0,1.3,0.6,1.3,1.3v0l0,0
						C173.7,138.3,173.2,138.9,172.4,138.9z"/>
					<path class="st14" d="M144.7,132.6h-28c-0.7,0-1.3-0.6-1.3-1.3l0,0c0-0.7,0.6-1.3,1.3-1.3h28c0.7,0,1.3,0.6,1.3,1.3l0,0
						C146,132,145.4,132.6,144.7,132.6z"/>
					<path class="st14" d="M114.6,138h-28c-0.7,0-1.3-0.6-1.3-1.3l0,0c0-0.7,0.6-1.3,1.3-1.3h28c0.7,0,1.3,0.6,1.3,1.3l0,0
						C116,137.4,115.4,138,114.6,138z"/>
					<path class="st14" d="M117.3,155.5h-28c-0.7,0-1.3-0.6-1.3-1.3l0,0c0-0.7,0.6-1.3,1.3-1.3h28c0.7,0,1.3,0.6,1.3,1.3l0,0
						C118.7,154.9,118.1,155.5,117.3,155.5C117.3,155.5,117.3,155.5,117.3,155.5z"/>
					<path class="st15" d="M36.2,155.5h-28c-0.7,0-1.3-0.6-1.3-1.3l0,0c0-0.7,0.6-1.3,1.3-1.3h28c0.7,0,1.3,0.6,1.3,1.3l0,0
						C37.6,154.9,37,155.5,36.2,155.5z"/>
					<path class="st15" d="M63.3,141.8h-28c-0.7,0-1.3-0.6-1.3-1.3l0,0c0-0.7,0.6-1.3,1.3-1.3h28c0.7,0,1.3,0.6,1.3,1.3l0,0
						C64.7,141.2,64.1,141.8,63.3,141.8C63.3,141.8,63.3,141.8,63.3,141.8z"/>
					<rect x="51.2" y="34.8" class="st6" width="129.1" height="227.4"/>
					<ellipse class="st16" cx="11.2" cy="172.8" rx="84" ry="51.7"/>
					<ellipse class="st16" cx="222.3" cy="165.5" rx="80.4" ry="49.5"/>
					<rect x="16.8" y="162" class="st8" width="197.9" height="100.1"/>
					<rect x="50.6" y="32.4" class="st6" width="138.3" height="229.7"/>
					<path class="st6" d="M55.4,34.4h129.2c13.7,0,24.8,11.1,24.8,24.8v192.6c0,13.7-11.1,24.8-24.8,24.8H55.4
						c-13.7,0-24.8-11.1-24.8-24.8V59.2C30.5,45.5,41.6,34.4,55.4,34.4z"/>
					<path class="st17" d="M140,228.8h-39.6c-2.1,0-3.8-1.7-3.8-3.8l0,0c0-2.1,1.7-3.8,3.8-3.8H140c2.1,0,3.8,1.7,3.8,3.8l0,0
						C143.8,227.1,142.1,228.8,140,228.8z"/>
					<path class="st5" d="M133.7,223.5l-0.5-0.6c-0.3-0.3-0.7-0.6-1.1-0.6l-2.6-0.6V187c-0.1-1.9-1.8-3.4-3.8-3.2
						c-1.7,0.1-3.1,1.5-3.2,3.2v34c-0.5,0.4-0.8,1-0.8,1.7v2.3c0,1.2,0.9,2.1,2.1,2.1c0,0,0,0,0,0h8.4c1.2,0,2.1-0.9,2.1-2
						C134.4,224.4,134.1,223.9,133.7,223.5z"/>
					<path class="st18" d="M129.1,206.6h-6.4c-0.3,0-0.6-0.3-0.6-0.6v-0.2c0-0.3,0.3-0.6,0.6-0.6h6.4c0.3,0,0.6,0.3,0.6,0.6v0.2
						C129.7,206.4,129.4,206.6,129.1,206.6z"/>
					<path class="st18" d="M129.2,214.7l-0.2,0.1c-0.3,0.2-0.7,0.2-0.9-0.1l-5.7-7.6c-0.2-0.3-0.2-0.7,0.1-0.9l0.2-0.1
						c0.3-0.2,0.7-0.2,0.9,0.1l5.7,7.6C129.6,214,129.5,214.5,129.2,214.7z"/>
					<path class="st18" d="M129,206l0.1,0.1c0.3,0.2,0.3,0.6,0.1,0.8l-5.8,7.7c-0.2,0.3-0.6,0.3-0.8,0.1l-0.1-0.1
						c-0.3-0.2-0.3-0.6-0.1-0.8l5.8-7.7C128.4,205.9,128.7,205.8,129,206z"/>
					<path class="st18" d="M129.2,222.3l-0.2,0.1c-0.3,0.2-0.7,0.2-0.9-0.1l-5.7-7.6c-0.2-0.3-0.2-0.7,0.1-0.9l0.2-0.1
						c0.3-0.2,0.7-0.2,0.9,0.1l5.7,7.6C129.6,221.6,129.5,222.1,129.2,222.3z"/>
					<path class="st18" d="M129.1,213.6l0.2,0.1c0.3,0.2,0.4,0.6,0.1,0.9l-5.7,7.6c-0.2,0.3-0.6,0.4-0.9,0.1l-0.2-0.1
						c-0.3-0.2-0.4-0.6-0.1-0.9l5.7-7.6C128.4,213.5,128.8,213.4,129.1,213.6z"/>
					<path class="st18" d="M132.2,226.6h-0.1c-0.3,0-0.6-0.2-0.6-0.6v-3.3c0-0.3,0.2-0.6,0.6-0.6h0.1c0.3,0,0.5,0.2,0.5,0.6v3.3
						C132.8,226.4,132.5,226.6,132.2,226.6z"/>
					<path class="st18" d="M129.8,226.6h-0.1c-0.3,0-0.6-0.2-0.6-0.6v-3.9c0-0.3,0.2-0.6,0.6-0.6h0.1c0.3,0,0.5,0.2,0.5,0.6v3.9
						C130.3,226.4,130.1,226.6,129.8,226.6z"/>
					<path class="st18" d="M129.1,222.8h-6.1c-0.3,0-0.6-0.3-0.6-0.6v-0.2c0-0.3,0.3-0.6,0.6-0.6h6.1c0.3,0,0.6,0.3,0.6,0.6v0.2
						C129.7,222.6,129.4,222.8,129.1,222.8z"/>
					<path class="st18" d="M121.6,225.9h12.1c0.3,0,0.6,0.3,0.6,0.6v0.2c0,0.3-0.3,0.6-0.6,0.6h-12.1c-0.3,0-0.6-0.3-0.6-0.6v-0.2
						C121.1,226.2,121.3,225.9,121.6,225.9z"/>
					<path class="st5" d="M115.2,220.9V187c-0.1-1.9-1.8-3.4-3.8-3.2c-1.7,0.1-3.1,1.5-3.2,3.2v34.6c0,0,0,0.1,0,0.1l-2.6,0.6
						c-0.4,0.1-0.8,0.3-1.1,0.6l-0.5,0.6c-0.8,0.9-0.7,2.2,0.2,3c0.4,0.3,0.9,0.5,1.4,0.5h8.4c1.2,0,2.1-0.9,2.1-2.1c0,0,0,0,0,0
						v-2.3C116,222,115.7,221.3,115.2,220.9z"/>
					<path class="st18" d="M108.6,205.3h6.4c0.3,0,0.6,0.3,0.6,0.6v0.2c0,0.3-0.3,0.6-0.6,0.6h-6.4c-0.3,0-0.6-0.3-0.6-0.6v-0.2
						C108,205.5,108.2,205.3,108.6,205.3z"/>
					<path class="st18" d="M115,206l0.2,0.1c0.3,0.2,0.4,0.6,0.1,0.9l-5.7,7.6c-0.2,0.3-0.6,0.4-0.9,0.1l-0.2-0.1
						c-0.3-0.2-0.4-0.6-0.1-0.9l5.7-7.6C114.3,205.9,114.7,205.8,115,206z"/>
					<path class="st18" d="M115.1,214.7l-0.2,0.1c-0.3,0.2-0.7,0.2-0.9-0.1l-5.7-7.6c-0.2-0.3-0.2-0.7,0.1-0.9l0.2-0.1
						c0.3-0.2,0.7-0.2,0.9,0.1l5.7,7.6C115.5,214,115.4,214.5,115.1,214.7z"/>
					<path class="st18" d="M115,213.6l0.2,0.1c0.3,0.2,0.4,0.6,0.1,0.9l-5.7,7.6c-0.2,0.3-0.6,0.4-0.9,0.1l-0.2-0.1
						c-0.3-0.2-0.4-0.6-0.1-0.9l5.7-7.6C114.3,213.5,114.7,213.4,115,213.6z"/>
					<path class="st18" d="M115.6,221.2l-0.2,0.1c-0.3,0.2-0.7,0.2-0.9-0.1l-5.7-7.6c-0.2-0.3-0.2-0.7,0.1-0.9l0.2-0.1
						c0.3-0.2,0.7-0.2,0.9,0.1l5.7,7.6C116,220.6,115.9,221,115.6,221.2z"/>
					<path class="st18" d="M105.5,221.8h0.1c0.3,0,0.6,0.2,0.6,0.6v3.3c0,0.3-0.2,0.6-0.6,0.6h-0.1c-0.3,0-0.6-0.2-0.6-0.6v-3.3
						C104.9,222.1,105.1,221.8,105.5,221.8z"/>
					<path class="st18" d="M107.9,221.5h0.1c0.3,0,0.6,0.2,0.6,0.6v3.7c0,0.3-0.2,0.6-0.6,0.6h-0.1c-0.3,0-0.6-0.2-0.6-0.6V222
						C107.4,221.7,107.6,221.5,107.9,221.5z"/>
					<path class="st18" d="M108.6,221.5h6.1c0.3,0,0.6,0.3,0.6,0.6v0.2c0,0.3-0.3,0.6-0.6,0.6h-6.1c-0.3,0-0.6-0.3-0.6-0.6v-0.2
						C108,221.7,108.3,221.5,108.6,221.5z"/>
					<path class="st18" d="M103.7,225.9h12.1c0.3,0,0.6,0.3,0.6,0.6v0.2c0,0.3-0.3,0.6-0.6,0.6h-12.1c-0.3,0-0.6-0.3-0.6-0.6v-0.2
						C103.1,226.2,103.4,225.9,103.7,225.9z"/>
					<path class="st18" d="M115.7,227.2h-0.2c-0.4,0-0.6-0.3-0.6-0.6v-5c0-0.4,0.3-0.6,0.6-0.6h0.2c0.4,0,0.6,0.3,0.6,0.6v5
						C116.3,226.9,116,227.2,115.7,227.2z"/>
					<path class="st18" d="M121.6,220.9h0.2c0.4,0,0.6,0.3,0.6,0.6v5.1c0,0.4-0.3,0.6-0.6,0.6h-0.2c-0.4,0-0.6-0.3-0.6-0.6v-5.1
						C121,221.1,121.3,220.9,121.6,220.9z"/>
					<path class="st19" d="M103.6,169.3h32.1c1.1,0,2,0.9,2,2v0.6c0,1.1-0.9,2-2,2h-32.1c-1.1,0-2-0.9-2-2v-0.6
						C101.6,170.2,102.5,169.3,103.6,169.3z"/>
					<path class="st5" d="M117.6,142.5h2.3c6.7,0,12.1,5.4,12.1,12.1v26.3c0,6.7-5.4,12.1-12.1,12.1h-2.3c-6.7,0-12.1-5.4-12.1-12.1
						v-26.3C105.4,147.9,110.9,142.5,117.6,142.5z"/>
					<path class="st5" d="M120.1,151.4c4.1,0,7.8-2.4,9.4-6.2c-2.6-2.2-6-3.4-9.4-3.4h-2.8c-2.5,0-4.9,0.6-7.1,1.9
						C111.3,148.3,115.4,151.4,120.1,151.4z"/>
					<path class="st20" d="M107.4,157.4v-11.6c-3.1,2.8-4.8,6.7-4.8,10.9V193h4.9L107.4,157.4L107.4,157.4z"/>
					<path class="st20" d="M132.8,149.1v8.3l0,0V193h2.1v-36.4C134.9,154,134.1,151.4,132.8,149.1z"/>
					<path class="st20" d="M127.2,154.8v-6.2c-4,3.8-10.3,3.8-14.2-0.1v6.3H127.2z"/>
					<path class="st21" d="M129.5,145.3c-0.7-0.6-1.5-1.2-2.3-1.6v11.1H113v-12.1c-1.1,0.3-2.1,0.7-3.1,1.2l0,0
						c-0.9,0.5-1.8,1.2-2.5,1.9v11.6l0,0V193h25.3v-43.9C131.9,147.7,130.8,146.4,129.5,145.3z"/>
					<path class="st22" d="M119.7,150.7L119.7,150.7c0.1,0,0.1,0,0.1,0.1v0c0,0.1,0,0.1-0.1,0.1h0c-0.1,0-0.1,0-0.1-0.1v0
						C119.5,150.7,119.6,150.7,119.7,150.7z"/>
					<rect x="67.6" y="181.5" class="st22" width="99.8" height="6.1"/>
					<rect x="67.6" y="168.1" class="st23" width="99.8" height="16.5"/>
					<path class="st24" d="M132.3,171.3c0.6,0.7,0.9,1.6,0.9,2.6v-5.1C133.2,169.6,132.9,170.5,132.3,171.3z"/>
					<path class="st24" d="M119.3,175.8c-5.8,0-10.8-1.8-12.9-4.4l0.1-0.1c-0.6-0.7-0.9-1.6-0.9-2.6v4.1c-0.1,0.3-0.1,0.7-0.1,1
						c0,2,1.7,3.9,4.5,5.2c6,2.5,12.8,2.5,18.9,0c2.8-1.3,4.5-3.1,4.5-5.2c0-0.9-0.4-1.8-0.9-2.6
						C130.2,173.9,125.2,175.8,119.3,175.8z"/>
					<path class="st25" d="M119.3,167.4c3.3,0,6.6,0.6,9.6,2h4.3c0-3.9-6.2-7.1-13.9-7.1s-13.9,3.2-13.9,7.1h4.3
						C112.7,168.1,116,167.4,119.3,167.4z"/>
					<path class="st25" d="M119.3,167.4c-3.3,0-6.6,0.6-9.6,2h19.2C125.9,168.1,122.6,167.4,119.3,167.4z"/>
					<path class="st25" d="M109.7,169.4h-4.3c0,0.9,0.3,1.8,0.9,2.6C107.2,170.8,108.4,170,109.7,169.4z"/>
					<path class="st25" d="M132.2,171.9c0.6-0.7,0.9-1.6,0.9-2.6h-4.3C130.2,170,131.3,170.8,132.2,171.9z"/>
					<path class="st25" d="M128.9,169.4h-19.2c-1.3,0.6-2.5,1.4-3.4,2.6c2,2.6,7,4.5,13,4.5s10.9-1.9,13-4.5
						C131.4,170.8,130.2,169.9,128.9,169.4z"/>
					<ellipse class="st18" cx="119.3" cy="169.4" rx="11.8" ry="6"/>
					<path class="st5" d="M125.6,173.5l-6.3-2.3l-6.3,2.3l2.4-3.7l-6.3-2.3h7.7l2.4-3.7l2.4,3.7h7.7l-6.2,2.3L125.6,173.5z
						 M110.6,167.7l5.4,2l-2.1,3.2l5.4-2l5.4,2l-2-3.2l5.4-2h-6.6l-2-3.2l-2.1,3.2H110.6z"/>
					<path class="st5" d="M119.3,171.2l-3.9-1.4l1.5-2.3h4.8l1.5,2.3L119.3,171.2z M116,169.7l3.3,1.2l3.3-1.2l-1.3-2h-4.1
						L116,169.7z"/>
					
						<rect x="125.1" y="161.7" transform="matrix(0.9504 -0.311 0.311 0.9504 -45.03 47.1949)" class="st22" width="0.7" height="6.2"/>
					<path class="st25" d="M127.2,172.9c-1.9,0-3.5-1.5-3.5-3.5c0-1.1,0.5-2.1,1.3-2.7c4.5-3.6,6.7-7.2,6.6-10.7
						c-0.1-4.9-4.9-8.5-5-8.6c-1.6-1.1-1.9-3.3-0.8-4.9s3.3-1.9,4.9-0.8c0.3,0.2,7.6,5.6,7.9,14.1c0.2,5.8-2.9,11.2-9.2,16.3
						C128.8,172.7,128,172.9,127.2,172.9z"/>
					<rect x="110.2" y="121.1" class="st5" width="18.1" height="12.9"/>
					<polygon class="st22" points="110.3,140.6 108,137.2 108,120.8 110.3,120.8 					"/>
					<polygon class="st22" points="130.4,137.4 127.9,140.6 127.9,120.8 130.4,120.8 					"/>
					<path class="st22" d="M107.7,115.5l6.7-4.3c0.1,0.1,0.1,0.2,0.2,0.3c2.6,3.6,1.7,8.6-1.9,11.2c-3.6,2.6-8.6,1.7-11.2-1.9
						c-0.3-0.4-0.5-0.8-0.7-1.3L107.7,115.5z"/>
					<path class="st22" d="M130.3,117.7l-2.6-3l-0.1,0.1c-1.6,1.5-1.7,4.1-0.1,5.7c1.5,1.6,4.1,1.7,5.7,0.1l0,0L130.3,117.7z"/>
					<path class="st22" d="M122.4,112.3c0,2.9-2.3,5.2-5.2,5.2s-5.2-2.3-5.2-5.2s2.3-5.2,5.2-5.2c0,0,0,0,0,0
						C120.1,107.1,122.4,109.4,122.4,112.3C122.4,112.3,122.4,112.3,122.4,112.3z"/>
					<path class="st22" d="M128.7,113.6c0,2.7-2.2,4.9-4.9,4.9c-2.7,0-4.9-2.2-4.9-4.9c0-2.7,2.2-4.9,4.9-4.9c0,0,0,0,0,0
						C126.5,108.7,128.7,110.9,128.7,113.6z"/>
					<path class="st26" d="M114.3,125.3h0.3c0.5,0,0.9,0.4,0.9,0.9v0.6c0,0.5-0.4,0.9-0.9,0.9h-0.3c-0.5,0-0.9-0.4-0.9-0.9v-0.6
						C113.3,125.8,113.8,125.3,114.3,125.3z"/>
					<path class="st22" d="M112.1,124.4l4.5,0.4c0.4,0,0.7,0.4,0.7,0.8l0,0.2c0,0.4-0.4,0.7-0.8,0.7l-4.5-0.4
						c-0.4,0-0.7-0.4-0.7-0.8l0-0.2C111.3,124.6,111.7,124.3,112.1,124.4z"/>
					<path class="st26" d="M123.4,127.8h-0.3c-0.5,0-0.9-0.4-0.9-0.9v-0.6c0-0.5,0.4-0.9,0.9-0.9h0.3c0.5,0,0.9,0.4,0.9,0.9v0.6
						C124.4,127.4,124,127.8,123.4,127.8z"/>
					<path class="st22" d="M125.8,126.1l-4.5,0.4c-0.4,0-0.8-0.3-0.8-0.7l0-0.2c0-0.4,0.3-0.8,0.7-0.8l4.5-0.4
						c0.4,0,0.8,0.3,0.8,0.7l0,0.2C126.5,125.7,126.2,126.1,125.8,126.1z"/>
					<path class="st4" d="M113.7,163.7l-2.3,0.4c-0.6,0.1-1.1-0.3-1.3-0.9l0,0c-0.1-0.6,0.3-1.1,0.8-1.3c0,0,0,0,0,0l2.3-0.4
						c0.6-0.1,1.1,0.3,1.3,0.9l0,0C114.7,163,114.3,163.6,113.7,163.7C113.7,163.7,113.7,163.7,113.7,163.7z"/>
					<path class="st27" d="M115,153.4c1.4-0.8,3.1-0.7,4.4,0.2l1,0.8c0.1,0,0.1,0.1,0.1,0.2c-0.1,0.5,0.3,1,0.8,1.1
						c0.2,0,0.4,0,0.5-0.1c0.1,0,0.2,0,0.2,0l0.9,0.7c0,0,0.1,0.1,0,0.2c0,0,0,0,0,0l-1.2,1.5c0,0-0.1,0.1-0.2,0c0,0,0,0,0,0
						l-0.9-0.7c-0.1-0.1-0.1-0.1-0.1-0.2c0.1-0.3-0.1-0.7-0.3-0.9h-0.1c-0.4-0.2-0.9-0.1-1.2,0.2l-0.2,0.3l-6.6,8.3l-1.2-0.9
						l6.6-8.4l0.4-0.5c0-1.4-2.1-1.6-3-1.6C115,153.5,114.9,153.5,115,153.4C115,153.4,115,153.4,115,153.4z"/>
					<path class="st22" d="M110.7,164.4l6.8-8.6c0.3-0.3,0.8-0.3,1.1,0l0,0c0.4,0.2,0.5,0.7,0.2,1.1l-6.8,8.6c0,0.3-0.2,0.7-0.4,0.9
						c-0.4,0.5-0.8,0.7-1,0.6l-1.1-0.8c-0.2-0.1,0-0.6,0.3-1.1C110.1,164.7,110.4,164.5,110.7,164.4z"/>
					<path class="st25" d="M112.3,169.4c-0.2,0-0.4,0-0.6,0c-6.8-1.2-11.1-3.9-12.7-8.2c-2.6-6.8,3-13.9,3.7-14.8
						c1.3-1.4,3.5-1.6,5-0.3c1.3,1.2,1.6,3.2,0.5,4.7c-1,1.2-3.5,5.3-2.5,7.9c0.7,1.7,3.3,3.1,7.3,3.8c1.9,0.2,3.4,1.9,3.2,3.8
						S114.2,169.6,112.3,169.4L112.3,169.4z"/>
					<circle class="st5" cx="105.4" cy="145.7" r="7.3"/>
					<circle class="st5" cx="133.2" cy="145.7" r="7.3"/>
					<path class="st22" d="M108,130.9v6.1c0,6.2,5,11.2,11.2,11.2l0,0c6.2,0,11.2-5,11.2-11.2c0,0,0,0,0,0v-6.1L108,130.9z"/>
					<path class="st5" d="M122.2,135.5h-6c-0.8,0-1.5-0.7-1.5-1.5l0,0c0-0.8,0.7-1.5,1.5-1.5h6c0.8,0,1.5,0.7,1.5,1.5l0,0
						C123.7,134.8,123,135.5,122.2,135.5z"/>
					<path class="st22" d="M118.9,134.6h0.4c0.6,0,1.2,0.5,1.2,1.2l0,0l0,0c0,0.6-0.5,1.2-1.2,1.2h0h-0.4c-0.6,0-1.2-0.5-1.2-1.2
						l0,0l0,0C117.7,135.1,118.2,134.6,118.9,134.6L118.9,134.6z"/>
					<path class="st4" d="M120.4,134L120.4,134c-1.1-0.2-2.2-0.2-3.3,0c-0.2,0-0.3-0.1-0.4-0.2c0-0.2,0.1-0.3,0.2-0.3c0,0,0,0,0,0
						c1.1-0.2,2.3-0.2,3.4,0c0.2,0,0.3,0.1,0.3,0.3S120.7,134,120.4,134L120.4,134z"/>
					<path class="st27" d="M125.3,161.4c0.1,0.2-0.3,0.5-0.8,0.6s-0.9,0.2-1,0.1s0.3-0.5,0.8-0.6S125.3,161.2,125.3,161.4z"/>
					<path class="st19" d="M119,126.6L119,126.6c1,0,1.7,0.7,1.7,1.6v2.2c0,0.9-0.7,1.6-1.6,1.6H119c-0.9,0-1.6-0.7-1.6-1.6v-2.2
						C117.4,127.3,118.2,126.6,119,126.6z"/>
					<path class="st22" d="M110.8,110.8h16.8c3.1,0,5.6,2.5,5.6,5.6v0.3c0,3.1-2.5,5.6-5.6,5.6h-16.8c-3.1,0-5.6-2.5-5.6-5.6v-0.3
						C105.2,113.2,107.7,110.8,110.8,110.8z"/>
					<rect x="47.5" y="46.5" class="st6" width="133.2" height="234.6"/>
					<path class="st28" d="M111.2,62.9c-5.6,0-11.2-1.2-16.4-3.4c-1.2-0.5-2.3-1-3.3-1.6c-3-1.5-5.6-2.7-8.6-2.4
						c-2.6,0.3-5,1.3-7,2.9L72.4,54c2.8-2.2,6.2-3.6,9.8-4.1c4.7-0.6,8.5,1.3,11.8,2.9c1,0.5,2,1,3,1.4c6.5,2.8,13.7,3.6,20.6,2.3
						c3.3-0.7,6.4-2.2,9.6-3.8c2-1.1,4.1-2.1,6.3-2.9c12-4.7,24.9-2.5,32.9,5.5l-4.1,4.1c-7.3-7.3-18.7-7.4-26.8-4.2
						c-1.9,0.8-3.8,1.7-5.8,2.7c-3.4,1.8-7,3.6-11.1,4.4C116.3,62.7,113.7,62.9,111.2,62.9z"/>
					<path class="st29" d="M38.6,43.7h37.6c0.3,0,0.6,0.3,0.6,0.6v231c0,0.3-0.3,0.6-0.6,0.6H38.6c-0.3,0-0.6-0.3-0.6-0.6v-231
						C38,43.9,38.2,43.7,38.6,43.7z"/>
					<path class="st10" d="M33.3,267h50c3.9,0,7.1,3.2,7.1,7.1v0.4c0,3.9-3.2,7.1-7.1,7.1h-50c-3.9,0-7.2-3.2-7.2-7.1v-0.4
						C26.1,270.2,29.3,267,33.3,267z"/>
					<path class="st10" d="M48.2,58.8h0.1c1.1,0,2,0.9,2,2v197.5c0,1.1-0.9,2-2,2h-0.1c-1.1,0-2-0.9-2-2V60.8
						C46.2,59.7,47.1,58.8,48.2,58.8z"/>
					<path class="st10" d="M57.7,58.8h0.1c1.1,0,2,0.9,2,2v197.5c0,1.1-0.9,2-2,2h-0.1c-1.1,0-2-0.9-2-2V60.8
						C55.7,59.7,56.6,58.8,57.7,58.8z"/>
					<path class="st10" d="M67.7,58.8h0.1c1.1,0,2,0.9,2,2v197.5c0,1.1-0.9,2-2,2h-0.1c-1.1,0-2-0.9-2-2V60.8
						C65.7,59.7,66.6,58.8,67.7,58.8z"/>
					<rect x="38" y="43.7" class="st30" width="38.8" height="11.5"/>
					<path class="st28" d="M36.8,113.1l38.7-17.4c2.3-1,5,0,6.1,2.3l0.1,0.2c1,2.3,0,5-2.3,6.1l-38.7,17.4c-2.3,1-5,0-6.1-2.3
						l-0.1-0.2C33.5,116.9,34.5,114.2,36.8,113.1z"/>
					<path class="st28" d="M34.6,195.4l-0.1-0.2c-1-2.3,0-5,2.3-6.1l38.7-17.4c2.3-1,5,0,6.1,2.3l0.1,0.2c1,2.3,0,5-2.3,6.1
						l-38.7,17.4C38.4,198.7,35.7,197.7,34.6,195.4z"/>
					<path class="st29" d="M158.8,43.7h37.6c0.3,0,0.6,0.3,0.6,0.6v231c0,0.3-0.3,0.6-0.6,0.6h-37.6c-0.3,0-0.6-0.3-0.6-0.6v-231
						C158.2,43.9,158.5,43.7,158.8,43.7z"/>
					<path class="st10" d="M153.5,267h50c3.9,0,7.1,3.2,7.1,7.1v0.4c0,3.9-3.2,7.1-7.1,7.1h-50c-3.9,0-7.1-3.2-7.1-7.1v-0.4
						C146.4,270.2,149.6,267,153.5,267z"/>
					<path class="st10" d="M168.4,58.8h0.1c1.1,0,2,0.9,2,2v197.5c0,1.1-0.9,2-2,2h-0.1c-1.1,0-2-0.9-2-2V60.8
						C166.4,59.7,167.3,58.8,168.4,58.8z"/>
					<path class="st10" d="M177.9,58.8h0.1c1.1,0,2,0.9,2,2v197.5c0,1.1-0.9,2-2,2h-0.1c-1.1,0-2-0.9-2-2V60.8
						C175.9,59.7,176.8,58.8,177.9,58.8z"/>
					<path class="st10" d="M187.9,58.8h0.1c1.1,0,2,0.9,2,2v197.5c0,1.1-0.9,2-2,2h-0.1c-1.1,0-2-0.9-2-2V60.8
						C186,59.7,186.8,58.8,187.9,58.8z"/>
					<rect x="158.2" y="43.7" class="st30" width="38.8" height="11.5"/>
					<path class="st28" d="M152.8,66.1l0.1-0.2c1-2.3,3.8-3.3,6.1-2.3L197.7,81c2.3,1,3.3,3.8,2.3,6.1l-0.1,0.2
						c-1,2.3-3.8,3.3-6.1,2.3l-38.7-17.4C152.8,71.2,151.8,68.4,152.8,66.1z"/>
					<path class="st28" d="M152.8,138.4l0.1-0.2c1-2.3,3.8-3.3,6.1-2.3l38.7,17.4c2.3,1,3.3,3.8,2.3,6.1l-0.1,0.2
						c-1,2.3-3.8,3.3-6.1,2.3l-38.7-17.4C152.8,143.5,151.8,140.7,152.8,138.4z"/>
					<path class="st28" d="M152.8,203.9l0.1-0.2c1-2.3,3.8-3.3,6.1-2.3l38.7,17.4c2.3,1,3.3,3.8,2.3,6.1l-0.1,0.2
						c-1,2.3-3.8,3.3-6.1,2.3l-38.7-17.4C152.8,208.9,151.8,206.2,152.8,203.9z"/>
					<path class="st28" d="M176.5,78.5c0,0,2.6,0.7,4.4-0.5c0.7-0.4,1.3-0.9,1.9-1.4c0.1-0.1,0.1-0.3,0-0.4c0,0-0.1-0.1-0.2-0.1
						l-0.9-0.1c0.6-0.6,1.2-1.2,1.5-2c0.3-0.6,0.5-1,0.6-1.2c0.1-0.2,0-0.4-0.2-0.4c-0.1,0-0.1,0-0.2,0l-0.3,0.1l2-2.8
						c-1.6-0.2-3.2-0.2-4.8,0.1c-0.9,0.1-1.7,0.5-2.5,1l0.1-1c0-0.2-0.1-0.4-0.3-0.4c-0.1,0-0.1,0-0.2,0c-0.8,0.3-2.2,1.4-3.6,4.6
						C172.1,78.6,176.5,78.5,176.5,78.5z"/>
					<path class="st31" d="M174,73.9c1.3-3.3,2.8-4.3,3.6-4.6c0.2-0.1,0.4,0,0.5,0.2c0,0.1,0,0.1,0,0.2l-0.1,1
						c0.7-0.5,1.6-0.9,2.5-1c1.6-0.2,3.2-0.3,4.8-0.1c0,0-7,3-11.4,7.6C173.4,76.5,173.4,75.4,174,73.9z"/>
					<path class="st32" d="M172.4,93.5c0.3,1.7-0.8,3.3-2.5,3.6c-1.7,0.3-3.3-0.8-3.6-2.5c-0.3-1.7,0.8-3.3,2.5-3.6
						C170.5,90.7,172.1,91.8,172.4,93.5C172.4,93.5,172.4,93.5,172.4,93.5z"/>
					<g class="st33">
						<path class="st32" d="M172.2,92.8c0,0.1,0,0.2,0,0.2c0.2,1.2-0.6,2.5-1.8,2.7c-1.2,0.2-2.5-0.6-2.7-1.8
							c-0.2-1.2,0.6-2.5,1.8-2.7c0.4-0.1,0.7,0,1.1,0.1c-1.5-0.7-3.4,0-4.1,1.5s0,3.4,1.5,4.1c1.5,0.7,3.4,0,4.1-1.5
							c0.3-0.6,0.3-1.2,0.2-1.9C172.4,93.2,172.3,93,172.2,92.8z"/>
					</g>
					<path class="st32" d="M179.6,87.2c0.3,1.8-0.8,3.5-2.6,3.9c-1.8,0.3-3.5-0.8-3.9-2.6c-0.3-1.8,0.8-3.5,2.6-3.9c0,0,0,0,0,0
						C177.6,84.2,179.3,85.4,179.6,87.2z"/>
					<g class="st33">
						<path class="st32" d="M179.4,86.5l0.1,0.2c0.2,1.3-0.7,2.6-2,2.9c-1.3,0.2-2.6-0.7-2.9-2c-0.2-1.3,0.6-2.6,2-2.9
							c0.4-0.1,0.8,0,1.2,0.1c-0.6-0.3-1.3-0.4-2-0.2c-1.8,0.3-3,2.1-2.6,3.9c0.3,1.8,2.1,3,3.9,2.6c1.8-0.3,3-2.1,2.6-3.9
							c0,0,0,0,0,0C179.6,86.9,179.5,86.7,179.4,86.5z"/>
					</g>
					<circle class="st32" cx="179.3" cy="83.5" r="3.7"/>
					<g class="st33">
						<path class="st32" d="M182.6,82l0.1,0.3c0.3,1.5-0.7,2.9-2.2,3.2s-2.9-0.7-3.2-2.2c-0.3-1.5,0.7-2.9,2.2-3.2
							c0.4-0.1,0.9-0.1,1.3,0.1c-0.7-0.3-1.5-0.4-2.2-0.3c-2,0.4-3.3,2.3-2.9,4.3c0.4,2,2.3,3.3,4.3,2.9c2-0.4,3.3-2.3,2.9-4.3
							c0,0,0,0,0,0C182.8,82.5,182.8,82.3,182.6,82z"/>
					</g>
					<path class="st28" d="M174,75.4c0,0-0.8-4.1,0.6-6.6c0.7-1.2,1.8-2.1,3.1-2.5c0.4-0.1,0.9,0.1,1,0.5c0,0,0,0,0,0l0,0
						c0.1,0.4-0.1,0.8-0.5,1c-1.3,0.5-2.3,1.5-2.8,2.8c-0.6,2.3-0.7,4.9-0.8,5S174,75.4,174,75.4z"/>
					<path class="st31" d="M174.5,70.8c0.6-2.2,2.6-3.6,4-4.3c-0.2-0.2-0.5-0.2-0.7-0.2c-1.3,0.4-2.5,1.3-3.1,2.5
						c-1.4,2.5-0.6,6.6-0.6,6.6c0.1,0,0.2,0.1,0.4,0.1C174.1,74,174.1,72.3,174.5,70.8z"/>
					<path class="st32" d="M173.1,74.5c0.3,1.7-0.8,3.3-2.4,3.6c-1.7,0.3-3.3-0.8-3.6-2.4c-0.3-1.7,0.8-3.3,2.4-3.6
						C171.2,71.7,172.8,72.8,173.1,74.5C173.1,74.5,173.1,74.5,173.1,74.5z"/>
					<g class="st33">
						<path class="st32" d="M172.9,73.8c0,0.1,0,0.2,0.1,0.2c0.2,1.2-0.6,2.5-1.8,2.7c-1.2,0.2-2.5-0.6-2.7-1.8s0.6-2.5,1.8-2.7
							c0,0,0,0,0,0c0.4-0.1,0.8-0.1,1.1,0.1c-0.6-0.3-1.2-0.3-1.8-0.2c-1.7,0.3-2.7,1.9-2.4,3.6c0.3,1.7,1.9,2.7,3.6,2.4
							c1.7-0.3,2.7-1.9,2.4-3.6C173,74.3,173,74,172.9,73.8z"/>
					</g>
					<path class="st32" d="M177.6,75.9c0.3,1.7-0.8,3.3-2.4,3.6s-3.3-0.8-3.6-2.4c-0.3-1.7,0.8-3.3,2.4-3.6c0,0,0,0,0,0
						C175.7,73.1,177.2,74.2,177.6,75.9z"/>
					<g class="st33">
						<path class="st32" d="M177.3,75.2c0,0.1,0,0.2,0.1,0.2c0.2,1.2-0.6,2.5-1.8,2.7c-1.2,0.2-2.5-0.6-2.7-1.8
							c-0.2-1.2,0.6-2.5,1.8-2.7c0.4-0.1,0.8-0.1,1.1,0.1c-0.6-0.3-1.2-0.3-1.8-0.2c-1.7,0.3-2.7,1.9-2.4,3.6s1.9,2.7,3.6,2.4
							c1.7-0.3,2.7-1.9,2.4-3.6c0,0,0,0,0,0C177.5,75.6,177.4,75.4,177.3,75.2z"/>
					</g>
					<path class="st32" d="M181.6,77.2c0.3,1.7-0.8,3.3-2.4,3.6c-1.7,0.3-3.3-0.8-3.6-2.4c-0.3-1.7,0.8-3.2,2.4-3.6
						C179.7,74.4,181.3,75.5,181.6,77.2z"/>
					<g class="st33">
						<path class="st32" d="M181.4,76.5l0.1,0.2c0.3,1.3-0.5,2.5-1.8,2.8c-1.3,0.3-2.5-0.5-2.8-1.8c-0.3-1.3,0.5-2.5,1.8-2.8
							c0.4-0.1,0.8-0.1,1.2,0c-1.5-0.7-3.4,0-4.1,1.5c-0.7,1.5,0,3.4,1.5,4.1c1.5,0.7,3.4,0,4.1-1.5c0.3-0.6,0.3-1.2,0.2-1.9
							C181.6,77,181.5,76.7,181.4,76.5z"/>
					</g>
					<path class="st32" d="M170.6,89.2c0.3,1.7-0.8,3.3-2.4,3.6c-1.7,0.3-3.3-0.8-3.6-2.4c-0.3-1.7,0.8-3.3,2.4-3.6
						C168.7,86.4,170.3,87.5,170.6,89.2C170.6,89.2,170.6,89.2,170.6,89.2z"/>
					<g class="st33">
						<path class="st32" d="M170.4,88.5c0,0.1,0,0.2,0.1,0.2c0.2,1.3-0.6,2.5-1.8,2.7s-2.5-0.6-2.7-1.8c-0.2-1.3,0.6-2.5,1.8-2.7
							c0,0,0,0,0,0c0.4-0.1,0.8,0,1.1,0.1c-1.5-0.7-3.4,0-4.1,1.5c-0.7,1.5,0,3.4,1.5,4.1s3.4,0,4.1-1.5c0.3-0.6,0.3-1.2,0.2-1.8
							C170.6,88.9,170.5,88.7,170.4,88.5z"/>
					</g>
					<path class="st32" d="M175.9,90.5c0.3,1.7-0.8,3.3-2.4,3.6c-1.7,0.3-3.3-0.8-3.6-2.4s0.8-3.3,2.4-3.6c0,0,0,0,0,0
						C174,87.8,175.6,88.9,175.9,90.5z"/>
					<g class="st33">
						<path class="st32" d="M175.7,89.9c0,0.1,0,0.2,0,0.2c0.2,1.2-0.6,2.4-1.8,2.7c-1.2,0.2-2.4-0.6-2.7-1.8
							c-0.2-1.2,0.6-2.4,1.8-2.7c0.4-0.1,0.7,0,1.1,0.1c-1.5-0.7-3.4,0-4.1,1.5c-0.7,1.5,0,3.4,1.5,4.1s3.4,0,4.1-1.5
							c0.3-0.6,0.3-1.2,0.2-1.8C175.8,90.3,175.8,90.1,175.7,89.9z"/>
					</g>
					<path class="st32" d="M169.6,84.1c0.3,1.8-0.8,3.5-2.6,3.9s-3.5-0.8-3.9-2.6c-0.3-1.8,0.8-3.5,2.6-3.9
						C167.6,81.2,169.3,82.3,169.6,84.1z"/>
					<g class="st33">
						<path class="st32" d="M169.4,83.4c0,0.1,0,0.2,0.1,0.2c0.2,1.3-0.7,2.6-2,2.9c-1.3,0.2-2.6-0.7-2.9-2c-0.2-1.3,0.6-2.6,2-2.9
							c0.4-0.1,0.8-0.1,1.2,0.1c-0.6-0.3-1.3-0.4-2-0.2c-1.8,0.3-3,2.1-2.6,3.9s2.1,3,3.9,2.6c1.8-0.3,3-2.1,2.6-3.9
							C169.6,83.8,169.5,83.6,169.4,83.4z"/>
					</g>
					<path class="st32" d="M174.7,85.8c0.3,1.8-0.8,3.5-2.6,3.9s-3.5-0.8-3.9-2.6c-0.3-1.8,0.8-3.5,2.6-3.9
						C172.6,82.8,174.4,84,174.7,85.8z"/>
					<g class="st33">
						<path class="st32" d="M174.5,85.1l0.1,0.2c0.2,1.3-0.7,2.6-2,2.9c-1.3,0.2-2.6-0.7-2.9-2c-0.2-1.3,0.6-2.6,2-2.9
							c0.4-0.1,0.8-0.1,1.2,0.1c-0.6-0.3-1.3-0.4-2-0.2c-1.8,0.3-3,2.1-2.6,3.9s2.1,3,3.9,2.6c1.8-0.3,3-2.1,2.6-3.9
							C174.7,85.5,174.6,85.3,174.5,85.1z"/>
					</g>
					<path class="st32" d="M179.5,81.7c0.4,2-0.9,3.9-2.9,4.3c-2,0.4-3.9-0.9-4.3-2.9c-0.4-2,0.9-3.9,2.9-4.3c0,0,0,0,0,0
						C177.2,78.4,179.1,79.7,179.5,81.7z"/>
					<g class="st33">
						<path class="st32" d="M179.2,80.9c0,0.1,0.1,0.2,0.1,0.3c0.3,1.5-0.7,2.9-2.2,3.2s-2.9-0.7-3.2-2.2c-0.3-1.5,0.7-2.9,2.2-3.2
							c0,0,0,0,0,0c0.4-0.1,0.9-0.1,1.3,0.1c-0.7-0.3-1.5-0.4-2.2-0.3c-2,0.4-3.3,2.3-2.9,4.3c0.4,2,2.3,3.3,4.3,2.9
							c2-0.4,3.3-2.3,2.9-4.3c0,0,0,0,0,0C179.4,81.4,179.4,81.1,179.2,80.9z"/>
					</g>
					<path class="st32" d="M170.2,78.3c0.4,2-0.9,3.9-2.9,4.3c-2,0.4-3.9-0.9-4.3-2.9c-0.4-2,0.9-3.9,2.9-4.3
						C167.9,75,169.8,76.3,170.2,78.3C170.2,78.3,170.2,78.3,170.2,78.3z"/>
					<g class="st33">
						<path class="st32" d="M169.9,77.5c0,0.1,0.1,0.2,0.1,0.3c0.3,1.5-0.7,2.9-2.2,3.2s-2.9-0.7-3.2-2.2s0.7-2.9,2.2-3.2
							c0,0,0,0,0,0c0.4-0.1,0.9-0.1,1.3,0.1c-0.7-0.3-1.5-0.4-2.2-0.3c-2,0.4-3.3,2.3-2.9,4.3c0.4,2,2.3,3.3,4.3,2.9
							c2-0.4,3.3-2.3,2.9-4.3C170.1,78.1,170,77.8,169.9,77.5z"/>
					</g>
					<path class="st32" d="M175.2,80.2c0.4,2-0.9,3.9-2.9,4.3c-2,0.4-3.9-0.9-4.3-2.9c-0.4-2,0.9-3.9,2.9-4.3c0,0,0,0,0,0
						C172.9,76.9,174.8,78.2,175.2,80.2C175.2,80.2,175.2,80.2,175.2,80.2z"/>
					<g class="st33">
						<path class="st32" d="M174.9,79.4c0,0.1,0.1,0.2,0.1,0.3c0.3,1.5-0.7,2.9-2.2,3.2s-2.9-0.7-3.2-2.2c-0.3-1.5,0.7-2.9,2.2-3.2
							c0.4-0.1,0.9-0.1,1.3,0.1c-0.7-0.3-1.5-0.4-2.2-0.3c-2,0.4-3.3,2.3-2.9,4.3c0.4,2,2.3,3.3,4.3,2.9c2-0.4,3.3-2.3,2.9-4.3
							c0,0,0,0,0,0C175.1,79.9,175.1,79.6,174.9,79.4z"/>
					</g>
					<g class="st34">
						<path class="st10" d="M172.2,73.9c0,0.3-0.4,0.2-0.4-0.1c0-0.2-0.1-0.5-0.3-0.6h-0.1h-0.1l-0.1-0.1l0,0H171
							c-0.1-0.1-0.1-0.2-0.1-0.3c0-0.1,0.1-0.1,0.2-0.1h0.1c0.2,0,0.4,0.1,0.6,0.2l0,0C172,73.2,172.2,73.5,172.2,73.9z M175.8,74.1
							c-0.6-0.1-1.2,0.1-1.6,0.6c-0.2,0.2,0.2,0.4,0.3,0.2c0.3-0.3,0.8-0.5,1.2-0.4C176.1,74.6,176.1,74.2,175.8,74.1z M179.1,75.3
							c-0.7,0.2-1.2,0.7-1.3,1.4c0,0.1,0.1,0.2,0.2,0.2c0.1,0,0.2-0.1,0.2-0.1c0.1-0.5,0.4-0.9,0.9-1.1
							C179.4,75.7,179.3,75.2,179.1,75.3z M177.2,79.4c-0.2-0.1-0.4,0.3-0.1,0.4c0.4,0.2,0.7,0.6,0.7,1.1c0,0.3,0.4,0.3,0.4,0.1
							C178.2,80.3,177.8,79.7,177.2,79.4z M173.5,78.8c-0.8-0.3-1.8-0.1-2.4,0.6c-0.2,0.2,0.1,0.4,0.3,0.2c0.5-0.5,1.2-0.7,1.9-0.4
							c0.1,0,0.2,0,0.3-0.1C173.6,79,173.6,78.9,173.5,78.8z M166.9,76.3c-0.8,0.3-1.3,1.2-1,2.1c0.1,0.2,0.5,0.1,0.4-0.2
							c-0.2-0.7,0.2-1.3,0.8-1.6C167.4,76.6,167.2,76.2,166.9,76.3z M181.5,81.2c-0.1-0.1-0.2,0-0.3,0s0,0.2,0,0.3
							c0.3,0.2,0.4,0.5,0.3,0.8c0,0.3,0.4,0.3,0.4,0C182.1,81.9,181.9,81.4,181.5,81.2z M176.7,88.5c-0.5-0.1-0.9-0.6-0.8-1.2
							c0,0,0,0,0-0.1c0.1-0.3-0.4-0.3-0.4,0c-0.2,0.8,0.3,1.5,1.1,1.7c0,0,0,0,0,0C177,89,177,88.5,176.7,88.5L176.7,88.5z
							 M171.1,86.6c-0.4-0.3-0.6-0.7-0.5-1.2c0-0.3-0.4-0.3-0.4,0c-0.1,0.8,0.3,1.5,1,1.8c0.1,0,0.2,0,0.3-0.1c0,0,0-0.1,0-0.1v-0.2
							c0-0.1-0.1-0.2-0.2-0.2C171.2,86.5,171.1,86.6,171.1,86.6L171.1,86.6z M166,85.2c-0.5-0.2-0.7-0.8-0.5-1.2c0,0,0,0,0-0.1
							c0.1-0.2-0.2-0.5-0.3-0.2c-0.4,0.6-0.2,1.5,0.5,1.9c0,0,0.1,0.1,0.1,0.1c0.1,0,0.2,0,0.3-0.1S166.1,85.2,166,85.2z
							 M167.9,90.2c-0.5-0.1-0.8-0.6-0.7-1c0,0,0,0,0,0c0.1-0.3-0.3-0.4-0.4-0.2c-0.2,0.7,0.2,1.4,0.9,1.6c0,0,0.1,0,0.1,0
							C168.2,90.7,168.2,90.3,167.9,90.2L167.9,90.2z M170.1,94.2c-0.5-0.1-0.9-0.4-1-0.9c-0.1-0.3-0.5-0.2-0.4,0.1
							c0.2,0.7,0.7,1.2,1.4,1.3c0.1,0,0.2-0.1,0.2-0.3C170.2,94.3,170.2,94.2,170.1,94.2L170.1,94.2z"/>
					</g>
					<path class="st28" d="M174.4,215.2c0,0,2.6,0.7,4.4-0.5c0.7-0.4,1.3-0.9,1.9-1.4c0.1-0.1,0.1-0.3,0-0.4c0,0-0.1-0.1-0.2-0.1
						l-0.9-0.1c0.6-0.6,1.1-1.2,1.5-2c0.2-0.4,0.4-0.8,0.6-1.2c0.1-0.2,0-0.4-0.2-0.4c-0.1,0-0.1,0-0.2,0l-0.3,0.1l2-2.8
						c-1.6-0.2-3.2-0.2-4.8,0.1c-0.9,0.1-1.7,0.5-2.5,1l0.1-1.1c0-0.2-0.1-0.4-0.3-0.4c-0.1,0-0.1,0-0.2,0c-0.8,0.3-2.2,1.4-3.6,4.6
						C170,215.3,174.4,215.2,174.4,215.2z"/>
					<path class="st31" d="M171.9,210.6c1.3-3.3,2.8-4.3,3.6-4.6c0.2-0.1,0.4,0,0.5,0.2c0,0.1,0,0.1,0,0.2l-0.1,1.1
						c0.7-0.5,1.6-0.9,2.5-1c1.6-0.2,3.2-0.3,4.8-0.1c0,0-7,3-11.4,7.6C171.4,213.2,171.3,212.1,171.9,210.6z"/>
					<path class="st32" d="M170.4,230.2c0.3,1.7-0.8,3.3-2.4,3.6c-1.7,0.3-3.3-0.8-3.6-2.4c-0.3-1.7,0.8-3.3,2.4-3.6c0,0,0,0,0,0
						C168.5,227.4,170.1,228.5,170.4,230.2C170.4,230.2,170.4,230.2,170.4,230.2z"/>
					<g class="st33">
						<path class="st32" d="M170.2,229.5c0,0.1,0,0.2,0,0.2c0.2,1.2-0.6,2.4-1.8,2.7s-2.4-0.6-2.7-1.8s0.6-2.4,1.8-2.7
							c0.4-0.1,0.7,0,1.1,0.1c-1.5-0.7-3.4,0-4.1,1.5s0,3.4,1.5,4.1s3.4,0,4.1-1.5c0.3-0.6,0.3-1.2,0.2-1.8
							C170.3,229.9,170.3,229.7,170.2,229.5z"/>
					</g>
					<path class="st32" d="M177.6,223.9c0.3,1.8-0.8,3.5-2.6,3.9s-3.5-0.8-3.9-2.6c-0.3-1.8,0.8-3.5,2.6-3.9
						C175.5,220.9,177.2,222.1,177.6,223.9z"/>
					<g class="st33">
						<path class="st32" d="M177.3,223.2c0,0.1,0.1,0.2,0.1,0.2c0.2,1.3-0.7,2.6-2,2.9c-1.3,0.2-2.6-0.7-2.9-2
							c-0.2-1.3,0.6-2.6,2-2.9c0.4-0.1,0.8-0.1,1.2,0.1c-0.6-0.3-1.3-0.4-2-0.2c-1.8,0.3-3,2.1-2.6,3.9s2.1,3,3.9,2.6
							c1.8-0.3,3-2.1,2.6-3.9C177.5,223.6,177.4,223.4,177.3,223.2z"/>
					</g>
					<path class="st32" d="M180.8,219.5c0.4,2-0.9,3.9-2.9,4.3c-2,0.4-3.9-0.9-4.3-2.9c-0.4-2,0.9-3.9,2.9-4.3c0,0,0,0,0,0
						C178.5,216.2,180.4,217.5,180.8,219.5C180.8,219.5,180.8,219.5,180.8,219.5z"/>
					<g class="st33">
						<path class="st32" d="M180.6,218.7c0,0.1,0.1,0.2,0.1,0.3c0.3,1.5-0.7,2.9-2.2,3.2c-1.5,0.3-2.9-0.7-3.2-2.2
							c-0.3-1.5,0.7-2.9,2.2-3.2c0.4-0.1,0.9-0.1,1.3,0.1c-0.7-0.3-1.5-0.4-2.2-0.3c-2,0.4-3.3,2.3-2.9,4.3c0.4,2,2.3,3.3,4.3,2.9
							c2-0.4,3.3-2.3,2.9-4.3c0,0,0,0,0,0C180.8,219.2,180.7,219,180.6,218.7z"/>
					</g>
					<path class="st28" d="M172,212.1c0,0-0.8-4.1,0.6-6.6c0.7-1.2,1.8-2.1,3.1-2.5c0.4-0.1,0.9,0.1,1,0.5c0,0,0,0,0,0l0,0
						c0.1,0.4-0.1,0.8-0.4,1c-1.3,0.4-2.3,1.5-2.8,2.8c-0.6,2.3-0.8,4.9-0.8,4.9S172,212.1,172,212.1z"/>
					<path class="st31" d="M172.4,207.4c0.6-2.2,2.6-3.6,4-4.2c-0.2-0.2-0.5-0.2-0.7-0.2c-1.3,0.4-2.4,1.3-3.1,2.5
						c-1.4,2.5-0.6,6.6-0.6,6.6l0.4,0.1C172,210.7,172,209,172.4,207.4z"/>
					<path class="st32" d="M171,211.2c0.3,1.7-0.8,3.3-2.4,3.6s-3.3-0.8-3.6-2.4c-0.3-1.7,0.8-3.3,2.4-3.6
						C169.1,208.4,170.7,209.5,171,211.2z"/>
					<g class="st33">
						<path class="st32" d="M170.8,210.5l0.1,0.2c0.3,1.3-0.6,2.5-1.8,2.7c-1.3,0.3-2.5-0.6-2.7-1.8c-0.3-1.3,0.6-2.5,1.8-2.7
							c0.4-0.1,0.8-0.1,1.1,0.1c-1.5-0.7-3.4,0-4.1,1.5c-0.7,1.5,0,3.4,1.5,4.1c1.5,0.7,3.4,0,4.1-1.5c0.3-0.6,0.3-1.2,0.2-1.9
							C171,210.9,170.9,210.7,170.8,210.5z"/>
					</g>
					<path class="st32" d="M175.5,212.6c0.3,1.7-0.8,3.3-2.4,3.6c-1.7,0.3-3.3-0.8-3.6-2.4c-0.3-1.7,0.8-3.2,2.4-3.6
						C173.6,209.8,175.2,210.9,175.5,212.6z"/>
					<g class="st33">
						<path class="st32" d="M175.3,211.9l0.1,0.2c0.2,1.2-0.6,2.5-1.8,2.7c-1.2,0.2-2.5-0.6-2.7-1.8c-0.2-1.2,0.6-2.5,1.8-2.7
							c0,0,0,0,0,0c0.4-0.1,0.8-0.1,1.1,0.1c-1.5-0.7-3.4,0-4.1,1.5c-0.7,1.5,0,3.4,1.5,4.1s3.4,0,4.1-1.5c0.3-0.6,0.3-1.2,0.2-1.8
							C175.5,212.3,175.4,212.1,175.3,211.9z"/>
					</g>
					<path class="st32" d="M179.5,213.9c0.3,1.7-0.8,3.3-2.4,3.6c-1.7,0.3-3.3-0.8-3.6-2.4c-0.3-1.7,0.8-3.3,2.4-3.6c0,0,0,0,0,0
						C177.6,211.1,179.2,212.2,179.5,213.9C179.5,213.8,179.5,213.8,179.5,213.9z"/>
					<g class="st33">
						<path class="st32" d="M179.3,213.2c0,0.1,0,0.2,0.1,0.2c0.2,1.2-0.6,2.5-1.8,2.7c-1.2,0.2-2.5-0.6-2.7-1.8
							c-0.2-1.2,0.6-2.5,1.8-2.7c0,0,0,0,0,0c0.4-0.1,0.7,0,1.1,0.1c-0.6-0.3-1.2-0.3-1.9-0.2c-1.7,0.3-2.7,1.9-2.4,3.6
							s1.9,2.7,3.6,2.4s2.7-1.9,2.4-3.6c0,0,0,0,0,0C179.5,213.6,179.4,213.4,179.3,213.2z"/>
					</g>
					<path class="st32" d="M168.6,225.9c0.3,1.7-0.8,3.3-2.4,3.6c-1.7,0.3-3.3-0.8-3.6-2.4c-0.3-1.7,0.8-3.3,2.4-3.6
						C166.6,223.1,168.2,224.2,168.6,225.9z"/>
					<g class="st33">
						<path class="st32" d="M168.3,225.2l0.1,0.2c0.2,1.3-0.6,2.5-1.8,2.7s-2.5-0.6-2.7-1.8s0.6-2.5,1.8-2.7
							c0.4-0.1,0.8-0.1,1.1,0.1c-1.5-0.7-3.4,0-4.1,1.5c-0.7,1.5,0,3.4,1.5,4.1c1.5,0.7,3.4,0,4.1-1.5c0.3-0.6,0.3-1.2,0.2-1.8
							C168.5,225.6,168.4,225.4,168.3,225.2z"/>
					</g>
					<path class="st32" d="M173.9,227.2c0.3,1.7-0.8,3.3-2.5,3.6c-1.7,0.3-3.3-0.8-3.6-2.5c-0.3-1.7,0.8-3.3,2.4-3.6
						C171.9,224.5,173.5,225.6,173.9,227.2C173.9,227.2,173.9,227.2,173.9,227.2z"/>
					<g class="st33">
						<path class="st32" d="M173.6,226.6c0,0.1,0.1,0.2,0.1,0.2c0.3,1.2-0.5,2.5-1.8,2.7s-2.5-0.5-2.7-1.8s0.5-2.5,1.8-2.7
							c0,0,0,0,0,0c0.4-0.1,0.8-0.1,1.1,0.1c-1.5-0.7-3.4,0-4.1,1.5s0,3.4,1.5,4.1s3.4,0,4.1-1.5c0.3-0.6,0.3-1.2,0.2-1.8
							C173.8,227,173.7,226.8,173.6,226.6z"/>
					</g>
					<path class="st32" d="M167.6,220.8c0.3,1.8-0.8,3.5-2.6,3.9s-3.5-0.8-3.9-2.6s0.8-3.5,2.6-3.9c0,0,0,0,0,0
						C165.5,217.9,167.2,219,167.6,220.8z"/>
					<g class="st33">
						<path class="st32" d="M167.4,220.1c0,0.1,0,0.2,0.1,0.2c0.2,1.3-0.7,2.6-2,2.9c-1.3,0.2-2.6-0.7-2.9-2c-0.2-1.3,0.6-2.6,2-2.9
							c0.4-0.1,0.8-0.1,1.2,0.1c-0.6-0.3-1.3-0.4-2-0.2c-1.8,0.3-3,2.1-2.6,3.9s2.1,3,3.9,2.6c1.8-0.3,3-2.1,2.6-3.9c0,0,0,0,0,0
							C167.5,220.5,167.4,220.3,167.4,220.1z"/>
					</g>
					<path class="st32" d="M172.6,222.5c0.3,1.8-0.8,3.5-2.6,3.9s-3.5-0.8-3.9-2.6c-0.3-1.8,0.8-3.5,2.6-3.9
						C170.6,219.5,172.3,220.7,172.6,222.5z"/>
					<g class="st33">
						<path class="st32" d="M172.4,221.8c0,0.1,0.1,0.2,0.1,0.2c0.2,1.3-0.7,2.6-2,2.9c-1.3,0.2-2.6-0.7-2.9-2
							c-0.2-1.3,0.6-2.6,2-2.9c0.4-0.1,0.8-0.1,1.2,0.1c-0.6-0.3-1.3-0.4-2-0.2c-1.8,0.3-3,2.1-2.6,3.9s2.1,3,3.9,2.6
							c1.8-0.3,3-2.1,2.6-3.9C172.6,222.2,172.5,222,172.4,221.8z"/>
					</g>
					<path class="st32" d="M177.4,218.4c0.4,2-0.9,3.9-2.9,4.3c-2,0.4-3.9-0.9-4.3-2.9c-0.4-2,0.9-3.9,2.9-4.3c0,0,0,0,0,0
						C175.1,215.1,177,216.4,177.4,218.4z"/>
					<g class="st33">
						<path class="st32" d="M177.2,217.6c0,0.1,0.1,0.2,0.1,0.3c0.3,1.5-0.7,2.9-2.2,3.2c-1.5,0.3-2.9-0.7-3.2-2.2
							c-0.3-1.5,0.7-2.9,2.2-3.2c0.4-0.1,0.9-0.1,1.3,0.1c-0.7-0.3-1.5-0.4-2.2-0.3c-2,0.4-3.3,2.3-2.9,4.3s2.3,3.3,4.3,2.9
							c2-0.4,3.3-2.3,2.9-4.3C177.4,218.1,177.3,217.8,177.2,217.6z"/>
					</g>
					<path class="st32" d="M168.1,215c0.4,2-0.9,3.9-2.9,4.3c-2,0.4-3.9-0.9-4.3-2.9c-0.4-2,0.9-3.9,2.9-4.3c0,0,0,0,0,0
						C165.8,211.7,167.7,213,168.1,215C168.1,215,168.1,215,168.1,215z"/>
					<g class="st33">
						<path class="st32" d="M167.9,214.2l0.1,0.3c0.3,1.5-0.7,2.9-2.2,3.2c-1.5,0.3-2.9-0.7-3.2-2.2c-0.3-1.5,0.7-2.9,2.2-3.2
							c0,0,0,0,0,0c0.4-0.1,0.9-0.1,1.3,0.1c-1.8-0.8-4,0-4.9,1.8c-0.8,1.8,0,4,1.8,4.9s4,0,4.9-1.8c0.3-0.7,0.4-1.5,0.3-2.2
							C168,214.7,168,214.5,167.9,214.2z"/>
					</g>
					<path class="st32" d="M173.1,216.9c0.4,2-0.9,3.9-2.9,4.3c-2,0.4-3.9-0.9-4.3-2.9c-0.4-2,0.9-3.9,2.9-4.3
						C170.8,213.6,172.7,214.9,173.1,216.9C173.1,216.9,173.1,216.9,173.1,216.9z"/>
					<g class="st33">
						<path class="st32" d="M172.9,216.1c0,0.1,0.1,0.2,0.1,0.3c0.3,1.5-0.7,2.9-2.2,3.2c-1.5,0.3-2.9-0.7-3.2-2.2
							c-0.3-1.5,0.7-2.9,2.2-3.2c0.4-0.1,0.9-0.1,1.3,0.1c-1.8-0.8-4,0-4.8,1.8c-0.8,1.8,0,4,1.8,4.8c1.8,0.8,4,0,4.8-1.8
							c0.3-0.7,0.4-1.5,0.3-2.2C173.1,216.6,173,216.3,172.9,216.1z"/>
					</g>
					<g class="st34">
						<path class="st10" d="M170.1,210.6c0,0.3-0.4,0.2-0.4,0c0-0.2-0.1-0.5-0.3-0.6l-0.1-0.1h-0.1l-0.1-0.1l0,0H169
							c-0.1-0.1-0.1-0.2-0.1-0.3c0-0.1,0.1-0.1,0.2-0.1h0.1c0.2,0,0.4,0.1,0.5,0.2l0,0C170,209.9,170.1,210.2,170.1,210.6z
							 M173.8,210.8c-0.6-0.1-1.2,0.1-1.6,0.6c-0.2,0.2,0.1,0.4,0.3,0.2c0.3-0.3,0.8-0.5,1.2-0.4C174,211.3,174,210.9,173.8,210.8z
							 M177,212c-0.7,0.2-1.2,0.7-1.3,1.4c0,0.1,0.1,0.2,0.2,0.2s0.2-0.1,0.2-0.2c0-0.5,0.4-0.9,0.9-1.1
							C177.3,212.4,177.2,211.9,177,212z M175.2,216.1c-0.2-0.1-0.4,0.3-0.1,0.4c0.4,0.2,0.7,0.6,0.7,1.1c0,0.3,0.4,0.3,0.4,0
							C176.1,216.9,175.8,216.3,175.2,216.1L175.2,216.1z M171.4,215.5c-0.8-0.3-1.8-0.1-2.4,0.6c-0.2,0.2,0.1,0.4,0.3,0.2
							c0.5-0.5,1.2-0.7,1.9-0.4c0.1,0,0.2-0.1,0.2-0.2C171.5,215.6,171.5,215.6,171.4,215.5L171.4,215.5z M164.9,213
							c-0.8,0.3-1.3,1.2-1,2.1c0.1,0.2,0.5,0.1,0.4-0.2c-0.2-0.6,0.2-1.3,0.8-1.6C165.3,213.3,165.1,212.9,164.9,213z M179.5,217.9
							c-0.2-0.2-0.5,0.2-0.2,0.3c0.3,0.2,0.4,0.5,0.3,0.9c-0.1,0.3,0.4,0.3,0.4,0.1C180,218.6,179.9,218.1,179.5,217.9L179.5,217.9z
							 M174.7,225.2c-0.5-0.1-0.9-0.6-0.8-1.2c0,0,0,0,0-0.1c0.1-0.3-0.4-0.3-0.4-0.1c-0.2,0.8,0.3,1.5,1.1,1.7c0,0,0,0,0,0
							C174.9,225.6,174.9,225.2,174.7,225.2L174.7,225.2z M169,223.3c-0.4-0.3-0.6-0.7-0.5-1.2c0-0.3-0.4-0.3-0.4,0
							c-0.1,0.8,0.3,1.5,1,1.8c0.1,0,0.2,0,0.3-0.1c0,0,0-0.1,0-0.1c0-0.1,0-0.1,0-0.2C169.4,223.2,169.1,223.2,169,223.3z
							 M164,221.9c-0.5-0.2-0.7-0.8-0.4-1.2c0,0,0,0,0-0.1c0.1-0.2-0.2-0.5-0.3-0.2c-0.4,0.6-0.2,1.5,0.5,1.9c0,0,0.1,0.1,0.1,0.1
							c0.1,0,0.2,0,0.3-0.1C164.1,222,164.1,221.9,164,221.9z M165.9,226.9c-0.5-0.1-0.8-0.6-0.7-1c0,0,0,0,0,0
							c0.1-0.2-0.3-0.4-0.4-0.1c-0.2,0.7,0.2,1.4,0.9,1.6c0,0,0.1,0,0.1,0C166.1,227.4,166.1,227,165.9,226.9L165.9,226.9z
							 M168.1,230.9c-0.5-0.1-0.9-0.4-1-0.9c-0.1-0.3-0.5-0.2-0.4,0.1c0.2,0.7,0.7,1.2,1.4,1.3c0.1,0,0.2-0.2,0.1-0.3
							C168.2,231,168.1,230.9,168.1,230.9L168.1,230.9z"/>
					</g>
					<path class="st28" d="M185.6,157.1c0,0,2.6,0.7,4.4-0.5c0.7-0.4,1.3-0.9,1.9-1.4c0.1-0.1,0.1-0.3,0-0.4c0,0-0.1-0.1-0.2-0.1
						l-0.9-0.1c0.6-0.6,1.2-1.2,1.5-2c0.3-0.6,0.5-1,0.6-1.2c0.1-0.2,0-0.4-0.2-0.4c-0.1,0-0.1,0-0.2,0l-0.3,0.1l2-2.8
						c-1.6-0.2-3.2-0.2-4.8,0.1c-0.9,0.1-1.7,0.5-2.5,1l0.1-1c0-0.2-0.1-0.4-0.3-0.4c-0.1,0-0.1,0-0.2,0c-0.8,0.3-2.2,1.4-3.6,4.6
						C181.2,157.2,185.6,157.1,185.6,157.1z"/>
					<path class="st31" d="M183.1,152.5c1.4-3.3,2.8-4.3,3.6-4.6c0.2-0.1,0.4,0,0.5,0.2c0,0.1,0,0.1,0,0.2l-0.1,1
						c0.7-0.5,1.6-0.9,2.5-1c1.6-0.2,3.2-0.3,4.8-0.1c0,0-7,3-11.4,7.6C182.6,155.1,182.5,154.1,183.1,152.5z"/>
					<path class="st32" d="M181.6,172.1c0.3,1.7-0.8,3.3-2.4,3.6c-1.7,0.3-3.3-0.8-3.6-2.4c-0.3-1.7,0.8-3.3,2.4-3.6c0,0,0,0,0,0
						C179.7,169.3,181.3,170.4,181.6,172.1C181.6,172.1,181.6,172.1,181.6,172.1z"/>
					<g class="st33">
						<path class="st32" d="M181.4,171.4c0,0.1,0,0.2,0.1,0.2c0.2,1.3-0.6,2.5-1.8,2.7s-2.5-0.6-2.7-1.8s0.6-2.5,1.8-2.7
							c0,0,0,0,0,0c0.4-0.1,0.8-0.1,1.1,0.1c-1.5-0.7-3.4,0-4.1,1.5c-0.7,1.5,0,3.4,1.5,4.1c1.5,0.7,3.4,0,4.1-1.5
							c0.3-0.6,0.3-1.2,0.2-1.9C181.6,171.8,181.5,171.6,181.4,171.4z"/>
					</g>
					<path class="st32" d="M188.8,165.8c0.3,1.8-0.8,3.5-2.6,3.9c-1.8,0.3-3.5-0.8-3.9-2.6c-0.3-1.8,0.8-3.5,2.6-3.9
						C186.7,162.8,188.4,164,188.8,165.8C188.8,165.8,188.8,165.8,188.8,165.8z"/>
					<g class="st33">
						<path class="st32" d="M188.6,165.1c0,0.1,0.1,0.2,0.1,0.2c0.2,1.3-0.7,2.6-2,2.9c-1.3,0.2-2.6-0.7-2.9-2
							c-0.2-1.3,0.6-2.6,2-2.9c0.4-0.1,0.8-0.1,1.2,0.1c-1.7-0.8-3.6,0-4.4,1.6c-0.8,1.7,0,3.6,1.6,4.4c1.7,0.8,3.6,0,4.4-1.6
							c0.3-0.6,0.4-1.3,0.2-2C188.7,165.5,188.7,165.3,188.6,165.1z"/>
					</g>
					<path class="st32" d="M192.1,161.4c0.4,2-0.9,3.9-2.9,4.3c-2,0.4-3.9-0.9-4.3-2.9c-0.4-2,0.9-3.9,2.9-4.3
						C189.7,158.1,191.7,159.4,192.1,161.4C192,161.4,192,161.4,192.1,161.4z"/>
					<g class="st33">
						<path class="st32" d="M191.8,160.6c0,0.1,0.1,0.2,0.1,0.3c0.3,1.5-0.7,2.9-2.2,3.2c-1.5,0.3-2.9-0.7-3.2-2.2
							c-0.3-1.5,0.7-2.9,2.2-3.2c0,0,0,0,0,0c0.4-0.1,0.9-0.1,1.3,0.1c-1.8-0.8-4,0-4.9,1.8c-0.3,0.7-0.4,1.4-0.3,2.2
							c0.4,2,2.3,3.3,4.3,2.9c2-0.4,3.3-2.3,2.9-4.3C192,161.1,191.9,160.9,191.8,160.6z"/>
					</g>
					<path class="st28" d="M183.2,154.1c0,0-0.8-4.1,0.6-6.6c0.7-1.2,1.8-2.1,3.1-2.5c0.4-0.1,0.9,0.1,1,0.5l0,0
						c0.1,0.4-0.1,0.8-0.4,1c-1.3,0.5-2.3,1.5-2.8,2.8c-0.6,2.3-0.8,4.9-0.8,4.9S183.2,154.1,183.2,154.1z"/>
					<path class="st31" d="M183.6,149.4c0.6-2.2,2.6-3.6,4-4.2c-0.2-0.2-0.5-0.2-0.7-0.2c-1.3,0.4-2.4,1.3-3.1,2.5
						c-1.4,2.5-0.6,6.6-0.6,6.6s0.2,0.1,0.4,0.1C183.2,152.6,183.3,150.9,183.6,149.4z"/>
					<path class="st32" d="M182.2,153.1c0.3,1.7-0.8,3.3-2.4,3.6c-1.7,0.3-3.3-0.8-3.6-2.4c-0.3-1.7,0.8-3.3,2.4-3.6c0,0,0,0,0,0
						C180.3,150.3,181.9,151.4,182.2,153.1C182.2,153.1,182.2,153.1,182.2,153.1z"/>
					<g class="st33">
						<path class="st32" d="M182,152.4c0,0.1,0,0.2,0.1,0.2c0.2,1.2-0.6,2.4-1.8,2.7s-2.4-0.6-2.7-1.8s0.6-2.4,1.8-2.7
							c0.4-0.1,0.7,0,1.1,0.1c-1.5-0.7-3.4,0-4.1,1.5c-0.7,1.5,0,3.4,1.5,4.1c1.5,0.7,3.4,0,4.1-1.5c0.3-0.6,0.3-1.2,0.2-1.8
							C182.2,152.9,182.1,152.6,182,152.4z"/>
					</g>
					<path class="st32" d="M186.7,154.5c0.3,1.7-0.8,3.3-2.4,3.6c-1.7,0.3-3.3-0.8-3.6-2.4c-0.3-1.7,0.8-3.3,2.4-3.6c0,0,0,0,0,0
						C184.8,151.7,186.4,152.8,186.7,154.5z"/>
					<g class="st33">
						<path class="st32" d="M186.5,153.8c0,0.1,0,0.2,0.1,0.2c0.2,1.2-0.6,2.5-1.8,2.7c-1.2,0.2-2.5-0.6-2.7-1.8
							c-0.2-1.2,0.6-2.5,1.8-2.7c0,0,0,0,0,0c0.4-0.1,0.7,0,1.1,0.1c-0.6-0.3-1.2-0.3-1.9-0.2c-1.7,0.3-2.7,1.9-2.4,3.6
							s1.9,2.7,3.6,2.4s2.7-1.9,2.4-3.6c0,0,0,0,0,0C186.7,154.3,186.6,154,186.5,153.8z"/>
					</g>
					<path class="st32" d="M190.8,155.8c0.3,1.7-0.8,3.3-2.4,3.6c-1.7,0.3-3.3-0.8-3.6-2.4c-0.3-1.7,0.8-3.3,2.4-3.6c0,0,0,0,0,0
						C188.8,153,190.4,154.1,190.8,155.8z"/>
					<g class="st33">
						<path class="st32" d="M190.5,155.1c0,0.1,0,0.2,0.1,0.2c0.2,1.2-0.6,2.4-1.8,2.7s-2.4-0.6-2.7-1.8s0.6-2.4,1.8-2.7
							c0.4-0.1,0.7,0,1.1,0.1c-0.6-0.3-1.2-0.3-1.9-0.2c-1.2,0.2-2.2,1.2-2.4,2.4c-0.1,0.4-0.1,0.8,0,1.2c0.4,1.6,2.1,2.6,3.7,2.2
							c1.5-0.4,2.5-1.8,2.3-3.4C190.7,155.5,190.6,155.3,190.5,155.1z"/>
					</g>
					<path class="st32" d="M179.8,167.8c0.3,1.7-0.8,3.3-2.4,3.6c-1.7,0.3-3.3-0.8-3.6-2.4c-0.3-1.7,0.8-3.3,2.4-3.6c0,0,0,0,0,0
						C177.8,165,179.4,166.1,179.8,167.8z"/>
					<g class="st33">
						<path class="st32" d="M179.6,167.1c0,0.1,0,0.2,0,0.2c0.2,1.2-0.6,2.5-1.8,2.7c-1.2,0.2-2.5-0.6-2.7-1.8
							c-0.2-1.2,0.6-2.5,1.8-2.7c0.4-0.1,0.8-0.1,1.1,0.1c-1.5-0.7-3.4,0-4.1,1.5c-0.7,1.5,0,3.4,1.5,4.1c1.5,0.7,3.4,0,4.1-1.5
							c0.3-0.6,0.3-1.2,0.2-1.9C179.7,167.5,179.6,167.3,179.6,167.1z"/>
					</g>
					<path class="st32" d="M185.1,169.1c0.3,1.7-0.8,3.3-2.4,3.6c-1.7,0.3-3.3-0.8-3.6-2.4c-0.3-1.7,0.8-3.3,2.4-3.6c0,0,0,0,0,0
						C183.1,166.4,184.8,167.5,185.1,169.1z"/>
					<g class="st33">
						<path class="st32" d="M184.9,168.5l0.1,0.2c0.2,1.3-0.6,2.5-1.8,2.7s-2.5-0.6-2.7-1.8s0.6-2.5,1.8-2.7c0,0,0,0,0,0
							c0.4-0.1,0.8,0,1.1,0.1c-1.5-0.7-3.4,0-4.1,1.5c-0.7,1.5,0,3.4,1.5,4.1c1.5,0.7,3.4,0,4.1-1.5c0.3-0.6,0.3-1.2,0.2-1.9
							C185,168.9,185,168.7,184.9,168.5z"/>
					</g>
					<path class="st32" d="M178.8,162.7c0.3,1.8-0.8,3.5-2.6,3.9c-1.8,0.3-3.5-0.8-3.9-2.6c-0.3-1.8,0.8-3.5,2.6-3.9
						C176.7,159.8,178.5,160.9,178.8,162.7C178.8,162.7,178.8,162.7,178.8,162.7z"/>
					<g class="st33">
						<path class="st32" d="M178.6,162l0.1,0.2c0.2,1.3-0.7,2.6-2,2.9c-1.3,0.2-2.6-0.7-2.9-2c-0.2-1.3,0.6-2.6,2-2.9
							c0.4-0.1,0.8-0.1,1.2,0.1c-0.6-0.3-1.3-0.4-2-0.2c-1.8,0.3-3,2.1-2.6,3.9c0.3,1.8,2.1,3,3.9,2.6c1.8-0.3,3-2.1,2.6-3.9
							C178.7,162.5,178.7,162.2,178.6,162z"/>
					</g>
					<path class="st32" d="M183.9,164.4c0.3,1.8-0.8,3.5-2.6,3.9c-1.8,0.3-3.5-0.8-3.9-2.6c-0.3-1.8,0.8-3.5,2.6-3.9
						C181.8,161.5,183.5,162.6,183.9,164.4C183.9,164.4,183.9,164.4,183.9,164.4z"/>
					<g class="st33">
						<path class="st32" d="M183.6,163.7c0,0.1,0,0.2,0.1,0.2c0.2,1.3-0.7,2.6-2,2.9c-1.3,0.2-2.6-0.7-2.9-2c-0.2-1.3,0.6-2.6,2-2.9
							c0.4-0.1,0.8-0.1,1.2,0.1c-0.6-0.3-1.3-0.4-2-0.2c-1.8,0.3-3,2.1-2.6,3.9c0.3,1.8,2.1,3,3.9,2.6c1.8-0.3,3-2.1,2.6-3.9
							C183.8,164.2,183.7,163.9,183.6,163.7z"/>
					</g>
					<path class="st32" d="M188.6,160.3c0.4,2-0.9,3.9-2.9,4.3c-2,0.4-3.9-0.9-4.3-2.9c-0.4-2,0.9-3.9,2.9-4.3
						C186.3,157,188.3,158.3,188.6,160.3C188.6,160.3,188.6,160.3,188.6,160.3z"/>
					<g class="st33">
						<path class="st32" d="M188.4,159.5c0,0.1,0.1,0.2,0.1,0.3c0.3,1.5-0.7,2.9-2.2,3.2c-1.5,0.3-2.9-0.7-3.2-2.2
							c-0.3-1.5,0.7-2.9,2.2-3.2c0,0,0,0,0,0c0.4-0.1,0.9-0.1,1.3,0.1c-1.8-0.8-4,0-4.9,1.8c-0.3,0.7-0.4,1.4-0.3,2.2
							c0.4,2,2.3,3.3,4.3,2.9c2-0.4,3.3-2.3,2.9-4.3C188.6,160,188.5,159.8,188.4,159.5z"/>
					</g>
					<path class="st32" d="M179.3,156.9c0.4,2-1,3.9-2.9,4.3c-2,0.4-3.9-1-4.3-2.9c-0.4-2,0.9-3.9,2.9-4.3
						C177,153.6,178.9,154.9,179.3,156.9C179.3,156.9,179.3,156.9,179.3,156.9z"/>
					<g class="st33">
						<path class="st32" d="M179.1,156.1c0,0.1,0.1,0.2,0.1,0.3c0.3,1.5-0.7,2.9-2.2,3.2c-1.5,0.3-2.9-0.7-3.2-2.2
							c-0.3-1.5,0.7-2.9,2.2-3.2c0.4-0.1,0.9-0.1,1.3,0.1c-0.7-0.3-1.5-0.4-2.2-0.3c-2,0.4-3.3,2.3-2.9,4.3c0.4,2,2.3,3.3,4.3,2.9
							c2-0.4,3.3-2.3,2.9-4.3c0,0,0,0,0,0C179.2,156.6,179.2,156.4,179.1,156.1z"/>
					</g>
					<circle class="st32" cx="180.7" cy="159.5" r="3.7"/>
					<g class="st33">
						<path class="st32" d="M184.1,158c0,0.1,0,0.2,0.1,0.3c0.3,1.5-0.7,2.9-2.2,3.2c-1.5,0.3-2.9-0.7-3.2-2.2
							c-0.3-1.5,0.7-2.9,2.2-3.2c0,0,0,0,0,0c0.4-0.1,0.9-0.1,1.3,0.1c-1.8-0.8-4,0-4.9,1.8s0,4,1.8,4.9c1.8,0.8,4,0,4.9-1.8
							c0.3-0.7,0.4-1.5,0.3-2.2C184.3,158.5,184.2,158.3,184.1,158z"/>
					</g>
					<g class="st34">
						<path class="st10" d="M181.3,152.5c0,0.3-0.4,0.2-0.4-0.1c0-0.2-0.1-0.5-0.3-0.6l-0.1-0.1c0,0-0.1,0-0.1,0h-0.1l0,0h-0.1
							c-0.1,0-0.2-0.1-0.1-0.2c0,0,0,0,0,0c0-0.1,0.1-0.2,0.2-0.1c0,0,0,0,0,0h0.1c0.2,0,0.4,0.1,0.6,0.2l0,0
							C181.2,151.9,181.3,152.2,181.3,152.5z M185,152.7c-0.6-0.1-1.2,0.1-1.6,0.6c-0.2,0.2,0.2,0.4,0.3,0.2
							c0.3-0.3,0.7-0.5,1.2-0.4C185.2,153.2,185.2,152.8,185,152.7L185,152.7z M188.2,153.9c-0.7,0.2-1.2,0.7-1.3,1.4
							c0,0.1,0.1,0.2,0.3,0.2c0.1,0,0.1-0.1,0.2-0.2c0.1-0.5,0.4-0.9,0.9-1C188.5,154.3,188.5,153.9,188.2,153.9z M186.4,158
							c-0.2-0.1-0.4,0.3-0.2,0.4c0.4,0.2,0.7,0.6,0.7,1.1c0,0.3,0.4,0.3,0.4,0C187.3,158.9,187,158.3,186.4,158L186.4,158z
							 M182.6,157.4c-0.8-0.3-1.8-0.1-2.4,0.6c-0.2,0.2,0.1,0.4,0.3,0.2c0.5-0.5,1.2-0.7,1.9-0.4c0.1,0,0.2,0,0.3-0.1
							C182.8,157.6,182.7,157.5,182.6,157.4L182.6,157.4z M176.1,154.9c-0.8,0.3-1.3,1.2-1,2.1c0.1,0.3,0.5,0.1,0.4-0.2
							c-0.2-0.6,0.2-1.3,0.8-1.6C176.5,155.2,176.4,154.8,176.1,154.9L176.1,154.9z M190.7,159.8c-0.1-0.1-0.2,0-0.3,0.1
							c0,0.1,0,0.2,0,0.2c0.3,0.2,0.4,0.5,0.3,0.9c-0.1,0.3,0.4,0.3,0.4,0C191.2,160.5,191,160,190.7,159.8L190.7,159.8z
							 M185.9,167.1c-0.5-0.1-0.9-0.6-0.8-1.2c0,0,0-0.1,0-0.1c0.1-0.3-0.4-0.3-0.4,0c-0.2,0.8,0.3,1.5,1.1,1.7c0,0,0,0,0,0
							C186.1,167.6,186.1,167.1,185.9,167.1L185.9,167.1z M180.2,165.2c-0.4-0.3-0.6-0.7-0.5-1.2c0-0.3-0.4-0.3-0.4-0.1
							c-0.1,0.8,0.3,1.5,1,1.8c0.1,0,0.2,0,0.3-0.1c0,0,0-0.1,0-0.1v-0.2c0-0.1-0.1-0.2-0.2-0.2
							C180.3,165.1,180.3,165.2,180.2,165.2L180.2,165.2z M175.2,163.8c-0.5-0.2-0.7-0.7-0.5-1.2c0,0,0-0.1,0-0.1
							c0.1-0.2-0.2-0.5-0.3-0.2c-0.4,0.6-0.2,1.4,0.4,1.8c0.1,0,0.1,0.1,0.2,0.1C175.3,164.3,175.4,163.9,175.2,163.8L175.2,163.8z
							 M177.1,168.8c-0.5-0.1-0.8-0.6-0.7-1.1c0,0,0,0,0,0c0.1-0.3-0.3-0.4-0.4-0.1c-0.2,0.7,0.2,1.4,0.9,1.6c0,0,0.1,0,0.1,0
							C177.3,169.3,177.4,168.9,177.1,168.8L177.1,168.8z M179.3,172.8c-0.5-0.1-0.9-0.4-1-0.9c-0.1-0.3-0.5-0.2-0.4,0.1
							c0.2,0.7,0.7,1.2,1.4,1.3c0.1,0,0.2-0.2,0.1-0.3C179.4,172.9,179.3,172.9,179.3,172.8L179.3,172.8z"/>
					</g>
					<path class="st28" d="M59.5,112.1c1.2-0.5,2.2-1.4,2.8-2.5c0.3-0.6,0.5-1.2,0.6-1.9c0-0.1-0.1-0.2-0.2-0.3c-0.1,0-0.1,0-0.2,0
						l-0.7,0.3c0.2-0.7,0.2-1.4,0.1-2.1c-0.1-0.5-0.1-0.9-0.2-1.2c0-0.2-0.2-0.3-0.3-0.2c-0.1,0-0.1,0-0.1,0.1l-0.2,0.2v-3
						c-1.2,0.7-2.3,1.5-3.3,2.4c-0.6,0.5-1,1.2-1.2,1.9l-0.4-0.8c-0.1-0.1-0.3-0.2-0.4-0.1c0,0-0.1,0.1-0.1,0.1
						c-0.4,0.6-0.9,2-0.2,5C56.4,114.4,59.5,112.1,59.5,112.1z"/>
					<path class="st31" d="M55.5,110.1c-0.7-2.9-0.2-4.4,0.2-5c0.1-0.1,0.3-0.2,0.4-0.1c0,0,0.1,0.1,0.1,0.1l0.4,0.8
						c0.3-0.7,0.7-1.4,1.2-1.9c1-0.9,2.1-1.8,3.3-2.4c0,0-3.4,5.6-4.3,10.9C56.1,112,55.6,111.1,55.5,110.1z"/>
					<path class="st32" d="M64,124.6c1,1,1.1,2.7,0.1,3.7c-1,1-2.7,1.1-3.7,0.1c-1-1-1.1-2.7-0.1-3.7c0,0,0,0,0,0
						C61.3,123.6,63,123.6,64,124.6z"/>
					<g class="st33">
						<path class="st32" d="M63.5,124.2l0.2,0.1c0.8,0.8,0.8,2,0,2.8s-2,0.8-2.8,0c-0.8-0.8-0.8-2,0-2.8c0,0,0,0,0,0
							c0.2-0.2,0.5-0.4,0.8-0.5c-1.4,0.3-2.4,1.6-2.1,3.1c0.3,1.4,1.6,2.4,3.1,2.1s2.4-1.6,2.1-3.1c-0.1-0.5-0.4-1-0.8-1.4
							C63.8,124.4,63.7,124.3,63.5,124.2z"/>
					</g>
					<path class="st32" d="M66,116.7c1.1,1.1,1.1,2.9,0,4c-1.1,1.1-2.9,1.1-4,0s-1.1-2.9,0-4c0,0,0,0,0,0
						C63.1,115.6,64.9,115.6,66,116.7C66,116.7,66,116.7,66,116.7z"/>
					<g class="st33">
						<path class="st32" d="M65.4,116.3l0.2,0.1c0.8,0.8,0.8,2.2,0,3s-2.2,0.8-3,0c-0.8-0.8-0.8-2.2,0-3c0,0,0,0,0,0
							c0.2-0.3,0.5-0.4,0.9-0.5c-1.5,0.3-2.5,1.8-2.2,3.3c0.3,1.5,1.8,2.5,3.3,2.2c0.5-0.1,1-0.4,1.4-0.7c1.1-1.1,1.1-2.9,0-4
							c0,0,0,0,0,0C65.8,116.5,65.6,116.4,65.4,116.3z"/>
					</g>
					<path class="st32" d="M66.1,112c1.2,1.2,1.3,3.2,0.1,4.4c-1.2,1.2-3.2,1.3-4.4,0.1c-1.2-1.2-1.3-3.2-0.1-4.4c0,0,0,0,0,0
						C62.8,110.8,64.8,110.8,66.1,112C66.1,112,66.1,112,66.1,112z"/>
					<g class="st33">
						<path class="st32" d="M65.5,111.6l0.2,0.2c0.9,0.9,0.9,2.4,0,3.3s-2.4,0.9-3.3,0c-0.9-0.9-0.9-2.4,0-3.3
							c0.3-0.3,0.6-0.5,1-0.6c-0.6,0.1-1.2,0.4-1.7,0.9c-1.2,1.2-1.2,3.2,0,4.4c1.2,1.2,3.2,1.2,4.4,0c1.2-1.2,1.2-3.2,0-4.4
							c0,0,0,0,0,0C65.9,111.8,65.7,111.7,65.5,111.6z"/>
					</g>
					<path class="st28" d="M56.3,111.2c0,0-2.6-2.5-2.8-4.9c-0.1-1.2,0.2-2.4,0.9-3.3c0.2-0.3,0.6-0.3,0.9-0.1l0,0
						c0.3,0.2,0.4,0.6,0.2,0.9c-0.7,1-0.9,2.2-0.6,3.3c0.7,1.9,1.9,3.8,1.8,3.9S56.3,111.2,56.3,111.2z"/>
					<path class="st31" d="M54.3,107.7c-0.5-1.7-0.2-3.5,0.7-4.9c-0.2,0-0.5,0.1-0.6,0.2c-0.7,0.9-1.1,2.1-0.9,3.3
						c0.3,2.4,2.8,4.9,2.8,4.9c0.1,0,0.2-0.1,0.3-0.1C55.6,110.2,54.8,109,54.3,107.7z"/>
					<path class="st32" d="M55.1,111c1,1,1,2.7,0,3.7c-1,1-2.7,1-3.7,0c-1-1-1-2.7,0-3.7C52.5,110,54.1,110,55.1,111z"/>
					<g class="st33">
						<path class="st32" d="M54.7,110.6l0.2,0.1c0.8,0.8,0.8,2,0.1,2.8c-0.8,0.8-2,0.8-2.8,0.1s-0.8-2-0.1-2.8c0,0,0,0,0.1-0.1
							c0.2-0.2,0.5-0.4,0.8-0.5c-0.5,0.1-1,0.4-1.4,0.8c-1,1-1,2.7,0,3.7c1,1,2.7,1,3.7,0s1-2.7,0-3.7c0,0,0,0,0,0
							C55,110.8,54.8,110.7,54.7,110.6z"/>
					</g>
					<path class="st32" d="M59,109.8c1,1,1,2.7,0,3.7c-1,1-2.7,1-3.7,0c-1-1-1-2.7,0-3.7C56.3,108.7,58,108.7,59,109.8
						C59,109.8,59,109.8,59,109.8z"/>
					<g class="st33">
						<path class="st32" d="M58.5,109.4c0.1,0,0.1,0.1,0.2,0.1c0.8,0.8,0.8,2,0,2.8c-0.8,0.8-2,0.8-2.8,0c-0.8-0.8-0.8-2,0-2.8
							c0,0,0,0,0,0c0.2-0.2,0.5-0.4,0.8-0.5c-1.4,0.3-2.3,1.6-2.1,3c0.3,1.4,1.6,2.3,3,2.1c1.4-0.3,2.3-1.6,2.1-3
							c-0.1-0.5-0.4-1-0.7-1.4C58.8,109.6,58.6,109.5,58.5,109.4z"/>
					</g>
					<path class="st32" d="M62.4,108.7c1,1,1.1,2.7,0.1,3.7s-2.7,1.1-3.7,0.1c-1-1-1.1-2.7-0.1-3.7c0,0,0,0,0,0
						C59.7,107.7,61.4,107.7,62.4,108.7C62.4,108.7,62.4,108.7,62.4,108.7z"/>
					<g class="st33">
						<path class="st32" d="M61.9,108.3l0.2,0.1c0.8,0.8,0.8,2,0,2.8c-0.8,0.8-2,0.8-2.8,0c-0.8-0.8-0.8-2,0-2.8c0,0,0,0,0,0
							c0.2-0.2,0.5-0.4,0.8-0.5c-0.5,0.1-1,0.4-1.4,0.8c-0.7,0.8-0.9,1.9-0.5,2.8c0.1,0.3,0.3,0.6,0.6,0.9c1,1,2.7,1,3.7-0.1
							s1-2.7-0.1-3.7C62.2,108.5,62.1,108.4,61.9,108.3z"/>
					</g>
					<path class="st32" d="M60.6,122.5c1,1,1,2.7,0,3.7c-1,1-2.7,1-3.7,0c-1-1-1-2.7,0-3.7C57.9,121.4,59.6,121.4,60.6,122.5
						C60.6,122.5,60.6,122.5,60.6,122.5z"/>
					<g class="st33">
						<path class="st32" d="M60.1,122.1l0.2,0.1c0.8,0.8,0.8,2,0.1,2.8s-2,0.8-2.8,0.1s-0.8-2-0.1-2.8c0.2-0.2,0.5-0.4,0.8-0.5
							c-0.5,0.1-1,0.4-1.4,0.8c-1,1-1,2.7,0,3.7c1,1,2.7,1,3.7,0c1-1,1-2.7,0-3.7C60.4,122.4,60.3,122.2,60.1,122.1z"/>
					</g>
					<path class="st32" d="M65,120.8c1,1,1,2.7,0,3.7c-1,1-2.7,1-3.7,0c-1-1-1-2.7,0-3.7c0,0,0,0,0,0C62.3,119.8,64,119.8,65,120.8
						C65,120.8,65,120.8,65,120.8z"/>
					<g class="st33">
						<path class="st32" d="M64.5,120.5l0.2,0.1c0.8,0.8,0.8,2,0.1,2.8s-2,0.8-2.8,0.1s-0.8-2-0.1-2.8c0.2-0.2,0.5-0.4,0.8-0.5
							c-0.5,0.1-1,0.4-1.4,0.8c-1,1-1,2.7,0,3.7c1,1,2.7,1,3.7,0s1-2.7,0-3.7c0,0,0,0,0,0C64.8,120.7,64.7,120.6,64.5,120.5z"/>
					</g>
					<path class="st32" d="M57.5,119.4c1.1,1.1,1.1,2.9,0,4c-1.1,1.1-2.9,1.1-4,0c-1.1-1.1-1.1-2.9,0-4
						C54.5,118.3,56.3,118.3,57.5,119.4C57.4,119.4,57.4,119.4,57.5,119.4z"/>
					<g class="st33">
						<path class="st32" d="M56.9,119l0.2,0.1c0.8,0.8,0.8,2.2,0,3c-0.8,0.8-2.2,0.8-3,0s-0.8-2.2,0-3c0.2-0.3,0.5-0.4,0.9-0.5
							c-1.5,0.3-2.5,1.8-2.3,3.3c0.3,1.5,1.8,2.5,3.3,2.3c1.5-0.3,2.5-1.8,2.3-3.3c-0.1-0.6-0.4-1.1-0.8-1.5
							C57.3,119.2,57.1,119.1,56.9,119z"/>
					</g>
					<path class="st32" d="M61.8,118.1c1.1,1.1,1.1,2.9,0,4s-2.9,1.1-4,0c-1.1-1.1-1.1-2.9-0.1-4C58.9,117,60.7,117,61.8,118.1z"/>
					<g class="st33">
						<path class="st32" d="M61.3,117.7l0.2,0.1c0.7,0.9,0.6,2.3-0.3,3c-0.8,0.6-1.8,0.6-2.6,0c-0.8-0.8-0.9-2.2,0-3
							c0.2-0.2,0.5-0.4,0.9-0.5c-0.6,0.1-1.1,0.4-1.5,0.8c-1.1,1.1-1.1,2.9,0,4c1.1,1.1,2.9,1.1,4,0c1.1-1.1,1.1-2.9,0-4
							C61.7,118,61.5,117.8,61.3,117.7L61.3,117.7z"/>
					</g>
					<path class="st32" d="M63.2,112.9c1.2,1.2,1.3,3.2,0.1,4.4c-1.2,1.2-3.2,1.3-4.4,0.1c-1.2-1.2-1.3-3.2-0.1-4.4c0,0,0,0,0,0
						C59.9,111.7,61.9,111.7,63.2,112.9z"/>
					<g class="st33">
						<path class="st32" d="M62.6,112.4l0.2,0.2c0.9,0.9,1,2.4,0.1,3.3c-0.9,0.9-2.4,1-3.3,0.1s-1-2.4-0.1-3.3
							c0.3-0.3,0.6-0.5,1-0.6c-0.6,0.1-1.2,0.4-1.7,0.9c-1.2,1.2-1.2,3.2,0.1,4.4s3.2,1.2,4.4-0.1c1.2-1.2,1.2-3.2-0.1-4.4
							c0,0,0,0,0,0C63,112.7,62.8,112.6,62.6,112.4z"/>
					</g>
					<path class="st32" d="M55,115.1c1.2,1.2,1.3,3.2,0.1,4.4s-3.2,1.3-4.4,0.1c-1.2-1.2-1.3-3.2-0.1-4.4c0,0,0,0,0,0
						C51.8,113.9,53.8,113.9,55,115.1z"/>
					<g class="st33">
						<path class="st32" d="M54.4,114.7l0.2,0.2c0.9,0.9,0.9,2.4,0,3.3c-0.9,0.9-2.4,0.9-3.3,0c-0.9-0.9-0.9-2.4,0-3.3
							c0.3-0.3,0.6-0.5,1-0.6c-0.6,0.1-1.2,0.4-1.7,0.9c-1.2,1.2-1.2,3.2,0.1,4.4s3.2,1.2,4.4-0.1c1.2-1.2,1.2-3.2-0.1-4.4
							c0,0,0,0,0,0C54.8,114.9,54.6,114.8,54.4,114.7z"/>
					</g>
					<path class="st32" d="M59.4,113.9c1.3,1.2,1.3,3.2,0.1,4.4c-1.2,1.3-3.2,1.3-4.4,0.1c-1.3-1.2-1.3-3.2-0.1-4.4c0,0,0,0,0-0.1
						C56.2,112.8,58.2,112.7,59.4,113.9z"/>
					<g class="st33">
						<path class="st32" d="M58.8,113.5l0.2,0.2c0.9,0.9,0.9,2.4,0,3.3s-2.4,0.9-3.3,0c-0.9-0.9-0.9-2.4,0-3.3
							c0.3-0.3,0.6-0.5,1-0.6c-0.6,0.1-1.2,0.5-1.7,0.9c-1.2,1.2-1.2,3.2,0,4.4c1.2,1.2,3.2,1.2,4.4,0c1.2-1.2,1.2-3.2,0-4.4
							c0,0,0,0,0,0C59.2,113.8,59,113.6,58.8,113.5z"/>
					</g>
					<g class="st34">
						<path class="st10" d="M54.2,111c0.1,0.2-0.2,0.4-0.3,0.2c-0.1-0.2-0.3-0.3-0.5-0.3h-0.1c0,0,0,0-0.1,0h-0.1l0,0l0,0
							c-0.1,0-0.2,0-0.2-0.1c0,0,0,0,0,0c0-0.1,0-0.2,0.1-0.2c0,0,0,0,0,0h0c0.1-0.1,0.3-0.2,0.5-0.1l0,0
							C53.8,110.5,54.1,110.7,54.2,111z M56.9,109.4c-0.5,0.2-0.8,0.7-0.8,1.2c0,0.2,0.3,0.2,0.3,0c0-0.4,0.3-0.7,0.6-0.9
							C57.2,109.6,57.1,109.3,56.9,109.4z M59.7,108.6c-0.4,0.4-0.5,1.1-0.2,1.6c0.1,0.2,0.4,0,0.3-0.2c-0.2-0.4-0.2-0.9,0.1-1.2
							C60.1,108.7,59.9,108.4,59.7,108.6z M60.4,112.4c-0.2,0-0.1,0.4,0.1,0.3c0.4-0.1,0.8,0.1,1,0.5c0.1,0.2,0.4,0,0.3-0.2
							C61.5,112.5,61,112.3,60.4,112.4z M57.5,113.8c-0.7,0.2-1.3,0.8-1.4,1.6c0,0.2,0.3,0.2,0.4,0c0.1-0.6,0.5-1.1,1.1-1.2
							c0.1,0,0.1-0.2,0.1-0.2C57.7,113.9,57.6,113.8,57.5,113.8z M51.7,115.2c-0.5,0.6-0.3,1.5,0.3,2c0,0,0,0,0,0
							c0.2,0.1,0.4-0.2,0.2-0.3c-0.5-0.4-0.5-1-0.2-1.5C52.2,115.2,51.8,115.1,51.7,115.2z M64.3,111.5c-0.1,0-0.2,0.1-0.2,0.2
							s0.1,0.2,0.2,0.2l0,0c0.3,0,0.5,0.2,0.7,0.4c0.1,0.2,0.4,0,0.3-0.2C65.1,111.8,64.7,111.5,64.3,111.5z M64.5,119
							c-0.5,0.2-1,0-1.1-0.5c0,0,0,0,0,0c-0.1-0.2-0.4,0-0.3,0.2c0.3,0.6,1,0.9,1.6,0.6c0,0,0,0,0,0C64.9,119.2,64.8,118.9,64.5,119
							L64.5,119z M59.7,120.5c-0.4,0-0.8-0.2-0.9-0.6c0-0.1-0.2-0.1-0.2-0.1c-0.1,0-0.1,0.2-0.1,0.2l0,0c0.3,0.6,1,0.9,1.6,0.8
							c0.1,0,0.2-0.1,0.1-0.2c0,0,0-0.1,0-0.1l-0.1-0.2c-0.1-0.1-0.2-0.1-0.2,0C59.7,120.3,59.7,120.4,59.7,120.5z M55.4,121.9
							c-0.4,0.1-0.8-0.2-0.9-0.6c0,0,0-0.1,0-0.1c0-0.2-0.4-0.2-0.4,0c0,0.6,0.6,1.1,1.2,1.1c0,0,0.1,0,0.1,0c0.1,0,0.2-0.1,0.1-0.2
							S55.5,121.9,55.4,121.9z M59.2,124.5c-0.4,0.2-0.8,0-1-0.4c0,0,0,0,0,0c-0.1-0.2-0.4-0.1-0.3,0.1c0.2,0.6,0.9,0.9,1.4,0.7
							c0,0,0.1,0,0.1,0C59.6,124.8,59.5,124.4,59.2,124.5z M62.7,126.2c-0.4,0.2-0.8,0.2-1.2-0.1c-0.2-0.2-0.4,0.1-0.3,0.2
							c0.4,0.4,1.1,0.5,1.6,0.2C63.1,126.4,63,126.1,62.7,126.2z"/>
					</g>
					<path class="st28" d="M143.6,52.3c1,0.1,1.9-0.2,2.7-0.8c0.4-0.3,0.7-0.7,1-1.1c0.1-0.1,0-0.2,0-0.2c0,0-0.1,0-0.1,0h-0.6
						c0.3-0.4,0.6-0.9,0.7-1.4c0.1-0.3,0.2-0.6,0.2-0.8c0-0.1,0-0.2-0.2-0.3c0,0-0.1,0-0.1,0l-0.1,0.1l0.9-2c-1,0.1-2,0.3-3,0.6
						c-0.5,0.2-1,0.5-1.4,0.9v-0.7c0-0.1-0.1-0.2-0.2-0.2c0,0-0.1,0-0.1,0c-0.4,0.3-1.2,1.1-1.7,3.3
						C140.9,52.9,143.6,52.3,143.6,52.3z"/>
					<path class="st31" d="M141.6,49.7c0.5-2.2,1.2-3,1.7-3.3c0.1-0.1,0.2-0.1,0.3,0c0,0,0,0.1,0,0.1v0.7c0.4-0.4,0.9-0.7,1.4-0.9
						c1-0.3,2-0.5,3-0.6c-2.4,1.7-4.5,3.7-6.2,6.1C141.4,51.2,141.3,50.4,141.6,49.7z"/>
					<path class="st32" d="M142.9,62.2c0.6,0.9,0.4,2.2-0.6,2.8s-2.2,0.4-2.8-0.6c-0.2-0.2-0.3-0.5-0.3-0.8
						c-0.2-1.1,0.6-2.1,1.6-2.3C141.7,61.2,142.5,61.5,142.9,62.2z"/>
					<g class="st33">
						<path class="st32" d="M142.7,61.8c0,0,0.1,0.1,0.1,0.1c0.3,0.8-0.1,1.6-0.8,1.9c-0.8,0.3-1.6-0.1-1.9-0.8s0.1-1.6,0.8-1.9
							c0.2-0.1,0.5-0.1,0.7-0.1c-1.1-0.3-2.2,0.4-2.4,1.4c-0.3,1.1,0.4,2.2,1.4,2.4s2.2-0.4,2.4-1.4C143.1,62.9,143,62.3,142.7,61.8
							L142.7,61.8z"/>
					</g>
					<path class="st32" d="M146.6,57.4c0.4,1.1-0.1,2.3-1.2,2.7c-1.1,0.4-2.3-0.1-2.7-1.2c-0.4-1.1,0.1-2.3,1.2-2.7c0,0,0,0,0,0
						C145,55.8,146.2,56.3,146.6,57.4C146.6,57.4,146.6,57.4,146.6,57.4z"/>
					<g class="st33">
						<path class="st32" d="M146.4,57l0.1,0.2c0.3,0.8-0.1,1.7-0.9,2c-0.8,0.3-1.7-0.1-2-0.9c-0.3-0.8,0.1-1.7,0.9-2c0,0,0,0,0,0
							c0.2-0.1,0.5-0.1,0.8-0.1c-0.4-0.1-0.9-0.1-1.3,0.1c-1.1,0.4-1.6,1.6-1.2,2.7c0.4,1.1,1.6,1.6,2.7,1.2
							c1.1-0.4,1.6-1.6,1.2-2.7C146.6,57.3,146.5,57.1,146.4,57z"/>
					</g>
					<path class="st32" d="M148.2,54.3c0.5,1.2-0.1,2.6-1.3,3c-1.2,0.5-2.6-0.1-3-1.3s0.1-2.6,1.3-3c0,0,0,0,0,0
						C146.4,52.5,147.7,53.1,148.2,54.3z"/>
					<g class="st33">
						<path class="st32" d="M147.9,53.8c0,0.1,0.1,0.1,0.1,0.2c0.3,0.9-0.1,1.9-1,2.3s-1.9-0.1-2.3-1c-0.3-0.9,0.1-1.9,1-2.3
							c0.3-0.1,0.6-0.1,0.8-0.1c-0.5-0.1-1-0.1-1.4,0.1c-1.2,0.5-1.8,1.8-1.4,3c0.5,1.2,1.8,1.8,3,1.4s1.8-1.8,1.4-3c0,0,0,0,0,0
							C148.1,54.1,148,54,147.9,53.8z"/>
					</g>
					<path class="st28" d="M141.8,50.7c0,0-1-2.5-0.4-4.2c0.3-0.9,0.9-1.6,1.6-2c0.2-0.1,0.5,0,0.7,0.2l0,0c0.1,0.2,0.1,0.5-0.2,0.7
						c-0.8,0.4-1.3,1.2-1.4,2.1c-0.1,1.5,0.1,3.1,0.1,3.2S141.8,50.7,141.8,50.7z"/>
					<path class="st31" d="M141.5,47.7c0.2-1.3,0.9-2.4,2-3.1c-0.1-0.1-0.3-0.1-0.5,0c-0.8,0.4-1.4,1.1-1.6,2
						c-0.6,1.7,0.4,4.2,0.4,4.2c0.1,0,0.2,0,0.2,0C141.6,49.8,141.4,48.8,141.5,47.7z"/>
					<path class="st32" d="M141.1,50.2c0.4,1-0.1,2.1-1.1,2.5c-1,0.4-2.1-0.1-2.5-1.1c-0.4-1,0.1-2.1,1.1-2.5c0,0,0,0,0,0
						C139.5,48.7,140.7,49.2,141.1,50.2z"/>
					<g class="st33">
						<path class="st32" d="M140.8,49.8l0.1,0.1c0.3,0.7-0.1,1.6-0.8,1.9c0,0,0,0,0,0c-0.8,0.3-1.6-0.1-1.9-0.8
							c-0.3-0.8,0.1-1.6,0.8-1.9l0,0c0.2-0.1,0.5-0.1,0.7-0.1c-1.1-0.2-2.1,0.5-2.3,1.6c-0.1,0.3,0,0.7,0.1,1c0.3,1,1.4,1.6,2.5,1.3
							c1-0.3,1.6-1.4,1.3-2.5c0-0.1-0.1-0.2-0.1-0.2C141,50.1,140.9,49.9,140.8,49.8z"/>
					</g>
					<path class="st32" d="M144,50.6c0.4,1,0,2.2-1.1,2.6s-2.2,0-2.6-1.1c-0.4-1,0-2.2,1.1-2.6c0,0,0.1,0,0.1,0
						C142.5,49.1,143.6,49.6,144,50.6z"/>
					<g class="st33">
						<path class="st32" d="M143.8,50.2l0.1,0.1c0.3,0.7-0.1,1.6-0.8,1.9c-0.7,0.3-1.6-0.1-1.9-0.8c-0.3-0.7,0.1-1.6,0.8-1.9
							c0,0,0,0,0,0c0.2-0.1,0.5-0.1,0.7-0.1c-0.4-0.1-0.8-0.1-1.2,0.1c-1,0.4-1.6,1.5-1.2,2.6c0.4,1,1.5,1.6,2.6,1.2
							c1-0.4,1.6-1.5,1.2-2.6c0,0,0-0.1,0-0.1C144,50.4,143.9,50.3,143.8,50.2z"/>
					</g>
					<path class="st32" d="M146.7,50.9c0.4,1,0,2.2-1.1,2.6s-2.2,0-2.6-1.1c-0.4-1,0-2.2,1.1-2.6c0,0,0.1,0,0.1,0
						C145.2,49.4,146.3,49.9,146.7,50.9C146.7,50.9,146.7,50.9,146.7,50.9z"/>
					<g class="st33">
						<path class="st32" d="M146.5,50.5l0.1,0.1c0.3,0.8-0.1,1.6-0.8,1.9c-0.8,0.3-1.6-0.1-1.9-0.8c-0.3-0.7,0.1-1.6,0.8-1.9
							c0,0,0,0,0,0c0.2-0.1,0.5-0.1,0.7-0.1c-1-0.3-2.1,0.3-2.4,1.4c0,0.2-0.1,0.3-0.1,0.5c0,0.3,0,0.5,0.1,0.8
							c0.2,1.1,1.2,1.8,2.3,1.7c1.1-0.2,1.8-1.2,1.7-2.3c0-0.3-0.2-0.6-0.3-0.8C146.6,50.7,146.6,50.6,146.5,50.5z"/>
					</g>
					<path class="st32" d="M141.2,59.7c0.4,1-0.1,2.1-1.1,2.5c-0.9,0.6-2.2,0.4-2.8-0.6s-0.4-2.2,0.6-2.8c0.2-0.2,0.5-0.3,0.8-0.3
						C139.7,58.2,140.8,58.7,141.2,59.7z"/>
					<g class="st33">
						<path class="st32" d="M141,59.3l0.1,0.1c0.3,0.8-0.2,1.6-0.9,1.9c-0.7,0.2-1.5-0.1-1.8-0.8c-0.3-0.8,0.1-1.6,0.8-1.9
							c0.2-0.1,0.5-0.1,0.7-0.1c-0.4-0.1-0.8-0.1-1.2,0.1c-1,0.4-1.6,1.5-1.2,2.6c0.4,1,1.5,1.6,2.6,1.2c1-0.4,1.6-1.5,1.2-2.6
							c0,0,0-0.1,0-0.1C141.2,59.5,141.1,59.4,141,59.3z"/>
					</g>
					<path class="st32" d="M144.7,59.9c0.4,1-0.1,2.2-1.1,2.6c-1,0.4-2.2-0.1-2.6-1.1c-0.4-1,0.1-2.2,1.1-2.6c0,0,0,0,0.1,0
						C143.2,58.4,144.3,58.9,144.7,59.9C144.7,59.9,144.7,59.9,144.7,59.9z"/>
					<g class="st33">
						<path class="st32" d="M144.5,59.5l0.1,0.1c0.3,0.7-0.1,1.6-0.8,1.9c0,0,0,0,0,0c-0.8,0.3-1.6-0.1-1.9-0.8
							c-0.3-0.7,0.1-1.6,0.8-1.9c0,0,0,0,0,0c0.2-0.1,0.5-0.1,0.7-0.1c-1.1-0.3-2.2,0.4-2.4,1.4c-0.3,1.1,0.4,2.2,1.4,2.4
							c1.1,0.3,2.2-0.4,2.4-1.4c0.1-0.4,0.1-0.9-0.1-1.3C144.7,59.8,144.6,59.7,144.5,59.5z"/>
					</g>
					<path class="st32" d="M140,56.7c0.4,1.1-0.1,2.3-1.2,2.7c-1.1,0.4-2.3-0.1-2.7-1.2c-0.4-1.1,0.1-2.3,1.2-2.7c0,0,0,0,0,0
						C138.3,55,139.6,55.6,140,56.7z"/>
					<g class="st33">
						<path class="st32" d="M139.8,56.2l0.1,0.1c0.3,0.8,0,1.7-0.9,2.1c-0.8,0.3-1.7,0-2.1-0.9s0-1.7,0.9-2.1c0,0,0,0,0.1,0
							c0.2-0.1,0.5-0.1,0.8-0.1c-0.4-0.1-0.9-0.1-1.3,0.1c-1.1,0.4-1.7,1.6-1.3,2.7c0.4,1.1,1.6,1.7,2.7,1.3s1.7-1.6,1.3-2.7
							c0,0,0-0.1,0-0.1C140,56.5,139.9,56.4,139.8,56.2z"/>
					</g>
					<path class="st32" d="M143.4,57.1c0.4,1.1-0.1,2.3-1.2,2.7s-2.3-0.1-2.7-1.2c-0.4-1.1,0.1-2.3,1.2-2.7c0,0,0,0,0,0
						C141.8,55.5,143,56,143.4,57.1z"/>
					<g class="st33">
						<path class="st32" d="M143.2,56.7c0,0,0.1,0.1,0.1,0.2c0.3,0.8-0.1,1.7-0.9,2.1c-0.8,0.3-1.7-0.1-2.1-0.9
							c-0.3-0.8,0.1-1.7,0.9-2.1c0,0,0,0,0.1,0c0.2-0.1,0.5-0.1,0.8-0.1c-0.4-0.1-0.9-0.1-1.3,0.1c-1.1,0.4-1.6,1.6-1.2,2.7
							s1.6,1.6,2.7,1.2c1.1-0.4,1.6-1.6,1.2-2.7c0,0,0,0,0,0C143.4,57,143.3,56.8,143.2,56.7z"/>
					</g>
					<path class="st32" d="M145.9,54c0.5,1.2-0.1,2.6-1.3,3c-1.2,0.5-2.6-0.1-3-1.3s0.1-2.6,1.3-3c0,0,0,0,0,0
						C144.1,52.2,145.4,52.8,145.9,54z"/>
					<g class="st33">
						<path class="st32" d="M145.6,53.5c0,0.1,0.1,0.1,0.1,0.2c0.3,0.9-0.1,1.9-1,2.3s-1.9-0.1-2.3-1c-0.3-0.9,0.1-1.9,1-2.3
							c0.3-0.1,0.6-0.1,0.8-0.1c-0.5-0.1-1-0.1-1.4,0.1c-1.2,0.5-1.8,1.8-1.4,3c0.5,1.2,1.8,1.8,3,1.4s1.8-1.8,1.4-3c0,0,0,0,0,0
							C145.8,53.8,145.7,53.6,145.6,53.5z"/>
					</g>
					<path class="st32" d="M139.7,53c0.5,1.2-0.1,2.6-1.3,3c-1.2,0.5-2.6-0.1-3-1.3s0.1-2.6,1.3-3c0,0,0,0,0,0
						C137.9,51.2,139.2,51.8,139.7,53z"/>
					<g class="st33">
						<path class="st32" d="M139.4,52.5c0,0.1,0.1,0.1,0.1,0.2c0.3,0.9-0.1,1.9-1,2.3s-1.9-0.1-2.3-1c-0.3-0.9,0.1-1.9,1-2.3
							c0.3-0.1,0.6-0.1,0.8-0.1c-0.5-0.1-1-0.1-1.4,0.1c-1.2,0.5-1.8,1.8-1.4,3c0.5,1.2,1.8,1.8,3,1.4s1.8-1.8,1.4-3c0,0,0,0,0,0
							C139.6,52.8,139.5,52.6,139.4,52.5z"/>
					</g>
					<path class="st32" d="M143,53.5c0.5,1.2-0.1,2.6-1.3,3c-1.2,0.5-2.6-0.1-3-1.3s0.1-2.6,1.3-3c0,0,0,0,0,0
						C141.2,51.8,142.5,52.3,143,53.5z"/>
					<g class="st33">
						<path class="st32" d="M142.8,53c0,0.1,0.1,0.1,0.1,0.2c0.3,0.9-0.1,1.9-1,2.3s-1.9-0.1-2.3-1c-0.3-0.9,0.1-1.9,1-2.3
							c0.3-0.1,0.6-0.1,0.8-0.1c-0.5-0.1-1-0.1-1.4,0.1c-1.2,0.5-1.8,1.8-1.4,3c0.5,1.2,1.8,1.8,3,1.4s1.8-1.8,1.4-3c0,0,0,0,0,0
							C142.9,53.4,142.9,53.2,142.8,53z"/>
					</g>
					<g class="st34">
						<path class="st10" d="M140.4,49.9c0,0.2-0.2,0.2-0.3,0c0-0.1-0.1-0.3-0.3-0.3h-0.1h-0.1h-0.1c-0.1,0-0.1-0.1-0.1-0.2
							c0,0,0.1-0.1,0.1-0.1h0.1c0.1,0,0.3,0,0.4,0.1l0,0C140.2,49.5,140.4,49.7,140.4,49.9z M142.7,49.7c-0.4,0-0.7,0.2-0.9,0.5
							c-0.1,0.2,0.1,0.3,0.2,0.1c0.1-0.2,0.4-0.4,0.7-0.4C142.9,49.9,142.9,49.7,142.7,49.7L142.7,49.7z M144.9,50
							c-0.4,0.2-0.6,0.6-0.6,1c0,0.1,0.1,0.1,0.1,0.1c0.1,0,0.1-0.1,0.1-0.1c0-0.3,0.2-0.6,0.4-0.8C145.1,50.2,145,50,144.9,50
							L144.9,50z M144.2,52.8c-0.2,0-0.2,0.2-0.1,0.3c0.3,0.1,0.5,0.3,0.6,0.6c0,0.2,0.3,0.2,0.3,0C145,53.2,144.7,52.9,144.2,52.8z
							 M141.8,52.9c-0.6-0.1-1.1,0.1-1.4,0.6c-0.1,0.1,0.1,0.2,0.2,0.1c0.2-0.4,0.7-0.6,1.1-0.5c0.1,0,0.1,0,0.2-0.1
							C141.9,53,141.9,52.9,141.8,52.9z M137.4,52.1c-0.5,0.3-0.7,0.9-0.4,1.4c0.1,0.2,0.3,0,0.2-0.2c-0.2-0.4,0-0.9,0.3-1.1
							C137.7,52.2,137.6,52,137.4,52.1z M147.1,53.4c-0.1-0.1-0.3,0.2-0.1,0.2c0.2,0.1,0.3,0.3,0.3,0.5c0,0.2,0.3,0.2,0.3,0
							C147.6,53.8,147.4,53.5,147.1,53.4z M145,58.5c-0.4,0-0.6-0.3-0.6-0.7c0-0.2-0.2-0.2-0.3,0c0,0.5,0.4,0.9,0.9,0.9c0,0,0,0,0,0
							C145.2,58.8,145.1,58.5,145,58.5z M141.2,58c-0.3-0.1-0.5-0.4-0.4-0.7c0-0.2-0.3-0.2-0.3,0c0,0.5,0.4,0.9,0.9,1
							c0.1,0,0.1,0,0.2-0.1c0,0,0,0,0-0.1V58c0-0.1-0.1-0.1-0.1-0.1S141.2,57.9,141.2,58L141.2,58z M137.9,57.7
							c-0.3-0.1-0.5-0.4-0.4-0.7c0,0,0,0,0,0c0.1-0.2-0.2-0.3-0.2-0.1c-0.2,0.4,0.1,0.9,0.5,1.1c0,0,0.1,0,0.1,0
							C138,58,138.1,57.8,137.9,57.7L137.9,57.7z M139.7,60.6c-0.3,0-0.6-0.3-0.6-0.6c0,0,0,0,0,0c0-0.2-0.2-0.2-0.3,0
							c0,0.5,0.3,0.9,0.8,0.9c0,0,0,0,0.1,0C139.9,60.9,139.9,60.7,139.7,60.6L139.7,60.6z M141.5,62.9c-0.3,0-0.6-0.2-0.8-0.5
							c-0.1-0.2-0.3-0.1-0.3,0.1c0.2,0.4,0.6,0.6,1,0.6C141.6,63.1,141.6,63,141.5,62.9C141.6,62.9,141.5,62.9,141.5,62.9
							L141.5,62.9z"/>
					</g>
					<path class="st28" d="M98,58.2c0.7,0,1.4-0.2,2-0.6c0.3-0.3,0.5-0.5,0.8-0.8c0-0.1,0-0.1,0-0.2c0,0-0.1,0-0.1,0h-0.4
						c0.3-0.3,0.4-0.7,0.6-1.1c0.1-0.3,0.1-0.5,0.2-0.6c0-0.1,0-0.2-0.1-0.2c0,0-0.1,0-0.1,0l-0.1,0l0.7-1.5
						c-0.8,0.1-1.5,0.2-2.3,0.5c-0.4,0.1-0.8,0.4-1.1,0.7v-0.5c0-0.1-0.1-0.2-0.2-0.2c0,0-0.1,0-0.1,0c-0.7,0.6-1.2,1.5-1.3,2.5
						C96,58.6,98,58.2,98,58.2z"/>
					<path class="st31" d="M96.4,56.2c0.1-1,0.5-1.9,1.3-2.5c0.1,0,0.2,0,0.2,0.1c0,0,0,0.1,0,0.1v0.5c0.3-0.3,0.7-0.6,1.1-0.7
						c0.7-0.3,1.5-0.4,2.3-0.5c-1.8,1.3-3.4,2.8-4.7,4.6C96.3,57.3,96.3,56.7,96.4,56.2z"/>
					<path class="st32" d="M97.5,65.6c0.3,0.8-0.1,1.6-0.8,1.9c-0.8,0.3-1.6-0.1-1.9-0.8s0.1-1.6,0.8-1.9
						C96.3,64.5,97.2,64.8,97.5,65.6L97.5,65.6z"/>
					<g class="st33">
						<path class="st32" d="M97.3,65.3L97.3,65.3c0.2,0.7,0,1.3-0.6,1.5c-0.6,0.2-1.2,0-1.4-0.6c-0.2-0.6,0-1.2,0.6-1.4c0,0,0,0,0,0
							c0.2-0.1,0.4-0.1,0.5-0.1c-0.8-0.2-1.6,0.3-1.8,1.1c-0.2,0.8,0.3,1.6,1.1,1.8c0.3,0.1,0.6,0,0.9-0.1c0.8-0.3,1.1-1.2,0.8-1.9
							C97.4,65.5,97.4,65.4,97.3,65.3z"/>
					</g>
					<path class="st32" d="M100.3,62c0.3,0.8-0.1,1.8-0.9,2.1c-0.8,0.3-1.8-0.1-2.1-0.9c-0.3-0.8,0.1-1.8,0.9-2.1c0,0,0,0,0,0
						C99.1,60.8,100,61.2,100.3,62z"/>
					<g class="st33">
						<path class="st32" d="M100.1,61.7c0,0,0,0.1,0,0.1c0.2,0.6-0.1,1.3-0.7,1.5c-0.6,0.2-1.3-0.1-1.5-0.7
							c-0.2-0.6,0.1-1.3,0.7-1.5C98.8,61,99,61,99.2,61c-0.3-0.1-0.7-0.1-1,0.1c-0.8,0.3-1.2,1.2-0.9,2.1c0.3,0.8,1.2,1.2,2.1,0.9
							c0.8-0.3,1.2-1.2,0.9-2.1c0,0,0,0,0,0C100.2,61.9,100.2,61.8,100.1,61.7z"/>
					</g>
					<path class="st32" d="M101.5,59.6c0.4,0.9-0.1,1.9-1,2.3c-0.9,0.4-1.9-0.1-2.3-1c-0.4-0.9,0.1-1.9,1-2.3c0,0,0,0,0,0
						C100.1,58.3,101.1,58.7,101.5,59.6z"/>
					<g class="st33">
						<path class="st32" d="M101.3,59.3c0,0,0,0.1,0,0.1c0.3,0.7-0.1,1.5-0.7,1.7c-0.7,0.3-1.5-0.1-1.7-0.7
							c-0.3-0.7,0.1-1.5,0.7-1.7c0,0,0,0,0,0c0.2-0.1,0.4-0.1,0.6-0.1c-0.4-0.1-0.7-0.1-1.1,0.1c-0.9,0.4-1.4,1.4-1,2.3
							c0.4,0.9,1.4,1.4,2.3,1c0.9-0.4,1.4-1.4,1-2.3c0,0,0,0,0,0C101.4,59.5,101.3,59.4,101.3,59.3z"/>
					</g>
					<path class="st28" d="M96.6,56.9c-0.4-1-0.5-2.1-0.3-3.2c0.2-0.6,0.6-1.2,1.2-1.5c0.2-0.1,0.4,0,0.5,0.2l0,0
						c0.1,0.2,0,0.4-0.1,0.5c-0.6,0.3-1,0.9-1.1,1.6c-0.1,1.2,0.1,2.4,0,2.4S96.6,56.9,96.6,56.9z"/>
					<path class="st31" d="M96.4,54.7c0.1-1,0.7-1.8,1.5-2.4c-0.1-0.1-0.3-0.1-0.4,0c-0.6,0.3-1,0.8-1.2,1.5
						c-0.2,1.1-0.1,2.2,0.3,3.2c0.1,0,0.1,0,0.2,0C96.5,56.2,96.4,55.4,96.4,54.7z"/>
					<path class="st32" d="M96.1,56.5c0.3,0.8-0.1,1.6-0.8,1.9c-0.8,0.3-1.6-0.1-1.9-0.8c-0.3-0.8,0.1-1.6,0.8-1.9c0,0,0,0,0,0
						C94.9,55.4,95.8,55.8,96.1,56.5z"/>
					<g class="st33">
						<path class="st32" d="M95.9,56.2c0,0,0,0.1,0,0.1c0.2,0.6-0.1,1.2-0.7,1.4c-0.5,0.2-1.1-0.1-1.3-0.6c-0.2-0.6,0.1-1.2,0.6-1.4
							c0.2-0.1,0.4-0.1,0.5-0.1c-0.8-0.2-1.6,0.3-1.8,1.1s0.3,1.6,1.1,1.8c0.3,0.1,0.6,0.1,0.9-0.1c0.8-0.3,1.1-1.2,0.8-1.9
							C96,56.4,96,56.3,95.9,56.2z"/>
					</g>
					<path class="st32" d="M98.3,56.8c0.3,0.8,0,1.6-0.8,1.9c-0.8,0.3-1.6,0-1.9-0.8c-0.3-0.8,0-1.6,0.8-1.9c0,0,0,0,0,0
						C97.2,55.7,98,56.1,98.3,56.8z"/>
					<g class="st33">
						<path class="st32" d="M98.2,56.5v0.1c0.2,0.6-0.1,1.2-0.6,1.4c-0.6,0.2-1.2,0-1.4-0.6c0,0,0,0,0,0c-0.2-0.6,0.1-1.2,0.6-1.4
							c0.2-0.1,0.3-0.1,0.5-0.1c-0.3-0.1-0.6-0.1-0.9,0.1c-0.8,0.3-1.1,1.2-0.8,1.9c0.3,0.8,1.2,1.1,1.9,0.8
							c0.8-0.3,1.1-1.2,0.8-1.9c0,0,0,0,0,0C98.2,56.7,98.2,56.6,98.2,56.5z"/>
					</g>
					<path class="st32" d="M100.3,57.1c0.3,0.8-0.2,1.6-1,1.9c-0.7,0.2-1.5-0.1-1.8-0.8c-0.3-0.7,0-1.6,0.7-2c0.7-0.3,1.6,0,2,0.7
						C100.3,56.9,100.3,57,100.3,57.1z"/>
					<g class="st33">
						<path class="st32" d="M100.2,56.8L100.2,56.8c0.2,0.7-0.1,1.3-0.6,1.5c-0.6,0.2-1.2-0.1-1.4-0.6c-0.2-0.6,0.1-1.2,0.6-1.4
							c0.2-0.1,0.4-0.1,0.5-0.1c-0.3-0.1-0.6-0.1-0.9,0c-0.8,0.3-1.2,1.2-0.9,2c0.3,0.8,1.2,1.2,2,0.9l0,0c0.8-0.3,1.1-1.1,0.8-1.9
							c0,0,0,0,0,0C100.3,57,100.3,56.9,100.2,56.8z"/>
					</g>
					<path class="st32" d="M96.2,63.7c0.3,0.8-0.1,1.6-0.8,1.9s-1.6-0.1-1.9-0.8c-0.3-0.8,0.1-1.6,0.8-1.9c0,0,0,0,0,0
						C95,62.6,95.9,63,96.2,63.7z"/>
					<g class="st33">
						<path class="st32" d="M96.1,63.4L96.1,63.4c0.2,0.7-0.1,1.3-0.6,1.5s-1.2-0.1-1.4-0.6l0,0c-0.2-0.6,0.1-1.2,0.6-1.4
							c0,0,0,0,0,0c0.2-0.1,0.4-0.1,0.5-0.1c-0.8-0.2-1.6,0.3-1.8,1.1c-0.1,0.3-0.1,0.6,0.1,0.9c0.3,0.8,1.2,1.1,1.9,0.8
							s1.1-1.2,0.8-1.9l0,0C96.1,63.6,96.1,63.5,96.1,63.4z"/>
					</g>
					<path class="st32" d="M98.9,63.9c0.3,0.8-0.1,1.6-0.8,1.9c-0.8,0.3-1.6-0.1-1.9-0.8c-0.3-0.8,0.1-1.6,0.8-1.9
						C97.7,62.8,98.6,63.1,98.9,63.9C98.9,63.9,98.9,63.9,98.9,63.9z"/>
					<g class="st33">
						<path class="st32" d="M98.7,63.6C98.7,63.6,98.7,63.7,98.7,63.6c0.2,0.7,0,1.3-0.6,1.5c-0.6,0.2-1.2,0-1.4-0.6
							c-0.2-0.6,0-1.2,0.6-1.4c0,0,0,0,0,0c0.2-0.1,0.4-0.1,0.5-0.1c-0.3-0.1-0.6-0.1-0.9,0.1c-0.8,0.3-1.1,1.2-0.8,1.9
							c0.3,0.8,1.2,1.1,1.9,0.8c0.8-0.3,1.1-1.2,0.8-1.9C98.8,63.8,98.7,63.7,98.7,63.6z"/>
					</g>
					<path class="st32" d="M95.3,61.4c0.3,0.8-0.1,1.8-0.9,2.1s-1.8-0.1-2.1-0.9c-0.3-0.8,0.1-1.8,0.9-2.1c0,0,0,0,0,0
						C94.1,60.2,95,60.6,95.3,61.4z"/>
					<g class="st33">
						<path class="st32" d="M95.1,61.1c0,0,0,0.1,0.1,0.1c0.2,0.6-0.1,1.3-0.7,1.5c-0.6,0.2-1.3-0.1-1.5-0.7l0,0
							c-0.2-0.6,0.1-1.3,0.7-1.5c0.2-0.1,0.4-0.1,0.6-0.1c-0.3-0.1-0.7-0.1-1,0.1c-0.8,0.3-1.2,1.2-0.9,2.1c0.3,0.8,1.2,1.2,2.1,0.9
							s1.2-1.2,0.9-2.1c0,0,0,0,0,0C95.2,61.3,95.2,61.2,95.1,61.1z"/>
					</g>
					<path class="st32" d="M97.9,61.8c0.3,0.8-0.1,1.8-0.9,2.1s-1.8-0.1-2.1-0.9c-0.3-0.8,0.1-1.8,0.9-2.1c0,0,0,0,0,0
						C96.6,60.6,97.5,61,97.9,61.8z"/>
					<g class="st33">
						<path class="st32" d="M97.7,61.5c0,0,0,0.1,0,0.1c0.2,0.6-0.1,1.3-0.7,1.5s-1.3-0.1-1.5-0.7c-0.2-0.6,0.1-1.3,0.7-1.5
							c0.2-0.1,0.4-0.1,0.6-0.1c-0.3-0.1-0.7-0.1-1,0.1c-0.8,0.3-1.2,1.2-0.9,2.1c0.3,0.8,1.2,1.2,2.1,0.9c0.8-0.3,1.2-1.2,0.9-2.1
							c0,0,0,0,0,0C97.8,61.7,97.7,61.6,97.7,61.5z"/>
					</g>
					<path class="st32" d="M99.8,59.4c0.4,0.9-0.1,1.9-1,2.3c-0.9,0.4-1.9-0.1-2.3-1s0.1-1.9,1-2.3C98.4,58,99.4,58.5,99.8,59.4
						L99.8,59.4z"/>
					<g class="st33">
						<path class="st32" d="M99.6,59c0,0,0,0.1,0.1,0.1c0.3,0.7-0.1,1.5-0.7,1.7c-0.7,0.3-1.5-0.1-1.7-0.7c-0.3-0.7,0.1-1.5,0.7-1.7
							c0,0,0,0,0,0c0.2-0.1,0.4-0.1,0.6-0.1c-0.4-0.1-0.7-0.1-1.1,0.1c-0.9,0.3-1.4,1.3-1.1,2.3s1.3,1.4,2.3,1.1c0,0,0.1,0,0.1,0
							c0.9-0.4,1.4-1.4,1-2.3c0,0,0,0,0,0C99.7,59.2,99.6,59.1,99.6,59z"/>
					</g>
					<path class="st32" d="M95,58.6c0.4,0.9-0.1,1.9-1,2.3c-0.9,0.4-1.9-0.1-2.3-1c-0.4-0.9,0.1-1.9,1-2.3
						C93.6,57.3,94.6,57.7,95,58.6C95,58.6,95,58.6,95,58.6z"/>
					<g class="st33">
						<path class="st32" d="M94.8,58.3l0.1,0.1c0.3,0.7-0.1,1.5-0.7,1.7c-0.7,0.3-1.5-0.1-1.7-0.7c-0.3-0.7,0.1-1.5,0.7-1.7
							c0,0,0,0,0,0c0.2-0.1,0.4-0.1,0.6-0.1c-0.4-0.1-0.7-0.1-1.1,0.1c-0.9,0.4-1.4,1.4-1,2.3c0.4,0.9,1.4,1.4,2.3,1
							c0.9-0.4,1.4-1.4,1-2.3C95,58.5,94.9,58.4,94.8,58.3z"/>
					</g>
					<path class="st32" d="M97.6,59.1c0.4,0.9-0.1,1.9-1,2.3c-0.9,0.4-1.9-0.1-2.3-1c-0.4-0.9,0.1-1.9,1-2.3c0,0,0,0,0,0
						C96.2,57.7,97.2,58.2,97.6,59.1z"/>
					<g class="st33">
						<path class="st32" d="M97.4,58.7l0.1,0.1c0.3,0.7-0.1,1.5-0.8,1.7c-0.7,0.3-1.5-0.1-1.7-0.7s0.1-1.5,0.7-1.7
							c0.2-0.1,0.4-0.1,0.6-0.1c-0.9-0.2-1.9,0.3-2.1,1.3c-0.1,0.4-0.1,0.7,0.1,1.1c0.3,0.9,1.3,1.4,2.3,1.1
							c0.9-0.3,1.4-1.3,1.1-2.3c0,0,0-0.1,0-0.1C97.5,58.9,97.5,58.8,97.4,58.7z"/>
					</g>
					<g class="st34">
						<path class="st10" d="M95.6,56.3c0,0.1-0.2,0.2-0.2,0c0-0.1-0.1-0.2-0.2-0.2h-0.1H95h0c0,0-0.1-0.1-0.1-0.1c0,0,0,0,0,0
							c0-0.1,0.1-0.1,0.1-0.1c0,0,0,0,0,0l0,0c0.1,0,0.2,0,0.3,0.1l0,0C95.5,56,95.6,56.2,95.6,56.3z M97.3,56.1
							c-0.3,0-0.6,0.2-0.7,0.4c-0.1,0.1,0.1,0.2,0.2,0.1c0.1-0.2,0.3-0.3,0.5-0.3c0.1,0,0.1,0,0.1-0.1
							C97.5,56.2,97.4,56.1,97.3,56.1z M99,56.4c-0.3,0.1-0.5,0.4-0.5,0.8c0,0.1,0.2,0.1,0.2,0c0-0.2,0.1-0.5,0.3-0.6
							C99.2,56.5,99.1,56.3,99,56.4L99,56.4z M98.5,58.5c-0.1,0-0.2,0.2,0,0.2c0.2,0.1,0.4,0.3,0.4,0.5c0,0.1,0.2,0.1,0.2,0
							C99.1,58.8,98.8,58.6,98.5,58.5z M96.7,58.6c-0.4-0.1-0.9,0.1-1.1,0.5c-0.1,0.1,0.1,0.2,0.2,0.1c0.2-0.3,0.5-0.4,0.8-0.4
							C96.7,58.8,96.8,58.6,96.7,58.6z M93.3,58c-0.3,0.2-0.5,0.6-0.3,1c0.1,0.1,0.2,0,0.2-0.1C93,58.6,93.1,58.2,93.3,58
							C93.6,58,93.4,57.9,93.3,58z M100.7,59c-0.1-0.1-0.2,0.1-0.1,0.2c0.1,0.1,0.2,0.2,0.2,0.4c0,0.1,0.2,0.1,0.2,0
							C101,59.3,100.9,59.1,100.7,59z M99.1,62.9c-0.3,0-0.5-0.3-0.5-0.5c0-0.1-0.2-0.1-0.2,0c0,0.4,0.3,0.7,0.7,0.7c0,0,0,0,0,0
							C99.2,63.1,99.2,62.9,99.1,62.9L99.1,62.9z M96.2,62.5c-0.2-0.1-0.3-0.3-0.3-0.5c0-0.1,0-0.1-0.1-0.1c-0.1,0-0.1,0-0.1,0.1
							c0,0.4,0.3,0.7,0.6,0.8c0.1,0,0.1,0,0.1-0.1c0,0,0,0,0,0v-0.1c0-0.1,0-0.1-0.1-0.1C96.3,62.4,96.2,62.4,96.2,62.5L96.2,62.5
							L96.2,62.5z M93.7,62.3c-0.2-0.1-0.4-0.3-0.3-0.5c0,0,0,0,0,0c0-0.1-0.1-0.2-0.2-0.1c-0.1,0.3,0,0.7,0.4,0.8c0,0,0.1,0,0.1,0
							C93.7,62.5,93.8,62.5,93.7,62.3C93.8,62.3,93.7,62.3,93.7,62.3L93.7,62.3z M95,64.5c-0.2,0-0.4-0.2-0.4-0.4c0,0,0,0,0,0
							c0-0.1-0.2-0.2-0.2,0c0,0.4,0.2,0.7,0.6,0.7c0,0,0,0,0,0C95.2,64.7,95.2,64.5,95,64.5z M96.4,66.2c-0.2,0-0.5-0.1-0.6-0.3
							c-0.1-0.1-0.2,0-0.2,0.1c0.1,0.3,0.4,0.5,0.8,0.5C96.6,66.4,96.6,66.2,96.4,66.2L96.4,66.2z"/>
					</g>
					<path class="st28" d="M53.9,188.9c1.2-0.5,2.2-1.4,2.8-2.5c0.3-0.6,0.5-1.2,0.6-1.9c0-0.1,0-0.2-0.2-0.3c-0.1,0-0.1,0-0.2,0
						l-0.7,0.4c0.2-0.7,0.2-1.4,0.1-2.1c-0.1-0.5-0.1-0.9-0.2-1.2c0-0.2-0.2-0.3-0.3-0.2c-0.1,0-0.1,0-0.1,0.1l-0.2,0.2v-2.9
						c-1.2,0.7-2.3,1.5-3.3,2.4c-0.6,0.5-1,1.2-1.2,1.9l-0.4-0.8c-0.1-0.1-0.3-0.2-0.4-0.1c0,0-0.1,0.1-0.1,0.1
						c-0.4,0.6-0.9,2-0.2,5C50.8,191.2,53.9,188.9,53.9,188.9z"/>
					<path class="st31" d="M49.9,186.9c-0.7-2.9-0.2-4.4,0.2-5c0.1-0.1,0.3-0.2,0.4-0.1c0,0,0.1,0.1,0.1,0.1l0.4,0.8
						c0.3-0.7,0.7-1.4,1.2-1.9c1-0.9,2.1-1.7,3.3-2.4c0,0-3.4,5.6-4.2,10.9C50.5,188.8,50,187.9,49.9,186.9z"/>
					<path class="st32" d="M58.4,201.4c1,1,1.1,2.7,0.1,3.7s-2.7,1.1-3.7,0.1c-1-1-1.1-2.7-0.1-3.7
						C55.7,200.4,57.4,200.4,58.4,201.4C58.4,201.4,58.4,201.4,58.4,201.4z"/>
					<g class="st33">
						<path class="st32" d="M58,201l0.2,0.1c0.8,0.8,0.8,2,0,2.8c-0.8,0.8-2,0.8-2.8,0c-0.8-0.8-0.8-2,0-2.8c0,0,0,0,0,0
							c0.2-0.2,0.5-0.4,0.8-0.5c-1.4,0.3-2.4,1.6-2.1,3.1s1.6,2.4,3.1,2.1s2.4-1.6,2.1-3.1c-0.1-0.5-0.4-1-0.8-1.4
							C58.3,201.2,58.2,201.1,58,201z"/>
					</g>
					<path class="st32" d="M60.4,193.5c1.1,1.1,1.1,2.9,0,4c-1.1,1.1-2.9,1.1-4,0c-1.1-1.1-1.1-2.9-0.1-4
						C57.5,192.4,59.2,192.4,60.4,193.5C60.4,193.5,60.4,193.5,60.4,193.5z"/>
					<g class="st33">
						<path class="st32" d="M59.8,193.1c0.1,0,0.1,0.1,0.2,0.1c0.8,0.8,0.8,2.2,0,3s-2.2,0.8-3,0c-0.8-0.8-0.8-2.1,0-3
							c0.2-0.2,0.5-0.4,0.9-0.5c-1.5,0.3-2.5,1.7-2.3,3.3s1.7,2.5,3.3,2.3c1.5-0.3,2.5-1.7,2.3-3.3c-0.1-0.6-0.4-1.1-0.8-1.5
							C60.2,193.3,60,193.2,59.8,193.1z"/>
					</g>
					<path class="st32" d="M60.5,188.8c1.2,1.2,1.3,3.2,0.1,4.4c-1.2,1.2-3.2,1.3-4.4,0.1c-1.2-1.2-1.3-3.2-0.1-4.4c0,0,0,0,0,0
						C57.3,187.6,59.3,187.6,60.5,188.8z"/>
					<g class="st33">
						<path class="st32" d="M59.9,188.4c0.1,0,0.1,0.1,0.2,0.2c0.9,0.9,1,2.4,0.1,3.3c-0.9,0.9-2.4,1-3.3,0.1
							c-0.9-0.9-1-2.4-0.1-3.3c0,0,0,0,0,0c0.3-0.3,0.6-0.5,1-0.6c-1.7,0.3-2.8,2-2.5,3.7c0.3,1.7,2,2.8,3.7,2.5
							c1.7-0.3,2.8-2,2.5-3.7c-0.1-0.6-0.4-1.2-0.9-1.7C60.4,188.6,60.2,188.5,59.9,188.4z"/>
					</g>
					<path class="st28" d="M50.7,188c0,0-2.6-2.5-2.8-4.9c-0.1-1.2,0.2-2.4,0.9-3.3c0.2-0.3,0.6-0.3,0.9-0.1l0,0
						c0.3,0.2,0.4,0.6,0.2,0.9c-0.7,1-0.9,2.2-0.6,3.3c0.7,1.9,1.9,3.8,1.8,3.9S50.7,188,50.7,188z"/>
					<path class="st31" d="M48.7,184.5c-0.5-1.7-0.2-3.5,0.7-4.9c-0.2,0-0.4,0.1-0.6,0.2c-0.7,0.9-1.1,2.1-0.9,3.3
						c0.3,2.4,2.8,4.9,2.8,4.9c0.1,0,0.2-0.1,0.3-0.1C50,187,49.2,185.8,48.7,184.5z"/>
					<path class="st32" d="M49.6,187.8c1,1,1.1,2.7,0.1,3.7s-2.7,1.1-3.7,0.1c-1-1-1.1-2.7-0.1-3.7c0,0,0,0,0,0
						C46.9,186.8,48.5,186.8,49.6,187.8C49.6,187.8,49.6,187.8,49.6,187.8z"/>
					<g class="st33">
						<path class="st32" d="M49.1,187.4l0.2,0.1c0.8,0.8,0.8,2,0,2.8c-0.8,0.8-2,0.8-2.8,0c-0.8-0.8-0.8-2,0-2.8c0,0,0,0,0,0
							c0.2-0.2,0.5-0.4,0.8-0.5c-0.5,0.1-1,0.4-1.4,0.7c-1,1-1,2.7,0,3.7c1,1,2.7,1,3.7,0s1-2.7,0-3.7c0,0,0,0,0,0
							C49.4,187.6,49.3,187.5,49.1,187.4z"/>
					</g>
					<path class="st32" d="M53.4,186.6c1,1,1.1,2.7,0.1,3.7c-1,1-2.7,1.1-3.7,0.1c-1-1-1.1-2.7-0.1-3.7c0,0,0,0,0,0
						C50.7,185.6,52.3,185.6,53.4,186.6z"/>
					<g class="st33">
						<path class="st32" d="M52.9,186.2l0.2,0.1c0.8,0.8,0.8,2,0.1,2.8s-2,0.8-2.8,0.1c-0.8-0.8-0.8-2-0.1-2.8c0,0,0,0,0.1-0.1
							c0.2-0.2,0.5-0.4,0.8-0.5c-0.5,0.1-1,0.4-1.4,0.8c-1,1-1,2.7,0.1,3.7c1,1,2.7,1,3.7-0.1c1-1,1-2.7-0.1-3.7c0,0,0,0,0,0
							C53.2,186.4,53.1,186.3,52.9,186.2z"/>
					</g>
					<path class="st32" d="M56.8,185.5c1,1,1.1,2.7,0.1,3.7c-1,1-2.7,1.1-3.7,0.1c-1-1-1.1-2.7-0.1-3.7
						C54.1,184.5,55.8,184.5,56.8,185.5z"/>
					<g class="st33">
						<path class="st32" d="M56.3,185.1l0.2,0.1c0.8,0.8,0.8,2,0,2.8c-0.8,0.8-2,0.8-2.8,0c-0.8-0.8-0.8-2,0-2.8c0,0,0,0,0,0
							c0.2-0.2,0.5-0.4,0.8-0.5c-0.5,0.1-1,0.4-1.4,0.8c-0.7,0.8-0.9,1.9-0.5,2.8c0.1,0.3,0.3,0.6,0.6,0.9c1,1,2.7,1,3.7-0.1
							c1-1,1-2.7-0.1-3.7C56.7,185.3,56.5,185.2,56.3,185.1z"/>
					</g>
					<path class="st32" d="M55,199.3c1,1,1.1,2.7,0.1,3.7c-1,1-2.7,1.1-3.7,0.1s-1.1-2.7-0.1-3.7c0,0,0,0,0,0
						C52.3,198.3,54,198.3,55,199.3z"/>
					<g class="st33">
						<path class="st32" d="M54.5,198.9l0.2,0.1c0.8,0.8,0.8,2,0,2.8c-0.8,0.8-2,0.8-2.8,0c-0.8-0.8-0.8-2,0-2.8c0,0,0,0,0,0
							c0.2-0.2,0.5-0.4,0.8-0.5c-1.4,0.3-2.4,1.6-2.1,3.1c0.3,1.4,1.6,2.4,3.1,2.1s2.4-1.6,2.1-3.1c-0.1-0.5-0.4-1-0.8-1.4
							C54.9,199.1,54.7,199,54.5,198.9z"/>
					</g>
					<path class="st32" d="M59.4,197.6c1,1,1.1,2.7,0,3.7c-1,1-2.7,1.1-3.7,0c-1-1-1.1-2.7,0-3.7C56.7,196.6,58.3,196.6,59.4,197.6
						C59.4,197.6,59.4,197.6,59.4,197.6z"/>
					<g class="st33">
						<path class="st32" d="M58.9,197.3l0.2,0.1c0.8,0.8,0.8,2,0,2.8c-0.8,0.8-2,0.8-2.8,0c-0.8-0.8-0.8-2,0-2.8c0,0,0,0,0,0
							c0.2-0.2,0.5-0.4,0.8-0.5c-0.5,0.1-1,0.4-1.4,0.8c-1,1-1,2.7,0.1,3.7c1,1,2.7,1,3.7-0.1c1-1,1-2.7,0-3.7
							C59.3,197.5,59.1,197.4,58.9,197.3z"/>
					</g>
					<path class="st32" d="M51.9,196.2c1.1,1.1,1.1,2.9,0.1,4c-1.1,1.1-2.9,1.1-4,0.1c-1.1-1.1-1.1-2.9-0.1-4c0,0,0,0,0,0
						C49,195.2,50.7,195.1,51.9,196.2C51.9,196.2,51.9,196.2,51.9,196.2z"/>
					<g class="st33">
						<path class="st32" d="M51.4,195.8c0.1,0,0.1,0.1,0.2,0.1c0.8,0.8,0.8,2.2,0,3s-2.2,0.8-3,0c-0.8-0.8-0.8-2.1,0-3
							c0.2-0.3,0.5-0.4,0.9-0.5c-0.6,0.1-1.1,0.4-1.5,0.8c-1.1,1.1-1,2.9,0.1,4c1.1,1.1,2.9,1,4-0.1c1.1-1.1,1-2.9-0.1-4
							C51.7,196.1,51.5,195.9,51.4,195.8z"/>
					</g>
					<path class="st32" d="M56.2,194.9c1.1,1.1,1.1,2.9,0,4s-2.9,1.1-4,0c-1.1-1.1-1.1-2.9,0-4C53.3,193.8,55.1,193.8,56.2,194.9
						C56.2,194.9,56.2,194.9,56.2,194.9z"/>
					<g class="st33">
						<path class="st32" d="M55.7,194.5c0.1,0,0.1,0.1,0.2,0.1c0.8,0.8,0.9,2.2,0,3s-2.2,0.9-3,0c-0.8-0.8-0.9-2.2,0-3
							c0.2-0.3,0.5-0.4,0.9-0.5c-0.6,0.1-1.1,0.4-1.5,0.8c-1.1,1.1-1.1,2.9,0,4c1.1,1.1,2.9,1.1,4,0c1.1-1.1,1.1-2.9,0-4
							c0,0,0,0,0,0C56.1,194.8,55.9,194.7,55.7,194.5z"/>
					</g>
					<path class="st32" d="M57.6,189.7c1.2,1.2,1.3,3.2,0.1,4.4c-1.2,1.2-3.2,1.3-4.4,0.1c-1.2-1.2-1.3-3.2-0.1-4.4c0,0,0,0,0,0
						C54.3,188.5,56.3,188.5,57.6,189.7C57.6,189.7,57.6,189.7,57.6,189.7z"/>
					<g class="st33">
						<path class="st32" d="M57,189.3l0.2,0.1c0.9,0.9,1,2.4,0.1,3.3c-0.9,0.9-2.4,1-3.3,0.1c-0.9-0.9-1-2.4-0.1-3.3c0,0,0,0,0,0
							c0.3-0.3,0.6-0.5,1-0.6c-0.6,0.1-1.2,0.4-1.7,0.9c-1.2,1.2-1.2,3.2,0.1,4.4s3.2,1.2,4.4-0.1c1.2-1.2,1.2-3.2-0.1-4.4
							c0,0,0,0,0,0C57.4,189.5,57.2,189.4,57,189.3z"/>
					</g>
					<path class="st32" d="M49.4,191.9c1.3,1.2,1.3,3.2,0.1,4.4s-3.2,1.3-4.4,0.1s-1.3-3.2-0.1-4.4c0,0,0,0,0,0
						C46.2,190.8,48.2,190.7,49.4,191.9z"/>
					<g class="st33">
						<path class="st32" d="M48.8,191.5l0.2,0.2c0.9,0.9,1,2.4,0.1,3.3c-0.9,0.9-2.4,1-3.3,0.1c-0.9-0.9-1-2.4-0.1-3.3c0,0,0,0,0,0
							c0.3-0.3,0.6-0.5,1-0.6c-0.6,0.1-1.2,0.4-1.7,0.9c-1.2,1.2-1.2,3.2,0.1,4.4c1.2,1.2,3.2,1.2,4.4-0.1c1.2-1.2,1.2-3.2-0.1-4.4
							c0,0,0,0,0,0C49.3,191.8,49,191.6,48.8,191.5z"/>
					</g>
					<path class="st32" d="M53.8,190.7c1.2,1.2,1.3,3.2,0.1,4.4s-3.2,1.3-4.4,0.1c-1.2-1.2-1.3-3.2-0.1-4.4c0,0,0,0,0,0
						C50.6,189.6,52.6,189.5,53.8,190.7z"/>
					<g class="st33">
						<path class="st32" d="M53.2,190.3l0.2,0.2c0.9,0.9,0.9,2.4,0,3.3s-2.4,0.9-3.3,0c-0.9-0.9-0.9-2.4,0-3.3
							c0.3-0.3,0.6-0.5,1-0.6c-0.6,0.1-1.2,0.4-1.7,0.9c-1.2,1.2-1.2,3.2,0.1,4.4c1.2,1.2,3.2,1.2,4.4-0.1c1.2-1.2,1.2-3.2-0.1-4.4
							c0,0,0,0,0,0C53.7,190.5,53.5,190.4,53.2,190.3z"/>
					</g>
					<g class="st34">
						<path class="st10" d="M48.6,187.8c0.1,0.2-0.2,0.4-0.3,0.2c-0.1-0.2-0.3-0.3-0.5-0.3h-0.1c0,0,0,0-0.1,0h-0.1h-0.1
							c-0.1,0-0.2-0.1-0.2-0.2c0-0.1,0-0.2,0.1-0.2h0c0.1-0.1,0.3-0.2,0.5-0.1l0,0C48.2,187.3,48.5,187.5,48.6,187.8z M51.3,186.2
							c-0.5,0.2-0.8,0.7-0.8,1.2c0,0.2,0.3,0.2,0.4,0c0-0.4,0.3-0.7,0.6-0.9C51.7,186.4,51.5,186.1,51.3,186.2z M54.1,185.4
							c-0.4,0.4-0.5,1.1-0.2,1.6c0,0.1,0.1,0.1,0.2,0.1c0.1,0,0.1-0.1,0.1-0.2c0,0,0,0,0-0.1c-0.2-0.4-0.2-0.9,0.1-1.2
							C54.5,185.5,54.3,185.3,54.1,185.4L54.1,185.4z M54.9,189.2c-0.2,0-0.1,0.4,0.1,0.3c0.4-0.1,0.8,0.1,1,0.5
							c0.1,0.2,0.4,0,0.3-0.2C56,189.3,55.4,189.1,54.9,189.2L54.9,189.2z M52,190.6c-0.7,0.2-1.3,0.8-1.4,1.6c0,0.2,0.3,0.2,0.4,0
							c0.1-0.6,0.5-1,1-1.2c0.1,0,0.2-0.1,0.2-0.2S52.1,190.6,52,190.6z M46.2,192.1c-0.5,0.6-0.3,1.5,0.3,2
							c0.2,0.1,0.4-0.2,0.2-0.3c-0.4-0.4-0.5-1-0.2-1.5C46.6,192.1,46.3,191.9,46.2,192.1L46.2,192.1z M58.8,188.3
							c-0.1,0-0.2,0.1-0.2,0.2c0,0.1,0.1,0.2,0.2,0.2c0.3,0,0.5,0.2,0.7,0.4c0.1,0.2,0.4,0,0.3-0.2
							C59.6,188.6,59.2,188.3,58.8,188.3L58.8,188.3z M59,195.8c-0.5,0.2-1,0-1.2-0.5c0,0,0,0,0,0c-0.1-0.2-0.4,0-0.3,0.2
							c0.3,0.6,1,0.9,1.6,0.6c0,0,0,0,0,0C59.4,196,59.2,195.7,59,195.8L59,195.8z M54.2,197.3c-0.4,0-0.8-0.2-1-0.6
							c-0.1-0.2-0.4,0-0.3,0.2c0.3,0.6,0.9,0.9,1.6,0.8c0.1,0,0.2-0.1,0.1-0.2c0,0,0-0.1,0-0.1l-0.1-0.1c-0.1-0.1-0.2-0.1-0.2,0
							C54.1,197.2,54.1,197.2,54.2,197.3L54.2,197.3z M49.9,198.8c-0.4,0.1-0.8-0.2-0.9-0.6c0,0,0-0.1,0-0.1c0-0.2-0.4-0.2-0.4,0
							c0.1,0.6,0.6,1.1,1.3,1c0,0,0.1,0,0.1,0C50.2,199.1,50.1,198.7,49.9,198.8L49.9,198.8z M53.7,201.3c-0.4,0.2-0.8,0-1-0.4
							c0,0,0,0,0,0c-0.1-0.2-0.4-0.1-0.3,0.1c0.2,0.6,0.9,0.9,1.5,0.7c0,0,0,0,0.1,0C54.1,201.6,53.9,201.2,53.7,201.3L53.7,201.3z
							 M57.2,203.1c-0.4,0.2-0.9,0.2-1.2-0.1c-0.2-0.1-0.4,0.1-0.3,0.2c0.4,0.4,1.1,0.5,1.6,0.2c0.1-0.1,0.1-0.2,0.1-0.3
							C57.4,203,57.3,203,57.2,203.1L57.2,203.1z"/>
					</g>
					<rect x="18.6" y="273.1" class="st11" width="199" height="12.9"/>
					<circle class="st25" cx="68.6" cy="275" r="15.9"/>
					<circle class="st18" cx="68.6" cy="275" r="13.9"/>
					<path class="st5" d="M75.9,284.4l-7.4-5.4l-7.4,5.4l2.8-8.7l-7.4-5.4h9.1l2.8-8.6l2.8,8.6h9.1l-7.4,5.4L75.9,284.4z M58.3,271
						l6.3,4.6l-2.4,7.4l6.3-4.6l6.3,4.6l-2.4-7.4l6.3-4.6H71l-2.4-7.4l-2.4,7.4H58.3z"/>
					<path class="st5" d="M68.6,279.1l-4.6-3.3l1.7-5.4h5.6l1.7,5.4L68.6,279.1z M64.7,275.6l3.9,2.8l3.9-2.8L71,271h-4.8
						L64.7,275.6z"/>
					<circle class="st25" cx="100.4" cy="275" r="15.9"/>
					<circle class="st18" cx="100.4" cy="275" r="13.9"/>
					<path class="st5" d="M107.8,284.4l-7.4-5.4l-7.4,5.4l2.8-8.7l-7.4-5.4h9.1l2.8-8.6l2.8,8.6h9.1l-7.3,5.4L107.8,284.4z
						 M90.2,271l6.3,4.6l-2.4,7.4l6.3-4.6l6.3,4.6l-2.4-7.4l6.3-4.6h-7.8l-2.4-7.4L98,271H90.2z"/>
					<path class="st5" d="M100.4,279.1l-4.6-3.3l1.7-5.4h5.6l1.7,5.4L100.4,279.1z M96.5,275.6l3.9,2.8l3.9-2.8l-1.5-4.6H98
						L96.5,275.6z"/>
					<circle class="st25" cx="132.2" cy="275" r="15.9"/>
					<circle class="st18" cx="132.2" cy="275" r="13.9"/>
					<path class="st5" d="M139.6,284.4l-7.4-5.4l-7.4,5.4l2.8-8.7l-7.4-5.4h9.1l2.8-8.6l2.8,8.6h9.1l-7.4,5.4L139.6,284.4z M122,271
						l6.3,4.6l-2.4,7.4l6.3-4.6l6.3,4.6l-2.4-7.4l6.3-4.6h-7.8l-2.4-7.4l-2.4,7.4H122z"/>
					<path class="st5" d="M132.2,279.1l-4.6-3.3l1.7-5.4h5.6l1.7,5.4L132.2,279.1z M128.3,275.6l3.9,2.8l3.9-2.8l-1.5-4.6h-4.8
						L128.3,275.6z"/>
					<circle class="st25" cx="164.1" cy="275" r="15.9"/>
					<circle class="st18" cx="164.1" cy="275" r="13.9"/>
					<path class="st5" d="M171.4,284.4l-7.4-5.4l-7.4,5.4l2.8-8.7l-7.4-5.4h9.1l2.8-8.6l2.8,8.6h9.1l-7.4,5.4L171.4,284.4z
						 M153.9,271l6.3,4.6l-2.4,7.4l6.3-4.6l6.3,4.6l-2.4-7.4l6.3-4.6h-7.8l-2.4-7.4l-2.4,7.5H153.9z"/>
					<path class="st5" d="M164.1,279.1l-4.6-3.3l1.7-5.4h5.6l1.7,5.4L164.1,279.1z M160.2,275.6l3.9,2.8l3.9-2.8l-1.5-4.6h-4.8
						L160.2,275.6z"/>
					
						<ellipse transform="matrix(0.7071 -0.7071 0.7071 0.7071 -150.3053 132.3735)" class="st25" cx="84.6" cy="247.6" rx="15.9" ry="15.9"/>
					<circle class="st18" cx="84.6" cy="247.6" r="13.9"/>
					<path class="st5" d="M92,257.1l-7.4-5.4l-7.4,5.4l2.8-8.7l-7.4-5.3h9.1l2.8-8.7l2.8,8.7h9.1l-7.4,5.3L92,257.1z M74.4,243.6
						l6.3,4.6l-2.4,7.4l6.3-4.6l6.3,4.6l-2.4-7.4l6.3-4.6h-7.8l-2.4-7.4l-2.4,7.4H74.4z"/>
					<path class="st5" d="M84.6,251.8l-4.6-3.3l1.7-5.3h5.6l1.7,5.3L84.6,251.8z M80.7,248.2l3.9,2.8l3.9-2.8l-1.5-4.6h-4.8
						L80.7,248.2z"/>
					
						<ellipse transform="matrix(0.9925 -0.1222 0.1222 0.9925 -29.3898 16.092)" class="st25" cx="116.5" cy="247.6" rx="15.9" ry="15.9"/>
					<circle class="st18" cx="116.5" cy="247.6" r="13.9"/>
					<path class="st5" d="M123.8,257.1l-7.4-5.4l-7.4,5.4l2.8-8.7l-7.4-5.3h9.1l2.8-8.7l2.8,8.7h9.1l-7.4,5.3L123.8,257.1z
						 M106.2,243.6l6.3,4.6l-2.4,7.4l6.3-4.6l6.3,4.6l-2.4-7.4l6.3-4.6h-7.8l-2.4-7.4l-2.4,7.4H106.2z"/>
					<path class="st5" d="M116.5,251.8l-4.6-3.3l1.7-5.3h5.6l1.7,5.3L116.5,251.8z M112.6,248.2l3.9,2.8l3.9-2.8l-1.5-4.6h-4.8
						L112.6,248.2z"/>
					
						<ellipse transform="matrix(0.2297 -0.9733 0.9733 0.2297 -126.7463 335.0699)" class="st25" cx="148.3" cy="247.6" rx="15.9" ry="15.9"/>
					<circle class="st18" cx="148.3" cy="247.6" r="13.9"/>
					<path class="st5" d="M155.7,257.1l-7.4-5.4l-7.3,5.4l2.8-8.7l-7.4-5.3h9.1l2.8-8.7l2.8,8.7h9.1l-7.4,5.3L155.7,257.1z
						 M138.1,243.6l6.3,4.6l-2.4,7.4l6.3-4.6l6.3,4.6l-2.4-7.4l6.3-4.6h-7.8l-2.4-7.4l-2.4,7.4H138.1z"/>
					<path class="st5" d="M148.3,251.8l-4.6-3.3l1.7-5.3h5.6l1.7,5.3L148.3,251.8z M144.4,248.2l3.9,2.8l3.9-2.8l-1.5-4.6h-4.8
						L144.4,248.2z"/>
					<rect x="46.9" y="44" class="st6" width="142.7" height="237"/>
				</g>
			</g>
		</g>
	</g>
</g>
</svg>
