<?xml version="1.0" encoding="utf-8"?>
<!-- Generator: Adobe Illustrator 25.2.3, SVG Export Plug-In . SVG Version: 6.00 Build 0)  -->
<svg version="1.1" id="Layer_1" xmlns="http://www.w3.org/2000/svg" xmlns:xlink="http://www.w3.org/1999/xlink" x="0px" y="0px"
	 viewBox="0 0 235.4 381.8" style="enable-background:new 0 0 235.4 381.8;" xml:space="preserve">
<style type="text/css">
	.st0{fill:#F2B055;}
	.st1{fill:#FFF0CC;}
	.st2{fill:#231F20;}
	.st3{clip-path:url(#SVGID_2_);}
	.st4{fill:#A4F6FF;}
	.st5{fill:#FFFFFF;}
	.st6{fill:#5BA486;}
	.st7{fill:#5FB18E;}
	.st8{fill:#80EAED;}
	.st9{fill:#92D5DE;}
	.st10{fill:#AFEFEF;}
	.st11{fill:none;}
	.st12{fill:#82B686;}
	.st13{fill:#8ECC94;}
	.st14{fill:#A9CF49;}
	.st15{fill:#BCBDBF;}
	.st16{fill:#929497;}
	.st17{fill:#9AC54A;}
	.st18{fill:#A83583;}
	.st19{opacity:0.25;}
	.st20{opacity:0.1;}
	.st21{fill:#382C27;}
	.st22{fill:#ED915C;}
	.st23{fill:#E5705F;}
	.st24{fill:#F4B155;}
	.st25{fill:#FFD150;}
	.st26{fill:#47372E;}
	.st27{fill:#F2AF55;}
	.st28{fill:#4A355B;}
	.st29{fill:#DC4F65;}
	.st30{fill:#74C6A6;}
	.st31{fill:#5C9A7E;}
	.st32{fill:#FFD250;}
	.st33{fill:#E3705E;}
</style>
<g>
	<g id="Layer_2_1_">
		<g id="Layer_1-2">
			<path class="st0" d="M235.4,14.5v352.9c-0.2,8.1-6.9,14.6-15,14.5H15c-8.3,0-15-6.5-15-14.5V14.5C0,6.5,6.7,0,15,0h205.4
				C228.7,0,235.4,6.5,235.4,14.5z M222.8,358.9V22.9c0-6-4.8-10.8-10.8-10.9H23.5c-6,0-10.8,4.9-10.8,10.8c0,0,0,0,0,0v336.1
				c0,6,4.9,10.8,10.8,10.8H212C218,369.7,222.8,364.9,222.8,358.9z"/>
			<path class="st1" d="M23.5,12H212c6,0,10.8,4.8,10.8,10.8v336.1c0,6-4.8,10.8-10.8,10.8H23.5c-6,0-10.8-4.8-10.8-10.8V22.9
				C12.6,16.9,17.5,12,23.5,12z"/>
			<path class="st2" d="M28.1,329.3c-0.1-0.1-0.2-0.3-0.2-0.5v-11.4c0-0.2,0-0.4,0.2-0.5c0.2-0.1,0.4-0.2,0.6-0.2h0.9
				c0.1,0,0.3,0,0.4,0.1c0.1,0.1,0.2,0.2,0.3,0.3l6.2,8.6v-8.3c0-0.2,0-0.4,0.2-0.5c0.1-0.1,0.3-0.2,0.5-0.2h1c0.2,0,0.4,0,0.5,0.2
				c0.1,0.1,0.2,0.3,0.2,0.5v11.4c0,0.2,0,0.4-0.2,0.5c-0.2,0.1-0.4,0.2-0.6,0.2h-0.9c-0.1,0-0.3,0-0.4-0.1
				c-0.1-0.1-0.2-0.2-0.3-0.3l-6.2-8.6v8.3c0.1,0.3-0.2,0.6-0.5,0.7c-0.1,0-0.1,0-0.2,0h-1C28.5,329.5,28.3,329.4,28.1,329.3z"/>
			<path class="st2" d="M41.3,329.3c-0.1-0.1-0.2-0.3-0.2-0.5v-11.4c-0.1-0.3,0.2-0.6,0.5-0.7c0.1,0,0.1,0,0.2,0h1
				c0.3-0.1,0.7,0.2,0.7,0.5c0,0.1,0,0.1,0,0.2v11.4c0,0.2,0,0.4-0.2,0.5c-0.2,0.1-0.4,0.2-0.6,0.2h-1
				C41.6,329.5,41.4,329.4,41.3,329.3z"/>
			<path class="st2" d="M45.9,329.3c-0.1-0.1-0.2-0.3-0.2-0.5v-11.4c0-0.2,0-0.4,0.2-0.5c0.2-0.1,0.4-0.2,0.6-0.2h0.9
				c0.1,0,0.3,0,0.4,0.1c0.1,0.1,0.2,0.2,0.3,0.3l6.2,8.6v-8.3c0-0.2,0-0.4,0.2-0.5c0.1-0.1,0.3-0.2,0.5-0.2h1c0.2,0,0.4,0,0.5,0.2
				c0.1,0.1,0.2,0.3,0.2,0.5v11.4c0.1,0.3-0.2,0.6-0.5,0.7c-0.1,0-0.1,0-0.2,0h-0.9c-0.1,0-0.3,0-0.4-0.1c-0.1-0.1-0.2-0.2-0.3-0.3
				l-6.2-8.6v8.3c0.1,0.3-0.2,0.6-0.5,0.7c-0.1,0-0.1,0-0.2,0h-1C46.3,329.5,46.1,329.4,45.9,329.3z"/>
			<path class="st2" d="M59.1,329.3c-0.1-0.1-0.2-0.3-0.2-0.5v-11.4c0-0.2,0-0.4,0.2-0.5c0.1-0.1,0.3-0.2,0.5-0.2h7.8
				c0.2,0,0.4,0,0.5,0.1c0.1,0.1,0.2,0.3,0.1,0.5v0.5c0,0.2,0,0.4-0.1,0.5c-0.1,0.1-0.3,0.2-0.5,0.2h-6.1v3.7h4.4
				c0.2,0,0.4,0,0.5,0.1c0.1,0.1,0.2,0.3,0.2,0.5v0.5c0,0.2,0,0.4-0.2,0.5c-0.1,0.1-0.3,0.2-0.5,0.2h-4.4v3.7h6.1
				c0.2,0,0.4,0,0.5,0.2c0.1,0.1,0.2,0.3,0.2,0.5v0.5c0,0.2,0,0.4-0.2,0.5c-0.2,0.1-0.3,0.2-0.5,0.1h-7.8
				C59.4,329.5,59.2,329.4,59.1,329.3z"/>
			<path class="st2" d="M78.4,328c-2.2-2.9-2.2-7,0-9.9c2.7-2.3,6.8-2.3,9.5,0c2.2,2.9,2.2,7,0,9.9C85.2,330.3,81.2,330.3,78.4,328z
				 M86.2,326.7c1.4-2.2,1.4-5.1,0-7.3c-1.7-1.6-4.3-1.6-6,0c-1.4,2.2-1.4,5.1,0,7.3C81.9,328.4,84.5,328.4,86.2,326.7z"/>
			<path class="st2" d="M91.6,329.3c-0.1-0.1-0.2-0.3-0.2-0.5v-11.4c-0.1-0.3,0.2-0.6,0.5-0.7c0.1,0,0.1,0,0.2,0h7.8
				c0.2,0,0.4,0,0.5,0.1c0.1,0.1,0.2,0.3,0.1,0.5v0.5c0,0.2,0,0.4-0.1,0.5c-0.1,0.1-0.3,0.2-0.5,0.2h-6.1v3.6h4.4
				c0.2,0,0.4,0,0.5,0.1c0.1,0.1,0.2,0.3,0.2,0.5v0.5c0,0.2,0,0.4-0.2,0.5c-0.1,0.1-0.3,0.2-0.5,0.2h-4.4v4.8c0,0.2,0,0.4-0.2,0.5
				c-0.2,0.1-0.4,0.2-0.6,0.2h-1C92,329.5,91.8,329.4,91.6,329.3z"/>
			<path class="st2" d="M109.6,329.3c-0.1-0.1-0.2-0.3-0.2-0.5v-11.4c0-0.2,0-0.4,0.2-0.5c0.1-0.1,0.3-0.2,0.5-0.2h4.8
				c1.2-0.1,2.5,0.3,3.4,1.1c1.5,1.8,1.5,4.4,0,6.3c-1,0.8-2.2,1.2-3.4,1.1h-3.1v3.6c0.1,0.3-0.2,0.6-0.5,0.7c-0.1,0-0.1,0-0.2,0h-1
				C110,329.5,109.8,329.4,109.6,329.3z M114.9,323.3c0.6,0.1,1.2-0.2,1.7-0.6c0.4-0.5,0.6-1.1,0.6-1.8c0.1-0.7-0.2-1.3-0.6-1.8
				c-0.5-0.4-1.1-0.6-1.7-0.6h-3v4.8H114.9z"/>
			<path class="st2" d="M121.2,329.3c-0.1-0.1-0.2-0.3-0.2-0.5v-11.4c-0.1-0.3,0.2-0.6,0.5-0.7c0.1,0,0.1,0,0.2,0h7.8
				c0.2,0,0.4,0,0.5,0.1c0.1,0.1,0.2,0.3,0.1,0.5v0.5c0,0.2,0,0.4-0.1,0.5c-0.1,0.1-0.3,0.2-0.5,0.2h-6.1v3.7h4.4
				c0.2,0,0.4,0,0.5,0.1c0.1,0.1,0.2,0.3,0.1,0.5v0.5c0,0.2,0,0.4-0.1,0.5c-0.1,0.1-0.3,0.2-0.5,0.2h-4.4v3.7h6.1
				c0.2,0,0.4,0,0.5,0.2c0.1,0.1,0.2,0.3,0.1,0.5v0.5c0,0.2,0,0.4-0.1,0.5c-0.2,0.1-0.3,0.2-0.5,0.1h-7.8
				C121.5,329.5,121.3,329.4,121.2,329.3z"/>
			<path class="st2" d="M132,329.3c-0.1-0.1-0.2-0.3-0.2-0.5v-11.4c-0.1-0.3,0.2-0.6,0.5-0.7c0.1,0,0.1,0,0.2,0h0.9
				c0.1,0,0.3,0,0.4,0.1c0.1,0.1,0.2,0.2,0.3,0.3l6.2,8.6v-8.3c-0.1-0.3,0.2-0.6,0.5-0.7c0.1,0,0.1,0,0.2,0h1
				c0.3-0.1,0.7,0.2,0.7,0.5c0,0.1,0,0.1,0,0.2v11.4c0,0.2,0,0.4-0.2,0.5c-0.2,0.1-0.4,0.2-0.6,0.2h-0.9c-0.1,0-0.3,0-0.4-0.1
				c-0.1-0.1-0.2-0.2-0.3-0.3l-6.2-8.6v8.3c0,0.2,0,0.4-0.2,0.5c-0.2,0.1-0.4,0.2-0.6,0.2h-1C132.3,329.5,132.1,329.4,132,329.3z"/>
			<path class="st2" d="M148.4,329.3c-0.1-0.1-0.2-0.3-0.2-0.5v-10.3h-3.3c-0.2,0-0.4,0-0.5-0.1c-0.1-0.1-0.2-0.3-0.1-0.5v-0.5
				c0-0.2,0-0.4,0.1-0.5c0.1-0.1,0.3-0.2,0.5-0.2h9c0.2,0,0.4,0,0.5,0.2c0.1,0.1,0.2,0.3,0.1,0.5v0.5c0,0.2,0,0.4-0.1,0.5
				c-0.2,0.1-0.3,0.2-0.5,0.1h-3.3v10.3c0.1,0.3-0.2,0.6-0.5,0.7c-0.1,0-0.1,0-0.2,0h-1C148.7,329.5,148.5,329.4,148.4,329.3z"/>
			<path class="st2" d="M153.3,329.2c0-0.1,0-0.2,0-0.2l5-11.8c0.1-0.1,0.1-0.3,0.2-0.4c0.1-0.1,0.2-0.1,0.4-0.1h1
				c0.1,0,0.3,0,0.4,0.1c0.1,0.1,0.2,0.2,0.2,0.4l5,11.8c0,0.1,0.1,0.2,0.1,0.2c0,0.2-0.1,0.3-0.3,0.3h-1.6c-0.1,0-0.2,0-0.4-0.1
				c-0.1-0.1-0.1-0.2-0.2-0.3l-1.1-2.6h-5.2l-1.1,2.6c0,0.1-0.1,0.2-0.2,0.3c-0.1,0-0.2,0.1-0.4,0.1h-1.6
				C153.4,329.5,153.3,329.4,153.3,329.2z M161.5,324.8l-2-4.9l-2,4.9H161.5z"/>
			<path class="st2" d="M167.9,328c-1.2-1.3-1.9-3.1-1.8-5c-0.1-1.8,0.5-3.6,1.7-5c1.3-1.2,3.1-1.9,4.9-1.7c0.8,0,1.6,0.1,2.4,0.3
				c0.7,0.1,1.3,0.4,1.8,0.8c0.1,0.1,0.2,0.1,0.2,0.2c0,0.1,0,0.2-0.1,0.3l-0.5,0.9c-0.1,0.1-0.1,0.2-0.2,0.2c-0.1,0-0.2,0-0.3-0.1
				c-0.9-0.5-2-0.8-3-0.7c-1.2-0.1-2.4,0.4-3.3,1.2c-0.9,1-1.3,2.3-1.2,3.7c-0.1,1.4,0.3,2.7,1.2,3.7c0.9,0.8,2.1,1.3,3.4,1.2
				c1.1,0,2.2-0.2,3.2-0.7c0.1,0,0.2-0.1,0.2-0.1c0.1,0,0.1,0,0.2,0.2l0.6,1c0,0.1,0,0.1,0,0.2c0,0.1-0.1,0.2-0.2,0.2
				c-1.3,0.8-2.9,1.1-4.4,1C171,329.9,169.2,329.2,167.9,328z"/>
			<path class="st2" d="M179.4,329.3c-0.1-0.1-0.2-0.3-0.2-0.5v-11.4c-0.1-0.3,0.2-0.6,0.5-0.7c0.1,0,0.1,0,0.2,0h1
				c0.2,0,0.4,0,0.5,0.2c0.1,0.1,0.2,0.3,0.2,0.5v10.3h5.8c0.2,0,0.4,0,0.5,0.2c0.1,0.1,0.2,0.3,0.1,0.5v0.5c0,0.2,0,0.4-0.1,0.5
				c-0.2,0.1-0.3,0.2-0.5,0.1h-7.5C179.7,329.5,179.5,329.4,179.4,329.3z"/>
			<path class="st2" d="M189.4,329.3c-0.1-0.1-0.2-0.3-0.2-0.5v-11.4c0-0.2,0-0.4,0.2-0.5c0.1-0.1,0.3-0.2,0.5-0.2h7.8
				c0.2,0,0.4,0,0.5,0.1c0.1,0.1,0.2,0.3,0.1,0.5v0.5c0,0.2,0,0.4-0.1,0.5c-0.1,0.1-0.3,0.2-0.5,0.2h-6.1v3.7h4.4
				c0.2,0,0.4,0,0.5,0.1c0.1,0.1,0.2,0.3,0.1,0.5v0.5c0,0.2,0,0.4-0.1,0.5c-0.1,0.1-0.3,0.2-0.5,0.2h-4.4v3.7h6.1
				c0.2,0,0.4,0,0.5,0.2c0.1,0.1,0.2,0.3,0.1,0.5v0.5c0,0.2,0,0.4-0.1,0.5c-0.2,0.1-0.3,0.2-0.5,0.1H190
				C189.8,329.5,189.6,329.5,189.4,329.3z"/>
			<path class="st2" d="M202.1,329.5c-0.7-0.1-1.4-0.4-2.1-0.8c-0.2-0.1-0.2-0.2-0.2-0.3c0-0.1,0-0.2,0.1-0.2l0.6-1
				c0.1-0.1,0.1-0.2,0.2-0.2c0.1,0,0.2,0,0.2,0.1c0.5,0.3,1.1,0.5,1.6,0.7c0.6,0.2,1.2,0.3,1.9,0.2c0.7,0,1.3-0.1,1.9-0.4
				c0.4-0.3,0.7-0.8,0.6-1.4c0-0.3-0.1-0.6-0.2-0.9c-0.2-0.2-0.4-0.4-0.7-0.6c-0.5-0.2-1-0.5-1.5-0.7l-0.4-0.2
				c-0.7-0.3-1.4-0.6-2-0.9c-0.5-0.3-1-0.7-1.3-1.2c-0.4-0.5-0.5-1.2-0.5-1.8c0-1,0.4-2,1.3-2.6c1-0.7,2.2-1,3.4-0.9
				c0.8,0,1.5,0.1,2.2,0.2c0.6,0.1,1.2,0.4,1.6,0.8c0.1,0.1,0.2,0.2,0.2,0.3c0,0.1,0,0.2-0.1,0.2l-0.6,1c-0.1,0.1-0.1,0.2-0.2,0.2
				c-0.1,0-0.2-0.1-0.2-0.1c-0.9-0.5-1.9-0.8-3-0.8c-0.6,0-1.3,0.1-1.8,0.4c-0.4,0.3-0.6,0.8-0.6,1.4c0,0.3,0.1,0.7,0.2,0.9
				c0.2,0.3,0.4,0.5,0.7,0.6c0.3,0.2,0.9,0.4,1.6,0.7l0.5,0.2c0.7,0.3,1.5,0.6,2.1,1c0.5,0.3,0.9,0.7,1.2,1.1
				c0.3,0.5,0.4,1.1,0.4,1.8c0,1-0.4,2-1.2,2.5c-1,0.7-2.2,1-3.5,0.9C203.8,329.8,202.9,329.7,202.1,329.5z"/>
			<g>
				<defs>
					<path id="SVGID_1_" d="M55.9,44.1H185c13.7,0,24.8,11.1,24.8,24.8v192.6c0,13.7-11.1,24.8-24.8,24.8H55.9
						c-13.7,0-24.8-11.1-24.8-24.8V68.9C31,55.2,42.1,44.1,55.9,44.1z"/>
				</defs>
				<clipPath id="SVGID_2_">
					<use xlink:href="#SVGID_1_"  style="overflow:visible;"/>
				</clipPath>
				<g class="st3">
					<rect x="20.7" y="41.8" class="st4" width="194.5" height="154.6"/>
					<path class="st5" d="M22.3,173.4H90c4.8,0,8.7,3.9,8.7,8.7l0,0c0,4.8-3.9,8.7-8.7,8.7H22.3c-4.8,0-8.7-3.9-8.7-8.7l0,0
						C13.6,177.3,17.5,173.4,22.3,173.4z"/>
					<circle class="st5" cx="47.6" cy="169.2" r="21.7"/>
					<circle class="st5" cx="71.4" cy="175.4" r="15.5"/>
					<path class="st5" d="M190.5,140.9h28.6c2,0,3.7-1.7,3.7-3.7l0,0c0-2-1.7-3.7-3.7-3.7h-28.6c-2,0-3.7,1.7-3.7,3.7l0,0
						C186.8,139.3,188.5,140.9,190.5,140.9z"/>
					<circle class="st5" cx="208.5" cy="131.8" r="9.2"/>
					<circle class="st5" cx="198.4" cy="134.4" r="6.5"/>
					<path class="st5" d="M72.3,141.1h-66c-4.7,0-8.5-3.8-8.5-8.5l0,0c0-4.7,3.8-8.5,8.5-8.5h66c4.7,0,8.5,3.8,8.5,8.5l0,0
						C80.8,137.3,77,141.1,72.3,141.1z"/>
					<circle class="st5" cx="30.9" cy="120" r="21.2"/>
					<circle class="st5" cx="54.2" cy="126.1" r="15.1"/>
					<path class="st6" d="M26.9,120.7l18.8-9.7l31.8,6.1l19-7.1c2.8-1.1,6-1.1,8.8-0.2l29.1,9.1l19.8-10.4c3-1.6,6.6-1.8,9.8-0.6
						l39.1,14.4v35.3H26.9V120.7z"/>
					<path class="st5" d="M172.3,105.6h-28c-2,0-3.6-1.6-3.6-3.6v0c0-2,1.6-3.6,3.6-3.6h28c2,0,3.6,1.6,3.6,3.6v0
						C176,103.9,174.3,105.6,172.3,105.6z"/>
					<circle class="st5" cx="161.9" cy="96.6" r="9"/>
					<circle class="st5" cx="152" cy="99.2" r="6.4"/>
					<path class="st7" d="M19.2,129.9l47.1-19.2l37.8,15l28.5-15.5c3.3-1.8,7.2-2.2,10.8-1l38,12.2l29.3-12.2v50.5H19.2V129.9z"/>
					<rect x="-4.9" y="137" class="st8" width="259.9" height="41.8"/>
					<path class="st9" d="M63.8,143.6h-28c-0.7,0-1.3-0.6-1.3-1.3l0,0c0-0.7,0.6-1.3,1.3-1.3h28c0.7,0,1.3,0.6,1.3,1.3l0,0
						C65.1,143,64.5,143.6,63.8,143.6z"/>
					<path class="st10" d="M87.6,156.9h-28c-0.7,0-1.3-0.6-1.3-1.3l0,0c0-0.7,0.6-1.3,1.3-1.3h28c0.7,0,1.3,0.6,1.4,1.3c0,0,0,0,0,0
						l0,0C89,156.3,88.4,156.9,87.6,156.9C87.6,156.9,87.6,156.9,87.6,156.9z"/>
					<path class="st9" d="M148.2,163.9h28c0.7,0,1.3,0.6,1.3,1.3l0,0c0,0.7-0.6,1.3-1.3,1.3h-28c-0.7,0-1.3-0.6-1.3-1.3l0,0
						C146.9,164.5,147.5,163.9,148.2,163.9z"/>
					<path class="st9" d="M207.3,161h-28c-0.7,0-1.3-0.6-1.3-1.3l0,0c0-0.7,0.6-1.3,1.3-1.3h28c0.7,0,1.3,0.6,1.3,1.3l0,0
						C208.6,160.4,208,161,207.3,161z"/>
					<path class="st9" d="M200,150.1h-28c-0.7,0-1.3-0.6-1.3-1.3l0,0c0-0.7,0.6-1.3,1.3-1.3h28c0.7,0,1.3,0.6,1.3,1.3l0,0
						C201.3,149.5,200.7,150.1,200,150.1z"/>
					<path class="st9" d="M217.4,143.6h-28c-0.7,0-1.3-0.6-1.3-1.3l0,0c0-0.7,0.6-1.3,1.3-1.3h28c0.7,0,1.3,0.6,1.3,1.3l0,0
						C218.7,143,218.1,143.6,217.4,143.6z"/>
					<path class="st9" d="M149.8,156.9h-28c-0.7,0-1.3-0.6-1.3-1.3l0,0c0-0.7,0.6-1.3,1.3-1.3h28c0.7,0,1.3,0.6,1.3,1.3l0,0
						C151.1,156.3,150.5,156.8,149.8,156.9z"/>
					<path class="st10" d="M172.9,148.6h-28c-0.7,0-1.3-0.6-1.3-1.3l0,0c0-0.7,0.6-1.3,1.3-1.3h28c0.7,0,1.3,0.6,1.3,1.3l0,0
						C174.2,148.1,173.7,148.6,172.9,148.6z"/>
					<path class="st10" d="M117.2,139.7h28c0.7,0,1.3,0.6,1.3,1.3l0,0c0,0.7-0.6,1.3-1.3,1.3h-28c-0.7,0-1.3-0.6-1.3-1.3l0,0
						C115.9,140.3,116.5,139.7,117.2,139.7z"/>
					<path class="st10" d="M115.2,147.7h-28c-0.7,0-1.3-0.6-1.3-1.3l0,0c0-0.7,0.6-1.3,1.3-1.3c0,0,0,0,0,0h28
						c0.7,0,1.3,0.6,1.3,1.3l0,0l0,0C116.5,147.1,115.9,147.7,115.2,147.7C115.2,147.7,115.2,147.7,115.2,147.7z"/>
					<path class="st9" d="M117.8,165.2h-28c-0.7,0-1.3-0.6-1.3-1.3l0,0l0,0c0-0.7,0.6-1.3,1.3-1.3h28c0.7,0,1.3,0.6,1.3,1.3l0,0
						C119.1,164.6,118.5,165.2,117.8,165.2L117.8,165.2z"/>
					<path class="st9" d="M36.8,165.2h-28c-0.7,0-1.3-0.6-1.3-1.3l0,0c0-0.7,0.6-1.3,1.3-1.3h28c0.7,0,1.3,0.6,1.3,1.3l0,0
						C38.1,164.7,37.5,165.2,36.8,165.2z"/>
					<path class="st9" d="M63.8,151.5h-28c-0.7,0-1.3-0.6-1.3-1.3l0,0c0-0.7,0.6-1.3,1.3-1.3h28c0.7,0,1.3,0.6,1.3,1.3l0,0
						C65.1,150.9,64.5,151.5,63.8,151.5z"/>
					<rect x="51.7" y="44.6" class="st11" width="129.1" height="227.4"/>
					<ellipse class="st12" cx="11.8" cy="182.6" rx="84" ry="51.7"/>
					<ellipse class="st12" cx="222.8" cy="175.2" rx="80.4" ry="49.5"/>
					<rect x="17.3" y="171.8" class="st13" width="197.9" height="100.1"/>
					<path class="st14" d="M113.2,61c-5.6,0-11.1-1.2-16.3-3.3c-1.2-0.5-2.2-1-3.3-1.5c-3-1.5-5.5-2.7-8.5-2.3
						c-2.5,0.3-4.9,1.3-6.9,2.9l-3.5-4.5c2.8-2.2,6.2-3.6,9.7-4.1c4.7-0.6,8.4,1.3,11.7,2.9c1,0.5,2,1,3,1.4
						c6.4,2.8,13.6,3.6,20.5,2.3c3.3-0.8,6.5-2.1,9.5-3.8c2-1.1,4.1-2.1,6.2-2.9c11.9-4.7,24.7-2.5,32.7,5.5l-4.1,4
						c-7.2-7.2-18.5-7.3-26.5-4.2c-1.9,0.8-3.9,1.7-5.7,2.7c-3.4,2-7.1,3.4-11,4.3C118.3,60.7,115.8,61,113.2,61z"/>
					<path class="st15" d="M41.2,41.9h37.3c0.3,0,0.6,0.3,0.6,0.6v229.2c0,0.3-0.3,0.6-0.6,0.6H41.2c-0.3,0-0.6-0.3-0.6-0.6V42.5
						C40.6,42.2,40.8,41.9,41.2,41.9z"/>
					<path class="st5" d="M36,263.5h49.5c3.9,0,7.1,3.2,7.1,7.1v0.3c0,3.9-3.2,7.1-7.1,7.1H36c-3.9,0-7.1-3.2-7.1-7.1v-0.3
						C28.8,266.7,32,263.5,36,263.5z"/>
					<path class="st5" d="M50.7,57L50.7,57c1.2,0,2.1,0.9,2.1,2v195.9c0,1.1-0.9,2-2,2h-0.1c-1.1,0-2-0.9-2-2V58.9
						C48.7,57.8,49.6,57,50.7,57z"/>
					<path class="st5" d="M60.1,57L60.1,57c1.2,0,2.1,0.9,2.1,2v195.9c0,1.1-0.9,2-2,2h-0.1c-1.1,0-2-0.9-2-2V58.9
						C58.2,57.8,59,57,60.1,57z"/>
					<path class="st5" d="M70.1,57L70.1,57c1.2,0,2.1,0.9,2.1,2v195.9c0,1.1-0.9,2-2,2h-0.1c-1.1,0-2-0.9-2-2V58.9
						C68.1,57.8,69,57,70.1,57z"/>
					<rect x="40.6" y="41.9" class="st16" width="38.5" height="11.5"/>
					<path class="st14" d="M39.5,110.8l38.3-17.3c2.3-1,5,0,6.1,2.3l0.1,0.2c1,2.3,0,5-2.3,6.1l-38.3,17.3c-2.3,1-5,0-6.1-2.3
						l-0.1-0.2C36.1,114.6,37.1,111.9,39.5,110.8z"/>
					<path class="st14" d="M83.8,171.1l0.1,0.2c1,2.3,0,5-2.3,6.1l-38.3,17.3c-2.3,1-5,0-6.1-2.3l-0.1-0.2c-1-2.3,0-5,2.3-6.1
						l38.3-17.3C80.1,167.8,82.8,168.8,83.8,171.1z"/>
					<path class="st15" d="M160.5,41.9h37.3c0.3,0,0.6,0.3,0.6,0.6v229.2c0,0.3-0.3,0.6-0.6,0.6h-37.3c-0.3,0-0.6-0.3-0.6-0.6V42.5
						C159.9,42.2,160.1,41.9,160.5,41.9z"/>
					<path class="st5" d="M155.3,263.5h49.5c3.9,0,7.1,3.2,7.1,7.1v0.3c0,3.9-3.2,7.1-7.1,7.1h-49.5c-3.9,0-7.1-3.2-7.1-7.1v-0.3
						C148.1,266.7,151.3,263.5,155.3,263.5z"/>
					<path class="st5" d="M170,57h0.1c1.1,0,2,0.9,2,2v195.9c0,1.1-0.9,2-2,2H170c-1.1,0-2-0.9-2-2V58.9C168,57.8,168.9,57,170,57z"
						/>
					<path class="st5" d="M179.4,57h0.1c1.1,0,2,0.9,2,2v195.9c0,1.1-0.9,2-2,2h-0.1c-1.1,0-2-0.9-2-2V58.9
						C177.5,57.8,178.3,57,179.4,57z"/>
					<path class="st5" d="M189.4,57h0.1c1.1,0,2,0.9,2,2v195.9c0,1.1-0.9,2-2,2h-0.1c-1.1,0-2-0.9-2-2V58.9
						C187.4,57.8,188.3,57,189.4,57z"/>
					<rect x="159.9" y="41.9" class="st16" width="38.5" height="11.5"/>
					<path class="st14" d="M154.6,64.2l0.1-0.2c1-2.3,3.8-3.3,6.1-2.3L199,79c2.3,1,3.3,3.8,2.3,6.1l-0.1,0.2
						c-1,2.3-3.8,3.3-6.1,2.3l-38.3-17.3C154.5,69.2,153.5,66.5,154.6,64.2z"/>
					<path class="st14" d="M201.3,156.8l-0.1,0.2c-1,2.3-3.8,3.3-6.1,2.3L156.8,142c-2.3-1-3.3-3.8-2.3-6.1l0.1-0.2
						c1-2.3,3.8-3.3,6.1-2.3l38.3,17.3C201.3,151.8,202.3,154.5,201.3,156.8z"/>
					<path class="st14" d="M154.5,200.8l0.1-0.2c1-2.3,3.8-3.3,6.1-2.3l38.3,17.3c2.3,1,3.3,3.8,2.3,6.1l-0.1,0.2
						c-1,2.3-3.8,3.3-6.1,2.3l-38.3-17.3C154.5,205.9,153.5,203.2,154.5,200.8z"/>
					<path class="st14" d="M178,76.5c1.5,0.4,3,0.2,4.4-0.5c0.7-0.4,1.3-0.9,1.8-1.4c0.1-0.1,0.1-0.3,0-0.4c0,0-0.1-0.1-0.2-0.1
						l-0.9-0.1c0.6-0.6,1.1-1.2,1.5-2c0.3-0.6,0.5-0.9,0.6-1.2c0.1-0.2,0-0.4-0.2-0.4c-0.1,0-0.1,0-0.2,0l-0.3,0.1l2-2.8
						c-1.6-0.2-3.2-0.2-4.8,0.1c-0.9,0.1-1.7,0.5-2.4,1l0.1-1c0-0.2-0.1-0.4-0.3-0.4c-0.1,0-0.1,0-0.2,0c-0.8,0.3-2.2,1.3-3.5,4.6
						C173.6,76.6,178,76.5,178,76.5z"/>
					<path class="st17" d="M175.5,71.9c1.3-3.2,2.8-4.3,3.5-4.6c0.2-0.1,0.4,0,0.5,0.2c0,0.1,0,0.1,0,0.2l-0.1,1
						c0.7-0.5,1.6-0.9,2.4-1c1.6-0.2,3.2-0.2,4.8-0.1c0,0-6.9,3-11.3,7.5C175,74.5,174.9,73.4,175.5,71.9z"/>
					<path class="st18" d="M174,91.3c0.3,1.6-0.8,3.2-2.4,3.5c-1.6,0.3-3.2-0.8-3.5-2.4c-0.3-1.6,0.8-3.1,2.3-3.5
						C172.1,88.6,173.6,89.6,174,91.3C174,91.3,174,91.3,174,91.3z"/>
					<g class="st19">
						<path class="st18" d="M173.8,90.7c0,0.1,0,0.2,0.1,0.2c0.2,1.2-0.6,2.4-1.8,2.7c-1.2,0.2-2.4-0.6-2.7-1.8s0.6-2.4,1.8-2.7
							c0,0,0,0,0,0c0.4-0.1,0.7-0.1,1.1,0.1c-0.6-0.3-1.2-0.3-1.8-0.2c-1.6,0.3-2.7,1.9-2.3,3.5c0.3,1.6,1.9,2.7,3.5,2.3
							s2.7-1.9,2.3-3.5C173.9,91,173.9,90.8,173.8,90.7L173.8,90.7z"/>
					</g>
					<path class="st18" d="M181.1,85.1c0.3,1.8-0.8,3.5-2.6,3.8c-1.8,0.3-3.5-0.8-3.8-2.6c-0.3-1.8,0.8-3.5,2.6-3.8c0,0,0,0,0,0
						C179.1,82.2,180.8,83.3,181.1,85.1C181.1,85.1,181.1,85.1,181.1,85.1z"/>
					<g class="st19">
						<path class="st18" d="M180.9,84.4l0.1,0.2c0.2,1.3-0.6,2.6-2,2.8c-1.3,0.2-2.6-0.6-2.8-2c-0.2-1.3,0.6-2.6,2-2.8
							c0.4-0.1,0.8,0,1.2,0.1c-1.6-0.8-3.6,0-4.3,1.6c-0.8,1.6,0,3.6,1.6,4.3s3.6,0,4.3-1.6c0.3-0.6,0.4-1.3,0.2-2
							C181.1,84.9,181,84.6,180.9,84.4z"/>
					</g>
					<path class="st18" d="M184.4,80.8c0.4,2-0.9,3.9-2.9,4.3c-2,0.4-3.9-0.9-4.3-2.9c-0.4-2,0.9-3.9,2.9-4.3
						C182.1,77.5,184,78.8,184.4,80.8C184.4,80.8,184.4,80.8,184.4,80.8z"/>
					<g class="st19">
						<path class="st18" d="M184.1,80c0,0.1,0.1,0.2,0.1,0.3c0.3,1.5-0.7,2.9-2.2,3.2c-1.5,0.3-2.9-0.7-3.2-2.2
							c-0.3-1.5,0.7-2.9,2.2-3.2c0.4-0.1,0.9-0.1,1.3,0.1c-0.7-0.3-1.5-0.4-2.2-0.3c-2,0.4-3.3,2.3-2.9,4.3c0.4,2,2.3,3.3,4.3,2.9
							c2-0.4,3.3-2.3,2.9-4.3C184.3,80.5,184.2,80.2,184.1,80z"/>
					</g>
					<path class="st14" d="M175.6,73.5c0,0-0.8-4,0.6-6.5c0.7-1.2,1.8-2.1,3.1-2.5c0.4-0.1,0.9,0.1,1,0.5l0,0c0.1,0.4-0.1,0.8-0.4,1
						c-1.3,0.4-2.3,1.5-2.8,2.8c-0.6,2.3-0.7,4.8-0.8,4.9S175.6,73.5,175.6,73.5z"/>
					<path class="st17" d="M176,68.8c0.5-2.2,2.6-3.5,3.9-4.2c-0.2-0.2-0.5-0.2-0.7-0.2c-1.3,0.4-2.4,1.3-3.1,2.5
						c-1.4,2.5-0.6,6.5-0.6,6.5c0.1,0,0.2,0.1,0.4,0.1C175.6,72,175.6,70.4,176,68.8z"/>
					<path class="st18" d="M174.6,72.5c0.3,1.6-0.8,3.2-2.4,3.5c-1.6,0.3-3.2-0.8-3.5-2.4c-0.3-1.6,0.8-3.1,2.4-3.5
						C172.7,69.8,174.3,70.8,174.6,72.5C174.6,72.5,174.6,72.5,174.6,72.5z"/>
					<g class="st19">
						<path class="st18" d="M174.4,71.8c0,0.1,0,0.2,0.1,0.2c0.2,1.2-0.6,2.4-1.8,2.6c-1.2,0.2-2.4-0.6-2.6-1.8
							c-0.2-1.2,0.6-2.4,1.8-2.6c0.4-0.1,0.7,0,1.1,0.1c-0.6-0.3-1.2-0.3-1.8-0.2c-1.6,0.3-2.7,1.9-2.3,3.5c0.3,1.6,1.9,2.7,3.5,2.3
							c1.6-0.3,2.6-1.9,2.4-3.5C174.6,72.3,174.5,72,174.4,71.8z"/>
					</g>
					<path class="st18" d="M179.1,73.9c0.3,1.6-0.8,3.2-2.4,3.5c-1.6,0.3-3.2-0.8-3.5-2.4c-0.3-1.6,0.8-3.1,2.3-3.5
						C177.2,71.2,178.7,72.2,179.1,73.9z"/>
					<g class="st19">
						<path class="st18" d="M178.9,73.2l0.1,0.2c0.2,1.2-0.6,2.4-1.8,2.7s-2.4-0.6-2.7-1.8c-0.2-1.2,0.6-2.4,1.8-2.7
							c0.4-0.1,0.7-0.1,1.1,0.1c-0.6-0.3-1.2-0.3-1.8-0.2c-1.6,0.3-2.7,1.9-2.3,3.5c0.3,1.6,1.9,2.7,3.5,2.3
							c1.6-0.3,2.6-1.9,2.3-3.5C179,73.6,179,73.4,178.9,73.2z"/>
					</g>
					<path class="st18" d="M183.1,75.2c0.3,1.6-0.8,3.2-2.4,3.5s-3.2-0.8-3.5-2.4c-0.3-1.6,0.8-3.1,2.4-3.5
						C181.1,72.4,182.7,73.5,183.1,75.2C183.1,75.1,183.1,75.1,183.1,75.2z"/>
					<g class="st19">
						<path class="st18" d="M182.9,74.5c0,0.1,0,0.1,0,0.2c0.3,1.2-0.5,2.5-1.8,2.7c-1.2,0.3-2.5-0.5-2.7-1.8
							c-0.3-1.2,0.5-2.5,1.8-2.7c0.4-0.1,0.8-0.1,1.2,0.1c-0.6-0.3-1.2-0.3-1.8-0.2c-1.2,0.2-2.2,1.2-2.4,2.3
							c-0.1,0.4-0.1,0.8,0,1.2c0.3,1.7,1.9,2.7,3.6,2.4c1.7-0.3,2.7-1.9,2.4-3.6l0,0C183.1,74.9,183,74.7,182.9,74.5z"/>
					</g>
					<path class="st18" d="M172.2,87.1c0.3,1.6-0.8,3.2-2.4,3.5c-1.6,0.3-3.2-0.8-3.5-2.4c-0.3-1.6,0.8-3.1,2.3-3.5
						C170.3,84.3,171.9,85.4,172.2,87.1z"/>
					<g class="st19">
						<path class="st18" d="M172,86.4c0,0.1,0,0.1,0,0.2c0.2,1.2-0.6,2.4-1.8,2.7c-1.2,0.2-2.4-0.6-2.7-1.8s0.6-2.4,1.8-2.7
							c0,0,0,0,0,0c0.4-0.1,0.7-0.1,1.1,0.1c-1.5-0.7-3.3-0.1-4,1.4c-0.3,0.6-0.4,1.3-0.2,2c0.3,1.7,1.9,2.7,3.6,2.4
							c1.7-0.3,2.7-1.9,2.4-3.6l0,0C172.1,86.8,172.1,86.6,172,86.4z"/>
					</g>
					<path class="st18" d="M177.4,88.4c0.3,1.6-0.8,3.2-2.4,3.5s-3.2-0.8-3.5-2.4c-0.3-1.6,0.8-3.1,2.4-3.4
						C175.5,85.7,177.1,86.7,177.4,88.4C177.4,88.4,177.4,88.4,177.4,88.4z"/>
					<g class="st19">
						<path class="st18" d="M177.2,87.8c0,0.1,0,0.2,0.1,0.2c0.2,1.2-0.6,2.4-1.8,2.7c-1.2,0.2-2.4-0.6-2.7-1.8s0.6-2.4,1.8-2.7
							c0,0,0,0,0,0c0.4-0.1,0.8-0.1,1.1,0.1c-1.5-0.7-3.3,0-4,1.5c-0.7,1.5,0,3.3,1.5,4c1.5,0.7,3.3,0,4-1.5
							c0.2-0.6,0.3-1.2,0.2-1.8C177.4,88.2,177.3,88,177.2,87.8z"/>
					</g>
					<path class="st18" d="M171.2,82.1c0.3,1.8-0.8,3.5-2.6,3.8c-1.8,0.3-3.5-0.8-3.8-2.6c-0.3-1.8,0.8-3.5,2.6-3.8c0,0,0,0,0,0
						C169.2,79.1,170.9,80.3,171.2,82.1z"/>
					<g class="st19">
						<path class="st18" d="M171,81.3l0.1,0.2c0.2,1.3-0.7,2.6-2,2.8s-2.6-0.7-2.8-2c-0.2-1.3,0.6-2.6,2-2.8c0.4-0.1,0.8,0,1.2,0.1
							c-0.6-0.3-1.3-0.4-2-0.2c-1.8,0.3-2.9,2.1-2.6,3.8c0.3,1.8,2.1,2.9,3.8,2.6c1.8-0.3,2.9-2.1,2.6-3.8c0,0,0,0,0,0
							C171.2,81.8,171.1,81.6,171,81.3z"/>
					</g>
					<path class="st18" d="M176.2,83.7c0.3,1.8-0.8,3.5-2.6,3.8c-1.8,0.3-3.5-0.8-3.8-2.6c-0.3-1.8,0.8-3.5,2.6-3.8
						C174.2,80.8,175.9,82,176.2,83.7C176.2,83.7,176.2,83.7,176.2,83.7z"/>
					<g class="st19">
						<path class="st18" d="M176,83l0.1,0.2c0.2,1.3-0.7,2.6-2,2.8s-2.6-0.7-2.8-2c-0.2-1.3,0.6-2.6,2-2.8c0.4-0.1,0.8-0.1,1.2,0.1
							c-1.6-0.8-3.6-0.1-4.3,1.6c-0.3,0.7-0.4,1.4-0.2,2.1c0.4,1.8,2.2,2.9,3.9,2.5c1.7-0.4,2.8-2,2.5-3.7
							C176.2,83.5,176.1,83.2,176,83z"/>
					</g>
					<path class="st18" d="M181,79.7c0.4,2-0.9,3.9-2.9,4.3c-2,0.4-3.9-0.9-4.3-2.9c-0.4-2,0.9-3.9,2.9-4.3
						C178.7,76.4,180.6,77.7,181,79.7C181,79.6,181,79.6,181,79.7z"/>
					<g class="st19">
						<path class="st18" d="M180.7,78.8c0,0.1,0,0.2,0.1,0.3c0.2,1.5-0.9,2.9-2.3,3.1c-1.4,0.2-2.7-0.7-3-2.1
							c-0.2-1.5,0.7-2.8,2.2-3.1c0.4-0.1,0.9-0.1,1.3,0.1c-0.7-0.3-1.5-0.4-2.2-0.3c-2,0.4-3.2,2.3-2.9,4.3s2.3,3.2,4.3,2.9
							c2-0.4,3.2-2.3,2.9-4.3c0,0,0,0,0,0C180.9,79.4,180.9,79.1,180.7,78.8z"/>
					</g>
					<path class="st18" d="M171.7,76.3c0.4,2-0.9,3.9-2.9,4.3c-2,0.4-3.9-0.9-4.3-2.9c-0.4-2,0.9-3.9,2.9-4.3
						C169.4,73,171.4,74.3,171.7,76.3C171.7,76.3,171.7,76.3,171.7,76.3z"/>
					<g class="st19">
						<path class="st18" d="M171.5,75.5l0.1,0.3c0.3,1.5-0.7,2.9-2.2,3.2c-1.5,0.3-2.9-0.7-3.2-2.2c-0.3-1.5,0.7-2.9,2.2-3.2
							c0,0,0,0,0,0c0.4-0.1,0.9-0.1,1.3,0.1c-0.7-0.3-1.5-0.4-2.2-0.3c-2,0.4-3.3,2.3-2.9,4.3c0.4,2,2.3,3.3,4.3,2.9
							c2-0.4,3.3-2.3,2.9-4.3C171.7,76,171.6,75.8,171.5,75.5z"/>
					</g>
					<path class="st18" d="M176.7,78.1c0.4,2-0.9,3.9-2.9,4.3c-2,0.4-3.9-0.9-4.3-2.9c-0.4-2,0.9-3.9,2.9-4.3
						C174.4,74.9,176.3,76.2,176.7,78.1z"/>
					<g class="st19">
						<path class="st18" d="M176.5,77.3c0,0.1,0.1,0.2,0.1,0.3c0.3,1.5-0.7,2.9-2.2,3.2c-1.5,0.3-2.9-0.7-3.2-2.2
							c-0.3-1.5,0.7-2.9,2.2-3.2c0.4-0.1,0.9-0.1,1.3,0.1c-0.7-0.3-1.4-0.4-2.2-0.3c-2,0.4-3.3,2.3-2.9,4.3c0.4,2,2.3,3.3,4.3,2.9
							c2-0.4,3.3-2.3,2.9-4.3C176.7,77.9,176.6,77.6,176.5,77.3z"/>
					</g>
					<g class="st20">
						<path class="st5" d="M173.7,71.9c0,0.3-0.4,0.2-0.4,0c0-0.2-0.1-0.5-0.3-0.6h-0.1c0,0-0.1,0-0.1,0h-0.1l0,0h-0.1
							c-0.1,0-0.2-0.2-0.1-0.3c0,0,0,0,0,0c0-0.1,0.1-0.2,0.2-0.1c0,0,0,0,0,0h0.1c0.2,0,0.4,0.1,0.5,0.2l0,0
							C173.6,71.3,173.7,71.6,173.7,71.9z M177.4,72.1c-0.6-0.1-1.2,0.1-1.6,0.6c-0.2,0.2,0.2,0.4,0.3,0.2c0.3-0.3,0.7-0.5,1.2-0.4
							C177.6,72.6,177.6,72.2,177.4,72.1z M180.6,73.3c-0.7,0.2-1.2,0.7-1.3,1.4c0,0.1,0.1,0.2,0.2,0.2c0.1,0,0.2-0.1,0.2-0.1
							c0.1-0.5,0.4-0.9,0.9-1C180.9,73.7,180.8,73.2,180.6,73.3z M178.8,77.3c-0.2-0.1-0.4,0.3-0.1,0.4c0.4,0.2,0.7,0.6,0.7,1.1
							c0,0.3,0.4,0.3,0.4,0C179.7,78.2,179.3,77.6,178.8,77.3L178.8,77.3z M175,76.8c-0.8-0.3-1.7-0.1-2.3,0.6
							c-0.2,0.2,0.1,0.4,0.3,0.2c0.5-0.5,1.2-0.7,1.9-0.4c0.1,0,0.2,0,0.3-0.1C175.1,76.9,175.1,76.8,175,76.8z M168.5,74.3
							c-0.8,0.3-1.3,1.2-1,2.1c0.1,0.2,0.5,0.1,0.4-0.2c-0.2-0.6,0.2-1.3,0.8-1.5C169,74.6,168.8,74.2,168.5,74.3L168.5,74.3z
							 M183,79.1c-0.2-0.2-0.5,0.2-0.2,0.3c0.3,0.2,0.4,0.5,0.3,0.9c0,0.3,0.4,0.3,0.4,0C183.6,79.8,183.4,79.4,183,79.1z
							 M178.2,86.4c-0.5-0.1-0.9-0.6-0.8-1.2c0,0,0,0,0-0.1c0.1-0.3-0.4-0.3-0.4-0.1c-0.2,0.8,0.3,1.5,1.1,1.7c0,0,0,0,0,0
							C178.5,86.8,178.5,86.4,178.2,86.4L178.2,86.4z M172.7,84.5c-0.4-0.3-0.6-0.7-0.5-1.2c0-0.3-0.4-0.3-0.4,0
							c-0.1,0.7,0.3,1.5,1,1.8c0.1,0,0.2,0,0.3-0.1c0,0,0-0.1,0-0.1v-0.2c0-0.1,0-0.2-0.1-0.2C172.8,84.4,172.7,84.4,172.7,84.5
							L172.7,84.5z M167.7,83.1c-0.5-0.2-0.7-0.7-0.4-1.2c0,0,0,0,0-0.1c0.1-0.2-0.2-0.5-0.3-0.2c-0.4,0.6-0.2,1.4,0.4,1.8
							c0,0,0.1,0.1,0.2,0.1c0.1,0,0.2-0.1,0.2-0.2C167.7,83.2,167.7,83.2,167.7,83.1L167.7,83.1z M169.6,88.1
							c-0.5-0.1-0.8-0.6-0.7-1.1c0,0,0,0,0,0c0.1-0.2-0.3-0.4-0.4-0.2c-0.2,0.7,0.2,1.4,0.9,1.6c0,0,0.1,0,0.1,0
							C169.7,88.6,169.8,88.2,169.6,88.1L169.6,88.1z M171.8,92.1c-0.5-0.1-0.9-0.4-1-0.9c-0.1-0.2-0.5-0.2-0.4,0.1
							c0.2,0.7,0.7,1.2,1.4,1.3c0.1,0,0.2-0.1,0.1-0.3C171.9,92.1,171.8,92.1,171.8,92.1L171.8,92.1z"/>
					</g>
					<path class="st14" d="M175.9,212.1c0,0,2.6,0.7,4.4-0.5c0.7-0.4,1.3-0.9,1.8-1.4c0.1-0.1,0.1-0.3,0-0.4c0,0-0.1-0.1-0.2-0.1
						l-0.9-0.1c0.6-0.6,1.1-1.2,1.5-2c0.3-0.6,0.5-0.9,0.6-1.2c0.1-0.2,0-0.4-0.2-0.4c-0.1,0-0.1,0-0.2,0l-0.3,0.1l2-2.8
						c-1.6-0.2-3.2-0.2-4.8,0.1c-0.9,0.1-1.7,0.5-2.4,1l0.1-1c0-0.2-0.1-0.4-0.3-0.4c-0.1,0-0.1,0-0.2,0c-0.8,0.3-2.2,1.4-3.5,4.6
						C171.6,212.2,175.9,212.1,175.9,212.1z"/>
					<path class="st17" d="M173.5,207.5c1.3-3.2,2.8-4.3,3.5-4.6c0.2-0.1,0.4,0,0.5,0.2c0,0.1,0,0.1,0,0.2l-0.1,1
						c0.7-0.5,1.6-0.9,2.4-1c1.6-0.2,3.2-0.3,4.8-0.1c0,0-6.9,3-11.3,7.5C172.9,210.1,172.8,209.1,173.5,207.5z"/>
					<path class="st18" d="M172,227c0.3,1.6-0.8,3.2-2.4,3.5c-1.6,0.3-3.2-0.8-3.5-2.4c-0.3-1.6,0.8-3.1,2.3-3.5
						C170.1,224.3,171.7,225.3,172,227z"/>
					<g class="st19">
						<path class="st18" d="M171.7,226.3l0.1,0.2c0.2,1.2-0.6,2.4-1.8,2.7s-2.4-0.6-2.7-1.8c-0.2-1.2,0.6-2.4,1.8-2.7
							c0.4-0.1,0.7,0,1.1,0.1c-0.6-0.3-1.2-0.3-1.8-0.2c-1.6,0.4-2.6,2-2.3,3.6c0.4,1.6,2,2.6,3.6,2.3c1.5-0.3,2.6-1.8,2.3-3.4
							C171.9,226.8,171.9,226.5,171.7,226.3z"/>
					</g>
					<path class="st18" d="M179.1,220.7c0.3,1.8-0.8,3.5-2.6,3.8s-3.5-0.8-3.8-2.6c-0.3-1.8,0.8-3.5,2.6-3.8
						C177,217.8,178.7,219,179.1,220.7z"/>
					<g class="st19">
						<path class="st18" d="M178.8,220c0,0.1,0.1,0.2,0.1,0.2c0.3,1.3-0.6,2.6-2,2.9s-2.6-0.6-2.9-2c-0.3-1.3,0.6-2.6,1.9-2.9
							c0.4-0.1,0.8-0.1,1.2,0.1c-0.6-0.3-1.3-0.4-2-0.2c-1.8,0.3-2.9,2.1-2.6,3.8s2.1,2.9,3.8,2.6s2.9-2.1,2.6-3.8c0,0,0,0,0,0
							C179,220.5,178.9,220.2,178.8,220z"/>
					</g>
					<path class="st18" d="M182.3,216.4c0.4,2-0.9,3.9-2.9,4.3c-2,0.4-3.9-0.9-4.3-2.9c-0.4-2,0.9-3.9,2.9-4.3
						C180,213.1,181.9,214.4,182.3,216.4z"/>
					<g class="st19">
						<path class="st18" d="M182.1,215.6l0.1,0.3c0.3,1.5-0.7,2.9-2.2,3.2c-1.5,0.3-2.9-0.7-3.2-2.2c-0.3-1.5,0.7-2.9,2.2-3.2
							c0,0,0,0,0,0c0.4-0.1,0.9-0.1,1.3,0.1c-0.7-0.3-1.5-0.4-2.2-0.3c-2,0.4-3.3,2.3-2.9,4.3s2.3,3.3,4.3,2.9
							c2-0.4,3.3-2.3,2.9-4.3C182.3,216.1,182.2,215.8,182.1,215.6z"/>
					</g>
					<path class="st14" d="M173.5,209.1c0,0-0.8-4.1,0.6-6.5c0.7-1.2,1.8-2.1,3.1-2.5c0.4-0.1,0.9,0.1,1,0.5l0,0
						c0.1,0.4-0.1,0.8-0.4,1c-1.3,0.5-2.3,1.5-2.7,2.8c-0.6,2.3-0.7,4.8-0.8,4.9S173.5,209.1,173.5,209.1z"/>
					<path class="st17" d="M174,204.4c0.6-2.2,2.6-3.5,3.9-4.2c-0.2-0.2-0.5-0.2-0.7-0.2c-1.3,0.4-2.4,1.3-3.1,2.5
						c-1.4,2.5-0.6,6.5-0.6,6.5c0.1,0,0.2,0.1,0.3,0.1C173.6,207.6,173.6,206,174,204.4z"/>
					<path class="st18" d="M172.6,208.1c0.3,1.6-0.8,3.2-2.4,3.5c-1.6,0.3-3.2-0.8-3.5-2.4c-0.3-1.6,0.8-3.1,2.4-3.5
						C170.7,205.4,172.2,206.4,172.6,208.1C172.6,208.1,172.6,208.1,172.6,208.1z"/>
					<g class="st19">
						<path class="st18" d="M172.4,207.5l0.1,0.2c0.2,1.2-0.6,2.4-1.8,2.7c-1.2,0.2-2.4-0.6-2.7-1.8c-0.2-1.2,0.6-2.4,1.8-2.7
							c0,0,0,0,0,0c0.4-0.1,0.7-0.1,1.1,0.1c-0.6-0.3-1.2-0.3-1.8-0.2c-1.6,0.3-2.7,1.9-2.3,3.5c0.3,1.6,1.9,2.7,3.5,2.3
							c1.6-0.3,2.6-1.9,2.4-3.5C172.5,207.9,172.5,207.7,172.4,207.5z"/>
					</g>
					<path class="st18" d="M177,209.5c0.3,1.6-0.8,3.2-2.4,3.5c-1.6,0.3-3.2-0.8-3.5-2.4c-0.3-1.6,0.8-3.1,2.3-3.5
						C175.1,206.8,176.6,207.8,177,209.5C177,209.5,177,209.5,177,209.5z"/>
					<g class="st19">
						<path class="st18" d="M176.8,208.8c0,0.1,0,0.2,0.1,0.2c0.2,1.2-0.6,2.4-1.8,2.7s-2.4-0.6-2.7-1.8s0.6-2.4,1.8-2.7
							c0,0,0,0,0,0c0.4-0.1,0.7-0.1,1.1,0.1c-0.6-0.3-1.2-0.3-1.8-0.2c-1.6,0.3-2.7,1.9-2.3,3.5s1.9,2.7,3.5,2.3
							c1.6-0.3,2.6-1.9,2.3-3.5C177,209.3,176.9,209.1,176.8,208.8z"/>
					</g>
					<path class="st18" d="M181,210.8c0.3,1.6-0.8,3.2-2.4,3.5c-1.6,0.3-3.2-0.8-3.5-2.4c-0.3-1.6,0.8-3.1,2.3-3.5
						C179.1,208,180.7,209.1,181,210.8z"/>
					<g class="st19">
						<path class="st18" d="M180.8,210.1l0.1,0.2c0.2,1.2-0.6,2.4-1.8,2.7c-1.2,0.2-2.4-0.6-2.7-1.8c-0.2-1.2,0.6-2.4,1.8-2.7
							c0.4-0.1,0.7,0,1.1,0.1c-1.5-0.7-3.3,0-4,1.5c-0.7,1.5,0,3.3,1.5,4c1.5,0.7,3.3,0,4-1.5c0.2-0.6,0.3-1.2,0.2-1.8
							C181,210.5,180.9,210.3,180.8,210.1z"/>
					</g>
					<path class="st18" d="M170.1,222.7c0.3,1.6-0.8,3.2-2.4,3.5c-1.6,0.3-3.2-0.8-3.5-2.4c-0.3-1.6,0.8-3.1,2.4-3.4
						C168.2,219.9,169.8,221,170.1,222.7C170.1,222.6,170.1,222.7,170.1,222.7z"/>
					<g class="st19">
						<path class="st18" d="M169.9,222l0.1,0.2c0.3,1.2-0.4,2.5-1.7,2.8c-1.2,0.3-2.5-0.4-2.8-1.7c0-0.1,0-0.2-0.1-0.3
							c-0.2-1.2,0.6-2.4,1.8-2.7c0,0,0,0,0,0c0.4-0.1,0.8-0.1,1.1,0.1c-1.5-0.7-3.3,0-4,1.5c-0.7,1.5,0,3.3,1.5,4
							c1.5,0.7,3.3,0,4-1.5c0.2-0.6,0.3-1.2,0.2-1.8C170.1,222.4,170,222.2,169.9,222z"/>
					</g>
					<path class="st18" d="M175.4,224.1c0.3,1.6-0.8,3.2-2.4,3.5c-1.6,0.3-3.2-0.8-3.5-2.4c-0.3-1.6,0.8-3.1,2.3-3.5
						C173.5,221.3,175.1,222.4,175.4,224.1z"/>
					<g class="st19">
						<path class="st18" d="M175.2,223.4l0.1,0.2c0.2,1.2-0.6,2.4-1.8,2.7s-2.4-0.6-2.7-1.8c-0.2-1.2,0.6-2.4,1.8-2.7
							c0.4-0.1,0.8,0,1.1,0.1c-1.5-0.6-3.3,0.1-3.9,1.7c-0.6,1.5,0.1,3.3,1.7,3.9c0.5,0.2,1,0.3,1.5,0.2c1.7-0.3,2.7-1.9,2.4-3.6
							C175.4,223.8,175.3,223.6,175.2,223.4z"/>
					</g>
					<path class="st18" d="M169.2,217.7c0.3,1.8-0.8,3.5-2.6,3.8c-1.8,0.3-3.5-0.8-3.8-2.6c-0.3-1.8,0.8-3.5,2.6-3.8c0,0,0,0,0,0
						C167.1,214.7,168.8,215.9,169.2,217.7z"/>
					<g class="st19">
						<path class="st18" d="M168.9,217l0.1,0.2c0.2,1.3-0.7,2.6-2,2.8c-1.3,0.2-2.6-0.7-2.8-2c-0.2-1.3,0.6-2.6,2-2.8
							c0.4-0.1,0.8-0.1,1.2,0.1c-0.6-0.3-1.3-0.4-2-0.2c-1.8,0.3-2.9,2.1-2.6,3.8s2.1,2.9,3.8,2.6c1.8-0.3,2.9-2.1,2.6-3.8
							C169.1,217.4,169,217.2,168.9,217z"/>
					</g>
					<path class="st18" d="M174.2,219.4c0.3,1.8-0.8,3.5-2.6,3.8s-3.5-0.8-3.8-2.6s0.8-3.5,2.6-3.8c0,0,0,0,0,0
						C172.1,216.4,173.8,217.6,174.2,219.4z"/>
					<g class="st19">
						<path class="st18" d="M174,218.6l0.1,0.2c0.2,1.3-0.6,2.6-2,2.8c-1.3,0.2-2.6-0.6-2.8-2s0.6-2.6,2-2.8c0.4-0.1,0.8,0,1.2,0.1
							c-1.6-0.8-3.6,0-4.3,1.6c-0.8,1.6,0,3.6,1.6,4.3s3.6,0,4.3-1.6c0.3-0.6,0.4-1.3,0.2-2C174.2,219.1,174.1,218.9,174,218.6z"/>
					</g>
					<path class="st18" d="M178.9,215.3c0.4,2-0.9,3.9-2.9,4.3c-2,0.4-3.9-0.9-4.3-2.9c-0.4-2,0.9-3.9,2.9-4.3
						C176.7,212,178.6,213.3,178.9,215.3z"/>
					<g class="st19">
						<path class="st18" d="M178.7,214.5c0,0.1,0.1,0.2,0.1,0.3c0.3,1.5-0.7,2.9-2.2,3.2s-2.9-0.7-3.2-2.2c-0.3-1.5,0.7-2.9,2.2-3.2
							c0.4-0.1,0.9-0.1,1.3,0.1c-1.8-0.8-4,0-4.8,1.8c-0.8,1.8,0,4,1.8,4.8c0.7,0.3,1.4,0.4,2.2,0.3c2-0.4,3.3-2.3,2.9-4.3
							C178.9,215,178.8,214.7,178.7,214.5z"/>
					</g>
					<path class="st18" d="M169.7,211.9c0.4,2-0.9,3.9-2.9,4.3c-2,0.4-3.9-0.9-4.3-2.9c-0.4-2,0.9-3.9,2.9-4.3c0,0,0,0,0,0
						C167.4,208.7,169.3,210,169.7,211.9z"/>
					<g class="st19">
						<path class="st18" d="M169.4,211.1c0,0.1,0.1,0.2,0.1,0.3c0.3,1.5-0.7,2.9-2.2,3.2s-2.9-0.7-3.2-2.2c-0.3-1.5,0.7-2.9,2.2-3.2
							c0.4-0.1,0.9-0.1,1.3,0.1c-0.7-0.3-1.4-0.4-2.2-0.3c-2,0.4-3.3,2.3-2.9,4.3c0.4,2,2.3,3.3,4.3,2.9c2-0.4,3.3-2.3,2.9-4.3
							c0,0,0,0,0,0C169.6,211.7,169.5,211.4,169.4,211.1z"/>
					</g>
					<path class="st18" d="M174.7,213.8c0.4,2-0.9,3.9-2.9,4.3c-2,0.4-3.9-0.9-4.3-2.9c-0.4-2,0.9-3.9,2.9-4.3
						C172.4,210.5,174.3,211.8,174.7,213.8z"/>
					<g class="st19">
						<path class="st18" d="M174.4,213c0,0.1,0.1,0.2,0.1,0.3c0.3,1.5-0.7,2.9-2.2,3.2c-1.5,0.3-2.9-0.7-3.2-2.2
							c-0.3-1.5,0.7-2.9,2.2-3.2c0,0,0,0,0,0c0.4-0.1,0.9-0.1,1.3,0.1c-1.8-0.8-4,0-4.8,1.8s0,4,1.8,4.8c1.8,0.8,4,0,4.8-1.8
							c0.3-0.7,0.4-1.5,0.3-2.2C174.6,213.5,174.5,213.3,174.4,213z"/>
					</g>
					<g class="st20">
						<path class="st5" d="M171.7,207.5c0,0.3-0.4,0.2-0.4-0.1c0-0.2-0.1-0.5-0.3-0.6l-0.1-0.1h-0.1l-0.1-0.1l0,0h-0.1
							c-0.1,0-0.2-0.1-0.1-0.2c0,0,0,0,0,0c0-0.1,0.1-0.2,0.2-0.1c0,0,0,0,0,0h0.1c0.2,0,0.4,0.1,0.5,0.2l0,0
							C171.6,206.9,171.7,207.2,171.7,207.5z M175.3,207.8c-0.6-0.1-1.2,0.1-1.6,0.6c-0.2,0.2,0.1,0.4,0.3,0.2
							c0.3-0.3,0.7-0.5,1.2-0.4C175.5,208.2,175.6,207.8,175.3,207.8z M178.5,208.9c-0.7,0.2-1.2,0.7-1.3,1.4c0,0.1,0.1,0.2,0.2,0.2
							c0.1,0,0.2-0.1,0.2-0.2c0.1-0.5,0.4-0.9,0.9-1C178.8,209.3,178.8,208.9,178.5,208.9z M176.7,212.9c-0.2-0.1-0.4,0.3-0.1,0.4
							c0.4,0.2,0.7,0.6,0.7,1.1c0,0.3,0.4,0.3,0.4,0.1C177.6,213.9,177.3,213.3,176.7,212.9L176.7,212.9z M173,212.4
							c-0.8-0.3-1.7-0.1-2.3,0.6c-0.2,0.2,0.1,0.4,0.3,0.2c0.5-0.5,1.2-0.7,1.9-0.4c0.1,0,0.2,0,0.3-0.2
							C173.1,212.6,173.1,212.5,173,212.4L173,212.4z M166.5,209.9c-0.8,0.3-1.3,1.2-1,2.1c0.1,0.2,0.5,0.1,0.4-0.2
							c-0.2-0.6,0.2-1.3,0.8-1.5C166.9,210.2,166.7,209.8,166.5,209.9L166.5,209.9z M181,214.7c-0.1-0.1-0.2,0-0.3,0.1
							c0,0.1,0,0.2,0,0.2c0.3,0.2,0.4,0.5,0.3,0.9c-0.1,0.3,0.4,0.3,0.4,0.1C181.6,215.5,181.4,215,181,214.7z M176.2,222
							c-0.5-0.1-0.9-0.6-0.8-1.2c0,0,0,0,0-0.1c0.1-0.3-0.4-0.3-0.4-0.1c-0.2,0.8,0.3,1.5,1.1,1.7c0,0,0,0,0,0
							C176.4,222.5,176.5,222.1,176.2,222z M170.6,220.1c-0.4-0.3-0.6-0.7-0.5-1.2c0-0.3-0.4-0.3-0.4-0.1c-0.1,0.8,0.3,1.5,1,1.8
							c0.1,0,0.2,0,0.3-0.1c0,0,0-0.1,0-0.1v-0.2c0-0.1-0.1-0.2-0.2-0.2C170.7,220.1,170.6,220.1,170.6,220.1L170.6,220.1z
							 M165.6,218.7c-0.5-0.2-0.7-0.7-0.5-1.2c0,0,0-0.1,0-0.1c0.1-0.2-0.2-0.5-0.3-0.2c-0.4,0.6-0.2,1.4,0.4,1.8
							c0.1,0,0.1,0.1,0.2,0.1C165.7,219.2,165.8,218.9,165.6,218.7L165.6,218.7z M167.5,223.7c-0.5-0.1-0.8-0.6-0.7-1.1c0,0,0,0,0,0
							c0.1-0.2-0.3-0.4-0.4-0.1c-0.2,0.7,0.2,1.4,0.9,1.6c0,0,0.1,0,0.1,0C167.7,224.2,167.7,223.8,167.5,223.7L167.5,223.7z
							 M169.7,227.7c-0.5-0.1-0.9-0.4-1-0.9c-0.1-0.3-0.5-0.2-0.4,0.1c0.2,0.7,0.7,1.2,1.4,1.3C169.9,228.1,169.9,227.7,169.7,227.7
							L169.7,227.7z"/>
					</g>
					<path class="st14" d="M187.1,154.5c0,0,2.6,0.6,4.4-0.5c0.7-0.4,1.3-0.9,1.8-1.4c0.1-0.1,0.1-0.3,0-0.4c0,0-0.1-0.1-0.2-0.1
						l-0.9-0.1c0.6-0.6,1.1-1.2,1.5-2c0.3-0.6,0.5-0.9,0.6-1.2c0.1-0.2,0-0.4-0.2-0.4c-0.1,0-0.1,0-0.2,0l-0.3,0.1l2-2.8
						c-1.6-0.2-3.2-0.2-4.8,0.1c-0.9,0.1-1.7,0.5-2.4,1l0.1-1c0-0.2-0.1-0.4-0.3-0.4c-0.1,0-0.1,0-0.2,0c-0.8,0.3-2.2,1.4-3.5,4.6
						C182.7,154.6,187.1,154.5,187.1,154.5z"/>
					<path class="st17" d="M184.6,149.9c1.3-3.2,2.8-4.3,3.5-4.6c0.2-0.1,0.4,0,0.5,0.2c0,0.1,0,0.1,0,0.2l-0.1,1
						c0.7-0.5,1.6-0.9,2.4-1c1.6-0.2,3.2-0.3,4.8-0.1c0,0-6.9,3-11.3,7.5C184,152.5,184,151.4,184.6,149.9z"/>
					<path class="st18" d="M183.1,169.3c0.3,1.6-0.8,3.2-2.4,3.5c-1.6,0.3-3.2-0.8-3.5-2.4c-0.3-1.6,0.8-3.1,2.3-3.5
						C181.1,166.6,182.7,167.6,183.1,169.3C183.1,169.3,183.1,169.3,183.1,169.3z"/>
					<g class="st19">
						<path class="st18" d="M182.9,168.7l0.1,0.2c0.3,1.3-0.6,2.5-1.8,2.7c-1.3,0.3-2.5-0.6-2.7-1.8c-0.3-1.3,0.6-2.5,1.8-2.7
							c0.4-0.1,0.8-0.1,1.1,0.1c-1.5-0.7-3.3,0-4,1.5c-0.7,1.5,0,3.3,1.5,4c1.5,0.7,3.3,0,4-1.5c0.3-0.6,0.3-1.2,0.2-1.8
							C183,169.1,183,168.9,182.9,168.7z"/>
					</g>
					<path class="st18" d="M190.2,163.1c0.3,1.8-0.8,3.5-2.6,3.8c-1.8,0.3-3.5-0.8-3.8-2.6c-0.3-1.8,0.8-3.5,2.6-3.8
						C188.1,160.2,189.9,161.3,190.2,163.1C190.2,163.1,190.2,163.1,190.2,163.1z"/>
					<g class="st19">
						<path class="st18" d="M190,162.4c0,0.1,0.1,0.2,0.1,0.2c0.3,1.3-0.6,2.6-2,2.9s-2.6-0.6-2.9-2c-0.3-1.3,0.6-2.6,1.9-2.9
							c0.4-0.1,0.8-0.1,1.2,0.1c-0.6-0.3-1.3-0.4-2-0.2c-1.8,0.3-3,2.1-2.6,3.8c0.3,1.8,2.1,3,3.8,2.6c1.8-0.3,3-2.1,2.6-3.8
							c0,0,0,0,0,0C190.2,162.9,190.1,162.6,190,162.4z"/>
					</g>
					<path class="st18" d="M193.4,158.8c0.4,2-0.9,3.9-2.9,4.3c-2,0.4-3.9-0.9-4.3-2.9c-0.4-2,0.9-3.9,2.9-4.3
						C191.2,155.5,193.1,156.8,193.4,158.8z"/>
					<g class="st19">
						<path class="st18" d="M193.2,158l0.1,0.3c0.3,1.5-0.7,2.9-2.2,3.2c-1.5,0.3-2.9-0.7-3.2-2.2c-0.3-1.5,0.7-2.9,2.2-3.2
							c0,0,0,0,0,0c0.4-0.1,0.9-0.1,1.3,0.1c-0.7-0.3-1.5-0.4-2.2-0.3c-2,0.4-3.3,2.3-2.9,4.3s2.3,3.3,4.3,2.9
							c2-0.4,3.3-2.3,2.9-4.3C193.4,158.5,193.3,158.3,193.2,158z"/>
					</g>
					<path class="st14" d="M184.6,151.5c0,0-0.8-4.1,0.6-6.5c0.7-1.2,1.8-2.1,3.1-2.5c0.4-0.1,0.9,0.1,1,0.5l0,0
						c0.1,0.4-0.1,0.8-0.4,1c-1.3,0.4-2.3,1.5-2.7,2.8c-0.6,2.3-0.7,4.8-0.8,4.9S184.6,151.5,184.6,151.5z"/>
					<path class="st17" d="M185.1,146.8c0.6-2.2,2.6-3.5,3.9-4.2c-0.2-0.2-0.5-0.2-0.7-0.2c-1.3,0.4-2.4,1.3-3.1,2.5
						c-1.4,2.5-0.6,6.5-0.6,6.5c0.1,0,0.2,0.1,0.3,0.1C184.7,150,184.7,148.4,185.1,146.8z"/>
					<path class="st18" d="M183.7,150.5c0.3,1.6-0.8,3.2-2.4,3.5c-1.6,0.3-3.2-0.8-3.5-2.4c-0.3-1.6,0.8-3.1,2.4-3.5
						C181.8,147.8,183.4,148.8,183.7,150.5C183.7,150.4,183.7,150.5,183.7,150.5z"/>
					<g class="st19">
						<path class="st18" d="M183.5,149.8l0.1,0.2c0.2,1.2-0.6,2.4-1.8,2.7c-1.2,0.2-2.4-0.6-2.7-1.8c-0.2-1.2,0.6-2.4,1.8-2.7
							c0.4-0.1,0.7-0.1,1.1,0.1c-0.6-0.3-1.2-0.3-1.8-0.2c-1.6,0.3-2.7,1.9-2.3,3.5c0.3,1.6,1.9,2.7,3.5,2.3
							c1.6-0.3,2.6-1.9,2.4-3.5C183.7,150.3,183.6,150,183.5,149.8z"/>
					</g>
					<path class="st18" d="M188.1,151.9c0.3,1.6-0.8,3.2-2.4,3.5c-1.6,0.3-3.2-0.8-3.5-2.4c-0.3-1.6,0.8-3.1,2.3-3.5
						C186.2,149.1,187.8,150.2,188.1,151.9C188.1,151.8,188.1,151.9,188.1,151.9z"/>
					<g class="st19">
						<path class="st18" d="M187.9,151.2c0,0.1,0,0.2,0.1,0.2c0.2,1.2-0.6,2.4-1.8,2.7s-2.4-0.6-2.7-1.8s0.6-2.4,1.8-2.7
							c0,0,0,0,0,0c0.4-0.1,0.7-0.1,1.1,0.1c-1.5-0.7-3.3,0-4,1.5c-0.7,1.5,0,3.3,1.5,4c1.5,0.7,3.3,0,4-1.5
							c0.3-0.6,0.3-1.2,0.2-1.8C188.1,151.7,188,151.4,187.9,151.2z"/>
					</g>
					<path class="st18" d="M192.2,153.1c0.3,1.6-0.8,3.2-2.4,3.5c-1.6,0.3-3.2-0.8-3.5-2.4c-0.3-1.6,0.8-3.1,2.3-3.5
						C190.2,150.4,191.8,151.5,192.2,153.1z"/>
					<g class="st19">
						<path class="st18" d="M191.9,152.5l0.1,0.2c0.2,1.2-0.6,2.4-1.8,2.7c-1.2,0.2-2.4-0.6-2.7-1.8c-0.2-1.2,0.6-2.4,1.8-2.7
							c0.4-0.1,0.7,0,1.1,0.1c-1.5-0.7-3.3,0-4,1.5c-0.7,1.5,0,3.3,1.5,4c1.5,0.7,3.3,0,4-1.5c0.2-0.6,0.3-1.2,0.2-1.8
							C192.1,152.9,192,152.7,191.9,152.5z"/>
					</g>
					<path class="st18" d="M181.2,165.1c0.3,1.6-0.8,3.2-2.4,3.5c-1.6,0.3-3.2-0.8-3.5-2.4c-0.3-1.6,0.8-3.1,2.4-3.4
						C179.3,162.3,180.9,163.3,181.2,165.1C181.2,165,181.2,165,181.2,165.1z"/>
					<g class="st19">
						<path class="st18" d="M181,164.4l0.1,0.2c0.2,1.2-0.6,2.4-1.8,2.7s-2.4-0.6-2.7-1.8c-0.2-1.2,0.6-2.4,1.8-2.7c0,0,0,0,0,0
							c0.4-0.1,0.8-0.1,1.1,0.1c-1.5-0.7-3.3,0-4,1.5c-0.7,1.5,0,3.3,1.5,4c1.5,0.7,3.3,0,4-1.5c0.2-0.6,0.3-1.2,0.2-1.8
							C181.2,164.8,181.1,164.6,181,164.4z"/>
					</g>
					<path class="st18" d="M186.5,166.4c0.3,1.6-0.8,3.2-2.4,3.5c-1.6,0.3-3.2-0.8-3.5-2.4c-0.3-1.6,0.8-3.2,2.4-3.5
						C184.6,163.7,186.2,164.8,186.5,166.4z"/>
					<g class="st19">
						<path class="st18" d="M186.3,165.8l0.1,0.2c0.3,1.3-0.6,2.5-1.8,2.7c-1.3,0.3-2.5-0.6-2.7-1.8c-0.3-1.3,0.6-2.5,1.8-2.7
							c0.4-0.1,0.8-0.1,1.1,0.1c-1.5-0.6-3.3,0.1-3.9,1.7c-0.6,1.5,0.1,3.3,1.7,3.9c0.5,0.2,1,0.3,1.5,0.2c1.7-0.3,2.7-1.9,2.4-3.6
							C186.5,166.2,186.4,166,186.3,165.8z"/>
					</g>
					<path class="st18" d="M180.3,160.1c0.3,1.8-0.8,3.5-2.6,3.8c-1.8,0.3-3.5-0.8-3.8-2.6c-0.3-1.8,0.8-3.5,2.6-3.8c0,0,0,0,0,0
						C178.2,157.1,180,158.3,180.3,160.1C180.3,160,180.3,160.1,180.3,160.1z"/>
					<g class="st19">
						<path class="st18" d="M180.1,159.3l0.1,0.2c0.2,1.3-0.7,2.6-2,2.8c-1.3,0.2-2.6-0.7-2.8-2c-0.2-1.3,0.6-2.6,2-2.8
							c0.4-0.1,0.8-0.1,1.2,0.1c-0.6-0.3-1.3-0.4-2-0.2c-1.8,0.3-2.9,2.1-2.6,3.8s2.1,2.9,3.8,2.6c1.8-0.3,2.9-2.1,2.6-3.8
							C180.2,159.8,180.2,159.6,180.1,159.3z"/>
					</g>
					<path class="st18" d="M185.3,161.7c0.3,1.8-0.8,3.5-2.6,3.8s-3.5-0.8-3.8-2.6s0.8-3.5,2.6-3.8c0,0,0,0,0,0
						C183.3,158.8,185,160,185.3,161.7z"/>
					<g class="st19">
						<path class="st18" d="M185.1,161l0.1,0.2c0.2,1.3-0.6,2.6-2,2.8c-1.3,0.2-2.6-0.6-2.8-2s0.6-2.6,2-2.8c0.4-0.1,0.8,0,1.2,0.1
							c-1.6-0.8-3.6,0-4.3,1.6c-0.8,1.6,0,3.6,1.6,4.3s3.6,0,4.3-1.6c0.3-0.6,0.4-1.3,0.2-2C185.3,161.5,185.2,161.2,185.1,161z"/>
					</g>
					<path class="st18" d="M190.1,157.6c0.4,2-0.9,3.9-2.9,4.3c-2,0.4-3.9-0.9-4.3-2.9c-0.4-2,0.9-3.9,2.9-4.3
						C187.8,154.4,189.7,155.7,190.1,157.6z"/>
					<g class="st19">
						<path class="st18" d="M189.8,156.9c0,0.1,0.1,0.2,0.1,0.3c0.3,1.5-0.7,2.9-2.2,3.2s-2.9-0.7-3.2-2.2c-0.3-1.5,0.7-2.9,2.2-3.2
							c0.4-0.1,0.9-0.1,1.3,0c-1.8-0.8-4,0-4.8,1.8c-0.8,1.8,0,4,1.8,4.8c0.7,0.3,1.4,0.4,2.2,0.3c2-0.4,3.3-2.3,2.9-4.3
							C190,157.4,189.9,157.1,189.8,156.9z"/>
					</g>
					<path class="st18" d="M180.8,154.3c0.4,2-0.9,3.9-2.9,4.3c-2,0.4-3.9-0.9-4.3-2.9c-0.4-2,0.9-3.9,2.9-4.3c0,0,0,0,0,0
						C178.5,151,180.4,152.3,180.8,154.3C180.8,154.3,180.8,154.3,180.8,154.3z"/>
					<g class="st19">
						<path class="st18" d="M180.6,153.5c0,0.1,0.1,0.2,0.1,0.3c0.3,1.5-0.7,2.9-2.2,3.2s-2.9-0.7-3.2-2.2c-0.3-1.5,0.7-2.9,2.2-3.2
							c0.4-0.1,0.9-0.1,1.3,0.1c-0.7-0.3-1.4-0.4-2.2-0.3c-2,0.4-3.3,2.3-2.9,4.3c0.4,2,2.3,3.3,4.3,2.9c2-0.4,3.3-2.3,2.9-4.3
							c0,0,0,0,0,0C180.8,154,180.7,153.8,180.6,153.5z"/>
					</g>
					<path class="st18" d="M185.8,156.1c0.4,2-0.9,3.9-2.9,4.3c-2,0.4-3.9-0.9-4.3-2.9c-0.4-2,0.9-3.9,2.9-4.3
						C183.5,152.9,185.4,154.2,185.8,156.1z"/>
					<g class="st19">
						<path class="st18" d="M185.5,155.3c0,0.1,0.1,0.2,0.1,0.3c0.3,1.5-0.7,2.9-2.2,3.2c-1.5,0.3-2.9-0.7-3.2-2.2
							c-0.3-1.5,0.7-2.9,2.2-3.2c0,0,0,0,0,0c0.4-0.1,0.9-0.1,1.3,0.1c-0.7-0.3-1.5-0.4-2.2-0.3c-2,0.4-3.3,2.3-2.9,4.3
							s2.3,3.3,4.3,2.9c2-0.4,3.3-2.3,2.9-4.3C185.7,155.9,185.7,155.6,185.5,155.3z"/>
					</g>
					<g class="st20">
						<path class="st5" d="M182.8,149.9c0,0.3-0.4,0.2-0.4,0c0-0.2-0.1-0.5-0.3-0.6l-0.1-0.1h-0.1h-0.1l0,0h-0.1
							c-0.1,0-0.2-0.1-0.1-0.2c0,0,0,0,0,0c0-0.1,0.1-0.2,0.2-0.1c0,0,0,0,0,0h0.1c0.2,0,0.4,0.1,0.5,0.2l0,0
							C182.7,149.3,182.8,149.6,182.8,149.9z M186.4,150.1c-0.6-0.1-1.2,0.1-1.6,0.6c-0.2,0.2,0.1,0.4,0.3,0.2
							c0.3-0.3,0.7-0.5,1.2-0.4C186.7,150.6,186.7,150.2,186.4,150.1z M189.6,151.3c-0.7,0.2-1.2,0.7-1.3,1.4c0,0.1,0.1,0.2,0.2,0.2
							c0.1,0,0.2-0.1,0.2-0.2c0.1-0.5,0.4-0.9,0.9-1C190,151.6,189.9,151.2,189.6,151.3z M187.8,155.3c-0.2-0.1-0.4,0.3-0.1,0.4
							c0.4,0.2,0.7,0.6,0.7,1.1c0,0.3,0.4,0.3,0.4,0C188.8,156.2,188.4,155.6,187.8,155.3L187.8,155.3z M184.1,154.8
							c-0.8-0.3-1.7-0.1-2.3,0.6c-0.2,0.2,0.1,0.4,0.3,0.2c0.5-0.5,1.2-0.7,1.9-0.4c0.1,0,0.2-0.1,0.2-0.2
							C184.2,154.9,184.1,154.8,184.1,154.8L184.1,154.8z M177.6,152.2c-0.8,0.3-1.3,1.2-1,2.1c0.1,0.2,0.5,0.1,0.4-0.2
							c-0.2-0.6,0.2-1.3,0.8-1.5C178,152.6,177.9,152.2,177.6,152.2L177.6,152.2z M192.1,157.1c-0.2-0.2-0.5,0.2-0.2,0.3
							c0.3,0.2,0.4,0.5,0.3,0.9c0,0.3,0.4,0.3,0.4,0.1C192.6,157.8,192.5,157.4,192.1,157.1L192.1,157.1z M187.3,164.4
							c-0.5-0.1-0.9-0.6-0.8-1.2c0,0,0,0,0-0.1c0.1-0.3-0.4-0.3-0.4-0.1c-0.2,0.8,0.3,1.5,1.1,1.7c0,0,0,0,0,0
							C187.5,164.9,187.6,164.4,187.3,164.4L187.3,164.4z M181.7,162.5c-0.4-0.3-0.6-0.7-0.5-1.2c0-0.3-0.4-0.3-0.4-0.1
							c-0.1,0.8,0.3,1.5,1,1.8c0.1,0,0.2,0,0.3-0.1c0,0,0-0.1,0-0.1v-0.2c0-0.1-0.1-0.2-0.2-0.2
							C181.8,162.4,181.8,162.5,181.7,162.5L181.7,162.5z M176.7,161.1c-0.5-0.2-0.7-0.7-0.5-1.2c0,0,0-0.1,0-0.1
							c0.1-0.2-0.2-0.5-0.3-0.2c-0.4,0.6-0.2,1.4,0.4,1.8c0.1,0,0.1,0.1,0.2,0.1C176.8,161.6,176.9,161.2,176.7,161.1L176.7,161.1z
							 M178.6,166.1c-0.5-0.1-0.8-0.6-0.7-1.1c0,0,0,0,0,0c0.1-0.2-0.3-0.4-0.4-0.1c-0.2,0.7,0.2,1.4,0.9,1.6c0,0,0.1,0,0.1,0
							C178.8,166.6,178.9,166.2,178.6,166.1L178.6,166.1z M180.8,170c-0.5-0.1-0.9-0.4-1-0.9c-0.1-0.3-0.5-0.2-0.4,0.1
							c0.2,0.7,0.7,1.2,1.4,1.3C181,170.5,181.1,170.1,180.8,170L180.8,170z"/>
					</g>
					<path class="st14" d="M61.9,109.8c1.2-0.5,2.2-1.4,2.8-2.5c0.3-0.6,0.5-1.2,0.6-1.9c0-0.1-0.1-0.3-0.2-0.3c0,0-0.1,0-0.1,0
						l-0.6,0.4c0.2-0.7,0.2-1.4,0.1-2.1c-0.1-0.5-0.1-0.9-0.2-1.2c0-0.2-0.2-0.2-0.3-0.2c-0.1,0-0.1,0-0.1,0.1l-0.2,0.2v-2.9
						c-1.2,0.7-2.3,1.5-3.3,2.4c-0.5,0.5-1,1.2-1.2,1.9l-0.4-0.8c-0.1-0.1-0.3-0.2-0.4-0.1c0,0-0.1,0.1-0.1,0.1
						c-0.4,0.6-0.9,2-0.2,5C58.9,112.1,61.9,109.8,61.9,109.8z"/>
					<path class="st17" d="M57.9,107.8c-0.7-2.9-0.2-4.3,0.2-5c0.1-0.1,0.3-0.2,0.4-0.1c0,0,0.1,0.1,0.1,0.1l0.4,0.8
						c0.3-0.7,0.7-1.4,1.2-1.9c1-0.9,2.1-1.7,3.3-2.4c0,0-3.4,5.5-4.2,10.8C58.6,109.6,58,108.8,57.9,107.8z"/>
					<path class="st18" d="M66.4,122.2c1,1,1.1,2.7,0.1,3.7c-1,1-2.7,1.1-3.7,0.1c-1-1-1.1-2.7-0.1-3.7c0,0,0,0,0,0
						C63.7,121.2,65.4,121.2,66.4,122.2z"/>
					<g class="st19">
						<path class="st18" d="M65.9,121.8l0.2,0.1c0.8,0.8,0.8,2,0.1,2.8c-0.8,0.8-2,0.8-2.8,0.1c-0.8-0.8-0.8-2-0.1-2.8
							c0,0,0,0,0.1-0.1c0.2-0.2,0.5-0.4,0.8-0.5c-0.5,0.1-1,0.4-1.4,0.8c-1,1-1,2.7,0.1,3.7c1,1,2.7,1,3.7-0.1c1-1,1-2.7-0.1-3.7
							c0,0,0,0,0,0C66.3,122,66.1,121.9,65.9,121.8z"/>
					</g>
					<circle class="st18" cx="66.4" cy="116.4" r="2.8"/>
					<g class="st19">
						<path class="st18" d="M67.8,114l0.2,0.1c0.8,0.8,0.8,2.2,0,3c-0.8,0.8-2.2,0.8-3,0c-0.8-0.8-0.8-2.1,0-2.9
							c0.2-0.2,0.5-0.4,0.9-0.5c-0.6,0.1-1.1,0.4-1.5,0.8c-1.1,1.1-1,2.9,0.1,4c1.1,1.1,2.9,1,4-0.1c1-1.1,1-2.8-0.1-3.9
							C68.2,114.2,68,114.1,67.8,114z"/>
					</g>
					<path class="st18" d="M68.5,109.7c1.2,1.2,1.3,3.2,0.1,4.4c-1.2,1.2-3.2,1.3-4.4,0.1c-1.2-1.2-1.3-3.2-0.1-4.4
						C65.2,108.5,67.2,108.5,68.5,109.7C68.4,109.7,68.5,109.7,68.5,109.7z"/>
					<g class="st19">
						<path class="st18" d="M67.9,109.3l0.2,0.2c0.9,0.9,0.9,2.4,0,3.3s-2.4,0.9-3.3,0c-0.9-0.9-0.9-2.4,0-3.3
							c0.3-0.3,0.6-0.5,1-0.6c-0.6,0.1-1.2,0.4-1.7,0.9c-1.2,1.2-1.2,3.2,0,4.4c1.2,1.2,3.2,1.2,4.4,0c1.2-1.2,1.2-3.2,0-4.4
							c0,0,0,0,0,0C68.3,109.5,68.1,109.4,67.9,109.3z"/>
					</g>
					<path class="st14" d="M58.7,108.9c0,0-2.5-2.4-2.8-4.8c-0.1-1.2,0.2-2.3,0.9-3.3c0.2-0.3,0.6-0.3,0.9-0.1l0,0
						c0.3,0.2,0.4,0.6,0.2,0.9c-0.7,0.9-0.9,2.2-0.6,3.3c0.7,1.9,1.8,3.7,1.8,3.8S58.7,108.9,58.7,108.9z"/>
					<path class="st17" d="M56.8,105.4c-0.5-1.7-0.2-3.4,0.7-4.9c-0.2,0-0.4,0.1-0.6,0.2c-0.7,0.9-1.1,2.1-0.9,3.3
						c0.3,2.4,2.8,4.8,2.8,4.8c0.1,0,0.2-0.1,0.3-0.1C58,107.9,57.2,106.7,56.8,105.4z"/>
					<path class="st18" d="M57.6,108.7c1,1,1.1,2.6,0.1,3.7c-1,1-2.6,1.1-3.7,0.1c-1-1-1.1-2.6-0.1-3.7c0,0,0,0,0,0
						C54.9,107.7,56.6,107.7,57.6,108.7C57.6,108.7,57.6,108.7,57.6,108.7z"/>
					<g class="st19">
						<path class="st18" d="M57.1,108.3l0.2,0.1c0.8,0.8,0.8,2,0.1,2.8c-0.8,0.8-2,0.8-2.8,0.1c-0.8-0.8-0.8-2-0.1-2.8
							c0.2-0.2,0.5-0.4,0.8-0.5c-0.5,0.1-1,0.4-1.4,0.7c-1,1-1,2.7,0,3.7c1,1,2.7,1,3.7,0c1-1,1-2.7,0-3.7c0,0,0,0,0,0
							C57.4,108.6,57.3,108.4,57.1,108.3z"/>
					</g>
					<path class="st18" d="M61.4,107.5c1,1,1,2.7,0,3.7s-2.7,1-3.7,0c-1-1-1-2.7,0-3.7c0,0,0,0,0,0
						C58.7,106.5,60.4,106.5,61.4,107.5C61.4,107.5,61.4,107.5,61.4,107.5z"/>
					<g class="st19">
						<path class="st18" d="M60.9,107.1l0.2,0.1c0.9,0.6,1.2,1.8,0.7,2.8s-1.8,1.2-2.8,0.7c-0.3-0.2-0.5-0.4-0.6-0.6
							c-0.8-0.8-0.8-2,0-2.7c0,0,0,0,0,0c0.2-0.2,0.5-0.4,0.8-0.5c-0.5,0.1-1,0.4-1.4,0.7c-1,1-1,2.7,0,3.7s2.7,1,3.7,0s1-2.7,0-3.7
							c0,0,0,0,0,0C61.3,107.4,61.1,107.2,60.9,107.1z"/>
					</g>
					<path class="st18" d="M64.8,106.4c1,1,1,2.7,0,3.7s-2.7,1-3.7,0s-1-2.7,0-3.7c0,0,0,0,0,0C62.1,105.4,63.8,105.4,64.8,106.4
						C64.8,106.4,64.8,106.4,64.8,106.4z"/>
					<g class="st19">
						<path class="st18" d="M64.3,106.1l0.2,0.1c0.8,0.8,0.8,2,0,2.7s-2,0.8-2.7,0c-0.8-0.8-0.8-2,0-2.7c0.2-0.2,0.5-0.4,0.8-0.5
							c-1.4,0.3-2.3,1.6-2.1,3c0,0.2,0.1,0.4,0.2,0.5c0.1,0.3,0.3,0.6,0.6,0.8c1.1,0.9,2.7,0.8,3.7-0.3c0.9-1,0.8-2.5,0-3.4
							C64.7,106.3,64.5,106.1,64.3,106.1z"/>
					</g>
					<path class="st18" d="M63,120.1c1,1,1,2.7,0,3.7c-1,1-2.7,1-3.7,0c-1-1-1-2.7,0-3.7c0,0,0,0,0,0C60.3,119.1,62,119.1,63,120.1
						C63,120.1,63,120.1,63,120.1z"/>
					<g class="st19">
						<path class="st18" d="M62.5,119.7l0.2,0.1c0.8,0.8,0.8,2,0.1,2.8c-0.8,0.8-2,0.8-2.8,0.1c-0.8-0.8-0.8-2-0.1-2.8
							c0.2-0.2,0.5-0.4,0.8-0.5c-1.4,0.3-2.4,1.6-2.1,3c0.1,0.5,0.4,1,0.8,1.4c1,1,2.7,1,3.7,0c1-1,1-2.7,0-3.7l0,0
							C62.9,120,62.7,119.8,62.5,119.7z"/>
					</g>
					<path class="st18" d="M67.4,118.5c1,1,1,2.7,0,3.7s-2.7,1-3.7,0s-1-2.7,0-3.7c0,0,0,0,0,0C64.7,117.5,66.4,117.5,67.4,118.5
						C67.4,118.5,67.4,118.5,67.4,118.5z"/>
					<g class="st19">
						<path class="st18" d="M66.9,118.1l0.2,0.1c0.8,0.8,0.8,2,0.1,2.8c-0.8,0.8-2,0.8-2.8,0.1c-0.8-0.8-0.8-2-0.1-2.8
							c0,0,0,0,0.1-0.1c0.2-0.2,0.5-0.4,0.8-0.5c-0.5,0.1-1,0.4-1.4,0.7c-1,1-1,2.7,0,3.7c1,1,2.7,1,3.7,0s1-2.7,0-3.7c0,0,0,0,0,0
							C67.2,118.3,67.1,118.2,66.9,118.1z"/>
					</g>
					<path class="st18" d="M59.9,117.1c1.1,1.1,1.1,2.9,0,4c-1.1,1.1-2.9,1.1-4,0c-1.1-1.1-1.1-2.8-0.1-3.9
						C57,116,58.7,116,59.9,117.1C59.9,117.1,59.9,117.1,59.9,117.1z"/>
					<g class="st19">
						<path class="st18" d="M59.4,116.7l0.2,0.2c0.8,0.8,0.8,2.2,0,3c-0.8,0.8-2.2,0.8-3,0c-0.8-0.8-0.8-2.1,0-2.9
							c0.2-0.2,0.5-0.4,0.9-0.5c-1.5,0.3-2.5,1.7-2.3,3.3c0.3,1.5,1.7,2.5,3.3,2.3c1.5-0.3,2.5-1.7,2.3-3.3
							c-0.1-0.6-0.4-1.1-0.8-1.5C59.7,116.9,59.6,116.8,59.4,116.7z"/>
					</g>
					<path class="st18" d="M64.2,115.8c1.1,1.1,1.1,2.9,0,4c-1.1,1.1-2.9,1.1-4,0c-1.1-1.1-1.1-2.8-0.1-3.9
						C61.3,114.7,63.1,114.7,64.2,115.8C64.2,115.8,64.2,115.8,64.2,115.8z"/>
					<g class="st19">
						<path class="st18" d="M63.7,115.4l0.2,0.1c0.8,0.8,0.8,2.2,0,3c-0.8,0.8-2.2,0.8-3,0c-0.8-0.8-0.8-2.1,0-2.9
							c0.2-0.3,0.5-0.4,0.9-0.5c-1.5,0.3-2.5,1.7-2.2,3.3c0.3,1.5,1.7,2.5,3.3,2.2s2.5-1.7,2.2-3.3c-0.1-0.6-0.4-1.1-0.8-1.5
							C64.1,115.6,63.9,115.5,63.7,115.4z"/>
					</g>
					<path class="st18" d="M65.6,110.6c1.2,1.2,1.2,3.2,0,4.4c-1.2,1.2-3.2,1.2-4.4,0c-1.2-1.2-1.2-3.2-0.1-4.4
						C62.3,109.4,64.3,109.4,65.6,110.6C65.6,110.6,65.6,110.6,65.6,110.6z"/>
					<g class="st19">
						<path class="st18" d="M65,110.2c0.1,0,0.1,0.1,0.2,0.2c0.9,0.9,0.9,2.4,0,3.3c-0.9,0.9-2.4,0.9-3.3,0c-0.9-0.9-0.9-2.4,0-3.3
							c0.3-0.3,0.6-0.5,1-0.6c-1.7,0.3-2.8,1.9-2.5,3.6c0.3,1.7,1.9,2.8,3.6,2.5c1.7-0.3,2.8-1.9,2.5-3.6c-0.1-0.6-0.4-1.2-0.9-1.7
							C65.4,110.4,65.2,110.3,65,110.2z"/>
					</g>
					<path class="st18" d="M57.4,112.8c1.2,1.2,1.3,3.2,0.1,4.4c-1.2,1.2-3.2,1.3-4.4,0.1c-1.2-1.2-1.3-3.2-0.1-4.4
						C54.2,111.6,56.2,111.6,57.4,112.8C57.4,112.8,57.4,112.8,57.4,112.8z"/>
					<g class="st19">
						<path class="st18" d="M56.9,112.4l0.2,0.2c0.9,0.9,0.9,2.4,0,3.3c-0.9,0.9-2.4,0.9-3.3,0c-0.9-0.9-0.9-2.4,0-3.3
							c0.3-0.3,0.6-0.5,0.9-0.6c-0.6,0.1-1.2,0.4-1.7,0.9c-1.2,1.2-1.2,3.2,0.1,4.4c1.2,1.2,3.2,1.2,4.4-0.1
							c1.2-1.2,1.2-3.2-0.1-4.4C57.3,112.6,57.1,112.5,56.9,112.4z"/>
					</g>
					<path class="st18" d="M61.8,111.6c1.2,1.2,1.3,3.2,0.1,4.4c-1.2,1.2-3.2,1.3-4.4,0.1c-1.2-1.2-1.3-3.2-0.1-4.4c0,0,0,0,0,0
						C58.6,110.5,60.6,110.4,61.8,111.6C61.8,111.6,61.8,111.6,61.8,111.6z"/>
					<g class="st19">
						<path class="st18" d="M61.2,111.2l0.2,0.2c0.9,0.9,0.9,2.4,0.1,3.3c-0.9,0.9-2.4,0.9-3.3,0.1s-0.9-2.4-0.1-3.3c0,0,0,0,0,0
							c0.3-0.3,0.6-0.5,1-0.6c-0.6,0.1-1.2,0.4-1.7,0.9c-1.2,1.2-1.2,3.2,0.1,4.4c1.2,1.2,3.2,1.2,4.4-0.1c1.2-1.2,1.2-3.2-0.1-4.4
							C61.7,111.5,61.5,111.3,61.2,111.2z"/>
					</g>
					<g class="st20">
						<path class="st5" d="M56.7,108.7c0.1,0.2-0.2,0.4-0.3,0.2c-0.1-0.2-0.3-0.3-0.5-0.2h-0.1h-0.1h-0.1h-0.1c-0.1,0-0.2,0-0.2-0.1
							s0-0.2,0.1-0.2l0,0c0.1-0.1,0.3-0.2,0.5-0.1l0,0C56.2,108.2,56.5,108.4,56.7,108.7z M59.3,107.1c-0.5,0.2-0.8,0.7-0.8,1.2
							c0,0.2,0.3,0.2,0.3,0c0-0.4,0.3-0.7,0.6-0.9C59.7,107.3,59.5,107,59.3,107.1z M62.1,106.4c-0.4,0.5-0.5,1.1-0.1,1.6
							c0.1,0.1,0.2,0.1,0.3,0c0.1,0,0.1-0.1,0.1-0.2c-0.2-0.4-0.2-0.8,0.1-1.2C62.5,106.5,62.3,106.2,62.1,106.4z M62.9,110.1
							c-0.2,0-0.1,0.4,0.1,0.3c0.4-0.1,0.8,0.1,1,0.4c0.1,0.2,0.4,0,0.3-0.2C64,110.2,63.4,110,62.9,110.1z M60,111.5
							c-0.7,0.2-1.3,0.8-1.4,1.5c0,0.2,0.3,0.2,0.4,0c0.1-0.6,0.5-1.1,1.1-1.2c0.1-0.1,0.1-0.2,0.1-0.2
							C60.1,111.6,60.1,111.5,60,111.5z M54.2,112.9c-0.5,0.6-0.3,1.5,0.3,2c0,0,0,0,0,0c0.2,0.1,0.4-0.2,0.2-0.3
							c-0.4-0.4-0.5-1-0.2-1.5C54.6,112.9,54.3,112.8,54.2,112.9L54.2,112.9z M66.7,109.2c-0.1,0-0.2,0.1-0.2,0.2s0.1,0.2,0.2,0.2
							c0.3,0,0.5,0.2,0.7,0.4c0.1,0.2,0.4,0,0.3-0.2C67.5,109.5,67.1,109.2,66.7,109.2L66.7,109.2z M67,116.7c-0.4,0.2-1,0-1.1-0.5
							c0,0,0,0,0,0c-0.1-0.2-0.4,0-0.3,0.2c0.3,0.6,1,0.9,1.6,0.6c0,0,0,0,0,0C67.3,116.9,67.2,116.6,67,116.7L67,116.7z
							 M62.1,118.1c-0.4,0-0.8-0.2-0.9-0.6c-0.1-0.2-0.4,0-0.3,0.2c0.3,0.6,0.9,0.9,1.6,0.7c0.1,0,0.2-0.1,0.1-0.2c0,0,0,0,0-0.1
							l-0.1-0.2c0-0.1-0.1-0.1-0.2-0.1C62.1,117.9,62.1,118,62.1,118.1L62.1,118.1z M57.9,119.6c-0.4,0.1-0.8-0.2-0.9-0.6
							c0,0,0-0.1,0-0.1c0-0.2-0.4-0.2-0.3,0c0,0.6,0.6,1.1,1.2,1.1c0,0,0.1,0,0.1,0c0.1,0,0.2-0.1,0.1-0.2S58,119.6,57.9,119.6
							L57.9,119.6L57.9,119.6z M61.7,122.2c-0.4,0.2-0.8,0-1-0.4c0,0,0,0,0,0c-0.1-0.2-0.4-0.1-0.3,0.1c0.2,0.6,0.9,0.9,1.4,0.7
							c0,0,0.1,0,0.1,0C62.1,122.4,61.9,122.1,61.7,122.2L61.7,122.2z M65.2,123.9c-0.4,0.2-0.8,0.2-1.2-0.1
							c-0.2-0.2-0.4,0.1-0.2,0.2c0.4,0.4,1.1,0.5,1.6,0.2C65.5,124.1,65.3,123.7,65.2,123.9L65.2,123.9z"/>
					</g>
					<path class="st14" d="M145.4,50.5c1,0.1,1.9-0.2,2.7-0.8c0.4-0.3,0.7-0.7,1-1.1c0.1-0.1,0-0.2,0-0.2c0,0-0.1,0-0.1,0h-0.6
						c0.3-0.4,0.6-0.9,0.7-1.4c0.1-0.4,0.2-0.7,0.2-0.8c0-0.1,0-0.2-0.1-0.3c0,0-0.1,0-0.2,0l-0.2,0.1l0.9-2c-1,0.1-2,0.3-3,0.6
						c-0.5,0.2-1,0.5-1.4,0.9v-0.7c0-0.1-0.1-0.2-0.2-0.2c0,0-0.1,0-0.1,0c-0.4,0.3-1.2,1.1-1.7,3.3
						C142.7,51.1,145.4,50.5,145.4,50.5z"/>
					<path class="st17" d="M143.3,47.9c0.4-2.2,1.2-3,1.7-3.3c0.1-0.1,0.2,0,0.3,0.1c0,0,0,0.1,0,0.1v0.7c0.4-0.4,0.9-0.7,1.4-0.9
						c1-0.3,2-0.5,3-0.6c-2.4,1.6-4.5,3.7-6.2,6C143.2,49.4,143.1,48.6,143.3,47.9z"/>
					<path class="st18" d="M144.7,60.3c0.4,1-0.1,2.1-1.1,2.5c-1,0.4-2.1-0.1-2.5-1.1c-0.4-1,0.1-2.1,1.1-2.5
						C143.2,58.8,144.3,59.3,144.7,60.3C144.7,60.3,144.7,60.3,144.7,60.3z"/>
					<g class="st19">
						<path class="st18" d="M144.5,59.9c0,0,0.1,0.1,0.1,0.1c0.3,0.8-0.1,1.6-0.8,1.9c-0.7,0.3-1.6-0.1-1.9-0.8s0.1-1.6,0.8-1.9l0,0
							c0.2-0.1,0.5-0.1,0.7-0.1c-1-0.3-2.1,0.4-2.4,1.4c-0.1,0.4-0.1,0.8,0.1,1.2c0.4,1,1.5,1.5,2.5,1.1c1-0.4,1.5-1.5,1.1-2.5l0,0
							C144.6,60.1,144.5,60,144.5,59.9z"/>
					</g>
					<path class="st18" d="M148.4,55.5c0.4,1.1-0.1,2.3-1.2,2.7c-1.1,0.4-2.3-0.1-2.7-1.2c-0.4-1.1,0.1-2.3,1.2-2.7c0,0,0,0,0,0
						C146.8,53.9,148,54.5,148.4,55.5z"/>
					<g class="st19">
						<path class="st18" d="M148.2,55.1l0.1,0.2c0.3,0.8-0.1,1.7-0.9,2c-0.8,0.3-1.7-0.1-2-0.9l0,0c-0.3-0.8,0.1-1.7,0.9-2
							c0.2-0.1,0.5-0.1,0.8-0.1c-0.4-0.1-0.9-0.1-1.3,0.1c-1.1,0.4-1.6,1.6-1.2,2.7c0.4,1.1,1.6,1.6,2.7,1.2
							c1.1-0.4,1.6-1.6,1.2-2.7c0,0,0,0,0,0C148.3,55.4,148.3,55.3,148.2,55.1z"/>
					</g>
					<path class="st18" d="M149.9,52.4c0.5,1.2-0.1,2.5-1.3,3c-1.2,0.5-2.5-0.1-3-1.3s0.1-2.5,1.3-3c0,0,0,0,0,0
						C148.1,50.7,149.4,51.3,149.9,52.4z"/>
					<g class="st19">
						<path class="st18" d="M149.6,52c0,0.1,0.1,0.1,0.1,0.2c0.4,0.9-0.1,1.9-1,2.3c-0.9,0.4-1.9-0.1-2.3-1c-0.4-0.9,0.1-1.9,1-2.3
							c0.3-0.1,0.6-0.2,0.9-0.1c-0.5-0.1-1-0.1-1.4,0.1c-1.2,0.5-1.8,1.8-1.3,3c0.5,1.2,1.8,1.8,3,1.3s1.8-1.8,1.3-3c0,0,0,0,0,0
							C149.8,52.3,149.7,52.1,149.6,52z"/>
					</g>
					<path class="st14" d="M143.5,48.9c0,0-1-2.4-0.4-4.2c0.3-0.8,0.9-1.5,1.6-1.9c0.2-0.1,0.5,0,0.7,0.2l0,0
						c0.1,0.2,0.1,0.5-0.2,0.7c-0.7,0.4-1.3,1.2-1.4,2c-0.1,1.5,0.1,3.1,0.1,3.2S143.5,48.9,143.5,48.9z"/>
					<path class="st17" d="M143.3,45.9c0.2-1.3,0.9-2.4,2-3.1c-0.1-0.1-0.3-0.1-0.5,0c-0.8,0.4-1.4,1.1-1.6,1.9
						c-0.6,1.7,0.4,4.2,0.4,4.2c0.1,0,0.2,0,0.2,0C143.4,48,143.2,47,143.3,45.9z"/>
					<path class="st18" d="M142.9,48.4c0.4,1-0.1,2.1-1.1,2.5c-1,0.4-2.1-0.1-2.5-1.1c-0.4-1,0.1-2.1,1.1-2.5
						C141.3,46.9,142.5,47.4,142.9,48.4z"/>
					<g class="st19">
						<path class="st18" d="M142.6,48l0.1,0.1c0.3,0.7-0.1,1.6-0.8,1.9c-0.7,0.3-1.6-0.1-1.9-0.8c-0.3-0.7,0.1-1.6,0.8-1.9
							c0,0,0,0,0,0c0.2-0.1,0.5-0.1,0.7-0.1c-0.4-0.1-0.8-0.1-1.2,0.1c-1,0.4-1.5,1.5-1.1,2.5c0.4,1,1.5,1.5,2.5,1.1
							c1-0.4,1.5-1.5,1.1-2.5C142.8,48.3,142.7,48.1,142.6,48z"/>
					</g>
					<path class="st18" d="M145.8,48.8c0.4,1-0.1,2.1-1.1,2.5c-1,0.4-2.1-0.1-2.5-1.1c-0.4-1,0.1-2.1,1.1-2.5
						C144.3,47.3,145.4,47.8,145.8,48.8z"/>
					<g class="st19">
						<path class="st18" d="M145.6,48.4c0,0,0.1,0.1,0.1,0.1c0.3,0.7-0.1,1.6-0.8,1.9c-0.7,0.3-1.6-0.1-1.9-0.8
							c-0.3-0.7,0.1-1.6,0.8-1.9c0.2-0.1,0.5-0.1,0.7-0.1c-0.4-0.1-0.8-0.1-1.2,0.1c-1,0.4-1.5,1.5-1.1,2.5c0.4,1,1.5,1.5,2.5,1.1
							c1-0.4,1.5-1.5,1.1-2.5C145.7,48.6,145.7,48.5,145.6,48.4z"/>
					</g>
					<path class="st18" d="M148.4,49.1c0.4,1-0.1,2.1-1.1,2.5c-1,0.4-2.1-0.1-2.5-1.1c-0.4-1,0.1-2.1,1.1-2.5
						C146.9,47.6,148,48.1,148.4,49.1z"/>
					<g class="st19">
						<path class="st18" d="M148.2,48.7l0.1,0.1c0.3,0.7-0.1,1.6-0.8,1.9c-0.7,0.3-1.6-0.1-1.9-0.8c-0.3-0.7,0.1-1.6,0.8-1.9
							c0,0,0,0,0,0c0.2-0.1,0.5-0.1,0.7-0.1c-0.4-0.1-0.8-0.1-1.2,0.1c-0.7,0.3-1.2,1-1.2,1.8c0,0.3,0,0.5,0.1,0.8
							c0.4,1,1.5,1.5,2.5,1.1c1-0.4,1.5-1.5,1.1-2.5C148.4,48.9,148.3,48.8,148.2,48.7z"/>
					</g>
					<path class="st18" d="M143,57.8c0.4,1-0.1,2.1-1.1,2.5c-1,0.4-2.1-0.1-2.5-1.1c-0.4-1,0.1-2.1,1.1-2.5
						C141.5,56.3,142.6,56.8,143,57.8C143,57.8,143,57.8,143,57.8z"/>
					<g class="st19">
						<path class="st18" d="M142.8,57.4c0,0,0.1,0.1,0.1,0.1c0.3,0.7-0.1,1.6-0.8,1.9c-0.7,0.3-1.6-0.1-1.9-0.8
							c-0.3-0.7,0.1-1.6,0.8-1.9c0.2-0.1,0.5-0.1,0.7-0.1c-1-0.3-2.1,0.4-2.4,1.4c-0.1,0.4-0.1,0.8,0.1,1.2c0.5,1,1.7,1.3,2.6,0.8
							c0.8-0.4,1.2-1.4,1-2.3C143,57.7,142.9,57.6,142.8,57.4z"/>
					</g>
					<path class="st18" d="M146.5,58c0.4,1,0,2.1-1,2.6c-1,0.4-2.1,0-2.6-1s0-2.1,1-2.6c0,0,0,0,0.1,0C145,56.6,146.1,57.1,146.5,58
						z"/>
					<g class="st19">
						<path class="st18" d="M146.3,57.7c0,0,0.1,0.1,0.1,0.1c0.3,0.7-0.1,1.6-0.8,1.9c-0.7,0.3-1.6-0.1-1.9-0.8
							c-0.3-0.7,0.1-1.6,0.8-1.9c0.2-0.1,0.5-0.1,0.7-0.1c-0.4-0.1-0.8,0-1.1,0.1c-1,0.4-1.5,1.5-1.1,2.5c0.4,1,1.5,1.5,2.5,1.1
							c1-0.4,1.5-1.5,1.1-2.5C146.5,57.9,146.4,57.8,146.3,57.7z"/>
					</g>
					<path class="st18" d="M141.8,54.8c0.4,1.1-0.1,2.3-1.2,2.7c-1.1,0.4-2.3-0.1-2.7-1.2c-0.4-1.1,0.1-2.3,1.2-2.7
						C140.2,53.2,141.4,53.7,141.8,54.8C141.8,54.8,141.8,54.8,141.8,54.8z"/>
					<g class="st19">
						<path class="st18" d="M141.6,54.4l0.1,0.2c0.3,0.8-0.1,1.7-0.9,2c-0.8,0.3-1.7-0.1-2-0.9c-0.3-0.8,0.1-1.7,0.9-2
							c0.2-0.1,0.5-0.1,0.8-0.1c-0.4-0.1-0.9-0.1-1.3,0.1c-1.1,0.4-1.6,1.6-1.2,2.7c0.4,1.1,1.6,1.6,2.7,1.2
							c1.1-0.4,1.6-1.6,1.2-2.7C141.8,54.6,141.7,54.5,141.6,54.4z"/>
					</g>
					<path class="st18" d="M145.2,55.3c0.5,1,0,2.3-1,2.8c-1,0.5-2.3,0-2.8-1c0-0.1-0.1-0.2-0.1-0.3c-0.4-1.1,0.3-2.3,1.4-2.6
						C143.7,53.8,144.7,54.3,145.2,55.3z"/>
					<g class="st19">
						<path class="st18" d="M145,54.8V55c0.3,0.8-0.1,1.7-0.9,2s-1.7-0.1-2-0.9s0.1-1.7,0.9-2c0,0,0,0,0,0c0.2-0.1,0.5-0.1,0.8-0.1
							c-1.1-0.3-2.3,0.4-2.5,1.5c-0.1,0.4-0.1,0.9,0.1,1.3c0.4,1.1,1.5,1.7,2.6,1.4c1.1-0.4,1.7-1.5,1.4-2.6c0-0.1-0.1-0.2-0.1-0.3
							C145.1,55.1,145.1,55,145,54.8z"/>
					</g>
					<path class="st18" d="M147.7,52.2c0.5,1.2-0.1,2.5-1.3,3s-2.5-0.1-3-1.3c-0.5-1.2,0.1-2.5,1.3-3c0,0,0,0,0,0
						C145.9,50.4,147.2,51,147.7,52.2C147.7,52.1,147.7,52.1,147.7,52.2z"/>
					<g class="st19">
						<path class="st18" d="M147.4,51.7l0.1,0.2c0.4,0.9-0.1,1.9-1,2.3c-0.9,0.4-1.9-0.1-2.3-1c-0.4-0.9,0.1-1.9,1-2.3
							c0.3-0.1,0.6-0.1,0.8-0.1c-0.5-0.1-1-0.1-1.4,0.1c-1.2,0.5-1.8,1.8-1.3,3c0.5,1.2,1.8,1.8,3,1.3c1.2-0.5,1.8-1.8,1.3-3
							c0,0,0,0,0,0C147.6,52,147.5,51.8,147.4,51.7z"/>
					</g>
					<path class="st18" d="M141.5,51.2c0.5,1.2-0.1,2.5-1.3,3s-2.5-0.1-3-1.3c-0.5-1.2,0.1-2.5,1.3-3c0,0,0,0,0,0
						C139.7,49.4,141,50,141.5,51.2z"/>
					<g class="st19">
						<path class="st18" d="M141.2,50.7c0,0.1,0.1,0.1,0.1,0.2c0.3,0.9-0.1,1.9-1,2.2c-0.9,0.3-1.9-0.1-2.2-1
							c-0.3-0.9,0.1-1.9,1-2.2c0.3-0.1,0.5-0.1,0.8-0.1c-1.2-0.3-2.5,0.5-2.8,1.7c-0.3,1.2,0.5,2.5,1.7,2.8c1.2,0.3,2.5-0.5,2.8-1.7
							c0.1-0.5,0.1-1-0.1-1.4C141.4,51,141.3,50.8,141.2,50.7z"/>
					</g>
					<path class="st18" d="M144.8,51.7c0.5,1.2-0.1,2.5-1.3,3s-2.5-0.1-3-1.3c-0.5-1.2,0.1-2.5,1.3-3
						C143,49.9,144.3,50.5,144.8,51.7C144.8,51.7,144.8,51.7,144.8,51.7z"/>
					<g class="st19">
						<path class="st18" d="M144.6,51.2c0,0.1,0.1,0.1,0.1,0.2c0.4,0.9-0.1,1.9-1,2.3c-0.9,0.4-1.9-0.1-2.3-1
							c-0.4-0.9,0.1-1.9,1-2.3c0.3-0.1,0.6-0.1,0.8-0.1c-1.2-0.3-2.5,0.5-2.8,1.7c-0.3,1.2,0.5,2.5,1.7,2.8c0.5,0.1,0.9,0.1,1.4-0.1
							c1.2-0.5,1.8-1.8,1.3-3c0,0,0,0,0,0C144.8,51.5,144.7,51.4,144.6,51.2z"/>
					</g>
					<g class="st20">
						<path class="st5" d="M142.2,48.2c0,0.2-0.2,0.2-0.3,0c0-0.1-0.1-0.3-0.2-0.3h-0.1h-0.1h-0.1c-0.1,0-0.1-0.1-0.1-0.1
							c0,0,0,0,0,0c0-0.1,0.1-0.1,0.1-0.1c0,0,0,0,0,0l0,0c0.1,0,0.3,0,0.4,0.1l0,0C142,47.7,142.2,47.9,142.2,48.2z M144.5,47.9
							c-0.4,0-0.7,0.2-0.9,0.5c-0.1,0.2,0.1,0.3,0.2,0.1c0.1-0.2,0.4-0.4,0.7-0.4C144.7,48.1,144.7,47.9,144.5,47.9L144.5,47.9z
							 M146.6,48.2c-0.4,0.2-0.7,0.6-0.6,1c0,0.1,0.1,0.1,0.2,0.1c0,0,0.1-0.1,0.1-0.1c0-0.3,0.2-0.6,0.4-0.8
							C146.9,48.4,146.8,48.2,146.6,48.2L146.6,48.2z M146,51c-0.2,0-0.2,0.2,0,0.3c0.3,0.1,0.5,0.3,0.5,0.6c0,0.2,0.3,0.2,0.3,0
							C146.8,51.4,146.4,51.1,146,51z M143.6,51.1c-0.5-0.1-1.1,0.1-1.4,0.6c-0.1,0.2,0.1,0.3,0.2,0.1c0.2-0.4,0.7-0.6,1.1-0.5
							c0.1,0,0.2,0,0.2-0.1C143.7,51.1,143.7,51.1,143.6,51.1L143.6,51.1z M139.2,50.3c-0.5,0.3-0.7,0.9-0.4,1.4
							c0.1,0.2,0.3,0,0.2-0.2c-0.2-0.4,0-0.8,0.3-1.1C139.5,50.4,139.4,50.2,139.2,50.3L139.2,50.3z M148.9,51.6
							c-0.1-0.1-0.3,0.2-0.1,0.2c0.2,0.1,0.3,0.3,0.3,0.5c0,0.2,0.3,0.2,0.3,0C149.3,52,149.1,51.7,148.9,51.6L148.9,51.6z
							 M146.7,56.7c-0.4,0-0.6-0.3-0.6-0.7c0,0,0,0,0,0c0-0.2-0.2-0.2-0.3,0c0,0.5,0.4,0.9,0.9,0.9c0,0,0,0,0,0
							C146.9,57,146.9,56.7,146.7,56.7L146.7,56.7z M143,56.2c-0.3-0.1-0.4-0.4-0.4-0.7c0-0.2-0.3-0.2-0.3,0c0,0.5,0.4,0.9,0.8,1
							c0.1,0,0.1,0,0.2-0.1c0,0,0,0,0-0.1v-0.1C143.2,56.1,143.1,56.1,143,56.2z M139.7,55.9c-0.3-0.1-0.5-0.4-0.4-0.7
							c0,0,0,0,0-0.1c0.1-0.2-0.2-0.3-0.2-0.1c-0.2,0.4,0.1,0.9,0.5,1.1c0,0,0.1,0,0.1,0C139.8,56.2,139.9,55.9,139.7,55.9
							L139.7,55.9z M141.5,58.8c-0.3,0-0.6-0.3-0.6-0.6c0-0.2-0.2-0.2-0.3,0c0,0.5,0.3,0.9,0.8,0.9c0,0,0,0,0.1,0
							C141.7,59.1,141.7,58.8,141.5,58.8L141.5,58.8z M143.3,61c-0.3,0-0.6-0.2-0.8-0.4c-0.1-0.2-0.3-0.1-0.2,0.1
							c0.2,0.4,0.6,0.6,1,0.6C143.5,61.3,143.5,61,143.3,61z"/>
					</g>
					<path class="st14" d="M100.2,56.3c0.7,0,1.4-0.2,2-0.6c0.3-0.3,0.5-0.5,0.8-0.8c0-0.1,0-0.2-0.1-0.2c0,0,0,0-0.1,0h-0.4
						c0.3-0.3,0.5-0.6,0.6-1c0.1-0.2,0.1-0.4,0.2-0.6c0-0.1,0-0.2-0.1-0.2c0,0-0.1,0-0.1,0l-0.1,0l0.7-1.5c-0.8,0.1-1.5,0.2-2.2,0.5
						c-0.4,0.1-0.8,0.4-1.1,0.7V52c0-0.1-0.1-0.2-0.2-0.2c0,0,0,0-0.1,0c-0.7,0.6-1.2,1.5-1.3,2.5C98.1,56.7,100.2,56.3,100.2,56.3z
						"/>
					<path class="st17" d="M98.6,54.3c0.1-1,0.5-1.9,1.3-2.5c0.1-0.1,0.2,0,0.2,0.1c0,0,0,0,0,0.1v0.5c0.3-0.3,0.7-0.5,1.1-0.7
						c0.7-0.3,1.5-0.4,2.2-0.5c-1.8,1.3-3.4,2.8-4.7,4.6C98.5,55.4,98.4,54.9,98.6,54.3z"/>
					<path class="st18" d="M99.6,63.7c0.3,0.8-0.1,1.6-0.8,1.9c-0.8,0.3-1.6-0.1-1.9-0.8c-0.3-0.8,0.1-1.6,0.8-1.9
						C98.4,62.6,99.3,62.9,99.6,63.7C99.6,63.7,99.6,63.7,99.6,63.7z"/>
					<g class="st19">
						<path class="st18" d="M99.4,63.4L99.4,63.4c0.2,0.7,0,1.3-0.6,1.5s-1.2,0-1.4-0.6c-0.2-0.6,0-1.2,0.6-1.4
							c0.2-0.1,0.4-0.1,0.5-0.1c-0.3-0.1-0.6-0.1-0.9,0.1c-0.8,0.3-1.1,1.2-0.8,1.9s1.2,1.1,1.9,0.8c0.8-0.3,1.1-1.1,0.8-1.9
							C99.5,63.6,99.5,63.5,99.4,63.4z"/>
					</g>
					<path class="st18" d="M102.4,60.1c0.3,0.8-0.1,1.7-0.9,2s-1.7-0.1-2-0.9c-0.3-0.8,0.1-1.7,0.9-2
						C101.2,58.9,102.1,59.3,102.4,60.1C102.4,60.1,102.4,60.1,102.4,60.1z"/>
					<g class="st19">
						<path class="st18" d="M102.3,59.8c0,0,0,0.1,0,0.1c0.2,0.6,0,1.3-0.7,1.5c-0.6,0.2-1.3,0-1.5-0.7c-0.2-0.6,0-1.3,0.7-1.5
							c0,0,0,0,0,0c0.2-0.1,0.4-0.1,0.6-0.1c-0.8-0.2-1.7,0.3-1.9,1.1c-0.2,0.8,0.3,1.7,1.1,1.9s1.7-0.3,1.9-1.1
							c0.1-0.3,0.1-0.6,0-0.9C102.3,60,102.3,59.9,102.3,59.8z"/>
					</g>
					<path class="st18" d="M103.6,57.8c0.4,0.9-0.1,1.9-1,2.3c-0.9,0.4-1.9-0.1-2.3-1c-0.4-0.9,0.1-1.9,1-2.3
						C102.2,56.4,103.2,56.8,103.6,57.8C103.6,57.7,103.6,57.8,103.6,57.8z"/>
					<g class="st19">
						<path class="st18" d="M103.4,57.4l0.1,0.1c0.3,0.7-0.1,1.4-0.7,1.7c-0.7,0.3-1.4-0.1-1.7-0.7s0.1-1.4,0.7-1.7c0,0,0,0,0,0
							c0.2-0.1,0.4-0.1,0.6-0.1c-0.9-0.2-1.9,0.4-2.1,1.3c-0.2,0.9,0.4,1.9,1.3,2.1c0.9,0.2,1.9-0.4,2.1-1.3c0.1-0.3,0.1-0.7-0.1-1
							C103.5,57.6,103.5,57.5,103.4,57.4z"/>
					</g>
					<path class="st14" d="M98.8,55.1c-0.4-1-0.5-2.1-0.3-3.2c0.2-0.6,0.6-1.2,1.2-1.5c0.2-0.1,0.4,0,0.5,0.1l0,0
						c0.1,0.2,0,0.4-0.1,0.5c-0.6,0.3-1,0.9-1.1,1.5c-0.1,1.2,0.1,2.4,0,2.4S98.8,55.1,98.8,55.1z"/>
					<path class="st17" d="M98.6,52.8c0.1-1,0.7-1.8,1.4-2.4c-0.1-0.1-0.2-0.1-0.4,0c-0.6,0.3-1,0.8-1.2,1.5
						c-0.2,1.1-0.1,2.2,0.3,3.2h0.2C98.6,54.4,98.5,53.6,98.6,52.8z"/>
					<path class="st18" d="M98.2,54.7c0.3,0.8-0.1,1.6-0.8,1.9s-1.6-0.1-1.9-0.8c-0.3-0.7,0.1-1.6,0.8-1.9
						C97.1,53.6,97.9,53.9,98.2,54.7C98.2,54.7,98.2,54.7,98.2,54.7z"/>
					<g class="st19">
						<path class="st18" d="M98.1,54.4L98.1,54.4c0.2,0.7-0.1,1.3-0.6,1.5c-0.6,0.2-1.2-0.1-1.4-0.6c-0.2-0.6,0.1-1.2,0.6-1.4
							c0.2-0.1,0.4-0.1,0.5-0.1c-0.3-0.1-0.6-0.1-0.9,0.1c-0.8,0.3-1.1,1.1-0.8,1.9c0.3,0.8,1.1,1.1,1.9,0.8
							c0.8-0.3,1.1-1.1,0.8-1.9c0,0,0,0,0,0C98.1,54.6,98.1,54.5,98.1,54.4z"/>
					</g>
					<path class="st18" d="M100.4,55c0.3,0.7-0.1,1.6-0.8,1.9c0,0,0,0,0,0c-0.7,0.4-1.6,0-2-0.7c-0.4-0.7,0-1.6,0.7-2
						c0.1,0,0.1-0.1,0.2-0.1C99.3,53.9,100.1,54.2,100.4,55C100.4,55,100.4,55,100.4,55z"/>
					<g class="st19">
						<path class="st18" d="M100.3,54.7L100.3,54.7c0.2,0.7-0.1,1.3-0.6,1.5c-0.6,0.2-1.2-0.1-1.4-0.6c-0.2-0.6,0.1-1.2,0.6-1.4
							c0.2-0.1,0.4-0.1,0.5-0.1c-0.3-0.1-0.6-0.1-0.9,0.1c-0.8,0.2-1.2,1.1-1,1.8c0.2,0.8,1.1,1.2,1.8,1c0.1,0,0.1,0,0.2-0.1
							c0.8-0.3,1.1-1.1,0.8-1.9c0,0,0,0,0,0C100.4,54.9,100.3,54.8,100.3,54.7z"/>
					</g>
					<path class="st18" d="M102.5,55.2c0.3,0.8-0.1,1.6-0.8,1.9s-1.6-0.1-1.9-0.8c-0.3-0.7,0.1-1.6,0.8-1.9
						C101.3,54.1,102.2,54.4,102.5,55.2C102.5,55.2,102.5,55.2,102.5,55.2z"/>
					<g class="st19">
						<path class="st18" d="M102.3,54.9C102.3,54.9,102.3,55,102.3,54.9c0.2,0.7-0.1,1.3-0.6,1.5c-0.6,0.2-1.2-0.1-1.4-0.6
							c-0.2-0.6,0.1-1.2,0.6-1.4c0.2-0.1,0.4-0.1,0.5-0.1c-0.3-0.1-0.6-0.1-0.9,0.1c-0.5,0.2-0.9,0.7-0.9,1.3c0,0.8,0.7,1.5,1.5,1.5
							c0.2,0,0.3,0,0.5-0.1c0.8-0.3,1.1-1.1,0.8-1.9c0,0,0,0,0,0C102.4,55.1,102.3,55,102.3,54.9z"/>
					</g>
					<path class="st18" d="M98.4,61.8c0.3,0.8-0.1,1.6-0.8,1.9c-0.8,0.3-1.6-0.1-1.9-0.8c-0.3-0.8,0.1-1.6,0.8-1.9
						C97.2,60.7,98.1,61.1,98.4,61.8C98.4,61.8,98.4,61.8,98.4,61.8z"/>
					<g class="st19">
						<path class="st18" d="M98.2,61.5L98.2,61.5c0.2,0.7-0.1,1.3-0.6,1.5c-0.6,0.2-1.2-0.1-1.4-0.6c-0.2-0.6,0.1-1.2,0.6-1.4
							c0.2-0.1,0.3-0.1,0.5-0.1c-0.3-0.1-0.6-0.1-0.9,0.1c-0.8,0.3-1.1,1.2-0.8,1.9c0.3,0.8,1.2,1.1,1.9,0.8
							c0.8-0.3,1.1-1.1,0.8-1.9C98.3,61.7,98.3,61.6,98.2,61.5z"/>
					</g>
					<path class="st18" d="M101,62c0.3,0.8-0.1,1.6-0.8,1.9c0,0,0,0,0,0c-0.8,0.3-1.6-0.1-1.9-0.8c-0.3-0.8,0.1-1.6,0.8-1.9
						C99.8,60.9,100.7,61.2,101,62C101,62,101,62,101,62z"/>
					<g class="st19">
						<path class="st18" d="M100.8,61.7C100.8,61.7,100.8,61.8,100.8,61.7c0.3,0.7,0,1.3-0.6,1.5s-1.2,0-1.4-0.6
							c-0.2-0.6,0-1.2,0.6-1.4c0,0,0,0,0,0c0.2-0.1,0.4-0.1,0.5-0.1c-0.8-0.2-1.6,0.3-1.8,1.1c-0.1,0.3-0.1,0.6,0.1,0.9
							c0.3,0.7,1.2,1.1,1.9,0.8c0.8-0.3,1.2-1.1,0.9-1.9c0,0,0,0,0-0.1C101,61.9,100.9,61.8,100.8,61.7z"/>
					</g>
					<path class="st18" d="M97.5,59.5c0.3,0.8-0.1,1.7-0.9,2.1c-0.8,0.3-1.7-0.1-2.1-0.9c-0.3-0.8,0.1-1.7,0.9-2.1c0,0,0,0,0.1,0
						C96.3,58.4,97.1,58.8,97.5,59.5z"/>
					<g class="st19">
						<path class="st18" d="M97.3,59.2v0.1c0.2,0.6-0.1,1.3-0.7,1.5c0,0,0,0,0,0c-0.6,0.2-1.3-0.1-1.5-0.7c-0.2-0.6,0.1-1.3,0.7-1.5
							c0.2-0.1,0.4-0.1,0.6-0.1c-0.8-0.2-1.7,0.3-1.9,1.1c-0.2,0.8,0.3,1.7,1.1,1.9s1.7-0.3,1.9-1.1c0.1-0.3,0.1-0.6,0-0.9
							C97.4,59.5,97.3,59.3,97.3,59.2z"/>
					</g>
					<path class="st18" d="M100,59.9c0.3,0.8-0.1,1.7-0.9,2.1c-0.8,0.3-1.7-0.1-2.1-0.9c-0.3-0.8,0.1-1.7,0.9-2.1c0,0,0,0,0.1,0
						C98.8,58.7,99.7,59.1,100,59.9z"/>
					<g class="st19">
						<path class="st18" d="M99.8,59.6l0.1,0.1c0.2,0.6-0.1,1.3-0.7,1.5s-1.3-0.1-1.5-0.7c-0.2-0.6,0.1-1.3,0.7-1.5
							c0.2-0.1,0.4-0.1,0.6-0.1c-0.3-0.1-0.7-0.1-1,0.1c-0.8,0.3-1.2,1.2-0.9,2s1.2,1.2,2,0.9c0.8-0.3,1.2-1.2,0.9-2c0,0,0,0,0-0.1
							C99.9,59.8,99.9,59.7,99.8,59.6z"/>
					</g>
					<path class="st18" d="M101.9,57.5c0.4,0.9-0.1,1.9-1,2.3c-0.9,0.4-1.9-0.1-2.3-1c-0.4-0.9,0.1-1.9,1-2.3
						C100.5,56.2,101.5,56.6,101.9,57.5z"/>
					<g class="st19">
						<path class="st18" d="M101.7,57.2l0.1,0.1c0.3,0.7-0.1,1.4-0.8,1.7c-0.7,0.3-1.4-0.1-1.7-0.8c-0.3-0.7,0.1-1.4,0.7-1.7
							c0.2-0.1,0.4-0.1,0.6-0.1c-0.9-0.2-1.9,0.4-2.1,1.3c-0.2,0.9,0.4,1.9,1.3,2.1s1.9-0.4,2.1-1.3c0.1-0.4,0.1-0.7-0.1-1.1
							C101.8,57.4,101.8,57.3,101.7,57.2z"/>
					</g>
					<path class="st18" d="M97.2,56.8c0.4,0.9-0.1,1.9-1,2.3c-0.9,0.4-1.9-0.1-2.3-1c-0.4-0.9,0.1-1.9,1-2.3
						C95.8,55.4,96.8,55.9,97.2,56.8C97.2,56.8,97.2,56.8,97.2,56.8z"/>
					<g class="st19">
						<path class="st18" d="M97,56.4c0,0,0,0.1,0,0.1c0.3,0.7-0.1,1.4-0.7,1.7c0,0,0,0,0,0c-0.7,0.3-1.4,0-1.7-0.7
							c-0.3-0.7,0-1.4,0.7-1.7c0.2-0.1,0.4-0.1,0.6-0.1c-0.4-0.1-0.7-0.1-1.1,0.1c-0.9,0.4-1.4,1.4-1,2.3c0.4,0.9,1.4,1.4,2.3,1
							c0.9-0.4,1.4-1.4,1-2.3C97.1,56.7,97,56.5,97,56.4z"/>
					</g>
					<path class="st18" d="M99.7,57.2c0.4,0.9-0.1,1.9-1,2.3c-0.9,0.4-1.9-0.1-2.3-1c-0.4-0.9,0.1-1.9,1-2.3
						C98.3,55.8,99.4,56.3,99.7,57.2C99.7,57.2,99.7,57.2,99.7,57.2z"/>
					<g class="st19">
						<path class="st18" d="M99.5,56.8l0.1,0.1c0.3,0.7-0.1,1.4-0.7,1.7c-0.7,0.3-1.4-0.1-1.7-0.7s0.1-1.4,0.7-1.7c0,0,0,0,0,0
							c0.2-0.1,0.4-0.1,0.6-0.1c-0.9-0.2-1.9,0.4-2.1,1.3c-0.2,0.9,0.4,1.9,1.3,2.1c0.9,0.2,1.9-0.4,2.1-1.3c0.1-0.3,0.1-0.7-0.1-1
							C99.7,57.1,99.6,57,99.5,56.8z"/>
					</g>
					<g class="st20">
						<path class="st5" d="M97.7,54.5c0,0.1-0.2,0.1-0.2,0c0-0.1-0.1-0.2-0.2-0.2h-0.1h-0.1l0,0c0,0-0.1,0-0.1-0.1c0,0,0,0,0,0
							c0-0.1,0.1-0.1,0.1-0.1c0,0,0,0,0,0l0,0c0.1,0,0.2,0,0.3,0.1l0,0C97.6,54.2,97.7,54.3,97.7,54.5z M99.5,54.3
							c-0.3,0-0.5,0.2-0.7,0.4c-0.1,0.1,0.1,0.2,0.2,0.1c0.1-0.2,0.3-0.3,0.5-0.3C99.6,54.5,99.6,54.3,99.5,54.3z M101.1,54.6
							c-0.3,0.1-0.5,0.4-0.5,0.8c0,0.1,0,0.1,0.1,0.1c0.1,0,0.1,0,0.1-0.1c0-0.2,0.1-0.5,0.3-0.6C101.3,54.7,101.2,54.5,101.1,54.6z
							 M100.6,56.6c-0.1,0-0.2,0.2,0,0.2c0.2,0.1,0.4,0.2,0.4,0.5c0,0.1,0,0.1,0.1,0.1c0.1,0,0.1,0,0.1-0.1c0,0,0,0,0-0.1
							C101.2,57,100.9,56.7,100.6,56.6z M98.8,56.7c-0.4-0.1-0.8,0.1-1.1,0.5c-0.1,0.1,0.1,0.2,0.2,0.1c0.2-0.3,0.5-0.4,0.8-0.4
							C98.9,56.9,98.9,56.7,98.8,56.7z M95.5,56.1c-0.4,0.2-0.5,0.7-0.3,1.1c0.1,0.1,0.2,0,0.2-0.1c-0.1-0.3,0-0.6,0.2-0.8
							C95.7,56.2,95.6,56,95.5,56.1z M102.8,57.1c-0.1,0-0.2,0.1-0.1,0.2c0.1,0.1,0.2,0.2,0.2,0.4c0,0.1,0.2,0.1,0.2,0
							C103.1,57.4,103,57.2,102.8,57.1L102.8,57.1z M101.2,61c-0.3,0-0.5-0.2-0.5-0.5c0,0,0,0,0,0c0-0.1-0.2-0.1-0.2,0
							c0,0.4,0.3,0.7,0.7,0.7c0,0,0,0,0,0C101.3,61.2,101.3,61,101.2,61z M98.4,60.6c-0.2-0.1-0.3-0.3-0.3-0.5c0-0.1,0-0.1-0.1-0.1
							c-0.1,0-0.1,0-0.1,0.1c0,0,0,0,0,0.1c0,0.4,0.3,0.7,0.6,0.8c0.1,0,0.1,0,0.1-0.1c0,0,0,0,0,0v-0.1c0-0.1,0-0.1-0.1-0.1
							S98.4,60.5,98.4,60.6L98.4,60.6z M95.8,60.4c-0.2-0.1-0.4-0.3-0.3-0.5c0,0,0,0,0-0.1c0-0.1-0.1-0.2-0.2-0.1
							c-0.1,0.3,0,0.7,0.4,0.8c0,0,0.1,0,0.1,0c0.1,0,0.1,0,0.1-0.1C96,60.4,95.9,60.4,95.8,60.4L95.8,60.4L95.8,60.4z M97.2,62.6
							c-0.2,0-0.4-0.2-0.4-0.4c0,0,0,0,0,0c0-0.1-0.2-0.2-0.2,0c0,0.3,0.2,0.7,0.6,0.7c0,0,0,0,0.1,0C97.3,62.8,97.3,62.6,97.2,62.6
							L97.2,62.6z M98.6,64.3c-0.2,0-0.5-0.1-0.6-0.3c-0.1-0.1-0.2,0-0.2,0.1c0.1,0.3,0.4,0.5,0.8,0.5c0.1,0,0.1-0.1,0.1-0.1
							C98.7,64.3,98.6,64.2,98.6,64.3L98.6,64.3z"/>
					</g>
					<path class="st14" d="M56.4,186.1c1.2-0.5,2.2-1.4,2.8-2.5c0.3-0.6,0.5-1.2,0.6-1.9c0-0.1-0.1-0.3-0.2-0.3c0,0-0.1,0-0.1,0
						l-0.6,0.4c0.2-0.7,0.2-1.4,0.1-2.1c0-0.4-0.1-0.8-0.2-1.2c0-0.2-0.2-0.2-0.3-0.2c-0.1,0-0.1,0-0.1,0.1l-0.2,0.2v-2.9
						c-1.2,0.6-2.3,1.4-3.3,2.4c-0.5,0.5-1,1.2-1.2,1.9l-0.4-0.8c-0.1-0.1-0.3-0.2-0.4-0.1c0,0-0.1,0.1-0.1,0.1
						c-0.4,0.6-0.9,2-0.2,4.9C53.3,188.3,56.4,186.1,56.4,186.1z"/>
					<path class="st17" d="M52.4,184c-0.7-2.9-0.2-4.3,0.2-4.9c0.1-0.1,0.3-0.2,0.4-0.1c0,0,0.1,0.1,0.1,0.1l0.4,0.8
						c0.3-0.7,0.7-1.4,1.2-1.9c1-0.9,2.1-1.7,3.3-2.4c0,0-3.4,5.5-4.2,10.8C53,185.8,52.5,185,52.4,184z"/>
					<path class="st18" d="M60.9,198.4c1,1,1.1,2.7,0.1,3.7s-2.7,1.1-3.7,0.1s-1.1-2.7-0.1-3.7c0,0,0,0,0,0
						C58.2,197.4,59.8,197.4,60.9,198.4z"/>
					<g class="st19">
						<path class="st18" d="M60.4,198.1l0.2,0.1c0.8,0.8,0.8,2,0.1,2.8c-0.8,0.8-2,0.8-2.8,0.1c-0.8-0.8-0.8-2-0.1-2.8
							c0,0,0,0,0.1-0.1c0.2-0.2,0.5-0.4,0.8-0.5c-0.5,0.1-1,0.4-1.4,0.8c-1,1-1,2.7,0.1,3.7c1,1,2.7,1,3.7-0.1s1-2.7-0.1-3.7
							c0,0,0,0,0,0C60.7,198.2,60.6,198.1,60.4,198.1z"/>
					</g>
					<path class="st18" d="M62.8,190.6c1.1,1.1,1.1,2.9,0,4c-1.1,1.1-2.9,1.1-4,0c-1.1-1.1-1.1-2.8-0.1-3.9
						C59.9,189.5,61.6,189.5,62.8,190.6C62.8,190.5,62.8,190.5,62.8,190.6z"/>
					<g class="st19">
						<path class="st18" d="M62.3,190.2l0.2,0.1c0.8,0.8,0.9,2.1,0.1,3c-0.8,0.8-2.1,0.9-3,0.1c-0.8-0.8-0.9-2.1-0.1-3
							c0.2-0.3,0.5-0.4,0.9-0.5c-0.6,0.1-1.1,0.4-1.5,0.8c-1.1,1.1-1,2.9,0.1,4c1.1,1.1,2.9,1,4-0.1c1-1.1,1-2.8-0.1-3.9
							C62.7,190.4,62.5,190.3,62.3,190.2z"/>
					</g>
					<path class="st18" d="M62.9,185.9c1.2,1.2,1.3,3.2,0.1,4.4c-1.2,1.2-3.2,1.3-4.4,0.1c-1.2-1.2-1.3-3.2-0.1-4.4
						C59.7,184.8,61.7,184.7,62.9,185.9C62.9,185.9,62.9,185.9,62.9,185.9z"/>
					<g class="st19">
						<path class="st18" d="M62.4,185.5l0.2,0.2c0.9,0.9,0.9,2.4,0,3.3c-0.9,0.9-2.4,0.9-3.3,0c-0.9-0.9-0.9-2.4,0-3.3
							c0.3-0.3,0.6-0.5,1-0.6c-0.6,0.1-1.2,0.4-1.7,0.9c-1.2,1.2-1.2,3.2,0,4.4c1.2,1.2,3.2,1.2,4.4,0c1.2-1.2,1.2-3.2,0-4.4
							c0,0,0,0,0,0C62.8,185.7,62.6,185.6,62.4,185.5z"/>
					</g>
					<path class="st14" d="M53.2,185.1c0,0-2.5-2.4-2.8-4.9c-0.1-1.2,0.2-2.3,0.9-3.3c0.2-0.3,0.6-0.3,0.9-0.1l0,0
						c0.3,0.2,0.4,0.6,0.2,0.9c-0.7,0.9-0.9,2.2-0.6,3.3c0.7,1.9,1.8,3.7,1.8,3.8S53.2,185.1,53.2,185.1z"/>
					<path class="st17" d="M51.2,181.6c-0.5-1.7-0.2-3.4,0.7-4.9c-0.2,0-0.4,0.1-0.6,0.2c-0.7,0.9-1.1,2.1-0.9,3.3
						c0.3,2.4,2.8,4.9,2.8,4.9c0.1,0,0.2-0.1,0.3-0.1C52.5,184.1,51.7,182.9,51.2,181.6z"/>
					<path class="st18" d="M52.1,184.9c1,1,1.1,2.6,0.1,3.7s-2.6,1.1-3.7,0.1c-1-1-1.1-2.6-0.1-3.7c0,0,0,0,0,0
						C49.4,183.9,51,183.9,52.1,184.9C52.1,184.9,52.1,184.9,52.1,184.9z"/>
					<g class="st19">
						<path class="st18" d="M51.6,184.6l0.2,0.1c0.8,0.8,0.8,2,0.1,2.8c-0.8,0.8-2,0.8-2.8,0.1c-0.8-0.8-0.8-2-0.1-2.8
							c0.2-0.2,0.5-0.4,0.8-0.5c-0.5,0.1-1,0.4-1.4,0.7c-1,1-1,2.7,0,3.7s2.7,1,3.7,0s1-2.7,0-3.7c0,0,0,0,0,0
							C51.9,184.8,51.7,184.7,51.6,184.6z"/>
					</g>
					<path class="st18" d="M55.8,183.7c1,1,1,2.7,0,3.7c-1,1-2.7,1-3.7,0s-1-2.7,0-3.7c0,0,0,0,0,0
						C53.2,182.7,54.8,182.7,55.8,183.7C55.8,183.7,55.8,183.7,55.8,183.7z"/>
					<g class="st19">
						<path class="st18" d="M55.4,183.3l0.2,0.1c0.8,0.8,0.8,2,0,2.8c-0.8,0.8-2,0.8-2.8,0c-0.8-0.8-0.8-2,0-2.8
							c0.2-0.2,0.5-0.4,0.8-0.5c-0.5,0.1-1,0.4-1.4,0.7c-1,1-1,2.7,0,3.7c1,1,2.7,1,3.7,0s1-2.7,0-3.7c0,0,0,0,0,0
							C55.7,183.6,55.6,183.4,55.4,183.3z"/>
					</g>
					<path class="st18" d="M59.3,182.6c1,1,1.1,2.6,0.1,3.7s-2.6,1.1-3.7,0.1c-1-1-1.1-2.6-0.1-3.7c0,0,0,0,0,0
						C56.6,181.7,58.2,181.6,59.3,182.6C59.3,182.6,59.3,182.6,59.3,182.6z"/>
					<g class="st19">
						<path class="st18" d="M58.8,182.3l0.2,0.1c0.8,0.8,0.8,2,0,2.7c-0.8,0.8-2,0.8-2.7,0c-0.8-0.8-0.8-2,0-2.7
							c0.2-0.2,0.5-0.4,0.8-0.5c-1.4,0.3-2.3,1.6-2.1,3c0,0.2,0.1,0.4,0.2,0.5c0.1,0.3,0.3,0.6,0.6,0.9c1.1,1,2.7,0.9,3.7-0.2
							c0.9-1,0.9-2.6-0.1-3.6C59.1,182.5,59,182.3,58.8,182.3z"/>
					</g>
					<path class="st18" d="M57.5,196.3c1,1,1.1,2.7,0.1,3.7c-1,1-2.7,1.1-3.7,0.1c-1-1-1.1-2.7-0.1-3.7c0,0,0,0,0,0
						C54.8,195.3,56.4,195.3,57.5,196.3C57.5,196.3,57.5,196.3,57.5,196.3z"/>
					<g class="st19">
						<path class="st18" d="M57,196l0.2,0.1c0.8,0.8,0.8,2,0.1,2.8c-0.8,0.8-2,0.8-2.8,0.1c-0.8-0.8-0.8-2-0.1-2.8
							c0.2-0.2,0.5-0.4,0.8-0.5c-1.4,0.3-2.4,1.6-2.1,3c0.1,0.5,0.4,1,0.8,1.4c1.1,0.9,2.7,0.8,3.7-0.3c0.9-1,0.8-2.5-0.1-3.5
							C57.3,196.2,57.2,196.1,57,196z"/>
					</g>
					<path class="st18" d="M61.8,194.7c1,1,1.1,2.7,0.1,3.7c-1,1-2.7,1.1-3.7,0.1c-1-1-1.1-2.7-0.1-3.7c0,0,0,0,0,0
						C59.2,193.7,60.8,193.7,61.8,194.7C61.8,194.7,61.8,194.7,61.8,194.7z"/>
					<g class="st19">
						<path class="st18" d="M61.4,194.3l0.2,0.1c0.8,0.7,0.9,2,0.1,2.8c-0.7,0.8-2,0.9-2.8,0.1c-0.8-0.7-0.9-2-0.1-2.8
							c0,0,0,0,0.1-0.1c0.2-0.2,0.5-0.4,0.8-0.5c-0.5,0.1-1,0.4-1.4,0.7c-1,1-1,2.7,0,3.7c1,1,2.7,1,3.7,0c1-1,1-2.7,0-3.7
							c0,0,0,0,0,0C61.7,194.5,61.5,194.4,61.4,194.3z"/>
					</g>
					<path class="st18" d="M54.4,193.3c1.1,1.1,1.1,2.9,0,4c-1.1,1.1-2.9,1.1-4,0c-1.1-1.1-1.1-2.8-0.1-3.9
						C51.4,192.2,53.2,192.2,54.4,193.3C54.3,193.3,54.4,193.3,54.4,193.3z"/>
					<g class="st19">
						<path class="st18" d="M53.8,192.9L54,193c0.8,0.8,0.8,2.2,0,3c-0.8,0.8-2.2,0.8-3,0c-0.8-0.8-0.8-2.1,0-2.9
							c0.2-0.2,0.5-0.4,0.9-0.5c-1.5,0.3-2.5,1.7-2.3,3.3c0.3,1.5,1.7,2.5,3.3,2.3c1.5-0.3,2.5-1.7,2.3-3.3
							c-0.1-0.6-0.4-1.1-0.8-1.5C54.2,193.1,54,193,53.8,192.9z"/>
					</g>
					<path class="st18" d="M58.7,192c1.1,1.1,1.1,2.9,0,4s-2.9,1.1-4,0c-1.1-1.1-1.1-2.8,0-3.9C55.8,190.9,57.6,190.9,58.7,192
						C58.7,192,58.7,192,58.7,192z"/>
					<g class="st19">
						<path class="st18" d="M58.2,191.6l0.2,0.1c0.8,0.8,0.8,2.2,0,3c-0.8,0.8-2.2,0.8-3,0c-0.8-0.8-0.8-2.1,0-2.9
							c0.2-0.3,0.5-0.4,0.9-0.5c-1.5,0.3-2.5,1.7-2.3,3.3c0.3,1.5,1.7,2.5,3.3,2.3c1.5-0.3,2.5-1.7,2.3-3.3
							c-0.1-0.6-0.4-1.1-0.8-1.5C58.5,191.8,58.4,191.7,58.2,191.6z"/>
					</g>
					<path class="st18" d="M60,186.8c1.2,1.2,1.3,3.2,0.1,4.4c-1.2,1.2-3.2,1.3-4.4,0.1c-1.2-1.2-1.3-3.2-0.1-4.4
						C56.8,185.6,58.8,185.6,60,186.8C60,186.8,60,186.8,60,186.8z"/>
					<g class="st19">
						<path class="st18" d="M59.5,186.4c0.1,0,0.1,0.1,0.2,0.2c0.9,0.9,0.9,2.4,0,3.3s-2.4,0.9-3.3,0c-0.9-0.9-0.9-2.4,0-3.3
							c0.3-0.3,0.6-0.5,1-0.6c-0.6,0.1-1.2,0.4-1.7,0.9c-1.2,1.2-1.2,3.2,0.1,4.4c1.2,1.2,3.2,1.2,4.4-0.1c1.2-1.2,1.2-3.2-0.1-4.4
							C59.9,186.6,59.7,186.5,59.5,186.4z"/>
					</g>
					<path class="st18" d="M51.9,189c1.2,1.2,1.3,3.2,0.1,4.4c-1.2,1.2-3.2,1.3-4.4,0.1c-1.2-1.2-1.3-3.2-0.1-4.4
						C48.7,187.8,50.7,187.8,51.9,189z"/>
					<g class="st19">
						<path class="st18" d="M51.3,188.6l0.2,0.2c0.9,0.9,0.9,2.4,0,3.3s-2.4,0.9-3.3,0c-0.9-0.9-0.9-2.4,0-3.3
							c0.3-0.3,0.6-0.5,1-0.6c-0.6,0.1-1.2,0.4-1.7,0.9c-1.2,1.2-1.2,3.2,0,4.4c1.2,1.2,3.2,1.2,4.4,0c1.2-1.2,1.2-3.2,0-4.4
							c0,0,0,0,0,0C51.8,188.8,51.6,188.7,51.3,188.6z"/>
					</g>
					<path class="st18" d="M56.3,187.8c1.2,1.2,1.3,3.2,0.1,4.4s-3.2,1.3-4.4,0.1c-1.2-1.2-1.3-3.2-0.1-4.4c0,0,0,0,0,0
						C53.1,186.7,55.1,186.6,56.3,187.8C56.3,187.8,56.3,187.8,56.3,187.8z"/>
					<g class="st19">
						<path class="st18" d="M55.7,187.4l0.2,0.1c0.9,0.9,1,2.4,0.1,3.3s-2.4,1-3.3,0.1c-0.9-0.9-1-2.4-0.1-3.3c0,0,0,0,0,0
							c0.3-0.3,0.6-0.5,1-0.6c-0.6,0.1-1.2,0.4-1.7,0.9c-1.2,1.2-1.2,3.2,0.1,4.4c1.2,1.2,3.2,1.2,4.4-0.1c1.2-1.2,1.2-3.2-0.1-4.4
							C56.2,187.7,55.9,187.5,55.7,187.4z"/>
					</g>
					<g class="st20">
						<path class="st5" d="M51.1,184.9c0.1,0.2-0.2,0.4-0.3,0.2c-0.1-0.2-0.3-0.3-0.5-0.2h-0.1h-0.1H50h-0.1c-0.1,0-0.2,0-0.2-0.1
							c0,0,0,0,0,0c0-0.1,0-0.2,0.1-0.2c0,0,0,0,0,0l0,0c0.1-0.1,0.3-0.2,0.5-0.1l0,0C50.7,184.4,51,184.6,51.1,184.9z M53.8,183.3
							c-0.5,0.2-0.8,0.7-0.8,1.2c0,0.2,0.3,0.2,0.3,0c0-0.4,0.3-0.7,0.6-0.9C54.2,183.5,54,183.2,53.8,183.3z M56.6,182.6
							c-0.4,0.4-0.5,1.1-0.2,1.6c0.1,0.1,0.2,0.1,0.3,0c0.1,0,0.1-0.1,0.1-0.2c-0.2-0.4-0.2-0.8,0.1-1.2
							C57,182.7,56.8,182.4,56.6,182.6z M57.3,186.3c-0.2,0-0.1,0.4,0.1,0.4c0.4-0.1,0.8,0.1,1,0.4c0.1,0.2,0.4,0,0.3-0.2
							C58.4,186.4,57.9,186.2,57.3,186.3z M54.4,187.7c-0.7,0.2-1.3,0.8-1.4,1.5c0,0.2,0.3,0.2,0.4,0c0.1-0.6,0.5-1.1,1.1-1.2
							c0.1-0.1,0.1-0.2,0.1-0.2C54.5,187.8,54.5,187.7,54.4,187.7z M48.7,189.2c-0.5,0.6-0.3,1.5,0.3,2c0,0,0,0,0,0
							c0.2,0.1,0.4-0.2,0.2-0.3c-0.5-0.4-0.5-1-0.2-1.5C49.1,189.2,48.8,189,48.7,189.2L48.7,189.2z M61.2,185.4
							c-0.1,0-0.2,0.1-0.2,0.2c0,0.1,0.1,0.2,0.2,0.2l0,0c0.3,0,0.5,0.2,0.7,0.4c0.1,0.2,0.4,0,0.3-0.2
							C62,185.7,61.6,185.4,61.2,185.4z M61.4,192.9c-0.4,0.2-1,0-1.1-0.5c0,0,0,0,0,0c-0.1-0.2-0.4,0-0.3,0.2
							c0.3,0.6,1,0.9,1.6,0.6c0,0,0,0,0,0C61.8,193.1,61.6,192.8,61.4,192.9z M56.6,194.3c-0.4,0-0.8-0.2-0.9-0.6
							c-0.1-0.2-0.4,0-0.3,0.2c0.3,0.6,0.9,0.9,1.6,0.7c0.1,0,0.2-0.1,0.1-0.2c0,0,0,0,0-0.1l-0.1-0.1c-0.1-0.1-0.2-0.1-0.2,0
							C56.6,194.2,56.6,194.3,56.6,194.3z M52.4,195.8c-0.4,0.1-0.8-0.2-0.9-0.6c0,0,0-0.1,0-0.1c0-0.2-0.4-0.2-0.3,0
							c0.1,0.6,0.6,1.1,1.3,1c0,0,0.1,0,0.1,0c0.1-0.1,0.1-0.2,0-0.2C52.4,195.8,52.4,195.8,52.4,195.8z M56.2,198.4
							c-0.4,0.2-0.8,0-1-0.4c0,0,0,0,0,0c-0.1-0.2-0.4-0.1-0.3,0.1c0.2,0.6,0.8,0.9,1.4,0.7c0,0,0.1,0,0.1,0
							C56.5,198.6,56.4,198.3,56.2,198.4z M59.6,200.1c-0.4,0.2-0.8,0.2-1.2-0.1c-0.2-0.1-0.4,0.1-0.2,0.2c0.4,0.4,1.1,0.5,1.6,0.2
							C60,200.3,59.8,200,59.6,200.1z"/>
					</g>
					<rect x="99" y="115.9" class="st21" width="37.3" height="31.7"/>
					<circle class="st22" cx="138.6" cy="153.8" r="10.5"/>
					<path class="st22" d="M150.9,258.2l-59.4,3l4.6-98.6c0-13.1,10.6-23.7,23.7-23.7l0,0c13.1,0,23.7,10.6,23.7,23.7L150.9,258.2z"
						/>
					<polyline class="st22" points="148.4,181.3 138.6,181.3 138.6,152.5 148.4,152.5 					"/>
					<rect x="90" y="154.3" class="st22" width="9.8" height="27"/>
					<circle class="st22" cx="100.5" cy="153.8" r="10.5"/>
					<path class="st23" d="M90,177.5h14.7l0,0v13.7l0,0h-10c-2.6,0-4.8-2.1-4.8-4.8L90,177.5L90,177.5z"/>
					<path class="st22" d="M90,175.6h14.7l0,0v13.7l0,0h-10c-2.6,0-4.8-2.1-4.8-4.8L90,175.6L90,175.6z"/>
					<path class="st23" d="M133.5,177.5h14.8l0,0v9.3c0,2.5-2,4.5-4.5,4.5l0,0h-10.3l0,0L133.5,177.5L133.5,177.5z"/>
					<path class="st22" d="M133.5,175.6h14.8l0,0v7.8c0,3.3-2.6,5.9-5.9,5.9c0,0,0,0,0,0h-8.9l0,0L133.5,175.6L133.5,175.6z"/>
					<path class="st24" d="M123.7,191.1H115c-3,0-5.4-2.4-5.5-5.5l0,0c0-3,2.4-5.4,5.5-5.5h8.8c3,0,5.4,2.4,5.5,5.5l0,0
						C129.2,188.6,126.8,191.1,123.7,191.1C123.7,191.1,123.7,191.1,123.7,191.1z"/>
					<path class="st25" d="M123.7,189.4H115c-3,0-5.4-2.4-5.5-5.5l0,0c0-3,2.4-5.4,5.5-5.5h8.8c3,0,5.4,2.4,5.5,5.5l0,0
						C129.2,187,126.8,189.5,123.7,189.4C123.7,189.4,123.7,189.4,123.7,189.4z"/>
					<rect x="104.8" y="174.7" class="st5" width="6.7" height="17.6"/>
					<rect x="128.1" y="174.7" class="st5" width="6.7" height="17.6"/>
					<path class="st26" d="M107.2,106.8h25.8c3,0,5.5,2.5,5.5,5.5v4c0,3-2.5,5.5-5.5,5.5h-25.8c-3,0-5.5-2.5-5.5-5.5v-4
						C101.7,109.2,104.1,106.8,107.2,106.8z"/>
					<path class="st25" d="M110.2,131.6c0,3.2-2.6,5.7-5.7,5.7s-5.7-2.6-5.7-5.7c0-3.2,2.6-5.7,5.7-5.7c0,0,0,0,0,0
						C107.6,125.8,110.2,128.4,110.2,131.6z"/>
					<path class="st27" d="M107.9,131.6c0,1.9-1.6,3.5-3.5,3.5s-3.5-1.6-3.5-3.5c0-1.9,1.6-3.5,3.5-3.5l0,0
						C106.3,128.1,107.9,129.6,107.9,131.6z"/>
					<path class="st25" d="M138.6,131.7c0,2.6-2.1,4.6-4.6,4.6c-2.6,0-4.6-2.1-4.6-4.6c0-2.6,2.1-4.6,4.6-4.6c0,0,0,0,0,0
						C136.6,127.1,138.6,129.1,138.6,131.7C138.6,131.7,138.6,131.7,138.6,131.7z"/>
					<path class="st27" d="M136.8,131.7c0,1.6-1.3,2.8-2.8,2.8s-2.8-1.3-2.8-2.8c0-1.6,1.3-2.8,2.8-2.8
						C135.6,128.9,136.8,130.2,136.8,131.7L136.8,131.7z"/>
					<path class="st21" d="M135.6,122.9V140c0.1,8.8-7,16.1-15.8,16.2l0,0c-8.8-0.1-15.9-7.4-15.8-16.2v-16.7"/>
					<path class="st26" d="M135.6,121v17.1c0.1,8.8-7,16.1-15.8,16.2l0,0c-8.8-0.1-15.9-7.4-15.8-16.2v-16.7"/>
					<rect x="107.9" y="121" class="st25" width="23.6" height="10.4"/>
					<path class="st28" d="M114.6,130L114.6,130c-0.9,0-1.6-0.7-1.6-1.6v-2.7c0-0.9,0.7-1.6,1.6-1.6c0,0,0,0,0,0l0,0
						c0.9,0,1.6,0.7,1.6,1.6v2.7C116.2,129.3,115.5,130,114.6,130L114.6,130z"/>
					<path class="st28" d="M127.7,130L127.7,130c-0.9,0-1.6-0.7-1.6-1.6l0,0v-2.7c0-0.9,0.7-1.6,1.6-1.6l0,0c0.9,0,1.6,0.7,1.6,1.6
						c0,0,0,0,0,0v2.7C129.3,129.3,128.6,130,127.7,130z"/>
					<path class="st29" d="M121.2,133.7L121.2,133.7c-1.4,0-2.6-1.2-2.6-2.6v-3.3c0-1.4,1.2-2.6,2.6-2.6l0,0c1.4,0,2.6,1.2,2.6,2.6
						v3.3C123.8,132.6,122.6,133.7,121.2,133.7z"/>
					<path class="st26" d="M105,112.9l8.8-5.7c0.1,0.1,0.2,0.3,0.3,0.4c2.9,5,1.2,11.4-3.8,14.3c-5,2.9-11.4,1.2-14.3-3.8l0,0
						L105,112.9z"/>
					<path class="st26" d="M134.6,115.9l-3.4-4L131,112c-2.2,1.9-2.4,5.3-0.5,7.4c1.9,2.2,5.3,2.4,7.4,0.5c0.1-0.1,0.2-0.2,0.3-0.3
						L134.6,115.9z"/>
					<circle class="st26" cx="117.4" cy="108.8" r="6.8"/>
					<circle class="st26" cx="126" cy="110.5" r="6.4"/>
					<path class="st30" d="M99.5,112.7H140c0.5,0,0.8,0.4,0.8,0.8v0.6c0,0.5-0.4,0.8-0.8,0.8H99.5c-0.5,0-0.8-0.4-0.8-0.8v-0.6
						C98.7,113.1,99,112.7,99.5,112.7z"/>
					<path class="st30" d="M99.6,108.2c0,2.5,2,4.6,4.6,4.6c0.2,0,0.5,0,0.7,0c0-2.5-2-4.6-4.6-4.6
						C100.1,108.1,99.9,108.1,99.6,108.2z"/>
					<path class="st30" d="M111.6,114c0,3.1,2.5,5.6,5.6,5.6c0.3,0,0.6,0,0.8-0.1c0-3.1-2.5-5.6-5.6-5.6
						C112.1,113.9,111.9,114,111.6,114z"/>
					<path class="st30" d="M129.1,107c-3.1,0-5.6,2.5-5.6,5.6c0,0.3,0,0.5,0.1,0.8c3.1,0,5.6-2.4,5.6-5.5
						C129.2,107.6,129.2,107.3,129.1,107z"/>
					<path class="st30" d="M140.2,119.5c0.1-1.3-0.5-2.6-1.6-3.4c-1-0.9-2.3-1.3-3.6-1.1c0,2.5,2,4.6,4.5,4.6
						C139.7,119.6,139.9,119.6,140.2,119.5L140.2,119.5z"/>
					<path class="st25" d="M124.4,138.2h-6.5c-0.9,0-1.6-0.7-1.6-1.6l0,0c0-0.9,0.7-1.6,1.6-1.6c0,0,0,0,0,0h6.5
						c0.9,0,1.6,0.7,1.6,1.6l0,0l0,0C126,137.4,125.3,138.2,124.4,138.2z"/>
					<path class="st26" d="M121,137.2h0.5c0.7,0,1.2,0.6,1.2,1.2l0,0l0,0c0,0.7-0.6,1.2-1.2,1.2l0,0H121c-0.7,0-1.2-0.6-1.2-1.2l0,0
						l0,0C119.8,137.7,120.3,137.2,121,137.2L121,137.2z"/>
					<path class="st27" d="M121.5,136.7c-1,0-1.9-0.3-2.8-0.7c-0.2-0.1-0.2-0.3-0.1-0.4c0.1-0.2,0.3-0.2,0.4-0.1c0,0,2.5,1.4,4.6,0
						c0.1-0.1,0.4-0.1,0.4,0.1s0.1,0.4-0.1,0.4C123.2,136.4,122.4,136.7,121.5,136.7z"/>
					<path class="st26" d="M115.3,123.7l-4,1c-0.5,0.1-1-0.2-1.2-0.7l0,0c-0.1-0.5,0.2-1,0.7-1.2l4-1c0.5-0.1,1,0.2,1.2,0.7l0,0
						C116.1,123.1,115.8,123.6,115.3,123.7z"/>
					<path class="st26" d="M126.3,123.5l3.5,0.8c0.4,0.1,0.9-0.2,1-0.6l0,0c0.1-0.4-0.2-0.9-0.6-1l-3.5-0.8c-0.4-0.1-0.9,0.2-1,0.6
						l0,0C125.6,122.9,125.9,123.4,126.3,123.5z"/>
					<path class="st7" d="M23.8,265.5h192.8c3.4,0,6.2,2.8,6.2,6.2v8.4c0,3.4-2.8,6.2-6.2,6.2H23.8c-3.4,0-6.2-2.8-6.2-6.2v-8.4
						C17.5,268.3,20.3,265.5,23.8,265.5z"/>
					<path class="st31" d="M167.8,278.2H68.9c-2.3,0-4.2-1.9-4.2-4.2l0,0c0-2.3,1.9-4.2,4.2-4.2h98.9c2.3,0,4.2,1.9,4.2,4.2l0,0
						C172,276.3,170.1,278.2,167.8,278.2z"/>
					<circle class="st32" cx="83.2" cy="262.5" r="12.3"/>
					<circle class="st33" cx="83.2" cy="262.5" r="10.8"/>
					<path class="st25" d="M88.9,269.8l-5.7-4.1l-5.7,4.1l2.2-6.7L74,259h7l2.2-6.7l2.2,6.7h7l-5.7,4.1L88.9,269.8z M75.3,259.4
						l4.9,3.6l-1.9,5.8l4.9-3.6l4.9,3.6l-1.9-5.8l4.9-3.6h-6.1l-1.9-5.8l-1.9,5.8H75.3z"/>
					<path class="st25" d="M83.2,265.7l-3.5-2.6L81,259h4.4l1.3,4.1L83.2,265.7z M80.2,262.9l3,2.2l3-2.2l-1.2-3.6h-3.7L80.2,262.9z
						"/>
					<circle class="st32" cx="107.9" cy="262.5" r="12.3"/>
					<circle class="st33" cx="107.9" cy="262.5" r="10.8"/>
					<path class="st25" d="M113.6,269.8l-5.7-4.1l-5.7,4.1l2.2-6.7l-5.7-4.1h7l2.2-6.7l2.2,6.7h7.1l-5.7,4.1L113.6,269.8z
						 M100,259.4l4.9,3.6l-1.9,5.8l4.9-3.6l4.9,3.6l-1.9-5.8l4.9-3.6h-6.1l-1.9-5.8l-1.9,5.8H100z"/>
					<path class="st25" d="M107.9,265.7l-3.5-2.6l1.3-4.1h4.4l1.3,4.1L107.9,265.7z M104.9,262.9l3,2.2l3-2.2l-1.2-3.6H106
						L104.9,262.9z"/>
					<circle class="st32" cx="132.6" cy="262.5" r="12.3"/>
					<circle class="st33" cx="132.6" cy="262.5" r="10.8"/>
					<path class="st25" d="M138.3,269.8l-5.7-4.1l-5.7,4.1l2.2-6.7l-5.7-4.1h7l2.2-6.7l2.2,6.7h7.1l-5.7,4.1L138.3,269.8z
						 M124.7,259.4l4.9,3.6l-1.9,5.8l4.9-3.6l4.9,3.6l-1.9-5.8l4.9-3.6h-6.1l-1.9-5.8l-1.9,5.8H124.7z"/>
					<path class="st25" d="M132.6,265.7l-3.5-2.6l1.3-4.1h4.4l1.4,4.1L132.6,265.7z M129.6,262.9l3,2.2l3-2.2l-1.1-3.6h-3.8
						L129.6,262.9z"/>
					<circle class="st32" cx="107.9" cy="220.1" r="12.3"/>
					<circle class="st33" cx="107.9" cy="220.1" r="10.8"/>
					<path class="st25" d="M113.6,227.4l-5.7-4.1l-5.7,4.1l2.2-6.7l-5.7-4.1h7l2.2-6.7l2.2,6.7h7.1l-5.7,4.1L113.6,227.4z M100,217
						l4.9,3.6l-1.9,5.8l4.9-3.6l4.9,3.6l-1.9-5.8l4.9-3.6h-6.1l-1.9-5.8L106,217H100z"/>
					<path class="st25" d="M107.9,223.3l-3.5-2.6l1.3-4.1h4.4l1.3,4.1L107.9,223.3z M104.9,220.6l3,2.2l3-2.2l-1.1-3.6H106
						L104.9,220.6z"/>
					<circle class="st32" cx="132.6" cy="220.1" r="12.3"/>
					<circle class="st33" cx="132.6" cy="220.1" r="10.8"/>
					<path class="st25" d="M138.3,227.4l-5.7-4.1l-5.7,4.1l2.2-6.7l-5.7-4.1h7l2.2-6.7l2.2,6.7h7.1l-5.7,4.1L138.3,227.4z
						 M124.7,217l4.9,3.6l-1.9,5.8l4.9-3.6l4.9,3.6l-1.9-5.8l4.9-3.6h-6.1l-1.9-5.8l-1.9,5.8H124.7z"/>
					<path class="st25" d="M132.6,223.3l-3.5-2.6l1.3-4.1h4.4l1.4,4.1L132.6,223.3z M129.6,220.6l3,2.2l3-2.2l-1.1-3.6h-3.8
						L129.6,220.6z"/>
					<circle class="st32" cx="157.3" cy="262.5" r="12.3"/>
					<circle class="st33" cx="157.3" cy="262.5" r="10.8"/>
					<path class="st25" d="M163,269.8l-5.7-4.1l-5.7,4.1l2.2-6.7l-5.7-4.1h7.1l2.2-6.7l2.2,6.7h7.1l-5.7,4.1L163,269.8z
						 M149.4,259.4l4.9,3.6l-1.9,5.8l4.9-3.6l4.9,3.6l-1.9-5.8l4.9-3.6h-6.1l-1.9-5.8l-1.9,5.8H149.4z"/>
					<path class="st25" d="M157.3,265.7l-3.5-2.6l1.3-4.1h4.4l1.4,4.1L157.3,265.7z M154.3,262.9l3,2.2l3-2.2l-1.1-3.6h-3.8
						L154.3,262.9z"/>
					<path class="st32" d="M108,241.3c0,6.8-5.5,12.3-12.4,12.3s-12.3-5.5-12.3-12.4c0-6.8,5.5-12.3,12.3-12.3S108,234.4,108,241.3
						L108,241.3z"/>
					<path class="st33" d="M106.4,241.3c0,5.9-4.8,10.8-10.8,10.8s-10.8-4.8-10.8-10.8c0-5.9,4.8-10.8,10.8-10.8l0,0
						C101.6,230.5,106.4,235.3,106.4,241.3C106.4,241.3,106.4,241.3,106.4,241.3z"/>
					<path class="st25" d="M101.4,248.6l-5.7-4.1l-5.7,4.1l2.2-6.7l-5.7-4.1h7l2.2-6.7l2.2,6.7h7.1l-5.7,4.1L101.4,248.6z
						 M87.8,238.2l4.9,3.6l-1.9,5.8l4.9-3.6l4.9,3.6l-1.9-5.8l4.9-3.6h-6.1l-1.9-5.8l-1.9,5.8H87.8z"/>
					<path class="st25" d="M95.7,244.5l-3.5-2.6l1.3-4.1h4.4l1.3,4.1L95.7,244.5z M92.7,241.7l3,2.2l3-2.2l-1.2-3.6h-3.7L92.7,241.7
						z"/>
					<path class="st32" d="M132.7,241.3c0,6.8-5.5,12.3-12.4,12.3s-12.3-5.5-12.3-12.4c0-6.8,5.5-12.3,12.3-12.3
						S132.7,234.4,132.7,241.3L132.7,241.3z"/>
					<circle class="st33" cx="120.4" cy="241.3" r="10.8"/>
					<path class="st25" d="M126.1,248.6l-5.7-4.1l-5.7,4.1l2.2-6.7l-5.7-4.1h7.1l2.2-6.7l2.2,6.7h7.1l-5.7,4.1L126.1,248.6z
						 M112.4,238.2l4.9,3.6l-1.9,5.8l4.9-3.6l4.9,3.6l-1.9-5.8l4.9-3.6h-6.1l-1.9-5.8l-1.9,5.8H112.4z"/>
					<path class="st25" d="M120.4,244.5l-3.5-2.6l1.3-4.1h4.4l1.3,4.1L120.4,244.5z M117.4,241.7l3,2.2l3-2.2l-1.2-3.6h-3.7
						L117.4,241.7z"/>
					<path class="st32" d="M157.4,241.3c0,6.8-5.5,12.3-12.4,12.3s-12.3-5.5-12.3-12.4c0-6.8,5.5-12.3,12.3-12.3
						C151.9,228.9,157.4,234.4,157.4,241.3L157.4,241.3z"/>
					<circle class="st33" cx="145.1" cy="241.3" r="10.8"/>
					<path class="st25" d="M150.8,248.6l-5.7-4.1l-5.7,4.1l2.2-6.7l-5.7-4.1h7.1l2.2-6.7l2.2,6.7h7.1l-5.7,4.1L150.8,248.6z
						 M137.1,238.2l4.9,3.6l-1.9,5.8l4.9-3.6l4.9,3.6l-1.9-5.8l4.9-3.6h-6.1l-1.9-5.8l-1.9,5.8H137.1z"/>
					<path class="st25" d="M145.1,244.5l-3.5-2.6l1.4-4.1h4.4l1.4,4.1L145.1,244.5z M142.1,241.7l3,2.2l3-2.2l-1.2-3.6h-3.7
						L142.1,241.7z"/>
					<rect x="51.1" y="42.2" class="st11" width="138.3" height="229.8"/>
				</g>
			</g>
		</g>
	</g>
</g>
</svg>
