<?xml version="1.0" encoding="utf-8"?>
<!-- Generator: Adobe Illustrator 25.2.3, SVG Export Plug-In . SVG Version: 6.00 Build 0)  -->
<svg version="1.1" id="Layer_1" xmlns="http://www.w3.org/2000/svg" xmlns:xlink="http://www.w3.org/1999/xlink" x="0px" y="0px"
	 viewBox="0 0 235.4 381.8" style="enable-background:new 0 0 235.4 381.8;" xml:space="preserve">
<style type="text/css">
	.st0{fill:#F2B055;}
	.st1{fill:#FFF0CC;}
	.st2{fill:#231F20;}
	.st3{clip-path:url(#SVGID_2_);}
	.st4{fill:#A4F6FF;}
	.st5{fill:#5BA486;}
	.st6{fill:#5FB18E;}
	.st7{fill:#FFFFFF;}
	.st8{fill:#80EAED;}
	.st9{fill:#AFEFEF;}
	.st10{fill:#7DAE81;}
	.st11{fill:#82B686;}
	.st12{fill:#8ECC94;}
	.st13{fill:#86BB8B;}
	.st14{fill:#A9CF49;}
	.st15{fill:none;}
	.st16{fill:#47372E;}
	.st17{fill:#ABCB71;}
	.st18{fill:#FFD150;}
	.st19{fill:#F2AF55;}
	.st20{fill:#ED8F5A;}
	.st21{fill:#4A355B;}
	.st22{fill:#78AC62;}
	.st23{fill:#E4705E;}
	.st24{fill:#DB4F64;}
	.st25{fill:#E3705E;}
	.st26{fill:#F1F1F1;}
	.st27{fill:#DC4F65;}
	.st28{fill:#D1D2D3;}
	.st29{fill:#BCBDBF;}
	.st30{fill:#929497;}
	.st31{fill:#F0C150;}
	.st32{fill:#FFD250;}
	.st33{fill:#F4B155;}
	.st34{fill:#3A335F;}
	.st35{fill:#424143;}
	.st36{fill:#9AC54A;}
	.st37{fill:#A83583;}
	.st38{opacity:0.25;}
	.st39{opacity:0.1;}
	.st40{fill:#F4B055;}
</style>
<g>
	<g id="Layer_2_1_">
		<g id="Layer_1-2">
			<path class="st0" d="M235.4,14.5v352.9c-0.2,8.1-6.9,14.6-15,14.5H15c-8.3,0-15-6.5-15-14.5V14.5C0,6.5,6.7,0,15,0h205.4
				C228.7,0,235.4,6.5,235.4,14.5z M222.8,358.9V22.9c0-6-4.8-10.8-10.8-10.9H23.5c-6,0-10.8,4.9-10.8,10.8c0,0,0,0,0,0v336.1
				c0,6,4.9,10.8,10.8,10.8H212C218,369.7,222.8,364.9,222.8,358.9z"/>
			<path class="st1" d="M23.5,12H212c6,0,10.8,4.8,10.8,10.8v336.1c0,6-4.8,10.8-10.8,10.8H23.5c-6,0-10.8-4.8-10.8-10.8V22.9
				C12.6,16.9,17.5,12,23.5,12z"/>
			<path class="st2" d="M31,329.3c-0.1-0.1-0.2-0.3-0.2-0.5V318h-3.4c-0.2,0-0.4,0-0.5-0.1c-0.1-0.2-0.2-0.3-0.1-0.5v-0.5
				c0-0.2,0-0.4,0.1-0.5c0.1-0.1,0.3-0.2,0.5-0.2h9.4c0.2,0,0.4,0,0.6,0.2c0.1,0.2,0.2,0.3,0.2,0.5v0.5c0,0.2,0,0.4-0.2,0.5
				c-0.2,0.1-0.4,0.2-0.6,0.1h-3.4v10.7c0,0.2,0,0.4-0.2,0.5c-0.2,0.1-0.4,0.2-0.6,0.2h-1C31.4,329.5,31.2,329.4,31,329.3z"/>
			<path class="st2" d="M39.2,329.3c-0.1-0.2-0.2-0.3-0.2-0.5v-11.9c0-0.2,0-0.4,0.2-0.5c0.2-0.1,0.4-0.2,0.6-0.2h8.2
				c0.3-0.1,0.6,0.1,0.7,0.4c0,0.1,0,0.2,0,0.2v0.5c0,0.2,0,0.4-0.2,0.5c-0.2,0.1-0.3,0.2-0.5,0.2h-6.4v3.8h4.6c0.2,0,0.4,0,0.5,0.2
				c0.1,0.1,0.2,0.3,0.2,0.5v0.5c0,0.2,0,0.4-0.2,0.5c-0.2,0.1-0.4,0.2-0.5,0.2h-4.6v3.8h6.4c0.3-0.1,0.6,0.1,0.7,0.5
				c0,0.1,0,0.2,0,0.2v0.5c0,0.2,0,0.4-0.2,0.5c-0.2,0.1-0.4,0.2-0.5,0.1h-8.2C39.5,329.5,39.3,329.4,39.2,329.3z"/>
			<path class="st2" d="M50.5,329.3c-0.1-0.1-0.2-0.3-0.2-0.5v-11.9c0-0.2,0-0.4,0.2-0.5c0.2-0.1,0.4-0.2,0.6-0.2H52
				c0.1,0,0.3,0,0.4,0.1c0.1,0.1,0.2,0.2,0.3,0.3l6.5,9v-8.7c0-0.2,0-0.4,0.2-0.5c0.2-0.1,0.4-0.2,0.6-0.2h1c0.2,0,0.4,0,0.6,0.2
				c0.1,0.2,0.2,0.3,0.2,0.5v11.9c0,0.2,0,0.4-0.2,0.5c-0.2,0.1-0.4,0.2-0.6,0.2H60c-0.3,0-0.6-0.1-0.7-0.4l-6.5-9v8.6
				c0,0.2,0,0.4-0.2,0.5c-0.2,0.1-0.4,0.2-0.6,0.2h-1C50.9,329.5,50.7,329.4,50.5,329.3z"/>
			<path class="st2" d="M73.1,328c-2.3-3-2.3-7.3,0-10.3c1.3-1.3,3.1-2,5-1.8c1.9-0.1,3.7,0.5,5,1.8c2.3,3,2.3,7.3,0,10.3
				c-1.3,1.3-3.1,2-5,1.8C76.2,330,74.4,329.3,73.1,328z M81.2,326.7c0.8-1.1,1.2-2.5,1.1-3.8c0.1-1.4-0.3-2.7-1.1-3.8
				c-1.7-1.7-4.6-1.7-6.3,0c-0.8,1.1-1.2,2.5-1.1,3.8c-0.1,1.4,0.3,2.7,1.1,3.8C76.7,328.4,79.5,328.4,81.2,326.7
				C81.2,326.7,81.2,326.6,81.2,326.7L81.2,326.7z"/>
			<path class="st2" d="M86.9,329.3c-0.1-0.2-0.2-0.3-0.2-0.5v-11.9c0-0.2,0-0.4,0.2-0.5c0.2-0.1,0.4-0.2,0.6-0.2h8.2
				c0.2,0,0.4,0,0.5,0.2c0.1,0.2,0.2,0.3,0.1,0.5v0.5c0,0.2,0,0.4-0.1,0.5c-0.2,0.1-0.3,0.2-0.5,0.2h-6.4v3.8h4.7
				c0.2,0,0.4,0,0.6,0.2c0.1,0.2,0.2,0.3,0.2,0.5v0.5c0,0.2,0,0.4-0.2,0.5c-0.2,0.1-0.4,0.2-0.6,0.2h-4.7v5c0,0.2,0,0.4-0.2,0.5
				c-0.2,0.1-0.4,0.2-0.6,0.2h-1C87.3,329.5,87.1,329.4,86.9,329.3z"/>
			<path class="st2" d="M105.7,329.3c-0.1-0.2-0.2-0.3-0.2-0.5v-11.9c0-0.2,0-0.4,0.2-0.5c0.2-0.1,0.4-0.2,0.6-0.2h5
				c1.3-0.1,2.6,0.3,3.6,1.2c1.6,1.9,1.6,4.7,0,6.6c-1,0.8-2.3,1.2-3.6,1.1H108v3.8c0,0.2,0,0.4-0.2,0.5c-0.2,0.1-0.4,0.2-0.6,0.2
				h-1C106.1,329.5,105.9,329.4,105.7,329.3z M111.2,323c0.7,0,1.3-0.2,1.8-0.6c0.4-0.5,0.6-1.2,0.6-1.9c0.1-0.7-0.2-1.4-0.6-1.9
				c-0.5-0.4-1.1-0.7-1.8-0.6h-3.1v5L111.2,323z"/>
			<path class="st2" d="M117.8,329.3c-0.1-0.2-0.2-0.3-0.2-0.5v-11.9c0-0.2,0-0.4,0.2-0.5c0.2-0.1,0.4-0.2,0.6-0.2h8.2
				c0.3-0.1,0.6,0.1,0.7,0.4c0,0.1,0,0.2,0,0.2v0.5c0,0.2,0,0.4-0.2,0.5c-0.2,0.1-0.3,0.2-0.5,0.2h-6.4v3.8h4.6c0.2,0,0.4,0,0.6,0.2
				c0.1,0.1,0.2,0.3,0.2,0.5v0.5c0.1,0.3-0.1,0.6-0.5,0.7c-0.1,0-0.2,0-0.2,0h-4.6v3.8h6.4c0.2,0,0.4,0,0.6,0.2
				c0.1,0.2,0.2,0.3,0.2,0.5v0.5c0,0.2,0,0.4-0.2,0.5c-0.2,0.1-0.4,0.2-0.6,0.1h-8.2C118.1,329.5,117.9,329.4,117.8,329.3z"/>
			<path class="st2" d="M129.1,329.3c-0.1-0.2-0.2-0.3-0.2-0.5v-11.9c0-0.2,0-0.4,0.2-0.5c0.2-0.1,0.4-0.2,0.6-0.2h0.9
				c0.2,0,0.3,0,0.4,0.1c0.1,0.1,0.2,0.2,0.3,0.3l6.5,9v-8.7c0-0.2,0-0.4,0.2-0.5c0.2-0.1,0.4-0.2,0.6-0.2h1
				c0.3-0.1,0.7,0.1,0.7,0.5c0,0.1,0,0.2,0,0.2v11.9c0,0.2,0,0.4-0.2,0.5c-0.2,0.1-0.4,0.2-0.6,0.2h-0.9c-0.1,0-0.3,0-0.4-0.1
				c-0.1-0.1-0.2-0.2-0.3-0.3l-6.5-9v8.6c0,0.2,0,0.4-0.2,0.5c-0.2,0.1-0.4,0.2-0.6,0.2h-1C129.5,329.5,129.3,329.4,129.1,329.3z"/>
			<path class="st2" d="M146.2,329.3c-0.1-0.1-0.2-0.3-0.2-0.5V318h-3.4c-0.2,0-0.4,0-0.6-0.1c-0.1-0.2-0.2-0.3-0.1-0.5v-0.5
				c0-0.2,0-0.4,0.1-0.5c0.2-0.1,0.4-0.2,0.6-0.2h9.4c0.2,0,0.4,0,0.6,0.2c0.1,0.2,0.2,0.3,0.2,0.5v0.5c0.1,0.3-0.1,0.6-0.4,0.7
				c-0.1,0-0.2,0-0.3,0h-3.4v10.7c0,0.2,0,0.4-0.2,0.5c-0.2,0.1-0.4,0.2-0.6,0.2h-1C146.6,329.5,146.4,329.4,146.2,329.3z"/>
			<path class="st2" d="M151.4,329.2c0-0.1,0-0.2,0.1-0.3l5.2-12.3c0.1-0.2,0.1-0.3,0.3-0.4c0.1-0.1,0.3-0.1,0.4-0.1h1.1
				c0.1,0,0.3,0,0.4,0.1c0.1,0.1,0.2,0.3,0.2,0.4l5.2,12.3c0,0.1,0.1,0.2,0.1,0.3c0,0.2-0.1,0.3-0.3,0.3h-1.7c-0.1,0-0.2,0-0.4-0.1
				c-0.1-0.1-0.2-0.2-0.2-0.3l-1.1-2.8h-5.4l-1.1,2.8c0,0.1-0.1,0.2-0.2,0.3c-0.1,0.1-0.2,0.1-0.4,0.1h-1.7
				C151.5,329.5,151.4,329.4,151.4,329.2z M159.9,324.5l-2.1-5.1l-2.1,5.1H159.9z"/>
			<path class="st2" d="M166.5,328c-2.9-2.6-3.1-7-0.5-9.9c1.4-1.6,3.5-2.4,5.6-2.3c0.8,0,1.7,0.1,2.5,0.3c0.7,0.1,1.3,0.4,1.9,0.8
				c0.1,0.1,0.2,0.1,0.2,0.3c0,0.1,0,0.2-0.1,0.3l-0.6,1c-0.1,0.1-0.1,0.2-0.2,0.2c-0.1,0-0.2,0-0.3-0.1c-1-0.5-2.1-0.8-3.2-0.8
				c-1.3-0.1-2.5,0.4-3.5,1.3c-1.7,2.3-1.7,5.4,0,7.7c1,0.9,2.2,1.3,3.5,1.3c1.2,0,2.3-0.2,3.4-0.8c0.1,0,0.2-0.1,0.3-0.1
				c0.1,0,0.1,0.1,0.2,0.2l0.6,1c0,0.1,0.1,0.1,0.1,0.2c0,0.1-0.1,0.2-0.2,0.3c-1.4,0.8-3,1.2-4.6,1.1
				C169.8,329.9,167.9,329.3,166.5,328z"/>
			<path class="st2" d="M178.6,329.3c-0.1-0.1-0.2-0.3-0.2-0.5v-11.9c0-0.2,0-0.4,0.2-0.5c0.2-0.1,0.4-0.2,0.6-0.2h1
				c0.2,0,0.4,0,0.6,0.2c0.1,0.2,0.2,0.3,0.2,0.5v10.7h6c0.2,0,0.4,0,0.6,0.2c0.1,0.2,0.2,0.3,0.2,0.5v0.5c0,0.2,0,0.4-0.2,0.5
				c-0.2,0.1-0.4,0.2-0.6,0.1h-7.8C178.9,329.5,178.7,329.4,178.6,329.3z"/>
			<path class="st2" d="M189.1,329.3c-0.1-0.2-0.2-0.3-0.2-0.5v-11.9c0-0.2,0-0.4,0.2-0.5c0.2-0.1,0.4-0.2,0.6-0.2h8.2
				c0.3-0.1,0.6,0.1,0.7,0.4c0,0.1,0,0.2,0,0.2v0.5c0,0.2,0,0.4-0.1,0.5c-0.2,0.1-0.3,0.2-0.5,0.2h-6.4v3.8h4.6c0.2,0,0.4,0,0.6,0.2
				c0.1,0.2,0.2,0.3,0.1,0.5v0.5c0,0.2,0,0.4-0.1,0.5c-0.2,0.1-0.4,0.2-0.6,0.2h-4.6v3.8h6.4c0.2,0,0.4,0,0.6,0.2
				c0.1,0.2,0.2,0.3,0.2,0.5v0.5c0,0.2,0,0.4-0.2,0.5c-0.2,0.1-0.4,0.2-0.6,0.1h-8.2C189.4,329.5,189.2,329.4,189.1,329.3z"/>
			<path class="st2" d="M202.3,329.5c-0.8-0.1-1.5-0.4-2.1-0.9c-0.2-0.1-0.3-0.2-0.3-0.3c0-0.1,0-0.2,0.1-0.2l0.6-1
				c0.1-0.1,0.1-0.2,0.2-0.2c0.1,0,0.2,0,0.2,0.1c0.5,0.3,1.1,0.5,1.7,0.7c0.6,0.2,1.3,0.3,1.9,0.3c0.7,0,1.4-0.1,2-0.4
				c0.5-0.3,0.7-0.9,0.7-1.4c0-0.3-0.1-0.7-0.3-1c-0.2-0.3-0.5-0.5-0.8-0.6c-0.3-0.2-0.9-0.4-1.6-0.7l-0.4-0.2
				c-0.7-0.3-1.4-0.6-2.1-1c-0.5-0.3-1-0.7-1.4-1.2c-0.4-0.5-0.6-1.2-0.6-1.9c0-1.1,0.5-2.1,1.4-2.8c1.1-0.7,2.3-1.1,3.6-1
				c0.8,0,1.6,0.1,2.4,0.3c0.6,0.1,1.2,0.4,1.7,0.8c0.1,0.1,0.2,0.2,0.2,0.3c0,0.1,0,0.2-0.1,0.2l-0.6,1c-0.1,0.1-0.1,0.2-0.2,0.2
				c-0.1,0-0.2-0.1-0.3-0.1c-0.9-0.6-2-0.8-3.1-0.8c-0.7,0-1.3,0.1-1.9,0.5c-0.4,0.3-0.7,0.9-0.6,1.4c0,0.4,0.1,0.7,0.3,1
				c0.2,0.3,0.5,0.5,0.8,0.6c0.3,0.2,0.9,0.4,1.6,0.7l0.5,0.2c0.8,0.3,1.5,0.6,2.2,1c0.5,0.3,0.9,0.7,1.2,1.2
				c0.3,0.6,0.5,1.2,0.4,1.8c0,1-0.4,2-1.3,2.7c-1.1,0.7-2.3,1.1-3.6,1C204.1,329.8,203.2,329.7,202.3,329.5z"/>
			<g>
				<defs>
					<path id="SVGID_1_" d="M53.1,44h129.2c13.7,0,24.8,11.1,24.8,24.8v192.6c0,13.7-11.1,24.8-24.8,24.8H53.1
						c-13.7,0-24.8-11.1-24.8-24.8V68.8C28.3,55.1,39.4,44,53.1,44z"/>
				</defs>
				<clipPath id="SVGID_2_">
					<use xlink:href="#SVGID_1_"  style="overflow:visible;"/>
				</clipPath>
				<g class="st3">
					<rect x="43.2" y="35.7" class="st4" width="145.4" height="174.1"/>
					<path class="st5" d="M61.3,95.5l10.7-5.5L90,93.4l10.8-4.1c1.6-0.6,3.4-0.7,5-0.2l16.5,5.2l11.3-5.9c1.7-0.9,3.8-1,5.6-0.4
						l22.2,8.2v20.1H61.3V95.5z"/>
					<path class="st6" d="M56.9,100.7l26.8-10.9l21.5,8.5l16.2-8.8c1.9-1,4.1-1.2,6.2-0.6l21.6,6.9l16.7-6.9v28.7H56.9V100.7z"/>
					<path class="st7" d="M98.9,72.7h-7.7c-0.6,0-1-0.4-1-1l0,0c0-0.6,0.4-1,1-1h7.7c0.6,0,1,0.4,1,1l0,0
						C99.9,72.3,99.5,72.7,98.9,72.7z"/>
					<path class="st7" d="M96.6,70.2c0,1.4-1.1,2.5-2.5,2.5s-2.5-1.1-2.5-2.5c0-1.4,1.1-2.5,2.5-2.5c0,0,0,0,0,0
						C95.5,67.8,96.6,68.9,96.6,70.2z"/>
					<path class="st7" d="M98.6,71c0,1-0.8,1.8-1.8,1.8c-1,0-1.8-0.8-1.8-1.8c0-1,0.8-1.8,1.8-1.8c0,0,0,0,0,0
						C97.8,69.2,98.6,70,98.6,71C98.6,71,98.6,71,98.6,71z"/>
					<path class="st7" d="M143.3,81h-9.2c-0.5,0-1-0.4-1-1v-0.3c0-0.5,0.4-1,1-1h9.2c0.5,0,1,0.4,1,1V80
						C144.3,80.5,143.9,81,143.3,81z"/>
					<path class="st7" d="M137,78.1c0,1.6,1.3,2.8,2.9,2.8s2.8-1.3,2.8-2.9c0-1.6-1.3-2.8-2.8-2.8C138.3,75.2,137,76.5,137,78.1
						C137,78.1,137,78.1,137,78.1z"/>
					<path class="st7" d="M134.7,78.9c0,1.1,0.9,2,2,2s2-0.9,2-2s-0.9-2-2-2S134.7,77.8,134.7,78.9z"/>
					<rect x="47.1" y="117.8" class="st8" width="132.8" height="21.3"/>
					<path class="st9" d="M84,121.2H69.7c-0.4,0-0.7-0.3-0.7-0.7l0,0c0-0.4,0.3-0.7,0.7-0.7l0,0H84c0.4,0,0.7,0.3,0.7,0.7l0,0l0,0
						C84.7,120.9,84.4,121.2,84,121.2z"/>
					<path class="st9" d="M94.4,127.9H80.1c-0.4,0-0.7-0.3-0.7-0.7l0,0c0-0.4,0.3-0.7,0.7-0.7h14.3c0.4,0,0.7,0.3,0.7,0.7l0,0
						C95.1,127.6,94.8,127.9,94.4,127.9z"/>
					<path class="st9" d="M139.6,133.6h-14.3c-0.4,0-0.7-0.3-0.7-0.7l0,0c0-0.4,0.3-0.7,0.7-0.7h14.3c0.4,0,0.7,0.3,0.7,0.7l0,0
						C140.3,133.3,140,133.6,139.6,133.6z"/>
					<path class="st9" d="M168.5,137h-14.3c-0.4,0-0.7-0.3-0.7-0.7l0,0c0-0.4,0.3-0.7,0.7-0.7h14.3c0.4,0,0.7,0.3,0.7,0.7l0,0
						C169.2,136.7,168.9,137,168.5,137z"/>
					<path class="st9" d="M160.7,129.1h-14.3c-0.4,0-0.7-0.3-0.7-0.7c0,0,0,0,0,0l0,0c0-0.4,0.3-0.7,0.7-0.7h14.3
						c0.4,0,0.7,0.3,0.7,0.7l0,0C161.4,128.8,161.1,129.1,160.7,129.1C160.7,129.1,160.7,129.1,160.7,129.1z"/>
					<path class="st9" d="M171.6,123.7h-14.3c-0.4,0-0.7-0.3-0.7-0.7l0,0c0-0.4,0.3-0.7,0.7-0.7h14.3c0.4,0,0.7,0.3,0.7,0.7l0,0
						C172.3,123.4,172,123.7,171.6,123.7z"/>
					<path class="st9" d="M126.1,127.9h-14.3c-0.4,0-0.7-0.3-0.7-0.7l0,0c0-0.4,0.3-0.7,0.7-0.7h14.3c0.4,0,0.7,0.3,0.7,0.7l0,0
						C126.8,127.6,126.5,127.9,126.1,127.9z"/>
					<path class="st9" d="M141.8,123.7h-14.3c-0.4,0-0.7-0.3-0.7-0.7l0,0c0-0.4,0.3-0.7,0.7-0.7h14.3c0.4,0,0.7,0.3,0.7,0.7l0,0
						C142.5,123.4,142.2,123.7,141.8,123.7L141.8,123.7z"/>
					<path class="st9" d="M94.4,136.5H80.1c-0.4,0-0.7-0.3-0.7-0.7l0,0c0-0.4,0.3-0.7,0.7-0.7h14.3c0.4,0,0.7,0.3,0.7,0.7l0,0
						C95.1,136.2,94.8,136.5,94.4,136.5z"/>
					<path class="st9" d="M108.4,123.2H94.1c-0.4,0-0.7-0.3-0.7-0.7l0,0c0-0.4,0.3-0.7,0.7-0.7c0,0,0,0,0,0h14.3
						c0.4,0,0.7,0.3,0.7,0.7c0,0,0,0,0,0l0,0C109.1,123,108.8,123.3,108.4,123.2C108.4,123.3,108.4,123.3,108.4,123.2z"/>
					<path class="st9" d="M114.5,133.6h-14.3c-0.4,0-0.7-0.3-0.7-0.7l0,0c0-0.4,0.3-0.7,0.7-0.7h14.3c0.4,0,0.7,0.3,0.7,0.7l0,0
						C115.2,133.3,114.9,133.6,114.5,133.6C114.5,133.6,114.5,133.6,114.5,133.6z"/>
					<path class="st9" d="M68.4,132.2H54.1c-0.4,0-0.7-0.3-0.7-0.7l0,0c0-0.4,0.3-0.7,0.7-0.7c0,0,0,0,0,0h14.3
						c0.4,0,0.7,0.3,0.7,0.7c0,0,0,0,0,0l0,0C69.1,131.9,68.8,132.2,68.4,132.2z"/>
					<path class="st9" d="M71.3,125.9H57c-0.4,0-0.7-0.3-0.7-0.7l0,0l0,0c0-0.4,0.3-0.7,0.7-0.7h14.3c0.4,0,0.7,0.3,0.7,0.7l0,0
						C72,125.6,71.7,125.9,71.3,125.9L71.3,125.9z"/>
					<path class="st10" d="M118.1,228.1H74.7c-2,0-3.6-1.6-3.6-3.6l0,0c0-2,1.6-3.5,3.6-3.5h43.5c2,0,3.6,1.6,3.6,3.6l0,0
						C121.7,226.5,120.1,228.1,118.1,228.1z"/>
					<path class="st10" d="M144.1,246.8h-29.5c-2,0-3.6-1.6-3.6-3.6l0,0c0-2,1.6-3.6,3.6-3.6h29.5c2,0,3.6,1.6,3.6,3.6l0,0
						C147.6,245.2,146,246.8,144.1,246.8z"/>
					<path class="st10" d="M169.7,227.1H126c-2,0-3.6-1.6-3.6-3.6l0,0c0-2,1.6-3.6,3.6-3.6h43.7c2,0,3.6,1.6,3.6,3.6l0,0
						C173.3,225.5,171.7,227.1,169.7,227.1C169.7,227.1,169.7,227.1,169.7,227.1z"/>
					<ellipse class="st11" cx="37.5" cy="145.2" rx="62.9" ry="38.7"/>
					<ellipse class="st11" cx="195.5" cy="139.7" rx="60.2" ry="37.1"/>
					<rect x="2.2" y="138.7" class="st12" width="226.9" height="168.8"/>
					<path class="st13" d="M127.9,258H65.2c-3.3,0-6-2.7-6-6l0,0c0-3.3,2.7-6,6-6l0,0h62.7c3.3,0,6,2.7,6,6l0,0l0,0
						C133.9,255.4,131.2,258,127.9,258z"/>
					<path class="st13" d="M166.6,254.5h-62.7c-3.3,0-6-2.7-6-6l0,0l0,0c0-3.3,2.7-6,6-6h62.7c3.3,0,6,2.7,6,6l0,0
						C172.6,251.8,169.9,254.5,166.6,254.5L166.6,254.5z"/>
					<path class="st13" d="M167.7,249.8h-37.1c-3.3,0-6-2.7-6-6l0,0c0-3.3,2.7-6,6-6h37.1c3.3,0,6,2.7,6,6l0,0
						C173.7,247.2,171,249.8,167.7,249.8z"/>
					<path class="st14" d="M110.8,56.4c-6.1,0-12.2-1.3-17.8-3.7c-1.3-0.5-2.5-1.1-3.6-1.7c-3.3-1.6-6.1-3-9.4-2.6
						c-2.8,0.4-5.5,1.5-7.7,3.2l-3.6-4.6c3.1-2.4,6.7-3.9,10.6-4.4c5-0.6,9.1,1.4,12.7,3.2c1.1,0.6,2.2,1.1,3.3,1.5
						c7.1,3.1,15,3.9,22.7,2.5c3.7-0.7,7-2.4,10.5-4.2c2.2-1.1,4.4-2.3,6.8-3.2c13-5.1,27-2.7,35.7,6l-4.1,4.1
						c-8-8-20.6-8.1-29.4-4.6c-2.1,0.9-4.2,1.9-6.3,3c-3.7,1.9-7.6,3.9-12.1,4.8C116.3,56.2,113.5,56.4,110.8,56.4z"/>
					<rect x="41.3" y="38.7" class="st15" width="145.3" height="255.9"/>
					<rect x="118" y="128.1" class="st16" width="30.4" height="48.2"/>
					<path class="st17" d="M76.7,176c-2.3,0-4.2-1.9-4.2-4.2c0-1.4,0.7-2.7,1.8-3.5c15.2-10.8,46.1-4.4,47.4-4.1
						c2.3,0.5,3.7,2.7,3.2,5c-0.5,2.3-2.7,3.7-5,3.2l0,0c-7.9-1.7-30.7-4.5-40.7,2.7C78.4,175.7,77.6,176,76.7,176z"/>
					<path class="st18" d="M133.2,161.1L133.2,161.1c-8.7,0-15.8,7.4-17.3,17.1h34.6C149.1,168.4,141.9,161.1,133.2,161.1z"/>
					<path class="st17" d="M115.7,180.2l3.6,21.6h27.9l3.6-21.6c0-1-0.1-1.9-0.3-2.8l-34.4-1C115.9,177.6,115.8,178.9,115.7,180.2z"
						/>
					<path class="st18" d="M124.3,144.6c0,1.8-1.5,3.3-3.3,3.3c-1.8,0-3.3-1.5-3.3-3.3s1.5-3.3,3.3-3.3c0,0,0,0,0,0
						C122.9,141.3,124.3,142.8,124.3,144.6C124.3,144.6,124.3,144.6,124.3,144.6z"/>
					<path class="st19" d="M122.6,144.6c0,0.9-0.8,1.6-1.6,1.6s-1.6-0.8-1.6-1.6c0-0.9,0.7-1.6,1.6-1.6
						C121.9,143,122.6,143.7,122.6,144.6C122.6,144.6,122.6,144.6,122.6,144.6z"/>
					<path class="st18" d="M148.7,144.6c0,1.8-1.5,3.3-3.3,3.3c-1.8,0-3.3-1.5-3.3-3.3c0-1.8,1.5-3.3,3.3-3.3
						C147.3,141.3,148.7,142.8,148.7,144.6C148.7,144.6,148.7,144.6,148.7,144.6z"/>
					<path class="st19" d="M147.1,144.6c0,0.9-0.7,1.6-1.6,1.6s-1.6-0.7-1.6-1.6s0.7-1.6,1.6-1.6S147.1,143.8,147.1,144.6
						L147.1,144.6z"/>
					<path class="st20" d="M127.7,165.5c0,1.3-1.1,2.3-2.4,2.3c-1.3,0-2.3-1.1-2.3-2.4s1.1-2.3,2.4-2.3c0,0,0,0,0,0
						C126.7,163.1,127.7,164.2,127.7,165.5C127.7,165.5,127.7,165.5,127.7,165.5z"/>
					<path class="st20" d="M131,168.3c0,1.3-1.1,2.3-2.4,2.3c-1.3,0-2.3-1.1-2.3-2.4s1.1-2.3,2.4-2.3c0,0,0,0,0,0
						C130,166,131,167,131,168.3C131,168.3,131,168.3,131,168.3z"/>
					<path class="st20" d="M135.3,169.1c0,1.3-1.1,2.3-2.4,2.3c-1.3,0-2.3-1.1-2.3-2.4s1.1-2.3,2.4-2.3c0,0,0,0,0,0
						C134.3,166.7,135.3,167.8,135.3,169.1C135.3,169.1,135.3,169.1,135.3,169.1z"/>
					<path class="st20" d="M139.6,167.9c0,1.3-1.1,2.3-2.4,2.3c-1.3,0-2.3-1.1-2.3-2.4c0-1.3,1.1-2.3,2.4-2.3
						C138.5,165.5,139.6,166.6,139.6,167.9C139.6,167.9,139.6,167.9,139.6,167.9z"/>
					<path class="st20" d="M143.1,165.5c0,1.3-1.1,2.3-2.4,2.3c-1.3,0-2.3-1.1-2.3-2.4s1.1-2.3,2.4-2.3c0,0,0,0,0,0
						C142.1,163.2,143.1,164.2,143.1,165.5z"/>
					<path class="st19" d="M127.7,164.9c0,1.3-1.1,2.3-2.4,2.3c-1.3,0-2.3-1.1-2.3-2.4c0-1.3,1.1-2.3,2.4-2.3c0,0,0,0,0,0
						C126.7,162.6,127.7,163.6,127.7,164.9C127.7,164.9,127.7,164.9,127.7,164.9z"/>
					<path class="st19" d="M131,167.8c0,1.3-1.1,2.3-2.4,2.3c-1.3,0-2.3-1.1-2.3-2.4c0-1.3,1.1-2.3,2.4-2.3c0,0,0,0,0,0
						C130,165.4,131,166.5,131,167.8C131,167.8,131,167.8,131,167.8z"/>
					<path class="st19" d="M135.3,168.6c0,1.3-1.1,2.3-2.4,2.3s-2.3-1.1-2.3-2.4s1.1-2.3,2.4-2.3c0,0,0,0,0,0
						C134.3,166.2,135.3,167.3,135.3,168.6z"/>
					<path class="st19" d="M139.6,167.3c0,1.3-1.1,2.3-2.4,2.3c-1.3,0-2.3-1.1-2.3-2.4c0-1.3,1.1-2.3,2.4-2.3
						C138.5,165,139.6,166,139.6,167.3C139.6,167.3,139.6,167.3,139.6,167.3z"/>
					<path class="st19" d="M143.1,165c0,1.3-1.1,2.3-2.4,2.3c-1.3,0-2.3-1.1-2.3-2.4s1.1-2.3,2.4-2.3c0,0,0,0,0,0
						C142.1,162.7,143.1,163.7,143.1,165z"/>
					<polygon class="st15" points="133.2,151.2 133.2,151.2 133.2,151.2 					"/>
					<polygon class="st18" points="129.8,157.2 129.1,162.7 138.3,162.7 137.3,157.2 					"/>
					<path class="st19" d="M133.2,132.5L133.2,132.5c6.6,0,12,5.4,12,12v2c0,6.6-5.4,12-12,12l0,0c-6.6,0-12-5.4-12-12v-2
						C121.2,137.9,126.6,132.5,133.2,132.5z"/>
					<path class="st18" d="M133.2,127.2L133.2,127.2c6.7,0,12.2,5.5,12.2,12.2v5.6c0,6.7-5.5,12.2-12.2,12.2l0,0
						c-6.7,0-12.2-5.5-12.2-12.2v-5.6C121,132.7,126.5,127.2,133.2,127.2z"/>
					<path class="st21" d="M128.1,146L128.1,146c-0.7,0-1.2-0.6-1.2-1.2v-2.1c0-0.7,0.6-1.2,1.2-1.2l0,0c0.7,0,1.2,0.6,1.2,1.2v2.1
						C129.3,145.4,128.8,146,128.1,146z"/>
					<path class="st21" d="M138.4,146L138.4,146c-0.7,0-1.2-0.6-1.2-1.2c0,0,0,0,0,0v-2.1c0-0.7,0.6-1.2,1.2-1.2c0,0,0,0,0,0l0,0
						c0.7,0,1.2,0.6,1.2,1.2v2.1C139.6,145.4,139.1,146,138.4,146z"/>
					<circle class="st16" cx="124.9" cy="131.1" r="8.8"/>
					<circle class="st16" cx="141.6" cy="131.1" r="8.8"/>
					<path class="st17" d="M133.2,251.1l-27.5,0.5c0-0.2,0-0.4,0-0.5c0-24.3,12.4-55.8,27.5-55.8s27.5,31.5,27.5,55.8H133.2z"/>
					<path class="st17" d="M146.2,165.9c-2-1.1-4.6-0.4-5.8,1.7c-1.1,2-0.4,4.6,1.6,5.7c0,0,0,0,0,0c0.6,0.3,13.1,8.1,5.8,33.5
						l7.8,3.4C165.7,177.1,147.1,166.4,146.2,165.9z"/>
					<path class="st18" d="M147.9,219.2c0.5,0.2,1,0.3,1.5,0.3c1.7,0,3.3-1.1,3.9-2.7c0.9-2.3,1.6-4.5,2.3-6.6l-7.8-3.4
						c-0.6,2.2-1.4,4.5-2.4,7C144.7,216,145.7,218.4,147.9,219.2z"/>
					<path class="st22" d="M120.2,198.6h26c1.6,0,2.9,1.3,2.9,2.9v0.6c0,1.6-1.3,2.9-2.9,2.9h-26c-1.6,0-2.9-1.3-2.9-2.9v-0.6
						C117.4,199.9,118.7,198.6,120.2,198.6z"/>
					<path class="st16" d="M138.4,125.3c0,2.6-2.1,4.7-4.7,4.7c-2.6,0-4.7-2.1-4.7-4.7c0-2.6,2.1-4.7,4.7-4.7c0,0,0,0,0,0
						C136.3,120.6,138.4,122.7,138.4,125.3C138.4,125.3,138.4,125.3,138.4,125.3z"/>
					<path class="st16" d="M138.4,134c0,2.6-2.1,4.7-4.7,4.7c-2.6,0-4.7-2.1-4.7-4.7c0-2.6,2.1-4.7,4.7-4.7c0,0,0,0,0,0
						C136.3,129.3,138.4,131.4,138.4,134z"/>
					<path class="st17" d="M142.9,164.5c6.1,4.3,7.6,12.9,7.6,12.9H116c1.5-8.8,7.1-12.4,7.1-12.4l10.2,11.4L142.9,164.5z"/>
					<path class="st19" d="M133.2,151.6c-0.9,0-1.7-0.2-2.4-0.7l0.4-0.5c0.1,0.1,1.7,1.2,4.5,0l0.3,0.6
						C135.1,151.4,134.2,151.6,133.2,151.6z"/>
					<path class="st19" d="M132.8,146.3h1.6c0,0.9-0.7,1.6-1.6,1.6s-1.6-0.7-1.6-1.6s0.7-1.6,1.6-1.6l0,0V146.3z"/>
					<polygon class="st22" points="133.2,176.3 148.5,193.8 148.9,191.3 					"/>
					<path class="st23" d="M130,183.2c0-9-10.8-16.4-23.9-16.4H92.9c-13.2,0-23.9,7.4-23.9,16.4v71.9h61L130,183.2z"/>
					<path class="st21" d="M107.6,229.2H91.4c-7.6,0-13.8-6.2-13.8-13.8l0,0v-11l0,0h43.7l0,0v11C121.3,223,115.2,229.2,107.6,229.2
						L107.6,229.2z"/>
					<polygon class="st18" points="99.5,178.6 88.8,177.9 99.5,193.9 110.2,177.9 					"/>
					<polygon class="st24" points="99.5,178.6 93.5,178.2 99.5,186.7 105.5,178.2 					"/>
					<path class="st18" d="M100.6,181.7c0,0.6-0.5,1.1-1.1,1.1c-0.6,0-1.1-0.5-1.1-1.1c0-0.6,0.5-1.1,1.1-1.1l0,0
						C100.1,180.6,100.6,181.1,100.6,181.7z"/>
					<path class="st18" d="M79.6,201.3h39.8c1.1,0,1.9,0.9,1.9,1.9v2.3c0,1.1-0.9,1.9-1.9,1.9H79.6c-1.1,0-1.9-0.9-1.9-1.9v-2.3
						C77.6,202.2,78.5,201.3,79.6,201.3z"/>
					<path class="st24" d="M101.4,204.4c0,1.1-0.9,2-2,2s-2-0.9-2-2s0.9-2,2-2S101.4,203.3,101.4,204.4z"/>
					<path class="st7" d="M83,245.4c0,3,2.4,5.4,5.4,5.4l0,0c3,0,5.4-2.4,5.4-5.4v-12.2H83V245.4z"/>
					<path class="st21" d="M88.4,211.6L88.4,211.6c-3,0-5.4,2.4-5.4,5.4c0,0,0,0,0,0v21.4h10.8V217C93.8,214,91.4,211.6,88.4,211.6z
						"/>
					<path class="st7" d="M93.8,244.4c0,3-2.4,5.4-5.4,5.4c-3,0-5.4-2.4-5.4-5.4s2.4-5.4,5.4-5.4c0,0,0,0,0,0
						C91.4,239.1,93.8,241.5,93.8,244.4C93.8,244.4,93.8,244.4,93.8,244.4z"/>
					<path class="st25" d="M81.8,251.3h10.9c0.2,0,0.4,0.2,0.4,0.4v0.5c0,0.2-0.2,0.4-0.4,0.4H81.8c-0.2,0-0.4-0.2-0.4-0.4v-0.5
						C81.4,251.5,81.6,251.3,81.8,251.3z"/>
					<path class="st18" d="M79,246.8l3.5-0.7c0.2,0,0.4,0.1,0.5,0.3l0.1,0.5c0,0.2-0.1,0.4-0.3,0.5l-3.5,0.7c-0.2,0-0.4-0.1-0.5-0.3
						l-0.1-0.5C78.7,247.1,78.8,246.9,79,246.8z"/>
					<path class="st7" d="M115.9,245.4c0,3-2.4,5.4-5.4,5.4l0,0c-3,0-5.4-2.4-5.4-5.4v-12.2h10.8L115.9,245.4z"/>
					<path class="st21" d="M110.5,211.6L110.5,211.6c3,0,5.4,2.4,5.4,5.4v21.4h-10.8V217C105.1,214,107.5,211.6,110.5,211.6z"/>
					<path class="st7" d="M105.1,244.4c0,3,2.4,5.4,5.4,5.4s5.4-2.4,5.4-5.4c0-3-2.4-5.4-5.4-5.4l0,0
						C107.5,239.1,105.1,241.5,105.1,244.4z"/>
					<path class="st25" d="M117.1,252.7h-11c-0.2,0-0.4-0.2-0.4-0.4v-0.5c0-0.2,0.2-0.4,0.4-0.4h11c0.2,0,0.4,0.2,0.4,0.4v0.5
						C117.6,252.5,117.4,252.7,117.1,252.7z"/>
					<path class="st18" d="M119.7,248.1l-3.5-0.7c-0.2,0-0.4-0.3-0.3-0.5l0.1-0.5c0-0.2,0.3-0.4,0.5-0.3l3.5,0.7
						c0.2,0,0.4,0.3,0.3,0.5l-0.1,0.5C120.1,248,119.9,248.1,119.7,248.1z"/>
					<path class="st23" d="M116.6,170.7h-5.2c-0.4,0-0.8,0.3-0.8,0.8c0,0,0,0,0,0v54c0,0.4,0.4,0.8,0.8,0.8c0,0,0,0,0,0h5.2
						c3,0.1,5.5-2.3,5.5-5.3v-45C122.1,173,119.6,170.6,116.6,170.7C116.6,170.7,116.6,170.7,116.6,170.7z"/>
					<path class="st26" d="M109.8,170.7c-3-0.1-5.5,2.3-5.5,5.3V221c0.1,3,2.6,5.3,5.5,5.3l0,0c0.4,0,0.8-0.3,0.8-0.8c0,0,0,0,0,0
						v-54C110.6,171.1,110.2,170.7,109.8,170.7C109.8,170.7,109.8,170.7,109.8,170.7L109.8,170.7z"/>
					<path class="st23" d="M82.3,170.7h5.2c0.4,0,0.8,0.3,0.8,0.8c0,0,0,0,0,0v54c0,0.4-0.4,0.8-0.8,0.8c0,0,0,0,0,0h-5.2
						c-3,0.1-5.4-2.3-5.5-5.3v-45C76.9,173,79.3,170.6,82.3,170.7z"/>
					<path class="st26" d="M89.2,170.7c3-0.1,5.5,2.3,5.5,5.3c0,0,0,0,0,0v45.1c-0.1,3-2.6,5.3-5.6,5.3l0,0c-0.4,0-0.8-0.3-0.8-0.8
						c0,0,0,0,0,0v-54C88.4,171.1,88.7,170.8,89.2,170.7C89.2,170.8,89.2,170.8,89.2,170.7L89.2,170.7z"/>
					<path class="st19" d="M81.4,173l-6.1,3.1c-1.2,0.6-2.6,0.2-3.2-1l0,0c-0.6-1.2-0.2-2.6,1-3.2l6.1-3.1c1.2-0.6,2.6-0.2,3.2,1
						l0,0C83,170.9,82.6,172.4,81.4,173C81.4,173,81.4,173,81.4,173z"/>
					<path class="st18" d="M81.2,172.3l-6.1,3.1c-1.2,0.6-2.6,0.2-3.2-1l0,0c-0.6-1.2-0.2-2.6,1-3.2l6.1-3.2c1.2-0.6,2.6-0.2,3.2,1
						l0,0C82.9,170.2,82.4,171.7,81.2,172.3C81.2,172.3,81.2,172.3,81.2,172.3z"/>
					<rect x="87.3" y="143.6" class="st18" width="24.8" height="20.7"/>
					<polygon class="st7" points="87.4,173.3 84.4,168.6 84.4,146.2 87.4,146.2 					"/>
					<polygon class="st7" points="115,169 111.6,173.3 111.6,146.2 115,146.2 					"/>
					<path class="st21" d="M94.1,152.4h0.5c0.5,0,0.9,0.4,0.9,0.9v2.3c0,0.5-0.4,0.9-0.9,0.9h-0.5c-0.5,0-0.9-0.4-0.9-0.9v-2.3
						C93.2,152.8,93.6,152.4,94.1,152.4z"/>
					<path class="st7" d="M87.9,149.7L94,148c0.5-0.1,1,0.2,1.1,0.7l0.1,0.5c0.1,0.5-0.2,1-0.7,1.1l-6.1,1.7c-0.5,0.1-1-0.2-1.1-0.7
						l-0.1-0.5C87.1,150.4,87.4,149.8,87.9,149.7z"/>
					<path class="st21" d="M104.9,156.6h-0.5c-0.5,0-0.9-0.4-0.9-0.9v-2.3c0-0.5,0.4-0.9,0.9-0.9h0.5c0.5,0,0.9,0.4,0.9,0.9v2.3
						C105.8,156.2,105.4,156.6,104.9,156.6z"/>
					<path class="st7" d="M109.8,151.7l-6.3-0.7c-0.5-0.1-0.9-0.5-0.8-1l0.1-0.5c0.1-0.5,0.5-0.9,1-0.8l6.3,0.7
						c0.5,0.1,0.9,0.5,0.8,1l-0.1,0.5C110.8,151.4,110.4,151.8,109.8,151.7z"/>
					<path class="st7" d="M84.4,160v8.3c0,8.5,6.9,15.3,15.3,15.3l0,0c8.4,0,15.3-6.9,15.3-15.3V160H84.4z"/>
					<path class="st18" d="M95.4,162.2h8.6c1,0,1.9,0.8,1.9,1.9v0.3c0,1-0.8,1.9-1.9,1.9h-8.6c-1,0-1.9-0.8-1.9-1.9v-0.3
						C93.5,163.1,94.4,162.2,95.4,162.2z"/>
					<path class="st7" d="M99.2,165.1h0.6c0.9,0,1.6,0.7,1.6,1.6l0,0c0,0.9-0.7,1.6-1.6,1.6h-0.6c-0.9,0-1.6-0.7-1.6-1.6l0,0
						C97.7,165.8,98.4,165.1,99.2,165.1z"/>
					<path class="st19" d="M97.3,163.3L97.3,163.3c1.5,0.3,3,0.3,4.5,0c0.2,0,0.4,0.1,0.5,0.3c0,0.2-0.1,0.4-0.3,0.5
						c-1.6,0.3-3.1,0.3-4.7,0c-0.2,0-0.4-0.2-0.4-0.4C96.9,163.4,97.1,163.3,97.3,163.3z"/>
					<path class="st27" d="M99.5,161.5L99.5,161.5c-1.3,0-2.3-1-2.3-2.3v-2.9c0-1.3,1-2.3,2.3-2.3l0,0l0,0c1.3,0,2.3,1,2.3,2.3l0,0
						v2.9C101.8,160.5,100.8,161.5,99.5,161.5z"/>
					<path class="st7" d="M83.8,140l8.2-5.2c0.1,0.1,0.2,0.3,0.2,0.4c2.7,4.6,1.2,10.6-3.4,13.3s-10.6,1.2-13.3-3.4
						c0,0-0.1-0.1-0.1-0.2L83.8,140z"/>
					<path class="st7" d="M115.6,146l-3.9-4.5l-0.2,0.2c-2.3,2.3-2.3,6.1,0,8.4c2.2,2.2,5.8,2.3,8.1,0.2L115.6,146z"/>
					<circle class="st7" cx="96.2" cy="138" r="7.7"/>
					<circle class="st7" cx="105.9" cy="139.9" r="7.3"/>
					
						<rect x="98.2" y="196.9" transform="matrix(0.7071 -0.7071 0.7071 0.7071 -110.9246 128.3495)" class="st21" width="2.4" height="2.4"/>
					
						<rect x="106.2" y="180.1" transform="matrix(0.7071 -0.7071 0.7071 0.7071 -96.7752 129.0724)" class="st21" width="2.4" height="2.4"/>
					
						<rect x="106.2" y="196.9" transform="matrix(0.7071 -0.7071 0.7071 0.7071 -108.6008 133.9684)" class="st21" width="2.4" height="2.4"/>
					
						<rect x="106.2" y="216.2" transform="matrix(0.7071 -0.7071 0.7071 0.7071 -122.2788 139.6319)" class="st21" width="2.4" height="2.4"/>
					
						<rect x="90.3" y="180.1" transform="matrix(0.7071 -0.7071 0.7071 0.7071 -101.4227 117.8488)" class="st21" width="2.4" height="2.4"/>
					
						<rect x="90.3" y="196.8" transform="matrix(0.7071 -0.7071 0.7071 0.7071 -113.2412 122.7419)" class="st21" width="2.4" height="2.4"/>
					
						<rect x="90.3" y="216.2" transform="matrix(0.7071 -0.7071 0.7071 0.7071 -126.9263 128.4083)" class="st21" width="2.4" height="2.4"/>
					<path class="st23" d="M124.8,253.5h-49l-5-32.2c0-13.7,11.1-24.8,24.8-24.8h7.5c13.7,0,24.8,11.1,24.8,24.8L124.8,253.5z"/>
					<path class="st26" d="M115,189.2c0.6,1.3,1,2.7,1,4.2c0,5.4-4.4,9.7-9.7,9.7c-2.3,0-4.5-0.8-6.2-2.2c2.3,4.8,8.1,6.9,13,4.6
						c4.8-2.3,6.9-8.1,4.6-13C117,191.2,116.1,190.1,115,189.2L115,189.2z"/>
					<path class="st28" d="M108.8,211.5H92.9c-5.5,0-10-4.4-10-9.9l0,0c0-5.5,4.5-10,10-10h15.8c5.5,0,10,4.5,10,10l0,0
						C118.7,207,114.3,211.5,108.8,211.5z"/>
					<path class="st28" d="M115.9,194.6c0-1.1-0.3-2.3-0.8-3.3c-3.3-2.7-8.1-2.2-10.8,1c-1.1,1.4-1.7,3.1-1.7,4.9
						c0,1.1,0.3,2.3,0.8,3.3c1.4,1.1,3.1,1.8,4.9,1.8C112.5,202.2,115.9,198.8,115.9,194.6z"/>
					<path class="st26" d="M92.9,189.6h15.8c5.5,0,10,4.5,10,10l0,0c0,5.5-4.5,10-10,10H92.9c-5.5,0-10-4.5-10-10l0,0
						C83,194.1,87.4,189.6,92.9,189.6z"/>
					<path class="st18" d="M115.9,192.6c0-1.1-0.3-2.3-0.8-3.3c-3.2-2.7-8.1-2.2-10.7,1c-1.9,2.3-2.3,5.5-1,8.2
						c3.3,2.7,8.1,2.2,10.8-1C115.3,196.1,115.9,194.4,115.9,192.6L115.9,192.6z"/>
					<path class="st19" d="M108.7,193.3L108.7,193.3c-0.2,0-0.3-0.1-0.3-0.3c0,0,0,0,0,0c0-1.4-0.2-2.4-0.8-2.8
						c-0.4-0.3-0.8-0.4-1.3-0.2c-0.2,0-0.3-0.1-0.4-0.2c0-0.2,0-0.3,0.2-0.4c0.6-0.2,1.3,0,1.8,0.4c0.8,0.6,1.1,1.7,1.1,3.3
						C109,193.2,108.9,193.3,108.7,193.3z"/>
					<path class="st18" d="M109.4,215.9h4.8c3.4,0,6.1-2.7,6.1-6.1l0,0c0-3.4-2.7-6.1-6.1-6.1h-4.8c-3.4,0-6.1,2.7-6.1,6.1l0,0
						C103.3,213.2,106,215.9,109.4,215.9z"/>
					<path class="st18" d="M113.7,204.7l2.2,2.2c0.9,0.9,2.3,0.9,3.1,0l0,0c0.8-0.9,0.8-2.3,0-3.1l-2.2-2.2c-0.9-0.9-2.3-0.9-3.1,0
						l0,0C112.9,202.4,112.9,203.8,113.7,204.7z"/>
					<path class="st18" d="M84.5,200.4l5.1,2.8c1.6,0.9,2.3,3,1.4,4.6l-1.1,2c-0.9,1.6-3,2.3-4.6,1.4l-5.1-2.8
						c-1.6-0.9-2.3-3-1.4-4.6l1.1-2C80.7,200.1,82.8,199.5,84.5,200.4z"/>
					<path class="st18" d="M85.4,201.7l-2.2,0.7c-0.9,0.2-1.7-0.3-2-1.1l0,0c-0.2-0.9,0.3-1.7,1.1-2l2.2-0.6c0.9-0.2,1.7,0.3,2,1.1
						l0,0C86.8,200.6,86.3,201.5,85.4,201.7z"/>
					<path class="st28" d="M92.3,192.6h0.3c0.4,0,0.7,0.3,0.7,0.7v9c0,0.4-0.3,0.7-0.7,0.7h-0.3c-0.4,0-0.7-0.3-0.7-0.7v-9
						C91.6,192.9,91.9,192.6,92.3,192.6z"/>
					<path class="st28" d="M98,200.3h0.2c0.3,0,0.5,0.2,0.5,0.5v2.7c0,0.3-0.2,0.5-0.5,0.5H98c-0.3,0-0.5-0.2-0.5-0.5v-2.7
						C97.5,200.5,97.7,200.3,98,200.3z"/>
					<path class="st28" d="M94.8,204.8H95c0.3,0,0.5,0.2,0.5,0.5v2.1c0,0.3-0.2,0.5-0.5,0.5h-0.2c-0.3,0-0.5-0.2-0.5-0.5v-2.1
						C94.3,205.1,94.5,204.8,94.8,204.8z"/>
					<path class="st28" d="M96.8,193.9H97c0.3,0,0.5,0.2,0.5,0.5v2.1c0,0.3-0.2,0.5-0.5,0.5h-0.2c-0.3,0-0.5-0.2-0.5-0.5v-2.1
						C96.3,194.1,96.5,193.9,96.8,193.9z"/>
					<path class="st28" d="M87.9,194.2h0.2c0.3,0,0.5,0.2,0.5,0.5v2.5c0,0.3-0.2,0.5-0.5,0.5h-0.2c-0.3,0-0.5-0.2-0.5-0.5v-2.5
						C87.4,194.4,87.7,194.2,87.9,194.2z"/>
					<path class="st29" d="M27.5,35.7h41.1c0.3,0,0.6,0.3,0.6,0.6v252.1c0,0.3-0.3,0.6-0.6,0.6H27.5c-0.3,0-0.6-0.3-0.6-0.6V36.2
						C26.9,35.9,27.2,35.7,27.5,35.7z"/>
					<path class="st7" d="M21.2,279.3h55.6c4,0,7.3,3.3,7.3,7.3v1.5c0,4-3.3,7.3-7.3,7.3H21.2c-4,0-7.3-3.3-7.3-7.3v-1.5
						C14,282.6,17.2,279.3,21.2,279.3z"/>
					<path class="st7" d="M38,52.2L38,52.2c1.2,0,2.2,1,2.2,2.2v215.3c0,1.2-1,2.2-2.2,2.3c0,0,0,0,0,0l0,0c-1.2,0-2.2-1-2.2-2.2
						V54.4C35.8,53.2,36.8,52.2,38,52.2z"/>
					<path class="st7" d="M48.4,52.2L48.4,52.2c1.2,0,2.2,1,2.2,2.2v215.3c0,1.2-1,2.2-2.2,2.3c0,0,0,0,0,0l0,0
						c-1.2,0-2.2-1-2.2-2.2V54.4C46.2,53.2,47.2,52.2,48.4,52.2z"/>
					<path class="st7" d="M59.3,52.2L59.3,52.2c1.2,0,2.2,1,2.2,2.2v215.3c0,1.2-1,2.2-2.2,2.3c0,0,0,0,0,0l0,0
						c-1.2,0-2.2-1-2.2-2.2V54.4C57.1,53.2,58.1,52.2,59.3,52.2z"/>
					<rect x="26.9" y="35.7" class="st30" width="42.3" height="12.6"/>
					<path class="st31" d="M193.1,263.8h-23.3c-2.2,0-4,1.8-4,4s1.8,4,4,4H194l0.6,2.9c0.1,0.5,0.4,0.9,0.7,1.3l0.7,0.6
						c1,0.9,2.5,0.8,3.4-0.2c0.4-0.4,0.6-1,0.6-1.6v-9.6c0-1.3-1.1-2.4-2.4-2.4l0,0H195C194.3,262.8,193.6,263.2,193.1,263.8z"/>
					<path class="st18" d="M191.4,268.6h-25.1c-2.4-0.1-4.4,1.7-4.5,4.1c-0.1,2.4,1.7,4.4,4.1,4.5c0.1,0,0.3,0,0.4,0h26l0.7,3.1
						c0.1,0.5,0.4,1,0.8,1.4l0.7,0.7c1.1,1,2.7,0.9,3.7-0.2c0.4-0.5,0.7-1.1,0.7-1.7v-10.4c0-1.4-1.2-2.6-2.6-2.6h-2.8
						C192.6,267.6,191.9,268,191.4,268.6z"/>
					<path class="st20" d="M168.9,276l17.6-15.6l-21.2-23.8c-4.3-4.9-11.7-5.3-16.6-1c0,0,0,0,0,0l0,0c-4.9,4.3-5.3,11.7-1,16.6
						c0,0,0,0,0,0L168.9,276z"/>
					<path class="st23" d="M183.5,262.8h-26.1c-1.6,0-2.9-1.3-2.9-2.9l0,0c0-1.6,1.3-2.9,2.9-2.9h26.1c1.6,0,2.9,1.3,2.9,2.9
						c0,0,0,0,0,0l0,0C186.4,261.6,185.1,262.8,183.5,262.8z"/>
					<path class="st20" d="M187.3,280.4H160c-5.5,0-10-4.5-10-10l0,0c0-5.5,4.5-10,10-10h27.3l0,0V280.4L187.3,280.4z"/>
					<path class="st32" d="M131.9,240.5l3.7,3.5c0.4,0.4,1.1,0.4,1.6,0c0,0,0,0,0,0l1.2-1.3L131.9,240.5z"/>
					<path class="st16" d="M152.6,213.4c2.6,4.7,0.8,10.6-3.8,13.1s-10.6,0.8-13.1-3.8c-2.6-4.7-0.8-10.6,3.8-13.1c0,0,0,0,0,0
						C144.1,206.9,150,208.6,152.6,213.4C152.6,213.3,152.6,213.3,152.6,213.4z"/>
					<circle class="st16" cx="148" cy="227" r="9.7"/>
					<path class="st32" d="M136.6,233.2c1.1,1.1,1,3-0.1,4c-1.1,1.1-3,1-4-0.1c-1.1-1.1-1-3,0.1-4c0,0,0,0,0,0
						C133.7,232,135.5,232,136.6,233.2z"/>
					<path class="st33" d="M135.8,233.9c0.7,0.7,0.7,1.9-0.1,2.6c-0.7,0.7-1.9,0.7-2.6-0.1c-0.7-0.7-0.7-1.9,0.1-2.6c0,0,0,0,0,0
						C134,233.1,135.1,233.1,135.8,233.9z"/>
					<path class="st32" d="M148.1,220.6l-4.2-3.3c-5.6-4.3-13.6-3.4-18,2.2l0,0c-4.3,5.6-3.4,13.6,2.2,18l4.2,3.3
						c2.3,1.8,5.2,2.8,8.1,2.7c0.4-1.2,0.5-2.4,0.1-3.6c0-0.2,0.1-0.4,0.2-0.4c0.2,0,0.3,0.1,0.4,0.2c0,0,0,0,0,0
						c0.3,1.2,0.3,2.5-0.1,3.7c3.6-0.3,6.9-2,9.2-4.9l0,0C154.7,233,153.7,225,148.1,220.6z"/>
					<path class="st31" d="M141.2,239.7c0-0.2-0.2-0.3-0.4-0.2c0,0,0,0,0,0c-0.2,0-0.3,0.2-0.2,0.4c0.3,1.2,0.3,2.4-0.1,3.6
						c0.2,0,0.5,0,0.7,0C141.6,242.3,141.6,241,141.2,239.7z"/>
					<path class="st16" d="M142.1,220.1L128.9,237c-2.6,3.4-7.5,4-10.9,1.3l0,0c-3.4-2.6-3.9-7.5-1.3-10.9l13.2-16.9
						c2.6-3.4,7.5-3.9,10.9-1.3l0,0C144.1,211.8,144.7,216.7,142.1,220.1z"/>
					<path class="st34" d="M136.8,240L136.8,240c-0.4,0.5-1.2,0.7-1.7,0.2l-1.8-1.4c-0.5-0.4-0.7-1.2-0.3-1.7c0,0,0,0,0,0l0,0
						c0.4-0.5,1.2-0.7,1.7-0.3l1.8,1.4C137.1,238.7,137.2,239.4,136.8,240z"/>
					<path class="st35" d="M133.9,235.6l-2.4,2.7c-0.2,0.3-0.7,0.3-0.9,0.1l0,0c-0.3-0.3-0.3-0.7,0-0.9l2.4-2.7
						c0.2-0.3,0.6-0.3,0.9-0.1c0,0,0,0,0,0l0,0C134.1,234.9,134.2,235.3,133.9,235.6C133.9,235.5,133.9,235.5,133.9,235.6z"/>
					<path class="st16" d="M146.1,220.3L146.1,220.3c0.6-0.8,0.4-1.9-0.4-2.5l-3.6-2.5c-0.8-0.6-1.9-0.4-2.5,0.4l0,0
						c-0.6,0.8-0.4,1.9,0.4,2.5l3.6,2.5C144.4,221.3,145.5,221.1,146.1,220.3C146.1,220.3,146.1,220.3,146.1,220.3z"/>
					<path class="st16" d="M149.7,229L149.7,229c-2.3,0.1-4.3-1.7-4.5-4l0,0c-0.1-2.3,1.7-4.3,4-4.5l0,0c2.3-0.1,4.3,1.7,4.5,4l0,0
						C153.8,226.9,152,228.9,149.7,229z"/>
					<path class="st16" d="M142.5,228L142.5,228c-2.3,0.1-4.3-1.7-4.5-4l0,0c-0.1-2.3,1.7-4.3,4-4.5l0,0c2.3-0.1,4.3,1.7,4.5,4l0,0
						C146.6,225.9,144.8,227.9,142.5,228z"/>
					<path class="st16" d="M149.1,226.1L149.1,226.1c-2.3,0.1-4.3-1.7-4.5-4l0,0c-0.1-2.3,1.7-4.3,4-4.5l0,0c2.3-0.1,4.3,1.7,4.5,4
						l0,0C153.2,224,151.4,226,149.1,226.1z"/>
					<path class="st16" d="M147,229.5c-0.1-1.8,1.2-3.3,3-3.4c1.8-0.1,3.3,1.2,3.4,3c0.1,1.8-1.2,3.3-3,3.4c0,0,0,0,0,0
						C148.6,232.6,147.1,231.2,147,229.5z"/>
					<circle class="st16" cx="148" cy="237" r="5.7"/>
					<path class="st16" d="M149.5,232.6c-0.1-1.6,1.1-2.9,2.7-3c1.6-0.1,2.9,1.1,3,2.7c0.1,1.5-1.1,2.9-2.7,3
						C150.9,235.4,149.6,234.3,149.5,232.6C149.5,232.7,149.5,232.7,149.5,232.6z"/>
					<path class="st16" d="M142.2,229c-0.1-2.6,1.8-4.8,4.4-4.9c2.6-0.1,4.8,1.8,4.9,4.4c0.1,2.6-1.8,4.8-4.4,4.9c0,0,0,0,0,0
						C144.6,233.5,142.4,231.6,142.2,229z"/>
					<path class="st16" d="M137.7,227.2c-0.1-1.8,1.2-3.3,3-3.4c1.8-0.1,3.3,1.2,3.4,3c0.1,1.8-1.2,3.3-3,3.4c0,0,0,0,0,0
						C139.3,230.3,137.8,229,137.7,227.2C137.7,227.2,137.7,227.2,137.7,227.2z"/>
					<path class="st16" d="M133.4,227.6c-0.1-2.1,1.5-3.9,3.6-4c2.1-0.1,3.9,1.5,4,3.6c0.1,2.1-1.5,3.9-3.6,4c0,0,0,0,0,0
						C135.3,231.4,133.5,229.7,133.4,227.6z"/>
					<path class="st32" d="M143.5,229.6c1.2,1,1.5,2.8,0.5,4c-1,1.2-2.8,1.5-4,0.5c-1.2-1-1.5-2.8-0.5-4c0,0,0,0,0,0
						C140.5,228.9,142.2,228.7,143.5,229.6z"/>
					<path class="st31" d="M142.9,230.4c0.8,0.6,1,1.8,0.3,2.6s-1.8,1-2.6,0.3s-1-1.8-0.3-2.6c0,0,0,0,0,0
						C140.9,229.9,142,229.8,142.9,230.4z"/>
					<path class="st29" d="M166.2,35.7h41.1c0.3,0,0.6,0.3,0.6,0.6v252.1c0,0.3-0.3,0.6-0.6,0.6h-41.1c-0.3,0-0.6-0.3-0.6-0.6V36.2
						C165.6,35.9,165.9,35.7,166.2,35.7z"/>
					<path class="st7" d="M160,279.3h55.6c4,0,7.3,3.3,7.3,7.3v1.5c0,4-3.3,7.3-7.3,7.3H160c-4,0-7.3-3.3-7.3-7.3v-1.5
						C152.7,282.6,155.9,279.3,160,279.3z"/>
					<path class="st7" d="M176.8,52.2L176.8,52.2c1.2,0,2.2,1,2.2,2.2v215.3c0,1.2-1,2.2-2.2,2.2l0,0c-1.2,0-2.2-1-2.2-2.2V54.4
						C174.6,53.2,175.6,52.2,176.8,52.2z"/>
					<path class="st7" d="M187.2,52.2L187.2,52.2c1.2,0,2.2,1,2.2,2.2v215.3c0,1.2-1,2.2-2.2,2.2l0,0c-1.2,0-2.2-1-2.2-2.2V54.4
						C185,53.2,185.9,52.2,187.2,52.2z"/>
					<path class="st7" d="M198.1,52.2L198.1,52.2c1.2,0,2.2,1,2.2,2.2v215.3c0,1.2-1,2.2-2.2,2.2l0,0c-1.2,0-2.2-1-2.2-2.2V54.4
						C195.9,53.2,196.9,52.2,198.1,52.2z"/>
					<rect x="165.6" y="35.7" class="st30" width="42.3" height="12.6"/>
					<circle class="st32" cx="184.2" cy="257.6" r="14.3"/>
					<circle class="st25" cx="184.2" cy="257.6" r="12.5"/>
					<path class="st18" d="M190.9,266.2l-6.6-4.8l-6.6,4.8l2.5-7.8l-6.6-4.8h8.2l2.5-7.8l2.5,7.8h8.2l-6.6,4.8L190.9,266.2z
						 M175.1,254.1l5.7,4.1l-2.2,6.7l5.7-4.1l5.7,4.1l-2.2-6.7l5.7-4.1h-7l-2.2-6.7l-2.2,6.7H175.1z"/>
					<path class="st18" d="M184.2,261.4l-4.1-3l1.6-4.8h5.1l1.6,4.8L184.2,261.4z M180.7,258.2l3.5,2.6l3.5-2.6l-1.3-4.1h-4.3
						L180.7,258.2z"/>
					<path class="st32" d="M198.6,211.8c0,7.9-6.4,14.3-14.3,14.3s-14.3-6.4-14.3-14.3c0-7.9,6.4-14.3,14.3-14.3l0,0
						C192.2,197.5,198.6,203.9,198.6,211.8z"/>
					<circle class="st25" cx="184.3" cy="211.8" r="12.5"/>
					<path class="st18" d="M190.9,220.3l-6.6-4.8l-6.6,4.8l2.5-7.8l-6.6-4.8h8.2l2.5-7.8l2.5,7.8h8.2l-6.6,4.8L190.9,220.3z
						 M175.1,208.2l5.7,4.1l-2.2,6.7l5.7-4.1l5.7,4.1l-2.2-6.7l5.7-4.1h-7l-2.2-6.7l-2.2,6.7L175.1,208.2z"/>
					<path class="st18" d="M184.2,215.5l-4.1-3l1.6-4.8h5.1l1.6,4.8L184.2,215.5z M180.7,212.3l3.5,2.6l3.5-2.6l-1.3-4.1h-4.3
						L180.7,212.3z"/>
					<circle class="st32" cx="184.2" cy="165.9" r="14.3"/>
					<circle class="st25" cx="184.2" cy="165.9" r="12.5"/>
					<path class="st18" d="M190.9,174.4l-6.6-4.8l-6.6,4.8l2.5-7.8l-6.6-4.8h8.2l2.5-7.8l2.5,7.8h8.2l-6.6,4.8L190.9,174.4z
						 M175.1,162.3l5.7,4.1l-2.2,6.7l5.7-4.1l5.7,4.1l-2.2-6.7l5.7-4.1h-7l-2.2-6.7l-2.2,6.7H175.1z"/>
					<path class="st18" d="M184.2,169.6l-4.1-3l1.6-4.8h5.1l1.6,4.8L184.2,169.6z M180.7,166.5l3.5,2.6l3.5-2.6l-1.3-4.1h-4.3
						L180.7,166.5z"/>
					<circle class="st32" cx="184.3" cy="120" r="14.3"/>
					<circle class="st25" cx="184.2" cy="120.1" r="12.5"/>
					<path class="st18" d="M190.9,128.6l-6.6-4.8l-6.6,4.8l2.5-7.8l-6.6-4.8h8.2l2.5-7.8l2.5,7.8h8.2l-6.6,4.8L190.9,128.6z
						 M175.1,116.5l5.7,4.1l-2.2,6.7l5.7-4.1l5.7,4.1l-2.2-6.7l5.7-4.1h-7l-2.2-6.7l-2.2,6.7H175.1z"/>
					<path class="st18" d="M184.2,123.8l-4.1-3l1.6-4.8h5.1l1.6,4.8L184.2,123.8z M180.7,120.6l3.5,2.6l3.5-2.6l-1.3-4.1h-4.3
						L180.7,120.6z"/>
					<circle class="st32" cx="184.3" cy="74.2" r="14.3"/>
					<circle class="st25" cx="184.2" cy="74.2" r="12.5"/>
					<path class="st18" d="M190.9,82.7l-6.6-4.8l-6.6,4.8l2.5-7.8l-6.6-4.8h8.2l2.5-7.8l2.5,7.8h8.2l-6.6,4.8L190.9,82.7z
						 M175.1,70.6l5.7,4.1l-2.2,6.7l5.7-4.1l5.7,4.1l-2.2-6.7l5.7-4.1h-7l-2.2-6.7l-2.2,6.7H175.1z"/>
					<path class="st18" d="M184.2,77.9l-4.1-3l1.6-4.8h5.1l1.6,4.8L184.2,77.9z M180.7,74.7l3.5,2.6l3.5-2.6l-1.3-4.1h-4.3
						L180.7,74.7z"/>
					<circle class="st32" cx="52.1" cy="257.6" r="14.3"/>
					<circle class="st25" cx="52.1" cy="257.6" r="12.5"/>
					<path class="st18" d="M58.7,266.2l-6.6-4.8l-6.6,4.8l2.5-7.8l-6.6-4.8h8.2l2.5-7.8l2.5,7.8h8.2l-6.6,4.8L58.7,266.2z
						 M42.9,254.1l5.7,4.1l-2.2,6.7l5.7-4.1l5.7,4.1l-2.2-6.7l5.7-4.1h-7l-2.2-6.7l-2.2,6.7L42.9,254.1z"/>
					<path class="st18" d="M52.1,261.4l-4.1-3l1.6-4.8h5.1l1.6,4.8L52.1,261.4z M48.6,258.2l3.5,2.6l3.5-2.6l-1.3-4.1h-4.3
						L48.6,258.2z"/>
					<path class="st32" d="M66.4,211.8c0,7.9-6.4,14.3-14.3,14.3s-14.3-6.4-14.3-14.3c0-7.9,6.4-14.3,14.3-14.3l0,0
						C60,197.5,66.4,203.9,66.4,211.8z"/>
					<circle class="st25" cx="52.1" cy="211.8" r="12.5"/>
					<path class="st18" d="M58.7,220.3l-6.6-4.8l-6.6,4.8l2.5-7.8l-6.6-4.8h8.2l2.5-7.8l2.5,7.8h8.2l-6.6,4.8L58.7,220.3z
						 M42.9,208.2l5.7,4.1l-2.2,6.7l5.7-4.1l5.7,4.1l-2.2-6.7l5.7-4.1h-7l-2.2-6.7l-2.2,6.7L42.9,208.2z"/>
					<path class="st18" d="M52.1,215.5l-4.1-3l1.6-4.8h5.1l1.6,4.8L52.1,215.5z M48.6,212.3l3.5,2.6l3.5-2.6l-1.3-4.1h-4.3
						L48.6,212.3z"/>
					<circle class="st32" cx="52.1" cy="165.9" r="14.3"/>
					<circle class="st25" cx="52.1" cy="165.9" r="12.5"/>
					<path class="st18" d="M58.7,174.4l-6.6-4.8l-6.6,4.8l2.5-7.8l-6.6-4.8h8.2l2.5-7.8l2.5,7.8h8.2l-6.6,4.8L58.7,174.4z
						 M42.9,162.3l5.7,4.1l-2.2,6.7l5.7-4.1l5.7,4.1l-2.2-6.7l5.7-4.1h-7l-2.2-6.7l-2.2,6.7L42.9,162.3z"/>
					<path class="st18" d="M52.1,169.6l-4.1-3l1.6-4.8h5.1l1.6,4.8L52.1,169.6z M48.6,166.5l3.5,2.5l3.5-2.6l-1.3-4.1h-4.3
						L48.6,166.5z"/>
					<circle class="st32" cx="52.1" cy="120.1" r="14.3"/>
					<circle class="st25" cx="52.1" cy="120.1" r="12.5"/>
					<path class="st18" d="M58.7,128.6l-6.6-4.8l-6.6,4.8l2.5-7.8l-6.6-4.8h8.2l2.5-7.8l2.5,7.8h8.2l-6.6,4.8L58.7,128.6z
						 M42.9,116.5l5.7,4.1l-2.2,6.7l5.7-4.1l5.7,4.1l-2.2-6.7l5.7-4.1h-7l-2.2-6.7l-2.2,6.7H42.9z"/>
					<path class="st18" d="M52.1,123.8l-4.1-3l1.6-4.8h5.1l1.6,4.8L52.1,123.8z M48.6,120.6l3.5,2.6l3.5-2.6l-1.3-4.1h-4.3
						L48.6,120.6z"/>
					<path class="st13" d="M137,279.7h-14c-1.1,0-1.9-0.9-1.9-1.9l0,0c0-1,0.9-1.9,1.9-1.9h14c1.1,0,1.9,0.8,1.9,1.9l0,0
						C138.9,278.8,138.1,279.7,137,279.7z"/>
					<circle class="st32" cx="52.1" cy="74.2" r="14.3"/>
					<circle class="st25" cx="52.1" cy="74.2" r="12.5"/>
					<path class="st18" d="M58.7,82.7l-6.6-4.8l-6.6,4.8l2.5-7.8l-6.6-4.8h8.2l2.5-7.8l2.5,7.8h8.2l-6.6,4.8L58.7,82.7z M42.9,70.6
						l5.7,4.1l-2.2,6.7l5.7-4.1l5.7,4.1l-2.2-6.7l5.7-4.1h-7l-2.2-6.7l-2.2,6.7H42.9z"/>
					<path class="st18" d="M52.1,77.9l-4.1-3l1.6-4.8h5.1l1.6,4.8L52.1,77.9z M48.6,74.7l3.5,2.6l3.5-2.6l-1.3-4.1h-4.3L48.6,74.7z"
						/>
					<rect x="40.6" y="36" class="st15" width="155.7" height="258.6"/>
					<path class="st14" d="M114.4,53.9c1.1,0.3,2.3,0.1,3.4-0.4c0.5-0.3,1-0.7,1.4-1.1c0.1-0.1,0.1-0.2,0-0.3c0,0-0.1-0.1-0.1-0.1
						l-0.7-0.1c0.5-0.4,0.9-0.9,1.2-1.5c0.2-0.4,0.4-0.7,0.5-1c0.1-0.1,0-0.3-0.1-0.3c0,0-0.1,0-0.1,0h-0.2l1.5-2.1
						c-1.2-0.1-2.5-0.1-3.7,0.1c-0.7,0.1-1.3,0.4-1.9,0.8l0.1-0.8c0-0.2-0.1-0.3-0.3-0.3c0,0-0.1,0-0.1,0c-0.6,0.3-1.7,1.1-2.8,3.6
						C111,54,114.4,53.9,114.4,53.9z"/>
					<path class="st36" d="M112.5,50.3c1-2.5,2.2-3.3,2.8-3.6c0.2-0.1,0.3,0,0.4,0.2c0,0,0,0.1,0,0.1l-0.1,0.8
						c0.6-0.4,1.2-0.7,1.9-0.8c1.2-0.2,2.5-0.2,3.7-0.1c-3.2,1.4-6.2,3.4-8.8,5.8C112,52,112.1,51.1,112.5,50.3z"/>
					<path class="st37" d="M111.3,65.4c0.3,1.3-0.5,2.6-1.7,2.9c-1.3,0.3-2.6-0.5-2.9-1.7c0-0.1,0-0.2,0-0.2
						c-0.3-1.3,0.5-2.6,1.7-2.9c1.3-0.3,2.6,0.5,2.9,1.7C111.3,65.3,111.3,65.4,111.3,65.4z"/>
					<g class="st38">
						<path class="st37" d="M111.2,64.9c0,0.1,0,0.1,0,0.2c0.2,1-0.4,1.9-1.4,2.1s-1.9-0.4-2.1-1.4s0.4-1.9,1.4-2.1c0,0,0,0,0,0
							c0.3-0.1,0.6,0,0.9,0c-1.2-0.5-2.6,0-3.1,1.1c-0.2,0.5-0.3,1-0.2,1.4c0.2,1.3,1.4,2.2,2.7,2s2.2-1.4,2-2.7c0-0.1,0-0.2,0-0.2
							C111.3,65.3,111.2,65.1,111.2,64.9z"/>
					</g>
					<path class="st37" d="M116.9,60.6c0.3,1.4-0.6,2.7-2,3c-1.4,0.3-2.7-0.6-3-2c-0.3-1.4,0.6-2.7,2-3
						C115.2,58.3,116.6,59.2,116.9,60.6C116.9,60.6,116.9,60.6,116.9,60.6z"/>
					<g class="st38">
						<path class="st37" d="M116.7,60c0,0.1,0,0.1,0,0.2c0.2,1-0.5,2-1.5,2.2c-1,0.2-2-0.5-2.2-1.5c-0.2-1,0.5-2,1.5-2.2
							c0.3-0.1,0.6,0,0.9,0.1c-1.3-0.6-2.8,0-3.4,1.3s0,2.8,1.3,3.4c1.3,0.6,2.8,0,3.4-1.3c0.2-0.5,0.3-1,0.2-1.5
							C116.8,60.4,116.8,60.2,116.7,60z"/>
					</g>
					<path class="st37" d="M119.4,57.2c0.3,1.5-0.7,3-2.2,3.3c-1.5,0.3-3-0.7-3.3-2.2s0.7-3,2.2-3.3c0,0,0,0,0,0
						C117.6,54.7,119.1,55.7,119.4,57.2z"/>
					<g class="st38">
						<path class="st37" d="M119.2,56.6c0,0.1,0,0.1,0,0.2c0.2,1.2-0.5,2.3-1.7,2.5c-1.2,0.2-2.3-0.5-2.5-1.7
							c-0.2-1.1,0.5-2.3,1.7-2.5c0.3-0.1,0.7,0,1,0.1c-1.4-0.6-3.1,0-3.7,1.4s0,3.1,1.4,3.7c1.4,0.6,3.1,0,3.7-1.4
							c0.2-0.5,0.3-1.2,0.2-1.7C119.3,57,119.3,56.8,119.2,56.6z"/>
					</g>
					<path class="st14" d="M112.6,51.6c0,0-0.6-3.2,0.4-5.1c0.5-1,1.4-1.7,2.4-2c0.3-0.1,0.6,0.1,0.8,0.4l0,0c0.1,0.3,0,0.6-0.3,0.8
						c-1,0.4-1.8,1.1-2.1,2.2c-0.4,1.8-0.6,3.8-0.7,3.8S112.6,51.6,112.6,51.6z"/>
					<path class="st36" d="M112.9,47.9c0.5-1.5,1.6-2.7,3.1-3.3c-0.2-0.1-0.4-0.2-0.6-0.1c-1,0.3-1.9,1-2.4,2
						c-1.1,1.9-0.4,5.1-0.4,5.1l0.3,0.1C112.6,50.5,112.6,49.2,112.9,47.9z"/>
					<path class="st37" d="M111.8,50.8c0.2,1.3-0.6,2.5-1.9,2.8s-2.5-0.6-2.8-1.9c-0.2-1.3,0.6-2.5,1.9-2.8c0,0,0,0,0,0
						C110.3,48.7,111.6,49.5,111.8,50.8C111.8,50.8,111.8,50.8,111.8,50.8z"/>
					<g class="st38">
						<path class="st37" d="M111.7,50.3c0,0.1,0,0.1,0,0.2c0.2,1-0.4,1.9-1.4,2.1c-1,0.2-1.9-0.4-2.1-1.4c-0.2-1,0.4-1.9,1.4-2.1
							c0.3-0.1,0.6-0.1,0.9,0c-0.4-0.2-0.9-0.3-1.4-0.2c-1.3,0.2-2.1,1.5-1.9,2.8s1.5,2.1,2.8,1.9c1.3-0.2,2.1-1.5,1.9-2.8
							c0,0,0,0,0,0C111.8,50.6,111.7,50.4,111.7,50.3z"/>
					</g>
					<path class="st37" d="M115.3,51.9c0.2,1.3-0.6,2.5-1.9,2.8c-1.3,0.2-2.5-0.6-2.8-1.9c-0.2-1.3,0.6-2.5,1.9-2.8
						C113.8,49.8,115,50.6,115.3,51.9C115.3,51.9,115.3,51.9,115.3,51.9z"/>
					<g class="st38">
						<path class="st37" d="M115.1,51.4c0,0.1,0,0.1,0,0.2c0.2,1-0.4,1.9-1.4,2.1c-1,0.2-1.9-0.4-2.1-1.4c-0.2-1,0.4-1.9,1.4-2.1
							c0.3-0.1,0.6,0,0.8,0c-1.2-0.5-2.6,0-3.1,1.2c-0.5,1.2,0,2.6,1.2,3.1c1.2,0.5,2.6,0,3.1-1.2c0.2-0.4,0.3-0.9,0.2-1.4
							C115.2,51.7,115.2,51.5,115.1,51.4z"/>
					</g>
					<path class="st37" d="M118.4,52.9c0.2,1.3-0.6,2.5-1.9,2.8s-2.5-0.6-2.8-1.9c-0.2-1.3,0.6-2.5,1.9-2.8c0,0,0,0,0,0
						C116.9,50.8,118.1,51.6,118.4,52.9z"/>
					<g class="st38">
						<path class="st37" d="M118.2,52.3c0,0.1,0,0.1,0,0.2c0.2,1-0.4,1.9-1.4,2.1c-1,0.2-1.9-0.4-2.1-1.4c-0.2-1,0.4-1.9,1.4-2.1
							c0,0,0,0,0,0c0.3-0.1,0.6,0,0.8,0c-0.4-0.2-0.9-0.3-1.4-0.2c-0.9,0.2-1.7,0.9-1.9,1.8c-0.1,0.3-0.1,0.6,0,0.9
							c0.2,1.3,1.5,2.1,2.8,1.9c1.3-0.2,2.1-1.5,1.9-2.8l0,0C118.3,52.7,118.3,52.5,118.2,52.3z"/>
					</g>
					<path class="st37" d="M109.9,62.1c0.2,1.3-0.6,2.5-1.9,2.8c-1.3,0.2-2.5-0.6-2.8-1.9c-0.2-1.3,0.6-2.5,1.9-2.8c0,0,0,0,0,0
						C108.4,60,109.7,60.8,109.9,62.1C109.9,62.1,109.9,62.1,109.9,62.1z"/>
					<g class="st38">
						<path class="st37" d="M109.8,61.6c0,0.1,0,0.1,0,0.2c0.2,1-0.5,1.9-1.4,2c-1,0.2-1.9-0.5-2-1.4c-0.2-1,0.5-1.9,1.4-2
							c0.3,0,0.6,0,0.8,0c-0.4-0.2-0.9-0.3-1.4-0.2c-1.3,0.2-2.1,1.5-1.9,2.8c0.2,1.3,1.5,2.1,2.8,1.9c1.3-0.2,2.1-1.5,1.9-2.8
							c0,0,0,0,0,0C109.9,61.9,109.8,61.8,109.8,61.6z"/>
					</g>
					<path class="st37" d="M114,63.2c0.2,1.3-0.6,2.5-1.9,2.8c-1.3,0.2-2.5-0.6-2.8-1.9c-0.2-1.3,0.6-2.5,1.9-2.8c0,0,0,0,0,0
						C112.5,61.1,113.8,61.9,114,63.2z"/>
					<g class="st38">
						<path class="st37" d="M113.8,62.7c0,0.1,0,0.1,0,0.2c0.2,1-0.4,1.9-1.4,2.1c-1,0.2-1.9-0.4-2.1-1.4c-0.2-1,0.4-1.9,1.4-2.1
							c0.3-0.1,0.6-0.1,0.8,0c-1.2-0.5-2.6,0-3.1,1.2c-0.5,1.2,0,2.6,1.2,3.1c1.2,0.5,2.6,0,3.1-1.2c0.2-0.4,0.3-0.9,0.2-1.4
							C113.9,63,113.9,62.8,113.8,62.7z"/>
					</g>
					<path class="st37" d="M109.2,58.2c0.3,1.4-0.6,2.7-2,3c-1.4,0.3-2.7-0.6-3-2s0.6-2.7,2-3c0,0,0,0,0,0
						C107.6,56,108.9,56.9,109.2,58.2z"/>
					<g class="st38">
						<path class="st37" d="M109,57.7c0,0.1,0,0.1,0,0.2c0.2,1-0.5,2-1.5,2.2c-1,0.2-2-0.5-2.2-1.5c-0.2-1,0.5-2,1.5-2.2
							c0.3-0.1,0.6,0,0.9,0.1c-1.3-0.6-2.8,0-3.4,1.2c-0.2,0.5-0.3,1-0.2,1.6c0.2,1.4,1.6,2.3,3,2.1c1.4-0.2,2.3-1.6,2.1-3
							c0,0,0-0.1,0-0.1C109.1,58,109.1,57.8,109,57.7z"/>
					</g>
					<path class="st37" d="M113.1,59.5c0.3,1.4-0.6,2.7-2,3c-1.4,0.3-2.7-0.6-3-2s0.6-2.7,2-3c0,0,0,0,0,0
						C111.5,57.3,112.8,58.2,113.1,59.5z"/>
					<g class="st38">
						<path class="st37" d="M112.9,59c0,0.1,0,0.1,0,0.2c0.2,1-0.5,2.1-1.5,2.3c-1,0.2-2.1-0.5-2.3-1.5c-0.2-1,0.5-2.1,1.5-2.3
							c0.3-0.1,0.7,0,1,0.1c-0.5-0.2-1-0.3-1.5-0.2c-1.4,0.3-2.3,1.6-2,3c0.3,1.4,1.6,2.3,3,2c1.4-0.3,2.3-1.6,2-3c0,0,0,0,0,0
							C113,59.4,113,59.2,112.9,59z"/>
					</g>
					<path class="st37" d="M116.8,56.4c0.3,1.5-0.7,3-2.3,3.3c-1.5,0.3-3-0.7-3.3-2.3c-0.3-1.5,0.7-3,2.2-3.3
						C115,53.8,116.5,54.8,116.8,56.4z"/>
					<g class="st38">
						<path class="st37" d="M116.6,55.7c0,0.1,0,0.1,0.1,0.2c0.2,1.2-0.5,2.3-1.7,2.5c-1.2,0.2-2.3-0.5-2.5-1.7
							c-0.2-1.1,0.5-2.3,1.7-2.5c0.3-0.1,0.7,0,1,0.1c-0.5-0.2-1.1-0.3-1.7-0.2c-1.5,0.3-2.5,1.8-2.2,3.3s1.8,2.5,3.3,2.2
							c1.5-0.3,2.5-1.8,2.2-3.3C116.7,56.2,116.7,55.9,116.6,55.7z"/>
					</g>
					<path class="st37" d="M109.6,53.8c0.3,1.5-0.7,3-2.2,3.3s-3-0.7-3.3-2.2c-0.3-1.5,0.7-3,2.2-3.3c0,0,0,0,0,0
						C107.8,51.2,109.3,52.2,109.6,53.8C109.6,53.8,109.6,53.8,109.6,53.8z"/>
					<g class="st38">
						<path class="st37" d="M109.4,53.2c0,0.1,0,0.1,0.1,0.2c0.2,1.1-0.5,2.3-1.7,2.5c-1.1,0.2-2.3-0.5-2.5-1.7s0.5-2.3,1.7-2.5
							c0,0,0,0,0.1,0c0.3-0.1,0.7,0,1,0.1c-0.5-0.3-1.1-0.3-1.7-0.2c-1.5,0.3-2.5,1.8-2.2,3.3c0.3,1.5,1.8,2.5,3.3,2.2
							s2.5-1.8,2.2-3.3c0,0,0,0,0,0C109.6,53.6,109.5,53.3,109.4,53.2z"/>
					</g>
					<path class="st37" d="M113.4,55.2c0.3,1.5-0.7,3-2.2,3.4c-1.5,0.3-3-0.7-3.4-2.2c-0.3-1.5,0.7-3,2.2-3.4c0,0,0,0,0,0
						C111.7,52.7,113.1,53.7,113.4,55.2z"/>
					<g class="st38">
						<path class="st37" d="M113.2,54.6l0.1,0.2c0.2,1.1-0.5,2.3-1.7,2.5c-1.1,0.2-2.3-0.5-2.5-1.7c-0.2-1.1,0.5-2.3,1.7-2.5
							c0.3-0.1,0.7,0,1,0.1c-0.5-0.3-1.1-0.3-1.7-0.2c-1.5,0.3-2.5,1.8-2.2,3.3c0.3,1.5,1.8,2.5,3.3,2.2s2.5-1.8,2.2-3.3
							c0,0,0,0,0,0C113.4,55,113.3,54.8,113.2,54.6z"/>
					</g>
					<g class="st39">
						<path class="st7" d="M111.1,50.3c0,0.1-0.1,0.2-0.2,0.2c-0.1,0-0.2-0.1-0.2-0.2c0-0.2-0.1-0.4-0.2-0.5h-0.1h-0.1h-0.1l0,0l0,0
							c-0.1,0-0.1-0.1-0.1-0.2c0,0,0,0,0,0c0-0.1,0.1-0.1,0.2-0.1c0,0,0,0,0,0l0,0c0.2,0,0.3,0,0.4,0.2l0,0
							C111,49.9,111.1,50.1,111.1,50.3z M113.9,50.5c-0.5-0.1-0.9,0.1-1.2,0.4c-0.1,0.2,0.1,0.3,0.3,0.2c0.2-0.3,0.6-0.4,0.9-0.3
							C114.1,50.9,114.2,50.5,113.9,50.5L113.9,50.5z M116.4,51.4c-0.5,0.1-0.9,0.6-1,1.1c0,0.1,0.1,0.2,0.2,0.2
							c0.1,0,0.2-0.1,0.2-0.2c0-0.4,0.3-0.7,0.7-0.8C116.7,51.7,116.6,51.4,116.4,51.4z M115,54.6c-0.2-0.1-0.3,0.2-0.1,0.3
							c0.3,0.2,0.5,0.5,0.5,0.9c0,0.2,0.3,0.2,0.3,0C115.7,55.2,115.5,54.8,115,54.6z M112.1,54.2c-0.6-0.2-1.4-0.1-1.8,0.4
							c-0.1,0.2,0.1,0.3,0.3,0.2c0.4-0.4,0.9-0.5,1.4-0.3C112.2,54.5,112.3,54.2,112.1,54.2L112.1,54.2z M107.1,52.2
							c-0.7,0.2-1,1-0.8,1.6c0.1,0.2,0.4,0.1,0.3-0.1c-0.1-0.5,0.1-1,0.6-1.2C107.4,52.4,107.3,52.1,107.1,52.2L107.1,52.2z
							 M118.3,56c-0.1-0.1-0.2,0-0.2,0c-0.1,0.1,0,0.2,0,0.2c0.2,0.2,0.3,0.4,0.2,0.7c0,0.2,0.3,0.2,0.3,0
							C118.8,56.6,118.6,56.2,118.3,56z M114.6,61.7c-0.4-0.1-0.7-0.5-0.6-0.9c0,0,0,0,0-0.1c0-0.2-0.3-0.2-0.3,0
							c-0.1,0.6,0.3,1.2,0.9,1.3c0,0,0,0,0,0C114.8,62,114.8,61.6,114.6,61.7L114.6,61.7z M110.3,60.2c-0.3-0.2-0.4-0.6-0.4-0.9
							c0-0.2-0.3-0.2-0.3,0c-0.1,0.6,0.2,1.2,0.8,1.4c0.1,0,0.2,0,0.2-0.1c0,0,0-0.1,0-0.1v-0.2c0-0.1,0-0.2-0.1-0.2
							S110.3,60.1,110.3,60.2L110.3,60.2z M106.4,59.1c-0.4-0.2-0.5-0.6-0.4-0.9c0,0,0-0.1,0-0.1c0.1-0.2-0.2-0.4-0.3-0.2
							c-0.3,0.5-0.2,1.1,0.3,1.4c0.1,0,0.1,0.1,0.2,0.1c0.1,0,0.2,0,0.2-0.1C106.5,59.2,106.5,59.1,106.4,59.1L106.4,59.1
							L106.4,59.1z M107.9,63c-0.4-0.1-0.6-0.4-0.5-0.8c0,0,0,0,0,0c0-0.2-0.2-0.3-0.3-0.1c-0.2,0.5,0.2,1.1,0.7,1.2
							c0,0,0.1,0,0.1,0C108,63.3,108.1,63,107.9,63z M109.6,66c-0.4-0.1-0.7-0.3-0.8-0.7c-0.1-0.2-0.4-0.2-0.3,0
							c0.1,0.5,0.5,0.9,1.1,1C109.6,66.3,109.6,66.2,109.6,66C109.6,66.1,109.6,66,109.6,66z"/>
					</g>
					<path class="st14" d="M149.9,47.5c1.4,0.3,2.8,0.2,4.1-0.5c0.6-0.4,1.2-0.8,1.7-1.3c0.1-0.1,0.1-0.3,0-0.4c0,0-0.1-0.1-0.2-0.1
						l-0.8-0.1c0.6-0.5,1-1.1,1.4-1.8c0.3-0.5,0.4-0.9,0.6-1.1c0.1-0.1,0-0.3-0.1-0.4c-0.1,0-0.1,0-0.2,0h-0.2l1.8-2.6
						c-1.5-0.2-3-0.1-4.4,0.1c-0.8,0.1-1.6,0.5-2.3,0.9l0.1-1c0-0.2-0.1-0.3-0.3-0.4c-0.1,0-0.1,0-0.2,0c-0.7,0.3-2,1.2-3.3,4.3
						C145.8,47.6,149.9,47.5,149.9,47.5z"/>
					<path class="st36" d="M147.6,43.3c1.2-3,2.6-4,3.3-4.3c0.2-0.1,0.4,0,0.4,0.2c0,0.1,0,0.1,0,0.2l-0.1,1
						c0.7-0.5,1.5-0.8,2.3-0.9c1.5-0.2,2.9-0.2,4.4-0.1c0,0-6.4,2.8-10.5,7C147,45.3,147.1,44.2,147.6,43.3z"/>
					<path class="st37" d="M146.2,61.3c0.3,1.5-0.7,3-2.2,3.3c-1.5,0.3-3-0.7-3.3-2.2c-0.3-1.5,0.7-3,2.2-3.3c0,0,0,0,0,0
						C144.4,58.8,145.9,59.8,146.2,61.3z"/>
					<g class="st38">
						<path class="st37" d="M146,60.7c0,0.1,0,0.1,0.1,0.2c0.2,1.2-0.5,2.3-1.7,2.5c-1.2,0.2-2.3-0.5-2.5-1.7
							c-0.2-1.1,0.5-2.2,1.7-2.5c0.3-0.1,0.7,0,1,0.1c-1.4-0.6-3.1,0-3.7,1.4c-0.6,1.4,0,3.1,1.4,3.7c1.4,0.6,3.1,0,3.7-1.4
							c0.2-0.5,0.3-1.2,0.2-1.7C146.1,61.1,146.1,60.9,146,60.7z"/>
					</g>
					<path class="st37" d="M152.8,55.5c0.3,1.6-0.8,3.2-2.4,3.5c-1.6,0.3-3.2-0.8-3.5-2.4c-0.3-1.6,0.8-3.1,2.3-3.5
						C150.9,52.8,152.5,53.8,152.8,55.5C152.8,55.5,152.8,55.5,152.8,55.5z"/>
					<g class="st38">
						<path class="st37" d="M152.6,54.9c0,0.1,0,0.1,0.1,0.2c0.2,1.2-0.6,2.4-1.8,2.7s-2.4-0.6-2.7-1.8c-0.2-1.2,0.6-2.4,1.8-2.7
							c0,0,0,0,0,0c0.4-0.1,0.7,0,1.1,0.1c-1.5-0.7-3.3,0-4,1.5c-0.7,1.5,0,3.3,1.5,4c1.5,0.7,3.3,0,4-1.5c0.2-0.6,0.3-1.2,0.2-1.8
							C152.8,55.3,152.7,55.1,152.6,54.9z"/>
					</g>
					<path class="st37" d="M155.8,51.5c0.3,1.8-0.9,3.6-2.7,4c-1.8,0.3-3.6-0.9-4-2.7c-0.3-1.8,0.8-3.6,2.7-4
						C153.6,48.4,155.4,49.6,155.8,51.5C155.8,51.5,155.8,51.5,155.8,51.5z"/>
					<g class="st38">
						<path class="st37" d="M155.6,50.8c0,0.1,0,0.2,0.1,0.2c0.3,1.4-0.6,2.7-2,3c-1.4,0.3-2.7-0.6-3-2c-0.3-1.4,0.6-2.7,2-3
							c0.4-0.1,0.8-0.1,1.2,0.1c-0.6-0.3-1.3-0.4-2-0.2c-1.8,0.4-3,2.2-2.7,4c0.4,1.8,2.2,3,4,2.7c1.8-0.4,3-2.1,2.7-4
							C155.8,51.3,155.7,51,155.6,50.8z"/>
					</g>
					<path class="st14" d="M147.6,44.7c0,0-0.7-3.8,0.5-6.1c0.6-1.1,1.6-2,2.8-2.3c0.4-0.1,0.8,0.1,0.9,0.5l0,0
						c0.1,0.4-0.1,0.8-0.4,0.9c-1.2,0.4-2.1,1.4-2.5,2.6c-0.5,2.1-0.7,4.5-0.8,4.6S147.6,44.7,147.6,44.7z"/>
					<path class="st36" d="M148.1,40.4c0.6-1.8,1.9-3.2,3.7-3.9c-0.2-0.2-0.4-0.2-0.7-0.2c-1.2,0.4-2.3,1.2-2.9,2.3
						c-1.3,2.3-0.5,6.1-0.5,6.1l0.3,0.1C147.7,43.4,147.7,41.9,148.1,40.4z"/>
					<path class="st37" d="M146.8,43.8c0.3,1.5-0.7,3-2.3,3.3s-3-0.7-3.3-2.3c-0.3-1.5,0.7-3,2.2-3.3
						C145,41.3,146.5,42.3,146.8,43.8z"/>
					<g class="st38">
						<path class="st37" d="M146.6,43.2c0,0.1,0,0.1,0,0.2c0.2,1.1-0.5,2.2-1.7,2.5s-2.2-0.5-2.5-1.7c-0.2-1.1,0.5-2.2,1.7-2.5
							c0.3-0.1,0.7,0,1,0.1c-0.5-0.2-1.1-0.3-1.7-0.2c-1.5,0.3-2.5,1.8-2.3,3.3s1.8,2.5,3.3,2.3c1.5-0.3,2.5-1.8,2.3-3.3
							c0,0,0,0,0,0C146.7,43.6,146.6,43.4,146.6,43.2z"/>
					</g>
					<path class="st37" d="M150.9,45.1c0.3,1.5-0.7,3-2.2,3.3s-3-0.7-3.3-2.2c-0.3-1.5,0.7-3,2.2-3.3
						C149.1,42.6,150.6,43.6,150.9,45.1C150.9,45.1,150.9,45.1,150.9,45.1z"/>
					<g class="st38">
						<path class="st37" d="M150.7,44.5c0,0.1,0,0.1,0.1,0.2c0.2,1.1-0.6,2.2-1.7,2.4c-1.1,0.2-2.2-0.6-2.4-1.7
							c-0.2-1.1,0.6-2.2,1.7-2.4c0.3-0.1,0.7-0.1,1,0c-1.4-0.6-3.1,0-3.7,1.4s0,3.1,1.4,3.7c1.4,0.6,3.1,0,3.7-1.4
							c0.2-0.5,0.3-1.1,0.2-1.7C150.8,44.8,150.8,44.7,150.7,44.5z"/>
					</g>
					<path class="st37" d="M154.6,46.3c0.3,1.5-0.7,3-2.2,3.3s-3-0.7-3.3-2.2c-0.3-1.5,0.7-3,2.2-3.3
						C152.8,43.8,154.3,44.8,154.6,46.3C154.6,46.3,154.6,46.3,154.6,46.3z"/>
					<g class="st38">
						<path class="st37" d="M154.4,45.7l0.1,0.2c0.2,1.1-0.5,2.3-1.7,2.5c-1.1,0.2-2.3-0.5-2.5-1.7s0.5-2.3,1.7-2.5c0,0,0,0,0,0
							c0.3-0.1,0.7,0,1,0.1c-0.5-0.2-1.1-0.3-1.7-0.2c-1.1,0.2-2,1.1-2.2,2.2c-0.1,0.4-0.1,0.8,0,1.1c0.3,1.5,1.8,2.5,3.3,2.2
							c1.5-0.3,2.5-1.8,2.2-3.3l0,0C154.6,46.1,154.5,45.9,154.4,45.7z"/>
					</g>
					<path class="st37" d="M144.5,57.4c0.3,1.5-0.7,3-2.3,3.3c-1.5,0.3-3-0.7-3.3-2.3c-0.3-1.5,0.7-3,2.2-3.3
						C142.7,54.8,144.2,55.8,144.5,57.4C144.5,57.3,144.5,57.4,144.5,57.4z"/>
					<g class="st38">
						<path class="st37" d="M144.3,56.7c0,0.1,0,0.1,0,0.2c0.2,1.2-0.5,2.3-1.7,2.5c-1.2,0.2-2.3-0.5-2.5-1.7
							c-0.2-1.1,0.5-2.2,1.7-2.5c0.3-0.1,0.7,0,1,0.1c-1.4-0.6-3.1,0-3.7,1.4c-0.6,1.4,0,3.1,1.4,3.7s3.1,0,3.7-1.4
							c0.2-0.5,0.3-1.2,0.2-1.7C144.4,57.1,144.4,56.9,144.3,56.7z"/>
					</g>
					<path class="st37" d="M149.4,58.6c0.3,1.5-0.7,3-2.3,3.3c-1.5,0.3-3-0.7-3.3-2.3c-0.3-1.5,0.7-3,2.2-3.3
						C147.6,56.1,149.1,57.1,149.4,58.6C149.4,58.6,149.4,58.6,149.4,58.6z"/>
					<g class="st38">
						<path class="st37" d="M149.2,58l0.1,0.2c0.2,1.2-0.5,2.3-1.7,2.5c-1.2,0.2-2.3-0.5-2.5-1.7c-0.2-1.2,0.5-2.3,1.7-2.5
							c0,0,0,0,0,0c0.3-0.1,0.7,0,1,0.1c-1.4-0.6-3.1,0-3.7,1.4c-0.6,1.4,0,3.1,1.4,3.7s3.1,0,3.7-1.4c0.2-0.5,0.3-1.2,0.2-1.7
							C149.3,58.4,149.3,58.2,149.2,58z"/>
					</g>
					<path class="st37" d="M143.6,52.7c0.3,1.6-0.8,3.2-2.4,3.5c-1.6,0.3-3.2-0.8-3.5-2.4c-0.3-1.6,0.8-3.1,2.3-3.5
						C141.7,50,143.3,51,143.6,52.7C143.6,52.7,143.6,52.7,143.6,52.7z"/>
					<g class="st38">
						<path class="st37" d="M143.4,52c0,0.1,0,0.2,0.1,0.2c0.2,1.2-0.6,2.4-1.8,2.7s-2.4-0.6-2.7-1.8c-0.2-1.2,0.6-2.4,1.8-2.7
							c0.4-0.1,0.7,0,1.1,0.1c-0.6-0.3-1.2-0.3-1.8-0.2c-1.6,0.3-2.7,1.9-2.3,3.5c0.3,1.6,1.9,2.7,3.5,2.3c1.6-0.3,2.6-1.9,2.3-3.5
							C143.6,52.5,143.5,52.3,143.4,52z"/>
					</g>
					<path class="st37" d="M148.3,54.3c0.3,1.6-0.8,3.2-2.4,3.5s-3.2-0.8-3.5-2.4c-0.3-1.6,0.8-3.1,2.3-3.5
						C146.3,51.5,147.9,52.6,148.3,54.3C148.3,54.2,148.3,54.2,148.3,54.3z"/>
					<g class="st38">
						<path class="st37" d="M148.1,53.6l0.1,0.2c0.2,1.2-0.6,2.4-1.8,2.7c-1.2,0.2-2.4-0.6-2.7-1.8s0.6-2.4,1.8-2.7
							c0.4-0.1,0.8-0.1,1.1,0.1c-1.5-0.7-3.3,0-4,1.5c-0.7,1.5,0,3.3,1.5,4c1.5,0.7,3.3,0,4-1.5c0.3-0.6,0.3-1.2,0.2-1.8
							C148.2,54,148.2,53.8,148.1,53.6z"/>
					</g>
					<path class="st37" d="M152.7,50.5c0.3,1.8-0.9,3.6-2.7,3.9c-1.8,0.3-3.6-0.9-3.9-2.7c-0.3-1.8,0.8-3.6,2.6-3.9
						C150.5,47.4,152.3,48.6,152.7,50.5C152.7,50.5,152.7,50.5,152.7,50.5z"/>
					<g class="st38">
						<path class="st37" d="M152.4,49.7c0,0.1,0.1,0.2,0.1,0.3c0.2,1.4-0.7,2.7-2.1,2.9c-1.4,0.2-2.7-0.7-2.9-2.1
							c-0.2-1.4,0.7-2.7,2.1-2.9c0.4-0.1,0.8,0,1.2,0.1c-0.6-0.3-1.3-0.4-2-0.2c-1.8,0.4-3,2.2-2.7,4c0.4,1.8,2.2,3,4,2.7
							c1.8-0.4,3-2.1,2.7-4C152.7,50.2,152.6,49.9,152.4,49.7z"/>
					</g>
					<path class="st37" d="M144.1,47.4c0.3,1.8-0.9,3.6-2.7,4c-1.8,0.3-3.6-0.9-4-2.7c-0.3-1.8,0.8-3.6,2.7-4
						C141.9,44.3,143.7,45.5,144.1,47.4C144.1,47.3,144.1,47.4,144.1,47.4z"/>
					<g class="st38">
						<path class="st37" d="M143.9,46.6l0.1,0.3c0.2,1.4-0.7,2.7-2.1,2.9c-1.4,0.2-2.7-0.7-2.9-2.1c-0.2-1.4,0.7-2.7,2.1-2.9
							c0.4-0.1,0.8,0,1.2,0.1c-1.7-0.8-3.7,0-4.5,1.7c-0.8,1.7,0,3.7,1.7,4.5s3.7,0,4.5-1.7c0.3-0.6,0.4-1.3,0.2-2
							C144,47.1,144,46.9,143.9,46.6z"/>
					</g>
					<path class="st37" d="M148.7,49.1c0.3,1.8-0.9,3.6-2.7,4c-1.8,0.3-3.6-0.9-4-2.7c-0.3-1.8,0.8-3.6,2.7-4
						C146.5,46,148.3,47.2,148.7,49.1C148.7,49,148.7,49.1,148.7,49.1z"/>
					<g class="st38">
						<path class="st37" d="M148.5,48.3c0,0.1,0,0.2,0.1,0.2c0.3,1.4-0.6,2.7-2,3s-2.7-0.6-3-2c-0.3-1.4,0.6-2.7,2-3
							c0.4-0.1,0.8-0.1,1.2,0.1c-1.7-0.8-3.7,0-4.5,1.7c-0.8,1.7,0,3.7,1.7,4.5s3.7,0,4.5-1.7c0.3-0.6,0.4-1.3,0.2-2
							C148.6,48.8,148.6,48.6,148.5,48.3z"/>
					</g>
					<g class="st39">
						<path class="st7" d="M145.9,43.3c0,0.2-0.4,0.2-0.4,0c0-0.2-0.1-0.4-0.3-0.5h-0.1h-0.1l-0.1,0l0,0h-0.1
							c-0.1,0-0.1-0.1-0.1-0.2c0,0,0,0,0,0c0-0.1,0.1-0.1,0.2-0.1c0,0,0,0,0,0h0.1c0.2,0,0.4,0.1,0.5,0.2l0,0
							C145.8,42.7,145.9,43,145.9,43.3z M149.3,43.5c-0.5-0.1-1.1,0.1-1.4,0.5c-0.2,0.2,0.1,0.4,0.3,0.2c0.3-0.3,0.7-0.4,1.1-0.4
							C149.5,43.9,149.6,43.5,149.3,43.5z M152.3,44.6c-0.6,0.1-1.1,0.7-1.2,1.3c0,0.1,0.1,0.2,0.2,0.2s0.2-0.1,0.2-0.2
							c0-0.5,0.4-0.9,0.8-1C152.6,44.9,152.5,44.5,152.3,44.6L152.3,44.6z M150.6,48.3c-0.2-0.1-0.4,0.2-0.1,0.4
							c0.4,0.2,0.6,0.6,0.6,1c0,0.2,0.4,0.3,0.4,0C151.5,49.1,151.2,48.6,150.6,48.3L150.6,48.3z M147.2,47.8
							c-0.8-0.3-1.6-0.1-2.2,0.5c-0.2,0.2,0.1,0.4,0.3,0.2c0.4-0.5,1.1-0.6,1.7-0.4C147.2,48.3,147.4,47.9,147.2,47.8L147.2,47.8z
							 M141.2,45.5c-0.8,0.3-1.2,1.1-1,1.9c0.1,0.2,0.4,0.1,0.4-0.2c-0.2-0.6,0.2-1.2,0.8-1.4C141.5,45.8,141.4,45.4,141.2,45.5
							L141.2,45.5z M154.6,50c-0.1-0.1-0.2,0-0.3,0c-0.1,0.1,0,0.2,0,0.3c0.3,0.2,0.4,0.5,0.3,0.8c0,0.2,0.3,0.3,0.4,0
							C155.1,50.7,154.9,50.3,154.6,50z M150.1,56.8c-0.5-0.1-0.8-0.6-0.7-1.2c0.1-0.2-0.3-0.3-0.4,0c-0.1,0.7,0.3,1.4,1,1.6
							c0,0,0,0,0,0C150.3,57.2,150.4,56.8,150.1,56.8L150.1,56.8z M144.9,55c-0.4-0.3-0.5-0.7-0.5-1.1c0-0.2-0.3-0.3-0.4,0
							c-0.1,0.7,0.3,1.3,0.9,1.6c0.1,0,0.2,0,0.3-0.1c0,0,0-0.1,0-0.1v-0.2C145.2,55,145.1,54.9,144.9,55C145,55,145,55,144.9,55z
							 M140.3,53.7c-0.4-0.2-0.6-0.7-0.4-1.1c0,0,0,0,0-0.1c0.1-0.2-0.2-0.4-0.3-0.2c-0.4,0.6-0.2,1.3,0.4,1.7c0,0,0.1,0.1,0.1,0.1
							C140.4,54.2,140.5,53.8,140.3,53.7L140.3,53.7z M142,58.3c-0.4-0.1-0.7-0.5-0.6-1c0,0,0,0,0,0c0.1-0.2-0.3-0.4-0.4-0.1
							c-0.2,0.6,0.2,1.3,0.8,1.5c0,0,0.1,0,0.2,0C142.2,58.8,142.3,58.4,142,58.3z M144,62c-0.5,0-0.9-0.4-1-0.8
							c-0.1-0.2-0.4-0.2-0.4,0.1c0.2,0.7,0.7,1.1,1.4,1.2c0.1,0,0.2-0.1,0.2-0.2S144.2,62,144,62L144,62L144,62z"/>
					</g>
					<path class="st14" d="M85.7,47.6c0.9,0.2,1.8,0.1,2.6-0.3c0.4-0.2,0.7-0.5,1.1-0.8c0.1-0.1,0.1-0.2,0-0.2c0,0-0.1,0-0.1,0
						l-0.5-0.1c0.4-0.3,0.7-0.7,0.9-1.2c0.2-0.3,0.3-0.6,0.4-0.7c0-0.1,0-0.2-0.1-0.3c0,0-0.1,0-0.1,0h-0.2l1.2-1.7
						c-0.9-0.1-1.9-0.1-2.8,0c-0.5,0.1-1,0.3-1.4,0.6l0.1-0.6c0-0.1-0.1-0.2-0.2-0.2c0,0-0.1,0-0.1,0c-0.4,0.2-1.3,0.8-2.1,2.7
						C83.1,47.7,85.7,47.6,85.7,47.6z"/>
					<path class="st36" d="M84.3,44.9c0.8-1.9,1.6-2.5,2.1-2.7c0.1,0,0.2,0,0.3,0.1c0,0,0,0.1,0,0.1L86.6,43
						c0.4-0.3,0.9-0.5,1.4-0.6c0.9-0.1,1.9-0.1,2.8,0c-2.5,1.1-4.7,2.6-6.7,4.4C83.9,46.2,83.9,45.5,84.3,44.9z"/>
					<path class="st37" d="M83.4,56.3c0.2,1-0.5,1.9-1.4,2.1c-1,0.2-1.9-0.5-2.1-1.4c-0.2-1,0.4-1.9,1.4-2.1
						C82.3,54.7,83.2,55.4,83.4,56.3C83.4,56.3,83.4,56.3,83.4,56.3z"/>
					<g class="st38">
						<path class="st37" d="M83.2,56c0,0,0,0.1,0,0.1c0.1,0.7-0.4,1.4-1.1,1.5s-1.4-0.4-1.5-1.1c-0.1-0.7,0.4-1.4,1.1-1.5
							c0.2-0.1,0.4-0.1,0.7,0c-0.3-0.2-0.7-0.2-1.1-0.1c-1,0.2-1.6,1.1-1.4,2.1c0.2,1,1.1,1.6,2.1,1.4c1-0.2,1.6-1.1,1.4-2.1
							C83.3,56.2,83.3,56.1,83.2,56z"/>
					</g>
					<path class="st37" d="M87.6,52.7c0.2,1-0.5,2.1-1.5,2.3c-1,0.2-2.1-0.5-2.3-1.5c-0.2-1,0.5-2.1,1.5-2.3c0,0,0,0,0,0
						C86.4,50.9,87.4,51.6,87.6,52.7z"/>
					<g class="st38">
						<path class="st37" d="M87.4,52.3c0,0,0,0.1,0,0.1c0.2,0.8-0.4,1.5-1.1,1.7s-1.5-0.4-1.7-1.1c-0.2-0.8,0.4-1.5,1.1-1.7
							c0,0,0,0,0,0c0.2-0.1,0.5-0.1,0.7,0c-1-0.4-2.1,0-2.6,0.9c-0.4,1,0,2.1,0.9,2.6s2.1,0,2.6-0.9c0.2-0.4,0.2-0.8,0.1-1.2
							C87.5,52.5,87.5,52.4,87.4,52.3z"/>
					</g>
					<path class="st37" d="M89.5,50.1c0.2,1.2-0.5,2.3-1.7,2.5c-1.2,0.2-2.3-0.5-2.5-1.7c-0.2-1.2,0.5-2.3,1.7-2.5c0,0,0,0,0,0
						C88.2,48.2,89.3,49,89.5,50.1z"/>
					<g class="st38">
						<path class="st37" d="M89.3,49.7v0.2c0.2,0.9-0.4,1.7-1.3,1.9c-0.9,0.2-1.7-0.4-1.9-1.3c-0.2-0.9,0.4-1.7,1.3-1.9
							c0.3-0.1,0.5-0.1,0.8,0c-0.4-0.2-0.8-0.2-1.2-0.1c-1.2,0.2-1.9,1.3-1.7,2.5s1.3,1.9,2.5,1.7c1.2-0.2,1.9-1.3,1.7-2.5
							C89.5,50,89.4,49.8,89.3,49.7z"/>
					</g>
					<path class="st14" d="M84.3,45.8c-0.3-1.3-0.1-2.6,0.3-3.8c0.4-0.7,1-1.3,1.8-1.5c0.2-0.1,0.5,0.1,0.6,0.3l0,0
						c0.1,0.2,0,0.5-0.3,0.6c-0.8,0.3-1.4,0.8-1.6,1.6c-0.3,1.4-0.4,2.8-0.5,2.9S84.3,45.8,84.3,45.8z"/>
					<path class="st36" d="M84.6,43.1c0.4-1.1,1.2-2,2.3-2.5c-0.1-0.1-0.3-0.1-0.4-0.1c-0.8,0.2-1.4,0.8-1.8,1.5
						c-0.5,1.2-0.6,2.6-0.3,3.8l0.2,0.1C84.3,45,84.3,44,84.6,43.1z"/>
					<path class="st37" d="M83.8,45.3c0.2,1-0.4,1.9-1.4,2.1c-1,0.2-1.9-0.4-2.1-1.4c-0.2-1,0.4-1.9,1.4-2.1c0,0,0,0,0,0
						C82.6,43.7,83.6,44.3,83.8,45.3z"/>
					<g class="st38">
						<path class="st37" d="M83.6,44.9V45c0.1,0.7-0.3,1.4-1.1,1.6c-0.7,0.1-1.4-0.3-1.6-1.1s0.3-1.4,1.1-1.6c0,0,0,0,0,0
							c0.2-0.1,0.4-0.1,0.7,0c-0.9-0.4-2,0-2.4,0.9c-0.4,0.9,0,2,0.9,2.4c0.9,0.4,2,0,2.4-0.9c0.2-0.3,0.2-0.7,0.1-1.1
							C83.7,45.1,83.7,45,83.6,44.9z"/>
					</g>
					<path class="st37" d="M86.4,46.1c0.2,1-0.4,1.9-1.4,2.1c-1,0.2-1.9-0.4-2.1-1.4c-0.2-1,0.4-1.9,1.4-2.1c0,0,0,0,0,0
						C85.2,44.5,86.2,45.1,86.4,46.1C86.4,46.1,86.4,46.1,86.4,46.1z"/>
					<g class="st38">
						<path class="st37" d="M86.2,45.7v0.1c0.1,0.7-0.3,1.4-1.1,1.6c-0.7,0.1-1.4-0.3-1.6-1.1c-0.1-0.7,0.3-1.4,1.1-1.6
							c0.2,0,0.4,0,0.7,0c-0.3-0.2-0.7-0.2-1.1-0.1c-1,0.2-1.6,1.1-1.4,2.1c0.2,1,1.1,1.6,2.1,1.4c1-0.2,1.6-1.1,1.4-2.1
							c0,0,0,0,0,0C86.3,45.9,86.3,45.8,86.2,45.7z"/>
					</g>
					<path class="st37" d="M88.7,46.8c0.2,1-0.4,1.9-1.4,2.1c-1,0.2-1.9-0.4-2.1-1.4c-0.2-1,0.4-1.9,1.4-2.1c0,0,0,0,0,0
						C87.6,45.2,88.5,45.9,88.7,46.8z"/>
					<g class="st38">
						<path class="st37" d="M88.6,46.4c0,0,0,0.1,0,0.1c0.1,0.7-0.3,1.4-1.1,1.6c-0.7,0.1-1.4-0.3-1.6-1.1s0.3-1.4,1.1-1.6
							c0,0,0,0,0,0c0.2-0.1,0.4-0.1,0.7,0c-0.9-0.4-2,0-2.4,0.9c-0.1,0.1-0.1,0.2-0.1,0.4c0,0.2,0,0.5,0,0.7c0.1,1,1,1.7,2,1.5
							s1.7-1,1.5-2c0-0.1,0-0.1,0-0.2C88.7,46.7,88.6,46.5,88.6,46.4z"/>
					</g>
					<path class="st37" d="M82.3,53.8c0.2,1-0.5,1.9-1.4,2.1c-1,0.2-1.9-0.5-2.1-1.4c-0.2-1,0.4-1.9,1.4-2.1
						C81.2,52.2,82.1,52.8,82.3,53.8C82.3,53.8,82.3,53.8,82.3,53.8z"/>
					<g class="st38">
						<path class="st37" d="M82.2,53.4v0.1c0.1,0.7-0.3,1.4-1.1,1.6c-0.7,0.1-1.4-0.3-1.6-1.1c-0.1-0.7,0.3-1.4,1.1-1.6
							c0.2,0,0.4,0,0.7,0c-0.3-0.2-0.7-0.2-1.1-0.1c-1,0.2-1.6,1.1-1.4,2.1c0.2,1,1.1,1.6,2.1,1.4c1-0.2,1.6-1.1,1.4-2.1
							C82.3,53.7,82.2,53.6,82.2,53.4z"/>
					</g>
					<path class="st37" d="M85.4,54.6c0.2,1-0.5,1.9-1.4,2.1c-1,0.2-1.9-0.5-2.1-1.4c-0.2-1,0.5-1.9,1.4-2.1c0,0,0,0,0,0
						C84.3,53,85.2,53.7,85.4,54.6z"/>
					<g class="st38">
						<path class="st37" d="M85.3,54.2v0.1c0.1,0.7-0.3,1.4-1.1,1.6c-0.7,0.1-1.4-0.3-1.6-1.1c-0.1-0.7,0.3-1.4,1.1-1.6
							c0.2,0,0.4,0,0.7,0c-0.9-0.4-2,0-2.4,0.9c-0.4,0.9,0,2,0.9,2.4c0.9,0.4,2,0,2.4-0.9c0.2-0.3,0.2-0.7,0.1-1.1
							C85.3,54.5,85.3,54.4,85.3,54.2z"/>
					</g>
					<path class="st37" d="M81.7,50.9c0.2,1-0.5,2.1-1.5,2.3c-1,0.2-2.1-0.5-2.3-1.5c-0.2-1,0.5-2.1,1.5-2.3c0,0,0,0,0,0
						C80.5,49.2,81.5,49.8,81.7,50.9z"/>
					<g class="st38">
						<path class="st37" d="M81.6,50.5c0,0,0,0.1,0,0.1c0.2,0.8-0.3,1.6-1.1,1.7c-0.8,0.2-1.6-0.3-1.7-1.1c-0.2-0.8,0.3-1.6,1.1-1.7
							c0,0,0.1,0,0.1,0c0.2-0.1,0.5-0.1,0.7,0c-1-0.4-2.1,0-2.6,0.9c-0.4,1,0,2.1,0.9,2.6s2.1,0,2.6-0.9c0.2-0.4,0.2-0.8,0.1-1.2
							C81.7,50.7,81.7,50.6,81.6,50.5z"/>
					</g>
					<path class="st37" d="M84.7,51.9c0.2,1-0.5,2.1-1.5,2.3c-1,0.2-2.1-0.5-2.3-1.5c-0.2-1,0.5-2.1,1.5-2.3c0,0,0,0,0,0
						C83.5,50.1,84.5,50.8,84.7,51.9z"/>
					<g class="st38">
						<path class="st37" d="M84.6,51.5c0,0,0,0.1,0,0.2c0.2,0.8-0.4,1.5-1.2,1.7s-1.5-0.4-1.7-1.2c-0.2-0.8,0.4-1.5,1.1-1.7
							c0.2-0.1,0.5-0.1,0.7,0c-0.4-0.2-0.8-0.2-1.2-0.1c-1,0.2-1.7,1.2-1.5,2.3c0.2,1,1.2,1.7,2.3,1.5c1-0.2,1.7-1.2,1.5-2.2
							C84.6,51.7,84.6,51.6,84.6,51.5z"/>
					</g>
					<path class="st37" d="M87.5,49.5c0.2,1.2-0.5,2.3-1.7,2.5c-1.2,0.2-2.3-0.5-2.5-1.7s0.5-2.3,1.7-2.5c0,0,0,0,0,0
						C86.2,47.6,87.3,48.3,87.5,49.5z"/>
					<g class="st38">
						<path class="st37" d="M87.3,49c0,0,0,0.1,0,0.2c0.2,0.9-0.4,1.7-1.3,1.9c-0.9,0.2-1.7-0.4-1.9-1.3c-0.2-0.9,0.4-1.7,1.3-1.9
							c0,0,0,0,0,0c0.3-0.1,0.5-0.1,0.8,0c-1.1-0.5-2.3,0-2.8,1.1c-0.5,1.1,0,2.3,1.1,2.8s2.3,0,2.8-1.1c0.2-0.4,0.2-0.9,0.2-1.3
							C87.4,49.3,87.4,49.1,87.3,49z"/>
					</g>
					<path class="st37" d="M82,47.5c0.3,1.1-0.4,2.3-1.6,2.6c-1.1,0.3-2.3-0.4-2.6-1.6c0-0.1,0-0.1,0-0.2c-0.2-1.2,0.6-2.3,1.8-2.4
						C80.7,45.7,81.7,46.4,82,47.5z"/>
					<g class="st38">
						<path class="st37" d="M81.9,47c0,0.1,0,0.1,0,0.2c0.2,0.9-0.4,1.7-1.3,1.9c-0.9,0.2-1.7-0.4-1.9-1.3c-0.2-0.9,0.4-1.7,1.3-1.9
							c0.3-0.1,0.5-0.1,0.8,0c-0.4-0.2-0.9-0.2-1.3-0.2c-1.2,0.2-1.9,1.3-1.7,2.5c0.2,1.2,1.3,1.9,2.5,1.7l0,0
							c1.1-0.2,1.9-1.3,1.7-2.4C82,47.3,82,47.2,81.9,47z"/>
					</g>
					<path class="st37" d="M85,48.6c0.2,1.2-0.6,2.3-1.7,2.5c-1.2,0.2-2.3-0.6-2.5-1.7c-0.2-1.2,0.5-2.3,1.7-2.5
						C83.7,46.7,84.8,47.4,85,48.6C85,48.6,85,48.6,85,48.6z"/>
					<g class="st38">
						<path class="st37" d="M84.8,48.1v0.2c0.2,0.9-0.4,1.7-1.3,1.9s-1.7-0.4-1.9-1.3c-0.2-0.9,0.4-1.7,1.3-1.9c0,0,0,0,0.1,0
							c0.3-0.1,0.5-0.1,0.8,0c-1.1-0.5-2.3,0-2.8,1.1c-0.5,1.1,0,2.3,1.1,2.8c0.4,0.2,0.9,0.2,1.3,0.2c1.2-0.2,1.9-1.3,1.7-2.5
							C85,48.4,84.9,48.3,84.8,48.1z"/>
					</g>
					<g class="st39">
						<path class="st7" d="M83.2,44.9c0,0.2-0.3,0.1-0.2,0c0-0.1-0.1-0.3-0.2-0.3h-0.1l0,0h-0.1l0,0l0,0c-0.1,0-0.1-0.1-0.1-0.2
							c0-0.1,0.1-0.1,0.1-0.1c0,0,0,0,0,0l0,0c0.1,0,0.2,0,0.3,0.1l0,0C83.2,44.6,83.2,44.8,83.2,44.9z M85.3,45
							c-0.3-0.1-0.7,0.1-0.9,0.3c-0.1,0.1,0.1,0.3,0.2,0.1c0.2-0.2,0.4-0.3,0.7-0.2C85.5,45.3,85.5,45.1,85.3,45L85.3,45z
							 M87.2,45.7c-0.4,0.1-0.7,0.4-0.7,0.8c0,0.1,0.1,0.1,0.2,0.1c0,0,0.1,0,0.1-0.1c0-0.3,0.2-0.5,0.5-0.6
							C87.4,46,87.4,45.7,87.2,45.7z M86.2,48.1c-0.1-0.1-0.2,0.2-0.1,0.2c0.3,0.1,0.4,0.4,0.4,0.7c0,0.2,0.2,0.2,0.2,0
							C86.8,48.6,86.5,48.3,86.2,48.1L86.2,48.1z M84,47.8c-0.5-0.2-1-0.1-1.4,0.3c-0.1,0.1,0.1,0.2,0.2,0.1
							c0.3-0.3,0.7-0.4,1.1-0.3c0.1,0,0.1,0,0.2,0S84.1,47.8,84,47.8z M80.2,46.3c-0.5,0.2-0.8,0.7-0.6,1.2c0,0.2,0.3,0,0.2-0.1
							c-0.1-0.4,0.1-0.8,0.5-0.9C80.4,46.5,80.3,46.3,80.2,46.3L80.2,46.3z M88.7,49.2c-0.1-0.1-0.3,0.1-0.1,0.2
							c0.2,0.1,0.2,0.3,0.2,0.5c0,0.2,0.2,0.2,0.2,0C89,49.6,88.9,49.3,88.7,49.2L88.7,49.2z M85.9,53.4c-0.3-0.1-0.5-0.4-0.5-0.7
							c0,0,0,0,0,0c0-0.2-0.2-0.2-0.2,0c-0.1,0.5,0.2,0.9,0.7,1c0,0,0,0,0,0C86,53.7,86,53.5,85.9,53.4L85.9,53.4z M82.6,52.3
							c-0.2-0.2-0.3-0.4-0.3-0.7c0-0.1-0.1-0.1-0.1-0.1c-0.1,0-0.1,0.1-0.1,0.1c0,0.4,0.2,0.8,0.6,1c0.1,0,0.1,0,0.2-0.1
							c0,0,0,0,0,0v-0.1C82.8,52.3,82.6,52.3,82.6,52.3L82.6,52.3z M79.6,51.5c-0.3-0.1-0.4-0.4-0.3-0.7c0,0,0,0,0,0
							c0.1-0.1-0.1-0.3-0.2-0.1c-0.2,0.4-0.1,0.8,0.3,1.1c0,0,0.1,0,0.1,0c0.1,0,0.1,0,0.2-0.1C79.7,51.6,79.7,51.5,79.6,51.5
							L79.6,51.5z M80.7,54.5c-0.3-0.1-0.5-0.3-0.4-0.6c0,0,0,0,0,0c0-0.2-0.2-0.2-0.2-0.1c-0.1,0.4,0.1,0.8,0.5,1c0,0,0.1,0,0.1,0
							C80.9,54.7,80.9,54.5,80.7,54.5L80.7,54.5z M82,56.8c-0.3,0-0.5-0.3-0.6-0.5c0-0.2-0.3-0.1-0.2,0c0.1,0.4,0.4,0.7,0.8,0.8
							C82.1,57,82.1,56.9,82,56.8C82,56.8,82,56.8,82,56.8z"/>
					</g>
					
						<rect x="124.7" y="269.6" transform="matrix(0.9999 -1.431121e-02 1.431121e-02 0.9999 -3.8951 1.8286)" class="st31" width="2.3" height="7"/>
					
						<rect x="134.7" y="269.6" transform="matrix(0.9999 -1.431121e-02 1.431121e-02 0.9999 -3.894 1.9718)" class="st31" width="2.3" height="7"/>
					<path class="st18" d="M134,267.6c1.5,0,2.9,0.8,3.6,2.1c0.3,0.8,0.3,1.6,0.1,2.4c-0.1,0.7-0.4,1.8,0.5,2
						c-0.2-0.1-0.7,0.2-1,0.1c-0.8-0.2-1.5-0.7-1.9-1.5c-0.4-0.9-0.1-1.9-0.3-2.8c-0.1-0.4-0.2-0.9-0.3-1.3
						C134.6,268.5,134.2,267.5,134,267.6z"/>
					<path class="st31" d="M126.5,261.6h0.4c0.3,0,0.6,0.3,0.6,0.6v5.5c0,0.3-0.3,0.6-0.6,0.6h-0.4c-0.3,0-0.6-0.3-0.6-0.6v-5.5
						C125.9,261.9,126.2,261.6,126.5,261.6z"/>
					<rect x="123.2" y="262.2" class="st18" width="3.2" height="8.3"/>
					<path class="st18" d="M125.7,265c1-1,1-2.6,0-3.6l0,0c-0.6-0.6-1.4-0.8-2.2-0.7l0,0c0.1,0.1,0.1,0.3,0,0.4l-2,2l2.7,3.3
						l0.1-0.1L125.7,265z"/>
					<path class="st18" d="M123.5,261.2c0.1-0.1,0.1-0.3,0-0.4l0,0c-0.5,0.1-1,0.3-1.3,0.7l-1.2,1.1l0.5,0.6L123.5,261.2z"/>
					<path class="st18" d="M121.2,263.4c-0.1,0.1-0.3,0.1-0.4,0c0,0,0,0,0,0l-0.3-0.3c-0.7,1-0.5,2.3,0.3,3.2l0,0
						c0.9,0.9,2.4,1,3.4,0.1l-2.7-3.3L121.2,263.4z"/>
					<path class="st18" d="M123.3,258.8h0.3c0.3,0,0.5,0.2,0.5,0.5v1.6c0,0.3-0.2,0.5-0.5,0.5h-0.3c-0.3,0-0.5-0.2-0.5-0.5v-1.6
						C122.8,259,123,258.8,123.3,258.8z"/>
					<path class="st18" d="M123.3,259.3h0.3c0.3,0,0.5,0.2,0.5,0.5v1.1c0,0.3-0.2,0.5-0.5,0.5h-0.3c-0.3,0-0.5-0.2-0.5-0.5v-1.1
						C122.8,259.5,123,259.3,123.3,259.3z"/>
					<path class="st31" d="M123.8,261c0,0.4-0.3,0.7-0.7,0.7s-0.7-0.3-0.7-0.7c0-0.4,0.3-0.7,0.7-0.7c0,0,0,0,0,0
						C123.4,260.3,123.8,260.6,123.8,261C123.8,261,123.8,261,123.8,261z"/>
					<path class="st18" d="M124.7,261.3c0,0.3-0.3,0.6-0.6,0.6c-0.3,0-0.6-0.3-0.6-0.6c0-0.3,0.3-0.6,0.6-0.6
						C124.4,260.7,124.7,261,124.7,261.3L124.7,261.3z"/>
					<path class="st31" d="M125.8,261.7c0,0.4-0.3,0.7-0.7,0.7s-0.7-0.3-0.7-0.7s0.3-0.7,0.7-0.7
						C125.5,260.9,125.8,261.3,125.8,261.7L125.8,261.7z"/>
					<path class="st31" d="M125.1,260.7c0,0.4-0.3,0.7-0.7,0.7c0,0,0,0,0,0c-0.4,0-0.7-0.3-0.7-0.7c0-0.4,0.3-0.7,0.7-0.7l0,0
						C124.8,260,125.1,260.3,125.1,260.7z"/>
					<path class="st18" d="M125.8,259.4h0.4c0.3,0,0.6,0.3,0.6,0.6v2.1c0,0.3-0.3,0.6-0.6,0.6h-0.4c-0.3,0-0.6-0.3-0.6-0.6V260
						C125.1,259.6,125.4,259.4,125.8,259.4z"/>
					<path class="st18" d="M125.8,260h0.4c0.3,0,0.6,0.3,0.6,0.6v1.4c0,0.3-0.3,0.6-0.6,0.6h-0.4c-0.3,0-0.6-0.3-0.6-0.6v-1.4
						C125.1,260.3,125.4,260,125.8,260z"/>
					<path class="st18" d="M120.5,263.1l0.3,0.3c0.1,0.1,0.3,0.1,0.4,0c0,0,0,0,0,0l0.3-0.3l-0.5-0.6l-0.2,0.2
						C120.7,262.9,120.6,263,120.5,263.1z"/>
					<circle class="st18" cx="124" cy="263" r="0.5"/>
					<path class="st18" d="M125.7,267h8.2c1.4,0,2.5,1.1,2.5,2.5v1.7c0,1.4-1.1,2.5-2.5,2.5h-8.2c-1.4,0-2.5-1.1-2.5-2.5v-1.7
						C123.2,268.1,124.3,267,125.7,267z"/>
					<rect x="123.2" y="269.8" class="st18" width="2.8" height="7.9"/>
					<rect x="123.2" y="277.7" class="st31" width="2.8" height="1.6"/>
					<polygon class="st18" points="136.3,270.3 133.8,272.4 133.8,277.7 136.3,277.7 					"/>
					<rect x="133.8" y="277.7" class="st31" width="2.6" height="1.6"/>
					<path class="st40" d="M131.9,272.4c-1.8-0.2-3.1-1.8-3-3.6c0.1-1.4,1.2-2.6,2.6-2.9c18.5-3.6,16.5-17.8,16.4-18.4
						c-0.2-1.8,1.2-3.4,3-3.6c1.6-0.1,3.1,0.9,3.5,2.6c0,0.2,3.1,21-21.6,25.8C132.5,272.5,132.2,272.5,131.9,272.4z"/>
					<path class="st32" d="M131.9,271.8c-1.8-0.2-3.1-1.8-3-3.6c0.1-1.4,1.2-2.6,2.6-2.9c18.5-3.6,16.5-17.8,16.4-18.4
						c-0.2-1.8,1.2-3.4,3-3.6c1.6-0.1,3.1,0.9,3.5,2.6c0,0.2,3.1,21-21.6,25.8C132.5,271.8,132.2,271.8,131.9,271.8z"/>
					<path class="st23" d="M156.3,255.6l-11.6-2.4l1.2-5.8c0.7-3.2,3.8-5.3,7-4.6l0,0c3.2,0.7,5.2,3.8,4.6,7L156.3,255.6z"/>
				</g>
			</g>
		</g>
	</g>
</g>
</svg>
