<?xml version="1.0" encoding="utf-8"?>
<!-- Generator: Adobe Illustrator 25.2.3, SVG Export Plug-In . SVG Version: 6.00 Build 0)  -->
<svg version="1.1" id="Layer_1" xmlns="http://www.w3.org/2000/svg" xmlns:xlink="http://www.w3.org/1999/xlink" x="0px" y="0px"
	 viewBox="0 0 235.4 381.8" style="enable-background:new 0 0 235.4 381.8;" xml:space="preserve">
<style type="text/css">
	.st0{fill:#F2B055;}
	.st1{fill:#FFF0CC;}
	.st2{fill:#231F20;}
	.st3{clip-path:url(#SVGID_2_);}
	.st4{fill:#A4F6FF;}
	.st5{fill:#FFFFFF;}
	.st6{fill:none;}
	.st7{fill:#E1DB90;}
	.st8{fill:#ADC57F;}
	.st9{fill:#82B686;}
	.st10{fill:#8ECC94;}
	.st11{fill:#47372E;}
	.st12{fill:#80B784;}
	.st13{fill:#FFD150;}
	.st14{fill:#ABCB71;}
	.st15{fill:#F2AF55;}
	.st16{fill:#EE915B;}
	.st17{fill:#E6705F;}
	.st18{fill:#FFD351;}
	.st19{fill:#A4BC67;}
</style>
<g id="Layer_2_1_">
	<g id="Layer_1-2">
		<path class="st0" d="M235.4,14.5v352.9c-0.2,8.1-6.9,14.6-15,14.5H15c-8.3,0-15-6.5-15-14.5V14.5C0,6.5,6.7,0,15,0h205.4
			C228.7,0,235.4,6.5,235.4,14.5z M222.8,358.9V22.9c0-6-4.8-10.8-10.8-10.9H23.5c-6,0-10.8,4.9-10.8,10.8c0,0,0,0,0,0v336.1
			c0,6,4.9,10.8,10.8,10.8H212C218,369.7,222.8,364.9,222.8,358.9z"/>
		<path class="st1" d="M23.5,12H212c6,0,10.8,4.8,10.8,10.8v336.1c0,6-4.8,10.8-10.8,10.8H23.5c-6,0-10.8-4.8-10.8-10.8V22.9
			C12.6,16.9,17.5,12,23.5,12z"/>
		<path class="st2" d="M28.5,329.3c-0.1-0.1-0.2-0.3-0.2-0.5v-11c0-0.2,0-0.4,0.2-0.5c0.1-0.1,0.3-0.2,0.5-0.2h4.7
			c1.2-0.1,2.4,0.3,3.3,1c0.8,0.8,1.2,1.9,1.1,3c0.1,1.1-0.3,2.2-1.1,3c-0.9,0.8-2.1,1.1-3.3,1h-3v3.5c0,0.2,0,0.4-0.2,0.5
			c-0.1,0.1-0.3,0.2-0.5,0.2h-1C28.8,329.5,28.6,329.4,28.5,329.3z M33.6,323.5c0.6,0.1,1.2-0.2,1.7-0.6c0.4-0.5,0.6-1.1,0.5-1.7
			c0.1-0.6-0.1-1.3-0.5-1.8c-0.4-0.4-1-0.6-1.7-0.6h-2.9v4.6H33.6z"/>
		<path class="st2" d="M37.3,329.2c0-0.1,0-0.2,0-0.2l4.8-11.4c0-0.1,0.1-0.3,0.2-0.4c0.1-0.1,0.2-0.1,0.4-0.1h1
			c0.1,0,0.3,0,0.4,0.1c0.1,0.1,0.2,0.2,0.2,0.4l4.8,11.4c0,0.1,0.1,0.2,0.1,0.2c0,0.2-0.1,0.3-0.3,0.3h-1.6c-0.1,0-0.2,0-0.3-0.1
			c-0.1-0.1-0.2-0.2-0.2-0.3l-1-2.5h-5l-1,2.5c0,0.1-0.1,0.2-0.2,0.3c-0.1,0-0.2,0.1-0.3,0.1h-1.7C37.4,329.5,37.3,329.4,37.3,329.2
			z M45.2,324.9l-1.9-4.8l-1.9,4.8H45.2z"/>
		<path class="st2" d="M52.3,328.1c-2.3-2.8-2.3-6.8,0-9.5c1.3-1.2,3-1.8,4.8-1.7c0.8,0,1.6,0.1,2.3,0.2c0.6,0.1,1.2,0.4,1.8,0.7
			c0.1,0,0.1,0.1,0.2,0.2c0,0.1,0,0.2-0.1,0.2l-0.5,0.9c-0.1,0.1-0.1,0.2-0.2,0.2c-0.1,0-0.2,0-0.2-0.1c-0.9-0.5-2-0.7-3-0.7
			c-1.2-0.1-2.4,0.4-3.2,1.2c-0.9,1-1.3,2.3-1.2,3.5c-0.1,1.3,0.3,2.6,1.1,3.6c0.9,0.8,2,1.2,3.2,1.1c0.5,0,0.9,0,1.4-0.1
			c0.4-0.1,0.8-0.2,1.1-0.3v-3.4h-2.4c-0.2,0-0.4,0-0.5-0.2c-0.1-0.1-0.2-0.3-0.1-0.5v-0.5c0-0.2,0-0.3,0.1-0.5
			c0.1-0.1,0.3-0.2,0.5-0.1h3.8c0.2,0,0.4,0.1,0.6,0.2c0.1,0.2,0.2,0.4,0.2,0.6v4.8c0,0.1,0,0.3,0,0.4c-0.1,0.1-0.1,0.2-0.2,0.2
			c-1.4,0.8-3,1.1-4.5,1.1C55.4,329.9,53.6,329.3,52.3,328.1z"/>
		<path class="st2" d="M63.9,329.3c-0.1-0.1-0.2-0.3-0.2-0.5v-11c0-0.2,0-0.4,0.2-0.5c0.1-0.1,0.3-0.2,0.5-0.2H72
			c0.2,0,0.4,0,0.5,0.1c0.1,0.1,0.2,0.3,0.1,0.5v0.5c0,0.2,0,0.4-0.1,0.5c-0.1,0.1-0.3,0.2-0.5,0.1h-5.9v3.5h4.3
			c0.2,0,0.4,0,0.5,0.1c0.1,0.1,0.2,0.3,0.2,0.5v0.5c0,0.2,0,0.4-0.2,0.5c-0.1,0.1-0.3,0.2-0.5,0.1h-4.3v3.5H72c0.2,0,0.4,0,0.5,0.1
			c0.1,0.1,0.2,0.3,0.2,0.5v0.5c0,0.2,0,0.3-0.2,0.5c-0.1,0.1-0.3,0.2-0.5,0.1h-7.6C64.2,329.5,64,329.5,63.9,329.3z"/>
		<path class="st2" d="M82.6,328.1c-2.1-2.8-2.1-6.7,0-9.5c2.7-2.3,6.6-2.3,9.2,0c2.1,2.8,2.1,6.7,0,9.5
			C89.1,330.3,85.2,330.3,82.6,328.1z M90.1,326.8c1.3-2.2,1.3-4.9,0-7.1c-0.7-0.8-1.8-1.3-2.9-1.2c-1.1-0.1-2.2,0.4-2.9,1.2
			c-1.3,2.2-1.3,4.9,0,7.1c0.7,0.8,1.8,1.3,2.9,1.2C88.3,328.1,89.3,327.7,90.1,326.8z"/>
		<path class="st2" d="M95.3,329.3c-0.1-0.1-0.2-0.3-0.2-0.5v-11c0-0.2,0-0.4,0.2-0.5c0.1-0.1,0.3-0.2,0.5-0.2h7.6
			c0.2,0,0.4,0,0.5,0.1c0.1,0.1,0.2,0.3,0.1,0.5v0.5c0,0.2,0,0.4-0.1,0.5c-0.1,0.1-0.3,0.2-0.5,0.1h-5.9v3.5h4.3
			c0.2,0,0.4,0,0.5,0.1c0.1,0.1,0.2,0.3,0.2,0.5v0.5c0,0.2,0,0.4-0.2,0.5c-0.1,0.1-0.3,0.2-0.5,0.1h-4.3v4.6c0,0.2,0,0.4-0.2,0.5
			c-0.2,0.1-0.3,0.2-0.5,0.2h-1C95.6,329.5,95.4,329.4,95.3,329.3z"/>
		<path class="st2" d="M112.7,329.3c-0.1-0.1-0.2-0.3-0.2-0.5v-11c0-0.2,0-0.4,0.2-0.5c0.1-0.1,0.3-0.2,0.5-0.2h4.7
			c1.2-0.1,2.4,0.3,3.3,1.1c0.8,0.8,1.2,1.9,1.1,3c0.1,1.1-0.3,2.2-1.1,3c-0.9,0.8-2.1,1.1-3.3,1h-3v3.5c0,0.2,0,0.4-0.2,0.5
			c-0.1,0.1-0.3,0.2-0.5,0.2h-1C113,329.5,112.8,329.4,112.7,329.3z M117.8,323.5c0.6,0.1,1.2-0.2,1.7-0.6c0.4-0.5,0.6-1.1,0.6-1.7
			c0.1-0.6-0.1-1.3-0.6-1.8c-0.4-0.4-1-0.6-1.7-0.6h-2.9v4.6H117.8z"/>
		<path class="st2" d="M123.8,329.3c-0.1-0.1-0.2-0.3-0.2-0.5v-11c0-0.2,0-0.4,0.2-0.5c0.1-0.1,0.3-0.2,0.5-0.2h7.6
			c0.2,0,0.4,0,0.5,0.1c0.1,0.1,0.2,0.3,0.1,0.5v0.5c0,0.2,0,0.4-0.1,0.5c-0.1,0.1-0.3,0.2-0.5,0.1H126v3.5h4.3c0.2,0,0.4,0,0.5,0.1
			c0.1,0.1,0.2,0.3,0.1,0.5v0.5c0,0.2,0,0.4-0.1,0.5c-0.1,0.1-0.3,0.2-0.5,0.1H126v3.5h5.9c0.2,0,0.4,0,0.5,0.1
			c0.1,0.1,0.2,0.3,0.1,0.5v0.5c0,0.2,0,0.3-0.1,0.5c-0.1,0.1-0.3,0.2-0.5,0.1h-7.6C124.2,329.5,124,329.5,123.8,329.3z"/>
		<path class="st2" d="M134.3,329.3c-0.1-0.1-0.2-0.3-0.1-0.5v-11c-0.1-0.3,0.1-0.6,0.4-0.7c0.1,0,0.2,0,0.2,0h0.8
			c0.1,0,0.3,0,0.4,0.1c0.1,0.1,0.2,0.2,0.3,0.3l6,8.3v-8c0-0.2,0-0.4,0.1-0.5c0.1-0.1,0.3-0.2,0.5-0.2h1c0.2,0,0.4,0,0.5,0.2
			c0.1,0.1,0.2,0.3,0.2,0.5v11c0,0.2,0,0.4-0.2,0.5c-0.2,0.1-0.3,0.2-0.5,0.2h-0.9c-0.1,0-0.3,0-0.4-0.1c-0.1-0.1-0.2-0.2-0.3-0.3
			l-6-8.3v8c0,0.2,0,0.4-0.2,0.5c-0.1,0.1-0.3,0.2-0.5,0.2h-1C134.6,329.5,134.5,329.5,134.3,329.3z"/>
		<path class="st2" d="M150.1,329.3c-0.1-0.1-0.2-0.3-0.2-0.5v-9.9h-3.2c-0.2,0-0.4,0-0.5-0.1c-0.1-0.1-0.2-0.3-0.1-0.5v-0.5
			c0-0.2,0-0.4,0.1-0.5c0.1-0.1,0.3-0.2,0.5-0.1h8.7c0.3-0.1,0.6,0.1,0.7,0.4c0,0.1,0,0.2,0,0.2v0.5c0,0.2,0,0.4-0.1,0.5
			c-0.1,0.1-0.3,0.2-0.5,0.1h-3.2v9.9c0,0.2,0,0.4-0.1,0.5c-0.2,0.1-0.3,0.2-0.5,0.2h-1C150.4,329.5,150.2,329.4,150.1,329.3z"/>
		<path class="st2" d="M154.9,329.2c0-0.1,0-0.2,0.1-0.2l4.8-11.4c0-0.1,0.1-0.3,0.2-0.4c0.1-0.1,0.2-0.1,0.4-0.1h1
			c0.1,0,0.3,0,0.4,0.1c0.1,0.1,0.2,0.2,0.2,0.4l4.8,11.4c0,0.1,0.1,0.2,0.1,0.2c0,0.2-0.1,0.3-0.3,0.3h-1.6c-0.1,0-0.2,0-0.3-0.1
			c-0.1-0.1-0.2-0.2-0.2-0.3l-1-2.5h-5l-1,2.5c0,0.1-0.1,0.2-0.2,0.3c-0.1,0-0.2,0.1-0.3,0.1h-1.7
			C155,329.5,154.9,329.4,154.9,329.2z M162.8,324.9l-1.9-4.8l-1.9,4.8H162.8z"/>
		<path class="st2" d="M168.9,328.1c-1.2-1.3-1.8-3-1.7-4.8c-0.1-1.8,0.5-3.5,1.7-4.8c1.3-1.2,3-1.8,4.8-1.7c0.8,0,1.5,0.1,2.3,0.2
			c0.6,0.1,1.2,0.4,1.8,0.7c0.1,0,0.1,0.1,0.2,0.2c0,0.1,0,0.2-0.1,0.3l-0.5,0.9c-0.1,0.1-0.1,0.2-0.2,0.2c-0.1,0-0.2,0-0.2-0.1
			c-0.9-0.5-1.9-0.7-2.9-0.7c-1.2-0.1-2.4,0.4-3.2,1.2c-0.8,1-1.3,2.3-1.2,3.5c-0.1,1.3,0.3,2.6,1.2,3.6c0.9,0.8,2,1.2,3.2,1.2
			c1.1,0,2.2-0.2,3.1-0.7c0.1,0,0.2-0.1,0.2-0.1c0.1,0,0.2,0.1,0.2,0.2l0.6,0.9c0,0.1,0.1,0.1,0.1,0.2c0,0.1-0.1,0.1-0.2,0.2
			c-1.3,0.8-2.8,1.1-4.2,1C171.9,329.9,170.2,329.3,168.9,328.1z"/>
		<path class="st2" d="M180.1,329.3c-0.1-0.1-0.2-0.3-0.2-0.5v-11c0-0.2,0-0.4,0.2-0.5c0.1-0.1,0.3-0.2,0.5-0.2h1
			c0.3-0.1,0.6,0.2,0.7,0.5c0,0.1,0,0.1,0,0.2v9.9h5.6c0.3-0.1,0.6,0.1,0.7,0.4c0,0.1,0,0.2,0,0.2v0.5c0,0.2,0,0.3-0.1,0.5
			c-0.1,0.1-0.3,0.2-0.5,0.1h-7.2C180.4,329.5,180.2,329.5,180.1,329.3z"/>
		<path class="st2" d="M189.7,329.3c-0.1-0.1-0.2-0.3-0.2-0.5v-11c0-0.2,0-0.4,0.2-0.5c0.1-0.1,0.3-0.2,0.5-0.2h7.6
			c0.3-0.1,0.6,0.1,0.6,0.4c0,0.1,0,0.2,0,0.2v0.5c0,0.2,0,0.4-0.1,0.5c-0.1,0.1-0.3,0.2-0.5,0.1h-5.9v3.5h4.3c0.2,0,0.4,0,0.5,0.1
			c0.1,0.1,0.2,0.3,0.1,0.5v0.5c0,0.2,0,0.4-0.1,0.5c-0.1,0.1-0.3,0.2-0.5,0.1h-4.3v3.5h5.9c0.3-0.1,0.6,0.1,0.7,0.4
			c0,0.1,0,0.2,0,0.2v0.5c0,0.2,0,0.3-0.1,0.5c-0.1,0.1-0.3,0.2-0.5,0.1h-7.6C190.1,329.5,189.9,329.5,189.7,329.3z"/>
		<path class="st2" d="M201.9,329.5c-0.7-0.1-1.4-0.4-2-0.8c-0.2-0.1-0.2-0.2-0.2-0.3c0-0.1,0-0.2,0.1-0.2l0.6-0.9
			c0.1-0.1,0.1-0.2,0.2-0.2c0.1,0,0.2,0,0.2,0.1c0.5,0.3,1,0.5,1.6,0.6c0.6,0.2,1.2,0.2,1.8,0.2c0.6,0,1.3-0.1,1.9-0.4
			c0.4-0.3,0.7-0.8,0.6-1.3c0-0.3-0.1-0.6-0.2-0.9c-0.2-0.2-0.4-0.4-0.7-0.6c-0.5-0.2-1-0.4-1.5-0.6l-0.4-0.2
			c-0.7-0.3-1.4-0.6-2-0.9c-0.5-0.3-0.9-0.7-1.3-1.1c-0.3-0.5-0.5-1.1-0.5-1.7c0-1,0.4-2,1.3-2.5c1-0.6,2.1-1,3.3-0.9
			c0.7,0,1.5,0.1,2.2,0.2c0.6,0.1,1.1,0.4,1.6,0.7c0.1,0.1,0.2,0.2,0.2,0.3c0,0.1,0,0.1-0.1,0.2l-0.6,0.9c-0.1,0.1-0.1,0.2-0.2,0.2
			c-0.1,0-0.2-0.1-0.2-0.1c-0.9-0.5-1.9-0.8-2.9-0.8c-0.6,0-1.2,0.1-1.7,0.4c-0.4,0.3-0.6,0.8-0.6,1.3c0,0.3,0.1,0.6,0.2,0.9
			c0.2,0.2,0.4,0.4,0.7,0.6c0.3,0.2,0.8,0.4,1.5,0.6l0.5,0.2c0.7,0.3,1.4,0.6,2.1,1c0.5,0.3,0.9,0.7,1.1,1.1
			c0.3,0.5,0.4,1.1,0.4,1.7c0,1-0.4,1.9-1.2,2.5c-1,0.7-2.2,1-3.3,0.9C203.6,329.8,202.8,329.7,201.9,329.5z"/>
		<g>
			<defs>
				<path id="SVGID_1_" d="M53.1,44h129.2c13.7,0,24.8,11.1,24.8,24.8v192.6c0,13.7-11.1,24.8-24.8,24.8H53.1
					c-13.7,0-24.8-11.1-24.8-24.8V68.8C28.3,55.1,39.4,44,53.1,44z"/>
			</defs>
			<clipPath id="SVGID_2_">
				<use xlink:href="#SVGID_1_"  style="overflow:visible;"/>
			</clipPath>
			<g class="st3">
				<rect x="16.2" y="-14.3" class="st4" width="203.7" height="319.9"/>
				<path class="st5" d="M260.6,177.6H157c-4.9,0-8.9-4-8.9-8.9v-7.2c0-4.9,4-8.9,8.9-8.9h103.6c4.9,0,8.9,4,8.9,8.9v7.2
					C269.5,173.6,265.5,177.6,260.6,177.6z"/>
				<circle class="st5" cx="221.1" cy="146.6" r="31"/>
				<circle class="st5" cx="187.1" cy="155.5" r="22.1"/>
				<path class="st5" d="M186.5,80h-31c-1.9,0-3.5-1.6-3.5-3.5v-0.8c0-1.9,1.6-3.5,3.5-3.5h31c1.9,0,3.5,1.6,3.5,3.5v0.8
					C190,78.5,188.4,80,186.5,80z"/>
				
					<ellipse transform="matrix(0.1602 -0.9871 0.9871 0.1602 77.4119 231.6467)" class="st5" cx="174.8" cy="70.3" rx="9.7" ry="9.7"/>
				<path class="st5" d="M157.3,73.1c0,3.8,3.1,6.9,6.9,6.9s6.9-3.1,6.9-6.9c0-3.8-3.1-6.9-6.9-6.9c0,0,0,0,0,0
					C160.4,66.2,157.3,69.3,157.3,73.1C157.3,73.1,157.3,73.1,157.3,73.1z"/>
				<path class="st5" d="M-13.6,141.7h79.2c4.9,0,8.9,4,8.9,8.9v2.2c0,4.9-4,8.9-8.9,8.9h-79.2c-4.9,0-8.9-4-8.9-8.9v-2.2
					C-22.5,145.7-18.5,141.7-13.6,141.7z"/>
				<circle class="st5" cx="16.2" cy="136.8" r="24.7"/>
				<circle class="st5" cx="43.4" cy="144" r="17.6"/>
				<path class="st5" d="M46.4,97.7h21c1.3,0,2.4,1.1,2.4,2.4v0.5c0,1.3-1.1,2.4-2.4,2.4h-21c-1.3,0-2.4-1.1-2.4-2.4v-0.5
					C44,98.8,45.1,97.7,46.4,97.7z"/>
				<path class="st5" d="M60.8,96.4c0,3.6-2.9,6.5-6.6,6.5s-6.5-2.9-6.5-6.6c0-3.6,2.9-6.5,6.6-6.5S60.8,92.8,60.8,96.4L60.8,96.4z"
					/>
				<path class="st5" d="M66.1,98.3c0,2.6-2.1,4.7-4.7,4.7c-2.6,0-4.7-2.1-4.7-4.7c0-2.6,2.1-4.7,4.7-4.7h0
					C64,93.7,66.1,95.7,66.1,98.3z"/>
				<rect x="16.2" y="-14.3" class="st6" width="203.6" height="358.7"/>
				<path class="st7" d="M192.6,192.9c2,25.9-33,49.6-78,53.1s-83.2-14.7-85.2-40.6s32.9-49.6,78-53.1c3.3-0.3,6.6-0.4,9.9-0.4
					C157.9,151.6,190.7,169,192.6,192.9z"/>
				<ellipse class="st8" cx="234.1" cy="188.5" rx="71.1" ry="40.8"/>
				<ellipse class="st8" cx="3.1" cy="186" rx="81.8" ry="46.9"/>
				<ellipse class="st9" cx="39.2" cy="220.7" rx="87.4" ry="50.2"/>
				<ellipse class="st9" cx="193.2" cy="220.7" rx="87.4" ry="50.2"/>
				<ellipse class="st10" cx="115.9" cy="270.9" rx="143.1" ry="65.4"/>
				<circle class="st11" cx="129.3" cy="131.4" r="7.7"/>
				<circle class="st11" cx="109.7" cy="131.2" r="7.7"/>
				<path class="st12" d="M155.2,262.8H86.1c-4.5,0-8.1-3.6-8.1-8.1l0,0c0-4.5,3.6-8.1,8.1-8.1h69.2c4.5,0,8.1,3.6,8.1,8.1l0,0
					C163.3,259.1,159.7,262.7,155.2,262.8z"/>
				<rect x="106.7" y="211.2" class="st13" width="9.1" height="42.2"/>
				<rect x="124.7" y="211.2" class="st13" width="9.1" height="42.2"/>
				<path class="st14" d="M114.4,135.6h10.9c12.2,0,22,9.9,22,22.1v58.1l0,0h-55l0,0v-58.1C92.3,145.5,102.1,135.6,114.4,135.6
					L114.4,135.6z"/>
				<circle class="st11" cx="100.4" cy="123.5" r="7.7"/>
				<circle class="st11" cx="139.5" cy="123.5" r="7.7"/>
				<path class="st13" d="M101.3,112.4c0,2.8-2.2,5-5,5s-5-2.2-5-5s2.2-5,5-5S101.3,109.6,101.3,112.4z"/>
				<path class="st13" d="M148.2,112.4c0,2.8-2.2,5-5,5s-5-2.2-5-5s2.2-5,5-5S148.2,109.6,148.2,112.4z"/>
				<path class="st15" d="M145,113.4c-0.6,1-1.8,1.3-2.7,0.7c-1-0.6-1.3-1.8-0.7-2.7c0.6-0.9,1.8-1.3,2.7-0.7
					C145.2,111.2,145.6,112.4,145,113.4C145,113.4,145,113.4,145,113.4z"/>
				<path class="st15" d="M98.1,113.4c-0.6,1-1.8,1.3-2.7,0.7c-1-0.6-1.3-1.8-0.7-2.7c0.6-0.9,1.8-1.3,2.7-0.7
					C98.3,111.2,98.6,112.4,98.1,113.4C98.1,113.4,98.1,113.4,98.1,113.4z"/>
				<path class="st13" d="M118.1,113.8h3.4c2.8,0,5,2.3,5,5v20.1c0,2.8-2.3,5-5,5h-3.4c-2.8,0-5-2.3-5-5v-20.1
					C113.1,116.1,115.3,113.8,118.1,113.8z"/>
				<path class="st15" d="M113.1,134.5c0,0,7,3.9,13.5,0.1v-2.2h-13.5V134.5z"/>
				<path class="st13" d="M119.8,79.9L119.8,79.9c12.3,0,22.3,10,22.3,22.3v10.4c0,12.3-10,22.3-22.3,22.3h0
					c-12.3,0-22.3-10-22.3-22.3v-10.4C97.5,89.9,107.5,79.9,119.8,79.9z"/>
				<path class="st15" d="M109.7,116.8c-1.1,0-2.2-0.2-3.1-0.7c-0.2-0.1-0.2-0.3-0.1-0.4c0,0,0,0,0,0c0.1-0.2,0.3-0.2,0.4-0.1
					c1.8,0.9,4,0.9,5.8,0c0.2-0.1,0.4,0,0.4,0.2c0,0,0,0,0,0c0.1,0.2,0,0.3-0.1,0.4c0,0,0,0,0,0C112,116.5,110.8,116.8,109.7,116.8z
					"/>
				<path class="st15" d="M130.4,116.8c-1.1,0-2.2-0.2-3.1-0.7c-0.2-0.1-0.2-0.3-0.1-0.4c0,0,0,0,0,0c0.1-0.2,0.3-0.2,0.4-0.1
					c1.8,0.9,4,0.9,5.8,0c0.2-0.1,0.4,0,0.4,0.2s0,0.4-0.2,0.4C132.6,116.5,131.5,116.8,130.4,116.8z"/>
				<path class="st11" d="M140.5,92.3c0.3-0.9,0.5-1.8,0.5-2.7l0,0c0-1-0.2-1.9-0.5-2.8c-1.3-6.2-7.4-10.2-13.7-8.9
					c-1.8,0.4-3.4,1.2-4.8,2.3c-0.9-0.6-2-1-3.1-1c-1.2,0-2.4,0.4-3.3,1.2c-2.2-1.9-5-2.8-7.8-2.7c-5.1,0.2-9.4,3.7-10.8,8.6
					c-0.6,2-0.6,4,0,6c-5.4,0.1-9.7,4.7-9.6,10.1c0.1,5.4,4.7,9.7,10.1,9.6c5.4-0.1,9.7-4.7,9.6-10.1c0-0.4,0-0.8-0.1-1.2
					c0.4,0,0.7,0.1,1.1,0.1c2.6,0,5.1-0.9,7.2-2.5c1.9,1.9,5,1.9,7,0.2c2,1.5,4.4,2.3,6.9,2.3h0.1c-0.1,0.4-0.1,0.8-0.1,1.3
					c0,5.4,4.4,9.8,9.8,9.8c5.4,0,9.8-4.4,9.8-9.8C148.8,97.2,145.3,93.1,140.5,92.3L140.5,92.3z"/>
				<path class="st15" d="M120.4,115.5c-1.3,0-2.3,1.1-2.3,2.3h4.7C122.8,116.5,121.7,115.5,120.4,115.5
					C120.4,115.5,120.4,115.5,120.4,115.5z"/>
				<circle class="st11" cx="113.9" cy="100.1" r="7.6"/>
				<path class="st11" d="M130,100.7c0,2.5-2,4.5-4.5,4.5s-4.5-2-4.5-4.5s2-4.5,4.5-4.5C128,96.2,130,98.2,130,100.7
					C130,100.6,130,100.6,130,100.7z"/>
				<circle class="st13" cx="119.1" cy="164.6" r="20.2"/>
				<circle class="st16" cx="119.1" cy="162.1" r="20.2"/>
				<path class="st17" d="M134.6,155.6h-11.5l-4.1-12.6l-4.1,12.6h-13.2l10.7,7.8l-4.1,12.6l10.7-7.8l10.7,7.8l-4.1-12.6l9.3-6.7
					c0.3-0.2,0.3-0.6,0.1-0.8C135,155.6,134.8,155.6,134.6,155.6z M119.1,145.6l3.2,10h-6.5L119.1,145.6z M122.6,156.4l2.2,6.7
					l-5.7,4.1l-5.7-4.2l2.2-6.7L122.6,156.4z M104.2,156.4h10.5l-2,6.2L104.2,156.4z M109.9,173.9l3.2-10l5.3,3.8L109.9,173.9z
					 M128.3,173.9l-8.5-6.2l5.3-3.8L128.3,173.9z M123.4,156.4H134l-8.5,6.2L123.4,156.4z"/>
				<polygon class="st18" points="119.1,145.5 115.8,155.6 122.3,155.6 				"/>
				<polygon class="st18" points="109.9,173.8 118.4,167.6 113.2,163.8 				"/>
				<polygon class="st18" points="114.7,156.3 104.2,156.3 112.7,162.5 				"/>
				<polygon class="st18" points="122.6,156.3 115.6,156.3 113.4,163 119.1,167.2 124.8,163 				"/>
				<polygon class="st18" points="119.8,167.6 128.3,173.8 125,163.8 				"/>
				<polygon class="st18" points="123.4,156.3 125.5,162.5 134,156.3 				"/>
				<path class="st11" d="M103.4,94h27.2c1.7,0,3,1.4,3,3v2.1c0,1.7-1.4,3-3,3h-27.2c-1.7,0-3-1.4-3-3v-2.1
					C100.4,95.4,101.8,94,103.4,94z"/>
				<path class="st19" d="M93,186.2h53.5c1.6,0,2.8,1.3,2.8,2.8v1.4c0,1.6-1.3,2.8-2.8,2.8H93c-1.6,0-2.8-1.3-2.8-2.8v-1.4
					C90.2,187.5,91.5,186.2,93,186.2z"/>
				<path class="st15" d="M119.6,124.6c-1.7,0.1-3.5-0.1-5.1-0.6c-0.3-0.1-0.5-0.5-0.4-0.8c0.1-0.3,0.5-0.5,0.8-0.4c0,0,0.1,0,0.1,0
					c0,0,3.3,1.1,11.3,0c0.3-0.1,0.7,0.1,0.8,0.5c0.1,0.3-0.1,0.7-0.5,0.8c0,0-0.1,0-0.1,0C124.2,124.4,121.9,124.6,119.6,124.6z"/>
				<path class="st11" d="M112.1,112.7l-4.9,1.5c-0.6,0.2-1.1-0.1-1.3-0.7l0,0c-0.2-0.6,0.1-1.1,0.7-1.3c0,0,0,0,0,0l4.9-1.5
					c0.5-0.2,1.1,0.1,1.3,0.6c0,0,0,0.1,0,0.1l0,0C113,111.9,112.7,112.5,112.1,112.7C112.1,112.7,112.1,112.7,112.1,112.7z"/>
				<path class="st11" d="M127.6,112.7l4.9,1.5c0.5,0.2,1.1-0.1,1.3-0.6c0,0,0-0.1,0-0.1l0,0c0.2-0.5-0.1-1.1-0.6-1.3
					c0,0-0.1,0-0.1,0l-4.9-1.5c-0.6-0.2-1.1,0.1-1.3,0.7l0,0C126.8,111.9,127.1,112.5,127.6,112.7z"/>
				<path class="st15" d="M125,164.3c-2-2.7-5.9-3.3-8.6-1.3c-15.8,11.8-21,10.4-21.6,10.2c-0.2-0.1-0.4-0.3-0.5-0.5
					c0-2.6,0.2-5.3,0.6-7.9c-3.9,0.1-8.6-1.5-12-2.9c-0.7,3.9-1,7.9-0.9,11.9v0.4c0.6,4.6,3.6,8.5,7.8,10.3c1.9,0.8,3.9,1.2,6,1.2
					c7.2,0,16.4-4.2,27.8-12.8C126.4,170.9,127,167,125,164.3C125,164.3,125,164.3,125,164.3z"/>
				<path class="st13" d="M125,162.4c-2-2.7-5.9-3.3-8.6-1.3c-15.8,11.8-21,10.4-21.6,10.2c-0.2-0.1-0.4-0.3-0.5-0.5
					c0-2.6,0.2-5.3,0.6-7.9c-3.9,0.1-8.6-1.5-12-2.9C82.2,164,81.9,168,82,172v0.4c0.6,4.6,3.6,8.5,7.8,10.3c1.9,0.8,3.9,1.2,6,1.2
					c7.2,0,16.4-4.2,27.8-12.8C126.4,169.1,127,165.2,125,162.4C125,162.5,125,162.4,125,162.4z"/>
				<path class="st14" d="M94.9,163c0.8-5.3,2.9-11.8,7.8-15.7c2.7-2,3.3-5.9,1.3-8.6c-2-2.7-5.9-3.3-8.6-1.3
					c-0.1,0.1-0.2,0.2-0.4,0.3c-7.5,6.1-10.7,15.1-12.1,22.4C86.3,161.5,91,163.1,94.9,163z"/>
				<path class="st15" d="M112.8,164.3c2-2.7,5.9-3.3,8.6-1.3c0,0,0,0,0,0c15.8,11.8,21,10.4,21.6,10.2c0.2-0.1,0.4-0.3,0.5-0.5
					c0-2.6-0.2-5.3-0.6-7.9c3.9,0.1,8.6-1.5,12-2.9c0.7,3.9,1,7.9,0.9,11.9v0.4c-0.6,4.6-3.6,8.5-7.8,10.3c-1.9,0.8-3.9,1.2-6,1.2
					c-7.2,0-16.4-4.2-27.8-12.8C111.4,170.9,110.8,167.1,112.8,164.3C112.8,164.3,112.8,164.3,112.8,164.3z"/>
				<path class="st13" d="M112.8,162.4c2-2.7,5.9-3.3,8.6-1.3c15.8,11.8,21,10.4,21.6,10.2c0.2-0.1,0.4-0.3,0.5-0.5
					c0-2.6-0.2-5.3-0.6-7.9c3.9,0.1,8.6-1.5,12-2.9c0.7,3.9,1,7.9,0.9,11.9v0.4c-0.6,4.6-3.6,8.5-7.8,10.3c-1.9,0.8-3.9,1.2-6,1.2
					c-7.2,0-16.4-4.2-27.8-12.8C111.4,169,110.8,165.2,112.8,162.4C112.8,162.4,112.8,162.4,112.8,162.4z"/>
				<path class="st14" d="M142.9,163c-0.9-5.3-2.9-11.8-7.8-15.7c-2.6-2.2-3-6.1-0.8-8.7c2.1-2.5,5.9-2.9,8.5-0.9
					c7.5,6.1,10.7,15.1,12.1,22.4C151.5,161.5,146.8,163.1,142.9,163z"/>
				<path class="st13" d="M115.3,250.7c-0.9,0-1.6,0.7-1.6,1.6l0,0v0.8l-2.5-0.3l-1-0.8c-0.5-0.4-1.1-0.4-1.6-0.2l-1.1,0.5h-0.2
					l-0.2,0.2l-7.4,3.6c-0.8,0.4-1.1,1.3-0.8,2.1c0.3,0.6,0.8,0.9,1.5,0.9h14.6h0.2h0.2c0.9,0,1.6-0.7,1.6-1.6v-5.4
					C116.9,251.4,116.2,250.7,115.3,250.7z"/>
				<path class="st13" d="M126.2,250.7c0.9,0,1.6,0.7,1.6,1.6v0.8l2.5-0.3l1-0.8c0.5-0.3,1.1-0.4,1.6-0.1l1.1,0.5h0.2l0.2,0.2
					l7.4,3.6c0.8,0.4,1.1,1.3,0.8,2.1c-0.3,0.6-0.8,0.9-1.5,0.9h-14.5c-0.1,0-0.2,0-0.2,0h-0.2c-0.9,0-1.6-0.7-1.6-1.6v-5.4
					C124.6,251.4,125.4,250.7,126.2,250.7L126.2,250.7z"/>
			</g>
		</g>
	</g>
</g>
</svg>
