<?xml version="1.0" encoding="utf-8"?>
<!-- Generator: Adobe Illustrator 25.2.3, SVG Export Plug-In . SVG Version: 6.00 Build 0)  -->
<svg version="1.1" id="Layer_1" xmlns="http://www.w3.org/2000/svg" xmlns:xlink="http://www.w3.org/1999/xlink" x="0px" y="0px"
	 viewBox="0 0 235.4 381.8" style="enable-background:new 0 0 235.4 381.8;" xml:space="preserve">
<style type="text/css">
	.st0{fill:#F2B055;}
	.st1{fill:#FFF0CC;}
	.st2{fill:#231F20;}
	.st3{clip-path:url(#SVGID_2_);}
	.st4{fill:#AFE0ED;}
	.st5{fill:#84C388;}
	.st6{fill:#5BA486;}
	.st7{fill:none;}
	.st8{fill:#A4F6FF;}
	.st9{fill:#80EAED;}
	.st10{fill:#78B07A;}
	.st11{fill:#6D5A55;}
	.st12{fill:#697F69;}
	.st13{fill:#5C6D5C;}
	.st14{fill:#738D72;}
	.st15{fill:#779A78;}
	.st16{fill:#ABCB71;}
	.st17{fill:#78AB7A;}
	.st18{fill:#FFD150;}
	.st19{fill:#F2AF55;}
	.st20{fill:#47372E;}
	.st21{fill:#4A355B;}
	.st22{fill:#766351;}
	.st23{fill:#F1F1F1;}
	.st24{fill:#E3705E;}
	.st25{fill:#EE915B;}
	.st26{fill:#E6705F;}
	.st27{fill:#FFD351;}
	.st28{fill:#FFFFFF;}
</style>
<g id="Layer_2_1_">
	<g id="Layer_1-2">
		<path class="st0" d="M235.4,14.5v352.9c-0.2,8.1-6.9,14.6-15,14.5H15c-8.3,0-15-6.5-15-14.5V14.5C0,6.5,6.7,0,15,0h205.4
			C228.7,0,235.4,6.5,235.4,14.5z M222.8,358.9V22.9c0-6-4.8-10.8-10.8-10.9H23.5c-6,0-10.8,4.9-10.8,10.8c0,0,0,0,0,0v336.1
			c0,6,4.9,10.8,10.8,10.8H212C218,369.7,222.8,364.9,222.8,358.9z"/>
		<path class="st1" d="M23.5,12H212c6,0,10.8,4.8,10.8,10.8v336.1c0,6-4.8,10.8-10.8,10.8H23.5c-6,0-10.8-4.8-10.8-10.8V22.9
			C12.6,16.9,17.5,12,23.5,12z"/>
		<path class="st2" d="M26.4,329.3c-0.1-0.1-0.2-0.3-0.1-0.5v-10.2c0-0.2,0-0.3,0.1-0.5c0.1-0.1,0.3-0.2,0.5-0.1h0.9
			c0.2,0,0.4,0,0.5,0.1c0.1,0.1,0.2,0.3,0.1,0.5v10.2c0,0.2,0,0.3-0.1,0.5c-0.1,0.1-0.3,0.2-0.5,0.1h-0.9
			C26.7,329.5,26.5,329.4,26.4,329.3z M33.2,329.4c-0.1,0-0.1-0.1-0.2-0.1l-4-4.9c-0.1-0.1-0.2-0.2-0.2-0.3c-0.1-0.2-0.1-0.5,0-0.7
			c0.1-0.1,0.1-0.2,0.2-0.3l4-4.9c0.1-0.1,0.1-0.1,0.2-0.2c0.1,0,0.2,0,0.3,0H35c0.1,0,0.1,0,0.2,0.1c0,0,0.1,0.1,0.1,0.2
			c0,0.1,0,0.2-0.1,0.2l-4.4,5.2l4.5,5.2c0.1,0.1,0.1,0.1,0.1,0.2c0,0.1,0,0.1-0.1,0.2c-0.1,0-0.1,0.1-0.2,0.1h-1.6
			C33.4,329.5,33.3,329.5,33.2,329.4L33.2,329.4z"/>
		<path class="st2" d="M36.5,329.3c-0.1-0.1-0.2-0.3-0.1-0.5v-10.2c0-0.2,0-0.3,0.1-0.5c0.1-0.1,0.3-0.2,0.5-0.1h0.8
			c0.1,0,0.3,0,0.4,0.1c0.1,0.1,0.2,0.2,0.3,0.3l5.6,7.7v-7.4c0-0.2,0-0.3,0.1-0.5c0.1-0.1,0.3-0.2,0.5-0.1h0.9c0.2,0,0.4,0,0.5,0.1
			c0.1,0.1,0.2,0.3,0.2,0.5v10.2c0,0.2,0,0.3-0.1,0.5c-0.1,0.1-0.3,0.2-0.5,0.1h-0.8c-0.1,0-0.2,0-0.3-0.1c-0.1-0.1-0.2-0.2-0.3-0.3
			l-5.6-7.7v7.4c0,0.2,0,0.3-0.2,0.5c-0.1,0.1-0.3,0.2-0.5,0.1H37C36.8,329.5,36.7,329.4,36.5,329.3z"/>
		<path class="st2" d="M48.3,329.3c-0.1-0.1-0.2-0.3-0.2-0.5v-10.2c0-0.2,0-0.3,0.2-0.5c0.1-0.1,0.3-0.2,0.5-0.1h0.9
			c0.2,0,0.4,0,0.5,0.1c0.1,0.1,0.2,0.3,0.2,0.5v10.2c0,0.2,0,0.3-0.1,0.5c-0.1,0.1-0.3,0.2-0.5,0.1h-0.9
			C48.6,329.5,48.4,329.4,48.3,329.3z"/>
		<path class="st2" d="M53.5,328.2c-2.1-2.6-2.1-6.3,0-8.9c1.2-1.1,2.8-1.7,4.5-1.6c0.7,0,1.4,0.1,2.1,0.2c0.6,0.1,1.2,0.4,1.7,0.7
			c0.1,0,0.1,0.1,0.2,0.2c0,0.1,0,0.1-0.1,0.2l-0.5,0.9c-0.1,0.1-0.1,0.1-0.2,0.1c-0.1,0-0.1,0-0.2-0.1c-0.8-0.4-1.8-0.7-2.7-0.6
			c-1.1-0.1-2.2,0.3-3,1.1c-0.8,0.9-1.2,2.1-1.1,3.3c-0.1,1.2,0.3,2.4,1.1,3.3c0.8,0.7,1.8,1.1,2.9,1.1c0.4,0,0.9,0,1.3-0.1
			c0.3-0.1,0.7-0.2,1-0.3v-3.1h-2.2c-0.2,0-0.3,0-0.5-0.1c-0.1-0.1-0.1-0.3-0.1-0.5v-0.4c0-0.2,0-0.3,0.1-0.5
			c0.1-0.1,0.3-0.1,0.5-0.1h3.6c0.2,0,0.4,0,0.5,0.2c0.1,0.2,0.2,0.4,0.2,0.5v4.5c0,0.1,0,0.3,0,0.4c0,0.1-0.1,0.2-0.2,0.2
			c-1.3,0.7-2.7,1.1-4.2,1C56.4,329.9,54.8,329.3,53.5,328.2z"/>
		<path class="st2" d="M64.3,329.3c-0.1-0.1-0.2-0.3-0.2-0.5v-10.2c0-0.2,0-0.3,0.2-0.5c0.1-0.1,0.3-0.2,0.5-0.1h0.9
			c0.2,0,0.4,0,0.5,0.1c0.1,0.1,0.2,0.3,0.2,0.5v4.2h5.5v-4.2c0-0.2,0-0.4,0.2-0.5c0.1-0.1,0.3-0.2,0.5-0.1h0.9c0.2,0,0.4,0,0.5,0.1
			c0.1,0.1,0.2,0.3,0.2,0.5v10.2c0,0.2,0,0.3-0.2,0.5c-0.1,0.1-0.3,0.2-0.5,0.1h-0.9c-0.2,0-0.4,0-0.5-0.1c-0.1-0.1-0.2-0.3-0.2-0.5
			v-4.4h-5.5v4.4c0,0.2,0,0.3-0.2,0.5c-0.1,0.1-0.3,0.2-0.5,0.1h-0.9C64.6,329.5,64.4,329.4,64.3,329.3z"/>
		<path class="st2" d="M79,329.3c-0.1-0.1-0.2-0.3-0.2-0.5v-9.2h-3c-0.2,0-0.3,0-0.5-0.1c-0.1-0.1-0.1-0.3-0.1-0.5v-0.5
			c0-0.2,0-0.3,0.1-0.5c0.1-0.1,0.3-0.2,0.5-0.1H84c0.2,0,0.3,0,0.5,0.1c0.1,0.1,0.1,0.3,0.1,0.5v0.5c0,0.2,0,0.3-0.1,0.5
			c-0.1,0.1-0.3,0.2-0.5,0.1h-3v9.2c0,0.2,0,0.3-0.1,0.5c-0.1,0.1-0.3,0.2-0.5,0.1h-0.9C79.3,329.5,79.1,329.4,79,329.3z"/>
		<path class="st2" d="M93.6,328.2c-2-2.6-2-6.2,0-8.9c2.5-2.1,6.1-2.1,8.6,0c2,2.6,2,6.2,0,8.9C99.7,330.3,96.1,330.3,93.6,328.2z
			 M100.6,327c0.7-1,1-2.1,0.9-3.3c0.1-1.2-0.2-2.3-0.9-3.3c-0.7-0.8-1.7-1.2-2.7-1.1c-1-0.1-2,0.3-2.7,1.1c-0.7,0.9-1,2.1-0.9,3.3
			c-0.1,1.2,0.3,2.3,0.9,3.3c0.7,0.8,1.7,1.2,2.7,1.1C99,328.2,100,327.8,100.6,327L100.6,327z"/>
		<path class="st2" d="M105.5,329.3c-0.1-0.1-0.2-0.3-0.1-0.5v-10.2c0-0.2,0-0.3,0.1-0.5c0.1-0.1,0.3-0.2,0.5-0.1h7
			c0.3-0.1,0.5,0.1,0.6,0.4c0,0.1,0,0.1,0,0.2v0.5c0,0.2,0,0.3-0.1,0.5c-0.1,0.1-0.3,0.2-0.5,0.1h-5.5v3.2h4c0.2,0,0.3,0,0.5,0.1
			c0.1,0.1,0.1,0.3,0.1,0.5v0.5c0,0.2,0,0.3-0.1,0.5c-0.1,0.1-0.3,0.2-0.5,0.1h-4v4.3c0,0.2,0,0.3-0.1,0.5c-0.1,0.1-0.3,0.2-0.5,0.1
			H106C105.8,329.5,105.6,329.5,105.5,329.3z"/>
		<path class="st2" d="M121.6,329.3c-0.1-0.1-0.2-0.3-0.1-0.5v-10.2c0-0.2,0-0.3,0.1-0.5c0.1-0.1,0.3-0.2,0.5-0.1h4.3
			c1.1-0.1,2.2,0.3,3.1,1c0.7,0.8,1.1,1.8,1,2.8c0.1,1-0.3,2-1,2.8c-0.9,0.7-2,1.1-3.1,1h-2.8v3.3c0,0.2,0,0.3-0.1,0.5
			c-0.1,0.1-0.3,0.2-0.5,0.1h-0.9C121.9,329.5,121.8,329.5,121.6,329.3z M126.3,324c0.6,0,1.1-0.1,1.5-0.5c0.7-1,0.7-2.3,0-3.2
			c-0.4-0.4-1-0.6-1.5-0.5h-2.7v4.3L126.3,324z"/>
		<path class="st2" d="M132,329.3c-0.1-0.1-0.2-0.3-0.1-0.5v-10.2c0-0.2,0-0.3,0.1-0.5c0.1-0.1,0.3-0.2,0.5-0.1h7
			c0.3-0.1,0.5,0.1,0.6,0.4c0,0.1,0,0.1,0,0.2v0.5c0,0.2,0,0.3-0.1,0.5c-0.1,0.1-0.3,0.2-0.5,0.1H134v3.3h4c0.2,0,0.3,0,0.5,0.1
			c0.1,0.1,0.1,0.3,0.1,0.5v0.4c0,0.2,0,0.3-0.1,0.5c-0.1,0.1-0.3,0.2-0.5,0.1h-4v3.3h5.5c0.2,0,0.3,0,0.5,0.1
			c0.1,0.1,0.1,0.3,0.1,0.5v0.5c0,0.2,0,0.3-0.1,0.4c-0.1,0.1-0.3,0.1-0.5,0.1h-7C132.3,329.5,132.1,329.4,132,329.3z"/>
		<path class="st2" d="M141.7,329.3c-0.1-0.1-0.2-0.3-0.1-0.5v-10.2c0-0.2,0-0.3,0.1-0.5c0.1-0.1,0.3-0.2,0.5-0.1h0.8
			c0.1,0,0.3,0,0.4,0.1c0.1,0.1,0.2,0.2,0.3,0.3l5.6,7.7v-7.4c0-0.2,0-0.3,0.1-0.5c0.1-0.1,0.3-0.2,0.5-0.1h0.9c0.2,0,0.4,0,0.5,0.1
			c0.1,0.1,0.2,0.3,0.1,0.5v10.2c0,0.2,0,0.3-0.1,0.5c-0.1,0.1-0.3,0.2-0.5,0.1h-0.8c-0.1,0-0.2,0-0.4-0.1c-0.1-0.1-0.2-0.2-0.3-0.3
			l-5.6-7.7v7.4c0,0.2,0,0.3-0.1,0.5c-0.1,0.1-0.3,0.2-0.5,0.1h-0.9C142,329.5,141.8,329.4,141.7,329.3z"/>
		<path class="st2" d="M156.4,329.3c-0.1-0.1-0.2-0.3-0.1-0.5v-9.2h-2.9c-0.2,0-0.3,0-0.5-0.1c-0.1-0.1-0.1-0.3-0.1-0.5v-0.5
			c0-0.2,0-0.3,0.1-0.5c0.1-0.1,0.3-0.2,0.5-0.1h8.1c0.2,0,0.3,0,0.5,0.1c0.1,0.1,0.2,0.3,0.1,0.5v0.5c0,0.2,0,0.3-0.1,0.5
			c-0.1,0.1-0.3,0.2-0.5,0.1h-3v9.2c0,0.2,0,0.3-0.1,0.5c-0.1,0.1-0.3,0.2-0.5,0.1h-0.9C156.7,329.5,156.5,329.4,156.4,329.3z"/>
		<path class="st2" d="M160.8,329.2c0-0.1,0-0.2,0.1-0.2l4.4-10.6c0-0.1,0.1-0.3,0.2-0.4c0.1-0.1,0.2-0.1,0.3-0.1h0.9
			c0.1,0,0.2,0,0.4,0.1c0.1,0.1,0.2,0.2,0.2,0.4l4.4,10.6c0,0.1,0.1,0.1,0.1,0.2c0,0.2-0.1,0.2-0.3,0.2h-1.5c-0.1,0-0.2,0-0.3-0.1
			c-0.1-0.1-0.1-0.1-0.2-0.2l-1-2.4H164l-0.9,2.4c0,0.1-0.1,0.2-0.2,0.2c-0.1,0-0.2,0.1-0.3,0.1h-1.5
			C160.9,329.5,160.8,329.4,160.8,329.2z M168.1,325.2l-1.8-4.4l-1.8,4.4H168.1z"/>
		<path class="st2" d="M173.8,328.2c-1.1-1.2-1.7-2.8-1.6-4.4c-0.1-1.6,0.5-3.2,1.6-4.4c1.2-1.1,2.8-1.7,4.4-1.5
			c0.7,0,1.4,0.1,2.1,0.2c0.6,0.1,1.1,0.4,1.7,0.7c0.1,0,0.1,0.1,0.1,0.2c0,0.1,0,0.2-0.1,0.2l-0.5,0.8c-0.1,0.1-0.1,0.1-0.2,0.1
			c-0.1,0-0.2,0-0.2-0.1c-0.8-0.5-1.8-0.7-2.7-0.6c-1.1-0.1-2.2,0.3-3,1.1c-0.8,0.9-1.2,2.1-1.1,3.3c-0.1,1.2,0.3,2.4,1.1,3.3
			c0.8,0.8,1.9,1.1,3,1.1c1,0,2-0.2,2.9-0.7c0.1,0,0.1-0.1,0.2-0.1c0.1,0,0.1,0,0.2,0.1l0.5,0.9c0,0.1,0,0.1,0,0.2
			c0,0.1-0.1,0.1-0.2,0.2c-1.2,0.7-2.6,1-3.9,0.9C176.6,329.8,175,329.3,173.8,328.2z"/>
		<path class="st2" d="M184.2,329.3c-0.1-0.1-0.2-0.3-0.1-0.5v-10.2c0-0.2,0-0.3,0.1-0.5c0.1-0.1,0.3-0.2,0.5-0.1h0.9
			c0.2,0,0.4,0,0.5,0.1c0.1,0.1,0.2,0.3,0.1,0.5v9.2h5.2c0.2,0,0.3,0,0.5,0.1c0.1,0.1,0.2,0.3,0.1,0.5v0.5c0,0.2,0,0.3-0.1,0.4
			c-0.1,0.1-0.3,0.1-0.5,0.1h-6.7C184.5,329.5,184.3,329.4,184.2,329.3z"/>
		<path class="st2" d="M193.2,329.3c-0.1-0.1-0.2-0.3-0.1-0.5v-10.2c0-0.2,0-0.3,0.1-0.5c0.1-0.1,0.3-0.2,0.5-0.1h7
			c0.3-0.1,0.5,0.1,0.6,0.4c0,0.1,0,0.1,0,0.2v0.5c0,0.2,0,0.3-0.1,0.5c-0.1,0.1-0.3,0.2-0.5,0.1h-5.5v3.3h4c0.2,0,0.3,0,0.5,0.1
			c0.1,0.1,0.1,0.3,0.1,0.5v0.4c0,0.2,0,0.3-0.1,0.5c-0.1,0.1-0.3,0.2-0.5,0.1h-4v3.3h5.5c0.3-0.1,0.6,0.1,0.6,0.4
			c0,0.1,0,0.1,0,0.2v0.5c0,0.2,0,0.3-0.1,0.4c-0.1,0.1-0.3,0.2-0.5,0.1h-7C193.5,329.5,193.3,329.4,193.2,329.3z"/>
		<path class="st2" d="M204.5,329.5c-0.7-0.1-1.3-0.4-1.9-0.7c-0.1-0.1-0.2-0.2-0.2-0.3c0-0.1,0-0.1,0.1-0.2l0.6-0.9
			c0.1-0.1,0.1-0.1,0.2-0.1c0.1,0,0.1,0,0.2,0.1c0.5,0.3,0.9,0.5,1.5,0.6c0.5,0.2,1.1,0.2,1.7,0.2c0.6,0,1.2-0.1,1.7-0.4
			c0.6-0.5,0.7-1.3,0.4-2c-0.2-0.2-0.4-0.4-0.6-0.5c-0.3-0.1-0.7-0.3-1.4-0.6l-0.4-0.1c-0.6-0.2-1.2-0.5-1.8-0.9
			c-0.5-0.3-0.9-0.6-1.2-1.1c-0.3-0.5-0.5-1-0.5-1.6c0-0.9,0.4-1.8,1.2-2.4c0.9-0.6,2-0.9,3.1-0.8c0.7,0,1.3,0.1,2,0.2
			c0.5,0.1,1,0.4,1.5,0.7c0.1,0.1,0.2,0.2,0.2,0.3c0,0.1,0,0.1-0.1,0.2l-0.5,0.9c-0.1,0.1-0.1,0.2-0.2,0.2c-0.1,0-0.2-0.1-0.2-0.1
			c-0.8-0.5-1.7-0.7-2.7-0.7c-0.6,0-1.1,0.1-1.6,0.4c-0.6,0.5-0.7,1.4-0.3,2.1c0.2,0.2,0.4,0.4,0.7,0.5c0.5,0.2,0.9,0.4,1.4,0.6
			l0.4,0.2c0.7,0.3,1.3,0.6,1.9,0.9c0.4,0.2,0.8,0.6,1.1,1c0.3,0.5,0.4,1,0.4,1.6c0,0.9-0.3,1.7-1,2.3c-0.9,0.6-2,0.9-3.1,0.8
			C206.1,329.7,205.3,329.7,204.5,329.5z"/>
		<g>
			<defs>
				<path id="SVGID_1_" d="M53.1,44h129.2c13.7,0,24.8,11.1,24.8,24.8v192.6c0,13.7-11.1,24.8-24.8,24.8H53.1
					c-13.7,0-24.8-11.1-24.8-24.8V68.8C28.3,55.1,39.4,44,53.1,44z"/>
			</defs>
			<clipPath id="SVGID_2_">
				<use xlink:href="#SVGID_1_"  style="overflow:visible;"/>
			</clipPath>
			<g class="st3">
				<rect x="29.3" y="-3.3" class="st4" width="177.4" height="209.4"/>
				<rect x="21.6" y="184.4" class="st5" width="192.7" height="124.6"/>
				<rect x="29.3" y="289" class="st6" width="177.3" height="20"/>
				<rect x="29.3" y="-3.3" class="st7" width="177.3" height="312.3"/>
				<rect x="13.1" y="17.5" class="st8" width="204.6" height="167.9"/>
				<rect x="4.8" y="152.4" class="st9" width="217.4" height="37.5"/>
				<polygon class="st10" points="27.7,142.6 81.7,162.7 22.1,175.7 				"/>
				<polygon class="st10" points="198.7,142.6 144.7,162.7 204.3,175.7 				"/>
				<path class="st11" d="M153.4,204.6L153.4,204.6c-3.2,0-5.8-2.6-5.8-5.9v-64.3c0-3.2,2.6-5.8,5.8-5.8l0,0c3.2,0,5.8,2.6,5.9,5.8
					v64.3C159.3,202,156.6,204.6,153.4,204.6z"/>
				<path class="st12" d="M128.9,106.8l53.8,8.9c4.2,0.7,7.1,4.7,6.4,9l-2.2,13.5c-0.7,4.2-4.7,7.1-9,6.4l-53.8-8.9
					c-4.2-0.7-7.1-4.7-6.4-9l2.2-13.5C120.6,109,124.7,106.1,128.9,106.8z"/>
				<path class="st11" d="M89.1,198.7L89.1,198.7c-2.7,0-4.9-2.2-4.9-4.9v-53.6c0-2.7,2.2-4.9,4.9-4.9l0,0c2.7,0,4.9,2.2,4.9,4.9
					v53.6C94,196.5,91.8,198.7,89.1,198.7z"/>
				<path class="st11" d="M29.5,112.2h4.3c3.2,0,5.8,2.6,5.8,5.8v92.2c0,3.2-2.6,5.8-5.8,5.8h-4.3c-3.2,0-5.8-2.6-5.8-5.8V118
					C23.6,114.8,26.2,112.2,29.5,112.2z"/>
				<path class="st11" d="M64.8,187L64.8,187c-2.7,0-4.9-2.2-4.9-4.9v-53.5c0-2.7,2.2-4.9,4.9-4.9l0,0c2.7,0,4.9,2.2,4.9,4.9v53.6
					C69.6,184.8,67.5,187,64.8,187z"/>
				<path class="st11" d="M177.8,187L177.8,187c-2.7,0-4.9-2.2-4.9-4.9v-53.5c0-2.7,2.2-4.9,4.9-4.9l0,0c2.7,0,4.9,2.2,4.9,4.9v53.6
					C182.6,184.8,180.5,187,177.8,187z"/>
				<path class="st13" d="M108.1,137l-33.5,6.1c-6.6,1.2-12.9-3.2-14.2-9.8l0,0c-1.2-6.6,3.2-12.9,9.8-14.2l33.5-6.1
					c6.6-1.2,12.9,3.2,14.2,9.8l0,0C119.1,129.4,114.7,135.8,108.1,137z"/>
				<path class="st11" d="M118.4,181.2L118.4,181.2c-3.2,0-5.8-2.6-5.8-5.9v-64.3c0-3.2,2.6-5.8,5.8-5.8l0,0c3.2,0,5.8,2.6,5.8,5.8
					v64.3C124.2,178.6,121.6,181.2,118.4,181.2z"/>
				<path class="st11" d="M201.4,109.2h5.8c3.2,0,5.8,2.6,5.8,5.8v102.1c0,3.2-2.6,5.8-5.8,5.8h-5.8c-3.2,0-5.8-2.6-5.8-5.8V115
					C195.6,111.8,198.2,109.2,201.4,109.2z"/>
				<ellipse class="st5" cx="112.6" cy="200.2" rx="116.8" ry="39.5"/>
				<path class="st14" d="M70.9,134.1l-51.4,11.2c-20.5,4.4-40.7-8.6-45.2-29.1l0,0c-4.4-20.5,8.6-40.7,29-45.2l51.4-11.2
					c20.5-4.4,40.7,8.6,45.2,29.1l0,0C104.4,109.4,91.4,129.6,70.9,134.1z"/>
				<path class="st14" d="M223.8,151l-51.3-11.8c-20.4-4.7-33.2-25.1-28.6-45.5l0,0c4.8-20.4,25.1-33.1,45.5-28.5L240.8,77
					c20.4,4.8,33.1,25.1,28.5,45.5l0,0C264.6,142.9,244.2,155.6,223.8,151z"/>
				<polygon class="st7" points="202.6,11.7 36.5,11.7 36.5,184.7 36.5,204.7 36.5,299.5 202.5,299.5 202.5,204.7 202.6,204.7 				
					"/>
				<path class="st11" d="M115.2,134.4c-0.8,0-1.6-0.3-2.2-0.9l-20.2-20.2c-1.2-1.2-1.2-3.2,0-4.5s3.2-1.2,4.5,0l20.2,20.2
					c1.2,1.2,1.2,3.2,0,4.5C116.8,134.1,116,134.4,115.2,134.4L115.2,134.4z"/>
				<path class="st15" d="M90.8,40.9h52.6c21,0,38,17,38,38l0,0c0,21-17,38-38,38H90.8c-21,0-38-17-38-38l0,0
					C52.8,57.9,69.8,40.9,90.8,40.9z"/>
				<path class="st16" d="M156,70.3c-5.4,9.6-8.6,29.2-8.6,29.2L156,70.3z"/>
				<path class="st16" d="M152.8,74.8L152.8,74.8c-0.6,0.1-1.3-0.3-1.4-0.9l-0.4-2c-0.1-0.6,0.3-1.3,0.9-1.4l0,0
					c0.6-0.1,1.3,0.3,1.4,0.9l0.5,2C153.8,74,153.4,74.7,152.8,74.8z"/>
				<path class="st16" d="M151.1,80.6L151.1,80.6c-0.6,0.3-1.3,0.1-1.6-0.4l-1-1.8c-0.3-0.6-0.1-1.3,0.4-1.6l0,0
					c0.6-0.3,1.3-0.1,1.6,0.4l1,1.8C151.8,79.6,151.6,80.3,151.1,80.6z"/>
				<path class="st16" d="M149.4,85.9L149.4,85.9c-0.5,0.5-1.2,0.5-1.7,0l-1.4-1.4c-0.5-0.5-0.5-1.2,0-1.7l0,0
					c0.5-0.5,1.2-0.5,1.7,0l1.4,1.4C149.9,84.7,149.9,85.4,149.4,85.9z"/>
				<path class="st16" d="M147.9,92.4L147.9,92.4c-0.5,0.4-1.2,0.4-1.7-0.1l-1.3-1.5c-0.4-0.5-0.4-1.2,0.1-1.7l0,0
					c0.5-0.4,1.2-0.4,1.7,0.1l1.3,1.5C148.4,91.3,148.4,92,147.9,92.4C147.9,92.4,147.9,92.4,147.9,92.4z"/>
				<path class="st16" d="M155.4,71.4L155.4,71.4c-0.6-0.2-0.9-0.9-0.7-1.5l0.7-1.9c0.2-0.6,0.9-0.9,1.5-0.7l0,0
					c0.6,0.2,0.9,0.9,0.7,1.5l-0.7,1.9C156.7,71.3,156,71.6,155.4,71.4z"/>
				<path class="st16" d="M155.6,75.9L155.6,75.9c-0.5-0.5-0.5-1.2,0-1.6l1.5-1.4c0.4-0.4,1.1-0.4,1.5,0.1l0.1,0.1
					c0.4,0.4,0.4,1.1-0.1,1.5l-1.5,1.4C156.6,76.4,156,76.4,155.6,75.9z"/>
				<path class="st16" d="M153.7,81.5l-0.1-0.1c-0.3-0.5,0-1.2,0.5-1.4l1.9-0.9c0.5-0.3,1.2,0,1.4,0.5l0.1,0.1
					c0.3,0.5,0,1.2-0.5,1.4l-1.9,0.9C154.6,82.2,154,82,153.7,81.5z"/>
				<path class="st16" d="M152.2,86.5l0-0.1c-0.1-0.6,0.3-1.1,0.9-1.3l2-0.4c0.6-0.1,1.1,0.3,1.3,0.9l0,0.1c0.1,0.6-0.3,1.1-0.9,1.3
					l-2,0.4C152.9,87.5,152.3,87.1,152.2,86.5z"/>
				<path class="st16" d="M150.6,91.9l0-0.1c-0.2-0.6,0.2-1.2,0.8-1.3l2-0.5c0.6-0.2,1.2,0.2,1.3,0.8l0,0.1c0.2,0.6-0.2,1.2-0.8,1.3
					l-2,0.5C151.3,92.8,150.8,92.5,150.6,91.9z"/>
				<path class="st17" d="M57.9,233.5h113.6c4.3,0,7.8,3.5,7.8,7.8v3.1c0,4.3-3.5,7.8-7.8,7.8H57.9c-4.3,0-7.8-3.5-7.8-7.8v-3.1
					C50.1,237,53.6,233.5,57.9,233.5z"/>
				<path class="st18" d="M149.4,97.5l0.4,0.4c1.3,1.3,1.3,3.5,0,4.8l-18.2,18c-1.3,1.3-3.5,1.3-4.8,0l-0.4-0.4
					c-1.3-1.3-1.3-3.5,0-4.8l18.2-18C145.9,96.1,148.1,96.1,149.4,97.5z"/>
				<path class="st18" d="M132.4,117.3l-0.1,0.6c-0.3,2.1-2.2,3.5-4.3,3.2l-15-2.1c-2.1-0.3-3.5-2.2-3.2-4.3l0.1-0.6
					c0.3-2.1,2.2-3.5,4.3-3.2l15,2.1C131.3,113.3,132.7,115.2,132.4,117.3z"/>
				<path class="st16" d="M107.6,114c0-4.7,3.8-8.5,8.6-8.6l0,0c4.7,0,8.5,3.8,8.6,8.6v5.6h-17.1V114z"/>
				<path class="st18" d="M119.9,94.1c0,1.9,1.5,3.4,3.4,3.4c1.9,0,3.4-1.5,3.4-3.4s-1.5-3.4-3.4-3.4c0,0,0,0,0,0
					C121.4,90.7,119.9,92.2,119.9,94.1z"/>
				<path class="st19" d="M122.1,94.8c0.4,0.7,1.2,0.9,1.9,0.5s0.9-1.2,0.5-1.9c-0.4-0.6-1.2-0.9-1.9-0.5
					C121.9,93.3,121.7,94.1,122.1,94.8C122.1,94.8,122.1,94.8,122.1,94.8z"/>
				<path class="st20" d="M124.1,163.8H90.4c-1,0-1.9-0.8-1.9-1.9v-39c0-9.5,7.7-17.3,17.3-17.3h2.9c9.5,0,17.3,7.7,17.3,17.3v39
					C126,163,125.2,163.8,124.1,163.8C124.1,163.8,124.1,163.8,124.1,163.8z"/>
				<path class="st18" d="M108.1,109.5h-0.7c-2.3,0-4.2-1.9-4.2-4.2V95.2c0-2.3,1.9-4.2,4.2-4.2h0.7c2.3,0,4.2,1.9,4.2,4.2v10.2
					C112.3,107.7,110.4,109.5,108.1,109.5z"/>
				<path class="st19" d="M112.3,105c0,0-4.8,2.7-9.2,0.1v-1.5h9.2V105z"/>
				<path class="st18" d="M92.5,81.8v9.5c0,7.7,6.3,14,14,14h2.4c7.7,0,14-6.3,14-14v-9.5"/>
				<path class="st20" d="M93.6,76.3c-0.2-0.6-0.3-1.2-0.3-1.9l0,0c0-0.7,0.1-1.3,0.3-1.9c0.9-4.3,5.1-7,9.3-6.1
					c1.2,0.3,2.3,0.8,3.3,1.5c0.6-0.4,1.3-0.7,2.1-0.7c0.8,0,1.6,0.3,2.3,0.8c1.5-1.3,3.4-1.9,5.3-1.8c3.5,0.2,6.4,2.5,7.3,5.8
					c0.4,1.3,0.4,2.8,0,4.1c3.7,0.1,6.5,3.2,6.4,6.9c-0.1,3.7-3.2,6.5-6.9,6.4c-3.6-0.1-6.4-3.1-6.4-6.7c0-0.3,0-0.6,0.1-0.9
					c-0.2,0-0.5,0-0.8,0c-1.8,0-3.5-0.6-4.9-1.7c-1.3,1.2-3.3,1.3-4.7,0.2c-1.4,1-3,1.6-4.7,1.6h-0.1c0,0.3,0.1,0.6,0.1,0.9
					c0,3.7-3,6.7-6.7,6.7c-3.7,0-6.7-3-6.7-6.7C87.9,79.6,90.3,76.8,93.6,76.3z"/>
				<path class="st20" d="M105.4,90.9h-3c-0.3,0-0.6-0.3-0.6-0.6v-0.1c0-0.3,0.3-0.6,0.6-0.6h3c0.3,0,0.6,0.3,0.6,0.6v0.1
					C106,90.7,105.8,90.9,105.4,90.9z"/>
				<path class="st20" d="M119.7,90.9h-3c-0.3,0-0.6-0.3-0.6-0.6v-0.1c0-0.3,0.3-0.6,0.6-0.6h3c0.3,0,0.6,0.3,0.6,0.6v0.1
					C120.3,90.7,120,90.9,119.7,90.9z"/>
				<path class="st19" d="M112.3,93.4c0.9,0,1.6,0.7,1.6,1.6c0,0,0,0,0,0h-3.2C110.7,94.1,111.4,93.4,112.3,93.4L112.3,93.4z"/>
				<path class="st20" d="M106.6,81.6c0,2.8,2.3,5.2,5.1,5.2s5.2-2.3,5.2-5.1s-2.3-5.2-5.1-5.2c0,0,0,0,0,0
					C108.9,76.4,106.6,78.7,106.6,81.6z"/>
				<path class="st20" d="M100.8,82c0,1.7,1.3,3,3,3s3-1.3,3-3s-1.3-3-3-3S100.8,80.3,100.8,82z"/>
				<path class="st20" d="M117.9,87.1h-17.6c-1.4,0-2.5-1.1-2.5-2.5v-0.4c0-1.4,1.1-2.5,2.5-2.5h17.6c1.4,0,2.5,1.1,2.5,2.5v0.4
					C120.5,86,119.3,87.1,117.9,87.1z"/>
				<path class="st21" d="M116.8,93c0,0.7,0.5,1.2,1.2,1.2s1.2-0.5,1.2-1.2s-0.5-1.2-1.2-1.2S116.8,92.3,116.8,93L116.8,93z"/>
				<path class="st21" d="M102.4,93c0,0.7,0.5,1.2,1.2,1.2s1.2-0.5,1.2-1.2s-0.5-1.2-1.2-1.2S102.4,92.3,102.4,93L102.4,93z"/>
				<circle class="st20" cx="92" cy="90.9" r="3.9"/>
				<path class="st18" d="M93.2,90c0,1.9,1.5,3.4,3.4,3.4s3.4-1.5,3.4-3.4s-1.5-3.4-3.4-3.4c0,0,0,0,0,0
					C94.7,86.6,93.2,88.1,93.2,90z"/>
				<path class="st19" d="M95.4,90.6c0.4,0.7,1.2,0.9,1.9,0.5c0.7-0.4,0.9-1.2,0.5-1.9c-0.4-0.7-1.2-0.9-1.9-0.5c0,0,0,0,0,0
					C95.2,89.1,95,90,95.4,90.6z"/>
				<circle class="st20" cx="92.5" cy="100.2" r="7.6"/>
				<path class="st19" d="M114.9,99.5h-6.4c-0.4,0-0.8-0.4-0.8-0.8l0,0c0-0.4,0.4-0.8,0.8-0.8h6.4c0.4,0,0.8,0.4,0.8,0.8l0,0
					C115.7,99.1,115.4,99.5,114.9,99.5z"/>
				<path class="st20" d="M86.5,162.6c-10-0.3-20.8,5.8-25.3,14.8c-2.7,5.3-1.7,11.2-0.5,16.8c1,4.6,2.6,12.3-3.5,14.2
					c1.5-0.5,5.2,1.2,7.2,0.9c5.8-1,10.9-5.4,13.4-10.6c3-6.2,0.8-12.9,1.8-19.5c0.4-3.1,1.2-6.2,2.3-9.1
					C82.4,168.9,85,162.6,86.5,162.6z"/>
				<path class="st20" d="M138.1,167.9h-0.8c-2.7,0-5-2.2-5-5V126c0-2.7,2.2-5,5-5h0.8c2.7,0,5,2.2,5,5v36.9
					C143.1,165.7,140.8,167.9,138.1,167.9z"/>
				<rect x="139.4" y="125.3" class="st22" width="22.4" height="58.1"/>
				<path class="st22" d="M144.6,144.6c-6.9-6.9-6.9-18,0-24.9l0,0c4.1-4.1,9.9-5.9,15.5-4.9l-0.1,0.1c-0.8,0.8-0.8,2.1,0,2.9
					l13.8,13.8l-19.1,23.1c-0.3-0.3-0.6-0.6-0.9-0.9L144.6,144.6z"/>
				<path class="st22" d="M160,117.8c-0.8-0.8-0.8-2.1,0-2.9l0.1-0.1c3.6,0.6,6.8,2.3,9.4,4.9l7.8,7.8l-3.5,4.2L160,117.8z"/>
				<path class="st20" d="M176,133.8c0.8,0.8,2.1,0.8,2.9,0l2.1-2.1c4.6,7,3.6,16.2-2.3,22.1l0,0c-6.5,6.5-17,6.9-24,0.9l19.1-23.1
					L176,133.8z"/>
				<path class="st22" d="M160.8,119.5h-0.7c-2.3,0-4.2-1.9-4.2-4.2v-10c0-2.3,1.9-4.2,4.2-4.2h0.7c2.3,0,4.2,1.9,4.2,4.2v10
					C164.9,117.6,163.1,119.5,160.8,119.5z"/>
				<path class="st20" d="M160.8,119.5h-0.7c-2.3,0-4.2-1.9-4.2-4.2v-6.4c0-2.3,1.9-4.2,4.2-4.2h0.7c2.3,0,4.2,1.9,4.2,4.2v6.4
					C164.9,117.6,163.1,119.5,160.8,119.5z"/>
				<path class="st20" d="M158.2,116.6c0,2.8,2.3,5.2,5.2,5.2c2.8,0,5.1-2.3,5.1-5.2c0-2.8-2.3-5.2-5.2-5.2l0,0
					C160.5,111.5,158.2,113.8,158.2,116.6z"/>
				<circle class="st20" cx="155.9" cy="118.8" r="4"/>
				<circle class="st20" cx="149.1" cy="121.3" r="5.1"/>
				<path class="st20" d="M148.5,114.8c0,2.8,2.3,5.1,5.1,5.1s5.1-2.3,5.1-5.1c0-2.8-2.3-5.1-5.1-5.1c0,0,0,0,0,0
					C150.8,109.8,148.5,112,148.5,114.8C148.5,114.8,148.5,114.8,148.5,114.8z"/>
				<path class="st22" d="M143.3,128.2h-0.9c-2.9,0-5.3-2.4-5.3-5.3v-12.6c0-2.9,2.4-5.3,5.3-5.3h0.9c2.9,0,5.3,2.4,5.3,5.3v12.6
					C148.5,125.8,146.2,128.2,143.3,128.2z"/>
				<path class="st20" d="M143.3,128.2h-0.9c-2.9,0-5.3-2.4-5.3-5.3v-8.1c0-2.9,2.4-5.3,5.3-5.3h0.9c2.9,0,5.3,2.4,5.3,5.3v8.1
					C148.5,125.8,146.2,128.2,143.3,128.2z"/>
				<path class="st20" d="M181,131.7l-2.1,2.1c-0.8,0.8-2.1,0.8-2.9,0l-2.1-2.1l3.5-4.2l1.4,1.4C179.6,129.7,180.3,130.7,181,131.7z
					"/>
				<path class="st20" d="M152.8,130.9c0,2.1,1.7,3.8,3.8,3.8c2.1,0,3.8-1.7,3.8-3.8c0-2.1-1.7-3.8-3.8-3.8
					C154.5,127.1,152.8,128.8,152.8,130.9z"/>
				<path class="st22" d="M140.8,204.9H91.6c-11.8,0-21.3-9.5-21.3-21.3V180c0-11.8,9.5-21.3,21.3-21.3h49.2
					c11.8,0,21.3,9.5,21.3,21.3v3.6C162.1,195.4,152.5,204.9,140.8,204.9z"/>
				<rect x="142.8" y="178.3" class="st22" width="19.2" height="55.2"/>
				<rect x="142.8" y="233.6" class="st23" width="19.2" height="11.1"/>
				<polygon class="st22" points="70.3,181.8 88.2,196.7 88.2,233.6 70.3,233.6 				"/>
				<rect x="70.3" y="233.6" class="st23" width="17.9" height="11.1"/>
				<rect x="88.6" y="148.7" class="st16" width="37.6" height="11.2"/>
				<path class="st18" d="M129,163.6l-0.1,0.9c-0.2,2.8-2.7,4.9-5.5,4.7l-16.2-1.3c-2.8-0.2-4.9-2.7-4.7-5.5l0.1-0.9
					c0.2-2.8,2.7-4.9,5.5-4.7l16.2,1.3C127.2,158.3,129.3,160.8,129,163.6z"/>
				<path class="st18" d="M145.4,193.4l-1.1-0.7c-0.6-0.4-1.3-0.6-2.1-0.5l-4.4,0.2c0-0.1,0-0.1,0-0.2l-2-7.3l-1.5-5.4l-4.7-17
					c-0.9-3.1-4.1-5-7.2-4.1c-3.1,0.9-5,4.1-4.1,7.2l4.7,17l1.5,5.4l1.8,6.3c-0.7,0.9-0.9,2-0.6,3l1,3.7c0.5,1.9,2.4,3,4.3,2.4
					c0,0,0,0,0,0l13.5-3.7c1.9-0.6,2.9-2.5,2.3-4.4C146.6,194.6,146.1,193.9,145.4,193.4z"/>
				<path class="st24" d="M130.4,168.3l-10.4,2.9c-0.5,0.1-1-0.2-1.2-0.7l-0.1-0.3c-0.1-0.5,0.2-1,0.7-1.2l10.4-2.9
					c0.5-0.1,1,0.2,1.2,0.7l0.1,0.3C131.2,167.7,130.9,168.2,130.4,168.3z"/>
				<path class="st24" d="M134.2,181.3l-0.2,0.3c-0.4,0.5-1,0.6-1.5,0.2l-12.7-9.7c-0.5-0.4-0.6-1-0.2-1.5l0.2-0.3
					c0.4-0.5,1-0.6,1.5-0.2l12.7,9.7C134.5,180.1,134.5,180.8,134.2,181.3z"/>
				<path class="st24" d="M129.9,167.4l0.3,0.1c0.5,0.2,0.7,0.8,0.5,1.3l-6,15.1c-0.2,0.5-0.8,0.7-1.3,0.5l-0.3-0.1
					c-0.5-0.2-0.7-0.8-0.5-1.3l6-15.1C128.9,167.4,129.4,167.2,129.9,167.4z"/>
				<path class="st24" d="M137.6,193.5l-0.2,0.3c-0.4,0.5-1,0.6-1.5,0.2l-12.7-9.7c-0.5-0.4-0.6-1-0.2-1.5l0.2-0.3
					c0.4-0.5,1-0.6,1.5-0.2l12.7,9.7C137.8,192.4,137.9,193,137.6,193.5z"/>
				<path class="st24" d="M133.4,179.7l0.4,0.1c0.6,0.2,0.8,0.8,0.6,1.4l-5.9,14.8c-0.2,0.6-0.8,0.8-1.4,0.6l-0.4-0.1
					c-0.6-0.2-0.8-0.8-0.6-1.4l5.9-14.8C132.2,179.7,132.8,179.5,133.4,179.7z"/>
				<path class="st24" d="M144.3,200.3l-0.3,0.1c-0.5,0.1-1-0.1-1.1-0.6l-1.5-5.5c-0.1-0.5,0.1-1,0.6-1.1l0.3-0.1
					c0.5-0.1,1,0.1,1.1,0.6l1.5,5.5C145,199.7,144.7,200.2,144.3,200.3z"/>
				<path class="st24" d="M140.4,200.3l-0.3,0.1c-0.5,0.1-1-0.1-1.1-0.6l-1.8-6.4c-0.1-0.5,0.1-1,0.6-1.1l0.3-0.1
					c0.5-0.1,1,0.1,1.1,0.6l1.8,6.4C141.1,199.7,140.8,200.1,140.4,200.3z"/>
				<path class="st24" d="M137.6,194.5l-10,2.8c-0.5,0.1-1-0.2-1.2-0.7l-0.1-0.3c-0.1-0.5,0.2-1,0.7-1.2l10-2.8
					c0.5-0.1,1,0.2,1.2,0.7l0.1,0.3C138.4,193.8,138.1,194.3,137.6,194.5z"/>
				<path class="st24" d="M126.9,202.8l19.6-5.4c0.5-0.1,1,0.1,1.1,0.6l0.1,0.3c0.1,0.5-0.1,1-0.6,1.1l-19.6,5.4
					c-0.5,0.1-1-0.1-1.1-0.6l-0.1-0.3C126.1,203.4,126.4,202.9,126.9,202.8z"/>
				<path class="st24" d="M124.6,194.7l0.4-0.1c0.5-0.2,1.1,0.2,1.3,0.7l2.3,8.2c0.2,0.5-0.2,1.1-0.7,1.3l-0.4,0.1
					c-0.5,0.2-1.1-0.2-1.3-0.7l-2.3-8.2C123.7,195.4,124.1,194.8,124.6,194.7z"/>
				<polygon class="st16" points="88.2,169.4 111.9,169.4 117.5,156 88.2,156 				"/>
				<path class="st18" d="M100.6,136.4h-0.7c-2.3,0-4.2-1.9-4.2-4.2v-16.6c0-2.3,1.9-4.2,4.2-4.2h0.7c2.3,0,4.2,1.9,4.2,4.2v16.6
					C104.8,134.5,102.9,136.4,100.6,136.4C100.6,136.4,100.6,136.4,100.6,136.4z"/>
				<circle class="st24" cx="124.7" cy="124" r="11.1"/>
				<path class="st18" d="M121.1,124.7l-5.9-4.3h7.2l2.2-6.9l2.2,6.9h7.2l-5.9,4.3l2.2,6.9l-5.9-4.3l-5.9,4.3L121.1,124.7z
					 M126.6,120.8l-1.9-5.9l-1.9,5.9h-6.2l5,3.7l-1.9,5.9l5-3.7l5,3.7l-1.9-5.9l5-3.7H126.6z"/>
				<path class="st18" d="M121.1,124.7l1.4-4.3h4.5l1.4,4.3l-3.6,2.6L121.1,124.7z M126.6,120.8h-3.8l-1.2,3.7l3.1,2.3l3.1-2.3
					L126.6,120.8z"/>
				<path class="st18" d="M131.1,133.3v0.6c0,2-1.7,3.7-3.7,3.7H99.2c-2,0-3.7-1.7-3.7-3.7v-0.6c0-2,1.7-3.7,3.7-3.7h28.2
					C129.4,129.6,131.1,131.2,131.1,133.3z"/>
				<path class="st16" d="M90.5,117.6c0-5.4,4.4-9.8,9.8-9.8l0,0c5.4,0,9.8,4.4,9.8,9.8v6.4H90.5V117.6z"/>
				<path class="st18" d="M121.7,131.9h-3c-1,0-1.8-0.8-1.8-1.8l0,0c0-1,0.8-1.8,1.8-1.8h3c1,0,1.8,0.8,1.8,1.8l0,0
					C123.5,131.1,122.7,131.9,121.7,131.9z"/>
				<path class="st18" d="M149.4,97.5l0.4,0.4c1.3,1.3,1.3,3.5,0,4.8l-18.2,18c-1.3,1.3-3.5,1.3-4.8,0l-0.4-0.4
					c-1.3-1.3-1.3-3.5,0-4.8l18.2-18C145.9,96.1,148.1,96.1,149.4,97.5z"/>
				<path class="st18" d="M132.4,117.3l-0.1,0.6c-0.3,2.1-2.2,3.5-4.3,3.2l-15-2.1c-2.1-0.3-3.5-2.2-3.2-4.3l0.1-0.6
					c0.3-2.1,2.2-3.5,4.3-3.2l15,2.1C131.3,113.3,132.7,115.2,132.4,117.3z"/>
				<path class="st16" d="M107.6,114c0-4.7,3.8-8.5,8.6-8.6l0,0c4.7,0,8.5,3.8,8.6,8.6v5.6h-17.1V114z"/>
				<path class="st18" d="M119.9,94.1c0,1.9,1.5,3.4,3.4,3.4c1.9,0,3.4-1.5,3.4-3.4s-1.5-3.4-3.4-3.4c0,0,0,0,0,0
					C121.4,90.7,119.9,92.2,119.9,94.1z"/>
				<path class="st19" d="M122.1,94.8c0.4,0.7,1.2,0.9,1.9,0.5s0.9-1.2,0.5-1.9c-0.4-0.6-1.2-0.9-1.9-0.5
					C121.9,93.3,121.7,94.1,122.1,94.8C122.1,94.8,122.1,94.8,122.1,94.8z"/>
				<path class="st20" d="M124.1,163.8H90.4c-1,0-1.9-0.8-1.9-1.9v-39c0-9.5,7.7-17.3,17.3-17.3h2.9c9.5,0,17.3,7.7,17.3,17.3v39
					C126,163,125.2,163.8,124.1,163.8C124.1,163.8,124.1,163.8,124.1,163.8z"/>
				<path class="st18" d="M108.1,109.5h-0.7c-2.3,0-4.2-1.9-4.2-4.2V95.2c0-2.3,1.9-4.2,4.2-4.2h0.7c2.3,0,4.2,1.9,4.2,4.2v10.2
					C112.3,107.7,110.4,109.5,108.1,109.5z"/>
				<path class="st19" d="M112.3,105c0,0-4.8,2.7-9.2,0.1v-1.5h9.2V105z"/>
				<path class="st18" d="M92.5,81.8v9.5c0,7.7,6.3,14,14,14h2.4c7.7,0,14-6.3,14-14v-9.5"/>
				<path class="st20" d="M93.6,76.3c-0.2-0.6-0.3-1.2-0.3-1.9l0,0c0-0.7,0.1-1.3,0.3-1.9c0.9-4.3,5.1-7,9.3-6.1
					c1.2,0.3,2.3,0.8,3.3,1.5c0.6-0.4,1.3-0.7,2.1-0.7c0.8,0,1.6,0.3,2.3,0.8c1.5-1.3,3.4-1.9,5.3-1.8c3.5,0.2,6.4,2.5,7.3,5.8
					c0.4,1.3,0.4,2.8,0,4.1c3.7,0.1,6.5,3.2,6.4,6.9c-0.1,3.7-3.2,6.5-6.9,6.4c-3.6-0.1-6.4-3.1-6.4-6.7c0-0.3,0-0.6,0.1-0.9
					c-0.2,0-0.5,0-0.8,0c-1.8,0-3.5-0.6-4.9-1.7c-1.3,1.2-3.3,1.3-4.7,0.2c-1.4,1-3,1.6-4.7,1.6h-0.1c0,0.3,0.1,0.6,0.1,0.9
					c0,3.7-3,6.7-6.7,6.7c-3.7,0-6.7-3-6.7-6.7C87.9,79.6,90.3,76.8,93.6,76.3z"/>
				<path class="st20" d="M105.4,90.9h-3c-0.3,0-0.6-0.3-0.6-0.6v-0.1c0-0.3,0.3-0.6,0.6-0.6h3c0.3,0,0.6,0.3,0.6,0.6v0.1
					C106,90.7,105.8,90.9,105.4,90.9z"/>
				<path class="st20" d="M119.7,90.9h-3c-0.3,0-0.6-0.3-0.6-0.6v-0.1c0-0.3,0.3-0.6,0.6-0.6h3c0.3,0,0.6,0.3,0.6,0.6v0.1
					C120.3,90.7,120,90.9,119.7,90.9z"/>
				<path class="st19" d="M112.3,93.4c0.9,0,1.6,0.7,1.6,1.6c0,0,0,0,0,0h-3.2C110.7,94.1,111.4,93.4,112.3,93.4L112.3,93.4z"/>
				<path class="st20" d="M106.6,81.6c0,2.8,2.3,5.2,5.1,5.2s5.2-2.3,5.2-5.1s-2.3-5.2-5.1-5.2c0,0,0,0,0,0
					C108.9,76.4,106.6,78.7,106.6,81.6z"/>
				<path class="st20" d="M100.8,82c0,1.7,1.3,3,3,3s3-1.3,3-3s-1.3-3-3-3S100.8,80.3,100.8,82z"/>
				<path class="st20" d="M117.9,87.1h-17.6c-1.4,0-2.5-1.1-2.5-2.5v-0.4c0-1.4,1.1-2.5,2.5-2.5h17.6c1.4,0,2.5,1.1,2.5,2.5v0.4
					C120.5,86,119.3,87.1,117.9,87.1z"/>
				<path class="st21" d="M116.8,93c0,0.7,0.5,1.2,1.2,1.2s1.2-0.5,1.2-1.2s-0.5-1.2-1.2-1.2S116.8,92.3,116.8,93L116.8,93z"/>
				<path class="st21" d="M102.4,93c0,0.7,0.5,1.2,1.2,1.2s1.2-0.5,1.2-1.2s-0.5-1.2-1.2-1.2S102.4,92.3,102.4,93L102.4,93z"/>
				<circle class="st20" cx="92" cy="90.9" r="3.9"/>
				<path class="st18" d="M93.2,90c0,1.9,1.5,3.4,3.4,3.4s3.4-1.5,3.4-3.4s-1.5-3.4-3.4-3.4c0,0,0,0,0,0
					C94.7,86.6,93.2,88.1,93.2,90z"/>
				<path class="st19" d="M95.4,90.6c0.4,0.7,1.2,0.9,1.9,0.5c0.7-0.4,0.9-1.2,0.5-1.9c-0.4-0.7-1.2-0.9-1.9-0.5c0,0,0,0,0,0
					C95.2,89.1,95,90,95.4,90.6z"/>
				<circle class="st20" cx="92.5" cy="100.2" r="7.6"/>
				<path class="st19" d="M114.9,99.5h-6.4c-0.4,0-0.8-0.4-0.8-0.8l0,0c0-0.4,0.4-0.8,0.8-0.8h6.4c0.4,0,0.8,0.4,0.8,0.8l0,0
					C115.7,99.1,115.4,99.5,114.9,99.5z"/>
				<path class="st20" d="M86.5,162.6c-10-0.3-20.8,5.8-25.3,14.8c-2.7,5.3-1.7,11.2-0.5,16.8c1,4.6,2.6,12.3-3.5,14.2
					c1.5-0.5,5.2,1.2,7.2,0.9c5.8-1,10.9-5.4,13.4-10.6c3-6.2,0.8-12.9,1.8-19.5c0.4-3.1,1.2-6.2,2.3-9.1
					C82.4,168.9,85,162.6,86.5,162.6z"/>
				<path class="st20" d="M138.1,167.9h-0.8c-2.7,0-5-2.2-5-5V126c0-2.7,2.2-5,5-5h0.8c2.7,0,5,2.2,5,5v36.9
					C143.1,165.7,140.8,167.9,138.1,167.9z"/>
				<rect x="139.4" y="125.3" class="st22" width="22.4" height="58.1"/>
				<path class="st22" d="M144.6,144.6c-6.9-6.9-6.9-18,0-24.9l0,0c4.1-4.1,9.9-5.9,15.5-4.9l-0.1,0.1c-0.8,0.8-0.8,2.1,0,2.9
					l13.8,13.8l-19.1,23.1c-0.3-0.3-0.6-0.6-0.9-0.9L144.6,144.6z"/>
				<path class="st22" d="M160,117.8c-0.8-0.8-0.8-2.1,0-2.9l0.1-0.1c3.6,0.6,6.8,2.3,9.4,4.9l7.8,7.8l-3.5,4.2L160,117.8z"/>
				<path class="st20" d="M176,133.8c0.8,0.8,2.1,0.8,2.9,0l2.1-2.1c4.6,7,3.6,16.2-2.3,22.1l0,0c-6.5,6.5-17,6.9-24,0.9l19.1-23.1
					L176,133.8z"/>
				<path class="st22" d="M160.8,119.5h-0.7c-2.3,0-4.2-1.9-4.2-4.2v-10c0-2.3,1.9-4.2,4.2-4.2h0.7c2.3,0,4.2,1.9,4.2,4.2v10
					C164.9,117.6,163.1,119.5,160.8,119.5z"/>
				<path class="st20" d="M160.8,119.5h-0.7c-2.3,0-4.2-1.9-4.2-4.2v-6.4c0-2.3,1.9-4.2,4.2-4.2h0.7c2.3,0,4.2,1.9,4.2,4.2v6.4
					C164.9,117.6,163.1,119.5,160.8,119.5z"/>
				<path class="st20" d="M158.2,116.6c0,2.8,2.3,5.2,5.2,5.2c2.8,0,5.1-2.3,5.1-5.2c0-2.8-2.3-5.2-5.2-5.2l0,0
					C160.5,111.5,158.2,113.8,158.2,116.6z"/>
				<circle class="st20" cx="155.9" cy="118.8" r="4"/>
				<circle class="st20" cx="149.1" cy="121.3" r="5.1"/>
				<path class="st20" d="M148.5,114.8c0,2.8,2.3,5.1,5.1,5.1s5.1-2.3,5.1-5.1c0-2.8-2.3-5.1-5.1-5.1c0,0,0,0,0,0
					C150.8,109.8,148.5,112,148.5,114.8C148.5,114.8,148.5,114.8,148.5,114.8z"/>
				<path class="st22" d="M143.3,128.2h-0.9c-2.9,0-5.3-2.4-5.3-5.3v-12.6c0-2.9,2.4-5.3,5.3-5.3h0.9c2.9,0,5.3,2.4,5.3,5.3v12.6
					C148.5,125.8,146.2,128.2,143.3,128.2z"/>
				<path class="st20" d="M143.3,128.2h-0.9c-2.9,0-5.3-2.4-5.3-5.3v-8.1c0-2.9,2.4-5.3,5.3-5.3h0.9c2.9,0,5.3,2.4,5.3,5.3v8.1
					C148.5,125.8,146.2,128.2,143.3,128.2z"/>
				<path class="st20" d="M181,131.7l-2.1,2.1c-0.8,0.8-2.1,0.8-2.9,0l-2.1-2.1l3.5-4.2l1.4,1.4C179.6,129.7,180.3,130.7,181,131.7z
					"/>
				<path class="st20" d="M152.8,130.9c0,2.1,1.7,3.8,3.8,3.8c2.1,0,3.8-1.7,3.8-3.8c0-2.1-1.7-3.8-3.8-3.8
					C154.5,127.1,152.8,128.8,152.8,130.9z"/>
				<path class="st22" d="M140.8,204.9H91.6c-11.8,0-21.3-9.5-21.3-21.3V180c0-11.8,9.5-21.3,21.3-21.3h49.2
					c11.8,0,21.3,9.5,21.3,21.3v3.6C162.1,195.4,152.5,204.9,140.8,204.9z"/>
				<rect x="142.8" y="178.3" class="st22" width="19.2" height="55.2"/>
				<rect x="142.8" y="233.6" class="st23" width="19.2" height="11.1"/>
				<polygon class="st22" points="70.3,181.8 88.2,196.7 88.2,233.6 70.3,233.6 				"/>
				<rect x="70.3" y="233.6" class="st23" width="17.9" height="11.1"/>
				<rect x="88.6" y="148.7" class="st16" width="37.6" height="11.2"/>
				<path class="st18" d="M129,163.6l-0.1,0.9c-0.2,2.8-2.7,4.9-5.5,4.7l-16.2-1.3c-2.8-0.2-4.9-2.7-4.7-5.5l0.1-0.9
					c0.2-2.8,2.7-4.9,5.5-4.7l16.2,1.3C127.2,158.3,129.3,160.8,129,163.6z"/>
				<path class="st18" d="M145.4,193.4l-1.1-0.7c-0.6-0.4-1.3-0.6-2.1-0.5l-4.4,0.2c0-0.1,0-0.1,0-0.2l-2-7.3l-1.5-5.4l-4.7-17
					c-0.9-3.1-4.1-5-7.2-4.1c-3.1,0.9-5,4.1-4.1,7.2l4.7,17l1.5,5.4l1.8,6.3c-0.7,0.9-0.9,2-0.6,3l1,3.7c0.5,1.9,2.4,3,4.3,2.4
					c0,0,0,0,0,0l13.5-3.7c1.9-0.6,2.9-2.5,2.3-4.4C146.6,194.6,146.1,193.9,145.4,193.4z"/>
				<path class="st24" d="M130.4,168.3l-10.4,2.9c-0.5,0.1-1-0.2-1.2-0.7l-0.1-0.3c-0.1-0.5,0.2-1,0.7-1.2l10.4-2.9
					c0.5-0.1,1,0.2,1.2,0.7l0.1,0.3C131.2,167.7,130.9,168.2,130.4,168.3z"/>
				<path class="st24" d="M134.2,181.3l-0.2,0.3c-0.4,0.5-1,0.6-1.5,0.2l-12.7-9.7c-0.5-0.4-0.6-1-0.2-1.5l0.2-0.3
					c0.4-0.5,1-0.6,1.5-0.2l12.7,9.7C134.5,180.1,134.5,180.8,134.2,181.3z"/>
				<path class="st24" d="M129.9,167.4l0.3,0.1c0.5,0.2,0.7,0.8,0.5,1.3l-6,15.1c-0.2,0.5-0.8,0.7-1.3,0.5l-0.3-0.1
					c-0.5-0.2-0.7-0.8-0.5-1.3l6-15.1C128.9,167.4,129.4,167.2,129.9,167.4z"/>
				<path class="st24" d="M137.6,193.5l-0.2,0.3c-0.4,0.5-1,0.6-1.5,0.2l-12.7-9.7c-0.5-0.4-0.6-1-0.2-1.5l0.2-0.3
					c0.4-0.5,1-0.6,1.5-0.2l12.7,9.7C137.8,192.4,137.9,193,137.6,193.5z"/>
				<path class="st24" d="M133.4,179.7l0.4,0.1c0.6,0.2,0.8,0.8,0.6,1.4l-5.9,14.8c-0.2,0.6-0.8,0.8-1.4,0.6l-0.4-0.1
					c-0.6-0.2-0.8-0.8-0.6-1.4l5.9-14.8C132.2,179.7,132.8,179.5,133.4,179.7z"/>
				<path class="st24" d="M144.3,200.3l-0.3,0.1c-0.5,0.1-1-0.1-1.1-0.6l-1.5-5.5c-0.1-0.5,0.1-1,0.6-1.1l0.3-0.1
					c0.5-0.1,1,0.1,1.1,0.6l1.5,5.5C145,199.7,144.7,200.2,144.3,200.3z"/>
				<path class="st24" d="M140.4,200.3l-0.3,0.1c-0.5,0.1-1-0.1-1.1-0.6l-1.8-6.4c-0.1-0.5,0.1-1,0.6-1.1l0.3-0.1
					c0.5-0.1,1,0.1,1.1,0.6l1.8,6.4C141.1,199.7,140.8,200.1,140.4,200.3z"/>
				<path class="st24" d="M137.6,194.5l-10,2.8c-0.5,0.1-1-0.2-1.2-0.7l-0.1-0.3c-0.1-0.5,0.2-1,0.7-1.2l10-2.8
					c0.5-0.1,1,0.2,1.2,0.7l0.1,0.3C138.4,193.8,138.1,194.3,137.6,194.5z"/>
				<path class="st24" d="M126.9,202.8l19.6-5.4c0.5-0.1,1,0.1,1.1,0.6l0.1,0.3c0.1,0.5-0.1,1-0.6,1.1l-19.6,5.4
					c-0.5,0.1-1-0.1-1.1-0.6l-0.1-0.3C126.1,203.4,126.4,202.9,126.9,202.8z"/>
				<path class="st24" d="M124.6,194.7l0.4-0.1c0.5-0.2,1.1,0.2,1.3,0.7l2.3,8.2c0.2,0.5-0.2,1.1-0.7,1.3l-0.4,0.1
					c-0.5,0.2-1.1-0.2-1.3-0.7l-2.3-8.2C123.7,195.4,124.1,194.8,124.6,194.7z"/>
				<polygon class="st16" points="88.2,169.4 111.9,169.4 117.5,156 88.2,156 				"/>
				<path class="st18" d="M100.6,136.4h-0.7c-2.3,0-4.2-1.9-4.2-4.2v-16.6c0-2.3,1.9-4.2,4.2-4.2h0.7c2.3,0,4.2,1.9,4.2,4.2v16.6
					C104.8,134.5,102.9,136.4,100.6,136.4C100.6,136.4,100.6,136.4,100.6,136.4z"/>
				<circle class="st18" cx="126.2" cy="123.9" r="10.8"/>
				<circle class="st25" cx="126.2" cy="122.6" r="10.8"/>
				<path class="st26" d="M134.5,119.1h-6.1l-2.2-6.7l-2.2,6.7h-7l5.7,4.2l-2.2,6.7l5.7-4.2l5.7,4.2l-2.2-6.7l5-3.6
					c0.2-0.1,0.2-0.3,0.1-0.4C134.8,119,134.7,119,134.5,119.1z M126.2,113.7l1.7,5.3h-3.5L126.2,113.7z M128.1,119.5l1.2,3.6
					l-3,2.2l-3-2.2l1.2-3.6H128.1z M118.2,119.5h5.6l-1.1,3.3L118.2,119.5z M121.2,128.8l1.7-5.3l2.8,2L121.2,128.8z M131.1,128.8
					l-4.6-3.3l2.8-2L131.1,128.8z M128.5,119.5h5.6l-4.6,3.3L128.5,119.5z"/>
				<polygon class="st27" points="126.2,113.7 124.5,119.1 127.9,119.1 				"/>
				<polygon class="st27" points="121.3,128.8 125.8,125.5 123,123.5 				"/>
				<polygon class="st27" points="123.9,119.5 118.2,119.5 122.8,122.8 				"/>
				<polygon class="st27" points="128.1,119.5 124.3,119.5 123.2,123 126.2,125.2 129.2,123 				"/>
				<polygon class="st27" points="126.6,125.5 131.1,128.8 129.4,123.5 				"/>
				<polygon class="st27" points="128.5,119.5 129.6,122.8 134.2,119.5 				"/>
				<path class="st18" d="M131.1,133.3v0.6c0,2-1.7,3.7-3.7,3.7H99.2c-2,0-3.7-1.7-3.7-3.7v-0.6c0-2,1.7-3.7,3.7-3.7h28.2
					C129.4,129.6,131.1,131.2,131.1,133.3z"/>
				<path class="st16" d="M90.5,117.6c0-5.4,4.4-9.8,9.8-9.8l0,0c5.4,0,9.8,4.4,9.8,9.8v6.4H90.5V117.6z"/>
				<path class="st18" d="M121.7,131.9h-3c-1,0-1.8-0.8-1.8-1.8l0,0c0-1,0.8-1.8,1.8-1.8h3c1,0,1.8,0.8,1.8,1.8l0,0
					C123.5,131.1,122.7,131.9,121.7,131.9z"/>
				<path class="st17" d="M196.9,190.9h-20.1c-1,0-1.8-0.8-1.8-1.8l0,0c0-1,0.8-1.8,1.8-1.8h20.1c1,0,1.8,0.8,1.8,1.8l0,0
					C198.7,190.1,197.9,190.9,196.9,190.9L196.9,190.9z"/>
				<polygon class="st23" points="186.5,156.2 174.9,166.6 198.2,166.6 				"/>
				<rect x="178.2" y="165.9" class="st28" width="16.7" height="19.1"/>
				<rect x="178.2" y="168.6" class="st23" width="16.7" height="1.7"/>
				<rect x="178.2" y="172.9" class="st23" width="16.7" height="1.7"/>
				<rect x="178.2" y="177" class="st23" width="16.7" height="1.7"/>
				<rect x="178.2" y="180.9" class="st23" width="16.7" height="1.7"/>
				<rect x="178.2" y="183.2" class="st28" width="2.9" height="5.4"/>
				<rect x="192.1" y="183.2" class="st28" width="2.9" height="5.4"/>
				<polygon class="st28" points="186.5,157.9 176.7,166.7 196.4,166.7 				"/>
				<path class="st17" d="M55.2,189.9H35.1c-1,0-1.8-0.8-1.8-1.8l0,0c0-1,0.8-1.8,1.8-1.8h20.1c1,0,1.8,0.8,1.8,1.8l0,0
					C57,189.1,56.2,189.9,55.2,189.9z"/>
				<polygon class="st23" points="45,154.1 33,164.9 57,164.9 				"/>
				<rect x="36.4" y="164.1" class="st28" width="17.3" height="19.7"/>
				<rect x="36.4" y="167" class="st23" width="17.3" height="1.8"/>
				<rect x="36.4" y="171.4" class="st23" width="17.3" height="1.8"/>
				<rect x="36.4" y="175.6" class="st23" width="17.3" height="1.8"/>
				<rect x="36.4" y="179.6" class="st23" width="17.3" height="1.8"/>
				<rect x="36.4" y="182.1" class="st28" width="2.9" height="5.5"/>
				<rect x="50.7" y="182.1" class="st28" width="2.9" height="5.5"/>
				<polygon class="st28" points="45,155.9 34.8,165 55.2,165 				"/>
			</g>
		</g>
	</g>
</g>
</svg>
