<?xml version="1.0" encoding="utf-8"?>
<!-- Generator: Adobe Illustrator 25.2.3, SVG Export Plug-In . SVG Version: 6.00 Build 0)  -->
<svg version="1.1" id="Layer_1" xmlns="http://www.w3.org/2000/svg" xmlns:xlink="http://www.w3.org/1999/xlink" x="0px" y="0px"
	 viewBox="0 0 235.4 381.8" style="enable-background:new 0 0 235.4 381.8;" xml:space="preserve">
<style type="text/css">
	.st0{fill:#F2B055;}
	.st1{fill:#FFF0CC;}
	.st2{fill:#231F20;}
	.st3{clip-path:url(#SVGID_2_);}
	.st4{fill:#A4F6FF;}
	.st5{fill:#FFFFFF;}
	.st6{fill:#E1DB90;}
	.st7{fill:#ADC57F;}
	.st8{fill:#D1D2D3;}
	.st9{fill:#F1F1F1;}
	.st10{fill:#4A355B;}
	.st11{fill:#F4B155;}
	.st12{fill:#EDD25D;}
	.st13{fill:#ED915C;}
	.st14{fill:#82B686;}
	.st15{fill:#8ECC94;}
	.st16{fill:none;}
	.st17{fill:#84B988;}
	.st18{fill:#FBD67B;}
	.st19{fill:#D3A471;}
	.st20{fill:#EFCA7D;}
	.st21{fill:#F4B055;}
	.st22{fill:#B48C6D;}
	.st23{fill:#47372E;}
	.st24{fill:#FCBC55;}
	.st25{fill:#D36354;}
	.st26{fill:#F2AF55;}
	.st27{fill:#FFD250;}
	.st28{fill:#E3705E;}
	.st29{fill:#FFD150;}
	.st30{fill:#E5AC76;}
	.st31{fill:#E5705F;}
	.st32{fill:#804097;}
</style>
<g id="Layer_2_1_">
	<g id="Layer_1-2">
		<path class="st0" d="M235.4,14.5v352.9c-0.2,8.1-6.9,14.6-15,14.5H15c-8.3,0-15-6.5-15-14.5V14.5C0,6.5,6.7,0,15,0h205.4
			C228.7,0,235.4,6.5,235.4,14.5z M222.8,358.9V22.9c0-6-4.8-10.8-10.8-10.9H23.5c-6,0-10.8,4.9-10.8,10.8c0,0,0,0,0,0v336.1
			c0,6,4.9,10.8,10.8,10.8H212C218,369.7,222.8,364.9,222.8,358.9z"/>
		<path class="st1" d="M23.4,12H212c6,0,10.8,4.8,10.8,10.8v336.1c0,6-4.8,10.8-10.8,10.8H23.4c-6,0-10.8-4.8-10.8-10.8V22.9
			C12.6,16.9,17.5,12,23.4,12z"/>
		<path class="st2" d="M29.4,331.9c-0.6-0.5-1-1.3-1-2.2c-1.4-0.1-2.8-0.8-3.7-1.9c-0.9-1.2-1.4-2.8-1.3-4.3
			c-0.1-1.7,0.4-3.3,1.5-4.6c1.2-1.1,2.8-1.7,4.4-1.6c1.6-0.1,3.3,0.5,4.4,1.6c1.1,1.3,1.7,2.9,1.6,4.6c0.1,1.6-0.4,3.1-1.4,4.4
			c-1,1.1-2.4,1.8-3.9,1.8c0,0.4,0.2,0.9,0.6,1.1c0.4,0.3,0.9,0.4,1.4,0.4c0.6,0,1.2-0.2,1.7-0.5c0,0,0.1-0.1,0.2-0.1
			c0.1,0,0.1,0,0.2,0.1l0.5,0.8c0,0.1,0.1,0.1,0.1,0.2c0,0.1-0.1,0.1-0.2,0.2c-0.4,0.2-0.8,0.4-1.2,0.5c-0.5,0.1-0.9,0.2-1.4,0.2
			C31,332.7,30.1,332.4,29.4,331.9z M32.2,326.9c1.3-2.1,1.3-4.7,0-6.8c-0.7-0.8-1.8-1.2-2.8-1.1c-1.1-0.1-2.1,0.4-2.8,1.2
			c-1.3,2.1-1.3,4.7,0,6.8c0.7,0.8,1.7,1.2,2.8,1.2C30.4,328.2,31.5,327.8,32.2,326.9z"/>
		<path class="st2" d="M39.5,329.2c-1.6-0.6-2.6-2.2-2.5-3.9v-7.1c0-0.2,0-0.4,0.2-0.5c0.1-0.1,0.3-0.2,0.5-0.2h0.9
			c0.2,0,0.4,0,0.5,0.2c0.1,0.1,0.2,0.3,0.2,0.5v7.1c-0.1,0.8,0.2,1.5,0.8,2.1c0.7,0.5,1.5,0.8,2.3,0.7c0.8,0,1.6-0.2,2.3-0.7
			c0.6-0.5,0.9-1.3,0.8-2.1v-7.1c0-0.2,0-0.4,0.2-0.5c0.1-0.1,0.3-0.2,0.5-0.2H47c0.5,0,0.7,0.2,0.7,0.6v7.1c0,0.8-0.2,1.7-0.7,2.4
			c-0.5,0.7-1.1,1.2-1.9,1.5C43.3,329.9,41.3,329.9,39.5,329.2L39.5,329.2z"/>
		<path class="st2" d="M49.8,329.3c-0.1-0.1-0.2-0.3-0.2-0.5v-10.6c0-0.2,0-0.4,0.2-0.5c0.1-0.1,0.3-0.2,0.5-0.2h7.3
			c0.2,0,0.4,0,0.5,0.1c0.1,0.1,0.1,0.3,0.1,0.5v0.5c0,0.2,0,0.3-0.1,0.5c-0.1,0.1-0.3,0.2-0.5,0.1h-5.7v3.4H56c0.2,0,0.4,0,0.5,0.1
			c0.1,0.1,0.2,0.3,0.1,0.5v0.4c0,0.2,0,0.3-0.1,0.5c-0.1,0.1-0.3,0.2-0.5,0.1h-4.1v3.4h5.7c0.2,0,0.4,0,0.5,0.1
			c0.1,0.1,0.2,0.3,0.1,0.5v0.5c0,0.2,0,0.3-0.1,0.5c-0.1,0.1-0.3,0.2-0.5,0.1h-7.3C50.1,329.5,49.9,329.4,49.8,329.3z"/>
		<path class="st2" d="M59.9,329.3c-0.1-0.1-0.2-0.3-0.2-0.5v-10.6c0-0.2,0-0.4,0.2-0.5c0.1-0.1,0.3-0.2,0.5-0.2h7.3
			c0.2,0,0.4,0,0.5,0.1c0.1,0.1,0.1,0.3,0.1,0.5v0.5c0,0.2,0,0.3-0.1,0.5c-0.1,0.1-0.3,0.2-0.5,0.1H62v3.4h4.1c0.2,0,0.4,0,0.5,0.1
			c0.1,0.1,0.2,0.3,0.1,0.5v0.4c0,0.2,0,0.3-0.1,0.5c-0.1,0.1-0.3,0.2-0.5,0.1H62v3.4h5.7c0.2,0,0.4,0,0.5,0.1
			c0.1,0.1,0.2,0.3,0.1,0.5v0.5c0,0.2,0,0.3-0.1,0.5c-0.1,0.1-0.3,0.2-0.5,0.1h-7.3C60.2,329.5,60,329.4,59.9,329.3z"/>
		<path class="st2" d="M70,329.3c-0.1-0.1-0.2-0.3-0.2-0.5v-10.6c0-0.2,0-0.4,0.2-0.5c0.1-0.1,0.3-0.2,0.5-0.2h0.8
			c0.1,0,0.3,0,0.4,0.1c0.1,0.1,0.2,0.2,0.3,0.3l5.8,8v-7.7c0-0.2,0-0.4,0.1-0.5c0.1-0.1,0.3-0.2,0.5-0.2h0.9c0.2,0,0.4,0,0.5,0.2
			c0.1,0.1,0.2,0.3,0.2,0.5v10.6c0,0.2,0,0.3-0.2,0.5c-0.1,0.1-0.3,0.2-0.5,0.2h-0.8c-0.1,0-0.3,0-0.4-0.1c-0.1-0.1-0.2-0.2-0.3-0.3
			l-5.8-8v7.7c0.1,0.3-0.1,0.6-0.4,0.6c-0.1,0-0.1,0-0.2,0h-0.9C70.3,329.5,70.1,329.4,70,329.3z"/>
		<path class="st2" d="M90.1,328.1c-2.1-2.7-2.1-6.5,0-9.2c2.6-2.2,6.3-2.2,8.9,0c2.1,2.7,2.1,6.5,0,9.2
			C96.4,330.3,92.7,330.3,90.1,328.1z M97.4,326.9c1.3-2.1,1.3-4.7,0-6.8c-1.6-1.5-4.1-1.5-5.6,0c-1.3,2.1-1.3,4.7,0,6.8
			C93.3,328.5,95.8,328.5,97.4,326.9z"/>
		<path class="st2" d="M102.4,329.3c-0.1-0.1-0.2-0.3-0.2-0.5v-10.6c0-0.2,0-0.4,0.2-0.5c0.1-0.1,0.3-0.2,0.5-0.2h7.3
			c0.2,0,0.3,0,0.5,0.1c0.1,0.1,0.1,0.3,0.1,0.5v0.5c0,0.2,0,0.3-0.1,0.5c-0.1,0.1-0.3,0.2-0.5,0.1h-5.7v3.4h4.1
			c0.2,0,0.4,0,0.5,0.1c0.1,0.1,0.2,0.3,0.1,0.5v0.5c0,0.2,0,0.3-0.1,0.5c-0.1,0.1-0.3,0.2-0.5,0.1h-4.1v4.5c0,0.2,0,0.3-0.2,0.5
			c-0.1,0.1-0.3,0.2-0.5,0.2h-0.9C102.7,329.5,102.6,329.4,102.4,329.3z"/>
		<path class="st2" d="M119.2,329.3c-0.1-0.1-0.2-0.3-0.2-0.5v-10.6c0-0.2,0-0.4,0.2-0.5c0.1-0.1,0.3-0.2,0.5-0.2h4.5
			c1.2-0.1,2.3,0.3,3.2,1c1.4,1.7,1.4,4.1,0,5.8c-0.9,0.7-2,1.1-3.2,1h-2.9v3.4c0.1,0.3-0.1,0.6-0.4,0.6c-0.1,0-0.1,0-0.2,0h-0.9
			C119.5,329.5,119.3,329.4,119.2,329.3z M124.1,323.8c0.6,0,1.2-0.2,1.6-0.5c0.7-1,0.7-2.4,0-3.4c-0.4-0.4-1-0.6-1.6-0.5h-2.8v4.5
			L124.1,323.8z"/>
		<path class="st2" d="M129.9,329.3c-0.1-0.1-0.2-0.3-0.1-0.5v-10.6c0-0.2,0-0.4,0.1-0.5c0.1-0.1,0.3-0.2,0.5-0.2h7.3
			c0.2,0,0.3,0,0.5,0.1c0.1,0.1,0.1,0.3,0.1,0.5v0.5c0,0.2,0,0.3-0.1,0.5c-0.1,0.1-0.3,0.2-0.5,0.1H132v3.4h4.1c0.2,0,0.4,0,0.5,0.1
			c0.1,0.1,0.2,0.3,0.1,0.5v0.4c0.1,0.3-0.1,0.6-0.4,0.6c-0.1,0-0.2,0-0.2,0H132v3.4h5.7c0.2,0,0.4,0,0.5,0.1
			c0.1,0.1,0.2,0.3,0.1,0.5v0.5c0,0.2,0,0.3-0.1,0.5c-0.1,0.1-0.3,0.2-0.5,0.1h-7.3C130.2,329.5,130.1,329.4,129.9,329.3z"/>
		<path class="st2" d="M140,329.3c-0.1-0.1-0.2-0.3-0.1-0.5v-10.6c0-0.2,0-0.4,0.1-0.5c0.1-0.1,0.3-0.2,0.5-0.2h0.8
			c0.1,0,0.3,0,0.4,0.1c0.1,0.1,0.2,0.2,0.3,0.3l5.8,8v-7.7c0-0.2,0-0.4,0.1-0.5c0.1-0.1,0.3-0.2,0.5-0.2h0.9c0.2,0,0.4,0,0.5,0.2
			c0.1,0.1,0.2,0.3,0.2,0.5v10.6c0,0.2,0,0.3-0.1,0.5c-0.1,0.1-0.3,0.2-0.5,0.2h-0.8c-0.3,0-0.5-0.1-0.6-0.3l-5.8-8v7.7
			c0,0.2,0,0.3-0.1,0.5c-0.1,0.1-0.3,0.2-0.5,0.2h-0.9C140.3,329.5,140.1,329.4,140,329.3z"/>
		<path class="st2" d="M155.3,329.3c-0.1-0.1-0.2-0.3-0.2-0.5v-9.6H152c-0.2,0-0.3,0-0.5-0.1c-0.1-0.1-0.1-0.3-0.1-0.5v-0.5
			c0-0.2,0-0.3,0.1-0.5c0.1-0.1,0.3-0.2,0.5-0.1h8.4c0.2,0,0.4,0,0.5,0.1c0.1,0.1,0.2,0.3,0.1,0.5v0.5c0,0.2,0,0.3-0.1,0.5
			c-0.1,0.1-0.3,0.2-0.5,0.1h-3.1v9.6c0,0.2,0,0.3-0.1,0.5c-0.1,0.1-0.3,0.2-0.5,0.2h-0.9C155.6,329.5,155.4,329.4,155.3,329.3z"/>
		<path class="st2" d="M159.9,329.2c0-0.1,0-0.2,0.1-0.2l4.6-11c0-0.1,0.1-0.3,0.2-0.4c0.1-0.1,0.2-0.1,0.4-0.1h1
			c0.1,0,0.3,0,0.4,0.1c0.1,0.1,0.2,0.2,0.2,0.4l4.6,11c0,0.1,0,0.2,0.1,0.2c0,0.2-0.1,0.3-0.3,0.3h-1.5c-0.1,0-0.2,0-0.3-0.1
			c-0.1-0.1-0.1-0.2-0.2-0.2l-1-2.5h-4.8l-1,2.5c0,0.1-0.1,0.2-0.2,0.2c-0.1,0-0.2,0.1-0.3,0.1h-1.5
			C160,329.5,159.9,329.4,159.9,329.2z M167.5,325.1l-1.9-4.6l-1.9,4.6H167.5z"/>
		<path class="st2" d="M173.4,328.1c-1.2-1.2-1.8-2.9-1.6-4.6c-0.1-1.7,0.5-3.4,1.6-4.6c1.3-1.2,2.9-1.7,4.6-1.6
			c0.7,0,1.5,0.1,2.2,0.2c0.6,0.1,1.2,0.4,1.7,0.7c0.1,0,0.1,0.1,0.2,0.2c0,0.1,0,0.2-0.1,0.2l-0.5,0.8c-0.1,0.1-0.1,0.2-0.2,0.2
			c-0.1,0-0.2,0-0.2-0.1c-0.9-0.5-1.8-0.7-2.8-0.7c-1.1-0.1-2.3,0.3-3.1,1.1c-1.5,2-1.5,4.8,0,6.9c0.8,0.8,2,1.2,3.1,1.1
			c1,0,2.1-0.2,3-0.7c0.1,0,0.1-0.1,0.2-0.1c0.1,0,0.1,0,0.2,0.1l0.5,0.9c0,0.1,0,0.1,0.1,0.2c0,0.1-0.1,0.1-0.2,0.2
			c-1.2,0.7-2.7,1-4.1,1C176.3,329.9,174.7,329.3,173.4,328.1z"/>
		<path class="st2" d="M184.1,329.3c-0.1-0.1-0.2-0.3-0.1-0.5v-10.6c0-0.2,0-0.3,0.1-0.5c0.1-0.1,0.3-0.2,0.5-0.2h0.9
			c0.2,0,0.4,0,0.5,0.2c0.1,0.1,0.2,0.3,0.2,0.5v9.6h5.4c0.2,0,0.4,0,0.5,0.1c0.1,0.1,0.2,0.3,0.1,0.5v0.5c0,0.2,0,0.3-0.1,0.5
			c-0.1,0.1-0.3,0.2-0.5,0.1h-7C184.4,329.5,184.3,329.4,184.1,329.3z"/>
		<path class="st2" d="M193.5,329.3c-0.1-0.1-0.2-0.3-0.1-0.5v-10.6c0-0.2,0-0.4,0.1-0.5c0.1-0.1,0.3-0.2,0.5-0.2h7.3
			c0.2,0,0.4,0,0.5,0.1c0.1,0.1,0.1,0.3,0.1,0.5v0.5c0,0.2,0,0.3-0.1,0.5c-0.1,0.1-0.3,0.2-0.5,0.1h-5.7v3.4h4.1
			c0.2,0,0.4,0,0.5,0.1c0.1,0.1,0.2,0.3,0.1,0.5v0.4c0,0.2,0,0.3-0.1,0.5c-0.1,0.1-0.3,0.2-0.5,0.1h-4.1v3.4h5.7
			c0.2,0,0.4,0,0.5,0.1c0.1,0.1,0.2,0.3,0.1,0.5v0.5c0,0.2,0,0.3-0.1,0.5c-0.1,0.1-0.3,0.2-0.5,0.1H194
			C193.8,329.5,193.6,329.4,193.5,329.3z"/>
		<path class="st2" d="M205.2,329.5c-0.7-0.1-1.3-0.4-1.9-0.8c-0.2-0.1-0.2-0.2-0.2-0.3c0-0.1,0-0.2,0.1-0.2l0.6-0.9
			c0.1-0.1,0.1-0.2,0.2-0.2c0.1,0,0.2,0,0.2,0.1c0.5,0.3,1,0.5,1.5,0.6c0.6,0.2,1.2,0.2,1.7,0.2c0.6,0,1.3-0.1,1.8-0.4
			c0.4-0.3,0.6-0.8,0.6-1.3c0-0.3-0.1-0.6-0.2-0.8c-0.2-0.2-0.4-0.4-0.7-0.5c-0.5-0.2-0.9-0.4-1.4-0.6l-0.4-0.2
			c-0.6-0.3-1.3-0.5-1.9-0.9c-0.5-0.3-0.9-0.7-1.2-1.1c-0.3-0.5-0.5-1.1-0.5-1.7c0-1,0.4-1.9,1.2-2.5c1-0.6,2.1-0.9,3.2-0.9
			c0.7,0,1.4,0.1,2.1,0.2c0.6,0.1,1.1,0.4,1.5,0.7c0.1,0.1,0.2,0.2,0.2,0.3c0,0.1,0,0.1-0.1,0.2l-0.6,0.9c-0.1,0.1-0.1,0.2-0.2,0.2
			c-0.1,0-0.2-0.1-0.2-0.1c-0.8-0.5-1.8-0.8-2.8-0.7c-0.6,0-1.2,0.1-1.7,0.4c-0.4,0.3-0.6,0.8-0.6,1.3c0,0.3,0.1,0.6,0.2,0.9
			c0.2,0.2,0.4,0.4,0.7,0.6c0.3,0.1,0.8,0.4,1.5,0.6l0.4,0.2c0.7,0.3,1.4,0.6,2,0.9c0.5,0.3,0.8,0.6,1.1,1.1
			c0.3,0.5,0.4,1.1,0.4,1.6c0,0.9-0.4,1.8-1.1,2.4c-0.9,0.6-2.1,0.9-3.2,0.9C206.9,329.7,206.1,329.7,205.2,329.5z"/>
		<g>
			<defs>
				<path id="SVGID_1_" d="M55.9,44H185c13.7,0,24.8,11.1,24.8,24.8v192.6c0,13.7-11.1,24.8-24.8,24.8H55.9
					c-13.7,0-24.8-11.1-24.8-24.8V68.9C31,55.2,42.1,44,55.9,44z"/>
			</defs>
			<clipPath id="SVGID_2_">
				<use xlink:href="#SVGID_1_"  style="overflow:visible;"/>
			</clipPath>
			<g class="st3">
				<rect x="19.2" y="10.2" class="st4" width="201.8" height="207.9"/>
				<path class="st5" d="M79.6,141.7H9.1c-5,0-9.1-4.1-9.1-9.1l0,0c0-5,4.1-9.1,9.1-9.1h70.5c5,0,9.1,4.1,9.1,9.1l0,0
					C88.7,137.6,84.6,141.6,79.6,141.7z"/>
				<circle class="st5" cx="35.4" cy="119" r="22.6"/>
				<circle class="st5" cx="60.3" cy="125.5" r="16.1"/>
				<path class="st5" d="M242.3,150.2h-99.9c-5,0-9.1-4.1-9.1-9.1v-6c0-5,4.1-9.1,9.1-9.1h99.9c5,0,9.1,4.1,9.1,9.1v6
					C251.4,146.1,247.4,150.2,242.3,150.2z"/>
				<circle class="st5" cx="204.3" cy="120.1" r="30.1"/>
				<circle class="st5" cx="171.2" cy="128.7" r="21.5"/>
				<path class="st5" d="M46.8,67.3h21c1.3,0,2.4,1.1,2.4,2.4v0.5c0,1.3-1.1,2.4-2.4,2.4h-21c-1.3,0-2.4-1.1-2.4-2.4v-0.5
					C44.5,68.4,45.5,67.3,46.8,67.3z"/>
				<circle class="st5" cx="54.7" cy="66" r="6.6"/>
				<circle class="st5" cx="61.9" cy="67.9" r="4.7"/>
				<path class="st6" d="M193,162.5c2,25.9-32.9,49.6-78,53.1S31.8,200.8,29.8,175s33-49.6,78-53.1c3.3-0.3,6.7-0.4,9.9-0.4
					C158.4,121.2,191.2,138.6,193,162.5z"/>
				<ellipse class="st7" cx="234.6" cy="158.1" rx="71.1" ry="40.8"/>
				<ellipse class="st7" cx="3.6" cy="155.6" rx="81.8" ry="47"/>
				<rect x="46.7" y="127.6" class="st8" width="3.7" height="15.1"/>
				<rect x="33.5" y="127.6" class="st8" width="3.7" height="15.1"/>
				<rect x="41.1" y="127.6" class="st9" width="4.3" height="17.5"/>
				<rect x="28.3" y="128.3" class="st9" width="4.1" height="16.9"/>
				<path class="st9" d="M35,136h8.4c3.8,0,6.8-3.1,6.8-6.9l0,0c0-3.8-3.1-6.8-6.8-6.8H35c-3.8,0-6.8,3.1-6.9,6.8l0,0
					C28.2,132.9,31.2,136,35,136z"/>
				<path class="st9" d="M51.8,120c0.8-0.6,1.7-0.1,2.7,0.4s2,1,1.9,2c-0.3,0.3-0.7,0.4-1.2,0.5c0.1,0,0.2-0.1,0.2-0.2
					c0-0.8-0.6-1.1-1.4-1.6s-1.4-0.8-2-0.3c0,0.1,0,0.2,0,0.3C51.9,120.9,51.8,120.4,51.8,120z"/>
				<path class="st10" d="M54.1,121.2c0.8,0.4,1.4,0.8,1.4,1.6c-0.1,0.1-0.2,0.1-0.2,0.2c-0.6,0.1-1.3,0-1.8-0.3
					c-0.6-0.3-1-0.8-1.3-1.4c0-0.1,0-0.2,0-0.3C52.7,120.5,53.4,120.8,54.1,121.2z"/>
				<path class="st9" d="M46.9,120.2c-0.7-0.7-1.7-0.3-2.8,0.1s-2,0.7-2.2,1.8c0.3,0.3,0.7,0.5,1.1,0.7l-0.2-0.2
					c0.1-0.8,0.8-1,1.6-1.3s1.5-0.6,2,0c0,0.1,0,0.2,0,0.3C46.7,121.1,46.8,120.7,46.9,120.2z"/>
				<path class="st10" d="M44.4,121.2c-0.8,0.3-1.5,0.6-1.6,1.3l0.2,0.2c0.6,0.2,1.3,0.2,1.9-0.1c0.6-0.2,1.1-0.7,1.5-1.2
					c0-0.1,0-0.2,0-0.3C45.9,120.6,45.2,120.9,44.4,121.2z"/>
				<path class="st11" d="M53.2,120.8c0,0,3.9-1.2,1.8-6.8c0,0-0.7,5-3.5,4.3L53.2,120.8z"/>
				<path class="st11" d="M45.2,120.8c0,0-3.9-1.2-1.8-6.8c0,0,0.7,5,3.5,4.3L45.2,120.8z"/>
				<polygon class="st9" points="46.3,127.2 52,127.1 53.1,122 45.5,122 				"/>
				<path class="st12" d="M52.1,128.9h-5.5c-0.5,0-1-0.4-1-1v-3.1c0-0.5,0.4-1,1-1h5.5c0.5,0,1,0.4,1,1v3.1
					C53,128.4,52.6,128.9,52.1,128.9z"/>
				<path class="st13" d="M50.8,126.5l-0.5,0.5l0,0c0.2,0.3,0.7,0.3,1,0.1c0,0,0,0,0,0c0.2-0.3,0.2-0.7,0-1L50.8,126.5z"/>
				<path class="st13" d="M47.7,126.5l0.5,0.5l0,0c-0.2,0.3-0.6,0.3-0.9,0.1c0,0,0,0-0.1-0.1c-0.3-0.3-0.3-0.7,0-1L47.7,126.5z"/>
				<path class="st9" d="M53.3,122.9h-7.8c-0.5,0-0.9-0.4-0.9-0.9v-2.8c0-0.5,0.4-0.9,0.9-0.9h7.8c0.5,0,0.9,0.4,0.9,0.9v2.8
					C54.1,122.5,53.8,122.9,53.3,122.9z"/>
				<path class="st10" d="M51.5,122c0,0.3,0.2,0.6,0.6,0.6c0,0,0,0,0,0c0.3,0,0.6-0.3,0.6-0.6s-0.3-0.6-0.6-0.6
					C51.8,121.4,51.5,121.7,51.5,122C51.5,122,51.5,122,51.5,122z"/>
				<path class="st10" d="M45.8,122c0,0.3,0.3,0.6,0.6,0.6c0,0,0,0,0,0c0.3,0,0.6-0.3,0.6-0.6s-0.3-0.6-0.6-0.6
					C46,121.4,45.8,121.7,45.8,122C45.8,122,45.8,122,45.8,122z"/>
				<path class="st9" d="M51.4,118.8h-4.3c-0.1,0-0.3-0.1-0.3-0.3v-0.8c0-0.1,0.1-0.3,0.3-0.3h4.3c0.1,0,0.3,0.1,0.3,0.3v0.8
					C51.7,118.6,51.6,118.8,51.4,118.8z"/>
				<ellipse class="st14" cx="39.7" cy="190.3" rx="87.4" ry="50.2"/>
				<rect x="191.3" y="135.2" class="st8" width="1.4" height="5.8"/>
				<rect x="196.4" y="135.2" class="st8" width="1.4" height="5.8"/>
				<rect x="193.2" y="135.2" class="st9" width="1.7" height="6.8"/>
				<rect x="198.2" y="135.5" class="st9" width="1.6" height="6.5"/>
				<path class="st9" d="M197.2,138.5H194c-1.5,0-2.6-1.2-2.6-2.6l0,0c0-1.5,1.2-2.6,2.6-2.6h3.2c1.5,0,2.6,1.2,2.6,2.6l0,0
					C199.9,137.3,198.7,138.5,197.2,138.5z"/>
				<path class="st9" d="M190.8,132.3c-0.3-0.2-0.6-0.1-1.1,0.2s-0.8,0.4-0.8,0.8c0.1,0.1,0.3,0.2,0.5,0.2l-0.1-0.1
					c0-0.3,0.2-0.4,0.6-0.6s0.6-0.3,0.8-0.1v0.1C190.7,132.6,190.7,132.4,190.8,132.3z"/>
				<path class="st10" d="M189.9,132.8c-0.3,0.2-0.6,0.3-0.6,0.6l0.1,0.1c0.2,0,0.5,0,0.7-0.1c0.2-0.1,0.4-0.3,0.5-0.5v-0.1
					C190.4,132.5,190.2,132.6,189.9,132.8z"/>
				<path class="st9" d="M192.7,132.4c0.3-0.3,0.6-0.1,1.1,0s0.8,0.3,0.8,0.7c-0.1,0.1-0.3,0.2-0.4,0.2c0,0,0.1,0,0.1-0.1
					c0-0.3-0.3-0.4-0.6-0.5s-0.6-0.2-0.8,0c0,0,0,0.1,0,0.1C192.7,132.7,192.7,132.5,192.7,132.4z"/>
				<path class="st10" d="M193.6,132.7c0.3,0.1,0.6,0.2,0.6,0.5c0,0,0,0.1-0.1,0.1c-0.2,0.1-0.5,0.1-0.7,0c-0.2-0.1-0.4-0.3-0.6-0.5
					c0,0,0-0.1,0-0.1C193,132.5,193.3,132.6,193.6,132.7z"/>
				<path class="st11" d="M190.2,132.6c0,0-1.5-0.4-0.7-2.6c0,0,0.3,1.9,1.4,1.7L190.2,132.6z"/>
				<path class="st11" d="M193.3,132.6c0,0,1.5-0.4,0.7-2.6c0,0-0.3,1.9-1.4,1.7L193.3,132.6z"/>
				<polygon class="st9" points="192.9,135.1 190.7,135 190.2,133 193.2,133 				"/>
				<path class="st12" d="M192.2,135.7h-0.9c-0.6,0-1-0.4-1-1l0,0c0-0.6,0.4-1,1-1h0.9c0.6,0,1,0.4,1,1l0,0
					C193.2,135.3,192.8,135.7,192.2,135.7z"/>
				<path class="st13" d="M191.1,134.8l0.2,0.2l0,0c-0.1,0.1-0.2,0.1-0.4,0c0,0,0,0,0,0c-0.1-0.1-0.1-0.3,0-0.4L191.1,134.8z"/>
				<path class="st13" d="M192.4,134.8l-0.2,0.2l0,0c0.1,0.1,0.2,0.1,0.4,0c0,0,0,0,0,0c0.1-0.1,0.1-0.3,0-0.4L192.4,134.8z"/>
				<path class="st9" d="M192.7,133.4h-1.9c-0.5,0-0.9-0.4-0.9-0.9l0,0c0-0.5,0.4-0.9,0.9-0.9h1.9c0.5,0,0.9,0.4,0.9,0.9l0,0
					C193.5,133,193.2,133.4,192.7,133.4z"/>
				<ellipse class="st10" cx="190.6" cy="133" rx="0.2" ry="0.2"/>
				<ellipse class="st10" cx="192.9" cy="133" rx="0.2" ry="0.2"/>
				<path class="st9" d="M192.4,131.8h-1.4c-0.1,0-0.3-0.1-0.3-0.3l0,0c0-0.1,0.1-0.3,0.3-0.3h1.4c0.1,0,0.3,0.1,0.2,0.3l0,0
					C192.7,131.7,192.6,131.8,192.4,131.8z"/>
				<ellipse class="st14" cx="193.6" cy="190.3" rx="87.4" ry="50.2"/>
				<ellipse class="st15" cx="116.3" cy="240.5" rx="143.1" ry="65.4"/>
				<path class="st5" d="M134.4,84.6H161c1.9,0,3.4-1.5,3.4-3.4l0,0c0-1.9-1.5-3.4-3.4-3.4h-26.6c-1.9,0-3.4,1.5-3.4,3.4l0,0
					C131,83.1,132.5,84.6,134.4,84.6z"/>
				<circle class="st5" cx="151.1" cy="76.1" r="8.5"/>
				<path class="st5" d="M135.7,78.6c0,3.4,2.7,6.1,6.1,6.1c3.4,0,6.1-2.7,6.1-6.1c0-3.4-2.7-6.1-6.1-6.1S135.7,75.2,135.7,78.6
					L135.7,78.6z"/>
				<rect x="17.3" y="173.3" class="st15" width="205.5" height="146.8"/>
				<rect x="32.1" y="10.2" class="st16" width="176" height="310"/>
				<polygon class="st16" points="125.7,128.4 125.7,128.4 125.7,128.4 				"/>
				<path class="st17" d="M65.7,244.2h109.7c8.3,0,15.1,6.8,15.1,15.1l0,0c0,8.3-6.8,15.1-15.1,15.1H65.7c-8.3,0-15.1-6.8-15.1-15.1
					l0,0C50.6,251,57.4,244.2,65.7,244.2z"/>
				<rect x="88" y="110.6" class="st18" width="71.3" height="98.1"/>
				<path class="st18" d="M159.3,102.7h7.6c1.5,0,2.7,1.2,2.7,2.7v92.5l0,0h-13l0,0v-92.5C156.6,103.9,157.8,102.7,159.3,102.7
					C159.3,102.7,159.3,102.7,159.3,102.7z"/>
				<rect x="66.9" y="207.2" class="st19" width="11.3" height="46"/>
				<path class="st18" d="M79.3,102.7h7.6c1.5,0,2.7,1.2,2.7,2.7v92.5l0,0h-13l0,0v-92.5C76.6,103.9,77.8,102.7,79.3,102.7
					C79.3,102.7,79.3,102.7,79.3,102.7z"/>
				<rect x="167.1" y="207.5" class="st19" width="11.3" height="46"/>
				<rect x="69.4" y="207.2" class="st18" width="11.3" height="46"/>
				<rect x="164.6" y="207.5" class="st18" width="11.3" height="46"/>
				<rect x="80.8" y="207.5" class="st20" width="83.8" height="41.3"/>
				<rect x="80.8" y="207.2" class="st19" width="2.2" height="41.5"/>
				<polyline class="st19" points="162.3,207.2 164.6,207.2 164.6,248.8 162.3,248.8 				"/>
				<circle class="st21" cx="83.1" cy="94" r="8.6"/>
				<rect x="89.6" y="110.6" class="st19" width="2.2" height="80.4"/>
				<rect x="154.4" y="110.6" class="st19" width="2.2" height="80.4"/>
				<circle class="st18" cx="83.1" cy="92.9" r="8.6"/>
				<rect x="78.8" y="188.2" class="st22" width="85.9" height="20.7"/>
				<circle class="st21" cx="163.1" cy="94" r="8.6"/>
				<circle class="st18" cx="163.1" cy="92.9" r="8.6"/>
				<rect x="95" y="115.4" class="st19" width="3.6" height="3.6"/>
				<rect x="95" y="123.1" class="st19" width="3.6" height="3.6"/>
				<rect x="95" y="130.7" class="st19" width="3.6" height="3.6"/>
				<rect x="95" y="138.4" class="st19" width="3.6" height="3.6"/>
				<rect x="95" y="146" class="st19" width="3.6" height="3.6"/>
				<rect x="95" y="153.6" class="st19" width="3.6" height="3.6"/>
				<rect x="95" y="161.3" class="st19" width="3.6" height="3.6"/>
				<rect x="95" y="168.9" class="st19" width="3.6" height="3.6"/>
				<rect x="95" y="176.5" class="st19" width="3.6" height="3.6"/>
				<rect x="95" y="184.2" class="st19" width="3.6" height="3.6"/>
				<rect x="102.5" y="115.4" class="st19" width="3.6" height="3.6"/>
				<rect x="102.5" y="123.1" class="st19" width="3.6" height="3.6"/>
				<rect x="102.5" y="130.7" class="st19" width="3.6" height="3.6"/>
				<rect x="102.5" y="138.4" class="st19" width="3.6" height="3.6"/>
				<rect x="102.5" y="146" class="st19" width="3.6" height="3.6"/>
				<rect x="102.5" y="153.6" class="st19" width="3.6" height="3.6"/>
				<rect x="102.5" y="161.3" class="st19" width="3.6" height="3.6"/>
				<rect x="102.5" y="168.9" class="st19" width="3.6" height="3.6"/>
				<rect x="102.5" y="176.5" class="st19" width="3.6" height="3.6"/>
				<rect x="102.5" y="184.2" class="st19" width="3.6" height="3.6"/>
				<rect x="110.1" y="115.4" class="st19" width="3.6" height="3.6"/>
				<rect x="110.1" y="123.1" class="st19" width="3.6" height="3.6"/>
				<rect x="110.1" y="130.7" class="st19" width="3.6" height="3.6"/>
				<rect x="110.1" y="138.4" class="st19" width="3.6" height="3.6"/>
				<rect x="110.1" y="146" class="st19" width="3.6" height="3.6"/>
				<rect x="110.1" y="153.6" class="st19" width="3.6" height="3.6"/>
				<rect x="110.1" y="161.3" class="st19" width="3.6" height="3.6"/>
				<rect x="110.1" y="168.9" class="st19" width="3.6" height="3.6"/>
				<rect x="110.1" y="176.5" class="st19" width="3.6" height="3.6"/>
				<rect x="110.1" y="184.2" class="st19" width="3.6" height="3.6"/>
				<rect x="117.7" y="115.4" class="st19" width="3.6" height="3.6"/>
				<rect x="117.7" y="123.1" class="st19" width="3.6" height="3.6"/>
				<rect x="117.7" y="130.7" class="st19" width="3.6" height="3.6"/>
				<rect x="117.7" y="138.4" class="st19" width="3.6" height="3.6"/>
				<rect x="117.7" y="146" class="st19" width="3.6" height="3.6"/>
				<rect x="117.7" y="153.6" class="st19" width="3.6" height="3.6"/>
				<rect x="117.7" y="161.3" class="st19" width="3.6" height="3.6"/>
				<rect x="117.7" y="168.9" class="st19" width="3.6" height="3.6"/>
				<rect x="117.7" y="176.5" class="st19" width="3.6" height="3.6"/>
				<rect x="117.7" y="184.2" class="st19" width="3.6" height="3.6"/>
				<rect x="125.3" y="115.4" class="st19" width="3.6" height="3.6"/>
				<rect x="125.3" y="123.1" class="st19" width="3.6" height="3.6"/>
				<rect x="125.3" y="130.7" class="st19" width="3.6" height="3.6"/>
				<rect x="125.3" y="138.4" class="st19" width="3.6" height="3.6"/>
				<rect x="125.3" y="146" class="st19" width="3.6" height="3.6"/>
				<rect x="125.3" y="153.6" class="st19" width="3.6" height="3.6"/>
				<rect x="125.3" y="161.3" class="st19" width="3.6" height="3.6"/>
				<rect x="125.3" y="168.9" class="st19" width="3.6" height="3.6"/>
				<rect x="125.3" y="176.5" class="st19" width="3.6" height="3.6"/>
				<rect x="125.3" y="184.2" class="st19" width="3.6" height="3.6"/>
				<rect x="132.9" y="115.4" class="st19" width="3.6" height="3.6"/>
				<rect x="132.9" y="123.1" class="st19" width="3.6" height="3.6"/>
				<rect x="132.9" y="130.7" class="st19" width="3.6" height="3.6"/>
				<rect x="132.9" y="138.4" class="st19" width="3.6" height="3.6"/>
				<rect x="132.9" y="146" class="st19" width="3.6" height="3.6"/>
				<rect x="132.9" y="153.6" class="st19" width="3.6" height="3.6"/>
				<rect x="132.9" y="161.3" class="st19" width="3.6" height="3.6"/>
				<rect x="132.9" y="176.5" class="st19" width="3.6" height="3.6"/>
				<rect x="132.9" y="184.2" class="st19" width="3.6" height="3.6"/>
				<rect x="140.5" y="115.4" class="st19" width="3.6" height="3.6"/>
				<rect x="140.5" y="123.1" class="st19" width="3.6" height="3.6"/>
				<rect x="140.5" y="130.7" class="st19" width="3.6" height="3.6"/>
				<rect x="140.5" y="138.4" class="st19" width="3.6" height="3.6"/>
				<rect x="140.5" y="146" class="st19" width="3.6" height="3.6"/>
				<rect x="140.5" y="153.6" class="st19" width="3.6" height="3.6"/>
				<rect x="140.5" y="161.3" class="st19" width="3.6" height="3.6"/>
				<rect x="140.5" y="168.9" class="st19" width="3.6" height="3.6"/>
				<rect x="140.5" y="176.5" class="st19" width="3.6" height="3.6"/>
				<rect x="140.5" y="184.2" class="st19" width="3.6" height="3.6"/>
				<rect x="148.1" y="115.4" class="st19" width="3.6" height="3.6"/>
				<rect x="148.1" y="123.1" class="st19" width="3.6" height="3.6"/>
				<rect x="148.1" y="130.7" class="st19" width="3.6" height="3.6"/>
				<rect x="148.1" y="138.4" class="st19" width="3.6" height="3.6"/>
				<rect x="148.1" y="146" class="st19" width="3.6" height="3.6"/>
				<rect x="148.1" y="153.6" class="st19" width="3.6" height="3.6"/>
				<rect x="148.1" y="161.3" class="st19" width="3.6" height="3.6"/>
				<rect x="148.1" y="168.9" class="st19" width="3.6" height="3.6"/>
				<rect x="148.1" y="176.5" class="st19" width="3.6" height="3.6"/>
				<rect x="148.1" y="184.2" class="st19" width="3.6" height="3.6"/>
				<rect x="91.7" y="107.1" class="st18" width="4.1" height="4.2"/>
				<rect x="100.1" y="107.1" class="st18" width="4.2" height="4.2"/>
				<rect x="108.5" y="107.1" class="st18" width="4.1" height="4.2"/>
				<rect x="116.8" y="107.1" class="st18" width="4.2" height="4.2"/>
				<rect x="125.2" y="107.1" class="st18" width="4.2" height="4.2"/>
				<rect x="133.6" y="107.1" class="st18" width="4.2" height="4.2"/>
				<rect x="141.9" y="107.1" class="st18" width="4.2" height="4.2"/>
				<rect x="150.3" y="107.1" class="st18" width="4.2" height="4.2"/>
				<rect x="132.9" y="168.9" class="st19" width="3.6" height="3.6"/>
				<rect x="99.9" y="94" class="st23" width="46.2" height="67.3"/>
				<path class="st24" d="M178.4,145.1c-3.5-0.9-7,1.2-7.9,4.7c0,0,0,0,0,0l-5.5,21.6l-9.3-17.8l-11.9,4.5l15.6,27.4
					c1.7,2.3,4.4,3.7,7.3,3.7c0.6,0,1.2-0.1,1.9-0.2c3.5-0.7,6.3-3.3,7.1-6.8l7.5-29.2C184,149.5,181.9,146,178.4,145.1z"/>
				<path class="st25" d="M151.3,145.2c-2.2-2.9-6.3-3.4-9.1-1.3c-2.9,2.2-3.4,6.3-1.3,9.1l2.8,5l11.9-4.5L151.3,145.2z"/>
				<path class="st26" d="M97.1,160c-5.8,0.1-11.5-1.5-16.4-4.5c-13-8.1-19.7-26.2-19.7-53.7c-0.2-3.6,2.5-6.7,6.1-6.9
					c3.6-0.2,6.7,2.5,6.9,6.1c0,0.2,0,0.5,0,0.7c0,22.3,4.7,37.1,13.4,42.6c9.2,5.8,21.1,0.1,21.2,0.1c3.2-1.6,7.1-0.3,8.7,3
					s0.3,7.1-3,8.7l0,0C109,158.6,103.1,159.9,97.1,160z"/>
				<path class="st27" d="M97.1,157.5c-5.8,0.1-11.5-1.5-16.4-4.5c-13-8.1-19.7-26.2-19.7-53.7c-0.2-3.6,2.5-6.7,6.1-6.9
					c3.6-0.2,6.7,2.5,6.9,6.1c0,0.2,0,0.5,0,0.7c0,22.3,4.7,37.1,13.4,42.6c9.2,5.8,21.1,0.1,21.2,0.1c3.2-1.6,7.1-0.3,8.7,3
					s0.3,7.1-3,8.7C109,156.1,103.1,157.4,97.1,157.5z"/>
				<path class="st28" d="M141.4,143.9l-17.8,21.8l-17.8-21.9c-0.1-0.1-0.2-0.3-0.3-0.4c-7.1,5.4-11.2,13.9-11.2,22.8l5.8,28.8h47.5
					l4.4-28.8C152,157.6,148.1,149.4,141.4,143.9z"/>
				<path class="st27" d="M123.7,165.7l17.8-21.8c-5.1-4.2-11.6-6.5-18.3-6.5l0,0c-6.4,0-12.6,2.1-17.6,6c0.1,0.1,0.2,0.3,0.3,0.4
					L123.7,165.7z"/>
				<path class="st28" d="M125.9,176.5h-5.4c-18.9,0.1-34.2,15.4-34.2,34.3l6.3,49.4h61l6.6-49.4
					C160.1,191.9,144.8,176.6,125.9,176.5z"/>
				<path class="st28" d="M91,251.1c0,0-5.1,14.1-9.8,17.4h89.3c0,0-13-7.9-15.1-19.7L91,251.1z"/>
				<polygon class="st27" points="118.9,131.1 116.8,140.2 129.9,140.2 127.1,128.7 118.9,128.7 				"/>
				<path class="st29" d="M107.9,110.6c0,3-2.4,5.4-5.4,5.4s-5.4-2.4-5.4-5.4s2.4-5.4,5.4-5.4l0,0
					C105.5,105.1,107.9,107.6,107.9,110.6z"/>
				<path class="st26" d="M105.1,110.6c0,1.5-1.2,2.6-2.6,2.6s-2.6-1.2-2.6-2.6s1.2-2.6,2.6-2.6l0,0
					C103.9,107.9,105.1,109.1,105.1,110.6z"/>
				<path class="st29" d="M147.8,110.6c0,3-2.4,5.4-5.4,5.4c-3,0-5.4-2.4-5.4-5.4c0-3,2.4-5.4,5.4-5.4
					C145.4,105.1,147.8,107.6,147.8,110.6C147.8,110.6,147.8,110.6,147.8,110.6z"/>
				<path class="st26" d="M145.1,110.6c0,1.5-1.2,2.6-2.6,2.6s-2.6-1.2-2.6-2.6s1.2-2.6,2.6-2.6l0,0
					C143.9,107.9,145.1,109.1,145.1,110.6z"/>
				<path class="st26" d="M122.4,90.1L122.4,90.1c10.9,0,19.7,8.8,19.7,19.7v3.3c0,10.9-8.8,19.7-19.7,19.7h0
					c-10.9,0-19.6-8.8-19.6-19.7v-3.3C102.8,98.9,111.6,90.1,122.4,90.1z"/>
				<path class="st29" d="M122.4,82L122.4,82c11,0,20,8.9,20,20v9.2c0,11-8.9,20-20,20l0,0c-11,0-20-8.9-20-20V102
					C102.5,90.9,111.4,82,122.4,82z"/>
				<path class="st10" d="M114,111.4L114,111.4c-1.1,0-2-0.9-2-2v-3.5c0-1.1,0.9-2,2-2l0,0c1.1,0,2,0.9,2,2v3.5
					C116,110.5,115.1,111.4,114,111.4z"/>
				<path class="st10" d="M130.9,111.4L130.9,111.4c-1.1,0-2-0.9-2-2v-3.5c0-1.1,0.9-2,2-2l0,0c1.1,0,2,0.9,2,2v3.5
					C132.9,110.5,132,111.4,130.9,111.4z"/>
				<circle class="st23" cx="108.8" cy="88.4" r="14.4"/>
				
					<ellipse transform="matrix(0.7869 -0.617 0.617 0.7869 -25.5554 102.8423)" class="st23" cx="136.1" cy="88.4" rx="14.4" ry="14.4"/>
				<circle class="st23" cx="123.1" cy="78.9" r="7.7"/>
				<circle class="st23" cx="123.1" cy="92.6" r="7.7"/>
				<path class="st11" d="M129.1,119.2h-12.5c-0.4,0-0.8-0.2-0.8-0.6s0.2-0.8,0.6-0.8c0.1,0,0.1,0,0.2,0h12.5c0.4,0,0.8,0.2,0.8,0.6
					c0,0.4-0.2,0.8-0.6,0.8C129.3,119.2,129.2,119.2,129.1,119.2z"/>
				<path class="st26" d="M122.1,112h1.7c0,0.9-0.8,1.7-1.7,1.7s-1.7-0.8-1.7-1.7s0.8-1.7,1.7-1.7l0,0V112z"/>
				<circle class="st21" cx="66" cy="83.8" r="20.1"/>
				<circle class="st27" cx="66" cy="82" r="20.1"/>
				<circle class="st28" cx="66" cy="82" r="17.4"/>
				<path class="st29" d="M75.3,93.9L66,87.2l-9.2,6.7L60.4,83l-9.2-6.7h11.4L66,65.5l3.5,10.8H81L71.8,83L75.3,93.9z M53.2,77
					l7.9,5.8l-3,9.3l7.9-5.8l7.9,5.8l-3-9.3l7.9-5.8h-9.8l-3-9.3L63,77H53.2z"/>
				<path class="st29" d="M66.1,87.2L60.4,83l2.2-6.7h7l2.2,6.7L66.1,87.2z M61.2,82.8l4.9,3.6l4.9-3.6L69.1,77H63L61.2,82.8z"/>
				<path class="st30" d="M160,191.2c0,0-10.4-3.1-4.8-17.9c0,0,2,13,9.4,11.4L160,191.2z"/>
				<path class="st30" d="M181.6,191.2c0,0,10.4-3.1,4.8-17.9c0,0-2,13-9.4,11.4L181.6,191.2z"/>
				<polygon class="st18" points="178.5,208.1 163.4,207.8 160.2,194.1 180.9,194.1 				"/>
				<path class="st30" d="M174,213.2h-6.9c-3.6,0-6.6-3-6.6-6.6l0,0c0-3.6,3-6.6,6.6-6.6h6.9c3.7,0,6.6,3,6.6,6.6l0,0
					C180.6,210.2,177.7,213.2,174,213.2z"/>
				<path class="st18" d="M174,212.4h-6.9c-3.6,0-6.6-3-6.6-6.6l0,0c0-3.6,3-6.6,6.6-6.6h6.9c3.7,0,6.6,3,6.6,6.6l0,0
					C180.6,209.4,177.7,212.4,174,212.4z"/>
				<path class="st19" d="M166.6,206.1l1.4,1.3l0,0c-0.7,0.8-1.9,0.8-2.6,0.2c0,0,0,0,0,0c-0.8-0.7-0.8-1.9-0.1-2.7L166.6,206.1z"/>
				<path class="st19" d="M174.9,206.1l-1.4,1.3l0,0c0.7,0.8,1.8,0.8,2.6,0.2c0,0,0,0,0,0c0.8-0.7,0.8-1.9,0.1-2.7L174.9,206.1z"/>
				<path class="st18" d="M177.2,196.6h-13.8c-3.3,0-6-2.7-6-6l0,0c0-3.3,2.7-6,6-6h13.8c3.3,0,6,2.7,6,6l0,0
					C183.2,193.9,180.5,196.6,177.2,196.6L177.2,196.6z"/>
				<path class="st19" d="M164.6,194.2c0,0.9-0.7,1.6-1.6,1.5s-1.6-0.7-1.5-1.6c0-0.9,0.7-1.5,1.6-1.5
					C163.9,192.6,164.6,193.3,164.6,194.2z"/>
				<path class="st19" d="M180.1,194.2c0,0.9-0.7,1.6-1.6,1.5c-0.9,0-1.6-0.7-1.5-1.6c0-0.9,0.7-1.5,1.6-1.5
					C179.4,192.6,180.1,193.3,180.1,194.2z"/>
				<path class="st18" d="M176.4,185.7h-11.6c-1,0-1.7-0.8-1.7-1.7l0,0c0-1,0.8-1.7,1.7-1.8h11.6c1,0,1.7,0.8,1.8,1.8l0,0
					C178.2,185,177.4,185.7,176.4,185.7z"/>
				<path class="st30" d="M64.5,191.5c0,0-10.4-3.1-4.8-18.2c0,0,2,13.3,9.4,11.6L64.5,191.5z"/>
				<path class="st30" d="M86.1,191.5c0,0,10.4-3.1,4.8-18.2c0,0-2,13.3-9.4,11.6L86.1,191.5z"/>
				<polygon class="st18" points="83,208.8 67.9,208.4 64.7,194.6 85.3,194.6 				"/>
				<path class="st30" d="M71.7,200.4h6.6c3.7,0,6.8,3,6.8,6.8l0,0c0,3.7-3,6.8-6.8,6.8h-6.6c-3.7,0-6.8-3-6.8-6.8l0,0
					C65,203.4,68,200.4,71.7,200.4z"/>
				<path class="st18" d="M78.3,213.2h-6.6c-3.7,0-6.7-3-6.7-6.8l0,0c0-3.7,3-6.7,6.8-6.8h6.6c3.7,0,6.7,3,6.8,6.8l0,0
					C85.1,210.2,82.1,213.2,78.3,213.2z"/>
				<path class="st19" d="M71,206.8l1.4,1.3l0,0c-0.6,0.8-1.8,0.9-2.5,0.2c0,0-0.1-0.1-0.1-0.1c-0.8-0.7-0.9-2-0.1-2.8L71,206.8z"/>
				<path class="st19" d="M79.4,206.8l-1.4,1.3l0,0c0.6,0.8,1.8,0.9,2.6,0.2c0,0,0.1-0.1,0.1-0.1c0.8-0.8,0.8-2,0.1-2.8L79.4,206.8z
					"/>
				<path class="st18" d="M81.6,197.1H68.1c-3.3,0-6.1-2.8-6.1-6.1l0,0c0-3.4,2.7-6.1,6.1-6.1h13.5c3.4,0,6.1,2.7,6.1,6.1l0,0
					C87.7,194.4,85,197.1,81.6,197.1z"/>
				<ellipse class="st19" cx="67.5" cy="194.6" rx="1.6" ry="1.6"/>
				<ellipse class="st19" cx="83" cy="194.6" rx="1.6" ry="1.6"/>
				<path class="st18" d="M80.9,186H69.3c-1,0-1.8-0.8-1.8-1.8l0,0c0-1,0.8-1.8,1.8-1.8h11.5c1,0,1.8,0.8,1.8,1.8l0,0
					C82.6,185.2,81.8,186,80.9,186z"/>
				<path class="st31" d="M175,156.1c-0.7-5.5-5.1-5.4-5.3-5.4l-0.1-1.2c0.1,0,5.7-0.2,6.6,6.4L175,156.1z"/>
				<path class="st31" d="M174.9,155.9c0-6.3,6.4-9.8,6.7-9.9l0.6,1.1l-0.3-0.6l0.3,0.6c-0.1,0-6,3.3-6,8.8L174.9,155.9z"/>
				<path class="st10" d="M180.6,172.1c-0.1,2.5-2.2,4.4-4.6,4.3c-2.5-0.1-4.4-2.2-4.3-4.6c0.1-2.5,2.2-4.4,4.6-4.3c0,0,0,0,0,0
					C178.7,167.6,180.6,169.7,180.6,172.1z"/>
				<path class="st32" d="M180.6,171.2c-0.1,2.5-2.2,4.4-4.6,4.3c-2.5-0.1-4.4-2.2-4.3-4.6c0.1-2.5,2.2-4.4,4.6-4.3
					C178.8,166.7,180.7,168.7,180.6,171.2C180.6,171.2,180.6,171.2,180.6,171.2z"/>
				<path class="st10" d="M176.3,165.8c-0.1,2.5-2.2,4.4-4.6,4.3c-2.5-0.1-4.4-2.2-4.3-4.6c0.1-2.5,2.2-4.4,4.6-4.3c0,0,0,0,0,0
					C174.5,161.2,176.4,163.3,176.3,165.8z"/>
				<path class="st32" d="M176.4,164.9c-0.1,2.5-2.2,4.4-4.6,4.3c-2.5-0.1-4.4-2.2-4.3-4.6c0.1-2.5,2.2-4.4,4.6-4.3
					C174.5,160.3,176.4,162.4,176.4,164.9C176.4,164.9,176.4,164.9,176.4,164.9z"/>
				<path class="st10" d="M184.3,166.1c-0.1,2.5-2.2,4.4-4.6,4.3c-2.5-0.1-4.4-2.2-4.3-4.6c0.1-2.5,2.2-4.4,4.6-4.3c0,0,0,0,0,0
					C182.5,161.5,184.4,163.6,184.3,166.1z"/>
				<path class="st32" d="M184.3,165.2c-0.1,2.5-2.2,4.4-4.6,4.3c-2.5-0.1-4.4-2.2-4.3-4.6c0.1-2.5,2.2-4.4,4.6-4.3
					C182.5,160.6,184.4,162.7,184.3,165.2C184.3,165.2,184.3,165.2,184.3,165.2z"/>
				<path class="st10" d="M171.5,158.8c-0.1,2.5-2.2,4.4-4.6,4.3c-2.5-0.1-4.4-2.2-4.3-4.6c0.1-2.5,2.2-4.4,4.6-4.3c0,0,0,0,0,0
					C169.7,154.3,171.6,156.3,171.5,158.8C171.5,158.8,171.5,158.8,171.5,158.8z"/>
				<path class="st32" d="M171.5,157.9c-0.1,2.5-2.2,4.4-4.6,4.3c-2.5-0.1-4.4-2.2-4.3-4.6c0.1-2.5,2.2-4.4,4.6-4.3c0,0,0,0,0,0
					C169.7,153.4,171.6,155.4,171.5,157.9z"/>
				<path class="st10" d="M187.8,159.4c-0.1,2.5-2.2,4.4-4.6,4.3c-2.5-0.1-4.4-2.2-4.3-4.6c0.1-2.5,2.2-4.4,4.6-4.3
					C185.9,154.9,187.9,157,187.8,159.4C187.8,159.4,187.8,159.4,187.8,159.4z"/>
				<path class="st32" d="M187.8,158.5c-0.1,2.5-2.2,4.4-4.6,4.3c-2.5-0.1-4.4-2.2-4.3-4.6c0.1-2.5,2.2-4.4,4.6-4.3c0,0,0,0,0,0
					C186,154,187.9,156,187.8,158.5C187.8,158.5,187.8,158.5,187.8,158.5z"/>
				<path class="st10" d="M179.6,159.1c-0.1,2.5-2.2,4.4-4.6,4.3c-2.5-0.1-4.4-2.2-4.3-4.6c0.1-2.5,2.2-4.4,4.6-4.3
					C177.8,154.6,179.7,156.6,179.6,159.1C179.6,159.1,179.6,159.1,179.6,159.1z"/>
				<path class="st32" d="M179.6,158.2c-0.1,2.5-2.2,4.4-4.6,4.3s-4.4-2.2-4.3-4.6c0.1-2.5,2.2-4.4,4.6-4.3
					C177.8,153.7,179.7,155.7,179.6,158.2C179.7,158.2,179.7,158.2,179.6,158.2z"/>
				<path class="st29" d="M183.5,157.6h-5.2c-2.7,0-4.9-2.2-4.9-4.9l0,0c0-2.7,2.2-4.9,4.9-4.9h5.2c2.7,0,4.9,2.2,4.9,4.9l0,0
					C188.4,155.5,186.2,157.6,183.5,157.6z"/>
			</g>
		</g>
	</g>
</g>
</svg>
