<svg xmlns="http://www.w3.org/2000/svg" viewBox="0 0 577.31 616.35"><defs><style>.cls-1{fill:#242136;}.cls-2{fill:#f59a9a;}.cls-3{fill:#fff;}.cls-4{fill:#ffcb5c;}</style></defs><g id="Layer_2" data-name="Layer 2"><g id="Layer_4" data-name="Layer 4"><path class="cls-1" d="M500.71,63.16Q488.86,88.53,477,113.87c-.75,1.61,1.64,3,2.39,1.4L503.1,64.56c.75-1.6-1.63-3-2.39-1.4Z"/><path class="cls-1" d="M486,64.56l23.71,50.71c.75,1.61,3.14.21,2.39-1.4q-11.86-25.35-23.71-50.71c-.76-1.61-3.14-.21-2.39,1.4Z"/><path class="cls-1" d="M493.2,69.11V123a1.39,1.39,0,0,0,2.77,0V69.11a1.39,1.39,0,0,0-2.77,0Z"/><path class="cls-2" d="M525.18,55.24c-4.89-8.71-14.47-9.44-21.12-7.4A22.38,22.38,0,0,0,494.57,54a22.23,22.23,0,0,0-9.48-6.12c-6.65-2-16.23-1.31-21.13,7.4-14.75,26.29,29.85,48,30.61,48.33h0C495.34,103.21,539.94,81.53,525.18,55.24Z"/><path class="cls-1" d="M518.24,25.69,502.17,60c-.74,1.6,1.64,3,2.39,1.39q8-17.18,16.06-34.35c.75-1.6-1.63-3-2.38-1.39Z"/><path class="cls-1" d="M509.83,37.2,517,40.57c1.6.74,3-1.64,1.4-2.39l-7.2-3.36c-1.6-.75-3,1.63-1.39,2.38Z"/><path class="cls-1" d="M517.93,26l2.57,1.2a1.41,1.41,0,0,0,1.89-.5,1.39,1.39,0,0,0-.5-1.89l-2.57-1.2a1.42,1.42,0,0,0-1.89.5,1.39,1.39,0,0,0,.5,1.89Z"/><path class="cls-1" d="M468.51,27.08q8,17.18,16.06,34.35c.75,1.61,3.13.21,2.38-1.39q-8-17.17-16.06-34.35c-.75-1.62-3.13-.21-2.38,1.39Z"/><path class="cls-1" d="M477.9,34.82l-7.19,3.36c-1.61.75-.2,3.14,1.4,2.39l7.19-3.37c1.61-.75.21-3.13-1.4-2.38Z"/><path class="cls-1" d="M469.81,23.56l-2.57,1.2a1.38,1.38,0,1,0,1.39,2.39L471.2,26a1.38,1.38,0,0,0-1.39-2.39Z"/><path class="cls-1" d="M493.2,18.1V65.26a1.39,1.39,0,0,0,2.77,0V18.1a1.39,1.39,0,0,0-2.77,0Z"/><path class="cls-1" d="M490.6,32h7.94a1.39,1.39,0,0,0,0-2.77H490.6a1.39,1.39,0,0,0,0,2.77Z"/><path class="cls-1" d="M493.17,18.35H496a1.38,1.38,0,0,0,0-2.76h-2.83a1.38,1.38,0,0,0,0,2.76Z"/><path class="cls-1" d="M530,0h-70.8a11.06,11.06,0,0,0-11.06,11.06V128.22a11.06,11.06,0,0,0,11.06,11.05h51a.33.33,0,0,1,.07-.13,1.21,1.21,0,0,1,.91-.67c.83-.26,1.67-.55,2.54-.85a8.73,8.73,0,0,1-1.16-1.11h-53.4a8.29,8.29,0,0,1-8.29-8.29V11.06a8.3,8.3,0,0,1,8.29-8.3H530a8.32,8.32,0,0,1,8.3,8.3v91.42c.91,1.11,1.83,2.21,2.76,3.32V11.06A11.06,11.06,0,0,0,530,0Z"/><path class="cls-1" d="M526.33,6h-63.5a8.6,8.6,0,0,0-8.61,8.59V124.71a8.61,8.61,0,0,0,8.61,8.61h48a8.21,8.21,0,0,1-.34-2.75H462.83a5.86,5.86,0,0,1-5.86-5.86V14.55a5.85,5.85,0,0,1,5.86-5.84h63.5a5.86,5.86,0,0,1,5.85,5.84V95q1.35,1.73,2.75,3.4V14.55A8.6,8.6,0,0,0,526.33,6Z"/><rect class="cls-1" x="271.64" y="529.24" width="71.44" height="83.37" rx="8.29" transform="translate(-82.17 52.57) rotate(-8.63)"/><path class="cls-3" d="M320.45,592.77a13,13,0,0,0,6.65-9,.77.77,0,0,1,1.43-.22,12.93,12.93,0,0,0,9,6.65.77.77,0,0,1,.22,1.43,12.92,12.92,0,0,0-6.64,9,.77.77,0,0,1-1.43.21,13,13,0,0,0-9-6.65A.76.76,0,0,1,320.45,592.77Z"/><path class="cls-3" d="M293,572.16a21.76,21.76,0,0,0,12.09-16.41,1,1,0,0,1,1.86-.28,21.69,21.69,0,0,0,16.39,12.08,1,1,0,0,1,.28,1.86,21.76,21.76,0,0,0-12.07,16.41,1,1,0,0,1-1.86.28A21.72,21.72,0,0,0,293.25,574,1,1,0,0,1,293,572.16Z"/><path class="cls-3" d="M296.11,548.81a13,13,0,0,0-6.65,9,.76.76,0,0,1-1.42.21,13,13,0,0,0-9-6.65.76.76,0,0,1-.21-1.42,13,13,0,0,0,6.64-9,.77.77,0,0,1,1.43-.22,12.91,12.91,0,0,0,9,6.65A.77.77,0,0,1,296.11,548.81Z"/><path class="cls-1" d="M185.14,614.44l-50.76-12.08c-4.23-1-5.95-5.47-3.83-10l30.91-65.52c2.12-4.49,7.28-7.32,11.52-6.31l50.75,12.07c4.24,1,6,5.47,3.84,10l-30.92,65.52C194.53,612.62,189.38,615.44,185.14,614.44Z"/><path class="cls-3" d="M177.1,592.74a17.61,17.61,0,0,0,11-6c.53-.61,1.43-.4,1.33.32a9.9,9.9,0,0,0,3.66,9.52c.52.38.07,1.33-.66,1.41a17.73,17.73,0,0,0-11,6c-.53.61-1.42.4-1.33-.32a9.87,9.87,0,0,0-3.67-9.52C175.92,593.78,176.37,592.83,177.1,592.74Z"/><path class="cls-3" d="M166.16,563.41c7.34-.55,14.88-4.68,20-11,.7-.85,1.91-.56,1.75.42-1.25,7.21,1.26,13.73,6.65,17.3.73.49.12,1.77-.88,1.85-7.32.55-14.86,4.68-20,11-.7.85-1.91.56-1.75-.42,1.25-7.21-1.26-13.73-6.66-17.3C164.56,564.77,165.17,563.48,166.16,563.41Z"/><path class="cls-3" d="M182.75,542.67a17.68,17.68,0,0,0-11,6c-.53.61-1.43.4-1.34-.32a9.86,9.86,0,0,0-3.66-9.52c-.51-.38-.06-1.33.67-1.42a17.66,17.66,0,0,0,11-6c.54-.61,1.43-.4,1.34.31a9.89,9.89,0,0,0,3.66,9.53C183.93,541.64,183.48,542.59,182.75,542.67Z"/><path class="cls-1" d="M435.42,576.46l44.89-26.59c3.74-2.22,4.06-7,.7-10.65l-49-53.4c-3.35-3.66-9.11-4.83-12.86-2.61L374.3,509.8c-3.75,2.22-4.06,7-.71,10.65l49,53.4C425.91,577.51,431.67,578.68,435.42,576.46Z"/><path class="cls-3" d="M436.66,553.36a17.67,17.67,0,0,1-12.3-2.5c-.69-.42-1.49,0-1.18.7a9.92,9.92,0,0,1-.67,10.18c-.38.52.33,1.29,1.05,1.15a17.72,17.72,0,0,1,12.3,2.5c.69.43,1.48,0,1.18-.69a9.91,9.91,0,0,1,.68-10.19C438.1,554,437.38,553.22,436.66,553.36Z"/><path class="cls-3" d="M438.4,522.1c-7.17,1.66-15.59-.05-22.35-4.54-.92-.61-2,0-1.54.91,3.33,6.52,2.87,13.49-1.22,18.5-.55.68.41,1.73,1.38,1.51,7.16-1.65,15.58.06,22.34,4.54.92.61,2,0,1.54-.91-3.32-6.52-2.86-13.49,1.23-18.51C440.34,522.92,439.38,521.87,438.4,522.1Z"/><path class="cls-3" d="M416.42,507.22a17.64,17.64,0,0,1,12.3,2.5c.69.42,1.48-.05,1.18-.7a9.87,9.87,0,0,1,.67-10.18c.38-.52-.33-1.3-1.06-1.16a17.69,17.69,0,0,1-12.3-2.5c-.69-.42-1.48.05-1.18.7a9.89,9.89,0,0,1-.67,10.19C415,506.58,415.69,507.36,416.42,507.22Z"/><polygon class="cls-1" points="359.43 476.64 403.41 432.3 394.92 416.86 388.97 398.15 359.43 476.64"/><rect class="cls-4" x="548.72" y="124.59" width="9.83" height="12.44" transform="translate(281.7 -368.86) rotate(48.15)"/><rect class="cls-4" x="298.28" y="464.69" width="11.19" height="12.44" transform="translate(305.55 -89.53) rotate(33.01)"/><path class="cls-1" d="M222.55,171.8v19.52s-52.94,15-82.29,27a37.4,37.4,0,0,1,25.87-68.93,68.36,68.36,0,0,1,43.44-59.49,23.89,23.89,0,0,0-.48,3.59c-.36,6.58.22,18.56,1.07,29.72a13.37,13.37,0,0,0,2.78,26.45h.37A74.41,74.41,0,0,0,222.55,171.8Z"/><path class="cls-1" d="M359.58,186.81a68.82,68.82,0,0,0-12.28-1.72c-15.18-.57-58.69,6.23-58.69,6.23v-20a64.19,64.19,0,0,0,7-22.54c.44-4.88,2.71-23.79,2.78-40.55a47.19,47.19,0,0,1,37.37,59.19A49.13,49.13,0,0,1,359.58,186.81Z"/><path class="cls-1" d="M502,137.4c-15.78,10.48-29.39,22.22-35,41-16.1,60.94-29.8,112.79-45.91,173.73a1.39,1.39,0,0,0,2.67.74c16.1-60.95,29.8-112.79,45.91-173.73,5.38-18,18.56-29.24,33.71-39.31C504.83,138.81,503.44,136.41,502,137.4Z"/><path class="cls-1" d="M317.69,447.9c4.6-1.81,8.09-7.72,5.77-12.47-.78-1.6-3.16-.2-2.39,1.39,1.47,3-1.29,7.31-4.11,8.42-1.64.64-.92,3.32.73,2.66Z"/><path class="cls-1" d="M329.69,429.56a19.76,19.76,0,0,0-10.31,4.12l3.59.88a16.77,16.77,0,0,1,11.51-2.07l.06-.19.68-2.49A18.39,18.39,0,0,0,329.69,429.56Z"/><path class="cls-1" d="M340.48,394.56h0a19.71,19.71,0,0,0-18.13,14.23,19.2,19.2,0,0,0,7.35,20.77,21.32,21.32,0,0,0,4.85,2.74l.68-2.49,0-.18c-7.82-3.29-12.67-11.5-10.27-20.11a17,17,0,0,1,19.12-12l.26-.91.48-1.75A19.08,19.08,0,0,0,340.48,394.56Z"/><path class="cls-1" d="M349.3,359a19.65,19.65,0,0,0-17.05,14.14c-2.38,8.58,1.38,16.79,8.22,21.39h0a21.43,21.43,0,0,0,3.9,2.09l.48-1.75.25-.92c-7.78-3.3-12.6-11.5-10.2-20.08a17,17,0,0,1,19-12l.05-.22.68-2.45A18.82,18.82,0,0,0,349.3,359Z"/><path class="cls-1" d="M359,324.12A19.7,19.7,0,0,0,342,338.27,19.21,19.21,0,0,0,349.3,359a21.77,21.77,0,0,0,4.71,2.68l.68-2.45.07-.22c-7.74-3.33-12.52-11.5-10.15-20a17,17,0,0,1,19-12l.07-.24.68-2.43A18.64,18.64,0,0,0,359,324.12Z"/><path class="cls-1" d="M368.73,289.22a19.68,19.68,0,0,0-17.07,14.14A19.21,19.21,0,0,0,359,324.12a21.33,21.33,0,0,0,4.63,2.65l.68-2.43.07-.24h0c-7.72-3.33-12.46-11.47-10.08-20a17,17,0,0,1,18.91-12l.07-.25.66-2.4A18.47,18.47,0,0,0,368.73,289.22Z"/><path class="cls-1" d="M379.53,254.22h0a19.73,19.73,0,0,0-18.13,14.23,19.22,19.22,0,0,0,7.35,20.77,21.73,21.73,0,0,0,4.58,2.61l.66-2.4.07-.27c-7.67-3.37-12.36-11.48-10-20a17,17,0,0,1,18.82-12l.28-1,.45-1.69A18.59,18.59,0,0,0,379.53,254.22Z"/><path class="cls-1" d="M393.44,218.87l-.66,2.39-.07.29a17,17,0,0,0-18.75,12c-2.37,8.47,2.29,16.57,9.92,20l-.28,1-.45,1.69a21,21,0,0,1-3.62-2h0c-6.84-4.6-10.6-12.81-8.22-21.39a19.68,19.68,0,0,1,17.07-14.14A18.86,18.86,0,0,1,393.44,218.87Z"/><path class="cls-1" d="M393.53,218.58l-.09.29-.66,2.39a21.28,21.28,0,0,1-4.42-2.57A19.21,19.21,0,0,1,381,197.92a15.84,15.84,0,0,1,.94-2.61c.81.45,1.61.95,2.39,1.45a13.35,13.35,0,0,0-.67,1.9C381.31,207.11,385.94,215.18,393.53,218.58Z"/><path class="cls-1" d="M210.88,400.53a16.23,16.23,0,0,1,2.66,7l2.84.7a19,19,0,0,0-3.11-9.05,19.63,19.63,0,0,0-20.63-8.24,18.8,18.8,0,0,0-3.22,1l1.05,1.59.48.75h0A16.9,16.9,0,0,1,210.88,400.53Z"/><path class="cls-1" d="M192.64,390.9a19.26,19.26,0,0,1-2.17,2.61l-1.05-1.59-.49-.73a16.73,16.73,0,0,0,1.93-20.84A17,17,0,0,0,171,364l-.53-.78-1-1.57a18.2,18.2,0,0,1,3.12-1A19.67,19.67,0,0,1,193.23,369,19.25,19.25,0,0,1,192.64,390.9Z"/><path class="cls-1" d="M173.21,338.75a19.73,19.73,0,0,0-20.62-8.25,18.07,18.07,0,0,0-3,1l1,1.52.54.83a16.94,16.94,0,0,1,19.71,6.34A16.75,16.75,0,0,1,169,360.91l.51.77,1,1.57a18.58,18.58,0,0,0,2.1-2.55A19.25,19.25,0,0,0,173.21,338.75Z"/><path class="cls-1" d="M152.59,330.5a21.47,21.47,0,0,1-2,2.48l-1-1.52-.54-.83A16.74,16.74,0,0,0,150.79,310a17,17,0,0,0-19.6-6.39l-1-1.5-.56-.85a16,16,0,0,1,1.84-.63,19.68,19.68,0,0,1,21.69,8A19.25,19.25,0,0,1,152.59,330.5Z"/><path class="cls-1" d="M131.48,300.59a16.15,16.15,0,0,1-1.28,1.48l-.56-.85-1-1.48a16.71,16.71,0,0,0,1.69-20.58,17,17,0,0,0-19.49-6.44l-.62-.93-.94-1.42a18.65,18.65,0,0,1,2.79-.85,19.63,19.63,0,0,1,20.63,8.24A19.32,19.32,0,0,1,131.48,300.59Z"/><path class="cls-1" d="M112.09,269.52a20.85,20.85,0,0,1-1.85,2.27l-.94-1.42-.6-.91A16.7,16.7,0,0,0,110.31,249a16.41,16.41,0,0,0-6.31-5.53c.57-.69,1.19-1.41,1.86-2.14a18.83,18.83,0,0,1,6.84,6.28A19.23,19.23,0,0,1,112.09,269.52Z"/><circle class="cls-1" cx="142.74" cy="224.21" r="30.62" transform="translate(-119.03 270.29) rotate(-67.5)"/><path class="cls-1" d="M113.65,233.79a12.41,12.41,0,0,0-.81-2.93A50.5,50.5,0,0,0,97.66,252.7l1.58,2.41C101.65,249.14,105.05,240.67,113.65,233.79Z"/><path class="cls-1" d="M396.2,208.91l-1.1,4c-6.52-13.67-22.08-23.11-35.5-26.06a26.16,26.16,0,0,1-2.35-3.34C372.67,186.5,389.82,196.58,396.2,208.91Z"/><path class="cls-1" d="M199,238.13c26.45,13.82,57.8,15.23,85.07,2.78,24.34-11.11,46.67-33.66,47.36-61.77,0-1.78-2.72-1.78-2.76,0-.67,27.14-22.57,48.72-46,59.39-26.33,12-56.77,10.55-82.29-2.78-1.57-.83-3,1.56-1.39,2.38Z"/><path class="cls-4" d="M318.05,187.29c-2.38,39.79-22.58,77.77-50.81,105.36-1.27,1.24-3.22-.71-1.94-1.95,27.6-27,47.51-64.13,50-103.08Z"/><path class="cls-4" d="M260.59,290.7c-28.75-28.13-49.16-67.23-50.19-107.94-.05-1.78-2.81-1.79-2.77,0,1.06,41.43,21.73,81.25,51,109.89,1.28,1.25,3.23-.71,2-1.95Z"/><path class="cls-2" d="M439.22,294.08,364,468.35a50,50,0,0,1-45.92,30.19h-1.81l.76-2.76h.83c2.48-.92,3.42-3.49,1.34-5.4-.19-.12-.38-.26-.58-.38l.78-2.79,1.41.94a2,2,0,0,1,.23.18s0,0,0,0a6,6,0,0,1,2,5.36,5.23,5.23,0,0,1-.79,2c3.18-.06,7.48-.36,10.09-2.35s4-7,.62-8.93l-10.86-7.22.76-2.79c3.83,2.53,7.67,5.09,11.5,7.63a6.32,6.32,0,0,1,2.91,3.73,7.79,7.79,0,0,0,4.29-7.23,9.09,9.09,0,0,0-1.66-5.23L325.79,464l.77-2.8c4.75,3.16,9.49,6.29,14.21,9.44,1-1.52,1.54-3.67.72-5.32A9.7,9.7,0,0,0,338,462l-9.86-6.55.78-2.79L396.2,208.91Z"/><path class="cls-1" d="M113.65,498.54H322.28a1.39,1.39,0,0,0,0-2.77H113.65a1.39,1.39,0,0,0,0,2.77Z"/><path class="cls-1" d="M318.46,498.49c2.27-.77,4.22-2.26,4.61-4.75a6.05,6.05,0,0,0-2-5.38c-1.33-1.17-3.3.78-2,1.95,2.22,1.95,1.22,4.63-1.38,5.51-1.68.57-1,3.24.73,2.67Z"/><path class="cls-1" d="M322.28,498.54c4.82-.09,11-.8,13.87-5.13,2.31-3.44,2.16-9.05-1.76-11.3A1.38,1.38,0,0,0,333,484.5c3.37,1.93,1.88,7-.64,8.93s-6.9,2.28-10.08,2.34a1.39,1.39,0,0,0,0,2.77Z"/><path class="cls-2" d="M199.22,406.8l-19.05-4.72a98.7,98.7,0,0,0-56.31,89.15c0,2.46.1,4.9.28,7.31H63.22s-14.89,0-29.91-26.83c-12.34-22,4.39-64.64,4.39-64.64l60-154.37Z"/><path class="cls-4" d="M311.72,167.79A17,17,0,0,1,294,183.42a18.79,18.79,0,0,1-3.11-.44.81.81,0,0,1-.19-1.51,16.87,16.87,0,0,0,3.94-26.92c.43-2,.69-3.65.84-4.85A16.87,16.87,0,0,1,311.72,167.79Z"/><circle class="cls-1" cx="177.97" cy="233.29" r="36.86" transform="translate(-87.18 358.95) rotate(-78.02)"/><circle class="cls-1" cx="210.92" cy="215.85" r="27.64" transform="translate(-35.93 389.48) rotate(-80.78)"/><circle class="cls-1" cx="187.11" cy="190.33" r="27.64"/><path class="cls-1" d="M293.62,78.27c-47.51-9.44-84.53,15.24-84.53,15.24.7-13,15.16-40,45.63-40C276.23,53.54,288,65,293.62,78.27Z"/><path class="cls-3" d="M250.84,53.71A60.25,60.25,0,0,1,225.8,94c-1.47,1-2.85-1.37-1.4-2.37A57,57,0,0,0,248,54C248.89,53.87,249.86,53.76,250.84,53.71Z"/><path class="cls-3" d="M272.9,56.93C270,69.82,263.53,81.53,252.44,90c-1.41,1.08-2.79-1.33-1.39-2.39,10.56-8.1,16.6-19.38,19.24-31.71C271.18,56.24,272.05,56.57,272.9,56.93Z"/><path class="cls-1" d="M255.65,92.17c0,24.88-20.21,19.35-20.21,19.35-6.69,23.39-25.3,11.42-25.3,11.42-.38-5-.71-10.15-.92-14.9a38.8,38.8,0,0,1,15.91-11.29A68.23,68.23,0,0,1,255.65,92.17Z"/><path class="cls-1" d="M298,121.75c-17.84-13.37-22.11-31.28-22.11-31.28s10.91-.38,21.27-.62c.22,1.23.42,2.46.57,3.66C298.67,101.53,298.51,112,298,121.75Z"/><path class="cls-1" d="M266.14,119.46a93.85,93.85,0,0,0,3.86,24.8,1.38,1.38,0,0,0,2.66-.74,91.57,91.57,0,0,1-3.76-24.06c0-1.77-2.81-1.78-2.76,0Z"/><path class="cls-1" d="M259.88,146.67c4.33.86,9.06,1.37,12.43-2.06,1.24-1.28-.71-3.23-2-2-2.61,2.67-6.43,2-9.74,1.35-1.74-.35-2.48,2.32-.73,2.67Z"/><path class="cls-1" d="M268.71,120.16A9.42,9.42,0,0,1,283.19,118c1.33,1.17,3.29-.78,1.95-2a12.21,12.21,0,0,0-18.81,2.75c-.95,1.51,1.44,2.9,2.38,1.39Z"/><path class="cls-1" d="M234.13,120.12a24.71,24.71,0,0,1,17.6-.19c1.67.6,2.4-2.07.73-2.67a27.16,27.16,0,0,0-19.07.19c-1.64.63-.93,3.3.74,2.67Z"/><path class="cls-2" d="M298.27,101.17c-53.4-19.57-88.56,15.58-88.56,15.58a225,225,0,0,1-.62-23.24c47.21-29.34,84.53-15.24,84.53-15.24a56.63,56.63,0,0,1,4.06,15.24C298,95.88,298.16,98.46,298.27,101.17Z"/><path class="cls-4" d="M205.48,147.66a16.88,16.88,0,1,1-3.95,33.3.81.81,0,0,1-.19-1.51,16.89,16.89,0,0,0,0-29.82.8.8,0,0,1,.19-1.5A16.62,16.62,0,0,1,205.48,147.66Z"/><path class="cls-4" d="M209.26,141.78c-4.11,0-4.12,6.38,0,6.38S213.37,141.78,209.26,141.78Z"/><path class="cls-1" d="M259.37,164.78c-.39,7.28-11.37,7.34-11.37,0s11-7.28,11.37,0c.09,1.77,2.86,1.78,2.76,0a8.45,8.45,0,1,0-8.83,8.43c4.93.22,8.58-3.69,8.83-8.43C262.23,163,259.46,163,259.37,164.78Z"/><path class="cls-1" d="M241,130a1.94,1.94,0,0,0,3.84-.22,8.56,8.56,0,0,0,0-3.53c-.52-2.28-3.46-2.23-3.9.23A9.17,9.17,0,0,0,241,130Z"/><path class="cls-1" d="M277.07,130a1.94,1.94,0,0,0,3.84-.22,8.4,8.4,0,0,0,0-3.53c-.52-2.28-3.46-2.23-3.9.23A9.17,9.17,0,0,0,277.07,130Z"/><path class="cls-3" d="M161.13,199.74c-.63-.48-1.26-.92-1.92-1.34a39.62,39.62,0,0,0-20.86,34.89,39.13,39.13,0,0,0,6.36,21.47,24.25,24.25,0,0,0,3.07-.36,36.81,36.81,0,0,1,13.58-54h0C161.28,200.17,161.2,200,161.13,199.74Z"/><path class="cls-3" d="M213.41,243.37c-.26,1-.58,1.91-.92,2.84-.52,0-1,0-1.57,0a30.45,30.45,0,0,1-30.36-28.78A1.38,1.38,0,0,1,182,216h0a1.4,1.4,0,0,1,1.39,1.34,27.63,27.63,0,0,0,27.58,26.11C211.77,243.49,212.6,243.44,213.41,243.37Z"/><path class="cls-3" d="M163,174.49l0,0a1.37,1.37,0,0,0-2,.42,30.18,30.18,0,0,0-2,26.83,26.08,26.08,0,0,1,2.43-1.33,27.6,27.6,0,0,1,2-24.1A1.37,1.37,0,0,0,163,174.49Z"/><path class="cls-3" d="M209.09,93.51a23.84,23.84,0,0,1,.48-3.6c-1,.4-2,.81-3,1.27-.11.76-.18,1.49-.22,2.18-.39,7,.24,19.38,1.13,30.75a13.21,13.21,0,0,1,2.71-.88C209.31,112.07,208.73,100.09,209.09,93.51Z"/><path class="cls-3" d="M113.87,417.5a14.84,14.84,0,0,0,9.09-9.09.88.88,0,0,1,1.65,0,14.8,14.8,0,0,0,9.08,9.09.89.89,0,0,1,0,1.66,14.81,14.81,0,0,0-9.08,9.08.87.87,0,0,1-1.65,0,14.85,14.85,0,0,0-9.09-9.08A.88.88,0,0,1,113.87,417.5Z"/><path class="cls-3" d="M113.29,361a14.84,14.84,0,0,0,9.09-9.09.88.88,0,0,1,1.65,0,14.8,14.8,0,0,0,9.08,9.09.87.87,0,0,1,0,1.65,14.85,14.85,0,0,0-9.08,9.09.87.87,0,0,1-1.65,0,14.89,14.89,0,0,0-9.09-9.09A.87.87,0,0,1,113.29,361Z"/><path class="cls-3" d="M71.3,388.36a24.9,24.9,0,0,0,16.51-16.51,1.13,1.13,0,0,1,2.16,0,24.93,24.93,0,0,0,16.5,16.51,1.13,1.13,0,0,1,0,2.16A24.89,24.89,0,0,0,90,407a1.13,1.13,0,0,1-2.16,0A24.86,24.86,0,0,0,71.3,390.52,1.13,1.13,0,0,1,71.3,388.36Z"/><path class="cls-1" d="M256.85,191.32c-17.07,0-27.74-9.34-34.3-19.52v4.82c8.61,11.44,20.41,17.47,34.3,17.47,15.77,0,25.64-8.07,31.76-17.39v-5.36C283,181.61,273.37,191.32,256.85,191.32Z"/><path class="cls-4" d="M264.4,290.19A27.83,27.83,0,1,0,292.22,318,27.83,27.83,0,0,0,264.4,290.19Zm0,52.89A25.07,25.07,0,1,1,289.46,318,25.06,25.06,0,0,1,264.4,343.08Z"/><path class="cls-4" d="M280.92,295.65c1,13.15-6.59,20.38-16.53,22.37-10.41,2.08-21.66,4.6-19.64,19.71a27.82,27.82,0,1,0,36.17-42.08Z"/><path class="cls-1" d="M508.7,426.67v4.52a66.69,66.69,0,0,1-39.46,24.56,68.34,68.34,0,0,1-71-30.63A65.91,65.91,0,0,1,390.46,407l1.85-4.3a64.27,64.27,0,0,0,13.32,28,65.54,65.54,0,0,0,71.72,19.94A64,64,0,0,0,508.7,426.67Z"/><path class="cls-1" d="M570.71,176.94C564,190.43,554.9,202.38,547,215.1c-5.05,38.41-10.05,75.93-15.07,113.66-.7-1.67-1.44-3.2-2.16-4.59,4.84-36.36,9.68-72.57,14.53-109.53a1.29,1.29,0,0,1,.18-.73c6.48-10.41,13.81-20.26,19.9-30.93,5.21-9.14,15.41-26.11,7.51-36.32-13.73-17.13-28.52-33.35-42.27-50.45-5.44,2.11-5.44,9.48-3.54,14.12,1.5,3.62,4.11,6.75,6.61,9.72l.62,0c5.61.62,8.92,4.37,12.51,8.32q8.57,9.39,16.79,19.06c1.15,1.36-.8,3.32-2,2q-6.54-7.71-13.32-15.24c-5.36-5.94-10.14-13-19.2-10.88-4.7,1.11-9.31,2.89-13.91,4.31,0,0-.05,0-.07,0a1.27,1.27,0,0,0,0,.14,5.73,5.73,0,0,0,3.13,8.58c4.22-1.52,8.64-3,12.8-2.78,5.06.24,8.43,3,11.75,6.51q7,7.44,13.6,15.23c1.15,1.34-.8,3.3-2,2-6.69-7.88-16-23.19-27.72-20.4-2.61.62-5.21,1.45-7.79,2.31l-.18.07c-1.76.58-3.5,1.16-5.24,1.71-1.57,3.47-.87,9.45,2.31,11.71,3.55,2.51,9.34,1.71,13.31,1a1.41,1.41,0,0,1,.72.06,1.1,1.1,0,0,1,1,.69q3.09,6.51,6.21,13.05c.76,1.6-1.63,3-2.39,1.39-1.95-4.11-3.92-8.22-5.86-12.34-5.23.9-12.42,1.43-16.13-2.93-3.11-3.63-3.64-10.25-1.37-14.41a1.21,1.21,0,0,1,.91-.67c.83-.26,1.67-.55,2.54-.85a8.63,8.63,0,0,1-2.06-11.24,1.3,1.3,0,0,1,.92-.65,1.34,1.34,0,0,1,.85-.77c4.77-1.48,10.4-4.11,15.72-4.79-3.46-4.23-6.68-8.83-7-14.45s1.7-10.87,7.38-12.43a1.09,1.09,0,0,1,1.45.32c13.89,17.35,28.89,33.75,42.79,51.08C581.16,154.2,575.36,167.53,570.71,176.94Z"/><path class="cls-1" d="M287.91,428.69,338,462c1.49,1,2.88-1.41,1.4-2.39L289.3,426.3c-1.48-1-2.87,1.41-1.39,2.39Z"/><path class="cls-1" d="M337.3,489c4.06-2,6.39-4.32,6.93-8.93a12.14,12.14,0,0,0-2.07-8.35c-.93-1.52-3.32-.13-2.38,1.39a9.44,9.44,0,0,1,1.8,5.52c-.07,4.2-2.11,6.22-5.67,8-1.6.79-.2,3.17,1.39,2.39Z"/><path class="cls-1" d="M338,462a9.83,9.83,0,0,1,3.49,3.35c.9,1.84.09,4.36-1.11,5.87s.84,3.34,1.95,1.95a9.23,9.23,0,0,0,2-8c-.55-2.36-3-4.3-4.94-5.55-1.5-1-2.89,1.43-1.4,2.39Z"/><path class="cls-1" d="M286.4,437.82l53.87,35.79c1.49,1,2.87-1.41,1.4-2.39l-53.88-35.78c-1.48-1-2.87,1.4-1.39,2.38Z"/><path class="cls-1" d="M282.89,451.22,333,484.5c1.48,1,2.87-1.4,1.39-2.39l-50.1-33.28c-1.49-1-2.88,1.41-1.4,2.39Z"/><path class="cls-1" d="M278.78,463.55l40.61,27c1.49,1,2.88-1.41,1.4-2.39l-40.62-27c-1.48-1-2.87,1.4-1.39,2.38Z"/><path class="cls-1" d="M439.22,294.08l-58.17,71.1c-1.14,1.38-3.07-.59-2-2l58.79-71.82Z"/><path class="cls-1" d="M138,391.64l183.56,45.43c1.73.43,2.47-2.24.74-2.67L138.72,389c-1.73-.43-2.47,2.24-.74,2.66Z"/><rect class="cls-3" x="25.01" y="368.59" width="30.41" height="82.57"/><path class="cls-4" d="M38.44,319.53c-4.71,7.43-16.7,30.06.28,46.06a2,2,0,0,0,2.78,0c17-16,5-38.63.28-46.06A2,2,0,0,0,38.44,319.53Z"/><path class="cls-1" d="M23.63,368.59v83.64a1.39,1.39,0,0,0,2.77,0V368.59a1.39,1.39,0,0,0-2.77,0Z"/><path class="cls-1" d="M25,370H55.42a1.39,1.39,0,0,0,0-2.77H25A1.39,1.39,0,0,0,25,370Z"/><path class="cls-1" d="M54,368.59v83.64a1.38,1.38,0,0,0,2.76,0V368.59a1.38,1.38,0,0,0-2.76,0Z"/><path class="cls-1" d="M23.88,367.59c-7.33,6.46-13.86,22.35.36,24.66,1.74.28,2.49-2.38.74-2.67-11.9-1.93-4.86-15,.86-20,1.33-1.18-.63-3.13-2-2Z"/><path class="cls-1" d="M31.45,368.57c-1.75,17.54,5,33.79,23.34,38,1.73.4,2.47-2.27.73-2.66-17.28-4-22.93-19-21.3-35.32.18-1.77-2.59-1.75-2.77,0Z"/><path class="cls-1" d="M38.73,351.8v15.31a1.38,1.38,0,0,0,2.76,0V351.8a1.38,1.38,0,0,0-2.76,0Z"/><path class="cls-4" d="M.35,453.36l16.87,30.48v14.7h46v-14.7l16.86-30.48a2.77,2.77,0,0,0-2.42-4.11H2.77A2.77,2.77,0,0,0,.35,453.36Z"/><path class="cls-1" d="M62.51,466.76A26.53,26.53,0,0,1,42,457.09a26.82,26.82,0,0,1-1.73-2.35,26.71,26.71,0,0,1-1.72,2.35,26.52,26.52,0,0,1-20.49,9.67A26.22,26.22,0,0,1,6.21,464l2.17,3.91a28.71,28.71,0,0,0,9.71,1.67A29.18,29.18,0,0,0,40.3,459.3a29.21,29.21,0,0,0,22.21,10.23A28.8,28.8,0,0,0,72,467.94l2.13-3.87A26.24,26.24,0,0,1,62.51,466.76Z"/><rect class="cls-1" x="17.21" y="483.85" width="46.01" height="2.76"/><path class="cls-4" d="M527.07,319.53c4.71,7.43,16.69,30.06-.28,46.06a2,2,0,0,1-2.78,0c-17-16-5-38.63-.28-46.06A2,2,0,0,1,527.07,319.53Z"/><path class="cls-1" d="M541.88,368.59v83.64a1.39,1.39,0,0,1-2.77,0V368.59a1.39,1.39,0,0,1,2.77,0Z"/><path class="cls-1" d="M540.49,370h-30.4a1.39,1.39,0,0,1,0-2.77h30.4a1.39,1.39,0,0,1,0,2.77Z"/><path class="cls-1" d="M511.47,368.59v83.64a1.39,1.39,0,0,1-2.77,0V368.59a1.39,1.39,0,0,1,2.77,0Z"/><path class="cls-1" d="M541.62,367.59c5.42,4.91,10.75,21.37-.35,23.18-1.75.28-2.49-2.38-.74-2.67,8.73-1.42,3-15-.86-18.55-1.32-1.2.64-3.15,2-2Z"/><path class="cls-1" d="M532.38,368.57c-.12,12.59-10,20.82-22.39,18.64-1.75-.31-1-3,.73-2.67,10.64,1.87,18.8-5.28,18.89-16a1.39,1.39,0,0,1,2.77,0Z"/><path class="cls-1" d="M526.78,351.8v15.31a1.39,1.39,0,0,1-2.77,0V351.8a1.39,1.39,0,0,1,2.77,0Z"/><path class="cls-4" d="M485.33,453.36l16.86,30.48v14.7h46v-14.7l16.87-30.48a2.77,2.77,0,0,0-2.42-4.11H487.75A2.77,2.77,0,0,0,485.33,453.36Z"/><path class="cls-1" d="M547.49,466.76A26.52,26.52,0,0,1,527,457.09a26.82,26.82,0,0,1-1.73-2.35,26.82,26.82,0,0,1-1.73,2.35A26.53,26.53,0,0,1,491.18,464l2.17,3.91a28.77,28.77,0,0,0,9.72,1.67,29.19,29.19,0,0,0,22.21-10.23,29.19,29.19,0,0,0,22.21,10.23,28.84,28.84,0,0,0,9.51-1.59l2.13-3.87A26.28,26.28,0,0,1,547.49,466.76Z"/><rect class="cls-1" x="502.19" y="483.85" width="46.01" height="2.76"/></g></g></svg>