<svg id="wave" style="transform:rotate(0deg); transition: 0.3s" viewBox="0 0 700 2500" version="1.1" xmlns="http://www.w3.org/2000/svg"><defs><linearGradient id="sw-gradient-0" x1="0" x2="0" y1="1" y2="0"><stop stop-color="#de8171" offset="0%"></stop><stop stop-color="#ded69b" offset="100%"></stop></linearGradient></defs><path style="transform:translate(70%, 0px) rotate(90deg); opacity:1" fill="url(#sw-gradient-0)" d="M0,196L48,163.3C96,131,192,65,288,65.3C384,65,480,131,576,130.7C672,131,768,65,864,89.8C960,114,1056,229,1152,285.8C1248,343,1344,343,1440,359.3C1536,376,1632,408,1728,392C1824,376,1920,310,2016,261.3C2112,212,2208,180,2304,147C2400,114,2496,82,2592,65.3C2688,49,2784,49,2880,49C2976,49,3072,49,3168,65.3C3264,82,3360,114,3456,114.3C3552,114,3648,82,3744,81.7C3840,82,3936,114,4032,163.3C4128,212,4224,278,4320,269.5C4416,261,4512,180,4608,147C4704,114,4800,131,4896,179.7C4992,229,5088,310,5184,351.2C5280,392,5376,392,5472,400.2C5568,408,5664,425,5760,392C5856,359,5952,278,6048,261.3C6144,245,6240,294,6336,269.5C6432,245,6528,147,6624,163.3C6720,180,6816,310,6864,375.7L6912,441L6912,490L6864,490C6816,490,6720,490,6624,490C6528,490,6432,490,6336,490C6240,490,6144,490,6048,490C5952,490,5856,490,5760,490C5664,490,5568,490,5472,490C5376,490,5280,490,5184,490C5088,490,4992,490,4896,490C4800,490,4704,490,4608,490C4512,490,4416,490,4320,490C4224,490,4128,490,4032,490C3936,490,3840,490,3744,490C3648,490,3552,490,3456,490C3360,490,3264,490,3168,490C3072,490,2976,490,2880,490C2784,490,2688,490,2592,490C2496,490,2400,490,2304,490C2208,490,2112,490,2016,490C1920,490,1824,490,1728,490C1632,490,1536,490,1440,490C1344,490,1248,490,1152,490C1056,490,960,490,864,490C768,490,672,490,576,490C480,490,384,490,288,490C192,490,96,490,48,490L0,490Z"></path><defs><linearGradient id="sw-gradient-1" x1="0" x2="0" y1="1" y2="0"><stop stop-color="#de8171" offset="0%"></stop><stop stop-color="#ded69b" offset="100%"></stop></linearGradient></defs><path style="transform:translate(65%, 0px) rotate(90deg); opacity:0.9;" fill="url(#sw-gradient-1)" d="M0,294L48,269.5C96,245,192,196,288,212.3C384,229,480,310,576,359.3C672,408,768,425,864,359.3C960,294,1056,147,1152,106.2C1248,65,1344,131,1440,147C1536,163,1632,131,1728,163.3C1824,196,1920,294,2016,310.3C2112,327,2208,261,2304,228.7C2400,196,2496,196,2592,228.7C2688,261,2784,327,2880,367.5C2976,408,3072,425,3168,424.7C3264,425,3360,408,3456,343C3552,278,3648,163,3744,122.5C3840,82,3936,114,4032,147C4128,180,4224,212,4320,236.8C4416,261,4512,278,4608,253.2C4704,229,4800,163,4896,114.3C4992,65,5088,33,5184,81.7C5280,131,5376,261,5472,294C5568,327,5664,261,5760,253.2C5856,245,5952,294,6048,277.7C6144,261,6240,180,6336,130.7C6432,82,6528,65,6624,89.8C6720,114,6816,180,6864,212.3L6912,245L6912,490L6864,490C6816,490,6720,490,6624,490C6528,490,6432,490,6336,490C6240,490,6144,490,6048,490C5952,490,5856,490,5760,490C5664,490,5568,490,5472,490C5376,490,5280,490,5184,490C5088,490,4992,490,4896,490C4800,490,4704,490,4608,490C4512,490,4416,490,4320,490C4224,490,4128,490,4032,490C3936,490,3840,490,3744,490C3648,490,3552,490,3456,490C3360,490,3264,490,3168,490C3072,490,2976,490,2880,490C2784,490,2688,490,2592,490C2496,490,2400,490,2304,490C2208,490,2112,490,2016,490C1920,490,1824,490,1728,490C1632,490,1536,490,1440,490C1344,490,1248,490,1152,490C1056,490,960,490,864,490C768,490,672,490,576,490C480,490,384,490,288,490C192,490,96,490,48,490L0,490Z"></path></svg>